<?xml version="1.0" standalone="no"?>
<!DOCTYPE svg PUBLIC "-//W3C//DTD SVG 20010904//EN"
 "http://www.w3.org/TR/2001/REC-SVG-20010904/DTD/svg10.dtd">
<svg version="1.0" xmlns="http://www.w3.org/2000/svg"
 width="101.000000pt" height="101.000000pt" viewBox="0 0 101.000000 101.000000"
 preserveAspectRatio="xMidYMid meet">
<metadata>
Created by potrace 1.16, written by Peter Selinger 2001-2019
</metadata>
<g transform="translate(0.000000,101.000000) scale(0.100000,-0.100000)"
fill="#000000" stroke="none">
<path d="M20 682 c-22 -10 -23 -60 -2 -66 31 -8 91 -6 97 4 8 12 173 12 180
-1 8 -12 142 -12 150 1 8 13 52 13 60 0 7 -12 212 -12 220 0 8 12 153 11 161
-1 7 -12 107 0 115 14 4 5 4 17 2 27 -4 15 -21 18 -107 24 -73 5 -110 4 -129
-5 -21 -10 -35 -10 -65 0 -25 8 -61 11 -103 7 -35 -4 -107 -7 -159 -7 -52 0
-123 0 -157 0 -35 0 -91 0 -125 -1 -35 0 -76 2 -93 5 -16 4 -37 3 -45 -1z"/>
<path d="M13 503 c-7 -2 -13 -15 -13 -28 0 -30 41 -40 127 -31 32 4 73 6 91 6
17 -1 87 -1 155 0 229 0 284 0 553 -1 55 0 73 4 77 15 12 31 -20 46 -94 45
-38 -1 -71 -5 -74 -9 -7 -12 -153 -12 -160 0 -8 12 -213 12 -220 0 -8 -13 -52
-13 -60 0 -8 13 -142 13 -150 1 -7 -13 -173 -13 -180 -1 -6 10 -31 12 -52 3z"/>
</g>
</svg>
