<?xml version="1.0" standalone="no"?>
<!DOCTYPE svg PUBLIC "-//W3C//DTD SVG 20010904//EN"
 "http://www.w3.org/TR/2001/REC-SVG-20010904/DTD/svg10.dtd">
<svg version="1.0" xmlns="http://www.w3.org/2000/svg"
 width="101.000000pt" height="101.000000pt" viewBox="0 0 101.000000 101.000000"
 preserveAspectRatio="xMidYMid meet">
<metadata>
Created by potrace 1.16, written by Peter Selinger 2001-2019
</metadata>
<g transform="translate(0.000000,101.000000) scale(0.100000,-0.100000)"
fill="#000000" stroke="none">
<path d="M238 903 c-24 -6 -29 -49 -22 -173 3 -58 5 -150 4 -205 -4 -263 -2
-318 12 -326 20 -13 75 -11 90 4 7 8 87 125 178 262 159 239 165 247 168 212
2 -21 7 -37 13 -37 5 0 9 -16 9 -35 0 -19 -4 -35 -10 -35 -6 0 -10 -30 -10
-70 0 -40 4 -70 10 -70 14 0 13 -47 -1 -52 -8 -3 -10 -29 -5 -90 8 -85 8 -87
37 -93 39 -9 66 1 72 28 10 38 7 216 -3 222 -13 8 -13 52 0 60 13 8 13 142 1
150 -13 8 -13 166 1 182 5 7 8 23 5 35 -5 20 -12 23 -61 23 l-54 0 -173 -257
c-95 -142 -174 -258 -176 -258 -2 0 -1 47 3 105 5 69 3 109 -4 117 -13 16 -15
175 -3 183 15 9 11 94 -6 110 -14 15 -40 17 -75 8z"/>
</g>
</svg>
