<?xml version="1.0" standalone="no"?>
<!DOCTYPE svg PUBLIC "-//W3C//DTD SVG 20010904//EN"
 "http://www.w3.org/TR/2001/REC-SVG-20010904/DTD/svg10.dtd">
<svg version="1.0" xmlns="http://www.w3.org/2000/svg"
 width="101.000000pt" height="101.000000pt" viewBox="0 0 101.000000 101.000000"
 preserveAspectRatio="xMidYMid meet">
<metadata>
Created by potrace 1.16, written by Peter Selinger 2001-2019
</metadata>
<g transform="translate(0.000000,101.000000) scale(0.100000,-0.100000)"
fill="#000000" stroke="none">
<path d="M250 904 c-12 -3 -14 -18 -12 -64 3 -39 0 -60 -7 -60 -6 0 -11 -18
-11 -40 0 -22 5 -40 10 -40 6 0 10 -33 10 -80 0 -47 -4 -80 -10 -80 -6 0 -10
-30 -10 -70 0 -40 4 -70 10 -70 6 0 10 -11 10 -25 0 -14 -5 -25 -11 -25 -17 0
-4 -141 13 -151 17 -11 59 -11 75 -1 17 11 30 157 14 166 -14 9 -15 53 -1 61
13 8 13 142 1 150 -13 8 -13 166 1 182 6 7 8 21 6 31 -4 15 1 17 40 15 25 -2
51 2 57 7 13 11 112 13 183 3 l42 -5 0 -44 c0 -24 5 -44 10 -44 6 0 10 -16 10
-35 0 -19 -4 -35 -10 -35 -6 0 -10 -30 -10 -70 0 -40 4 -70 10 -70 6 0 10 -11
10 -25 0 -14 -5 -25 -11 -25 -8 0 -10 -36 -7 -125 3 -69 7 -128 10 -131 11
-10 73 -15 86 -6 14 9 16 64 12 327 -1 55 1 147 4 205 4 58 4 120 1 138 l-6
33 -97 -1 c-53 -1 -125 -1 -159 -1 -35 0 -91 0 -125 -1 -35 0 -76 2 -93 5 -16
3 -37 3 -45 1z"/>
</g>
</svg>
