<?xml version="1.0" standalone="no"?>
<!DOCTYPE svg PUBLIC "-//W3C//DTD SVG 20010904//EN"
 "http://www.w3.org/TR/2001/REC-SVG-20010904/DTD/svg10.dtd">
<svg version="1.0" xmlns="http://www.w3.org/2000/svg"
 width="101.000000pt" height="101.000000pt" viewBox="0 0 101.000000 101.000000"
 preserveAspectRatio="xMidYMid meet">
<metadata>
Created by potrace 1.16, written by Peter Selinger 2001-2019
</metadata>
<g transform="translate(0.000000,101.000000) scale(0.100000,-0.100000)"
fill="#000000" stroke="none">
<path d="M310 734 c-12 -3 -14 -18 -12 -64 3 -39 0 -60 -7 -60 -6 0 -11 -18
-11 -40 0 -22 5 -40 10 -40 6 0 10 -33 10 -80 0 -52 -4 -80 -11 -80 -17 0 -8
-159 10 -169 20 -12 159 -13 166 -1 8 13 48 13 61 0 7 -7 28 -8 55 -4 54 9
109 60 128 121 12 37 12 46 -3 77 -9 19 -29 46 -46 59 -21 19 -26 27 -15 31
46 17 66 116 35 176 -30 57 -51 65 -180 66 -63 1 -128 4 -145 7 -16 3 -37 3
-45 1z m256 -98 c17 -5 23 -17 26 -48 5 -56 -20 -72 -122 -73 l-77 -1 1 66 1
65 75 -1 c41 0 85 -4 96 -8z m12 -214 c22 -3 41 -62 30 -94 -6 -15 -15 -31
-21 -35 -7 -5 -53 -8 -103 -8 l-91 0 1 70 1 70 85 -1 c47 0 91 -1 98 -2z"/>
</g>
</svg>
