<?xml version="1.0" standalone="no"?>
<!DOCTYPE svg PUBLIC "-//W3C//DTD SVG 20010904//EN"
 "http://www.w3.org/TR/2001/REC-SVG-20010904/DTD/svg10.dtd">
<svg version="1.0" xmlns="http://www.w3.org/2000/svg"
 width="101.000000pt" height="101.000000pt" viewBox="0 0 101.000000 101.000000"
 preserveAspectRatio="xMidYMid meet">
<metadata>
Created by potrace 1.16, written by Peter Selinger 2001-2019
</metadata>
<g transform="translate(0.000000,101.000000) scale(0.100000,-0.100000)"
fill="#000000" stroke="none">
<path d="M288 713 c-24 -6 -29 -50 -22 -173 3 -58 6 -158 7 -223 0 -115 1
-118 24 -123 13 -4 39 -3 57 0 32 6 44 22 150 184 115 176 116 177 116 135 0
-24 5 -43 10 -43 6 0 10 -16 10 -35 0 -19 -4 -35 -10 -35 -11 0 -13 -83 -4
-153 5 -37 11 -47 31 -52 56 -14 60 -5 68 130 5 83 4 129 -3 138 -14 16 -14
167 -1 184 6 7 9 23 6 35 -6 21 -12 23 -64 21 l-58 -1 -116 -177 -116 -178 -6
64 c-9 104 -9 177 2 183 15 10 11 94 -6 111 -14 15 -40 17 -75 8z"/>
</g>
</svg>
