<?xml version="1.0" standalone="no"?>
<!DOCTYPE svg PUBLIC "-//W3C//DTD SVG 20010904//EN"
 "http://www.w3.org/TR/2001/REC-SVG-20010904/DTD/svg10.dtd">
<svg version="1.0" xmlns="http://www.w3.org/2000/svg"
 width="101.000000pt" height="101.000000pt" viewBox="0 0 101.000000 101.000000"
 preserveAspectRatio="xMidYMid meet">
<metadata>
Created by potrace 1.16, written by Peter Selinger 2001-2019
</metadata>
<g transform="translate(0.000000,101.000000) scale(0.100000,-0.100000)"
fill="#000000" stroke="none">
<path d="M337 913 c-19 -5 -17 -23 9 -75 16 -32 41 -49 101 -73 39 -16 46 -16
99 0 61 18 105 55 122 103 9 27 9 27 -34 27 -34 0 -46 -5 -55 -22 -13 -25 -37
-35 -87 -38 -36 -2 -82 26 -82 50 0 8 -9 19 -19 25 -21 10 -24 11 -54 3z"/>
<path d="M277 706 c-12 -13 -16 -40 -16 -125 -1 -63 3 -113 9 -116 14 -8 13
-52 -1 -61 -15 -9 -1 -196 15 -206 18 -12 81 -9 98 5 9 6 65 86 124 177 58 91
109 168 113 172 3 4 5 -41 3 -99 -1 -67 2 -111 9 -119 6 -8 10 -39 7 -76 -3
-68 5 -77 58 -64 23 6 24 10 24 94 0 48 1 160 2 250 3 183 3 184 -67 180 l-40
-3 -115 -175 -115 -174 -8 49 c-5 28 -8 66 -7 85 4 123 4 199 0 203 -3 3 -21
8 -41 12 -26 5 -40 2 -52 -9z"/>
</g>
</svg>
