<?xml version="1.0" standalone="no"?>
<!DOCTYPE svg PUBLIC "-//W3C//DTD SVG 20010904//EN"
 "http://www.w3.org/TR/2001/REC-SVG-20010904/DTD/svg10.dtd">
<svg version="1.0" xmlns="http://www.w3.org/2000/svg"
 width="101.000000pt" height="101.000000pt" viewBox="0 0 101.000000 101.000000"
 preserveAspectRatio="xMidYMid meet">
<metadata>
Created by potrace 1.16, written by Peter Selinger 2001-2019
</metadata>
<g transform="translate(0.000000,101.000000) scale(0.100000,-0.100000)"
fill="#000000" stroke="none">
<path d="M400 724 c-12 -3 -14 -18 -12 -64 3 -39 0 -60 -7 -60 -6 0 -11 -18
-11 -40 0 -22 5 -40 10 -40 13 0 13 -66 -1 -110 -6 -19 -12 -42 -13 -50 -8
-53 -21 -66 -76 -77 -51 -9 -55 -77 -4 -87 10 -2 24 -6 29 -7 16 -5 88 27 107
47 42 48 57 108 53 221 -2 67 0 112 7 120 6 7 8 21 6 31 -4 15 1 17 43 15 26
-2 51 1 54 7 3 5 17 10 31 10 22 0 24 -4 24 -50 0 -27 5 -50 10 -50 14 0 13
-67 -1 -72 -8 -3 -9 -41 -4 -135 7 -129 8 -131 32 -138 56 -14 60 -6 61 128 0
67 3 169 6 227 4 58 4 120 1 138 l-6 33 -132 -2 c-73 -1 -145 0 -162 4 -16 3
-37 3 -45 1z"/>
</g>
</svg>
