<?xml version="1.0" standalone="no"?>
<!DOCTYPE svg PUBLIC "-//W3C//DTD SVG 20010904//EN"
 "http://www.w3.org/TR/2001/REC-SVG-20010904/DTD/svg10.dtd">
<svg version="1.0" xmlns="http://www.w3.org/2000/svg"
 width="101.000000pt" height="101.000000pt" viewBox="0 0 101.000000 101.000000"
 preserveAspectRatio="xMidYMid meet">
<metadata>
Created by potrace 1.16, written by Peter Selinger 2001-2019
</metadata>
<g transform="translate(0.000000,101.000000) scale(0.100000,-0.100000)"
fill="#000000" stroke="none">
<path d="M228 724 c-24 -7 -29 -51 -22 -174 3 -58 6 -159 7 -225 0 -76 4 -123
11 -127 19 -13 64 -9 80 8 17 17 22 89 7 99 -14 8 -12 160 2 188 11 22 17 11
77 -135 58 -141 68 -158 92 -163 15 -4 35 -2 45 3 10 6 47 77 83 162 58 136
65 148 68 116 2 -20 7 -36 13 -36 5 0 9 -16 9 -35 0 -19 -5 -35 -11 -35 -12 0
-10 -153 2 -165 11 -10 73 -16 86 -7 17 11 30 207 15 224 -13 16 -15 175 -2
183 9 6 12 66 4 95 -3 11 -19 15 -64 15 l-60 0 -82 -192 c-45 -106 -85 -189
-89 -185 -4 4 -41 88 -84 187 -42 99 -79 183 -83 187 -9 10 -83 18 -104 12z"/>
</g>
</svg>
