<?xml version="1.0" standalone="no"?>
<!DOCTYPE svg PUBLIC "-//W3C//DTD SVG 20010904//EN"
 "http://www.w3.org/TR/2001/REC-SVG-20010904/DTD/svg10.dtd">
<svg version="1.0" xmlns="http://www.w3.org/2000/svg"
 width="101.000000pt" height="101.000000pt" viewBox="0 0 101.000000 101.000000"
 preserveAspectRatio="xMidYMid meet">
<metadata>
Created by potrace 1.16, written by Peter Selinger 2001-2019
</metadata>
<g transform="translate(0.000000,101.000000) scale(0.100000,-0.100000)"
fill="#000000" stroke="none">
<path d="M130 723 c-8 -3 -18 -11 -22 -16 -10 -15 -8 -96 3 -102 12 -8 10
-167 -3 -183 -14 -17 -2 -213 14 -223 17 -11 156 -10 163 1 8 12 52 13 59 1 8
-13 108 -12 123 0 8 7 64 8 165 4 l153 -7 -3 -47 c-3 -55 5 -69 43 -76 50 -9
58 3 60 106 3 102 0 109 -51 109 l-31 0 1 210 c1 234 1 235 -63 226 -18 -3
-36 -8 -40 -11 -3 -4 -5 -43 -4 -88 1 -45 2 -100 2 -122 0 -22 0 -82 0 -132
l1 -93 -94 3 -93 2 5 61 c3 40 1 64 -7 68 -14 9 -15 53 -1 61 10 6 13 205 4
229 -3 7 -25 11 -57 10 l-52 -2 -3 -46 c-2 -28 1 -46 7 -46 6 0 11 -16 11 -35
0 -19 -5 -35 -11 -35 -8 0 -9 -38 -4 -135 l7 -135 -100 2 -100 3 5 87 c4 55 2
92 -5 100 -13 16 -15 175 -2 183 15 9 12 42 -6 59 -15 16 -46 19 -74 9z"/>
</g>
</svg>
