<?xml version="1.0" standalone="no"?>
<!DOCTYPE svg PUBLIC "-//W3C//DTD SVG 20010904//EN"
 "http://www.w3.org/TR/2001/REC-SVG-20010904/DTD/svg10.dtd">
<svg version="1.0" xmlns="http://www.w3.org/2000/svg"
 width="84.000000pt" height="101.000000pt" viewBox="0 0 84.000000 101.000000"
 preserveAspectRatio="xMidYMid meet">
<metadata>
Created by potrace 1.16, written by Peter Selinger 2001-2019
</metadata>
<g transform="translate(0.000000,101.000000) scale(0.100000,-0.100000)"
fill="#000000" stroke="none">
<path d="M240 734 c-19 -8 -45 -25 -58 -37 -16 -15 -21 -17 -17 -6 10 28 -24
52 -63 45 -20 -3 -39 -11 -43 -17 -10 -17 -9 -98 1 -104 13 -8 11 -173 -2
-181 -15 -9 0 -256 15 -266 16 -10 59 -10 76 1 17 11 27 146 11 156 -13 8 -13
52 0 60 6 4 9 43 8 93 -2 117 21 161 87 167 11 1 25 3 30 5 51 13 78 -28 76
-115 -1 -35 3 -66 9 -70 11 -7 12 -153 0 -160 -10 -6 -12 -106 -1 -123 10 -16
72 -26 89 -14 10 7 14 59 17 211 3 162 7 207 19 226 26 40 61 52 133 46 7 -1
20 -12 29 -26 13 -20 16 -49 15 -140 0 -72 3 -116 10 -121 7 -4 8 -36 4 -99
-8 -103 -3 -111 60 -99 28 5 34 11 40 42 4 23 3 38 -4 40 -14 5 -15 52 -1 52
6 0 10 30 10 70 0 40 -4 70 -10 70 -5 0 -10 11 -10 25 0 14 5 25 10 25 12 0
13 74 1 98 -4 9 -18 38 -29 64 -28 62 -65 81 -153 81 -74 -1 -91 -8 -133 -52
l-29 -31 -19 31 c-18 29 -92 69 -126 69 -9 -1 -33 -8 -52 -16z"/>
</g>
</svg>
