<?xml version="1.0" standalone="no"?>
<!DOCTYPE svg PUBLIC "-//W3C//DTD SVG 20010904//EN"
 "http://www.w3.org/TR/2001/REC-SVG-20010904/DTD/svg10.dtd">
<svg version="1.0" xmlns="http://www.w3.org/2000/svg"
 width="101.000000pt" height="101.000000pt" viewBox="0 0 101.000000 101.000000"
 preserveAspectRatio="xMidYMid meet">
<metadata>
Created by potrace 1.16, written by Peter Selinger 2001-2019
</metadata>
<g transform="translate(0.000000,101.000000) scale(0.100000,-0.100000)"
fill="#000000" stroke="none">
<path d="M358 908 c-39 -32 -23 -80 26 -80 29 0 46 15 46 42 0 36 -45 59 -72
38z"/>
<path d="M588 913 c-35 -9 -34 -76 0 -85 10 -3 27 -2 39 3 16 6 20 15 18 39
-2 28 -19 52 -35 49 -3 -1 -13 -3 -22 -6z"/>
<path d="M469 756 c-2 -3 -17 -7 -32 -10 -77 -14 -156 -100 -175 -191 -6 -31
-6 -157 1 -181 25 -94 102 -167 198 -188 13 -3 36 -8 50 -12 35 -8 136 44 178
91 30 35 56 83 48 91 -2 2 -24 7 -49 10 -44 6 -47 5 -62 -25 -16 -30 -68 -66
-79 -54 -4 3 -13 1 -20 -5 -9 -8 -24 -9 -47 -2 -66 19 -108 62 -115 117 -3 28
-3 28 47 24 28 -2 55 2 61 8 14 14 54 14 62 1 9 -15 197 -3 208 13 6 10 5 53
-4 115 -1 7 -16 41 -33 75 -28 57 -37 65 -96 94 -57 29 -127 43 -141 29z m118
-127 c23 -22 53 -76 53 -96 0 -4 -31 -7 -70 -5 -46 2 -70 0 -70 -7 0 -6 -11
-11 -25 -11 -14 0 -25 4 -25 9 0 6 -19 11 -42 13 -23 2 -43 8 -45 14 -6 18 41
78 73 94 45 23 120 17 151 -11z"/>
</g>
</svg>
