<?xml version="1.0" standalone="no"?>
<!DOCTYPE svg PUBLIC "-//W3C//DTD SVG 20010904//EN"
 "http://www.w3.org/TR/2001/REC-SVG-20010904/DTD/svg10.dtd">
<svg version="1.0" xmlns="http://www.w3.org/2000/svg"
 width="57.000000pt" height="101.000000pt" viewBox="0 0 57.000000 101.000000"
 preserveAspectRatio="xMidYMid meet">
<metadata>
Created by potrace 1.16, written by Peter Selinger 2001-2019
</metadata>
<g transform="translate(0.000000,101.000000) scale(0.100000,-0.100000)"
fill="#000000" stroke="none">
<path d="M240 734 c-19 -8 -46 -25 -59 -37 -13 -12 -21 -17 -18 -10 15 25 -3
38 -53 38 -48 0 -50 -1 -55 -30 -3 -16 -3 -77 1 -135 4 -58 6 -169 6 -247 l-1
-143 24 -6 c14 -3 36 -3 49 0 22 5 25 12 30 78 3 40 5 130 4 200 -1 137 5 160
57 194 34 22 109 22 134 0 25 -23 33 -54 37 -151 3 -83 3 -111 2 -233 -1 -53
3 -76 13 -83 18 -11 50 -11 68 0 18 12 28 125 12 135 -14 9 -15 53 -1 61 6 4
10 51 9 112 -1 139 -30 213 -99 248 -43 22 -121 27 -160 9z"/>
</g>
</svg>
