<?xml version="1.0" standalone="no"?>
<!DOCTYPE svg PUBLIC "-//W3C//DTD SVG 20010904//EN"
 "http://www.w3.org/TR/2001/REC-SVG-20010904/DTD/svg10.dtd">
<svg version="1.0" xmlns="http://www.w3.org/2000/svg"
 width="57.000000pt" height="101.000000pt" viewBox="0 0 57.000000 101.000000"
 preserveAspectRatio="xMidYMid meet">
<metadata>
Created by potrace 1.16, written by Peter Selinger 2001-2019
</metadata>
<g transform="translate(0.000000,101.000000) scale(0.100000,-0.100000)"
fill="#000000" stroke="none">
<path d="M200 733 c-68 -24 -110 -60 -137 -119 -37 -81 -41 -111 -33 -219 7
-98 55 -174 128 -207 26 -12 57 -25 68 -31 12 -5 41 -6 65 -2 24 4 44 6 44 5
0 -2 23 9 51 23 100 51 147 137 146 270 0 73 -2 89 -15 105 -5 6 -7 12 -3 12
11 0 -30 73 -58 103 -56 60 -176 88 -256 60z m95 -72 c3 -5 18 -12 34 -16 30
-6 60 -34 81 -74 8 -15 12 -62 12 -123 -1 -149 -35 -192 -153 -190 -53 0 -65
4 -90 28 -28 27 -52 77 -42 88 3 3 2 13 -2 23 -15 35 -4 137 20 182 18 36 61
71 86 71 11 0 19 5 19 10 0 13 27 13 35 1z"/>
</g>
</svg>
