<?xml version="1.0" standalone="no"?>
<!DOCTYPE svg PUBLIC "-//W3C//DTD SVG 20010904//EN"
 "http://www.w3.org/TR/2001/REC-SVG-20010904/DTD/svg10.dtd">
<svg version="1.0" xmlns="http://www.w3.org/2000/svg"
 width="34.000000pt" height="101.000000pt" viewBox="0 0 34.000000 101.000000"
 preserveAspectRatio="xMidYMid meet">
<metadata>
Created by potrace 1.16, written by Peter Selinger 2001-2019
</metadata>
<g transform="translate(0.000000,101.000000) scale(0.100000,-0.100000)"
fill="#000000" stroke="none">
<path d="M205 730 c-21 -11 -41 -17 -44 -12 -4 4 -27 7 -54 7 -44 0 -47 -2
-52 -30 -3 -16 -3 -77 1 -135 3 -58 7 -170 8 -250 l1 -145 36 -3 c54 -5 69 16
69 93 0 35 -4 66 -9 70 -13 7 -13 172 -1 180 5 3 9 20 8 38 -1 40 15 72 47 93
22 14 27 14 55 0 l31 -15 16 37 c8 20 17 40 20 44 5 10 -57 48 -77 48 -9 0
-33 -9 -55 -20z"/>
</g>
</svg>
