<?xml version="1.0" standalone="no"?>
<!DOCTYPE svg PUBLIC "-//W3C//DTD SVG 20010904//EN"
 "http://www.w3.org/TR/2001/REC-SVG-20010904/DTD/svg10.dtd">
<svg version="1.0" xmlns="http://www.w3.org/2000/svg"
 width="29.000000pt" height="101.000000pt" viewBox="0 0 29.000000 101.000000"
 preserveAspectRatio="xMidYMid meet">
<metadata>
Created by potrace 1.16, written by Peter Selinger 2001-2019
</metadata>
<g transform="translate(0.000000,101.000000) scale(0.100000,-0.100000)"
fill="#000000" stroke="none">
<path d="M121 895 l-45 -22 3 -52 c3 -56 -6 -94 -19 -86 -5 3 -21 3 -35 -1
-22 -5 -25 -11 -25 -50 0 -38 3 -44 24 -50 14 -3 28 -4 33 -1 4 3 7 -56 6
-131 -3 -169 9 -276 33 -304 10 -11 34 -26 52 -34 30 -12 40 -12 82 2 39 13
48 20 48 40 0 30 -19 45 -49 40 -44 -7 -57 9 -64 80 -5 43 -4 73 4 87 7 14 10
61 9 123 l-3 102 31 -5 c38 -6 64 17 64 58 0 33 -15 42 -67 43 -29 1 -34 5
-39 33 -3 17 0 47 6 65 9 23 10 44 4 60 l-9 26 -44 -23z"/>
</g>
</svg>
