<?xml version="1.0" standalone="no"?>
<!DOCTYPE svg PUBLIC "-//W3C//DTD SVG 20010904//EN"
 "http://www.w3.org/TR/2001/REC-SVG-20010904/DTD/svg10.dtd">
<svg version="1.0" xmlns="http://www.w3.org/2000/svg"
 width="57.000000pt" height="101.000000pt" viewBox="0 0 57.000000 101.000000"
 preserveAspectRatio="xMidYMid meet">
<metadata>
Created by potrace 1.16, written by Peter Selinger 2001-2019
</metadata>
<g transform="translate(0.000000,101.000000) scale(0.100000,-0.100000)"
fill="#000000" stroke="none">
<path d="M78 733 c-24 -6 -29 -49 -23 -173 4 -58 7 -145 9 -195 2 -98 11 -129
47 -162 31 -27 93 -53 131 -53 33 0 101 32 137 64 l23 21 -6 -21 c-12 -38 44
-70 80 -46 16 10 30 202 15 202 -6 0 -11 11 -11 25 0 14 5 25 10 25 6 0 10 30
10 70 0 40 -4 70 -10 70 -5 0 -10 16 -10 35 0 19 5 35 11 35 6 0 9 19 7 47
l-3 47 -48 1 c-41 0 -49 -3 -54 -23 -3 -12 0 -28 5 -35 14 -16 14 -174 1 -183
-5 -3 -9 -36 -8 -73 3 -110 -31 -150 -129 -155 -43 -2 -56 2 -73 20 -12 12
-22 35 -24 51 -2 15 -8 51 -14 78 -12 65 -13 202 -2 210 5 3 9 25 9 50 0 64
-23 83 -80 68z"/>
</g>
</svg>
