<?xml version="1.0" standalone="no"?>
<!DOCTYPE svg PUBLIC "-//W3C//DTD SVG 20010904//EN"
 "http://www.w3.org/TR/2001/REC-SVG-20010904/DTD/svg10.dtd">
<svg version="1.0" xmlns="http://www.w3.org/2000/svg"
 width="51.000000pt" height="101.000000pt" viewBox="0 0 51.000000 101.000000"
 preserveAspectRatio="xMidYMid meet">
<metadata>
Created by potrace 1.16, written by Peter Selinger 2001-2019
</metadata>
<g transform="translate(0.000000,101.000000) scale(0.100000,-0.100000)"
fill="#000000" stroke="none">
<path d="M38 732 c-15 -6 -4 -28 73 -143 l90 -137 -95 -132 c-53 -73 -96 -136
-96 -140 0 -14 31 -20 71 -14 37 6 43 13 106 111 l66 104 47 -73 c25 -40 55
-88 65 -106 23 -39 37 -44 93 -34 l42 7 -91 130 c-50 72 -93 135 -96 141 -2 6
34 70 81 143 48 72 86 132 86 133 0 2 -25 2 -56 1 l-56 -1 -50 -89 c-28 -48
-54 -92 -58 -96 -4 -5 -34 35 -66 88 -65 110 -96 131 -156 107z"/>
</g>
</svg>
