<?xml version="1.0" standalone="no"?>
<!DOCTYPE svg PUBLIC "-//W3C//DTD SVG 20010904//EN"
 "http://www.w3.org/TR/2001/REC-SVG-20010904/DTD/svg10.dtd">
<svg version="1.0" xmlns="http://www.w3.org/2000/svg"
 width="51.000000pt" height="102.000000pt" viewBox="0 0 51.000000 102.000000"
 preserveAspectRatio="xMidYMid meet">
<metadata>
Created by potrace 1.16, written by Peter Selinger 2001-2019
</metadata>
<g transform="translate(0.000000,102.000000) scale(0.100000,-0.100000)"
fill="#000000" stroke="none">
<path d="M27 743 c-9 -2 -17 -9 -17 -15 0 -6 43 -122 95 -259 52 -136 92 -256
90 -266 -7 -36 -27 -78 -46 -99 -19 -20 -29 -21 -84 -11 -25 5 -49 -37 -35
-63 12 -23 32 -30 83 -30 55 0 99 28 130 82 23 41 247 624 247 644 0 5 -22 9
-50 9 l-50 0 -67 -197 c-38 -109 -70 -198 -74 -198 -3 0 -36 90 -73 199 -40
117 -74 202 -83 205 -16 7 -39 6 -66 -1z"/>
</g>
</svg>
