<?xml version="1.0" standalone="no"?>
<!DOCTYPE svg PUBLIC "-//W3C//DTD SVG 20010904//EN"
 "http://www.w3.org/TR/2001/REC-SVG-20010904/DTD/svg10.dtd">
<svg version="1.0" xmlns="http://www.w3.org/2000/svg"
 width="101.000000pt" height="101.000000pt" viewBox="0 0 101.000000 101.000000"
 preserveAspectRatio="xMidYMid meet">
<metadata>
Created by potrace 1.16, written by Peter Selinger 2001-2019
</metadata>
<g transform="translate(0.000000,101.000000) scale(0.100000,-0.100000)"
fill="#000000" stroke="none">
<path d="M205 409 c-106 -40 -141 -115 -104 -226 13 -41 60 -78 119 -93 39
-11 51 -10 91 8 43 19 98 74 103 104 1 7 5 23 9 34 10 30 -33 125 -66 147 -14
9 -44 23 -65 30 -35 12 -45 12 -87 -4z m113 -65 c30 -20 55 -79 45 -107 -4
-12 -7 -24 -8 -27 -1 -11 -21 -36 -38 -49 -29 -23 -117 -15 -144 12 -24 24
-26 32 -24 95 1 33 7 49 27 67 15 14 30 23 33 20 4 -2 13 1 21 6 18 11 56 3
88 -17z"/>
</g>
</svg>
