<?xml version="1.0" standalone="no"?>
<!DOCTYPE svg PUBLIC "-//W3C//DTD SVG 20010904//EN"
 "http://www.w3.org/TR/2001/REC-SVG-20010904/DTD/svg10.dtd">
<svg version="1.0" xmlns="http://www.w3.org/2000/svg"
 width="51.000000pt" height="101.000000pt" viewBox="0 0 51.000000 101.000000"
 preserveAspectRatio="xMidYMid meet">
<metadata>
Created by potrace 1.16, written by Peter Selinger 2001-2019
</metadata>
<g transform="translate(0.000000,101.000000) scale(0.100000,-0.100000)"
fill="#000000" stroke="none">
<path d="M50 732 c-22 -10 -22 -90 -1 -96 30 -8 85 -5 98 6 8 6 41 8 93 3 l79
-7 -156 -207 c-86 -113 -158 -213 -160 -221 -8 -36 13 -45 99 -43 46 1 101 2
123 2 179 -1 250 3 257 14 5 7 7 26 6 42 l-3 30 -128 -3 c-89 -2 -133 0 -143
9 -7 6 -23 9 -34 6 -26 -7 -34 -19 146 219 171 226 177 242 96 243 -68 1 -163
0 -234 -1 -35 0 -76 2 -93 5 -16 4 -37 3 -45 -1z"/>
</g>
</svg>
