<?xml version="1.0" standalone="no"?>
<!DOCTYPE svg PUBLIC "-//W3C//DTD SVG 20010904//EN"
 "http://www.w3.org/TR/2001/REC-SVG-20010904/DTD/svg10.dtd">
<svg version="1.0" xmlns="http://www.w3.org/2000/svg"
 width="101.000000pt" height="102.000000pt" viewBox="0 0 101.000000 102.000000"
 preserveAspectRatio="xMidYMid meet">
<metadata>
Created by potrace 1.16, written by Peter Selinger 2001-2019
</metadata>
<g transform="translate(0.000000,102.000000) scale(0.100000,-0.100000)"
fill="#000000" stroke="none">
<path d="M468 960 c3 -39 0 -60 -7 -60 -6 0 -11 -18 -11 -40 0 -22 5 -40 10
-40 6 0 10 -33 10 -80 0 -47 -4 -80 -10 -80 -6 0 -10 -30 -10 -70 0 -40 4 -70
10 -70 6 0 10 -11 10 -25 0 -14 -4 -25 -10 -25 -6 0 -10 -40 -10 -100 0 -60 4
-100 10 -100 11 0 13 -62 4 -97 -5 -18 -16 -23 -71 -29 -41 -4 -72 -3 -86 5
-41 20 -113 10 -122 -19 -12 -37 11 -60 60 -60 25 0 45 5 45 10 0 6 16 10 35
10 19 0 35 -5 35 -11 0 -8 26 -10 85 -7 47 2 87 6 89 9 4 4 8 156 7 272 0 20
0 72 0 115 0 42 -1 122 -1 177 -1 55 1 147 4 205 4 58 4 120 1 138 -5 29 -9
32 -43 32 l-37 0 3 -60z"/>
</g>
</svg>
