<?xml version="1.0" standalone="no"?>
<!DOCTYPE svg PUBLIC "-//W3C//DTD SVG 20010904//EN"
 "http://www.w3.org/TR/2001/REC-SVG-20010904/DTD/svg10.dtd">
<svg version="1.0" xmlns="http://www.w3.org/2000/svg"
 width="101.000000pt" height="101.000000pt" viewBox="0 0 101.000000 101.000000"
 preserveAspectRatio="xMidYMid meet">
<metadata>
Created by potrace 1.16, written by Peter Selinger 2001-2019
</metadata>
<g transform="translate(0.000000,101.000000) scale(0.100000,-0.100000)"
fill="#000000" stroke="none">
<path d="M230 822 c-11 -5 -15 -27 -17 -89 -1 -91 -2 -91 69 -92 21 0 40 4 43
9 8 13 167 11 182 -2 8 -7 59 -8 147 -3 150 8 146 5 146 90 0 88 2 87 -129 85
-64 -1 -144 -1 -178 -1 -35 0 -91 0 -125 -1 -35 0 -76 2 -93 5 -16 4 -37 3
-45 -1z"/>
<path d="M215 487 c-16 -12 -17 -23 -11 -83 4 -37 9 -71 12 -74 3 -3 42 -4 87
-3 45 1 100 2 122 2 187 -2 357 0 360 3 2 1 6 33 10 69 9 83 -4 99 -75 99 -27
0 -52 -4 -55 -10 -3 -5 -17 -10 -30 -10 -13 0 -27 5 -30 10 -8 13 -142 13
-150 1 -7 -13 -173 -13 -180 -1 -9 14 -38 12 -60 -3z"/>
</g>
</svg>
