<?xml version="1.0" standalone="no"?>
<!DOCTYPE svg PUBLIC "-//W3C//DTD SVG 20010904//EN"
 "http://www.w3.org/TR/2001/REC-SVG-20010904/DTD/svg10.dtd">
<svg version="1.0" xmlns="http://www.w3.org/2000/svg"
 width="101.000000pt" height="104.000000pt" viewBox="0 0 101.000000 104.000000"
 preserveAspectRatio="xMidYMid meet">
<metadata>
Created by potrace 1.16, written by Peter Selinger 2001-2019
</metadata>
<g transform="translate(0.000000,104.000000) scale(0.100000,-0.100000)"
fill="#000000" stroke="none">
<path d="M320 1015 c5 -13 18 -41 28 -62 20 -39 48 -121 58 -164 3 -13 7 -33
10 -44 22 -81 27 -168 18 -285 -5 -67 -7 -81 -17 -97 -5 -7 -6 -17 -2 -22 3
-5 1 -12 -4 -15 -4 -3 -8 -17 -8 -31 0 -27 -60 -159 -94 -206 -33 -47 -20 -52
113 -47 65 3 122 8 125 12 4 4 7 69 6 144 -2 160 -2 186 -2 290 0 42 -1 122
-1 177 0 55 1 159 2 232 2 72 0 134 -4 138 -4 4 -24 3 -45 -3 -30 -8 -33 -10
-13 -11 24 -1 25 -4 23 -48 -2 -25 1 -51 7 -58 12 -14 12 -173 -1 -180 -12 -8
-12 -142 1 -150 13 -8 13 -52 0 -60 -12 -8 -12 -213 1 -221 10 -6 11 -79 2
-169 l-5 -50 -87 0 -87 0 28 45 c26 43 96 239 96 270 0 21 11 119 18 157 4 18
3 41 -1 50 -4 10 -9 29 -10 43 -2 14 -6 41 -10 60 -3 19 -7 42 -9 50 -1 8 -5
22 -9 30 -10 25 -78 204 -84 222 -4 12 2 18 24 21 16 2 7 5 -24 6 -52 1 -52 1
-43 -24z"/>
</g>
</svg>
