<?xml version="1.0" standalone="no"?>
<!DOCTYPE svg PUBLIC "-//W3C//DTD SVG 20010904//EN"
 "http://www.w3.org/TR/2001/REC-SVG-20010904/DTD/svg10.dtd">
<svg version="1.0" xmlns="http://www.w3.org/2000/svg"
 width="101.000000pt" height="101.000000pt" viewBox="0 0 101.000000 101.000000"
 preserveAspectRatio="xMidYMid meet">
<metadata>
Created by potrace 1.16, written by Peter Selinger 2001-2019
</metadata>
<g transform="translate(0.000000,101.000000) scale(0.100000,-0.100000)"
fill="#000000" stroke="none">
<path d="M423 895 c-13 -19 -23 -37 -23 -40 0 -6 78 -42 162 -76 l47 -18 25
42 26 42 -48 16 c-26 9 -73 28 -106 43 -32 14 -59 26 -60 26 0 0 -11 -16 -23
-35z"/>
<path d="M529 716 c-7 -7 -88 -18 -159 -21 -71 -3 -118 -9 -126 -18 -3 -3 4
-26 15 -52 19 -44 23 -47 48 -40 16 4 40 7 56 6 15 -1 41 6 58 15 17 8 33 13
36 10 8 -8 -90 -135 -191 -248 l-86 -96 39 -31 c21 -17 41 -31 43 -31 3 0 23
26 46 58 53 74 136 155 162 157 25 2 41 -16 45 -52 11 -83 25 -122 51 -143 45
-36 64 -41 132 -33 37 4 71 6 76 5 24 -7 44 11 50 47 6 42 -1 74 -14 66 -9 -6
-53 -13 -114 -19 -31 -3 -44 2 -63 20 -13 13 -21 29 -18 35 4 5 4 18 0 27 -4
9 -8 32 -10 51 -3 41 -55 94 -81 84 -27 -10 2 34 63 95 29 29 53 58 53 63 0
23 -94 61 -111 45z"/>
</g>
</svg>
