<?xml version="1.0" standalone="no"?>
<!DOCTYPE svg PUBLIC "-//W3C//DTD SVG 20010904//EN"
 "http://www.w3.org/TR/2001/REC-SVG-20010904/DTD/svg10.dtd">
<svg version="1.0" xmlns="http://www.w3.org/2000/svg"
 width="101.000000pt" height="101.000000pt" viewBox="0 0 101.000000 101.000000"
 preserveAspectRatio="xMidYMid meet">
<metadata>
Created by potrace 1.16, written by Peter Selinger 2001-2019
</metadata>
<g transform="translate(0.000000,101.000000) scale(0.100000,-0.100000)"
fill="#000000" stroke="none">
<path d="M130 920 c5 -19 5 -41 -1 -57 -5 -13 -7 -28 -4 -33 3 -5 1 -11 -5
-15 -5 -3 -10 -16 -10 -28 1 -32 -5 -61 -13 -74 -4 -7 -8 -27 -8 -45 -3 -140
-1 -209 4 -243 3 -22 8 -53 11 -70 2 -16 19 -70 36 -118 36 -98 55 -115 110
-96 16 6 31 14 31 17 1 4 3 18 4 32 11 92 16 120 29 164 14 45 14 51 -2 62
-25 20 -28 18 -58 -33 -27 -46 -27 -46 -37 -22 -9 24 -19 120 -17 174 2 82 8
152 13 170 4 11 9 40 12 64 3 23 8 47 11 52 3 5 7 17 9 26 2 10 6 30 10 44 6
23 3 28 -27 39 -18 7 -50 14 -70 17 l-37 5 9 -32z"/>
<path d="M624 905 c3 -22 8 -53 10 -70 3 -16 7 -51 9 -77 l3 -46 -91 5 c-114
7 -144 7 -151 0 -3 -3 2 -29 11 -57 17 -52 47 -76 79 -64 8 3 48 6 90 7 58 2
75 -1 71 -11 -2 -7 1 -23 7 -37 8 -18 8 -28 -1 -39 -7 -8 -14 -37 -16 -63 -2
-26 -6 -58 -8 -69 -13 -53 -61 -125 -117 -178 -34 -31 -61 -59 -59 -60 11 -10
90 -46 100 -46 23 0 77 49 112 103 62 93 91 210 92 373 l0 41 60 17 c33 10 65
19 71 21 14 4 17 75 4 94 -7 12 -18 11 -68 -1 -33 -8 -65 -12 -71 -9 -10 7 -8
101 4 169 7 36 9 35 -88 36 l-59 1 6 -40z"/>
</g>
</svg>
