<?xml version="1.0" standalone="no"?>
<!DOCTYPE svg PUBLIC "-//W3C//DTD SVG 20010904//EN"
 "http://www.w3.org/TR/2001/REC-SVG-20010904/DTD/svg10.dtd">
<svg version="1.0" xmlns="http://www.w3.org/2000/svg"
 width="101.000000pt" height="101.000000pt" viewBox="0 0 101.000000 101.000000"
 preserveAspectRatio="xMidYMid meet">
<metadata>
Created by potrace 1.16, written by Peter Selinger 2001-2019
</metadata>
<g transform="translate(0.000000,101.000000) scale(0.100000,-0.100000)"
fill="#000000" stroke="none">
<path d="M526 926 c-20 -41 -76 -128 -125 -195 -49 -67 -95 -137 -101 -157
-16 -48 -4 -75 91 -205 42 -58 103 -151 134 -207 31 -56 62 -102 69 -102 16 0
106 57 106 67 0 20 -85 138 -229 318 -73 92 -77 99 -62 117 6 7 54 69 106 138
52 69 111 144 130 167 19 23 35 46 35 51 0 11 -94 82 -109 82 -4 0 -24 -33
-45 -74z"/>
</g>
</svg>
