<?xml version="1.0" standalone="no"?>
<!DOCTYPE svg PUBLIC "-//W3C//DTD SVG 20010904//EN"
 "http://www.w3.org/TR/2001/REC-SVG-20010904/DTD/svg10.dtd">
<svg version="1.0" xmlns="http://www.w3.org/2000/svg"
 width="101.000000pt" height="101.000000pt" viewBox="0 0 101.000000 101.000000"
 preserveAspectRatio="xMidYMid meet">
<metadata>
Created by potrace 1.16, written by Peter Selinger 2001-2019
</metadata>
<g transform="translate(0.000000,101.000000) scale(0.100000,-0.100000)"
fill="#000000" stroke="none">
<path d="M408 952 c-10 -27 -65 -119 -122 -206 -104 -156 -123 -197 -111 -236
3 -11 45 -68 92 -127 47 -60 115 -153 151 -208 36 -55 68 -104 72 -108 9 -10
110 53 110 69 0 22 -116 175 -254 333 -51 59 -68 94 -48 103 21 9 252 343 252
365 0 9 -99 63 -115 63 -6 0 -18 -22 -27 -48z"/>
<path d="M676 871 c-14 -15 -26 -31 -26 -37 1 -10 89 -80 112 -89 9 -4 25 7
41 29 l27 34 -45 40 c-60 52 -77 56 -109 23z"/>
<path d="M585 780 c-15 -15 -26 -33 -24 -38 6 -15 102 -92 115 -92 13 0 54 43
54 57 0 12 -71 77 -101 93 -12 7 -24 1 -44 -20z"/>
</g>
</svg>
