<?xml version="1.0" standalone="no"?>
<!DOCTYPE svg PUBLIC "-//W3C//DTD SVG 20010904//EN"
 "http://www.w3.org/TR/2001/REC-SVG-20010904/DTD/svg10.dtd">
<svg version="1.0" xmlns="http://www.w3.org/2000/svg"
 width="101.000000pt" height="101.000000pt" viewBox="0 0 101.000000 101.000000"
 preserveAspectRatio="xMidYMid meet">
<metadata>
Created by potrace 1.16, written by Peter Selinger 2001-2019
</metadata>
<g transform="translate(0.000000,101.000000) scale(0.100000,-0.100000)"
fill="#000000" stroke="none">
<path d="M184 862 c8 -68 16 -80 54 -88 21 -4 44 -9 52 -12 8 -2 27 -5 41 -6
14 -2 31 -6 38 -10 6 -4 51 -4 99 0 48 4 91 7 96 5 6 -1 19 0 31 3 18 5 23 15
28 56 3 28 4 57 0 66 -7 18 -60 17 -121 -2 -49 -16 -99 -18 -104 -5 -1 5 -34
12 -73 14 -38 3 -87 8 -108 11 l-38 4 5 -36z"/>
<path d="M811 874 c-12 -15 -21 -32 -21 -39 0 -13 95 -95 109 -95 4 0 20 14
36 30 l29 30 -35 36 c-29 31 -78 64 -93 64 -2 0 -14 -12 -25 -26z"/>
<path d="M717 782 c-15 -15 -27 -32 -27 -38 0 -11 104 -94 117 -94 10 0 63 52
63 62 0 5 -115 98 -122 98 -2 0 -16 -13 -31 -28z"/>
<path d="M82 377 c-18 -18 -32 -38 -32 -44 0 -32 191 -149 232 -142 7 1 21 -1
31 -6 10 -4 89 -5 175 -1 86 4 168 7 182 7 59 -1 67 6 73 61 9 71 0 100 -25
92 -11 -3 -30 -8 -41 -9 -12 -2 -38 -7 -57 -11 -19 -4 -56 -6 -81 -5 -31 1
-50 -4 -59 -14 -17 -20 -96 -20 -117 0 -8 8 -27 15 -41 14 -15 0 -36 2 -47 5
-11 2 -25 5 -32 5 -6 1 -34 19 -62 41 -28 22 -54 40 -59 40 -4 0 -22 -15 -40
-33z"/>
</g>
</svg>
