<?xml version="1.0" standalone="no"?>
<!DOCTYPE svg PUBLIC "-//W3C//DTD SVG 20010904//EN"
 "http://www.w3.org/TR/2001/REC-SVG-20010904/DTD/svg10.dtd">
<svg version="1.0" xmlns="http://www.w3.org/2000/svg"
 width="101.000000pt" height="104.000000pt" viewBox="0 0 101.000000 104.000000"
 preserveAspectRatio="xMidYMid meet">
<metadata>
Created by potrace 1.16, written by Peter Selinger 2001-2019
</metadata>
<g transform="translate(0.000000,104.000000) scale(0.100000,-0.100000)"
fill="#000000" stroke="none">
<path d="M476 1015 c-4 -14 -4 -30 -1 -36 4 -5 8 -26 9 -47 2 -20 6 -46 9 -57
6 -19 2 -20 -91 -22 -53 -1 -148 -3 -210 -3 -77 0 -112 -4 -112 -12 0 -6 7
-34 16 -62 l16 -51 62 2 c113 5 221 12 271 18 50 7 50 7 50 -22 0 -25 -3 -29
-22 -25 -31 6 -105 -31 -136 -67 -24 -28 -57 -119 -57 -154 0 -29 38 -105 66
-130 36 -34 104 -53 134 -37 33 18 33 8 -1 -43 -32 -49 -82 -93 -136 -121 -18
-9 -33 -20 -33 -24 0 -4 30 -20 66 -36 l65 -29 41 39 c95 92 151 213 163 360
6 69 4 85 -16 129 -13 31 -23 71 -23 105 l-1 55 110 -3 c60 -2 130 -4 155 -6
52 -2 60 5 60 59 0 68 0 68 -173 69 -98 1 -153 5 -151 11 1 6 5 38 8 72 6 74
-3 83 -73 77 -26 -2 -48 1 -52 7 -3 6 -9 -1 -13 -16z m16 -483 c3 -55 -7 -111
-20 -113 -4 0 -15 -2 -25 -4 -17 -3 -42 27 -30 38 3 4 0 13 -6 21 -17 20 3 91
30 110 34 24 48 10 51 -52z"/>
</g>
</svg>
