<?xml version="1.0" standalone="no"?>
<!DOCTYPE svg PUBLIC "-//W3C//DTD SVG 20010904//EN"
 "http://www.w3.org/TR/2001/REC-SVG-20010904/DTD/svg10.dtd">
<svg version="1.0" xmlns="http://www.w3.org/2000/svg"
 width="101.000000pt" height="101.000000pt" viewBox="0 0 101.000000 101.000000"
 preserveAspectRatio="xMidYMid meet">
<metadata>
Created by potrace 1.16, written by Peter Selinger 2001-2019
</metadata>
<g transform="translate(0.000000,101.000000) scale(0.100000,-0.100000)"
fill="#000000" stroke="none">
<path d="M199 983 c-13 -3 -16 -17 -17 -68 0 -36 4 -67 9 -70 11 -8 10 -173
-2 -180 -12 -8 -12 -142 1 -150 14 -8 13 -52 -1 -61 -16 -10 -4 -126 20 -191
28 -76 56 -111 115 -139 45 -23 59 -25 121 -19 39 4 79 9 89 10 41 7 144 67
196 114 l55 49 -18 34 c-42 77 -41 77 -99 22 -98 -92 -150 -112 -270 -105 -25
1 -68 42 -75 71 -3 14 -5 55 -4 92 1 38 -2 69 -8 73 -14 8 -14 52 -1 60 13 8
13 142 1 150 -13 7 -13 173 -1 180 6 4 10 18 9 33 -1 15 -1 32 1 37 9 35 0 43
-40 38 -24 -4 -40 -2 -40 5 0 12 -20 20 -41 15z"/>
<path d="M671 924 c-12 -15 -21 -30 -21 -34 0 -13 97 -90 113 -90 9 0 25 14
37 30 25 35 21 45 -44 92 -48 35 -59 35 -85 2z"/>
<path d="M582 837 c-12 -13 -22 -30 -22 -38 0 -8 25 -34 56 -58 l56 -44 31 32
32 32 -53 50 c-29 27 -59 49 -66 49 -7 0 -22 -10 -34 -23z"/>
</g>
</svg>
