<?xml version="1.0" standalone="no"?>
<!DOCTYPE svg PUBLIC "-//W3C//DTD SVG 20010904//EN"
 "http://www.w3.org/TR/2001/REC-SVG-20010904/DTD/svg10.dtd">
<svg version="1.0" xmlns="http://www.w3.org/2000/svg"
 width="101.000000pt" height="101.000000pt" viewBox="0 0 101.000000 101.000000"
 preserveAspectRatio="xMidYMid meet">
<metadata>
Created by potrace 1.16, written by Peter Selinger 2001-2019
</metadata>
<g transform="translate(0.000000,101.000000) scale(0.100000,-0.100000)"
fill="#000000" stroke="none">
<path d="M274 874 c9 -76 17 -91 56 -104 21 -7 45 -10 54 -7 8 3 18 2 21 -3 8
-13 95 -13 95 -1 0 5 42 7 99 4 119 -6 134 3 129 76 l-3 46 -50 -3 c-86 -5
-279 -3 -305 3 -14 3 -42 8 -62 11 -37 6 -38 6 -34 -22z"/>
<path d="M192 377 c-18 -18 -32 -38 -32 -44 0 -19 81 -84 129 -105 25 -11 55
-24 67 -29 11 -6 24 -9 30 -8 5 1 17 -1 27 -6 25 -10 267 5 267 17 0 6 24 8
64 4 78 -7 92 3 100 69 8 66 -1 78 -50 70 -21 -4 -48 -8 -59 -9 -11 -1 -39 -8
-63 -15 -33 -11 -50 -12 -80 -3 -20 6 -77 10 -127 9 -100 -4 -139 7 -197 53
-20 17 -38 30 -40 30 -2 0 -18 -15 -36 -33z"/>
</g>
</svg>
