<?xml version="1.0" standalone="no"?>
<!DOCTYPE svg PUBLIC "-//W3C//DTD SVG 20010904//EN"
 "http://www.w3.org/TR/2001/REC-SVG-20010904/DTD/svg10.dtd">
<svg version="1.0" xmlns="http://www.w3.org/2000/svg"
 width="101.000000pt" height="105.000000pt" viewBox="0 0 101.000000 105.000000"
 preserveAspectRatio="xMidYMid meet">
<metadata>
Created by potrace 1.16, written by Peter Selinger 2001-2019
</metadata>
<g transform="translate(0.000000,105.000000) scale(0.100000,-0.100000)"
fill="#000000" stroke="none">
<path d="M830 1025 l-24 -25 55 -50 c30 -27 57 -49 60 -50 3 0 18 13 33 29
l27 28 -54 47 c-30 25 -59 46 -64 46 -5 0 -20 -11 -33 -25z"/>
<path d="M568 964 c-22 -7 -32 -38 -19 -63 6 -11 9 -26 6 -33 -3 -7 -2 -41 3
-76 5 -34 6 -62 3 -62 -33 -3 -163 1 -187 6 -41 8 -47 -3 -32 -64 8 -37 17
-52 32 -56 33 -9 67 -7 101 5 18 7 47 9 66 5 l34 -6 -1 -92 c0 -51 -4 -106 -8
-123 -13 -57 -65 -150 -117 -208 -28 -32 -50 -60 -47 -62 2 -2 15 -6 28 -9
101 -20 89 -24 147 54 84 114 112 192 107 300 -2 47 1 80 6 80 6 0 10 16 10
35 0 32 2 35 30 35 68 0 134 60 101 93 -6 6 -11 19 -11 29 0 18 -17 19 -75 5
-61 -15 -60 -17 -58 93 0 55 -2 101 -5 101 -4 1 -16 3 -27 5 -11 2 -31 5 -45
8 -14 2 -33 2 -42 0z"/>
<path d="M740 945 l-23 -25 56 -53 56 -54 25 26 c15 15 26 32 26 38 0 14 -89
93 -105 93 -6 0 -22 -11 -35 -25z"/>
<path d="M68 916 c3 -28 -2 -52 -12 -68 -9 -14 -16 -35 -16 -49 0 -13 -3 -42
-6 -64 -8 -54 -16 -137 -15 -155 1 -8 3 -53 6 -100 7 -122 13 -149 58 -258 32
-80 54 -97 97 -79 34 15 33 13 36 44 10 83 14 103 33 153 l21 54 -22 23 c-12
13 -25 23 -30 23 -5 0 -19 -23 -30 -51 l-21 -51 -16 29 c-12 22 -15 64 -16
195 0 93 4 169 8 171 5 1 10 14 12 27 7 47 16 83 29 115 20 47 0 66 -79 78
l-40 6 3 -43z"/>
</g>
</svg>
