<?xml version="1.0" standalone="no"?>
<!DOCTYPE svg PUBLIC "-//W3C//DTD SVG 20010904//EN"
 "http://www.w3.org/TR/2001/REC-SVG-20010904/DTD/svg10.dtd">
<svg version="1.0" xmlns="http://www.w3.org/2000/svg"
 width="101.000000pt" height="101.000000pt" viewBox="0 0 101.000000 101.000000"
 preserveAspectRatio="xMidYMid meet">
<metadata>
Created by potrace 1.16, written by Peter Selinger 2001-2019
</metadata>
<g transform="translate(0.000000,101.000000) scale(0.100000,-0.100000)"
fill="#000000" stroke="none">
<path d="M316 948 c-3 -18 -5 -40 -6 -48 0 -18 -8 -68 -14 -95 -2 -11 -5 -22
-5 -25 -1 -7 -114 -3 -140 5 -54 17 -76 -20 -49 -82 18 -40 26 -43 96 -40 74
4 75 27 -15 -198 -35 -88 -83 -191 -106 -230 -23 -38 -42 -74 -42 -79 0 -9 91
-46 113 -46 7 0 30 37 51 82 40 87 140 348 147 384 12 62 32 99 55 101 65 5
140 18 143 25 14 26 26 83 21 97 -6 20 -40 25 -60 10 -6 -4 -30 -10 -54 -13
-31 -4 -42 -2 -38 7 2 7 12 36 21 64 10 29 22 55 27 58 20 13 6 23 -56 39 -84
21 -83 21 -89 -16z"/>
<path d="M822 937 c-12 -13 -22 -28 -22 -35 0 -12 101 -92 117 -92 13 0 53 43
53 57 0 17 -90 93 -110 93 -9 0 -26 -10 -38 -23z"/>
<path d="M725 840 c-17 -18 -25 -33 -19 -38 66 -58 105 -83 122 -78 24 8 55
42 51 54 -6 15 -102 92 -114 92 -6 0 -24 -14 -40 -30z"/>
<path d="M609 644 c-9 -11 -25 -15 -51 -12 -21 2 -38 -1 -39 -7 0 -5 -2 -20
-5 -32 -12 -66 -16 -63 112 -58 70 4 121 2 128 -4 12 -10 55 -11 57 -1 3 19 9
49 15 72 8 36 -10 44 -117 52 -72 5 -89 3 -100 -10z"/>
<path d="M452 240 c-19 -52 -3 -74 65 -90 32 -7 65 -15 73 -17 8 -2 24 -3 35
-3 11 1 64 2 118 3 73 2 100 6 107 17 5 8 7 18 4 22 -3 4 0 17 6 28 6 11 8 30
5 41 -7 21 -18 21 -129 -1 -44 -8 -66 -9 -83 -1 -14 6 -29 9 -34 6 -5 -3 -17
-1 -27 4 -10 6 -44 13 -74 16 -55 6 -56 6 -66 -25z"/>
</g>
</svg>
