<?xml version="1.0" standalone="no"?>
<!DOCTYPE svg PUBLIC "-//W3C//DTD SVG 20010904//EN"
 "http://www.w3.org/TR/2001/REC-SVG-20010904/DTD/svg10.dtd">
<svg version="1.0" xmlns="http://www.w3.org/2000/svg"
 width="101.000000pt" height="101.000000pt" viewBox="0 0 101.000000 101.000000"
 preserveAspectRatio="xMidYMid meet">
<metadata>
Created by potrace 1.16, written by Peter Selinger 2001-2019
</metadata>
<g transform="translate(0.000000,101.000000) scale(0.100000,-0.100000)"
fill="#000000" stroke="none">
<path d="M476 925 c-16 -9 -34 -14 -40 -12 -14 5 -99 -24 -155 -53 -57 -28
-132 -99 -171 -160 -29 -44 -81 -164 -78 -179 1 -3 -2 -14 -7 -24 -9 -22 29
-149 58 -192 39 -58 80 -94 132 -115 l53 -21 40 20 c23 12 52 35 65 53 74 99
218 459 226 564 3 35 144 -27 184 -80 41 -53 48 -75 53 -154 4 -67 1 -83 -21
-129 -33 -66 -101 -134 -187 -185 -38 -22 -68 -43 -67 -47 1 -12 90 -71 107
-71 26 0 115 63 177 127 62 63 108 148 108 197 0 17 4 34 9 37 6 4 10 26 10
50 0 69 -2 82 -14 96 -6 7 -8 13 -4 13 10 0 -44 102 -71 134 -57 68 -161 124
-243 131 -19 2 -57 6 -85 9 -35 5 -59 2 -79 -9z m-2 -120 c11 -12 12 -22 5
-48 -6 -17 -12 -43 -15 -56 -8 -39 -93 -241 -125 -297 -16 -29 -36 -58 -45
-65 -18 -15 -72 -13 -92 4 -20 16 -50 80 -45 95 3 7 1 18 -4 25 -14 18 -6 75
18 124 26 53 107 144 155 174 26 16 107 52 131 59 1 0 8 -7 17 -15z"/>
</g>
</svg>
