<?xml version="1.0" standalone="no"?>
<!DOCTYPE svg PUBLIC "-//W3C//DTD SVG 20010904//EN"
 "http://www.w3.org/TR/2001/REC-SVG-20010904/DTD/svg10.dtd">
<svg version="1.0" xmlns="http://www.w3.org/2000/svg"
 width="101.000000pt" height="101.000000pt" viewBox="0 0 101.000000 101.000000"
 preserveAspectRatio="xMidYMid meet">
<metadata>
Created by potrace 1.16, written by Peter Selinger 2001-2019
</metadata>
<g transform="translate(0.000000,101.000000) scale(0.100000,-0.100000)"
fill="#000000" stroke="none">
<path d="M739 946 c-3 -3 -18 -7 -34 -10 -17 -3 -43 -9 -60 -12 -16 -3 -41 -8
-55 -10 -14 -2 -36 -6 -50 -9 -14 -3 -34 -6 -45 -6 -10 0 -24 -4 -30 -9 -5 -4
-28 -11 -50 -15 -72 -12 -80 -13 -105 -20 -14 -3 -34 -8 -45 -9 -11 -2 -21 -5
-22 -6 -2 -1 -6 -3 -10 -4 -5 -1 -17 -5 -28 -9 -32 -10 -78 -19 -100 -18 -11
0 -27 -7 -37 -16 -10 -8 -26 -13 -38 -10 -25 6 -25 6 5 -51 40 -78 41 -79 62
-60 18 16 125 51 153 50 8 0 37 8 63 19 26 11 52 17 57 14 5 -3 23 1 41 10 17
9 33 15 35 13 2 -3 -12 -34 -32 -71 -19 -36 -44 -94 -55 -128 -18 -54 -19 -71
-10 -145 20 -164 90 -245 255 -295 44 -13 64 -15 78 -8 11 6 31 8 44 5 22 -6
24 -4 18 18 -3 13 -1 33 5 43 5 11 8 29 5 40 -5 18 -14 21 -62 21 -32 0 -70 2
-85 5 -49 9 -103 53 -127 101 -21 44 -21 51 -10 153 11 109 28 155 78 220 41
55 82 75 182 87 14 2 28 4 32 5 4 0 12 9 17 19 16 30 -20 118 -40 98z"/>
<path d="M859 837 l-25 -22 40 -52 c23 -29 46 -52 53 -52 7 -1 24 10 39 23
l28 23 -43 52 c-24 28 -48 51 -54 51 -7 -1 -24 -11 -38 -23z"/>
<path d="M757 765 l-28 -25 47 -55 c25 -30 49 -55 53 -55 3 0 19 11 35 24 l30
23 -48 57 c-27 31 -51 56 -55 56 -3 0 -19 -12 -34 -25z"/>
</g>
</svg>
