<?xml version="1.0" standalone="no"?>
<!DOCTYPE svg PUBLIC "-//W3C//DTD SVG 20010904//EN"
 "http://www.w3.org/TR/2001/REC-SVG-20010904/DTD/svg10.dtd">
<svg version="1.0" xmlns="http://www.w3.org/2000/svg"
 width="101.000000pt" height="101.000000pt" viewBox="0 0 101.000000 101.000000"
 preserveAspectRatio="xMidYMid meet">
<metadata>
Created by potrace 1.16, written by Peter Selinger 2001-2019
</metadata>
<g transform="translate(0.000000,101.000000) scale(0.100000,-0.100000)"
fill="#000000" stroke="none">
<path d="M818 936 c-13 -5 -36 -11 -53 -12 -16 -1 -46 -5 -65 -8 -19 -4 -42
-7 -50 -7 -8 0 -22 -3 -30 -6 -8 -3 -22 -7 -30 -8 -8 -2 -26 -6 -40 -9 -28 -7
-72 -16 -110 -22 -14 -2 -36 -6 -50 -9 -14 -3 -34 -7 -45 -9 -11 -2 -20 -4
-20 -6 0 -1 -9 -3 -20 -5 -11 -2 -33 -7 -50 -10 -16 -4 -39 -7 -50 -7 -11 1
-26 -5 -35 -12 -8 -8 -28 -14 -43 -14 -15 0 -30 -2 -33 -5 -3 -3 9 -30 27 -62
24 -43 35 -54 48 -49 49 22 160 55 186 56 17 0 43 7 58 15 15 7 32 11 37 8 5
-3 23 1 39 10 43 22 45 19 18 -17 -62 -83 -99 -194 -98 -293 0 -48 2 -60 17
-112 32 -110 102 -176 222 -212 49 -15 70 -17 85 -9 11 5 32 7 48 4 27 -5 29
-4 23 18 -3 13 -1 33 5 43 17 33 4 59 -32 60 -18 1 -45 4 -62 7 -16 2 -42 7
-57 9 -46 7 -91 41 -115 87 -22 41 -24 53 -18 125 17 217 103 319 285 340 19
2 46 6 60 9 14 2 28 5 31 5 14 2 19 70 8 95 -13 28 -44 32 -91 12z"/>
</g>
</svg>
