<?xml version="1.0" standalone="no"?>
<!DOCTYPE svg PUBLIC "-//W3C//DTD SVG 20010904//EN"
 "http://www.w3.org/TR/2001/REC-SVG-20010904/DTD/svg10.dtd">
<svg version="1.0" xmlns="http://www.w3.org/2000/svg"
 width="101.000000pt" height="103.000000pt" viewBox="0 0 101.000000 103.000000"
 preserveAspectRatio="xMidYMid meet">
<metadata>
Created by potrace 1.16, written by Peter Selinger 2001-2019
</metadata>
<g transform="translate(0.000000,103.000000) scale(0.100000,-0.100000)"
fill="#000000" stroke="none">
<path d="M847 1002 l-27 -28 58 -57 c32 -31 62 -57 68 -57 6 0 21 11 34 25 20
21 21 27 10 42 -30 39 -95 103 -105 103 -6 0 -23 -13 -38 -28z"/>
<path d="M295 941 c-11 -19 -124 -55 -205 -66 -58 -8 -81 -13 -86 -18 -4 -4
31 -101 43 -116 1 -2 8 1 15 7 7 5 36 17 65 25 l52 16 -44 -72 c-24 -40 -53
-97 -64 -127 -12 -30 -26 -64 -31 -75 -10 -22 -13 -53 -12 -127 1 -61 50 -167
94 -200 37 -28 98 -62 113 -64 6 0 18 -4 28 -9 24 -10 100 -1 162 20 116 40
197 134 232 270 13 53 16 75 19 134 1 34 5 65 7 68 3 2 14 -11 25 -29 12 -18
32 -44 46 -57 l25 -23 40 33 c23 18 41 35 41 39 0 3 -14 19 -31 36 -44 42
-120 159 -154 237 l-30 68 -40 -5 c-22 -3 -44 -5 -49 -5 -8 -1 -4 -59 8 -126
7 -36 8 -240 2 -275 -13 -71 -19 -88 -37 -127 -26 -55 -92 -120 -129 -128 -17
-4 -32 -11 -35 -16 -8 -12 -75 -12 -75 0 0 5 -14 12 -30 16 -128 28 -154 201
-57 391 39 78 114 172 162 206 25 18 45 35 45 39 0 10 -85 69 -99 69 -5 0 -12
-4 -16 -9z"/>
<path d="M764 926 c-22 -18 -26 -28 -19 -39 6 -8 24 -32 40 -54 17 -23 35 -48
40 -58 9 -15 14 -14 48 13 l37 30 -38 48 c-22 27 -48 57 -59 67 -20 17 -22 17
-49 -7z"/>
</g>
</svg>
