<?xml version="1.0" standalone="no"?>
<!DOCTYPE svg PUBLIC "-//W3C//DTD SVG 20010904//EN"
 "http://www.w3.org/TR/2001/REC-SVG-20010904/DTD/svg10.dtd">
<svg version="1.0" xmlns="http://www.w3.org/2000/svg"
 width="101.000000pt" height="101.000000pt" viewBox="0 0 101.000000 101.000000"
 preserveAspectRatio="xMidYMid meet">
<metadata>
Created by potrace 1.16, written by Peter Selinger 2001-2019
</metadata>
<g transform="translate(0.000000,101.000000) scale(0.100000,-0.100000)"
fill="#000000" stroke="none">
<path d="M785 908 c-14 -16 -25 -33 -24 -36 0 -8 94 -81 112 -88 7 -2 26 10
42 27 l30 31 -49 43 c-64 57 -80 60 -111 23z"/>
<path d="M695 820 c-15 -15 -26 -33 -24 -38 6 -15 102 -92 114 -92 6 0 24 13
38 28 l28 29 -44 40 c-69 64 -79 67 -112 33z"/>
<path d="M325 731 c-22 -10 -80 -55 -130 -101 -49 -45 -105 -89 -122 -98 -18
-9 -33 -21 -33 -28 0 -13 103 -104 117 -104 5 0 16 15 25 33 19 41 177 207
196 207 8 0 78 -51 156 -114 155 -125 329 -246 355 -246 16 0 81 104 71 113
-3 2 -58 35 -123 72 -64 37 -172 107 -240 157 -128 95 -184 128 -214 128 -10
0 -36 -9 -58 -19z"/>
</g>
</svg>
