<?xml version="1.0" standalone="no"?>
<!DOCTYPE svg PUBLIC "-//W3C//DTD SVG 20010904//EN"
 "http://www.w3.org/TR/2001/REC-SVG-20010904/DTD/svg10.dtd">
<svg version="1.0" xmlns="http://www.w3.org/2000/svg"
 width="101.000000pt" height="101.000000pt" viewBox="0 0 101.000000 101.000000"
 preserveAspectRatio="xMidYMid meet">
<metadata>
Created by potrace 1.16, written by Peter Selinger 2001-2019
</metadata>
<g transform="translate(0.000000,101.000000) scale(0.100000,-0.100000)"
fill="#000000" stroke="none">
<path d="M383 911 l-32 -38 77 -52 c42 -28 86 -58 97 -66 20 -14 23 -12 58 30
l37 44 -52 39 c-51 39 -129 82 -145 82 -4 0 -22 -18 -40 -39z"/>
<path d="M390 694 c-11 -3 -15 -17 -14 -52 2 -49 24 -112 73 -210 54 -107 41
-165 -34 -155 -35 5 -43 -6 -35 -42 1 -5 3 -20 5 -33 1 -12 4 -24 6 -25 40
-22 54 -27 81 -27 53 0 108 38 135 93 29 58 26 71 -52 227 -29 58 -61 130 -71
160 -10 30 -22 58 -28 62 -11 8 -40 9 -66 2z"/>
<path d="M743 514 l-42 -26 82 -101 c45 -56 89 -113 98 -127 l16 -25 43 30
c23 16 44 35 47 42 3 7 -5 27 -18 45 -26 37 -169 188 -178 188 -3 -1 -25 -12
-48 -26z"/>
<path d="M52 446 c-51 -18 -54 -33 -21 -106 67 -146 135 -163 247 -63 40 35
43 40 33 66 -6 15 -13 39 -15 53 -3 15 -7 29 -10 31 -3 3 -26 -13 -51 -35 -25
-22 -53 -39 -63 -38 -10 1 -27 24 -41 54 -27 56 -29 57 -79 38z"/>
</g>
</svg>
