<?xml version="1.0" standalone="no"?>
<!DOCTYPE svg PUBLIC "-//W3C//DTD SVG 20010904//EN"
 "http://www.w3.org/TR/2001/REC-SVG-20010904/DTD/svg10.dtd">
<svg version="1.0" xmlns="http://www.w3.org/2000/svg"
 width="101.000000pt" height="101.000000pt" viewBox="0 0 101.000000 101.000000"
 preserveAspectRatio="xMidYMid meet">
<metadata>
Created by potrace 1.16, written by Peter Selinger 2001-2019
</metadata>
<g transform="translate(0.000000,101.000000) scale(0.100000,-0.100000)"
fill="#000000" stroke="none">
<path d="M491 944 c-59 -18 -114 -27 -183 -28 -31 -1 -62 -6 -67 -11 -7 -7 2
-30 26 -72 l36 -61 30 19 c17 10 34 16 38 13 5 -3 21 2 37 10 16 8 32 13 35
10 3 -3 15 -1 26 6 12 6 21 9 21 7 0 -2 -26 -49 -57 -103 -59 -101 -62 -103
-125 -105 -32 -1 -138 -59 -183 -100 -38 -35 -88 -114 -91 -144 0 -5 -4 -21
-8 -35 -8 -29 13 -87 41 -112 11 -10 37 -24 60 -32 39 -14 42 -13 90 14 53 31
84 73 172 232 43 78 43 79 91 60 8 -3 25 -7 36 -8 32 -4 154 -61 154 -72 0 -5
-18 -37 -41 -71 -36 -55 -102 -114 -181 -164 -16 -10 -28 -21 -28 -25 0 -4 19
-20 41 -35 29 -21 47 -27 65 -23 37 10 156 132 194 201 18 33 35 62 36 64 5 6
45 -23 100 -73 29 -25 55 -46 58 -46 3 0 17 23 32 51 30 60 33 54 -72 126 -73
50 -72 49 -60 113 13 64 17 81 26 105 6 15 10 30 10 35 0 11 -109 44 -117 36
-4 -3 -8 -25 -10 -49 -2 -23 -6 -58 -9 -77 -3 -19 -6 -41 -7 -47 -1 -17 2 -18
-80 18 -39 17 -84 33 -101 36 -17 3 -34 8 -38 12 -13 12 74 142 124 184 26 22
48 45 48 51 0 18 -94 106 -110 105 -8 -1 -35 -7 -59 -15z m-187 -432 c7 -11
-75 -151 -103 -176 -50 -45 -93 -20 -71 40 26 69 154 168 174 136z"/>
</g>
</svg>
