<?xml version="1.0" standalone="no"?>
<!DOCTYPE svg PUBLIC "-//W3C//DTD SVG 20010904//EN"
 "http://www.w3.org/TR/2001/REC-SVG-20010904/DTD/svg10.dtd">
<svg version="1.0" xmlns="http://www.w3.org/2000/svg"
 width="101.000000pt" height="101.000000pt" viewBox="0 0 101.000000 101.000000"
 preserveAspectRatio="xMidYMid meet">
<metadata>
Created by potrace 1.16, written by Peter Selinger 2001-2019
</metadata>
<g transform="translate(0.000000,101.000000) scale(0.100000,-0.100000)"
fill="#000000" stroke="none">
<path d="M755 937 c-52 -21 -63 -31 -83 -77 -19 -44 -19 -46 1 -92 41 -100
163 -110 225 -18 39 58 15 138 -53 177 -45 26 -49 26 -90 10z m61 -81 c22 -16
25 -56 6 -79 -15 -18 -63 -13 -78 8 -14 19 -7 55 14 73 20 16 33 15 58 -2z"/>
<path d="M342 738 c-18 -6 -82 -55 -143 -110 -61 -54 -122 -101 -135 -104 -35
-9 -30 -26 26 -78 54 -51 75 -57 86 -24 3 12 46 63 95 113 70 73 94 92 114 90
13 -2 84 -51 157 -110 123 -99 331 -245 349 -245 12 0 71 101 66 114 -3 7 -58
42 -123 79 -66 37 -171 106 -234 153 -106 79 -198 135 -217 133 -4 -1 -23 -6
-41 -11z"/>
</g>
</svg>
