<?xml version="1.0" standalone="no"?>
<!DOCTYPE svg PUBLIC "-//W3C//DTD SVG 20010904//EN"
 "http://www.w3.org/TR/2001/REC-SVG-20010904/DTD/svg10.dtd">
<svg version="1.0" xmlns="http://www.w3.org/2000/svg"
 width="101.000000pt" height="101.000000pt" viewBox="0 0 101.000000 101.000000"
 preserveAspectRatio="xMidYMid meet">
<metadata>
Created by potrace 1.16, written by Peter Selinger 2001-2019
</metadata>
<g transform="translate(0.000000,101.000000) scale(0.100000,-0.100000)"
fill="#000000" stroke="none">
<path d="M397 986 c3 -13 -2 -34 -11 -47 -8 -13 -15 -33 -15 -44 -1 -30 -9
-86 -13 -90 -1 -1 -29 5 -60 15 -32 10 -59 15 -59 11 -1 -3 -3 -16 -4 -27 -1
-12 -5 -26 -9 -32 -13 -21 12 -48 56 -62 24 -8 46 -13 49 -12 3 0 4 -11 1 -26
-2 -15 -5 -47 -6 -71 0 -24 -6 -46 -11 -48 -6 -2 -35 6 -65 16 l-55 19 -13
-31 c-21 -51 -9 -73 50 -93 29 -10 58 -19 63 -19 6 -1 8 -7 6 -15 -1 -8 -3
-24 -2 -35 1 -11 3 -47 4 -80 4 -69 31 -130 76 -168 42 -35 137 -70 159 -58 9
5 40 9 67 8 55 0 115 25 152 65 35 37 64 111 57 146 -3 16 -1 38 4 49 21 39
-40 186 -88 210 -25 13 -102 18 -112 8 -3 -3 14 -43 37 -89 37 -72 43 -91 41
-139 -4 -92 -50 -139 -141 -143 -89 -4 -151 50 -148 130 3 75 5 86 14 81 4 -3
43 -3 87 1 l78 7 13 43 c7 23 10 47 7 52 -3 5 -36 10 -73 10 -117 0 -112 -1
-106 30 2 15 7 48 10 73 5 44 6 46 36 45 18 0 53 1 79 2 l46 2 12 51 c13 54 4
74 -30 65 -8 -2 -19 -5 -25 -6 -5 -1 -27 -2 -49 -1 -34 1 -38 3 -33 24 18 72
26 98 41 127 9 18 16 34 16 36 0 5 -102 34 -120 34 -13 0 -16 -6 -13 -24z"/>
</g>
</svg>
