<?xml version="1.0" standalone="no"?>
<!DOCTYPE svg PUBLIC "-//W3C//DTD SVG 20010904//EN"
 "http://www.w3.org/TR/2001/REC-SVG-20010904/DTD/svg10.dtd">
<svg version="1.0" xmlns="http://www.w3.org/2000/svg"
 width="101.000000pt" height="101.000000pt" viewBox="0 0 101.000000 101.000000"
 preserveAspectRatio="xMidYMid meet">
<metadata>
Created by potrace 1.16, written by Peter Selinger 2001-2019
</metadata>
<g transform="translate(0.000000,101.000000) scale(0.100000,-0.100000)"
fill="#000000" stroke="none">
<path d="M478 973 c-16 -4 -16 -7 1 -46 31 -72 34 -97 14 -103 -115 -39 -221
-119 -290 -219 l-34 -50 5 35 c4 19 8 62 11 95 3 33 10 91 15 129 5 38 8 72 5
74 -4 5 -19 8 -87 17 -30 4 -38 2 -43 -15 -3 -11 -3 -30 0 -41 7 -21 7 -54 0
-239 -3 -84 5 -186 19 -260 9 -47 47 -159 55 -164 12 -8 101 32 101 45 0 6 -5
19 -11 30 -13 25 -14 152 -1 201 24 93 114 193 218 242 31 15 59 25 61 22 14
-14 -8 -340 -23 -355 -3 -3 -25 15 -49 42 l-43 47 -32 -37 -31 -38 60 -58 60
-58 -50 -64 -49 -64 22 -15 c58 -37 77 -41 101 -18 12 12 36 44 52 71 24 41
34 49 50 44 82 -27 228 40 285 131 28 46 59 144 60 186 0 39 -21 113 -43 156
-36 69 -156 144 -226 142 -37 -1 -41 2 -45 33 -1 13 -6 33 -10 44 -4 11 -10
26 -12 33 -2 8 -12 10 -28 6 -17 -4 -31 -1 -41 10 -17 16 -18 17 -47 9z m215
-249 c50 -25 86 -65 97 -105 40 -147 -25 -273 -152 -293 l-37 -6 10 33 c18 58
21 72 24 102 1 17 6 46 10 66 4 23 3 39 -4 43 -14 9 -14 49 0 63 6 6 10 33 8
62 -2 28 0 51 4 51 4 0 22 -7 40 -16z"/>
</g>
</svg>
