<?xml version="1.0" standalone="no"?>
<!DOCTYPE svg PUBLIC "-//W3C//DTD SVG 20010904//EN"
 "http://www.w3.org/TR/2001/REC-SVG-20010904/DTD/svg10.dtd">
<svg version="1.0" xmlns="http://www.w3.org/2000/svg"
 width="101.000000pt" height="101.000000pt" viewBox="0 0 101.000000 101.000000"
 preserveAspectRatio="xMidYMid meet">
<metadata>
Created by potrace 1.16, written by Peter Selinger 2001-2019
</metadata>
<g transform="translate(0.000000,101.000000) scale(0.100000,-0.100000)"
fill="#000000" stroke="none">
<path d="M580 960 c-37 -25 -177 -50 -276 -49 -73 0 -80 -14 -37 -82 l35 -57
56 20 c30 11 67 21 81 23 14 2 36 6 49 9 22 5 22 5 5 -25 -40 -68 -149 -193
-274 -313 l-133 -128 50 -43 49 -43 84 85 c133 135 191 163 337 165 79 2 94
-1 122 -21 42 -29 51 -49 53 -108 2 -58 -18 -102 -64 -137 -36 -27 -112 -58
-121 -49 -3 3 -13 2 -23 -2 -10 -4 -29 -9 -42 -11 -34 -4 -36 -10 -16 -55 19
-42 40 -59 72 -59 32 0 181 66 221 98 49 39 87 111 101 188 10 55 9 67 -9 110
-33 76 -99 133 -174 151 -71 17 -109 22 -118 17 -5 -3 -22 -7 -36 -9 -15 -2
-41 -7 -59 -13 -29 -9 -24 0 67 112 55 68 106 129 115 136 25 20 17 43 -24 73
-41 28 -66 33 -91 17z"/>
</g>
</svg>
