<?xml version="1.0" standalone="no"?>
<!DOCTYPE svg PUBLIC "-//W3C//DTD SVG 20010904//EN"
 "http://www.w3.org/TR/2001/REC-SVG-20010904/DTD/svg10.dtd">
<svg version="1.0" xmlns="http://www.w3.org/2000/svg"
 width="101.000000pt" height="101.000000pt" viewBox="0 0 101.000000 101.000000"
 preserveAspectRatio="xMidYMid meet">
<metadata>
Created by potrace 1.16, written by Peter Selinger 2001-2019
</metadata>
<g transform="translate(0.000000,101.000000) scale(0.100000,-0.100000)"
fill="#000000" stroke="none">
<path d="M790 890 c-9 -6 -48 -7 -92 -3 -56 4 -78 3 -78 -6 0 -6 -11 -11 -25
-11 -14 0 -25 5 -25 10 0 6 -30 10 -70 10 -40 0 -70 -4 -70 -10 0 -6 -33 -10
-80 -10 -47 0 -80 4 -80 10 0 6 -18 10 -40 10 -22 0 -40 -4 -40 -10 0 -15
-107 -13 -113 3 -2 6 -8 8 -13 4 -10 -10 -10 -115 1 -125 4 -4 66 -6 138 -4
123 2 176 2 429 0 l97 -1 -19 -28 c-23 -31 -123 -125 -150 -139 -16 -9 -18 -7
-15 11 2 12 10 28 16 36 10 12 10 16 -2 24 -8 5 -21 9 -29 10 -8 0 -36 3 -62
5 -50 5 -56 -2 -56 -61 1 -151 -95 -314 -242 -411 -22 -15 -40 -30 -40 -34 0
-5 28 -24 62 -43 l62 -35 44 36 c73 60 156 179 192 278 17 49 34 100 37 114 2
13 5 26 6 27 2 1 24 -12 50 -29 l47 -30 53 45 c29 25 93 91 141 146 49 55 94
102 102 105 30 11 13 42 -44 79 -63 40 -69 42 -92 27z"/>
</g>
</svg>
