<?xml version="1.0" standalone="no"?>
<!DOCTYPE svg PUBLIC "-//W3C//DTD SVG 20010904//EN"
 "http://www.w3.org/TR/2001/REC-SVG-20010904/DTD/svg10.dtd">
<svg version="1.0" xmlns="http://www.w3.org/2000/svg"
 width="101.000000pt" height="101.000000pt" viewBox="0 0 101.000000 101.000000"
 preserveAspectRatio="xMidYMid meet">
<metadata>
Created by potrace 1.16, written by Peter Selinger 2001-2019
</metadata>
<g transform="translate(0.000000,101.000000) scale(0.100000,-0.100000)"
fill="#000000" stroke="none">
<path d="M426 908 c-3 -13 -3 -47 1 -75 l6 -53 -39 1 c-22 0 -73 4 -114 8 -41
4 -81 6 -88 3 -18 -6 -26 -50 -12 -67 9 -10 10 -47 6 -129 -6 -128 -4 -132 60
-120 42 8 46 22 41 129 l-3 80 80 2 c45 1 99 2 121 2 22 0 77 -1 121 -1 80 0
89 -4 73 -33 -3 -5 -6 -23 -7 -39 -6 -89 -130 -253 -241 -316 -33 -19 -61 -38
-61 -41 0 -4 18 -19 40 -34 37 -26 42 -27 72 -14 50 20 188 165 225 235 36 67
94 224 87 235 -2 4 3 12 11 19 23 19 19 25 -32 57 -44 27 -55 29 -138 29 l-90
-1 1 63 c2 66 0 68 -53 63 -13 -1 -23 3 -23 9 0 20 -38 10 -44 -12z"/>
</g>
</svg>
