<?xml version="1.0" standalone="no"?>
<!DOCTYPE svg PUBLIC "-//W3C//DTD SVG 20010904//EN"
 "http://www.w3.org/TR/2001/REC-SVG-20010904/DTD/svg10.dtd">
<svg version="1.0" xmlns="http://www.w3.org/2000/svg"
 width="101.000000pt" height="101.000000pt" viewBox="0 0 101.000000 101.000000"
 preserveAspectRatio="xMidYMid meet">
<metadata>
Created by potrace 1.16, written by Peter Selinger 2001-2019
</metadata>
<g transform="translate(0.000000,101.000000) scale(0.100000,-0.100000)"
fill="#000000" stroke="none">
<path d="M535 843 l0 -88 -125 3 c-69 2 -141 5 -160 8 -50 7 -65 -7 -65 -61 0
-54 15 -68 65 -61 68 10 210 13 210 4 0 -4 -33 -41 -72 -81 -52 -52 -96 -85
-150 -113 -43 -21 -78 -44 -78 -50 0 -14 53 -64 69 -64 25 0 127 61 180 107
28 25 67 66 86 91 32 42 35 43 35 19 0 -14 7 -32 15 -41 31 -31 12 -168 -27
-192 -6 -4 -26 -7 -44 -6 -17 1 -37 -4 -42 -11 -15 -18 19 -101 42 -105 29 -6
122 27 142 50 19 21 19 20 26 293 l3 110 55 -3 c148 -7 150 -6 150 60 0 46
-25 63 -79 53 -20 -4 -61 -7 -91 -7 -61 -1 -73 14 -50 57 7 13 10 29 8 37 -3
7 -2 20 3 29 13 26 -7 41 -57 45 l-49 4 0 -87z"/>
</g>
</svg>
