<?xml version="1.0" standalone="no"?>
<!DOCTYPE svg PUBLIC "-//W3C//DTD SVG 20010904//EN"
 "http://www.w3.org/TR/2001/REC-SVG-20010904/DTD/svg10.dtd">
<svg version="1.0" xmlns="http://www.w3.org/2000/svg"
 width="101.000000pt" height="101.000000pt" viewBox="0 0 101.000000 101.000000"
 preserveAspectRatio="xMidYMid meet">
<metadata>
Created by potrace 1.16, written by Peter Selinger 2001-2019
</metadata>
<g transform="translate(0.000000,101.000000) scale(0.100000,-0.100000)"
fill="#000000" stroke="none">
<path d="M618 973 c-14 -4 -17 -14 -13 -61 2 -31 5 -82 7 -112 l3 -55 -105 0
-105 0 2 103 c1 71 -2 102 -10 103 -100 10 -150 -2 -132 -31 3 -5 7 -46 9 -92
l4 -84 -72 4 c-39 2 -90 6 -113 9 -54 6 -66 -14 -55 -89 l8 -53 63 1 c37 1 66
6 70 13 5 7 25 11 50 9 l43 -3 -1 -105 c0 -58 -1 -115 -2 -128 -1 -29 4 -34
33 -33 13 1 39 2 59 3 l37 2 7 123 7 123 52 0 c28 0 74 3 103 6 l52 7 -5 -34
c-3 -19 -8 -54 -10 -79 -7 -80 -74 -199 -164 -289 -44 -44 -80 -82 -80 -85 0
-2 21 -19 46 -36 55 -36 59 -35 146 54 79 82 147 205 164 301 20 108 23 132
19 145 -5 16 27 17 150 4 28 -3 55 -1 61 3 7 4 15 34 19 65 7 57 7 58 -21 68
-16 6 -45 8 -64 4 -19 -3 -60 -7 -90 -8 l-55 -1 2 85 c1 47 3 93 5 103 5 28
-74 53 -124 40z"/>
</g>
</svg>
