<?xml version="1.0" standalone="no"?>
<!DOCTYPE svg PUBLIC "-//W3C//DTD SVG 20010904//EN"
 "http://www.w3.org/TR/2001/REC-SVG-20010904/DTD/svg10.dtd">
<svg version="1.0" xmlns="http://www.w3.org/2000/svg"
 width="101.000000pt" height="101.000000pt" viewBox="0 0 101.000000 101.000000"
 preserveAspectRatio="xMidYMid meet">
<metadata>
Created by potrace 1.16, written by Peter Selinger 2001-2019
</metadata>
<g transform="translate(0.000000,101.000000) scale(0.100000,-0.100000)"
fill="#000000" stroke="none">
<path d="M428 917 c-57 -118 -137 -210 -266 -304 -35 -25 -60 -49 -55 -52 4
-4 34 -17 66 -30 l57 -23 69 56 c71 57 141 134 141 155 0 7 20 11 55 11 30 0
55 -4 55 -10 0 -5 18 -10 40 -10 22 0 40 5 40 10 0 12 67 14 74 2 8 -13 -74
-152 -133 -226 -97 -122 -236 -232 -375 -297 -36 -17 -66 -34 -66 -38 0 -4 15
-15 33 -24 17 -9 44 -24 59 -33 25 -17 29 -17 73 1 63 23 227 148 299 226 76
82 153 186 206 279 24 41 57 90 74 108 l31 34 -40 35 c-68 60 -78 64 -113 52
-19 -6 -54 -8 -84 -5 -29 4 -69 8 -90 8 l-36 2 19 37 c10 21 23 40 29 44 21
13 8 24 -52 44 -34 12 -65 21 -69 21 -4 0 -22 -33 -41 -73z"/>
</g>
</svg>
