<?xml version="1.0" standalone="no"?>
<!DOCTYPE svg PUBLIC "-//W3C//DTD SVG 20010904//EN"
 "http://www.w3.org/TR/2001/REC-SVG-20010904/DTD/svg10.dtd">
<svg version="1.0" xmlns="http://www.w3.org/2000/svg"
 width="101.000000pt" height="101.000000pt" viewBox="0 0 101.000000 101.000000"
 preserveAspectRatio="xMidYMid meet">
<metadata>
Created by potrace 1.16, written by Peter Selinger 2001-2019
</metadata>
<g transform="translate(0.000000,101.000000) scale(0.100000,-0.100000)"
fill="#000000" stroke="none">
<path d="M685 954 c-58 -35 -128 -52 -245 -59 -25 -1 -61 -7 -80 -14 -45 -14
-95 -14 -119 1 -15 9 -25 9 -46 0 -26 -12 -26 -13 -9 -40 38 -66 51 -76 91
-75 113 2 159 5 174 14 23 12 25 7 33 -66 l6 -61 -64 -2 c-36 -1 -68 3 -71 8
-7 12 -113 11 -121 -1 -7 -12 -51 -11 -59 1 -9 15 -98 12 -119 -3 -17 -12 -18
-21 -10 -73 l9 -59 110 -3 c61 -2 155 2 209 8 55 5 101 9 103 7 5 -6 -28 -110
-49 -150 -27 -54 -79 -108 -159 -168 -38 -28 -69 -54 -69 -57 0 -4 27 -22 59
-39 l59 -33 49 39 c109 86 213 244 228 346 3 22 6 45 7 50 2 12 261 13 299 2
39 -12 58 12 57 73 0 69 -15 82 -86 75 -32 -4 -103 -7 -159 -8 l-103 -2 3 72
c1 40 7 74 12 74 6 1 15 3 20 4 6 0 27 7 48 14 21 7 48 14 60 16 26 3 77 26
77 34 0 13 -82 101 -93 100 -7 0 -30 -12 -52 -25z"/>
</g>
</svg>
