<?xml version="1.0" standalone="no"?>
<!DOCTYPE svg PUBLIC "-//W3C//DTD SVG 20010904//EN"
 "http://www.w3.org/TR/2001/REC-SVG-20010904/DTD/svg10.dtd">
<svg version="1.0" xmlns="http://www.w3.org/2000/svg"
 width="101.000000pt" height="101.000000pt" viewBox="0 0 101.000000 101.000000"
 preserveAspectRatio="xMidYMid meet">
<metadata>
Created by potrace 1.16, written by Peter Selinger 2001-2019
</metadata>
<g transform="translate(0.000000,101.000000) scale(0.100000,-0.100000)"
fill="#000000" stroke="none">
<path d="M320 982 c-17 -8 -25 -108 -10 -127 12 -14 12 -173 -1 -180 -12 -8
-12 -142 1 -150 13 -8 13 -52 0 -60 -13 -8 -12 -206 2 -222 7 -9 8 -36 4 -77
-6 -60 -5 -64 16 -70 41 -11 86 -6 103 10 13 13 15 33 11 118 -3 55 -5 125 -5
154 0 29 -4 52 -10 52 -6 0 -11 16 -11 35 0 19 5 35 10 35 6 0 10 21 10 46 l0
45 28 -19 c15 -11 55 -45 89 -76 33 -31 65 -56 70 -56 10 0 73 91 73 106 0 13
-139 118 -191 144 -36 19 -37 19 -55 -2 l-19 -20 -6 28 c-10 45 -10 112 0 118
5 3 9 39 9 80 l0 73 -37 12 c-42 12 -59 13 -81 3z"/>
</g>
</svg>
