<?xml version="1.0" standalone="no"?>
<!DOCTYPE svg PUBLIC "-//W3C//DTD SVG 20010904//EN"
 "http://www.w3.org/TR/2001/REC-SVG-20010904/DTD/svg10.dtd">
<svg version="1.0" xmlns="http://www.w3.org/2000/svg"
 width="101.000000pt" height="101.000000pt" viewBox="0 0 101.000000 101.000000"
 preserveAspectRatio="xMidYMid meet">
<metadata>
Created by potrace 1.16, written by Peter Selinger 2001-2019
</metadata>
<g transform="translate(0.000000,101.000000) scale(0.100000,-0.100000)"
fill="#000000" stroke="none">
<path d="M424 874 c-15 -8 -34 -12 -42 -9 -16 6 -15 -3 13 -100 9 -33 18 -67
19 -75 8 -56 33 -78 65 -60 10 5 21 7 24 4 3 -3 15 0 27 6 28 15 25 49 -16
159 -33 90 -43 99 -90 75z"/>
<path d="M765 848 c-5 -18 -9 -40 -10 -48 -4 -31 -28 -96 -58 -155 -82 -164
-197 -281 -384 -390 -46 -26 -83 -52 -83 -56 0 -12 61 -67 82 -74 22 -8 61 13
170 87 164 112 305 287 381 471 17 44 40 83 49 88 10 5 18 15 18 22 0 12 -128
87 -148 87 -5 0 -13 -15 -17 -32z"/>
<path d="M103 814 l-32 -14 28 -67 c15 -38 36 -92 45 -120 17 -51 19 -53 49
-49 18 2 45 10 60 17 33 15 33 20 -21 156 -35 89 -37 92 -66 91 -17 -1 -45 -7
-63 -14z"/>
</g>
</svg>
