<?xml version="1.0" standalone="no"?>
<!DOCTYPE svg PUBLIC "-//W3C//DTD SVG 20010904//EN"
 "http://www.w3.org/TR/2001/REC-SVG-20010904/DTD/svg10.dtd">
<svg version="1.0" xmlns="http://www.w3.org/2000/svg"
 width="101.000000pt" height="101.000000pt" viewBox="0 0 101.000000 101.000000"
 preserveAspectRatio="xMidYMid meet">
<metadata>
Created by potrace 1.16, written by Peter Selinger 2001-2019
</metadata>
<g transform="translate(0.000000,101.000000) scale(0.100000,-0.100000)"
fill="#000000" stroke="none">
<path d="M430 847 c-19 -6 -36 -11 -37 -12 -2 -1 8 -34 21 -73 14 -40 23 -72
20 -72 -3 0 0 -9 6 -20 11 -20 49 -22 93 -5 23 10 19 47 -15 129 -25 63 -34
68 -88 53z"/>
<path d="M715 841 c-3 -11 -8 -30 -11 -43 -9 -41 -12 -53 -15 -53 -1 0 -3 -9
-4 -21 -4 -37 -51 -127 -98 -190 -51 -68 -129 -136 -219 -191 -32 -20 -58 -41
-58 -48 0 -15 53 -65 69 -65 23 0 143 95 217 172 81 83 131 157 181 267 19 42
42 91 50 109 9 17 14 34 12 36 -4 5 -107 46 -114 46 -2 0 -6 -9 -10 -19z"/>
<path d="M203 787 c-17 -7 -35 -15 -39 -19 -4 -4 7 -38 23 -75 17 -38 33 -76
37 -87 5 -13 12 -17 31 -12 44 11 75 25 75 35 0 24 -69 166 -81 168 -8 1 -28
-4 -46 -10z"/>
</g>
</svg>
