<?xml version="1.0" standalone="no"?>
<!DOCTYPE svg PUBLIC "-//W3C//DTD SVG 20010904//EN"
 "http://www.w3.org/TR/2001/REC-SVG-20010904/DTD/svg10.dtd">
<svg version="1.0" xmlns="http://www.w3.org/2000/svg"
 width="101.000000pt" height="105.000000pt" viewBox="0 0 101.000000 105.000000"
 preserveAspectRatio="xMidYMid meet">
<metadata>
Created by potrace 1.16, written by Peter Selinger 2001-2019
</metadata>
<g transform="translate(0.000000,105.000000) scale(0.100000,-0.100000)"
fill="#000000" stroke="none">
<path d="M817 1022 l-26 -27 54 -54 55 -55 30 29 30 29 -52 53 c-29 29 -55 53
-58 53 -4 0 -18 -12 -33 -28z"/>
<path d="M340 971 c0 -10 -21 -61 -47 -112 -39 -78 -63 -110 -149 -198 -56
-58 -101 -108 -99 -111 2 -3 27 -17 55 -30 l50 -24 41 40 c22 21 66 71 97 109
56 69 58 70 102 68 24 -1 50 3 57 9 8 6 41 8 92 3 78 -7 79 -7 75 -32 -5 -26
-45 -109 -72 -151 l-15 -22 -63 35 c-35 20 -81 42 -102 49 l-38 14 -33 -40
c-27 -32 -31 -42 -20 -49 8 -4 43 -24 79 -44 36 -20 74 -43 84 -50 19 -14 19
-15 0 -36 -42 -47 -184 -145 -266 -184 l-87 -41 47 -47 47 -47 67 34 c96 48
182 113 264 197 84 87 121 143 204 307 34 67 66 122 71 122 5 0 9 8 9 18 0 11
-22 34 -55 57 -53 36 -56 37 -87 24 -39 -16 -218 -19 -218 -4 0 6 11 30 25 54
14 23 25 45 25 47 0 7 -111 54 -126 54 -8 0 -14 -9 -14 -19z"/>
<path d="M728 969 c-16 -11 -28 -24 -28 -28 0 -4 27 -35 60 -68 l60 -59 30 31
30 31 -58 57 c-32 31 -60 57 -62 57 -3 0 -17 -10 -32 -21z"/>
</g>
</svg>
