<?xml version="1.0" standalone="no"?>
<!DOCTYPE svg PUBLIC "-//W3C//DTD SVG 20010904//EN"
 "http://www.w3.org/TR/2001/REC-SVG-20010904/DTD/svg10.dtd">
<svg version="1.0" xmlns="http://www.w3.org/2000/svg"
 width="101.000000pt" height="101.000000pt" viewBox="0 0 101.000000 101.000000"
 preserveAspectRatio="xMidYMid meet">
<metadata>
Created by potrace 1.16, written by Peter Selinger 2001-2019
</metadata>
<g transform="translate(0.000000,101.000000) scale(0.100000,-0.100000)"
fill="#000000" stroke="none">
<path d="M340 839 c0 -7 -21 -10 -60 -7 -69 4 -72 0 -63 -71 l6 -49 43 0 c24
0 46 4 49 9 8 12 167 10 183 -3 8 -7 49 -8 121 -4 73 5 111 3 116 -4 18 -29
55 10 55 58 0 80 0 80 -111 81 -61 1 -99 -3 -99 -9 0 -6 -33 -10 -80 -10 -47
0 -80 4 -80 10 0 6 -18 10 -40 10 -22 0 -40 -5 -40 -11z"/>
<path d="M95 369 c-4 -11 -3 -44 0 -73 7 -53 24 -74 47 -60 6 4 61 6 124 5 64
0 115 3 119 9 7 11 153 12 160 0 7 -12 153 -12 160 0 8 13 52 13 61 -1 4 -6
19 -9 37 -5 16 3 36 1 43 -5 28 -23 51 -1 57 54 11 87 5 95 -61 90 -32 -2 -95
-4 -142 -4 -78 1 -283 2 -362 2 -18 0 -79 1 -135 3 -94 4 -103 2 -108 -15z"/>
</g>
</svg>
