<?xml version="1.0" standalone="no"?>
<!DOCTYPE svg PUBLIC "-//W3C//DTD SVG 20010904//EN"
 "http://www.w3.org/TR/2001/REC-SVG-20010904/DTD/svg10.dtd">
<svg version="1.0" xmlns="http://www.w3.org/2000/svg"
 width="101.000000pt" height="101.000000pt" viewBox="0 0 101.000000 101.000000"
 preserveAspectRatio="xMidYMid meet">
<metadata>
Created by potrace 1.16, written by Peter Selinger 2001-2019
</metadata>
<g transform="translate(0.000000,101.000000) scale(0.100000,-0.100000)"
fill="#000000" stroke="none">
<path d="M837 962 l-27 -28 56 -48 55 -48 31 28 30 29 -53 48 c-29 26 -56 47
-59 47 -3 0 -18 -13 -33 -28z"/>
<path d="M751 886 l-23 -25 51 -50 51 -50 28 24 27 24 -50 50 c-27 28 -52 51
-55 51 -4 0 -17 -11 -29 -24z"/>
<path d="M631 750 l-42 -31 61 -74 c68 -83 186 -255 195 -286 9 -27 27 -24 90
16 35 23 53 40 48 48 -45 77 -279 357 -298 357 -7 0 -31 -14 -54 -30z"/>
<path d="M281 738 c-26 -73 -99 -177 -184 -263 l-90 -89 43 -38 c23 -21 49
-38 56 -38 26 0 152 139 235 261 46 68 85 126 87 130 4 8 -103 69 -122 69 -8
0 -19 -15 -25 -32z"/>
</g>
</svg>
