<?xml version="1.0" standalone="no"?>
<!DOCTYPE svg PUBLIC "-//W3C//DTD SVG 20010904//EN"
 "http://www.w3.org/TR/2001/REC-SVG-20010904/DTD/svg10.dtd">
<svg version="1.0" xmlns="http://www.w3.org/2000/svg"
 width="101.000000pt" height="101.000000pt" viewBox="0 0 101.000000 101.000000"
 preserveAspectRatio="xMidYMid meet">
<metadata>
Created by potrace 1.16, written by Peter Selinger 2001-2019
</metadata>
<g transform="translate(0.000000,101.000000) scale(0.100000,-0.100000)"
fill="#000000" stroke="none">
<path d="M685 883 c-3 -21 -24 -75 -46 -120 -91 -190 -237 -366 -398 -478
l-84 -59 32 -26 c17 -15 43 -33 56 -40 33 -18 49 -8 162 90 140 122 260 279
358 465 26 50 53 97 61 106 8 8 14 20 14 25 0 9 -122 74 -139 74 -5 0 -12 -17
-16 -37z"/>
</g>
</svg>
