<?xml version="1.0" standalone="no"?>
<!DOCTYPE svg PUBLIC "-//W3C//DTD SVG 20010904//EN"
 "http://www.w3.org/TR/2001/REC-SVG-20010904/DTD/svg10.dtd">
<svg version="1.0" xmlns="http://www.w3.org/2000/svg"
 width="101.000000pt" height="103.000000pt" viewBox="0 0 101.000000 103.000000"
 preserveAspectRatio="xMidYMid meet">
<metadata>
Created by potrace 1.16, written by Peter Selinger 2001-2019
</metadata>
<g transform="translate(0.000000,103.000000) scale(0.100000,-0.100000)"
fill="#000000" stroke="none">
<path d="M811 1009 l-24 -20 48 -49 c27 -28 54 -50 60 -50 7 0 22 11 35 25
l23 24 -49 45 c-27 25 -53 45 -59 45 -5 0 -21 -9 -34 -20z"/>
<path d="M725 936 l-29 -23 54 -51 c30 -28 60 -51 66 -52 6 0 21 12 35 26 l24
26 -55 49 c-30 26 -57 48 -60 49 -3 0 -18 -11 -35 -24z"/>
<path d="M650 830 c-14 -4 -73 -6 -132 -3 -78 4 -108 3 -108 -5 0 -8 -26 -12
-80 -12 -47 0 -80 4 -80 10 0 6 -18 10 -40 10 -22 0 -40 -5 -40 -11 0 -7 -21
-10 -60 -7 -52 3 -60 1 -64 -17 -10 -36 -6 -73 9 -88 16 -17 101 -21 110 -7 8
13 173 11 181 -2 4 -7 50 -8 140 -3 l133 7 -5 -29 c-9 -48 -73 -151 -136 -219
-73 -78 -165 -148 -275 -210 -46 -26 -83 -50 -83 -55 0 -10 89 -79 103 -79 15
0 171 97 226 140 119 95 198 196 268 349 24 53 48 104 54 113 5 10 9 23 9 30
0 11 -93 100 -102 97 -2 -1 -14 -5 -28 -9z"/>
</g>
</svg>
