<?xml version="1.0" standalone="no"?>
<!DOCTYPE svg PUBLIC "-//W3C//DTD SVG 20010904//EN"
 "http://www.w3.org/TR/2001/REC-SVG-20010904/DTD/svg10.dtd">
<svg version="1.0" xmlns="http://www.w3.org/2000/svg"
 width="101.000000pt" height="101.000000pt" viewBox="0 0 101.000000 101.000000"
 preserveAspectRatio="xMidYMid meet">
<metadata>
Created by potrace 1.16, written by Peter Selinger 2001-2019
</metadata>
<g transform="translate(0.000000,101.000000) scale(0.100000,-0.100000)"
fill="#000000" stroke="none">
<path d="M335 770 c-22 -11 -76 -51 -120 -89 -44 -39 -103 -85 -132 -103 -29
-18 -52 -38 -53 -43 0 -16 83 -95 100 -95 8 0 64 49 125 110 62 61 118 110
126 110 19 0 41 -16 214 -155 182 -145 289 -219 308 -212 7 3 27 31 43 62 25
49 27 58 14 66 -8 5 -53 32 -100 60 -47 27 -148 95 -225 149 -147 105 -233
160 -250 160 -5 0 -28 -9 -50 -20z"/>
</g>
</svg>
