<?xml version="1.0" standalone="no"?>
<!DOCTYPE svg PUBLIC "-//W3C//DTD SVG 20010904//EN"
 "http://www.w3.org/TR/2001/REC-SVG-20010904/DTD/svg10.dtd">
<svg version="1.0" xmlns="http://www.w3.org/2000/svg"
 width="101.000000pt" height="101.000000pt" viewBox="0 0 101.000000 101.000000"
 preserveAspectRatio="xMidYMid meet">
<metadata>
Created by potrace 1.16, written by Peter Selinger 2001-2019
</metadata>
<g transform="translate(0.000000,101.000000) scale(0.100000,-0.100000)"
fill="#000000" stroke="none">
<path d="M711 868 c-23 -73 -77 -188 -103 -220 -12 -15 -20 -12 -98 33 -47 26
-89 48 -95 48 -5 0 -25 -20 -42 -44 l-33 -44 86 -52 c46 -29 88 -57 91 -63 11
-17 -178 -187 -263 -237 -43 -26 -89 -50 -102 -54 -33 -10 -26 -26 29 -68 49
-37 49 -37 82 -21 72 37 178 119 257 198 46 47 87 92 92 101 8 13 20 7 76 -40
36 -30 71 -55 77 -55 10 0 75 93 75 107 0 5 -31 31 -69 58 l-68 50 29 50 c16
28 49 92 73 143 25 50 49 92 55 92 5 0 10 7 10 15 0 13 -106 75 -128 75 -4 0
-19 -33 -31 -72z"/>
</g>
</svg>
