<?xml version="1.0" standalone="no"?>
<!DOCTYPE svg PUBLIC "-//W3C//DTD SVG 20010904//EN"
 "http://www.w3.org/TR/2001/REC-SVG-20010904/DTD/svg10.dtd">
<svg version="1.0" xmlns="http://www.w3.org/2000/svg"
 width="101.000000pt" height="101.000000pt" viewBox="0 0 101.000000 101.000000"
 preserveAspectRatio="xMidYMid meet">
<metadata>
Created by potrace 1.16, written by Peter Selinger 2001-2019
</metadata>
<g transform="translate(0.000000,101.000000) scale(0.100000,-0.100000)"
fill="#000000" stroke="none">
<path d="M409 909 c-4 -76 -71 -271 -148 -434 l-62 -130 -40 3 c-22 2 -56 1
-75 -3 -35 -6 -36 -8 -31 -43 7 -54 24 -113 35 -124 7 -7 22 -4 45 11 19 11
42 21 51 21 9 0 16 5 16 11 0 6 26 10 68 9 61 -1 94 1 177 14 17 3 46 7 65 10
49 6 115 17 185 30 80 15 81 15 111 -36 16 -26 35 -48 44 -48 18 0 100 80 100
97 0 15 -125 174 -198 252 -44 46 -65 62 -77 57 -28 -11 -74 -50 -74 -64 -1
-8 17 -35 40 -60 51 -59 64 -82 47 -83 -7 0 -24 -2 -38 -4 -89 -13 -109 -15
-143 -14 -21 0 -42 -3 -48 -7 -6 -4 -30 -7 -53 -8 -22 -1 -49 -6 -59 -10 -14
-7 -4 20 37 101 30 61 75 161 100 224 25 62 58 125 72 140 14 15 23 32 20 38
-6 10 -92 45 -141 57 -17 4 -25 2 -26 -7z"/>
</g>
</svg>
