<?xml version="1.0" standalone="no"?>
<!DOCTYPE svg PUBLIC "-//W3C//DTD SVG 20010904//EN"
 "http://www.w3.org/TR/2001/REC-SVG-20010904/DTD/svg10.dtd">
<svg version="1.0" xmlns="http://www.w3.org/2000/svg"
 width="101.000000pt" height="101.000000pt" viewBox="0 0 101.000000 101.000000"
 preserveAspectRatio="xMidYMid meet">
<metadata>
Created by potrace 1.16, written by Peter Selinger 2001-2019
</metadata>
<g transform="translate(0.000000,101.000000) scale(0.100000,-0.100000)"
fill="#000000" stroke="none">
<path d="M280 791 c-10 -4 -15 -21 -16 -54 0 -42 3 -48 23 -53 13 -4 30 -1 38
6 10 8 46 10 120 7 59 -3 108 -7 110 -9 6 -5 5 -84 -1 -163 -3 -38 -6 -78 -7
-88 -1 -14 -7 -16 -33 -11 -18 3 -35 1 -38 -5 -9 -14 -53 -14 -61 -1 -4 6 -42
10 -88 10 -45 -1 -94 2 -109 6 -47 11 -76 -2 -83 -39 -4 -18 -1 -45 5 -61 9
-24 14 -27 38 -22 15 4 55 7 89 7 34 -1 65 4 68 9 7 12 148 14 159 3 4 -5 88
-8 187 -8 l178 0 6 27 c7 31 -2 69 -19 80 -13 9 -80 10 -89 2 -9 -10 -106 -10
-100 -1 3 4 7 34 9 65 2 31 6 91 9 132 3 41 8 83 11 92 3 10 3 26 0 36 -6 19
-1 18 -238 26 -75 2 -140 6 -145 9 -4 2 -15 2 -23 -2z"/>
</g>
</svg>
