<?xml version="1.0" standalone="no"?>
<!DOCTYPE svg PUBLIC "-//W3C//DTD SVG 20010904//EN"
 "http://www.w3.org/TR/2001/REC-SVG-20010904/DTD/svg10.dtd">
<svg version="1.0" xmlns="http://www.w3.org/2000/svg"
 width="101.000000pt" height="101.000000pt" viewBox="0 0 101.000000 101.000000"
 preserveAspectRatio="xMidYMid meet">
<metadata>
Created by potrace 1.16, written by Peter Selinger 2001-2019
</metadata>
<g transform="translate(0.000000,101.000000) scale(0.100000,-0.100000)"
fill="#000000" stroke="none">
<path d="M349 913 c-12 -3 -15 -17 -13 -72 1 -38 5 -74 8 -80 15 -24 14 -47
-2 -48 -10 -1 -30 -4 -47 -7 -94 -15 -113 -17 -142 -16 -17 0 -34 -4 -38 -10
-4 -6 4 -35 16 -66 17 -41 27 -53 38 -48 22 8 51 15 86 20 57 8 80 13 101 19
22 7 23 6 39 -85 2 -14 7 -38 10 -55 3 -16 8 -41 10 -55 12 -76 15 -99 20
-138 2 -24 7 -46 9 -51 10 -16 105 3 107 23 2 13 1 14 -7 58 -3 18 -7 44 -9
58 -3 14 -7 36 -10 50 -5 26 -14 68 -21 110 -3 14 -5 37 -4 52 0 15 -4 29 -10
33 -5 3 -10 11 -10 16 0 6 4 7 10 4 5 -3 23 1 40 10 17 9 35 13 41 9 12 -7 69
15 69 27 0 5 15 7 33 5 17 -2 40 1 50 6 18 9 18 8 1 -19 -10 -15 -41 -58 -70
-94 l-53 -66 29 -22 c16 -11 36 -21 44 -21 17 0 74 69 139 165 22 33 49 68 61
78 l21 17 -40 36 c-41 37 -42 37 -120 18 -11 -3 -38 -7 -60 -9 -22 -3 -53 -7
-70 -10 -16 -3 -43 -5 -58 -5 -16 0 -34 -3 -40 -7 -24 -15 -47 -13 -48 5 0 9
-3 31 -5 47 -3 17 -5 49 -5 71 0 38 -3 42 -31 48 -32 6 -43 6 -69 -1z"/>
</g>
</svg>
