<?xml version="1.0" standalone="no"?>
<!DOCTYPE svg PUBLIC "-//W3C//DTD SVG 20010904//EN"
 "http://www.w3.org/TR/2001/REC-SVG-20010904/DTD/svg10.dtd">
<svg version="1.0" xmlns="http://www.w3.org/2000/svg"
 width="101.000000pt" height="101.000000pt" viewBox="0 0 101.000000 101.000000"
 preserveAspectRatio="xMidYMid meet">
<metadata>
Created by potrace 1.16, written by Peter Selinger 2001-2019
</metadata>
<g transform="translate(0.000000,101.000000) scale(0.100000,-0.100000)"
fill="#000000" stroke="none">
<path d="M210 824 c-12 -3 -14 -18 -12 -64 3 -39 0 -60 -7 -60 -6 0 -11 -18
-11 -40 0 -22 5 -40 10 -40 6 0 10 -33 10 -80 0 -49 -4 -80 -11 -80 -6 0 -10
-27 -10 -67 1 -38 -1 -93 -4 -123 -8 -75 1 -85 71 -84 57 2 78 14 71 44 -3 13
12 15 104 12 65 -1 110 2 114 8 7 11 51 13 106 4 30 -5 38 -11 42 -34 7 -34
23 -41 86 -33 l49 6 6 47 c4 26 2 59 -3 73 -12 31 -15 195 -7 337 4 58 4 119
1 137 l-6 32 -137 0 c-75 -1 -165 0 -199 0 -35 0 -91 0 -125 -1 -35 0 -76 2
-93 5 -16 3 -37 3 -45 1z m385 -115 c4 -5 24 -9 46 -9 39 0 39 0 39 -40 0 -22
5 -40 10 -40 6 0 10 -16 10 -35 0 -20 -5 -35 -11 -35 -8 0 -10 -26 -7 -90 l5
-90 -186 3 -186 2 4 43 c1 23 -2 48 -7 55 -14 16 -14 167 0 184 5 7 8 21 6 31
-4 15 1 17 43 15 26 -2 50 1 54 7 7 12 173 12 180 -1z"/>
</g>
</svg>
