<?xml version="1.0" standalone="no"?>
<!DOCTYPE svg PUBLIC "-//W3C//DTD SVG 20010904//EN"
 "http://www.w3.org/TR/2001/REC-SVG-20010904/DTD/svg10.dtd">
<svg version="1.0" xmlns="http://www.w3.org/2000/svg"
 width="101.000000pt" height="101.000000pt" viewBox="0 0 101.000000 101.000000"
 preserveAspectRatio="xMidYMid meet">
<metadata>
Created by potrace 1.16, written by Peter Selinger 2001-2019
</metadata>
<g transform="translate(0.000000,101.000000) scale(0.100000,-0.100000)"
fill="#000000" stroke="none">
<path d="M200 872 c-17 -8 -22 -112 -6 -124 14 -10 95 -8 101 3 8 12 167 10
183 -3 8 -7 46 -9 107 -5 82 6 93 4 88 -9 -3 -8 0 -26 6 -38 7 -13 11 -36 9
-52 l-3 -29 -72 4 c-49 2 -73 -1 -73 -8 0 -6 -11 -11 -25 -11 -14 0 -25 5 -25
10 0 6 -30 10 -70 10 -40 0 -70 -4 -70 -10 0 -5 -16 -10 -35 -10 -19 0 -35 5
-35 10 0 6 -20 10 -45 10 -38 0 -47 -4 -56 -24 -7 -15 -9 -43 -5 -69 6 -37 11
-46 32 -51 14 -4 35 -4 47 0 21 7 136 13 222 13 22 0 76 -1 120 -1 l80 0 1
-73 1 -73 -103 4 c-59 3 -105 1 -108 -5 -8 -12 -153 -13 -161 -1 -9 15 -98 12
-120 -3 -15 -11 -17 -23 -13 -66 5 -54 21 -76 48 -65 13 6 181 13 315 13 22 1
64 1 93 1 31 0 51 -4 48 -9 -10 -16 5 -39 29 -45 13 -3 43 -3 67 0 l44 6 -3
112 c-5 210 -4 311 1 416 4 58 4 119 1 137 l-6 32 -142 0 c-78 -1 -170 -1
-204 0 -35 0 -91 0 -125 -1 -35 0 -76 2 -93 5 -16 4 -37 3 -45 -1z"/>
</g>
</svg>
