<?xml version="1.0" standalone="no"?>
<!DOCTYPE svg PUBLIC "-//W3C//DTD SVG 20010904//EN"
 "http://www.w3.org/TR/2001/REC-SVG-20010904/DTD/svg10.dtd">
<svg version="1.0" xmlns="http://www.w3.org/2000/svg"
 width="101.000000pt" height="101.000000pt" viewBox="0 0 101.000000 101.000000"
 preserveAspectRatio="xMidYMid meet">
<metadata>
Created by potrace 1.16, written by Peter Selinger 2001-2019
</metadata>
<g transform="translate(0.000000,101.000000) scale(0.100000,-0.100000)"
fill="#000000" stroke="none">
<path d="M570 944 c-41 -13 -91 -26 -110 -29 -19 -3 -51 -7 -70 -10 -32 -5
-118 -5 -180 -2 -20 2 -24 -2 -22 -18 9 -75 12 -112 18 -210 3 -60 10 -111 15
-113 11 -4 12 -85 2 -96 -4 -4 -6 -27 -4 -52 2 -32 -2 -51 -14 -64 -10 -11
-15 -26 -12 -34 4 -9 2 -18 -4 -21 -12 -8 -6 -63 10 -92 21 -40 41 -44 141
-28 80 12 109 15 186 15 44 0 95 4 112 9 21 6 34 6 38 -1 8 -12 123 -3 136 10
15 15 -10 61 -44 83 -33 20 -63 21 -153 5 -30 -6 -67 -11 -140 -22 -22 -3 -74
-6 -117 -7 l-76 -2 -7 124 c-5 82 -4 130 3 141 10 16 12 56 16 227 l1 63 34
-5 c19 -2 43 1 54 7 11 5 34 12 51 14 17 2 47 6 66 9 60 8 124 14 156 14 43 1
79 31 70 59 -7 20 -54 53 -73 51 -4 -1 -42 -12 -83 -25z"/>
</g>
</svg>
