<?xml version="1.0" standalone="no"?>
<!DOCTYPE svg PUBLIC "-//W3C//DTD SVG 20010904//EN"
 "http://www.w3.org/TR/2001/REC-SVG-20010904/DTD/svg10.dtd">
<svg version="1.0" xmlns="http://www.w3.org/2000/svg"
 width="101.000000pt" height="101.000000pt" viewBox="0 0 101.000000 101.000000"
 preserveAspectRatio="xMidYMid meet">
<metadata>
Created by potrace 1.16, written by Peter Selinger 2001-2019
</metadata>
<g transform="translate(0.000000,101.000000) scale(0.100000,-0.100000)"
fill="#000000" stroke="none">
<path d="M727 955 c-57 -21 -166 -36 -260 -35 -31 1 -62 -2 -69 -6 -18 -11
-60 -8 -91 7 -24 11 -30 11 -38 -2 -5 -8 -7 -23 -4 -34 5 -21 7 -301 3 -391
-2 -28 -8 -57 -14 -65 -6 -8 -11 -24 -12 -36 -1 -35 -51 -139 -78 -164 -29
-27 -32 -59 -5 -59 45 0 128 130 170 267 27 87 35 153 43 339 3 58 4 61 24 52
14 -6 36 -6 65 2 24 7 60 14 79 16 19 2 53 5 75 8 22 2 84 6 137 8 53 1 100 6
103 10 15 15 -6 57 -39 77 -38 24 -39 24 -89 6z"/>
</g>
</svg>
