<?xml version="1.0" standalone="no"?>
<!DOCTYPE svg PUBLIC "-//W3C//DTD SVG 20010904//EN"
 "http://www.w3.org/TR/2001/REC-SVG-20010904/DTD/svg10.dtd">
<svg version="1.0" xmlns="http://www.w3.org/2000/svg"
 width="101.000000pt" height="101.000000pt" viewBox="0 0 101.000000 101.000000"
 preserveAspectRatio="xMidYMid meet">
<metadata>
Created by potrace 1.16, written by Peter Selinger 2001-2019
</metadata>
<g transform="translate(0.000000,101.000000) scale(0.100000,-0.100000)"
fill="#000000" stroke="none">
<path d="M670 927 c-14 -6 -38 -12 -55 -13 -16 -1 -46 -5 -65 -8 -80 -14 -97
-16 -137 -16 -23 1 -44 -3 -46 -7 -7 -12 -100 -7 -125 6 -28 15 -52 14 -52 -3
0 -7 6 -31 13 -52 8 -22 15 -61 16 -89 1 -27 6 -51 12 -53 15 -6 10 -136 -7
-177 -9 -21 -14 -49 -11 -62 2 -13 1 -26 -4 -28 -4 -3 -7 -23 -7 -45 0 -23 -8
-54 -21 -75 -19 -32 -20 -39 -7 -63 20 -38 62 -75 79 -69 8 3 22 28 31 57 14
44 16 79 11 230 -4 119 -2 181 5 185 6 3 10 32 9 63 -2 84 -2 84 20 73 10 -6
21 -8 23 -5 6 5 38 13 74 18 11 2 25 6 31 9 9 6 34 12 93 23 39 8 126 8 139 0
6 -4 11 -18 11 -31 0 -13 7 -30 15 -39 18 -18 22 -156 4 -156 -7 0 -10 -33
-10 -97 2 -121 -5 -207 -18 -231 -12 -22 16 -74 50 -92 18 -10 25 -9 43 9 17
18 22 38 27 119 10 146 10 360 0 366 -13 8 -5 109 10 134 12 19 10 25 -21 58
-50 52 -98 74 -130 61z"/>
</g>
</svg>
