<?xml version="1.0" standalone="no"?>
<!DOCTYPE svg PUBLIC "-//W3C//DTD SVG 20010904//EN"
 "http://www.w3.org/TR/2001/REC-SVG-20010904/DTD/svg10.dtd">
<svg version="1.0" xmlns="http://www.w3.org/2000/svg"
 width="101.000000pt" height="101.000000pt" viewBox="0 0 101.000000 101.000000"
 preserveAspectRatio="xMidYMid meet">
<metadata>
Created by potrace 1.16, written by Peter Selinger 2001-2019
</metadata>
<g transform="translate(0.000000,101.000000) scale(0.100000,-0.100000)"
fill="#000000" stroke="none">
<path d="M542 957 c-6 -7 -14 -28 -17 -47 -13 -73 -123 -229 -239 -338 -31
-29 -56 -59 -56 -67 0 -7 29 -29 64 -49 114 -64 270 -171 339 -234 37 -34 76
-62 86 -62 53 0 64 86 17 127 -42 36 -150 95 -297 162 l-135 62 121 122 c66
67 135 138 153 157 18 19 42 43 53 53 20 18 20 20 3 45 -21 33 -65 82 -75 82
-3 0 -11 -6 -17 -13z"/>
</g>
</svg>
