<?xml version="1.0" standalone="no"?>
<!DOCTYPE svg PUBLIC "-//W3C//DTD SVG 20010904//EN"
 "http://www.w3.org/TR/2001/REC-SVG-20010904/DTD/svg10.dtd">
<svg version="1.0" xmlns="http://www.w3.org/2000/svg"
 width="101.000000pt" height="101.000000pt" viewBox="0 0 101.000000 101.000000"
 preserveAspectRatio="xMidYMid meet">
<metadata>
Created by potrace 1.16, written by Peter Selinger 2001-2019
</metadata>
<g transform="translate(0.000000,101.000000) scale(0.100000,-0.100000)"
fill="#000000" stroke="none">
<path d="M468 973 c-21 -5 -21 -5 -6 -54 6 -22 15 -39 21 -39 5 0 7 -28 3 -69
-4 -44 -2 -72 4 -76 11 -7 13 -94 4 -180 -5 -42 -9 -50 -27 -52 -12 -1 -42 -3
-67 -5 l-45 -3 2 135 c2 74 6 145 9 157 6 23 -20 47 -66 57 -46 11 -55 -5 -35
-65 21 -62 25 -273 6 -292 -19 -19 -12 -52 17 -80 34 -32 35 -32 70 -7 15 11
41 22 57 24 17 3 38 7 48 11 13 6 17 2 18 -16 1 -13 0 -28 -2 -34 -2 -5 -4
-32 -6 -60 -1 -27 -2 -55 -2 -62 -1 -6 -10 -9 -21 -6 -11 3 -28 2 -37 -2 -23
-9 -93 -15 -166 -15 -34 1 -65 -5 -74 -12 -9 -7 -18 -12 -20 -10 -1 1 -10 2
-18 2 -23 0 -18 -24 9 -49 30 -28 46 -29 186 -6 36 5 97 14 155 20 28 4 66 8
85 11 45 7 180 6 246 -2 57 -6 70 2 60 41 -9 37 -69 69 -114 61 -67 -12 -107
-17 -129 -17 -12 1 -33 -3 -46 -8 l-24 -10 5 92 c2 51 6 93 7 95 2 2 27 5 57
7 53 5 54 4 72 -30 11 -19 25 -35 31 -35 14 0 46 92 45 130 -2 70 11 208 21
227 6 12 9 29 5 38 -7 18 -94 60 -104 50 -10 -10 -2 -139 10 -146 7 -4 8 -28
4 -65 -10 -84 -14 -93 -36 -87 -11 3 -28 2 -37 -2 -10 -5 -21 -8 -25 -7 -4 1
-18 -2 -31 -7 l-24 -10 -7 95 c-5 59 -4 100 3 107 5 7 10 35 10 62 1 67 6 109
15 124 4 6 2 19 -5 27 -11 14 -84 56 -91 53 -2 -1 -11 -3 -20 -6z"/>
</g>
</svg>
