<?xml version="1.0" standalone="no"?>
<!DOCTYPE svg PUBLIC "-//W3C//DTD SVG 20010904//EN"
 "http://www.w3.org/TR/2001/REC-SVG-20010904/DTD/svg10.dtd">
<svg version="1.0" xmlns="http://www.w3.org/2000/svg"
 width="101.000000pt" height="101.000000pt" viewBox="0 0 101.000000 101.000000"
 preserveAspectRatio="xMidYMid meet">
<metadata>
Created by potrace 1.16, written by Peter Selinger 2001-2019
</metadata>
<g transform="translate(0.000000,101.000000) scale(0.100000,-0.100000)"
fill="#000000" stroke="none">
<path d="M629 950 c-55 -22 -154 -41 -212 -40 -16 0 -33 -3 -39 -6 -14 -9 -97
-8 -119 1 -18 7 -34 -19 -23 -36 10 -16 15 -60 15 -126 -1 -34 4 -65 9 -68 13
-8 12 -111 -1 -200 -6 -38 -13 -94 -15 -124 -2 -29 -8 -59 -14 -66 -13 -16 7
-72 35 -95 15 -13 19 -12 31 5 8 10 14 28 14 38 0 20 0 20 21 1 20 -18 46 -20
129 -9 19 2 71 6 114 9 71 3 81 2 96 -16 13 -17 20 -19 37 -10 12 7 26 26 33
44 16 46 25 204 12 220 -6 8 -9 80 -7 196 3 158 6 186 21 203 16 18 16 20 -2
40 -10 12 -35 29 -54 39 -34 17 -37 17 -81 0z m28 -104 c4 -3 5 -33 4 -65 -1
-33 3 -62 9 -66 12 -8 13 -52 1 -59 -12 -8 -13 -114 -1 -121 16 -10 12 -98 -6
-123 -8 -12 -14 -30 -13 -40 1 -9 1 -27 0 -40 -1 -20 -4 -21 -22 -12 -12 7
-33 8 -52 4 -18 -4 -38 -7 -46 -5 -7 1 -20 -1 -30 -5 -9 -3 -54 -7 -101 -8
l-85 -1 -3 89 c-2 59 0 91 8 96 7 5 12 60 13 167 l2 160 27 -4 c15 -2 37 1 48
7 24 13 53 21 93 24 15 2 29 5 31 7 7 6 117 2 123 -5z"/>
<path d="M416 672 c-3 -5 16 -52 42 -105 42 -86 50 -96 72 -94 34 3 54 45 39
84 -13 35 -33 58 -83 94 -40 29 -61 36 -70 21z"/>
</g>
</svg>
