<?xml version="1.0" standalone="no"?>
<!DOCTYPE svg PUBLIC "-//W3C//DTD SVG 20010904//EN"
 "http://www.w3.org/TR/2001/REC-SVG-20010904/DTD/svg10.dtd">
<svg version="1.0" xmlns="http://www.w3.org/2000/svg"
 width="101.000000pt" height="101.000000pt" viewBox="0 0 101.000000 101.000000"
 preserveAspectRatio="xMidYMid meet">
<metadata>
Created by potrace 1.16, written by Peter Selinger 2001-2019
</metadata>
<g transform="translate(0.000000,101.000000) scale(0.100000,-0.100000)"
fill="#000000" stroke="none">
<path d="M632 979 c-13 -5 -38 -11 -55 -14 -16 -3 -35 -9 -41 -13 -6 -4 -66
-7 -133 -7 -66 0 -124 -3 -128 -7 -17 -17 44 -87 77 -88 17 0 17 -1 3 -63 -14
-63 -102 -203 -147 -235 -25 -18 -23 -42 7 -75 28 -29 54 -34 87 -16 12 6 48
11 80 10 34 -1 70 5 87 13 15 8 37 13 48 10 11 -3 27 1 36 10 17 17 64 21 86
7 31 -20 4 -124 -71 -275 -30 -59 -28 -86 6 -73 25 10 82 95 141 209 31 59 64
112 75 118 40 21 18 62 -58 108 -34 20 -35 20 -77 1 -23 -10 -62 -21 -86 -24
-24 -2 -57 -6 -74 -9 -134 -19 -195 -24 -195 -16 0 3 39 54 85 114 47 60 85
114 85 118 0 5 -11 24 -26 43 -23 31 -24 34 -7 39 34 10 112 24 169 30 38 4
42 2 47 -20 2 -14 -10 -60 -30 -110 -19 -47 -32 -88 -29 -91 3 -3 15 -3 28 0
15 4 39 33 71 86 26 44 59 89 72 99 14 11 25 26 25 35 0 20 -49 67 -87 83 -37
16 -40 16 -71 3z"/>
</g>
</svg>
