<?xml version="1.0" standalone="no"?>
<!DOCTYPE svg PUBLIC "-//W3C//DTD SVG 20010904//EN"
 "http://www.w3.org/TR/2001/REC-SVG-20010904/DTD/svg10.dtd">
<svg version="1.0" xmlns="http://www.w3.org/2000/svg"
 width="101.000000pt" height="101.000000pt" viewBox="0 0 101.000000 101.000000"
 preserveAspectRatio="xMidYMid meet">
<metadata>
Created by potrace 1.16, written by Peter Selinger 2001-2019
</metadata>
<g transform="translate(0.000000,101.000000) scale(0.100000,-0.100000)"
fill="#000000" stroke="none">
<path d="M395 981 c-3 -6 -3 -67 -1 -138 l5 -128 -27 -2 c-15 -1 -44 -2 -64
-2 -20 0 -39 -5 -43 -10 -3 -6 -12 -8 -20 -5 -20 8 -85 -15 -85 -30 0 -16 39
-52 66 -60 14 -4 28 -1 37 8 8 9 28 15 43 15 16 -1 41 1 57 4 19 3 25 1 18 -7
-4 -6 -9 -26 -9 -44 0 -18 -6 -40 -13 -48 -6 -8 -9 -17 -6 -20 8 -9 -41 -122
-80 -183 -20 -31 -58 -80 -85 -109 -46 -49 -54 -72 -23 -72 19 0 104 73 148
127 44 55 97 155 121 231 10 28 21 52 24 52 4 0 8 -64 9 -143 3 -175 8 -203
37 -223 25 -16 70 -28 96 -25 8 1 58 2 110 4 52 1 105 8 118 15 52 29 -2 98
-68 87 -19 -3 -42 -6 -50 -6 -8 -1 -22 -3 -30 -6 -29 -10 -80 -10 -102 1 -20
11 -21 17 -21 149 0 89 4 142 12 150 6 6 11 17 11 24 0 14 -70 53 -95 53 -21
0 -19 20 3 21 9 0 37 2 62 4 25 2 77 4 115 4 82 1 111 15 100 50 -13 41 -94
73 -123 48 -8 -7 -16 -10 -16 -8 -1 2 -20 -2 -42 -8 -23 -6 -56 -13 -73 -15
-27 -3 -31 -1 -26 15 6 17 10 49 19 136 1 13 6 26 9 30 4 3 7 13 7 20 0 23
-113 62 -125 44z"/>
</g>
</svg>
