<?xml version="1.0" standalone="no"?>
<!DOCTYPE svg PUBLIC "-//W3C//DTD SVG 20010904//EN"
 "http://www.w3.org/TR/2001/REC-SVG-20010904/DTD/svg10.dtd">
<svg version="1.0" xmlns="http://www.w3.org/2000/svg"
 width="34.000000pt" height="101.000000pt" viewBox="0 0 34.000000 101.000000"
 preserveAspectRatio="xMidYMid meet">
<metadata>
Created by potrace 1.16, written by Peter Selinger 2001-2019
</metadata>
<g transform="translate(0.000000,101.000000) scale(0.100000,-0.100000)"
fill="#000000" stroke="none">
<path d="M50 1002 c-18 -8 -23 -81 -6 -84 6 0 16 -2 21 -2 26 -4 35 -20 35
-67 0 -27 5 -49 10 -49 6 0 10 -16 10 -35 0 -19 -5 -35 -11 -35 -7 0 -9 -18
-6 -52 9 -103 21 -136 58 -161 16 -12 17 -16 5 -20 -16 -6 -62 -87 -49 -87 4
0 2 -5 -5 -12 -14 -14 -16 -98 -2 -98 6 0 10 -11 10 -25 0 -14 -5 -25 -11 -25
-6 0 -10 -24 -8 -65 2 -70 -5 -86 -43 -92 -53 -8 -50 -85 3 -85 61 -1 110 26
135 73 13 26 15 48 9 119 -5 61 -4 90 4 95 7 4 11 32 10 71 -2 71 8 89 51 99
50 11 50 69 0 79 -47 9 -60 40 -66 166 -4 80 -2 119 6 136 24 43 -25 126 -84
143 -17 5 -38 11 -46 14 -8 3 -22 3 -30 -1z"/>
</g>
</svg>
