<?xml version="1.0" standalone="no"?>
<!DOCTYPE svg PUBLIC "-//W3C//DTD SVG 20010904//EN"
 "http://www.w3.org/TR/2001/REC-SVG-20010904/DTD/svg10.dtd">
<svg version="1.0" xmlns="http://www.w3.org/2000/svg"
 width="101.000000pt" height="102.000000pt" viewBox="0 0 101.000000 102.000000"
 preserveAspectRatio="xMidYMid meet">
<metadata>
Created by potrace 1.16, written by Peter Selinger 2001-2019
</metadata>
<g transform="translate(0.000000,102.000000) scale(0.100000,-0.100000)"
fill="#000000" stroke="none">
<path d="M93 944 c-19 -42 -37 -88 -39 -102 -3 -14 -9 -33 -14 -42 -5 -10 -7
-29 -4 -44 2 -14 -2 -36 -11 -49 -8 -13 -15 -41 -16 -63 0 -21 -1 -61 -2 -89
-1 -46 7 -144 18 -205 18 -103 97 -300 121 -300 25 0 24 18 -5 82 -81 177
-103 394 -62 588 5 25 12 61 15 82 7 43 43 144 63 175 16 24 10 43 -13 43 -9
0 -29 -31 -51 -76z"/>
<path d="M835 1010 c-3 -5 5 -31 18 -57 26 -52 56 -138 63 -181 12 -72 15 -90
19 -127 10 -86 6 -193 -9 -275 -2 -14 -7 -41 -11 -60 -11 -65 -27 -115 -56
-179 -29 -63 -30 -81 -5 -81 25 0 96 165 112 260 2 14 6 36 8 50 18 102 23
239 12 305 -4 22 -7 49 -7 60 0 10 -5 25 -11 32 -6 7 -8 13 -5 13 8 0 -34 120
-66 193 -24 53 -47 71 -62 47z"/>
<path d="M230 924 c-12 -3 -14 -18 -12 -64 3 -39 0 -60 -7 -60 -6 0 -11 -18
-11 -40 0 -22 5 -40 10 -40 6 0 10 -33 10 -80 0 -47 -4 -80 -10 -80 -6 0 -10
-30 -10 -70 0 -40 4 -70 10 -70 14 0 13 -47 -1 -52 -8 -3 -9 -35 -4 -105 6
-87 10 -102 26 -106 40 -11 64 5 60 39 -2 14 9 15 149 15 258 -1 272 -2 267
-15 -9 -22 10 -39 42 -39 17 0 33 2 36 4 4 5 7 217 5 384 -1 55 1 147 4 205 4
58 4 120 1 138 l-6 34 -117 -2 c-64 -1 -145 -1 -179 -1 -35 0 -91 0 -125 -1
-35 0 -76 2 -93 5 -16 3 -37 3 -45 1z m153 -174 c0 -49 -4 -93 -7 -98 -3 -6
-6 -21 -5 -33 0 -13 -2 -37 -6 -54 -7 -36 -54 -119 -62 -111 -10 10 -14 135
-10 301 l2 80 45 2 45 2 -2 -89z m129 -16 c-1 -69 2 -111 9 -120 8 -9 9 -38 5
-86 -7 -81 -3 -92 37 -107 40 -15 99 10 120 52 l16 32 0 -47 c1 -27 6 -48 11
-48 7 0 10 -22 8 -57 l-3 -58 -85 -3 c-90 -3 -280 -4 -317 -1 -25 1 -27 10
-17 96 l7 52 27 -19 c16 -11 31 -20 34 -20 13 0 57 79 76 137 15 45 21 94 23
177 2 114 2 115 27 119 14 2 25 5 25 6 0 0 -1 -47 -3 -105z m188 59 c0 -24 5
-43 10 -43 6 0 10 -11 10 -25 0 -14 -4 -25 -10 -25 -6 0 -10 -30 -10 -70 0
-40 4 -70 10 -70 6 0 10 -11 10 -25 0 -31 -18 -33 -29 -2 -5 12 -18 30 -29 40
-20 19 -21 18 -32 -22 -11 -42 -24 -58 -35 -41 -13 21 -17 192 -5 215 7 13 11
42 9 66 l-4 44 53 1 52 1 0 -44z"/>
</g>
</svg>
