<?xml version="1.0" standalone="no"?>
<!DOCTYPE svg PUBLIC "-//W3C//DTD SVG 20010904//EN"
 "http://www.w3.org/TR/2001/REC-SVG-20010904/DTD/svg10.dtd">
<svg version="1.0" xmlns="http://www.w3.org/2000/svg"
 width="101.000000pt" height="102.000000pt" viewBox="0 0 101.000000 102.000000"
 preserveAspectRatio="xMidYMid meet">
<metadata>
Created by potrace 1.16, written by Peter Selinger 2001-2019
</metadata>
<g transform="translate(0.000000,102.000000) scale(0.100000,-0.100000)"
fill="#000000" stroke="none">
<path d="M93 944 c-19 -42 -37 -88 -39 -102 -3 -14 -8 -30 -11 -35 -3 -6 -8
-22 -10 -36 -7 -43 -10 -55 -18 -74 -4 -10 -5 -31 -2 -47 4 -16 2 -32 -4 -36
-11 -7 -3 -152 15 -259 18 -106 97 -305 122 -305 25 0 24 18 -5 82 -46 100
-65 175 -78 298 -16 164 21 400 82 523 26 50 25 67 -1 67 -9 0 -29 -31 -51
-76z"/>
<path d="M835 1010 c-3 -5 5 -31 18 -57 44 -88 63 -155 72 -263 3 -30 8 -66
11 -80 9 -36 3 -169 -10 -240 -2 -14 -7 -41 -11 -60 -11 -65 -27 -115 -56
-179 -29 -63 -30 -81 -5 -81 24 0 95 162 111 255 10 53 15 95 20 145 2 30 8
79 11 107 5 41 2 59 -11 79 -12 18 -15 37 -11 66 3 24 1 47 -5 55 -6 7 -9 13
-6 13 8 0 -34 120 -66 193 -24 53 -47 71 -62 47z"/>
<path d="M459 973 c-11 -2 -15 -12 -12 -27 3 -13 -2 -35 -11 -49 -13 -19 -15
-39 -11 -91 l5 -66 -71 5 c-40 3 -82 2 -95 -1 -29 -7 -40 -43 -24 -74 11 -21
16 -22 97 -15 51 4 83 3 80 -2 -3 -5 -8 -20 -10 -34 -25 -133 -90 -257 -180
-340 -39 -36 -39 -36 -23 -67 9 -17 20 -34 26 -37 27 -17 144 118 191 221 29
63 71 204 71 239 0 17 7 20 44 20 43 0 55 -7 34 -20 -7 -4 -10 -49 -10 -113 1
-59 2 -118 1 -132 0 -32 6 -191 8 -208 2 -22 68 -44 92 -31 12 6 36 8 55 4 44
-8 70 7 92 53 23 46 18 68 -18 87 -38 20 -37 20 -50 -20 -6 -19 -15 -35 -18
-36 -4 0 -20 -2 -35 -4 -22 -3 -30 1 -37 19 -8 23 -6 101 5 166 3 19 8 81 10
138 2 58 9 110 15 117 9 11 7 21 -9 44 -21 29 -24 30 -96 28 -64 -2 -74 0 -68
13 4 8 8 49 9 90 1 41 5 82 8 91 5 10 -1 19 -19 27 -14 7 -27 11 -28 11 -1 -1
-9 -3 -18 -6z"/>
</g>
</svg>
