<?xml version="1.0" standalone="no"?>
<!DOCTYPE svg PUBLIC "-//W3C//DTD SVG 20010904//EN"
 "http://www.w3.org/TR/2001/REC-SVG-20010904/DTD/svg10.dtd">
<svg version="1.0" xmlns="http://www.w3.org/2000/svg"
 width="101.000000pt" height="101.000000pt" viewBox="0 0 101.000000 101.000000"
 preserveAspectRatio="xMidYMid meet">
<metadata>
Created by potrace 1.16, written by Peter Selinger 2001-2019
</metadata>
<g transform="translate(0.000000,101.000000) scale(0.100000,-0.100000)"
fill="#000000" stroke="none">
<path d="M375 970 c-11 -5 -14 -9 -7 -9 15 -1 17 -111 2 -111 -5 0 -10 -18
-10 -40 0 -22 5 -40 10 -40 11 0 12 -67 1 -115 -5 -20 -12 -29 -23 -27 -9 1
-19 -2 -23 -7 -3 -6 -12 -8 -20 -4 -9 3 -21 0 -29 -6 -7 -6 -16 -8 -19 -4 -4
3 -13 0 -22 -7 -8 -7 -15 -10 -15 -7 0 3 -19 -1 -42 -8 -24 -6 -49 -10 -56 -8
-15 6 -74 -16 -84 -31 -4 -5 -2 -18 3 -27 5 -10 7 -24 4 -31 -12 -33 10 -36
81 -12 39 13 86 26 105 28 19 3 57 12 85 19 61 17 55 38 58 -183 1 -85 3 -160
4 -167 4 -24 82 -49 137 -44 11 2 81 3 155 5 83 1 144 7 157 14 44 24 96 172
61 172 -9 0 -32 11 -53 25 -20 15 -39 24 -42 21 -3 -2 -6 -27 -7 -55 -2 -27
-8 -57 -15 -64 -18 -22 -90 -37 -151 -33 -144 11 -167 23 -155 81 3 17 5 38 5
48 -2 22 0 99 3 164 2 48 4 52 32 59 40 10 56 13 80 17 51 10 85 20 85 27 0 5
17 8 38 8 20 0 51 3 67 7 17 3 41 8 55 10 14 2 36 6 50 9 14 2 28 5 32 5 12 2
6 67 -8 85 -8 12 -19 16 -32 11 -11 -3 -29 -8 -39 -10 -10 -2 -30 -8 -44 -13
-15 -6 -29 -8 -32 -6 -3 3 -14 1 -24 -4 -10 -6 -34 -13 -53 -16 -37 -6 -71
-13 -105 -22 -11 -3 -27 -6 -35 -6 -8 0 -22 -2 -30 -5 -8 -3 -20 -7 -26 -8
-20 -5 -34 128 -14 140 5 3 8 30 8 60 -1 31 3 60 10 67 21 21 13 33 -28 46
-45 14 -57 14 -85 2z"/>
</g>
</svg>
