<?xml version="1.0" standalone="no"?>
<!DOCTYPE svg PUBLIC "-//W3C//DTD SVG 20010904//EN"
 "http://www.w3.org/TR/2001/REC-SVG-20010904/DTD/svg10.dtd">
<svg version="1.0" xmlns="http://www.w3.org/2000/svg"
 width="101.000000pt" height="102.000000pt" viewBox="0 0 101.000000 102.000000"
 preserveAspectRatio="xMidYMid meet">
<metadata>
Created by potrace 1.16, written by Peter Selinger 2001-2019
</metadata>
<g transform="translate(0.000000,102.000000) scale(0.100000,-0.100000)"
fill="#000000" stroke="none">
<path d="M426 1005 c4 -8 1 -22 -6 -30 -12 -14 -19 -43 -23 -86 -1 -14 -13
-16 -78 -13 -43 2 -89 6 -103 10 -44 11 -74 -3 -81 -36 -4 -16 -4 -38 0 -49 6
-19 13 -20 119 -16 l113 4 -3 -31 c-2 -17 -9 -37 -15 -44 -6 -7 -8 -17 -5 -22
6 -11 -266 -28 -282 -18 -13 7 -25 -40 -17 -65 7 -22 58 -34 112 -26 21 4 66
7 99 9 l62 3 -10 -25 c-5 -14 -21 -37 -35 -52 -25 -26 -25 -28 -10 -65 15 -38
15 -38 68 -37 30 0 112 3 184 7 74 4 125 4 120 -2 -6 -4 -41 -36 -78 -69 l-68
-61 -52 21 c-29 11 -76 29 -105 39 l-52 18 -27 -40 c-22 -34 -24 -42 -12 -50
8 -5 20 -9 27 -9 29 0 253 -95 335 -142 98 -56 84 -57 137 14 l21 27 -87 40
c-48 23 -92 41 -98 41 -17 1 77 81 139 119 30 19 67 35 82 37 14 1 30 9 34 16
11 16 11 69 1 83 -10 16 -72 18 -89 3 -22 -18 -193 -24 -205 -7 -7 11 -11 11
-15 2 -6 -15 -73 -18 -73 -3 0 6 -16 10 -36 10 -30 0 -35 3 -29 18 4 9 11 28
16 42 l9 25 203 -3 c111 -1 228 -3 260 -4 64 -2 77 7 77 54 0 17 -7 31 -19 38
-25 13 -111 13 -111 0 0 -5 -20 -10 -45 -10 -25 0 -45 5 -45 10 0 6 -53 10
-139 10 -153 0 -156 1 -136 60 l12 34 80 -2 c49 -2 84 1 88 8 8 13 52 13 60
-1 4 -6 22 -8 44 -4 20 3 49 1 64 -4 35 -13 57 8 57 54 0 41 -26 60 -62 46
-44 -17 -177 -24 -193 -11 -8 7 -35 11 -63 8 l-49 -3 9 40 c5 22 13 44 19 50
18 18 8 34 -28 44 -54 15 -74 14 -67 -4z"/>
</g>
</svg>
