<?xml version="1.0" standalone="no"?>
<!DOCTYPE svg PUBLIC "-//W3C//DTD SVG 20010904//EN"
 "http://www.w3.org/TR/2001/REC-SVG-20010904/DTD/svg10.dtd">
<svg version="1.0" xmlns="http://www.w3.org/2000/svg"
 width="101.000000pt" height="101.000000pt" viewBox="0 0 101.000000 101.000000"
 preserveAspectRatio="xMidYMid meet">
<metadata>
Created by potrace 1.16, written by Peter Selinger 2001-2019
</metadata>
<g transform="translate(0.000000,101.000000) scale(0.100000,-0.100000)"
fill="#000000" stroke="none">
<path d="M248 951 c3 -41 0 -61 -8 -61 -7 0 -11 -24 -11 -67 1 -118 -5 -218
-13 -231 -4 -7 -5 -21 -1 -31 5 -16 17 -19 80 -20 40 -1 77 3 80 9 8 12 52 13
59 1 8 -12 114 -13 121 -1 7 11 110 13 166 4 36 -6 42 -16 26 -41 -4 -7 -7
-29 -7 -50 0 -21 -2 -60 -5 -88 -3 -27 -7 -70 -10 -94 -6 -70 -27 -80 -147
-67 -21 2 -38 2 -38 -1 0 -3 10 -32 23 -64 l22 -58 55 5 c124 11 161 32 185
106 13 42 15 70 10 146 -6 71 -4 96 5 102 12 7 21 73 23 158 1 37 -18 55 -43
42 -10 -5 -49 -6 -88 -3 -51 4 -72 3 -72 -6 0 -6 -11 -11 -25 -11 -14 0 -25 5
-25 10 0 6 -30 10 -70 10 -40 0 -70 -4 -70 -10 0 -5 -11 -10 -25 -10 -14 0
-25 5 -25 10 0 6 -20 10 -45 10 l-44 0 2 63 2 62 80 2 c44 1 98 2 120 1 276
-2 379 2 386 14 28 44 -5 105 -50 93 -14 -4 -61 -7 -103 -6 -50 2 -78 -2 -78
-8 0 -6 -11 -11 -25 -11 -14 0 -25 5 -25 10 0 6 -30 10 -70 10 -40 0 -70 -4
-70 -10 0 -5 -16 -10 -35 -10 -19 0 -35 5 -35 10 0 6 -18 10 -39 10 -33 0 -40
4 -43 23 -2 12 0 37 5 55 5 19 6 36 3 40 -3 3 -30 7 -59 10 l-52 4 3 -61z"/>
<path d="M606 432 c-3 -5 -126 -6 -274 -4 l-270 5 -7 -31 c-10 -47 1 -71 38
-77 18 -3 113 -3 212 0 186 5 236 6 319 3 31 0 51 4 57 13 14 22 10 66 -7 83
-16 17 -59 22 -68 8z"/>
</g>
</svg>
