<?xml version="1.0" standalone="no"?>
<!DOCTYPE svg PUBLIC "-//W3C//DTD SVG 20010904//EN"
 "http://www.w3.org/TR/2001/REC-SVG-20010904/DTD/svg10.dtd">
<svg version="1.0" xmlns="http://www.w3.org/2000/svg"
 width="101.000000pt" height="101.000000pt" viewBox="0 0 101.000000 101.000000"
 preserveAspectRatio="xMidYMid meet">
<metadata>
Created by potrace 1.16, written by Peter Selinger 2001-2019
</metadata>
<g transform="translate(0.000000,101.000000) scale(0.100000,-0.100000)"
fill="#000000" stroke="none">
<path d="M138 963 c-22 -6 -34 -64 -19 -92 9 -17 21 -21 56 -21 25 0 45 5 45
10 0 6 16 10 35 10 19 0 35 -5 35 -11 0 -7 16 -10 43 -8 l42 4 0 -116 1 -117
-84 4 c-46 2 -88 6 -92 9 -18 11 -60 -7 -60 -26 0 -10 5 -19 10 -19 16 0 12
-86 -5 -100 -11 -9 -15 -30 -15 -69 2 -94 -20 -154 -84 -235 -21 -27 -27 -40
-18 -43 7 -3 26 -16 43 -30 24 -20 32 -23 44 -13 31 26 75 106 98 179 28 86
29 92 31 179 l1 62 143 0 c88 0 142 4 142 10 0 6 20 10 45 10 25 0 45 -5 45
-10 0 -7 53 -10 155 -9 l154 1 7 45 c4 28 2 49 -4 55 -12 12 -56 13 -114 3
-48 -9 -48 0 -3 82 19 35 35 67 35 72 0 9 -68 47 -73 41 -10 -13 -78 -143 -75
-144 2 -1 19 -12 38 -24 33 -21 34 -22 10 -23 -14 0 -38 -1 -55 -2 -30 -2 -30
-2 -27 46 3 29 0 47 -7 47 -6 0 -11 11 -11 25 0 14 5 25 10 25 6 0 10 20 10
44 0 41 1 43 25 38 14 -2 67 -1 119 3 l94 7 6 33 c12 60 13 60 -182 60 -97 0
-182 -3 -187 -7 -16 -10 -173 -9 -180 2 -3 5 -29 9 -58 8 -29 -1 -74 1 -102 5
-27 3 -58 3 -67 0z m423 -156 c-1 -27 2 -54 8 -60 12 -12 14 -68 5 -103 -4
-17 -13 -20 -52 -20 l-47 1 0 115 0 115 45 0 45 0 -4 -48z"/>
<path d="M205 803 c-16 -8 -31 -17 -33 -18 -2 -2 8 -19 22 -39 14 -20 30 -52
36 -71 l11 -34 45 17 c26 10 44 23 44 32 0 23 -64 125 -81 127 -8 1 -27 -5
-44 -14z"/>
</g>
</svg>
