<?xml version="1.0" standalone="no"?>
<!DOCTYPE svg PUBLIC "-//W3C//DTD SVG 20010904//EN"
 "http://www.w3.org/TR/2001/REC-SVG-20010904/DTD/svg10.dtd">
<svg version="1.0" xmlns="http://www.w3.org/2000/svg"
 width="101.000000pt" height="101.000000pt" viewBox="0 0 101.000000 101.000000"
 preserveAspectRatio="xMidYMid meet">
<metadata>
Created by potrace 1.16, written by Peter Selinger 2001-2019
</metadata>
<g transform="translate(0.000000,101.000000) scale(0.100000,-0.100000)"
fill="#000000" stroke="none">
<path d="M738 976 c-13 -6 -43 -11 -68 -13 -25 -1 -72 -4 -105 -7 -33 -3 -90
-5 -127 -5 -36 0 -69 -4 -72 -10 -8 -13 -173 -13 -181 -1 -7 12 -35 13 -52 2
-20 -12 23 -91 54 -98 13 -4 52 -3 86 1 95 11 177 14 178 7 0 -4 1 -30 2 -57
l2 -51 -125 3 c-69 1 -132 3 -140 4 -35 5 -50 -2 -56 -25 -7 -30 4 -69 17 -60
6 3 76 3 157 -1 l147 -7 0 -57 0 -57 -155 4 c-85 2 -173 5 -195 8 -49 6 -63
-3 -71 -42 -9 -45 15 -65 77 -63 28 1 52 6 55 11 4 6 28 7 56 3 36 -5 53 -4
58 5 6 9 24 11 64 6 l56 -7 -17 -31 c-28 -47 -144 -152 -196 -176 l-47 -22 16
-38 c9 -20 18 -43 21 -49 5 -12 27 -18 48 -13 6 1 24 4 40 6 17 2 48 6 70 9
47 7 121 14 230 21 148 9 165 8 180 -12 45 -63 37 -60 89 -30 25 15 46 30 46
34 0 10 -219 252 -228 252 -10 0 -82 -49 -82 -56 0 -3 25 -29 56 -57 48 -44
53 -52 37 -58 -25 -9 -125 -9 -143 1 -9 5 -42 1 -75 -7 -45 -12 -67 -13 -88
-5 -16 6 -36 8 -45 5 -25 -9 -11 4 101 91 55 42 103 76 108 76 19 0 8 21 -18
33 l-27 12 44 8 c25 4 59 10 76 13 18 3 41 1 52 -5 14 -7 28 -7 48 1 22 8 43
7 89 -5 41 -10 65 -12 78 -5 10 5 36 7 57 3 33 -6 39 -4 45 15 19 59 -20 90
-93 74 -20 -4 -61 -7 -89 -5 -34 2 -53 -1 -53 -8 0 -6 -16 -11 -35 -11 -19 0
-35 5 -35 10 0 6 -26 10 -57 10 l-58 0 3 49 4 49 141 7 c87 5 145 12 149 19 4
6 8 23 8 39 0 41 -39 56 -86 34 -39 -19 -80 -22 -89 -7 -4 6 -32 9 -63 8 l-57
-3 3 52 c3 46 1 53 -15 54 -47 4 92 19 171 19 86 0 156 15 156 32 0 5 -12 26
-26 48 -28 42 -54 49 -106 26z"/>
</g>
</svg>
