<?xml version="1.0" standalone="no"?>
<!DOCTYPE svg PUBLIC "-//W3C//DTD SVG 20010904//EN"
 "http://www.w3.org/TR/2001/REC-SVG-20010904/DTD/svg10.dtd">
<svg version="1.0" xmlns="http://www.w3.org/2000/svg"
 width="101.000000pt" height="101.000000pt" viewBox="0 0 101.000000 101.000000"
 preserveAspectRatio="xMidYMid meet">
<metadata>
Created by potrace 1.16, written by Peter Selinger 2001-2019
</metadata>
<g transform="translate(0.000000,101.000000) scale(0.100000,-0.100000)"
fill="#000000" stroke="none">
<path d="M455 953 l0 -58 -52 3 c-34 3 -53 0 -53 -7 0 -6 -16 -11 -35 -11 -19
0 -35 5 -35 10 0 6 -28 10 -63 10 -58 0 -63 -2 -65 -22 -1 -13 3 -33 9 -44 8
-15 8 -51 2 -118 -9 -96 -9 -96 14 -96 13 0 23 5 23 10 0 11 73 13 172 4 l66
-7 4 -37 3 -37 -130 4 c-71 2 -145 1 -162 -2 l-33 -6 0 -74 c0 -46 4 -75 12
-77 8 -3 8 -25 0 -88 -6 -47 -8 -87 -6 -90 3 -2 23 -3 46 -3 43 2 61 17 52 44
-3 12 2 17 18 18 13 1 50 3 83 6 88 7 123 -1 124 -28 1 -12 3 -38 4 -57 1 -19
-1 -49 -5 -66 -8 -37 4 -43 65 -36 38 4 39 5 32 36 -6 29 -8 70 -4 122 1 15 8
22 23 23 11 0 48 3 81 6 76 6 128 -2 122 -19 -10 -25 11 -40 54 -39 23 1 44 5
47 8 8 7 9 301 2 309 -3 3 -78 6 -165 8 l-160 3 0 31 0 31 115 7 c64 3 130 4
146 0 24 -4 33 -2 38 11 3 9 3 21 0 27 -6 10 -10 172 -4 193 10 42 6 43 -148
41 l-147 -1 2 30 c2 17 6 42 9 58 6 27 6 27 -47 27 l-54 0 0 -57z m-9 -197 l2
-54 -99 1 c-78 2 -98 5 -94 15 3 8 5 29 5 47 0 37 -3 36 145 43 l40 2 1 -54z
m299 2 c0 -29 -4 -56 -10 -60 -15 -11 -63 -9 -70 2 -4 6 -32 9 -66 8 l-59 -3
2 50 3 50 100 3 100 2 0 -52z m-51 -290 c5 -10 7 -10 12 0 6 13 43 16 60 4 5
-4 11 -16 12 -27 1 -11 4 -35 8 -52 5 -29 3 -34 -21 -43 -15 -6 -61 -8 -103
-5 -133 8 -127 6 -124 40 1 17 3 40 3 53 1 19 7 22 40 22 21 0 39 5 39 10 0
15 67 12 74 -2z m-248 -59 c2 -58 2 -59 -30 -64 -17 -3 -58 -3 -91 0 -33 3
-69 6 -80 6 -17 1 -20 8 -20 58 l0 56 110 1 110 1 1 -58z"/>
</g>
</svg>
