<?xml version="1.0" standalone="no"?>
<!DOCTYPE svg PUBLIC "-//W3C//DTD SVG 20010904//EN"
 "http://www.w3.org/TR/2001/REC-SVG-20010904/DTD/svg10.dtd">
<svg version="1.0" xmlns="http://www.w3.org/2000/svg"
 width="101.000000pt" height="101.000000pt" viewBox="0 0 101.000000 101.000000"
 preserveAspectRatio="xMidYMid meet">
<metadata>
Created by potrace 1.16, written by Peter Selinger 2001-2019
</metadata>
<g transform="translate(0.000000,101.000000) scale(0.100000,-0.100000)"
fill="#000000" stroke="none">
<path d="M417 1003 c-9 -2 -14 -9 -11 -14 3 -6 3 -54 -1 -107 l-7 -97 -141 0
-142 0 -3 -36 c-4 -49 17 -69 74 -69 24 0 52 5 62 11 12 8 41 9 83 5 72 -8 67
1 55 -96 -3 -19 -5 -41 -5 -48 -1 -9 -18 -3 -55 17 l-54 31 -26 -31 c-14 -17
-26 -34 -26 -38 0 -4 29 -21 65 -39 73 -36 73 -35 17 -120 -42 -64 -102 -116
-181 -157 -32 -16 -60 -32 -62 -35 -2 -3 15 -23 39 -44 l43 -39 55 38 c72 50
172 159 205 223 l27 52 45 -35 c25 -19 48 -35 50 -35 2 0 16 18 30 39 l27 40
-63 37 c-34 21 -63 38 -65 39 -1 1 4 22 12 46 8 24 15 53 15 64 0 11 3 35 7
53 5 28 10 32 38 32 17 0 55 3 85 7 l53 6 -12 -23 c-8 -15 -11 -45 -7 -82 3
-33 1 -61 -5 -64 -5 -3 -8 -34 -7 -68 1 -35 -1 -67 -4 -73 -8 -13 -2 -227 7
-242 16 -25 65 -40 132 -40 125 0 166 23 194 109 13 40 13 44 -4 54 -10 6 -32
22 -48 35 -16 13 -31 21 -34 18 -3 -3 -8 -24 -10 -48 -4 -48 -19 -70 -40 -62
-8 3 -20 0 -27 -6 -8 -6 -25 -7 -43 -2 l-29 8 4 94 c2 52 5 119 7 149 1 30 7
89 12 130 10 75 12 96 14 158 1 34 -17 56 -37 44 -5 -4 -60 -7 -120 -7 l-110
0 4 35 c2 19 5 58 6 85 1 28 6 58 10 67 11 27 -45 45 -98 31z"/>
</g>
</svg>
