<?xml version="1.0" standalone="no"?>
<!DOCTYPE svg PUBLIC "-//W3C//DTD SVG 20010904//EN"
 "http://www.w3.org/TR/2001/REC-SVG-20010904/DTD/svg10.dtd">
<svg version="1.0" xmlns="http://www.w3.org/2000/svg"
 width="101.000000pt" height="101.000000pt" viewBox="0 0 101.000000 101.000000"
 preserveAspectRatio="xMidYMid meet">
<metadata>
Created by potrace 1.16, written by Peter Selinger 2001-2019
</metadata>
<g transform="translate(0.000000,101.000000) scale(0.100000,-0.100000)"
fill="#000000" stroke="none">
<path d="M260 1002 c-17 -8 -26 -148 -10 -167 12 -14 12 -173 -1 -180 -12 -8
-12 -142 1 -150 13 -8 13 -52 -1 -60 -6 -5 -9 -58 -8 -148 1 -78 -1 -151 -5
-162 -11 -34 8 -50 60 -47 26 1 49 4 52 7 3 3 0 20 -6 38 -14 40 -16 143 -2
152 12 7 11 113 -1 121 -13 7 -11 51 2 59 6 4 9 38 7 86 -2 43 0 79 3 79 3 0
22 -11 42 -25 l36 -24 58 87 58 87 189 2 c200 2 206 3 206 50 0 31 -27 55 -54
46 -18 -6 -296 -12 -296 -6 0 7 47 82 63 100 l20 23 -38 16 c-77 32 -82 29
-118 -66 -35 -92 -79 -169 -136 -239 l-35 -43 -7 26 c-11 40 -10 184 1 191 6
4 9 19 8 34 -1 15 4 42 11 59 15 37 13 42 -21 47 -12 2 -32 6 -43 9 -11 3 -27
2 -35 -2z"/>
<path d="M81 882 c-13 -24 -14 -229 -1 -237 13 -8 13 -52 0 -60 -13 -8 -12
-206 2 -222 9 -12 8 -80 -3 -123 -3 -11 6 -16 36 -18 54 -3 74 10 58 38 -15
24 -17 120 -3 120 6 0 10 23 10 50 0 28 -4 50 -10 50 -5 0 -10 11 -10 25 0 14
5 25 10 25 6 0 10 30 10 70 0 40 -4 70 -10 70 -12 0 -13 47 -1 52 4 2 11 38
13 81 4 68 3 79 -13 87 -29 16 -77 12 -88 -8z"/>
<path d="M595 723 c-16 -8 -32 -17 -34 -19 -2 -2 10 -20 26 -41 17 -21 38 -53
47 -70 9 -18 19 -33 23 -33 14 0 73 43 73 53 0 14 -87 127 -98 127 -4 -1 -20
-8 -37 -17z"/>
<path d="M411 499 c-1 -31 3 -60 9 -64 12 -8 13 -52 1 -59 -12 -8 -13 -114 -1
-121 13 -8 13 -101 0 -125 -12 -22 7 -29 61 -22 32 3 36 7 37 34 0 17 3 32 5
35 3 2 37 4 77 4 39 0 80 5 89 11 11 6 36 8 63 4 l46 -7 -4 -38 c-4 -44 6 -51
70 -43 38 4 38 5 33 41 -13 82 -20 283 -10 289 12 9 23 96 13 111 -5 9 -20 9
-58 0 -29 -6 -83 -8 -120 -5 -37 4 -121 8 -188 10 l-121 3 -2 -58z m189 -101
c0 -51 3 -102 6 -113 4 -18 0 -20 -44 -20 l-48 0 0 112 1 113 43 0 42 0 0 -92z
m198 -26 l3 -107 -51 0 -50 0 2 102 3 102 45 4 c25 2 45 4 45 5 0 1 1 -47 3
-106z"/>
</g>
</svg>
