<?xml version="1.0" standalone="no"?>
<!DOCTYPE svg PUBLIC "-//W3C//DTD SVG 20010904//EN"
 "http://www.w3.org/TR/2001/REC-SVG-20010904/DTD/svg10.dtd">
<svg version="1.0" xmlns="http://www.w3.org/2000/svg"
 width="101.000000pt" height="101.000000pt" viewBox="0 0 101.000000 101.000000"
 preserveAspectRatio="xMidYMid meet">
<metadata>
Created by potrace 1.16, written by Peter Selinger 2001-2019
</metadata>
<g transform="translate(0.000000,101.000000) scale(0.100000,-0.100000)"
fill="#000000" stroke="none">
<path d="M361 958 c-37 -123 -123 -268 -209 -353 -52 -50 -61 -65 -42 -65 6 0
29 -9 52 -20 51 -25 50 -26 137 104 l67 101 47 -2 c25 -1 49 2 52 7 8 13 85
13 105 0 12 -7 4 -29 -44 -127 -52 -105 -68 -127 -145 -203 -90 -89 -176 -146
-273 -182 -32 -11 -58 -23 -58 -27 1 -3 19 -19 42 -36 23 -16 47 -34 54 -39 9
-7 42 10 113 57 119 79 223 175 271 249 l34 53 39 -79 c42 -83 142 -199 217
-251 l40 -28 36 41 c19 22 43 44 54 47 23 7 27 25 6 25 -38 0 -158 74 -209
130 -58 63 -109 154 -111 198 -1 15 20 81 46 146 27 66 48 120 48 120 0 1 -70
1 -155 1 -85 0 -155 2 -155 6 0 9 58 96 69 103 24 15 9 34 -36 45 -27 7 -55
14 -64 17 -11 3 -19 -7 -28 -38z"/>
</g>
</svg>
