<?xml version="1.0" standalone="no"?>
<!DOCTYPE svg PUBLIC "-//W3C//DTD SVG 20010904//EN"
 "http://www.w3.org/TR/2001/REC-SVG-20010904/DTD/svg10.dtd">
<svg version="1.0" xmlns="http://www.w3.org/2000/svg"
 width="101.000000pt" height="101.000000pt" viewBox="0 0 101.000000 101.000000"
 preserveAspectRatio="xMidYMid meet">
<metadata>
Created by potrace 1.16, written by Peter Selinger 2001-2019
</metadata>
<g transform="translate(0.000000,101.000000) scale(0.100000,-0.100000)"
fill="#000000" stroke="none">
<path d="M485 969 c-4 -17 -2 -43 5 -59 7 -18 10 -50 6 -82 -14 -121 -14 -144
-3 -175 10 -31 7 -71 -17 -177 -22 -97 -137 -216 -276 -286 l-44 -22 24 -20
c14 -11 32 -31 41 -44 l15 -23 55 36 c87 59 221 199 255 268 26 54 29 71 31
175 5 259 11 389 18 400 11 18 -14 29 -52 23 -21 -4 -33 -2 -33 6 0 24 -19 9
-25 -20z"/>
</g>
</svg>
