<?xml version="1.0" standalone="no"?>
<!DOCTYPE svg PUBLIC "-//W3C//DTD SVG 20010904//EN"
 "http://www.w3.org/TR/2001/REC-SVG-20010904/DTD/svg10.dtd">
<svg version="1.0" xmlns="http://www.w3.org/2000/svg"
 width="101.000000pt" height="101.000000pt" viewBox="0 0 101.000000 101.000000"
 preserveAspectRatio="xMidYMid meet">
<metadata>
Created by potrace 1.16, written by Peter Selinger 2001-2019
</metadata>
<g transform="translate(0.000000,101.000000) scale(0.100000,-0.100000)"
fill="#000000" stroke="none">
<path d="M730 996 c-19 -6 -41 -15 -47 -19 -7 -4 -30 -6 -50 -3 -24 4 -48 1
-67 -9 -34 -18 -58 -19 -73 -4 -7 7 -23 9 -40 4 -33 -8 -232 -10 -240 -1 -3 3
-14 1 -25 -5 -18 -10 -19 -18 -13 -100 5 -58 3 -94 -3 -102 -6 -7 -10 -27 -10
-44 1 -18 -6 -43 -15 -57 -15 -22 -15 -28 -2 -60 14 -34 16 -34 62 -31 27 2
96 6 156 9 l107 6 0 -60 c0 -33 4 -60 10 -60 6 0 10 -16 10 -35 0 -19 -5 -35
-11 -35 -8 0 -10 -21 -5 -70 10 -95 2 -106 -69 -103 -31 1 -55 -1 -53 -5 2 -4
14 -30 27 -59 24 -55 46 -68 87 -53 13 5 24 7 24 4 0 -2 13 2 29 11 36 18 55
70 46 126 -5 26 -3 45 6 55 9 11 9 18 1 26 -15 15 -16 75 -2 83 6 4 9 40 8 88
l-3 82 120 0 c66 0 125 -3 131 -7 24 -16 65 -4 70 19 13 50 -21 98 -50 74 -7
-6 -65 -7 -143 -4 l-132 6 3 61 c2 34 7 70 11 80 12 28 -20 47 -74 43 -42 -3
-46 -6 -44 -28 1 -13 4 -56 5 -95 l4 -72 -121 4 c-122 3 -140 10 -111 40 9 8
16 28 16 42 0 15 3 45 6 67 2 22 5 45 6 50 1 6 26 10 57 11 31 1 106 4 166 6
61 3 158 7 217 9 63 3 112 9 119 16 9 9 5 23 -18 59 -16 26 -33 49 -38 50 -6
1 -26 -3 -45 -10z"/>
<path d="M265 463 c-38 -60 -118 -140 -178 -178 -47 -30 -58 -45 -33 -45 7 0
30 -12 51 -26 l38 -25 31 28 c67 60 226 218 226 225 0 8 -85 68 -97 68 -4 0
-21 -21 -38 -47z"/>
<path d="M655 476 l-30 -24 76 -74 c42 -40 89 -92 104 -115 15 -24 32 -43 36
-43 5 0 29 13 54 28 l45 28 -32 38 c-39 48 -197 186 -212 186 -6 0 -24 -11
-41 -24z"/>
</g>
</svg>
