<?xml version="1.0" standalone="no"?>
<!DOCTYPE svg PUBLIC "-//W3C//DTD SVG 20010904//EN"
 "http://www.w3.org/TR/2001/REC-SVG-20010904/DTD/svg10.dtd">
<svg version="1.0" xmlns="http://www.w3.org/2000/svg"
 width="101.000000pt" height="101.000000pt" viewBox="0 0 101.000000 101.000000"
 preserveAspectRatio="xMidYMid meet">
<metadata>
Created by potrace 1.16, written by Peter Selinger 2001-2019
</metadata>
<g transform="translate(0.000000,101.000000) scale(0.100000,-0.100000)"
fill="#000000" stroke="none">
<path d="M780 973 c-8 -2 -22 -7 -30 -11 -8 -3 -28 -7 -45 -8 -16 -1 -46 -5
-65 -8 -80 -14 -96 -16 -123 -16 -16 0 -33 -3 -39 -6 -6 -4 -25 -8 -42 -9 -17
-2 -58 -5 -91 -8 -33 -3 -94 -6 -135 -7 -41 -1 -87 -3 -101 -6 l-26 -5 21 -44
c22 -47 55 -63 98 -49 20 6 66 11 123 14 11 0 35 5 53 10 19 5 43 5 55 0 21
-8 21 -8 -6 -15 -15 -4 -26 -10 -24 -14 27 -50 58 -123 54 -128 -7 -6 -139 -4
-220 3 -85 8 -125 -1 -133 -31 -3 -14 -3 -36 0 -50 l6 -24 246 2 245 2 -28
-22 c-53 -43 -218 -150 -322 -209 -92 -52 -191 -133 -191 -155 0 -5 22 -20 49
-33 l49 -25 30 49 c44 70 56 74 129 38 62 -30 141 -55 202 -63 18 -3 37 -7 41
-10 5 -3 20 0 34 6 20 10 32 8 60 -5 27 -13 41 -14 55 -6 11 5 59 8 110 6 97
-3 97 -3 107 54 3 13 10 30 16 38 9 10 8 16 -3 23 -18 11 -36 11 -43 0 -3 -5
-26 -6 -51 -3 -28 3 -50 0 -60 -8 -20 -16 -89 -15 -293 5 -49 5 -142 33 -142
43 0 4 55 41 123 84 118 74 280 191 362 262 l40 34 -29 8 c-16 4 -36 2 -45 -3
-10 -6 -64 -8 -137 -5 -75 3 -124 1 -127 -5 -8 -13 -57 -4 -57 9 0 6 12 8 28
5 53 -11 58 4 23 78 -27 58 -34 67 -52 62 -12 -3 -18 -2 -13 3 11 10 103 21
298 33 54 4 100 8 102 10 6 6 -52 111 -62 113 -5 1 -16 0 -24 -3z"/>
</g>
</svg>
