<?xml version="1.0" standalone="no"?>
<!DOCTYPE svg PUBLIC "-//W3C//DTD SVG 20010904//EN"
 "http://www.w3.org/TR/2001/REC-SVG-20010904/DTD/svg10.dtd">
<svg version="1.0" xmlns="http://www.w3.org/2000/svg"
 width="101.000000pt" height="101.000000pt" viewBox="0 0 101.000000 101.000000"
 preserveAspectRatio="xMidYMid meet">
<metadata>
Created by potrace 1.16, written by Peter Selinger 2001-2019
</metadata>
<g transform="translate(0.000000,101.000000) scale(0.100000,-0.100000)"
fill="#000000" stroke="none">
<path d="M408 993 c-20 -5 -25 -43 -7 -43 9 0 10 -24 5 -84 -3 -46 -8 -90 -11
-98 -4 -10 -29 -13 -98 -12 -50 0 -102 4 -114 8 -35 11 -61 -2 -68 -34 -10
-48 9 -70 60 -70 25 0 45 5 45 10 0 6 11 10 25 10 14 0 25 -5 25 -11 0 -7 19
-10 53 -7 l52 3 0 -55 c-1 -30 -4 -62 -8 -70 -4 -8 -14 -35 -22 -60 -25 -71
-60 -124 -120 -178 -49 -45 -146 -102 -174 -102 -19 0 -10 -14 35 -54 l44 -38
47 28 c68 39 172 148 210 219 51 97 91 218 97 290 1 18 8 20 83 21 l81 1 -9
-24 c-5 -13 -9 -38 -9 -56 0 -18 -2 -59 -6 -92 -28 -254 -29 -307 -7 -334 40
-49 137 -60 256 -30 33 9 42 17 62 62 44 97 43 100 -16 130 -30 14 -54 25 -56
23 -1 -1 -4 -11 -6 -22 -2 -10 -7 -26 -11 -35 -4 -9 -6 -20 -5 -25 6 -33 -19
-48 -79 -47 -40 1 -54 13 -53 44 1 45 12 164 21 244 5 44 12 106 14 138 3 31
8 62 11 68 4 5 4 20 1 33 -4 18 -13 23 -38 24 -17 0 -37 -2 -42 -6 -6 -4 -50
-7 -98 -7 l-87 0 4 84 c2 46 7 97 10 113 6 24 3 29 -20 38 -27 10 -47 11 -77
3z"/>
</g>
</svg>
