<?xml version="1.0" standalone="no"?>
<!DOCTYPE svg PUBLIC "-//W3C//DTD SVG 20010904//EN"
 "http://www.w3.org/TR/2001/REC-SVG-20010904/DTD/svg10.dtd">
<svg version="1.0" xmlns="http://www.w3.org/2000/svg"
 width="101.000000pt" height="101.000000pt" viewBox="0 0 101.000000 101.000000"
 preserveAspectRatio="xMidYMid meet">
<metadata>
Created by potrace 1.16, written by Peter Selinger 2001-2019
</metadata>
<g transform="translate(0.000000,101.000000) scale(0.100000,-0.100000)"
fill="#000000" stroke="none">
<path d="M280 932 c-39 -86 -98 -171 -176 -253 l-53 -55 49 -21 49 -21 54 66
c29 37 62 81 74 97 19 28 26 30 69 28 26 -2 52 1 59 7 15 13 167 11 183 -2 8
-7 44 -9 100 -5 48 3 95 1 104 -4 9 -5 37 -6 62 -3 50 7 62 24 51 73 l-6 29
-100 1 c-60 1 -99 -3 -99 -9 0 -6 -33 -10 -80 -10 -47 0 -80 4 -80 10 0 6 -18
10 -40 10 -22 0 -40 -4 -40 -10 0 -5 -25 -10 -55 -10 -30 0 -55 4 -55 8 0 15
59 92 70 92 6 0 10 4 10 9 0 7 -101 53 -113 51 -1 -1 -18 -35 -37 -78z"/>
<path d="M219 644 c-17 -45 -1 -80 36 -77 17 2 55 3 87 2 31 0 59 5 63 11 7
11 60 12 119 2 l39 -7 -84 -56 c-110 -73 -232 -172 -255 -206 -39 -58 -44 -78
-24 -111 28 -46 53 -55 152 -53 55 1 88 -2 88 -9 0 -6 28 -10 70 -10 40 0 70
4 70 10 0 6 20 10 45 10 27 0 45 -5 45 -11 0 -18 122 -5 159 17 19 11 41 39
56 69 37 77 36 82 -17 112 -27 15 -51 24 -54 20 -4 -3 -8 -21 -10 -39 -5 -43
-33 -80 -69 -90 -54 -14 -253 -22 -268 -10 -7 6 -42 11 -78 10 -103 -2 -110
10 -47 78 89 97 334 248 417 259 47 6 59 28 45 82 -6 21 -11 22 -73 18 -104
-7 -343 -7 -426 1 l-74 7 -12 -29z"/>
</g>
</svg>
