<?xml version="1.0" standalone="no"?>
<!DOCTYPE svg PUBLIC "-//W3C//DTD SVG 20010904//EN"
 "http://www.w3.org/TR/2001/REC-SVG-20010904/DTD/svg10.dtd">
<svg version="1.0" xmlns="http://www.w3.org/2000/svg"
 width="101.000000pt" height="101.000000pt" viewBox="0 0 101.000000 101.000000"
 preserveAspectRatio="xMidYMid meet">
<metadata>
Created by potrace 1.16, written by Peter Selinger 2001-2019
</metadata>
<g transform="translate(0.000000,101.000000) scale(0.100000,-0.100000)"
fill="#000000" stroke="none">
<path d="M817 964 c-4 -4 -39 -7 -77 -6 -43 2 -70 -1 -70 -8 0 -5 -11 -10 -25
-10 -14 0 -25 5 -25 10 0 6 -30 10 -70 10 -40 0 -70 -4 -70 -10 0 -6 -33 -10
-80 -10 -47 0 -80 4 -80 10 0 6 -18 10 -40 10 -22 0 -40 -5 -40 -11 0 -7 -21
-10 -60 -7 -55 3 -60 1 -65 -20 -12 -48 0 -59 65 -60 33 0 62 3 65 8 8 12 173
11 180 -1 8 -12 142 -12 150 1 8 14 52 13 61 -1 5 -8 29 -10 74 -6 l68 6 -19
-50 c-11 -28 -17 -54 -14 -58 4 -8 54 -22 83 -25 8 -1 21 22 31 52 10 28 17
52 15 52 -2 0 6 25 17 57 10 31 18 58 16 59 -8 8 -83 15 -90 8z"/>
<path d="M506 831 c-3 -5 -4 -84 -2 -175 l4 -166 -88 5 c-56 4 -91 2 -95 -5
-8 -13 -52 -13 -60 0 -4 6 -35 11 -68 11 -34 0 -75 0 -91 1 -15 0 -32 -5 -37
-13 -9 -13 -4 -74 7 -91 9 -14 72 -8 89 8 13 14 35 15 165 9 94 -5 150 -11
150 -18 0 -6 -22 -32 -49 -58 -63 -61 -174 -104 -258 -100 -17 1 -34 -3 -38
-9 -3 -6 -11 -8 -16 -5 -5 4 -18 3 -29 0 -20 -6 -20 -7 4 -36 14 -16 27 -38
31 -49 8 -25 13 -25 102 0 188 52 323 150 349 255 l7 27 141 -6 c77 -4 153 -9
167 -12 24 -5 27 -1 33 29 12 63 12 62 -168 62 -90 0 -163 2 -161 5 2 3 6 62
9 130 3 69 8 139 12 156 5 26 2 32 -21 42 -31 14 -81 16 -89 3z"/>
<path d="M268 799 c-13 -17 -21 -34 -20 -37 2 -4 41 -35 85 -69 l82 -62 34 36
34 36 -24 19 c-37 29 -156 108 -163 108 -3 0 -16 -14 -28 -31z"/>
<path d="M185 668 c-26 -31 -27 -33 -9 -45 11 -7 50 -36 88 -64 l69 -51 35 35
34 35 -58 39 c-33 22 -75 49 -95 61 l-37 22 -27 -32z"/>
<path d="M580 325 c-39 -40 -40 -37 40 -79 25 -13 83 -51 130 -85 l85 -61 32
38 c18 20 32 42 32 47 1 6 -23 26 -52 45 -57 37 -219 130 -228 130 -3 0 -21
-16 -39 -35z"/>
</g>
</svg>
