<?xml version="1.0" standalone="no"?>
<!DOCTYPE svg PUBLIC "-//W3C//DTD SVG 20010904//EN"
 "http://www.w3.org/TR/2001/REC-SVG-20010904/DTD/svg10.dtd">
<svg version="1.0" xmlns="http://www.w3.org/2000/svg"
 width="101.000000pt" height="101.000000pt" viewBox="0 0 101.000000 101.000000"
 preserveAspectRatio="xMidYMid meet">
<metadata>
Created by potrace 1.16, written by Peter Selinger 2001-2019
</metadata>
<g transform="translate(0.000000,101.000000) scale(0.100000,-0.100000)"
fill="#000000" stroke="none">
<path d="M617 882 c2 -189 3 -320 3 -537 0 -49 0 -112 0 -140 0 -57 23 -88 61
-85 13 0 72 2 130 3 71 2 112 7 123 16 15 13 54 118 45 123 -35 22 -92 49 -95
45 -3 -2 -7 -22 -9 -43 -6 -51 -38 -78 -80 -69 -16 3 -40 7 -53 8 -13 1 -27 9
-32 17 -13 25 -23 197 -11 204 13 8 14 213 1 221 -13 8 -13 52 0 60 6 4 10 52
9 123 -1 64 1 128 6 141 9 30 -7 41 -60 41 l-40 0 2 -128z"/>
<path d="M468 975 c-4 -5 -30 -9 -108 -20 -19 -2 -59 -4 -87 -4 -31 0 -53 -4
-53 -10 0 -6 -16 -11 -35 -11 -19 0 -35 5 -35 10 0 13 -87 13 -95 0 -3 -5 3
-27 15 -49 24 -47 48 -56 126 -47 54 6 54 6 54 -21 0 -16 3 -44 6 -64 l6 -37
-100 4 c-82 4 -103 2 -116 -11 -18 -19 -20 -34 -6 -69 7 -20 17 -26 39 -26 16
0 37 7 45 16 11 11 31 14 73 12 l57 -3 0 -61 1 -61 -60 4 c-33 2 -67 -1 -75
-6 -18 -12 -22 -90 -13 -273 6 -138 7 -140 70 -131 30 5 31 7 28 43 -3 33 -1
38 18 39 12 1 47 3 77 6 30 2 69 2 87 -1 31 -4 32 -6 27 -44 -4 -33 -2 -40 13
-42 37 -3 78 4 85 15 7 12 9 342 2 372 -4 18 -13 20 -82 20 l-78 0 1 64 0 63
85 -5 c47 -3 95 -8 107 -12 25 -8 38 20 28 63 l-6 27 -109 0 -110 0 4 69 3 69
34 2 c124 10 172 15 176 19 3 3 -8 26 -23 51 -19 30 -36 45 -50 45 -11 0 -23
-2 -26 -5z m-53 -614 l0 -89 -43 -7 c-24 -4 -49 -2 -55 3 -7 6 -36 9 -65 9
-59 -2 -57 -7 -46 101 l7 61 56 4 c31 2 76 4 101 5 l45 2 0 -89z"/>
</g>
</svg>
