<?xml version="1.0" standalone="no"?>
<!DOCTYPE svg PUBLIC "-//W3C//DTD SVG 20010904//EN"
 "http://www.w3.org/TR/2001/REC-SVG-20010904/DTD/svg10.dtd">
<svg version="1.0" xmlns="http://www.w3.org/2000/svg"
 width="101.000000pt" height="102.000000pt" viewBox="0 0 101.000000 102.000000"
 preserveAspectRatio="xMidYMid meet">
<metadata>
Created by potrace 1.16, written by Peter Selinger 2001-2019
</metadata>
<g transform="translate(0.000000,102.000000) scale(0.100000,-0.100000)"
fill="#000000" stroke="none">
<path d="M240 1010 c0 -5 5 -10 11 -10 6 0 9 -19 7 -46 l-3 -47 -80 -1 c-44
-1 -87 1 -96 5 -8 4 -20 5 -26 1 -15 -10 -25 -49 -18 -72 6 -19 13 -20 103
-17 l97 4 1 -37 2 -38 -62 5 c-33 2 -68 -1 -76 -6 -12 -9 -15 -40 -15 -180 0
-159 1 -170 19 -175 11 -3 28 0 38 5 11 6 36 8 57 4 34 -6 37 -9 38 -40 1 -31
-1 -34 -38 -40 -21 -4 -44 -3 -50 1 -7 4 -24 8 -38 9 -14 1 -30 3 -36 5 -40
10 -57 -14 -48 -64 5 -24 9 -26 48 -22 23 1 47 6 53 10 6 4 33 4 61 0 40 -5
49 -10 50 -28 5 -77 5 -94 -2 -117 -8 -31 7 -38 64 -31 l36 4 -9 45 c-7 31 -7
53 1 69 6 13 8 31 4 41 -5 13 -2 15 11 10 10 -4 27 -2 38 4 16 9 35 8 75 -1
30 -6 57 -9 60 -7 3 3 5 22 6 42 1 48 -16 58 -66 38 -31 -13 -46 -14 -69 -5
-16 6 -35 9 -43 6 -9 -4 -13 4 -12 29 1 38 0 38 105 38 l53 -1 -8 63 c-4 34
-7 78 -6 97 2 19 3 46 4 60 1 25 1 24 30 -10 l30 -35 19 25 c20 25 20 25 20 3
0 -22 17 -30 45 -23 6 2 19 4 30 5 11 1 33 5 48 10 50 14 47 -8 -15 -90 -97
-129 -163 -277 -149 -332 8 -31 66 -66 104 -64 12 1 72 3 134 5 95 2 116 5
134 22 23 20 58 89 59 114 0 9 -25 32 -55 52 -57 38 -61 36 -56 -17 5 -58 -68
-116 -127 -99 -15 4 -40 8 -55 10 -16 1 -33 6 -37 10 -13 13 79 198 134 271
26 34 62 71 80 83 34 20 48 54 39 91 -5 18 -11 19 -67 12 -61 -8 -95 -8 -151
0 -16 3 -38 5 -48 6 -16 1 -16 6 9 49 l26 47 72 2 c39 0 92 4 119 8 30 5 52 3
61 -4 30 -25 65 24 51 70 -8 25 -32 29 -151 26 -97 -3 -101 -2 -96 18 3 11 16
35 29 53 14 18 23 35 22 37 -5 4 -110 35 -120 35 -7 0 -18 -26 -25 -52 -1 -5
-3 -9 -4 -10 -1 -2 -4 -15 -6 -30 -3 -30 -72 -181 -97 -212 -14 -19 -15 -19
-21 11 -7 29 -10 32 -66 38 -32 4 -69 4 -81 0 -18 -6 -21 -4 -16 10 4 9 7 26
7 38 0 21 4 22 95 22 82 0 96 2 101 18 3 9 3 26 -1 36 -5 16 -19 20 -90 26
-46 4 -88 5 -93 1 -10 -6 -8 67 4 85 3 6 0 15 -7 20 -19 12 -109 11 -109 -1z
m155 -370 c0 -26 -4 -31 -30 -35 -16 -2 -55 -2 -85 0 -30 3 -64 5 -76 6 -14 1
-20 8 -20 23 1 18 9 22 61 27 33 3 80 6 105 7 44 2 45 1 45 -28z m-24 -96 c21
-4 25 -10 26 -39 1 -31 -2 -35 -30 -39 -18 -3 -57 -3 -87 -1 -30 3 -65 5 -76
6 -18 1 -22 7 -21 35 1 26 5 33 16 29 9 -2 23 0 31 5 15 9 97 12 141 4z"/>
</g>
</svg>
