<?xml version="1.0" standalone="no"?>
<!DOCTYPE svg PUBLIC "-//W3C//DTD SVG 20010904//EN"
 "http://www.w3.org/TR/2001/REC-SVG-20010904/DTD/svg10.dtd">
<svg version="1.0" xmlns="http://www.w3.org/2000/svg"
 width="101.000000pt" height="101.000000pt" viewBox="0 0 101.000000 101.000000"
 preserveAspectRatio="xMidYMid meet">
<metadata>
Created by potrace 1.16, written by Peter Selinger 2001-2019
</metadata>
<g transform="translate(0.000000,101.000000) scale(0.100000,-0.100000)"
fill="#000000" stroke="none">
<path d="M116 928 c-14 -55 9 -95 48 -83 12 4 44 6 73 6 29 0 55 4 58 9 8 13
167 11 183 -2 8 -7 48 -9 117 -4 58 4 105 5 105 2 0 -3 -157 -109 -222 -150
-24 -14 -28 -23 -28 -61 0 -25 5 -45 10 -45 6 0 10 -16 10 -35 0 -19 -5 -35
-11 -35 -7 0 -9 -47 -7 -147 3 -141 2 -148 -16 -145 -11 2 -34 1 -53 -3 l-34
-6 19 -27 c11 -15 22 -37 26 -49 9 -30 27 -34 77 -17 72 25 86 45 95 132 4 50
3 81 -5 94 -14 22 -14 55 -1 63 6 4 9 50 8 118 l-3 112 50 38 c70 54 170 111
233 133 57 20 67 37 58 87 l-6 32 -110 2 c-64 1 -110 -2 -110 -7 0 -6 -11 -10
-25 -10 -14 0 -25 5 -25 10 0 6 -30 10 -70 10 -40 0 -70 -4 -70 -10 0 -6 -33
-10 -80 -10 -47 0 -80 4 -80 10 0 6 -18 10 -40 10 -22 0 -40 -4 -40 -10 0 -5
-25 -10 -55 -10 -30 0 -55 5 -55 10 0 19 -18 10 -24 -12z"/>
</g>
</svg>
