<?xml version="1.0" standalone="no"?>
<!DOCTYPE svg PUBLIC "-//W3C//DTD SVG 20010904//EN"
 "http://www.w3.org/TR/2001/REC-SVG-20010904/DTD/svg10.dtd">
<svg version="1.0" xmlns="http://www.w3.org/2000/svg"
 width="101.000000pt" height="101.000000pt" viewBox="0 0 101.000000 101.000000"
 preserveAspectRatio="xMidYMid meet">
<metadata>
Created by potrace 1.16, written by Peter Selinger 2001-2019
</metadata>
<g transform="translate(0.000000,101.000000) scale(0.100000,-0.100000)"
fill="#000000" stroke="none">
<path d="M145 861 c-8 -38 3 -79 23 -85 31 -8 91 -5 97 4 8 12 173 12 180 -1
8 -12 142 -12 150 1 8 13 48 13 62 -1 8 -8 38 -9 97 -4 94 7 104 16 92 79 -6
31 -7 31 -71 34 -41 2 -65 -1 -65 -7 0 -6 -11 -11 -25 -11 -14 0 -25 5 -25 10
0 6 -30 10 -70 10 -40 0 -70 -4 -70 -10 0 -6 -33 -10 -80 -10 -47 0 -80 4 -80
10 0 6 -18 10 -40 10 -22 0 -40 -4 -40 -10 0 -5 -25 -10 -55 -10 -30 0 -55 5
-55 10 0 22 -19 8 -25 -19z"/>
<path d="M46 314 c-3 -8 -3 -33 0 -54 7 -45 23 -51 119 -45 33 2 98 6 145 9
103 6 125 6 315 -1 248 -8 306 -7 316 8 11 17 11 70 1 85 -9 15 -172 19 -172
4 0 -6 -28 -10 -70 -10 -40 0 -70 4 -70 10 0 6 -40 10 -100 10 -60 0 -100 -4
-100 -10 0 -5 -11 -10 -25 -10 -14 0 -25 5 -25 10 0 6 -30 10 -70 10 -40 0
-70 -4 -70 -10 0 -5 -16 -10 -35 -10 -19 0 -35 5 -35 10 0 6 -26 10 -59 10
-44 0 -60 -4 -65 -16z"/>
</g>
</svg>
