<?xml version="1.0" standalone="no"?>
<!DOCTYPE svg PUBLIC "-//W3C//DTD SVG 20010904//EN"
 "http://www.w3.org/TR/2001/REC-SVG-20010904/DTD/svg10.dtd">
<svg version="1.0" xmlns="http://www.w3.org/2000/svg"
 width="101.000000pt" height="102.000000pt" viewBox="0 0 101.000000 102.000000"
 preserveAspectRatio="xMidYMid meet">
<metadata>
Created by potrace 1.16, written by Peter Selinger 2001-2019
</metadata>
<g transform="translate(0.000000,102.000000) scale(0.100000,-0.100000)"
fill="#000000" stroke="none">
<path d="M445 978 l0 -42 -46 3 c-26 1 -50 -2 -53 -8 -8 -12 -173 -14 -181 -1
-7 11 -85 11 -108 -1 -17 -10 -23 -54 -9 -75 4 -8 38 -10 97 -8 105 4 148 4
230 1 53 -2 60 -4 60 -22 0 -18 -5 -20 -57 -17 -37 3 -58 0 -58 -7 0 -6 -11
-11 -25 -11 -14 0 -25 5 -25 10 0 6 -20 10 -45 10 -33 0 -47 -5 -54 -19 -11
-20 -11 -175 0 -186 8 -8 20 -8 150 -1 l107 6 4 -25 c3 -13 3 -27 0 -30 -11
-11 -110 -5 -116 8 -5 10 -7 10 -12 0 -7 -15 -74 -18 -74 -3 0 6 -18 10 -40
10 -29 0 -42 -5 -50 -20 -22 -41 18 -82 59 -61 20 10 129 13 192 5 41 -5 47
-8 45 -29 -1 -22 -5 -23 -116 -28 -63 -3 -137 -4 -165 -2 -75 7 -96 7 -99 4
-10 -12 -14 -46 -7 -57 9 -14 18 -15 106 -7 28 2 102 1 166 -2 114 -6 117 -6
115 -29 -1 -21 -7 -23 -71 -28 -38 -4 -97 -4 -130 -1 -82 7 -106 8 -109 4 -10
-12 -14 -46 -7 -57 9 -15 19 -15 116 -7 33 3 92 3 131 -1 l71 -5 -1 -37 c-1
-40 0 -40 -88 -29 -33 4 -32 5 -13 -33 8 -16 15 -33 14 -37 -6 -37 23 -46 93
-28 76 21 85 34 89 141 1 15 8 22 23 23 11 1 46 3 76 6 79 6 120 -2 120 -24 0
-21 26 -31 64 -24 23 5 25 9 25 57 0 113 -6 105 78 108 34 1 45 14 37 46 -4
12 -15 19 -32 20 -90 4 -107 16 -83 60 5 10 8 28 5 39 -5 19 -19 22 -91 22
-42 0 -118 1 -168 4 -43 2 -50 5 -50 22 0 19 7 20 137 20 l137 0 5 70 c10 122
9 123 -38 130 -22 3 -86 4 -141 2 -95 -2 -100 -1 -100 18 0 19 6 20 208 20
192 0 208 1 213 18 11 35 -4 64 -37 71 -48 9 -147 7 -154 -3 -8 -13 -166 -13
-182 1 -7 6 -21 8 -32 5 -15 -4 -18 0 -17 18 2 12 6 28 11 35 11 18 -13 30
-60 30 l-40 0 0 -42z m5 -273 c0 -34 -12 -38 -101 -30 -72 6 -79 9 -79 29 0
20 5 21 90 23 89 2 90 1 90 -22z m276 -5 l-1 -30 -96 3 c-92 2 -95 3 -91 24 5
24 13 27 118 31 l71 3 -1 -31z m-5 -206 c21 -4 27 -11 25 -30 -1 -29 -31 -36
-116 -29 -30 3 -64 5 -75 6 -14 1 -20 9 -21 26 -2 18 2 22 15 19 9 -3 23 -1
31 4 15 9 97 12 141 4z m0 -120 c21 -4 27 -11 25 -30 -1 -29 -31 -36 -116 -29
-30 3 -64 5 -75 6 -14 1 -20 9 -21 26 -2 18 2 22 15 19 9 -3 23 -1 31 4 15 9
97 12 141 4z"/>
</g>
</svg>
