<?xml version="1.0" standalone="no"?>
<!DOCTYPE svg PUBLIC "-//W3C//DTD SVG 20010904//EN"
 "http://www.w3.org/TR/2001/REC-SVG-20010904/DTD/svg10.dtd">
<svg version="1.0" xmlns="http://www.w3.org/2000/svg"
 width="101.000000pt" height="101.000000pt" viewBox="0 0 101.000000 101.000000"
 preserveAspectRatio="xMidYMid meet">
<metadata>
Created by potrace 1.16, written by Peter Selinger 2001-2019
</metadata>
<g transform="translate(0.000000,101.000000) scale(0.100000,-0.100000)"
fill="#000000" stroke="none">
<path d="M110 942 c-17 -8 -22 -83 -6 -94 14 -10 95 -8 102 3 7 12 91 12 98 0
12 -18 8 -64 -11 -151 -3 -14 -6 -43 -7 -66 0 -22 -6 -47 -12 -55 -6 -8 -11
-23 -12 -34 -2 -23 -10 -60 -13 -60 -1 0 -3 -10 -4 -21 -1 -12 -5 -33 -9 -47
-4 -19 -2 -27 12 -31 26 -9 102 -4 108 6 6 9 26 9 181 1 l101 -5 -4 -52 c-2
-28 -5 -56 -6 -62 -2 -16 -171 -29 -196 -15 -10 5 -43 7 -73 4 -48 -4 -217 -6
-277 -2 -31 2 -36 -5 -35 -47 1 -42 5 -46 35 -45 23 2 170 2 283 2 33 -1 102
1 154 4 55 2 102 0 113 -6 13 -7 71 -8 168 -3 147 7 148 7 153 31 10 55 3 59
-96 61 -140 1 -135 0 -131 36 4 38 10 81 24 164 5 35 8 68 5 73 -3 5 -2 17 4
27 5 10 12 52 16 93 l6 74 -126 3 c-81 2 -125 -1 -125 -8 0 -5 -11 -10 -25
-10 -14 0 -25 4 -25 9 0 6 -19 11 -42 13 -32 2 -42 7 -39 18 5 23 12 63 14 81
1 10 8 14 19 11 10 -2 24 1 31 6 17 14 168 14 185 0 17 -15 234 -1 245 15 7
11 2 65 -7 74 -3 3 -187 5 -351 3 -55 0 -128 -1 -162 -1 -35 0 -91 0 -125 -1
-35 0 -76 2 -93 5 -16 4 -37 3 -45 -1z m551 -331 c1 -14 0 -30 -2 -36 -2 -9
-5 -32 -8 -92 -1 -16 -118 -28 -135 -14 -8 7 -45 10 -94 9 -48 -2 -78 1 -74 6
3 5 7 21 8 35 2 14 6 40 9 56 3 17 7 37 8 45 1 12 25 15 144 16 l143 2 1 -27z"/>
</g>
</svg>
