<?xml version="1.0" standalone="no"?>
<!DOCTYPE svg PUBLIC "-//W3C//DTD SVG 20010904//EN"
 "http://www.w3.org/TR/2001/REC-SVG-20010904/DTD/svg10.dtd">
<svg version="1.0" xmlns="http://www.w3.org/2000/svg"
 width="101.000000pt" height="101.000000pt" viewBox="0 0 101.000000 101.000000"
 preserveAspectRatio="xMidYMid meet">
<metadata>
Created by potrace 1.16, written by Peter Selinger 2001-2019
</metadata>
<g transform="translate(0.000000,101.000000) scale(0.100000,-0.100000)"
fill="#000000" stroke="none">
<path d="M95 906 c0 -52 1 -53 30 -54 16 0 35 4 42 10 8 6 43 7 95 3 l83 -7 2
-81 c2 -105 2 -132 1 -274 0 -65 2 -130 7 -145 4 -15 4 -48 1 -72 l-7 -43
-113 3 c-62 1 -125 6 -140 10 -16 4 -32 1 -41 -6 -16 -13 -20 -76 -7 -96 5 -9
69 -11 227 -8 218 3 257 4 355 4 28 0 70 0 95 1 25 0 54 0 65 0 11 0 35 1 53
2 17 1 51 -2 74 -7 37 -7 42 -5 48 14 4 12 4 36 1 53 l-6 32 -160 0 -159 0 5
112 c3 66 1 114 -5 117 -12 8 -13 146 -1 161 6 7 9 58 8 116 l-3 104 126 -1
127 -2 6 38 c10 66 12 65 -152 63 -258 -4 -343 -4 -502 1 l-155 5 0 -53z m452
-208 c2 -90 3 -203 3 -253 0 -49 0 -115 0 -146 l1 -57 -48 6 c-26 2 -49 6 -51
7 -2 2 -4 24 -4 49 0 25 -4 48 -9 52 -12 7 -12 51 1 59 12 7 12 153 0 160 -12
8 -11 147 1 161 6 8 9 36 7 63 l-3 50 45 4 c25 2 47 4 50 5 3 1 6 -71 7 -160z"/>
<path d="M795 748 c-2 -7 -16 -49 -31 -93 -14 -44 -43 -116 -62 -159 -22 -48
-32 -81 -26 -83 6 -2 28 -12 48 -22 l37 -19 23 47 c27 51 116 270 116 283 0 4
-23 19 -50 33 -37 19 -52 22 -55 13z"/>
<path d="M116 724 c-19 -13 -19 -16 8 -93 15 -43 29 -85 30 -92 1 -8 6 -25 11
-39 4 -14 9 -32 10 -40 3 -34 18 -70 27 -70 27 0 88 24 88 35 0 6 -6 33 -14
58 -8 26 -13 47 -11 47 1 0 -14 46 -34 103 -35 98 -37 102 -66 104 -17 0 -39
-5 -49 -13z"/>
</g>
</svg>
