<?xml version="1.0" standalone="no"?>
<!DOCTYPE svg PUBLIC "-//W3C//DTD SVG 20010904//EN"
 "http://www.w3.org/TR/2001/REC-SVG-20010904/DTD/svg10.dtd">
<svg version="1.0" xmlns="http://www.w3.org/2000/svg"
 width="101.000000pt" height="102.000000pt" viewBox="0 0 101.000000 102.000000"
 preserveAspectRatio="xMidYMid meet">
<metadata>
Created by potrace 1.16, written by Peter Selinger 2001-2019
</metadata>
<g transform="translate(0.000000,102.000000) scale(0.100000,-0.100000)"
fill="#000000" stroke="none">
<path d="M474 1007 c-16 -6 -30 -11 -32 -12 -2 -2 6 -21 17 -44 12 -22 21 -42
21 -43 0 -2 -29 -1 -65 0 -36 2 -71 -1 -78 -6 -16 -13 -174 -15 -182 -2 -9 15
-64 8 -70 -8 -11 -29 6 -80 28 -86 37 -10 135 -7 161 5 26 12 76 5 76 -11 0
-5 -9 -12 -20 -15 -21 -7 -21 -7 -1 -38 11 -18 25 -45 31 -61 l10 -28 -94 7
c-119 9 -118 11 -111 -154 4 -70 2 -127 -4 -138 -5 -10 -21 -43 -34 -74 -14
-31 -45 -78 -71 -104 -25 -27 -46 -50 -46 -51 0 -2 20 -15 45 -30 54 -31 59
-29 116 59 57 88 90 200 82 276 -4 43 -2 61 6 61 6 0 11 11 11 25 0 26 8 29
76 25 18 -1 35 3 39 9 8 14 152 14 160 1 8 -13 142 -13 150 0 5 7 43 9 115 4
103 -6 108 -6 114 14 4 11 4 32 1 45 -6 24 -12 26 -88 31 -45 3 -98 5 -118 3
l-37 -2 18 25 c10 14 27 34 39 44 27 25 27 32 -6 50 l-28 15 25 2 c14 1 32 1
40 0 8 -1 52 1 98 5 76 5 83 8 88 30 3 13 4 34 1 47 -6 21 -12 22 -107 25 -66
2 -100 0 -100 -7 0 -6 -16 -11 -35 -11 -19 0 -35 5 -35 10 0 6 -22 10 -48 10
l-49 0 -12 55 c-12 52 -14 55 -40 53 -16 -1 -41 -6 -57 -11z m168 -235 c-9
-20 -27 -54 -39 -74 -22 -36 -23 -36 -82 -35 -32 1 -58 4 -56 5 2 2 -9 32 -25
67 l-29 64 22 3 c12 2 68 4 124 5 l102 2 -17 -37z"/>
</g>
</svg>
