<?xml version="1.0" standalone="no"?>
<!DOCTYPE svg PUBLIC "-//W3C//DTD SVG 20010904//EN"
 "http://www.w3.org/TR/2001/REC-SVG-20010904/DTD/svg10.dtd">
<svg version="1.0" xmlns="http://www.w3.org/2000/svg"
 width="101.000000pt" height="101.000000pt" viewBox="0 0 101.000000 101.000000"
 preserveAspectRatio="xMidYMid meet">
<metadata>
Created by potrace 1.16, written by Peter Selinger 2001-2019
</metadata>
<g transform="translate(0.000000,101.000000) scale(0.100000,-0.100000)"
fill="#000000" stroke="none">
<path d="M453 993 c-13 -2 -23 -5 -23 -6 0 -1 11 -33 25 -72 l24 -70 -47 -8
c-26 -5 -63 -8 -82 -7 -127 4 -209 9 -236 15 -38 8 -64 -14 -64 -53 0 -50 6
-52 156 -49 l139 3 -2 -115 c-1 -64 -4 -124 -8 -134 -4 -9 -5 -26 -2 -37 3
-11 1 -22 -4 -25 -5 -4 -8 -16 -7 -28 5 -61 -72 -149 -171 -196 l-57 -27 42
-41 43 -41 69 48 c81 57 117 97 149 167 32 70 36 86 37 168 1 39 5 77 9 85 3
8 6 51 4 95 l-2 80 60 0 60 0 -3 -77 c-2 -46 1 -79 7 -83 13 -8 15 -52 2 -59
-12 -8 -13 -114 -1 -121 13 -8 13 -141 0 -165 -6 -12 -17 -16 -30 -13 -11 3
-35 2 -53 -1 l-33 -6 25 -55 c24 -53 26 -54 62 -51 20 2 54 12 75 22 l39 19
-3 138 c-2 85 0 143 7 150 12 15 13 115 0 123 -13 7 -11 48 2 61 6 6 10 33 8
62 l-4 51 43 0 c23 0 42 5 42 10 0 6 11 10 25 10 14 0 25 -5 25 -10 0 -6 28
-10 70 -9 77 2 88 11 75 69 -7 34 -46 50 -70 30 -10 -8 -54 -12 -127 -12 -127
-1 -208 10 -187 23 11 6 10 17 -5 61 -33 93 -34 94 -103 81z m72 -153 c-3 -5
-12 -10 -18 -10 -7 0 -6 4 3 10 19 12 23 12 15 0z"/>
<path d="M189 638 c-1 -2 -3 -13 -4 -26 -4 -35 -34 -101 -83 -175 -24 -37 -43
-70 -41 -71 7 -7 81 -36 91 -36 5 0 35 54 67 120 32 66 64 126 70 134 7 8 10
20 6 25 -8 14 -101 39 -106 29z"/>
<path d="M738 614 c-16 -8 -28 -18 -28 -23 0 -4 20 -43 45 -87 25 -43 55 -105
66 -136 l21 -57 49 25 c27 13 49 28 49 33 0 10 -102 191 -132 234 -22 31 -32
32 -70 11z"/>
</g>
</svg>
