<?xml version="1.0" standalone="no"?>
<!DOCTYPE svg PUBLIC "-//W3C//DTD SVG 20010904//EN"
 "http://www.w3.org/TR/2001/REC-SVG-20010904/DTD/svg10.dtd">
<svg version="1.0" xmlns="http://www.w3.org/2000/svg"
 width="101.000000pt" height="101.000000pt" viewBox="0 0 101.000000 101.000000"
 preserveAspectRatio="xMidYMid meet">
<metadata>
Created by potrace 1.16, written by Peter Selinger 2001-2019
</metadata>
<g transform="translate(0.000000,101.000000) scale(0.100000,-0.100000)"
fill="#000000" stroke="none">
<path d="M428 1003 c-22 -5 -22 -1 3 -58 11 -25 18 -49 14 -53 -12 -12 -195
-15 -195 -3 0 6 -17 11 -40 11 -22 0 -40 -5 -40 -11 0 -7 -21 -10 -60 -7 -54
3 -61 1 -66 -17 -3 -12 0 -33 5 -48 9 -24 16 -27 56 -27 25 0 45 5 45 10 0 6
16 10 35 10 19 0 35 -4 35 -10 0 -6 30 -10 70 -10 40 0 70 4 70 10 0 6 11 10
25 10 14 0 25 -4 25 -10 0 -6 40 -10 100 -10 60 0 100 4 100 10 0 6 30 10 70
10 40 0 70 -4 70 -10 0 -11 94 -13 152 -4 28 5 38 12 43 31 3 14 3 32 1 41 -6
18 -10 19 -253 24 l-133 3 -18 55 c-18 54 -20 55 -58 56 -21 1 -47 -1 -56 -3z"/>
<path d="M203 732 c-20 -14 -25 -56 -18 -172 l7 -118 129 2 129 1 0 -27 c0
-16 5 -28 11 -28 13 0 9 -163 -4 -176 -4 -4 -27 -7 -51 -5 -25 1 -47 -2 -50
-7 -5 -9 43 -112 53 -112 22 0 115 42 127 57 12 15 13 45 8 159 l-6 141 65 -4
c39 -3 68 0 72 6 8 15 68 14 100 -1 34 -15 48 3 40 52 -5 31 -6 89 -3 187 1
18 -1 35 -4 38 -11 12 -305 17 -312 6 -9 -14 -53 -14 -61 -1 -7 11 -215 13
-232 2z m463 -79 l42 -5 4 -56 c4 -36 1 -60 -6 -64 -16 -11 -74 -10 -81 2 -7
12 -113 11 -121 -1 -7 -13 -51 -11 -59 2 -4 6 -37 9 -83 7 l-77 -3 0 55 0 55
107 -3 c67 -1 109 2 113 8 7 11 86 13 161 3z"/>
<path d="M222 348 c-28 -29 -79 -71 -111 -93 -33 -22 -60 -42 -60 -45 0 -3 18
-18 40 -33 41 -28 42 -28 63 -10 145 129 198 173 206 173 6 0 10 5 10 10 0 13
-60 50 -80 50 -9 0 -39 -24 -68 -52z"/>
<path d="M667 374 c-20 -14 -37 -26 -37 -28 0 -2 30 -27 68 -54 37 -28 83 -67
101 -86 19 -20 40 -36 45 -36 6 1 29 16 50 34 l39 34 -86 63 c-140 104 -137
103 -180 73z"/>
</g>
</svg>
