<?xml version="1.0" standalone="no"?>
<!DOCTYPE svg PUBLIC "-//W3C//DTD SVG 20010904//EN"
 "http://www.w3.org/TR/2001/REC-SVG-20010904/DTD/svg10.dtd">
<svg version="1.0" xmlns="http://www.w3.org/2000/svg"
 width="101.000000pt" height="101.000000pt" viewBox="0 0 101.000000 101.000000"
 preserveAspectRatio="xMidYMid meet">
<metadata>
Created by potrace 1.16, written by Peter Selinger 2001-2019
</metadata>
<g transform="translate(0.000000,101.000000) scale(0.100000,-0.100000)"
fill="#000000" stroke="none">
<path d="M463 1000 c-21 -9 -22 -11 -8 -44 8 -20 15 -37 15 -38 0 -2 -20 -2
-45 0 -25 2 -51 -1 -58 -6 -15 -13 -174 -15 -182 -3 -3 5 -25 9 -50 9 -49 0
-61 -15 -50 -61 7 -24 8 -25 98 -21 51 2 109 3 130 3 88 0 288 1 367 1 105 1
183 -4 197 -13 27 -17 56 49 35 79 -10 14 -182 19 -182 5 0 -6 -16 -11 -35
-11 -19 0 -35 5 -35 10 0 6 -20 10 -44 10 -43 0 -44 0 -55 43 -10 40 -13 44
-43 45 -18 0 -43 -4 -55 -8z"/>
<path d="M242 801 c-9 -6 -13 -28 -11 -73 1 -36 -1 -70 -5 -77 -14 -23 3 -59
31 -66 36 -9 293 5 293 16 0 5 20 9 45 9 25 0 45 -5 45 -10 0 -6 28 -10 69 -9
l68 1 -2 77 c-1 42 2 84 7 93 15 31 -17 48 -88 47 -35 -1 -66 -5 -69 -9 -7
-12 -153 -12 -160 0 -7 11 -205 12 -223 1z m443 -101 l0 -38 -65 -6 c-97 -9
-168 -7 -175 4 -4 6 -32 9 -63 8 l-57 -3 0 35 0 35 180 2 181 1 -1 -38z"/>
<path d="M94 548 c-10 -16 7 -162 20 -170 32 -21 107 7 90 33 -3 5 -7 22 -9
37 l-3 27 201 2 c270 3 294 3 350 0 47 -2 47 -2 47 -37 0 -52 12 -65 61 -63
23 1 43 4 46 7 7 6 9 163 3 169 -3 3 -43 1 -90 -5 -59 -7 -90 -7 -101 1 -23
13 -606 13 -615 -1z"/>
<path d="M328 423 c0 -5 -2 -21 -3 -38 -9 -120 -45 -167 -137 -179 -18 -3 -43
-8 -55 -13 l-22 -8 27 -42 c15 -23 33 -42 40 -43 24 0 147 61 174 87 33 31 53
82 56 142 2 17 6 21 18 17 8 -3 24 -1 35 5 11 6 39 7 63 4 49 -8 46 1 49 -125
2 -71 3 -75 31 -88 16 -8 38 -14 50 -13 11 0 57 2 101 4 44 1 86 6 94 11 14 9
61 103 61 124 0 6 -6 12 -13 12 -7 0 -29 11 -50 25 -24 17 -37 21 -38 13 -4
-80 -29 -108 -89 -99 -8 1 -23 2 -32 2 -10 0 -20 5 -24 10 -11 18 -12 84 -2
103 5 10 7 32 4 50 l-6 31 -76 -3 c-57 -3 -79 -1 -86 9 -7 11 -11 11 -15 2 -6
-15 -73 -18 -73 -3 0 11 -79 14 -82 3z"/>
</g>
</svg>
