<?xml version="1.0" standalone="no"?>
<!DOCTYPE svg PUBLIC "-//W3C//DTD SVG 20010904//EN"
 "http://www.w3.org/TR/2001/REC-SVG-20010904/DTD/svg10.dtd">
<svg version="1.0" xmlns="http://www.w3.org/2000/svg"
 width="101.000000pt" height="101.000000pt" viewBox="0 0 101.000000 101.000000"
 preserveAspectRatio="xMidYMid meet">
<metadata>
Created by potrace 1.16, written by Peter Selinger 2001-2019
</metadata>
<g transform="translate(0.000000,101.000000) scale(0.100000,-0.100000)"
fill="#000000" stroke="none">
<path d="M542 958 c-52 -93 -120 -174 -243 -292 -116 -111 -119 -115 -97 -127
13 -6 32 -20 43 -30 21 -18 22 -18 105 66 47 47 88 85 92 85 5 0 8 -25 8 -55
0 -30 -4 -55 -10 -55 -5 0 -10 -18 -10 -40 0 -22 5 -40 10 -40 6 0 10 -33 10
-80 0 -49 -4 -80 -10 -80 -6 0 -11 -20 -10 -47 0 -27 -2 -69 -6 -94 -8 -60 12
-84 65 -74 20 4 38 9 41 11 2 3 3 33 2 67 -1 62 -3 206 -3 325 0 34 0 90 0
125 0 132 5 150 53 213 25 32 58 70 72 83 14 14 26 30 26 36 0 13 -71 55 -93
55 -8 0 -28 -24 -45 -52z"/>
</g>
</svg>
