<?xml version="1.0" standalone="no"?>
<!DOCTYPE svg PUBLIC "-//W3C//DTD SVG 20010904//EN"
 "http://www.w3.org/TR/2001/REC-SVG-20010904/DTD/svg10.dtd">
<svg version="1.0" xmlns="http://www.w3.org/2000/svg"
 width="101.000000pt" height="101.000000pt" viewBox="0 0 101.000000 101.000000"
 preserveAspectRatio="xMidYMid meet">
<metadata>
Created by potrace 1.16, written by Peter Selinger 2001-2019
</metadata>
<g transform="translate(0.000000,101.000000) scale(0.100000,-0.100000)"
fill="#000000" stroke="none">
<path d="M431 893 c-1 -116 -5 -184 -15 -233 -3 -14 -8 -38 -11 -53 -31 -150
-162 -322 -309 -407 l-57 -32 53 -38 53 -38 30 21 c61 42 193 185 233 252 22
39 51 101 63 138 12 37 25 64 29 60 5 -4 19 -36 33 -71 14 -34 40 -88 58 -118
40 -65 166 -190 232 -228 l46 -27 50 52 c28 29 50 53 48 54 -1 1 -22 10 -47
20 -74 31 -177 103 -225 158 -77 88 -139 226 -137 304 1 17 -5 37 -13 43 -17
14 -20 66 -5 75 5 3 8 29 8 58 -1 29 4 62 11 75 17 31 7 42 -34 35 -23 -4 -35
-2 -35 6 0 6 -13 11 -30 11 l-29 0 0 -117z"/>
</g>
</svg>
