<?xml version="1.0" standalone="no"?>
<!DOCTYPE svg PUBLIC "-//W3C//DTD SVG 20010904//EN"
 "http://www.w3.org/TR/2001/REC-SVG-20010904/DTD/svg10.dtd">
<svg version="1.0" xmlns="http://www.w3.org/2000/svg"
 width="101.000000pt" height="101.000000pt" viewBox="0 0 101.000000 101.000000"
 preserveAspectRatio="xMidYMid meet">
<metadata>
Created by potrace 1.16, written by Peter Selinger 2001-2019
</metadata>
<g transform="translate(0.000000,101.000000) scale(0.100000,-0.100000)"
fill="#000000" stroke="none">
<path d="M245 915 c-31 -95 -94 -212 -161 -297 l-45 -57 28 -40 c16 -22 30
-40 33 -41 3 0 23 28 45 62 l40 63 3 -45 c2 -25 7 -50 12 -56 12 -14 11 -152
-1 -159 -5 -3 -7 -57 -6 -120 l2 -115 32 -6 c67 -13 68 -10 70 151 1 79 -2
147 -7 150 -12 7 -12 153 0 160 6 4 9 54 9 118 -2 122 9 157 67 226 31 38 28
44 -43 71 l-50 19 -28 -84z"/>
<path d="M791 889 c-32 -13 -237 -23 -259 -13 -9 5 -45 9 -79 9 -70 0 -77 -7
-67 -61 6 -32 19 -41 49 -34 6 1 64 3 130 3 l120 2 -63 -85 c-83 -111 -189
-288 -224 -372 -25 -62 -26 -71 -13 -101 7 -18 22 -39 32 -48 28 -23 72 -43
80 -36 3 4 12 2 20 -5 18 -14 224 -3 234 13 4 8 25 10 57 7 63 -6 77 2 105 60
35 70 31 87 -27 116 -56 28 -68 26 -66 -12 1 -15 2 -35 1 -45 -2 -35 -148 -76
-166 -47 -3 5 -39 9 -80 8 -42 -1 -78 2 -82 6 -11 11 -11 49 1 76 20 47 178
304 222 362 49 63 108 113 123 104 16 -10 41 23 41 54 0 44 -37 60 -89 39z"/>
</g>
</svg>
