<?xml version="1.0" standalone="no"?>
<!DOCTYPE svg PUBLIC "-//W3C//DTD SVG 20010904//EN"
 "http://www.w3.org/TR/2001/REC-SVG-20010904/DTD/svg10.dtd">
<svg version="1.0" xmlns="http://www.w3.org/2000/svg"
 width="101.000000pt" height="101.000000pt" viewBox="0 0 101.000000 101.000000"
 preserveAspectRatio="xMidYMid meet">
<metadata>
Created by potrace 1.16, written by Peter Selinger 2001-2019
</metadata>
<g transform="translate(0.000000,101.000000) scale(0.100000,-0.100000)"
fill="#000000" stroke="none">
<path d="M221 938 c-31 -98 -89 -221 -145 -308 l-46 -71 31 -39 c18 -22 36
-37 41 -34 4 3 22 29 38 57 l30 52 0 -142 c0 -96 4 -143 11 -143 7 0 8 -30 4
-99 l-7 -98 27 -7 c15 -4 35 -4 46 -1 20 7 35 47 24 64 -14 24 9 9 40 -25 l33
-36 60 32 c32 17 89 55 127 85 l67 54 77 -53 c91 -64 181 -111 190 -99 65 79
81 104 69 107 -103 30 -188 69 -242 111 -19 14 -18 15 6 52 48 73 120 247 134
323 3 14 8 34 11 45 12 35 15 49 20 87 4 33 2 38 -20 43 -14 4 -31 4 -38 0 -6
-4 -46 -7 -89 -6 -43 1 -81 -3 -84 -8 -8 -12 -173 -14 -181 -1 -10 15 -93 10
-99 -7 -11 -29 5 -81 26 -86 11 -3 17 -10 14 -16 -10 -15 78 -273 119 -349
l36 -67 -38 -33 c-75 -64 -207 -128 -232 -112 -8 5 -10 19 -6 42 4 22 3 38 -4
42 -14 9 -14 53 -1 61 12 7 12 153 0 160 -12 7 -11 153 1 160 5 4 9 32 8 63
-2 60 29 145 71 199 25 32 20 40 -33 53 -23 6 -49 13 -58 16 -11 3 -21 -14
-38 -68z m523 -168 c-3 -14 -7 -32 -8 -40 -1 -9 -6 -21 -10 -28 -4 -7 -6 -16
-3 -19 12 -11 -92 -253 -108 -253 -8 0 -52 92 -78 166 -25 71 -39 124 -38 156
0 10 -5 20 -10 23 -24 15 8 20 130 20 l130 0 -5 -25z"/>
</g>
</svg>
