<?xml version="1.0" standalone="no"?>
<!DOCTYPE svg PUBLIC "-//W3C//DTD SVG 20010904//EN"
 "http://www.w3.org/TR/2001/REC-SVG-20010904/DTD/svg10.dtd">
<svg version="1.0" xmlns="http://www.w3.org/2000/svg"
 width="101.000000pt" height="102.000000pt" viewBox="0 0 101.000000 102.000000"
 preserveAspectRatio="xMidYMid meet">
<metadata>
Created by potrace 1.16, written by Peter Selinger 2001-2019
</metadata>
<g transform="translate(0.000000,102.000000) scale(0.100000,-0.100000)"
fill="#000000" stroke="none">
<path d="M407 931 c-98 -132 -216 -231 -335 -285 -23 -10 -42 -22 -42 -26 0
-4 18 -26 40 -48 l40 -40 38 25 c20 14 48 34 61 44 31 24 40 24 34 -1 -3 -11
0 -26 5 -33 14 -17 14 -168 0 -185 -13 -15 -3 -204 12 -233 6 -10 25 -25 43
-33 39 -16 133 -20 142 -6 8 13 152 13 160 0 8 -12 116 -13 170 0 24 5 51 21
67 39 32 36 58 113 40 119 -6 2 -28 14 -47 28 -41 28 -52 25 -52 -12 -1 -40
-33 -77 -73 -80 -53 -5 -270 -5 -314 0 -21 2 -43 11 -48 19 -4 9 -7 84 -6 166
l3 151 43 0 c23 0 42 5 42 10 0 6 16 10 35 10 19 0 35 -5 35 -11 0 -7 22 -10
63 -7 l62 3 -1 -63 c0 -34 -6 -68 -12 -74 -7 -7 -33 -11 -59 -10 -71 3 -78 -6
-48 -60 14 -26 35 -48 48 -52 25 -6 102 19 130 43 20 17 45 70 47 98 0 10 3
47 6 83 4 36 7 77 8 92 1 25 3 26 21 14 11 -7 42 -26 69 -41 l50 -29 20 29
c12 16 31 39 44 51 12 12 22 24 22 27 0 3 -26 13 -57 22 -85 24 -189 82 -242
134 -61 59 -108 138 -92 154 18 18 13 25 -26 38 -74 25 -76 24 -146 -70z m132
-102 c19 -27 67 -81 107 -118 l73 -68 -89 -7 c-52 -5 -96 -3 -107 2 -10 5 -72
9 -138 8 l-120 -1 115 116 c63 64 117 117 120 117 3 1 20 -21 39 -49z"/>
</g>
</svg>
