<?xml version="1.0" standalone="no"?>
<!DOCTYPE svg PUBLIC "-//W3C//DTD SVG 20010904//EN"
 "http://www.w3.org/TR/2001/REC-SVG-20010904/DTD/svg10.dtd">
<svg version="1.0" xmlns="http://www.w3.org/2000/svg"
 width="101.000000pt" height="101.000000pt" viewBox="0 0 101.000000 101.000000"
 preserveAspectRatio="xMidYMid meet">
<metadata>
Created by potrace 1.16, written by Peter Selinger 2001-2019
</metadata>
<g transform="translate(0.000000,101.000000) scale(0.100000,-0.100000)"
fill="#000000" stroke="none">
<path d="M243 993 c-49 -144 -102 -248 -170 -335 l-44 -58 28 -35 c15 -19 31
-35 35 -35 4 0 21 20 39 45 18 25 33 45 33 45 4 0 7 -242 4 -405 l-1 -120 40
-3 c51 -4 79 19 62 50 -6 11 -11 53 -10 92 0 65 2 261 2 354 0 166 6 207 39
272 18 36 41 75 53 87 l20 22 -47 21 c-58 25 -75 25 -83 3z"/>
<path d="M650 1002 c-11 -5 -15 -24 -15 -72 0 -36 4 -73 9 -82 4 -9 6 -25 4
-35 -4 -18 -28 -19 -282 -9 -35 1 -40 -2 -49 -27 -5 -15 -6 -38 -3 -51 6 -24
6 -24 163 -22 l158 1 -1 -26 c0 -14 -4 -31 -8 -37 -4 -6 -7 -33 -6 -59 0 -60
-6 -111 -18 -142 -8 -24 -11 -21 -45 40 -37 66 -63 132 -62 159 0 10 -9 15
-25 14 -37 -2 -90 -15 -90 -24 0 -10 95 -184 132 -243 30 -47 30 -48 12 -69
-30 -33 -131 -95 -185 -113 -27 -9 -49 -20 -49 -23 0 -4 18 -24 39 -45 l39
-39 34 18 c55 28 121 75 165 117 l41 39 47 -32 c47 -32 184 -103 220 -114 17
-4 25 4 48 51 28 58 25 71 -13 74 -64 4 -143 31 -202 68 l-46 29 20 59 c11 32
22 69 25 83 10 58 22 186 18 200 -4 13 11 15 103 13 116 -1 122 1 122 54 0 37
-29 59 -57 45 -10 -5 -52 -8 -93 -6 -68 3 -75 5 -78 24 -2 12 1 27 7 34 6 7
10 34 8 60 -1 26 1 50 5 52 15 9 8 22 -14 27 -13 3 -32 8 -43 11 -11 3 -27 2
-35 -2z"/>
</g>
</svg>
