<?xml version="1.0" standalone="no"?>
<!DOCTYPE svg PUBLIC "-//W3C//DTD SVG 20010904//EN"
 "http://www.w3.org/TR/2001/REC-SVG-20010904/DTD/svg10.dtd">
<svg version="1.0" xmlns="http://www.w3.org/2000/svg"
 width="101.000000pt" height="101.000000pt" viewBox="0 0 101.000000 101.000000"
 preserveAspectRatio="xMidYMid meet">
<metadata>
Created by potrace 1.16, written by Peter Selinger 2001-2019
</metadata>
<g transform="translate(0.000000,101.000000) scale(0.100000,-0.100000)"
fill="#000000" stroke="none">
<path d="M215 923 c-31 -102 -88 -227 -138 -306 l-37 -57 28 -40 c15 -21 30
-39 35 -40 4 0 22 29 39 65 18 36 36 65 40 65 4 0 8 -34 8 -75 0 -49 -4 -75
-11 -75 -8 0 -9 -37 -4 -134 5 -93 4 -136 -4 -140 -16 -11 -13 -72 5 -90 16
-17 70 -21 91 -8 8 5 11 27 9 62 l-3 53 34 -37 c33 -36 36 -37 65 -25 47 19
169 102 201 137 l29 30 66 -50 c80 -61 233 -138 239 -121 2 6 18 30 34 53 17
23 29 44 26 46 -2 2 -29 11 -61 19 -59 16 -135 51 -197 92 l-38 25 38 76 c37
73 90 213 107 277 4 17 9 35 10 40 2 6 5 18 7 28 2 9 9 23 15 29 20 20 14 35
-20 48 -55 20 -88 23 -90 8 0 -7 -2 -24 -3 -38 -2 -14 -6 -38 -10 -55 -3 -16
-8 -39 -10 -50 -14 -72 -27 -116 -68 -212 -16 -40 -33 -73 -37 -73 -19 0 -137
290 -123 303 3 3 1 11 -3 18 -4 7 -8 27 -8 44 -1 29 -2 30 -52 32 -27 1 -55
-2 -62 -5 -16 -11 73 -256 136 -376 l51 -97 -62 -45 c-70 -52 -93 -65 -166
-94 l-50 -19 0 177 c1 97 1 195 0 217 -1 167 6 215 43 288 20 40 36 75 36 79
0 6 -85 38 -101 38 -4 0 -20 -39 -34 -87z"/>
<path d="M540 988 c-19 -5 -36 -11 -37 -12 -1 -1 9 -29 22 -63 14 -33 26 -69
28 -79 13 -69 25 -82 62 -74 27 6 41 9 49 9 12 1 2 42 -34 144 -18 48 -37 87
-43 86 -7 0 -28 -5 -47 -11z"/>
</g>
</svg>
