<?xml version="1.0" standalone="no"?>
<!DOCTYPE svg PUBLIC "-//W3C//DTD SVG 20010904//EN"
 "http://www.w3.org/TR/2001/REC-SVG-20010904/DTD/svg10.dtd">
<svg version="1.0" xmlns="http://www.w3.org/2000/svg"
 width="101.000000pt" height="102.000000pt" viewBox="0 0 101.000000 102.000000"
 preserveAspectRatio="xMidYMid meet">
<metadata>
Created by potrace 1.16, written by Peter Selinger 2001-2019
</metadata>
<g transform="translate(0.000000,102.000000) scale(0.100000,-0.100000)"
fill="#000000" stroke="none">
<path d="M217 993 c-3 -16 -6 -30 -6 -33 0 -3 -12 -38 -25 -77 -32 -93 -88
-200 -133 -252 -19 -23 -33 -44 -31 -49 12 -25 51 -82 57 -82 4 0 25 31 46 69
l40 69 2 -126 c1 -70 2 -143 3 -162 0 -19 -1 -84 -3 -145 -2 -70 0 -113 7
-117 14 -10 68 -10 82 0 8 5 9 26 4 67 -5 33 -6 94 -4 135 2 41 4 128 5 193 0
64 0 134 0 155 0 196 14 265 67 324 12 15 12 18 1 23 -34 12 -102 35 -104 35
-1 0 -5 -12 -8 -27z"/>
<path d="M477 992 c-3 -15 -6 -31 -7 -37 -11 -62 -93 -218 -143 -272 -11 -13
-19 -24 -16 -26 10 -8 81 -47 85 -47 3 0 27 35 54 77 l49 76 48 2 48 2 -4 -50
c-1 -27 2 -54 8 -60 12 -12 14 -68 5 -105 -6 -21 -11 -23 -44 -17 -23 4 -41 2
-45 -4 -8 -14 -52 -14 -60 -1 -4 6 -38 10 -76 9 -62 -1 -70 -4 -74 -23 -3 -11
-2 -34 3 -51 7 -24 15 -31 39 -33 18 -2 37 3 46 12 16 17 98 21 167 10 l35 -6
2 -81 c1 -45 4 -107 5 -137 2 -30 0 -76 -4 -102 l-8 -47 34 -7 c73 -13 72 -16
72 197 l-1 192 126 -7 127 -7 6 26 c15 60 8 63 -132 61 l-127 -1 3 48 c3 29 0
47 -7 47 -6 0 -11 11 -11 25 0 14 5 25 10 25 6 0 10 17 10 39 l0 38 88 7 c48
4 95 4 104 1 20 -8 34 31 24 68 -5 21 -11 22 -111 25 -68 2 -105 -1 -105 -8 0
-5 -16 -10 -35 -10 -19 0 -35 5 -35 10 0 6 -20 10 -44 10 l-45 0 15 44 c9 25
22 50 30 57 22 18 17 26 -23 40 -66 22 -80 20 -86 -9z"/>
</g>
</svg>
