<?xml version="1.0" standalone="no"?>
<!DOCTYPE svg PUBLIC "-//W3C//DTD SVG 20010904//EN"
 "http://www.w3.org/TR/2001/REC-SVG-20010904/DTD/svg10.dtd">
<svg version="1.0" xmlns="http://www.w3.org/2000/svg"
 width="101.000000pt" height="101.000000pt" viewBox="0 0 101.000000 101.000000"
 preserveAspectRatio="xMidYMid meet">
<metadata>
Created by potrace 1.16, written by Peter Selinger 2001-2019
</metadata>
<g transform="translate(0.000000,101.000000) scale(0.100000,-0.100000)"
fill="#000000" stroke="none">
<path d="M251 988 c-62 -160 -94 -222 -163 -319 l-55 -75 33 -38 32 -38 41 64
c41 64 45 63 41 -8 -1 -18 3 -35 9 -39 15 -9 14 -152 0 -161 -8 -5 -10 -36 -6
-102 3 -55 1 -104 -4 -114 -17 -31 6 -58 49 -58 20 0 42 4 48 8 7 4 10 43 8
112 -5 130 -5 238 -1 451 4 159 5 169 30 211 14 25 33 50 41 57 21 18 12 29
-41 52 -55 23 -52 24 -62 -3z"/>
<path d="M594 893 l5 -118 -54 0 -53 0 19 37 c10 20 23 39 29 43 19 12 10 25
-26 40 -39 16 -73 20 -75 8 -7 -67 -52 -182 -100 -258 -16 -26 -29 -49 -27
-50 6 -5 80 -35 88 -35 4 0 19 28 34 63 l26 62 68 2 67 2 2 -98 3 -98 -83 -6
c-125 -10 -175 -9 -180 6 -3 9 -7 9 -17 0 -9 -8 -10 -26 -6 -57 6 -41 10 -46
39 -51 18 -3 73 -1 122 4 50 6 97 11 105 11 13 0 15 -24 15 -154 0 -146 1
-155 20 -160 64 -18 95 5 95 69 0 24 -4 47 -10 50 -6 3 -9 45 -7 98 l2 92 127
-1 c142 0 147 2 134 71 -6 32 -7 32 -59 31 -28 0 -86 0 -128 2 l-77 2 2 93 1
92 118 -1 c113 0 118 1 123 22 3 12 4 32 2 45 -3 21 -6 22 -123 23 l-120 1 3
50 c4 70 10 126 17 151 6 18 1 22 -25 28 -18 3 -48 6 -66 6 l-34 0 4 -117z"/>
</g>
</svg>
