<?xml version="1.0" standalone="no"?>
<!DOCTYPE svg PUBLIC "-//W3C//DTD SVG 20010904//EN"
 "http://www.w3.org/TR/2001/REC-SVG-20010904/DTD/svg10.dtd">
<svg version="1.0" xmlns="http://www.w3.org/2000/svg"
 width="101.000000pt" height="101.000000pt" viewBox="0 0 101.000000 101.000000"
 preserveAspectRatio="xMidYMid meet">
<metadata>
Created by potrace 1.16, written by Peter Selinger 2001-2019
</metadata>
<g transform="translate(0.000000,101.000000) scale(0.100000,-0.100000)"
fill="#000000" stroke="none">
<path d="M229 973 c-6 -15 -12 -35 -14 -43 -16 -72 -89 -217 -148 -295 l-45
-60 27 -32 c14 -17 31 -32 36 -32 6 -1 26 24 44 54 18 30 34 55 35 55 0 0 0
-64 -2 -142 -2 -90 2 -157 9 -180 9 -28 9 -57 1 -115 -12 -85 -8 -93 40 -93
41 0 62 26 52 69 -4 20 -6 100 -5 178 1 90 -2 143 -8 148 -14 8 -14 52 -1 60
6 4 10 52 9 124 -2 108 0 121 26 178 15 34 36 70 46 79 26 24 24 33 -13 48
-72 29 -77 29 -89 -1z"/>
<path d="M638 993 c-10 -2 -18 -6 -18 -9 0 -23 68 -206 99 -267 l40 -78 -154
3 c-85 2 -155 4 -155 6 0 1 13 26 29 55 16 28 41 81 57 117 15 36 34 73 43 83
9 10 11 21 5 26 -11 10 -72 31 -90 31 -11 0 -24 -23 -24 -40 1 -3 -8 -31 -19
-63 -30 -86 -86 -186 -136 -244 -25 -28 -45 -55 -45 -60 1 -12 47 -63 58 -63
5 0 24 21 43 47 25 36 35 43 37 30 3 -14 11 -17 42 -14 37 4 38 3 34 -27 -2
-17 -6 -52 -9 -78 -11 -99 -66 -198 -136 -246 -21 -15 -38 -29 -38 -32 0 -3
18 -18 41 -33 l41 -29 43 43 c75 73 145 235 148 341 1 57 1 58 31 58 17 0 46
3 65 6 l35 6 -3 -89 c-9 -243 -9 -240 -82 -236 -46 2 -45 6 -18 -69 8 -21 17
-41 21 -44 11 -12 120 28 144 52 19 19 23 35 25 96 1 40 4 100 6 133 2 33 5
87 6 121 l1 61 36 -41 36 -41 44 40 c47 42 57 55 40 55 -6 0 -42 30 -81 66
-53 50 -80 86 -110 146 -22 44 -37 84 -34 89 3 6 1 16 -6 23 -6 8 -8 25 -5 39
5 20 2 25 -17 31 -25 6 -43 6 -70 -1z"/>
</g>
</svg>
