<?xml version="1.0" standalone="no"?>
<!DOCTYPE svg PUBLIC "-//W3C//DTD SVG 20010904//EN"
 "http://www.w3.org/TR/2001/REC-SVG-20010904/DTD/svg10.dtd">
<svg version="1.0" xmlns="http://www.w3.org/2000/svg"
 width="101.000000pt" height="101.000000pt" viewBox="0 0 101.000000 101.000000"
 preserveAspectRatio="xMidYMid meet">
<metadata>
Created by potrace 1.16, written by Peter Selinger 2001-2019
</metadata>
<g transform="translate(0.000000,101.000000) scale(0.100000,-0.100000)"
fill="#000000" stroke="none">
<path d="M221 923 c-44 -117 -95 -214 -153 -291 l-48 -63 32 -40 c17 -21 35
-39 39 -39 4 0 27 31 51 69 l43 69 2 -106 c1 -59 5 -126 8 -149 5 -28 2 -58
-10 -92 -12 -38 -15 -67 -9 -120 7 -76 13 -82 72 -73 32 4 38 15 34 65 -2 25
6 21 45 -20 l35 -38 53 58 c63 69 143 218 160 297 1 3 6 23 13 44 6 22 9 44 5
50 -4 8 -2 8 6 0 8 -8 13 -65 15 -180 2 -93 6 -177 10 -186 4 -9 23 -24 41
-32 27 -13 39 -14 59 -5 18 8 29 9 38 2 15 -13 101 -7 130 8 17 9 68 105 68
128 0 5 -21 21 -46 35 -44 25 -47 25 -60 9 -8 -10 -12 -26 -10 -36 2 -10 -6
-30 -19 -45 -22 -25 -26 -26 -56 -15 -17 7 -36 10 -42 6 -5 -3 -13 1 -18 8 -8
13 -4 235 7 317 5 46 5 47 -68 43 -36 -3 -36 -2 -35 36 l2 38 158 1 c171 0
177 2 177 56 0 36 -26 61 -50 48 -22 -12 -87 -13 -94 -2 -2 4 9 17 25 27 16
11 29 25 29 32 0 15 -78 112 -101 126 -12 8 -26 4 -52 -12 l-37 -22 50 -65
c28 -36 50 -69 50 -75 0 -5 -12 -9 -27 -10 -16 0 -49 -2 -75 -3 l-48 -2 6 56
c3 30 7 71 9 90 2 19 6 42 10 51 7 20 -12 29 -74 36 -30 3 -41 1 -36 -7 4 -6
3 -59 0 -119 l-7 -108 -114 1 c-92 1 -116 -2 -124 -14 -7 -11 -10 -7 -10 19 0
36 39 123 71 157 16 18 17 23 6 32 -11 9 -91 42 -102 42 -1 0 -16 -39 -34 -87z
m73 -238 c6 -17 96 -22 96 -5 0 6 11 10 25 10 14 0 25 -5 25 -11 0 -7 13 -9
38 -4 l37 6 -3 -38 c-6 -62 -8 -79 -14 -89 -3 -5 -6 -23 -6 -41 -1 -46 -59
-177 -102 -232 -32 -41 -88 -91 -102 -91 -6 0 -9 64 -8 158 0 58 -3 92 -10 92
-5 0 -10 11 -10 25 0 14 5 25 10 25 6 0 10 30 10 70 0 40 -4 70 -10 70 -5 0
-10 16 -10 35 0 36 22 50 34 20z"/>
</g>
</svg>
