<?xml version="1.0" standalone="no"?>
<!DOCTYPE svg PUBLIC "-//W3C//DTD SVG 20010904//EN"
 "http://www.w3.org/TR/2001/REC-SVG-20010904/DTD/svg10.dtd">
<svg version="1.0" xmlns="http://www.w3.org/2000/svg"
 width="101.000000pt" height="101.000000pt" viewBox="0 0 101.000000 101.000000"
 preserveAspectRatio="xMidYMid meet">
<metadata>
Created by potrace 1.16, written by Peter Selinger 2001-2019
</metadata>
<g transform="translate(0.000000,101.000000) scale(0.100000,-0.100000)"
fill="#000000" stroke="none">
<path d="M245 998 c-20 -66 -28 -93 -26 -93 1 0 -10 -26 -24 -58 -31 -71 -84
-156 -137 -219 l-39 -47 28 -36 c15 -19 31 -35 35 -35 4 0 24 25 45 55 21 30
41 54 46 55 4 0 7 -34 7 -75 0 -43 -4 -75 -10 -75 -6 0 -10 -30 -10 -70 0 -40
4 -70 10 -70 6 0 10 -20 10 -45 0 -26 -5 -45 -11 -45 -14 0 -8 -132 6 -142 18
-14 73 -8 90 9 11 11 15 26 11 45 -7 35 4 35 42 3 17 -14 34 -25 40 -25 20 0
124 93 178 159 30 36 75 106 100 155 l44 88 2 -126 c1 -69 2 -142 3 -163 0
-38 2 -37 -74 -48 -19 -2 -35 -6 -37 -7 -1 -2 4 -24 12 -50 19 -57 35 -62 116
-34 57 19 64 24 75 59 9 26 12 93 11 208 l-3 169 65 1 c36 1 75 0 87 -1 18 -1
23 6 29 34 11 59 6 62 -95 61 l-91 0 2 100 3 100 73 0 c67 0 73 2 79 23 3 12
3 32 -1 45 -5 22 -8 22 -171 24 -99 1 -165 -2 -165 -8 0 -5 -16 -9 -35 -9 -19
0 -35 5 -35 11 0 7 -26 9 -75 7 -82 -3 -89 -9 -79 -64 l6 -34 152 5 151 5 3
-102 2 -103 -109 0 c-95 0 -109 2 -106 16 5 24 43 97 55 104 25 16 2 34 -64
51 -21 5 -24 1 -35 -43 -7 -26 -12 -48 -10 -48 10 0 -36 -68 -55 -80 -23 -15
-23 -16 -8 -59 l16 -44 103 1 c118 2 116 5 60 -90 -48 -82 -102 -138 -184
-193 -70 -47 -76 -49 -89 -33 -16 21 -19 133 -4 133 6 0 10 23 10 50 0 28 -4
50 -10 50 -5 0 -10 11 -10 25 0 14 5 25 10 25 6 0 10 30 10 70 0 40 -4 70 -10
70 -5 0 -10 11 -10 25 0 14 5 25 10 25 6 0 10 22 10 49 0 50 54 190 79 205 22
14 10 34 -32 50 -51 19 -66 20 -72 4z"/>
</g>
</svg>
