<?xml version="1.0" standalone="no"?>
<!DOCTYPE svg PUBLIC "-//W3C//DTD SVG 20010904//EN"
 "http://www.w3.org/TR/2001/REC-SVG-20010904/DTD/svg10.dtd">
<svg version="1.0" xmlns="http://www.w3.org/2000/svg"
 width="101.000000pt" height="102.000000pt" viewBox="0 0 101.000000 102.000000"
 preserveAspectRatio="xMidYMid meet">
<metadata>
Created by potrace 1.16, written by Peter Selinger 2001-2019
</metadata>
<g transform="translate(0.000000,102.000000) scale(0.100000,-0.100000)"
fill="#000000" stroke="none">
<path d="M531 978 c-37 -124 -138 -264 -243 -336 l-43 -30 2 100 c1 88 5 105
32 161 17 34 36 70 43 79 14 20 10 27 -23 33 -86 17 -86 17 -94 -2 -5 -10 -9
-25 -10 -33 -1 -8 -6 -26 -11 -40 -4 -14 -8 -27 -9 -30 -10 -53 -65 -166 -117
-242 l-40 -56 24 -41 c13 -22 28 -41 34 -41 6 0 23 23 38 50 15 28 28 50 29
50 1 0 3 -57 4 -127 3 -184 3 -199 0 -293 -1 -49 2 -88 8 -92 18 -13 73 -8 89
8 19 19 20 36 4 52 -12 12 -13 56 -6 318 3 103 4 112 22 108 10 -2 26 -10 36
-19 24 -22 29 -20 77 27 27 26 43 37 44 28 1 -8 0 -49 0 -92 -1 -44 3 -79 9
-83 12 -8 13 -52 1 -59 -13 -8 -12 -108 1 -123 6 -8 8 -31 5 -57 -10 -70 31
-92 158 -87 28 1 81 2 119 2 84 -1 134 23 165 79 21 38 28 80 12 80 -4 0 -25
11 -46 25 -20 15 -39 25 -41 23 -1 -2 -6 -19 -9 -37 -6 -37 -22 -71 -33 -72
-4 0 -59 -1 -122 -1 l-115 -2 -9 144 c-7 106 -6 145 3 148 6 2 11 15 11 28 0
16 6 24 18 24 9 0 50 3 90 6 l72 4 0 -50 c0 -73 -18 -96 -75 -94 -25 1 -45 -1
-43 -5 2 -3 11 -27 22 -53 10 -26 27 -50 37 -53 27 -9 116 41 134 75 8 16 15
46 15 67 0 21 3 68 6 105 l7 67 35 -23 36 -22 43 45 c24 24 42 45 40 45 -1 1
-33 17 -71 36 -122 61 -230 186 -229 265 0 36 -12 45 -49 38 -17 -3 -28 -1
-28 6 0 6 -11 11 -23 11 -19 0 -26 -8 -36 -42z m187 -268 c59 -66 65 -63 -113
-60 -66 1 -128 1 -137 1 -12 0 -4 19 35 77 29 42 63 98 76 123 l24 45 33 -65
c18 -36 55 -91 82 -121z"/>
</g>
</svg>
