<?xml version="1.0" standalone="no"?>
<!DOCTYPE svg PUBLIC "-//W3C//DTD SVG 20010904//EN"
 "http://www.w3.org/TR/2001/REC-SVG-20010904/DTD/svg10.dtd">
<svg version="1.0" xmlns="http://www.w3.org/2000/svg"
 width="101.000000pt" height="101.000000pt" viewBox="0 0 101.000000 101.000000"
 preserveAspectRatio="xMidYMid meet">
<metadata>
Created by potrace 1.16, written by Peter Selinger 2001-2019
</metadata>
<g transform="translate(0.000000,101.000000) scale(0.100000,-0.100000)"
fill="#000000" stroke="none">
<path d="M255 983 c-27 -112 -111 -269 -187 -349 l-48 -51 20 -38 c11 -22 20
-45 20 -52 0 -27 18 -11 65 57 27 39 49 70 49 70 1 0 2 -48 4 -107 1 -60 4
-146 5 -193 1 -47 0 -116 -3 -155 l-5 -70 40 -3 c60 -4 67 5 55 68 -13 68 -13
180 0 180 6 0 10 23 10 50 0 28 -4 50 -10 50 -5 0 -10 11 -10 25 0 14 5 25 10
25 6 0 10 30 10 70 0 40 -4 70 -10 70 -5 0 -10 11 -10 25 0 14 5 25 10 25 6 0
10 23 10 50 0 56 42 154 86 201 29 30 24 36 -44 62 -56 22 -59 22 -67 -10z"/>
<path d="M614 994 c-15 -8 -34 -12 -41 -10 -11 4 -11 1 -3 -15 10 -17 17 -58
23 -124 2 -16 -9 -18 -109 -18 l-111 0 -2 -65 c-1 -36 4 -71 10 -78 11 -14 8
-101 -5 -134 -5 -12 4 -15 49 -15 l54 0 -2 95 -2 95 170 1 170 1 -1 -66 c-1
-36 -5 -73 -8 -81 -4 -9 0 -24 7 -34 11 -16 22 -18 59 -12 l45 7 1 142 1 143
-96 -9 c-66 -6 -103 -6 -120 2 -13 6 -36 11 -50 11 -44 0 -12 12 49 19 17 2
-28 147 -47 155 -7 2 -25 -2 -41 -10z"/>
<path d="M353 299 c-14 -14 -17 -67 -5 -86 6 -9 83 -12 310 -10 334 2 322 -1
307 67 -8 34 -32 45 -83 34 -39 -7 -409 -6 -477 2 -25 4 -45 1 -52 -7z"/>
</g>
</svg>
