<?xml version="1.0" standalone="no"?>
<!DOCTYPE svg PUBLIC "-//W3C//DTD SVG 20010904//EN"
 "http://www.w3.org/TR/2001/REC-SVG-20010904/DTD/svg10.dtd">
<svg version="1.0" xmlns="http://www.w3.org/2000/svg"
 width="101.000000pt" height="102.000000pt" viewBox="0 0 101.000000 102.000000"
 preserveAspectRatio="xMidYMid meet">
<metadata>
Created by potrace 1.16, written by Peter Selinger 2001-2019
</metadata>
<g transform="translate(0.000000,102.000000) scale(0.100000,-0.100000)"
fill="#000000" stroke="none">
<path d="M468 946 c-31 -80 -86 -172 -142 -234 -32 -35 -34 -41 -19 -48 10 -4
26 -8 35 -9 10 -1 24 -7 31 -14 17 -13 29 -1 76 73 l31 49 114 -2 c70 -1 117
2 121 9 8 13 52 13 60 0 7 -11 52 -13 118 -4 37 5 47 11 52 31 13 55 -19 83
-71 62 -41 -16 -232 -24 -248 -10 -7 6 -34 10 -59 8 l-46 -3 16 26 c8 14 26
39 39 57 13 17 24 34 24 38 0 3 -15 12 -32 19 -74 30 -71 32 -100 -48z"/>
<path d="M217 941 c-24 -92 -91 -223 -155 -303 l-51 -65 32 -31 c18 -18 37
-32 43 -32 5 0 23 22 39 50 l30 49 2 -127 c3 -199 3 -202 0 -299 -3 -102 -2
-103 63 -96 l35 5 3 169 c2 111 -1 169 -8 169 -5 0 -10 11 -10 25 0 14 5 25
10 25 6 0 10 30 10 70 0 40 -4 70 -10 70 -5 0 -10 16 -10 35 0 19 5 35 10 35
6 0 10 23 10 50 0 38 9 68 34 118 19 38 41 74 50 81 9 8 16 17 16 21 0 9 -92
50 -112 50 -8 0 -20 -27 -31 -69z"/>
<path d="M556 728 c-3 -13 -3 -46 0 -74 l6 -52 -91 4 c-50 1 -95 5 -99 8 -28
17 -52 -57 -29 -88 13 -17 21 -18 109 -10 93 9 96 9 92 -11 -2 -11 -7 -33 -9
-50 -18 -100 -113 -219 -215 -267 -54 -25 -60 -34 -30 -43 11 -4 34 -18 50
-32 l30 -25 34 22 c82 50 197 211 212 297 3 14 9 33 14 42 5 9 8 23 8 31 -3
44 0 45 77 45 63 0 74 -2 68 -15 -3 -8 -7 -38 -9 -67 -1 -28 -5 -56 -8 -62 -3
-5 -6 -29 -5 -53 1 -59 -7 -89 -30 -112 -17 -17 -24 -18 -45 -8 -15 7 -35 8
-47 4 -19 -7 -19 -9 -5 -21 9 -7 21 -31 26 -52 7 -24 17 -39 26 -39 27 0 99
21 117 35 20 15 57 107 57 145 0 14 3 45 7 70 3 25 5 87 5 138 -1 54 2 92 8
92 6 0 10 8 10 18 0 24 -72 29 -106 7 -26 -17 -84 -21 -84 -5 0 6 -14 10 -30
10 -27 0 -30 2 -20 20 6 11 10 32 9 47 -1 15 2 35 5 45 8 18 -7 25 -65 27 -30
1 -38 -3 -43 -21z"/>
</g>
</svg>
