<?xml version="1.0" standalone="no"?>
<!DOCTYPE svg PUBLIC "-//W3C//DTD SVG 20010904//EN"
 "http://www.w3.org/TR/2001/REC-SVG-20010904/DTD/svg10.dtd">
<svg version="1.0" xmlns="http://www.w3.org/2000/svg"
 width="101.000000pt" height="101.000000pt" viewBox="0 0 101.000000 101.000000"
 preserveAspectRatio="xMidYMid meet">
<metadata>
Created by potrace 1.16, written by Peter Selinger 2001-2019
</metadata>
<g transform="translate(0.000000,101.000000) scale(0.100000,-0.100000)"
fill="#000000" stroke="none">
<path d="M225 998 c-2 -7 -9 -31 -16 -53 -7 -22 -14 -44 -15 -50 -8 -41 -55
-134 -105 -209 l-60 -89 34 -35 35 -35 27 42 c15 22 28 41 29 41 0 0 2 -48 3
-107 1 -60 5 -132 8 -161 4 -30 2 -97 -4 -149 -6 -53 -9 -98 -6 -102 11 -10
99 -1 107 11 4 7 5 22 2 32 -14 43 -17 187 -10 496 l3 165 36 72 c20 39 44 76
53 81 25 14 9 29 -50 46 -65 19 -66 19 -71 4z"/>
<path d="M374 905 c-13 -69 -8 -72 131 -74 75 -1 126 3 130 9 8 13 52 13 61
-1 4 -7 28 -10 63 -7 l56 4 2 -81 c2 -100 2 -127 1 -272 0 -65 3 -133 7 -150
9 -41 -1 -98 -21 -118 -11 -10 -29 -13 -65 -10 -27 3 -49 2 -49 -1 0 -3 7 -19
16 -35 8 -17 13 -33 10 -36 -3 -3 -1 -13 4 -23 10 -19 40 -19 113 0 72 19 81
39 72 155 -5 66 -4 95 4 95 7 0 11 34 11 100 0 60 -4 100 -10 100 -5 0 -10 11
-10 25 0 14 5 25 10 25 6 0 10 30 10 70 0 40 -4 70 -10 70 -5 0 -10 16 -10 35
0 19 5 35 10 35 6 0 10 26 10 58 l0 57 -109 3 c-64 2 -112 -1 -115 -7 -8 -12
-173 -14 -181 -2 -3 5 -34 9 -70 9 l-65 -1 -6 -32z"/>
<path d="M337 759 c-17 -10 -24 -64 -9 -85 9 -15 148 -18 157 -4 8 12 52 13
59 1 3 -5 53 -8 110 -8 l104 2 6 29 c8 40 8 43 -10 60 -10 11 -21 13 -32 7
-18 -9 -344 -7 -359 2 -5 3 -16 1 -26 -4z"/>
<path d="M378 590 c-2 -6 0 -61 4 -123 3 -64 2 -116 -3 -121 -11 -12 -12 -66
-1 -83 8 -13 29 -17 75 -15 26 2 28 5 23 30 l-6 27 76 3 c72 2 76 1 71 -18 -4
-15 1 -22 19 -26 65 -17 96 23 78 100 -5 23 -9 83 -9 134 l1 93 -123 -7 c-90
-5 -123 -4 -123 5 0 14 -77 15 -82 1z m237 -140 l0 -55 -70 0 -70 0 0 55 0 55
70 0 70 0 0 -55z"/>
</g>
</svg>
