<?xml version="1.0" standalone="no"?>
<!DOCTYPE svg PUBLIC "-//W3C//DTD SVG 20010904//EN"
 "http://www.w3.org/TR/2001/REC-SVG-20010904/DTD/svg10.dtd">
<svg version="1.0" xmlns="http://www.w3.org/2000/svg"
 width="101.000000pt" height="101.000000pt" viewBox="0 0 101.000000 101.000000"
 preserveAspectRatio="xMidYMid meet">
<metadata>
Created by potrace 1.16, written by Peter Selinger 2001-2019
</metadata>
<g transform="translate(0.000000,101.000000) scale(0.100000,-0.100000)"
fill="#000000" stroke="none">
<path d="M236 989 c-37 -124 -90 -239 -160 -343 -26 -38 -45 -72 -44 -75 9
-18 54 -81 58 -81 3 0 19 24 35 53 l30 52 3 -137 c1 -81 7 -138 12 -138 6 0
10 -20 10 -45 0 -25 -4 -45 -10 -45 -11 0 -13 -71 -4 -108 7 -24 41 -37 77
-28 21 5 22 11 24 100 1 53 -2 98 -8 101 -12 8 -12 52 1 60 12 7 12 153 0 160
-12 7 -11 153 1 160 5 4 9 32 8 63 -2 58 26 131 72 191 25 31 24 40 -5 51 -50
19 -96 23 -100 9z"/>
<path d="M378 913 c-36 -9 -33 -87 3 -98 25 -8 129 5 129 16 0 5 16 9 35 9 19
0 35 -5 35 -11 0 -8 25 -10 83 -7 l82 4 2 -80 c2 -87 2 -93 3 -278 0 -68 1
-149 3 -180 1 -31 -1 -60 -6 -64 -4 -4 -32 -6 -62 -5 l-54 2 14 -34 c8 -19 12
-37 9 -40 -3 -3 -1 -14 5 -25 11 -21 50 -24 118 -7 56 13 61 27 68 177 3 82 2
139 -4 142 -12 8 -13 146 -1 161 6 7 9 58 8 116 l-3 104 42 0 c48 0 51 2 59
42 9 46 -17 66 -75 58 -54 -7 -190 -8 -356 -2 -66 3 -128 3 -137 0z"/>
<path d="M372 714 c-13 -26 -15 -161 -2 -169 13 -8 13 -52 0 -60 -9 -6 -5
-193 4 -202 1 -2 16 -6 33 -9 40 -8 67 18 59 58 -5 27 -4 28 32 28 20 0 48 3
61 7 17 4 22 3 17 -6 -20 -32 29 -70 73 -56 14 4 17 20 18 93 1 48 3 138 5
200 3 123 -3 139 -52 126 -29 -8 -160 -6 -207 2 -24 5 -33 2 -41 -12z m218
-139 c0 -33 -3 -76 -6 -95 l-6 -35 -66 1 -67 0 -3 67 c-2 42 1 67 8 67 5 0 10
11 10 24 0 27 11 31 88 31 l42 1 0 -61z"/>
</g>
</svg>
