<?xml version="1.0" standalone="no"?>
<!DOCTYPE svg PUBLIC "-//W3C//DTD SVG 20010904//EN"
 "http://www.w3.org/TR/2001/REC-SVG-20010904/DTD/svg10.dtd">
<svg version="1.0" xmlns="http://www.w3.org/2000/svg"
 width="101.000000pt" height="101.000000pt" viewBox="0 0 101.000000 101.000000"
 preserveAspectRatio="xMidYMid meet">
<metadata>
Created by potrace 1.16, written by Peter Selinger 2001-2019
</metadata>
<g transform="translate(0.000000,101.000000) scale(0.100000,-0.100000)"
fill="#000000" stroke="none">
<path d="M227 978 c-4 -13 -7 -27 -8 -33 -3 -21 -47 -133 -72 -182 -15 -28
-49 -81 -76 -117 l-50 -65 33 -36 c18 -19 35 -35 39 -35 3 0 18 20 33 45 14
25 27 45 29 45 7 0 8 -179 3 -372 -4 -141 -5 -138 65 -130 37 4 42 12 39 55
-2 22 21 11 60 -28 l27 -27 44 31 c79 54 132 135 156 236 12 50 13 51 50 52
44 2 41 14 44 -142 1 -55 -1 -114 -5 -131 -8 -37 4 -43 64 -36 36 4 37 5 30
36 -4 17 -6 76 -5 131 3 146 3 143 27 143 11 1 32 2 46 4 19 2 25 -2 26 -17 0
-11 4 -32 8 -48 11 -37 -6 -55 -49 -54 -19 1 -36 -1 -39 -4 -2 -2 3 -27 12
-56 17 -51 18 -52 52 -49 43 4 86 21 96 37 4 7 9 33 10 58 2 25 6 71 9 101 7
79 8 101 1 107 -3 3 -32 0 -64 -7 -42 -8 -65 -9 -79 -2 -10 6 -28 10 -38 9
-16 -2 -19 3 -17 28 1 17 3 40 3 51 1 24 9 25 110 25 l55 -1 -4 90 c-3 62 -1
90 7 90 6 0 11 13 11 30 0 35 -29 55 -63 43 -12 -4 -42 -7 -67 -8 l-45 0 2 35
c1 19 4 49 7 65 5 36 -6 45 -61 45 -37 0 -43 -3 -49 -25 -3 -14 -1 -32 6 -39
6 -8 10 -29 8 -47 -3 -28 -6 -32 -39 -34 l-36 -2 2 51 c2 28 6 59 10 69 4 9 3
18 -1 18 -5 1 -18 3 -29 5 -80 13 -82 12 -80 -48 1 -29 4 -62 7 -73 5 -18 2
-20 -46 -18 -28 1 -61 5 -73 9 -28 8 -47 -26 -38 -67 6 -27 35 -42 35 -19 0 7
23 10 61 8 l61 -3 2 -53 1 -53 -77 7 c-43 4 -79 3 -79 -2 -1 -5 -3 -19 -4 -31
-1 -12 -5 -29 -9 -38 -3 -9 -1 -25 5 -36 7 -14 7 -40 0 -87 -6 -36 -9 -68 -6
-70 6 -6 43 -5 103 2 28 3 52 4 52 3 0 -2 -7 -27 -16 -56 -22 -76 -98 -153
-172 -176 -21 -6 -23 -4 -22 32 0 21 0 157 1 303 l1 265 35 78 c20 42 40 77
44 77 5 0 9 6 9 14 0 13 -76 46 -106 46 -6 0 -14 -10 -17 -22z m408 -255 c0
-46 -1 -48 -30 -49 -29 0 -30 1 -27 42 3 38 7 43 30 47 15 2 27 5 27 6 0 0 0
-20 0 -46z m170 -3 c0 -45 0 -45 -35 -45 -35 0 -35 0 -35 45 0 46 0 46 35 45
35 0 35 0 35 -45z m-326 -144 c0 -11 2 -34 3 -51 3 -29 1 -30 -39 -31 -41 -1
-41 0 -36 30 3 17 5 40 5 52 0 16 7 20 33 21 27 1 33 -3 34 -21z m160 0 c0
-11 2 -34 3 -51 3 -29 1 -30 -39 -31 -41 -1 -41 0 -36 30 3 17 5 40 5 52 0 16
7 20 33 21 27 1 33 -3 34 -21z"/>
</g>
</svg>
