<?xml version="1.0" standalone="no"?>
<!DOCTYPE svg PUBLIC "-//W3C//DTD SVG 20010904//EN"
 "http://www.w3.org/TR/2001/REC-SVG-20010904/DTD/svg10.dtd">
<svg version="1.0" xmlns="http://www.w3.org/2000/svg"
 width="101.000000pt" height="102.000000pt" viewBox="0 0 101.000000 102.000000"
 preserveAspectRatio="xMidYMid meet">
<metadata>
Created by potrace 1.16, written by Peter Selinger 2001-2019
</metadata>
<g transform="translate(0.000000,102.000000) scale(0.100000,-0.100000)"
fill="#000000" stroke="none">
<path d="M231 968 c-20 -74 -92 -213 -148 -282 -26 -32 -52 -64 -56 -70 -5 -6
1 -32 14 -61 l22 -49 26 34 c65 85 60 90 61 -62 0 -85 4 -138 10 -138 6 0 10
-20 10 -45 0 -25 -5 -45 -10 -45 -7 0 -10 -29 -8 -79 3 -88 6 -91 71 -83 l37
4 -1 62 c0 33 0 72 0 86 1 61 -5 136 -10 145 -11 16 -10 153 1 160 6 3 9 56 9
123 l-1 118 41 81 c22 45 45 84 51 88 23 14 8 35 -32 45 -24 6 -50 13 -59 16
-11 3 -19 -9 -28 -48z"/>
<path d="M388 939 c-19 -11 -24 -55 -8 -79 8 -13 36 -15 172 -12 90 1 198 2
240 3 84 0 96 9 83 62 -6 23 -11 25 -41 20 -20 -3 -40 -1 -49 7 -9 8 -25 10
-42 5 -31 -8 -187 -8 -278 0 -33 2 -68 0 -77 -6z"/>
<path d="M323 763 c-18 -7 -27 -67 -13 -93 8 -15 17 -19 28 -15 9 4 58 8 108
10 l92 3 -24 -61 c-13 -33 -24 -62 -24 -63 0 -1 -29 1 -64 3 -119 10 -157 -10
-142 -72 6 -23 9 -24 85 -21 l79 3 -25 -41 c-14 -23 -32 -49 -41 -58 -12 -15
-12 -18 -1 -22 69 -20 169 -60 169 -66 0 -19 -136 -59 -223 -65 -51 -4 -54 -9
-26 -43 13 -16 29 -37 34 -47 10 -17 14 -17 70 0 33 9 98 35 145 58 47 22 92
41 100 42 22 2 57 -17 126 -68 l62 -45 38 40 c46 46 49 43 -78 108 l-79 42 17
26 c9 14 27 50 39 80 l22 55 49 1 c27 1 57 -2 66 -6 26 -12 51 19 44 56 -4 16
-12 34 -19 38 -14 9 -61 11 -69 2 -6 -6 -278 -11 -278 -5 0 11 45 81 52 81 4
0 8 7 8 15 0 8 -5 15 -11 15 -5 0 -8 4 -5 9 3 4 17 6 31 3 15 -2 37 1 49 8 22
11 89 10 186 -2 39 -5 50 4 50 44 0 52 -60 76 -104 43 -22 -17 -121 -21 -131
-5 -7 12 -113 11 -121 -1 -7 -12 -51 -11 -59 1 -4 6 -41 10 -88 9 -45 -1 -89
1 -97 4 -8 3 -20 3 -27 0z m377 -315 c0 -24 -61 -120 -73 -115 -7 2 -36 12
-64 22 -29 11 -53 23 -53 27 0 5 7 20 16 33 12 19 26 25 53 26 20 1 50 5 66 9
45 12 55 11 55 -2z"/>
</g>
</svg>
