<?xml version="1.0" standalone="no"?>
<!DOCTYPE svg PUBLIC "-//W3C//DTD SVG 20010904//EN"
 "http://www.w3.org/TR/2001/REC-SVG-20010904/DTD/svg10.dtd">
<svg version="1.0" xmlns="http://www.w3.org/2000/svg"
 width="101.000000pt" height="101.000000pt" viewBox="0 0 101.000000 101.000000"
 preserveAspectRatio="xMidYMid meet">
<metadata>
Created by potrace 1.16, written by Peter Selinger 2001-2019
</metadata>
<g transform="translate(0.000000,101.000000) scale(0.100000,-0.100000)"
fill="#000000" stroke="none">
<path d="M220 963 c-7 -27 -15 -57 -17 -68 -8 -46 -95 -204 -139 -253 l-47
-54 38 -34 c20 -20 38 -34 40 -32 1 2 16 22 32 45 l30 42 6 -195 c3 -112 2
-206 -3 -220 -6 -16 -6 -33 2 -49 8 -18 8 -28 -1 -38 -9 -12 -7 -16 10 -20 12
-3 31 -1 41 4 10 6 27 7 37 4 18 -5 18 -3 9 35 -8 30 -8 48 1 66 6 14 9 30 5
35 -6 10 -12 149 -7 149 2 0 20 -15 41 -34 l38 -34 57 39 57 39 0 -40 c0 -22
5 -40 11 -40 8 0 9 -21 4 -69 -7 -73 1 -103 34 -120 23 -13 80 -24 106 -22 11
1 65 3 120 5 57 1 110 8 123 15 23 12 72 101 72 131 0 12 -89 64 -97 56 -1 -1
-5 -20 -9 -42 -8 -53 -15 -59 -83 -74 -44 -9 -63 -9 -80 -1 -12 7 -25 9 -30 6
-5 -3 -19 -1 -32 3 -20 8 -23 16 -24 60 l0 51 115 41 c63 23 124 41 135 41 11
0 32 4 47 10 l28 11 -32 45 c-42 57 -43 58 -76 35 -28 -20 -157 -87 -195 -101
-20 -8 -22 -5 -22 28 1 33 8 45 68 100 l67 63 82 4 c46 2 103 4 128 5 l45 0 0
44 0 43 -50 6 c-27 3 -66 4 -87 3 -46 -3 -42 6 42 93 l61 64 -22 17 c-13 9
-35 24 -50 33 l-27 16 -31 -55 c-17 -30 -34 -55 -37 -55 -3 0 -3 4 1 10 3 5 3
20 -1 34 -6 25 -9 25 -75 23 l-68 -2 5 50 c2 27 5 59 7 70 2 17 -5 20 -48 23
l-51 3 4 -41 c2 -22 1 -56 -2 -75 l-7 -34 -87 2 c-84 2 -87 1 -90 -22 -2 -12
-1 -34 2 -47 6 -23 9 -24 90 -21 l84 4 4 -50 3 -49 -102 6 c-118 8 -143 1
-143 -44 0 -33 26 -64 48 -55 8 3 71 7 139 9 143 5 142 6 30 -72 -71 -49 -137
-85 -209 -115 l-36 -15 4 73 c3 45 1 76 -6 80 -13 8 -13 52 0 60 6 4 10 41 9
88 -2 75 1 89 33 158 20 42 41 79 47 83 23 15 9 34 -40 55 -29 11 -55 21 -59
21 -4 0 -13 -21 -20 -47z m510 -203 c-26 -44 -58 -73 -86 -75 -30 -2 -30 -2
-30 44 l1 46 62 0 c51 0 60 -2 53 -15z"/>
</g>
</svg>
