<?xml version="1.0" standalone="no"?>
<!DOCTYPE svg PUBLIC "-//W3C//DTD SVG 20010904//EN"
 "http://www.w3.org/TR/2001/REC-SVG-20010904/DTD/svg10.dtd">
<svg version="1.0" xmlns="http://www.w3.org/2000/svg"
 width="101.000000pt" height="101.000000pt" viewBox="0 0 101.000000 101.000000"
 preserveAspectRatio="xMidYMid meet">
<metadata>
Created by potrace 1.16, written by Peter Selinger 2001-2019
</metadata>
<g transform="translate(0.000000,101.000000) scale(0.100000,-0.100000)"
fill="#000000" stroke="none">
<path d="M253 993 c-44 -125 -104 -234 -182 -331 -28 -34 -51 -66 -51 -71 0
-14 41 -81 48 -81 4 0 25 26 47 56 l40 56 3 -136 c1 -79 7 -136 12 -136 6 0
10 -20 10 -45 0 -25 -4 -45 -10 -45 -6 0 -9 -33 -9 -79 1 -86 7 -94 62 -84 22
4 25 11 31 65 9 89 7 156 -4 163 -13 8 -13 152 0 160 12 7 11 113 -1 121 -12
7 -11 51 1 59 6 4 10 32 9 63 -2 62 16 109 77 194 36 51 34 57 -25 77 -45 15
-51 14 -58 -6z"/>
<path d="M335 883 c-12 -48 20 -83 56 -63 12 7 14 -10 11 -97 -1 -60 2 -111 8
-118 11 -13 12 -144 1 -160 -3 -5 -6 -32 -6 -60 l0 -50 -33 3 c-18 2 -45 1
-61 -3 -30 -6 -35 -20 -25 -73 5 -24 6 -24 119 -6 17 3 55 7 85 10 30 2 78 6
105 9 119 11 110 13 113 -20 7 -64 6 -91 -1 -126 -8 -41 4 -50 59 -42 26 4 31
9 32 36 0 18 2 41 2 52 1 11 -1 41 -4 68 -3 31 -1 47 7 48 7 1 26 4 42 6 17 3
49 5 73 5 36 0 43 4 48 25 4 14 1 35 -6 49 -11 20 -18 23 -44 18 -17 -4 -41
-6 -53 -5 -12 0 -33 -3 -45 -8 -22 -8 -23 -7 -26 58 -1 36 -2 82 -2 101 1 19
2 92 3 162 l2 126 27 -3 c15 -2 32 -6 38 -10 21 -13 58 4 64 31 14 56 7 59
-123 62 -66 1 -122 -2 -126 -7 -7 -12 -172 -13 -179 -2 -3 5 -39 9 -80 9 -71
0 -75 -1 -81 -25z m361 -66 c1 -1 4 -22 6 -47 l5 -45 -106 0 -106 0 0 50 0 50
100 -3 c54 -2 100 -4 101 -5z m2 -163 c21 -6 23 -12 20 -58 l-3 -51 -113 0
-113 0 6 45 c4 25 9 47 11 49 2 2 26 3 53 3 28 -1 53 3 56 8 7 11 48 13 83 4z
m6 -235 l-2 -52 -48 -3 c-52 -4 -147 -5 -150 -1 -1 1 -4 23 -6 49 l-5 47 96 4
c53 1 101 4 106 5 6 1 9 -20 9 -49z"/>
</g>
</svg>
