<?xml version="1.0" standalone="no"?>
<!DOCTYPE svg PUBLIC "-//W3C//DTD SVG 20010904//EN"
 "http://www.w3.org/TR/2001/REC-SVG-20010904/DTD/svg10.dtd">
<svg version="1.0" xmlns="http://www.w3.org/2000/svg"
 width="101.000000pt" height="102.000000pt" viewBox="0 0 101.000000 102.000000"
 preserveAspectRatio="xMidYMid meet">
<metadata>
Created by potrace 1.16, written by Peter Selinger 2001-2019
</metadata>
<g transform="translate(0.000000,102.000000) scale(0.100000,-0.100000)"
fill="#000000" stroke="none">
<path d="M227 998 c-4 -13 -7 -27 -8 -33 -4 -27 -55 -157 -84 -215 -18 -36
-52 -89 -74 -118 l-42 -52 27 -45 c14 -25 28 -45 30 -45 2 0 20 25 40 55 20
30 37 55 38 55 4 0 6 -243 3 -397 -2 -124 -3 -123 65 -115 36 4 37 5 43 57 4
30 4 58 0 64 -11 19 3 12 39 -20 l36 -31 28 21 c52 37 146 145 179 206 28 51
33 56 33 33 0 -16 5 -28 10 -28 15 0 12 -67 -2 -73 -10 -4 -10 -8 1 -15 10 -7
12 -30 9 -93 -3 -46 -8 -91 -12 -100 -9 -20 14 -27 67 -21 37 4 38 5 30 36 -4
17 -7 46 -6 64 1 17 2 41 2 52 0 11 0 39 -1 63 0 23 4 62 9 86 l8 45 25 -54
c26 -57 106 -163 140 -187 19 -13 25 -12 65 19 24 18 45 36 45 39 0 4 -14 12
-31 19 -62 26 -172 158 -184 220 -3 18 2 20 53 22 31 1 74 2 94 1 42 -2 54 17
43 67 l-6 29 -132 -1 -132 -2 -3 42 c-2 25 1 42 7 42 6 0 11 12 11 28 l0 27
110 0 c120 0 128 4 114 59 -7 30 -39 42 -82 32 -35 -9 -47 -10 -109 -8 l-53 2
0 39 c0 22 5 43 10 46 6 4 9 19 8 33 -1 15 1 33 5 39 12 18 -31 36 -69 29 -28
-6 -34 -12 -40 -42 -3 -19 -4 -61 0 -92 l6 -57 -50 0 c-45 0 -49 2 -44 20 14
44 23 63 33 70 6 3 11 10 11 15 0 14 -61 37 -95 36 -28 -1 -30 -3 -32 -47 -2
-51 -34 -157 -64 -208 -21 -36 -14 -60 19 -60 9 0 25 -1 35 -3 14 -2 24 10 40
47 l22 50 60 0 60 0 0 -70 1 -71 -146 1 c-145 0 -145 0 -148 -24 -2 -12 -1
-34 2 -47 6 -23 7 -23 117 -18 l110 5 -33 -62 c-18 -35 -55 -87 -82 -116 -46
-51 -131 -111 -142 -101 -11 12 -17 208 -6 221 13 15 14 115 1 123 -12 7 -11
51 1 59 6 4 10 41 9 88 -2 72 1 89 25 137 16 30 37 65 48 77 26 28 19 38 -36
52 -24 6 -50 13 -58 16 -11 4 -17 -2 -21 -17z"/>
</g>
</svg>
