<?xml version="1.0" standalone="no"?>
<!DOCTYPE svg PUBLIC "-//W3C//DTD SVG 20010904//EN"
 "http://www.w3.org/TR/2001/REC-SVG-20010904/DTD/svg10.dtd">
<svg version="1.0" xmlns="http://www.w3.org/2000/svg"
 width="101.000000pt" height="101.000000pt" viewBox="0 0 101.000000 101.000000"
 preserveAspectRatio="xMidYMid meet">
<metadata>
Created by potrace 1.16, written by Peter Selinger 2001-2019
</metadata>
<g transform="translate(0.000000,101.000000) scale(0.100000,-0.100000)"
fill="#000000" stroke="none">
<path d="M184 927 c-34 -105 -72 -180 -122 -244 l-40 -50 21 -46 c12 -26 24
-47 27 -47 3 0 19 21 35 48 l30 47 3 -52 c2 -29 7 -53 13 -53 5 0 9 -16 9 -35
0 -19 -4 -35 -10 -35 -5 0 -10 -18 -10 -40 0 -22 5 -40 10 -40 15 0 12 -67 -2
-74 -10 -5 -10 -7 0 -12 15 -7 17 -120 2 -129 -17 -11 -11 -42 9 -48 10 -2 30
-2 44 0 l26 5 -1 147 c0 202 -2 192 35 185 17 -3 36 -9 43 -15 15 -13 22 -3
82 117 l50 100 39 0 c38 -1 39 -2 38 -32 -1 -17 -5 -36 -8 -41 -3 -5 -6 -28
-5 -52 0 -23 -2 -45 -6 -48 -3 -4 -21 7 -39 24 l-32 31 -35 -29 -34 -29 24
-17 c13 -10 38 -29 54 -44 l30 -26 -39 -53 c-33 -45 -107 -109 -169 -145 -15
-9 -11 -15 29 -43 l47 -33 40 27 c106 74 198 236 234 414 18 85 23 165 11 176
-4 4 -41 8 -82 8 -63 1 -74 4 -69 16 15 36 23 72 18 83 -5 13 61 14 102 2 32
-10 57 21 50 59 -7 35 -23 48 -51 41 -11 -3 -69 -6 -130 -6 -151 0 -145 -1
-139 15 6 15 -30 38 -78 50 -26 6 -27 3 -54 -77z m141 -80 c11 1 32 4 47 6 24
4 26 2 17 -21 -5 -14 -7 -27 -4 -30 2 -3 0 -11 -7 -19 -6 -7 -8 -16 -5 -19 17
-17 -97 -257 -133 -279 -4 -2 -5 36 -2 85 3 64 1 90 -7 90 -7 0 -11 26 -11 75
0 41 4 75 8 75 5 0 19 23 32 50 l24 51 11 -33 c7 -24 16 -32 30 -31z"/>
<path d="M812 939 c0 -27 4 -51 9 -54 11 -8 10 -173 -2 -180 -12 -8 -12 -142
1 -150 13 -8 13 -52 -1 -61 -7 -4 -9 -49 -6 -134 2 -71 0 -134 -4 -141 -4 -7
-26 -14 -49 -15 -23 -1 -43 -4 -46 -6 -2 -3 5 -25 16 -50 25 -57 47 -64 116
-33 47 21 54 27 60 62 4 21 7 85 6 143 -4 288 2 607 12 631 9 20 -13 31 -71
35 l-42 3 1 -50z"/>
<path d="M667 845 c-17 -16 -22 -121 -7 -130 14 -9 13 -152 -1 -161 -9 -5 -10
-38 -5 -112 3 -58 8 -108 11 -111 7 -6 75 -5 81 2 5 5 5 35 5 232 -1 101 7
229 14 247 5 13 -2 21 -30 32 -46 20 -50 20 -68 1z"/>
</g>
</svg>
