<?xml version="1.0" standalone="no"?>
<!DOCTYPE svg PUBLIC "-//W3C//DTD SVG 20010904//EN"
 "http://www.w3.org/TR/2001/REC-SVG-20010904/DTD/svg10.dtd">
<svg version="1.0" xmlns="http://www.w3.org/2000/svg"
 width="101.000000pt" height="102.000000pt" viewBox="0 0 101.000000 102.000000"
 preserveAspectRatio="xMidYMid meet">
<metadata>
Created by potrace 1.16, written by Peter Selinger 2001-2019
</metadata>
<g transform="translate(0.000000,102.000000) scale(0.100000,-0.100000)"
fill="#000000" stroke="none">
<path d="M206 950 c-23 -89 -91 -230 -145 -297 l-41 -53 22 -45 c13 -24 26
-45 30 -45 5 0 21 19 38 42 l30 41 0 -136 c0 -95 3 -137 11 -137 11 0 7 -115
-7 -196 -7 -36 7 -43 69 -36 36 4 37 5 31 37 -3 18 -1 42 6 54 9 17 8 28 -4
53 -18 35 -22 118 -6 118 6 0 10 23 10 50 0 28 -4 50 -10 50 -5 0 -10 11 -10
25 0 14 5 25 10 25 6 0 10 30 10 70 0 40 -4 70 -10 70 -5 0 -10 11 -10 25 0
14 5 25 10 25 6 0 10 23 10 51 0 51 45 176 76 210 20 23 18 28 -18 43 -81 33
-82 33 -102 -44z"/>
<path d="M348 949 c-13 -7 -18 -23 -18 -54 0 -25 5 -45 10 -45 6 0 10 -16 10
-35 0 -19 -4 -35 -10 -35 -6 0 -10 -30 -10 -70 0 -40 4 -70 10 -70 6 0 10 -11
10 -25 0 -14 -4 -25 -10 -25 -6 0 -10 -40 -10 -100 0 -60 4 -100 10 -100 6 0
10 -30 10 -70 0 -45 -4 -70 -11 -70 -7 0 -9 -12 -5 -34 4 -18 2 -45 -3 -60
-19 -49 3 -66 71 -58 l36 4 0 79 c0 43 -4 82 -9 85 -12 7 -11 51 1 59 12 7 12
153 0 160 -12 7 -11 146 0 160 6 7 9 58 8 116 l-3 104 190 0 190 1 -3 -48 c-2
-27 1 -54 7 -62 12 -14 13 -153 1 -161 -12 -7 -12 -153 0 -160 13 -8 13 -52 0
-60 -7 -4 -9 -36 -6 -86 6 -91 -1 -99 -70 -92 l-41 4 26 -55 c14 -30 34 -56
43 -59 10 -3 40 2 68 10 72 21 70 15 70 268 0 50 0 145 0 213 1 67 1 139 1
160 0 20 1 76 3 123 l3 87 -39 6 c-21 4 -47 2 -57 -3 -17 -10 -350 -7 -421 4
-19 3 -43 0 -52 -6z"/>
<path d="M478 783 c-20 -5 -32 -36 -23 -62 6 -21 -3 -20 265 -20 54 0 70 9 70
39 0 40 -14 44 -157 45 -76 1 -146 0 -155 -2z"/>
<path d="M497 623 c-3 -4 -5 -79 -4 -166 0 -135 3 -157 17 -162 24 -8 100 -3
106 7 3 5 34 5 69 2 63 -7 64 -6 71 20 3 14 2 32 -4 39 -7 8 -7 49 -1 126 5
62 6 117 4 122 -3 5 -50 8 -103 8 -53 0 -109 3 -123 7 -15 3 -29 2 -32 -3z
m160 -163 l1 -75 -36 0 -37 0 0 75 0 76 35 -1 35 0 2 -75z"/>
</g>
</svg>
