<?xml version="1.0" standalone="no"?>
<!DOCTYPE svg PUBLIC "-//W3C//DTD SVG 20010904//EN"
 "http://www.w3.org/TR/2001/REC-SVG-20010904/DTD/svg10.dtd">
<svg version="1.0" xmlns="http://www.w3.org/2000/svg"
 width="101.000000pt" height="102.000000pt" viewBox="0 0 101.000000 102.000000"
 preserveAspectRatio="xMidYMid meet">
<metadata>
Created by potrace 1.16, written by Peter Selinger 2001-2019
</metadata>
<g transform="translate(0.000000,102.000000) scale(0.100000,-0.100000)"
fill="#000000" stroke="none">
<path d="M209 977 c-6 -23 -16 -48 -21 -55 -6 -7 -8 -15 -5 -18 15 -16 -87
-212 -149 -287 l-24 -29 22 -28 c13 -15 28 -35 34 -45 9 -16 16 -9 55 51 l44
70 2 -126 c4 -211 3 -290 -7 -315 -6 -17 -6 -33 2 -50 8 -18 8 -28 -1 -38 -15
-19 8 -26 63 -19 l38 4 -6 42 -6 41 25 -30 c14 -16 25 -36 25 -42 0 -18 18
-16 70 8 51 23 114 80 138 124 19 36 42 132 36 149 -3 8 9 12 35 13 44 2 40
14 44 -132 2 -49 7 -100 11 -113 10 -29 50 -46 75 -32 10 5 47 7 82 4 56 -5
67 -3 92 16 43 34 83 130 54 130 -7 0 -29 11 -48 26 l-34 25 -14 -48 c-18 -66
-26 -73 -78 -71 -55 3 -63 18 -57 104 2 32 4 69 5 82 1 16 6 22 16 18 8 -3 23
-1 35 5 15 8 28 7 54 -6 26 -12 38 -13 55 -5 11 7 31 9 44 6 19 -5 24 -1 28
20 8 42 -2 66 -25 58 -11 -3 -30 -3 -43 0 -22 6 -22 7 15 44 38 38 62 93 44
99 -6 2 -26 14 -45 27 l-34 24 -15 -41 c-14 -39 -17 -41 -57 -40 -40 0 -93 24
-93 41 0 9 136 87 168 97 31 9 28 28 -13 64 l-36 31 -62 -49 c-58 -45 -98 -71
-111 -71 -5 0 -46 74 -46 83 0 3 20 2 43 0 30 -4 54 0 77 12 18 9 45 19 59 21
14 2 37 6 51 9 44 8 75 13 82 14 9 1 2 66 -8 82 -3 6 -17 8 -33 4 -50 -13
-105 -25 -141 -31 -14 -2 -36 -6 -50 -9 -14 -3 -34 -6 -45 -6 -10 0 -25 -5
-33 -11 -21 -18 -31 7 -26 68 l4 52 -34 6 c-19 4 -46 4 -60 0 -21 -5 -24 -10
-20 -37 3 -18 6 -43 8 -57 2 -14 6 -32 10 -40 6 -15 0 -17 -61 -20 -10 -1 -37
-6 -60 -12 -39 -10 -43 -13 -43 -42 0 -52 11 -59 61 -46 24 7 55 12 69 12 14
0 32 4 41 9 12 6 21 -4 42 -47 l27 -55 -32 -14 c-18 -7 -36 -11 -40 -9 -5 3
-14 2 -20 -3 -15 -9 -36 -14 -58 -14 -8 -1 -22 -3 -30 -6 -8 -3 -24 -8 -34
-10 -30 -5 -30 -8 0 -53 32 -48 27 -48 168 5 l88 33 56 -39 c31 -22 76 -45
100 -51 38 -9 42 -12 26 -21 -26 -15 -321 -11 -451 6 -36 4 -43 -8 -36 -60 6
-35 34 -49 65 -32 11 6 37 8 58 4 l38 -6 -3 -45 c-5 -82 -70 -149 -162 -169
l-32 -6 6 130 c4 96 3 131 -5 131 -7 0 -12 18 -12 45 0 25 5 45 10 45 6 0 10
30 10 70 0 40 -4 70 -10 70 -12 0 -14 147 -1 152 7 2 55 88 79 140 3 7 -38 31
-83 48 -23 9 -25 7 -36 -33z"/>
</g>
</svg>
