<?xml version="1.0" standalone="no"?>
<!DOCTYPE svg PUBLIC "-//W3C//DTD SVG 20010904//EN"
 "http://www.w3.org/TR/2001/REC-SVG-20010904/DTD/svg10.dtd">
<svg version="1.0" xmlns="http://www.w3.org/2000/svg"
 width="101.000000pt" height="101.000000pt" viewBox="0 0 101.000000 101.000000"
 preserveAspectRatio="xMidYMid meet">
<metadata>
Created by potrace 1.16, written by Peter Selinger 2001-2019
</metadata>
<g transform="translate(0.000000,101.000000) scale(0.100000,-0.100000)"
fill="#000000" stroke="none">
<path d="M189 963 c-7 -21 -14 -42 -15 -48 -7 -41 -76 -189 -114 -247 l-47
-72 26 -37 c14 -21 28 -38 31 -39 3 0 16 21 30 47 21 40 26 44 28 25 2 -12 8
-22 13 -22 5 0 9 -34 9 -75 0 -47 -4 -75 -11 -75 -7 0 -9 -40 -7 -123 2 -67 0
-131 -4 -142 -12 -33 6 -49 53 -48 46 2 62 16 56 51 l-4 22 42 -24 42 -25 55
57 c92 95 118 158 111 266 -4 50 -2 76 5 76 7 0 9 17 5 50 -3 29 -1 55 5 63
11 13 14 156 3 158 -38 7 -77 5 -83 -5 -11 -17 -10 -104 2 -111 13 -8 13 -52
0 -60 -5 -3 -9 -45 -8 -93 2 -99 -6 -151 -32 -202 -19 -36 -90 -109 -127 -128
-18 -10 -20 -8 -15 13 2 14 -1 32 -8 40 -17 20 -26 190 -12 208 13 15 14 115
1 123 -12 7 -11 51 1 59 6 4 10 41 9 88 -2 70 1 89 22 127 l24 45 3 -37 c2
-21 7 -38 13 -38 5 0 9 -16 9 -35 0 -19 -4 -35 -10 -35 -6 0 -10 -30 -10 -70
0 -40 4 -70 10 -70 6 0 10 -11 10 -25 0 -14 -5 -25 -11 -25 -8 0 -10 -20 -7
-64 3 -36 1 -69 -4 -74 -25 -25 35 -62 80 -48 15 5 18 19 20 101 1 52 -2 97
-7 100 -13 7 -13 146 0 161 6 8 9 35 7 61 l-3 48 83 2 82 1 0 -44 c0 -24 5
-44 10 -44 6 0 10 -11 10 -25 0 -14 -4 -25 -10 -25 -6 0 -10 -30 -10 -70 0
-40 4 -70 10 -70 6 0 10 -11 10 -25 0 -14 -5 -25 -11 -25 -8 0 -9 -11 -5 -31
3 -18 1 -38 -5 -45 -19 -24 -2 -62 31 -69 61 -13 65 -7 67 119 2 67 -2 118 -7
121 -13 8 -13 52 0 60 7 4 10 53 9 126 l-2 119 -119 -6 c-76 -4 -123 -2 -131
4 -7 6 -28 10 -47 10 -19 -1 -36 4 -38 11 -3 10 -82 51 -97 51 -2 0 -9 -17
-16 -37z"/>
<path d="M825 990 c-11 -5 -14 -9 -7 -9 15 -1 17 -111 2 -111 -5 0 -10 -18
-10 -40 0 -22 5 -40 10 -40 6 0 10 -33 10 -80 0 -47 -4 -80 -10 -80 -6 0 -10
-30 -10 -70 0 -40 4 -70 10 -70 6 0 10 -11 10 -25 0 -14 -5 -25 -11 -25 -7 0
-10 -37 -8 -111 l3 -111 -37 -3 c-21 -1 -39 -4 -41 -6 -2 -2 3 -27 12 -55 16
-48 19 -52 47 -49 45 4 105 36 110 60 5 20 7 233 5 420 -1 150 7 372 14 384 4
6 -4 15 -19 21 -31 12 -53 12 -80 0z"/>
<path d="M698 893 c-24 -6 -28 -45 -22 -203 2 -74 4 -181 4 -237 -1 -101 -1
-102 24 -109 46 -11 88 19 69 49 -8 13 -13 65 -13 132 2 154 8 304 14 326 6
21 3 27 -19 37 -27 12 -29 13 -57 5z"/>
<path d="M505 356 c-22 -18 -27 -27 -19 -37 6 -8 32 -40 57 -71 25 -31 50 -65
55 -74 9 -17 13 -16 51 10 35 25 39 31 29 45 -33 42 -131 151 -137 151 -3 0
-19 -11 -36 -24z"/>
</g>
</svg>
