<?xml version="1.0" standalone="no"?>
<!DOCTYPE svg PUBLIC "-//W3C//DTD SVG 20010904//EN"
 "http://www.w3.org/TR/2001/REC-SVG-20010904/DTD/svg10.dtd">
<svg version="1.0" xmlns="http://www.w3.org/2000/svg"
 width="101.000000pt" height="102.000000pt" viewBox="0 0 101.000000 102.000000"
 preserveAspectRatio="xMidYMid meet">
<metadata>
Created by potrace 1.16, written by Peter Selinger 2001-2019
</metadata>
<g transform="translate(0.000000,102.000000) scale(0.100000,-0.100000)"
fill="#000000" stroke="none">
<path d="M253 1003 c-48 -135 -100 -234 -176 -337 -63 -85 -63 -85 -19 -144
l17 -22 50 73 50 74 3 -111 c5 -175 4 -347 -2 -398 -6 -45 -6 -46 24 -53 63
-14 66 -8 68 134 1 79 -2 132 -8 136 -13 8 -13 52 0 60 13 8 13 142 1 150 -13
7 -13 173 -1 180 6 4 9 18 8 33 -2 31 38 114 76 160 15 16 26 33 26 36 0 7
-45 27 -88 40 -16 6 -24 3 -29 -11z"/>
<path d="M578 1013 c-19 -5 -25 -33 -8 -33 11 0 13 -50 4 -125 l-6 -50 -44 4
c-28 2 -44 -1 -44 -8 0 -6 -16 -11 -35 -11 -19 0 -35 5 -35 10 0 6 -20 10 -45
10 -40 0 -47 -3 -55 -26 -13 -34 -13 -40 6 -58 17 -18 109 -22 119 -6 7 11 57
13 101 4 l29 -6 2 -97 1 -97 -60 -44 c-51 -38 -95 -66 -218 -138 -11 -7 -7
-17 25 -55 l40 -46 45 43 c60 56 150 130 154 125 2 -2 6 -50 10 -106 7 -116 3
-122 -67 -117 -33 3 -38 0 -32 -14 4 -9 11 -32 17 -49 8 -30 23 -40 53 -33 6
1 18 4 28 6 10 2 33 12 50 22 l32 18 -3 162 c-2 110 0 162 7 162 6 0 11 8 11
17 0 10 15 -15 34 -54 30 -63 154 -213 176 -213 3 0 12 11 19 24 7 13 24 30
37 37 32 16 30 21 -12 44 -40 22 -154 139 -154 159 0 8 32 43 70 80 39 36 70
70 70 76 0 16 -83 67 -87 53 -7 -21 -86 -123 -95 -123 -4 0 -8 6 -9 13 0 6 -2
19 -4 27 -2 8 -7 26 -10 40 -17 68 -16 70 31 70 24 0 44 5 44 10 0 6 11 10 25
10 14 0 25 -4 25 -10 0 -17 97 -12 114 6 21 20 20 48 -1 69 -13 13 -28 16 -67
12 l-51 -5 35 30 35 29 -57 54 c-31 30 -60 55 -65 55 -4 0 -21 -11 -38 -24
l-29 -23 47 -53 c26 -29 47 -56 47 -61 0 -5 -31 -7 -69 -6 l-68 2 3 79 c2 43
6 87 9 97 10 29 -35 46 -87 32z"/>
<path d="M375 660 c-16 -11 -30 -23 -30 -27 0 -14 90 -153 99 -153 5 0 24 9
43 21 l33 21 -22 36 c-40 67 -79 122 -86 122 -4 0 -20 -9 -37 -20z"/>
</g>
</svg>
