<?xml version="1.0" standalone="no"?>
<!DOCTYPE svg PUBLIC "-//W3C//DTD SVG 20010904//EN"
 "http://www.w3.org/TR/2001/REC-SVG-20010904/DTD/svg10.dtd">
<svg version="1.0" xmlns="http://www.w3.org/2000/svg"
 width="101.000000pt" height="101.000000pt" viewBox="0 0 101.000000 101.000000"
 preserveAspectRatio="xMidYMid meet">
<metadata>
Created by potrace 1.16, written by Peter Selinger 2001-2019
</metadata>
<g transform="translate(0.000000,101.000000) scale(0.100000,-0.100000)"
fill="#000000" stroke="none">
<path d="M210 995 c0 -21 -1 -27 -12 -55 -5 -14 -12 -36 -14 -50 -9 -46 -69
-164 -120 -236 l-51 -71 32 -38 33 -38 14 24 c8 13 25 40 36 59 l22 35 0 -45
c0 -25 2 -143 3 -262 2 -238 0 -230 65 -220 23 3 32 10 32 23 0 10 -4 21 -10
24 -13 8 -13 52 -1 60 5 3 9 30 8 60 -2 61 4 67 29 29 22 -33 29 -26 93 96 54
101 55 101 51 -6 -1 -23 3 -45 9 -49 14 -8 14 -68 0 -82 -8 -8 -7 -17 2 -32
11 -17 11 -28 -3 -64 -17 -48 -13 -65 17 -68 66 -7 85 14 60 64 -18 37 -20
143 -2 151 10 5 10 7 0 12 -15 7 -18 74 -4 74 6 0 11 17 13 38 l3 37 30 -45
c16 -25 31 -47 33 -50 2 -2 21 5 42 18 l40 22 -6 -29 c-13 -65 12 -95 69 -84
24 5 25 6 32 141 5 97 4 137 -4 140 -13 4 -15 149 -2 154 4 2 10 24 13 50 5
43 4 47 -22 58 -40 16 -78 4 -84 -28 -5 -30 0 -164 10 -255 3 -32 3 -74 0 -93
l-7 -34 -55 60 c-47 50 -59 58 -74 50 -26 -14 -26 -15 -22 33 l4 42 51 -2 c56
-1 67 6 67 49 0 36 -30 52 -87 45 l-44 -5 7 72 c4 39 8 73 11 75 7 8 37 13 73
12 20 -1 44 4 53 11 16 12 14 17 -22 58 -30 35 -41 42 -52 34 -20 -16 -126
-54 -132 -47 -3 3 -12 1 -19 -3 -13 -8 -25 -11 -90 -17 -43 -5 -46 0 -18 36
11 14 20 28 20 32 0 9 -81 45 -102 45 -10 0 -18 -7 -18 -15z m93 -161 c13 -27
22 -34 36 -29 11 3 28 8 38 10 10 2 25 6 33 9 12 5 15 -5 15 -56 l0 -63 -75 3
-75 3 0 -45 c-1 -44 1 -46 32 -52 18 -4 44 -4 58 -2 15 3 25 1 25 -6 0 -21
-68 -147 -107 -197 l-38 -50 -9 146 c-6 105 -5 153 3 169 6 11 10 44 9 71 -2
50 17 125 31 125 4 0 15 -16 24 -36z"/>
<path d="M805 935 c-3 -16 -3 -77 1 -135 3 -58 5 -150 4 -205 -1 -55 -2 -165
-3 -245 l-2 -145 -52 2 c-29 1 -53 0 -53 -1 0 -2 7 -20 15 -40 8 -19 15 -39
14 -43 -5 -33 30 -38 109 -14 54 16 62 27 55 77 -3 26 -1 49 5 57 13 15 14
115 1 123 -12 7 -11 51 1 59 12 7 12 153 0 160 -12 7 -11 153 1 160 5 4 10 32
10 63 -1 32 1 78 4 105 4 34 2 47 -7 48 -88 7 -98 5 -103 -26z"/>
</g>
</svg>
