<?xml version="1.0" standalone="no"?>
<!DOCTYPE svg PUBLIC "-//W3C//DTD SVG 20010904//EN"
 "http://www.w3.org/TR/2001/REC-SVG-20010904/DTD/svg10.dtd">
<svg version="1.0" xmlns="http://www.w3.org/2000/svg"
 width="101.000000pt" height="101.000000pt" viewBox="0 0 101.000000 101.000000"
 preserveAspectRatio="xMidYMid meet">
<metadata>
Created by potrace 1.16, written by Peter Selinger 2001-2019
</metadata>
<g transform="translate(0.000000,101.000000) scale(0.100000,-0.100000)"
fill="#000000" stroke="none">
<path d="M529 969 c-20 -49 -125 -156 -165 -169 -27 -9 -34 -16 -29 -29 4 -9
9 -26 10 -38 5 -33 15 -45 34 -38 9 4 26 8 38 9 20 3 21 2 7 -36 -15 -43 -61
-113 -93 -142 -28 -25 -27 -29 12 -46 l32 -14 -42 -3 c-47 -5 -57 -19 -47 -69
l6 -33 119 3 c65 2 119 0 119 -4 0 -4 -13 -25 -28 -46 -32 -43 -100 -84 -179
-108 -51 -14 -53 -14 -53 5 0 10 -4 19 -10 19 -5 0 -10 11 -10 25 0 14 5 25
10 25 6 0 10 30 10 70 0 40 -4 70 -10 70 -6 0 -10 33 -10 80 0 47 4 80 10 80
6 0 10 18 10 40 0 22 -4 40 -10 40 -5 0 -10 25 -10 55 0 30 4 55 8 55 5 0 19
24 33 52 13 29 37 67 53 85 l28 33 -56 25 c-31 14 -60 25 -64 25 -5 0 -18 -33
-31 -72 -33 -106 -85 -208 -141 -283 l-50 -65 22 -45 c12 -25 24 -45 27 -45 4
0 24 26 46 58 l40 59 0 -246 1 -246 36 -3 c40 -3 68 17 68 51 1 20 3 19 30
-10 16 -18 36 -33 43 -33 7 0 45 15 84 34 79 38 146 99 165 152 14 40 24 43
32 9 10 -38 108 -137 170 -170 l56 -30 44 50 44 50 -27 8 c-14 4 -37 10 -51
13 -40 8 -104 50 -141 91 l-33 38 102 5 c112 5 124 12 120 65 -2 23 -7 30 -23
28 -11 -1 -74 -5 -139 -9 l-119 -7 7 29 c6 24 12 52 15 74 1 7 110 3 142 -5
42 -11 66 21 53 70 -5 20 -12 21 -174 20 l-169 0 22 23 c20 22 21 25 5 36 -14
11 -13 13 13 25 38 17 239 8 251 -11 24 -41 24 -41 67 -19 22 12 41 25 41 30
0 6 -119 181 -136 200 -5 6 -48 -7 -68 -22 -18 -13 -17 -15 13 -58 l32 -44
-53 -8 c-29 -4 -73 -5 -98 -2 -25 3 -62 7 -83 8 l-38 1 58 53 c32 30 75 65 95
79 42 30 41 38 -6 58 -69 29 -72 29 -87 -5z m22 -447 c1 -10 0 -21 -1 -27 -1
-5 -3 -17 -4 -25 0 -8 -5 -18 -11 -22 -11 -9 -155 -11 -155 -3 0 3 16 27 35
53 35 46 36 47 85 44 38 -3 50 -8 51 -20z"/>
</g>
</svg>
