<?xml version="1.0" standalone="no"?>
<!DOCTYPE svg PUBLIC "-//W3C//DTD SVG 20010904//EN"
 "http://www.w3.org/TR/2001/REC-SVG-20010904/DTD/svg10.dtd">
<svg version="1.0" xmlns="http://www.w3.org/2000/svg"
 width="101.000000pt" height="101.000000pt" viewBox="0 0 101.000000 101.000000"
 preserveAspectRatio="xMidYMid meet">
<metadata>
Created by potrace 1.16, written by Peter Selinger 2001-2019
</metadata>
<g transform="translate(0.000000,101.000000) scale(0.100000,-0.100000)"
fill="#000000" stroke="none">
<path d="M488 912 c-50 -103 -129 -203 -192 -241 -18 -12 -36 -21 -39 -21 -2
0 -3 33 -2 73 4 74 36 170 72 209 20 22 18 24 -44 48 l-50 19 -22 -72 c-32
-100 -89 -220 -144 -301 l-46 -69 27 -38 c15 -21 29 -39 32 -39 3 0 20 26 37
58 l33 57 1 -50 c0 -27 0 -73 -1 -101 -1 -29 3 -55 9 -59 12 -7 13 -143 3
-160 -4 -5 -7 -38 -7 -72 0 -68 5 -74 62 -66 31 5 32 6 37 77 3 39 4 107 1
151 -5 85 -5 103 -2 231 l2 82 38 -30 c41 -33 40 -33 99 20 25 23 26 23 32 4
6 -19 15 -20 176 -18 132 1 171 4 175 14 3 8 2 18 -1 23 -3 5 23 -6 59 -26
l64 -35 30 49 31 49 -47 18 c-100 37 -178 102 -237 196 -25 39 -31 56 -33 85
-1 12 -60 33 -91 33 -9 0 -34 -39 -62 -98z m199 -172 l43 -48 -33 -5 c-57 -10
-170 -7 -184 4 -7 6 -22 9 -32 6 -16 -4 -14 3 14 47 18 28 45 75 60 105 l27
54 31 -58 c17 -32 51 -79 74 -105z"/>
<path d="M534 547 c-10 -5 -20 -11 -22 -12 -1 -1 2 -15 8 -31 12 -31 29 -104
34 -144 2 -14 4 -28 5 -32 3 -16 42 -18 70 -4 27 14 29 18 21 48 -5 18 -11 44
-14 58 -3 14 -8 36 -11 50 -4 14 -7 32 -7 40 -2 36 -43 49 -84 27z"/>
<path d="M745 533 c-5 -16 -9 -34 -11 -41 -1 -8 -6 -21 -10 -30 -4 -9 -8 -25
-9 -35 -1 -10 -17 -58 -36 -107 -31 -83 -35 -90 -64 -95 -30 -4 -102 -1 -160
9 -141 22 -160 18 -158 -39 1 -43 5 -47 35 -46 13 1 68 2 123 2 55 0 129 0
165 0 36 0 117 0 181 -1 l116 -1 5 26 c11 56 1 65 -66 65 -70 -1 -116 1 -116
5 0 8 94 224 106 242 20 31 19 32 -28 53 -57 26 -64 25 -73 -7z"/>
<path d="M377 518 c-30 -8 -37 -14 -31 -27 8 -18 35 -108 39 -131 9 -50 18
-80 24 -80 3 0 23 5 44 11 34 9 37 13 35 42 -3 43 -52 190 -64 193 -5 1 -26
-3 -47 -8z"/>
</g>
</svg>
