<?xml version="1.0" standalone="no"?>
<!DOCTYPE svg PUBLIC "-//W3C//DTD SVG 20010904//EN"
 "http://www.w3.org/TR/2001/REC-SVG-20010904/DTD/svg10.dtd">
<svg version="1.0" xmlns="http://www.w3.org/2000/svg"
 width="101.000000pt" height="101.000000pt" viewBox="0 0 101.000000 101.000000"
 preserveAspectRatio="xMidYMid meet">
<metadata>
Created by potrace 1.16, written by Peter Selinger 2001-2019
</metadata>
<g transform="translate(0.000000,101.000000) scale(0.100000,-0.100000)"
fill="#000000" stroke="none">
<path d="M220 995 c0 -8 0 -16 0 -17 0 -2 -11 -36 -25 -77 -28 -85 -70 -163
-126 -238 -22 -29 -39 -55 -39 -59 0 -4 12 -27 26 -52 l26 -45 34 54 c26 41
34 49 34 32 0 -13 5 -23 10 -23 6 0 10 -32 10 -75 0 -50 -4 -75 -11 -75 -9 0
-10 -32 -5 -118 4 -74 3 -128 -3 -145 -19 -49 4 -69 67 -59 26 3 31 8 27 23
-3 10 -2 27 4 37 7 14 6 33 -6 70 -14 42 -14 58 -5 89 7 21 10 62 7 93 -3 30
-6 71 -5 90 0 19 2 94 4 165 2 123 4 133 33 191 17 33 38 66 47 73 28 23 18
38 -40 60 -66 25 -64 25 -64 6z"/>
<path d="M700 954 c-51 -14 -123 -18 -134 -6 -4 4 -48 7 -97 7 -84 0 -90 -1
-95 -22 -3 -12 -3 -27 1 -33 4 -6 7 -69 6 -140 0 -78 4 -132 10 -135 10 -7 11
-84 2 -165 l-5 -45 -58 3 c-58 4 -58 3 -65 -27 -13 -62 -3 -70 86 -69 44 0 82
4 84 8 7 12 173 12 180 1 7 -13 85 -11 105 2 12 7 50 6 121 -1 115 -12 124 -9
114 42 -7 38 -6 37 -60 43 l-45 6 -1 51 c-1 28 0 61 0 73 1 11 -2 24 -7 27
-14 8 -14 153 -1 161 5 4 10 32 10 63 0 32 2 77 5 101 5 36 3 47 -12 58 -22
16 -83 15 -144 -3z m56 -109 l-1 -30 -72 3 c-48 2 -73 0 -73 -7 0 -6 -11 -11
-25 -11 -14 0 -25 5 -25 10 0 6 -18 10 -40 10 -28 0 -40 4 -40 14 0 8 -2 20
-5 28 -4 10 23 13 138 13 l143 1 0 -31z m-20 -95 c18 0 22 -5 20 -32 0 -18 -5
-36 -11 -40 -15 -12 -143 -9 -150 2 -4 6 -32 9 -63 8 l-57 -3 0 30 0 30 77 -3
c50 -2 79 1 83 8 5 8 21 10 44 6 20 -3 46 -6 57 -6z m-84 -136 l104 -7 0 -35
-1 -34 -74 6 c-41 3 -102 6 -136 6 l-63 0 -4 35 c-4 34 -3 35 32 35 20 0 84
-3 142 -6z m104 -170 c-1 -32 -3 -34 -44 -40 -26 -4 -52 -2 -65 5 -13 7 -54
10 -97 9 l-75 -3 -1 30 0 30 141 2 141 1 0 -34z"/>
<path d="M467 292 c-15 -16 -61 -51 -102 -77 -41 -27 -75 -52 -74 -55 0 -3 15
-17 33 -32 l34 -28 100 75 c55 41 105 75 111 75 22 0 10 20 -26 45 -21 14 -40
25 -43 25 -4 0 -18 -13 -33 -28z"/>
<path d="M685 290 c-16 -16 -27 -31 -24 -33 2 -2 38 -27 79 -55 41 -28 87 -60
101 -71 l26 -20 36 37 37 38 -110 67 c-61 37 -112 67 -113 67 -2 0 -16 -13
-32 -30z"/>
</g>
</svg>
