<?xml version="1.0" standalone="no"?>
<!DOCTYPE svg PUBLIC "-//W3C//DTD SVG 20010904//EN"
 "http://www.w3.org/TR/2001/REC-SVG-20010904/DTD/svg10.dtd">
<svg version="1.0" xmlns="http://www.w3.org/2000/svg"
 width="101.000000pt" height="101.000000pt" viewBox="0 0 101.000000 101.000000"
 preserveAspectRatio="xMidYMid meet">
<metadata>
Created by potrace 1.16, written by Peter Selinger 2001-2019
</metadata>
<g transform="translate(0.000000,101.000000) scale(0.100000,-0.100000)"
fill="#000000" stroke="none">
<path d="M217 983 c-3 -16 -6 -32 -7 -38 -2 -5 -7 -21 -12 -35 -5 -14 -12 -36
-14 -49 -13 -66 -72 -183 -137 -269 l-40 -53 29 -32 c16 -18 32 -36 35 -40 4
-5 25 22 48 60 39 65 41 66 41 36 0 -18 5 -33 10 -33 15 0 12 -67 -2 -74 -10
-5 -10 -7 0 -12 15 -7 17 -164 2 -164 -5 0 -10 -18 -10 -40 0 -22 5 -40 10
-40 14 0 13 -56 -2 -80 -7 -10 -9 -22 -5 -27 8 -7 86 -8 93 0 2 2 7 65 11 140
4 101 3 137 -5 137 -7 0 -12 18 -12 45 0 25 5 45 10 45 6 0 10 30 10 70 0 40
-4 70 -10 70 -6 0 -10 32 -10 75 0 43 4 75 10 75 6 0 10 17 10 38 0 37 48 154
69 166 22 14 10 26 -41 41 -69 20 -75 19 -81 -12z"/>
<path d="M486 1003 c-17 -5 -18 -12 -13 -87 l6 -81 -47 2 c-26 1 -57 5 -69 9
-27 8 -47 -25 -38 -64 5 -26 7 -27 77 -27 l71 0 1 -65 1 -65 -45 1 c-25 1 -49
3 -55 4 -24 6 -34 -2 -40 -30 -13 -59 -2 -68 74 -66 77 2 72 8 73 -87 0 -26
-2 -51 -6 -54 -8 -8 -62 -8 -127 1 -52 7 -60 -3 -52 -60 4 -26 9 -30 32 -29
15 1 33 5 39 9 6 4 34 4 61 0 l49 -6 -4 -52 c-2 -28 -5 -72 -7 -98 -4 -53 3
-58 66 -50 45 5 50 19 42 117 -4 39 -6 108 -6 155 1 73 1 147 2 368 0 86 7
208 13 222 5 11 -3 19 -27 28 -35 12 -40 13 -71 5z"/>
<path d="M656 994 c-18 -17 -21 -50 -6 -59 12 -7 12 -173 -1 -180 -12 -8 -12
-142 1 -150 13 -8 13 -52 0 -60 -13 -8 -12 -213 1 -221 11 -6 5 -154 -7 -195
-6 -20 18 -27 68 -21 36 4 36 4 37 51 0 25 0 55 2 66 1 11 -1 35 -5 54 -5 27
-4 32 8 28 8 -3 28 -1 44 5 22 9 39 8 74 -4 53 -19 65 -14 69 27 5 72 -9 84
-73 58 -32 -13 -47 -14 -70 -5 -16 6 -35 9 -43 6 -18 -7 -30 67 -16 95 6 11 9
26 6 33 -4 10 14 13 80 13 81 0 86 1 92 23 3 12 2 33 -1 46 -6 23 -10 24 -88
25 -44 0 -82 2 -83 3 -1 2 1 26 3 54 l4 51 89 5 c50 3 92 8 94 10 3 2 8 18 11
35 8 40 -17 66 -51 53 -13 -5 -53 -8 -87 -7 l-63 2 3 30 c5 62 10 90 17 107 5
13 -1 19 -32 27 -50 14 -59 14 -77 -5z"/>
</g>
</svg>
