<?xml version="1.0" standalone="no"?>
<!DOCTYPE svg PUBLIC "-//W3C//DTD SVG 20010904//EN"
 "http://www.w3.org/TR/2001/REC-SVG-20010904/DTD/svg10.dtd">
<svg version="1.0" xmlns="http://www.w3.org/2000/svg"
 width="101.000000pt" height="101.000000pt" viewBox="0 0 101.000000 101.000000"
 preserveAspectRatio="xMidYMid meet">
<metadata>
Created by potrace 1.16, written by Peter Selinger 2001-2019
</metadata>
<g transform="translate(0.000000,101.000000) scale(0.100000,-0.100000)"
fill="#000000" stroke="none">
<path d="M215 993 c-4 -10 -9 -27 -11 -38 -1 -11 -6 -31 -9 -45 -3 -14 -8 -36
-11 -50 -14 -67 -76 -186 -148 -285 -14 -18 -12 -23 20 -58 20 -21 37 -37 38
-35 2 2 19 32 39 67 27 50 35 59 36 40 2 -23 2 -154 2 -286 0 -35 1 -84 2
-110 1 -27 -2 -58 -6 -69 -9 -26 9 -33 64 -26 l36 4 -9 40 c-5 22 -6 79 -3
127 3 47 6 96 6 109 1 29 13 28 37 -3 11 -14 23 -25 28 -25 4 0 30 19 58 42
27 23 47 35 44 27 -3 -9 -3 -21 2 -28 7 -13 20 -14 90 -9 32 3 34 1 36 -29 1
-27 -2 -33 -25 -37 -26 -5 -92 -2 -167 8 -46 6 -56 -7 -47 -58 5 -25 8 -26 53
-23 26 2 52 7 57 10 6 4 38 4 71 1 l61 -7 -5 -31 c-16 -109 -5 -131 59 -119
23 5 25 9 26 57 0 86 2 94 25 95 67 5 155 3 182 -3 29 -7 32 -6 36 19 3 15 3
36 0 47 -4 16 -10 18 -31 12 -14 -5 -57 -7 -96 -6 -115 2 -112 1 -112 32 0 30
0 30 85 33 34 1 42 5 42 20 0 10 3 17 8 15 4 -2 32 -16 62 -32 51 -27 55 -27
65 -11 5 10 20 30 33 46 25 30 20 38 -29 44 -37 5 -105 44 -137 78 l-24 25 24
2 c13 1 53 1 89 1 59 -1 67 1 72 19 3 11 3 29 0 39 -7 28 -94 38 -145 17 -26
-11 -56 -14 -105 -11 -37 3 -78 6 -90 6 -25 1 -26 3 -17 34 5 21 15 21 227 12
33 -1 51 3 58 13 11 18 2 62 -14 72 -14 9 -111 11 -120 2 -3 -3 -32 -7 -64 -8
-57 -1 -59 0 -55 24 l4 25 112 -1 c62 -1 122 -5 134 -8 23 -8 52 16 52 42 -1
41 -13 45 -152 46 l-134 1 4 30 c3 17 9 36 15 43 12 15 12 14 -34 30 -56 19
-74 6 -74 -53 l0 -50 -108 0 c-112 0 -126 -5 -127 -47 0 -35 27 -48 93 -44 34
3 76 7 92 11 28 6 31 5 30 -20 l-2 -27 -91 -1 c-86 -2 -91 -3 -97 -25 -8 -31
12 -65 33 -57 15 6 142 13 142 8 0 -1 -5 -13 -11 -27 -12 -26 -39 -29 -102
-12 -41 12 -94 -1 -100 -24 -13 -49 24 -81 66 -59 10 6 35 8 54 4 l36 -6 -52
-53 c-29 -29 -70 -63 -90 -74 l-38 -22 -6 83 c-10 117 -9 175 3 182 5 3 9 34
8 68 -1 52 4 72 30 124 17 34 36 64 42 68 20 13 9 24 -42 41 -29 9 -58 19 -64
21 -6 2 -15 -4 -19 -14z m449 -425 c1 -2 19 -29 39 -61 29 -45 34 -59 23 -63
-8 -3 -23 -1 -34 5 -12 6 -27 8 -35 5 -11 -4 -14 3 -11 35 2 23 0 41 -4 42
-73 10 -90 8 -95 -12 -3 -12 -2 -32 4 -45 11 -30 -10 -42 -47 -26 -13 6 -32 8
-41 5 -14 -6 -13 -1 5 23 13 16 33 44 45 61 13 19 28 31 37 28 8 -2 22 0 30 6
13 8 79 6 84 -3z"/>
</g>
</svg>
