<?xml version="1.0" standalone="no"?>
<!DOCTYPE svg PUBLIC "-//W3C//DTD SVG 20010904//EN"
 "http://www.w3.org/TR/2001/REC-SVG-20010904/DTD/svg10.dtd">
<svg version="1.0" xmlns="http://www.w3.org/2000/svg"
 width="101.000000pt" height="102.000000pt" viewBox="0 0 101.000000 102.000000"
 preserveAspectRatio="xMidYMid meet">
<metadata>
Created by potrace 1.16, written by Peter Selinger 2001-2019
</metadata>
<g transform="translate(0.000000,102.000000) scale(0.100000,-0.100000)"
fill="#000000" stroke="none">
<path d="M217 1013 c-4 -8 -15 -47 -18 -68 -8 -61 -100 -245 -156 -313 l-34
-42 32 -35 c19 -19 37 -35 41 -35 4 0 18 19 32 43 l26 42 0 -45 c0 -25 2 -119
4 -210 2 -91 0 -174 -4 -186 -11 -29 -1 -71 19 -77 9 -2 31 -2 49 1 32 4 32 5
31 61 0 31 0 67 0 81 0 14 0 101 -2 193 l-2 168 30 -34 c28 -34 31 -35 53 -20
22 15 22 15 22 -21 0 -20 5 -36 10 -36 15 0 12 -67 -2 -74 -10 -5 -10 -7 0
-12 16 -8 17 -145 0 -162 -19 -19 2 -27 62 -24 23 2 25 6 24 46 -1 38 1 44 20
45 11 0 37 2 56 3 38 3 36 8 44 -98 3 -52 11 -63 52 -80 25 -10 40 -12 53 -4
11 5 62 8 115 6 105 -3 125 4 150 52 31 62 30 68 -20 96 -26 15 -48 25 -50 23
-2 -1 -6 -18 -9 -37 -8 -45 -17 -54 -65 -70 -31 -10 -46 -11 -66 -1 -14 6 -30
9 -35 6 -5 -3 -18 -1 -29 5 -15 8 -19 20 -18 54 2 47 -2 44 78 49 19 1 56 -1
81 -5 42 -7 47 -5 52 13 3 12 2 32 -3 45 -10 26 -14 131 -7 179 2 17 5 36 6
42 1 9 11 8 38 -5 27 -13 37 -14 40 -5 3 7 15 28 29 48 13 20 24 37 24 39 0 2
-21 9 -46 15 -79 20 -170 76 -193 120 -8 14 -2 16 47 15 32 0 73 -4 93 -8 41
-9 69 10 69 47 0 42 -15 52 -72 49 -29 -1 -101 -3 -159 -5 l-107 -2 25 49 c31
61 26 77 -21 69 -24 -4 -36 -2 -36 6 0 15 -40 14 -42 -1 0 -7 -2 -24 -4 -38
-2 -14 -5 -34 -8 -45 -2 -11 -5 -26 -5 -33 -1 -9 -19 -11 -73 -7 -40 3 -85 8
-100 11 -23 5 -29 2 -38 -21 -14 -36 -13 -51 6 -69 17 -18 81 -21 132 -7 27 8
31 7 24 -5 -26 -46 -142 -147 -209 -183 l-22 -11 4 96 c3 86 7 104 40 169 20
40 42 79 50 85 23 19 18 28 -22 45 -52 22 -80 28 -86 18z m438 -245 c9 -20 36
-60 61 -87 l46 -51 -50 0 c-28 0 -57 -3 -66 -6 -13 -5 -14 -1 -6 28 18 60 13
74 -29 88 -22 7 -47 10 -55 7 -18 -7 -22 -37 -5 -37 6 0 9 -17 7 -42 l-3 -42
-67 -1 -66 0 47 50 c27 28 59 69 74 91 22 35 30 40 60 40 31 -1 37 -6 52 -38z
m-110 -245 c-3 -37 -4 -38 -36 -35 -19 1 -43 3 -55 3 -16 1 -21 8 -21 30 0 27
2 28 56 32 31 2 56 4 57 5 0 1 0 -15 -1 -35z m201 -2 c-1 -35 -2 -36 -36 -33
-19 1 -44 3 -55 3 -16 1 -20 8 -20 33 0 31 0 31 56 32 l56 2 -1 -37z m-201
-126 c0 -40 0 -40 -35 -37 -19 1 -45 3 -56 3 -18 1 -22 7 -21 35 1 26 5 33 16
29 9 -2 23 0 31 5 8 6 26 9 40 8 22 -3 25 -8 25 -43z m200 0 c0 -40 0 -40 -35
-37 -19 1 -45 3 -56 3 -18 1 -22 7 -21 35 1 26 5 33 16 29 9 -2 23 0 31 5 8 6
26 9 40 8 22 -3 25 -8 25 -43z"/>
</g>
</svg>
