<?xml version="1.0" standalone="no"?>
<!DOCTYPE svg PUBLIC "-//W3C//DTD SVG 20010904//EN"
 "http://www.w3.org/TR/2001/REC-SVG-20010904/DTD/svg10.dtd">
<svg version="1.0" xmlns="http://www.w3.org/2000/svg"
 width="101.000000pt" height="101.000000pt" viewBox="0 0 101.000000 101.000000"
 preserveAspectRatio="xMidYMid meet">
<metadata>
Created by potrace 1.16, written by Peter Selinger 2001-2019
</metadata>
<g transform="translate(0.000000,101.000000) scale(0.100000,-0.100000)"
fill="#000000" stroke="none">
<path d="M582 997 c-18 -6 -31 -15 -28 -21 2 -6 11 -27 19 -46 l15 -35 -49 3
c-31 3 -49 0 -49 -7 0 -6 -16 -11 -35 -11 -19 0 -35 5 -35 10 0 6 -26 10 -57
10 l-56 0 22 24 c13 14 20 29 17 34 -8 14 -92 45 -106 40 -6 -2 -22 -36 -36
-76 -34 -102 -86 -201 -139 -266 -25 -31 -45 -59 -45 -63 1 -5 16 -25 33 -45
l33 -37 35 57 34 57 7 -245 c3 -135 4 -252 2 -261 -5 -20 19 -28 64 -21 28 4
31 7 26 32 -4 15 -1 37 5 48 8 15 7 32 -6 67 -12 38 -13 54 -4 83 6 21 9 62 6
92 -3 30 -6 71 -5 90 0 19 2 94 4 165 2 99 7 138 20 163 9 17 20 32 24 32 4 0
6 -34 5 -75 -2 -71 -1 -75 21 -81 13 -3 32 -5 42 -4 42 5 44 2 44 -75 0 -43
-4 -75 -10 -75 -6 0 -10 -30 -10 -70 0 -40 4 -70 10 -70 6 0 10 -20 10 -45 0
-25 -5 -45 -11 -45 -7 0 -9 -39 -7 -119 3 -131 4 -133 66 -123 32 4 38 17 34
73 -1 11 7 17 21 18 12 0 54 3 92 6 39 3 94 3 123 0 43 -5 52 -10 48 -23 -11
-34 12 -47 75 -44 l25 2 -8 82 c-6 55 -6 90 2 108 6 15 10 47 8 72 l-3 46 -72
6 c-42 4 -81 3 -91 -3 -29 -16 -142 -25 -142 -12 0 6 -16 11 -35 11 -24 0 -35
5 -35 14 0 8 -2 20 -5 28 -4 10 17 13 104 13 60 0 113 -3 117 -7 9 -9 86 -11
107 -2 12 4 14 17 10 60 -4 34 -2 59 6 68 7 8 10 37 9 69 -2 30 0 53 4 51 4
-2 24 -2 45 2 l38 6 1 84 c1 81 -2 90 -31 84 -38 -7 -222 -3 -223 5 0 6 -3 17
-5 25 -2 8 -7 29 -11 46 -8 35 -24 39 -84 21z m205 -184 c36 -4 42 -8 45 -34
3 -16 1 -34 -3 -41 -11 -18 -298 -36 -308 -20 -4 6 -31 13 -61 14 l-55 2 0 36
0 35 107 -3 c67 -1 109 2 113 8 7 11 87 13 162 3z m-42 -205 l0 -43 -125 0
-125 0 0 35 0 35 75 6 c41 3 98 6 125 7 l51 2 -1 -42z m15 -253 c11 -3 16 -19
18 -49 l2 -45 -53 -6 c-28 -3 -83 -3 -122 0 -38 3 -80 6 -92 6 -20 1 -22 6
-21 43 l2 41 53 -2 c29 -1 55 2 58 7 5 9 130 13 155 5z"/>
</g>
</svg>
