<?xml version="1.0" standalone="no"?>
<!DOCTYPE svg PUBLIC "-//W3C//DTD SVG 20010904//EN"
 "http://www.w3.org/TR/2001/REC-SVG-20010904/DTD/svg10.dtd">
<svg version="1.0" xmlns="http://www.w3.org/2000/svg"
 width="101.000000pt" height="101.000000pt" viewBox="0 0 101.000000 101.000000"
 preserveAspectRatio="xMidYMid meet">
<metadata>
Created by potrace 1.16, written by Peter Selinger 2001-2019
</metadata>
<g transform="translate(0.000000,101.000000) scale(0.100000,-0.100000)"
fill="#000000" stroke="none">
<path d="M205 973 c-4 -15 -9 -39 -12 -53 -15 -80 -109 -258 -161 -304 -12
-11 -22 -23 -22 -27 0 -7 43 -76 54 -87 2 -1 22 27 46 63 23 36 43 65 44 65 0
0 1 -117 1 -259 0 -143 4 -263 8 -267 12 -12 79 -7 87 7 5 7 6 19 3 27 -5 12
-1 11 25 -2 17 -9 34 -20 37 -26 12 -19 22 -10 53 47 50 96 71 182 66 275 -5
102 0 122 27 107 14 -7 55 -7 140 2 90 9 123 9 132 0 15 -15 33 -14 51 5 18
18 19 17 16 -62 -1 -29 3 -55 9 -59 14 -8 14 -52 1 -60 -6 -4 -9 -35 -7 -71 2
-39 -1 -68 -8 -74 -6 -5 -32 -7 -58 -5 -26 3 -47 2 -47 -1 0 -2 9 -22 20 -44
11 -22 20 -46 20 -55 0 -12 9 -14 43 -12 24 2 56 10 72 18 47 22 55 51 48 167
-4 74 -3 102 5 102 8 0 12 31 12 100 0 60 -4 100 -10 100 -5 0 -10 11 -10 25
0 14 5 25 10 25 6 0 10 30 10 70 0 40 -4 70 -10 70 -5 0 -10 16 -10 35 0 19 5
35 10 35 6 0 10 20 10 45 0 72 -5 73 -248 45 -56 -7 -110 -8 -120 -4 -9 4 -56
8 -105 9 -69 0 -88 -3 -91 -15 -8 -29 -5 -85 6 -97 6 -8 8 -41 3 -93 -5 -56
-4 -80 4 -80 17 0 13 -102 -4 -138 -10 -19 -15 -52 -14 -89 3 -76 -7 -126 -37
-189 -21 -44 -61 -96 -52 -68 1 5 -4 31 -11 57 -11 38 -11 56 -2 85 6 20 9 62
6 92 -3 30 -6 71 -5 90 0 19 2 94 4 165 2 118 5 136 30 192 16 35 35 68 42 74
22 18 17 28 -23 44 -70 30 -80 29 -88 -2z m360 -159 c0 -45 0 -45 -31 -39 -41
7 -61 -1 -68 -30 -10 -41 0 -50 53 -47 l49 4 3 -39 4 -38 -58 1 c-31 0 -60 4
-63 7 -3 3 -7 54 -8 114 l-1 108 60 2 60 1 0 -44z m237 -7 c-2 -26 1 -53 7
-61 13 -15 13 -154 0 -161 -4 -3 -11 5 -15 19 -5 23 -10 25 -67 23 l-62 -2 3
37 c4 35 5 36 29 27 34 -13 49 -11 67 7 21 20 20 48 -1 69 -12 12 -29 16 -64
13 -42 -3 -46 -1 -38 14 12 22 11 56 -1 60 -6 2 25 3 67 3 l78 0 -3 -48z"/>
<path d="M492 501 c-8 -4 -13 -19 -12 -32 1 -13 2 -65 2 -116 1 -82 4 -92 21
-97 11 -3 28 -1 38 4 9 6 60 8 112 7 l95 -4 5 26 c3 14 -1 40 -10 58 -8 18
-11 37 -7 44 4 7 9 33 11 59 l4 48 -67 -4 c-36 -3 -71 -1 -77 4 -16 12 -99 14
-115 3z m173 -121 c0 -44 -1 -45 -30 -42 -16 1 -40 3 -52 3 -19 1 -22 6 -20
40 1 30 5 38 17 34 8 -2 22 0 30 5 8 6 24 9 35 8 17 -3 20 -11 20 -48z"/>
</g>
</svg>
