<?xml version="1.0" standalone="no"?>
<!DOCTYPE svg PUBLIC "-//W3C//DTD SVG 20010904//EN"
 "http://www.w3.org/TR/2001/REC-SVG-20010904/DTD/svg10.dtd">
<svg version="1.0" xmlns="http://www.w3.org/2000/svg"
 width="101.000000pt" height="101.000000pt" viewBox="0 0 101.000000 101.000000"
 preserveAspectRatio="xMidYMid meet">
<metadata>
Created by potrace 1.16, written by Peter Selinger 2001-2019
</metadata>
<g transform="translate(0.000000,101.000000) scale(0.100000,-0.100000)"
fill="#000000" stroke="none">
<path d="M220 968 c-7 -24 -15 -50 -16 -58 -6 -31 -62 -157 -89 -200 -15 -25
-45 -68 -67 -97 l-40 -52 34 -30 c18 -17 36 -31 40 -31 3 0 21 25 40 54 l33
55 2 -82 c3 -113 3 -183 0 -314 -2 -124 -2 -123 63 -115 34 4 36 5 32 38 l-4
35 38 -22 c22 -11 45 -26 51 -31 10 -8 18 2 32 35 22 52 60 169 67 207 13 69
15 88 18 122 1 21 4 39 7 41 2 1 36 1 76 -1 l71 -4 4 -39 c3 -35 1 -40 -19
-45 -13 -4 -31 -3 -40 1 -10 4 -33 9 -51 10 l-33 3 6 -51 c14 -118 15 -204 4
-245 -6 -23 -9 -46 -5 -49 8 -8 85 -7 93 1 3 2 5 20 6 39 1 28 5 35 21 36 12
0 48 3 81 6 82 7 125 -1 123 -23 -5 -60 10 -73 68 -65 l30 5 -8 61 c-8 58 -5
164 6 250 l4 38 -36 -8 c-33 -7 -58 -7 -127 -2 -17 1 -20 9 -20 43 l0 41 85 2
c46 1 90 -3 97 -8 18 -16 52 -1 59 27 10 39 -2 70 -28 70 -13 0 -67 1 -120 2
l-97 2 6 33 c3 17 11 35 17 39 6 4 45 6 87 5 l77 -2 0 127 c0 113 -2 128 -18
133 -9 3 -29 1 -44 -5 -16 -6 -68 -7 -131 -3 -76 4 -105 3 -105 -5 0 -7 -15
-12 -35 -12 -19 0 -35 5 -35 11 0 7 -28 9 -80 7 -74 -3 -81 -5 -87 -26 -3 -12
0 -28 6 -35 11 -14 8 -217 -4 -237 -4 -6 -6 -50 -6 -98 2 -117 -5 -170 -29
-241 -21 -62 -59 -135 -67 -127 -3 2 -5 25 -5 50 0 25 -4 48 -9 52 -12 7 -12
51 1 59 12 7 12 153 0 160 -12 7 -11 153 1 160 5 4 9 32 8 63 -1 45 5 72 31
127 17 38 38 78 47 87 20 22 10 35 -38 48 -22 6 -46 13 -53 16 -8 3 -18 -11
-26 -38z m530 -102 l45 -1 0 -47 0 -47 -97 6 c-71 4 -98 3 -98 -5 0 -7 -11
-12 -25 -12 -14 0 -25 5 -25 10 0 6 -19 10 -42 10 l-43 0 0 43 0 42 72 -3 c41
-3 79 1 90 7 10 6 32 8 48 5 17 -3 50 -7 75 -8z m-133 -218 l3 -46 -78 1 -78
2 0 45 1 45 75 0 75 0 2 -47z m154 -274 c19 -4 27 -11 27 -27 1 -12 4 -37 8
-54 5 -29 3 -34 -20 -43 -15 -5 -59 -8 -99 -5 -130 9 -122 6 -119 45 1 19 3
45 3 58 1 16 6 21 18 18 9 -3 22 -2 30 3 16 10 110 13 152 5z"/>
</g>
</svg>
