<?xml version="1.0" standalone="no"?>
<!DOCTYPE svg PUBLIC "-//W3C//DTD SVG 20010904//EN"
 "http://www.w3.org/TR/2001/REC-SVG-20010904/DTD/svg10.dtd">
<svg version="1.0" xmlns="http://www.w3.org/2000/svg"
 width="101.000000pt" height="102.000000pt" viewBox="0 0 101.000000 102.000000"
 preserveAspectRatio="xMidYMid meet">
<metadata>
Created by potrace 1.16, written by Peter Selinger 2001-2019
</metadata>
<g transform="translate(0.000000,102.000000) scale(0.100000,-0.100000)"
fill="#000000" stroke="none">
<path d="M219 977 c-39 -149 -98 -271 -166 -347 l-43 -48 25 -38 c14 -20 25
-41 25 -45 0 -23 19 -3 59 61 24 39 45 70 45 70 1 0 0 -38 -2 -84 -1 -50 2
-87 8 -91 14 -8 13 -68 -2 -83 -8 -8 -8 -15 -1 -24 16 -19 15 -140 -2 -187
-22 -63 -5 -83 62 -74 26 4 30 9 31 36 2 59 4 77 8 77 2 0 19 -14 39 -31 35
-31 35 -31 63 -13 35 23 152 140 179 179 l21 30 1 -25 c6 -104 5 -208 -2 -226
-9 -25 11 -34 59 -27 l29 5 2 111 c2 171 0 164 35 112 32 -48 100 -112 152
-143 l32 -19 47 44 c52 49 54 53 30 53 -52 0 -215 107 -243 160 -9 17 -5 18
43 14 28 -3 61 -4 72 -4 11 1 39 2 62 2 36 1 42 4 46 25 2 14 2 34 -1 45 -4
17 -10 19 -41 12 -20 -4 -70 -7 -111 -6 -124 2 -118 0 -117 36 l1 31 107 0
106 0 6 140 c4 77 6 165 5 197 0 56 -1 56 -34 63 -19 3 -42 1 -53 -4 -11 -6
-58 -8 -120 -4 -73 4 -101 3 -101 -5 0 -14 -67 -16 -72 -2 -1 5 -36 10 -76 12
-83 2 -96 -7 -87 -57 9 -48 10 -257 1 -291 -12 -46 14 -68 73 -61 25 3 47 10
49 16 4 12 44 14 78 5 15 -4 20 -14 21 -38 l1 -33 -60 -7 c-33 -3 -65 -3 -71
1 -21 13 -124 20 -135 9 -8 -8 -6 -75 3 -84 3 -3 27 -5 53 -3 68 4 84 7 115
16 18 4 33 3 39 -3 8 -8 -9 -31 -58 -80 -78 -77 -181 -143 -194 -122 -13 22
-23 194 -11 198 14 5 15 142 1 142 -6 0 -10 32 -10 75 0 43 4 75 10 75 6 0 10
19 10 43 0 42 55 177 79 191 26 16 2 33 -76 55 -32 9 -33 9 -44 -32z m343
-142 l3 -43 -55 1 -55 2 0 40 0 40 52 1 51 2 4 -43z m225 0 l2 -40 -62 0 -62
0 0 40 0 40 60 0 60 0 2 -40z m-226 -147 l4 -43 -55 0 -55 0 -1 43 -1 42 52 0
53 0 3 -42z m224 -5 l0 -38 -57 3 c-40 3 -58 8 -58 17 0 7 -3 20 -6 29 -5 12
6 16 58 19 34 2 63 4 63 5 0 1 0 -15 0 -35z"/>
</g>
</svg>
