<?xml version="1.0" standalone="no"?>
<!DOCTYPE svg PUBLIC "-//W3C//DTD SVG 20010904//EN"
 "http://www.w3.org/TR/2001/REC-SVG-20010904/DTD/svg10.dtd">
<svg version="1.0" xmlns="http://www.w3.org/2000/svg"
 width="101.000000pt" height="101.000000pt" viewBox="0 0 101.000000 101.000000"
 preserveAspectRatio="xMidYMid meet">
<metadata>
Created by potrace 1.16, written by Peter Selinger 2001-2019
</metadata>
<g transform="translate(0.000000,101.000000) scale(0.100000,-0.100000)"
fill="#000000" stroke="none">
<path d="M171 901 c-29 -85 -67 -164 -128 -261 -15 -24 -14 -28 8 -63 13 -20
27 -37 31 -37 4 0 17 17 30 39 l23 38 2 -51 c3 -56 4 -136 4 -163 -1 -10 1
-54 4 -99 4 -57 1 -93 -9 -122 -23 -65 -7 -84 61 -75 l31 5 0 117 c0 458 6
589 29 641 11 25 28 51 37 59 9 7 16 18 16 23 0 9 -76 47 -95 48 -6 0 -25 -44
-44 -99z"/>
<path d="M488 944 c-19 -6 -32 -47 -23 -74 6 -19 57 -36 75 -25 6 3 35 7 64 8
50 2 54 1 49 -18 -6 -24 -11 -55 -12 -72 -1 -9 -18 -11 -64 -6 -50 4 -65 2
-69 -8 -3 -8 -2 -76 3 -151 6 -89 6 -146 -1 -163 -7 -18 -7 -33 1 -47 6 -11 9
-33 5 -48 -6 -31 12 -41 56 -33 l23 4 0 182 0 182 100 3 100 2 -2 -97 c-1 -54
1 -139 4 -190 6 -98 12 -106 65 -96 l23 4 3 230 c3 200 2 229 -12 229 -8 0
-18 -4 -21 -10 -3 -5 -35 -10 -71 -10 -55 0 -64 3 -63 18 1 34 27 87 40 84 8
-2 51 -1 96 3 76 6 82 8 88 32 12 50 2 58 -76 56 -39 -1 -73 -4 -77 -7 -9 -10
-80 -7 -87 4 -3 5 -29 9 -58 8 -29 0 -72 2 -97 5 -25 3 -52 3 -62 1z"/>
<path d="M305 898 c-2 -7 -2 -56 0 -108 5 -114 5 -140 1 -298 -2 -96 -6 -126
-20 -140 -9 -10 -16 -23 -16 -28 1 -10 46 -64 55 -64 3 0 42 25 86 56 l80 57
-5 40 c-3 22 -8 42 -11 45 -3 3 -25 -9 -49 -26 l-44 -32 2 119 1 118 47 -4
c43 -3 48 -1 54 21 12 50 3 61 -51 60 l-50 0 1 46 c1 26 5 57 9 71 3 13 9 31
11 40 8 29 -91 56 -101 27z"/>
<path d="M652 578 c1 -35 5 -70 11 -78 6 -11 5 -36 -3 -75 -7 -33 -12 -62 -12
-65 0 -14 -39 -78 -60 -96 -30 -28 -92 -59 -146 -74 l-44 -11 39 -34 c21 -19
42 -34 47 -35 23 -1 150 77 180 111 l35 38 59 -44 c33 -25 72 -61 87 -81 l28
-36 35 36 36 35 -24 27 c-32 33 -145 124 -156 124 -4 0 -20 -12 -35 -26 l-27
-26 16 43 c9 25 17 82 18 129 3 94 8 136 19 162 9 21 -21 38 -68 38 l-35 0 0
-62z"/>
</g>
</svg>
