<?xml version="1.0" standalone="no"?>
<!DOCTYPE svg PUBLIC "-//W3C//DTD SVG 20010904//EN"
 "http://www.w3.org/TR/2001/REC-SVG-20010904/DTD/svg10.dtd">
<svg version="1.0" xmlns="http://www.w3.org/2000/svg"
 width="101.000000pt" height="101.000000pt" viewBox="0 0 101.000000 101.000000"
 preserveAspectRatio="xMidYMid meet">
<metadata>
Created by potrace 1.16, written by Peter Selinger 2001-2019
</metadata>
<g transform="translate(0.000000,101.000000) scale(0.100000,-0.100000)"
fill="#000000" stroke="none">
<path d="M201 944 c-27 -75 -116 -261 -155 -323 -27 -42 -33 -71 -16 -71 5 0
16 -13 25 -30 9 -16 19 -30 23 -30 4 0 18 20 32 44 l25 45 2 -122 c2 -135 3
-192 1 -285 0 -34 2 -66 6 -69 7 -8 75 -8 82 0 3 2 7 49 11 104 4 70 2 102 -6
107 -14 9 -15 152 -1 161 12 7 11 113 -1 121 -12 7 -11 51 1 59 6 4 10 33 9
65 -2 52 3 70 45 156 26 54 43 100 39 104 -10 9 -72 30 -87 30 -6 0 -22 -30
-35 -66z"/>
<path d="M668 963 c-19 -5 -32 -46 -23 -74 6 -18 18 -24 40 -19 6 1 31 3 58 4
46 2 47 1 47 -29 0 -16 3 -47 7 -68 l6 -39 -81 7 c-80 7 -81 7 -87 -17 -3 -13
-1 -36 4 -51 9 -23 16 -27 48 -26 21 0 59 4 85 8 26 4 54 4 63 -2 9 -5 27 -6
39 -3 22 5 22 9 24 154 l1 148 -92 -1 c-51 0 -99 2 -107 6 -8 3 -22 4 -32 2z"/>
<path d="M450 949 c0 -7 -21 -10 -60 -7 -56 3 -61 1 -67 -20 -3 -12 0 -28 5
-35 14 -16 14 -174 1 -182 -12 -8 -12 -142 1 -150 13 -8 13 -52 0 -60 -13 -8
-12 -213 2 -221 7 -4 8 -33 4 -84 -7 -71 -6 -78 12 -82 33 -9 70 3 75 24 3 10
-2 40 -10 65 -13 36 -14 53 -5 75 6 16 9 35 6 43 -6 14 9 16 107 15 48 0 57 3
62 20 3 11 3 29 0 40 -5 17 -13 20 -62 19 -101 -1 -116 3 -113 31 2 14 3 34 4
45 1 18 9 20 81 23 50 2 84 7 89 15 6 9 10 9 16 -1 5 -7 16 -10 28 -6 18 7 18
6 0 -8 -18 -14 -19 -19 -7 -59 7 -24 24 -73 38 -108 l26 -65 -24 -19 c-13 -11
-62 -38 -108 -59 -45 -22 -79 -43 -75 -47 5 -4 26 -19 46 -34 l37 -27 53 32
c29 17 70 45 90 61 l38 28 57 -43 c112 -85 105 -83 142 -31 18 25 31 46 29 48
-2 2 -32 16 -68 33 -107 49 -105 45 -61 134 39 79 87 235 76 246 -8 9 -241 14
-282 7 -20 -4 -33 -12 -33 -20 0 -8 -4 -15 -10 -15 -5 0 -10 4 -10 9 0 5 -35
9 -77 10 -42 1 -77 2 -78 4 -1 1 -5 22 -9 46 l-7 44 105 -6 104 -6 1 117 c0
64 2 126 3 137 3 18 -2 20 -44 17 -30 -3 -48 0 -48 7 0 6 -18 11 -40 11 -22 0
-40 -5 -40 -11z m85 -146 l0 -62 -62 2 -62 2 2 60 2 60 60 0 60 0 0 -62z m263
-323 c-17 -60 -51 -131 -59 -123 -7 7 -49 137 -49 152 0 3 26 6 59 6 l58 0 -9
-35z"/>
</g>
</svg>
