<?xml version="1.0" standalone="no"?>
<!DOCTYPE svg PUBLIC "-//W3C//DTD SVG 20010904//EN"
 "http://www.w3.org/TR/2001/REC-SVG-20010904/DTD/svg10.dtd">
<svg version="1.0" xmlns="http://www.w3.org/2000/svg"
 width="101.000000pt" height="102.000000pt" viewBox="0 0 101.000000 102.000000"
 preserveAspectRatio="xMidYMid meet">
<metadata>
Created by potrace 1.16, written by Peter Selinger 2001-2019
</metadata>
<g transform="translate(0.000000,102.000000) scale(0.100000,-0.100000)"
fill="#000000" stroke="none">
<path d="M526 983 c-29 -61 -102 -158 -152 -202 -57 -50 -131 -94 -144 -86
-12 7 -14 72 -2 77 4 2 27 44 52 93 24 50 46 93 48 96 3 6 -76 39 -95 39 -6 0
-25 -42 -43 -92 -35 -104 -74 -178 -132 -256 l-39 -52 28 -35 c15 -19 31 -35
35 -35 3 0 15 15 27 33 l21 32 0 -47 c0 -26 5 -50 10 -53 12 -8 13 -52 1 -59
-13 -8 -12 -108 1 -123 11 -13 6 -158 -7 -199 -8 -25 11 -33 66 -26 l36 4 1
138 c1 83 -2 141 -8 145 -13 8 -13 52 0 60 7 4 10 49 8 121 -2 63 -3 114 -2
114 0 0 15 -11 34 -25 19 -14 39 -24 45 -21 6 2 11 -41 12 -123 1 -69 2 -142
3 -161 1 -67 -7 -208 -13 -217 -15 -23 16 -38 71 -35 23 2 23 4 17 67 -5 45
-4 65 4 65 6 0 11 16 11 35 0 30 3 35 24 35 13 0 37 3 52 6 l29 6 -1 -52 c-2
-53 -7 -64 -27 -66 -7 0 -20 -2 -30 -2 -16 -2 -16 -4 -2 -26 9 -13 15 -28 14
-32 -5 -31 2 -36 43 -30 56 9 75 28 88 90 12 59 12 174 0 181 -12 7 -11 153 0
160 6 3 10 28 10 55 0 69 -18 84 -89 76 -31 -3 -87 -7 -124 -9 l-69 -2 34 27
c18 15 46 42 61 60 15 18 25 25 22 16 -4 -9 -2 -26 5 -37 8 -16 20 -21 55 -21
25 0 45 5 45 10 0 6 16 10 35 10 19 0 35 -4 35 -10 0 -5 18 -10 39 -10 42 0
76 23 64 43 -4 7 4 4 17 -5 14 -10 46 -32 72 -49 47 -32 60 -51 20 -30 -13 7
-29 8 -43 2 -23 -8 -23 -10 -21 -147 1 -76 5 -173 8 -216 7 -86 0 -97 -63 -93
-18 2 -33 1 -33 -1 0 -2 9 -18 20 -36 11 -18 20 -41 20 -50 0 -12 7 -16 23
-13 104 15 123 33 119 120 -1 35 2 66 7 70 13 7 12 113 0 121 -13 7 -11 51 2
59 6 4 9 38 7 86 -2 43 0 79 3 79 3 0 21 21 39 47 25 34 30 48 20 51 -49 17
-174 88 -213 122 -50 44 -89 101 -85 121 2 11 -68 43 -103 48 -3 1 -13 -16
-23 -36z m142 -175 l36 -38 -115 3 -115 2 56 71 55 70 24 -35 c13 -20 40 -53
59 -73z m-172 -237 c17 -1 23 -8 26 -33 l3 -33 -55 0 -55 0 0 35 c-1 33 1 35
30 33 16 -1 40 -2 51 -2z m29 -171 l0 -35 -52 3 c-43 3 -53 7 -53 22 0 10 -2
24 -5 32 -4 10 9 13 53 13 l58 0 -1 -35z"/>
<path d="M668 613 c-13 -3 -18 -15 -18 -44 0 -21 5 -39 10 -39 12 0 12 -91 1
-198 -7 -70 -6 -73 15 -78 37 -9 61 4 68 38 10 48 7 148 -4 148 -15 0 -13 147
3 153 9 4 8 8 -3 16 -15 11 -41 12 -72 4z"/>
</g>
</svg>
