<?xml version="1.0" standalone="no"?>
<!DOCTYPE svg PUBLIC "-//W3C//DTD SVG 20010904//EN"
 "http://www.w3.org/TR/2001/REC-SVG-20010904/DTD/svg10.dtd">
<svg version="1.0" xmlns="http://www.w3.org/2000/svg"
 width="101.000000pt" height="101.000000pt" viewBox="0 0 101.000000 101.000000"
 preserveAspectRatio="xMidYMid meet">
<metadata>
Created by potrace 1.16, written by Peter Selinger 2001-2019
</metadata>
<g transform="translate(0.000000,101.000000) scale(0.100000,-0.100000)"
fill="#000000" stroke="none">
<path d="M195 979 c-4 -19 -9 -45 -12 -58 -10 -59 -66 -188 -109 -252 l-46
-70 18 -40 c9 -22 21 -42 25 -45 5 -3 22 17 39 43 l30 48 0 -52 c0 -29 5 -53
10 -53 6 0 10 -16 10 -35 0 -19 -4 -35 -10 -35 -5 0 -10 -18 -10 -40 0 -22 5
-40 10 -40 15 0 12 -67 -2 -73 -10 -4 -10 -8 1 -15 10 -7 12 -30 10 -90 -4
-88 0 -95 53 -85 20 4 24 11 25 41 6 151 4 222 -7 222 -5 0 -10 20 -10 45 0
25 5 45 10 45 6 0 10 30 10 70 0 40 -4 70 -10 70 -6 0 -10 32 -10 75 0 43 4
75 10 75 6 0 10 18 10 39 0 21 14 72 31 112 50 121 51 115 -24 125 -44 6 -44
6 -52 -27z"/>
<path d="M807 973 c-4 -3 -34 -5 -66 -4 -33 1 -62 -3 -66 -9 -8 -13 -52 -13
-60 0 -4 7 -58 9 -143 8 l-137 -3 -3 -47 c-2 -29 1 -48 7 -48 6 0 11 -16 11
-35 0 -19 -4 -35 -10 -35 -11 0 -13 -64 -4 -162 l7 -67 102 2 101 2 0 -32 c-1
-29 -5 -34 -33 -39 -17 -3 -37 -3 -44 1 -22 14 -145 23 -156 12 -3 -3 -4 -16
-3 -29 1 -13 2 -102 1 -199 -1 -195 -3 -192 65 -182 l30 5 -8 68 c-5 38 -6
104 -3 147 3 43 6 88 6 101 1 16 6 22 16 18 8 -3 23 -1 34 5 12 6 37 8 59 4
30 -5 38 -11 38 -28 1 -12 4 -36 7 -53 6 -26 3 -33 -20 -48 -21 -14 -33 -16
-50 -8 -19 9 -65 7 -65 -3 0 -1 7 -19 16 -40 17 -41 6 -39 124 -18 125 22 160
24 160 8 0 -7 4 -16 9 -19 14 -9 72 6 77 19 7 18 -56 155 -72 155 -7 0 -24 -4
-39 -10 -24 -9 -25 -11 -11 -37 13 -26 13 -28 -8 -29 -11 -1 -28 -4 -36 -5
-11 -3 -14 4 -12 31 1 19 3 45 3 58 1 16 6 22 16 18 8 -3 23 -1 33 4 10 6 45
7 78 4 52 -6 60 -9 61 -28 0 -11 3 -52 6 -91 3 -38 3 -84 0 -102 -5 -30 -8
-32 -45 -30 -21 1 -41 -1 -44 -4 -11 -11 27 -97 44 -102 21 -5 96 18 118 35
10 8 11 45 7 160 -3 88 -1 156 4 167 6 10 8 26 5 37 -5 17 -16 19 -122 21
-161 2 -157 1 -157 29 0 21 5 24 38 24 21 0 37 5 37 11 0 11 101 6 133 -7 17
-6 20 388 3 398 -14 10 -31 10 -39 1z m-262 -127 l0 -44 -55 1 -55 2 4 37 c3
37 3 37 55 41 28 2 51 4 51 5 0 1 0 -18 0 -42z m220 -1 l0 -40 -67 0 -67 0 2
40 2 40 65 0 65 0 0 -40z m-223 -142 l3 -48 -55 0 -55 0 -1 48 -1 47 53 0 52
0 4 -47z m223 -6 l0 -43 -65 0 -65 1 0 37 -1 37 66 4 c36 2 65 4 65 5 0 1 0
-17 0 -41z"/>
</g>
</svg>
