<?xml version="1.0" standalone="no"?>
<!DOCTYPE svg PUBLIC "-//W3C//DTD SVG 20010904//EN"
 "http://www.w3.org/TR/2001/REC-SVG-20010904/DTD/svg10.dtd">
<svg version="1.0" xmlns="http://www.w3.org/2000/svg"
 width="101.000000pt" height="101.000000pt" viewBox="0 0 101.000000 101.000000"
 preserveAspectRatio="xMidYMid meet">
<metadata>
Created by potrace 1.16, written by Peter Selinger 2001-2019
</metadata>
<g transform="translate(0.000000,101.000000) scale(0.100000,-0.100000)"
fill="#000000" stroke="none">
<path d="M214 988 c-4 -13 -7 -25 -7 -28 1 -3 -10 -36 -24 -75 -32 -90 -83
-182 -139 -251 l-45 -55 37 -34 c20 -19 38 -35 40 -35 1 0 16 24 33 53 27 47
31 49 31 25 0 -16 5 -28 10 -28 6 0 10 -32 10 -75 0 -43 -4 -75 -10 -75 -6 0
-9 -60 -7 -159 2 -176 0 -171 67 -164 l35 5 2 94 c1 51 -2 96 -8 99 -12 8 -12
52 1 60 12 7 12 153 0 160 -12 7 -11 153 0 160 6 4 10 34 9 68 -1 51 4 74 29
127 17 36 39 75 48 88 16 21 16 22 -17 36 -68 27 -87 28 -95 4z"/>
<path d="M562 950 c0 -25 5 -50 10 -57 5 -6 8 -31 6 -55 -3 -49 -13 -54 -87
-43 l-46 8 32 11 c17 6 34 14 38 18 3 3 -5 28 -19 55 -42 81 -38 78 -89 58
l-45 -17 35 -64 35 -64 -44 -2 c-23 0 -52 0 -62 1 -36 3 -50 -54 -20 -83 16
-16 102 -17 154 -1 22 7 19 2 -18 -38 -39 -39 -108 -82 -166 -101 -17 -6 -14
-11 20 -41 21 -19 42 -34 46 -35 14 -1 131 96 176 145 l48 54 -1 -42 c-1 -24
-5 -48 -9 -55 -4 -7 -5 -19 -3 -26 4 -9 0 -12 -12 -9 -13 3 -22 -6 -34 -39
l-17 -43 -105 3 -105 4 -10 -28 c-6 -16 -9 -38 -5 -51 5 -21 9 -22 90 -19 95
4 95 5 37 -71 -13 -18 -20 -33 -16 -34 5 0 16 -2 24 -4 8 -2 32 -6 53 -10 21
-3 55 -12 75 -19 l37 -13 -54 -17 c-29 -8 -57 -13 -62 -10 -5 3 -25 -3 -44
-12 -28 -13 -41 -14 -59 -6 -13 6 -33 8 -45 5 -20 -5 -20 -6 4 -41 14 -20 25
-43 25 -50 0 -9 11 -12 38 -8 56 7 208 53 255 78 23 12 49 21 57 19 8 -2 53
-21 99 -43 l85 -40 23 28 c52 63 53 60 -63 97 -84 26 -103 36 -92 45 8 6 24
33 37 59 l22 48 74 -1 c63 0 76 2 80 17 10 29 -6 69 -29 74 -11 3 -92 4 -179
3 l-158 -3 28 23 c24 19 26 24 13 33 -13 9 -13 10 0 8 30 -3 39 1 34 16 -4 8
-3 31 1 51 l6 36 50 -47 c44 -41 137 -95 164 -95 6 0 27 20 48 44 38 47 35 59
-16 49 -15 -3 -27 -1 -27 5 0 5 -12 13 -26 16 -32 8 -93 47 -117 73 -17 20
-17 20 25 16 131 -15 135 -15 151 2 27 26 16 98 -12 81 -6 -4 -38 -4 -71 0
-68 8 -68 9 -1 85 l40 46 -49 27 -50 27 -11 -27 c-5 -16 -25 -49 -44 -75 l-34
-47 30 -12 c41 -17 36 -25 -16 -25 l-46 0 6 80 c3 44 8 89 10 100 4 18 -1 20
-50 20 l-54 0 1 -45z m128 -563 c0 -7 -11 -29 -25 -48 l-24 -36 -70 20 c-68
20 -70 22 -57 41 10 16 28 22 77 27 35 3 72 6 82 7 9 1 17 -4 17 -11z"/>
</g>
</svg>
