<?xml version="1.0" standalone="no"?>
<!DOCTYPE svg PUBLIC "-//W3C//DTD SVG 20010904//EN"
 "http://www.w3.org/TR/2001/REC-SVG-20010904/DTD/svg10.dtd">
<svg version="1.0" xmlns="http://www.w3.org/2000/svg"
 width="101.000000pt" height="101.000000pt" viewBox="0 0 101.000000 101.000000"
 preserveAspectRatio="xMidYMid meet">
<metadata>
Created by potrace 1.16, written by Peter Selinger 2001-2019
</metadata>
<g transform="translate(0.000000,101.000000) scale(0.100000,-0.100000)"
fill="#000000" stroke="none">
<path d="M587 1003 c-9 -2 -14 -9 -11 -15 3 -5 3 -51 -1 -101 l-6 -92 -117 2
c-64 2 -123 -1 -131 -6 -18 -12 -27 -162 -11 -191 11 -21 54 -27 79 -11 7 5
16 32 19 60 l5 51 48 0 c26 0 51 4 54 10 7 12 146 11 160 -1 6 -4 45 -7 86 -6
l76 2 -4 -50 -3 -50 50 0 c49 0 68 13 54 37 -4 5 -6 41 -6 79 l0 69 -43 0
c-50 0 -105 10 -105 19 0 4 20 28 45 55 25 27 45 52 45 55 0 3 -18 16 -40 29
l-39 22 -46 -71 c-46 -71 -47 -85 -10 -90 6 -1 -8 -5 -30 -9 -22 -4 -43 -6
-47 -3 -12 6 -10 81 2 88 6 4 10 18 9 33 0 15 2 39 5 53 5 22 2 28 -17 33 -24
6 -43 6 -70 -1z"/>
<path d="M216 988 c-41 -140 -114 -303 -167 -369 l-30 -39 32 -40 c18 -22 35
-40 38 -40 3 0 18 21 33 48 21 36 27 42 28 25 0 -13 5 -23 10 -23 6 0 10 -32
10 -75 0 -47 -4 -75 -11 -75 -7 0 -10 -33 -9 -97 1 -54 -1 -121 -4 -150 -5
-58 1 -63 67 -55 l39 4 -7 84 c-5 59 -4 84 4 84 7 0 11 33 11 100 0 60 -4 100
-10 100 -5 0 -10 11 -10 25 0 14 5 25 10 25 6 0 10 30 10 70 0 40 -4 70 -10
70 -5 0 -10 16 -10 35 0 19 5 35 10 35 6 0 10 22 10 49 0 55 32 136 61 154 28
18 24 26 -27 47 -53 23 -73 25 -78 8z"/>
<path d="M405 948 c-16 -6 -31 -12 -33 -13 -3 -2 52 -107 64 -123 7 -10 74 22
74 35 0 21 -53 113 -65 112 -5 0 -23 -5 -40 -11z"/>
<path d="M436 624 c-17 -16 -19 -38 -8 -65 6 -14 21 -16 97 -12 50 2 129 3
177 3 77 0 87 2 93 19 3 11 3 30 0 43 -6 22 -11 23 -90 25 -47 2 -87 -2 -90
-7 -8 -13 -52 -13 -60 0 -10 16 -102 12 -119 -6z"/>
<path d="M296 482 c-9 -8 -7 -65 2 -79 5 -8 41 -11 113 -10 l106 2 -44 -57
c-43 -57 -91 -99 -125 -111 -16 -5 -15 -10 8 -51 22 -40 28 -44 57 -41 90 10
145 17 177 22 19 2 72 6 117 6 l82 2 17 -32 17 -31 44 21 c24 12 43 25 43 31
0 8 -75 111 -133 181 l-24 29 -42 -18 c-22 -11 -41 -22 -41 -26 0 -3 14 -19
30 -35 17 -16 30 -33 30 -38 0 -5 -25 -6 -59 -2 -33 4 -67 3 -75 -2 -9 -5 -34
-7 -55 -5 l-40 4 63 76 64 75 121 0 c66 -1 125 -4 131 -8 16 -10 48 4 55 25
12 36 -5 68 -38 74 -41 7 -594 6 -601 -2z"/>
</g>
</svg>
