<?xml version="1.0" standalone="no"?>
<!DOCTYPE svg PUBLIC "-//W3C//DTD SVG 20010904//EN"
 "http://www.w3.org/TR/2001/REC-SVG-20010904/DTD/svg10.dtd">
<svg version="1.0" xmlns="http://www.w3.org/2000/svg"
 width="101.000000pt" height="101.000000pt" viewBox="0 0 101.000000 101.000000"
 preserveAspectRatio="xMidYMid meet">
<metadata>
Created by potrace 1.16, written by Peter Selinger 2001-2019
</metadata>
<g transform="translate(0.000000,101.000000) scale(0.100000,-0.100000)"
fill="#000000" stroke="none">
<path d="M191 981 c-7 -11 -10 -21 -7 -21 8 0 -41 -135 -73 -204 -17 -35 -50
-88 -72 -116 -22 -28 -39 -53 -37 -54 1 -1 19 -15 39 -29 20 -15 39 -27 43
-27 4 0 17 22 29 50 l22 49 2 -52 c3 -58 4 -138 4 -164 -1 -10 1 -52 4 -94 3
-51 1 -89 -9 -115 -16 -48 -10 -101 13 -107 9 -2 30 -2 47 0 l29 5 3 118 c1
73 -2 121 -8 125 -13 8 -13 152 0 160 12 7 11 113 -1 121 -12 7 -11 51 1 59 6
3 10 -5 10 -19 0 -46 46 -70 90 -46 22 12 22 12 22 -182 -1 -114 -4 -153 -17
-177 -8 -17 -20 -31 -26 -31 -6 0 2 -18 18 -40 15 -22 31 -39 35 -37 7 2 148
137 148 142 0 1 -7 19 -16 40 l-15 37 -29 -27 -28 -27 -6 63 c-6 63 -3 151 9
219 14 85 13 100 -10 106 -12 3 -56 4 -98 2 l-76 -4 -3 46 c-3 50 27 133 68
188 l25 32 -28 11 c-59 23 -90 23 -102 0z"/>
<path d="M624 962 c-4 -18 -4 -42 -2 -55 4 -21 1 -22 -54 -20 -53 1 -59 -1
-64 -22 -3 -13 -3 -33 1 -44 5 -17 14 -19 63 -18 l57 2 3 -50 2 -50 -87 0
c-95 0 -103 -5 -89 -60 6 -23 8 -24 112 -22 l106 2 -35 -30 c-19 -17 -45 -31
-57 -32 -28 -2 -31 -5 -33 -34 -1 -16 -18 -33 -59 -58 -31 -20 -57 -39 -58
-42 0 -4 16 -19 35 -33 33 -25 36 -26 59 -11 23 15 24 15 25 -7 6 -87 4 -218
-3 -244 -9 -36 6 -45 62 -36 31 4 33 6 27 39 -4 29 -3 34 11 29 8 -3 24 -1 34
4 11 6 43 7 74 4 54 -7 56 -8 51 -34 -6 -32 11 -40 63 -32 30 4 32 7 27 36 -8
42 -10 332 -2 379 l5 37 -61 0 c-34 -1 -74 0 -89 1 l-28 1 19 27 c21 29 52 35
163 34 63 -1 75 11 62 61 -6 26 -8 27 -70 23 -35 -2 -64 -2 -64 1 0 2 25 42
55 88 30 47 55 88 55 92 0 11 -88 53 -93 44 -3 -4 -10 -25 -17 -47 -12 -37
-14 -38 -23 -18 -8 19 -16 22 -53 19 -27 -2 -41 1 -39 8 2 6 6 31 9 56 l5 45
-50 0 c-47 0 -49 -1 -55 -33z m150 -190 c-31 -48 -49 -71 -55 -72 -3 0 -5 22
-5 50 1 47 2 49 31 52 43 5 48 -1 29 -30z m11 -282 c17 0 21 -7 23 -44 l1 -43
-55 -7 c-31 -3 -63 -2 -74 4 -10 5 -26 7 -34 4 -13 -5 -15 2 -14 40 2 36 6 45
18 41 8 -2 22 0 30 6 8 5 31 7 50 4 19 -2 44 -5 55 -5z m0 -160 c17 0 21 -7
23 -44 l1 -43 -55 -7 c-31 -3 -63 -2 -74 4 -10 5 -26 7 -34 4 -13 -5 -15 2
-14 40 2 36 6 45 18 41 8 -2 22 0 30 6 8 5 31 7 50 4 19 -2 44 -5 55 -5z"/>
<path d="M340 937 c-14 -6 -26 -12 -28 -12 -1 -1 7 -23 18 -48 12 -26 23 -59
25 -75 6 -50 16 -64 39 -57 11 3 29 8 40 10 10 2 21 7 25 10 3 3 -8 45 -24 93
-32 93 -42 101 -95 79z"/>
</g>
</svg>
