<?xml version="1.0" standalone="no"?>
<!DOCTYPE svg PUBLIC "-//W3C//DTD SVG 20010904//EN"
 "http://www.w3.org/TR/2001/REC-SVG-20010904/DTD/svg10.dtd">
<svg version="1.0" xmlns="http://www.w3.org/2000/svg"
 width="101.000000pt" height="102.000000pt" viewBox="0 0 101.000000 102.000000"
 preserveAspectRatio="xMidYMid meet">
<metadata>
Created by potrace 1.16, written by Peter Selinger 2001-2019
</metadata>
<g transform="translate(0.000000,102.000000) scale(0.100000,-0.100000)"
fill="#000000" stroke="none">
<path d="M189 1008 c-11 -104 -57 -209 -146 -331 l-35 -47 29 -34 c15 -19 31
-35 35 -35 4 -1 18 18 31 40 22 37 25 39 26 18 5 -88 -1 -344 -11 -476 -3 -47
4 -52 65 -45 38 4 38 4 33 44 -5 37 -4 39 17 33 12 -4 32 -13 44 -21 21 -13
24 -12 46 23 32 54 57 112 77 184 l17 63 46 3 46 3 -4 -37 c-12 -109 -25 -133
-70 -123 -46 10 -57 7 -50 -14 3 -11 8 -32 10 -44 5 -31 10 -35 43 -35 76 0
137 62 148 150 12 88 14 105 18 138 l4 35 -66 -1 c-100 -1 -107 1 -108 26 -2
26 4 27 108 26 56 -1 67 1 70 16 2 10 14 -20 26 -67 13 -47 33 -111 46 -143
l24 -58 -51 -41 c-55 -43 -140 -88 -169 -88 -25 0 -23 -5 22 -50 l40 -40 52
31 c29 17 77 51 106 76 l52 45 66 -62 66 -61 34 38 c18 21 33 41 34 45 0 4
-18 17 -40 28 -22 11 -55 34 -74 51 -35 30 -35 31 -21 67 30 78 43 141 50 227
2 33 7 76 10 95 3 19 7 45 8 57 2 20 6 22 32 17 30 -5 31 -5 30 38 l0 43 -72
-4 c-49 -2 -73 0 -73 8 0 6 -13 11 -30 11 -16 0 -30 3 -30 8 0 4 15 38 34 75
23 46 31 70 23 72 -41 15 -100 35 -103 35 -2 0 -1 -7 3 -15 3 -9 -1 -23 -10
-33 -8 -9 -15 -33 -15 -52 -1 -36 -18 -92 -48 -155 -17 -36 -34 -46 -34 -21 0
14 -41 26 -90 26 -21 0 -29 6 -32 23 -4 21 -1 22 70 23 80 1 94 10 90 54 -3
24 -5 25 -80 25 l-76 0 4 47 c3 40 0 49 -17 58 -27 15 -77 3 -84 -20 -3 -11
-2 -34 3 -52 l9 -33 -51 2 c-28 1 -57 2 -64 2 -10 1 -9 8 3 31 8 16 15 31 15
34 0 6 -95 56 -105 56 -3 0 -6 -6 -6 -12z m75 -142 c-9 -38 18 -56 80 -53 51
2 53 1 52 -24 -1 -21 -5 -24 -23 -21 -13 2 -38 1 -57 -2 -40 -8 -53 -34 -36
-67 11 -19 18 -21 64 -16 l51 5 -1 -36 c-1 -33 -4 -37 -25 -34 -36 4 -73 9
-84 12 -39 10 -57 -14 -48 -63 5 -24 8 -25 59 -21 l54 5 -6 -33 c-3 -18 -8
-42 -9 -53 -14 -94 -35 -152 -75 -210 -50 -73 -53 -70 -45 49 5 75 4 106 -4
106 -6 0 -11 19 -11 45 0 25 5 45 10 45 6 0 10 57 10 150 0 134 2 154 22 195
24 50 31 57 22 21z m523 -140 c4 -3 4 -152 0 -186 -7 -53 -18 -110 -27 -134
-6 -18 -9 -15 -20 24 -18 68 -21 81 -25 129 -4 47 -19 64 -48 55 -15 -5 -12 5
14 59 32 65 33 65 68 60 20 -3 37 -6 38 -7z m-207 -44 c0 -2 -5 -12 -10 -23
-8 -14 -7 -19 1 -19 7 0 9 -3 6 -7 -4 -3 -29 -7 -56 -9 l-49 -2 1 31 c1 32 1
32 54 32 29 0 53 -1 53 -3z m50 -78 c0 -2 -4 -4 -10 -4 -5 0 -10 5 -10 11 0 5
5 7 10 4 6 -3 10 -8 10 -11z"/>
</g>
</svg>
