<?xml version="1.0" standalone="no"?>
<!DOCTYPE svg PUBLIC "-//W3C//DTD SVG 20010904//EN"
 "http://www.w3.org/TR/2001/REC-SVG-20010904/DTD/svg10.dtd">
<svg version="1.0" xmlns="http://www.w3.org/2000/svg"
 width="101.000000pt" height="102.000000pt" viewBox="0 0 101.000000 102.000000"
 preserveAspectRatio="xMidYMid meet">
<metadata>
Created by potrace 1.16, written by Peter Selinger 2001-2019
</metadata>
<g transform="translate(0.000000,102.000000) scale(0.100000,-0.100000)"
fill="#000000" stroke="none">
<path d="M460 957 c-39 -63 -135 -163 -176 -185 -19 -10 -23 -9 -28 10 -6 24
37 130 60 149 24 20 15 36 -29 53 -23 9 -47 16 -53 16 -5 0 -20 -33 -33 -72
-33 -104 -91 -224 -139 -287 -38 -51 -40 -56 -27 -80 37 -70 38 -70 83 5 44
72 45 72 42 -22 -1 -29 3 -55 9 -59 13 -8 15 -52 2 -59 -13 -8 -12 -107 0
-123 11 -12 7 -120 -6 -179 -8 -36 8 -45 63 -36 35 5 48 28 36 64 -12 37 -19
345 -10 463 2 33 4 75 5 93 1 37 12 40 52 11 25 -18 32 -19 46 -7 15 11 16 11
10 -5 -4 -10 -4 -43 -1 -73 l7 -55 70 5 71 5 -38 -25 c-34 -23 -146 -68 -146
-59 0 2 -14 -1 -30 -7 l-30 -10 28 -26 c16 -15 31 -33 33 -41 4 -12 16 -9 61
11 31 15 73 38 94 52 27 18 41 23 49 15 20 -20 -118 -112 -212 -140 -24 -7
-43 -15 -43 -18 0 -3 14 -21 31 -39 l30 -33 78 46 c44 25 99 64 124 86 44 38
46 39 53 17 5 -18 -1 -29 -32 -56 -64 -55 -135 -98 -204 -122 -36 -13 -66 -24
-68 -25 -8 -6 45 -74 57 -75 20 0 145 74 201 119 82 66 75 65 73 9 -1 -60 -16
-78 -67 -83 -21 -2 -39 -5 -42 -7 -3 -4 23 -83 32 -96 6 -10 88 22 115 45 51
44 91 168 59 188 -5 3 -7 12 -3 20 3 9 1 21 -4 28 -12 16 -11 49 3 54 5 2 25
-31 44 -73 31 -71 101 -175 118 -174 4 1 26 18 50 40 l43 39 -30 15 c-46 24
-101 85 -127 141 l-24 50 46 20 45 21 -28 36 c-15 21 -31 37 -35 38 -4 0 -38
-23 -76 -50 -38 -28 -71 -50 -73 -50 -3 0 -22 21 -44 47 -21 26 -34 44 -28 40
13 -8 83 22 83 35 0 11 147 10 154 -1 10 -16 46 -19 61 -5 11 11 14 39 14 102
0 49 -3 93 -7 99 -10 15 -78 25 -99 15 -10 -5 -30 -6 -46 -3 l-27 6 35 52 c19
29 35 56 35 61 0 5 -37 10 -82 10 -46 1 -103 2 -126 3 l-44 3 26 19 c14 10 26
22 26 26 0 8 -76 41 -93 41 -4 0 -25 -28 -47 -63z m157 -93 l53 -7 -18 -29
c-9 -17 -27 -34 -40 -39 -32 -12 -99 -11 -108 2 -3 6 -17 9 -31 6 -13 -2 -22
-2 -21 2 2 3 12 21 23 38 22 36 39 39 142 27z m-31 -170 c-12 -36 -13 -36 -72
-38 l-59 -1 0 35 0 35 72 3 72 2 -13 -36z m226 -4 l3 -36 -78 1 c-60 0 -76 3
-72 13 3 8 8 24 11 35 4 20 12 22 69 22 l63 0 4 -35z"/>
</g>
</svg>
