<?xml version="1.0" standalone="no"?>
<!DOCTYPE svg PUBLIC "-//W3C//DTD SVG 20010904//EN"
 "http://www.w3.org/TR/2001/REC-SVG-20010904/DTD/svg10.dtd">
<svg version="1.0" xmlns="http://www.w3.org/2000/svg"
 width="101.000000pt" height="101.000000pt" viewBox="0 0 101.000000 101.000000"
 preserveAspectRatio="xMidYMid meet">
<metadata>
Created by potrace 1.16, written by Peter Selinger 2001-2019
</metadata>
<g transform="translate(0.000000,101.000000) scale(0.100000,-0.100000)"
fill="#000000" stroke="none">
<path d="M195 990 c-3 -11 -8 -31 -11 -45 -14 -80 -80 -214 -146 -297 l-29
-38 32 -46 32 -47 23 39 c13 22 27 46 33 54 9 14 14 -140 16 -447 0 -75 7 -84
61 -76 l31 5 6 86 c4 48 5 171 4 274 -2 176 -1 186 15 171 10 -9 20 -24 23
-34 10 -30 22 -23 61 35 25 38 41 53 51 49 13 -5 15 -25 8 -141 -4 -75 -10
-145 -15 -157 -12 -31 -1 -72 20 -78 32 -8 70 4 70 23 0 11 8 18 23 19 39 3
220 3 277 0 113 -5 147 -1 153 21 13 49 1 57 -86 58 -132 1 -126 -1 -124 41
l1 36 66 0 c36 -1 70 -4 77 -8 19 -12 44 22 41 55 l-3 30 -90 1 -90 2 -1 30 0
30 88 -2 c85 -2 88 -2 94 22 14 55 6 60 -91 60 l-90 0 0 28 c0 25 3 27 43 27
23 0 42 5 42 10 0 7 20 9 59 4 54 -6 59 -4 65 14 4 11 4 31 1 45 -6 24 -7 24
-123 23 -83 -1 -108 2 -89 8 32 12 33 16 8 81 -19 49 -21 50 -57 48 -51 -4
-59 -14 -44 -58 6 -20 13 -47 15 -60 2 -25 1 -25 -71 -22 -41 1 -74 3 -74 5 0
9 41 82 50 87 27 17 -1 37 -73 50 -36 7 -43 0 -53 -54 -13 -65 -82 -187 -153
-271 l-30 -35 4 98 c5 99 19 148 55 194 11 14 20 29 20 33 0 8 -84 40 -106 40
-7 0 -15 -9 -19 -20z m441 -244 l0 -32 -75 1 -76 0 -1 30 0 30 75 1 76 1 1
-31z m0 -140 l-1 -34 -70 5 c-38 3 -71 6 -71 7 -1 0 -5 11 -8 23 -7 21 -4 22
71 26 43 1 78 4 79 5 0 1 0 -13 0 -32z m1 -146 c2 -37 1 -38 -42 -45 -25 -3
-53 -2 -64 4 -11 6 -26 8 -35 5 -12 -5 -15 2 -13 33 l1 38 76 2 76 1 1 -38z"/>
<path d="M820 308 c-19 -5 -36 -11 -38 -13 -1 -1 13 -34 31 -73 19 -39 37 -81
40 -93 6 -23 20 -22 82 1 l26 10 -47 90 c-26 50 -50 90 -53 89 -3 0 -22 -5
-41 -11z"/>
<path d="M665 297 c-16 -5 -31 -10 -32 -11 -1 -1 5 -21 13 -44 12 -36 20 -75
23 -115 1 -8 88 -3 96 5 8 8 -46 166 -58 171 -7 2 -25 0 -42 -6z"/>
<path d="M341 244 c-13 -30 -35 -69 -49 -85 -13 -16 -23 -31 -21 -33 10 -7
100 -38 103 -35 10 16 78 180 75 183 -6 4 -71 26 -79 26 -3 0 -17 -25 -29 -56z"/>
<path d="M507 293 c-15 -4 -17 -12 -11 -56 3 -29 7 -69 7 -89 l1 -37 41 3 c22
2 43 4 47 5 4 1 5 11 2 24 -3 12 -7 38 -8 57 -5 49 -17 90 -26 90 -5 0 -14 2
-22 4 -7 2 -21 2 -31 -1z"/>
</g>
</svg>
