<?xml version="1.0" standalone="no"?>
<!DOCTYPE svg PUBLIC "-//W3C//DTD SVG 20010904//EN"
 "http://www.w3.org/TR/2001/REC-SVG-20010904/DTD/svg10.dtd">
<svg version="1.0" xmlns="http://www.w3.org/2000/svg"
 width="101.000000pt" height="101.000000pt" viewBox="0 0 101.000000 101.000000"
 preserveAspectRatio="xMidYMid meet">
<metadata>
Created by potrace 1.16, written by Peter Selinger 2001-2019
</metadata>
<g transform="translate(0.000000,101.000000) scale(0.100000,-0.100000)"
fill="#000000" stroke="none">
<path d="M197 947 c-29 -99 -83 -214 -137 -293 l-49 -74 24 -24 c14 -14 25
-30 25 -36 0 -22 19 -8 48 36 26 41 30 44 31 23 2 -30 2 -205 1 -284 -1 -33 2
-77 5 -97 4 -21 3 -51 -3 -67 -12 -34 -1 -40 60 -33 l38 4 -5 64 c-2 35 0 64
5 64 17 0 65 -25 77 -40 7 -8 15 -27 18 -41 8 -36 37 -42 90 -19 49 21 56 38
54 140 -1 107 0 110 26 65 13 -22 28 -47 33 -55 8 -12 12 -12 36 3 l27 18 -20
-38 c-10 -22 -40 -58 -66 -82 -26 -23 -45 -44 -43 -44 2 -1 23 -12 47 -24 24
-13 48 -20 53 -17 6 4 27 33 48 66 37 56 64 125 90 228 11 39 13 43 25 27 15
-21 19 -175 5 -212 -24 -63 37 -110 123 -94 62 11 66 14 88 63 25 54 24 73 -3
82 -13 3 -31 13 -41 22 -21 19 -29 12 -31 -29 -2 -38 -29 -60 -48 -41 -14 14
-16 178 -4 262 4 25 9 59 11 75 2 17 7 40 10 53 4 12 3 22 -1 23 -5 0 -20 3
-34 5 -14 3 -34 5 -45 6 -12 0 -21 8 -22 17 -1 13 8 15 50 13 140 -8 157 -3
157 50 0 32 -30 52 -63 42 -12 -4 -47 -8 -77 -8 l-55 -1 2 65 c2 99 1 94 17
81 8 -7 25 -37 37 -67 13 -30 26 -54 31 -54 21 0 78 30 78 41 0 8 -57 112 -76
137 -1 2 -16 -4 -33 -12 -41 -22 -44 -20 -37 14 4 20 1 30 -7 31 -6 1 -33 2
-58 2 l-47 2 0 -35 c0 -19 4 -41 10 -47 7 -8 8 -41 3 -87 -6 -68 -8 -74 -28
-71 -35 4 -57 16 -51 27 3 5 3 21 -1 35 -5 23 -9 25 -43 20 -20 -4 -44 -2 -52
3 -11 7 -12 10 -2 10 17 0 11 49 -11 102 -15 35 -19 38 -56 36 -22 -1 -44 -4
-50 -7 -6 -4 -1 -30 12 -68 12 -34 19 -64 16 -67 -5 -6 -75 -9 -103 -4 -27 4
-42 -37 -27 -74 9 -23 17 -28 45 -28 19 0 41 7 50 15 19 20 75 19 115 -1 18
-9 47 -14 67 -12 26 3 33 1 29 -10 -3 -7 -5 -18 -5 -23 0 -6 -48 -8 -129 -4
-154 7 -177 1 -166 -48 6 -31 8 -96 5 -165 -1 -18 0 -36 3 -39 8 -8 49 -7 78
1 24 7 26 5 26 -23 0 -17 -1 -31 -2 -31 -2 0 -22 7 -45 15 -52 18 -50 18 -50
0 0 -9 -14 -46 -32 -83 l-32 -67 -9 90 c-7 65 -7 90 2 93 14 5 15 142 1 142
-6 0 -10 32 -10 75 0 43 4 75 10 75 6 0 10 15 10 34 0 36 52 157 76 177 8 6
14 16 14 21 0 9 -83 48 -103 48 -7 0 -20 -28 -30 -63z m268 -117 c-3 -5 -12
-10 -18 -10 -7 0 -6 4 3 10 19 12 23 12 15 0z m165 -173 c22 0 29 -4 26 -14
-3 -7 0 -25 6 -39 9 -19 9 -33 -2 -62 -7 -20 -14 -48 -16 -62 -4 -43 -15 -102
-25 -128 -9 -24 -10 -24 -41 22 -22 34 -35 45 -47 40 -40 -16 -46 -15 -47 11
-2 22 1 25 20 18 31 -10 67 -7 76 7 4 7 1 32 -7 57 -10 28 -12 53 -7 71 8 28
10 39 13 82 1 19 3 22 10 11 5 -8 23 -14 41 -14z m-141 -36 c7 -5 11 -13 7
-19 -3 -6 -1 -23 6 -37 11 -24 10 -29 -7 -42 -13 -9 -31 -12 -50 -8 -16 3 -41
7 -55 8 -20 2 -24 7 -22 27 2 14 3 35 4 48 0 16 5 21 17 18 9 -3 23 -1 31 4
19 12 51 12 69 1z m256 -123 c-2 -18 -3 -39 -4 -46 -1 -7 -6 -10 -11 -7 -9 5
-7 33 6 73 7 23 12 12 9 -20z m-345 -140 c8 -112 -2 -147 -43 -143 -12 1 -28
3 -35 4 -9 1 1 28 29 81 22 44 43 80 44 80 2 0 4 -10 5 -22z"/>
</g>
</svg>
