<?xml version="1.0" standalone="no"?>
<!DOCTYPE svg PUBLIC "-//W3C//DTD SVG 20010904//EN"
 "http://www.w3.org/TR/2001/REC-SVG-20010904/DTD/svg10.dtd">
<svg version="1.0" xmlns="http://www.w3.org/2000/svg"
 width="101.000000pt" height="101.000000pt" viewBox="0 0 101.000000 101.000000"
 preserveAspectRatio="xMidYMid meet">
<metadata>
Created by potrace 1.16, written by Peter Selinger 2001-2019
</metadata>
<g transform="translate(0.000000,101.000000) scale(0.100000,-0.100000)"
fill="#000000" stroke="none">
<path d="M180 962 c-6 -26 -11 -47 -10 -47 0 0 -8 -25 -18 -55 -23 -67 -70
-160 -110 -219 l-30 -44 27 -43 c14 -24 28 -44 31 -44 3 0 19 27 35 60 l30 60
2 -52 c3 -59 4 -138 4 -165 -1 -10 1 -54 4 -98 3 -45 1 -110 -4 -145 -5 -36
-7 -67 -4 -70 5 -5 84 -3 89 3 3 2 5 25 6 50 l2 47 38 -37 37 -36 43 28 c67
44 126 96 163 143 29 38 33 40 35 20 4 -55 -1 -160 -9 -181 -14 -36 2 -52 50
-50 23 1 43 4 46 7 3 2 -1 38 -7 80 -8 53 -8 81 -1 95 6 11 8 28 4 38 -3 10 8
0 24 -22 42 -56 70 -80 128 -108 80 -40 92 -41 106 -15 6 13 22 35 36 49 l24
26 -28 8 c-15 4 -38 9 -49 11 -40 5 -122 45 -149 74 l-27 28 24 2 c12 1 64 2
115 2 97 2 107 7 96 47 -5 18 -13 21 -62 21 -86 -1 -111 1 -111 10 0 5 19 25
42 44 23 20 40 38 37 40 -2 2 -20 11 -39 19 -38 16 -39 15 45 19 l30 1 3 124
c3 106 2 123 -11 123 -9 0 -19 -4 -22 -10 -3 -5 -24 -10 -46 -10 -21 0 -39 5
-39 10 0 6 -13 10 -28 10 -26 0 -28 3 -28 33 l1 32 103 0 c99 -1 103 0 108 22
12 47 4 50 -151 57 -94 5 -150 4 -158 -2 -15 -13 -174 -15 -182 -3 -3 5 -25 9
-50 9 -48 0 -75 -17 -75 -46 0 -34 14 -40 90 -38 l75 1 0 -37 0 -38 -77 5
c-64 4 -77 2 -82 -12 -4 -9 -4 -65 0 -124 6 -96 9 -108 27 -113 11 -3 29 0 39
5 11 6 27 8 36 4 13 -5 9 -10 -18 -21 -19 -8 -36 -16 -38 -18 -5 -6 49 -86 59
-86 13 0 79 33 79 39 0 3 -9 20 -20 36 -25 38 -25 43 3 43 12 1 33 2 47 4 20
2 25 -2 27 -22 1 -14 5 -38 8 -55 10 -53 -3 -60 -112 -59 -54 1 -114 4 -135 7
-30 4 -37 2 -41 -14 -12 -47 24 -80 64 -59 10 6 46 7 80 3 l63 -6 -44 -39
c-48 -43 -186 -115 -198 -104 -4 4 -6 50 -5 102 2 57 -1 94 -7 94 -6 0 -10 20
-10 45 0 25 5 45 10 45 6 0 10 30 10 70 0 40 -4 70 -10 70 -6 0 -10 32 -10 75
0 41 4 75 8 75 4 0 16 23 26 50 10 28 29 66 42 86 32 47 30 60 -8 69 -84 19
-85 19 -98 -33z m445 -123 c0 -37 0 -38 -40 -36 -39 2 -40 3 -37 37 3 33 6 35
41 35 36 1 37 0 36 -36z m-160 -154 l0 -50 -35 0 -35 0 0 50 0 51 35 -1 35 0
0 -50z m160 0 l0 -54 -43 2 c-31 1 -41 5 -37 15 3 8 5 29 5 47 0 32 2 34 38
38 20 2 37 4 37 5 0 1 0 -23 0 -53z m161 0 l1 -54 -41 1 -41 2 3 48 c4 46 5
47 40 51 21 2 37 4 37 5 0 1 0 -23 1 -53z m-49 -131 c2 -5 -13 -29 -32 -51
l-35 -41 36 -12 c26 -9 33 -15 25 -23 -8 -8 -20 -8 -42 0 -17 7 -37 9 -44 6
-19 -7 -30 42 -17 73 7 13 9 31 5 40 -5 13 -2 15 13 10 10 -3 26 -1 34 4 18
12 52 9 57 -6z"/>
</g>
</svg>
