<?xml version="1.0" standalone="no"?>
<!DOCTYPE svg PUBLIC "-//W3C//DTD SVG 20010904//EN"
 "http://www.w3.org/TR/2001/REC-SVG-20010904/DTD/svg10.dtd">
<svg version="1.0" xmlns="http://www.w3.org/2000/svg"
 width="101.000000pt" height="103.000000pt" viewBox="0 0 101.000000 103.000000"
 preserveAspectRatio="xMidYMid meet">
<metadata>
Created by potrace 1.16, written by Peter Selinger 2001-2019
</metadata>
<g transform="translate(0.000000,103.000000) scale(0.100000,-0.100000)"
fill="#000000" stroke="none">
<path d="M191 929 c-39 -113 -95 -216 -149 -272 -31 -32 -35 -40 -24 -55 7 -9
20 -29 30 -44 9 -16 20 -28 23 -28 4 0 21 22 39 50 18 27 33 50 34 50 0 0 1
-121 1 -270 0 -298 -4 -281 68 -272 39 4 46 18 25 51 -9 15 -9 26 0 45 6 14 9
33 6 41 -10 26 14 16 36 -15 12 -16 27 -30 34 -30 7 0 38 16 70 35 32 19 60
35 62 35 2 0 -1 -12 -6 -26 -6 -14 -8 -29 -5 -34 3 -4 -2 -13 -9 -19 -12 -10
-12 -18 2 -51 10 -22 22 -38 27 -35 6 2 51 21 102 42 l92 37 -4 33 c-2 18 -1
35 3 37 5 3 28 -11 52 -31 25 -20 72 -48 105 -63 102 -46 99 -47 130 5 15 26
25 48 23 51 -3 2 -26 6 -51 8 -26 3 -71 16 -100 29 l-52 25 58 26 c32 14 64
26 72 26 27 0 25 19 -4 52 -29 33 -29 36 -24 114 4 62 2 83 -8 89 -15 10 -410
19 -455 10 -40 -7 -47 -31 -38 -130 7 -80 21 -95 69 -73 13 6 32 7 42 4 16 -7
16 -9 -7 -28 -36 -30 -139 -77 -181 -82 -34 -4 -37 -3 -43 26 -9 48 -7 156 4
163 12 7 11 113 -1 121 -12 7 -11 51 1 59 6 4 10 41 9 88 -1 70 2 92 26 147
16 36 34 72 42 81 18 22 17 27 -17 44 -78 40 -72 43 -109 -66z m555 -429 c17
0 21 -6 20 -29 -1 -25 -6 -31 -31 -35 -43 -8 -168 -5 -180 4 -5 5 -33 7 -61 7
-47 -2 -50 -1 -46 21 5 23 20 26 118 22 23 -1 45 4 49 11 5 8 24 9 59 5 28 -3
60 -6 72 -6z m38 -129 c18 -7 16 -11 -19 -34 -50 -34 -59 -34 -86 4 -20 29
-21 31 -3 25 10 -3 26 -1 34 4 18 11 47 12 74 1z m-189 -41 c4 -11 17 -33 31
-49 l24 -29 -62 -26 c-68 -30 -86 -25 -72 21 4 15 8 36 8 46 1 16 41 56 58 57
4 0 10 -9 13 -20z"/>
<path d="M345 959 c-4 -17 -2 -43 5 -60 9 -20 11 -53 7 -97 l-7 -67 80 3 c53
2 80 0 80 -7 0 -7 27 -11 70 -11 40 0 70 4 70 10 0 6 20 10 45 10 25 0 45 -4
45 -10 0 -11 46 -13 113 -4 46 7 66 26 48 48 -7 9 -8 134 -1 171 8 40 2 43
-90 44 -56 1 -90 -2 -90 -9 0 -6 -32 -10 -80 -10 -47 0 -80 4 -80 10 0 6 -18
10 -40 10 -22 0 -40 -4 -40 -10 0 -5 -25 -10 -55 -10 -30 0 -55 5 -55 10 0 23
-19 8 -25 -21z m171 -103 l1 -51 -36 0 -36 0 0 50 0 50 35 1 35 2 1 -52z m139
2 l0 -53 -36 0 -35 -1 0 48 c1 46 2 47 36 51 19 2 35 4 35 5 0 1 0 -22 0 -50z
m145 7 c0 -18 3 -40 6 -48 4 -12 -3 -15 -33 -14 l-38 2 0 50 0 50 33 -3 c29
-4 32 -7 32 -37z"/>
<path d="M272 688 c-13 -13 -16 -57 -4 -75 5 -9 92 -11 340 -10 308 2 333 3
338 20 3 9 3 30 -1 45 l-6 27 -139 3 c-96 3 -140 0 -140 -7 0 -6 -19 -11 -45
-11 -25 0 -45 5 -45 10 0 15 -283 13 -298 -2z"/>
</g>
</svg>
