<?xml version="1.0" standalone="no"?>
<!DOCTYPE svg PUBLIC "-//W3C//DTD SVG 20010904//EN"
 "http://www.w3.org/TR/2001/REC-SVG-20010904/DTD/svg10.dtd">
<svg version="1.0" xmlns="http://www.w3.org/2000/svg"
 width="101.000000pt" height="101.000000pt" viewBox="0 0 101.000000 101.000000"
 preserveAspectRatio="xMidYMid meet">
<metadata>
Created by potrace 1.16, written by Peter Selinger 2001-2019
</metadata>
<g transform="translate(0.000000,101.000000) scale(0.100000,-0.100000)"
fill="#000000" stroke="none">
<path d="M196 939 c-33 -131 -88 -243 -157 -329 l-29 -34 32 -33 c18 -18 36
-33 40 -33 4 0 20 20 35 44 l28 44 -2 -191 c-1 -106 -2 -203 -2 -217 -1 -95 4
-102 66 -93 36 6 46 23 34 56 -14 37 -25 313 -13 321 13 8 14 114 1 122 -12 7
-11 51 1 59 6 4 10 32 9 63 -2 64 38 175 78 218 13 14 23 27 23 29 0 2 -24 11
-52 21 -29 9 -58 19 -63 21 -6 2 -19 -29 -29 -68z"/>
<path d="M368 963 c-12 -3 -17 -15 -16 -46 0 -23 5 -47 10 -54 10 -12 4 -184
-8 -235 l-6 -27 255 2 256 2 -5 113 c-4 71 -2 117 4 125 6 7 11 28 11 47 -1
68 2 66 -127 67 -64 1 -171 3 -237 6 -66 3 -128 3 -137 0z m197 -112 l0 -40
-60 2 -60 2 3 32 c4 29 7 32 46 36 22 2 48 4 56 5 12 2 16 -8 15 -37z m200 0
l0 -36 -55 0 -55 0 0 35 0 35 55 1 55 2 0 -37z m-185 -130 c0 -16 -4 -32 -8
-35 -5 -3 -34 -2 -65 1 -53 5 -57 8 -57 32 0 25 2 26 65 29 l65 3 0 -30z m186
-6 c-1 -30 -2 -30 -56 -30 -55 0 -56 0 -52 27 4 28 16 33 78 33 27 0 30 -3 30
-30z"/>
<path d="M276 563 c-10 -10 -7 -123 4 -123 6 0 10 -16 10 -35 0 -19 -4 -35
-10 -35 -5 0 -10 -18 -10 -40 0 -22 5 -40 10 -40 15 0 12 -67 -2 -73 -10 -4
-10 -8 1 -15 9 -7 11 -21 6 -49 -5 -35 -4 -41 14 -46 12 -3 30 -3 41 0 16 4
19 11 15 35 -5 25 -3 29 10 24 9 -3 25 -1 36 5 24 13 110 1 108 -15 -3 -25 2
-34 22 -39 48 -13 51 -4 43 135 -6 106 -4 132 7 140 11 7 11 11 2 15 -16 6
-17 73 -2 73 6 0 9 17 7 42 l-3 42 -151 3 c-83 1 -154 0 -158 -4z m123 -88 c0
-11 2 -33 3 -49 3 -27 0 -30 -27 -30 -27 -1 -30 2 -27 29 1 17 3 40 3 51 2 30
46 28 48 -1z m110 0 c0 -11 2 -33 3 -49 3 -27 0 -30 -27 -30 -27 -1 -30 2 -27
29 1 17 3 40 3 51 2 30 46 28 48 -1z m-111 -160 c1 -11 2 -31 4 -44 3 -21 -1
-25 -27 -25 -26 -1 -30 2 -27 24 2 14 3 35 4 46 0 30 45 28 46 -1z m110 0 c1
-11 2 -31 4 -44 3 -21 -1 -25 -27 -25 -26 -1 -30 2 -27 24 2 14 3 35 4 46 0
30 45 28 46 -1z"/>
<path d="M616 517 c11 -84 9 -269 -2 -302 -6 -16 -9 -46 -6 -67 4 -39 24 -51
63 -41 17 5 20 11 15 35 -5 25 -3 29 10 24 8 -3 24 -1 35 4 26 14 122 2 115
-15 -9 -26 36 -53 62 -37 13 9 16 102 8 282 -2 52 -1 102 4 111 14 25 1 62
-19 53 -24 -11 -143 -15 -155 -5 -6 5 -39 9 -74 9 l-63 0 7 -51z m122 -42 c1
-11 2 -31 4 -44 3 -21 -1 -25 -27 -25 -26 -1 -30 2 -27 24 2 14 3 35 4 46 0
30 45 28 46 -1z m110 0 c1 -11 2 -31 4 -44 3 -21 -1 -25 -27 -25 -26 -1 -30 2
-27 24 2 14 3 35 4 46 0 30 45 28 46 -1z m-109 -160 c0 -11 2 -33 3 -49 3 -27
0 -30 -27 -30 -27 -1 -30 2 -27 29 1 17 3 40 3 51 2 30 46 28 48 -1z m110 0
c0 -11 2 -33 3 -49 3 -27 0 -30 -27 -30 -27 -1 -30 2 -27 29 1 17 3 40 3 51 2
30 46 28 48 -1z"/>
</g>
</svg>
