<?xml version="1.0" standalone="no"?>
<!DOCTYPE svg PUBLIC "-//W3C//DTD SVG 20010904//EN"
 "http://www.w3.org/TR/2001/REC-SVG-20010904/DTD/svg10.dtd">
<svg version="1.0" xmlns="http://www.w3.org/2000/svg"
 width="101.000000pt" height="101.000000pt" viewBox="0 0 101.000000 101.000000"
 preserveAspectRatio="xMidYMid meet">
<metadata>
Created by potrace 1.16, written by Peter Selinger 2001-2019
</metadata>
<g transform="translate(0.000000,101.000000) scale(0.100000,-0.100000)"
fill="#000000" stroke="none">
<path d="M464 923 l1 -88 -83 0 c-45 0 -82 1 -82 3 0 9 41 82 50 87 19 12 10
26 -25 41 -49 20 -72 18 -81 -8 -4 -13 -6 -23 -4 -23 8 0 -57 -129 -87 -173
-20 -29 -34 -54 -32 -55 35 -20 73 -37 82 -37 7 0 21 16 32 35 l20 35 105 5
105 5 2 -65 2 -64 -33 -7 c-19 -3 -63 -3 -98 0 -34 4 -116 8 -181 10 -116 3
-117 2 -123 -21 -9 -35 3 -73 21 -66 9 3 71 2 139 -2 l124 -7 4 -29 c3 -17 1
-32 -4 -35 -4 -3 -8 -17 -7 -32 4 -104 -74 -191 -213 -238 l-48 -16 33 -41
c17 -23 33 -44 35 -47 8 -11 138 67 187 112 72 66 114 174 116 300 0 12 12 17
52 20 l52 3 -2 -164 c-3 -174 2 -197 46 -220 21 -12 80 -24 101 -22 8 1 49 3
91 4 91 4 123 21 149 80 34 80 34 79 -21 110 -28 16 -53 26 -55 24 -3 -2 -7
-17 -9 -33 -2 -16 -6 -38 -8 -49 -5 -27 -64 -56 -102 -50 -16 3 -40 7 -52 8
-12 1 -25 5 -29 10 -4 4 -8 74 -8 155 l-1 147 155 3 c166 3 172 5 168 57 l-3
30 -123 -4 c-82 -2 -127 1 -136 8 -8 7 -38 10 -67 9 l-54 -3 0 57 0 58 43 0
c23 0 42 5 42 10 0 6 11 10 25 10 14 0 25 -4 25 -10 0 -17 126 -12 144 6 35
34 6 102 -38 89 -12 -3 -71 -7 -132 -8 l-111 -2 1 85 1 85 -51 3 -51 3 1 -88z"/>
</g>
</svg>
