<?xml version="1.0" standalone="no"?>
<!DOCTYPE svg PUBLIC "-//W3C//DTD SVG 20010904//EN"
 "http://www.w3.org/TR/2001/REC-SVG-20010904/DTD/svg10.dtd">
<svg version="1.0" xmlns="http://www.w3.org/2000/svg"
 width="101.000000pt" height="101.000000pt" viewBox="0 0 101.000000 101.000000"
 preserveAspectRatio="xMidYMid meet">
<metadata>
Created by potrace 1.16, written by Peter Selinger 2001-2019
</metadata>
<g transform="translate(0.000000,101.000000) scale(0.100000,-0.100000)"
fill="#000000" stroke="none">
<path d="M334 983 c-53 -87 -73 -114 -123 -167 -31 -32 -82 -76 -114 -98 l-58
-39 40 -30 c23 -16 44 -29 48 -29 4 0 22 14 40 31 27 27 32 29 32 13 -1 -10 1
-56 4 -102 2 -45 0 -85 -5 -88 -11 -7 -10 -51 2 -75 21 -39 108 -12 97 30 -3
14 8 16 79 16 l82 0 -21 -39 c-49 -86 -213 -202 -315 -222 -18 -4 -32 -8 -32
-11 0 -2 19 -22 42 -44 l43 -40 34 16 c55 26 166 100 211 142 24 21 58 60 76
88 33 49 34 49 34 20 1 -64 10 -188 15 -205 8 -24 61 -43 86 -30 10 6 69 8
139 6 101 -4 123 -2 139 12 23 19 62 118 55 135 -6 13 -96 59 -102 52 -3 -2
-6 -26 -8 -52 -2 -28 -10 -53 -19 -59 -21 -16 -133 -26 -155 -14 -10 5 -25 7
-33 4 -23 -9 -28 23 -18 122 5 49 8 90 6 92 -2 2 -20 5 -41 8 -21 3 -40 7 -43
9 -5 6 165 11 254 8 l60 -2 2 149 2 149 -114 -2 c-63 -1 -115 -1 -115 1 0 1
26 37 57 78 45 61 54 77 42 85 -20 12 -39 11 -106 -6 -66 -17 -129 -20 -138
-5 -3 6 -29 9 -57 7 l-51 -3 42 38 c24 20 40 42 36 47 -6 11 -69 31 -97 31
-10 0 -25 -12 -34 -27z m233 -160 l33 -5 -34 -41 c-33 -40 -35 -41 -90 -38
-35 1 -56 -2 -56 -8 0 -6 -16 -11 -35 -11 -19 0 -35 5 -35 10 0 6 -18 10 -40
10 -22 0 -40 4 -40 8 0 20 62 67 85 64 13 -2 26 2 30 7 6 11 126 14 182 4z
m-84 -205 c-3 -18 -6 -49 -7 -68 l-1 -35 -63 -3 c-38 -2 -62 1 -62 8 0 5 -14
10 -31 10 -28 0 -31 3 -25 23 3 12 6 36 6 54 0 35 -1 35 147 41 l42 2 -6 -32z
m292 -31 l0 -62 -35 -7 c-19 -4 -65 -7 -101 -7 l-67 -1 3 58 c2 31 4 62 4 67
1 6 43 11 99 12 l97 3 0 -63z"/>
</g>
</svg>
