<?xml version="1.0" standalone="no"?>
<!DOCTYPE svg PUBLIC "-//W3C//DTD SVG 20010904//EN"
 "http://www.w3.org/TR/2001/REC-SVG-20010904/DTD/svg10.dtd">
<svg version="1.0" xmlns="http://www.w3.org/2000/svg"
 width="101.000000pt" height="101.000000pt" viewBox="0 0 101.000000 101.000000"
 preserveAspectRatio="xMidYMid meet">
<metadata>
Created by potrace 1.16, written by Peter Selinger 2001-2019
</metadata>
<g transform="translate(0.000000,101.000000) scale(0.100000,-0.100000)"
fill="#000000" stroke="none">
<path d="M474 994 c-15 -8 -34 -12 -41 -10 -18 7 -16 -8 6 -52 l19 -37 -117 2
c-64 1 -144 5 -179 8 -78 7 -102 -4 -102 -48 0 -56 5 -58 136 -52 l119 6 -50
-51 c-27 -28 -83 -72 -122 -97 l-73 -45 36 -34 36 -34 106 82 c58 45 118 88
134 95 37 19 35 29 -9 52 l-38 20 47 1 c26 0 50 4 53 10 8 13 146 11 162 -2 7
-6 23 -8 34 -5 18 5 17 0 -11 -28 -19 -19 -32 -36 -29 -38 2 -2 39 -25 82 -51
42 -26 100 -66 128 -88 l51 -40 34 33 c19 18 34 38 34 44 0 5 -60 45 -132 88
l-133 77 47 0 c26 0 50 5 53 10 7 12 48 13 59 3 4 -5 34 -8 67 -8 66 0 76 10
64 64 -6 27 -8 28 -50 23 -28 -3 -50 0 -60 8 -10 8 -24 9 -42 4 -16 -4 -74 -8
-131 -8 l-103 -1 -15 52 c-17 59 -30 67 -70 47z"/>
<path d="M421 676 c-41 -65 -153 -158 -194 -160 -23 -1 -23 -2 -13 -70 5 -35
23 -48 49 -34 29 15 87 18 87 4 0 -7 -4 -16 -9 -21 -6 -6 -12 -22 -15 -36 -7
-40 -34 -87 -59 -104 -30 -19 -134 -55 -141 -48 -3 3 -21 2 -41 -1 l-36 -7 34
-38 c19 -21 36 -44 38 -50 4 -10 21 -7 69 9 84 28 145 65 175 104 23 30 54
102 59 136 8 56 16 65 59 66 l42 1 2 -130 c2 -111 5 -133 20 -148 18 -18 71
-33 108 -30 11 1 58 2 105 4 104 2 126 15 160 87 24 51 24 53 6 64 -10 6 -31
21 -46 34 -15 12 -30 22 -33 22 -2 0 -10 -21 -17 -47 -14 -56 -26 -74 -46 -66
-8 3 -22 2 -31 -2 -36 -15 -129 -5 -127 13 1 7 2 52 3 101 l1 89 37 7 c31 6
40 3 54 -14 10 -12 22 -21 28 -21 18 0 81 44 81 57 0 14 -169 173 -184 173 -6
0 -26 -9 -45 -21 l-34 -20 31 -32 31 -32 -130 0 -130 0 43 38 c24 20 64 51 91
69 40 27 59 48 42 48 -2 0 -27 9 -54 20 l-50 19 -20 -33z"/>
</g>
</svg>
