<?xml version="1.0" standalone="no"?>
<!DOCTYPE svg PUBLIC "-//W3C//DTD SVG 20010904//EN"
 "http://www.w3.org/TR/2001/REC-SVG-20010904/DTD/svg10.dtd">
<svg version="1.0" xmlns="http://www.w3.org/2000/svg"
 width="101.000000pt" height="101.000000pt" viewBox="0 0 101.000000 101.000000"
 preserveAspectRatio="xMidYMid meet">
<metadata>
Created by potrace 1.16, written by Peter Selinger 2001-2019
</metadata>
<g transform="translate(0.000000,101.000000) scale(0.100000,-0.100000)"
fill="#000000" stroke="none">
<path d="M469 993 c-11 -2 -15 -11 -12 -23 3 -10 -3 -29 -12 -44 -9 -14 -14
-29 -12 -33 3 -5 -15 -8 -41 -8 -36 1 -52 7 -75 29 -26 26 -31 27 -69 18 -22
-6 -47 -8 -54 -5 -8 3 -27 0 -43 -7 l-29 -11 0 -157 c0 -191 1 -177 -17 -196
-15 -14 -11 -27 22 -85 2 -2 29 8 60 22 32 14 72 28 90 32 33 7 39 17 42 72
l1 32 -32 -13 c-80 -33 -74 -41 -73 101 0 121 1 128 20 130 11 1 37 3 58 5 25
2 37 -1 37 -9 0 -7 5 -13 11 -13 12 0 6 -203 -8 -292 l-5 -38 43 6 c66 9 210
9 244 0 l30 -7 0 158 c0 87 4 168 9 180 8 19 10 20 24 7 11 -11 25 -13 53 -9
38 7 39 6 39 -24 0 -17 5 -31 10 -31 11 0 13 -93 4 -161 l-6 -44 -53 2 c-52 2
-54 1 -60 -27 -4 -16 -4 -39 0 -49 5 -17 12 -20 48 -15 63 9 99 9 127 1 l25
-8 3 131 c2 84 -1 130 -8 130 -5 0 -10 11 -10 25 0 14 5 25 10 25 6 0 10 28
10 65 0 64 0 65 -27 65 -16 0 -58 3 -96 7 l-67 6 -11 -33 c-7 -17 -14 -27 -18
-22 -3 6 -34 10 -68 9 -55 -2 -61 0 -57 17 2 11 13 30 25 43 24 25 24 25 -8
42 -22 11 -44 12 -74 4z m83 -226 l4 -33 -66 0 -65 1 0 33 0 32 61 0 62 0 4
-33z m-47 -107 l43 0 4 -45 3 -46 -55 7 c-30 4 -56 7 -56 8 -1 0 -4 20 -7 44
-4 36 -3 42 10 38 8 -3 34 -6 58 -6z"/>
<path d="M349 483 c-22 -5 -30 -39 -17 -69 8 -18 7 -31 -7 -61 -35 -76 -97
-119 -195 -137 -14 -2 -37 -7 -53 -11 l-27 -7 30 -34 c16 -19 30 -39 30 -45 0
-16 55 -2 133 34 86 38 149 105 171 179 8 29 13 55 10 60 -3 4 2 21 11 37 19
39 20 38 -12 45 -52 13 -58 13 -74 9z"/>
<path d="M548 473 c-14 -4 -16 -12 -11 -46 3 -23 7 -89 8 -147 4 -136 2 -128
25 -140 21 -11 83 -23 110 -21 8 0 44 3 80 5 103 6 132 25 168 109 17 39 15
57 -6 57 -10 0 -29 11 -42 25 -26 27 -40 32 -40 13 0 -7 -5 -30 -11 -51 -8
-31 -19 -42 -55 -60 -38 -18 -49 -19 -75 -10 -17 7 -36 10 -43 7 -7 -3 -18 2
-25 10 -22 26 -14 183 10 213 7 8 8 17 3 22 -11 10 -73 19 -96 14z"/>
</g>
</svg>
