<?xml version="1.0" standalone="no"?>
<!DOCTYPE svg PUBLIC "-//W3C//DTD SVG 20010904//EN"
 "http://www.w3.org/TR/2001/REC-SVG-20010904/DTD/svg10.dtd">
<svg version="1.0" xmlns="http://www.w3.org/2000/svg"
 width="101.000000pt" height="101.000000pt" viewBox="0 0 101.000000 101.000000"
 preserveAspectRatio="xMidYMid meet">
<metadata>
Created by potrace 1.16, written by Peter Selinger 2001-2019
</metadata>
<g transform="translate(0.000000,101.000000) scale(0.100000,-0.100000)"
fill="#000000" stroke="none">
<path d="M615 980 c-4 -6 -14 -10 -23 -9 -41 4 -42 0 -17 -68 51 -136 188
-324 287 -394 l29 -21 27 24 c15 14 38 32 50 41 l24 15 -59 37 c-119 76 -206
182 -259 315 -25 66 -44 84 -59 60z"/>
<path d="M303 959 c-10 -35 -81 -177 -114 -227 -18 -26 -66 -82 -107 -124
l-76 -77 30 -11 c16 -5 37 -15 46 -20 10 -6 24 -10 32 -10 20 0 163 192 223
299 26 47 60 100 75 117 31 35 27 43 -31 63 -50 16 -72 14 -78 -10z"/>
<path d="M372 547 c-65 -134 -133 -231 -194 -280 -33 -26 -38 -35 -33 -57 4
-14 9 -34 11 -44 4 -22 24 -37 37 -29 5 3 25 7 45 9 20 2 60 5 87 8 28 3 91 7
140 9 50 2 124 7 165 12 l76 8 18 -42 c11 -22 21 -41 23 -41 10 0 103 43 103
48 0 14 -187 312 -196 312 -12 0 -84 -41 -84 -48 0 -4 20 -36 44 -72 35 -52
41 -66 27 -68 -9 -2 -20 -8 -25 -13 -13 -12 -63 -12 -71 0 -8 15 -87 11 -112
-5 -27 -17 -69 -18 -79 -3 -3 6 -17 9 -31 6 -22 -4 -23 -3 -8 17 8 11 58 85
110 162 52 78 102 147 110 154 8 7 15 17 15 22 0 7 -100 58 -114 58 -2 0 -31
-55 -64 -123z"/>
</g>
</svg>
