<?xml version="1.0" standalone="no"?>
<!DOCTYPE svg PUBLIC "-//W3C//DTD SVG 20010904//EN"
 "http://www.w3.org/TR/2001/REC-SVG-20010904/DTD/svg10.dtd">
<svg version="1.0" xmlns="http://www.w3.org/2000/svg"
 width="101.000000pt" height="101.000000pt" viewBox="0 0 101.000000 101.000000"
 preserveAspectRatio="xMidYMid meet">
<metadata>
Created by potrace 1.16, written by Peter Selinger 2001-2019
</metadata>
<g transform="translate(0.000000,101.000000) scale(0.100000,-0.100000)"
fill="#000000" stroke="none">
<path d="M423 958 c-74 -125 -192 -236 -327 -307 -33 -17 -61 -33 -63 -35 -2
-1 15 -21 36 -44 l40 -42 50 40 c46 36 50 38 56 20 6 -18 24 -26 50 -20 6 1
51 3 100 3 l90 2 0 -60 0 -60 -115 2 c-146 3 -166 -1 -174 -33 -15 -57 -9 -59
143 -59 l140 0 3 -76 3 -75 -157 2 c-87 2 -162 5 -167 8 -32 20 -64 -51 -42
-93 9 -16 21 -21 51 -21 22 0 40 5 40 10 0 15 67 12 74 -2 5 -11 7 -11 12 0 7
15 164 17 164 2 0 -5 18 -10 40 -10 22 0 40 5 40 10 0 6 33 10 80 10 54 0 80
-4 80 -12 0 -16 221 -2 232 15 26 41 -5 103 -45 88 -12 -5 -46 -6 -74 -4 -36
4 -53 2 -53 -6 0 -6 -16 -11 -35 -11 -19 0 -35 5 -35 10 0 6 -27 10 -61 10
l-62 0 7 37 c3 21 6 53 6 71 0 27 3 32 25 32 14 0 25 5 25 10 0 16 104 12 139
-6 59 -30 104 5 88 69 -6 21 -9 22 -144 22 l-138 0 0 60 0 60 82 -2 c46 -1 87
-5 93 -8 27 -17 72 27 55 54 -3 6 22 -1 55 -15 33 -13 64 -24 70 -24 5 0 17
17 25 37 9 21 23 45 31 54 14 15 12 17 -13 24 -15 5 -31 8 -35 7 -3 -1 -30 6
-60 14 -101 30 -201 100 -263 184 -31 42 -35 53 -24 66 18 22 -1 36 -58 41
l-48 5 -32 -54z m95 -108 c33 -58 79 -108 136 -146 28 -19 46 -34 41 -35 -6 0
-31 0 -56 1 -26 1 -50 -3 -53 -9 -8 -12 -166 -13 -181 -1 -7 6 -33 9 -59 7
-26 -1 -49 0 -51 3 -2 3 30 39 71 79 40 41 84 89 96 108 13 18 25 33 28 33 3
0 15 -18 28 -40z"/>
</g>
</svg>
