<?xml version="1.0" standalone="no"?>
<!DOCTYPE svg PUBLIC "-//W3C//DTD SVG 20010904//EN"
 "http://www.w3.org/TR/2001/REC-SVG-20010904/DTD/svg10.dtd">
<svg version="1.0" xmlns="http://www.w3.org/2000/svg"
 width="101.000000pt" height="101.000000pt" viewBox="0 0 101.000000 101.000000"
 preserveAspectRatio="xMidYMid meet">
<metadata>
Created by potrace 1.16, written by Peter Selinger 2001-2019
</metadata>
<g transform="translate(0.000000,101.000000) scale(0.100000,-0.100000)"
fill="#000000" stroke="none">
<path d="M66 958 c-16 -61 4 -86 69 -86 25 0 48 4 51 9 6 10 75 11 186 2 l66
-5 4 -47 3 -46 -132 2 -132 2 -7 -34 c-3 -18 -3 -60 0 -92 7 -60 7 -81 3 -181
l-2 -58 -49 8 c-28 4 -60 5 -73 2 -26 -7 -38 -41 -29 -78 5 -20 11 -24 38 -21
18 1 41 6 51 10 29 12 65 -2 66 -27 0 -13 3 -51 5 -86 3 -35 1 -74 -4 -87 -10
-27 5 -34 62 -27 38 4 38 4 32 43 -6 36 -8 107 -4 155 2 14 10 22 24 23 53 4
226 2 275 -2 30 -3 63 -1 74 5 10 5 34 7 52 4 25 -5 33 -11 33 -29 0 -12 2
-31 6 -42 11 -37 -19 -60 -75 -58 -27 1 -49 -2 -47 -5 2 -4 12 -29 22 -55 18
-44 21 -47 50 -43 110 14 130 32 133 120 4 104 4 104 27 105 68 5 93 4 107 -3
13 -6 18 0 21 25 10 67 -4 79 -100 79 -51 0 -52 1 -46 25 3 14 2 31 -4 38 -13
16 -15 154 -2 162 12 7 13 95 2 111 -5 7 -53 11 -142 10 l-135 -1 0 46 c0 39
3 45 18 41 9 -2 23 0 30 6 16 14 174 14 182 1 4 -5 35 -9 70 -9 84 0 107 21
89 85 -5 19 -15 20 -150 23 -97 2 -144 0 -144 -7 0 -6 -11 -11 -25 -11 -14 0
-25 5 -25 10 0 6 -30 10 -70 10 -40 0 -70 -4 -70 -10 0 -6 -33 -10 -80 -10
-47 0 -80 4 -80 10 0 6 -18 10 -40 10 -22 0 -40 -4 -40 -10 0 -5 -25 -10 -55
-10 -30 0 -55 5 -55 10 0 20 -28 9 -34 -12z m379 -306 l0 -47 -57 -3 c-36 -2
-58 1 -58 8 0 5 -13 10 -29 10 -26 0 -29 3 -27 33 1 30 4 32 46 38 25 3 63 7
85 7 l40 2 0 -48z m280 3 c0 -40 -2 -44 -29 -49 -16 -3 -56 -6 -90 -6 l-61 0
0 48 0 47 90 1 90 2 0 -43z m-283 -185 l3 -49 -85 2 -85 2 0 42 -1 42 76 4
c41 1 78 4 82 5 3 1 8 -20 10 -48z m283 -3 c0 -42 -3 -49 -24 -54 -13 -3 -32
-1 -41 5 -9 5 -39 9 -66 9 l-49 -2 0 45 0 45 90 0 90 0 0 -48z"/>
</g>
</svg>
