<?xml version="1.0" standalone="no"?>
<!DOCTYPE svg PUBLIC "-//W3C//DTD SVG 20010904//EN"
 "http://www.w3.org/TR/2001/REC-SVG-20010904/DTD/svg10.dtd">
<svg version="1.0" xmlns="http://www.w3.org/2000/svg"
 width="101.000000pt" height="101.000000pt" viewBox="0 0 101.000000 101.000000"
 preserveAspectRatio="xMidYMid meet">
<metadata>
Created by potrace 1.16, written by Peter Selinger 2001-2019
</metadata>
<g transform="translate(0.000000,101.000000) scale(0.100000,-0.100000)"
fill="#000000" stroke="none">
<path d="M159 994 c-12 -4 -16 -18 -17 -62 0 -31 4 -63 10 -69 9 -11 5 -112
-5 -168 -2 -12 46 -19 78 -11 22 6 22 10 21 111 l-1 105 43 0 c23 0 42 5 42
10 0 6 16 10 35 10 19 0 35 -4 35 -10 0 -6 30 -10 70 -10 40 0 70 4 70 10 0 6
11 10 25 10 14 0 25 -5 25 -11 0 -8 24 -10 83 -5 l82 7 -2 -103 -1 -103 54 0
55 0 -5 30 c-14 79 -18 165 -8 178 6 7 10 26 10 42 l-1 30 -86 -2 c-203 -6
-529 0 -576 11 -11 2 -27 2 -36 0z"/>
<path d="M265 843 c-9 -37 3 -61 34 -68 32 -7 81 3 81 16 0 5 11 9 25 9 14 0
25 -4 25 -10 0 -6 30 -10 70 -10 40 0 70 4 70 10 0 6 11 10 25 10 14 0 25 -5
25 -11 0 -6 22 -9 55 -8 48 2 56 5 61 25 9 34 -4 66 -24 60 -43 -12 -180 -18
-186 -7 -5 7 -51 10 -131 10 -123 -1 -123 -1 -130 -26z"/>
<path d="M294 753 c-21 -15 -25 -50 -8 -68 16 -15 13 -20 -37 -66 -29 -27 -86
-66 -126 -86 l-72 -38 36 -33 37 -33 25 19 26 19 0 -88 c0 -71 3 -89 16 -92
24 -6 79 4 79 15 0 6 7 7 16 4 8 -3 25 -1 36 5 11 6 35 8 55 4 34 -6 34 -7 17
-26 -10 -11 -45 -33 -78 -49 -58 -29 -89 -36 -199 -44 -27 -3 -51 -7 -54 -10
-3 -3 9 -23 28 -45 28 -32 39 -38 64 -36 40 5 158 46 221 78 48 24 124 96 124
117 0 21 28 9 29 -12 1 -13 3 -45 5 -73 1 -27 3 -56 4 -63 3 -21 69 -44 91
-32 11 5 67 8 128 6 75 -2 116 1 134 10 29 15 78 106 60 112 -6 2 -26 14 -45
27 l-35 23 -9 -28 c-6 -16 -8 -30 -6 -33 8 -8 -27 -30 -54 -35 -56 -8 -158 -2
-179 11 -7 5 -12 26 -11 51 3 50 -8 47 144 49 l102 1 6 60 c15 141 3 165 -73
151 -60 -12 -121 -12 -112 0 4 5 23 29 41 52 18 24 31 46 28 49 -4 3 -83 8
-177 11 -130 5 -169 9 -161 18 5 6 6 16 2 20 -4 5 2 5 13 1 11 -4 84 -4 163 0
141 7 142 7 149 32 4 18 1 29 -12 39 -24 17 -83 16 -115 -2 -29 -16 -96 -20
-105 -5 -3 5 -34 9 -68 8 -34 0 -78 2 -97 6 -19 3 -40 3 -46 -1z m283 -221
c-21 -22 -26 -23 -178 -20 l-158 3 25 20 c23 18 40 20 179 20 l154 0 -22 -23z
m-150 -78 c27 -5 30 -9 27 -37 -2 -17 -5 -32 -7 -34 -4 -3 -106 -5 -148 -2
-21 1 -26 6 -26 30 0 27 3 29 39 29 21 0 38 5 38 10 0 11 33 13 77 4z m319 0
c15 -4 20 -14 21 -39 1 -31 -2 -35 -30 -40 -18 -3 -61 -3 -97 0 -36 3 -75 6
-86 6 -20 1 -21 5 -13 33 5 17 9 31 9 32 0 1 20 -1 44 -3 24 -3 52 0 62 6 21
11 58 14 90 5z"/>
</g>
</svg>
