<?xml version="1.0" standalone="no"?>
<!DOCTYPE svg PUBLIC "-//W3C//DTD SVG 20010904//EN"
 "http://www.w3.org/TR/2001/REC-SVG-20010904/DTD/svg10.dtd">
<svg version="1.0" xmlns="http://www.w3.org/2000/svg"
 width="101.000000pt" height="101.000000pt" viewBox="0 0 101.000000 101.000000"
 preserveAspectRatio="xMidYMid meet">
<metadata>
Created by potrace 1.16, written by Peter Selinger 2001-2019
</metadata>
<g transform="translate(0.000000,101.000000) scale(0.100000,-0.100000)"
fill="#000000" stroke="none">
<path d="M118 993 c-10 -3 -20 -17 -23 -36 -7 -39 1 -272 10 -287 7 -12 64
-13 83 -2 14 9 17 58 11 167 l-4 70 112 -3 c70 -2 114 1 118 8 8 13 52 13 61
-1 4 -8 54 -9 163 -5 l156 6 -2 -120 -3 -119 34 -7 c19 -3 43 -3 55 1 24 7 37
41 22 58 -15 19 -26 118 -13 126 8 5 16 83 13 126 -1 12 -245 14 -257 3 -11
-11 -52 -10 -59 2 -8 13 -142 13 -150 1 -7 -12 -172 -13 -180 -1 -3 5 -29 8
-58 8 -29 -1 -57 1 -62 3 -6 3 -18 4 -27 2z"/>
<path d="M264 838 c-3 -11 -3 -30 0 -42 5 -22 8 -22 138 -19 202 4 209 4 276
1 57 -3 63 -1 68 19 13 51 5 58 -81 60 -44 1 -84 -2 -90 -7 -15 -12 -153 -12
-160 0 -4 6 -37 10 -75 9 -59 -1 -70 -4 -76 -21z"/>
<path d="M277 735 c-19 -18 -22 -42 -7 -65 10 -16 68 -19 220 -8 48 4 101 2
122 -4 20 -6 56 -8 80 -4 43 7 44 7 43 45 0 39 0 39 -48 45 -34 5 -57 2 -79
-9 -34 -16 -124 -21 -130 -6 -1 5 -44 12 -94 16 -77 6 -93 5 -107 -10z"/>
<path d="M191 612 c-12 -23 -13 -170 -1 -177 14 -9 12 -69 -2 -83 -8 -8 -8
-15 1 -26 8 -10 11 -47 7 -124 -5 -122 -3 -124 62 -114 31 4 37 13 34 53 -2
19 2 20 148 20 293 -1 282 0 276 -19 -10 -30 10 -46 55 -45 23 1 43 3 44 5 2
2 -1 41 -5 88 -13 130 -12 217 3 224 10 5 10 7 0 12 -15 7 -18 74 -3 74 6 0
10 27 10 60 l0 61 -126 -7 c-103 -6 -128 -4 -136 7 -7 11 -11 11 -15 2 -6 -15
-73 -18 -73 -3 0 6 -18 10 -40 10 -22 0 -40 -4 -40 -10 0 -5 -16 -10 -35 -10
-19 0 -35 5 -35 10 0 6 -27 10 -60 10 -47 0 -61 -4 -69 -18z m309 -62 c8 0 47
2 85 5 39 3 84 3 101 0 26 -5 30 -9 31 -40 l1 -35 -91 0 c-380 -1 -342 -5
-342 35 0 32 0 32 41 27 23 -2 50 1 60 7 11 6 37 9 59 6 22 -3 47 -5 55 -5z
m126 -130 l91 0 0 -30 0 -30 -91 0 c-377 -1 -343 -5 -343 31 0 22 4 28 16 24
9 -2 23 0 31 5 8 5 57 7 110 4 52 -2 136 -4 186 -4z m0 -130 l91 0 0 -30 0
-30 -91 0 c-377 -1 -343 -5 -343 31 0 22 4 28 16 24 9 -2 23 0 31 5 8 5 57 7
110 4 52 -2 136 -4 186 -4z"/>
</g>
</svg>
