<?xml version="1.0" standalone="no"?>
<!DOCTYPE svg PUBLIC "-//W3C//DTD SVG 20010904//EN"
 "http://www.w3.org/TR/2001/REC-SVG-20010904/DTD/svg10.dtd">
<svg version="1.0" xmlns="http://www.w3.org/2000/svg"
 width="101.000000pt" height="101.000000pt" viewBox="0 0 101.000000 101.000000"
 preserveAspectRatio="xMidYMid meet">
<metadata>
Created by potrace 1.16, written by Peter Selinger 2001-2019
</metadata>
<g transform="translate(0.000000,101.000000) scale(0.100000,-0.100000)"
fill="#000000" stroke="none">
<path d="M118 934 c-15 -5 -17 -19 -15 -117 1 -62 7 -115 12 -119 12 -9 57
-10 78 -2 11 4 14 15 10 40 -3 20 0 45 7 59 7 13 10 30 8 37 -4 10 5 13 40 11
25 -2 50 1 57 7 15 13 173 11 181 -2 4 -7 54 -8 150 -3 l144 7 2 -48 c1 -27 2
-61 1 -76 -1 -24 4 -28 33 -34 44 -8 87 3 81 20 -3 7 -9 55 -13 106 -5 70 -4
94 6 100 20 13 -234 24 -257 12 -12 -7 -57 -9 -114 -7 -90 5 -135 5 -271 3
-35 0 -76 2 -93 5 -16 3 -38 3 -47 1z"/>
<path d="M338 693 c-24 -6 -29 -32 -26 -133 6 -211 -53 -297 -240 -356 -9 -3
4 -20 34 -48 l49 -44 55 35 c77 49 114 87 148 152 37 69 46 110 54 243 3 54 5
58 28 58 14 0 48 3 75 6 l50 6 2 -128 c2 -150 3 -193 2 -253 0 -53 21 -88 55
-91 113 -10 213 -1 243 24 43 33 81 136 50 136 -7 0 -29 11 -50 25 -38 26 -40
25 -38 -10 1 -11 -9 -33 -22 -49 -21 -26 -29 -29 -77 -27 -30 1 -56 4 -58 6
-3 3 -5 38 -4 80 1 41 -3 77 -8 80 -12 7 -12 153 0 160 12 7 13 95 2 112 -8
12 -287 26 -324 16z"/>
</g>
</svg>
