<?xml version="1.0" standalone="no"?>
<!DOCTYPE svg PUBLIC "-//W3C//DTD SVG 20010904//EN"
 "http://www.w3.org/TR/2001/REC-SVG-20010904/DTD/svg10.dtd">
<svg version="1.0" xmlns="http://www.w3.org/2000/svg"
 width="101.000000pt" height="101.000000pt" viewBox="0 0 101.000000 101.000000"
 preserveAspectRatio="xMidYMid meet">
<metadata>
Created by potrace 1.16, written by Peter Selinger 2001-2019
</metadata>
<g transform="translate(0.000000,101.000000) scale(0.100000,-0.100000)"
fill="#000000" stroke="none">
<path d="M85 946 c-4 -20 -2 -43 5 -57 8 -14 10 -41 6 -75 -5 -42 -3 -53 10
-58 23 -9 94 5 93 18 -1 6 -1 30 0 54 1 34 4 42 20 42 11 0 23 4 26 10 7 12
173 12 180 -1 8 -12 142 -12 150 1 8 14 52 13 61 -1 5 -8 34 -9 95 -4 97 7 91
11 75 -55 -10 -39 7 -55 59 -55 53 0 69 16 59 60 -6 30 -8 92 -4 110 10 40 4
42 -135 44 -88 1 -135 -2 -135 -9 0 -5 -11 -10 -25 -10 -14 0 -25 5 -25 10 0
6 -30 10 -70 10 -40 0 -70 -4 -70 -10 0 -6 -33 -10 -80 -10 -47 0 -80 4 -80
10 0 6 -18 10 -40 10 -22 0 -40 -4 -40 -10 0 -5 -25 -10 -55 -10 -30 0 -55 5
-55 10 0 25 -20 6 -25 -24z"/>
<path d="M224 803 c-14 -54 21 -96 63 -76 10 5 36 6 58 3 l40 -5 -55 -32 c-65
-37 -156 -74 -163 -66 -3 3 -12 1 -19 -3 -7 -5 -25 -7 -40 -5 -37 3 -44 -16
-14 -40 13 -11 28 -29 31 -40 9 -27 30 -22 169 46 91 43 113 51 124 41 11 -11
6 -20 -29 -50 -49 -42 -55 -43 -69 -16 -11 20 -11 20 -50 0 -39 -20 -40 -21
-24 -44 15 -24 15 -25 -32 -45 -26 -12 -59 -24 -73 -27 -14 -3 -33 -7 -41 -9
-8 -2 -21 -4 -27 -4 -20 -1 -15 -13 21 -54 l34 -38 92 46 c51 25 93 45 95 43
1 -2 8 -13 14 -26 11 -21 13 -21 41 -7 50 26 33 8 -27 -28 -86 -52 -186 -89
-238 -88 -10 0 -25 -5 -32 -11 -11 -8 -9 -15 9 -32 13 -11 30 -32 39 -46 l16
-24 96 46 c104 50 197 110 259 166 41 37 40 38 40 -50 -1 -59 -14 -97 -35 -99
-7 -1 -45 -1 -85 -1 l-73 0 21 -32 c17 -28 26 -54 29 -88 2 -19 141 14 182 43
50 36 91 213 57 247 -7 7 -9 12 -5 12 3 0 3 10 -2 23 -9 25 3 67 19 67 6 0 10
-6 8 -12 -11 -51 143 -299 186 -298 6 0 30 13 52 28 23 15 50 32 60 38 17 10
13 13 -28 32 -80 35 -156 126 -198 237 -8 22 -5 27 40 51 28 15 50 31 50 37 0
5 11 6 24 3 41 -10 38 8 -9 54 l-44 43 -41 -37 c-23 -21 -69 -56 -103 -77
l-62 -40 -20 28 c-11 15 -34 44 -51 63 l-32 34 32 26 c31 24 38 25 149 24 114
-2 117 -1 123 21 3 13 4 33 2 45 -3 21 -9 22 -130 26 -70 2 -129 0 -132 -5 -8
-13 -154 -13 -161 0 -4 5 -33 9 -66 8 -53 -2 -60 -5 -65 -26z m276 -296 c0 -5
-16 -25 -36 -45 l-36 -36 -20 24 -20 25 43 37 c40 35 45 37 57 21 6 -9 12 -21
12 -26z"/>
</g>
</svg>
