<?xml version="1.0" standalone="no"?>
<!DOCTYPE svg PUBLIC "-//W3C//DTD SVG 20010904//EN"
 "http://www.w3.org/TR/2001/REC-SVG-20010904/DTD/svg10.dtd">
<svg version="1.0" xmlns="http://www.w3.org/2000/svg"
 width="101.000000pt" height="101.000000pt" viewBox="0 0 101.000000 101.000000"
 preserveAspectRatio="xMidYMid meet">
<metadata>
Created by potrace 1.16, written by Peter Selinger 2001-2019
</metadata>
<g transform="translate(0.000000,101.000000) scale(0.100000,-0.100000)"
fill="#000000" stroke="none">
<path d="M587 1003 c-16 -4 -17 -15 -13 -108 l5 -103 -54 2 c-30 0 -55 2 -55
4 0 11 34 80 47 94 15 17 14 19 -19 32 -68 29 -85 30 -93 4 -4 -13 -9 -32 -11
-43 -9 -68 -44 -151 -85 -204 -11 -13 -19 -26 -19 -30 0 -3 21 -14 46 -25 44
-18 45 -18 59 0 8 11 19 33 25 49 8 23 16 30 37 31 16 0 48 4 73 8 l45 7 1
-74 1 -74 -109 3 c-60 2 -118 6 -129 9 -27 9 -49 -11 -49 -44 0 -50 12 -56
100 -54 76 1 80 0 81 -20 1 -12 0 -26 -1 -32 -1 -5 -4 -20 -5 -32 -13 -96 -83
-173 -193 -211 l-53 -18 29 -26 c17 -15 35 -34 40 -44 9 -15 15 -14 70 19 74
46 135 104 160 154 23 45 52 142 50 163 -3 38 2 47 30 46 l27 -1 -3 -79 c-1
-45 2 -84 8 -91 7 -9 9 -40 4 -87 -5 -63 -4 -76 13 -96 11 -15 28 -23 43 -22
14 0 64 2 111 3 53 1 92 7 102 15 16 14 47 93 47 122 0 16 -87 66 -97 56 -3
-3 -6 -23 -7 -45 -1 -23 -7 -46 -14 -53 -14 -14 -71 -18 -93 -7 -22 11 -35
108 -17 121 10 8 10 11 1 15 -15 6 -18 73 -3 73 6 0 10 18 10 41 0 24 4 38 10
34 5 -3 48 -3 95 1 91 7 104 17 91 68 -5 21 -11 23 -48 20 -24 -2 -80 -1 -125
2 l-83 6 3 67 2 67 45 -4 c144 -13 148 -12 164 4 21 20 20 58 -1 79 -13 13
-26 16 -57 11 -23 -4 -68 -7 -101 -8 -59 -1 -60 0 -63 27 -2 16 2 38 9 51 6
12 9 29 6 37 -3 8 1 27 9 42 16 32 15 35 -18 40 -12 2 -32 6 -43 8 -11 3 -28
3 -38 0z"/>
<path d="M98 905 l-37 -25 54 -82 c30 -44 55 -87 55 -94 0 -26 22 -25 65 3 25
15 44 31 42 35 -5 16 -130 188 -136 188 -3 0 -23 -11 -43 -25z"/>
<path d="M185 588 c-63 -181 -86 -231 -136 -304 l-28 -41 44 -47 c25 -25 47
-46 49 -46 2 0 10 17 17 37 6 20 43 109 80 196 38 88 69 161 69 162 0 4 -79
55 -85 55 -3 0 -8 -6 -10 -12z"/>
</g>
</svg>
