<?xml version="1.0" standalone="no"?>
<!DOCTYPE svg PUBLIC "-//W3C//DTD SVG 20010904//EN"
 "http://www.w3.org/TR/2001/REC-SVG-20010904/DTD/svg10.dtd">
<svg version="1.0" xmlns="http://www.w3.org/2000/svg"
 width="101.000000pt" height="101.000000pt" viewBox="0 0 101.000000 101.000000"
 preserveAspectRatio="xMidYMid meet">
<metadata>
Created by potrace 1.16, written by Peter Selinger 2001-2019
</metadata>
<g transform="translate(0.000000,101.000000) scale(0.100000,-0.100000)"
fill="#000000" stroke="none">
<path d="M538 997 c-12 -4 -23 -9 -25 -11 -1 -1 6 -26 17 -54 11 -29 20 -56
20 -61 0 -13 -168 -25 -183 -13 -7 5 -31 10 -54 10 -47 1 -57 -12 -47 -63 4
-24 13 -35 30 -39 14 -4 30 -4 36 0 26 16 465 16 534 0 23 -6 35 -3 47 9 37
36 8 114 -37 100 -12 -3 -54 -11 -95 -17 -57 -9 -76 -9 -79 0 -2 7 -17 12 -33
12 -19 0 -28 4 -24 11 4 5 -3 37 -15 69 -24 63 -34 69 -92 47z"/>
<path d="M115 898 c-22 -11 -42 -22 -44 -24 -1 -1 8 -18 22 -36 14 -18 39 -59
57 -90 17 -32 34 -58 36 -58 5 0 86 40 92 45 5 4 -96 161 -111 173 -8 7 -24 4
-52 -10z"/>
<path d="M358 709 c-13 -7 -18 -23 -18 -54 0 -25 5 -45 10 -45 6 0 10 -11 10
-25 0 -14 -5 -25 -10 -25 -6 0 -10 -24 -9 -59 2 -71 9 -75 127 -65 l77 6 -2
-123 -1 -123 -56 2 c-31 0 -56 -2 -56 -5 0 -2 8 -17 19 -31 10 -15 22 -37 25
-49 7 -22 23 -29 56 -24 74 11 89 19 100 59 13 47 13 102 0 102 -5 0 -10 16
-10 35 0 19 5 35 10 35 6 0 10 26 10 58 l0 57 96 0 c72 1 97 4 104 15 11 17 8
245 -3 256 -11 11 -188 16 -201 5 -15 -12 -153 -13 -161 -1 -8 13 -95 12 -117
-1z m307 -70 c4 -6 22 -8 44 -4 l36 6 2 -61 1 -60 -42 0 c-24 0 -90 3 -149 6
l-105 7 -4 51 -3 51 77 -3 c46 -2 79 1 83 7 8 14 52 14 60 0z"/>
<path d="M169 601 c-3 -20 -4 -26 -10 -36 -4 -5 -7 -25 -7 -43 0 -18 -5 -39
-10 -45 -4 -7 -9 -22 -10 -35 -1 -18 -19 -66 -78 -197 -2 -6 19 -21 48 -33 49
-21 54 -21 65 -6 7 9 10 20 8 24 -3 4 3 32 11 61 9 30 16 56 16 59 1 3 7 23
15 45 8 22 16 47 18 56 2 9 8 34 14 55 16 57 14 62 -26 81 -21 9 -41 19 -45
21 -5 2 -9 -1 -9 -7z"/>
<path d="M371 364 c-14 -25 -53 -75 -88 -111 -34 -36 -61 -69 -58 -72 6 -10
84 -45 88 -40 2 2 44 52 95 111 51 59 92 110 92 113 0 6 -86 45 -98 45 -4 0
-18 -21 -31 -46z"/>
<path d="M708 367 l-27 -22 60 -70 c33 -38 68 -82 77 -97 9 -16 19 -28 22 -28
3 0 25 14 48 31 l42 31 -83 89 c-45 49 -89 89 -97 89 -8 0 -27 -10 -42 -23z"/>
</g>
</svg>
