<?xml version="1.0" standalone="no"?>
<!DOCTYPE svg PUBLIC "-//W3C//DTD SVG 20010904//EN"
 "http://www.w3.org/TR/2001/REC-SVG-20010904/DTD/svg10.dtd">
<svg version="1.0" xmlns="http://www.w3.org/2000/svg"
 width="101.000000pt" height="101.000000pt" viewBox="0 0 101.000000 101.000000"
 preserveAspectRatio="xMidYMid meet">
<metadata>
Created by potrace 1.16, written by Peter Selinger 2001-2019
</metadata>
<g transform="translate(0.000000,101.000000) scale(0.100000,-0.100000)"
fill="#000000" stroke="none">
<path d="M345 903 l3 -108 -32 -1 c-26 0 -38 7 -62 39 -16 21 -51 57 -77 79
l-48 41 -34 -33 -34 -33 72 -77 c63 -68 74 -76 88 -64 24 21 31 17 27 -18 l-3
-33 52 0 c28 0 49 -3 46 -8 -2 -4 -7 -19 -9 -34 -10 -51 -65 -171 -109 -234
l-43 -62 31 -38 c18 -21 35 -39 38 -39 4 0 24 38 45 85 34 76 40 84 51 68 10
-13 12 -55 8 -174 -6 -149 -5 -157 14 -162 32 -8 69 4 74 25 3 11 -1 38 -9 60
-18 51 -19 184 -1 192 10 5 10 7 0 12 -15 7 -18 74 -4 74 6 0 11 17 13 38 l3
37 34 -52 c19 -29 36 -53 39 -53 3 0 20 11 39 26 39 30 37 35 -32 112 l-46 52
-27 -18 c-25 -16 -26 -16 -19 1 4 10 7 35 7 56 0 36 0 37 38 33 47 -5 72 16
72 59 0 34 -8 39 -73 42 l-47 2 5 70 c3 39 7 84 9 101 3 29 1 33 -26 38 -77
15 -75 18 -73 -101z"/>
<path d="M725 986 c-17 -12 -18 -19 -7 -92 7 -44 12 -87 13 -96 1 -30 47 -139
75 -177 15 -20 41 -51 58 -69 l30 -32 38 37 37 36 -52 51 c-82 79 -109 148
-109 279 0 45 -4 59 -18 67 -25 14 -43 13 -65 -4z"/>
<path d="M626 907 c-15 -11 -19 -22 -32 -87 -3 -14 -24 -63 -47 -110 -23 -47
-43 -88 -45 -91 -1 -4 10 -9 25 -12 15 -3 36 -9 46 -12 13 -6 21 1 33 31 16
37 92 239 97 257 1 4 -12 14 -30 22 -24 10 -35 11 -47 2z"/>
<path d="M144 608 c-7 -23 -10 -37 -19 -96 -8 -54 -35 -151 -61 -221 l-25 -65
38 -33 c21 -18 41 -32 45 -33 7 0 19 31 24 60 1 8 5 29 8 47 3 17 17 73 31
125 14 51 29 102 32 113 18 65 15 79 -19 100 -18 11 -36 21 -40 23 -3 2 -10
-7 -14 -20z"/>
<path d="M630 528 c-44 -180 -95 -296 -126 -284 -18 7 -18 6 12 -48 22 -39 30
-46 48 -40 11 4 32 9 46 11 14 2 36 6 50 8 149 25 152 24 162 -12 5 -18 10
-33 12 -33 2 0 18 5 37 11 19 6 40 12 46 15 10 2 6 23 -13 76 -32 89 -91 208
-103 208 -5 0 -25 -7 -45 -15 l-36 -15 36 -71 c19 -39 31 -69 27 -66 -5 3 -23
-1 -41 -10 -26 -12 -38 -13 -57 -5 -14 6 -32 9 -41 5 -13 -5 -15 -2 -9 18 16
53 79 216 96 251 25 49 24 57 -6 68 -73 28 -70 30 -95 -72z"/>
</g>
</svg>
