<?xml version="1.0" standalone="no"?>
<!DOCTYPE svg PUBLIC "-//W3C//DTD SVG 20010904//EN"
 "http://www.w3.org/TR/2001/REC-SVG-20010904/DTD/svg10.dtd">
<svg version="1.0" xmlns="http://www.w3.org/2000/svg"
 width="101.000000pt" height="101.000000pt" viewBox="0 0 101.000000 101.000000"
 preserveAspectRatio="xMidYMid meet">
<metadata>
Created by potrace 1.16, written by Peter Selinger 2001-2019
</metadata>
<g transform="translate(0.000000,101.000000) scale(0.100000,-0.100000)"
fill="#000000" stroke="none">
<path d="M396 992 c3 -11 -2 -31 -11 -46 -9 -14 -15 -29 -12 -33 6 -9 -86 -8
-145 1 -64 10 -65 8 -67 -124 0 -69 3 -122 9 -125 13 -8 13 -74 -1 -115 -9
-25 -9 -34 2 -40 18 -12 555 -11 584 0 23 9 24 7 19 -27 -6 -49 -8 -51 -56
-46 -63 6 -72 -5 -48 -52 11 -22 20 -44 20 -51 0 -18 111 -3 138 19 25 20 43
68 48 125 12 134 17 119 -40 126 -80 9 -196 7 -196 -4 0 -5 -20 -10 -45 -10
-25 0 -45 5 -45 10 0 6 -54 10 -143 10 l-143 0 0 105 1 105 43 0 c23 0 42 5
42 10 0 6 11 10 25 10 14 0 25 -4 25 -10 0 -6 30 -10 70 -10 40 0 70 4 70 10
0 6 11 10 25 10 14 0 25 -5 25 -11 0 -7 20 -10 56 -7 51 3 55 2 48 -17 -3 -11
-7 -31 -8 -43 -3 -32 -19 -40 -72 -36 -24 2 -44 2 -44 -1 0 -2 10 -23 23 -47
20 -40 25 -43 62 -42 54 0 97 23 114 59 15 31 18 47 26 151 l5 61 -31 7 c-42
8 -94 8 -103 -1 -4 -4 -51 -8 -105 -8 l-99 0 14 25 c8 14 20 33 26 42 17 23 9
28 -55 35 -52 5 -56 4 -51 -15z"/>
<path d="M356 772 l-27 -29 83 -46 c45 -26 85 -47 89 -47 4 0 19 16 33 35 l27
34 -80 41 c-45 22 -84 40 -89 40 -5 0 -21 -13 -36 -28z"/>
<path d="M267 453 c-14 -4 -18 -14 -17 -46 4 -132 -42 -198 -145 -211 -22 -2
-50 -8 -62 -13 -21 -8 -20 -9 19 -51 l40 -43 51 15 c75 22 131 67 163 131 14
30 28 70 29 87 2 18 3 35 4 38 1 3 39 6 85 8 97 3 86 20 89 -135 1 -51 7 -96
12 -101 20 -19 77 -32 95 -22 10 5 64 8 121 6 119 -3 149 7 172 56 30 66 29
71 -24 105 -28 18 -49 26 -50 20 -7 -71 -21 -103 -40 -91 -5 3 -24 -2 -43 -11
-19 -9 -40 -13 -47 -9 -6 4 -29 8 -51 10 -22 2 -44 6 -49 10 -6 3 -8 52 -5
124 l6 118 -113 5 c-139 7 -217 7 -240 0z"/>
</g>
</svg>
