<?xml version="1.0" standalone="no"?>
<!DOCTYPE svg PUBLIC "-//W3C//DTD SVG 20010904//EN"
 "http://www.w3.org/TR/2001/REC-SVG-20010904/DTD/svg10.dtd">
<svg version="1.0" xmlns="http://www.w3.org/2000/svg"
 width="101.000000pt" height="101.000000pt" viewBox="0 0 101.000000 101.000000"
 preserveAspectRatio="xMidYMid meet">
<metadata>
Created by potrace 1.16, written by Peter Selinger 2001-2019
</metadata>
<g transform="translate(0.000000,101.000000) scale(0.100000,-0.100000)"
fill="#000000" stroke="none">
<path d="M468 950 c3 -39 0 -60 -7 -60 -6 0 -11 -12 -11 -27 l0 -28 -73 2
c-131 4 -158 -10 -143 -72 6 -22 11 -24 59 -22 52 2 52 2 52 -28 0 -16 -3 -34
-7 -40 -3 -5 -6 -23 -6 -38 1 -40 -64 -166 -105 -205 l-34 -33 -6 92 c-9 126
-9 177 2 181 5 2 12 30 14 63 3 33 9 74 12 91 7 30 5 31 -38 43 -60 17 -92 2
-83 -37 4 -15 7 -64 6 -109 0 -46 4 -84 10 -88 12 -8 13 -52 1 -59 -12 -8 -13
-114 -1 -121 16 -10 12 -119 -5 -141 -16 -21 -20 -120 -6 -142 5 -8 19 -14 32
-14 100 1 180 6 184 12 7 12 173 12 180 1 7 -13 87 -12 102 1 7 5 50 6 107 2
79 -5 95 -9 94 -23 -4 -58 12 -74 65 -64 l26 5 0 122 c-1 107 0 184 1 306 2
143 9 299 15 318 4 12 3 23 -1 23 -5 1 -20 3 -34 4 -14 1 -32 5 -41 9 -21 9
-52 -21 -44 -41 3 -9 -11 -1 -30 16 -43 37 -49 38 -62 9 -6 -13 -30 -49 -54
-81 l-43 -57 -19 31 c-16 24 -20 48 -20 118 1 49 6 97 11 108 15 28 7 33 -52
33 l-51 0 3 -60z m2 -220 c0 -52 -4 -80 -11 -80 -8 0 -10 -39 -8 -127 4 -122
3 -128 -15 -125 -11 2 -34 1 -53 -3 l-33 -6 16 -30 c8 -17 13 -33 10 -36 -3
-3 -1 -14 5 -25 8 -16 18 -19 47 -15 45 5 107 30 118 48 4 7 10 81 13 164 l6
150 46 -90 c25 -49 54 -112 64 -140 10 -27 19 -51 20 -53 1 -1 23 9 48 24 39
21 47 23 47 10 0 -9 5 -16 10 -16 7 0 10 -24 8 -62 l-3 -63 -85 -3 c-47 -1
-132 -3 -190 -3 -58 0 -113 0 -122 0 -39 0 -116 2 -163 4 l-50 2 0 63 c0 34 3
62 7 62 3 0 20 -11 37 -26 l30 -25 32 43 c32 43 98 175 104 208 2 10 8 34 13
54 6 19 8 44 5 55 -3 12 2 28 12 37 11 12 16 28 13 51 -3 22 0 33 9 33 10 0
13 -21 13 -80z m331 -10 c5 0 9 -11 9 -25 0 -14 -4 -25 -10 -25 -6 0 -10 -30
-10 -70 0 -40 4 -70 10 -70 6 0 10 -11 10 -25 0 -14 -4 -25 -9 -25 -5 0 -11
-11 -13 -25 -2 -20 -17 -3 -77 92 l-75 116 75 70 74 70 3 -41 c2 -23 7 -42 13
-42z"/>
</g>
</svg>
