<?xml version="1.0" standalone="no"?>
<!DOCTYPE svg PUBLIC "-//W3C//DTD SVG 20010904//EN"
 "http://www.w3.org/TR/2001/REC-SVG-20010904/DTD/svg10.dtd">
<svg version="1.0" xmlns="http://www.w3.org/2000/svg"
 width="101.000000pt" height="101.000000pt" viewBox="0 0 101.000000 101.000000"
 preserveAspectRatio="xMidYMid meet">
<metadata>
Created by potrace 1.16, written by Peter Selinger 2001-2019
</metadata>
<g transform="translate(0.000000,101.000000) scale(0.100000,-0.100000)"
fill="#000000" stroke="none">
<path d="M188 963 c-21 -5 -33 -56 -18 -82 8 -16 21 -21 55 -21 25 0 45 5 45
10 0 6 16 10 35 10 19 0 35 -4 35 -10 0 -6 30 -10 70 -10 40 0 70 4 70 10 0 6
11 10 25 10 14 0 25 -4 25 -9 0 -6 21 -11 48 -13 l47 -3 -79 -30 c-83 -32
-104 -55 -90 -99 4 -11 6 -44 5 -72 -1 -31 2 -55 9 -59 9 -5 10 -32 5 -94 -9
-104 -16 -120 -49 -114 -50 10 -56 0 -36 -59 9 -29 24 -54 32 -56 8 -1 36 6
61 17 59 26 70 51 61 143 -4 45 -3 72 5 82 7 8 11 53 10 121 l-2 108 35 18
c62 32 188 79 221 83 18 2 35 4 38 5 9 1 20 77 14 93 -4 10 -43 13 -173 13
-92 0 -172 -3 -177 -7 -16 -10 -173 -9 -180 2 -3 5 -29 8 -58 8 -29 -1 -57 1
-62 3 -6 3 -18 4 -27 2z"/>
<path d="M256 731 l-27 -28 28 -18 c15 -10 48 -38 74 -62 l47 -44 31 27 c18
15 31 30 29 34 -6 14 -131 120 -142 120 -7 0 -25 -13 -40 -29z"/>
<path d="M643 694 l-61 -62 26 -25 27 -26 72 57 72 57 -22 23 c-40 43 -48 42
-114 -24z"/>
<path d="M111 621 c-1 -38 3 -72 9 -76 12 -8 13 -52 1 -59 -12 -8 -13 -114 -1
-121 14 -9 12 -112 -2 -152 -10 -29 -10 -36 2 -43 17 -11 587 -6 638 5 32 7
33 7 27 -23 -5 -29 -3 -32 29 -37 69 -13 73 -8 63 107 -4 57 -5 126 -2 153 3
28 7 97 8 155 2 58 7 112 11 119 14 22 -23 43 -63 37 -19 -3 -38 -11 -42 -17
-11 -19 -10 -151 2 -165 15 -19 7 -59 -12 -58 -9 1 -46 25 -83 54 l-67 53 -29
-28 -30 -29 73 -67 c39 -38 77 -68 83 -69 7 0 19 12 29 26 9 14 19 24 22 21 2
-3 6 -37 9 -75 l4 -71 -152 0 c-84 0 -180 0 -213 0 -33 0 -97 1 -141 2 l-82 2
-6 59 c-9 88 -7 164 4 171 5 3 9 34 8 68 -1 34 2 72 6 84 9 27 -17 43 -67 43
l-34 0 -2 -69z"/>
<path d="M311 489 c-47 -33 -86 -61 -89 -63 -3 -4 24 -63 34 -75 4 -5 184 131
184 140 0 18 -24 59 -34 58 -6 0 -49 -27 -95 -60z"/>
</g>
</svg>
