<?xml version="1.0" standalone="no"?>
<!DOCTYPE svg PUBLIC "-//W3C//DTD SVG 20010904//EN"
 "http://www.w3.org/TR/2001/REC-SVG-20010904/DTD/svg10.dtd">
<svg version="1.0" xmlns="http://www.w3.org/2000/svg"
 width="101.000000pt" height="101.000000pt" viewBox="0 0 101.000000 101.000000"
 preserveAspectRatio="xMidYMid meet">
<metadata>
Created by potrace 1.16, written by Peter Selinger 2001-2019
</metadata>
<g transform="translate(0.000000,101.000000) scale(0.100000,-0.100000)"
fill="#000000" stroke="none">
<path d="M116 761 c5 -210 5 -309 1 -496 -1 -80 2 -133 8 -137 34 -25 113 6
101 39 -25 63 -24 63 58 63 44 0 76 -4 76 -10 0 -6 30 -10 70 -10 40 0 70 4
70 10 0 6 20 10 45 10 27 0 45 -5 45 -11 0 -8 27 -9 95 -4 l95 7 0 -27 c0 -46
17 -65 58 -65 20 0 42 4 48 8 13 9 17 119 5 127 -12 7 -13 153 -1 160 12 8 12
213 0 220 -13 8 -13 52 0 60 7 4 10 53 9 125 l-2 118 -69 1 c-38 0 -68 -4 -68
-9 0 -6 -16 -10 -35 -10 -19 0 -35 5 -35 10 0 6 -28 10 -65 10 -61 0 -65 -2
-71 -25 -3 -14 -1 -31 5 -38 13 -17 13 -168 -1 -184 -5 -7 -8 -33 -6 -57 l3
-45 -63 2 -63 2 6 174 5 174 -37 -7 c-85 -15 -143 -18 -155 -8 -7 5 -41 10
-74 10 l-62 0 4 -187z m218 -76 c-1 -195 -6 -182 75 -184 24 -1 50 4 58 10 9
8 44 10 103 7 100 -6 99 -7 99 69 0 24 -4 45 -10 48 -12 8 -12 52 2 60 6 4 9
37 7 83 l-3 77 65 0 65 1 -4 -49 c-1 -27 2 -54 8 -60 13 -13 15 -54 2 -61 -12
-8 -13 -114 -1 -121 12 -7 13 -66 3 -182 l-6 -82 -73 6 c-53 4 -74 3 -74 -6 0
-6 -18 -11 -45 -11 -25 0 -45 5 -45 10 0 6 -30 10 -70 10 -40 0 -70 -4 -70
-10 0 -6 -32 -10 -75 -10 -43 0 -75 4 -75 10 0 6 -16 10 -35 10 l-35 0 0 60
c0 33 4 60 10 60 6 0 10 23 10 50 0 28 -4 50 -10 50 -5 0 -10 11 -10 25 0 14
5 25 10 25 6 0 10 30 10 70 0 40 -4 70 -10 70 -5 0 -10 11 -10 25 0 14 5 25
10 25 6 0 10 18 10 39 l0 40 53 4 c28 2 54 4 57 5 3 1 5 -77 4 -173z"/>
</g>
</svg>
