<?xml version="1.0" standalone="no"?>
<!DOCTYPE svg PUBLIC "-//W3C//DTD SVG 20010904//EN"
 "http://www.w3.org/TR/2001/REC-SVG-20010904/DTD/svg10.dtd">
<svg version="1.0" xmlns="http://www.w3.org/2000/svg"
 width="101.000000pt" height="101.000000pt" viewBox="0 0 101.000000 101.000000"
 preserveAspectRatio="xMidYMid meet">
<metadata>
Created by potrace 1.16, written by Peter Selinger 2001-2019
</metadata>
<g transform="translate(0.000000,101.000000) scale(0.100000,-0.100000)"
fill="#000000" stroke="none">
<path d="M575 995 c-48 -15 -48 -20 5 -125 39 -77 79 -136 139 -210 l33 -41
-106 7 c-70 5 -110 3 -118 -4 -16 -13 -168 -15 -183 -2 -7 6 -32 9 -57 7 l-45
-2 46 57 c26 32 69 94 95 138 26 44 55 84 64 89 27 16 2 43 -53 61 -42 12 -49
13 -53 0 -3 -7 -24 -52 -48 -100 -49 -98 -129 -191 -209 -244 -30 -21 -55 -39
-55 -40 0 -2 20 -20 44 -39 l43 -36 54 48 54 48 1 -34 c1 -46 18 -55 85 -48
l57 6 -3 -33 c-2 -18 -5 -33 -6 -33 0 0 -3 -12 -4 -27 -6 -42 -40 -100 -87
-144 -49 -47 -89 -70 -166 -94 l-53 -17 54 -40 54 -41 51 28 c151 82 245 220
255 370 2 25 3 25 97 25 l95 0 -3 -65 c-9 -177 -15 -220 -33 -231 -6 -4 -39
-4 -72 -1 -34 3 -58 1 -56 -4 3 -5 10 -20 16 -34 6 -14 14 -38 18 -53 3 -15
12 -30 21 -34 17 -6 118 23 150 44 22 14 52 81 55 118 0 11 2 56 4 100 2 44 7
117 11 161 l7 81 55 -38 c31 -22 59 -38 63 -37 8 3 79 96 79 103 0 3 -6 5 -13
5 -37 0 -140 65 -194 123 -59 64 -114 153 -118 191 -1 12 -3 26 -4 32 -2 19
-23 21 -66 9z"/>
</g>
</svg>
