<?xml version="1.0" standalone="no"?>
<!DOCTYPE svg PUBLIC "-//W3C//DTD SVG 20010904//EN"
 "http://www.w3.org/TR/2001/REC-SVG-20010904/DTD/svg10.dtd">
<svg version="1.0" xmlns="http://www.w3.org/2000/svg"
 width="101.000000pt" height="101.000000pt" viewBox="0 0 101.000000 101.000000"
 preserveAspectRatio="xMidYMid meet">
<metadata>
Created by potrace 1.16, written by Peter Selinger 2001-2019
</metadata>
<g transform="translate(0.000000,101.000000) scale(0.100000,-0.100000)"
fill="#000000" stroke="none">
<path d="M570 992 c-12 -5 -16 -30 -18 -109 -3 -70 0 -103 7 -103 6 0 11 -16
11 -35 0 -19 -4 -35 -10 -35 -6 0 -10 -30 -10 -70 0 -40 4 -70 10 -70 6 0 10
-11 10 -25 0 -14 -5 -25 -12 -25 -8 0 -9 -39 -5 -147 4 -82 3 -154 -2 -161
-10 -17 -41 -22 -63 -11 -29 15 -47 1 -37 -29 5 -15 11 -40 14 -55 5 -26 9
-27 43 -24 45 6 103 29 119 48 11 14 16 169 13 424 -1 142 7 369 14 392 5 15
-1 21 -27 31 -37 13 -36 13 -57 4z"/>
<path d="M375 902 c-14 -9 -18 -69 -5 -77 12 -7 12 -173 -1 -180 -12 -8 -12
-142 1 -150 13 -8 13 -52 0 -60 -11 -7 -13 -94 -2 -111 10 -16 48 -26 70 -20
15 5 17 19 15 128 -4 191 0 322 12 414 6 40 4 42 -26 53 -37 13 -50 13 -64 3z"/>
</g>
</svg>
