<?xml version="1.0" standalone="no"?>
<!DOCTYPE svg PUBLIC "-//W3C//DTD SVG 20010904//EN"
 "http://www.w3.org/TR/2001/REC-SVG-20010904/DTD/svg10.dtd">
<svg version="1.0" xmlns="http://www.w3.org/2000/svg"
 width="101.000000pt" height="101.000000pt" viewBox="0 0 101.000000 101.000000"
 preserveAspectRatio="xMidYMid meet">
<metadata>
Created by potrace 1.16, written by Peter Selinger 2001-2019
</metadata>
<g transform="translate(0.000000,101.000000) scale(0.100000,-0.100000)"
fill="#000000" stroke="none">
<path d="M160 1000 c0 -6 5 -10 10 -10 6 0 10 -25 10 -55 0 -33 -4 -55 -11
-55 -7 0 -10 -23 -7 -67 l3 -68 -40 -2 c-85 -3 -87 -4 -89 -50 -3 -56 5 -67
40 -59 16 4 43 8 59 9 l30 3 -3 -79 c-1 -48 2 -85 9 -93 19 -23 1 -135 -27
-164 l-23 -25 41 -48 41 -49 66 64 c51 50 149 134 180 154 3 3 -29 94 -36 103
-2 3 -25 -15 -51 -40 -26 -25 -57 -53 -69 -63 l-23 -19 3 139 2 139 38 -4 c59
-5 114 23 121 64 9 47 -1 66 -30 59 -13 -3 -38 -7 -56 -9 -18 -1 -42 -6 -54
-10 -19 -6 -20 -3 -18 84 1 50 5 100 9 111 5 16 0 22 -22 31 -38 15 -103 21
-103 9z"/>
<path d="M424 923 c-11 -11 -14 -26 -10 -46 3 -16 6 -33 6 -38 0 -5 33 -7 73
-5 l72 5 -1 -104 c-1 -56 -4 -108 -8 -114 -4 -5 -6 -25 -5 -43 6 -134 -74
-272 -209 -358 -69 -44 -85 -60 -59 -60 7 0 32 -14 55 -31 l41 -30 83 80 c46
43 98 104 116 134 47 78 77 189 87 327 2 25 6 79 10 120 l7 75 67 0 66 0 -1
-52 c-1 -28 -5 -56 -8 -62 -4 -6 -7 -43 -7 -83 -1 -74 -6 -242 -10 -288 -7
-97 -38 -130 -105 -111 -18 5 -43 7 -54 4 l-20 -5 20 -29 c12 -15 25 -41 31
-58 13 -37 37 -43 107 -25 105 27 118 54 127 259 2 50 7 106 11 125 4 19 9 73
11 120 3 47 7 114 10 150 2 36 5 83 6 105 l2 40 -45 7 c-67 10 -168 9 -175 -1
-7 -12 -172 -13 -180 -1 -9 15 -94 10 -111 -7z"/>
</g>
</svg>
