<?xml version="1.0" standalone="no"?>
<!DOCTYPE svg PUBLIC "-//W3C//DTD SVG 20010904//EN"
 "http://www.w3.org/TR/2001/REC-SVG-20010904/DTD/svg10.dtd">
<svg version="1.0" xmlns="http://www.w3.org/2000/svg"
 width="101.000000pt" height="101.000000pt" viewBox="0 0 101.000000 101.000000"
 preserveAspectRatio="xMidYMid meet">
<metadata>
Created by potrace 1.16, written by Peter Selinger 2001-2019
</metadata>
<g transform="translate(0.000000,101.000000) scale(0.100000,-0.100000)"
fill="#000000" stroke="none">
<path d="M802 891 c-2 -80 1 -121 8 -121 6 0 10 -29 10 -75 0 -43 -4 -75 -10
-75 -6 0 -10 -30 -10 -70 0 -40 4 -70 10 -70 6 0 10 -20 10 -45 0 -25 -5 -45
-10 -45 -7 0 -10 -30 -10 -77 2 -120 5 -113 -61 -107 l-57 5 24 -47 c13 -26
24 -53 24 -60 0 -32 120 -12 154 25 20 22 33 175 16 186 -13 8 -13 52 0 60 12
7 12 153 0 160 -12 7 -11 153 0 160 6 3 10 55 10 118 0 62 2 129 6 150 3 20 4
37 2 38 -2 0 -28 2 -58 5 l-55 5 -3 -120z"/>
<path d="M96 934 c-16 -16 -21 -50 -10 -78 5 -12 21 -14 87 -10 l82 4 0 -121
0 -121 -97 7 -97 7 -6 -35 c-13 -70 -6 -75 100 -73 l95 1 0 -57 c0 -32 4 -58
10 -58 6 0 10 -16 10 -35 0 -19 -4 -35 -10 -35 -5 0 -10 -18 -10 -40 0 -23 5
-40 11 -40 11 0 8 -48 -7 -111 -7 -30 10 -38 67 -31 32 3 36 7 37 35 1 36 1
28 -1 227 l-2 145 88 0 c97 0 105 6 93 68 l-6 32 -90 0 c-65 0 -91 4 -95 13
-9 24 -5 91 5 97 6 4 9 32 8 63 l-3 57 87 -2 c96 -3 107 5 93 66 -6 28 -8 29
-85 36 -43 4 -84 4 -90 0 -19 -11 -198 -16 -205 -5 -9 15 -42 12 -59 -6z"/>
<path d="M598 888 c-14 -12 -15 -38 -8 -242 6 -160 6 -233 -2 -246 -28 -44 18
-91 75 -76 22 5 22 8 24 171 1 99 -2 165 -8 165 -13 0 -12 147 2 152 6 2 13
18 15 34 3 25 -1 33 -22 43 -32 14 -56 14 -76 -1z"/>
</g>
</svg>
