<?xml version="1.0" standalone="no"?>
<!DOCTYPE svg PUBLIC "-//W3C//DTD SVG 20010904//EN"
 "http://www.w3.org/TR/2001/REC-SVG-20010904/DTD/svg10.dtd">
<svg version="1.0" xmlns="http://www.w3.org/2000/svg"
 width="101.000000pt" height="101.000000pt" viewBox="0 0 101.000000 101.000000"
 preserveAspectRatio="xMidYMid meet">
<metadata>
Created by potrace 1.16, written by Peter Selinger 2001-2019
</metadata>
<g transform="translate(0.000000,101.000000) scale(0.100000,-0.100000)"
fill="#000000" stroke="none">
<path d="M810 994 c-12 -4 -14 -18 -12 -64 3 -39 0 -60 -7 -60 -6 0 -11 -18
-11 -40 0 -22 5 -40 10 -40 6 0 10 -33 10 -80 0 -47 -4 -80 -10 -80 -6 0 -10
-30 -10 -70 0 -40 4 -70 10 -70 6 0 10 -11 10 -25 0 -14 -5 -25 -11 -25 -8 0
-9 -31 -4 -104 8 -122 4 -128 -83 -121 -55 5 -60 1 -37 -29 8 -11 15 -29 15
-41 0 -12 6 -30 14 -40 13 -18 15 -18 83 3 104 33 105 36 110 201 3 92 1 141
-6 146 -14 8 -14 52 -1 60 13 8 13 142 1 150 -13 7 -13 173 -1 180 6 4 10 18
9 33 -1 27 4 54 15 82 5 11 -3 19 -27 28 -34 12 -41 13 -67 6z"/>
<path d="M408 953 c-1 -10 -2 -25 -3 -33 0 -8 -4 -21 -9 -28 -4 -7 -6 -16 -3
-18 3 -3 1 -20 -4 -37 -6 -18 -12 -41 -14 -52 -3 -11 -13 -45 -23 -75 l-19
-54 -43 74 c-81 141 -111 190 -118 190 -4 -1 -26 -11 -50 -23 l-42 -23 49 -69
c89 -127 151 -237 147 -260 -11 -57 -97 -192 -181 -283 l-55 -60 53 -26 52
-26 23 28 c26 31 110 167 141 230 12 23 24 42 26 42 8 0 52 -105 76 -182 13
-40 24 -74 24 -75 1 -1 23 6 51 16 40 16 49 24 46 41 -1 12 -32 84 -69 159
-39 79 -66 146 -64 159 4 36 99 301 116 325 8 12 15 24 15 28 0 7 -93 49 -109
49 -6 0 -12 -8 -13 -17z"/>
<path d="M590 860 c-12 -7 -16 -38 -18 -152 -1 -86 2 -157 9 -179 8 -24 8 -62
2 -125 -11 -98 -9 -104 44 -104 34 0 67 25 57 42 -4 5 -6 48 -6 94 1 46 -3 86
-8 89 -12 7 -12 153 1 160 5 4 9 32 8 63 -1 32 1 68 6 81 5 16 3 26 -6 32 -19
12 -70 11 -89 -1z"/>
</g>
</svg>
