<?xml version="1.0" standalone="no"?>
<!DOCTYPE svg PUBLIC "-//W3C//DTD SVG 20010904//EN"
 "http://www.w3.org/TR/2001/REC-SVG-20010904/DTD/svg10.dtd">
<svg version="1.0" xmlns="http://www.w3.org/2000/svg"
 width="101.000000pt" height="101.000000pt" viewBox="0 0 101.000000 101.000000"
 preserveAspectRatio="xMidYMid meet">
<metadata>
Created by potrace 1.16, written by Peter Selinger 2001-2019
</metadata>
<g transform="translate(0.000000,101.000000) scale(0.100000,-0.100000)"
fill="#000000" stroke="none">
<path d="M810 992 c-12 -6 -16 -32 -18 -125 -2 -71 1 -124 7 -131 12 -15 13
-154 1 -161 -12 -7 -12 -153 0 -160 12 -7 13 -48 3 -59 -5 -4 -8 -32 -8 -61 0
-29 -3 -57 -7 -61 -5 -4 -35 -6 -68 -5 -33 1 -60 -2 -60 -6 0 -4 8 -30 19 -58
23 -60 53 -75 100 -50 17 8 31 13 31 10 0 -3 13 1 30 10 46 24 53 46 45 151
-5 66 -4 94 4 94 7 0 11 34 11 100 0 60 -4 100 -10 100 -5 0 -10 11 -10 25 0
14 5 25 10 25 6 0 10 30 10 70 0 40 -4 70 -10 70 -12 0 -13 67 -1 72 5 2 10
33 13 70 4 62 2 67 -20 77 -26 12 -49 13 -72 3z"/>
<path d="M108 943 c-21 -5 -31 -34 -22 -67 6 -26 6 -26 91 -21 68 4 84 3 76
-7 -6 -7 -11 -20 -11 -28 -3 -78 -88 -239 -161 -304 l-22 -20 48 -23 48 -23
18 23 c32 41 117 181 117 194 0 9 19 13 69 13 71 0 92 -10 72 -34 -6 -8 -11
-27 -10 -42 2 -47 -17 -114 -32 -114 -5 0 -29 18 -53 40 l-43 40 -38 -33 -37
-32 61 -48 c34 -26 61 -51 61 -56 0 -22 -119 -115 -191 -149 -44 -20 -79 -40
-79 -44 0 -4 9 -10 20 -13 11 -4 33 -18 50 -31 l30 -25 74 51 c96 66 190 165
221 232 14 29 25 58 25 65 0 7 7 32 15 57 8 24 17 57 20 73 2 15 8 47 13 70 5
23 6 45 3 50 -3 5 -54 8 -114 8 -87 0 -106 3 -102 14 3 7 10 32 16 55 l10 41
114 0 c112 -1 114 0 120 23 3 13 3 33 0 43 -6 19 -15 20 -113 19 -59 -1 -161
0 -227 3 -66 3 -128 3 -137 0z"/>
<path d="M630 873 c-8 -3 -18 -11 -22 -17 -11 -16 -9 -214 2 -221 12 -7 11
-153 0 -160 -5 -3 -8 -36 -8 -75 0 -68 1 -69 29 -75 16 -4 37 -4 48 0 17 5 18
13 14 65 -4 36 -1 65 5 73 13 15 14 115 1 123 -12 7 -11 51 1 59 6 4 10 41 9
88 -1 45 1 91 4 103 10 30 -41 53 -83 37z"/>
</g>
</svg>
