<?xml version="1.0" standalone="no"?>
<!DOCTYPE svg PUBLIC "-//W3C//DTD SVG 20010904//EN"
 "http://www.w3.org/TR/2001/REC-SVG-20010904/DTD/svg10.dtd">
<svg version="1.0" xmlns="http://www.w3.org/2000/svg"
 width="101.000000pt" height="101.000000pt" viewBox="0 0 101.000000 101.000000"
 preserveAspectRatio="xMidYMid meet">
<metadata>
Created by potrace 1.16, written by Peter Selinger 2001-2019
</metadata>
<g transform="translate(0.000000,101.000000) scale(0.100000,-0.100000)"
fill="#000000" stroke="none">
<path d="M825 990 c-11 -5 -14 -9 -7 -9 15 -1 17 -111 2 -111 -5 0 -10 -18
-10 -40 0 -22 5 -40 10 -40 6 0 10 -33 10 -80 0 -47 -4 -80 -10 -80 -6 0 -10
-30 -10 -70 0 -40 4 -70 10 -70 6 0 10 -11 10 -25 0 -14 -5 -25 -11 -25 -7 0
-10 -37 -8 -112 l2 -113 -56 1 c-31 1 -57 -1 -57 -3 0 -3 9 -18 21 -35 12 -16
19 -32 15 -35 -3 -3 -1 -14 5 -24 7 -14 18 -18 42 -15 42 5 102 30 113 47 9
13 14 158 14 417 1 67 1 139 1 160 0 81 8 208 15 230 3 12 2 22 -2 23 -26 2
-51 7 -64 12 -8 3 -24 2 -35 -3z"/>
<path d="M127 946 c-7 -20 5 -146 14 -146 5 0 9 -11 9 -25 0 -14 -5 -25 -11
-25 -7 0 -10 -19 -7 -53 3 -47 1 -53 -14 -49 -29 7 -66 -7 -73 -28 -15 -47 22
-78 71 -60 27 11 27 10 14 -24 -6 -18 -6 -34 2 -51 8 -19 7 -31 -6 -60 -10
-20 -15 -39 -13 -42 8 -7 -22 -102 -50 -157 l-24 -48 33 -28 c18 -15 36 -26
41 -23 29 17 88 202 93 288 2 28 6 66 9 85 3 19 6 42 6 51 1 25 46 19 49 -6 1
-11 2 -80 2 -152 1 -137 -6 -164 -40 -161 -48 4 -50 1 -28 -46 12 -24 28 -46
36 -49 21 -5 100 29 100 44 0 7 13 1 28 -14 15 -15 31 -27 35 -27 16 0 65 124
73 185 3 17 11 145 15 221 2 29 46 28 48 -1 0 -11 3 -56 6 -100 3 -44 1 -109
-3 -145 -7 -64 -7 -64 -40 -66 -18 -1 -35 -4 -37 -6 -2 -2 6 -25 18 -50 20
-44 24 -46 55 -43 19 2 44 11 58 20 l24 16 -1 177 c-1 229 -3 219 32 219 l29
0 2 -71 c2 -39 2 -94 0 -122 -2 -57 7 -65 64 -57 l29 5 -2 121 c-5 222 0 399
11 427 5 11 -5 18 -33 27 -42 13 -70 9 -72 -11 0 -6 0 -61 1 -122 1 -100 0
-112 -17 -116 -37 -10 -39 -1 -36 155 l3 152 -115 3 -115 2 4 -157 4 -158 -27
-1 -28 -1 4 160 c3 148 2 159 -14 152 -35 -13 -123 -18 -136 -7 -16 14 -75 12
-80 -2z m117 -72 c9 -3 16 -17 16 -30 0 -13 5 -24 10 -24 11 0 13 -136 2 -160
-9 -18 -44 -23 -54 -7 -11 18 -10 95 2 102 6 4 9 32 8 66 -2 32 -3 59 -2 59 2
0 9 -3 18 -6z m282 -8 c1 0 4 -50 8 -111 l7 -110 -24 -1 c-23 -2 -25 2 -31 65
-3 36 -6 90 -6 119 0 51 1 53 23 46 12 -3 23 -7 23 -8z m-121 -314 c-2 -7 1
-24 7 -38 9 -20 9 -30 -1 -46 -7 -12 -14 -44 -16 -72 -4 -59 -11 -95 -27 -133
-11 -26 -12 -24 -20 37 -4 36 -6 101 -3 145 3 44 6 89 6 100 1 15 8 20 30 20
19 0 28 -4 24 -13z"/>
</g>
</svg>
