<?xml version="1.0" standalone="no"?>
<!DOCTYPE svg PUBLIC "-//W3C//DTD SVG 20010904//EN"
 "http://www.w3.org/TR/2001/REC-SVG-20010904/DTD/svg10.dtd">
<svg version="1.0" xmlns="http://www.w3.org/2000/svg"
 width="101.000000pt" height="101.000000pt" viewBox="0 0 101.000000 101.000000"
 preserveAspectRatio="xMidYMid meet">
<metadata>
Created by potrace 1.16, written by Peter Selinger 2001-2019
</metadata>
<g transform="translate(0.000000,101.000000) scale(0.100000,-0.100000)"
fill="#000000" stroke="none">
<path d="M794 975 c-3 -19 -3 -48 0 -63 7 -26 15 -272 16 -442 1 -113 -6 -236
-14 -248 -5 -9 -49 -10 -81 -2 -5 1 -18 2 -28 1 -16 -1 -16 -4 3 -41 11 -22
20 -43 19 -47 -5 -29 3 -34 49 -30 57 5 128 33 136 53 12 31 18 341 7 348 -14
9 -14 53 -1 61 13 8 13 142 1 150 -13 7 -13 173 -1 180 6 4 10 18 10 33 0 15
1 38 2 52 3 24 0 25 -54 28 l-57 3 -7 -36z"/>
<path d="M272 935 c0 -33 4 -70 10 -82 6 -13 8 -46 4 -85 l-7 -63 -94 2 c-88
1 -93 0 -99 -20 -9 -34 -7 -44 10 -62 13 -13 32 -15 106 -10 l89 5 -3 -52 -3
-53 -81 4 c-107 4 -142 -4 -150 -34 -3 -13 -3 -32 0 -43 6 -19 15 -20 106 -19
59 1 101 -2 103 -8 8 -23 -28 -98 -68 -143 -24 -27 -72 -64 -106 -82 -55 -29
-61 -35 -45 -44 10 -6 32 -21 47 -34 l29 -24 60 48 c63 50 113 110 147 179 19
37 37 93 35 105 0 3 47 5 104 5 92 -1 105 1 110 17 6 21 -4 60 -20 70 -6 4
-50 8 -98 8 l-88 0 0 45 c0 41 2 45 25 45 14 0 25 5 25 11 0 8 21 10 65 7 71
-4 82 5 70 54 -6 22 -10 23 -98 23 l-92 0 2 95 c2 52 7 115 12 140 5 25 8 47
6 49 -2 2 -29 4 -59 5 l-55 1 1 -60z"/>
<path d="M459 888 c-13 -28 -36 -69 -52 -90 -16 -23 -22 -38 -15 -38 7 0 25
-7 41 -15 l27 -14 50 75 c28 41 55 74 60 74 20 0 9 20 -17 33 -63 32 -68 31
-94 -25z"/>
<path d="M112 905 c-36 -16 -36 -17 4 -71 13 -16 30 -47 39 -67 8 -20 21 -37
29 -37 17 0 76 21 76 26 0 9 -43 89 -68 126 -27 42 -32 44 -80 23z"/>
<path d="M628 883 c-20 -5 -33 -37 -22 -55 4 -6 6 -37 5 -69 -1 -31 3 -60 8
-64 12 -7 13 -153 1 -160 -5 -3 -8 -50 -8 -105 -1 -98 0 -100 24 -106 13 -3
35 -3 48 0 22 5 24 11 25 81 1 44 -3 75 -9 75 -5 0 -10 11 -10 25 0 14 5 25
10 25 6 0 10 30 10 70 0 40 -4 70 -10 70 -5 0 -10 11 -10 25 0 14 4 25 9 25
13 0 21 154 7 162 -12 8 -50 9 -78 1z"/>
</g>
</svg>
