<?xml version="1.0" standalone="no"?>
<!DOCTYPE svg PUBLIC "-//W3C//DTD SVG 20010904//EN"
 "http://www.w3.org/TR/2001/REC-SVG-20010904/DTD/svg10.dtd">
<svg version="1.0" xmlns="http://www.w3.org/2000/svg"
 width="101.000000pt" height="101.000000pt" viewBox="0 0 101.000000 101.000000"
 preserveAspectRatio="xMidYMid meet">
<metadata>
Created by potrace 1.16, written by Peter Selinger 2001-2019
</metadata>
<g transform="translate(0.000000,101.000000) scale(0.100000,-0.100000)"
fill="#000000" stroke="none">
<path d="M201 953 c-28 -74 -90 -179 -146 -248 l-44 -53 27 -36 c15 -19 30
-35 34 -36 4 0 19 17 33 37 14 21 25 33 26 28 3 -25 11 -241 13 -345 1 -63 3
-121 4 -128 3 -21 69 -44 92 -32 12 6 68 9 146 6 168 -6 185 2 218 111 5 15 3
23 -5 23 -7 0 -27 12 -46 26 -19 14 -36 24 -39 21 -3 -2 -6 -19 -9 -36 -2 -18
-9 -38 -15 -45 -15 -20 -88 -35 -140 -31 -75 6 -110 11 -116 18 -4 3 -7 46 -8
94 l-1 88 69 0 c68 0 69 0 87 -35 11 -19 19 -43 19 -52 0 -13 7 -17 28 -14 67
9 106 40 122 97 6 19 13 129 15 245 l6 212 -76 1 c-44 1 -75 -3 -75 -9 0 -5
-16 -10 -35 -10 -19 0 -35 5 -35 10 0 6 -18 10 -40 10 l-41 0 15 28 c8 16 22
34 30 41 9 7 13 18 10 23 -5 8 -87 48 -98 48 -2 0 -13 -26 -25 -57z m260 -226
c-1 -27 2 -54 8 -60 16 -16 14 -75 -5 -137 -8 -29 -14 -61 -11 -70 6 -25 -4
-37 -37 -46 -26 -6 -27 -5 -18 13 6 11 7 25 2 33 -9 14 -4 195 5 210 3 5 3 14
0 22 -4 10 -31 13 -114 13 -103 0 -108 1 -103 20 11 46 24 50 154 50 l123 0
-4 -48z m-143 -164 l-3 -58 -45 4 c-25 1 -46 4 -48 6 -2 2 0 24 3 49 7 46 13
51 73 55 22 1 23 -2 20 -56z"/>
<path d="M830 994 c-12 -4 -14 -18 -12 -64 3 -39 0 -60 -7 -60 -6 0 -11 -18
-11 -40 0 -22 5 -40 10 -40 6 0 10 -33 10 -80 0 -47 -4 -80 -10 -80 -6 0 -10
-30 -10 -70 0 -40 4 -70 10 -70 6 0 10 -11 10 -25 0 -14 -5 -25 -11 -25 -8 0
-9 -31 -4 -103 8 -109 1 -129 -42 -127 -46 2 -75 2 -78 -2 -9 -8 41 -117 55
-120 41 -9 144 43 159 79 10 26 14 159 11 398 -1 142 7 369 14 392 10 30 -43
50 -94 37z"/>
<path d="M645 873 c-11 -11 -15 -25 -11 -42 11 -48 14 -405 3 -437 -13 -39 -3
-80 21 -86 38 -10 82 3 88 28 3 12 2 29 -3 36 -16 25 -15 404 1 468 6 22 3 27
-27 38 -44 16 -52 15 -72 -5z"/>
</g>
</svg>
