<?xml version="1.0" standalone="no"?>
<!DOCTYPE svg PUBLIC "-//W3C//DTD SVG 20010904//EN"
 "http://www.w3.org/TR/2001/REC-SVG-20010904/DTD/svg10.dtd">
<svg version="1.0" xmlns="http://www.w3.org/2000/svg"
 width="101.000000pt" height="101.000000pt" viewBox="0 0 101.000000 101.000000"
 preserveAspectRatio="xMidYMid meet">
<metadata>
Created by potrace 1.16, written by Peter Selinger 2001-2019
</metadata>
<g transform="translate(0.000000,101.000000) scale(0.100000,-0.100000)"
fill="#000000" stroke="none">
<path d="M808 993 c-19 -5 -25 -23 -8 -23 6 0 10 -25 10 -55 0 -30 -4 -55 -10
-55 -5 0 -10 -18 -10 -40 0 -22 5 -40 10 -40 6 0 10 -33 10 -80 0 -47 -4 -80
-10 -80 -6 0 -10 -30 -10 -70 0 -40 4 -70 10 -70 6 0 10 -11 10 -25 0 -14 -5
-25 -11 -25 -7 0 -9 -34 -7 -101 3 -116 12 -106 -108 -118 -7 -1 -4 -20 10
-55 20 -50 23 -54 51 -50 113 14 137 27 151 84 15 55 17 247 4 255 -13 8 -13
52 0 60 13 8 13 142 1 150 -12 7 -13 172 -1 180 5 3 9 29 8 58 0 29 3 59 6 68
11 26 -55 46 -106 32z"/>
<path d="M108 943 c-21 -5 -31 -34 -22 -67 7 -29 45 -40 119 -34 25 2 45 2 45
0 0 -2 -7 -17 -16 -35 -29 -57 -81 -113 -123 -132 -23 -10 -41 -22 -41 -27 0
-18 41 -89 55 -94 7 -3 24 0 36 7 13 6 45 13 71 13 l49 2 -3 -55 -3 -55 -95 0
-95 -1 -3 -31 c-5 -47 21 -67 72 -60 43 7 97 9 101 4 1 -2 5 -26 9 -53 6 -48
5 -51 -23 -63 -22 -10 -35 -10 -50 -3 -13 7 -28 8 -44 2 -13 -5 -30 -9 -38 -9
-47 3 -51 -1 -46 -46 3 -25 8 -49 11 -55 6 -10 40 -9 126 4 14 2 45 7 70 10
25 3 57 8 73 11 15 2 39 6 55 8 43 7 115 17 142 21 14 1 28 3 31 4 9 1 17 61
12 81 -4 16 -25 17 -113 5 -115 -16 -106 -19 -106 33 1 44 3 47 31 52 17 3 44
1 61 -4 64 -18 103 11 89 67 -6 24 -9 25 -93 23 l-87 -1 0 63 c0 34 2 62 5 63
3 0 23 1 45 3 22 1 47 5 56 9 11 6 20 -2 32 -28 l16 -35 37 22 c20 11 38 27
41 33 5 14 -64 134 -103 178 -26 31 -50 32 -88 4 -19 -14 -19 -16 12 -53 35
-42 40 -56 17 -48 -8 4 -23 3 -32 -2 -10 -4 -38 -9 -63 -10 -25 -2 -64 -4 -88
-6 l-43 -3 81 79 c44 43 80 82 80 87 0 4 -6 12 -14 16 -8 4 35 8 95 8 121 0
131 5 127 60 l-3 30 -105 2 c-58 1 -159 3 -225 6 -66 3 -128 3 -137 0z"/>
<path d="M636 865 c-12 -12 -15 -40 -15 -120 0 -57 4 -107 9 -110 12 -7 12
-153 0 -160 -10 -6 -12 -126 -2 -142 8 -13 30 -17 72 -15 25 2 25 2 27 112 1
60 -2 112 -6 115 -13 7 -13 153 -1 160 6 3 10 40 9 81 -1 61 -4 76 -19 84 -27
14 -56 12 -74 -5z"/>
</g>
</svg>
