<?xml version="1.0" standalone="no"?>
<!DOCTYPE svg PUBLIC "-//W3C//DTD SVG 20010904//EN"
 "http://www.w3.org/TR/2001/REC-SVG-20010904/DTD/svg10.dtd">
<svg version="1.0" xmlns="http://www.w3.org/2000/svg"
 width="101.000000pt" height="101.000000pt" viewBox="0 0 101.000000 101.000000"
 preserveAspectRatio="xMidYMid meet">
<metadata>
Created by potrace 1.16, written by Peter Selinger 2001-2019
</metadata>
<g transform="translate(0.000000,101.000000) scale(0.100000,-0.100000)"
fill="#000000" stroke="none">
<path d="M829 993 c-14 -3 -17 -23 -18 -138 -1 -80 3 -136 9 -140 13 -8 13
-52 0 -60 -13 -8 -12 -203 2 -224 7 -11 7 -46 2 -106 l-9 -90 -62 2 c-35 1
-63 0 -63 -1 0 -1 9 -19 20 -41 11 -22 20 -45 20 -51 0 -18 33 -23 84 -13 81
15 83 18 90 116 3 49 3 108 0 133 -9 84 -1 520 11 564 12 44 -26 65 -86 49z"/>
<path d="M515 971 c-31 -13 -182 -24 -197 -14 -7 4 -54 8 -105 8 l-92 0 1
-180 c1 -99 -2 -200 -5 -225 -17 -129 -34 -189 -73 -258 l-25 -42 32 -40 c35
-43 42 -43 64 -1 23 46 85 234 79 243 -3 4 0 16 5 25 10 17 11 17 12 -2 4 -42
5 -51 13 -78 6 -18 3 -40 -8 -67 -12 -31 -14 -46 -6 -61 6 -11 8 -28 5 -38 -7
-22 18 -31 60 -23 23 4 26 8 18 31 -4 14 -7 69 -6 121 3 148 0 138 42 142 l36
3 -2 -50 c0 -27 3 -55 8 -62 13 -14 5 -209 -10 -245 -19 -48 6 -72 63 -61 26
5 27 7 19 52 -4 25 -7 62 -6 81 2 19 3 45 4 58 1 22 2 22 14 5 7 -10 15 -28
19 -40 9 -29 34 -33 77 -12 27 13 38 27 47 57 15 48 16 102 2 102 -5 0 -10 16
-10 35 0 19 5 35 10 35 6 0 10 27 10 60 0 71 -3 73 -102 74 -57 1 -67 4 -62
16 17 40 16 58 -5 70 -12 6 -34 10 -49 8 -25 -3 -27 -7 -27 -48 l0 -45 -78 0
-79 0 7 45 c4 25 9 47 11 49 2 2 24 3 50 3 26 -1 54 4 61 10 12 10 113 8 217
-5 l38 -5 -7 98 c-4 66 -3 100 4 105 16 9 13 41 -5 59 -17 17 -38 19 -69 7z
m-15 -122 c0 -20 3 -44 6 -52 5 -13 -16 -15 -143 -14 l-148 2 0 50 0 50 143 1
142 1 0 -38z m15 -347 c-2 -7 0 -22 5 -35 6 -13 7 -46 3 -82 l-8 -60 -35 0
-35 0 -8 60 c-4 36 -3 69 3 82 5 13 7 29 4 36 -3 9 6 13 36 12 28 0 39 -4 35
-13z"/>
<path d="M669 892 c-11 -5 -16 -26 -17 -89 -2 -48 1 -84 8 -88 12 -8 13 -52 1
-59 -13 -8 -12 -108 1 -123 11 -14 6 -165 -6 -194 -8 -19 18 -29 58 -22 l25 5
-6 99 c-4 65 -2 103 5 112 13 15 14 115 1 123 -12 7 -11 51 1 59 6 4 10 32 9
63 -1 32 1 67 5 79 11 33 -40 54 -85 35z"/>
</g>
</svg>
