<?xml version="1.0" standalone="no"?>
<!DOCTYPE svg PUBLIC "-//W3C//DTD SVG 20010904//EN"
 "http://www.w3.org/TR/2001/REC-SVG-20010904/DTD/svg10.dtd">
<svg version="1.0" xmlns="http://www.w3.org/2000/svg"
 width="101.000000pt" height="101.000000pt" viewBox="0 0 101.000000 101.000000"
 preserveAspectRatio="xMidYMid meet">
<metadata>
Created by potrace 1.16, written by Peter Selinger 2001-2019
</metadata>
<g transform="translate(0.000000,101.000000) scale(0.100000,-0.100000)"
fill="#000000" stroke="none">
<path d="M830 1002 c-13 -6 -15 -39 -13 -217 4 -347 4 -387 -1 -469 -4 -91
-11 -98 -80 -92 -46 5 -55 -1 -36 -20 6 -6 12 -25 15 -43 2 -18 6 -36 10 -39
18 -18 122 5 157 36 15 13 17 28 11 118 -4 76 -3 104 5 104 8 0 12 31 12 100
0 60 -4 100 -10 100 -5 0 -10 11 -10 25 0 14 5 25 10 25 6 0 10 30 10 70 0 40
-4 70 -10 70 -12 0 -13 67 -1 72 4 2 11 36 13 76 5 63 3 74 -13 82 -20 11 -47
12 -69 2z"/>
<path d="M208 963 c-17 -4 -23 -17 -18 -38 5 -22 2 -113 -4 -142 -8 -35 -48
-77 -90 -93 l-29 -11 34 -37 c19 -20 34 -38 35 -39 0 -2 22 13 47 32 65 50 98
116 101 205 l1 35 55 0 55 0 -3 -31 c-6 -48 15 -165 32 -182 16 -17 111 -28
150 -18 22 5 24 10 19 46 -4 26 -2 40 6 40 6 0 11 5 11 11 0 6 -9 8 -22 3 -24
-8 -89 -7 -97 2 -7 7 -5 101 3 149 10 65 4 68 -141 71 -70 1 -136 0 -145 -3z"/>
<path d="M641 868 c-5 -13 -7 -77 -5 -143 4 -132 4 -146 4 -255 0 -166 0 -168
20 -173 10 -2 30 -2 44 0 l27 5 -7 114 c-5 77 -3 118 4 127 13 15 14 115 1
123 -12 7 -11 51 1 59 14 9 11 148 -4 157 -6 4 -26 8 -44 8 -25 0 -35 -5 -41
-22z"/>
<path d="M304 655 c-4 -8 -4 -30 -2 -49 l4 -33 -117 3 -117 3 -6 -25 c-9 -36
1 -63 27 -69 12 -3 55 -4 95 -2 39 1 72 1 72 -1 0 -1 -15 -27 -34 -57 -37 -58
-101 -126 -155 -166 l-34 -25 47 -28 c38 -22 50 -25 62 -15 15 13 121 152 139
183 7 13 10 4 8 -36 0 -29 3 -58 8 -64 5 -7 8 -46 6 -87 -4 -82 1 -90 56 -80
29 6 40 43 26 82 -9 22 -12 80 -9 156 l2 29 47 -49 c25 -28 56 -63 67 -78 l19
-28 37 28 c21 15 37 32 38 38 0 10 -102 109 -138 133 -21 14 -25 13 -45 -6
l-22 -21 0 45 -1 44 38 0 c21 0 38 5 38 10 0 13 45 13 88 1 29 -9 33 -7 38 14
3 12 4 33 2 45 -3 21 -8 22 -104 24 -99 1 -101 1 -98 24 1 13 8 29 14 37 9 11
7 16 -9 24 -29 16 -81 14 -87 -4z"/>
</g>
</svg>
