<?xml version="1.0" standalone="no"?>
<!DOCTYPE svg PUBLIC "-//W3C//DTD SVG 20010904//EN"
 "http://www.w3.org/TR/2001/REC-SVG-20010904/DTD/svg10.dtd">
<svg version="1.0" xmlns="http://www.w3.org/2000/svg"
 width="101.000000pt" height="101.000000pt" viewBox="0 0 101.000000 101.000000"
 preserveAspectRatio="xMidYMid meet">
<metadata>
Created by potrace 1.16, written by Peter Selinger 2001-2019
</metadata>
<g transform="translate(0.000000,101.000000) scale(0.100000,-0.100000)"
fill="#000000" stroke="none">
<path d="M320 996 c-19 -7 -35 -17 -35 -22 0 -5 13 -32 27 -61 23 -44 25 -52
12 -57 -22 -8 -89 -7 -98 2 -4 4 -48 7 -97 7 -98 0 -104 -4 -93 -61 7 -37 30
-50 72 -39 66 18 758 19 808 1 33 -12 57 19 50 62 -7 47 -20 54 -91 46 -33 -3
-97 -7 -141 -8 -92 -1 -91 -3 -34 69 29 36 30 40 14 52 -23 17 -84 28 -93 17
-4 -5 -18 -35 -30 -66 -31 -77 -37 -81 -116 -73 -53 6 -63 10 -50 19 14 10 11
18 -25 69 -23 31 -42 57 -43 56 -1 0 -18 -6 -37 -13z"/>
<path d="M762 733 c-13 -25 -15 -160 -2 -168 12 -8 13 -52 1 -59 -12 -8 -13
-114 -1 -121 6 -4 10 -38 10 -76 0 -61 -3 -73 -25 -95 -17 -17 -35 -25 -53
-23 -60 5 -62 3 -41 -38 10 -21 19 -43 19 -49 0 -20 37 -23 92 -7 94 27 90 11
97 340 4 158 6 289 5 291 -1 1 -12 5 -25 8 -13 3 -34 8 -46 11 -14 3 -24 -1
-31 -14z"/>
<path d="M130 684 c0 -24 5 -44 10 -44 6 0 10 -32 10 -75 0 -43 -4 -75 -10
-75 -6 0 -10 -30 -10 -70 0 -45 4 -70 11 -70 13 0 3 -158 -12 -197 -17 -44 8
-64 67 -56 32 5 31 3 34 88 0 11 -2 45 -4 75 l-4 55 51 -2 c27 0 58 4 67 9 23
15 73 2 67 -17 -3 -7 -1 -27 5 -43 18 -46 -2 -64 -63 -59 -27 2 -49 2 -49 0 0
-2 7 -17 15 -34 9 -16 14 -33 11 -37 -8 -13 10 -33 30 -33 65 0 129 30 137 63
13 54 20 265 8 272 -14 9 -15 152 -1 161 10 6 12 83 4 115 -3 13 -34 15 -189
17 l-185 1 0 -44z m275 -81 l0 -43 -90 3 -90 2 0 40 0 40 90 0 90 0 0 -42z m0
-163 l0 -50 -90 3 -90 2 3 42 4 42 56 4 c132 8 117 13 117 -43z"/>
<path d="M572 671 c-7 -18 5 -392 13 -399 7 -7 85 -5 92 2 3 2 7 95 9 205 3
157 1 201 -8 202 -67 6 -101 2 -106 -10z"/>
</g>
</svg>
