<?xml version="1.0" standalone="no"?>
<!DOCTYPE svg PUBLIC "-//W3C//DTD SVG 20010904//EN"
 "http://www.w3.org/TR/2001/REC-SVG-20010904/DTD/svg10.dtd">
<svg version="1.0" xmlns="http://www.w3.org/2000/svg"
 width="101.000000pt" height="101.000000pt" viewBox="0 0 101.000000 101.000000"
 preserveAspectRatio="xMidYMid meet">
<metadata>
Created by potrace 1.16, written by Peter Selinger 2001-2019
</metadata>
<g transform="translate(0.000000,101.000000) scale(0.100000,-0.100000)"
fill="#000000" stroke="none">
<path d="M830 994 c-12 -4 -14 -18 -12 -64 3 -39 0 -60 -7 -60 -6 0 -11 -18
-11 -40 0 -22 5 -40 10 -40 6 0 10 -33 10 -80 0 -47 -4 -80 -10 -80 -6 0 -10
-30 -10 -70 0 -40 4 -70 10 -70 6 0 10 -11 10 -25 0 -14 -5 -25 -11 -25 -8 0
-9 -31 -4 -105 7 -104 7 -104 -16 -110 -13 -3 -33 -5 -44 -4 -54 5 -57 2 -35
-38 11 -21 20 -45 20 -55 0 -13 8 -16 38 -13 45 4 91 21 114 42 16 14 17 29
12 123 -4 71 -3 110 5 114 13 8 14 213 1 221 -13 8 -13 52 0 60 6 4 10 53 10
123 -1 64 2 131 5 147 5 28 2 32 -28 43 -18 7 -35 11 -38 11 -2 -1 -11 -3 -19
-5z"/>
<path d="M128 953 c-15 -4 -18 -16 -18 -69 0 -36 4 -64 10 -64 6 0 10 -16 10
-35 0 -19 -5 -35 -11 -35 -6 0 -10 -24 -8 -63 1 -35 -1 -69 -5 -75 -4 -7 -7
-38 -6 -69 0 -32 -2 -74 -4 -93 -3 -19 -8 -55 -11 -79 -7 -51 -31 -115 -57
-153 -22 -31 -22 -38 -4 -38 8 0 28 -12 45 -26 l31 -26 20 47 c19 44 50 142
56 175 10 57 16 100 19 130 1 19 3 40 4 45 1 6 31 10 69 11 l67 0 -1 -45 c-1
-38 -5 -47 -22 -49 -12 -2 -29 1 -40 7 -10 5 -28 8 -39 5 -18 -5 -20 -12 -16
-42 12 -94 13 -181 2 -220 -7 -23 -9 -46 -5 -49 12 -12 89 -5 97 9 5 7 6 22 3
32 -5 15 -3 18 11 13 9 -4 25 -2 35 3 11 6 43 7 75 4 45 -6 54 -10 50 -23 -10
-32 14 -47 71 -43 29 3 36 34 19 83 -13 36 -14 99 -2 191 l5 36 -51 1 c-94 0
-93 -1 -89 41 l4 37 81 6 c86 7 101 16 91 57 -8 35 -22 42 -74 35 -25 -3 -58
-7 -75 -9 -30 -4 -30 -3 -26 40 3 45 12 51 60 44 8 -1 30 1 49 5 l34 6 -7 80
c-5 57 -4 84 5 94 7 9 10 26 6 40 -6 25 -7 26 -104 24 -53 0 -151 1 -217 4
-66 3 -128 3 -137 0z m367 -120 l0 -48 -57 2 c-31 2 -60 -2 -63 -7 -8 -13 -48
-13 -62 1 -6 6 -33 9 -60 8 l-49 -4 0 45 1 45 145 3 145 2 0 -47z m-137 -170
l-3 -48 -78 0 -78 0 5 29 c3 16 6 36 6 45 0 13 14 17 76 19 l75 3 -3 -48z
m103 -283 c21 0 27 -5 28 -22 0 -13 2 -39 3 -58 l3 -35 -55 -7 c-30 -4 -66 -5
-80 -1 -14 4 -34 7 -45 7 -17 1 -20 7 -17 36 1 19 3 45 3 58 1 16 6 21 18 18
9 -3 23 -1 31 5 8 5 31 7 50 4 19 -2 47 -5 61 -5z"/>
<path d="M635 840 c-3 -11 -3 -25 1 -32 4 -7 7 -49 6 -94 -2 -48 2 -85 8 -89
12 -7 14 -48 3 -59 -9 -9 -15 -103 -11 -188 1 -30 18 -37 65 -31 37 6 46 23
33 59 -11 27 -12 62 -7 274 2 75 6 141 10 147 10 16 -24 33 -67 33 -26 0 -36
-5 -41 -20z"/>
</g>
</svg>
