<?xml version="1.0" standalone="no"?>
<!DOCTYPE svg PUBLIC "-//W3C//DTD SVG 20010904//EN"
 "http://www.w3.org/TR/2001/REC-SVG-20010904/DTD/svg10.dtd">
<svg version="1.0" xmlns="http://www.w3.org/2000/svg"
 width="101.000000pt" height="101.000000pt" viewBox="0 0 101.000000 101.000000"
 preserveAspectRatio="xMidYMid meet">
<metadata>
Created by potrace 1.16, written by Peter Selinger 2001-2019
</metadata>
<g transform="translate(0.000000,101.000000) scale(0.100000,-0.100000)"
fill="#000000" stroke="none">
<path d="M298 998 c-33 -11 -34 -17 -8 -60 l19 -33 -118 2 -119 2 0 -74 c0
-69 1 -74 24 -79 20 -5 23 -11 18 -30 -3 -15 1 -29 12 -40 14 -15 29 -16 94
-10 l78 6 -1 -25 c-2 -22 -8 -26 -44 -32 -24 -3 -48 -3 -54 1 -7 4 -27 8 -45
10 -34 2 -47 -16 -37 -54 5 -19 46 -24 71 -8 6 4 33 4 61 0 43 -6 49 -9 47
-30 -1 -17 -8 -25 -26 -28 -41 -7 -123 -5 -141 4 -38 21 -74 -13 -62 -60 4
-16 11 -18 47 -14 72 10 130 13 157 8 21 -4 26 -11 26 -34 0 -26 -4 -29 -43
-35 -24 -3 -52 -2 -62 4 -41 22 -84 -18 -63 -58 13 -26 11 -138 -4 -180 -17
-48 -6 -65 40 -64 45 1 47 3 48 46 1 28 5 35 21 36 12 0 55 3 96 6 96 7 140 0
138 -23 -4 -50 13 -65 64 -55 24 5 24 6 21 110 -1 58 1 113 7 122 5 10 6 28 3
40 -5 19 -12 21 -67 21 -110 -1 -113 -1 -113 30 0 21 6 28 21 30 47 4 119 2
155 -4 33 -5 39 -3 44 14 13 50 1 57 -91 58 -126 1 -127 1 -128 29 -2 17 2 23
12 19 8 -3 25 -1 38 5 16 8 38 8 69 1 40 -8 46 -7 50 9 3 11 3 27 0 38 -4 16
-10 17 -50 9 -31 -7 -53 -7 -69 1 -13 6 -30 8 -37 5 -8 -3 -13 3 -13 15 0 17
10 20 86 27 87 7 100 13 100 51 0 13 8 24 20 28 20 6 22 15 25 117 l1 37 -106
-2 -106 -2 -20 50 c-20 53 -34 60 -86 43z m138 -170 c3 -5 23 -7 44 -3 35 6
38 5 33 -13 -2 -11 0 -29 6 -40 10 -19 8 -20 -66 -17 -80 3 -100 15 -67 40 18
13 17 14 -8 26 -19 8 -37 9 -60 3 -28 -8 -33 -15 -33 -39 l0 -30 -71 0 c-60 0
-68 2 -57 14 8 8 12 23 9 35 -5 20 -2 21 45 17 28 -1 56 2 62 8 13 13 155 13
163 -1z m4 -503 c22 -5 26 -11 27 -45 2 -37 0 -40 -30 -45 -18 -3 -66 -3 -107
0 -41 3 -85 6 -97 6 -19 1 -22 7 -20 40 1 30 5 38 17 34 8 -2 21 -1 29 4 15
10 142 14 181 6z"/>
<path d="M802 948 c-1 -21 3 -40 8 -43 12 -8 11 -173 -1 -180 -12 -8 -12 -142
1 -150 13 -8 13 -52 -1 -61 -8 -4 -9 -51 -6 -149 l6 -144 -26 -16 c-20 -13
-31 -15 -48 -7 -13 6 -32 8 -43 5 -19 -5 -19 -5 1 -58 23 -58 18 -56 110 -41
40 6 76 33 88 64 7 17 8 62 4 120 -5 64 -4 92 4 92 7 0 11 34 11 100 0 60 -4
100 -10 100 -5 0 -10 11 -10 25 0 14 5 25 10 25 6 0 10 30 10 70 0 40 -4 70
-10 70 -13 0 -13 67 -1 72 11 3 18 125 8 135 -4 3 -29 7 -56 7 l-49 1 0 -37z"/>
<path d="M650 830 c-6 -12 -8 -30 -5 -41 8 -25 9 -381 1 -406 -9 -30 10 -47
49 -46 20 1 38 3 41 5 6 7 20 469 14 477 -7 10 -59 31 -75 31 -8 0 -19 -9 -25
-20z"/>
</g>
</svg>
