<?xml version="1.0" standalone="no"?>
<!DOCTYPE svg PUBLIC "-//W3C//DTD SVG 20010904//EN"
 "http://www.w3.org/TR/2001/REC-SVG-20010904/DTD/svg10.dtd">
<svg version="1.0" xmlns="http://www.w3.org/2000/svg"
 width="101.000000pt" height="101.000000pt" viewBox="0 0 101.000000 101.000000"
 preserveAspectRatio="xMidYMid meet">
<metadata>
Created by potrace 1.16, written by Peter Selinger 2001-2019
</metadata>
<g transform="translate(0.000000,101.000000) scale(0.100000,-0.100000)"
fill="#000000" stroke="none">
<path d="M829 993 c-14 -3 -17 -23 -18 -138 -1 -80 3 -136 9 -140 13 -8 13
-52 0 -60 -13 -8 -12 -206 2 -222 13 -17 3 -200 -13 -219 -8 -10 -26 -13 -65
-9 -30 2 -54 3 -54 2 0 -2 9 -20 20 -42 11 -22 20 -47 20 -57 0 -16 19 -24 45
-18 6 1 19 4 31 5 32 4 82 33 93 54 10 18 11 37 11 216 0 50 0 145 0 213 1 67
1 139 1 160 0 87 7 208 13 223 11 26 -46 45 -95 32z"/>
<path d="M505 961 c-31 -13 -182 -24 -197 -14 -7 4 -64 8 -126 8 -122 0 -130
-4 -117 -57 6 -22 12 -25 53 -25 122 -2 119 -1 124 -30 l4 -28 -73 0 c-73 0
-82 -5 -73 -40 5 -18 2 -144 -4 -153 -9 -15 11 -34 35 -33 22 2 93 2 289 2 36
0 90 0 121 1 l56 0 7 93 c9 134 3 145 -85 145 -51 0 -57 2 -61 23 -4 21 -1 22
86 24 60 2 92 7 98 15 14 23 9 57 -11 68 -23 12 -97 12 -126 1z m-129 -116 c0
-26 -3 -30 -25 -30 -22 0 -26 5 -27 30 0 26 3 30 25 30 22 0 26 -5 27 -30z
m-131 -139 c0 -43 -1 -44 -32 -43 -30 1 -32 3 -30 38 1 34 4 38 32 42 16 2 30
5 30 5 0 1 0 -18 0 -42z m133 -2 c1 -38 0 -41 -26 -41 -25 0 -27 3 -27 41 0
37 2 41 25 41 23 0 26 -4 28 -41z m140 2 c1 -44 1 -44 -33 -43 -33 1 -34 2
-32 38 1 34 4 38 32 42 16 2 30 5 30 5 1 1 2 -18 3 -42z"/>
<path d="M680 883 c-8 -3 -18 -10 -21 -16 -11 -16 -9 -116 1 -122 14 -9 12
-149 -1 -162 -8 -8 -9 -52 -4 -146 8 -147 10 -151 68 -140 21 4 24 10 25 46 1
68 1 84 2 277 0 102 3 200 7 219 8 45 -25 63 -77 44z"/>
<path d="M107 529 c-3 -9 -3 -28 0 -41 4 -21 9 -24 36 -20 18 2 77 3 132 3
265 -2 299 -1 307 12 6 10 2 44 -6 54 -2 3 -113 3 -301 2 -55 0 -114 1 -132 3
-24 4 -33 0 -36 -13z"/>
<path d="M69 433 c-19 -5 -29 -34 -22 -62 6 -24 37 -33 70 -20 14 5 29 7 34 4
5 -3 17 -1 28 4 27 15 144 2 137 -15 -3 -7 0 -26 7 -43 9 -25 8 -37 -6 -66
-14 -30 -22 -36 -45 -34 -62 5 -64 3 -42 -38 11 -21 20 -43 20 -50 0 -7 7 -13
16 -13 33 0 104 23 116 38 8 9 14 48 15 96 3 123 4 128 18 122 8 -3 26 0 42 6
21 8 43 7 87 -5 67 -17 82 -14 89 14 10 38 -2 55 -41 56 -20 1 -46 3 -57 4
-11 1 -45 -4 -76 -10 -31 -6 -94 -9 -140 -6 -46 3 -111 6 -144 8 -33 2 -67 6
-75 9 -8 3 -22 4 -31 1z"/>
<path d="M169 324 c-7 -14 -38 -49 -68 -76 l-55 -50 34 -29 35 -29 65 70 c36
38 71 70 78 70 23 0 12 19 -25 45 -21 14 -40 25 -44 25 -3 0 -12 -12 -20 -26z"/>
<path d="M449 316 l-27 -23 69 -72 c37 -39 71 -71 75 -71 11 0 64 41 64 51 0
13 -131 139 -144 139 -6 0 -23 -11 -37 -24z"/>
</g>
</svg>
