<?xml version="1.0" standalone="no"?>
<!DOCTYPE svg PUBLIC "-//W3C//DTD SVG 20010904//EN"
 "http://www.w3.org/TR/2001/REC-SVG-20010904/DTD/svg10.dtd">
<svg version="1.0" xmlns="http://www.w3.org/2000/svg"
 width="101.000000pt" height="101.000000pt" viewBox="0 0 101.000000 101.000000"
 preserveAspectRatio="xMidYMid meet">
<metadata>
Created by potrace 1.16, written by Peter Selinger 2001-2019
</metadata>
<g transform="translate(0.000000,101.000000) scale(0.100000,-0.100000)"
fill="#000000" stroke="none">
<path d="M280 978 c-11 -30 -15 -33 -54 -31 -22 1 -49 4 -58 8 -13 5 -20 0
-28 -21 -6 -15 -9 -33 -6 -40 4 -11 6 -123 4 -232 0 -38 -9 -36 142 -27 47 3
96 3 110 0 25 -7 24 -7 -9 -21 -26 -11 -59 -13 -125 -9 -133 7 -137 8 -143 2
-3 -3 -4 -16 -3 -29 1 -13 2 -65 2 -115 2 -107 -3 -103 93 -87 85 14 202 14
244 -1 32 -11 48 -12 63 -4 11 6 35 8 52 5 l32 -6 1 87 c0 49 3 103 5 121 l5
33 -43 -7 c-23 -3 -53 -3 -66 1 -22 8 -22 8 -3 16 11 4 34 8 52 8 34 1 44 15
33 46 -8 21 -4 155 7 227 4 29 1 38 -15 47 -11 6 -23 7 -27 3 -7 -7 -185 -10
-185 -3 0 3 7 12 16 22 23 26 9 39 -41 39 -40 0 -45 -3 -55 -32z m216 -98 c0
-19 -5 -20 -126 -14 -132 6 -150 9 -150 21 0 4 62 9 138 10 132 3 138 2 138
-17z m0 -91 c0 -23 -94 -37 -108 -17 -8 10 -11 10 -15 1 -6 -15 -73 -18 -73
-3 0 6 -16 10 -35 10 -21 0 -35 5 -35 13 0 9 33 12 133 12 117 0 133 -2 133
-16z m-23 -59 c17 0 27 -5 27 -14 0 -20 -65 -28 -160 -21 -41 3 -84 6 -96 6
-11 1 -21 7 -21 14 0 8 13 11 42 7 24 -2 51 1 61 7 11 7 40 9 69 6 28 -2 62
-5 78 -5z m-169 -176 c9 -3 16 -12 16 -20 0 -19 -47 -29 -76 -16 -13 7 -31 9
-39 6 -10 -4 -15 0 -15 11 0 11 6 15 18 11 9 -3 24 -1 32 4 17 11 42 13 64 4z
m204 0 c12 -4 22 -12 22 -20 0 -18 -63 -29 -88 -15 -11 6 -28 8 -36 5 -11 -4
-16 -1 -16 11 0 11 6 15 18 11 9 -3 24 -1 32 4 17 11 36 12 68 4z m-204 -90
c9 -3 16 -12 16 -20 0 -19 -47 -29 -76 -16 -13 7 -31 9 -39 6 -10 -4 -15 0
-15 11 0 11 6 15 18 11 9 -3 24 -1 32 4 17 11 42 13 64 4z m204 0 c12 -4 22
-12 22 -20 0 -18 -63 -29 -88 -15 -11 6 -28 8 -36 5 -11 -4 -16 -1 -16 11 0
11 6 15 18 11 9 -3 24 -1 32 4 17 11 36 12 68 4z"/>
<path d="M798 990 c0 -8 0 -22 1 -30 5 -32 12 -303 10 -415 0 -38 3 -89 6
-113 10 -59 -4 -189 -21 -206 -12 -13 -35 -14 -69 -6 -5 1 -18 2 -27 1 -16 -1
-16 -4 2 -44 11 -23 20 -50 20 -60 0 -14 7 -16 43 -13 106 11 136 39 137 126
0 30 0 96 0 145 0 50 0 145 0 213 1 67 1 139 1 160 0 70 8 207 13 230 5 24 5
24 -66 26 -36 1 -48 -3 -50 -14z"/>
<path d="M655 906 c-14 -10 -16 -21 -11 -47 3 -19 6 -135 5 -259 -1 -284 -1
-288 -6 -269 -3 12 -16 17 -46 17 -23 0 -51 1 -62 2 -11 1 -45 -3 -76 -9 -31
-6 -94 -9 -140 -6 -167 10 -204 13 -219 15 -44 8 -65 -15 -53 -59 5 -19 32
-22 83 -7 14 4 42 3 62 -1 36 -8 37 -9 25 -32 -17 -34 -56 -60 -97 -64 -19 -3
-47 -8 -61 -11 l-25 -7 40 -40 40 -40 41 16 c79 29 155 107 155 156 0 11 9 17
23 18 12 0 35 2 52 3 27 3 30 0 33 -27 6 -61 6 -91 -2 -116 -9 -31 9 -39 63
-31 30 4 32 7 25 31 -7 23 -8 42 -3 119 1 16 6 22 15 18 8 -3 26 0 40 6 19 9
30 9 45 0 25 -16 39 -15 39 1 0 10 15 14 46 15 51 0 68 15 57 47 -7 22 -13
104 -13 180 1 107 9 302 15 338 5 36 4 37 -20 31 -14 -3 -25 -2 -25 4 0 17
-27 21 -45 8z"/>
</g>
</svg>
