<?xml version="1.0" standalone="no"?>
<!DOCTYPE svg PUBLIC "-//W3C//DTD SVG 20010904//EN"
 "http://www.w3.org/TR/2001/REC-SVG-20010904/DTD/svg10.dtd">
<svg version="1.0" xmlns="http://www.w3.org/2000/svg"
 width="101.000000pt" height="101.000000pt" viewBox="0 0 101.000000 101.000000"
 preserveAspectRatio="xMidYMid meet">
<metadata>
Created by potrace 1.16, written by Peter Selinger 2001-2019
</metadata>
<g transform="translate(0.000000,101.000000) scale(0.100000,-0.100000)"
fill="#000000" stroke="none">
<path d="M604 898 l1 -113 -55 2 c-30 1 -63 4 -72 8 -12 5 -20 2 -24 -9 -3 -9
-10 -13 -15 -10 -5 3 -4 14 2 26 6 11 8 34 5 52 l-6 31 -187 0 -188 0 -3 -29
c-2 -15 -1 -39 2 -51 6 -23 8 -23 138 -21 l133 3 -2 -41 c-2 -40 -10 -96 -14
-106 -1 -3 -3 -9 -4 -15 -6 -38 -18 -75 -23 -75 -4 0 -22 22 -40 48 -18 26
-43 60 -56 76 l-23 28 -42 -27 c-46 -31 -50 -40 -21 -55 11 -6 47 -45 80 -86
l60 -76 -19 -26 c-24 -34 -125 -130 -169 -161 l-34 -24 38 -38 37 -38 34 26
c19 14 61 58 95 97 33 39 64 72 68 74 3 1 17 -20 30 -48 13 -27 27 -50 31 -50
15 0 79 42 79 52 0 6 -20 38 -44 73 l-45 62 26 69 c23 65 28 81 38 129 3 11 8
38 13 60 l9 40 9 -35 c11 -39 34 -49 58 -25 10 11 29 15 52 13 l37 -3 -2 -65
c-1 -62 -3 -82 -16 -174 -10 -76 -54 -153 -123 -217 -35 -33 -75 -65 -88 -71
-13 -6 -24 -14 -23 -17 0 -3 20 -20 43 -37 l43 -32 47 37 c129 100 216 295
220 493 l1 67 60 3 60 3 -3 -75 c-2 -41 -5 -115 -7 -165 -2 -49 -5 -101 -5
-115 -4 -89 -35 -121 -112 -118 -21 1 -40 0 -42 -3 -3 -2 7 -29 22 -59 30 -61
35 -63 115 -41 52 15 106 66 108 104 6 90 9 163 9 227 1 41 5 77 10 80 6 3 12
62 15 131 l5 125 -122 0 -123 -1 -3 28 c-2 16 1 34 7 41 6 7 11 24 10 37 -1
25 2 39 15 78 10 31 -6 41 -65 41 l-45 0 0 -112z"/>
</g>
</svg>
