<?xml version="1.0" standalone="no"?>
<!DOCTYPE svg PUBLIC "-//W3C//DTD SVG 20010904//EN"
 "http://www.w3.org/TR/2001/REC-SVG-20010904/DTD/svg10.dtd">
<svg version="1.0" xmlns="http://www.w3.org/2000/svg"
 width="101.000000pt" height="101.000000pt" viewBox="0 0 101.000000 101.000000"
 preserveAspectRatio="xMidYMid meet">
<metadata>
Created by potrace 1.16, written by Peter Selinger 2001-2019
</metadata>
<g transform="translate(0.000000,101.000000) scale(0.100000,-0.100000)"
fill="#000000" stroke="none">
<path d="M405 909 l1 -104 -146 0 c-145 0 -145 0 -148 -24 -2 -12 -1 -34 2
-47 6 -23 7 -23 141 -21 l135 2 1 -40 c1 -22 0 -44 -1 -50 -2 -5 -4 -24 -6
-41 -12 -170 -125 -327 -279 -386 -22 -9 -40 -18 -40 -21 0 -6 93 -77 101 -77
19 0 138 97 174 142 75 95 147 264 135 320 -5 20 -3 33 5 38 7 4 13 31 14 61
l1 54 85 2 85 2 2 -42 c1 -23 -1 -49 -5 -57 -3 -8 -7 -44 -9 -80 -2 -90 -10
-167 -17 -178 -3 -6 -5 -32 -4 -58 2 -63 -16 -77 -93 -68 -32 3 -62 3 -67 0
-14 -8 30 -106 53 -119 9 -5 28 -5 43 -1 15 4 35 8 44 9 52 6 126 86 128 140
1 11 4 45 7 75 2 30 6 86 8 124 2 37 7 72 12 77 12 12 47 -51 82 -146 l27 -73
49 21 c28 11 51 22 53 23 2 1 -24 57 -58 123 -65 127 -72 133 -120 106 -14 -8
-27 -14 -30 -15 -6 0 -3 105 5 147 3 17 3 42 0 55 -6 23 -8 23 -141 23 l-134
0 5 67 c3 37 10 79 15 94 6 15 8 29 5 32 -3 3 -31 8 -63 10 l-58 4 1 -103z"/>
<path d="M172 566 c-13 -36 -40 -89 -61 -118 l-38 -54 46 -22 c25 -11 48 -19
53 -16 6 4 118 228 118 238 0 4 -43 21 -75 30 -17 5 -24 -3 -43 -58z"/>
</g>
</svg>
