<?xml version="1.0" standalone="no"?>
<!DOCTYPE svg PUBLIC "-//W3C//DTD SVG 20010904//EN"
 "http://www.w3.org/TR/2001/REC-SVG-20010904/DTD/svg10.dtd">
<svg version="1.0" xmlns="http://www.w3.org/2000/svg"
 width="101.000000pt" height="101.000000pt" viewBox="0 0 101.000000 101.000000"
 preserveAspectRatio="xMidYMid meet">
<metadata>
Created by potrace 1.16, written by Peter Selinger 2001-2019
</metadata>
<g transform="translate(0.000000,101.000000) scale(0.100000,-0.100000)"
fill="#000000" stroke="none">
<path d="M320 980 c-20 -49 -87 -149 -142 -213 -28 -32 -49 -60 -47 -61 2 -2
22 -12 44 -22 22 -10 43 -20 46 -21 4 -2 28 26 55 62 26 36 51 65 55 65 3 0
18 -17 33 -39 15 -21 38 -49 51 -61 14 -13 25 -27 25 -31 0 -7 -90 -40 -119
-44 -9 -1 -29 -7 -44 -13 -28 -12 -92 -23 -132 -22 -22 0 -105 -21 -105 -26 0
-9 63 -90 75 -97 9 -4 30 0 54 12 21 11 49 22 62 25 29 5 180 59 244 86 l46
20 57 -29 c66 -33 211 -80 230 -73 7 2 18 -1 25 -7 7 -5 27 -13 45 -16 25 -4
34 -1 39 12 4 10 17 35 30 55 21 35 22 37 4 43 -10 3 -47 8 -82 10 -68 5 -99
10 -139 20 -14 3 -36 8 -49 11 -13 3 -35 11 -48 18 l-25 12 35 26 c31 24 120
134 162 200 l17 27 -116 -6 c-85 -4 -116 -3 -116 5 0 7 -16 12 -40 12 -22 0
-40 -4 -40 -10 0 -5 -25 -10 -55 -10 -30 0 -55 3 -55 7 0 4 14 22 32 40 l31
32 -29 12 c-16 6 -45 13 -65 16 -33 5 -37 2 -49 -27z m283 -209 c-35 -34 -69
-58 -79 -57 -17 3 -114 92 -114 105 0 3 57 7 128 8 l127 3 -62 -59z"/>
<path d="M436 544 c-3 -8 -3 -33 0 -57 l6 -42 -120 0 c-66 0 -123 -3 -126 -6
-17 -16 -17 -67 0 -83 14 -15 31 -17 120 -13 57 3 104 1 104 -4 0 -4 -13 -24
-30 -42 -46 -53 -143 -91 -258 -102 -19 -2 -36 -6 -39 -9 -3 -3 8 -21 25 -40
16 -19 32 -40 34 -47 5 -16 131 21 211 64 66 34 133 104 142 147 6 26 9 28 39
23 23 -3 38 0 49 12 14 14 28 16 77 10 33 -4 58 -11 55 -16 -3 -5 -8 -22 -10
-39 -8 -66 -17 -88 -40 -100 -12 -7 -29 -9 -36 -5 -17 11 -79 15 -79 5 0 -4 9
-28 20 -54 20 -45 30 -51 75 -48 110 8 143 40 162 157 11 69 15 95 19 140 l6
50 -149 0 -149 0 4 30 c3 17 9 36 15 43 12 15 11 15 -28 29 -43 16 -92 14 -99
-3z"/>
</g>
</svg>
