<?xml version="1.0" standalone="no"?>
<!DOCTYPE svg PUBLIC "-//W3C//DTD SVG 20010904//EN"
 "http://www.w3.org/TR/2001/REC-SVG-20010904/DTD/svg10.dtd">
<svg version="1.0" xmlns="http://www.w3.org/2000/svg"
 width="101.000000pt" height="101.000000pt" viewBox="0 0 101.000000 101.000000"
 preserveAspectRatio="xMidYMid meet">
<metadata>
Created by potrace 1.16, written by Peter Selinger 2001-2019
</metadata>
<g transform="translate(0.000000,101.000000) scale(0.100000,-0.100000)"
fill="#000000" stroke="none">
<path d="M618 1003 c-16 -4 -17 -16 -14 -112 l4 -107 -34 4 c-72 9 -102 -16
-88 -72 6 -24 10 -26 60 -26 49 0 54 -2 55 -22 1 -13 0 -27 -2 -33 -2 -5 -4
-32 -5 -60 -4 -88 -20 -168 -44 -222 -21 -48 -44 -59 -34 -17 6 25 5 26 -22
20 l-29 -7 2 73 c1 39 -2 77 -6 82 -12 15 -13 154 -1 161 6 3 10 57 10 123 0
64 1 126 1 136 0 23 -20 38 -41 30 -14 -5 -243 -8 -265 -4 -30 7 -32 -2 -29
-172 8 -386 5 -470 -16 -479 -8 -4 -30 -5 -49 -2 -32 3 -33 2 -28 -24 3 -16
10 -41 16 -57 10 -24 15 -27 39 -21 15 4 36 9 47 11 11 2 34 6 50 10 41 7 74
13 115 19 19 3 46 7 60 10 14 3 39 6 55 9 17 2 39 7 50 11 31 12 -40 -59 -81
-81 -35 -19 -44 -34 -20 -34 7 0 30 -12 51 -26 l38 -25 49 48 c27 26 62 69 79
94 28 44 75 165 85 219 10 54 18 127 18 180 l1 55 55 0 55 0 0 -90 c0 -49 -4
-96 -8 -102 -4 -7 -3 -22 4 -34 9 -17 8 -35 -2 -78 -7 -31 -12 -68 -11 -82 4
-36 -35 -83 -62 -74 -36 11 -96 15 -96 6 0 -4 9 -16 20 -26 10 -9 24 -33 30
-51 7 -21 18 -34 29 -34 31 0 119 30 142 48 24 20 30 64 30 245 0 53 4 87 11
87 7 0 8 33 3 100 -5 74 -4 100 5 100 7 0 10 13 8 32 -3 31 -6 33 -50 40 -26
3 -71 5 -100 4 l-54 -2 7 73 c4 40 10 87 14 103 6 29 5 30 -19 24 -17 -4 -31
-1 -41 10 -17 17 -18 17 -47 9z m-244 -207 l-2 -71 -76 -3 -76 -3 2 73 3 73
75 1 75 2 -1 -72z m-8 -150 c1 0 4 -29 6 -64 l4 -62 -76 2 -76 3 0 65 1 65 70
-3 c39 -3 71 -5 71 -6z m-25 -192 c29 -5 37 -11 37 -28 1 -11 4 -35 7 -52 8
-37 2 -43 -57 -49 -23 -2 -57 -7 -75 -9 -30 -5 -33 -3 -39 28 -3 19 -1 43 5
54 6 11 8 28 4 37 -5 14 -2 16 13 11 10 -3 26 -1 34 4 18 11 23 12 71 4z"/>
</g>
</svg>
