<?xml version="1.0" standalone="no"?>
<!DOCTYPE svg PUBLIC "-//W3C//DTD SVG 20010904//EN"
 "http://www.w3.org/TR/2001/REC-SVG-20010904/DTD/svg10.dtd">
<svg version="1.0" xmlns="http://www.w3.org/2000/svg"
 width="101.000000pt" height="101.000000pt" viewBox="0 0 101.000000 101.000000"
 preserveAspectRatio="xMidYMid meet">
<metadata>
Created by potrace 1.16, written by Peter Selinger 2001-2019
</metadata>
<g transform="translate(0.000000,101.000000) scale(0.100000,-0.100000)"
fill="#000000" stroke="none">
<path d="M325 955 l5 -55 -103 6 c-56 4 -113 6 -126 6 -38 0 -53 -41 -30 -84
9 -18 17 -19 62 -14 29 4 87 8 130 9 74 3 77 2 77 -20 0 -13 -5 -32 -12 -43
-15 -24 -10 -29 34 -36 45 -8 68 14 68 64 l0 37 84 1 84 2 -5 -48 c-4 -47 -3
-48 26 -55 59 -13 89 13 71 60 -6 15 -6 26 0 30 12 8 134 8 180 0 43 -7 58 2
66 41 6 34 -19 70 -39 57 -7 -4 -57 -8 -113 -8 -111 0 -107 -3 -89 68 8 29 11
28 -68 31 l-37 1 3 -52 c5 -60 10 -58 -103 -46 l-62 6 5 42 c6 41 5 43 -25 49
-17 3 -43 6 -59 6 -29 0 -29 0 -24 -55z"/>
<path d="M78 702 c-1 -4 -2 -51 -2 -104 -1 -107 0 -108 65 -100 l36 4 -3 58
c-2 53 -1 58 19 59 21 2 137 2 287 2 36 0 94 1 130 4 106 6 222 -5 216 -22 -3
-7 0 -24 6 -38 8 -19 8 -28 -2 -40 -18 -22 -6 -30 47 -27 50 2 66 16 56 47 -4
11 -6 40 -5 65 1 25 2 54 2 64 1 23 -19 38 -40 29 -8 -3 -54 -5 -102 -4 -58 2
-88 -1 -88 -8 0 -7 -29 -11 -80 -11 -47 0 -80 4 -80 10 0 6 -18 10 -40 10 -22
0 -40 -4 -40 -10 0 -15 -157 -13 -164 3 -5 10 -7 10 -12 0 -6 -14 -70 -18 -76
-4 -4 10 -127 22 -130 13z"/>
<path d="M438 593 c-10 -2 -18 -10 -19 -16 -1 -7 -2 -31 -3 -54 -1 -23 -6 -46
-10 -50 -8 -9 -128 -8 -188 0 -41 6 -49 -6 -40 -61 4 -29 6 -31 42 -28 20 2
42 6 48 10 5 3 37 3 70 0 l61 -7 -19 -37 c-44 -85 -152 -140 -308 -155 -19 -2
-35 -5 -37 -7 -2 -2 16 -24 39 -51 l42 -47 72 24 c40 14 95 37 123 53 65 35
143 120 161 175 11 33 20 44 39 46 73 8 137 10 162 6 25 -5 28 -9 21 -32 -6
-25 -9 -45 -13 -95 -2 -28 -52 -69 -76 -62 -31 10 -87 14 -83 7 56 -113 62
-118 135 -96 102 31 112 48 138 244 3 25 7 62 10 83 l4 38 -32 -8 c-18 -4 -77
-7 -132 -6 -155 3 -146 1 -139 32 4 14 11 34 15 43 14 26 11 35 -15 42 -13 3
-30 8 -38 10 -7 2 -21 2 -30 -1z"/>
</g>
</svg>
