<?xml version="1.0" standalone="no"?>
<!DOCTYPE svg PUBLIC "-//W3C//DTD SVG 20010904//EN"
 "http://www.w3.org/TR/2001/REC-SVG-20010904/DTD/svg10.dtd">
<svg version="1.0" xmlns="http://www.w3.org/2000/svg"
 width="101.000000pt" height="101.000000pt" viewBox="0 0 101.000000 101.000000"
 preserveAspectRatio="xMidYMid meet">
<metadata>
Created by potrace 1.16, written by Peter Selinger 2001-2019
</metadata>
<g transform="translate(0.000000,101.000000) scale(0.100000,-0.100000)"
fill="#000000" stroke="none">
<path d="M665 1000 c4 -7 4 -53 0 -104 l-7 -93 -39 7 c-29 6 -44 4 -55 -7 -16
-16 -16 -19 -8 -61 6 -28 8 -29 53 -28 l46 1 -2 -75 c-1 -41 -4 -86 -7 -100
-2 -14 -8 -43 -11 -65 -16 -91 -87 -227 -108 -206 -12 12 -14 212 -3 297 8 63
1 68 -75 48 -52 -14 -174 -14 -259 1 -73 12 -83 9 -81 -27 4 -59 2 -228 -2
-273 -3 -27 -1 -64 6 -82 8 -23 8 -42 0 -68 -12 -39 -9 -41 52 -36 33 3 47 18
39 42 -3 12 2 17 18 18 13 1 50 3 83 6 33 3 79 0 102 -6 l42 -11 -22 -19 c-17
-14 -19 -18 -6 -19 9 0 34 -12 55 -26 l38 -26 53 56 c79 84 154 254 169 379 2
20 7 56 10 80 3 23 7 58 8 77 1 35 2 35 43 35 38 0 42 -2 36 -20 -4 -11 -6
-27 -5 -35 12 -89 10 -172 -3 -210 -11 -32 -12 -47 -4 -63 9 -15 8 -34 0 -73
-13 -58 -32 -80 -58 -69 -45 19 -106 11 -74 -10 5 -3 17 -27 26 -54 18 -55 22
-56 102 -31 74 23 79 35 88 205 2 44 6 96 8 115 3 19 8 80 11 135 4 55 9 121
12 147 5 40 3 48 -16 58 -16 9 -28 8 -52 -4 -17 -9 -50 -16 -72 -16 l-41 0 2
57 c1 32 7 78 13 102 6 24 8 46 6 49 -3 3 -31 7 -62 9 -40 3 -54 1 -49 -7z
m-254 -446 c21 -4 26 -11 26 -34 0 -25 -5 -31 -31 -35 -17 -3 -62 -3 -101 0
-38 3 -79 6 -91 6 -16 1 -21 8 -21 30 0 22 4 28 16 24 9 -2 22 -1 30 4 15 10
132 13 172 5z m0 -120 c21 -4 26 -11 26 -34 0 -25 -5 -31 -31 -35 -17 -3 -62
-3 -101 0 -38 3 -79 6 -91 6 -16 1 -21 8 -21 30 0 22 4 28 16 24 9 -2 22 -1
30 4 15 10 132 13 172 5z m0 -120 c21 -4 26 -11 26 -34 0 -25 -5 -31 -31 -35
-17 -3 -62 -3 -101 0 -38 3 -79 6 -91 6 -16 1 -21 8 -21 30 0 22 4 28 16 24 9
-2 22 -1 30 4 15 10 132 13 172 5z"/>
<path d="M83 962 c-7 -5 -11 -61 -11 -153 -1 -162 -1 -161 64 -152 l29 5 0
106 0 107 150 2 150 2 -1 -45 c-1 -25 -4 -48 -8 -51 -3 -3 -6 -19 -6 -34 0
-26 -1 -27 -30 -16 -21 8 -41 8 -69 1 -22 -6 -46 -7 -53 -3 -22 14 -86 10
-102 -7 -35 -34 -15 -73 34 -67 61 8 164 8 186 0 16 -6 23 -2 32 15 8 17 11
18 11 7 1 -19 29 -29 64 -22 l26 5 -6 109 c-3 78 -1 114 7 124 21 25 4 62 -31
69 -48 9 -147 7 -154 -3 -7 -12 -172 -13 -180 -1 -6 10 -86 11 -102 2z"/>
<path d="M199 824 c-5 -15 -7 -35 -4 -44 5 -16 19 -18 125 -17 106 1 121 3
126 19 11 35 -5 55 -49 62 -26 4 -43 3 -45 -4 -5 -13 -52 -13 -52 0 0 6 -20
10 -45 10 -40 0 -47 -3 -56 -26z"/>
</g>
</svg>
