<?xml version="1.0" standalone="no"?>
<!DOCTYPE svg PUBLIC "-//W3C//DTD SVG 20010904//EN"
 "http://www.w3.org/TR/2001/REC-SVG-20010904/DTD/svg10.dtd">
<svg version="1.0" xmlns="http://www.w3.org/2000/svg"
 width="101.000000pt" height="101.000000pt" viewBox="0 0 101.000000 101.000000"
 preserveAspectRatio="xMidYMid meet">
<metadata>
Created by potrace 1.16, written by Peter Selinger 2001-2019
</metadata>
<g transform="translate(0.000000,101.000000) scale(0.100000,-0.100000)"
fill="#000000" stroke="none">
<path d="M285 945 c-40 -96 -119 -217 -185 -287 -33 -34 -58 -62 -57 -63 1 0
24 -11 51 -23 l50 -24 18 24 c10 13 47 64 82 113 l65 91 47 -3 c26 -2 52 1 59
7 15 13 167 11 183 -2 8 -7 45 -9 106 -5 90 6 94 6 89 -13 -3 -11 -1 -26 5
-33 14 -16 14 -174 1 -183 -6 -3 -10 -36 -11 -72 -1 -215 -2 -223 -23 -239
-14 -10 -33 -13 -65 -9 -64 8 -79 -4 -52 -41 11 -16 23 -40 27 -54 5 -21 11
-24 48 -23 61 1 132 36 152 74 13 25 15 46 10 96 -6 47 -4 64 5 64 9 0 11 33
10 123 -1 67 1 188 4 268 l4 147 -94 1 c-58 1 -94 -3 -94 -9 0 -6 -32 -10 -80
-10 -47 0 -80 4 -80 10 0 6 -18 10 -40 10 -22 0 -40 -4 -40 -10 0 -5 -25 -10
-55 -10 -66 0 -71 14 -20 59 39 34 43 46 18 54 -10 3 -39 12 -64 20 l-47 15
-27 -63z"/>
<path d="M370 653 c-64 -148 -129 -243 -203 -296 -17 -12 -17 -15 3 -61 22
-47 22 -48 58 -41 21 4 51 9 67 11 17 2 44 6 60 8 17 3 56 7 87 10 31 2 67 8
80 12 13 4 38 7 57 8 27 1 36 -4 44 -24 6 -14 12 -26 12 -28 4 -6 95 33 95 40
0 8 -136 257 -146 267 -4 4 -65 -19 -78 -30 -4 -4 8 -36 28 -71 20 -36 36 -67
36 -69 0 -2 -15 -5 -32 -5 -18 -1 -60 -4 -93 -8 -119 -11 -133 -11 -127 -1 62
104 168 264 184 277 24 21 17 34 -26 52 -74 31 -69 33 -106 -51z"/>
</g>
</svg>
