<?xml version="1.0" standalone="no"?>
<!DOCTYPE svg PUBLIC "-//W3C//DTD SVG 20010904//EN"
 "http://www.w3.org/TR/2001/REC-SVG-20010904/DTD/svg10.dtd">
<svg version="1.0" xmlns="http://www.w3.org/2000/svg"
 width="101.000000pt" height="101.000000pt" viewBox="0 0 101.000000 101.000000"
 preserveAspectRatio="xMidYMid meet">
<metadata>
Created by potrace 1.16, written by Peter Selinger 2001-2019
</metadata>
<g transform="translate(0.000000,101.000000) scale(0.100000,-0.100000)"
fill="#000000" stroke="none">
<path d="M285 952 c-36 -118 -106 -238 -195 -335 -48 -53 -50 -56 -30 -67 11
-6 20 -8 20 -5 0 3 13 -1 30 -10 16 -8 33 -15 39 -15 5 0 42 51 83 113 73 111
73 112 109 109 23 -2 42 3 52 12 17 18 77 22 77 6 0 -6 30 -10 70 -10 40 0 70
4 70 10 0 6 11 10 25 10 14 0 25 -5 25 -11 0 -7 19 -10 53 -7 l52 3 0 -115 c0
-63 -4 -121 -8 -127 -4 -7 -7 -43 -6 -80 4 -190 -12 -215 -127 -208 -41 2 -74
2 -74 -1 0 -3 9 -23 20 -44 11 -22 18 -40 15 -40 -3 0 -2 -7 3 -16 7 -12 25
-16 73 -16 112 -1 176 41 185 122 7 60 14 153 19 250 8 141 13 222 20 302 5
61 4 67 -14 73 -12 3 -26 3 -33 -2 -7 -4 -54 -6 -105 -5 -53 2 -94 -1 -97 -7
-8 -13 -166 -13 -181 -1 -7 6 -32 9 -57 7 l-46 -3 28 41 c16 23 35 47 44 54
27 23 18 38 -31 51 -90 24 -88 24 -108 -38z"/>
<path d="M335 609 l-36 -32 68 -71 c38 -39 86 -92 108 -118 l40 -47 49 34 50
34 -114 116 c-63 63 -117 115 -122 115 -4 0 -23 -14 -43 -31z"/>
</g>
</svg>
