<?xml version="1.0" standalone="no"?>
<!DOCTYPE svg PUBLIC "-//W3C//DTD SVG 20010904//EN"
 "http://www.w3.org/TR/2001/REC-SVG-20010904/DTD/svg10.dtd">
<svg version="1.0" xmlns="http://www.w3.org/2000/svg"
 width="101.000000pt" height="101.000000pt" viewBox="0 0 101.000000 101.000000"
 preserveAspectRatio="xMidYMid meet">
<metadata>
Created by potrace 1.16, written by Peter Selinger 2001-2019
</metadata>
<g transform="translate(0.000000,101.000000) scale(0.100000,-0.100000)"
fill="#000000" stroke="none">
<path d="M220 972 c-12 -5 -15 -28 -15 -107 0 -55 3 -105 7 -111 11 -16 8
-173 -3 -179 -12 -8 -12 -142 1 -150 14 -8 13 -52 -1 -61 -18 -11 -4 -142 18
-166 25 -27 82 -50 120 -46 18 1 35 -1 39 -5 11 -11 94 -8 94 3 0 6 11 10 25
10 14 0 25 -5 25 -11 0 -7 19 -9 58 -5 31 3 77 5 102 6 28 0 66 11 100 28 47
23 59 35 82 82 15 30 28 58 28 61 0 4 -11 10 -24 13 -14 3 -38 18 -55 32 -37
31 -51 25 -49 -23 1 -28 -5 -41 -26 -60 -15 -12 -32 -23 -39 -24 -7 0 -30 -2
-52 -5 -45 -4 -243 -5 -292 0 -18 1 -39 8 -47 15 -20 16 -33 166 -16 186 7 8
10 23 7 34 -4 16 7 24 62 47 89 37 251 118 331 165 36 21 77 41 93 44 37 10
34 28 -12 78 l-40 42 -28 -26 c-56 -52 -220 -150 -344 -206 l-65 -30 2 158 c2
87 8 167 14 178 5 11 6 22 2 25 -16 10 -87 16 -102 8z"/>
</g>
</svg>
