<?xml version="1.0" standalone="no"?>
<!DOCTYPE svg PUBLIC "-//W3C//DTD SVG 20010904//EN"
 "http://www.w3.org/TR/2001/REC-SVG-20010904/DTD/svg10.dtd">
<svg version="1.0" xmlns="http://www.w3.org/2000/svg"
 width="101.000000pt" height="101.000000pt" viewBox="0 0 101.000000 101.000000"
 preserveAspectRatio="xMidYMid meet">
<metadata>
Created by potrace 1.16, written by Peter Selinger 2001-2019
</metadata>
<g transform="translate(0.000000,101.000000) scale(0.100000,-0.100000)"
fill="#000000" stroke="none">
<path d="M92 905 c0 -36 4 -67 9 -70 11 -8 10 -173 -2 -180 -12 -8 -12 -142 1
-150 13 -8 13 -52 -1 -60 -7 -5 -9 -50 -6 -134 2 -69 1 -133 -4 -142 -19 -37
14 -48 106 -34 28 4 93 7 145 7 52 -1 122 -1 155 -1 33 0 96 1 140 4 81 4 226
-7 256 -19 28 -12 52 22 45 62 -6 39 -23 55 -46 46 -8 -4 -41 -6 -72 -5 -35 1
-58 -2 -58 -8 0 -7 -31 -11 -80 -11 -47 0 -80 4 -80 10 0 6 -18 10 -40 10 -22
0 -40 -4 -40 -10 0 -15 -157 -13 -164 3 -5 9 -7 9 -12 0 -7 -15 -74 -18 -74
-3 0 6 -18 10 -40 10 l-40 0 7 150 c4 111 3 150 -5 150 -7 0 -12 11 -12 25 0
14 5 25 10 25 6 0 10 30 10 70 0 40 -4 70 -10 70 -5 0 -10 16 -10 35 0 19 5
35 10 35 6 0 10 18 10 40 0 33 3 40 19 40 11 0 23 4 26 10 7 12 173 12 180 -1
4 -5 30 -10 58 -10 29 -1 45 -3 35 -6 -21 -5 -30 -42 -22 -91 l6 -39 -88 2
c-49 2 -93 4 -99 5 -31 7 -33 -2 -29 -132 2 -73 5 -146 5 -163 1 -16 -2 -47
-6 -67 -7 -36 -7 -37 28 -43 46 -9 79 2 73 23 -3 9 -8 78 -12 153 l-7 136 59
-4 c32 -2 59 -5 60 -6 1 -1 4 -90 7 -197 l5 -195 27 -3 c32 -4 75 5 74 16 -1
4 -1 91 0 195 l1 187 25 0 c14 0 25 5 25 11 0 6 15 9 36 7 l36 -3 1 -105 2
-105 -35 3 c-56 4 -62 -7 -37 -60 26 -57 49 -65 110 -39 41 18 46 23 55 68 14
59 14 131 1 138 -12 8 -12 52 1 60 16 10 12 102 -6 119 -17 17 -27 20 -37 10
-4 -4 -46 -7 -94 -8 l-88 -1 2 62 c2 47 -1 62 -13 67 -8 3 -12 10 -9 16 8 14
52 13 61 -1 5 -8 34 -9 95 -4 58 4 95 3 109 -5 44 -24 78 11 65 68 l-6 27
-109 2 c-68 2 -110 -1 -110 -7 0 -6 -11 -10 -25 -10 -14 0 -25 5 -25 10 0 6
-30 10 -70 10 -40 0 -70 -4 -70 -10 0 -6 -33 -10 -80 -10 -47 0 -80 4 -80 10
0 6 -18 10 -40 10 -22 0 -40 -4 -40 -10 0 -5 -25 -10 -55 -10 -30 0 -55 5 -55
10 0 6 -11 10 -24 10 -22 0 -23 -3 -24 -65z"/>
</g>
</svg>
