<?xml version="1.0" standalone="no"?>
<!DOCTYPE svg PUBLIC "-//W3C//DTD SVG 20010904//EN"
 "http://www.w3.org/TR/2001/REC-SVG-20010904/DTD/svg10.dtd">
<svg version="1.0" xmlns="http://www.w3.org/2000/svg"
 width="101.000000pt" height="101.000000pt" viewBox="0 0 101.000000 101.000000"
 preserveAspectRatio="xMidYMid meet">
<metadata>
Created by potrace 1.16, written by Peter Selinger 2001-2019
</metadata>
<g transform="translate(0.000000,101.000000) scale(0.100000,-0.100000)"
fill="#000000" stroke="none">
<path d="M110 982 c-11 -5 -16 -27 -17 -86 -1 -44 2 -85 7 -91 12 -14 12 -173
-1 -180 -12 -8 -12 -142 1 -150 13 -8 13 -52 -1 -61 -7 -4 -9 -38 -4 -108 4
-64 3 -111 -4 -128 -18 -46 -6 -59 48 -52 25 3 89 6 141 6 52 -1 124 -1 160
-1 285 -1 427 -5 455 -14 11 -4 26 -3 33 2 13 8 21 85 10 96 -8 9 -56 8 -143
-4 -44 -5 -116 -8 -160 -6 -44 3 -107 4 -140 4 -126 0 -261 0 -281 2 -16 1
-24 10 -28 31 -9 47 -7 98 4 98 6 0 10 40 10 100 0 60 -4 100 -10 100 -5 0
-10 11 -10 25 0 14 5 25 10 25 6 0 10 30 10 70 0 40 -4 70 -10 70 -5 0 -10 16
-10 35 0 19 5 35 10 35 6 0 10 18 10 40 0 33 3 40 19 40 11 0 23 4 26 10 7 12
173 12 180 -1 8 -12 142 -12 150 1 8 13 52 13 60 -1 4 -6 56 -9 146 -7 153 3
158 5 144 67 l-6 29 -133 7 c-88 5 -140 3 -153 -4 -12 -6 -58 -8 -114 -6 -90
5 -135 5 -271 3 -35 0 -76 2 -93 5 -16 4 -37 3 -45 -1z"/>
<path d="M594 872 c-15 -9 -18 -248 -4 -257 12 -7 12 -153 0 -160 -5 -3 -8
-43 -8 -89 0 -46 -2 -88 -5 -93 -15 -25 15 -38 79 -35 30 2 30 2 28 56 -2 49
0 54 19 55 12 0 50 3 85 5 35 3 74 1 87 -4 21 -8 23 -6 28 23 8 61 4 64 -91
65 -135 1 -130 0 -129 37 1 32 1 33 62 39 34 3 76 3 93 0 27 -6 32 -3 38 20 3
14 3 37 0 51 -7 29 -48 39 -134 33 l-57 -4 -1 43 -1 43 62 0 c43 0 66 -5 75
-15 27 -33 65 -15 75 36 8 42 -16 76 -44 62 -9 -4 -50 -7 -91 -8 l-75 0 2 41
c2 37 0 41 -31 52 -37 14 -47 14 -62 4z"/>
<path d="M430 862 c-11 -5 -16 -21 -15 -50 l0 -43 -81 6 c-107 9 -129 -1 -121
-57 3 -23 11 -45 19 -50 13 -9 142 -4 170 7 11 4 14 -3 13 -32 l0 -38 -81 3
-82 4 -7 -31 c-15 -67 18 -88 117 -76 l53 7 0 -42 c0 -34 -4 -42 -22 -46 -12
-3 -32 -2 -45 2 -42 15 -115 20 -126 10 -7 -7 -6 -86 1 -93 10 -9 97 -1 116
11 7 5 27 5 46 2 l34 -7 -4 -54 c-3 -60 -3 -60 65 -55 39 2 52 16 44 44 -6 20
-15 146 -14 206 3 143 10 300 16 324 5 22 3 32 -11 43 -20 14 -60 16 -85 5z"/>
</g>
</svg>
