<?xml version="1.0" standalone="no"?>
<!DOCTYPE svg PUBLIC "-//W3C//DTD SVG 20010904//EN"
 "http://www.w3.org/TR/2001/REC-SVG-20010904/DTD/svg10.dtd">
<svg version="1.0" xmlns="http://www.w3.org/2000/svg"
 width="101.000000pt" height="101.000000pt" viewBox="0 0 101.000000 101.000000"
 preserveAspectRatio="xMidYMid meet">
<metadata>
Created by potrace 1.16, written by Peter Selinger 2001-2019
</metadata>
<g transform="translate(0.000000,101.000000) scale(0.100000,-0.100000)"
fill="#000000" stroke="none">
<path d="M250 1003 c-12 -3 -14 -16 -12 -63 3 -39 0 -60 -7 -60 -6 0 -11 -18
-11 -40 0 -22 5 -40 10 -40 11 0 13 -46 4 -102 l-7 -38 -73 5 c-93 6 -124 -4
-124 -44 0 -51 42 -77 74 -45 11 11 31 14 68 12 52 -3 53 -3 50 -33 -2 -16 -5
-50 -7 -75 -9 -95 -55 -187 -134 -265 -53 -51 -61 -65 -37 -65 7 0 30 -11 50
-25 l36 -24 41 51 c64 81 131 233 145 328 13 92 10 88 83 92 l66 3 -2 -145
c-1 -80 -2 -156 -2 -170 -1 -94 5 -102 65 -93 37 6 37 5 32 266 -2 119 0 146
10 142 8 -3 40 -5 73 -5 l59 0 0 -55 c0 -30 5 -55 10 -55 6 0 10 -16 10 -35 0
-19 -4 -35 -10 -35 -5 0 -10 -18 -10 -40 0 -22 5 -40 10 -40 15 0 12 -67 -2
-73 -10 -4 -10 -8 1 -15 12 -9 13 -19 4 -59 -6 -26 -9 -50 -7 -53 6 -5 95 -2
101 3 2 2 -2 17 -7 33 -6 16 -8 65 -5 109 3 44 5 88 4 98 0 27 1 107 4 164 l2
51 38 4 c20 2 44 0 52 -5 27 -15 53 2 59 37 11 56 4 61 -78 61 l-74 -1 3 146
c2 81 5 152 7 160 3 15 -55 32 -88 25 -16 -3 -21 -13 -22 -39 -1 -20 3 -38 9
-41 10 -7 11 -74 2 -186 l-5 -67 -80 2 -80 1 7 90 c13 164 14 175 20 184 9 16
-29 30 -76 28 l-44 -2 1 -40 c1 -22 5 -89 8 -150 l7 -110 -76 0 -75 0 5 140
c3 77 8 150 11 163 6 21 -3 27 -29 23 -4 -1 -16 3 -25 7 -9 5 -24 7 -32 5z"/>
</g>
</svg>
