<?xml version="1.0" standalone="no"?>
<!DOCTYPE svg PUBLIC "-//W3C//DTD SVG 20010904//EN"
 "http://www.w3.org/TR/2001/REC-SVG-20010904/DTD/svg10.dtd">
<svg version="1.0" xmlns="http://www.w3.org/2000/svg"
 width="101.000000pt" height="101.000000pt" viewBox="0 0 101.000000 101.000000"
 preserveAspectRatio="xMidYMid meet">
<metadata>
Created by potrace 1.16, written by Peter Selinger 2001-2019
</metadata>
<g transform="translate(0.000000,101.000000) scale(0.100000,-0.100000)"
fill="#000000" stroke="none">
<path d="M470 1002 c-11 -5 -15 -24 -15 -79 l0 -71 -180 1 -180 2 -3 -24 c-2
-12 -1 -34 2 -47 l7 -25 174 5 174 5 3 -32 c2 -18 -1 -44 -6 -59 -15 -43 6
-78 46 -78 18 0 38 4 43 8 6 4 10 41 10 82 l-1 75 48 -3 c28 -2 55 1 63 8 16
13 177 5 207 -11 27 -15 51 17 44 59 -6 39 -23 56 -46 44 -8 -4 -82 -7 -165
-7 l-150 0 1 45 c1 25 5 57 8 71 6 22 4 27 -16 33 -28 7 -48 7 -68 -2z"/>
<path d="M658 693 c-19 -5 -25 -33 -8 -33 7 0 10 -29 8 -77 l-3 -78 -52 3
c-34 3 -53 0 -53 -7 0 -6 -16 -11 -35 -11 -19 0 -35 5 -35 10 0 6 -24 10 -54
10 l-54 0 -4 53 c-3 28 1 66 8 83 l12 32 -45 6 c-62 8 -87 -6 -79 -47 3 -18 7
-56 8 -84 l3 -53 -111 5 -112 5 -6 -26 c-16 -64 11 -77 139 -68 l86 7 -6 -34
c-9 -48 -49 -114 -87 -141 -18 -13 -57 -35 -87 -49 -54 -26 -55 -26 -30 -39
13 -7 36 -23 50 -37 l26 -24 60 44 c32 24 73 61 91 83 34 41 84 157 76 177 -3
8 12 12 48 10 29 0 58 2 63 7 13 10 146 12 161 2 11 -8 12 -12 19 -123 4 -52
1 -89 -9 -117 -25 -69 -6 -94 62 -84 26 3 31 8 27 23 -3 10 -1 27 4 38 8 14 7
30 -3 59 -9 24 -13 63 -10 99 2 32 4 68 5 81 1 16 6 22 16 18 8 -3 23 -1 34 4
13 7 42 8 87 2 76 -11 84 -6 80 48 l-3 34 -105 1 -105 0 3 50 c1 28 5 68 8 91
5 37 3 42 -18 47 -25 7 -43 7 -70 0z"/>
</g>
</svg>
