<?xml version="1.0" standalone="no"?>
<!DOCTYPE svg PUBLIC "-//W3C//DTD SVG 20010904//EN"
 "http://www.w3.org/TR/2001/REC-SVG-20010904/DTD/svg10.dtd">
<svg version="1.0" xmlns="http://www.w3.org/2000/svg"
 width="101.000000pt" height="101.000000pt" viewBox="0 0 101.000000 101.000000"
 preserveAspectRatio="xMidYMid meet">
<metadata>
Created by potrace 1.16, written by Peter Selinger 2001-2019
</metadata>
<g transform="translate(0.000000,101.000000) scale(0.100000,-0.100000)"
fill="#000000" stroke="none">
<path d="M445 953 l0 -58 -63 3 c-35 2 -68 -1 -75 -6 -16 -14 -167 -14 -184
-1 -7 6 -24 8 -37 5 -26 -6 -42 -50 -31 -85 5 -18 16 -19 198 -17 l192 2 0
-42 0 -41 -155 3 c-112 2 -157 0 -162 -9 -11 -18 -10 -105 2 -112 12 -8 13
-52 1 -59 -13 -8 -12 -114 0 -122 7 -4 9 -57 4 -164 -7 -150 -7 -157 12 -162
10 -3 33 -3 49 -1 l30 5 0 274 -1 274 70 0 c84 0 112 -12 66 -28 l-31 -11 20
-33 c33 -55 28 -68 -29 -68 -41 0 -51 -4 -56 -20 -15 -46 25 -81 67 -59 10 5
40 7 66 3 47 -6 48 -7 49 -40 1 -28 -3 -35 -24 -40 -13 -4 -36 -1 -49 5 -14 6
-30 9 -35 6 -5 -3 -17 -1 -27 4 -41 22 -77 -11 -65 -58 6 -23 39 -34 64 -21
10 6 44 7 77 4 65 -7 61 -3 63 -84 1 -19 -2 -47 -6 -61 -8 -30 10 -39 63 -31
35 5 42 26 20 62 -10 15 -10 27 -1 51 7 17 10 36 7 44 -6 15 8 17 117 15 69
-1 77 1 82 19 7 28 -2 58 -19 65 -8 3 -33 -2 -56 -11 -32 -13 -47 -14 -70 -5
-16 6 -35 9 -43 6 -9 -4 -13 4 -12 29 1 39 0 39 116 37 76 -1 91 6 91 42 0 9
-7 24 -16 32 -16 16 -65 22 -78 9 -3 -4 -16 -8 -27 -10 -18 -3 -19 -1 -5 25 8
15 23 36 35 46 27 24 26 34 -1 46 -18 7 -11 9 32 10 30 0 64 3 75 6 20 5 20 0
20 -205 0 -228 -3 -244 -49 -223 -19 8 -66 7 -66 -2 0 -1 9 -19 20 -41 11 -22
20 -45 20 -52 0 -13 42 -12 109 3 44 9 71 54 71 117 0 26 -4 47 -10 47 -5 0
-10 20 -10 45 0 25 5 45 10 45 6 0 10 30 10 70 0 40 -4 70 -10 70 -6 0 -10 32
-10 75 0 43 4 75 10 75 6 0 10 13 10 30 0 41 -30 56 -69 35 -34 -17 -146 -21
-156 -5 -4 6 -32 9 -63 8 l-57 -3 4 37 3 38 52 1 c28 0 74 0 102 -1 30 -1 55
4 59 10 5 9 33 10 96 5 l88 -7 7 26 c3 14 4 36 0 49 -5 21 -10 22 -126 25 -78
2 -120 -1 -120 -8 0 -5 -16 -10 -35 -10 -19 0 -35 5 -35 10 0 6 -18 10 -39 10
-45 0 -54 16 -37 63 14 35 -2 47 -64 47 l-45 0 0 -57z m108 -357 c-2 -19 -10
-50 -18 -69 -12 -30 -19 -35 -61 -41 -65 -9 -84 -8 -84 5 0 5 16 17 35 25 31
13 34 16 25 40 -6 14 -15 34 -20 44 -9 18 -5 19 57 23 38 2 69 4 69 5 1 1 0
-13 -3 -32z"/>
</g>
</svg>
