<?xml version="1.0" standalone="no"?>
<!DOCTYPE svg PUBLIC "-//W3C//DTD SVG 20010904//EN"
 "http://www.w3.org/TR/2001/REC-SVG-20010904/DTD/svg10.dtd">
<svg version="1.0" xmlns="http://www.w3.org/2000/svg"
 width="101.000000pt" height="101.000000pt" viewBox="0 0 101.000000 101.000000"
 preserveAspectRatio="xMidYMid meet">
<metadata>
Created by potrace 1.16, written by Peter Selinger 2001-2019
</metadata>
<g transform="translate(0.000000,101.000000) scale(0.100000,-0.100000)"
fill="#000000" stroke="none">
<path d="M455 958 l0 -52 -62 3 c-40 1 -63 -2 -63 -8 0 -13 -67 -15 -72 -2 -2
8 -81 15 -124 12 -18 -1 -25 -30 -18 -67 l6 -34 167 5 166 4 0 -37 0 -37 -57
2 c-31 2 -60 -2 -63 -7 -8 -13 -52 -13 -60 0 -6 10 -123 13 -157 4 -18 -5 -32
-47 -24 -72 5 -14 18 -17 68 -16 35 0 71 -2 81 -4 17 -4 17 -6 1 -23 -10 -11
-15 -20 -13 -22 47 -33 168 -107 175 -107 6 0 23 13 38 29 l28 29 -43 27
c-113 70 -106 65 -81 65 12 0 22 5 22 10 0 6 32 10 75 10 69 0 91 -9 64 -26
-6 -4 -10 -38 -8 -88 1 -44 -2 -89 -6 -99 -4 -9 -5 -26 -2 -37 5 -19 0 -20
-68 -17 l-73 2 19 21 20 22 -28 20 c-49 35 -133 82 -147 82 -7 0 -25 -13 -40
-29 l-27 -29 60 -36 c33 -21 63 -41 66 -46 6 -9 -163 -5 -172 4 -3 3 -14 1
-24 -5 -20 -10 -25 -53 -10 -77 9 -14 18 -15 106 -7 28 2 101 1 164 -2 l115
-6 -25 -20 c-51 -41 -170 -88 -202 -79 -5 1 -24 -5 -44 -15 -29 -13 -41 -14
-65 -5 -16 6 -38 8 -48 4 -16 -6 -13 -13 27 -55 51 -55 63 -56 188 -17 120 38
205 89 251 152 16 20 35 34 52 36 60 7 221 7 278 -1 l62 -8 4 33 c9 60 1 70
-51 61 -25 -4 -91 -7 -146 -6 -151 3 -140 0 -137 42 4 63 10 105 21 146 8 32
8 42 -4 51 -12 9 -6 13 31 18 57 7 114 8 114 1 0 -3 -9 -24 -20 -45 -11 -22
-17 -40 -13 -41 5 0 17 -2 28 -5 84 -18 78 -22 118 79 21 51 37 95 37 97 0 10
-180 9 -185 -1 -8 -13 -49 -11 -62 2 -6 6 -33 9 -60 8 l-48 -4 3 33 c4 31 6
32 51 32 25 1 87 2 136 3 50 1 100 -2 111 -6 32 -11 58 18 50 56 -3 17 -8 32
-10 34 -2 3 -80 5 -174 6 -188 2 -176 -3 -158 68 6 22 4 27 -16 33 -13 3 -39
6 -58 6 l-35 0 0 -52z"/>
<path d="M595 280 c-16 -16 -27 -32 -24 -34 2 -2 38 -22 80 -43 42 -22 97 -54
123 -71 26 -18 50 -32 54 -32 11 0 87 79 81 84 -18 16 -260 126 -279 126 -3 0
-19 -13 -35 -30z"/>
</g>
</svg>
