<?xml version="1.0" standalone="no"?>
<!DOCTYPE svg PUBLIC "-//W3C//DTD SVG 20010904//EN"
 "http://www.w3.org/TR/2001/REC-SVG-20010904/DTD/svg10.dtd">
<svg version="1.0" xmlns="http://www.w3.org/2000/svg"
 width="101.000000pt" height="102.000000pt" viewBox="0 0 101.000000 102.000000"
 preserveAspectRatio="xMidYMid meet">
<metadata>
Created by potrace 1.16, written by Peter Selinger 2001-2019
</metadata>
<g transform="translate(0.000000,102.000000) scale(0.100000,-0.100000)"
fill="#000000" stroke="none">
<path d="M443 1013 c-21 -4 -22 -6 -9 -31 33 -65 31 -67 -29 -64 -31 2 -61 -1
-68 -6 -15 -13 -174 -15 -182 -2 -3 5 -23 8 -45 8 -44 0 -54 -14 -44 -64 5
-26 12 -34 34 -39 16 -4 37 -2 47 3 10 6 32 8 48 5 17 -3 47 -7 68 -10 20 -3
37 -7 37 -10 0 -3 -18 -43 -39 -89 -27 -57 -58 -104 -97 -144 -31 -33 -51 -60
-43 -60 8 0 32 -9 53 -21 22 -11 42 -16 45 -11 3 5 26 39 50 75 l43 67 29 -20
c15 -12 41 -36 57 -55 l28 -35 38 39 38 39 -77 52 -76 51 25 34 c34 44 33 51
-9 65 -50 16 -43 26 15 22 28 -2 56 1 64 7 17 14 142 12 170 -3 16 -8 22 -19
19 -34 -4 -32 -60 -139 -100 -194 -33 -46 -33 -55 4 -63 10 -2 27 -7 39 -10
17 -5 25 2 50 49 16 31 33 56 37 56 5 0 38 -29 74 -65 l65 -65 38 32 c21 18
39 36 39 39 1 3 -38 34 -86 68 -49 35 -88 68 -89 74 0 7 8 24 19 39 22 34 17
45 -28 54 -54 10 -49 19 7 15 28 -2 55 2 61 8 14 14 50 14 63 1 7 -7 28 -8 53
-4 45 7 59 31 47 78 -5 22 -10 23 -106 25 -63 1 -100 -2 -100 -9 0 -5 -16 -10
-35 -10 -19 0 -35 5 -35 10 0 6 -20 10 -44 10 l-45 0 -13 48 c-13 44 -16 47
-48 48 -19 1 -45 0 -57 -3z"/>
<path d="M468 513 c-20 -5 -32 -36 -23 -62 5 -17 -3 -19 -84 -25 -59 -5 -97
-4 -110 4 -13 6 -62 9 -123 8 l-103 -3 -3 -29 c-2 -15 -1 -39 2 -52 l6 -24
208 5 207 4 -1 -67 c0 -37 -4 -79 -8 -95 -5 -15 -5 -43 -2 -62 6 -29 12 -35
41 -41 18 -3 43 -3 55 1 19 6 21 12 16 45 -3 21 -3 78 0 127 l7 88 206 -2
c146 -1 208 2 213 10 10 16 10 69 -1 85 -4 8 -14 13 -22 12 -8 -1 -98 -2 -201
-1 l-188 1 0 30 c0 41 -35 58 -92 43z"/>
</g>
</svg>
