<?xml version="1.0" standalone="no"?>
<!DOCTYPE svg PUBLIC "-//W3C//DTD SVG 20010904//EN"
 "http://www.w3.org/TR/2001/REC-SVG-20010904/DTD/svg10.dtd">
<svg version="1.0" xmlns="http://www.w3.org/2000/svg"
 width="101.000000pt" height="101.000000pt" viewBox="0 0 101.000000 101.000000"
 preserveAspectRatio="xMidYMid meet">
<metadata>
Created by potrace 1.16, written by Peter Selinger 2001-2019
</metadata>
<g transform="translate(0.000000,101.000000) scale(0.100000,-0.100000)"
fill="#000000" stroke="none">
<path d="M630 999 c0 -7 -16 -45 -36 -86 l-35 -74 -57 5 c-31 3 -64 5 -72 6
-12 0 -11 3 3 11 26 15 21 31 -31 89 -51 56 -70 61 -116 27 -18 -13 -17 -17
28 -71 25 -31 46 -58 46 -59 0 -1 -42 -1 -94 0 l-93 2 1 -167 c1 -92 -2 -178
-7 -191 -4 -13 -5 -32 -2 -42 6 -18 16 -19 145 -14 l138 4 4 -39 3 -39 -70 -5
c-70 -6 -149 -3 -215 9 -82 15 -104 12 -114 -16 -5 -14 -6 -38 -2 -52 6 -25 9
-26 49 -21 84 11 134 13 244 7 l111 -6 -5 -41 c-2 -22 -4 -50 -4 -61 1 -11 2
-32 3 -47 1 -30 18 -37 67 -30 30 4 32 6 24 36 -7 28 -7 49 -2 122 1 15 8 22
23 23 11 0 54 3 95 6 41 3 120 1 175 -4 55 -6 102 -8 104 -7 2 2 4 22 5 45 1
28 -4 45 -13 51 -22 14 -72 12 -121 -5 -41 -15 -55 -15 -244 -4 -16 1 -20 8
-20 38 l0 36 137 0 c75 0 139 2 142 5 3 3 8 58 12 123 5 85 4 117 -5 117 -6 0
-11 15 -11 35 0 19 5 35 10 35 6 0 10 20 10 45 0 50 -18 67 -51 47 -24 -15
-76 -15 -85 -1 -3 6 -17 9 -30 6 -36 -6 -30 7 31 68 30 30 55 57 55 60 0 9
-52 27 -92 31 -25 3 -38 1 -38 -7z m-175 -279 l0 -45 -95 0 -95 0 0 45 0 45
95 0 95 0 0 -45z m281 -2 l0 -48 -95 3 -96 2 3 45 4 45 91 0 92 0 1 -47z
m-268 -155 l-3 -46 -100 2 c-55 1 -101 3 -102 4 -1 1 1 20 4 42 l5 40 100 2
99 3 -3 -47z m267 -3 l0 -50 -95 3 -95 2 3 42 c4 47 2 46 117 51 l70 2 0 -50z"/>
</g>
</svg>
