<?xml version="1.0" standalone="no"?>
<!DOCTYPE svg PUBLIC "-//W3C//DTD SVG 20010904//EN"
 "http://www.w3.org/TR/2001/REC-SVG-20010904/DTD/svg10.dtd">
<svg version="1.0" xmlns="http://www.w3.org/2000/svg"
 width="101.000000pt" height="102.000000pt" viewBox="0 0 101.000000 102.000000"
 preserveAspectRatio="xMidYMid meet">
<metadata>
Created by potrace 1.16, written by Peter Selinger 2001-2019
</metadata>
<g transform="translate(0.000000,102.000000) scale(0.100000,-0.100000)"
fill="#000000" stroke="none">
<path d="M415 1010 c-3 -5 -1 -10 4 -10 7 0 11 -23 11 -55 0 -30 -4 -55 -10
-55 -5 0 -10 -18 -10 -40 0 -22 5 -40 11 -40 6 0 9 -16 7 -37 l-3 -38 -110 3
c-60 1 -117 3 -125 4 -46 4 -47 2 -48 -96 -1 -54 2 -98 8 -101 12 -8 13 -52 1
-59 -12 -8 -13 -114 -1 -121 13 -8 13 -113 0 -194 -6 -35 -9 -65 -7 -68 3 -2
20 -6 39 -9 38 -7 71 16 62 41 -5 13 20 15 177 15 101 0 215 3 253 7 53 5 67
3 62 -6 -5 -7 -5 -23 -2 -36 6 -25 50 -41 84 -31 19 6 20 15 21 246 1 41 1 91
1 110 1 19 2 93 3 163 2 137 -4 154 -48 141 -11 -3 -48 -5 -82 -4 -38 1 -63
-3 -63 -9 0 -6 -11 -11 -25 -11 -14 0 -25 5 -25 10 0 6 -18 10 -40 10 -36 0
-40 3 -40 24 0 13 -2 30 -5 38 -4 10 17 12 109 10 72 -2 117 1 121 8 8 13 52
13 60 0 10 -16 92 -12 109 6 22 22 20 71 -3 83 -10 6 -21 7 -25 4 -3 -3 -35
-5 -70 -4 -35 1 -67 -2 -70 -8 -9 -13 -167 -13 -183 1 -7 6 -21 8 -30 6 -15
-4 -18 1 -17 31 1 20 5 43 8 52 5 12 1 18 -16 23 -35 9 -86 7 -93 -4z m-1
-349 c8 -12 114 -13 121 -1 7 11 99 13 166 4 l44 -6 -3 -55 c-1 -31 2 -61 9
-69 8 -10 9 -53 4 -151 l-7 -138 -55 0 -54 0 38 33 38 32 -73 71 -73 70 27 35
c15 19 43 48 62 64 l34 28 -42 31 c-24 17 -47 31 -51 31 -5 0 -16 -15 -25 -32
-31 -62 -63 -98 -82 -91 -9 4 -48 29 -85 57 l-68 49 -32 -31 c-17 -17 -29 -33
-26 -35 2 -2 39 -27 82 -57 42 -29 77 -55 77 -57 0 -11 -49 -46 -118 -84 l-73
-41 38 -34 38 -33 -42 -1 c-40 0 -42 2 -48 34 -4 19 -4 63 -1 98 4 34 8 110 9
168 l2 105 48 -4 c27 -1 54 2 60 8 13 13 54 15 61 2z m160 -348 c31 -37 54
-68 53 -70 -2 -1 -69 0 -150 4 l-146 6 67 47 c37 26 73 55 81 64 22 27 37 19
95 -51z"/>
</g>
</svg>
