<?xml version="1.0" standalone="no"?>
<!DOCTYPE svg PUBLIC "-//W3C//DTD SVG 20010904//EN"
 "http://www.w3.org/TR/2001/REC-SVG-20010904/DTD/svg10.dtd">
<svg version="1.0" xmlns="http://www.w3.org/2000/svg"
 width="101.000000pt" height="101.000000pt" viewBox="0 0 101.000000 101.000000"
 preserveAspectRatio="xMidYMid meet">
<metadata>
Created by potrace 1.16, written by Peter Selinger 2001-2019
</metadata>
<g transform="translate(0.000000,101.000000) scale(0.100000,-0.100000)"
fill="#000000" stroke="none">
<path d="M430 984 c-46 -20 -45 -19 -22 -52 11 -15 28 -47 38 -71 16 -40 16
-43 -2 -56 -22 -16 -180 -20 -189 -5 -3 5 -29 8 -58 8 -29 -1 -58 2 -65 6 -7
4 -26 5 -42 1 -23 -5 -31 -13 -36 -40 -10 -53 9 -75 61 -75 25 0 45 5 45 10 0
6 16 10 35 10 20 0 35 -5 35 -11 0 -9 26 -10 93 -6 l92 5 2 -81 c3 -127 3
-157 -2 -232 -2 -38 -1 -121 2 -183 6 -107 7 -113 29 -118 13 -4 36 -3 50 0
l26 7 -7 85 c-5 57 -3 89 4 98 7 8 10 53 9 120 -2 58 0 106 3 106 11 0 92 -61
157 -118 l64 -55 40 40 40 40 -62 52 c-34 28 -96 75 -137 103 -62 41 -80 49
-93 40 -16 -10 -17 -5 -16 41 l1 52 112 -3 c70 -2 114 1 118 8 8 13 52 13 60
0 7 -11 95 -13 111 -2 14 9 26 59 19 80 -4 15 -23 17 -149 17 -79 0 -148 -3
-152 -7 -11 -11 -52 -10 -59 2 -3 6 -27 10 -53 11 l-47 0 38 16 c20 8 37 19
37 24 0 21 -71 149 -83 149 -6 -1 -28 -8 -47 -16z"/>
</g>
</svg>
