<?xml version="1.0" standalone="no"?>
<!DOCTYPE svg PUBLIC "-//W3C//DTD SVG 20010904//EN"
 "http://www.w3.org/TR/2001/REC-SVG-20010904/DTD/svg10.dtd">
<svg version="1.0" xmlns="http://www.w3.org/2000/svg"
 width="101.000000pt" height="101.000000pt" viewBox="0 0 101.000000 101.000000"
 preserveAspectRatio="xMidYMid meet">
<metadata>
Created by potrace 1.16, written by Peter Selinger 2001-2019
</metadata>
<g transform="translate(0.000000,101.000000) scale(0.100000,-0.100000)"
fill="#000000" stroke="none">
<path d="M420 1000 c0 -5 5 -10 10 -10 6 0 10 -25 10 -55 0 -30 -4 -55 -10
-55 -5 0 -10 -18 -10 -40 0 -22 5 -40 11 -40 6 0 9 -17 7 -42 l-3 -43 -119 4
c-92 2 -120 0 -127 -10 -13 -20 -11 -107 2 -115 14 -8 6 -119 -10 -138 -7 -8
-11 -29 -10 -47 4 -84 -37 -174 -109 -240 -24 -23 -41 -44 -37 -47 3 -3 27
-14 53 -24 l47 -19 33 38 c52 60 110 191 115 262 2 23 5 24 87 27 47 2 112 3
145 3 232 0 220 2 216 -41 -2 -12 8 -19 33 -23 64 -12 101 19 76 65 -11 20 -7
221 6 266 6 23 -21 58 -37 48 -5 -3 -67 -6 -137 -7 l-127 -2 0 50 0 50 190 0
c115 0 193 4 197 10 4 6 8 24 8 42 0 34 -30 61 -52 47 -6 -4 -33 -6 -59 -5
-26 1 -50 -3 -53 -8 -9 -13 -167 -13 -183 1 -7 6 -21 8 -31 6 -15 -4 -18 1
-16 31 1 20 4 43 5 51 3 12 -9 16 -58 18 -39 2 -63 -1 -63 -8z m254 -366 c43
-6 46 -9 46 -35 0 -16 5 -29 11 -29 6 0 9 -16 7 -37 l-3 -38 -79 -9 c-59 -7
-81 -6 -84 2 -5 15 -142 17 -142 2 0 -6 -31 -10 -73 -10 l-73 0 1 73 0 73 99
-3 c55 -1 107 2 115 7 19 11 108 13 175 4z"/>
</g>
</svg>
