<?xml version="1.0" standalone="no"?>
<!DOCTYPE svg PUBLIC "-//W3C//DTD SVG 20010904//EN"
 "http://www.w3.org/TR/2001/REC-SVG-20010904/DTD/svg10.dtd">
<svg version="1.0" xmlns="http://www.w3.org/2000/svg"
 width="101.000000pt" height="101.000000pt" viewBox="0 0 101.000000 101.000000"
 preserveAspectRatio="xMidYMid meet">
<metadata>
Created by potrace 1.16, written by Peter Selinger 2001-2019
</metadata>
<g transform="translate(0.000000,101.000000) scale(0.100000,-0.100000)"
fill="#000000" stroke="none">
<path d="M530 1000 c0 -5 5 -10 10 -10 6 0 10 -25 10 -55 0 -30 -4 -55 -10
-55 -5 0 -10 -18 -10 -40 0 -22 5 -40 10 -40 6 0 10 -33 10 -80 0 -47 -4 -80
-10 -80 -6 0 -10 -30 -10 -70 0 -40 4 -70 10 -70 6 0 10 -11 10 -25 0 -14 -4
-25 -10 -25 -6 0 -10 -40 -10 -100 0 -67 4 -100 11 -100 11 0 8 -73 -6 -131
-8 -33 9 -41 69 -33 l44 6 0 84 c0 46 -3 86 -8 89 -12 7 -12 146 0 160 6 7 9
59 8 120 l-3 107 47 -53 c27 -30 72 -89 100 -131 29 -43 57 -77 61 -78 5 0 25
12 45 27 20 15 39 28 41 30 8 5 -68 111 -142 199 -101 120 -110 128 -136 115
-20 -11 -20 -9 -16 103 3 63 6 121 7 128 2 9 -14 14 -59 16 -39 2 -63 -1 -63
-8z"/>
<path d="M103 923 c-16 -6 -18 -123 -3 -123 6 0 10 -16 10 -35 0 -19 -4 -35
-10 -35 -6 0 -10 -30 -10 -70 0 -40 4 -70 10 -70 6 0 10 -11 10 -25 0 -14 -5
-25 -11 -25 -7 0 -10 -47 -7 -150 l3 -149 27 -6 c48 -11 65 1 72 51 3 25 3 50
0 55 -3 5 12 9 33 9 21 0 48 3 60 6 21 6 22 4 17 -37 -3 -28 -1 -45 8 -50 16
-11 69 -11 83 -1 14 10 18 189 5 197 -13 8 -13 52 0 60 13 8 13 142 1 150 -13
7 -13 173 -1 180 6 4 9 20 8 37 l-2 30 -97 -7 c-61 -4 -99 -3 -103 3 -6 10
-80 14 -103 5z m202 -287 l1 -191 -56 0 -57 0 -1 70 c-1 102 -1 141 1 230 l2
80 55 1 55 1 0 -191z"/>
</g>
</svg>
