<?xml version="1.0" standalone="no"?>
<!DOCTYPE svg PUBLIC "-//W3C//DTD SVG 20010904//EN"
 "http://www.w3.org/TR/2001/REC-SVG-20010904/DTD/svg10.dtd">
<svg version="1.0" xmlns="http://www.w3.org/2000/svg"
 width="101.000000pt" height="101.000000pt" viewBox="0 0 101.000000 101.000000"
 preserveAspectRatio="xMidYMid meet">
<metadata>
Created by potrace 1.16, written by Peter Selinger 2001-2019
</metadata>
<g transform="translate(0.000000,101.000000) scale(0.100000,-0.100000)"
fill="#000000" stroke="none">
<path d="M450 1004 c-12 -4 -14 -17 -12 -58 3 -36 -2 -64 -13 -86 -9 -17 -14
-37 -12 -43 3 -8 -16 -12 -63 -12 l-68 0 29 20 c16 11 29 25 29 30 0 6 -25 36
-55 68 l-55 58 -35 -27 c-19 -14 -35 -29 -35 -31 0 -3 20 -28 45 -55 25 -28
45 -55 45 -60 0 -6 -24 -7 -63 -3 -71 8 -97 -6 -97 -50 0 -28 27 -58 43 -48
16 10 257 10 257 0 0 -18 -30 -65 -45 -71 -26 -10 -143 -7 -150 4 -6 10 -107
12 -121 1 -5 -3 -9 -25 -10 -48 -1 -42 7 -51 41 -43 6 1 50 3 98 4 l89 1 -39
-34 c-44 -38 -177 -119 -210 -127 -29 -8 -29 -20 -1 -35 13 -6 35 -23 50 -37
l27 -25 64 52 c36 28 67 51 69 51 2 0 5 -8 6 -17 1 -10 4 -34 8 -53 3 -19 7
-69 9 -110 1 -41 3 -81 3 -88 2 -17 70 -45 85 -35 7 4 95 8 197 8 207 0 232 7
277 75 23 33 31 80 14 80 -4 0 -25 11 -46 25 -20 15 -39 25 -41 23 -1 -2 -5
-16 -8 -31 -2 -15 -8 -36 -11 -47 -7 -22 -40 -44 -54 -36 -5 3 -28 -1 -52 -9
-53 -19 -258 -10 -280 12 -4 4 -9 37 -9 73 -1 110 0 118 24 119 11 0 62 3 112
6 50 3 101 2 114 -3 l24 -9 -26 -26 c-22 -22 -35 -26 -72 -25 -25 1 -48 0 -51
-4 -4 -3 1 -20 9 -37 9 -16 16 -36 16 -44 0 -8 9 -17 19 -20 24 -6 128 27 152
49 21 19 51 107 43 127 -3 10 28 -1 82 -29 49 -24 93 -44 99 -43 5 0 27 22 47
49 l37 48 -27 10 c-15 6 -47 13 -72 16 -49 7 -129 43 -172 79 l-27 22 92 0
c51 0 102 -4 113 -8 31 -11 56 17 52 57 l-3 31 -129 9 c-97 7 -131 6 -134 -2
-5 -15 -152 -17 -152 -2 0 6 -14 10 -30 10 -30 0 -30 0 -17 32 l13 32 81 -2
c49 -2 84 1 88 8 8 12 52 13 59 1 3 -5 42 -9 86 -9 75 0 80 1 86 23 12 49 3
59 -61 68 -33 4 -77 6 -97 5 l-38 -4 50 51 c28 28 50 56 50 62 0 6 -17 21 -37
33 -35 20 -37 21 -46 3 -6 -10 -32 -40 -59 -68 -27 -27 -45 -51 -40 -53 5 -1
18 -9 28 -17 17 -13 11 -14 -53 -12 -39 1 -69 5 -67 8 2 4 6 33 9 65 3 33 13
69 20 81 20 30 20 29 -16 42 -32 11 -51 12 -79 5z m173 -483 c15 -22 27 -42
27 -45 0 -4 -29 -4 -65 0 -46 5 -65 3 -65 -5 0 -6 -16 -11 -35 -11 -19 0 -35
5 -35 10 0 6 -26 10 -57 10 l-57 0 33 34 c28 29 38 34 66 29 18 -3 41 0 51 6
11 6 39 10 64 10 41 1 47 -3 73 -38z"/>
</g>
</svg>
