<?xml version="1.0" standalone="no"?>
<!DOCTYPE svg PUBLIC "-//W3C//DTD SVG 20010904//EN"
 "http://www.w3.org/TR/2001/REC-SVG-20010904/DTD/svg10.dtd">
<svg version="1.0" xmlns="http://www.w3.org/2000/svg"
 width="101.000000pt" height="102.000000pt" viewBox="0 0 101.000000 102.000000"
 preserveAspectRatio="xMidYMid meet">
<metadata>
Created by potrace 1.16, written by Peter Selinger 2001-2019
</metadata>
<g transform="translate(0.000000,102.000000) scale(0.100000,-0.100000)"
fill="#000000" stroke="none">
<path d="M194 993 c-12 -50 -63 -154 -100 -204 -19 -27 -34 -50 -32 -50 1 -1
12 -3 23 -4 11 -2 32 -6 46 -9 22 -6 29 -2 55 41 29 46 32 48 75 48 l44 0 0
-60 0 -61 -122 1 -122 0 -6 -27 c-8 -35 11 -72 33 -63 9 3 62 7 117 8 l100 2
-3 -79 c-1 -47 2 -84 9 -92 7 -8 8 -35 4 -76 -5 -50 -11 -64 -23 -64 -10 0
-27 -4 -39 -8 -19 -6 -23 -3 -27 26 -6 32 -3 104 8 183 5 38 3 42 -24 52 -47
18 -79 3 -70 -32 12 -48 21 -174 15 -212 -6 -31 -7 -32 -50 -31 -24 1 -47 -1
-51 -5 -8 -8 15 -95 27 -103 5 -2 36 2 70 11 34 9 76 19 93 21 17 3 42 7 56 9
14 3 39 7 55 10 36 7 66 12 120 20 22 4 49 8 60 10 11 2 23 4 26 4 10 1 17 50
11 73 -5 20 -4 20 -88 4 -12 -3 -38 -9 -57 -14 -36 -10 -37 -10 -43 23 -3 18
-1 42 5 53 6 11 8 27 5 36 -5 13 5 14 65 11 77 -5 78 -3 72 59 -2 27 -6 29
-30 14 -16 -10 -27 -10 -52 -1 -17 7 -38 9 -46 6 -13 -5 -15 -2 -10 11 4 10 7
32 7 49 l0 32 85 0 c93 -1 103 6 89 59 -6 27 -43 44 -64 31 -7 -4 -36 -8 -65
-9 l-54 -1 2 60 2 60 45 -1 c25 0 52 -4 61 -8 26 -12 52 22 45 58 -4 16 -12
34 -19 38 -14 9 -51 11 -60 2 -5 -6 -207 -12 -207 -6 0 15 43 81 55 86 25 9 7
27 -21 20 -14 -4 -24 -2 -24 5 0 6 -16 11 -35 11 -30 0 -36 -4 -41 -27z"/>
<path d="M596 746 c4 -205 5 -297 1 -513 -2 -169 -4 -164 66 -155 38 4 39 5
32 36 -16 78 -17 97 -5 111 6 8 11 27 10 42 -5 74 10 81 27 13 11 -42 26 -46
95 -26 77 23 86 33 92 102 14 174 18 312 8 318 -13 8 -15 173 -2 181 5 3 9 21
8 41 -1 26 -5 33 -17 30 -41 -12 -182 -17 -194 -8 -6 6 -37 10 -68 10 l-56 -1
3 -181z m214 47 c0 -24 5 -43 10 -43 6 0 10 -11 10 -25 0 -14 -4 -25 -10 -25
-6 0 -10 -30 -10 -70 0 -40 4 -70 10 -70 6 0 10 -11 10 -25 0 -14 -5 -25 -11
-25 -9 0 -10 -21 -6 -74 7 -83 -3 -104 -45 -90 -32 11 -68 12 -68 1 0 -4 -4
-5 -10 -2 -13 8 -13 52 0 60 12 7 12 153 0 160 -12 8 -11 147 1 161 6 8 9 35
7 61 l-3 48 58 0 57 0 0 -42z"/>
</g>
</svg>
