<?xml version="1.0" standalone="no"?>
<!DOCTYPE svg PUBLIC "-//W3C//DTD SVG 20010904//EN"
 "http://www.w3.org/TR/2001/REC-SVG-20010904/DTD/svg10.dtd">
<svg version="1.0" xmlns="http://www.w3.org/2000/svg"
 width="101.000000pt" height="102.000000pt" viewBox="0 0 101.000000 102.000000"
 preserveAspectRatio="xMidYMid meet">
<metadata>
Created by potrace 1.16, written by Peter Selinger 2001-2019
</metadata>
<g transform="translate(0.000000,102.000000) scale(0.100000,-0.100000)"
fill="#000000" stroke="none">
<path d="M230 988 c-30 -15 -70 -30 -89 -33 -19 -3 -38 -8 -43 -11 -12 -7 -10
-94 2 -94 6 0 10 -16 10 -35 0 -19 -4 -35 -10 -35 -6 0 -10 -30 -10 -70 0 -40
4 -70 10 -70 6 0 10 -11 10 -25 0 -14 -5 -25 -11 -25 -7 0 -10 -21 -8 -57 2
-32 0 -64 -4 -70 -8 -12 20 -73 33 -73 3 0 28 16 55 34 28 19 51 33 53 31 1
-1 -7 -27 -18 -58 -24 -64 -91 -143 -144 -172 -20 -11 -36 -22 -36 -25 0 -3
18 -19 39 -37 l38 -32 50 44 c57 50 104 119 129 185 27 77 31 110 39 308 3 78
6 147 8 154 3 14 -67 33 -89 24 -14 -5 -15 -24 -9 -160 l7 -153 -29 -11 -30
-10 4 68 c2 40 -1 71 -7 75 -13 8 -13 52 1 60 6 4 9 38 7 86 -3 68 0 82 15 78
1 0 18 7 37 15 19 8 40 15 45 16 6 1 22 4 37 7 l28 5 -22 40 c-12 21 -27 42
-33 46 -5 4 -35 -5 -65 -20z"/>
<path d="M379 964 c-14 -4 -16 -24 -18 -129 -1 -75 3 -126 9 -130 13 -8 13
-52 -1 -61 -8 -4 -9 -54 -5 -165 4 -111 3 -165 -5 -177 -9 -14 -8 -25 5 -50 9
-18 20 -32 25 -32 4 0 43 20 87 45 l79 45 10 -29 c14 -41 20 -45 56 -32 27 9
34 8 45 -7 16 -20 18 -74 5 -119 -10 -36 2 -44 56 -36 30 5 31 7 32 52 0 25 0
55 1 66 0 11 -2 46 -6 78 -8 67 9 78 27 18 14 -48 38 -56 88 -33 36 17 36 17
42 97 5 64 13 531 10 583 -1 21 -250 13 -255 -8 -8 -29 -5 -89 4 -95 12 -8 12
-173 -1 -180 -12 -8 -12 -142 1 -150 13 -8 13 -52 -1 -60 -6 -4 -10 -30 -9
-59 2 -75 -1 -113 -7 -96 -4 8 -23 52 -44 97 l-38 82 -32 -9 c-43 -12 -42 -12
-24 -55 8 -21 14 -39 13 -40 -2 -2 -20 -10 -41 -19 l-38 -15 3 83 3 84 77 7
c42 4 81 5 85 2 5 -3 8 36 6 86 -3 115 -3 150 1 264 l4 91 -87 -1 c-47 0 -99
2 -116 6 -16 3 -37 3 -46 1z m156 -136 l0 -53 -43 0 c-43 -1 -44 0 -38 28 3
16 6 38 6 48 0 13 9 19 38 22 20 2 37 4 37 5 0 1 0 -22 0 -50z m287 -10 c-1
-31 2 -59 8 -63 14 -9 13 -152 -1 -161 -8 -5 -10 -40 -5 -120 4 -62 3 -115 -1
-117 -5 -3 -20 -3 -35 0 -25 5 -27 10 -33 72 -6 69 -7 166 -3 341 l3 106 35
-1 35 0 -3 -57z m-317 -128 c20 0 23 -6 26 -42 l4 -43 -40 0 -40 0 0 48 c0 35
3 46 13 42 8 -3 24 -5 37 -5z"/>
</g>
</svg>
