<?xml version="1.0" standalone="no"?>
<!DOCTYPE svg PUBLIC "-//W3C//DTD SVG 20010904//EN"
 "http://www.w3.org/TR/2001/REC-SVG-20010904/DTD/svg10.dtd">
<svg version="1.0" xmlns="http://www.w3.org/2000/svg"
 width="101.000000pt" height="101.000000pt" viewBox="0 0 101.000000 101.000000"
 preserveAspectRatio="xMidYMid meet">
<metadata>
Created by potrace 1.16, written by Peter Selinger 2001-2019
</metadata>
<g transform="translate(0.000000,101.000000) scale(0.100000,-0.100000)"
fill="#000000" stroke="none">
<path d="M102 955 c-1 -19 3 -37 8 -40 13 -8 11 -173 -1 -181 -7 -4 -10 -50
-8 -118 2 -103 -2 -171 -16 -256 -4 -28 -26 -80 -73 -172 -2 -5 1 -8 8 -8 6 0
30 -9 52 -20 23 -11 45 -17 49 -13 9 10 48 136 56 178 3 17 6 57 8 90 2 33 6
87 10 120 4 33 8 126 9 207 l1 148 43 0 c23 0 42 5 42 10 0 6 16 10 35 10 19
0 35 -4 35 -10 0 -6 30 -10 70 -10 40 0 70 4 70 10 0 6 11 10 25 10 14 0 25
-4 25 -10 0 -6 40 -10 100 -10 66 0 100 4 100 11 0 8 28 9 94 4 l93 -7 7 27
c15 59 12 60 -166 58 -291 -4 -361 -4 -519 1 l-156 5 -1 -34z"/>
<path d="M788 863 c-20 -5 -21 -11 -22 -103 l-1 -65 -52 -3 c-34 -2 -53 1 -53
8 0 19 -45 6 -48 -13 -6 -28 6 -65 20 -64 7 0 39 -1 71 -1 l57 -2 0 -55 c0
-30 5 -55 10 -55 6 0 10 -16 10 -35 0 -19 -4 -35 -10 -35 -14 0 -13 -77 1 -82
8 -3 9 -25 3 -78 l-9 -75 -43 1 c-29 1 -41 -2 -38 -10 3 -6 10 -30 16 -53 14
-50 33 -57 97 -34 l48 17 -3 103 c-1 68 2 109 9 118 9 10 9 17 1 25 -15 15
-16 75 -2 83 6 4 9 41 8 90 -3 83 -3 84 20 78 53 -13 88 15 76 62 -5 20 -12
24 -45 23 -22 0 -42 2 -44 4 -7 7 -8 70 -1 104 6 26 3 32 -19 42 -27 12 -29
13 -57 5z"/>
<path d="M238 829 c-22 -12 -24 -62 -3 -82 17 -18 113 -21 132 -5 9 7 48 9
117 5 l104 -7 6 26 c14 52 -17 84 -66 68 -27 -8 -224 -8 -253 0 -11 3 -28 1
-37 -5z"/>
<path d="M263 561 c2 -119 4 -130 21 -135 11 -3 27 -1 37 5 10 5 71 7 136 5
l118 -4 1 127 1 127 -158 2 -158 3 2 -130z m232 -5 l0 -54 -42 -7 c-24 -3 -51
-1 -62 4 -11 6 -26 9 -33 6 -11 -4 -14 5 -14 42 l1 48 40 6 c22 3 56 7 75 8
l35 1 0 -54z"/>
<path d="M650 554 c-8 -3 -20 -7 -27 -9 -9 -3 -8 -17 2 -56 8 -29 14 -55 13
-58 -1 -8 14 -71 17 -71 12 0 71 25 76 32 3 5 -4 44 -15 86 -21 76 -31 87 -66
76z"/>
<path d="M456 344 c-15 -63 -22 -77 -43 -85 -14 -5 -29 -7 -34 -4 -5 4 -25 -2
-45 -11 -29 -14 -42 -15 -65 -7 -33 13 -69 6 -69 -12 0 -7 7 -29 15 -49 15
-36 17 -37 58 -31 23 3 51 8 62 11 43 9 111 21 163 28 59 8 102 19 108 27 3 6
7 25 10 44 4 31 2 33 -18 29 -91 -18 -93 -16 -53 55 14 23 25 46 25 50 0 7
-67 31 -87 31 -5 0 -17 -34 -27 -76z"/>
<path d="M288 399 l-26 -10 26 -62 c14 -34 27 -64 28 -65 5 -7 74 20 74 28 0
4 -10 33 -21 64 -23 59 -31 63 -81 45z"/>
</g>
</svg>
