<?xml version="1.0" standalone="no"?>
<!DOCTYPE svg PUBLIC "-//W3C//DTD SVG 20010904//EN"
 "http://www.w3.org/TR/2001/REC-SVG-20010904/DTD/svg10.dtd">
<svg version="1.0" xmlns="http://www.w3.org/2000/svg"
 width="101.000000pt" height="101.000000pt" viewBox="0 0 101.000000 101.000000"
 preserveAspectRatio="xMidYMid meet">
<metadata>
Created by potrace 1.16, written by Peter Selinger 2001-2019
</metadata>
<g transform="translate(0.000000,101.000000) scale(0.100000,-0.100000)"
fill="#000000" stroke="none">
<path d="M228 973 c-19 -5 -21 -10 -18 -93 1 -30 6 -56 11 -58 13 -5 11 -72
-2 -72 -7 0 -10 -43 -7 -137 l3 -138 -47 -3 c-29 -2 -48 1 -48 7 0 15 -53 14
-68 -1 -14 -14 -16 -57 -4 -76 6 -9 45 -11 162 -8 l153 5 -49 -51 c-55 -56
-113 -93 -162 -103 -36 -7 -36 -10 -6 -82 14 -32 16 -34 57 -28 23 3 69 7 102
10 33 3 87 8 120 10 33 3 97 5 143 5 56 -1 82 3 82 11 0 8 15 10 47 6 38 -4
53 -12 75 -38 30 -35 38 -35 98 11 l25 19 -35 36 c-19 20 -70 68 -112 107 -81
73 -90 76 -137 39 l-23 -18 42 -39 c49 -47 51 -46 -98 -44 -55 0 -99 -4 -107
-10 -8 -7 -32 -8 -66 -4 l-52 7 24 19 c13 11 55 44 92 74 l68 56 229 1 c255 2
250 1 235 68 -5 23 -12 30 -28 28 -12 0 -46 -1 -75 0 l-53 1 7 110 c4 73 3
114 -4 122 -14 17 -14 168 -1 185 6 7 9 23 6 35 -7 25 1 25 -240 12 -67 -4
-112 -2 -120 4 -7 6 -35 10 -62 10 -28 0 -70 2 -95 5 -25 3 -53 3 -62 0z m369
-84 c6 -6 33 -9 60 -8 l48 4 0 -42 0 -41 -83 -7 c-55 -5 -87 -3 -96 4 -8 7
-52 10 -117 9 l-104 -3 0 40 0 40 111 -3 c71 -2 115 1 119 8 8 13 48 13 62 -1z
m-21 -160 c5 -4 37 -7 70 -6 l59 2 0 -43 0 -42 -87 5 c-55 4 -89 2 -93 -5 -8
-13 -52 -13 -60 1 -4 6 -37 9 -83 7 l-77 -3 4 38 3 37 48 0 c27 0 52 4 55 10
7 12 146 11 161 -1z m-102 -158 c8 -12 114 -13 121 -1 7 12 85 13 100 2 6 -4
11 -27 13 -50 l3 -44 -131 7 c-94 6 -130 4 -130 -4 0 -7 -26 -11 -73 -11 l-73
0 0 48 1 47 48 -4 c27 -1 54 2 60 8 13 13 54 15 61 2z"/>
</g>
</svg>
