<?xml version="1.0" standalone="no"?>
<!DOCTYPE svg PUBLIC "-//W3C//DTD SVG 20010904//EN"
 "http://www.w3.org/TR/2001/REC-SVG-20010904/DTD/svg10.dtd">
<svg version="1.0" xmlns="http://www.w3.org/2000/svg"
 width="101.000000pt" height="101.000000pt" viewBox="0 0 101.000000 101.000000"
 preserveAspectRatio="xMidYMid meet">
<metadata>
Created by potrace 1.16, written by Peter Selinger 2001-2019
</metadata>
<g transform="translate(0.000000,101.000000) scale(0.100000,-0.100000)"
fill="#000000" stroke="none">
<path d="M170 952 c-10 -5 -15 -23 -16 -54 l0 -47 69 3 c51 1 64 -1 48 -8 -11
-5 -21 -15 -21 -21 0 -39 110 -279 163 -356 l25 -37 -31 -30 c-68 -63 -189
-135 -301 -177 -54 -20 -85 -45 -57 -45 6 0 26 -14 44 -30 19 -17 41 -30 49
-30 33 0 298 170 344 221 16 18 19 17 71 -31 58 -53 209 -147 281 -176 43 -17
43 -17 60 7 9 13 27 35 40 48 13 13 20 27 15 31 -4 4 -46 20 -93 36 -83 28
-223 105 -266 145 l-22 21 39 51 c22 29 62 97 89 152 50 101 125 313 115 323
-3 3 -31 5 -63 4 -56 -1 -199 -3 -319 -3 -35 0 -91 0 -125 -1 -35 0 -76 2 -93
5 -16 4 -37 3 -45 -1z m407 -94 c7 -5 35 -8 63 -6 27 1 50 3 50 3 0 0 -9 -24
-20 -53 -28 -74 -85 -185 -128 -249 -42 -63 -42 -63 -102 48 -30 57 -100 234
-100 254 0 1 11 0 24 -2 13 -3 27 0 30 6 9 13 167 13 183 -1z"/>
</g>
</svg>
