<?xml version="1.0" standalone="no"?>
<!DOCTYPE svg PUBLIC "-//W3C//DTD SVG 20010904//EN"
 "http://www.w3.org/TR/2001/REC-SVG-20010904/DTD/svg10.dtd">
<svg version="1.0" xmlns="http://www.w3.org/2000/svg"
 width="101.000000pt" height="101.000000pt" viewBox="0 0 101.000000 101.000000"
 preserveAspectRatio="xMidYMid meet">
<metadata>
Created by potrace 1.16, written by Peter Selinger 2001-2019
</metadata>
<g transform="translate(0.000000,101.000000) scale(0.100000,-0.100000)"
fill="#000000" stroke="none">
<path d="M138 973 c-19 -5 -33 -53 -23 -82 7 -23 54 -36 87 -25 13 4 32 8 42
9 18 2 18 1 1 -11 -10 -7 -22 -15 -27 -16 -21 -7 100 -286 170 -394 l39 -61
-41 -25 c-67 -42 -176 -94 -259 -123 l-78 -28 24 -26 c14 -14 30 -36 36 -49 6
-12 18 -22 25 -22 21 0 235 111 304 158 l62 43 95 -60 c89 -55 206 -111 266
-126 24 -6 29 -1 58 49 17 31 31 58 31 61 0 3 -11 3 -25 -1 -14 -3 -25 -2 -25
3 0 9 -57 33 -79 33 -22 0 -157 57 -205 87 l-46 29 26 25 c45 42 110 150 153
252 22 53 38 97 36 97 -2 0 1 15 6 33 23 76 37 139 32 152 -3 11 -342 14 -358
3 -16 -10 -173 -9 -180 2 -3 5 -29 8 -58 8 -29 -1 -57 1 -62 3 -6 3 -18 4 -27
2z m485 -96 c69 1 77 -1 72 -16 -7 -16 -12 -36 -21 -79 -17 -82 -87 -227 -142
-292 l-30 -35 -21 25 c-47 57 -168 319 -154 334 3 3 1 11 -4 18 -30 39 -23 43
52 40 43 -3 81 1 92 7 10 6 31 8 48 5 17 -4 65 -7 108 -7z"/>
<path d="M463 807 c-17 -7 -35 -15 -38 -19 -4 -4 2 -31 12 -60 10 -29 19 -57
19 -63 0 -5 4 -22 8 -37 l8 -26 46 15 c26 9 48 17 50 18 10 9 -54 186 -67 184
-3 0 -20 -6 -38 -12z"/>
</g>
</svg>
