<?xml version="1.0" standalone="no"?>
<!DOCTYPE svg PUBLIC "-//W3C//DTD SVG 20010904//EN"
 "http://www.w3.org/TR/2001/REC-SVG-20010904/DTD/svg10.dtd">
<svg version="1.0" xmlns="http://www.w3.org/2000/svg"
 width="101.000000pt" height="101.000000pt" viewBox="0 0 101.000000 101.000000"
 preserveAspectRatio="xMidYMid meet">
<metadata>
Created by potrace 1.16, written by Peter Selinger 2001-2019
</metadata>
<g transform="translate(0.000000,101.000000) scale(0.100000,-0.100000)"
fill="#000000" stroke="none">
<path d="M760 978 c-14 -7 -45 -13 -70 -15 -25 -1 -65 -5 -90 -9 -25 -3 -80
-5 -123 -5 -43 1 -83 -1 -89 -5 -13 -8 -126 -7 -154 1 -14 4 -27 0 -38 -11
-15 -14 -16 -28 -11 -89 7 -72 7 -103 -1 -260 -5 -106 -12 -165 -20 -184 -4
-9 -8 -23 -9 -32 -4 -30 -45 -105 -81 -148 -20 -23 -35 -43 -33 -45 2 -2 24
-14 49 -26 l44 -23 26 32 c15 17 31 31 38 31 6 0 24 -17 41 -37 l30 -37 58 23
c32 13 100 45 151 72 l93 49 73 -40 c41 -22 109 -54 153 -69 l79 -29 38 50
c20 28 36 51 34 52 -9 6 -88 26 -118 30 -49 7 -164 50 -188 71 -2 2 12 25 31
52 52 73 92 149 131 247 20 49 36 91 36 93 0 2 -73 4 -162 3 -90 -1 -213 0
-273 2 -102 3 -110 5 -112 23 0 11 -3 36 -6 56 l-5 36 69 7 c38 3 111 8 161
11 116 7 203 13 248 17 19 3 54 5 78 6 54 3 55 21 3 73 -42 42 -44 43 -81 27z
m-153 -335 c51 -3 84 -11 87 -18 5 -14 -73 -177 -104 -215 l-20 -25 -24 30
c-25 30 -98 169 -111 213 -6 21 -3 22 42 22 26 0 85 -3 130 -7z m-239 -19
l-28 -14 25 -57 c29 -64 54 -107 102 -176 19 -27 33 -50 31 -52 -23 -21 -189
-88 -244 -99 -10 -3 -28 -8 -38 -12 -16 -6 -18 -4 -11 12 19 44 71 201 73 219
0 11 6 49 12 84 5 36 8 72 5 82 -5 14 1 19 27 22 70 8 75 7 46 -9z"/>
</g>
</svg>
