<?xml version="1.0" standalone="no"?>
<!DOCTYPE svg PUBLIC "-//W3C//DTD SVG 20010904//EN"
 "http://www.w3.org/TR/2001/REC-SVG-20010904/DTD/svg10.dtd">
<svg version="1.0" xmlns="http://www.w3.org/2000/svg"
 width="101.000000pt" height="101.000000pt" viewBox="0 0 101.000000 101.000000"
 preserveAspectRatio="xMidYMid meet">
<metadata>
Created by potrace 1.16, written by Peter Selinger 2001-2019
</metadata>
<g transform="translate(0.000000,101.000000) scale(0.100000,-0.100000)"
fill="#000000" stroke="none">
<path d="M232 915 c-2 -63 0 -95 7 -95 6 0 11 -11 11 -25 0 -14 -5 -25 -11
-25 -7 0 -9 -13 -4 -38 l6 -38 -55 3 c-31 1 -59 4 -63 6 -5 3 -18 1 -30 -4
-16 -6 -23 -16 -23 -36 0 -46 11 -54 66 -48 101 12 99 13 100 -20 1 -16 -1
-42 -3 -56 -5 -24 -8 -25 -56 -23 -29 1 -59 3 -67 5 -46 7 -63 -13 -53 -64 6
-29 37 -41 65 -26 11 6 37 8 58 4 36 -6 39 -9 35 -35 -10 -79 -60 -159 -128
-205 l-50 -34 34 -15 c19 -9 42 -21 52 -28 16 -11 24 -7 63 36 66 72 113 176
122 266 2 18 69 24 106 10 12 -4 28 -5 35 0 13 7 20 74 9 85 -5 6 -77 7 -118
3 -22 -3 -25 0 -22 27 1 17 3 40 3 53 1 16 6 22 15 18 8 -3 26 0 40 6 19 9 30
9 45 0 42 -26 67 -2 53 52 -7 31 -42 43 -88 29 -65 -19 -67 -16 -62 127 3 70
8 140 12 154 6 26 5 26 -47 26 l-54 0 -3 -95z"/>
<path d="M832 969 c-54 -21 -161 -37 -264 -39 -38 -1 -68 -6 -68 -11 0 -5 -18
-2 -40 7 -44 18 -70 13 -70 -11 0 -8 -14 -45 -30 -82 -17 -36 -30 -67 -30 -68
0 -4 61 -25 70 -25 4 0 21 31 38 69 17 38 36 72 42 76 10 6 13 -32 10 -127 -1
-25 4 -55 11 -66 11 -17 11 -36 1 -99 -7 -43 -14 -96 -17 -118 -10 -99 -67
-194 -150 -252 -30 -21 -54 -40 -54 -43 0 -6 88 -60 98 -60 14 0 96 93 123
140 43 74 73 176 82 278 5 49 13 49 26 1 6 -24 23 -81 39 -127 l28 -84 -24
-29 c-30 -35 -138 -114 -176 -128 -35 -14 -34 -24 6 -44 17 -9 39 -22 49 -29
14 -10 24 -5 65 27 26 21 68 58 93 82 l46 43 34 -36 c38 -39 113 -94 128 -94
5 0 28 18 50 40 l40 41 -66 34 c-37 18 -83 47 -102 63 l-34 29 26 59 c24 54
74 210 83 259 15 81 15 93 -1 99 -9 3 -21 3 -27 -1 -7 -5 -72 -8 -144 -8
l-133 0 3 52 c1 29 5 53 10 54 4 1 19 3 35 4 15 2 43 6 62 9 101 16 138 20
209 24 37 2 37 12 -2 69 -23 34 -36 38 -75 22z m-43 -318 c7 -5 11 -13 7 -19
-3 -5 -9 -27 -12 -48 -3 -22 -16 -70 -28 -109 l-22 -70 -22 75 c-12 41 -23 87
-26 103 -3 15 -8 37 -11 48 -6 17 -4 20 12 15 10 -3 25 -1 33 4 19 12 51 12
69 1z"/>
<path d="M103 919 l-31 -9 18 -48 c11 -26 22 -60 25 -75 7 -34 40 -49 73 -34
29 13 26 45 -8 126 -24 54 -26 55 -77 40z"/>
</g>
</svg>
