<?xml version="1.0" standalone="no"?>
<!DOCTYPE svg PUBLIC "-//W3C//DTD SVG 20010904//EN"
 "http://www.w3.org/TR/2001/REC-SVG-20010904/DTD/svg10.dtd">
<svg version="1.0" xmlns="http://www.w3.org/2000/svg"
 width="101.000000pt" height="101.000000pt" viewBox="0 0 101.000000 101.000000"
 preserveAspectRatio="xMidYMid meet">
<metadata>
Created by potrace 1.16, written by Peter Selinger 2001-2019
</metadata>
<g transform="translate(0.000000,101.000000) scale(0.100000,-0.100000)"
fill="#000000" stroke="none">
<path d="M219 974 c-15 -4 -17 -24 -15 -163 l1 -158 92 -2 c51 -1 102 4 116
10 28 13 90 3 68 -10 -7 -4 -23 -6 -37 -3 -24 4 -25 3 -22 -52 l4 -57 -37 6
c-22 4 -40 2 -44 -4 -8 -14 -52 -14 -60 -1 -3 6 -47 9 -100 8 l-94 -1 -6 -28
c-13 -58 -3 -66 85 -67 44 0 82 4 85 9 4 5 35 9 70 9 85 0 97 -18 56 -81 -39
-61 -77 -94 -141 -123 -60 -27 -110 -39 -152 -37 -39 2 -42 -13 -11 -46 16
-16 33 -37 38 -47 10 -17 14 -17 86 11 161 63 258 155 302 286 4 11 17 17 37
17 16 0 30 5 30 10 0 11 93 13 161 4 l45 -6 -2 -43 c-1 -24 -5 -48 -9 -54 -3
-6 -6 -24 -5 -39 5 -69 -5 -76 -112 -75 l-66 1 24 -52 c13 -28 24 -56 24 -62
0 -20 42 -24 74 -7 17 9 31 15 31 13 0 -2 16 2 36 9 77 25 101 83 92 223 -4
65 -2 98 5 98 14 0 23 28 16 53 -5 20 -12 22 -94 24 -50 1 -92 -2 -95 -7 -8
-13 -48 -13 -62 1 -6 6 -33 9 -60 8 l-50 -4 10 44 c7 34 6 45 -4 52 -15 10
-10 10 172 12 l117 1 -6 58 c-3 40 -1 58 7 58 6 0 11 17 11 40 0 22 -5 40 -11
40 -7 0 -10 21 -7 59 l3 60 -135 -1 c-74 0 -163 1 -197 1 -35 0 -91 0 -125 -1
-35 0 -76 2 -93 5 -16 3 -37 3 -46 1z m366 -85 c4 -5 35 -9 71 -9 61 0 64 -1
64 -24 0 -13 3 -44 6 -69 l6 -45 -64 5 c-43 4 -68 2 -72 -6 -9 -14 -53 -15
-61 -1 -4 7 -51 10 -123 9 l-117 -2 -3 33 c-2 18 2 44 9 56 6 12 9 29 7 36 -4
10 6 13 43 11 26 -2 50 1 54 7 7 12 173 12 180 -1z"/>
</g>
</svg>
