<?xml version="1.0" standalone="no"?>
<!DOCTYPE svg PUBLIC "-//W3C//DTD SVG 20010904//EN"
 "http://www.w3.org/TR/2001/REC-SVG-20010904/DTD/svg10.dtd">
<svg version="1.0" xmlns="http://www.w3.org/2000/svg"
 width="101.000000pt" height="102.000000pt" viewBox="0 0 101.000000 102.000000"
 preserveAspectRatio="xMidYMid meet">
<metadata>
Created by potrace 1.16, written by Peter Selinger 2001-2019
</metadata>
<g transform="translate(0.000000,102.000000) scale(0.100000,-0.100000)"
fill="#000000" stroke="none">
<path d="M401 966 c-72 -128 -207 -266 -274 -282 -25 -5 -28 -9 -23 -37 11
-70 31 -98 58 -81 14 9 213 21 376 23 51 0 102 6 113 12 11 5 43 12 72 15 50
4 53 3 84 -33 l31 -37 47 39 47 38 -133 133 -133 133 -29 -17 c-15 -9 -36 -25
-45 -35 -16 -17 -14 -21 28 -55 24 -20 56 -47 70 -60 l25 -23 -40 6 c-24 4
-53 1 -70 -6 -19 -8 -87 -13 -180 -14 l-150 -1 128 127 c70 70 133 129 140
132 24 9 -9 40 -61 58 l-51 17 -30 -52z"/>
<path d="M170 454 c0 -30 5 -54 10 -54 6 0 10 -11 10 -25 0 -14 -5 -25 -10
-25 -7 0 -9 -47 -7 -132 l4 -133 28 -3 c15 -2 39 -1 52 3 22 5 24 10 19 35 -5
28 -3 30 24 30 17 0 30 5 30 10 0 6 32 10 75 10 49 0 75 -4 75 -11 0 -9 34
-10 125 -5 l125 8 -6 -29 c-5 -28 -5 -28 48 -28 l53 0 1 201 2 202 -69 0 c-38
0 -71 -4 -75 -9 -7 -12 -51 -12 -59 1 -7 12 -153 12 -160 0 -7 -12 -153 -11
-160 0 -4 6 -35 10 -71 9 l-64 -2 0 -53z m324 -33 c8 -12 114 -13 121 -1 7 12
85 13 100 2 6 -4 10 -44 11 -88 l1 -81 -159 -7 c-112 -5 -163 -4 -172 4 -8 6
-39 9 -69 8 l-55 -3 1 80 2 80 77 -3 c46 -2 79 1 83 7 8 13 52 15 59 2z"/>
</g>
</svg>
