<?xml version="1.0" standalone="no"?>
<!DOCTYPE svg PUBLIC "-//W3C//DTD SVG 20010904//EN"
 "http://www.w3.org/TR/2001/REC-SVG-20010904/DTD/svg10.dtd">
<svg version="1.0" xmlns="http://www.w3.org/2000/svg"
 width="101.000000pt" height="101.000000pt" viewBox="0 0 101.000000 101.000000"
 preserveAspectRatio="xMidYMid meet">
<metadata>
Created by potrace 1.16, written by Peter Selinger 2001-2019
</metadata>
<g transform="translate(0.000000,101.000000) scale(0.100000,-0.100000)"
fill="#000000" stroke="none">
<path d="M668 993 c-23 -6 -32 -59 -24 -132 4 -33 9 -109 11 -171 3 -61 8
-117 12 -123 3 -5 7 -20 9 -31 7 -52 36 -140 66 -201 26 -53 121 -195 130
-195 4 0 23 10 41 23 19 12 43 27 53 33 17 10 13 18 -51 85 -92 97 -135 178
-149 277 -2 13 -8 28 -14 34 -8 8 -9 41 -5 100 4 63 3 88 -6 88 -13 0 -15 67
-2 72 4 2 10 33 13 70 5 61 4 67 -16 72 -23 6 -42 6 -68 -1z"/>
<path d="M488 967 c-2 -12 -6 -95 -11 -232 -1 -44 -6 -85 -10 -92 -4 -6 -7
-24 -6 -40 6 -117 -76 -277 -189 -367 l-61 -50 47 -32 47 -32 61 64 c97 101
173 268 188 414 1 14 6 41 9 60 4 19 9 76 12 125 6 114 11 143 25 160 9 11 7
16 -7 23 -28 14 -103 14 -105 -1z"/>
<path d="M73 932 c-14 -9 -17 -159 -3 -167 12 -7 12 -153 0 -160 -7 -5 -13
-122 -10 -205 3 -89 0 -86 65 -81 38 4 39 5 23 30 -10 16 -10 27 -1 52 7 17 9
38 6 46 -5 12 -2 15 10 10 10 -4 28 -2 41 5 14 6 35 8 48 5 20 -5 24 -13 26
-53 1 -26 4 -49 7 -52 3 -3 22 -5 42 -5 38 1 57 18 47 43 -17 43 -27 163 -16
193 7 20 11 91 10 183 l-2 152 -55 6 c-74 8 -224 7 -238 -2z m199 -151 c-2
-48 1 -82 7 -86 14 -8 14 -52 1 -60 -6 -4 -8 -25 -4 -53 l6 -47 -64 3 -64 4 3
63 c2 36 -1 66 -7 70 -13 8 -13 48 1 62 6 6 10 33 8 62 l-4 50 45 4 c25 2 52
4 60 5 12 2 14 -11 12 -77z"/>
</g>
</svg>
