<?xml version="1.0" standalone="no"?>
<!DOCTYPE svg PUBLIC "-//W3C//DTD SVG 20010904//EN"
 "http://www.w3.org/TR/2001/REC-SVG-20010904/DTD/svg10.dtd">
<svg version="1.0" xmlns="http://www.w3.org/2000/svg"
 width="101.000000pt" height="101.000000pt" viewBox="0 0 101.000000 101.000000"
 preserveAspectRatio="xMidYMid meet">
<metadata>
Created by potrace 1.16, written by Peter Selinger 2001-2019
</metadata>
<g transform="translate(0.000000,101.000000) scale(0.100000,-0.100000)"
fill="#000000" stroke="none">
<path d="M219 944 c-14 -4 -17 -23 -17 -132 0 -70 5 -141 11 -159 8 -23 8 -52
-1 -105 -6 -40 -9 -75 -6 -77 5 -6 4 -6 279 -2 110 2 221 0 246 -4 59 -9 79 9
79 71 0 24 -4 44 -10 44 -6 0 -10 33 -10 80 0 47 4 80 10 80 6 0 10 18 10 40
0 22 -5 40 -11 40 -7 0 -10 21 -7 59 l3 59 -125 0 c-69 0 -153 1 -187 1 -35 0
-91 0 -125 -1 -35 0 -76 2 -93 5 -16 3 -37 3 -46 1z m366 -95 c4 -5 31 -9 61
-9 l54 0 0 -40 c0 -22 5 -40 10 -40 6 0 10 -16 10 -35 0 -19 -5 -35 -11 -35
-7 0 -10 -22 -7 -62 l3 -63 -48 4 c-27 1 -54 -2 -60 -8 -14 -14 -54 -14 -62
-1 -4 7 -49 10 -120 8 l-113 -3 -6 50 c-9 89 -7 167 5 181 6 8 9 22 7 32 -4
15 1 17 43 15 26 -2 50 1 54 7 7 12 173 12 180 -1z"/>
<path d="M330 421 c0 -23 -153 -169 -214 -205 -36 -21 -66 -41 -66 -45 0 -3
18 -21 40 -39 27 -22 45 -30 54 -25 8 4 70 58 138 119 68 61 133 116 146 123
33 17 28 28 -28 56 -53 27 -70 31 -70 16z"/>
<path d="M608 395 c-16 -13 -28 -26 -28 -28 0 -2 36 -32 80 -66 44 -35 107
-92 140 -127 32 -35 63 -64 67 -64 4 1 25 16 47 34 l39 33 -104 89 c-142 122
-185 154 -200 154 -8 0 -26 -12 -41 -25z"/>
</g>
</svg>
