<?xml version="1.0" standalone="no"?>
<!DOCTYPE svg PUBLIC "-//W3C//DTD SVG 20010904//EN"
 "http://www.w3.org/TR/2001/REC-SVG-20010904/DTD/svg10.dtd">
<svg version="1.0" xmlns="http://www.w3.org/2000/svg"
 width="101.000000pt" height="101.000000pt" viewBox="0 0 101.000000 101.000000"
 preserveAspectRatio="xMidYMid meet">
<metadata>
Created by potrace 1.16, written by Peter Selinger 2001-2019
</metadata>
<g transform="translate(0.000000,101.000000) scale(0.100000,-0.100000)"
fill="#000000" stroke="none">
<path d="M546 943 c-10 -32 -29 -78 -41 -103 -33 -65 -114 -172 -125 -165 -13
8 -13 92 0 100 6 4 10 18 9 33 -1 15 -1 32 1 37 7 29 -1 33 -60 28 -41 -4 -60
-2 -60 6 0 6 -17 11 -40 11 -22 0 -40 -5 -40 -11 0 -7 -21 -10 -60 -7 -60 3
-60 3 -65 -27 -3 -16 -3 -77 1 -135 5 -98 5 -157 1 -398 -1 -99 4 -112 50
-112 41 0 55 27 51 97 l-3 64 65 -3 65 -3 -2 -42 c-2 -39 0 -42 27 -48 51 -11
93 16 73 48 -12 19 -10 306 2 300 6 -4 17 -12 27 -20 17 -15 30 -1 115 121 19
28 25 30 76 27 31 -1 58 2 62 8 8 13 145 13 161 0 7 -5 30 -7 53 -3 44 7 57
27 47 68 -5 22 -11 23 -86 25 -50 1 -80 -2 -80 -9 0 -5 -16 -10 -35 -10 -19 0
-35 5 -35 10 0 6 -20 10 -45 10 l-45 0 24 49 c14 27 32 51 41 55 26 10 9 23
-49 40 -30 9 -56 16 -58 16 -2 0 -12 -26 -22 -57z m-254 -258 c-1 -62 2 -108
9 -122 12 -21 7 -112 -6 -133 -8 -13 -75 -13 -75 0 0 6 -12 10 -27 10 l-28 0
0 172 0 173 65 0 65 0 -3 -100z"/>
<path d="M480 619 c-17 -31 -3 -78 25 -85 13 -3 29 -3 35 1 6 4 41 9 76 11
l65 3 -75 -80 c-50 -53 -87 -105 -111 -152 -47 -97 -52 -126 -25 -159 27 -36
76 -49 210 -60 44 -3 159 15 190 30 35 17 61 58 74 115 4 19 2 27 -6 27 -8 0
-31 12 -52 26 -42 29 -60 21 -53 -24 6 -32 -22 -62 -63 -68 -43 -7 -134 -6
-176 2 -28 5 -30 9 -25 33 19 88 176 282 239 295 22 5 34 15 38 31 11 46 -2
62 -59 69 -79 9 -157 7 -157 -4 0 -5 -11 -10 -25 -10 -14 0 -25 5 -25 10 0 6
-20 10 -45 10 -34 0 -47 -5 -55 -21z"/>
</g>
</svg>
