<?xml version="1.0" standalone="no"?>
<!DOCTYPE svg PUBLIC "-//W3C//DTD SVG 20010904//EN"
 "http://www.w3.org/TR/2001/REC-SVG-20010904/DTD/svg10.dtd">
<svg version="1.0" xmlns="http://www.w3.org/2000/svg"
 width="101.000000pt" height="101.000000pt" viewBox="0 0 101.000000 101.000000"
 preserveAspectRatio="xMidYMid meet">
<metadata>
Created by potrace 1.16, written by Peter Selinger 2001-2019
</metadata>
<g transform="translate(0.000000,101.000000) scale(0.100000,-0.100000)"
fill="#000000" stroke="none">
<path d="M129 974 c-18 -5 -25 -79 -9 -89 12 -8 11 -173 -1 -180 -12 -8 -12
-142 1 -150 13 -8 13 -52 0 -60 -13 -8 -12 -213 1 -221 8 -4 9 -34 4 -89 l-7
-83 31 -7 c58 -13 69 -2 64 63 -2 31 -4 95 -4 142 1 47 1 140 1 208 1 183 1
190 3 280 l2 82 43 0 c23 0 42 5 42 10 0 6 16 10 35 10 19 0 35 -4 35 -10 0
-6 30 -10 70 -10 40 0 70 4 70 10 0 6 11 10 25 10 14 0 25 -5 25 -11 0 -8 35
-10 118 -7 l117 4 -3 -112 c-2 -71 1 -115 8 -119 13 -8 13 -52 0 -60 -13 -8
-12 -206 2 -222 15 -18 2 -135 -16 -148 -12 -10 -63 -12 -91 -5 -5 1 -18 2
-28 1 -17 -1 -17 -2 2 -26 11 -14 23 -40 26 -56 11 -48 40 -55 107 -25 76 34
90 61 83 158 -9 106 -2 506 10 623 8 81 8 81 -97 76 -132 -7 -500 1 -604 12
-27 3 -56 3 -65 1z"/>
<path d="M267 789 c-21 -13 -22 -62 -1 -83 17 -18 109 -22 119 -6 8 12 52 13
59 1 8 -13 108 -12 123 1 8 6 46 9 97 6 79 -4 85 -3 90 16 9 33 7 43 -10 60
-11 12 -20 13 -34 6 -20 -11 -58 -12 -270 -7 -75 2 -140 6 -146 9 -5 4 -17 2
-27 -3z"/>
<path d="M310 568 c0 -26 5 -48 10 -48 14 0 13 -127 -2 -167 -10 -28 -10 -36
2 -43 15 -9 331 -13 355 -4 11 5 12 11 5 24 -13 24 -13 137 0 145 5 3 9 37 8
76 -1 66 -2 69 -22 62 -12 -5 -41 -7 -66 -6 -25 2 -100 4 -167 6 l-123 4 0
-49z m250 -34 l35 -6 0 -66 0 -67 -92 3 -91 3 -4 70 -3 69 60 0 c33 0 76 -3
95 -6z"/>
</g>
</svg>
