<?xml version="1.0" standalone="no"?>
<!DOCTYPE svg PUBLIC "-//W3C//DTD SVG 20010904//EN"
 "http://www.w3.org/TR/2001/REC-SVG-20010904/DTD/svg10.dtd">
<svg version="1.0" xmlns="http://www.w3.org/2000/svg"
 width="101.000000pt" height="101.000000pt" viewBox="0 0 101.000000 101.000000"
 preserveAspectRatio="xMidYMid meet">
<metadata>
Created by potrace 1.16, written by Peter Selinger 2001-2019
</metadata>
<g transform="translate(0.000000,101.000000) scale(0.100000,-0.100000)"
fill="#000000" stroke="none">
<path d="M790 993 c-8 -2 -22 -7 -30 -11 -8 -3 -35 -7 -60 -8 -25 -2 -63 -6
-85 -9 -64 -9 -135 -14 -207 -14 -41 0 -68 -4 -68 -10 0 -6 -16 -11 -35 -11
-19 0 -35 5 -35 10 0 6 -20 10 -45 10 -32 0 -47 -5 -54 -18 -13 -24 -14 -229
-1 -237 13 -8 13 -52 0 -60 -6 -4 -11 -30 -10 -58 1 -62 -8 -156 -16 -168 -3
-5 -8 -21 -10 -35 -7 -39 -50 -119 -85 -159 -35 -40 -35 -42 3 -49 14 -2 35
-9 46 -15 12 -6 25 -11 30 -11 12 0 65 109 92 190 21 64 27 86 35 145 2 17 8
59 13 95 5 36 8 70 6 75 -3 6 16 9 47 6 29 -2 56 2 62 8 13 13 54 15 61 2 8
-12 114 -13 121 -1 8 14 131 12 180 -2 39 -11 190 -16 200 -6 15 15 16 66 0
81 -21 22 -82 22 -124 1 -22 -11 -43 -14 -64 -9 -18 4 -63 7 -102 6 -38 -1
-86 -1 -105 -1 -19 1 -91 2 -160 3 l-125 2 0 60 0 60 55 1 c30 0 118 4 195 7
77 4 163 6 190 6 28 0 80 3 118 6 80 8 84 18 31 81 -36 45 -38 46 -64 37z"/>
<path d="M778 545 c-2 -3 -109 -6 -236 -7 l-232 -1 -6 -33 c-3 -18 -3 -59 1
-91 8 -78 8 -150 0 -196 -10 -51 1 -104 23 -109 10 -3 32 -3 50 0 29 4 31 7
27 37 -3 28 -1 33 18 34 12 1 45 3 72 6 28 2 98 1 156 -2 l106 -5 0 -29 c0
-16 3 -32 7 -36 8 -9 86 -7 95 2 3 4 7 99 8 213 2 154 -1 208 -10 214 -13 9
-71 11 -79 3z m-23 -184 l0 -99 -105 -5 c-58 -3 -127 -4 -155 -2 -27 3 -61 5
-74 6 -23 1 -23 3 -17 61 3 34 6 77 6 97 l0 36 173 2 172 2 0 -98z"/>
</g>
</svg>
