<?xml version="1.0" standalone="no"?>
<!DOCTYPE svg PUBLIC "-//W3C//DTD SVG 20010904//EN"
 "http://www.w3.org/TR/2001/REC-SVG-20010904/DTD/svg10.dtd">
<svg version="1.0" xmlns="http://www.w3.org/2000/svg"
 width="101.000000pt" height="101.000000pt" viewBox="0 0 101.000000 101.000000"
 preserveAspectRatio="xMidYMid meet">
<metadata>
Created by potrace 1.16, written by Peter Selinger 2001-2019
</metadata>
<g transform="translate(0.000000,101.000000) scale(0.100000,-0.100000)"
fill="#000000" stroke="none">
<path d="M648 1003 c-15 -4 -16 -21 -15 -152 l2 -147 -95 1 -95 0 -3 -32 c-5
-49 14 -76 46 -69 15 3 57 8 95 11 l67 5 0 -75 c0 -49 -4 -75 -11 -75 -9 0
-10 -34 -5 -124 l7 -123 -61 -6 c-34 -4 -67 -4 -73 0 -5 3 -32 8 -58 10 -45 3
-49 2 -55 -22 -3 -14 -3 -36 0 -50 6 -24 9 -25 54 -19 26 3 90 6 142 6 52 -1
123 -1 158 -1 34 -1 79 0 100 1 20 0 53 -2 73 -7 35 -7 37 -6 41 26 11 74 -13
89 -96 63 -44 -14 -61 -15 -81 -6 -13 6 -31 9 -39 6 -13 -5 -14 20 -9 188 3
106 7 195 9 197 2 2 42 3 89 3 82 0 85 1 91 24 3 13 3 35 0 49 -6 24 -8 24
-100 22 l-95 -2 -5 29 c-9 44 -7 94 4 101 5 3 9 27 8 53 -1 26 3 57 10 69 17
30 15 35 -8 28 -12 -4 -26 0 -36 9 -15 16 -25 17 -56 9z"/>
<path d="M76 854 c-3 -9 -3 -20 0 -26 6 -10 13 -133 13 -223 -1 -192 -5 -315
-11 -321 -11 -10 -10 -76 2 -94 9 -14 85 -18 98 -5 3 3 6 35 6 73 l1 67 62 0
c61 0 61 0 56 -26 -6 -33 19 -59 57 -59 32 0 64 26 53 42 -3 6 -5 67 -5 134 1
73 -2 125 -8 129 -13 8 -13 52 0 60 6 4 10 58 9 134 l-2 128 -68 2 c-42 1 -69
-2 -69 -9 0 -5 -16 -10 -35 -10 -19 0 -35 5 -35 10 0 6 -26 10 -59 10 -45 0
-60 -4 -65 -16z m226 -125 c-2 -27 1 -55 7 -63 13 -15 13 -154 0 -162 -5 -3
-7 -27 -3 -55 l7 -49 -64 6 c-35 4 -65 8 -66 9 -2 1 -6 29 -9 63 -5 41 -3 66
5 75 7 10 10 51 9 118 l-3 104 60 2 60 2 -3 -50z"/>
</g>
</svg>
