<?xml version="1.0" standalone="no"?>
<!DOCTYPE svg PUBLIC "-//W3C//DTD SVG 20010904//EN"
 "http://www.w3.org/TR/2001/REC-SVG-20010904/DTD/svg10.dtd">
<svg version="1.0" xmlns="http://www.w3.org/2000/svg"
 width="101.000000pt" height="101.000000pt" viewBox="0 0 101.000000 101.000000"
 preserveAspectRatio="xMidYMid meet">
<metadata>
Created by potrace 1.16, written by Peter Selinger 2001-2019
</metadata>
<g transform="translate(0.000000,101.000000) scale(0.100000,-0.100000)"
fill="#000000" stroke="none">
<path d="M805 978 c-12 -38 -82 -174 -125 -242 -32 -50 -45 -63 -60 -59 -15 4
-20 -2 -25 -30 -4 -20 -4 -62 -1 -94 4 -32 6 -74 5 -93 -6 -234 -3 -360 9
-365 7 -2 33 -2 58 2 l45 6 -8 46 c-4 25 -7 71 -5 101 1 30 4 127 6 216 l3
161 92 135 c51 75 101 144 112 154 10 9 19 21 19 25 0 9 -93 59 -109 59 -5 0
-13 -10 -16 -22z"/>
<path d="M463 977 c-17 -7 -35 -15 -38 -19 -4 -4 7 -27 25 -52 17 -26 47 -80
67 -122 20 -41 41 -73 47 -71 6 2 28 10 49 18 27 9 36 18 32 29 -18 46 -129
230 -138 229 -7 0 -26 -6 -44 -12z"/>
<path d="M96 782 c6 -174 5 -300 -1 -439 l-4 -102 29 -6 c59 -13 80 9 80 82 0
31 1 31 54 35 54 3 54 3 49 -23 -6 -33 19 -59 57 -59 40 0 64 26 54 59 -4 14
-6 63 -5 108 1 48 -2 84 -8 88 -14 8 -14 52 0 61 8 4 10 54 6 165 -4 115 -2
159 6 162 7 2 9 7 5 11 -3 4 -33 2 -66 -4 -33 -7 -80 -9 -104 -6 -23 4 -69 8
-100 11 l-56 4 4 -147z m204 11 c0 -24 5 -43 10 -43 6 0 10 -16 10 -35 0 -20
-5 -35 -11 -35 -9 0 -10 -32 -5 -117 l7 -118 -58 0 -58 0 4 73 c2 41 -1 78 -7
85 -14 16 -14 167 0 184 5 7 8 21 6 30 -4 16 3 18 49 18 l53 0 0 -42z"/>
</g>
</svg>
