<?xml version="1.0" standalone="no"?>
<!DOCTYPE svg PUBLIC "-//W3C//DTD SVG 20010904//EN"
 "http://www.w3.org/TR/2001/REC-SVG-20010904/DTD/svg10.dtd">
<svg version="1.0" xmlns="http://www.w3.org/2000/svg"
 width="101.000000pt" height="101.000000pt" viewBox="0 0 101.000000 101.000000"
 preserveAspectRatio="xMidYMid meet">
<metadata>
Created by potrace 1.16, written by Peter Selinger 2001-2019
</metadata>
<g transform="translate(0.000000,101.000000) scale(0.100000,-0.100000)"
fill="#000000" stroke="none">
<path d="M180 972 c-10 -4 -15 -22 -16 -49 l-1 -43 84 4 c85 4 91 1 83 -39 -1
-5 -2 -17 -3 -26 -1 -14 -12 -16 -82 -12 -44 2 -92 6 -107 9 -66 14 -101 -21
-78 -80 9 -24 14 -27 38 -22 15 3 71 8 124 10 l98 5 -6 -37 c-3 -20 -8 -40 -9
-43 -4 -5 -28 -3 -95 7 -54 9 -90 -9 -90 -45 0 -42 26 -64 64 -57 46 9 86 13
86 9 0 -3 -13 -23 -29 -46 -35 -51 -122 -135 -174 -169 l-37 -25 35 -24 c19
-13 35 -27 35 -31 0 -23 35 1 107 73 70 70 81 78 82 57 6 -92 5 -227 -2 -244
-9 -26 9 -33 65 -26 36 4 37 6 33 37 -3 28 -1 33 18 34 12 1 45 3 72 6 28 2
98 1 157 -2 l107 -5 -4 -33 c-5 -38 7 -44 69 -37 l38 4 -8 37 c-9 42 -9 192 0
269 7 53 6 53 -16 45 -13 -4 -44 -7 -70 -6 -27 1 -76 2 -110 2 -137 0 -264 0
-285 2 l-22 1 19 38 c13 26 27 38 42 39 22 2 128 2 322 1 49 0 91 2 94 5 3 2
6 43 6 90 l1 85 47 0 c26 0 50 -4 53 -10 11 -17 43 -11 50 10 4 11 4 33 0 48
-5 26 -9 27 -72 30 -37 1 -68 3 -69 5 -2 1 -4 35 -6 75 l-2 72 -156 -1 c-85 0
-183 -1 -217 0 -35 0 -91 0 -125 -1 -35 0 -76 2 -93 5 -16 4 -37 3 -45 -1z
m485 -78 l50 -6 0 -43 0 -43 -146 2 -146 1 4 25 c3 14 5 32 6 41 1 10 9 14 23
11 12 -2 25 1 29 7 7 12 91 14 180 5z m41 -167 c1 -1 4 -22 5 -47 l4 -45 -69
-3 c-48 -2 -72 1 -78 10 -8 10 -11 10 -15 1 -6 -15 -73 -18 -73 -3 0 6 -15 10
-34 10 -36 0 -48 15 -39 49 4 15 13 21 34 21 16 0 29 5 29 12 0 8 31 9 117 4
64 -3 118 -7 119 -9z m-5 -326 c31 -1 37 -5 38 -23 0 -13 2 -39 3 -58 l3 -35
-85 -7 c-47 -4 -119 -5 -160 -3 -133 8 -125 6 -122 45 1 19 3 45 3 58 1 16 6
21 18 18 9 -3 23 -1 31 4 8 5 65 8 125 6 61 -2 126 -5 146 -5z"/>
</g>
</svg>
