<?xml version="1.0" standalone="no"?>
<!DOCTYPE svg PUBLIC "-//W3C//DTD SVG 20010904//EN"
 "http://www.w3.org/TR/2001/REC-SVG-20010904/DTD/svg10.dtd">
<svg version="1.0" xmlns="http://www.w3.org/2000/svg"
 width="101.000000pt" height="101.000000pt" viewBox="0 0 101.000000 101.000000"
 preserveAspectRatio="xMidYMid meet">
<metadata>
Created by potrace 1.16, written by Peter Selinger 2001-2019
</metadata>
<g transform="translate(0.000000,101.000000) scale(0.100000,-0.100000)"
fill="#000000" stroke="none">
<path d="M598 951 c3 -40 0 -61 -7 -61 -6 0 -11 -18 -11 -40 0 -22 5 -40 11
-40 6 0 9 -12 7 -27 -3 -28 -3 -28 -83 -28 -110 -1 -112 -2 -119 -31 -14 -53
-4 -59 89 -59 80 0 92 -4 85 -30 -2 -5 -5 -27 -6 -48 -12 -154 -112 -316 -241
-389 -30 -17 -53 -32 -51 -33 2 -2 24 -19 51 -39 l47 -36 73 69 c78 74 137
165 164 249 9 28 21 52 25 52 5 0 7 -4 4 -9 -7 -11 36 -120 70 -179 25 -43
148 -172 162 -172 4 1 29 21 55 45 l48 44 -48 25 c-90 45 -197 191 -207 283
-2 15 -5 28 -6 28 -10 0 -15 124 -5 133 7 7 92 5 156 -3 62 -8 89 7 89 50 0
44 -9 54 -45 48 -19 -3 -47 -2 -62 2 l-28 7 38 19 37 19 -35 70 c-19 39 -39
70 -44 70 -19 0 -81 -31 -81 -40 0 -6 7 -21 15 -33 8 -12 21 -41 29 -65 15
-41 15 -42 -7 -43 -12 0 -36 -1 -54 -2 l-32 -2 6 70 c3 39 7 85 8 103 2 18 8
39 14 46 14 17 -5 26 -69 33 l-45 4 3 -60z"/>
<path d="M85 897 c-11 -9 -15 -19 -10 -27 7 -12 11 -120 17 -445 1 -55 -3
-115 -10 -133 -19 -54 1 -74 64 -65 30 5 30 5 29 71 l0 67 51 0 52 0 -3 -42
c-3 -46 6 -53 65 -46 l35 5 -2 171 c-1 95 -2 188 -2 207 0 19 1 81 3 137 l4
102 -113 -6 c-76 -3 -115 -1 -119 6 -10 15 -38 14 -61 -2z m185 -138 c0 -21 5
-39 10 -39 6 0 10 -11 10 -25 0 -14 -5 -25 -12 -25 -8 0 -9 -30 -4 -111 l7
-111 -23 6 c-13 3 -38 6 -56 6 -32 0 -33 1 -27 34 4 19 2 36 -3 40 -14 8 -14
146 -1 162 6 8 9 35 7 61 l-3 48 48 -3 47 -4 0 -39z"/>
</g>
</svg>
