<?xml version="1.0" standalone="no"?>
<!DOCTYPE svg PUBLIC "-//W3C//DTD SVG 20010904//EN"
 "http://www.w3.org/TR/2001/REC-SVG-20010904/DTD/svg10.dtd">
<svg version="1.0" xmlns="http://www.w3.org/2000/svg"
 width="101.000000pt" height="101.000000pt" viewBox="0 0 101.000000 101.000000"
 preserveAspectRatio="xMidYMid meet">
<metadata>
Created by potrace 1.16, written by Peter Selinger 2001-2019
</metadata>
<g transform="translate(0.000000,101.000000) scale(0.100000,-0.100000)"
fill="#000000" stroke="none">
<path d="M583 979 c-18 -12 -33 -23 -33 -24 0 -2 21 -32 48 -67 26 -35 56 -80
67 -101 11 -20 23 -37 27 -37 14 0 78 42 78 52 0 23 -131 198 -148 198 -4 0
-22 -10 -39 -21z"/>
<path d="M98 884 c-24 -7 -29 -51 -22 -174 7 -138 7 -283 -1 -343 -11 -73 2
-154 25 -160 51 -13 90 19 58 51 -9 9 -9 18 0 37 6 13 9 31 6 39 -4 9 2 14 18
14 13 1 34 2 48 4 24 3 25 1 24 -54 -1 -61 8 -71 60 -61 26 5 33 26 28 86 -2
21 -1 21 45 2 35 -15 49 -11 54 15 0 3 2 14 4 25 8 37 50 225 59 260 16 64 18
85 7 86 -15 2 -23 4 -50 13 -34 12 -41 0 -56 -94 -1 -8 -6 -23 -10 -32 -4 -10
-5 -23 -2 -30 2 -7 0 -26 -5 -43 -5 -16 -12 -43 -14 -58 -3 -15 -12 -45 -20
-65 -13 -34 -13 -26 -8 94 4 88 3 133 -4 138 -14 8 -14 166 0 183 5 7 8 23 5
35 -6 21 -12 23 -79 24 -40 0 -91 3 -113 7 -22 3 -48 3 -57 1z m159 -272 l3
-187 -48 0 -47 0 -2 60 c-2 72 -2 113 0 222 l2 82 45 4 c25 2 45 4 45 5 0 1 1
-82 2 -186z"/>
<path d="M560 783 c-8 -3 -18 -11 -22 -17 -11 -16 -9 -214 2 -221 13 -8 11
-153 -1 -161 -10 -6 -4 -218 7 -247 11 -31 85 -45 177 -35 71 9 93 28 115 100
l19 62 -33 12 c-19 6 -40 17 -48 23 -11 9 -16 5 -25 -20 -6 -18 -9 -34 -6 -37
2 -2 -2 -17 -11 -33 -13 -25 -19 -28 -54 -26 -22 1 -45 8 -51 14 -16 16 -25
189 -11 206 13 15 14 115 1 123 -12 7 -11 51 1 59 6 4 11 32 10 63 0 32 2 72
5 91 7 46 -24 63 -75 44z"/>
<path d="M765 708 c-16 -6 -31 -12 -33 -13 -2 -2 5 -20 16 -42 26 -50 68 -170
77 -214 22 -119 26 -131 44 -124 9 4 30 12 46 18 41 14 45 24 30 68 -8 20 -11
40 -8 43 3 3 1 11 -4 18 -6 7 -18 38 -28 68 -10 30 -31 85 -48 123 -31 71 -37
74 -92 55z"/>
</g>
</svg>
