<?xml version="1.0" standalone="no"?>
<!DOCTYPE svg PUBLIC "-//W3C//DTD SVG 20010904//EN"
 "http://www.w3.org/TR/2001/REC-SVG-20010904/DTD/svg10.dtd">
<svg version="1.0" xmlns="http://www.w3.org/2000/svg"
 width="101.000000pt" height="101.000000pt" viewBox="0 0 101.000000 101.000000"
 preserveAspectRatio="xMidYMid meet">
<metadata>
Created by potrace 1.16, written by Peter Selinger 2001-2019
</metadata>
<g transform="translate(0.000000,101.000000) scale(0.100000,-0.100000)"
fill="#000000" stroke="none">
<path d="M800 974 c-64 -20 -172 -34 -256 -34 -67 1 -84 -16 -84 -80 0 -27 4
-52 10 -55 12 -7 12 -153 -1 -160 -4 -3 -8 -34 -7 -69 1 -34 -2 -67 -6 -74 -3
-6 -6 -23 -5 -39 5 -85 -32 -162 -116 -242 -36 -35 -65 -65 -65 -67 0 -2 6 -4
14 -4 7 0 30 -12 52 -26 l38 -26 29 33 c110 129 159 255 161 417 1 51 2 52 31
52 17 0 46 3 65 6 l35 6 -2 -255 c-2 -284 -6 -268 68 -259 l36 4 -1 252 -1
252 28 -4 c15 -2 47 -1 71 2 50 8 62 26 51 75 -5 25 -10 28 -48 27 -23 0 -111
1 -194 2 l-153 2 0 40 c0 22 5 40 10 40 6 0 10 15 10 33 0 31 2 32 43 33 194
7 307 20 307 36 0 23 -55 100 -69 97 -3 -1 -26 -7 -51 -15z"/>
<path d="M93 949 c-19 -7 -23 -16 -23 -54 0 -25 5 -45 10 -45 6 0 10 -16 10
-35 0 -19 -4 -35 -10 -35 -6 0 -10 -30 -10 -70 0 -40 4 -70 10 -70 6 0 10 -11
10 -25 0 -14 -4 -25 -10 -25 -6 0 -10 -40 -10 -100 0 -60 4 -100 10 -100 13 0
13 -71 1 -103 -11 -30 3 -36 62 -29 l37 4 -4 58 c-4 54 -3 58 17 59 12 0 38 2
57 3 34 3 35 2 33 -33 -3 -42 8 -48 70 -41 34 4 37 7 30 26 -4 11 -7 45 -5 74
1 28 2 106 3 172 0 66 0 137 0 158 0 20 1 76 3 124 3 69 0 88 -11 92 -8 4 -19
3 -25 0 -11 -7 -213 -8 -225 -1 -4 2 -18 1 -30 -4z m189 -144 c-1 -27 3 -60 9
-72 8 -15 9 -59 4 -147 l-7 -126 -57 7 c-31 3 -59 11 -64 17 -4 6 -5 45 -2 86
3 41 6 122 8 180 l2 105 55 0 55 0 -3 -50z"/>
</g>
</svg>
