<?xml version="1.0" standalone="no"?>
<!DOCTYPE svg PUBLIC "-//W3C//DTD SVG 20010904//EN"
 "http://www.w3.org/TR/2001/REC-SVG-20010904/DTD/svg10.dtd">
<svg version="1.0" xmlns="http://www.w3.org/2000/svg"
 width="101.000000pt" height="101.000000pt" viewBox="0 0 101.000000 101.000000"
 preserveAspectRatio="xMidYMid meet">
<metadata>
Created by potrace 1.16, written by Peter Selinger 2001-2019
</metadata>
<g transform="translate(0.000000,101.000000) scale(0.100000,-0.100000)"
fill="#000000" stroke="none">
<path d="M108 963 c-19 -5 -33 -53 -23 -82 3 -10 16 -22 28 -25 41 -11 105 -6
121 9 17 17 76 20 76 4 0 -8 26 -10 85 -7 l86 4 -48 -48 c-26 -27 -68 -65 -93
-83 -55 -40 -185 -106 -258 -130 -29 -9 -52 -20 -50 -23 14 -30 55 -82 66 -82
22 0 174 81 252 134 41 28 79 54 85 57 6 5 11 -27 13 -93 l2 -100 -102 6 c-63
4 -109 3 -118 -3 -18 -12 -22 -111 -13 -288 l6 -112 28 -6 c34 -8 70 2 68 18
-6 50 -3 52 81 54 148 5 310 2 310 -5 0 -2 -4 -11 -9 -21 -14 -25 0 -41 41
-47 48 -8 68 14 68 75 0 31 -5 53 -15 61 -16 13 -21 86 -6 92 4 2 11 38 14 81
7 94 -2 107 -74 107 -27 0 -49 -4 -49 -10 0 -5 -11 -10 -25 -10 -14 0 -25 5
-25 10 0 6 -20 10 -44 10 l-44 0 3 141 c3 138 4 142 32 176 l28 35 162 1 162
1 5 32 c11 58 8 59 -138 59 -74 0 -138 -3 -142 -7 -11 -11 -52 -10 -59 2 -8
13 -142 13 -150 1 -7 -12 -172 -13 -180 -1 -3 5 -29 9 -58 8 -29 0 -59 2 -67
5 -8 2 -23 3 -32 0z m376 -542 c8 -12 114 -13 121 -1 7 12 75 13 90 2 6 -4 11
-44 12 -90 l1 -83 -124 7 c-90 5 -124 4 -124 -5 0 -7 -25 -11 -74 -11 l-73 0
1 88 1 87 48 -4 c27 -1 54 2 60 8 13 13 54 15 61 2z"/>
<path d="M603 723 c-19 -24 -24 -38 -16 -40 39 -13 197 -97 248 -132 l60 -41
33 37 c17 21 31 44 30 52 -3 16 -282 160 -310 161 -9 0 -30 -17 -45 -37z"/>
</g>
</svg>
