<?xml version="1.0" standalone="no"?>
<!DOCTYPE svg PUBLIC "-//W3C//DTD SVG 20010904//EN"
 "http://www.w3.org/TR/2001/REC-SVG-20010904/DTD/svg10.dtd">
<svg version="1.0" xmlns="http://www.w3.org/2000/svg"
 width="101.000000pt" height="101.000000pt" viewBox="0 0 101.000000 101.000000"
 preserveAspectRatio="xMidYMid meet">
<metadata>
Created by potrace 1.16, written by Peter Selinger 2001-2019
</metadata>
<g transform="translate(0.000000,101.000000) scale(0.100000,-0.100000)"
fill="#000000" stroke="none">
<path d="M475 998 c-22 -6 -42 -12 -43 -14 -2 -1 8 -20 22 -41 14 -20 26 -40
26 -44 0 -3 -72 -4 -161 -3 l-161 3 5 -57 c11 -129 8 -328 -5 -362 -4 -8 -6
-22 -6 -30 -1 -60 -46 -162 -98 -220 l-38 -42 40 -33 c21 -19 42 -34 46 -35 4
0 15 12 26 28 69 98 134 291 135 405 0 25 3 27 43 27 24 0 44 5 44 10 0 6 11
10 25 10 14 0 25 -4 25 -10 0 -6 30 -10 70 -10 40 0 70 4 70 10 0 6 11 10 25
10 14 0 25 -4 25 -10 0 -5 23 -10 50 -10 30 0 50 4 50 11 0 8 27 10 90 7 l89
-4 -5 113 c-4 81 -3 118 6 128 7 9 10 26 6 41 -6 21 -11 25 -29 20 -50 -14
-137 -18 -150 -8 -7 6 -35 10 -62 9 l-48 -2 -20 58 c-22 61 -24 62 -92 45z
m81 -189 c4 -7 38 -9 108 -4 l101 7 2 -71 3 -71 -114 6 c-68 3 -117 1 -120 -5
-8 -13 -147 -13 -162 0 -8 6 -35 9 -61 7 l-48 -3 0 65 0 65 112 -3 c70 -2 114
1 118 8 8 13 52 13 61 -1z"/>
<path d="M317 503 c-16 -4 -17 -17 -12 -173 3 -94 1 -179 -4 -192 -16 -42 1
-53 76 -50 32 2 33 3 30 42 l-3 40 38 0 c21 0 38 5 38 10 0 15 67 12 74 -2 5
-10 7 -10 12 0 6 13 116 17 172 6 28 -6 30 -9 26 -44 -3 -32 0 -39 18 -43 12
-3 30 -1 40 4 10 6 26 8 36 5 15 -5 17 7 20 114 3 81 0 120 -7 120 -16 0 -15
147 1 152 7 3 -9 8 -35 11 -27 4 -56 3 -65 -2 -25 -13 -293 -26 -301 -14 -7
11 -126 23 -154 16z m449 -169 l1 -74 -33 -6 c-22 -4 -40 -2 -50 6 -11 10 -18
10 -26 2 -15 -15 -75 -16 -83 -2 -4 6 -40 9 -88 8 l-82 -3 0 70 0 70 180 1
180 2 1 -74z"/>
</g>
</svg>
