<?xml version="1.0" standalone="no"?>
<!DOCTYPE svg PUBLIC "-//W3C//DTD SVG 20010904//EN"
 "http://www.w3.org/TR/2001/REC-SVG-20010904/DTD/svg10.dtd">
<svg version="1.0" xmlns="http://www.w3.org/2000/svg"
 width="101.000000pt" height="101.000000pt" viewBox="0 0 101.000000 101.000000"
 preserveAspectRatio="xMidYMid meet">
<metadata>
Created by potrace 1.16, written by Peter Selinger 2001-2019
</metadata>
<g transform="translate(0.000000,101.000000) scale(0.100000,-0.100000)"
fill="#000000" stroke="none">
<path d="M798 1003 c-15 -4 -16 -20 -12 -151 3 -81 5 -192 4 -247 -1 -133 -1
-248 -1 -287 1 -18 -1 -72 -4 -119 -5 -97 -3 -100 67 -91 32 3 37 8 41 35 2
18 0 43 -5 57 -5 13 -6 41 -3 61 4 22 2 40 -4 44 -14 8 -14 52 -1 60 12 7 12
153 0 160 -12 7 -11 153 0 160 6 3 10 56 10 118 0 62 2 129 5 150 5 35 4 38
-15 32 -12 -4 -26 0 -36 9 -16 16 -17 17 -46 9z"/>
<path d="M378 959 c-22 -12 -24 -62 -3 -83 12 -12 33 -15 88 -12 40 2 83 7 97
10 25 7 25 7 25 -61 l0 -68 -90 0 -90 0 0 -130 c-1 -72 -4 -136 -8 -142 -11
-17 21 -43 51 -43 15 0 43 4 63 9 l37 8 6 -62 c4 -37 2 -74 -5 -91 -6 -16 -10
-30 -10 -31 4 -14 -4 -23 -30 -34 -24 -9 -39 -10 -61 -1 -16 6 -37 8 -47 4
-16 -7 -16 -11 7 -60 l24 -53 41 5 c54 6 103 21 133 41 26 17 44 70 37 109 -3
14 -1 32 5 39 13 16 22 210 10 222 -3 4 -42 7 -85 8 l-78 2 0 51 0 52 68 6
c37 3 78 4 91 0 22 -5 24 -2 30 48 3 29 6 101 5 161 -1 94 -4 107 -18 103 -41
-12 -172 -18 -184 -8 -16 13 -87 14 -109 1z"/>
<path d="M89 914 c-14 -4 -15 -24 -13 -147 4 -158 4 -181 4 -282 0 -38 1 -95
2 -125 2 -30 -1 -67 -6 -81 -9 -30 9 -39 61 -32 26 4 30 9 31 36 3 75 1 73 48
75 l44 2 -6 -34 c-6 -38 9 -47 63 -39 35 6 47 31 32 70 -10 28 -13 223 -6 420
4 123 3 133 -14 138 -11 4 -29 3 -41 -1 -23 -7 -102 -7 -153 0 -16 3 -37 2
-46 0z m181 -159 c0 -49 -4 -75 -11 -75 -9 0 -10 -34 -5 -122 l7 -123 -49 0
-50 0 5 92 c4 67 3 93 -6 93 -7 0 -11 25 -11 75 0 43 4 75 10 75 6 0 10 11 10
24 0 25 13 32 73 35 l27 1 0 -75z"/>
</g>
</svg>
