<?xml version="1.0" standalone="no"?>
<!DOCTYPE svg PUBLIC "-//W3C//DTD SVG 20010904//EN"
 "http://www.w3.org/TR/2001/REC-SVG-20010904/DTD/svg10.dtd">
<svg version="1.0" xmlns="http://www.w3.org/2000/svg"
 width="101.000000pt" height="101.000000pt" viewBox="0 0 101.000000 101.000000"
 preserveAspectRatio="xMidYMid meet">
<metadata>
Created by potrace 1.16, written by Peter Selinger 2001-2019
</metadata>
<g transform="translate(0.000000,101.000000) scale(0.100000,-0.100000)"
fill="#000000" stroke="none">
<path d="M556 928 c-43 -110 -100 -203 -141 -228 -32 -20 -35 -26 -30 -54 13
-66 15 -68 43 -62 83 20 82 21 82 -37 0 -29 -5 -58 -10 -63 -6 -6 -13 -30 -16
-54 -7 -60 -40 -124 -82 -161 -36 -32 -130 -79 -157 -79 -8 0 -15 -4 -15 -10
0 -5 4 -10 10 -10 5 0 25 -15 44 -34 l34 -35 62 37 c88 52 141 113 172 197 15
39 27 77 27 85 1 8 5 51 10 94 6 44 7 84 4 89 -3 5 4 6 15 3 12 -4 29 -3 39 2
17 9 18 4 15 -68 -2 -48 1 -81 7 -85 13 -8 15 -52 2 -59 -13 -8 -12 -114 0
-122 6 -4 9 -30 7 -63 -3 -56 -3 -56 34 -74 29 -14 42 -16 58 -7 12 6 38 8 63
5 78 -12 111 17 132 112 5 27 3 33 -10 33 -9 0 -30 9 -45 20 l-29 21 -11 -21
c-6 -12 -9 -28 -6 -35 16 -42 -82 -69 -110 -30 -16 22 -19 81 -4 90 12 7 11
113 -1 121 -13 7 -11 51 2 59 6 4 9 31 8 63 -3 54 -2 55 25 57 22 1 34 -7 53
-36 l25 -37 43 26 c25 15 45 31 45 35 0 12 -132 186 -163 216 l-26 23 -40 -22
-40 -23 45 -51 c24 -28 44 -53 44 -56 0 -6 -38 -9 -165 -12 l-90 -3 46 70 c92
138 129 197 129 205 0 7 -83 40 -100 40 -3 0 -19 -33 -34 -72z"/>
<path d="M100 902 c-12 -6 -15 -30 -13 -137 2 -183 2 -200 0 -295 -1 -47 -6
-91 -10 -97 -4 -7 -7 -33 -6 -57 3 -50 11 -55 72 -48 29 3 38 9 43 29 4 13 1
36 -5 49 -6 14 -11 26 -11 27 0 1 27 2 60 2 59 0 72 -9 49 -32 -18 -18 -1 -51
31 -58 62 -14 65 -9 68 139 1 76 -2 137 -7 141 -12 7 -13 172 -2 179 5 3 9 40
9 81 l0 75 -101 -2 c-56 -1 -115 1 -132 5 -16 4 -37 3 -45 -1z m185 -266 l5
-188 -23 6 c-12 3 -39 6 -59 6 l-37 0 6 100 c4 72 3 100 -5 100 -7 0 -12 15
-12 35 0 19 5 35 10 35 6 0 10 18 10 40 0 33 3 40 19 40 11 0 23 5 26 11 4 5
18 9 31 7 l24 -3 5 -189z"/>
</g>
</svg>
