<?xml version="1.0" standalone="no"?>
<!DOCTYPE svg PUBLIC "-//W3C//DTD SVG 20010904//EN"
 "http://www.w3.org/TR/2001/REC-SVG-20010904/DTD/svg10.dtd">
<svg version="1.0" xmlns="http://www.w3.org/2000/svg"
 width="101.000000pt" height="101.000000pt" viewBox="0 0 101.000000 101.000000"
 preserveAspectRatio="xMidYMid meet">
<metadata>
Created by potrace 1.16, written by Peter Selinger 2001-2019
</metadata>
<g transform="translate(0.000000,101.000000) scale(0.100000,-0.100000)"
fill="#000000" stroke="none">
<path d="M185 842 c4 -92 9 -139 18 -144 6 -5 30 -6 52 -4 65 8 457 8 492 1
18 -4 44 -4 58 -1 21 5 24 10 15 26 -12 23 -13 97 -1 104 5 3 9 39 9 80 l0 75
-31 -7 c-18 -3 -79 -6 -137 -5 -112 2 -191 2 -292 2 -35 0 -91 2 -126 5 l-62
5 5 -137z m343 46 c8 -7 45 -9 105 -5 l92 6 1 -54 1 -55 -96 1 c-53 0 -114 0
-136 0 -150 0 -205 4 -200 17 3 8 5 29 5 48 0 27 4 34 19 34 11 0 23 4 26 10
8 13 167 11 183 -2z"/>
<path d="M169 623 c-5 -15 -8 -37 -5 -49 5 -19 13 -21 70 -23 35 -1 67 3 71 9
8 13 52 13 61 -1 3 -6 20 -8 38 -5 31 6 31 6 33 -42 l2 -47 -184 1 -184 0 -6
-24 c-3 -13 -3 -32 0 -43 6 -18 15 -19 176 -14 109 4 169 2 169 -4 0 -23 -81
-93 -141 -120 -59 -28 -84 -34 -177 -45 -19 -3 -36 -7 -39 -10 -9 -8 71 -95
87 -95 26 0 158 56 210 89 52 33 150 133 150 153 0 6 13 -9 28 -34 49 -77 129
-132 252 -174 93 -32 105 -31 122 3 8 15 22 39 32 55 14 21 15 27 5 29 -8 0
-25 3 -39 5 -14 2 -41 5 -60 8 -56 7 -120 24 -152 41 -31 16 -108 82 -108 93
0 3 79 6 175 6 159 0 176 1 181 17 6 22 -4 60 -20 70 -14 10 -81 10 -90 1 -4
-5 -73 -8 -153 -8 l-144 0 5 29 c3 16 6 36 6 45 0 14 18 16 150 16 148 0 149
0 155 23 3 13 3 32 0 43 -6 18 -14 19 -121 12 -83 -4 -114 -3 -114 5 0 8 -19
12 -50 12 -27 0 -50 -4 -50 -10 0 -5 -11 -10 -25 -10 -14 0 -25 5 -25 10 0 6
-30 10 -70 10 -40 0 -70 -4 -70 -10 0 -5 -11 -10 -25 -10 -14 0 -25 5 -25 10
0 6 -20 10 -45 10 -40 0 -47 -3 -56 -27z"/>
</g>
</svg>
