<?xml version="1.0" standalone="no"?>
<!DOCTYPE svg PUBLIC "-//W3C//DTD SVG 20010904//EN"
 "http://www.w3.org/TR/2001/REC-SVG-20010904/DTD/svg10.dtd">
<svg version="1.0" xmlns="http://www.w3.org/2000/svg"
 width="101.000000pt" height="101.000000pt" viewBox="0 0 101.000000 101.000000"
 preserveAspectRatio="xMidYMid meet">
<metadata>
Created by potrace 1.16, written by Peter Selinger 2001-2019
</metadata>
<g transform="translate(0.000000,101.000000) scale(0.100000,-0.100000)"
fill="#000000" stroke="none">
<path d="M420 972 c-10 -4 -15 -22 -16 -49 -1 -41 1 -43 33 -49 18 -3 50 -4
70 -1 21 3 72 8 113 11 l75 6 0 -118 0 -117 -70 3 c-38 2 -75 4 -82 5 -7 1 1
29 23 76 19 40 34 77 34 81 0 11 -28 22 -67 26 -28 4 -33 1 -33 -15 0 -11 -4
-22 -9 -26 -6 -3 -10 -22 -9 -43 0 -50 -25 -108 -51 -117 -24 -7 -25 -11 -9
-56 13 -39 27 -51 48 -43 8 4 33 7 55 8 22 1 48 6 59 11 34 15 -54 -134 -121
-205 -34 -36 -91 -83 -127 -104 -36 -21 -66 -40 -66 -42 0 -6 74 -73 81 -74 3
0 37 27 76 60 88 73 177 190 223 292 19 43 37 77 40 78 3 0 6 -72 8 -160 3
-151 2 -160 -19 -181 -15 -15 -29 -20 -48 -16 -52 10 -59 -2 -36 -58 22 -56
32 -59 113 -36 74 21 78 30 85 182 3 74 5 163 4 199 l-2 65 52 -1 c28 -1 56
-5 62 -8 33 -21 67 22 59 75 -3 23 -6 24 -88 24 l-85 0 0 118 c0 100 2 116 15
111 25 -12 79 -17 104 -10 28 7 40 33 30 70 -6 26 -7 27 -103 26 -53 -1 -124
-1 -158 -1 -35 0 -91 0 -125 -1 -35 0 -76 2 -93 5 -16 4 -37 3 -45 -1z"/>
<path d="M73 943 c-16 -6 -18 -113 -3 -113 6 0 10 -16 10 -35 0 -19 -4 -35
-10 -35 -6 0 -10 -30 -10 -70 0 -40 4 -70 10 -70 6 0 10 -11 10 -25 0 -14 -5
-25 -11 -25 -9 0 -10 -24 -5 -83 4 -47 3 -95 -3 -108 -12 -34 -3 -76 18 -82 9
-2 31 -2 47 0 27 4 31 9 32 41 3 81 0 77 57 78 l53 1 -3 -38 c-4 -42 8 -50 63
-41 42 6 51 39 29 103 -19 52 -22 105 -7 114 12 7 11 113 -1 121 -12 7 -11 51
1 59 6 4 10 35 9 69 -1 35 1 69 6 75 4 7 4 24 0 38 l-6 25 -88 -7 c-57 -4 -91
-3 -95 3 -6 10 -80 14 -103 5z m194 -269 l1 -186 -21 6 c-12 3 -35 6 -52 6
l-30 0 2 60 c2 32 -2 62 -7 65 -13 8 -13 52 1 60 6 4 9 38 7 86 l-3 78 45 4
c25 2 47 4 50 5 3 1 6 -82 7 -184z"/>
</g>
</svg>
