<?xml version="1.0" standalone="no"?>
<!DOCTYPE svg PUBLIC "-//W3C//DTD SVG 20010904//EN"
 "http://www.w3.org/TR/2001/REC-SVG-20010904/DTD/svg10.dtd">
<svg version="1.0" xmlns="http://www.w3.org/2000/svg"
 width="101.000000pt" height="101.000000pt" viewBox="0 0 101.000000 101.000000"
 preserveAspectRatio="xMidYMid meet">
<metadata>
Created by potrace 1.16, written by Peter Selinger 2001-2019
</metadata>
<g transform="translate(0.000000,101.000000) scale(0.100000,-0.100000)"
fill="#000000" stroke="none">
<path d="M382 937 c-5 -18 -10 -24 -11 -15 -1 20 -42 34 -68 23 -22 -8 -128
-8 -164 0 -47 12 -57 -12 -58 -134 -1 -63 3 -113 9 -116 13 -8 13 -52 0 -60
-13 -8 -12 -206 2 -222 7 -9 8 -36 5 -73 -7 -65 -6 -66 53 -61 32 3 36 7 20
26 -10 12 -10 21 -2 40 6 14 9 31 6 39 -4 9 2 14 18 14 13 1 34 2 48 4 20 2
25 -2 26 -20 1 -12 3 -25 6 -27 5 -6 36 -9 70 -7 l27 2 0 128 c0 103 4 263 10
397 1 13 4 16 9 8 7 -12 11 -13 41 -13 15 0 19 -11 25 -66 4 -43 3 -71 -4 -79
-8 -9 -9 -33 -5 -70 5 -36 3 -60 -4 -69 -6 -7 -11 -27 -10 -42 5 -112 -62
-255 -163 -345 l-40 -36 46 -26 46 -25 49 55 c78 87 154 254 159 347 3 43 7
41 27 -11 10 -27 33 -77 52 -113 l34 -65 -37 -32 c-20 -17 -72 -50 -116 -73
-44 -23 -76 -45 -71 -49 4 -3 22 -19 40 -35 l32 -29 63 41 c35 23 81 57 102
75 l40 34 57 -46 c32 -25 80 -58 108 -74 l50 -27 30 44 31 44 -45 15 c-44 15
-149 80 -161 98 -3 6 12 45 34 87 66 126 139 363 100 324 -7 -7 -38 -12 -71
-12 -52 0 -58 2 -52 18 27 65 85 224 85 231 0 4 -19 7 -42 5 -137 -12 -260
-15 -271 -6 -7 5 -44 10 -83 10 l-72 1 -10 -32z m342 -82 c-2 -14 -23 -66 -46
-115 -22 -50 -38 -93 -34 -97 3 -4 34 -9 69 -11 34 -2 65 -7 69 -11 8 -7 -30
-117 -61 -180 -13 -24 -26 -39 -30 -35 -10 11 -50 107 -55 131 -19 94 -37 115
-83 94 -23 -10 -25 -10 -17 6 5 10 9 68 9 128 l0 110 92 2 92 3 -5 -25z m-452
-54 c-1 -30 2 -59 9 -67 14 -17 4 -243 -11 -258 -6 -6 -19 -5 -35 2 -13 6 -31
9 -39 6 -20 -8 -30 49 -21 113 3 26 7 95 8 153 l2 105 45 0 45 0 -3 -54z"/>
</g>
</svg>
