<?xml version="1.0" standalone="no"?>
<!DOCTYPE svg PUBLIC "-//W3C//DTD SVG 20010904//EN"
 "http://www.w3.org/TR/2001/REC-SVG-20010904/DTD/svg10.dtd">
<svg version="1.0" xmlns="http://www.w3.org/2000/svg"
 width="101.000000pt" height="101.000000pt" viewBox="0 0 101.000000 101.000000"
 preserveAspectRatio="xMidYMid meet">
<metadata>
Created by potrace 1.16, written by Peter Selinger 2001-2019
</metadata>
<g transform="translate(0.000000,101.000000) scale(0.100000,-0.100000)"
fill="#000000" stroke="none">
<path d="M600 1004 c-12 -4 -14 -18 -12 -64 3 -39 0 -60 -7 -60 -6 0 -11 -18
-11 -40 0 -22 5 -40 11 -40 6 0 9 -12 7 -27 -3 -27 -4 -27 -68 -23 -36 1 -81
3 -102 4 -34 0 -37 2 -41 36 -2 19 0 43 5 53 5 10 6 27 3 38 -6 17 -12 20 -38
15 -76 -15 -137 -19 -137 -7 0 7 -22 11 -60 11 -55 0 -60 -2 -66 -25 -3 -14
-1 -31 4 -38 14 -16 14 -174 1 -182 -12 -8 -12 -142 1 -150 14 -8 13 -52 -1
-61 -12 -7 -6 -140 6 -152 11 -11 78 -4 87 10 5 7 7 27 6 43 -3 30 -3 30 49
30 l52 0 -6 -37 c-5 -32 -3 -38 13 -40 39 -3 79 4 86 15 12 18 9 85 -3 92 -7
5 -8 32 -4 81 5 51 3 84 -5 104 -16 39 -6 87 15 70 14 -12 60 -10 148 6 37 6
38 6 32 -22 -3 -16 -7 -42 -10 -59 -31 -168 -135 -314 -276 -386 l-63 -31 29
-16 c17 -8 41 -23 54 -33 23 -18 24 -18 68 14 25 17 74 62 108 99 l63 68 26
-55 c14 -31 26 -62 26 -70 0 -7 4 -17 10 -20 13 -8 90 15 90 27 0 5 -16 43
-35 84 -36 80 -34 78 -92 57 -18 -7 -17 -2 11 54 13 26 30 67 37 91 l13 43 30
-73 c17 -40 45 -98 62 -128 33 -56 140 -173 154 -168 11 4 92 79 88 82 -1 1
-25 16 -53 34 -60 37 -103 81 -144 146 -31 50 -67 147 -75 201 -3 17 -8 41
-12 54 l-7 24 102 -6 c56 -3 108 -10 115 -16 30 -25 65 24 51 69 -7 21 -87 35
-114 20 -10 -5 -47 -8 -83 -7 l-64 2 3 50 c3 71 11 146 19 171 4 17 0 23 -18
27 -13 3 -32 8 -43 10 -11 3 -27 3 -35 1z m-320 -245 c0 -21 5 -39 10 -39 6 0
10 -11 10 -25 0 -14 -5 -25 -12 -25 -8 0 -9 -30 -4 -108 l6 -109 -55 1 -56 1
6 36 c4 21 2 40 -3 43 -14 8 -14 146 -1 162 6 8 9 35 7 61 l-3 48 48 -3 47 -4
0 -39z"/>
</g>
</svg>
