<?xml version="1.0" standalone="no"?>
<!DOCTYPE svg PUBLIC "-//W3C//DTD SVG 20010904//EN"
 "http://www.w3.org/TR/2001/REC-SVG-20010904/DTD/svg10.dtd">
<svg version="1.0" xmlns="http://www.w3.org/2000/svg"
 width="101.000000pt" height="101.000000pt" viewBox="0 0 101.000000 101.000000"
 preserveAspectRatio="xMidYMid meet">
<metadata>
Created by potrace 1.16, written by Peter Selinger 2001-2019
</metadata>
<g transform="translate(0.000000,101.000000) scale(0.100000,-0.100000)"
fill="#000000" stroke="none">
<path d="M195 947 c-9 -49 1 -267 13 -279 6 -6 30 -8 54 -5 23 3 77 7 119 10
l76 4 -1 -36 c-1 -33 -4 -37 -36 -43 -53 -10 -168 -9 -172 2 -1 5 -27 10 -56
11 -58 2 -77 -11 -66 -46 3 -11 5 -53 4 -92 -1 -40 4 -88 11 -106 9 -25 9 -55
1 -118 -5 -46 -13 -91 -16 -99 -11 -28 10 -44 55 -43 42 2 64 18 51 38 -4 5
-7 47 -7 93 l0 83 23 -26 c12 -14 22 -33 22 -41 0 -8 5 -14 11 -14 18 0 157
101 189 137 l30 34 43 -35 c24 -19 58 -53 75 -76 18 -22 37 -40 43 -40 5 0 26
16 47 35 l37 35 -70 67 c-101 95 -110 100 -137 77 -20 -18 -21 -18 -15 -1 4
10 7 24 7 30 0 9 36 12 123 12 l122 1 0 -145 0 -145 -54 3 c-52 3 -54 2 -47
-21 4 -13 8 -32 7 -42 0 -35 17 -54 46 -52 40 3 112 27 124 42 16 19 30 194
27 329 l-3 120 -25 -1 c-14 -1 -89 -5 -167 -9 l-142 -7 2 43 2 44 95 0 c52 0
100 -3 107 -8 6 -4 18 -4 27 -1 13 5 14 23 10 120 -4 82 -3 119 6 129 7 8 10
25 7 37 -6 22 -10 23 -131 26 -69 1 -127 -2 -131 -7 -7 -12 -172 -13 -179 -2
-3 5 -39 9 -81 9 l-74 0 -6 -31z m245 -58 c0 -8 37 -9 133 -4 l132 7 2 -65 2
-65 -212 2 -212 1 0 58 0 57 43 0 c23 0 42 5 42 10 0 6 16 10 35 10 19 0 35
-5 35 -11z m-5 -406 c-28 -66 -110 -135 -161 -135 -13 0 -27 -4 -30 -9 -16
-26 -23 1 -21 81 l2 89 95 4 c52 1 103 4 113 5 16 2 16 0 2 -35z"/>
</g>
</svg>
