<?xml version="1.0" standalone="no"?>
<!DOCTYPE svg PUBLIC "-//W3C//DTD SVG 20010904//EN"
 "http://www.w3.org/TR/2001/REC-SVG-20010904/DTD/svg10.dtd">
<svg version="1.0" xmlns="http://www.w3.org/2000/svg"
 width="101.000000pt" height="101.000000pt" viewBox="0 0 101.000000 101.000000"
 preserveAspectRatio="xMidYMid meet">
<metadata>
Created by potrace 1.16, written by Peter Selinger 2001-2019
</metadata>
<g transform="translate(0.000000,101.000000) scale(0.100000,-0.100000)"
fill="#000000" stroke="none">
<path d="M577 983 c3 -16 -1 -39 -9 -53 -11 -22 -20 -25 -63 -25 l-50 0 -3
-47 c-2 -29 1 -48 7 -48 15 0 14 -67 0 -72 -8 -3 -9 -45 -3 -153 l9 -150 25 2
c14 2 88 4 165 5 l140 3 -2 -95 c-3 -120 -4 -127 -33 -147 -18 -13 -29 -14
-51 -6 -16 6 -37 9 -47 6 -19 -4 -19 -5 -1 -41 11 -20 19 -45 19 -55 0 -16 6
-18 43 -13 69 8 112 24 138 52 21 23 24 36 26 112 1 48 5 103 8 122 14 73 13
149 -2 155 -8 3 -19 2 -24 -1 -6 -3 -82 -7 -170 -7 l-159 -2 6 31 c3 19 1 35
-5 38 -14 9 -14 53 0 61 6 4 9 37 7 83 l-3 77 106 0 106 0 -4 -25 c-5 -32 -12
-83 -12 -93 -2 -16 -52 -27 -73 -16 -32 17 -39 -2 -20 -53 21 -60 45 -67 110
-34 27 13 53 30 59 38 10 13 32 91 32 118 0 8 3 47 6 86 l5 72 -109 -2 -109
-1 10 25 c5 14 16 33 25 42 23 26 7 38 -51 38 -52 0 -52 0 -49 -27z"/>
<path d="M110 913 c-8 -3 -18 -11 -22 -16 -9 -15 -8 -96 2 -102 12 -8 11 -173
-1 -180 -5 -4 -8 -74 -7 -165 3 -174 2 -172 66 -162 27 3 32 9 38 38 3 19 4
43 1 54 -4 17 0 20 26 20 18 0 42 3 54 6 21 6 22 3 18 -22 -9 -46 9 -60 70
-56 19 2 20 9 20 165 0 89 -3 167 -7 172 -11 17 -8 168 3 182 6 7 8 24 5 38
-6 22 -12 25 -49 25 -23 0 -78 2 -122 5 -44 3 -87 2 -95 -2z m170 -124 c0 -21
5 -39 10 -39 6 0 10 -11 10 -25 0 -14 -5 -25 -12 -25 -8 0 -9 -29 -5 -107 l7
-108 -55 0 -56 0 6 36 c4 21 2 40 -3 43 -14 8 -14 146 -1 162 6 8 9 35 7 61
l-3 48 48 -3 47 -4 0 -39z"/>
<path d="M409 363 c-35 -8 -31 -87 4 -97 11 -3 28 -1 38 5 11 5 75 7 153 4
l134 -5 5 26 c11 62 -12 81 -73 59 -44 -16 -202 -11 -236 7 -5 2 -16 3 -25 1z"/>
</g>
</svg>
