<?xml version="1.0" standalone="no"?>
<!DOCTYPE svg PUBLIC "-//W3C//DTD SVG 20010904//EN"
 "http://www.w3.org/TR/2001/REC-SVG-20010904/DTD/svg10.dtd">
<svg version="1.0" xmlns="http://www.w3.org/2000/svg"
 width="101.000000pt" height="101.000000pt" viewBox="0 0 101.000000 101.000000"
 preserveAspectRatio="xMidYMid meet">
<metadata>
Created by potrace 1.16, written by Peter Selinger 2001-2019
</metadata>
<g transform="translate(0.000000,101.000000) scale(0.100000,-0.100000)"
fill="#000000" stroke="none">
<path d="M280 733 l-31 -28 90 -96 90 -96 -90 -89 c-49 -49 -89 -94 -89 -100
0 -7 14 -24 32 -39 l31 -26 94 93 93 93 93 -93 92 -92 32 32 32 32 -89 96 -89
97 86 92 86 92 -29 30 c-15 16 -33 29 -39 29 -6 0 -48 -38 -95 -85 l-85 -85
-85 85 c-47 47 -89 85 -93 85 -3 0 -20 -12 -37 -27z"/>
</g>
</svg>
