<?xml version="1.0" standalone="no"?>
<!DOCTYPE svg PUBLIC "-//W3C//DTD SVG 20010904//EN"
 "http://www.w3.org/TR/2001/REC-SVG-20010904/DTD/svg10.dtd">
<svg version="1.0" xmlns="http://www.w3.org/2000/svg"
 width="101.000000pt" height="101.000000pt" viewBox="0 0 101.000000 101.000000"
 preserveAspectRatio="xMidYMid meet">
<metadata>
Created by potrace 1.16, written by Peter Selinger 2001-2019
</metadata>
<g transform="translate(0.000000,101.000000) scale(0.100000,-0.100000)"
fill="#000000" stroke="none">
<path d="M428 973 c-24 -6 -29 -49 -22 -173 7 -128 7 -273 -1 -360 -7 -79 2
-94 50 -93 44 1 48 5 48 43 0 27 4 30 31 30 17 0 41 3 52 6 25 7 24 14 27
-141 1 -55 -1 -119 -5 -141 -9 -47 2 -55 59 -47 28 5 30 8 31 46 0 23 1 51 2
62 1 11 -3 50 -10 87 -8 48 -8 72 -1 87 6 11 9 26 6 33 -4 10 10 13 60 13 53
0 64 -2 60 -15 -10 -32 14 -45 75 -42 l25 2 3 134 c1 84 -1 137 -8 141 -13 8
-13 52 0 60 6 4 10 57 9 134 l-2 127 -80 -2 c-44 -2 -82 -6 -85 -9 -9 -9 -91
-5 -97 5 -3 5 -29 9 -58 8 -29 -1 -74 1 -102 5 -27 3 -58 3 -67 0z m176 -156
c3 -39 5 -72 2 -74 -2 -2 -26 -1 -53 2 l-49 7 1 66 0 67 46 1 46 0 7 -69z
m210 -7 l-2 -75 -61 -3 -61 -3 2 78 3 78 60 0 60 0 -1 -75z m2 -225 l1 -70
-61 3 -62 4 1 66 0 67 60 0 60 0 1 -70z m-216 41 c0 -13 3 -43 6 -67 l6 -44
-54 0 -53 0 0 68 0 67 48 0 c43 0 47 -2 47 -24z"/>
<path d="M84 952 c-8 -5 -11 -38 -8 -102 3 -103 3 -113 3 -287 -1 -65 2 -137
6 -160 4 -25 2 -56 -4 -74 -6 -18 -9 -35 -6 -38 7 -7 85 -4 93 4 3 3 0 16 -7
29 -10 17 -10 29 -2 44 6 11 9 27 6 34 -4 9 6 13 38 13 42 0 43 -1 44 -33 1
-18 4 -36 7 -40 8 -8 75 -6 84 2 12 12 15 246 3 246 -6 0 -11 11 -11 25 0 14
5 25 10 25 6 0 10 30 10 70 0 40 -4 70 -10 70 -5 0 -10 16 -10 35 0 19 5 35
11 35 6 0 9 19 7 48 l-3 47 -102 -3 c-62 -2 -104 1 -108 8 -7 12 -35 13 -51 2z
m158 -144 c-1 -31 2 -59 8 -63 11 -7 13 -78 4 -175 l-6 -65 -44 0 c-42 0 -44
2 -50 32 -3 18 -3 52 1 75 3 24 7 90 8 148 l2 105 40 0 40 0 -3 -57z"/>
</g>
</svg>
