<?xml version="1.0" standalone="no"?>
<!DOCTYPE svg PUBLIC "-//W3C//DTD SVG 20010904//EN"
 "http://www.w3.org/TR/2001/REC-SVG-20010904/DTD/svg10.dtd">
<svg version="1.0" xmlns="http://www.w3.org/2000/svg"
 width="101.000000pt" height="101.000000pt" viewBox="0 0 101.000000 101.000000"
 preserveAspectRatio="xMidYMid meet">
<metadata>
Created by potrace 1.16, written by Peter Selinger 2001-2019
</metadata>
<g transform="translate(0.000000,101.000000) scale(0.100000,-0.100000)"
fill="#000000" stroke="none">
<path d="M389 973 c-12 -3 -16 -18 -17 -63 0 -33 3 -62 8 -65 12 -8 11 -173
-1 -180 -12 -8 -12 -142 1 -150 13 -8 13 -52 0 -60 -7 -4 -10 -62 -8 -160 3
-142 5 -154 22 -159 11 -3 27 -1 35 4 9 5 59 7 111 5 52 -3 122 -4 155 -4 33
0 103 0 156 -1 l97 -1 4 33 c8 50 -1 70 -26 61 -11 -4 -36 -7 -53 -5 -18 1
-61 2 -95 1 -115 0 -263 0 -285 2 -19 1 -22 9 -28 70 -5 44 -3 80 4 97 7 17 9
68 6 137 -5 114 -5 127 -2 260 l2 80 112 -3 c70 -2 114 1 118 8 8 13 52 13 60
0 4 -6 40 -9 86 -8 87 3 97 10 84 67 -6 28 -7 29 -81 30 -43 1 -74 -3 -74 -9
0 -6 -33 -10 -80 -10 -47 0 -80 4 -80 10 0 6 -18 10 -40 10 -22 0 -40 -4 -40
-10 0 -5 -25 -10 -55 -10 -30 0 -55 4 -55 9 0 11 -21 18 -41 14z"/>
<path d="M73 913 c-16 -6 -18 -113 -3 -113 6 0 10 -16 10 -35 0 -19 -4 -35
-10 -35 -6 0 -10 -30 -10 -70 0 -40 4 -70 10 -70 6 0 10 -11 10 -25 0 -14 -5
-25 -11 -25 -7 0 -9 -48 -7 -149 3 -164 3 -163 65 -154 29 5 30 7 31 51 1 90
1 90 41 94 35 3 36 2 33 -27 -5 -49 11 -61 79 -57 26 2 26 3 18 55 -4 28 -6
86 -3 127 2 41 6 155 8 254 l3 179 -102 -7 c-69 -5 -105 -4 -110 3 -6 11 -31
13 -52 4z m174 -266 l1 -182 -44 4 -44 3 6 109 c5 79 4 109 -4 109 -7 0 -12
11 -12 25 0 14 5 25 10 25 6 0 10 18 10 39 0 39 1 40 38 44 20 2 37 4 37 5 0
1 1 -80 2 -181z"/>
<path d="M663 852 c-8 -5 -11 -25 -9 -53 l3 -44 -73 1 -74 2 3 -198 c2 -217 1
-214 61 -203 34 7 37 20 34 184 l-3 136 25 -1 25 -1 0 -185 c0 -102 -3 -190
-7 -195 -16 -25 14 -41 68 -37 21 2 22 5 16 89 -5 91 6 106 28 37 12 -34 14
-36 49 -29 55 10 77 29 84 72 10 59 8 153 -3 153 -6 0 -10 32 -10 75 0 43 4
75 10 75 14 0 12 28 -2 33 -7 2 -24 0 -37 -5 -13 -5 -43 -6 -67 -2 -34 5 -43
11 -47 29 -2 13 0 30 4 37 15 23 -50 48 -78 30z m142 -289 l0 -116 -33 -1
c-32 -1 -32 -1 -33 49 0 28 -1 78 -2 112 l-2 62 35 4 c19 2 35 4 35 5 0 1 0
-50 0 -115z"/>
</g>
</svg>
