<?xml version="1.0" standalone="no"?>
<!DOCTYPE svg PUBLIC "-//W3C//DTD SVG 20010904//EN"
 "http://www.w3.org/TR/2001/REC-SVG-20010904/DTD/svg10.dtd">
<svg version="1.0" xmlns="http://www.w3.org/2000/svg"
 width="101.000000pt" height="101.000000pt" viewBox="0 0 101.000000 101.000000"
 preserveAspectRatio="xMidYMid meet">
<metadata>
Created by potrace 1.16, written by Peter Selinger 2001-2019
</metadata>
<g transform="translate(0.000000,101.000000) scale(0.100000,-0.100000)"
fill="#000000" stroke="none">
<path d="M515 976 c-4 -19 -2 -43 4 -54 12 -22 14 -93 5 -127 -5 -22 -28 -24
-100 -9 -47 9 -77 -11 -72 -47 3 -16 1 -29 -4 -29 -4 0 -8 16 -8 35 0 19 5 35
10 35 6 0 10 25 10 56 l0 56 -80 -7 c-52 -5 -85 -3 -93 3 -13 11 -68 14 -98 6
-17 -5 -25 -69 -9 -79 12 -8 12 -173 -1 -180 -12 -8 -12 -142 1 -150 13 -8 13
-52 0 -60 -6 -4 -9 -44 -8 -100 3 -103 6 -106 66 -97 37 5 41 21 28 114 -3 25
0 28 28 28 17 0 41 3 53 6 19 5 21 2 18 -29 -4 -39 9 -47 61 -40 l29 5 3 104
c1 64 -2 104 -8 104 -5 0 -10 11 -10 25 0 14 5 25 10 25 6 0 10 26 10 58 0 49
3 59 18 60 25 3 116 1 119 -2 13 -13 -1 -113 -27 -192 -43 -129 -126 -236
-231 -295 -32 -19 -58 -36 -58 -39 0 -3 21 -18 46 -33 58 -36 69 -31 164 72
75 81 134 185 178 313 l28 81 5 -124 6 -124 -32 -28 c-17 -15 -57 -43 -89 -63
l-58 -36 29 -18 c16 -10 33 -23 36 -29 12 -18 25 -13 73 32 26 23 44 34 40 25
-9 -25 11 -86 32 -97 21 -12 79 -24 101 -22 8 1 40 3 70 4 65 4 107 28 126 74
19 44 18 72 -3 80 -10 3 -30 14 -44 25 l-27 18 -6 -34 c-7 -36 -27 -59 -54
-62 -10 -1 -31 -4 -48 -8 -23 -4 -38 -1 -55 13 -21 17 -22 22 -11 46 7 14 10
31 6 36 -3 5 18 35 46 66 28 31 69 82 90 113 21 31 49 63 61 72 l23 15 -48 28
c-55 32 -47 37 -104 -62 -66 -116 -67 -116 -65 -3 1 54 4 108 8 119 7 24 -21
36 -65 26 -22 -5 -30 -3 -30 7 0 10 34 13 160 13 158 0 159 0 165 23 3 13 3
33 -1 44 -6 20 -11 20 -101 14 -66 -5 -99 -4 -108 4 -8 7 -35 10 -62 8 l-48
-3 2 80 c2 44 6 92 9 107 6 26 5 27 -30 21 -24 -4 -36 -2 -36 6 0 6 -9 11 -20
11 -14 0 -21 -9 -25 -34z m-250 -346 l0 -176 -50 0 -50 1 -2 58 c-3 65 -3 99
0 212 l2 80 50 1 50 0 0 -176z"/>
<path d="M680 935 c-19 -19 -30 -35 -24 -35 5 0 36 -25 69 -55 l59 -55 35 34
c31 31 33 37 20 52 -18 22 -108 94 -118 94 -4 0 -22 -16 -41 -35z"/>
</g>
</svg>
