<?xml version="1.0" standalone="no"?>
<!DOCTYPE svg PUBLIC "-//W3C//DTD SVG 20010904//EN"
 "http://www.w3.org/TR/2001/REC-SVG-20010904/DTD/svg10.dtd">
<svg version="1.0" xmlns="http://www.w3.org/2000/svg"
 width="101.000000pt" height="102.000000pt" viewBox="0 0 101.000000 102.000000"
 preserveAspectRatio="xMidYMid meet">
<metadata>
Created by potrace 1.16, written by Peter Selinger 2001-2019
</metadata>
<g transform="translate(0.000000,102.000000) scale(0.100000,-0.100000)"
fill="#000000" stroke="none">
<path d="M636 1004 c-22 -8 -41 -16 -43 -18 -2 -1 8 -28 23 -59 14 -31 23 -61
19 -67 -8 -12 -62 -13 -69 -1 -4 5 -35 9 -70 9 l-63 -1 -1 -108 -1 -108 29 -6
c63 -14 73 0 74 103 0 19 5 22 43 22 24 0 43 5 43 10 0 6 11 10 25 10 14 0 25
-5 25 -11 0 -7 26 -10 78 -8 l78 4 -3 -62 c-3 -70 4 -77 68 -67 42 7 56 28 43
67 -7 21 -8 89 -2 132 3 23 4 23 -109 11 -68 -7 -86 -5 -105 8 -17 12 -19 16
-6 16 9 0 20 4 23 10 7 11 -43 130 -54 129 -3 0 -24 -7 -45 -15z"/>
<path d="M88 913 c-19 -5 -25 -23 -8 -23 6 0 10 -25 10 -55 0 -30 -4 -55 -10
-55 -5 0 -10 -18 -10 -40 0 -22 5 -40 10 -40 6 0 10 -33 10 -80 0 -48 -4 -80
-10 -80 -7 0 -10 -51 -8 -144 3 -159 3 -158 65 -149 30 5 32 8 38 63 4 33 4
64 0 69 -4 7 6 11 27 11 18 0 43 3 55 6 20 5 21 3 17 -33 -7 -53 6 -68 57 -66
23 1 43 4 45 6 2 2 -1 41 -6 88 -5 46 -7 120 -5 164 3 44 7 142 9 218 l4 137
-106 -2 c-59 -1 -120 1 -137 5 -16 3 -38 3 -47 0z m184 -194 c-1 -65 2 -110 8
-114 11 -7 13 -67 4 -101 -5 -18 -13 -20 -57 -20 l-52 1 0 170 0 170 50 1 50
0 -3 -107z"/>
<path d="M403 589 c-15 -15 -17 -67 -4 -87 9 -15 16 -16 141 -9 l95 6 0 -142
c0 -78 -4 -147 -8 -154 -5 -7 -25 -10 -58 -7 l-50 5 14 -28 c8 -16 17 -40 20
-54 11 -42 42 -44 139 -7 15 5 30 17 33 26 12 30 16 172 5 172 -5 0 -10 16
-10 35 0 19 5 35 10 35 6 0 10 26 10 58 l0 57 105 0 c100 0 106 1 111 21 3 12
4 33 2 45 -3 24 -5 24 -108 21 -195 -4 -376 1 -415 13 -11 3 -26 0 -32 -6z"/>
</g>
</svg>
