<?xml version="1.0" standalone="no"?>
<!DOCTYPE svg PUBLIC "-//W3C//DTD SVG 20010904//EN"
 "http://www.w3.org/TR/2001/REC-SVG-20010904/DTD/svg10.dtd">
<svg version="1.0" xmlns="http://www.w3.org/2000/svg"
 width="101.000000pt" height="101.000000pt" viewBox="0 0 101.000000 101.000000"
 preserveAspectRatio="xMidYMid meet">
<metadata>
Created by potrace 1.16, written by Peter Selinger 2001-2019
</metadata>
<g transform="translate(0.000000,101.000000) scale(0.100000,-0.100000)"
fill="#000000" stroke="none">
<path d="M610 994 c-12 -4 -14 -18 -12 -64 3 -39 0 -60 -7 -60 -6 0 -11 -18
-11 -40 0 -22 5 -40 10 -40 11 0 13 -51 4 -98 -6 -27 -10 -30 -57 -36 -33 -5
-53 -4 -55 3 -2 6 -24 11 -48 11 -37 0 -46 -4 -55 -24 -7 -14 -9 -36 -5 -50 6
-25 8 -25 82 -21 l75 4 -48 -91 c-47 -90 -142 -202 -202 -239 l-24 -15 46 -27
c25 -15 50 -27 56 -27 20 0 141 166 183 251 24 48 46 88 51 88 4 1 7 -33 7
-74 0 -47 -4 -75 -11 -75 -14 0 -8 -252 6 -262 18 -13 73 -8 89 8 18 18 20 26
7 39 -4 6 -6 79 -3 164 l5 154 22 -56 c13 -30 37 -75 53 -99 34 -49 109 -121
121 -116 13 5 93 79 89 83 -1 1 -23 13 -47 25 -24 12 -66 44 -92 71 -50 52
-114 168 -100 182 5 5 49 9 99 10 l91 2 6 31 c11 61 6 63 -129 61 l-122 -2 2
142 c1 78 6 147 10 154 15 25 -39 45 -86 33z"/>
<path d="M790 880 c-12 -33 -35 -80 -51 -105 -16 -25 -29 -49 -29 -53 0 -11
68 -34 79 -27 6 3 28 38 50 78 22 41 50 82 61 92 28 25 25 34 -12 49 -76 31
-73 32 -98 -34z"/>
<path d="M449 926 c-2 -3 -17 -7 -33 -10 -16 -3 -30 -7 -32 -9 -2 -2 9 -30 25
-63 17 -32 32 -70 35 -84 7 -40 17 -60 31 -60 10 0 75 19 82 25 4 2 -37 106
-63 156 -22 45 -34 56 -45 45z"/>
<path d="M83 903 c-16 -6 -18 -103 -3 -103 6 0 10 -16 10 -35 0 -19 -4 -35
-10 -35 -6 0 -10 -30 -10 -70 0 -40 4 -70 10 -70 6 0 10 -11 10 -25 0 -14 -5
-25 -11 -25 -7 0 -9 -42 -8 -125 l3 -125 32 -6 c61 -11 73 0 71 66 l-2 58 41
4 c35 3 40 0 36 -14 -9 -35 7 -66 38 -73 63 -14 67 -8 68 130 1 74 -2 126 -8
130 -13 8 -13 52 0 60 6 4 10 55 9 130 l-2 123 -107 -5 c-72 -3 -110 -1 -114
6 -7 11 -31 13 -53 4z m184 -248 l2 -160 -47 0 -47 0 0 160 0 160 45 0 45 0 2
-160z"/>
</g>
</svg>
