<?xml version="1.0" standalone="no"?>
<!DOCTYPE svg PUBLIC "-//W3C//DTD SVG 20010904//EN"
 "http://www.w3.org/TR/2001/REC-SVG-20010904/DTD/svg10.dtd">
<svg version="1.0" xmlns="http://www.w3.org/2000/svg"
 width="101.000000pt" height="101.000000pt" viewBox="0 0 101.000000 101.000000"
 preserveAspectRatio="xMidYMid meet">
<metadata>
Created by potrace 1.16, written by Peter Selinger 2001-2019
</metadata>
<g transform="translate(0.000000,101.000000) scale(0.100000,-0.100000)"
fill="#000000" stroke="none">
<path d="M575 955 l0 -56 -107 7 c-78 5 -108 4 -108 -5 0 -6 -4 -11 -10 -11
-5 0 -10 7 -10 15 0 16 -43 31 -60 20 -15 -9 -150 -9 -171 -1 -23 10 -52 -22
-44 -48 3 -12 6 -46 5 -78 0 -31 4 -59 10 -63 12 -8 13 -52 1 -59 -13 -8 -12
-108 1 -123 12 -15 3 -239 -12 -277 -13 -35 3 -51 51 -49 50 2 54 5 37 32 -10
16 -10 27 -1 52 7 17 10 36 7 43 -3 8 10 12 40 14 l45 2 -4 -39 c-4 -44 7 -52
63 -43 32 4 40 20 33 62 -14 77 -12 482 2 496 3 3 10 -4 17 -15 13 -25 33 -27
54 -6 12 12 33 15 87 13 l72 -3 1 -32 1 -33 -97 5 -96 4 -6 -25 c-13 -49 5
-70 54 -66 8 1 45 3 81 4 l65 3 1 -31 c1 -31 0 -31 -59 -38 -33 -3 -65 -3 -71
1 -5 3 -25 7 -43 9 -32 2 -32 2 -27 -34 7 -45 6 -139 -2 -169 -5 -21 -2 -22
33 -19 22 2 44 6 51 10 13 8 101 -3 101 -13 0 -4 -15 -31 -32 -61 -42 -69
-113 -123 -202 -152 l-71 -23 43 -42 43 -43 52 26 c82 42 144 91 186 150 l38
54 29 -46 c34 -53 105 -110 187 -151 57 -27 59 -28 70 -8 6 11 24 33 39 49 16
16 27 30 24 33 -2 2 -21 6 -42 9 -89 11 -198 83 -235 155 -30 61 -32 60 74 61
55 1 61 -3 52 -31 -5 -18 -13 -21 -51 -17 -25 2 -43 1 -41 -3 2 -3 12 -25 23
-49 18 -41 20 -43 54 -37 75 14 95 36 106 115 14 105 15 102 -14 94 -15 -5
-63 -8 -107 -7 -131 3 -123 1 -122 38 1 25 5 33 21 34 70 5 97 4 145 -3 l54
-8 -5 33 c-3 19 -3 66 2 104 4 39 5 75 3 80 -2 6 -47 11 -100 13 -91 2 -112 8
-113 35 0 7 106 13 207 11 47 -1 52 1 58 23 11 44 -6 71 -40 63 -5 -1 -57 -3
-115 -4 l-105 -1 2 53 1 52 -51 0 -52 0 0 -55z m-335 -147 c0 -16 5 -28 10
-28 6 0 10 -32 10 -75 0 -50 -4 -75 -11 -75 -9 0 -10 -27 -6 -95 l5 -94 -43 1
-43 2 -7 124 c-5 87 -4 130 4 145 6 12 10 45 9 72 l-3 51 37 -1 c35 0 38 -2
38 -27z m547 -144 c1 -28 -3 -35 -24 -40 -13 -4 -35 -2 -49 4 -13 7 -31 9 -40
5 -14 -5 -16 -2 -11 18 4 13 7 29 7 34 0 6 26 11 58 11 l58 2 1 -34z m-214
-133 c-3 -47 -16 -58 -54 -44 -17 7 -36 10 -44 7 -9 -4 -13 4 -12 30 1 28 5
35 16 31 9 -2 23 0 31 5 8 6 26 9 40 8 22 -3 25 -7 23 -37z"/>
</g>
</svg>
