<?xml version="1.0" standalone="no"?>
<!DOCTYPE svg PUBLIC "-//W3C//DTD SVG 20010904//EN"
 "http://www.w3.org/TR/2001/REC-SVG-20010904/DTD/svg10.dtd">
<svg version="1.0" xmlns="http://www.w3.org/2000/svg"
 width="101.000000pt" height="101.000000pt" viewBox="0 0 101.000000 101.000000"
 preserveAspectRatio="xMidYMid meet">
<metadata>
Created by potrace 1.16, written by Peter Selinger 2001-2019
</metadata>
<g transform="translate(0.000000,101.000000) scale(0.100000,-0.100000)"
fill="#000000" stroke="none">
<path d="M590 1004 c-11 -4 -14 -16 -11 -50 2 -26 -3 -57 -10 -70 -11 -22 -17
-23 -64 -18 -67 8 -85 -8 -85 -76 0 -27 4 -52 10 -55 11 -7 12 -153 0 -160
-12 -7 -12 -153 0 -160 12 -8 13 -52 1 -59 -12 -8 -13 -114 -1 -121 13 -8 13
-91 0 -115 -12 -22 7 -29 63 -22 l39 4 -5 43 c-5 39 -4 43 16 44 12 0 51 3 87
6 36 3 93 3 127 0 l62 -6 -5 -39 c-5 -42 7 -51 63 -43 l31 5 6 82 c3 44 3 101
0 126 -5 50 -5 132 -1 382 3 138 1 168 -11 173 -7 3 -19 2 -25 -2 -9 -6 -227
-12 -227 -7 0 12 27 74 38 87 8 9 12 20 8 24 -7 7 -78 33 -86 32 -3 -1 -12 -3
-20 -5z m105 -224 c3 -5 32 -9 63 -7 l57 2 0 -56 0 -57 -65 -6 c-97 -9 -170
-7 -170 4 0 6 -13 10 -29 10 -28 0 -29 1 -27 53 l1 52 48 -4 c27 -1 54 2 60 8
14 14 54 14 62 1z m10 -196 l110 -7 0 -55 0 -55 -80 7 c-44 3 -108 6 -142 6
l-61 0 -4 55 -3 55 35 0 c19 0 85 -3 145 -6z m110 -254 c0 -30 -4 -58 -10 -62
-13 -10 -157 -8 -170 2 -5 5 -32 7 -60 7 l-50 -2 0 55 0 55 145 0 145 0 0 -55z"/>
<path d="M93 882 c-14 -9 -16 -249 -3 -257 12 -7 12 -153 0 -160 -5 -3 -8 -62
-7 -130 2 -136 3 -137 64 -128 33 5 43 22 43 79 0 30 3 32 39 36 22 2 37 0 34
-5 -13 -21 8 -56 37 -62 57 -13 65 -3 68 84 2 47 -1 82 -8 86 -13 8 -13 52 0
60 13 8 13 142 1 150 -13 7 -13 173 -1 180 6 4 9 20 8 36 l-2 30 -82 -6 c-52
-5 -84 -3 -88 3 -7 11 -86 14 -103 4z m170 -203 c-2 -68 1 -128 7 -139 6 -11
8 -42 4 -72 l-6 -53 -43 0 -43 0 4 72 c3 43 1 74 -6 78 -13 8 -13 52 1 60 6 4
9 38 7 86 l-3 78 40 4 c22 2 40 4 40 5 1 1 -1 -52 -2 -119z"/>
</g>
</svg>
