<?xml version="1.0" standalone="no"?>
<!DOCTYPE svg PUBLIC "-//W3C//DTD SVG 20010904//EN"
 "http://www.w3.org/TR/2001/REC-SVG-20010904/DTD/svg10.dtd">
<svg version="1.0" xmlns="http://www.w3.org/2000/svg"
 width="101.000000pt" height="101.000000pt" viewBox="0 0 101.000000 101.000000"
 preserveAspectRatio="xMidYMid meet">
<metadata>
Created by potrace 1.16, written by Peter Selinger 2001-2019
</metadata>
<g transform="translate(0.000000,101.000000) scale(0.100000,-0.100000)"
fill="#000000" stroke="none">
<path d="M460 954 c-12 -3 -14 -18 -12 -64 3 -39 0 -60 -7 -60 -6 0 -11 -18
-11 -40 0 -22 5 -40 10 -40 6 0 10 -33 10 -80 0 -47 -4 -80 -10 -80 -6 0 -10
-30 -10 -70 0 -40 4 -70 10 -70 6 0 10 -11 10 -25 0 -14 -5 -25 -11 -25 -8 0
-10 -25 -5 -88 5 -59 3 -97 -4 -113 -10 -21 -8 -31 10 -62 l22 -37 37 28 c20
16 64 45 97 65 l62 37 -11 43 c-5 23 -11 44 -13 46 -2 2 -26 -13 -54 -33 -27
-20 -51 -36 -53 -36 -1 0 -2 60 -2 134 l0 134 32 4 c23 3 31 0 31 -12 -1 -27
41 -132 73 -182 37 -57 113 -126 178 -161 l46 -25 41 43 41 43 -57 21 c-31 12
-76 35 -100 52 l-42 31 42 43 c23 24 58 51 76 61 19 10 34 22 34 26 0 4 -15
18 -34 30 -41 27 -40 20 -37 243 3 211 3 206 -2 211 -4 4 -106 5 -247 3 -36
-1 -78 1 -95 4 -16 3 -37 3 -45 1z m292 -129 l3 -40 -115 0 -115 0 0 40 0 40
112 0 111 0 4 -40z m-4 -121 c18 -5 22 -13 22 -45 0 -21 -4 -40 -9 -44 -5 -3
-61 -2 -125 1 l-115 7 6 31 c3 17 7 33 9 35 2 2 26 3 53 3 28 -1 53 3 56 8 7
11 67 13 103 4z m80 -187 c-8 -7 -34 -36 -57 -64 -24 -29 -46 -53 -51 -53 -7
0 -31 49 -37 75 -1 6 -5 19 -8 30 -5 19 -1 20 81 22 67 1 83 -1 72 -10z"/>
<path d="M107 919 c-12 -7 -17 -23 -17 -54 0 -25 5 -45 10 -45 6 0 10 -16 10
-35 0 -19 -4 -35 -10 -35 -6 0 -10 -30 -10 -70 0 -40 4 -70 10 -70 6 0 10 -11
10 -25 0 -14 -4 -25 -10 -25 -11 0 -13 -119 -4 -222 7 -71 16 -81 68 -71 25 5
26 7 23 74 l-2 69 32 0 c17 0 38 3 46 6 12 4 14 -2 11 -33 -6 -51 6 -67 51
-66 20 1 38 3 40 5 2 2 -1 49 -7 103 -7 71 -7 108 0 130 14 39 13 357 -2 367
-5 4 -18 2 -28 -3 -17 -9 -180 -5 -196 5 -4 2 -15 0 -25 -5z m164 -132 c-1
-27 2 -54 8 -60 14 -14 14 -54 1 -62 -7 -4 -9 -37 -6 -88 l6 -82 -45 3 c-43 4
-45 6 -46 36 -1 17 0 41 0 53 1 11 -3 24 -8 28 -14 8 -14 52 0 60 6 4 9 37 7
83 l-3 77 45 1 45 0 -4 -49z"/>
</g>
</svg>
