<?xml version="1.0" standalone="no"?>
<!DOCTYPE svg PUBLIC "-//W3C//DTD SVG 20010904//EN"
 "http://www.w3.org/TR/2001/REC-SVG-20010904/DTD/svg10.dtd">
<svg version="1.0" xmlns="http://www.w3.org/2000/svg"
 width="101.000000pt" height="101.000000pt" viewBox="0 0 101.000000 101.000000"
 preserveAspectRatio="xMidYMid meet">
<metadata>
Created by potrace 1.16, written by Peter Selinger 2001-2019
</metadata>
<g transform="translate(0.000000,101.000000) scale(0.100000,-0.100000)"
fill="#000000" stroke="none">
<path d="M409 963 c-12 -3 -16 -18 -17 -63 0 -33 3 -62 8 -65 12 -8 11 -173
-1 -180 -12 -8 -12 -142 1 -150 13 -8 13 -52 0 -60 -6 -4 -9 -61 -8 -150 3
-132 4 -144 22 -149 11 -3 27 -1 35 4 9 5 59 7 111 5 52 -3 122 -4 155 -4 33
0 99 0 146 0 78 -1 87 1 92 19 3 11 3 29 0 39 -5 21 -5 21 -163 20 -153 0
-266 0 -287 2 -20 1 -21 5 -17 74 3 45 1 76 -6 80 -13 8 -13 52 0 60 12 7 12
153 0 160 -12 8 -11 147 1 161 6 8 9 35 7 61 l-3 48 104 -3 c66 -1 108 2 117
9 13 11 116 7 201 -7 25 -5 32 -2 37 14 4 11 4 31 1 45 -6 23 -11 25 -76 26
-40 0 -69 -3 -69 -9 0 -6 -34 -10 -80 -10 -47 0 -80 4 -80 10 0 6 -18 10 -40
10 -22 0 -40 -4 -40 -10 0 -5 -25 -10 -55 -10 -30 0 -55 4 -55 9 0 11 -21 18
-41 14z"/>
<path d="M86 905 c-11 -11 -15 -41 -15 -124 -1 -63 3 -113 9 -116 13 -8 13
-52 0 -60 -12 -7 -12 -67 -3 -232 6 -110 10 -116 66 -106 22 4 24 8 14 24 -9
14 -9 26 0 50 7 17 10 36 7 43 -3 8 10 12 42 14 37 1 45 -1 40 -13 -3 -9 0
-26 6 -40 8 -19 8 -28 -2 -40 -7 -8 -10 -19 -6 -22 7 -7 74 -8 81 -1 4 4 5 34
5 203 0 50 1 163 3 253 2 136 -1 164 -13 172 -20 13 -83 13 -96 0 -8 -8 -25
-8 -55 -1 -59 14 -65 14 -83 -4z m160 -255 l2 -179 -42 1 -41 2 2 58 c2 31 -2
60 -7 63 -13 8 -13 52 1 60 6 4 9 38 7 86 l-3 78 40 4 c22 2 40 4 40 5 0 1 1
-79 1 -178z"/>
<path d="M504 783 c-4 -14 -1 -36 5 -50 10 -23 16 -24 64 -21 28 2 59 7 67 11
12 6 15 -3 15 -50 l0 -58 -67 2 c-63 2 -66 0 -72 -24 -14 -53 -1 -63 72 -60
l67 2 1 -72 1 -73 -32 -6 c-18 -3 -42 -1 -52 5 -42 22 -79 -10 -66 -58 6 -23
39 -34 64 -20 11 5 85 7 182 3 160 -5 164 -5 170 15 3 12 3 30 0 41 -5 18 -13
20 -67 20 -125 -2 -116 -7 -113 71 l2 69 40 2 c22 1 57 1 77 0 32 -2 38 1 44
22 13 55 6 61 -82 61 l-80 0 1 62 0 63 38 0 c21 0 49 -7 62 -16 13 -9 33 -13
44 -9 22 7 35 47 25 77 -5 16 -11 18 -32 12 -15 -5 -47 -7 -72 -6 -25 1 -102
3 -173 5 l-127 4 -6 -24z"/>
</g>
</svg>
