<?xml version="1.0" standalone="no"?>
<!DOCTYPE svg PUBLIC "-//W3C//DTD SVG 20010904//EN"
 "http://www.w3.org/TR/2001/REC-SVG-20010904/DTD/svg10.dtd">
<svg version="1.0" xmlns="http://www.w3.org/2000/svg"
 width="101.000000pt" height="101.000000pt" viewBox="0 0 101.000000 101.000000"
 preserveAspectRatio="xMidYMid meet">
<metadata>
Created by potrace 1.16, written by Peter Selinger 2001-2019
</metadata>
<g transform="translate(0.000000,101.000000) scale(0.100000,-0.100000)"
fill="#000000" stroke="none">
<path d="M690 994 c-12 -4 -15 -25 -15 -110 l0 -106 -38 6 c-57 9 -85 -1 -92
-34 -10 -44 9 -70 51 -70 19 0 43 4 52 9 15 8 17 4 16 -39 -1 -27 -4 -52 -7
-57 -3 -4 -5 -24 -5 -43 0 -59 -53 -171 -101 -214 -11 -11 -21 -22 -21 -27 0
-12 72 -50 86 -45 19 7 66 92 95 174 l26 74 55 -108 c30 -60 57 -115 59 -122
3 -10 17 -6 52 13 l47 27 -22 36 c-12 21 -53 86 -91 145 -61 94 -70 114 -71
157 l-1 50 38 0 c21 0 49 -7 62 -16 46 -30 86 9 71 70 -6 24 -9 25 -90 23
l-84 -2 4 84 c2 46 9 90 15 97 18 22 -43 41 -91 28z"/>
<path d="M393 930 c-28 -11 -28 -12 -4 -75 11 -27 25 -65 32 -83 10 -28 16
-32 38 -28 39 6 61 17 61 29 0 6 -14 46 -32 89 -34 82 -43 89 -95 68z"/>
<path d="M54 865 c-3 -14 -1 -31 4 -38 14 -16 14 -174 1 -182 -12 -8 -12 -142
1 -150 13 -8 13 -48 -1 -62 -7 -7 -8 -43 -4 -111 8 -110 11 -114 73 -104 33 4
41 19 20 40 -9 9 -9 18 0 37 6 13 9 31 7 38 -4 9 7 13 38 15 42 1 44 0 44 -28
0 -17 3 -33 7 -37 8 -8 75 -8 83 0 11 11 15 285 4 291 -14 9 -14 53 -1 61 15
9 11 238 -4 247 -17 11 -96 9 -96 -2 0 -5 -16 -10 -35 -10 -19 0 -35 5 -35 10
0 6 -22 10 -50 10 -45 0 -50 -2 -56 -25z m178 -118 c-2 -26 1 -53 7 -61 13
-15 13 -154 0 -162 -6 -3 -7 -24 -4 -47 l7 -42 -44 0 c-38 0 -44 3 -49 25 -11
41 -10 108 1 115 6 4 9 49 8 113 l-3 107 40 0 40 0 -3 -48z"/>
<path d="M368 653 c-30 -8 -35 -96 -5 -92 47 6 57 -1 57 -36 0 -19 5 -35 10
-35 15 0 12 -67 -2 -73 -10 -4 -10 -7 0 -15 9 -6 12 -27 10 -63 -3 -57 4 -49
-112 -134 l-27 -20 32 -38 32 -39 44 46 c47 50 60 52 114 20 60 -36 146 -58
204 -54 11 1 67 2 123 3 l104 2 13 31 c30 72 30 73 -12 68 -21 -3 -62 -6 -91
-8 -29 -3 -59 -10 -67 -16 -9 -7 -26 -10 -42 -6 -33 8 -62 13 -120 20 -44 5
-72 17 -96 41 -13 12 -15 46 -11 203 l4 189 -53 7 c-56 6 -82 6 -109 -1z"/>
</g>
</svg>
