<?xml version="1.0" standalone="no"?>
<!DOCTYPE svg PUBLIC "-//W3C//DTD SVG 20010904//EN"
 "http://www.w3.org/TR/2001/REC-SVG-20010904/DTD/svg10.dtd">
<svg version="1.0" xmlns="http://www.w3.org/2000/svg"
 width="101.000000pt" height="101.000000pt" viewBox="0 0 101.000000 101.000000"
 preserveAspectRatio="xMidYMid meet">
<metadata>
Created by potrace 1.16, written by Peter Selinger 2001-2019
</metadata>
<g transform="translate(0.000000,101.000000) scale(0.100000,-0.100000)"
fill="#000000" stroke="none">
<path d="M418 993 c-17 -4 -23 -20 -20 -53 1 -8 4 -90 7 -181 6 -166 6 -167
-18 -195 l-25 -28 25 -37 24 -37 71 44 c39 24 86 48 104 54 32 11 33 13 30 56
-2 25 -6 47 -10 51 -3 3 -31 -11 -62 -32 l-57 -37 6 47 c4 26 7 60 7 75 0 23
5 28 29 32 16 2 38 1 50 -3 37 -14 61 28 43 72 -6 14 -20 17 -68 15 l-61 -1 3
55 c2 30 6 63 9 73 4 9 3 18 -1 18 -5 1 -19 3 -30 4 -12 1 -25 4 -30 7 -5 2
-17 3 -26 1z"/>
<path d="M643 962 c-3 -12 0 -28 6 -35 13 -17 13 -168 -1 -185 -14 -16 -5
-170 11 -200 19 -35 77 -54 141 -47 81 9 109 23 131 66 25 51 24 58 -21 97
l-38 32 -11 -44 c-13 -52 -20 -58 -73 -60 -46 -3 -51 4 -52 73 l-1 46 80 58
c44 32 90 60 103 63 12 4 22 10 22 14 0 9 -90 84 -93 79 -18 -28 -83 -101 -96
-108 -16 -9 -16 -4 -10 60 5 38 9 79 11 91 3 20 -2 22 -50 22 -47 1 -54 -2
-59 -22z"/>
<path d="M65 880 c-7 -33 1 -70 16 -70 5 0 9 -34 9 -75 0 -43 -4 -75 -10 -75
-6 0 -10 -30 -10 -70 0 -45 4 -70 11 -70 13 0 3 -157 -11 -196 -11 -29 -2 -61
19 -67 9 -2 32 -2 49 1 27 3 30 7 21 18 -9 11 -9 21 -1 39 6 14 9 31 7 38 -4
9 7 13 40 15 l45 2 -6 -34 c-6 -38 9 -47 64 -38 31 4 38 15 33 52 -4 39 -11
169 -11 200 3 183 8 298 14 310 15 37 -8 45 -143 47 l-130 2 -6 -29z m175 -90
c0 -16 5 -30 11 -32 8 -3 9 -47 4 -153 l-7 -150 -43 0 -43 0 -6 65 c-9 97 -7
168 4 175 6 4 9 32 8 63 l-3 57 37 2 c35 1 38 -1 38 -27z"/>
<path d="M579 483 c-6 -16 -9 -42 -7 -60 3 -28 1 -33 -22 -37 -25 -5 -85 -2
-152 7 -29 4 -37 2 -41 -13 -14 -52 23 -92 64 -69 18 9 66 10 125 3 25 -4 32
-10 33 -27 0 -12 3 -50 5 -85 3 -35 1 -74 -4 -87 -10 -27 5 -34 62 -27 34 4
36 6 28 27 -5 13 -7 52 -4 87 2 35 5 73 5 84 1 15 8 22 23 23 11 0 55 3 96 6
41 3 87 1 102 -4 23 -8 27 -6 31 16 10 55 4 59 -106 60 -148 2 -144 1 -142 32
1 14 5 35 9 47 5 16 1 23 -19 32 -45 21 -74 15 -86 -15z"/>
</g>
</svg>
