<?xml version="1.0" standalone="no"?>
<!DOCTYPE svg PUBLIC "-//W3C//DTD SVG 20010904//EN"
 "http://www.w3.org/TR/2001/REC-SVG-20010904/DTD/svg10.dtd">
<svg version="1.0" xmlns="http://www.w3.org/2000/svg"
 width="101.000000pt" height="104.000000pt" viewBox="0 0 101.000000 104.000000"
 preserveAspectRatio="xMidYMid meet">
<metadata>
Created by potrace 1.16, written by Peter Selinger 2001-2019
</metadata>
<g transform="translate(0.000000,104.000000) scale(0.100000,-0.100000)"
fill="#000000" stroke="none">
<path d="M580 1027 c-14 -6 -27 -12 -29 -14 -2 -1 11 -30 29 -64 l33 -62 -104
7 c-121 9 -159 0 -159 -38 0 -37 27 -59 67 -54 30 4 36 0 50 -26 8 -17 35 -52
60 -77 l45 -46 -69 -28 c-37 -15 -78 -27 -90 -27 -13 0 -28 -7 -34 -14 -22
-27 -46 -16 -53 24 -9 56 -7 102 4 102 6 0 10 18 10 40 0 22 -4 40 -10 40 -15
0 -13 107 3 114 6 3 -24 2 -69 -1 -54 -4 -88 -2 -103 7 -13 7 -37 9 -56 6 -30
-6 -33 -9 -33 -46 0 -22 3 -42 8 -45 12 -8 11 -173 -1 -180 -12 -8 -12 -142 1
-150 13 -8 13 -52 0 -60 -6 -3 -10 -39 -9 -80 1 -79 8 -88 62 -78 23 5 27 12
32 58 4 30 5 57 2 62 -3 5 14 8 38 8 46 0 44 2 47 -72 1 -35 18 -44 63 -36 18
4 24 10 20 20 -3 9 -2 64 1 124 7 106 8 109 26 93 10 -10 18 -23 18 -31 0 -7
4 -13 8 -13 12 0 128 48 192 79 30 15 60 27 65 26 6 -1 35 -13 66 -27 30 -15
75 -32 100 -39 24 -7 49 -16 55 -21 19 -14 38 1 56 44 10 23 16 43 14 45 -4 5
-43 14 -76 18 -47 6 -121 28 -138 41 -2 1 14 26 36 56 22 29 45 63 51 76 9 17
18 21 32 17 53 -17 99 18 84 66 -6 19 -12 20 -81 14 -48 -5 -79 -4 -87 3 -7 6
-27 10 -45 10 -18 -1 -35 2 -39 5 -3 4 1 7 10 7 23 0 22 3 -14 71 -33 61 -44
67 -89 46z m-338 -309 c-1 -64 2 -109 8 -113 11 -7 12 -81 2 -105 -5 -10 -22
-15 -47 -16 l-40 0 0 171 0 170 40 0 40 0 -3 -107z m470 64 c-11 -15 -32 -40
-48 -55 l-27 -28 -44 43 c-24 23 -43 45 -43 50 0 7 49 13 133 16 l48 2 -19
-28z"/>
<path d="M482 511 c-9 -5 -13 -32 -12 -87 1 -43 -1 -90 -4 -104 -8 -36 -86
-104 -150 -130 -31 -12 -56 -25 -55 -29 0 -3 18 -21 39 -39 l39 -33 48 28 c76
44 149 121 162 170 18 68 24 215 9 225 -17 10 -59 10 -76 -1z"/>
<path d="M729 513 c-15 -4 -17 -28 -17 -213 0 -230 -2 -222 66 -212 31 4 43
24 22 37 -15 9 -13 162 3 169 10 5 10 7 0 12 -15 7 -18 71 -4 76 5 2 11 29 12
61 3 72 -15 88 -82 70z"/>
</g>
</svg>
