<?xml version="1.0" standalone="no"?>
<!DOCTYPE svg PUBLIC "-//W3C//DTD SVG 20010904//EN"
 "http://www.w3.org/TR/2001/REC-SVG-20010904/DTD/svg10.dtd">
<svg version="1.0" xmlns="http://www.w3.org/2000/svg"
 width="101.000000pt" height="102.000000pt" viewBox="0 0 101.000000 102.000000"
 preserveAspectRatio="xMidYMid meet">
<metadata>
Created by potrace 1.16, written by Peter Selinger 2001-2019
</metadata>
<g transform="translate(0.000000,102.000000) scale(0.100000,-0.100000)"
fill="#000000" stroke="none">
<path d="M576 951 c-54 -79 -113 -137 -161 -157 l-34 -14 17 -42 c19 -50 29
-60 59 -55 17 3 20 0 17 -16 -9 -49 -37 -119 -69 -171 -22 -37 -30 -58 -22
-61 7 -2 27 -8 45 -14 31 -10 33 -9 52 30 17 33 25 39 53 39 17 0 48 3 67 6
l35 6 0 -61 0 -61 -34 -6 c-23 -5 -36 -2 -43 7 -7 11 -11 11 -15 2 -6 -15 -73
-18 -73 -3 0 15 -90 13 -90 -2 -1 -7 -7 5 -15 27 -10 27 -13 67 -10 130 3 49
7 150 9 223 l4 133 -82 -7 c-57 -4 -90 -3 -105 6 -13 6 -37 9 -55 6 l-31 -6
-2 -82 c-1 -45 2 -87 7 -93 13 -15 11 -173 -1 -181 -7 -4 -9 -51 -7 -123 2
-64 0 -125 -4 -136 -12 -33 6 -49 53 -48 50 2 54 5 38 31 -10 16 -10 26 -1 46
6 14 9 32 6 40 -4 9 2 14 18 14 13 1 34 2 48 4 23 3 25 0 23 -34 -2 -42 15
-51 69 -38 18 4 29 8 25 9 -5 1 -5 6 -1 12 5 8 9 8 14 -1 8 -13 16 -13 125 -5
87 7 139 -1 131 -20 -2 -7 0 -27 6 -43 9 -23 8 -38 -5 -69 -27 -68 -8 -96 61
-85 27 3 31 8 27 26 -5 20 -8 104 -4 157 1 30 -1 30 136 31 82 1 93 4 99 20 3
11 3 30 0 42 -5 22 -8 23 -45 13 -30 -8 -49 -7 -80 3 -22 7 -55 10 -73 7 l-33
-5 0 57 0 56 94 2 c63 2 98 7 103 15 7 12 2 57 -8 67 -2 2 -46 6 -98 9 -53 2
-93 8 -91 12 3 4 5 30 6 57 l2 51 55 6 c52 6 57 5 78 -21 l22 -27 41 27 42 28
-20 27 c-18 25 -91 97 -152 151 -26 22 -28 22 -60 6 -19 -10 -36 -19 -38 -21
-3 -3 14 -23 37 -47 l41 -42 -42 -2 c-23 -1 -78 -4 -121 -5 l-79 -4 98 93 c54
51 96 95 94 97 -4 3 -100 46 -104 46 -1 0 -23 -31 -49 -69z m-299 -329 l3
-187 -50 3 -50 4 7 104 c4 75 3 104 -5 104 -7 0 -12 15 -12 35 0 19 5 35 10
35 6 0 10 18 10 39 0 41 6 46 65 50 19 1 20 -6 22 -187z m353 76 c3 -3 5 -32
5 -65 l0 -58 -47 -3 c-55 -4 -58 2 -25 59 19 34 20 41 7 49 -8 5 -21 8 -27 5
-7 -2 -13 0 -13 4 0 5 4 11 10 13 18 6 85 3 90 -4z"/>
</g>
</svg>
