<?xml version="1.0" standalone="no"?>
<!DOCTYPE svg PUBLIC "-//W3C//DTD SVG 20010904//EN"
 "http://www.w3.org/TR/2001/REC-SVG-20010904/DTD/svg10.dtd">
<svg version="1.0" xmlns="http://www.w3.org/2000/svg"
 width="101.000000pt" height="102.000000pt" viewBox="0 0 101.000000 102.000000"
 preserveAspectRatio="xMidYMid meet">
<metadata>
Created by potrace 1.16, written by Peter Selinger 2001-2019
</metadata>
<g transform="translate(0.000000,102.000000) scale(0.100000,-0.100000)"
fill="#000000" stroke="none">
<path d="M608 976 c2 -25 -2 -59 -9 -75 l-14 -31 -102 7 -102 6 -7 -27 c-3
-14 -3 -55 1 -91 6 -60 8 -64 36 -70 34 -8 70 2 68 18 -1 7 -1 26 0 43 1 28 5
32 38 37 45 8 54 -3 42 -49 -31 -111 -122 -277 -184 -334 l-27 -25 7 101 c5
70 4 104 -4 108 -14 9 -14 53 -1 61 10 6 13 206 3 231 -3 9 -17 12 -46 8 -23
-3 -80 -1 -127 4 -47 5 -90 7 -96 5 -8 -3 -11 -34 -8 -96 4 -104 4 -105 1
-354 -2 -200 -4 -195 60 -186 29 5 30 7 31 51 1 90 0 88 48 90 33 1 44 -2 44
-13 0 -15 16 -19 60 -16 24 1 24 1 -10 -31 -19 -18 -45 -40 -58 -48 l-23 -15
44 -37 45 -37 48 52 c27 29 64 70 82 92 19 22 31 32 28 22 -3 -9 -1 -28 5 -40
14 -30 -4 -133 -27 -158 -16 -17 -15 -21 10 -54 28 -36 40 -42 51 -25 3 5 44
31 90 56 46 26 86 52 88 58 2 6 -1 28 -7 48 l-11 38 -52 -35 -51 -34 -6 23
c-9 35 -5 175 4 181 5 3 8 29 8 58 -1 58 9 100 22 92 5 -3 18 -35 30 -71 46
-145 117 -254 209 -328 l45 -35 43 47 c24 25 43 47 43 48 0 2 -21 13 -47 26
-27 13 -75 49 -108 81 l-59 57 58 59 c32 33 74 67 92 77 19 10 34 22 34 26 0
19 -85 80 -94 66 -27 -42 -112 -136 -117 -131 -7 8 -19 65 -23 116 -3 32 -20
47 -55 47 -19 0 -22 4 -17 23 4 12 12 44 19 70 l12 48 75 -3 c61 -2 74 -6 71
-18 -18 -68 -10 -88 41 -96 53 -9 68 12 67 97 -1 75 -17 106 -48 93 -9 -4 -55
-8 -104 -8 -74 -1 -86 1 -81 14 3 8 8 26 10 39 3 13 9 32 14 42 6 10 10 20 10
22 0 8 -34 19 -75 23 l-40 5 3 -45z m-356 -228 c-1 -31 2 -59 8 -63 11 -7 12
-136 1 -175 -6 -19 -13 -24 -32 -22 -13 2 -34 3 -46 4 -17 0 -24 8 -29 34 -3
19 -1 47 5 62 5 15 9 70 8 122 l-2 95 45 0 45 0 -3 -57z"/>
</g>
</svg>
