<?xml version="1.0" standalone="no"?>
<!DOCTYPE svg PUBLIC "-//W3C//DTD SVG 20010904//EN"
 "http://www.w3.org/TR/2001/REC-SVG-20010904/DTD/svg10.dtd">
<svg version="1.0" xmlns="http://www.w3.org/2000/svg"
 width="101.000000pt" height="101.000000pt" viewBox="0 0 101.000000 101.000000"
 preserveAspectRatio="xMidYMid meet">
<metadata>
Created by potrace 1.16, written by Peter Selinger 2001-2019
</metadata>
<g transform="translate(0.000000,101.000000) scale(0.100000,-0.100000)"
fill="#000000" stroke="none">
<path d="M697 980 c3 -12 -1 -28 -10 -38 -8 -9 -15 -34 -15 -54 0 -20 -3 -42
-7 -48 -3 -5 -8 -23 -11 -38 -2 -15 -21 -61 -42 -103 l-39 -77 36 -12 c20 -6
41 -13 47 -16 7 -3 23 25 40 68 15 40 30 76 33 79 3 4 27 10 52 13 l47 7 1
-91 c1 -59 -2 -90 -9 -90 -7 0 -10 -45 -9 -137 0 -76 0 -151 0 -167 -2 -53
-45 -80 -90 -57 -10 6 -27 8 -39 4 -21 -5 -21 -5 6 -62 15 -31 28 -58 29 -60
7 -11 129 25 152 45 24 21 26 28 28 120 1 55 3 110 5 124 15 93 18 133 22 285
l5 171 -74 1 c-41 1 -79 4 -85 8 -5 3 1 28 15 62 14 30 25 57 25 58 0 4 -87
25 -103 25 -10 0 -13 -7 -10 -20z"/>
<path d="M429 953 c-7 -21 -14 -44 -15 -50 -6 -36 -57 -152 -78 -178 l-24 -30
4 99 c4 74 1 102 -8 108 -16 9 -220 9 -235 0 -6 -4 -9 -40 -7 -92 2 -47 3
-103 3 -125 -2 -173 2 -399 6 -403 7 -7 74 -6 81 1 2 2 5 24 6 49 2 43 3 44
35 45 27 1 33 -2 29 -15 -11 -34 13 -48 72 -44 21 2 23 5 17 34 -4 17 -4 92 1
167 4 75 9 128 12 118 3 -14 13 -17 57 -14 l53 2 -16 -29 c-9 -16 -36 -50 -59
-75 -35 -40 -41 -53 -39 -85 2 -20 6 -39 9 -42 6 -6 32 -6 72 0 17 3 48 8 70
10 22 3 58 7 79 10 45 6 56 18 56 63 0 29 -2 31 -37 31 -21 0 -42 -3 -47 -6
-6 -3 -19 -7 -30 -8 -12 -1 -30 -4 -42 -7 -17 -4 -3 23 63 121 47 70 93 136
104 148 19 20 19 20 -27 43 -26 12 -49 19 -52 16 -3 -3 -18 -29 -33 -58 -24
-47 -29 -52 -55 -49 -16 2 -30 5 -32 7 -6 6 96 201 112 214 9 8 16 18 16 22 0
11 -42 29 -82 35 -23 4 -28 0 -39 -33z m-207 -195 c-1 -31 2 -59 8 -63 11 -7
13 -78 4 -176 l-7 -67 -33 1 c-30 1 -35 5 -40 34 -3 18 -3 52 1 75 3 24 7 91
8 149 l2 105 30 0 30 -1 -3 -57z"/>
<path d="M648 573 c-22 -5 -21 -1 -3 -54 9 -24 17 -55 19 -69 10 -78 14 -81
83 -65 37 8 37 7 -1 125 -20 60 -23 65 -51 66 -16 0 -38 -1 -47 -3z"/>
<path d="M585 349 c-16 -5 -43 -11 -60 -14 -16 -2 -41 -7 -55 -10 -14 -3 -43
-8 -65 -11 -22 -3 -49 -6 -60 -8 -11 -2 -26 -4 -33 -5 -9 -1 -12 -12 -8 -38 8
-73 9 -74 84 -52 36 10 68 17 70 14 3 -2 13 0 23 5 10 6 30 12 46 14 79 11 91
17 96 50 7 49 -3 64 -38 55z"/>
</g>
</svg>
