<?xml version="1.0" standalone="no"?>
<!DOCTYPE svg PUBLIC "-//W3C//DTD SVG 20010904//EN"
 "http://www.w3.org/TR/2001/REC-SVG-20010904/DTD/svg10.dtd">
<svg version="1.0" xmlns="http://www.w3.org/2000/svg"
 width="101.000000pt" height="101.000000pt" viewBox="0 0 101.000000 101.000000"
 preserveAspectRatio="xMidYMid meet">
<metadata>
Created by potrace 1.16, written by Peter Selinger 2001-2019
</metadata>
<g transform="translate(0.000000,101.000000) scale(0.100000,-0.100000)"
fill="#000000" stroke="none">
<path d="M638 994 c-19 -6 -25 -34 -8 -34 6 0 10 -25 10 -55 0 -30 -4 -55 -10
-55 -5 0 -10 -18 -10 -40 0 -22 5 -40 11 -40 6 0 9 -14 7 -32 -2 -18 -6 -32
-10 -30 -5 1 -27 2 -50 2 l-43 0 0 64 c0 47 3 62 13 59 17 -7 72 17 72 31 0 6
-11 28 -25 48 l-24 36 -65 -24 c-35 -12 -66 -20 -69 -17 -3 3 -11 1 -18 -3 -7
-4 -22 -9 -34 -11 -11 -1 -29 -4 -40 -6 -11 -2 -26 2 -34 10 -7 8 -21 11 -30
8 -22 -9 -162 -9 -182 -1 -20 8 -52 -21 -42 -37 6 -9 11 -147 13 -312 0 -117
-6 -271 -12 -280 -10 -15 5 -34 27 -36 54 -5 61 -1 62 44 3 85 2 83 42 84 36
2 37 1 38 -39 2 -50 5 -52 49 -51 44 1 52 8 36 33 -16 26 -15 52 3 76 14 19
14 19 15 -2 0 -32 8 -34 57 -13 24 10 48 19 53 19 16 0 15 -161 -2 -171 -6 -4
-29 -6 -50 -4 -27 3 -38 0 -38 -10 0 -8 4 -16 9 -20 5 -3 12 -18 16 -34 8 -37
33 -43 95 -25 47 14 68 38 62 72 -4 17 4 15 48 -9 l39 -22 48 41 49 40 13 -30
c18 -41 72 -93 110 -106 28 -10 35 -8 61 16 18 16 34 46 42 75 l12 48 -39 34
c-22 18 -41 32 -42 31 -1 -1 -5 -17 -8 -36 -9 -53 -23 -60 -51 -25 -13 17 -26
38 -30 47 -4 15 58 137 107 210 11 15 19 29 19 32 0 5 -103 37 -106 33 -1 -1
-11 -31 -23 -67 -26 -80 -40 -104 -42 -75 -1 11 -3 31 -5 45 -2 14 -6 51 -8
82 l-4 56 66 4 c37 2 75 0 85 -5 41 -19 74 16 62 65 -6 22 -9 23 -111 23
l-104 0 4 122 c3 68 8 128 12 134 3 6 2 15 -3 20 -12 12 -71 19 -95 13z m-292
-165 c14 -28 18 -30 54 -24 l38 6 4 -53 3 -53 -52 0 c-58 0 -59 0 -68 -36 -11
-42 18 -63 78 -56 41 5 48 4 43 -9 -3 -9 -1 -25 5 -36 15 -27 3 -86 -19 -92
-9 -3 -28 -7 -42 -10 -14 -2 -36 -7 -50 -11 -25 -6 -25 -6 -23 61 1 38 -2 73
-6 78 -13 16 -13 147 0 162 6 8 9 36 7 63 -3 54 4 56 28 10z m-145 -19 c14 0
19 -7 19 -25 0 -14 5 -25 10 -25 6 0 10 -32 10 -75 0 -49 -4 -75 -11 -75 -8 0
-10 -26 -7 -84 l4 -85 -37 2 -36 1 -7 75 c-9 108 -7 169 4 176 6 4 9 32 8 66
-3 47 -1 58 10 54 8 -3 22 -5 33 -5z m435 -235 c0 -27 4 -68 7 -90 4 -22 9
-51 11 -65 3 -14 9 -40 15 -58 9 -31 8 -33 -42 -71 -94 -69 -93 -69 -101 0 -3
33 -2 68 3 78 5 9 9 25 8 36 -2 14 8 22 37 30 42 12 60 43 49 85 -7 25 -5 25
-55 -1 l-41 -21 6 39 c4 21 7 49 7 63 0 23 4 25 48 25 l47 0 1 -50z"/>
<path d="M773 889 c-18 -12 -33 -23 -33 -25 0 -2 16 -24 35 -50 19 -25 35 -50
35 -55 0 -5 5 -9 10 -9 15 0 80 44 80 54 0 14 -73 106 -85 106 -5 0 -25 -10
-42 -21z"/>
</g>
</svg>
