<?xml version="1.0" standalone="no"?>
<!DOCTYPE svg PUBLIC "-//W3C//DTD SVG 20010904//EN"
 "http://www.w3.org/TR/2001/REC-SVG-20010904/DTD/svg10.dtd">
<svg version="1.0" xmlns="http://www.w3.org/2000/svg"
 width="101.000000pt" height="101.000000pt" viewBox="0 0 101.000000 101.000000"
 preserveAspectRatio="xMidYMid meet">
<metadata>
Created by potrace 1.16, written by Peter Selinger 2001-2019
</metadata>
<g transform="translate(0.000000,101.000000) scale(0.100000,-0.100000)"
fill="#000000" stroke="none">
<path d="M138 973 c-23 -6 -34 -49 -18 -68 8 -10 10 -46 7 -125 l-6 -110 25 0
c13 0 24 5 24 12 0 13 239 3 254 -12 5 -5 9 -39 9 -77 l1 -68 -74 -3 c-51 -2
-76 1 -82 10 -8 10 -11 10 -15 1 -6 -15 -73 -18 -73 -3 0 6 -27 10 -60 10 -55
0 -60 -2 -66 -25 -3 -14 -3 -36 0 -50 6 -24 9 -25 54 -19 61 9 290 9 298 1 11
-10 -55 -105 -99 -142 -44 -38 -128 -74 -186 -80 -20 -2 -51 -6 -69 -10 l-32
-8 34 -37 c18 -20 35 -43 38 -50 7 -21 68 -4 167 46 97 48 173 119 208 194 10
22 20 40 23 40 3 0 19 -23 35 -51 41 -71 123 -143 208 -184 79 -38 157 -55
157 -36 0 7 13 32 30 56 34 49 30 53 -47 61 -104 10 -237 81 -287 153 -32 45
-32 49 -3 50 86 6 231 5 274 -2 51 -7 53 -7 59 18 13 53 -20 101 -52 74 -8 -6
-33 -11 -57 -11 -23 0 -52 1 -64 1 -52 0 -121 2 -168 4 l-50 2 0 35 c0 19 7
50 14 68 13 32 14 32 80 32 54 -1 62 -3 46 -12 -11 -6 -21 -12 -23 -13 -7 -5
53 -105 63 -105 26 0 85 22 85 32 0 6 -11 31 -25 55 l-26 43 38 1 c21 1 49 4
63 8 l25 6 2 142 1 142 -29 6 c-16 4 -33 4 -39 0 -9 -5 -92 -6 -238 -2 -19 0
-37 -6 -42 -13 -11 -18 -12 -204 -1 -250 l8 -35 -39 3 c-21 2 -38 9 -39 16 0
6 -1 70 0 141 l0 130 -77 0 c-42 0 -111 3 -152 6 -41 4 -83 4 -92 2z m217
-153 l0 -55 -67 0 -66 0 1 55 2 55 65 0 65 0 0 -55z m419 -2 l-2 -63 -46 -3
c-27 -2 -46 1 -46 7 0 6 -13 11 -28 11 -28 0 -28 2 -28 50 l1 49 45 4 c25 2
59 4 75 5 l30 2 -1 -62z"/>
</g>
</svg>
