<?xml version="1.0" standalone="no"?>
<!DOCTYPE svg PUBLIC "-//W3C//DTD SVG 20010904//EN"
 "http://www.w3.org/TR/2001/REC-SVG-20010904/DTD/svg10.dtd">
<svg version="1.0" xmlns="http://www.w3.org/2000/svg"
 width="101.000000pt" height="102.000000pt" viewBox="0 0 101.000000 102.000000"
 preserveAspectRatio="xMidYMid meet">
<metadata>
Created by potrace 1.16, written by Peter Selinger 2001-2019
</metadata>
<g transform="translate(0.000000,102.000000) scale(0.100000,-0.100000)"
fill="#000000" stroke="none">
<path d="M265 969 l0 -52 -55 1 c-30 1 -65 4 -77 8 -18 5 -25 1 -33 -21 -22
-59 7 -79 98 -68 28 3 52 3 52 -1 0 -41 -99 -150 -147 -162 -31 -8 -29 -20 7
-39 16 -9 30 -18 30 -20 0 -3 -22 -3 -50 -1 -46 4 -50 3 -56 -20 -3 -13 -3
-35 0 -49 6 -24 9 -25 54 -19 26 3 90 6 142 6 199 -2 227 -1 290 3 36 2 93 1
126 -2 72 -6 65 11 67 -176 0 -88 -3 -131 -12 -140 -7 -6 -34 -12 -61 -12
l-49 0 -6 50 c-5 48 -2 136 8 217 l5 38 -61 -8 c-73 -8 -253 -7 -319 2 l-46 6
4 -37 c12 -88 14 -199 5 -247 -5 -28 -7 -53 -5 -56 6 -5 85 -3 91 4 3 2 5 20
6 39 1 28 5 35 21 36 12 0 50 3 86 6 36 3 80 3 98 0 29 -5 32 -8 27 -35 -6
-33 -2 -35 67 -31 40 3 51 -13 57 -77 2 -25 43 -30 95 -11 75 28 82 38 76 117
-4 58 -4 221 1 290 1 16 6 22 15 18 8 -3 24 -1 37 5 17 8 30 6 51 -5 37 -19
53 -12 59 27 7 53 -1 67 -37 60 -17 -4 -58 -6 -91 -6 -33 1 -89 2 -125 2 -220
0 -268 0 -290 2 -28 1 -29 1 48 29 40 15 59 55 71 149 l8 66 4 -50 c2 -27 4
-77 4 -110 0 -54 2 -60 20 -57 36 5 260 4 275 -2 28 -11 41 7 31 42 -12 42
-13 190 -1 197 5 3 9 21 8 39 l-1 34 -104 -5 c-64 -3 -109 -1 -116 5 -13 11
-69 14 -100 5 -14 -4 -17 -11 -13 -29 6 -24 6 -25 -19 -8 -17 11 -36 14 -57
10 -18 -3 -56 -7 -85 -8 -44 -3 -50 -1 -42 13 4 9 6 19 3 22 -3 3 0 15 6 27
15 29 0 40 -55 40 l-40 0 0 -51z m531 -175 l1 -72 -76 2 -76 1 0 70 0 70 75 0
75 1 1 -72z m-352 16 c-3 -14 -8 -38 -10 -54 -5 -37 -6 -38 -49 -41 -19 -1
-37 -4 -40 -6 -2 -3 1 -24 7 -47 7 -27 16 -42 27 -43 11 0 9 -3 -6 -9 -12 -5
-50 -7 -85 -4 -35 2 -73 5 -86 5 -20 1 -17 6 23 41 28 25 59 67 80 109 36 71
41 74 113 74 30 0 32 -2 26 -25z m37 -376 c19 -4 27 -11 27 -27 0 -12 4 -34 7
-49 6 -24 3 -29 -20 -38 -15 -6 -61 -8 -103 -5 -133 8 -127 6 -124 40 1 17 3
40 3 53 1 16 6 21 18 18 9 -3 22 -2 30 3 15 10 121 13 162 5z"/>
</g>
</svg>
