<?xml version="1.0" standalone="no"?>
<!DOCTYPE svg PUBLIC "-//W3C//DTD SVG 20010904//EN"
 "http://www.w3.org/TR/2001/REC-SVG-20010904/DTD/svg10.dtd">
<svg version="1.0" xmlns="http://www.w3.org/2000/svg"
 width="101.000000pt" height="101.000000pt" viewBox="0 0 101.000000 101.000000"
 preserveAspectRatio="xMidYMid meet">
<metadata>
Created by potrace 1.16, written by Peter Selinger 2001-2019
</metadata>
<g transform="translate(0.000000,101.000000) scale(0.100000,-0.100000)"
fill="#000000" stroke="none">
<path d="M375 943 c-15 -62 9 -74 146 -70 l86 2 -2 -30 c-2 -29 -3 -30 -64
-33 -38 -2 -61 1 -61 8 0 5 -18 10 -40 10 l-40 0 0 -137 c0 -76 3 -162 7 -191
l6 -52 47 3 c26 2 52 7 59 11 6 4 30 5 51 1 37 -6 39 -9 34 -33 -4 -15 -12
-40 -18 -55 l-11 -29 -49 43 -48 42 -34 -18 c-19 -10 -34 -22 -34 -26 0 -4 25
-30 57 -58 46 -41 54 -53 44 -65 -17 -20 -100 -54 -146 -60 -22 -2 -50 -8 -61
-13 -21 -8 -21 -9 11 -46 33 -38 34 -38 75 -27 60 16 141 56 180 89 l34 28 42
-24 c55 -31 197 -83 245 -89 36 -5 38 -4 63 47 15 28 25 53 23 55 -3 4 -22 6
-138 19 -27 3 -175 50 -186 59 -1 1 8 31 21 67 12 35 20 71 18 78 -3 10 0 12
12 8 10 -4 26 -2 38 4 15 8 28 7 54 -6 26 -12 39 -13 54 -5 12 6 30 8 41 5 18
-6 19 -2 18 87 0 51 2 119 6 151 4 32 4 74 1 92 l-7 34 -103 -6 -103 -6 1 34
1 34 127 -1 126 -1 6 32 c11 58 7 60 -123 63 -71 2 -122 -1 -125 -7 -8 -12
-173 -14 -180 -2 -3 5 -39 9 -80 9 -71 0 -75 -1 -81 -25z m230 -231 l0 -38
-50 0 -50 1 3 32 c4 29 7 32 46 36 22 2 43 4 46 5 4 1 6 -15 5 -36z m210 -4
l0 -38 -50 6 c-27 4 -50 7 -51 8 -1 0 -4 15 -7 31 l-5 30 57 0 57 0 -1 -37z
m-209 -153 c-1 -38 -2 -40 -31 -37 -16 1 -40 3 -52 3 -19 1 -22 7 -20 38 l1
36 51 0 52 0 -1 -40z m211 4 c2 -34 -1 -40 -23 -45 -14 -4 -36 -2 -50 4 -13 7
-30 9 -38 6 -12 -5 -15 3 -13 33 l1 38 61 2 61 1 1 -39z"/>
<path d="M77 913 c-9 -16 -7 -142 3 -148 11 -7 12 -153 0 -160 -12 -7 -12
-153 0 -160 12 -7 13 -48 3 -59 -5 -4 -8 -32 -9 -61 0 -60 5 -65 68 -57 33 4
36 6 25 23 -9 14 -9 26 0 50 7 17 10 36 7 43 -3 8 9 12 36 13 32 2 39 -1 38
-15 -5 -69 8 -84 70 -74 25 3 32 9 32 28 0 12 -4 26 -10 29 -13 8 -13 85 0 85
6 0 10 23 10 50 0 28 -4 50 -10 50 -5 0 -10 11 -10 25 0 14 5 25 10 25 6 0 10
30 10 70 0 40 -4 70 -10 70 -5 0 -10 11 -10 25 0 14 5 25 10 25 6 0 10 27 10
60 0 55 -2 60 -25 66 -14 3 -38 3 -53 0 -33 -8 -81 -8 -143 0 -26 3 -49 2 -52
-3z m175 -145 c-1 -31 2 -59 8 -63 11 -7 13 -82 4 -173 l-7 -61 -43 1 c-41 2
-44 4 -50 35 -3 18 -3 50 1 70 4 21 8 85 8 143 l2 105 40 0 40 0 -3 -57z"/>
</g>
</svg>
