<?xml version="1.0" standalone="no"?>
<!DOCTYPE svg PUBLIC "-//W3C//DTD SVG 20010904//EN"
 "http://www.w3.org/TR/2001/REC-SVG-20010904/DTD/svg10.dtd">
<svg version="1.0" xmlns="http://www.w3.org/2000/svg"
 width="101.000000pt" height="101.000000pt" viewBox="0 0 101.000000 101.000000"
 preserveAspectRatio="xMidYMid meet">
<metadata>
Created by potrace 1.16, written by Peter Selinger 2001-2019
</metadata>
<g transform="translate(0.000000,101.000000) scale(0.100000,-0.100000)"
fill="#000000" stroke="none">
<path d="M612 999 c-32 -9 -32 -10 -17 -38 8 -16 17 -42 20 -58 l5 -30 -83 2
c-45 2 -94 6 -109 10 -38 10 -68 -10 -68 -45 0 -61 -1 -60 161 -60 93 0 149 4
149 10 0 6 20 10 45 10 26 0 45 -5 45 -11 0 -14 182 -8 192 6 13 18 8 63 -9
80 -11 12 -25 15 -47 10 -38 -7 -196 -8 -204 -1 -3 4 2 6 11 6 21 0 21 1 0 67
-18 57 -25 61 -91 42z"/>
<path d="M89 912 c-14 -3 -16 -16 -13 -95 2 -51 3 -109 3 -129 1 -229 1 -285
3 -330 2 -29 0 -72 -4 -94 -9 -47 2 -55 59 -47 31 5 31 7 32 57 0 94 -1 92 48
94 48 2 49 -2 28 -60 -10 -26 13 -42 56 -41 23 1 43 3 44 5 2 2 -2 76 -7 166
-8 118 -8 173 0 200 6 20 10 78 9 127 -2 50 1 98 5 107 5 11 2 22 -8 32 -18
19 -17 19 -46 6 -15 -7 -53 -8 -108 -3 -47 5 -92 7 -101 5z m181 -167 c0 -49
-4 -75 -11 -75 -8 0 -10 -34 -8 -112 l4 -113 -25 3 c-14 2 -35 3 -46 4 -21 0
-22 6 -29 151 -5 108 -4 152 4 155 6 2 11 14 11 27 0 24 14 31 73 34 l27 1 0
-75z"/>
<path d="M428 734 c-24 -7 -33 -49 -19 -81 10 -21 16 -24 39 -19 47 10 376 14
394 5 26 -14 51 17 44 54 -3 17 -8 33 -11 35 -8 9 -94 14 -112 7 -19 -7 -207
-8 -278 -1 -22 3 -48 2 -57 0z"/>
<path d="M420 574 c-6 -16 -9 -39 -5 -51 5 -21 9 -23 53 -17 67 9 243 10 333
2 l77 -8 5 26 c2 14 2 35 -1 46 -4 17 -10 19 -36 13 -53 -11 -237 -16 -249 -7
-7 6 -37 10 -67 10 -30 1 -65 4 -77 8 -18 5 -25 1 -33 -22z"/>
<path d="M438 443 c-17 -4 -24 -24 -18 -48 17 -67 20 -184 5 -224 -24 -68 -5
-93 63 -83 32 4 38 17 34 73 -1 11 7 17 21 18 12 0 56 3 97 6 96 7 140 0 138
-23 -5 -69 8 -84 69 -75 l32 5 -1 147 c0 80 1 156 2 169 1 13 0 25 -2 28 -5 4
-118 5 -293 2 -55 -1 -107 1 -115 4 -8 3 -23 4 -32 1z m313 -79 c19 -4 27 -11
27 -27 0 -12 4 -34 7 -49 6 -24 3 -29 -20 -38 -17 -6 -66 -9 -119 -6 -148 9
-141 7 -138 41 1 17 3 40 3 53 1 16 6 21 18 18 9 -3 22 -2 30 3 15 10 153 14
192 5z"/>
</g>
</svg>
