<?xml version="1.0" standalone="no"?>
<!DOCTYPE svg PUBLIC "-//W3C//DTD SVG 20010904//EN"
 "http://www.w3.org/TR/2001/REC-SVG-20010904/DTD/svg10.dtd">
<svg version="1.0" xmlns="http://www.w3.org/2000/svg"
 width="101.000000pt" height="102.000000pt" viewBox="0 0 101.000000 102.000000"
 preserveAspectRatio="xMidYMid meet">
<metadata>
Created by potrace 1.16, written by Peter Selinger 2001-2019
</metadata>
<g transform="translate(0.000000,102.000000) scale(0.100000,-0.100000)"
fill="#000000" stroke="none">
<path d="M556 967 c-38 -66 -108 -141 -147 -157 -24 -10 -29 -17 -25 -34 4
-12 9 -33 12 -48 5 -22 12 -26 35 -26 16 1 32 -1 35 -4 8 -8 -43 -106 -77
-149 -16 -20 -29 -40 -29 -43 0 -9 71 -38 77 -32 3 3 15 19 27 37 19 28 28 32
72 33 l50 1 -2 -40 c-2 -22 -3 -46 -3 -53 -1 -11 -22 -12 -110 -7 l-109 7 -7
-30 c-3 -18 -1 -40 5 -53 11 -20 17 -21 69 -15 90 11 131 12 131 3 0 -17 -30
-63 -57 -88 -32 -30 -89 -61 -148 -78 -22 -7 -46 -14 -54 -17 -9 -3 3 -19 34
-49 l48 -44 53 25 c75 36 148 104 182 173 l29 59 23 -51 c29 -63 89 -130 155
-172 l50 -33 42 46 c24 25 42 46 40 47 -1 1 -28 12 -59 24 -62 25 -140 87
-162 130 l-14 26 52 -2 c28 0 56 3 63 9 7 5 31 7 56 3 40 -6 46 -4 51 13 4 11
4 31 1 44 -6 24 -7 24 -143 25 -140 1 -159 7 -128 39 9 8 16 22 16 30 0 8 10
14 23 15 12 0 36 2 52 3 17 1 46 3 66 4 30 2 38 7 43 28 15 58 12 59 -173 59
l-170 0 20 21 c25 27 24 31 -8 48 -16 8 -23 15 -18 16 6 0 72 1 147 3 l137 3
12 -27 11 -27 44 16 c24 9 44 21 44 28 0 14 -72 127 -117 181 l-34 43 -40 -21
-40 -20 35 -44 c20 -24 36 -45 36 -47 0 -2 -44 -3 -98 -4 -53 0 -108 -4 -122
-9 -20 -7 -10 9 45 72 39 44 80 86 93 92 28 13 21 29 -22 46 -70 28 -69 28
-100 -28z"/>
<path d="M76 767 c8 -251 4 -439 -10 -484 -11 -35 11 -48 76 -45 26 2 26 3 25
72 -2 55 1 69 11 65 8 -3 25 -5 38 -5 19 0 24 -5 24 -27 0 -48 16 -59 76 -55
21 2 22 9 29 134 5 95 4 133 -4 136 -14 5 -15 162 -1 162 6 0 10 18 10 40 0
22 -4 40 -10 40 -15 0 -13 107 3 114 6 3 -1 3 -18 -1 -32 -8 -89 -8 -192 1
l-62 5 5 -152z m174 18 c0 -25 5 -45 10 -45 6 0 10 -16 10 -35 0 -20 -5 -35
-12 -35 -8 0 -9 -29 -4 -108 l6 -107 -45 3 -45 4 0 63 c0 35 -4 66 -9 70 -13
8 -13 166 1 182 6 7 8 21 6 30 -4 15 3 18 39 20 l43 2 0 -44z"/>
</g>
</svg>
