<?xml version="1.0" standalone="no"?>
<!DOCTYPE svg PUBLIC "-//W3C//DTD SVG 20010904//EN"
 "http://www.w3.org/TR/2001/REC-SVG-20010904/DTD/svg10.dtd">
<svg version="1.0" xmlns="http://www.w3.org/2000/svg"
 width="101.000000pt" height="102.000000pt" viewBox="0 0 101.000000 102.000000"
 preserveAspectRatio="xMidYMid meet">
<metadata>
Created by potrace 1.16, written by Peter Selinger 2001-2019
</metadata>
<g transform="translate(0.000000,102.000000) scale(0.100000,-0.100000)"
fill="#000000" stroke="none">
<path d="M588 1012 c9 -6 12 -25 10 -57 -3 -47 -4 -49 -33 -49 -16 0 -58 4
-92 8 -74 9 -103 -2 -103 -42 0 -15 4 -33 9 -40 9 -14 11 -14 123 -10 76 3 77
3 80 -23 l4 -26 -92 4 c-92 3 -92 3 -98 -23 -9 -36 1 -63 27 -69 12 -3 54 -2
93 3 l71 8 0 -27 c0 -25 -4 -27 -60 -33 -32 -3 -64 -3 -70 1 -5 3 -32 8 -59
10 -39 3 -48 1 -48 -12 0 -9 -4 -14 -9 -11 -12 8 -13 154 -1 161 16 10 12 102
-6 119 -17 17 -89 22 -99 7 -3 -5 -15 -8 -28 -6 -82 12 -114 14 -127 5 -12 -8
-15 -37 -13 -172 4 -265 4 -329 -1 -410 -5 -85 -2 -88 65 -80 l35 4 -2 52 -2
52 44 2 44 2 -6 -35 c-4 -29 -2 -35 13 -37 37 -3 78 4 85 15 4 7 14 5 31 -6
24 -15 25 -14 77 38 l54 55 28 -51 c15 -29 32 -57 38 -64 9 -10 -1 -18 -42
-33 -63 -24 -124 -41 -164 -46 -16 -2 -41 -7 -56 -11 l-26 -7 24 -35 c13 -20
24 -40 24 -44 0 -5 7 -9 16 -9 24 0 191 58 245 86 25 12 52 21 60 20 8 -2 61
-26 119 -54 58 -29 110 -52 117 -52 6 0 15 9 18 20 4 11 18 34 32 50 14 17 23
33 20 36 -2 3 -23 7 -44 9 -64 6 -165 37 -191 60 -2 2 15 27 37 56 23 30 56
82 74 117 38 74 30 89 -35 66 -25 -9 -63 -12 -106 -9 -37 3 -78 6 -92 6 l-25
1 28 20 c15 11 25 24 22 28 -18 29 153 40 245 16 29 -8 59 -12 66 -9 14 5 24
47 16 75 -4 17 -10 19 -36 12 -17 -4 -67 -7 -111 -6 -127 2 -122 1 -122 32 0
27 2 28 36 23 20 -3 45 -5 56 -3 11 1 41 1 67 1 51 0 66 17 54 64 -5 20 -12
23 -48 22 -24 -1 -68 0 -99 1 -47 2 -58 5 -62 22 -4 17 0 20 24 20 16 0 29 5
29 10 0 14 126 12 150 -2 17 -11 22 -10 30 2 15 23 12 57 -7 75 -14 14 -28 16
-82 11 -36 -4 -85 -7 -108 -9 l-42 -2 4 53 c3 28 1 52 -3 53 -51 7 -104 7 -94
1z m-348 -303 c0 -64 3 -150 6 -192 l7 -77 -47 2 -47 2 7 118 c5 86 4 118 -5
118 -7 0 -11 25 -11 74 l0 73 45 -1 45 -1 0 -116z m274 -138 c14 -21 -155
-223 -172 -206 -3 2 -1 47 3 98 6 88 8 95 28 95 39 0 97 9 104 16 9 9 31 7 37
-3z m193 -149 c22 -7 21 -8 -13 -54 -19 -27 -38 -48 -43 -48 -10 0 -40 38 -60
78 -11 21 -11 23 6 18 10 -3 25 -1 33 4 17 11 44 11 77 2z"/>
</g>
</svg>
