<?xml version="1.0" standalone="no"?>
<!DOCTYPE svg PUBLIC "-//W3C//DTD SVG 20010904//EN"
 "http://www.w3.org/TR/2001/REC-SVG-20010904/DTD/svg10.dtd">
<svg version="1.0" xmlns="http://www.w3.org/2000/svg"
 width="101.000000pt" height="101.000000pt" viewBox="0 0 101.000000 101.000000"
 preserveAspectRatio="xMidYMid meet">
<metadata>
Created by potrace 1.16, written by Peter Selinger 2001-2019
</metadata>
<g transform="translate(0.000000,101.000000) scale(0.100000,-0.100000)"
fill="#000000" stroke="none">
<path d="M475 973 c-4 -21 -10 -42 -14 -48 -4 -5 -8 -21 -9 -34 0 -13 -25 -72
-54 -130 l-53 -106 -8 94 c-6 68 -5 101 3 117 7 12 9 31 6 42 -6 18 -11 19
-39 11 -41 -12 -104 -12 -111 0 -4 5 -35 9 -70 9 l-63 -1 -2 -123 c-1 -74 3
-125 9 -129 13 -8 13 -52 0 -60 -13 -8 -12 -206 2 -222 10 -13 7 -81 -7 -149
-8 -35 8 -45 62 -37 29 5 30 7 31 51 1 90 0 88 47 90 l44 2 -5 -44 c-6 -49 5
-57 63 -49 30 5 30 6 37 80 3 42 6 123 6 180 0 99 8 123 29 86 8 -14 12 -15
25 -4 18 15 17 38 16 -239 0 -199 0 -208 2 -242 1 -29 20 -39 62 -31 26 5 32
26 28 84 -1 11 7 18 21 19 50 5 306 2 363 -4 l62 -6 4 32 c10 63 3 70 -66 61
-59 -7 -86 -7 -151 -1 -28 3 -30 6 -27 38 1 19 3 45 3 56 1 15 8 22 23 23 70
5 95 4 127 -3 36 -8 37 -7 41 25 10 64 6 66 -96 65 l-92 -1 0 50 1 50 87 -2
c79 -3 87 -1 93 17 4 11 4 33 0 49 l-6 29 -86 1 c-48 1 -88 3 -90 4 -1 2 0 19
3 39 l6 36 99 7 c107 8 117 15 103 69 -7 31 -41 42 -81 29 -16 -5 -55 -7 -88
-4 l-60 6 35 14 c19 8 36 15 38 17 7 5 -49 105 -61 110 -12 4 -87 -21 -87 -30
0 -2 12 -24 26 -50 30 -54 26 -86 -12 -86 -13 0 -24 5 -24 10 0 6 -20 10 -45
10 -44 0 -44 0 -35 26 6 15 19 39 30 54 28 39 25 49 -15 66 -57 23 -72 19 -80
-23z m-233 -186 c-2 -26 1 -53 7 -61 13 -15 13 -146 0 -162 -4 -5 -7 -38 -6
-72 l2 -61 -41 1 -42 2 -7 83 c-5 56 -3 88 4 97 7 8 10 52 9 117 l-3 104 40 0
40 0 -3 -48z m393 -82 l0 -50 -61 -3 -62 -3 2 53 1 53 60 0 60 0 0 -50z m-3
-180 l3 -50 -60 0 -60 0 0 50 0 50 57 0 56 0 4 -50z m-6 -133 c5 -4 11 -16 12
-27 1 -11 4 -34 8 -52 5 -28 3 -34 -19 -44 -16 -7 -36 -8 -54 -3 -15 4 -37 8
-48 8 -17 1 -20 7 -17 36 1 19 3 45 3 58 1 16 6 21 18 18 9 -3 23 -1 31 4 18
11 51 13 66 2z"/>
</g>
</svg>
