<?xml version="1.0" standalone="no"?>
<!DOCTYPE svg PUBLIC "-//W3C//DTD SVG 20010904//EN"
 "http://www.w3.org/TR/2001/REC-SVG-20010904/DTD/svg10.dtd">
<svg version="1.0" xmlns="http://www.w3.org/2000/svg"
 width="101.000000pt" height="101.000000pt" viewBox="0 0 101.000000 101.000000"
 preserveAspectRatio="xMidYMid meet">
<metadata>
Created by potrace 1.16, written by Peter Selinger 2001-2019
</metadata>
<g transform="translate(0.000000,101.000000) scale(0.100000,-0.100000)"
fill="#000000" stroke="none">
<path d="M625 1000 c-4 -6 -14 -10 -23 -9 -30 3 -33 -1 -17 -25 9 -13 18 -33
20 -45 4 -21 3 -21 -121 -16 -108 5 -124 4 -124 -9 0 -9 -4 -16 -10 -16 -5 0
-10 7 -10 16 0 15 -11 16 -99 10 -67 -5 -101 -4 -106 3 -9 16 -41 13 -59 -5
-20 -20 -21 -58 -1 -78 17 -17 22 -156 5 -156 -6 0 -10 -30 -10 -70 0 -44 4
-70 11 -70 12 0 3 -167 -11 -205 -4 -11 -5 -36 -3 -57 5 -40 19 -48 72 -40 28
4 32 7 25 26 -6 19 -7 54 -3 111 1 17 9 21 45 23 36 1 43 -2 42 -16 -6 -77 9
-96 67 -84 24 4 26 8 20 36 -13 59 -17 167 -6 179 12 16 13 115 0 123 -12 7
-11 51 1 59 6 4 10 41 8 91 -2 85 5 115 16 70 6 -24 8 -25 91 -23 47 1 85 -1
85 -5 0 -15 -94 -88 -135 -105 -25 -10 -43 -22 -41 -28 3 -5 10 -27 17 -48 11
-34 15 -38 38 -32 19 5 22 4 14 -7 -13 -15 -15 -146 -3 -153 11 -7 12 -173 1
-179 -5 -3 -8 -44 -8 -90 2 -93 5 -97 65 -88 32 4 32 5 32 61 -1 101 0 109 24
110 11 0 55 3 96 6 105 8 139 1 136 -28 -4 -38 -14 -46 -57 -42 -28 3 -39 0
-35 -8 3 -7 11 -31 17 -54 12 -40 14 -41 51 -38 21 2 55 12 76 22 l37 18 2 95
c1 52 2 105 2 118 0 73 2 124 5 177 4 68 -5 80 -45 59 -36 -18 -175 -19 -183
-1 -5 10 -7 10 -12 0 -7 -15 -74 -18 -74 -3 0 6 -22 10 -49 10 -28 0 -53 5
-56 10 -3 6 -1 11 4 11 6 1 23 3 39 5 64 8 130 13 172 13 25 1 71 5 103 9 56
9 58 8 91 -26 l35 -34 35 27 c20 15 36 31 36 35 0 9 -139 127 -183 155 -28 18
-30 18 -63 0 -19 -10 -34 -22 -34 -26 0 -4 16 -17 35 -29 19 -12 35 -22 35
-23 0 -1 -20 -1 -45 1 -25 2 -53 1 -63 -3 -9 -4 -41 -7 -69 -8 -52 -2 -53 -2
-30 16 12 10 42 30 67 44 58 34 57 33 40 43 -12 8 -10 10 8 10 12 0 22 5 22
10 0 12 97 12 200 0 82 -9 90 -5 90 43 0 34 -41 58 -70 40 -27 -18 -193 -8
-196 11 -1 8 -7 31 -14 50 -9 28 -17 36 -35 36 -13 0 -27 -5 -30 -10z m-378
-270 c1 -58 5 -127 8 -153 4 -26 4 -63 1 -83 -7 -33 -8 -34 -49 -32 -23 2 -45
7 -49 13 -11 15 -10 63 2 70 12 7 11 113 -1 121 -13 7 -11 48 2 61 6 6 9 33 8
60 l-4 48 40 0 40 0 2 -105z m494 -216 c21 -4 26 -11 26 -34 0 -25 -5 -31 -31
-35 -17 -3 -65 -3 -106 0 -41 3 -84 6 -96 6 -16 1 -21 8 -21 30 0 22 4 28 16
24 9 -2 22 -1 30 4 15 10 142 13 182 5z m0 -120 c21 -4 25 -11 26 -39 1 -31
-2 -35 -30 -40 -18 -3 -66 -3 -107 0 -41 3 -85 6 -96 6 -18 1 -22 7 -21 35 1
26 5 33 16 29 9 -2 22 -1 30 4 15 10 142 13 182 5z"/>
</g>
</svg>
