<?xml version="1.0" standalone="no"?>
<!DOCTYPE svg PUBLIC "-//W3C//DTD SVG 20010904//EN"
 "http://www.w3.org/TR/2001/REC-SVG-20010904/DTD/svg10.dtd">
<svg version="1.0" xmlns="http://www.w3.org/2000/svg"
 width="101.000000pt" height="101.000000pt" viewBox="0 0 101.000000 101.000000"
 preserveAspectRatio="xMidYMid meet">
<metadata>
Created by potrace 1.16, written by Peter Selinger 2001-2019
</metadata>
<g transform="translate(0.000000,101.000000) scale(0.100000,-0.100000)"
fill="#000000" stroke="none">
<path d="M479 962 c-21 -65 -66 -146 -106 -191 l-40 -45 8 65 c12 98 14 96
-104 102 -169 9 -153 15 -149 -54 3 -38 0 -59 -7 -59 -6 0 -11 -18 -11 -40 0
-22 5 -40 10 -40 6 0 10 -33 10 -80 0 -48 -4 -80 -10 -80 -7 0 -10 -51 -8
-144 3 -159 3 -158 66 -148 32 4 39 20 34 82 -1 12 10 16 39 17 33 2 39 -1 35
-15 -3 -9 -1 -24 4 -32 11 -18 79 -17 92 2 15 21 -2 -32 -23 -74 -11 -21 -19
-39 -19 -42 0 -5 57 -20 80 -20 10 -1 23 28 41 94 14 52 29 103 34 112 5 13 1
20 -20 28 -55 21 -66 14 -81 -52 -1 -5 -2 -11 -3 -15 -1 -5 -7 3 -12 16 -5 13
-6 70 -3 134 l7 110 30 -33 30 -33 43 23 c58 30 129 108 159 173 14 28 25 57
25 63 0 6 13 11 30 10 26 -1 28 -4 23 -26 -14 -62 -58 -142 -100 -181 -45 -41
-133 -89 -165 -89 -26 0 -21 -11 23 -48 l38 -34 48 24 c75 37 155 118 199 200
21 40 37 73 35 73 -1 0 0 12 4 26 3 14 7 34 9 45 2 12 11 19 27 19 21 1 24 -3
21 -35 -1 -19 -4 -62 -7 -95 -5 -79 -14 -128 -25 -139 -6 -6 -30 -9 -55 -7
-49 2 -52 -3 -30 -45 8 -16 15 -37 15 -46 0 -20 27 -20 97 2 65 20 80 42 90
135 8 70 14 138 18 195 3 30 7 64 10 75 14 51 -45 61 -204 34 -57 -9 -76 -10
-79 -1 -5 16 -85 15 -100 0 -25 -25 -11 9 18 42 16 19 29 38 30 42 0 12 -39
29 -75 34 -31 4 -34 1 -46 -34z m-258 -162 c16 0 19 -7 19 -40 0 -22 5 -40 10
-40 6 0 10 -11 10 -25 0 -14 -5 -25 -11 -25 -9 0 -10 -33 -5 -119 l7 -120 -41
2 -42 1 6 47 c4 26 2 50 -3 53 -13 8 -13 147 0 162 6 8 9 36 7 64 -2 39 0 49
10 45 8 -3 22 -5 33 -5z m329 -10 c0 -26 -43 -91 -81 -123 -23 -20 -61 -43
-85 -51 l-44 -15 0 60 0 60 30 -16 c43 -22 52 -19 89 35 18 27 36 48 40 46 4
-3 13 -1 21 5 20 12 30 11 30 -1z"/>
<path d="M590 450 c-9 -6 -5 -25 14 -73 14 -36 26 -72 26 -81 0 -8 4 -17 8
-20 8 -4 81 11 90 19 1 1 -13 38 -31 81 -32 74 -36 79 -65 80 -17 1 -36 -2
-42 -6z"/>
<path d="M499 413 c-21 -5 -31 -40 -19 -64 5 -9 8 -55 6 -101 -2 -45 0 -93 5
-104 10 -27 64 -47 89 -34 10 5 56 8 102 6 45 -2 91 1 100 6 17 8 58 77 58 96
0 4 -20 18 -45 30 -42 21 -46 21 -51 5 -15 -47 -25 -63 -41 -64 -21 -2 -69 0
-101 4 -28 3 -55 52 -45 81 4 12 8 30 9 41 1 11 5 35 8 52 3 18 2 34 -2 36
-14 8 -58 14 -73 10z"/>
<path d="M792 394 c-33 -14 -33 -16 -18 -37 36 -51 96 -142 99 -152 6 -15 82
32 81 49 -2 19 -106 155 -119 155 -5 0 -25 -7 -43 -15z"/>
</g>
</svg>
