<?xml version="1.0" standalone="no"?>
<!DOCTYPE svg PUBLIC "-//W3C//DTD SVG 20010904//EN"
 "http://www.w3.org/TR/2001/REC-SVG-20010904/DTD/svg10.dtd">
<svg version="1.0" xmlns="http://www.w3.org/2000/svg"
 width="101.000000pt" height="101.000000pt" viewBox="0 0 101.000000 101.000000"
 preserveAspectRatio="xMidYMid meet">
<metadata>
Created by potrace 1.16, written by Peter Selinger 2001-2019
</metadata>
<g transform="translate(0.000000,101.000000) scale(0.100000,-0.100000)"
fill="#000000" stroke="none">
<path d="M800 973 c-8 -2 -22 -7 -30 -11 -8 -3 -37 -7 -65 -9 -27 -1 -78 -4
-112 -5 -34 -2 -68 -9 -75 -16 -14 -14 -54 -16 -62 -3 -4 5 -27 9 -51 9 -40 0
-45 -2 -40 -18 3 -10 8 -29 10 -41 6 -29 24 -41 55 -34 14 3 52 7 85 10 l60 4
0 -35 0 -35 -114 7 c-102 6 -115 5 -127 -10 -11 -15 -12 -9 -11 43 2 45 -2 64
-13 71 -8 6 -69 9 -135 8 l-120 -3 -3 -47 c-2 -29 1 -48 7 -48 6 0 11 -16 11
-35 0 -19 -4 -35 -10 -35 -6 0 -10 -30 -10 -70 0 -40 4 -70 10 -70 6 0 10 -11
10 -25 0 -14 -4 -25 -10 -25 -6 0 -10 -40 -10 -100 0 -60 4 -100 10 -100 13 0
13 -65 0 -109 -5 -19 -7 -37 -4 -40 5 -6 84 -4 90 1 6 7 7 83 1 113 -6 30 -6
31 38 33 l44 2 -4 -40 c-3 -32 0 -40 13 -42 35 -3 77 4 84 15 3 5 21 12 40 14
79 10 155 13 183 8 28 -5 31 -9 32 -44 2 -36 -1 -40 -25 -45 -41 -8 -135 -5
-153 5 -22 12 -56 0 -62 -21 -2 -10 -2 -30 0 -44 5 -26 7 -26 57 -20 28 3 94
6 146 6 52 -1 123 -1 158 -1 34 0 81 0 105 1 23 1 56 -2 73 -6 29 -7 32 -6 36
19 11 57 6 61 -105 62 -156 2 -146 -1 -144 43 1 30 5 38 22 39 11 0 60 3 108
6 48 3 103 1 122 -4 31 -8 33 -7 38 16 8 43 -2 60 -36 61 -77 3 -76 3 -83 37
-3 18 -1 42 5 53 6 11 8 28 5 36 -7 19 -4 19 30 6 34 -13 53 -4 59 27 10 51
-1 63 -52 61 l-46 -3 3 35 c1 19 3 44 3 55 1 17 7 20 39 17 46 -5 72 18 68 60
l-3 30 -140 2 -140 1 -1 32 c0 26 4 33 25 38 25 7 100 13 169 15 39 2 40 12 6
62 -26 37 -34 41 -64 31z m-560 -228 c0 -50 -4 -75 -11 -75 -9 0 -10 -33 -5
-120 l7 -120 -44 2 -44 2 5 88 c3 62 1 88 -7 88 -7 0 -11 26 -11 75 0 43 4 75
10 75 6 0 10 11 10 24 0 25 13 31 68 35 21 1 22 -2 22 -74z m123 -42 c16 0 30
-3 31 -4 2 -2 6 -27 10 -56 l7 -52 -41 4 c-32 3 -40 0 -41 -13 -1 -9 -5 2 -8
25 -8 46 -2 120 8 106 3 -4 19 -9 34 -10z m213 -55 l2 -57 -42 1 -41 2 0 56 0
55 40 0 40 0 1 -57z m182 40 c1 -13 4 -37 7 -54 8 -38 -13 -60 -47 -48 -13 5
-32 9 -43 9 -16 0 -19 6 -17 30 1 17 3 40 3 52 1 19 8 23 48 26 25 2 47 4 47
5 1 1 2 -8 2 -20z m-410 -180 c9 0 28 0 41 1 18 2 22 -2 18 -14 -4 -8 -2 -26
5 -39 6 -14 8 -36 4 -50 -6 -23 -11 -25 -51 -24 -40 2 -45 5 -51 31 -3 16 -2
54 2 86 4 31 9 46 12 34 2 -13 11 -24 20 -25z m409 -18 c1 -14 5 -38 8 -55 4
-19 1 -37 -8 -50 -13 -16 -18 -18 -41 -7 -14 6 -32 9 -40 6 -20 -8 -32 40 -18
72 7 13 9 31 5 40 -5 13 -2 15 13 10 10 -3 26 -1 34 4 24 16 45 7 47 -20z
m-181 5 c-3 -9 -1 -26 6 -39 6 -14 8 -36 4 -50 -6 -23 -11 -25 -51 -24 -39 2
-47 6 -52 26 -3 13 -1 34 5 48 7 13 9 30 7 37 -4 9 8 13 41 15 37 1 45 -1 40
-13z"/>
</g>
</svg>
