<?xml version="1.0" standalone="no"?>
<!DOCTYPE svg PUBLIC "-//W3C//DTD SVG 20010904//EN"
 "http://www.w3.org/TR/2001/REC-SVG-20010904/DTD/svg10.dtd">
<svg version="1.0" xmlns="http://www.w3.org/2000/svg"
 width="101.000000pt" height="102.000000pt" viewBox="0 0 101.000000 102.000000"
 preserveAspectRatio="xMidYMid meet">
<metadata>
Created by potrace 1.16, written by Peter Selinger 2001-2019
</metadata>
<g transform="translate(0.000000,102.000000) scale(0.100000,-0.100000)"
fill="#000000" stroke="none">
<path d="M611 1008 c-25 -9 -25 -11 -6 -47 8 -16 16 -39 18 -52 l5 -24 -97 3
c-120 3 -137 -1 -145 -34 -13 -49 0 -63 54 -61 27 0 52 -2 55 -5 9 -9 -30
-103 -64 -156 -33 -52 -78 -99 -86 -90 -10 10 -17 249 -7 261 5 7 10 39 10 72
l0 60 -137 1 -136 2 3 -59 c3 -38 0 -59 -7 -59 -6 0 -11 -18 -11 -40 0 -22 5
-40 10 -40 6 0 10 -33 10 -80 0 -45 -4 -80 -10 -80 -5 0 -8 -64 -7 -164 2
-181 1 -178 65 -168 38 5 47 28 40 100 l-5 47 42 0 42 0 -4 -40 c-6 -60 7 -71
80 -67 16 1 27 7 26 15 -4 32 1 39 17 22 18 -17 99 -19 121 -3 18 14 105 -1
99 -17 -3 -8 0 -26 6 -42 8 -21 7 -43 -5 -87 -22 -88 -10 -109 59 -99 l30 5 1
96 c2 139 2 140 27 141 11 0 57 3 101 6 44 3 93 1 109 -5 37 -13 49 1 42 49
-3 18 -7 35 -8 36 -2 2 -23 -2 -46 -8 -36 -9 -45 -9 -53 3 -8 11 -12 12 -16 3
-5 -15 -73 -18 -73 -4 0 6 -17 11 -37 13 -35 3 -38 5 -35 31 2 22 45 106 69
136 2 3 30 -22 63 -54 l60 -60 36 36 36 36 -74 53 c-40 30 -77 57 -82 61 -6 5
4 29 22 58 17 28 28 52 24 54 -4 3 -24 10 -45 17 -26 8 -35 16 -29 22 10 10
101 6 139 -7 16 -5 23 -2 28 15 4 12 4 32 1 45 -5 21 -14 24 -72 30 -36 4 -86
5 -111 2 -25 -3 -40 -1 -33 3 10 6 7 21 -11 69 -22 55 -26 61 -51 59 -15 -1
-36 -6 -47 -10z m-354 -346 l1 -187 -49 3 -50 4 7 114 c5 83 4 114 -5 114 -6
0 -11 11 -11 25 0 14 5 25 10 25 6 0 10 18 10 39 0 40 0 40 43 44 23 2 42 4
42 5 0 1 1 -82 2 -186z m388 137 c4 -5 17 -9 28 -8 57 4 65 0 61 -30 -7 -59
-60 -167 -107 -219 -18 -20 -19 -24 -7 -32 13 -8 13 -10 -1 -10 -8 0 -23 -6
-33 -13 -15 -11 -16 -19 -8 -50 l11 -38 -87 7 c-120 9 -134 8 -146 -9 -8 -10
-11 5 -11 59 l0 73 42 -24 c48 -26 48 -26 101 58 l30 48 33 -42 33 -42 28 34
c15 18 28 37 28 41 0 3 -20 21 -45 39 -43 31 -44 33 -30 59 7 14 21 32 29 39
23 20 20 29 -15 36 l-31 7 23 13 c30 16 66 18 74 4z"/>
</g>
</svg>
