<?xml version="1.0" standalone="no"?>
<!DOCTYPE svg PUBLIC "-//W3C//DTD SVG 20010904//EN"
 "http://www.w3.org/TR/2001/REC-SVG-20010904/DTD/svg10.dtd">
<svg version="1.0" xmlns="http://www.w3.org/2000/svg"
 width="101.000000pt" height="102.000000pt" viewBox="0 0 101.000000 102.000000"
 preserveAspectRatio="xMidYMid meet">
<metadata>
Created by potrace 1.16, written by Peter Selinger 2001-2019
</metadata>
<g transform="translate(0.000000,102.000000) scale(0.100000,-0.100000)"
fill="#000000" stroke="none">
<path d="M459 982 c-16 -53 -87 -187 -108 -206 -16 -14 -17 -12 -14 32 1 26 5
59 7 75 4 23 1 27 -19 27 -13 0 -27 -4 -30 -10 -8 -12 -72 -13 -79 -1 -4 5
-35 9 -71 9 -64 -1 -65 -1 -70 -32 -3 -17 -3 -78 1 -136 6 -118 6 -248 -1
-391 -5 -108 -3 -111 63 -101 37 5 40 14 28 97 -4 30 -3 31 38 33 41 1 43 0
43 -28 0 -39 6 -44 50 -43 42 1 55 17 42 51 -16 42 -24 229 -10 246 7 8 12 28
11 43 -1 15 -1 37 0 48 1 19 2 19 12 -2 6 -13 15 -23 20 -23 4 0 29 28 54 63
53 71 70 83 60 41 -10 -37 -42 -89 -85 -137 -18 -21 -32 -39 -30 -40 2 -1 20
-10 39 -19 l35 -17 -41 0 c-34 -1 -43 -5 -48 -23 -8 -32 -8 -35 10 -53 14 -13
30 -15 97 -9 73 6 80 5 74 -10 -4 -10 -2 -26 4 -37 6 -12 8 -37 4 -59 -6 -35
-9 -38 -40 -37 -31 1 -33 3 -30 31 1 17 4 37 6 45 5 16 -41 32 -70 24 -21 -5
-22 -34 -5 -104 3 -15 1 -30 -5 -33 -6 -4 -11 -16 -11 -27 0 -18 5 -19 53 -14
160 19 243 15 234 -9 -9 -24 11 -40 48 -39 20 1 39 3 41 6 3 3 0 24 -6 47 -6
24 -8 54 -4 69 4 14 8 40 10 57 2 27 -1 33 -23 37 -55 10 -69 -4 -64 -65 2
-24 -1 -26 -33 -25 -32 1 -35 4 -41 38 -4 21 -2 47 4 58 6 11 8 26 5 34 -6 17
6 19 108 17 64 0 68 1 74 25 12 47 3 52 -93 51 l-88 -1 0 36 -1 37 78 7 c72 6
78 8 84 31 10 39 -2 52 -51 59 -35 6 -50 4 -64 -9 -18 -17 -111 -23 -111 -8 0
5 9 17 20 27 26 24 25 32 -5 39 -55 14 -18 21 118 23 l142 2 -3 -79 c-2 -47 1
-81 7 -85 13 -7 15 -48 4 -59 -12 -12 -16 -101 -8 -208 3 -44 -1 -81 -10 -109
-8 -22 -13 -45 -10 -50 8 -12 -65 -30 -83 -20 -8 5 -23 6 -32 4 -16 -4 -16 -8
3 -53 24 -57 39 -63 108 -45 65 17 99 40 100 68 1 12 3 38 5 57 2 19 3 45 3
58 0 66 2 123 6 172 3 30 7 114 9 185 2 72 7 147 11 167 4 21 5 48 1 61 -5 21
-12 24 -57 26 -28 1 -57 -3 -64 -9 -11 -9 -305 -11 -305 -2 0 2 13 22 28 45
46 67 46 66 15 78 -15 6 -40 12 -55 14 -23 3 -28 -1 -39 -33z m-219 -203 c0
-21 5 -39 10 -39 6 0 10 -11 10 -25 0 -14 -5 -25 -11 -25 -9 0 -10 -33 -5
-120 l7 -120 -46 2 -47 2 6 47 c4 26 2 50 -3 53 -13 8 -13 147 0 162 6 8 9 35
7 61 l-3 48 38 -4 c36 -3 37 -4 37 -42z m295 -186 c0 -39 -2 -43 -20 -39 -11
3 -30 6 -43 6 l-22 0 26 39 c35 54 59 51 59 -6z"/>
</g>
</svg>
