<?xml version="1.0" standalone="no"?>
<!DOCTYPE svg PUBLIC "-//W3C//DTD SVG 20010904//EN"
 "http://www.w3.org/TR/2001/REC-SVG-20010904/DTD/svg10.dtd">
<svg version="1.0" xmlns="http://www.w3.org/2000/svg"
 width="101.000000pt" height="101.000000pt" viewBox="0 0 101.000000 101.000000"
 preserveAspectRatio="xMidYMid meet">
<metadata>
Created by potrace 1.16, written by Peter Selinger 2001-2019
</metadata>
<g transform="translate(0.000000,101.000000) scale(0.100000,-0.100000)"
fill="#000000" stroke="none">
<path d="M346 964 c-14 -54 -4 -61 87 -60 78 1 83 0 81 -19 -1 -11 -3 -24 -3
-30 -1 -5 -5 -16 -10 -24 -7 -12 -17 -9 -55 13 -49 29 -72 28 -100 -3 -16 -18
-15 -20 38 -51 31 -17 58 -35 61 -40 6 -10 -57 -67 -91 -82 -20 -9 -27 -8 -39
8 -17 22 -19 60 -5 69 6 4 11 32 10 63 0 32 0 64 1 72 6 47 5 48 -106 48 -58
0 -109 2 -112 5 -3 4 -14 2 -24 -4 -14 -7 -19 -21 -19 -54 0 -25 5 -45 10 -45
6 0 10 -16 10 -35 0 -19 -4 -35 -10 -35 -6 0 -10 -30 -10 -70 0 -40 4 -70 10
-70 6 0 10 -11 10 -25 0 -14 -5 -25 -11 -25 -7 0 -9 -48 -7 -150 3 -163 0
-156 63 -151 33 3 48 18 39 41 -3 8 -7 33 -9 55 l-3 41 38 1 39 2 -4 -53 c-5
-60 3 -67 64 -58 30 4 32 7 27 31 -13 60 -19 228 -8 235 8 4 10 2 6 -8 -3 -8
0 -24 6 -37 12 -21 16 -22 102 -15 59 4 87 2 83 -4 -4 -6 -9 -23 -11 -38 -8
-42 -16 -43 -67 -10 l-48 31 -32 -33 c-18 -18 -27 -34 -21 -37 6 -2 32 -17 57
-33 33 -21 45 -34 41 -45 -10 -25 -93 -84 -146 -103 -43 -15 -64 -32 -39 -32
5 0 24 -14 42 -31 l33 -31 34 18 c18 10 62 46 97 80 l63 62 28 -29 c15 -16 31
-29 35 -29 5 0 20 16 36 36 l28 37 -25 16 c-63 42 -61 37 -35 131 13 47 24 75
24 63 1 -13 4 -23 9 -23 4 0 7 -13 8 -29 1 -16 18 -64 38 -107 34 -72 35 -77
19 -91 -31 -24 -77 -46 -129 -62 l-51 -16 43 -38 43 -38 49 25 c27 14 63 36
80 50 16 15 32 26 35 26 3 0 26 -17 52 -39 84 -69 87 -70 134 -21 23 24 41 44
41 46 0 1 -17 8 -37 14 -21 7 -59 24 -84 37 l-47 25 33 71 c35 76 78 217 69
226 -2 3 -52 8 -109 11 l-105 5 51 44 52 45 39 -47 39 -46 39 27 c22 15 39 30
40 34 0 4 -24 28 -54 53 -49 43 -53 50 -45 74 5 14 22 64 38 111 l30 85 -37 7
c-57 11 -162 9 -162 -2 0 -6 -33 -10 -80 -10 -47 0 -80 4 -80 10 0 6 -18 10
-40 10 -22 0 -40 -4 -40 -10 0 -5 -25 -10 -55 -10 -30 0 -55 5 -55 10 0 21
-18 9 -24 -16z m300 -68 c14 -4 35 -4 47 0 11 3 42 7 68 8 43 1 46 -1 39 -19
-5 -11 -13 -33 -19 -48 l-11 -28 -44 30 c-25 17 -51 31 -58 31 -13 -1 -58 -34
-58 -43 0 -2 25 -21 55 -41 34 -23 53 -41 49 -48 -12 -19 -75 -72 -103 -87
-24 -13 -24 -11 7 21 l32 34 -44 31 -45 32 27 80 c15 44 28 74 30 66 2 -7 14
-16 28 -19z m-424 -106 c-1 -33 2 -61 8 -65 11 -7 13 -78 4 -177 l-7 -67 -38
2 c-36 1 -39 4 -45 34 -3 18 -3 52 1 75 3 24 7 90 8 148 l2 105 35 1 35 2 -3
-58z m374 -202 c-7 -4 -51 -5 -97 -1 l-85 6 50 52 51 52 47 -51 c32 -36 43
-53 34 -58z m-231 26 c15 -14 25 -27 23 -29 -10 -10 -67 20 -71 37 -7 26 15
22 48 -8z m429 -131 c-4 -16 -16 -52 -27 -82 l-20 -54 -14 27 c-24 47 -41 102
-34 114 3 6 22 12 41 15 19 2 41 5 48 5 9 2 10 -6 6 -25z"/>
</g>
</svg>
