<?xml version="1.0" standalone="no"?>
<!DOCTYPE svg PUBLIC "-//W3C//DTD SVG 20010904//EN"
 "http://www.w3.org/TR/2001/REC-SVG-20010904/DTD/svg10.dtd">
<svg version="1.0" xmlns="http://www.w3.org/2000/svg"
 width="101.000000pt" height="102.000000pt" viewBox="0 0 101.000000 102.000000"
 preserveAspectRatio="xMidYMid meet">
<metadata>
Created by potrace 1.16, written by Peter Selinger 2001-2019
</metadata>
<g transform="translate(0.000000,102.000000) scale(0.100000,-0.100000)"
fill="#000000" stroke="none">
<path d="M555 942 c-29 -58 -57 -96 -117 -155 -43 -43 -84 -77 -91 -74 -16 5
-21 45 -9 60 6 7 10 37 10 67 l-1 55 -78 2 c-46 2 -79 -2 -79 -7 0 -6 -25 -10
-55 -10 -30 0 -55 5 -55 10 0 6 -4 10 -9 10 -5 0 -7 -61 -5 -142 5 -150 5
-275 1 -445 -3 -113 -3 -113 66 -105 39 4 49 26 25 50 -9 9 -9 18 0 37 6 13 9
31 7 38 -4 9 7 13 39 15 l45 2 -4 -39 c-4 -44 6 -51 66 -43 l36 4 1 64 c0 35
-3 66 -8 69 -12 8 -11 146 1 161 6 8 9 36 7 64 l-3 51 22 -25 c12 -14 25 -26
30 -26 4 0 27 19 52 43 24 23 41 36 37 30 -4 -7 -2 -22 4 -34 10 -17 19 -20
58 -17 l47 3 0 -40 0 -40 -62 -3 c-37 -2 -63 1 -63 7 0 16 -35 22 -64 12 -29
-12 -35 -45 -13 -75 11 -15 26 -17 108 -14 l94 3 0 -40 c0 -45 8 -43 -108 -29
-31 4 -53 2 -62 -6 -17 -14 -21 -90 -5 -90 15 0 12 -67 -2 -73 -10 -4 -10 -8
1 -15 10 -7 12 -30 10 -90 -4 -89 -2 -93 59 -84 29 4 31 7 27 37 -3 28 -1 33
18 34 12 0 56 3 97 6 41 3 90 3 108 0 30 -6 33 -9 27 -34 -7 -33 10 -41 64
-33 31 4 33 6 25 36 -9 35 -9 176 0 253 6 50 6 53 -19 59 -14 3 -38 3 -53 0
-15 -3 -43 -7 -62 -9 -35 -2 -35 -2 -35 40 0 23 3 39 7 37 5 -3 55 -2 113 2
111 7 121 13 109 59 -6 26 -52 43 -78 28 -8 -4 -44 -7 -79 -5 -65 4 -65 4 -69
35 -3 32 -3 32 40 32 45 0 66 17 56 47 -3 12 12 7 63 -20 47 -25 68 -32 71
-23 2 7 17 28 33 46 16 18 29 35 29 37 0 3 -19 11 -42 18 -67 19 -134 57 -173
95 -42 42 -79 111 -65 120 28 17 -1 35 -66 41 l-41 4 -38 -78z m166 -168 l30
-31 -113 1 -113 1 47 62 c25 34 49 72 53 84 6 19 11 15 37 -32 16 -30 43 -68
59 -85z m-474 -152 l3 -187 -45 0 -45 -1 6 108 c5 79 4 108 -4 108 -7 0 -12
15 -12 35 0 19 5 35 10 35 6 0 10 18 10 39 0 33 4 40 23 44 55 11 52 21 54
-181z m494 -268 c19 -4 27 -12 27 -27 1 -12 4 -37 8 -54 5 -29 3 -34 -21 -43
-16 -6 -65 -8 -114 -5 -145 8 -136 5 -133 45 1 19 3 45 3 58 1 16 6 21 18 18
9 -3 22 -2 30 3 15 10 143 13 182 5z"/>
</g>
</svg>
