<?xml version="1.0" standalone="no"?>
<!DOCTYPE svg PUBLIC "-//W3C//DTD SVG 20010904//EN"
 "http://www.w3.org/TR/2001/REC-SVG-20010904/DTD/svg10.dtd">
<svg version="1.0" xmlns="http://www.w3.org/2000/svg"
 width="101.000000pt" height="103.000000pt" viewBox="0 0 101.000000 103.000000"
 preserveAspectRatio="xMidYMid meet">
<metadata>
Created by potrace 1.16, written by Peter Selinger 2001-2019
</metadata>
<g transform="translate(0.000000,103.000000) scale(0.100000,-0.100000)"
fill="#000000" stroke="none">
<path d="M658 990 c2 -22 1 -56 -2 -75 l-7 -35 -84 5 c-82 5 -85 6 -151 56
l-68 51 -23 -26 c-13 -15 -23 -32 -22 -39 0 -7 30 -34 66 -61 l65 -48 22 26
21 27 4 -93 c8 -169 -4 -317 -35 -410 -16 -50 -80 -154 -108 -177 -16 -13 -13
-16 31 -33 l48 -18 17 23 c49 63 109 206 122 292 2 11 4 24 5 28 2 14 21 -3
21 -19 0 -9 15 -49 34 -89 l34 -75 -37 -29 c-21 -17 -62 -42 -92 -57 -30 -15
-55 -28 -57 -29 -1 -1 14 -19 33 -40 l36 -38 35 19 c19 11 60 40 91 65 l56 46
45 -34 c44 -33 133 -83 149 -83 8 0 32 59 36 89 1 8 -15 18 -40 26 -48 15
-133 62 -133 74 0 5 11 34 25 65 24 54 61 171 71 226 2 14 6 30 9 37 5 14 -30
27 -45 18 -6 -3 -29 -7 -53 -8 l-42 -2 3 75 3 75 45 1 c38 1 44 -1 39 -15 -18
-46 -17 -69 3 -75 49 -16 61 -15 68 7 4 12 7 24 7 27 0 3 4 19 9 35 37 120 42
113 -75 111 l-102 -1 1 45 c0 25 4 55 8 66 7 23 -13 34 -64 34 -24 0 -25 -3
-22 -40z m2 -263 c0 -41 -2 -76 -4 -78 -3 -2 -25 -3 -50 -1 l-46 4 0 44 c0 24
5 44 10 44 6 0 10 11 10 24 0 20 6 25 33 29 17 2 35 5 40 5 4 1 7 -31 7 -71z
m93 -187 c-2 -45 -43 -154 -53 -143 -12 11 -46 101 -55 141 -6 30 -5 33 11 28
11 -3 26 -1 34 4 8 6 26 9 40 8 22 -3 25 -7 23 -38z"/>
<path d="M73 923 c-16 -6 -18 -123 -3 -123 6 0 10 -16 10 -35 0 -19 -4 -35
-10 -35 -6 0 -10 -30 -10 -70 0 -40 4 -70 10 -70 6 0 10 -11 10 -25 0 -14 -4
-25 -9 -25 -5 0 -8 -58 -8 -129 2 -143 2 -143 65 -133 34 5 40 20 20 51 -9 15
-9 26 0 45 6 14 9 32 6 39 -3 10 4 14 26 14 28 0 30 -3 25 -27 -7 -31 13 -41
59 -33 25 5 34 28 27 73 -1 8 -3 65 -4 127 -2 127 -7 123 86 55 46 -33 49 -34
63 -16 20 27 36 55 32 59 -23 20 -124 85 -134 85 -6 0 -22 -15 -33 -32 l-21
-33 5 80 c3 44 8 88 11 98 3 9 3 25 -1 36 -4 15 -13 17 -55 13 -28 -2 -56 0
-62 6 -13 10 -83 14 -105 5z m133 -251 l1 -169 -28 0 -28 0 6 99 c4 71 3 98
-5 98 -7 0 -12 11 -12 25 0 14 5 25 10 25 6 0 10 18 10 39 0 33 4 40 23 44 12
2 22 5 22 6 0 0 0 -75 1 -167z"/>
<path d="M350 475 c-19 -43 -55 -115 -81 -160 l-48 -83 35 -37 c19 -21 36 -36
38 -34 6 6 127 272 138 302 9 26 7 32 -19 59 l-30 29 -33 -76z"/>
</g>
</svg>
