<?xml version="1.0" standalone="no"?>
<!DOCTYPE svg PUBLIC "-//W3C//DTD SVG 20010904//EN"
 "http://www.w3.org/TR/2001/REC-SVG-20010904/DTD/svg10.dtd">
<svg version="1.0" xmlns="http://www.w3.org/2000/svg"
 width="101.000000pt" height="101.000000pt" viewBox="0 0 101.000000 101.000000"
 preserveAspectRatio="xMidYMid meet">
<metadata>
Created by potrace 1.16, written by Peter Selinger 2001-2019
</metadata>
<g transform="translate(0.000000,101.000000) scale(0.100000,-0.100000)"
fill="#000000" stroke="none">
<path d="M550 1003 c0 -5 9 -21 20 -38 11 -16 20 -34 20 -40 0 -10 -41 -10
-146 0 -49 5 -65 2 -78 -10 -37 -37 -6 -102 43 -90 14 3 85 8 156 10 185 6
191 6 287 1 86 -5 88 -4 94 19 3 13 3 33 -1 44 -5 16 -12 19 -36 14 -17 -3
-35 0 -44 7 -10 8 -24 9 -42 4 -16 -4 -51 -8 -80 -8 l-52 -1 -13 48 -12 47
-58 0 c-32 0 -58 -3 -58 -7z"/>
<path d="M67 913 c-9 -18 -8 -121 2 -127 12 -8 13 -153 1 -161 -12 -7 -12
-153 0 -160 12 -8 13 -52 1 -59 -5 -4 -9 -44 -9 -90 1 -93 4 -98 66 -88 25 3
32 9 32 26 0 12 -5 27 -12 34 -9 9 -9 18 0 37 6 13 9 31 7 38 -4 9 7 13 40 15
47 2 51 -2 36 -41 -14 -36 2 -52 50 -50 47 2 58 8 41 25 -15 15 -16 158 -2
158 6 0 10 23 10 50 0 28 -4 50 -10 50 -5 0 -10 11 -10 25 0 14 5 25 10 25 6
0 10 30 10 70 0 40 -4 70 -10 70 -5 0 -10 11 -10 25 0 14 5 25 10 25 6 0 10
22 10 49 0 35 -4 51 -16 55 -25 10 -84 7 -84 -4 0 -5 -16 -10 -35 -10 -19 0
-35 5 -35 10 0 11 -87 14 -93 3z m165 -143 c-1 -33 2 -61 8 -65 12 -7 13 -68
4 -178 l-7 -76 -43 1 c-41 2 -44 4 -50 35 -3 18 -3 54 1 80 3 26 7 95 8 153
l2 105 40 2 40 2 -3 -59z"/>
<path d="M687 778 c-27 -87 -33 -92 -108 -83 -63 8 -63 8 -29 17 19 6 36 11
38 13 7 6 -43 95 -54 95 -15 0 -74 -21 -74 -27 0 -2 4 -12 9 -21 4 -9 11 -29
15 -44 l6 -28 -64 0 c-61 0 -64 -1 -70 -26 -4 -15 -6 -55 -5 -89 2 -70 9 -76
67 -67 24 3 34 11 38 29 4 13 1 30 -5 36 -25 25 -11 33 57 29 37 -2 69 -6 71
-8 2 -2 4 -25 5 -52 l1 -50 -58 -6 c-32 -3 -66 -2 -76 4 -10 5 -28 6 -40 3
-20 -5 -21 -10 -16 -57 14 -115 14 -168 0 -206 -22 -63 -5 -82 64 -72 30 4 32
7 25 31 -5 14 -8 62 -7 106 3 124 3 123 27 124 11 0 34 2 51 3 34 3 32 10 41
-137 3 -66 1 -102 -10 -133 -23 -65 -7 -85 62 -74 31 4 31 4 24 51 -4 25 -6
91 -5 146 3 147 3 147 19 141 8 -3 25 -1 38 6 35 15 74 3 76 -24 9 -125 -2
-148 -70 -142 -22 2 -40 2 -40 1 0 -2 9 -20 20 -42 11 -22 20 -45 20 -53 0
-25 118 1 136 30 5 7 9 63 10 123 4 185 6 195 30 195 19 0 22 7 28 63 9 81 1
115 -30 123 -12 3 -28 3 -34 -1 -11 -7 -130 -13 -130 -7 0 10 52 82 60 82 21
0 9 21 -17 31 -72 27 -77 25 -96 -33z m-72 -168 c-3 -5 -8 -10 -11 -10 -2 0
-4 5 -4 10 0 6 5 10 11 10 5 0 7 -4 4 -10z m213 -5 c1 -1 3 -20 4 -43 1 -28 6
-42 15 -42 7 0 13 -4 13 -9 0 -13 -119 -22 -140 -11 -10 5 -25 8 -32 5 -14 -6
-16 36 -3 69 5 11 3 21 -5 26 -10 6 -8 9 6 12 18 3 136 -2 142 -7z"/>
</g>
</svg>
