<?xml version="1.0" standalone="no"?>
<!DOCTYPE svg PUBLIC "-//W3C//DTD SVG 20010904//EN"
 "http://www.w3.org/TR/2001/REC-SVG-20010904/DTD/svg10.dtd">
<svg version="1.0" xmlns="http://www.w3.org/2000/svg"
 width="101.000000pt" height="101.000000pt" viewBox="0 0 101.000000 101.000000"
 preserveAspectRatio="xMidYMid meet">
<metadata>
Created by potrace 1.16, written by Peter Selinger 2001-2019
</metadata>
<g transform="translate(0.000000,101.000000) scale(0.100000,-0.100000)"
fill="#000000" stroke="none">
<path d="M460 1000 c0 -5 5 -10 11 -10 6 0 9 -19 7 -47 l-3 -47 -48 3 c-71 4
-104 -6 -111 -35 -10 -40 9 -64 52 -64 20 0 51 4 67 9 29 8 30 7 30 -23 0 -30
-1 -31 -40 -28 -22 2 -52 -1 -67 -7 -26 -10 -28 -14 -28 -71 0 -36 4 -60 11
-60 7 0 9 -23 4 -75 -8 -83 -10 -81 63 -76 17 2 32 -2 32 -7 0 -21 -103 -153
-147 -188 -26 -21 -52 -41 -56 -44 -4 -4 11 -19 35 -35 l42 -28 46 50 c25 27
59 76 77 108 24 46 31 54 32 34 0 -13 3 -54 6 -91 3 -43 0 -81 -9 -106 -18
-50 -8 -66 39 -65 46 1 47 3 35 39 -6 16 -8 65 -5 109 3 44 6 91 6 104 l1 24
24 -29 c14 -16 36 -46 51 -66 30 -44 38 -46 76 -13 l28 25 -29 38 c-17 20 -44
50 -61 67 -31 29 -32 29 -61 12 l-29 -18 2 40 c1 42 0 42 87 43 l45 1 2 138 2
138 -44 7 c-25 3 -55 4 -67 1 -20 -5 -23 -2 -24 26 l0 33 67 -3 c61 -3 68 -1
74 18 4 11 4 30 1 43 -5 20 -11 22 -75 21 l-70 -1 5 58 4 58 -45 0 c-25 0 -45
-4 -45 -10z m7 -388 l2 -69 -30 0 c-23 0 -31 6 -35 24 -4 14 -2 35 4 49 7 13
9 30 6 38 -4 10 3 16 23 19 15 2 28 5 28 5 0 1 1 -29 2 -66z m128 50 c-3 -7 0
-23 6 -34 6 -11 8 -35 5 -52 -5 -28 -10 -33 -36 -33 -26 0 -31 5 -36 33 -3 17
-1 41 5 52 6 11 8 27 5 35 -4 10 3 14 26 13 21 -1 29 -5 25 -14z"/>
<path d="M858 993 c-22 -5 -34 -48 -20 -66 14 -16 14 -174 1 -182 -12 -8 -12
-142 1 -150 13 -8 13 -52 -1 -61 -8 -4 -9 -53 -5 -159 5 -131 3 -155 -10 -166
-12 -10 -22 -10 -45 -2 -23 9 -69 8 -69 -1 0 -1 9 -19 20 -41 11 -22 20 -47
20 -56 0 -14 7 -17 33 -14 47 5 97 22 118 41 22 20 47 126 30 132 -14 5 -15
142 -1 142 6 0 10 40 10 100 0 60 -4 100 -10 100 -5 0 -10 11 -10 25 0 14 5
25 10 25 6 0 10 30 10 70 0 40 -4 70 -10 70 -5 0 -10 16 -10 35 0 19 5 35 10
35 6 0 10 26 10 59 0 69 -16 82 -82 64z"/>
<path d="M60 854 c0 -36 4 -64 10 -64 6 0 10 -11 10 -25 0 -14 -4 -25 -10 -25
-6 0 -10 -30 -10 -70 0 -40 4 -70 10 -70 6 0 10 -11 10 -25 0 -14 -4 -25 -10
-25 -5 0 -10 -22 -10 -50 0 -27 5 -50 10 -50 13 0 13 -147 0 -155 -5 -3 -10
-17 -10 -29 0 -26 23 -37 62 -29 20 4 25 11 26 41 3 78 3 79 31 79 24 0 27 -4
28 -34 1 -19 4 -37 7 -41 7 -6 75 -7 81 0 2 1 -1 39 -5 83 -12 109 -12 203 0
210 12 7 11 113 -1 121 -12 7 -11 51 1 59 6 3 10 40 9 80 -1 60 -4 75 -18 80
-9 3 -62 4 -119 4 l-102 -2 0 -63z m131 -24 c5 0 9 -11 9 -25 0 -14 5 -25 10
-25 6 0 10 -32 10 -75 0 -50 -4 -75 -12 -75 -8 0 -9 -27 -5 -98 l6 -99 -29 0
-28 0 -7 134 c-5 95 -4 137 4 147 7 8 10 38 9 70 -3 44 -1 55 10 51 8 -3 18
-5 23 -5z"/>
<path d="M717 885 c-17 -17 -23 -160 -7 -170 12 -8 13 -52 1 -59 -12 -8 -13
-114 -1 -121 15 -9 12 -98 -4 -137 -20 -46 -8 -63 45 -61 23 1 43 3 44 5 2 2
-2 48 -8 102 -8 76 -8 101 1 104 15 5 17 142 2 142 -6 0 -10 32 -10 75 0 41 4
75 9 75 5 0 11 8 13 18 2 11 -6 21 -25 30 -37 15 -42 15 -60 -3z"/>
</g>
</svg>
