<?xml version="1.0" standalone="no"?>
<!DOCTYPE svg PUBLIC "-//W3C//DTD SVG 20010904//EN"
 "http://www.w3.org/TR/2001/REC-SVG-20010904/DTD/svg10.dtd">
<svg version="1.0" xmlns="http://www.w3.org/2000/svg"
 width="101.000000pt" height="101.000000pt" viewBox="0 0 101.000000 101.000000"
 preserveAspectRatio="xMidYMid meet">
<metadata>
Created by potrace 1.16, written by Peter Selinger 2001-2019
</metadata>
<g transform="translate(0.000000,101.000000) scale(0.100000,-0.100000)"
fill="#000000" stroke="none">
<path d="M408 919 c3 -38 0 -59 -7 -59 -15 0 -14 -77 1 -82 8 -3 9 -28 2 -97
-5 -50 -8 -94 -5 -97 9 -9 81 -4 81 6 0 15 67 12 74 -2 5 -10 7 -10 12 0 7 15
164 17 164 2 0 -5 18 -10 40 -10 22 0 40 5 40 10 0 6 13 10 29 10 17 0 33 -4
36 -10 16 -26 23 -2 24 85 1 59 -3 95 -9 95 -13 0 -13 67 -1 72 10 3 18 124
10 132 -3 3 -37 0 -77 -6 -52 -9 -82 -9 -105 -1 -18 6 -95 11 -172 11 l-140 1
3 -60z m187 -67 l-1 -47 -58 -3 c-51 -3 -58 -1 -52 13 3 9 6 31 6 48 0 32 1
32 53 34 l53 2 -1 -47z m210 3 l0 -40 -61 3 -62 4 2 36 1 37 60 0 60 0 0 -40z
m-210 -150 l0 -40 -52 3 c-51 4 -51 4 -55 40 l-3 37 55 0 55 0 0 -40z m210 1
l0 -44 -60 1 -60 2 0 37 c-1 37 -1 37 45 41 25 2 52 4 60 5 12 2 15 -8 15 -42z"/>
<path d="M306 933 c-3 -3 -57 -5 -119 -5 l-114 1 -2 -69 c-1 -38 3 -71 9 -75
11 -7 12 -153 0 -160 -12 -7 -12 -153 0 -160 12 -7 13 -48 3 -59 -5 -4 -8 -36
-9 -71 -1 -70 5 -76 62 -68 29 5 30 6 28 57 l-2 52 44 2 44 2 -6 -39 c-7 -43
6 -52 62 -44 l29 5 -2 186 c-2 259 -2 257 1 354 3 63 0 88 -9 92 -7 2 -16 2
-19 -1z m-66 -115 c0 -16 5 -28 10 -28 6 0 10 -32 10 -75 0 -49 -4 -75 -11
-75 -8 0 -10 -26 -7 -90 l5 -89 -42 1 -42 2 -7 81 c-9 116 -7 173 4 180 6 4 9
32 8 64 l-3 57 37 -1 c35 0 38 -2 38 -27z"/>
<path d="M378 544 c-21 -6 -33 -44 -24 -72 5 -16 14 -20 40 -18 39 3 36 13 39
-136 2 -93 1 -99 -24 -124 l-27 -26 23 -35 c13 -18 25 -39 27 -45 2 -6 28 8
59 33 31 24 77 56 102 71 l46 27 -15 38 c-9 21 -18 40 -20 42 -1 2 -23 -13
-48 -34 l-45 -36 -5 33 c-3 18 -4 60 -1 93 3 33 6 69 6 80 1 17 9 21 39 22 35
2 38 0 44 -30 11 -60 63 -153 113 -204 58 -57 183 -126 190 -105 3 8 18 29 34
47 16 18 29 35 29 38 0 2 -15 8 -32 11 -18 3 -62 20 -98 37 l-65 31 40 34 c22
18 55 41 73 49 17 9 32 19 32 23 0 9 -84 62 -99 62 -6 0 -11 -4 -11 -9 0 -4
-19 -30 -42 -56 l-42 -47 -16 33 c-10 19 -20 46 -24 60 -7 30 -14 28 124 32
47 1 97 -2 111 -6 23 -8 27 -5 31 18 3 15 3 36 1 46 -5 18 -16 19 -167 18 -88
-1 -171 -1 -183 -1 -13 1 -42 1 -65 1 -24 0 -63 2 -88 5 -25 2 -53 2 -62 0z"/>
</g>
</svg>
