<?xml version="1.0" standalone="no"?>
<!DOCTYPE svg PUBLIC "-//W3C//DTD SVG 20010904//EN"
 "http://www.w3.org/TR/2001/REC-SVG-20010904/DTD/svg10.dtd">
<svg version="1.0" xmlns="http://www.w3.org/2000/svg"
 width="101.000000pt" height="101.000000pt" viewBox="0 0 101.000000 101.000000"
 preserveAspectRatio="xMidYMid meet">
<metadata>
Created by potrace 1.16, written by Peter Selinger 2001-2019
</metadata>
<g transform="translate(0.000000,101.000000) scale(0.100000,-0.100000)"
fill="#000000" stroke="none">
<path d="M303 995 c-18 -8 -33 -16 -33 -19 0 -3 11 -22 25 -42 14 -20 22 -40
19 -45 -6 -11 -68 -12 -78 -1 -4 4 -37 7 -72 7 -69 0 -83 -11 -69 -55 8 -26
41 -30 215 -27 139 2 145 1 145 -18 0 -19 -7 -20 -143 -20 -116 0 -145 -3
-152 -15 -26 -41 2 -68 74 -69 31 0 58 4 61 9 7 11 117 13 153 4 17 -5 22 -13
20 -31 l-3 -25 -180 -1 -180 -2 -3 -25 c-4 -47 10 -55 98 -53 70 1 79 -1 63
-12 -17 -13 -17 -15 6 -39 l23 -25 -33 -5 c-19 -3 -61 -4 -94 -1 -90 7 -106 8
-112 1 -8 -8 -8 -64 0 -72 7 -8 41 -7 87 1 19 4 78 7 130 6 52 0 124 0 160 0
284 -1 437 -5 465 -14 35 -11 52 11 47 64 -2 13 -16 16 -84 17 -132 1 -132 1
-114 21 9 10 16 25 16 33 0 12 15 18 59 23 63 7 76 19 65 59 -5 23 -7 23 -172
22 -166 -1 -167 -1 -168 22 -2 18 3 22 27 22 16 0 29 5 29 10 0 16 141 12 173
-5 45 -23 74 0 61 49 -5 22 -12 24 -112 29 -59 4 -123 5 -143 4 -30 -2 -35 1
-31 15 4 19 36 22 155 18 26 -1 55 4 63 11 10 8 33 10 73 6 65 -7 77 2 65 48
-6 26 -26 37 -49 29 -8 -3 -58 -7 -111 -7 l-96 -2 36 31 c43 37 45 48 9 62
-70 27 -70 27 -98 -30 -15 -29 -30 -57 -35 -62 -5 -5 -44 -5 -87 -1 -43 4 -72
10 -65 12 19 7 14 20 -24 63 -41 45 -38 44 -81 25z m152 -464 c0 -38 -1 -39
-33 -37 -25 1 -37 9 -52 33 l-19 32 52 4 c29 2 52 4 52 5 1 1 1 -16 0 -37z
m195 -1 c-19 -37 -23 -39 -63 -38 -41 2 -42 3 -42 38 l0 35 62 2 63 2 -20 -39z"/>
<path d="M209 373 c-21 -5 -31 -40 -19 -64 6 -9 8 -60 6 -113 -3 -105 -5 -102
59 -97 32 3 46 16 38 37 -5 14 3 15 147 15 258 -1 272 -2 267 -15 -11 -28 14
-42 68 -38 19 2 21 9 22 110 1 59 2 118 3 131 3 34 -17 41 -67 24 -27 -9 -56
-13 -76 -8 -18 4 -59 6 -92 5 -202 -4 -284 -1 -325 13 -8 2 -22 3 -31 0z m411
-84 l86 0 1 -39 2 -39 -87 -1 c-181 -1 -298 -1 -319 1 -19 1 -22 7 -20 40 1
30 5 38 17 34 8 -2 22 0 30 5 8 5 57 7 110 4 52 -2 133 -4 180 -5z"/>
</g>
</svg>
