<?xml version="1.0" standalone="no"?>
<!DOCTYPE svg PUBLIC "-//W3C//DTD SVG 20010904//EN"
 "http://www.w3.org/TR/2001/REC-SVG-20010904/DTD/svg10.dtd">
<svg version="1.0" xmlns="http://www.w3.org/2000/svg"
 width="101.000000pt" height="101.000000pt" viewBox="0 0 101.000000 101.000000"
 preserveAspectRatio="xMidYMid meet">
<metadata>
Created by potrace 1.16, written by Peter Selinger 2001-2019
</metadata>
<g transform="translate(0.000000,101.000000) scale(0.100000,-0.100000)"
fill="#000000" stroke="none">
<path d="M562 1003 c22 -43 38 -86 34 -91 -11 -11 -106 -14 -119 -4 -7 6 -27
10 -45 10 -38 -1 -50 -27 -32 -72 11 -29 11 -29 78 -23 59 5 63 4 35 -6 -17
-7 -34 -15 -38 -19 -3 -3 5 -29 19 -56 19 -38 22 -51 12 -55 -7 -3 -19 -1 -27
4 -21 13 -103 11 -117 -3 -7 -7 -12 -20 -12 -30 0 -10 -4 -18 -10 -18 -17 0
-12 139 5 156 17 17 20 71 6 93 -8 12 -40 15 -145 17 -142 3 -146 1 -136 -41
1 -5 2 -35 1 -67 -1 -31 3 -59 8 -63 13 -8 13 -153 0 -161 -6 -3 -8 -53 -5
-124 4 -65 2 -130 -3 -143 -20 -53 5 -79 66 -70 26 4 30 9 31 36 3 75 1 73 47
75 l44 2 -4 -39 c-4 -44 7 -52 62 -44 35 6 48 39 31 82 -11 28 -1 281 11 264
3 -6 57 -9 131 -7 182 5 212 5 348 2 134 -3 140 0 126 56 -7 31 -38 41 -92 32
-54 -10 -112 -14 -112 -8 0 3 20 29 46 58 l45 53 -26 7 c-40 10 -21 17 40 16
50 0 56 2 61 24 10 38 -4 77 -24 69 -35 -14 -112 -18 -112 -6 0 7 -19 11 -50
11 -27 0 -49 3 -48 8 1 4 -2 24 -6 45 l-8 37 -60 0 c-33 0 -58 -3 -56 -7z
m168 -184 c0 -4 -5 -11 -11 -14 -5 -4 -8 -12 -6 -18 5 -15 -26 -79 -47 -96
-11 -9 -30 -11 -63 -6 -48 7 -48 7 -20 18 l28 12 -28 55 -28 55 88 1 c48 1 87
-2 87 -7z m-478 -61 c-1 -31 2 -59 8 -63 11 -7 13 -64 3 -182 l-6 -82 -43 1
c-41 2 -44 5 -50 35 -3 17 -3 56 1 85 3 29 7 100 8 158 l2 105 40 0 40 0 -3
-57z"/>
<path d="M431 552 c-12 -23 -13 -170 -1 -177 14 -9 12 -69 -2 -83 -8 -8 -8
-15 1 -26 8 -9 10 -41 8 -94 -5 -88 0 -96 57 -85 25 5 31 19 28 64 -1 11 7 17
21 18 12 0 51 3 87 6 36 3 79 3 96 0 26 -5 31 -10 31 -35 0 -17 3 -33 7 -37 7
-7 96 -7 103 0 2 2 -1 35 -7 73 -14 99 -13 201 3 208 10 5 10 7 0 12 -15 7
-18 74 -3 74 6 0 10 21 10 46 l0 47 -80 -7 c-54 -5 -80 -4 -80 3 0 6 -18 11
-40 11 -22 0 -40 -4 -40 -10 0 -5 -16 -10 -35 -10 -19 0 -35 5 -35 10 0 6 -27
10 -60 10 -47 0 -61 -4 -69 -18z m291 -68 c43 -6 44 -7 45 -45 2 -36 0 -39
-30 -44 -18 -3 -63 -3 -102 0 -38 3 -79 6 -90 6 -16 1 -20 8 -20 39 l0 37 41
-5 c23 -2 50 1 60 7 22 12 36 13 96 5z m18 -150 c22 -4 26 -10 28 -49 1 -42 0
-44 -31 -50 -17 -3 -63 -3 -102 0 -38 3 -80 6 -92 6 -20 1 -22 6 -21 45 2 34
6 43 18 39 8 -2 21 -1 29 4 15 10 132 13 171 5z"/>
</g>
</svg>
