<?xml version="1.0" standalone="no"?>
<!DOCTYPE svg PUBLIC "-//W3C//DTD SVG 20010904//EN"
 "http://www.w3.org/TR/2001/REC-SVG-20010904/DTD/svg10.dtd">
<svg version="1.0" xmlns="http://www.w3.org/2000/svg"
 width="101.000000pt" height="101.000000pt" viewBox="0 0 101.000000 101.000000"
 preserveAspectRatio="xMidYMid meet">
<metadata>
Created by potrace 1.16, written by Peter Selinger 2001-2019
</metadata>
<g transform="translate(0.000000,101.000000) scale(0.100000,-0.100000)"
fill="#000000" stroke="none">
<path d="M377 963 c-16 -4 -17 -18 -12 -177 4 -103 2 -183 -4 -199 -7 -17 -6
-35 2 -56 9 -25 9 -36 -1 -52 -8 -12 -15 -38 -18 -60 -3 -21 -11 -53 -19 -71
-12 -30 -13 -24 -9 74 3 62 1 109 -5 112 -12 8 -13 153 -1 161 14 9 10 238 -4
247 -15 10 -74 10 -80 0 -5 -8 -64 -7 -102 2 -14 4 -34 4 -43 1 -16 -5 -18
-20 -15 -178 5 -245 5 -331 0 -419 -5 -85 -1 -90 62 -80 36 5 44 28 28 78 -5
17 -2 20 29 21 29 1 35 -2 31 -15 -9 -28 10 -46 48 -45 20 1 36 -2 36 -6 0 -9
-69 -79 -108 -109 l-33 -25 52 -29 53 -28 29 27 c75 72 137 201 143 298 2 22
5 54 8 70 14 87 18 235 8 235 -7 0 -12 11 -12 25 0 14 5 25 10 25 6 0 10 18
10 40 l0 40 49 0 c28 0 53 4 56 10 7 12 153 12 160 0 3 -5 52 -8 109 -8 103
-1 104 0 110 25 13 51 2 60 -67 54 -34 -3 -84 -4 -112 -3 -188 6 -324 12 -345
16 -14 2 -33 2 -43 -1z m-150 -212 c1 -58 5 -135 9 -169 3 -35 3 -79 -1 -98
-6 -32 -8 -34 -43 -31 -20 1 -40 7 -44 12 -11 15 -10 93 2 100 12 7 11 113 -1
121 -13 7 -11 48 2 61 6 6 9 33 8 60 l-4 48 35 1 35 2 2 -107z"/>
<path d="M497 807 c-12 -10 -13 -36 -7 -152 4 -77 5 -154 3 -171 -4 -26 -1
-32 18 -37 12 -3 31 -1 41 4 11 6 36 8 57 4 34 -6 37 -9 38 -41 1 -28 -3 -35
-23 -40 -13 -3 -32 -3 -41 1 -10 4 -37 9 -59 11 -34 3 -43 1 -47 -15 -14 -54
22 -93 65 -70 10 6 38 7 62 4 43 -7 43 -7 42 -48 -1 -40 -2 -42 -31 -39 -16 1
-55 4 -85 6 -30 2 -62 5 -70 7 -46 8 -63 -13 -53 -65 5 -23 8 -25 47 -20 22 4
84 6 136 6 52 -1 123 -1 158 -1 34 -1 79 0 100 1 20 1 49 -1 63 -6 23 -7 27
-4 31 19 8 42 -1 67 -23 60 -10 -3 -27 -1 -39 5 -15 8 -28 7 -54 -5 -26 -13
-39 -14 -54 -6 -12 6 -27 8 -36 5 -12 -5 -15 2 -13 34 1 45 0 44 108 43 64 -1
67 0 72 25 10 54 1 62 -56 52 -33 -6 -58 -6 -74 1 -12 6 -29 8 -37 5 -11 -4
-14 3 -13 29 1 39 0 38 112 37 l61 0 2 95 c2 62 -1 95 -7 95 -7 0 -11 29 -11
75 0 43 4 75 10 75 6 0 10 7 10 16 0 10 -6 14 -15 10 -32 -12 -244 -19 -258
-8 -17 14 -112 13 -130 -1z m148 -105 c0 -36 -1 -37 -32 -34 -19 3 -33 10 -33
17 0 7 -3 20 -6 29 -4 11 3 16 33 19 21 2 38 4 38 5 0 1 0 -15 0 -36z m160 -2
c0 -34 -1 -35 -40 -35 -39 0 -40 1 -40 35 -1 35 0 35 40 35 40 0 41 -1 40 -35z
m-160 -139 c0 -39 0 -40 -36 -38 -35 1 -37 3 -36 34 1 29 4 32 36 36 20 2 36
4 36 5 0 1 0 -16 0 -37z m162 -3 l2 -38 -44 2 c-43 2 -44 3 -42 38 1 35 2 35
42 35 40 0 41 -1 42 -37z"/>
</g>
</svg>
