<?xml version="1.0" standalone="no"?>
<!DOCTYPE svg PUBLIC "-//W3C//DTD SVG 20010904//EN"
 "http://www.w3.org/TR/2001/REC-SVG-20010904/DTD/svg10.dtd">
<svg version="1.0" xmlns="http://www.w3.org/2000/svg"
 width="101.000000pt" height="102.000000pt" viewBox="0 0 101.000000 102.000000"
 preserveAspectRatio="xMidYMid meet">
<metadata>
Created by potrace 1.16, written by Peter Selinger 2001-2019
</metadata>
<g transform="translate(0.000000,102.000000) scale(0.100000,-0.100000)"
fill="#000000" stroke="none">
<path d="M701 951 c-51 -107 -56 -110 -197 -117 -92 -4 -125 -2 -146 9 -17 8
-24 17 -18 23 10 10 -72 124 -90 124 -5 0 -25 -9 -44 -21 l-36 -21 34 -41 c56
-70 56 -68 -26 -62 -40 3 -79 1 -87 -4 -17 -11 -27 -111 -17 -163 6 -32 7 -33
56 -33 44 0 52 3 57 22 3 13 3 38 1 56 -3 32 -3 32 39 32 23 -1 45 -4 48 -7
11 -11 -24 -65 -81 -127 l-56 -60 34 -15 c33 -15 32 -15 -39 -13 -65 2 -72 0
-77 -18 -17 -61 6 -86 75 -84 28 1 52 6 54 10 7 10 173 11 180 0 7 -12 93 -12
100 0 8 12 167 10 182 -3 8 -6 62 -7 152 -3 153 8 160 11 145 70 -5 22 -10 25
-28 19 -11 -4 -57 -9 -100 -11 -58 -4 -81 -1 -88 9 -7 10 -11 10 -15 1 -6 -15
-73 -18 -73 -3 0 6 -15 10 -34 10 -26 0 -35 5 -39 22 -4 12 -5 23 -4 24 1 2
52 4 112 5 66 1 113 7 117 13 4 6 8 23 8 38 0 35 -30 52 -79 44 -20 -3 -63 -7
-96 -8 -57 -3 -60 -2 -59 19 0 13 4 26 7 30 12 12 7 20 -19 32 -15 6 -36 9
-48 6 -18 -5 -19 -4 -4 5 11 6 49 8 100 5 46 -3 115 -7 153 -8 l70 -2 -3 -41
c-5 -59 11 -84 53 -84 54 0 64 19 64 113 0 92 -8 113 -35 103 -10 -4 -48 -4
-86 0 -77 7 -77 11 -13 77 39 40 38 50 -3 71 -64 32 -65 31 -101 -43z m-271
-201 c26 0 28 -3 32 -44 l3 -45 -63 2 -62 2 25 18 c34 25 32 33 -12 48 l-38
13 30 7 c17 4 36 5 43 3 8 -2 26 -4 42 -4z m35 -196 l0 -32 -117 2 -117 1 29
30 c28 29 32 30 117 30 l88 0 0 -31z"/>
<path d="M464 999 c-3 -6 -15 -9 -25 -6 -11 3 -19 4 -19 3 0 -6 58 -137 62
-142 3 -3 25 0 48 6 33 9 40 15 35 28 -4 9 -16 41 -27 70 -16 42 -24 52 -43
52 -13 0 -27 -5 -31 -11z"/>
<path d="M219 403 c-21 -5 -31 -41 -19 -64 6 -10 8 -67 7 -128 -4 -121 -3
-123 62 -113 29 4 32 7 26 32 -8 34 -33 32 337 30 l87 -1 -4 -28 c-4 -33 10
-40 67 -33 42 5 52 21 37 59 -14 38 -14 139 1 198 1 6 2 18 1 28 -1 17 -11 18
-118 17 -65 -1 -147 -1 -183 -1 -36 0 -108 -1 -160 -2 -52 0 -102 2 -110 5 -8
3 -22 4 -31 1z m411 -84 l86 0 1 -39 2 -39 -87 -1 c-181 -1 -298 -1 -319 1
-19 1 -22 7 -20 40 1 30 5 38 17 34 8 -2 22 0 30 5 8 5 57 7 110 4 52 -2 133
-4 180 -5z"/>
</g>
</svg>
