<?xml version="1.0" standalone="no"?>
<!DOCTYPE svg PUBLIC "-//W3C//DTD SVG 20010904//EN"
 "http://www.w3.org/TR/2001/REC-SVG-20010904/DTD/svg10.dtd">
<svg version="1.0" xmlns="http://www.w3.org/2000/svg"
 width="101.000000pt" height="101.000000pt" viewBox="0 0 101.000000 101.000000"
 preserveAspectRatio="xMidYMid meet">
<metadata>
Created by potrace 1.16, written by Peter Selinger 2001-2019
</metadata>
<g transform="translate(0.000000,101.000000) scale(0.100000,-0.100000)"
fill="#000000" stroke="none">
<path d="M370 982 c-9 -4 -15 -22 -16 -45 -2 -46 6 -48 129 -45 69 2 86 0 82
-10 -3 -8 -5 -18 -5 -23 0 -6 -29 -7 -74 -3 -66 6 -75 5 -84 -12 -13 -25 -15
-161 -2 -169 13 -8 13 -52 0 -60 -5 -3 -8 -36 -7 -73 l2 -67 46 0 47 0 -21
-30 c-29 -41 -118 -127 -125 -121 -3 3 -4 60 -3 126 1 79 -2 120 -8 120 -6 0
-11 11 -11 25 0 14 5 25 10 25 6 0 10 30 10 70 0 40 -4 70 -10 70 -5 0 -10 16
-10 35 0 19 5 35 10 35 6 0 10 23 10 51 l0 50 -70 -7 c-45 -4 -74 -3 -83 4
-12 11 -68 14 -97 6 -18 -5 -26 -59 -10 -69 12 -7 12 -173 -1 -180 -12 -8 -12
-142 1 -150 13 -8 13 -52 0 -60 -6 -4 -9 -43 -8 -96 3 -96 2 -95 63 -90 29 3
48 18 39 32 -2 4 -6 22 -8 41 -5 34 -4 34 40 36 l44 2 -6 -40 c-7 -44 -5 -45
61 -41 l30 2 -25 -20 c-14 -11 -20 -21 -13 -21 6 0 26 -12 43 -26 l31 -27 54
53 c30 30 56 52 58 49 2 -2 18 -23 35 -46 l32 -41 -50 -17 c-28 -9 -65 -18
-83 -20 -100 -11 -120 -14 -124 -19 -3 -3 6 -19 20 -35 14 -17 27 -36 29 -43
5 -15 90 2 201 43 42 15 85 26 95 23 9 -2 62 -19 117 -38 147 -51 149 -51 184
10 l30 51 -27 1 c-15 0 -43 3 -62 6 -19 4 -46 8 -60 10 -57 8 -100 19 -100 25
0 4 16 23 36 42 55 51 117 151 102 161 -21 12 -71 9 -102 -7 -32 -17 -62 -19
-71 -6 -3 5 -29 9 -59 8 -52 -2 -53 -1 -38 18 14 18 28 20 145 22 71 1 131 4
133 6 10 10 14 176 4 182 -13 8 -13 52 0 60 6 3 10 28 10 55 0 73 -11 79 -130
77 -82 -2 -99 0 -95 11 3 7 5 18 5 23 0 6 9 7 21 4 11 -4 76 -4 144 0 132 8
141 12 129 60 -5 22 -8 23 -132 23 -70 0 -155 1 -189 1 -35 0 -91 0 -125 -1
-35 0 -76 2 -93 5 -16 4 -37 3 -45 -1z m-128 -185 c-2 -26 1 -53 7 -61 13 -15
13 -154 0 -162 -6 -3 -7 -24 -4 -48 l7 -41 -45 3 c-41 4 -45 7 -51 34 -9 46
-7 96 4 103 6 4 9 49 8 113 l-3 107 40 0 40 0 -3 -48z m532 -32 c3 -9 -25 -14
-101 -19 -167 -10 -182 -9 -180 12 1 15 15 17 138 18 99 1 139 -2 143 -11z m6
-101 c0 -15 -10 -16 -77 -10 -42 3 -108 7 -147 8 l-71 2 80 6 c165 13 215 12
215 -6z m-3 -92 c-1 -15 -17 -17 -142 -17 -118 0 -141 2 -142 15 -1 13 22 15
142 17 129 1 144 0 142 -15z m-72 -202 c16 0 13 -6 -18 -38 -21 -21 -45 -39
-55 -39 -19 0 -58 32 -74 60 -8 16 -7 18 9 13 10 -3 25 -1 33 5 8 5 31 7 50 4
19 -2 44 -5 55 -5z"/>
</g>
</svg>
