<?xml version="1.0" standalone="no"?>
<!DOCTYPE svg PUBLIC "-//W3C//DTD SVG 20010904//EN"
 "http://www.w3.org/TR/2001/REC-SVG-20010904/DTD/svg10.dtd">
<svg version="1.0" xmlns="http://www.w3.org/2000/svg"
 width="101.000000pt" height="102.000000pt" viewBox="0 0 101.000000 102.000000"
 preserveAspectRatio="xMidYMid meet">
<metadata>
Created by potrace 1.16, written by Peter Selinger 2001-2019
</metadata>
<g transform="translate(0.000000,102.000000) scale(0.100000,-0.100000)"
fill="#000000" stroke="none">
<path d="M608 1013 c15 -6 17 -99 2 -108 -5 -3 -10 -3 -10 2 0 4 -12 21 -25
36 -20 23 -28 26 -45 17 -19 -10 -58 -18 -110 -23 -23 -2 -25 -6 -28 -64 -2
-39 1 -63 8 -63 5 0 10 -11 10 -25 0 -14 -5 -25 -10 -25 -7 0 -10 -44 -8 -124
l3 -124 35 5 c65 9 125 12 151 7 21 -4 26 -11 26 -34 0 -23 -5 -30 -26 -34
-40 -8 -134 -5 -152 5 -40 21 -72 -12 -62 -64 5 -23 9 -25 44 -22 31 3 41 0
49 -16 6 -10 31 -44 55 -74 l45 -54 -57 -17 c-31 -9 -77 -18 -101 -20 -24 -1
-50 -8 -58 -15 -11 -9 -21 -9 -38 -1 -13 6 -34 8 -46 5 l-21 -6 24 -26 c14
-14 30 -36 36 -48 9 -18 17 -21 44 -17 17 3 42 7 53 9 12 1 67 19 123 38 55
19 111 33 123 31 13 -1 64 -17 113 -34 50 -17 108 -34 130 -36 40 -5 41 -5 65
43 13 26 26 50 27 53 2 3 -21 6 -49 7 -68 2 -113 8 -167 23 l-44 12 45 46 c43
45 91 110 117 160 l12 23 -78 -1 c-118 -2 -120 -2 -120 30 0 31 -4 29 112 33
39 1 79 -2 90 -6 20 -7 21 -3 20 50 0 32 -3 63 -6 68 -11 17 -10 153 1 160 6
4 10 37 9 75 l-2 69 -98 -1 c-97 -1 -99 -1 -105 -25 -4 -13 -2 -35 5 -49 9
-20 18 -24 55 -24 42 0 44 -1 48 -33 3 -31 3 -32 -32 -29 -56 6 -90 -12 -90
-47 0 -54 48 -75 111 -47 13 6 17 2 17 -16 0 -13 3 -33 7 -45 6 -19 2 -25 -21
-34 -16 -5 -40 -8 -54 -4 -14 3 -34 7 -45 8 -11 0 -23 6 -27 11 -11 16 -9 144
2 151 5 3 10 34 9 68 0 34 3 92 6 130 l6 67 -58 -1 c-32 0 -52 -3 -45 -6z m-2
-281 l2 -142 -25 -6 c-13 -4 -35 -2 -49 4 -13 7 -29 9 -36 7 -9 -4 -13 8 -13
42 l0 48 36 -3 c46 -5 73 20 64 57 -9 34 -22 42 -70 39 l-40 -3 -3 43 c-3 42
2 47 36 43 6 -1 19 2 28 7 9 5 28 9 43 8 l26 -1 1 -143z m107 -352 l28 0 -26
-34 c-14 -19 -38 -42 -52 -51 -24 -16 -26 -16 -60 17 -19 18 -39 41 -45 51 -8
16 -7 18 9 13 10 -3 25 -1 33 5 8 5 31 7 50 4 19 -2 48 -5 63 -5z"/>
<path d="M89 923 c-13 -3 -16 -21 -17 -103 -1 -56 3 -102 8 -105 12 -8 13 -52
1 -59 -12 -8 -13 -114 -1 -121 13 -8 12 -110 0 -195 -5 -35 -7 -66 -4 -69 6
-7 85 -4 92 4 3 3 0 16 -7 29 -10 17 -10 29 -2 44 6 11 9 27 6 34 -4 10 6 14
38 16 43 1 43 1 44 -34 1 -19 4 -38 7 -42 8 -7 75 -6 83 2 10 10 14 188 4 200
-12 15 -13 153 -1 161 11 7 12 205 1 224 -6 9 -40 14 -122 16 -63 1 -121 1
-130 -2z m153 -147 c-3 -44 1 -82 8 -95 8 -15 9 -51 4 -116 l-7 -94 -41 1 -41
2 0 181 0 180 30 6 c17 4 35 7 40 8 7 1 9 -26 7 -73z"/>
</g>
</svg>
