<?xml version="1.0" standalone="no"?>
<!DOCTYPE svg PUBLIC "-//W3C//DTD SVG 20010904//EN"
 "http://www.w3.org/TR/2001/REC-SVG-20010904/DTD/svg10.dtd">
<svg version="1.0" xmlns="http://www.w3.org/2000/svg"
 width="101.000000pt" height="102.000000pt" viewBox="0 0 101.000000 102.000000"
 preserveAspectRatio="xMidYMid meet">
<metadata>
Created by potrace 1.16, written by Peter Selinger 2001-2019
</metadata>
<g transform="translate(0.000000,102.000000) scale(0.100000,-0.100000)"
fill="#000000" stroke="none">
<path d="M549 1008 c-4 -41 -9 -73 -12 -83 -5 -12 -49 -12 -86 0 -11 3 -29 4
-39 0 -17 -5 -19 -18 -19 -144 0 -76 -3 -143 -7 -149 -11 -17 24 -44 48 -37
31 11 78 7 87 -6 19 -31 -36 -63 -71 -41 -9 5 -40 9 -68 9 -52 -2 -56 0 -53
40 1 11 -2 24 -7 27 -14 8 -14 153 -1 161 16 11 9 123 -9 130 -8 3 -20 1 -26
-4 -6 -5 -58 -8 -119 -5 l-107 5 0 -56 c0 -30 5 -55 10 -55 6 0 10 -11 10 -25
0 -14 -4 -25 -10 -25 -6 0 -10 -30 -10 -70 0 -40 4 -70 10 -70 6 0 10 -11 10
-25 0 -14 -4 -25 -10 -25 -5 0 -10 -22 -10 -50 0 -27 5 -50 10 -50 13 0 13
-124 1 -167 -10 -36 2 -44 56 -36 31 5 31 6 28 57 l-3 52 43 2 c38 1 42 -1 38
-18 -6 -21 4 -24 57 -22 25 1 25 1 -2 -9 -16 -6 -28 -14 -28 -17 1 -4 19 -20
42 -35 l41 -29 44 32 c26 19 44 27 43 19 -6 -40 24 -56 65 -37 13 6 35 8 48 4
27 -6 28 -13 27 -117 0 -62 10 -72 64 -62 24 5 26 9 26 62 -1 101 0 109 24
111 11 1 44 2 71 2 53 0 68 11 59 42 -5 15 0 14 41 -9 l47 -28 38 44 37 44
-57 17 c-39 12 -74 33 -107 62 l-48 44 30 1 c17 1 55 2 86 1 48 0 57 3 62 20
3 11 3 29 0 39 -4 18 -16 19 -146 19 -197 0 -190 -1 -169 27 19 27 75 36 132
21 20 -5 51 -6 70 -3 l35 7 0 155 c0 169 -4 181 -55 170 -35 -7 -190 -11 -190
-5 0 3 9 20 20 38 11 18 18 37 15 42 -3 4 -23 6 -45 3 -26 -4 -40 -2 -40 6 0
15 -20 14 -21 -1z m197 -158 c17 0 21 -6 20 -31 l-1 -32 -104 7 c-57 3 -119 6
-136 6 -26 0 -34 5 -37 23 -4 21 -2 22 73 19 51 -2 80 1 84 8 5 8 21 10 44 6
20 -3 45 -6 57 -6z m-496 -95 c0 -50 -4 -75 -11 -75 -9 0 -10 -33 -5 -120 l7
-120 -44 2 -44 2 5 88 c3 62 1 88 -7 88 -7 0 -11 26 -11 75 0 43 4 75 10 75 6
0 10 11 10 24 0 25 13 31 68 35 21 1 22 -2 22 -74z m515 -52 l0 -28 -140 0
-141 0 4 25 4 25 136 3 137 2 0 -27z m-318 -229 l22 -6 -27 -36 c-32 -41 -101
-94 -113 -86 -5 3 -9 32 -9 66 0 57 1 60 23 55 12 -4 29 -2 37 3 17 11 36 12
67 4z m257 -41 c19 -27 45 -60 56 -75 20 -26 20 -29 4 -35 -9 -3 -30 -1 -46 5
-16 6 -36 8 -44 5 -12 -4 -14 4 -10 51 5 48 3 56 -12 56 -9 0 -24 5 -32 10
-13 9 -13 11 0 20 29 19 48 10 84 -37z m-109 27 c3 -5 0 -10 -8 -10 -20 0 -27
-35 -14 -70 9 -25 9 -33 -6 -47 -14 -15 -22 -16 -48 -6 -17 7 -37 9 -46 6 -8
-3 11 26 42 66 58 71 69 80 80 61z"/>
</g>
</svg>
