<?xml version="1.0" standalone="no"?>
<!DOCTYPE svg PUBLIC "-//W3C//DTD SVG 20010904//EN"
 "http://www.w3.org/TR/2001/REC-SVG-20010904/DTD/svg10.dtd">
<svg version="1.0" xmlns="http://www.w3.org/2000/svg"
 width="101.000000pt" height="102.000000pt" viewBox="0 0 101.000000 102.000000"
 preserveAspectRatio="xMidYMid meet">
<metadata>
Created by potrace 1.16, written by Peter Selinger 2001-2019
</metadata>
<g transform="translate(0.000000,102.000000) scale(0.100000,-0.100000)"
fill="#000000" stroke="none">
<path d="M608 979 c3 -22 0 -45 -5 -50 -15 -15 -120 -24 -135 -11 -7 5 -32 10
-55 10 -47 1 -59 -15 -47 -62 l6 -25 111 4 112 4 0 -33 0 -33 -116 3 -117 3 2
-82 c1 -78 2 -82 25 -85 57 -9 94 25 73 65 -9 16 -4 18 55 18 l65 0 -51 -46
c-29 -26 -71 -55 -94 -65 -23 -10 -43 -19 -45 -20 -2 -1 5 -18 15 -38 17 -36
18 -37 68 -32 27 2 58 7 68 11 9 4 17 3 17 -3 0 -13 -111 -67 -157 -77 -18 -4
-33 -8 -33 -11 0 -2 7 -22 16 -44 15 -38 28 -46 64 -41 8 1 29 4 45 6 92 12
116 12 111 -1 -3 -7 0 -26 6 -41 8 -23 7 -39 -4 -74 l-15 -44 -47 1 c-26 1
-46 -1 -44 -5 2 -3 11 -27 22 -53 17 -45 21 -48 50 -44 93 12 110 34 113 150
4 139 3 138 19 132 8 -3 25 -1 38 6 34 15 74 2 88 -27 6 -14 15 -25 20 -25 10
0 78 43 78 50 -1 3 -34 41 -74 85 l-74 80 -36 -19 c-41 -22 -44 -29 -18 -48
10 -7 22 -19 27 -27 6 -11 2 -13 -21 -8 -16 3 -46 -2 -68 -11 -31 -12 -45 -13
-68 -4 -16 6 -37 8 -46 5 -9 -3 -15 -4 -12 -1 10 11 276 156 298 163 l24 7
-28 29 c-43 45 -59 45 -107 3 -24 -20 -54 -39 -67 -40 -75 -10 -111 -11 -115
-4 -2 4 27 24 65 46 38 21 70 41 70 44 0 3 -11 12 -25 20 -22 14 -16 15 77 12
56 -1 104 -4 106 -7 2 -2 4 -19 4 -39 0 -30 4 -36 29 -41 46 -10 66 1 73 43 8
50 7 105 -2 118 -4 7 -51 12 -122 13 -63 1 -115 3 -116 4 -1 1 -4 13 -7 27
l-6 25 125 0 c111 0 125 2 130 18 3 10 3 30 -1 44 -5 20 -10 24 -28 19 -57
-14 -137 -18 -137 -7 0 6 -17 11 -40 11 -41 0 -45 6 -42 60 1 20 -17 30 -58
30 -36 0 -36 0 -32 -41z"/>
<path d="M295 910 c-11 -4 -66 -5 -122 -3 -95 4 -102 3 -108 -16 -3 -12 -3
-26 1 -33 4 -7 7 -40 6 -75 -1 -34 3 -65 8 -68 14 -8 13 -152 -1 -160 -7 -5
-9 -50 -7 -129 2 -66 0 -130 -4 -141 -12 -33 6 -49 53 -48 46 2 62 17 52 48
-3 11 -7 34 -9 50 -2 29 0 31 36 32 l38 2 -3 -44 c-3 -49 5 -55 68 -47 36 4
47 15 27 27 -13 8 -13 145 0 145 6 0 10 23 10 50 0 28 -4 50 -10 50 -5 0 -10
11 -10 25 0 14 5 25 10 25 6 0 10 30 10 70 0 40 -4 70 -10 70 -5 0 -10 11 -10
25 0 14 5 25 10 25 6 0 10 26 10 59 0 62 -9 74 -45 61z m-45 -165 c0 -50 -4
-75 -12 -75 -8 0 -9 -30 -4 -109 l6 -110 -41 2 -41 1 6 51 c3 27 6 107 6 177
l0 127 28 4 c15 2 33 5 40 6 9 1 12 -20 12 -74z"/>
<path d="M425 294 c-22 -19 -68 -49 -102 -66 -35 -17 -62 -31 -61 -32 2 -1 19
-16 39 -34 l35 -32 85 60 c46 33 99 65 117 71 17 6 32 14 32 18 0 10 -74 51
-91 51 -8 -1 -32 -17 -54 -36z"/>
<path d="M750 291 l-33 -27 34 -24 c19 -13 61 -49 94 -82 l61 -58 37 38 38 39
-43 35 c-38 30 -112 83 -144 101 -6 3 -26 -6 -44 -22z"/>
</g>
</svg>
