<?xml version="1.0" standalone="no"?>
<!DOCTYPE svg PUBLIC "-//W3C//DTD SVG 20010904//EN"
 "http://www.w3.org/TR/2001/REC-SVG-20010904/DTD/svg10.dtd">
<svg version="1.0" xmlns="http://www.w3.org/2000/svg"
 width="101.000000pt" height="101.000000pt" viewBox="0 0 101.000000 101.000000"
 preserveAspectRatio="xMidYMid meet">
<metadata>
Created by potrace 1.16, written by Peter Selinger 2001-2019
</metadata>
<g transform="translate(0.000000,101.000000) scale(0.100000,-0.100000)"
fill="#000000" stroke="none">
<path d="M358 1003 c-22 -5 -33 -56 -18 -84 11 -19 17 -21 68 -15 32 3 78 7
103 8 43 3 46 2 45 -22 -1 -23 -4 -25 -46 -23 -25 1 -58 5 -74 9 -44 10 -56
-13 -49 -95 3 -36 10 -69 16 -72 10 -7 -3 -145 -17 -179 -9 -24 10 -43 41 -43
26 0 31 -6 45 -44 14 -40 14 -43 -1 -43 -9 0 -22 -5 -29 -12 -8 -8 -18 -9 -36
0 -29 13 -66 5 -66 -14 0 -20 -17 -17 -22 4 -2 9 -1 134 2 277 3 143 4 268 2
277 -4 19 -29 31 -44 22 -5 -3 -56 -6 -114 -6 -102 0 -111 -3 -104 -33 1 -5 2
-35 1 -67 -1 -31 3 -59 9 -63 12 -8 13 -52 1 -59 -13 -8 -12 -108 1 -123 13
-16 3 -217 -12 -258 -17 -46 6 -67 66 -58 28 4 29 7 28 52 l-1 47 38 1 c37 2
38 1 34 -31 -4 -26 -1 -35 13 -38 25 -7 82 2 82 13 0 5 5 9 10 9 6 0 10 -7 10
-15 0 -11 10 -13 43 -9 145 16 131 19 161 -26 14 -22 26 -42 26 -44 0 -6 -71
-21 -83 -18 -5 1 -24 -5 -44 -15 -28 -13 -41 -14 -64 -6 -44 17 -91 -2 -58
-23 6 -3 17 -21 25 -39 11 -27 17 -32 41 -28 53 8 68 11 153 36 l85 25 55 -34
c111 -68 198 -74 238 -16 29 44 45 86 33 90 -6 2 -26 14 -46 28 -32 22 -36 22
-41 6 -19 -60 -22 -62 -66 -58 -47 5 -78 15 -78 25 0 3 25 17 55 30 81 35 85
44 31 76 -25 15 -46 28 -46 30 0 5 39 7 111 6 64 -1 67 0 72 25 8 46 -2 65
-32 58 -14 -3 -44 -7 -66 -9 -22 -1 -53 -6 -70 -9 l-30 -7 23 17 23 17 -23 24
-23 24 25 -9 c14 -5 41 -7 60 -5 l35 5 2 188 c1 175 0 190 -17 195 -10 3 -29
3 -43 0 -14 -4 -54 -7 -89 -8 -67 -2 -70 1 -59 43 1 5 122 3 181 -2 14 -1 41
-1 61 0 30 2 38 6 43 28 14 56 7 59 -128 62 -69 1 -127 -2 -131 -7 -7 -12
-172 -13 -180 -1 -3 5 -29 8 -58 8 -29 -1 -57 1 -62 3 -6 3 -18 4 -27 2z
m-118 -208 c0 -49 -4 -75 -11 -75 -8 0 -10 -36 -4 -130 l7 -129 -41 2 -40 1 6
98 c4 71 3 98 -5 98 -8 0 -12 25 -12 75 0 43 4 75 10 75 6 0 10 11 10 24 0 18
7 26 23 29 58 11 57 13 57 -68z m430 4 c0 -8 16 -10 48 -7 34 3 49 1 49 -7 0
-18 -151 -29 -179 -14 -11 6 -41 9 -64 6 -24 -2 -44 -1 -44 4 0 5 27 9 60 9
33 0 60 4 60 10 0 6 16 10 35 10 19 0 35 -5 35 -11z m83 -105 c9 -3 17 -11 17
-19 0 -18 -83 -27 -175 -20 -38 3 -80 6 -92 6 -13 1 -23 6 -23 13 0 7 19 10
55 9 30 -1 57 2 60 7 6 9 130 13 158 4z m-30 -100 c30 -4 47 -11 47 -19 0 -18
-84 -27 -175 -20 -38 3 -80 6 -92 6 -13 1 -23 8 -23 16 0 9 6 12 18 9 9 -3 23
-2 31 3 16 10 127 13 194 5z m-38 -94 c19 -7 19 -7 -3 -14 -26 -9 -28 -23 -6
-47 15 -17 15 -18 -7 -23 -13 -3 -40 -4 -59 -3 -27 2 -35 7 -36 22 -3 51 -5
55 -26 55 -18 0 -20 2 -9 9 17 11 117 12 146 1z m59 -149 c3 -5 -15 -23 -41
-41 l-48 -31 -22 28 -23 28 21 7 c12 5 25 6 30 2 5 -3 17 0 26 5 22 13 50 14
57 2z"/>
</g>
</svg>
