<?xml version="1.0" standalone="no"?>
<!DOCTYPE svg PUBLIC "-//W3C//DTD SVG 20010904//EN"
 "http://www.w3.org/TR/2001/REC-SVG-20010904/DTD/svg10.dtd">
<svg version="1.0" xmlns="http://www.w3.org/2000/svg"
 width="101.000000pt" height="101.000000pt" viewBox="0 0 101.000000 101.000000"
 preserveAspectRatio="xMidYMid meet">
<metadata>
Created by potrace 1.16, written by Peter Selinger 2001-2019
</metadata>
<g transform="translate(0.000000,101.000000) scale(0.100000,-0.100000)"
fill="#000000" stroke="none">
<path d="M348 920 c3 -39 0 -60 -7 -60 -6 0 -11 -18 -11 -40 0 -23 5 -40 11
-40 8 0 10 -22 5 -75 -7 -81 -7 -81 52 -76 27 2 27 -3 2 -39 -20 -28 -78 -70
-97 -70 -15 0 -28 300 -15 309 12 7 19 97 9 108 -11 10 -213 10 -224 0 -4 -5
-7 -81 -6 -170 4 -243 4 -336 1 -404 -3 -68 4 -76 56 -66 26 5 32 25 28 84 -1
11 8 16 29 16 22 0 28 -4 24 -16 -10 -33 14 -47 73 -43 25 2 28 22 10 52 -10
15 -10 27 -1 51 7 17 9 37 6 45 -7 19 17 18 45 -2 25 -17 29 -34 8 -34 -16 0
-26 -32 -19 -59 6 -25 36 -32 73 -18 45 17 56 -1 25 -43 -14 -19 -25 -37 -25
-41 0 -4 17 -10 38 -15 20 -4 39 -8 42 -9 3 -1 20 -5 38 -9 18 -4 30 -11 27
-16 -8 -13 -108 -30 -233 -39 -10 -1 -8 -10 7 -35 12 -18 21 -41 21 -50 0 -9
3 -16 8 -16 20 0 202 53 257 76 l64 25 63 -32 c35 -17 76 -41 92 -52 l28 -20
34 39 c18 21 32 43 31 48 -2 5 -43 24 -93 41 -49 18 -89 37 -89 41 0 5 13 31
29 57 18 31 34 46 42 43 8 -3 25 0 39 6 19 8 28 8 40 -2 8 -7 18 -10 21 -7 7
7 10 75 3 81 -2 2 -30 0 -62 -5 -32 -5 -95 -7 -140 -4 -45 3 -92 6 -105 6 -22
1 -23 2 -6 21 16 16 16 21 4 28 -8 6 -19 10 -25 10 -5 0 5 13 23 28 l34 28
-70 43 -69 44 9 39 c5 22 9 54 9 71 0 18 1 51 3 74 3 46 -5 53 -54 50 -25 -2
-25 -3 -27 -102 -1 -106 -4 -138 -11 -131 -2 2 -4 62 -5 133 l-2 128 60 0 60
0 -1 -95 c0 -52 -4 -103 -9 -113 -18 -43 17 -83 63 -70 16 4 18 20 19 173 l2
168 -92 5 c-51 3 -110 6 -132 6 l-40 1 3 -60z m-132 -130 c4 -106 5 -183 1
-259 l-2 -59 -31 1 -32 1 2 203 1 204 29 -3 29 -3 3 -85z m315 -279 c-4 -3
-16 -20 -25 -38 -15 -31 -18 -31 -68 -27 -29 3 -54 7 -56 9 -3 3 11 22 31 44
19 22 41 49 47 61 12 22 12 22 46 -11 19 -18 30 -35 25 -38z m143 -140 l29 -6
-29 -35 c-15 -19 -28 -36 -29 -37 -2 -4 -114 33 -121 40 -11 11 18 38 35 32 9
-2 23 0 31 5 16 11 40 11 84 1z"/>
<path d="M645 964 c-18 -18 -20 -50 -4 -60 11 -7 6 -235 -6 -266 -7 -17 24
-29 54 -21 22 6 31 68 28 198 l-2 80 65 0 65 0 -3 -56 c-1 -32 2 -60 8 -64 15
-9 12 -62 -5 -95 -17 -33 -12 -56 16 -63 40 -11 66 7 59 38 -1 6 -2 36 -1 68
1 33 -3 57 -9 57 -12 0 -14 47 -1 52 5 2 11 32 13 68 l3 65 -78 -3 c-43 -2
-84 1 -90 6 -19 16 -95 13 -112 -4z"/>
<path d="M736 851 c-3 -14 -5 -70 -4 -125 0 -113 -8 -131 -85 -181 -25 -16
-46 -32 -46 -35 0 -3 16 -15 36 -28 l36 -23 53 52 52 52 51 -48 51 -48 28 24
c15 13 31 27 36 30 4 4 -26 30 -68 59 l-77 51 6 92 c3 51 8 104 10 120 3 15 1
27 -3 28 -59 9 -71 6 -76 -20z"/>
</g>
</svg>
