<?xml version="1.0" standalone="no"?>
<!DOCTYPE svg PUBLIC "-//W3C//DTD SVG 20010904//EN"
 "http://www.w3.org/TR/2001/REC-SVG-20010904/DTD/svg10.dtd">
<svg version="1.0" xmlns="http://www.w3.org/2000/svg"
 width="101.000000pt" height="101.000000pt" viewBox="0 0 101.000000 101.000000"
 preserveAspectRatio="xMidYMid meet">
<metadata>
Created by potrace 1.16, written by Peter Selinger 2001-2019
</metadata>
<g transform="translate(0.000000,101.000000) scale(0.100000,-0.100000)"
fill="#000000" stroke="none">
<path d="M379 984 c-13 -4 -16 -19 -17 -69 0 -36 4 -67 9 -70 12 -8 10 -173
-2 -181 -5 -3 -10 -36 -9 -72 0 -78 -5 -155 -14 -196 -9 -39 -52 -122 -92
-177 -37 -51 -40 -59 -21 -59 7 0 29 -9 49 -19 l36 -20 40 83 c22 45 48 108
57 139 17 59 32 74 34 35 6 -85 4 -218 -3 -244 -7 -26 -5 -32 12 -36 57 -15
91 18 71 70 -5 14 -10 48 -10 76 0 97 2 104 25 105 11 0 36 2 55 3 34 3 35 2
38 -40 3 -43 3 -44 -30 -41 -17 1 -39 1 -48 0 -20 -1 -30 -32 -17 -54 9 -16
22 -17 128 -2 85 13 100 12 100 -1 0 -16 46 -19 55 -4 7 11 -21 108 -35 123
-4 5 -18 6 -30 2 -16 -5 -20 -12 -16 -29 4 -16 1 -22 -13 -23 -15 -1 -19 5
-18 33 1 25 5 33 15 29 7 -3 22 0 33 6 29 15 102 2 95 -17 -3 -8 0 -25 6 -39
8 -19 8 -35 -1 -65 -12 -40 -17 -43 -73 -43 -33 1 -33 0 -13 -31 9 -13 15 -28
14 -32 -6 -34 31 -40 96 -15 41 16 56 38 45 66 -9 23 -7 89 5 191 l5 50 -92 2
c-51 0 -102 1 -113 2 -29 3 -30 37 -2 39 12 1 38 2 57 4 19 1 48 -2 64 -6 l29
-8 -7 56 c-3 31 -2 64 3 74 12 22 4 58 -16 65 -8 3 -30 -1 -48 -10 -25 -12
-38 -13 -53 -5 -12 6 -27 9 -34 6 -8 -3 -13 3 -14 19 -2 22 1 23 36 19 21 -3
54 0 74 7 27 9 40 9 50 1 12 -11 46 -6 46 6 0 3 -9 20 -20 38 -21 35 -45 49
-62 39 -17 -11 -85 -16 -240 -17 -113 -2 -148 1 -148 11 0 7 13 12 30 12 17 0
30 5 30 10 0 6 32 10 75 10 44 0 75 -4 75 -10 0 -7 46 -9 125 -8 89 2 125 6
125 15 0 6 -4 15 -10 18 -13 8 -13 82 -1 90 6 3 9 24 9 46 l0 41 -52 -9 c-28
-4 -73 -7 -101 -6 -27 1 -111 5 -185 7 -74 3 -144 7 -155 10 -11 2 -27 2 -36
0z m436 -110 c0 -19 -7 -22 -65 -28 -97 -9 -168 -7 -175 4 -4 6 -32 9 -63 8
-51 -3 -57 -1 -57 17 0 19 6 20 180 20 177 0 180 0 180 -21z m-322 -196 c19
-20 62 -23 103 -8 31 12 31 12 36 -20 3 -21 -1 -25 -22 -22 -48 5 -75 10 -90
16 -24 9 -42 -9 -41 -40 1 -16 2 -57 1 -90 0 -55 2 -62 21 -67 12 -3 31 -1 41
4 25 13 98 1 98 -15 0 -17 -115 -30 -140 -16 -12 7 -28 7 -45 0 -24 -9 -26 -8
-20 7 8 22 20 165 20 246 0 44 2 54 10 41 6 -9 18 -26 28 -36z m144 -133 c1
-34 1 -34 -42 -33 -41 2 -43 4 -42 33 1 29 3 31 42 33 40 1 41 1 42 -33z m160
0 c1 -34 1 -34 -42 -33 -41 2 -43 4 -42 33 1 29 3 31 42 33 40 1 41 1 42 -33z"/>
<path d="M66 931 c-7 -13 7 -141 15 -141 5 0 9 -11 9 -25 0 -14 -4 -25 -10
-25 -6 0 -10 -30 -10 -70 0 -40 4 -70 10 -70 6 0 10 -11 10 -25 0 -14 -5 -25
-11 -25 -9 0 -10 -23 -5 -79 3 -44 2 -90 -3 -104 -20 -51 6 -80 62 -70 19 4
24 11 25 36 3 74 2 73 39 74 27 1 33 -2 29 -15 -11 -34 13 -48 72 -44 20 2 22
7 21 60 0 31 0 68 1 82 3 71 -3 150 -11 155 -12 8 -12 52 1 60 6 4 10 42 10
88 -1 45 0 89 1 97 7 48 6 48 -126 48 -69 0 -127 -3 -129 -7z m161 -181 c1
-58 5 -127 8 -153 4 -26 4 -63 1 -82 -6 -31 -10 -34 -39 -32 -18 1 -35 7 -39
12 -11 15 -10 63 2 70 12 7 11 113 -1 121 -13 7 -11 48 2 61 6 6 9 33 8 60 -4
49 -4 49 26 49 l30 -1 2 -105z"/>
</g>
</svg>
