<?xml version="1.0" standalone="no"?>
<!DOCTYPE svg PUBLIC "-//W3C//DTD SVG 20010904//EN"
 "http://www.w3.org/TR/2001/REC-SVG-20010904/DTD/svg10.dtd">
<svg version="1.0" xmlns="http://www.w3.org/2000/svg"
 width="101.000000pt" height="102.000000pt" viewBox="0 0 101.000000 102.000000"
 preserveAspectRatio="xMidYMid meet">
<metadata>
Created by potrace 1.16, written by Peter Selinger 2001-2019
</metadata>
<g transform="translate(0.000000,102.000000) scale(0.100000,-0.100000)"
fill="#000000" stroke="none">
<path d="M508 1013 c-24 -6 -30 -46 -22 -156 5 -79 4 -101 -7 -108 -37 -23
-41 -13 -33 96 4 60 3 105 -2 106 -83 10 -91 7 -84 -26 1 -5 3 -51 3 -101 2
-76 0 -90 -13 -87 -31 7 -43 -12 -35 -56 5 -31 11 -41 21 -37 38 15 137 36
142 32 7 -8 -75 -86 -131 -124 l-44 -31 -8 152 c-5 107 -4 152 4 155 6 2 11
23 11 47 0 47 -17 63 -50 45 -15 -8 -127 -8 -165 0 -5 1 -15 2 -21 1 -14 -1
-18 -127 -4 -136 12 -8 13 -52 1 -59 -13 -8 -12 -114 0 -122 11 -6 4 -285 -7
-325 -5 -20 19 -28 63 -22 28 5 30 7 20 23 -8 14 -8 25 1 44 6 14 9 32 6 39
-3 9 6 13 29 14 31 1 34 -2 34 -28 0 -16 3 -32 7 -36 7 -7 74 -8 82 -1 2 3 -1
31 -7 63 -7 41 -8 65 0 82 6 12 8 31 5 40 -5 15 -3 15 11 -2 9 -11 20 -26 24
-34 7 -11 12 -10 34 3 28 19 25 24 28 -54 4 -114 -30 -208 -88 -245 -34 -21
-42 -35 -19 -35 7 0 26 -10 41 -22 l28 -22 33 38 c18 21 41 58 51 82 11 27 23
42 31 39 7 -2 23 0 36 7 32 14 80 2 72 -18 -3 -8 0 -26 6 -40 9 -19 9 -30 0
-44 -13 -22 6 -30 55 -23 28 5 30 7 20 23 -8 14 -8 25 1 44 6 14 9 33 5 43 -5
12 -2 15 10 10 10 -4 28 -2 41 5 14 6 35 8 49 4 20 -5 24 -11 23 -43 -1 -31
-5 -38 -21 -39 -59 -3 -57 0 -34 -45 20 -39 22 -41 57 -35 68 11 77 30 78 174
1 70 4 141 7 157 3 17 8 47 10 68 4 39 4 39 -27 32 -29 -6 -65 -7 -125 -4 -21
1 -19 5 28 53 l51 52 -102 1 c-57 1 -114 2 -128 3 -24 2 -24 2 -5 16 17 13 18
16 5 24 -8 5 -18 10 -22 10 -5 0 -8 4 -8 8 0 4 16 8 36 9 44 1 57 13 60 53 2
28 0 29 -35 28 -20 0 -40 -4 -46 -9 -6 -4 -10 4 -11 22 -1 25 2 29 27 29 45 0
73 42 51 77 -4 7 -23 10 -44 9 -39 -4 -39 -5 -23 68 8 40 -14 53 -67 39z
m-296 -247 c-3 -43 1 -82 7 -95 8 -15 10 -53 5 -120 l-7 -99 -31 1 -31 1 0
185 0 186 30 6 c17 4 30 7 30 8 0 0 -1 -32 -3 -73z m433 -196 c18 0 18 -2 -6
-25 -25 -25 -56 -30 -162 -24 l-29 1 23 24 c12 13 30 22 38 19 9 -2 23 0 31 6
8 5 31 7 50 4 19 -2 44 -5 55 -5z m-61 -125 c0 -27 -3 -30 -30 -27 -16 1 -38
3 -49 3 -14 1 -20 9 -21 26 -2 18 2 22 15 19 9 -3 23 -1 31 4 8 6 24 9 35 8
15 -2 20 -10 19 -33z m202 27 c5 -4 10 -17 10 -30 0 -28 -36 -40 -72 -24 -13
7 -29 9 -36 7 -8 -3 -14 4 -14 20 -2 20 2 24 15 21 9 -3 23 -1 31 4 18 11 51
13 66 2z m-202 -137 c0 -27 -3 -30 -30 -27 -16 1 -38 3 -49 3 -14 1 -20 9 -21
26 -2 18 2 22 15 19 9 -3 23 -1 31 4 8 6 24 9 35 8 15 -2 20 -10 19 -33z m202
27 c5 -4 10 -17 10 -30 0 -28 -36 -40 -72 -24 -13 7 -29 9 -36 7 -8 -3 -14 4
-14 20 -2 20 2 24 15 21 9 -3 23 -1 31 4 18 11 51 13 66 2z"/>
<path d="M662 963 c0 -32 4 -64 10 -70 6 -8 7 -42 3 -92 -4 -44 -4 -89 0 -101
9 -29 69 -54 95 -40 12 6 40 8 69 4 57 -7 85 4 106 46 22 43 19 55 -25 84 -36
23 -40 24 -40 8 0 -37 -24 -54 -78 -56 -29 -1 -52 1 -53 4 0 3 -2 15 -4 26 -4
18 6 26 58 49 34 16 80 34 101 40 22 7 41 16 43 21 2 6 -12 25 -31 43 l-34 33
-34 -24 c-18 -14 -49 -35 -70 -47 -33 -19 -36 -20 -33 -4 2 10 6 41 9 70 l5
52 -30 -6 c-18 -3 -29 -1 -29 6 0 6 -8 11 -19 11 -15 0 -18 -8 -19 -57z"/>
</g>
</svg>
