<?xml version="1.0" standalone="no"?>
<!DOCTYPE svg PUBLIC "-//W3C//DTD SVG 20010904//EN"
 "http://www.w3.org/TR/2001/REC-SVG-20010904/DTD/svg10.dtd">
<svg version="1.0" xmlns="http://www.w3.org/2000/svg"
 width="101.000000pt" height="101.000000pt" viewBox="0 0 101.000000 101.000000"
 preserveAspectRatio="xMidYMid meet">
<metadata>
Created by potrace 1.16, written by Peter Selinger 2001-2019
</metadata>
<g transform="translate(0.000000,101.000000) scale(0.100000,-0.100000)"
fill="#000000" stroke="none">
<path d="M605 976 l2 -34 -71 -7 c-47 -4 -72 -3 -74 4 -6 19 -103 13 -118 -6
-13 -17 -14 -17 -7 1 5 16 3 18 -12 12 -35 -13 -134 -19 -147 -8 -7 5 -38 10
-69 10 l-56 -1 3 -171 c5 -243 5 -330 0 -418 -5 -85 -2 -88 67 -80 37 4 47 18
25 40 -9 9 -9 18 0 37 6 13 9 31 7 38 -4 9 7 13 38 15 42 1 44 0 44 -28 0 -35
3 -39 29 -41 71 -7 70 -8 72 101 0 54 -3 102 -7 105 -13 7 -13 153 0 161 6 3
10 29 9 58 -3 97 0 132 9 117 10 -16 32 -17 166 -8 l90 5 0 -27 0 -28 -75 4
c-41 1 -84 6 -96 9 -27 7 -48 -19 -40 -50 8 -32 38 -37 171 -31 55 3 120 5
145 4 208 -1 217 1 203 46 -8 28 -24 36 -53 29 -14 -4 -56 -8 -95 -8 -65 -1
-70 0 -70 20 0 20 7 22 76 28 50 5 84 3 102 -5 31 -14 72 -5 81 17 3 8 3 26 0
39 -6 24 -7 24 -135 22 -139 -2 -134 -4 -114 46 6 15 1 17 -47 17 l-54 0 1
-34z m-355 -192 c0 -49 -4 -74 -12 -74 -8 0 -9 -30 -4 -110 l6 -110 -44 2 -44
2 -7 150 c-5 107 -4 151 4 154 6 2 11 16 11 30 0 25 3 27 45 28 l45 1 0 -73z"/>
<path d="M398 723 c-1 -5 -2 -50 -2 -100 -1 -94 2 -102 39 -93 6 1 28 4 50 6
34 3 37 2 20 -8 -11 -6 -21 -12 -23 -14 -2 -1 4 -14 13 -28 16 -25 16 -25 -19
-31 -19 -4 -40 -4 -47 1 -26 16 -67 11 -72 -8 -12 -43 9 -66 53 -59 20 4 97
10 190 16 41 3 116 0 165 -6 50 -5 99 -10 110 -9 11 0 34 2 52 2 34 2 46 21
36 58 -5 18 -10 19 -42 13 -20 -4 -52 -7 -71 -6 -19 2 -46 3 -60 4 l-25 1 25
20 25 20 -23 18 c-23 19 -22 19 36 15 l59 -4 7 86 c4 47 4 88 1 92 -4 3 -34 4
-67 2 -43 -2 -63 1 -70 11 -7 10 -11 10 -15 1 -6 -15 -73 -18 -73 -3 0 6 -18
10 -40 10 -22 0 -40 -4 -40 -10 0 -5 -16 -10 -35 -10 -19 0 -35 5 -35 10 0 11
-119 14 -122 3z m283 -63 c13 -8 25 -7 40 1 12 6 36 8 53 5 28 -5 33 -11 33
-35 l0 -29 -91 -6 c-50 -3 -113 -3 -141 -1 -27 3 -59 5 -70 6 -15 1 -20 9 -20
29 0 26 2 27 41 22 23 -2 50 1 60 7 24 13 70 14 95 1z m37 -125 c2 -1 -5 -19
-14 -38 -16 -34 -20 -36 -61 -35 -24 2 -43 7 -43 12 0 6 -12 23 -27 39 -24 25
-25 28 -8 23 11 -3 27 -1 35 4 12 9 108 4 118 -5z"/>
<path d="M390 362 c-9 -4 -14 -17 -13 -32 10 -89 12 -179 4 -202 -11 -31 2
-37 61 -30 34 4 37 7 32 27 -5 19 -1 23 18 24 13 1 46 3 73 6 28 2 92 2 143
-1 90 -6 92 -7 88 -29 -5 -27 11 -34 67 -27 34 4 37 7 30 26 -8 22 -8 137 0
197 l5 37 -71 0 c-162 1 -206 1 -297 -1 -52 0 -102 2 -110 5 -8 4 -22 4 -30 0z
m316 -69 l90 -5 1 -33 1 -33 -92 -6 c-50 -3 -113 -3 -141 -1 -27 3 -60 5 -71
6 -18 1 -22 7 -21 35 1 26 5 33 16 29 9 -2 23 0 31 5 16 10 43 11 186 3z"/>
</g>
</svg>
