<?xml version="1.0" standalone="no"?>
<!DOCTYPE svg PUBLIC "-//W3C//DTD SVG 20010904//EN"
 "http://www.w3.org/TR/2001/REC-SVG-20010904/DTD/svg10.dtd">
<svg version="1.0" xmlns="http://www.w3.org/2000/svg"
 width="101.000000pt" height="102.000000pt" viewBox="0 0 101.000000 102.000000"
 preserveAspectRatio="xMidYMid meet">
<metadata>
Created by potrace 1.16, written by Peter Selinger 2001-2019
</metadata>
<g transform="translate(0.000000,102.000000) scale(0.100000,-0.100000)"
fill="#000000" stroke="none">
<path d="M575 987 c-4 -18 -6 -37 -5 -42 6 -27 -6 -30 -108 -30 l-107 0 -3
-31 c-5 -55 19 -68 110 -60 43 4 78 4 78 2 0 -9 -42 -76 -48 -76 -3 0 -18 12
-33 26 l-28 26 -36 -22 -36 -22 41 -35 c35 -30 39 -37 28 -51 -16 -19 -88 -72
-98 -72 -13 0 -23 169 -11 184 6 7 11 43 10 80 -1 56 -4 66 -18 62 -47 -13
-182 -17 -196 -6 -8 7 -25 10 -39 6 -23 -6 -24 -8 -25 -125 0 -68 3 -123 9
-126 12 -7 11 -153 -1 -160 -5 -3 -7 -57 -6 -120 2 -125 3 -127 65 -117 l32 4
-4 62 -4 61 48 0 48 0 -4 -41 c-4 -47 7 -55 62 -47 l31 5 2 121 c1 67 4 123 6
126 3 2 14 -4 25 -14 16 -15 25 -17 38 -9 16 10 17 2 16 -97 l-1 -108 37 3
c21 2 43 6 49 10 6 4 30 5 52 1 29 -5 39 -11 35 -21 -3 -8 -1 -25 5 -38 8 -16
8 -37 2 -63 l-9 -38 -52 2 -52 2 15 -29 c8 -16 15 -33 14 -37 -9 -55 67 -62
142 -12 20 14 24 23 21 63 -3 50 -3 107 -1 144 1 16 6 22 15 18 8 -3 25 0 39
6 18 8 36 8 70 -2 51 -14 57 -12 56 22 -1 13 -2 64 -4 114 l-2 92 27 -19 c36
-26 40 -25 66 21 12 22 28 40 35 40 22 1 -27 30 -50 30 -13 0 -43 10 -65 21
l-42 22 26 21 c15 11 37 28 49 37 l22 15 -37 22 c-37 22 -66 28 -66 15 0 -5
-11 -21 -24 -37 l-23 -30 -27 42 c-14 23 -26 43 -26 45 0 1 42 1 93 0 143 -3
167 8 152 69 -6 23 -7 23 -149 23 -136 0 -144 1 -140 19 2 10 11 27 20 37 23
25 13 32 -41 31 -25 0 -45 4 -45 9 0 24 -20 5 -25 -24z m-339 -315 l2 -177
-47 0 -46 0 2 57 c2 31 -2 60 -7 63 -13 8 -13 52 1 60 6 4 9 38 7 86 l-3 78
45 4 c25 2 45 4 45 5 0 1 1 -78 1 -176z m414 98 c11 -22 34 -55 50 -74 25 -28
28 -35 14 -40 -24 -9 -62 -7 -69 4 -4 6 -32 9 -65 8 l-58 -3 28 31 c15 18 38
50 51 73 12 23 24 41 26 41 1 0 12 -18 23 -40z m26 -166 c81 -7 81 -7 80 -35
l-1 -28 -125 2 -125 2 0 33 c0 31 1 32 45 32 25 0 81 -3 126 -6z m39 -132 c31
-5 40 -11 40 -27 0 -11 -4 -23 -10 -27 -13 -10 -118 -8 -130 2 -5 5 -33 7 -61
7 -44 -2 -50 0 -46 16 3 13 15 17 58 17 30 0 54 5 54 10 0 11 35 12 95 2z"/>
<path d="M425 293 c-16 -20 -53 -51 -82 -71 -29 -19 -52 -36 -50 -38 1 -2 19
-14 39 -28 l37 -25 64 57 c35 31 77 66 93 78 l29 21 -35 22 c-47 28 -60 26
-95 -16z"/>
<path d="M733 299 c-32 -21 -43 -39 -23 -39 6 0 45 -33 88 -74 l77 -74 38 35
c32 29 36 37 24 46 -45 37 -164 127 -168 127 -2 0 -19 -10 -36 -21z"/>
</g>
</svg>
