<?xml version="1.0" standalone="no"?>
<!DOCTYPE svg PUBLIC "-//W3C//DTD SVG 20010904//EN"
 "http://www.w3.org/TR/2001/REC-SVG-20010904/DTD/svg10.dtd">
<svg version="1.0" xmlns="http://www.w3.org/2000/svg"
 width="101.000000pt" height="101.000000pt" viewBox="0 0 101.000000 101.000000"
 preserveAspectRatio="xMidYMid meet">
<metadata>
Created by potrace 1.16, written by Peter Selinger 2001-2019
</metadata>
<g transform="translate(0.000000,101.000000) scale(0.100000,-0.100000)"
fill="#000000" stroke="none">
<path d="M512 973 c0 -21 5 -44 10 -51 11 -13 5 -112 -7 -132 -9 -15 -175 -11
-176 4 0 6 -2 33 -3 59 -2 53 -18 72 -49 55 -10 -5 -40 -7 -65 -4 -89 12 -143
10 -153 -5 -12 -19 -11 -106 1 -114 11 -7 12 -153 0 -160 -12 -7 -12 -153 0
-160 12 -7 13 -48 3 -59 -5 -4 -8 -36 -8 -71 0 -70 5 -76 61 -68 27 4 31 9 32
41 3 81 1 78 48 80 24 1 44 0 44 -3 0 -2 -4 -14 -9 -28 -15 -39 4 -53 65 -49
19 2 22 8 23 60 1 67 1 194 1 237 -1 59 12 128 21 114 6 -10 30 -14 81 -14 40
1 65 -1 56 -3 -19 -4 -24 -27 -8 -37 5 -3 14 -14 19 -23 9 -16 4 -17 -54 -14
-57 4 -64 2 -70 -17 -14 -44 6 -67 55 -63 54 4 108 12 127 17 28 9 36 -8 25
-50 -9 -32 -14 -33 -92 -21 -83 13 -96 11 -103 -14 -12 -48 24 -81 64 -59 23
12 129 0 129 -15 -1 -39 -37 -46 -188 -36 -13 1 -26 -1 -29 -4 -8 -8 -8 -64
-1 -72 9 -9 46 -6 134 12 48 9 51 -12 8 -51 -44 -41 -129 -75 -197 -80 -27 -2
-51 -6 -54 -9 -3 -3 12 -25 33 -49 l38 -44 58 19 c82 28 178 89 215 137 28 35
33 38 38 22 10 -33 84 -92 159 -126 111 -52 107 -52 138 7 15 28 26 53 24 55
-1 2 -21 5 -42 8 -21 2 -54 6 -73 9 -35 6 -110 45 -130 69 -14 18 -12 18 131
20 84 1 97 3 101 19 14 53 -21 75 -84 53 -24 -9 -62 -12 -101 -9 -35 2 -73 5
-85 5 -18 1 -21 5 -14 18 5 9 6 21 4 27 -5 14 13 16 118 14 69 -1 77 1 82 19
14 56 -24 81 -81 54 -28 -13 -40 -14 -64 -5 -16 6 -37 8 -45 5 -13 -5 -15 -2
-8 13 4 10 7 27 7 37 -1 12 4 17 13 13 7 -2 26 0 42 6 21 8 43 7 87 -5 67 -17
82 -14 89 14 11 42 -18 80 -46 62 -7 -4 -36 -8 -65 -8 l-53 0 32 29 c31 28 32
29 13 43 -18 14 -18 15 4 8 12 -3 51 -3 86 0 l63 7 0 37 c-1 40 -15 47 -90 50
l-39 1 51 65 c28 35 51 67 51 70 0 5 -75 45 -84 45 -3 0 -14 -19 -24 -42 -11
-24 -30 -53 -43 -65 l-24 -22 2 37 c1 20 5 55 8 77 l6 40 -49 0 -49 0 -1 -55
c0 -30 4 -60 10 -67 5 -6 8 -29 6 -50 -3 -36 -5 -38 -33 -35 -16 2 -32 5 -33
7 -2 2 0 46 5 98 l9 95 -29 6 c-65 13 -75 9 -75 -31z m-265 -251 c1 -59 5
-132 8 -162 9 -73 -7 -115 -38 -105 -12 4 -32 7 -45 7 -22 0 -23 1 -17 93 4
60 2 96 -5 100 -13 8 -13 48 1 62 6 6 9 33 8 60 l-4 48 45 2 45 2 2 -107z
m541 83 c-2 -1 -16 -5 -32 -9 -25 -6 -28 -5 -17 7 6 8 21 13 32 10 11 -3 18
-7 17 -8z m-100 -127 c-12 -35 -32 -50 -68 -53 -25 -2 -31 3 -44 36 -9 22 -16
40 -16 42 0 1 31 2 69 2 l68 0 -9 -27z"/>
<path d="M408 948 c-28 -10 -35 -26 -19 -43 4 -6 16 -31 26 -56 l17 -47 35 11
c19 6 37 16 40 23 5 13 -54 125 -65 123 -4 0 -19 -5 -34 -11z"/>
</g>
</svg>
