<?xml version="1.0" standalone="no"?>
<!DOCTYPE svg PUBLIC "-//W3C//DTD SVG 20010904//EN"
 "http://www.w3.org/TR/2001/REC-SVG-20010904/DTD/svg10.dtd">
<svg version="1.0" xmlns="http://www.w3.org/2000/svg"
 width="101.000000pt" height="102.000000pt" viewBox="0 0 101.000000 102.000000"
 preserveAspectRatio="xMidYMid meet">
<metadata>
Created by potrace 1.16, written by Peter Selinger 2001-2019
</metadata>
<g transform="translate(0.000000,102.000000) scale(0.100000,-0.100000)"
fill="#000000" stroke="none">
<path d="M588 1011 c8 -5 12 -22 10 -42 l-3 -34 -70 2 c-38 1 -85 5 -102 8
-41 7 -73 -9 -73 -38 0 -45 10 -48 126 -42 102 5 110 4 110 -14 0 -17 -10 -18
-125 -17 l-125 1 -3 -72 c-3 -70 -2 -73 22 -79 13 -3 29 -2 36 2 9 5 10 2 6
-9 -3 -8 -1 -28 5 -44 8 -21 7 -43 -5 -87 -21 -83 -15 -97 37 -89 54 8 277 8
358 -1 l64 -6 1 97 c2 145 1 140 35 140 16 0 34 6 39 14 11 15 7 115 -5 126
-3 4 -62 7 -130 7 -104 1 -122 3 -119 16 3 12 24 15 118 14 123 -2 131 2 119
52 -6 24 -30 30 -104 27 -14 -1 -51 -3 -83 -5 -54 -3 -58 -2 -52 17 19 71 23
65 -41 65 -36 0 -54 -4 -46 -9z m12 -251 c0 -5 18 -10 40 -10 22 0 40 5 40 10
0 15 67 12 73 -2 4 -10 8 -10 15 1 7 10 20 12 45 7 28 -5 34 -10 30 -26 -6
-24 -46 -32 -128 -25 -33 3 -68 4 -77 4 -29 0 -109 1 -164 4 -71 3 -69 27 3
27 29 0 53 5 53 10 0 6 16 10 35 10 19 0 35 -4 35 -10z m-15 -120 c0 -22 -4
-25 -35 -22 -19 1 -44 3 -55 3 -13 1 -21 9 -22 21 -1 14 3 17 15 14 9 -3 24
-1 32 4 8 6 26 9 40 8 19 -2 25 -9 25 -28z m190 0 c0 -22 -4 -25 -35 -22 -19
1 -44 3 -55 3 -13 1 -21 9 -22 21 -1 14 3 17 15 14 9 -3 24 -1 32 4 8 6 26 9
40 8 19 -2 25 -9 25 -28z m-191 -105 c0 -28 -3 -30 -35 -27 -19 1 -43 3 -54 3
-14 1 -20 9 -21 26 -2 18 2 22 15 19 9 -3 23 -1 31 4 8 6 26 9 40 8 21 -3 25
-8 24 -33z m190 0 c0 -28 -3 -30 -35 -27 -19 1 -43 3 -54 3 -14 1 -20 9 -21
26 -2 18 2 22 15 19 9 -3 23 -1 31 4 8 6 26 9 40 8 21 -3 25 -8 24 -33z"/>
<path d="M78 919 c-13 -7 -18 -23 -18 -54 0 -25 5 -45 10 -45 6 0 10 -11 10
-25 0 -14 -4 -25 -10 -25 -6 0 -10 -30 -10 -70 0 -40 4 -70 10 -70 6 0 10 -11
10 -25 0 -14 -4 -25 -10 -25 -5 0 -10 -22 -10 -50 0 -31 4 -50 11 -50 12 0 7
-145 -7 -216 -7 -35 9 -45 63 -37 l31 5 -3 62 -4 62 40 1 c39 2 39 2 33 -31
-6 -38 9 -47 63 -39 l31 5 0 267 c0 146 3 282 7 302 8 42 -16 76 -44 63 -19
-9 -149 -9 -171 0 -8 3 -23 1 -32 -5z m148 -159 c4 -106 5 -183 1 -259 l-2
-60 -36 2 -37 1 2 203 1 204 34 -3 34 -3 3 -85z"/>
<path d="M359 433 c-19 -5 -29 -34 -22 -61 3 -14 12 -18 36 -15 148 18 204 13
207 -20 3 -43 1 -129 -3 -134 -7 -7 -61 23 -77 42 -11 13 -10 19 9 38 11 13
21 26 21 29 0 6 -75 38 -89 38 -5 0 -14 -15 -21 -34 -14 -43 -70 -108 -127
-147 l-45 -31 29 -15 c15 -8 35 -21 44 -29 15 -13 22 -9 67 42 l51 57 30 -26
c54 -45 199 -81 306 -76 11 0 48 0 82 0 l62 -1 20 46 c12 26 21 48 21 50 0 9
-47 3 -58 -8 -9 -9 -18 -9 -37 0 -17 8 -33 8 -50 2 -14 -5 -44 -7 -67 -4 -24
3 -52 6 -64 6 -16 0 -21 7 -21 28 0 32 -4 31 139 33 102 1 112 5 101 47 -4 15
-11 20 -24 17 -16 -4 -14 3 12 55 17 33 29 62 26 64 -5 5 -57 5 -167 -2 -179
-10 -314 -7 -360 9 -8 2 -22 3 -31 0z m418 -69 c21 -6 21 -8 7 -29 -14 -21
-14 -24 3 -28 12 -2 5 -6 -18 -11 -23 -5 -45 -4 -57 3 -11 6 -27 9 -35 6 -10
-4 -14 3 -14 25 0 23 4 29 16 25 9 -2 23 0 31 5 17 11 36 12 67 4z"/>
</g>
</svg>
