<?xml version="1.0" standalone="no"?>
<!DOCTYPE svg PUBLIC "-//W3C//DTD SVG 20010904//EN"
 "http://www.w3.org/TR/2001/REC-SVG-20010904/DTD/svg10.dtd">
<svg version="1.0" xmlns="http://www.w3.org/2000/svg"
 width="101.000000pt" height="101.000000pt" viewBox="0 0 101.000000 101.000000"
 preserveAspectRatio="xMidYMid meet">
<metadata>
Created by potrace 1.16, written by Peter Selinger 2001-2019
</metadata>
<g transform="translate(0.000000,101.000000) scale(0.100000,-0.100000)"
fill="#000000" stroke="none">
<path d="M120 972 c-19 -9 -29 -182 -11 -182 6 0 11 -16 11 -35 0 -19 -4 -35
-10 -35 -6 0 -10 -30 -10 -70 0 -40 4 -70 10 -70 6 0 10 -11 10 -25 0 -14 -4
-25 -10 -25 -6 0 -10 -40 -10 -100 0 -68 4 -100 11 -100 13 0 5 -134 -11 -174
-13 -35 3 -51 51 -49 49 2 52 5 52 42 0 22 5 29 21 30 52 4 226 2 275 -2 30
-3 63 -1 73 4 11 6 60 7 123 3 90 -6 105 -9 100 -23 -9 -29 11 -45 56 -44 23
1 43 4 45 6 3 2 4 24 3 48 0 24 -1 101 0 171 0 70 -3 129 -8 132 -12 8 -13
154 -1 161 6 3 10 59 11 123 1 64 2 136 2 159 1 23 -1 44 -4 48 -6 5 -158 8
-354 5 -55 0 -128 -1 -162 -1 -35 0 -91 0 -125 -1 -35 0 -76 2 -93 5 -16 4
-37 3 -45 -1z m289 -91 c21 -6 25 -13 26 -52 l0 -46 -100 1 -100 1 -3 -27 c-4
-38 15 -71 36 -63 9 4 54 9 100 11 l82 5 0 -75 c0 -41 -5 -78 -10 -81 -6 -4
-27 -8 -48 -9 l-37 -3 2 59 c2 53 0 58 -22 64 -35 9 -62 -4 -69 -31 -8 -32 4
-186 15 -180 6 5 53 11 130 19 21 2 27 -2 28 -18 1 -12 3 -41 5 -66 2 -25 4
-50 5 -56 2 -16 80 -46 94 -37 7 4 49 8 94 8 75 0 85 2 108 25 13 14 27 39 31
57 6 29 3 33 -35 53 l-41 21 -6 -30 c-4 -17 -12 -35 -20 -41 -11 -10 -64 -14
-126 -10 -19 1 -27 26 -26 78 1 32 9 37 50 33 10 -1 27 3 39 10 20 10 21 9 17
-9 -6 -23 15 -33 55 -25 23 5 24 8 26 84 1 44 4 86 7 93 7 19 -30 38 -64 34
-25 -3 -27 -6 -27 -53 0 -38 -4 -51 -15 -51 -8 -1 -19 -2 -25 -4 -5 -1 -20 -2
-32 -1 -21 1 -23 6 -23 66 0 74 -16 67 138 68 87 1 93 2 98 23 3 12 3 31 0 41
-6 17 -17 19 -124 19 -111 -1 -117 0 -116 19 4 78 57 96 229 79 l50 -6 2 -81
c1 -45 2 -99 2 -119 0 -21 0 -93 1 -160 0 -68 1 -151 2 -185 1 -34 -1 -65 -5
-69 -4 -4 -60 -7 -125 -6 -123 1 -183 1 -347 1 -55 0 -110 1 -122 2 l-23 1 6
158 c4 110 3 160 -5 164 -14 9 -14 53 -1 61 7 4 10 48 8 119 l-3 111 47 -2
c26 -2 50 1 53 7 7 11 76 12 114 1z"/>
</g>
</svg>
