<?xml version="1.0" standalone="no"?>
<!DOCTYPE svg PUBLIC "-//W3C//DTD SVG 20010904//EN"
 "http://www.w3.org/TR/2001/REC-SVG-20010904/DTD/svg10.dtd">
<svg version="1.0" xmlns="http://www.w3.org/2000/svg"
 width="101.000000pt" height="101.000000pt" viewBox="0 0 101.000000 101.000000"
 preserveAspectRatio="xMidYMid meet">
<metadata>
Created by potrace 1.16, written by Peter Selinger 2001-2019
</metadata>
<g transform="translate(0.000000,101.000000) scale(0.100000,-0.100000)"
fill="#000000" stroke="none">
<path d="M118 973 c-19 -5 -21 -10 -18 -93 1 -30 6 -56 11 -58 12 -5 12 -72
-1 -72 -6 0 -10 -30 -10 -70 0 -40 4 -70 10 -70 6 0 10 -11 10 -25 0 -14 -4
-25 -10 -25 -15 0 -13 -197 2 -202 9 -3 9 -26 -1 -99 -14 -108 -16 -138 -7
-147 8 -7 86 -5 94 3 3 3 5 18 5 34 0 22 5 29 21 30 52 4 226 2 275 -2 30 -3
63 -1 73 4 10 5 63 7 127 3 l110 -7 -4 -32 c-5 -37 9 -45 64 -37 l33 5 -7 87
c-5 58 -3 90 4 94 13 8 14 213 1 221 -13 8 -13 52 0 60 13 8 13 142 1 150 -13
8 -13 166 1 182 5 7 8 23 5 35 -6 23 -8 23 -184 23 -98 0 -183 -3 -188 -7 -16
-10 -173 -9 -180 2 -3 5 -31 8 -63 8 -31 -1 -79 2 -107 5 -27 3 -58 3 -67 0z
m378 -84 c4 -8 51 -9 153 -5 l146 5 2 -162 c4 -227 4 -332 1 -403 l-3 -61
-103 -7 c-60 -4 -109 -3 -120 3 -10 5 -43 7 -73 4 -49 -4 -220 -6 -276 -2 -19
1 -22 7 -20 39 1 40 2 41 50 7 34 -24 55 -16 117 39 53 48 80 102 86 172 3 32
6 65 7 75 1 13 8 17 24 15 23 -3 24 -6 26 -131 2 -83 7 -131 15 -139 22 -22
93 -38 115 -27 10 6 28 8 40 5 43 -11 88 32 99 96 4 24 -81 85 -93 66 -5 -7
-7 -21 -5 -31 5 -20 -26 -57 -48 -57 -27 0 -35 26 -33 113 l2 87 72 0 c90 0
117 21 97 74 -5 13 -21 15 -110 9 -69 -4 -108 -2 -117 5 -15 13 -115 14 -123
1 -7 -12 -51 -11 -59 1 -7 11 -94 13 -111 2 -19 -12 -26 -50 -14 -72 11 -20
17 -21 77 -14 l66 7 -8 -29 c-4 -16 -9 -42 -11 -59 -8 -59 -82 -138 -141 -149
-18 -4 -19 4 -20 137 -2 211 -2 216 0 302 l2 80 112 -3 c70 -2 114 1 118 8 8
13 52 13 61 -1z"/>
<path d="M284 808 c-3 -11 -3 -30 0 -43 l6 -24 188 4 c103 1 195 -1 204 -6 24
-13 50 16 46 54 -3 29 -4 30 -66 32 -34 1 -65 -1 -67 -5 -7 -12 -153 -11 -160
0 -4 6 -37 10 -75 9 -59 -1 -70 -4 -76 -21z"/>
</g>
</svg>
