<?xml version="1.0" standalone="no"?>
<!DOCTYPE svg PUBLIC "-//W3C//DTD SVG 20010904//EN"
 "http://www.w3.org/TR/2001/REC-SVG-20010904/DTD/svg10.dtd">
<svg version="1.0" xmlns="http://www.w3.org/2000/svg"
 width="101.000000pt" height="101.000000pt" viewBox="0 0 101.000000 101.000000"
 preserveAspectRatio="xMidYMid meet">
<metadata>
Created by potrace 1.16, written by Peter Selinger 2001-2019
</metadata>
<g transform="translate(0.000000,101.000000) scale(0.100000,-0.100000)"
fill="#000000" stroke="none">
<path d="M130 974 c-12 -3 -14 -18 -12 -64 3 -39 0 -60 -7 -60 -6 0 -11 -18
-11 -40 0 -22 5 -40 10 -40 6 0 10 -33 10 -80 0 -47 -4 -80 -10 -80 -6 0 -10
-30 -10 -70 0 -40 4 -70 10 -70 6 0 10 -11 10 -25 0 -14 -4 -25 -10 -25 -11 0
-13 -109 -4 -223 7 -73 8 -76 35 -82 47 -11 72 2 66 34 l-5 26 298 0 299 1 -5
-22 c-9 -36 12 -64 49 -64 62 0 60 -8 58 213 0 20 0 72 0 115 0 42 -1 122 -1
177 0 55 1 159 2 232 2 72 0 134 -3 137 -6 6 -138 9 -344 6 -55 0 -128 -1
-162 -1 -35 0 -91 0 -125 -1 -35 0 -76 2 -93 5 -16 3 -37 3 -45 1z m365 -84
c3 -5 -4 -11 -15 -15 -21 -7 -36 -58 -28 -100 l5 -24 -95 5 c-101 4 -112 1
-112 -43 0 -40 25 -53 99 -50 l69 2 -14 -26 c-31 -61 -140 -190 -177 -210 -17
-10 -18 -4 -11 100 4 74 3 115 -4 123 -14 17 -14 168 0 185 5 7 8 21 6 31 -4
15 1 17 43 15 26 -2 50 1 54 7 7 12 173 12 180 0z m295 -45 c0 -25 5 -45 10
-45 6 0 10 -16 10 -35 0 -19 -4 -35 -10 -35 -6 0 -10 -30 -10 -70 0 -40 4 -70
10 -70 6 0 10 -11 10 -25 0 -14 -5 -25 -11 -25 -9 0 -10 -36 -6 -132 l5 -133
-121 2 c-148 3 -156 3 -140 9 9 4 10 34 6 110 -4 75 -3 104 5 104 7 0 12 12
12 26 0 25 2 24 36 -18 20 -23 48 -60 62 -80 l24 -38 30 18 c64 37 62 45 -49
162 -61 66 -67 70 -87 57 -20 -13 -21 -12 -22 14 -1 16 3 26 8 23 5 -4 47 -3
93 1 91 7 103 16 90 67 -6 22 -11 23 -92 25 -47 2 -88 5 -91 7 -2 3 -4 28 -4
55 0 31 -5 52 -12 53 -22 3 100 15 172 16 l72 2 0 -45z m-324 -420 c3 -144 3
-145 -19 -146 -12 0 -69 -1 -127 -2 l-105 -2 0 55 c0 30 4 58 10 62 5 4 25 -3
44 -14 l34 -21 28 34 c38 45 95 129 110 163 7 14 14 24 17 21 3 -2 6 -70 8
-150z"/>
</g>
</svg>
