<?xml version="1.0" standalone="no"?>
<!DOCTYPE svg PUBLIC "-//W3C//DTD SVG 20010904//EN"
 "http://www.w3.org/TR/2001/REC-SVG-20010904/DTD/svg10.dtd">
<svg version="1.0" xmlns="http://www.w3.org/2000/svg"
 width="101.000000pt" height="101.000000pt" viewBox="0 0 101.000000 101.000000"
 preserveAspectRatio="xMidYMid meet">
<metadata>
Created by potrace 1.16, written by Peter Selinger 2001-2019
</metadata>
<g transform="translate(0.000000,101.000000) scale(0.100000,-0.100000)"
fill="#000000" stroke="none">
<path d="M119 942 c-4 -48 4 -137 12 -140 12 -5 11 -72 -1 -72 -6 0 -10 -30
-10 -70 0 -40 4 -70 10 -70 6 0 10 -11 10 -25 0 -14 -4 -25 -10 -25 -6 0 -10
-40 -10 -100 0 -67 4 -100 11 -100 13 0 3 -157 -11 -196 -13 -33 4 -48 51 -47
49 2 52 5 52 42 0 22 5 29 21 30 52 4 226 2 275 -2 30 -3 63 -1 73 4 12 6 56
7 114 3 80 -6 94 -9 89 -23 -10 -34 13 -46 79 -43 27 2 28 4 22 40 -14 74 -18
212 -7 225 13 16 14 214 1 222 -13 8 -13 52 0 60 6 4 10 53 9 124 -1 65 1 123
5 130 4 6 5 19 2 29 -5 15 -22 17 -120 19 -67 2 -118 -2 -121 -7 -8 -13 -52
-13 -60 0 -8 13 -142 13 -150 1 -7 -12 -172 -13 -179 -2 -3 5 -40 9 -81 9 -63
0 -75 -2 -76 -16z m326 -70 c6 -4 10 -30 10 -59 l0 -51 -98 1 c-77 2 -100 -1
-107 -13 -14 -22 -12 -47 6 -65 13 -13 32 -15 116 -10 l99 6 -3 -47 -3 -46
-80 -2 -80 -1 1 -128 c1 -70 4 -131 8 -135 4 -4 31 -6 59 -5 83 4 159 5 252 4
l60 -1 2 135 1 135 -71 -3 -72 -2 4 42 c3 38 6 43 27 43 13 0 24 5 24 11 0 8
24 10 75 7 81 -4 90 2 79 47 -5 20 -14 25 -57 30 -29 3 -75 5 -103 3 l-50 -3
7 40 c5 22 8 45 9 50 0 6 48 11 118 13 l117 2 -3 -106 c-1 -60 2 -112 8 -119
12 -15 11 -153 -1 -161 -6 -3 -8 -52 -5 -119 l5 -112 -90 -8 c-54 -4 -95 -3
-102 3 -16 13 -95 14 -102 1 -7 -11 -166 -10 -180 1 -5 5 -34 7 -63 7 l-52 -2
0 55 c0 30 0 96 0 145 0 50 1 162 3 250 l2 160 72 -3 c39 -2 79 1 90 7 21 12
54 14 68 3z m151 -416 l1 -54 -61 -7 c-41 -5 -61 -4 -64 4 -2 6 -19 11 -38 11
-34 0 -34 0 -34 48 l0 47 98 3 97 3 1 -55z"/>
</g>
</svg>
