<?xml version="1.0" standalone="no"?>
<!DOCTYPE svg PUBLIC "-//W3C//DTD SVG 20010904//EN"
 "http://www.w3.org/TR/2001/REC-SVG-20010904/DTD/svg10.dtd">
<svg version="1.0" xmlns="http://www.w3.org/2000/svg"
 width="101.000000pt" height="101.000000pt" viewBox="0 0 101.000000 101.000000"
 preserveAspectRatio="xMidYMid meet">
<metadata>
Created by potrace 1.16, written by Peter Selinger 2001-2019
</metadata>
<g transform="translate(0.000000,101.000000) scale(0.100000,-0.100000)"
fill="#000000" stroke="none">
<path d="M109 983 c-18 -4 -25 -68 -9 -78 12 -8 12 -173 -1 -180 -12 -8 -12
-142 1 -150 13 -8 13 -52 0 -60 -13 -8 -12 -203 2 -225 9 -14 9 -40 1 -102
-12 -91 -8 -103 37 -93 14 3 32 6 40 7 19 1 30 17 30 43 0 19 7 20 117 22 65
1 138 3 163 3 25 1 64 -2 86 -5 25 -4 50 -2 63 4 24 14 174 4 165 -10 -3 -5
-2 -18 1 -29 7 -21 60 -36 93 -26 18 6 19 11 11 39 -12 42 -12 104 1 112 12 7
12 213 0 220 -13 8 -13 52 0 60 13 8 13 142 1 150 -13 7 -13 172 -1 180 9 6
12 66 4 95 -3 13 -27 15 -151 13 -262 -4 -345 -4 -485 1 -75 2 -140 6 -145 8
-4 3 -15 3 -24 1z m241 -94 c0 -7 18 -10 49 -7 l49 3 -16 -28 c-43 -73 -215
-198 -227 -165 -2 7 -6 52 -8 101 l-3 87 43 0 c24 0 43 5 43 10 0 6 16 10 35
10 19 0 35 -5 35 -11z m455 -100 l0 -97 -25 5 c-79 13 -251 134 -219 154 7 4
9 11 5 17 -8 13 27 17 149 17 l90 1 0 -97z m-245 -71 c36 -35 94 -78 128 -96
l61 -33 28 31 28 31 -3 -79 c-2 -49 1 -83 7 -87 14 -8 14 -52 1 -60 -7 -4 -9
-37 -6 -90 l6 -82 -115 1 -114 1 26 27 25 26 -41 28 -42 27 32 33 c31 32 108
91 122 93 4 0 11 1 16 1 14 0 23 35 15 64 l-6 26 -119 -6 c-88 -5 -119 -4
-119 5 0 6 14 14 30 18 35 7 37 16 10 77 -16 39 -23 46 -42 42 -29 -5 -58 -17
-58 -23 0 -18 34 -103 42 -103 5 0 6 -4 3 -10 -8 -14 -145 -13 -145 1 0 16
-62 6 -74 -13 -7 -12 -7 -26 0 -45 l10 -28 154 2 155 3 -47 -46 -46 -47 -44
26 -45 26 -37 -31 -38 -31 61 -32 c49 -26 161 -103 161 -111 0 -7 -347 3 -352
11 -11 15 -10 73 2 80 12 7 11 113 -1 121 -13 7 -11 48 2 61 6 6 10 34 8 63
l-4 52 25 -30 25 -30 65 44 c47 31 183 145 185 154 0 0 30 -28 65 -62z"/>
</g>
</svg>
