<?xml version="1.0" standalone="no"?>
<!DOCTYPE svg PUBLIC "-//W3C//DTD SVG 20010904//EN"
 "http://www.w3.org/TR/2001/REC-SVG-20010904/DTD/svg10.dtd">
<svg version="1.0" xmlns="http://www.w3.org/2000/svg"
 width="101.000000pt" height="101.000000pt" viewBox="0 0 101.000000 101.000000"
 preserveAspectRatio="xMidYMid meet">
<metadata>
Created by potrace 1.16, written by Peter Selinger 2001-2019
</metadata>
<g transform="translate(0.000000,101.000000) scale(0.100000,-0.100000)"
fill="#000000" stroke="none">
<path d="M120 984 c-12 -3 -14 -18 -12 -64 3 -39 0 -60 -7 -60 -6 0 -11 -18
-11 -40 0 -22 5 -40 10 -40 6 0 10 -33 10 -80 0 -47 -4 -80 -10 -80 -6 0 -10
-30 -10 -70 0 -40 4 -70 10 -70 6 0 10 -11 10 -25 0 -14 -4 -25 -10 -25 -6 0
-10 -40 -10 -100 0 -68 4 -100 11 -100 8 0 10 -19 6 -65 -7 -71 -7 -71 58 -66
32 3 46 16 38 37 -2 7 5 13 19 13 61 4 229 2 277 -2 30 -3 63 -1 73 4 10 5 63
7 127 3 l110 -7 -6 -27 c-6 -31 10 -39 67 -32 l36 4 -3 81 c-1 45 -2 99 -2
120 0 57 0 181 -1 292 -1 55 1 166 4 247 l4 146 -122 7 c-82 5 -130 4 -143 -3
-12 -7 -57 -9 -114 -7 -90 5 -135 5 -271 3 -35 0 -76 2 -93 5 -16 3 -37 3 -45
1z m355 -74 c3 -5 -3 -13 -12 -19 -14 -7 -18 -22 -18 -63 l0 -53 -36 0 c-34
-1 -35 0 -17 15 19 15 18 16 -15 55 -33 38 -35 38 -65 26 -37 -16 -37 -15 -14
-49 34 -50 34 -50 -3 -42 -55 12 -85 -28 -49 -65 13 -13 31 -15 100 -10 l83 5
-10 -23 c-9 -21 -15 -22 -102 -19 l-92 3 -1 -36 c-1 -41 19 -51 90 -43 l44 5
-32 -26 c-38 -33 -78 -59 -110 -71 l-24 -9 6 84 c3 53 1 89 -6 97 -14 17 -14
168 0 185 5 7 8 21 6 31 -4 15 1 17 43 15 26 -2 50 1 54 7 7 12 173 12 180 0z
m212 -1 c6 -6 33 -10 62 -8 l51 4 0 -42 c0 -24 5 -43 10 -43 6 0 10 -16 10
-35 0 -20 -5 -35 -11 -35 -9 0 -10 -33 -5 -121 l7 -121 -23 7 c-57 18 -125 46
-150 63 l-27 18 68 -4 c54 -3 71 -1 85 13 36 36 17 49 -79 58 -50 4 -114 6
-143 4 -43 -3 -52 -1 -47 10 3 8 5 17 5 19 0 2 14 4 30 4 17 0 30 5 30 11 0 8
27 10 90 7 94 -4 104 0 93 41 -4 17 -12 20 -55 18 l-49 -2 35 28 c20 16 36 35
36 42 0 15 -83 51 -87 38 -2 -4 -16 -30 -31 -57 -20 -34 -36 -50 -51 -51 -16
-1 -20 2 -16 14 4 9 8 25 10 36 1 11 6 27 9 36 5 10 -1 19 -16 27 -20 9 -15
11 34 11 31 1 60 6 63 11 8 13 48 13 62 -1z m-148 -323 c6 -4 15 -16 21 -26
10 -18 6 -19 -74 -17 l-83 2 21 25 c17 21 29 25 62 24 23 -1 47 -5 53 -8z
m169 -135 l43 -22 19 23 c11 13 19 26 20 31 0 4 3 7 8 7 4 0 6 -24 5 -52 0
-29 2 -57 7 -63 11 -14 11 -117 0 -134 -6 -11 -35 -14 -127 -13 -124 1 -185 1
-348 1 -150 0 -144 -1 -150 35 -3 17 -3 63 0 101 3 39 6 81 6 95 1 25 1 25 29
-9 l29 -34 40 32 41 33 0 -36 c0 -20 5 -36 11 -36 8 0 10 -17 5 -54 -4 -40 -2
-57 8 -65 14 -12 76 -24 111 -22 11 1 58 2 105 4 99 2 133 19 156 72 18 44 20
40 -22 64 -42 25 -44 25 -44 6 0 -58 -49 -87 -140 -79 -30 2 -65 4 -78 5 -33
1 -49 41 -35 80 7 17 10 36 7 44 -4 9 13 14 68 17 40 3 75 3 78 1 2 -2 -1 -12
-6 -21 -8 -11 -23 -17 -48 -16 -41 2 -40 2 -24 -42 14 -40 29 -44 86 -25 34
11 46 21 58 50 8 20 13 44 10 54 -4 17 -3 17 12 4 9 -8 36 -24 60 -36z"/>
</g>
</svg>
