<?xml version="1.0" standalone="no"?>
<!DOCTYPE svg PUBLIC "-//W3C//DTD SVG 20010904//EN"
 "http://www.w3.org/TR/2001/REC-SVG-20010904/DTD/svg10.dtd">
<svg version="1.0" xmlns="http://www.w3.org/2000/svg"
 width="101.000000pt" height="101.000000pt" viewBox="0 0 101.000000 101.000000"
 preserveAspectRatio="xMidYMid meet">
<metadata>
Created by potrace 1.16, written by Peter Selinger 2001-2019
</metadata>
<g transform="translate(0.000000,101.000000) scale(0.100000,-0.100000)"
fill="#000000" stroke="none">
<path d="M150 962 c-10 -4 -15 -22 -16 -49 -1 -47 16 -61 57 -48 12 4 79 7
148 7 69 0 138 4 153 10 31 12 158 2 158 -12 0 -18 -138 -147 -156 -147 -11 0
-50 31 -87 68 l-68 68 -45 -21 c-24 -12 -44 -24 -44 -28 0 -3 34 -34 75 -70
41 -36 75 -67 75 -70 0 -10 -168 -62 -200 -62 -8 0 -22 -2 -30 -5 -23 -9 -42
-13 -77 -16 -18 -2 -36 -6 -39 -10 -4 -3 7 -27 22 -52 35 -55 25 -56 239 19
88 31 167 58 175 60 8 2 47 -8 85 -21 39 -14 84 -27 100 -30 17 -3 36 -9 42
-15 7 -6 19 -8 28 -5 8 4 17 1 21 -4 3 -6 15 -9 25 -6 10 3 21 1 24 -4 6 -9
94 -10 96 0 1 3 3 16 4 28 1 12 10 34 20 49 23 36 10 43 -85 43 -81 1 -118 5
-237 27 l-32 6 69 69 c38 38 94 102 124 142 l55 72 -32 8 c-17 5 -54 6 -82 2
-27 -3 -93 -6 -145 -6 -170 0 -219 0 -282 -1 -35 0 -76 2 -93 5 -16 4 -37 3
-45 -1z"/>
<path d="M434 493 l1 -58 -122 1 -122 2 -6 -29 c-9 -40 2 -68 31 -75 30 -8 97
4 105 18 4 7 27 8 62 4 47 -6 55 -10 56 -29 0 -12 2 -37 3 -56 3 -33 1 -35
-36 -43 -41 -9 -169 -5 -241 7 -46 8 -84 9 -90 3 -6 -6 -9 -36 -7 -70 2 -25 5
-26 40 -21 20 3 80 5 132 5 52 -1 124 -1 160 -1 136 0 269 -2 397 -4 l131 -2
5 29 c9 63 -17 84 -76 63 -29 -10 -233 -14 -302 -6 -28 4 -30 7 -27 39 1 19 3
44 3 55 1 17 9 20 53 22 28 2 71 4 96 5 25 2 64 -1 87 -5 40 -8 43 -7 49 17 3
14 4 36 0 49 -5 21 -9 22 -137 24 -72 1 -133 4 -136 7 -7 7 -6 48 2 73 6 20 4
21 -34 16 -27 -4 -41 -2 -41 6 0 6 -8 11 -19 11 -16 0 -18 -8 -17 -57z"/>
</g>
</svg>
