<?xml version="1.0" standalone="no"?>
<!DOCTYPE svg PUBLIC "-//W3C//DTD SVG 20010904//EN"
 "http://www.w3.org/TR/2001/REC-SVG-20010904/DTD/svg10.dtd">
<svg version="1.0" xmlns="http://www.w3.org/2000/svg"
 width="101.000000pt" height="101.000000pt" viewBox="0 0 101.000000 101.000000"
 preserveAspectRatio="xMidYMid meet">
<metadata>
Created by potrace 1.16, written by Peter Selinger 2001-2019
</metadata>
<g transform="translate(0.000000,101.000000) scale(0.100000,-0.100000)"
fill="#000000" stroke="none">
<path d="M460 991 c-11 -5 -15 -24 -15 -83 0 -42 3 -80 8 -84 8 -9 9 -60 1
-100 l-6 -29 -96 3 c-53 1 -121 5 -149 8 -50 6 -53 5 -63 -21 -19 -50 -8 -86
26 -86 10 1 47 1 81 0 33 0 64 5 68 11 7 11 56 13 101 4 l29 -5 -3 -79 c-2
-48 1 -81 7 -85 14 -8 14 -52 1 -60 -7 -4 -9 -35 -6 -81 l4 -73 -33 -7 c-19
-3 -56 -3 -82 0 -83 11 -236 14 -260 5 -25 -9 -31 -46 -13 -80 10 -17 23 -19
155 -19 90 0 145 4 145 10 0 6 20 10 45 10 25 0 45 -4 45 -10 0 -12 175 -13
356 -4 l119 7 0 44 0 44 -117 -7 c-84 -5 -122 -3 -132 5 -8 7 -37 10 -70 9
l-57 -4 6 92 c4 59 2 95 -5 99 -13 8 -13 48 1 62 6 6 10 33 8 62 l-4 51 43 0
c23 0 42 5 42 10 0 6 11 10 25 10 14 0 25 -5 25 -11 0 -6 32 -9 90 -8 85 2 91
4 96 26 4 13 3 34 0 47 -6 23 -11 25 -98 30 -51 4 -123 6 -160 4 -60 -3 -68
-1 -72 17 -9 33 -7 93 4 100 5 3 9 29 8 58 0 29 3 60 6 69 8 18 -26 44 -44 33
-5 -3 -18 -2 -27 3 -10 5 -25 7 -33 3z"/>
</g>
</svg>
