<?xml version="1.0" standalone="no"?>
<!DOCTYPE svg PUBLIC "-//W3C//DTD SVG 20010904//EN"
 "http://www.w3.org/TR/2001/REC-SVG-20010904/DTD/svg10.dtd">
<svg version="1.0" xmlns="http://www.w3.org/2000/svg"
 width="101.000000pt" height="101.000000pt" viewBox="0 0 101.000000 101.000000"
 preserveAspectRatio="xMidYMid meet">
<metadata>
Created by potrace 1.16, written by Peter Selinger 2001-2019
</metadata>
<g transform="translate(0.000000,101.000000) scale(0.100000,-0.100000)"
fill="#000000" stroke="none">
<path d="M210 984 c-12 -4 -14 -18 -12 -64 3 -43 0 -60 -8 -60 -10 0 -11 -16
-6 -62 l6 -63 -70 2 c-65 2 -70 1 -75 -20 -3 -12 -1 -35 3 -52 8 -26 13 -30
43 -28 19 1 48 4 64 8 l30 6 0 -142 0 -142 -25 -4 c-14 -1 -45 -5 -68 -7 -24
-3 -46 -7 -49 -9 -5 -6 17 -88 27 -100 4 -5 34 1 68 12 33 11 75 23 94 25 18
2 41 7 51 11 10 4 30 8 45 10 41 3 92 17 93 24 1 3 3 27 5 52 l4 47 -74 -23
-74 -23 2 139 1 139 38 0 c21 0 48 -7 60 -15 29 -19 44 -8 52 36 5 27 2 40
-10 53 -9 9 -21 13 -26 10 -6 -3 -34 -7 -62 -8 l-52 -2 2 80 c2 81 5 105 18
139 4 9 3 17 -1 18 -25 2 -51 7 -64 12 -8 2 -22 3 -30 1z"/>
<path d="M428 919 c-23 -13 -23 -62 -1 -84 12 -13 27 -15 62 -11 25 2 102 6
171 8 l125 4 3 -101 2 -101 -164 1 c-90 0 -168 -4 -173 -8 -15 -15 -6 -272 10
-299 8 -12 8 -26 0 -50 -21 -62 -6 -115 39 -139 20 -11 89 -22 123 -19 11 0
65 2 120 4 125 3 154 16 184 85 24 57 26 71 8 71 -7 0 -28 11 -47 24 l-35 24
-10 -41 c-16 -62 -50 -82 -138 -80 -101 2 -138 8 -148 24 -15 25 -22 118 -10
133 7 8 10 44 9 92 l-3 79 110 -3 c60 -1 111 -4 113 -6 1 -2 4 -13 5 -25 1
-23 49 -38 86 -26 23 7 37 46 26 72 -4 10 -7 44 -5 76 1 35 -3 57 -9 57 -13 0
-15 47 -2 52 11 4 23 160 13 175 -11 17 -207 30 -224 15 -16 -13 -175 -15
-183 -2 -8 13 -35 12 -57 -1z"/>
</g>
</svg>
