<?xml version="1.0" standalone="no"?>
<!DOCTYPE svg PUBLIC "-//W3C//DTD SVG 20010904//EN"
 "http://www.w3.org/TR/2001/REC-SVG-20010904/DTD/svg10.dtd">
<svg version="1.0" xmlns="http://www.w3.org/2000/svg"
 width="101.000000pt" height="101.000000pt" viewBox="0 0 101.000000 101.000000"
 preserveAspectRatio="xMidYMid meet">
<metadata>
Created by potrace 1.16, written by Peter Selinger 2001-2019
</metadata>
<g transform="translate(0.000000,101.000000) scale(0.100000,-0.100000)"
fill="#000000" stroke="none">
<path d="M208 1003 c-21 -5 -33 -61 -23 -100 4 -16 8 -54 10 -86 l3 -58 -73 7
c-68 6 -74 5 -85 -15 -6 -12 -8 -35 -5 -51 l6 -29 75 4 74 4 0 -29 c0 -17 5
-30 10 -30 11 0 12 -103 2 -189 -7 -53 -7 -54 -52 -68 -25 -7 -59 -14 -77 -14
-47 -1 -55 -17 -35 -72 9 -26 21 -45 27 -43 67 31 172 70 266 101 l116 39 -1
43 c-1 50 5 49 -97 10 l-66 -25 -7 96 c-3 54 -6 115 -6 137 l0 40 57 2 c31 1
60 0 65 -3 4 -3 -4 -20 -18 -37 -14 -18 -26 -36 -27 -40 -1 -4 17 -17 41 -27
l42 -19 17 25 c16 25 17 25 27 5 11 -19 18 -20 115 -16 l103 5 -55 -61 c-133
-147 -197 -279 -166 -345 15 -32 77 -67 112 -64 12 1 85 2 162 3 90 1 148 6
162 14 12 7 28 32 37 55 26 75 28 88 14 88 -8 0 -29 11 -48 25 -38 28 -43 26
-47 -13 -5 -58 -11 -68 -44 -84 -33 -17 -93 -19 -207 -5 -40 5 -44 9 -47 48
-5 64 177 291 257 320 41 14 53 35 43 77 l-6 28 -177 3 c-97 1 -178 3 -179 4
-1 2 11 22 26 47 l27 44 56 -3 c32 -1 59 2 63 8 7 12 143 13 160 2 16 -10 99
-7 107 4 13 18 9 63 -8 80 -11 11 -23 13 -38 8 -19 -7 -306 -12 -306 -5 0 7
45 90 62 115 11 15 16 27 11 28 -54 7 -117 -1 -125 -15 -5 -9 -6 -16 -2 -16 3
0 1 -7 -6 -15 -7 -9 -10 -18 -7 -21 8 -9 -29 -110 -63 -170 -33 -57 -41 -65
-34 -36 8 32 -10 43 -79 45 -56 2 -67 5 -71 22 -9 33 -7 93 4 100 6 4 9 18 8
33 -1 15 2 37 6 49 11 33 -31 51 -86 36z"/>
</g>
</svg>
