<?xml version="1.0" standalone="no"?>
<!DOCTYPE svg PUBLIC "-//W3C//DTD SVG 20010904//EN"
 "http://www.w3.org/TR/2001/REC-SVG-20010904/DTD/svg10.dtd">
<svg version="1.0" xmlns="http://www.w3.org/2000/svg"
 width="101.000000pt" height="101.000000pt" viewBox="0 0 101.000000 101.000000"
 preserveAspectRatio="xMidYMid meet">
<metadata>
Created by potrace 1.16, written by Peter Selinger 2001-2019
</metadata>
<g transform="translate(0.000000,101.000000) scale(0.100000,-0.100000)"
fill="#000000" stroke="none">
<path d="M640 994 c-11 -3 -14 -16 -12 -47 2 -24 -2 -67 -8 -97 -6 -30 -13
-67 -14 -81 -9 -94 -64 -187 -140 -235 -25 -16 -45 -31 -46 -34 0 -3 14 -11
32 -19 22 -10 27 -16 17 -20 -8 -3 -14 -19 -14 -36 l0 -30 -151 4 -151 3 -7
-27 c-17 -68 13 -80 179 -70 l113 7 3 -51 c4 -47 2 -51 -21 -55 -14 -3 -47 -3
-75 -1 -27 3 -58 4 -67 4 -32 0 -112 1 -173 4 -56 2 -60 1 -63 -22 -2 -12 -1
-33 2 -45 5 -19 11 -22 38 -19 18 3 76 5 128 4 52 0 124 0 160 0 96 0 246 -2
412 -4 l146 -2 5 29 c6 44 -3 68 -22 61 -29 -11 -242 -17 -254 -6 -7 5 -35 8
-62 8 l-50 -2 0 45 0 45 85 -3 c47 -1 113 0 147 3 67 7 80 20 68 67 -6 24 -6
24 -156 23 -82 0 -149 2 -149 6 0 3 5 10 12 17 8 8 8 15 -1 25 -9 11 -8 17 6
28 29 24 89 126 103 173 12 43 27 61 27 33 0 -7 11 -38 25 -69 29 -63 84 -127
135 -159 35 -22 36 -22 46 -3 6 10 24 32 40 47 16 15 28 29 26 30 -2 1 -21 10
-42 20 -81 37 -172 150 -182 226 -1 14 -4 26 -5 26 -2 0 -9 62 -10 95 -2 30 3
50 14 68 5 8 4 18 -1 23 -11 11 -71 20 -93 13z"/>
<path d="M128 963 c-20 -5 -20 -6 -18 -83 1 -30 6 -56 11 -58 12 -5 12 -72 -1
-72 -6 0 -8 -61 -6 -162 4 -159 5 -163 26 -166 45 -7 69 6 76 43 3 19 3 43 -1
52 -4 10 -8 95 -9 188 l-1 170 72 0 c40 0 73 -2 73 -4 0 -1 -16 -34 -36 -72
l-36 -69 36 -40 c20 -22 37 -46 38 -53 4 -35 3 -43 -7 -49 -5 -4 -23 -5 -40
-3 -51 9 -60 -6 -31 -50 14 -21 26 -44 26 -52 0 -17 22 -12 89 19 47 22 75 68
67 110 -3 13 -5 26 -5 30 -1 3 -17 28 -37 54 l-36 47 55 106 56 106 -52 2
c-29 1 -106 4 -172 6 -66 3 -128 3 -137 0z"/>
</g>
</svg>
