<?xml version="1.0" standalone="no"?>
<!DOCTYPE svg PUBLIC "-//W3C//DTD SVG 20010904//EN"
 "http://www.w3.org/TR/2001/REC-SVG-20010904/DTD/svg10.dtd">
<svg version="1.0" xmlns="http://www.w3.org/2000/svg"
 width="101.000000pt" height="101.000000pt" viewBox="0 0 101.000000 101.000000"
 preserveAspectRatio="xMidYMid meet">
<metadata>
Created by potrace 1.16, written by Peter Selinger 2001-2019
</metadata>
<g transform="translate(0.000000,101.000000) scale(0.100000,-0.100000)"
fill="#000000" stroke="none">
<path d="M178 992 c-16 -3 -17 -16 -13 -137 l5 -135 -59 5 -60 5 -6 -34 c-10
-50 8 -76 51 -76 19 0 43 4 52 9 16 8 17 -4 20 -140 l2 -148 -57 -17 c-32 -10
-61 -21 -66 -24 -8 -7 21 -100 32 -100 5 0 55 22 112 49 57 26 122 54 144 61
54 17 66 33 53 73 -6 18 -12 33 -13 35 -1 2 -27 -8 -58 -22 l-55 -24 2 139 c1
126 3 139 19 139 10 0 29 -7 42 -16 47 -30 84 4 70 66 -6 29 -7 29 -68 27
l-62 -2 2 100 c0 55 4 112 8 127 7 27 6 28 -24 22 -18 -4 -31 -2 -31 4 0 13
-20 19 -42 14z"/>
<path d="M415 918 c-4 -10 -3 -23 1 -29 16 -26 17 -429 2 -445 -11 -10 -10
-66 1 -82 4 -7 16 -13 27 -13 96 1 141 5 151 13 14 12 209 4 245 -11 22 -8 31
-7 43 5 16 16 20 46 8 58 -4 3 -6 29 -4 56 1 31 -2 50 -8 50 -6 0 -11 11 -11
25 0 14 5 25 10 25 6 0 10 30 10 70 0 40 -4 70 -10 70 -12 0 -13 47 -1 52 5 2
10 41 12 87 l4 84 -103 4 c-60 3 -108 0 -115 -5 -15 -13 -174 -15 -182 -2 -11
17 -74 8 -80 -12z m381 -151 c1 -52 -2 -85 -10 -89 -17 -12 -144 -9 -151 2 -4
6 -32 9 -65 8 l-58 -3 1 80 2 80 140 2 140 1 1 -81z m1 -249 l1 -77 -45 -7
c-27 -4 -53 -2 -66 5 -13 7 -54 10 -97 9 l-75 -3 0 75 0 75 140 0 140 0 2 -77z"/>
<path d="M319 223 c-21 -5 -28 -29 -21 -71 4 -32 5 -32 51 -26 25 3 89 6 141
6 120 -1 207 -1 291 0 37 1 92 -2 122 -5 l55 -7 4 32 c11 69 -14 86 -88 61
-29 -10 -59 -13 -87 -9 -23 4 -69 7 -102 6 -217 -4 -280 -1 -330 12 -11 3 -27
4 -36 1z"/>
</g>
</svg>
