<?xml version="1.0" standalone="no"?>
<!DOCTYPE svg PUBLIC "-//W3C//DTD SVG 20010904//EN"
 "http://www.w3.org/TR/2001/REC-SVG-20010904/DTD/svg10.dtd">
<svg version="1.0" xmlns="http://www.w3.org/2000/svg"
 width="101.000000pt" height="101.000000pt" viewBox="0 0 101.000000 101.000000"
 preserveAspectRatio="xMidYMid meet">
<metadata>
Created by potrace 1.16, written by Peter Selinger 2001-2019
</metadata>
<g transform="translate(0.000000,101.000000) scale(0.100000,-0.100000)"
fill="#000000" stroke="none">
<path d="M768 1003 c-18 -5 -33 -37 -23 -52 3 -5 7 -45 9 -88 l3 -78 -108 0
-108 0 6 80 c3 44 10 86 16 93 12 15 11 15 -30 31 -18 7 -45 10 -61 6 l-30 -6
1 -103 c2 -101 2 -102 -20 -98 -33 6 -73 -6 -73 -23 0 -8 -6 -15 -12 -16 -7 0
-29 -1 -48 -3 l-35 -3 2 76 c2 72 4 87 19 138 5 18 1 23 -17 27 -68 14 -121
-6 -102 -37 4 -6 7 -54 7 -106 l1 -96 -60 3 -60 3 1 -53 0 -53 60 2 59 1 -2
-51 c0 -29 2 -56 7 -62 9 -11 12 -131 4 -157 -5 -16 -45 -34 -101 -44 -15 -3
-29 -6 -30 -8 -2 -2 26 -96 31 -103 1 -1 42 15 92 36 49 21 119 49 156 62 59
21 67 26 71 53 6 43 -3 68 -22 63 -9 -2 -39 -14 -68 -25 l-52 -21 -6 32 c-3
18 -3 66 0 107 3 41 6 85 6 97 1 19 5 22 25 17 32 -8 74 3 74 20 0 10 15 15
48 18 l47 3 2 -200 c1 -110 4 -220 5 -245 2 -25 0 -66 -4 -91 -8 -53 -1 -59
63 -51 l36 4 -3 48 c-2 54 -13 50 123 53 45 1 84 -1 88 -5 4 -4 2 -21 -3 -38
-19 -53 2 -72 67 -62 32 4 33 6 27 41 -14 77 -17 252 -5 267 9 11 9 18 1 26
-15 15 -16 75 -2 83 6 4 9 40 8 89 l-3 83 46 -5 c54 -5 79 14 79 58 0 36 -5
39 -73 42 l-56 3 4 78 c3 43 10 87 16 98 12 23 12 22 -18 38 -22 11 -44 12
-75 4z m-15 -390 c2 -43 3 -80 0 -83 -3 -3 -41 -4 -86 -3 -139 3 -125 -6 -124
82 l2 76 101 3 101 2 6 -77z m-22 -159 c19 -4 27 -12 29 -27 4 -49 1 -129 -5
-136 -4 -3 -43 -5 -88 -4 -133 3 -124 0 -132 49 -3 24 -2 52 4 63 6 11 8 27 4
36 -5 14 -2 16 13 11 10 -3 26 -1 34 4 15 9 97 12 141 4z"/>
</g>
</svg>
