<?xml version="1.0" standalone="no"?>
<!DOCTYPE svg PUBLIC "-//W3C//DTD SVG 20010904//EN"
 "http://www.w3.org/TR/2001/REC-SVG-20010904/DTD/svg10.dtd">
<svg version="1.0" xmlns="http://www.w3.org/2000/svg"
 width="101.000000pt" height="101.000000pt" viewBox="0 0 101.000000 101.000000"
 preserveAspectRatio="xMidYMid meet">
<metadata>
Created by potrace 1.16, written by Peter Selinger 2001-2019
</metadata>
<g transform="translate(0.000000,101.000000) scale(0.100000,-0.100000)"
fill="#000000" stroke="none">
<path d="M147 994 c-12 -12 -8 -112 4 -116 8 -3 9 -23 4 -66 l-7 -63 -44 7
c-51 7 -74 -6 -74 -43 0 -56 47 -81 98 -54 15 8 17 2 18 -42 1 -29 5 -68 9
-88 4 -21 2 -45 -4 -57 -7 -14 -7 -28 2 -51 16 -42 3 -60 -59 -85 -27 -11 -51
-21 -53 -22 -4 -3 30 -94 36 -94 2 0 49 22 106 49 142 67 136 66 148 31 10
-26 13 -28 37 -19 15 6 67 21 116 34 76 21 90 22 102 10 13 -12 10 -20 -21
-54 -20 -22 -58 -54 -86 -71 -27 -18 -49 -33 -49 -35 0 -1 23 -16 51 -34 l51
-31 63 64 c41 42 76 90 100 138 41 84 44 98 50 218 2 47 7 101 10 120 4 19 7
46 7 60 1 21 6 25 32 25 l31 0 -3 -75 c-3 -87 -3 -82 3 -181 3 -51 1 -89 -9
-116 -8 -22 -12 -51 -9 -64 7 -35 -20 -54 -73 -51 -24 1 -44 0 -44 -1 0 -2 9
-20 20 -42 11 -22 20 -45 20 -52 0 -17 25 -16 88 2 83 25 87 36 88 250 1 99 4
196 8 215 3 19 8 73 11 120 l4 86 -82 -1 -82 -1 2 56 c0 30 4 68 8 83 10 37 4
41 -55 42 -47 0 -56 -5 -50 -30 1 -5 3 -41 4 -80 l1 -70 -47 2 c-39 2 -48 -1
-53 -17 -4 -11 -3 -30 0 -42 7 -22 7 -22 -40 -2 -6 2 -18 -18 -28 -45 -17 -49
-19 -50 -55 -48 l-38 1 31 76 c18 41 46 103 63 137 l31 61 -32 12 c-65 23 -74
22 -85 -10 -6 -16 -8 -30 -5 -30 3 0 0 -6 -6 -14 -6 -8 -11 -18 -9 -22 7 -28
-49 -175 -72 -189 -8 -5 -11 -4 -6 3 4 6 4 22 1 35 -6 22 -10 24 -50 19 l-44
-5 4 95 c3 52 8 109 11 126 4 18 3 32 -2 33 -5 0 -27 3 -50 5 -22 3 -43 2 -47
-2z m516 -352 c-1 -48 -4 -109 -8 -137 -3 -27 -6 -58 -7 -67 -1 -10 -6 -18 -9
-18 -4 0 -10 8 -13 18 -4 9 -15 28 -25 41 -17 23 -19 23 -50 7 l-32 -17 18
-29 c19 -33 18 -37 -17 -43 -14 -3 -38 -8 -55 -13 l-29 -7 19 29 c10 16 44 79
75 139 79 153 92 174 115 178 11 2 20 5 20 6 0 0 -1 -38 -2 -87z m-376 19 c6
-1 11 -9 11 -18 0 -10 4 -30 10 -45 9 -23 16 -26 44 -22 92 11 108 12 108 8 0
-12 -65 -133 -87 -161 -27 -38 -43 -42 -43 -13 0 25 -1 25 -52 -1 -33 -17 -42
-18 -49 -7 -11 16 -10 140 1 153 5 6 7 33 7 61 -2 45 0 50 18 48 11 -1 25 -3
32 -3z"/>
</g>
</svg>
