<?xml version="1.0" standalone="no"?>
<!DOCTYPE svg PUBLIC "-//W3C//DTD SVG 20010904//EN"
 "http://www.w3.org/TR/2001/REC-SVG-20010904/DTD/svg10.dtd">
<svg version="1.0" xmlns="http://www.w3.org/2000/svg"
 width="101.000000pt" height="101.000000pt" viewBox="0 0 101.000000 101.000000"
 preserveAspectRatio="xMidYMid meet">
<metadata>
Created by potrace 1.16, written by Peter Selinger 2001-2019
</metadata>
<g transform="translate(0.000000,101.000000) scale(0.100000,-0.100000)"
fill="#000000" stroke="none">
<path d="M185 879 l1 -121 -46 6 c-51 6 -64 1 -74 -31 -14 -45 -1 -58 59 -58
l55 0 5 -127 4 -128 -70 -21 c-38 -11 -69 -22 -69 -23 0 -4 33 -101 35 -104 2
-2 23 10 48 26 25 16 85 44 134 62 48 19 91 38 94 43 4 5 2 25 -4 44 -8 24
-15 33 -26 29 -61 -19 -56 -27 -53 83 l3 101 37 0 c48 0 60 9 68 46 9 44 -17
67 -70 62 l-41 -3 1 92 c1 50 4 95 7 100 11 18 -12 35 -54 39 l-44 5 0 -122z"/>
<path d="M406 957 c-13 -10 -16 -20 -11 -36 8 -26 9 -422 1 -489 -8 -71 -51
-148 -121 -222 l-66 -68 32 -11 c18 -6 41 -19 51 -28 18 -16 21 -16 46 16 65
81 133 212 150 291 3 14 6 72 6 130 l1 105 191 -2 192 -1 6 66 c8 88 7 225 -2
239 -10 16 -217 30 -234 15 -16 -13 -175 -15 -183 -2 -9 14 -38 12 -59 -3z
m388 -150 c3 -38 5 -71 3 -73 -1 -2 -58 -6 -125 -10 -89 -5 -122 -4 -122 4 0
7 -13 12 -28 12 -28 0 -28 0 -27 68 l0 67 146 1 146 1 7 -70z"/>
<path d="M579 623 c-15 -3 -16 -21 -13 -146 2 -78 4 -175 4 -215 0 -40 5 -82
11 -93 15 -29 74 -52 98 -39 11 5 57 8 103 6 45 -2 93 1 106 5 23 9 61 78 62
111 0 17 -86 65 -97 54 -3 -3 -6 -22 -7 -42 -1 -31 -6 -40 -35 -56 -24 -13
-42 -17 -60 -12 -14 4 -39 8 -54 10 -49 3 -55 21 -46 130 1 22 80 78 189 136
33 17 60 34 60 37 0 3 -20 19 -45 34 l-45 29 -73 -61 c-41 -34 -76 -61 -78
-61 -2 0 -1 35 2 77 7 97 -9 116 -82 96z"/>
</g>
</svg>
