<?xml version="1.0" standalone="no"?>
<!DOCTYPE svg PUBLIC "-//W3C//DTD SVG 20010904//EN"
 "http://www.w3.org/TR/2001/REC-SVG-20010904/DTD/svg10.dtd">
<svg version="1.0" xmlns="http://www.w3.org/2000/svg"
 width="101.000000pt" height="101.000000pt" viewBox="0 0 101.000000 101.000000"
 preserveAspectRatio="xMidYMid meet">
<metadata>
Created by potrace 1.16, written by Peter Selinger 2001-2019
</metadata>
<g transform="translate(0.000000,101.000000) scale(0.100000,-0.100000)"
fill="#000000" stroke="none">
<path d="M160 964 c0 -7 5 -14 10 -14 6 0 10 -25 10 -55 0 -30 -4 -55 -10 -55
-5 0 -10 -18 -10 -40 0 -22 5 -40 11 -40 6 0 9 -12 7 -27 -3 -28 -4 -28 -73
-28 -65 0 -70 -2 -78 -25 -5 -16 -5 -36 2 -54 12 -30 22 -31 119 -11 l32 8 -1
-64 c-1 -35 -4 -106 -8 -158 -7 -104 -1 -97 -89 -105 -23 -2 -45 -6 -48 -9 -3
-3 1 -31 10 -61 l17 -56 27 14 c36 19 192 67 217 68 64 1 95 38 80 95 -6 24
-5 25 10 13 19 -16 32 -3 122 127 31 46 58 81 60 79 2 -1 4 -80 6 -175 l2
-171 -30 -5 c-43 -7 -158 4 -210 19 -33 10 -49 -9 -48 -55 2 -49 4 -51 35 -50
13 1 68 2 123 2 55 0 129 0 165 0 36 1 124 1 196 1 l132 0 5 31 c9 67 -10 84
-73 62 -25 -9 -63 -12 -102 -9 -35 2 -72 5 -83 5 -19 1 -20 8 -17 128 1 69 3
155 5 191 l2 65 53 -75 c30 -41 65 -96 78 -122 13 -27 26 -48 29 -48 15 0 95
46 95 54 0 12 -112 180 -153 230 l-23 28 -42 -21 c-22 -11 -43 -21 -44 -21
-10 0 2 118 16 153 l16 42 105 0 c117 0 127 5 123 63 l-3 33 -152 5 c-91 2
-154 1 -157 -5 -8 -12 -173 -13 -181 -1 -3 5 -23 8 -45 8 -44 0 -54 -14 -44
-64 5 -29 11 -34 41 -40 19 -4 73 -4 118 0 97 8 95 11 51 -87 -41 -93 -111
-190 -187 -261 l-70 -65 33 -17 33 -17 -40 -18 c-22 -9 -51 -20 -64 -24 l-24
-7 8 138 c4 77 8 140 10 142 5 6 40 4 71 -3 36 -8 64 13 64 48 0 40 -14 48
-84 50 l-67 2 6 85 c6 98 10 128 19 151 9 20 -13 31 -71 35 -32 2 -43 -1 -43
-12z"/>
</g>
</svg>
