<?xml version="1.0" standalone="no"?>
<!DOCTYPE svg PUBLIC "-//W3C//DTD SVG 20010904//EN"
 "http://www.w3.org/TR/2001/REC-SVG-20010904/DTD/svg10.dtd">
<svg version="1.0" xmlns="http://www.w3.org/2000/svg"
 width="101.000000pt" height="101.000000pt" viewBox="0 0 101.000000 101.000000"
 preserveAspectRatio="xMidYMid meet">
<metadata>
Created by potrace 1.16, written by Peter Selinger 2001-2019
</metadata>
<g transform="translate(0.000000,101.000000) scale(0.100000,-0.100000)"
fill="#000000" stroke="none">
<path d="M152 953 c0 -26 5 -55 11 -64 7 -11 7 -40 1 -85 l-9 -69 -47 -3 c-29
-2 -48 1 -48 7 0 17 -30 13 -36 -4 -4 -8 -3 -31 0 -50 6 -30 11 -35 43 -41 20
-4 48 -3 62 3 l26 9 3 -152 3 -152 -66 -17 -65 -18 4 -44 c2 -25 8 -49 13 -54
7 -7 42 3 104 29 52 22 121 49 155 61 l60 22 -2 42 c-1 23 -2 48 -3 55 -1 8
-16 5 -51 -13 -27 -14 -51 -25 -52 -25 -2 0 -3 60 -3 132 l0 133 26 -1 c14 0
30 -4 36 -7 31 -19 59 22 48 71 -5 26 -10 29 -53 31 -25 1 -48 3 -49 5 -6 6
-4 193 3 214 3 12 5 22 3 23 -2 0 -30 3 -61 5 l-57 4 1 -47z"/>
<path d="M820 960 c-7 -5 -19 -6 -27 -3 -7 3 -21 2 -30 -2 -34 -14 -165 -26
-274 -25 -83 1 -99 -12 -99 -80 0 -27 4 -52 10 -55 11 -7 12 -153 0 -160 -12
-7 -12 -153 0 -160 13 -8 13 -52 0 -60 -7 -4 -9 -36 -6 -82 2 -41 0 -86 -6
-98 -8 -18 -5 -30 17 -64 26 -38 45 -52 45 -32 0 4 35 46 78 92 l79 84 -22 48
-21 48 -34 -47 c-31 -44 -34 -46 -42 -25 -4 12 -6 55 -3 94 3 40 6 82 6 95 1
16 6 22 16 18 8 -3 24 -1 35 5 11 6 35 8 53 5 25 -5 33 -12 33 -29 2 -100 71
-268 146 -353 53 -61 94 -79 124 -58 21 15 63 111 61 142 -1 19 -76 88 -85 79
-4 -3 -8 -21 -9 -39 -2 -18 -3 -39 -4 -45 -5 -62 -108 109 -127 210 -14 80
-14 85 9 86 12 1 49 3 81 5 32 3 70 0 84 -5 30 -11 42 1 42 43 0 40 -26 61
-69 54 -20 -3 -64 -7 -99 -8 l-63 -3 3 105 3 106 35 0 c163 3 169 6 127 78
-22 39 -43 51 -67 36z m-198 -182 c-1 -31 2 -59 8 -63 12 -7 13 -55 1 -73 -6
-10 -23 -12 -70 -6 -53 6 -61 9 -62 28 -1 11 -2 55 -2 96 l-2 75 65 0 65 0 -3
-57z"/>
<path d="M602 257 c-27 -8 -32 -14 -27 -31 3 -12 11 -42 17 -68 l11 -47 45 4
c24 2 46 6 49 8 9 9 -32 129 -46 136 -9 4 -31 3 -49 -2z"/>
</g>
</svg>
