<?xml version="1.0" standalone="no"?>
<!DOCTYPE svg PUBLIC "-//W3C//DTD SVG 20010904//EN"
 "http://www.w3.org/TR/2001/REC-SVG-20010904/DTD/svg10.dtd">
<svg version="1.0" xmlns="http://www.w3.org/2000/svg"
 width="101.000000pt" height="101.000000pt" viewBox="0 0 101.000000 101.000000"
 preserveAspectRatio="xMidYMid meet">
<metadata>
Created by potrace 1.16, written by Peter Selinger 2001-2019
</metadata>
<g transform="translate(0.000000,101.000000) scale(0.100000,-0.100000)"
fill="#000000" stroke="none">
<path d="M183 882 l2 -128 -44 8 c-75 14 -97 -4 -85 -68 4 -23 11 -33 23 -32
9 1 35 0 59 0 41 -2 42 -3 42 -37 0 -19 5 -35 10 -35 15 0 12 -67 -2 -73 -10
-4 -10 -7 0 -15 9 -6 12 -27 10 -62 l-3 -54 -71 -25 c-39 -14 -72 -30 -73 -36
-2 -16 33 -95 42 -95 5 0 22 9 38 21 16 11 82 46 147 76 64 31 121 61 125 67
15 21 -5 -59 -26 -99 -32 -63 -57 -93 -114 -132 l-54 -37 28 -14 c15 -8 39
-24 52 -36 l23 -21 53 58 c73 80 145 224 137 273 -2 7 8 12 20 13 13 0 55 3
93 6 39 3 93 3 120 0 l51 -6 1 -41 c1 -22 5 -43 8 -46 7 -7 85 -5 92 2 3 2 4
20 3 38 -2 35 -1 323 2 348 4 44 3 45 -111 45 l-110 0 2 40 2 40 148 -2 147
-1 6 24 c3 13 3 35 0 48 l-6 24 -148 -2 -148 -1 6 43 c5 27 3 42 -4 43 -6 1
-31 2 -57 2 -41 2 -45 0 -47 -22 -1 -13 3 -30 9 -37 7 -8 8 -45 3 -107 l-7
-95 -86 5 c-47 3 -93 9 -102 14 -9 5 -27 2 -43 -7 -16 -8 -39 -14 -53 -14 -23
0 -24 2 -18 43 3 23 7 74 9 112 3 39 7 77 11 86 7 20 -5 25 -67 28 l-47 2 2
-129z m232 -320 c-1 -153 -2 -167 -15 -134 -5 12 -7 29 -4 37 9 23 -10 18 -70
-15 l-53 -30 -7 56 c-3 31 -2 61 3 68 5 6 8 35 8 64 l-2 52 50 1 c28 1 55 1
62 0 6 -1 14 8 18 19 3 11 7 20 8 20 1 0 2 -62 2 -138z m346 98 c22 0 27 -5
28 -27 3 -57 0 -157 -5 -163 -5 -4 -193 -4 -250 1 -18 1 -22 10 -28 61 -3 33
-2 68 4 78 5 10 7 25 4 33 -4 12 3 14 39 10 25 -3 53 0 63 6 11 7 40 9 69 6
28 -2 62 -5 76 -5z"/>
</g>
</svg>
