<?xml version="1.0" standalone="no"?>
<!DOCTYPE svg PUBLIC "-//W3C//DTD SVG 20010904//EN"
 "http://www.w3.org/TR/2001/REC-SVG-20010904/DTD/svg10.dtd">
<svg version="1.0" xmlns="http://www.w3.org/2000/svg"
 width="101.000000pt" height="101.000000pt" viewBox="0 0 101.000000 101.000000"
 preserveAspectRatio="xMidYMid meet">
<metadata>
Created by potrace 1.16, written by Peter Selinger 2001-2019
</metadata>
<g transform="translate(0.000000,101.000000) scale(0.100000,-0.100000)"
fill="#000000" stroke="none">
<path d="M739 986 c-4 -4 -64 -15 -119 -22 -19 -2 -53 -6 -75 -8 -22 -3 -61
-5 -87 -5 -25 0 -49 -4 -52 -9 -3 -5 -65 -7 -138 -5 -73 2 -139 -1 -146 -5
-10 -7 -9 -18 7 -54 l19 -46 74 3 c112 4 191 10 208 15 10 4 16 -6 20 -36 l6
-42 -139 -7 c-87 -5 -142 -4 -146 2 -3 6 -30 13 -58 16 -40 5 -56 2 -68 -9
-17 -17 -17 -20 -9 -62 l6 -31 102 2 101 2 -2 -55 c-2 -61 3 -59 -99 -46 -47
6 -55 -5 -46 -62 4 -30 5 -31 46 -26 93 12 101 11 104 -16 10 -97 11 -94 -38
-102 -25 -5 -56 -5 -70 -2 -83 23 -102 12 -92 -54 4 -30 5 -31 46 -26 82 11
133 13 247 7 110 -5 117 -7 117 -27 1 -11 2 -32 4 -45 3 -21 -2 -26 -35 -34
-25 -6 -47 -6 -61 1 -12 5 -49 8 -81 6 -32 -1 -66 1 -75 6 -23 12 -57 2 -63
-19 -2 -9 -2 -31 0 -48 5 -30 7 -31 42 -26 20 3 79 5 131 5 52 -1 124 -1 160
-1 216 1 347 -1 366 -5 18 -5 22 -1 26 26 9 55 0 69 -37 62 -18 -3 -42 -1 -53
5 -14 8 -29 8 -47 1 -27 -10 -115 -14 -170 -8 -25 3 -30 7 -27 28 2 14 3 35 4
46 0 15 7 22 22 24 48 5 301 2 336 -4 36 -6 38 -5 42 26 9 58 0 71 -41 62 -35
-8 -65 -8 -126 -2 -28 3 -30 6 -27 38 1 19 3 45 3 56 1 23 8 25 105 25 48 0
52 2 57 25 8 44 -3 67 -27 58 -11 -4 -37 -6 -56 -6 -79 3 -75 0 -75 56 l0 51
95 0 c53 0 98 4 102 10 4 5 8 24 8 42 0 37 -24 55 -55 43 -11 -5 -64 -6 -117
-2 -71 3 -98 2 -98 -6 0 -8 -25 -12 -73 -12 l-73 0 0 50 c1 27 6 50 11 51 67
6 121 9 173 8 108 -1 120 11 80 82 -15 26 -29 39 -43 39 -12 0 -24 -2 -26 -4z
m-289 -346 c0 -65 0 -65 -35 -62 -16 1 -39 3 -51 3 -17 1 -20 8 -20 48 l1 46
45 6 c25 3 48 7 53 7 4 1 7 -20 7 -48z m213 -5 c5 -57 -4 -68 -48 -60 -16 3
-39 6 -51 7 -18 0 -20 6 -20 52 l1 51 56 0 57 0 5 -50z m-206 -155 c1 -14 5
-37 9 -53 9 -39 -11 -60 -50 -52 -17 3 -42 7 -56 8 -22 2 -25 6 -22 37 1 19 3
45 3 58 1 16 6 21 18 18 9 -3 23 -1 31 4 8 6 26 9 40 8 19 -2 25 -9 27 -28z
m199 22 c5 -4 11 -16 12 -27 1 -11 4 -34 8 -52 5 -28 3 -34 -19 -44 -16 -7
-36 -8 -54 -3 -15 4 -37 8 -48 8 -17 1 -20 7 -17 36 1 19 3 45 3 58 1 16 6 21
18 18 9 -3 23 -1 31 4 18 11 51 13 66 2z"/>
</g>
</svg>
