<?xml version="1.0" standalone="no"?>
<!DOCTYPE svg PUBLIC "-//W3C//DTD SVG 20010904//EN"
 "http://www.w3.org/TR/2001/REC-SVG-20010904/DTD/svg10.dtd">
<svg version="1.0" xmlns="http://www.w3.org/2000/svg"
 width="101.000000pt" height="102.000000pt" viewBox="0 0 101.000000 102.000000"
 preserveAspectRatio="xMidYMid meet">
<metadata>
Created by potrace 1.16, written by Peter Selinger 2001-2019
</metadata>
<g transform="translate(0.000000,102.000000) scale(0.100000,-0.100000)"
fill="#000000" stroke="none">
<path d="M614 1009 c-3 -6 -15 -9 -25 -6 -28 8 -30 -5 -9 -62 11 -28 20 -55
20 -59 0 -4 -22 -5 -50 -4 -32 3 -50 0 -50 -7 0 -6 -11 -11 -25 -11 -14 0 -25
5 -25 10 0 6 -25 10 -55 10 -50 0 -55 -2 -61 -25 -17 -67 12 -87 113 -81 34 2
54 -1 57 -9 9 -24 -59 -129 -97 -150 -41 -22 -43 -30 -22 -81 13 -31 19 -35
37 -30 37 10 148 15 148 6 0 -19 -132 -115 -214 -155 l-88 -43 29 -16 c16 -8
35 -22 42 -30 21 -25 41 -19 116 31 88 59 199 171 269 271 30 43 64 86 75 96
12 11 21 23 21 28 0 5 -24 20 -52 33 l-53 25 -36 -73 -37 -72 -61 3 -61 4 40
56 c71 100 85 112 129 112 22 0 43 5 46 10 8 13 52 13 61 -1 4 -6 19 -9 36 -5
16 3 39 1 50 -5 34 -18 65 -3 72 35 12 63 9 65 -139 63 -73 -1 -129 1 -124 4
12 7 6 63 -10 107 -10 23 -19 32 -36 32 -13 0 -27 -5 -31 -11z"/>
<path d="M159 1003 c-12 -3 -16 -18 -17 -63 0 -33 4 -62 9 -65 10 -7 12 -58 3
-101 -5 -28 -7 -29 -62 -26 l-57 3 0 -50 0 -50 55 2 55 2 2 -136 3 -135 -56
-18 c-30 -10 -58 -24 -60 -31 -7 -16 13 -82 27 -90 5 -4 53 19 107 49 55 31
120 64 145 75 44 19 53 30 47 56 -2 10 -6 40 -9 63 -1 9 -19 1 -50 -22 -27
-20 -50 -36 -52 -36 -2 0 -4 51 -4 113 l0 113 57 -3 c54 -3 58 -1 64 21 3 13
4 35 2 47 -3 22 -8 24 -63 24 l-60 0 2 90 c1 49 5 104 8 121 5 26 2 32 -20 42
-26 12 -46 13 -76 5z"/>
<path d="M786 553 c-32 -67 -103 -159 -173 -223 -71 -65 -213 -143 -285 -156
-21 -3 -38 -7 -38 -9 0 -1 19 -22 43 -45 l42 -43 100 51 c55 28 128 74 163
102 52 42 66 49 82 40 16 -8 50 -45 146 -159 4 -4 93 62 93 69 0 4 -135 118
-181 152 -15 12 -12 20 37 86 30 40 64 81 77 91 l22 19 -49 31 c-27 17 -52 31
-55 31 -4 0 -14 -17 -24 -37z"/>
</g>
</svg>
