<?xml version="1.0" standalone="no"?>
<!DOCTYPE svg PUBLIC "-//W3C//DTD SVG 20010904//EN"
 "http://www.w3.org/TR/2001/REC-SVG-20010904/DTD/svg10.dtd">
<svg version="1.0" xmlns="http://www.w3.org/2000/svg"
 width="101.000000pt" height="101.000000pt" viewBox="0 0 101.000000 101.000000"
 preserveAspectRatio="xMidYMid meet">
<metadata>
Created by potrace 1.16, written by Peter Selinger 2001-2019
</metadata>
<g transform="translate(0.000000,101.000000) scale(0.100000,-0.100000)"
fill="#000000" stroke="none">
<path d="M820 1004 c-12 -4 -14 -18 -12 -64 3 -39 0 -60 -7 -60 -6 0 -11 -18
-11 -40 0 -22 5 -40 10 -40 6 0 10 -33 10 -80 0 -51 -4 -80 -11 -80 -7 0 -10
-18 -7 -50 3 -54 -6 -64 -57 -59 -52 5 -57 1 -40 -31 8 -16 15 -33 14 -37 -6
-37 23 -46 92 -28 87 23 92 33 85 152 -5 67 -4 103 3 108 7 4 11 50 11 118 -1
62 1 126 4 143 4 26 1 33 -20 43 -25 11 -37 12 -64 5z"/>
<path d="M98 959 c-23 -13 -23 -62 -1 -84 13 -13 29 -16 70 -13 l54 5 -3 -61
-3 -61 -81 4 -82 3 -7 -31 c-12 -56 -2 -67 67 -69 37 -1 65 -7 69 -14 14 -22
-27 -71 -85 -107 l-57 -34 37 -38 37 -38 45 32 c51 36 108 116 118 164 6 30 9
31 58 35 l51 3 0 -82 c-1 -86 1 -88 45 -85 12 1 16 -10 18 -43 1 -42 0 -44
-31 -50 -32 -5 -120 -2 -208 9 -40 5 -47 3 -52 -13 -13 -52 22 -93 62 -72 19
10 142 13 192 5 29 -4 37 -10 37 -27 0 -12 3 -32 7 -44 10 -32 -27 -44 -112
-38 -61 5 -189 13 -251 16 -13 1 -25 -1 -27 -3 -6 -6 -9 -36 -7 -70 2 -25 5
-26 40 -21 20 3 80 5 132 5 52 -1 124 -1 160 -1 147 0 273 -1 407 -4 l141 -2
5 29 c9 60 0 69 -60 62 -30 -3 -62 -2 -73 4 -13 7 -30 5 -59 -5 -26 -9 -64
-12 -103 -10 -115 8 -113 8 -110 35 2 14 3 35 4 46 0 24 -3 24 138 27 52 1
107 -2 121 -6 24 -8 27 -6 31 24 8 55 0 72 -31 62 -14 -4 -69 -7 -121 -6 -153
4 -141 0 -134 43 5 31 3 40 -13 48 -10 6 -28 10 -38 9 -16 -2 -19 3 -17 23 4
37 4 51 0 95 l-3 40 57 -1 c63 -2 75 10 62 60 -7 30 -38 41 -87 33 l-32 -5 0
69 c0 68 8 82 32 58 16 -16 60 -3 68 20 3 11 3 30 0 44 -5 20 -15 26 -52 31
-25 3 -49 3 -55 0 -12 -8 -267 -8 -315 0 -21 3 -46 1 -55 -5z m289 -147 l2
-67 -47 0 -47 0 3 62 4 62 41 4 c23 2 42 4 42 5 0 1 1 -28 2 -66z"/>
<path d="M640 923 c-8 -3 -18 -11 -22 -17 -12 -17 -9 -104 3 -112 8 -4 9 -42
5 -119 -6 -105 -5 -113 13 -118 10 -2 30 -2 44 0 21 4 26 12 31 51 3 26 2 50
-4 56 -13 13 -13 53 0 61 14 9 10 188 -4 197 -13 9 -44 9 -66 1z"/>
</g>
</svg>
