<?xml version="1.0" standalone="no"?>
<!DOCTYPE svg PUBLIC "-//W3C//DTD SVG 20010904//EN"
 "http://www.w3.org/TR/2001/REC-SVG-20010904/DTD/svg10.dtd">
<svg version="1.0" xmlns="http://www.w3.org/2000/svg"
 width="101.000000pt" height="102.000000pt" viewBox="0 0 101.000000 102.000000"
 preserveAspectRatio="xMidYMid meet">
<metadata>
Created by potrace 1.16, written by Peter Selinger 2001-2019
</metadata>
<g transform="translate(0.000000,102.000000) scale(0.100000,-0.100000)"
fill="#000000" stroke="none">
<path d="M583 981 c-33 -57 -128 -156 -163 -171 -28 -12 -30 -15 -24 -49 11
-59 19 -68 63 -67 l39 1 -21 -39 c-12 -22 -46 -64 -75 -94 -29 -30 -51 -55
-50 -56 2 0 20 -10 42 -21 l39 -20 28 34 c27 32 32 35 93 35 63 1 64 1 58 -24
-3 -14 -6 -36 -6 -50 -1 -23 -5 -25 -41 -23 -22 1 -62 5 -90 9 -42 5 -63 1
-129 -25 -43 -18 -81 -29 -84 -27 -2 3 -7 48 -10 101 -3 67 -1 95 7 95 6 0 11
11 11 25 0 22 4 25 38 26 20 1 47 0 59 -1 25 -2 39 34 29 74 -5 22 -10 24 -69
22 l-64 -2 4 95 c2 53 5 107 6 121 2 23 -1 25 -30 22 -19 -2 -33 1 -33 7 0 6
-9 11 -20 11 -24 0 -37 -57 -21 -88 12 -23 14 -77 5 -132 l-6 -35 -69 2 c-65
1 -69 0 -75 -23 -3 -13 -3 -36 0 -50 7 -25 8 -25 74 -20 l67 5 -3 -59 c-1 -33
2 -61 8 -65 14 -9 13 -138 -2 -158 -7 -9 -26 -19 -43 -22 -16 -3 -43 -8 -60
-11 -16 -3 -31 -7 -33 -9 -6 -5 29 -95 39 -101 5 -2 30 6 56 19 26 13 89 39
138 57 50 18 95 38 100 45 6 7 18 9 30 5 11 -4 23 -6 27 -4 12 8 158 14 158 7
0 -3 -11 -21 -24 -38 -32 -41 -104 -87 -183 -115 l-62 -22 37 -44 c42 -49 48
-49 132 2 53 32 131 105 162 152 l16 23 26 -45 c31 -53 104 -120 168 -152 26
-13 51 -24 55 -24 8 1 63 82 63 94 0 3 -7 6 -15 6 -8 0 -38 9 -68 20 -61 23
-123 72 -151 121 -17 29 -18 32 -2 26 10 -4 26 -2 37 4 14 7 42 7 96 -1 62
-10 77 -9 85 2 11 17 2 70 -15 80 -17 11 -111 10 -123 -2 -5 -5 -32 -7 -59 -4
l-50 6 0 43 0 43 88 7 c80 7 88 9 93 30 13 54 6 59 -94 63 -62 3 -92 0 -92 -7
0 -7 -27 -11 -75 -11 -41 0 -75 3 -75 8 0 4 14 19 32 34 l33 27 -24 9 c-22 8
-19 10 27 16 29 4 89 8 133 10 77 4 81 3 91 -20 14 -29 18 -29 69 -4 25 13 37
25 33 33 -21 38 -139 187 -148 187 -16 0 -76 -38 -76 -49 0 -5 7 -14 16 -21 8
-8 20 -22 26 -33 10 -19 8 -20 -39 -13 -36 4 -54 2 -68 -9 -23 -17 -81 -20
-91 -4 -3 6 -18 9 -33 6 -25 -5 -25 -4 9 26 119 105 161 147 155 157 -5 8 -78
50 -87 50 -2 0 -13 -18 -25 -39z"/>
</g>
</svg>
