<?xml version="1.0" standalone="no"?>
<!DOCTYPE svg PUBLIC "-//W3C//DTD SVG 20010904//EN"
 "http://www.w3.org/TR/2001/REC-SVG-20010904/DTD/svg10.dtd">
<svg version="1.0" xmlns="http://www.w3.org/2000/svg"
 width="101.000000pt" height="101.000000pt" viewBox="0 0 101.000000 101.000000"
 preserveAspectRatio="xMidYMid meet">
<metadata>
Created by potrace 1.16, written by Peter Selinger 2001-2019
</metadata>
<g transform="translate(0.000000,101.000000) scale(0.100000,-0.100000)"
fill="#000000" stroke="none">
<path d="M165 956 c-4 -19 -2 -43 4 -54 12 -22 13 -102 3 -140 -7 -24 -15 -26
-46 -10 -10 5 -33 7 -51 4 -37 -7 -50 -29 -40 -68 5 -21 10 -23 65 -20 l60 4
0 -80 c0 -43 3 -106 6 -139 l7 -61 -77 -28 c-41 -16 -76 -31 -76 -35 0 -3 14
-24 30 -46 l31 -42 33 22 c18 12 79 45 137 72 57 28 107 55 111 60 10 14 10
67 -1 83 -7 11 -17 9 -49 -12 -23 -14 -44 -26 -47 -26 -3 0 -4 47 -3 105 l3
105 30 0 c17 0 35 4 41 8 16 10 26 49 19 73 -6 17 -13 19 -48 16 l-42 -5 2 96
c2 54 4 106 5 117 3 17 -2 20 -34 17 -23 -2 -38 1 -38 7 0 6 -7 11 -15 11 -8
0 -17 -14 -20 -34z"/>
<path d="M439 964 c-15 -4 -17 -25 -17 -154 l-1 -149 34 -7 c32 -6 94 -2 183
12 26 4 54 1 72 -6 20 -8 54 -10 104 -5 l75 7 0 121 c0 67 2 133 3 146 3 21
-2 26 -37 33 -24 5 -48 5 -61 -1 -35 -16 -172 -25 -188 -12 -7 6 -24 11 -37
11 -13 0 -44 2 -69 4 -25 3 -52 2 -61 0z m355 -153 c3 -36 4 -66 2 -68 -2 -2
-51 -7 -110 -10 -77 -4 -106 -3 -106 5 0 7 -12 12 -27 12 -28 0 -28 1 -28 62
l0 63 131 0 132 1 6 -65z"/>
<path d="M375 570 c-3 -16 -1 -39 5 -51 12 -21 16 -21 115 -15 l103 7 4 -48
c3 -26 3 -50 1 -53 -4 -4 -105 -4 -171 0 -30 2 -35 -4 -35 -40 0 -46 -3 -45
108 -36 75 7 103 -1 103 -27 0 -12 4 -34 7 -49 6 -24 3 -29 -19 -38 -32 -12
-184 -11 -207 1 -23 12 -56 0 -62 -21 -2 -10 -2 -30 0 -44 5 -25 8 -26 52 -20
25 3 89 6 141 6 187 -1 221 -1 273 1 28 1 75 -1 103 -6 50 -7 52 -7 57 19 10
56 5 59 -106 61 -159 2 -162 3 -159 38 1 17 3 40 3 51 1 15 8 22 23 23 76 5
95 5 132 -2 39 -6 42 -5 47 19 11 58 2 65 -82 64 -121 -2 -116 -4 -116 49 l0
46 50 -2 c27 -2 78 0 112 3 67 6 80 18 68 66 l-6 24 -269 1 -269 2 -6 -29z"/>
</g>
</svg>
