<?xml version="1.0" standalone="no"?>
<!DOCTYPE svg PUBLIC "-//W3C//DTD SVG 20010904//EN"
 "http://www.w3.org/TR/2001/REC-SVG-20010904/DTD/svg10.dtd">
<svg version="1.0" xmlns="http://www.w3.org/2000/svg"
 width="101.000000pt" height="101.000000pt" viewBox="0 0 101.000000 101.000000"
 preserveAspectRatio="xMidYMid meet">
<metadata>
Created by potrace 1.16, written by Peter Selinger 2001-2019
</metadata>
<g transform="translate(0.000000,101.000000) scale(0.100000,-0.100000)"
fill="#000000" stroke="none">
<path d="M470 918 c-29 -85 -118 -271 -105 -220 13 46 -1 60 -58 58 l-52 -2 2
87 c1 48 6 97 12 108 6 11 11 22 11 26 0 13 -57 26 -87 20 -32 -6 -45 -29 -22
-37 8 -3 9 -33 4 -103 l-7 -100 -55 4 c-62 3 -73 -5 -73 -55 0 -43 21 -68 51
-61 13 3 35 9 49 12 l25 6 3 -150 2 -149 -54 -13 c-81 -18 -82 -20 -62 -73 10
-25 21 -46 26 -46 4 0 32 11 61 24 30 13 92 36 139 51 47 15 89 31 93 35 12
11 20 90 9 90 -5 0 -35 -9 -67 -20 -32 -11 -59 -20 -60 -20 -2 0 -2 63 -1 140
l1 141 40 -3 c48 -4 52 -19 17 -66 -13 -18 -22 -34 -21 -35 2 -1 23 -12 47
-24 l42 -21 20 36 19 37 1 -35 c1 -19 1 -54 0 -76 -1 -23 3 -45 9 -49 15 -8
14 -68 -1 -83 -8 -8 -8 -15 1 -25 12 -15 10 -188 -3 -218 -9 -20 14 -27 65
-21 36 4 37 4 34 47 -3 38 -1 43 18 45 64 6 338 -1 360 -9 35 -14 54 -5 60 26
10 54 2 60 -86 61 -137 1 -142 2 -139 37 1 17 3 40 3 51 1 24 9 25 110 24 53
0 57 2 62 26 2 14 2 35 -1 46 -4 16 -10 18 -31 13 -27 -7 -64 -8 -116 -3 -27
3 -30 6 -27 33 1 17 3 39 4 50 0 18 8 20 81 22 88 2 99 8 95 58 l-3 30 -88 0
-87 0 2 50 3 50 94 2 c104 3 115 9 106 58 -6 35 -23 47 -47 34 -25 -13 -184
-7 -163 6 52 31 51 31 32 67 -10 18 -26 44 -36 57 -17 22 -21 23 -49 12 -52
-22 -57 -36 -29 -73 13 -18 30 -44 37 -57 l12 -23 -74 7 c-40 4 -76 10 -80 14
-4 4 8 31 27 60 19 29 35 54 35 56 0 4 -89 45 -99 45 -5 0 -23 -41 -41 -92z
m176 -221 l1 -52 -61 0 -61 0 0 50 0 50 60 2 60 2 1 -52z m0 -192 c1 -61 -13
-74 -64 -59 -15 4 -36 8 -47 8 -15 1 -19 7 -17 26 2 14 3 35 4 47 0 22 1 23
103 31 18 2 20 -4 21 -53z m-10 -133 c5 -4 11 -16 11 -27 1 -11 5 -32 8 -47 6
-23 3 -29 -18 -39 -16 -7 -36 -8 -54 -3 -15 4 -37 8 -48 8 -16 1 -19 7 -17 31
1 17 3 40 3 53 1 16 6 21 18 18 9 -3 23 -1 31 4 18 11 51 13 66 2z"/>
</g>
</svg>
