<?xml version="1.0" standalone="no"?>
<!DOCTYPE svg PUBLIC "-//W3C//DTD SVG 20010904//EN"
 "http://www.w3.org/TR/2001/REC-SVG-20010904/DTD/svg10.dtd">
<svg version="1.0" xmlns="http://www.w3.org/2000/svg"
 width="101.000000pt" height="101.000000pt" viewBox="0 0 101.000000 101.000000"
 preserveAspectRatio="xMidYMid meet">
<metadata>
Created by potrace 1.16, written by Peter Selinger 2001-2019
</metadata>
<g transform="translate(0.000000,101.000000) scale(0.100000,-0.100000)"
fill="#000000" stroke="none">
<path d="M180 1004 c-12 -4 -14 -18 -12 -64 3 -43 0 -60 -8 -60 -10 0 -11 -16
-6 -62 l6 -63 -50 3 c-57 4 -80 -8 -80 -45 0 -43 18 -63 56 -63 19 0 44 5 54
10 17 9 18 7 13 -26 -3 -19 0 -52 7 -73 8 -26 9 -54 4 -91 l-9 -54 -59 -23
c-32 -12 -61 -24 -63 -27 -3 -3 3 -27 12 -55 l17 -51 32 25 c18 14 80 47 139
75 l105 50 -10 37 c-5 21 -11 39 -13 41 -2 2 -17 -4 -34 -12 -16 -9 -32 -16
-35 -16 -10 0 -17 81 -8 93 6 7 9 35 9 62 l-2 50 45 -2 c47 -1 60 8 60 44 0
35 -28 56 -69 50 l-36 -4 2 81 c1 44 4 98 7 119 6 48 -20 65 -74 51z"/>
<path d="M366 947 c-15 -11 -17 -22 -12 -58 3 -24 6 -81 6 -126 0 -45 4 -84
10 -88 13 -8 13 -52 1 -60 -6 -3 -10 -31 -10 -63 0 -90 -9 -149 -33 -205 -24
-57 -80 -148 -103 -167 -26 -21 -16 -34 34 -50 l49 -16 40 76 c36 68 80 183
89 235 12 63 14 115 4 115 -6 0 -11 11 -11 25 0 14 5 25 10 25 6 0 10 30 10
70 0 40 -4 70 -10 70 -5 0 -10 11 -10 25 0 14 5 25 10 25 6 0 10 18 10 40 0
39 1 40 34 40 18 0 53 3 77 6 l44 6 0 -46 0 -47 -35 6 c-55 9 -90 -8 -90 -45
0 -16 5 -30 11 -30 8 0 10 -38 4 -139 -7 -138 -7 -138 16 -144 12 -3 31 -1 42
4 10 6 34 8 52 5 37 -7 35 -1 38 -134 2 -92 -4 -102 -60 -97 -37 3 -39 -1 -18
-41 8 -16 15 -36 15 -45 0 -21 32 -18 91 8 l43 19 3 120 c1 65 2 129 3 140 2
23 10 25 96 26 l52 0 6 36 c10 61 7 152 -5 152 -7 0 -9 27 -7 79 l3 79 -50 6
c-27 3 -66 4 -86 3 -31 -2 -35 0 -33 19 6 59 5 59 124 59 120 0 128 4 114 59
-7 30 -42 43 -71 27 -20 -10 -371 -7 -443 4 -22 4 -42 1 -54 -8z m420 -279
c-1 -33 -28 -40 -116 -33 -30 3 -64 5 -75 6 -14 1 -20 9 -21 28 l-1 26 107 0
107 0 -1 -27z m-25 -94 c21 -4 25 -10 26 -39 1 -29 -3 -35 -26 -39 -14 -3 -51
-3 -81 -1 -30 3 -65 5 -76 6 -18 1 -22 7 -21 35 1 26 5 33 16 29 9 -2 23 0 31
5 15 9 84 11 131 4z"/>
<path d="M491 346 c-12 -25 -43 -65 -67 -90 l-44 -46 41 -20 c22 -12 44 -18
49 -15 6 4 29 34 51 68 23 34 53 74 67 89 l25 28 -36 15 c-53 22 -60 20 -86
-29z"/>
<path d="M778 367 c-35 -29 -35 -37 3 -73 17 -16 46 -50 66 -77 l35 -47 39 31
c21 17 39 34 39 38 0 13 -131 151 -143 151 -7 -1 -24 -11 -39 -23z"/>
</g>
</svg>
