<?xml version="1.0" standalone="no"?>
<!DOCTYPE svg PUBLIC "-//W3C//DTD SVG 20010904//EN"
 "http://www.w3.org/TR/2001/REC-SVG-20010904/DTD/svg10.dtd">
<svg version="1.0" xmlns="http://www.w3.org/2000/svg"
 width="101.000000pt" height="101.000000pt" viewBox="0 0 101.000000 101.000000"
 preserveAspectRatio="xMidYMid meet">
<metadata>
Created by potrace 1.16, written by Peter Selinger 2001-2019
</metadata>
<g transform="translate(0.000000,101.000000) scale(0.100000,-0.100000)"
fill="#000000" stroke="none">
<path d="M160 1004 c-12 -4 -14 -18 -12 -64 3 -43 0 -60 -8 -60 -10 0 -11 -17
-6 -66 l7 -66 -38 6 c-49 8 -58 0 -59 -51 l-1 -41 46 1 46 2 0 -142 0 -143
-53 -12 c-58 -13 -60 -17 -29 -89 l12 -28 65 28 c36 16 96 38 132 51 l66 22
-1 44 c-2 48 -8 51 -60 29 l-35 -14 -7 66 c-5 46 -4 68 4 71 6 2 11 28 11 61
l0 57 37 -3 c41 -3 53 8 53 50 0 30 -28 47 -77 47 l-25 0 6 93 c4 50 9 104 12
118 4 21 0 28 -18 33 -25 6 -44 6 -68 0z"/>
<path d="M400 982 c-19 -8 -25 -99 -9 -119 8 -8 8 -40 3 -95 -4 -46 -7 -86 -6
-89 1 -4 -12 -9 -28 -13 -28 -5 -29 -7 -24 -48 8 -61 8 -97 -1 -140 l-8 -38
44 6 c24 3 87 6 139 6 186 -1 221 -1 273 1 28 1 69 -1 90 -5 l38 -7 -6 43 c-4
24 -3 46 2 49 6 4 11 28 12 56 2 56 -15 81 -55 81 -24 0 -24 1 -9 17 12 12 15
25 10 47 -8 41 -9 158 0 185 3 11 3 30 0 41 -6 19 -14 21 -108 19 -56 0 -156
1 -222 4 -66 3 -127 3 -135 -1z m370 -98 c0 -17 -156 -30 -175 -14 -8 7 -35
11 -65 8 -29 -2 -50 1 -50 7 0 6 55 10 145 10 106 1 145 -2 145 -11z m-150
-85 c0 -7 26 -9 74 -7 61 2 74 0 73 -12 -1 -12 -13 -14 -53 -13 -29 2 -56 -2
-59 -7 -8 -13 -48 -13 -62 1 -6 6 -33 9 -60 8 -35 -3 -50 0 -50 9 0 8 16 12
44 12 24 0 43 5 43 10 0 6 11 10 25 10 14 0 25 -5 25 -11z m180 -125 c72 -20
4 -28 -207 -24 -42 0 -114 5 -163 10 -8 0 1 6 20 13 42 14 298 15 350 1z m15
-119 c0 -37 -2 -40 -25 -37 -14 2 -35 3 -46 4 -18 0 -22 6 -21 34 1 26 5 33
16 29 9 -2 23 0 31 5 29 19 45 7 45 -35z m-308 0 c1 -34 1 -34 -42 -33 -41 2
-43 4 -42 33 1 29 3 31 42 33 40 1 41 1 42 -33z m140 0 c1 -33 0 -34 -37 -32
-36 1 -38 3 -37 32 1 28 4 31 37 32 34 2 36 0 37 -32z"/>
<path d="M369 423 c-32 -8 -32 -82 0 -85 9 0 21 -2 27 -2 14 -2 129 -104 123
-110 -9 -9 -101 -24 -187 -30 -30 -2 -56 -6 -58 -9 -3 -2 8 -23 23 -46 26 -40
29 -42 68 -37 41 5 148 34 221 59 23 9 47 11 55 7 35 -20 159 -55 230 -66 35
-5 37 -4 60 44 l24 49 -25 1 c-14 0 -41 3 -60 6 -63 10 -115 17 -132 17 -29 0
-29 16 -1 41 34 28 133 139 133 149 0 7 -138 10 -360 6 -52 0 -102 2 -110 5
-8 3 -22 4 -31 1z m315 -83 c19 0 19 0 0 -21 -10 -12 -31 -30 -45 -40 l-27
-19 -43 41 c-29 26 -37 38 -24 35 11 -3 27 -1 35 5 8 5 31 7 50 4 19 -2 44 -5
54 -5z"/>
</g>
</svg>
