<?xml version="1.0" standalone="no"?>
<!DOCTYPE svg PUBLIC "-//W3C//DTD SVG 20010904//EN"
 "http://www.w3.org/TR/2001/REC-SVG-20010904/DTD/svg10.dtd">
<svg version="1.0" xmlns="http://www.w3.org/2000/svg"
 width="101.000000pt" height="101.000000pt" viewBox="0 0 101.000000 101.000000"
 preserveAspectRatio="xMidYMid meet">
<metadata>
Created by potrace 1.16, written by Peter Selinger 2001-2019
</metadata>
<g transform="translate(0.000000,101.000000) scale(0.100000,-0.100000)"
fill="#000000" stroke="none">
<path d="M128 1003 c16 -6 17 -113 1 -113 -8 0 -10 -19 -5 -63 l6 -62 -32 1
c-18 1 -37 3 -43 4 -35 8 -49 -15 -39 -66 4 -23 11 -33 23 -32 9 1 31 0 49 0
l32 -2 0 -55 c0 -30 5 -55 10 -55 6 0 10 -16 10 -35 0 -19 -5 -35 -11 -35 -6
0 -9 -18 -8 -47 3 -42 1 -46 -21 -50 -14 -3 -32 -6 -40 -8 -8 -2 -21 -4 -29
-4 -14 -1 -12 -32 8 -82 l10 -26 108 43 c134 53 163 61 163 43 0 -25 -57 -135
-89 -171 l-31 -36 47 -26 c36 -21 48 -24 55 -14 48 72 92 172 104 238 3 14 7
39 10 55 4 17 8 86 9 155 2 69 6 140 10 158 7 29 11 32 45 32 21 0 40 5 42 11
2 7 20 8 51 4 44 -7 47 -9 47 -37 0 -25 -3 -29 -17 -23 -42 17 -97 29 -125 27
-13 -2 -44 -59 -35 -68 1 -2 18 -6 37 -9 19 -4 42 -8 50 -10 8 -2 23 -4 33 -4
35 -2 6 -19 -62 -36 l-69 -18 16 -36 c9 -20 18 -38 19 -40 2 -2 14 1 27 7 23
10 24 10 16 -17 -9 -34 -36 -87 -62 -124 -11 -16 -18 -30 -16 -33 3 -2 23 -7
45 -10 37 -5 41 -3 52 24 8 20 20 30 34 30 12 1 33 2 46 4 22 3 25 -1 28 -38
l3 -42 -45 -6 c-26 -4 -53 -3 -65 4 -11 6 -25 8 -30 5 -5 -3 -18 -1 -28 4 -43
23 -75 -8 -65 -62 4 -23 9 -25 41 -20 71 9 137 12 163 7 29 -6 30 -11 30 -101
1 -57 9 -64 68 -55 25 3 31 8 25 21 -7 14 -8 32 -3 109 1 16 6 22 16 18 8 -3
23 -1 34 5 14 7 41 7 91 -1 39 -6 73 -9 75 -6 11 10 6 78 -5 85 -7 4 -39 1
-70 -7 -43 -11 -64 -12 -85 -4 -16 6 -35 8 -42 6 -11 -4 -14 4 -12 34 1 32 5
40 22 41 55 5 103 4 131 -2 28 -5 32 -3 37 19 9 48 -1 64 -37 57 -28 -6 -75
-7 -132 -2 -16 1 -20 8 -19 28 1 15 5 32 8 39 4 6 -1 15 -10 21 -27 16 46 4
112 -19 l54 -19 22 35 c12 19 20 36 18 38 -2 2 -44 13 -94 25 -85 21 -90 21
-102 5 -7 -10 -13 -23 -13 -28 0 -6 -7 -2 -15 8 -10 13 -15 44 -15 90 l0 71
90 1 c50 0 90 -2 90 -4 0 -6 -70 -32 -98 -36 -33 -5 -62 -16 -62 -25 0 -3 9
-17 19 -30 16 -21 22 -22 62 -15 24 4 50 7 58 5 19 -3 71 19 71 31 0 6 -9 23
-21 39 -11 16 -17 29 -12 29 4 0 9 54 11 120 l2 120 -147 -1 c-82 0 -208 1
-281 3 -107 2 -134 0 -142 -11 -11 -19 -11 -99 1 -106 12 -8 10 -167 -3 -183
-7 -8 -8 -50 -4 -122 6 -94 5 -109 -8 -104 -8 3 -32 -4 -55 -15 -22 -12 -42
-21 -45 -21 -2 0 -4 55 -3 123 l2 123 46 -2 c46 -3 47 -2 53 30 11 55 1 66
-54 62 l-48 -3 -6 36 c-9 54 -7 99 4 106 5 3 9 21 8 39 -1 18 2 38 5 43 10 15
-17 23 -71 22 -26 0 -41 -3 -34 -6z m589 -94 c6 -6 31 -10 55 -8 l44 4 -1 -37
0 -36 -78 -7 c-52 -5 -82 -3 -91 4 -8 7 -51 10 -117 9 l-104 -3 0 35 -1 35
112 -3 c71 -2 115 1 119 8 8 13 48 13 62 -1z m-79 -327 l-2 -119 -28 0 c-32 0
-34 4 -12 29 18 19 21 17 -40 35 l-29 9 41 13 c44 15 57 38 42 77 -10 26 3 74
20 74 6 0 9 -44 8 -118z m-312 -199 c-3 -4 -6 2 -5 13 0 11 3 14 6 6 3 -7 2
-16 -1 -19z"/>
</g>
</svg>
