<?xml version="1.0" standalone="no"?>
<!DOCTYPE svg PUBLIC "-//W3C//DTD SVG 20010904//EN"
 "http://www.w3.org/TR/2001/REC-SVG-20010904/DTD/svg10.dtd">
<svg version="1.0" xmlns="http://www.w3.org/2000/svg"
 width="101.000000pt" height="101.000000pt" viewBox="0 0 101.000000 101.000000"
 preserveAspectRatio="xMidYMid meet">
<metadata>
Created by potrace 1.16, written by Peter Selinger 2001-2019
</metadata>
<g transform="translate(0.000000,101.000000) scale(0.100000,-0.100000)"
fill="#000000" stroke="none">
<path d="M136 964 c-4 -14 -3 -79 0 -145 l7 -119 151 4 c151 5 151 5 151 -17
0 -22 -1 -22 -152 -20 l-151 2 -6 -25 c-11 -41 9 -64 54 -64 22 0 40 5 40 10
0 15 67 12 73 -2 4 -10 7 -10 15 0 6 9 28 12 67 10 55 -3 58 -4 59 -30 2 -26
1 -27 -79 -32 -81 -6 -147 -3 -220 9 -50 9 -85 9 -92 1 -9 -8 -8 -64 1 -73 3
-4 22 -7 41 -6 l35 1 -19 -26 c-10 -15 -28 -36 -40 -46 -12 -11 -21 -22 -21
-26 0 -7 71 -44 81 -42 3 0 6 -12 6 -29 0 -45 -4 -44 123 -34 36 3 92 3 126 0
59 -6 61 -7 61 -35 0 -44 -27 -46 -282 -25 -92 7 -106 8 -112 1 -8 -8 -8 -64
0 -72 8 -8 43 -8 97 1 25 4 88 7 140 7 52 -1 124 -1 160 -1 287 -1 405 -4 435
-14 29 -10 48 7 48 42 0 17 -2 33 -4 36 -10 9 -86 7 -140 -4 -32 -6 -93 -9
-140 -6 -46 3 -93 6 -105 6 -16 1 -21 8 -21 29 0 33 -6 32 189 32 136 -1 146
1 151 19 8 29 -3 59 -22 60 -9 0 -1 7 17 15 l33 14 -18 31 c-10 17 -28 39 -40
51 -19 18 -26 19 -57 8 -20 -6 -36 -13 -36 -15 0 -3 14 -25 32 -50 45 -63 34
-71 -95 -68 -56 1 -111 3 -123 4 -22 1 -28 25 -12 46 12 15 -3 23 -56 28 -36
4 -45 1 -49 -14 -2 -10 0 -26 5 -35 6 -10 7 -21 3 -24 -8 -8 -167 -6 -215 3
-19 3 -45 6 -57 7 -27 0 -21 15 30 71 34 36 34 38 15 51 -19 14 -19 14 4 15
23 2 166 2 283 2 33 -1 98 1 145 4 47 2 110 -1 140 -6 30 -6 64 -11 75 -10 11
1 32 2 47 3 28 1 40 23 31 57 -6 23 -48 33 -82 19 -22 -9 -256 -14 -316 -8
-13 2 -20 10 -21 24 -1 19 4 21 50 23 48 2 117 4 169 4 100 1 107 2 112 20 14
44 -1 56 -75 57 -40 1 -70 -3 -70 -8 0 -6 -16 -10 -35 -10 -19 0 -35 4 -35 10
0 5 -26 10 -57 12 -31 2 -58 8 -60 14 -4 13 266 28 306 17 23 -6 24 -4 17 28
-14 72 -19 149 -8 161 5 7 10 31 10 53 l1 40 -79 3 c-46 1 -81 -2 -85 -8 -8
-13 -52 -13 -60 0 -8 13 -142 13 -150 1 -7 -12 -172 -13 -179 -2 -3 5 -39 9
-80 9 -71 0 -75 -1 -80 -24z m294 -44 c12 0 15 -14 15 -70 0 -68 -1 -70 -25
-70 -14 0 -32 5 -40 10 -13 8 -12 10 3 10 22 0 22 4 -5 51 -22 40 -42 54 -61
42 -7 -4 -18 -8 -25 -9 -23 -4 -24 -11 -7 -37 8 -13 17 -34 20 -45 3 -19 -1
-21 -38 -19 l-42 2 0 62 0 63 43 0 c25 0 42 5 42 11 0 8 16 10 53 5 28 -3 59
-6 67 -6z m325 -70 l1 -65 -48 3 c-52 4 -52 5 -12 58 l23 32 -27 7 c-66 18
-71 16 -97 -35 l-25 -49 30 -6 c45 -10 26 -25 -31 -25 l-49 0 2 73 3 72 115 0
115 0 0 -65z"/>
<path d="M320 458 c-17 -6 -20 -13 -14 -30 4 -13 8 -32 10 -43 1 -11 3 -23 3
-26 1 -6 21 -5 69 6 27 6 31 11 26 29 -22 70 -41 84 -94 64z"/>
<path d="M553 463 c-28 -5 -28 -13 -3 -63 22 -43 30 -46 79 -29 36 13 38 22
11 67 -20 32 -32 36 -87 25z"/>
</g>
</svg>
