<?xml version="1.0" standalone="no"?>
<!DOCTYPE svg PUBLIC "-//W3C//DTD SVG 20010904//EN"
 "http://www.w3.org/TR/2001/REC-SVG-20010904/DTD/svg10.dtd">
<svg version="1.0" xmlns="http://www.w3.org/2000/svg"
 width="101.000000pt" height="101.000000pt" viewBox="0 0 101.000000 101.000000"
 preserveAspectRatio="xMidYMid meet">
<metadata>
Created by potrace 1.16, written by Peter Selinger 2001-2019
</metadata>
<g transform="translate(0.000000,101.000000) scale(0.100000,-0.100000)"
fill="#000000" stroke="none">
<path d="M660 1003 c-8 -2 -21 -6 -28 -9 -10 -3 -10 -8 -1 -25 6 -12 15 -35
19 -50 l8 -29 -72 6 c-60 6 -75 4 -89 -10 -32 -33 -18 -72 29 -82 21 -4 36 -1
47 10 16 17 105 22 165 10 l31 -6 -23 -62 -23 -61 -51 -8 c-30 -5 -58 -5 -68
1 -14 8 -11 11 20 22 41 13 40 10 24 62 -11 38 -13 39 -47 33 -49 -9 -51 -14
-38 -62 12 -47 7 -60 -19 -45 -37 21 -69 -11 -57 -57 6 -23 40 -34 65 -20 11
6 37 8 58 4 32 -5 38 -10 36 -30 -1 -20 -8 -25 -38 -30 -20 -4 -45 -2 -56 4
-41 22 -78 -11 -65 -59 5 -18 11 -20 57 -15 104 12 101 13 104 -20 2 -16 4
-44 4 -62 2 -35 18 -44 62 -36 20 4 26 12 28 32 2 39 2 44 -6 67 -7 23 -10 22
74 26 19 1 51 -2 71 -6 32 -7 37 -5 42 13 3 12 3 30 0 41 -5 19 -13 21 -77 20
-105 -2 -111 -1 -112 25 -2 26 -1 26 124 27 87 1 88 2 83 53 -2 29 -23 36 -50
19 -18 -13 -29 -14 -47 -5 -13 6 -32 7 -41 4 -11 -4 -4 11 20 40 37 46 41 67
11 67 -8 0 -12 4 -9 10 4 6 12 6 24 -2 41 -25 91 14 76 61 -7 22 -77 40 -83
22 -5 -14 -52 -15 -52 -1 0 6 -10 10 -23 10 -13 0 -24 6 -24 13 0 6 -6 31 -12
55 -12 43 -27 50 -71 35z"/>
<path d="M426 953 c-3 -4 -31 -5 -61 -4 -33 1 -55 -2 -55 -8 0 -6 -16 -11 -35
-11 -19 0 -35 5 -35 10 0 6 -28 10 -64 10 -47 0 -65 -4 -70 -15 -3 -8 -1 -53
5 -101 7 -58 7 -94 1 -112 -6 -15 -10 -41 -11 -59 0 -32 -31 -104 -59 -136 -8
-9 -13 -18 -11 -20 9 -6 80 -37 85 -37 3 0 16 25 29 55 14 30 26 55 28 55 7 0
5 -84 -3 -106 -17 -43 -4 -55 54 -48 104 12 142 12 189 1 26 -6 47 -13 48 -16
1 -3 2 -20 4 -38 3 -31 2 -32 -49 -38 -28 -3 -82 -3 -121 0 -133 10 -128 11
-128 -35 0 -46 -5 -45 128 -35 39 3 93 3 121 0 48 -6 51 -8 51 -34 l0 -28
-121 -6 c-67 -3 -143 -4 -171 -2 -111 10 -108 11 -108 -35 0 -36 5 -42 35 -41
23 2 170 2 283 2 33 -1 102 1 154 4 56 2 102 0 114 -6 13 -7 64 -9 152 -4 119
7 134 9 138 26 3 11 3 28 0 39 -5 19 -13 20 -177 19 -221 -1 -213 -3 -213 31
0 33 -6 31 169 33 125 1 126 1 131 25 3 13 3 32 0 42 -4 15 -10 16 -45 8 -22
-4 -79 -6 -127 -3 -47 3 -96 6 -107 6 -22 1 -24 14 -13 58 4 15 -53 33 -76 25
-27 -11 -37 93 -22 206 l5 35 -117 2 c-165 2 -158 1 -153 32 3 25 5 26 69 24
35 -1 67 -4 71 -7 8 -9 95 -7 108 2 7 4 11 43 12 97 0 50 1 95 2 100 6 28 -18
54 -34 38z m-60 -119 l0 -32 -80 1 -81 2 -1 30 0 30 80 1 81 0 1 -32z m-1
-242 c6 -4 11 -26 13 -49 2 -38 0 -43 -24 -49 -14 -4 -36 -2 -50 4 -13 7 -30
9 -39 6 -12 -5 -14 3 -13 40 2 36 6 45 18 41 8 -2 22 0 30 5 18 11 51 13 65 2z"/>
</g>
</svg>
