<?xml version="1.0" standalone="no"?>
<!DOCTYPE svg PUBLIC "-//W3C//DTD SVG 20010904//EN"
 "http://www.w3.org/TR/2001/REC-SVG-20010904/DTD/svg10.dtd">
<svg version="1.0" xmlns="http://www.w3.org/2000/svg"
 width="101.000000pt" height="101.000000pt" viewBox="0 0 101.000000 101.000000"
 preserveAspectRatio="xMidYMid meet">
<metadata>
Created by potrace 1.16, written by Peter Selinger 2001-2019
</metadata>
<g transform="translate(0.000000,101.000000) scale(0.100000,-0.100000)"
fill="#000000" stroke="none">
<path d="M606 974 c-4 -14 -4 -30 0 -36 4 -6 8 -60 8 -119 l1 -108 -29 -5
c-44 -9 -94 -7 -101 4 -7 11 -95 13 -111 2 -6 -4 -13 -14 -16 -22 -4 -10 -8
-6 -13 13 -4 16 -2 39 5 56 6 16 10 62 9 102 -1 41 1 84 5 97 8 24 10 23 -66
25 -47 2 -66 -11 -52 -35 4 -6 6 -64 5 -129 -1 -71 3 -120 9 -124 14 -8 13
-52 -1 -61 -8 -4 -10 -29 -6 -71 l5 -65 -29 28 c-33 32 -28 35 -98 -67 -28
-42 -62 -86 -76 -99 -14 -13 -25 -29 -25 -35 0 -15 48 -80 59 -80 5 0 42 50
82 110 58 87 74 105 77 88 2 -13 8 -23 14 -23 12 0 2 -248 -12 -285 -11 -30 0
-45 42 -51 58 -10 70 12 63 110 -9 128 -4 400 8 412 2 3 60 7 128 9 l124 4 2
-107 c0 -59 4 -124 8 -145 4 -20 4 -52 1 -70 l-6 -33 -108 4 -107 4 0 -51 c0
-50 6 -58 39 -52 5 1 112 3 238 4 226 1 229 1 234 23 3 12 4 33 2 45 -3 23 -5
24 -109 24 l-107 0 -6 59 c-9 89 -7 164 4 171 6 4 9 32 8 63 l-3 57 44 -4 c24
-2 53 2 65 8 15 8 39 9 79 3 51 -8 57 -7 63 10 7 24 -4 70 -19 80 -18 11 -97
10 -97 -2 0 -5 -11 -10 -25 -10 -14 0 -25 5 -25 10 0 6 -20 10 -45 10 l-44 0
5 93 c3 50 8 109 11 131 6 45 -2 53 -62 54 -38 1 -44 -2 -49 -24z"/>
<path d="M76 835 c-10 -8 -24 -16 -30 -18 -6 -2 10 -30 35 -63 25 -32 54 -73
64 -91 l19 -32 38 21 c21 12 38 27 38 33 0 21 -114 165 -130 164 -8 0 -24 -6
-34 -14z"/>
</g>
</svg>
