<?xml version="1.0" standalone="no"?>
<!DOCTYPE svg PUBLIC "-//W3C//DTD SVG 20010904//EN"
 "http://www.w3.org/TR/2001/REC-SVG-20010904/DTD/svg10.dtd">
<svg version="1.0" xmlns="http://www.w3.org/2000/svg"
 width="101.000000pt" height="101.000000pt" viewBox="0 0 101.000000 101.000000"
 preserveAspectRatio="xMidYMid meet">
<metadata>
Created by potrace 1.16, written by Peter Selinger 2001-2019
</metadata>
<g transform="translate(0.000000,101.000000) scale(0.100000,-0.100000)"
fill="#000000" stroke="none">
<path d="M453 953 l4 -58 -166 2 c-91 1 -176 5 -188 8 -19 6 -25 2 -33 -21
-13 -34 -6 -70 15 -78 21 -8 105 4 105 15 0 5 11 9 25 9 14 0 25 -5 25 -12 0
-8 29 -9 108 -4 l107 6 0 -44 0 -44 -149 -7 c-113 -5 -150 -4 -156 5 -22 36
-41 -31 -20 -71 10 -18 24 -19 293 -19 155 0 312 3 349 6 74 7 85 18 72 69 -5
22 -11 26 -31 20 -13 -3 -76 -3 -141 1 l-117 7 0 36 -1 36 156 0 c85 0 160 -4
167 -8 16 -10 43 20 43 48 0 35 -28 58 -59 50 -14 -4 -89 -7 -167 -8 l-141 -2
4 58 4 57 -56 0 -56 0 4 -57z"/>
<path d="M104 612 c-7 -4 -11 -45 -12 -103 -1 -108 0 -110 69 -101 35 4 36 5
38 50 1 25 3 47 5 50 2 2 38 3 80 3 41 0 78 4 81 9 9 14 69 12 83 -2 8 -8 15
-8 24 -1 17 14 175 16 183 3 4 -7 34 -9 80 -5 l73 6 -4 -49 c-5 -56 3 -62 66
-55 l36 5 2 94 3 95 -63 -8 c-35 -4 -78 -7 -95 -6 -18 1 -42 2 -53 2 -11 0
-40 0 -65 0 -25 1 -67 1 -95 1 -197 0 -392 7 -410 14 -8 3 -20 2 -26 -2z"/>
<path d="M332 471 c-8 -5 -13 -19 -12 -32 12 -176 -32 -230 -198 -244 -24 -2
-46 -6 -48 -8 -3 -3 6 -17 20 -32 14 -15 28 -36 32 -47 7 -22 32 -19 121 14
126 47 160 98 164 246 1 16 5 22 16 18 8 -3 23 -1 34 4 27 15 122 2 115 -16
-3 -7 0 -25 6 -41 8 -21 7 -43 -5 -88 -14 -55 -14 -62 1 -89 20 -35 94 -61
124 -45 10 6 38 7 62 4 23 -4 61 -2 84 5 33 8 46 18 61 48 30 59 35 82 17 82
-8 0 -29 12 -46 26 -17 15 -33 25 -35 22 -2 -2 -7 -19 -10 -38 -8 -47 -40 -74
-80 -65 -16 3 -40 6 -53 7 -41 0 -46 47 -27 217 l6 54 -38 -8 c-64 -14 -241
-8 -283 9 -8 3 -21 2 -28 -3z"/>
</g>
</svg>
