<?xml version="1.0" standalone="no"?>
<!DOCTYPE svg PUBLIC "-//W3C//DTD SVG 20010904//EN"
 "http://www.w3.org/TR/2001/REC-SVG-20010904/DTD/svg10.dtd">
<svg version="1.0" xmlns="http://www.w3.org/2000/svg"
 width="101.000000pt" height="101.000000pt" viewBox="0 0 101.000000 101.000000"
 preserveAspectRatio="xMidYMid meet">
<metadata>
Created by potrace 1.16, written by Peter Selinger 2001-2019
</metadata>
<g transform="translate(0.000000,101.000000) scale(0.100000,-0.100000)"
fill="#000000" stroke="none">
<path d="M281 957 c-41 -72 -104 -142 -174 -194 -49 -36 -56 -44 -41 -50 11
-3 32 -15 47 -26 l29 -19 36 35 37 36 0 -127 0 -127 48 2 c33 1 47 -2 44 -10
-7 -22 -121 -108 -179 -135 -31 -15 -57 -29 -57 -32 0 -3 20 -17 45 -33 l46
-27 31 22 c18 12 50 35 72 52 l40 31 60 -61 c33 -34 58 -60 56 -58 -2 2 -11
-1 -21 -6 -9 -5 -35 -12 -56 -15 -22 -3 -52 -8 -69 -11 -16 -3 -69 -6 -117 -7
-47 -1 -90 -5 -93 -9 -4 -4 6 -23 24 -43 17 -20 31 -40 31 -45 0 -8 35 -6 95
5 17 4 41 8 55 10 14 2 68 15 120 30 124 36 135 36 238 8 97 -26 135 -34 172
-38 14 -1 35 -5 47 -9 23 -7 23 -7 78 66 l35 48 -25 6 c-14 3 -31 1 -39 -5 -7
-6 -15 -9 -18 -6 -3 3 -47 8 -99 10 -81 5 -114 8 -152 14 -4 0 19 23 51 50 49
41 132 137 132 153 0 3 -28 4 -62 4 -35 -1 -128 0 -207 2 l-143 2 14 22 c15
22 20 22 210 23 l196 0 6 65 c8 85 7 223 -2 235 -10 14 -192 20 -192 6 0 -6
-11 -11 -25 -11 -14 0 -25 5 -25 10 0 6 -30 10 -70 10 -40 0 -70 -4 -70 -10 0
-5 -16 -10 -35 -10 -19 0 -35 5 -35 10 0 6 -19 10 -41 10 -34 0 -39 2 -30 14
7 8 21 12 31 9 11 -3 26 -1 33 5 16 14 174 14 182 1 8 -12 142 -12 150 1 8 13
52 13 60 0 4 -6 37 -10 75 -9 l68 1 6 33 c10 52 0 65 -42 57 -20 -4 -80 -6
-132 -5 -52 1 -155 4 -228 5 l-133 3 33 27 c27 23 30 29 18 37 -8 6 -25 8 -37
4 -14 -3 -23 -1 -23 6 0 6 -11 11 -24 11 -19 0 -31 -12 -55 -53z m444 -251 c0
-19 -5 -21 -47 -18 -30 3 -48 0 -48 -7 0 -6 -11 -11 -25 -11 -14 0 -25 5 -25
10 0 6 -30 10 -70 10 -40 0 -70 -4 -70 -10 0 -5 -11 -10 -25 -10 -14 0 -25 5
-25 10 0 6 -17 10 -39 10 -28 0 -40 5 -43 18 -4 16 11 17 206 18 209 1 211 1
211 -20z m-45 -97 c41 0 45 -2 45 -24 0 -22 -5 -25 -52 -31 -28 -3 -75 -3
-105 1 -29 3 -100 7 -158 8 -98 2 -105 3 -105 22 0 20 5 21 118 18 68 -2 126
1 135 7 9 6 31 7 47 4 17 -3 50 -6 75 -5z m-50 -247 c-1 -4 -21 -23 -46 -42
-50 -39 -69 -40 -130 -5 -78 46 -74 50 57 52 65 0 119 -2 119 -5z"/>
</g>
</svg>
