<?xml version="1.0" standalone="no"?>
<!DOCTYPE svg PUBLIC "-//W3C//DTD SVG 20010904//EN"
 "http://www.w3.org/TR/2001/REC-SVG-20010904/DTD/svg10.dtd">
<svg version="1.0" xmlns="http://www.w3.org/2000/svg"
 width="101.000000pt" height="101.000000pt" viewBox="0 0 101.000000 101.000000"
 preserveAspectRatio="xMidYMid meet">
<metadata>
Created by potrace 1.16, written by Peter Selinger 2001-2019
</metadata>
<g transform="translate(0.000000,101.000000) scale(0.100000,-0.100000)"
fill="#000000" stroke="none">
<path d="M55 960 c-12 -55 -1 -67 63 -68 31 0 62 4 69 10 12 10 230 5 240 -6
3 -2 0 -13 -6 -24 -13 -24 -128 -43 -141 -22 -4 7 -25 10 -51 8 l-44 -3 2
-190 2 -190 60 1 c35 1 58 -3 54 -9 -11 -18 -152 -105 -208 -128 -30 -12 -55
-25 -55 -28 1 -8 78 -61 88 -61 5 0 48 27 96 60 49 33 93 60 100 60 6 0 0 -9
-13 -19 l-24 -18 49 -36 c66 -49 92 -69 77 -62 -7 3 -19 3 -25 -2 -7 -4 -17
-8 -23 -10 -5 -1 -21 -4 -35 -8 -14 -3 -38 -8 -55 -11 -16 -3 -35 -10 -42 -16
-10 -8 -20 -8 -38 0 -17 8 -33 8 -54 1 -20 -7 -36 -7 -49 0 -10 5 -28 8 -40 4
-20 -5 -20 -6 8 -45 16 -21 30 -44 32 -50 5 -14 40 -13 138 6 37 7 201 53 232
65 31 12 34 11 152 -23 48 -14 100 -28 115 -31 55 -11 97 -17 134 -19 35 -1
39 2 68 52 l30 53 -68 -2 c-37 0 -84 2 -103 6 -19 4 -55 9 -80 11 -25 2 -62 7
-82 12 l-37 7 67 51 c60 45 152 143 152 162 0 4 -92 7 -204 7 -119 0 -201 4
-196 9 5 5 80 8 167 7 87 0 176 2 198 5 l40 6 1 183 2 183 -82 7 c-44 3 -114
5 -154 3 -39 -2 -72 -2 -72 0 0 19 23 39 40 35 11 -3 26 -1 33 5 16 14 174 14
183 1 3 -6 42 -9 90 -8 92 3 102 11 89 67 l-6 27 -159 4 c-112 2 -160 0 -160
-8 0 -6 -11 -11 -25 -11 -14 0 -25 5 -25 10 0 6 -30 10 -70 10 -40 0 -70 -4
-70 -10 0 -6 -33 -10 -80 -10 -47 0 -80 4 -80 10 0 6 -18 10 -40 10 -22 0 -40
-4 -40 -10 0 -5 -25 -10 -55 -10 -30 0 -55 5 -55 10 0 23 -19 8 -25 -20z m602
-182 c7 -6 24 -8 37 -4 17 4 25 1 28 -12 4 -15 -4 -17 -61 -20 -36 -1 -82 -2
-101 -2 -286 5 -286 5 -286 20 0 13 18 15 107 12 65 -1 110 2 114 8 8 13 146
11 162 -2z m-163 -87 c8 -12 114 -13 121 -1 7 12 85 13 101 2 5 -4 10 -17 10
-28 0 -21 -6 -22 -159 -29 -111 -4 -162 -3 -171 5 -8 6 -38 9 -67 8 -48 -3
-54 -1 -54 17 0 19 5 20 77 17 46 -2 79 1 83 7 8 13 52 15 59 2z m-14 -102 c0
-8 36 -10 131 -4 l131 7 -4 -24 c-3 -22 -7 -23 -93 -25 -115 -3 -190 -3 -291
0 -71 2 -80 4 -76 20 2 10 14 17 28 17 13 0 24 5 24 10 0 6 32 10 75 10 49 0
75 -4 75 -11z m124 -240 c-8 -9 -34 -30 -58 -47 l-44 -32 -61 46 c-34 25 -61
46 -61 47 0 1 54 2 119 2 108 0 118 -1 105 -16z"/>
</g>
</svg>
