<?xml version="1.0" standalone="no"?>
<!DOCTYPE svg PUBLIC "-//W3C//DTD SVG 20010904//EN"
 "http://www.w3.org/TR/2001/REC-SVG-20010904/DTD/svg10.dtd">
<svg version="1.0" xmlns="http://www.w3.org/2000/svg"
 width="101.000000pt" height="102.000000pt" viewBox="0 0 101.000000 102.000000"
 preserveAspectRatio="xMidYMid meet">
<metadata>
Created by potrace 1.16, written by Peter Selinger 2001-2019
</metadata>
<g transform="translate(0.000000,102.000000) scale(0.100000,-0.100000)"
fill="#000000" stroke="none">
<path d="M168 928 c-25 -51 -68 -124 -97 -162 l-52 -69 23 -43 c22 -43 23 -43
43 -24 20 19 20 19 17 -60 -2 -47 1 -81 7 -85 13 -8 14 -52 2 -60 -5 -3 -9
-37 -9 -75 1 -75 2 -76 58 -71 29 3 40 16 40 51 0 20 5 25 24 25 13 0 22 -3
20 -7 -2 -3 3 -14 12 -22 16 -17 52 -21 70 -8 6 4 10 75 11 198 l0 192 -89 7
c-48 3 -88 8 -88 11 0 2 10 19 21 37 21 32 21 32 108 32 l86 0 -3 -104 c-1
-58 2 -109 8 -116 12 -14 12 -153 0 -160 -5 -3 -8 -37 -8 -76 1 -41 -4 -75
-11 -82 -6 -6 -36 -11 -67 -10 -30 1 -54 -2 -52 -5 2 -4 12 -29 22 -55 19 -47
19 -48 58 -43 22 2 60 15 85 28 37 18 50 31 61 63 7 22 11 59 9 83 -5 48 -1
51 38 21 l27 -22 73 73 73 72 71 3 c62 1 71 0 66 -14 -10 -26 -69 -121 -75
-121 -3 0 -21 16 -40 35 -19 19 -39 35 -44 35 -6 -1 -24 -12 -41 -25 l-29 -24
42 -36 c23 -20 42 -41 42 -46 0 -14 -110 -64 -185 -84 l-65 -18 29 -32 c16
-18 30 -38 33 -45 2 -8 22 -6 68 10 182 61 305 183 378 377 23 61 16 78 -27
70 -18 -4 -59 -4 -91 0 -51 5 -58 8 -48 20 14 17 -4 33 -36 33 -15 0 -10 7 21
30 51 37 112 117 149 193 25 49 26 59 14 67 -22 14 -71 12 -104 -5 -33 -18
-82 -20 -92 -4 -3 6 -17 9 -30 6 -32 -6 -30 2 11 50 19 23 35 43 35 46 0 5
-81 27 -98 27 -5 0 -31 -38 -57 -84 -26 -46 -61 -98 -79 -115 l-31 -31 3 39
c4 44 -20 77 -47 64 -16 -8 -161 -7 -169 2 -3 2 7 23 22 45 33 50 32 55 -1 68
-71 27 -67 30 -115 -70z m600 -165 c-16 -24 -33 -43 -37 -43 -5 0 -25 14 -46
30 -21 17 -40 30 -43 30 -3 0 -20 -12 -39 -26 l-34 -26 41 -29 c22 -16 40 -33
40 -38 0 -11 -108 -55 -132 -54 -10 1 -20 -2 -23 -8 -15 -23 -21 -4 -20 61 0
38 3 70 6 70 3 0 14 -7 25 -15 10 -8 22 -15 25 -15 4 0 25 24 47 53 l41 52 89
0 90 0 -30 -42z m-516 -185 c-1 -31 2 -59 8 -63 11 -7 13 -55 2 -70 -4 -5 -20
-11 -37 -11 l-30 -1 0 101 0 101 30 0 30 0 -3 -57z m382 -44 c-24 -31 -156
-157 -159 -151 -1 1 1 39 3 85 l4 83 24 -22 c23 -21 24 -22 67 -5 24 9 52 23
63 31 28 21 28 19 -2 -21z"/>
</g>
</svg>
