<?xml version="1.0" standalone="no"?>
<!DOCTYPE svg PUBLIC "-//W3C//DTD SVG 20010904//EN"
 "http://www.w3.org/TR/2001/REC-SVG-20010904/DTD/svg10.dtd">
<svg version="1.0" xmlns="http://www.w3.org/2000/svg"
 width="101.000000pt" height="101.000000pt" viewBox="0 0 101.000000 101.000000"
 preserveAspectRatio="xMidYMid meet">
<metadata>
Created by potrace 1.16, written by Peter Selinger 2001-2019
</metadata>
<g transform="translate(0.000000,101.000000) scale(0.100000,-0.100000)"
fill="#000000" stroke="none">
<path d="M716 999 c-29 -17 -117 -46 -161 -54 -78 -13 -100 -16 -145 -20 -25
-2 -78 -9 -119 -16 -57 -9 -76 -10 -79 -1 -5 15 -88 16 -97 2 -3 -6 2 -22 13
-38 11 -15 22 -37 26 -48 7 -23 27 -24 151 -10 28 3 63 6 79 6 16 0 36 5 45 9
14 8 16 -1 16 -85 l0 -95 -156 6 c-86 2 -164 7 -173 11 -24 9 -46 -14 -46 -50
0 -55 1 -55 187 -53 l171 2 -3 -25 c-2 -14 -5 -27 -6 -30 -1 -3 -3 -9 -4 -15
-10 -65 -76 -157 -149 -209 -55 -39 -177 -96 -205 -96 -18 0 -13 -7 35 -55
l46 -46 76 43 c129 73 246 197 274 290 6 21 14 38 17 38 3 0 14 -21 25 -46 42
-103 138 -197 264 -262 68 -35 74 -36 83 -19 6 10 24 34 41 53 34 38 33 43 -6
50 -131 24 -258 120 -321 244 -46 92 -60 85 151 85 183 0 185 0 191 23 3 12 3
32 0 45 -6 22 -9 22 -194 25 -103 2 -189 5 -191 7 -6 6 -2 112 5 149 7 32 13
40 33 43 24 3 49 7 100 17 14 3 39 9 55 14 17 5 36 7 43 4 21 -7 62 7 62 21 0
18 -82 97 -100 97 -8 0 -23 -6 -34 -11z"/>
</g>
</svg>
