<?xml version="1.0" standalone="no"?>
<!DOCTYPE svg PUBLIC "-//W3C//DTD SVG 20010904//EN"
 "http://www.w3.org/TR/2001/REC-SVG-20010904/DTD/svg10.dtd">
<svg version="1.0" xmlns="http://www.w3.org/2000/svg"
 width="101.000000pt" height="101.000000pt" viewBox="0 0 101.000000 101.000000"
 preserveAspectRatio="xMidYMid meet">
<metadata>
Created by potrace 1.16, written by Peter Selinger 2001-2019
</metadata>
<g transform="translate(0.000000,101.000000) scale(0.100000,-0.100000)"
fill="#000000" stroke="none">
<path d="M468 953 c1 -32 -1 -64 -6 -70 -12 -18 -247 -29 -267 -13 -20 17 -62
4 -70 -21 -11 -33 3 -66 29 -73 13 -3 86 -4 163 -1 l138 6 -3 -47 c-3 -25 1
-57 8 -70 12 -21 9 -119 -4 -132 -12 -11 -186 -14 -199 -4 -7 7 -40 11 -73 10
-32 0 -66 2 -74 6 -23 9 -40 -7 -46 -45 -3 -21 0 -41 9 -53 13 -18 20 -19 129
-8 133 14 228 15 228 4 0 -20 -61 -101 -104 -139 -66 -58 -174 -97 -258 -94
-48 2 -55 -13 -18 -39 16 -11 37 -34 47 -50 13 -23 22 -28 38 -24 49 15 191
87 236 120 56 41 124 131 135 177 6 31 7 31 34 -31 50 -108 154 -200 276 -242
l59 -21 15 23 c8 12 28 37 44 56 32 37 29 45 -17 48 -135 10 -257 80 -314 181
l-21 38 144 3 c80 1 153 -2 163 -7 26 -15 36 -1 36 52 0 51 -17 67 -53 48 -29
-15 -272 -27 -272 -12 0 6 -11 11 -24 11 -31 0 -35 21 -23 138 l10 92 46 0
c132 0 276 12 284 23 8 12 2 66 -9 76 -11 12 -164 13 -164 2 0 -6 -16 -11 -35
-11 -19 0 -35 5 -35 10 0 6 -18 10 -40 10 -34 0 -40 3 -41 23 -2 37 2 61 14
75 16 20 -9 32 -68 32 l-50 0 3 -57z"/>
<path d="M245 739 c-16 -10 -34 -20 -40 -22 -5 -2 10 -31 32 -65 23 -35 45
-71 48 -82 6 -19 8 -19 56 6 l50 25 -22 37 c-35 57 -82 122 -88 121 -3 0 -19
-9 -36 -20z"/>
<path d="M704 718 c-9 -18 -32 -55 -51 -81 -20 -26 -34 -49 -32 -50 2 -2 22
-11 44 -21 l40 -18 20 27 c11 16 39 52 63 82 l43 53 -43 20 c-58 26 -65 25
-84 -12z"/>
</g>
</svg>
