<?xml version="1.0" standalone="no"?>
<!DOCTYPE svg PUBLIC "-//W3C//DTD SVG 20010904//EN"
 "http://www.w3.org/TR/2001/REC-SVG-20010904/DTD/svg10.dtd">
<svg version="1.0" xmlns="http://www.w3.org/2000/svg"
 width="101.000000pt" height="102.000000pt" viewBox="0 0 101.000000 102.000000"
 preserveAspectRatio="xMidYMid meet">
<metadata>
Created by potrace 1.16, written by Peter Selinger 2001-2019
</metadata>
<g transform="translate(0.000000,102.000000) scale(0.100000,-0.100000)"
fill="#000000" stroke="none">
<path d="M439 1007 c-1 -7 -1 -16 0 -21 1 -6 -2 -19 -7 -30 -5 -12 -14 -32
-19 -45 -8 -22 -12 -23 -125 -23 -64 0 -130 3 -147 7 -44 9 -71 -9 -71 -48 0
-63 -1 -63 175 -54 l110 6 -50 -45 c-57 -51 -171 -110 -229 -119 -22 -3 -42
-8 -45 -10 -2 -3 10 -20 27 -38 34 -35 41 -57 18 -57 -17 0 -30 -51 -21 -79 3
-11 15 -23 26 -26 25 -8 129 5 129 16 0 10 57 11 82 1 15 -6 14 -14 -12 -81
-16 -41 -28 -77 -26 -78 6 -6 37 -4 76 3 38 8 350 7 358 0 2 -3 -1 -20 -8 -40
-14 -43 -53 -70 -89 -62 -45 11 -103 16 -99 8 47 -98 56 -107 98 -104 115 9
162 36 182 106 13 49 14 54 22 128 l6 58 -77 -7 c-68 -7 -255 -8 -319 -2 -19
1 -20 5 -12 33 9 29 13 31 61 33 57 3 137 4 165 4 9 -1 55 2 103 4 62 4 97 1
128 -10 53 -18 46 -18 65 1 20 20 20 68 0 88 -20 20 -88 21 -144 1 -53 -19
-186 -20 -194 -2 -5 10 -7 10 -12 0 -7 -15 -74 -18 -74 -3 0 6 -18 10 -40 10
-22 0 -40 -4 -40 -10 0 -5 -16 -10 -35 -10 -19 0 -35 5 -35 10 0 6 -31 10 -72
10 -40 0 -90 3 -110 6 l-37 6 82 41 c45 23 85 43 88 45 4 1 9 -9 13 -22 9 -36
35 -40 180 -26 69 6 141 8 160 5 32 -6 34 -5 41 24 3 17 3 36 -1 43 -4 7 1 5
12 -4 10 -9 56 -35 102 -58 l83 -41 43 48 44 48 -30 12 c-17 7 -40 13 -52 13
-33 1 -128 43 -181 81 l-47 34 63 8 c41 5 72 4 87 -3 13 -5 41 -7 62 -4 44 7
56 26 45 74 -7 33 -35 46 -65 30 -20 -11 -340 -11 -340 0 0 3 11 25 25 49 14
23 25 47 25 51 0 19 -119 36 -121 17z m153 -267 c35 -42 43 -57 32 -63 -8 -4
-64 -5 -126 -3 -62 3 -119 6 -126 6 -7 0 10 26 37 58 47 53 54 57 94 57 39 0
46 -4 89 -55z"/>
</g>
</svg>
