<?xml version="1.0" standalone="no"?>
<!DOCTYPE svg PUBLIC "-//W3C//DTD SVG 20010904//EN"
 "http://www.w3.org/TR/2001/REC-SVG-20010904/DTD/svg10.dtd">
<svg version="1.0" xmlns="http://www.w3.org/2000/svg"
 width="101.000000pt" height="101.000000pt" viewBox="0 0 101.000000 101.000000"
 preserveAspectRatio="xMidYMid meet">
<metadata>
Created by potrace 1.16, written by Peter Selinger 2001-2019
</metadata>
<g transform="translate(0.000000,101.000000) scale(0.100000,-0.100000)"
fill="#000000" stroke="none">
<path d="M438 1004 c-4 -3 -4 -12 -1 -20 3 -8 1 -20 -4 -27 -5 -6 -17 -33 -27
-58 l-17 -47 -80 -7 c-48 -4 -84 -3 -92 3 -6 5 -42 10 -79 10 -62 0 -67 -1
-73 -25 -8 -35 3 -62 28 -68 12 -3 70 -4 129 -3 l107 3 -22 -24 c-35 -38 -132
-98 -208 -126 l-69 -27 22 -28 c13 -15 28 -36 34 -46 10 -17 15 -15 85 23 l74
41 -1 -129 c-2 -113 -4 -132 -24 -164 -22 -35 -113 -105 -137 -105 -25 0 -21
-19 11 -53 l34 -36 43 28 c64 40 135 124 154 181 9 27 19 89 21 137 3 48 7
100 9 116 4 31 -23 52 -55 42 -11 -4 -20 -4 -20 -2 0 3 37 42 83 88 l82 82 65
1 65 1 26 -40 c14 -22 47 -59 72 -81 l47 -42 -29 -5 -29 -6 4 -108 c5 -138 5
-187 0 -301 -4 -90 -3 -92 20 -98 13 -3 34 -4 47 -1 22 6 22 7 24 238 1 128 6
236 11 241 4 4 36 -3 70 -17 71 -29 82 -30 82 -11 0 7 11 30 25 50 13 20 21
37 17 37 -32 6 -52 9 -82 14 -53 8 -131 49 -172 92 l-37 38 125 1 c137 0 146
4 142 59 l-3 29 -103 4 c-58 2 -109 -1 -115 -7 -17 -13 -168 -13 -184 1 -7 5
-22 8 -33 5 -19 -5 -17 1 15 59 19 36 35 66 35 68 0 13 -102 31 -112 20z"/>
<path d="M455 599 c-4 -5 -6 -76 -4 -157 1 -81 3 -194 3 -252 1 -102 2 -105
25 -108 13 -2 34 -1 46 2 l24 6 1 220 c0 121 3 233 6 248 5 24 2 29 -28 40
-42 15 -65 15 -73 1z"/>
</g>
</svg>
