<?xml version="1.0" standalone="no"?>
<!DOCTYPE svg PUBLIC "-//W3C//DTD SVG 20010904//EN"
 "http://www.w3.org/TR/2001/REC-SVG-20010904/DTD/svg10.dtd">
<svg version="1.0" xmlns="http://www.w3.org/2000/svg"
 width="101.000000pt" height="102.000000pt" viewBox="0 0 101.000000 102.000000"
 preserveAspectRatio="xMidYMid meet">
<metadata>
Created by potrace 1.16, written by Peter Selinger 2001-2019
</metadata>
<g transform="translate(0.000000,102.000000) scale(0.100000,-0.100000)"
fill="#000000" stroke="none">
<path d="M445 974 l0 -49 -58 -9 c-39 -6 -61 -6 -65 1 -8 12 -162 26 -196 17
-30 -7 -38 -26 -30 -70 l6 -33 149 4 c82 2 149 0 149 -3 0 -19 -131 -87 -143
-75 -4 3 -14 2 -24 -2 -10 -4 -32 -7 -48 -6 -17 1 -43 -3 -59 -9 l-28 -10 31
-35 c17 -20 31 -37 31 -38 0 -1 -25 -2 -55 -2 -59 0 -75 -11 -75 -52 0 -37 26
-53 81 -52 28 1 52 6 54 10 7 10 173 11 180 0 7 -12 93 -12 101 0 6 10 71 11
190 2 84 -6 76 14 76 -192 0 -131 -2 -145 -21 -164 -17 -17 -24 -19 -45 -9
-13 6 -34 8 -45 5 -20 -5 -20 -7 -7 -22 9 -10 22 -35 29 -56 12 -33 18 -40 44
-41 41 -2 116 36 130 66 8 18 9 52 2 121 -5 53 -7 130 -4 170 3 41 6 84 6 95
1 23 9 25 106 25 43 0 53 3 58 19 7 23 -3 62 -19 72 -18 12 -101 9 -114 -4
-23 -23 -13 10 15 53 28 42 24 56 -17 60 -20 2 -82 13 -135 24 -11 3 -31 7
-45 9 -14 3 -44 10 -67 15 -24 6 -46 11 -50 10 -18 -3 -36 2 -30 7 4 4 54 6
112 5 67 -1 112 3 124 11 15 9 38 9 93 2 52 -8 75 -8 81 0 7 10 3 74 -6 82 -5
5 -102 7 -243 3 l-131 -4 13 39 c8 22 12 41 9 44 -3 3 -29 7 -58 10 l-52 4 0
-48z m103 -247 c7 -5 15 -7 18 -4 3 3 18 1 33 -5 14 -5 36 -12 49 -14 12 -3
51 -15 85 -29 48 -18 56 -24 35 -24 -16 -1 -28 -5 -28 -11 0 -6 -33 -10 -80
-10 -47 0 -80 4 -80 10 0 6 -18 10 -40 10 -22 0 -40 -4 -40 -10 0 -15 -157
-13 -164 3 -5 10 -7 10 -12 0 -8 -18 -62 -16 -80 1 -12 13 -6 17 43 31 61 18
148 59 157 74 7 10 83 -6 104 -22z"/>
<path d="M177 488 c-3 -12 -2 -29 4 -39 10 -19 5 -233 -6 -260 -8 -20 17 -28
63 -21 32 4 38 15 34 63 -1 11 7 17 21 18 12 0 51 3 87 6 91 7 133 -1 127 -25
-6 -22 15 -29 61 -22 28 4 32 7 25 26 -7 17 -8 153 -2 244 0 13 -1 25 -2 26
-2 2 -42 -1 -89 -5 -82 -9 -173 -7 -271 5 -42 5 -47 4 -52 -16z m304 -54 c19
-4 27 -11 27 -27 0 -12 4 -34 7 -49 6 -24 3 -29 -20 -38 -15 -6 -61 -8 -103
-5 -133 8 -127 6 -124 40 1 17 3 40 3 53 1 16 6 21 18 18 9 -3 22 -2 30 3 15
10 121 13 162 5z"/>
</g>
</svg>
