<?xml version="1.0" standalone="no"?>
<!DOCTYPE svg PUBLIC "-//W3C//DTD SVG 20010904//EN"
 "http://www.w3.org/TR/2001/REC-SVG-20010904/DTD/svg10.dtd">
<svg version="1.0" xmlns="http://www.w3.org/2000/svg"
 width="101.000000pt" height="101.000000pt" viewBox="0 0 101.000000 101.000000"
 preserveAspectRatio="xMidYMid meet">
<metadata>
Created by potrace 1.16, written by Peter Selinger 2001-2019
</metadata>
<g transform="translate(0.000000,101.000000) scale(0.100000,-0.100000)"
fill="#000000" stroke="none">
<path d="M569 978 c-20 -50 -103 -170 -142 -207 l-36 -34 4 126 c5 119 4 126
-15 132 -11 4 -33 4 -48 0 l-27 -6 -3 -117 c-3 -138 4 -129 -147 -207 -52 -28
-95 -52 -94 -55 0 -3 15 -22 33 -44 l33 -39 81 62 c77 59 100 72 87 51 -3 -6
-3 -42 1 -80 6 -62 9 -71 30 -76 12 -3 32 -3 44 1 21 7 21 11 15 76 -5 48 -4
69 4 69 6 0 11 19 11 46 l0 46 34 -21 c18 -12 36 -21 39 -21 3 0 27 29 53 64
30 42 52 62 61 59 8 -3 25 0 38 7 16 9 43 10 89 5 l66 -7 -20 -36 c-12 -20
-30 -48 -41 -61 l-19 -24 -51 43 -51 43 -31 -32 c-35 -35 -35 -36 32 -73 17
-9 31 -21 31 -26 0 -17 -82 -43 -142 -46 -32 -1 -61 -5 -64 -9 -4 -3 8 -20 25
-37 34 -34 39 -50 17 -50 -21 0 -28 -17 -17 -39 8 -15 7 -20 -5 -25 -25 -10
-122 -7 -129 4 -3 5 -36 9 -73 8 -37 0 -85 2 -107 6 -22 3 -46 3 -52 -2 -20
-13 -26 -65 -10 -86 13 -18 20 -19 129 -8 135 14 228 15 228 4 0 -5 -17 -26
-37 -47 -43 -44 -147 -96 -195 -97 -18 0 -37 -3 -43 -6 -5 -3 -28 -5 -51 -3
-23 1 -45 -2 -48 -8 -4 -5 8 -30 26 -55 38 -52 51 -53 158 -16 102 34 177 79
228 135 l47 51 52 -56 c29 -31 78 -71 110 -87 54 -29 180 -73 207 -73 6 0 23
24 38 52 31 57 26 68 -27 68 -94 -1 -187 31 -260 90 -68 54 -68 55 93 55 81 0
152 -2 157 -4 24 -9 32 2 31 42 -1 23 -5 45 -11 49 -17 13 -81 9 -118 -7 -41
-17 -177 -21 -177 -5 0 6 -13 10 -29 10 -24 0 -28 3 -24 20 3 11 0 20 -6 20
-6 0 -11 5 -11 12 0 6 2 9 6 6 8 -9 103 30 149 62 70 48 135 129 183 228 25
51 43 94 41 96 -2 3 -39 -1 -81 -7 -58 -8 -83 -8 -100 1 -13 7 -42 11 -65 9
-24 -1 -43 0 -43 3 0 4 11 17 25 30 14 13 25 27 25 31 0 6 -83 49 -95 49 -1 0
-8 -14 -16 -32z"/>
<path d="M128 903 l-36 -24 50 -67 c28 -37 52 -69 54 -71 4 -4 74 39 74 46 0
7 -89 131 -98 136 -4 3 -23 -6 -44 -20z"/>
</g>
</svg>
