<?xml version="1.0" standalone="no"?>
<!DOCTYPE svg PUBLIC "-//W3C//DTD SVG 20010904//EN"
 "http://www.w3.org/TR/2001/REC-SVG-20010904/DTD/svg10.dtd">
<svg version="1.0" xmlns="http://www.w3.org/2000/svg"
 width="101.000000pt" height="101.000000pt" viewBox="0 0 101.000000 101.000000"
 preserveAspectRatio="xMidYMid meet">
<metadata>
Created by potrace 1.16, written by Peter Selinger 2001-2019
</metadata>
<g transform="translate(0.000000,101.000000) scale(0.100000,-0.100000)"
fill="#000000" stroke="none">
<path d="M181 968 c-7 -21 -12 -55 -12 -76 0 -20 -1 -54 -2 -75 l-2 -38 -61 6
c-69 8 -79 -1 -68 -61 6 -33 27 -50 47 -37 6 3 23 7 39 8 25 2 27 -1 22 -24
-3 -14 -7 -40 -10 -56 -2 -17 -12 -60 -22 -97 l-19 -67 73 -47 c41 -26 74 -50
74 -54 0 -16 -124 -129 -165 -151 -45 -24 -57 -39 -31 -39 7 0 30 -11 50 -25
37 -25 38 -25 64 -6 15 10 54 51 87 90 33 39 63 71 66 71 4 0 26 -21 49 -46
l42 -46 39 38 39 38 -21 23 c-12 12 -39 34 -61 49 -31 22 -38 32 -33 48 3 12
15 52 25 89 10 38 22 72 25 75 4 4 5 -2 1 -13 -10 -34 6 -46 56 -42 25 2 50 7
57 11 6 4 31 4 55 1 35 -6 44 -11 46 -28 4 -47 1 -314 -4 -348 -7 -42 4 -49
67 -41 38 4 38 4 32 42 -4 22 -2 47 4 58 8 15 7 31 -4 63 -11 30 -14 65 -10
123 3 45 6 91 6 102 1 15 8 22 23 23 77 6 164 5 182 -2 19 -7 22 -3 26 25 9
62 6 64 -95 66 -148 1 -132 -13 -132 121 l0 116 92 -1 c83 -1 93 0 99 18 7 24
-4 70 -19 80 -16 11 -95 10 -101 0 -6 -9 -223 -7 -292 3 -49 7 -74 -11 -74
-53 0 -46 9 -50 105 -47 l90 2 -4 -49 c-1 -28 2 -55 8 -61 14 -14 14 -54 0
-63 -6 -4 -8 -20 -5 -40 l7 -33 -78 5 c-119 7 -125 7 -135 -8 -7 -9 -8 -7 -2
7 8 22 14 67 17 135 l2 45 -92 -4 c-51 -1 -93 0 -93 4 0 3 4 14 9 23 5 10 12
37 14 62 6 44 9 62 22 106 6 18 1 22 -27 29 -67 16 -75 14 -87 -27z m142 -315
c-9 -118 -29 -213 -45 -213 -5 0 -24 10 -41 23 -23 16 -32 29 -31 47 4 50 15
103 24 120 6 10 10 28 10 39 0 16 8 21 43 24 23 2 42 4 42 5 1 1 -1 -19 -2
-45z"/>
</g>
</svg>
