<?xml version="1.0" standalone="no"?>
<!DOCTYPE svg PUBLIC "-//W3C//DTD SVG 20010904//EN"
 "http://www.w3.org/TR/2001/REC-SVG-20010904/DTD/svg10.dtd">
<svg version="1.0" xmlns="http://www.w3.org/2000/svg"
 width="101.000000pt" height="101.000000pt" viewBox="0 0 101.000000 101.000000"
 preserveAspectRatio="xMidYMid meet">
<metadata>
Created by potrace 1.16, written by Peter Selinger 2001-2019
</metadata>
<g transform="translate(0.000000,101.000000) scale(0.100000,-0.100000)"
fill="#000000" stroke="none">
<path d="M193 967 c-6 -23 -12 -49 -12 -57 -1 -8 -3 -28 -6 -45 -3 -16 -7 -41
-8 -55 -3 -23 -8 -25 -58 -25 -53 0 -54 -1 -57 -30 -3 -44 11 -59 57 -59 39
-1 51 -9 32 -21 -5 -3 -10 -18 -10 -33 0 -15 -2 -38 -5 -52 -4 -14 -9 -38 -12
-55 -2 -16 -9 -46 -14 -65 -12 -40 -6 -46 80 -93 l51 -28 -23 -31 c-32 -45
-97 -107 -131 -124 l-29 -15 39 -34 c21 -19 43 -34 50 -35 12 0 153 148 153
162 0 20 32 4 63 -32 19 -22 38 -40 43 -40 11 0 74 62 74 72 0 4 -26 25 -57
48 -31 22 -58 47 -59 55 -1 8 4 36 13 62 8 27 16 59 19 73 5 31 12 68 20 100
8 35 15 88 19 138 l4 43 -37 -2 c-20 -1 -57 -2 -81 -1 l-44 2 6 43 c12 79 18
102 33 118 21 23 18 27 -28 39 -24 6 -50 13 -58 16 -11 3 -19 -8 -27 -39z
m131 -287 c-4 -14 -8 -36 -10 -50 -1 -14 -5 -38 -8 -55 -3 -16 -8 -43 -11 -60
-3 -16 -10 -44 -16 -62 l-10 -32 -40 26 c-32 21 -39 31 -34 47 3 12 8 32 10
46 8 39 13 63 20 90 4 14 9 36 12 50 4 23 9 25 49 25 43 0 45 -1 38 -25z"/>
<path d="M482 921 c-6 -4 -14 -21 -18 -37 -8 -43 18 -68 60 -59 17 4 85 8 151
9 l120 1 3 -102 2 -101 -62 -6 c-35 -4 -92 -4 -128 -1 -96 8 -111 8 -118 1 -7
-8 -6 -54 4 -116 7 -48 8 -255 2 -305 -6 -41 8 -64 48 -81 25 -11 40 -12 54
-4 12 6 67 9 141 6 78 -3 130 0 146 7 23 10 73 92 73 119 0 7 -22 25 -48 39
l-48 27 -18 -50 c-19 -55 -42 -69 -116 -70 -52 0 -115 7 -129 16 -18 12 -32
112 -26 196 3 47 6 95 6 106 1 15 8 22 23 23 11 1 46 3 76 6 76 6 112 -2 106
-23 -10 -30 10 -46 55 -45 23 1 44 4 46 7 3 3 -1 27 -8 54 -9 38 -10 57 -1 78
6 16 10 71 8 124 -1 52 2 103 7 113 21 45 -30 98 -66 69 -12 -11 -308 -9 -325
2 -4 2 -13 1 -20 -3z"/>
</g>
</svg>
