<?xml version="1.0" standalone="no"?>
<!DOCTYPE svg PUBLIC "-//W3C//DTD SVG 20010904//EN"
 "http://www.w3.org/TR/2001/REC-SVG-20010904/DTD/svg10.dtd">
<svg version="1.0" xmlns="http://www.w3.org/2000/svg"
 width="101.000000pt" height="101.000000pt" viewBox="0 0 101.000000 101.000000"
 preserveAspectRatio="xMidYMid meet">
<metadata>
Created by potrace 1.16, written by Peter Selinger 2001-2019
</metadata>
<g transform="translate(0.000000,101.000000) scale(0.100000,-0.100000)"
fill="#000000" stroke="none">
<path d="M494 989 c-3 -6 -17 -9 -30 -6 -27 5 -28 3 -14 -22 5 -10 11 -30 14
-44 l4 -26 -201 2 -202 2 -3 -31 c-4 -43 21 -68 62 -60 31 7 77 8 82 3 2 -1 6
-43 10 -93 l7 -90 63 -2 c35 -1 66 3 69 8 8 13 148 13 162 -1 7 -7 60 -8 166
-3 171 8 176 10 161 69 -5 19 -11 24 -23 20 -32 -13 -200 -18 -214 -7 -15 13
-115 14 -123 1 -7 -13 -48 -11 -61 2 -6 6 -33 10 -62 8 l-50 -4 2 45 2 45 125
2 c69 1 141 2 160 3 19 0 69 0 110 0 203 1 209 2 215 21 15 45 -24 94 -57 72
-7 -4 -77 -8 -155 -8 -107 0 -143 3 -144 13 -1 6 -2 15 -3 20 -1 4 -6 22 -10
40 -6 25 -13 32 -31 32 -13 0 -27 -5 -31 -11z"/>
<path d="M404 569 l-25 -51 -152 7 -152 7 0 -51 c0 -52 4 -56 45 -53 8 1 59 4
114 7 77 4 96 2 89 -8 -5 -6 -24 -31 -41 -53 l-32 -42 33 -7 c17 -5 39 -9 48
-10 38 -5 120 -28 124 -35 5 -8 -89 -46 -140 -55 -35 -7 -89 -14 -158 -19 -60
-5 -66 -10 -40 -39 11 -12 26 -32 32 -44 13 -26 39 -25 166 10 105 29 187 61
232 88 l31 19 93 -40 c50 -22 108 -49 128 -61 l36 -21 28 33 c55 65 58 61 -84
108 -71 23 -129 44 -129 45 0 2 16 30 35 62 19 32 35 60 35 63 0 8 137 4 150
-4 21 -13 60 5 66 29 12 51 3 60 -69 70 -49 7 -78 6 -106 -4 -24 -8 -53 -10
-77 -5 -22 4 -76 8 -121 9 l-82 1 25 26 c13 14 24 28 24 32 0 8 -67 37 -86 37
-8 0 -25 -23 -40 -51z m216 -135 c0 -3 -13 -25 -30 -48 -26 -39 -33 -43 -64
-41 -19 2 -40 6 -46 10 -6 3 -23 9 -38 11 -39 7 -46 19 -28 45 14 22 23 24
111 26 52 2 95 0 95 -3z"/>
</g>
</svg>
