<?xml version="1.0" standalone="no"?>
<!DOCTYPE svg PUBLIC "-//W3C//DTD SVG 20010904//EN"
 "http://www.w3.org/TR/2001/REC-SVG-20010904/DTD/svg10.dtd">
<svg version="1.0" xmlns="http://www.w3.org/2000/svg"
 width="101.000000pt" height="101.000000pt" viewBox="0 0 101.000000 101.000000"
 preserveAspectRatio="xMidYMid meet">
<metadata>
Created by potrace 1.16, written by Peter Selinger 2001-2019
</metadata>
<g transform="translate(0.000000,101.000000) scale(0.100000,-0.100000)"
fill="#000000" stroke="none">
<path d="M599 993 c-1 -10 0 -22 1 -28 1 -5 2 -32 3 -60 l2 -51 -95 1 -95 0 0
-35 c-1 -34 -2 -35 -43 -38 -25 -2 -42 1 -42 7 0 15 -53 14 -67 0 -12 -12 -11
10 2 61 4 14 8 39 10 56 2 17 9 41 16 52 18 29 6 37 -57 37 -61 0 -63 -2 -63
-85 0 -25 -2 -61 -5 -80 -2 -19 -5 -38 -5 -41 -1 -4 -20 -3 -43 1 -24 5 -47 5
-53 2 -5 -4 -10 -26 -11 -49 l-1 -42 49 2 c45 3 61 -4 38 -18 -5 -3 -9 -20 -8
-38 0 -18 -9 -67 -21 -110 -11 -42 -21 -81 -21 -85 0 -4 27 -22 60 -40 33 -18
62 -38 66 -43 10 -17 -62 -95 -128 -139 -35 -23 -63 -43 -63 -45 0 -2 22 -18
48 -36 l48 -32 50 49 c28 27 67 70 87 96 20 27 41 48 46 48 6 0 28 -17 49 -37
l39 -38 34 40 c18 22 34 43 34 47 0 3 -25 21 -55 38 -30 17 -57 34 -59 38 -2
4 7 48 21 97 14 50 27 101 29 115 2 14 7 41 10 60 3 19 6 48 7 63 l2 29 95 1
95 2 0 -62 0 -62 -37 -6 c-21 -4 -43 -3 -49 1 -7 4 -31 9 -54 10 -48 4 -56 -7
-48 -63 5 -28 8 -30 41 -27 35 2 36 2 14 -10 l-23 -12 37 -70 c20 -38 50 -89
67 -113 l30 -44 -24 -18 c-31 -24 -151 -74 -214 -90 -27 -6 -51 -13 -53 -14
-2 -2 7 -13 20 -26 13 -13 30 -34 38 -46 l15 -23 78 34 c43 19 107 52 142 75
l64 40 65 -44 c56 -38 160 -85 186 -85 4 0 22 24 39 52 l30 53 -22 9 c-12 4
-38 10 -58 12 -34 3 -169 51 -169 60 0 2 18 31 39 64 37 57 95 199 108 264 6
28 5 29 -23 21 -26 -8 -55 -9 -119 -4 -18 1 -20 9 -20 60 l0 59 95 2 c52 0
104 0 114 -1 24 -2 36 15 36 51 0 30 -26 62 -43 51 -6 -3 -55 -7 -109 -7 -82
-1 -97 1 -93 14 2 8 5 42 6 75 l3 60 -57 3 c-49 3 -57 0 -58 -15z m-288 -316
c-5 -14 -10 -38 -10 -53 0 -16 -2 -40 -5 -54 -19 -88 -29 -120 -37 -120 -5 0
-21 8 -36 18 -20 12 -28 24 -26 42 3 49 14 103 23 121 6 10 10 22 9 26 -6 33
3 42 44 45 23 2 43 2 45 2 1 -1 -2 -13 -7 -27z m431 -116 c11 -1 -24 -91 -57
-147 -14 -25 -32 -43 -38 -41 -12 4 -80 126 -92 165 -6 20 -4 23 12 18 10 -3
25 -1 33 4 12 7 91 8 142 1z"/>
</g>
</svg>
