<?xml version="1.0" standalone="no"?>
<!DOCTYPE svg PUBLIC "-//W3C//DTD SVG 20010904//EN"
 "http://www.w3.org/TR/2001/REC-SVG-20010904/DTD/svg10.dtd">
<svg version="1.0" xmlns="http://www.w3.org/2000/svg"
 width="101.000000pt" height="102.000000pt" viewBox="0 0 101.000000 102.000000"
 preserveAspectRatio="xMidYMid meet">
<metadata>
Created by potrace 1.16, written by Peter Selinger 2001-2019
</metadata>
<g transform="translate(0.000000,102.000000) scale(0.100000,-0.100000)"
fill="#000000" stroke="none">
<path d="M199 1011 c-1 -3 0 -18 1 -33 1 -15 -6 -38 -15 -52 -9 -13 -15 -33
-14 -43 1 -10 -1 -26 -6 -35 -4 -10 -5 -24 -2 -32 5 -11 -5 -13 -52 -9 -66 6
-76 -4 -65 -63 5 -28 11 -34 39 -40 19 -3 39 -3 44 1 19 11 -2 -80 -56 -247
-4 -13 13 -26 77 -58 92 -46 91 -38 11 -123 -25 -27 -64 -58 -85 -69 l-39 -20
42 -41 41 -42 65 65 c36 36 77 82 92 102 l26 38 37 -30 c21 -17 41 -30 44 -30
7 0 65 62 66 70 0 3 -22 20 -50 38 -27 18 -50 36 -50 40 0 4 10 36 21 72 11
36 23 76 25 90 2 14 6 35 8 48 2 12 7 26 11 30 4 4 6 0 5 -8 -1 -8 -2 -20 -1
-26 2 -17 41 -25 64 -13 10 6 34 8 52 5 33 -7 34 -8 29 -48 -7 -54 -36 -138
-68 -191 -33 -57 -117 -139 -171 -168 -25 -13 -45 -26 -45 -29 1 -3 26 -19 56
-37 l56 -32 49 46 c62 58 139 172 170 252 40 102 50 78 46 -111 -2 -104 1
-130 14 -143 32 -32 172 -36 229 -5 21 11 59 81 60 108 0 7 -12 17 -27 23 -16
6 -36 18 -46 26 -21 20 -24 17 -32 -27 -8 -48 -21 -59 -63 -56 -51 3 -63 30
-58 131 6 109 12 149 26 175 6 12 10 23 8 25 -8 8 -81 23 -92 19 -6 -2 -12 4
-13 15 -2 21 -3 21 127 24 47 1 97 -2 111 -6 24 -8 27 -6 31 24 8 51 -1 71
-26 62 -11 -4 -59 -7 -106 -6 -122 3 -130 4 -124 14 2 5 7 39 10 76 3 38 5 73
6 78 1 6 43 11 97 12 103 3 113 8 109 58 l-3 30 -93 3 c-52 2 -99 -1 -105 -7
-16 -12 -174 -13 -182 -1 -3 5 -21 9 -40 8 -39 -1 -50 -20 -39 -62 8 -32 37
-41 108 -32 l52 6 -4 -58 c-2 -31 -5 -72 -6 -90 l-1 -34 -71 7 c-61 5 -74 4
-90 -12 -17 -17 -18 -17 -10 2 10 22 16 54 19 100 l2 30 -93 -4 -93 -3 6 33
c11 61 26 114 41 137 8 12 12 26 10 31 -9 13 -105 33 -107 22z m128 -308 c-1
-10 -6 -23 -10 -29 -4 -7 -7 -23 -6 -35 2 -48 -25 -173 -41 -192 -4 -4 -27 4
-52 18 l-46 26 25 87 c25 90 31 112 32 124 1 4 22 9 49 11 26 2 48 4 49 5 2 1
2 -6 0 -15z"/>
</g>
</svg>
