<?xml version="1.0" standalone="no"?>
<!DOCTYPE svg PUBLIC "-//W3C//DTD SVG 20010904//EN"
 "http://www.w3.org/TR/2001/REC-SVG-20010904/DTD/svg10.dtd">
<svg version="1.0" xmlns="http://www.w3.org/2000/svg"
 width="101.000000pt" height="101.000000pt" viewBox="0 0 101.000000 101.000000"
 preserveAspectRatio="xMidYMid meet">
<metadata>
Created by potrace 1.16, written by Peter Selinger 2001-2019
</metadata>
<g transform="translate(0.000000,101.000000) scale(0.100000,-0.100000)"
fill="#000000" stroke="none">
<path d="M176 984 c-4 -14 -4 -41 0 -60 4 -21 2 -40 -6 -49 -6 -7 -11 -24 -10
-37 5 -58 3 -61 -40 -54 -49 8 -80 -7 -80 -37 0 -37 16 -51 59 -51 38 -1 40
-3 36 -26 -3 -14 -8 -38 -11 -55 -2 -16 -14 -60 -24 -96 -11 -36 -20 -69 -20
-71 0 -3 31 -24 70 -47 38 -23 72 -46 75 -51 9 -15 -103 -124 -154 -150 l-43
-22 36 -24 c20 -14 36 -29 36 -34 0 -25 31 -3 112 81 l88 90 25 -25 c14 -14
29 -26 33 -26 7 0 62 65 62 73 0 2 -18 16 -41 31 -30 21 -39 32 -33 44 10 24
55 183 58 208 2 11 6 26 9 31 4 6 9 44 12 86 5 68 4 76 -13 81 -11 4 -32 2
-47 -4 -16 -6 -47 -8 -71 -4 l-43 6 5 41 c3 23 14 66 24 97 10 30 16 57 14 59
-3 3 -20 5 -39 4 -19 -1 -35 3 -35 8 0 22 -38 7 -44 -17z m148 -309 c-2 -16
-5 -43 -8 -60 -3 -16 -8 -48 -11 -70 -6 -45 -24 -106 -34 -117 -4 -4 -25 5
-47 20 -46 31 -48 46 -19 147 9 33 19 71 22 85 4 23 9 25 53 25 47 0 48 0 44
-30z"/>
<path d="M488 953 c-20 -5 -30 -30 -23 -53 9 -29 12 -294 4 -318 -5 -13 -4
-32 3 -48 9 -19 9 -33 -2 -62 -7 -20 -14 -46 -16 -57 -11 -90 -42 -166 -93
-229 -17 -21 -31 -42 -31 -45 1 -3 21 -16 46 -27 l46 -22 29 45 c24 40 78 178
85 223 2 8 5 29 8 45 11 59 21 161 21 210 l0 50 115 -3 c203 -6 220 -6 227 2
5 4 9 70 10 146 l2 138 -37 5 c-20 3 -55 4 -77 1 -67 -9 -126 -9 -215 -3 -47
4 -92 5 -102 2z m302 -82 c23 -6 25 -10 25 -70 l0 -63 -50 6 c-27 3 -85 6
-127 6 l-76 0 1 58 2 57 48 -4 c27 -1 54 2 60 8 12 12 75 13 117 2z"/>
<path d="M607 619 c-3 -12 -2 -30 3 -38 5 -9 7 -59 5 -111 -3 -52 -5 -120 -7
-150 -2 -62 6 -143 17 -160 14 -22 74 -41 94 -30 11 5 52 8 93 6 85 -5 112 7
134 59 19 45 18 64 -3 72 -10 3 -30 15 -45 25 -21 14 -28 16 -29 6 -1 -30 -10
-63 -19 -72 -10 -10 -49 -18 -99 -19 -42 0 -74 35 -66 73 4 14 7 36 8 50 2 20
22 36 112 87 61 35 116 63 123 63 23 0 12 28 -24 59 l-35 31 -57 -48 c-31 -27
-72 -59 -90 -71 -28 -19 -33 -20 -38 -7 -3 9 -3 28 2 44 4 15 8 36 9 47 1 11
5 37 10 58 4 20 3 37 -1 38 -5 0 -28 3 -50 5 -36 4 -42 2 -47 -17z"/>
</g>
</svg>
