<?xml version="1.0" standalone="no"?>
<!DOCTYPE svg PUBLIC "-//W3C//DTD SVG 20010904//EN"
 "http://www.w3.org/TR/2001/REC-SVG-20010904/DTD/svg10.dtd">
<svg version="1.0" xmlns="http://www.w3.org/2000/svg"
 width="101.000000pt" height="102.000000pt" viewBox="0 0 101.000000 102.000000"
 preserveAspectRatio="xMidYMid meet">
<metadata>
Created by potrace 1.16, written by Peter Selinger 2001-2019
</metadata>
<g transform="translate(0.000000,102.000000) scale(0.100000,-0.100000)"
fill="#000000" stroke="none">
<path d="M443 973 l4 -48 -136 0 c-75 0 -142 4 -149 8 -23 15 -59 -1 -66 -29
-12 -47 8 -74 49 -64 6 1 34 2 63 1 30 -1 60 3 68 10 9 8 38 9 92 4 72 -6 78
-9 78 -28 -1 -12 -5 -25 -11 -29 -15 -11 -103 -10 -110 2 -3 5 -35 9 -70 8
-61 -2 -65 -3 -70 -29 -4 -15 -1 -38 5 -50 13 -23 -2 -23 190 -3 l65 6 0 -31
0 -31 -95 5 c-52 2 -132 7 -177 11 -90 8 -113 -1 -113 -40 0 -47 21 -55 105
-41 72 12 159 16 221 10 59 -6 61 -7 61 -35 0 -26 -4 -29 -44 -35 -23 -3 -48
-3 -54 1 -21 13 -155 22 -165 11 -9 -9 -10 -65 -1 -73 3 -3 16 -5 29 -5 83 6
178 5 184 -2 4 -4 -2 -18 -14 -30 -21 -20 -31 -22 -135 -21 -61 1 -131 4 -153
7 -35 5 -43 3 -47 -12 -14 -56 19 -90 70 -70 14 5 29 7 34 4 5 -3 17 -1 28 5
12 6 43 8 75 4 l55 -7 -36 -44 c-20 -24 -34 -45 -32 -48 5 -4 41 -12 94 -20
17 -3 39 -7 50 -9 11 -3 28 -5 38 -5 10 -1 16 -5 13 -10 -5 -8 -38 -16 -106
-27 -8 -1 -42 -7 -74 -14 -41 -8 -66 -9 -82 -1 -22 10 -68 4 -62 -8 49 -94 40
-90 138 -76 86 12 199 42 273 74 l46 20 70 -24 c39 -13 98 -36 131 -51 33 -15
62 -25 63 -23 2 2 15 21 30 41 15 20 24 39 20 41 -5 3 -57 19 -118 37 -60 18
-111 34 -113 35 -8 7 84 113 95 110 6 -2 25 1 41 7 22 9 39 8 75 -5 56 -19 84
-13 90 20 8 43 -2 65 -27 56 -11 -4 -36 -7 -53 -5 -18 1 -61 2 -95 1 -111 0
-262 0 -286 2 l-24 1 22 23 c25 26 25 26 193 28 145 1 137 -5 123 94 -5 30 -3
31 27 29 18 -2 41 -6 52 -9 11 -4 26 -3 34 2 19 12 19 70 0 82 -14 10 -56 7
-94 -5 -19 -7 -20 -3 -20 62 l0 68 -40 -7 c-58 -12 -175 -11 -175 1 0 6 -11
10 -24 10 -13 0 -26 7 -30 15 -4 12 4 15 39 15 25 0 45 5 45 10 0 6 11 10 25
10 14 0 25 -5 25 -10 0 -7 42 -9 115 -8 111 3 116 4 122 25 3 13 3 33 -1 46
-5 20 -11 22 -92 24 -47 2 -91 -1 -98 -5 -6 -4 -47 -7 -91 -7 -87 0 -88 1 -74
65 3 12 -5 14 -38 12 -26 -2 -43 1 -43 7 0 6 -7 11 -15 11 -13 0 -15 -10 -12
-47z m273 -276 c-1 -32 -37 -48 -66 -29 -9 5 -39 9 -66 9 -46 -2 -49 0 -50 23
-1 25 -1 25 91 25 l92 0 -1 -28z m-25 -87 c22 0 26 -5 26 -29 0 -27 -2 -29
-59 -35 -33 -3 -68 -1 -78 4 -10 5 -25 8 -33 5 -10 -4 -14 3 -14 25 0 23 4 29
16 25 9 -2 23 0 31 6 8 5 31 7 50 4 19 -2 47 -5 61 -5z m-79 -249 c15 -6 12
-12 -24 -49 -28 -29 -46 -41 -57 -37 -17 7 -31 10 -95 20 -21 3 -43 8 -47 11
-15 9 22 55 40 49 9 -2 22 -1 30 4 16 11 127 12 153 2z"/>
</g>
</svg>
