<?xml version="1.0" standalone="no"?>
<!DOCTYPE svg PUBLIC "-//W3C//DTD SVG 20010904//EN"
 "http://www.w3.org/TR/2001/REC-SVG-20010904/DTD/svg10.dtd">
<svg version="1.0" xmlns="http://www.w3.org/2000/svg"
 width="101.000000pt" height="101.000000pt" viewBox="0 0 101.000000 101.000000"
 preserveAspectRatio="xMidYMid meet">
<metadata>
Created by potrace 1.16, written by Peter Selinger 2001-2019
</metadata>
<g transform="translate(0.000000,101.000000) scale(0.100000,-0.100000)"
fill="#000000" stroke="none">
<path d="M735 984 c-23 -12 -48 -14 -115 -9 -61 5 -101 2 -142 -8 -63 -17
-214 -22 -223 -7 -6 9 -66 12 -96 4 -15 -4 -15 -8 0 -49 20 -56 39 -61 195
-49 l112 9 -1 -36 0 -36 -190 1 -190 1 -3 -27 c-2 -15 2 -37 8 -48 10 -18 18
-21 48 -16 55 9 183 12 211 6 23 -6 22 -8 -21 -33 -79 -46 -169 -77 -238 -81
-33 -1 -32 -14 7 -60 l32 -39 48 18 c92 35 179 83 231 130 l52 47 1 -39 c1
-21 0 -42 -1 -48 -1 -5 -3 -19 -4 -31 0 -14 -6 -19 -17 -17 -10 3 -26 -14 -47
-47 -30 -47 -35 -52 -60 -45 -15 3 -35 6 -44 5 -22 -1 -97 0 -165 3 -59 2 -66
-2 -66 -43 0 -46 -4 -45 123 -35 36 3 80 3 99 -1 l34 -5 -42 -43 -43 -43 29
-8 c15 -4 37 -9 48 -11 11 -2 52 -11 90 -20 65 -16 68 -18 40 -26 -16 -4 -46
-10 -65 -12 -19 -2 -47 -9 -62 -15 -31 -12 -146 -12 -169 0 -9 4 -25 5 -37 2
-21 -5 -21 -6 -3 -32 10 -14 22 -36 25 -48 7 -22 21 -28 56 -25 35 3 117 13
145 18 17 3 37 6 45 8 29 5 126 39 164 58 l39 20 66 -28 c36 -15 93 -40 125
-56 33 -15 61 -28 62 -28 2 0 17 21 35 46 24 35 28 48 19 54 -7 4 -64 23 -126
40 l-113 33 40 56 c29 41 48 57 67 59 58 6 89 6 133 0 45 -7 47 -6 52 18 9 51
-1 62 -63 69 -39 5 -66 3 -82 -6 -20 -11 -203 -16 -296 -9 l-24 2 27 28 c15
16 25 33 21 38 -3 5 8 12 24 15 l30 6 -3 73 -3 73 54 -54 c37 -36 80 -65 135
-91 107 -50 145 -58 153 -33 4 10 17 32 30 49 l22 30 -41 11 c-23 7 -49 12
-57 12 -47 0 -166 49 -194 80 -13 14 -2 16 120 16 121 0 135 2 140 18 16 51
-22 87 -74 70 -15 -4 -85 -8 -157 -8 l-130 0 0 35 c0 38 -5 36 117 39 15 1 29
5 33 11 8 14 71 13 112 -2 18 -6 35 -9 39 -5 21 21 -46 117 -83 117 -10 0 -31
-7 -48 -16z m-130 -586 c3 -3 -12 -24 -32 -47 l-38 -42 -75 21 c-41 12 -77 23
-79 26 -9 9 33 44 48 39 9 -2 23 0 31 5 15 9 136 8 145 -2z"/>
</g>
</svg>
