<?xml version="1.0" standalone="no"?>
<!DOCTYPE svg PUBLIC "-//W3C//DTD SVG 20010904//EN"
 "http://www.w3.org/TR/2001/REC-SVG-20010904/DTD/svg10.dtd">
<svg version="1.0" xmlns="http://www.w3.org/2000/svg"
 width="101.000000pt" height="101.000000pt" viewBox="0 0 101.000000 101.000000"
 preserveAspectRatio="xMidYMid meet">
<metadata>
Created by potrace 1.16, written by Peter Selinger 2001-2019
</metadata>
<g transform="translate(0.000000,101.000000) scale(0.100000,-0.100000)"
fill="#000000" stroke="none">
<path d="M176 978 c-5 -35 -6 -38 -10 -104 -2 -23 -6 -46 -10 -53 -4 -6 -5
-15 -2 -19 3 -5 -24 -7 -59 -5 -62 2 -65 2 -71 -24 -4 -14 -3 -38 2 -52 8 -21
17 -27 46 -29 21 -2 47 2 59 8 19 10 20 10 15 -8 -9 -28 -17 -62 -22 -95 -2
-15 -11 -56 -20 -90 -16 -62 -16 -62 7 -77 13 -8 45 -32 71 -53 l48 -38 -26
-35 c-23 -29 -86 -81 -160 -132 -16 -11 -17 -14 -4 -19 8 -3 27 -19 42 -34
l28 -28 48 39 c27 20 70 62 96 91 l47 54 30 -35 29 -34 38 37 37 38 -43 38
-44 38 13 44 c7 24 14 53 16 64 2 11 6 34 9 50 4 17 6 72 5 123 -1 73 2 96 14
109 9 8 15 23 13 32 -3 13 -17 16 -84 16 -80 0 -81 0 -77 25 8 57 27 133 38
150 11 17 -14 30 -47 23 -17 -3 -28 -1 -28 6 0 6 -9 11 -20 11 -14 0 -20 -9
-24 -32z m129 -304 c-1 -17 -5 -36 -9 -42 -4 -7 -6 -31 -6 -54 1 -38 -2 -68
-14 -133 -4 -23 -17 -22 -55 6 -20 15 -27 28 -25 47 6 60 15 105 24 122 6 10
11 34 12 52 3 32 5 34 39 33 33 0 35 -2 34 -31z"/>
<path d="M780 993 c-8 -3 -18 -11 -22 -16 -9 -15 -8 -96 2 -102 12 -8 11 -173
-1 -181 -5 -3 -9 -32 -8 -63 1 -32 -1 -63 -5 -69 -3 -6 -1 -22 6 -36 8 -19 8
-32 1 -49 -6 -12 -18 -43 -28 -69 -24 -70 -93 -141 -177 -183 -39 -19 -79 -35
-89 -35 -32 0 -26 -14 21 -57 l46 -42 64 40 c36 23 94 70 131 105 l65 65 42
-74 c23 -40 42 -78 42 -85 0 -7 3 -12 6 -12 12 0 93 55 94 64 0 4 -34 51 -75
104 -48 61 -73 102 -70 112 7 23 16 94 20 165 2 33 6 107 9 165 8 128 14 188
21 215 5 17 -1 23 -28 33 -36 13 -44 14 -67 5z"/>
<path d="M538 962 c-33 -20 -34 -26 -9 -60 10 -15 23 -37 30 -49 11 -22 10
-22 -16 -12 -15 6 -42 8 -59 5 l-31 -6 3 -138 c2 -75 4 -153 4 -172 2 -86 -7
-158 -24 -189 l-18 -34 31 -31 31 -31 109 115 109 114 -17 26 c-10 14 -21 34
-25 45 -7 18 -10 16 -39 -20 -18 -21 -42 -51 -54 -65 l-22 -25 5 140 c3 77 7
160 9 185 2 25 4 48 4 53 2 22 21 1 41 -45 12 -29 23 -54 25 -56 4 -4 95 37
95 43 0 5 -90 169 -113 206 -15 23 -34 24 -69 1z"/>
</g>
</svg>
