<?xml version="1.0" standalone="no"?>
<!DOCTYPE svg PUBLIC "-//W3C//DTD SVG 20010904//EN"
 "http://www.w3.org/TR/2001/REC-SVG-20010904/DTD/svg10.dtd">
<svg version="1.0" xmlns="http://www.w3.org/2000/svg"
 width="101.000000pt" height="101.000000pt" viewBox="0 0 101.000000 101.000000"
 preserveAspectRatio="xMidYMid meet">
<metadata>
Created by potrace 1.16, written by Peter Selinger 2001-2019
</metadata>
<g transform="translate(0.000000,101.000000) scale(0.100000,-0.100000)"
fill="#000000" stroke="none">
<path d="M148 948 c1 -24 -1 -70 -5 -102 l-8 -59 -45 -1 c-48 0 -60 -9 -60
-43 0 -29 25 -53 56 -53 28 0 31 -12 19 -77 -2 -15 -7 -39 -10 -53 -3 -14 -7
-37 -10 -52 -3 -15 -9 -38 -15 -52 -9 -24 -6 -27 60 -62 39 -20 70 -40 70 -44
0 -16 -81 -107 -124 -139 -44 -33 -57 -51 -37 -51 5 0 24 -12 41 -26 l31 -27
36 34 c19 19 55 62 80 97 l46 63 41 -40 42 -41 31 37 c35 43 34 44 34 -64 1
-43 4 -52 21 -57 12 -3 29 -1 37 4 9 5 59 7 111 5 149 -7 202 -6 246 0 22 4
57 2 76 -3 35 -10 36 -9 41 21 9 62 2 68 -77 67 -115 -2 -114 -3 -121 40 -4
22 -2 47 4 59 6 11 8 26 5 34 -6 16 3 18 88 19 43 0 47 2 43 22 -7 27 -7 139
-1 238 4 76 4 78 -20 84 -13 3 -32 3 -41 -1 -10 -4 -30 -9 -45 -10 l-28 -3 3
67 2 66 88 0 c82 0 88 2 93 21 3 12 4 32 2 44 -3 22 -8 23 -127 27 -70 2 -128
0 -135 -6 -14 -12 -173 -13 -181 -1 -10 16 -84 9 -89 -9 -8 -30 -5 -90 4 -96
12 -8 12 -173 -1 -180 -12 -8 -12 -142 1 -150 14 -8 13 -52 -1 -61 -8 -4 -10
-29 -6 -70 l5 -63 -54 41 c-30 22 -54 41 -54 42 0 0 7 24 16 51 25 82 37 160
36 239 -1 40 3 63 14 73 8 9 13 20 11 26 -5 15 -66 28 -97 21 -14 -4 -37 -7
-52 -8 -20 -1 -24 2 -18 14 5 8 8 26 8 40 1 43 11 92 24 107 17 21 -3 35 -59
40 l-48 3 3 -42z m518 -111 c1 -1 4 -29 8 -63 l7 -61 -28 3 c-15 2 -35 4 -43
5 -44 6 -50 0 -50 -51 0 -27 5 -50 10 -50 15 0 12 -67 -2 -74 -10 -5 -10 -7 0
-12 16 -7 17 -130 0 -140 -20 -12 31 -25 53 -13 32 17 54 7 57 -26 5 -42 4
-126 -1 -131 -4 -4 -90 -6 -137 -3 -25 1 -26 3 -23 65 2 35 -1 65 -7 69 -13 8
-13 52 0 60 12 7 12 153 0 160 -12 8 -11 147 1 161 6 8 9 35 7 62 l-3 48 74
-3 c41 -2 76 -5 77 -6z m-393 -174 c-3 -58 -10 -119 -17 -153 -20 -94 -15 -89
-57 -60 -29 22 -31 37 -14 130 3 14 7 39 9 55 7 55 11 60 46 66 19 3 35 7 35
8 1 0 0 -20 -2 -46z m523 -23 c7 0 13 -12 13 -27 3 -50 1 -147 -3 -150 -4 -4
-95 -6 -132 -3 -18 2 -23 11 -28 57 -4 30 -2 62 4 73 5 10 7 26 3 35 -5 14 -2
16 13 11 10 -3 26 -1 34 5 8 5 31 7 50 4 19 -2 40 -5 46 -5z"/>
</g>
</svg>
