<?xml version="1.0" standalone="no"?>
<!DOCTYPE svg PUBLIC "-//W3C//DTD SVG 20010904//EN"
 "http://www.w3.org/TR/2001/REC-SVG-20010904/DTD/svg10.dtd">
<svg version="1.0" xmlns="http://www.w3.org/2000/svg"
 width="101.000000pt" height="101.000000pt" viewBox="0 0 101.000000 101.000000"
 preserveAspectRatio="xMidYMid meet">
<metadata>
Created by potrace 1.16, written by Peter Selinger 2001-2019
</metadata>
<g transform="translate(0.000000,101.000000) scale(0.100000,-0.100000)"
fill="#000000" stroke="none">
<path d="M198 970 c3 -24 -2 -54 -12 -75 -9 -18 -16 -47 -16 -62 1 -54 -2 -58
-34 -57 -17 1 -41 4 -54 8 -30 10 -52 -9 -52 -45 0 -43 26 -62 75 -56 41 4 42
4 39 -25 -5 -37 -29 -131 -48 -186 l-15 -41 70 -37 c38 -20 69 -42 69 -49 0
-14 -123 -144 -159 -168 l-25 -17 40 -34 c21 -20 42 -35 46 -36 8 0 103 111
144 168 16 23 32 41 35 39 4 -1 24 -18 45 -37 33 -30 39 -43 42 -80 3 -52 4
-52 34 -51 55 3 189 11 259 16 53 3 89 1 117 -9 32 -12 47 -12 72 -3 24 9 35
9 51 -1 25 -16 26 -15 30 23 5 63 7 61 -98 62 -147 2 -142 1 -149 38 -3 18 -1
42 5 53 6 11 8 27 5 35 -6 17 5 19 117 17 75 -1 77 -1 82 25 2 15 2 36 0 46
-5 16 -11 18 -47 12 -22 -4 -57 -7 -76 -6 -19 2 -45 3 -58 4 -21 1 -22 5 -17
54 4 51 4 54 -25 63 -59 21 -89 -9 -67 -68 8 -22 8 -33 0 -41 -12 -12 -74 -15
-139 -6 -35 5 -43 3 -47 -12 -14 -54 22 -93 65 -70 10 5 40 7 67 3 53 -7 50
-3 54 -91 0 -23 -1 -45 -4 -47 -13 -13 -203 -6 -217 8 -2 3 8 17 22 31 14 14
26 30 26 34 0 7 -88 69 -107 75 -1 1 10 42 24 91 13 50 27 101 29 115 2 14 6
39 9 55 3 17 7 55 10 85 l5 55 -86 -1 c-75 -2 -85 0 -78 15 3 9 8 27 10 41 10
58 20 97 39 141 7 20 -13 30 -70 35 l-41 4 4 -40z m116 -307 c-6 -71 -17 -136
-35 -199 l-11 -42 -43 24 -43 25 20 72 c18 67 24 93 27 125 0 6 13 12 29 12
15 0 34 5 42 10 8 5 15 10 16 10 1 0 0 -17 -2 -37z"/>
<path d="M615 991 c-3 -11 -3 -31 1 -45 3 -14 7 -38 8 -53 l2 -29 -88 3 c-86
3 -88 3 -94 -22 -3 -14 -3 -36 0 -49 6 -23 9 -23 90 -22 l84 2 4 -57 3 -57
-58 -6 c-32 -3 -66 -2 -76 4 -42 22 -74 -10 -64 -64 6 -32 20 -34 98 -19 47 9
318 5 346 -5 39 -15 76 -4 82 25 10 53 0 63 -62 62 -31 0 -65 0 -76 1 -11 1
-38 -1 -60 -3 l-40 -5 0 61 0 62 35 -2 c19 -1 63 1 97 4 68 6 80 18 67 68 -6
24 -10 26 -36 21 -17 -3 -61 -3 -98 0 l-68 7 3 41 c2 22 6 53 10 69 l7 27 -55
0 c-46 0 -57 -3 -62 -19z"/>
</g>
</svg>
