<?xml version="1.0" standalone="no"?>
<!DOCTYPE svg PUBLIC "-//W3C//DTD SVG 20010904//EN"
 "http://www.w3.org/TR/2001/REC-SVG-20010904/DTD/svg10.dtd">
<svg version="1.0" xmlns="http://www.w3.org/2000/svg"
 width="101.000000pt" height="102.000000pt" viewBox="0 0 101.000000 102.000000"
 preserveAspectRatio="xMidYMid meet">
<metadata>
Created by potrace 1.16, written by Peter Selinger 2001-2019
</metadata>
<g transform="translate(0.000000,102.000000) scale(0.100000,-0.100000)"
fill="#000000" stroke="none">
<path d="M635 1008 c-22 -6 -41 -12 -43 -13 -1 -1 2 -15 9 -31 6 -16 12 -36
14 -44 2 -8 7 -23 10 -33 7 -17 1 -18 -86 -15 l-94 3 3 -125 c3 -141 3 -247
-1 -431 -2 -103 -5 -130 -19 -146 -16 -17 -16 -20 4 -51 11 -17 24 -32 28 -32
5 0 50 29 100 64 50 36 96 66 103 69 8 2 7 15 -7 45 -11 23 -21 42 -23 42 -3
0 -25 -16 -49 -36 -25 -20 -48 -34 -52 -30 -4 4 -6 49 -5 99 3 141 1 133 38
134 31 1 34 -2 40 -39 18 -107 122 -247 227 -307 l51 -29 43 46 c24 26 43 50
44 53 0 3 -29 14 -65 24 -60 16 -145 65 -145 83 0 4 36 25 80 47 86 42 87 45
28 87 l-29 20 -27 -24 c-29 -26 -87 -68 -95 -68 -7 0 -27 50 -32 82 -4 21 -1
26 17 27 13 1 39 2 58 4 19 1 56 -1 81 -5 42 -7 47 -5 52 14 3 12 -1 37 -9 56
-16 39 -19 138 -4 147 5 3 9 34 8 68 -1 35 1 67 4 73 14 22 -11 33 -86 38 -43
3 -80 6 -82 8 -2 2 -5 20 -7 39 -4 40 -26 99 -35 98 -4 -1 -25 -6 -47 -11z
m123 -215 l53 -6 -3 -36 -3 -36 -75 -9 c-53 -6 -75 -5 -78 3 -2 6 -26 11 -57
11 -51 0 -53 1 -57 30 -4 27 -2 30 24 30 15 0 28 5 28 10 0 11 88 13 168 3z
m12 -148 c22 -5 26 -11 28 -50 1 -42 0 -44 -31 -50 -17 -3 -68 -3 -112 0 -44
3 -90 6 -102 6 -20 1 -22 6 -21 45 2 34 6 43 18 39 8 -2 21 -1 29 4 15 10 153
14 191 6z"/>
<path d="M188 987 c0 -7 -2 -34 -4 -62 -2 -27 -5 -66 -8 -85 -2 -19 -5 -39 -5
-45 -1 -6 -31 -10 -68 -10 l-68 0 -3 -30 c-4 -47 11 -60 66 -60 l49 0 -4 -33
c-2 -19 -18 -77 -34 -130 -17 -53 -27 -98 -23 -99 32 -11 129 -72 132 -83 3
-7 -35 -51 -84 -98 -52 -50 -84 -87 -76 -90 7 -2 26 -15 43 -29 l30 -26 25 24
c14 13 49 54 77 92 29 37 57 67 63 67 6 0 24 -16 39 -36 l27 -36 34 33 c19 18
34 36 34 40 0 4 -22 25 -49 46 -55 44 -55 45 -21 158 12 39 23 79 25 90 2 11
6 31 9 45 11 50 15 76 21 112 l5 36 -85 7 c-47 4 -82 11 -79 16 5 9 7 16 18
68 3 13 13 44 22 68 14 37 15 46 4 53 -21 13 -110 11 -112 -3z m126 -317 c-3
-14 -8 -34 -9 -45 -2 -11 -6 -33 -9 -50 -4 -16 -9 -45 -12 -64 -3 -19 -10 -45
-15 -58 l-9 -23 -40 26 c-33 22 -39 31 -34 48 25 77 39 138 43 176 1 12 13 15
46 15 44 0 46 -1 39 -25z"/>
</g>
</svg>
