<?xml version="1.0" standalone="no"?>
<!DOCTYPE svg PUBLIC "-//W3C//DTD SVG 20010904//EN"
 "http://www.w3.org/TR/2001/REC-SVG-20010904/DTD/svg10.dtd">
<svg version="1.0" xmlns="http://www.w3.org/2000/svg"
 width="101.000000pt" height="101.000000pt" viewBox="0 0 101.000000 101.000000"
 preserveAspectRatio="xMidYMid meet">
<metadata>
Created by potrace 1.16, written by Peter Selinger 2001-2019
</metadata>
<g transform="translate(0.000000,101.000000) scale(0.100000,-0.100000)"
fill="#000000" stroke="none">
<path d="M160 1003 c-12 -3 -14 -15 -11 -54 2 -34 -3 -64 -14 -90 -10 -21 -15
-45 -11 -55 5 -14 1 -15 -29 -10 -43 8 -75 -7 -75 -37 0 -37 16 -51 58 -51 22
-1 38 -4 36 -8 -3 -4 -7 -20 -9 -35 -9 -72 -33 -176 -49 -214 -5 -12 9 -25 59
-54 36 -21 65 -44 65 -51 0 -14 -93 -113 -130 -137 l-24 -17 34 -30 c19 -16
40 -29 45 -30 14 0 84 73 122 127 l30 42 23 -24 c30 -31 36 -31 65 2 32 37 31
44 -9 70 -37 24 -39 33 -16 113 7 25 14 52 16 60 1 8 5 29 9 45 3 17 7 42 9
56 1 14 5 30 9 36 4 5 9 39 12 73 6 71 -3 84 -43 69 -31 -12 -112 -1 -113 15
-1 6 0 16 1 21 2 6 4 25 6 44 2 19 9 49 15 69 9 27 9 36 -2 43 -7 4 -17 6 -21
3 -4 -3 -16 -1 -25 4 -10 5 -25 7 -33 5z m112 -323 c-2 -14 -5 -38 -7 -55 -14
-117 -34 -195 -48 -195 -17 0 -62 33 -64 46 -1 7 2 27 8 45 10 34 17 65 23
104 11 73 16 80 55 80 35 0 37 -2 33 -25z"/>
<path d="M410 960 c-9 -6 -5 -337 5 -397 4 -26 2 -56 -6 -80 -7 -21 -13 -54
-14 -73 -6 -98 -49 -213 -94 -254 -20 -18 -19 -19 25 -42 25 -13 47 -24 49
-24 20 0 87 174 100 260 8 48 18 155 18 177 -1 28 34 27 37 -2 1 -11 2 -81 2
-155 0 -98 -4 -145 -15 -171 -13 -31 -13 -38 0 -55 8 -10 18 -25 22 -32 5 -9
25 -1 77 32 112 73 106 65 91 114 l-13 42 -41 -30 -41 -30 -6 72 c-3 40 -4
100 -1 133 3 33 6 70 6 81 1 16 7 21 25 20 13 0 25 -5 25 -11 1 -5 3 -21 4
-35 3 -45 56 -184 87 -233 32 -50 122 -137 142 -137 12 0 81 79 75 84 -2 2
-27 15 -56 31 -28 15 -66 42 -83 60 l-32 33 64 52 c34 29 67 56 72 60 4 5 -11
21 -34 36 l-43 29 -16 -25 c-9 -14 -28 -38 -42 -54 l-26 -30 -12 36 c-7 20
-14 49 -17 64 -3 15 -7 31 -9 35 -3 4 5 7 18 8 75 5 97 4 138 -3 45 -8 46 -7
51 19 10 51 0 65 -51 67 -25 1 -71 0 -101 -1 -59 -3 -242 -3 -275 0 -18 1 -20
7 -17 55 3 35 0 54 -7 54 -6 0 -11 11 -11 25 0 14 5 25 10 25 6 0 10 18 10 40
l0 40 49 0 c28 0 53 4 56 10 7 11 144 12 160 1 6 -3 28 -6 50 -7 22 0 52 -4
66 -8 31 -9 59 14 59 47 0 38 -16 51 -57 48 -21 -1 -91 -1 -155 -1 -79 1 -118
-2 -118 -9 0 -6 -16 -11 -35 -11 -19 0 -35 4 -35 9 0 10 -117 20 -130 11z"/>
<path d="M535 756 c-1 -62 -3 -61 242 -49 122 6 131 11 118 66 l-6 24 -177 2
-177 2 0 -45z"/>
</g>
</svg>
