<?xml version="1.0" standalone="no"?>
<!DOCTYPE svg PUBLIC "-//W3C//DTD SVG 20010904//EN"
 "http://www.w3.org/TR/2001/REC-SVG-20010904/DTD/svg10.dtd">
<svg version="1.0" xmlns="http://www.w3.org/2000/svg"
 width="101.000000pt" height="101.000000pt" viewBox="0 0 101.000000 101.000000"
 preserveAspectRatio="xMidYMid meet">
<metadata>
Created by potrace 1.16, written by Peter Selinger 2001-2019
</metadata>
<g transform="translate(0.000000,101.000000) scale(0.100000,-0.100000)"
fill="#000000" stroke="none">
<path d="M179 1003 c-11 -2 -15 -12 -12 -27 3 -13 -3 -35 -12 -49 -9 -14 -16
-44 -15 -69 1 -90 -1 -93 -59 -93 -55 0 -69 -14 -56 -55 7 -21 62 -37 90 -26
10 3 13 2 10 -5 -4 -5 -8 -29 -10 -52 -2 -23 -6 -53 -9 -67 -8 -35 -15 -69
-22 -110 -6 -35 -5 -36 55 -65 34 -16 61 -34 61 -40 0 -32 -105 -144 -156
-167 -28 -13 -31 -28 -6 -28 10 0 33 -11 52 -25 l34 -25 24 23 c24 22 104 125
122 156 7 14 13 12 42 -16 19 -18 37 -33 40 -33 4 0 20 18 37 39 l31 39 -32
21 c-71 45 -71 46 -57 88 7 21 14 45 15 53 2 8 5 29 9 45 17 86 25 150 29 223
2 37 0 43 -21 49 -14 3 -28 2 -33 -3 -5 -5 -29 -8 -54 -6 -43 4 -44 5 -40 35
4 31 16 96 29 148 6 22 3 27 -17 31 -12 3 -30 8 -38 11 -8 2 -22 3 -31 0z
m106 -340 c-4 -16 -9 -44 -11 -63 -1 -19 -5 -46 -8 -60 -3 -14 -8 -34 -10 -45
-2 -11 -7 -32 -11 -47 l-7 -27 -34 22 c-22 15 -32 27 -28 37 4 8 8 26 10 40 1
14 6 41 9 60 4 19 8 46 10 60 1 14 3 28 4 32 0 4 18 9 39 11 20 2 39 4 41 5 2
1 0 -10 -4 -25z"/>
<path d="M428 959 c-13 -7 -18 -23 -18 -54 0 -25 5 -45 10 -45 6 0 10 -16 10
-35 0 -19 -4 -35 -10 -35 -17 0 -11 -77 7 -95 13 -13 27 -16 62 -11 83 10 281
14 287 5 9 -15 71 -10 88 6 11 11 13 22 7 38 -5 12 -6 68 -4 124 3 94 2 102
-16 108 -11 3 -28 2 -38 -3 -18 -9 -328 -7 -355 3 -7 2 -21 0 -30 -6z m347
-138 l0 -53 -59 6 c-32 3 -92 6 -132 6 l-74 0 3 48 2 47 130 0 130 0 0 -54z"/>
<path d="M407 620 c-8 -30 4 -70 22 -72 18 -1 22 -1 109 7 63 5 63 5 56 -17
-4 -13 -8 -33 -7 -45 1 -32 -48 -37 -179 -20 -29 4 -37 2 -41 -13 -14 -52 23
-92 64 -70 18 10 139 2 139 -9 0 -4 -13 -28 -30 -54 -32 -50 -128 -121 -180
-132 -43 -10 -44 -19 -4 -59 l36 -36 58 31 c73 39 145 110 173 171 l21 46 27
-47 c15 -26 50 -68 77 -92 57 -51 164 -109 169 -92 3 7 17 30 33 52 l30 40
-42 12 c-72 19 -154 66 -192 110 -42 50 -44 57 -13 58 12 1 49 3 82 6 33 2 75
-1 93 -6 18 -6 36 -9 38 -6 3 2 6 23 7 46 2 53 -13 63 -65 45 -25 -9 -63 -12
-106 -9 -37 3 -77 6 -90 6 -19 1 -21 5 -15 23 4 11 7 31 6 43 -1 20 3 21 56
17 31 -2 65 -4 76 -4 82 3 83 3 88 28 11 56 6 59 -116 55 -157 -6 -296 -6
-339 0 -29 4 -37 2 -41 -13z"/>
</g>
</svg>
