<?xml version="1.0" standalone="no"?>
<!DOCTYPE svg PUBLIC "-//W3C//DTD SVG 20010904//EN"
 "http://www.w3.org/TR/2001/REC-SVG-20010904/DTD/svg10.dtd">
<svg version="1.0" xmlns="http://www.w3.org/2000/svg"
 width="101.000000pt" height="101.000000pt" viewBox="0 0 101.000000 101.000000"
 preserveAspectRatio="xMidYMid meet">
<metadata>
Created by potrace 1.16, written by Peter Selinger 2001-2019
</metadata>
<g transform="translate(0.000000,101.000000) scale(0.100000,-0.100000)"
fill="#000000" stroke="none">
<path d="M178 956 c3 -36 -2 -66 -13 -90 -10 -20 -15 -41 -12 -48 3 -10 -10
-12 -54 -11 -49 2 -59 -1 -64 -17 -12 -38 5 -69 41 -76 19 -3 43 -4 54 -1 11
3 18 1 14 -4 -3 -5 -7 -27 -10 -49 -3 -23 -9 -52 -14 -66 -5 -13 -8 -24 -6
-24 2 0 -4 -28 -15 -62 -10 -34 -17 -63 -16 -63 1 -1 27 -16 58 -33 86 -49 87
-51 33 -111 -26 -29 -69 -65 -97 -81 -49 -28 -49 -28 -26 -40 13 -7 34 -21 46
-32 16 -15 26 -17 40 -10 21 12 110 104 136 142 l17 24 36 -34 c34 -33 37 -34
48 -17 6 10 17 26 24 35 13 16 13 16 8 0 -2 -9 0 -30 6 -46 9 -22 8 -39 -4
-74 -20 -58 -11 -73 43 -71 53 2 62 16 42 66 -13 31 -14 46 -5 69 6 16 8 36 5
44 -8 21 20 17 52 -8 31 -24 24 -31 81 69 l32 55 19 -29 c11 -15 28 -44 38
-63 10 -19 19 -36 20 -38 4 -5 85 42 85 48 0 3 -31 44 -69 90 -63 77 -81 120
-44 106 8 -3 23 -1 34 5 12 6 37 8 59 4 30 -5 38 -11 39 -28 0 -12 3 -56 6
-97 11 -149 -10 -200 -82 -194 l-40 3 21 -54 c20 -52 22 -54 56 -51 51 4 109
35 115 60 3 11 5 95 4 186 -1 91 1 186 4 213 l7 47 -57 -7 c-52 -7 -72 -7
-149 -2 -18 1 -22 7 -21 35 1 28 4 33 19 28 10 -3 49 -2 87 2 l70 6 -6 113
c-3 76 -1 115 6 119 16 10 13 42 -5 60 -17 18 -99 22 -109 7 -7 -12 -172 -13
-180 -2 -2 5 -36 9 -75 9 l-70 0 0 -59 c0 -33 4 -59 10 -59 6 0 10 -16 10 -35
0 -19 -5 -35 -10 -35 -6 0 -10 -24 -9 -59 2 -71 7 -74 100 -65 l67 6 4 -35 4
-35 -54 -6 c-29 -4 -58 -3 -64 0 -6 4 -30 9 -54 11 l-43 3 5 -42 c9 -63 10
-215 2 -224 -4 -3 -22 7 -41 23 l-33 29 18 69 c23 86 32 129 43 210 2 17 8 50
14 74 5 25 7 50 4 57 -7 18 -40 27 -71 19 -15 -4 -41 -8 -57 -10 -28 -2 -30
-1 -28 29 5 52 11 83 23 121 7 20 9 39 6 42 -3 3 -29 8 -58 10 l-53 4 3 -55z
m617 -148 l1 -71 -90 7 c-49 3 -108 6 -132 6 l-43 0 2 63 2 62 130 2 130 2 0
-71z m-493 -108 c-10 -117 -15 -156 -33 -222 -5 -21 -12 -38 -15 -38 -2 0 -20
10 -39 23 -23 14 -33 27 -29 37 6 15 8 28 18 89 3 18 9 43 12 55 8 22 14 50
16 79 2 14 10 17 37 15 34 -3 35 -5 33 -38z m301 -187 c12 -20 -35 -133 -72
-174 l-38 -44 -6 30 c-3 17 -4 55 -2 85 3 30 5 65 6 78 1 16 6 21 18 18 9 -3
23 -1 31 4 18 12 57 13 63 3z"/>
</g>
</svg>
