<?xml version="1.0" standalone="no"?>
<!DOCTYPE svg PUBLIC "-//W3C//DTD SVG 20010904//EN"
 "http://www.w3.org/TR/2001/REC-SVG-20010904/DTD/svg10.dtd">
<svg version="1.0" xmlns="http://www.w3.org/2000/svg"
 width="101.000000pt" height="101.000000pt" viewBox="0 0 101.000000 101.000000"
 preserveAspectRatio="xMidYMid meet">
<metadata>
Created by potrace 1.16, written by Peter Selinger 2001-2019
</metadata>
<g transform="translate(0.000000,101.000000) scale(0.100000,-0.100000)"
fill="#000000" stroke="none">
<path d="M178 1003 c-9 -3 -17 -12 -18 -21 -4 -77 -9 -130 -15 -144 -4 -9 -3
-22 1 -29 5 -9 -5 -10 -42 -6 -27 4 -54 3 -60 -1 -16 -10 -26 -49 -19 -71 7
-24 56 -36 84 -22 19 10 20 9 15 -21 -3 -18 -7 -47 -9 -65 -4 -30 -30 -139
-41 -166 -3 -8 20 -30 61 -58 36 -24 65 -48 65 -53 0 -20 -76 -100 -127 -134
l-54 -36 38 -33 c21 -18 43 -32 49 -33 11 0 89 79 137 140 l28 35 31 -38 31
-38 40 38 c24 23 37 31 34 20 -4 -10 -2 -27 4 -39 8 -15 7 -28 -5 -52 -28 -59
-5 -88 62 -78 31 4 37 13 34 53 -1 11 7 17 21 18 12 1 45 3 72 6 28 2 91 2
141 -1 l91 -6 0 -29 c0 -34 3 -38 29 -40 70 -7 69 -8 66 94 -5 137 -4 278 0
313 l5 31 -61 1 c-75 1 -162 1 -286 0 -52 0 -111 2 -132 5 -30 4 -37 2 -42
-16 -3 -11 -1 -27 3 -36 10 -19 13 -123 5 -164 l-6 -27 -44 32 c-24 17 -44 33
-44 35 0 2 9 36 21 76 19 68 23 85 34 147 27 152 32 186 28 197 -5 13 -100 28
-136 21 -19 -4 -22 -1 -19 26 7 80 11 98 26 120 13 20 13 25 2 29 -8 3 -24 3
-35 0 -12 -3 -21 -1 -21 5 0 12 -20 19 -42 15z m113 -322 c1 -14 1 -30 -1 -36
-1 -5 -3 -23 -6 -40 -12 -92 -35 -175 -47 -175 -7 1 -25 11 -41 24 -23 20 -26
27 -17 43 5 11 8 22 6 25 -3 2 0 20 6 39 6 19 12 45 15 59 3 14 6 34 9 45 2
11 4 27 4 35 1 12 10 15 36 12 30 -4 35 -8 36 -31z m444 -208 l91 -5 1 -38 2
-38 -92 -6 c-51 -3 -114 -3 -142 -1 -27 3 -60 5 -72 6 -19 1 -22 7 -20 40 1
30 5 38 17 34 8 -2 22 0 30 5 16 10 43 11 185 3z m0 -150 l91 -5 1 -38 2 -38
-92 -6 c-51 -3 -114 -3 -142 -1 -27 3 -60 5 -72 6 -19 1 -22 7 -20 40 1 30 5
38 17 34 8 -2 22 0 30 5 16 10 43 11 185 3z"/>
<path d="M446 951 c-8 -30 -5 -85 6 -98 6 -8 8 -55 4 -132 -6 -115 -5 -119 16
-124 12 -3 29 -2 37 3 9 5 59 7 111 4 135 -6 261 -6 267 0 3 3 8 46 11 96 3
64 1 90 -7 90 -6 0 -11 15 -11 35 0 19 5 35 10 35 6 0 10 20 10 45 0 40 -3 47
-26 55 -32 13 -151 13 -159 1 -7 -12 -172 -13 -180 -1 -10 16 -84 9 -89 -9z
m349 -94 l0 -32 -125 0 -125 0 -1 30 0 30 125 2 126 2 0 -32z m-31 -103 c47
-7 47 -7 44 -43 -3 -36 -3 -36 -63 -44 -41 -6 -71 -5 -97 4 -20 6 -52 9 -70 6
-32 -5 -33 -4 -34 29 0 31 2 34 28 34 15 0 28 5 28 10 0 11 93 13 164 4z"/>
</g>
</svg>
