<?xml version="1.0" standalone="no"?>
<!DOCTYPE svg PUBLIC "-//W3C//DTD SVG 20010904//EN"
 "http://www.w3.org/TR/2001/REC-SVG-20010904/DTD/svg10.dtd">
<svg version="1.0" xmlns="http://www.w3.org/2000/svg"
 width="101.000000pt" height="102.000000pt" viewBox="0 0 101.000000 102.000000"
 preserveAspectRatio="xMidYMid meet">
<metadata>
Created by potrace 1.16, written by Peter Selinger 2001-2019
</metadata>
<g transform="translate(0.000000,102.000000) scale(0.100000,-0.100000)"
fill="#000000" stroke="none">
<path d="M169 1008 c0 -7 -3 -22 -6 -33 -3 -11 -7 -47 -9 -80 -5 -93 -2 -88
-53 -81 -25 3 -50 2 -56 -2 -16 -11 -14 -90 3 -97 7 -3 19 -2 25 2 6 3 24 7
39 8 23 1 28 -2 23 -14 -4 -9 -8 -29 -11 -46 -2 -16 -6 -41 -9 -55 -3 -14 -7
-37 -10 -51 -3 -14 -11 -44 -19 -67 l-15 -41 52 -30 c98 -56 96 -49 39 -118
-28 -33 -71 -74 -96 -89 -25 -16 -45 -31 -45 -34 -1 -3 18 -20 40 -39 l40 -33
30 28 c17 16 56 62 87 102 l57 73 36 -41 c20 -22 40 -40 45 -40 4 0 18 10 31
22 18 17 23 18 23 6 0 -19 25 -27 68 -20 31 4 37 13 34 53 -1 11 7 17 21 17
12 1 33 2 47 4 27 3 27 6 35 -110 2 -35 0 -74 -5 -87 -10 -27 6 -35 56 -28 27
4 30 9 31 41 1 21 2 46 3 57 0 11 -1 44 -4 73 -3 43 -2 52 10 48 8 -3 25 -1
38 6 14 6 35 8 49 5 19 -5 23 -12 19 -35 -4 -32 15 -44 61 -35 21 4 25 11 29
56 3 29 3 72 1 97 -9 102 -11 225 -3 241 5 8 6 25 3 37 -4 17 -11 20 -27 16
-22 -5 -112 -7 -151 -4 -17 2 -20 9 -18 50 2 42 -1 48 -23 59 -58 26 -90 -4
-82 -76 4 -30 2 -32 -34 -38 -20 -4 -43 -3 -49 1 -7 4 -31 9 -54 10 -37 4 -43
1 -48 -18 -3 -12 -2 -29 4 -39 7 -15 4 -327 -4 -335 -1 -2 -23 17 -49 41 l-46
44 20 63 c11 35 22 74 24 88 1 14 6 43 9 65 4 22 9 61 12 88 5 44 7 47 33 47
37 0 63 26 58 59 l-4 26 77 -3 c47 -2 80 1 84 7 8 14 52 14 60 1 4 -7 35 -9
80 -6 l74 4 -5 -26 c-6 -35 5 -50 41 -57 43 -8 55 5 62 62 11 98 11 98 -123
99 -106 1 -118 3 -121 20 -2 11 -5 26 -8 34 -2 8 -4 18 -4 22 -2 19 -43 29
-76 18 -19 -6 -35 -13 -35 -15 0 -1 7 -19 15 -38 8 -20 15 -38 15 -39 0 -2
-49 -2 -110 -2 l-110 1 -6 -34 c-4 -19 -4 -37 0 -40 3 -3 -2 -12 -12 -19 -20
-16 -82 -19 -82 -4 0 6 -14 10 -30 10 -26 0 -29 3 -22 18 5 9 13 39 17 66 3
27 12 57 18 68 16 25 -5 38 -50 31 -21 -4 -33 -2 -33 6 0 15 -20 14 -21 -1z
m118 -292 c13 -10 -3 -145 -28 -238 l-10 -38 -38 26 c-37 24 -39 27 -29 57 5
18 11 41 13 52 2 11 7 34 10 50 7 33 13 73 14 92 1 9 11 11 34 6 17 -3 33 -7
34 -7z m318 -136 c0 -44 -1 -45 -30 -42 -16 1 -40 3 -52 3 -19 1 -22 6 -20 40
1 30 5 38 17 34 8 -2 22 0 30 5 8 6 24 9 35 8 17 -3 20 -11 20 -48z m200 42
c6 -4 11 -24 12 -44 3 -33 0 -38 -23 -44 -14 -4 -36 -2 -50 4 -13 7 -30 9 -38
6 -12 -5 -15 3 -13 35 1 32 5 40 17 36 8 -2 22 0 30 5 18 11 51 13 65 2z
m-200 -197 c0 -50 0 -50 -30 -47 -16 1 -40 3 -52 3 -20 1 -22 6 -21 45 2 34 6
43 18 39 8 -2 22 0 30 5 8 6 24 9 35 8 17 -3 20 -11 20 -53z m200 47 c6 -4 11
-26 13 -49 2 -38 0 -43 -24 -49 -14 -4 -36 -2 -50 4 -13 7 -30 9 -39 6 -12 -5
-14 3 -13 40 2 36 6 45 18 41 8 -2 22 0 30 5 18 11 51 13 65 2z"/>
</g>
</svg>
