<?xml version="1.0" standalone="no"?>
<!DOCTYPE svg PUBLIC "-//W3C//DTD SVG 20010904//EN"
 "http://www.w3.org/TR/2001/REC-SVG-20010904/DTD/svg10.dtd">
<svg version="1.0" xmlns="http://www.w3.org/2000/svg"
 width="101.000000pt" height="101.000000pt" viewBox="0 0 101.000000 101.000000"
 preserveAspectRatio="xMidYMid meet">
<metadata>
Created by potrace 1.16, written by Peter Selinger 2001-2019
</metadata>
<g transform="translate(0.000000,101.000000) scale(0.100000,-0.100000)"
fill="#000000" stroke="none">
<path d="M164 970 c2 -22 -1 -43 -6 -46 -5 -3 -9 -29 -9 -57 1 -85 3 -82 -55
-80 -48 2 -53 0 -58 -23 -14 -55 2 -69 73 -65 32 3 33 2 26 -26 -4 -15 -9 -37
-10 -48 -3 -19 -10 -54 -20 -104 -2 -13 -9 -39 -16 -58 -6 -19 -9 -36 -7 -37
1 -2 31 -18 65 -36 56 -29 61 -34 52 -53 -20 -35 -90 -106 -135 -134 -24 -16
-44 -30 -44 -33 0 -3 21 -18 47 -33 l46 -28 49 48 c27 26 63 69 81 95 18 26
35 48 38 48 3 0 23 -15 45 -34 l40 -34 32 39 33 38 -43 32 c-24 17 -48 33 -54
36 -8 3 -6 23 8 66 24 72 27 94 32 202 2 44 5 87 7 95 7 42 1 49 -36 37 -25
-7 -42 -7 -60 1 -14 6 -31 9 -39 6 -11 -4 -14 4 -13 33 0 21 5 41 10 45 6 3
11 19 13 35 4 39 8 56 18 72 13 21 -16 37 -68 39 l-45 2 3 -40z m122 -285 c-3
-8 0 -27 7 -44 9 -25 9 -36 -1 -52 -8 -12 -16 -39 -18 -61 -3 -23 -10 -54 -17
-69 l-12 -29 -33 22 c-26 16 -32 25 -27 42 4 12 8 32 10 46 2 14 7 41 10 60 4
19 8 46 10 60 1 14 3 27 4 31 0 3 17 5 37 6 26 1 34 -3 30 -12z"/>
<path d="M464 996 c-3 -9 -4 -34 -2 -57 l4 -40 -33 6 c-42 8 -73 -9 -73 -40 0
-44 46 -69 88 -46 16 8 17 -3 15 -134 -2 -138 -2 -143 19 -148 12 -3 30 -1 41
4 10 6 33 8 51 5 28 -5 32 -10 33 -41 1 -31 -2 -35 -32 -41 -18 -3 -42 -1 -54
6 -12 6 -25 8 -30 5 -5 -3 -20 -1 -34 4 -52 20 -80 -6 -70 -63 5 -24 9 -26 47
-22 22 2 49 7 59 11 9 4 24 4 32 1 14 -5 14 -9 -1 -33 -28 -46 -106 -122 -157
-155 l-48 -30 38 -33 38 -33 26 19 c43 30 128 128 159 182 27 47 28 48 29 21
4 -71 0 -156 -8 -177 -21 -54 7 -90 61 -80 22 4 23 7 25 121 2 179 1 174 24
130 25 -49 119 -150 162 -172 l34 -19 36 39 35 39 -61 32 c-59 32 -129 91
-148 124 -9 18 -12 17 71 21 19 1 54 -1 76 -5 39 -8 42 -7 47 18 2 15 2 35 0
45 -6 22 -48 31 -81 19 -21 -8 -98 -12 -163 -8 -24 1 -27 5 -26 34 1 36 1 36
102 36 l50 0 2 136 c1 74 3 137 5 138 2 2 24 5 50 6 40 2 48 6 53 27 12 49 -1
62 -60 59 -47 -3 -53 -2 -45 13 5 8 8 31 7 50 -2 35 -2 35 -53 38 l-52 3 2
-55 1 -56 -95 3 -95 2 2 48 c1 26 1 47 0 48 -1 0 -23 3 -50 5 -37 4 -48 2 -53
-10z m292 -203 c-1 -38 -19 -45 -106 -38 -30 3 -64 5 -75 6 -15 1 -20 9 -21
33 l0 31 101 0 101 1 0 -33z m-25 -99 c21 -4 25 -10 26 -39 1 -29 -3 -35 -26
-39 -14 -3 -51 -3 -81 -1 -30 3 -65 5 -76 6 -18 1 -22 7 -21 35 1 26 5 33 16
29 9 -2 23 0 31 5 15 9 84 11 131 4z"/>
</g>
</svg>
