<?xml version="1.0" standalone="no"?>
<!DOCTYPE svg PUBLIC "-//W3C//DTD SVG 20010904//EN"
 "http://www.w3.org/TR/2001/REC-SVG-20010904/DTD/svg10.dtd">
<svg version="1.0" xmlns="http://www.w3.org/2000/svg"
 width="101.000000pt" height="102.000000pt" viewBox="0 0 101.000000 102.000000"
 preserveAspectRatio="xMidYMid meet">
<metadata>
Created by potrace 1.16, written by Peter Selinger 2001-2019
</metadata>
<g transform="translate(0.000000,102.000000) scale(0.100000,-0.100000)"
fill="#000000" stroke="none">
<path d="M158 980 c3 -25 -2 -54 -13 -76 -11 -24 -15 -47 -11 -69 l7 -33 -45
5 c-42 4 -46 2 -52 -21 -3 -13 -3 -34 1 -46 6 -18 13 -20 47 -16 39 4 40 4 33
-22 -4 -15 -9 -38 -10 -52 -4 -34 -14 -90 -20 -120 -3 -14 -8 -43 -11 -66 -6
-40 -5 -41 49 -74 l56 -33 -29 -41 c-29 -43 -79 -92 -118 -119 l-24 -15 54
-27 53 -27 33 39 c18 21 46 59 63 85 17 27 34 48 37 48 3 0 19 -12 34 -27 l28
-27 37 36 36 36 -51 37 c-48 34 -50 38 -41 63 12 31 20 68 20 97 0 18 1 19 13
3 9 -13 22 -15 52 -11 58 8 112 8 120 0 12 -12 -36 -111 -85 -177 -31 -41 -71
-79 -110 -104 -60 -39 -60 -40 -38 -54 12 -8 32 -24 43 -34 21 -19 22 -19 79
34 32 29 77 78 100 109 l42 57 36 -49 36 -49 -37 -19 c-21 -11 -56 -23 -77
-27 -22 -5 -43 -9 -47 -10 -5 -1 -15 -2 -24 -3 -12 -1 -9 -9 14 -35 17 -19 35
-43 40 -52 9 -16 15 -14 76 14 37 17 80 41 96 52 l29 21 63 -32 c34 -17 79
-37 99 -44 36 -13 38 -13 55 13 9 15 28 39 42 55 24 25 24 27 6 28 -72 5 -184
27 -184 35 0 3 13 24 29 47 24 36 91 160 91 170 0 1 -55 3 -122 4 -173 2 -168
1 -159 27 5 13 19 22 37 24 65 7 222 6 260 -2 40 -8 41 -7 46 19 3 15 3 36 0
47 -4 17 -10 19 -36 12 -17 -5 -76 -8 -131 -7 -154 3 -148 2 -141 27 3 11 6
24 6 27 0 9 20 10 152 12 93 1 107 4 111 19 10 37 -6 64 -36 59 -47 -8 -77 -9
-77 -3 0 5 23 33 50 64 28 31 50 60 50 66 0 5 -18 15 -41 22 -35 12 -39 15
-25 26 10 6 26 10 36 7 25 -7 70 4 70 17 0 6 -10 26 -22 45 -24 37 -29 38
-118 19 -14 -3 -36 -5 -49 -4 -12 0 -28 -3 -33 -6 -16 -10 -86 -16 -198 -15
-58 0 -120 -2 -138 -5 l-32 -5 25 -37 c14 -20 25 -43 25 -50 0 -8 6 -12 13 -9
6 2 21 1 32 -4 20 -8 20 -8 -2 -14 l-21 -7 19 -41 c23 -52 24 -67 2 -65 -37 3
-51 -3 -56 -22 -13 -48 24 -81 65 -59 11 6 39 7 64 3 43 -6 45 -8 39 -33 -4
-14 -9 -28 -11 -31 -10 -9 -139 1 -150 13 -3 3 -17 2 -30 -3 -22 -9 -24 -8
-18 16 4 14 7 37 9 52 1 15 5 39 9 55 13 46 -1 96 -29 103 -14 3 -33 3 -42 -1
-10 -5 -29 -8 -43 -9 -30 -1 -39 27 -16 50 9 9 16 28 15 42 -1 26 1 36 17 90
3 12 5 22 3 22 -2 1 -27 3 -54 6 l-51 5 4 -41z m626 -115 c-14 -46 -72 -141
-94 -152 -14 -7 -49 -10 -85 -8 -88 7 -102 9 -112 19 -5 5 -1 7 8 4 9 -4 22
-2 29 2 11 7 10 18 -6 62 -11 30 -26 54 -34 54 -32 3 -34 6 -15 14 11 4 32 6
46 3 15 -3 36 0 47 6 14 7 23 8 27 1 3 -6 0 -13 -8 -16 -12 -4 -11 -14 6 -60
l20 -55 41 5 c23 3 42 5 43 5 5 2 -5 49 -15 74 -7 16 -12 33 -12 38 0 5 -6 9
-12 9 -10 0 -10 2 -1 8 6 4 38 7 72 7 56 0 60 -2 55 -20z m-521 -160 c-3 -11
-7 -40 -9 -65 -4 -55 -9 -94 -19 -140 -4 -19 -8 -41 -8 -47 0 -16 -17 -16 -39
0 -16 13 -17 35 -3 117 5 34 15 100 19 130 2 14 4 25 5 25 0 0 14 0 31 0 25 0
29 -3 23 -20z m485 -320 c6 -6 -25 -59 -47 -79 -21 -19 -22 -19 -44 2 -12 11
-30 35 -41 52 -18 31 -18 32 0 26 11 -3 26 -1 34 5 13 8 88 4 98 -6z"/>
</g>
</svg>
