<?xml version="1.0" standalone="no"?>
<!DOCTYPE svg PUBLIC "-//W3C//DTD SVG 20010904//EN"
 "http://www.w3.org/TR/2001/REC-SVG-20010904/DTD/svg10.dtd">
<svg version="1.0" xmlns="http://www.w3.org/2000/svg"
 width="101.000000pt" height="101.000000pt" viewBox="0 0 101.000000 101.000000"
 preserveAspectRatio="xMidYMid meet">
<metadata>
Created by potrace 1.16, written by Peter Selinger 2001-2019
</metadata>
<g transform="translate(0.000000,101.000000) scale(0.100000,-0.100000)"
fill="#000000" stroke="none">
<path d="M575 979 c-4 -17 -2 -43 5 -60 10 -23 10 -39 1 -70 -11 -37 -14 -39
-51 -39 -48 0 -51 7 -10 21 17 6 30 16 30 21 0 6 -17 33 -37 62 -20 28 -38 52
-39 54 -3 5 -74 -31 -74 -37 0 -4 16 -29 36 -56 l35 -50 -46 -6 c-63 -7 -86
-47 -48 -85 14 -14 29 -15 100 -10 l84 7 -16 -30 c-14 -28 -20 -31 -60 -31
-25 0 -45 5 -45 10 0 6 -20 10 -44 10 l-43 0 -8 72 c-4 49 -3 74 4 76 6 2 11
27 11 55 l0 52 -133 2 -134 1 -1 -33 c-1 -19 3 -37 8 -40 12 -8 11 -173 -1
-181 -6 -3 -9 -60 -7 -142 3 -182 -4 -234 -45 -314 l-34 -66 37 -37 38 -37 21
39 c21 42 61 186 66 238 2 17 3 32 4 35 1 3 21 7 45 8 39 1 44 -1 46 -21 4
-53 2 -118 -4 -151 -6 -30 -11 -36 -29 -35 -50 4 -58 0 -47 -21 6 -11 8 -24 5
-29 -9 -15 5 -39 26 -44 25 -7 100 18 115 38 6 9 9 53 7 116 -2 56 1 106 6
113 5 6 8 35 8 64 -1 28 1 52 4 52 14 0 33 -33 35 -58 1 -15 2 -34 3 -43 1
-20 32 -30 55 -17 36 20 37 0 3 -44 l-36 -47 57 -16 c116 -33 111 -29 61 -49
-24 -10 -70 -20 -102 -21 -33 -2 -61 -6 -64 -9 -3 -3 6 -19 21 -36 14 -17 26
-38 26 -46 0 -8 4 -14 8 -14 22 0 132 44 189 75 l64 35 52 -26 c29 -14 66 -37
84 -50 17 -13 35 -24 40 -24 4 0 23 18 40 39 l32 39 -97 42 -98 41 25 53 c24
48 28 52 65 53 42 2 59 17 50 46 -4 12 0 17 14 17 16 0 72 57 72 73 0 3 -15 8
-32 11 -18 3 -58 18 -88 33 l-55 27 65 7 c36 4 68 5 72 2 10 -5 20 39 16 68
-2 13 -7 24 -13 24 -5 -1 -74 -4 -153 -9 -79 -5 -145 -6 -148 -3 -3 2 0 15 6
28 10 23 15 24 93 22 165 -4 197 8 182 69 -5 20 -13 23 -56 25 -27 1 -49 -3
-49 -8 0 -5 -11 -9 -25 -9 -14 0 -25 5 -25 10 0 6 -18 10 -40 10 -39 0 -48 10
-40 45 1 6 4 28 6 50 2 22 5 49 7 60 2 17 -3 20 -35 17 -23 -2 -38 1 -38 7 0
25 -29 9 -35 -20z m-307 -196 l2 -72 -42 2 -43 2 0 70 0 70 40 0 40 0 3 -72z
m-2 -220 l1 -72 -45 2 -44 1 6 45 c3 24 6 56 6 70 0 23 4 26 38 26 l37 0 1
-72z m208 35 c-7 -10 -85 -63 -104 -70 -12 -4 -15 3 -15 33 0 35 2 37 27 32
14 -3 34 0 44 5 21 12 55 12 48 0z m239 -40 c18 -18 50 -47 71 -64 l39 -31
-62 -6 c-36 -4 -70 -3 -81 3 -10 5 -26 7 -36 3 -20 -8 -13 8 19 44 24 27 22
30 -37 48 l-47 14 -24 -54 c-23 -53 -24 -54 -63 -52 l-40 1 66 66 c65 63 69
65 115 63 41 -1 54 -6 80 -35z m-20 -164 c6 -6 -16 -57 -35 -81 -8 -10 -40 -6
-96 12 -20 7 18 66 38 60 8 -2 22 0 30 5 17 11 54 13 63 4z"/>
<path d="M766 946 c-10 -19 -29 -45 -42 -57 -32 -30 -30 -36 12 -54 l36 -15
54 57 c30 32 54 59 54 60 0 4 -79 43 -87 43 -5 0 -17 -16 -27 -34z"/>
</g>
</svg>
