<?xml version="1.0" standalone="no"?>
<!DOCTYPE svg PUBLIC "-//W3C//DTD SVG 20010904//EN"
 "http://www.w3.org/TR/2001/REC-SVG-20010904/DTD/svg10.dtd">
<svg version="1.0" xmlns="http://www.w3.org/2000/svg"
 width="101.000000pt" height="101.000000pt" viewBox="0 0 101.000000 101.000000"
 preserveAspectRatio="xMidYMid meet">
<metadata>
Created by potrace 1.16, written by Peter Selinger 2001-2019
</metadata>
<g transform="translate(0.000000,101.000000) scale(0.100000,-0.100000)"
fill="#000000" stroke="none">
<path d="M588 1003 c-22 -6 -22 -5 2 -53 11 -22 20 -41 20 -42 0 -2 -49 -2
-109 -1 -127 2 -127 2 -116 -91 6 -47 11 -55 31 -60 22 -6 24 -11 19 -39 -9
-55 18 -71 90 -54 l30 7 -30 -25 c-34 -29 -118 -75 -137 -75 -36 -1 -39 -17
-9 -48 16 -18 32 -32 35 -32 3 0 33 18 68 40 49 31 65 37 76 27 12 -9 6 -19
-34 -54 -27 -24 -77 -57 -111 -74 l-62 -31 36 -34 36 -34 56 42 c31 23 75 60
98 81 41 38 61 37 48 -3 -9 -30 -146 -152 -206 -184 -30 -16 -56 -30 -58 -32
-2 -2 14 -19 34 -39 l38 -35 69 57 c38 31 90 79 115 107 25 28 43 43 40 33 -4
-9 -1 -28 5 -42 8 -19 7 -31 -5 -58 -22 -46 -40 -59 -82 -59 -30 0 -35 -3 -29
-16 4 -10 12 -32 18 -50 10 -31 13 -33 46 -27 89 16 139 83 125 170 -3 25 -2
53 4 63 7 13 6 33 -4 65 -11 38 -11 46 0 51 9 3 19 -11 31 -47 9 -29 27 -72
39 -97 25 -48 82 -125 94 -125 4 0 22 17 40 37 l33 38 -55 50 c-51 47 -85 103
-102 171 -6 24 -3 28 39 44 25 10 46 20 46 24 0 3 -16 23 -36 44 l-35 38 -60
-55 c-33 -31 -63 -56 -67 -56 -4 0 -27 23 -51 51 l-45 52 29 23 c23 18 37 21
74 18 46 -5 52 -5 114 -1 48 3 64 39 32 71 -13 13 -47 15 -210 13 -190 -2
-193 -2 -173 17 12 11 18 27 16 40 -4 21 -2 21 173 22 165 2 176 1 172 -16 -9
-32 15 -60 50 -60 18 0 38 4 46 9 15 10 26 88 17 124 -6 24 -7 24 -126 23 -74
-1 -120 3 -121 9 -1 18 -7 40 -17 66 -8 20 -17 26 -44 26 -18 0 -41 -2 -50 -4z"/>
<path d="M141 973 c-6 -16 -9 -48 -7 -73 1 -25 -2 -51 -7 -57 -5 -7 -7 -18 -4
-25 3 -10 -7 -12 -38 -10 -36 3 -44 1 -49 -16 -12 -36 3 -70 35 -77 16 -4 34
-3 40 1 7 4 9 3 6 -3 -3 -5 -9 -23 -11 -39 -3 -16 -8 -40 -11 -54 -3 -14 -8
-40 -11 -58 -3 -19 -12 -52 -20 -74 -8 -23 -13 -42 -12 -43 2 -1 36 -20 76
-44 l73 -42 -23 -41 c-13 -22 -49 -64 -80 -93 l-58 -52 37 -32 36 -32 44 43
c24 24 60 67 80 96 l35 54 32 -31 32 -31 32 39 32 40 -44 30 c-49 34 -51 43
-25 133 7 24 14 52 16 63 1 11 5 34 8 50 15 88 26 188 21 200 -8 22 -81 29
-117 11 -43 -22 -53 -20 -44 7 3 12 8 31 11 42 2 11 7 34 10 50 4 17 13 38 22
48 20 23 11 30 -38 30 -22 0 -40 4 -40 8 0 21 -28 7 -39 -18z m130 -277 c1
-11 0 -25 -1 -31 -1 -5 -4 -28 -6 -50 -2 -22 -6 -51 -8 -65 -3 -14 -8 -43 -11
-65 -10 -55 -12 -58 -46 -38 -45 27 -50 36 -38 74 6 19 12 43 14 54 2 11 7 34
10 50 6 31 13 72 14 90 1 7 16 9 36 7 27 -3 35 -9 36 -26z"/>
</g>
</svg>
