<?xml version="1.0" standalone="no"?>
<!DOCTYPE svg PUBLIC "-//W3C//DTD SVG 20010904//EN"
 "http://www.w3.org/TR/2001/REC-SVG-20010904/DTD/svg10.dtd">
<svg version="1.0" xmlns="http://www.w3.org/2000/svg"
 width="101.000000pt" height="102.000000pt" viewBox="0 0 101.000000 102.000000"
 preserveAspectRatio="xMidYMid meet">
<metadata>
Created by potrace 1.16, written by Peter Selinger 2001-2019
</metadata>
<g transform="translate(0.000000,102.000000) scale(0.100000,-0.100000)"
fill="#000000" stroke="none">
<path d="M168 984 c3 -23 -1 -41 -13 -54 -10 -11 -16 -32 -15 -52 4 -63 3 -64
-40 -60 -48 5 -70 -10 -70 -47 0 -41 15 -55 58 -55 22 -1 38 -4 35 -9 -2 -4
-6 -24 -8 -45 -2 -20 -7 -48 -10 -62 -3 -14 -8 -38 -10 -55 -5 -28 -8 -39 -21
-87 -3 -11 13 -27 55 -53 33 -20 63 -40 66 -46 14 -22 -84 -137 -145 -169 -22
-12 -21 -13 31 -42 l53 -31 34 39 c19 21 51 65 72 96 l37 57 43 -36 42 -36 35
35 35 36 -58 37 c-33 21 -60 38 -61 39 -1 1 7 33 18 71 11 39 22 81 25 95 5
28 11 62 19 100 3 14 7 37 9 53 3 32 11 41 25 32 13 -7 15 -48 4 -59 -5 -4 -8
-32 -9 -61 0 -45 3 -54 19 -59 11 -3 28 -1 37 4 13 7 87 8 136 1 6 0 11 -14
11 -30 0 -27 -3 -29 -49 -35 -27 -4 -54 -4 -60 0 -6 4 -28 8 -48 10 -42 4 -52
-11 -43 -60 5 -25 17 -31 58 -28 16 2 17 0 6 -7 -21 -13 -5 -44 58 -113 l51
-56 -48 -20 c-68 -29 -99 -37 -171 -47 -19 -2 -36 -6 -38 -9 -4 -4 46 -86 53
-86 9 0 154 56 209 80 l64 29 57 -31 c32 -18 90 -44 128 -59 l70 -27 28 50
c16 28 26 53 24 55 -2 2 -22 6 -45 8 -49 4 -69 10 -139 37 l-52 20 36 40 c41
46 144 201 144 217 0 7 -16 8 -47 3 -43 -6 -65 -6 -139 -1 -30 2 -30 56 0 58
12 0 51 3 89 6 37 2 78 0 91 -5 24 -9 24 -9 30 73 7 91 4 303 -4 310 -3 3 -42
8 -87 12 l-83 8 -10 -28 c-6 -15 -8 -36 -5 -46 7 -20 54 -34 85 -24 20 6 21 3
18 -36 l-3 -44 -42 3 c-34 3 -44 0 -53 -18 -23 -43 -1 -66 60 -61 23 2 26 -2
27 -38 2 -38 0 -41 -31 -47 -19 -3 -43 -1 -54 5 -11 6 -27 8 -35 5 -12 -4 -16
12 -22 81 -5 59 -3 90 5 100 6 7 11 37 10 67 0 29 2 68 5 87 6 41 -5 51 -57
51 -27 0 -38 -5 -41 -17 -9 -31 -7 -92 3 -98 13 -8 11 -173 -1 -181 -6 -3 -9
-27 -8 -53 l3 -46 -34 3 c-19 1 -45 3 -57 3 -20 1 -22 6 -21 44 2 40 4 43 26
39 14 -3 27 -5 31 -6 31 -3 45 19 35 57 -5 22 -11 24 -51 21 -41 -3 -44 -2
-39 18 3 11 6 33 6 48 0 20 4 26 15 22 25 -10 65 5 65 24 0 9 -9 28 -19 41
-14 18 -23 22 -42 15 -32 -11 -49 -14 -79 -18 -14 -2 -28 -4 -32 -4 -4 -1 -7
-21 -6 -44 1 -73 1 -73 -39 -74 -21 -1 -61 -3 -90 -5 -44 -3 -50 -2 -43 12 5
9 9 24 9 35 -1 29 8 76 20 107 6 16 11 30 11 32 0 4 -49 17 -80 21 -24 3 -26
1 -22 -32z m127 -264 c-4 -6 -8 -30 -11 -53 -8 -85 -35 -211 -48 -224 -3 -3
-18 4 -35 16 -23 17 -28 27 -25 49 11 67 13 79 19 107 5 27 10 58 14 92 0 6
20 14 44 16 23 2 43 4 45 5 2 1 0 -3 -3 -8z m438 -299 c16 -6 13 -14 -28 -70
l-47 -63 -40 38 c-22 22 -49 52 -60 68 -20 27 -20 28 -2 22 10 -3 25 -2 33 3
17 11 117 12 144 2z"/>
</g>
</svg>
