<?xml version="1.0" standalone="no"?>
<!DOCTYPE svg PUBLIC "-//W3C//DTD SVG 20010904//EN"
 "http://www.w3.org/TR/2001/REC-SVG-20010904/DTD/svg10.dtd">
<svg version="1.0" xmlns="http://www.w3.org/2000/svg"
 width="101.000000pt" height="102.000000pt" viewBox="0 0 101.000000 102.000000"
 preserveAspectRatio="xMidYMid meet">
<metadata>
Created by potrace 1.16, written by Peter Selinger 2001-2019
</metadata>
<g transform="translate(0.000000,102.000000) scale(0.100000,-0.100000)"
fill="#000000" stroke="none">
<path d="M148 971 c3 -30 -3 -73 -12 -102 -9 -27 -15 -53 -12 -57 2 -4 -20 -5
-49 -4 -50 4 -53 2 -59 -23 -14 -56 2 -71 73 -66 21 2 31 -1 27 -8 -7 -10 -9
-22 -21 -106 -3 -22 -12 -64 -21 -94 -8 -29 -14 -54 -12 -55 2 -1 29 -19 61
-39 l58 -38 -33 -46 c-18 -25 -56 -67 -85 -93 l-52 -47 37 -33 c27 -24 40 -30
52 -23 14 9 92 105 132 163 l17 25 35 -40 34 -40 36 35 c20 19 34 40 32 46 -3
7 5 12 17 12 40 2 83 9 95 16 7 4 32 4 56 1 48 -8 47 -4 47 -114 -1 -72 -13
-79 -94 -55 -18 6 -18 4 -2 -26 9 -18 14 -34 11 -37 -3 -3 -1 -14 5 -24 18
-35 156 -6 161 34 0 6 2 48 4 92 5 127 5 127 21 121 8 -3 24 -1 35 5 16 9 35
8 77 -2 86 -20 109 -18 114 9 11 55 2 61 -87 61 -44 0 -110 0 -146 0 -36 0
-108 0 -160 -1 -52 0 -114 2 -137 6 -45 6 -49 2 -45 -47 2 -23 -8 -21 -40 7
l-27 24 15 53 c17 61 22 87 30 144 3 22 7 54 10 70 17 108 17 123 -6 135 -13
7 -34 8 -53 4 -48 -11 -75 -11 -71 1 2 5 6 28 9 50 12 91 15 109 26 122 16 19
9 23 -52 30 l-54 5 3 -51z m116 -284 c-4 -18 -7 -48 -9 -67 -5 -76 -27 -160
-42 -160 -5 1 -17 9 -29 18 -24 20 -24 47 2 162 3 14 6 36 8 50 2 14 4 25 5
26 0 0 17 0 36 1 34 1 35 0 29 -30z"/>
<path d="M365 959 c-3 -9 -3 -29 1 -43 8 -32 37 -41 108 -32 l52 6 0 -33 -1
-32 -77 3 -76 3 1 -120 c1 -110 2 -120 21 -125 10 -3 28 0 38 5 10 5 22 7 27
4 5 -3 21 0 35 6 20 10 32 8 60 -5 27 -13 41 -14 56 -6 12 7 68 9 153 5 l134
-5 7 103 c4 56 4 110 1 118 -4 10 -18 16 -38 15 -18 0 -53 1 -78 2 -44 2 -45
3 -45 35 l1 32 55 -2 c30 -1 67 -4 81 -8 33 -9 61 18 57 54 l-3 26 -145 9
c-96 5 -150 5 -161 -2 -21 -13 -176 -15 -184 -2 -10 17 -74 8 -80 -11z m300
-99 c0 -32 -3 -35 -30 -36 -29 0 -30 2 -27 35 3 32 7 36 31 36 24 0 27 -4 26
-35z m-137 -157 c1 -41 1 -41 -33 -40 -34 1 -34 2 -33 42 2 39 4 41 33 41 29
-1 31 -3 33 -43z m140 0 c1 -41 1 -41 -33 -40 -34 1 -34 2 -33 41 2 39 4 41
33 41 29 0 31 -2 33 -42z m150 2 l2 -44 -40 2 -39 1 1 41 c2 40 3 41 38 42 35
2 36 1 38 -42z"/>
<path d="M429 553 c-20 -5 -28 -31 -22 -66 4 -23 9 -25 41 -20 39 5 177 6 329
1 89 -3 92 -2 96 20 6 31 -2 59 -17 65 -7 3 -37 -1 -67 -9 -62 -16 -244 -11
-328 10 -9 2 -23 2 -32 -1z"/>
<path d="M440 287 c-17 -24 -53 -61 -81 -82 l-50 -38 41 -24 42 -25 86 83 c48
46 89 87 90 92 4 8 -59 37 -82 37 -8 0 -29 -19 -46 -43z"/>
<path d="M740 303 c-14 -9 -27 -18 -28 -19 -2 -1 31 -36 74 -77 l77 -75 39 25
c37 25 38 27 21 46 -32 35 -134 117 -146 117 -7 0 -24 -8 -37 -17z"/>
</g>
</svg>
