<?xml version="1.0" standalone="no"?>
<!DOCTYPE svg PUBLIC "-//W3C//DTD SVG 20010904//EN"
 "http://www.w3.org/TR/2001/REC-SVG-20010904/DTD/svg10.dtd">
<svg version="1.0" xmlns="http://www.w3.org/2000/svg"
 width="101.000000pt" height="101.000000pt" viewBox="0 0 101.000000 101.000000"
 preserveAspectRatio="xMidYMid meet">
<metadata>
Created by potrace 1.16, written by Peter Selinger 2001-2019
</metadata>
<g transform="translate(0.000000,101.000000) scale(0.100000,-0.100000)"
fill="#000000" stroke="none">
<path d="M148 993 c-1 -10 -3 -38 -5 -63 -9 -131 -6 -125 -47 -122 -44 4 -66
-11 -66 -47 0 -39 11 -48 52 -47 40 2 39 5 23 -84 -6 -36 -39 -164 -49 -190
-4 -11 6 -20 36 -33 24 -9 53 -25 66 -35 l24 -18 -42 -53 c-23 -29 -62 -67
-86 -84 -42 -29 -55 -47 -35 -47 5 0 24 -12 42 -27 l32 -27 44 49 c24 28 58
71 75 98 17 26 35 47 39 47 3 0 23 -18 42 -40 l36 -39 25 32 c30 37 32 29 10
-37 -9 -26 -14 -49 -11 -52 2 -3 22 -7 44 -10 39 -4 41 -3 48 28 18 80 22 124
13 134 -3 2 -18 7 -35 10 -23 5 -32 2 -35 -9 -2 -11 -16 -4 -51 27 l-48 42 21
74 c12 41 24 91 26 110 7 59 13 94 20 122 3 15 3 43 0 61 l-6 33 -72 -4 c-66
-4 -71 -3 -63 14 4 11 13 48 19 84 6 36 15 71 20 79 12 19 -11 31 -46 24 -17
-3 -28 -1 -28 6 0 18 -30 12 -32 -6z m110 -288 c5 -4 4 -35 -2 -85 -10 -78
-14 -104 -27 -147 -12 -44 -16 -45 -62 -11 -14 11 -15 18 -6 48 5 19 12 44 14
55 2 11 7 34 10 50 6 28 11 62 14 93 1 8 10 10 29 6 15 -4 28 -8 30 -9z"/>
<path d="M430 983 c-33 -13 -40 -52 -14 -77 12 -13 34 -16 102 -14 l87 3 0
-90 0 -90 -37 4 -37 3 5 59 c4 56 3 59 -20 65 -57 14 -82 -19 -70 -94 6 -38 5
-39 -22 -35 -40 5 -57 -9 -57 -46 0 -38 5 -44 41 -44 25 0 28 -4 29 -39 1 -22
-2 -50 -7 -64 -6 -16 -6 -33 2 -50 9 -20 9 -30 0 -45 -7 -10 -12 -25 -12 -33
0 -18 38 -28 60 -16 10 5 64 8 121 6 57 -2 133 -4 168 -5 53 -1 62 -4 57 -17
-3 -8 -1 -24 5 -36 8 -15 7 -28 -5 -53 -9 -18 -14 -39 -11 -47 3 -8 -4 -23
-15 -33 -18 -16 -26 -17 -50 -8 -17 6 -39 9 -49 6 -19 -5 -19 -5 0 -36 10 -18
19 -40 19 -49 0 -9 8 -18 18 -20 20 -4 139 35 155 51 6 6 12 41 13 78 4 74 10
157 18 215 4 35 3 38 -17 33 -22 -5 -332 -9 -372 -5 -29 3 -30 37 -2 40 12 1
95 2 183 1 153 -1 162 0 167 19 3 11 3 29 0 40 -5 18 -14 19 -162 19 -205 -1
-201 -2 -199 26 2 15 9 23 23 24 22 2 187 2 309 0 82 -1 96 6 96 46 0 38 -11
44 -62 33 -37 -9 -57 -8 -87 2 -22 7 -55 10 -73 7 -29 -4 -33 -2 -33 18 0 22
5 24 87 30 81 7 87 8 93 32 13 53 3 60 -93 59 -82 -1 -87 0 -87 20 0 19 5 20
47 16 26 -2 72 -1 102 2 59 8 74 25 61 67 -6 19 -14 20 -113 19 -59 -1 -161 0
-227 3 -66 3 -127 3 -135 0z"/>
<path d="M722 353 c-20 -4 -23 -9 -16 -31 4 -15 8 -38 9 -52 1 -14 3 -31 4
-38 1 -15 58 -8 75 9 13 12 -21 119 -37 118 -7 -1 -23 -4 -35 -6z"/>
<path d="M519 333 c-22 -5 -31 -41 -17 -66 5 -11 7 -32 4 -48 -3 -16 -1 -29 3
-29 5 0 16 -3 24 -6 25 -9 47 22 37 54 -5 15 -9 34 -8 42 4 45 -9 60 -43 53z"/>
<path d="M602 331 c-11 -6 -11 -17 -3 -46 6 -21 8 -42 6 -46 -12 -19 8 -38 36
-34 39 5 51 14 45 33 -3 10 -10 36 -16 60 -9 33 -15 42 -33 42 -12 0 -28 -4
-35 -9z"/>
</g>
</svg>
