<?xml version="1.0" standalone="no"?>
<!DOCTYPE svg PUBLIC "-//W3C//DTD SVG 20010904//EN"
 "http://www.w3.org/TR/2001/REC-SVG-20010904/DTD/svg10.dtd">
<svg version="1.0" xmlns="http://www.w3.org/2000/svg"
 width="101.000000pt" height="101.000000pt" viewBox="0 0 101.000000 101.000000"
 preserveAspectRatio="xMidYMid meet">
<metadata>
Created by potrace 1.16, written by Peter Selinger 2001-2019
</metadata>
<g transform="translate(0.000000,101.000000) scale(0.100000,-0.100000)"
fill="#000000" stroke="none">
<path d="M577 1002 c-18 -4 -19 -20 -2 -64 4 -10 -5 -12 -40 -10 -28 3 -45 0
-45 -7 0 -6 -16 -11 -35 -11 -19 0 -35 5 -35 10 0 6 -20 10 -45 10 -40 0 -47
-3 -56 -27 -14 -37 4 -78 29 -68 9 4 42 7 74 6 31 -1 59 3 63 8 8 13 153 13
161 0 3 -6 52 -8 120 -5 63 3 125 1 139 -4 33 -13 59 12 50 49 -4 14 -9 28
-12 31 -2 3 -63 5 -134 5 -78 0 -129 4 -130 10 -7 60 -18 74 -52 73 -18 -1
-40 -4 -50 -6z"/>
<path d="M135 932 c0 -37 -4 -87 -8 -112 -7 -44 -8 -45 -47 -45 -45 -1 -46 -2
-54 -35 -9 -36 7 -54 47 -53 l35 1 -4 -42 c-5 -54 -18 -129 -40 -228 -5 -24
-1 -29 45 -52 27 -14 53 -30 56 -36 8 -13 -66 -111 -114 -150 -19 -16 -33 -31
-30 -33 2 -2 21 -14 42 -26 l38 -23 26 23 c14 13 46 53 71 88 l46 64 29 -33
29 -32 29 28 c16 15 29 33 29 38 0 6 -18 23 -39 38 -33 24 -38 32 -36 62 2 19
7 45 11 58 4 13 9 32 11 43 2 11 5 31 7 45 5 29 17 115 20 145 2 11 6 32 10
47 11 38 0 64 -27 64 -12 0 -41 1 -64 2 l-41 2 4 58 c4 69 9 95 23 120 13 24
-2 32 -64 38 l-40 4 0 -68z m118 -257 c-3 -11 -7 -40 -9 -65 -3 -47 -10 -102
-18 -135 -2 -11 -5 -27 -5 -35 -3 -35 -17 -43 -45 -24 -22 14 -26 22 -20 43 3
14 8 37 10 51 1 14 6 43 9 65 7 51 12 86 14 106 1 11 11 15 36 15 30 -1 34 -4
28 -21z"/>
<path d="M380 821 c-12 -9 -15 -40 -15 -176 0 -189 -10 -175 105 -160 98 13
205 15 259 4 31 -6 65 -11 76 -10 11 1 38 3 60 3 45 2 57 12 46 42 -7 18 -5
179 2 266 3 33 -40 49 -86 32 -45 -18 -213 -28 -230 -14 -7 7 -40 11 -73 10
-32 0 -75 2 -94 6 -19 3 -42 2 -50 -3z m129 -113 c-7 -12 -8 -43 -4 -78 5 -47
11 -59 27 -64 12 -3 29 -1 39 4 10 6 56 8 103 6 l86 -4 -6 33 c-3 18 -1 42 5
52 5 11 7 30 4 43 -6 22 -8 22 -84 15 -47 -4 -79 -3 -79 3 0 9 100 22 175 22
l40 0 0 -94 0 -94 -110 -5 c-60 -3 -132 -4 -160 -2 -27 3 -61 5 -74 6 -22 1
-23 3 -17 52 3 29 6 70 6 93 0 39 1 40 30 36 26 -4 28 -7 19 -24z m176 -58 c0
-22 -5 -25 -30 -22 -17 1 -39 3 -50 3 -13 1 -21 9 -22 21 -1 14 3 17 15 14 9
-3 24 -1 32 4 27 18 55 7 55 -20z"/>
<path d="M418 463 c-13 -3 -15 -12 -11 -41 8 -60 8 -94 -1 -155 l-8 -58 54 7
c77 9 231 10 324 2 l82 -7 -4 85 c-2 47 0 93 6 103 5 10 6 27 3 39 -4 17 -10
20 -33 16 -15 -4 -37 -1 -48 5 -14 7 -29 8 -46 1 -40 -15 -245 -13 -286 2 -8
3 -22 4 -32 1z m315 -59 c30 -4 47 -11 47 -19 0 -18 -84 -27 -175 -20 -38 3
-80 6 -92 6 -13 1 -23 8 -23 16 0 9 6 12 18 9 9 -3 23 -2 31 3 16 10 127 13
194 5z m-1 -90 c38 -5 46 -9 45 -24 -2 -24 -68 -33 -172 -25 -38 3 -79 6 -90
6 -13 1 -21 9 -22 21 -1 14 3 17 15 14 9 -3 23 -2 31 3 16 10 127 13 193 5z"/>
<path d="M327 170 c-12 -47 23 -81 62 -60 9 5 59 7 111 5 52 -3 122 -4 155 -4
144 1 262 -1 281 -6 17 -4 23 1 27 21 2 14 2 35 -1 46 -4 18 -10 19 -56 11
-28 -4 -75 -7 -103 -6 -52 2 -83 2 -273 1 -52 0 -118 3 -146 6 -46 6 -52 4
-57 -14z"/>
</g>
</svg>
