<?xml version="1.0" standalone="no"?>
<!DOCTYPE svg PUBLIC "-//W3C//DTD SVG 20010904//EN"
 "http://www.w3.org/TR/2001/REC-SVG-20010904/DTD/svg10.dtd">
<svg version="1.0" xmlns="http://www.w3.org/2000/svg"
 width="101.000000pt" height="101.000000pt" viewBox="0 0 101.000000 101.000000"
 preserveAspectRatio="xMidYMid meet">
<metadata>
Created by potrace 1.16, written by Peter Selinger 2001-2019
</metadata>
<g transform="translate(0.000000,101.000000) scale(0.100000,-0.100000)"
fill="#000000" stroke="none">
<path d="M808 974 c-13 -13 -268 -18 -513 -10 l-150 5 0 -50 c0 -44 3 -51 23
-56 12 -3 28 0 35 5 17 14 175 14 183 0 5 -7 49 -8 138 -4 l131 7 -25 -20
c-14 -11 -58 -37 -97 -58 -79 -41 -89 -59 -82 -140 l4 -38 -145 3 c-80 1 -164
5 -186 8 -57 8 -84 -8 -84 -49 0 -59 8 -62 127 -60 59 1 136 5 171 9 89 8 112
1 112 -36 0 -17 5 -30 12 -30 14 0 4 -208 -11 -223 -6 -6 -38 -9 -71 -8 -33 1
-60 0 -60 -2 0 -3 7 -18 15 -33 8 -16 12 -36 10 -45 -7 -22 20 -49 48 -49 28
0 135 43 154 62 19 19 32 208 14 208 -7 0 -11 25 -11 74 l0 73 61 -4 c38 -3
66 0 75 8 10 8 48 10 138 5 134 -8 136 -7 136 49 0 40 -27 58 -74 50 -23 -4
-104 -8 -182 -9 l-141 -1 2 50 c2 48 3 51 51 81 73 46 170 95 196 99 36 4 58
16 58 30 0 7 3 26 6 42 4 21 1 35 -11 46 -16 17 -46 22 -57 11z"/>
</g>
</svg>
