<?xml version="1.0" standalone="no"?>
<!DOCTYPE svg PUBLIC "-//W3C//DTD SVG 20010904//EN"
 "http://www.w3.org/TR/2001/REC-SVG-20010904/DTD/svg10.dtd">
<svg version="1.0" xmlns="http://www.w3.org/2000/svg"
 width="101.000000pt" height="101.000000pt" viewBox="0 0 101.000000 101.000000"
 preserveAspectRatio="xMidYMid meet">
<metadata>
Created by potrace 1.16, written by Peter Selinger 2001-2019
</metadata>
<g transform="translate(0.000000,101.000000) scale(0.100000,-0.100000)"
fill="#000000" stroke="none">
<path d="M155 940 c-12 -57 -2 -67 70 -68 36 0 67 4 71 9 7 12 51 12 58 0 8
-12 -23 -99 -49 -141 -41 -65 -118 -120 -219 -154 -16 -6 -14 -11 20 -46 22
-22 43 -40 47 -40 4 0 36 18 70 40 53 33 64 37 73 25 17 -23 68 -30 87 -11 17
17 102 21 186 8 l43 -7 -75 -39 c-62 -31 -77 -44 -82 -67 -4 -16 -4 -33 -1
-38 10 -15 -72 -25 -90 -10 -11 9 -18 9 -26 1 -14 -14 -74 -16 -83 -2 -3 5
-41 9 -85 9 -86 0 -110 -12 -110 -52 0 -39 13 -47 61 -41 88 12 136 13 237 7
82 -4 102 -8 98 -19 -3 -8 0 -26 6 -40 11 -23 10 -29 -11 -45 -18 -15 -35 -18
-73 -15 -27 3 -48 2 -46 -2 19 -39 38 -80 42 -95 11 -35 152 -2 176 42 8 16 8
30 -1 56 -10 26 -10 40 -1 59 6 14 9 32 6 40 -7 18 1 18 208 17 156 -1 167 0
173 18 3 11 3 31 -1 46 -5 22 -10 25 -28 19 -11 -4 -57 -9 -100 -11 -58 -4
-81 -1 -88 9 -7 10 -11 10 -15 1 -6 -15 -73 -18 -73 -3 0 6 -16 10 -35 10 -27
0 -35 4 -35 18 0 19 175 115 178 97 1 -5 3 -25 5 -43 2 -17 6 -34 8 -37 7 -6
81 15 97 28 20 16 41 74 46 123 3 24 7 48 10 52 3 5 8 41 10 80 l5 71 -45 7
c-25 3 -69 4 -98 2 l-53 -4 23 75 c13 41 22 76 21 77 -1 2 -55 6 -120 10 -85
5 -117 4 -117 -5 0 -7 -27 -11 -80 -11 -47 0 -80 4 -80 10 0 6 -18 10 -40 10
-22 0 -40 -4 -40 -10 0 -5 -25 -10 -55 -10 -30 0 -55 5 -55 10 0 23 -19 8 -25
-20z m491 -63 c3 -3 -2 -21 -10 -41 -8 -20 -13 -36 -11 -36 2 0 -2 -18 -10
-40 -13 -37 -13 -39 6 -45 11 -4 57 -4 102 0 l82 7 -2 -34 c-5 -63 -13 -120
-18 -128 -12 -19 -33 3 -39 39 -5 35 -10 39 -41 45 -19 4 -44 2 -55 -4 -11 -6
-35 -8 -54 -5 -20 4 -36 2 -40 -4 -9 -14 -53 -14 -61 0 -4 6 -30 10 -59 9 -91
-3 -88 -6 -51 55 18 31 43 84 55 119 20 55 25 62 45 58 13 -2 26 2 30 8 5 9
26 11 67 7 33 -3 62 -7 64 -10z"/>
</g>
</svg>
