<?xml version="1.0" standalone="no"?>
<!DOCTYPE svg PUBLIC "-//W3C//DTD SVG 20010904//EN"
 "http://www.w3.org/TR/2001/REC-SVG-20010904/DTD/svg10.dtd">
<svg version="1.0" xmlns="http://www.w3.org/2000/svg"
 width="101.000000pt" height="101.000000pt" viewBox="0 0 101.000000 101.000000"
 preserveAspectRatio="xMidYMid meet">
<metadata>
Created by potrace 1.16, written by Peter Selinger 2001-2019
</metadata>
<g transform="translate(0.000000,101.000000) scale(0.100000,-0.100000)"
fill="#000000" stroke="none">
<path d="M526 988 c-33 -114 -104 -252 -161 -311 l-44 -46 37 -22 37 -21 -45
-19 c-71 -28 -71 -28 -64 54 7 72 7 72 91 179 45 58 83 110 83 113 0 4 -45 4
-100 0 -69 -4 -100 -3 -100 4 0 6 -18 11 -40 11 -22 0 -40 -5 -40 -11 0 -7
-21 -10 -60 -7 -55 3 -60 1 -65 -20 -13 -53 25 -86 70 -62 17 9 44 10 99 4
l75 -9 -56 -65 -55 -64 7 -88 c5 -70 4 -88 -7 -89 -17 -1 -49 -6 -68 -12 -8
-2 -32 -7 -53 -12 -41 -8 -42 -13 -17 -79 l9 -25 68 23 68 23 0 -91 c-1 -144
2 -136 -50 -134 -24 1 -46 0 -49 -2 -2 -3 3 -29 12 -58 l17 -52 40 4 c49 5 90
20 101 38 5 7 7 42 5 77 -2 45 1 66 11 73 10 7 10 11 1 15 -15 6 -18 73 -3 73
6 0 10 18 10 39 0 38 2 40 48 57 56 21 72 38 72 78 0 17 5 38 10 46 11 18 12
12 11 -59 -1 -30 4 -60 10 -67 8 -10 9 -55 4 -153 -8 -148 -4 -175 24 -191 23
-12 80 -23 106 -21 11 1 81 3 156 5 111 1 141 5 163 20 25 16 65 85 66 112 0
6 -22 23 -49 37 l-49 25 -11 -45 c-16 -62 -50 -76 -174 -69 -159 9 -157 8
-158 98 0 108 -3 103 55 101 28 0 57 3 64 9 6 6 25 8 41 5 27 -6 29 -4 35 35
4 24 2 46 -4 52 -13 13 -13 53 0 61 12 8 13 95 1 114 -7 10 -37 14 -118 15
l-109 1 24 40 24 40 139 2 139 3 -7 -28 c-4 -15 -7 -63 -8 -107 0 -44 -4 -88
-9 -97 -4 -10 -6 -37 -4 -60 7 -63 -6 -90 -39 -87 -61 5 -61 4 -44 -51 16 -49
17 -50 51 -46 99 12 142 61 140 159 -1 50 4 155 15 319 l5 76 -30 7 c-16 4
-35 3 -42 -1 -6 -4 -33 -6 -60 -5 -28 1 -48 -2 -48 -9 0 -5 -16 -10 -35 -10
-19 0 -35 5 -35 10 0 6 -18 10 -40 10 -22 0 -40 2 -40 5 0 16 35 72 54 87 21
17 21 17 1 24 -11 4 -35 13 -54 20 -41 17 -51 17 -55 2z m102 -446 l-3 -56
-54 -1 -53 0 6 44 c3 24 6 49 6 55 0 6 21 12 51 13 l50 2 -3 -57z"/>
</g>
</svg>
