<?xml version="1.0" standalone="no"?>
<!DOCTYPE svg PUBLIC "-//W3C//DTD SVG 20010904//EN"
 "http://www.w3.org/TR/2001/REC-SVG-20010904/DTD/svg10.dtd">
<svg version="1.0" xmlns="http://www.w3.org/2000/svg"
 width="101.000000pt" height="101.000000pt" viewBox="0 0 101.000000 101.000000"
 preserveAspectRatio="xMidYMid meet">
<metadata>
Created by potrace 1.16, written by Peter Selinger 2001-2019
</metadata>
<g transform="translate(0.000000,101.000000) scale(0.100000,-0.100000)"
fill="#000000" stroke="none">
<path d="M308 992 c-30 -19 -36 -39 -14 -48 8 -3 22 -16 30 -29 l16 -24 -93 6
c-114 8 -165 8 -171 3 -2 -3 -7 -17 -11 -31 -8 -34 19 -63 49 -54 12 3 54 7
94 8 l74 2 -44 -38 c-23 -20 -62 -44 -85 -53 l-41 -16 13 -37 c10 -29 17 -35
36 -33 59 6 86 10 109 16 l25 5 -25 -20 c-29 -24 -139 -79 -157 -79 -16 0 -16
-3 2 -46 12 -29 19 -35 35 -31 11 3 20 1 20 -4 0 -5 -4 -9 -9 -9 -12 0 -20
-36 -14 -60 4 -16 11 -18 47 -14 51 7 214 8 281 1 28 -3 64 -1 81 5 21 7 40 8
60 1 27 -9 24 -11 -48 -28 -92 -22 -99 -25 -101 -52 -1 -19 -10 -21 -112 -26
-108 -6 -158 -4 -241 7 -46 6 -56 -7 -47 -57 4 -23 9 -25 41 -20 78 10 131 12
244 6 l116 -6 -3 -26 c-2 -25 -5 -26 -59 -25 -31 1 -56 -1 -56 -3 0 -3 9 -16
20 -30 11 -14 20 -34 20 -43 0 -25 33 -30 87 -14 68 21 69 22 74 120 1 15 8
22 23 23 78 6 232 5 287 -2 66 -7 67 -7 72 19 7 39 -3 65 -22 59 -39 -12 -292
-15 -314 -4 -20 11 -18 13 33 31 53 18 93 26 153 32 15 2 33 8 38 13 11 11 17
78 8 87 -2 3 -55 0 -117 -6 -78 -7 -122 -7 -140 1 -15 5 -49 8 -77 5 -86 -10
-248 -7 -310 5 -24 5 46 23 100 26 33 2 77 5 97 7 25 3 39 -1 43 -10 3 -10 14
-12 37 -7 18 4 36 9 41 12 8 5 -61 143 -73 143 -4 0 -21 -5 -39 -11 -30 -11
-31 -12 -17 -34 14 -21 14 -23 -5 -18 -10 3 -25 1 -32 -4 -6 -5 -25 -6 -42 -2
-16 3 -25 7 -19 8 6 0 60 33 119 71 59 39 112 70 117 70 20 0 5 22 -32 46
l-41 27 -38 -37 c-32 -31 -45 -37 -89 -40 -46 -2 -50 -1 -32 11 11 8 41 23 67
35 45 20 46 21 27 37 -19 15 -10 16 123 18 137 1 142 1 133 -18 -13 -23 -98
-89 -116 -89 -17 0 -17 -8 -3 -49 10 -28 39 -45 39 -22 0 5 23 8 50 7 l51 -1
-28 -23 c-15 -12 -47 -32 -71 -43 -30 -15 -41 -26 -38 -36 4 -8 9 -25 12 -37
4 -18 13 -22 50 -24 25 -1 76 3 112 9 103 17 125 16 142 -4 14 -17 18 -17 53
-2 l38 16 -18 29 c-9 16 -33 48 -53 70 -34 40 -36 40 -67 28 -34 -13 -41 -26
-22 -45 13 -13 -23 -21 -68 -13 -32 5 -32 5 58 69 49 34 99 65 109 68 30 8 24
18 -25 44 l-44 24 -31 -30 c-25 -24 -40 -30 -76 -30 -44 0 -44 0 -21 17 12 10
37 23 55 30 23 9 32 18 29 29 -4 14 6 17 57 22 35 3 66 1 73 -5 30 -24 72 19
59 60 -6 19 -40 21 -153 6 -36 -5 -53 -3 -53 4 0 6 -19 12 -42 14 l-42 3 43
29 c23 16 40 34 38 40 -2 6 -23 18 -46 26 -48 17 -43 21 -108 -74 -26 -37 -38
-46 -62 -46 -36 0 -87 25 -71 35 15 9 -67 95 -90 94 -8 0 -27 -8 -42 -17z"/>
</g>
</svg>
