<?xml version="1.0" standalone="no"?>
<!DOCTYPE svg PUBLIC "-//W3C//DTD SVG 20010904//EN"
 "http://www.w3.org/TR/2001/REC-SVG-20010904/DTD/svg10.dtd">
<svg version="1.0" xmlns="http://www.w3.org/2000/svg"
 width="101.000000pt" height="101.000000pt" viewBox="0 0 101.000000 101.000000"
 preserveAspectRatio="xMidYMid meet">
<metadata>
Created by potrace 1.16, written by Peter Selinger 2001-2019
</metadata>
<g transform="translate(0.000000,101.000000) scale(0.100000,-0.100000)"
fill="#000000" stroke="none">
<path d="M860 995 c-74 -43 -257 -70 -332 -50 -16 4 -36 4 -45 0 -10 -4 -36
-7 -58 -6 -22 1 -59 3 -81 4 -30 1 -47 9 -61 26 l-20 24 -49 -18 c-27 -10 -54
-22 -60 -27 -7 -5 -23 -7 -36 -4 -14 2 -31 1 -37 -4 -14 -8 -15 -15 -7 -145
11 -187 5 -377 -12 -398 -11 -12 -11 -21 -1 -39 26 -50 28 -50 89 -3 32 25 61
45 64 45 7 0 -9 -51 -29 -93 -18 -40 -100 -124 -127 -133 -28 -9 -21 -17 31
-40 l49 -22 29 32 c92 97 130 213 124 371 -4 116 -3 250 3 292 5 37 3 43 -17
49 -52 18 -67 0 -66 -79 1 -70 -6 -83 -16 -27 -6 33 -10 40 -23 35 -34 -13
-37 -9 -40 43 -3 44 0 52 15 53 10 1 32 3 48 5 95 11 115 10 116 -11 11 -300
12 -417 4 -519 -3 -48 -2 -90 5 -105 7 -17 7 -48 2 -88 -7 -54 -6 -62 9 -66
32 -9 70 4 65 22 -15 51 -17 168 -3 200 l14 34 12 -35 c14 -43 36 -51 82 -29
l34 16 -4 94 c-2 71 0 96 10 103 11 7 11 11 2 15 -15 6 -18 73 -3 73 6 0 10
18 10 40 0 22 -4 40 -10 40 -5 0 -10 16 -10 35 0 19 5 35 10 35 6 0 10 30 10
70 0 66 10 90 24 54 3 -8 16 -15 28 -14 74 6 85 2 93 -37 4 -21 9 -50 10 -66
3 -37 8 -41 50 -33 32 6 35 9 30 36 -3 16 -9 39 -14 52 -9 25 -11 32 -11 48 0
6 -8 10 -17 10 -17 1 -17 1 0 11 10 6 28 12 40 14 12 1 27 4 32 5 19 5 36 0
31 -8 -3 -5 -8 -23 -11 -41 -3 -18 -17 -60 -30 -94 -14 -33 -25 -61 -25 -62 0
-2 15 -6 33 -10 31 -6 31 -7 8 -16 -22 -9 -119 -6 -203 4 -40 6 -50 -8 -41
-57 5 -25 8 -26 53 -23 26 2 52 7 59 11 6 4 32 4 57 0 l46 -7 -37 -37 c-22
-22 -38 -49 -38 -64 -2 -21 -8 -27 -33 -32 -18 -3 -41 -1 -51 5 -42 22 -79
-10 -66 -59 5 -17 11 -19 52 -14 92 11 96 10 97 -11 0 -11 3 -31 7 -45 4 -14
3 -50 -1 -80 l-7 -55 -43 1 c-23 1 -42 0 -42 -3 0 -2 7 -14 15 -27 9 -13 15
-28 14 -32 -7 -38 23 -48 83 -27 54 18 67 34 60 76 -5 29 -5 126 -1 183 1 15
8 22 23 23 61 4 93 3 112 -3 18 -6 22 -3 26 19 12 58 -16 82 -61 53 -15 -9
-26 -9 -45 0 -14 6 -32 9 -39 6 -31 -12 -11 37 40 96 74 88 80 100 51 102 -13
0 -31 1 -40 0 -16 -2 -16 2 2 49 11 27 30 69 42 92 13 23 23 46 23 51 0 5 -16
15 -35 22 -19 7 -27 13 -18 13 26 1 68 23 68 35 0 12 -50 86 -59 86 -3 -1 -17
-7 -31 -15z m-387 -197 c-4 -154 -3 -150 -22 -78 -14 55 -20 65 -37 62 -17 -2
-20 2 -16 32 4 32 7 35 41 39 20 2 36 4 36 5 0 1 -1 -26 -2 -60z m-314 -145
c2 -31 7 -67 15 -96 6 -20 13 -26 26 -22 14 5 17 0 16 -25 -1 -22 -10 -36 -38
-55 l-36 -25 -6 38 c-7 41 -6 158 1 185 2 9 8 17 13 17 5 0 9 -8 9 -17z m250
-30 c0 -34 10 -76 19 -85 5 -5 19 -10 31 -11 13 -1 20 -6 17 -14 -3 -7 -1 -24
5 -37 16 -35 -1 -102 -26 -99 -10 1 -28 -2 -40 -7 -24 -9 -22 -19 -30 140 -2
47 -2 95 1 108 5 26 23 30 23 5z"/>
<path d="M597 828 c-15 -5 -26 -15 -24 -21 3 -7 13 -38 23 -69 20 -61 24 -64
65 -45 l26 12 -25 68 c-13 37 -28 67 -31 66 -3 0 -19 -5 -34 -11z"/>
</g>
</svg>
