<?xml version="1.0" standalone="no"?>
<!DOCTYPE svg PUBLIC "-//W3C//DTD SVG 20010904//EN"
 "http://www.w3.org/TR/2001/REC-SVG-20010904/DTD/svg10.dtd">
<svg version="1.0" xmlns="http://www.w3.org/2000/svg"
 width="101.000000pt" height="101.000000pt" viewBox="0 0 101.000000 101.000000"
 preserveAspectRatio="xMidYMid meet">
<metadata>
Created by potrace 1.16, written by Peter Selinger 2001-2019
</metadata>
<g transform="translate(0.000000,101.000000) scale(0.100000,-0.100000)"
fill="#000000" stroke="none">
<path d="M438 983 c-15 -4 -14 -9 7 -56 29 -62 20 -72 -53 -63 -80 10 -245 17
-279 11 -37 -7 -54 -44 -33 -70 9 -11 10 -36 5 -89 l-7 -74 31 -7 c17 -3 40
-4 51 0 18 6 20 13 17 73 l-3 67 112 -3 c71 -2 115 1 119 8 8 13 52 13 60 0 7
-12 213 -12 220 0 7 11 58 13 104 4 23 -5 30 -11 26 -22 -3 -8 -2 -37 1 -63 5
-41 11 -50 30 -55 13 -3 35 -3 49 0 25 6 26 8 19 66 -5 43 -3 60 5 60 8 0 11
16 9 48 l-3 47 -118 -3 c-73 -2 -123 1 -131 7 -7 6 -33 10 -59 8 l-46 -3 -16
57 -16 57 -42 0 c-23 -1 -50 -3 -59 -5z"/>
<path d="M264 703 c-8 -8 -11 -20 -7 -26 4 -6 6 -48 5 -93 -2 -48 2 -85 8 -89
12 -8 13 -52 1 -59 -13 -8 -12 -108 1 -123 6 -8 9 -40 6 -83 -3 -44 -1 -75 6
-85 14 -18 105 -47 120 -37 6 4 91 7 188 7 163 0 179 2 205 21 33 24 92 126
75 132 -6 2 -29 17 -52 33 -23 17 -43 29 -44 27 -1 -2 -8 -23 -16 -47 -25 -74
-50 -85 -188 -84 -153 1 -182 5 -204 33 -19 24 -24 65 -9 75 5 3 9 30 8 60 -2
47 0 54 15 49 9 -3 30 1 45 9 15 7 36 12 45 10 9 -2 31 3 48 12 18 9 34 14 37
11 3 -3 14 -1 23 4 10 5 35 12 56 15 22 3 53 8 69 10 17 3 44 6 62 8 18 1 36
6 40 10 4 5 -6 33 -22 63 -21 39 -34 53 -45 48 -31 -13 -205 -69 -215 -70 -5
0 -23 -6 -40 -13 -16 -7 -43 -13 -58 -13 -15 -1 -30 -5 -33 -9 -2 -5 -10 -6
-17 -3 -13 5 -15 118 -2 166 6 23 3 28 -17 32 -62 13 -80 13 -94 -1z"/>
</g>
</svg>
