<?xml version="1.0" standalone="no"?>
<!DOCTYPE svg PUBLIC "-//W3C//DTD SVG 20010904//EN"
 "http://www.w3.org/TR/2001/REC-SVG-20010904/DTD/svg10.dtd">
<svg version="1.0" xmlns="http://www.w3.org/2000/svg"
 width="101.000000pt" height="102.000000pt" viewBox="0 0 101.000000 102.000000"
 preserveAspectRatio="xMidYMid meet">
<metadata>
Created by potrace 1.16, written by Peter Selinger 2001-2019
</metadata>
<g transform="translate(0.000000,102.000000) scale(0.100000,-0.100000)"
fill="#000000" stroke="none">
<path d="M324 985 l2 -34 -133 2 c-135 2 -153 -2 -153 -38 0 -31 21 -40 96
-41 44 0 79 -5 81 -10 2 -6 -2 -22 -9 -35 -10 -18 -22 -24 -51 -25 -45 -2 -50
-5 -47 -36 1 -13 2 -89 2 -170 -1 -140 0 -146 20 -152 12 -3 29 -1 39 4 20 11
224 6 253 -5 17 -7 18 -4 11 33 -4 23 -2 49 4 60 5 10 8 28 5 38 -5 18 -15 20
-107 21 -142 2 -142 2 -143 28 -2 25 -6 24 121 28 44 1 90 -2 102 -6 21 -8 22
-5 22 45 0 29 0 63 1 76 1 13 -1 26 -4 29 -3 3 -37 8 -76 11 -60 4 -68 7 -58
19 10 12 9 18 -7 29 -10 8 -14 14 -8 14 6 0 19 3 29 7 14 5 16 2 10 -20 -5
-20 -2 -27 15 -32 11 -4 32 -4 46 0 20 5 24 10 19 28 -5 21 -3 22 73 22 48 0
77 -4 75 -10 -7 -20 15 -38 51 -40 20 -1 42 -8 48 -14 8 -8 -12 -9 -80 -5 -87
7 -91 6 -98 -15 -12 -39 2 -60 41 -56 30 2 37 -2 49 -26 20 -37 19 -38 -12
-33 -43 6 -57 7 -74 6 -18 -2 -31 -35 -23 -57 7 -18 43 -26 65 -14 10 5 43 6
73 3 51 -6 54 -8 51 -33 -3 -27 -7 -28 -75 -16 -44 7 -55 8 -71 7 -18 -2 -31
-35 -23 -57 7 -18 44 -26 66 -14 10 6 38 7 63 3 44 -6 44 -7 39 -39 -4 -26 -1
-34 13 -38 37 -8 -328 -11 -377 -3 -39 7 -71 9 -75 4 -9 -11 -13 -45 -6 -56 9
-15 12 -15 131 -7 41 2 116 1 165 -3 l90 -8 -57 -14 c-54 -12 -64 -21 -59 -52
2 -18 -168 -20 -289 -3 -59 8 -108 10 -113 4 -11 -11 -16 -45 -8 -57 5 -8 19
-13 32 -13 48 3 176 11 244 16 92 7 136 0 132 -23 -5 -33 -16 -39 -66 -35
l-50 4 21 -50 c12 -27 29 -52 39 -54 18 -5 111 22 126 36 7 8 11 31 14 93 1
15 8 22 23 24 53 4 159 -1 182 -10 17 -7 32 -7 44 0 11 6 43 8 73 4 58 -7 71
3 60 44 -6 26 -64 34 -117 15 -28 -9 -66 -12 -125 -8 -48 3 -97 5 -111 6 -21
1 -22 2 -7 10 9 6 32 12 49 15 99 16 136 21 164 23 16 1 23 9 26 33 10 62 -10
86 -57 68 -23 -9 -24 -8 -22 31 1 28 5 38 14 35 7 -3 24 0 38 6 17 8 36 8 71
-1 25 -7 49 -9 52 -6 7 7 7 63 0 70 -6 7 -45 7 -118 1 -52 -4 -55 -3 -56 19
-2 26 -1 26 123 27 85 1 97 7 87 46 -4 12 -15 19 -32 20 -15 1 -36 2 -47 3
-11 1 -33 -1 -48 -6 l-28 -7 21 35 c19 32 25 35 58 32 38 -3 52 7 52 37 0 20
-28 50 -40 43 -5 -3 -39 -7 -76 -8 -65 -2 -67 -2 -77 26 -8 25 -14 28 -39 25
-16 -3 -31 -1 -34 4 -3 4 17 8 45 8 27 0 53 5 56 10 8 13 48 13 61 0 5 -5 32
-7 62 -3 45 5 53 9 58 30 11 41 -6 47 -154 47 l-139 1 4 30 c4 30 3 31 -42 30
-39 0 -47 -3 -51 -22 -3 -12 -3 -27 1 -33 4 -7 -17 -9 -67 -8 -73 3 -74 3 -70
29 3 23 -1 27 -28 33 -63 12 -69 9 -66 -29z m-12 -241 c27 -5 36 -11 35 -24
-1 -23 -76 -37 -106 -21 -11 6 -26 9 -33 6 -9 -4 -14 2 -15 15 -1 15 3 20 15
16 9 -3 24 -1 32 4 18 11 23 12 72 4z m431 0 c3 -3 -1 -21 -10 -39 -13 -27
-21 -32 -45 -31 -24 1 -33 8 -44 34 -12 30 -12 33 4 28 9 -3 24 -1 32 4 17 11
54 13 63 4z m-402 -194 c12 0 16 -8 15 -24 -1 -21 -7 -25 -49 -30 -26 -4 -55
-2 -66 4 -11 5 -26 8 -33 5 -8 -3 -14 4 -14 20 -2 20 2 24 15 21 9 -3 23 -1
31 5 8 5 31 7 50 4 19 -2 42 -5 51 -5z"/>
</g>
</svg>
