<?xml version="1.0" standalone="no"?>
<!DOCTYPE svg PUBLIC "-//W3C//DTD SVG 20010904//EN"
 "http://www.w3.org/TR/2001/REC-SVG-20010904/DTD/svg10.dtd">
<svg version="1.0" xmlns="http://www.w3.org/2000/svg"
 width="101.000000pt" height="101.000000pt" viewBox="0 0 101.000000 101.000000"
 preserveAspectRatio="xMidYMid meet">
<metadata>
Created by potrace 1.16, written by Peter Selinger 2001-2019
</metadata>
<g transform="translate(0.000000,101.000000) scale(0.100000,-0.100000)"
fill="#000000" stroke="none">
<path d="M453 997 l-32 -10 24 -48 c14 -27 25 -50 25 -51 0 -2 -20 -2 -45 0
-25 2 -51 -1 -58 -6 -15 -13 -174 -15 -182 -2 -10 16 -84 9 -89 -9 -8 -30 -5
-90 4 -96 14 -8 13 -62 -1 -71 -17 -10 10 -24 48 -24 53 0 80 49 54 98 -8 15
-1 17 72 19 103 2 129 2 275 1 64 0 132 3 149 7 18 4 48 4 66 1 33 -6 33 -6
33 -64 -1 -56 0 -57 28 -60 67 -8 71 -3 72 107 l2 99 -79 1 c-47 1 -79 -3 -79
-9 0 -5 -16 -10 -35 -10 -19 0 -35 4 -35 9 0 6 -21 11 -47 13 l-47 3 -14 57
c-13 55 -15 57 -45 56 -18 -1 -46 -6 -64 -11z"/>
<path d="M88 613 c-22 -5 -31 -39 -20 -78 8 -27 13 -30 43 -28 19 2 81 3 139
4 58 0 113 5 123 11 10 5 37 6 59 3 l41 -7 -7 -137 c-9 -179 -6 -171 -66 -164
-27 3 -56 3 -65 -1 -14 -5 -14 -8 0 -35 13 -25 21 -53 24 -82 2 -19 140 9 176
35 24 17 34 86 34 244 1 148 -5 137 77 132 18 -1 35 3 39 9 9 16 137 13 178
-4 20 -8 43 -12 52 -9 19 8 29 46 21 78 -5 22 -13 25 -70 31 -36 4 -84 4 -108
0 -24 -4 -81 -7 -128 -6 -47 0 -116 0 -155 1 -111 0 -123 0 -250 3 -66 2 -128
2 -137 0z"/>
</g>
</svg>
