<?xml version="1.0" standalone="no"?>
<!DOCTYPE svg PUBLIC "-//W3C//DTD SVG 20010904//EN"
 "http://www.w3.org/TR/2001/REC-SVG-20010904/DTD/svg10.dtd">
<svg version="1.0" xmlns="http://www.w3.org/2000/svg"
 width="101.000000pt" height="101.000000pt" viewBox="0 0 101.000000 101.000000"
 preserveAspectRatio="xMidYMid meet">
<metadata>
Created by potrace 1.16, written by Peter Selinger 2001-2019
</metadata>
<g transform="translate(0.000000,101.000000) scale(0.100000,-0.100000)"
fill="#000000" stroke="none">
<path d="M458 993 c-23 -6 -23 -18 3 -60 27 -44 16 -57 -43 -49 -82 12 -266
16 -292 6 -25 -9 -25 -11 -23 -104 2 -95 2 -96 29 -101 58 -13 88 20 75 83
l-6 27 114 -3 c71 -2 116 1 120 8 8 13 52 13 61 -1 4 -8 52 -9 156 -5 146 5
149 5 143 -15 -4 -11 -4 -33 0 -49 7 -33 37 -47 80 -36 24 6 24 9 18 66 -4 41
-2 64 7 75 18 21 4 68 -18 61 -43 -12 -193 -17 -205 -7 -7 5 -35 9 -63 8 -46
-1 -49 0 -50 23 0 14 -3 37 -7 51 -6 23 -12 27 -44 26 -21 0 -46 -2 -55 -4z"/>
<path d="M445 762 c-3 -7 -2 -18 1 -24 3 -5 8 -36 9 -68 l3 -57 -89 5 c-63 3
-89 1 -89 -7 0 -7 -26 -11 -75 -11 -47 0 -75 4 -75 11 0 6 -10 9 -22 7 -42 -6
-36 -81 8 -92 14 -4 80 -2 146 4 66 6 123 9 126 6 3 -3 -35 -46 -84 -94 -72
-72 -106 -97 -176 -132 l-88 -43 47 -44 c26 -24 52 -42 58 -39 48 18 237 194
290 269 l20 27 0 -184 -1 -185 28 -6 c57 -13 65 -3 71 98 3 50 5 136 4 189
l-2 97 19 -37 c35 -68 221 -234 288 -256 7 -3 31 20 55 55 24 32 39 60 35 60
-4 1 -16 3 -27 5 -101 16 -181 61 -256 143 -33 35 -59 67 -59 70 0 3 68 6 150
6 134 0 151 2 156 18 6 20 -4 59 -19 69 -6 4 -20 2 -30 -4 -13 -7 -71 -8 -168
-3 l-149 7 4 52 c3 28 7 59 11 68 4 11 0 20 -13 27 -29 15 -100 11 -107 -7z"/>
</g>
</svg>
