<?xml version="1.0" standalone="no"?>
<!DOCTYPE svg PUBLIC "-//W3C//DTD SVG 20010904//EN"
 "http://www.w3.org/TR/2001/REC-SVG-20010904/DTD/svg10.dtd">
<svg version="1.0" xmlns="http://www.w3.org/2000/svg"
 width="101.000000pt" height="101.000000pt" viewBox="0 0 101.000000 101.000000"
 preserveAspectRatio="xMidYMid meet">
<metadata>
Created by potrace 1.16, written by Peter Selinger 2001-2019
</metadata>
<g transform="translate(0.000000,101.000000) scale(0.100000,-0.100000)"
fill="#000000" stroke="none">
<path d="M496 995 c-16 -9 -35 -14 -42 -11 -21 8 -24 -5 -8 -36 30 -59 28 -63
-32 -60 -30 2 -60 -1 -67 -6 -15 -13 -174 -15 -182 -2 -3 5 -21 9 -39 8 l-34
-1 0 -108 0 -108 29 -6 c60 -13 86 16 77 88 l-3 32 160 2 c88 2 201 3 250 3
50 0 115 0 146 0 l55 1 -4 -35 c-6 -50 12 -76 53 -76 55 0 68 21 63 111 -1 43
-7 81 -11 86 -14 13 -167 17 -167 4 0 -6 -16 -11 -35 -11 -19 0 -35 5 -35 10
0 6 -22 10 -50 10 -49 0 -49 0 -57 38 -4 20 -8 40 -9 45 -1 4 -2 14 -3 22 -1
19 -18 19 -55 0z"/>
<path d="M448 743 l-38 -15 19 -27 c10 -14 33 -54 50 -89 34 -68 32 -67 103
-38 l28 12 -52 87 c-28 48 -56 87 -62 86 -6 0 -28 -7 -48 -16z"/>
<path d="M668 651 c-72 -133 -249 -321 -270 -288 -11 18 -10 105 2 112 6 4 9
33 8 65 -1 32 1 62 5 66 18 18 4 32 -38 37 -68 10 -72 5 -74 -73 -1 -38 3 -71
9 -75 13 -8 13 -52 0 -60 -6 -4 -9 -35 -7 -77 l4 -70 -71 -33 c-39 -18 -97
-41 -129 -50 l-57 -17 28 -26 c16 -15 33 -35 39 -46 9 -17 16 -15 102 28 51
26 91 41 88 34 -7 -21 10 -45 44 -62 35 -18 139 -22 139 -6 0 6 16 10 35 10
19 0 35 -5 35 -11 0 -16 135 -2 171 17 25 12 79 104 79 133 0 6 -15 18 -32 27
-18 9 -41 23 -50 31 -24 21 -38 8 -36 -33 1 -23 -6 -42 -21 -58 -22 -23 -27
-24 -144 -20 -146 4 -154 13 -64 78 78 55 196 177 270 278 31 42 62 78 68 80
19 6 3 24 -47 52 -26 14 -47 26 -48 26 0 0 -18 -31 -38 -69z"/>
<path d="M174 600 c-16 -6 -22 -17 -22 -42 -1 -38 -33 -137 -62 -185 -11 -19
-20 -36 -20 -38 0 -6 34 -16 71 -21 29 -4 37 -2 42 13 3 10 24 71 47 136 23
66 40 120 38 121 -11 7 -60 26 -66 25 -4 0 -17 -4 -28 -9z"/>
<path d="M748 522 c-21 -10 -38 -20 -38 -23 0 -3 14 -24 31 -45 17 -22 49 -69
71 -107 l41 -67 46 26 c25 15 47 28 49 29 5 4 -150 205 -157 204 -3 0 -23 -8
-43 -17z"/>
</g>
</svg>
