<?xml version="1.0" standalone="no"?>
<!DOCTYPE svg PUBLIC "-//W3C//DTD SVG 20010904//EN"
 "http://www.w3.org/TR/2001/REC-SVG-20010904/DTD/svg10.dtd">
<svg version="1.0" xmlns="http://www.w3.org/2000/svg"
 width="101.000000pt" height="101.000000pt" viewBox="0 0 101.000000 101.000000"
 preserveAspectRatio="xMidYMid meet">
<metadata>
Created by potrace 1.16, written by Peter Selinger 2001-2019
</metadata>
<g transform="translate(0.000000,101.000000) scale(0.100000,-0.100000)"
fill="#000000" stroke="none">
<path d="M448 988 l-28 -10 21 -39 c25 -51 18 -63 -35 -55 -67 10 -238 17
-273 11 -37 -7 -54 -44 -33 -70 12 -15 10 -85 -3 -115 -6 -12 3 -15 48 -15 50
0 60 5 56 28 -1 4 -3 22 -5 40 l-4 32 113 -3 c71 -2 116 1 120 8 8 13 52 13
60 1 3 -6 -4 -15 -16 -21 -17 -10 -20 -19 -17 -53 l3 -42 -42 4 c-48 3 -50 7
-27 32 14 16 14 18 -6 29 -12 6 -29 13 -38 15 -9 2 -21 4 -27 5 -23 5 -35 -1
-35 -17 0 -29 -45 -116 -79 -155 -17 -20 -31 -38 -31 -40 0 -3 18 -10 41 -17
23 -7 39 -15 36 -17 -3 -3 -40 -6 -84 -7 -74 -2 -78 -3 -81 -26 -2 -12 -1 -33
2 -46 6 -22 11 -23 74 -23 37 0 72 5 78 9 7 5 37 6 68 3 56 -7 56 -7 50 -37
-8 -50 -34 -96 -71 -126 -39 -32 -129 -61 -185 -58 -21 0 -40 -1 -43 -4 -3 -3
16 -27 42 -54 l46 -48 44 11 c122 33 206 101 243 198 12 32 23 70 23 84 0 23
5 26 43 28 49 2 44 16 47 -158 l2 -115 37 -18 c28 -14 42 -16 57 -8 10 6 56 9
103 7 105 -4 128 7 157 75 18 42 20 53 9 60 -7 5 -16 9 -20 9 -3 0 -21 12 -38
26 -35 30 -39 29 -44 -12 -7 -47 -16 -61 -48 -75 -23 -9 -38 -10 -60 -1 -16 6
-36 8 -44 5 -21 -8 -33 36 -28 103 2 32 5 69 5 80 1 15 8 22 23 23 11 0 48 3
81 6 33 2 82 -1 108 -7 57 -14 71 -3 63 51 -6 41 -13 48 -28 33 -17 -17 -154
-16 -162 1 -5 10 -7 10 -12 0 -7 -15 -74 -18 -74 -3 0 6 -16 10 -35 10 -30 0
-35 3 -35 24 0 13 -2 30 -5 38 -4 10 15 13 99 10 119 -3 139 7 134 62 l-3 31
-116 0 c-112 0 -117 1 -112 20 13 59 13 64 -4 74 -16 9 -15 10 7 11 14 0 75 3
136 5 l112 6 -4 -50 c-6 -58 2 -65 59 -57 l42 7 3 93 3 94 -106 -5 c-67 -3
-110 -1 -118 6 -7 5 -35 9 -62 8 l-48 -2 -15 52 c-13 49 -15 51 -50 51 -21 0
-49 -5 -64 -10z m7 -433 l0 -43 -69 -6 c-46 -4 -78 -2 -96 6 l-28 12 24 35
c23 36 24 36 96 37 l73 1 0 -42z"/>
</g>
</svg>
