<?xml version="1.0" standalone="no"?>
<!DOCTYPE svg PUBLIC "-//W3C//DTD SVG 20010904//EN"
 "http://www.w3.org/TR/2001/REC-SVG-20010904/DTD/svg10.dtd">
<svg version="1.0" xmlns="http://www.w3.org/2000/svg"
 width="101.000000pt" height="101.000000pt" viewBox="0 0 101.000000 101.000000"
 preserveAspectRatio="xMidYMid meet">
<metadata>
Created by potrace 1.16, written by Peter Selinger 2001-2019
</metadata>
<g transform="translate(0.000000,101.000000) scale(0.100000,-0.100000)"
fill="#000000" stroke="none">
<path d="M458 1003 c-21 -5 -22 -16 -7 -44 6 -11 12 -29 14 -39 3 -18 -3 -18
-123 -13 -70 3 -155 8 -189 10 -61 5 -62 4 -69 -22 -4 -15 -2 -31 5 -38 13
-13 14 -77 2 -110 -9 -22 -7 -26 16 -32 37 -9 81 3 88 24 3 10 1 30 -5 45 -5
15 -10 28 -10 29 0 1 21 0 46 -2 25 -2 56 2 68 8 11 6 52 10 90 9 l70 -3 0
-97 1 -98 -47 0 c-60 0 -67 13 -23 40 19 12 35 25 35 29 0 5 -26 29 -58 54
l-58 45 -35 -21 c-19 -11 -36 -22 -38 -24 -3 -2 20 -27 50 -55 l54 -52 -55 -7
c-30 -5 -60 -6 -67 -4 -17 6 -26 -52 -18 -122 6 -61 7 -95 3 -280 -3 -103 -1
-112 16 -117 11 -3 28 0 38 5 10 6 28 7 39 4 18 -6 19 -4 12 22 -7 25 -7 42
-2 119 2 27 3 27 336 24 l81 -1 -2 -33 c-4 -49 -12 -56 -61 -54 -54 3 -61 -3
-40 -35 8 -14 15 -29 14 -33 -7 -38 22 -47 94 -28 61 16 86 41 79 81 -13 74
-13 186 0 195 10 7 10 11 1 15 -14 5 -18 73 -4 73 10 0 21 122 14 150 -6 21
-37 35 -54 24 -7 -4 -27 -8 -46 -9 l-34 -2 33 34 c46 48 83 66 108 53 11 -6
37 -8 59 -4 l39 6 0 94 c0 93 0 94 -25 100 -14 4 -40 3 -57 -3 -17 -5 -83 -9
-145 -8 -89 1 -116 5 -119 16 -2 8 -8 23 -13 35 -6 11 -9 27 -7 35 2 10 -8 14
-37 15 -22 1 -48 -1 -57 -3z m217 -183 c4 -6 34 -9 70 -7 l63 3 4 -38 c2 -21
3 -38 1 -38 -1 0 -25 14 -53 32 l-51 31 -16 -24 c-9 -13 -34 -42 -56 -64 -41
-41 -41 -41 8 -70 12 -7 2 -10 -39 -10 l-56 0 5 30 c3 17 7 49 9 72 2 23 7 46
10 52 4 5 -2 12 -11 14 -10 3 -4 5 14 6 17 0 35 6 38 11 8 13 52 13 60 0z m10
-260 c16 0 20 -7 20 -35 0 -31 -3 -36 -30 -40 -16 -2 -55 -2 -85 0 -30 3 -63
4 -72 4 -30 0 -110 1 -163 4 -50 2 -50 2 -47 32 l4 30 109 -3 c64 -1 117 2
127 8 9 6 40 8 67 5 28 -2 59 -5 70 -5z m-4 -139 c33 -1 36 -3 36 -30 l0 -30
-81 0 c-139 -2 -290 -2 -312 0 -15 1 -21 8 -21 28 0 25 2 26 53 24 30 -1 56 3
60 8 3 6 50 8 117 5 62 -3 128 -5 148 -5z"/>
</g>
</svg>
