<?xml version="1.0" standalone="no"?>
<!DOCTYPE svg PUBLIC "-//W3C//DTD SVG 20010904//EN"
 "http://www.w3.org/TR/2001/REC-SVG-20010904/DTD/svg10.dtd">
<svg version="1.0" xmlns="http://www.w3.org/2000/svg"
 width="101.000000pt" height="101.000000pt" viewBox="0 0 101.000000 101.000000"
 preserveAspectRatio="xMidYMid meet">
<metadata>
Created by potrace 1.16, written by Peter Selinger 2001-2019
</metadata>
<g transform="translate(0.000000,101.000000) scale(0.100000,-0.100000)"
fill="#000000" stroke="none">
<path d="M423 998 c3 -7 12 -30 21 -50 16 -37 16 -38 -9 -44 -14 -3 -42 -3
-63 0 -56 10 -233 17 -267 11 -24 -4 -31 -11 -33 -32 -1 -14 3 -32 9 -39 6 -8
9 -32 6 -56 -3 -24 -7 -54 -9 -68 -3 -21 2 -26 26 -28 15 -2 39 -1 52 2 21 6
23 11 21 69 l-2 62 112 -3 c70 -2 114 1 118 8 8 13 52 13 61 -1 3 -6 2 -14 -4
-18 -6 -3 -9 -18 -8 -33 l3 -27 -116 4 c-119 4 -131 1 -131 -37 0 -24 30 -50
49 -43 9 4 57 7 107 8 88 2 92 1 90 -20 -1 -19 -9 -22 -66 -28 -44 -5 -65 -4
-68 4 -5 15 -115 14 -130 -1 -26 -26 -9 -79 24 -79 97 1 141 5 151 13 7 5 30
7 51 3 35 -6 39 -9 39 -35 0 -25 -5 -30 -31 -35 -17 -2 -56 -2 -86 0 -30 3
-86 7 -125 9 -38 2 -77 5 -85 6 -46 9 -63 -12 -53 -64 5 -23 8 -25 47 -20 84
11 133 13 232 7 99 -5 102 -6 100 -29 -1 -30 -32 -37 -136 -29 -138 10 -133
11 -131 -27 6 -91 5 -227 -2 -244 -9 -26 9 -33 65 -26 33 4 36 6 33 32 -5 35
-44 31 344 30 73 0 92 -3 88 -13 -11 -29 14 -43 69 -39 19 2 20 7 17 108 -1
58 1 114 7 123 5 10 7 26 4 37 -5 17 -16 19 -117 21 -154 2 -152 2 -153 28 -2
28 -7 27 212 26 l172 -1 5 26 c11 58 6 60 -106 52 -56 -4 -133 -5 -172 -3 -38
3 -79 6 -90 6 -29 2 -30 46 -1 48 11 0 49 3 84 5 39 3 77 0 102 -9 35 -12 41
-12 56 2 13 14 13 57 -1 71 -1 2 -61 4 -132 5 -111 2 -129 4 -130 18 -1 13 13
18 73 23 41 4 90 4 110 0 40 -7 54 4 54 43 0 27 -33 47 -63 37 -12 -4 -54 -7
-93 -8 -69 -1 -70 0 -66 23 3 13 -1 27 -9 32 -16 10 -4 12 77 9 29 -1 55 3 59
9 7 12 51 14 106 5 34 -6 37 -9 34 -38 -2 -17 -4 -35 -5 -41 -5 -25 3 -30 53
-30 l52 0 3 99 c2 90 1 98 -15 91 -32 -12 -233 -18 -246 -7 -7 6 -33 10 -57 9
-45 -2 -45 -2 -60 43 l-15 45 -59 3 c-45 2 -57 0 -53 -10z m203 -678 c88 0 92
-1 93 -23 0 -12 2 -35 3 -52 l3 -30 -95 -3 c-133 -4 -289 -4 -325 0 -27 3 -30
6 -27 33 1 17 3 40 3 53 1 16 6 21 18 18 9 -3 23 -1 31 4 8 5 57 7 110 4 52
-2 136 -4 186 -4z"/>
</g>
</svg>
