<?xml version="1.0" standalone="no"?>
<!DOCTYPE svg PUBLIC "-//W3C//DTD SVG 20010904//EN"
 "http://www.w3.org/TR/2001/REC-SVG-20010904/DTD/svg10.dtd">
<svg version="1.0" xmlns="http://www.w3.org/2000/svg"
 width="101.000000pt" height="101.000000pt" viewBox="0 0 101.000000 101.000000"
 preserveAspectRatio="xMidYMid meet">
<metadata>
Created by potrace 1.16, written by Peter Selinger 2001-2019
</metadata>
<g transform="translate(0.000000,101.000000) scale(0.100000,-0.100000)"
fill="#000000" stroke="none">
<path d="M474 989 c-3 -6 -17 -9 -30 -6 -19 3 -22 1 -14 -13 5 -9 11 -28 14
-42 l4 -24 -84 4 c-58 3 -84 1 -84 -7 0 -6 -16 -11 -35 -11 -19 0 -35 5 -35
10 0 6 -28 10 -64 10 l-64 0 2 -85 c1 -75 3 -85 21 -89 18 -5 20 -13 18 -99
-2 -89 -1 -95 19 -100 12 -3 29 -2 39 4 10 5 42 6 72 3 52 -6 53 -7 54 -40 1
-30 -2 -34 -30 -39 -18 -3 -59 -3 -92 0 -122 10 -118 11 -118 -35 0 -39 6 -45
53 -43 38 2 39 1 29 -23 -5 -14 -7 -30 -4 -35 11 -17 -38 -110 -73 -139 -32
-26 -34 -30 -16 -35 10 -3 31 -12 47 -20 27 -14 28 -13 62 33 33 46 79 180 69
206 -3 8 8 12 35 13 33 2 39 -1 40 -20 0 -12 3 -50 5 -85 3 -39 0 -77 -9 -102
-22 -63 -5 -82 63 -72 l33 4 -5 55 c-5 54 -5 54 17 39 52 -38 67 -27 135 103
35 66 41 72 50 54 12 -21 9 -178 -3 -224 -8 -30 10 -39 64 -31 30 4 32 7 24
31 -4 14 -7 69 -6 121 4 157 2 151 26 101 21 -46 116 -154 150 -173 17 -9 25
-4 57 33 l38 44 -40 16 c-22 8 -55 28 -74 43 -34 27 -94 101 -94 116 0 8 26
11 106 11 43 0 53 3 57 19 15 57 -19 77 -90 53 -36 -13 -53 -14 -75 -5 -16 6
-36 8 -44 5 -11 -4 -13 5 -12 39 l2 43 56 -2 c30 -2 62 -4 70 -5 33 -3 49 3
55 21 13 42 -18 93 -46 75 -6 -3 -38 -6 -73 -7 l-63 -2 3 37 c1 21 5 47 9 58
4 13 2 20 -7 21 -25 2 37 17 75 18 33 1 37 -1 37 -25 0 -41 18 -64 48 -63 57
1 61 7 59 92 -2 81 -14 104 -47 90 -8 -3 -81 -7 -162 -7 l-147 -1 -12 48 c-9
39 -15 47 -34 47 -13 0 -27 -5 -31 -11z m99 -174 c12 -8 19 -31 22 -71 l5 -59
-75 2 c-71 1 -75 0 -81 -22 -15 -60 22 -84 105 -68 l48 9 -1 -45 c-1 -51 3
-49 -86 -36 -81 12 -97 10 -103 -12 -3 -10 -5 3 -6 30 0 26 -5 47 -11 47 -12
0 -14 147 -1 152 4 2 11 12 15 24 5 16 0 22 -21 31 -25 10 -26 11 -6 12 12 1
25 5 28 11 9 14 147 11 168 -5z m-245 -9 c3 -3 -2 -6 -11 -6 -15 0 -17 -11
-14 -88 l3 -88 -51 0 c-50 1 -51 1 -47 31 3 17 9 35 14 42 10 13 0 21 -40 33
-15 5 -19 9 -10 9 13 1 16 9 15 39 l-2 37 68 -2 c38 -1 72 -4 75 -7z m103
-359 c10 -3 33 0 49 6 22 8 33 8 41 0 15 -15 -31 -99 -85 -156 l-40 -42 -9 95
c-7 68 -6 95 2 98 6 2 12 11 12 20 1 16 2 16 6 1 2 -10 13 -19 24 -22z"/>
</g>
</svg>
