<?xml version="1.0" standalone="no"?>
<!DOCTYPE svg PUBLIC "-//W3C//DTD SVG 20010904//EN"
 "http://www.w3.org/TR/2001/REC-SVG-20010904/DTD/svg10.dtd">
<svg version="1.0" xmlns="http://www.w3.org/2000/svg"
 width="101.000000pt" height="101.000000pt" viewBox="0 0 101.000000 101.000000"
 preserveAspectRatio="xMidYMid meet">
<metadata>
Created by potrace 1.16, written by Peter Selinger 2001-2019
</metadata>
<g transform="translate(0.000000,101.000000) scale(0.100000,-0.100000)"
fill="#000000" stroke="none">
<path d="M475 1000 c-4 -7 -18 -10 -31 -7 l-23 4 24 -41 24 -41 -40 3 c-21 2
-45 0 -52 -6 -15 -13 -174 -15 -182 -3 -8 14 -91 11 -110 -3 -15 -11 -16 -16
-5 -36 9 -17 9 -28 0 -44 -6 -12 -9 -35 -7 -51 4 -29 6 -30 52 -28 52 2 67 14
62 53 l-3 25 161 2 c405 6 492 3 491 -17 -1 -8 -5 -18 -11 -22 -15 -11 -153
-10 -160 2 -7 12 -113 11 -121 -1 -7 -12 -51 -11 -59 1 -7 11 -94 13 -111 2
-17 -11 -25 -45 -14 -62 12 -19 148 -27 179 -10 31 16 198 3 198 -15 0 -11
-31 -13 -150 -9 -172 5 -203 1 -210 -28 -12 -46 -6 -48 178 -44 158 2 174 1
178 -15 6 -22 -18 -29 -110 -29 -47 0 -73 4 -77 13 -5 10 -7 10 -12 0 -7 -15
-74 -18 -74 -3 0 6 -24 10 -54 10 -46 0 -56 -3 -61 -20 -3 -11 -3 -29 0 -40 8
-25 25 -28 105 -13 59 10 273 7 307 -4 55 -20 95 6 73 46 -11 21 -1 193 10
186 5 -3 28 -2 53 1 l45 6 0 78 0 77 -58 2 c-32 1 -61 -3 -64 -8 -9 -13 -167
-13 -183 1 -7 6 -22 8 -33 5 -16 -4 -22 3 -32 42 -13 43 -16 46 -50 49 -20 2
-39 -2 -43 -8z"/>
<path d="M218 803 c-19 -5 -25 -43 -8 -43 12 0 12 -130 0 -175 -4 -16 -8 -24
-9 -16 0 7 -13 40 -27 72 -29 63 -26 62 -91 38 -28 -10 -28 -10 -4 -51 11 -18
24 -52 31 -75 12 -48 14 -49 63 -28 35 14 35 14 33 -12 -1 -19 -18 -40 -66
-78 -36 -29 -75 -57 -87 -64 l-22 -11 31 -50 31 -51 58 63 c51 57 57 61 58 38
0 -14 3 -55 6 -92 3 -44 0 -81 -10 -108 -22 -63 -5 -82 63 -72 32 4 38 15 34
67 -2 19 -1 19 16 -1 9 -12 22 -29 27 -38 14 -23 36 -22 140 9 112 33 124 34
155 22 51 -19 156 -48 195 -53 42 -6 44 -5 93 98 2 4 -10 3 -27 -3 -18 -6 -43
-8 -59 -3 -15 4 -38 9 -52 11 -14 2 -36 5 -50 7 -14 2 -33 4 -43 5 -15 1 -13
6 12 26 16 14 47 52 69 84 32 48 42 57 58 50 11 -4 32 -5 45 -2 21 4 26 11 27
41 1 20 2 47 3 60 1 29 -4 34 -33 33 -253 -14 -404 -16 -463 -6 -48 8 -84 9
-92 2 -3 -3 -4 -16 -4 -29 1 -13 2 -38 3 -55 1 -33 9 -38 50 -35 11 1 17 -5
16 -16 -4 -48 1 -55 33 -48 26 5 29 4 20 -8 -9 -11 -2 -22 35 -54 l47 -40 -32
-7 c-50 -11 -81 -15 -144 -20 l-58 -5 7 85 c5 61 4 85 -5 85 -13 0 -15 87 -2
92 10 3 20 347 11 349 -12 2 -36 7 -50 12 -8 2 -23 3 -32 0z m525 -384 c55 -1
77 -5 77 -13 0 -14 -220 -28 -315 -20 -27 2 -60 4 -72 5 -13 1 -23 8 -23 16 0
9 6 12 18 9 9 -3 24 -1 32 4 8 5 57 7 110 4 52 -2 130 -5 173 -5z m-90 -97
c16 -7 15 -10 -12 -36 -33 -32 -55 -30 -92 10 -22 24 -22 26 -4 20 11 -3 27
-1 35 4 17 11 47 12 73 2z"/>
</g>
</svg>
