<?xml version="1.0" standalone="no"?>
<!DOCTYPE svg PUBLIC "-//W3C//DTD SVG 20010904//EN"
 "http://www.w3.org/TR/2001/REC-SVG-20010904/DTD/svg10.dtd">
<svg version="1.0" xmlns="http://www.w3.org/2000/svg"
 width="101.000000pt" height="101.000000pt" viewBox="0 0 101.000000 101.000000"
 preserveAspectRatio="xMidYMid meet">
<metadata>
Created by potrace 1.16, written by Peter Selinger 2001-2019
</metadata>
<g transform="translate(0.000000,101.000000) scale(0.100000,-0.100000)"
fill="#000000" stroke="none">
<path d="M463 1000 c-21 -9 -21 -10 -6 -41 20 -41 6 -52 -62 -44 -96 10 -250
15 -283 10 l-33 -6 3 -84 c3 -83 4 -85 30 -90 54 -12 89 21 76 73 -4 15 4 17
74 17 43 0 79 -2 79 -5 12 -44 8 -46 -55 -39 -33 4 -65 4 -71 1 -5 -4 -10 -23
-11 -43 l-1 -36 65 -1 c41 -1 68 -6 73 -14 12 -19 -55 -34 -86 -20 -13 6 -33
8 -44 5 -20 -5 -21 -10 -15 -57 9 -78 9 -106 1 -168 l-8 -58 43 6 c83 10 163
14 194 9 26 -4 31 -9 27 -25 -4 -16 -15 -20 -52 -21 -25 -1 -93 -3 -150 -5
-57 -2 -111 1 -121 6 -41 22 -73 -10 -63 -62 4 -21 9 -24 36 -21 80 10 188 12
247 5 l65 -7 -55 -27 c-59 -29 -87 -37 -165 -44 -27 -3 -61 -7 -75 -8 -14 -2
-30 -4 -36 -5 -7 0 -2 -20 13 -48 28 -56 34 -57 157 -23 97 26 181 68 220 109
l29 31 47 -44 c54 -50 101 -76 180 -100 89 -27 129 -30 137 -9 3 10 16 32 29
49 l23 31 -42 1 c-23 0 -55 3 -72 6 -16 3 -46 7 -67 10 -44 5 -118 37 -136 58
-15 18 -20 18 133 21 55 1 121 -2 146 -6 45 -8 47 -7 52 19 12 64 -23 81 -116
57 -47 -12 -76 -12 -252 -2 -29 2 -30 46 -1 48 72 5 176 4 202 -3 41 -10 49
10 28 64 -11 26 -14 49 -8 67 4 16 9 39 10 53 2 14 4 32 5 40 6 44 0 49 -53
49 -91 0 -104 2 -104 20 0 13 11 16 68 14 58 -1 68 1 73 18 15 45 -34 86 -74
62 -9 -5 -28 -7 -43 -3 -23 4 -25 7 -15 25 10 17 24 20 90 22 70 2 78 0 72
-15 -22 -53 -14 -70 37 -78 43 -7 72 16 62 50 -8 24 -8 62 0 91 10 33 -6 46
-42 36 -42 -13 -183 -13 -197 -1 -7 6 -33 9 -58 7 -39 -2 -48 1 -58 19 -6 12
-8 27 -5 33 8 12 -25 31 -51 30 -10 0 -28 -4 -40 -9z m89 -189 c4 -26 3 -26
-58 -26 -49 0 -61 3 -59 15 2 8 4 20 4 25 1 6 25 11 55 11 51 1 54 0 58 -25z
m5 -111 c-2 -26 -40 -37 -73 -22 -13 7 -31 9 -39 6 -9 -4 -15 0 -15 9 0 13 14
17 63 20 34 2 63 4 64 5 1 1 1 -7 0 -18z m65 -91 c79 0 87 -1 85 -19 -1 -21 9
-20 -277 -21 -144 0 -146 0 -147 23 -1 14 3 17 15 14 9 -3 24 -1 32 4 8 5 57
7 110 4 52 -2 134 -4 182 -5z m0 -100 c79 0 87 -1 85 -19 -1 -21 9 -20 -277
-21 -144 0 -146 0 -147 23 -1 14 3 17 15 14 9 -3 24 -1 32 4 8 5 57 7 110 4
52 -2 134 -4 182 -5z"/>
</g>
</svg>
