<?xml version="1.0" standalone="no"?>
<!DOCTYPE svg PUBLIC "-//W3C//DTD SVG 20010904//EN"
 "http://www.w3.org/TR/2001/REC-SVG-20010904/DTD/svg10.dtd">
<svg version="1.0" xmlns="http://www.w3.org/2000/svg"
 width="101.000000pt" height="101.000000pt" viewBox="0 0 101.000000 101.000000"
 preserveAspectRatio="xMidYMid meet">
<metadata>
Created by potrace 1.16, written by Peter Selinger 2001-2019
</metadata>
<g transform="translate(0.000000,101.000000) scale(0.100000,-0.100000)"
fill="#000000" stroke="none">
<path d="M475 1000 c-4 -7 -16 -10 -26 -7 -23 6 -23 8 -3 -38 8 -20 13 -39 11
-41 -10 -10 -249 -15 -260 -6 -7 6 -36 10 -65 9 -50 -1 -52 -2 -58 -33 -3 -18
-4 -39 -1 -46 2 -7 0 -23 -4 -36 -20 -53 46 -86 87 -44 15 14 17 14 12 1 -13
-34 8 -44 86 -43 71 1 74 0 79 -23 l5 -25 -72 6 c-86 8 -102 -1 -97 -50 2 -17
41 -25 63 -13 10 6 38 7 62 4 38 -6 44 -10 42 -31 -1 -30 -32 -37 -136 -29
-136 10 -124 11 -134 -20 -9 -31 9 -49 46 -47 42 1 106 10 138 17 14 4 36 2
50 -3 24 -9 23 -10 -30 -44 -46 -29 -134 -67 -214 -93 -18 -5 -17 -9 16 -42
l36 -35 76 40 c56 29 75 35 72 23 -8 -24 8 -43 35 -42 42 0 85 7 98 15 7 5 28
5 47 1 26 -4 34 -10 30 -21 -3 -8 -1 -25 5 -38 9 -18 8 -32 -2 -55 -13 -28
-17 -31 -56 -27 -24 2 -43 1 -43 -2 0 -3 10 -26 21 -50 22 -44 22 -44 63 -38
23 4 51 14 64 22 20 13 23 22 22 87 -2 123 -6 116 59 111 116 -9 138 -2 125
39 -5 15 3 13 43 -11 69 -43 125 -61 131 -44 2 8 17 29 33 47 l29 33 -27 8
c-16 4 -31 7 -35 6 -14 -3 -119 38 -163 63 -45 27 -73 54 -42 42 8 -3 29 -1
45 5 23 9 38 8 68 -4 76 -30 132 -5 117 51 -4 16 -9 18 -32 10 -15 -5 -68 -7
-117 -4 -49 3 -98 6 -109 6 -13 1 -20 9 -21 24 -2 25 4 26 110 25 62 0 77 9
69 41 -5 17 -15 19 -67 19 -103 -1 -111 0 -112 24 -1 20 4 21 84 23 56 1 88 6
93 15 5 7 23 11 47 9 45 -3 78 21 66 48 -3 9 -6 41 -5 72 l2 56 -60 2 c-33 1
-62 -3 -65 -8 -8 -13 -174 -13 -182 0 -3 6 -17 9 -31 7 -22 -3 -28 3 -42 42
-13 36 -22 46 -43 48 -14 2 -29 -2 -33 -8z m-18 -151 c6 -6 33 -10 61 -8 45 4
49 2 41 -14 -6 -9 -9 -25 -7 -35 2 -13 -5 -18 -34 -20 -22 -2 -38 1 -38 7 0 6
-11 11 -25 11 -19 0 -25 5 -25 21 0 12 -8 23 -20 26 -11 3 -17 9 -14 14 7 13
48 11 61 -2z m369 -2 c1 -1 0 -14 -3 -29 -4 -19 -12 -28 -24 -28 -10 0 -21 -4
-24 -10 -3 -5 -36 -10 -72 -10 -57 0 -65 2 -60 18 2 9 6 24 8 32 8 33 32 41
103 35 39 -3 71 -7 72 -8z m-500 -10 c2 -1 5 -14 7 -28 l5 -26 -84 1 c-71 1
-84 4 -84 18 0 9 -2 22 -5 30 -4 10 12 12 77 10 45 -1 83 -4 84 -5z m174 -127
c39 0 49 -4 53 -20 4 -16 -1 -21 -28 -26 -18 -3 -42 -1 -53 5 -11 6 -27 9 -34
6 -9 -4 -13 3 -13 20 0 17 4 24 13 20 8 -3 35 -5 62 -5z m36 -96 c15 -4 21
-13 20 -30 -1 -19 -8 -25 -32 -30 -18 -3 -41 -1 -52 5 -11 6 -27 9 -34 6 -8
-3 -14 4 -14 20 -2 20 2 24 15 21 9 -3 23 -1 31 4 17 11 36 12 66 4z m94 -167
c31 -29 52 -53 46 -55 -6 -2 -21 -8 -33 -14 -17 -8 -30 -8 -48 0 -14 6 -32 9
-40 6 -18 -7 -19 2 -4 45 6 18 9 35 6 38 -4 3 -27 7 -52 9 -49 5 -46 8 -49
-66 -1 -33 -3 -35 -31 -33 -16 2 -43 5 -60 8 -16 3 -39 6 -49 6 -14 0 -8 7 20
26 21 14 53 39 71 55 17 17 36 27 42 24 6 -4 19 -2 28 4 36 22 93 2 153 -53z"/>
<path d="M263 261 c-35 -21 -87 -46 -118 -56 -30 -11 -55 -22 -55 -25 0 -3 15
-21 33 -38 l33 -32 100 51 c145 75 148 78 133 95 -7 9 -24 21 -38 29 -24 12
-31 10 -88 -24z"/>
<path d="M618 277 c-8 -12 -18 -27 -22 -34 -4 -8 17 -24 66 -49 40 -20 86 -45
101 -56 33 -24 47 -20 76 21 l22 30 -92 46 c-133 67 -135 68 -151 42z"/>
</g>
</svg>
