<?xml version="1.0" standalone="no"?>
<!DOCTYPE svg PUBLIC "-//W3C//DTD SVG 20010904//EN"
 "http://www.w3.org/TR/2001/REC-SVG-20010904/DTD/svg10.dtd">
<svg version="1.0" xmlns="http://www.w3.org/2000/svg"
 width="101.000000pt" height="102.000000pt" viewBox="0 0 101.000000 102.000000"
 preserveAspectRatio="xMidYMid meet">
<metadata>
Created by potrace 1.16, written by Peter Selinger 2001-2019
</metadata>
<g transform="translate(0.000000,102.000000) scale(0.100000,-0.100000)"
fill="#000000" stroke="none">
<path d="M438 1015 c-3 -3 1 -20 9 -36 8 -17 12 -33 9 -36 -12 -13 -197 -15
-211 -3 -8 6 -22 10 -32 9 -10 -1 -30 1 -46 6 -15 4 -43 4 -61 1 l-35 -7 2
-84 c2 -83 2 -85 29 -90 56 -13 94 26 70 72 -10 17 -2 18 151 20 227 4 319 4
418 1 82 -3 86 -4 83 -25 -1 -12 -5 -26 -8 -32 -12 -19 26 -43 57 -37 16 3 35
6 42 6 10 0 13 22 13 84 l-1 84 -39 6 c-22 4 -44 3 -50 0 -6 -4 -35 -6 -65 -5
-32 1 -53 -2 -53 -8 0 -6 -16 -11 -35 -11 -19 0 -35 5 -35 10 0 6 -20 10 -44
10 -40 0 -44 2 -52 33 -9 30 -13 32 -60 35 -27 2 -52 0 -56 -3z"/>
<path d="M199 823 c-9 -22 -8 -34 5 -55 8 -16 11 -28 5 -28 -5 0 -7 -54 -5
-140 l5 -141 -52 6 c-69 8 -97 8 -104 1 -8 -8 -8 -64 0 -72 11 -11 124 -3 146
10 6 4 30 4 53 1 l41 -7 -24 -19 c-33 -26 -156 -76 -203 -83 -22 -4 -41 -8
-43 -10 -7 -6 64 -76 77 -76 7 0 51 20 97 45 63 34 83 41 83 30 0 -13 10 -15
60 -11 33 3 60 2 60 -3 0 -15 -46 -50 -102 -76 -45 -21 -61 -24 -77 -16 -13 8
-28 8 -46 1 l-26 -10 23 -40 c21 -37 26 -40 58 -36 51 6 150 45 189 74 18 13
41 43 52 66 14 32 24 42 46 44 36 5 135 3 140 -1 7 -8 -20 -68 -36 -76 -9 -5
-36 -7 -59 -5 -39 3 -43 1 -37 -14 5 -9 13 -32 19 -49 10 -30 24 -39 51 -33 6
1 20 4 32 5 45 6 78 31 100 75 12 25 20 52 17 62 -9 29 11 28 87 -4 46 -19 75
-26 77 -20 2 6 14 27 27 46 27 40 23 46 -39 51 -45 5 -134 40 -171 68 -19 15
-19 15 10 17 76 3 134 0 157 -9 13 -5 31 -6 38 -1 12 8 19 64 9 75 -8 7 -80 8
-120 2 l-37 -6 -7 71 c-4 42 -3 73 3 77 5 3 11 32 14 64 5 67 -10 85 -57 67
-14 -5 -68 -9 -118 -7 -92 2 -93 2 -89 26 l5 24 113 -7 c62 -3 119 -9 127 -12
18 -6 31 26 23 54 -5 15 -16 17 -81 14 -51 -3 -75 -1 -75 7 0 7 -20 11 -50 11
-27 0 -50 -4 -50 -10 0 -5 -11 -10 -25 -10 -14 0 -25 5 -25 10 0 6 -30 10 -70
10 -40 0 -70 -4 -70 -10 0 -5 -11 -10 -25 -10 -14 0 -25 5 -25 10 0 6 -20 10
-45 10 -40 0 -47 -3 -56 -27z m236 -66 c0 -17 -10 -19 -93 -19 -94 -1 -121 5
-83 17 12 3 21 11 21 16 0 6 32 9 78 7 67 -3 77 -5 77 -21z m75 -97 c8 0 40 2
70 5 71 6 120 -2 120 -20 0 -14 -24 -15 -260 -16 -138 0 -147 1 -147 16 0 8
13 11 42 7 24 -2 51 1 61 7 11 6 37 9 59 6 22 -3 47 -5 55 -5z m113 -81 c56
-1 77 -4 77 -14 0 -14 -26 -15 -260 -16 -143 0 -150 1 -150 18 0 9 6 12 18 9
9 -3 24 -1 32 4 8 5 57 7 110 4 52 -2 130 -5 173 -5z m0 -90 c56 -1 77 -4 77
-14 0 -14 -26 -15 -260 -16 -143 0 -150 1 -150 18 0 9 6 12 18 9 9 -3 24 -1
32 4 8 5 57 7 110 4 52 -2 130 -5 173 -5z m7 -119 l19 -25 -57 -8 c-31 -4 -93
-5 -137 -2 -44 3 -90 6 -103 6 -22 1 -21 2 9 25 18 13 40 22 48 19 9 -2 23 0
31 5 8 5 50 8 93 7 70 -2 81 -5 97 -27z"/>
</g>
</svg>
