<?xml version="1.0" standalone="no"?>
<!DOCTYPE svg PUBLIC "-//W3C//DTD SVG 20010904//EN"
 "http://www.w3.org/TR/2001/REC-SVG-20010904/DTD/svg10.dtd">
<svg version="1.0" xmlns="http://www.w3.org/2000/svg"
 width="101.000000pt" height="102.000000pt" viewBox="0 0 101.000000 102.000000"
 preserveAspectRatio="xMidYMid meet">
<metadata>
Created by potrace 1.16, written by Peter Selinger 2001-2019
</metadata>
<g transform="translate(0.000000,102.000000) scale(0.100000,-0.100000)"
fill="#000000" stroke="none">
<path d="M453 1009 c-28 -10 -28 -10 -3 -58 l19 -39 -67 -5 c-111 -9 -180 -9
-186 2 -3 5 -35 9 -71 9 l-65 -1 -6 -34 c-6 -34 1 -131 10 -140 3 -3 16 -6 30
-7 29 -1 28 2 27 -113 l-1 -81 34 2 c18 2 38 6 45 10 7 5 27 5 45 2 29 -5 32
-10 33 -41 1 -31 -2 -35 -30 -40 -18 -3 -59 -3 -92 0 -90 7 -106 8 -112 1 -8
-8 -8 -64 0 -72 7 -7 41 -7 79 -1 26 5 26 4 22 -40 -6 -63 -30 -108 -83 -153
-25 -22 -41 -40 -34 -40 6 0 26 -12 43 -26 l31 -27 25 24 c53 49 103 168 105
250 1 25 46 19 48 -6 6 -72 5 -226 -2 -256 -8 -41 4 -50 59 -42 l29 5 2 109
c1 63 -2 109 -8 109 -15 0 -10 80 6 96 8 8 33 17 57 20 53 7 215 8 283 1 28
-3 65 -1 83 6 24 8 43 8 75 0 23 -6 43 -10 45 -8 7 6 6 74 0 81 -9 8 -46 9
-85 1 -30 -7 -31 -6 -26 21 2 15 6 46 8 69 4 41 4 42 -28 48 -17 3 -59 4 -93
3 -64 -3 -64 -3 -55 44 0 4 8 5 16 2 9 -4 49 -3 90 1 72 6 75 8 69 30 -5 22
-3 23 33 19 56 -7 63 2 65 91 l3 80 -53 3 c-30 2 -59 -1 -65 -7 -16 -13 -168
-13 -183 0 -7 6 -21 9 -31 7 -14 -3 -21 8 -33 47 -15 47 -18 50 -50 51 -19 1
-45 -2 -57 -7z m12 -169 c7 -12 213 -12 220 0 7 11 52 13 107 4 32 -6 36 -10
35 -33 -1 -14 -6 -29 -10 -32 -5 -3 -39 -4 -77 -2 -40 2 -71 -1 -75 -7 -8 -13
-52 -13 -60 0 -4 6 -44 9 -95 8 -84 -1 -89 -3 -95 -25 -3 -13 0 -33 6 -45 10
-19 17 -20 81 -14 62 6 70 4 64 -10 -3 -8 -6 -21 -6 -27 0 -8 -17 -11 -53 -9
-61 4 -83 -12 -73 -52 7 -27 41 -40 68 -25 32 17 49 4 43 -33 -8 -44 -18 -52
-52 -42 -28 8 -40 10 -80 13 -13 0 -23 8 -23 16 0 8 -4 15 -10 15 -12 0 -14
147 -1 152 9 3 21 107 12 109 -3 1 -16 3 -27 4 -12 1 -26 5 -32 9 -5 3 -18 3
-27 -1 -16 -5 -17 -17 -11 -97 l7 -91 -38 0 c-37 -1 -38 1 -36 30 1 16 5 42 9
57 5 21 1 29 -16 38 -12 6 -27 10 -33 7 -8 -3 -12 10 -12 37 l0 41 111 -3 c71
-2 115 1 119 8 8 13 52 13 60 0z m268 -285 c-7 -56 -10 -60 -39 -57 -16 1 -38
3 -49 3 -16 1 -21 8 -19 28 2 41 3 43 22 37 9 -3 24 -1 32 4 25 17 55 8 53
-15z"/>
<path d="M479 393 c-21 -5 -31 -41 -19 -64 6 -10 8 -67 7 -128 -4 -120 -2
-125 57 -114 25 5 31 19 28 64 -1 11 7 17 21 18 12 1 45 3 72 5 69 6 105 -2
103 -22 -4 -58 12 -75 64 -65 23 4 24 6 25 121 0 64 3 132 5 149 l5 33 -161
-3 c-89 -1 -168 1 -176 4 -8 4 -22 5 -31 2z m261 -72 c3 -1 6 -19 7 -40 2 -36
-1 -40 -25 -45 -15 -2 -49 -3 -77 0 -27 2 -60 4 -72 5 -19 1 -22 7 -20 40 1
30 5 38 17 34 8 -2 22 0 30 5 12 7 103 8 140 1z"/>
</g>
</svg>
