<?xml version="1.0" standalone="no"?>
<!DOCTYPE svg PUBLIC "-//W3C//DTD SVG 20010904//EN"
 "http://www.w3.org/TR/2001/REC-SVG-20010904/DTD/svg10.dtd">
<svg version="1.0" xmlns="http://www.w3.org/2000/svg"
 width="101.000000pt" height="101.000000pt" viewBox="0 0 101.000000 101.000000"
 preserveAspectRatio="xMidYMid meet">
<metadata>
Created by potrace 1.16, written by Peter Selinger 2001-2019
</metadata>
<g transform="translate(0.000000,101.000000) scale(0.100000,-0.100000)"
fill="#000000" stroke="none">
<path d="M606 1002 c-3 -5 -3 -57 -1 -116 l4 -107 -85 7 c-60 5 -84 4 -84 -5
0 -6 -11 -11 -25 -11 -14 0 -25 5 -25 10 0 6 -30 10 -70 10 -40 0 -70 -4 -70
-10 0 -5 -16 -10 -35 -10 -19 0 -35 5 -35 10 0 6 -26 10 -59 10 -67 0 -75 -8
-65 -69 l6 -37 160 -2 c94 -1 169 3 180 9 12 6 54 8 111 3 l92 -6 -3 -49 c-2
-27 1 -55 7 -63 13 -15 13 -146 0 -162 -5 -6 -8 -50 -6 -98 3 -101 2 -103 -80
-100 -29 1 -53 -2 -53 -7 0 -14 44 -103 55 -111 6 -4 17 -5 25 -2 8 3 24 7 35
9 38 5 104 37 110 53 12 30 17 202 6 202 -6 0 -11 11 -11 25 0 14 5 25 10 25
6 0 10 30 10 70 0 40 -4 70 -10 70 -5 0 -10 11 -10 25 0 14 5 25 10 25 6 0 10
17 10 39 l0 39 94 7 c52 4 104 4 115 0 24 -7 36 22 27 70 l-7 34 -119 -2 -118
-2 4 83 c2 45 8 91 14 102 15 28 13 30 -20 24 -19 -4 -30 -2 -30 5 0 13 -56
15 -64 3z"/>
<path d="M265 618 c-22 -11 -42 -22 -44 -24 -2 -2 9 -23 26 -47 16 -23 47 -73
68 -112 21 -38 40 -72 42 -74 3 -5 103 40 103 46 0 8 -111 180 -132 205 l-23
27 -40 -21z"/>
</g>
</svg>
