<?xml version="1.0" standalone="no"?>
<!DOCTYPE svg PUBLIC "-//W3C//DTD SVG 20010904//EN"
 "http://www.w3.org/TR/2001/REC-SVG-20010904/DTD/svg10.dtd">
<svg version="1.0" xmlns="http://www.w3.org/2000/svg"
 width="101.000000pt" height="101.000000pt" viewBox="0 0 101.000000 101.000000"
 preserveAspectRatio="xMidYMid meet">
<metadata>
Created by potrace 1.16, written by Peter Selinger 2001-2019
</metadata>
<g transform="translate(0.000000,101.000000) scale(0.100000,-0.100000)"
fill="#000000" stroke="none">
<path d="M759 1003 c-13 -3 -16 -18 -17 -68 0 -36 4 -67 9 -71 9 -5 13 -77 4
-85 -2 -3 -39 -2 -82 2 -43 5 -88 6 -100 3 -23 -6 -38 -44 -28 -75 8 -24 67
-35 118 -22 65 18 77 9 77 -53 0 -30 5 -54 10 -54 6 0 10 -16 10 -35 0 -19 -4
-35 -10 -35 -5 0 -10 -18 -10 -40 0 -22 5 -40 10 -40 15 0 12 -67 -2 -74 -10
-5 -10 -7 0 -12 17 -8 16 -108 -2 -123 -9 -7 -35 -10 -71 -6 -52 4 -56 3 -50
-13 5 -9 14 -36 22 -59 18 -49 34 -55 108 -38 87 20 86 18 79 167 -4 94 -2
134 7 144 9 11 9 18 1 26 -15 15 -16 75 -2 83 6 4 9 41 8 90 -2 66 0 81 10 73
16 -14 102 -4 114 13 11 18 2 70 -15 81 -6 5 -23 6 -37 3 -77 -16 -75 -17 -72
55 1 36 4 86 7 111 5 45 5 47 -26 53 -33 6 -44 6 -70 -1z"/>
<path d="M254 953 c-3 -18 -4 -48 -2 -66 l4 -33 -56 8 c-76 11 -108 3 -116
-29 -10 -38 8 -79 32 -75 10 1 49 3 87 5 l67 2 0 -43 c0 -36 -4 -44 -26 -54
-19 -9 -33 -9 -56 0 -17 6 -35 9 -39 6 -5 -3 -18 0 -29 6 -26 14 -67 3 -73
-19 -2 -9 -2 -31 1 -49 4 -30 5 -31 46 -26 43 6 177 7 338 2 l96 -3 5 29 c7
52 -1 65 -49 72 -24 3 -52 3 -61 -1 -10 -4 -29 -8 -43 -10 -24 -3 -25 -1 -22
39 l4 43 71 6 c40 4 74 12 79 19 8 12 3 66 -7 76 -3 3 -38 6 -78 6 l-73 1 4
30 c11 91 12 89 -46 89 -51 1 -52 0 -58 -31z"/>
<path d="M585 588 c-16 -6 -32 -12 -34 -14 -2 -2 6 -27 17 -56 12 -29 26 -72
32 -95 12 -46 16 -48 73 -32 46 12 46 20 4 124 -34 84 -42 91 -92 73z"/>
<path d="M257 559 c-3 -10 0 -33 6 -50 11 -27 10 -32 -8 -45 -13 -10 -31 -13
-50 -10 -88 17 -113 16 -118 -3 -14 -54 22 -93 65 -70 27 15 111 1 104 -17 -3
-8 -1 -25 6 -38 14 -33 2 -80 -18 -72 -9 3 -32 -1 -51 -11 -28 -13 -41 -14
-64 -6 -31 12 -69 7 -69 -9 0 -5 5 -29 11 -53 11 -42 12 -44 43 -39 17 3 45 7
61 10 17 2 44 7 60 9 17 3 41 7 55 9 56 10 151 22 195 25 33 2 44 15 51 60 l7
43 -49 -7 c-27 -4 -71 -8 -99 -9 -50 -1 -50 -1 -47 29 1 17 3 40 3 51 1 24 9
25 110 24 53 0 57 2 62 26 11 58 -17 80 -63 52 -15 -10 -27 -10 -51 -1 -17 7
-37 9 -44 7 -14 -6 -14 12 -1 74 6 27 5 32 -11 33 -10 1 -34 3 -54 4 -30 3
-38 0 -42 -16z"/>
</g>
</svg>
