<?xml version="1.0" standalone="no"?>
<!DOCTYPE svg PUBLIC "-//W3C//DTD SVG 20010904//EN"
 "http://www.w3.org/TR/2001/REC-SVG-20010904/DTD/svg10.dtd">
<svg version="1.0" xmlns="http://www.w3.org/2000/svg"
 width="101.000000pt" height="102.000000pt" viewBox="0 0 101.000000 102.000000"
 preserveAspectRatio="xMidYMid meet">
<metadata>
Created by potrace 1.16, written by Peter Selinger 2001-2019
</metadata>
<g transform="translate(0.000000,102.000000) scale(0.100000,-0.100000)"
fill="#000000" stroke="none">
<path d="M323 1007 c-46 -17 -47 -21 -18 -62 32 -48 32 -58 -2 -51 -58 11
-184 17 -212 11 -32 -7 -46 -32 -36 -65 6 -19 13 -20 159 -17 l153 3 -1 -26
-1 -26 -115 3 c-63 2 -109 0 -102 -3 15 -7 17 -154 2 -154 -11 0 -13 -55 -4
-162 l7 -75 31 5 c30 4 162 5 281 1 33 0 72 2 87 6 15 4 48 4 72 1 38 -6 44
-10 42 -30 -1 -22 -5 -24 -104 -30 -60 -4 -109 -3 -120 3 -10 5 -43 7 -73 5
-108 -11 -234 -12 -250 -4 -40 22 -72 -11 -62 -62 4 -21 9 -24 36 -21 79 10
155 13 187 7 31 -5 32 -7 15 -16 -11 -6 -21 -12 -23 -14 -2 -1 6 -20 17 -43
12 -22 21 -48 21 -57 0 -11 5 -14 18 -9 9 4 29 12 45 17 32 12 33 21 7 73 -11
22 -20 40 -20 41 0 1 10 2 23 3 12 1 49 3 82 6 33 3 92 3 131 -1 70 -5 72 -6
70 -32 -2 -45 -12 -51 -72 -46 -31 3 -54 2 -52 -3 3 -4 13 -27 23 -50 16 -39
32 -50 60 -43 6 2 21 4 35 5 30 2 90 32 91 45 5 38 9 78 10 98 1 16 6 22 15
18 8 -3 25 -1 37 5 16 7 41 7 74 1 l51 -9 5 30 c7 53 -1 67 -37 60 -28 -6 -77
-7 -131 -2 -13 1 -20 9 -21 25 -1 16 3 23 15 22 63 -5 59 -17 59 197 0 184 -1
195 -19 200 -11 4 -26 1 -34 -5 -9 -8 -36 -9 -83 -4 -57 5 -71 10 -75 25 -4
16 1 19 39 19 24 0 44 5 44 10 0 6 11 10 25 10 14 0 25 -4 25 -10 0 -6 34 -10
84 -9 91 1 102 7 90 54 -7 26 -36 41 -56 28 -7 -4 -63 -8 -124 -8 l-111 0 14
22 c8 12 25 29 39 38 33 22 30 32 -13 44 -63 18 -70 15 -100 -45 l-29 -57 -52
1 c-82 1 -109 4 -89 9 23 6 22 18 -8 70 -28 47 -27 46 -72 30z m212 -207 c0
-23 -4 -25 -45 -25 -41 0 -45 2 -45 25 0 23 4 25 45 25 41 0 45 -2 45 -25z
m-177 -116 c-12 -27 -29 -35 -80 -40 -37 -3 -38 -2 -38 29 l0 32 64 1 c64 1
64 1 54 -22z m143 16 c24 0 29 -4 29 -26 0 -55 50 -96 91 -74 11 6 40 8 68 4
40 -5 49 -10 48 -25 -1 -22 -70 -36 -115 -24 -15 4 -54 6 -87 6 -72 -2 -251
-2 -283 0 -19 1 -23 5 -18 23 3 11 6 28 6 36 1 9 12 2 30 -19 l29 -34 44 17
c24 9 53 27 64 39 21 22 39 65 35 81 -2 5 4 6 13 2 9 -3 30 -6 46 -6z m234
-18 c0 -28 -35 -40 -71 -24 -13 7 -29 9 -36 7 -8 -3 -13 4 -14 17 -1 22 2 23
60 23 57 0 61 -1 61 -23z m-195 -183 c30 -1 67 2 82 6 15 4 48 4 72 1 39 -6
44 -10 42 -31 -1 -21 -7 -25 -44 -31 -23 -3 -55 -3 -70 1 -15 4 -54 6 -87 6
-76 -2 -254 -2 -280 0 -14 1 -20 9 -21 26 -2 18 2 22 15 19 9 -3 23 -1 31 4 8
5 57 7 110 5 52 -3 120 -5 150 -6z"/>
</g>
</svg>
