<?xml version="1.0" standalone="no"?>
<!DOCTYPE svg PUBLIC "-//W3C//DTD SVG 20010904//EN"
 "http://www.w3.org/TR/2001/REC-SVG-20010904/DTD/svg10.dtd">
<svg version="1.0" xmlns="http://www.w3.org/2000/svg"
 width="101.000000pt" height="101.000000pt" viewBox="0 0 101.000000 101.000000"
 preserveAspectRatio="xMidYMid meet">
<metadata>
Created by potrace 1.16, written by Peter Selinger 2001-2019
</metadata>
<g transform="translate(0.000000,101.000000) scale(0.100000,-0.100000)"
fill="#000000" stroke="none">
<path d="M460 1002 c-19 -9 -26 -148 -8 -169 12 -15 2 -151 -13 -169 -24 -30
33 -64 81 -49 22 7 22 3 26 210 1 72 5 138 9 147 11 28 -55 48 -95 30z"/>
<path d="M236 866 c-20 -49 -79 -138 -122 -186 -20 -22 -34 -43 -32 -46 3 -3
18 -7 33 -10 16 -3 37 -10 47 -15 27 -15 44 3 108 111 29 49 61 97 72 106 26
25 22 40 -14 54 -68 24 -77 23 -92 -14z"/>
<path d="M662 874 l-33 -26 54 -57 c29 -31 68 -77 86 -103 17 -27 35 -48 38
-48 9 0 93 54 93 61 0 21 -173 198 -195 199 -5 0 -25 -12 -43 -26z"/>
<path d="M458 593 c-20 -5 -33 -43 -25 -74 5 -19 2 -20 -33 -14 -23 4 -41 2
-45 -4 -8 -14 -52 -14 -60 -1 -4 6 -42 10 -88 9 -45 0 -92 3 -104 6 -18 6 -25
2 -33 -20 -14 -36 -13 -51 5 -68 16 -17 121 -22 130 -7 7 11 121 12 177 2 l37
-7 -17 -34 c-23 -48 -74 -97 -131 -126 -44 -22 -68 -30 -126 -39 -50 -9 -90
-17 -92 -20 -2 -2 10 -20 27 -41 16 -21 30 -42 30 -47 0 -14 47 -3 135 31 127
50 210 122 239 206 l13 36 18 -42 c37 -82 151 -168 265 -200 25 -7 50 -17 57
-21 13 -10 53 7 53 22 0 4 12 23 26 40 15 17 25 32 23 33 -20 14 -67 27 -95
27 -93 0 -215 66 -257 139 l-18 31 30 0 c17 0 31 5 31 11 0 8 44 9 153 4 140
-7 155 -6 160 10 4 9 4 27 1 40 -5 22 -9 23 -55 18 -29 -3 -54 -1 -62 5 -15
13 -115 14 -123 1 -7 -13 -48 -11 -61 2 -6 6 -33 10 -61 8 -44 -4 -49 -2 -46
15 2 10 8 24 14 32 9 10 4 16 -25 29 -21 8 -40 14 -44 14 -3 -1 -14 -3 -23 -6z"/>
</g>
</svg>
