<?xml version="1.0" standalone="no"?>
<!DOCTYPE svg PUBLIC "-//W3C//DTD SVG 20010904//EN"
 "http://www.w3.org/TR/2001/REC-SVG-20010904/DTD/svg10.dtd">
<svg version="1.0" xmlns="http://www.w3.org/2000/svg"
 width="101.000000pt" height="101.000000pt" viewBox="0 0 101.000000 101.000000"
 preserveAspectRatio="xMidYMid meet">
<metadata>
Created by potrace 1.16, written by Peter Selinger 2001-2019
</metadata>
<g transform="translate(0.000000,101.000000) scale(0.100000,-0.100000)"
fill="#000000" stroke="none">
<path d="M328 1003 c-21 -5 -21 -6 -7 -57 17 -63 18 -76 6 -77 -34 -2 -76 -8
-107 -14 -19 -4 -56 -7 -81 -6 -62 2 -72 -12 -52 -72 15 -45 18 -48 42 -41 14
4 36 6 49 5 13 0 36 6 52 14 15 8 43 17 62 19 18 3 43 7 55 10 18 4 28 -5 53
-48 16 -30 30 -56 30 -59 0 -3 -15 -9 -32 -13 -18 -4 -40 -9 -48 -11 -102 -24
-189 -34 -208 -24 -10 5 -28 8 -40 4 -20 -5 -20 -6 11 -53 34 -52 39 -53 142
-34 17 3 37 6 45 8 8 1 54 15 102 30 l87 26 56 -31 c57 -32 173 -72 186 -64 4
3 17 1 30 -3 19 -7 12 -11 -44 -22 -37 -7 -82 -9 -100 -5 -17 3 -59 6 -92 5
-119 -2 -261 -1 -335 4 -116 8 -121 8 -128 2 -7 -8 -6 -75 1 -83 6 -6 22 -5
122 2 39 3 84 3 101 0 30 -5 32 -8 30 -43 -5 -90 -94 -160 -211 -167 -31 -2
-59 -6 -62 -9 -3 -3 6 -18 21 -33 14 -15 32 -37 39 -47 14 -19 15 -18 84 2
145 44 232 144 235 268 0 15 7 22 22 22 11 1 32 2 46 4 29 3 29 0 34 -150 1
-65 6 -96 17 -106 24 -22 79 -37 99 -26 10 5 54 8 97 6 97 -4 117 3 143 53 30
60 26 74 -30 109 -42 26 -50 29 -51 14 -1 -9 -3 -24 -3 -32 -3 -29 -16 -57
-29 -58 -154 -20 -166 -7 -156 159 2 32 -3 31 176 31 l131 1 5 24 c8 45 -1 59
-41 61 -20 1 -48 2 -62 3 l-25 1 22 11 c22 10 73 97 73 124 0 7 -6 13 -14 13
-7 0 -25 9 -40 21 -28 22 -46 18 -46 -9 0 -32 -30 -64 -54 -57 -11 3 -33 8
-47 10 -45 6 -103 35 -93 44 10 10 168 107 187 115 12 5 3 15 -52 55 -21 16
-22 18 -5 20 27 2 84 7 117 9 25 2 27 5 23 35 -9 71 -12 73 -116 52 -14 -3
-32 -6 -40 -6 -8 0 -22 -3 -30 -6 -8 -3 -22 -7 -30 -8 -123 -21 -153 -25 -185
-25 -41 1 -48 11 -44 63 l4 45 -40 -1 c-22 0 -48 -2 -57 -4z m354 -174 c-31
-30 -146 -109 -157 -109 -11 0 -55 57 -55 73 0 7 49 20 79 22 14 0 26 6 28 12
2 6 27 10 58 9 30 0 51 -4 47 -7z"/>
</g>
</svg>
