<?xml version="1.0" standalone="no"?>
<!DOCTYPE svg PUBLIC "-//W3C//DTD SVG 20010904//EN"
 "http://www.w3.org/TR/2001/REC-SVG-20010904/DTD/svg10.dtd">
<svg version="1.0" xmlns="http://www.w3.org/2000/svg"
 width="101.000000pt" height="102.000000pt" viewBox="0 0 101.000000 102.000000"
 preserveAspectRatio="xMidYMid meet">
<metadata>
Created by potrace 1.16, written by Peter Selinger 2001-2019
</metadata>
<g transform="translate(0.000000,102.000000) scale(0.100000,-0.100000)"
fill="#000000" stroke="none">
<path d="M591 953 c-36 -110 -78 -188 -133 -248 -28 -31 -53 -53 -56 -50 -3 3
-6 18 -6 33 -1 23 3 28 20 24 26 -5 54 22 54 51 0 42 -11 46 -107 44 l-91 -2
5 75 c3 41 9 79 14 85 21 22 7 30 -50 30 l-60 0 1 -40 c0 -22 4 -45 10 -52 5
-6 8 -31 6 -54 l-3 -43 -73 1 c-69 1 -72 0 -78 -24 -4 -13 -1 -36 5 -50 11
-24 15 -25 69 -21 l58 6 -3 -82 c-3 -93 -8 -134 -18 -159 -4 -10 -5 -20 -2
-23 17 -17 -50 -186 -101 -253 -25 -32 -25 -33 -7 -44 10 -5 29 -21 41 -34
l22 -24 21 34 c32 52 69 141 92 220 28 97 31 118 29 220 -1 68 3 91 15 103 9
9 13 24 10 33 -3 11 0 18 7 18 10 0 12 -20 10 -78 -2 -47 1 -80 7 -84 13 -8
14 -52 2 -59 -13 -8 -12 -108 1 -123 7 -9 9 -47 5 -112 -4 -69 -2 -103 6 -115
18 -23 95 -48 116 -37 9 5 59 7 111 5 300 -14 348 -4 389 80 24 47 24 50 7 60
-10 6 -32 22 -48 35 -16 13 -31 22 -33 19 -2 -2 -7 -19 -10 -38 -10 -57 -31
-69 -131 -80 -127 -14 -300 -2 -315 21 -4 8 -5 57 -2 110 4 67 2 98 -6 103
-13 9 -15 147 -2 162 5 5 11 17 13 28 3 17 7 15 37 -13 37 -34 34 -35 77 27 9
12 19 22 23 22 7 0 5 -127 -2 -150 -3 -8 -5 -22 -5 -30 0 -52 -31 -109 -82
-153 l-41 -35 48 -27 48 -26 23 28 c61 75 101 187 108 308 2 33 6 70 10 82 5
19 1 22 -39 28 l-45 7 44 91 c24 50 44 98 44 106 1 9 16 -13 34 -49 19 -36 52
-86 75 -112 52 -59 143 -127 149 -110 2 6 14 27 28 47 28 42 29 45 11 45 -20
0 -128 76 -160 113 -39 45 -75 118 -71 144 3 19 -4 24 -48 38 -28 8 -52 15
-53 15 -1 0 -12 -30 -24 -67z"/>
<path d="M722 668 c-14 -14 -17 -374 -4 -395 8 -13 30 -17 68 -15 21 2 22 5
21 180 0 98 3 187 7 199 5 16 2 25 -13 32 -26 15 -64 14 -79 -1z"/>
</g>
</svg>
