<?xml version="1.0" standalone="no"?>
<!DOCTYPE svg PUBLIC "-//W3C//DTD SVG 20010904//EN"
 "http://www.w3.org/TR/2001/REC-SVG-20010904/DTD/svg10.dtd">
<svg version="1.0" xmlns="http://www.w3.org/2000/svg"
 width="101.000000pt" height="102.000000pt" viewBox="0 0 101.000000 102.000000"
 preserveAspectRatio="xMidYMid meet">
<metadata>
Created by potrace 1.16, written by Peter Selinger 2001-2019
</metadata>
<g transform="translate(0.000000,102.000000) scale(0.100000,-0.100000)"
fill="#000000" stroke="none">
<path d="M148 983 c1 -21 -1 -72 -5 -113 l-8 -75 -49 -1 c-53 -1 -62 -9 -52
-48 7 -27 47 -42 75 -27 17 10 19 4 23 -67 3 -42 2 -87 -3 -100 -5 -13 -4 -32
3 -47 8 -18 8 -28 0 -38 -6 -7 -14 -28 -17 -47 -12 -70 -25 -107 -60 -164
l-35 -58 31 -44 c16 -24 32 -44 34 -44 17 0 101 205 112 275 9 60 18 181 18
258 0 53 4 86 10 84 6 -2 11 -20 13 -40 2 -20 7 -37 13 -37 14 0 11 -67 -3
-74 -10 -5 -10 -7 0 -12 15 -7 17 -164 2 -164 -5 0 -10 -18 -10 -40 0 -23 5
-40 11 -40 8 0 10 -19 6 -65 -4 -36 -2 -76 3 -89 11 -29 93 -61 119 -47 9 5
59 8 111 6 110 -5 179 -5 306 -2 99 2 135 17 157 64 10 22 8 27 -16 45 -29 21
-35 38 -13 38 18 0 26 22 19 49 -5 20 -18 26 -54 23 -13 -1 -18 12 -23 54 -3
30 -3 60 0 66 4 6 9 32 11 58 l4 48 -113 -4 c-62 -2 -119 -2 -128 1 -11 3 -15
19 -15 59 l0 54 28 -15 c16 -8 30 -13 31 -11 2 2 15 33 31 70 24 60 31 67 50
62 13 -3 28 1 38 10 17 18 102 22 112 6 19 -31 53 18 40 59 -4 14 -18 16 -90
16 -47 -1 -85 1 -85 3 0 9 25 49 43 69 l20 23 -44 18 c-43 19 -77 15 -80 -8
-2 -15 -6 -30 -9 -32 -1 -2 -4 -12 -6 -23 -8 -54 -17 -82 -45 -136 -16 -32
-32 -59 -35 -59 -4 0 2 190 9 244 3 26 -46 43 -79 27 -20 -9 -24 -18 -24 -56
0 -25 5 -45 10 -45 6 0 10 -16 10 -35 0 -19 -5 -35 -11 -35 -6 0 -9 -42 -7
-125 2 -103 6 -125 18 -126 8 0 4 -5 -10 -10 -14 -6 -36 -8 -50 -4 -66 15 -88
14 -94 -8 -3 -11 -1 -27 3 -36 10 -18 13 -112 5 -151 -3 -17 -12 -26 -25 -27
-12 -1 -24 -4 -27 -7 -7 -8 -7 -64 1 -72 7 -8 41 -7 87 1 43 8 205 9 279 2 30
-3 63 -1 74 5 21 11 87 2 87 -11 0 -21 -39 -54 -66 -57 -16 -1 -61 -8 -99 -14
-67 -10 -173 -8 -260 5 -22 3 -55 7 -74 9 -18 2 -37 9 -41 17 -12 19 -21 144
-15 214 2 33 4 68 4 78 0 27 1 107 4 165 2 52 2 52 30 46 16 -3 27 -1 27 5 0
6 5 11 10 11 13 0 13 -41 0 -74 -17 -46 8 -69 64 -59 l25 5 -1 157 c-1 86 2
166 6 178 8 26 -18 38 -63 28 -33 -7 -45 -28 -35 -59 4 -12 7 -33 7 -48 -3
-96 -2 -91 -19 -74 -11 12 -35 16 -85 16 l-69 0 -1 33 c-3 68 0 123 6 143 6
18 1 22 -25 28 -61 12 -66 9 -62 -31z m387 -500 c-3 -8 0 -23 6 -34 6 -11 7
-38 4 -63 -6 -39 -9 -43 -35 -43 -26 0 -29 4 -35 43 -3 25 -2 52 4 63 6 11 9
26 6 34 -4 10 3 14 25 14 22 0 29 -4 25 -14z m130 0 c-3 -8 0 -23 6 -34 6 -11
7 -38 4 -63 -6 -39 -9 -43 -35 -43 -26 0 -29 4 -35 43 -3 25 -2 52 4 63 6 11
9 26 6 34 -4 10 3 14 25 14 22 0 29 -4 25 -14z m141 0 c-3 -8 -1 -23 5 -34 6
-11 7 -39 4 -63 -7 -42 -8 -44 -40 -43 -31 1 -34 3 -40 44 -3 24 -2 51 4 62 6
11 9 26 6 33 -4 10 4 14 30 15 28 1 35 -2 31 -14z"/>
<path d="M778 747 c-16 -6 -28 -14 -28 -18 0 -4 14 -36 30 -72 l31 -65 39 15
c39 16 39 16 26 47 -47 111 -49 112 -98 93z"/>
</g>
</svg>
