<?xml version="1.0" standalone="no"?>
<!DOCTYPE svg PUBLIC "-//W3C//DTD SVG 20010904//EN"
 "http://www.w3.org/TR/2001/REC-SVG-20010904/DTD/svg10.dtd">
<svg version="1.0" xmlns="http://www.w3.org/2000/svg"
 width="101.000000pt" height="101.000000pt" viewBox="0 0 101.000000 101.000000"
 preserveAspectRatio="xMidYMid meet">
<metadata>
Created by potrace 1.16, written by Peter Selinger 2001-2019
</metadata>
<g transform="translate(0.000000,101.000000) scale(0.100000,-0.100000)"
fill="#000000" stroke="none">
<path d="M598 1003 c-19 -5 -25 -23 -8 -23 6 0 10 -25 10 -55 0 -30 -4 -55
-10 -55 -5 0 -10 -18 -10 -40 0 -22 5 -40 11 -40 6 0 9 -12 7 -27 -3 -26 -5
-27 -54 -24 -49 2 -52 1 -62 -26 -6 -15 -11 -21 -11 -13 -1 12 -17 16 -81 17
-44 1 -82 -2 -85 -8 -8 -12 -52 -12 -60 1 -4 6 -37 10 -75 9 l-68 -1 2 -129 1
-129 71 4 c68 4 72 3 73 -18 0 -11 3 -55 6 -96 3 -41 3 -90 0 -108 -6 -30 -9
-33 -38 -31 -67 4 -69 3 -52 -31 9 -17 14 -34 11 -38 -7 -11 7 -30 24 -33 17
-3 88 17 110 31 12 7 15 37 17 147 2 180 2 185 18 179 8 -3 27 0 44 7 24 9 36
9 51 -1 11 -6 24 -12 29 -12 6 0 10 38 9 88 0 48 0 96 1 106 1 19 1 19 15 1
10 -14 21 -17 47 -13 l35 6 -4 -46 c-8 -111 -12 -136 -27 -185 -8 -29 -21 -62
-28 -75 -13 -23 -14 -22 -41 27 -15 28 -31 53 -37 56 -9 6 -79 -12 -79 -21 0
-2 15 -33 32 -69 31 -62 34 -65 62 -59 l29 6 -28 -36 c-15 -20 -43 -49 -62
-64 l-35 -28 51 -26 52 -25 38 43 c77 88 137 240 170 429 l8 50 2 -45 c0 -25
3 -126 5 -225 3 -100 8 -188 11 -197 8 -20 63 -41 79 -30 6 4 40 7 76 7 65 0
65 0 83 37 10 20 20 52 23 70 5 31 2 35 -37 56 -23 12 -44 21 -45 19 -2 -2 -6
-21 -9 -43 -7 -44 -24 -62 -58 -60 l-22 1 0 223 0 224 77 -4 c74 -3 77 -2 83
20 3 13 3 32 0 42 -6 17 -17 19 -138 17 l-133 -2 4 50 c2 27 5 73 7 100 1 28
6 61 9 75 6 22 3 27 -27 38 -35 12 -40 13 -69 5z m-213 -413 l0 -49 -55 -7
c-37 -5 -55 -3 -58 5 -2 6 -19 11 -38 11 -29 0 -34 3 -34 24 0 13 -3 31 -6 40
-5 13 7 16 73 19 43 1 87 4 98 5 18 2 20 -4 20 -48z"/>
<path d="M253 983 c-24 -8 -43 -18 -43 -23 0 -4 11 -28 25 -51 14 -24 25 -48
25 -52 0 -4 -47 -5 -104 -1 -99 6 -104 6 -110 -14 -8 -24 3 -74 18 -84 16 -11
214 -9 221 2 8 13 146 11 162 -2 6 -5 28 -6 47 -2 40 7 54 34 41 76 -10 31
-25 39 -48 26 -11 -6 -43 -7 -80 -2 -34 4 -56 9 -49 11 9 4 4 21 -19 61 -17
32 -34 60 -38 63 -3 4 -25 0 -48 -8z"/>
<path d="M755 913 c-16 -8 -31 -17 -33 -18 -4 -3 79 -145 84 -145 19 0 84 35
84 45 0 15 -87 135 -97 135 -5 -1 -21 -8 -38 -17z"/>
<path d="M114 389 c-10 -23 -35 -66 -56 -96 -36 -51 -41 -73 -16 -73 6 0 19
-7 29 -16 10 -9 22 -13 27 -10 13 8 122 183 122 196 0 9 -62 40 -80 40 -4 0
-15 -19 -26 -41z"/>
</g>
</svg>
