<?xml version="1.0" standalone="no"?>
<!DOCTYPE svg PUBLIC "-//W3C//DTD SVG 20010904//EN"
 "http://www.w3.org/TR/2001/REC-SVG-20010904/DTD/svg10.dtd">
<svg version="1.0" xmlns="http://www.w3.org/2000/svg"
 width="101.000000pt" height="101.000000pt" viewBox="0 0 101.000000 101.000000"
 preserveAspectRatio="xMidYMid meet">
<metadata>
Created by potrace 1.16, written by Peter Selinger 2001-2019
</metadata>
<g transform="translate(0.000000,101.000000) scale(0.100000,-0.100000)"
fill="#000000" stroke="none">
<path d="M218 953 c-19 -5 -25 -23 -8 -23 6 0 10 -25 10 -55 0 -30 -4 -55 -10
-55 -5 0 -10 -18 -10 -40 0 -24 5 -40 12 -40 15 0 3 -226 -13 -246 -6 -8 -9
-23 -6 -34 3 -11 2 -22 -3 -25 -4 -2 -7 -16 -7 -30 -1 -36 -56 -143 -99 -190
-20 -21 -32 -41 -26 -43 6 -2 28 -15 48 -28 44 -30 51 -26 101 63 43 79 84
202 76 233 -4 13 -1 25 8 30 9 6 13 31 14 77 l0 68 82 0 c46 0 84 -2 84 -5 1
-3 3 -14 5 -25 16 -111 85 -244 168 -326 53 -54 177 -129 211 -129 6 0 18 12
25 26 8 14 27 35 43 46 l29 21 -23 13 c-13 7 -34 13 -45 14 -12 0 -53 16 -91
35 -125 62 -208 175 -227 310 -2 18 2 20 43 19 25 -1 65 -3 87 -3 35 -1 43 -5
48 -25 9 -36 72 -49 100 -20 11 10 13 21 7 32 -4 9 -7 92 -5 184 l3 168 -152
-1 c-84 0 -180 -1 -214 0 -35 0 -91 0 -125 -1 -35 0 -76 2 -93 5 -16 3 -38 3
-47 0z m369 -85 c7 -5 44 -8 83 -6 66 3 70 2 70 -18 0 -12 3 -49 6 -83 l7 -61
-75 6 c-52 5 -77 3 -82 -5 -9 -14 -53 -15 -61 -1 -4 7 -49 10 -121 8 -88 -2
-115 0 -119 10 -9 25 -5 91 6 98 6 3 9 16 7 28 -4 20 -1 21 43 19 26 -2 50 1
54 7 8 13 166 11 182 -2z"/>
</g>
</svg>
