<?xml version="1.0" standalone="no"?>
<!DOCTYPE svg PUBLIC "-//W3C//DTD SVG 20010904//EN"
 "http://www.w3.org/TR/2001/REC-SVG-20010904/DTD/svg10.dtd">
<svg version="1.0" xmlns="http://www.w3.org/2000/svg"
 width="101.000000pt" height="101.000000pt" viewBox="0 0 101.000000 101.000000"
 preserveAspectRatio="xMidYMid meet">
<metadata>
Created by potrace 1.16, written by Peter Selinger 2001-2019
</metadata>
<g transform="translate(0.000000,101.000000) scale(0.100000,-0.100000)"
fill="#000000" stroke="none">
<path d="M148 983 c-15 -4 -18 -16 -18 -74 0 -39 4 -69 10 -69 6 0 10 -16 10
-35 0 -19 -5 -35 -11 -35 -7 0 -10 -37 -9 -112 3 -214 -19 -345 -77 -446 l-25
-44 37 -34 c21 -19 39 -34 41 -34 12 0 82 170 90 220 2 8 6 29 9 45 18 83 27
183 29 300 l1 80 125 2 c69 1 141 2 160 3 19 0 67 0 105 0 39 0 97 1 130 2 33
2 72 -1 87 -6 22 -6 27 -4 33 13 3 11 3 26 -1 32 -9 15 -9 122 0 137 4 7 5 20
2 30 -5 14 -21 17 -95 20 -53 1 -92 -2 -96 -8 -8 -13 -52 -13 -60 0 -8 13
-142 13 -150 1 -7 -12 -172 -13 -180 -1 -3 5 -29 8 -58 8 -29 -1 -57 1 -62 3
-6 3 -18 4 -27 2z m377 -84 c5 -7 49 -9 129 -7 l121 4 0 -33 0 -34 -132 6
c-79 3 -134 2 -137 -4 -8 -13 -147 -13 -162 0 -8 6 -35 9 -61 7 -47 -3 -48 -3
-49 27 l0 30 112 -3 c71 -2 115 1 119 8 8 13 52 13 60 -1z"/>
<path d="M266 694 c-20 -19 -16 -72 7 -86 15 -9 74 -9 145 1 28 4 52 6 52 4 0
-11 -125 -93 -150 -98 -34 -8 -35 -10 -15 -58 15 -36 47 -53 73 -38 9 5 32 6
53 4 21 -3 50 -1 66 4 27 10 28 9 28 -23 0 -30 -4 -35 -30 -39 -28 -5 -97 -1
-172 8 -35 4 -44 -11 -36 -56 5 -27 36 -41 62 -28 18 10 112 13 152 5 21 -4
25 -11 26 -39 1 -33 -1 -34 -41 -40 -40 -6 -140 -2 -222 9 -47 6 -55 -5 -46
-62 4 -30 5 -31 46 -26 22 4 84 6 136 6 175 -1 224 -1 320 1 52 1 125 -1 161
-5 l67 -7 4 31 c3 18 3 40 0 51 -4 17 -10 18 -46 11 -23 -5 -86 -8 -141 -7
-153 3 -143 1 -142 38 1 37 -5 36 139 38 93 1 97 2 101 25 3 13 2 32 0 42 -4
15 -10 17 -31 9 -15 -5 -58 -7 -97 -4 -38 3 -80 6 -91 6 -18 1 -22 7 -21 34
l1 32 80 6 c77 5 82 4 108 -20 l26 -25 36 28 c20 16 36 32 36 36 0 9 -85 79
-139 114 l-44 29 49 8 c27 4 67 5 89 3 l40 -5 0 44 c0 43 0 43 -41 50 -22 3
-51 2 -65 -3 -13 -5 -63 -7 -111 -4 -62 3 -88 1 -88 -7 0 -14 -147 -16 -152
-2 -1 5 -39 12 -84 16 -69 6 -83 5 -98 -11z m404 -105 l-31 -27 35 -22 c20
-12 36 -22 36 -23 0 -1 -55 -2 -123 -2 l-122 0 56 42 c31 23 59 45 62 50 3 4
31 8 62 8 l56 0 -31 -26z"/>
</g>
</svg>
