<?xml version="1.0" standalone="no"?>
<!DOCTYPE svg PUBLIC "-//W3C//DTD SVG 20010904//EN"
 "http://www.w3.org/TR/2001/REC-SVG-20010904/DTD/svg10.dtd">
<svg version="1.0" xmlns="http://www.w3.org/2000/svg"
 width="101.000000pt" height="101.000000pt" viewBox="0 0 101.000000 101.000000"
 preserveAspectRatio="xMidYMid meet">
<metadata>
Created by potrace 1.16, written by Peter Selinger 2001-2019
</metadata>
<g transform="translate(0.000000,101.000000) scale(0.100000,-0.100000)"
fill="#000000" stroke="none">
<path d="M132 935 c0 -36 4 -67 9 -70 12 -8 10 -173 -2 -181 -6 -3 -10 -38
-10 -77 -2 -204 -17 -282 -74 -385 -30 -53 -31 -62 -7 -62 10 0 27 -7 38 -15
30 -23 42 -18 59 23 19 44 55 167 60 202 2 14 7 43 10 65 3 22 10 76 14 120 4
44 9 72 9 63 2 -15 14 -16 100 -13 97 4 97 4 72 -14 -13 -11 -52 -32 -85 -47
-33 -16 -62 -29 -63 -31 -2 -1 9 -17 24 -37 26 -33 29 -34 54 -21 14 7 58 38
97 69 l71 56 4 -39 c2 -23 -1 -37 -7 -35 -5 2 -22 -16 -37 -41 l-27 -44 -73 4
c-40 2 -80 5 -88 6 -46 7 -63 -13 -53 -64 4 -21 10 -25 38 -23 17 2 37 6 44
10 7 5 29 5 49 1 l37 -7 -39 -35 c-37 -34 -37 -49 -1 -54 6 -1 19 -3 30 -4
117 -17 137 -29 65 -39 -19 -3 -68 -10 -107 -16 -49 -7 -79 -8 -91 -1 -10 5
-28 7 -40 4 -23 -5 -25 0 34 -92 6 -7 66 -3 154 13 39 7 162 47 192 62 23 12
33 11 82 -6 31 -10 83 -31 115 -46 l59 -26 31 33 c17 19 31 39 31 45 0 6 -46
24 -102 40 -57 15 -106 30 -110 33 -14 12 59 86 88 89 59 6 90 6 115 -2 23 -7
27 -4 31 19 9 46 -1 65 -36 66 -17 1 -23 3 -13 6 9 2 17 10 17 17 0 7 10 25
21 40 12 15 19 29 17 32 -3 2 -23 6 -44 9 -84 9 -108 15 -150 40 -24 14 -44
27 -44 28 0 5 162 -2 179 -8 35 -11 62 36 45 79 -7 18 -89 33 -107 19 -6 -6
-23 -7 -37 -3 -24 6 -24 7 18 32 l43 25 -32 21 -32 20 50 -4 c55 -5 72 10 53
46 -8 15 -8 84 0 125 8 39 1 42 -85 44 -50 0 -85 -3 -85 -9 0 -6 -11 -10 -25
-10 -14 0 -25 5 -25 10 0 6 -30 10 -70 10 -40 0 -70 -4 -70 -10 0 -6 -33 -10
-80 -10 -47 0 -80 4 -80 10 0 6 -18 10 -40 10 -22 0 -40 -4 -40 -10 0 -5 -25
-10 -55 -10 -30 0 -55 5 -55 10 0 6 -8 10 -19 10 -16 0 -18 -8 -19 -65z m258
-15 c0 -6 30 -10 70 -10 40 0 70 4 70 10 0 6 11 10 25 10 14 0 25 -5 25 -11 0
-8 31 -9 103 -4 l102 7 0 -30 c0 -28 -2 -30 -50 -35 -27 -3 -81 -3 -120 -1
-38 3 -140 6 -225 7 -153 2 -155 2 -156 25 -2 20 3 22 42 22 24 0 44 5 44 10
0 6 16 10 35 10 19 0 35 -4 35 -10z m80 -128 l45 -7 0 -50 0 -50 -33 3 c-24 3
-31 7 -23 15 18 18 13 25 -34 52 -47 28 -71 27 -99 -4 -17 -18 -15 -20 26 -45
l43 -26 -50 7 c-27 4 -62 8 -77 8 -18 0 -28 6 -29 15 0 8 -1 29 -2 45 -2 30
-2 30 46 26 27 -1 54 2 60 8 12 12 57 13 127 3z m226 -37 c-36 -32 -38 -36
-23 -52 14 -17 13 -18 -22 -18 l-37 -1 0 48 1 47 45 4 c25 2 52 4 60 5 8 1 -3
-14 -24 -33z m35 -266 c13 -7 49 -20 79 -30 l55 -17 -30 -13 c-26 -11 -168
-16 -275 -9 l-24 2 23 18 c14 9 21 22 17 29 -5 7 0 11 13 11 17 0 21 9 27 50
l7 50 42 -39 c23 -21 53 -45 66 -52z m-106 -138 l29 -6 -30 -33 -29 -34 -59
15 c-32 9 -60 18 -63 21 -11 10 20 36 36 31 9 -2 23 0 31 5 16 11 39 11 85 1z"/>
</g>
</svg>
