<?xml version="1.0" standalone="no"?>
<!DOCTYPE svg PUBLIC "-//W3C//DTD SVG 20010904//EN"
 "http://www.w3.org/TR/2001/REC-SVG-20010904/DTD/svg10.dtd">
<svg version="1.0" xmlns="http://www.w3.org/2000/svg"
 width="101.000000pt" height="101.000000pt" viewBox="0 0 101.000000 101.000000"
 preserveAspectRatio="xMidYMid meet">
<metadata>
Created by potrace 1.16, written by Peter Selinger 2001-2019
</metadata>
<g transform="translate(0.000000,101.000000) scale(0.100000,-0.100000)"
fill="#000000" stroke="none">
<path d="M607 993 c-2 -4 -15 -39 -27 -78 -25 -78 -78 -188 -107 -223 l-18
-23 2 43 c1 24 4 52 5 62 4 24 -37 42 -74 33 -25 -7 -25 -8 -27 -121 0 -67 3
-117 9 -121 11 -7 12 -144 1 -160 -3 -5 -6 -32 -6 -59 0 -44 -2 -49 -25 -51
-24 -3 -25 -1 -27 63 -7 191 0 543 11 561 10 16 -33 33 -68 27 l-31 -6 -2 -87
c-1 -48 2 -92 7 -98 13 -15 11 -173 -2 -181 -7 -4 -8 -54 -3 -148 7 -134 6
-142 -11 -142 -11 0 -29 -4 -41 -8 -22 -7 -22 -6 -16 63 4 50 3 71 -6 71 -6 0
-11 11 -11 25 0 14 5 25 10 25 6 0 10 30 10 70 0 40 -4 70 -10 70 -12 0 -13
47 -1 52 9 3 21 137 11 139 -3 1 -24 3 -47 4 -41 3 -43 2 -49 -30 -3 -18 -3
-60 0 -92 4 -32 6 -74 5 -93 0 -19 -1 -114 -2 -211 l-2 -177 35 0 c53 -1 222
19 247 29 17 6 21 5 16 -6 -16 -44 18 -78 69 -68 23 4 23 6 25 154 2 91 -1
149 -7 149 -6 0 -10 33 -10 75 0 41 3 75 7 75 4 0 17 -9 29 -21 l22 -21 15 24
c8 12 33 54 55 92 l41 70 50 -3 c27 -1 58 3 68 10 14 8 44 9 114 2 66 -7 96
-6 101 1 10 14 10 74 1 79 -5 3 -55 0 -112 -5 -79 -8 -109 -7 -126 2 -13 7
-31 10 -39 7 -12 -5 -10 5 9 43 13 27 29 51 35 55 19 11 10 26 -22 39 -54 22
-76 27 -81 19z"/>
<path d="M563 642 c-17 -11 -26 -63 -14 -81 12 -19 111 -27 140 -12 15 9 4
-15 -41 -81 -66 -98 -138 -230 -138 -253 0 -8 5 -25 12 -39 14 -33 109 -71
138 -56 10 5 57 8 104 6 101 -4 133 10 166 73 31 62 30 65 -62 109 -5 2 -8 -6
-8 -18 0 -12 -15 -37 -34 -56 l-34 -34 -83 5 c-83 5 -102 14 -91 44 28 75 179
293 200 290 34 -5 62 23 62 61 0 38 -26 53 -60 34 -29 -16 -76 -18 -85 -4 -3
5 -34 9 -68 9 -34 -1 -69 1 -77 5 -8 3 -21 2 -27 -2z"/>
</g>
</svg>
