<?xml version="1.0" standalone="no"?>
<!DOCTYPE svg PUBLIC "-//W3C//DTD SVG 20010904//EN"
 "http://www.w3.org/TR/2001/REC-SVG-20010904/DTD/svg10.dtd">
<svg version="1.0" xmlns="http://www.w3.org/2000/svg"
 width="101.000000pt" height="101.000000pt" viewBox="0 0 101.000000 101.000000"
 preserveAspectRatio="xMidYMid meet">
<metadata>
Created by potrace 1.16, written by Peter Selinger 2001-2019
</metadata>
<g transform="translate(0.000000,101.000000) scale(0.100000,-0.100000)"
fill="#000000" stroke="none">
<path d="M459 1003 c-11 -3 -15 -12 -11 -28 2 -14 1 -54 -3 -90 l-7 -66 -34 7
c-22 4 -34 2 -34 -5 0 -6 -11 -11 -25 -11 -14 0 -25 5 -25 10 0 6 -20 10 -44
10 l-43 0 2 59 3 59 -38 6 c-48 7 -66 1 -74 -27 -7 -28 -7 -112 0 -158 l6 -36
88 -1 c51 -1 91 2 95 8 8 12 52 13 59 1 8 -13 105 -12 125 1 12 7 66 8 177 1
87 -5 160 -8 162 -7 2 1 5 52 8 113 4 92 3 111 -9 111 -8 0 -28 3 -44 6 -48
10 -67 -17 -59 -85 l6 -56 -102 0 -103 0 3 45 c1 25 5 61 8 81 5 32 3 37 -18
41 -12 3 -30 8 -38 11 -8 2 -22 3 -31 0z"/>
<path d="M133 671 c-10 -10 -13 -25 -8 -50 4 -20 9 -38 12 -41 9 -9 308 0 311
10 5 14 92 13 92 -1 0 -9 22 -10 75 -6 l75 7 0 -39 c0 -22 2 -46 5 -53 5 -12
-34 -14 -250 -11 -141 1 -259 5 -264 7 -4 3 -13 1 -21 -4 -22 -14 -21 -282 0
-325 16 -32 60 -58 94 -56 11 1 66 2 121 2 55 0 129 0 165 0 36 0 110 0 166
-1 55 0 112 4 127 9 28 11 72 70 82 112 5 22 0 29 -44 56 -49 31 -61 32 -61 5
0 -28 -32 -81 -53 -89 -37 -13 -350 -20 -412 -10 -103 18 -101 14 -97 142 l2
60 117 2 c141 3 199 3 274 1 55 -2 56 -2 55 -32 -1 -29 1 -31 39 -34 22 -1 45
1 50 5 7 6 7 58 1 162 -7 115 -6 156 2 159 33 11 2 19 -78 20 -53 1 -90 -3
-90 -8 0 -6 -20 -10 -45 -10 -25 0 -45 5 -45 10 0 6 -30 10 -70 10 -40 0 -70
-4 -70 -10 0 -6 -32 -10 -75 -10 -41 0 -75 4 -75 9 0 16 -92 18 -107 2z"/>
</g>
</svg>
