<?xml version="1.0" standalone="no"?>
<!DOCTYPE svg PUBLIC "-//W3C//DTD SVG 20010904//EN"
 "http://www.w3.org/TR/2001/REC-SVG-20010904/DTD/svg10.dtd">
<svg version="1.0" xmlns="http://www.w3.org/2000/svg"
 width="101.000000pt" height="101.000000pt" viewBox="0 0 101.000000 101.000000"
 preserveAspectRatio="xMidYMid meet">
<metadata>
Created by potrace 1.16, written by Peter Selinger 2001-2019
</metadata>
<g transform="translate(0.000000,101.000000) scale(0.100000,-0.100000)"
fill="#000000" stroke="none">
<path d="M623 943 l3 -68 -83 2 c-82 3 -83 2 -89 -24 -4 -14 -3 -38 2 -52 8
-23 15 -26 49 -24 22 1 58 5 80 8 l40 7 0 -75 0 -75 -78 1 c-59 2 -80 -2 -87
-13 -9 -14 -16 83 -11 146 3 41 -92 56 -103 16 -9 -34 -6 -111 5 -118 15 -9 1
-316 -15 -326 -29 -19 -32 -6 -28 112 3 85 1 120 -7 120 -6 0 -11 11 -11 25 0
14 5 25 10 25 6 0 10 30 10 70 0 40 -4 70 -10 70 -12 0 -13 67 -1 72 9 3 22
147 12 149 -3 1 -26 3 -51 5 l-45 3 -3 -164 c-2 -108 0 -165 7 -170 14 -8 14
-52 0 -61 -7 -4 -9 -49 -6 -138 l5 -133 -27 0 -27 0 3 229 c1 126 5 232 8 237
5 9 -46 31 -71 31 -27 0 -44 -31 -44 -80 0 -27 4 -52 10 -55 12 -8 13 -52 1
-59 -13 -8 -12 -114 1 -122 7 -5 8 -49 3 -145 l-7 -139 44 5 c41 5 58 8 146
21 83 12 87 11 85 -18 -2 -30 15 -38 65 -30 l32 4 2 77 c1 42 3 108 4 146 1
39 3 86 3 105 1 24 4 31 10 21 11 -18 93 -26 119 -12 14 8 49 9 102 5 93 -8
91 0 34 -123 -29 -62 -36 -71 -49 -61 -17 14 -75 127 -75 147 0 7 -8 11 -17 9
-45 -8 -73 -19 -73 -27 0 -12 56 -123 86 -171 l23 -37 -55 -34 c-30 -19 -93
-47 -139 -62 l-84 -28 42 -38 c29 -26 48 -36 62 -33 42 12 150 66 195 98 l46
33 25 -20 c25 -21 208 -112 213 -105 23 30 54 104 48 110 -5 5 -25 11 -45 14
-71 8 -190 65 -168 79 20 12 73 127 107 230 l33 100 -27 6 c-15 4 -52 7 -84 8
l-56 1 1 75 2 75 68 0 c42 0 79 -6 98 -16 53 -27 89 4 74 64 -9 35 -22 42 -54
30 -15 -5 -60 -7 -107 -3 l-81 7 3 45 c2 24 6 49 10 55 10 16 -17 28 -68 28
l-47 0 2 -67z"/>
</g>
</svg>
