<?xml version="1.0" standalone="no"?>
<!DOCTYPE svg PUBLIC "-//W3C//DTD SVG 20010904//EN"
 "http://www.w3.org/TR/2001/REC-SVG-20010904/DTD/svg10.dtd">
<svg version="1.0" xmlns="http://www.w3.org/2000/svg"
 width="101.000000pt" height="101.000000pt" viewBox="0 0 101.000000 101.000000"
 preserveAspectRatio="xMidYMid meet">
<metadata>
Created by potrace 1.16, written by Peter Selinger 2001-2019
</metadata>
<g transform="translate(0.000000,101.000000) scale(0.100000,-0.100000)"
fill="#000000" stroke="none">
<path d="M740 996 c-19 -6 -40 -15 -47 -19 -7 -4 -32 -5 -56 -2 -30 4 -57 1
-82 -9 -44 -19 -106 -21 -122 -5 -7 7 -22 9 -40 4 -29 -8 -92 -8 -200 1 -35 2
-63 1 -63 -3 0 -4 8 -27 17 -51 20 -47 42 -58 96 -48 17 4 71 7 118 9 l87 2
-18 -45 -18 -45 -178 0 -179 0 -3 -24 c-2 -12 -1 -33 2 -45 5 -20 10 -21 152
-20 l147 0 -61 -57 c-65 -59 -195 -131 -238 -131 -38 0 -37 -12 6 -58 l40 -44
38 19 c20 11 40 21 43 23 3 1 6 -10 7 -25 1 -30 7 -71 18 -116 4 -16 1 -33 -6
-42 -6 -8 -13 -37 -14 -65 -3 -59 -3 -60 99 -44 22 3 85 6 140 5 55 0 142 -1
193 -1 84 0 93 -2 88 -18 -11 -35 11 -47 77 -44 24 2 27 5 21 26 -3 13 -1 34
6 45 8 17 7 29 -6 56 -11 24 -14 44 -8 62 8 29 10 40 18 106 5 41 -11 57 -56
57 -49 0 -57 -20 -43 -105 16 -100 17 -99 -50 -108 -36 -4 -69 -3 -82 3 -13 5
-28 7 -35 5 -10 -4 -13 25 -11 132 2 140 4 153 18 187 11 25 -9 36 -67 36 -43
0 -47 -2 -53 -30 -4 -16 -4 -38 -1 -48 4 -10 8 -78 11 -149 l4 -131 -50 -6
c-28 -4 -57 -2 -68 4 -11 5 -26 7 -35 4 -20 -8 -32 55 -16 85 6 12 9 25 6 30
-3 4 0 25 5 46 9 33 8 41 -7 52 -10 7 -29 13 -43 13 -25 1 -25 1 -6 12 44 25
145 113 184 160 37 46 45 51 88 54 48 4 48 3 68 -38 33 -70 117 -144 220 -194
50 -24 95 -44 100 -43 6 0 24 22 41 49 l32 49 -52 12 c-77 18 -168 62 -215
104 -47 43 -51 55 -16 55 14 0 25 5 25 10 0 17 126 12 140 -5 16 -20 64 -19
84 1 17 16 21 62 8 79 -9 13 -199 18 -207 5 -8 -13 -52 -13 -60 1 -4 6 -38 9
-86 7 -43 -2 -79 -2 -79 -2 0 1 9 21 19 45 20 45 21 45 111 53 25 3 63 6 85 8
22 2 59 5 83 6 24 1 42 7 42 14 0 12 -62 98 -70 97 -3 -1 -21 -6 -40 -13z"/>
</g>
</svg>
