<?xml version="1.0" standalone="no"?>
<!DOCTYPE svg PUBLIC "-//W3C//DTD SVG 20010904//EN"
 "http://www.w3.org/TR/2001/REC-SVG-20010904/DTD/svg10.dtd">
<svg version="1.0" xmlns="http://www.w3.org/2000/svg"
 width="101.000000pt" height="102.000000pt" viewBox="0 0 101.000000 102.000000"
 preserveAspectRatio="xMidYMid meet">
<metadata>
Created by potrace 1.16, written by Peter Selinger 2001-2019
</metadata>
<g transform="translate(0.000000,102.000000) scale(0.100000,-0.100000)"
fill="#000000" stroke="none">
<path d="M450 1005 c0 -8 5 -15 10 -15 11 0 13 -81 4 -118 -6 -22 -9 -23 -113
-20 l-106 3 0 37 c0 20 4 40 8 44 27 27 -18 59 -69 49 -38 -7 -56 -44 -34 -70
9 -11 11 -35 6 -84 l-7 -69 29 -7 c33 -7 82 3 82 16 0 5 11 9 25 9 14 0 25 -4
25 -10 0 -6 30 -10 70 -10 40 0 70 4 70 10 0 6 11 10 25 10 14 0 25 -4 25 -10
0 -5 23 -10 50 -10 28 0 50 5 50 10 0 11 105 12 193 1 67 -8 69 -6 64 94 -2
33 0 68 5 77 7 14 1 21 -29 33 -21 9 -48 13 -60 10 -21 -5 -23 -10 -20 -70 l3
-65 -102 2 -101 3 3 38 c2 20 6 55 8 76 4 44 -6 51 -76 51 -27 0 -38 -4 -38
-15z"/>
<path d="M143 701 c-7 -4 -9 -55 -6 -136 8 -203 5 -379 -7 -409 -15 -42 2 -66
48 -66 20 0 42 4 48 8 8 4 11 40 10 100 0 50 1 92 4 92 2 0 18 -14 36 -31 l32
-31 49 26 c27 15 73 45 102 67 33 25 59 38 70 34 9 -3 44 -32 77 -65 l61 -59
38 39 c45 46 50 35 -61 112 l-61 42 41 35 c23 18 51 38 64 44 30 14 28 20 -15
56 -43 36 -57 38 -75 13 -7 -10 -30 -38 -50 -62 -35 -40 -39 -42 -55 -28 -10
9 -49 35 -86 58 l-68 43 -35 -34 c-31 -30 -32 -34 -17 -43 10 -5 49 -27 86
-48 66 -39 68 -40 51 -59 -28 -31 -150 -88 -175 -82 -21 6 -22 9 -15 111 3 58
6 122 6 144 0 34 3 38 25 38 14 0 25 5 25 10 0 6 32 10 75 10 43 0 75 -4 75
-10 0 -14 137 -13 142 1 2 7 34 8 101 3 l97 -7 0 -73 c0 -49 -4 -74 -11 -74
-9 0 -10 -31 -5 -116 6 -95 4 -120 -8 -139 -11 -16 -22 -22 -36 -18 -11 3 -35
2 -53 -1 l-33 -6 25 -55 c24 -50 29 -54 56 -52 48 5 113 29 130 47 20 22 34
213 16 224 -14 9 -15 152 -1 161 5 3 9 34 9 68 -1 34 1 69 5 77 12 31 -9 40
-116 46 -74 5 -107 4 -112 -5 -9 -14 -152 -15 -161 -1 -7 12 -113 11 -121 -1
-7 -12 -51 -11 -59 1 -7 11 -146 12 -162 1z"/>
</g>
</svg>
