<?xml version="1.0" standalone="no"?>
<!DOCTYPE svg PUBLIC "-//W3C//DTD SVG 20010904//EN"
 "http://www.w3.org/TR/2001/REC-SVG-20010904/DTD/svg10.dtd">
<svg version="1.0" xmlns="http://www.w3.org/2000/svg"
 width="101.000000pt" height="101.000000pt" viewBox="0 0 101.000000 101.000000"
 preserveAspectRatio="xMidYMid meet">
<metadata>
Created by potrace 1.16, written by Peter Selinger 2001-2019
</metadata>
<g transform="translate(0.000000,101.000000) scale(0.100000,-0.100000)"
fill="#000000" stroke="none">
<path d="M436 995 c4 -9 3 -53 -1 -99 l-7 -83 -106 1 -107 1 2 35 c1 19 4 49
7 67 4 27 1 33 -25 43 -22 10 -36 10 -54 2 -21 -10 -25 -18 -25 -57 0 -26 5
-45 11 -45 8 0 9 -21 4 -69 l-7 -68 129 4 c135 4 211 4 434 0 l136 -2 7 74
c11 128 8 159 -13 171 -11 5 -27 10 -35 10 -21 0 -58 -38 -50 -51 3 -6 7 -35
7 -65 l2 -55 -110 3 -110 3 3 50 c1 28 4 71 7 98 l5 47 -55 0 c-45 0 -53 -3
-49 -15z"/>
<path d="M155 684 c-6 -2 -9 -37 -7 -84 2 -52 0 -80 -7 -80 -7 0 -11 -27 -11
-70 0 -45 4 -70 11 -70 8 0 9 -24 4 -84 -4 -51 -2 -99 4 -123 9 -33 17 -41 47
-51 22 -7 44 -8 53 -2 9 4 59 7 111 5 52 -3 122 -4 155 -4 33 0 112 0 176 -1
146 -2 182 10 208 72 11 24 22 58 26 75 5 28 4 33 -12 33 -10 0 -33 9 -52 21
-18 11 -35 18 -38 16 -2 -3 -6 -23 -8 -45 -2 -22 -8 -50 -14 -60 -15 -28 -73
-45 -124 -38 -23 4 -69 7 -102 6 -241 -4 -319 0 -336 17 -9 9 -12 78 -8 144 1
31 -3 30 144 30 55 0 129 0 165 0 36 0 111 0 166 -1 110 -1 124 6 103 53 -7
15 -8 54 -2 113 5 49 7 96 5 105 -4 20 -118 37 -135 20 -10 -10 -274 -8 -452
3 -33 2 -64 2 -70 0z m280 -148 l0 -65 -59 -7 c-41 -4 -61 -3 -64 5 -2 6 -19
11 -38 11 -34 0 -34 1 -34 44 0 24 -2 50 -5 58 -4 10 17 14 98 16 l102 2 0
-64z m282 -1 l2 -65 -102 2 -102 3 3 60 4 60 96 3 97 3 2 -66z"/>
</g>
</svg>
