<?xml version="1.0" standalone="no"?>
<!DOCTYPE svg PUBLIC "-//W3C//DTD SVG 20010904//EN"
 "http://www.w3.org/TR/2001/REC-SVG-20010904/DTD/svg10.dtd">
<svg version="1.0" xmlns="http://www.w3.org/2000/svg"
 width="101.000000pt" height="101.000000pt" viewBox="0 0 101.000000 101.000000"
 preserveAspectRatio="xMidYMid meet">
<metadata>
Created by potrace 1.16, written by Peter Selinger 2001-2019
</metadata>
<g transform="translate(0.000000,101.000000) scale(0.100000,-0.100000)"
fill="#000000" stroke="none">
<path d="M570 989 c-7 -11 -9 -23 -7 -26 15 -14 -65 -197 -114 -261 -17 -22
-17 -22 -14 47 l4 69 -33 6 c-59 11 -86 -16 -71 -72 12 -43 18 -227 12 -368
-2 -59 -3 -61 -29 -61 l-27 0 0 171 c1 94 1 189 0 211 0 63 8 207 15 242 5 25
2 33 -16 43 -42 23 -98 1 -90 -35 1 -5 2 -63 1 -127 -1 -70 3 -119 9 -123 13
-8 13 -52 -1 -61 -8 -4 -9 -54 -5 -164 l6 -157 -30 0 -31 0 6 171 c3 94 8 205
10 247 5 74 4 76 -20 87 -14 7 -38 12 -54 12 l-28 0 3 -137 c4 -157 4 -180 4
-283 1 -180 0 -178 23 -184 11 -3 28 -1 37 4 9 5 34 7 56 5 21 -1 47 2 57 7
28 15 97 0 95 -20 -4 -51 13 -65 67 -54 26 5 27 6 21 54 -5 33 -3 55 5 64 9
11 9 18 1 26 -14 14 -16 74 -2 83 5 3 9 36 9 74 -1 61 2 71 28 99 l28 31 -3
-137 c-2 -75 -5 -153 -8 -172 -6 -48 7 -64 51 -63 45 1 47 3 48 45 1 33 2 34
45 36 37 1 42 -1 38 -16 -11 -33 12 -48 71 -44 22 2 22 3 21 210 l0 207 -99 1
c-55 1 -102 4 -105 7 -3 3 6 25 20 49 l25 43 60 -3 c34 -1 62 2 66 8 7 11 57
13 93 4 20 -6 22 -12 22 -80 0 -43 -4 -74 -10 -74 -15 0 -13 -137 2 -142 9 -3
9 -27 -1 -104 -6 -54 -13 -114 -14 -131 -4 -49 -46 -75 -86 -54 -10 6 -27 7
-39 4 -22 -5 -22 -5 -3 -32 11 -15 23 -39 26 -54 8 -32 27 -36 85 -19 113 33
121 48 113 195 -5 88 -3 111 8 119 11 7 11 11 2 15 -16 6 -17 73 -2 73 9 0 10
31 5 114 -4 75 -3 117 4 121 12 8 13 95 1 114 -7 12 -40 15 -150 15 -78 1
-141 5 -141 9 0 13 31 70 48 90 14 16 14 19 2 27 -8 5 -25 7 -37 3 -14 -3 -23
-1 -23 6 0 20 -49 12 -60 -10z m86 -413 c1 -1 5 -41 8 -91 l7 -90 -45 0 -46
-1 2 97 3 97 35 -6 c19 -2 36 -5 36 -6z"/>
</g>
</svg>
