<?xml version="1.0" standalone="no"?>
<!DOCTYPE svg PUBLIC "-//W3C//DTD SVG 20010904//EN"
 "http://www.w3.org/TR/2001/REC-SVG-20010904/DTD/svg10.dtd">
<svg version="1.0" xmlns="http://www.w3.org/2000/svg"
 width="101.000000pt" height="101.000000pt" viewBox="0 0 101.000000 101.000000"
 preserveAspectRatio="xMidYMid meet">
<metadata>
Created by potrace 1.16, written by Peter Selinger 2001-2019
</metadata>
<g transform="translate(0.000000,101.000000) scale(0.100000,-0.100000)"
fill="#000000" stroke="none">
<path d="M220 1004 c-12 -4 -14 -18 -12 -64 3 -39 0 -60 -7 -60 -6 0 -11 -18
-11 -40 0 -22 5 -40 10 -40 6 0 10 -33 10 -80 0 -52 -4 -80 -11 -80 -8 0 -9
-39 -4 -139 l7 -138 -26 -5 c-22 -5 -26 -1 -32 27 -3 18 -3 62 0 97 4 34 8
115 10 178 1 63 6 125 10 136 5 17 1 24 -21 32 -55 21 -91 11 -83 -23 2 -5 2
-47 1 -92 -1 -47 3 -84 9 -88 12 -8 13 -52 1 -59 -12 -8 -13 -114 -1 -121 15
-9 12 -68 -5 -108 -22 -53 -8 -75 45 -68 8 1 29 4 45 6 181 24 170 25 170 -7
1 -15 3 -30 6 -32 6 -7 35 -10 71 -8 24 2 26 5 24 34 -2 18 -2 25 1 16 3 -13
13 -17 42 -14 21 2 43 6 50 10 6 4 32 4 57 0 33 -5 44 -10 40 -20 -3 -8 0 -25
6 -39 8 -19 7 -31 -5 -58 -29 -60 -6 -89 60 -80 40 6 47 26 26 70 -13 29 -14
41 -5 65 6 16 9 35 6 43 -4 8 3 13 18 14 79 5 98 4 139 -3 45 -8 46 -7 51 19
11 57 4 62 -85 63 -132 1 -126 -1 -124 42 1 30 5 38 22 39 72 5 93 5 117 -2
22 -6 28 -3 33 14 4 11 4 31 1 44 -5 21 -13 23 -90 30 l-84 7 8 26 c4 15 11
34 14 43 9 22 -42 43 -83 34 -36 -8 -41 -19 -31 -74 l8 -43 -67 6 c-80 8 -97
3 -106 -31 -11 -47 2 -64 48 -59 23 2 50 7 60 11 9 4 27 5 40 1 18 -4 23 -13
24 -44 l2 -39 -60 -7 c-34 -3 -69 -2 -79 4 -10 5 -26 7 -34 4 -14 -5 -16 10
-16 122 0 126 1 128 18 106 l18 -24 98 50 97 50 55 -24 c30 -13 87 -33 127
-44 71 -20 86 -17 87 15 0 6 9 21 20 35 11 14 20 28 20 31 0 3 -25 4 -55 1
-41 -3 -58 0 -70 12 -9 9 -26 16 -38 17 -29 1 -58 6 -64 12 -2 3 18 33 45 67
46 57 118 178 110 184 -1 2 -39 -1 -82 -7 -55 -7 -89 -6 -110 1 -17 5 -84 9
-149 9 -130 -2 -142 -8 -132 -62 6 -34 20 -45 60 -45 25 -1 27 -2 13 -11 -29
-16 -21 -34 36 -86 52 -48 53 -50 33 -62 -28 -18 -120 -49 -132 -44 -10 3 -11
126 0 153 8 23 -54 44 -89 30 -23 -8 -26 -15 -26 -55 0 -25 5 -45 10 -45 6 0
10 -11 10 -25 0 -14 -4 -25 -10 -25 -6 0 -10 -30 -10 -70 0 -40 4 -70 10 -70
6 0 10 -11 10 -25 0 -14 -5 -25 -11 -25 -8 0 -10 -20 -7 -64 5 -59 4 -64 -16
-68 -22 -4 -24 17 -25 297 0 96 13 264 24 301 9 29 -38 50 -85 38z m430 -125
c0 -7 19 -10 54 -7 l53 3 -45 -57 c-51 -65 -55 -65 -116 2 -30 33 -34 43 -24
55 15 17 78 20 78 4z"/>
</g>
</svg>
