<?xml version="1.0" standalone="no"?>
<!DOCTYPE svg PUBLIC "-//W3C//DTD SVG 20010904//EN"
 "http://www.w3.org/TR/2001/REC-SVG-20010904/DTD/svg10.dtd">
<svg version="1.0" xmlns="http://www.w3.org/2000/svg"
 width="101.000000pt" height="101.000000pt" viewBox="0 0 101.000000 101.000000"
 preserveAspectRatio="xMidYMid meet">
<metadata>
Created by potrace 1.16, written by Peter Selinger 2001-2019
</metadata>
<g transform="translate(0.000000,101.000000) scale(0.100000,-0.100000)"
fill="#000000" stroke="none">
<path d="M624 948 l5 -63 -57 2 c-85 3 -111 -4 -118 -34 -10 -40 10 -73 46
-73 16 0 30 5 30 10 0 6 20 10 44 10 l44 0 4 -58 3 -58 -70 8 c-75 8 -115 3
-115 -16 0 -6 -5 -3 -11 7 -5 9 -7 22 -4 28 4 5 8 20 10 32 1 12 6 30 10 39 5
13 0 19 -20 24 -14 3 -29 4 -32 1 -3 -4 -13 -2 -22 3 -39 20 -42 2 -39 -228 3
-214 2 -221 -17 -226 -11 -3 -22 -6 -25 -6 -19 0 -5 544 14 591 10 23 -9 33
-61 34 -40 1 -43 -1 -48 -30 -3 -16 -3 -77 1 -135 5 -101 6 -212 1 -387 -2
-73 -4 -82 -22 -86 -21 -3 -21 0 -18 220 2 123 4 228 6 234 3 15 -51 31 -80
24 -28 -6 -33 -36 -26 -150 2 -49 4 -166 3 -258 l-2 -168 49 5 c26 3 64 8 83
11 19 2 51 6 70 8 19 2 45 7 57 11 20 6 21 4 18 -33 -4 -44 7 -52 61 -44 l31
5 1 176 c1 233 1 239 10 227 4 -6 18 -9 32 -8 79 9 180 13 216 8 35 -5 42 -10
42 -28 0 -12 3 -32 7 -44 13 -41 -52 -49 -231 -28 -58 6 -65 -2 -56 -63 4 -30
5 -31 46 -26 80 10 171 14 202 9 24 -4 32 -11 33 -28 0 -12 3 -51 6 -87 5 -80
-9 -116 -46 -112 -40 5 -70 4 -76 -1 -3 -3 4 -18 15 -34 10 -15 23 -38 26 -51
7 -19 13 -22 44 -18 103 12 116 31 119 170 3 156 3 158 19 152 8 -3 25 0 39 6
19 8 28 8 40 -2 19 -16 23 -13 26 25 5 63 4 63 -63 62 -62 -2 -63 -1 -60 23 2
14 3 35 4 48 0 16 5 22 14 18 8 -3 26 0 40 6 20 9 30 9 46 -1 17 -11 22 -10
29 1 14 21 10 65 -7 82 -16 16 -75 22 -88 9 -4 -5 -38 -8 -74 -8 l-67 0 -1 59
0 59 93 -5 c91 -5 93 -5 99 18 12 48 2 58 -61 67 -33 4 -76 6 -95 5 l-35 -3 2
40 c2 22 4 49 5 60 3 17 -4 20 -50 23 l-53 3 5 -63z"/>
<path d="M530 384 c-8 -3 -20 -7 -27 -9 -9 -3 -9 -13 3 -41 14 -32 20 -61 23
-98 1 -8 31 -3 75 14 l25 9 -23 63 c-24 63 -38 75 -76 62z"/>
</g>
</svg>
