<?xml version="1.0" standalone="no"?>
<!DOCTYPE svg PUBLIC "-//W3C//DTD SVG 20010904//EN"
 "http://www.w3.org/TR/2001/REC-SVG-20010904/DTD/svg10.dtd">
<svg version="1.0" xmlns="http://www.w3.org/2000/svg"
 width="101.000000pt" height="101.000000pt" viewBox="0 0 101.000000 101.000000"
 preserveAspectRatio="xMidYMid meet">
<metadata>
Created by potrace 1.16, written by Peter Selinger 2001-2019
</metadata>
<g transform="translate(0.000000,101.000000) scale(0.100000,-0.100000)"
fill="#000000" stroke="none">
<path d="M575 986 c-28 -100 -97 -231 -140 -266 -15 -12 -17 -12 -10 -1 4 8
10 29 12 48 3 27 -1 35 -21 44 -13 7 -36 9 -50 5 -31 -8 -36 -34 -31 -171 5
-124 5 -162 2 -250 -2 -64 -4 -70 -24 -71 -21 -2 -21 1 -16 66 4 45 2 69 -6
74 -14 9 -15 53 -1 61 13 8 13 142 1 150 -13 7 -13 173 -1 180 6 4 10 18 9 33
-1 15 2 39 6 55 8 29 10 28 -63 31 -36 1 -44 -2 -48 -21 -3 -12 -3 -27 1 -33
4 -7 7 -74 6 -150 0 -82 3 -141 9 -145 13 -8 13 -52 -1 -60 -7 -5 -9 -50 -7
-130 4 -118 3 -124 -16 -129 -12 -3 -24 -6 -28 -6 -4 0 -5 47 -1 105 4 76 3
105 -5 105 -14 0 -17 146 -3 152 4 2 11 33 15 70 6 67 6 68 -21 75 -39 9 -65
6 -74 -9 -12 -18 -11 -106 1 -113 11 -7 12 -153 0 -160 -12 -7 -12 -153 0
-160 13 -8 13 -48 -1 -62 -16 -16 0 -83 20 -85 18 -1 24 -1 96 6 28 3 74 8
103 11 l52 5 -5 -30 c-6 -32 0 -35 60 -31 35 3 47 18 38 46 -11 32 -15 188
-10 372 l2 82 30 -23 30 -23 17 21 c16 20 17 20 30 2 11 -14 24 -18 54 -15 39
4 40 3 40 -27 l-1 -32 -77 6 c-77 5 -77 5 -88 -23 -6 -15 -8 -36 -5 -45 7 -22
42 -32 67 -19 10 6 38 7 61 4 42 -7 43 -7 45 -50 1 -43 0 -44 -33 -51 -18 -3
-39 -3 -46 2 -25 15 -67 11 -72 -7 -14 -52 23 -90 66 -68 10 6 34 8 52 5 25
-5 33 -12 33 -29 0 -12 4 -34 7 -50 11 -40 -8 -57 -61 -55 -23 1 -46 0 -49 -4
-3 -3 3 -21 14 -39 12 -19 21 -42 21 -51 0 -21 10 -22 70 -5 82 22 85 26 87
114 2 43 3 87 4 98 1 17 9 21 46 23 38 1 43 -1 39 -16 -11 -33 13 -48 70 -44
19 2 21 8 22 90 1 132 0 129 34 129 16 0 34 6 39 14 24 38 -4 79 -53 79 l-30
0 4 70 3 70 -35 2 c-19 1 -45 2 -57 2 -13 0 -23 2 -23 3 0 2 16 35 35 73 19
38 35 73 35 78 0 5 -41 12 -92 16 -51 4 -94 9 -96 11 -2 2 4 14 13 28 16 25
16 25 -22 38 -50 17 -74 18 -78 5z m132 -213 l-21 -42 -63 2 c-34 1 -63 3 -63
5 0 1 11 19 24 40 22 36 25 37 83 37 l60 0 -20 -42z m99 -158 c-1 -28 -3 -30
-41 -30 -38 0 -40 2 -41 30 0 29 2 30 41 30 39 0 41 -1 41 -30z m2 -160 l2
-45 -45 2 -44 2 1 41 c2 40 3 41 43 43 l41 1 2 -44z"/>
</g>
</svg>
