<?xml version="1.0" standalone="no"?>
<!DOCTYPE svg PUBLIC "-//W3C//DTD SVG 20010904//EN"
 "http://www.w3.org/TR/2001/REC-SVG-20010904/DTD/svg10.dtd">
<svg version="1.0" xmlns="http://www.w3.org/2000/svg"
 width="101.000000pt" height="101.000000pt" viewBox="0 0 101.000000 101.000000"
 preserveAspectRatio="xMidYMid meet">
<metadata>
Created by potrace 1.16, written by Peter Selinger 2001-2019
</metadata>
<g transform="translate(0.000000,101.000000) scale(0.100000,-0.100000)"
fill="#000000" stroke="none">
<path d="M606 973 c-29 -62 -86 -129 -127 -152 -31 -18 -37 -26 -30 -39 5 -9
10 -21 10 -27 8 -53 37 -68 84 -43 l22 11 -20 -24 c-27 -31 -71 -70 -107 -93
l-29 -19 6 79 c3 44 8 88 10 100 4 16 -3 23 -30 33 -65 23 -73 13 -69 -87 2
-48 3 -105 3 -127 0 -22 0 -86 0 -142 1 -59 -3 -103 -8 -103 -5 0 -17 -3 -26
-7 -16 -6 -17 5 -10 134 5 94 4 143 -3 147 -13 8 -15 173 -2 181 5 3 9 29 8
58 -1 29 2 66 6 84 6 26 4 32 -14 38 -11 4 -33 4 -48 1 -26 -6 -27 -8 -24 -66
3 -39 0 -60 -7 -60 -6 0 -11 -18 -11 -40 0 -22 5 -40 10 -40 6 0 10 -33 10
-80 0 -52 -4 -80 -11 -80 -8 0 -9 -42 -4 -146 6 -111 5 -145 -4 -140 -7 4 -17
3 -24 -2 -9 -8 -11 8 -10 71 2 44 -1 85 -6 91 -13 16 -13 154 0 161 5 4 9 32
8 63 -1 32 2 64 5 72 9 22 -55 45 -84 30 -15 -8 -20 -21 -20 -55 0 -25 5 -45
10 -45 6 0 10 -16 10 -35 0 -19 -4 -35 -10 -35 -6 0 -10 -30 -10 -70 0 -40 4
-70 10 -70 6 0 10 -11 10 -25 0 -14 -4 -25 -10 -25 -11 0 -14 -158 -4 -210 6
-28 10 -31 33 -25 41 10 142 24 175 25 11 1 27 5 36 10 15 8 17 4 14 -30 -2
-34 1 -41 19 -45 12 -3 33 -4 46 -3 19 2 28 -5 45 -39 12 -23 26 -42 31 -42 6
-1 60 23 120 53 99 47 113 51 131 39 12 -7 59 -29 105 -48 78 -32 85 -33 97
-17 7 9 24 30 38 45 29 30 28 37 -8 42 -24 4 -106 23 -123 29 -5 1 -22 6 -37
11 -33 9 -34 9 -7 46 22 31 99 193 99 209 0 5 -21 7 -50 3 -31 -4 -55 -1 -64
6 -8 7 -37 10 -70 9 l-55 -3 19 20 c27 29 25 34 -15 51 -51 21 -62 18 -75 -20
-12 -38 -95 -159 -131 -193 l-24 -22 0 114 c0 117 1 119 41 83 21 -18 22 -18
93 42 39 33 76 60 81 60 20 0 9 19 -21 38 -29 18 -30 20 -12 26 11 3 70 8 132
10 102 3 113 2 125 -16 14 -19 15 -19 55 4 22 12 41 26 41 30 0 3 -34 43 -76
87 l-76 81 -28 -15 c-42 -22 -45 -34 -16 -64 14 -15 26 -29 26 -32 0 -2 -41
-3 -91 -2 -50 1 -102 -3 -117 -8 -20 -8 -11 7 42 63 38 40 78 80 88 90 27 24
22 34 -22 52 -54 21 -54 21 -74 -21z m147 -542 c4 -18 -49 -121 -63 -121 -7 0
-80 118 -80 130 0 6 29 10 69 10 59 0 69 -3 74 -19z m-163 -114 c19 -28 36
-55 38 -58 5 -11 -175 -79 -207 -79 -3 0 -6 36 -6 79 0 69 2 78 16 71 9 -5 21
-16 29 -24 18 -23 24 -20 55 24 15 22 30 40 34 40 3 0 22 -24 41 -53z"/>
<path d="M728 679 c-16 -11 -28 -25 -28 -30 0 -5 17 -17 38 -28 21 -11 63 -39
92 -62 l54 -42 28 34 c15 18 27 38 25 43 -3 9 -166 106 -177 106 -3 -1 -17
-10 -32 -21z"/>
</g>
</svg>
