<?xml version="1.0" standalone="no"?>
<!DOCTYPE svg PUBLIC "-//W3C//DTD SVG 20010904//EN"
 "http://www.w3.org/TR/2001/REC-SVG-20010904/DTD/svg10.dtd">
<svg version="1.0" xmlns="http://www.w3.org/2000/svg"
 width="101.000000pt" height="102.000000pt" viewBox="0 0 101.000000 102.000000"
 preserveAspectRatio="xMidYMid meet">
<metadata>
Created by potrace 1.16, written by Peter Selinger 2001-2019
</metadata>
<g transform="translate(0.000000,102.000000) scale(0.100000,-0.100000)"
fill="#000000" stroke="none">
<path d="M463 945 l2 -76 -37 6 c-25 5 -38 3 -38 -4 0 -6 -11 -11 -25 -11 -14
0 -25 5 -25 10 0 6 -17 10 -39 10 -34 0 -39 3 -44 27 -3 15 -1 35 4 44 6 13 0
18 -32 28 -22 7 -49 9 -60 6 -18 -6 -20 -14 -17 -101 3 -100 11 -114 58 -99
15 5 18 2 15 -15 -10 -50 -84 -177 -137 -235 -32 -35 -58 -66 -58 -69 0 -4 46
-75 55 -84 1 -2 21 22 44 54 l41 57 0 -36 c0 -21 5 -37 10 -37 15 0 12 -67 -2
-73 -10 -4 -10 -8 1 -15 11 -8 13 -31 8 -114 -3 -56 -8 -110 -12 -119 -8 -20
17 -28 64 -21 32 4 33 6 27 42 -5 34 -4 38 17 39 26 2 197 2 282 1 33 -1 79 2
102 5 26 5 61 1 94 -8 38 -12 58 -13 72 -6 10 6 34 8 53 4 30 -5 34 -3 36 17
4 71 -5 79 -75 61 -34 -9 -82 -12 -142 -8 -49 3 -100 5 -112 6 -20 1 -22 6
-21 44 2 48 -7 45 128 48 47 1 97 -2 111 -6 22 -7 27 -5 32 12 13 52 4 56
-116 58 -167 2 -156 -1 -154 42 l1 36 51 -2 c27 0 55 3 61 8 7 5 44 8 83 6 62
-4 71 -2 76 14 4 11 3 28 0 40 -6 16 -12 19 -36 14 -16 -4 -74 -3 -128 0 -97
7 -99 8 -104 34 -3 14 -4 27 -3 28 1 1 68 3 149 5 144 3 148 4 154 25 13 53 5
56 -152 48 -139 -7 -160 -4 -135 21 6 6 2 22 -14 44 l-23 35 111 3 c61 1 132
2 158 3 l46 1 0 78 c0 43 3 83 6 89 8 12 -1 18 -45 26 -43 8 -74 -15 -66 -49
3 -12 7 -30 10 -41 5 -19 0 -20 -107 -20 l-111 0 1 46 c1 25 6 55 12 66 10 18
8 21 -20 27 -17 3 -43 6 -58 6 l-28 0 1 -75z m27 -156 l25 0 -25 -10 c-34 -14
-34 -14 -10 -47 12 -17 19 -35 16 -41 -9 -14 -136 -15 -136 -1 0 6 -14 10 -32
10 l-31 0 23 25 c13 14 22 27 19 28 -2 2 -13 9 -24 15 -17 10 -14 11 22 12 23
0 45 5 49 11 4 7 21 9 43 5 20 -3 47 -6 61 -7z m-5 -208 l0 -36 -110 0 -110 0
0 35 0 35 110 1 111 1 -1 -36z m-28 -107 c25 -5 29 -10 30 -44 2 -37 0 -40
-30 -45 -18 -2 -59 -3 -92 0 -33 3 -70 5 -82 6 -19 1 -22 7 -20 39 l1 37 42
-5 c23 -2 50 1 60 7 22 12 49 14 91 5z m3 -150 c23 -4 26 -10 28 -49 1 -43 0
-44 -31 -50 -17 -2 -59 -3 -92 0 -33 3 -70 5 -82 6 -20 1 -22 6 -21 45 2 34 6
43 18 39 8 -2 21 -1 29 4 16 10 110 13 151 5z"/>
</g>
</svg>
