<?xml version="1.0" standalone="no"?>
<!DOCTYPE svg PUBLIC "-//W3C//DTD SVG 20010904//EN"
 "http://www.w3.org/TR/2001/REC-SVG-20010904/DTD/svg10.dtd">
<svg version="1.0" xmlns="http://www.w3.org/2000/svg"
 width="101.000000pt" height="101.000000pt" viewBox="0 0 101.000000 101.000000"
 preserveAspectRatio="xMidYMid meet">
<metadata>
Created by potrace 1.16, written by Peter Selinger 2001-2019
</metadata>
<g transform="translate(0.000000,101.000000) scale(0.100000,-0.100000)"
fill="#000000" stroke="none">
<path d="M632 999 c-30 -9 -31 -11 -18 -32 8 -12 17 -31 20 -42 5 -18 1 -20
-52 -18 -31 0 -69 4 -84 8 -38 10 -65 -2 -72 -31 -15 -58 -9 -61 142 -58 203
5 201 5 278 0 40 -2 77 -6 82 -10 17 -10 42 23 42 54 0 38 -29 54 -79 45 -48
-10 -160 -12 -155 -3 3 4 0 15 -6 25 -5 10 -14 30 -20 46 -10 29 -23 32 -78
16z"/>
<path d="M192 941 c0 -34 3 -63 8 -66 12 -8 11 -173 -1 -180 -12 -8 -12 -142
1 -150 13 -8 13 -52 -1 -61 -7 -4 -10 -31 -7 -72 3 -64 3 -65 -23 -68 -26 -2
-27 0 -34 61 -4 41 -2 71 5 85 7 13 10 69 7 160 -2 77 0 140 5 140 4 0 8 7 8
15 0 20 -47 38 -77 30 -20 -5 -23 -12 -23 -55 0 -28 5 -50 10 -50 6 0 10 -32
10 -75 0 -41 -4 -75 -9 -75 -6 0 -9 -69 -8 -170 l2 -170 45 5 c25 3 61 8 80
11 19 3 46 7 60 8 14 2 38 7 53 11 27 7 28 7 21 -32 -5 -35 -3 -41 14 -45 63
-17 94 25 66 91 -17 41 -18 68 -1 75 10 5 10 7 0 12 -15 7 -18 74 -3 74 6 0
10 18 10 40 0 22 -4 40 -10 40 -5 0 -10 16 -10 35 0 19 5 35 10 35 6 0 10 28
10 63 1 34 5 81 9 104 8 39 6 42 -19 53 -49 20 -99 -6 -83 -45 3 -9 6 -104 7
-213 1 -196 1 -197 -21 -198 -21 -2 -21 1 -16 66 4 45 2 69 -6 74 -14 9 -15
53 -1 61 13 8 13 142 1 150 -12 7 -13 172 -1 180 10 6 12 95 2 96 -4 0 -25 3
-48 5 l-41 5 -1 -60z"/>
<path d="M475 767 c-3 -7 -3 -53 -2 -104 2 -81 4 -92 21 -97 11 -3 27 -1 37 5
11 5 85 7 182 3 l164 -5 7 80 c3 45 4 92 0 105 l-6 24 -200 0 c-143 0 -200 -3
-203 -11z m321 -91 c-1 -21 -7 -25 -55 -30 -29 -4 -58 -2 -65 3 -6 5 -34 8
-62 8 -43 -2 -50 1 -46 15 4 18 23 21 153 25 75 3 77 2 75 -21z"/>
<path d="M489 533 c-33 -8 -32 -77 1 -86 10 -3 38 -1 61 3 24 5 47 6 51 4 4
-3 17 0 28 6 13 7 39 8 67 4 l47 -7 -50 -25 c-60 -30 -55 -26 -57 -50 -1 -16
-11 -21 -60 -26 -32 -3 -66 -2 -76 4 -42 22 -74 -10 -64 -62 4 -20 10 -24 32
-23 15 1 32 5 38 8 6 4 39 4 72 0 47 -4 61 -9 57 -20 -3 -7 0 -25 6 -39 10
-22 9 -28 -5 -39 -9 -7 -33 -11 -53 -9 -24 2 -34 -1 -30 -9 2 -7 10 -29 17
-49 6 -20 20 -38 30 -41 21 -6 99 11 114 25 6 5 11 37 12 71 4 105 4 105 27
106 11 0 51 3 89 6 37 2 78 0 91 -5 21 -8 25 -5 29 17 10 55 3 59 -96 61 -109
1 -137 3 -137 8 0 8 144 74 161 74 18 0 30 39 22 70 -5 20 -69 30 -143 23 -69
-7 -233 -8 -250 -1 -8 3 -22 4 -31 1z"/>
</g>
</svg>
