<?xml version="1.0" standalone="no"?>
<!DOCTYPE svg PUBLIC "-//W3C//DTD SVG 20010904//EN"
 "http://www.w3.org/TR/2001/REC-SVG-20010904/DTD/svg10.dtd">
<svg version="1.0" xmlns="http://www.w3.org/2000/svg"
 width="101.000000pt" height="102.000000pt" viewBox="0 0 101.000000 102.000000"
 preserveAspectRatio="xMidYMid meet">
<metadata>
Created by potrace 1.16, written by Peter Selinger 2001-2019
</metadata>
<g transform="translate(0.000000,102.000000) scale(0.100000,-0.100000)"
fill="#000000" stroke="none">
<path d="M210 1012 c-12 -6 -15 -32 -13 -157 2 -210 2 -215 0 -362 -1 -73 -4
-133 -7 -133 -3 0 -15 -3 -26 -6 -21 -6 -22 -2 -29 140 -5 101 -4 151 4 159 6
8 10 40 10 73 0 32 2 71 5 86 7 29 -4 36 -61 36 -29 1 -33 -3 -37 -31 -5 -31
-1 -205 8 -377 2 -46 0 -92 -5 -102 -5 -10 -7 -34 -3 -53 7 -37 8 -37 119 -20
17 3 41 7 55 9 90 15 90 15 88 -2 -4 -59 12 -75 65 -65 22 4 25 8 17 28 -5 13
-7 52 -4 87 2 35 5 73 5 86 1 30 5 28 25 -10 23 -45 21 -44 48 -19 l24 23 2
-24 c1 -13 2 -82 2 -155 1 -145 1 -145 65 -136 30 5 30 5 20 44 -7 28 -6 47 1
64 6 14 9 31 6 39 -4 9 2 14 18 15 13 1 48 3 78 6 91 7 106 1 107 -45 l2 -39
-39 2 c-22 1 -41 -1 -44 -4 -9 -9 39 -99 54 -99 31 0 88 21 101 37 14 16 20
116 17 286 0 23 3 54 7 69 4 15 4 44 1 64 -7 35 -7 36 -48 29 -29 -5 -43 -3
-50 6 -7 11 -11 11 -15 2 -6 -15 -73 -18 -73 -3 0 6 -18 10 -41 10 -39 0 -40
0 -25 22 14 20 23 21 146 20 71 0 134 -3 139 -6 18 -12 43 25 36 53 -4 14 -8
28 -10 29 -2 2 -58 6 -125 9 -129 6 -126 5 -105 55 5 13 0 21 -21 29 -16 7
-38 11 -49 11 -17 -1 -16 2 6 13 35 19 57 14 144 -34 l73 -41 31 36 c17 19 29
39 26 44 -3 4 -39 20 -80 35 -71 26 -75 29 -59 46 9 10 36 27 61 39 49 23 48
31 -8 71 l-29 20 -60 -50 c-34 -29 -67 -48 -77 -46 -10 1 -53 17 -97 34 -43
18 -79 30 -81 29 -1 -2 -12 -18 -24 -36 -22 -32 -23 -34 -5 -47 11 -8 24 -13
29 -11 6 2 21 -1 35 -6 14 -6 33 -11 44 -14 10 -2 20 -5 23 -7 4 -5 -87 -45
-114 -50 -33 -7 -73 -19 -73 -23 0 -2 8 -12 19 -23 10 -10 23 -27 29 -37 10
-18 15 -17 87 19 73 36 76 37 70 15 -20 -73 -21 -73 -81 -70 -83 6 -123 -4
-130 -33 -8 -32 13 -69 34 -60 9 4 38 8 63 9 l47 1 -31 -43 c-18 -24 -52 -62
-77 -85 l-45 -42 -6 65 c-10 100 -10 200 0 200 13 0 20 114 7 122 -21 14 -84
9 -90 -8 -10 -25 -7 -102 4 -109 12 -8 11 -146 -1 -161 -5 -6 -8 -49 -6 -95 3
-83 2 -84 -21 -86 l-24 -1 7 148 c4 98 3 150 -3 154 -14 8 -15 173 -2 181 6 4
10 18 10 33 -1 15 1 45 4 68 5 37 2 42 -20 53 -28 12 -32 13 -54 3z m558 -528
c22 -4 30 -12 29 -25 -2 -23 -33 -30 -107 -24 -30 3 -64 5 -75 6 -12 1 -21 9
-22 18 -1 13 8 16 53 14 29 -1 56 3 59 8 7 11 21 11 63 3z m4 -111 c19 -3 26
-10 25 -23 -2 -24 -32 -31 -107 -25 -30 3 -64 5 -75 6 -13 1 -21 9 -22 21 -1
14 3 17 15 14 9 -3 24 -1 32 4 15 10 85 11 132 3z"/>
</g>
</svg>
