<?xml version="1.0" standalone="no"?>
<!DOCTYPE svg PUBLIC "-//W3C//DTD SVG 20010904//EN"
 "http://www.w3.org/TR/2001/REC-SVG-20010904/DTD/svg10.dtd">
<svg version="1.0" xmlns="http://www.w3.org/2000/svg"
 width="101.000000pt" height="101.000000pt" viewBox="0 0 101.000000 101.000000"
 preserveAspectRatio="xMidYMid meet">
<metadata>
Created by potrace 1.16, written by Peter Selinger 2001-2019
</metadata>
<g transform="translate(0.000000,101.000000) scale(0.100000,-0.100000)"
fill="#000000" stroke="none">
<path d="M578 998 c0 -7 -3 -26 -6 -43 -2 -16 -5 -48 -5 -71 l-2 -40 -83 2
c-79 1 -83 0 -88 -22 -3 -13 -4 -31 0 -39 3 -10 -1 -15 -12 -16 -9 0 -33 -1
-52 -3 l-35 -3 0 64 c0 35 4 63 10 64 6 0 24 2 40 4 17 2 45 6 63 8 17 2 35 6
38 9 6 7 -45 88 -56 88 -4 0 -26 -7 -50 -15 -23 -8 -58 -17 -78 -20 -21 -3
-50 -7 -67 -10 -16 -3 -53 -5 -82 -4 -28 0 -54 -4 -57 -9 -3 -5 2 -27 11 -49
16 -38 20 -40 62 -41 25 0 52 3 61 8 12 6 15 -1 18 -44 l2 -51 -42 2 c-24 2
-60 6 -80 9 -35 6 -39 4 -48 -22 -22 -56 15 -98 63 -73 10 6 35 8 54 4 38 -7
38 -9 -3 -102 -27 -62 -72 -129 -114 -171 l-30 -31 29 -46 30 -47 33 46 c18
25 49 76 70 112 42 77 40 83 40 -121 0 -77 -5 -152 -10 -166 -15 -38 0 -54 49
-52 23 1 43 4 45 5 1 2 -1 62 -6 133 -6 72 -8 159 -5 195 3 36 6 75 6 88 1 31
9 21 35 -41 22 -55 31 -59 88 -38 26 11 26 11 11 41 -18 34 -4 41 18 9 12 -16
19 -19 34 -11 40 22 106 107 139 178 19 41 36 74 38 74 5 0 7 -26 9 -126 1
-49 7 -87 15 -96 11 -14 8 -16 -31 -12 -39 5 -45 3 -50 -17 -3 -12 -2 -29 2
-38 12 -23 13 -175 1 -207 -9 -22 -14 -25 -38 -19 -15 3 -37 7 -49 7 -17 0
-23 8 -28 39 -4 21 -3 44 1 50 4 7 8 24 9 38 1 14 5 36 9 48 6 19 2 23 -28 32
-55 15 -74 6 -68 -32 7 -60 7 -212 -1 -234 -8 -22 -6 -22 35 -17 86 11 135 13
246 7 97 -5 112 -8 107 -22 -10 -32 15 -47 70 -43 20 2 21 9 22 120 0 122 5
171 16 189 10 16 -6 24 -57 28 -38 4 -45 2 -49 -17 -3 -12 -2 -29 3 -39 13
-23 6 -137 -9 -152 -8 -8 -19 -8 -42 0 -17 7 -37 9 -44 7 -24 -9 -29 92 -11
206 2 14 4 32 5 41 1 14 13 16 74 14 84 -2 119 12 147 58 23 37 26 77 6 77 -7
0 -25 9 -39 20 -33 26 -34 26 -41 -14 -8 -43 -22 -55 -63 -52 -44 2 -58 18
-48 53 9 31 15 67 15 98 1 18 8 20 63 20 34 0 68 -4 75 -8 28 -18 48 1 47 48
0 44 0 45 -35 46 -19 1 -46 4 -60 8 l-25 7 23 8 c12 4 22 12 22 17 0 8 -27 52
-65 107 -5 7 -75 -30 -75 -39 0 -6 8 -23 19 -37 46 -66 46 -67 -24 -67 -58 0
-62 1 -53 19 5 10 7 27 4 39 -3 11 2 33 10 49 19 37 11 48 -31 41 -23 -4 -35
-2 -35 6 0 15 -30 14 -32 -1z m-38 -290 c-20 -54 -76 -120 -121 -143 -25 -13
-27 -12 -42 21 -18 37 -23 39 -61 24 -24 -9 -25 -8 -23 29 1 42 -1 41 84 44
43 1 64 22 48 47 -4 6 12 10 42 10 26 0 55 5 63 10 28 18 30 10 10 -42z"/>
</g>
</svg>
