<?xml version="1.0" standalone="no"?>
<!DOCTYPE svg PUBLIC "-//W3C//DTD SVG 20010904//EN"
 "http://www.w3.org/TR/2001/REC-SVG-20010904/DTD/svg10.dtd">
<svg version="1.0" xmlns="http://www.w3.org/2000/svg"
 width="101.000000pt" height="101.000000pt" viewBox="0 0 101.000000 101.000000"
 preserveAspectRatio="xMidYMid meet">
<metadata>
Created by potrace 1.16, written by Peter Selinger 2001-2019
</metadata>
<g transform="translate(0.000000,101.000000) scale(0.100000,-0.100000)"
fill="#000000" stroke="none">
<path d="M218 1003 c-19 -5 -25 -43 -8 -43 6 0 10 -25 10 -55 0 -30 -4 -55
-10 -55 -5 0 -10 -18 -10 -40 0 -22 5 -40 10 -40 6 0 10 -33 10 -80 0 -53 -4
-80 -11 -80 -9 0 -10 -34 -5 -122 l7 -123 -24 -1 c-23 -2 -25 2 -31 72 -4 46
-3 81 4 93 5 11 10 73 10 138 -1 65 1 130 4 145 3 22 -1 28 -24 38 -16 7 -37
9 -48 6 -17 -6 -18 -15 -14 -129 6 -173 5 -354 -3 -410 -6 -46 -5 -48 15 -42
12 4 36 8 53 10 108 12 134 16 149 21 13 4 18 0 16 -13 -4 -50 16 -68 61 -56
16 4 21 18 26 78 6 65 9 73 29 73 11 0 40 3 64 6 41 5 42 5 31 -17 -7 -12 -21
-35 -32 -50 -10 -16 -18 -29 -16 -31 2 -1 32 -13 66 -26 34 -13 60 -28 57 -32
-9 -14 -108 -40 -167 -43 -33 -2 -61 -6 -64 -9 -3 -3 6 -19 21 -36 14 -17 26
-38 26 -46 0 -11 7 -13 28 -8 50 12 184 63 218 83 40 24 47 22 137 -36 l68
-43 20 22 c47 55 46 56 -38 95 -43 20 -79 37 -80 38 -2 1 13 33 33 72 l37 71
52 -4 c50 -5 53 -4 58 22 7 41 -2 66 -24 59 -10 -3 -26 -2 -36 4 -12 6 -37 4
-78 -6 -45 -12 -67 -13 -88 -5 -16 6 -35 8 -43 5 -19 -7 -18 11 1 27 9 7 14
19 11 25 -5 15 6 16 121 17 88 1 100 8 84 51 -7 18 -7 86 1 157 5 48 1 50 -71
47 l-69 -3 2 36 1 35 83 0 c89 0 101 8 88 58 -5 21 -10 22 -161 24 -96 2 -155
-1 -155 -7 0 -13 -67 -13 -72 -1 -2 8 -80 15 -125 12 -16 -1 -25 -34 -18 -64
6 -24 10 -25 83 -23 l77 1 0 -35 0 -35 -61 3 c-73 4 -72 5 -64 -116 3 -46 2
-91 -2 -101 -12 -33 28 -59 63 -40 12 6 37 8 59 4 l39 -7 -13 -31 c-13 -34 -8
-33 -118 -26 -55 4 -61 -1 -61 -41 0 -16 -4 -30 -9 -30 -11 0 -10 88 2 92 5 2
10 71 10 163 l2 160 -26 -3 c-14 -1 -26 2 -26 8 0 6 -10 10 -22 8 -18 -2 -24
-11 -26 -35 -2 -19 1 -33 7 -33 7 0 11 -29 11 -75 0 -50 -4 -75 -11 -75 -9 0
-10 -32 -5 -119 6 -104 5 -119 -9 -125 -9 -3 -17 -6 -18 -6 -13 0 -6 588 7
609 13 20 -35 35 -76 24z m467 -173 c0 -28 -4 -35 -20 -35 -17 0 -20 6 -17 35
3 26 9 36 21 36 13 0 17 -9 16 -36z m-117 -135 c1 -11 2 -31 4 -44 3 -21 -1
-25 -27 -25 -26 -1 -30 2 -27 24 2 14 3 34 4 45 0 14 7 20 23 20 16 0 23 -6
23 -20z m120 3 c1 -13 2 -34 4 -47 2 -19 -2 -24 -24 -27 -26 -2 -27 -1 -26 41
2 36 6 45 23 48 11 2 21 5 21 6 1 0 2 -9 2 -21z m130 -3 c1 -11 2 -31 4 -45 3
-22 -1 -25 -32 -25 -31 0 -35 3 -32 25 2 14 3 34 4 46 1 30 55 29 56 -1z m-74
-293 c3 -5 -9 -32 -25 -61 -32 -56 -37 -57 -102 -24 l-28 14 20 32 c14 22 28
32 45 32 14 1 28 4 32 8 10 10 52 9 58 -1z"/>
</g>
</svg>
