<?xml version="1.0" standalone="no"?>
<!DOCTYPE svg PUBLIC "-//W3C//DTD SVG 20010904//EN"
 "http://www.w3.org/TR/2001/REC-SVG-20010904/DTD/svg10.dtd">
<svg version="1.0" xmlns="http://www.w3.org/2000/svg"
 width="101.000000pt" height="101.000000pt" viewBox="0 0 101.000000 101.000000"
 preserveAspectRatio="xMidYMid meet">
<metadata>
Created by potrace 1.16, written by Peter Selinger 2001-2019
</metadata>
<g transform="translate(0.000000,101.000000) scale(0.100000,-0.100000)"
fill="#000000" stroke="none">
<path d="M176 853 c5 -141 5 -237 1 -438 -1 -83 -3 -90 -22 -91 -20 -2 -20 3
-17 210 1 116 5 227 8 247 5 32 3 37 -23 46 -51 19 -71 15 -78 -17 -4 -16 -3
-40 1 -52 4 -13 6 -60 6 -106 -1 -48 3 -91 10 -101 9 -14 8 -35 -1 -87 -7 -38
-12 -78 -11 -89 1 -11 1 -45 1 -76 -1 -65 8 -72 80 -59 24 5 47 6 51 4 4 -3
17 0 29 6 12 7 36 9 54 6 32 -6 33 -8 30 -45 -4 -44 7 -52 64 -43 32 4 33 5
25 41 -9 43 -15 177 -9 206 3 16 13 20 47 22 24 1 55 4 71 7 15 2 27 1 27 -3
0 -16 -83 -148 -106 -167 -22 -18 -23 -23 -13 -55 7 -18 13 -35 14 -36 0 -1
18 2 38 8 87 24 185 30 173 10 -3 -5 -1 -23 5 -40 12 -34 4 -33 119 -16 97 14
111 14 106 -3 -11 -35 7 -44 58 -31 55 14 55 10 4 142 l-30 79 -34 -5 c-19 -3
-34 -3 -34 0 0 11 101 197 116 214 22 25 17 33 -31 57 -54 26 -55 26 -55 8 0
-7 -9 -36 -21 -64 -19 -47 -23 -50 -55 -49 -19 1 -34 2 -34 4 0 14 92 183 100
183 19 0 10 20 -17 33 -26 14 -25 14 38 21 35 4 73 4 83 0 22 -8 36 10 36 49
0 37 -39 53 -90 38 -19 -6 -53 -10 -76 -8 l-40 2 32 45 c18 26 42 54 53 65 33
29 34 28 -75 72 -7 2 -17 -12 -24 -34 -7 -21 -26 -64 -42 -95 l-30 -57 -59 2
c-64 2 -76 12 -29 22 16 4 33 11 36 17 4 6 -6 37 -22 70 -27 57 -29 59 -62 54
-50 -6 -57 -18 -34 -62 32 -65 35 -91 10 -97 -12 -3 -30 -1 -41 4 -10 6 -30 9
-44 6 -13 -2 -41 2 -62 9 -44 15 -77 9 -86 -14 -9 -23 6 -192 16 -192 14 0 10
-68 -3 -74 -10 -5 -10 -7 0 -12 13 -6 16 -99 6 -176 -6 -42 -8 -45 -36 -45
l-30 0 7 108 c4 73 3 109 -4 114 -14 8 -14 52 -1 60 6 4 10 53 10 123 -1 64 2
140 5 167 3 28 6 59 8 70 2 16 -3 19 -25 17 -16 -1 -28 2 -28 8 0 5 -11 10
-24 10 l-24 0 4 -147z m227 -70 c-5 -38 9 -55 48 -58 19 -2 35 -3 36 -4 5 -3
-48 -144 -63 -171 -37 -62 -43 -48 -38 102 4 123 8 158 18 158 1 0 1 -12 -1
-27z m347 -46 c0 -1 -5 -18 -11 -37 -5 -19 -12 -46 -15 -60 -10 -47 -44 -115
-70 -136 -22 -18 -24 -25 -17 -55 10 -37 12 -37 111 -26 27 3 32 1 27 -12 -10
-26 -76 -141 -80 -141 -3 0 -18 27 -35 60 -29 57 -32 60 -60 55 l-30 -5 46 92
c26 51 50 95 55 96 20 8 7 31 -27 51 -19 12 -39 21 -43 21 -4 0 -15 -25 -25
-55 -19 -61 -18 -60 -64 -70 l-34 -7 43 79 c23 43 51 88 61 99 16 18 17 24 6
30 -8 6 4 11 37 15 57 7 125 10 125 6z m-166 -419 c15 -35 15 -36 -7 -35 -12
1 -33 -3 -47 -7 -23 -8 -24 -8 -9 15 9 13 21 35 28 47 15 28 16 27 35 -20z
m242 -51 c3 -17 7 -34 8 -37 0 -3 -18 -5 -40 -6 l-41 -1 26 42 c14 24 29 41
33 39 3 -2 10 -19 14 -37z"/>
</g>
</svg>
