<?xml version="1.0" standalone="no"?>
<!DOCTYPE svg PUBLIC "-//W3C//DTD SVG 20010904//EN"
 "http://www.w3.org/TR/2001/REC-SVG-20010904/DTD/svg10.dtd">
<svg version="1.0" xmlns="http://www.w3.org/2000/svg"
 width="101.000000pt" height="101.000000pt" viewBox="0 0 101.000000 101.000000"
 preserveAspectRatio="xMidYMid meet">
<metadata>
Created by potrace 1.16, written by Peter Selinger 2001-2019
</metadata>
<g transform="translate(0.000000,101.000000) scale(0.100000,-0.100000)"
fill="#000000" stroke="none">
<path d="M653 1003 c-25 -5 -27 -11 -14 -45 l9 -23 -92 2 c-50 2 -96 -1 -103
-5 -16 -10 -25 -54 -14 -71 11 -16 62 -20 126 -8 39 7 36 4 -13 -14 -22 -8
-22 -10 -8 -31 9 -12 16 -25 16 -28 0 -4 -31 -6 -70 -6 -57 1 -70 4 -70 17 0
10 -16 21 -40 29 -58 19 -65 8 -63 -93 1 -45 2 -109 2 -142 0 -33 0 -97 0
-142 0 -46 -4 -83 -9 -83 -5 0 -16 -3 -25 -6 -14 -6 -15 6 -10 124 4 78 2 133
-4 136 -13 8 -13 153 0 161 5 4 10 32 10 63 0 32 2 78 5 103 6 46 6 46 -29 53
-19 3 -42 4 -51 0 -18 -7 -32 -47 -21 -64 4 -6 6 -49 6 -95 0 -46 4 -87 9 -90
12 -8 13 -52 1 -59 -12 -8 -13 -114 -1 -121 12 -7 12 -121 1 -185 -5 -25 -9
-42 -10 -38 0 4 -11 4 -24 -1 l-23 -9 3 226 c2 125 5 234 8 243 4 11 -5 19
-35 29 -22 7 -43 10 -47 7 -3 -4 -5 -43 -4 -87 2 -51 -2 -80 -8 -80 -7 0 -11
-27 -11 -70 0 -40 4 -70 10 -70 14 0 13 -87 -1 -92 -8 -3 -9 -35 -4 -106 7
-95 9 -102 27 -96 11 3 36 8 56 10 20 3 48 6 62 9 14 2 45 6 71 9 l45 5 1 -35
c1 -44 5 -48 49 -47 44 1 47 4 34 37 -13 35 -13 106 0 106 6 0 10 18 10 40 0
22 -4 40 -10 40 -15 0 -13 157 3 164 10 5 10 7 0 12 -15 7 -18 74 -3 74 6 0
10 12 10 28 0 15 3 22 8 15 5 -7 32 -10 82 -7 71 4 139 6 178 5 9 -1 55 2 102
5 48 3 104 0 129 -6 46 -12 61 -4 61 30 0 35 -17 43 -89 44 l-70 1 25 26 c24
25 25 28 8 37 -17 9 -16 11 9 17 15 4 38 4 51 1 19 -5 26 -1 31 14 18 55 -24
76 -135 68 -45 -3 -60 -1 -61 9 -1 7 -3 18 -4 23 -1 6 -3 17 -4 25 -1 15 -28
18 -78 8z m98 -160 c-5 -10 -9 -20 -9 -23 1 -3 -2 -14 -5 -25 -6 -16 -16 -20
-50 -20 -42 0 -44 1 -58 40 l-15 40 74 3 c67 2 72 1 63 -15z"/>
<path d="M465 641 c-8 -26 -4 -93 7 -107 5 -7 7 -48 5 -92 -3 -74 -2 -81 16
-86 11 -3 29 0 39 5 10 6 38 7 61 4 41 -6 43 -9 44 -40 1 -29 -3 -35 -26 -39
-25 -5 -87 -2 -158 7 -24 3 -33 -1 -36 -15 -12 -46 24 -79 64 -57 18 9 66 10
125 3 34 -5 33 -4 37 -91 1 -45 14 -55 61 -46 20 4 26 12 28 32 2 37 1 43 -7
72 -8 31 -13 30 132 31 96 2 107 7 97 45 -5 17 -16 20 -97 21 -142 1 -135 -1
-134 38 1 24 5 33 14 30 7 -3 24 -1 37 5 16 8 38 8 69 2 l45 -10 -4 114 c-2
63 0 122 5 132 6 10 7 27 4 39 -5 19 -10 21 -45 15 -52 -8 -280 -8 -335 0 -35
5 -43 3 -48 -12z m306 -47 c21 -4 26 -11 25 -30 -1 -30 -31 -37 -126 -29 -36
3 -74 6 -85 6 -14 1 -20 9 -21 26 -2 18 2 22 15 19 9 -3 22 -2 30 3 15 10 121
13 162 5z m0 -110 c21 -4 26 -11 26 -34 0 -25 -5 -30 -31 -35 -17 -3 -60 -3
-96 0 -36 3 -74 6 -86 6 -16 1 -21 8 -21 30 0 22 4 28 16 24 9 -2 22 -1 30 4
15 10 121 13 162 5z"/>
</g>
</svg>
