<?xml version="1.0" standalone="no"?>
<!DOCTYPE svg PUBLIC "-//W3C//DTD SVG 20010904//EN"
 "http://www.w3.org/TR/2001/REC-SVG-20010904/DTD/svg10.dtd">
<svg version="1.0" xmlns="http://www.w3.org/2000/svg"
 width="101.000000pt" height="102.000000pt" viewBox="0 0 101.000000 102.000000"
 preserveAspectRatio="xMidYMid meet">
<metadata>
Created by potrace 1.16, written by Peter Selinger 2001-2019
</metadata>
<g transform="translate(0.000000,102.000000) scale(0.100000,-0.100000)"
fill="#000000" stroke="none">
<path d="M465 955 l0 -66 -110 3 -111 3 2 25 c1 14 5 32 9 42 7 19 -10 26 -67
27 l-36 0 0 -84 c0 -74 2 -85 19 -90 10 -3 28 -1 39 5 26 14 35 7 35 -26 1
-23 0 -24 -80 -18 -94 6 -122 -6 -112 -48 9 -33 41 -41 125 -32 53 5 64 4 60
-7 -3 -9 -16 -13 -36 -11 -18 2 -45 1 -61 -3 -27 -6 -29 -9 -24 -43 10 -80 12
-131 7 -225 -6 -92 -7 -97 -28 -96 -40 4 -54 -1 -59 -20 -9 -35 29 -59 65 -40
12 6 35 8 57 4 l36 -7 -43 -38 c-23 -21 -58 -45 -78 -55 -20 -9 -32 -20 -28
-24 5 -3 21 -16 35 -29 l25 -22 74 55 c40 30 77 55 82 55 18 0 6 19 -24 40
-18 12 -25 19 -16 17 9 -3 30 -1 46 5 16 6 37 8 47 4 17 -6 17 -8 -4 -22 l-22
-16 53 -48 c50 -46 54 -48 76 -34 27 18 51 12 91 -22 l29 -24 61 41 c34 23 69
52 78 65 19 29 30 24 113 -52 l60 -56 42 27 42 28 -35 31 c-19 17 -47 40 -62
52 l-29 20 37 1 c20 1 38 3 41 5 2 3 0 38 -6 79 -10 70 -8 170 4 267 5 37 3
42 -14 42 -11 0 -29 -6 -40 -12 -15 -10 -27 -10 -51 -1 -17 7 -36 10 -43 7
-11 -4 -13 4 -7 47 1 4 50 10 111 14 92 6 110 9 115 24 13 43 1 48 -147 56
-103 5 -143 4 -148 -5 -5 -7 -34 -11 -84 -9 -58 2 -80 -1 -87 -12 -7 -12 -9
-11 -9 2 0 14 -8 16 -45 11 -30 -3 -45 -1 -45 7 0 6 -13 11 -29 11 -27 0 -28
2 -19 23 11 23 11 23 168 27 19 0 60 -2 90 -5 31 -3 72 0 93 7 37 11 74 7 127
-16 29 -12 40 9 45 85 l4 75 -30 11 c-55 21 -82 -2 -73 -61 l6 -38 -41 7 c-27
4 -41 3 -41 -4 0 -6 -11 -11 -25 -11 -14 0 -25 5 -25 10 0 6 -18 10 -40 10
l-40 0 0 54 c0 58 -8 66 -70 66 -24 0 -25 -2 -25 -65z m38 -247 c2 -9 27 -13
76 -12 69 1 72 -1 67 -20 -3 -12 -6 -27 -6 -34 0 -10 -15 -12 -60 -8 -71 6
-70 7 -54 -94 13 -84 13 -161 -1 -199 -23 -66 -3 -95 59 -84 22 5 25 9 18 32
-4 14 -6 71 -5 126 3 146 3 143 27 144 11 1 46 3 76 6 83 6 108 -1 109 -33 4
-68 0 -143 -8 -165 -7 -17 -6 -35 1 -55 15 -39 5 -67 -19 -53 -13 7 -27 4 -50
-10 l-33 -20 17 38 c9 21 17 61 19 88 3 60 9 101 18 136 7 23 4 27 -21 34 -26
8 -53 7 -61 0 -2 -2 -5 -27 -7 -57 -8 -115 -14 -147 -34 -187 -22 -42 -72 -82
-127 -101 -29 -10 -36 -8 -88 28 -61 43 -62 43 37 44 27 0 48 5 48 12 4 36
-13 59 -36 49 -22 -8 -29 193 -12 320 6 39 -1 45 -33 25 -15 -10 -27 -10 -51
-1 -17 7 -36 10 -43 7 -6 -2 -12 3 -12 13 0 16 8 18 72 15 55 -3 74 -1 85 12
17 19 26 20 32 4z m-155 -108 c12 0 22 -6 22 -14 0 -17 -103 -30 -130 -16 -10
5 -26 7 -34 4 -11 -4 -16 -1 -16 11 0 11 6 15 18 11 9 -3 24 -1 32 5 8 5 31 7
50 4 19 -2 45 -5 58 -5z m0 -90 c12 0 22 -6 22 -14 0 -17 -103 -30 -130 -16
-10 5 -26 7 -34 4 -11 -4 -16 -1 -16 11 0 11 6 15 18 11 9 -3 24 -1 32 5 8 5
31 7 50 4 19 -2 45 -5 58 -5z m0 -80 c12 0 22 -6 22 -14 0 -17 -103 -30 -130
-16 -10 5 -26 7 -34 4 -11 -4 -16 -1 -16 11 0 11 6 15 18 11 9 -3 24 -1 32 5
8 5 31 7 50 4 19 -2 45 -5 58 -5z m0 -90 c12 0 22 -6 22 -14 0 -17 -103 -30
-130 -16 -10 5 -26 7 -34 4 -11 -4 -16 -1 -16 11 0 11 6 15 18 11 9 -3 24 -1
32 5 8 5 31 7 50 4 19 -2 45 -5 58 -5z"/>
</g>
</svg>
