<?xml version="1.0" standalone="no"?>
<!DOCTYPE svg PUBLIC "-//W3C//DTD SVG 20010904//EN"
 "http://www.w3.org/TR/2001/REC-SVG-20010904/DTD/svg10.dtd">
<svg version="1.0" xmlns="http://www.w3.org/2000/svg"
 width="101.000000pt" height="101.000000pt" viewBox="0 0 101.000000 101.000000"
 preserveAspectRatio="xMidYMid meet">
<metadata>
Created by potrace 1.16, written by Peter Selinger 2001-2019
</metadata>
<g transform="translate(0.000000,101.000000) scale(0.100000,-0.100000)"
fill="#000000" stroke="none">
<path d="M268 993 c-14 -4 -16 -20 -13 -141 2 -75 7 -153 10 -173 4 -20 1 -63
-6 -95 -7 -33 -13 -75 -15 -94 -7 -100 -38 -165 -119 -249 -36 -37 -65 -70
-65 -74 0 -3 13 -8 29 -12 16 -3 35 -13 42 -21 20 -24 34 -16 81 44 76 96 119
197 124 292 2 25 5 59 8 75 2 17 8 56 12 88 7 60 15 67 20 20 2 -16 6 -44 10
-63 5 -31 9 -67 13 -108 1 -10 13 -12 46 -9 39 4 45 2 45 -13 0 -11 4 -22 10
-25 12 -7 12 -153 0 -160 -5 -3 -8 -34 -8 -69 1 -72 6 -76 70 -68 l36 4 0 79
c0 44 -4 82 -9 85 -12 7 -11 51 1 59 12 7 12 153 0 160 -12 7 -11 153 0 160 6
4 9 54 9 119 -1 61 1 121 5 133 7 22 5 24 -56 37 -52 12 -55 5 -57 -129 -1
-75 3 -126 9 -130 13 -8 13 -48 -1 -62 -6 -6 -10 -33 -8 -62 2 -28 1 -51 -3
-51 -5 0 -8 6 -9 13 -3 49 -19 120 -30 133 -6 7 -9 18 -8 26 5 42 0 48 -41 45
l-40 -3 -1 40 c-3 85 -1 132 6 162 6 29 5 32 -25 38 -34 6 -45 6 -72 -1z"/>
<path d="M762 953 c-1 -18 3 -35 8 -38 12 -8 12 -173 -1 -180 -12 -8 -12 -142
1 -150 15 -9 12 -47 -5 -69 -11 -15 -15 -16 -16 -5 0 14 -5 45 -13 89 -3 14
-13 55 -22 92 -16 62 -20 67 -43 66 -52 -2 -61 -8 -56 -36 3 -15 8 -45 11 -67
3 -21 8 -43 11 -48 3 -6 8 -28 10 -51 3 -22 6 -50 8 -61 2 -11 4 -24 4 -29 1
-12 84 3 93 17 8 12 11 -30 8 -119 -1 -30 4 -55 10 -59 8 -5 10 -34 5 -100 -8
-103 -5 -107 63 -97 39 5 45 22 37 117 -4 39 -6 108 -6 155 1 47 1 140 1 208
1 67 1 139 1 160 0 20 1 82 2 136 l2 100 -56 0 -56 1 -1 -32z"/>
<path d="M125 769 c-4 -11 -4 -23 -1 -26 3 -4 1 -12 -5 -20 -7 -8 -9 -29 -5
-52 3 -22 2 -42 -3 -46 -6 -3 -10 -22 -10 -43 0 -20 -6 -58 -14 -83 l-14 -46
33 -11 c67 -20 82 0 98 133 2 17 6 41 9 55 4 14 8 51 11 83 4 64 -6 77 -63 77
-21 0 -32 -6 -36 -21z"/>
</g>
</svg>
