<?xml version="1.0" standalone="no"?>
<!DOCTYPE svg PUBLIC "-//W3C//DTD SVG 20010904//EN"
 "http://www.w3.org/TR/2001/REC-SVG-20010904/DTD/svg10.dtd">
<svg version="1.0" xmlns="http://www.w3.org/2000/svg"
 width="101.000000pt" height="101.000000pt" viewBox="0 0 101.000000 101.000000"
 preserveAspectRatio="xMidYMid meet">
<metadata>
Created by potrace 1.16, written by Peter Selinger 2001-2019
</metadata>
<g transform="translate(0.000000,101.000000) scale(0.100000,-0.100000)"
fill="#000000" stroke="none">
<path d="M407 941 c-3 -14 -17 -20 -58 -24 -87 -9 -177 -8 -183 2 -10 16 -95
11 -112 -6 -18 -18 -12 -71 9 -85 6 -5 37 -7 67 -5 l55 3 2 -126 c5 -286 4
-297 -10 -297 -11 -1 -55 -9 -97 -18 -8 -2 -21 -4 -27 -4 -9 -1 -10 -8 -3 -26
5 -14 9 -29 8 -33 -1 -4 1 -17 6 -29 7 -22 9 -22 42 -8 39 16 170 54 211 60
15 3 49 10 76 17 49 12 54 21 48 82 -2 28 -3 28 -52 11 -59 -21 -102 -26 -111
-11 -11 16 -10 74 2 81 12 7 11 113 -1 121 -13 7 -11 48 2 61 6 6 10 33 8 61
l-4 50 53 4 c34 3 57 11 65 22 9 12 29 18 69 19 l56 2 -4 -30 c-5 -34 -11 -68
-15 -75 -1 -3 -3 -9 -4 -15 -1 -5 -5 -18 -10 -28 -4 -10 -5 -20 -2 -23 3 -4 1
-18 -5 -33 -5 -14 -11 -33 -13 -41 -2 -8 -6 -27 -10 -42 -5 -21 -3 -27 15 -33
27 -8 120 4 120 16 0 5 16 9 35 9 20 0 35 -5 35 -11 0 -8 17 -10 56 -6 l56 6
-8 -27 c-4 -15 -8 -38 -10 -52 -5 -38 -13 -92 -19 -120 -3 -14 -8 -38 -11 -55
-6 -35 -31 -65 -54 -65 -9 0 -21 -5 -28 -12 -8 -8 -18 -9 -36 0 -13 6 -33 8
-44 5 -20 -5 -20 -5 -1 -46 10 -23 19 -50 19 -59 0 -13 7 -15 33 -12 66 8 86
12 130 32 62 28 82 68 102 212 3 25 8 59 11 75 28 172 30 205 12 216 -15 10
-62 12 -71 3 -3 -3 -55 -7 -115 -7 l-109 -2 3 38 c2 21 7 43 10 49 4 6 9 23
11 37 2 14 6 37 9 51 3 14 6 30 6 35 1 6 62 10 160 10 174 0 177 1 163 64 -6
28 -7 28 -85 30 -51 1 -80 -2 -80 -8 0 -7 -31 -11 -80 -11 -47 0 -80 4 -80 10
0 6 -18 10 -40 10 -22 0 -40 -4 -40 -10 0 -5 -25 -10 -55 -10 -30 0 -55 5 -55
10 0 17 -17 11 -23 -9z"/>
</g>
</svg>
