<?xml version="1.0" standalone="no"?>
<!DOCTYPE svg PUBLIC "-//W3C//DTD SVG 20010904//EN"
 "http://www.w3.org/TR/2001/REC-SVG-20010904/DTD/svg10.dtd">
<svg version="1.0" xmlns="http://www.w3.org/2000/svg"
 width="101.000000pt" height="101.000000pt" viewBox="0 0 101.000000 101.000000"
 preserveAspectRatio="xMidYMid meet">
<metadata>
Created by potrace 1.16, written by Peter Selinger 2001-2019
</metadata>
<g transform="translate(0.000000,101.000000) scale(0.100000,-0.100000)"
fill="#000000" stroke="none">
<path d="M125 871 c-3 -16 -3 -40 0 -53 6 -23 11 -25 63 -26 31 0 62 4 69 10
8 6 45 7 98 3 l85 -7 0 -44 c0 -24 5 -44 10 -44 6 0 10 -16 10 -35 0 -19 -4
-35 -10 -35 -6 0 -10 -30 -10 -70 0 -40 4 -70 10 -70 6 0 10 -11 10 -25 0 -14
-5 -25 -11 -25 -9 0 -10 -22 -5 -78 l6 -78 -195 2 -194 2 -7 -33 c-10 -53 9
-75 61 -75 25 0 45 5 45 10 0 6 11 10 25 10 14 0 25 -4 25 -10 0 -6 30 -10 70
-10 40 0 70 4 70 10 0 6 11 10 25 10 14 0 25 -4 25 -10 0 -5 23 -10 50 -10 28
0 50 5 50 10 0 14 147 13 152 -1 3 -8 45 -9 146 -4 139 7 142 8 148 31 10 37
-4 77 -23 70 -36 -14 -133 -19 -146 -7 -10 7 -52 10 -122 9 l-107 -3 7 101 c5
70 3 104 -4 108 -14 9 -14 53 -1 61 7 4 10 49 8 119 -3 104 -2 112 15 108 9
-2 24 1 32 8 10 9 48 10 139 6 119 -6 125 -5 131 14 4 11 4 33 0 48 -6 27 -7
28 -85 30 -49 1 -80 -2 -80 -8 0 -5 -11 -10 -25 -10 -14 0 -25 5 -25 10 0 6
-30 10 -70 10 -40 0 -70 -4 -70 -10 0 -6 -33 -10 -80 -10 -47 0 -80 4 -80 10
0 6 -18 10 -40 10 -22 0 -40 -4 -40 -10 0 -5 -25 -10 -55 -10 -30 0 -55 5 -55
10 0 6 -9 10 -19 10 -13 0 -21 -9 -26 -29z"/>
</g>
</svg>
