<?xml version="1.0" standalone="no"?>
<!DOCTYPE svg PUBLIC "-//W3C//DTD SVG 20010904//EN"
 "http://www.w3.org/TR/2001/REC-SVG-20010904/DTD/svg10.dtd">
<svg version="1.0" xmlns="http://www.w3.org/2000/svg"
 width="101.000000pt" height="101.000000pt" viewBox="0 0 101.000000 101.000000"
 preserveAspectRatio="xMidYMid meet">
<metadata>
Created by potrace 1.16, written by Peter Selinger 2001-2019
</metadata>
<g transform="translate(0.000000,101.000000) scale(0.100000,-0.100000)"
fill="#000000" stroke="none">
<path d="M438 953 c-15 -4 -18 -16 -18 -69 0 -36 4 -64 10 -64 6 0 10 -16 10
-35 0 -19 -5 -35 -11 -35 -7 0 -10 -33 -9 -97 3 -209 -23 -309 -103 -391 -23
-24 -61 -55 -85 -69 -39 -23 -48 -43 -19 -43 7 0 30 -12 51 -27 l40 -26 63 66
c65 70 102 131 124 207 24 89 26 107 31 330 l3 165 95 0 95 0 -2 -88 c0 -49
-4 -91 -7 -94 -11 -11 -7 -293 4 -293 6 0 10 -20 10 -45 0 -27 -5 -45 -11 -45
-18 0 -5 -128 15 -148 49 -49 176 -43 221 10 27 32 45 100 27 106 -6 2 -27 14
-47 28 l-36 24 -10 -26 c-5 -15 -7 -29 -5 -32 13 -12 -15 -38 -41 -37 l-28 0
4 195 c3 107 4 264 4 348 0 83 3 152 8 152 5 0 9 6 9 14 0 15 -80 26 -150 19
-66 -6 -160 -6 -195 0 -16 3 -38 3 -47 0z"/>
<path d="M44 885 c-7 -41 11 -79 34 -70 9 4 31 8 47 8 l30 2 2 -125 c4 -247 3
-280 -5 -281 -50 -6 -116 -19 -120 -24 -2 -1 2 -23 8 -46 19 -74 16 -71 48
-55 16 8 87 31 158 52 71 20 131 38 133 40 4 4 13 104 9 104 -2 0 -27 -9 -56
-20 -29 -11 -56 -20 -61 -20 -5 0 -7 33 -5 74 3 46 1 77 -6 81 -13 8 -13 52 1
60 6 4 9 37 7 83 l-3 77 42 -1 c23 -1 46 -4 50 -7 16 -10 31 8 37 43 10 56 3
60 -97 47 -63 -7 -94 -7 -110 1 -12 6 -48 10 -79 10 -57 0 -58 0 -64 -33z"/>
<path d="M566 728 c-17 -9 -22 -38 -8 -38 8 0 10 -27 11 -158 0 -83 6 -87 87
-68 26 7 31 13 32 39 0 17 -2 35 -5 41 -4 5 -8 19 -9 30 -1 12 -5 37 -9 56 -4
19 -7 42 -7 50 0 8 -4 25 -10 37 -11 23 -51 28 -82 11z"/>
</g>
</svg>
