<?xml version="1.0" standalone="no"?>
<!DOCTYPE svg PUBLIC "-//W3C//DTD SVG 20010904//EN"
 "http://www.w3.org/TR/2001/REC-SVG-20010904/DTD/svg10.dtd">
<svg version="1.0" xmlns="http://www.w3.org/2000/svg"
 width="101.000000pt" height="101.000000pt" viewBox="0 0 101.000000 101.000000"
 preserveAspectRatio="xMidYMid meet">
<metadata>
Created by potrace 1.16, written by Peter Selinger 2001-2019
</metadata>
<g transform="translate(0.000000,101.000000) scale(0.100000,-0.100000)"
fill="#000000" stroke="none">
<path d="M426 996 c3 -9 2 -22 -3 -29 -6 -6 -18 -32 -27 -57 l-17 -45 -54 3
c-35 3 -55 0 -55 -7 0 -6 -16 -11 -35 -11 -19 0 -35 5 -35 10 0 6 -28 10 -64
10 -73 0 -80 -7 -70 -70 l6 -38 129 2 c89 2 126 -1 122 -8 -64 -111 -163 -222
-245 -275 l-62 -40 30 -11 c16 -6 39 -21 52 -33 l22 -21 63 62 62 61 0 -164
c0 -155 1 -164 20 -169 35 -10 63 -6 79 10 16 16 22 75 9 88 -5 4 -8 68 -8
142 l0 134 72 0 c39 0 74 -4 77 -9 3 -4 6 -106 6 -225 l1 -216 25 -6 c13 -3
35 -4 48 0 23 6 23 9 29 153 4 82 5 178 4 216 l-2 67 67 0 c36 0 72 2 80 5 10
4 14 -19 16 -109 2 -74 -1 -117 -8 -121 -6 -4 -29 -8 -51 -9 -22 -2 -42 -5
-44 -8 -3 -2 4 -26 14 -54 20 -50 30 -55 81 -42 103 28 103 28 95 190 -6 100
-4 138 4 138 7 0 11 19 11 49 0 57 -16 69 -60 46 -34 -17 -76 -20 -85 -5 -4 6
-32 9 -66 8 l-59 -3 5 53 c2 30 7 57 10 60 3 3 -13 12 -35 19 -31 11 -45 11
-61 2 -20 -10 -21 -17 -16 -74 l6 -62 -89 1 c-50 0 -90 3 -90 5 0 3 6 12 14
20 8 9 30 43 49 75 l36 59 110 -2 c63 0 112 3 116 9 7 12 153 12 160 0 3 -4
27 -8 55 -8 63 -1 84 17 76 66 -6 39 -23 55 -46 46 -8 -4 -40 -6 -72 -5 -31 1
-59 -3 -63 -9 -8 -13 -52 -13 -60 0 -4 7 -49 10 -120 8 l-114 -3 35 64 c19 35
33 65 31 68 -3 2 -30 7 -61 10 -50 5 -56 4 -50 -11z"/>
</g>
</svg>
