<?xml version="1.0" standalone="no"?>
<!DOCTYPE svg PUBLIC "-//W3C//DTD SVG 20010904//EN"
 "http://www.w3.org/TR/2001/REC-SVG-20010904/DTD/svg10.dtd">
<svg version="1.0" xmlns="http://www.w3.org/2000/svg"
 width="101.000000pt" height="101.000000pt" viewBox="0 0 101.000000 101.000000"
 preserveAspectRatio="xMidYMid meet">
<metadata>
Created by potrace 1.16, written by Peter Selinger 2001-2019
</metadata>
<g transform="translate(0.000000,101.000000) scale(0.100000,-0.100000)"
fill="#000000" stroke="none">
<path d="M280 1004 c-12 -4 -14 -18 -12 -64 3 -39 0 -60 -7 -60 -6 0 -11 -18
-11 -40 0 -22 5 -40 10 -40 6 0 10 -33 10 -80 0 -51 -4 -80 -11 -80 -7 0 -10
-33 -9 -97 0 -54 -1 -117 -4 -140 -10 -87 -78 -172 -173 -216 l-51 -23 50 -38
c57 -42 59 -41 138 30 74 67 141 206 139 286 0 18 2 68 5 110 4 49 3 79 -4 83
-13 8 -13 52 0 60 6 4 11 43 10 88 0 101 6 172 14 186 4 5 -7 17 -23 26 -30
15 -42 16 -71 9z"/>
<path d="M427 962 c-21 -4 -29 -28 -21 -69 l6 -34 97 5 96 4 2 -61 2 -62 -87
6 c-48 3 -92 3 -99 1 -9 -3 -12 -60 -11 -221 0 -119 -2 -225 -5 -236 -12 -38
9 -50 76 -47 l27 2 0 78 c0 237 5 332 18 327 8 -3 27 -5 43 -5 29 0 29 -1 29
-55 0 -30 5 -55 10 -55 6 0 10 -16 10 -35 0 -19 -4 -35 -10 -35 -14 0 -12 -78
2 -82 9 -3 9 -21 -1 -79 -7 -41 -12 -83 -11 -94 1 -11 2 -39 2 -62 1 -46 12
-53 67 -45 l33 5 -6 54 c-3 30 -2 62 4 72 7 14 5 32 -7 65 -15 39 -15 50 -4
67 9 15 10 24 2 32 -14 14 -14 74 -1 82 6 4 9 41 8 91 -2 67 0 83 10 79 8 -3
31 -5 53 -5 38 0 39 -1 39 -35 0 -19 5 -35 10 -35 15 0 12 -67 -2 -73 -10 -4
-10 -7 0 -15 9 -6 11 -23 6 -59 -9 -68 -16 -76 -64 -79 -23 -1 -43 -4 -46 -6
-2 -2 5 -22 16 -43 11 -22 20 -46 20 -53 0 -18 66 -10 111 14 51 26 59 64 59
280 l0 194 -24 12 c-14 6 -33 7 -43 4 -10 -4 -47 -8 -83 -9 l-65 -2 0 58 0 57
43 0 c23 0 42 5 42 10 0 6 11 10 25 10 14 0 25 -4 25 -9 0 -5 25 -8 55 -7 49
1 57 4 62 24 14 55 -23 95 -67 72 -13 -7 -58 -9 -135 -4 -84 5 -115 4 -115 -5
0 -6 -15 -11 -35 -11 -19 0 -35 4 -35 9 0 9 -103 19 -133 13z"/>
<path d="M100 903 c-8 -3 -18 -11 -22 -17 -11 -16 -9 -214 2 -221 13 -8 11
-153 -2 -161 -5 -3 -7 -22 -3 -43 3 -20 1 -49 -4 -64 -19 -50 2 -67 72 -59
l37 4 -1 142 c-1 180 6 366 16 388 11 27 -52 47 -95 31z"/>
</g>
</svg>
