<?xml version="1.0" standalone="no"?>
<!DOCTYPE svg PUBLIC "-//W3C//DTD SVG 20010904//EN"
 "http://www.w3.org/TR/2001/REC-SVG-20010904/DTD/svg10.dtd">
<svg version="1.0" xmlns="http://www.w3.org/2000/svg"
 width="101.000000pt" height="102.000000pt" viewBox="0 0 101.000000 102.000000"
 preserveAspectRatio="xMidYMid meet">
<metadata>
Created by potrace 1.16, written by Peter Selinger 2001-2019
</metadata>
<g transform="translate(0.000000,102.000000) scale(0.100000,-0.100000)"
fill="#000000" stroke="none">
<path d="M217 1000 c3 -11 2 -53 -1 -93 l-7 -72 -75 2 -74 2 0 -170 c0 -119 3
-169 11 -169 11 0 7 -115 -7 -196 -6 -35 9 -44 62 -37 l29 5 0 236 0 237 25 0
25 0 2 -120 c2 -127 3 -184 3 -265 0 -27 0 -70 1 -95 0 -53 0 -75 0 -137 1
-50 13 -60 62 -51 19 4 26 13 30 36 2 18 1 41 -3 52 -4 11 -11 43 -14 70 -6
39 -3 54 9 70 12 14 15 15 12 4 -11 -35 7 -42 66 -25 63 18 63 19 73 124 5 58
10 72 21 68 8 -3 23 -1 33 4 10 6 45 7 79 4 59 -7 61 -7 55 -33 -23 -105 -111
-209 -217 -256 -64 -29 -83 -45 -52 -45 8 0 30 -14 49 -31 35 -30 35 -30 68
-13 51 26 162 145 189 202 13 28 27 51 30 52 3 0 12 -19 20 -42 18 -56 77
-144 131 -196 l44 -42 42 39 41 40 -48 35 c-27 20 -61 52 -75 71 -29 38 -81
144 -91 186 -8 31 -7 31 111 29 70 -1 72 0 77 26 2 14 2 35 0 45 -5 16 -11 18
-47 12 -37 -7 -56 -7 -132 -2 -18 1 -23 10 -28 50 -4 28 -2 57 4 68 5 11 7 26
4 34 -5 14 2 15 96 5 8 0 29 0 46 0 29 2 31 4 30 45 -1 49 -10 59 -45 45 -14
-5 -47 -6 -72 -3 l-47 7 -4 61 c-3 39 0 73 9 91 17 38 7 48 -58 52 l-52 4 7
-109 6 -109 -38 1 -38 2 18 50 c23 63 23 61 -9 71 -45 13 -83 13 -85 1 0 -7
-3 -23 -5 -37 -2 -14 -6 -41 -8 -60 -2 -19 -4 -35 -6 -35 -1 0 -3 -9 -4 -21
-3 -28 -36 -126 -41 -121 -2 2 -5 42 -5 90 l-2 86 -54 7 c-29 3 -64 4 -76 2
-23 -4 -24 -3 -20 51 4 68 6 82 17 100 12 19 -11 31 -61 31 -36 0 -41 -2 -36
-20z m135 -337 c-1 -48 2 -84 8 -88 13 -8 13 -68 -1 -82 -8 -8 -7 -16 2 -31
28 -45 -18 -109 -60 -83 -17 11 -28 101 -12 101 6 0 11 17 11 40 0 22 -4 40
-10 40 -5 0 -10 16 -10 35 0 19 5 35 10 35 6 0 10 26 10 58 0 56 1 57 28 57
l27 0 -3 -82z m311 35 c-3 -18 -5 -40 -4 -48 1 -8 2 -31 4 -50 l2 -35 -55 -7
c-30 -4 -66 -5 -80 -1 -73 19 -86 12 -82 -42 2 -16 0 -17 -8 -5 -12 18 -13 90
-1 108 6 11 16 11 47 3 22 -6 42 -11 46 -11 4 0 15 25 23 54 16 54 17 55 58
59 23 2 45 4 48 5 4 1 4 -13 2 -30z"/>
</g>
</svg>
