<?xml version="1.0" standalone="no"?>
<!DOCTYPE svg PUBLIC "-//W3C//DTD SVG 20010904//EN"
 "http://www.w3.org/TR/2001/REC-SVG-20010904/DTD/svg10.dtd">
<svg version="1.0" xmlns="http://www.w3.org/2000/svg"
 width="101.000000pt" height="101.000000pt" viewBox="0 0 101.000000 101.000000"
 preserveAspectRatio="xMidYMid meet">
<metadata>
Created by potrace 1.16, written by Peter Selinger 2001-2019
</metadata>
<g transform="translate(0.000000,101.000000) scale(0.100000,-0.100000)"
fill="#000000" stroke="none">
<path d="M205 919 l4 -92 -54 7 c-29 3 -65 2 -79 -4 -23 -8 -26 -15 -26 -55 0
-25 5 -45 10 -45 6 0 10 -11 10 -25 0 -14 -4 -25 -10 -25 -6 0 -10 -30 -10
-70 0 -40 4 -70 10 -70 6 0 10 -11 10 -25 0 -14 -4 -25 -10 -25 -5 0 -10 -22
-10 -50 0 -27 5 -50 10 -50 13 0 13 -67 0 -75 -16 -10 -11 -32 8 -37 10 -3 31
-3 48 -1 l29 5 3 129 c1 82 -2 129 -8 129 -6 0 -10 31 -10 75 0 43 4 75 10 75
6 0 10 11 10 25 0 20 5 25 24 25 13 0 31 3 40 6 14 5 16 -5 16 -70 0 -44 -4
-76 -10 -76 -6 0 -10 -30 -10 -70 0 -40 4 -70 10 -70 6 0 10 -20 10 -45 0 -27
-5 -45 -11 -45 -8 0 -10 -20 -7 -62 3 -35 1 -73 -3 -85 -5 -12 -3 -34 4 -52 9
-24 9 -36 0 -50 -14 -23 3 -30 57 -23 l35 4 4 134 c2 93 0 134 -8 134 -6 0
-11 19 -11 45 0 25 5 45 10 45 6 0 10 54 10 143 l0 142 33 0 32 0 2 -85 c8
-252 7 -265 -28 -267 -30 -3 -31 -5 -11 -52 16 -39 19 -42 46 -36 17 3 40 12
52 20 20 13 22 20 17 70 -4 33 -1 60 5 68 13 15 14 115 1 123 -12 7 -11 51 1
59 6 4 9 44 8 95 l-1 89 -64 7 c-35 3 -71 4 -81 2 -15 -4 -17 2 -15 46 1 28 5
66 7 84 3 17 5 32 3 33 -1 0 -28 3 -59 5 l-58 5 5 -92z"/>
<path d="M630 948 c0 -32 4 -58 10 -58 6 0 10 -16 10 -35 0 -19 -5 -35 -11
-35 -9 0 -10 -34 -5 -122 l7 -123 -70 2 -70 2 -6 -32 c-8 -42 1 -426 9 -435 7
-6 85 -6 92 1 3 2 5 24 6 49 2 38 6 46 23 47 11 0 47 3 80 6 33 3 74 3 91 0
30 -5 32 -7 30 -50 -1 -49 0 -50 64 -45 45 3 51 14 34 62 -15 42 -18 194 -4
203 4 3 9 31 9 62 1 32 3 74 4 93 l2 34 -104 1 -103 0 7 80 c4 44 8 81 10 83
6 7 161 5 176 -2 26 -12 52 21 45 57 -3 17 -7 32 -9 33 -1 2 -53 4 -114 6
l-111 3 4 73 c2 39 5 77 7 84 1 7 -18 11 -55 12 l-58 1 0 -57z m197 -506 c2
-31 4 -78 5 -104 2 -25 -1 -50 -5 -55 -5 -4 -50 -7 -100 -6 -148 3 -134 -4
-142 71 -5 45 -4 67 4 70 6 2 11 19 11 37 0 38 -1 38 150 42 l75 2 2 -57z"/>
</g>
</svg>
