<?xml version="1.0" standalone="no"?>
<!DOCTYPE svg PUBLIC "-//W3C//DTD SVG 20010904//EN"
 "http://www.w3.org/TR/2001/REC-SVG-20010904/DTD/svg10.dtd">
<svg version="1.0" xmlns="http://www.w3.org/2000/svg"
 width="101.000000pt" height="101.000000pt" viewBox="0 0 101.000000 101.000000"
 preserveAspectRatio="xMidYMid meet">
<metadata>
Created by potrace 1.16, written by Peter Selinger 2001-2019
</metadata>
<g transform="translate(0.000000,101.000000) scale(0.100000,-0.100000)"
fill="#000000" stroke="none">
<path d="M166 958 c-9 -35 -7 -45 10 -63 13 -12 26 -15 58 -9 22 3 69 6 103 6
35 0 65 4 68 9 8 11 173 10 180 -2 4 -5 32 -9 64 -9 53 0 59 -2 63 -22 4 -23
3 -23 -126 -25 -184 -2 -200 -2 -299 1 -84 3 -87 3 -93 -20 -3 -12 -3 -31 0
-41 6 -18 19 -19 167 -21 98 -1 169 3 181 9 13 7 49 8 97 4 75 -7 77 -7 75
-33 0 -24 -5 -27 -37 -30 -21 -2 -37 1 -37 7 0 6 -21 11 -50 11 -27 0 -50 -4
-50 -10 0 -5 -11 -10 -25 -10 -14 0 -25 5 -25 10 0 6 -30 10 -70 10 -40 0 -70
-4 -70 -10 0 -5 -11 -10 -25 -10 -14 0 -25 5 -25 10 0 6 -28 10 -64 10 -49 0
-65 -4 -70 -16 -17 -45 10 -91 48 -79 12 4 80 8 151 10 174 5 191 6 328 2
l117 -3 1 31 c1 16 3 77 5 135 3 58 2 119 -1 135 l-5 30 -135 3 c-87 1 -135
-1 -135 -8 0 -6 -32 -10 -80 -10 -47 0 -80 4 -80 10 0 6 -18 10 -40 10 -22 0
-40 -4 -40 -10 0 -5 -25 -10 -55 -10 -30 0 -55 5 -55 10 0 19 -18 10 -24 -12z"/>
<path d="M54 583 c-4 -13 -3 -53 1 -88 6 -58 9 -66 31 -71 32 -8 70 2 77 21 4
8 1 28 -5 45 -5 17 -8 34 -5 37 3 3 68 2 145 -2 l138 -7 0 -32 -1 -31 -103 2
c-133 3 -152 -4 -152 -57 0 -22 5 -40 10 -40 15 0 12 -67 -2 -73 -10 -4 -10
-7 0 -15 9 -6 11 -23 6 -59 -7 -56 2 -64 63 -56 39 6 47 32 26 86 -13 31 -14
46 -5 69 6 16 8 37 5 45 -5 13 -2 15 11 10 10 -4 26 -2 37 4 11 6 39 7 63 4
49 -8 45 3 49 -140 1 -49 -2 -100 -6 -111 -9 -26 9 -33 66 -26 36 4 38 6 31
31 -5 14 -8 64 -7 111 3 132 3 132 20 126 8 -3 23 -1 33 4 29 15 133 1 126
-17 -3 -8 -1 -24 5 -35 8 -15 8 -27 -2 -44 -11 -22 -18 -24 -61 -20 -27 3 -48
2 -46 -2 2 -4 11 -28 22 -55 20 -51 25 -53 91 -36 62 16 80 39 81 108 1 31 5
68 9 83 4 15 4 44 0 64 l-6 36 -75 -7 c-51 -5 -74 -3 -74 4 0 7 -22 11 -55 11
-51 0 -55 2 -55 23 0 23 3 24 107 30 58 4 126 7 150 7 47 0 47 0 26 -56 -13
-36 80 -60 111 -28 18 17 21 51 7 73 -5 8 -5 27 0 43 14 50 8 53 -104 51 -56
-2 -128 -3 -159 -3 -70 0 -188 0 -305 0 -49 -1 -139 1 -201 3 -111 3 -113 3
-118 -20z"/>
</g>
</svg>
