<?xml version="1.0" standalone="no"?>
<!DOCTYPE svg PUBLIC "-//W3C//DTD SVG 20010904//EN"
 "http://www.w3.org/TR/2001/REC-SVG-20010904/DTD/svg10.dtd">
<svg version="1.0" xmlns="http://www.w3.org/2000/svg"
 width="101.000000pt" height="102.000000pt" viewBox="0 0 101.000000 102.000000"
 preserveAspectRatio="xMidYMid meet">
<metadata>
Created by potrace 1.16, written by Peter Selinger 2001-2019
</metadata>
<g transform="translate(0.000000,102.000000) scale(0.100000,-0.100000)"
fill="#000000" stroke="none">
<path d="M612 955 c0 -36 4 -67 9 -71 10 -6 12 -52 3 -104 -6 -35 -6 -35 -57
-34 -29 1 -56 3 -62 4 -30 7 -35 -2 -35 -60 0 -33 4 -60 10 -60 15 0 12 -67
-2 -73 -10 -4 -10 -8 1 -15 11 -8 13 -30 8 -103 -3 -52 -9 -104 -12 -115 -8
-25 13 -34 64 -26 31 4 33 6 26 36 -11 53 -15 208 -6 220 5 6 8 34 8 62 l-2
51 41 -5 c23 -2 51 1 64 8 14 8 42 9 80 5 68 -8 62 11 61 -206 0 -174 -1 -171
67 -161 24 3 31 9 28 21 -15 51 -17 92 -6 107 10 11 10 18 2 26 -14 14 -16 74
-2 83 5 3 9 51 8 106 -1 96 -1 99 -24 105 -13 3 -36 2 -51 -2 -16 -5 -47 -8
-70 -6 -41 3 -43 4 -43 36 l0 33 83 7 c49 4 94 3 110 -3 20 -8 30 -7 42 5 33
33 5 102 -36 89 -11 -4 -61 -7 -112 -8 l-92 -2 2 35 c0 19 4 42 8 51 6 17 -28
29 -85 29 -27 0 -27 -1 -28 -65z"/>
<path d="M202 970 c0 -19 4 -40 10 -47 5 -6 8 -31 6 -54 l-3 -42 -60 1 c-97 2
-92 9 -87 -126 6 -182 5 -327 -2 -386 -7 -60 1 -67 61 -59 l30 5 -1 239 -1
239 23 0 c22 0 22 -1 22 -140 0 -87 4 -140 10 -140 6 0 10 -20 10 -45 0 -26
-5 -45 -11 -45 -8 0 -9 -29 -4 -97 4 -62 3 -108 -4 -125 -18 -48 6 -72 62 -61
24 5 24 6 21 92 -3 66 0 92 11 107 12 16 14 16 15 3 0 -31 91 -4 111 32 16 32
25 194 10 203 -14 9 -15 152 -1 161 11 7 11 107 -1 126 -6 10 -29 14 -74 14
l-66 0 6 70 c3 39 8 79 10 90 4 18 -1 20 -49 20 l-54 0 0 -35z m138 -395 c0
-102 -1 -188 -2 -192 -2 -4 -13 -8 -24 -9 -20 -2 -22 4 -28 91 -5 65 -4 101 5
116 7 14 10 51 7 101 -5 76 -4 78 19 78 l23 0 0 -185z"/>
<path d="M636 607 c-3 -11 -1 -27 3 -36 11 -21 11 -119 0 -149 -5 -13 -11 -37
-14 -55 -14 -76 -80 -136 -197 -179 -32 -11 -58 -23 -57 -27 0 -3 21 -21 46
-39 l45 -33 55 33 c149 89 203 175 209 333 3 64 8 107 19 143 6 18 3 22 -16
23 -13 1 -38 2 -56 4 -24 2 -32 -2 -37 -18z"/>
<path d="M716 301 l-27 -29 33 -23 c18 -13 63 -52 101 -88 l67 -65 35 34 c38
37 42 47 21 64 -88 70 -180 136 -190 136 -7 0 -25 -13 -40 -29z"/>
</g>
</svg>
