<?xml version="1.0" standalone="no"?>
<!DOCTYPE svg PUBLIC "-//W3C//DTD SVG 20010904//EN"
 "http://www.w3.org/TR/2001/REC-SVG-20010904/DTD/svg10.dtd">
<svg version="1.0" xmlns="http://www.w3.org/2000/svg"
 width="101.000000pt" height="101.000000pt" viewBox="0 0 101.000000 101.000000"
 preserveAspectRatio="xMidYMid meet">
<metadata>
Created by potrace 1.16, written by Peter Selinger 2001-2019
</metadata>
<g transform="translate(0.000000,101.000000) scale(0.100000,-0.100000)"
fill="#000000" stroke="none">
<path d="M243 953 l2 -58 -79 2 c-43 2 -87 -2 -97 -8 -20 -10 -25 -44 -11 -67
12 -19 69 -25 133 -15 l55 9 -2 -47 c-3 -51 8 -62 60 -52 30 6 42 37 32 79 -6
22 -4 25 9 20 9 -3 34 -6 56 -6 37 0 39 -1 39 -32 0 -54 13 -64 82 -60 25 2
27 5 25 47 -2 44 -1 45 29 45 17 0 45 3 61 6 l29 6 -3 -51 c-3 -55 -1 -57 57
-52 30 3 40 16 40 57 0 31 2 32 45 36 25 2 56 0 68 -5 12 -4 31 -6 42 -3 17 4
21 13 20 45 l0 39 -55 6 c-30 3 -71 4 -92 3 -20 -1 -34 2 -31 7 3 4 9 24 13
42 10 45 -5 59 -65 63 l-47 2 4 -60 3 -60 -61 2 c-68 2 -64 -3 -49 75 4 23 2
32 -7 33 -7 1 -32 2 -55 3 l-42 1 2 -55 2 -55 -60 0 -60 0 1 32 c1 17 5 36 8
41 15 25 -7 42 -55 42 l-48 0 2 -57z"/>
<path d="M89 693 c-21 -5 -31 -41 -18 -65 5 -10 7 -40 3 -68 -7 -55 -6 -56 61
-51 29 3 48 18 40 31 -2 4 -7 20 -10 37 -4 27 -2 31 18 32 12 0 62 3 112 6
102 7 143 -4 143 -38 0 -12 4 -34 7 -50 10 -39 -10 -61 -49 -52 -26 5 -80 10
-194 16 -29 1 -35 -4 -32 -33 1 -13 2 -82 2 -155 1 -144 1 -145 64 -136 l30 5
1 96 c2 140 3 144 20 138 8 -3 23 -1 34 4 11 6 40 8 68 4 57 -7 53 7 53 -186
0 -151 0 -150 66 -140 32 4 32 5 25 41 -5 20 -7 81 -6 136 3 146 3 143 27 144
11 1 44 3 71 5 75 7 103 -1 103 -27 0 -12 3 -33 7 -47 3 -14 2 -37 -4 -52 -9
-25 -15 -27 -55 -26 -25 1 -47 0 -50 -2 -2 -3 3 -28 12 -57 17 -50 18 -52 52
-49 19 2 57 12 83 24 l47 21 -1 58 c0 52 5 143 12 183 7 45 0 52 -40 45 -22
-4 -48 -2 -59 4 -15 8 -32 6 -68 -6 -37 -13 -54 -14 -76 -5 -16 6 -35 9 -42 6
-14 -5 -15 34 -2 74 6 17 3 27 -11 37 -17 13 -17 14 7 19 14 4 66 5 115 2 50
-2 109 -4 131 -5 l42 -1 -2 -49 c-1 -56 5 -61 66 -53 39 4 53 27 39 66 -4 11
-6 42 -4 69 l3 48 -62 -1 c-35 -1 -72 -1 -83 0 -11 1 -53 -4 -93 -11 -55 -10
-81 -10 -105 -2 -18 7 -54 9 -82 6 -93 -9 -352 -4 -385 9 -8 3 -22 4 -31 1z"/>
</g>
</svg>
