<?xml version="1.0" standalone="no"?>
<!DOCTYPE svg PUBLIC "-//W3C//DTD SVG 20010904//EN"
 "http://www.w3.org/TR/2001/REC-SVG-20010904/DTD/svg10.dtd">
<svg version="1.0" xmlns="http://www.w3.org/2000/svg"
 width="101.000000pt" height="102.000000pt" viewBox="0 0 101.000000 102.000000"
 preserveAspectRatio="xMidYMid meet">
<metadata>
Created by potrace 1.16, written by Peter Selinger 2001-2019
</metadata>
<g transform="translate(0.000000,102.000000) scale(0.100000,-0.100000)"
fill="#000000" stroke="none">
<path d="M193 924 l2 -96 -43 6 c-24 3 -54 3 -67 0 -23 -6 -23 -8 -19 -112 5
-128 5 -180 2 -334 -3 -128 -3 -130 58 -121 l31 5 -1 236 c-1 231 0 237 19
237 21 0 22 -20 25 -287 0 -128 1 -158 1 -219 0 -36 -5 -78 -10 -92 -18 -47 6
-70 61 -60 23 4 24 7 25 106 2 149 3 155 14 134 6 -9 8 -21 5 -25 -12 -20 13
-34 47 -28 55 10 61 25 59 141 -2 61 1 106 7 110 13 7 12 113 0 121 -12 7 -11
51 1 59 6 3 10 28 10 55 0 66 -17 81 -85 78 l-53 -3 4 78 c2 43 6 82 10 88 3
6 -4 7 -20 3 -16 -4 -26 -2 -26 5 0 6 -13 11 -30 11 l-29 0 2 -96z m119 -260
c-1 -48 2 -85 8 -89 14 -8 13 -68 -2 -83 -8 -8 -8 -15 1 -26 19 -23 4 -101
-19 -103 -15 -1 -20 8 -26 55 -5 39 -3 57 5 60 14 5 15 82 1 82 -5 0 -10 16
-10 35 0 19 5 35 10 35 6 0 10 26 10 58 0 40 4 59 13 59 9 0 11 -22 9 -83z"/>
<path d="M445 943 c-14 -13 -16 -28 -11 -77 3 -34 6 -198 6 -366 0 -330 0
-342 2 -382 1 -29 20 -39 62 -31 25 5 31 17 28 54 -1 11 7 17 21 18 12 1 49 3
82 6 33 3 93 2 133 -1 62 -5 72 -8 68 -22 -9 -29 10 -46 49 -45 45 1 47 3 46
50 0 21 -1 56 0 78 0 22 0 81 -1 130 -1 180 0 263 5 395 2 74 2 149 -1 167 -4
31 -6 32 -69 38 -36 4 -72 5 -81 1 -28 -11 -273 -16 -279 -6 -10 15 -42 12
-60 -7z m385 -119 c0 -24 5 -44 10 -44 6 0 10 -11 10 -25 0 -14 -4 -25 -10
-25 -6 0 -10 -30 -10 -70 0 -40 4 -70 10 -70 6 0 10 -11 10 -25 0 -14 -4 -25
-10 -25 -5 0 -10 -22 -10 -50 0 -31 4 -50 11 -50 13 0 8 -185 -5 -197 -5 -6
-230 -8 -281 -3 -18 2 -21 8 -19 52 3 49 14 82 14 40 0 -18 5 -20 38 -15 61 8
185 9 208 0 18 -6 22 -3 27 19 10 52 1 61 -61 60 l-57 -1 3 30 c1 17 3 41 3
55 l1 25 14 -25 c7 -14 13 -33 14 -43 0 -16 5 -17 33 -12 46 10 51 18 31 56
-21 43 -32 49 -61 38 -31 -11 -29 -12 -30 10 -1 17 4 19 42 16 39 -2 44 0 48
23 8 44 -4 57 -53 57 -44 0 -45 1 -42 30 1 17 3 40 3 51 1 19 6 21 38 17 27
-4 42 0 54 12 47 46 -6 106 -65 72 -37 -21 -75 -22 -94 -2 -18 17 -42 19 -77
6 -23 -9 -25 -7 -29 22 l-3 32 147 1 148 2 0 -44z m-229 -103 l34 4 1 -52 1
-52 -38 3 c-41 4 -51 -10 -42 -57 4 -22 9 -24 45 -21 33 3 39 1 34 -12 -3 -8
-1 -24 5 -35 6 -11 7 -39 4 -64 l-7 -44 -44 5 c-35 3 -44 1 -44 -12 0 -24 -25
-11 -28 15 -2 12 1 28 7 35 12 15 13 154 1 161 -10 6 -12 143 -3 158 3 5 13 0
23 -13 13 -17 25 -22 51 -19z"/>
</g>
</svg>
