<?xml version="1.0" standalone="no"?>
<!DOCTYPE svg PUBLIC "-//W3C//DTD SVG 20010904//EN"
 "http://www.w3.org/TR/2001/REC-SVG-20010904/DTD/svg10.dtd">
<svg version="1.0" xmlns="http://www.w3.org/2000/svg"
 width="101.000000pt" height="101.000000pt" viewBox="0 0 101.000000 101.000000"
 preserveAspectRatio="xMidYMid meet">
<metadata>
Created by potrace 1.16, written by Peter Selinger 2001-2019
</metadata>
<g transform="translate(0.000000,101.000000) scale(0.100000,-0.100000)"
fill="#000000" stroke="none">
<path d="M195 920 l1 -89 -72 4 c-51 3 -73 1 -76 -8 -2 -7 -1 -124 2 -262 4
-137 3 -259 -1 -271 -13 -37 7 -50 71 -46 25 2 25 3 23 85 -3 91 -3 127 0 303
2 119 2 120 25 116 20 -4 22 -10 22 -58 0 -30 5 -54 10 -54 6 0 10 -16 10 -35
0 -19 -4 -35 -10 -35 -5 0 -10 -18 -10 -40 0 -22 5 -40 10 -40 15 0 12 -67 -2
-74 -10 -5 -10 -7 0 -12 18 -9 16 -143 -4 -182 -12 -25 -13 -36 -4 -53 7 -12
9 -34 6 -50 -6 -31 0 -34 59 -30 38 4 39 5 24 29 -10 16 -10 26 -1 47 10 22 9
33 -4 61 -13 28 -14 40 -6 59 6 14 9 33 7 42 -3 10 1 5 9 -12 8 -16 15 -36 16
-43 0 -10 9 -12 33 -7 79 18 91 43 82 173 -5 64 -4 92 4 92 7 0 11 26 11 70 0
40 -4 70 -10 70 -15 0 -13 147 3 153 9 4 8 8 -3 16 -8 6 -22 8 -30 4 -8 -4
-37 -7 -65 -7 l-50 -1 3 40 c3 52 7 76 17 99 10 24 -9 36 -61 36 l-41 0 2 -90z
m121 -170 c9 0 14 -11 14 -35 0 -19 5 -35 10 -35 15 0 12 -67 -2 -74 -10 -5
-10 -7 0 -12 24 -11 11 -209 -16 -236 -6 -6 -19 -7 -30 -4 -24 8 -40 99 -21
122 9 11 9 18 1 26 -15 15 -16 75 -2 83 6 4 9 41 8 91 -2 67 0 83 10 79 8 -3
20 -5 28 -5z"/>
<path d="M467 972 c-14 -3 -16 -25 -14 -162 2 -174 1 -172 64 -163 28 5 31 9
37 51 4 29 2 48 -4 50 -13 5 -13 52 -1 52 5 0 12 -9 16 -19 9 -30 81 -39 188
-25 47 7 59 19 51 51 -5 16 -14 18 -85 14 -53 -2 -79 0 -79 8 0 15 -53 14 -68
-1 -9 -9 -12 -5 -12 20 0 32 1 32 48 32 26 0 53 5 59 11 8 8 37 9 90 4 l79 -7
-3 -106 c-1 -59 1 -113 5 -119 8 -13 29 -17 72 -15 l26 2 1 160 c0 146 -1 160
-18 165 -10 3 -27 2 -37 -4 -10 -6 -58 -7 -115 -4 -70 4 -97 3 -97 -6 0 -6
-15 -11 -35 -11 -19 0 -35 4 -35 9 0 9 -103 19 -133 13z"/>
<path d="M588 724 c-35 -10 -33 -68 2 -77 11 -3 36 -1 56 3 20 5 48 6 62 3 55
-11 99 -6 105 11 3 8 3 23 0 34 -4 17 -13 20 -61 20 -32 0 -77 3 -102 5 -25 3
-52 3 -62 1z"/>
<path d="M478 613 c-13 -3 -15 -12 -11 -41 6 -47 6 -212 0 -277 -3 -27 -1 -65
6 -83 8 -24 8 -43 0 -75 -6 -23 -9 -44 -7 -47 6 -5 85 -3 91 4 3 2 5 20 6 39
1 28 5 35 21 36 12 0 53 3 91 6 39 3 84 3 101 0 26 -5 31 -10 31 -35 0 -17 3
-33 7 -37 6 -7 85 -7 91 -1 2 2 -2 22 -8 45 -8 32 -8 51 0 75 7 18 9 56 6 83
-5 56 -6 223 -1 270 4 37 -7 46 -41 33 -42 -16 -324 -14 -357 4 -5 2 -16 3
-26 1z m303 -79 c21 -4 26 -11 25 -30 -1 -30 -32 -37 -131 -29 -38 3 -79 6
-90 6 -14 1 -20 9 -21 26 -2 18 2 22 15 19 9 -3 22 -2 30 3 15 10 132 13 172
5z m0 -120 c21 -4 26 -11 25 -30 -1 -30 -32 -37 -131 -29 -38 3 -79 6 -90 6
-14 1 -20 9 -21 26 -2 18 2 22 15 19 9 -3 22 -2 30 3 15 10 132 13 172 5z m0
-120 c21 -4 26 -11 25 -30 -1 -30 -32 -37 -131 -29 -38 3 -79 6 -90 6 -14 1
-20 9 -21 26 -2 18 2 22 15 19 9 -3 22 -2 30 3 15 10 132 13 172 5z"/>
</g>
</svg>
