<?xml version="1.0" standalone="no"?>
<!DOCTYPE svg PUBLIC "-//W3C//DTD SVG 20010904//EN"
 "http://www.w3.org/TR/2001/REC-SVG-20010904/DTD/svg10.dtd">
<svg version="1.0" xmlns="http://www.w3.org/2000/svg"
 width="101.000000pt" height="102.000000pt" viewBox="0 0 101.000000 102.000000"
 preserveAspectRatio="xMidYMid meet">
<metadata>
Created by potrace 1.16, written by Peter Selinger 2001-2019
</metadata>
<g transform="translate(0.000000,102.000000) scale(0.100000,-0.100000)"
fill="#000000" stroke="none">
<path d="M185 927 c0 -58 -4 -93 -10 -92 -5 2 -31 6 -57 9 -52 6 -85 -13 -73
-43 18 -42 19 -426 2 -476 -12 -37 9 -51 73 -47 24 2 25 4 23 70 -3 77 -3 119
0 288 2 110 4 120 20 116 13 -3 17 -15 17 -58 0 -30 5 -54 10 -54 6 0 10 -16
10 -35 0 -19 -4 -35 -10 -35 -5 0 -10 -18 -10 -40 0 -22 5 -40 10 -40 15 0 12
-67 -2 -74 -10 -5 -10 -7 0 -12 18 -8 16 -143 -3 -188 -12 -28 -13 -41 -4 -57
6 -12 8 -31 5 -44 -7 -26 14 -36 57 -28 32 6 41 53 19 107 -12 30 -13 45 -4
68 6 16 8 37 5 46 -4 15 -3 15 6 2 6 -8 11 -23 11 -33 0 -16 5 -18 33 -12 17
4 43 15 57 25 24 17 25 21 22 119 -2 65 1 101 8 101 6 0 10 58 10 165 l0 165
-25 6 c-14 3 -37 -1 -56 -10 -59 -29 -68 -24 -64 42 4 59 8 85 20 115 4 9 6
17 4 17 -2 1 -26 3 -54 6 l-50 5 0 -94z m116 -177 c5 0 9 -16 9 -35 0 -19 5
-35 10 -35 15 0 12 -67 -2 -74 -10 -5 -10 -7 0 -12 20 -10 11 -218 -11 -240
-3 -3 -14 -3 -25 0 -24 8 -40 99 -21 122 9 11 9 18 1 26 -15 15 -16 75 -2 83
6 4 9 41 8 91 -2 67 0 83 10 79 8 -3 18 -5 23 -5z"/>
<path d="M433 809 c2 -192 -6 -179 97 -164 85 12 85 12 88 -20 5 -40 4 -126
-1 -131 -6 -6 -119 -7 -159 -1 -40 6 -50 -8 -41 -57 5 -25 19 -32 53 -27 75
10 82 10 75 -7 -4 -9 -8 -32 -11 -50 -9 -74 -72 -142 -150 -161 l-43 -11 44
-41 45 -41 43 26 c47 27 98 79 121 124 19 37 46 141 40 156 -3 8 5 13 24 13
34 0 32 8 36 -147 2 -58 4 -110 5 -117 2 -19 90 -44 113 -32 11 6 26 8 34 5
39 -15 105 38 119 95 5 20 -1 28 -37 47 -43 23 -57 19 -58 -19 0 -24 -20 -36
-58 -36 -38 0 -42 12 -43 97 0 112 -1 111 35 104 17 -4 40 -6 51 -5 11 1 35 3
53 3 33 2 38 11 33 62 -2 27 -8 31 -26 16 -12 -10 -21 -10 -40 -2 -14 6 -32 9
-41 5 -14 -5 -15 -3 -6 14 6 11 25 35 42 53 17 18 27 36 23 40 -10 9 -84 33
-87 28 -28 -45 -66 -110 -66 -114 0 -3 10 -9 23 -13 18 -8 14 -9 -20 -8 -41 1
-41 2 -48 44 -3 24 -1 51 4 62 6 11 8 27 4 37 -5 13 -3 16 10 11 10 -4 28 -1
42 5 19 8 31 7 58 -5 59 -28 98 2 76 59 -7 20 -6 110 4 244 2 25 1 25 -86 28
-49 2 -94 -1 -100 -7 -15 -12 -174 -14 -182 -2 -3 5 -25 9 -50 9 l-44 0 2
-169z m320 85 c36 -5 45 -10 44 -25 -1 -17 -11 -18 -133 -16 -100 1 -130 5
-127 15 3 7 24 12 53 12 27 0 52 5 55 10 7 11 42 13 108 4z m44 -146 c-1 -13
-6 -26 -12 -30 -14 -10 -127 -8 -140 2 -5 5 -33 7 -61 7 -41 -2 -50 1 -51 15
-2 15 11 18 95 21 53 1 114 4 134 5 34 2 38 0 35 -20z"/>
<path d="M482 612 c-18 -8 -31 -18 -29 -21 2 -3 12 -25 23 -48 22 -48 22 -48
70 -28 l35 14 -26 51 c-14 27 -29 50 -33 49 -4 0 -22 -8 -40 -17z"/>
</g>
</svg>
