<?xml version="1.0" standalone="no"?>
<!DOCTYPE svg PUBLIC "-//W3C//DTD SVG 20010904//EN"
 "http://www.w3.org/TR/2001/REC-SVG-20010904/DTD/svg10.dtd">
<svg version="1.0" xmlns="http://www.w3.org/2000/svg"
 width="101.000000pt" height="103.000000pt" viewBox="0 0 101.000000 103.000000"
 preserveAspectRatio="xMidYMid meet">
<metadata>
Created by potrace 1.16, written by Peter Selinger 2001-2019
</metadata>
<g transform="translate(0.000000,103.000000) scale(0.100000,-0.100000)"
fill="#000000" stroke="none">
<path d="M175 1000 c-4 -16 -1 -45 6 -63 8 -23 9 -43 2 -63 -9 -26 -14 -29
-61 -32 -34 -2 -52 1 -52 8 0 7 -5 10 -11 8 -8 -3 -10 -70 -8 -228 2 -124 3
-253 2 -287 -1 -52 1 -62 17 -66 27 -7 88 7 72 16 -14 10 -16 67 -2 67 6 0 10
18 10 40 0 22 -4 40 -10 40 -15 0 -13 157 3 164 10 5 10 7 0 12 -15 7 -18 74
-3 74 6 0 10 17 10 38 0 24 5 39 13 39 13 0 19 -69 18 -214 0 -10 0 -63 0
-118 1 -55 -2 -122 -4 -150 -3 -27 -1 -65 6 -83 8 -23 8 -43 1 -71 -12 -45 -3
-52 55 -43 28 4 32 8 26 26 -12 35 -15 170 -5 186 8 12 11 13 19 1 7 -11 15
-10 44 4 68 32 69 35 70 224 l2 170 25 1 c14 0 54 3 90 5 182 14 231 14 295 4
38 -6 79 -10 90 -10 11 1 32 2 47 3 28 1 40 23 31 57 -4 15 -18 20 -79 25 -41
4 -80 4 -86 0 -7 -4 -2 7 11 24 12 18 20 35 18 39 -3 5 17 8 45 9 55 1 72 15
62 54 -7 31 -23 42 -49 32 -25 -9 -157 -4 -168 7 -4 4 -10 18 -12 32 -5 25
-30 49 -51 49 -26 0 -65 -20 -59 -30 4 -6 10 -23 15 -39 l8 -28 -77 4 c-42 2
-83 4 -91 5 -49 4 -68 -19 -56 -68 6 -23 9 -23 74 -19 49 3 61 2 44 -5 l-23
-10 20 -28 20 -29 -70 1 c-38 1 -69 5 -70 11 -1 6 0 23 1 38 1 19 -3 28 -12
26 -7 -1 -41 -1 -75 0 -60 1 -63 2 -63 25 0 14 5 28 10 31 6 4 10 18 9 33 0
15 2 37 6 49 7 21 5 22 -29 16 -24 -4 -36 -2 -36 6 0 24 -29 9 -35 -19z m555
-179 c-17 -35 -20 -37 -62 -33 -50 5 -55 8 -61 42 -5 25 -4 25 69 26 l73 1
-19 -36z m-421 -76 c0 -11 3 -54 6 -95 2 -41 1 -115 -3 -164 -6 -81 -9 -89
-28 -92 -21 -3 -22 2 -28 84 -7 123 -7 164 3 176 5 6 8 34 8 62 -2 47 0 51 19
50 14 -1 22 -8 23 -21z m-29 -416 c0 -6 -4 -7 -10 -4 -5 3 -10 11 -10 16 0 6
5 7 10 4 6 -3 10 -11 10 -16z"/>
<path d="M456 627 c9 -65 10 -220 1 -243 -6 -17 -3 -23 14 -27 12 -3 31 -2 41
4 10 5 40 7 66 3 45 -6 49 -8 49 -34 0 -26 -4 -28 -49 -34 -27 -4 -54 -4 -60
0 -21 13 -115 21 -125 10 -8 -8 -8 -64 0 -72 6 -7 22 -6 112 1 80 7 128 -2
121 -21 -3 -8 0 -26 6 -39 9 -19 9 -28 0 -37 -7 -7 -12 -22 -12 -34 0 -24 24
-34 63 -27 23 5 25 9 26 57 0 86 2 94 25 95 11 0 55 3 96 6 41 3 87 1 102 -4
23 -8 27 -6 31 16 10 55 -13 80 -59 63 -23 -9 -100 -13 -165 -9 -21 1 -26 6
-26 29 0 30 3 31 103 31 l52 0 -4 115 c-2 63 0 123 5 133 6 10 7 27 4 39 -4
17 -11 20 -27 16 -32 -8 -303 -9 -353 -1 l-42 6 5 -42z m296 -33 c19 -4 26
-11 25 -25 -2 -24 -39 -31 -127 -24 -36 3 -74 6 -85 6 -13 1 -21 9 -22 21 -1
14 3 17 15 14 9 -3 23 -2 31 3 16 10 121 13 163 5z m-1 -110 c21 -4 27 -11 25
-30 -1 -29 -31 -36 -121 -29 -33 3 -69 6 -80 6 -14 1 -20 9 -21 26 -2 18 2 22
15 19 9 -3 22 -2 30 3 16 10 110 13 152 5z"/>
</g>
</svg>
