<?xml version="1.0" standalone="no"?>
<!DOCTYPE svg PUBLIC "-//W3C//DTD SVG 20010904//EN"
 "http://www.w3.org/TR/2001/REC-SVG-20010904/DTD/svg10.dtd">
<svg version="1.0" xmlns="http://www.w3.org/2000/svg"
 width="101.000000pt" height="102.000000pt" viewBox="0 0 101.000000 102.000000"
 preserveAspectRatio="xMidYMid meet">
<metadata>
Created by potrace 1.16, written by Peter Selinger 2001-2019
</metadata>
<g transform="translate(0.000000,102.000000) scale(0.100000,-0.100000)"
fill="#000000" stroke="none">
<path d="M187 1003 c-9 -31 -6 -87 4 -100 6 -6 9 -24 7 -39 -3 -26 -5 -27 -70
-26 -54 0 -68 -3 -72 -16 -9 -34 -6 -151 4 -157 12 -8 13 -52 1 -59 -13 -8
-12 -108 1 -123 11 -14 7 -156 -6 -184 -9 -20 16 -28 60 -22 l31 5 -10 50 c-8
40 -7 52 4 60 11 7 11 11 1 15 -14 6 -17 73 -2 73 6 0 10 18 10 40 0 22 -4 40
-10 40 -5 0 -10 16 -10 35 0 19 5 35 10 35 6 0 10 26 10 59 0 47 3 60 18 63
16 5 17 -16 17 -328 0 -368 -4 -346 64 -336 31 4 33 6 25 36 -7 26 -8 116 -3
206 1 21 2 22 10 7 6 -9 8 -21 5 -25 -2 -4 -1 -14 4 -22 6 -10 18 -11 51 -4
34 7 47 16 58 38 18 38 28 201 12 210 -15 10 -14 147 2 166 13 17 28 21 73 24
17 0 31 -3 31 -9 0 -5 8 -27 17 -47 l16 -36 -28 4 c-73 11 -88 9 -95 -16 -3
-11 -3 -29 0 -40 4 -16 12 -19 43 -16 20 2 42 6 48 10 6 3 35 3 65 0 51 -6 54
-8 54 -35 0 -28 -1 -28 -46 -24 -71 8 -75 8 -92 7 -19 -2 -30 -32 -22 -61 4
-15 12 -19 37 -17 18 2 38 6 45 10 7 5 27 5 45 2 28 -5 33 -10 33 -36 0 -17
-5 -31 -11 -31 -49 -7 -123 -6 -136 1 -37 20 -78 -16 -64 -55 7 -18 44 -26 66
-14 21 11 118 1 118 -13 0 -4 -20 -28 -44 -53 -35 -34 -60 -49 -115 -65 -71
-22 -85 -33 -56 -44 8 -3 20 -17 27 -31 14 -31 31 -31 94 0 63 31 130 88 150
127 l16 30 17 -29 c29 -46 109 -111 164 -132 l52 -19 14 22 c8 11 23 30 33 42
l19 21 -69 22 c-64 21 -161 82 -169 107 -5 14 8 15 129 16 90 1 102 7 92 45
-5 17 -16 19 -102 20 -143 2 -139 1 -139 35 0 20 4 27 14 24 7 -3 24 -1 36 5
16 7 41 7 78 1 30 -6 56 -8 58 -6 6 6 5 63 -1 69 -6 6 -59 7 -129 1 -55 -4
-56 -4 -56 24 0 21 5 28 21 29 12 0 48 3 80 5 32 3 70 0 84 -5 14 -5 27 -7 30
-4 7 6 7 63 1 70 -9 8 -83 9 -111 1 -35 -10 -36 3 -3 43 21 24 23 31 11 38 -8
5 16 8 59 7 81 -1 93 7 80 59 -6 22 -12 25 -62 26 -31 0 -58 2 -59 4 -2 2 17
29 41 60 39 49 54 77 41 77 -2 0 -19 7 -39 15 l-35 15 -31 -55 c-17 -30 -33
-55 -35 -55 -6 0 2 104 9 122 8 20 -23 31 -76 26 -34 -3 -34 -3 -34 -53 1 -27
3 -77 5 -110 l4 -60 -30 -3 -31 -3 4 78 c2 43 6 93 8 111 3 21 0 32 -8 33 -67
6 -88 3 -93 -15 -3 -10 -1 -29 6 -41 9 -16 10 -44 5 -90 l-7 -68 -51 7 c-29 3
-62 6 -74 6 -14 0 -21 5 -18 13 4 9 -13 12 -67 12 l-73 -1 2 61 c1 33 4 72 8
86 5 22 3 27 -17 33 -43 11 -76 7 -81 -11z m649 -185 c4 -5 -4 -8 -17 -6 -12
1 -24 8 -26 15 -5 14 34 6 43 -9z m-511 -252 l0 -189 -25 -2 -25 -3 0 191 0
192 25 0 25 0 0 -189z m420 137 c-3 -16 -19 -41 -35 -58 -25 -25 -33 -28 -56
-20 -19 7 -28 18 -29 35 -1 14 -5 33 -9 42 -8 17 9 22 103 26 31 2 33 1 26
-25z"/>
<path d="M436 957 c-17 -12 -16 -16 11 -71 26 -54 30 -57 58 -52 49 10 52 22
21 81 -30 58 -53 69 -90 42z"/>
</g>
</svg>
