<?xml version="1.0" standalone="no"?>
<!DOCTYPE svg PUBLIC "-//W3C//DTD SVG 20010904//EN"
 "http://www.w3.org/TR/2001/REC-SVG-20010904/DTD/svg10.dtd">
<svg version="1.0" xmlns="http://www.w3.org/2000/svg"
 width="101.000000pt" height="101.000000pt" viewBox="0 0 101.000000 101.000000"
 preserveAspectRatio="xMidYMid meet">
<metadata>
Created by potrace 1.16, written by Peter Selinger 2001-2019
</metadata>
<g transform="translate(0.000000,101.000000) scale(0.100000,-0.100000)"
fill="#000000" stroke="none">
<path d="M443 953 l3 -58 -102 2 c-56 1 -117 5 -136 8 -56 11 -85 -34 -58 -86
8 -14 21 -19 55 -19 25 0 45 5 45 10 0 6 11 10 25 10 14 0 25 -5 25 -11 0 -7
25 -9 73 -7 l72 3 0 -37 0 -36 -92 5 c-67 4 -93 3 -93 -6 0 -7 -25 -11 -75
-11 -46 0 -75 4 -75 11 0 6 -12 9 -27 7 -26 -3 -28 -6 -27 -46 0 -23 4 -45 8
-50 10 -10 246 -9 271 1 11 5 7 1 -10 -9 -16 -9 -32 -18 -34 -20 -2 -2 11 -24
28 -50 17 -26 30 -49 28 -50 -2 -2 -39 1 -84 6 -95 11 -121 6 -129 -25 -12
-48 10 -74 56 -66 8 2 69 4 135 5 l121 3 2 -42 1 -42 -122 -6 c-67 -3 -144 -4
-172 -2 -112 10 -109 11 -108 -41 1 -42 5 -46 35 -45 37 2 157 10 233 16 89 7
139 -1 131 -21 -3 -8 0 -25 6 -39 8 -19 7 -31 -6 -59 -27 -57 -7 -77 68 -68
37 4 38 5 30 36 -7 28 -7 58 -3 122 2 26 1 25 169 27 69 0 140 -4 157 -10 46
-17 70 -7 76 30 7 48 -2 68 -27 61 -20 -5 -308 -8 -353 -4 -20 2 -22 7 -21 46
2 30 6 43 14 40 7 -3 26 0 42 6 22 9 39 8 76 -5 35 -12 53 -14 67 -6 11 6 39
7 64 3 42 -6 45 -5 47 17 2 41 -2 63 -15 71 -15 10 -71 10 -81 1 -10 -10 -126
-10 -126 -1 0 4 16 23 35 42 42 43 43 51 8 64 l-28 10 35 2 c19 1 86 2 148 3
124 2 131 6 117 66 -7 33 -28 45 -53 33 -9 -5 -91 -6 -182 -4 l-165 4 0 37 -1
36 44 -4 c24 -2 55 2 68 9 25 14 122 7 154 -10 40 -21 68 50 34 84 -17 18 -27
20 -38 9 -4 -5 -65 -8 -134 -8 l-127 0 2 35 c2 19 4 44 5 55 3 18 -4 20 -54
23 l-58 3 3 -58z m139 -333 c-1 -13 -11 -42 -21 -65 l-19 -43 -80 1 c-79 2
-80 2 -51 18 l30 15 -34 50 -34 49 106 -2 c103 -1 106 -2 103 -23z"/>
</g>
</svg>
