<?xml version="1.0" standalone="no"?>
<!DOCTYPE svg PUBLIC "-//W3C//DTD SVG 20010904//EN"
 "http://www.w3.org/TR/2001/REC-SVG-20010904/DTD/svg10.dtd">
<svg version="1.0" xmlns="http://www.w3.org/2000/svg"
 width="101.000000pt" height="101.000000pt" viewBox="0 0 101.000000 101.000000"
 preserveAspectRatio="xMidYMid meet">
<metadata>
Created by potrace 1.16, written by Peter Selinger 2001-2019
</metadata>
<g transform="translate(0.000000,101.000000) scale(0.100000,-0.100000)"
fill="#000000" stroke="none">
<path d="M280 992 c-19 -9 -36 -17 -38 -18 -2 -1 19 -33 47 -70 27 -38 47 -72
45 -76 -7 -11 -92 -10 -99 1 -3 5 -32 9 -65 9 -56 -1 -59 -2 -65 -29 -4 -16
-4 -38 0 -49 7 -23 45 -36 72 -23 10 5 43 7 75 5 l56 -4 7 -78 c5 -51 3 -85
-4 -99 -7 -12 -8 -22 -4 -22 19 -4 -108 -17 -169 -18 -43 -1 -68 3 -70 11 -3
7 -10 8 -17 3 -13 -8 -10 -79 4 -93 7 -7 45 -7 157 -1 94 6 100 -4 56 -91 -33
-66 -90 -121 -158 -154 -25 -11 -47 -24 -50 -28 -3 -4 21 -23 54 -43 l58 -35
39 31 c52 41 117 116 141 163 23 45 58 147 53 156 -1 3 37 6 86 7 l89 2 0 -39
c0 -22 5 -40 10 -40 15 0 12 -67 -2 -73 -10 -4 -10 -8 1 -15 10 -7 12 -31 10
-95 -4 -96 -3 -97 64 -89 40 5 48 24 25 61 -9 15 -9 25 0 46 9 19 9 32 1 47
-6 12 -8 35 -4 57 4 20 8 59 9 86 l1 50 80 -3 c44 -2 96 -6 116 -8 46 -7 71
16 67 60 -3 31 -3 31 -78 39 -41 4 -101 6 -133 4 l-58 -3 3 105 3 106 108 -1
c104 0 108 0 113 23 4 13 3 35 0 49 -6 24 -10 26 -44 20 -85 -16 -122 -18
-122 -8 0 6 -20 12 -45 14 l-45 3 56 58 c30 33 53 64 51 71 -5 12 -72 37 -98
35 -8 0 -29 -30 -47 -67 -51 -104 -59 -112 -125 -119 -38 -4 -61 -2 -72 7 -8
7 -24 10 -35 7 -29 -8 -15 8 20 23 16 7 30 15 30 19 0 14 -102 131 -113 130
-7 0 -28 -8 -47 -17z m306 -353 l1 -106 -81 5 c-45 2 -82 6 -84 7 -2 2 -4 47
-5 101 l-3 99 86 0 85 0 1 -106z"/>
</g>
</svg>
