<?xml version="1.0" standalone="no"?>
<!DOCTYPE svg PUBLIC "-//W3C//DTD SVG 20010904//EN"
 "http://www.w3.org/TR/2001/REC-SVG-20010904/DTD/svg10.dtd">
<svg version="1.0" xmlns="http://www.w3.org/2000/svg"
 width="101.000000pt" height="102.000000pt" viewBox="0 0 101.000000 102.000000"
 preserveAspectRatio="xMidYMid meet">
<metadata>
Created by potrace 1.16, written by Peter Selinger 2001-2019
</metadata>
<g transform="translate(0.000000,102.000000) scale(0.100000,-0.100000)"
fill="#000000" stroke="none">
<path d="M473 1009 c-29 -11 -28 -13 2 -64 l24 -42 -67 -6 c-112 -9 -173 -9
-186 2 -19 16 -115 9 -120 -9 -8 -29 -5 -89 4 -95 12 -8 11 -173 -1 -181 -6
-3 -10 -36 -10 -72 1 -37 -1 -80 -3 -97 -4 -28 -6 -40 -20 -103 -8 -35 -55
-134 -74 -156 -12 -13 -13 -20 -5 -23 6 -2 30 -18 53 -34 l41 -30 23 53 c40
91 77 218 84 287 3 36 6 136 7 221 l0 155 80 2 c133 3 146 3 255 -2 65 -3 119
-1 141 6 36 11 172 1 210 -15 23 -10 49 19 49 54 0 39 -26 63 -59 55 -14 -4
-52 -7 -83 -6 -35 1 -58 -2 -58 -8 0 -6 -16 -11 -35 -11 -19 0 -35 5 -35 10 0
6 -20 10 -44 10 l-45 0 -17 54 c-16 52 -18 54 -53 54 -20 0 -46 -4 -58 -9z"/>
<path d="M306 764 c-10 -25 -7 -102 4 -109 11 -7 12 -153 0 -160 -12 -7 -12
-153 1 -160 14 -9 1 -115 -18 -137 -13 -14 -12 -21 8 -60 12 -23 23 -45 25
-47 2 -2 25 12 51 31 26 19 76 52 111 73 l63 38 -5 43 c-2 24 -7 48 -11 54 -4
6 -31 -9 -66 -36 -33 -25 -62 -45 -64 -43 -2 2 -1 60 2 129 l6 125 62 -3 c71
-4 95 11 95 59 0 32 -24 49 -43 30 -6 -6 -37 -11 -69 -11 l-59 0 6 33 c3 17 7
53 9 79 3 26 7 52 11 57 9 15 -29 31 -73 31 -27 0 -42 -5 -46 -16z"/>
<path d="M596 747 c-3 -17 -3 -77 -1 -132 5 -109 5 -133 5 -245 1 -136 5 -215
14 -229 15 -23 74 -43 96 -31 10 5 52 8 93 6 84 -5 102 5 130 74 26 64 29 80
15 80 -7 0 -31 12 -52 26 -44 30 -56 22 -54 -34 2 -57 -22 -69 -117 -60 l-30
3 0 117 0 116 85 50 c47 28 102 57 124 66 34 14 37 18 25 34 -25 33 -63 72
-70 72 -3 0 -23 -15 -43 -34 -20 -18 -56 -47 -80 -64 l-43 -31 3 83 c1 46 6
99 9 119 6 33 5 35 -22 40 -70 12 -82 9 -87 -26z"/>
</g>
</svg>
