<?xml version="1.0" standalone="no"?>
<!DOCTYPE svg PUBLIC "-//W3C//DTD SVG 20010904//EN"
 "http://www.w3.org/TR/2001/REC-SVG-20010904/DTD/svg10.dtd">
<svg version="1.0" xmlns="http://www.w3.org/2000/svg"
 width="101.000000pt" height="102.000000pt" viewBox="0 0 101.000000 102.000000"
 preserveAspectRatio="xMidYMid meet">
<metadata>
Created by potrace 1.16, written by Peter Selinger 2001-2019
</metadata>
<g transform="translate(0.000000,102.000000) scale(0.100000,-0.100000)"
fill="#000000" stroke="none">
<path d="M494 1007 l-32 -9 18 -41 c11 -23 17 -43 16 -44 -2 -2 -56 -6 -120
-9 -78 -4 -121 -2 -130 5 -7 6 -24 11 -37 10 -13 0 -31 1 -39 2 -48 7 -49 5
-45 -108 5 -132 5 -156 0 -258 -3 -74 -6 -103 -19 -195 -8 -51 -33 -119 -60
-160 l-23 -35 43 -38 43 -38 25 50 c22 43 53 136 74 221 3 14 6 73 6 132 1 58
4 110 8 114 5 4 8 17 9 28 0 12 3 16 5 10 3 -7 14 -10 25 -7 10 3 70 2 132 -2
l112 -7 0 -45 0 -45 -95 7 c-52 3 -103 3 -112 0 -22 -9 -31 -50 -17 -76 9 -17
18 -20 55 -17 35 2 41 1 29 -8 -13 -10 -10 -18 22 -60 20 -27 52 -66 71 -86
l35 -37 -35 -14 c-45 -19 -65 -25 -106 -32 -18 -3 -42 -11 -52 -18 -15 -9 -27
-9 -51 0 -20 8 -39 9 -56 2 l-25 -9 25 -30 c14 -16 28 -39 32 -50 5 -16 12
-19 33 -14 59 14 239 76 272 93 34 19 35 19 88 -5 79 -35 202 -71 240 -70 28
1 36 7 62 52 l29 51 -42 1 c-23 0 -55 2 -72 5 -16 3 -48 8 -71 11 -22 2 -60 9
-83 16 l-42 11 44 52 c53 63 97 127 126 184 l21 43 -22 5 c-13 3 -64 4 -113 3
l-90 -3 3 37 4 36 149 7 c145 7 149 8 155 30 10 41 1 60 -26 57 -87 -12 -145
-13 -164 -3 -11 6 -43 10 -71 9 l-50 -3 1 35 c1 19 3 42 5 50 3 9 -9 19 -31
27 -31 11 -26 12 55 7 197 -11 300 -11 307 0 26 38 -7 103 -46 91 -12 -3 -49
-6 -83 -5 -38 1 -63 -3 -63 -9 0 -6 -16 -11 -35 -11 -19 0 -35 5 -35 10 0 6
-23 10 -51 10 -42 0 -50 3 -48 18 2 9 -1 31 -5 48 -8 34 -24 39 -82 21z m-29
-186 c22 -1 31 -6 32 -18 1 -10 3 -34 5 -53 l3 -36 -132 2 c-88 1 -133 -2
-133 -9 0 -6 -3 -8 -6 -4 -3 3 -7 32 -8 64 l-1 58 105 -2 c58 -1 119 -2 135
-2z m205 -382 c-6 -9 -32 -41 -60 -71 l-50 -53 -39 45 c-22 25 -46 56 -54 70
l-15 25 114 1 c106 1 113 0 104 -17z"/>
</g>
</svg>
