<?xml version="1.0" standalone="no"?>
<!DOCTYPE svg PUBLIC "-//W3C//DTD SVG 20010904//EN"
 "http://www.w3.org/TR/2001/REC-SVG-20010904/DTD/svg10.dtd">
<svg version="1.0" xmlns="http://www.w3.org/2000/svg"
 width="101.000000pt" height="102.000000pt" viewBox="0 0 101.000000 102.000000"
 preserveAspectRatio="xMidYMid meet">
<metadata>
Created by potrace 1.16, written by Peter Selinger 2001-2019
</metadata>
<g transform="translate(0.000000,102.000000) scale(0.100000,-0.100000)"
fill="#000000" stroke="none">
<path d="M477 1008 c-16 -6 -26 -15 -24 -22 3 -6 12 -27 20 -46 l15 -35 -79 4
c-53 2 -79 0 -79 -8 0 -13 -67 -15 -72 -2 -2 8 -79 15 -125 12 -10 -1 -12 -41
-8 -171 2 -108 0 -172 -6 -176 -6 -3 -10 -34 -9 -67 2 -110 -19 -190 -70 -271
-17 -26 -30 -48 -30 -50 0 -1 18 -22 39 -45 l39 -43 35 74 c32 65 68 168 85
238 3 14 6 86 6 160 1 74 5 143 10 152 4 10 6 37 5 60 l-4 43 104 -3 c58 -1
109 2 116 8 14 11 153 12 160 0 7 -12 153 -12 160 0 8 12 52 13 59 1 3 -4 30
-8 60 -8 62 0 73 12 61 67 -6 28 -17 36 -40 29 -5 -1 -77 -3 -160 -3 l-150 -1
-15 55 c-14 51 -17 55 -45 56 -17 1 -43 -3 -58 -8z"/>
<path d="M479 774 c-5 -15 -6 -36 -3 -48 4 -11 8 -72 8 -135 l1 -113 -76 6
c-44 4 -86 3 -102 -3 -25 -10 -27 -14 -27 -71 0 -33 4 -60 10 -60 6 0 10 -16
10 -35 0 -19 -4 -35 -10 -35 -5 0 -10 -18 -10 -40 0 -23 5 -40 11 -40 8 0 10
-18 5 -59 -7 -65 0 -73 61 -64 30 5 31 7 28 43 -3 33 -1 38 18 39 12 1 45 3
72 6 28 2 98 1 156 -2 l106 -5 0 -29 c0 -16 3 -32 7 -36 11 -11 88 -5 96 7 4
6 1 34 -7 63 -16 64 -16 84 0 91 10 5 10 7 0 12 -15 6 -18 71 -4 76 8 3 16 85
12 128 -1 12 -22 15 -129 15 l-127 0 0 64 0 64 111 -7 c61 -3 125 -11 143 -17
49 -17 79 -5 87 36 9 49 -1 69 -29 60 -42 -14 -168 -18 -191 -6 -11 6 -44 10
-72 9 -55 -4 -54 -6 -39 66 7 36 -6 46 -63 46 -37 0 -44 -4 -53 -26z m197
-370 c80 -7 76 0 75 -103 0 -29 -2 -55 -4 -57 -4 -5 -305 -8 -344 -4 -17 2
-22 11 -28 46 -3 24 -2 52 4 63 6 11 9 26 6 33 -4 10 8 13 50 11 30 -1 57 2
60 7 6 10 82 12 181 4z"/>
</g>
</svg>
