<?xml version="1.0" standalone="no"?>
<!DOCTYPE svg PUBLIC "-//W3C//DTD SVG 20010904//EN"
 "http://www.w3.org/TR/2001/REC-SVG-20010904/DTD/svg10.dtd">
<svg version="1.0" xmlns="http://www.w3.org/2000/svg"
 width="101.000000pt" height="101.000000pt" viewBox="0 0 101.000000 101.000000"
 preserveAspectRatio="xMidYMid meet">
<metadata>
Created by potrace 1.16, written by Peter Selinger 2001-2019
</metadata>
<g transform="translate(0.000000,101.000000) scale(0.100000,-0.100000)"
fill="#000000" stroke="none">
<path d="M485 998 c-22 -6 -41 -12 -43 -13 -2 -2 6 -21 17 -43 l20 -40 -52 -5
c-85 -9 -175 -8 -181 2 -10 16 -95 11 -112 -7 -13 -13 -15 -27 -9 -76 9 -75
10 -329 2 -343 -4 -6 -6 -33 -6 -59 1 -58 -30 -153 -66 -201 l-27 -34 39 -44
c21 -24 41 -44 44 -44 10 -1 66 129 84 195 29 104 33 143 37 369 l3 160 80 2
c97 2 122 2 273 2 64 -1 136 2 160 6 29 5 58 2 92 -9 26 -9 56 -13 64 -10 18
7 29 41 24 75 -2 20 -8 24 -33 22 -192 -13 -237 -14 -250 -3 -7 6 -24 10 -36
8 -14 -2 -23 3 -24 14 -2 9 -8 33 -15 52 -12 39 -19 41 -85 24z"/>
<path d="M759 769 c-7 -4 -18 -5 -26 -2 -7 3 -21 2 -30 -2 -31 -13 -134 -23
-263 -26 -134 -2 -136 -3 -138 -82 -1 -36 3 -69 8 -72 14 -9 13 -152 -1 -161
-8 -5 -10 -36 -6 -102 4 -74 2 -102 -9 -124 -14 -27 -13 -31 14 -68 l29 -40
56 44 c30 23 78 58 106 75 28 18 51 37 51 43 0 17 -22 98 -27 98 -3 0 -29 -21
-59 -46 -30 -26 -56 -45 -59 -42 -4 4 -7 113 -4 158 1 24 3 25 90 27 l88 2 17
-52 c56 -175 169 -297 276 -297 16 0 48 68 62 135 6 28 3 32 -44 57 -33 19
-50 24 -51 15 -1 -6 -2 -27 -4 -45 -1 -18 -5 -35 -8 -38 -10 -10 -58 29 -86
70 -22 33 -71 135 -71 148 0 2 23 2 52 1 28 0 59 4 69 10 13 8 29 7 60 -2 50
-15 61 -6 57 49 l-3 35 -125 0 -125 0 0 73 0 72 98 -1 c54 -1 100 0 102 3 3 2
-8 25 -24 50 -27 43 -47 53 -72 37z m-204 -172 l0 -62 -75 0 -75 0 0 53 0 52
35 1 c29 0 115 14 115 18 0 0 0 -27 0 -62z"/>
<path d="M540 218 c-20 -8 -21 -10 -8 -31 8 -12 20 -39 27 -59 13 -39 20 -41
84 -23 31 8 31 21 2 92 -13 30 -18 33 -49 31 -19 -1 -44 -6 -56 -10z"/>
</g>
</svg>
