<?xml version="1.0" standalone="no"?>
<!DOCTYPE svg PUBLIC "-//W3C//DTD SVG 20010904//EN"
 "http://www.w3.org/TR/2001/REC-SVG-20010904/DTD/svg10.dtd">
<svg version="1.0" xmlns="http://www.w3.org/2000/svg"
 width="101.000000pt" height="101.000000pt" viewBox="0 0 101.000000 101.000000"
 preserveAspectRatio="xMidYMid meet">
<metadata>
Created by potrace 1.16, written by Peter Selinger 2001-2019
</metadata>
<g transform="translate(0.000000,101.000000) scale(0.100000,-0.100000)"
fill="#000000" stroke="none">
<path d="M504 989 c-3 -6 -15 -8 -26 -6 -27 7 -33 -15 -14 -52 9 -16 16 -32
16 -34 0 -3 -78 -3 -174 -1 l-174 4 -1 -192 c-2 -187 -4 -228 -16 -313 -7 -54
-33 -132 -59 -179 -16 -29 -18 -40 -8 -44 7 -2 26 -15 43 -30 25 -21 32 -23
40 -11 10 15 69 191 75 224 2 11 8 45 14 75 5 30 7 99 5 153 -4 67 -2 103 6
113 6 7 9 35 7 61 l-3 48 104 -3 c59 -1 109 2 116 8 14 12 146 12 160 -1 6 -4
75 -7 153 -6 136 2 143 3 148 23 3 12 4 35 2 50 -3 28 -4 29 -58 27 -170 -8
-277 -7 -278 2 -1 13 -10 52 -17 76 -7 21 -49 27 -61 8z"/>
<path d="M455 760 l-18 -39 -91 2 -91 2 -3 -30 c-4 -50 10 -60 78 -58 33 1 60
-1 60 -4 0 -12 -54 -78 -84 -104 -29 -25 -30 -27 -18 -67 l13 -41 77 3 c42 2
97 7 122 11 l45 7 0 -46 0 -45 -50 -6 c-48 -5 -137 -2 -217 8 -41 6 -49 -6
-40 -61 l4 -33 52 6 c97 12 191 16 222 10 24 -4 32 -11 33 -28 5 -73 4 -95 -3
-118 -9 -31 7 -38 65 -31 l36 4 -9 45 c-7 31 -7 53 1 69 6 13 8 30 5 38 -6 16
-5 16 131 19 50 1 102 -2 116 -6 24 -8 27 -6 31 24 8 54 0 72 -31 62 -14 -4
-66 -7 -116 -6 -147 4 -135 -1 -133 47 l2 41 56 -3 c30 -2 64 -3 75 -2 11 0
35 2 52 2 37 2 48 20 37 62 -7 28 -41 43 -71 31 -10 -3 -47 -7 -83 -8 l-65 -2
3 52 4 51 -41 -5 c-27 -4 -41 -2 -41 6 0 6 9 11 19 11 11 0 23 5 27 11 7 12
211 6 261 -7 18 -5 23 -1 29 20 3 14 4 36 0 49 -5 21 -11 23 -65 22 -33 0 -63
-3 -67 -7 -11 -12 -52 -10 -59 3 -4 6 -37 9 -85 7 -71 -3 -77 -1 -64 13 8 8
14 18 14 21 0 6 -86 38 -100 38 -4 0 -15 -18 -25 -40z m92 -186 l3 -61 -74 1
-74 1 22 30 c12 17 32 44 44 60 15 21 31 30 50 30 26 0 27 -2 29 -61z"/>
</g>
</svg>
