<?xml version="1.0" standalone="no"?>
<!DOCTYPE svg PUBLIC "-//W3C//DTD SVG 20010904//EN"
 "http://www.w3.org/TR/2001/REC-SVG-20010904/DTD/svg10.dtd">
<svg version="1.0" xmlns="http://www.w3.org/2000/svg"
 width="101.000000pt" height="101.000000pt" viewBox="0 0 101.000000 101.000000"
 preserveAspectRatio="xMidYMid meet">
<metadata>
Created by potrace 1.16, written by Peter Selinger 2001-2019
</metadata>
<g transform="translate(0.000000,101.000000) scale(0.100000,-0.100000)"
fill="#000000" stroke="none">
<path d="M468 978 c-41 -11 -45 -20 -23 -58 23 -40 19 -45 -35 -42 -32 3 -50
0 -50 -7 0 -13 -67 -15 -72 -1 -1 5 -36 10 -76 12 -76 2 -99 -9 -86 -42 6 -17
7 -310 1 -405 -7 -105 -21 -150 -75 -237 l-21 -33 50 -28 50 -27 19 45 c20 46
50 142 57 180 12 65 16 96 17 148 0 31 3 57 5 57 3 0 15 -10 28 -21 l22 -22
20 24 c11 13 21 20 21 14 0 -5 2 -90 4 -188 3 -163 5 -180 23 -199 11 -11 31
-19 44 -19 13 1 71 2 129 2 314 -1 304 -2 330 17 26 19 54 68 65 112 5 22 0
27 -42 47 -26 12 -49 21 -50 20 -1 -2 -5 -18 -8 -36 -9 -49 -22 -70 -52 -77
-27 -7 -258 -9 -304 -3 -43 6 -62 28 -54 63 3 17 6 41 7 52 0 15 7 22 22 23
63 5 155 3 186 -3 l35 -8 3 98 c2 53 0 109 -3 124 -5 25 -9 26 -68 26 -34 0
-99 0 -145 2 l-83 2 16 28 c15 26 20 27 75 24 33 -1 61 2 65 8 7 11 98 13 169
4 43 -6 46 -9 46 -35 0 -16 5 -29 10 -29 12 0 13 -103 1 -115 -5 -6 -11 -19
-13 -29 -2 -12 -13 -20 -32 -22 -38 -4 -40 -7 -24 -49 15 -43 42 -57 78 -42
61 26 73 68 85 293 4 86 2 103 -11 108 -8 3 -23 2 -32 -3 -9 -5 -49 -7 -89 -5
-43 3 -74 0 -78 -6 -8 -13 -48 -13 -62 1 -6 6 -33 10 -61 8 l-51 -4 20 21 c24
25 24 31 2 37 -10 3 -1 5 19 6 20 0 40 5 43 11 7 12 153 12 160 0 3 -5 36 -8
73 -8 37 1 77 -2 88 -6 32 -10 57 19 50 57 -8 39 -10 41 -49 40 -17 0 -88 -2
-157 -3 l-124 -2 -19 56 c-20 60 -23 62 -89 44z m-88 -184 c0 -21 -70 -131
-111 -176 l-50 -53 6 48 c4 30 2 47 -4 47 -6 0 -11 11 -11 25 0 14 5 25 10 25
6 0 10 18 10 39 l0 40 53 4 c28 2 62 4 75 5 12 1 22 -1 22 -4z m115 -294 l53
0 4 -45 c3 -44 3 -44 -34 -50 -20 -4 -46 -2 -57 4 -11 6 -26 9 -33 6 -10 -4
-13 8 -13 45 0 38 3 49 13 45 8 -3 38 -5 67 -5z"/>
</g>
</svg>
