<?xml version="1.0" standalone="no"?>
<!DOCTYPE svg PUBLIC "-//W3C//DTD SVG 20010904//EN"
 "http://www.w3.org/TR/2001/REC-SVG-20010904/DTD/svg10.dtd">
<svg version="1.0" xmlns="http://www.w3.org/2000/svg"
 width="101.000000pt" height="102.000000pt" viewBox="0 0 101.000000 102.000000"
 preserveAspectRatio="xMidYMid meet">
<metadata>
Created by potrace 1.16, written by Peter Selinger 2001-2019
</metadata>
<g transform="translate(0.000000,102.000000) scale(0.100000,-0.100000)"
fill="#000000" stroke="none">
<path d="M484 1007 c-39 -13 -38 -12 -18 -46 10 -17 15 -33 12 -36 -11 -11
-228 -17 -241 -7 -17 14 -92 13 -112 -2 -14 -10 -16 -24 -9 -109 4 -53 11 -97
15 -97 5 0 9 -11 9 -25 0 -14 -5 -25 -10 -25 -7 0 -10 -27 -9 -69 1 -38 -1
-73 -5 -79 -3 -6 -1 -22 5 -36 9 -19 9 -29 1 -39 -6 -7 -14 -31 -18 -52 -7
-48 -38 -126 -70 -182 -13 -23 -24 -43 -24 -46 0 -2 20 -18 45 -36 l45 -33 24
54 c39 88 70 193 81 273 6 44 20 302 20 365 l0 55 102 0 c92 1 99 0 72 -12
-29 -12 -30 -13 -13 -38 l16 -25 -75 2 c-41 2 -77 1 -80 -2 -11 -10 -17 -55
-9 -67 13 -21 58 -26 75 -9 8 9 31 16 50 16 31 0 35 -3 39 -29 l4 -28 -72 1
c-81 1 -100 -9 -90 -47 7 -28 40 -41 68 -26 11 6 37 8 58 4 32 -5 38 -10 36
-30 -1 -20 -8 -24 -49 -29 -26 -4 -53 -4 -59 0 -6 4 -24 8 -39 9 -30 2 -41
-18 -32 -55 5 -18 12 -20 52 -16 25 2 54 7 64 11 9 4 28 4 41 1 19 -5 23 -12
22 -38 -2 -35 -3 -36 -81 -23 -35 6 -66 7 -70 3 -1 -2 -5 -12 -9 -23 -10 -33
9 -49 54 -48 l41 2 -34 -47 c-19 -26 -62 -67 -95 -92 -33 -25 -61 -47 -61 -50
0 -7 68 -50 79 -50 13 0 105 105 141 160 18 28 33 50 35 50 3 0 5 -40 6 -132
1 -75 4 -87 20 -91 32 -9 59 4 53 24 -3 10 -1 27 5 38 8 15 6 30 -7 62 -13 33
-14 48 -5 71 6 16 9 35 6 43 -4 8 3 13 18 13 13 1 34 2 48 4 28 3 27 7 35
-122 3 -41 1 -87 -4 -102 -11 -30 4 -38 56 -31 29 5 31 7 23 28 -5 13 -7 52
-4 87 2 35 5 73 5 85 1 17 9 12 43 -30 44 -54 152 -147 171 -147 10 1 70 80
63 84 -2 1 -28 14 -58 29 -55 26 -140 91 -140 107 0 4 24 7 53 6 l53 -2 1 40
c4 90 1 85 48 79 37 -4 43 -2 48 16 11 44 -1 59 -46 56 l-42 -3 0 53 c0 29 -4
57 -8 62 -5 4 -48 8 -96 8 -76 0 -87 2 -88 18 -2 15 9 17 75 19 42 2 98 2 124
1 51 -1 66 15 53 56 -5 16 -20 19 -105 26 -55 3 -105 4 -112 0 -7 -4 0 5 15
19 16 14 26 30 23 35 -6 9 87 21 159 21 30 0 45 5 49 16 18 46 -9 74 -69 74
-24 0 -46 -4 -50 -9 -8 -13 -173 -13 -181 0 -3 6 -17 9 -31 7 -23 -3 -27 2
-40 44 -15 51 -25 55 -89 35z m135 -209 c-19 -37 -21 -38 -69 -35 -45 2 -51 5
-69 37 l-19 35 88 0 88 0 -19 -37z m-44 -128 c1 -23 -2 -25 -42 -21 -24 1 -43
7 -43 11 0 5 -3 16 -6 25 -6 14 0 16 42 13 45 -3 49 -5 49 -28z m-1 -125 c0
-26 -4 -30 -25 -27 -13 2 -33 3 -44 4 -14 0 -20 8 -21 25 -2 18 2 22 15 19 9
-3 23 -1 31 4 26 17 45 7 44 -25z m190 0 c0 -27 -3 -30 -30 -27 -16 1 -38 3
-49 3 -14 1 -20 9 -21 26 -2 18 2 22 15 19 9 -3 23 -1 31 4 8 6 24 9 35 8 15
-2 20 -10 19 -33z m-189 -115 c0 -31 -3 -35 -25 -32 -14 2 -34 3 -46 4 -16 0
-21 7 -21 29 0 22 4 28 16 24 9 -2 23 0 31 5 28 18 45 7 45 -30z m190 0 c0
-33 -2 -35 -30 -32 -16 1 -39 3 -51 3 -16 1 -21 8 -21 30 0 22 4 28 16 24 9
-2 23 0 31 5 8 6 24 9 35 8 16 -2 20 -11 20 -38z"/>
</g>
</svg>
