<?xml version="1.0" standalone="no"?>
<!DOCTYPE svg PUBLIC "-//W3C//DTD SVG 20010904//EN"
 "http://www.w3.org/TR/2001/REC-SVG-20010904/DTD/svg10.dtd">
<svg version="1.0" xmlns="http://www.w3.org/2000/svg"
 width="101.000000pt" height="101.000000pt" viewBox="0 0 101.000000 101.000000"
 preserveAspectRatio="xMidYMid meet">
<metadata>
Created by potrace 1.16, written by Peter Selinger 2001-2019
</metadata>
<g transform="translate(0.000000,101.000000) scale(0.100000,-0.100000)"
fill="#000000" stroke="none">
<path d="M460 1001 c0 -5 7 -25 15 -44 8 -20 15 -38 15 -40 0 -11 -172 -18
-184 -8 -7 6 -24 11 -37 11 -13 0 -39 2 -56 6 -18 3 -48 3 -67 0 l-34 -7 4
-102 c5 -155 4 -199 -10 -347 -10 -116 -36 -207 -78 -275 -10 -16 -18 -33 -18
-37 0 -9 79 -63 84 -57 13 15 57 115 72 164 21 73 24 85 29 155 2 30 7 71 10
90 4 19 8 56 9 83 0 26 4 47 7 47 19 0 32 -37 31 -85 0 -30 3 -57 8 -60 11 -7
11 -114 0 -136 -5 -9 -12 -31 -15 -50 -3 -19 -20 -64 -39 -101 l-34 -67 40
-19 39 -20 23 47 c26 51 50 124 51 156 0 15 7 20 26 20 29 1 31 -3 30 -93 0
-53 3 -56 46 -55 7 1 18 -17 25 -39 11 -38 13 -39 47 -33 71 13 76 21 78 131
3 145 3 146 20 140 48 -19 60 -18 66 6 5 19 13 24 40 25 31 1 33 -1 34 -33 l1
-35 -63 6 c-57 5 -63 3 -68 -15 -3 -11 -3 -29 0 -39 4 -16 12 -18 41 -15 86
11 87 11 90 -21 2 -16 3 -58 3 -91 -1 -54 1 -62 19 -67 11 -3 29 -3 40 0 18 5
20 13 19 72 -1 100 1 113 17 107 8 -3 26 0 40 6 19 9 30 9 45 0 10 -7 23 -12
28 -12 12 0 20 35 14 60 -5 17 -12 19 -73 15 l-68 -4 1 33 c1 35 0 35 74 38
34 1 45 14 36 46 -6 25 -37 34 -70 21 -37 -14 -40 -12 -38 32 2 36 6 43 33 54
35 15 52 42 53 82 0 15 2 56 4 90 3 55 1 63 -16 68 -11 4 -25 2 -32 -3 -7 -6
-64 -9 -138 -6 l-127 4 -6 -24 c-9 -37 1 -51 37 -50 49 1 60 -12 41 -50 -16
-31 -73 -96 -84 -96 -4 0 -5 13 -2 29 3 22 -1 32 -17 41 -12 6 -25 9 -29 6 -5
-3 -21 -7 -36 -10 l-28 -5 18 27 c9 15 28 43 41 62 l23 35 -26 7 c-14 4 -52 6
-85 4 -52 -2 -56 -1 -39 11 25 17 25 30 3 36 -21 5 49 9 123 7 29 -1 55 3 58
9 8 12 153 13 161 1 3 -4 41 -8 85 -8 70 0 80 2 86 20 3 11 3 30 0 42 -5 19
-14 24 -57 29 -28 4 -59 2 -69 -3 -29 -16 -130 -25 -130 -11 0 6 -18 11 -43
11 -35 0 -46 4 -56 23 -7 13 -11 27 -10 33 5 28 -3 34 -51 34 -27 0 -50 -4
-50 -9z m-130 -170 c0 -11 -54 -92 -88 -131 l-30 -35 1 85 2 85 58 2 c31 1 57
-2 57 -6z m491 -125 c-7 -8 -11 -28 -9 -43 2 -19 -2 -28 -12 -29 -51 -3 -52
-4 -45 -21 14 -34 14 -63 -1 -63 -14 0 -19 -16 -16 -55 2 -14 -4 -21 -18 -22
-21 -2 -27 11 -10 22 19 11 10 35 -15 41 l-24 6 24 32 c13 18 36 57 49 88 21
47 30 57 53 60 35 4 39 2 24 -16z m-407 -31 c-20 -27 -27 -30 -68 -27 l-45 4
20 27 c16 22 27 26 68 26 l48 0 -23 -30z m-37 -125 c2 -30 -2 -35 -22 -36 -21
-2 -24 2 -22 36 1 31 5 37 22 36 17 -1 21 -8 22 -36z m130 0 c2 -34 0 -37 -27
-37 -27 0 -29 3 -27 37 1 32 4 37 27 37 23 0 26 -5 27 -37z m128 -41 c-3 -17
-16 -51 -29 -77 l-23 -45 -7 57 c-3 33 -2 65 4 76 5 10 7 26 4 35 -6 16 -5 16
25 1 27 -15 30 -21 26 -47z m-258 -84 c1 -24 -3 -30 -22 -31 -20 -2 -23 3 -22
31 1 27 5 32 22 31 16 -1 21 -8 22 -31z m130 0 c1 -28 -2 -32 -27 -32 -25 0
-28 4 -27 32 1 27 5 32 27 32 22 0 26 -5 27 -32z m-1 -112 c-3 -7 0 -24 6 -38
16 -36 -1 -87 -30 -91 -27 -5 -47 37 -37 76 4 14 7 34 7 46 0 16 7 21 30 21
20 0 27 -4 24 -14z"/>
</g>
</svg>
