<?xml version="1.0" standalone="no"?>
<!DOCTYPE svg PUBLIC "-//W3C//DTD SVG 20010904//EN"
 "http://www.w3.org/TR/2001/REC-SVG-20010904/DTD/svg10.dtd">
<svg version="1.0" xmlns="http://www.w3.org/2000/svg"
 width="101.000000pt" height="101.000000pt" viewBox="0 0 101.000000 101.000000"
 preserveAspectRatio="xMidYMid meet">
<metadata>
Created by potrace 1.16, written by Peter Selinger 2001-2019
</metadata>
<g transform="translate(0.000000,101.000000) scale(0.100000,-0.100000)"
fill="#000000" stroke="none">
<path d="M280 1002 c-20 -9 -28 -141 -10 -152 9 -6 11 -23 6 -61 l-7 -54 -88
1 c-49 1 -93 4 -98 7 -16 10 -34 -9 -39 -44 -8 -56 4 -64 98 -64 46 0 90 4
100 8 15 8 17 -11 20 -220 2 -125 0 -238 -4 -249 -17 -52 10 -77 73 -65 33 6
34 8 37 56 2 28 5 51 5 52 1 1 59 4 130 8 l127 6 -6 -33 c-8 -36 -8 -77 -2
-83 6 -6 36 -9 75 -7 l32 2 -4 53 c-2 28 -9 84 -15 122 -9 52 -9 79 0 105 6
20 10 81 8 143 l-3 107 55 1 c30 1 60 0 65 -1 6 -2 33 -4 61 -6 l52 -3 6 39
c3 21 3 45 0 53 -7 19 -32 29 -47 20 -7 -5 -53 -8 -103 -8 l-92 0 4 80 c5 91
9 123 18 146 8 19 -31 37 -81 38 -32 0 -40 -11 -33 -44 1 -5 3 -59 3 -118 l2
-109 -47 6 c-28 4 -49 2 -53 -4 -8 -13 -48 -13 -62 1 -6 6 -33 9 -60 8 l-48
-4 2 90 c1 85 8 139 19 157 11 18 -65 34 -96 20z m250 -348 l95 -7 1 -166 0
-166 -43 4 c-27 2 -43 -1 -43 -8 0 -6 -16 -11 -35 -11 -19 0 -35 5 -35 10 0 6
-25 10 -55 10 l-55 0 0 58 c-1 31 -2 108 -3 170 l-2 112 40 0 c22 0 83 -3 135
-6z"/>
</g>
</svg>
