<?xml version="1.0" standalone="no"?>
<!DOCTYPE svg PUBLIC "-//W3C//DTD SVG 20010904//EN"
 "http://www.w3.org/TR/2001/REC-SVG-20010904/DTD/svg10.dtd">
<svg version="1.0" xmlns="http://www.w3.org/2000/svg"
 width="101.000000pt" height="101.000000pt" viewBox="0 0 101.000000 101.000000"
 preserveAspectRatio="xMidYMid meet">
<metadata>
Created by potrace 1.16, written by Peter Selinger 2001-2019
</metadata>
<g transform="translate(0.000000,101.000000) scale(0.100000,-0.100000)"
fill="#000000" stroke="none">
<path d="M273 920 l2 -90 -37 0 c-45 0 -47 7 -10 36 l27 22 -21 28 c-11 15
-32 37 -46 47 -26 20 -26 20 -58 -3 l-31 -22 43 -46 43 -47 -30 -3 c-75 -7
-72 -2 -73 -106 -1 -54 2 -98 8 -101 12 -7 13 -48 3 -59 -5 -4 -8 -34 -8 -66
-1 -64 7 -73 59 -63 25 5 32 20 27 53 -2 8 -3 72 -4 142 l-2 128 51 0 c52 0
52 0 56 -35 3 -29 1 -34 -11 -29 -37 15 -43 8 -66 -71 -25 -84 -22 -95 21 -95
16 0 23 11 36 58 15 53 16 55 18 22 1 -19 2 -39 1 -44 -1 -4 3 -14 10 -22 7
-8 8 -28 4 -52 -5 -34 -4 -40 14 -45 51 -13 56 -4 56 113 0 90 2 105 12 87 7
-12 13 -29 13 -37 1 -31 15 -40 47 -31 30 9 31 8 29 -17 -3 -24 -7 -27 -40
-25 -34 2 -47 -9 -27 -22 5 -3 12 -18 16 -35 3 -16 14 -30 23 -32 22 -5 84 19
99 39 10 12 15 10 33 -15 25 -34 33 -33 120 20 l45 27 79 -40 c78 -39 106 -47
106 -30 0 5 12 24 26 41 15 17 24 33 21 36 -3 3 -22 7 -43 10 -21 3 -57 13
-81 24 l-43 19 30 63 c17 35 30 68 30 75 0 7 5 23 11 36 9 20 17 23 44 20 37
-4 49 13 39 52 -5 22 -12 24 -100 30 -52 4 -108 5 -124 2 -24 -5 -28 -3 -25
13 5 24 23 60 43 83 20 22 10 31 -33 30 -19 -1 -35 3 -35 8 0 5 -7 9 -15 9
-18 0 -38 -37 -31 -55 3 -8 1 -17 -3 -19 -5 -3 -8 -17 -8 -30 0 -21 -56 -156
-65 -156 -2 0 -3 16 -4 36 -1 42 -15 54 -69 54 l-40 1 54 50 c51 47 52 51 35
64 -37 29 -66 30 -83 4 -9 -13 -29 -38 -44 -56 l-28 -32 30 -16 c17 -8 31 -17
31 -18 0 -1 -19 -2 -42 -1 -42 1 -43 2 -46 38 -2 21 1 43 6 49 6 7 10 29 10
50 l0 37 -43 0 -44 0 2 -90z m500 -165 c-5 -45 -22 -92 -39 -105 -12 -11 -18
-4 -37 39 -19 44 -25 51 -44 46 -26 -6 -27 -4 -13 27 10 20 18 23 74 23 l63 0
-4 -30z m-317 -70 l1 -74 -24 51 c-21 46 -26 50 -51 45 -23 -5 -27 -2 -28 18
-2 22 3 24 50 28 28 2 51 4 51 5 0 1 0 -32 1 -73z m117 -19 c3 -6 11 -3 20 9
8 11 17 18 19 15 6 -7 58 -102 58 -105 0 -4 -81 -41 -105 -49 -19 -5 -20 -1
-20 84 0 73 2 87 12 74 7 -9 14 -22 16 -28z"/>
<path d="M619 453 c-12 -3 -15 -14 -13 -42 l3 -38 -60 -7 c-34 -3 -69 -2 -79
4 -10 5 -26 7 -34 4 -13 -5 -14 -2 -5 26 6 17 9 33 6 36 -8 8 -85 9 -93 1 -4
-4 -7 -20 -7 -37 0 -27 -4 -30 -41 -35 -38 -5 -134 -2 -213 8 -35 4 -44 -11
-36 -56 5 -28 37 -41 63 -27 9 5 34 7 55 6 22 -2 49 1 61 6 12 6 38 6 64 1
l43 -8 -28 -33 c-41 -49 -75 -64 -179 -78 -41 -5 -43 -11 -13 -42 15 -16 27
-34 27 -41 0 -28 145 22 203 70 39 32 77 95 70 115 -2 7 6 12 19 13 13 1 46 3
73 5 74 6 103 -1 104 -27 1 -12 2 -38 4 -57 1 -19 -1 -56 -5 -81 -8 -53 1 -60
60 -51 27 3 31 8 27 26 -5 20 -8 104 -4 157 1 29 5 30 105 30 28 0 62 -4 75
-10 39 -14 76 -3 82 26 8 43 -2 65 -27 56 -11 -4 -59 -7 -106 -6 -133 4 -132
3 -126 20 20 51 19 63 -7 63 -14 0 -31 2 -39 4 -7 2 -20 2 -29 -1z"/>
</g>
</svg>
