<?xml version="1.0" standalone="no"?>
<!DOCTYPE svg PUBLIC "-//W3C//DTD SVG 20010904//EN"
 "http://www.w3.org/TR/2001/REC-SVG-20010904/DTD/svg10.dtd">
<svg version="1.0" xmlns="http://www.w3.org/2000/svg"
 width="101.000000pt" height="101.000000pt" viewBox="0 0 101.000000 101.000000"
 preserveAspectRatio="xMidYMid meet">
<metadata>
Created by potrace 1.16, written by Peter Selinger 2001-2019
</metadata>
<g transform="translate(0.000000,101.000000) scale(0.100000,-0.100000)"
fill="#000000" stroke="none">
<path d="M659 983 c-19 -4 -45 -84 -36 -107 4 -9 2 -18 -4 -21 -5 -4 -9 -18
-9 -33 0 -33 -6 -72 -13 -92 -3 -8 -5 -22 -5 -30 0 -22 -11 -79 -27 -135 -8
-27 -14 -52 -14 -55 0 -3 -11 -37 -24 -75 -32 -94 -63 -152 -87 -165 -19 -10
-19 -11 0 -43 11 -17 20 -40 20 -49 0 -21 8 -22 45 -8 14 5 43 12 63 16 20 3
46 7 57 10 64 14 130 24 175 27 32 2 35 -1 45 -35 5 -20 13 -40 17 -43 9 -10
98 27 98 40 0 21 -137 370 -159 404 -7 11 -17 11 -59 -3 l-50 -17 50 -106 c59
-125 64 -157 28 -160 -14 -1 -45 -4 -70 -8 -25 -3 -56 -8 -70 -9 -14 -2 -38
-7 -54 -11 -26 -7 -28 -6 -21 11 37 89 149 448 162 519 9 48 26 100 41 122 13
21 13 26 1 33 -7 5 -24 7 -36 3 -13 -3 -23 -1 -23 5 0 12 -20 19 -41 15z"/>
<path d="M370 951 c-25 -15 -150 -25 -150 -12 0 7 -25 11 -69 11 -77 0 -86 -8
-75 -66 l6 -33 127 2 126 2 0 -57 0 -57 -111 4 c-131 6 -127 9 -119 -113 3
-40 1 -74 -5 -77 -5 -3 -9 -26 -8 -50 l1 -44 37 3 c20 2 42 6 48 10 5 3 38 3
71 -1 47 -4 61 -9 57 -20 -3 -7 0 -24 6 -38 8 -18 8 -28 -1 -39 -7 -8 -14 -36
-16 -63 -7 -68 -30 -85 -107 -79 -32 3 -58 3 -58 0 0 -2 7 -21 15 -40 8 -19
14 -38 14 -42 -6 -39 25 -45 104 -21 71 21 116 60 123 105 2 16 6 47 9 69 11
85 16 121 20 145 3 14 6 41 9 62 l4 36 -66 6 c-37 3 -89 5 -117 3 l-50 -2 2
43 c0 24 3 45 5 47 1 2 53 5 115 6 l111 3 6 51 c11 96 6 224 -10 240 -17 17
-32 18 -54 6z"/>
</g>
</svg>
