<?xml version="1.0" standalone="no"?>
<!DOCTYPE svg PUBLIC "-//W3C//DTD SVG 20010904//EN"
 "http://www.w3.org/TR/2001/REC-SVG-20010904/DTD/svg10.dtd">
<svg version="1.0" xmlns="http://www.w3.org/2000/svg"
 width="101.000000pt" height="101.000000pt" viewBox="0 0 101.000000 101.000000"
 preserveAspectRatio="xMidYMid meet">
<metadata>
Created by potrace 1.16, written by Peter Selinger 2001-2019
</metadata>
<g transform="translate(0.000000,101.000000) scale(0.100000,-0.100000)"
fill="#000000" stroke="none">
<path d="M450 999 c0 -5 5 -9 10 -9 6 0 10 -25 10 -55 0 -30 -4 -55 -10 -55
-14 0 -13 -77 1 -82 8 -3 9 -28 4 -83 l-7 -80 -53 3 c-46 3 -54 1 -59 -16 -13
-40 3 -71 40 -78 19 -3 42 -4 52 -2 16 4 17 -8 17 -162 -1 -142 -4 -171 -18
-194 -18 -28 -17 -33 29 -95 2 -2 43 26 91 61 48 36 98 70 111 77 26 14 27 34
4 78 l-17 33 -49 -40 c-26 -22 -49 -40 -50 -40 0 0 0 20 2 45 3 28 0 45 -7 45
-6 0 -11 16 -11 35 0 19 5 35 10 35 6 0 10 26 10 59 l0 59 35 4 c26 3 34 0 32
-12 -1 -8 4 -35 11 -60 38 -135 101 -235 191 -303 l50 -38 45 47 c25 26 45 48
43 49 -1 2 -23 12 -49 23 -98 43 -186 157 -202 262 l-5 35 107 3 c115 3 124 7
120 57 l-3 30 -117 3 c-76 2 -118 -1 -118 -8 0 -6 -30 -10 -73 -10 l-73 0 4
85 c3 59 1 85 -7 85 -13 0 -15 67 -2 72 4 2 11 33 13 70 5 57 3 68 -11 72 -27
8 -101 4 -101 -5z"/>
<path d="M717 896 c-20 -40 -63 -101 -93 -135 -31 -34 -55 -63 -53 -64 24 -17
91 -38 98 -31 4 5 30 38 57 74 26 36 70 88 97 117 l49 52 -48 31 c-26 16 -53
30 -58 30 -6 0 -28 -33 -49 -74z"/>
<path d="M55 933 c-15 -62 23 -80 144 -70 l66 5 2 -67 3 -68 -92 4 c-67 2 -94
0 -100 -9 -9 -15 -10 -147 -1 -230 l5 -57 38 3 c20 2 43 6 49 10 20 12 93 -4
87 -19 -3 -8 0 -27 6 -43 9 -24 8 -37 -6 -66 -9 -20 -14 -40 -11 -46 11 -17
-6 -57 -30 -70 -16 -9 -28 -9 -42 -2 -11 6 -29 9 -39 6 -20 -5 -19 -7 5 -59
30 -62 44 -67 111 -32 56 28 83 65 86 119 1 24 5 59 8 78 3 19 8 74 11 121 5
74 3 87 -10 93 -9 3 -25 1 -35 -4 -11 -6 -43 -7 -75 -4 -53 7 -55 8 -56 38 0
17 -1 45 -2 61 -2 30 -2 30 53 30 30 0 61 -4 68 -9 30 -19 83 18 66 46 -7 12
-8 223 -1 235 15 24 -10 29 -80 20 -52 -8 -79 -7 -95 1 -13 6 -46 10 -75 10
-46 -1 -52 -3 -58 -25z"/>
</g>
</svg>
