<?xml version="1.0" standalone="no"?>
<!DOCTYPE svg PUBLIC "-//W3C//DTD SVG 20010904//EN"
 "http://www.w3.org/TR/2001/REC-SVG-20010904/DTD/svg10.dtd">
<svg version="1.0" xmlns="http://www.w3.org/2000/svg"
 width="101.000000pt" height="101.000000pt" viewBox="0 0 101.000000 101.000000"
 preserveAspectRatio="xMidYMid meet">
<metadata>
Created by potrace 1.16, written by Peter Selinger 2001-2019
</metadata>
<g transform="translate(0.000000,101.000000) scale(0.100000,-0.100000)"
fill="#000000" stroke="none">
<path d="M586 945 c-16 -36 -35 -70 -43 -76 -18 -15 -153 -25 -153 -11 0 5 14
15 30 21 17 5 30 14 30 18 -1 4 -20 30 -44 57 -43 49 -44 49 -77 36 -54 -21
-54 -26 -10 -77 37 -42 40 -48 24 -54 -28 -12 -112 -10 -135 2 -28 15 -85 3
-93 -20 -3 -11 -3 -31 1 -45 l6 -26 167 4 166 3 1 -51 1 -51 -78 4 c-53 2 -79
0 -79 -8 0 -6 -11 -11 -25 -11 -14 0 -25 5 -25 10 0 6 -20 10 -45 10 -61 0
-67 -14 -60 -152 2 -61 7 -114 11 -117 3 -3 55 -6 116 -6 l110 0 -54 -49 c-68
-63 -144 -112 -218 -140 l-59 -22 51 -38 51 -38 82 56 c46 31 113 86 149 122
l66 67 0 -32 c0 -17 5 -31 10 -31 15 0 12 -67 -2 -74 -10 -5 -10 -7 0 -12 9
-4 11 -21 6 -64 -7 -63 1 -72 62 -63 28 4 29 6 32 69 1 39 -2 64 -8 64 -5 0
-10 16 -10 35 0 19 5 35 10 35 6 0 10 26 10 58 l0 57 113 2 112 2 -1 -55 c0
-30 -3 -57 -7 -60 -3 -3 -35 -6 -71 -7 -36 0 -66 -3 -66 -6 0 -4 7 -16 15 -28
13 -18 22 -46 24 -77 1 -13 70 3 129 29 62 28 73 50 78 150 2 39 6 79 9 90 12
43 -4 48 -174 53 l-161 5 0 38 c0 42 3 43 76 39 18 -1 35 3 39 9 8 14 120 14
145 1 15 -8 20 -6 25 10 3 10 1 28 -5 39 -7 14 -8 49 -2 108 5 48 7 93 5 100
-5 14 -141 28 -178 19 -37 -9 -31 7 22 53 25 23 43 44 39 48 -7 7 -97 43 -106
43 -3 0 -18 -30 -34 -65z m159 -220 l0 -50 -100 0 -100 0 0 50 0 50 100 0 100
1 0 -51z m-277 -185 l-3 -45 -113 0 -113 0 5 29 c3 16 6 36 6 45 0 14 15 16
110 16 l111 0 -3 -45z"/>
</g>
</svg>
