<?xml version="1.0" standalone="no"?>
<!DOCTYPE svg PUBLIC "-//W3C//DTD SVG 20010904//EN"
 "http://www.w3.org/TR/2001/REC-SVG-20010904/DTD/svg10.dtd">
<svg version="1.0" xmlns="http://www.w3.org/2000/svg"
 width="101.000000pt" height="101.000000pt" viewBox="0 0 101.000000 101.000000"
 preserveAspectRatio="xMidYMid meet">
<metadata>
Created by potrace 1.16, written by Peter Selinger 2001-2019
</metadata>
<g transform="translate(0.000000,101.000000) scale(0.100000,-0.100000)"
fill="#000000" stroke="none">
<path d="M527 975 c3 -14 1 -31 -5 -38 -6 -7 -13 -26 -16 -43 -10 -53 -45
-146 -82 -212 -19 -35 -33 -66 -31 -69 2 -2 14 -6 26 -8 13 -2 31 -7 42 -10
16 -5 25 7 59 82 l41 88 122 0 c67 0 125 -4 128 -9 4 -5 -2 -34 -12 -64 -11
-30 -17 -58 -14 -60 3 -3 26 -7 51 -8 41 -2 46 0 56 24 5 15 11 32 12 37 1 6
5 19 9 30 7 22 15 63 23 111 l5 32 -61 -1 c-33 0 -63 -4 -66 -9 -7 -12 -52
-10 -59 3 -4 6 -38 9 -86 7 -43 -2 -79 -1 -79 2 0 3 14 29 30 59 17 30 30 55
30 56 0 5 -47 16 -86 21 -40 5 -41 4 -37 -21z"/>
<path d="M68 960 c-41 -25 -9 -108 36 -96 12 3 58 8 102 10 l81 4 6 -66 c4
-36 4 -68 2 -71 -3 -2 -52 -5 -110 -5 -123 -1 -117 6 -115 -142 0 -49 0 -99
-1 -112 0 -13 1 -26 4 -29 11 -10 105 -2 140 12 9 4 28 4 41 1 22 -5 24 -11
22 -54 -2 -27 -6 -54 -9 -60 -4 -6 -2 -22 4 -35 25 -56 -35 -121 -91 -100 -34
13 -73 6 -66 -11 3 -6 11 -30 18 -53 12 -41 22 -48 58 -45 43 5 69 11 103 25
49 21 65 61 65 173 0 49 3 107 6 129 14 96 12 107 -18 96 -13 -5 -50 -8 -82
-5 -32 2 -68 5 -79 5 -18 1 -20 7 -17 63 l4 61 101 3 c56 2 103 5 105 6 1 2 5
69 8 149 l4 146 -35 -6 c-21 -3 -41 -1 -50 7 -9 8 -25 10 -42 5 -30 -9 -112
-8 -153 0 -14 3 -33 0 -42 -5z"/>
<path d="M627 703 c-9 -15 -6 -222 3 -228 14 -9 12 -69 -2 -83 -8 -8 -8 -15 0
-24 13 -17 14 -92 1 -135 -9 -29 -14 -32 -49 -30 -50 2 -55 -4 -35 -42 9 -18
14 -35 11 -39 -3 -4 -1 -13 3 -20 5 -9 23 -7 71 6 76 20 86 34 96 135 5 47 3
67 -5 67 -16 0 -15 156 2 164 10 5 10 7 0 12 -15 7 -18 74 -3 74 6 0 10 28 10
63 0 62 0 63 -33 75 -38 14 -64 15 -70 5z"/>
<path d="M780 537 c-14 -6 -26 -12 -27 -12 -2 -1 11 -28 29 -60 17 -32 45
-102 63 -157 18 -54 35 -101 38 -104 3 -3 23 4 46 15 l41 21 -21 53 c-11 28
-33 81 -49 117 -64 149 -66 152 -120 127z"/>
<path d="M466 468 c-10 -40 -36 -111 -57 -157 -21 -46 -39 -85 -39 -87 0 -3
70 -24 83 -24 4 0 17 21 28 48 20 43 99 258 99 266 0 6 -61 26 -79 26 -12 0
-22 -20 -35 -72z"/>
</g>
</svg>
