<?xml version="1.0" standalone="no"?>
<!DOCTYPE svg PUBLIC "-//W3C//DTD SVG 20010904//EN"
 "http://www.w3.org/TR/2001/REC-SVG-20010904/DTD/svg10.dtd">
<svg version="1.0" xmlns="http://www.w3.org/2000/svg"
 width="101.000000pt" height="101.000000pt" viewBox="0 0 101.000000 101.000000"
 preserveAspectRatio="xMidYMid meet">
<metadata>
Created by potrace 1.16, written by Peter Selinger 2001-2019
</metadata>
<g transform="translate(0.000000,101.000000) scale(0.100000,-0.100000)"
fill="#000000" stroke="none">
<path d="M458 974 c-24 -7 -30 -46 -22 -160 l7 -103 89 5 89 5 -3 -38 -3 -38
-102 4 -102 3 -6 -33 c-7 -42 0 -277 9 -286 8 -8 75 -7 83 1 4 3 6 19 6 35 0
22 5 29 21 30 12 0 34 2 51 3 27 3 30 0 33 -27 6 -48 4 -127 -3 -133 -10 -11
-156 -12 -175 -2 -27 15 -59 1 -55 -23 10 -71 18 -88 37 -81 11 3 36 8 56 10
20 3 48 6 62 8 14 2 52 7 85 11 33 4 76 9 95 11 19 3 57 6 83 8 47 3 49 2 67
-35 l20 -38 40 17 c22 9 40 20 40 24 0 5 -96 174 -106 187 -5 6 -48 -7 -67
-21 -18 -13 -17 -15 3 -41 20 -25 20 -28 4 -34 -9 -3 -30 -1 -46 5 -16 6 -35
9 -43 6 -18 -7 -30 67 -16 95 6 11 8 27 4 37 -5 13 -3 16 10 11 8 -3 29 -1 45
5 24 9 36 8 63 -4 37 -18 93 -13 86 7 -13 31 -19 145 -8 145 7 0 11 19 11 48
l0 48 -103 -1 -102 0 3 33 c5 35 0 34 110 34 62 0 64 0 58 24 -14 54 -18 144
-8 157 6 7 10 27 10 45 -1 31 -2 32 -52 34 -28 1 -76 1 -106 -1 -100 -4 -175
-4 -205 2 -16 3 -37 3 -47 1z m314 -132 l3 -47 -125 0 -125 0 0 45 0 45 122 2
121 2 4 -47z m-167 -290 c-2 -7 1 -23 7 -37 16 -35 -5 -59 -46 -50 -17 3 -42
7 -56 8 -20 2 -24 7 -22 27 2 14 3 34 4 45 0 18 7 20 59 20 44 0 58 -3 54 -13z
m201 2 c-3 -8 0 -25 6 -39 16 -35 -5 -59 -46 -50 -17 3 -42 7 -56 8 -20 2 -24
7 -22 27 2 14 3 34 4 45 0 17 8 20 60 21 47 2 58 -1 54 -12z"/>
<path d="M190 959 c0 -7 -21 -10 -60 -7 -50 2 -61 0 -66 -14 -13 -41 9 -64 56
-60 8 1 42 4 75 6 l60 4 1 -72 1 -71 -67 2 c-36 1 -70 3 -76 4 -28 5 -34 -3
-34 -46 0 -25 5 -45 10 -45 13 0 13 -147 0 -155 -5 -3 -10 -15 -10 -25 0 -15
7 -18 34 -16 18 2 38 6 45 10 6 4 32 4 57 0 33 -5 44 -10 40 -20 -3 -8 -1 -25
5 -38 8 -17 8 -39 -2 -82 -7 -33 -12 -62 -11 -66 1 -4 -12 -17 -29 -29 -25
-17 -35 -19 -54 -11 -13 6 -32 8 -44 5 -19 -5 -19 -8 -7 -32 7 -14 16 -37 19
-51 7 -29 26 -31 92 -12 58 17 105 49 106 72 1 11 3 35 6 53 2 17 5 75 7 127
3 52 5 102 7 110 7 47 2 51 -68 50 -113 -2 -108 -5 -108 55 l0 53 60 5 c32 3
66 2 75 -3 9 -5 22 -5 29 -1 10 7 10 23 0 86 -11 62 -11 79 -1 83 8 2 12 26
12 67 l0 63 -40 -5 c-26 -4 -40 -2 -40 6 0 6 -17 11 -40 11 -22 0 -40 -5 -40
-11z"/>
</g>
</svg>
