<?xml version="1.0" standalone="no"?>
<!DOCTYPE svg PUBLIC "-//W3C//DTD SVG 20010904//EN"
 "http://www.w3.org/TR/2001/REC-SVG-20010904/DTD/svg10.dtd">
<svg version="1.0" xmlns="http://www.w3.org/2000/svg"
 width="101.000000pt" height="101.000000pt" viewBox="0 0 101.000000 101.000000"
 preserveAspectRatio="xMidYMid meet">
<metadata>
Created by potrace 1.16, written by Peter Selinger 2001-2019
</metadata>
<g transform="translate(0.000000,101.000000) scale(0.100000,-0.100000)"
fill="#000000" stroke="none">
<path d="M263 963 l4 -48 -76 3 c-42 1 -86 0 -98 -3 -25 -6 -37 -35 -28 -65 6
-19 13 -20 100 -17 l93 3 5 -29 4 -29 -62 7 c-79 8 -112 0 -119 -30 -11 -42 2
-55 49 -51 23 1 48 6 54 11 7 4 27 4 45 1 28 -5 33 -10 33 -36 0 -17 -5 -31
-11 -31 -49 -7 -123 -6 -136 1 -39 21 -75 -13 -63 -60 4 -16 12 -19 43 -16 20
2 42 6 48 10 6 3 36 3 66 0 56 -7 56 -7 50 -37 -7 -45 -13 -50 -48 -42 -40 8
-76 9 -83 1 -8 -8 -8 -64 0 -72 3 -3 16 -5 29 -5 60 4 229 2 277 -2 30 -3 63
-1 73 4 10 5 62 7 126 3 l109 -7 0 -27 c0 -28 -1 -28 -88 -35 -54 -4 -95 -2
-107 4 -10 5 -43 7 -73 5 -108 -11 -234 -12 -250 -4 -38 21 -74 -13 -62 -60 4
-16 11 -18 47 -14 51 8 213 8 285 1 30 -3 63 -1 74 5 12 6 49 7 96 3 l77 -7 1
-33 c1 -33 1 -33 -56 -39 -31 -3 -85 -3 -121 -1 -36 2 -94 4 -130 4 -147 0
-266 0 -288 2 -30 1 -35 -5 -35 -41 0 -36 5 -42 35 -41 22 2 141 2 288 2 36 0
94 2 130 4 36 2 90 2 121 -1 54 -5 56 -7 56 -35 0 -16 3 -32 7 -36 6 -7 86 -8
91 -1 1 2 -2 50 -6 108 -8 100 -7 187 5 276 5 41 5 41 -27 42 -77 3 -75 2 -74
37 1 25 5 33 21 34 70 5 95 4 132 -2 37 -7 42 -6 47 12 13 50 1 58 -86 59
-125 1 -124 1 -124 31 0 24 4 27 39 28 22 1 50 -2 62 -7 12 -4 29 -5 36 0 18
11 17 69 -1 81 -18 11 -56 12 -63 0 -3 -5 -21 -9 -38 -8 -29 1 -33 4 -34 28
-1 26 2 28 55 34 32 4 68 2 83 -4 31 -11 58 6 58 37 0 37 -15 43 -108 45 -77
2 -91 4 -86 17 3 8 8 29 11 45 4 30 4 30 -46 30 -49 0 -51 -1 -57 -32 -3 -18
-3 -40 0 -49 6 -15 0 -16 -46 -11 -62 8 -98 0 -98 -19 0 -10 -7 -7 -21 7 -18
18 -30 21 -73 17 l-53 -4 8 40 c4 23 5 44 3 48 -3 5 -27 8 -55 8 l-49 0 3 -47z
m241 -129 c4 -10 12 -14 24 -9 9 3 40 8 67 11 l50 4 0 -34 c0 -28 -3 -33 -20
-30 -62 12 -92 14 -104 5 -15 -9 -20 -65 -8 -78 9 -8 52 -8 98 1 34 6 36 5 36
-24 0 -26 -5 -31 -33 -36 -17 -3 -41 -1 -51 5 -26 13 -63 3 -64 -18 -1 -15 -2
-15 -6 0 -3 12 -16 17 -51 17 -87 1 -89 2 -89 32 0 28 1 28 58 25 43 -2 59 1
63 12 18 45 -9 73 -70 73 -24 0 -44 4 -44 9 0 5 -2 16 -5 23 -4 11 8 14 60 13
36 -1 65 2 65 7 0 14 18 9 24 -8z m39 -258 c100 13 101 13 103 -28 l3 -37 -52
-6 c-29 -3 -83 -3 -122 0 -38 3 -80 6 -92 6 -13 1 -23 4 -24 8 0 3 -2 19 -4
34 -3 22 0 27 11 23 8 -3 26 0 40 6 19 9 33 9 55 1 25 -10 29 -9 30 5 1 15 2
15 6 0 3 -14 12 -16 46 -12z"/>
</g>
</svg>
