<?xml version="1.0" standalone="no"?>
<!DOCTYPE svg PUBLIC "-//W3C//DTD SVG 20010904//EN"
 "http://www.w3.org/TR/2001/REC-SVG-20010904/DTD/svg10.dtd">
<svg version="1.0" xmlns="http://www.w3.org/2000/svg"
 width="101.000000pt" height="101.000000pt" viewBox="0 0 101.000000 101.000000"
 preserveAspectRatio="xMidYMid meet">
<metadata>
Created by potrace 1.16, written by Peter Selinger 2001-2019
</metadata>
<g transform="translate(0.000000,101.000000) scale(0.100000,-0.100000)"
fill="#000000" stroke="none">
<path d="M150 912 c-17 -8 -22 -83 -6 -94 14 -9 95 -8 101 2 8 12 173 11 180
-1 8 -12 142 -12 150 1 8 14 52 13 61 -1 4 -7 28 -10 64 -7 46 3 57 1 53 -10
-3 -7 0 -24 7 -37 9 -16 10 -43 6 -88 l-7 -64 -129 4 c-85 3 -130 1 -134 -6
-9 -14 -53 -14 -61 -1 -4 7 -54 10 -133 8 l-127 -3 -3 -35 c-1 -19 2 -41 6
-48 10 -14 11 -15 137 -8 96 5 99 5 305 3 l135 -1 0 -131 1 -131 -76 -2 c-140
-3 -379 3 -471 14 -70 8 -99 -5 -99 -46 0 -46 20 -58 104 -59 41 -1 78 3 81 9
8 12 52 13 59 1 8 -12 114 -13 121 -1 9 14 152 13 161 -1 5 -8 37 -10 107 -6
55 4 101 8 103 10 4 4 6 178 4 352 0 55 1 159 2 232 2 72 -1 135 -5 140 -5 4
-45 7 -90 6 -84 -2 -234 -4 -344 -4 -35 0 -91 0 -125 -1 -35 0 -76 2 -93 5
-16 4 -37 3 -45 -1z"/>
</g>
</svg>
