<?xml version="1.0" standalone="no"?>
<!DOCTYPE svg PUBLIC "-//W3C//DTD SVG 20010904//EN"
 "http://www.w3.org/TR/2001/REC-SVG-20010904/DTD/svg10.dtd">
<svg version="1.0" xmlns="http://www.w3.org/2000/svg"
 width="101.000000pt" height="101.000000pt" viewBox="0 0 101.000000 101.000000"
 preserveAspectRatio="xMidYMid meet">
<metadata>
Created by potrace 1.16, written by Peter Selinger 2001-2019
</metadata>
<g transform="translate(0.000000,101.000000) scale(0.100000,-0.100000)"
fill="#000000" stroke="none">
<path d="M721 955 c-60 -42 -163 -93 -246 -120 -44 -14 -87 -29 -95 -32 -16
-7 -60 -12 -120 -14 -19 0 -42 -5 -52 -10 -15 -8 -13 -15 20 -59 20 -28 42
-50 49 -50 55 0 573 214 573 236 0 15 -67 74 -83 74 -7 -1 -27 -12 -46 -25z"/>
<path d="M670 698 c-109 -79 -282 -157 -385 -172 -11 -2 -21 -5 -22 -6 -2 -1
-6 -3 -10 -4 -5 -1 -18 -6 -31 -10 -23 -8 -23 -8 11 -45 19 -21 36 -44 39 -52
6 -17 177 58 402 176 l159 83 -39 36 c-21 20 -46 36 -54 35 -8 0 -40 -19 -70
-41z"/>
<path d="M735 493 c-147 -130 -420 -254 -559 -254 -11 0 -28 -5 -39 -10 -18
-10 -18 -12 6 -37 13 -15 30 -37 36 -49 12 -24 49 -25 89 -4 11 6 53 23 94 37
102 36 266 120 374 190 50 32 100 64 110 70 19 11 19 12 -1 34 -11 12 -31 30
-45 40 -25 18 -25 17 -65 -17z"/>
</g>
</svg>
