<?xml version="1.0" standalone="no"?>
<!DOCTYPE svg PUBLIC "-//W3C//DTD SVG 20010904//EN"
 "http://www.w3.org/TR/2001/REC-SVG-20010904/DTD/svg10.dtd">
<svg version="1.0" xmlns="http://www.w3.org/2000/svg"
 width="101.000000pt" height="102.000000pt" viewBox="0 0 101.000000 102.000000"
 preserveAspectRatio="xMidYMid meet">
<metadata>
Created by potrace 1.16, written by Peter Selinger 2001-2019
</metadata>
<g transform="translate(0.000000,102.000000) scale(0.100000,-0.100000)"
fill="#000000" stroke="none">
<path d="M215 945 c-27 -42 -80 -105 -116 -141 l-68 -64 27 -40 c14 -22 28
-40 32 -40 9 0 101 98 165 175 31 39 69 80 83 92 26 22 26 22 7 44 -17 18 -66
49 -77 49 -2 0 -26 -34 -53 -75z"/>
<path d="M598 985 c2 -19 1 -55 -2 -79 l-7 -45 -65 -7 c-45 -4 -73 -3 -89 6
-42 22 -86 -10 -66 -48 5 -10 7 -29 4 -44 l-5 -28 -43 25 -42 25 -53 -87 c-31
-51 -84 -118 -126 -159 l-73 -72 21 -41 c11 -23 23 -41 26 -41 4 0 24 18 47
40 l40 39 -2 -188 c-2 -210 -4 -204 65 -193 32 4 37 13 34 57 -2 16 5 12 34
-19 28 -30 38 -35 46 -25 25 39 58 113 83 189 29 90 36 132 39 218 l1 52 35 0
c19 0 86 -3 148 -7 131 -7 126 4 60 -131 -32 -66 -43 -80 -54 -71 -17 14 -66
114 -68 137 -1 9 -6 25 -11 34 -9 15 -16 16 -53 6 -23 -6 -42 -16 -42 -22 0
-15 72 -160 100 -202 l21 -32 -63 -41 c-35 -23 -84 -48 -111 -57 l-48 -16 33
-38 c18 -21 38 -39 44 -39 13 -1 119 62 167 100 l38 30 47 -28 c47 -29 133
-68 163 -75 10 -2 30 16 53 45 20 26 36 49 36 51 0 3 -44 15 -88 23 -38 6
-131 43 -138 54 -3 6 1 18 9 27 34 39 147 305 135 318 -3 3 -49 6 -102 7 l-96
2 3 70 2 70 68 0 c37 0 67 -1 67 -2 0 -1 -7 -21 -16 -44 -19 -46 -11 -59 34
-59 44 0 64 20 76 80 1 3 8 27 15 53 12 42 12 50 0 58 -19 12 -89 11 -89 -1 0
-5 -16 -10 -35 -10 -19 0 -35 5 -35 10 0 6 -20 10 -45 10 l-44 0 5 67 c6 75 0
83 -56 83 -35 0 -36 -1 -32 -35z m-18 -234 c0 -16 3 -49 6 -74 l7 -46 -65 2
-65 2 1 70 1 70 58 2 c56 1 57 1 57 -26z m-204 -216 c-7 -90 -14 -145 -22
-165 -3 -8 -8 -26 -10 -39 -6 -32 -49 -114 -67 -130 -14 -11 -15 -1 -10 83 4
69 3 96 -6 96 -7 0 -11 25 -11 75 0 43 4 75 10 75 6 0 10 16 10 36 0 24 10 48
33 77 55 72 61 73 70 14 5 -29 6 -83 3 -122z"/>
</g>
</svg>
