<?xml version="1.0" standalone="no"?>
<!DOCTYPE svg PUBLIC "-//W3C//DTD SVG 20010904//EN"
 "http://www.w3.org/TR/2001/REC-SVG-20010904/DTD/svg10.dtd">
<svg version="1.0" xmlns="http://www.w3.org/2000/svg"
 width="101.000000pt" height="101.000000pt" viewBox="0 0 101.000000 101.000000"
 preserveAspectRatio="xMidYMid meet">
<metadata>
Created by potrace 1.16, written by Peter Selinger 2001-2019
</metadata>
<g transform="translate(0.000000,101.000000) scale(0.100000,-0.100000)"
fill="#000000" stroke="none">
<path d="M205 949 c-22 -33 -70 -89 -108 -126 l-67 -65 24 -29 c13 -15 26 -34
28 -41 2 -6 37 24 78 68 41 43 98 103 127 132 29 29 53 55 53 57 0 6 -81 65
-89 65 -3 0 -24 -28 -46 -61z"/>
<path d="M385 889 c0 -46 6 -55 30 -49 6 2 22 2 37 1 15 -1 29 3 33 9 7 11 67
13 100 4 23 -6 26 -43 23 -361 0 -65 3 -133 7 -150 4 -18 4 -48 1 -65 -6 -33
-6 -33 -66 -33 -60 0 -60 0 -66 33 -4 18 -2 45 4 60 6 15 11 72 11 127 0 55 2
116 6 136 4 31 2 37 -20 47 -62 28 -95 4 -95 -68 0 -27 4 -52 10 -55 12 -7 11
-146 -1 -161 -4 -6 -7 -35 -6 -65 l2 -54 -45 0 c-39 0 -45 -3 -54 -27 -7 -19
-6 -35 2 -53 11 -23 17 -25 72 -25 33 0 60 4 60 10 0 6 16 10 35 10 19 0 35
-4 35 -10 0 -5 18 -10 40 -10 22 0 40 5 40 10 0 15 67 12 73 -2 4 -10 8 -10
15 1 8 11 35 12 145 7 129 -7 135 -7 141 12 4 11 4 31 1 45 -8 29 -47 37 -175
37 l-77 0 -7 53 c-9 79 -7 167 4 167 6 0 10 11 10 25 0 17 6 25 18 26 9 0 52
1 95 2 72 2 78 4 83 25 4 12 3 33 0 46 -5 22 -12 24 -103 30 l-98 7 0 105 0
104 42 0 c24 0 43 5 45 12 4 10 19 10 73 1 38 -7 70 -11 71 -10 1 1 5 18 8 37
10 58 4 60 -114 48 -70 -7 -115 -7 -135 0 -16 5 -93 10 -170 10 l-140 1 0 -50z"/>
<path d="M231 715 c-30 -46 -87 -119 -128 -162 -79 -84 -79 -83 -34 -142 l18
-23 44 56 c24 31 48 56 53 56 11 0 -2 -275 -15 -308 -24 -62 -1 -112 51 -112
48 0 63 25 55 89 -4 31 -8 143 -9 249 l-1 193 53 55 c28 31 52 61 52 68 0 11
-72 68 -82 65 -2 0 -27 -38 -57 -84z"/>
</g>
</svg>
