<?xml version="1.0" standalone="no"?>
<!DOCTYPE svg PUBLIC "-//W3C//DTD SVG 20010904//EN"
 "http://www.w3.org/TR/2001/REC-SVG-20010904/DTD/svg10.dtd">
<svg version="1.0" xmlns="http://www.w3.org/2000/svg"
 width="101.000000pt" height="101.000000pt" viewBox="0 0 101.000000 101.000000"
 preserveAspectRatio="xMidYMid meet">
<metadata>
Created by potrace 1.16, written by Peter Selinger 2001-2019
</metadata>
<g transform="translate(0.000000,101.000000) scale(0.100000,-0.100000)"
fill="#000000" stroke="none">
<path d="M247 952 c-48 -64 -137 -148 -181 -169 -20 -9 -36 -19 -36 -23 0 -3
16 -21 35 -40 41 -40 26 -48 175 96 52 50 105 94 118 98 12 4 22 11 22 16 0
12 -72 70 -86 70 -7 0 -28 -22 -47 -48z"/>
<path d="M500 974 c-11 -3 -14 -15 -12 -43 2 -23 -2 -48 -11 -62 -8 -13 -15
-36 -15 -52 1 -35 -43 -100 -82 -123 -30 -18 -39 -34 -19 -34 6 0 24 -10 41
-21 23 -17 27 -24 16 -30 -7 -5 -21 -6 -30 -3 -21 6 -34 -32 -24 -70 5 -20 12
-24 43 -24 74 0 81 -2 45 -18 l-33 -14 18 -30 c9 -17 37 -56 60 -87 24 -32 43
-61 43 -65 0 -10 -110 -66 -141 -72 -33 -7 -59 -13 -92 -21 l-28 -7 6 95 c4
61 2 98 -5 102 -13 8 -13 52 0 60 7 4 10 38 8 84 -2 74 -1 79 32 119 18 23 41
44 52 47 30 10 21 32 -26 65 -25 16 -47 30 -49 30 -3 0 -24 -29 -47 -64 -44
-69 -142 -175 -200 -218 l-35 -26 37 -38 38 -38 45 44 c45 44 45 44 45 17 0
-15 5 -27 11 -27 14 0 2 -290 -12 -305 -13 -13 -11 -21 7 -39 20 -21 68 -20
89 1 11 11 15 26 11 45 -7 37 1 35 46 -9 l37 -36 59 26 c33 14 89 43 124 65
l65 39 59 -30 c32 -17 93 -43 135 -58 l76 -28 35 54 35 53 -36 11 c-20 6 -54
13 -76 15 -55 5 -145 35 -145 47 0 5 18 32 40 60 41 52 103 171 115 221 7 27
6 27 -32 20 -43 -8 -288 -3 -367 7 -4 1 6 17 23 36 17 20 39 52 50 73 20 40
45 147 38 159 -3 5 24 8 59 9 l64 0 0 -43 c0 -25 5 -43 11 -43 8 0 10 -18 5
-60 l-7 -61 38 -17 c45 -20 182 -20 195 1 4 6 8 31 8 55 0 41 -1 42 -27 37
-93 -20 -119 -9 -115 46 1 24 5 72 7 107 l4 63 -117 -2 c-64 -1 -130 0 -147 4
-16 3 -37 3 -45 1z m183 -450 l46 -7 -16 -31 c-8 -17 -34 -55 -56 -85 l-40
-55 -27 33 c-38 45 -82 129 -75 141 7 11 98 13 168 4z"/>
</g>
</svg>
