<?xml version="1.0" standalone="no"?>
<!DOCTYPE svg PUBLIC "-//W3C//DTD SVG 20010904//EN"
 "http://www.w3.org/TR/2001/REC-SVG-20010904/DTD/svg10.dtd">
<svg version="1.0" xmlns="http://www.w3.org/2000/svg"
 width="101.000000pt" height="101.000000pt" viewBox="0 0 101.000000 101.000000"
 preserveAspectRatio="xMidYMid meet">
<metadata>
Created by potrace 1.16, written by Peter Selinger 2001-2019
</metadata>
<g transform="translate(0.000000,101.000000) scale(0.100000,-0.100000)"
fill="#000000" stroke="none">
<path d="M190 949 c-19 -34 -63 -88 -98 -121 l-64 -59 38 -35 c31 -29 40 -33
49 -22 40 54 178 208 196 220 13 8 19 19 15 26 -8 13 -79 52 -93 52 -4 0 -24
-28 -43 -61z"/>
<path d="M545 957 l0 -53 -45 4 c-25 1 -69 5 -97 8 -50 6 -53 5 -63 -21 -27
-71 9 -84 165 -60 l40 7 0 -44 0 -43 -77 -3 c-48 -1 -78 1 -78 8 0 14 -53 13
-67 -1 -9 -9 -21 -6 -48 10 -45 26 -52 26 -60 -1 -15 -50 -87 -157 -141 -211
-40 -40 -55 -60 -46 -66 6 -4 20 -24 31 -46 l18 -38 41 51 c48 61 45 74 43
-174 -1 -171 0 -182 18 -187 10 -2 31 -2 45 0 26 5 26 6 20 69 -4 39 -3 69 4
76 13 16 14 96 1 103 -11 7 -10 173 1 180 4 3 8 31 8 64 -1 42 5 66 18 84 23
31 44 42 44 22 0 -18 56 -29 117 -22 119 14 109 16 108 -25 0 -21 -4 -39 -10
-39 -44 -7 -122 -6 -135 1 -40 21 -75 -13 -63 -60 5 -18 12 -20 53 -17 26 2
52 7 59 11 6 4 30 4 54 1 41 -6 43 -9 44 -40 1 -29 -3 -35 -26 -39 -42 -7
-124 -5 -142 4 -38 21 -74 -13 -62 -60 4 -16 11 -18 47 -14 71 10 130 13 156
8 22 -4 26 -10 27 -44 2 -37 0 -40 -30 -45 -31 -5 -123 -1 -199 8 -29 4 -37 2
-41 -14 -12 -46 23 -80 62 -60 19 10 145 13 184 5 18 -4 27 -11 23 -19 -3 -8
0 -27 7 -44 9 -24 9 -36 -1 -51 -27 -43 -7 -62 56 -52 28 4 32 7 25 26 -7 19
-7 37 -2 112 2 26 1 25 171 27 114 0 127 2 131 19 3 10 3 27 0 38 -4 16 -10
18 -32 12 -14 -4 -71 -6 -126 -5 -156 3 -144 0 -142 43 1 42 -7 40 122 43 44
1 92 -2 106 -7 22 -6 27 -4 32 13 13 51 4 56 -111 58 -158 2 -150 0 -149 38 1
28 5 33 26 34 66 4 130 1 154 -8 46 -18 53 -7 53 69 l-1 70 32 0 c40 0 65 24
61 59 -3 24 -6 26 -48 23 l-45 -3 2 80 c3 78 2 81 -22 87 -14 3 -37 3 -52 -1
-16 -5 -58 -9 -94 -9 l-66 -1 4 30 c3 17 9 37 14 46 10 19 -13 29 -71 29 l-35
0 0 -53z m232 -160 l2 -42 -72 0 -72 0 0 40 0 40 70 2 70 3 2 -43z m-2 -147
c0 -37 -2 -39 -37 -45 -20 -4 -46 -2 -57 4 -11 6 -26 9 -33 6 -10 -4 -13 4
-10 32 l4 38 66 2 67 1 0 -38z"/>
</g>
</svg>
