<?xml version="1.0" standalone="no"?>
<!DOCTYPE svg PUBLIC "-//W3C//DTD SVG 20010904//EN"
 "http://www.w3.org/TR/2001/REC-SVG-20010904/DTD/svg10.dtd">
<svg version="1.0" xmlns="http://www.w3.org/2000/svg"
 width="101.000000pt" height="101.000000pt" viewBox="0 0 101.000000 101.000000"
 preserveAspectRatio="xMidYMid meet">
<metadata>
Created by potrace 1.16, written by Peter Selinger 2001-2019
</metadata>
<g transform="translate(0.000000,101.000000) scale(0.100000,-0.100000)"
fill="#000000" stroke="none">
<path d="M238 967 c-30 -46 -111 -134 -171 -185 l-38 -32 37 -35 c20 -19 40
-35 44 -35 9 0 250 267 250 277 0 11 -66 53 -82 53 -7 0 -25 -19 -40 -43z"/>
<path d="M410 952 c-10 -4 -15 -22 -16 -50 -1 -36 3 -43 22 -48 13 -3 27 -3
33 0 6 4 60 9 121 11 105 4 110 3 100 -15 -24 -45 -159 -151 -250 -197 -113
-57 -109 -54 -90 -61 8 -3 29 -20 46 -38 l32 -33 88 60 c49 33 98 68 109 78
11 9 29 16 41 16 25 -2 121 -63 187 -118 l49 -40 24 29 c46 54 47 61 15 83
-29 21 -185 104 -211 113 -11 3 0 22 41 69 31 35 68 80 82 100 l27 36 -62 1
c-97 1 -182 1 -250 0 -35 0 -76 2 -93 5 -16 4 -37 3 -45 -1z"/>
<path d="M261 750 c-32 -57 -125 -177 -187 -241 l-54 -55 25 -24 c14 -13 25
-29 25 -37 0 -23 17 -14 57 31 l38 43 -3 -105 c-1 -67 2 -109 9 -118 8 -10 9
-37 5 -84 -7 -68 -7 -69 18 -76 39 -9 63 3 70 38 9 47 7 108 -4 108 -5 0 -10
11 -10 25 0 14 5 25 10 25 6 0 10 30 10 70 0 40 -4 70 -10 70 -5 0 -10 16 -10
35 0 19 5 35 10 35 6 0 10 21 10 46 0 47 20 82 92 160 27 29 28 31 10 47 -10
9 -34 23 -53 31 l-36 15 -22 -39z"/>
<path d="M393 502 c-22 -14 -26 -58 -7 -77 15 -15 29 -16 103 -11 l86 7 1 -95
2 -95 -102 4 c-55 3 -112 8 -126 10 -33 7 -49 -4 -55 -40 -10 -52 4 -60 97
-58 171 5 194 4 235 -2 23 -4 64 -2 93 4 37 8 55 8 69 0 11 -8 40 -9 82 -5
l64 7 0 45 c0 43 -1 45 -25 38 -46 -12 -180 -16 -180 -5 0 6 -12 11 -27 11
l-28 0 0 85 0 85 43 0 c23 0 42 5 42 10 0 7 20 9 58 4 65 -7 78 3 66 51 -5 21
-13 24 -96 30 -61 5 -93 4 -101 -4 -14 -14 -54 -14 -62 -1 -7 11 -215 13 -232
2z"/>
</g>
</svg>
