<?xml version="1.0" standalone="no"?>
<!DOCTYPE svg PUBLIC "-//W3C//DTD SVG 20010904//EN"
 "http://www.w3.org/TR/2001/REC-SVG-20010904/DTD/svg10.dtd">
<svg version="1.0" xmlns="http://www.w3.org/2000/svg"
 width="101.000000pt" height="101.000000pt" viewBox="0 0 101.000000 101.000000"
 preserveAspectRatio="xMidYMid meet">
<metadata>
Created by potrace 1.16, written by Peter Selinger 2001-2019
</metadata>
<g transform="translate(0.000000,101.000000) scale(0.100000,-0.100000)"
fill="#000000" stroke="none">
<path d="M210 948 c-35 -61 -113 -150 -160 -182 -24 -16 -24 -17 -5 -28 10 -6
30 -22 42 -34 l23 -23 39 42 c21 23 66 75 101 115 34 40 71 77 81 83 10 5 19
14 19 18 0 8 -91 71 -101 71 -2 0 -20 -28 -39 -62z"/>
<path d="M560 991 c0 -12 5 -21 11 -21 6 0 9 -19 7 -47 l-3 -48 -88 0 c-49 0
-94 3 -100 7 -20 12 -47 -11 -47 -42 0 -54 22 -63 127 -55 l93 7 0 -39 c0 -21
3 -48 6 -60 6 -23 6 -23 -98 -18 -57 2 -110 6 -118 9 -22 8 -39 -6 -45 -39
-10 -56 1 -60 142 -58 l128 2 0 -160 0 -161 -27 33 c-56 66 -77 138 -52 176
19 30 19 31 -22 48 -63 26 -91 6 -93 -65 -2 -67 -39 -169 -83 -230 -29 -40
-33 -42 -36 -22 -2 12 -8 22 -13 22 -5 0 -9 20 -9 45 0 25 5 45 10 45 6 0 10
57 10 150 l0 149 44 55 c41 50 43 55 28 69 -19 16 -83 50 -86 45 0 -2 -15 -32
-32 -68 -36 -75 -92 -146 -151 -192 -45 -34 -45 -37 0 -91 l24 -29 32 34 31
33 0 -57 c0 -32 4 -58 10 -58 6 0 10 -16 10 -35 0 -19 -4 -35 -9 -35 -6 0 -9
-41 -8 -94 2 -104 4 -107 65 -98 27 3 32 9 38 39 l7 34 33 -32 33 -32 29 47
c16 25 40 71 53 101 13 30 27 55 31 55 4 0 14 -12 22 -27 47 -90 154 -144 312
-157 23 -2 46 -6 50 -9 5 -3 26 -2 47 2 33 5 41 11 52 41 7 19 15 42 19 51 9
21 -26 31 -61 18 -40 -15 -192 -13 -208 3 -5 5 -8 85 -4 139 1 30 0 30 132 31
82 1 88 3 93 24 14 56 8 59 -111 59 l-110 0 0 48 0 47 71 0 c39 0 98 3 131 6
l60 6 -1 42 c-1 50 -16 62 -55 41 -34 -17 -171 -21 -171 -5 0 6 -13 10 -29 10
-28 0 -29 1 -27 53 l1 52 110 3 c119 3 129 8 120 57 -5 30 -23 48 -38 38 -5
-3 -50 -6 -100 -7 l-92 -1 2 45 c1 25 3 54 5 65 3 18 -3 20 -49 23 -48 3 -53
1 -53 -17z"/>
</g>
</svg>
