<?xml version="1.0" standalone="no"?>
<!DOCTYPE svg PUBLIC "-//W3C//DTD SVG 20010904//EN"
 "http://www.w3.org/TR/2001/REC-SVG-20010904/DTD/svg10.dtd">
<svg version="1.0" xmlns="http://www.w3.org/2000/svg"
 width="101.000000pt" height="101.000000pt" viewBox="0 0 101.000000 101.000000"
 preserveAspectRatio="xMidYMid meet">
<metadata>
Created by potrace 1.16, written by Peter Selinger 2001-2019
</metadata>
<g transform="translate(0.000000,101.000000) scale(0.100000,-0.100000)"
fill="#000000" stroke="none">
<path d="M207 955 c-16 -24 -60 -75 -98 -112 -59 -58 -66 -69 -51 -77 9 -5 27
-18 40 -29 l23 -21 61 69 c34 39 81 89 105 112 24 24 43 45 43 48 0 6 -77 55
-87 55 -5 0 -21 -20 -36 -45z"/>
<path d="M381 931 c-13 -39 -39 -94 -58 -122 -18 -28 -33 -52 -33 -54 0 -1 11
-6 24 -9 13 -3 31 -8 39 -12 10 -3 22 8 37 35 13 21 30 41 39 44 13 3 16 -6
16 -57 l0 -61 -54 2 c-63 3 -91 -9 -91 -40 0 -37 12 -44 80 -43 l65 1 0 -154
c-1 -149 -2 -154 -22 -157 -19 -3 -21 3 -28 63 -5 46 -4 68 4 71 9 3 17 110 9
113 -2 0 -24 3 -50 5 l-48 5 0 -65 c0 -37 4 -66 10 -66 6 0 10 -16 10 -35 0
-19 -5 -35 -11 -35 -7 0 -10 -17 -8 -44 2 -24 2 -43 -1 -41 -3 1 -15 -1 -28
-6 -24 -9 -24 -14 -1 -76 l8 -23 53 21 c29 11 109 36 177 55 68 19 126 35 128
37 1 2 5 24 7 50 l5 46 -65 -25 c-58 -22 -65 -22 -71 -8 -3 10 -1 30 5 46 6
16 8 36 6 43 -5 11 7 13 55 10 53 -3 61 -2 66 16 16 49 -22 77 -88 66 -32 -5
-32 -5 -32 39 l-1 44 46 2 c25 0 52 1 60 0 12 -1 15 10 15 44 0 44 -1 45 -30
43 -16 -1 -43 -1 -60 0 -30 1 -30 2 -30 59 l0 57 57 0 c62 0 73 8 62 51 -8 30
-28 35 -127 32 -42 -2 -77 0 -77 4 0 3 12 21 26 38 31 36 25 46 -31 55 l-40 7
-24 -71z"/>
<path d="M670 879 c0 -33 4 -59 10 -59 6 0 10 -16 10 -35 0 -19 -4 -35 -10
-35 -6 0 -10 -30 -10 -70 0 -40 4 -70 10 -70 6 0 10 -11 10 -25 0 -14 -4 -25
-10 -25 -6 0 -10 -40 -10 -100 0 -69 4 -100 11 -100 14 0 6 -170 -9 -211 -15
-38 0 -54 49 -52 23 1 43 4 45 6 3 2 0 36 -6 75 -8 50 -8 77 -1 91 6 11 9 28
6 38 -3 10 5 -4 17 -30 21 -44 25 -47 53 -42 17 3 41 14 55 24 22 16 26 29 34
111 6 66 5 99 -3 112 -14 22 -14 55 -1 63 13 8 13 142 1 150 -13 8 -13 166 1
182 5 7 8 23 4 36 -5 22 -9 22 -131 24 l-125 1 0 -59z m162 -72 c-2 -26 1 -53
7 -61 13 -15 13 -146 0 -162 -5 -6 -8 -67 -7 -134 l3 -123 -25 -2 c-42 -4 -45
2 -43 72 1 37 -2 72 -6 77 -13 15 -13 147 -1 161 6 7 9 57 8 117 l-3 104 35
-1 35 0 -3 -48z"/>
<path d="M220 745 c-18 -47 -82 -138 -136 -195 l-54 -57 21 -48 22 -49 21 25
c11 13 31 38 43 54 l21 30 1 -25 c1 -14 3 -66 6 -115 4 -67 2 -102 -10 -134
-11 -32 -12 -48 -4 -63 6 -11 8 -30 5 -43 -7 -26 14 -36 57 -28 24 5 24 6 30
151 4 81 6 198 6 261 l-1 114 41 48 41 48 -37 26 c-47 31 -61 32 -73 0z"/>
</g>
</svg>
