<?xml version="1.0" standalone="no"?>
<!DOCTYPE svg PUBLIC "-//W3C//DTD SVG 20010904//EN"
 "http://www.w3.org/TR/2001/REC-SVG-20010904/DTD/svg10.dtd">
<svg version="1.0" xmlns="http://www.w3.org/2000/svg"
 width="101.000000pt" height="101.000000pt" viewBox="0 0 101.000000 101.000000"
 preserveAspectRatio="xMidYMid meet">
<metadata>
Created by potrace 1.16, written by Peter Selinger 2001-2019
</metadata>
<g transform="translate(0.000000,101.000000) scale(0.100000,-0.100000)"
fill="#000000" stroke="none">
<path d="M170 957 c-14 -28 -50 -78 -81 -111 l-56 -60 35 -33 c19 -18 36 -32
37 -31 63 87 160 208 171 212 24 9 16 23 -30 50 -25 14 -46 26 -48 26 -2 -1
-14 -24 -28 -53z"/>
<path d="M438 1003 c-13 -3 -17 -15 -16 -54 0 -27 4 -52 9 -55 10 -6 12 -57 3
-101 -5 -26 -9 -28 -39 -25 -33 4 -33 5 -30 46 2 22 6 53 10 69 4 15 3 27 -1
28 -5 0 -26 2 -46 5 -35 4 -37 3 -43 -30 -4 -19 -5 -60 -3 -90 1 -31 2 -56 0
-56 -1 0 -20 11 -42 25 -45 29 -50 30 -50 12 0 -29 -71 -156 -118 -213 -29
-34 -47 -65 -43 -70 5 -5 14 -26 21 -46 6 -21 15 -38 18 -38 4 0 19 19 34 42
23 37 26 39 27 17 0 -13 3 -55 6 -94 2 -38 1 -116 -3 -172 -8 -114 -11 -108
58 -103 43 3 46 5 30 25 -10 12 -10 21 -2 40 6 14 9 32 6 40 -9 22 11 18 44
-10 l29 -24 20 22 c44 48 77 151 76 232 -1 17 6 21 37 22 33 2 38 -1 38 -20 0
-12 3 -34 7 -49 5 -17 1 -38 -9 -59 -15 -30 -15 -34 5 -65 24 -40 30 -41 55
-13 10 12 43 37 72 56 28 18 52 37 52 42 0 13 -22 71 -27 71 -2 0 -19 -11 -38
-25 l-33 -26 -7 40 c-4 22 -2 48 4 59 5 10 8 28 5 39 -5 19 -12 21 -86 17 -43
-2 -87 0 -97 5 -44 24 -81 -17 -58 -66 8 -19 8 -29 -2 -44 -6 -11 -14 -37 -17
-56 -5 -40 -37 -98 -58 -106 -19 -7 -32 89 -15 109 9 11 9 18 1 26 -15 15 -16
75 -2 83 6 4 9 42 8 90 -1 76 1 87 26 126 20 30 30 38 36 29 6 -10 40 -12 152
-8 78 3 153 3 165 -1 l22 -6 -21 -33 c-14 -22 -23 -30 -28 -22 -6 10 -19 9
-58 -1 -42 -10 -58 -10 -91 1 -21 7 -54 10 -73 7 -18 -2 -41 0 -51 5 -35 18
-62 -33 -38 -70 11 -18 74 -17 142 2 16 5 51 2 85 -7 67 -17 82 -14 90 19 7
29 14 30 47 4 14 -11 28 -20 32 -20 3 0 19 28 35 63 26 54 34 63 62 67 l33 6
-1 -76 c-2 -90 -10 -145 -28 -197 l-13 -38 -16 53 c-9 30 -19 68 -23 87 -6 32
-6 32 -45 22 -26 -6 -39 -15 -39 -26 0 -25 29 -120 52 -169 17 -36 18 -45 7
-59 -23 -27 -125 -90 -179 -109 -27 -10 -50 -21 -50 -24 0 -4 19 -22 41 -40
l41 -33 42 20 c23 12 71 43 107 70 l65 49 68 -63 c38 -35 72 -63 77 -63 10 0
78 71 79 82 0 4 -27 21 -59 38 -32 17 -71 44 -86 60 l-27 28 20 38 c39 76 50
131 54 271 l3 81 41 -5 c38 -4 42 -3 48 22 14 56 6 61 -109 61 -77 -1 -104 2
-101 11 3 6 10 31 16 55 7 24 20 57 31 74 l19 31 -24 11 c-13 6 -40 14 -59 17
-31 6 -35 4 -43 -22 -4 -15 -9 -37 -11 -48 -1 -11 -5 -31 -8 -45 -3 -14 -7
-40 -10 -58 -3 -18 -13 -52 -24 -75 -19 -41 -19 -41 -20 -12 0 17 3 62 7 102
8 72 8 72 -19 84 -15 6 -37 8 -48 4 -18 -6 -20 -13 -18 -88 l2 -82 -29 -3 -29
-4 7 104 c4 57 9 110 12 119 3 10 -5 20 -21 27 -27 12 -29 13 -57 5z"/>
</g>
</svg>
