<?xml version="1.0" standalone="no"?>
<!DOCTYPE svg PUBLIC "-//W3C//DTD SVG 20010904//EN"
 "http://www.w3.org/TR/2001/REC-SVG-20010904/DTD/svg10.dtd">
<svg version="1.0" xmlns="http://www.w3.org/2000/svg"
 width="101.000000pt" height="102.000000pt" viewBox="0 0 101.000000 102.000000"
 preserveAspectRatio="xMidYMid meet">
<metadata>
Created by potrace 1.16, written by Peter Selinger 2001-2019
</metadata>
<g transform="translate(0.000000,102.000000) scale(0.100000,-0.100000)"
fill="#000000" stroke="none">
<path d="M195 999 c-15 -46 -77 -139 -124 -186 l-50 -48 34 -36 33 -37 24 27
c14 14 55 66 92 114 37 48 76 93 87 100 10 6 19 15 19 19 0 6 -95 68 -104 68
-3 0 -8 -10 -11 -21z"/>
<path d="M794 1000 c-19 -8 -36 -11 -129 -27 -56 -9 -150 -14 -232 -13 -74 1
-83 -1 -93 -20 -6 -12 -11 -36 -10 -53 1 -18 2 -56 1 -85 l-1 -52 -37 23 c-21
13 -43 26 -49 30 -7 4 -30 -26 -60 -79 -26 -47 -74 -114 -107 -149 l-59 -65
32 -40 c18 -23 34 -40 35 -38 2 2 17 20 33 41 27 34 30 35 31 15 4 -54 2 -227
-2 -268 -3 -25 -2 -64 0 -87 6 -44 20 -55 66 -46 28 6 41 42 27 79 -5 13 -12
80 -16 149 -6 103 -4 129 7 137 11 7 11 11 2 15 -15 6 -18 73 -3 73 6 0 10 20
10 45 0 35 7 55 31 88 31 43 56 63 66 53 8 -7 6 -172 -1 -184 -3 -5 0 -22 6
-39 9 -23 8 -39 -5 -78 -9 -26 -15 -51 -12 -55 7 -11 -24 -110 -46 -149 l-20
-34 40 -39 40 -38 20 38 c26 52 52 147 56 207 2 28 6 68 9 90 3 22 7 93 10
158 2 66 7 121 10 125 3 3 6 1 6 -4 0 -5 37 -9 82 -9 l83 0 5 -40 c6 -40 5
-41 -25 -40 -17 1 -37 5 -44 9 -7 4 -27 5 -46 2 l-34 -7 5 -77 c2 -42 4 -96 5
-119 0 -24 0 -53 1 -65 0 -13 0 -80 0 -150 1 -138 3 -142 63 -131 24 5 26 8
21 48 -4 38 -2 43 17 44 12 0 54 3 92 6 39 3 84 3 100 0 28 -5 31 -9 32 -46 2
-51 5 -53 50 -52 36 1 57 18 45 38 -12 18 -19 352 -9 410 3 17 8 39 12 51 4
14 0 27 -11 39 -16 16 -33 17 -89 5 -5 -1 -26 -2 -46 -1 -32 1 -37 4 -41 30
l-4 28 120 7 c127 7 138 12 134 56 -3 27 -20 30 -81 14 -16 -4 -38 -2 -50 5
-12 6 -44 10 -72 9 l-50 -3 0 55 0 56 52 -4 c73 -6 143 6 143 24 0 8 -11 32
-25 54 -26 41 -47 48 -91 30z m-174 -151 c0 -21 3 -44 6 -52 5 -13 -4 -15 -53
-12 -32 2 -68 7 -79 10 -15 5 -28 0 -41 -14 -19 -20 -19 -20 -19 17 1 20 -2
46 -7 57 -6 19 -4 21 27 17 19 -2 41 0 49 5 9 4 38 8 66 9 l51 0 0 -37z m171
-265 c9 -3 15 -17 16 -39 1 -31 -2 -35 -30 -40 -18 -3 -63 -3 -102 0 -38 3
-80 6 -91 6 -18 1 -22 7 -21 33 1 31 1 31 54 29 29 -1 55 2 58 7 6 9 87 12
116 4z m-10 -130 c21 -4 25 -11 26 -39 1 -31 -2 -35 -30 -40 -18 -3 -63 -3
-102 0 -38 3 -80 6 -91 6 -18 1 -22 7 -21 35 1 26 5 33 16 29 9 -2 22 -1 30 4
15 10 132 13 172 5z m-1 -130 c22 -4 26 -10 27 -44 2 -37 0 -40 -30 -45 -18
-3 -63 -3 -102 0 -38 3 -80 6 -92 6 -19 1 -22 7 -20 40 1 30 5 38 17 34 8 -2
21 -1 29 4 15 10 132 13 171 5z"/>
</g>
</svg>
