<?xml version="1.0" standalone="no"?>
<!DOCTYPE svg PUBLIC "-//W3C//DTD SVG 20010904//EN"
 "http://www.w3.org/TR/2001/REC-SVG-20010904/DTD/svg10.dtd">
<svg version="1.0" xmlns="http://www.w3.org/2000/svg"
 width="101.000000pt" height="101.000000pt" viewBox="0 0 101.000000 101.000000"
 preserveAspectRatio="xMidYMid meet">
<metadata>
Created by potrace 1.16, written by Peter Selinger 2001-2019
</metadata>
<g transform="translate(0.000000,101.000000) scale(0.100000,-0.100000)"
fill="#000000" stroke="none">
<path d="M198 940 c3 -39 0 -60 -7 -60 -6 0 -11 -18 -11 -40 0 -22 5 -40 10
-40 6 0 10 -33 10 -80 0 -47 -4 -80 -10 -80 -6 0 -10 -30 -10 -70 0 -40 4 -70
10 -70 6 0 10 -11 10 -25 0 -14 -5 -25 -10 -25 -7 0 -10 -58 -8 -174 3 -193 1
-187 71 -178 38 4 43 13 39 65 -2 23 2 22 43 -14 l35 -31 34 25 c103 79 182
190 207 292 6 28 16 58 21 67 9 18 21 161 22 258 l1 55 68 2 67 3 0 -45 c0
-25 5 -45 10 -45 6 0 10 -11 10 -25 0 -14 -4 -25 -10 -25 -5 0 -9 -19 -9 -42
-1 -120 -7 -224 -14 -235 -4 -6 -2 -23 4 -37 10 -20 8 -32 -5 -61 -9 -19 -15
-39 -12 -44 3 -5 -6 -17 -21 -26 -21 -14 -32 -16 -55 -7 -15 5 -37 8 -48 5
-19 -5 -19 -5 0 -44 11 -21 20 -45 20 -52 0 -24 35 -26 96 -6 97 32 114 61
120 204 1 33 6 76 9 95 4 19 9 69 11 110 10 202 14 267 20 292 3 15 4 38 0 51
-5 22 -11 24 -81 25 -45 2 -75 -2 -75 -8 0 -5 -11 -10 -25 -10 -14 0 -25 5
-25 10 0 6 -30 10 -70 10 -40 0 -70 -4 -70 -10 0 -5 -16 -10 -35 -10 -19 0
-35 5 -35 10 0 6 -24 10 -54 10 -61 0 -71 -11 -60 -66 l6 -32 81 1 82 2 2
-109 c2 -86 0 -113 -12 -126 -8 -9 -15 -28 -15 -41 2 -70 -35 -168 -85 -227
-22 -27 -97 -84 -150 -114 -6 -4 -9 34 -7 107 2 71 -1 116 -8 120 -13 8 -13
52 0 60 13 8 13 142 1 150 -12 7 -13 172 -1 180 5 3 9 29 8 58 0 29 3 67 7 85
4 17 4 32 -1 33 -5 1 -29 3 -54 5 l-45 4 3 -60z"/>
<path d="M325 788 c-16 -6 -31 -12 -33 -13 -2 -2 8 -27 22 -56 13 -30 30 -73
37 -96 7 -24 16 -43 21 -43 20 0 78 30 78 40 0 23 -74 180 -84 179 -6 0 -24
-5 -41 -11z"/>
<path d="M86 775 c-17 -17 -31 -78 -22 -94 4 -5 2 -12 -4 -16 -5 -3 -9 -16 -9
-28 1 -22 -4 -51 -16 -88 -4 -10 -3 -19 2 -20 4 0 27 -2 51 -5 23 -3 42 -1 43
3 0 4 3 17 5 28 3 11 6 27 8 35 1 8 5 26 9 40 4 14 9 43 11 65 2 22 7 48 11
58 4 9 3 18 -1 18 -5 1 -19 3 -30 4 -12 1 -26 5 -32 9 -6 3 -17 -1 -26 -9z"/>
</g>
</svg>
