<?xml version="1.0" standalone="no"?>
<!DOCTYPE svg PUBLIC "-//W3C//DTD SVG 20010904//EN"
 "http://www.w3.org/TR/2001/REC-SVG-20010904/DTD/svg10.dtd">
<svg version="1.0" xmlns="http://www.w3.org/2000/svg"
 width="101.000000pt" height="102.000000pt" viewBox="0 0 101.000000 102.000000"
 preserveAspectRatio="xMidYMid meet">
<metadata>
Created by potrace 1.16, written by Peter Selinger 2001-2019
</metadata>
<g transform="translate(0.000000,102.000000) scale(0.100000,-0.100000)"
fill="#000000" stroke="none">
<path d="M596 994 c-4 -14 -4 -30 0 -35 3 -6 8 -39 10 -75 l3 -64 -110 5
c-101 5 -110 4 -109 -12 1 -10 2 -36 1 -58 l-1 -40 -26 45 c-14 25 -27 46 -29
48 -1 2 -18 -3 -37 -11 l-34 -14 4 71 c2 39 6 88 9 109 4 27 2 37 -8 38 -77 6
-100 3 -105 -13 -3 -10 -2 -23 2 -29 6 -10 13 -124 13 -221 1 -201 1 -296 1
-368 1 -75 -4 -165 -11 -210 -8 -55 9 -71 67 -63 31 5 32 8 33 103 0 14 0 62
1 108 0 50 -3 82 -10 82 -5 0 -10 20 -10 45 0 25 5 45 10 45 6 0 10 30 10 70
0 40 -4 70 -10 70 -6 0 -10 32 -10 75 0 41 4 75 9 75 5 0 23 -37 39 -82 30
-83 35 -88 77 -75 18 6 20 3 18 -45 0 -28 4 -59 10 -69 8 -13 7 -31 -5 -73 -8
-30 -11 -60 -7 -68 7 -12 85 -15 96 -4 3 2 5 20 6 39 1 28 5 35 21 36 12 0 37
2 56 3 32 3 35 1 38 -27 7 -69 6 -223 -1 -266 -8 -41 -7 -47 10 -51 11 -3 33
-3 51 0 31 4 31 4 24 51 -4 25 -6 91 -5 146 3 147 3 147 19 141 8 -3 25 -1 38
6 14 6 35 8 49 4 18 -4 24 -12 24 -36 0 -16 3 -33 7 -37 6 -7 85 -8 91 -1 2 2
-2 81 -8 177 -8 133 -8 176 1 179 7 2 12 25 12 55 l0 52 -45 2 c-25 1 -45 -3
-45 -8 0 -5 -11 -9 -25 -9 -14 0 -25 5 -25 10 0 6 -20 10 -45 10 l-45 0 5 68
c2 37 7 75 11 86 9 24 -8 33 -61 34 -38 1 -44 -2 -49 -24z m9 -379 l0 -120
-35 3 c-19 1 -44 3 -55 3 -19 1 -20 8 -20 118 l0 116 55 0 55 0 0 -120z m210
5 c0 -118 -1 -121 -23 -127 -13 -3 -34 -1 -48 5 -13 7 -31 9 -40 5 -16 -6 -17
2 -11 78 4 46 7 98 7 116 0 30 2 32 43 36 23 2 49 4 57 5 13 2 15 -17 15 -118z"/>
<path d="M73 802 c-14 -9 -25 -51 -29 -107 -1 -22 -5 -47 -8 -56 -4 -9 -6 -20
-5 -25 2 -5 -1 -24 -5 -42 -4 -18 -6 -35 -4 -38 3 -2 23 -7 45 -10 38 -5 41
-4 49 23 8 29 11 47 20 123 2 25 7 62 10 83 4 24 2 37 -5 37 -19 0 -25 2 -42
10 -8 5 -20 5 -26 2z"/>
</g>
</svg>
