<?xml version="1.0" standalone="no"?>
<!DOCTYPE svg PUBLIC "-//W3C//DTD SVG 20010904//EN"
 "http://www.w3.org/TR/2001/REC-SVG-20010904/DTD/svg10.dtd">
<svg version="1.0" xmlns="http://www.w3.org/2000/svg"
 width="101.000000pt" height="101.000000pt" viewBox="0 0 101.000000 101.000000"
 preserveAspectRatio="xMidYMid meet">
<metadata>
Created by potrace 1.16, written by Peter Selinger 2001-2019
</metadata>
<g transform="translate(0.000000,101.000000) scale(0.100000,-0.100000)"
fill="#000000" stroke="none">
<path d="M174 975 c-3 -19 -3 -48 0 -63 6 -26 15 -160 15 -234 0 -21 0 -91 0
-155 1 -65 3 -152 5 -193 4 -69 -4 -164 -18 -200 -11 -28 11 -44 55 -43 50 2
52 5 52 42 0 29 1 29 26 16 14 -7 35 -22 45 -34 18 -20 20 -20 48 -3 78 45
181 188 213 297 l12 39 22 -66 c35 -106 101 -196 194 -266 l28 -20 46 49 c25
27 44 51 42 53 -2 2 -25 13 -51 24 -66 29 -132 94 -168 165 -36 72 -37 84 -7
86 82 5 176 4 198 -3 24 -7 27 -5 31 25 9 60 1 70 -51 65 l-46 -4 -2 109 c-2
62 1 109 6 109 13 0 24 36 17 58 -5 15 -20 17 -116 17 l-110 0 6 50 c3 28 7
64 9 80 l5 30 -60 0 c-55 0 -61 -2 -67 -23 -3 -13 0 -29 6 -35 12 -12 15 -86
3 -102 -8 -12 -57 -13 -88 -2 -36 13 -74 -8 -74 -40 0 -49 10 -54 86 -48 l69
5 -2 -101 c-2 -56 -5 -104 -8 -107 -7 -7 -68 -6 -115 2 -40 7 -71 9 -76 3 -5
-5 -7 -36 -6 -70 2 -26 4 -27 46 -24 24 2 48 7 55 11 6 4 30 5 52 1 46 -8 46
-11 -2 -111 -42 -89 -108 -151 -195 -184 l-26 -10 7 105 c5 74 4 105 -4 105
-6 0 -11 19 -11 45 0 25 5 45 10 45 6 0 10 53 10 138 l1 137 19 -37 c17 -32
26 -60 29 -90 2 -20 101 15 101 36 0 14 -71 155 -81 162 -5 2 -22 -2 -38 -11
-17 -8 -33 -15 -36 -15 -7 0 2 161 11 184 9 24 -6 32 -66 35 -49 2 -49 2 -56
-34z m598 -237 c2 -13 0 -35 -5 -50 -5 -15 -7 -53 -5 -83 3 -51 1 -56 -20 -62
-13 -3 -34 -1 -48 5 -13 7 -29 9 -36 7 -10 -4 -12 6 -10 37 2 24 4 68 5 98 2
53 3 55 32 61 64 13 83 10 87 -13z"/>
<path d="M65 794 c-10 -10 -16 -32 -15 -58 0 -55 -15 -187 -25 -213 -2 -7 -1
-13 3 -14 4 0 28 -3 55 -5 50 -6 53 -2 49 56 0 8 3 21 8 30 4 8 11 56 14 106
6 90 6 91 -19 102 -35 16 -51 15 -70 -4z"/>
</g>
</svg>
