<?xml version="1.0" standalone="no"?>
<!DOCTYPE svg PUBLIC "-//W3C//DTD SVG 20010904//EN"
 "http://www.w3.org/TR/2001/REC-SVG-20010904/DTD/svg10.dtd">
<svg version="1.0" xmlns="http://www.w3.org/2000/svg"
 width="101.000000pt" height="101.000000pt" viewBox="0 0 101.000000 101.000000"
 preserveAspectRatio="xMidYMid meet">
<metadata>
Created by potrace 1.16, written by Peter Selinger 2001-2019
</metadata>
<g transform="translate(0.000000,101.000000) scale(0.100000,-0.100000)"
fill="#000000" stroke="none">
<path d="M189 1002 c0 -4 0 -33 1 -64 1 -36 -3 -58 -9 -58 -6 0 -11 -18 -11
-40 0 -22 5 -40 10 -40 6 0 10 -33 10 -80 0 -47 -4 -80 -10 -80 -6 0 -10 -30
-10 -70 0 -40 4 -70 10 -70 6 0 10 -11 10 -25 0 -14 -4 -25 -10 -25 -6 0 -10
-40 -10 -100 0 -68 4 -100 11 -100 12 0 7 -107 -6 -142 -8 -21 31 -34 71 -24
l27 7 -8 163 c-4 111 -3 166 4 170 12 8 13 114 0 122 -13 7 -11 51 2 59 6 4 9
37 7 85 -2 43 -1 77 2 75 3 -2 19 -31 35 -65 26 -54 32 -60 53 -55 20 5 22 3
13 -12 -5 -10 -23 -27 -40 -38 -38 -25 -38 -30 -3 -44 15 -6 37 -18 49 -27 21
-15 23 -14 52 26 39 54 112 197 145 287 15 40 32 75 37 79 18 11 9 32 -18 42
-34 12 -83 15 -84 4 -1 -4 -3 -20 -5 -35 -4 -39 -21 -90 -57 -169 l-29 -68
-38 63 c-39 63 -57 73 -100 53 -13 -5 -15 7 -13 78 0 47 4 89 7 95 4 5 1 13
-5 17 -16 10 -89 15 -90 6z"/>
<path d="M676 961 c-6 -9 0 -66 8 -79 3 -5 7 -20 10 -34 13 -72 96 -232 164
-317 l20 -24 45 39 45 39 -62 65 c-35 36 -71 80 -81 99 -26 51 -53 134 -47
149 2 7 -1 26 -8 41 -9 23 -18 28 -50 29 -21 1 -41 -2 -44 -7z"/>
<path d="M55 791 c-3 -11 -6 -39 -6 -63 0 -65 -7 -149 -13 -155 -3 -3 -1 -14
5 -24 13 -25 76 -23 90 2 5 10 12 51 16 91 14 155 10 168 -54 168 -23 0 -33
-6 -38 -19z"/>
<path d="M593 652 c-11 -7 -39 -82 -44 -117 0 -5 -12 -39 -25 -75 -35 -91 -83
-168 -122 -192 -18 -11 -31 -25 -29 -32 2 -6 10 -27 17 -47 12 -35 14 -36 68
-37 30 -1 63 3 73 9 10 5 58 12 106 15 47 3 91 8 96 11 6 3 21 7 34 9 20 2 28
-5 40 -34 8 -20 17 -39 18 -40 5 -5 78 19 89 28 4 5 -26 74 -68 153 l-76 146
-45 -16 c-25 -8 -45 -17 -45 -19 0 -2 11 -21 23 -42 13 -20 31 -50 39 -67 18
-34 32 -30 -112 -37 -47 -2 -93 -8 -103 -12 -16 -8 -16 -5 3 26 24 41 160 338
160 350 0 4 -12 10 -27 14 -16 3 -35 8 -43 10 -8 2 -21 0 -27 -4z"/>
</g>
</svg>
