<?xml version="1.0" standalone="no"?>
<!DOCTYPE svg PUBLIC "-//W3C//DTD SVG 20010904//EN"
 "http://www.w3.org/TR/2001/REC-SVG-20010904/DTD/svg10.dtd">
<svg version="1.0" xmlns="http://www.w3.org/2000/svg"
 width="101.000000pt" height="102.000000pt" viewBox="0 0 101.000000 102.000000"
 preserveAspectRatio="xMidYMid meet">
<metadata>
Created by potrace 1.16, written by Peter Selinger 2001-2019
</metadata>
<g transform="translate(0.000000,102.000000) scale(0.100000,-0.100000)"
fill="#000000" stroke="none">
<path d="M583 938 l2 -83 -92 2 c-99 3 -123 -7 -123 -50 0 -18 -2 -19 -10 -7
-7 12 -14 12 -44 2 -20 -7 -40 -10 -46 -7 -13 8 -13 92 0 100 5 3 9 20 9 38 0
18 1 41 3 51 3 17 -3 20 -50 20 -38 1 -53 -3 -56 -14 -8 -29 -5 -89 4 -95 12
-8 12 -173 -1 -180 -12 -8 -12 -142 1 -150 13 -8 13 -52 0 -60 -13 -8 -12
-203 2 -225 8 -12 8 -41 1 -101 -5 -46 -8 -86 -6 -89 2 -2 25 -3 50 -2 46 2
68 16 55 37 -10 14 -15 320 -10 537 3 122 10 125 55 22 22 -51 32 -64 46 -60
14 3 16 0 12 -16 -17 -53 18 -84 75 -68 17 5 30 5 30 1 0 -5 -13 -11 -30 -14
l-30 -6 21 -53 c11 -29 38 -81 60 -116 21 -35 39 -65 39 -67 0 -16 -158 -79
-224 -89 -22 -4 -41 -8 -42 -9 -1 -1 16 -22 38 -45 l40 -44 74 27 c40 15 97
41 127 59 48 29 56 31 73 19 32 -24 105 -59 182 -87 l73 -26 8 23 c5 13 21 38
36 55 15 18 25 35 23 38 -3 2 -23 6 -44 9 -86 9 -118 16 -165 36 -27 12 -49
25 -49 29 0 4 19 36 43 72 41 60 117 231 117 262 0 19 -25 27 -53 17 -12 -5
-49 -7 -82 -5 l-60 2 -3 41 c-2 24 1 41 7 41 6 0 11 11 11 24 0 22 5 23 78 29
42 4 101 5 129 4 59 -3 70 9 58 61 l-6 27 -132 0 -132 0 6 75 c7 85 4 90 -58
90 l-41 0 1 -82z m2 -243 l1 -71 -74 8 c-41 3 -81 4 -91 2 -13 -5 -13 -4 1 6
17 10 16 14 -8 62 -15 30 -22 53 -16 57 6 3 50 6 99 6 l88 0 0 -70z m137 -141
c15 -4 15 -9 3 -43 -18 -53 -43 -100 -73 -139 l-26 -34 -18 24 c-29 36 -67
113 -73 147 -5 31 2 37 42 32 6 -1 14 3 17 8 7 10 98 14 128 5z"/>
<path d="M78 799 c-10 -5 -18 -20 -18 -32 0 -21 -6 -85 -14 -139 -2 -15 -10
-43 -16 -63 -7 -20 -10 -39 -7 -41 11 -11 97 -11 98 0 2 18 5 29 13 56 4 14
13 67 20 117 l12 92 -23 10 c-29 13 -43 13 -65 0z"/>
</g>
</svg>
