<?xml version="1.0" standalone="no"?>
<!DOCTYPE svg PUBLIC "-//W3C//DTD SVG 20010904//EN"
 "http://www.w3.org/TR/2001/REC-SVG-20010904/DTD/svg10.dtd">
<svg version="1.0" xmlns="http://www.w3.org/2000/svg"
 width="101.000000pt" height="101.000000pt" viewBox="0 0 101.000000 101.000000"
 preserveAspectRatio="xMidYMid meet">
<metadata>
Created by potrace 1.16, written by Peter Selinger 2001-2019
</metadata>
<g transform="translate(0.000000,101.000000) scale(0.100000,-0.100000)"
fill="#000000" stroke="none">
<path d="M208 1003 c-24 -6 -29 -49 -22 -173 3 -58 5 -150 4 -205 0 -98 -1
-218 -1 -292 0 -21 -1 -79 -2 -130 -2 -102 -2 -103 66 -95 29 3 37 8 33 21
-12 42 -17 209 -7 215 14 9 15 143 1 151 -13 8 -13 152 0 160 6 4 10 24 8 46
-3 60 8 56 26 -11 l17 -60 30 15 c29 16 30 15 40 -14 11 -31 32 -41 73 -34 29
6 41 46 34 108 -3 28 0 35 13 35 9 0 31 3 48 6 31 6 32 6 26 -22 -3 -16 -8
-46 -10 -67 -20 -169 -117 -353 -237 -447 -29 -23 -54 -45 -55 -49 -4 -9 98
-61 108 -56 4 3 34 38 66 78 65 81 132 202 159 290 30 95 46 67 39 -68 -2 -44
-6 -100 -8 -125 -2 -25 -2 -68 1 -97 4 -47 8 -53 34 -62 20 -7 36 -7 48 -1 10
6 45 7 79 4 88 -10 121 17 145 119 5 21 3 27 -10 27 -10 0 -32 11 -51 26 -26
20 -33 22 -34 10 -1 -9 -3 -20 -4 -26 -1 -5 -3 -18 -4 -27 -2 -32 -18 -46 -54
-48 -65 -6 -72 8 -71 137 1 132 9 195 26 215 19 24 -22 40 -86 35 -14 -2 -16
2 -11 15 10 26 18 74 24 138 1 12 15 15 61 15 l60 0 0 -37 c0 -104 14 -125 76
-116 l29 5 1 108 1 107 -104 7 c-56 4 -107 5 -111 2 -10 -6 -8 22 7 99 5 28 7
52 5 54 -2 2 -28 4 -59 5 -49 1 -57 -1 -61 -21 -3 -11 -2 -29 3 -40 8 -15 9
-40 4 -97 -1 -4 -37 -5 -80 -1 -44 4 -89 4 -101 0 -22 -7 -22 -11 -17 -79 l6
-71 -30 72 -31 73 -33 -14 -33 -14 4 61 c2 34 6 76 9 93 5 26 2 32 -20 42 -27
12 -37 13 -67 5z"/>
<path d="M65 794 c-12 -13 -16 -34 -15 -88 1 -39 -1 -92 -5 -118 -7 -52 -10
-49 55 -52 39 -1 47 20 55 155 l7 106 -32 7 c-45 8 -46 8 -65 -10z"/>
</g>
</svg>
