<?xml version="1.0" standalone="no"?>
<!DOCTYPE svg PUBLIC "-//W3C//DTD SVG 20010904//EN"
 "http://www.w3.org/TR/2001/REC-SVG-20010904/DTD/svg10.dtd">
<svg version="1.0" xmlns="http://www.w3.org/2000/svg"
 width="101.000000pt" height="103.000000pt" viewBox="0 0 101.000000 103.000000"
 preserveAspectRatio="xMidYMid meet">
<metadata>
Created by potrace 1.16, written by Peter Selinger 2001-2019
</metadata>
<g transform="translate(0.000000,103.000000) scale(0.100000,-0.100000)"
fill="#000000" stroke="none">
<path d="M445 997 c-55 -95 -206 -218 -345 -282 -36 -16 -67 -31 -70 -33 -7
-5 73 -71 88 -72 29 0 264 174 341 254 l44 45 71 -73 c68 -70 166 -142 268
-195 l46 -25 47 48 c26 26 45 49 43 52 -3 2 -16 7 -28 9 -105 20 -240 94 -324
177 -55 55 -66 71 -57 82 15 17 0 29 -24 20 -9 -4 -20 -2 -24 3 -3 5 -17 13
-32 16 -21 5 -28 1 -44 -26z"/>
<path d="M475 807 c-39 -13 -37 -10 -25 -42 6 -16 12 -42 14 -59 2 -16 12 -36
22 -44 17 -12 5 -13 -87 -7 -131 9 -167 2 -175 -32 -4 -13 -1 -36 5 -50 9 -20
16 -24 34 -18 12 3 46 6 75 5 30 -1 60 4 67 10 13 11 205 4 205 -8 0 -2 -16
-26 -35 -52 -19 -26 -35 -50 -35 -53 0 -5 76 -37 89 -37 5 0 34 42 64 93 88
149 87 134 14 141 -34 4 -91 5 -125 3 -59 -3 -62 -2 -38 10 30 16 31 29 7 97
-18 53 -29 59 -76 43z"/>
<path d="M433 479 l-32 -20 33 -47 c19 -26 41 -63 51 -82 10 -19 19 -36 20
-38 5 -6 85 38 85 46 0 14 -105 162 -115 161 -5 0 -24 -10 -42 -20z"/>
<path d="M747 425 l-38 -26 23 -30 c39 -51 107 -151 111 -162 2 -7 23 0 50 17
30 17 45 32 40 39 -10 17 -87 117 -120 155 l-28 33 -38 -26z"/>
<path d="M135 408 c-4 -18 -9 -41 -11 -52 -4 -15 -37 -101 -60 -152 -3 -6 8
-14 23 -17 15 -4 38 -9 49 -13 20 -5 25 4 57 88 55 146 55 143 0 162 -26 9
-47 16 -49 16 -1 0 -5 -15 -9 -32z"/>
<path d="M304 413 c-7 -5 -11 -52 -10 -135 1 -177 1 -177 211 -184 98 -3 115
-1 155 19 45 22 90 76 90 106 -1 9 -19 29 -41 44 -39 27 -42 27 -55 10 -8 -10
-12 -26 -10 -35 8 -34 -20 -41 -136 -39 -91 2 -114 6 -125 19 -15 21 -17 109
-2 114 6 2 13 20 16 41 3 28 1 37 -10 37 -8 0 -27 2 -43 5 -16 3 -34 2 -40 -2z"/>
</g>
</svg>
