<?xml version="1.0" standalone="no"?>
<!DOCTYPE svg PUBLIC "-//W3C//DTD SVG 20010904//EN"
 "http://www.w3.org/TR/2001/REC-SVG-20010904/DTD/svg10.dtd">
<svg version="1.0" xmlns="http://www.w3.org/2000/svg"
 width="101.000000pt" height="101.000000pt" viewBox="0 0 101.000000 101.000000"
 preserveAspectRatio="xMidYMid meet">
<metadata>
Created by potrace 1.16, written by Peter Selinger 2001-2019
</metadata>
<g transform="translate(0.000000,101.000000) scale(0.100000,-0.100000)"
fill="#000000" stroke="none">
<path d="M168 950 c3 -39 0 -60 -7 -60 -6 0 -11 -18 -11 -40 0 -22 5 -40 10
-40 6 0 10 -33 10 -80 0 -47 -4 -80 -10 -80 -6 0 -10 -30 -10 -70 0 -40 4 -70
10 -70 6 0 10 -11 10 -25 0 -14 -4 -25 -10 -25 -6 0 -10 -40 -10 -100 0 -60 4
-100 10 -100 12 0 12 -58 1 -117 -8 -41 -7 -42 20 -48 16 -4 38 -3 50 0 21 7
22 10 15 115 -5 72 -3 110 4 115 13 8 13 142 0 150 -13 8 -13 152 0 160 6 3 9
26 8 51 -2 59 6 63 22 12 30 -102 28 -99 68 -83 19 9 36 14 38 12 6 -6 5 -427
-1 -437 -3 -5 -1 -19 5 -30 8 -15 21 -20 50 -20 22 0 40 5 40 10 0 15 67 12
74 -2 5 -11 7 -11 12 0 7 15 164 17 164 2 0 -5 18 -10 40 -10 23 0 40 5 40 11
0 9 20 10 70 5 68 -6 70 -5 76 18 11 47 2 60 -48 70 -34 7 -59 6 -87 -4 -25
-8 -50 -10 -68 -5 -15 5 -82 9 -148 9 l-120 1 0 42 c0 50 11 54 53 18 17 -14
32 -25 35 -25 2 0 35 43 72 96 l68 96 33 -54 c18 -29 41 -70 50 -90 l17 -37
48 25 c27 13 49 27 49 30 0 3 -34 50 -76 105 l-75 100 41 97 c23 53 48 104 56
113 21 23 18 28 -32 50 -48 22 -74 15 -72 -19 2 -21 -41 -150 -51 -156 -4 -3
-33 29 -65 70 -32 42 -64 78 -71 81 -11 4 -31 -6 -73 -33 -2 -1 35 -50 82
-109 l87 -106 -41 -58 c-22 -31 -58 -75 -80 -96 -39 -38 -40 -38 -55 -19 -17
22 -20 60 -5 69 12 7 12 153 0 160 -12 8 -11 147 1 161 6 8 9 35 7 61 l-3 48
104 -3 c65 -1 109 2 117 9 9 7 48 9 123 5 102 -6 110 -5 116 13 11 35 -5 69
-35 76 -16 4 -37 2 -47 -3 -19 -10 -331 -8 -408 3 -55 8 -81 -11 -70 -51 4
-16 8 -85 9 -153 2 -107 1 -120 -9 -90 -23 65 -66 141 -78 136 -56 -21 -53
-25 -51 73 1 49 6 95 10 101 10 17 -15 29 -61 29 l-40 0 3 -60z"/>
<path d="M58 803 c-24 -6 -28 -27 -24 -108 2 -39 1 -74 -3 -80 -17 -22 -30
-75 -20 -81 16 -9 89 -15 90 -6 1 4 4 18 6 32 2 14 6 41 9 60 2 19 8 64 13
100 4 36 7 66 6 68 -1 1 -12 4 -24 7 -11 2 -24 6 -29 8 -4 2 -15 2 -24 0z"/>
</g>
</svg>
