<?xml version="1.0" standalone="no"?>
<!DOCTYPE svg PUBLIC "-//W3C//DTD SVG 20010904//EN"
 "http://www.w3.org/TR/2001/REC-SVG-20010904/DTD/svg10.dtd">
<svg version="1.0" xmlns="http://www.w3.org/2000/svg"
 width="101.000000pt" height="101.000000pt" viewBox="0 0 101.000000 101.000000"
 preserveAspectRatio="xMidYMid meet">
<metadata>
Created by potrace 1.16, written by Peter Selinger 2001-2019
</metadata>
<g transform="translate(0.000000,101.000000) scale(0.100000,-0.100000)"
fill="#000000" stroke="none">
<path d="M198 950 c3 -39 0 -60 -7 -60 -6 0 -11 -18 -11 -40 0 -22 5 -40 10
-40 6 0 10 -33 10 -80 0 -47 -4 -80 -10 -80 -6 0 -10 -30 -10 -70 0 -40 4 -70
10 -70 6 0 10 -11 10 -25 0 -14 -4 -25 -10 -25 -6 0 -10 -40 -10 -100 0 -68 4
-100 11 -100 12 0 7 -90 -6 -136 -8 -25 13 -34 64 -26 l34 5 -8 162 c-4 110
-3 165 4 169 12 8 13 114 0 122 -12 7 -11 51 1 59 6 4 10 33 9 66 -1 32 0 62
3 65 6 5 30 -63 43 -120 5 -26 8 -28 41 -21 20 3 42 9 51 12 12 5 14 1 8 -17
-4 -12 -4 -74 0 -136 l7 -113 71 4 c40 2 88 7 108 10 21 4 45 2 57 -4 14 -7
28 -7 50 1 26 10 36 9 65 -7 21 -11 43 -16 59 -12 25 7 25 8 27 127 1 79 -2
120 -8 120 -6 0 -11 11 -11 25 0 14 5 25 10 25 6 0 10 30 10 70 0 40 -4 70
-10 70 -5 0 -10 16 -10 35 0 19 5 35 10 35 6 0 10 24 10 54 l0 53 -69 2 c-38
1 -72 -3 -75 -8 -8 -12 -173 -13 -181 -1 -9 14 -94 10 -110 -7 -17 -16 -20
-49 -5 -58 10 -6 11 -135 1 -204 l-6 -43 -38 90 c-29 69 -42 90 -55 87 -9 -2
-21 -4 -27 -5 -26 -6 -30 4 -28 82 0 46 3 90 5 98 2 12 -9 16 -47 18 l-50 3 3
-61z m577 -170 c0 -47 -4 -88 -10 -92 -15 -12 -103 -9 -110 2 -4 6 -32 9 -63
8 l-57 -3 0 85 0 85 120 0 120 0 0 -85z m3 -250 l2 -99 -36 -7 c-26 -5 -39 -3
-46 7 -7 11 -11 11 -15 2 -6 -15 -73 -18 -73 -3 0 6 -16 10 -35 10 l-35 0 0
93 0 92 118 2 117 2 3 -99z"/>
<path d="M81 801 c-13 -8 -21 -57 -25 -151 0 -19 -4 -39 -7 -45 -3 -5 -9 -22
-13 -36 -5 -23 -2 -28 22 -37 41 -15 70 -13 76 6 10 33 28 193 22 199 -3 3 0
15 6 26 8 16 7 23 -8 34 -21 15 -53 17 -73 4z"/>
<path d="M349 253 c-20 -5 -28 -31 -22 -67 5 -25 20 -32 53 -27 15 3 68 7 197
16 40 3 119 0 175 -6 57 -5 112 -9 123 -9 11 1 34 2 52 2 25 1 32 7 36 26 3
13 2 33 -1 44 -4 18 -13 20 -126 18 -66 -1 -150 -1 -186 -1 -36 0 -108 -1
-160 -2 -52 0 -102 2 -110 5 -8 3 -22 4 -31 1z"/>
</g>
</svg>
