<?xml version="1.0" standalone="no"?>
<!DOCTYPE svg PUBLIC "-//W3C//DTD SVG 20010904//EN"
 "http://www.w3.org/TR/2001/REC-SVG-20010904/DTD/svg10.dtd">
<svg version="1.0" xmlns="http://www.w3.org/2000/svg"
 width="101.000000pt" height="101.000000pt" viewBox="0 0 101.000000 101.000000"
 preserveAspectRatio="xMidYMid meet">
<metadata>
Created by potrace 1.16, written by Peter Selinger 2001-2019
</metadata>
<g transform="translate(0.000000,101.000000) scale(0.100000,-0.100000)"
fill="#000000" stroke="none">
<path d="M176 984 c-4 -14 -4 -35 0 -47 15 -47 17 -555 3 -815 0 -13 2 -26 5
-30 12 -11 89 -3 97 10 5 7 6 96 4 198 -7 256 -7 275 2 360 l8 75 14 -48 c14
-50 17 -51 65 -32 17 8 17 7 1 -25 -20 -38 -13 -46 44 -48 37 -2 37 -2 57 60
l20 61 59 1 60 1 2 -87 2 -86 -39 -7 c-22 -4 -45 -3 -51 1 -7 4 -33 9 -59 11
-53 4 -61 -6 -52 -65 4 -32 5 -32 52 -29 26 2 52 7 59 11 6 4 29 5 50 1 43 -7
41 1 44 -132 1 -45 -2 -85 -6 -89 -8 -9 -42 -8 -147 0 -98 8 -111 9 -118 2 -7
-8 -6 -86 2 -93 7 -7 44 -6 91 2 22 4 85 7 140 6 55 0 141 -1 192 -1 51 0 103
-4 117 -9 38 -15 63 -3 69 32 8 54 -1 68 -38 61 -18 -3 -42 -1 -54 5 -17 9
-29 8 -55 -4 -26 -13 -39 -14 -54 -6 -12 6 -27 8 -36 5 -19 -7 -27 39 -21 116
3 30 5 65 6 78 1 15 6 22 14 18 8 -3 27 0 43 6 22 9 39 8 74 -4 53 -19 65 -14
69 27 5 72 -9 84 -73 58 -32 -13 -47 -14 -70 -5 -16 6 -37 8 -45 5 -14 -6 -15
0 -10 42 4 26 7 66 7 89 l0 41 72 -2 c40 -1 82 -5 94 -8 30 -9 56 20 52 58 -3
28 -7 32 -46 40 -33 6 -49 5 -67 -7 -14 -9 -45 -16 -70 -16 l-46 0 5 96 c3 53
11 102 17 110 17 21 6 26 -59 28 -57 1 -60 0 -60 -24 -1 -14 4 -35 10 -47 7
-13 8 -46 3 -88 l-7 -67 -30 6 c-17 3 -37 6 -44 6 -20 0 -17 40 7 79 11 18 19
35 17 36 -14 13 -81 32 -97 28 -23 -6 -22 -5 -28 -43 -11 -76 -18 -118 -24
-130 -4 -9 -7 -24 -8 -42 -2 -30 -16 -20 -30 20 -18 49 -41 83 -52 76 -5 -3
-18 -7 -30 -9 -20 -4 -20 -1 -14 63 3 37 8 81 11 99 5 36 -3 40 -72 42 -37 1
-43 -2 -48 -25z"/>
<path d="M78 803 c-20 -5 -21 -9 -24 -113 -1 -41 -5 -96 -8 -122 -4 -27 -4
-48 1 -48 4 -1 25 -3 45 -6 36 -5 37 -4 47 33 6 21 12 77 15 124 3 47 8 92 11
100 4 10 -3 20 -20 27 -27 12 -37 13 -67 5z"/>
</g>
</svg>
