<?xml version="1.0" standalone="no"?>
<!DOCTYPE svg PUBLIC "-//W3C//DTD SVG 20010904//EN"
 "http://www.w3.org/TR/2001/REC-SVG-20010904/DTD/svg10.dtd">
<svg version="1.0" xmlns="http://www.w3.org/2000/svg"
 width="101.000000pt" height="101.000000pt" viewBox="0 0 101.000000 101.000000"
 preserveAspectRatio="xMidYMid meet">
<metadata>
Created by potrace 1.16, written by Peter Selinger 2001-2019
</metadata>
<g transform="translate(0.000000,101.000000) scale(0.100000,-0.100000)"
fill="#000000" stroke="none">
<path d="M204 990 c-23 -9 -38 -36 -28 -52 6 -9 13 -126 13 -220 1 -204 1
-296 1 -368 1 -102 -4 -183 -13 -196 -13 -21 12 -38 54 -37 59 3 55 -15 44
168 -6 116 -7 255 -1 340 2 33 5 76 6 95 l2 35 29 -60 c16 -33 30 -64 32 -69
4 -12 77 13 84 29 2 8 -14 45 -37 84 l-41 71 -34 -14 c-19 -8 -36 -12 -38 -8
-7 16 5 130 18 171 6 20 -2 26 -28 22 -4 -1 -16 3 -25 8 -9 5 -26 5 -38 1z"/>
<path d="M582 955 c0 -16 4 -35 9 -42 6 -6 9 -29 7 -50 l-3 -38 -50 2 c-27 2
-64 5 -81 9 -41 8 -74 -10 -74 -41 0 -46 6 -50 71 -47 34 2 75 1 92 -2 l32 -6
0 -72 0 -73 -122 1 -122 1 -6 -28 c-12 -54 5 -75 55 -71 8 1 50 4 92 7 l78 5
-25 -57 c-46 -104 -105 -182 -156 -208 l-27 -15 21 -50 21 -50 45 5 c26 3 57
7 71 10 14 2 45 6 70 10 227 30 214 30 235 -10 l19 -34 46 26 c25 14 47 27 48
29 6 4 -135 208 -157 228 -18 16 -22 16 -49 2 -17 -9 -33 -20 -36 -25 -3 -4
11 -30 31 -55 41 -53 36 -66 -27 -66 -53 1 -132 -7 -162 -15 -16 -4 -28 -5
-28 -1 0 10 113 181 139 209 26 28 24 34 -14 51 -6 3 -3 9 5 15 19 14 224 8
262 -8 15 -6 35 -8 43 -5 18 7 29 46 21 77 -5 21 -10 22 -137 24 -73 2 -133 4
-135 5 -1 2 0 31 3 64 l6 61 100 6 c104 7 117 12 117 54 0 32 -28 56 -59 49
-14 -3 -59 -7 -99 -9 -72 -2 -73 -2 -68 23 3 14 6 49 8 79 l3 55 -56 0 c-55 1
-56 1 -57 -29z"/>
<path d="M78 783 c-21 -5 -27 -29 -27 -103 1 -55 -3 -93 -16 -142 -6 -23 -3
-27 22 -31 78 -13 83 -8 89 93 3 36 7 89 11 119 7 67 -11 82 -79 64z"/>
</g>
</svg>
