<?xml version="1.0" standalone="no"?>
<!DOCTYPE svg PUBLIC "-//W3C//DTD SVG 20010904//EN"
 "http://www.w3.org/TR/2001/REC-SVG-20010904/DTD/svg10.dtd">
<svg version="1.0" xmlns="http://www.w3.org/2000/svg"
 width="101.000000pt" height="101.000000pt" viewBox="0 0 101.000000 101.000000"
 preserveAspectRatio="xMidYMid meet">
<metadata>
Created by potrace 1.16, written by Peter Selinger 2001-2019
</metadata>
<g transform="translate(0.000000,101.000000) scale(0.100000,-0.100000)"
fill="#000000" stroke="none">
<path d="M288 959 c-35 -18 -50 -39 -29 -39 13 0 95 -110 87 -117 -3 -4 -34
-9 -67 -11 -44 -3 -64 -1 -69 9 -14 22 -23 -56 -10 -81 8 -15 9 -54 5 -130
l-7 -108 120 -1 c69 0 124 3 127 9 7 12 153 11 160 -1 3 -4 51 -7 105 -7 l100
2 -6 123 c-4 90 -3 128 6 138 7 8 10 25 7 37 -6 21 -11 23 -86 23 -93 0 -93 4
-10 79 29 26 50 48 48 51 -8 8 -101 45 -112 45 -7 0 -29 -33 -50 -73 -59 -110
-52 -106 -131 -100 -66 6 -68 6 -42 20 16 8 24 19 20 26 -18 31 -107 127 -117
127 -7 -1 -29 -10 -49 -21z m162 -240 c0 -8 35 -10 128 -5 l127 7 2 -74 3 -74
-208 1 -207 1 0 68 0 67 43 0 c23 0 42 5 42 10 0 6 16 10 35 10 19 0 35 -5 35
-11z"/>
<path d="M471 455 l-33 -15 18 -28 c24 -36 54 -98 54 -112 0 -15 31 -12 67 8
l32 17 -38 70 c-20 39 -44 71 -52 72 -8 1 -29 -4 -48 -12z"/>
<path d="M758 429 c-21 -11 -38 -21 -38 -24 0 -2 22 -32 48 -67 26 -35 54 -78
61 -96 7 -17 18 -32 23 -32 16 0 88 45 88 55 0 13 -129 185 -138 185 -4 -1
-24 -10 -44 -21z"/>
<path d="M134 425 c-10 -7 -15 -19 -11 -28 3 -9 2 -19 -2 -22 -5 -3 -9 -20 -9
-37 0 -18 -10 -58 -21 -88 -12 -30 -21 -58 -21 -61 0 -7 89 -34 94 -28 10 11
57 182 59 214 2 34 -1 38 -35 50 -30 10 -41 10 -54 0z"/>
<path d="M303 422 c-10 -6 -12 -38 -8 -122 7 -168 29 -188 211 -189 107 0 168
11 198 37 19 18 70 111 64 118 -3 2 -25 15 -51 28 l-46 25 -7 -22 c-4 -12 -9
-28 -10 -36 -2 -8 -12 -23 -23 -34 -17 -18 -33 -20 -120 -20 -65 0 -106 5
-116 13 -21 17 -21 126 0 146 16 16 20 43 8 45 -5 0 -15 2 -23 5 -45 12 -66
14 -77 6z"/>
</g>
</svg>
