<?xml version="1.0" standalone="no"?>
<!DOCTYPE svg PUBLIC "-//W3C//DTD SVG 20010904//EN"
 "http://www.w3.org/TR/2001/REC-SVG-20010904/DTD/svg10.dtd">
<svg version="1.0" xmlns="http://www.w3.org/2000/svg"
 width="101.000000pt" height="101.000000pt" viewBox="0 0 101.000000 101.000000"
 preserveAspectRatio="xMidYMid meet">
<metadata>
Created by potrace 1.16, written by Peter Selinger 2001-2019
</metadata>
<g transform="translate(0.000000,101.000000) scale(0.100000,-0.100000)"
fill="#000000" stroke="none">
<path d="M168 993 c0 -10 0 -25 1 -33 1 -8 2 -68 1 -132 0 -69 4 -119 10 -123
13 -8 13 -52 0 -60 -12 -7 -12 -213 0 -220 13 -8 11 -146 -2 -162 -6 -7 -7
-24 -4 -37 3 -14 2 -35 -3 -48 -12 -33 -3 -75 18 -81 9 -2 31 -2 47 0 31 5 33
10 33 103 0 14 0 64 1 113 0 53 -3 87 -10 87 -5 0 -10 20 -10 45 0 25 4 45 10
45 5 0 11 57 12 138 l3 137 24 -47 c14 -27 29 -48 33 -48 4 0 8 -11 8 -24 0
-47 10 -56 56 -56 24 0 44 5 44 10 0 15 67 12 74 -2 5 -10 7 -10 12 0 6 13
151 17 170 4 5 -4 11 -16 12 -27 1 -11 3 -31 4 -45 3 -23 0 -25 -62 -32 -64
-8 -169 -5 -261 6 -40 5 -47 3 -52 -13 -13 -53 22 -93 63 -71 10 5 64 8 121 6
57 -2 123 -4 145 -5 47 -1 44 8 47 -124 2 -86 -5 -98 -58 -96 -65 4 -67 3 -44
-35 11 -19 19 -38 18 -42 -6 -35 21 -39 98 -14 70 22 77 37 80 158 1 59 3 117
3 128 2 23 6 24 87 27 35 1 42 5 46 25 10 53 1 61 -72 59 -65 -2 -66 -2 -63
23 2 14 3 35 4 48 0 18 4 21 20 16 11 -3 44 -3 74 1 57 7 70 22 59 67 -6 23
-7 23 -148 23 l-142 0 0 55 0 55 82 -2 c45 0 86 -4 92 -7 27 -17 58 27 49 71
-3 15 -17 19 -83 26 -44 4 -93 6 -110 5 l-30 -3 3 60 3 60 -55 0 -56 0 5 -60
5 -60 -68 2 c-126 4 -153 -11 -138 -72 6 -23 8 -24 104 -21 l97 2 2 -58 1 -58
-97 2 c-69 2 -94 6 -84 13 11 8 7 21 -22 70 -20 33 -38 61 -40 63 -2 3 -19 -5
-37 -16 l-33 -21 2 67 c2 37 5 82 8 101 6 42 -5 51 -62 51 -34 0 -43 -4 -45
-17z"/>
<path d="M75 804 c-6 -2 -9 -22 -7 -45 3 -27 -1 -46 -12 -58 -9 -10 -16 -31
-15 -47 1 -28 -4 -55 -16 -94 -7 -22 3 -29 49 -35 39 -5 55 12 56 57 1 22 5
63 14 150 2 20 7 41 10 46 10 17 -52 37 -79 26z"/>
<path d="M450 387 c-14 -6 -27 -12 -29 -13 -2 -2 11 -31 28 -65 17 -34 31 -69
31 -76 0 -10 7 -12 23 -7 32 10 77 34 77 41 0 3 -16 35 -35 70 -37 65 -48 71
-95 50z"/>
</g>
</svg>
