<?xml version="1.0" standalone="no"?>
<!DOCTYPE svg PUBLIC "-//W3C//DTD SVG 20010904//EN"
 "http://www.w3.org/TR/2001/REC-SVG-20010904/DTD/svg10.dtd">
<svg version="1.0" xmlns="http://www.w3.org/2000/svg"
 width="101.000000pt" height="102.000000pt" viewBox="0 0 101.000000 102.000000"
 preserveAspectRatio="xMidYMid meet">
<metadata>
Created by potrace 1.16, written by Peter Selinger 2001-2019
</metadata>
<g transform="translate(0.000000,102.000000) scale(0.100000,-0.100000)"
fill="#000000" stroke="none">
<path d="M172 945 c0 -41 4 -78 9 -81 11 -7 10 -172 -2 -179 -12 -8 -12 -142
1 -150 13 -8 13 -52 0 -60 -13 -8 -12 -203 2 -225 9 -13 9 -38 2 -89 -10 -77
-5 -84 49 -74 24 5 25 7 20 59 -4 32 -1 59 5 67 13 15 14 115 1 123 -12 7 -11
51 1 59 12 7 12 153 0 160 -12 7 -11 153 0 160 6 3 10 21 11 38 0 32 0 32 10
7 6 -14 13 -45 16 -70 8 -63 18 -80 46 -74 60 14 65 13 73 -19 4 -18 7 -94 6
-169 -2 -151 -5 -145 58 -139 29 3 42 19 34 42 -3 12 2 17 18 18 13 0 57 3 98
6 101 8 160 -1 158 -23 -4 -50 13 -65 65 -55 24 5 24 6 32 151 5 103 4 147 -4
150 -15 5 -15 152 0 152 6 0 9 14 7 33 -3 37 14 34 -180 22 -80 -5 -122 -4
-131 3 -7 6 -45 10 -84 10 -69 -1 -72 -2 -77 -27 -3 -14 -4 -50 -2 -78 1 -29
2 -53 0 -53 -1 0 -8 17 -15 38 -47 146 -47 147 -110 127 -12 -4 -19 -2 -20 7
-3 59 1 151 6 169 9 28 -8 39 -62 39 l-41 0 0 -75z m613 -285 l0 -60 -40 -5
c-22 -3 -74 -3 -115 0 -41 3 -84 6 -95 6 -17 1 -20 9 -20 55 l0 53 95 4 c52 1
113 4 135 5 l40 2 0 -60z m-34 -126 c29 -4 37 -10 38 -27 0 -12 2 -35 3 -51 3
-25 -1 -31 -27 -38 -16 -4 -70 -6 -120 -3 -146 8 -140 6 -137 40 1 17 3 40 3
53 1 16 6 21 18 18 9 -3 22 -2 30 3 16 10 140 13 192 5z"/>
<path d="M386 955 c-20 -21 -21 -59 0 -79 17 -18 109 -22 119 -6 8 12 153 11
161 -1 9 -14 266 -1 276 14 11 16 1 69 -15 79 -14 9 -61 11 -70 2 -16 -17
-300 -16 -410 0 -34 5 -48 3 -61 -9z"/>
<path d="M71 802 c-6 -11 -11 -31 -11 -44 1 -44 -13 -132 -30 -197 -5 -19 -8
-37 -5 -39 2 -2 22 -5 45 -6 31 -2 44 2 51 16 6 10 7 23 4 28 -3 5 -2 18 4 28
5 9 12 38 15 62 3 25 9 68 15 95 10 56 11 54 -15 60 -11 2 -29 7 -41 11 -15 4
-24 0 -32 -14z"/>
<path d="M328 222 c-3 -10 -3 -32 0 -50 4 -30 18 -39 47 -32 44 11 116 13 320
10 33 -1 79 2 102 5 26 4 60 1 91 -8 28 -8 55 -11 62 -7 11 7 19 85 10 94 -3
2 -48 0 -100 -6 -65 -7 -104 -7 -125 0 -16 6 -52 8 -80 5 -67 -7 -230 -6 -281
1 -35 4 -43 2 -46 -12z"/>
</g>
</svg>
