<?xml version="1.0" standalone="no"?>
<!DOCTYPE svg PUBLIC "-//W3C//DTD SVG 20010904//EN"
 "http://www.w3.org/TR/2001/REC-SVG-20010904/DTD/svg10.dtd">
<svg version="1.0" xmlns="http://www.w3.org/2000/svg"
 width="101.000000pt" height="101.000000pt" viewBox="0 0 101.000000 101.000000"
 preserveAspectRatio="xMidYMid meet">
<metadata>
Created by potrace 1.16, written by Peter Selinger 2001-2019
</metadata>
<g transform="translate(0.000000,101.000000) scale(0.100000,-0.100000)"
fill="#000000" stroke="none">
<path d="M200 1002 c-12 -6 -16 -32 -18 -124 -3 -80 0 -118 7 -118 6 0 11 -11
11 -25 0 -14 -4 -25 -10 -25 -6 0 -10 -30 -10 -70 0 -40 4 -70 10 -70 6 0 10
-11 10 -25 0 -14 -4 -25 -10 -25 -5 0 -10 -22 -10 -50 0 -27 5 -50 10 -50 16
0 12 -118 -6 -144 -12 -19 -14 -40 -8 -100 7 -81 7 -82 69 -77 35 3 47 18 38
46 -13 35 -15 112 -12 420 1 66 -2 134 -5 150 -5 20 -2 37 7 49 12 17 15 13
37 -45 30 -83 33 -86 72 -67 l33 15 2 -81 c6 -232 0 -380 -16 -400 -11 -13
-12 -21 -2 -39 34 -63 32 -63 116 -2 43 31 91 63 106 72 16 10 29 25 29 34 0
22 -20 79 -29 79 -3 0 -30 -21 -59 -46 l-52 -45 7 60 c4 43 2 61 -6 61 -6 0
-11 15 -11 35 0 19 5 35 10 35 6 0 10 26 10 58 l0 57 34 0 c19 0 33 -2 31 -5
-6 -10 40 -142 69 -199 15 -29 48 -76 73 -102 46 -49 127 -109 147 -109 6 1
28 20 49 45 l37 44 -72 35 c-40 20 -86 47 -103 61 l-30 26 40 34 c22 19 59 45
83 57 23 13 42 26 42 30 0 7 -74 68 -83 68 -3 0 -32 -27 -64 -61 l-58 -61 -14
34 c-7 18 -13 44 -13 58 0 14 -4 30 -9 36 -6 7 8 9 46 6 30 -2 74 -1 99 2 l44
7 7 127 c6 91 4 127 -4 130 -14 5 -15 72 -1 72 6 0 10 20 10 45 0 50 -23 72
-63 59 -12 -4 -43 -6 -68 -5 -26 1 -50 -2 -53 -8 -8 -12 -173 -14 -181 -2 -3
5 -27 9 -55 9 l-49 1 2 -148 2 -148 -28 66 c-35 83 -39 86 -75 73 l-30 -10 -4
56 c-3 33 1 71 8 90 13 31 12 33 -12 42 -29 11 -52 12 -74 2z m565 -164 l0
-49 -36 6 c-22 4 -40 2 -44 -4 -8 -14 -48 -14 -62 0 -6 6 -33 9 -60 8 l-48 -4
0 45 0 45 125 1 125 1 0 -49z m3 -104 c20 -6 23 -12 20 -53 l-3 -46 -138 0
-138 0 7 40 c3 22 8 42 10 44 2 2 26 3 53 3 28 -1 53 3 56 8 7 11 97 13 133 4z"/>
<path d="M78 803 c-22 -5 -27 -25 -26 -89 1 -28 -1 -55 -5 -60 -9 -15 -7 -114
3 -114 4 0 21 -3 37 -6 26 -5 31 -2 41 23 6 15 12 74 14 130 4 98 3 102 -20
112 -12 6 -24 10 -25 10 -1 -1 -10 -3 -19 -6z"/>
</g>
</svg>
