<?xml version="1.0" standalone="no"?>
<!DOCTYPE svg PUBLIC "-//W3C//DTD SVG 20010904//EN"
 "http://www.w3.org/TR/2001/REC-SVG-20010904/DTD/svg10.dtd">
<svg version="1.0" xmlns="http://www.w3.org/2000/svg"
 width="101.000000pt" height="102.000000pt" viewBox="0 0 101.000000 102.000000"
 preserveAspectRatio="xMidYMid meet">
<metadata>
Created by potrace 1.16, written by Peter Selinger 2001-2019
</metadata>
<g transform="translate(0.000000,102.000000) scale(0.100000,-0.100000)"
fill="#000000" stroke="none">
<path d="M579 1003 c-1 -10 0 -22 1 -28 1 -5 3 -27 3 -47 l2 -37 -90 2 -90 2
3 56 4 55 -49 0 c-26 -1 -51 -5 -55 -11 -4 -5 -5 -30 -2 -55 l6 -45 -82 2
c-105 2 -130 -7 -130 -46 0 -38 26 -65 54 -56 20 6 136 9 142 3 1 -2 5 -23 9
-48 l7 -45 -126 1 c-125 1 -126 1 -132 -22 -3 -13 -3 -35 0 -49 l6 -25 126 4
126 4 -38 -40 c-46 -47 -153 -120 -206 -139 -21 -7 -38 -15 -38 -19 0 -3 16
-22 36 -43 l35 -38 36 22 c54 34 151 116 215 183 47 49 63 59 95 62 21 2 56 6
78 9 38 5 41 3 72 -38 17 -24 59 -65 93 -90 l61 -46 -33 -17 c-18 -9 -35 -18
-37 -20 -2 -2 9 -18 23 -35 15 -18 45 -67 67 -110 l39 -79 45 22 44 22 -29 55
c-17 31 -47 79 -68 106 l-38 50 70 -34 c44 -22 71 -30 74 -23 2 6 15 28 28 48
29 42 23 53 -32 60 -53 7 -173 66 -208 103 l-29 30 37 -6 c20 -3 54 0 75 7 27
9 54 9 99 3 60 -9 63 -9 68 13 3 12 4 33 2 45 -3 24 -4 24 -138 24 l-135 0 0
50 0 50 69 2 c38 2 75 -2 82 -8 17 -14 52 -2 59 21 3 10 3 29 0 43 -6 23 -12
25 -100 32 -52 4 -98 4 -102 2 -8 -5 -8 9 -1 88 3 30 2 30 -49 33 -45 3 -53 0
-54 -15z m3 -246 l3 -52 -95 1 -95 2 -3 48 -3 49 95 2 94 1 4 -51z"/>
<path d="M447 572 c-15 -3 -17 -11 -11 -55 12 -87 8 -307 -5 -320 -6 -6 -23
-12 -39 -13 -15 -1 -32 -2 -38 -3 -8 -1 -5 -14 7 -38 10 -21 19 -42 19 -49 0
-25 139 21 141 48 1 7 3 56 5 108 4 143 4 142 19 130 7 -6 32 -53 56 -105 24
-52 47 -95 52 -95 4 0 23 6 42 14 l35 15 -21 48 c-25 60 -91 173 -100 173 -4
0 -23 -7 -43 -15 -33 -14 -37 -14 -42 0 -4 8 -3 25 1 38 22 73 15 114 -18 108
-4 -1 -16 3 -25 7 -9 5 -25 7 -35 4z"/>
<path d="M265 373 c-11 -21 -46 -65 -78 -100 l-58 -62 40 -20 c22 -12 44 -21
50 -21 5 0 26 24 47 53 21 28 58 76 82 105 l44 52 -36 15 c-54 23 -69 19 -91
-22z"/>
</g>
</svg>
