<?xml version="1.0" standalone="no"?>
<!DOCTYPE svg PUBLIC "-//W3C//DTD SVG 20010904//EN"
 "http://www.w3.org/TR/2001/REC-SVG-20010904/DTD/svg10.dtd">
<svg version="1.0" xmlns="http://www.w3.org/2000/svg"
 width="101.000000pt" height="101.000000pt" viewBox="0 0 101.000000 101.000000"
 preserveAspectRatio="xMidYMid meet">
<metadata>
Created by potrace 1.16, written by Peter Selinger 2001-2019
</metadata>
<g transform="translate(0.000000,101.000000) scale(0.100000,-0.100000)"
fill="#000000" stroke="none">
<path d="M168 1003 c15 -6 17 -113 2 -113 -5 0 -10 -18 -10 -40 0 -22 5 -40
10 -40 6 0 10 -33 10 -80 0 -47 -4 -80 -10 -80 -6 0 -10 -30 -10 -70 0 -40 4
-70 10 -70 6 0 10 -11 10 -25 0 -14 -4 -25 -10 -25 -6 0 -10 -40 -10 -100 0
-68 4 -100 11 -100 12 0 6 -119 -7 -153 -7 -18 19 -25 69 -19 38 4 38 4 33 43
-3 22 -2 39 2 39 4 0 24 -11 44 -25 20 -14 40 -25 43 -25 16 0 91 201 100 270
2 14 7 45 10 70 4 25 7 55 7 68 0 17 6 22 27 22 14 0 42 3 63 6 l36 6 -3 -38
c-10 -147 -87 -293 -177 -340 -15 -8 -28 -18 -28 -22 0 -4 21 -20 47 -35 l46
-28 25 23 c44 40 111 154 134 227 13 39 26 71 29 71 3 0 11 -22 18 -49 16 -63
59 -132 124 -198 l50 -52 48 37 c27 20 48 40 49 43 0 3 -25 23 -56 44 -84 58
-160 178 -179 282 l-4 28 104 0 c117 0 123 4 110 66 -6 28 -10 30 -35 26 -15
-3 -40 -3 -54 1 l-28 8 36 17 c20 9 36 21 36 26 0 14 -79 111 -91 111 -8 0
-46 -20 -68 -37 -3 -2 7 -16 21 -31 14 -15 33 -41 42 -59 l16 -31 -53 -4 c-28
-3 -55 -3 -59 -1 -11 6 -10 131 1 135 4 2 11 13 15 25 5 17 1 25 -18 35 -22
11 -7 13 110 13 132 0 135 1 141 23 14 56 -23 95 -67 72 -15 -8 -60 -9 -146
-4 -90 5 -124 4 -124 -5 0 -6 -16 -11 -35 -11 -19 0 -35 4 -35 9 0 9 -126 21
-147 13 -9 -3 -12 -36 -10 -119 l3 -114 -28 62 c-23 50 -31 60 -45 54 -48 -20
-48 -20 -46 57 1 40 5 83 9 96 6 21 4 22 -57 21 -35 0 -58 -3 -51 -6z m436
-152 c26 -1 28 -3 13 -13 -14 -11 -15 -22 -7 -78 6 -44 6 -68 -2 -77 -5 -7 -8
-19 -5 -26 3 -9 -11 -12 -59 -12 l-65 0 3 105 3 105 45 -1 c25 -1 58 -3 74 -3z
m-299 -175 c5 -38 10 -41 48 -29 l32 10 -1 -86 c-3 -172 -33 -283 -102 -370
l-20 -24 -7 82 c-5 57 -4 86 4 94 14 14 15 144 1 152 -13 8 -13 152 1 160 6 4
10 21 9 39 -4 64 0 73 16 36 8 -19 17 -48 19 -64z"/>
<path d="M55 804 c-15 -15 -17 -29 -11 -95 4 -44 2 -80 -3 -83 -5 -3 -9 -22
-9 -41 0 -37 9 -43 65 -43 23 -1 33 18 33 63 0 11 4 59 8 107 7 82 6 87 -13
91 -11 2 -27 8 -36 11 -10 4 -23 0 -34 -10z"/>
</g>
</svg>
