<?xml version="1.0" standalone="no"?>
<!DOCTYPE svg PUBLIC "-//W3C//DTD SVG 20010904//EN"
 "http://www.w3.org/TR/2001/REC-SVG-20010904/DTD/svg10.dtd">
<svg version="1.0" xmlns="http://www.w3.org/2000/svg"
 width="101.000000pt" height="101.000000pt" viewBox="0 0 101.000000 101.000000"
 preserveAspectRatio="xMidYMid meet">
<metadata>
Created by potrace 1.16, written by Peter Selinger 2001-2019
</metadata>
<g transform="translate(0.000000,101.000000) scale(0.100000,-0.100000)"
fill="#000000" stroke="none">
<path d="M595 980 c-4 -17 -4 -68 0 -113 l7 -82 -61 0 -61 0 6 70 c3 39 7 75
9 81 4 14 -68 39 -89 31 -12 -5 -14 -26 -13 -116 1 -61 -1 -111 -4 -111 -3 0
-15 18 -28 40 -25 45 -30 46 -71 25 l-29 -15 5 67 c3 38 6 84 7 102 l2 35 -53
0 c-41 1 -53 -3 -58 -16 -3 -10 -2 -23 2 -30 4 -6 6 -37 5 -69 -1 -31 3 -60 8
-64 12 -7 13 -153 1 -160 -12 -7 -12 -153 0 -160 12 -8 13 -52 1 -59 -12 -8
-13 -114 -1 -121 15 -9 12 -98 -4 -136 -17 -41 -11 -85 13 -92 9 -2 31 -2 47
0 31 5 33 11 33 103 0 14 0 67 0 117 1 57 -3 93 -9 93 -5 0 -10 20 -10 45 0
25 5 45 10 45 6 0 10 53 11 138 l1 137 33 -70 c19 -38 39 -69 46 -67 7 2 27 9
46 17 29 12 32 17 24 33 -9 16 -6 18 22 19 18 0 112 2 210 5 98 3 180 1 183
-3 7 -11 45 -11 62 -1 8 6 14 46 17 116 3 60 8 112 11 117 9 15 -38 31 -71 25
-33 -6 -51 -29 -39 -48 3 -5 8 -36 9 -69 l3 -60 -61 7 c-34 4 -63 8 -65 9 -6
5 -4 172 2 193 7 21 5 22 -48 22 -53 0 -55 -1 -61 -30z"/>
<path d="M67 809 c-11 -7 -17 -22 -17 -42 1 -43 -6 -102 -12 -113 -3 -5 -6
-30 -6 -56 -1 -46 -1 -47 34 -54 20 -4 40 -2 45 3 14 14 27 90 35 194 3 48 1
57 -13 62 -10 2 -25 7 -33 11 -8 3 -23 1 -33 -5z"/>
<path d="M395 609 c-11 -51 1 -68 43 -62 78 10 131 12 242 6 l116 -6 2 -43 2
-44 -53 -1 c-28 -1 -99 -3 -156 -5 -57 -2 -111 1 -121 6 -9 5 -26 7 -37 4 -16
-4 -19 -12 -15 -37 2 -18 6 -86 7 -152 3 -151 1 -142 25 -155 23 -12 85 -23
115 -20 11 1 79 2 151 4 106 2 137 5 159 20 26 17 65 87 64 116 0 8 -25 27
-55 41 -46 22 -54 23 -55 10 -4 -39 -6 -57 -7 -68 -4 -24 -84 -44 -162 -39
-116 8 -141 12 -150 26 -15 24 -21 99 -11 119 6 11 8 26 5 34 -7 19 -1 19 212
18 l171 -1 -3 91 c-2 50 0 99 6 108 5 10 7 26 4 37 -4 16 -16 19 -84 21 -44 1
-82 -3 -85 -8 -7 -11 -173 -10 -180 1 -3 4 -36 8 -74 8 -69 0 -70 0 -76 -29z"/>
</g>
</svg>
