<?xml version="1.0" standalone="no"?>
<!DOCTYPE svg PUBLIC "-//W3C//DTD SVG 20010904//EN"
 "http://www.w3.org/TR/2001/REC-SVG-20010904/DTD/svg10.dtd">
<svg version="1.0" xmlns="http://www.w3.org/2000/svg"
 width="101.000000pt" height="101.000000pt" viewBox="0 0 101.000000 101.000000"
 preserveAspectRatio="xMidYMid meet">
<metadata>
Created by potrace 1.16, written by Peter Selinger 2001-2019
</metadata>
<g transform="translate(0.000000,101.000000) scale(0.100000,-0.100000)"
fill="#000000" stroke="none">
<path d="M105 960 c-13 -58 -2 -68 75 -68 39 0 73 4 76 9 7 11 85 12 102 0 10
-6 7 -13 -14 -28 l-27 -20 54 -26 c52 -25 53 -26 17 -21 -25 4 -38 2 -38 -5 0
-13 -47 -15 -52 -2 -5 17 -128 16 -139 0 -12 -19 -11 -106 1 -114 11 -7 12
-143 2 -160 -4 -5 -7 -38 -7 -72 0 -68 5 -74 63 -65 32 4 38 17 34 73 -1 11 7
17 21 18 12 1 45 3 72 5 28 3 62 2 77 0 24 -5 26 -9 23 -45 -3 -29 0 -39 11
-39 8 0 14 -4 14 -10 0 -5 -5 -10 -11 -10 -6 0 -1 -15 11 -32 12 -18 28 -48
36 -65 15 -35 32 -40 77 -20 l28 12 -36 60 c-21 35 -34 67 -31 78 2 11 1 29
-4 42 -7 19 -5 23 13 24 12 1 47 3 77 6 30 2 67 2 83 -1 33 -7 37 -36 5 -33
-48 4 -60 0 -53 -18 7 -16 11 -35 14 -65 2 -18 132 9 145 30 3 5 8 84 11 176
3 93 8 172 11 178 3 5 3 20 0 33 -6 23 -9 24 -99 23 -145 -1 -150 1 -87 23 30
11 69 20 85 20 44 1 114 31 121 52 3 10 3 33 0 50 l-6 32 -95 2 c-58 2 -95 -1
-95 -7 0 -6 -11 -10 -25 -10 -14 0 -25 5 -25 10 0 6 -30 10 -70 10 -40 0 -70
-4 -70 -10 0 -6 -33 -10 -80 -10 -47 0 -80 4 -80 10 0 6 -18 10 -40 10 -22 0
-40 -4 -40 -10 0 -5 -25 -10 -55 -10 -30 0 -55 5 -55 10 0 23 -19 8 -25 -20z
m485 -58 l55 -7 -58 -18 c-85 -27 -95 -28 -132 -10 -34 16 -34 17 -12 29 25
14 66 15 147 6z m-148 -200 l4 -27 -92 3 c-85 3 -92 5 -96 25 -4 21 -1 22 88
24 l92 3 4 -28z m269 19 c20 -1 28 -7 32 -26 l4 -26 -111 5 c-107 5 -111 6
-114 29 -3 24 -3 24 189 18z m-269 -141 l5 -30 -96 2 c-95 3 -96 3 -97 28 -1
25 0 25 91 27 l93 3 4 -30z m300 -1 c4 -25 1 -28 -39 -34 -25 -4 -49 -2 -56 3
-7 6 -34 9 -62 9 -47 -2 -50 -1 -50 23 0 25 0 25 102 25 l101 1 4 -27z"/>
<path d="M309 383 c-21 -5 -31 -41 -18 -65 5 -10 7 -23 4 -28 -3 -5 -1 -19 5
-31 6 -11 8 -28 4 -37 -13 -30 -11 -53 5 -72 22 -25 79 -42 101 -30 10 5 64 8
121 7 136 -4 163 4 195 54 14 23 24 42 22 43 -2 1 -20 14 -40 29 -20 15 -39
27 -42 27 -3 0 -12 -16 -20 -35 -8 -19 -19 -34 -23 -33 -4 1 -32 -4 -61 -11
-29 -7 -60 -10 -70 -6 -9 4 -34 9 -56 11 -53 5 -69 21 -62 58 12 61 15 105 8
109 -14 8 -57 14 -73 10z"/>
<path d="M778 353 c-21 -8 -38 -20 -38 -25 0 -6 13 -25 29 -44 16 -18 42 -55
57 -81 15 -26 29 -50 30 -52 5 -6 63 20 75 35 9 11 -1 31 -47 95 -32 44 -61
82 -64 84 -3 1 -22 -4 -42 -12z"/>
<path d="M160 349 c0 -20 -61 -137 -81 -155 -27 -24 -24 -30 23 -48 47 -20 42
-24 93 75 18 36 40 71 49 78 24 20 20 29 -20 46 -43 18 -64 19 -64 4z"/>
</g>
</svg>
