<?xml version="1.0" standalone="no"?>
<!DOCTYPE svg PUBLIC "-//W3C//DTD SVG 20010904//EN"
 "http://www.w3.org/TR/2001/REC-SVG-20010904/DTD/svg10.dtd">
<svg version="1.0" xmlns="http://www.w3.org/2000/svg"
 width="101.000000pt" height="101.000000pt" viewBox="0 0 101.000000 101.000000"
 preserveAspectRatio="xMidYMid meet">
<metadata>
Created by potrace 1.16, written by Peter Selinger 2001-2019
</metadata>
<g transform="translate(0.000000,101.000000) scale(0.100000,-0.100000)"
fill="#000000" stroke="none">
<path d="M167 818 c4 -320 1 -613 -7 -658 -11 -61 7 -81 67 -73 32 5 34 11 31
123 -2 101 -2 159 0 335 l4 200 24 -50 c13 -27 24 -55 24 -62 0 -9 11 -8 42 3
23 8 45 19 48 24 7 11 80 22 80 12 -1 -20 -76 -106 -100 -115 -29 -11 -31 -21
-16 -79 7 -24 11 -26 44 -21 73 9 138 12 167 8 28 -5 31 -8 33 -50 1 -43 0
-44 -31 -50 -31 -5 -123 -1 -199 8 -41 6 -49 -6 -41 -60 6 -36 26 -45 80 -33
20 5 40 7 45 4 4 -3 17 0 28 6 12 6 40 8 69 4 40 -5 49 -10 51 -28 3 -42 1
-131 -4 -152 -7 -26 11 -33 66 -26 33 4 37 7 32 26 -5 21 -7 107 -4 154 1 15
7 22 15 18 8 -3 27 0 43 6 23 9 38 8 70 -5 33 -13 47 -14 67 -5 18 8 28 8 39
-1 11 -10 15 -5 18 26 7 57 0 75 -26 66 -20 -8 -145 -8 -211 -1 -25 3 -30 7
-27 28 2 14 3 35 4 48 0 15 5 22 13 18 8 -3 27 0 43 6 23 9 37 8 68 -4 71 -29
113 -1 97 63 -5 17 -11 19 -57 12 -46 -7 -69 -7 -142 -2 -22 1 -25 24 -10 80
7 25 5 27 -31 31 -69 8 -80 -7 -58 -78 9 -28 -17 -48 -52 -39 -16 3 -38 7 -50
7 -25 0 -26 -2 27 78 l37 55 56 -2 c31 -1 59 3 62 8 9 13 38 11 73 -7 24 -12
36 -13 52 -4 13 7 38 9 60 5 33 -6 39 -4 45 15 9 29 -1 66 -20 74 -9 3 -35 1
-58 -5 -28 -8 -73 -8 -136 -3 l-95 9 32 36 c18 20 32 39 32 42 0 6 -35 17 -77
23 -25 4 -34 1 -43 -15 -6 -12 -8 -21 -5 -21 3 0 -3 -17 -14 -38 -20 -40 -39
-46 -89 -28 -37 12 -72 -1 -72 -27 0 -15 -10 -5 -32 36 -23 43 -35 56 -47 51
-45 -18 -46 -18 -43 43 1 32 4 77 7 101 l4 42 -52 0 -52 0 2 -192z"/>
<path d="M362 972 c-9 -6 -11 -32 -8 -98 l4 -89 42 1 c46 1 60 14 60 57 0 26
2 27 49 27 28 0 53 4 56 10 8 12 153 11 161 -1 3 -5 27 -7 54 -3 l48 6 -4 -43
-4 -44 54 0 55 0 -1 86 -1 86 -43 -5 c-27 -3 -50 0 -59 8 -9 7 -25 10 -42 5
-33 -8 -240 -9 -338 -1 -38 3 -76 2 -83 -2z"/>
<path d="M57 799 c-14 -8 -17 -23 -17 -67 0 -71 -5 -130 -14 -160 -5 -15 -3
-22 6 -23 7 -1 28 -3 46 -5 30 -4 37 3 33 29 -1 4 3 16 8 25 5 10 12 57 14
105 5 78 3 88 -13 97 -23 13 -40 12 -63 -1z"/>
</g>
</svg>
