<?xml version="1.0" standalone="no"?>
<!DOCTYPE svg PUBLIC "-//W3C//DTD SVG 20010904//EN"
 "http://www.w3.org/TR/2001/REC-SVG-20010904/DTD/svg10.dtd">
<svg version="1.0" xmlns="http://www.w3.org/2000/svg"
 width="101.000000pt" height="101.000000pt" viewBox="0 0 101.000000 101.000000"
 preserveAspectRatio="xMidYMid meet">
<metadata>
Created by potrace 1.16, written by Peter Selinger 2001-2019
</metadata>
<g transform="translate(0.000000,101.000000) scale(0.100000,-0.100000)"
fill="#000000" stroke="none">
<path d="M178 1003 c-15 -4 -16 -18 -13 -116 2 -62 4 -127 4 -144 0 -46 1
-261 1 -368 1 -49 -2 -121 -4 -160 -8 -95 -8 -127 -1 -133 3 -4 24 -5 47 -5
43 2 62 18 52 43 -15 36 -25 184 -15 209 7 16 10 101 8 219 l-2 194 22 -47
c12 -26 24 -56 26 -66 5 -17 8 -18 45 -5 l41 15 -5 -32 c-6 -47 -7 -59 -6 -88
2 -23 6 -25 35 -22 17 2 64 5 103 7 68 4 72 3 72 -18 1 -11 2 -32 4 -46 3 -22
-1 -25 -47 -32 -27 -5 -59 -5 -70 -2 -11 3 -41 7 -66 10 -52 5 -60 -5 -52 -63
5 -29 7 -31 42 -26 136 18 189 12 189 -20 0 -12 3 -32 7 -44 6 -19 2 -25 -20
-33 -26 -10 -140 -8 -227 3 -41 6 -49 -6 -40 -61 5 -38 14 -40 97 -26 17 3 73
6 125 5 52 0 123 0 158 0 34 0 86 1 115 2 28 1 75 -2 103 -6 l52 -9 4 33 c8
51 -1 71 -26 62 -20 -8 -175 -8 -241 -1 -25 3 -30 7 -27 28 2 14 3 35 4 46 0
15 7 22 22 23 11 0 53 3 91 6 39 3 82 1 96 -4 25 -9 27 -7 32 22 8 55 -1 70
-37 61 -30 -7 -122 -8 -181 -2 -25 3 -30 7 -27 28 2 14 3 35 4 48 0 15 5 22
13 18 8 -3 27 0 43 6 22 9 39 8 75 -5 25 -8 55 -13 65 -10 26 6 34 58 16 102
-16 39 -19 127 -4 136 5 3 10 34 10 68 0 34 3 80 6 103 7 49 -16 80 -50 69
-12 -4 -60 -6 -108 -5 -58 1 -88 -2 -88 -9 0 -14 -67 -15 -72 -1 -1 5 -45 11
-96 12 -74 2 -95 0 -102 -12 -5 -8 -7 -22 -4 -30 3 -8 6 -72 7 -142 l2 -128
-31 68 c-32 71 -48 90 -59 72 -3 -5 -15 -10 -26 -10 -18 0 -19 6 -15 78 2 42
7 89 11 103 5 22 3 27 -17 33 -25 6 -44 6 -70 -1z m407 -176 l0 -58 -29 5
c-16 3 -43 6 -61 6 l-33 0 2 53 1 52 60 0 60 0 0 -58z m210 6 l0 -58 -61 0
-61 0 1 52 1 52 45 4 c25 2 52 4 60 5 12 2 15 -10 15 -55z m-209 -196 c2 -53
0 -58 -23 -63 -13 -4 -35 -2 -49 4 -13 7 -29 9 -36 7 -10 -4 -13 10 -13 52 l0
58 60 0 60 0 1 -58z m212 41 c1 -13 4 -37 8 -55 5 -28 3 -34 -19 -44 -16 -7
-36 -8 -54 -3 -15 4 -37 8 -48 8 -16 1 -19 7 -17 31 1 17 3 40 3 52 1 20 7 22
63 26 33 2 62 4 62 5 1 1 2 -8 2 -20z"/>
<path d="M61 797 c-6 -9 -12 -32 -12 -54 0 -46 -5 -106 -13 -151 -12 -63 -11
-68 14 -75 47 -12 69 15 75 93 1 8 4 26 8 40 4 14 8 43 11 65 2 22 7 47 10 56
5 12 1 18 -16 22 -13 3 -32 8 -44 12 -13 4 -25 1 -33 -8z"/>
</g>
</svg>
