<?xml version="1.0" standalone="no"?>
<!DOCTYPE svg PUBLIC "-//W3C//DTD SVG 20010904//EN"
 "http://www.w3.org/TR/2001/REC-SVG-20010904/DTD/svg10.dtd">
<svg version="1.0" xmlns="http://www.w3.org/2000/svg"
 width="101.000000pt" height="101.000000pt" viewBox="0 0 101.000000 101.000000"
 preserveAspectRatio="xMidYMid meet">
<metadata>
Created by potrace 1.16, written by Peter Selinger 2001-2019
</metadata>
<g transform="translate(0.000000,101.000000) scale(0.100000,-0.100000)"
fill="#000000" stroke="none">
<path d="M593 947 l5 -62 -32 3 c-17 2 -53 6 -79 9 -98 11 -138 -12 -123 -72
6 -24 8 -24 119 -22 l112 2 2 -40 2 -40 -72 2 c-40 2 -87 6 -105 9 -28 6 -34
3 -39 -15 -5 -18 -10 -12 -29 34 -12 31 -25 59 -27 61 -2 3 -16 -1 -31 -7 -14
-7 -29 -10 -32 -7 -7 8 -8 138 0 168 7 24 6 25 -49 25 -41 0 -56 -4 -59 -15
-8 -29 -5 -89 4 -95 12 -8 12 -173 -1 -180 -12 -8 -12 -142 1 -150 13 -8 13
-52 0 -60 -13 -8 -12 -213 1 -221 7 -4 9 -36 4 -94 -8 -97 -4 -102 62 -93 l31
5 0 84 c0 46 -3 86 -8 89 -11 7 -12 153 0 160 12 8 12 213 0 220 -13 8 -13 52
0 60 6 3 10 18 11 33 l0 27 10 -24 c5 -14 11 -32 13 -40 21 -96 23 -98 65 -76
17 8 32 15 34 15 10 0 11 -105 2 -146 -6 -27 -4 -32 15 -37 12 -3 32 -1 45 5
28 13 75 3 75 -15 0 -21 -58 -103 -96 -137 -20 -17 -60 -45 -91 -62 l-55 -31
44 -38 c23 -21 46 -38 49 -39 17 -1 168 173 196 224 24 47 31 55 32 35 0 -13
3 -60 6 -105 4 -56 1 -93 -9 -121 -25 -71 -6 -95 63 -85 33 5 33 5 25 46 -5
22 -8 86 -7 141 3 163 1 157 35 90 32 -62 154 -195 180 -195 8 0 30 20 50 44
l37 44 -43 16 c-62 24 -120 70 -155 123 -17 26 -31 50 -31 54 0 8 23 10 96 11
l51 0 8 126 c6 115 5 127 -12 140 -10 8 -28 11 -43 7 -14 -4 -58 -7 -97 -8
l-73 -2 6 35 c4 19 8 36 9 38 1 1 52 3 113 5 94 2 113 5 117 19 10 28 -6 68
-29 73 -19 5 -128 1 -151 -5 -5 -1 -21 -2 -34 -1 -23 1 -24 3 -18 61 l5 60
-55 0 -54 0 4 -63z m203 -295 c5 -4 11 -16 11 -27 1 -11 5 -32 8 -47 6 -23 3
-29 -18 -39 -16 -7 -36 -8 -54 -3 -15 4 -37 8 -48 8 -16 1 -19 7 -17 31 1 17
3 40 3 53 1 16 6 21 18 18 9 -3 23 -1 31 4 18 11 51 13 66 2z m-198 -25 c0
-12 4 -34 7 -49 6 -23 3 -29 -18 -39 -16 -7 -36 -8 -54 -3 -15 4 -37 8 -48 8
-16 1 -19 7 -17 31 1 17 3 39 4 50 0 18 8 20 63 22 58 1 63 0 63 -20z"/>
<path d="M79 813 c-19 -5 -45 -84 -36 -107 4 -9 2 -18 -3 -21 -5 -3 -9 -16 -9
-28 1 -12 -2 -41 -6 -64 -6 -37 -4 -42 17 -49 55 -17 66 -14 74 24 10 49 14
69 19 117 3 22 8 57 11 79 8 50 -11 64 -67 49z"/>
</g>
</svg>
