<?xml version="1.0" standalone="no"?>
<!DOCTYPE svg PUBLIC "-//W3C//DTD SVG 20010904//EN"
 "http://www.w3.org/TR/2001/REC-SVG-20010904/DTD/svg10.dtd">
<svg version="1.0" xmlns="http://www.w3.org/2000/svg"
 width="101.000000pt" height="101.000000pt" viewBox="0 0 101.000000 101.000000"
 preserveAspectRatio="xMidYMid meet">
<metadata>
Created by potrace 1.16, written by Peter Selinger 2001-2019
</metadata>
<g transform="translate(0.000000,101.000000) scale(0.100000,-0.100000)"
fill="#000000" stroke="none">
<path d="M548 1003 c-24 -6 -30 -50 -22 -173 3 -58 6 -166 6 -242 -1 -150 -1
-150 66 -140 29 4 31 7 27 32 -4 23 -1 28 18 29 12 0 62 3 111 6 55 4 102 1
123 -6 43 -14 55 -2 51 51 l-3 35 -50 -2 c-27 0 -80 -6 -117 -12 -47 -8 -74
-9 -87 -1 -11 5 -26 8 -33 5 -9 -4 -13 6 -13 37 l0 43 122 0 c109 0 124 2 129
18 6 20 -4 59 -19 69 -6 4 -18 3 -26 -2 -9 -4 -58 -5 -108 -3 -81 5 -93 8 -93
24 0 9 -3 24 -6 33 -5 13 2 16 40 16 25 0 46 5 46 10 0 6 11 10 25 10 14 0 25
-5 25 -11 0 -7 14 -8 39 -4 23 4 48 2 60 -4 15 -9 23 -7 35 5 35 34 5 105 -35
84 -11 -6 -66 -10 -127 -8 l-108 3 2 25 c1 14 5 32 8 40 5 11 -3 19 -27 28
-18 7 -35 11 -38 11 -2 -1 -12 -3 -21 -6z"/>
<path d="M334 945 l3 -41 -128 2 -128 2 -6 -29 c-14 -62 -8 -65 133 -65 l127
1 0 -35 c0 -32 -3 -36 -35 -42 -59 -12 -168 -9 -172 4 -7 20 -28 -2 -28 -30 0
-46 14 -57 72 -56 29 0 78 4 108 9 l56 7 -1 -46 c0 -41 -3 -48 -24 -53 -13 -3
-31 -1 -40 4 -9 6 -41 11 -71 12 -30 1 -70 4 -87 7 -29 6 -34 3 -43 -22 -6
-16 -9 -38 -5 -51 5 -20 10 -22 48 -17 82 10 162 14 194 9 29 -5 31 -8 29 -40
-3 -38 7 -44 64 -38 l35 5 2 169 c1 100 -2 169 -8 169 -11 0 -12 67 0 72 5 2
10 32 13 68 l4 65 -58 0 -57 0 3 -40z"/>
<path d="M483 438 c-18 -6 -33 -14 -33 -18 0 -4 13 -34 30 -66 16 -32 30 -64
30 -71 0 -21 17 -23 55 -7 33 13 36 18 30 42 -7 29 -66 133 -75 131 -3 -1 -20
-6 -37 -11z"/>
<path d="M753 419 c-18 -12 -33 -24 -33 -28 0 -4 14 -20 31 -37 17 -16 51 -57
75 -91 l45 -62 34 21 c46 26 50 34 31 62 -31 48 -128 156 -139 156 -7 0 -27
-10 -44 -21z"/>
<path d="M299 413 c-21 -5 -31 -40 -19 -64 5 -9 8 -55 6 -101 -2 -45 0 -93 5
-104 10 -27 64 -47 90 -34 11 6 72 8 154 5 161 -6 181 1 214 69 27 58 26 73
-1 81 -13 4 -33 17 -45 28 -27 24 -30 22 -38 -23 -12 -69 -60 -93 -170 -85
-128 9 -119 4 -128 60 -5 32 -4 58 3 73 5 13 8 28 5 33 -3 5 -1 17 5 28 8 16
6 21 -8 25 -40 11 -58 13 -73 9z"/>
<path d="M115 374 c-4 -16 -9 -40 -12 -54 -2 -14 -15 -49 -29 -79 -13 -29 -24
-55 -24 -56 0 -5 91 -28 94 -24 1 2 13 40 26 84 12 44 29 92 36 107 16 31 12
35 -43 44 -38 6 -41 5 -48 -22z"/>
</g>
</svg>
