<?xml version="1.0" standalone="no"?>
<!DOCTYPE svg PUBLIC "-//W3C//DTD SVG 20010904//EN"
 "http://www.w3.org/TR/2001/REC-SVG-20010904/DTD/svg10.dtd">
<svg version="1.0" xmlns="http://www.w3.org/2000/svg"
 width="101.000000pt" height="101.000000pt" viewBox="0 0 101.000000 101.000000"
 preserveAspectRatio="xMidYMid meet">
<metadata>
Created by potrace 1.16, written by Peter Selinger 2001-2019
</metadata>
<g transform="translate(0.000000,101.000000) scale(0.100000,-0.100000)"
fill="#000000" stroke="none">
<path d="M168 1003 c-12 -3 -16 -16 -16 -48 0 -25 4 -47 8 -50 12 -8 11 -173
-1 -180 -12 -8 -12 -142 1 -150 13 -8 13 -52 0 -60 -7 -4 -10 -69 -10 -178 1
-95 1 -187 1 -206 0 -19 2 -37 5 -40 10 -10 87 -2 95 11 13 19 11 278 -1 278
-5 0 -10 20 -10 45 0 25 5 45 10 45 6 0 10 30 10 70 0 40 -4 70 -10 70 -6 0
-10 32 -10 75 0 41 4 75 9 75 10 0 31 -57 36 -96 3 -34 4 -34 53 -21 46 12 46
13 27 73 -6 19 -3 21 24 20 17 -1 31 -4 31 -7 0 -39 -86 -224 -131 -281 l-30
-37 43 -19 c44 -20 58 -16 71 21 4 13 36 2 71 -26 l30 -24 -22 -35 c-29 -46
-102 -114 -147 -135 -41 -20 -43 -28 -12 -44 12 -6 32 -21 44 -32 l22 -20 65
63 c125 119 169 227 185 443 1 16 3 17 16 3 18 -18 20 -72 3 -80 -10 -5 -10
-7 0 -12 15 -7 17 -164 2 -164 -5 0 -10 -18 -10 -40 0 -22 5 -40 11 -40 6 0
10 -16 8 -37 -3 -61 0 -72 25 -88 51 -34 200 -35 250 -2 13 9 31 37 40 63 19
58 20 64 2 64 -7 0 -30 11 -50 25 -22 15 -36 20 -37 12 -8 -86 -21 -99 -91
-94 -27 3 -51 6 -53 9 -5 4 -8 128 -4 168 2 23 3 22 18 -12 18 -42 39 -51 84
-36 57 19 62 30 63 136 2 100 7 145 18 173 12 27 -34 63 -49 39 -4 -6 -47 -8
-111 -5 -86 4 -109 2 -130 -12 -20 -13 -30 -14 -49 -5 -17 8 -33 8 -50 2 -25
-10 -25 -10 -10 20 8 16 19 32 25 35 21 13 9 25 -34 36 -63 16 -69 39 -11 39
25 0 45 5 45 10 0 6 11 10 25 10 14 0 25 -4 25 -10 0 -6 30 -10 70 -10 40 0
70 4 70 10 0 6 11 10 25 10 14 0 25 -5 25 -11 0 -7 12 -9 35 -5 36 7 48 -7 25
-30 -17 -17 -1 -42 31 -49 46 -10 66 1 73 43 8 50 7 105 -2 117 -4 6 -58 10
-124 10 -120 0 -125 2 -119 39 1 4 -4 14 -10 22 -6 8 -8 14 -5 14 4 0 2 9 -4
20 -11 21 -45 27 -55 9 -4 -5 -17 -9 -28 -8 -36 2 -38 0 -24 -28 36 -71 40
-68 -92 -67 -133 2 -130 3 -131 -76 0 -22 -3 -30 -8 -22 -7 10 -16 9 -45 -3
l-37 -15 5 72 c3 40 8 89 11 109 6 34 5 36 -26 43 -34 6 -45 6 -72 -1z m638
-418 c-3 -9 0 -26 6 -40 9 -19 8 -34 -2 -65 -7 -22 -16 -40 -19 -41 -3 -1 -20
-2 -37 -4 -31 -2 -32 -1 -38 46 -4 28 -2 57 4 68 5 11 8 26 5 33 -4 10 7 14
41 16 37 1 45 -1 40 -13z m-292 -39 c-2 -23 -5 -50 -8 -61 -2 -11 -5 -24 -5
-28 -1 -5 -14 1 -30 12 -35 25 -40 26 -58 4 -8 -10 -5 1 7 25 11 23 25 53 29
66 7 17 17 23 39 23 29 0 30 -2 26 -41z"/>
<path d="M50 790 c-9 -6 -15 -28 -16 -62 -2 -29 -5 -81 -8 -115 -5 -47 -3 -63
6 -64 7 -1 27 -3 45 -5 30 -3 32 -2 39 39 8 45 13 84 18 134 2 17 7 36 10 41
18 29 -58 55 -94 32z"/>
</g>
</svg>
