<?xml version="1.0" standalone="no"?>
<!DOCTYPE svg PUBLIC "-//W3C//DTD SVG 20010904//EN"
 "http://www.w3.org/TR/2001/REC-SVG-20010904/DTD/svg10.dtd">
<svg version="1.0" xmlns="http://www.w3.org/2000/svg"
 width="101.000000pt" height="101.000000pt" viewBox="0 0 101.000000 101.000000"
 preserveAspectRatio="xMidYMid meet">
<metadata>
Created by potrace 1.16, written by Peter Selinger 2001-2019
</metadata>
<g transform="translate(0.000000,101.000000) scale(0.100000,-0.100000)"
fill="#000000" stroke="none">
<path d="M156 896 c2 -110 1 -115 -16 -106 -10 6 -30 10 -45 10 -28 0 -46 -31
-44 -78 1 -41 -13 -130 -26 -172 -5 -17 5 -23 67 -35 27 -6 34 18 43 133 3 41
15 72 15 41 5 -278 5 -499 -1 -515 -10 -30 0 -72 20 -77 30 -7 81 5 81 19 0
19 19 18 63 -5 l37 -19 26 44 c27 47 62 132 71 174 3 14 6 113 7 220 1 107 5
202 9 210 4 9 6 39 4 68 l-3 52 32 0 c17 0 44 3 60 6 28 5 29 5 29 -38 l0 -43
-50 -1 c-41 0 -50 -4 -53 -20 -4 -33 14 -48 60 -49 l43 0 -1 -40 c-1 -42 -12
-52 -42 -36 -41 22 -78 -11 -65 -59 4 -16 11 -18 47 -14 88 12 209 14 241 5
29 -8 34 -6 38 10 10 40 -2 55 -46 56 -86 4 -83 2 -79 39 4 32 6 34 42 34 39
0 70 20 70 45 0 25 -31 45 -70 45 -35 0 -38 2 -42 33 l-3 32 75 0 75 1 3 -106
c3 -112 3 -208 -1 -415 l-2 -130 -48 -1 c-26 0 -49 -3 -52 -6 -3 -2 4 -22 15
-43 11 -22 20 -45 20 -52 0 -16 63 -11 111 10 31 13 38 21 42 54 9 60 7 112
-3 118 -13 8 -13 52 0 60 12 7 12 153 0 160 -12 7 -11 153 0 160 6 4 10 55 9
118 0 62 3 122 6 134 8 26 -22 47 -46 32 -8 -6 -63 -7 -135 -3 -82 4 -123 3
-128 -4 -8 -14 -166 -14 -183 0 -7 5 -24 7 -38 4 -23 -6 -30 -20 -27 -56 1 -8
4 -62 6 -120 4 -95 4 -102 -8 -70 -8 19 -20 52 -29 72 l-16 37 -35 -14 c-35
-15 -36 -15 -37 7 -2 31 0 105 3 153 l3 40 -51 3 -51 3 3 -115z m-5 -153 c-12
-20 -14 -14 -5 12 4 9 9 14 11 11 3 -2 0 -13 -6 -23z m134 -74 c5 -41 14 -51
38 -44 12 4 29 9 38 11 12 3 17 -2 18 -18 1 -13 3 -49 5 -81 3 -36 -1 -75 -10
-99 -8 -22 -12 -44 -9 -48 13 -21 -50 -175 -94 -230 l-20 -25 0 45 c0 25 -2
90 -5 145 -9 149 -8 281 4 420 1 15 5 12 16 -14 9 -19 17 -47 19 -62z"/>
<path d="M529 513 c-21 -5 -30 -38 -20 -67 9 -23 7 -112 -2 -136 -10 -22 7
-42 34 -40 13 1 70 2 127 3 98 1 102 2 95 22 -8 22 -8 119 0 175 l5 36 -96 0
c-54 -1 -104 2 -112 5 -8 4 -22 5 -31 2z m156 -88 c0 -11 4 -30 9 -43 10 -30
-10 -56 -38 -47 -12 4 -32 8 -46 9 -20 1 -24 6 -22 26 2 14 3 35 4 48 0 16 5
21 17 18 9 -3 23 -1 31 4 22 15 45 7 45 -15z"/>
</g>
</svg>
