<?xml version="1.0" standalone="no"?>
<!DOCTYPE svg PUBLIC "-//W3C//DTD SVG 20010904//EN"
 "http://www.w3.org/TR/2001/REC-SVG-20010904/DTD/svg10.dtd">
<svg version="1.0" xmlns="http://www.w3.org/2000/svg"
 width="101.000000pt" height="101.000000pt" viewBox="0 0 101.000000 101.000000"
 preserveAspectRatio="xMidYMid meet">
<metadata>
Created by potrace 1.16, written by Peter Selinger 2001-2019
</metadata>
<g transform="translate(0.000000,101.000000) scale(0.100000,-0.100000)"
fill="#000000" stroke="none">
<path d="M209 1003 c-13 -3 -16 -18 -17 -68 0 -36 4 -67 9 -70 11 -8 10 -173
-2 -180 -12 -8 -12 -142 1 -150 13 -8 13 -52 0 -60 -5 -3 -9 -55 -9 -118 1
-62 1 -123 1 -137 -2 -110 0 -118 18 -123 10 -2 30 -2 44 0 22 5 26 11 27 42
1 20 3 76 5 125 2 49 0 94 -5 100 -12 15 -13 153 -1 161 5 3 9 49 9 101 0 53
2 98 4 101 3 2 13 -10 23 -27 11 -18 25 -29 34 -27 17 4 22 -94 20 -389 -2
-163 -1 -171 18 -176 11 -3 31 -3 45 -1 24 5 25 6 31 136 3 73 5 183 3 245
l-2 112 126 0 c69 0 146 3 170 6 l44 6 2 -83 c6 -213 0 -318 -17 -329 -6 -4
-27 -6 -46 -4 -19 1 -34 -1 -34 -4 0 -21 37 -92 50 -95 18 -3 109 28 124 43
21 21 35 243 16 255 -13 8 -13 152 0 160 10 6 12 106 1 123 -4 7 -49 12 -111
14 l-105 3 3 53 c3 33 0 52 -7 52 -13 0 -15 67 -2 72 4 2 10 29 13 60 5 64 2
68 -67 74 l-40 4 3 -60 c3 -39 0 -60 -7 -60 -6 0 -11 -18 -11 -40 0 -22 5 -40
10 -40 11 0 13 -61 4 -95 -5 -18 -13 -20 -99 -20 -67 0 -91 3 -84 11 6 7 -5
29 -32 62 -39 50 -41 51 -63 36 -21 -13 -24 -13 -30 1 -10 27 -7 93 5 101 6 3
9 17 6 30 -2 14 0 27 4 30 17 10 9 20 -24 32 -18 7 -35 11 -38 11 -2 -1 -11
-3 -20 -6z"/>
<path d="M790 906 c-6 -19 -29 -62 -50 -95 l-39 -60 27 -9 c15 -6 35 -13 44
-17 13 -5 23 6 47 53 16 32 41 73 55 89 14 17 26 33 26 36 0 6 -76 37 -89 37
-5 0 -15 -15 -21 -34z"/>
<path d="M422 912 c-30 -17 -31 -19 -17 -39 8 -12 25 -48 37 -80 12 -32 24
-62 28 -66 10 -11 80 24 80 40 0 21 -74 163 -85 163 -5 -1 -25 -9 -43 -18z"/>
<path d="M99 802 c0 -4 -3 -16 -5 -27 -2 -11 -6 -31 -9 -45 -2 -14 -4 -25 -5
-25 -1 0 -4 -12 -5 -26 -2 -14 -13 -52 -24 -84 -12 -33 -21 -60 -21 -61 0 -3
63 -18 78 -18 16 -1 37 55 52 134 14 71 18 90 25 116 5 15 1 23 -12 28 -27 11
-73 16 -74 8z"/>
<path d="M518 553 c-14 -4 -16 -21 -16 -143 1 -130 2 -139 21 -144 11 -3 28
-1 38 4 9 6 59 8 111 7 l93 -4 3 137 3 137 -77 6 c-83 7 -149 7 -176 0z m158
-143 l1 -69 -43 1 -43 2 2 61 2 60 40 6 c22 3 40 7 40 7 0 1 0 -29 1 -68z"/>
</g>
</svg>
