<?xml version="1.0" standalone="no"?>
<!DOCTYPE svg PUBLIC "-//W3C//DTD SVG 20010904//EN"
 "http://www.w3.org/TR/2001/REC-SVG-20010904/DTD/svg10.dtd">
<svg version="1.0" xmlns="http://www.w3.org/2000/svg"
 width="101.000000pt" height="101.000000pt" viewBox="0 0 101.000000 101.000000"
 preserveAspectRatio="xMidYMid meet">
<metadata>
Created by potrace 1.16, written by Peter Selinger 2001-2019
</metadata>
<g transform="translate(0.000000,101.000000) scale(0.100000,-0.100000)"
fill="#000000" stroke="none">
<path d="M199 940 c-32 -32 -79 -70 -105 -86 -27 -15 -50 -28 -52 -29 -4 -3
43 -85 48 -85 3 0 52 39 110 85 58 47 111 85 118 85 21 0 14 14 -25 52 l-38
35 -56 -57z"/>
<path d="M365 930 c-12 -53 -1 -66 57 -67 29 -1 58 3 65 8 6 6 31 9 55 7 l43
-3 3 -47 c2 -27 7 -48 13 -48 5 0 9 -16 9 -35 0 -19 -5 -35 -11 -35 -8 0 -10
-25 -7 -82 l4 -83 -47 3 -47 4 3 96 c2 54 6 104 10 114 8 21 -24 32 -70 24
l-33 -6 2 -118 c1 -129 1 -130 -62 -108 -30 10 -52 -8 -52 -43 0 -45 14 -56
72 -55 232 5 450 5 455 0 13 -12 82 -6 97 10 17 16 19 27 10 59 -5 19 -14 20
-129 20 l-124 0 2 65 2 65 85 -1 c91 -1 100 3 100 49 0 34 -35 53 -77 42 -15
-4 -47 -8 -69 -9 l-42 -1 2 56 c1 48 3 55 19 51 9 -2 24 1 32 8 15 13 110 9
147 -5 20 -8 32 25 23 64 -6 28 -7 29 -81 30 -44 1 -74 -3 -74 -9 0 -6 -32
-10 -80 -10 -47 0 -80 4 -80 10 0 6 -18 10 -40 10 -22 0 -40 -4 -40 -10 0 -5
-25 -10 -55 -10 -30 0 -55 5 -55 10 0 24 -29 7 -35 -20z"/>
<path d="M223 775 c-40 -40 -101 -94 -137 -119 l-65 -47 21 -37 c12 -20 23
-39 25 -41 1 -2 26 16 55 41 l53 45 -1 -93 c-2 -91 -1 -94 22 -100 13 -3 34
-4 47 -1 21 6 22 10 23 141 l2 135 33 29 c19 16 42 31 52 35 25 9 21 18 -21
53 l-38 32 -71 -73z"/>
<path d="M487 419 l-38 -20 29 -37 c16 -20 37 -52 46 -70 l17 -33 37 22 c20
12 39 24 40 25 4 2 -87 135 -91 134 -1 -1 -19 -10 -40 -21z"/>
<path d="M289 374 c-12 -34 -1 -202 16 -229 17 -27 81 -48 106 -34 11 5 73 7
146 5 146 -6 169 1 195 54 27 57 31 80 15 80 -8 0 -33 14 -55 30 -26 19 -42
25 -43 18 -1 -7 -2 -25 -3 -41 -3 -51 -26 -62 -129 -60 -132 3 -134 3 -153 24
-12 13 -14 26 -8 46 4 15 8 37 9 48 1 11 5 30 9 42 8 26 -16 43 -64 43 -24 0
-33 -6 -41 -26z"/>
<path d="M737 377 l-28 -23 59 -55 c32 -30 69 -68 83 -86 l24 -32 39 34 40 33
-80 76 c-43 41 -86 75 -94 75 -8 0 -28 -10 -43 -22z"/>
<path d="M145 360 c-4 -6 -8 -22 -11 -36 -3 -14 -18 -53 -35 -86 -17 -33 -29
-61 -27 -63 5 -4 71 -25 79 -25 4 0 20 32 35 70 15 39 33 75 41 81 22 19 15
34 -22 52 -41 20 -51 21 -60 7z"/>
</g>
</svg>
