<?xml version="1.0" standalone="no"?>
<!DOCTYPE svg PUBLIC "-//W3C//DTD SVG 20010904//EN"
 "http://www.w3.org/TR/2001/REC-SVG-20010904/DTD/svg10.dtd">
<svg version="1.0" xmlns="http://www.w3.org/2000/svg"
 width="101.000000pt" height="101.000000pt" viewBox="0 0 101.000000 101.000000"
 preserveAspectRatio="xMidYMid meet">
<metadata>
Created by potrace 1.16, written by Peter Selinger 2001-2019
</metadata>
<g transform="translate(0.000000,101.000000) scale(0.100000,-0.100000)"
fill="#000000" stroke="none">
<path d="M190 1002 c-12 -6 -16 -35 -18 -149 -2 -92 0 -143 7 -148 14 -8 14
-52 1 -60 -12 -7 -12 -212 0 -220 13 -8 11 -153 -2 -161 -5 -3 -7 -22 -3 -43
3 -20 1 -49 -4 -64 -19 -49 4 -69 68 -59 l33 5 -6 48 c-4 27 -2 57 3 67 6 12
4 36 -5 72 -9 33 -13 73 -9 100 13 98 15 246 4 282 -9 29 -9 44 3 73 l14 37
26 -59 c14 -32 28 -66 31 -75 6 -16 9 -16 41 -3 19 8 42 12 50 9 18 -7 22 -54
5 -54 -6 0 -9 -37 -7 -107 l3 -108 -25 3 c-14 1 -40 4 -58 6 -27 4 -33 1 -38
-19 -8 -32 3 -62 25 -68 11 -2 39 -1 62 3 24 5 47 6 51 4 4 -3 17 0 29 6 11 6
28 9 36 5 23 -8 -42 -73 -127 -127 -36 -23 -67 -43 -69 -45 -7 -5 52 -63 64
-63 6 0 53 31 105 70 51 38 101 72 111 75 31 10 22 32 -22 58 -37 22 -39 25
-18 27 72 6 318 0 340 -8 39 -15 76 -4 82 25 10 51 0 62 -55 58 l-50 -4 7 143
c5 96 4 146 -3 150 -13 8 -15 173 -2 181 5 3 8 30 8 60 l-2 55 -40 -8 c-43 -7
-73 -7 -246 3 -58 3 -120 3 -137 0 -33 -6 -33 -7 -33 -60 0 -30 5 -55 10 -55
6 0 10 -16 10 -35 0 -19 -4 -35 -10 -35 -5 0 -10 -23 -10 -52 l0 -52 -35 73
c-37 77 -42 80 -97 56 -16 -6 -18 -1 -20 36 0 24 0 51 1 59 6 41 10 60 15 68
12 20 -61 39 -94 24z m585 -151 l0 -36 -130 0 -130 0 0 35 0 35 130 1 130 1 0
-36z m-3 -147 l4 -31 -90 -7 c-49 -3 -108 -6 -132 -6 l-42 0 1 38 2 37 127 0
126 1 4 -32z m3 -128 l0 -34 -70 -7 c-47 -4 -71 -3 -73 4 -2 6 -28 11 -58 11
-30 0 -54 4 -54 9 0 5 -3 16 -6 25 -5 13 9 16 93 19 54 1 114 4 133 5 34 2 35
1 35 -32z m0 -146 c0 -36 -3 -40 -30 -45 -16 -3 -66 -3 -110 0 -44 3 -89 6
-100 6 -17 1 -20 7 -17 35 5 37 2 37 167 42 l91 3 -1 -41z"/>
<path d="M61 802 c-5 -10 -9 -50 -9 -89 1 -39 -2 -75 -6 -81 -3 -5 -5 -21 -4
-33 1 -13 -2 -33 -5 -44 -6 -18 -2 -20 43 -22 54 -2 60 5 60 72 0 17 2 68 5
115 5 91 1 100 -47 100 -16 0 -31 -7 -37 -18z"/>
<path d="M707 282 l-28 -29 43 -28 c24 -16 69 -53 101 -83 l57 -55 35 33 c19
19 35 37 35 40 0 8 -119 104 -162 130 -43 26 -49 25 -81 -8z"/>
</g>
</svg>
