<?xml version="1.0" standalone="no"?>
<!DOCTYPE svg PUBLIC "-//W3C//DTD SVG 20010904//EN"
 "http://www.w3.org/TR/2001/REC-SVG-20010904/DTD/svg10.dtd">
<svg version="1.0" xmlns="http://www.w3.org/2000/svg"
 width="101.000000pt" height="101.000000pt" viewBox="0 0 101.000000 101.000000"
 preserveAspectRatio="xMidYMid meet">
<metadata>
Created by potrace 1.16, written by Peter Selinger 2001-2019
</metadata>
<g transform="translate(0.000000,101.000000) scale(0.100000,-0.100000)"
fill="#000000" stroke="none">
<path d="M235 1000 c-11 -5 -14 -9 -7 -9 9 -1 12 -20 10 -68 l-3 -68 -77 1
-77 2 -7 -33 c-7 -38 9 -75 33 -75 9 0 31 5 50 12 18 6 35 9 39 5 11 -10 -76
-153 -122 -201 l-42 -44 41 -26 c22 -15 44 -25 50 -23 5 1 33 46 61 98 l51 96
0 -123 c0 -135 0 -136 62 -127 l30 5 9 101 9 102 23 -35 c12 -19 23 -39 25
-45 2 -6 19 -3 41 8 20 9 38 17 39 17 2 0 0 -49 -5 -90 -4 -44 2 -58 25 -54
12 3 5 -3 -15 -12 -36 -15 -48 -36 -29 -48 5 -3 20 -31 35 -62 24 -50 29 -55
51 -50 43 11 75 25 75 34 0 7 -31 61 -73 128 -4 8 1 12 16 13 12 0 56 3 97 6
41 3 112 1 157 -3 76 -7 82 -6 87 11 2 11 0 30 -5 44 -5 14 -6 72 -3 134 5 79
4 109 -4 109 -14 0 -16 47 -3 52 10 4 22 151 12 166 -4 7 -28 8 -76 2 -96 -11
-213 -12 -220 -1 -3 5 -32 9 -65 9 l-60 -1 0 -54 c0 -29 5 -53 10 -53 6 0 10
-16 10 -35 0 -19 -5 -35 -11 -35 -8 0 -10 -26 -8 -80 l4 -79 -23 27 c-12 15
-30 37 -38 50 -17 23 -48 29 -59 12 -12 -20 -20 -9 -22 30 l-1 40 42 0 c23 0
47 -5 53 -11 15 -15 26 23 18 61 -6 29 -8 29 -66 27 -56 -2 -60 -1 -54 18 4
11 8 34 10 50 1 17 6 37 9 46 4 10 3 20 -2 23 -18 11 -87 15 -107 6z m560
-165 c0 -16 -4 -33 -10 -37 -15 -11 -83 -9 -90 2 -4 6 -32 9 -63 8 l-57 -3 0
30 0 30 110 0 110 0 0 -30z m0 -137 l0 -33 -110 0 -110 0 -1 27 -1 27 96 4
c53 1 103 4 111 5 11 1 15 -7 15 -30z m0 -149 c0 -35 -3 -39 -30 -44 -16 -3
-57 -3 -90 0 -33 3 -69 6 -80 6 -17 1 -20 7 -17 35 5 37 5 37 147 41 l71 2 -1
-40z"/>
<path d="M756 374 c-20 -14 -36 -28 -36 -33 0 -4 12 -18 26 -32 14 -13 48 -54
76 -91 l50 -68 45 32 c24 18 46 35 48 38 5 9 -97 122 -138 153 l-34 26 -37
-25z"/>
<path d="M116 325 c-9 -37 -28 -89 -41 -116 -26 -51 -24 -57 22 -64 16 -2 35
-6 44 -10 17 -6 41 39 80 154 25 71 24 77 -10 84 -16 3 -40 9 -53 12 -24 6
-26 3 -42 -60z"/>
<path d="M308 383 c-23 -6 -25 -24 -12 -103 4 -19 6 -59 6 -87 -1 -45 2 -55
22 -69 23 -15 89 -27 131 -24 27 1 129 9 186 14 76 6 106 34 123 111 6 28 4
31 -45 53 -28 13 -52 22 -54 20 -2 -2 -7 -19 -10 -38 -10 -60 -35 -75 -118
-73 -138 3 -163 15 -153 67 4 17 8 42 10 56 2 14 7 33 11 42 4 11 2 19 -6 22
-27 8 -74 13 -91 9z"/>
</g>
</svg>
