<?xml version="1.0" standalone="no"?>
<!DOCTYPE svg PUBLIC "-//W3C//DTD SVG 20010904//EN"
 "http://www.w3.org/TR/2001/REC-SVG-20010904/DTD/svg10.dtd">
<svg version="1.0" xmlns="http://www.w3.org/2000/svg"
 width="101.000000pt" height="101.000000pt" viewBox="0 0 101.000000 101.000000"
 preserveAspectRatio="xMidYMid meet">
<metadata>
Created by potrace 1.16, written by Peter Selinger 2001-2019
</metadata>
<g transform="translate(0.000000,101.000000) scale(0.100000,-0.100000)"
fill="#000000" stroke="none">
<path d="M175 1000 c-11 -5 -14 -9 -7 -9 15 -1 17 -111 2 -111 -5 0 -10 -18
-10 -40 0 -22 5 -40 10 -40 6 0 10 -33 10 -80 0 -47 -4 -80 -10 -80 -6 0 -10
-30 -10 -70 0 -40 4 -70 10 -70 6 0 10 -11 10 -25 0 -14 -4 -25 -10 -25 -6 0
-10 -40 -10 -100 0 -68 4 -100 11 -100 12 0 8 -98 -6 -131 -7 -20 17 -28 62
-22 l31 5 7 138 c5 98 3 144 -5 160 -8 14 -9 48 -6 98 4 42 7 125 9 184 l2
107 22 -43 c12 -24 24 -56 27 -71 7 -38 11 -40 54 -23 l38 15 12 -39 c11 -35
10 -43 -18 -98 -16 -32 -43 -75 -60 -93 -16 -19 -30 -39 -30 -44 0 -5 15 -17
34 -26 l35 -16 36 50 c24 34 41 49 51 45 9 -3 24 -1 35 5 11 5 38 7 62 4 41
-6 43 -8 44 -45 2 -38 1 -38 -43 -45 -24 -3 -49 -3 -55 1 -7 4 -29 8 -49 10
-30 3 -39 -1 -43 -15 -14 -53 22 -93 64 -70 10 5 42 6 71 3 l54 -6 2 -43 1
-42 -55 -7 c-30 -3 -61 -3 -67 1 -10 6 -48 10 -145 14 -13 1 -26 -2 -30 -5 -7
-8 -6 -75 1 -82 6 -7 34 -6 77 2 19 3 78 6 130 5 52 0 123 0 158 0 34 0 86 1
115 2 28 1 75 -1 103 -6 50 -7 52 -7 57 19 12 65 -23 81 -121 56 -43 -11 -64
-12 -85 -4 -16 6 -35 8 -43 5 -11 -4 -13 5 -12 40 3 51 -2 49 119 47 75 -1 77
-1 82 25 2 15 2 36 0 46 -5 16 -11 18 -47 12 -22 -4 -57 -7 -76 -6 -19 2 -45
3 -57 4 -19 1 -22 7 -20 39 1 43 -6 41 139 43 84 1 97 3 101 19 3 10 3 26 0
36 -4 16 -17 18 -101 19 -146 2 -137 -1 -137 47 l0 41 101 0 100 0 2 176 1
177 -31 6 c-47 9 -146 7 -153 -3 -7 -12 -172 -13 -180 -1 -9 14 -94 10 -110
-7 -17 -16 -20 -49 -5 -58 14 -9 11 -165 -4 -187 -11 -15 -16 -9 -44 54 -34
76 -27 72 -96 51 -16 -5 -17 -2 -12 23 3 16 6 56 8 88 1 51 -1 61 -18 67 -25
10 -54 10 -79 -1z m630 -137 l0 -28 -77 4 c-53 2 -78 -1 -78 -8 0 -6 -11 -11
-25 -11 -14 0 -25 5 -25 10 0 6 -18 10 -40 10 -22 0 -40 4 -40 9 0 5 -2 15 -5
23 -4 10 25 14 142 16 l148 2 0 -27z m-62 -99 c76 -7 77 -7 77 -35 0 -15 -4
-30 -9 -34 -5 -3 -73 -2 -150 1 -139 7 -141 7 -141 31 0 18 5 23 25 23 14 0
25 5 25 10 0 12 64 13 173 4z m-203 -154 l58 0 4 -38 3 -38 -52 0 c-46 1 -50
3 -37 17 20 22 18 25 -26 43 -22 9 -40 19 -40 22 0 3 7 3 16 0 9 -3 42 -6 74
-6z"/>
<path d="M63 832 c-7 -4 -12 -37 -12 -82 0 -41 -3 -96 -6 -121 -5 -42 -3 -47
17 -53 56 -15 79 7 78 73 -1 40 4 105 10 136 5 22 -1 32 -25 43 -30 14 -45 15
-62 4z"/>
</g>
</svg>
