<?xml version="1.0" standalone="no"?>
<!DOCTYPE svg PUBLIC "-//W3C//DTD SVG 20010904//EN"
 "http://www.w3.org/TR/2001/REC-SVG-20010904/DTD/svg10.dtd">
<svg version="1.0" xmlns="http://www.w3.org/2000/svg"
 width="101.000000pt" height="101.000000pt" viewBox="0 0 101.000000 101.000000"
 preserveAspectRatio="xMidYMid meet">
<metadata>
Created by potrace 1.16, written by Peter Selinger 2001-2019
</metadata>
<g transform="translate(0.000000,101.000000) scale(0.100000,-0.100000)"
fill="#000000" stroke="none">
<path d="M294 975 c-3 -19 -4 -41 -1 -48 4 -11 -15 -13 -94 -10 -119 3 -149
-5 -149 -44 0 -50 7 -52 132 -49 107 3 115 2 111 -14 -9 -32 15 -60 50 -60 33
0 54 9 56 23 1 4 1 16 1 27 0 15 7 20 25 20 l25 0 -20 -40 c-12 -23 -28 -44
-36 -47 -8 -3 -77 -1 -152 4 -75 5 -144 8 -154 5 -18 -4 -32 -45 -23 -71 6
-20 104 -28 137 -10 13 7 41 8 75 4 l55 -7 -34 -25 c-52 -39 -138 -87 -200
-113 l-57 -23 37 -33 c20 -18 40 -33 45 -34 4 0 36 18 71 40 35 22 66 40 69
40 6 0 8 -24 9 -92 l1 -48 46 6 c51 7 174 7 357 2 l122 -4 -4 79 c-2 43 0 86
5 96 6 10 8 26 5 37 -5 17 -13 19 -87 16 -83 -3 -272 -4 -316 -1 -24 1 -23 2
8 27 27 20 44 25 87 24 30 0 56 3 59 8 6 10 163 12 179 2 17 -11 190 -9 198 3
14 18 8 64 -8 73 -11 6 -34 4 -66 -6 -41 -13 -53 -14 -70 -3 -15 9 -23 10 -31
2 -14 -14 -74 -14 -82 -1 -3 6 1 13 10 16 9 4 15 14 14 23 -5 58 -9 56 121 54
107 -1 120 1 125 17 3 10 3 30 -1 44 -6 25 -8 26 -61 20 -35 -5 -62 -3 -77 6
-13 7 -45 11 -70 8 -43 -3 -47 -2 -41 17 14 48 15 65 3 66 -88 7 -105 3 -98
-26 1 -5 3 -23 4 -38 l2 -28 -106 3 -106 3 7 40 c9 47 1 55 -58 55 -40 0 -42
-2 -49 -35z m326 -160 c0 -8 -6 -24 -12 -35 -11 -17 -10 -22 2 -30 17 -11 22
-10 -63 -13 l-48 -2 33 27 33 27 -28 10 c-16 6 -36 11 -45 11 -15 0 -15 2 -2
10 8 5 41 10 73 10 44 0 57 -3 57 -15z m-19 -292 l105 -5 1 -33 1 -33 -102 -5
c-55 -4 -123 -4 -151 -2 -27 3 -60 5 -71 6 -18 1 -22 7 -21 35 1 26 5 33 16
29 9 -2 23 0 31 5 17 11 36 11 191 3z"/>
<path d="M161 298 c-16 -35 -40 -78 -55 -97 l-26 -34 41 -19 c23 -10 44 -18
49 -18 4 0 22 30 39 68 18 37 42 77 54 90 24 26 19 34 -35 57 l-38 15 -29 -62z"/>
<path d="M485 348 c-11 -6 -21 -12 -23 -13 -2 -2 14 -27 34 -57 21 -29 39 -55
40 -57 4 -5 74 40 74 48 0 11 -84 91 -95 91 -6 0 -19 -6 -30 -12z"/>
<path d="M777 339 l-37 -20 53 -62 c28 -34 62 -75 73 -91 l21 -29 37 28 c20
15 36 33 36 39 0 6 -33 44 -72 83 l-73 72 -38 -20z"/>
<path d="M307 328 c-3 -12 -2 -29 3 -38 5 -10 7 -46 4 -81 -6 -56 -4 -66 14
-83 12 -10 31 -17 44 -16 13 1 93 2 179 3 172 2 177 4 210 68 25 50 24 66 -3
74 -13 4 -33 17 -45 28 -28 25 -33 21 -38 -32 -5 -54 -7 -56 -57 -69 -62 -16
-204 -4 -218 18 -11 18 -4 90 9 103 23 23 3 37 -60 43 -31 3 -38 0 -42 -18z"/>
</g>
</svg>
