<?xml version="1.0" standalone="no"?>
<!DOCTYPE svg PUBLIC "-//W3C//DTD SVG 20010904//EN"
 "http://www.w3.org/TR/2001/REC-SVG-20010904/DTD/svg10.dtd">
<svg version="1.0" xmlns="http://www.w3.org/2000/svg"
 width="101.000000pt" height="101.000000pt" viewBox="0 0 101.000000 101.000000"
 preserveAspectRatio="xMidYMid meet">
<metadata>
Created by potrace 1.16, written by Peter Selinger 2001-2019
</metadata>
<g transform="translate(0.000000,101.000000) scale(0.100000,-0.100000)"
fill="#000000" stroke="none">
<path d="M168 1003 c15 -6 17 -113 2 -113 -5 0 -10 -18 -10 -40 0 -22 5 -40
10 -40 6 0 10 -33 10 -80 0 -47 -4 -80 -10 -80 -6 0 -10 -30 -10 -70 0 -40 4
-70 10 -70 6 0 10 -11 10 -25 0 -14 -5 -25 -12 -25 -8 0 -9 -38 -5 -145 4 -84
2 -156 -3 -170 -18 -47 6 -67 68 -57 28 4 32 7 25 26 -7 18 -8 107 -2 194 1
26 11 28 29 7 7 -8 18 -15 24 -15 13 0 58 62 97 133 22 41 27 46 28 26 1 -13
3 -64 6 -114 4 -62 1 -104 -8 -137 -25 -83 -8 -111 62 -100 29 4 32 7 26 30
-6 25 -6 25 17 9 55 -40 54 -40 103 15 53 59 81 108 105 188 l18 54 6 -41 c9
-50 53 -143 95 -201 l32 -43 28 23 c16 13 37 28 47 34 16 10 14 15 -29 60 -73
75 -114 171 -122 286 -3 37 -2 38 28 33 17 -3 34 -8 39 -11 4 -3 8 3 9 13 0
10 15 63 33 118 19 55 30 104 26 108 -4 5 -25 10 -48 13 -39 5 -40 4 -48 -33
-4 -21 -9 -45 -10 -53 -5 -40 -15 -82 -25 -107 -8 -22 -12 -24 -19 -13 -13 20
-13 157 0 162 5 2 12 37 15 78 4 41 9 93 12 115 4 38 3 41 -29 52 -39 15 -76
7 -82 -16 -8 -30 -5 -90 4 -96 12 -8 11 -145 -2 -210 -5 -27 -11 -70 -13 -95
-2 -25 -6 -56 -9 -70 -2 -14 -7 -41 -10 -60 -12 -65 -74 -176 -124 -220 l-47
-42 -8 38 c-4 21 -5 76 -2 123 3 48 6 96 6 109 2 32 8 28 30 -23 11 -25 24
-45 30 -45 13 0 69 29 69 36 0 8 -30 64 -57 107 -23 37 -25 38 -48 23 -24 -16
-24 -16 -22 24 1 34 4 39 22 35 11 -2 28 -4 39 -4 14 -1 17 -6 12 -26 -4 -17
-2 -25 6 -26 7 0 25 -3 40 -5 32 -5 37 1 44 63 9 77 11 95 19 139 8 46 2 52
-55 50 l-35 -1 -1 -63 c-1 -35 -5 -66 -8 -69 -3 -4 -6 2 -6 12 0 15 -6 17 -37
12 l-38 -6 0 84 c0 53 4 84 10 81 6 -2 22 3 36 10 15 7 29 11 32 8 11 -11 47
8 47 24 -1 29 -45 75 -66 68 -11 -3 -23 -6 -29 -7 -5 0 -17 -5 -26 -10 -27
-14 -71 -21 -146 -23 -40 -1 -74 -4 -78 -7 -3 -3 5 -24 17 -47 22 -40 25 -42
68 -39 l45 2 2 -71 3 -72 -31 2 c-28 1 -33 7 -52 56 -22 62 -33 73 -58 59 -34
-18 -39 -11 -35 59 3 37 8 80 12 96 9 36 -6 46 -66 45 -25 0 -39 -3 -32 -6z
m107 -291 c4 -39 12 -52 31 -52 8 0 14 -6 13 -12 -4 -31 2 -35 41 -32 24 2 40
-1 40 -7 0 -23 -72 -146 -107 -184 l-37 -40 -9 45 c-6 31 -5 50 3 63 8 14 9
22 1 30 -14 14 -14 74 0 82 6 4 10 26 9 49 -4 94 5 130 15 58z"/>
<path d="M68 765 c2 -26 -1 -52 -8 -60 -6 -8 -13 -29 -15 -47 -2 -18 -6 -52
-10 -75 -5 -32 -3 -43 7 -44 7 -1 28 -3 46 -5 20 -2 32 1 33 9 4 33 8 66 14
102 4 22 8 51 9 65 2 14 7 38 11 54 9 34 -5 46 -55 46 l-35 0 3 -45z"/>
</g>
</svg>
