<?xml version="1.0" standalone="no"?>
<!DOCTYPE svg PUBLIC "-//W3C//DTD SVG 20010904//EN"
 "http://www.w3.org/TR/2001/REC-SVG-20010904/DTD/svg10.dtd">
<svg version="1.0" xmlns="http://www.w3.org/2000/svg"
 width="101.000000pt" height="103.000000pt" viewBox="0 0 101.000000 103.000000"
 preserveAspectRatio="xMidYMid meet">
<metadata>
Created by potrace 1.16, written by Peter Selinger 2001-2019
</metadata>
<g transform="translate(0.000000,103.000000) scale(0.100000,-0.100000)"
fill="#000000" stroke="none">
<path d="M480 1020 c0 -26 -68 -147 -108 -191 -39 -43 -45 -47 -59 -34 -10 11
-19 12 -33 5 -10 -6 -22 -10 -27 -10 -11 0 -2 158 12 191 6 17 -19 34 -36 24
-5 -3 -17 -2 -26 3 -10 5 -27 6 -38 1 -11 -4 -14 -8 -7 -8 15 -1 17 -111 2
-111 -5 0 -10 -18 -10 -40 0 -22 5 -40 10 -40 6 0 10 -33 10 -80 0 -47 -4 -80
-10 -80 -6 0 -10 -30 -10 -70 0 -40 4 -70 10 -70 6 0 10 -11 10 -25 0 -14 -4
-25 -10 -25 -6 0 -10 -40 -10 -100 0 -68 4 -100 11 -100 12 0 7 -98 -7 -146
-7 -25 14 -34 62 -27 32 5 34 12 33 93 -1 14 0 82 0 152 1 78 -2 129 -9 133
-13 8 -13 152 0 160 6 3 9 26 8 51 -2 66 7 62 28 -11 19 -65 19 -65 52 -61 18
2 37 7 42 12 4 5 0 35 -10 67 -10 31 -14 57 -9 57 5 0 12 -7 16 -16 3 -8 12
-13 19 -10 10 4 14 -3 14 -19 0 -14 5 -25 10 -25 13 0 13 -136 0 -161 -11 -20
-2 -24 48 -20 26 2 25 -2 -16 -56 -13 -18 -52 -51 -86 -74 -33 -22 -61 -42
-61 -44 0 -5 75 -55 83 -55 3 0 26 19 50 43 l43 42 44 -50 c24 -27 44 -53 45
-57 0 -8 -59 -28 -101 -33 -17 -3 -38 -10 -45 -16 -11 -9 -21 -9 -38 -1 -23
10 -70 6 -64 -7 2 -3 14 -23 28 -44 24 -36 27 -38 65 -32 22 3 78 20 125 36
47 17 94 31 105 31 11 0 58 -13 105 -30 47 -17 100 -34 119 -37 19 -3 37 -8
41 -10 11 -7 27 9 37 40 6 17 14 37 17 45 5 13 -1 16 -31 17 -21 1 -51 4 -68
6 -16 3 -41 8 -55 10 -40 7 -80 19 -80 24 0 2 24 34 53 71 30 37 63 81 75 98
l22 32 -138 0 c-190 0 -185 -1 -167 26 18 25 35 28 186 29 l117 1 6 50 c3 28
1 55 -4 60 -13 13 -13 53 0 61 11 7 13 95 2 111 -9 13 -179 16 -187 3 -8 -12
-52 -11 -60 1 -4 7 -40 10 -88 9 -67 -2 -81 0 -79 12 2 8 7 18 12 23 19 19
332 19 416 1 40 -9 66 15 62 59 l-3 31 -83 3 c-46 2 -89 -1 -95 -7 -17 -13
-168 -13 -184 1 -7 5 -22 8 -33 5 -26 -7 -26 -4 11 38 l31 35 -33 14 c-59 24
-79 28 -79 16z m202 -307 c80 -5 96 -9 95 -22 -1 -14 -19 -16 -136 -16 -134 0
-136 0 -136 23 0 25 12 26 177 15z m70 -113 c20 0 26 -5 25 -20 -2 -25 -52
-33 -157 -25 -41 3 -84 6 -95 6 -13 1 -21 8 -21 19 0 14 7 16 42 12 23 -2 50
1 60 7 11 7 40 9 69 6 28 -2 62 -5 77 -5z m-43 -236 c6 -6 -60 -74 -73 -74
-12 0 -76 61 -76 73 0 4 8 6 18 3 9 -3 24 -1 32 5 14 9 88 4 99 -7z"/>
<path d="M54 775 c-3 -14 -4 -34 -1 -45 3 -11 1 -23 -5 -26 -5 -3 -8 -23 -7
-43 2 -20 0 -41 -3 -46 -3 -6 -6 -26 -6 -46 -1 -29 3 -38 18 -42 54 -14 76 17
85 118 3 33 7 77 9 98 5 41 -11 57 -58 57 -19 0 -27 -7 -32 -25z"/>
</g>
</svg>
