<?xml version="1.0" standalone="no"?>
<!DOCTYPE svg PUBLIC "-//W3C//DTD SVG 20010904//EN"
 "http://www.w3.org/TR/2001/REC-SVG-20010904/DTD/svg10.dtd">
<svg version="1.0" xmlns="http://www.w3.org/2000/svg"
 width="101.000000pt" height="101.000000pt" viewBox="0 0 101.000000 101.000000"
 preserveAspectRatio="xMidYMid meet">
<metadata>
Created by potrace 1.16, written by Peter Selinger 2001-2019
</metadata>
<g transform="translate(0.000000,101.000000) scale(0.100000,-0.100000)"
fill="#000000" stroke="none">
<path d="M413 968 c-100 -87 -246 -166 -336 -183 -20 -4 -39 -11 -42 -15 -2
-3 13 -24 34 -44 32 -31 42 -36 57 -28 18 9 19 6 15 -40 -2 -28 2 -55 8 -61
14 -14 14 -54 1 -62 -6 -4 -8 -34 -6 -73 2 -37 5 -79 5 -93 1 -28 25 -41 60
-32 12 3 18 14 19 36 3 71 4 75 26 76 11 1 44 3 71 5 70 6 107 -2 103 -22 -2
-10 -14 -17 -28 -18 -63 -3 -60 0 -42 -43 21 -50 43 -56 101 -28 l46 22 -4
106 c-2 69 0 109 7 113 13 8 14 107 2 127 -5 8 -24 12 -47 11 -139 -7 -211 -6
-235 2 l-27 10 49 28 c57 32 60 33 60 13 0 -23 38 -27 191 -21 137 6 168 14
152 39 -3 5 8 2 23 -6 40 -20 174 -68 204 -73 21 -3 30 4 53 43 32 52 27 61
-33 64 -72 4 -87 6 -140 24 -116 38 -201 93 -197 127 1 15 -5 24 -23 29 -55
16 -78 10 -127 -33z m129 -97 l48 -39 -33 -5 c-24 -4 -136 -2 -176 2 -5 1 102
80 109 81 3 0 27 -18 52 -39z m-117 -247 l0 -25 -90 7 c-49 3 -93 8 -97 11
-26 14 4 23 90 26 53 1 97 4 97 5 0 1 0 -9 0 -24z m1 -101 c-1 -18 -9 -24 -34
-29 -18 -4 -38 -2 -45 4 -6 6 -35 9 -63 9 -43 -2 -50 1 -46 15 4 18 30 23 133
24 53 0 57 -1 55 -23z"/>
<path d="M766 717 c-15 -11 -17 -22 -13 -48 11 -58 15 -189 8 -217 -5 -17 -15
-27 -27 -28 -56 -3 -54 0 -36 -45 16 -40 16 -41 55 -35 89 15 97 32 103 221
l4 141 -33 12 c-41 15 -39 15 -61 -1z"/>
<path d="M582 682 c-5 -15 7 -234 14 -241 10 -10 77 -2 84 10 5 7 5 22 0 33
-9 24 -5 162 5 189 8 18 7 18 -59 21 -24 0 -40 -4 -44 -12z"/>
<path d="M500 343 c-8 -3 -25 -10 -37 -14 -22 -8 -22 -9 13 -61 20 -29 37 -54
39 -56 6 -6 85 21 85 29 0 7 -78 110 -83 108 -1 0 -9 -3 -17 -6z"/>
<path d="M755 313 c-16 -8 -32 -17 -34 -19 -2 -2 34 -43 80 -93 l83 -89 38 26
c21 15 37 34 35 42 -2 14 -153 150 -166 150 -3 -1 -19 -8 -36 -17z"/>
<path d="M309 313 c-21 -5 -31 -40 -19 -63 5 -9 7 -34 6 -55 -2 -22 1 -51 6
-66 11 -33 60 -54 89 -39 10 6 69 8 141 6 93 -3 128 -1 150 10 26 13 58 60 58
84 0 10 -60 69 -71 70 -3 0 -13 -18 -22 -40 -20 -51 -47 -61 -140 -55 -135 9
-122 2 -120 71 3 51 0 63 -15 67 -9 2 -24 7 -32 10 -8 2 -22 3 -31 0z"/>
<path d="M121 248 c-16 -35 -39 -78 -51 -95 -19 -28 -19 -33 -6 -33 25 0 29
-1 59 -16 l28 -15 44 96 c25 53 45 100 45 104 0 8 -48 21 -76 21 -8 0 -27 -28
-43 -62z"/>
</g>
</svg>
