<?xml version="1.0" standalone="no"?>
<!DOCTYPE svg PUBLIC "-//W3C//DTD SVG 20010904//EN"
 "http://www.w3.org/TR/2001/REC-SVG-20010904/DTD/svg10.dtd">
<svg version="1.0" xmlns="http://www.w3.org/2000/svg"
 width="101.000000pt" height="102.000000pt" viewBox="0 0 101.000000 102.000000"
 preserveAspectRatio="xMidYMid meet">
<metadata>
Created by potrace 1.16, written by Peter Selinger 2001-2019
</metadata>
<g transform="translate(0.000000,102.000000) scale(0.100000,-0.100000)"
fill="#000000" stroke="none">
<path d="M527 940 c-33 -69 -117 -181 -135 -180 -4 0 -19 21 -35 46 l-27 45
-29 -20 c-16 -12 -32 -21 -35 -21 -4 0 -4 24 -2 53 5 48 8 67 18 106 2 11 -10
14 -54 15 -55 1 -58 0 -64 -27 -3 -15 -5 -49 -4 -75 4 -79 5 -78 -45 -74 -41
4 -46 2 -55 -24 -6 -15 -10 -59 -10 -98 1 -39 -1 -80 -3 -91 -3 -11 -8 -32
-12 -46 -7 -30 13 -40 58 -32 19 4 27 14 36 46 6 23 11 53 11 67 0 44 6 100
12 106 4 3 11 -3 17 -15 11 -19 9 -114 -5 -260 -4 -41 -1 -79 6 -102 10 -30
10 -44 1 -68 -9 -20 -11 -56 -6 -119 8 -98 12 -103 71 -95 l29 5 3 138 c2 87
-1 141 -8 145 -13 8 -13 152 0 160 6 4 9 33 8 67 l-4 60 26 -30 c18 -22 30
-28 40 -22 13 7 15 -11 13 -138 -2 -81 0 -195 3 -254 7 -115 10 -122 68 -111
25 5 26 8 26 67 -1 106 0 114 24 115 11 0 37 2 56 3 l35 3 0 -49 c0 -46 -1
-49 -29 -52 -15 -1 -30 -4 -32 -6 -3 -4 16 -78 22 -87 8 -10 106 23 114 39 8
16 13 132 10 280 -1 30 2 81 5 113 4 32 4 74 1 92 l-7 33 -106 1 c-59 1 -110
5 -114 9 -3 4 12 25 34 47 22 22 37 35 34 28 -11 -17 21 -43 51 -43 129 3 222
14 222 26 0 19 4 18 51 -13 l41 -27 -27 -9 -26 -9 2 -235 c2 -211 1 -236 -14
-245 -11 -5 -23 -5 -33 0 -9 5 -25 7 -34 5 -16 -4 -16 -8 3 -53 11 -27 28 -51
38 -53 22 -6 98 19 117 37 18 18 32 177 30 361 l-1 154 37 50 c40 57 42 61 22
61 -30 0 -159 74 -211 122 -59 54 -96 108 -73 108 21 0 -14 26 -51 39 -57 19
-64 14 -104 -69z m148 -115 l31 -40 -88 0 c-85 0 -87 0 -73 20 8 11 27 39 42
63 l28 43 15 -23 c8 -12 29 -41 45 -63z m-514 -58 c-10 -9 -11 -8 -5 6 3 10 9
15 12 12 3 -3 0 -11 -7 -18z m141 -50 c4 -21 0 -30 -14 -38 -27 -15 -30 -9
-22 50 6 45 8 49 19 34 7 -10 14 -31 17 -46z m252 -186 c-1 -35 -3 -36 -35
-33 -19 1 -43 3 -54 3 -15 1 -20 9 -21 33 0 31 0 31 55 32 l56 2 -1 -37z m1
-141 l0 -45 -35 3 c-19 1 -45 3 -57 3 -19 1 -22 7 -20 40 1 30 5 38 17 34 8
-2 22 0 30 5 8 6 26 9 40 8 23 -3 25 -7 25 -48z"/>
<path d="M693 610 c-20 -8 -23 -16 -23 -70 0 -33 4 -60 10 -60 14 0 13 -67 -1
-72 -7 -2 -9 -29 -4 -85 8 -88 15 -96 70 -85 25 4 26 7 19 36 -9 36 -9 156 0
201 4 17 9 50 12 76 5 41 4 46 -21 57 -30 14 -32 14 -62 2z"/>
</g>
</svg>
