<?xml version="1.0" standalone="no"?>
<!DOCTYPE svg PUBLIC "-//W3C//DTD SVG 20010904//EN"
 "http://www.w3.org/TR/2001/REC-SVG-20010904/DTD/svg10.dtd">
<svg version="1.0" xmlns="http://www.w3.org/2000/svg"
 width="101.000000pt" height="101.000000pt" viewBox="0 0 101.000000 101.000000"
 preserveAspectRatio="xMidYMid meet">
<metadata>
Created by potrace 1.16, written by Peter Selinger 2001-2019
</metadata>
<g transform="translate(0.000000,101.000000) scale(0.100000,-0.100000)"
fill="#000000" stroke="none">
<path d="M177 808 c5 -404 1 -644 -9 -673 -12 -33 6 -49 53 -48 45 2 62 17 53
45 -9 28 21 22 60 -13 l36 -31 29 21 c51 37 120 121 148 181 19 42 32 58 47
59 12 1 46 3 76 6 75 6 113 -2 105 -23 -3 -8 -8 -31 -11 -51 -3 -20 -12 -47
-21 -60 -12 -19 -20 -22 -46 -17 -52 10 -88 13 -85 7 2 -3 12 -30 23 -59 18
-48 31 -59 60 -52 6 1 19 4 30 5 11 2 39 11 62 20 41 16 60 46 69 105 5 35 13
99 19 149 l6 54 -38 -8 c-32 -7 -159 -9 -228 -4 -20 1 -22 11 -16 65 1 15 15
16 202 15 l157 0 5 25 c2 14 2 35 -1 46 -4 17 -10 19 -36 12 -26 -7 -149 -8
-222 -3 -14 1 -25 14 -36 43 l-15 41 51 -2 c28 0 56 3 63 9 8 6 34 6 75 0 35
-5 65 -8 67 -6 8 8 11 290 2 303 -6 9 -24 14 -48 13 -21 -1 -84 -2 -140 -1
-68 0 -103 -3 -103 -10 0 -6 -16 -11 -35 -11 -19 0 -35 4 -35 9 0 9 -124 20
-153 13 -22 -6 -33 -48 -17 -67 9 -11 10 -37 5 -97 l-8 -83 -16 43 c-16 45
-27 49 -81 28 -12 -5 -15 4 -13 51 2 32 5 69 7 83 13 68 15 65 -44 68 l-55 3
2 -203z m349 12 l1 -75 -31 -1 -31 0 0 75 0 76 30 0 30 0 1 -75z m149 2 l1
-77 -36 0 -35 0 -3 72 -3 72 38 4 c21 2 38 4 38 5 0 1 0 -33 0 -76z m126 68
c14 0 19 -7 19 -25 0 -14 5 -25 10 -25 10 0 15 -82 6 -91 -3 -3 -22 -3 -43 -1
l-39 4 1 74 c0 58 3 73 13 69 8 -3 22 -5 33 -5z m-507 -181 c5 -30 17 -59 23
-59 2 0 18 7 35 16 16 9 28 11 24 6 -8 -13 112 -14 150 0 19 7 46 8 70 3 l39
-8 -40 -10 c-22 -5 -41 -11 -43 -12 -2 -2 4 -15 14 -29 9 -15 13 -30 10 -34
-9 -8 -150 -7 -217 2 -40 5 -47 3 -52 -13 -14 -53 22 -93 64 -71 10 6 45 7 79
3 60 -6 61 -7 54 -32 -3 -14 -8 -41 -11 -60 -6 -52 -47 -123 -97 -169 -47 -43
-111 -80 -122 -70 -4 5 -7 348 -4 543 1 51 13 48 24 -6z"/>
<path d="M49 804 c-5 -15 -9 -52 -9 -83 0 -31 -2 -67 -4 -81 -17 -95 -17 -100
-4 -101 19 -1 40 -6 60 -14 21 -8 26 2 32 65 3 25 7 54 10 65 3 11 8 38 10 60
3 22 8 51 11 65 6 22 2 27 -27 38 -51 18 -67 15 -79 -14z"/>
</g>
</svg>
