<?xml version="1.0" standalone="no"?>
<!DOCTYPE svg PUBLIC "-//W3C//DTD SVG 20010904//EN"
 "http://www.w3.org/TR/2001/REC-SVG-20010904/DTD/svg10.dtd">
<svg version="1.0" xmlns="http://www.w3.org/2000/svg"
 width="101.000000pt" height="102.000000pt" viewBox="0 0 101.000000 102.000000"
 preserveAspectRatio="xMidYMid meet">
<metadata>
Created by potrace 1.16, written by Peter Selinger 2001-2019
</metadata>
<g transform="translate(0.000000,102.000000) scale(0.100000,-0.100000)"
fill="#000000" stroke="none">
<path d="M572 972 l3 -47 -93 2 c-108 3 -142 -7 -142 -39 0 -41 10 -45 125
-44 l110 1 0 -25 c0 -25 0 -25 -100 -26 -98 0 -100 -1 -103 -25 -3 -33 11 -51
39 -50 13 1 56 3 95 4 69 2 72 1 70 -21 -1 -28 -34 -35 -136 -27 -41 3 -86 6
-100 6 l-25 1 25 11 c14 6 26 12 28 13 2 1 -12 32 -30 68 -33 67 -36 69 -78
52 -12 -5 -15 4 -14 51 0 32 6 68 12 80 14 25 6 33 -37 40 -43 7 -64 5 -72 -9
-11 -17 -9 -91 3 -105 5 -6 8 -24 6 -40 -3 -26 -5 -27 -50 -24 -50 3 -55 -3
-57 -64 0 -24 -8 -87 -16 -137 -6 -36 -6 -36 36 -43 43 -7 64 5 54 33 -2 6 -2
19 1 27 5 12 8 12 20 0 16 -16 19 -75 4 -75 -5 0 -10 -18 -10 -40 0 -22 5 -40
10 -40 15 0 12 -67 -2 -73 -10 -4 -10 -8 1 -15 11 -8 13 -34 7 -142 -4 -73
-10 -138 -12 -145 -6 -16 21 -23 67 -17 l36 4 -3 206 c-4 233 -4 291 -1 410
l2 84 17 -39 c10 -21 18 -46 18 -55 0 -10 7 -18 15 -18 8 0 14 -8 13 -17 -5
-59 -1 -64 50 -60 26 3 55 8 65 12 9 4 25 4 34 1 14 -6 12 -10 -12 -27 -17
-11 -50 -24 -73 -31 -42 -10 -44 -12 -38 -41 3 -16 6 -33 6 -38 0 -5 19 -7 43
-4 23 2 62 7 86 10 24 2 53 7 63 11 10 3 18 3 18 0 0 -12 -141 -76 -176 -81
-20 -2 -39 -6 -41 -9 -2 -2 1 -22 8 -45 12 -41 12 -41 56 -37 23 2 43 0 43 -4
0 -9 -96 -99 -130 -122 l-25 -17 30 -25 c17 -14 35 -25 41 -26 11 0 174 152
174 163 0 4 -17 15 -37 26 -35 17 -36 19 -13 20 14 0 41 2 61 4 41 4 41 5 40
-93 0 -64 -16 -82 -64 -73 -16 3 -28 2 -25 -3 2 -5 13 -28 24 -51 18 -39 21
-42 56 -39 21 2 48 10 60 18 21 14 23 24 25 109 3 137 3 137 27 138 11 1 47 3
79 4 45 3 60 0 74 -15 21 -24 32 -22 68 8 l30 24 -75 70 c-41 38 -77 69 -80
70 -3 0 -21 -10 -40 -21 l-34 -21 29 -24 c24 -19 26 -24 13 -29 -9 -4 -26 -2
-37 5 -17 8 -29 7 -55 -5 -26 -13 -39 -14 -54 -6 -12 6 -29 8 -39 5 -22 -8
169 112 215 134 38 18 39 26 11 46 -20 14 -18 14 27 9 55 -5 116 -5 122 1 6 7
7 75 1 81 -3 3 -19 0 -35 -5 -17 -6 -67 -8 -115 -5 -46 3 -93 6 -104 6 -12 1
-21 9 -22 19 -1 14 9 18 54 23 30 3 65 2 76 -2 30 -12 84 -2 91 16 15 37 -19
84 -47 66 -7 -5 -48 -8 -92 -8 -78 0 -80 0 -81 25 l-1 25 134 0 c121 -1 134 1
139 18 3 10 3 29 0 41 -6 23 -8 23 -138 22 l-133 -1 1 32 c1 17 5 36 8 42 5 7
-3 9 -24 5 -19 -4 -30 -2 -30 5 0 6 -12 11 -26 11 -25 0 -26 -2 -22 -48z m122
-361 c8 -12 -32 -46 -58 -48 -66 -7 -126 -11 -126 -8 0 10 81 56 89 50 6 -3
19 -1 28 4 22 13 60 14 67 2z"/>
<path d="M727 304 l-28 -24 75 -75 c42 -41 79 -75 84 -75 9 0 62 53 62 62 0 6
-132 117 -155 130 -6 4 -23 -5 -38 -18z"/>
</g>
</svg>
