<?xml version="1.0" standalone="no"?>
<!DOCTYPE svg PUBLIC "-//W3C//DTD SVG 20010904//EN"
 "http://www.w3.org/TR/2001/REC-SVG-20010904/DTD/svg10.dtd">
<svg version="1.0" xmlns="http://www.w3.org/2000/svg"
 width="101.000000pt" height="102.000000pt" viewBox="0 0 101.000000 102.000000"
 preserveAspectRatio="xMidYMid meet">
<metadata>
Created by potrace 1.16, written by Peter Selinger 2001-2019
</metadata>
<g transform="translate(0.000000,102.000000) scale(0.100000,-0.100000)"
fill="#000000" stroke="none">
<path d="M704 985 c-3 -19 -4 -45 -2 -58 4 -21 2 -22 -82 -22 -95 0 -93 -2
-75 67 6 23 3 28 -17 32 -33 7 -72 3 -80 -9 -5 -5 -5 -28 -2 -50 l6 -40 -59 0
-58 0 0 -35 c0 -25 -5 -36 -15 -36 -8 0 -24 -3 -35 -7 -19 -6 -20 -3 -18 56 1
34 5 70 8 80 9 22 3 29 -29 32 -14 2 -30 6 -36 10 -5 3 -19 4 -29 0 -17 -5
-18 -15 -15 -98 2 -51 3 -109 3 -129 0 -21 0 -93 1 -160 0 -251 0 -306 -4
-415 -4 -123 -3 -125 60 -116 30 5 31 6 26 54 -3 32 -1 49 7 49 6 0 11 17 11
40 0 22 -4 40 -10 40 -15 0 -13 157 3 164 9 5 9 7 0 12 -15 7 -18 74 -3 74 6
0 10 18 10 40 0 22 -4 40 -10 40 -5 0 -10 16 -10 35 0 19 5 35 10 35 6 0 10
24 11 53 l1 52 12 -35 c7 -19 19 -36 27 -38 10 -2 15 -16 16 -38 1 -43 5 -47
43 -47 22 0 29 -4 26 -14 -3 -7 0 -24 6 -38 8 -18 8 -35 1 -59 -10 -31 -8 -35
11 -41 17 -6 18 -8 5 -12 -22 -6 -30 -39 -17 -69 9 -18 6 -38 -11 -93 -25 -79
-49 -114 -94 -137 l-31 -16 53 -25 c48 -23 53 -24 75 -9 37 24 79 119 82 185
3 67 9 110 19 133 7 18 5 19 -45 35 -32 10 17 22 76 19 32 -2 67 0 77 5 11 7
43 6 90 -1 39 -7 81 -11 92 -10 11 1 37 2 57 3 30 1 37 5 41 25 11 56 6 58
-111 50 -59 -4 -138 -5 -177 -3 -38 3 -80 6 -92 6 -19 1 -22 7 -20 39 1 30 5
38 22 40 58 6 324 0 346 -8 39 -15 76 -4 82 25 8 43 -2 65 -27 56 -11 -4 -52
-7 -91 -6 -124 3 -126 4 -143 48 -16 42 -30 57 -44 49 -5 -3 -21 -8 -35 -10
-38 -7 -40 -11 -20 -46 10 -17 15 -33 11 -37 -5 -5 -139 -5 -211 0 -26 1 -30
14 -8 22 13 5 12 11 -1 43 -8 20 -14 38 -12 39 2 2 24 6 49 10 l45 7 -3 -34
c-5 -46 9 -62 53 -61 52 2 62 24 38 87 -5 14 4 16 62 16 105 0 112 -4 108 -55
-3 -34 0 -44 14 -47 28 -8 82 3 81 16 -1 6 -1 25 0 42 1 26 6 33 28 37 15 3
38 1 51 -4 49 -19 80 11 66 65 -6 24 -8 25 -78 23 l-72 -2 2 30 c0 17 4 40 8
51 7 23 -13 34 -66 34 -23 0 -28 -5 -34 -35z"/>
<path d="M50 806 c-10 -28 -11 -33 -13 -141 -1 -44 -5 -85 -9 -90 -10 -15 5
-34 27 -36 53 -5 61 0 62 39 2 38 4 59 16 122 18 103 18 106 -17 118 -46 17
-55 15 -66 -12z"/>
<path d="M579 443 c-21 -5 -31 -41 -19 -64 10 -19 6 -219 -5 -255 -8 -25 13
-34 62 -27 38 6 47 30 28 83 -16 45 -11 154 10 233 6 23 4 27 -13 27 -11 0
-26 2 -34 4 -7 2 -20 2 -29 -1z"/>
<path d="M738 443 c-17 -4 -24 -24 -18 -48 12 -49 15 -134 6 -204 -2 -19 1
-45 6 -57 13 -27 73 -47 101 -33 10 6 28 8 40 5 11 -3 29 0 39 5 20 11 58 82
57 109 0 18 -89 75 -90 57 -3 -55 -18 -84 -42 -83 -19 1 -23 9 -29 56 -4 30
-5 66 -1 80 4 14 7 34 8 45 1 11 5 30 9 43 6 19 4 22 -18 22 -13 0 -30 2 -38
4 -7 2 -21 2 -30 -1z"/>
</g>
</svg>
