<?xml version="1.0" standalone="no"?>
<!DOCTYPE svg PUBLIC "-//W3C//DTD SVG 20010904//EN"
 "http://www.w3.org/TR/2001/REC-SVG-20010904/DTD/svg10.dtd">
<svg version="1.0" xmlns="http://www.w3.org/2000/svg"
 width="101.000000pt" height="102.000000pt" viewBox="0 0 101.000000 102.000000"
 preserveAspectRatio="xMidYMid meet">
<metadata>
Created by potrace 1.16, written by Peter Selinger 2001-2019
</metadata>
<g transform="translate(0.000000,102.000000) scale(0.100000,-0.100000)"
fill="#000000" stroke="none">
<path d="M334 986 c-3 -19 -4 -38 -1 -43 6 -9 -186 -7 -219 3 -43 12 -71 -48
-37 -82 17 -17 57 -17 209 2 l51 6 -1 -29 -1 -30 -71 5 -72 4 -7 -31 c-4 -18
-4 -83 0 -146 l7 -113 33 2 c17 2 37 6 44 10 6 4 32 4 57 0 l46 -7 -26 -26
c-25 -24 -32 -26 -109 -25 -45 1 -103 4 -128 8 -40 5 -47 3 -52 -13 -2 -10 -2
-30 0 -44 4 -22 10 -25 37 -23 17 2 42 6 56 10 14 4 43 3 65 -2 l40 -8 -60
-31 c-33 -17 -84 -38 -112 -47 l-53 -18 37 -34 c19 -19 41 -34 48 -34 16 0
163 89 215 130 46 36 67 41 180 43 75 2 75 2 132 -43 l57 -45 -24 -13 -24 -12
56 -83 c30 -45 57 -83 58 -85 2 -2 21 6 44 18 39 20 50 33 33 44 -4 2 -22 25
-40 50 l-33 46 66 -30 c79 -36 82 -36 90 -10 4 11 18 34 32 50 13 17 21 30 16
31 -4 0 -17 2 -28 5 -11 2 -36 5 -55 8 -38 5 -136 40 -160 57 -13 9 -13 10 2
6 9 -3 30 -1 46 5 22 9 39 8 76 -5 26 -9 53 -14 60 -11 16 6 26 47 18 76 -4
16 -10 18 -31 12 -14 -4 -41 -7 -58 -6 -18 1 -61 2 -95 1 -114 0 -263 0 -285
2 -21 1 -22 3 -8 23 9 11 28 22 43 24 57 7 219 7 262 0 l45 -7 2 143 2 143
-77 -1 c-74 0 -77 1 -80 25 -3 24 -2 24 73 22 42 0 79 -4 82 -7 4 -3 28 -6 54
-6 51 0 79 18 79 50 0 37 -58 68 -75 40 -5 -9 -205 -11 -205 -2 0 2 7 17 16
33 8 17 13 33 10 36 -3 3 -28 6 -56 7 -55 1 -66 -11 -55 -56 6 -23 5 -23 -75
-23 -44 0 -80 0 -80 1 0 1 5 16 11 34 14 39 3 50 -53 50 -34 0 -38 -3 -44 -34z
m238 -147 l4 -27 -75 2 c-74 1 -76 2 -76 26 0 24 2 25 72 25 70 0 72 -1 75
-26z m93 -92 c45 0 50 -3 50 -22 0 -21 -6 -23 -89 -29 -134 -9 -184 -8 -190 7
-5 10 -7 10 -12 0 -7 -15 -74 -18 -74 -3 0 6 -16 10 -35 10 -27 0 -35 4 -35
18 0 15 11 17 111 14 63 -1 117 2 127 8 9 6 35 8 57 4 22 -3 63 -6 90 -7z
m-175 -97 c8 0 49 3 90 5 107 8 138 1 136 -30 -1 -28 33 -25 -296 -26 -146 0
-145 0 -145 26 0 20 4 22 41 17 23 -2 50 1 60 7 11 6 37 9 59 6 22 -3 47 -5
55 -5z"/>
<path d="M429 403 c-21 -5 -31 -40 -19 -63 7 -13 8 -82 1 -137 -1 -9 -15 -11
-46 -8 -25 2 -45 2 -45 -1 0 -3 7 -18 15 -35 9 -16 14 -33 11 -37 -10 -16 13
-35 41 -35 16 0 47 8 69 19 l39 19 1 85 c1 47 4 106 8 131 5 39 3 47 -12 52
-9 2 -24 7 -32 10 -8 2 -22 3 -31 0z"/>
<path d="M263 303 c-15 -20 -54 -56 -85 -79 l-58 -42 47 -27 47 -26 82 88 82
88 -32 17 c-44 24 -52 23 -83 -19z"/>
<path d="M532 312 l-23 -18 35 -55 c66 -100 59 -94 95 -80 17 8 34 17 37 22 8
13 -89 149 -106 149 -8 0 -25 -8 -38 -18z"/>
</g>
</svg>
