<?xml version="1.0" standalone="no"?>
<!DOCTYPE svg PUBLIC "-//W3C//DTD SVG 20010904//EN"
 "http://www.w3.org/TR/2001/REC-SVG-20010904/DTD/svg10.dtd">
<svg version="1.0" xmlns="http://www.w3.org/2000/svg"
 width="101.000000pt" height="101.000000pt" viewBox="0 0 101.000000 101.000000"
 preserveAspectRatio="xMidYMid meet">
<metadata>
Created by potrace 1.16, written by Peter Selinger 2001-2019
</metadata>
<g transform="translate(0.000000,101.000000) scale(0.100000,-0.100000)"
fill="#000000" stroke="none">
<path d="M585 969 l0 -40 -125 -2 -125 -2 -3 -31 c-6 -58 15 -67 140 -58 l108
7 -3 -24 c-4 -22 -9 -24 -63 -24 -32 0 -66 3 -75 7 -22 10 -41 -6 -38 -33 1
-13 1 -46 0 -74 l-2 -50 -30 80 c-17 44 -32 81 -34 83 -2 3 -21 -4 -42 -14
l-38 -19 3 60 c3 70 9 123 17 136 4 5 -5 14 -19 20 -32 15 -93 3 -99 -19 -9
-31 -7 -91 3 -97 12 -8 12 -173 -1 -180 -12 -8 -12 -142 1 -150 13 -8 13 -52
0 -60 -13 -8 -12 -213 1 -221 8 -4 9 -34 4 -89 -7 -92 -3 -97 62 -88 35 6 48
39 31 82 -5 15 -7 45 -3 68 3 25 2 44 -5 48 -13 8 -13 52 0 60 12 7 12 153 0
160 -12 7 -11 153 0 160 6 3 10 27 11 53 0 42 1 44 10 22 6 -14 12 -34 14 -45
12 -76 17 -85 44 -78 14 3 35 9 47 13 18 7 22 2 33 -36 8 -27 10 -58 6 -81 -4
-21 -8 -68 -8 -104 -1 -70 -3 -71 -52 -59 -38 9 -59 -17 -48 -59 6 -23 39 -34
65 -20 10 5 40 7 68 3 49 -7 50 -7 33 -26 -10 -11 -55 -38 -101 -60 l-83 -40
28 -19 c15 -10 35 -24 43 -30 12 -8 38 2 122 48 59 32 107 61 108 65 0 4 -17
19 -37 34 -21 14 -30 24 -20 20 10 -3 27 -1 37 4 10 6 45 7 80 3 l61 -6 -22
-23 c-26 -27 -20 -38 34 -65 22 -12 65 -38 95 -57 l54 -36 35 38 c22 24 32 41
26 47 -6 6 -43 27 -83 48 -67 35 -71 40 -52 50 12 7 51 9 95 7 68 -4 76 -2 80
15 3 10 3 28 0 39 -5 17 -12 19 -60 15 l-54 -4 7 120 c5 86 4 119 -5 119 -7 0
-11 25 -11 75 0 46 4 75 11 75 6 0 9 14 7 33 l-3 32 -100 0 c-89 0 -101 2
-101 18 0 13 9 17 43 17 24 0 43 5 43 10 0 6 11 10 25 10 14 0 25 -4 25 -10 0
-18 117 -12 135 6 14 15 14 58 0 72 -1 2 -62 4 -134 5 -72 1 -131 3 -131 5 0
1 6 18 14 37 8 18 12 36 8 39 -3 3 -28 6 -56 6 l-51 0 0 -41z m181 -270 l-1
-28 -135 2 -135 2 -1 25 -1 25 137 1 137 2 -1 -29z m-10 -77 c5 -4 10 -17 10
-29 0 -18 -7 -23 -41 -28 -22 -3 -74 -3 -115 0 -41 3 -84 6 -95 6 -13 1 -20 9
-21 23 -1 19 3 21 52 19 30 -1 56 2 59 7 6 10 136 12 151 2z m-25 -108 c31 -5
37 -9 35 -29 -1 -21 -8 -25 -41 -30 -22 -3 -74 -3 -115 0 -41 3 -84 6 -95 6
-14 1 -20 9 -21 26 -2 18 2 22 15 19 9 -3 22 -2 30 3 16 10 140 13 192 5z m0
-110 c31 -5 36 -9 36 -34 0 -27 -4 -30 -41 -35 -23 -3 -75 -3 -116 0 -41 3
-84 6 -96 6 -16 1 -21 8 -21 30 0 22 4 28 16 24 9 -2 22 -1 30 4 16 10 140 13
192 5z"/>
<path d="M39 763 c-6 -6 -10 -44 -9 -85 1 -40 -1 -91 -5 -113 l-5 -40 49 -2
50 -1 5 41 c3 23 7 80 8 127 l3 84 -43 1 c-24 0 -48 -5 -53 -12z"/>
</g>
</svg>
