<?xml version="1.0" standalone="no"?>
<!DOCTYPE svg PUBLIC "-//W3C//DTD SVG 20010904//EN"
 "http://www.w3.org/TR/2001/REC-SVG-20010904/DTD/svg10.dtd">
<svg version="1.0" xmlns="http://www.w3.org/2000/svg"
 width="101.000000pt" height="101.000000pt" viewBox="0 0 101.000000 101.000000"
 preserveAspectRatio="xMidYMid meet">
<metadata>
Created by potrace 1.16, written by Peter Selinger 2001-2019
</metadata>
<g transform="translate(0.000000,101.000000) scale(0.100000,-0.100000)"
fill="#000000" stroke="none">
<path d="M178 993 c-19 -5 -31 -30 -22 -45 6 -9 13 -126 13 -220 1 -167 1
-296 1 -368 1 -47 -1 -124 -4 -171 -5 -96 -2 -101 61 -92 l32 5 -5 202 c-6
300 -3 477 7 470 4 -2 15 -26 25 -54 10 -27 23 -50 30 -50 13 0 29 -165 19
-193 -9 -23 9 -25 105 -11 64 9 378 4 440 -7 43 -7 45 -3 46 107 l2 105 -145
-6 c-106 -4 -149 -3 -159 6 -11 9 -18 9 -26 1 -15 -15 -75 -16 -83 -1 -4 6
-26 10 -49 9 -71 -3 -102 0 -89 8 9 6 4 25 -20 72 -32 64 -39 68 -82 55 -19
-6 -20 -2 -18 52 1 32 4 70 8 85 10 38 -29 57 -87 41z m337 -428 c0 -47 -1
-50 -25 -47 -14 2 -35 3 -47 4 -20 0 -22 5 -21 44 2 34 6 43 18 39 8 -2 22 0
30 5 31 21 45 7 45 -45z m160 0 c0 -47 -1 -50 -25 -47 -14 2 -35 3 -47 4 -20
0 -22 5 -21 44 2 34 6 43 18 39 8 -2 22 0 30 5 31 21 45 7 45 -45z m160 0 c0
-47 -1 -50 -25 -47 -14 2 -35 3 -47 4 -20 0 -22 5 -21 44 2 34 6 43 18 39 8
-2 22 0 30 5 31 21 45 7 45 -45z"/>
<path d="M392 843 l-1 -142 32 -6 c18 -2 77 -3 132 0 104 5 149 5 248 3 64 -2
81 10 67 47 -7 18 -6 102 3 215 2 25 1 25 -82 28 -46 1 -88 -2 -95 -7 -13 -11
-164 -14 -180 -3 -6 4 -36 7 -67 7 l-57 0 0 -142z m384 47 c-1 -28 -3 -30 -32
-24 -19 3 -35 1 -38 -5 -9 -14 -53 -14 -61 0 -4 6 -37 9 -84 7 l-77 -3 4 25 4
25 142 2 143 2 -1 -29z m-121 -81 c4 -5 17 -9 28 -8 60 4 85 -1 90 -20 5 -19
-1 -20 -142 -18 -139 2 -146 3 -146 22 0 18 5 20 48 16 27 -1 54 2 60 8 14 14
54 14 62 0z"/>
<path d="M54 788 c-2 -4 -4 -19 -4 -35 0 -15 -2 -50 -5 -78 -16 -146 -16 -142
4 -148 31 -8 71 4 72 22 1 9 3 27 5 41 20 142 25 192 20 197 -9 9 -87 10 -92
1z"/>
<path d="M399 423 c-18 -4 -31 -37 -23 -58 8 -19 42 -25 69 -13 13 6 32 8 41
4 15 -6 13 -10 -14 -29 -17 -12 -32 -24 -32 -28 0 -3 20 -18 45 -33 48 -30 56
-46 28 -47 -10 0 -27 -3 -38 -5 -26 -6 -78 -13 -133 -18 -24 -3 -46 -6 -48 -9
-3 -2 7 -23 22 -45 22 -33 31 -40 53 -37 35 5 168 42 212 60 33 13 42 12 90
-6 29 -11 92 -31 140 -44 l87 -23 25 49 26 48 -32 6 c-18 4 -48 8 -67 10 -52
6 -100 14 -120 20 -16 5 -12 12 26 47 41 37 114 128 114 141 0 6 -113 8 -330
4 -52 0 -102 2 -110 5 -8 3 -22 4 -31 1z m316 -75 c2 -2 -16 -21 -42 -43 l-46
-38 -33 18 c-18 10 -43 29 -56 43 -21 23 -22 24 -3 18 11 -3 27 -1 35 4 14 9
135 8 145 -2z"/>
</g>
</svg>
