<?xml version="1.0" standalone="no"?>
<!DOCTYPE svg PUBLIC "-//W3C//DTD SVG 20010904//EN"
 "http://www.w3.org/TR/2001/REC-SVG-20010904/DTD/svg10.dtd">
<svg version="1.0" xmlns="http://www.w3.org/2000/svg"
 width="101.000000pt" height="102.000000pt" viewBox="0 0 101.000000 102.000000"
 preserveAspectRatio="xMidYMid meet">
<metadata>
Created by potrace 1.16, written by Peter Selinger 2001-2019
</metadata>
<g transform="translate(0.000000,102.000000) scale(0.100000,-0.100000)"
fill="#000000" stroke="none">
<path d="M478 1013 c-14 -3 -17 -13 -15 -44 l3 -39 -72 3 c-40 1 -74 0 -77 -3
-3 -3 -8 -16 -11 -30 -11 -44 6 -55 83 -55 64 0 70 -2 74 -22 4 -19 1 -21 -24
-16 -16 3 -40 3 -53 -1 -25 -6 -25 -6 -9 -41 15 -32 31 -42 58 -35 16 4 58 10
90 13 25 2 30 -2 31 -20 1 -26 -26 -34 -101 -27 -27 2 -60 4 -72 5 -18 1 -29
15 -50 61 -28 62 -31 64 -88 42 -15 -6 -17 -1 -12 42 4 27 9 74 12 104 l6 56
-53 -1 c-53 0 -76 -14 -62 -37 4 -6 6 -37 5 -69 -1 -31 3 -60 8 -64 12 -7 13
-153 1 -160 -12 -7 -12 -153 0 -160 12 -8 13 -52 1 -59 -13 -8 -12 -108 1
-123 11 -14 5 -175 -7 -219 -8 -25 13 -34 63 -26 27 4 31 7 26 27 -5 20 -6
122 -5 355 0 36 0 110 0 165 0 158 0 158 30 93 14 -32 31 -58 38 -58 7 0 13
-8 13 -19 0 -21 35 -34 59 -22 19 10 123 13 164 5 15 -3 27 -12 27 -19 0 -18
-49 -26 -120 -20 -114 10 -113 10 -110 -27 1 -13 2 -71 3 -130 1 -97 3 -107
21 -112 11 -3 26 -1 35 4 18 9 101 11 143 4 19 -4 26 -11 25 -25 -2 -28 -58
-33 -194 -16 -25 3 -33 0 -37 -16 -2 -10 -2 -25 0 -32 7 -17 43 -26 63 -15 18
9 100 11 142 4 21 -4 27 -11 25 -30 -1 -18 -8 -25 -31 -29 -29 -6 -144 -1
-217 8 -29 4 -37 2 -41 -14 -8 -29 3 -59 22 -61 19 -1 33 0 86 8 37 6 132 7
290 4 33 -1 77 2 97 5 24 5 53 2 81 -8 74 -25 115 -4 100 53 -4 16 -10 18 -32
12 -22 -6 -176 -7 -246 -1 -29 2 -30 46 -1 48 11 0 57 3 101 6 44 3 92 1 106
-4 23 -8 28 -6 32 10 3 10 3 28 0 39 -4 16 -10 19 -27 13 -18 -7 -136 -8 -211
-2 -12 1 -21 9 -22 19 -2 20 2 21 133 23 l91 1 -4 94 c-1 51 1 102 7 111 5 10
7 27 4 38 -5 17 -15 20 -97 21 -127 1 -137 2 -137 17 0 16 10 17 172 18 114 0
127 2 131 19 3 10 3 27 0 39 -5 18 -10 20 -37 13 -17 -5 -74 -7 -126 -6 -140
2 -137 1 -136 26 1 24 16 27 149 29 48 0 87 4 87 7 0 4 -9 19 -20 33 -17 22
-29 26 -66 25 -41 0 -75 14 -63 27 3 2 49 5 102 6 85 1 97 3 102 20 15 46 -1
57 -90 64 -46 4 -87 5 -92 2 -5 -3 -9 13 -9 36 l1 42 -44 3 c-46 3 -66 -10
-55 -38 18 -47 15 -50 -40 -48 l-53 3 3 35 c4 46 -19 59 -78 43z m167 -175 c1
-16 -4 -28 -10 -29 -13 -1 -80 2 -81 4 -1 1 -4 15 -8 30 l-7 28 53 -3 c50 -3
53 -4 53 -30z m-117 -294 c23 -5 29 -11 28 -30 -1 -18 -8 -24 -38 -29 -20 -4
-46 -2 -57 4 -11 6 -26 9 -33 6 -8 -3 -14 4 -14 20 -2 20 2 24 15 21 9 -3 23
-1 31 4 18 11 27 12 68 4z m230 0 c23 -5 29 -11 28 -30 -1 -18 -8 -24 -38 -29
-20 -4 -46 -2 -57 4 -11 6 -26 9 -33 6 -8 -3 -14 4 -14 20 -2 20 2 24 15 21 9
-3 23 -1 31 4 18 11 27 12 68 4z m-230 -100 c23 -5 29 -11 28 -30 -1 -18 -8
-24 -38 -29 -20 -4 -46 -2 -57 4 -11 6 -26 9 -33 6 -8 -3 -14 4 -14 20 -2 20
2 24 15 21 9 -3 23 -1 31 4 18 11 27 12 68 4z m230 0 c23 -5 29 -11 28 -30 -1
-18 -8 -24 -38 -29 -20 -4 -46 -2 -57 4 -11 6 -26 9 -33 6 -8 -3 -14 4 -14 20
-2 20 2 24 15 21 9 -3 23 -1 31 4 18 11 27 12 68 4z"/>
<path d="M45 768 c-3 -18 -5 -49 -4 -68 0 -19 -2 -60 -5 -91 -6 -51 -5 -57 14
-62 32 -8 60 3 61 27 3 42 15 132 24 179 4 20 6 37 4 38 -2 0 -23 2 -46 5 -41
5 -42 4 -48 -28z"/>
</g>
</svg>
