<?xml version="1.0" standalone="no"?>
<!DOCTYPE svg PUBLIC "-//W3C//DTD SVG 20010904//EN"
 "http://www.w3.org/TR/2001/REC-SVG-20010904/DTD/svg10.dtd">
<svg version="1.0" xmlns="http://www.w3.org/2000/svg"
 width="101.000000pt" height="103.000000pt" viewBox="0 0 101.000000 103.000000"
 preserveAspectRatio="xMidYMid meet">
<metadata>
Created by potrace 1.16, written by Peter Selinger 2001-2019
</metadata>
<g transform="translate(0.000000,103.000000) scale(0.100000,-0.100000)"
fill="#000000" stroke="none">
<path d="M545 998 c-5 -18 -9 -42 -10 -53 -1 -18 -7 -20 -72 -17 -100 4 -107
-4 -99 -122 l5 -91 -21 48 c-22 50 -27 52 -82 31 -13 -5 -15 3 -11 58 3 34 9
82 14 106 8 40 7 44 -14 54 -13 6 -39 8 -58 4 -34 -6 -35 -8 -35 -51 0 -25 4
-47 8 -50 12 -8 11 -173 -1 -180 -12 -8 -12 -142 1 -150 13 -8 13 -52 0 -60
-13 -8 -12 -203 2 -225 8 -13 8 -44 0 -116 -6 -54 -9 -100 -6 -103 3 -3 23 -4
46 -4 44 2 61 17 52 47 -9 29 -16 369 -11 554 2 75 3 81 14 55 7 -15 12 -42
13 -59 0 -48 19 -66 56 -55 37 10 35 17 36 -121 1 -94 6 -101 62 -91 24 5 26
9 21 39 -5 36 5 44 25 19 19 -23 26 -19 70 43 41 56 47 52 26 -16 -6 -20 3
-37 24 -45 12 -4 11 -6 -2 -6 -16 -1 -22 -14 -21 -48 1 -16 -85 -25 -172 -18
-133 10 -128 11 -128 -35 0 -46 -6 -45 128 -35 77 6 135 -1 135 -15 0 -16 -91
-77 -135 -91 -22 -7 -57 -13 -78 -15 -21 -1 -41 -4 -43 -7 -8 -8 59 -96 73
-96 22 -1 124 48 172 83 25 19 59 55 75 80 l29 46 15 -30 c21 -43 103 -114
165 -144 87 -41 88 -41 125 16 18 28 31 52 29 54 -2 2 -25 6 -51 8 -52 5 -136
42 -181 79 l-30 25 25 2 c14 1 73 2 132 3 93 1 107 4 111 19 3 10 3 26 0 37
-4 16 -17 18 -136 19 -182 0 -179 0 -166 24 12 22 5 34 -26 41 -17 4 -17 5 4
6 20 1 22 3 11 16 -10 12 -10 21 -2 40 6 14 9 32 6 40 -12 29 4 15 33 -30 31
-50 38 -53 72 -26 l25 19 -35 46 c-37 50 -45 53 -75 32 -18 -13 -20 -12 -21 4
-2 18 3 20 85 23 23 0 42 6 42 12 1 5 7 -8 15 -30 12 -31 13 -55 5 -110 -5
-38 -8 -71 -6 -72 4 -4 38 -6 66 -5 25 2 25 3 27 111 2 61 -1 112 -6 115 -13
8 -13 154 0 161 5 4 9 33 8 65 l-2 58 -117 7 c-65 4 -127 4 -139 0 -26 -8 -26
1 0 44 24 40 14 52 -39 44 -21 -4 -37 -1 -42 6 -4 8 -10 1 -15 -21z m39 -170
c-8 -23 -9 -40 -2 -113 l3 -41 -56 4 c-46 3 -57 1 -63 -13 -15 -40 6 -61 57
-57 24 2 22 -4 -19 -54 -46 -56 -58 -56 -50 0 4 27 3 47 -4 51 -13 8 -13 52 1
60 6 4 9 38 7 86 l-3 79 43 0 c23 0 42 5 42 10 0 6 12 10 26 10 22 0 24 -3 18
-22z m219 -65 c-2 -111 -2 -111 -12 -94 -5 8 -15 11 -23 8 -35 -13 -38 10 -8
51 16 23 30 44 30 47 0 11 -73 36 -80 28 -4 -4 -13 -25 -20 -45 -17 -56 -27
-54 -19 5 3 29 5 55 3 59 -4 7 34 14 96 16 l35 2 -2 -77z m-123 -83 c0 -5 -4
-10 -10 -10 -5 0 -10 5 -10 10 0 6 5 10 10 10 6 0 10 -4 10 -10z"/>
<path d="M488 793 c-23 -6 -23 -23 -1 -68 16 -33 21 -36 47 -31 16 4 32 8 34
11 2 2 -4 24 -14 49 -19 45 -27 50 -66 39z"/>
<path d="M57 799 c-12 -7 -18 -22 -18 -47 0 -31 -5 -128 -11 -182 -4 -39 2
-45 45 -47 42 -1 43 0 44 30 1 18 4 46 7 62 4 17 10 62 14 102 7 69 6 72 -16
83 -28 12 -42 12 -65 -1z"/>
</g>
</svg>
