<?xml version="1.0" standalone="no"?>
<!DOCTYPE svg PUBLIC "-//W3C//DTD SVG 20010904//EN"
 "http://www.w3.org/TR/2001/REC-SVG-20010904/DTD/svg10.dtd">
<svg version="1.0" xmlns="http://www.w3.org/2000/svg"
 width="101.000000pt" height="101.000000pt" viewBox="0 0 101.000000 101.000000"
 preserveAspectRatio="xMidYMid meet">
<metadata>
Created by potrace 1.16, written by Peter Selinger 2001-2019
</metadata>
<g transform="translate(0.000000,101.000000) scale(0.100000,-0.100000)"
fill="#000000" stroke="none">
<path d="M458 1003 c-17 -4 -35 -63 -25 -80 4 -7 -68 -9 -98 -3 -22 5 -33 -1
-38 -22 -6 -20 -7 -20 -42 10 -19 18 -49 39 -66 48 -30 15 -32 15 -60 -12 -16
-15 -29 -30 -29 -33 1 -3 25 -24 55 -45 30 -22 55 -43 55 -48 0 -16 24 -7 52
19 22 21 31 24 37 15 5 -9 26 -11 72 -7 l64 5 0 -29 0 -29 -92 4 c-91 4 -93 3
-99 -20 -3 -14 -3 -34 1 -46 6 -20 11 -21 113 -15 l107 6 0 -31 c0 -24 -5 -32
-22 -37 -13 -3 -31 -2 -40 2 -10 4 -39 9 -66 12 l-47 4 6 -48 c9 -67 8 -161
-1 -205 -6 -32 -5 -38 9 -38 9 0 16 -4 16 -10 0 -5 -7 -10 -15 -10 -20 0 -22
-21 -9 -100 3 -19 7 -55 8 -80 1 -39 5 -47 30 -58 16 -8 38 -14 50 -13 11 1
80 3 151 5 76 2 140 8 153 15 36 19 80 121 53 121 -5 0 -24 12 -41 26 -17 15
-32 25 -33 23 -1 -2 -9 -24 -17 -48 -12 -37 -21 -46 -52 -57 -31 -11 -98 -11
-174 -2 -33 5 -56 29 -49 52 4 12 8 32 10 46 1 14 6 32 9 41 5 12 0 18 -23 22
-36 8 -41 27 -7 27 20 0 23 4 20 35 -3 39 2 42 33 20 20 -14 23 -13 42 11 11
14 23 34 26 45 8 24 17 24 40 -1 10 -12 26 -18 34 -15 9 3 5 -4 -8 -15 -13
-11 -22 -22 -20 -23 2 -1 21 -10 41 -19 l37 -17 32 49 32 49 28 -22 c34 -24
38 -41 8 -32 -12 4 -20 3 -18 -1 2 -5 10 -26 18 -46 17 -43 37 -51 86 -34 63
22 70 35 68 139 0 50 3 99 8 108 22 43 -17 74 -60 47 -15 -9 -26 -9 -45 0 -14
6 -33 9 -41 6 -17 -7 -20 13 -6 35 7 11 36 14 115 15 101 1 107 2 112 23 14
53 8 55 -118 57 -64 0 -112 3 -108 6 8 5 10 11 10 33 0 9 21 12 79 11 86 -2
97 5 85 50 -5 21 -11 23 -81 24 -81 1 -100 11 -81 45 13 26 5 31 -52 32 l-49
0 3 -40 3 -40 -57 0 -57 0 8 35 c12 49 -15 68 -73 53z m179 -180 c-2 -27 -4
-28 -54 -28 -84 0 -82 41 2 48 28 2 51 4 52 5 1 1 1 -10 0 -25z m-3 -138 c0
-26 -4 -30 -25 -27 -13 2 -33 3 -44 4 -14 0 -20 8 -21 25 -2 18 2 22 15 19 9
-3 23 -1 31 4 26 17 45 7 44 -25z m-12 -99 c-2 -10 -8 -29 -13 -42 l-9 -24
-38 27 c-38 27 -47 59 -13 49 9 -3 23 -1 31 4 22 15 45 7 42 -14z m164 -1 c-3
-9 0 -27 6 -41 9 -19 9 -30 0 -45 -7 -10 -12 -25 -12 -33 0 -18 -16 -29 -30
-21 -6 4 -3 16 10 32 11 14 20 29 20 33 0 4 -18 15 -40 25 -46 21 -52 27 -45
47 3 8 23 14 51 16 37 1 45 -1 40 -13z m-336 -6 c0 -17 -27 -63 -49 -83 -19
-17 -21 -17 -27 -2 -4 10 -2 28 4 42 6 13 9 30 6 37 -3 9 6 13 31 14 19 1 35
-3 35 -8z"/>
<path d="M50 753 c-15 -22 -21 -38 -14 -40 7 -2 38 -20 70 -39 l59 -36 28 33
c15 19 26 38 24 44 -3 11 -115 74 -132 75 -5 0 -21 -17 -35 -37z"/>
<path d="M173 572 c-18 -32 -53 -82 -79 -111 -25 -28 -45 -53 -43 -54 2 -2 21
-15 42 -31 21 -15 40 -26 42 -24 3 2 30 44 61 94 31 49 61 96 67 105 8 12 3
23 -18 47 -16 18 -31 32 -34 32 -3 0 -20 -26 -38 -58z"/>
<path d="M478 394 c-16 -8 -28 -17 -28 -19 0 -12 63 -115 69 -115 22 0 71 23
71 34 0 14 -68 116 -78 116 -4 -1 -19 -8 -34 -16z"/>
<path d="M151 313 c-7 -21 -29 -64 -48 -96 -19 -32 -33 -59 -32 -60 4 -3 70
-27 81 -30 4 -1 28 42 54 96 52 105 51 114 -7 123 -33 6 -35 4 -48 -33z"/>
<path d="M767 329 l-28 -21 38 -42 c21 -22 50 -56 64 -75 l26 -33 42 26 c40
26 41 27 25 51 -18 27 -118 115 -131 115 -4 0 -21 -10 -36 -21z"/>
</g>
</svg>
