<?xml version="1.0" standalone="no"?>
<!DOCTYPE svg PUBLIC "-//W3C//DTD SVG 20010904//EN"
 "http://www.w3.org/TR/2001/REC-SVG-20010904/DTD/svg10.dtd">
<svg version="1.0" xmlns="http://www.w3.org/2000/svg"
 width="101.000000pt" height="102.000000pt" viewBox="0 0 101.000000 102.000000"
 preserveAspectRatio="xMidYMid meet">
<metadata>
Created by potrace 1.16, written by Peter Selinger 2001-2019
</metadata>
<g transform="translate(0.000000,102.000000) scale(0.100000,-0.100000)"
fill="#000000" stroke="none">
<path d="M537 967 c-21 -30 -48 -64 -61 -76 -23 -21 -24 -22 -20 -4 3 11 -2
27 -11 37 -16 16 -66 22 -79 9 -3 -4 -15 -8 -25 -10 -15 -2 -23 8 -34 40 -13
41 -15 42 -56 40 -24 -1 -45 -4 -48 -6 -2 -3 3 -19 11 -36 9 -16 16 -31 16
-33 0 -6 -75 -1 -97 6 -29 9 -59 0 -67 -21 -11 -29 4 -52 38 -58 21 -4 38 -16
48 -33 l16 -27 -61 3 -62 3 0 -38 c0 -38 1 -38 43 -41 25 -2 42 1 42 7 0 15
67 14 73 -1 4 -10 8 -10 15 1 8 11 32 13 126 8 106 -7 116 -6 117 10 0 14 2
13 9 -4 8 -20 13 -21 35 -13 34 13 38 13 32 -3 -10 -27 11 -41 57 -39 33 1 46
-2 46 -12 0 -17 -93 -31 -118 -17 -25 13 -59 3 -65 -19 -7 -26 7 -42 34 -41
13 1 71 2 129 2 58 -1 147 -1 199 -1 98 0 113 6 103 42 -4 17 -13 19 -81 18
-105 -2 -121 0 -121 15 0 13 9 15 83 17 33 1 39 5 44 29 4 23 9 27 22 19 22
-11 38 -1 61 43 l19 35 -64 7 c-36 4 -74 5 -84 2 -42 -11 -40 10 3 41 59 43
94 91 75 103 -15 9 -47 3 -63 -12 -13 -12 -73 -11 -81 1 -3 6 -28 9 -55 7 -46
-2 -48 -2 -33 15 14 16 14 18 -11 28 -48 18 -62 12 -99 -43z m213 -64 c0 -1
-16 -11 -35 -23 l-35 -22 -30 22 c-16 12 -30 22 -30 23 0 1 29 2 65 2 36 0 65
-1 65 -2z m-500 -33 c0 -5 15 -10 34 -10 35 0 37 -4 23 -45 -5 -14 -16 -20
-39 -20 -28 0 -34 4 -42 33 -5 17 -13 32 -17 32 -5 0 -9 5 -9 10 0 6 11 10 25
10 14 0 25 -4 25 -10z m180 -14 c0 -7 14 -19 31 -26 l31 -13 -28 -12 c-15 -6
-41 -9 -56 -7 -28 4 -28 5 -12 24 17 18 17 19 -5 25 -17 4 -19 8 -9 14 20 13
48 10 48 -5z m160 -6 c28 -21 26 -27 -10 -33 -14 -3 -38 -8 -54 -13 l-29 -7
29 37 c16 20 31 36 34 36 3 0 16 -9 30 -20z m147 -91 c-19 -3 -55 -2 -79 1
-23 4 -36 8 -28 10 31 4 52 9 56 13 3 2 23 -1 46 -7 l41 -11 -36 -6z"/>
<path d="M112 702 c-8 -5 -13 -20 -12 -33 1 -13 2 -65 2 -116 2 -102 9 -112
67 -90 32 12 61 4 61 -17 0 -18 -82 -31 -108 -17 -38 21 -81 -14 -66 -53 5
-13 52 -15 72 -2 7 4 32 4 57 1 44 -7 44 -8 39 -40 -5 -36 11 -47 60 -38 25 5
31 17 28 54 -1 17 5 19 88 21 49 2 60 10 53 38 -4 15 -15 18 -56 19 -81 0 -97
2 -97 16 0 13 14 16 92 17 45 1 46 2 38 24 -9 22 -7 98 3 181 4 36 -18 48 -60
32 -13 -5 -50 -10 -81 -10 -53 -1 -81 2 -142 16 -14 3 -31 1 -38 -3z m221 -62
c9 0 17 -6 17 -14 0 -18 -93 -31 -119 -16 -11 5 -27 7 -35 4 -11 -4 -16 -1
-16 11 0 11 6 15 18 11 9 -3 24 -1 32 5 8 5 31 7 50 4 19 -2 43 -5 53 -5z m0
-90 c9 0 17 -6 17 -14 0 -18 -93 -31 -119 -16 -11 5 -27 7 -35 4 -11 -4 -16
-1 -16 11 0 11 6 15 18 11 9 -3 24 -1 32 5 8 5 31 7 50 4 19 -2 43 -5 53 -5z"/>
<path d="M509 573 c-12 -3 -15 -20 -15 -88 -1 -91 4 -98 60 -88 26 5 27 8 22
58 -4 49 -3 53 17 54 12 1 47 3 77 6 78 6 120 -2 118 -23 -1 -9 0 -31 0 -48 2
-34 24 -47 63 -37 17 5 19 11 14 44 -4 20 -2 46 4 57 5 10 7 28 4 40 -5 21 -9
22 -162 19 -86 -1 -163 1 -171 4 -8 4 -22 5 -31 2z"/>
<path d="M639 487 c-2 -33 -10 -51 -31 -74 -37 -40 -65 -50 -156 -58 -24 -2
-46 -6 -49 -9 -7 -7 48 -72 59 -68 4 1 7 -1 6 -5 -4 -16 26 -83 38 -83 6 0 26
3 43 6 36 7 39 25 13 69 l-18 29 50 24 c28 13 64 35 79 50 17 16 26 20 22 11
-5 -12 1 -18 22 -24 15 -3 61 -22 103 -41 l75 -35 22 28 c13 15 21 32 20 38
-2 5 -48 25 -101 44 -80 28 -102 32 -117 23 -18 -12 -18 -11 -3 28 9 23 14 43
11 47 -13 12 -87 13 -88 0z"/>
<path d="M135 251 c-10 -31 -26 -73 -36 -93 -14 -28 -16 -38 -7 -39 17 -1 41
-6 64 -12 16 -5 23 6 45 71 14 42 29 84 33 93 5 12 0 18 -21 24 -57 16 -60 14
-78 -44z"/>
<path d="M309 293 c-22 -5 -31 -41 -18 -66 6 -10 8 -28 6 -39 -15 -54 47 -112
94 -88 11 6 70 8 146 6 97 -4 133 -2 148 8 28 18 64 98 48 103 -7 3 -28 15
-47 28 l-34 23 -11 -43 c-9 -36 -16 -45 -43 -54 -35 -11 -135 -8 -220 8 -9 1
-4 68 7 94 5 13 2 17 -13 17 -11 0 -26 2 -34 4 -7 2 -20 2 -29 -1z"/>
<path d="M750 283 c-14 -9 -27 -18 -29 -19 -2 -2 14 -23 36 -46 21 -24 48 -58
58 -75 l19 -32 38 21 c21 12 38 27 38 33 0 16 -109 135 -124 135 -6 0 -23 -8
-36 -17z"/>
</g>
</svg>
