<?xml version="1.0" standalone="no"?>
<!DOCTYPE svg PUBLIC "-//W3C//DTD SVG 20010904//EN"
 "http://www.w3.org/TR/2001/REC-SVG-20010904/DTD/svg10.dtd">
<svg version="1.0" xmlns="http://www.w3.org/2000/svg"
 width="101.000000pt" height="101.000000pt" viewBox="0 0 101.000000 101.000000"
 preserveAspectRatio="xMidYMid meet">
<metadata>
Created by potrace 1.16, written by Peter Selinger 2001-2019
</metadata>
<g transform="translate(0.000000,101.000000) scale(0.100000,-0.100000)"
fill="#000000" stroke="none">
<path d="M588 980 c2 -17 1 -54 -2 -83 l-7 -52 -50 4 c-29 2 -56 -2 -62 -8
-14 -14 -54 -14 -62 -1 -4 6 -53 10 -123 9 -64 -1 -121 0 -127 1 -29 7 -35 -2
-35 -50 0 -27 5 -50 10 -50 6 0 10 -16 10 -35 0 -19 -5 -35 -11 -35 -7 0 -10
-35 -8 -107 2 -102 0 -124 -16 -216 -9 -51 -40 -124 -71 -164 l-24 -31 43 -25
c23 -14 46 -23 51 -20 30 19 105 256 107 336 0 13 5 17 15 13 9 -3 24 -1 35 5
11 6 39 7 63 4 36 -6 44 -11 45 -28 0 -12 3 -51 6 -87 5 -78 -9 -114 -45 -116
-64 -3 -61 0 -40 -46 10 -23 27 -45 36 -48 18 -7 92 14 109 31 5 5 10 62 11
127 4 180 -5 161 75 157 61 -4 69 -2 74 15 14 43 -2 57 -70 65 -35 3 -72 4
-82 1 -14 -5 -18 0 -19 22 -1 25 2 28 28 24 15 -2 47 -1 71 2 43 7 43 7 42 47
l0 40 -35 -5 c-19 -3 -51 -2 -70 2 -32 7 -35 11 -34 42 1 46 18 54 98 46 57
-7 66 -10 61 -25 -4 -15 2 -68 20 -171 2 -14 6 -36 9 -50 2 -14 16 -61 30
-104 l25 -79 -26 -31 c-36 -44 -100 -94 -158 -123 -45 -23 -48 -27 -31 -37 10
-6 31 -21 46 -33 l28 -23 28 22 c16 12 57 48 91 82 34 33 64 58 66 55 2 -2 18
-25 35 -50 45 -67 98 -111 130 -107 22 2 32 14 53 58 45 94 45 103 -3 134 -22
14 -42 25 -45 23 -2 -2 -6 -21 -8 -42 -3 -21 -7 -41 -10 -43 -8 -9 -46 31 -72
75 -19 34 -22 46 -13 62 6 11 28 73 49 136 21 63 45 122 51 131 16 18 8 26
-49 48 -46 18 -53 16 -56 -12 -1 -9 -5 -25 -9 -34 -4 -9 -5 -21 -2 -27 4 -5 2
-12 -3 -15 -5 -3 -9 -21 -9 -38 -1 -35 -30 -124 -32 -98 -1 8 -3 24 -6 35 -15
70 -24 145 -27 210 l-2 60 44 -4 c24 -2 54 2 67 9 15 9 42 11 78 6 49 -5 55
-4 61 14 7 23 -3 62 -18 72 -6 4 -20 2 -30 -4 -11 -5 -35 -7 -56 -3 l-36 7 33
16 c17 9 32 18 32 22 0 3 -13 27 -30 53 -28 45 -30 46 -60 36 -16 -6 -33 -15
-36 -21 -3 -5 6 -32 21 -59 l26 -49 -40 0 c-21 0 -45 -2 -53 -5 -10 -4 -13 8
-12 52 1 32 5 70 9 86 l7 27 -54 0 -55 0 5 -30z m-254 -334 l5 -108 -37 6
c-20 3 -50 6 -65 6 -26 0 -28 2 -21 35 4 23 2 35 -5 35 -6 0 -11 11 -11 25 0
14 5 25 10 25 6 0 10 18 10 39 l0 40 53 3 c28 2 53 3 54 3 1 -1 4 -50 7 -109z"/>
<path d="M270 412 c0 -5 -18 -37 -40 -71 -22 -34 -40 -66 -40 -70 0 -8 40 -24
62 -25 8 -1 98 123 98 134 0 6 -65 40 -75 40 -3 0 -5 -4 -5 -8z"/>
<path d="M483 392 l-23 -17 33 -41 c17 -23 37 -49 42 -58 9 -15 13 -14 42 11
l33 28 -36 48 c-39 51 -56 56 -91 29z"/>
</g>
</svg>
