<?xml version="1.0" standalone="no"?>
<!DOCTYPE svg PUBLIC "-//W3C//DTD SVG 20010904//EN"
 "http://www.w3.org/TR/2001/REC-SVG-20010904/DTD/svg10.dtd">
<svg version="1.0" xmlns="http://www.w3.org/2000/svg"
 width="101.000000pt" height="101.000000pt" viewBox="0 0 101.000000 101.000000"
 preserveAspectRatio="xMidYMid meet">
<metadata>
Created by potrace 1.16, written by Peter Selinger 2001-2019
</metadata>
<g transform="translate(0.000000,101.000000) scale(0.100000,-0.100000)"
fill="#000000" stroke="none">
<path d="M505 980 c-4 -16 -4 -39 0 -50 4 -11 8 -38 9 -60 l3 -40 -91 1 c-50
0 -109 0 -131 0 -87 0 -213 7 -223 13 -15 9 -42 -22 -42 -47 0 -34 15 -50 46
-49 16 1 57 1 91 1 33 0 64 5 68 10 7 13 145 13 161 0 6 -4 35 -7 65 -6 l54 2
2 -39 c0 -21 6 -42 12 -45 5 -4 9 -29 9 -56 -1 -64 2 -80 42 -195 l32 -95 -47
-42 c-26 -24 -77 -60 -113 -80 -57 -32 -63 -38 -47 -47 10 -6 31 -22 47 -35
l29 -23 72 55 c40 31 81 65 90 75 17 19 19 18 80 -43 64 -64 126 -95 162 -81
18 7 54 81 62 129 4 29 1 35 -37 59 -32 21 -42 24 -46 13 -7 -17 -12 -45 -13
-67 -2 -30 -28 -20 -81 32 l-51 49 25 48 c13 26 38 91 55 143 18 52 36 99 42
105 21 21 3 34 -67 49 -34 8 -40 -1 -50 -72 -2 -17 -15 -65 -28 -105 l-23 -72
-17 56 c-15 52 -20 76 -30 169 -2 19 -6 52 -9 73 l-5 37 44 0 c24 0 44 5 44
10 0 6 11 10 25 10 14 0 25 -5 25 -11 0 -6 24 -9 63 -8 34 0 69 -2 78 -5 21
-9 49 19 49 49 0 39 -48 73 -65 45 -7 -11 -61 -12 -89 -1 -17 6 -15 9 13 20
17 8 34 18 37 22 3 5 -11 32 -31 59 l-36 50 -40 -20 c-21 -11 -39 -23 -39 -26
0 -3 14 -26 31 -50 17 -25 29 -47 26 -50 -2 -2 -33 -6 -68 -7 l-64 -3 2 82 1
82 -34 -5 c-22 -4 -34 -2 -34 6 0 6 -9 11 -19 11 -13 0 -21 -9 -26 -30z"/>
<path d="M121 666 c-9 -10 -11 -54 -9 -145 3 -118 5 -130 22 -135 11 -3 27 -1
37 5 11 5 73 7 147 5 l128 -5 3 140 2 140 -130 -7 c-96 -5 -131 -4 -131 5 0
16 -55 14 -69 -3z m235 -137 l1 -68 -38 -6 c-21 -4 -46 -2 -58 4 -11 6 -26 9
-33 6 -10 -4 -13 11 -13 62 l0 68 70 1 70 1 1 -68z"/>
<path d="M448 335 c-4 -5 -50 -14 -103 -21 -22 -3 -53 -7 -70 -10 -48 -7 -116
-14 -173 -18 -30 -3 -55 -6 -58 -8 -3 -4 23 -95 30 -105 1 -1 28 5 60 13 32 8
73 18 90 20 17 3 42 7 56 10 24 5 65 12 105 18 95 13 122 34 109 83 -5 16 -35
29 -46 18z"/>
</g>
</svg>
