<?xml version="1.0" standalone="no"?>
<!DOCTYPE svg PUBLIC "-//W3C//DTD SVG 20010904//EN"
 "http://www.w3.org/TR/2001/REC-SVG-20010904/DTD/svg10.dtd">
<svg version="1.0" xmlns="http://www.w3.org/2000/svg"
 width="101.000000pt" height="101.000000pt" viewBox="0 0 101.000000 101.000000"
 preserveAspectRatio="xMidYMid meet">
<metadata>
Created by potrace 1.16, written by Peter Selinger 2001-2019
</metadata>
<g transform="translate(0.000000,101.000000) scale(0.100000,-0.100000)"
fill="#000000" stroke="none">
<path d="M596 985 c-4 -14 -4 -30 -1 -35 3 -4 7 -57 10 -117 5 -107 5 -109
-17 -111 -20 -3 -38 -5 -71 -11 -4 0 -6 -18 -3 -38 3 -21 5 -42 5 -47 1 -8 56
-1 86 10 8 4 13 -3 13 -18 1 -22 5 -51 16 -113 3 -16 14 -61 25 -100 l20 -70
-36 -43 c-41 -50 -111 -104 -124 -96 -5 3 -9 11 -9 19 0 21 -21 23 -64 8 -28
-9 -66 -12 -125 -8 -48 3 -95 6 -107 6 -16 1 -21 8 -21 30 l0 28 29 -21 29
-20 62 58 c34 33 62 63 62 69 0 5 -16 15 -37 23 l-36 14 -51 -53 c-40 -41 -54
-50 -63 -41 -9 9 -10 19 -1 43 7 17 10 36 7 44 -4 8 3 13 18 14 13 0 55 3 93
6 39 3 85 3 103 0 l33 -6 -26 -21 -26 -20 53 -57 c29 -31 58 -57 63 -59 6 -1
24 9 40 23 l30 25 -30 27 c-17 16 -45 40 -64 55 -38 29 -42 27 56 31 44 1 57
16 46 57 -5 19 -32 26 -85 22 -16 -1 -17 13 -15 154 l2 156 47 -5 c51 -4 63 6
52 48 -4 17 -15 25 -40 30 -19 3 -38 4 -42 1 -4 -2 -6 22 -5 54 l2 58 -34 6
c-20 4 -44 2 -56 -5 -19 -9 -21 -18 -17 -64 l4 -52 -87 1 c-81 1 -87 2 -82 21
3 11 7 37 9 58 5 40 9 38 -64 41 -38 1 -43 -10 -38 -74 l3 -46 -35 4 c-26 3
-39 0 -49 -14 -30 -41 -1 -90 47 -80 l28 5 7 -145 c8 -160 4 -176 -39 -156
-47 21 -82 -8 -69 -58 5 -19 19 -25 54 -22 19 2 19 1 22 -133 1 -49 -2 -100
-6 -111 -6 -17 -3 -23 14 -27 12 -3 30 -2 40 4 11 5 87 7 188 3 l171 -6 0 24
c0 19 4 17 28 -19 15 -24 30 -43 33 -43 3 0 37 33 75 72 l69 73 50 -70 c57
-79 103 -112 134 -96 19 11 52 84 66 148 5 25 3 33 -7 33 -8 0 -30 11 -48 25
-32 23 -35 24 -41 8 -4 -10 -5 -28 -2 -40 3 -12 2 -27 -2 -33 -10 -16 -30 4
-62 57 l-25 43 62 123 c34 67 68 126 76 130 25 14 15 25 -38 45 -56 21 -68 20
-68 -4 0 -22 -60 -174 -69 -174 -4 0 -8 6 -8 13 -1 6 -4 30 -8 52 -4 22 -8 51
-10 65 -1 14 -6 37 -10 53 -4 15 -3 28 1 28 5 1 20 3 34 5 14 2 39 6 55 9 56
11 90 16 117 17 34 1 42 21 26 65 -11 31 -15 33 -46 28 -19 -3 -38 -8 -43 -11
-5 -3 -9 -1 -9 4 0 5 16 17 35 28 19 10 35 23 35 29 -1 5 -25 37 -54 70 l-54
59 -41 -19 c-45 -20 -49 -26 -25 -46 29 -24 95 -129 82 -130 -7 0 -22 -3 -33
-5 -11 -3 -31 -5 -45 -5 -14 -1 -29 -5 -35 -9 -15 -13 -11 216 5 234 20 25 2
36 -55 36 -48 0 -53 -2 -59 -25z m-201 -222 c0 -24 -5 -33 -20 -37 -33 -9 -75
-7 -75 4 0 6 -15 10 -34 10 -25 0 -35 5 -39 20 -4 17 0 20 24 20 16 0 29 5 29
10 0 7 22 10 58 8 57 -3 57 -3 57 -35z m-19 -93 c16 0 21 -6 21 -29 0 -27 -3
-29 -54 -35 -30 -4 -62 -2 -73 4 -10 5 -25 8 -33 5 -10 -4 -14 3 -14 25 0 23
4 29 16 25 9 -2 23 0 31 6 8 5 31 7 50 4 19 -2 44 -5 56 -5z m0 -130 c16 0 21
-6 21 -29 0 -27 -3 -29 -54 -35 -30 -4 -62 -2 -73 4 -10 5 -25 8 -33 5 -10 -4
-14 3 -14 25 0 23 4 29 16 25 9 -2 23 0 31 6 8 5 31 7 50 4 19 -2 44 -5 56 -5z"/>
</g>
</svg>
