<?xml version="1.0" standalone="no"?>
<!DOCTYPE svg PUBLIC "-//W3C//DTD SVG 20010904//EN"
 "http://www.w3.org/TR/2001/REC-SVG-20010904/DTD/svg10.dtd">
<svg version="1.0" xmlns="http://www.w3.org/2000/svg"
 width="101.000000pt" height="102.000000pt" viewBox="0 0 101.000000 102.000000"
 preserveAspectRatio="xMidYMid meet">
<metadata>
Created by potrace 1.16, written by Peter Selinger 2001-2019
</metadata>
<g transform="translate(0.000000,102.000000) scale(0.100000,-0.100000)"
fill="#000000" stroke="none">
<path d="M473 1009 c-24 -9 -30 -24 -14 -33 5 -3 13 -19 19 -34 l10 -28 -150
3 c-82 1 -153 5 -158 8 -5 3 -19 1 -31 -5 -16 -9 -20 -18 -15 -38 11 -55 15
-211 5 -217 -5 -4 -10 -46 -10 -93 0 -101 -3 -145 -11 -158 -3 -5 -6 -21 -6
-35 1 -30 -40 -124 -73 -170 -12 -17 -18 -34 -13 -38 5 -4 26 -19 46 -34 l37
-27 30 62 c31 67 70 183 78 233 3 17 4 69 3 118 0 55 3 87 10 87 5 0 10 11 10
25 0 26 8 29 76 25 18 -1 35 3 39 9 7 12 147 15 159 4 4 -5 83 -8 175 -8 l168
0 2 105 c1 58 2 114 2 124 0 22 -20 38 -36 28 -5 -4 -63 -7 -128 -7 -117 0
-118 0 -124 25 -3 14 -10 31 -15 37 -6 7 -8 19 -5 27 6 16 -43 19 -80 5z
m-103 -169 c0 -6 30 -10 70 -10 40 0 70 4 70 10 0 6 11 10 25 10 14 0 25 -4
25 -10 0 -5 23 -10 50 -10 28 0 50 5 50 11 0 6 20 9 52 7 l51 -3 2 -51 2 -51
-66 -7 c-96 -9 -169 -7 -176 4 -7 12 -113 11 -121 -1 -7 -13 -48 -11 -61 2 -6
6 -33 10 -61 8 l-51 -4 2 42 2 43 43 0 c23 0 42 5 42 10 0 6 11 10 25 10 14 0
25 -4 25 -10z"/>
<path d="M681 639 l-24 -9 6 -140 c6 -120 5 -140 -8 -140 -9 0 -24 -6 -35 -12
-15 -10 -27 -10 -51 -1 -17 7 -38 9 -46 6 -11 -4 -8 6 10 32 15 22 23 42 19
46 -6 6 -199 89 -207 89 -2 0 -13 -16 -25 -37 -17 -29 -18 -38 -8 -44 7 -5 17
-9 21 -9 4 0 44 -17 88 -37 50 -23 75 -39 67 -43 -25 -14 -129 -20 -148 -10
-12 6 -28 7 -43 1 -13 -5 -29 -6 -36 -1 -19 11 -48 1 -54 -19 -2 -9 -2 -31 1
-49 4 -32 5 -32 51 -26 25 3 73 8 106 10 33 3 87 7 120 10 176 13 183 13 184
-10 5 -58 4 -104 -2 -132 -7 -37 5 -43 65 -36 30 3 37 9 41 30 3 15 -2 42 -10
60 -12 26 -13 38 -5 57 6 14 9 31 6 39 -6 16 7 18 108 17 l67 -1 -2 47 -2 48
-45 -2 c-25 -1 -64 -3 -88 -5 l-43 -3 6 117 c3 64 8 123 10 131 4 8 -5 18 -20
25 -30 14 -41 14 -74 1z"/>
<path d="M390 610 c-11 -15 -20 -32 -20 -37 0 -6 144 -82 191 -101 4 -2 19 14
33 35 l26 37 -63 29 c-34 16 -81 37 -104 47 l-42 19 -21 -29z"/>
</g>
</svg>
