<?xml version="1.0" standalone="no"?>
<!DOCTYPE svg PUBLIC "-//W3C//DTD SVG 20010904//EN"
 "http://www.w3.org/TR/2001/REC-SVG-20010904/DTD/svg10.dtd">
<svg version="1.0" xmlns="http://www.w3.org/2000/svg"
 width="101.000000pt" height="101.000000pt" viewBox="0 0 101.000000 101.000000"
 preserveAspectRatio="xMidYMid meet">
<metadata>
Created by potrace 1.16, written by Peter Selinger 2001-2019
</metadata>
<g transform="translate(0.000000,101.000000) scale(0.100000,-0.100000)"
fill="#000000" stroke="none">
<path d="M345 970 c-27 -9 -53 -15 -57 -13 -5 2 -14 1 -20 -3 -15 -10 -42 -14
-87 -14 -18 0 -42 -5 -53 -11 -19 -10 -20 -17 -14 -83 11 -120 14 -310 5 -333
-5 -14 -4 -32 3 -48 8 -18 8 -28 0 -38 -6 -7 -13 -26 -16 -42 -4 -17 -8 -42
-11 -56 -7 -41 -34 -111 -56 -148 -11 -18 -19 -34 -17 -35 2 -1 22 -11 46 -21
37 -16 45 -17 53 -4 11 17 59 164 65 199 2 14 6 34 8 45 2 11 4 25 5 31 0 7
13 13 29 13 68 4 143 0 165 -8 13 -5 29 -6 35 -2 16 9 28 141 13 141 -6 0 -11
16 -11 35 0 19 5 35 10 35 6 0 10 27 10 60 0 76 -9 81 -137 78 l-98 -3 0 66
-1 66 51 0 c27 0 68 3 90 7 22 4 51 7 65 7 74 -1 86 18 44 68 -29 35 -46 37
-119 11z m14 -339 c3 -46 1 -145 -3 -148 -4 -4 -94 -6 -133 -3 -18 2 -22 7
-17 24 3 12 6 51 7 86 l2 65 71 1 c71 1 72 1 73 -25z"/>
<path d="M828 985 c-3 -3 -14 -8 -24 -10 -11 -2 -28 -6 -39 -9 -95 -24 -113
-26 -172 -26 -86 1 -90 -6 -80 -185 4 -83 4 -166 1 -185 -4 -19 -8 -53 -9 -75
-8 -122 -46 -206 -133 -297 -25 -26 -44 -49 -41 -51 2 -2 21 -13 43 -26 l39
-22 25 23 c65 60 143 225 159 338 2 19 7 51 9 70 3 19 5 45 6 56 0 15 7 22 22
23 11 0 34 2 51 3 27 3 30 0 33 -27 4 -40 4 -192 0 -347 -4 -139 -4 -140 58
-131 27 4 30 9 31 41 1 21 2 46 3 57 1 11 -4 63 -9 116 -6 53 -9 130 -6 170 3
41 6 84 6 95 1 23 8 25 94 26 28 0 53 5 57 12 10 15 10 64 0 70 -5 3 -39 0
-76 -6 -50 -8 -72 -8 -89 1 -13 7 -54 10 -99 9 l-76 -3 3 78 3 78 85 3 c47 3
98 11 114 19 15 8 45 13 66 11 50 -4 56 13 21 65 -24 38 -58 53 -76 36z"/>
</g>
</svg>
