<?xml version="1.0" standalone="no"?>
<!DOCTYPE svg PUBLIC "-//W3C//DTD SVG 20010904//EN"
 "http://www.w3.org/TR/2001/REC-SVG-20010904/DTD/svg10.dtd">
<svg version="1.0" xmlns="http://www.w3.org/2000/svg"
 width="101.000000pt" height="101.000000pt" viewBox="0 0 101.000000 101.000000"
 preserveAspectRatio="xMidYMid meet">
<metadata>
Created by potrace 1.16, written by Peter Selinger 2001-2019
</metadata>
<g transform="translate(0.000000,101.000000) scale(0.100000,-0.100000)"
fill="#000000" stroke="none">
<path d="M478 993 c-23 -6 -23 -18 3 -54 19 -27 19 -30 3 -36 -9 -3 -31 -1
-48 4 -17 6 -87 11 -156 11 l-125 0 -4 -167 c-2 -91 -5 -193 -7 -226 -3 -57
-5 -73 -19 -153 -9 -50 -42 -120 -75 -162 l-30 -37 48 -19 c26 -11 50 -20 53
-22 12 -5 47 62 74 143 35 103 34 95 50 293 l7 82 48 0 c27 0 52 4 55 10 8 12
153 11 161 -1 3 -5 -2 -17 -11 -26 -13 -13 -16 -30 -13 -72 l4 -56 -118 0
-117 0 -6 -27 c-4 -15 -1 -37 5 -49 11 -20 17 -21 88 -15 43 4 89 9 105 12 26
5 27 5 16 -23 -40 -108 -117 -171 -247 -203 l-42 -11 42 -43 43 -44 70 36 c93
48 185 140 211 209 l19 52 34 -65 c19 -37 54 -83 83 -109 45 -41 157 -105 182
-105 6 0 27 22 48 49 l36 49 -26 8 c-15 4 -38 8 -52 9 -68 6 -174 84 -210 155
l-18 35 112 -1 c61 0 117 -3 123 -7 21 -13 45 23 39 57 -8 36 -21 46 -63 46
-18 0 -33 5 -33 11 0 14 -70 99 -82 99 -5 0 -25 -7 -45 -15 l-36 -15 20 -23
c11 -12 28 -34 37 -48 l16 -26 -75 1 c-63 1 -74 3 -69 16 4 8 9 30 12 48 2 18
8 35 13 38 17 10 9 22 -21 28 -49 9 -34 21 21 17 29 -2 56 2 62 8 13 13 50 15
61 4 4 -5 37 -9 73 -10 l66 -1 -7 95 c-5 67 -4 99 4 109 18 20 4 68 -17 60
-35 -14 -133 -19 -146 -7 -8 6 -35 10 -61 8 -46 -3 -47 -2 -65 39 -17 38 -23
42 -52 41 -19 0 -42 -2 -51 -4z m-78 -163 c0 -6 30 -10 70 -10 40 0 70 4 70
10 0 6 11 10 25 10 14 0 25 -5 25 -11 0 -8 27 -9 93 -4 l92 6 0 -48 0 -48 -69
2 c-39 1 -75 -2 -80 -6 -15 -13 -147 -13 -161 -1 -7 6 -57 9 -116 8 l-104 -3
0 43 -1 42 43 0 c24 0 43 5 43 10 0 6 16 10 35 10 19 0 35 -4 35 -10z m405
-320 c-3 -5 -12 -10 -18 -10 -7 0 -6 4 3 10 19 12 23 12 15 0z"/>
</g>
</svg>
