<?xml version="1.0" standalone="no"?>
<!DOCTYPE svg PUBLIC "-//W3C//DTD SVG 20010904//EN"
 "http://www.w3.org/TR/2001/REC-SVG-20010904/DTD/svg10.dtd">
<svg version="1.0" xmlns="http://www.w3.org/2000/svg"
 width="101.000000pt" height="102.000000pt" viewBox="0 0 101.000000 102.000000"
 preserveAspectRatio="xMidYMid meet">
<metadata>
Created by potrace 1.16, written by Peter Selinger 2001-2019
</metadata>
<g transform="translate(0.000000,102.000000) scale(0.100000,-0.100000)"
fill="#000000" stroke="none">
<path d="M463 1010 c-27 -11 -27 -8 -7 -55 8 -20 13 -40 10 -43 -12 -11 -116
-15 -116 -3 0 6 -17 11 -40 11 -22 0 -40 -4 -40 -10 0 -5 -25 -10 -55 -10 -30
0 -55 5 -55 10 0 6 -7 10 -14 10 -11 0 -14 -10 -11 -42 10 -117 4 -408 -9
-458 -4 -14 -10 -38 -13 -55 -7 -38 -45 -114 -78 -153 l-25 -30 46 -26 c54
-30 53 -31 103 70 36 75 85 240 75 256 -3 4 21 8 53 8 32 0 82 3 112 7 34 4
52 3 48 -4 -6 -9 -8 -17 -22 -87 -18 -87 -110 -196 -193 -226 l-40 -15 45 -39
c42 -36 46 -38 71 -25 48 25 148 133 175 189 20 39 34 56 50 58 72 8 156 11
184 7 28 -5 31 -9 28 -33 -2 -15 -6 -43 -9 -62 -7 -44 -28 -60 -82 -58 -24 1
-46 -1 -50 -5 -4 -4 0 -23 9 -42 9 -20 17 -42 17 -50 0 -36 157 12 180 55 7
13 14 34 16 49 2 14 6 44 10 66 3 22 7 51 10 65 2 14 5 39 7 55 l3 30 -74 -4
c-55 -2 -77 0 -84 10 -7 11 -11 11 -15 2 -6 -15 -73 -18 -73 -3 0 6 -18 10
-40 10 -43 0 -46 4 -27 35 10 17 25 20 92 23 133 5 228 4 265 -2 l35 -5 0 49
c0 39 -3 49 -14 45 -8 -3 -63 -8 -123 -12 -78 -4 -108 -3 -108 5 0 7 -13 12
-28 12 -22 0 -32 7 -45 35 -12 26 -13 35 -4 36 6 1 30 3 52 5 79 8 170 9 192
1 17 -6 23 -3 28 13 4 12 2 27 -4 34 -7 9 -8 40 -2 97 4 46 6 89 4 94 -2 7
-59 11 -155 12 l-152 0 -16 49 c-15 42 -20 49 -46 50 -16 2 -39 -2 -51 -6z
m62 -181 c5 -7 49 -9 129 -7 l121 4 0 -38 0 -39 -132 6 c-79 3 -134 2 -137 -4
-8 -13 -147 -13 -162 0 -8 6 -35 9 -61 7 l-48 -3 0 35 -1 35 112 -3 c71 -2
115 1 119 8 8 13 52 13 60 -1z m45 -159 c13 -9 13 -10 0 -11 -71 -4 -77 -9
-54 -44 15 -23 15 -28 3 -36 -20 -12 -146 -11 -154 1 -4 6 -32 9 -65 8 l-59
-3 2 40 2 41 118 -3 c65 -2 126 1 135 7 22 12 53 12 72 0z"/>
</g>
</svg>
