<?xml version="1.0" standalone="no"?>
<!DOCTYPE svg PUBLIC "-//W3C//DTD SVG 20010904//EN"
 "http://www.w3.org/TR/2001/REC-SVG-20010904/DTD/svg10.dtd">
<svg version="1.0" xmlns="http://www.w3.org/2000/svg"
 width="101.000000pt" height="101.000000pt" viewBox="0 0 101.000000 101.000000"
 preserveAspectRatio="xMidYMid meet">
<metadata>
Created by potrace 1.16, written by Peter Selinger 2001-2019
</metadata>
<g transform="translate(0.000000,101.000000) scale(0.100000,-0.100000)"
fill="#000000" stroke="none">
<path d="M595 1000 c4 -6 4 -58 0 -115 l-7 -104 -69 6 c-49 4 -69 3 -69 -6 0
-6 -11 -11 -25 -11 -14 0 -25 5 -25 10 0 6 -30 10 -70 10 -40 0 -70 -4 -70
-10 0 -5 -16 -10 -35 -10 -19 0 -35 5 -35 10 0 6 -24 10 -54 10 -61 0 -71 -11
-60 -66 7 -37 35 -52 75 -39 19 6 389 14 389 8 0 -7 -101 -127 -149 -176 -79
-83 -163 -145 -256 -192 l-81 -41 49 -43 48 -44 72 49 c88 60 240 204 309 293
28 36 54 69 57 73 3 4 5 -28 3 -72 -2 -47 1 -81 7 -85 14 -8 14 -52 1 -60 -6
-4 -9 -43 -8 -93 l3 -87 -62 3 c-34 2 -71 1 -82 -3 -21 -6 -21 -7 -3 -33 11
-15 24 -40 29 -57 7 -21 17 -31 34 -32 34 -3 158 27 166 41 4 6 6 39 4 74 -2
40 1 62 8 62 7 0 11 21 11 50 0 28 -4 50 -10 50 -5 0 -10 11 -10 25 0 14 5 25
10 25 6 0 10 30 10 70 0 40 -4 70 -10 70 -5 0 -10 11 -10 25 0 14 5 25 10 25
6 0 10 17 10 39 l0 38 67 6 c37 3 78 1 92 -5 37 -13 89 -1 96 23 4 11 4 33 0
49 l-6 29 -129 -2 -129 -2 4 80 c3 44 7 90 11 101 7 28 -6 35 -68 41 -36 4
-48 2 -43 -7z"/>
</g>
</svg>
