<?xml version="1.0" standalone="no"?>
<!DOCTYPE svg PUBLIC "-//W3C//DTD SVG 20010904//EN"
 "http://www.w3.org/TR/2001/REC-SVG-20010904/DTD/svg10.dtd">
<svg version="1.0" xmlns="http://www.w3.org/2000/svg"
 width="101.000000pt" height="101.000000pt" viewBox="0 0 101.000000 101.000000"
 preserveAspectRatio="xMidYMid meet">
<metadata>
Created by potrace 1.16, written by Peter Selinger 2001-2019
</metadata>
<g transform="translate(0.000000,101.000000) scale(0.100000,-0.100000)"
fill="#000000" stroke="none">
<path d="M249 1003 c-13 -3 -16 -18 -17 -68 0 -36 4 -67 9 -71 9 -5 13 -67 4
-75 -2 -3 -37 -2 -76 2 -40 3 -80 4 -90 2 -22 -6 -33 -36 -25 -69 6 -24 8 -24
94 -21 l87 3 2 -98 2 -97 -37 -8 c-20 -4 -41 -6 -46 -5 -5 2 -16 0 -25 -4 -18
-8 -28 -10 -53 -12 -26 -3 -21 -65 8 -110 1 -2 34 8 74 22 39 14 72 26 73 26
1 0 2 -46 1 -103 l0 -102 -50 3 c-69 4 -78 -5 -54 -53 11 -22 20 -45 20 -53 0
-19 74 -10 133 16 l45 20 6 64 c4 34 5 102 4 151 l-3 87 30 10 c16 5 39 11 50
13 67 12 70 15 70 66 l0 48 -65 -22 c-89 -29 -100 -25 -100 36 0 27 5 49 10
49 6 0 10 12 10 28 l0 27 79 0 c83 0 90 4 91 52 0 20 -32 45 -49 37 -9 -4 -42
-8 -73 -8 l-58 -1 5 75 c3 41 7 89 10 106 5 29 3 32 -26 38 -33 6 -44 6 -70
-1z"/>
<path d="M586 855 c3 -77 5 -185 4 -240 -1 -171 -1 -254 0 -287 1 -18 -2 -51
-5 -74 -5 -29 -2 -51 12 -80 15 -33 26 -42 72 -56 40 -13 58 -15 73 -7 11 6
35 8 54 4 54 -10 112 11 134 48 25 40 37 100 22 105 -6 2 -28 14 -47 28 -42
28 -56 24 -53 -14 4 -62 -38 -105 -80 -83 -11 6 -27 8 -35 6 -7 -3 -23 2 -35
12 -23 19 -24 25 -22 341 0 67 1 139 1 160 0 68 9 206 15 240 5 23 3 32 -7 33
-8 1 -35 2 -61 2 l-46 2 4 -140z"/>
</g>
</svg>
