<?xml version="1.0" standalone="no"?>
<!DOCTYPE svg PUBLIC "-//W3C//DTD SVG 20010904//EN"
 "http://www.w3.org/TR/2001/REC-SVG-20010904/DTD/svg10.dtd">
<svg version="1.0" xmlns="http://www.w3.org/2000/svg"
 width="101.000000pt" height="101.000000pt" viewBox="0 0 101.000000 101.000000"
 preserveAspectRatio="xMidYMid meet">
<metadata>
Created by potrace 1.16, written by Peter Selinger 2001-2019
</metadata>
<g transform="translate(0.000000,101.000000) scale(0.100000,-0.100000)"
fill="#000000" stroke="none">
<path d="M452 1002 c-9 -7 -10 -16 -1 -41 6 -17 9 -35 6 -38 -11 -11 -208 -15
-220 -4 -13 10 -69 13 -100 4 -16 -4 -17 -19 -12 -208 3 -135 2 -206 -5 -210
-6 -4 -10 -23 -9 -43 2 -65 -11 -115 -51 -195 l-39 -79 32 -28 c18 -16 35 -30
39 -30 18 0 91 175 104 250 2 8 6 29 9 45 8 34 13 91 17 187 l3 68 43 0 c23 0
42 5 42 10 0 6 11 10 25 10 14 0 25 -4 25 -10 0 -6 30 -10 70 -10 40 0 70 4
70 10 0 6 11 10 25 10 14 0 25 -4 25 -10 0 -5 23 -10 50 -10 28 0 50 5 50 10
0 13 122 13 179 -1 24 -5 45 -8 46 -7 1 2 -3 32 -9 67 -8 50 -8 65 2 69 7 2
12 23 12 53 l0 49 -120 -6 c-88 -4 -125 -3 -135 6 -8 7 -24 10 -35 7 -22 -6
-42 14 -40 40 4 39 0 43 -42 43 -24 0 -49 -4 -56 -8z m168 -165 l155 1 0 -33
c0 -32 -1 -33 -54 -39 -31 -4 -58 -2 -66 4 -14 12 -153 12 -160 0 -8 -12 -147
-11 -161 1 -8 6 -35 9 -61 7 -47 -3 -48 -3 -49 27 l0 30 72 -3 c42 -3 80 1 91
7 10 6 31 8 48 4 17 -3 100 -6 185 -6z"/>
<path d="M425 653 c-5 -5 -10 -21 -11 -38 l0 -30 -85 -1 c-81 -1 -84 -2 -87
-25 -4 -43 12 -53 92 -57 70 -4 74 -6 79 -29 l5 -25 -72 6 c-76 7 -94 1 -97
-29 -5 -49 -1 -55 40 -51 21 2 44 6 50 11 7 4 27 4 45 1 29 -6 32 -9 33 -46 2
-35 -1 -41 -23 -46 -14 -4 -37 -1 -50 5 -14 6 -29 9 -33 6 -5 -2 -22 0 -39 4
-59 17 -86 -5 -75 -63 5 -22 9 -25 43 -22 20 2 42 6 48 10 5 3 38 3 71 -1 47
-4 61 -9 57 -20 -3 -7 0 -25 6 -39 9 -19 9 -30 0 -44 -13 -22 6 -30 56 -22 28
4 32 8 34 36 0 17 0 38 -1 46 -5 29 0 356 6 398 3 24 1 47 -3 52 -13 12 -77
22 -89 13z"/>
<path d="M587 645 c-17 -16 -22 -121 -7 -130 13 -8 13 -152 0 -160 -7 -4 -10
-54 -8 -136 3 -140 1 -135 63 -130 31 3 48 18 38 35 -4 5 -7 31 -9 57 -2 53
-14 49 126 51 47 1 99 -2 116 -6 29 -7 32 -6 36 19 3 15 3 35 1 45 -6 21 -48
32 -80 19 -13 -5 -53 -9 -90 -9 -114 -2 -112 -3 -110 40 1 42 -5 40 112 42 39
1 82 -1 96 -6 23 -7 27 -4 31 19 14 69 -24 89 -109 60 -42 -15 -58 -16 -78 -7
-14 6 -30 9 -37 7 -9 -4 -13 4 -13 22 l0 28 105 -3 c122 -3 146 1 155 27 7 24
-4 73 -16 66 -5 -3 -61 -3 -124 1 -114 7 -116 7 -111 29 4 15 1 25 -10 29 -27
10 -62 7 -77 -9z"/>
</g>
</svg>
