<?xml version="1.0" standalone="no"?>
<!DOCTYPE svg PUBLIC "-//W3C//DTD SVG 20010904//EN"
 "http://www.w3.org/TR/2001/REC-SVG-20010904/DTD/svg10.dtd">
<svg version="1.0" xmlns="http://www.w3.org/2000/svg"
 width="101.000000pt" height="101.000000pt" viewBox="0 0 101.000000 101.000000"
 preserveAspectRatio="xMidYMid meet">
<metadata>
Created by potrace 1.16, written by Peter Selinger 2001-2019
</metadata>
<g transform="translate(0.000000,101.000000) scale(0.100000,-0.100000)"
fill="#000000" stroke="none">
<path d="M205 907 l0 -102 -77 2 -77 1 -6 -29 c-16 -73 36 -97 140 -64 19 6
20 1 20 -92 l0 -98 -77 -24 c-72 -23 -77 -26 -74 -50 4 -33 17 -81 22 -81 2 0
32 16 68 35 63 35 64 35 65 13 0 -13 3 -53 6 -89 3 -49 0 -74 -13 -100 -16
-32 -19 -34 -65 -32 -43 2 -48 0 -42 -15 4 -9 13 -32 20 -51 9 -25 19 -35 35
-36 39 -3 119 25 134 47 14 20 14 20 70 -5 l56 -26 34 42 c53 66 125 225 141
312 2 11 7 36 10 55 12 65 15 85 24 188 5 57 8 109 5 115 -3 9 16 12 64 12 71
1 77 -5 59 -55 -3 -8 -5 -22 -5 -30 0 -14 -5 -42 -17 -100 -3 -14 -8 -42 -11
-62 l-5 -37 57 5 c49 5 56 3 51 -11 -4 -8 -1 -26 5 -40 8 -18 8 -28 -1 -39 -7
-8 -15 -37 -17 -63 -3 -26 -7 -59 -8 -73 -2 -14 -4 -33 -5 -42 0 -9 -13 -31
-28 -48 -19 -24 -31 -30 -47 -25 -28 9 -86 14 -86 9 0 -3 7 -19 16 -35 8 -17
13 -33 10 -36 -3 -3 -1 -14 4 -24 11 -20 47 -20 116 -1 74 21 98 52 110 137 1
11 5 38 8 60 3 22 8 63 11 90 4 28 8 64 10 80 2 17 6 55 9 87 l6 56 -54 -3
c-59 -4 -56 -8 -42 65 3 14 8 36 10 50 3 14 8 39 11 55 3 17 8 41 11 55 13 65
18 61 -94 67 -62 3 -107 1 -115 -5 -15 -13 -174 -15 -182 -2 -3 5 -23 8 -45 8
-44 0 -54 -14 -44 -63 6 -33 6 -33 66 -34 34 0 62 -2 64 -4 6 -6 6 -147 0
-202 -16 -160 -43 -252 -97 -336 -40 -63 -109 -123 -123 -109 -7 7 -10 55 -9
123 2 175 -1 167 63 193 47 19 56 27 61 54 4 17 5 40 2 50 -5 18 -9 17 -63
-10 l-59 -30 6 73 c3 39 7 73 8 75 1 1 26 3 56 3 l54 2 0 42 0 43 -57 6 c-57
7 -58 8 -60 39 0 18 0 39 1 47 1 8 4 32 6 52 1 20 6 41 9 46 8 14 -18 22 -67
22 l-42 0 0 -103z"/>
</g>
</svg>
