<?xml version="1.0" standalone="no"?>
<!DOCTYPE svg PUBLIC "-//W3C//DTD SVG 20010904//EN"
 "http://www.w3.org/TR/2001/REC-SVG-20010904/DTD/svg10.dtd">
<svg version="1.0" xmlns="http://www.w3.org/2000/svg"
 width="101.000000pt" height="101.000000pt" viewBox="0 0 101.000000 101.000000"
 preserveAspectRatio="xMidYMid meet">
<metadata>
Created by potrace 1.16, written by Peter Selinger 2001-2019
</metadata>
<g transform="translate(0.000000,101.000000) scale(0.100000,-0.100000)"
fill="#000000" stroke="none">
<path d="M208 1003 c-15 -4 -17 -17 -14 -106 l3 -102 -36 3 c-108 8 -105 9
-115 -20 -15 -42 6 -78 44 -78 16 0 30 5 30 10 0 6 16 10 35 10 l35 0 0 -72
c0 -40 3 -83 6 -95 6 -23 -13 -36 -69 -47 -74 -14 -75 -15 -70 -59 10 -78 16
-81 77 -47 29 17 55 30 57 30 7 0 2 -186 -5 -199 -5 -7 -22 -11 -40 -10 -64 4
-68 2 -52 -28 7 -16 17 -43 21 -60 6 -31 9 -33 41 -29 46 6 120 43 130 64 4 9
8 82 10 161 2 142 3 145 27 157 13 7 35 15 48 18 52 10 57 15 57 67 1 27 -4
49 -9 49 -5 0 -35 -13 -67 -29 l-57 -29 0 80 0 80 67 -4 67 -4 6 32 c3 17 3
38 0 45 -4 11 13 14 87 14 l93 0 -3 -104 c-1 -59 2 -109 8 -116 12 -14 12
-146 -1 -160 -4 -6 -7 -46 -6 -88 2 -80 -2 -87 -43 -87 -10 0 -21 6 -24 13 -5
9 -7 9 -12 0 -7 -16 -74 -17 -74 -2 0 6 -17 9 -42 7 -36 -2 -44 -7 -52 -29 -5
-14 -6 -38 -2 -52 5 -23 10 -25 43 -20 21 3 81 5 133 5 52 -1 124 -1 160 -1
36 0 108 0 161 -1 l97 -1 5 27 c10 56 1 64 -77 64 -39 0 -97 1 -129 2 l-58 3
6 132 c3 79 2 134 -4 137 -13 8 -13 147 0 162 6 8 9 35 7 61 l-3 48 103 0 c80
0 105 3 112 15 12 19 12 51 1 69 -12 18 -131 29 -131 12 0 -6 -11 -11 -25 -11
-14 0 -25 5 -25 10 0 6 -30 10 -70 10 -40 0 -70 -4 -70 -10 0 -5 -16 -10 -35
-10 -19 0 -35 5 -35 10 0 6 -24 10 -54 10 -61 0 -70 -9 -60 -68 6 -36 5 -37
-28 -38 -18 0 -47 -3 -64 -6 l-32 -5 3 71 c2 40 7 84 11 100 6 26 5 28 -15 21
-13 -4 -27 -1 -37 9 -16 16 -17 17 -46 9z"/>
</g>
</svg>
