<?xml version="1.0" standalone="no"?>
<!DOCTYPE svg PUBLIC "-//W3C//DTD SVG 20010904//EN"
 "http://www.w3.org/TR/2001/REC-SVG-20010904/DTD/svg10.dtd">
<svg version="1.0" xmlns="http://www.w3.org/2000/svg"
 width="101.000000pt" height="101.000000pt" viewBox="0 0 101.000000 101.000000"
 preserveAspectRatio="xMidYMid meet">
<metadata>
Created by potrace 1.16, written by Peter Selinger 2001-2019
</metadata>
<g transform="translate(0.000000,101.000000) scale(0.100000,-0.100000)"
fill="#000000" stroke="none">
<path d="M238 1003 c-19 -5 -25 -33 -8 -33 11 0 13 -65 4 -120 l-6 -35 -81 1
c-50 1 -85 -3 -89 -10 -13 -20 -8 -64 9 -81 16 -16 30 -17 133 -3 l25 4 2 -97
2 -98 -32 -7 c-18 -4 -36 -7 -41 -6 -4 2 -14 -2 -20 -7 -12 -10 -44 -19 -75
-20 -9 -1 -11 -9 -7 -28 4 -16 8 -39 11 -51 2 -13 6 -26 8 -29 3 -3 35 9 70
26 36 17 69 31 73 31 5 0 9 -46 9 -103 l-1 -102 -28 -14 c-21 -10 -34 -10 -52
-2 -13 6 -30 8 -38 5 -13 -5 -12 -11 4 -42 11 -20 20 -44 20 -53 0 -9 9 -19
20 -22 24 -6 118 28 143 52 23 22 37 113 35 226 l-1 90 54 19 54 19 0 52 0 53
-56 -29 c-31 -15 -59 -25 -63 -22 -10 10 -7 93 4 93 6 0 10 11 10 25 0 26 8
29 76 25 36 -2 64 22 64 53 0 39 -14 48 -81 50 l-64 2 1 65 c1 36 4 74 8 85 5
17 0 23 -27 33 -35 12 -40 13 -69 5z"/>
<path d="M506 860 c-8 -29 -5 -89 4 -95 12 -8 12 -173 -1 -180 -12 -8 -12
-142 1 -150 13 -8 13 -52 0 -60 -6 -4 -9 -49 -7 -110 2 -114 4 -116 65 -107
30 4 32 6 38 63 6 58 7 59 38 59 17 1 58 2 92 3 l61 3 -4 -40 c-6 -61 7 -72
77 -68 l25 2 3 165 c2 112 0 165 -7 165 -6 0 -11 11 -11 25 0 14 5 25 10 25 6
0 10 30 10 70 0 40 -4 70 -10 70 -5 0 -10 16 -10 35 0 19 5 35 10 35 6 0 10
24 10 54 l0 53 -69 2 c-38 1 -72 -3 -75 -8 -8 -13 -173 -13 -181 -1 -10 16
-64 8 -69 -10z m291 -197 c2 -148 3 -191 2 -252 l0 -44 -61 7 c-33 3 -79 6
-100 6 l-40 0 7 40 c4 26 3 40 -4 40 -6 0 -11 11 -11 25 0 14 5 25 10 25 6 0
10 30 10 70 0 40 -4 70 -10 70 -5 0 -10 11 -10 25 0 14 5 25 10 25 6 0 10 18
10 39 l0 40 53 4 c28 2 70 4 92 5 l40 2 2 -127z"/>
</g>
</svg>
