<?xml version="1.0" standalone="no"?>
<!DOCTYPE svg PUBLIC "-//W3C//DTD SVG 20010904//EN"
 "http://www.w3.org/TR/2001/REC-SVG-20010904/DTD/svg10.dtd">
<svg version="1.0" xmlns="http://www.w3.org/2000/svg"
 width="101.000000pt" height="101.000000pt" viewBox="0 0 101.000000 101.000000"
 preserveAspectRatio="xMidYMid meet">
<metadata>
Created by potrace 1.16, written by Peter Selinger 2001-2019
</metadata>
<g transform="translate(0.000000,101.000000) scale(0.100000,-0.100000)"
fill="#000000" stroke="none">
<path d="M205 976 c-4 -19 -2 -43 4 -54 12 -22 14 -64 5 -97 -4 -18 -12 -20
-78 -18 -72 2 -74 2 -80 -23 -15 -59 13 -78 99 -68 l50 6 2 -91 2 -90 -72 -23
c-40 -12 -76 -25 -80 -28 -10 -8 14 -100 25 -100 5 0 19 7 31 14 12 8 38 22
57 30 l35 14 0 -114 c0 -130 -2 -134 -72 -127 l-44 4 20 -40 c12 -22 21 -47
21 -54 0 -8 9 -17 20 -20 26 -7 129 32 140 53 15 29 24 150 11 150 -6 0 -11
16 -11 35 0 19 5 35 10 35 6 0 10 26 10 59 l0 60 58 18 c57 18 57 18 58 59 3
65 -6 70 -64 40 -28 -14 -54 -26 -57 -26 -2 0 -4 30 -2 68 l2 67 56 -3 c68 -3
92 14 87 62 l-3 31 -70 0 -70 0 1 71 c1 38 6 79 12 91 15 28 9 31 -43 25 -30
-3 -45 -1 -45 7 0 26 -20 8 -25 -23z"/>
<path d="M447 899 c-22 -13 -22 -62 0 -84 14 -15 36 -16 187 -11 l171 6 1
-106 0 -106 -149 7 c-83 4 -156 8 -164 9 -11 1 -15 -13 -16 -51 l-2 -51 165 1
165 2 1 -106 1 -107 -81 -6 c-113 -8 -174 -7 -180 3 -3 5 -37 9 -75 9 -69 0
-70 0 -76 -29 -4 -16 -4 -37 0 -48 7 -23 41 -34 65 -21 10 5 64 8 121 6 57 -2
132 -4 167 -5 l62 -1 -5 -32 c-3 -17 -8 -34 -10 -38 -11 -18 17 -34 56 -33 23
1 43 4 45 6 2 2 6 78 10 169 4 116 3 168 -5 172 -14 9 -14 53 -1 61 13 8 13
142 1 150 -13 8 -13 166 1 182 5 7 8 23 4 37 -5 22 -10 23 -85 25 -44 1 -82
-3 -85 -8 -8 -12 -173 -14 -181 -1 -7 11 -86 11 -108 -1z"/>
</g>
</svg>
