<?xml version="1.0" standalone="no"?>
<!DOCTYPE svg PUBLIC "-//W3C//DTD SVG 20010904//EN"
 "http://www.w3.org/TR/2001/REC-SVG-20010904/DTD/svg10.dtd">
<svg version="1.0" xmlns="http://www.w3.org/2000/svg"
 width="101.000000pt" height="101.000000pt" viewBox="0 0 101.000000 101.000000"
 preserveAspectRatio="xMidYMid meet">
<metadata>
Created by potrace 1.16, written by Peter Selinger 2001-2019
</metadata>
<g transform="translate(0.000000,101.000000) scale(0.100000,-0.100000)"
fill="#000000" stroke="none">
<path d="M228 1003 c-10 -2 -15 -10 -11 -19 3 -8 2 -52 -2 -98 l-7 -83 -50 9
c-28 5 -61 7 -74 4 -28 -7 -39 -42 -25 -79 9 -23 16 -27 48 -27 21 0 52 4 68
8 l30 9 2 -91 2 -92 -82 -36 -82 -35 2 -43 c1 -23 4 -44 6 -47 3 -2 37 12 76
31 39 20 72 36 75 36 2 0 4 -10 5 -22 0 -13 3 -52 6 -88 6 -85 -8 -115 -55
-116 -74 -3 -73 -3 -65 -26 3 -13 8 -33 10 -45 2 -12 6 -27 10 -33 10 -16 79
-5 133 22 l47 23 2 145 c2 202 -2 187 52 206 25 10 51 23 57 31 10 11 13 9 18
-10 4 -19 12 -23 34 -22 16 1 33 5 39 8 7 4 36 4 66 1 46 -5 55 -10 57 -28 5
-48 2 -302 -4 -345 l-6 -46 56 0 55 0 -6 42 c-3 23 -1 51 4 62 8 14 7 31 -4
62 -11 30 -14 65 -10 123 3 45 6 91 6 102 1 15 8 22 23 23 11 0 51 3 89 6 37
2 79 0 94 -6 20 -7 28 -6 35 3 13 21 9 65 -8 82 -16 17 -65 22 -78 9 -4 -5
-41 -8 -81 -8 -73 0 -74 0 -79 29 -9 45 -7 91 5 103 6 6 9 33 8 60 -2 28 0 50
6 51 6 1 26 4 45 7 19 4 49 6 65 5 45 -1 75 9 75 24 0 7 -15 30 -33 51 l-33
38 -52 -17 c-29 -10 -63 -19 -75 -21 -12 -2 -35 -7 -52 -10 -16 -3 -45 -5 -64
-5 -18 0 -39 -4 -47 -11 -9 -7 -32 -9 -69 -4 -30 3 -64 4 -74 0 -19 -6 -19 -7
5 -42 13 -20 24 -40 24 -45 0 -11 135 -1 158 11 15 8 17 -2 17 -110 0 -101 -2
-118 -15 -114 -8 3 -48 6 -89 7 -53 2 -76 -1 -78 -9 -7 -19 -23 -16 -23 3 0
18 -12 16 -71 -10 l-36 -15 1 73 1 73 50 -4 51 -3 -1 44 c0 42 -2 45 -33 51
-18 3 -41 4 -50 1 -15 -5 -17 2 -16 62 1 37 5 79 9 93 5 22 3 27 -17 33 -25 6
-44 6 -70 -1z"/>
</g>
</svg>
