<?xml version="1.0" standalone="no"?>
<!DOCTYPE svg PUBLIC "-//W3C//DTD SVG 20010904//EN"
 "http://www.w3.org/TR/2001/REC-SVG-20010904/DTD/svg10.dtd">
<svg version="1.0" xmlns="http://www.w3.org/2000/svg"
 width="101.000000pt" height="101.000000pt" viewBox="0 0 101.000000 101.000000"
 preserveAspectRatio="xMidYMid meet">
<metadata>
Created by potrace 1.16, written by Peter Selinger 2001-2019
</metadata>
<g transform="translate(0.000000,101.000000) scale(0.100000,-0.100000)"
fill="#000000" stroke="none">
<path d="M195 908 l0 -100 -43 6 c-61 8 -89 -1 -97 -31 -13 -52 0 -62 73 -60
l67 2 -2 -84 -2 -85 -33 -17 c-18 -9 -52 -23 -75 -29 -24 -7 -43 -19 -43 -25
0 -11 20 -76 25 -83 2 -2 30 10 64 27 33 17 62 31 65 31 2 0 4 -10 5 -22 1
-13 3 -50 6 -83 7 -100 -23 -153 -73 -126 -10 5 -28 8 -39 5 -20 -6 -20 -6 -2
-42 10 -20 20 -45 23 -54 7 -23 33 -23 107 2 66 22 64 23 120 -27 l26 -24 63
48 c73 54 142 143 167 214 20 56 28 60 38 22 16 -67 101 -167 194 -229 l42
-27 44 43 c46 46 54 60 33 60 -30 0 -122 53 -167 95 -46 43 -101 131 -101 161
0 6 10 12 23 13 12 1 48 3 80 5 35 3 75 -1 96 -9 44 -15 59 -9 62 25 5 58 3
61 -50 56 l-48 -4 9 46 c4 26 8 60 9 77 0 16 2 58 4 92 5 68 -5 80 -51 63 -14
-6 -56 -7 -95 -4 l-69 7 5 59 c3 32 9 67 15 77 13 26 4 31 -56 31 -42 0 -54
-4 -57 -17 -9 -31 -6 -87 4 -100 6 -6 9 -22 7 -34 -2 -18 -9 -22 -39 -22 -20
0 -44 3 -53 6 -30 12 -66 -3 -72 -30 -4 -14 -10 -20 -13 -14 -4 6 -30 12 -57
13 l-51 3 5 70 c2 39 9 78 14 89 13 25 -2 34 -61 34 l-46 0 0 -100z m266 -165
c19 3 48 9 64 12 l30 6 0 -101 0 -101 -55 7 c-70 8 -100 8 -108 0 -7 -8 -6
-75 1 -82 6 -6 33 -6 72 1 78 13 80 12 77 -18 -11 -108 -125 -241 -242 -285
l-25 -10 2 142 c2 199 -2 183 53 211 47 24 48 26 48 70 0 25 -4 45 -9 45 -5 0
-23 -9 -41 -20 -18 -11 -35 -20 -38 -20 -3 0 -5 29 -5 64 l0 64 27 -5 c40 -8
76 4 83 28 6 19 8 19 19 3 9 -12 21 -15 47 -11z m314 17 c4 -6 2 -17 -4 -24
-7 -8 -12 -38 -12 -67 0 -108 -2 -114 -40 -111 -19 1 -44 3 -55 3 -19 1 -21 6
-17 33 3 17 6 64 7 103 l1 73 57 0 c31 0 60 -5 63 -10z"/>
</g>
</svg>
