<?xml version="1.0" standalone="no"?>
<!DOCTYPE svg PUBLIC "-//W3C//DTD SVG 20010904//EN"
 "http://www.w3.org/TR/2001/REC-SVG-20010904/DTD/svg10.dtd">
<svg version="1.0" xmlns="http://www.w3.org/2000/svg"
 width="101.000000pt" height="102.000000pt" viewBox="0 0 101.000000 102.000000"
 preserveAspectRatio="xMidYMid meet">
<metadata>
Created by potrace 1.16, written by Peter Selinger 2001-2019
</metadata>
<g transform="translate(0.000000,102.000000) scale(0.100000,-0.100000)"
fill="#000000" stroke="none">
<path d="M170 1004 c0 -7 5 -14 11 -14 9 0 10 -23 6 -81 -4 -44 -9 -84 -12
-90 -9 -14 -55 -11 -71 6 -10 10 -21 12 -37 6 -18 -7 -22 -16 -21 -50 0 -23 4
-44 8 -48 9 -10 87 -9 106 0 13 6 15 -6 14 -85 l-2 -92 -51 -17 c-28 -10 -51
-16 -51 -13 0 3 -9 0 -20 -6 -10 -6 -17 -16 -15 -23 2 -6 7 -25 9 -41 9 -48
21 -52 75 -23 59 33 59 33 60 5 1 -13 3 -45 6 -73 2 -27 -1 -69 -7 -92 -11
-45 -30 -56 -79 -46 -16 3 -29 2 -29 -2 0 -25 37 -104 50 -108 25 -6 117 39
131 65 8 13 15 64 17 118 6 214 3 200 48 222 47 24 64 44 64 75 0 13 5 23 10
23 6 0 10 -11 10 -25 0 -14 -5 -25 -11 -25 -9 0 -10 -36 -7 -129 5 -107 3
-132 -10 -144 -13 -14 -11 -20 17 -56 l32 -40 96 94 96 94 -13 46 c-7 25 -15
45 -17 45 -2 0 -26 -24 -54 -52 l-49 -53 7 83 c4 58 3 82 -6 82 -6 0 -11 11
-11 25 0 14 5 25 10 25 6 0 10 30 10 70 0 40 -4 70 -10 70 -5 0 -10 11 -10 25
0 14 5 25 10 25 6 0 10 20 10 44 0 51 10 58 89 60 l46 1 -3 -104 c-1 -58 2
-109 8 -116 11 -14 12 -153 0 -160 -12 -7 -12 -153 0 -160 12 -8 13 -52 1 -59
-5 -4 -9 -48 -8 -100 1 -104 3 -107 66 -98 31 4 32 6 26 42 -4 22 -2 47 4 59
7 13 8 28 2 44 -15 40 -26 264 -13 280 13 15 14 115 1 123 -12 7 -11 51 2 59
6 4 9 37 7 83 l-3 77 55 2 55 1 -4 -50 c-2 -28 2 -55 8 -61 13 -13 15 -54 2
-61 -12 -8 -13 -114 -1 -121 15 -9 12 -146 -3 -175 -11 -22 -19 -25 -56 -22
l-42 3 14 -28 c8 -15 17 -40 20 -54 4 -15 16 -29 28 -32 22 -6 102 24 113 42
13 20 19 308 7 315 -14 9 -14 53 -1 61 6 4 10 61 9 141 -1 133 -2 136 -23 129
-47 -13 -126 -17 -139 -7 -7 6 -43 10 -80 9 -60 -2 -67 0 -78 20 -15 28 -15
28 -81 -2 -30 -14 -68 -27 -85 -29 -17 -1 -35 -6 -42 -10 -14 -9 -15 -96 -1
-96 6 0 10 -16 10 -35 0 -19 -4 -35 -10 -35 -6 0 -10 -29 -10 -66 0 -39 -4
-63 -10 -59 -5 3 -31 -5 -58 -19 l-49 -25 1 72 1 72 41 -3 c53 -5 79 18 70 62
-7 34 -24 48 -44 37 -25 -14 -62 0 -63 23 -1 11 0 26 2 31 1 6 3 26 5 45 1 19
5 42 8 51 9 20 -13 31 -71 35 -32 2 -43 -1 -43 -12z"/>
</g>
</svg>
