<?xml version="1.0" standalone="no"?>
<!DOCTYPE svg PUBLIC "-//W3C//DTD SVG 20010904//EN"
 "http://www.w3.org/TR/2001/REC-SVG-20010904/DTD/svg10.dtd">
<svg version="1.0" xmlns="http://www.w3.org/2000/svg"
 width="101.000000pt" height="101.000000pt" viewBox="0 0 101.000000 101.000000"
 preserveAspectRatio="xMidYMid meet">
<metadata>
Created by potrace 1.16, written by Peter Selinger 2001-2019
</metadata>
<g transform="translate(0.000000,101.000000) scale(0.100000,-0.100000)"
fill="#000000" stroke="none">
<path d="M187 993 c-3 -3 -3 -11 0 -19 3 -8 2 -53 -2 -100 l-7 -85 -68 6 c-67
5 -68 5 -74 -21 -4 -14 -4 -35 -1 -45 6 -18 14 -20 71 -15 l64 4 2 -74 c1 -41
2 -84 2 -95 1 -22 -38 -42 -103 -54 -38 -7 -45 -19 -31 -59 15 -46 23 -50 60
-31 16 8 40 19 52 24 l23 9 0 -111 0 -111 -54 3 c-41 2 -52 0 -48 -11 4 -7 12
-32 18 -55 15 -50 31 -56 99 -36 74 21 78 32 78 207 l-1 149 54 23 c30 13 59
23 64 24 6 0 9 -21 7 -50 -2 -28 1 -56 7 -64 11 -14 13 -144 2 -161 -3 -5 -6
-35 -6 -66 l0 -57 35 5 c32 5 137 6 285 3 33 -1 77 2 98 5 21 4 58 2 84 -4 37
-10 48 -9 54 1 11 16 11 69 1 83 -13 18 -137 19 -164 1 -26 -17 -164 -21 -183
-6 -5 5 -32 7 -60 7 l-50 -2 0 43 c0 23 2 42 5 42 3 0 19 -9 35 -20 17 -11 35
-20 42 -20 7 0 40 43 75 95 72 109 62 109 129 -12 l40 -72 37 16 c20 8 41 19
46 23 5 5 -22 52 -60 106 -38 54 -72 103 -76 110 -9 14 71 193 96 213 30 25
15 39 -60 55 l-31 7 -32 -91 c-18 -49 -36 -90 -39 -89 -4 0 -31 34 -60 74
l-53 75 -40 -20 c-39 -20 -48 -33 -29 -45 5 -3 39 -44 76 -90 l66 -85 -37 -60
c-20 -33 -59 -84 -86 -113 l-49 -52 6 127 c3 75 1 129 -5 132 -13 8 -13 147 0
162 6 8 9 35 7 61 l-3 48 100 -3 c62 -1 108 2 122 9 16 9 46 9 115 1 105 -11
112 -8 104 47 -6 39 -22 54 -51 45 -56 -17 -362 -16 -436 2 -36 8 -61 -19 -59
-65 3 -62 1 -71 -15 -65 -8 4 -23 3 -32 -1 -10 -4 -33 -8 -50 -9 l-33 -1 6 55
c2 30 7 74 9 98 3 23 1 42 -3 43 -40 6 -81 7 -85 2z m203 -295 c32 -34 23 -81
-15 -83 -5 0 -32 -12 -60 -27 l-50 -26 0 74 0 73 30 4 c64 8 75 6 95 -15z"/>
</g>
</svg>
