<?xml version="1.0" standalone="no"?>
<!DOCTYPE svg PUBLIC "-//W3C//DTD SVG 20010904//EN"
 "http://www.w3.org/TR/2001/REC-SVG-20010904/DTD/svg10.dtd">
<svg version="1.0" xmlns="http://www.w3.org/2000/svg"
 width="101.000000pt" height="101.000000pt" viewBox="0 0 101.000000 101.000000"
 preserveAspectRatio="xMidYMid meet">
<metadata>
Created by potrace 1.16, written by Peter Selinger 2001-2019
</metadata>
<g transform="translate(0.000000,101.000000) scale(0.100000,-0.100000)"
fill="#000000" stroke="none">
<path d="M219 1001 c-13 -5 -16 -22 -14 -103 1 -54 -1 -96 -4 -94 -3 2 -35 6
-70 7 l-63 4 -2 -47 c-2 -47 5 -55 39 -48 6 1 30 3 55 3 l45 2 0 -84 c0 -91 0
-92 -71 -104 -85 -15 -92 -19 -89 -41 6 -45 18 -86 24 -86 3 0 33 14 66 30 72
36 73 36 74 8 0 -13 3 -54 6 -91 6 -89 -13 -143 -47 -132 -27 9 -67 9 -75 1
-3 -3 -1 -11 5 -18 5 -7 14 -28 19 -47 11 -43 39 -47 114 -18 l54 22 1 135 c3
202 -1 190 69 213 33 11 62 21 63 23 9 7 12 94 5 94 -5 0 -38 -11 -72 -25
l-63 -24 6 22 c3 12 6 45 6 72 l0 50 42 -2 c24 -1 50 -4 59 -8 25 -10 51 22
47 59 l-3 31 -75 0 -75 0 2 60 c2 33 5 75 8 93 6 30 0 38 -28 33 -4 -1 -16 3
-25 8 -9 4 -24 6 -33 2z"/>
<path d="M798 959 c-7 -4 -16 -5 -21 -2 -4 2 -16 1 -25 -3 -38 -16 -111 -26
-184 -24 -67 1 -103 -13 -92 -38 3 -9 6 -52 5 -96 -1 -45 3 -84 10 -92 8 -10
8 -31 -1 -81 -6 -37 -13 -88 -15 -113 -1 -25 -6 -56 -9 -70 -3 -14 -9 -38 -12
-55 -13 -60 -54 -136 -100 -185 -40 -43 -44 -50 -28 -55 11 -3 36 -14 56 -25
l38 -18 19 26 c61 88 121 265 127 377 2 39 4 80 5 93 1 16 6 22 16 18 8 -3 24
-1 35 5 11 6 35 8 53 5 25 -5 33 -12 34 -29 5 -75 0 -299 -10 -465 0 -13 2
-26 5 -30 8 -7 96 -5 104 2 2 3 -2 28 -9 56 -10 38 -10 58 -2 83 7 17 9 55 6
82 -4 45 -6 219 -2 271 1 23 9 25 96 25 57 0 71 16 59 64 -8 32 -35 39 -73 18
-28 -15 -38 -16 -64 -6 -23 9 -37 9 -51 2 -12 -6 -36 -8 -57 -4 -20 4 -59 8
-86 9 l-51 1 1 70 0 70 65 3 c36 1 83 5 105 7 22 2 70 5 107 7 38 2 68 7 68
12 0 5 -11 29 -25 53 -22 37 -30 43 -56 41 -16 -1 -35 -6 -41 -9z"/>
</g>
</svg>
