<?xml version="1.0" standalone="no"?>
<!DOCTYPE svg PUBLIC "-//W3C//DTD SVG 20010904//EN"
 "http://www.w3.org/TR/2001/REC-SVG-20010904/DTD/svg10.dtd">
<svg version="1.0" xmlns="http://www.w3.org/2000/svg"
 width="101.000000pt" height="101.000000pt" viewBox="0 0 101.000000 101.000000"
 preserveAspectRatio="xMidYMid meet">
<metadata>
Created by potrace 1.16, written by Peter Selinger 2001-2019
</metadata>
<g transform="translate(0.000000,101.000000) scale(0.100000,-0.100000)"
fill="#000000" stroke="none">
<path d="M174 910 l3 -101 -58 5 -58 5 -7 -34 c-9 -49 9 -75 52 -75 19 0 43 4
52 9 15 8 17 0 17 -82 l0 -91 -63 -20 -62 -20 3 -48 c3 -27 7 -52 11 -56 4 -4
30 5 57 21 27 15 51 27 53 27 2 0 4 -10 5 -22 0 -13 3 -52 5 -87 3 -42 0 -75
-9 -97 -15 -36 -25 -40 -54 -25 -10 6 -27 7 -39 4 -20 -5 -21 -7 -7 -34 9 -16
15 -32 14 -36 -6 -37 24 -46 86 -28 84 26 80 17 82 177 2 199 -3 183 57 208
28 13 54 28 58 34 11 16 10 74 -2 81 -5 3 -31 -5 -58 -19 l-49 -25 1 73 1 74
32 -5 c18 -3 42 -3 55 0 20 5 24 12 23 51 0 42 -2 45 -25 44 -14 -1 -42 -1
-62 0 -36 2 -38 4 -38 36 0 19 5 38 10 41 6 4 10 18 9 33 0 15 3 37 6 50 7 21
5 22 -19 16 -16 -4 -26 -2 -26 5 0 6 -13 11 -30 11 l-29 0 3 -100z"/>
<path d="M809 975 c-7 -6 -67 -16 -98 -16 -12 1 -28 -2 -34 -6 -15 -9 -61 -13
-145 -12 -40 0 -85 -2 -101 -6 l-28 -6 3 -172 c8 -356 3 -517 -17 -553 -10
-20 -9 -30 6 -64 10 -22 22 -39 26 -38 14 5 199 189 199 197 0 5 -7 25 -16 46
l-15 38 -44 -43 -43 -43 -7 44 c-3 24 -3 78 0 119 3 41 6 84 6 95 1 18 8 20
73 20 69 0 71 -1 73 -25 0 -14 4 -41 8 -60 3 -19 8 -44 10 -55 15 -91 98 -253
150 -294 46 -36 75 -38 101 -8 31 36 64 139 46 145 -7 2 -26 15 -43 29 -16 14
-32 23 -35 20 -5 -4 -12 -44 -13 -76 -1 -11 -6 -9 -22 5 -43 39 -89 140 -104
229 -16 98 -20 90 41 88 29 -1 56 3 59 8 8 13 49 11 62 -2 15 -15 27 23 19 57
-6 21 -12 24 -44 22 -20 -1 -65 -1 -100 0 l-63 2 7 35 c4 23 2 35 -5 35 -6 0
-11 11 -11 25 0 14 5 25 10 25 6 0 10 17 10 39 l0 38 71 6 c39 3 74 9 77 12 4
3 -5 27 -18 53 -24 44 -40 59 -51 47z m-183 -184 c1 -36 4 -82 6 -102 l4 -35
-68 0 -68 1 3 97 2 96 25 -5 c14 -2 36 0 49 5 43 15 46 11 47 -57z"/>
<path d="M613 263 c-28 -5 -28 -5 -3 -71 11 -29 18 -57 16 -61 -3 -4 -2 -12 2
-18 9 -14 92 6 91 22 0 5 -10 37 -22 70 -23 62 -32 69 -84 58z"/>
</g>
</svg>
