<?xml version="1.0" standalone="no"?>
<!DOCTYPE svg PUBLIC "-//W3C//DTD SVG 20010904//EN"
 "http://www.w3.org/TR/2001/REC-SVG-20010904/DTD/svg10.dtd">
<svg version="1.0" xmlns="http://www.w3.org/2000/svg"
 width="101.000000pt" height="101.000000pt" viewBox="0 0 101.000000 101.000000"
 preserveAspectRatio="xMidYMid meet">
<metadata>
Created by potrace 1.16, written by Peter Selinger 2001-2019
</metadata>
<g transform="translate(0.000000,101.000000) scale(0.100000,-0.100000)"
fill="#000000" stroke="none">
<path d="M208 1003 c-23 -6 -31 -53 -23 -137 l6 -71 -33 1 c-18 0 -43 4 -55 8
-50 17 -82 -40 -53 -95 12 -21 69 -26 112 -10 23 8 23 8 23 -82 l0 -90 -40
-14 c-22 -7 -53 -16 -69 -19 -17 -3 -32 -6 -34 -8 -1 -2 7 -28 18 -59 l21 -56
46 30 c56 35 61 35 62 7 0 -13 3 -51 5 -86 7 -87 -5 -114 -47 -111 -69 4 -70
4 -47 -41 11 -21 20 -46 20 -55 0 -21 64 -14 117 12 l38 18 2 140 c2 201 -3
183 60 211 l55 25 -6 46 c-3 25 -7 48 -10 50 -2 3 -24 -7 -48 -21 l-45 -26 1
68 1 68 52 -3 c51 -2 53 -2 62 30 5 18 10 27 10 20 1 -8 29 -10 96 -9 l95 3 0
-28 c0 -16 5 -29 10 -29 7 0 10 -22 8 -57 l-3 -58 -91 3 -92 4 -7 -31 c-11
-53 6 -80 49 -72 5 1 37 3 71 5 72 4 65 19 68 -136 1 -53 -2 -100 -6 -105 -12
-11 -166 -14 -187 -3 -23 12 -57 2 -63 -19 -2 -9 -2 -31 1 -49 4 -30 5 -31 46
-26 22 4 84 6 136 6 186 -1 221 -1 273 1 28 1 68 -1 88 -5 37 -6 37 -6 41 30
7 56 0 74 -26 65 -18 -7 -108 -8 -193 -2 -28 2 -36 37 -28 134 3 39 6 80 6 93
1 16 6 22 15 18 8 -3 25 -1 37 5 17 8 41 7 82 0 68 -13 77 -7 73 48 l-3 34
-100 1 c-79 1 -101 4 -107 16 -4 8 -7 47 -7 86 l-1 71 64 -4 c39 -3 67 0 71 6
8 14 51 14 77 0 16 -9 23 -8 29 2 23 36 -5 110 -34 92 -15 -10 -227 -11 -227
-1 0 3 14 9 30 13 36 8 37 19 6 90 -27 59 -37 64 -95 44 -24 -9 -30 -15 -25
-28 27 -64 44 -114 41 -118 -5 -4 -134 -5 -181 -1 -25 3 -31 -2 -42 -32 -7
-19 -13 -30 -13 -23 -1 8 -20 11 -58 10 l-58 -2 -3 33 c-2 18 1 39 7 46 6 7
10 24 10 37 -1 13 2 36 6 52 4 15 3 27 -1 28 -12 1 -36 6 -54 12 -8 2 -23 3
-32 0z"/>
</g>
</svg>
