<?xml version="1.0" standalone="no"?>
<!DOCTYPE svg PUBLIC "-//W3C//DTD SVG 20010904//EN"
 "http://www.w3.org/TR/2001/REC-SVG-20010904/DTD/svg10.dtd">
<svg version="1.0" xmlns="http://www.w3.org/2000/svg"
 width="101.000000pt" height="101.000000pt" viewBox="0 0 101.000000 101.000000"
 preserveAspectRatio="xMidYMid meet">
<metadata>
Created by potrace 1.16, written by Peter Selinger 2001-2019
</metadata>
<g transform="translate(0.000000,101.000000) scale(0.100000,-0.100000)"
fill="#000000" stroke="none">
<path d="M155 908 c0 -99 -1 -103 -22 -106 -13 -2 -23 1 -23 6 0 16 -28 22
-55 12 -19 -7 -25 -17 -25 -39 0 -46 25 -64 79 -58 l46 5 0 -86 0 -87 -60 -20
c-33 -11 -62 -21 -64 -22 -2 -2 1 -28 8 -58 12 -53 23 -66 36 -45 4 6 24 19
45 30 l38 19 1 -22 c0 -12 3 -56 6 -97 6 -100 -6 -125 -63 -126 -23 0 -45 -3
-48 -6 -3 -4 2 -20 10 -37 9 -17 16 -34 15 -38 -4 -27 3 -33 34 -29 39 6 98
25 112 38 6 5 11 75 12 161 2 208 -2 193 49 214 35 15 43 22 38 38 -3 12 -2
15 3 9 4 -6 22 -10 40 -9 31 2 31 2 29 -45 -2 -26 -6 -52 -9 -58 -4 -6 -2 -22
4 -36 9 -19 9 -29 0 -40 -7 -8 -14 -40 -16 -70 -5 -58 0 -65 45 -56 8 1 42 4
75 6 33 2 92 6 130 9 120 9 161 -8 119 -50 -11 -11 -25 -14 -38 -10 -23 7 -56
8 -62 2 -9 -8 42 -106 56 -109 8 -2 37 4 65 14 27 10 51 18 53 18 9 0 40 93
36 105 -4 10 0 15 12 13 54 -4 72 2 77 28 9 50 -1 62 -48 59 l-42 -3 -7 55
c-3 30 -3 59 1 66 6 10 13 53 14 89 0 14 9 16 49 13 47 -4 48 -3 53 28 8 57 0
66 -51 62 l-47 -3 3 106 c2 59 4 129 5 157 l2 50 -45 7 c-67 10 -168 9 -175
-1 -8 -13 -166 -13 -182 1 -7 5 -24 7 -37 4 -23 -6 -24 -10 -23 -74 0 -38 -3
-74 -7 -81 -5 -7 -5 -49 -1 -93 l7 -81 -30 6 c-23 5 -45 -1 -86 -23 l-55 -30
2 70 2 70 35 1 c19 1 47 0 62 -1 30 -2 43 23 32 64 -7 28 -35 42 -59 28 -9 -4
-28 -7 -43 -4 -26 3 -28 6 -25 50 3 55 9 91 18 113 6 17 -28 29 -84 29 l-27 0
1 -102z m616 -73 c-3 -22 -4 -75 -3 -117 l2 -77 -43 -6 c-23 -3 -76 -3 -117 0
-41 3 -85 6 -98 6 -19 1 -23 5 -18 23 3 12 8 64 12 116 l7 95 131 0 131 1 -4
-41z m-39 -271 l36 -5 -4 -52 c-3 -29 -4 -61 -4 -72 4 -77 3 -95 -4 -102 -4
-4 -60 -7 -124 -6 -175 2 -158 -6 -155 77 1 39 4 85 6 101 3 17 5 36 6 43 0 8
8 11 19 8 9 -3 23 -2 31 3 16 10 140 13 193 5z"/>
<path d="M617 838 c-9 -5 -17 -6 -17 -3 0 3 -9 1 -19 -5 -20 -10 -20 -18 -2
-79 6 -18 10 -36 9 -40 -1 -3 1 -16 5 -28 8 -22 22 -24 80 -8 19 5 26 12 23
24 -3 9 -12 44 -21 78 -18 65 -30 77 -58 61z"/>
<path d="M588 518 c-32 -11 -33 -12 -13 -67 8 -23 12 -47 10 -54 -3 -6 -1 -18
4 -26 8 -12 16 -12 55 -1 25 7 46 15 46 19 0 11 -21 86 -32 114 -11 29 -26 32
-70 15z"/>
</g>
</svg>
