<?xml version="1.0" standalone="no"?>
<!DOCTYPE svg PUBLIC "-//W3C//DTD SVG 20010904//EN"
 "http://www.w3.org/TR/2001/REC-SVG-20010904/DTD/svg10.dtd">
<svg version="1.0" xmlns="http://www.w3.org/2000/svg"
 width="101.000000pt" height="101.000000pt" viewBox="0 0 101.000000 101.000000"
 preserveAspectRatio="xMidYMid meet">
<metadata>
Created by potrace 1.16, written by Peter Selinger 2001-2019
</metadata>
<g transform="translate(0.000000,101.000000) scale(0.100000,-0.100000)"
fill="#000000" stroke="none">
<path d="M198 1003 c-15 -4 -17 -17 -14 -100 l2 -95 -47 6 c-85 11 -121 -23
-89 -85 12 -21 69 -26 112 -10 23 8 23 8 25 -79 l2 -87 -75 -23 c-68 -20 -75
-24 -70 -44 4 -11 9 -33 12 -48 8 -34 10 -34 78 -4 l54 24 1 -22 c0 -11 3 -52
6 -91 6 -90 -7 -120 -55 -121 -74 -3 -71 0 -54 -39 8 -19 14 -38 13 -42 -6
-36 16 -38 98 -13 73 22 78 33 80 189 2 192 -3 176 58 195 50 16 54 19 53 49
0 67 -4 70 -57 42 l-48 -24 1 72 1 72 55 -2 56 -2 -1 44 c0 49 1 48 -92 49
-20 0 -21 3 -16 92 6 89 5 91 -18 97 -26 7 -44 7 -71 0z"/>
<path d="M858 985 c-2 -3 -20 -7 -39 -10 -19 -3 -45 -7 -59 -10 -41 -8 -109
-14 -212 -17 -53 -2 -100 -6 -104 -10 -8 -9 -8 -23 -1 -192 3 -71 1 -139 -4
-152 -5 -16 -4 -33 3 -50 9 -19 9 -33 -2 -62 -7 -20 -15 -51 -17 -69 -8 -73
-57 -167 -117 -222 l-26 -24 53 -27 c62 -32 69 -29 115 58 44 82 74 194 78
292 2 47 4 95 5 108 1 20 6 22 54 22 29 0 60 2 68 6 11 4 16 -9 21 -57 3 -34
5 -64 3 -65 -2 -2 -20 8 -40 21 -20 14 -40 25 -44 25 -14 0 -59 -73 -47 -77 5
-2 37 -20 71 -39 42 -25 61 -43 62 -58 6 -78 5 -225 -1 -247 -9 -31 7 -39 60
-31 26 3 31 8 27 23 -3 10 -1 27 5 39 8 16 7 28 -6 56 -14 30 -15 42 -6 66 6
16 8 36 5 44 -9 24 7 16 59 -31 28 -25 54 -45 58 -45 5 0 22 18 40 40 l31 39
-38 24 c-21 14 -64 41 -95 61 l-57 35 2 88 2 88 88 0 c67 0 90 4 97 15 12 18
3 62 -13 72 -7 4 -100 6 -208 5 l-196 -2 1 70 1 71 35 0 c39 0 222 12 260 16
14 2 31 -1 37 -5 15 -11 63 -1 63 14 0 5 -11 32 -25 59 -24 47 -35 57 -47 45z"/>
</g>
</svg>
