<?xml version="1.0" standalone="no"?>
<!DOCTYPE svg PUBLIC "-//W3C//DTD SVG 20010904//EN"
 "http://www.w3.org/TR/2001/REC-SVG-20010904/DTD/svg10.dtd">
<svg version="1.0" xmlns="http://www.w3.org/2000/svg"
 width="101.000000pt" height="101.000000pt" viewBox="0 0 101.000000 101.000000"
 preserveAspectRatio="xMidYMid meet">
<metadata>
Created by potrace 1.16, written by Peter Selinger 2001-2019
</metadata>
<g transform="translate(0.000000,101.000000) scale(0.100000,-0.100000)"
fill="#000000" stroke="none">
<path d="M199 1001 c11 -7 12 -28 6 -105 l-7 -96 -73 7 c-74 6 -74 6 -81 -21
-13 -53 16 -98 52 -78 7 4 32 6 54 4 34 -4 40 -7 40 -28 0 -13 5 -24 10 -24 6
0 10 -26 10 -59 0 -63 -11 -81 -52 -83 -13 -1 -28 -5 -33 -9 -6 -4 -23 -10
-38 -13 -42 -7 -47 -14 -36 -44 6 -15 15 -37 20 -50 l9 -22 57 29 58 29 -2
-51 c0 -28 3 -57 9 -66 6 -10 6 -35 1 -66 l-8 -50 -43 -1 c-23 0 -44 -3 -47
-5 -9 -10 31 -98 47 -102 21 -6 98 19 118 39 10 10 14 34 11 90 -2 55 1 80 11
86 10 8 10 11 1 15 -15 6 -18 73 -3 73 6 0 10 18 10 40 0 38 1 40 51 57 59 21
75 45 60 86 l-11 27 -37 -16 c-72 -32 -78 -28 -81 52 l-3 72 65 -4 c61 -3 64
-2 70 22 11 44 -1 61 -48 68 -23 4 -49 4 -57 1 -11 -4 -14 10 -12 79 0 47 4
90 8 97 12 18 -15 29 -70 29 -32 0 -45 -3 -36 -9z"/>
<path d="M454 924 c-3 -13 -3 -28 2 -35 4 -7 6 -65 5 -130 -1 -71 3 -120 9
-124 13 -8 13 -52 0 -60 -12 -7 -12 -213 0 -220 14 -9 12 -72 -4 -135 -8 -29
-12 -59 -9 -66 6 -17 43 -25 63 -14 9 5 44 7 78 5 35 -1 75 2 90 7 21 8 41 7
82 -5 38 -11 59 -13 72 -6 11 6 37 8 58 4 36 -6 38 -5 42 26 10 64 8 65 -105
57 -56 -4 -133 -5 -172 -3 -38 3 -80 6 -91 6 -18 1 -23 9 -28 50 -4 28 -2 57
4 68 5 11 7 26 4 34 -6 16 6 18 108 17 31 0 68 -4 83 -10 18 -7 33 -7 46 1 11
6 37 8 57 4 l37 -6 2 166 2 166 -30 -6 c-17 -4 -93 -4 -169 0 l-140 8 3 66 2
66 157 3 c96 2 165 -1 177 -8 29 -15 53 13 49 58 l-3 36 -103 4 c-58 2 -109
-1 -115 -7 -16 -12 -174 -13 -182 -1 -3 5 -21 9 -41 8 -27 -1 -36 -6 -40 -24z
m332 -368 l1 -75 -49 -6 c-31 -5 -60 -2 -79 5 -16 7 -46 10 -67 7 l-38 -5 0
69 1 68 95 4 c52 1 104 4 115 5 18 2 20 -4 21 -72z"/>
</g>
</svg>
