<?xml version="1.0" standalone="no"?>
<!DOCTYPE svg PUBLIC "-//W3C//DTD SVG 20010904//EN"
 "http://www.w3.org/TR/2001/REC-SVG-20010904/DTD/svg10.dtd">
<svg version="1.0" xmlns="http://www.w3.org/2000/svg"
 width="101.000000pt" height="101.000000pt" viewBox="0 0 101.000000 101.000000"
 preserveAspectRatio="xMidYMid meet">
<metadata>
Created by potrace 1.16, written by Peter Selinger 2001-2019
</metadata>
<g transform="translate(0.000000,101.000000) scale(0.100000,-0.100000)"
fill="#000000" stroke="none">
<path d="M768 1003 c-19 -5 -33 -53 -23 -84 4 -11 7 -51 8 -87 l1 -67 -72 -3
c-45 -2 -72 1 -72 8 0 15 -70 13 -71 -2 0 -7 -4 -4 -8 7 -10 24 10 85 44 137
14 21 25 40 25 43 0 7 -81 44 -96 45 -11 0 -22 -23 -30 -60 -12 -60 -18 -79
-39 -130 -26 -63 -57 -119 -91 -165 l-21 -30 33 -33 33 -32 18 32 18 33 3 -32
c2 -18 7 -33 13 -33 14 0 11 -67 -3 -74 -10 -5 -10 -7 0 -12 15 -7 15 -104 1
-219 -12 -95 -13 -124 -5 -133 11 -11 89 -4 97 9 4 7 4 22 -1 33 -13 36 -23
343 -11 350 12 8 13 114 0 122 -13 8 -11 38 6 70 10 19 15 23 15 12 0 -23 53
-32 141 -25 l69 6 0 -60 c0 -33 4 -59 10 -59 6 0 10 -16 10 -35 0 -19 -4 -35
-10 -35 -5 0 -10 -18 -10 -40 0 -22 5 -40 10 -40 15 0 12 -67 -2 -73 -10 -4
-9 -8 2 -16 12 -8 13 -17 2 -58 -16 -61 -34 -75 -85 -66 l-39 6 15 -29 c8 -16
17 -42 21 -57 6 -26 10 -27 46 -23 22 2 57 13 77 23 l38 18 -3 124 c-2 84 1
128 9 138 9 10 9 17 1 25 -15 15 -16 75 -2 83 6 4 9 40 8 89 l-3 83 46 -5 c54
-5 82 15 77 57 -3 25 -5 26 -63 23 l-60 -4 1 89 c1 48 5 100 9 116 4 15 3 27
-1 28 -12 1 -36 6 -54 12 -8 2 -23 3 -32 0z"/>
<path d="M169 975 c-1 -5 0 -14 1 -20 1 -5 3 -43 4 -82 l1 -73 -67 7 c-67 6
-68 6 -78 -22 -22 -57 15 -82 107 -74 l38 4 2 -92 3 -92 -85 -28 c-47 -15 -85
-31 -85 -36 0 -16 41 -77 51 -77 5 0 32 11 59 25 60 30 58 30 59 3 9 -118 5
-178 -11 -194 -14 -14 -22 -15 -42 -6 -13 6 -33 8 -45 5 l-20 -5 19 -39 c11
-21 20 -45 20 -53 0 -29 135 2 156 35 4 8 9 72 10 144 4 180 2 172 36 186 49
20 58 35 46 70 -8 22 -15 28 -27 24 -46 -19 -48 -17 -47 56 l1 69 35 0 c19 0
40 4 46 8 16 10 26 49 19 72 -5 16 -14 19 -55 16 l-49 -3 2 91 2 90 -52 0
c-29 1 -54 -3 -54 -9z"/>
<path d="M598 619 c-24 -9 -26 -13 -17 -37 13 -33 23 -92 28 -156 1 -16 6 -18
43 -12 49 8 60 20 47 53 -5 12 -7 23 -5 23 9 0 -34 124 -46 131 -15 10 -15 10
-50 -2z"/>
</g>
</svg>
