<?xml version="1.0" standalone="no"?>
<!DOCTYPE svg PUBLIC "-//W3C//DTD SVG 20010904//EN"
 "http://www.w3.org/TR/2001/REC-SVG-20010904/DTD/svg10.dtd">
<svg version="1.0" xmlns="http://www.w3.org/2000/svg"
 width="101.000000pt" height="101.000000pt" viewBox="0 0 101.000000 101.000000"
 preserveAspectRatio="xMidYMid meet">
<metadata>
Created by potrace 1.16, written by Peter Selinger 2001-2019
</metadata>
<g transform="translate(0.000000,101.000000) scale(0.100000,-0.100000)"
fill="#000000" stroke="none">
<path d="M379 853 c-17 -4 -29 -31 -29 -65 0 -25 28 -48 58 -48 38 0 49 10 57
51 10 55 -23 79 -86 62z"/>
<path d="M525 831 c-3 -7 -3 -29 1 -47 5 -26 12 -34 35 -39 57 -13 86 16 77
76 -3 21 -8 23 -55 24 -36 0 -54 -4 -58 -14z"/>
<path d="M300 733 c-8 -3 -18 -11 -22 -17 -11 -16 -10 -104 2 -111 12 -7 12
-153 0 -160 -4 -3 -8 -29 -9 -59 0 -61 28 -148 60 -182 24 -26 98 -54 141 -54
29 0 122 42 133 60 12 20 26 10 23 -17 -2 -23 1 -29 21 -31 12 -2 33 -1 46 2
23 6 23 8 18 101 -4 61 -2 99 5 108 13 15 14 115 1 123 -12 7 -11 51 1 59 6 3
10 40 9 81 -1 83 -13 104 -57 104 -56 0 -57 -3 -57 -213 0 -167 -2 -196 -17
-220 -40 -60 -141 -78 -186 -33 -31 30 -35 59 -33 194 2 75 -1 112 -8 112 -6
0 -11 11 -11 25 0 14 5 25 10 25 6 0 10 20 10 45 0 56 -30 77 -80 58z"/>
</g>
</svg>
