<?xml version="1.0" standalone="no"?>
<!DOCTYPE svg PUBLIC "-//W3C//DTD SVG 20010904//EN"
 "http://www.w3.org/TR/2001/REC-SVG-20010904/DTD/svg10.dtd">
<svg version="1.0" xmlns="http://www.w3.org/2000/svg"
 width="101.000000pt" height="101.000000pt" viewBox="0 0 101.000000 101.000000"
 preserveAspectRatio="xMidYMid meet">
<metadata>
Created by potrace 1.16, written by Peter Selinger 2001-2019
</metadata>
<g transform="translate(0.000000,101.000000) scale(0.100000,-0.100000)"
fill="#000000" stroke="none">
<path d="M187 990 c3 -11 2 -53 -1 -93 l-7 -72 -59 3 c-57 4 -59 3 -66 -23 -4
-15 -1 -38 5 -52 10 -23 16 -25 64 -21 l52 3 0 -84 c0 -98 -1 -99 -122 -110
-13 -1 -12 -32 2 -83 8 -33 7 -32 45 -13 65 34 78 36 79 12 0 -12 3 -58 6
-102 7 -112 -4 -130 -74 -129 -39 1 -51 -2 -47 -11 2 -7 10 -31 17 -53 14 -48
32 -55 94 -37 82 25 80 21 86 133 1 29 10 28 50 -5 l32 -27 43 49 c24 28 63
78 85 113 l42 62 37 -77 c28 -56 35 -80 27 -86 -31 -23 -162 -78 -207 -89 -28
-6 -49 -14 -48 -18 2 -3 22 -23 45 -44 l42 -37 82 42 c46 22 100 52 121 65
l39 25 42 -29 c52 -36 162 -92 179 -92 15 1 104 100 91 101 -4 0 -17 2 -28 4
-11 2 -34 6 -50 9 -37 6 -111 34 -142 54 l-23 14 21 29 c21 30 106 206 132
275 l15 40 -126 1 c-179 2 -170 0 -165 37 7 64 0 61 160 61 82 0 153 -2 158
-4 24 -8 31 2 30 44 0 41 -2 45 -20 41 -12 -3 -34 -2 -50 3 -30 7 -30 8 -7 20
32 17 28 31 -27 85 -52 51 -64 53 -111 16 l-25 -19 48 -48 c26 -27 47 -52 47
-55 0 -3 -41 -5 -90 -5 -76 2 -89 4 -83 17 3 8 7 29 9 45 4 43 11 71 23 93 9
17 6 21 -17 30 -15 5 -42 10 -59 11 -33 1 -40 -8 -42 -64 -1 -16 -7 -87 -10
-125 -1 -3 -27 -4 -58 -3 -35 1 -61 -3 -65 -10 -6 -9 -10 -9 -17 1 -5 8 -31
14 -67 15 l-59 2 2 40 c1 22 6 60 12 85 5 25 8 47 5 49 -2 2 -26 6 -53 8 -45
3 -49 2 -44 -17z m281 -266 c26 -1 48 -3 49 -3 7 -4 -43 -154 -68 -204 -48
-94 -168 -231 -187 -213 -4 4 -6 37 -5 74 3 126 2 123 63 146 l55 21 1 48 c1
26 0 47 -1 47 -1 0 -27 -11 -56 -24 l-54 -23 0 71 0 72 51 -4 c38 -3 55 0 65
11 13 14 15 14 27 -1 8 -11 29 -17 60 -18z m288 -167 c7 -7 -58 -146 -83 -177
l-21 -24 -25 49 c-13 28 -28 65 -32 83 -6 29 -10 33 -31 28 -27 -7 -29 -3 -13
25 6 12 17 18 27 15 9 -3 24 -1 32 4 15 10 136 8 146 -3z"/>
</g>
</svg>
