<?xml version="1.0" standalone="no"?>
<!DOCTYPE svg PUBLIC "-//W3C//DTD SVG 20010904//EN"
 "http://www.w3.org/TR/2001/REC-SVG-20010904/DTD/svg10.dtd">
<svg version="1.0" xmlns="http://www.w3.org/2000/svg"
 width="101.000000pt" height="102.000000pt" viewBox="0 0 101.000000 102.000000"
 preserveAspectRatio="xMidYMid meet">
<metadata>
Created by potrace 1.16, written by Peter Selinger 2001-2019
</metadata>
<g transform="translate(0.000000,102.000000) scale(0.100000,-0.100000)"
fill="#000000" stroke="none">
<path d="M587 996 c3 -14 -2 -41 -11 -59 -8 -19 -16 -49 -16 -68 0 -79 -3 -84
-48 -84 l-41 0 29 52 c17 29 30 55 30 58 0 5 -68 35 -80 35 -9 0 -20 -24 -26
-59 -5 -25 -30 -77 -46 -98 -8 -10 -14 -9 -26 3 -10 11 -26 14 -47 11 l-31 -5
4 71 c1 40 5 86 8 103 7 36 3 40 -47 49 -27 5 -40 2 -53 -10 -9 -9 -14 -21
-11 -25 3 -5 8 -49 11 -97 l5 -88 -70 2 c-77 2 -89 -8 -75 -61 7 -28 47 -41
106 -34 l33 3 0 -77 c0 -88 8 -79 -103 -108 l-42 -11 4 -45 c5 -66 15 -70 78
-35 30 17 57 31 60 31 3 0 6 -10 7 -22 0 -13 3 -60 6 -104 7 -102 -4 -136 -42
-133 -61 5 -65 2 -48 -31 8 -16 15 -36 15 -45 0 -8 11 -20 26 -25 19 -8 35 -5
72 13 l47 22 2 160 c2 219 -4 200 59 221 32 11 56 25 60 36 6 19 -4 78 -12 78
-3 0 -22 -9 -44 -20 -22 -11 -43 -20 -47 -20 -4 0 -6 25 -5 55 4 52 5 55 30
55 32 0 45 8 59 34 9 17 11 16 21 -12 10 -28 14 -31 44 -26 58 8 106 9 101 1
-2 -4 -7 -20 -9 -35 -16 -87 -102 -253 -186 -360 -27 -35 -48 -65 -46 -66 2
-1 22 -12 45 -24 l42 -21 50 78 c28 43 58 95 67 115 10 20 20 36 23 36 3 -1
23 -31 45 -67 l39 -67 -24 -19 c-27 -23 -130 -71 -171 -81 l-28 -6 40 -40 40
-40 63 31 c34 18 81 45 105 61 l42 29 33 -25 c36 -27 175 -96 194 -96 7 0 13
4 13 10 0 5 14 26 32 45 25 29 29 38 18 45 -8 5 -17 7 -20 5 -17 -10 -200 59
-200 75 0 4 20 37 44 74 42 64 86 165 100 233 9 40 -15 50 -67 28 -24 -10 -56
-13 -104 -10 -37 3 -78 6 -90 6 -13 1 -21 4 -19 8 2 3 9 24 15 46 l10 40 98
-3 c54 -2 125 0 158 3 l61 6 -1 40 0 39 -117 -6 c-86 -5 -118 -4 -118 4 0 7
-11 12 -25 12 l-26 0 5 86 c3 47 10 92 17 100 17 21 2 33 -53 40 -45 6 -46 6
-41 -20z m185 -465 c19 -3 -65 -169 -93 -187 -16 -10 -45 27 -81 103 -30 63
-30 88 0 79 10 -3 24 -1 32 4 12 7 91 8 142 1z"/>
<path d="M788 942 c-16 -10 -28 -20 -28 -24 0 -4 15 -28 34 -52 19 -25 36 -51
38 -58 3 -9 16 -5 47 15 47 31 49 23 -21 105 -30 36 -32 37 -70 14z"/>
</g>
</svg>
