<?xml version="1.0" standalone="no"?>
<!DOCTYPE svg PUBLIC "-//W3C//DTD SVG 20010904//EN"
 "http://www.w3.org/TR/2001/REC-SVG-20010904/DTD/svg10.dtd">
<svg version="1.0" xmlns="http://www.w3.org/2000/svg"
 width="101.000000pt" height="101.000000pt" viewBox="0 0 101.000000 101.000000"
 preserveAspectRatio="xMidYMid meet">
<metadata>
Created by potrace 1.16, written by Peter Selinger 2001-2019
</metadata>
<g transform="translate(0.000000,101.000000) scale(0.100000,-0.100000)"
fill="#000000" stroke="none">
<path d="M164 916 l2 -94 -58 1 c-60 2 -78 -8 -78 -43 0 -35 18 -45 77 -43
l58 1 2 -88 2 -88 -67 -18 c-71 -19 -86 -29 -76 -54 4 -8 8 -26 9 -38 2 -13 6
-26 8 -29 3 -2 32 9 65 26 70 35 62 49 65 -117 2 -122 -6 -134 -81 -127 -44 4
-44 4 -38 -23 4 -15 8 -38 11 -50 2 -13 6 -26 9 -29 11 -11 81 -3 126 15 51
20 55 34 57 196 2 209 -2 193 49 212 27 10 44 23 44 33 1 13 5 11 19 -6 25
-30 31 -29 125 12 44 19 82 32 85 30 2 -3 5 -27 5 -55 l1 -49 -55 5 c-77 7
-83 7 -101 6 -19 -2 -30 -32 -22 -61 6 -23 39 -34 65 -20 10 5 40 7 66 3 l48
-6 2 -44 c1 -41 0 -43 -31 -49 -30 -4 -98 -2 -174 8 -24 3 -33 -1 -36 -15 -12
-45 24 -79 62 -59 18 10 112 13 152 5 29 -6 30 -10 29 -115 0 -62 10 -72 64
-62 24 5 26 9 26 62 -1 101 0 109 24 111 11 1 67 2 123 3 109 1 119 7 106 56
-4 16 -9 18 -31 10 -15 -5 -61 -7 -102 -4 -41 3 -85 6 -97 6 -20 1 -22 6 -21
44 3 49 -4 46 125 47 71 1 82 3 86 19 15 56 -12 66 -153 55 l-55 -4 4 50 c4
56 -8 72 -49 63 -23 -5 -24 -4 -7 9 17 13 24 12 63 -4 42 -18 161 -58 196 -65
13 -3 23 9 37 39 10 24 24 47 30 50 16 10 14 26 -4 26 -8 0 -25 -6 -36 -12
-17 -10 -23 -10 -26 -1 -4 12 -26 18 -108 27 -79 9 -79 12 -21 81 44 51 126
180 126 196 0 9 -249 9 -254 0 -9 -14 -164 -13 -186 1 -28 18 -70 -4 -70 -36
0 -31 27 -59 52 -53 16 5 17 3 7 -9 -13 -16 -14 -15 68 -110 l53 -61 -47 -21
c-75 -32 -163 -48 -163 -30 0 5 -18 -1 -40 -12 -21 -11 -42 -20 -44 -20 -3 0
-5 30 -3 68 l2 67 52 -3 c58 -3 83 13 83 53 0 33 -31 48 -90 43 l-48 -3 4 93
5 92 -55 0 -55 0 3 -94z m559 -75 c-9 -14 -32 -45 -51 -69 l-35 -43 -41 40
c-23 23 -49 53 -58 68 l-16 28 109 1 109 1 -17 -26z"/>
</g>
</svg>
