<?xml version="1.0" standalone="no"?>
<!DOCTYPE svg PUBLIC "-//W3C//DTD SVG 20010904//EN"
 "http://www.w3.org/TR/2001/REC-SVG-20010904/DTD/svg10.dtd">
<svg version="1.0" xmlns="http://www.w3.org/2000/svg"
 width="101.000000pt" height="101.000000pt" viewBox="0 0 101.000000 101.000000"
 preserveAspectRatio="xMidYMid meet">
<metadata>
Created by potrace 1.16, written by Peter Selinger 2001-2019
</metadata>
<g transform="translate(0.000000,101.000000) scale(0.100000,-0.100000)"
fill="#000000" stroke="none">
<path d="M185 908 l0 -104 -50 7 c-27 3 -57 4 -67 1 -21 -5 -32 -35 -24 -68 6
-24 9 -25 74 -20 l67 6 2 -95 1 -95 -73 -22 -72 -21 15 -49 c17 -51 26 -56 59
-33 11 8 32 19 45 24 l23 8 2 -101 c2 -55 -1 -107 -6 -114 -4 -8 -30 -14 -59
-16 -28 -1 -54 -4 -56 -7 -3 -3 3 -23 14 -44 11 -22 20 -47 20 -57 0 -15 6
-17 34 -14 43 5 121 39 132 57 4 8 8 43 9 79 0 36 2 109 3 163 l2 98 59 26
c58 25 59 25 59 69 1 24 -3 46 -9 49 -5 4 -32 -7 -59 -24 -28 -17 -51 -31 -53
-31 -1 0 -2 33 -2 73 l0 72 41 -3 c51 -5 79 18 69 57 -9 35 -8 34 -65 35 -50
1 -50 1 -45 31 2 17 6 59 7 95 l3 65 -50 3 -50 3 0 -103z"/>
<path d="M829 978 c-7 -17 -34 -64 -61 -105 -26 -40 -48 -76 -48 -79 0 -4 23
-31 50 -61 28 -31 60 -73 71 -94 11 -22 22 -39 25 -39 10 0 84 45 84 51 0 4
-30 39 -66 78 l-66 71 32 50 c17 27 45 62 61 78 33 33 30 40 -33 66 l-36 15
-13 -31z"/>
<path d="M470 963 c-7 -21 -28 -67 -47 -104 l-35 -65 51 -89 c28 -48 52 -92
54 -98 2 -6 12 -5 26 3 l23 12 -23 -41 c-31 -56 -111 -145 -154 -171 -36 -22
-45 -40 -21 -40 7 0 25 -9 40 -21 15 -11 33 -19 40 -16 8 3 40 36 73 74 l59
68 117 0 c64 1 117 -1 117 -3 0 -9 -63 -107 -85 -134 l-23 -27 -27 39 c-14 21
-35 46 -45 55 -18 16 -21 16 -55 -5 -19 -12 -35 -24 -35 -26 0 -2 20 -29 45
-60 25 -30 45 -56 45 -59 0 -7 -134 -47 -159 -47 -14 0 -30 -3 -36 -6 -5 -3
-25 -5 -45 -4 -61 4 -67 -10 -29 -59 19 -24 34 -45 35 -47 6 -12 73 0 144 26
190 67 298 169 373 352 35 84 35 94 -1 87 -53 -11 -282 -20 -282 -12 0 5 10
19 23 33 22 23 22 24 3 38 -11 8 -25 14 -32 14 -6 0 -19 11 -28 24 -9 14 -36
50 -61 81 l-46 56 55 84 c31 46 56 86 56 90 0 8 -65 35 -84 35 -8 0 -20 -17
-26 -37z"/>
<path d="M654 983 c-20 -58 -55 -124 -84 -156 l-32 -37 51 -56 c29 -31 58 -69
67 -85 8 -16 18 -29 22 -29 11 0 72 39 72 46 0 3 -21 30 -47 60 -27 31 -48 61
-49 67 0 16 43 94 79 140 34 45 28 57 -32 64 -33 4 -42 1 -47 -14z"/>
</g>
</svg>
