<?xml version="1.0" standalone="no"?>
<!DOCTYPE svg PUBLIC "-//W3C//DTD SVG 20010904//EN"
 "http://www.w3.org/TR/2001/REC-SVG-20010904/DTD/svg10.dtd">
<svg version="1.0" xmlns="http://www.w3.org/2000/svg"
 width="101.000000pt" height="101.000000pt" viewBox="0 0 101.000000 101.000000"
 preserveAspectRatio="xMidYMid meet">
<metadata>
Created by potrace 1.16, written by Peter Selinger 2001-2019
</metadata>
<g transform="translate(0.000000,101.000000) scale(0.100000,-0.100000)"
fill="#000000" stroke="none">
<path d="M573 935 l3 -74 -67 3 c-37 2 -73 7 -79 11 -19 12 -61 -4 -59 -23 1
-9 1 -29 0 -44 -1 -26 -3 -26 -31 -16 -17 5 -41 7 -54 4 -17 -4 -26 -1 -30 10
-10 25 -7 92 4 99 5 3 9 25 7 48 l-2 41 -47 1 c-44 0 -48 -2 -54 -29 -3 -16
-3 -61 1 -100 l6 -71 -48 3 c-57 3 -71 -4 -78 -43 -8 -43 6 -57 64 -63 l51 -5
0 -42 c0 -23 3 -56 6 -72 6 -29 5 -30 -63 -49 -64 -19 -68 -22 -68 -49 0 -35
14 -75 27 -75 5 0 31 11 57 25 l49 24 1 -22 c1 -12 3 -64 4 -115 2 -109 -7
-123 -74 -116 -21 3 -39 3 -39 2 0 -2 9 -21 20 -43 11 -22 20 -46 20 -53 0
-18 69 -9 120 16 l35 17 1 150 c2 212 1 204 54 225 44 18 45 19 43 60 -1 23
-4 44 -7 47 -2 2 -21 -4 -43 -15 l-38 -20 0 63 0 62 28 -3 c16 -2 32 -6 37 -9
5 -3 18 4 28 16 11 11 23 16 26 11 9 -14 5 -151 -4 -157 -4 -3 -8 -43 -8 -90
0 -92 -1 -91 63 -86 37 4 46 17 34 49 -8 20 -7 23 6 18 8 -3 26 -1 39 6 30 13
80 2 73 -16 -3 -8 1 -33 10 -57 29 -87 27 -95 -30 -117 -86 -34 -124 -43 -195
-47 -30 -2 -56 -5 -58 -8 -3 -3 6 -21 20 -41 13 -20 26 -42 29 -49 5 -16 115
13 225 60 l84 36 51 -51 c29 -28 74 -61 101 -73 48 -21 49 -21 75 -2 27 21 70
135 53 141 -5 1 -24 14 -43 28 l-33 24 -9 -22 c-4 -12 -9 -31 -11 -42 -5 -33
-32 -30 -73 9 l-38 35 55 50 c30 28 65 53 78 56 31 9 28 18 -17 51 l-40 29 36
1 c36 1 57 18 45 38 -3 5 -5 52 -4 103 2 60 -1 92 -7 92 -6 0 -11 11 -11 25 0
14 5 25 10 25 6 0 10 28 10 64 0 73 -12 84 -73 70 -17 -4 -61 -8 -97 -8 l-65
-1 3 55 c2 30 8 60 13 66 14 18 -1 24 -57 24 l-53 0 2 -75z m-3 -169 c0 -11 3
-31 6 -42 5 -21 3 -22 -54 -20 l-61 1 2 40 2 40 53 1 c47 1 52 -1 52 -20z
m191 15 c36 -1 37 -2 41 -42 l4 -41 -51 6 c-27 3 -62 6 -77 6 -26 0 -28 3 -28
38 0 39 0 39 38 36 20 -2 53 -3 73 -3z m-185 -201 l-1 -45 -35 3 c-19 1 -45 3
-57 3 -20 1 -22 6 -21 43 l2 41 56 0 57 0 -1 -45z m232 5 c1 -43 0 -44 -32
-51 -19 -3 -43 -1 -54 5 -11 6 -28 8 -36 5 -10 -4 -16 -1 -17 7 -1 8 -2 28 -4
44 l-2 30 71 2 72 3 2 -45z m-19 -124 c11 -7 3 -21 -37 -62 -28 -30 -53 -52
-55 -49 -3 3 -8 21 -11 41 -3 20 -8 44 -12 54 -6 14 -3 16 12 11 10 -3 26 -1
34 4 19 12 51 12 69 1z"/>
</g>
</svg>
