<?xml version="1.0" standalone="no"?>
<!DOCTYPE svg PUBLIC "-//W3C//DTD SVG 20010904//EN"
 "http://www.w3.org/TR/2001/REC-SVG-20010904/DTD/svg10.dtd">
<svg version="1.0" xmlns="http://www.w3.org/2000/svg"
 width="101.000000pt" height="101.000000pt" viewBox="0 0 101.000000 101.000000"
 preserveAspectRatio="xMidYMid meet">
<metadata>
Created by potrace 1.16, written by Peter Selinger 2001-2019
</metadata>
<g transform="translate(0.000000,101.000000) scale(0.100000,-0.100000)"
fill="#000000" stroke="none">
<path d="M182 953 c0 -32 4 -63 10 -70 5 -6 8 -31 6 -55 l-3 -43 -77 2 c-69 2
-78 0 -83 -18 -4 -11 -4 -31 -1 -44 7 -27 49 -40 113 -34 l38 4 2 -87 2 -86
-70 -28 c-38 -15 -72 -31 -75 -36 -8 -12 16 -78 27 -78 5 0 32 11 59 25 60 30
58 30 59 3 1 -13 3 -50 6 -83 2 -33 0 -74 -6 -92 -9 -29 -14 -32 -49 -30 -22
1 -42 -1 -44 -4 -3 -3 4 -29 16 -57 21 -49 24 -51 54 -48 36 5 89 30 101 48 4
7 9 74 10 148 2 195 -2 180 54 203 46 20 54 30 51 67 -1 12 8 15 37 12 25 -3
43 2 54 12 19 19 73 21 80 4 4 -10 7 -10 15 0 6 9 29 12 73 10 60 -3 64 -5 66
-28 1 -14 4 -36 5 -50 3 -21 -2 -25 -42 -32 -25 -5 -56 -5 -70 -1 -14 4 -54 8
-90 9 -36 2 -75 4 -88 5 -13 0 -26 -2 -30 -5 -7 -8 -6 -75 1 -83 8 -7 44 -7
97 2 131 20 226 15 216 -11 -3 -8 -1 -25 5 -37 8 -17 7 -41 -1 -83 -7 -32 -12
-64 -13 -71 0 -9 -15 -11 -49 -8 -26 3 -48 3 -48 2 0 -2 9 -22 20 -45 11 -22
20 -45 20 -50 0 -30 113 -9 142 25 8 10 13 53 15 127 3 167 -1 155 42 150 20
-2 43 -5 51 -5 42 -5 58 2 63 27 8 46 -1 60 -41 62 -20 1 -46 1 -57 2 -11 0
-29 -1 -40 -2 -16 -2 -19 2 -17 22 2 14 3 34 4 45 0 18 7 20 74 20 81 -1 93 9
79 62 -6 25 -7 25 -80 18 -52 -5 -75 -3 -75 4 0 7 -22 11 -55 11 l-55 0 0 45
c0 36 4 45 18 46 9 0 52 1 95 1 72 1 78 2 83 23 3 13 4 34 2 46 -3 23 -6 24
-105 24 l-102 0 5 45 c11 103 15 94 -44 94 -51 1 -52 0 -58 -31 -3 -18 -5 -50
-3 -70 l4 -38 -66 2 c-36 1 -69 3 -75 4 -32 6 -53 -37 -39 -80 5 -17 14 -19
101 -17 l95 3 -3 -51 -3 -51 -107 2 -107 2 -7 -34 c-3 -18 -3 -39 2 -46 4 -8
3 -10 -4 -5 -6 4 -30 -3 -53 -15 l-42 -21 7 47 c3 26 6 57 6 69 0 19 5 21 38
18 49 -5 74 18 70 62 -3 31 -3 31 -61 31 l-58 0 6 75 c3 41 8 89 11 106 5 35
-10 44 -77 44 l-36 0 -1 -57z"/>
<path d="M485 383 c-36 -9 -38 -20 -11 -77 14 -30 26 -60 26 -65 0 -14 4 -14
51 1 22 6 39 16 39 21 0 5 -12 36 -26 68 -27 59 -33 63 -79 52z"/>
</g>
</svg>
