<?xml version="1.0" standalone="no"?>
<!DOCTYPE svg PUBLIC "-//W3C//DTD SVG 20010904//EN"
 "http://www.w3.org/TR/2001/REC-SVG-20010904/DTD/svg10.dtd">
<svg version="1.0" xmlns="http://www.w3.org/2000/svg"
 width="101.000000pt" height="102.000000pt" viewBox="0 0 101.000000 102.000000"
 preserveAspectRatio="xMidYMid meet">
<metadata>
Created by potrace 1.16, written by Peter Selinger 2001-2019
</metadata>
<g transform="translate(0.000000,102.000000) scale(0.100000,-0.100000)"
fill="#000000" stroke="none">
<path d="M556 990 c-22 -111 -114 -270 -202 -349 -48 -42 -53 -50 -39 -59 15
-8 14 -10 -8 -16 -14 -3 -32 -8 -40 -12 -12 -4 -14 9 -13 78 l1 83 51 -3 c62
-4 89 16 79 57 -9 36 -22 42 -80 39 l-50 -3 1 70 c1 39 4 80 8 93 4 12 4 22
-1 23 -4 0 -15 2 -23 4 -22 6 -43 8 -63 7 -16 -2 -17 -11 -12 -99 l5 -98 -49
3 c-60 5 -91 -10 -91 -43 0 -39 25 -55 83 -52 l52 2 0 -95 c0 -92 -1 -95 -22
-92 -12 2 -24 -2 -28 -8 -3 -6 -11 -8 -16 -4 -6 3 -24 0 -40 -6 -31 -13 -32
-23 -13 -87 8 -28 7 -28 69 -4 l50 19 2 -102 c2 -55 -1 -107 -5 -114 -10 -14
-30 -16 -80 -8 -18 3 -32 2 -30 -2 2 -4 12 -31 23 -60 12 -31 26 -52 35 -52
35 0 94 23 117 47 23 22 25 29 19 83 -5 43 -3 60 6 64 10 5 10 7 1 12 -15 7
-18 74 -3 74 6 0 10 20 10 44 l0 44 49 12 49 12 -2 39 c-4 44 -4 44 25 27 18
-12 24 -9 54 25 31 35 33 36 38 16 6 -22 9 -22 119 -16 62 4 134 7 161 7 41 0
47 3 47 21 0 21 1 21 28 4 77 -51 69 -50 87 -15 9 17 25 40 36 51 12 12 19 21
17 22 -1 1 -33 17 -70 35 -107 54 -212 177 -210 248 1 37 -25 53 -75 48 -18
-2 -33 1 -33 6 0 23 -18 8 -24 -20z m103 -188 c6 -12 32 -46 56 -76 l43 -54
-36 -6 c-59 -9 -162 -7 -162 4 0 6 -12 10 -26 10 l-25 0 26 43 c15 23 41 72
58 109 l32 67 11 -37 c6 -20 16 -47 23 -60z"/>
<path d="M410 440 c0 -40 4 -70 10 -70 6 0 10 -16 10 -35 0 -19 -4 -35 -10
-35 -5 0 -10 -18 -10 -40 0 -23 5 -40 11 -40 12 0 8 -77 -6 -111 -7 -20 17
-28 62 -22 36 6 46 23 33 57 -7 20 -6 24 13 25 12 0 56 3 97 6 41 3 89 3 106
0 27 -5 30 -9 31 -41 1 -19 4 -38 7 -42 12 -11 78 -4 87 9 8 14 11 351 3 384
-5 19 -14 20 -224 22 l-220 2 0 -69z m331 -16 c10 -3 17 -16 18 -32 4 -60 1
-135 -5 -141 -3 -3 -49 -5 -102 -4 -151 3 -139 -1 -146 54 -4 28 -2 57 4 68 5
11 8 26 5 33 -4 10 8 13 50 11 30 -1 57 2 60 7 6 10 87 12 116 4z"/>
</g>
</svg>
