<?xml version="1.0" standalone="no"?>
<!DOCTYPE svg PUBLIC "-//W3C//DTD SVG 20010904//EN"
 "http://www.w3.org/TR/2001/REC-SVG-20010904/DTD/svg10.dtd">
<svg version="1.0" xmlns="http://www.w3.org/2000/svg"
 width="101.000000pt" height="101.000000pt" viewBox="0 0 101.000000 101.000000"
 preserveAspectRatio="xMidYMid meet">
<metadata>
Created by potrace 1.16, written by Peter Selinger 2001-2019
</metadata>
<g transform="translate(0.000000,101.000000) scale(0.100000,-0.100000)"
fill="#000000" stroke="none">
<path d="M198 1003 c-17 -4 -23 -20 -20 -53 1 -8 4 -47 7 -86 l4 -72 -62 5
c-77 7 -103 -11 -93 -60 3 -17 8 -33 11 -35 10 -11 103 -14 121 -4 18 9 19 5
21 -82 l3 -92 -75 -27 c-47 -18 -75 -34 -77 -45 -5 -23 15 -82 27 -82 5 0 34
14 64 30 30 17 55 30 57 30 1 0 2 -10 3 -22 0 -13 3 -52 6 -88 6 -82 -9 -115
-50 -116 -67 -3 -65 0 -44 -41 10 -21 19 -43 19 -49 0 -19 30 -21 75 -6 68 23
70 27 72 180 2 190 -2 176 54 200 27 11 49 17 49 12 0 -14 39 -18 81 -9 23 5
43 8 44 7 2 -2 -17 -33 -41 -71 -24 -37 -44 -69 -44 -71 0 -2 28 -14 63 -26
34 -13 75 -30 91 -38 l29 -14 -29 -19 c-43 -28 -121 -53 -203 -64 -19 -2 -36
-7 -39 -9 -2 -3 9 -25 24 -50 25 -38 33 -44 54 -39 61 14 182 67 232 102 l54
38 45 -30 c24 -17 64 -46 88 -66 l44 -35 34 39 c40 46 42 44 -77 111 l-86 49
22 39 c12 22 30 63 39 92 17 56 15 55 107 56 49 1 62 15 51 57 -4 18 -16 19
-146 19 -78 0 -152 1 -164 2 l-22 2 19 37 c10 21 26 43 34 50 33 28 24 36 -80
78 -10 4 -21 -20 -30 -67 -2 -7 -10 -33 -19 -57 -14 -35 -22 -43 -50 -49 -19
-3 -39 -3 -46 2 -20 12 -73 12 -81 0 -5 -7 -8 -4 -8 7 0 21 1 21 -45 1 -20 -8
-38 -14 -40 -12 -1 2 0 33 3 71 5 71 7 73 64 68 11 -2 21 9 27 31 10 31 10 29
7 -19 -3 -50 -2 -52 25 -58 61 -14 86 16 77 90 l-4 35 73 0 c48 0 73 -4 73
-12 0 -8 30 -9 109 -4 l109 6 -5 -51 c-5 -57 3 -69 49 -69 36 0 61 26 52 54
-7 20 -9 88 -4 111 9 40 1 44 -64 38 -42 -4 -66 -2 -70 6 -4 6 -27 11 -52 11
-39 0 -44 3 -45 23 -2 31 -4 38 -17 70 -7 16 -12 33 -12 38 0 13 -37 11 -46
-2 -3 -6 -17 -9 -30 -6 -28 5 -29 1 -10 -44 7 -19 16 -47 20 -63 l7 -29 -100
7 c-120 9 -141 1 -141 -50 0 -32 -2 -34 -20 -24 -12 6 -35 10 -53 8 -31 -3
-32 -2 -35 40 -2 24 1 49 6 55 13 16 14 97 1 97 -16 0 -24 2 -39 9 -8 4 -23 6
-32 4z m519 -516 c5 -6 -34 -109 -50 -130 -11 -15 -17 -14 -73 11 l-62 28 25
47 c18 36 28 47 41 43 9 -3 24 -1 32 5 14 9 76 6 87 -4z"/>
</g>
</svg>
