<?xml version="1.0" standalone="no"?>
<!DOCTYPE svg PUBLIC "-//W3C//DTD SVG 20010904//EN"
 "http://www.w3.org/TR/2001/REC-SVG-20010904/DTD/svg10.dtd">
<svg version="1.0" xmlns="http://www.w3.org/2000/svg"
 width="101.000000pt" height="101.000000pt" viewBox="0 0 101.000000 101.000000"
 preserveAspectRatio="xMidYMid meet">
<metadata>
Created by potrace 1.16, written by Peter Selinger 2001-2019
</metadata>
<g transform="translate(0.000000,101.000000) scale(0.100000,-0.100000)"
fill="#000000" stroke="none">
<path d="M192 908 l3 -103 -37 -3 c-22 -2 -38 1 -38 7 0 6 -14 11 -30 11 -24
0 -33 -6 -40 -26 -14 -35 -12 -50 6 -68 10 -11 21 -13 32 -8 9 5 36 7 60 4 40
-4 42 -5 42 -38 0 -19 5 -34 10 -34 13 0 13 -51 0 -84 -6 -18 -19 -27 -47 -33
-21 -4 -40 -8 -43 -8 -76 -16 -80 -21 -55 -81 16 -39 24 -39 97 -3 46 24 46
24 47 -3 0 -13 3 -60 6 -104 3 -45 1 -93 -4 -107 -9 -22 -16 -26 -50 -24 -22
0 -42 -1 -45 -4 -3 -3 3 -27 13 -54 21 -56 31 -59 103 -32 30 12 50 26 54 40
5 12 9 80 10 152 3 196 1 187 57 203 48 13 53 22 48 76 -2 28 -4 28 -44 11
-20 -8 -41 -15 -47 -15 -13 0 -9 132 4 142 5 3 20 2 34 -3 47 -18 81 14 70 68
-3 15 -11 18 -58 15 l-55 -4 2 100 2 100 -31 6 c-80 16 -79 18 -76 -96z"/>
<path d="M443 1004 c-16 -7 -18 -124 -3 -124 6 0 10 -16 10 -35 0 -19 -4 -35
-10 -35 -16 0 -12 -80 6 -127 19 -50 70 -81 103 -63 13 7 76 8 179 5 l159 -6
31 35 c35 40 50 78 34 84 -6 2 -28 15 -48 28 -20 14 -38 24 -40 22 -1 -2 -5
-16 -8 -31 -2 -14 -7 -31 -10 -36 -14 -21 -77 -32 -162 -27 -149 9 -143 7
-149 55 -4 32 1 36 52 31 12 -1 32 4 44 10 12 7 31 14 43 16 41 7 71 13 96 19
54 13 76 16 105 16 48 -1 60 12 46 46 -6 15 -20 39 -30 52 l-18 23 -89 -35
c-49 -20 -100 -38 -114 -41 -14 -3 -36 -8 -50 -11 -14 -4 -33 -7 -42 -7 -10 1
-20 -3 -23 -9 -19 -30 -24 24 -11 109 5 26 2 32 -13 32 -10 0 -31 2 -47 5 -16
2 -35 2 -41 -1z"/>
<path d="M449 573 c-21 -5 -31 -40 -19 -62 5 -9 7 -57 5 -106 -2 -50 -5 -115
-6 -145 -2 -30 -2 -78 -1 -106 2 -57 12 -65 71 -56 31 4 32 6 27 37 -6 29 -4
33 16 34 13 0 57 3 98 6 41 3 93 3 116 0 37 -5 41 -8 41 -35 0 -17 2 -32 4
-35 6 -6 36 -9 69 -7 l25 2 -3 103 c-5 152 -4 298 0 334 4 27 1 32 -20 36 -14
3 -39 0 -56 -6 -46 -17 -262 -13 -331 5 -11 3 -27 4 -36 1z m311 -79 c34 -5
36 -7 37 -44 2 -38 1 -39 -40 -45 -23 -3 -76 -3 -117 0 -41 3 -85 6 -97 6 -19
1 -22 7 -20 40 1 30 5 38 17 34 8 -2 21 -1 29 4 15 10 140 13 191 5z m0 -160
c34 -5 36 -7 37 -44 2 -38 1 -39 -40 -45 -23 -3 -76 -3 -117 0 -41 3 -85 6
-97 6 -19 1 -22 7 -20 40 1 30 5 38 17 34 8 -2 21 -1 29 4 15 10 140 13 191 5z"/>
</g>
</svg>
