<?xml version="1.0" standalone="no"?>
<!DOCTYPE svg PUBLIC "-//W3C//DTD SVG 20010904//EN"
 "http://www.w3.org/TR/2001/REC-SVG-20010904/DTD/svg10.dtd">
<svg version="1.0" xmlns="http://www.w3.org/2000/svg"
 width="101.000000pt" height="101.000000pt" viewBox="0 0 101.000000 101.000000"
 preserveAspectRatio="xMidYMid meet">
<metadata>
Created by potrace 1.16, written by Peter Selinger 2001-2019
</metadata>
<g transform="translate(0.000000,101.000000) scale(0.100000,-0.100000)"
fill="#000000" stroke="none">
<path d="M260 996 c0 -9 5 -16 11 -16 6 0 9 -10 7 -22 -2 -19 -9 -23 -33 -22
-142 7 -157 6 -166 -7 -11 -18 -11 -40 1 -59 7 -12 30 -15 98 -15 83 0 89 -1
88 -20 -1 -18 -8 -20 -64 -19 -34 1 -65 4 -69 7 -3 4 -14 2 -24 -4 -19 -10
-25 -44 -11 -65 8 -12 61 -12 81 0 6 4 29 5 50 1 33 -5 38 -9 38 -35 0 -26 -5
-30 -38 -35 -21 -4 -44 -3 -50 1 -7 4 -33 9 -59 11 -41 3 -48 1 -53 -17 -12
-48 24 -81 65 -59 10 5 22 7 27 4 5 -3 21 0 35 6 13 6 36 9 50 5 23 -6 24 -10
20 -50 -4 -37 -2 -45 13 -49 15 -4 -39 -2 -107 5 -48 4 -50 1 -30 -44 20 -45
51 -64 79 -49 9 5 46 8 81 6 36 -2 73 1 83 7 11 5 34 7 52 4 45 -9 45 -43 0
-51 -30 -6 -144 -1 -221 9 -46 6 -56 -7 -47 -58 5 -23 8 -25 47 -20 78 10 191
15 222 9 26 -4 32 -10 30 -29 -1 -23 -4 -24 -106 -29 -103 -6 -145 -5 -246 7
-45 6 -52 4 -57 -13 -8 -31 4 -71 22 -73 17 -1 27 0 76 8 62 11 123 13 217 8
89 -6 97 -8 95 -25 -5 -33 -23 -44 -51 -31 -13 6 -33 8 -43 6 -19 -5 -19 -6 1
-49 25 -51 40 -57 103 -41 55 14 84 48 86 98 1 28 5 36 21 37 75 6 231 5 287
-2 66 -7 67 -7 72 19 2 14 2 35 0 45 -5 16 -11 18 -47 12 -37 -6 -261 -8 -311
-3 -13 2 -20 10 -21 25 -2 26 -5 26 153 28 120 2 129 6 116 57 -4 16 -10 19
-27 13 -18 -7 -148 -8 -221 -2 -29 2 -30 46 -1 48 11 1 50 4 86 7 36 3 93 5
128 4 38 0 62 4 62 10 0 6 -9 29 -21 51 -18 36 -23 40 -49 34 -27 -6 -43 -9
-119 -20 -19 -2 -39 -9 -45 -15 -12 -12 -26 -13 -45 -1 -10 7 -3 21 32 64 44
54 99 189 95 234 -3 45 0 48 62 50 63 2 77 -10 44 -38 -10 -8 -15 -27 -14 -53
3 -72 0 -86 -20 -106 -16 -16 -28 -19 -54 -15 l-33 7 16 -50 c14 -45 19 -50
41 -47 39 5 93 30 113 53 10 11 20 35 23 53 3 19 7 50 10 69 8 52 15 109 18
162 l4 46 -35 -5 c-20 -3 -44 0 -58 7 -18 10 -31 10 -47 3 -23 -10 -135 -9
-195 2 -45 8 -73 -9 -73 -45 0 -36 25 -64 47 -51 27 15 51 1 56 -32 9 -63 -43
-175 -98 -211 -23 -15 -23 -14 -22 20 1 38 -17 58 -43 48 -8 -3 -33 -7 -56 -9
-39 -3 -41 -2 -41 25 0 30 2 31 89 32 49 1 61 11 51 46 -4 18 -12 20 -72 19
-61 -2 -66 0 -67 20 -2 18 5 22 38 25 22 2 42 0 44 -4 15 -24 64 9 64 42 0 26
-29 53 -49 45 -9 -4 -34 -8 -57 -9 -40 -2 -40 -2 -40 33 1 36 1 36 -46 39 -38
2 -48 0 -48 -12z m192 -369 c14 -7 23 -18 20 -25 -2 -6 2 -12 10 -12 7 0 26
-11 42 -23 l29 -24 -44 -11 c-45 -11 -98 -14 -134 -7 -17 4 -20 12 -21 55 -1
42 2 49 15 45 9 -2 23 0 31 5 20 13 23 12 52 -3z"/>
</g>
</svg>
