<?xml version="1.0" standalone="no"?>
<!DOCTYPE svg PUBLIC "-//W3C//DTD SVG 20010904//EN"
 "http://www.w3.org/TR/2001/REC-SVG-20010904/DTD/svg10.dtd">
<svg version="1.0" xmlns="http://www.w3.org/2000/svg"
 width="101.000000pt" height="101.000000pt" viewBox="0 0 101.000000 101.000000"
 preserveAspectRatio="xMidYMid meet">
<metadata>
Created by potrace 1.16, written by Peter Selinger 2001-2019
</metadata>
<g transform="translate(0.000000,101.000000) scale(0.100000,-0.100000)"
fill="#000000" stroke="none">
<path d="M188 993 c-9 -2 -19 -12 -22 -21 -8 -30 -5 -86 5 -99 6 -6 9 -27 7
-45 -3 -32 -4 -33 -53 -34 -27 0 -55 -1 -62 -2 -17 -3 -26 -58 -13 -82 12 -22
19 -23 90 -5 l25 6 -2 -88 c-2 -87 -2 -88 -30 -96 -15 -4 -40 -8 -56 -9 -41
-2 -50 -18 -36 -72 6 -25 13 -46 16 -46 2 0 26 11 53 25 27 14 51 25 54 25 5
0 7 -23 9 -148 2 -116 -1 -121 -64 -116 -39 3 -48 -3 -30 -21 5 -6 13 -25 18
-44 10 -39 33 -46 87 -27 70 25 71 27 71 123 0 48 4 95 8 103 4 8 6 50 5 92
l-3 76 57 18 56 17 -2 39 c-2 21 -6 42 -10 45 -3 4 -27 -3 -51 -15 -25 -12
-47 -22 -49 -22 -2 0 -3 34 -3 76 l2 76 37 -5 c33 -4 38 -2 46 21 7 23 11 18
36 -52 23 -63 31 -76 46 -71 52 16 57 15 63 -23 4 -20 2 -41 -3 -47 -7 -8
-139 -79 -188 -101 -2 -1 10 -22 26 -47 l29 -46 64 53 64 53 -2 -50 c-5 -94
-65 -177 -160 -219 l-44 -19 43 -39 43 -38 30 21 c102 69 156 149 182 272 10
43 12 139 4 149 -12 15 -13 154 -1 161 6 4 10 54 10 118 -1 62 2 126 5 142 l5
30 -55 0 c-50 0 -56 -3 -62 -23 -3 -12 -1 -28 5 -35 9 -11 10 -242 1 -252 -2
-2 -19 34 -38 81 -18 46 -36 84 -41 84 -17 0 -80 -31 -76 -38 2 -4 -12 -7 -32
-7 l-37 0 1 80 c1 44 5 87 9 96 9 23 -38 35 -87 22z"/>
<path d="M651 989 c-19 -8 -22 -14 -17 -37 4 -15 6 -52 6 -84 -1 -31 4 -59 9
-63 12 -7 13 -153 1 -160 -12 -7 -12 -153 0 -160 12 -8 13 -52 1 -59 -13 -8
-12 -108 1 -123 7 -8 9 -39 5 -79 -4 -59 -3 -66 17 -79 22 -15 81 -29 106 -26
8 1 35 3 60 5 64 4 84 12 101 43 23 40 32 83 18 83 -7 0 -27 11 -45 25 l-33
25 -11 -40 c-12 -43 -27 -51 -90 -47 -25 2 -38 9 -47 27 -16 32 -16 67 0 74
10 5 10 7 0 12 -15 7 -18 74 -3 74 6 0 10 17 10 38 l0 37 57 -58 56 -59 35 36
c43 42 43 42 -73 122 -86 60 -93 70 -79 121 6 21 8 22 35 8 15 -8 30 -15 32
-15 2 0 25 36 50 79 26 44 51 82 57 86 19 12 10 24 -36 45 -26 11 -48 20 -49
20 -2 0 -9 -17 -16 -37 -6 -21 -23 -60 -38 -88 l-26 -50 -3 43 c-2 23 -7 42
-13 42 -5 0 -9 11 -9 25 0 14 5 25 10 25 6 0 10 27 10 61 0 33 5 70 11 81 9
16 8 23 -2 29 -18 11 -68 10 -98 -2z"/>
</g>
</svg>
