<?xml version="1.0" standalone="no"?>
<!DOCTYPE svg PUBLIC "-//W3C//DTD SVG 20010904//EN"
 "http://www.w3.org/TR/2001/REC-SVG-20010904/DTD/svg10.dtd">
<svg version="1.0" xmlns="http://www.w3.org/2000/svg"
 width="101.000000pt" height="102.000000pt" viewBox="0 0 101.000000 102.000000"
 preserveAspectRatio="xMidYMid meet">
<metadata>
Created by potrace 1.16, written by Peter Selinger 2001-2019
</metadata>
<g transform="translate(0.000000,102.000000) scale(0.100000,-0.100000)"
fill="#000000" stroke="none">
<path d="M489 993 c-37 -99 -147 -279 -133 -218 7 34 -11 50 -61 50 l-45 0 5
56 c2 31 9 68 14 83 6 14 7 26 3 27 -4 0 -30 2 -59 2 l-51 2 1 -85 2 -86 -27
4 c-52 8 -97 -7 -104 -33 -8 -32 3 -63 25 -70 9 -3 37 -1 62 3 l44 8 2 -91 2
-91 -67 -26 c-72 -29 -77 -38 -53 -100 l10 -28 48 30 c56 36 61 36 62 8 0 -13
3 -57 6 -98 6 -100 -6 -125 -63 -126 -23 0 -44 -3 -47 -5 -2 -3 4 -26 13 -52
15 -43 29 -54 57 -47 6 2 17 3 26 4 28 3 79 28 81 40 1 6 3 76 4 156 3 200 0
188 45 210 48 25 46 25 53 -5 8 -31 18 -32 121 -20 105 13 110 12 112 -15 0
-14 4 -34 8 -46 9 -29 -18 -50 -48 -37 -12 6 -40 9 -62 7 -21 -1 -46 1 -55 6
-23 12 -57 2 -63 -20 -2 -10 -2 -30 0 -44 5 -25 8 -26 53 -23 26 2 52 7 58 11
6 4 33 4 61 0 41 -5 49 -10 49 -28 1 -11 4 -34 7 -51 10 -47 -12 -67 -74 -71
-29 -1 -55 -5 -58 -8 -3 -2 2 -15 11 -28 9 -12 16 -30 16 -39 0 -25 35 -29 91
-13 76 23 90 42 89 122 -2 102 0 114 17 108 8 -3 24 -1 35 5 29 16 88 3 86
-19 -4 -50 13 -65 64 -55 23 4 24 8 25 101 2 149 0 141 38 137 27 -4 35 -1 40
14 8 26 -4 72 -19 70 -6 -1 -24 -1 -39 0 l-29 1 4 78 3 78 -52 -4 c-35 -3 -53
-1 -53 7 0 6 -11 11 -25 11 -14 0 -25 2 -25 5 0 2 20 33 45 68 25 36 45 68 45
72 0 4 -45 5 -101 1 -71 -5 -105 -4 -115 5 -8 6 -23 9 -33 6 -19 -5 -19 -4 1
24 12 15 27 30 35 33 24 10 13 23 -29 35 -24 7 -51 15 -60 17 -13 4 -21 -3
-29 -23z m163 -205 l-30 -43 -85 0 -84 0 23 35 c21 30 28 34 61 32 21 -1 45 2
53 8 8 5 32 10 53 10 l38 0 -29 -42z m-337 -68 c-3 -10 10 -23 36 -37 l41 -23
18 22 17 22 7 -22 c8 -24 54 -37 108 -30 33 3 33 3 33 -40 l0 -43 -106 7 c-98
6 -108 5 -118 -12 -6 -11 -11 -14 -11 -9 -6 61 -8 77 -12 80 -2 3 -21 -7 -41
-21 l-37 -25 2 74 3 73 32 0 c24 -1 31 -5 28 -16z m480 -105 l0 -44 -65 2 -65
2 0 37 c-1 37 -1 37 45 41 25 2 54 4 65 5 18 2 20 -4 20 -43z m-19 -111 c14
-4 22 -14 22 -27 0 -12 3 -32 7 -44 6 -19 2 -25 -21 -34 -16 -5 -40 -8 -54 -4
-14 3 -36 7 -50 8 -20 2 -24 7 -22 27 2 14 3 35 4 48 0 16 5 21 17 18 9 -3 23
-1 31 4 17 11 36 12 66 4z"/>
</g>
</svg>
