<?xml version="1.0" standalone="no"?>
<!DOCTYPE svg PUBLIC "-//W3C//DTD SVG 20010904//EN"
 "http://www.w3.org/TR/2001/REC-SVG-20010904/DTD/svg10.dtd">
<svg version="1.0" xmlns="http://www.w3.org/2000/svg"
 width="101.000000pt" height="101.000000pt" viewBox="0 0 101.000000 101.000000"
 preserveAspectRatio="xMidYMid meet">
<metadata>
Created by potrace 1.16, written by Peter Selinger 2001-2019
</metadata>
<g transform="translate(0.000000,101.000000) scale(0.100000,-0.100000)"
fill="#000000" stroke="none">
<path d="M234 958 l4 -53 -78 2 c-75 2 -78 2 -84 -21 -12 -50 -1 -56 90 -51
l84 5 0 -34 c0 -42 -6 -46 -67 -51 -27 -3 -57 -7 -68 -9 -11 -2 -26 -5 -33 -5
-14 -1 -9 -68 6 -83 6 -6 35 -2 77 11 81 25 74 25 72 0 -2 -23 -26 -40 -54
-37 -49 4 -51 1 -29 -46 12 -25 28 -47 36 -49 8 -3 -4 -3 -27 0 -40 5 -58 -6
-34 -22 5 -3 12 -18 16 -34 7 -32 37 -46 65 -31 9 5 43 7 76 5 32 -1 67 1 76
6 10 5 40 7 66 3 45 -6 49 -8 49 -34 0 -26 -4 -29 -44 -35 -23 -3 -49 -3 -55
2 -7 4 -47 9 -88 10 -41 2 -85 3 -98 4 -13 0 -25 -1 -26 -2 -10 -12 -14 -46
-7 -57 9 -15 19 -15 116 -7 33 3 92 3 131 -1 68 -5 72 -7 70 -29 -1 -22 -5
-24 -91 -29 -92 -5 -145 -3 -225 9 -54 9 -89 9 -97 1 -9 -8 -8 -64 1 -73 8 -8
52 -7 116 3 60 9 288 9 297 0 18 -18 -15 -41 -61 -42 -25 0 -48 -3 -50 -5 -9
-9 39 -99 54 -102 19 -4 110 29 127 46 7 7 14 34 15 59 2 38 6 46 23 47 11 0
61 3 110 6 60 4 108 1 142 -8 64 -17 109 -12 116 14 14 52 -27 78 -87 56 -17
-6 -83 -11 -146 -10 -157 2 -155 2 -156 28 -2 27 -5 26 163 28 108 1 122 3
126 19 6 23 -3 58 -14 58 -5 0 -18 -6 -29 -12 -15 -10 -27 -10 -51 -1 -25 10
-38 9 -71 -4 -32 -13 -47 -14 -70 -5 -16 6 -35 9 -43 6 -9 -4 -13 4 -12 29 1
39 -7 36 117 40 41 2 88 7 103 11 18 6 32 5 40 -3 16 -16 27 -14 27 7 0 27
-61 81 -85 75 -11 -2 -39 -6 -63 -8 -24 -2 -50 -9 -58 -16 -11 -9 -21 -9 -39
-1 -16 8 -33 8 -49 2 -14 -5 -43 -8 -65 -7 l-40 1 48 32 c26 18 61 49 77 69
l29 36 35 -30 c19 -17 40 -30 46 -31 5 0 21 14 34 32 l23 31 24 -47 c32 -62
79 -85 122 -60 29 17 71 80 71 105 0 8 -15 26 -34 41 -34 27 -35 28 -41 7 -7
-21 -13 -46 -14 -61 -2 -18 -32 -6 -39 15 -8 21 -6 115 3 204 l5 43 -38 -6
c-20 -3 -58 -6 -83 -8 l-46 -2 9 45 c4 24 6 47 3 49 -3 3 -28 6 -55 6 -49 1
-50 0 -56 -32 -4 -18 -4 -42 -2 -55 4 -21 2 -22 -67 -21 -39 1 -80 6 -92 12
-11 6 -23 9 -26 6 -3 -3 -21 -7 -39 -8 -31 -1 -34 1 -32 25 1 15 5 35 8 46 7
22 -14 33 -67 33 -27 0 -27 -1 -23 -52z m231 -152 l25 2 -20 -25 -20 -26 46
-21 47 -21 -38 -33 c-20 -19 -58 -43 -84 -55 -25 -12 -48 -23 -50 -24 -2 -2
13 -18 35 -37 l39 -34 -35 -6 c-19 -3 -60 -3 -90 -1 -30 3 -66 5 -80 6 -21 1
-18 4 20 22 43 21 45 24 47 67 4 88 4 88 27 88 73 2 98 18 94 62 -3 25 -20 32
-48 20 -8 -4 -27 -10 -41 -13 -24 -6 -25 -4 -21 23 4 31 15 36 75 31 16 -1 27
3 28 11 0 7 5 1 10 -13 7 -20 16 -26 34 -23z m285 12 c0 -4 -4 -10 -10 -13
-13 -8 -13 -61 1 -87 20 -37 -5 -44 -53 -13 -40 25 -44 31 -41 63 1 20 4 41 7
47 4 11 96 14 96 3z m-177 -18 c-6 -24 -12 -24 -38 -3 -13 10 -15 14 -4 10 9
-3 22 -1 30 4 8 5 15 9 16 9 0 0 -1 -9 -4 -20z"/>
</g>
</svg>
