<?xml version="1.0" standalone="no"?>
<!DOCTYPE svg PUBLIC "-//W3C//DTD SVG 20010904//EN"
 "http://www.w3.org/TR/2001/REC-SVG-20010904/DTD/svg10.dtd">
<svg version="1.0" xmlns="http://www.w3.org/2000/svg"
 width="101.000000pt" height="101.000000pt" viewBox="0 0 101.000000 101.000000"
 preserveAspectRatio="xMidYMid meet">
<metadata>
Created by potrace 1.16, written by Peter Selinger 2001-2019
</metadata>
<g transform="translate(0.000000,101.000000) scale(0.100000,-0.100000)"
fill="#000000" stroke="none">
<path d="M178 1003 c-19 -5 -25 -33 -8 -33 11 0 13 -55 4 -121 -5 -40 -9 -44
-33 -44 -14 1 -36 4 -48 9 -33 11 -63 -9 -63 -42 0 -47 14 -57 75 -57 44 0 55
-3 55 -16 0 -9 3 -43 6 -76 l7 -60 -72 -28 c-39 -16 -71 -33 -71 -39 0 -18 20
-86 26 -86 2 0 29 14 58 30 l54 31 1 -23 c0 -13 3 -57 6 -98 7 -104 -5 -125
-69 -124 -40 2 -47 -1 -42 -15 24 -74 33 -90 48 -94 21 -6 107 18 123 34 6 6
11 72 12 157 2 207 -3 188 62 218 55 24 58 27 59 64 1 21 -2 42 -8 45 -5 3
-31 -5 -57 -19 l-49 -24 1 69 c0 57 3 68 15 63 29 -11 75 -15 87 -6 7 4 15 22
19 38 9 46 -17 67 -76 62 l-48 -3 4 62 c2 34 6 72 9 85 5 20 1 25 -28 36 -18
7 -35 11 -38 11 -2 -1 -12 -3 -21 -6z"/>
<path d="M885 960 c-11 -4 -57 -5 -102 -2 -51 3 -87 1 -95 -6 -16 -13 -175
-15 -183 -2 -6 10 -66 12 -97 3 -14 -3 -18 -15 -18 -54 0 -27 5 -49 10 -49 6
0 10 -16 10 -35 0 -19 -5 -35 -11 -35 -7 0 -9 -44 -8 -132 3 -127 0 -163 -16
-253 -12 -66 -44 -140 -81 -189 -29 -39 -32 -46 -17 -46 11 0 35 -8 55 -19
l36 -18 25 46 c14 25 33 71 43 101 19 59 21 66 28 120 15 101 18 127 18 146 0
30 45 28 47 -1 0 -11 3 -58 6 -104 6 -99 -7 -185 -35 -223 l-20 -28 25 -40
c14 -22 28 -40 31 -40 10 0 147 101 165 121 14 15 15 25 6 58 l-11 40 -47 -35
-47 -34 -6 72 c-3 40 -4 100 -1 133 3 33 6 70 6 81 1 16 7 21 25 20 13 0 25
-8 25 -16 1 -8 3 -26 4 -40 5 -52 46 -159 83 -216 38 -59 125 -144 146 -144
10 0 101 80 94 83 -64 31 -108 58 -141 88 l-42 37 40 36 c22 19 53 40 68 47
15 6 26 17 24 23 -4 14 -66 56 -81 56 -6 -1 -26 -21 -44 -46 -44 -60 -46 -58
-68 62 -5 25 -4 25 123 26 73 1 83 3 89 20 8 27 -3 65 -21 71 -8 4 -30 0 -48
-8 -22 -9 -56 -13 -98 -10 -35 3 -72 5 -81 4 -28 0 -108 1 -163 4 l-50 2 0
115 0 116 64 -4 c36 -3 80 1 102 8 30 10 44 10 68 1 20 -9 56 -11 119 -6 85 7
91 9 97 32 12 49 -11 77 -50 63z"/>
<path d="M514 792 c-11 -10 -14 -25 -10 -45 9 -45 -10 -41 181 -34 82 3 135 1
142 -5 7 -6 23 -8 36 -4 21 5 24 11 23 48 -1 24 -5 46 -9 49 -4 3 -31 0 -60
-8 -57 -15 -183 -18 -189 -4 -1 4 -25 10 -51 13 -35 4 -52 2 -63 -10z"/>
</g>
</svg>
