<?xml version="1.0" standalone="no"?>
<!DOCTYPE svg PUBLIC "-//W3C//DTD SVG 20010904//EN"
 "http://www.w3.org/TR/2001/REC-SVG-20010904/DTD/svg10.dtd">
<svg version="1.0" xmlns="http://www.w3.org/2000/svg"
 width="101.000000pt" height="101.000000pt" viewBox="0 0 101.000000 101.000000"
 preserveAspectRatio="xMidYMid meet">
<metadata>
Created by potrace 1.16, written by Peter Selinger 2001-2019
</metadata>
<g transform="translate(0.000000,101.000000) scale(0.100000,-0.100000)"
fill="#000000" stroke="none">
<path d="M540 1000 c0 -5 5 -10 11 -10 11 0 6 -157 -7 -236 -5 -30 -4 -32 33
-41 l38 -9 -50 -17 c-62 -21 -105 -28 -175 -27 -75 0 -89 -10 -61 -45 11 -15
21 -34 21 -41 0 -14 7 -14 115 0 62 8 314 114 364 153 8 5 -41 52 -61 59 -12
3 -31 -3 -51 -19 -49 -37 -78 -51 -71 -34 3 8 -2 20 -11 27 -16 14 -21 75 -6
85 5 3 9 31 9 63 -1 31 2 67 6 80 7 21 5 22 -48 22 -31 0 -56 -4 -56 -10z"/>
<path d="M150 963 c-11 -14 -19 -30 -18 -34 2 -4 34 -24 73 -44 l70 -36 22 28
c13 15 23 33 23 39 0 9 -127 74 -144 74 -3 0 -14 -12 -26 -27z"/>
<path d="M732 938 c-18 -11 -32 -22 -32 -24 0 -6 174 -174 180 -174 3 0 21 14
40 30 l35 30 -40 36 c-22 20 -65 55 -96 79 l-55 43 -32 -20z"/>
<path d="M407 927 c-8 -7 -20 -28 -27 -47 -8 -19 -24 -52 -37 -72 -13 -21 -23
-41 -23 -46 0 -7 64 -32 83 -32 6 0 99 172 95 175 -2 2 -20 10 -40 18 -28 12
-40 13 -51 4z"/>
<path d="M88 829 c-20 -35 -23 -49 -8 -49 6 0 38 -13 73 -30 l62 -30 22 28
c13 15 23 32 23 37 0 8 -78 46 -145 71 -5 2 -18 -10 -27 -27z"/>
<path d="M261 721 c-13 -10 -64 -38 -112 -61 l-88 -43 21 -41 c26 -52 25 -51
42 -37 11 9 17 4 30 -30 l17 -41 154 3 c145 4 153 3 152 -15 -1 -17 -9 -18
-119 -11 -133 8 -174 2 -183 -25 -11 -35 12 -60 55 -60 22 0 40 5 40 10 0 15
67 12 73 -2 4 -10 7 -10 15 0 6 9 27 12 62 10 46 -3 54 -6 55 -25 1 -20 -3
-21 -74 -22 -42 0 -119 -3 -171 -5 -52 -3 -102 -1 -111 4 -38 21 -74 -13 -62
-60 4 -16 11 -18 47 -14 82 11 133 13 253 7 l122 -6 -4 -28 c-6 -45 -13 -50
-66 -45 -27 3 -49 4 -49 2 0 -1 9 -19 20 -41 11 -22 20 -45 20 -51 0 -28 149
9 151 38 1 7 3 29 5 48 2 19 4 45 5 56 1 15 8 22 23 23 76 6 231 5 287 -1 66
-7 67 -7 72 18 8 44 -2 65 -28 58 -22 -5 -286 -9 -330 -4 -12 1 -21 10 -22 19
-2 18 36 22 194 21 80 -1 83 0 89 25 13 51 7 53 -143 52 -133 -2 -138 -1 -138
18 0 19 5 20 63 17 62 -4 122 11 122 30 0 6 22 9 55 6 59 -5 58 -6 16 50 -21
29 -29 33 -55 27 -30 -6 -44 -9 -116 -21 -119 -19 -431 -38 -439 -26 -3 5 -17
12 -30 13 -19 3 -9 13 58 53 62 37 80 53 75 65 -6 16 -12 39 -13 54 -1 12 -14
8 -40 -12z"/>
</g>
</svg>
