<?xml version="1.0" standalone="no"?>
<!DOCTYPE svg PUBLIC "-//W3C//DTD SVG 20010904//EN"
 "http://www.w3.org/TR/2001/REC-SVG-20010904/DTD/svg10.dtd">
<svg version="1.0" xmlns="http://www.w3.org/2000/svg"
 width="101.000000pt" height="101.000000pt" viewBox="0 0 101.000000 101.000000"
 preserveAspectRatio="xMidYMid meet">
<metadata>
Created by potrace 1.16, written by Peter Selinger 2001-2019
</metadata>
<g transform="translate(0.000000,101.000000) scale(0.100000,-0.100000)"
fill="#000000" stroke="none">
<path d="M520 947 c-35 -62 -139 -177 -159 -177 -6 0 -11 6 -11 14 0 11 -11
14 -42 12 l-43 -2 2 75 c0 42 4 84 8 93 9 23 -29 41 -71 34 -24 -5 -32 -11
-27 -22 3 -8 2 -51 -2 -97 l-6 -82 -62 0 -62 0 -3 -31 c-5 -48 20 -66 82 -62
l51 3 2 -87 2 -87 -67 -22 c-37 -12 -69 -23 -71 -25 -5 -5 30 -104 38 -104 4
0 11 4 17 8 5 5 25 19 45 31 l37 21 1 -22 c1 -13 3 -58 4 -100 2 -88 -11 -112
-63 -114 -65 -3 -62 -1 -45 -34 9 -17 14 -34 11 -38 -7 -11 7 -30 24 -33 24
-4 96 20 121 40 21 17 23 26 21 91 -3 52 0 76 10 82 10 8 10 11 1 15 -15 6
-18 73 -3 73 6 0 10 20 10 44 0 43 1 45 45 61 49 19 60 39 50 92 -7 38 1 39
-78 -12 l-29 -19 7 70 c4 38 9 72 12 76 2 4 15 3 28 -2 24 -9 48 3 57 31 3 8
13 7 33 -4 18 -10 23 -16 14 -17 -14 0 -16 -18 -15 -140 1 -161 -2 -157 113
-144 35 3 63 2 63 -2 0 -5 -10 -25 -21 -44 -59 -97 -126 -155 -227 -196 l-53
-21 45 -37 c24 -20 47 -36 51 -36 12 0 101 65 149 110 27 25 66 71 87 102 41
65 39 70 42 -77 1 -49 6 -96 11 -104 12 -19 75 -43 89 -34 7 4 42 8 79 8 56 0
70 4 92 24 20 19 63 111 53 115 -3 2 -81 40 -88 44 -4 1 -11 -17 -18 -42 -6
-25 -15 -47 -20 -51 -14 -8 -73 -14 -88 -8 -19 7 -46 70 -37 84 4 7 9 24 10
38 1 14 5 40 8 58 4 28 1 33 -25 42 -16 5 -36 8 -44 4 -10 -3 -13 -1 -10 8 4
10 22 13 60 12 30 -1 57 3 61 8 3 5 32 7 70 3 l64 -7 -2 142 c-3 136 -4 142
-25 147 -11 3 -30 1 -41 -5 -13 -7 -35 -8 -57 -3 l-35 7 56 78 c31 43 54 80
51 83 -3 3 -22 1 -44 -5 -48 -14 -110 -14 -118 -1 -3 6 -28 9 -55 7 -53 -3
-53 -2 -1 55 l24 28 -34 14 c-73 30 -71 30 -109 -37z m178 -135 c9 -6 3 -20
-23 -54 l-36 -46 -87 4 c-48 2 -89 3 -92 4 -2 0 15 20 39 43 32 33 48 43 65
40 13 -3 27 0 30 6 8 13 85 15 104 3z m118 -234 l1 -68 -74 3 c-61 2 -72 4
-66 17 4 8 8 38 8 65 l0 50 65 0 65 0 1 -67z m-224 10 c3 -29 4 -57 2 -63 -2
-6 -26 -8 -54 -7 l-50 4 0 43 c0 24 -3 50 -6 59 -5 13 3 16 49 16 l54 0 5 -52z"/>
</g>
</svg>
