<?xml version="1.0" standalone="no"?>
<!DOCTYPE svg PUBLIC "-//W3C//DTD SVG 20010904//EN"
 "http://www.w3.org/TR/2001/REC-SVG-20010904/DTD/svg10.dtd">
<svg version="1.0" xmlns="http://www.w3.org/2000/svg"
 width="101.000000pt" height="101.000000pt" viewBox="0 0 101.000000 101.000000"
 preserveAspectRatio="xMidYMid meet">
<metadata>
Created by potrace 1.16, written by Peter Selinger 2001-2019
</metadata>
<g transform="translate(0.000000,101.000000) scale(0.100000,-0.100000)"
fill="#000000" stroke="none">
<path d="M175 1000 c4 -6 4 -53 0 -103 l-6 -92 -37 3 c-20 1 -48 3 -62 5 -31
3 -47 -35 -31 -75 9 -24 16 -28 51 -28 23 0 49 4 58 9 15 8 17 0 17 -86 l0
-96 -40 -14 c-22 -7 -53 -16 -69 -19 -17 -3 -32 -7 -34 -8 -5 -6 20 -96 29
-102 4 -2 31 7 58 21 61 30 59 30 60 3 0 -13 3 -55 6 -95 3 -40 1 -83 -5 -97
-8 -23 -15 -25 -54 -24 -51 3 -64 -5 -47 -26 10 -12 16 -36 20 -79 2 -23 159
29 163 55 1 7 3 76 4 153 3 196 -1 182 51 201 46 18 63 38 63 76 0 48 -14 53
-63 25 l-44 -26 1 73 1 73 51 -4 c49 -3 52 -2 58 23 14 55 -17 84 -68 64 -15
-5 -31 -10 -36 -10 -10 0 -5 155 5 183 4 9 6 17 4 17 -82 11 -111 11 -104 0z"/>
<path d="M405 947 c-4 -12 -2 -34 3 -47 4 -14 8 -64 8 -111 l-1 -87 227 0 226
0 1 116 c0 65 -2 124 -4 132 -4 12 -29 16 -130 18 -79 1 -125 -1 -125 -8 0 -5
-16 -10 -35 -10 -19 0 -35 5 -35 10 0 6 -28 10 -65 10 -59 0 -65 -2 -70 -23z
m370 -110 c0 -41 -1 -42 -40 -49 -63 -10 -175 -9 -175 2 0 6 -11 10 -24 10
-20 0 -24 6 -27 38 l-4 37 135 2 135 3 0 -43z"/>
<path d="M399 652 c-12 -6 -16 -25 -17 -94 -1 -49 2 -89 8 -93 14 -8 13 -68
-2 -83 -8 -8 -8 -15 0 -25 7 -8 10 -49 9 -105 -2 -80 0 -94 18 -112 20 -20 78
-35 120 -30 11 1 88 2 170 3 167 2 188 9 225 70 30 49 25 69 -25 99 l-44 26
-10 -29 c-5 -16 -8 -29 -5 -29 3 0 0 -9 -6 -19 -19 -36 -146 -48 -308 -28 -45
5 -52 15 -53 78 0 99 2 107 25 108 11 1 46 3 76 6 30 3 92 2 138 -1 79 -6 82
-7 78 -29 -5 -27 11 -34 66 -27 33 4 37 7 32 26 -6 25 -6 121 -1 216 3 41 0
68 -7 72 -19 13 -113 9 -142 -7 -31 -16 -90 -20 -96 -7 -4 11 -227 23 -249 14z
m197 -97 c0 -11 4 -32 8 -48 12 -39 -9 -61 -48 -52 -17 3 -42 7 -56 8 -21 2
-25 7 -22 32 1 17 3 40 3 53 1 16 6 21 18 18 9 -3 23 -1 31 4 25 17 65 8 66
-15z m200 0 c0 -11 4 -33 8 -48 12 -40 -11 -63 -51 -51 -15 4 -37 8 -48 8 -16
1 -19 7 -17 31 1 17 3 40 3 53 1 16 6 21 18 18 9 -3 23 -1 31 4 24 16 55 7 56
-15z"/>
</g>
</svg>
