<?xml version="1.0" standalone="no"?>
<!DOCTYPE svg PUBLIC "-//W3C//DTD SVG 20010904//EN"
 "http://www.w3.org/TR/2001/REC-SVG-20010904/DTD/svg10.dtd">
<svg version="1.0" xmlns="http://www.w3.org/2000/svg"
 width="101.000000pt" height="101.000000pt" viewBox="0 0 101.000000 101.000000"
 preserveAspectRatio="xMidYMid meet">
<metadata>
Created by potrace 1.16, written by Peter Selinger 2001-2019
</metadata>
<g transform="translate(0.000000,101.000000) scale(0.100000,-0.100000)"
fill="#000000" stroke="none">
<path d="M596 866 l5 -143 -91 1 c-68 1 -93 -3 -99 -13 -12 -19 -12 -119 -1
-126 14 -8 13 -148 -1 -162 -7 -7 -8 -60 -3 -166 8 -171 7 -169 73 -159 l33 4
-8 52 c-7 46 -8 69 -3 142 1 15 8 22 23 23 11 0 48 3 81 6 92 8 208 -4 201
-20 -3 -8 1 -28 7 -45 11 -28 10 -34 -10 -50 -14 -11 -35 -16 -57 -14 -37 2
-44 -4 -25 -23 8 -8 13 -28 18 -74 3 -28 116 -3 147 32 21 23 33 139 15 139
-6 0 -11 18 -11 45 0 25 5 45 10 45 6 0 10 30 10 70 0 40 -4 70 -10 70 -6 0
-10 32 -10 75 0 43 4 75 10 75 6 0 10 18 10 40 0 38 -2 40 -27 38 -16 -1 -43
-1 -61 0 l-33 2 33 48 c18 26 50 66 72 90 44 48 45 45 -26 82 l-38 20 -21 -42
c-12 -24 -39 -69 -60 -100 l-39 -58 37 -15 c43 -18 39 -25 -15 -28 l-41 -2 -7
72 c-4 47 -3 78 4 86 6 7 10 27 10 44 -1 18 5 39 11 47 21 25 3 36 -59 36
l-60 0 6 -144z m209 -266 l0 -40 -150 2 -150 3 3 35 4 35 146 3 147 3 0 -41z
m-13 -115 c8 -3 14 -23 16 -49 l1 -44 -72 -6 c-39 -4 -99 -4 -132 -1 -33 3
-70 5 -82 6 -20 1 -22 6 -21 43 l2 41 53 -2 c29 -1 55 2 58 7 5 9 155 13 177
5z"/>
<path d="M172 940 c0 -30 4 -60 10 -67 5 -6 8 -29 6 -50 l-3 -38 -67 1 c-63 1
-67 0 -73 -23 -14 -58 18 -80 101 -70 l44 5 0 -75 0 -74 -32 -14 c-18 -7 -46
-15 -63 -18 -57 -10 -64 -16 -55 -48 5 -17 7 -36 5 -42 -8 -21 12 -42 27 -30
7 6 34 20 59 31 l47 20 1 -22 c0 -11 3 -52 6 -91 3 -38 0 -85 -6 -102 -10 -31
-13 -32 -54 -31 -50 3 -63 -5 -46 -26 10 -12 17 -38 20 -79 1 -11 82 -2 108
11 44 24 48 39 49 181 3 200 0 192 59 210 50 16 50 16 49 59 -1 23 -3 45 -7
48 -3 3 -23 -4 -46 -15 -22 -12 -42 -21 -43 -21 -2 0 -1 29 0 65 3 52 7 65 20
66 25 2 25 2 48 -5 44 -13 73 54 38 88 -8 9 -20 13 -26 10 -5 -3 -27 -7 -49
-8 l-39 -1 6 85 c4 47 11 91 17 98 15 19 2 25 -56 26 l-54 1 -1 -55z"/>
<path d="M410 943 c-19 -8 -37 -16 -39 -18 -2 -2 19 -38 47 -79 27 -41 52 -80
54 -87 3 -8 17 -6 52 9 l47 21 -58 85 c-32 47 -60 85 -63 85 -3 0 -21 -7 -40
-16z"/>
</g>
</svg>
