<?xml version="1.0" standalone="no"?>
<!DOCTYPE svg PUBLIC "-//W3C//DTD SVG 20010904//EN"
 "http://www.w3.org/TR/2001/REC-SVG-20010904/DTD/svg10.dtd">
<svg version="1.0" xmlns="http://www.w3.org/2000/svg"
 width="101.000000pt" height="101.000000pt" viewBox="0 0 101.000000 101.000000"
 preserveAspectRatio="xMidYMid meet">
<metadata>
Created by potrace 1.16, written by Peter Selinger 2001-2019
</metadata>
<g transform="translate(0.000000,101.000000) scale(0.100000,-0.100000)"
fill="#000000" stroke="none">
<path d="M178 1004 c13 -6 15 -42 6 -132 l-7 -60 -66 1 c-71 2 -80 -6 -67 -59
6 -22 9 -23 69 -19 l62 5 0 -90 c0 -96 2 -93 -57 -106 -13 -3 -30 -7 -38 -9
-8 -2 -21 -4 -27 -4 -8 -1 -11 -12 -9 -28 5 -44 18 -84 25 -81 14 8 103 48
106 48 1 0 3 -10 4 -22 0 -13 3 -57 6 -98 7 -106 -5 -125 -73 -124 -44 0 -52
-2 -47 -15 4 -9 11 -35 18 -58 10 -40 12 -41 47 -38 45 4 104 28 116 46 5 8
10 75 10 149 3 197 1 192 53 211 52 19 65 39 57 85 l-7 34 -51 -26 -51 -26 6
39 c4 21 7 52 7 70 0 32 1 32 60 39 62 7 78 22 66 62 -5 14 -17 17 -68 17
l-63 0 1 40 c2 48 12 93 25 118 14 26 7 30 -64 34 -34 1 -56 0 -49 -3z"/>
<path d="M428 973 c-9 -2 -19 -12 -22 -21 -8 -31 -5 -86 6 -99 6 -8 8 -54 4
-127 l-5 -115 27 -5 c34 -7 294 -7 388 0 l71 6 2 53 c1 29 -2 56 -8 59 -13 8
-13 173 -1 181 6 4 9 20 8 36 l-2 30 -106 -1 c-58 -1 -159 0 -225 3 -66 3
-128 3 -137 0z m367 -117 l0 -34 -83 -7 c-58 -5 -87 -3 -97 5 -8 7 -35 10 -62
8 -47 -3 -48 -3 -49 27 l0 30 145 3 146 2 0 -34z m-3 -137 l4 -28 -150 5
c-147 4 -151 5 -154 27 -3 22 -2 22 147 23 l149 1 4 -28z"/>
<path d="M403 550 c-24 -10 -31 -51 -15 -77 8 -13 79 -12 100 1 6 3 35 4 64 0
l54 -6 2 -44 c1 -41 0 -43 -31 -49 -17 -3 -68 -3 -112 0 -116 8 -126 8 -133 1
-7 -8 -6 -75 1 -83 7 -6 42 -6 87 2 58 10 133 14 161 9 19 -4 27 -12 28 -27 5
-76 5 -96 -2 -133 -9 -47 2 -55 60 -47 26 4 32 10 36 36 3 18 -2 46 -10 64
-11 23 -12 36 -4 51 6 12 8 27 5 35 -6 17 -3 17 116 19 41 1 91 -2 111 -7 34
-7 37 -5 41 20 11 58 7 60 -115 62 -170 2 -157 -2 -155 49 2 33 6 43 16 39 7
-3 22 0 33 5 13 8 44 8 101 0 65 -9 83 -9 89 2 14 21 10 55 -7 72 -17 18 -75
21 -90 6 -11 -11 -53 -13 -211 -11 -66 1 -154 9 -178 15 -11 3 -30 1 -42 -4z"/>
</g>
</svg>
