<?xml version="1.0" standalone="no"?>
<!DOCTYPE svg PUBLIC "-//W3C//DTD SVG 20010904//EN"
 "http://www.w3.org/TR/2001/REC-SVG-20010904/DTD/svg10.dtd">
<svg version="1.0" xmlns="http://www.w3.org/2000/svg"
 width="101.000000pt" height="102.000000pt" viewBox="0 0 101.000000 102.000000"
 preserveAspectRatio="xMidYMid meet">
<metadata>
Created by potrace 1.16, written by Peter Selinger 2001-2019
</metadata>
<g transform="translate(0.000000,102.000000) scale(0.100000,-0.100000)"
fill="#000000" stroke="none">
<path d="M584 985 c-3 -20 -4 -56 -1 -81 l5 -45 -118 7 c-114 6 -118 6 -125
-15 -3 -11 -4 -25 0 -30 3 -6 -12 -9 -37 -8 l-43 2 2 60 c1 33 6 75 12 93 11
35 13 34 -57 36 -30 1 -43 -3 -46 -14 -8 -29 -5 -85 5 -97 6 -6 9 -27 7 -45
-3 -33 -4 -33 -50 -31 -68 4 -98 -10 -98 -44 0 -48 14 -58 77 -58 l58 0 0 -85
0 -84 -62 -19 -63 -19 5 -45 c2 -25 8 -50 13 -55 6 -6 29 0 60 16 l50 25 1
-22 c0 -12 3 -59 6 -103 3 -45 1 -93 -5 -108 -9 -24 -12 -25 -64 -21 l-55 5
27 -54 c29 -58 36 -62 92 -46 74 20 75 22 77 187 2 210 -2 192 54 217 26 11
50 26 53 32 2 6 -1 29 -7 51 l-10 40 -45 -25 c-39 -22 -45 -23 -39 -8 4 10 7
41 7 70 l0 52 33 -4 c41 -5 67 18 67 59 0 29 1 29 58 29 31 0 80 -3 107 -6
l50 -6 0 -44 0 -43 -70 4 c-38 3 -79 7 -90 10 -37 10 -50 -10 -48 -67 2 -51 4
-128 4 -165 0 -10 0 -63 0 -118 0 -55 -2 -120 -4 -145 -3 -25 -2 -64 0 -87 6
-45 18 -53 71 -45 31 4 32 5 26 43 -6 36 -8 107 -4 155 2 15 9 22 24 23 11 0
37 2 56 3 32 3 35 1 38 -27 2 -16 3 -62 2 -101 -1 -78 7 -88 65 -77 26 5 26 7
25 82 -2 111 0 123 16 117 8 -3 25 -1 38 6 31 13 80 2 73 -17 -3 -7 -1 -27 6
-44 15 -40 -10 -71 -55 -66 -16 3 -28 1 -26 -3 2 -4 12 -29 23 -55 19 -47 21
-48 55 -42 19 3 46 14 60 24 23 17 25 25 27 112 2 100 2 166 1 319 0 52 2 112
5 133 l5 38 -56 -8 c-51 -7 -79 -7 -147 -2 -16 1 -20 9 -20 39 l0 37 116 7
c64 3 123 4 132 0 19 -7 31 27 23 61 -7 28 -29 38 -59 24 -14 -6 -32 -7 -46
-1 -24 8 -24 8 8 21 17 8 31 17 31 21 0 4 -18 28 -41 53 l-40 47 -40 -20 c-21
-11 -39 -23 -39 -26 0 -3 14 -25 30 -49 17 -24 30 -46 30 -48 0 -3 -24 -4 -53
-3 l-54 1 4 55 c2 30 4 64 6 75 2 17 -5 20 -50 23 l-52 3 -7 -36z m1 -400 l0
-50 -35 3 c-19 1 -45 3 -57 3 -20 1 -22 6 -21 45 2 34 6 43 18 39 8 -2 22 0
30 5 8 6 26 9 40 8 23 -3 25 -7 25 -53z m210 47 c6 -4 11 -26 13 -49 2 -38 0
-43 -24 -49 -14 -4 -36 -2 -50 4 -13 7 -30 9 -39 6 -12 -5 -14 3 -13 40 2 36
6 45 18 41 8 -2 22 0 30 5 18 11 51 13 65 2z m-210 -207 l0 -50 -35 3 c-19 1
-45 3 -57 3 -20 1 -22 6 -21 45 2 34 6 43 18 39 8 -2 22 0 30 5 8 6 26 9 40 8
23 -3 25 -7 25 -53z m210 47 c6 -4 11 -26 13 -49 2 -38 0 -43 -24 -49 -14 -4
-36 -2 -50 4 -13 7 -30 9 -39 6 -12 -5 -14 3 -13 40 2 36 6 45 18 41 8 -2 22
0 30 5 18 11 51 13 65 2z"/>
</g>
</svg>
