<?xml version="1.0" standalone="no"?>
<!DOCTYPE svg PUBLIC "-//W3C//DTD SVG 20010904//EN"
 "http://www.w3.org/TR/2001/REC-SVG-20010904/DTD/svg10.dtd">
<svg version="1.0" xmlns="http://www.w3.org/2000/svg"
 width="101.000000pt" height="101.000000pt" viewBox="0 0 101.000000 101.000000"
 preserveAspectRatio="xMidYMid meet">
<metadata>
Created by potrace 1.16, written by Peter Selinger 2001-2019
</metadata>
<g transform="translate(0.000000,101.000000) scale(0.100000,-0.100000)"
fill="#000000" stroke="none">
<path d="M199 1003 c-11 -3 -15 -11 -12 -24 3 -10 2 -52 -2 -93 l-6 -74 -67 2
c-66 1 -67 0 -70 -26 -4 -38 15 -71 36 -63 9 4 38 8 65 9 l47 2 -1 -71 c-2
-112 -5 -117 -77 -134 l-63 -15 5 -40 c4 -41 15 -76 22 -76 3 0 27 11 54 25
60 30 58 30 59 3 0 -13 3 -54 6 -91 3 -47 0 -80 -10 -103 -14 -33 -15 -34 -65
-29 l-50 5 13 -28 c8 -15 17 -39 20 -53 4 -15 16 -29 28 -32 25 -7 115 19 126
36 4 6 9 77 10 157 2 213 -1 201 60 225 l53 20 -4 43 c-2 24 -6 46 -9 48 -3 3
-23 -4 -46 -15 -22 -12 -42 -21 -43 -21 -2 0 -2 31 0 69 3 66 5 69 30 74 15 3
39 3 53 0 21 -4 27 0 32 19 16 58 -6 80 -77 77 -47 -3 -51 -1 -54 20 -2 13 2
34 8 47 7 12 10 28 8 36 -3 7 -1 22 5 32 17 33 -29 54 -84 39z"/>
<path d="M440 909 c0 -37 4 -59 11 -59 12 0 7 -75 -7 -126 -6 -21 -4 -22 88
-18 160 6 202 6 241 -1 20 -4 52 -4 71 -1 l34 7 0 130 0 131 -36 -6 c-70 -13
-243 -18 -255 -8 -7 5 -42 10 -79 10 l-68 0 0 -59z m335 -75 c0 -44 0 -44 -31
-38 -19 3 -35 1 -38 -5 -9 -14 -49 -14 -63 0 -6 6 -33 9 -60 8 l-48 -4 0 40 0
40 120 2 120 1 0 -44z"/>
<path d="M865 660 c-4 -6 -90 -8 -235 -5 l-228 5 0 -179 c0 -198 -2 -193 67
-183 32 4 32 5 26 44 -5 29 -3 43 6 50 11 7 11 11 2 15 -15 6 -18 73 -3 73 6
0 10 18 10 40 l0 40 55 0 c30 0 55 5 55 10 0 6 16 10 35 10 20 0 35 -5 35 -11
0 -8 18 -10 58 -6 l57 6 -2 -52 c-1 -29 0 -89 4 -134 6 -88 11 -94 69 -86 l29
5 2 176 c1 170 -2 191 -29 192 -4 0 -10 -4 -13 -10z"/>
<path d="M612 541 c-8 -4 -13 -19 -12 -32 8 -116 -5 -171 -53 -225 -47 -54
-102 -78 -201 -89 -21 -2 -40 -6 -42 -8 -6 -6 76 -87 88 -87 5 0 43 14 84 31
89 37 165 102 189 161 17 44 20 58 30 141 2 26 10 57 16 68 12 24 9 29 -23 34
-12 2 -32 6 -43 9 -11 4 -26 2 -33 -3z"/>
<path d="M699 293 c-44 -53 -45 -50 19 -82 32 -16 78 -45 103 -63 70 -54 68
-53 105 -17 19 18 34 38 34 44 0 15 -217 135 -245 135 -1 0 -8 -8 -16 -17z"/>
</g>
</svg>
