<?xml version="1.0" standalone="no"?>
<!DOCTYPE svg PUBLIC "-//W3C//DTD SVG 20010904//EN"
 "http://www.w3.org/TR/2001/REC-SVG-20010904/DTD/svg10.dtd">
<svg version="1.0" xmlns="http://www.w3.org/2000/svg"
 width="101.000000pt" height="102.000000pt" viewBox="0 0 101.000000 102.000000"
 preserveAspectRatio="xMidYMid meet">
<metadata>
Created by potrace 1.16, written by Peter Selinger 2001-2019
</metadata>
<g transform="translate(0.000000,102.000000) scale(0.100000,-0.100000)"
fill="#000000" stroke="none">
<path d="M564 984 c-3 -19 -4 -45 -2 -59 l5 -25 -72 7 c-126 10 -174 -12 -145
-67 8 -15 21 -20 55 -20 25 0 45 5 45 10 0 6 11 10 25 10 14 0 25 -5 25 -11 0
-7 12 -9 34 -5 29 6 34 4 31 -11 -2 -10 -4 -22 -4 -28 -1 -11 -105 -11 -140 0
-27 8 -51 -10 -51 -39 0 -32 15 -48 41 -47 13 1 49 3 80 4 l56 2 -15 -32 c-12
-26 -22 -32 -58 -38 -24 -3 -52 -2 -62 4 -23 12 -62 3 -62 -14 0 -7 -6 -15
-12 -18 -7 -3 -30 -12 -50 -21 l-37 -16 2 70 2 70 30 0 c41 0 50 9 50 52 0 34
-3 37 -33 43 -18 3 -37 3 -42 0 -9 -5 -8 27 3 174 2 23 -1 25 -51 25 -47 1
-53 -1 -59 -22 -3 -13 0 -29 6 -35 12 -12 14 -53 4 -110 -6 -38 -6 -38 -42
-32 -51 8 -91 -8 -91 -37 0 -43 15 -53 77 -53 l58 0 0 -87 0 -88 -68 -17 -67
-17 4 -49 c3 -27 7 -52 10 -55 3 -3 18 1 33 8 16 7 42 19 59 26 37 15 34 24
37 -109 2 -70 0 -81 -20 -97 -14 -11 -35 -16 -59 -14 -36 2 -36 2 -29 -29 7
-30 12 -61 14 -80 2 -22 140 17 157 44 5 8 9 59 11 114 3 160 0 148 35 127 17
-9 32 -23 35 -29 8 -21 24 -15 74 27 51 43 65 49 55 25 -13 -36 3 -45 68 -40
l62 6 1 -35 c1 -32 -2 -36 -30 -41 -30 -5 -107 -2 -184 8 -24 3 -33 -1 -36
-15 -12 -45 24 -79 62 -59 18 10 123 13 162 5 19 -3 27 -12 28 -27 4 -63 3
-94 -3 -113 -9 -25 12 -34 62 -26 28 4 32 7 25 26 -7 19 -7 37 -2 112 1 25 2
25 147 27 108 1 108 1 103 52 -2 26 -20 35 -48 24 -21 -8 -109 -12 -174 -8
-24 1 -27 5 -26 34 1 33 2 33 43 30 23 -1 47 -5 52 -9 16 -10 43 24 37 45 -5
15 7 10 51 -21 l58 -41 33 38 c18 21 31 42 30 47 -2 5 -26 17 -55 28 -28 10
-73 39 -99 63 l-48 43 30 1 c17 1 53 2 82 2 54 0 66 10 56 47 -5 19 -13 20
-146 20 -198 0 -188 -2 -172 35 13 30 13 30 86 29 177 -5 185 -2 173 48 -7 31
-23 42 -49 33 -11 -4 -57 -8 -102 -8 -74 0 -80 1 -72 18 6 9 8 21 5 25 -2 4
47 7 109 5 92 -2 117 0 129 13 18 18 20 33 6 54 -7 12 -33 15 -122 15 l-113 0
3 35 c3 19 9 41 15 48 16 20 -7 30 -64 30 -47 1 -48 0 -55 -34z m-191 -417 c9
-4 29 -1 42 5 18 8 29 8 36 1 7 -7 -5 -23 -38 -53 -43 -38 -138 -100 -154
-100 -4 0 -6 15 -5 33 1 28 6 34 44 47 42 14 48 24 44 75 -1 11 1 15 5 9 5 -6
16 -13 26 -17z m307 1 c26 -31 79 -112 75 -116 -2 -2 -24 -6 -48 -7 -42 -3
-44 -2 -42 23 2 15 5 34 9 42 4 11 -4 18 -30 26 -59 19 -73 10 -71 -44 2 -46
2 -47 -28 -44 -16 1 -40 3 -52 3 -21 1 -19 6 22 52 25 29 45 55 45 60 0 5 8 6
18 3 9 -3 24 -1 32 4 21 14 57 12 70 -2z"/>
</g>
</svg>
