<?xml version="1.0" standalone="no"?>
<!DOCTYPE svg PUBLIC "-//W3C//DTD SVG 20010904//EN"
 "http://www.w3.org/TR/2001/REC-SVG-20010904/DTD/svg10.dtd">
<svg version="1.0" xmlns="http://www.w3.org/2000/svg"
 width="101.000000pt" height="101.000000pt" viewBox="0 0 101.000000 101.000000"
 preserveAspectRatio="xMidYMid meet">
<metadata>
Created by potrace 1.16, written by Peter Selinger 2001-2019
</metadata>
<g transform="translate(0.000000,101.000000) scale(0.100000,-0.100000)"
fill="#000000" stroke="none">
<path d="M542 965 c-30 -111 -111 -237 -199 -307 -23 -18 -42 -36 -42 -39 -1
-4 13 -12 30 -19 l31 -13 -43 -23 c-24 -13 -47 -23 -50 -24 -3 0 -5 37 -5 83
l1 82 55 3 c56 3 70 12 70 49 0 30 -33 46 -84 41 -42 -3 -42 -3 -39 27 2 17 5
53 7 82 2 29 7 57 11 63 11 18 0 22 -61 24 l-57 1 7 -102 7 -101 -61 1 c-62 2
-80 -8 -80 -43 0 -35 18 -45 77 -43 l58 1 3 -99 c2 -88 0 -99 -15 -100 -10 0
-27 -3 -38 -5 -11 -3 -33 -7 -49 -9 -16 -2 -30 -6 -33 -8 -2 -2 2 -27 8 -55
l12 -51 51 20 c28 10 54 19 57 19 8 0 9 -15 12 -123 2 -90 -4 -98 -71 -92 -24
2 -42 1 -40 -3 2 -4 12 -30 23 -59 18 -48 22 -52 45 -46 47 10 110 42 111 55
1 7 3 67 5 133 4 174 2 165 38 180 79 33 82 32 105 -30 12 -31 23 -69 25 -83
10 -81 16 -87 75 -76 37 8 38 15 10 108 -12 39 -22 76 -23 81 -9 47 -18 55
-54 54 -20 -2 -43 -7 -49 -12 -9 -6 -13 -5 -14 4 -5 54 -3 64 10 61 8 -2 26 9
41 23 27 25 28 26 33 6 5 -20 12 -21 134 -21 70 0 152 3 180 6 49 6 52 8 47
30 -8 30 3 30 60 -2 33 -18 46 -22 46 -12 0 7 14 30 31 51 35 42 34 46 -7 53
-75 14 -188 103 -256 202 -38 55 -37 50 -18 63 24 16 -11 36 -68 38 l-48 1
-12 -45z m188 -235 l55 -57 -74 -7 c-107 -9 -171 -7 -171 4 0 6 -11 10 -24 10
-24 0 -23 3 30 87 30 48 57 98 61 111 5 22 9 19 36 -33 17 -31 56 -83 87 -115z"/>
<path d="M734 555 c-4 -8 -4 -22 -1 -30 4 -8 2 -17 -3 -20 -5 -3 -9 -16 -9
-28 2 -34 -11 -95 -37 -179 l-24 -76 -63 -6 c-34 -4 -91 -4 -127 -1 -127 10
-123 11 -123 -35 0 -46 -1 -46 113 -35 142 13 218 14 289 4 42 -6 85 -10 96
-9 11 0 32 1 47 2 28 1 40 23 31 58 -5 18 -13 20 -72 19 -119 -1 -113 -15 -61
136 25 73 51 139 58 148 19 22 10 33 -45 51 -57 20 -62 20 -69 1z"/>
<path d="M568 536 c-31 -11 -33 -21 -17 -63 12 -33 19 -66 28 -150 0 -6 11
-10 24 -9 37 5 77 18 77 25 -1 3 -13 51 -29 105 -29 104 -35 110 -83 92z"/>
</g>
</svg>
