<?xml version="1.0" standalone="no"?>
<!DOCTYPE svg PUBLIC "-//W3C//DTD SVG 20010904//EN"
 "http://www.w3.org/TR/2001/REC-SVG-20010904/DTD/svg10.dtd">
<svg version="1.0" xmlns="http://www.w3.org/2000/svg"
 width="101.000000pt" height="101.000000pt" viewBox="0 0 101.000000 101.000000"
 preserveAspectRatio="xMidYMid meet">
<metadata>
Created by potrace 1.16, written by Peter Selinger 2001-2019
</metadata>
<g transform="translate(0.000000,101.000000) scale(0.100000,-0.100000)"
fill="#000000" stroke="none">
<path d="M175 979 c-4 -17 -4 -64 0 -103 l6 -71 -48 2 c-79 4 -88 -1 -88 -46
-1 -45 9 -51 81 -51 l41 0 7 -87 c5 -65 3 -89 -6 -95 -7 -4 -44 -15 -81 -25
-65 -17 -68 -19 -61 -43 6 -21 10 -42 13 -72 1 -4 30 6 66 23 35 16 66 29 69
29 2 0 4 -10 5 -22 0 -13 3 -54 6 -93 6 -98 -6 -120 -68 -121 -26 0 -50 -3
-53 -6 -3 -4 2 -20 10 -37 9 -16 16 -37 16 -46 0 -9 6 -18 14 -21 22 -9 93 15
123 40 28 24 28 25 30 158 2 193 -2 178 52 201 51 21 49 17 42 105 -1 9 -12 7
-41 -8 -21 -11 -42 -20 -45 -20 -3 0 -4 33 -2 73 l2 74 41 -5 c49 -5 77 17 72
57 -3 23 -9 27 -55 35 -51 8 -62 19 -53 51 2 6 7 33 11 60 4 28 9 59 11 70 3
18 -3 20 -54 23 -56 3 -56 3 -63 -29z"/>
<path d="M585 960 l4 -45 -97 2 c-53 2 -102 -1 -109 -5 -6 -4 -14 -19 -18 -33
-9 -37 18 -63 58 -55 17 3 60 9 96 12 l66 6 0 -29 0 -29 -57 4 c-85 6 -127 -4
-134 -33 -10 -40 11 -65 56 -65 22 0 40 5 40 10 0 11 57 12 80 2 8 -4 15 -20
15 -35 1 -30 -29 -46 -62 -32 -36 15 -139 22 -150 11 -8 -8 -8 -64 0 -72 6 -6
21 -6 107 1 82 6 108 -1 106 -30 -1 -29 -25 -36 -101 -29 -111 9 -108 10 -108
-36 0 -46 -7 -45 134 -36 74 5 77 4 78 -17 0 -12 3 -54 6 -94 3 -39 1 -82 -3
-94 -9 -22 -10 -22 -51 17 -47 44 -58 79 -34 106 15 16 14 18 -11 28 -63 23
-77 24 -83 1 -13 -52 -75 -164 -112 -204 -23 -24 -41 -47 -41 -50 0 -3 13 -8
30 -12 16 -4 32 -11 35 -16 14 -21 34 -5 75 64 l44 72 38 -41 c61 -67 191
-110 313 -104 11 1 41 1 68 1 30 0 47 5 47 12 0 7 9 30 21 51 11 21 18 41 15
43 -3 3 -25 1 -48 -6 -24 -6 -72 -9 -108 -6 -119 9 -115 8 -112 35 2 14 3 35
4 46 0 25 3 25 125 26 71 1 82 3 86 19 14 54 -31 80 -92 51 -27 -12 -39 -13
-63 -4 -16 6 -36 8 -43 6 -11 -4 -14 4 -12 35 1 30 5 40 14 37 7 -3 24 0 38 6
19 8 31 7 57 -5 18 -8 45 -13 60 -10 23 4 25 8 15 24 -9 14 -9 26 0 50 7 17
10 36 7 43 -3 8 9 12 37 13 50 2 52 5 52 43 0 38 -3 41 -49 43 l-39 1 1 62 1
61 -90 7 c-50 4 -92 8 -93 9 -1 1 -4 11 -8 22 -6 19 -2 20 124 18 119 -1 130
0 135 18 4 10 4 28 0 38 -5 17 -20 20 -110 26 -57 4 -115 5 -127 2 -21 -6 -23
-3 -22 28 1 18 5 38 9 44 7 12 5 12 -67 14 l-46 2 3 -45z m201 -295 c-2 -27
-5 -30 -31 -27 -17 1 -39 3 -51 3 -15 1 -21 8 -21 28 0 25 3 26 52 26 52 0 52
0 51 -30z m-2 -120 c0 -27 -3 -30 -30 -27 -16 1 -38 3 -49 3 -14 1 -20 9 -21
26 -2 18 2 22 15 19 9 -3 23 -1 31 4 8 6 24 9 35 8 15 -2 20 -10 19 -33z"/>
</g>
</svg>
