<?xml version="1.0" standalone="no"?>
<!DOCTYPE svg PUBLIC "-//W3C//DTD SVG 20010904//EN"
 "http://www.w3.org/TR/2001/REC-SVG-20010904/DTD/svg10.dtd">
<svg version="1.0" xmlns="http://www.w3.org/2000/svg"
 width="101.000000pt" height="102.000000pt" viewBox="0 0 101.000000 102.000000"
 preserveAspectRatio="xMidYMid meet">
<metadata>
Created by potrace 1.16, written by Peter Selinger 2001-2019
</metadata>
<g transform="translate(0.000000,102.000000) scale(0.100000,-0.100000)"
fill="#000000" stroke="none">
<path d="M162 985 c-1 -19 3 -37 8 -40 11 -7 13 -67 4 -100 -4 -16 -12 -20
-47 -18 -74 4 -82 -1 -82 -52 -1 -43 1 -45 34 -51 19 -4 46 -3 60 3 l26 9 -1
-90 -2 -90 -68 -34 c-38 -19 -70 -36 -72 -37 -4 -4 49 -85 55 -85 2 0 21 11
41 25 45 31 50 31 51 3 0 -13 3 -58 6 -100 7 -102 -3 -126 -49 -125 -46 1 -50
-4 -31 -39 8 -16 15 -37 15 -46 0 -20 19 -22 70 -8 67 19 65 14 67 192 1 90 2
173 3 186 3 31 79 75 139 79 25 2 66 6 91 8 25 2 93 1 151 -2 100 -5 107 -7
109 -27 6 -59 -1 -341 -8 -348 -8 -8 -23 -10 -76 -8 -25 1 -31 -7 -17 -24 6
-7 14 -28 16 -46 5 -38 7 -41 31 -41 68 0 131 31 140 67 4 14 6 58 5 98 -2 92
-2 275 0 303 1 20 6 21 54 18 50 -3 53 -1 58 22 12 62 -22 84 -96 64 -36 -10
-288 -18 -365 -11 -22 2 -20 4 15 27 21 14 55 42 76 62 l37 35 33 -17 c18 -10
57 -36 86 -58 l52 -40 32 28 c18 15 33 33 34 38 0 6 -41 33 -92 60 l-92 50
112 -1 c113 -2 113 -2 120 23 13 54 -23 84 -83 68 -15 -4 -58 -8 -95 -9 -64
-1 -68 0 -62 19 3 11 7 25 9 30 2 6 6 18 11 28 11 26 0 32 -59 32 l-53 0 0
-55 0 -55 -64 4 c-35 1 -67 5 -72 8 -4 2 -21 2 -37 -2 -32 -7 -45 -33 -36 -71
6 -23 8 -24 96 -20 50 3 90 2 90 0 0 -29 -79 -93 -122 -98 -13 -1 -31 -6 -41
-11 -16 -7 -15 -11 15 -35 l32 -27 -32 5 c-23 3 -33 0 -38 -12 -6 -16 -25 -23
-23 -8 5 30 -2 35 -23 16 -54 -47 -53 -48 -53 20 l0 62 39 -3 c44 -4 56 7 56
50 0 30 -28 47 -76 47 l-24 0 6 86 c8 97 4 104 -57 104 -34 0 -36 -2 -37 -35z"/>
<path d="M377 489 c-3 -12 -2 -29 2 -38 12 -23 13 -170 2 -209 -10 -35 -6 -38
54 -33 33 3 47 18 39 42 -3 12 2 17 18 18 13 0 36 2 53 3 25 3 30 -1 31 -20 2
-27 5 -31 30 -33 62 -6 60 -8 57 107 -1 58 1 114 7 123 5 10 6 28 3 40 -5 20
-10 22 -37 15 -36 -9 -130 -9 -202 0 -47 6 -52 5 -57 -15z m198 -99 l0 -45
-35 3 c-19 1 -45 3 -57 3 -19 1 -22 7 -20 40 1 30 5 38 17 34 8 -2 22 0 30 5
8 6 26 9 40 8 23 -3 25 -7 25 -48z"/>
</g>
</svg>
