<?xml version="1.0" standalone="no"?>
<!DOCTYPE svg PUBLIC "-//W3C//DTD SVG 20010904//EN"
 "http://www.w3.org/TR/2001/REC-SVG-20010904/DTD/svg10.dtd">
<svg version="1.0" xmlns="http://www.w3.org/2000/svg"
 width="101.000000pt" height="101.000000pt" viewBox="0 0 101.000000 101.000000"
 preserveAspectRatio="xMidYMid meet">
<metadata>
Created by potrace 1.16, written by Peter Selinger 2001-2019
</metadata>
<g transform="translate(0.000000,101.000000) scale(0.100000,-0.100000)"
fill="#000000" stroke="none">
<path d="M601 998 c-19 -7 -19 -9 -6 -41 8 -19 12 -37 8 -40 -3 -4 1 -17 9
-29 l15 -23 -71 1 c-39 0 -81 4 -92 8 -36 11 -74 -9 -74 -41 0 -38 13 -55 41
-54 13 0 52 0 86 0 33 0 64 5 68 11 8 13 52 13 61 -1 3 -6 17 -9 31 -6 13 2
30 -2 38 -10 13 -12 11 -23 -11 -80 -13 -37 -26 -69 -28 -71 -2 -2 -26 0 -52
4 -40 6 -45 8 -26 15 25 9 23 20 -16 87 -27 48 -22 46 -73 30 l-39 -11 24 -41
c46 -80 45 -82 -32 -80 -56 1 -76 -3 -124 -27 l-57 -29 2 64 2 63 47 -4 c40
-3 47 -1 53 17 4 11 4 33 0 49 -5 25 -10 28 -52 30 -26 1 -48 3 -50 4 -1 2 1
43 6 93 4 49 4 93 0 98 -5 5 -28 11 -51 12 l-43 3 -1 -112 -1 -112 -48 -3
c-30 -2 -51 1 -56 9 -12 21 -39 2 -39 -28 0 -46 14 -56 79 -61 l61 -4 0 -42
c0 -22 3 -57 6 -77 l6 -36 -78 -26 c-79 -26 -79 -26 -78 -61 2 -66 8 -70 61
-43 78 39 91 41 92 15 0 -13 3 -54 6 -91 3 -47 0 -80 -10 -103 -14 -33 -15
-34 -64 -29 -28 3 -51 2 -51 -1 0 -3 7 -18 15 -34 8 -16 15 -33 14 -37 -6 -39
26 -47 93 -22 28 10 56 23 62 29 7 7 12 69 13 158 2 209 -2 191 54 214 42 18
49 24 44 42 -6 19 -5 19 8 4 10 -12 23 -15 53 -11 21 3 82 5 134 5 195 -2 221
-1 268 0 26 1 61 -2 78 -6 29 -7 32 -6 36 19 12 58 2 66 -76 65 -121 -2 -118
-3 -99 34 8 17 24 43 34 58 11 14 19 30 19 36 0 9 -56 27 -74 23 -5 -1 -4 5 4
13 16 20 53 20 91 0 38 -19 65 -11 73 22 14 53 -21 87 -63 65 -23 -13 -114
-13 -151 -1 -14 4 -19 8 -12 9 8 1 11 12 8 34 -6 43 -14 75 -21 87 -7 11 -52
10 -84 -2z"/>
<path d="M449 473 c-21 -5 -31 -41 -18 -64 9 -18 4 -282 -6 -299 -7 -11 26
-18 64 -12 31 4 33 7 28 37 -5 28 -2 33 16 34 12 0 56 3 97 6 41 3 90 3 108 0
31 -6 32 -8 27 -39 -8 -38 7 -47 63 -38 l33 4 -8 47 c-9 51 -8 212 1 277 l5
41 -42 6 c-23 2 -62 3 -87 0 -69 -7 -233 -8 -250 -1 -8 3 -22 4 -31 1z m292
-79 c19 -3 27 -12 28 -27 5 -66 4 -107 -3 -114 -4 -4 -51 -7 -104 -6 -149 3
-141 1 -148 38 -3 18 -1 42 5 53 6 11 8 28 4 37 -5 14 -2 16 13 11 10 -3 25
-2 33 3 15 10 132 13 172 5z"/>
</g>
</svg>
