<?xml version="1.0" standalone="no"?>
<!DOCTYPE svg PUBLIC "-//W3C//DTD SVG 20010904//EN"
 "http://www.w3.org/TR/2001/REC-SVG-20010904/DTD/svg10.dtd">
<svg version="1.0" xmlns="http://www.w3.org/2000/svg"
 width="101.000000pt" height="102.000000pt" viewBox="0 0 101.000000 102.000000"
 preserveAspectRatio="xMidYMid meet">
<metadata>
Created by potrace 1.16, written by Peter Selinger 2001-2019
</metadata>
<g transform="translate(0.000000,102.000000) scale(0.100000,-0.100000)"
fill="#000000" stroke="none">
<path d="M458 980 c2 -22 1 -56 -2 -75 -5 -28 -12 -35 -29 -35 -35 0 -67 12
-61 22 3 5 -13 33 -36 64 -40 53 -41 54 -68 39 -60 -32 -60 -31 -18 -74 21
-21 35 -44 32 -50 -9 -13 -73 -15 -80 -2 -7 11 -88 12 -105 1 -13 -7 -14 -18
-10 -101 1 -25 -1 -51 -5 -57 -13 -22 4 -50 34 -57 60 -13 92 20 72 75 -4 14
-7 33 -4 43 4 18 33 21 158 17 29 -1 55 3 58 9 9 13 154 13 162 0 3 -6 57 -8
133 -4 l127 6 -2 -65 -2 -65 33 -7 c61 -11 70 -2 73 73 5 118 5 125 -9 134 -8
5 -56 8 -107 7 l-93 -3 48 41 47 41 -25 16 c-14 9 -38 19 -55 22 -27 5 -31 2
-64 -57 -34 -60 -37 -63 -70 -60 -19 2 -36 5 -38 7 -1 1 -3 32 -4 69 l-1 66
-46 0 -47 0 4 -40z"/>
<path d="M245 744 c-13 -13 -15 -31 -10 -102 3 -52 10 -89 18 -94 15 -11 131
0 135 13 5 12 72 12 72 -1 0 -5 18 -10 40 -10 22 0 40 5 40 10 0 15 67 12 73
-2 4 -10 8 -10 15 1 8 11 20 12 53 5 43 -9 54 -31 13 -26 -12 2 -39 -4 -59
-12 -42 -18 -91 -21 -99 -7 -8 12 -94 12 -101 0 -7 -11 -173 -10 -180 0 -6 11
-97 13 -113 3 -10 -7 -9 -16 3 -45 14 -35 30 -44 65 -37 8 1 67 3 131 4 115 1
117 1 115 -21 -1 -17 -9 -24 -31 -28 -30 -6 -130 -1 -216 9 -51 7 -62 -5 -52
-57 4 -23 9 -25 41 -20 78 10 179 14 219 8 33 -5 41 -10 40 -26 -1 -16 -9 -19
-57 -20 -30 -1 -102 -3 -159 -5 -57 -2 -111 1 -121 6 -40 21 -75 -13 -63 -60
5 -18 11 -20 57 -14 102 12 143 13 243 7 93 -5 102 -7 100 -24 -5 -33 -23 -44
-51 -31 -13 6 -33 8 -44 5 -19 -5 -19 -5 1 -54 l21 -49 55 5 c71 7 98 24 99
67 3 72 4 76 26 78 73 7 277 2 303 -7 57 -20 90 5 76 57 -5 19 -13 20 -182 19
-214 -1 -217 -1 -218 21 -2 21 -1 21 159 23 121 2 132 6 122 44 -5 16 -18 18
-122 20 -159 2 -157 2 -158 28 -2 26 -12 24 164 27 134 2 134 2 105 63 -13 27
-22 35 -36 31 -11 -3 -20 2 -23 12 -3 9 -10 25 -15 34 -12 24 -11 88 2 88 6 0
9 14 7 33 l-3 32 -96 -4 c-61 -2 -99 1 -103 8 -8 12 -114 13 -122 0 -7 -12
-51 -11 -59 1 -10 17 -102 12 -120 -6z m410 -87 l0 -24 -161 1 c-155 1 -160 2
-156 21 3 19 13 20 160 23 l157 3 0 -24z"/>
</g>
</svg>
