<?xml version="1.0" standalone="no"?>
<!DOCTYPE svg PUBLIC "-//W3C//DTD SVG 20010904//EN"
 "http://www.w3.org/TR/2001/REC-SVG-20010904/DTD/svg10.dtd">
<svg version="1.0" xmlns="http://www.w3.org/2000/svg"
 width="101.000000pt" height="101.000000pt" viewBox="0 0 101.000000 101.000000"
 preserveAspectRatio="xMidYMid meet">
<metadata>
Created by potrace 1.16, written by Peter Selinger 2001-2019
</metadata>
<g transform="translate(0.000000,101.000000) scale(0.100000,-0.100000)"
fill="#000000" stroke="none">
<path d="M178 1003 c-19 -5 -25 -23 -8 -23 11 0 13 -50 4 -125 l-6 -50 -52 2
c-53 1 -66 -7 -66 -44 0 -33 27 -53 71 -53 35 0 39 -3 39 -25 0 -14 5 -25 10
-25 15 0 12 -86 -3 -98 -7 -6 -26 -13 -42 -16 -17 -4 -43 -9 -60 -12 -16 -3
-30 -6 -32 -7 -1 -2 5 -26 13 -55 l15 -52 49 25 c60 30 58 30 59 3 9 -121 5
-188 -11 -204 -14 -14 -22 -15 -42 -6 -13 6 -33 8 -45 5 l-21 -5 20 -33 c11
-18 20 -40 20 -49 0 -26 38 -34 84 -19 69 24 71 28 73 181 2 193 -2 178 52
193 52 14 61 23 61 59 0 47 -12 53 -62 31 -26 -11 -49 -17 -52 -14 -3 4 -6 35
-6 70 l0 65 29 -7 c39 -8 79 3 86 25 8 25 -5 71 -19 69 -6 -1 -27 -1 -47 0
l-36 1 5 73 c2 39 9 80 14 90 14 27 -41 44 -94 30z"/>
<path d="M400 963 c-8 -3 -18 -11 -22 -16 -9 -15 -8 -96 2 -102 13 -8 11 -173
-2 -181 -6 -4 -9 -47 -7 -108 4 -171 -29 -293 -106 -384 l-26 -31 41 -11 c23
-6 47 -13 54 -16 15 -6 65 99 92 191 27 91 28 100 38 273 9 146 3 137 82 132
18 -1 35 4 39 10 6 9 48 10 162 5 l155 -8 -7 82 c-5 59 -4 86 5 96 7 8 10 25
6 38 -6 24 -8 24 -128 25 -68 0 -177 2 -243 5 -66 3 -127 3 -135 0z m415 -121
l0 -38 -62 3 c-34 2 -64 -1 -68 -7 -8 -13 -52 -13 -60 1 -4 6 -37 9 -83 7
l-77 -3 0 35 -1 35 176 2 176 2 -1 -37z"/>
<path d="M672 699 c-23 -9 -24 -11 -17 -104 l7 -94 -40 2 c-41 1 -41 1 -37 37
7 59 14 100 19 109 9 14 -48 33 -76 26 l-26 -7 3 -124 c1 -93 -1 -124 -10
-124 -17 0 -26 -39 -15 -61 6 -9 8 -60 7 -112 -4 -89 -2 -96 16 -101 11 -3 28
-1 38 5 19 10 33 10 190 2 103 -5 106 -6 102 -28 -5 -25 18 -36 60 -28 20 4
26 12 30 41 2 21 -2 54 -11 74 -9 25 -11 48 -6 65 4 16 9 37 10 48 1 11 4 27
5 35 5 34 -2 48 -27 53 -55 10 -86 -22 -63 -65 5 -10 7 -40 3 -68 l-7 -49 -43
1 c-50 3 -56 15 -49 108 3 30 5 65 6 78 1 15 6 22 14 18 8 -3 27 0 44 7 24 9
36 9 51 -1 42 -26 51 -17 49 51 -2 68 5 130 16 148 11 16 -14 29 -57 29 -32 0
-37 -3 -43 -30 -4 -16 -3 -54 0 -84 l7 -55 -41 2 -42 1 7 71 c3 38 8 81 10 95
6 38 -31 51 -84 29z m-26 -257 c5 -4 11 -16 12 -27 9 -89 10 -150 1 -172 -8
-21 -14 -24 -37 -19 -15 4 -38 8 -52 9 -26 2 -27 10 -15 77 14 80 13 99 -6
105 -10 4 -19 11 -19 16 0 6 8 8 18 5 9 -3 24 -1 32 4 18 11 51 13 66 2z"/>
</g>
</svg>
