<?xml version="1.0" standalone="no"?>
<!DOCTYPE svg PUBLIC "-//W3C//DTD SVG 20010904//EN"
 "http://www.w3.org/TR/2001/REC-SVG-20010904/DTD/svg10.dtd">
<svg version="1.0" xmlns="http://www.w3.org/2000/svg"
 width="101.000000pt" height="101.000000pt" viewBox="0 0 101.000000 101.000000"
 preserveAspectRatio="xMidYMid meet">
<metadata>
Created by potrace 1.16, written by Peter Selinger 2001-2019
</metadata>
<g transform="translate(0.000000,101.000000) scale(0.100000,-0.100000)"
fill="#000000" stroke="none">
<path d="M185 948 c0 -35 4 -71 9 -80 4 -9 6 -27 4 -40 -3 -21 -7 -22 -70 -21
-64 2 -68 1 -74 -22 -3 -13 0 -33 6 -45 11 -20 18 -22 69 -18 l56 6 2 -88 2
-87 -69 -24 c-74 -25 -81 -34 -65 -86 12 -39 18 -40 70 -8 46 28 70 32 61 10
-3 -8 -1 -26 5 -38 8 -17 7 -40 -1 -83 -7 -32 -13 -69 -12 -81 0 -27 -19 -34
-75 -28 -43 4 -52 -2 -33 -21 6 -6 12 -25 15 -43 2 -18 7 -36 10 -39 9 -9 83
-4 120 8 56 19 60 29 62 189 2 207 -2 189 52 205 46 13 46 14 45 55 -1 23 -4
44 -7 47 -3 3 -22 -3 -44 -14 l-38 -20 0 72 0 71 41 -3 c48 -4 75 16 67 49 -6
21 -3 22 45 17 29 -3 52 -1 52 3 0 5 34 9 75 9 49 0 75 -4 75 -11 0 -9 34 -10
124 -5 85 5 126 4 131 -3 18 -30 65 5 65 49 0 37 -24 51 -62 38 -37 -13 -235
0 -200 13 28 11 28 13 -6 74 -30 54 -45 59 -105 36 l-28 -11 19 -28 c11 -15
27 -41 36 -59 l16 -32 -94 4 c-52 3 -100 7 -107 10 -21 7 -41 -10 -42 -37 -2
-27 -2 -27 -64 -31 l-42 -2 4 80 c2 44 7 88 10 98 4 9 6 17 4 18 -2 0 -29 2
-59 5 l-55 5 0 -63z"/>
<path d="M448 713 c-18 -5 -33 -37 -23 -52 10 -18 14 -152 5 -177 -5 -13 -7
-30 -4 -38 7 -19 43 -27 66 -15 10 5 40 7 67 3 41 -5 49 -10 50 -28 0 -11 3
-50 6 -86 6 -90 -7 -115 -63 -116 -23 0 -44 -3 -46 -5 -2 -2 3 -28 12 -57 17
-52 17 -52 54 -48 21 2 55 13 75 23 l38 18 2 125 c1 69 2 135 3 146 2 25 10
26 119 24 l73 -1 -8 28 c-4 15 -7 46 -6 68 1 22 4 72 6 110 2 45 0 73 -8 77
-19 13 -53 9 -66 -7 -16 -19 -116 -21 -124 -2 -5 10 -7 10 -12 0 -6 -14 -70
-18 -76 -4 -3 9 -113 20 -140 14z m313 -79 c19 -3 27 -12 27 -27 1 -12 4 -37
8 -54 5 -29 3 -34 -21 -43 -17 -6 -66 -9 -119 -6 -150 9 -141 6 -138 46 1 19
3 45 3 58 1 16 6 21 18 18 9 -3 22 -2 30 3 15 10 153 14 192 5z"/>
<path d="M435 353 c-11 -21 -46 -64 -78 -96 -32 -33 -56 -60 -55 -61 28 -17
89 -37 97 -32 6 4 38 41 73 84 34 42 68 81 75 85 22 13 15 24 -27 41 -56 22
-63 21 -85 -21z"/>
<path d="M770 362 l-35 -30 40 -43 c23 -24 55 -65 73 -91 18 -27 36 -48 39
-48 11 0 83 52 83 59 0 4 -37 47 -82 95 l-83 88 -35 -30z"/>
</g>
</svg>
