<?xml version="1.0" standalone="no"?>
<!DOCTYPE svg PUBLIC "-//W3C//DTD SVG 20010904//EN"
 "http://www.w3.org/TR/2001/REC-SVG-20010904/DTD/svg10.dtd">
<svg version="1.0" xmlns="http://www.w3.org/2000/svg"
 width="101.000000pt" height="101.000000pt" viewBox="0 0 101.000000 101.000000"
 preserveAspectRatio="xMidYMid meet">
<metadata>
Created by potrace 1.16, written by Peter Selinger 2001-2019
</metadata>
<g transform="translate(0.000000,101.000000) scale(0.100000,-0.100000)"
fill="#000000" stroke="none">
<path d="M160 990 c0 -11 5 -20 10 -20 11 0 13 -65 4 -120 l-6 -35 -61 1 c-65
1 -77 -6 -77 -43 0 -37 26 -53 83 -50 l52 2 1 -77 1 -78 -33 -10 c-18 -6 -45
-13 -61 -16 -15 -3 -29 -7 -31 -8 -8 -9 1 -92 11 -102 3 -3 19 2 36 10 66 35
79 37 80 13 0 -12 3 -61 6 -108 7 -107 -4 -141 -42 -138 -63 5 -63 4 -40 -50
12 -29 28 -52 40 -55 24 -6 106 29 109 46 2 17 7 107 7 136 0 54 1 121 4 171
3 54 3 55 47 73 51 22 60 32 60 70 0 38 -13 42 -61 18 -22 -12 -43 -19 -46
-16 -3 3 -2 30 1 59 6 48 10 56 32 60 18 3 22 1 14 -8 -8 -9 -1 -18 26 -34 20
-12 43 -20 50 -17 8 3 23 -16 41 -55 26 -56 30 -59 58 -54 45 8 51 20 31 62
-35 75 -43 84 -72 72 -15 -5 -29 -8 -31 -5 -3 2 11 26 30 52 l35 48 55 -3 c31
-1 58 2 62 8 8 14 146 13 162 -1 7 -6 24 -7 38 -4 24 6 25 4 25 -39 0 -25 5
-45 10 -45 6 0 10 -11 10 -25 0 -14 -4 -25 -10 -25 -6 0 -10 -30 -10 -70 0
-40 4 -70 10 -70 6 0 10 -11 10 -25 0 -14 -5 -25 -10 -25 -7 0 -11 -30 -10
-77 0 -43 0 -93 0 -111 0 -56 -14 -72 -65 -70 -24 1 -47 0 -50 -4 -3 -3 3 -21
14 -39 12 -19 21 -42 21 -52 0 -15 6 -17 40 -13 53 6 102 35 119 71 10 20 16
83 19 205 2 96 7 210 9 253 3 51 1 77 -6 77 -6 0 -11 16 -11 35 0 19 5 35 10
35 6 0 10 20 10 45 0 39 -4 47 -25 57 -19 8 -31 8 -51 -1 -39 -17 -251 -26
-269 -11 -8 7 -24 10 -35 7 -27 -7 -26 -2 16 55 19 28 34 51 32 53 -6 6 -81
35 -89 35 -5 0 -22 -29 -38 -65 -27 -58 -107 -185 -118 -185 -2 0 -1 5 2 10 3
6 3 19 0 30 -5 16 -14 19 -48 16 l-42 -3 1 77 c1 42 5 87 9 98 6 21 3 22 -49
22 -49 0 -56 -2 -56 -20z"/>
<path d="M549 763 c-13 -3 -16 -21 -15 -117 1 -71 -3 -112 -9 -111 -5 2 -45 6
-88 9 -77 6 -78 6 -88 -20 -20 -53 13 -83 70 -61 15 5 36 7 45 4 15 -6 16 -9
1 -38 -21 -40 -89 -114 -138 -150 l-37 -27 47 -27 48 -27 39 44 c21 24 56 69
76 100 30 46 38 53 39 35 1 -12 3 -48 5 -80 3 -36 -1 -75 -9 -98 -22 -61 -5
-81 62 -72 29 5 31 7 22 32 -5 14 -7 62 -4 106 3 44 6 90 6 103 1 12 3 22 4
22 2 0 20 -24 41 -52 21 -29 41 -57 45 -62 10 -12 79 24 79 40 0 6 -21 37 -47
69 -47 57 -57 61 -103 41 -11 -5 -16 0 -17 15 -1 14 3 19 13 15 8 -3 25 0 39
6 17 8 36 8 67 0 48 -12 58 -6 58 40 0 30 -32 54 -53 41 -6 -4 -38 -7 -69 -8
-54 0 -57 1 -62 29 -12 59 -7 147 10 163 15 15 14 17 -8 29 -23 13 -40 15 -69
7z"/>
<path d="M700 700 c-7 -17 -26 -49 -42 -72 -31 -42 -30 -47 13 -65 25 -11 28
-8 77 58 l51 69 -39 20 c-22 11 -41 20 -43 20 -3 0 -10 -14 -17 -30z"/>
</g>
</svg>
