<?xml version="1.0" standalone="no"?>
<!DOCTYPE svg PUBLIC "-//W3C//DTD SVG 20010904//EN"
 "http://www.w3.org/TR/2001/REC-SVG-20010904/DTD/svg10.dtd">
<svg version="1.0" xmlns="http://www.w3.org/2000/svg"
 width="101.000000pt" height="101.000000pt" viewBox="0 0 101.000000 101.000000"
 preserveAspectRatio="xMidYMid meet">
<metadata>
Created by potrace 1.16, written by Peter Selinger 2001-2019
</metadata>
<g transform="translate(0.000000,101.000000) scale(0.100000,-0.100000)"
fill="#000000" stroke="none">
<path d="M575 984 c-8 -26 -12 -48 -17 -79 -1 -6 -41 -10 -99 -9 l-98 1 -6
-28 c-8 -36 1 -65 22 -73 9 -4 41 -2 71 5 29 6 56 8 59 5 17 -17 -90 -120
-165 -157 -26 -13 -49 -25 -51 -27 -3 -1 4 -8 14 -16 19 -14 15 -19 -27 -35
l-25 -9 1 74 c1 80 1 80 65 59 26 -8 51 20 51 56 0 34 -23 48 -51 31 -10 -7
-30 -12 -44 -12 -29 0 -29 5 -15 135 4 44 6 82 4 84 -2 2 -26 6 -53 8 l-49 4
0 -46 c0 -25 4 -47 9 -51 10 -6 12 -67 3 -102 -6 -21 -10 -22 -70 -16 -61 6
-63 6 -69 -18 -3 -13 -1 -37 5 -52 10 -28 12 -29 68 -24 l57 6 0 -86 0 -85
-45 -13 c-51 -15 -45 -14 -65 -14 -30 0 -34 -59 -9 -108 1 -2 19 4 40 13 83
36 82 35 83 12 0 -12 3 -51 6 -87 5 -68 -8 -129 -28 -131 -7 -1 -19 -3 -27 -4
-8 -1 -22 -3 -31 -4 -15 -1 -15 -5 2 -38 10 -21 19 -43 19 -51 0 -15 41 -10
98 14 37 15 35 3 38 169 3 187 3 186 43 200 37 12 56 50 44 83 -6 16 -5 16 13
0 13 -11 24 -14 35 -7 20 10 20 12 22 -146 1 -60 -1 -131 -5 -156 -8 -53 1
-60 61 -51 31 4 32 6 27 37 -6 29 -4 33 16 33 13 1 34 2 48 4 28 3 32 -12 31
-109 0 -31 5 -55 13 -62 14 -12 77 -25 106 -22 8 1 52 2 97 4 88 2 110 14 139
69 18 36 18 47 -3 55 -10 4 -33 18 -50 31 -23 17 -33 20 -34 11 -4 -76 -34
-91 -154 -77 -25 3 -30 7 -27 28 2 14 3 35 4 46 0 25 6 26 121 24 75 -1 78 0
68 19 -13 23 -13 161 -1 176 5 6 7 33 7 62 -2 45 0 50 15 42 24 -13 38 -11 38
4 0 8 11 24 25 37 14 13 25 27 25 30 0 4 -33 23 -72 43 -69 35 -107 62 -135
98 -11 14 -2 15 82 14 86 -2 95 0 101 17 3 11 3 30 0 43 -5 21 -13 24 -88 29
-46 3 -113 5 -149 4 l-66 -3 15 35 c8 19 19 41 24 48 15 18 5 24 -50 30 -47 4
-50 3 -57 -24z m115 -244 c26 -30 62 -69 82 -86 l35 -30 -67 0 c-65 1 -66 1
-64 28 1 14 5 31 8 36 10 17 -50 35 -81 25 -25 -9 -28 -15 -28 -52 0 -41 -1
-42 -29 -37 -16 3 -39 6 -52 6 -22 0 -21 3 17 42 23 24 54 62 70 84 17 24 36
41 46 40 9 0 38 -26 63 -56z m-116 -225 c0 -26 -4 -30 -25 -27 -13 2 -33 3
-44 4 -14 0 -20 8 -21 25 -2 18 2 22 15 19 9 -3 23 -1 31 4 26 17 45 7 44 -25z
m190 0 c0 -26 -4 -30 -25 -27 -13 2 -33 3 -44 4 -14 0 -20 8 -21 25 -2 18 2
22 15 19 9 -3 23 -1 31 4 26 17 45 7 44 -25z m-190 -130 c0 -26 -4 -30 -25
-27 -13 2 -33 3 -44 4 -14 0 -20 8 -21 25 -2 18 2 22 15 19 9 -3 23 -1 31 4
26 17 45 7 44 -25z m190 0 c0 -26 -4 -30 -25 -27 -13 2 -33 3 -44 4 -14 0 -20
8 -21 25 -2 18 2 22 15 19 9 -3 23 -1 31 4 26 17 45 7 44 -25z"/>
</g>
</svg>
