<?xml version="1.0" standalone="no"?>
<!DOCTYPE svg PUBLIC "-//W3C//DTD SVG 20010904//EN"
 "http://www.w3.org/TR/2001/REC-SVG-20010904/DTD/svg10.dtd">
<svg version="1.0" xmlns="http://www.w3.org/2000/svg"
 width="101.000000pt" height="101.000000pt" viewBox="0 0 101.000000 101.000000"
 preserveAspectRatio="xMidYMid meet">
<metadata>
Created by potrace 1.16, written by Peter Selinger 2001-2019
</metadata>
<g transform="translate(0.000000,101.000000) scale(0.100000,-0.100000)"
fill="#000000" stroke="none">
<path d="M165 980 c-4 -17 -4 -66 0 -108 l7 -77 -61 3 c-59 4 -61 3 -72 -24
-7 -20 -7 -35 1 -53 10 -22 14 -23 71 -17 53 5 60 4 55 -10 -3 -8 -1 -24 4
-35 6 -11 8 -40 4 -69 -6 -44 -10 -50 -38 -59 -31 -11 -70 -19 -94 -20 -20 -1
-4 -121 17 -121 3 0 29 13 57 29 50 27 52 27 53 7 0 -12 3 -53 6 -93 3 -40 0
-84 -5 -98 -9 -24 -13 -25 -60 -21 -37 3 -50 1 -46 -7 3 -7 11 -31 17 -54 8
-25 20 -44 31 -46 24 -7 114 21 130 40 9 11 13 56 15 147 2 195 0 188 53 207
44 16 66 51 54 84 -6 15 0 16 141 16 55 0 129 0 165 0 36 0 117 0 181 -1 l117
-1 4 32 c9 61 3 67 -60 57 -37 -6 -65 -5 -79 1 -13 6 -28 8 -35 6 -10 -4 -13
10 -14 51 l-1 56 74 -4 c80 -4 91 4 77 56 -7 31 -29 38 -99 34 -56 -4 -55 -5
-40 78 5 30 4 32 -29 38 -21 4 -45 2 -57 -5 -19 -9 -21 -18 -17 -64 l4 -52
-50 1 -51 1 2 40 c1 22 3 49 5 59 3 17 -3 20 -50 20 -41 1 -53 -3 -58 -16 -3
-10 -2 -23 1 -29 4 -6 8 -25 9 -43 l1 -32 -51 4 c-46 4 -53 2 -64 -18 -7 -12
-10 -33 -7 -46 2 -13 1 -24 -2 -24 -3 -1 -31 -2 -61 -3 l-55 -2 1 82 c0 52 5
87 14 98 18 22 8 28 -54 33 -54 4 -54 4 -61 -28z m340 -242 c0 -46 -1 -47 -37
-53 -20 -4 -45 -2 -56 4 -10 5 -28 7 -40 4 -21 -5 -23 -11 -26 -56 -1 -11 -19
-29 -42 -43 l-41 -25 1 73 1 73 30 -2 c17 -1 39 -5 51 -8 26 -8 54 18 54 50 0
25 13 30 75 30 29 0 30 -1 30 -47z m189 0 c-2 -52 -3 -53 -31 -50 -15 1 -37 3
-48 3 -17 1 -20 7 -17 45 4 38 7 43 30 47 69 10 68 11 66 -45z"/>
<path d="M440 542 c-10 -5 -14 -17 -11 -37 5 -45 3 -335 -4 -371 -6 -36 8 -44
64 -36 30 4 32 7 27 32 -4 23 -2 28 17 29 12 0 56 3 97 6 41 3 89 3 106 0 26
-4 31 -10 31 -35 0 -17 3 -33 7 -37 6 -7 85 -8 91 -1 2 2 -1 60 -6 129 -8 114
-7 200 4 285 4 31 3 32 -47 36 -28 3 -71 3 -96 1 -73 -7 -234 -8 -250 -1 -8 4
-22 4 -30 0z m310 -77 c22 -5 26 -11 27 -45 2 -37 0 -40 -30 -45 -18 -3 -68
-3 -112 0 -44 3 -90 6 -102 6 -19 1 -22 7 -20 40 1 30 5 38 17 34 8 -2 21 -1
29 4 15 10 153 14 191 6z m0 -140 c22 -5 26 -11 27 -45 2 -37 0 -40 -30 -45
-18 -3 -68 -3 -112 0 -44 3 -90 6 -102 6 -19 1 -22 7 -20 40 1 30 5 38 17 34
8 -2 21 -1 29 4 15 10 153 14 191 6z"/>
</g>
</svg>
