<?xml version="1.0" standalone="no"?>
<!DOCTYPE svg PUBLIC "-//W3C//DTD SVG 20010904//EN"
 "http://www.w3.org/TR/2001/REC-SVG-20010904/DTD/svg10.dtd">
<svg version="1.0" xmlns="http://www.w3.org/2000/svg"
 width="101.000000pt" height="101.000000pt" viewBox="0 0 101.000000 101.000000"
 preserveAspectRatio="xMidYMid meet">
<metadata>
Created by potrace 1.16, written by Peter Selinger 2001-2019
</metadata>
<g transform="translate(0.000000,101.000000) scale(0.100000,-0.100000)"
fill="#000000" stroke="none">
<path d="M836 968 c-33 -10 -78 -20 -100 -23 -23 -2 -58 -6 -79 -8 -21 -2 -40
-7 -43 -9 -2 -3 6 -22 18 -42 21 -33 26 -36 58 -30 19 3 40 6 45 7 6 1 12 -30
15 -68 l5 -70 -47 0 -47 0 -25 55 c-13 30 -32 82 -42 115 -10 33 -18 61 -19
62 -1 1 -18 -3 -38 -9 -43 -13 -44 -10 6 -155 l35 -102 -38 -6 c-22 -4 -47 -2
-59 4 -11 6 -27 8 -37 4 -14 -5 -16 -3 -10 13 8 19 13 39 21 79 2 11 9 40 14
65 16 73 14 87 -15 94 -35 9 -62 -1 -69 -25 -6 -18 -9 -17 -33 15 -31 41 -40
43 -91 16 -21 -10 -41 -16 -45 -13 -3 3 -12 0 -21 -7 -8 -7 -38 -12 -66 -11
-28 0 -59 -4 -70 -9 -17 -10 -17 -12 7 -47 14 -21 26 -39 28 -40 1 -2 23 3 47
10 l44 13 0 -68 1 -69 -57 5 c-63 6 -70 -1 -62 -60 4 -27 8 -30 31 -27 78 10
87 9 85 -12 -1 -10 3 -28 9 -38 5 -11 7 -34 3 -53 -7 -39 -41 -54 -80 -36 -48
22 -78 -6 -68 -61 5 -26 26 -29 86 -12 44 12 52 -4 32 -72 -20 -69 -65 -144
-108 -178 -17 -13 -29 -25 -27 -27 3 -2 25 -13 50 -26 l45 -23 28 33 c49 58
109 204 109 264 0 22 3 23 75 26 34 1 46 21 36 58 -5 19 -32 26 -85 22 -22 -2
-35 57 -19 86 6 11 8 27 5 35 -4 11 1 15 20 13 31 -1 31 -4 6 -36 -27 -35 -25
-43 19 -61 l39 -17 24 54 c13 29 27 54 32 54 4 0 6 -7 2 -15 -3 -8 0 -26 6
-40 8 -18 8 -36 -2 -72 -6 -26 -14 -59 -16 -73 -14 -71 -83 -176 -139 -208
-20 -12 -19 -12 5 -32 41 -32 59 -34 86 -9 73 68 126 199 131 324 1 44 3 90 4
101 2 29 46 28 49 -1 5 -50 3 -273 -3 -297 -6 -22 -12 -26 -42 -25 -19 1 -37
-1 -39 -4 -8 -7 21 -83 32 -87 6 -2 29 2 51 8 67 18 75 39 78 214 1 83 3 161
3 173 l2 23 17 -21 17 -21 37 22 c40 24 43 30 26 47 -8 8 -4 11 15 10 17 -1
24 -7 21 -15 -2 -7 0 -23 7 -36 6 -14 8 -36 4 -51 -6 -22 -12 -26 -39 -24 -67
4 -81 -8 -70 -64 5 -24 8 -25 55 -21 43 4 50 2 44 -11 -3 -9 -1 -25 4 -35 13
-24 1 -138 -16 -155 -8 -7 -29 -11 -53 -9 -23 2 -41 1 -41 -2 0 -21 37 -104
46 -104 19 0 119 32 129 41 5 5 11 60 12 122 3 171 -3 155 58 153 49 -2 54 0
58 22 8 42 -2 59 -36 60 -77 3 -76 3 -83 37 -3 18 -1 42 5 53 6 11 8 28 5 37
-6 14 -1 15 28 10 33 -6 36 -5 40 20 10 48 0 64 -37 61 l-33 -2 1 80 2 81 42
0 c23 0 44 3 48 7 10 10 -2 49 -22 74 -18 21 -18 21 -77 2z m-458 -119 c-6
-16 -8 -38 -5 -49 3 -11 2 -22 -2 -25 -5 -2 -8 -18 -9 -34 0 -17 -5 -38 -11
-48 -10 -17 -11 -16 -17 4 -5 17 -13 21 -37 20 -31 -2 -32 -1 -35 46 -2 28 1
47 7 47 6 0 11 13 11 29 0 32 6 35 72 37 36 2 36 2 26 -27z"/>
</g>
</svg>
