<?xml version="1.0" standalone="no"?>
<!DOCTYPE svg PUBLIC "-//W3C//DTD SVG 20010904//EN"
 "http://www.w3.org/TR/2001/REC-SVG-20010904/DTD/svg10.dtd">
<svg version="1.0" xmlns="http://www.w3.org/2000/svg"
 width="101.000000pt" height="103.000000pt" viewBox="0 0 101.000000 103.000000"
 preserveAspectRatio="xMidYMid meet">
<metadata>
Created by potrace 1.16, written by Peter Selinger 2001-2019
</metadata>
<g transform="translate(0.000000,103.000000) scale(0.100000,-0.100000)"
fill="#000000" stroke="none">
<path d="M566 993 c-24 -51 -113 -140 -153 -154 -26 -8 -33 -15 -27 -28 3 -9
9 -26 11 -38 6 -24 28 -37 46 -26 6 3 27 8 46 9 20 1 48 4 64 7 24 4 27 2 21
-17 -3 -11 -9 -24 -13 -28 -3 -3 -48 -4 -98 -1 -86 5 -93 7 -93 27 0 39 -16
51 -69 51 l-50 0 4 83 c2 46 9 90 16 98 13 16 14 15 -58 17 l-52 2 3 -102 4
-102 -64 6 c-62 6 -64 5 -74 -22 -22 -57 10 -82 93 -73 l42 5 1 -78 1 -79 -36
-11 c-19 -7 -42 -13 -51 -14 -48 -5 -66 -47 -40 -96 11 -19 11 -19 48 0 20 10
47 21 59 25 20 7 22 5 16 -29 -3 -20 0 -54 7 -76 11 -33 11 -50 1 -87 -14 -57
-32 -72 -77 -66 -38 5 -41 -1 -19 -42 8 -16 15 -37 15 -47 0 -15 7 -17 38 -14
20 3 54 12 74 20 45 19 53 43 43 133 -4 43 -3 69 4 78 7 8 10 46 9 94 l-3 80
48 17 c47 17 47 17 43 57 -3 22 -7 42 -8 44 -2 1 -22 -6 -46 -16 l-42 -19 1
27 c0 15 3 43 7 62 7 34 9 35 56 38 l49 2 -6 -35 c-5 -31 -3 -36 19 -41 14 -4
51 -4 82 0 l57 6 -50 -47 c-27 -25 -80 -60 -116 -77 l-67 -31 33 -38 33 -38
53 32 c70 41 152 110 186 159 35 49 55 47 91 -11 35 -54 107 -119 177 -159 58
-33 75 -37 75 -16 0 8 12 28 26 45 24 29 24 31 7 37 -87 30 -183 86 -209 123
-12 16 -9 17 41 13 30 -2 75 -1 100 2 37 6 46 12 51 32 4 14 2 30 -3 35 -5 5
-72 10 -150 12 -136 2 -140 3 -133 22 6 16 20 21 76 28 64 7 70 6 87 -14 l17
-21 35 26 c19 15 35 31 35 35 0 5 -32 43 -71 85 -74 80 -75 80 -124 42 -20
-15 -19 -15 15 -44 l35 -30 -83 -7 c-60 -5 -86 -4 -97 5 -8 7 -24 10 -36 7
-23 -6 24 40 99 95 23 17 42 35 42 39 0 11 -27 25 -71 37 -35 9 -37 9 -53 -25z"/>
<path d="M590 522 c-47 -47 -113 -88 -182 -114 -32 -11 -58 -22 -58 -23 0 -2
13 -17 30 -35 28 -30 32 -31 62 -21 17 6 76 41 131 79 54 37 107 71 118 77 10
5 19 13 19 16 0 12 -61 59 -73 58 -7 -1 -28 -18 -47 -37z"/>
<path d="M686 424 c-27 -25 -72 -57 -100 -71 -54 -28 -186 -75 -186 -67 0 3
-9 0 -19 -6 -20 -10 -20 -11 2 -45 18 -29 26 -34 47 -29 60 14 190 72 267 121
46 28 92 55 103 58 11 3 20 10 20 15 0 9 -70 70 -80 70 -3 -1 -27 -21 -54 -46z"/>
<path d="M766 324 c-88 -71 -191 -123 -275 -139 -12 -2 -37 -10 -56 -16 -25
-10 -40 -10 -58 -2 -24 11 -71 7 -65 -6 2 -3 14 -23 27 -44 23 -36 25 -37 70
-33 69 8 90 12 166 36 85 27 137 53 235 119 41 28 81 51 88 51 23 0 12 28 -23
59 -20 17 -37 31 -38 31 -1 0 -33 -25 -71 -56z"/>
</g>
</svg>
