<?xml version="1.0" standalone="no"?>
<!DOCTYPE svg PUBLIC "-//W3C//DTD SVG 20010904//EN"
 "http://www.w3.org/TR/2001/REC-SVG-20010904/DTD/svg10.dtd">
<svg version="1.0" xmlns="http://www.w3.org/2000/svg"
 width="101.000000pt" height="101.000000pt" viewBox="0 0 101.000000 101.000000"
 preserveAspectRatio="xMidYMid meet">
<metadata>
Created by potrace 1.16, written by Peter Selinger 2001-2019
</metadata>
<g transform="translate(0.000000,101.000000) scale(0.100000,-0.100000)"
fill="#000000" stroke="none">
<path d="M166 999 c3 -6 3 -52 -1 -102 l-6 -92 -57 3 -57 3 0 -45 -1 -46 56 3
55 2 3 -82 3 -81 -55 -13 c-74 -16 -79 -20 -71 -61 11 -60 17 -63 73 -34 l50
25 1 -22 c0 -12 3 -56 6 -97 3 -41 3 -94 0 -118 -6 -39 -9 -43 -33 -41 -57 4
-64 1 -51 -23 6 -12 15 -33 18 -46 9 -33 44 -36 101 -9 l45 22 1 155 c2 219 1
212 52 230 43 15 49 26 43 84 -2 29 -5 29 -50 7 l-41 -21 -6 26 c-4 14 -2 36
4 50 7 13 9 29 7 36 -4 10 13 13 65 13 52 0 69 -3 65 -13 -2 -7 1 -24 7 -37 9
-19 9 -28 0 -37 -18 -18 -14 -48 6 -50 20 -1 32 0 87 8 95 14 211 14 255 1 25
-7 61 -12 81 -9 l37 4 7 64 c3 35 4 68 1 73 -7 11 13 9 32 -3 23 -14 61 3 68
29 10 39 -2 53 -50 60 l-46 7 -2 57 c0 31 -1 61 -1 68 0 7 -11 9 -34 6 -19 -3
-44 0 -58 7 -19 10 -30 10 -52 1 -18 -7 -57 -9 -108 -5 -44 3 -116 7 -159 10
l-79 4 6 -78 6 -77 -47 -1 c-26 0 -56 -4 -68 -8 -19 -7 -20 -4 -18 83 1 50 5
95 8 100 8 12 -18 21 -65 21 -26 0 -38 -4 -33 -11z m406 -150 l3 -36 -50 1
-50 1 0 35 c0 35 0 35 47 36 46 0 46 0 50 -37z m204 1 l2 -35 -57 0 -56 0 0
35 -1 35 56 0 55 0 1 -35z m-200 -160 c-1 -33 -3 -35 -31 -32 -16 1 -40 3 -51
3 -18 1 -22 7 -21 33 1 31 1 31 52 31 l52 0 -1 -35z m200 3 c-1 -37 -2 -38
-36 -35 -19 1 -44 3 -56 3 -16 1 -21 8 -21 30 0 27 2 28 56 32 31 2 56 4 57 5
1 1 1 -15 0 -35z"/>
<path d="M409 553 c-21 -5 -31 -40 -19 -63 10 -19 7 -187 -4 -211 -9 -20 16
-28 62 -21 l33 4 -8 47 c-7 41 -7 62 -2 137 1 15 8 22 23 23 11 0 50 3 86 6
93 8 193 -3 186 -20 -2 -8 0 -27 6 -43 9 -22 8 -39 -4 -74 -22 -63 -12 -74 64
-70 25 2 26 4 17 30 -9 25 -7 128 4 214 5 35 4 36 -31 40 -20 3 -57 -2 -82 -9
-52 -16 -222 -11 -295 9 -11 3 -27 4 -36 1z"/>
<path d="M588 443 c-17 -4 -23 -19 -20 -53 2 -27 -20 -94 -39 -122 -21 -29
-86 -64 -134 -72 -62 -10 -96 -19 -93 -25 34 -65 43 -72 83 -66 57 8 144 51
183 88 48 46 80 114 87 187 1 14 6 33 10 43 5 13 2 17 -13 17 -11 0 -26 2 -34
4 -7 2 -21 2 -30 -1z"/>
<path d="M656 271 l-28 -29 56 -31 c30 -18 82 -52 116 -76 33 -25 62 -45 65
-45 7 0 64 63 65 71 0 7 -199 125 -226 133 -14 4 -28 -2 -48 -23z"/>
</g>
</svg>
