<?xml version="1.0" standalone="no"?>
<!DOCTYPE svg PUBLIC "-//W3C//DTD SVG 20010904//EN"
 "http://www.w3.org/TR/2001/REC-SVG-20010904/DTD/svg10.dtd">
<svg version="1.0" xmlns="http://www.w3.org/2000/svg"
 width="101.000000pt" height="101.000000pt" viewBox="0 0 101.000000 101.000000"
 preserveAspectRatio="xMidYMid meet">
<metadata>
Created by potrace 1.16, written by Peter Selinger 2001-2019
</metadata>
<g transform="translate(0.000000,101.000000) scale(0.100000,-0.100000)"
fill="#000000" stroke="none">
<path d="M177 978 c2 -18 0 -73 -4 -123 -8 -89 -8 -90 -36 -93 -15 -2 -34 3
-42 12 -24 23 -59 6 -63 -31 -5 -47 21 -65 82 -61 l51 3 1 -67 c1 -73 5 -67
-66 -83 -71 -16 -70 -15 -66 -48 5 -35 15 -67 23 -67 2 0 17 7 33 15 65 34 78
36 79 12 0 -12 3 -63 6 -113 3 -50 1 -102 -4 -117 -9 -23 -14 -25 -52 -21 -37
5 -41 3 -34 -13 4 -10 13 -32 19 -50 13 -39 32 -45 94 -30 l47 12 2 170 c2
226 -1 212 39 219 40 8 65 31 58 51 -10 25 13 17 35 -12 l21 -28 45 47 c25 26
45 40 45 33 0 -17 40 -29 74 -23 23 5 24 3 19 -36 -3 -23 -6 -48 -6 -57 -1
-13 -14 -15 -77 -13 -41 1 -82 3 -90 5 -46 7 -63 -13 -53 -64 5 -23 9 -25 41
-20 41 6 153 5 160 -1 2 -2 -4 -19 -13 -36 -27 -52 -101 -117 -170 -150 l-64
-31 40 -40 40 -40 49 27 c48 26 132 107 176 169 l21 29 108 -106 108 -106 40
37 39 37 -63 56 c-35 30 -94 78 -132 106 -54 40 -63 50 -45 51 13 1 39 2 58 4
19 1 60 -2 91 -6 l57 -7 4 32 c3 18 3 40 1 49 -4 15 -8 16 -24 6 -14 -9 -26
-9 -50 0 -20 8 -39 9 -55 3 -13 -5 -43 -8 -67 -7 -40 3 -42 5 -39 33 1 16 3
38 3 50 1 16 6 20 25 16 29 -5 81 15 88 34 5 12 16 7 52 -20 l46 -35 42 36 42
37 -46 23 c-26 13 -57 34 -70 48 l-23 25 22 24 c12 13 39 32 59 42 20 11 39
20 41 22 7 4 -52 62 -64 62 -5 0 -30 -20 -54 -45 -24 -25 -47 -45 -52 -45 -7
0 -22 34 -24 55 -1 9 96 80 119 88 13 4 -11 45 -35 58 -19 9 -27 5 -66 -33
-33 -33 -46 -40 -52 -29 -5 7 -6 21 -4 31 5 20 -36 35 -69 25 -15 -6 -18 -13
-15 -38 9 -55 47 -153 83 -212 19 -32 34 -58 34 -59 0 0 -51 -1 -114 -1 l-114
0 20 40 c56 109 88 239 62 249 -21 8 -208 6 -221 -2 -16 -10 -25 -55 -14 -71
11 -17 66 -20 123 -7 l37 8 -20 -61 -21 -62 -33 38 -32 37 -35 -26 c-23 -17
-39 -23 -49 -18 -8 5 -21 5 -28 1 -7 -5 -22 -6 -32 -4 -16 5 -19 16 -21 72 -1
70 -1 79 8 124 3 15 2 27 -3 28 -4 0 -26 3 -49 5 l-40 5 3 -33z m226 -254 c30
-29 35 -39 27 -54 -15 -29 -75 -71 -92 -65 -8 3 -30 -1 -49 -9 l-34 -14 0 54
c0 58 3 60 72 55 23 -2 38 25 27 53 -10 26 8 19 49 -20z"/>
</g>
</svg>
