<?xml version="1.0" standalone="no"?>
<!DOCTYPE svg PUBLIC "-//W3C//DTD SVG 20010904//EN"
 "http://www.w3.org/TR/2001/REC-SVG-20010904/DTD/svg10.dtd">
<svg version="1.0" xmlns="http://www.w3.org/2000/svg"
 width="101.000000pt" height="101.000000pt" viewBox="0 0 101.000000 101.000000"
 preserveAspectRatio="xMidYMid meet">
<metadata>
Created by potrace 1.16, written by Peter Selinger 2001-2019
</metadata>
<g transform="translate(0.000000,101.000000) scale(0.100000,-0.100000)"
fill="#000000" stroke="none">
<path d="M159 1003 c-12 -3 -15 -21 -13 -106 l2 -103 -34 4 c-72 9 -102 -16
-88 -72 6 -23 10 -25 62 -23 l57 2 0 -78 0 -78 -49 -14 c-27 -8 -56 -15 -63
-15 -10 0 -12 -12 -9 -45 2 -25 6 -48 8 -51 3 -2 26 5 52 16 60 25 64 25 65
-2 0 -13 3 -57 6 -98 3 -41 0 -89 -5 -106 -10 -28 -15 -32 -45 -31 -19 1 -36
-1 -39 -4 -3 -2 2 -26 11 -52 15 -47 16 -48 52 -43 43 5 90 25 93 40 1 6 3 79
4 161 3 205 0 190 48 205 22 7 44 17 48 24 4 6 8 -22 8 -61 0 -42 4 -73 10
-73 6 0 10 -30 10 -70 0 -42 -4 -70 -10 -70 -7 0 -10 -26 -9 -64 2 -55 5 -65
22 -70 11 -3 28 -1 36 4 9 5 59 7 111 5 52 -3 122 -4 155 -4 33 0 112 0 176
-1 l116 -1 5 26 c12 60 4 65 -86 57 -44 -4 -126 -6 -181 -5 -171 4 -174 5 -79
30 32 8 76 24 97 34 l38 20 64 -35 63 -35 26 40 27 39 -47 20 c-25 11 -50 20
-54 20 -20 0 -19 22 2 59 22 38 23 39 75 37 56 -2 60 1 54 58 -2 27 -8 31 -26
16 -12 -10 -21 -10 -40 -2 -19 9 -35 7 -71 -5 -37 -13 -54 -14 -76 -5 -16 6
-36 8 -44 5 -18 -7 -18 11 1 27 8 7 13 16 10 20 -3 4 5 8 18 9 68 4 95 4 122
-3 l30 -7 1 144 2 144 -67 7 c-97 9 -161 7 -161 -4 0 -5 -11 -10 -25 -10 -14
0 -25 5 -25 10 0 6 -20 10 -45 10 -38 0 -47 -4 -54 -22 -9 -27 -13 -210 -5
-250 5 -27 8 -28 60 -25 42 2 53 -1 49 -11 -3 -8 -5 -18 -5 -22 0 -14 -66 -23
-87 -11 -25 13 -61 4 -66 -18 -5 -17 -10 48 -8 86 1 11 -2 24 -8 27 -13 8 -13
146 0 162 6 8 9 35 7 61 l-3 48 104 -3 c59 -1 109 2 116 8 13 11 144 12 160 1
6 -3 36 -6 67 -7 63 -1 75 10 63 59 -6 22 -10 24 -46 20 -24 -4 -45 -1 -54 7
-9 7 -25 10 -41 6 -37 -10 -345 -13 -350 -4 -6 10 -86 8 -106 -3 -13 -7 -18
-22 -18 -54 0 -25 5 -45 10 -45 15 0 12 -68 -2 -73 -7 -2 -21 0 -32 5 -10 6
-30 8 -45 5 l-27 -6 2 87 c2 48 5 94 9 103 9 23 -39 35 -86 22z m584 -229 c37
-5 45 -10 44 -26 -1 -11 -7 -16 -15 -13 -7 3 -51 5 -97 5 -74 0 -83 2 -88 20
-5 18 0 20 53 20 31 0 78 -3 103 -6z m-402 -124 c5 0 9 -11 9 -25 0 -26 -15
-34 -23 -12 -3 9 -15 6 -48 -9 l-44 -21 0 62 0 63 31 -5 c20 -3 36 0 45 10 12
13 14 10 17 -24 2 -21 7 -39 13 -39z m446 -4 c0 -18 -119 -35 -125 -17 -2 6
-22 12 -45 13 -33 1 -28 3 23 8 119 12 147 11 147 -4z m-281 -211 c30 3 54 3
54 -1 0 -3 -10 -19 -21 -36 -18 -25 -19 -32 -8 -39 8 -5 19 -9 24 -9 6 0 28
-5 50 -11 36 -10 38 -12 18 -20 -13 -4 -40 -10 -60 -13 -51 -7 -97 -16 -101
-21 -8 -7 43 -65 57 -65 11 0 12 -3 3 -12 -9 -9 -18 -9 -37 0 -13 6 -32 9 -40
6 -13 -5 -14 6 -10 79 4 54 2 88 -5 92 -14 9 -13 48 3 64 10 10 13 9 15 -3 3
-12 14 -15 58 -11z m239 5 c4 -6 0 -21 -9 -34 -12 -20 -22 -23 -56 -20 -23 2
-45 6 -50 9 -15 9 13 45 30 40 8 -2 22 0 30 5 20 13 47 13 55 0z"/>
</g>
</svg>
