<?xml version="1.0" standalone="no"?>
<!DOCTYPE svg PUBLIC "-//W3C//DTD SVG 20010904//EN"
 "http://www.w3.org/TR/2001/REC-SVG-20010904/DTD/svg10.dtd">
<svg version="1.0" xmlns="http://www.w3.org/2000/svg"
 width="101.000000pt" height="102.000000pt" viewBox="0 0 101.000000 102.000000"
 preserveAspectRatio="xMidYMid meet">
<metadata>
Created by potrace 1.16, written by Peter Selinger 2001-2019
</metadata>
<g transform="translate(0.000000,102.000000) scale(0.100000,-0.100000)"
fill="#000000" stroke="none">
<path d="M407 1013 c-16 -4 -17 -19 -13 -178 3 -137 1 -177 -10 -193 -12 -18
-11 -25 9 -60 l22 -39 50 26 c28 15 73 36 100 47 47 20 51 24 53 58 2 20 0 41
-3 46 -3 6 -32 -3 -65 -20 -33 -17 -61 -30 -62 -30 -2 0 -2 26 0 57 l4 58 69
0 c54 0 69 3 70 15 0 10 3 8 8 -5 5 -11 6 -34 4 -52 -9 -56 6 -122 31 -138 23
-15 82 -28 121 -27 11 1 34 2 50 2 17 0 46 10 64 21 45 27 82 119 48 119 -8 0
-22 9 -32 20 -25 28 -30 26 -49 -24 l-17 -44 -61 3 -60 4 -2 40 c-2 39 -1 41
43 60 25 10 72 27 104 37 31 10 57 22 57 27 0 15 -41 77 -51 77 -5 0 -32 -15
-61 -34 -99 -62 -93 -63 -91 9 1 35 4 74 8 86 9 28 -5 36 -61 37 -42 1 -51 -5
-44 -33 6 -26 5 -105 -1 -122 -4 -10 -8 -13 -8 -7 -1 7 -28 10 -75 9 -61 -1
-73 2 -70 15 1 8 5 38 8 66 4 47 3 52 -20 63 -26 11 -36 12 -67 4z"/>
<path d="M164 1001 c-9 -10 -3 -90 7 -93 8 -3 10 -21 5 -61 l-7 -56 -64 6
c-57 5 -63 4 -69 -15 -4 -11 -4 -32 0 -46 7 -31 61 -45 100 -27 14 6 26 11 27
11 1 0 2 -42 2 -94 l0 -94 -60 -18 c-33 -10 -64 -21 -69 -25 -8 -7 22 -99 33
-99 3 0 24 12 46 25 49 31 53 31 54 3 0 -13 3 -55 6 -95 3 -40 1 -83 -5 -97
-8 -21 -15 -25 -49 -23 -51 2 -56 -4 -37 -42 9 -17 16 -34 15 -38 -5 -30 2
-35 41 -29 100 16 138 57 120 129 -6 23 -8 80 -6 127 9 143 5 133 63 153 51
19 52 19 51 61 0 22 -2 44 -5 48 -2 4 -26 -3 -52 -17 l-48 -24 1 72 1 73 27
-4 c15 -2 38 -2 51 2 19 4 23 12 22 46 0 45 -18 56 -74 48 l-29 -4 4 88 c2 49
5 94 7 100 2 11 -99 19 -109 9z"/>
<path d="M555 590 c-3 -11 -9 -32 -11 -47 -7 -35 -22 -45 -59 -38 -82 15 -93
14 -99 -8 -3 -11 -1 -28 4 -36 8 -16 6 -142 -3 -241 -3 -25 -2 -64 0 -87 6
-45 18 -53 71 -45 29 4 31 7 27 32 -4 23 -1 28 18 29 12 1 49 3 82 6 89 8 208
-4 202 -19 -11 -28 14 -41 71 -38 l24 2 -6 171 c-4 101 -2 177 3 188 6 10 7
28 4 40 -4 17 -10 20 -27 14 -17 -7 -134 -8 -224 -2 l-23 1 21 35 c11 19 20
36 20 38 0 5 -61 25 -76 25 -7 0 -15 -9 -19 -20z m166 -146 l65 -6 1 -33 1
-33 -72 -6 c-39 -4 -98 -4 -131 -1 -33 3 -70 6 -81 6 -18 1 -22 7 -21 35 1 26
5 33 16 29 9 -2 22 -1 30 4 17 11 98 13 192 5z m-1 -140 l66 -6 1 -38 2 -38
-72 -6 c-40 -4 -99 -4 -132 -1 -33 3 -70 5 -82 6 -19 1 -22 7 -20 40 1 30 5
38 17 34 8 -2 21 -1 29 4 17 11 98 13 191 5z"/>
</g>
</svg>
