<?xml version="1.0" standalone="no"?>
<!DOCTYPE svg PUBLIC "-//W3C//DTD SVG 20010904//EN"
 "http://www.w3.org/TR/2001/REC-SVG-20010904/DTD/svg10.dtd">
<svg version="1.0" xmlns="http://www.w3.org/2000/svg"
 width="101.000000pt" height="101.000000pt" viewBox="0 0 101.000000 101.000000"
 preserveAspectRatio="xMidYMid meet">
<metadata>
Created by potrace 1.16, written by Peter Selinger 2001-2019
</metadata>
<g transform="translate(0.000000,101.000000) scale(0.100000,-0.100000)"
fill="#000000" stroke="none">
<path d="M152 975 c-1 -19 3 -37 8 -40 11 -7 13 -57 4 -101 -5 -28 -7 -29 -57
-26 l-52 3 0 -49 0 -49 50 1 50 1 0 -85 0 -85 -52 -20 c-33 -13 -53 -26 -53
-36 0 -22 20 -79 29 -79 3 0 23 11 43 25 l36 24 1 -22 c1 -12 3 -66 4 -120 2
-110 -1 -116 -64 -111 -39 3 -48 -3 -29 -22 6 -6 12 -25 15 -43 2 -18 6 -35 9
-38 9 -9 106 19 129 37 21 17 22 26 24 167 2 211 -2 192 54 216 31 13 49 27
49 38 0 11 8 17 23 17 34 0 100 9 120 17 9 4 28 4 42 1 21 -5 24 -10 19 -43
-2 -20 -6 -38 -7 -40 -6 -5 -122 -6 -159 0 -46 6 -47 4 -33 -103 14 -102 14
-170 1 -208 -17 -46 -11 -88 13 -95 9 -2 31 -2 48 0 30 5 31 7 25 42 -6 30 -7
187 -1 256 1 17 9 21 39 22 43 2 40 11 42 -122 1 -44 -2 -96 -6 -116 -7 -31
-5 -37 12 -41 33 -9 70 3 75 24 3 11 -1 37 -8 58 -8 22 -12 62 -9 97 2 32 5
67 5 79 1 16 8 20 34 21 38 1 36 9 38 -149 2 -116 5 -121 61 -111 22 5 25 9
19 27 -4 11 -7 59 -6 106 4 136 0 126 48 128 38 1 43 -1 44 -21 0 -12 3 -53 6
-90 4 -67 -13 -139 -32 -136 -4 1 -16 1 -26 0 -16 -1 -16 -3 -2 -31 8 -16 15
-36 15 -46 0 -11 5 -14 16 -10 9 3 22 6 29 6 7 0 27 12 44 26 l31 26 -5 144
c-3 85 -1 152 4 163 6 10 8 27 5 39 -5 17 -10 19 -33 11 -15 -5 -68 -7 -117
-4 -49 3 -99 6 -110 6 -20 1 -21 4 -12 39 8 28 15 38 31 39 12 0 52 3 89 6 43
3 81 0 107 -10 49 -17 80 -10 83 19 4 59 -11 82 -47 69 -22 -7 -157 -14 -310
-14 -108 -1 -154 3 -173 15 -18 11 -72 -3 -72 -19 0 -12 -89 -69 -97 -62 -1 2
0 30 3 63 l6 59 42 -2 c46 -1 56 8 56 54 0 21 -6 36 -19 42 -10 6 -20 8 -22 6
-3 -2 -19 -6 -37 -10 -37 -6 -37 -7 -24 122 l8 71 -29 6 c-16 3 -42 6 -57 6
-24 0 -27 -4 -28 -35z m194 -382 c-3 -4 -6 2 -5 13 0 11 3 14 6 6 3 -7 2 -16
-1 -19z"/>
<path d="M586 990 c-8 -29 -5 -85 5 -97 6 -6 9 -26 7 -44 l-3 -32 -62 -1 -62
-1 4 73 c3 39 1 73 -3 73 -4 1 -17 3 -28 4 -12 1 -25 5 -31 8 -5 3 -15 2 -23
-3 -12 -7 -15 -34 -15 -124 0 -63 3 -117 7 -121 4 -4 17 -7 30 -7 13 0 113 1
224 3 110 1 206 -1 212 -5 7 -4 21 -5 31 -1 17 5 19 17 19 108 0 56 1 108 3
116 6 21 -45 37 -78 25 -29 -10 -31 -21 -21 -123 l3 -33 -54 6 c-30 4 -56 8
-57 9 -2 1 -4 43 -6 92 l-3 89 -48 1 c-34 0 -48 -4 -51 -15z"/>
</g>
</svg>
