<?xml version="1.0" standalone="no"?>
<!DOCTYPE svg PUBLIC "-//W3C//DTD SVG 20010904//EN"
 "http://www.w3.org/TR/2001/REC-SVG-20010904/DTD/svg10.dtd">
<svg version="1.0" xmlns="http://www.w3.org/2000/svg"
 width="101.000000pt" height="101.000000pt" viewBox="0 0 101.000000 101.000000"
 preserveAspectRatio="xMidYMid meet">
<metadata>
Created by potrace 1.16, written by Peter Selinger 2001-2019
</metadata>
<g transform="translate(0.000000,101.000000) scale(0.100000,-0.100000)"
fill="#000000" stroke="none">
<path d="M175 978 c-4 -17 -4 -63 0 -102 l6 -71 -65 2 c-57 1 -66 -1 -72 -19
-3 -11 -3 -30 0 -44 6 -23 9 -24 70 -19 61 6 64 5 66 -17 4 -53 2 -118 -3
-132 -3 -8 -38 -25 -76 -37 -39 -13 -71 -28 -71 -35 0 -17 29 -84 36 -84 4 0
30 14 59 30 l53 30 1 -22 c1 -13 3 -72 4 -131 2 -121 0 -126 -64 -121 -36 3
-51 -7 -30 -20 5 -4 12 -24 16 -46 6 -38 8 -40 39 -36 41 5 98 29 112 47 8 10
9 35 3 86 -8 62 -7 159 3 253 2 20 14 29 58 47 58 23 67 40 49 91 l-9 23 -50
-26 -50 -25 -6 26 c-4 14 -2 36 4 50 7 13 9 30 6 38 -5 12 3 14 40 11 42 -4
46 -3 52 20 3 14 10 22 15 19 5 -2 17 0 28 5 16 9 19 7 20 -12 0 -12 3 -50 5
-85 3 -39 0 -77 -9 -102 -21 -59 -9 -78 45 -71 8 1 38 4 66 6 l50 6 1 -35 c1
-30 -3 -36 -26 -40 -40 -8 -134 -5 -152 5 -40 21 -72 -12 -62 -63 5 -25 23
-29 74 -14 14 4 41 4 59 -1 l32 -9 -43 -42 c-24 -24 -74 -57 -111 -75 -37 -18
-67 -34 -67 -37 0 -3 13 -20 30 -39 28 -30 33 -32 56 -22 38 17 134 94 175
139 41 46 39 51 40 -95 2 -101 4 -105 67 -95 31 4 33 6 25 36 -4 17 -7 60 -6
96 2 119 0 116 38 63 36 -51 98 -104 154 -133 l36 -18 32 38 c35 42 38 50 20
50 -28 0 -125 53 -160 88 -44 42 -46 49 -15 51 12 1 38 3 57 4 19 1 49 -1 66
-5 29 -6 32 -4 37 18 10 56 5 59 -111 61 -158 2 -150 0 -149 38 1 28 5 33 26
34 65 4 130 1 153 -8 31 -12 46 -3 49 29 5 57 8 56 -108 48 -60 -4 -139 -5
-178 -3 -38 3 -80 6 -92 6 -26 1 -34 30 -27 104 2 28 4 59 5 70 1 16 9 20 34
20 25 0 33 -4 34 -20 5 -69 5 -92 -2 -112 -7 -20 -5 -21 30 -16 65 9 177 8
202 -1 22 -8 23 -6 16 15 -7 22 -8 54 -4 115 1 19 7 21 46 18 24 -2 48 -6 53
-9 17 -10 41 27 38 59 l-3 31 -65 0 -66 0 4 30 c2 16 5 50 8 75 l4 45 -53 -2
-52 -1 2 -74 2 -73 -37 3 -37 4 5 63 c3 35 4 69 2 74 -2 6 -26 11 -53 11 l-49
0 3 -82 2 -83 -32 -3 -32 -3 5 65 c3 36 1 66 -3 67 -4 1 -27 3 -50 5 l-42 4 2
-63 2 -63 -27 4 c-22 3 -28 0 -34 -22 -3 -14 -9 -26 -13 -27 -80 -7 -77 -8
-73 30 2 20 5 64 7 98 5 68 2 71 -62 71 -27 1 -33 -4 -38 -30z m562 -238 l2
-40 -43 2 c-43 2 -44 3 -43 35 1 30 3 32 41 36 23 2 41 4 41 5 1 1 1 -16 2
-38z"/>
</g>
</svg>
