<?xml version="1.0" standalone="no"?>
<!DOCTYPE svg PUBLIC "-//W3C//DTD SVG 20010904//EN"
 "http://www.w3.org/TR/2001/REC-SVG-20010904/DTD/svg10.dtd">
<svg version="1.0" xmlns="http://www.w3.org/2000/svg"
 width="101.000000pt" height="101.000000pt" viewBox="0 0 101.000000 101.000000"
 preserveAspectRatio="xMidYMid meet">
<metadata>
Created by potrace 1.16, written by Peter Selinger 2001-2019
</metadata>
<g transform="translate(0.000000,101.000000) scale(0.100000,-0.100000)"
fill="#000000" stroke="none">
<path d="M172 948 c0 -35 4 -68 10 -75 13 -16 6 -59 -9 -56 -7 2 -35 3 -63 4
-52 2 -70 -8 -70 -41 0 -33 19 -45 72 -45 l53 0 0 -90 0 -89 -66 -21 c-72 -21
-75 -26 -55 -97 l8 -27 37 18 c65 33 79 35 80 9 0 -13 3 -59 6 -103 7 -112 -4
-131 -74 -128 -37 1 -51 -2 -47 -10 3 -7 11 -31 17 -54 15 -50 33 -57 98 -37
51 15 87 46 76 64 -10 15 3 60 17 60 6 0 26 -11 44 -25 18 -14 36 -25 41 -25
10 0 124 116 145 147 14 21 15 21 55 -32 l42 -54 -57 -21 c-31 -12 -79 -23
-105 -25 -27 -2 -51 -6 -54 -9 -3 -3 6 -19 21 -36 14 -17 26 -36 26 -42 0 -18
65 -1 155 41 l87 41 41 -21 c53 -28 163 -69 182 -69 9 0 20 12 25 26 6 15 20
40 31 55 19 27 19 29 2 30 -74 6 -161 19 -188 29 l-28 11 25 27 c36 38 96 134
104 166 6 25 4 27 -19 21 -14 -4 -33 -2 -44 3 -13 7 -36 6 -78 -5 -45 -12 -67
-13 -88 -5 -16 6 -35 8 -43 5 -17 -6 -17 5 1 37 14 26 18 27 132 35 45 3 85 0
110 -9 77 -27 131 -3 116 53 -4 17 -16 19 -141 19 -191 0 -182 -1 -170 32 7
20 16 28 36 29 67 4 131 1 153 -7 38 -14 96 -3 102 19 10 37 -3 57 -41 62 -21
2 -48 0 -61 -5 -22 -8 -23 -7 -11 9 8 10 30 35 49 55 28 31 32 40 22 52 -12
14 -80 42 -85 34 -1 -1 -12 -26 -25 -54 -41 -91 -57 -104 -131 -105 -66 -1
-138 6 -147 14 -2 3 5 8 16 12 12 3 21 14 21 24 0 26 -21 85 -34 93 -6 4 3 8
19 8 17 0 36 4 43 8 7 5 27 6 44 4 31 -5 31 -5 9 -14 -19 -7 -22 -13 -16 -36
4 -15 8 -39 9 -54 3 -38 9 -41 55 -33 38 6 41 9 36 33 -12 67 -16 78 -30 88
-25 18 21 31 100 27 106 -5 155 4 155 28 0 11 -14 34 -30 51 -25 25 -35 29
-58 22 -30 -8 -92 -13 -165 -13 -26 0 -52 -3 -58 -7 -6 -3 -57 -6 -112 -5
-142 1 -141 1 -110 -59 14 -28 29 -50 32 -50 3 0 7 -16 9 -36 2 -38 18 -74 36
-86 6 -4 -8 -6 -31 -5 -50 2 -56 -3 -56 -43 0 -36 5 -42 35 -41 133 8 128 8
123 -17 -6 -33 -4 -32 -71 -33 -98 -1 -113 1 -116 16 -2 12 -10 11 -45 -5
l-42 -19 2 70 2 69 35 1 c19 1 41 0 49 -1 18 -2 31 19 31 52 0 29 -14 45 -25
28 -3 -5 -25 -10 -48 -10 l-42 0 1 72 c1 40 5 86 9 101 7 26 6 28 -19 21 -16
-4 -26 -2 -26 5 0 6 -13 11 -29 11 -29 0 -29 0 -29 -62z m190 -419 c4 -12 31
-14 96 -7 23 3 42 3 42 1 0 -11 -37 -75 -77 -131 -43 -61 -133 -142 -157 -142
-8 0 -11 27 -10 98 4 150 4 151 44 173 41 21 57 23 62 8z m342 -127 l39 -7
-43 -54 -43 -55 -44 48 c-46 51 -54 71 -25 62 9 -3 24 -1 32 4 17 11 30 11 84
2z"/>
</g>
</svg>
