<?xml version="1.0" standalone="no"?>
<!DOCTYPE svg PUBLIC "-//W3C//DTD SVG 20010904//EN"
 "http://www.w3.org/TR/2001/REC-SVG-20010904/DTD/svg10.dtd">
<svg version="1.0" xmlns="http://www.w3.org/2000/svg"
 width="101.000000pt" height="101.000000pt" viewBox="0 0 101.000000 101.000000"
 preserveAspectRatio="xMidYMid meet">
<metadata>
Created by potrace 1.16, written by Peter Selinger 2001-2019
</metadata>
<g transform="translate(0.000000,101.000000) scale(0.100000,-0.100000)"
fill="#000000" stroke="none">
<path d="M159 1001 c11 -7 12 -28 6 -104 -7 -98 -7 -98 -51 -84 -36 12 -74 -8
-74 -40 0 -46 10 -53 69 -47 46 4 53 2 47 -11 -3 -9 -1 -25 4 -35 6 -11 8 -43
4 -74 -7 -60 2 -53 -104 -73 -13 -2 -26 -6 -27 -7 -7 -6 21 -106 29 -106 5 0
26 9 48 20 49 25 48 25 49 -2 0 -13 3 -54 6 -93 7 -99 -6 -121 -69 -118 -33 1
-46 -2 -42 -10 3 -7 11 -31 17 -54 15 -49 32 -56 91 -36 71 24 73 28 74 176 3
193 2 189 49 203 33 9 41 16 46 43 6 30 2 71 -8 71 -2 0 -21 -9 -43 -20 l-38
-20 -7 39 c-4 23 -2 48 4 60 6 11 8 26 5 35 -5 12 3 14 40 11 41 -2 47 0 52
21 3 13 10 21 15 18 12 -7 12 -51 0 -58 -12 -8 -13 -114 -1 -121 11 -7 13 -94
4 -171 -6 -48 -8 -51 -35 -51 -39 0 -42 -5 -29 -52 12 -44 16 -46 73 -30 38
10 79 18 133 24 34 3 32 8 36 -75 1 -19 -1 -58 -6 -86 -8 -58 0 -66 62 -56 28
4 32 7 25 26 -7 18 -8 106 -2 194 0 12 6 22 13 21 37 -5 59 22 49 60 -5 19
-11 22 -34 17 l-29 -5 1 92 c0 51 0 118 0 150 -1 130 5 222 14 229 5 4 15 2
22 -3 7 -6 16 -8 20 -6 4 3 6 -26 5 -65 -2 -42 1 -75 7 -81 14 -14 14 -54 1
-62 -12 -7 -12 -212 0 -220 12 -7 11 -153 0 -160 -5 -3 -9 -45 -8 -94 0 -98 3
-103 66 -93 31 4 33 6 30 46 -1 22 -1 77 1 121 l3 80 19 -40 c10 -22 20 -44
22 -48 5 -14 84 12 115 38 45 37 54 83 31 158 -10 34 -33 84 -50 111 -17 28
-32 57 -34 66 -3 15 8 58 50 200 2 8 9 35 15 60 6 25 13 52 16 61 4 14 -10 16
-118 17 -68 0 -127 1 -133 2 -20 5 -36 0 -31 -9 3 -4 -13 -5 -37 0 -60 12
-167 11 -167 -1 0 -5 -16 -10 -35 -10 -19 0 -35 5 -35 10 0 6 -24 10 -54 10
-46 0 -56 -3 -61 -20 -7 -23 3 -62 18 -72 6 -4 18 -3 27 2 13 7 15 2 12 -31
-4 -35 -6 -38 -24 -28 -11 6 -32 9 -47 6 -26 -5 -26 -5 -23 46 1 29 4 72 5 97
l2 45 -55 3 c-36 1 -50 -1 -41 -7z m366 -181 l0 -55 -42 0 -41 0 1 55 2 55 40
0 40 0 0 -55z m287 50 c21 0 27 -26 16 -65 -5 -16 -11 -43 -14 -60 -2 -16 -11
-52 -18 -80 -13 -50 -13 -50 26 -122 42 -78 59 -162 36 -181 -7 -5 -29 -9 -48
-8 l-35 2 -3 72 c-2 39 -7 72 -12 72 -6 0 -10 20 -10 45 0 25 5 45 10 45 6 0
10 30 10 70 0 40 -4 70 -10 70 -6 0 -10 32 -10 76 0 74 1 76 23 70 12 -3 30
-6 39 -6z m-283 -203 c0 -12 2 -38 3 -57 l3 -35 -50 0 -50 0 3 35 c1 19 3 44
3 55 1 17 9 21 44 23 38 1 43 -1 44 -21z m-2 -181 c-3 -8 0 -29 6 -46 10 -28
10 -33 -7 -45 -10 -8 -34 -13 -55 -11 -35 2 -36 4 -33 37 1 19 3 43 3 54 1 17
9 21 46 23 35 1 44 -1 40 -12z"/>
</g>
</svg>
