<?xml version="1.0" standalone="no"?>
<!DOCTYPE svg PUBLIC "-//W3C//DTD SVG 20010904//EN"
 "http://www.w3.org/TR/2001/REC-SVG-20010904/DTD/svg10.dtd">
<svg version="1.0" xmlns="http://www.w3.org/2000/svg"
 width="101.000000pt" height="101.000000pt" viewBox="0 0 101.000000 101.000000"
 preserveAspectRatio="xMidYMid meet">
<metadata>
Created by potrace 1.16, written by Peter Selinger 2001-2019
</metadata>
<g transform="translate(0.000000,101.000000) scale(0.100000,-0.100000)"
fill="#000000" stroke="none">
<path d="M605 939 l5 -70 -84 7 c-110 9 -154 1 -162 -31 -3 -13 0 -33 6 -45
11 -21 17 -22 81 -16 l70 6 -23 -31 c-26 -34 -128 -106 -164 -115 -23 -6 -34
-24 -14 -24 23 0 8 -17 -23 -27 l-32 -10 0 62 0 62 46 -4 c46 -4 47 -3 53 30
10 56 1 67 -55 63 l-49 -3 5 79 c2 44 7 82 9 87 12 18 -15 34 -58 35 -42 1
-46 -1 -52 -28 -3 -16 -3 -61 1 -100 l6 -71 -70 2 c-66 2 -71 0 -76 -20 -3
-12 -2 -35 3 -52 7 -26 14 -30 46 -33 21 -2 50 1 64 6 l27 9 2 -83 1 -83 -51
-19 c-29 -11 -67 -23 -85 -27 -22 -4 -32 -11 -28 -20 3 -8 8 -30 12 -49 7 -40
8 -40 33 -26 10 5 41 18 68 29 l51 20 1 -22 c0 -12 3 -58 6 -102 7 -113 -13
-143 -80 -125 -5 1 -18 2 -28 1 -16 -1 -16 -3 -2 -32 9 -17 14 -33 11 -36 -3
-3 -1 -14 5 -24 16 -31 127 -13 159 27 12 13 15 52 17 163 2 203 -1 189 44
202 36 11 44 20 40 42 -1 4 4 17 10 29 8 15 13 17 19 8 6 -9 12 -9 29 -1 18
10 21 9 22 -6 1 -10 3 -29 5 -43 12 -71 11 -146 -1 -179 -7 -21 -11 -50 -8
-65 5 -26 7 -26 57 -20 83 11 279 9 313 -3 17 -6 40 -9 51 -7 17 5 18 11 10
60 -10 64 -1 272 12 267 3 -1 13 -5 22 -8 12 -5 28 5 53 30 21 20 35 37 34 39
-2 1 -26 10 -52 20 -27 10 -73 41 -104 70 l-56 52 54 -2 c117 -5 150 12 135
71 -6 22 -8 23 -129 21 -105 -1 -123 1 -121 14 2 8 5 39 8 68 l5 52 -55 0 -55
0 6 -71z m-3 -278 c-12 -33 -6 -46 26 -55 49 -16 58 -3 54 79 -2 41 0 75 4 75
5 0 20 -16 33 -36 14 -19 47 -55 74 -80 27 -24 43 -42 34 -38 -8 3 -26 -1 -39
-10 -25 -17 -163 -21 -173 -6 -3 4 -31 9 -62 10 -119 3 -117 -4 -33 80 l75 75
8 -32 c6 -20 5 -44 -1 -62z m139 -137 c21 -4 26 -11 26 -34 0 -25 -5 -31 -31
-35 -17 -3 -65 -3 -106 0 -41 3 -84 6 -96 6 -16 1 -21 8 -21 30 0 22 4 28 16
24 9 -2 22 -1 30 4 15 10 142 13 182 5z m0 -120 c21 -4 26 -11 26 -34 0 -25
-5 -31 -31 -35 -17 -3 -65 -3 -106 0 -41 3 -84 6 -96 6 -16 1 -21 8 -21 30 0
22 4 28 16 24 9 -2 22 -1 30 4 15 10 142 13 182 5z"/>
<path d="M327 200 c-2 -9 -2 -30 1 -48 4 -30 5 -31 46 -26 22 4 84 6 136 6
186 -1 221 -1 273 1 28 1 75 -1 103 -5 50 -7 52 -6 57 19 2 14 2 34 -1 45 -4
18 -13 19 -116 18 -61 -1 -140 -1 -176 -1 -36 0 -108 0 -160 0 -52 -1 -109 1
-127 3 -23 4 -33 0 -36 -12z"/>
</g>
</svg>
