<?xml version="1.0" standalone="no"?>
<!DOCTYPE svg PUBLIC "-//W3C//DTD SVG 20010904//EN"
 "http://www.w3.org/TR/2001/REC-SVG-20010904/DTD/svg10.dtd">
<svg version="1.0" xmlns="http://www.w3.org/2000/svg"
 width="101.000000pt" height="101.000000pt" viewBox="0 0 101.000000 101.000000"
 preserveAspectRatio="xMidYMid meet">
<metadata>
Created by potrace 1.16, written by Peter Selinger 2001-2019
</metadata>
<g transform="translate(0.000000,101.000000) scale(0.100000,-0.100000)"
fill="#000000" stroke="none">
<path d="M165 976 c-4 -19 -2 -43 4 -54 12 -23 14 -74 5 -110 -6 -20 -11 -22
-64 -17 -56 4 -58 3 -64 -21 -9 -36 2 -64 25 -64 10 0 19 5 19 11 0 6 15 9 36
7 l36 -3 2 -96 1 -96 -67 -24 c-38 -13 -68 -25 -68 -27 0 -2 10 -22 23 -45 12
-23 23 -44 24 -45 1 -2 19 8 40 22 46 32 51 32 52 4 0 -13 3 -55 6 -95 3 -40
1 -83 -5 -97 -8 -21 -15 -25 -49 -23 -50 2 -55 -3 -36 -39 8 -16 15 -37 15
-46 0 -9 8 -18 18 -20 22 -4 107 23 124 40 9 9 14 54 15 155 2 201 -2 184 53
208 43 19 48 24 48 53 0 55 -10 61 -57 37 l-42 -22 7 68 c4 37 8 69 9 71 2 2
13 4 26 5 29 1 39 14 39 49 0 31 -30 53 -61 45 -18 -5 -19 0 -14 71 3 43 8 87
11 99 6 20 4 22 -30 16 -24 -4 -36 -2 -36 6 0 6 -9 11 -20 11 -14 0 -21 -9
-25 -34z"/>
<path d="M518 1003 c-22 -5 -34 -48 -20 -66 14 -16 14 -174 1 -182 -11 -7 -12
-95 -1 -111 4 -6 13 -13 21 -15 8 -3 -18 -4 -57 -3 l-71 2 5 -82 c2 -44 5 -99
7 -121 1 -22 -1 -56 -5 -77 -7 -40 6 -50 54 -41 24 4 24 8 26 96 1 143 -3 132
56 130 28 0 56 2 61 7 14 11 157 12 174 1 7 -5 11 -13 8 -18 -4 -6 -1 -23 5
-40 9 -23 8 -39 -4 -75 -27 -78 -8 -113 57 -100 27 5 27 6 21 62 -5 43 -3 60
6 64 10 5 10 7 1 12 -15 7 -18 74 -3 74 6 0 10 25 10 56 0 43 -3 55 -13 51 -8
-3 -20 -2 -27 3 -9 6 -4 13 19 24 36 19 34 26 -24 93 -38 45 -42 45 -89 10
-19 -14 -19 -16 17 -58 39 -45 47 -69 22 -69 -8 0 -15 -4 -15 -10 0 -5 -16
-10 -35 -10 -19 0 -35 5 -35 10 0 6 -22 10 -49 10 -46 0 -49 2 -54 30 -4 16
-3 39 1 50 l8 21 26 -20 c14 -12 30 -21 35 -21 4 0 24 26 45 57 l36 56 111 -1
c121 0 130 4 115 63 -6 23 -10 26 -36 21 -34 -7 -148 4 -148 14 0 4 11 19 25
34 32 35 32 42 -7 56 -51 18 -78 21 -78 9 0 -40 -113 -259 -127 -246 -8 9 -4
173 5 203 9 28 7 33 -14 43 -26 11 -36 12 -66 4z"/>
<path d="M378 953 c-26 -7 -31 -55 -22 -201 5 -76 8 -83 29 -88 55 -14 60 -4
61 120 1 62 5 124 9 136 11 34 -22 48 -77 33z"/>
<path d="M598 502 c-10 -2 -19 -9 -19 -15 -9 -82 -20 -122 -45 -164 -39 -67
-111 -114 -198 -127 -52 -8 -54 -11 -24 -39 14 -13 29 -31 35 -42 10 -17 14
-16 78 13 85 40 141 84 175 139 31 48 28 52 34 -57 1 -30 3 -60 4 -66 3 -20
80 -46 101 -34 11 5 47 7 83 3 61 -5 66 -4 96 23 18 16 34 43 37 59 5 26 1 33
-31 53 -37 23 -53 19 -54 -14 0 -6 -11 -21 -25 -34 -23 -21 -29 -23 -56 -13
-17 7 -36 10 -43 7 -20 -8 -49 44 -42 75 4 14 9 37 11 51 2 14 7 35 10 48 7
22 -6 28 -57 24 -13 -1 -16 5 -13 29 3 17 10 38 16 45 7 8 10 16 8 17 -16 10
-67 22 -81 19z"/>
</g>
</svg>
