<?xml version="1.0" standalone="no"?>
<!DOCTYPE svg PUBLIC "-//W3C//DTD SVG 20010904//EN"
 "http://www.w3.org/TR/2001/REC-SVG-20010904/DTD/svg10.dtd">
<svg version="1.0" xmlns="http://www.w3.org/2000/svg"
 width="101.000000pt" height="101.000000pt" viewBox="0 0 101.000000 101.000000"
 preserveAspectRatio="xMidYMid meet">
<metadata>
Created by potrace 1.16, written by Peter Selinger 2001-2019
</metadata>
<g transform="translate(0.000000,101.000000) scale(0.100000,-0.100000)"
fill="#000000" stroke="none">
<path d="M154 912 l3 -98 -53 4 c-46 4 -53 2 -64 -18 -6 -12 -9 -32 -6 -43 4
-19 12 -22 62 -22 l56 0 2 -92 c1 -92 1 -93 -26 -102 -14 -5 -29 -7 -31 -4 -3
3 -12 1 -19 -3 -13 -9 -18 -10 -39 -13 -6 -1 -7 -10 -3 -23 4 -13 8 -34 10
-46 4 -36 11 -38 59 -14 55 27 53 27 54 0 0 -13 3 -59 6 -103 7 -107 -5 -130
-63 -129 -23 1 -42 -1 -42 -3 0 -3 8 -27 17 -54 17 -48 19 -49 53 -45 52 7 99
26 109 45 5 9 6 45 3 81 -4 36 -5 85 -4 110 8 165 5 153 43 168 18 8 37 19 41
26 7 10 7 86 0 86 -1 0 -21 -9 -44 -21 l-41 -21 6 39 c4 21 7 53 7 71 0 29 3
32 29 32 53 0 79 50 44 85 -11 12 -27 15 -47 12 l-31 -5 2 57 c1 56 6 82 18
112 7 17 -28 29 -86 29 l-28 0 3 -98z"/>
<path d="M418 962 c-34 -20 -34 -25 -4 -65 13 -18 28 -41 34 -53 10 -19 8 -20
-18 -16 -17 2 -40 2 -53 -2 -24 -6 -24 -6 -20 -128 4 -137 4 -227 1 -435 -3
-156 -4 -155 59 -146 24 4 30 10 31 31 1 15 2 36 3 47 0 11 -4 51 -11 88 -8
45 -8 72 -2 80 6 7 9 36 9 65 -2 53 -2 53 16 31 15 -19 22 -21 37 -12 15 10
18 9 19 -10 0 -12 3 -50 5 -85 3 -35 1 -75 -5 -89 -5 -14 -7 -28 -5 -30 6 -7
42 -7 99 0 27 3 59 2 72 -3 12 -5 31 -6 42 -4 17 5 19 16 20 102 2 146 2 143
28 136 16 -4 26 0 34 13 9 15 10 13 11 -14 0 -18 5 -33 10 -33 15 0 12 -67 -2
-74 -10 -5 -10 -7 0 -12 17 -8 16 -128 -1 -142 -7 -6 -32 -9 -55 -7 -23 2 -42
1 -42 -1 0 -3 7 -18 15 -35 9 -16 14 -33 11 -37 -8 -13 10 -33 30 -33 58 0
108 20 122 49 15 27 24 110 13 116 -12 8 -14 153 -1 161 12 8 12 213 0 220
-13 8 -13 52 0 60 6 4 10 56 9 132 l-2 125 -31 -6 c-71 -15 -249 -18 -272 -5
-33 17 -74 -2 -74 -33 0 -50 10 -53 147 -52 l128 1 2 -153 1 -152 -27 3 c-15
2 -45 11 -68 20 l-41 16 54 81 c30 45 54 84 54 88 0 3 -27 4 -60 2 -40 -3 -60
-1 -60 7 0 6 -14 11 -32 11 -30 0 -31 1 -12 14 18 14 18 15 -9 25 -70 27 -70
27 -104 -46 -18 -37 -42 -81 -55 -96 l-23 -28 2 63 c1 35 2 69 2 75 1 7 24 24
51 38 l50 25 -16 33 c-25 47 -65 97 -78 97 -6 0 -23 -8 -38 -18z m234 -294
c-9 -16 -20 -28 -23 -28 -4 0 -16 12 -27 28 l-20 27 43 0 43 0 -16 -27z m-82
-80 c0 -8 -76 -53 -105 -62 -18 -5 -20 -1 -20 43 0 49 8 55 42 29 8 -6 17 -1
29 17 l18 27 18 -24 c9 -12 18 -26 18 -30z m130 -98 c0 -10 -38 -18 -75 -15
-16 1 -39 3 -49 4 -15 1 -10 7 20 29 l39 28 32 -19 c18 -10 33 -23 33 -27z
m-32 -135 l2 -44 -40 2 -39 1 1 41 c2 40 3 41 38 42 35 2 36 1 38 -42z"/>
</g>
</svg>
