<?xml version="1.0" standalone="no"?>
<!DOCTYPE svg PUBLIC "-//W3C//DTD SVG 20010904//EN"
 "http://www.w3.org/TR/2001/REC-SVG-20010904/DTD/svg10.dtd">
<svg version="1.0" xmlns="http://www.w3.org/2000/svg"
 width="101.000000pt" height="101.000000pt" viewBox="0 0 101.000000 101.000000"
 preserveAspectRatio="xMidYMid meet">
<metadata>
Created by potrace 1.16, written by Peter Selinger 2001-2019
</metadata>
<g transform="translate(0.000000,101.000000) scale(0.100000,-0.100000)"
fill="#000000" stroke="none">
<path d="M177 973 c2 -21 0 -74 -4 -118 l-8 -80 -60 0 c-50 0 -61 -3 -68 -19
-19 -47 16 -72 86 -62 l42 6 1 -74 1 -75 -66 -27 c-36 -15 -70 -31 -74 -35
-10 -7 33 -89 46 -89 5 0 23 11 40 24 50 37 55 38 56 13 0 -12 3 -57 6 -99 3
-42 1 -88 -5 -102 -9 -24 -13 -25 -60 -21 -27 3 -50 2 -50 -1 0 -3 7 -18 15
-34 8 -16 15 -33 14 -37 -7 -41 19 -45 101 -16 64 22 65 22 86 3 11 -11 25
-20 31 -20 14 0 68 103 88 170 25 83 28 108 26 202 -1 48 3 89 8 93 13 7 12
113 0 121 -13 7 -11 48 2 61 6 6 9 33 8 60 -4 49 -4 49 26 50 17 0 57 2 90 4
l60 4 0 -75 0 -75 -45 1 c-25 1 -49 3 -55 4 -38 9 -45 0 -39 -47 12 -105 14
-209 4 -262 -6 -31 -13 -67 -16 -81 -9 -44 -52 -129 -88 -173 l-35 -42 45 -19
c44 -18 45 -18 60 0 22 28 59 103 74 149 20 58 19 53 31 231 1 15 8 21 23 21
11 -1 30 2 42 6 18 6 21 3 21 -23 0 -37 22 -62 54 -61 13 1 55 3 92 4 61 2 71
5 93 30 31 36 30 61 -1 75 -36 16 -45 15 -45 -6 0 -11 -9 -27 -20 -37 -17 -15
-24 -16 -45 -7 -14 6 -32 9 -41 5 -12 -4 -15 -1 -12 13 2 14 14 19 48 21 52 4
63 12 63 53 0 34 1 34 27 20 16 -9 24 -2 54 49 20 32 36 63 36 69 0 15 -22 20
-48 11 -26 -10 -190 0 -197 12 -3 4 40 11 95 14 94 7 101 9 106 31 11 45 3 49
-103 49 -86 0 -99 2 -100 17 -2 24 24 30 143 32 65 0 104 5 104 11 0 6 -17 28
-38 48 -33 32 -43 36 -72 32 -82 -12 -108 -14 -153 -14 -26 0 -52 -3 -59 -7
-6 -4 -63 -7 -127 -6 -64 1 -123 -3 -131 -8 -9 -5 -15 -27 -16 -57 -1 -26 -3
-59 -3 -73 -1 -24 -4 -25 -41 -22 l-40 4 -2 62 c0 33 0 68 1 76 9 74 9 75 -39
78 l-46 3 3 -38z m167 -343 c4 -36 5 -62 1 -58 -7 6 -13 31 -14 56 -1 11 -10
9 -37 -7 -19 -12 -36 -21 -37 -21 -1 0 -2 19 -2 42 0 43 0 43 40 48 22 3 41 5
41 5 1 0 5 -29 8 -65z m463 15 c6 -21 -17 -39 -54 -41 -34 -1 -38 1 -39 23 -2
18 2 22 15 19 9 -3 23 -1 31 4 18 12 42 9 47 -5z m-170 -25 c0 -17 -3 -31 -6
-31 -3 -1 -22 -3 -42 -4 -35 -2 -37 -1 -36 29 1 30 3 32 42 34 40 1 42 0 42
-28z m-291 -85 c-3 -8 0 -26 6 -40 8 -19 8 -35 -2 -67 -7 -24 -14 -56 -17 -73
-6 -39 -37 -109 -62 -141 l-19 -24 -6 82 c-3 46 -4 108 -1 138 3 30 5 65 6 76
1 14 15 28 43 43 49 25 60 26 52 6z"/>
<path d="M609 413 c-20 -5 -30 -35 -18 -54 7 -13 6 -32 -6 -98 -7 -39 -38 -86
-66 -101 -27 -15 -24 -25 18 -50 l36 -21 24 28 c47 57 61 98 65 199 0 16 7 20
33 21 37 1 35 9 38 -129 1 -48 7 -91 12 -97 6 -5 25 -13 43 -16 19 -3 37 -6
40 -7 4 -1 19 2 34 6 37 11 68 47 74 87 5 32 3 36 -30 52 l-37 17 -9 -26 c-6
-14 -8 -30 -5 -34 3 -5 -3 -14 -14 -19 -14 -8 -22 -7 -32 5 -16 19 -22 149 -9
174 5 9 6 27 3 39 -5 20 -11 22 -77 19 -39 -1 -78 0 -86 4 -8 3 -22 4 -31 1z"/>
</g>
</svg>
