<?xml version="1.0" standalone="no"?>
<!DOCTYPE svg PUBLIC "-//W3C//DTD SVG 20010904//EN"
 "http://www.w3.org/TR/2001/REC-SVG-20010904/DTD/svg10.dtd">
<svg version="1.0" xmlns="http://www.w3.org/2000/svg"
 width="101.000000pt" height="101.000000pt" viewBox="0 0 101.000000 101.000000"
 preserveAspectRatio="xMidYMid meet">
<metadata>
Created by potrace 1.16, written by Peter Selinger 2001-2019
</metadata>
<g transform="translate(0.000000,101.000000) scale(0.100000,-0.100000)"
fill="#000000" stroke="none">
<path d="M404 975 c-3 -19 -4 -41 -1 -48 3 -9 -3 -12 -22 -10 -43 6 -54 -9
-52 -69 1 -29 6 -54 11 -56 11 -4 13 -123 4 -159 -4 -14 -14 -23 -25 -23 -11
0 -19 -7 -19 -15 0 -8 -5 -15 -11 -15 -7 0 -9 10 -5 25 7 29 -4 32 -39 9 -23
-15 -24 -15 -31 11 -4 14 -2 37 4 51 7 13 9 30 6 37 -3 9 6 13 32 14 42 1 57
17 48 53 -7 31 -22 41 -56 37 -26 -3 -26 -3 -22 52 4 66 7 82 18 99 12 20 1
25 -52 26 l-48 1 -1 -50 c-1 -27 3 -55 8 -62 6 -6 9 -24 7 -40 -3 -26 -5 -27
-50 -24 -44 2 -49 0 -58 -25 -20 -52 13 -83 76 -71 19 3 24 1 20 -9 -3 -8 -1
-25 5 -38 7 -15 8 -39 2 -67 -8 -40 -12 -45 -58 -63 -28 -11 -52 -21 -54 -23
-6 -4 21 -93 28 -93 3 0 20 9 36 20 38 25 43 25 44 -2 0 -13 3 -57 6 -98 3
-42 0 -89 -6 -108 -10 -29 -15 -33 -42 -31 -66 4 -68 3 -53 -33 8 -18 17 -41
20 -52 5 -16 13 -17 47 -12 55 9 76 21 99 58 17 28 17 34 4 71 -11 30 -13 67
-9 132 3 49 5 100 6 112 1 16 11 26 35 35 19 6 34 19 35 28 0 10 2 11 6 3 2
-7 13 -13 24 -13 16 0 18 -5 13 -32 -3 -18 -8 -51 -10 -73 -3 -38 -5 -51 -18
-121 -9 -49 -34 -113 -56 -144 -24 -34 -25 -40 -5 -40 9 0 29 -7 44 -15 27
-13 29 -13 41 13 18 40 51 133 56 162 12 62 27 197 26 228 0 16 4 22 14 18 8
-3 25 -1 38 6 35 16 74 3 75 -24 0 -13 3 -54 6 -93 6 -76 -1 -162 -15 -184 -5
-9 -23 -14 -47 -13 l-39 2 15 -49 c15 -45 18 -49 44 -46 41 5 90 37 105 68 7
15 12 62 12 114 -2 382 -4 366 36 322 l19 -21 17 22 c25 31 49 120 51 188 2
56 2 57 32 57 l30 0 -1 -95 c0 -52 1 -102 3 -112 5 -23 59 -41 84 -27 11 5 29
7 39 4 11 -4 20 -3 21 2 0 4 2 23 5 41 4 33 -5 38 -59 34 -18 -2 -18 4 -12 95
4 54 7 100 7 103 1 30 -3 31 -67 25 -47 -5 -65 -4 -65 4 0 8 -16 11 -47 9
l-48 -3 -2 -98 c-2 -93 -15 -161 -33 -172 -4 -2 -6 40 -3 94 5 123 -3 134 -84
129 -29 -1 -53 -1 -53 2 0 3 9 22 19 42 l20 36 -22 6 c-12 3 -39 6 -59 6 -34
0 -38 -2 -44 -35z m130 -248 l4 -117 -25 -6 c-13 -4 -35 -2 -49 4 -13 7 -30 9
-38 6 -12 -5 -14 14 -13 116 l2 121 58 -3 58 -3 3 -118z"/>
<path d="M463 803 c-29 -6 -36 -31 -28 -97 6 -43 11 -55 27 -59 40 -11 56 10
49 63 -1 8 -2 33 -4 54 -2 41 -8 46 -44 39z"/>
<path d="M637 590 c-12 -48 24 -81 64 -59 19 9 129 1 129 -10 0 -3 -12 -44
-27 -91 -26 -84 -27 -84 -39 -55 -7 17 -15 46 -18 66 -10 63 -15 69 -53 64
-20 -2 -38 -7 -41 -10 -9 -8 15 -92 46 -159 l26 -58 -45 -42 c-24 -23 -57 -51
-73 -62 l-29 -21 34 -31 c19 -17 37 -32 40 -32 3 0 33 27 66 60 l60 60 46 -45
c72 -68 77 -69 114 -19 l33 44 -39 19 c-21 11 -52 32 -70 46 -29 25 -30 28
-17 53 16 33 60 166 80 246 l15 58 -37 -7 c-43 -9 -147 -10 -213 -1 -41 5 -47
4 -52 -14z"/>
<path d="M453 499 c-23 -9 -24 -26 -7 -115 3 -19 1 -34 -5 -38 -32 -20 6 -50
49 -39 17 5 19 11 14 38 -3 18 -1 41 4 52 12 21 -5 100 -22 106 -6 3 -21 1
-33 -4z"/>
</g>
</svg>
