<?xml version="1.0" standalone="no"?>
<!DOCTYPE svg PUBLIC "-//W3C//DTD SVG 20010904//EN"
 "http://www.w3.org/TR/2001/REC-SVG-20010904/DTD/svg10.dtd">
<svg version="1.0" xmlns="http://www.w3.org/2000/svg"
 width="101.000000pt" height="102.000000pt" viewBox="0 0 101.000000 102.000000"
 preserveAspectRatio="xMidYMid meet">
<metadata>
Created by potrace 1.16, written by Peter Selinger 2001-2019
</metadata>
<g transform="translate(0.000000,102.000000) scale(0.100000,-0.100000)"
fill="#000000" stroke="none">
<path d="M620 1013 c-8 -2 -21 -6 -28 -9 -10 -3 -10 -9 1 -31 38 -73 42 -70
-103 -66 -131 3 -138 1 -130 -32 1 -5 2 -35 1 -67 -1 -31 3 -59 8 -63 13 -7
13 -153 1 -160 -5 -3 -9 -38 -9 -78 0 -138 -16 -208 -67 -295 l-26 -44 28 -31
c16 -18 32 -36 35 -40 10 -14 45 52 74 138 33 98 36 110 41 210 2 44 4 90 5
103 1 16 6 22 16 18 8 -3 23 -1 34 4 11 6 40 8 67 4 45 -6 49 -8 49 -35 0 -24
-5 -30 -33 -35 -17 -3 -41 -1 -51 5 -40 21 -82 -14 -67 -54 7 -18 44 -26 67
-14 10 6 34 8 51 5 28 -5 33 -10 33 -36 0 -26 -4 -30 -38 -35 -21 -4 -46 -2
-57 4 -42 22 -84 -18 -62 -60 6 -9 8 -65 7 -123 -3 -114 -5 -112 53 -107 29 3
42 19 34 42 -3 12 2 17 18 18 13 0 55 3 93 6 39 3 85 3 103 0 29 -5 32 -9 27
-34 -6 -33 10 -41 64 -33 31 4 33 6 25 36 -9 34 -9 159 -1 219 l5 38 -71 -1
c-112 -2 -114 -1 -114 30 0 31 3 32 108 31 l66 -1 1 37 c3 80 2 79 39 80 42 1
46 5 46 43 0 38 -4 42 -45 43 l-33 1 1 57 1 57 -88 7 c-85 6 -87 7 -91 33 l-4
27 128 -2 c119 -1 128 0 133 19 14 43 -18 90 -48 71 -6 -3 -59 -7 -119 -7 -59
-1 -104 1 -98 2 14 5 12 25 -6 72 -16 40 -32 47 -74 33z m-4 -216 c0 -31 -1
-32 -33 -29 -84 10 -129 -20 -103 -69 11 -20 17 -21 74 -15 60 6 61 5 61 -18
0 -21 -6 -25 -48 -30 -26 -4 -55 -2 -66 4 -11 5 -26 7 -34 4 -12 -4 -14 10
-13 85 l1 90 45 4 c119 9 115 10 116 -26z m179 -137 c-2 -20 -7 -24 -26 -22
-13 2 -33 3 -44 4 -13 0 -20 8 -21 22 -1 19 4 21 46 21 45 0 48 -1 45 -25z m0
-120 c0 -31 -3 -35 -25 -32 -14 2 -34 3 -46 4 -16 0 -21 7 -21 29 0 22 4 28
16 24 9 -2 23 0 31 5 28 18 45 7 45 -30z m-25 -226 c22 -4 26 -10 28 -49 1
-42 0 -44 -31 -50 -17 -3 -63 -3 -102 0 -38 3 -80 6 -92 6 -20 1 -22 6 -21 45
2 34 6 43 18 39 8 -2 21 -1 29 4 15 10 132 13 171 5z"/>
<path d="M146 990 c-8 -29 -5 -84 5 -96 6 -7 9 -32 7 -56 l-3 -43 -45 -1 c-65
-1 -65 0 -65 -44 -1 -37 1 -40 31 -46 18 -3 40 -1 50 4 18 9 19 4 22 -88 l2
-98 -52 -12 c-29 -7 -56 -14 -60 -16 -5 -4 3 -49 17 -92 3 -9 17 -6 54 12 l49
25 1 -22 c0 -12 3 -51 5 -86 3 -42 0 -75 -9 -97 -13 -31 -17 -33 -54 -30 -23
2 -41 1 -41 -1 0 -23 38 -103 50 -105 21 -5 92 20 110 38 12 12 15 45 17 157
2 199 -3 182 60 208 54 22 54 22 49 58 -3 20 -5 39 -6 44 0 4 -22 -4 -50 -18
l-49 -25 2 70 2 70 37 0 c42 0 68 21 68 55 0 30 -8 34 -70 42 l-50 6 0 43 c0
23 5 46 10 49 6 4 9 18 8 33 -1 15 2 37 6 50 8 24 10 23 -67 26 -25 1 -38 -4
-41 -14z"/>
</g>
</svg>
