<?xml version="1.0" standalone="no"?>
<!DOCTYPE svg PUBLIC "-//W3C//DTD SVG 20010904//EN"
 "http://www.w3.org/TR/2001/REC-SVG-20010904/DTD/svg10.dtd">
<svg version="1.0" xmlns="http://www.w3.org/2000/svg"
 width="101.000000pt" height="101.000000pt" viewBox="0 0 101.000000 101.000000"
 preserveAspectRatio="xMidYMid meet">
<metadata>
Created by potrace 1.16, written by Peter Selinger 2001-2019
</metadata>
<g transform="translate(0.000000,101.000000) scale(0.100000,-0.100000)"
fill="#000000" stroke="none">
<path d="M189 1003 c-11 -3 -15 -12 -11 -28 2 -14 1 -54 -3 -90 l-7 -66 -34 7
c-66 12 -105 -16 -90 -63 5 -15 17 -18 61 -17 l55 1 2 -74 c4 -142 4 -136 -17
-140 -18 -3 -62 -9 -92 -12 -12 -1 -11 -19 2 -78 9 -38 7 -37 43 -19 55 28 70
29 71 4 9 -123 5 -188 -11 -204 -14 -14 -22 -15 -42 -6 -13 6 -33 8 -44 5 -19
-5 -19 -7 -6 -39 8 -19 13 -38 10 -42 -8 -13 10 -33 30 -33 62 0 143 33 145
58 1 10 3 74 5 143 4 181 0 168 45 180 21 6 39 14 40 18 1 4 3 26 5 49 l4 42
-43 -18 -42 -18 0 92 0 92 30 -3 c17 -1 32 -3 34 -3 3 -1 -8 -14 -24 -31 -26
-27 -27 -30 -9 -36 10 -4 32 -16 47 -27 16 -10 29 -18 31 -16 1 2 12 20 24 39
l22 35 1 -50 c0 -27 1 -68 3 -90 1 -22 3 -61 4 -87 1 -35 6 -48 20 -51 9 -2
-2 -4 -25 -4 -50 1 -56 -4 -56 -43 0 -46 4 -47 110 -35 l52 6 -12 -35 c-25
-72 -83 -112 -173 -121 -26 -2 -49 -6 -51 -9 -3 -3 5 -18 18 -34 13 -16 29
-38 35 -48 11 -18 16 -17 99 26 97 49 114 66 150 155 17 42 30 60 42 60 10 0
29 4 42 9 38 13 47 -7 22 -50 -12 -20 -20 -39 -17 -41 6 -6 39 -6 94 1 48 6
55 -6 23 -45 -16 -20 -28 -24 -75 -23 -36 0 -55 -4 -52 -11 3 -5 10 -27 17
-47 13 -39 40 -54 71 -37 10 5 22 8 26 5 4 -3 26 5 47 17 36 20 43 31 72 112
17 50 32 95 32 100 1 12 -80 12 -118 0 -21 -6 -22 -5 -16 17 4 12 14 36 22 52
l15 29 -29 -8 c-49 -12 -262 -16 -283 -5 -28 15 -26 48 3 49 23 2 166 2 316 1
88 -1 103 6 93 42 -4 17 -13 19 -81 18 -116 -2 -118 -2 -118 30 0 21 5 28 21
29 55 4 93 3 117 -4 20 -5 28 -3 33 11 15 40 -1 51 -83 58 -62 6 -80 11 -83
24 -4 15 3 17 67 14 76 -4 110 11 103 47 -3 13 -14 15 -61 13 -37 -3 -57 0
-57 7 0 6 -11 11 -24 11 -14 0 -25 7 -28 18 -4 15 6 17 91 19 99 3 113 9 109
48 -3 18 -9 20 -61 17 -35 -3 -63 1 -72 8 -8 7 -24 10 -35 7 -11 -3 -17 -1
-14 4 7 12 -42 119 -54 119 -5 0 -24 -5 -41 -11 -35 -12 -35 -16 -7 -81 l16
-36 -75 1 -74 2 30 30 c16 17 29 36 29 41 0 9 -101 48 -105 41 -1 -1 -23 -43
-50 -93 -26 -50 -58 -104 -70 -120 l-23 -29 5 27 c6 31 -25 53 -60 44 -21 -5
-22 -2 -21 60 1 36 6 70 12 76 17 17 15 23 -13 36 -26 12 -46 13 -76 5z m466
-216 c0 -21 -4 -23 -70 -22 -63 0 -70 2 -71 20 -1 18 5 20 70 22 68 3 71 2 71
-20z m-3 -117 l4 -27 -70 1 c-68 1 -71 2 -72 26 -1 24 1 25 67 26 66 0 67 0
71 -26z m-24 -86 c23 -5 29 -11 28 -30 -1 -18 -8 -24 -38 -29 -20 -4 -46 -2
-57 4 -11 6 -26 9 -33 6 -8 -3 -14 4 -14 20 -2 20 2 24 15 21 9 -3 23 -1 31 4
18 11 27 12 68 4z"/>
</g>
</svg>
