<?xml version="1.0" standalone="no"?>
<!DOCTYPE svg PUBLIC "-//W3C//DTD SVG 20010904//EN"
 "http://www.w3.org/TR/2001/REC-SVG-20010904/DTD/svg10.dtd">
<svg version="1.0" xmlns="http://www.w3.org/2000/svg"
 width="101.000000pt" height="101.000000pt" viewBox="0 0 101.000000 101.000000"
 preserveAspectRatio="xMidYMid meet">
<metadata>
Created by potrace 1.16, written by Peter Selinger 2001-2019
</metadata>
<g transform="translate(0.000000,101.000000) scale(0.100000,-0.100000)"
fill="#000000" stroke="none">
<path d="M198 1003 c-10 -2 -15 -10 -11 -19 3 -8 2 -53 -2 -100 l-7 -86 -39 6
c-22 3 -50 4 -63 0 -25 -6 -40 -41 -30 -68 8 -20 70 -32 103 -19 l26 9 0 -92
0 -93 -67 -27 c-38 -15 -68 -28 -68 -29 0 -1 9 -23 20 -48 l20 -46 44 30 c53
35 54 35 55 7 0 -13 3 -58 6 -100 6 -97 -5 -130 -42 -127 -62 5 -63 4 -46 -49
17 -53 21 -54 88 -33 71 24 73 28 68 147 -2 59 0 111 6 117 5 7 8 36 8 65 l-2
52 53 22 c52 22 52 22 48 61 -3 22 -7 42 -10 44 -2 2 -22 -5 -45 -16 -22 -12
-42 -21 -44 -21 -2 0 -3 31 -3 68 1 70 9 80 44 58 20 -12 60 2 67 24 12 39 -3
57 -51 64 -25 3 -50 4 -54 1 -8 -5 -5 112 5 156 5 20 1 28 -20 37 -27 12 -29
13 -57 5z"/>
<path d="M395 933 c-17 -16 -20 -49 -5 -58 13 -8 11 -166 -2 -182 -7 -8 -8
-58 -3 -143 l7 -131 48 4 c26 2 52 7 59 11 7 5 29 5 49 1 29 -5 33 -9 20 -16
-15 -8 -14 -15 13 -65 16 -31 29 -65 29 -75 0 -22 1 -22 51 -7 22 6 39 16 39
22 0 6 -12 38 -25 71 -14 33 -25 61 -25 61 0 1 10 2 23 3 12 1 38 2 57 4 19 1
62 -2 95 -6 l60 -7 3 80 c2 50 -1 80 -8 80 -5 0 -10 11 -10 25 0 14 5 25 10
25 6 0 10 30 10 70 0 40 -4 70 -10 70 -5 0 -10 16 -10 35 0 19 5 35 10 35 6 0
10 22 10 49 l0 48 -46 7 c-68 9 -152 7 -159 -3 -7 -12 -172 -13 -180 -1 -9 14
-94 10 -110 -7z m195 -115 c0 -21 1 -41 3 -45 1 -5 -15 -9 -35 -11 -24 -2 -38
1 -38 9 0 6 -8 9 -19 6 -16 -4 -20 2 -23 37 l-3 41 57 0 58 0 0 -37z m202 1
c-4 -41 -7 -43 -72 -39 -47 3 -50 5 -38 43 9 30 12 32 62 33 l51 1 -3 -38z
m17 -154 c-1 -41 -5 -78 -11 -81 -5 -3 -7 -23 -3 -44 l6 -38 -93 -6 c-51 -3
-115 -3 -143 -1 -27 3 -60 5 -71 6 -16 1 -24 10 -28 31 -9 46 -7 96 4 103 6 3
10 25 10 48 0 23 4 37 8 30 4 -6 28 -10 55 -10 26 1 47 -1 47 -4 0 -7 -50 -82
-59 -89 -4 -3 -17 -13 -30 -22 l-23 -16 33 -30 c19 -17 37 -28 42 -25 4 3 26
27 47 54 l40 50 48 -45 49 -46 26 28 c15 16 27 31 27 34 0 3 -29 25 -65 47
-36 23 -65 46 -65 51 0 9 58 15 108 11 21 -2 27 8 23 38 -2 7 2 10 8 7 6 -4
10 -39 10 -81z"/>
<path d="M468 383 c-10 -3 -18 -11 -18 -20 0 -11 -7 -14 -22 -10 -13 3 -35 9
-49 12 -28 7 -34 -3 -46 -80 -2 -16 -15 -49 -28 -72 -25 -45 -23 -49 16 -56
13 -3 30 -7 38 -9 9 -2 22 26 42 90 40 125 63 122 55 -7 -3 -35 -1 -74 4 -86
11 -28 64 -49 90 -35 10 5 61 8 114 7 79 -3 98 -1 111 13 14 15 48 100 43 106
-2 1 -21 9 -42 18 -42 17 -56 11 -56 -26 0 -27 -56 -61 -88 -54 -15 4 -42 8
-61 11 -41 4 -53 20 -46 60 3 17 7 41 9 55 1 14 6 35 10 47 4 12 3 23 -1 26
-15 8 -58 14 -75 10z"/>
<path d="M797 364 l-37 -24 37 -48 c20 -26 47 -71 59 -100 l24 -52 40 26 c22
15 40 32 40 39 0 15 -92 156 -113 173 -10 9 -22 5 -50 -14z"/>
</g>
</svg>
