<?xml version="1.0" standalone="no"?>
<!DOCTYPE svg PUBLIC "-//W3C//DTD SVG 20010904//EN"
 "http://www.w3.org/TR/2001/REC-SVG-20010904/DTD/svg10.dtd">
<svg version="1.0" xmlns="http://www.w3.org/2000/svg"
 width="101.000000pt" height="102.000000pt" viewBox="0 0 101.000000 102.000000"
 preserveAspectRatio="xMidYMid meet">
<metadata>
Created by potrace 1.16, written by Peter Selinger 2001-2019
</metadata>
<g transform="translate(0.000000,102.000000) scale(0.100000,-0.100000)"
fill="#000000" stroke="none">
<path d="M169 1013 c-12 -3 -16 -17 -17 -61 0 -31 4 -62 10 -69 5 -6 8 -24 6
-39 -3 -24 -8 -28 -34 -28 -16 0 -38 3 -47 7 -10 3 -28 2 -42 -3 -29 -11 -34
-53 -11 -85 11 -15 21 -17 71 -11 50 6 57 4 51 -10 -3 -8 -1 -24 4 -34 6 -11
7 -43 4 -75 l-7 -55 -67 -21 c-76 -23 -84 -35 -66 -93 12 -41 16 -42 56 -21
65 34 78 36 79 12 9 -120 5 -176 -14 -197 -13 -14 -26 -19 -40 -15 -28 9 -76
13 -73 6 2 -3 12 -29 23 -58 11 -30 27 -54 37 -56 20 -6 115 26 132 43 7 7 12
66 13 148 2 196 -1 181 50 203 45 19 45 19 91 -1 l47 -21 27 33 c14 18 37 34
50 35 88 10 81 12 85 -39 l3 -47 -42 -6 c-24 -3 -77 -3 -118 0 -140 10 -133
12 -133 -35 0 -36 5 -42 35 -41 13 1 55 3 93 4 39 1 80 6 93 11 13 4 34 5 47
2 24 -6 26 -14 26 -115 -1 -62 -11 -74 -56 -66 -16 3 -41 7 -55 8 -20 2 -24 7
-22 27 10 92 8 103 -20 111 -55 15 -91 -18 -67 -62 5 -10 7 -49 5 -87 -5 -65
-3 -70 16 -75 12 -3 29 -2 37 3 9 5 59 7 111 4 52 -2 133 -4 178 -5 83 0 84 0
78 -23 -7 -28 12 -36 62 -28 33 4 43 27 21 49 -7 7 -9 22 -4 40 9 28 11 44 18
98 2 17 7 40 11 51 6 19 1 23 -34 32 -22 5 -49 8 -59 5 -20 -5 -21 -20 -5
-100 5 -28 3 -34 -21 -45 -20 -9 -34 -9 -56 -1 -17 7 -36 10 -43 7 -18 -7 -31
88 -16 115 5 11 7 27 3 37 -5 13 -3 16 10 11 8 -3 29 -1 45 5 22 9 39 8 76 -5
36 -12 53 -14 68 -6 11 6 33 9 48 5 22 -4 29 -1 33 14 13 51 4 55 -121 57
-175 2 -162 -2 -160 48 2 38 5 43 28 44 64 4 129 1 152 -8 13 -5 30 -6 37 -1
12 7 20 75 10 83 -2 2 -42 0 -89 -4 -47 -5 -119 -7 -160 -4 -41 3 -85 6 -98 6
-22 1 -22 2 -7 19 22 24 13 38 -30 46 -39 7 -42 12 -19 29 15 10 14 15 -4 51
-40 76 -44 79 -83 59 -19 -10 -35 -19 -37 -20 -4 -3 61 -108 71 -116 10 -7
-22 -71 -55 -112 l-23 -28 -1 26 c-1 15 -4 29 -7 32 -3 3 -29 -3 -57 -12 -28
-9 -54 -15 -57 -11 -5 5 -7 73 -3 123 2 18 7 21 36 16 70 -11 102 15 88 71 -6
24 -9 25 -62 23 l-57 -2 2 67 c1 37 7 77 13 88 9 17 6 21 -26 35 -20 8 -39 14
-43 14 -3 -1 -13 -3 -22 -6z"/>
<path d="M826 1013 c-4 -5 -22 -9 -39 -10 -18 0 -50 -4 -72 -7 -22 -4 -53 -6
-68 -6 -16 0 -33 -3 -39 -6 -6 -4 -27 -8 -47 -10 -20 -2 -61 -6 -91 -8 -30 -3
-70 -6 -88 -5 -19 0 -42 -3 -53 -6 -18 -6 -18 -8 6 -55 27 -54 18 -52 145 -36
19 2 53 6 75 9 22 3 60 8 85 11 25 3 86 8 135 11 145 9 148 9 152 22 4 12 -73
103 -87 103 -3 0 -10 -3 -14 -7z"/>
<path d="M772 798 c-23 -46 -48 -92 -56 -103 -15 -19 -13 -21 30 -37 l45 -16
45 69 c24 38 53 77 64 86 11 10 20 23 20 31 0 11 -78 52 -100 52 -4 0 -26 -37
-48 -82z"/>
<path d="M576 852 c-13 -3 -15 -11 -10 -40 3 -20 8 -46 12 -57 3 -11 7 -26 8
-33 4 -23 18 -27 76 -24 24 2 27 6 24 30 -3 15 -9 41 -14 57 -5 17 -7 35 -5
42 8 22 -39 35 -91 25z"/>
</g>
</svg>
