<?xml version="1.0" standalone="no"?>
<!DOCTYPE svg PUBLIC "-//W3C//DTD SVG 20010904//EN"
 "http://www.w3.org/TR/2001/REC-SVG-20010904/DTD/svg10.dtd">
<svg version="1.0" xmlns="http://www.w3.org/2000/svg"
 width="101.000000pt" height="101.000000pt" viewBox="0 0 101.000000 101.000000"
 preserveAspectRatio="xMidYMid meet">
<metadata>
Created by potrace 1.16, written by Peter Selinger 2001-2019
</metadata>
<g transform="translate(0.000000,101.000000) scale(0.100000,-0.100000)"
fill="#000000" stroke="none">
<path d="M175 980 c-4 -18 -4 -67 0 -110 7 -77 7 -77 -17 -73 -109 18 -128 13
-128 -36 0 -44 10 -49 83 -48 52 2 66 -1 62 -11 -3 -7 0 -22 5 -32 5 -10 7
-45 4 -77 l-6 -59 -75 -28 c-81 -30 -80 -29 -53 -101 l10 -25 59 29 c59 30 59
30 60 8 1 -12 3 -49 6 -82 3 -33 2 -75 -1 -93 -5 -30 -8 -33 -37 -31 -66 4
-65 5 -48 -50 19 -58 33 -65 93 -44 72 24 73 27 75 181 2 193 -3 177 59 198
33 11 54 24 55 34 1 8 2 30 4 48 2 22 -1 32 -9 29 -6 -3 -30 -13 -54 -22 -24
-10 -45 -15 -49 -12 -3 4 -5 28 -5 54 1 85 3 91 23 86 30 -8 65 5 77 29 l11
23 0 -22 c1 -24 12 -28 62 -24 22 2 27 -2 28 -21 1 -13 3 -50 6 -83 3 -33 2
-93 -1 -133 l-6 -73 -58 5 c-64 6 -73 -3 -63 -58 6 -32 18 -34 108 -20 58 9
399 4 455 -6 33 -6 48 1 53 26 11 61 -15 83 -69 58 -23 -11 -43 -14 -61 -8
-16 4 -37 8 -48 8 -16 1 -19 7 -17 31 1 17 3 40 3 52 1 20 5 21 59 17 56 -4
58 -3 63 22 9 48 -1 64 -37 56 -27 -5 -222 -7 -282 -2 -18 2 -22 8 -21 35 1
26 5 33 21 33 12 0 41 3 66 7 25 3 56 7 70 9 14 1 38 6 53 11 18 5 33 3 40 -4
30 -30 36 0 10 54 -17 36 -18 36 -63 30 -25 -4 -55 -6 -67 -6 -12 0 -25 -4
-28 -9 -3 -5 -12 -7 -20 -4 -8 3 -28 -2 -45 -12 -25 -15 -35 -16 -61 -7 -17 7
-37 9 -45 6 -14 -5 -19 11 -14 52 3 28 3 28 59 27 28 -1 53 3 56 8 7 12 65 13
183 3 75 -5 82 -8 82 -27 0 -12 -5 -27 -11 -33 -20 -20 -2 -43 33 -43 18 0 39
4 45 8 13 8 23 155 12 166 -10 11 -107 19 -126 11 -21 -8 -93 -12 -94 -5 0 3
-3 19 -5 35 -3 17 -6 39 -7 50 -2 16 -10 19 -50 20 -60 0 -72 -6 -59 -31 5
-11 12 -32 15 -49 l4 -30 -93 1 c-51 1 -97 4 -101 7 -21 13 -37 -14 -39 -68
-1 -31 -5 -59 -8 -62 -3 -4 -6 1 -6 10 0 19 -33 31 -66 23 l-25 -7 5 84 c3 46
8 90 11 99 7 18 -6 24 -62 27 -39 2 -42 0 -48 -29z m491 -456 c14 -4 22 -14
22 -27 0 -12 4 -34 7 -49 6 -24 3 -29 -21 -39 -16 -5 -40 -8 -54 -4 -14 3 -36
7 -50 8 -21 2 -25 6 -22 32 1 17 3 40 3 53 1 16 6 21 18 18 9 -3 23 -1 31 4
17 11 36 12 66 4z"/>
<path d="M499 274 c-24 -24 -73 -63 -107 -86 l-64 -42 29 -14 c15 -8 35 -21
44 -29 15 -13 25 -8 89 49 39 35 83 72 98 83 38 28 37 37 -6 62 l-38 23 -45
-46z"/>
<path d="M717 292 l-28 -29 43 -28 c24 -16 66 -52 94 -81 l52 -53 41 31 c23
16 39 33 36 38 -9 14 -191 150 -201 150 -6 0 -23 -13 -37 -28z"/>
</g>
</svg>
