<?xml version="1.0" standalone="no"?>
<!DOCTYPE svg PUBLIC "-//W3C//DTD SVG 20010904//EN"
 "http://www.w3.org/TR/2001/REC-SVG-20010904/DTD/svg10.dtd">
<svg version="1.0" xmlns="http://www.w3.org/2000/svg"
 width="101.000000pt" height="101.000000pt" viewBox="0 0 101.000000 101.000000"
 preserveAspectRatio="xMidYMid meet">
<metadata>
Created by potrace 1.16, written by Peter Selinger 2001-2019
</metadata>
<g transform="translate(0.000000,101.000000) scale(0.100000,-0.100000)"
fill="#000000" stroke="none">
<path d="M168 1002 c-15 -6 -16 -20 -13 -108 l3 -101 -54 2 c-45 2 -54 0 -60
-17 -7 -24 3 -68 16 -68 6 0 10 5 10 11 0 6 17 9 41 7 l41 -3 2 -97 1 -97 -60
-22 c-33 -12 -61 -23 -63 -25 -5 -3 20 -87 29 -98 4 -4 24 4 45 18 47 32 52
32 53 4 1 -13 3 -48 5 -78 5 -59 -8 -115 -27 -123 -7 -2 -29 -3 -50 -2 -20 2
-37 2 -37 1 0 -1 9 -19 20 -41 11 -22 20 -45 20 -51 0 -42 118 -5 149 47 18
29 18 35 5 72 -10 28 -13 65 -9 121 3 45 6 91 6 104 1 17 14 29 51 48 50 25
50 25 44 67 -3 23 -5 46 -5 50 -1 4 -18 -4 -38 -18 -21 -14 -40 -25 -43 -25
-3 0 -3 29 -2 65 l4 65 33 0 c39 0 65 22 65 55 0 23 -31 51 -43 39 -3 -3 -19
-7 -35 -8 l-30 -2 4 78 c2 43 8 86 13 96 7 13 3 19 -21 29 -33 14 -45 15 -70
5z"/>
<path d="M625 999 c-4 -5 -17 -9 -28 -8 -38 2 -38 0 -13 -43 l25 -43 -97 2
c-53 1 -106 5 -118 8 -26 8 -54 -18 -54 -48 0 -43 11 -47 105 -44 61 3 82 1
65 -5 -33 -12 -33 -11 -16 -53 9 -21 16 -38 16 -39 0 0 -35 -1 -77 -1 l-78 0
2 -30 c2 -16 3 -69 3 -117 0 -48 5 -90 10 -93 14 -9 13 -68 -2 -83 -8 -8 -8
-15 1 -25 12 -15 10 -176 -4 -248 -8 -41 5 -50 63 -41 32 4 32 5 25 41 -5 20
-7 60 -6 89 1 28 2 80 2 115 -1 317 -2 307 25 307 11 0 44 3 71 6 l50 6 -1
-38 c-1 -37 -3 -39 -30 -36 -83 8 -87 6 -87 -38 0 -44 4 -46 88 -38 27 3 29 0
31 -30 2 -31 0 -33 -30 -31 -62 4 -65 2 -59 -38 7 -47 6 -130 -1 -159 -4 -16
-1 -23 16 -27 12 -3 29 -2 39 3 9 6 60 8 113 7 93 -4 95 -3 91 17 -8 29 -9
124 -2 168 l5 37 -48 -4 -48 -3 1 33 1 33 57 -3 c49 -2 58 0 62 16 10 38 -3
55 -41 57 -82 3 -80 2 -79 36 l1 31 72 1 c66 1 72 0 73 -20 2 -20 2 -119 1
-320 0 -50 -5 -96 -12 -103 -7 -8 -26 -12 -55 -9 -24 2 -42 1 -41 -3 2 -3 11
-27 22 -53 10 -26 26 -48 35 -50 29 -6 115 28 133 53 17 23 20 68 19 279 -1
25 1 90 4 145 3 55 2 114 0 132 l-6 32 -79 -2 c-44 -1 -80 1 -80 5 0 4 14 17
30 30 36 26 37 34 8 44 l-23 7 25 7 c14 3 51 5 82 4 63 -2 76 11 64 62 -7 25
-45 42 -66 29 -6 -4 -50 -8 -96 -9 l-85 -1 -16 53 c-12 37 -22 52 -34 52 -10
0 -21 -5 -24 -11z m90 -191 c-10 -33 -40 -83 -48 -80 -4 1 -22 2 -41 2 -29 0
-34 4 -39 28 -3 15 -9 35 -12 44 -6 14 1 17 37 21 108 9 110 9 103 -15z m-40
-478 c0 -42 -2 -45 -25 -42 -14 2 -35 3 -47 4 -19 0 -22 5 -20 39 1 30 5 38
17 34 8 -2 22 0 30 5 30 20 45 7 45 -40z"/>
</g>
</svg>
