<?xml version="1.0" standalone="no"?>
<!DOCTYPE svg PUBLIC "-//W3C//DTD SVG 20010904//EN"
 "http://www.w3.org/TR/2001/REC-SVG-20010904/DTD/svg10.dtd">
<svg version="1.0" xmlns="http://www.w3.org/2000/svg"
 width="101.000000pt" height="101.000000pt" viewBox="0 0 101.000000 101.000000"
 preserveAspectRatio="xMidYMid meet">
<metadata>
Created by potrace 1.16, written by Peter Selinger 2001-2019
</metadata>
<g transform="translate(0.000000,101.000000) scale(0.100000,-0.100000)"
fill="#000000" stroke="none">
<path d="M607 985 c3 -14 2 -54 -2 -90 l-6 -64 -62 2 -62 2 2 58 c2 64 -13 81
-65 75 l-27 -3 1 -110 c0 -118 -1 -115 53 -99 17 5 22 4 17 -4 -4 -7 -9 -22
-11 -34 -9 -45 -75 -164 -119 -215 l-46 -51 37 -22 c41 -24 41 -25 84 41 l17
24 1 -25 c0 -14 3 -56 6 -95 2 -38 1 -117 -4 -175 -4 -58 -6 -107 -4 -109 5
-7 73 -4 80 3 4 3 6 19 6 35 0 22 5 29 21 30 46 4 224 2 266 -2 79 -8 148 3
153 24 11 40 -2 56 -46 57 -23 0 -51 1 -62 2 -11 0 -43 -1 -72 -4 l-52 -4 2
38 c1 30 5 38 22 39 65 5 94 4 126 -3 32 -7 37 -5 42 13 3 12 3 30 0 41 -4 16
-11 18 -37 13 -28 -6 -73 -7 -132 -2 -18 1 -22 7 -21 34 1 37 1 37 113 35 76
-1 88 7 78 48 -4 12 -15 19 -32 20 -15 1 -36 2 -47 2 -11 1 -41 -1 -66 -4
l-47 -4 1 33 c1 36 -4 34 107 38 36 1 75 -2 87 -6 17 -6 23 -3 28 13 4 12 4
33 1 47 -6 23 -10 24 -47 18 -40 -7 -195 4 -171 12 17 6 15 33 -6 68 l-19 30
108 -2 107 -2 7 96 c7 87 6 98 -11 110 -21 15 -53 17 -74 3 -11 -6 -15 -27
-15 -67 l0 -58 -65 1 c-64 1 -65 1 -68 29 -2 16 1 38 7 49 6 12 9 37 8 56 -2
34 -3 35 -48 38 -45 3 -46 2 -42 -23z m40 -237 c-16 -5 -26 -15 -24 -22 3 -6
13 -28 22 -50 l16 -39 -73 7 c-40 4 -75 10 -77 12 -3 2 9 18 25 35 24 25 26
31 14 39 -8 5 -19 11 -25 12 -5 1 19 4 55 8 95 10 98 9 67 -2z m-40 -174 c25
-5 29 -10 30 -39 1 -31 -2 -34 -37 -40 -22 -4 -47 -2 -59 4 -11 6 -26 8 -34 5
-12 -4 -15 3 -14 30 1 28 5 35 16 31 9 -2 23 0 31 5 18 11 28 12 67 4z m0
-130 c25 -5 29 -10 30 -39 1 -31 -2 -34 -37 -40 -22 -4 -47 -2 -59 4 -11 6
-26 8 -34 5 -12 -4 -15 3 -14 30 1 28 5 35 16 31 9 -2 23 0 31 5 18 11 28 12
67 4z m0 -130 c25 -5 29 -10 30 -44 2 -37 1 -39 -37 -45 -22 -4 -47 -2 -59 4
-11 6 -26 8 -35 5 -12 -5 -15 2 -13 35 1 32 5 40 17 36 8 -2 22 0 30 5 18 11
28 12 67 4z"/>
<path d="M188 993 c-9 -2 -19 -12 -22 -21 -8 -30 -5 -86 5 -99 6 -6 9 -27 7
-45 l-3 -33 -67 1 c-59 2 -68 0 -74 -18 -12 -39 4 -67 41 -74 20 -3 48 -4 63
-1 l27 5 2 -78 1 -78 -53 -26 c-30 -14 -61 -26 -69 -26 -9 0 -16 -1 -16 -3 0
-11 33 -97 37 -97 3 0 27 16 53 35 46 34 48 34 49 13 0 -13 3 -62 6 -109 3
-49 1 -98 -5 -113 -9 -25 -13 -26 -61 -23 -43 4 -50 2 -45 -12 25 -75 33 -90
50 -95 11 -3 28 0 38 5 10 5 22 8 26 5 12 -7 72 31 74 46 1 7 3 83 4 168 3
215 -1 198 55 232 50 32 50 32 40 101 -2 15 -28 6 -51 -18 -13 -14 -26 -25
-29 -25 -3 0 -5 22 -3 48 4 48 4 48 36 44 43 -5 68 20 64 62 -3 30 -4 31 -56
31 l-52 0 4 75 c2 41 7 83 11 92 11 28 -36 45 -87 31z"/>
</g>
</svg>
