<?xml version="1.0" standalone="no"?>
<!DOCTYPE svg PUBLIC "-//W3C//DTD SVG 20010904//EN"
 "http://www.w3.org/TR/2001/REC-SVG-20010904/DTD/svg10.dtd">
<svg version="1.0" xmlns="http://www.w3.org/2000/svg"
 width="101.000000pt" height="101.000000pt" viewBox="0 0 101.000000 101.000000"
 preserveAspectRatio="xMidYMid meet">
<metadata>
Created by potrace 1.16, written by Peter Selinger 2001-2019
</metadata>
<g transform="translate(0.000000,101.000000) scale(0.100000,-0.100000)"
fill="#000000" stroke="none">
<path d="M174 918 l1 -93 -60 3 -60 3 0 -45 c-1 -50 8 -56 78 -56 36 0 37 -1
37 -37 0 -21 3 -61 6 -90 l7 -51 -72 -23 c-39 -13 -71 -28 -71 -34 0 -11 20
-76 25 -83 2 -2 28 11 58 28 l55 31 1 -23 c1 -13 3 -69 4 -126 2 -121 -4 -132
-78 -126 l-45 4 20 -37 c11 -21 20 -46 20 -55 0 -22 12 -22 76 -3 83 25 79 16
81 192 2 221 -3 202 54 225 47 20 48 22 44 56 -6 46 -9 48 -50 29 -20 -9 -38
-17 -40 -17 -3 0 -4 33 -2 74 l2 73 36 -4 c41 -6 69 15 69 52 0 31 -33 49 -74
42 l-32 -5 3 71 c2 40 6 82 9 95 6 21 4 22 -48 22 l-54 0 0 -92z"/>
<path d="M343 983 c-21 -15 -26 -59 -8 -77 13 -13 33 -16 103 -13 l87 3 0 -74
0 -73 -50 -29 c-28 -16 -71 -37 -97 -46 l-46 -17 25 -39 c29 -44 32 -44 64
-19 13 10 43 30 66 44 l42 26 -5 -32 c-6 -40 6 -59 40 -60 27 -2 32 -12 17
-35 -8 -13 -77 -18 -138 -10 -25 4 -33 1 -37 -15 -3 -11 -1 -28 4 -36 5 -9 7
-59 5 -111 -13 -302 -17 -281 57 -272 36 4 37 6 33 37 -3 28 -1 33 18 34 12 0
56 3 97 6 103 8 163 -1 156 -23 -10 -30 10 -46 55 -45 23 1 43 4 46 6 2 3 -1
44 -7 93 -10 85 -9 165 5 281 l6 53 -48 -8 c-26 -3 -64 -6 -83 -5 -19 2 -45 3
-57 4 -27 1 -28 3 -7 33 17 27 14 30 -34 41 -22 5 -36 15 -43 32 -12 33 -12
100 2 108 6 4 10 30 9 59 -3 87 -2 91 23 93 12 1 56 4 97 7 l75 6 2 -64 2 -63
-94 -44 c-52 -24 -94 -47 -95 -51 0 -4 9 -23 21 -42 l21 -35 66 44 67 45 7
-42 c3 -24 4 -53 1 -64 -5 -25 16 -34 65 -26 41 6 50 37 28 92 -17 43 -22 176
-7 182 11 4 23 120 13 134 -5 8 -26 8 -75 1 -53 -8 -70 -8 -76 2 -7 11 -54 11
-291 -1 -19 -1 -53 2 -75 5 -22 4 -45 4 -52 0z m398 -519 c32 -5 35 -8 36 -39
1 -33 -1 -34 -41 -40 -22 -3 -75 -3 -116 0 -41 3 -85 6 -96 6 -18 1 -22 7 -21
35 1 26 5 33 16 29 9 -2 22 -1 30 4 16 10 140 13 192 5z m-1 -140 c34 -5 36
-7 37 -44 2 -38 1 -39 -40 -45 -23 -3 -76 -3 -117 0 -41 3 -85 6 -97 6 -19 1
-22 7 -20 40 1 30 5 38 17 34 8 -2 21 -1 29 4 15 10 140 13 191 5z"/>
<path d="M672 879 c-13 -5 -22 -12 -20 -17 1 -4 12 -29 22 -55 18 -46 21 -49
50 -43 47 10 50 19 22 75 -27 52 -34 56 -74 40z"/>
<path d="M398 868 c-27 -9 -27 -11 -13 -37 8 -16 16 -41 19 -56 7 -37 9 -39
53 -28 43 10 44 19 13 91 -20 44 -27 47 -72 30z"/>
</g>
</svg>
