<?xml version="1.0" standalone="no"?>
<!DOCTYPE svg PUBLIC "-//W3C//DTD SVG 20010904//EN"
 "http://www.w3.org/TR/2001/REC-SVG-20010904/DTD/svg10.dtd">
<svg version="1.0" xmlns="http://www.w3.org/2000/svg"
 width="101.000000pt" height="102.000000pt" viewBox="0 0 101.000000 102.000000"
 preserveAspectRatio="xMidYMid meet">
<metadata>
Created by potrace 1.16, written by Peter Selinger 2001-2019
</metadata>
<g transform="translate(0.000000,102.000000) scale(0.100000,-0.100000)"
fill="#000000" stroke="none">
<path d="M128 994 c-9 -19 -9 -30 0 -45 13 -21 15 -55 6 -109 -6 -34 -7 -35
-45 -32 -34 4 -40 1 -48 -21 -20 -53 -2 -73 63 -68 23 2 28 -1 22 -14 -3 -9
-1 -25 4 -36 6 -11 8 -40 4 -69 -7 -51 -11 -55 -71 -66 -40 -7 -44 -15 -30
-61 16 -55 20 -57 56 -39 38 20 39 20 40 -6 0 -13 3 -58 6 -100 3 -42 1 -88
-5 -102 -9 -23 -13 -25 -55 -22 l-45 5 20 -39 c11 -22 20 -46 20 -53 0 -24 40
-27 80 -7 63 32 65 38 67 199 2 199 -1 185 47 203 l41 15 -2 51 c-2 59 -22 53
179 55 70 0 130 -2 133 -5 9 -8 -5 -35 -18 -36 -7 0 -41 -5 -75 -12 -35 -6
-74 -7 -85 -3 -12 4 -31 8 -42 9 -11 0 -24 2 -30 4 -37 10 -45 0 -39 -47 12
-106 14 -192 3 -278 -11 -98 -13 -145 -4 -153 7 -7 74 -6 81 1 6 6 7 53 1 110
-5 40 -3 48 9 43 9 -3 24 -1 35 5 12 6 37 8 59 4 35 -6 38 -9 35 -33 -2 -15
-4 -30 -4 -33 -1 -3 -14 -6 -31 -6 -17 0 -32 -2 -35 -5 -3 -2 2 -23 11 -45 17
-44 41 -57 78 -44 31 12 63 7 84 -12 18 -17 21 -15 63 30 25 27 52 59 62 72
l16 24 59 -63 58 -63 36 51 37 51 -48 30 c-26 17 -57 41 -68 53 l-22 23 21 60
c27 80 30 101 34 230 5 169 1 155 39 149 37 -5 49 11 39 51 -7 27 -37 35 -126
35 l-60 0 7 28 c3 15 16 47 28 72 11 25 21 49 21 54 1 10 -41 25 -91 32 -30 4
-32 2 -37 -28 -3 -18 -5 -40 -5 -48 0 -34 -12 -105 -27 -163 -16 -64 -33 -103
-34 -79 0 9 -12 12 -37 10 -35 -3 -38 -1 -35 22 2 14 3 35 4 47 0 19 4 22 23
17 30 -7 57 21 53 55 -3 23 -8 26 -38 26 l-35 0 4 50 c1 28 8 56 13 63 11 13
10 13 -60 16 -39 1 -46 -15 -37 -82 l6 -47 -33 -1 -33 0 2 63 c2 59 0 63 -22
69 -52 13 -60 4 -59 -66 l1 -65 -39 2 c-32 2 -39 -1 -44 -22 -3 -13 -3 -29 1
-34 3 -6 -2 -11 -12 -12 -10 0 -25 -2 -34 -4 -15 -3 -16 8 -13 83 2 47 6 94
10 104 3 10 2 18 -3 19 -84 10 -94 9 -105 -17z m377 -245 c0 -46 -1 -47 -30
-46 -29 1 -30 3 -30 46 0 44 1 46 30 46 29 0 30 -2 30 -46z m-145 12 c0 -16 2
-36 6 -44 4 -11 -3 -14 -30 -11 -38 2 -41 -3 -37 -53 1 -17 -8 -27 -38 -43
l-41 -20 -6 26 c-4 14 -2 36 4 50 7 13 9 30 7 37 -4 9 8 13 41 15 56 2 57 3
57 42 0 22 5 30 19 30 13 0 18 -8 18 -29z m449 -36 c0 -11 3 -58 6 -104 4 -53
1 -97 -6 -120 -7 -20 -14 -45 -15 -56 -1 -11 -3 -27 -4 -35 -1 -8 -10 8 -19
35 -10 28 -21 58 -26 68 -4 10 -3 28 3 42 13 28 5 65 -14 65 -18 0 -18 2 7 70
17 48 25 58 44 56 15 -1 23 -8 24 -21z m-138 -178 c1 -7 2 -25 4 -42 2 -16 16
-72 33 -123 l30 -93 -52 -56 -53 -57 -6 130 c-3 71 -4 152 -1 179 2 28 4 60 5
72 1 19 4 21 20 12 10 -5 19 -15 20 -22z m-153 -33 c23 -5 29 -11 28 -30 -1
-18 -8 -24 -38 -29 -20 -4 -46 -2 -57 4 -11 6 -26 9 -33 6 -8 -3 -14 4 -14 20
-2 20 2 24 15 21 9 -3 23 -1 31 4 18 11 27 12 68 4z m0 -120 c23 -5 29 -11 28
-30 -1 -18 -8 -24 -38 -29 -20 -4 -46 -2 -57 4 -11 6 -26 9 -33 6 -8 -3 -14 4
-14 20 -2 20 2 24 15 21 9 -3 23 -1 31 4 18 11 27 12 68 4z"/>
</g>
</svg>
