<?xml version="1.0" standalone="no"?>
<!DOCTYPE svg PUBLIC "-//W3C//DTD SVG 20010904//EN"
 "http://www.w3.org/TR/2001/REC-SVG-20010904/DTD/svg10.dtd">
<svg version="1.0" xmlns="http://www.w3.org/2000/svg"
 width="101.000000pt" height="102.000000pt" viewBox="0 0 101.000000 102.000000"
 preserveAspectRatio="xMidYMid meet">
<metadata>
Created by potrace 1.16, written by Peter Selinger 2001-2019
</metadata>
<g transform="translate(0.000000,102.000000) scale(0.100000,-0.100000)"
fill="#000000" stroke="none">
<path d="M685 973 c-22 -66 -34 -78 -79 -79 -21 -1 -33 2 -26 6 8 5 5 21 -14
59 -15 28 -30 51 -35 51 -8 0 -73 -21 -79 -25 -2 -2 8 -20 23 -40 14 -21 25
-42 25 -46 0 -5 -42 -7 -92 -6 -101 2 -108 -2 -94 -59 6 -24 7 -24 104 -20
l97 5 0 -28 0 -28 -72 5 -72 5 2 -196 2 -196 40 5 c85 11 163 14 222 9 53 -6
61 -9 60 -26 -1 -16 -10 -19 -57 -20 -30 -1 -102 -3 -159 -5 -57 -2 -111 1
-121 6 -39 21 -75 -13 -63 -60 5 -17 12 -19 47 -16 22 3 50 8 62 11 11 4 36 2
55 -3 24 -7 28 -10 12 -11 -12 -1 -24 -5 -27 -10 -4 -7 15 -55 41 -100 1 -2
23 2 48 9 l45 13 -25 45 c-29 52 -30 56 -9 48 8 -3 24 -1 35 4 28 15 122 2
115 -16 -3 -8 0 -25 6 -39 16 -36 -3 -54 -52 -49 -45 5 -46 3 -25 -30 9 -13
15 -28 14 -32 -5 -27 3 -32 40 -29 21 2 53 11 70 19 28 15 30 20 30 69 0 97 2
105 25 106 73 5 94 5 122 -2 27 -7 32 -5 37 12 3 12 3 30 0 41 -5 18 -13 20
-67 20 -101 -1 -112 1 -113 20 -1 16 5 18 43 15 43 -3 44 -2 45 29 0 17 2 89
5 160 3 71 3 144 0 161 l-6 32 -73 -1 c-70 -1 -72 0 -73 24 l-1 25 109 0 c118
0 128 5 114 60 -6 24 -8 24 -110 22 -114 -2 -117 1 -62 52 14 14 26 30 26 37
0 9 -68 34 -94 34 -2 0 -12 -21 -21 -47z m-40 -180 c0 -23 -4 -28 -26 -28 -35
0 -34 37 1 46 14 4 25 7 25 8 0 0 0 -11 0 -26z m-140 -123 c-22 -43 -43 -45
-42 -6 1 29 4 33 28 33 27 0 27 -1 14 -27z m141 14 c-3 -7 0 -28 5 -47 11 -41
57 -64 91 -46 26 14 47 5 45 -20 -1 -17 -11 -20 -92 -25 -49 -3 -112 -3 -140
-1 -27 3 -59 5 -70 6 -14 1 -20 9 -21 26 -2 23 -1 23 22 8 13 -8 28 -15 34
-15 14 0 70 89 70 110 0 12 9 17 30 17 21 0 29 -5 26 -13z m140 -9 c-1 -18 -6
-22 -30 -21 -21 1 -30 7 -32 22 -3 17 2 20 30 21 29 1 34 -2 32 -22z m-89
-182 c81 -4 91 -7 90 -23 -1 -16 -13 -19 -92 -24 -49 -3 -112 -3 -140 -1 -27
3 -59 5 -70 6 -13 1 -21 9 -22 21 -1 14 3 17 15 14 9 -3 24 -1 32 4 16 10 43
11 187 3z"/>
<path d="M164 882 l3 -94 -54 7 c-61 7 -83 -3 -83 -42 0 -58 45 -79 112 -54
23 8 23 8 25 -76 l2 -84 -62 -30 c-34 -16 -68 -29 -74 -29 -18 0 -16 -10 8
-64 l20 -46 42 28 c64 44 65 44 66 19 0 -12 3 -57 6 -99 3 -42 1 -87 -4 -101
-8 -21 -15 -24 -51 -21 -37 3 -41 1 -35 -14 4 -9 13 -32 20 -51 15 -42 37 -46
97 -17 l43 21 2 155 c2 209 -3 192 59 230 30 18 52 36 49 39 -2 4 -7 23 -10
42 -3 18 -8 35 -10 37 -2 2 -19 -8 -38 -22 -19 -14 -36 -26 -39 -26 -3 0 -5
26 -4 58 l1 57 47 -2 c52 -2 65 13 53 60 -6 22 -10 24 -55 19 -46 -4 -49 -3
-56 23 -4 14 -2 36 5 48 6 12 11 31 11 42 -1 11 1 33 2 49 3 30 2 30 -49 30
l-52 1 3 -93z"/>
</g>
</svg>
