<?xml version="1.0" standalone="no"?>
<!DOCTYPE svg PUBLIC "-//W3C//DTD SVG 20010904//EN"
 "http://www.w3.org/TR/2001/REC-SVG-20010904/DTD/svg10.dtd">
<svg version="1.0" xmlns="http://www.w3.org/2000/svg"
 width="101.000000pt" height="102.000000pt" viewBox="0 0 101.000000 102.000000"
 preserveAspectRatio="xMidYMid meet">
<metadata>
Created by potrace 1.16, written by Peter Selinger 2001-2019
</metadata>
<g transform="translate(0.000000,102.000000) scale(0.100000,-0.100000)"
fill="#000000" stroke="none">
<path d="M143 911 l2 -107 -27 2 c-14 1 -31 5 -37 8 -20 13 -51 -13 -51 -42 0
-45 12 -53 68 -49 40 2 51 -1 48 -10 -3 -7 -1 -24 5 -37 8 -16 8 -37 3 -62 -9
-35 -14 -39 -67 -57 -39 -13 -57 -23 -53 -32 3 -8 8 -30 12 -49 3 -20 7 -36 9
-36 1 0 23 11 48 25 l45 26 1 -23 c1 -13 3 -72 4 -131 2 -123 0 -127 -69 -120
-24 2 -44 2 -44 0 0 -3 7 -18 15 -33 8 -16 15 -36 15 -45 0 -9 9 -19 20 -22
22 -6 109 18 125 34 6 6 11 76 12 172 2 213 0 203 34 217 19 8 29 20 29 33 0
20 1 20 24 -3 14 -12 31 -20 39 -17 8 3 34 32 59 65 l45 60 -2 -42 c-3 -61 -4
-68 -14 -62 -4 3 -13 -12 -20 -33 -14 -50 -33 -65 -68 -56 -30 7 -72 9 -77 4
-2 -2 -6 -13 -10 -24 -10 -33 9 -49 54 -48 l41 2 -21 -29 c-12 -16 -25 -32
-30 -35 -20 -13 -8 -23 50 -45 33 -12 60 -26 60 -30 0 -11 -74 -39 -116 -45
-64 -8 -68 -17 -24 -59 l40 -38 42 17 c24 9 69 33 101 52 l58 35 34 -24 c33
-22 44 -38 28 -38 -5 0 -19 -9 -32 -19 l-24 -18 29 -15 c16 -8 39 -21 51 -28
22 -14 27 -11 93 55 l71 70 58 -64 58 -65 47 40 c41 34 45 40 30 49 -40 24
-119 86 -127 100 -5 10 1 43 19 93 30 88 33 102 49 242 5 36 8 74 8 86 -1 16
4 20 22 17 32 -7 58 23 50 56 -4 14 -9 28 -12 31 -2 3 -44 5 -93 5 -81 0 -88
1 -84 19 7 39 36 116 45 121 17 11 9 32 -16 43 -29 13 -85 16 -86 5 0 -5 -3
-17 -5 -28 -3 -11 -6 -32 -8 -46 -1 -14 -5 -30 -8 -35 -2 -5 -5 -20 -6 -34 -1
-14 -8 -43 -16 -65 -13 -37 -15 -38 -15 -12 -1 30 -26 46 -44 28 -12 -12 -107
-16 -107 -3 1 23 18 33 41 22 22 -10 29 -6 72 34 26 25 47 48 47 50 0 2 -17
15 -37 27 -35 22 -37 22 -47 4 -6 -10 -23 -32 -38 -49 l-27 -31 -2 25 c-1 14
0 30 1 35 16 74 11 81 -57 84 -29 1 -33 -2 -39 -34 -3 -19 -3 -65 1 -100 6
-63 6 -65 -17 -65 -42 0 -52 16 -19 30 17 7 31 15 31 19 0 3 -16 27 -35 54
l-35 47 -33 -16 c-17 -9 -34 -18 -35 -20 -2 -1 10 -23 27 -48 37 -53 37 -56
11 -56 -11 0 -20 -5 -20 -10 0 -7 -7 -7 -21 0 -11 7 -31 9 -42 6 -21 -5 -22
-2 -20 70 1 43 8 83 15 91 18 22 -13 41 -67 41 l-44 -1 2 -106z m227 -177 c55
1 56 2 -19 -76 -48 -51 -66 -60 -56 -28 8 25 0 25 -36 -1 -26 -18 -30 -19 -35
-4 -4 9 -2 27 4 41 6 13 9 31 6 39 -6 15 7 19 54 15 17 -1 22 4 23 22 1 15 3
17 6 7 3 -13 15 -16 53 -15z m291 -27 l-21 -35 37 -31 c23 -18 32 -30 23 -31
-9 0 -38 23 -65 50 -53 54 -60 57 -84 36 -14 -13 -16 -12 -17 10 -2 22 2 24
45 25 25 1 56 0 69 -1 12 -1 22 4 22 11 0 7 3 10 6 6 4 -3 -3 -21 -15 -40z
m154 5 c-2 -7 1 -23 7 -37 8 -18 7 -36 -2 -72 -7 -26 -14 -59 -15 -73 -4 -40
-14 -86 -24 -112 -9 -21 -10 -21 -12 -3 -1 11 -1 24 0 28 1 5 -6 24 -16 44
-13 28 -14 41 -6 64 13 34 6 69 -13 69 -19 0 -18 9 6 62 17 40 23 45 50 44 20
-1 29 -5 25 -14z m-229 -105 c16 -23 30 -44 31 -46 2 -3 14 6 27 18 l24 23 0
-24 c1 -13 3 -37 5 -54 l4 -32 -59 -6 c-33 -3 -68 -1 -78 4 -10 5 -27 7 -37 3
-15 -5 -14 -2 5 19 27 29 28 38 5 38 -17 1 -17 1 0 14 11 9 18 29 19 59 3 53
10 50 54 -16z m99 -160 c0 -12 9 -49 19 -81 l17 -59 -47 -48 c-26 -27 -50 -46
-53 -44 -2 3 3 13 12 23 23 25 22 29 -15 48 -18 9 -34 18 -36 19 -1 1 13 27
31 58 19 31 40 70 47 87 14 33 24 32 25 -3z m-132 -23 c3 -3 -6 -24 -20 -45
-27 -41 -28 -41 -92 -17 -22 8 -22 10 -8 31 8 13 25 22 40 22 15 1 29 4 33 8
9 9 38 9 47 1z"/>
</g>
</svg>
