<?xml version="1.0" standalone="no"?>
<!DOCTYPE svg PUBLIC "-//W3C//DTD SVG 20010904//EN"
 "http://www.w3.org/TR/2001/REC-SVG-20010904/DTD/svg10.dtd">
<svg version="1.0" xmlns="http://www.w3.org/2000/svg"
 width="101.000000pt" height="101.000000pt" viewBox="0 0 101.000000 101.000000"
 preserveAspectRatio="xMidYMid meet">
<metadata>
Created by potrace 1.16, written by Peter Selinger 2001-2019
</metadata>
<g transform="translate(0.000000,101.000000) scale(0.100000,-0.100000)"
fill="#000000" stroke="none">
<path d="M564 988 c16 -56 23 -53 -112 -53 -138 0 -142 -2 -128 -59 6 -23 10
-23 120 -25 66 0 117 3 121 9 7 12 153 12 160 -1 3 -4 53 -7 110 -6 114 2 123
7 110 59 -6 23 -8 23 -136 23 l-130 0 -11 38 c-11 36 -12 37 -61 37 -46 0 -49
-1 -43 -22z"/>
<path d="M144 899 l3 -95 -44 6 c-62 10 -82 -11 -67 -67 7 -26 32 -34 78 -23
30 7 34 5 35 -14 1 -11 3 -43 5 -71 8 -87 2 -99 -65 -131 -33 -15 -63 -32 -65
-36 -6 -9 28 -78 39 -78 4 0 23 11 41 25 40 31 44 31 45 3 1 -13 3 -48 6 -78
2 -30 2 -70 -1 -87 -5 -31 -6 -32 -49 -31 -24 1 -46 0 -49 -3 -3 -2 3 -26 12
-52 19 -54 28 -56 107 -29 l50 17 2 145 c2 197 -1 184 49 208 30 15 44 28 44
41 0 11 5 23 10 26 6 3 10 1 10 -5 0 -6 16 -8 43 -5 96 11 92 12 92 -17 1 -23
-2 -26 -25 -22 -62 13 -87 8 -93 -17 -11 -41 1 -50 63 -44 56 5 58 4 56 -18
-1 -22 -5 -24 -56 -21 -30 1 -62 3 -70 5 -43 7 -68 -19 -54 -56 7 -18 43 -26
65 -14 10 5 43 6 74 3 54 -7 55 -7 39 -26 -23 -24 -146 -86 -190 -94 -30 -5
-49 -24 -25 -24 5 0 19 -11 32 -25 25 -25 48 -31 65 -17 5 5 30 20 55 35 l46
26 0 -32 c0 -18 -6 -39 -13 -47 -11 -13 -10 -20 9 -44 l23 -28 82 53 c81 53
82 54 77 88 -7 46 -11 48 -43 25 -52 -38 -52 -38 -50 11 2 33 9 52 25 67 13
12 24 20 26 17 2 -2 18 -24 34 -49 43 -62 97 -112 167 -154 l58 -35 44 36 c24
20 41 40 39 43 -3 4 -19 10 -36 14 -17 3 -52 15 -77 26 l-46 21 40 26 c59 39
59 40 24 61 -36 22 -38 21 57 25 44 1 55 12 47 45 -4 12 -15 19 -32 20 -15 1
-36 2 -47 2 -11 0 -42 -1 -70 -4 -47 -4 -50 -3 -51 21 -1 16 2 23 11 19 8 -3
27 0 44 7 25 9 36 9 53 -2 17 -11 22 -11 29 1 5 7 7 19 4 26 -3 8 -5 17 -5 22
0 4 -21 8 -47 8 -79 1 -89 3 -90 22 -1 12 6 18 20 19 76 5 95 5 123 -2 27 -7
32 -5 37 12 3 12 3 29 0 39 -4 17 -10 18 -56 10 -33 -6 -58 -6 -74 1 -12 6
-30 8 -40 4 -13 -5 -15 -3 -9 12 4 11 2 21 -5 26 -7 4 -3 8 12 8 13 1 40 2 59
4 19 1 45 -2 57 -6 21 -8 21 -6 20 71 l0 80 -46 6 c-28 4 -47 2 -49 -4 -5 -13
-52 -13 -52 1 0 6 -19 9 -47 7 l-48 -3 -2 -74 c-1 -54 2 -78 12 -85 8 -6 13
-20 11 -31 -2 -16 -10 -19 -37 -17 -19 1 -44 3 -55 3 -16 1 -20 6 -17 19 3 12
-2 20 -14 24 -10 3 -2 3 18 0 l36 -4 6 58 c11 99 11 98 -107 106 -56 4 -109 4
-119 0 -15 -5 -17 -19 -16 -85 l1 -79 42 5 c22 3 56 8 74 11 20 4 32 2 32 -5
0 -6 -7 -11 -15 -11 -8 0 -15 -9 -15 -20 0 -24 -42 -37 -75 -22 -31 14 -62 5
-70 -21 -6 -19 -8 -20 -12 -4 -6 22 -18 22 -55 -4 -16 -12 -32 -19 -35 -16 -3
4 -5 28 -5 54 1 95 -2 90 58 86 50 -3 54 -1 60 21 3 14 4 33 2 43 -4 21 -45
30 -61 14 -16 -16 -54 -13 -61 5 -10 25 -7 82 4 89 6 4 9 18 8 33 -1 15 2 36
5 47 6 18 2 20 -48 20 l-54 0 3 -96z m383 -151 c-2 -24 -82 -22 -84 2 -1 11 9
15 42 15 35 0 43 -3 42 -17z m280 7 c0 -6 -21 -10 -47 -10 -28 0 -46 4 -44 10
5 13 91 13 91 0z m-143 -210 c0 -28 -3 -30 -35 -27 -19 1 -43 3 -54 3 -14 1
-20 9 -21 26 -2 18 2 22 15 19 9 -3 23 -1 31 4 8 6 26 9 40 8 21 -3 25 -8 24
-33z m0 -100 c0 -28 -3 -30 -35 -27 -19 1 -43 3 -54 3 -14 1 -20 9 -21 26 -2
18 2 22 15 19 9 -3 23 -1 31 4 8 6 26 9 40 8 21 -3 25 -8 24 -33z m120 -83 c3
-5 -10 -23 -28 -41 l-34 -33 -21 30 c-26 37 -26 45 -3 38 9 -3 24 -1 32 4 19
12 47 13 54 2z"/>
</g>
</svg>
