<?xml version="1.0" standalone="no"?>
<!DOCTYPE svg PUBLIC "-//W3C//DTD SVG 20010904//EN"
 "http://www.w3.org/TR/2001/REC-SVG-20010904/DTD/svg10.dtd">
<svg version="1.0" xmlns="http://www.w3.org/2000/svg"
 width="101.000000pt" height="101.000000pt" viewBox="0 0 101.000000 101.000000"
 preserveAspectRatio="xMidYMid meet">
<metadata>
Created by potrace 1.16, written by Peter Selinger 2001-2019
</metadata>
<g transform="translate(0.000000,101.000000) scale(0.100000,-0.100000)"
fill="#000000" stroke="none">
<path d="M459 1002 c0 -4 0 -26 1 -50 1 -23 -1 -55 -4 -70 l-6 -27 -128 2
c-70 1 -144 4 -165 7 -52 9 -77 -7 -77 -47 0 -48 20 -71 56 -64 16 3 94 8 174
10 l145 4 2 -63 2 -63 -125 4 c-69 3 -136 0 -151 -6 -23 -9 -25 -13 -20 -50 6
-43 17 -62 24 -41 5 12 65 17 76 5 4 -3 0 -11 -9 -17 -13 -10 -9 -20 31 -76
26 -36 68 -86 93 -112 l46 -47 -57 -26 c-31 -15 -67 -27 -79 -27 -13 -1 -28
-5 -33 -9 -16 -11 -94 -22 -148 -20 -77 3 -83 -6 -39 -66 34 -48 40 -52 72
-48 54 5 216 62 288 100 l63 33 72 -38 c87 -47 188 -82 272 -95 27 -4 33 0 67
53 25 39 33 59 25 64 -7 3 -50 8 -97 11 -47 2 -98 7 -115 11 -37 8 -135 47
-135 53 0 3 29 36 63 74 64 70 140 190 152 241 l7 27 -56 -6 c-36 -4 -61 -2
-70 6 -8 7 -37 10 -67 9 l-54 -3 0 60 0 60 48 -3 c27 -2 54 1 62 8 16 13 187
4 217 -11 38 -20 65 17 53 71 -6 26 -10 29 -36 23 -17 -3 -35 0 -44 7 -10 8
-24 9 -42 4 -16 -5 -80 -9 -143 -9 l-115 0 1 40 c1 22 5 54 9 72 6 28 5 33
-16 36 -40 7 -89 7 -90 -1z m190 -474 c-20 -39 -108 -145 -133 -162 -24 -15
-26 -15 -69 37 -24 28 -56 70 -71 92 l-26 40 77 6 c43 3 113 6 156 7 78 2 78
2 66 -20z"/>
</g>
</svg>
