<?xml version="1.0" standalone="no"?>
<!DOCTYPE svg PUBLIC "-//W3C//DTD SVG 20010904//EN"
 "http://www.w3.org/TR/2001/REC-SVG-20010904/DTD/svg10.dtd">
<svg version="1.0" xmlns="http://www.w3.org/2000/svg"
 width="101.000000pt" height="102.000000pt" viewBox="0 0 101.000000 102.000000"
 preserveAspectRatio="xMidYMid meet">
<metadata>
Created by potrace 1.16, written by Peter Selinger 2001-2019
</metadata>
<g transform="translate(0.000000,102.000000) scale(0.100000,-0.100000)"
fill="#000000" stroke="none">
<path d="M619 978 c-7 -24 -14 -51 -16 -61 -5 -29 -69 -177 -98 -229 -14 -26
-24 -52 -20 -58 10 -16 65 -41 75 -35 6 3 10 -2 11 -12 3 -70 13 -118 43 -203
15 -41 28 -79 29 -84 3 -14 -88 -74 -144 -93 -27 -10 -49 -20 -49 -23 1 -3 16
-22 35 -43 41 -47 47 -46 150 28 l75 54 72 -54 c40 -30 77 -55 83 -55 9 0 89
81 83 85 -2 0 -32 15 -68 33 -36 18 -76 40 -88 50 l-24 19 25 74 c44 128 55
172 66 252 6 43 11 83 11 88 0 5 11 9 24 9 43 0 72 52 48 85 -4 7 -59 11 -138
10 l-132 0 20 50 c11 28 28 65 39 84 11 19 16 37 12 41 -7 6 -92 30 -107 30
-3 0 -11 -19 -17 -42z m134 -313 c-2 -33 -5 -76 -8 -95 -3 -19 -7 -48 -9 -63
-3 -16 -10 -52 -17 -80 l-12 -52 -13 32 c-19 44 -27 91 -25 142 4 85 -21 129
-55 100 -18 -14 -17 -10 0 32 19 45 16 44 83 44 l58 0 -2 -60z"/>
<path d="M258 976 c-33 -12 -33 -12 -8 -76 25 -63 25 -70 0 -70 -11 0 -20 -4
-20 -10 0 -5 -16 -10 -35 -10 -19 0 -35 5 -35 10 0 6 -20 10 -45 10 -40 0 -47
-3 -56 -27 -5 -15 -8 -37 -4 -50 5 -21 10 -22 73 -20 l67 2 3 -94 c2 -57 -2
-98 -8 -106 -6 -8 -13 -31 -15 -52 -13 -120 -53 -219 -109 -272 -34 -32 -33
-41 8 -80 l34 -33 25 34 c43 57 112 218 123 288 1 8 5 33 9 55 3 21 7 40 8 41
1 0 25 4 53 7 l51 6 -3 -45 c-2 -25 -6 -49 -9 -54 -3 -5 0 -20 6 -34 10 -20 8
-32 -5 -61 -9 -19 -14 -40 -11 -46 4 -5 0 -21 -9 -34 -14 -21 -22 -23 -62 -19
-44 4 -46 3 -39 -19 4 -12 8 -33 10 -47 1 -14 3 -28 4 -31 3 -16 46 -16 93 -1
80 26 92 49 103 202 2 30 7 71 10 90 3 19 8 69 10 111 l4 77 -89 7 c-49 4 -93
4 -98 1 -6 -3 -9 17 -8 49 l1 55 42 0 c23 0 43 5 45 11 3 9 21 9 73 0 74 -13
85 -9 85 36 0 42 -9 52 -45 46 -19 -3 -69 -2 -112 2 -78 8 -78 8 -43 20 39 14
39 16 9 92 -22 54 -29 58 -81 39z"/>
</g>
</svg>
