<?xml version="1.0" standalone="no"?>
<!DOCTYPE svg PUBLIC "-//W3C//DTD SVG 20010904//EN"
 "http://www.w3.org/TR/2001/REC-SVG-20010904/DTD/svg10.dtd">
<svg version="1.0" xmlns="http://www.w3.org/2000/svg"
 width="101.000000pt" height="101.000000pt" viewBox="0 0 101.000000 101.000000"
 preserveAspectRatio="xMidYMid meet">
<metadata>
Created by potrace 1.16, written by Peter Selinger 2001-2019
</metadata>
<g transform="translate(0.000000,101.000000) scale(0.100000,-0.100000)"
fill="#000000" stroke="none">
<path d="M526 996 c3 -9 1 -23 -6 -31 -7 -9 -14 -25 -16 -38 -16 -110 -60
-229 -114 -307 -45 -67 -46 -70 -25 -70 9 0 29 -7 45 -15 29 -15 29 -15 56 30
14 25 28 45 29 43 2 -2 5 -16 8 -33 6 -35 53 -167 74 -209 13 -26 13 -30 -8
-52 -24 -25 -145 -91 -221 -119 -27 -10 -48 -21 -48 -25 0 -3 11 -13 25 -20
14 -7 32 -24 40 -37 l16 -24 72 38 c40 21 100 59 135 85 l63 48 68 -58 c38
-31 92 -70 120 -85 l50 -28 15 28 c7 16 23 37 35 47 28 25 27 32 -6 41 -46 11
-128 53 -176 90 l-46 35 19 33 c17 29 52 118 66 167 14 54 33 149 34 171 0 25
4 27 58 34 62 8 72 15 72 57 0 34 -31 52 -74 43 -117 -24 -166 -28 -190 -16
-13 7 -44 12 -68 10 l-45 -4 19 54 c10 30 25 65 33 78 8 12 15 24 15 27 0 8
-36 18 -83 23 -40 4 -46 2 -41 -11z m214 -285 c0 -15 -5 -32 -10 -37 -6 -6
-13 -26 -15 -45 -10 -70 -37 -173 -54 -198 -7 -11 -12 -8 -24 15 -20 40 -36
92 -42 138 -6 53 -32 69 -76 46 -24 -13 -24 -14 5 51 l24 54 96 2 96 2 0 -28z"/>
<path d="M46 883 c-9 -10 -7 -66 4 -83 7 -11 25 -15 67 -13 l58 1 -4 -50 c-2
-28 2 -55 8 -61 13 -13 15 -54 2 -61 -12 -8 -13 -114 -1 -121 12 -8 13 -115 1
-133 -5 -8 -39 -22 -76 -33 -37 -10 -70 -20 -72 -23 -4 -3 32 -83 43 -95 1 -2
45 13 96 33 51 20 129 49 173 65 l80 29 -1 46 c-1 26 -4 49 -6 51 -2 3 -36 -8
-74 -25 l-69 -29 -8 22 c-5 12 -6 56 -2 97 3 41 6 122 8 180 l2 105 45 -3 c84
-5 109 14 95 76 l-5 27 -179 2 c-98 1 -181 -1 -185 -4z"/>
</g>
</svg>
