<?xml version="1.0" standalone="no"?>
<!DOCTYPE svg PUBLIC "-//W3C//DTD SVG 20010904//EN"
 "http://www.w3.org/TR/2001/REC-SVG-20010904/DTD/svg10.dtd">
<svg version="1.0" xmlns="http://www.w3.org/2000/svg"
 width="101.000000pt" height="101.000000pt" viewBox="0 0 101.000000 101.000000"
 preserveAspectRatio="xMidYMid meet">
<metadata>
Created by potrace 1.16, written by Peter Selinger 2001-2019
</metadata>
<g transform="translate(0.000000,101.000000) scale(0.100000,-0.100000)"
fill="#000000" stroke="none">
<path d="M552 918 c-17 -46 -55 -121 -83 -167 -44 -71 -54 -82 -60 -65 -11 28
-11 102 1 109 5 3 8 30 8 60 l-2 55 -68 -7 c-48 -4 -68 -3 -68 6 0 6 -17 11
-40 11 -22 0 -40 -5 -40 -11 0 -7 -21 -10 -60 -7 -58 3 -60 2 -65 -24 -8 -36
11 -72 33 -62 9 3 29 6 44 5 15 -1 29 3 33 9 7 11 78 12 110 2 17 -6 20 -17
23 -86 3 -58 0 -81 -10 -87 -18 -12 -66 -11 -73 1 -3 6 -27 10 -53 9 -76 -2
-82 -5 -82 -50 0 -21 5 -39 10 -39 6 0 10 -32 10 -75 0 -49 -4 -75 -11 -75 -8
0 -10 -26 -7 -86 4 -75 2 -87 -14 -97 -24 -16 -23 -26 11 -66 l28 -34 114 75
c63 42 129 83 147 92 17 9 32 21 32 26 0 7 -26 71 -36 88 -1 2 -42 -23 -91
-56 l-88 -59 0 126 0 126 99 3 c76 2 102 6 111 18 10 14 12 14 24 0 10 -12 17
-14 27 -5 11 9 15 7 20 -7 23 -67 68 -174 85 -202 10 -18 19 -35 19 -38 0 -2
-27 -22 -61 -44 -65 -42 -143 -75 -198 -83 -18 -3 -35 -8 -38 -11 -3 -3 11
-26 31 -50 l36 -45 38 16 c70 29 167 81 207 111 l39 30 56 -43 c30 -23 82 -57
114 -75 l59 -34 43 50 c24 27 40 52 36 55 -4 3 -43 20 -88 38 -105 42 -158 77
-148 99 4 10 25 67 46 129 33 98 44 146 51 228 2 17 10 20 56 21 58 2 71 12
71 56 0 31 -26 62 -43 51 -7 -4 -71 -7 -144 -8 l-131 0 44 63 c24 35 42 67 39
72 -5 8 -97 40 -115 40 -4 0 -21 -37 -38 -82z m160 -192 c4 -6 2 -18 -3 -28
-6 -10 -8 -35 -4 -55 3 -19 1 -41 -4 -47 -6 -6 -13 -25 -16 -41 -12 -62 -15
-72 -28 -109 l-13 -38 -28 62 c-16 35 -28 75 -28 89 0 48 -16 64 -55 56 -41
-7 -41 -7 11 65 l40 55 60 0 c34 0 64 -4 68 -9z"/>
</g>
</svg>
