<?xml version="1.0" standalone="no"?>
<!DOCTYPE svg PUBLIC "-//W3C//DTD SVG 20010904//EN"
 "http://www.w3.org/TR/2001/REC-SVG-20010904/DTD/svg10.dtd">
<svg version="1.0" xmlns="http://www.w3.org/2000/svg"
 width="101.000000pt" height="101.000000pt" viewBox="0 0 101.000000 101.000000"
 preserveAspectRatio="xMidYMid meet">
<metadata>
Created by potrace 1.16, written by Peter Selinger 2001-2019
</metadata>
<g transform="translate(0.000000,101.000000) scale(0.100000,-0.100000)"
fill="#000000" stroke="none">
<path d="M645 998 c-2 -7 -11 -38 -21 -68 -24 -78 -67 -171 -104 -225 l-31
-45 -51 44 c-54 47 -58 47 -104 9 -22 -18 -22 -18 61 -100 l82 -81 37 30 37
31 -28 29 -28 30 39 -16 c21 -9 41 -16 45 -16 3 0 19 24 34 53 l29 52 56 0 57
0 -1 -55 c-1 -30 -5 -63 -9 -72 -4 -10 -5 -25 -2 -33 4 -8 2 -17 -3 -20 -5 -3
-8 -13 -8 -23 1 -9 -7 -42 -17 -72 -17 -51 -19 -53 -27 -30 -5 14 -11 32 -13
40 -2 8 -11 35 -18 60 -15 47 -17 55 -17 69 0 4 -10 7 -22 6 -33 -3 -68 -16
-68 -25 0 -11 70 -211 81 -232 8 -14 -1 -26 -43 -59 -52 -42 -164 -99 -192
-99 -29 0 -23 -16 20 -53 l44 -39 58 32 c31 18 83 52 115 77 l57 45 58 -49
c31 -27 74 -61 95 -77 l38 -28 44 39 c24 21 44 40 44 43 1 3 -27 20 -61 37
-79 39 -148 97 -143 121 2 9 11 35 20 57 42 98 56 160 55 243 0 34 4 62 9 62
5 0 12 8 15 18 5 15 15 18 50 15 38 -3 46 0 51 18 4 11 4 31 1 44 -5 21 -14
24 -68 29 -35 4 -97 5 -139 4 l-76 -3 30 65 c16 36 33 69 38 75 16 16 10 26
-26 41 -42 17 -74 18 -80 2z"/>
<path d="M267 992 c-22 -4 -21 -9 4 -75 23 -59 27 -61 91 -43 l26 8 -21 57
c-19 53 -23 57 -51 57 -17 -1 -39 -2 -49 -4z"/>
<path d="M77 845 c-19 -18 -22 -52 -7 -75 7 -11 26 -14 82 -13 40 2 74 7 76
13 5 13 52 13 52 -1 0 -9 30 -11 204 -11 21 0 43 6 48 14 11 17 2 70 -15 80
-17 11 -95 10 -101 -1 -6 -10 -235 -6 -291 5 -23 4 -37 1 -48 -11z"/>
<path d="M162 697 c-21 -29 -60 -74 -85 -100 -26 -26 -47 -51 -47 -55 1 -4 17
-18 38 -31 l37 -23 50 54 c82 88 127 147 121 157 -3 5 -21 18 -40 29 l-35 21
-39 -52z"/>
<path d="M347 551 c-4 -17 -13 -47 -22 -67 l-15 -37 -55 52 -55 52 -35 -27
c-19 -14 -35 -29 -35 -33 0 -3 15 -16 33 -28 18 -13 48 -38 67 -58 l34 -35
-35 -36 c-42 -44 -122 -97 -171 -115 -21 -7 -38 -16 -38 -19 0 -8 76 -70 85
-70 15 0 134 88 177 131 l48 48 39 -47 40 -46 36 20 c20 10 39 23 42 27 3 5
-21 36 -53 68 l-59 60 39 74 c22 41 38 77 35 79 -12 10 -70 36 -82 36 -8 0
-17 -13 -20 -29z"/>
</g>
</svg>
