<?xml version="1.0" standalone="no"?>
<!DOCTYPE svg PUBLIC "-//W3C//DTD SVG 20010904//EN"
 "http://www.w3.org/TR/2001/REC-SVG-20010904/DTD/svg10.dtd">
<svg version="1.0" xmlns="http://www.w3.org/2000/svg"
 width="101.000000pt" height="102.000000pt" viewBox="0 0 101.000000 102.000000"
 preserveAspectRatio="xMidYMid meet">
<metadata>
Created by potrace 1.16, written by Peter Selinger 2001-2019
</metadata>
<g transform="translate(0.000000,102.000000) scale(0.100000,-0.100000)"
fill="#000000" stroke="none">
<path d="M210 1008 c0 -36 -82 -179 -134 -235 l-57 -62 41 -21 c39 -20 43 -20
60 -5 17 15 18 14 24 -20 5 -23 3 -42 -5 -51 -6 -7 -9 -29 -7 -47 4 -34 3 -34
-29 -26 -62 14 -87 -7 -76 -64 5 -24 8 -25 53 -21 l48 4 -4 -47 c-6 -65 -12
-125 -15 -143 -7 -45 -1 -50 49 -44 71 9 229 10 238 1 5 -4 3 -16 -3 -25 -7
-12 -23 -17 -57 -16 -25 1 -46 0 -46 -1 0 -14 43 -95 51 -95 30 0 100 25 118
42 21 19 22 19 62 -13 l41 -32 34 18 c18 10 57 39 86 65 l52 47 55 -45 c87
-71 95 -72 136 -26 19 21 34 41 35 44 0 3 -28 18 -62 33 -35 15 -75 37 -90 50
l-27 22 32 95 c18 52 34 104 35 115 4 51 9 82 15 91 3 6 7 38 8 71 l2 61 32
-5 c50 -8 81 36 55 77 -7 12 -35 15 -140 15 -71 0 -130 0 -130 1 0 7 54 132
61 139 20 20 7 35 -43 50 -59 17 -66 13 -74 -40 -10 -69 -39 -155 -81 -237
-18 -38 -35 -68 -37 -68 -3 0 -3 20 -1 44 l4 43 -52 7 c-79 9 -157 7 -157 -4
0 -5 -11 -10 -25 -10 -14 0 -25 5 -25 10 0 6 -18 10 -41 10 l-40 0 16 28 16
27 137 -3 c156 -3 198 2 206 24 14 36 -18 85 -45 68 -12 -7 -239 -11 -239 -4
0 3 13 21 30 40 16 19 29 38 30 42 0 4 -19 12 -42 18 -24 6 -51 13 -60 16 -11
3 -18 0 -18 -8z m563 -326 c-3 -62 -10 -123 -18 -162 -3 -14 -8 -40 -11 -59
-3 -19 -10 -46 -16 -60 -10 -25 -10 -25 -18 -5 -15 39 -32 150 -31 211 0 33
-19 48 -49 38 -15 -5 -14 0 6 42 l22 48 59 2 58 1 -2 -56z m-380 1 c31 -5 37
-9 30 -22 -4 -9 -8 -42 -8 -73 0 -53 -2 -58 -25 -62 -14 -2 -47 -3 -75 0 -27
2 -59 4 -71 5 -19 1 -20 5 -13 58 5 31 6 66 2 79 -5 21 -3 22 58 22 35 0 81
-3 102 -7z m159 -80 c9 -8 21 -12 26 -9 5 3 9 0 10 -7 2 -17 13 -89 16 -107 6
-35 39 -137 53 -164 15 -29 14 -30 -23 -62 -47 -40 -143 -99 -149 -92 -3 3 -2
19 1 36 4 21 12 31 23 30 48 -4 66 17 54 63 -5 18 -11 20 -39 16 l-32 -5 5 56
c4 31 6 66 6 78 -1 16 6 20 34 21 42 1 46 5 46 43 0 38 -4 42 -45 43 -32 1
-33 2 -33 43 0 44 10 48 47 17z m-160 -140 c25 -4 26 -7 21 -41 -7 -47 -7 -62
2 -89 10 -31 -25 -43 -107 -37 -35 2 -73 5 -85 5 -20 1 -21 5 -16 58 4 31 6
66 6 79 -1 17 3 21 16 18 9 -3 23 -1 31 4 15 10 85 11 132 3z"/>
<path d="M293 646 c-26 -12 -27 -20 -12 -65 11 -32 24 -36 68 -24 20 5 22 10
17 42 -3 20 -13 42 -23 48 -19 15 -20 15 -50 -1z"/>
<path d="M298 438 c-31 -11 -33 -20 -17 -69 15 -44 11 -41 53 -34 41 8 43 17
20 75 -18 44 -17 43 -56 28z"/>
</g>
</svg>
