<?xml version="1.0" standalone="no"?>
<!DOCTYPE svg PUBLIC "-//W3C//DTD SVG 20010904//EN"
 "http://www.w3.org/TR/2001/REC-SVG-20010904/DTD/svg10.dtd">
<svg version="1.0" xmlns="http://www.w3.org/2000/svg"
 width="101.000000pt" height="101.000000pt" viewBox="0 0 101.000000 101.000000"
 preserveAspectRatio="xMidYMid meet">
<metadata>
Created by potrace 1.16, written by Peter Selinger 2001-2019
</metadata>
<g transform="translate(0.000000,101.000000) scale(0.100000,-0.100000)"
fill="#000000" stroke="none">
<path d="M255 976 c-4 -19 -2 -43 4 -54 12 -23 14 -88 3 -112 -5 -11 -17 -14
-42 -10 -32 5 -33 7 -12 14 26 9 25 26 -6 98 -22 50 -42 58 -89 36 l-21 -10
24 -52 c13 -28 24 -56 24 -63 0 -6 8 -14 18 -17 9 -2 -3 -4 -28 -4 -76 1 -75
2 -75 -47 -1 -40 2 -46 23 -52 14 -3 44 -1 68 4 24 6 44 7 44 3 0 -14 -78 -79
-121 -100 l-42 -22 37 -36 37 -37 79 82 c83 87 79 87 82 6 0 -18 6 -34 12 -36
6 -2 1 -2 -11 0 -18 3 -24 -4 -34 -36 -11 -36 -15 -40 -55 -46 -24 -3 -52 -2
-62 4 -41 22 -78 -11 -65 -59 5 -19 22 -26 53 -21 31 5 80 7 80 4 0 -2 -14
-28 -31 -59 -17 -30 -29 -57 -27 -60 3 -2 18 -6 34 -8 60 -8 104 -19 109 -26
5 -9 -42 -27 -91 -36 -16 -3 -34 -10 -41 -16 -10 -8 -20 -8 -38 0 -17 8 -33 8
-51 2 l-26 -10 31 -35 c17 -20 31 -40 31 -45 0 -6 9 -10 19 -10 40 0 181 52
229 84 l49 33 44 -23 c24 -13 36 -23 27 -24 -25 0 -22 -10 17 -53 l35 -37 58
29 c31 16 81 47 111 69 l54 41 51 -43 c58 -49 116 -90 119 -85 1 2 17 23 35
46 17 23 32 44 32 47 0 2 -14 7 -30 11 -17 4 -57 25 -91 47 -45 30 -59 45 -54
57 18 42 47 128 50 146 24 132 32 191 34 267 1 14 8 16 40 12 34 -5 40 -3 46
16 4 12 4 32 1 45 -5 21 -12 23 -98 29 -51 3 -109 5 -129 3 -41 -3 -41 0 1 82
11 22 20 43 20 46 0 9 -52 27 -92 32 -33 4 -38 2 -42 -19 -3 -12 -5 -30 -5
-38 0 -8 -2 -31 -6 -50 -4 -19 -7 -42 -9 -50 -1 -9 -6 -21 -10 -28 -4 -7 -6
-16 -3 -19 7 -7 -25 -97 -56 -160 l-26 -51 36 -22 c33 -20 38 -20 49 -6 16 22
22 20 22 -6 1 -36 8 -67 36 -153 l26 -80 -32 -28 c-36 -31 -155 -93 -163 -85
-3 3 4 16 15 31 28 35 26 42 -19 57 l-39 12 39 62 c21 33 45 77 53 97 l15 36
-87 1 c-48 0 -97 1 -109 2 -24 2 -30 14 -13 25 15 10 12 35 -5 35 -8 0 -15 5
-15 10 0 6 9 10 19 10 24 0 33 23 21 55 -14 37 -2 31 55 -25 l51 -50 29 30 29
30 -44 45 c-24 25 -49 45 -56 45 -6 0 -23 -9 -37 -20 l-25 -20 -5 22 c-4 12
-5 23 -4 24 6 6 128 7 134 1 11 -12 41 -7 57 9 35 34 5 108 -33 85 -7 -5 -22
-6 -32 -4 -17 5 -17 8 6 53 14 27 29 51 35 55 19 12 10 23 -31 39 -23 9 -43
16 -44 14 -1 -2 -7 -16 -13 -33 -5 -16 -17 -47 -26 -68 -16 -37 -16 -38 6 -47
23 -9 22 -9 -4 -9 -14 -1 -32 -3 -40 -6 -20 -8 -14 141 8 176 9 16 -17 29 -43
22 -14 -3 -23 -1 -23 6 0 6 -9 11 -20 11 -14 0 -21 -9 -25 -34z m519 -270 c-3
-16 -7 -33 -10 -37 -2 -4 1 -19 8 -34 9 -21 9 -31 -1 -47 -7 -11 -14 -37 -16
-57 -4 -34 -7 -49 -21 -114 -8 -39 -17 -25 -39 56 -14 53 -15 74 -7 93 19 40
-5 79 -41 68 -20 -6 -19 6 8 71 11 28 15 30 68 30 l56 0 -5 -29z m-367 -290
c3 -2 -9 -25 -26 -50 -30 -43 -32 -44 -64 -35 -17 6 -41 11 -52 12 -23 2 -24
12 -5 50 8 17 19 26 29 22 9 -2 23 0 31 6 14 9 77 6 87 -5z"/>
</g>
</svg>
