<?xml version="1.0" standalone="no"?>
<!DOCTYPE svg PUBLIC "-//W3C//DTD SVG 20010904//EN"
 "http://www.w3.org/TR/2001/REC-SVG-20010904/DTD/svg10.dtd">
<svg version="1.0" xmlns="http://www.w3.org/2000/svg"
 width="101.000000pt" height="101.000000pt" viewBox="0 0 101.000000 101.000000"
 preserveAspectRatio="xMidYMid meet">
<metadata>
Created by potrace 1.16, written by Peter Selinger 2001-2019
</metadata>
<g transform="translate(0.000000,101.000000) scale(0.100000,-0.100000)"
fill="#000000" stroke="none">
<path d="M451 974 c-24 -7 -45 -15 -47 -17 -2 -2 5 -21 15 -43 11 -22 22 -51
26 -65 6 -24 5 -24 -50 -21 -31 2 -61 -1 -68 -6 -15 -13 -174 -15 -182 -2 -9
15 -73 9 -80 -8 -3 -8 -3 -30 1 -48 5 -28 11 -34 39 -40 19 -3 60 -3 92 0 32
4 74 6 93 5 19 0 101 -1 182 -1 135 -1 146 -2 138 -18 -5 -9 -9 -25 -9 -36 1
-50 -39 -154 -82 -215 -17 -24 -24 -28 -35 -18 -25 21 -101 153 -118 205 -12
37 -21 51 -34 49 -30 -3 -82 -27 -82 -37 0 -20 94 -195 131 -245 l39 -52 -28
-19 c-77 -55 -229 -115 -286 -113 -10 0 -27 -5 -36 -12 -16 -11 -14 -16 24
-59 l42 -46 94 39 c52 21 132 61 178 89 l84 52 52 -35 c73 -48 118 -70 219
-106 49 -17 90 -31 93 -31 6 0 83 124 79 128 -2 2 -30 6 -62 8 -116 8 -183 28
-257 75 l-48 30 25 32 c56 74 109 208 121 307 3 25 4 25 89 22 67 -2 89 1 101
14 17 16 21 61 8 79 -10 14 -262 20 -262 6 0 -6 -16 -11 -35 -11 -19 0 -35 5
-35 10 0 6 -12 10 -27 11 -27 0 -27 1 -6 9 21 9 22 11 9 48 -19 54 -45 102
-54 101 -4 -1 -27 -7 -51 -15z"/>
</g>
</svg>
