<?xml version="1.0" standalone="no"?>
<!DOCTYPE svg PUBLIC "-//W3C//DTD SVG 20010904//EN"
 "http://www.w3.org/TR/2001/REC-SVG-20010904/DTD/svg10.dtd">
<svg version="1.0" xmlns="http://www.w3.org/2000/svg"
 width="101.000000pt" height="101.000000pt" viewBox="0 0 101.000000 101.000000"
 preserveAspectRatio="xMidYMid meet">
<metadata>
Created by potrace 1.16, written by Peter Selinger 2001-2019
</metadata>
<g transform="translate(0.000000,101.000000) scale(0.100000,-0.100000)"
fill="#000000" stroke="none">
<path d="M740 993 c-8 -2 -22 -7 -30 -11 -8 -3 -37 -7 -65 -9 -177 -9 -228
-13 -292 -24 -60 -10 -77 -10 -98 1 -20 11 -30 11 -51 1 -22 -9 -25 -16 -21
-39 11 -51 16 -371 7 -377 -5 -3 -9 -25 -9 -48 2 -80 -68 -229 -129 -277 -18
-15 -23 -23 -14 -27 7 -2 33 -16 58 -29 l45 -24 39 61 c53 82 95 195 105 279
1 14 6 50 10 80 l7 55 134 1 134 2 0 -74 c0 -43 -4 -74 -10 -74 -6 0 -10 -30
-10 -70 0 -40 4 -70 10 -70 6 0 10 -20 10 -45 0 -27 -5 -45 -11 -45 -13 0 -8
-118 5 -139 4 -6 25 -11 46 -11 45 0 74 23 61 48 -15 28 -25 192 -12 192 8 0
11 43 11 140 0 157 -6 145 76 140 18 -1 35 3 39 9 9 15 46 14 88 -4 32 -13 37
-13 51 1 34 33 6 114 -33 99 -56 -22 -245 -34 -256 -15 -7 12 -113 11 -121 -1
-7 -13 -51 -11 -59 2 -4 6 -38 9 -86 7 l-79 -3 1 30 c1 17 4 54 7 83 l7 52
100 6 c55 3 136 7 180 8 44 2 107 4 140 6 33 1 71 0 85 -4 14 -3 32 -2 40 3
12 8 8 19 -24 65 -36 53 -51 61 -86 49z"/>
</g>
</svg>
