<?xml version="1.0" standalone="no"?>
<!DOCTYPE svg PUBLIC "-//W3C//DTD SVG 20010904//EN"
 "http://www.w3.org/TR/2001/REC-SVG-20010904/DTD/svg10.dtd">
<svg version="1.0" xmlns="http://www.w3.org/2000/svg"
 width="101.000000pt" height="102.000000pt" viewBox="0 0 101.000000 102.000000"
 preserveAspectRatio="xMidYMid meet">
<metadata>
Created by potrace 1.16, written by Peter Selinger 2001-2019
</metadata>
<g transform="translate(0.000000,102.000000) scale(0.100000,-0.100000)"
fill="#000000" stroke="none">
<path d="M298 976 c-26 -24 -88 -65 -137 -90 l-90 -47 38 -35 39 -35 68 42
c37 22 97 61 133 85 36 24 71 44 78 44 24 0 13 20 -29 50 -22 16 -44 30 -47
30 -3 -1 -27 -20 -53 -44z"/>
<path d="M582 980 c-12 -16 -22 -32 -22 -34 0 -3 34 -22 75 -41 41 -20 104
-56 139 -80 l64 -43 38 39 c21 21 36 40 33 42 -14 12 -158 92 -211 117 -78 37
-89 37 -116 0z"/>
<path d="M551 835 c-30 -30 -57 -55 -61 -55 -3 0 -34 23 -69 50 l-62 51 -35
-22 c-34 -21 -35 -22 -17 -41 10 -11 40 -35 66 -53 l49 -33 -54 -20 c-98 -36
-159 -50 -288 -66 -14 -1 -30 -4 -37 -4 -7 -1 4 -24 25 -52 28 -38 42 -50 57
-46 50 11 261 89 311 114 l56 28 94 -35 c52 -19 94 -39 94 -43 0 -5 -5 -6 -10
-3 -6 4 -19 4 -28 0 -20 -9 -58 -15 -91 -15 -14 0 -35 -7 -49 -16 -20 -13 -43
-14 -147 -9 l-123 7 -7 -31 c-3 -17 -5 -68 -4 -113 5 -135 -19 -202 -89 -253
-43 -32 -51 -45 -28 -45 8 0 28 -11 44 -25 l30 -25 31 26 c49 41 102 144 105
203 1 10 16 14 56 14 30 -1 60 3 66 8 7 5 36 7 67 3 63 -7 58 4 60 -146 1
-107 2 -108 69 -100 34 4 36 5 27 30 -5 15 -7 59 -4 97 3 39 6 80 6 91 1 15 8
22 23 23 11 0 50 3 86 6 36 2 80 0 99 -6 39 -13 51 -3 51 48 0 38 -31 63 -55
43 -20 -17 -243 -24 -261 -9 -11 9 -18 9 -26 1 -15 -15 -75 -16 -83 -2 -4 6
-40 9 -88 8 l-82 -3 -1 33 c0 22 4 32 15 33 9 0 43 2 76 4 33 1 89 5 125 8 36
3 76 6 90 6 14 0 53 3 88 6 73 8 77 17 30 72 -25 28 -28 35 -13 29 11 -4 29
-10 40 -12 11 -2 31 -6 45 -10 14 -3 41 -8 61 -10 33 -4 38 -2 49 25 7 17 18
36 26 42 32 26 8 34 -143 44 -73 4 -181 28 -216 47 -16 8 -13 14 33 48 29 22
58 41 64 43 22 7 -50 67 -81 67 -4 0 -32 -25 -62 -55z"/>
</g>
</svg>
