<?xml version="1.0" standalone="no"?>
<!DOCTYPE svg PUBLIC "-//W3C//DTD SVG 20010904//EN"
 "http://www.w3.org/TR/2001/REC-SVG-20010904/DTD/svg10.dtd">
<svg version="1.0" xmlns="http://www.w3.org/2000/svg"
 width="101.000000pt" height="101.000000pt" viewBox="0 0 101.000000 101.000000"
 preserveAspectRatio="xMidYMid meet">
<metadata>
Created by potrace 1.16, written by Peter Selinger 2001-2019
</metadata>
<g transform="translate(0.000000,101.000000) scale(0.100000,-0.100000)"
fill="#000000" stroke="none">
<path d="M628 1003 c-10 -3 -15 -10 -11 -19 3 -8 0 -21 -6 -28 -7 -8 -14 -27
-17 -42 -14 -79 -92 -215 -151 -263 -20 -16 -32 -34 -29 -40 4 -6 1 -9 -7 -5
-8 3 -20 -2 -27 -11 -8 -10 -30 -15 -66 -15 l-54 0 3 68 2 67 113 -1 c109 0
113 0 118 23 4 13 3 35 0 49 -6 21 -11 25 -30 20 -13 -3 -52 -3 -87 1 -48 5
-57 8 -41 14 29 11 28 17 -13 100 -38 75 -35 73 -102 48 -28 -11 -28 -9 2 -70
52 -101 55 -94 -49 -93 -50 1 -95 2 -101 4 -32 8 -54 -35 -40 -79 8 -27 30
-32 90 -23 l50 8 -4 -45 c-2 -25 -5 -80 -7 -121 -4 -88 -9 -133 -16 -146 -3
-5 -6 -20 -6 -34 0 -40 -41 -137 -79 -186 -19 -25 -33 -47 -31 -48 2 0 24 -8
50 -17 54 -19 53 -20 92 58 39 77 73 202 80 293 3 35 4 35 55 38 l51 3 2 -43
c1 -24 0 -52 -1 -63 -1 -11 -4 -50 -5 -86 -2 -37 -6 -71 -10 -77 -4 -7 -27
-11 -51 -10 -24 1 -47 0 -50 -4 -4 -3 1 -20 9 -37 9 -16 16 -37 16 -46 0 -25
25 -28 85 -10 65 19 95 56 96 120 0 22 2 72 6 110 3 39 7 90 8 115 2 25 3 51
4 58 1 6 5 11 10 10 21 -6 122 152 167 261 13 31 24 48 24 38 0 -49 96 -188
169 -246 l41 -33 51 41 50 40 -48 25 c-115 58 -215 190 -207 270 3 27 0 37
-14 45 -11 6 -22 8 -25 5 -3 -3 -14 -2 -24 3 -10 5 -26 8 -35 6z"/>
<path d="M565 560 c-16 -16 -27 -31 -24 -33 2 -2 29 -18 59 -36 30 -18 79 -51
108 -73 l54 -40 34 33 c19 18 34 36 34 40 0 9 -210 139 -225 139 -6 0 -24 -13
-40 -30z"/>
<path d="M546 343 c-16 -18 -27 -35 -25 -38 2 -2 40 -27 83 -55 43 -28 102
-73 131 -101 l52 -49 39 31 c21 17 39 36 39 42 0 12 -189 149 -255 185 l-35
19 -29 -34z"/>
</g>
</svg>
