<?xml version="1.0" standalone="no"?>
<!DOCTYPE svg PUBLIC "-//W3C//DTD SVG 20010904//EN"
 "http://www.w3.org/TR/2001/REC-SVG-20010904/DTD/svg10.dtd">
<svg version="1.0" xmlns="http://www.w3.org/2000/svg"
 width="101.000000pt" height="101.000000pt" viewBox="0 0 101.000000 101.000000"
 preserveAspectRatio="xMidYMid meet">
<metadata>
Created by potrace 1.16, written by Peter Selinger 2001-2019
</metadata>
<g transform="translate(0.000000,101.000000) scale(0.100000,-0.100000)"
fill="#000000" stroke="none">
<path d="M458 1003 c-22 -6 -23 -17 -2 -49 9 -13 15 -26 13 -28 -2 -2 -43 -7
-91 -11 -63 -5 -88 -4 -88 4 0 6 -17 11 -40 11 -22 0 -40 -5 -40 -11 0 -7 -21
-10 -60 -7 -50 2 -61 0 -66 -14 -6 -22 4 -60 20 -70 19 -13 74 -9 90 7 16 17
76 21 76 5 0 -5 21 -10 48 -11 41 0 44 -2 22 -10 -34 -14 -34 -15 -13 -46 11
-15 23 -33 26 -40 5 -8 -29 -10 -134 -7 l-141 4 4 -75 c3 -83 9 -89 64 -79 25
4 36 13 40 30 3 12 4 26 1 31 -3 4 52 9 121 10 70 1 143 2 162 3 19 0 67 0
105 0 39 -1 96 2 128 6 67 7 131 -2 121 -17 -3 -6 -3 -20 0 -32 4 -19 12 -22
55 -22 42 0 51 3 55 20 8 29 7 98 -2 110 -4 6 -61 10 -134 10 -131 0 -132 1
-95 42 23 26 17 39 -23 48 -20 4 -27 11 -23 21 6 17 143 21 143 4 0 -6 24 -10
59 -9 54 2 60 4 66 26 3 14 3 32 0 42 -6 18 -11 19 -222 23 l-132 3 -11 41
c-11 39 -14 42 -48 41 -21 0 -45 -2 -54 -4z m2 -163 c0 -5 38 -11 85 -12 l86
-3 -25 -50 -25 -50 -63 2 c-94 2 -116 4 -95 10 22 6 22 13 -6 54 -17 25 -20
38 -13 46 13 14 56 17 56 3z"/>
<path d="M473 618 c-32 -11 -32 -11 -17 -40 9 -17 14 -31 12 -33 -4 -5 -181
-6 -313 -3 l-100 3 -3 -30 c-5 -62 7 -66 206 -53 94 6 91 8 77 -72 -8 -46 -28
-80 -72 -122 -38 -37 -133 -88 -165 -88 -33 0 -26 -16 23 -53 49 -37 50 -37
82 -21 64 33 133 93 167 146 21 33 43 56 55 57 48 6 265 5 270 -1 4 -3 1 -25
-6 -48 -15 -51 -48 -75 -87 -65 -30 7 -71 9 -77 3 -3 -2 5 -25 17 -51 20 -43
35 -54 63 -47 6 2 19 4 30 4 26 2 97 26 112 38 14 12 54 138 47 149 -2 4 0 18
5 32 5 14 7 34 4 46 -5 19 -10 20 -125 15 -71 -3 -124 -1 -131 5 -7 5 -35 8
-62 8 l-50 -2 3 35 4 35 186 0 c103 0 193 -4 200 -9 8 -4 38 -5 67 -1 42 5 56
11 60 26 8 23 -1 69 -13 68 -4 -1 -91 -1 -194 0 -172 1 -186 2 -182 19 6 19
-30 63 -49 61 -7 -1 -26 -6 -44 -11z"/>
</g>
</svg>
