<?xml version="1.0" standalone="no"?>
<!DOCTYPE svg PUBLIC "-//W3C//DTD SVG 20010904//EN"
 "http://www.w3.org/TR/2001/REC-SVG-20010904/DTD/svg10.dtd">
<svg version="1.0" xmlns="http://www.w3.org/2000/svg"
 width="101.000000pt" height="102.000000pt" viewBox="0 0 101.000000 102.000000"
 preserveAspectRatio="xMidYMid meet">
<metadata>
Created by potrace 1.16, written by Peter Selinger 2001-2019
</metadata>
<g transform="translate(0.000000,102.000000) scale(0.100000,-0.100000)"
fill="#000000" stroke="none">
<path d="M496 988 c-10 -49 -89 -206 -94 -186 -5 23 -47 34 -78 19 -30 -13
-88 -15 -79 -2 3 5 19 12 35 16 16 4 32 10 35 14 7 12 -63 151 -76 151 -21 0
-90 -23 -86 -29 23 -43 68 -143 65 -146 -6 -7 -91 -6 -127 1 -38 8 -61 -12
-61 -52 0 -38 27 -56 74 -49 l41 7 -2 -74 c-6 -236 -35 -356 -110 -456 -14
-18 -23 -35 -21 -37 7 -7 79 -55 83 -55 16 0 93 172 116 260 17 63 18 70 25
117 5 35 10 42 32 45 l27 4 -2 -101 c-1 -55 -3 -114 -3 -132 0 -45 -22 -62
-70 -58 -45 4 -45 4 -25 -35 8 -16 15 -33 14 -37 -6 -37 11 -41 89 -18 65 20
76 39 79 140 1 44 5 94 8 110 9 46 20 180 17 197 -2 12 -19 15 -85 14 l-82 -1
0 55 0 55 62 0 62 0 -21 -22 c-12 -13 -20 -24 -17 -26 2 -2 21 -14 42 -27 l38
-22 16 22 c14 20 17 21 25 6 10 -19 69 -22 100 -5 11 6 23 8 26 4 12 -12 -78
-84 -119 -97 -22 -6 -39 -13 -39 -14 0 -9 36 -80 44 -85 5 -4 6 -12 2 -18 -4
-6 -2 -20 4 -32 9 -16 9 -37 0 -84 -14 -77 -37 -116 -89 -153 l-40 -29 43 -31
44 -32 37 41 c45 50 75 114 80 172 8 85 15 128 21 138 3 6 -2 17 -12 24 -22
17 -24 16 91 22 167 8 185 6 206 -22 l20 -25 40 27 41 27 -84 83 c-47 45 -79
84 -73 87 7 2 18 0 26 -5 23 -14 86 -10 103 7 21 21 21 73 0 81 -9 3 -25 1
-35 -5 -10 -7 -50 -12 -88 -12 -67 0 -69 1 -76 28 -17 66 -16 69 9 65 13 -3
27 0 30 6 10 16 76 14 125 -3 36 -13 42 -13 57 1 11 12 14 27 10 51 -3 19 -6
35 -8 37 -2 1 -43 -3 -92 -8 -68 -8 -91 -8 -94 1 -4 14 -82 16 -82 2 0 -5 -25
-10 -55 -10 -30 0 -55 3 -55 7 0 3 11 21 25 39 14 18 25 35 25 39 0 6 -45 27
-86 39 -18 6 -22 1 -28 -26z m99 -177 c6 -1 11 -9 12 -18 1 -10 4 -28 8 -41 8
-23 7 -23 -61 -16 -38 4 -71 8 -73 10 -2 2 6 18 17 36 21 33 24 34 97 29z
m118 -161 l52 0 -34 -22 -34 -22 37 -32 37 -32 -41 -7 c-23 -4 -46 -3 -53 3
-7 6 -36 9 -65 9 -28 -1 -52 -2 -52 -1 0 1 25 18 55 38 30 20 55 40 55 45 0 4
-10 13 -22 20 -14 7 -16 9 -5 6 10 -3 42 -5 70 -5z"/>
<path d="M600 452 c-9 -4 -14 -17 -13 -32 10 -88 12 -191 5 -250 -9 -77 -10
-76 53 -71 40 4 46 16 29 63 -16 45 -10 192 11 257 6 19 4 21 -50 34 -11 3
-27 2 -35 -1z"/>
<path d="M749 453 c-21 -5 -31 -40 -19 -64 6 -10 8 -67 6 -128 -2 -68 1 -119
8 -132 16 -32 86 -50 130 -35 46 16 59 29 75 72 10 29 11 39 2 42 -6 2 -25 15
-41 28 l-29 25 -10 -38 c-8 -28 -16 -39 -30 -40 -31 -3 -36 56 -17 209 3 26 3
49 -1 51 -15 8 -58 14 -74 10z"/>
</g>
</svg>
