<?xml version="1.0" standalone="no"?>
<!DOCTYPE svg PUBLIC "-//W3C//DTD SVG 20010904//EN"
 "http://www.w3.org/TR/2001/REC-SVG-20010904/DTD/svg10.dtd">
<svg version="1.0" xmlns="http://www.w3.org/2000/svg"
 width="101.000000pt" height="101.000000pt" viewBox="0 0 101.000000 101.000000"
 preserveAspectRatio="xMidYMid meet">
<metadata>
Created by potrace 1.16, written by Peter Selinger 2001-2019
</metadata>
<g transform="translate(0.000000,101.000000) scale(0.100000,-0.100000)"
fill="#000000" stroke="none">
<path d="M534 973 c-17 -53 -67 -170 -78 -186 -13 -16 -14 -16 -20 8 -4 17
-13 26 -24 24 -44 -4 -86 2 -73 10 16 10 16 8 -29 89 -19 34 -39 62 -45 62 -5
0 -27 -8 -47 -18 l-38 -17 30 -45 c16 -25 31 -57 32 -70 3 -23 -1 -25 -40 -28
-24 -2 -49 1 -56 7 -18 15 -74 10 -81 -7 -3 -8 -3 -29 1 -47 6 -32 8 -33 50
-32 24 0 46 -2 49 -5 8 -8 10 -168 2 -218 -13 -85 -15 -99 -22 -132 -11 -48
-50 -133 -80 -172 l-26 -34 45 -25 45 -25 14 21 c43 68 101 256 111 357 4 39
18 55 51 55 l30 0 -1 -61 c0 -33 -4 -65 -7 -71 -4 -6 -2 -23 4 -37 10 -20 9
-35 -1 -67 -16 -47 -32 -58 -82 -54 l-38 3 20 -38 c11 -22 20 -46 20 -55 0
-18 16 -19 76 -4 63 16 78 43 81 143 1 45 4 92 6 106 14 104 18 163 14 182 -6
22 -10 23 -86 20 l-80 -4 2 58 2 59 77 1 78 2 -24 -31 -25 -31 41 -18 c22 -10
42 -18 44 -18 1 0 21 30 43 66 l40 67 83 3 c111 4 150 4 230 0 75 -3 86 6 73
63 -6 27 -8 29 -38 20 -42 -12 -107 -12 -107 1 0 6 -18 10 -40 10 -22 0 -40
-4 -40 -10 0 -5 -25 -10 -55 -10 -33 0 -55 4 -55 11 0 6 14 31 30 56 17 24 30
46 30 48 0 4 -90 35 -102 35 -5 0 -11 -8 -14 -17z"/>
<path d="M655 734 c-12 -12 -14 -27 -9 -63 l6 -48 -31 5 c-31 4 -31 5 -16 28
21 33 19 41 -12 48 -16 4 -35 9 -44 12 -11 3 -19 -7 -28 -38 -7 -24 -30 -76
-51 -116 l-39 -72 36 -15 c19 -8 38 -15 42 -15 4 0 17 20 29 44 21 44 22 45
59 39 21 -3 38 -6 39 -7 1 -1 4 -21 7 -47 l6 -45 -37 -1 c-20 -1 -44 3 -53 7
-40 22 -72 -11 -62 -64 5 -23 8 -25 47 -20 93 12 101 11 103 -16 1 -14 5 -38
8 -55 3 -16 2 -36 -3 -43 -10 -15 -78 -18 -158 -8 -45 6 -52 4 -57 -13 -8 -31
4 -71 22 -73 18 -1 31 0 76 9 49 10 308 5 336 -6 53 -20 86 13 71 71 -4 18
-10 19 -46 12 -37 -7 -62 -7 -134 -3 -27 1 -39 40 -24 75 7 13 9 31 5 41 -5
12 -2 15 10 10 10 -4 29 -1 43 5 19 9 30 9 45 0 30 -19 46 -14 52 14 8 42 -2
61 -31 62 -15 1 -36 2 -47 3 -11 1 -31 -1 -45 -5 -24 -7 -25 -6 -25 46 l0 53
52 -2 c29 -1 57 -4 62 -7 16 -10 41 24 41 54 0 30 -31 57 -51 44 -6 -3 -32 -7
-58 -8 l-48 -1 3 37 c1 21 5 42 8 47 10 16 -24 41 -54 41 -16 0 -36 -7 -45
-16z"/>
</g>
</svg>
