<?xml version="1.0" standalone="no"?>
<!DOCTYPE svg PUBLIC "-//W3C//DTD SVG 20010904//EN"
 "http://www.w3.org/TR/2001/REC-SVG-20010904/DTD/svg10.dtd">
<svg version="1.0" xmlns="http://www.w3.org/2000/svg"
 width="101.000000pt" height="101.000000pt" viewBox="0 0 101.000000 101.000000"
 preserveAspectRatio="xMidYMid meet">
<metadata>
Created by potrace 1.16, written by Peter Selinger 2001-2019
</metadata>
<g transform="translate(0.000000,101.000000) scale(0.100000,-0.100000)"
fill="#000000" stroke="none">
<path d="M807 974 c-13 -14 -222 -18 -472 -10 l-150 5 0 -157 c0 -86 -4 -168
-8 -181 -4 -13 -5 -43 -1 -66 l6 -42 58 -2 c32 -1 61 3 65 9 8 13 52 13 60 0
4 -7 23 -8 48 -5 l42 7 0 -59 0 -58 -202 0 -202 0 -6 -27 c-4 -15 -4 -36 -1
-46 6 -18 20 -19 202 -20 108 -1 198 -3 200 -4 2 -2 6 -53 8 -113 6 -110 6
-110 32 -113 15 -2 36 -1 48 2 21 5 22 10 22 118 l-1 113 193 0 c177 0 193 1
198 18 7 23 -4 69 -19 79 -15 10 -121 10 -131 1 -12 -13 -246 -10 -246 3 0 6
3 31 6 55 l6 44 138 0 138 -1 1 62 c1 35 -3 65 -8 69 -12 7 -13 172 -2 180 15
8 10 133 -4 139 -7 2 -15 2 -18 0z m-299 -86 c8 -7 49 -9 120 -4 l107 7 0 -50
0 -50 -53 -7 c-33 -4 -69 -2 -90 5 -23 7 -91 10 -177 9 l-140 -3 4 43 c2 33 7
42 21 42 11 0 22 4 25 10 8 13 167 11 183 -2z m148 -180 c4 -5 21 -7 39 -4
l33 7 4 -51 c2 -35 -1 -51 -10 -55 -23 -9 -101 -5 -107 5 -7 12 -113 11 -121
-1 -7 -13 -51 -11 -59 2 -4 6 -37 9 -83 7 l-77 -3 0 45 0 45 107 -3 c63 -1
109 2 113 8 8 13 153 11 161 -2z"/>
</g>
</svg>
