<?xml version="1.0" standalone="no"?>
<!DOCTYPE svg PUBLIC "-//W3C//DTD SVG 20010904//EN"
 "http://www.w3.org/TR/2001/REC-SVG-20010904/DTD/svg10.dtd">
<svg version="1.0" xmlns="http://www.w3.org/2000/svg"
 width="101.000000pt" height="101.000000pt" viewBox="0 0 101.000000 101.000000"
 preserveAspectRatio="xMidYMid meet">
<metadata>
Created by potrace 1.16, written by Peter Selinger 2001-2019
</metadata>
<g transform="translate(0.000000,101.000000) scale(0.100000,-0.100000)"
fill="#000000" stroke="none">
<path d="M178 950 c3 -39 0 -60 -7 -60 -6 0 -11 -18 -11 -40 0 -23 5 -40 11
-40 8 0 10 -19 7 -57 -7 -85 4 -109 62 -128 42 -14 86 -16 297 -11 287 6 312
11 360 74 38 50 41 68 13 77 -11 4 -33 17 -49 31 -25 21 -30 22 -41 9 -7 -9
-10 -18 -7 -22 9 -8 -21 -63 -36 -64 -6 -1 -17 -1 -24 0 -6 1 -14 -2 -16 -6
-6 -9 -433 -7 -456 2 -8 3 -11 8 -8 11 3 3 2 17 -3 30 -7 19 -6 24 5 24 8 0
15 5 15 11 0 6 26 10 68 9 61 -1 94 1 177 14 17 3 46 7 65 9 19 3 55 8 80 12
25 3 56 6 70 6 37 -1 110 20 110 31 0 9 -60 98 -66 98 -2 0 -14 -4 -29 -10
-14 -5 -36 -12 -48 -14 -12 -3 -33 -8 -47 -11 -14 -4 -32 -7 -40 -7 -8 0 -22
-2 -30 -5 -8 -3 -22 -7 -30 -8 -8 -2 -26 -6 -40 -9 -36 -9 -125 -22 -190 -29
-19 -2 -42 -5 -50 -8 -18 -5 -32 77 -18 104 14 27 1 37 -50 37 l-47 0 3 -60z"/>
<path d="M179 553 c-3 -53 4 -118 12 -121 14 -5 11 -69 -3 -76 -10 -5 -10 -7
0 -12 17 -8 16 -113 -2 -150 -18 -38 -10 -103 13 -106 63 -5 96 11 85 43 -6
22 -32 20 343 19 l92 0 -5 -29 c-7 -33 9 -40 68 -33 29 3 37 9 41 30 3 14 0
39 -6 56 -12 32 -14 228 -3 281 23 116 21 118 -59 105 -86 -14 -192 -13 -199
3 -5 10 -7 10 -12 0 -7 -15 -74 -18 -74 -3 0 6 -18 10 -40 10 -22 0 -40 -4
-40 -10 0 -5 -16 -10 -35 -10 -19 0 -35 5 -35 10 0 6 -30 10 -70 10 -60 0 -70
-3 -71 -17z m321 -73 c8 0 47 2 85 5 39 3 84 3 100 0 28 -5 31 -8 33 -50 l2
-45 -93 0 c-385 -1 -342 -7 -342 45 l0 42 41 -5 c23 -2 50 1 60 7 11 6 37 9
59 6 22 -3 47 -5 55 -5z m125 -160 l91 0 2 -45 2 -45 -93 0 c-392 -1 -347 -7
-345 46 2 34 6 43 18 39 8 -2 22 0 30 5 8 5 57 7 110 4 52 -2 136 -4 185 -4z"/>
</g>
</svg>
