<?xml version="1.0" standalone="no"?>
<!DOCTYPE svg PUBLIC "-//W3C//DTD SVG 20010904//EN"
 "http://www.w3.org/TR/2001/REC-SVG-20010904/DTD/svg10.dtd">
<svg version="1.0" xmlns="http://www.w3.org/2000/svg"
 width="101.000000pt" height="101.000000pt" viewBox="0 0 101.000000 101.000000"
 preserveAspectRatio="xMidYMid meet">
<metadata>
Created by potrace 1.16, written by Peter Selinger 2001-2019
</metadata>
<g transform="translate(0.000000,101.000000) scale(0.100000,-0.100000)"
fill="#000000" stroke="none">
<path d="M153 782 l2 -189 75 0 c41 -1 93 -1 115 -2 l40 -1 2 -49 3 -48 -92
-7 c-135 -9 -178 -8 -178 6 0 9 -3 9 -11 1 -7 -7 -9 -28 -5 -56 l7 -45 87 3
c48 1 108 4 134 6 l46 4 -14 -35 c-8 -19 -27 -47 -41 -62 -30 -31 -129 -77
-169 -79 -16 -1 -44 -6 -62 -11 l-32 -10 20 -28 c11 -15 20 -32 20 -37 0 -4 4
-14 8 -21 15 -23 172 36 249 95 41 31 90 105 103 155 10 35 13 37 41 31 17 -3
55 0 85 7 58 14 74 10 54 -15 -16 -19 -4 -226 15 -251 18 -25 93 -46 118 -32
11 5 33 7 49 4 48 -9 92 16 117 66 11 24 21 51 21 60 0 15 -99 74 -101 60 -1
-4 -3 -20 -5 -36 -2 -16 -9 -35 -16 -42 -17 -17 -58 -24 -84 -14 -20 8 -21 14
-18 124 2 64 6 121 9 126 4 6 4 19 0 29 -5 16 -15 18 -103 15 -115 -4 -155 -4
-159 -1 -1 2 4 16 12 31 8 16 15 29 15 31 0 8 -62 26 -75 22 -8 -4 -17 -2 -20
3 -9 15 43 23 73 12 15 -6 52 -9 82 -6 30 2 87 7 126 10 40 3 88 1 109 -5 l37
-10 -6 37 c-14 93 -18 193 -8 205 5 6 10 39 10 72 l0 60 -149 2 c-91 2 -149
-1 -149 -7 0 -6 -35 -10 -80 -10 -47 0 -80 4 -80 10 0 6 -18 10 -40 10 -22 0
-40 -4 -40 -10 0 -5 -25 -10 -55 -10 -30 0 -55 5 -55 10 0 6 -9 10 -19 10 -18
0 -19 -9 -18 -188z m333 106 c5 -7 46 -8 128 -4 l121 7 0 -33 0 -33 -120 -2
c-143 -2 -175 -2 -280 0 l-81 2 4 28 c3 18 10 27 23 27 10 0 21 4 24 10 8 13
173 11 181 -2z m209 -136 c37 -7 40 -9 40 -40 l0 -32 -77 6 c-56 5 -78 4 -78
-5 0 -6 -11 -11 -25 -11 -14 0 -25 5 -25 10 0 6 -30 10 -70 10 -40 0 -70 -4
-70 -10 0 -5 -11 -10 -25 -10 -14 0 -25 5 -25 10 0 6 -17 10 -39 10 -35 0 -39
3 -43 28 l-4 27 149 -2 c83 -2 156 1 165 7 19 11 69 12 127 2z"/>
</g>
</svg>
