<?xml version="1.0" standalone="no"?>
<!DOCTYPE svg PUBLIC "-//W3C//DTD SVG 20010904//EN"
 "http://www.w3.org/TR/2001/REC-SVG-20010904/DTD/svg10.dtd">
<svg version="1.0" xmlns="http://www.w3.org/2000/svg"
 width="101.000000pt" height="101.000000pt" viewBox="0 0 101.000000 101.000000"
 preserveAspectRatio="xMidYMid meet">
<metadata>
Created by potrace 1.16, written by Peter Selinger 2001-2019
</metadata>
<g transform="translate(0.000000,101.000000) scale(0.100000,-0.100000)"
fill="#000000" stroke="none">
<path d="M198 984 c-24 -7 -29 -50 -23 -174 4 -58 7 -123 8 -146 l2 -41 92 -1
c52 -1 95 2 98 8 8 12 52 13 59 1 8 -13 108 -12 123 1 17 13 192 5 221 -11 31
-16 52 10 52 64 0 24 -4 46 -9 50 -13 7 -13 173 -1 180 6 4 9 18 8 33 l-2 27
-110 0 c-61 0 -116 -3 -121 -7 -16 -10 -173 -9 -180 2 -3 5 -29 9 -58 8 -29 0
-72 2 -97 5 -25 3 -53 3 -62 1z m242 -85 c0 -8 41 -9 143 -4 l142 7 0 -36 c0
-33 -3 -37 -33 -42 -17 -4 -47 -3 -65 1 -17 4 -102 8 -187 9 l-155 1 -1 28
c-1 25 1 27 42 27 24 0 44 5 44 10 0 6 16 10 35 10 19 0 35 -5 35 -11z m232
-126 c44 -5 46 -7 50 -39 l4 -35 -55 1 c-105 1 -136 1 -261 3 l-125 2 0 30 0
30 107 -3 c67 -1 109 2 113 8 7 11 83 12 167 3z"/>
<path d="M125 553 c-13 -52 -2 -58 85 -55 57 3 80 0 80 -8 0 -9 23 -11 86 -8
83 4 85 4 79 -16 -4 -12 -7 -29 -8 -38 -2 -22 -81 -36 -108 -20 -10 7 -56 12
-101 12 -46 -1 -94 2 -108 5 -42 10 -80 -10 -80 -42 0 -38 13 -55 41 -55 117
3 150 5 154 12 6 9 131 12 157 4 16 -5 16 -7 2 -29 -19 -29 -84 -72 -137 -91
-39 -14 -103 -24 -213 -33 -11 -1 -5 -11 19 -34 18 -17 38 -41 44 -51 11 -19
12 -19 79 -1 140 37 281 120 299 176 9 27 17 24 42 -15 31 -48 132 -112 224
-141 102 -32 139 -38 139 -24 0 6 11 32 24 58 l23 47 -31 1 c-17 1 -44 4 -61
7 -16 3 -47 7 -69 10 -49 6 -90 22 -142 57 -50 34 -62 56 -31 58 12 0 58 3
103 6 55 4 93 1 120 -8 49 -18 101 -11 109 13 3 10 3 30 -1 44 -8 33 -43 43
-103 28 -94 -23 -123 -25 -133 -11 -7 11 -11 11 -15 2 -6 -15 -73 -18 -73 -3
0 6 -18 10 -40 10 -45 0 -44 0 -29 33 10 23 18 24 116 31 59 3 128 6 154 6 43
0 49 3 55 24 13 52 5 57 -88 62 -55 4 -88 1 -93 -5 -8 -14 -92 -14 -100 -1 -3
6 -37 10 -75 10 -38 0 -72 -4 -75 -10 -8 -13 -152 -13 -160 0 -3 5 -39 9 -80
8 -69 -1 -74 -2 -80 -25z"/>
</g>
</svg>
