<?xml version="1.0" standalone="no"?>
<!DOCTYPE svg PUBLIC "-//W3C//DTD SVG 20010904//EN"
 "http://www.w3.org/TR/2001/REC-SVG-20010904/DTD/svg10.dtd">
<svg version="1.0" xmlns="http://www.w3.org/2000/svg"
 width="101.000000pt" height="101.000000pt" viewBox="0 0 101.000000 101.000000"
 preserveAspectRatio="xMidYMid meet">
<metadata>
Created by potrace 1.16, written by Peter Selinger 2001-2019
</metadata>
<g transform="translate(0.000000,101.000000) scale(0.100000,-0.100000)"
fill="#000000" stroke="none">
<path d="M198 984 c-24 -7 -29 -50 -23 -174 3 -58 7 -121 8 -141 l1 -36 92 -1
c53 -1 96 2 99 8 8 12 52 13 59 1 8 -13 108 -12 123 1 14 11 209 4 262 -9 21
-5 23 -3 17 12 -12 33 -19 245 -8 258 6 7 10 27 10 44 l-1 32 -101 -4 c-56 -2
-136 -7 -179 -11 -49 -4 -82 -2 -90 4 -7 6 -53 11 -102 11 -50 0 -103 2 -120
4 -16 3 -38 3 -47 1z m232 -84 c0 -6 30 -10 70 -10 40 0 70 4 70 10 0 6 11 10
25 10 14 0 25 -5 25 -11 0 -8 19 -10 58 -7 57 4 57 4 57 -24 0 -25 -3 -28 -53
-34 -33 -4 -69 -2 -90 5 -23 7 -91 10 -177 9 -139 -3 -140 -3 -141 20 -2 20 3
22 42 22 24 0 44 5 44 10 0 6 16 10 35 10 19 0 35 -4 35 -10z m226 -132 c4 -5
21 -7 39 -4 30 6 33 4 37 -21 l4 -28 -71 -3 c-38 -1 -86 -2 -105 -2 -19 1 -91
2 -160 3 l-125 2 0 25 0 25 107 -3 c63 -1 109 2 113 8 8 13 153 11 161 -2z"/>
<path d="M184 592 c-16 -10 -26 -48 -20 -69 5 -14 17 -18 61 -18 30 0 55 3 55
8 0 4 34 7 75 7 43 0 75 -4 75 -10 0 -6 30 -10 70 -10 40 0 70 4 70 10 0 6 20
10 45 10 25 0 45 -4 45 -10 0 -6 34 -9 84 -8 80 2 85 3 91 26 10 40 -2 59 -43
66 -58 9 -150 7 -157 -4 -8 -13 -152 -13 -160 0 -7 12 -113 11 -121 -1 -7 -12
-51 -11 -59 1 -7 11 -94 13 -111 2z"/>
<path d="M49 423 c-16 -44 -4 -71 35 -79 19 -3 39 -3 44 0 6 3 63 9 129 12
l118 5 -50 -51 c-62 -63 -105 -91 -145 -92 -16 -1 -30 -2 -30 -2 0 -1 9 -19
20 -41 11 -22 20 -45 20 -52 0 -10 10 -12 38 -7 87 13 146 21 217 29 28 4 66
8 85 11 19 3 72 6 118 7 l83 2 26 -38 c14 -20 27 -37 28 -37 1 0 24 12 49 26
l47 26 -22 27 c-13 14 -59 60 -103 102 l-81 77 77 7 c50 5 89 3 109 -4 44 -15
65 -14 83 5 23 22 20 71 -3 84 -26 13 -501 14 -501 0 0 -5 -20 -10 -45 -10
-25 0 -45 5 -45 10 0 6 -55 10 -145 10 l-145 0 -11 -27z m586 -73 c16 -1 13
-5 -12 -17 -18 -9 -33 -20 -33 -24 0 -4 14 -17 31 -29 16 -12 28 -25 24 -28
-3 -3 -28 -5 -55 -3 -27 1 -55 -1 -62 -6 -7 -4 -38 -8 -68 -9 -30 0 -66 -4
-80 -9 -19 -6 -8 10 42 61 l67 69 63 -2 c35 -1 72 -2 83 -3z"/>
</g>
</svg>
