<?xml version="1.0" standalone="no"?>
<!DOCTYPE svg PUBLIC "-//W3C//DTD SVG 20010904//EN"
 "http://www.w3.org/TR/2001/REC-SVG-20010904/DTD/svg10.dtd">
<svg version="1.0" xmlns="http://www.w3.org/2000/svg"
 width="101.000000pt" height="101.000000pt" viewBox="0 0 101.000000 101.000000"
 preserveAspectRatio="xMidYMid meet">
<metadata>
Created by potrace 1.16, written by Peter Selinger 2001-2019
</metadata>
<g transform="translate(0.000000,101.000000) scale(0.100000,-0.100000)"
fill="#000000" stroke="none">
<path d="M781 984 c-24 -7 -62 -16 -84 -18 -22 -3 -45 -10 -51 -16 -14 -14
-62 -13 -85 2 -15 9 -26 9 -45 0 -31 -14 -40 -57 -32 -139 7 -63 7 -85 1 -208
-6 -130 -18 -208 -40 -261 -18 -44 -88 -119 -125 -134 -37 -15 -38 -25 -2 -44
16 -8 34 -22 41 -30 19 -23 25 -21 71 28 58 60 89 109 112 175 26 73 26 74 45
234 5 43 7 47 33 47 15 0 40 3 56 6 l29 5 -2 -203 c-3 -333 -3 -326 17 -331 9
-2 30 -2 46 0 27 4 30 9 31 41 1 21 2 46 3 57 1 11 0 112 -2 225 l-3 205 78 0
c71 0 78 2 83 21 12 49 1 68 -45 78 -29 6 -49 6 -61 -2 -10 -6 -74 -14 -143
-18 l-125 -7 2 84 1 84 55 -3 c30 -1 67 3 83 9 31 13 66 18 135 20 49 1 52 11
22 69 -22 44 -31 46 -99 24z"/>
<path d="M85 946 c-13 -9 -15 -19 -10 -37 5 -13 7 -47 6 -75 -1 -29 2 -55 8
-58 12 -8 13 -153 1 -161 -12 -7 -12 -153 0 -160 12 -7 13 -48 3 -59 -12 -12
-18 -174 -7 -185 6 -6 95 -4 101 3 3 2 -1 13 -8 24 -10 16 -10 26 -1 46 6 14
9 32 6 40 -4 9 2 14 18 15 13 0 39 2 58 3 34 3 35 2 32 -28 -3 -36 11 -43 68
-37 l35 5 3 173 c1 110 -1 176 -8 180 -13 8 -13 52 0 60 6 4 10 58 9 136 -1
114 -4 129 -18 125 -41 -12 -172 -18 -184 -8 -17 14 -92 13 -112 -2z m211
-164 l1 -87 -58 0 -58 0 2 85 2 85 55 2 55 1 1 -86z m-6 -214 c0 -22 5 -38 11
-38 8 0 10 -16 6 -50 -8 -67 -13 -73 -51 -65 -17 3 -40 6 -51 7 -18 0 -20 7
-20 92 l0 91 52 0 53 0 0 -37z"/>
</g>
</svg>
