<?xml version="1.0" standalone="no"?>
<!DOCTYPE svg PUBLIC "-//W3C//DTD SVG 20010904//EN"
 "http://www.w3.org/TR/2001/REC-SVG-20010904/DTD/svg10.dtd">
<svg version="1.0" xmlns="http://www.w3.org/2000/svg"
 width="101.000000pt" height="101.000000pt" viewBox="0 0 101.000000 101.000000"
 preserveAspectRatio="xMidYMid meet">
<metadata>
Created by potrace 1.16, written by Peter Selinger 2001-2019
</metadata>
<g transform="translate(0.000000,101.000000) scale(0.100000,-0.100000)"
fill="#000000" stroke="none">
<path d="M468 963 c-16 -4 -23 -22 -19 -47 1 -5 2 -79 2 -165 0 -223 -11 -332
-40 -396 l-19 -40 6 138 c4 99 2 137 -7 137 -6 0 -11 11 -11 25 0 14 5 25 10
25 6 0 10 30 10 70 0 40 -4 70 -10 70 -5 0 -10 16 -10 35 0 19 5 35 10 35 12
0 14 86 3 93 -5 3 -50 0 -101 -5 -66 -8 -100 -8 -115 0 -35 17 -85 13 -91 -6
-8 -31 -6 -91 4 -97 12 -8 12 -173 -1 -180 -12 -8 -12 -142 1 -150 13 -8 13
-52 0 -60 -7 -4 -10 -45 -8 -105 3 -108 5 -111 66 -102 32 4 38 17 34 73 -1
11 7 17 21 17 12 1 37 4 55 8 28 5 34 3 39 -15 5 -21 18 -26 61 -22 12 1 22
-1 22 -4 0 -15 -54 -75 -90 -100 -41 -28 -51 -45 -26 -45 7 0 29 -11 49 -24
l36 -25 34 42 c52 63 95 135 118 197 30 78 33 94 30 193 -1 56 2 87 8 87 6 0
11 11 11 25 0 26 8 29 76 25 18 -1 35 3 39 9 8 14 129 14 179 0 45 -12 60 0
51 40 -3 13 -7 73 -8 135 l-2 111 -105 -3 c-178 -5 -234 -5 -265 1 -16 3 -38
3 -47 0z m322 -123 c0 -19 3 -45 6 -58 6 -22 5 -23 -29 -17 -21 4 -37 3 -41
-4 -9 -14 -49 -14 -63 0 -6 6 -33 9 -60 8 l-48 -4 0 55 0 55 118 0 117 1 0
-36z m-495 -75 l0 -100 -57 -3 -57 -3 2 103 2 103 55 0 55 0 0 -100z m-1 -265
l-1 -95 -34 3 c-19 1 -44 3 -56 3 -22 1 -23 4 -20 93 l2 91 55 0 55 0 -1 -95z"/>
<path d="M589 634 c-5 -16 -7 -40 -3 -54 3 -14 6 -62 5 -107 -1 -46 3 -84 9
-88 14 -8 13 -68 -2 -83 -8 -8 -8 -15 1 -26 8 -9 10 -31 5 -64 -6 -46 -4 -51
20 -67 14 -9 36 -16 48 -16 13 1 66 3 119 4 110 3 122 9 151 75 19 42 17 62
-5 62 -6 0 -23 12 -39 27 -32 31 -35 30 -43 -17 -9 -52 -27 -65 -91 -64 -47 0
-60 4 -76 24 -14 18 -18 32 -13 55 3 16 6 40 7 53 0 18 17 33 77 68 42 24 97
52 124 62 26 9 47 19 47 22 0 3 -18 23 -40 45 l-40 39 -37 -30 c-21 -17 -58
-44 -83 -61 l-46 -31 3 31 c13 160 17 148 -54 162 -29 6 -34 4 -44 -21z"/>
</g>
</svg>
