<?xml version="1.0" standalone="no"?>
<!DOCTYPE svg PUBLIC "-//W3C//DTD SVG 20010904//EN"
 "http://www.w3.org/TR/2001/REC-SVG-20010904/DTD/svg10.dtd">
<svg version="1.0" xmlns="http://www.w3.org/2000/svg"
 width="101.000000pt" height="101.000000pt" viewBox="0 0 101.000000 101.000000"
 preserveAspectRatio="xMidYMid meet">
<metadata>
Created by potrace 1.16, written by Peter Selinger 2001-2019
</metadata>
<g transform="translate(0.000000,101.000000) scale(0.100000,-0.100000)"
fill="#000000" stroke="none">
<path d="M165 939 c-4 -17 -2 -43 5 -59 8 -18 10 -49 5 -82 -3 -29 -6 -93 -6
-142 0 -91 8 -110 40 -98 8 3 28 5 43 5 15 -1 42 -2 58 -2 25 -1 30 -5 30 -25
0 -13 5 -26 11 -28 8 -3 10 -41 4 -138 l-7 -135 -96 4 c-220 8 -204 9 -215
-22 -13 -40 -2 -74 28 -81 32 -8 195 5 195 15 0 14 68 10 74 -3 5 -11 7 -11
12 0 7 15 164 17 164 2 0 -5 18 -10 40 -10 22 0 40 5 40 10 0 13 128 12 200
-2 86 -16 149 -15 160 2 15 24 12 67 -7 85 -13 13 -26 15 -62 10 -46 -6 -223
-6 -229 0 -4 4 -4 93 0 235 l3 85 97 -1 c108 -1 119 6 99 60 -17 42 -25 154
-13 168 6 8 11 36 11 63 0 28 1 57 2 65 6 45 6 45 -151 48 -97 1 -150 -1 -150
-8 0 -6 -32 -10 -80 -10 -47 0 -80 4 -80 10 0 6 -18 10 -40 10 -22 0 -40 -4
-40 -10 0 -5 -25 -10 -55 -10 -30 0 -55 5 -55 10 0 24 -29 7 -35 -21z m341
-61 c5 -7 44 -8 123 -4 l116 7 0 -41 0 -41 -115 1 c-63 1 -133 1 -155 1 -22 0
-76 1 -120 2 l-80 2 3 33 c3 23 9 32 23 32 10 0 21 4 24 10 8 13 173 11 181
-2z m204 -146 c32 -7 35 -10 35 -44 l0 -37 -72 6 c-52 4 -73 3 -73 -6 0 -6
-11 -11 -25 -11 -14 0 -25 5 -25 10 0 6 -30 10 -70 10 -40 0 -70 -4 -70 -10 0
-5 -11 -10 -25 -10 -14 0 -25 5 -25 10 0 6 -18 10 -39 10 -36 0 -39 2 -43 33
l-3 32 148 -2 c83 -2 156 1 165 7 20 11 72 12 122 2z m-174 -176 c1 0 4 -73 6
-161 l4 -160 -47 0 -47 0 5 92 c4 67 3 93 -6 93 -7 0 -11 25 -11 74 l0 74 48
-6 c26 -2 48 -5 48 -6z"/>
<path d="M760 473 c-13 -32 -36 -80 -52 -106 -15 -26 -28 -50 -28 -52 0 -6 70
-35 84 -35 6 0 26 26 45 58 19 31 47 73 63 93 15 20 28 41 28 47 0 9 -88 52
-108 52 -4 0 -19 -26 -32 -57z"/>
<path d="M153 503 c-39 -19 -40 -25 -13 -63 11 -16 34 -58 51 -94 l31 -66 36
16 c21 9 43 18 50 21 17 7 15 16 -17 71 -52 88 -83 132 -95 131 -6 0 -26 -8
-43 -16z"/>
</g>
</svg>
