<?xml version="1.0" standalone="no"?>
<!DOCTYPE svg PUBLIC "-//W3C//DTD SVG 20010904//EN"
 "http://www.w3.org/TR/2001/REC-SVG-20010904/DTD/svg10.dtd">
<svg version="1.0" xmlns="http://www.w3.org/2000/svg"
 width="101.000000pt" height="101.000000pt" viewBox="0 0 101.000000 101.000000"
 preserveAspectRatio="xMidYMid meet">
<metadata>
Created by potrace 1.16, written by Peter Selinger 2001-2019
</metadata>
<g transform="translate(0.000000,101.000000) scale(0.100000,-0.100000)"
fill="#000000" stroke="none">
<path d="M96 958 c-14 -52 9 -96 43 -82 9 3 38 6 66 6 27 0 55 4 62 9 6 6 26
9 43 7 l31 -3 3 -113 3 -114 -43 7 c-25 3 -45 2 -49 -5 -8 -13 -52 -13 -60 0
-3 6 -40 10 -81 9 -67 -1 -75 -3 -79 -23 -3 -11 -1 -34 4 -51 5 -16 10 -24 10
-17 1 15 151 17 151 2 0 -6 30 -10 70 -10 40 0 70 4 70 10 0 6 20 10 45 10 25
0 45 -5 45 -10 0 -7 90 -10 265 -10 l264 1 7 35 c10 52 0 68 -39 59 -65 -14
-150 -17 -171 -6 -11 6 -45 10 -74 8 l-52 -3 6 33 c4 21 2 33 -5 33 -6 0 -11
11 -11 25 0 14 5 25 10 25 6 0 10 20 10 45 l0 45 40 0 c23 0 40 5 40 11 0 14
101 5 130 -11 34 -18 58 23 44 75 -5 18 -15 20 -120 22 -69 2 -114 -1 -114 -7
0 -6 -11 -10 -25 -10 -14 0 -25 5 -25 10 0 6 -30 10 -70 10 -40 0 -70 -4 -70
-10 0 -6 -33 -10 -80 -10 -47 0 -80 4 -80 10 0 6 -18 10 -40 10 -22 0 -40 -4
-40 -10 0 -5 -25 -10 -55 -10 -30 0 -55 5 -55 10 0 19 -18 10 -24 -12z m442
-177 l3 -107 -48 0 -48 1 0 105 0 105 45 2 45 2 3 -108z"/>
<path d="M703 798 l-40 -73 31 -17 c42 -23 41 -23 67 19 13 20 36 52 52 69
l28 33 -28 14 c-67 34 -68 34 -110 -45z"/>
<path d="M192 845 c-19 -8 -32 -18 -30 -22 2 -5 17 -35 33 -68 16 -33 30 -61
31 -63 1 -2 20 5 43 14 23 9 41 19 39 23 -37 80 -65 130 -73 130 -5 0 -25 -6
-43 -14z"/>
<path d="M190 525 c-6 -16 -6 -74 1 -160 8 -96 8 -144 0 -166 -7 -22 -7 -37 0
-50 5 -11 7 -28 4 -38 -7 -22 16 -30 63 -23 32 4 38 15 34 63 -2 21 13 22 334
18 l81 0 0 -30 c0 -16 3 -32 7 -36 7 -7 85 -7 92 0 5 5 5 8 5 212 0 83 1 166
2 185 2 31 -1 35 -28 41 -49 11 -205 10 -205 -1 0 -5 -20 -10 -45 -10 -25 0
-45 5 -45 10 0 6 -55 10 -145 10 l-145 0 -10 -25z m516 -101 c-1 -31 -2 -32
-60 -38 -39 -4 -64 -2 -73 6 -10 8 -17 8 -25 0 -15 -15 -75 -16 -83 -2 -4 6
-40 9 -88 8 l-82 -3 -1 30 0 30 206 0 206 0 0 -31z m-262 -116 c5 -10 7 -10
12 0 6 13 78 16 185 6 64 -6 66 -7 65 -35 l-1 -28 -80 0 c-135 -2 -289 -2
-310 0 -14 1 -20 9 -20 25 0 21 5 24 38 24 20 0 37 5 37 10 0 15 67 12 74 -2z"/>
</g>
</svg>
