<?xml version="1.0" standalone="no"?>
<!DOCTYPE svg PUBLIC "-//W3C//DTD SVG 20010904//EN"
 "http://www.w3.org/TR/2001/REC-SVG-20010904/DTD/svg10.dtd">
<svg version="1.0" xmlns="http://www.w3.org/2000/svg"
 width="101.000000pt" height="101.000000pt" viewBox="0 0 101.000000 101.000000"
 preserveAspectRatio="xMidYMid meet">
<metadata>
Created by potrace 1.16, written by Peter Selinger 2001-2019
</metadata>
<g transform="translate(0.000000,101.000000) scale(0.100000,-0.100000)"
fill="#000000" stroke="none">
<path d="M558 930 c-25 -52 -59 -101 -100 -145 -92 -99 -96 -100 -91 -7 2 42
6 89 9 103 4 16 0 32 -10 41 -13 14 -20 14 -53 2 -45 -16 -103 -18 -103 -4 0
6 -29 10 -68 10 l-68 0 -2 -29 c-1 -16 2 -32 8 -36 12 -7 12 -173 -1 -180 -12
-8 -12 -142 1 -150 13 -8 13 -52 0 -60 -7 -4 -10 -58 -8 -145 3 -153 2 -150
69 -142 36 4 37 4 34 47 -3 38 -1 43 18 44 12 0 36 2 52 3 27 3 30 0 27 -23
-3 -30 15 -39 65 -32 36 6 46 23 34 56 -5 12 -6 64 -3 115 3 65 1 92 -7 92 -7
0 -11 26 -11 75 0 41 3 75 8 75 4 0 18 -7 30 -16 13 -9 29 -13 37 -11 8 4 15
-4 19 -19 l6 -24 138 4 137 5 -25 -20 c-14 -11 -47 -34 -73 -51 l-48 -30 30
-19 c17 -10 31 -21 31 -23 0 -3 -47 -3 -105 -1 l-104 5 -7 -35 c-3 -19 -3 -50
0 -68 13 -69 15 -108 6 -131 -6 -16 -5 -35 3 -55 9 -24 9 -36 0 -50 -15 -23 3
-30 60 -23 36 4 38 6 32 32 -5 24 -3 28 17 29 13 0 55 3 93 6 39 3 85 3 103 0
30 -6 33 -9 27 -34 -7 -33 8 -40 68 -33 29 3 37 8 33 21 -12 43 -17 149 -7
155 11 7 14 136 5 169 -4 11 -14 18 -27 16 -12 0 -48 -1 -80 0 l-59 1 56 62
c30 34 67 84 81 110 l26 48 -43 2 c-24 1 -65 3 -91 4 -44 2 -82 14 -44 14 20
0 21 10 5 62 -15 50 -46 68 -83 48 -20 -11 -25 -19 -20 -39 3 -14 7 -37 10
-50 2 -14 10 -28 17 -33 7 -4 -19 -7 -59 -5 l-71 2 43 50 c23 28 60 78 82 112
l40 62 31 -47 c39 -60 133 -150 195 -186 26 -16 49 -27 50 -25 2 2 15 21 30
42 32 42 29 53 -13 62 -40 9 -139 74 -173 115 -40 46 -69 108 -62 129 6 21
-17 31 -75 31 -34 0 -36 -2 -72 -80z m-280 -184 l2 -98 -47 7 c-27 4 -49 8
-50 9 -1 1 -3 42 -5 91 l-4 90 51 0 50 0 3 -99z m0 -282 l3 -106 -23 6 c-13 3
-38 6 -55 6 l-33 0 3 94 2 95 45 4 c25 2 47 4 50 5 3 1 6 -46 8 -104z m444
-110 c38 -5 46 -10 46 -28 1 -11 4 -34 7 -51 10 -53 -3 -60 -112 -58 -157 3
-142 -4 -140 68 l2 62 41 -5 c23 -2 50 1 60 7 22 12 36 13 96 5z"/>
</g>
</svg>
