<?xml version="1.0" standalone="no"?>
<!DOCTYPE svg PUBLIC "-//W3C//DTD SVG 20010904//EN"
 "http://www.w3.org/TR/2001/REC-SVG-20010904/DTD/svg10.dtd">
<svg version="1.0" xmlns="http://www.w3.org/2000/svg"
 width="101.000000pt" height="101.000000pt" viewBox="0 0 101.000000 101.000000"
 preserveAspectRatio="xMidYMid meet">
<metadata>
Created by potrace 1.16, written by Peter Selinger 2001-2019
</metadata>
<g transform="translate(0.000000,101.000000) scale(0.100000,-0.100000)"
fill="#000000" stroke="none">
<path d="M405 960 c-13 -61 -3 -68 83 -64 l78 4 -3 -27 c-6 -68 -4 -67 -74
-64 l-64 2 0 -45 c0 -41 2 -46 27 -51 15 -4 32 -4 38 0 20 12 51 14 44 3 -4
-6 -9 -27 -11 -46 -6 -58 -20 -75 -56 -68 -101 20 -102 19 -99 -44 l1 -25 -11
23 c-9 17 -9 31 0 55 6 18 11 88 12 157 0 69 1 135 1 148 1 13 -1 26 -4 29 -6
5 -44 6 -138 3 -31 -1 -71 1 -87 5 -50 10 -72 -8 -72 -60 0 -25 5 -45 10 -45
6 0 10 -16 10 -35 0 -19 -4 -35 -10 -35 -6 0 -10 -30 -10 -70 0 -40 4 -70 10
-70 6 0 10 -11 10 -25 0 -14 -4 -25 -10 -25 -15 0 -13 -197 2 -202 8 -3 9 -28
2 -95 -11 -103 -10 -103 58 -95 33 4 36 6 25 23 -9 14 -9 26 0 50 7 17 10 36
7 44 -4 8 3 13 18 13 13 1 34 2 48 4 21 3 24 -1 26 -30 1 -18 5 -36 8 -40 8
-7 86 -6 93 2 3 2 0 21 -7 41 -7 21 -9 52 -5 73 3 20 8 58 9 85 1 26 6 50 9
54 15 15 205 21 312 10 28 -3 64 -1 81 5 22 8 53 8 105 1 41 -6 75 -9 77 -8 6
5 6 85 -1 91 -3 4 -14 1 -22 -6 -12 -10 -21 -10 -40 -2 -14 6 -31 9 -38 6 -10
-4 -12 9 -6 63 5 37 8 82 8 100 l1 32 -104 -2 -103 -2 8 30 c5 17 9 31 9 33 0
1 0 8 0 15 0 9 32 12 125 12 138 0 144 3 130 64 -6 27 -8 28 -70 30 -39 1 -65
-2 -65 -9 0 -6 -32 -10 -80 -10 -47 0 -80 4 -80 10 0 6 -18 10 -40 10 -22 0
-40 -4 -40 -10 0 -5 -25 -10 -55 -10 -30 0 -55 5 -55 10 0 23 -19 8 -25 -20z
m-130 -188 l0 -98 -51 0 -52 1 2 92 1 92 45 4 c25 2 47 4 50 5 3 1 5 -42 5
-96z m466 -77 c1 -16 0 -34 -1 -40 -1 -5 -2 -18 -3 -27 -2 -22 -57 -34 -85
-19 -11 6 -28 8 -38 4 -14 -5 -16 -2 -10 18 7 24 12 51 15 79 1 12 15 15 61
15 60 0 60 0 61 -30z m-463 -115 c9 -84 9 -146 1 -168 -8 -20 -14 -23 -37 -17
-15 3 -37 7 -49 7 -26 0 -34 28 -27 103 2 28 4 60 5 73 1 16 6 21 18 18 9 -3
23 -1 31 4 26 17 55 7 58 -20z"/>
<path d="M459 473 c-21 -5 -31 -41 -18 -64 5 -11 7 -76 4 -158 -5 -130 -4
-139 14 -144 10 -2 31 -2 45 0 25 5 31 19 28 64 -1 11 7 17 21 18 12 0 51 3
87 6 87 7 130 -1 128 -23 -4 -50 13 -65 66 -55 l26 5 -5 139 c-3 82 -1 147 4
158 16 29 3 62 -23 56 -31 -8 -329 -11 -346 -4 -8 4 -22 5 -31 2z m282 -79
c19 -4 27 -12 27 -27 1 -12 4 -37 8 -54 5 -29 3 -34 -21 -43 -15 -6 -61 -8
-103 -5 -135 9 -127 6 -124 45 1 19 3 45 3 58 1 16 6 21 18 18 9 -3 22 -2 30
3 15 10 121 13 162 5z"/>
</g>
</svg>
