<?xml version="1.0" standalone="no"?>
<!DOCTYPE svg PUBLIC "-//W3C//DTD SVG 20010904//EN"
 "http://www.w3.org/TR/2001/REC-SVG-20010904/DTD/svg10.dtd">
<svg version="1.0" xmlns="http://www.w3.org/2000/svg"
 width="101.000000pt" height="101.000000pt" viewBox="0 0 101.000000 101.000000"
 preserveAspectRatio="xMidYMid meet">
<metadata>
Created by potrace 1.16, written by Peter Selinger 2001-2019
</metadata>
<g transform="translate(0.000000,101.000000) scale(0.100000,-0.100000)"
fill="#000000" stroke="none">
<path d="M690 982 c-8 -3 -18 -10 -22 -16 -5 -6 -8 -7 -8 -1 0 6 -54 11 -138
12 l-138 3 -2 -30 c-1 -16 2 -31 8 -35 12 -7 12 -173 -1 -180 -12 -8 -12 -142
1 -150 13 -8 13 -52 0 -60 -13 -8 -12 -203 2 -225 8 -12 8 -41 2 -98 -11 -89
-8 -94 52 -85 32 5 30 0 34 98 0 11 -2 45 -4 76 -5 64 -10 60 91 60 42 1 52 4
56 20 12 44 -2 57 -56 58 -100 0 -97 -2 -95 47 2 32 6 43 15 39 7 -2 25 1 39
7 19 9 33 9 57 0 19 -7 33 -8 37 -2 3 5 11 5 19 1 7 -5 11 -13 7 -19 -3 -6 -2
-21 3 -34 27 -69 52 -161 45 -167 -59 -43 -141 -91 -166 -96 l-30 -7 42 -43
43 -44 46 31 c25 18 64 47 85 65 l40 33 35 -33 c45 -42 105 -87 117 -87 7 0
50 57 62 81 1 4 -21 18 -51 32 -29 15 -64 38 -77 52 l-23 25 26 47 c33 61 68
166 74 220 l4 42 -28 -10 c-27 -9 -138 -7 -225 4 -25 4 -38 1 -38 -6 0 -8 -19
-11 -58 -10 -104 4 -98 1 -94 43 3 30 9 39 26 42 12 3 31 1 42 -3 27 -11 86
-10 103 0 10 7 15 37 18 113 l3 103 69 1 69 1 4 -66 3 -66 -33 3 c-59 7 -99
-6 -106 -34 -4 -14 -4 -34 -1 -44 5 -17 17 -18 125 -17 120 2 142 9 123 40 -4
6 -6 68 -6 138 0 103 -2 129 -14 133 -8 4 -19 3 -24 0 -12 -7 -152 -9 -165 -2
-5 3 -16 3 -24 0z m-130 -118 c0 -13 5 -24 11 -24 6 0 9 -15 7 -36 -3 -36 -3
-36 -53 -38 l-50 -1 0 65 0 65 43 -4 c37 -3 42 -6 42 -27z m246 -377 c-17 -58
-42 -102 -49 -90 -4 6 -9 26 -12 44 -2 19 -7 45 -10 59 -4 24 -2 26 40 28 l44
2 -13 -43z"/>
<path d="M301 961 c-8 -5 -62 -7 -121 -5 l-107 5 -1 -100 c-1 -56 3 -103 8
-106 12 -8 13 -52 1 -59 -13 -8 -12 -114 0 -122 12 -7 2 -304 -11 -340 -13
-33 4 -48 51 -47 45 2 62 17 53 45 -16 52 -14 66 8 66 13 1 34 2 48 4 21 3 25
-1 25 -24 1 -15 3 -30 6 -32 6 -7 36 -10 67 -8 l24 2 -7 140 c-6 102 -4 140 4
140 7 0 11 20 11 50 0 28 -4 50 -10 50 -5 0 -10 11 -10 25 0 14 5 25 10 25 6
0 10 30 10 70 0 40 -4 70 -10 70 -5 0 -10 11 -10 25 0 14 5 25 10 25 6 0 10
20 10 45 0 34 -5 47 -19 55 -23 12 -22 12 -40 1z m-46 -196 l0 -110 -25 3
c-14 2 -36 3 -48 4 -19 0 -23 4 -18 22 3 11 6 59 6 106 l0 85 43 0 42 0 0
-110z m3 -205 c15 -146 7 -197 -31 -185 -12 4 -32 7 -44 7 -26 0 -34 28 -27
103 2 28 4 60 5 73 1 16 6 21 18 18 9 -3 23 -1 31 4 24 16 45 7 48 -20z"/>
</g>
</svg>
