<?xml version="1.0" standalone="no"?>
<!DOCTYPE svg PUBLIC "-//W3C//DTD SVG 20010904//EN"
 "http://www.w3.org/TR/2001/REC-SVG-20010904/DTD/svg10.dtd">
<svg version="1.0" xmlns="http://www.w3.org/2000/svg"
 width="101.000000pt" height="101.000000pt" viewBox="0 0 101.000000 101.000000"
 preserveAspectRatio="xMidYMid meet">
<metadata>
Created by potrace 1.16, written by Peter Selinger 2001-2019
</metadata>
<g transform="translate(0.000000,101.000000) scale(0.100000,-0.100000)"
fill="#000000" stroke="none">
<path d="M624 979 c-3 -6 -17 -9 -30 -6 -28 5 -29 1 -9 -46 8 -20 15 -38 15
-40 0 -2 -49 -2 -110 -1 -80 2 -111 0 -112 -9 -1 -7 -2 -47 -2 -89 -1 -76 0
-78 26 -83 17 -4 28 -15 32 -30 7 -28 64 -44 105 -29 32 11 223 11 272 0 28
-6 39 -4 53 9 10 10 15 26 13 36 -4 14 0 19 16 19 36 0 42 12 45 80 4 94 3 95
-128 95 -81 0 -110 3 -111 13 -1 6 -2 15 -3 20 -1 4 -6 22 -10 40 -6 25 -13
32 -31 32 -13 0 -27 -5 -31 -11z m10 -178 c8 -12 114 -13 121 -1 7 12 55 13
70 2 12 -8 14 -63 2 -55 -4 2 -13 0 -20 -5 -7 -5 -78 -13 -159 -17 -132 -6
-149 -5 -164 10 -10 9 -19 27 -20 39 -2 19 2 21 48 17 28 -2 55 2 61 8 13 13
54 15 61 2z"/>
<path d="M75 894 c-17 -17 -20 -50 -5 -59 12 -7 12 -173 -1 -180 -12 -8 -12
-142 1 -150 13 -8 13 -52 0 -60 -7 -4 -9 -57 -8 -140 3 -146 3 -147 65 -138
26 4 30 9 31 36 3 72 4 75 26 75 11 1 32 2 46 4 23 3 25 0 22 -29 -2 -35 3
-38 64 -34 30 2 31 1 32 -44 0 -26 3 -49 5 -52 7 -7 43 -6 87 2 62 12 422 5
450 -8 21 -10 38 4 41 33 6 62 7 61 -98 60 -54 -1 -127 -1 -163 -1 -36 0 -108
0 -160 0 -159 0 -153 -3 -167 61 -14 68 -16 197 -3 205 12 7 11 113 -1 121
-12 7 -11 51 1 59 6 4 11 43 10 88 0 45 1 98 3 117 l2 35 -78 -3 c-43 -2 -84
1 -90 6 -19 16 -95 13 -112 -4z m181 -167 l2 -92 -49 3 c-55 4 -54 1 -43 110
l7 61 41 4 c22 2 41 4 41 5 0 1 1 -40 1 -91z m2 -197 c15 -146 7 -197 -31
-185 -12 4 -32 7 -44 7 -26 0 -34 28 -27 103 2 28 4 60 5 73 1 16 6 21 18 18
9 -3 23 -1 31 4 24 16 45 7 48 -20z"/>
<path d="M433 612 c-9 -5 -11 -22 -7 -53 9 -66 10 -229 2 -267 l-8 -32 48 6
c96 11 180 13 284 6 l106 -7 5 30 c2 16 1 40 -4 52 -16 43 -13 181 5 224 18
43 -61 64 -123 33 -22 -11 -44 -14 -69 -9 -20 4 -62 9 -92 11 -30 2 -73 7 -95
10 -22 2 -46 1 -52 -4z m308 -78 c21 -4 26 -11 26 -34 0 -25 -5 -31 -31 -35
-17 -3 -65 -3 -106 0 -41 3 -84 6 -96 6 -16 1 -21 8 -21 30 0 22 4 28 16 24 9
-2 22 -1 30 4 15 10 142 13 182 5z m0 -120 c21 -4 25 -11 26 -39 1 -31 -2 -35
-30 -40 -18 -3 -66 -3 -107 0 -41 3 -85 6 -96 6 -18 1 -22 7 -21 35 1 26 5 33
16 29 9 -2 22 -1 30 4 15 10 142 13 182 5z"/>
</g>
</svg>
