<?xml version="1.0" standalone="no"?>
<!DOCTYPE svg PUBLIC "-//W3C//DTD SVG 20010904//EN"
 "http://www.w3.org/TR/2001/REC-SVG-20010904/DTD/svg10.dtd">
<svg version="1.0" xmlns="http://www.w3.org/2000/svg"
 width="101.000000pt" height="101.000000pt" viewBox="0 0 101.000000 101.000000"
 preserveAspectRatio="xMidYMid meet">
<metadata>
Created by potrace 1.16, written by Peter Selinger 2001-2019
</metadata>
<g transform="translate(0.000000,101.000000) scale(0.100000,-0.100000)"
fill="#000000" stroke="none">
<path d="M368 993 c-22 -6 -22 -9 -23 -155 l0 -117 27 -6 c15 -4 33 -3 39 1
25 15 -51 -83 -104 -134 l-55 -54 -4 36 c-2 20 0 43 5 51 5 9 5 29 2 45 -7 33
-46 50 -73 33 -10 -6 -36 -6 -66 -1 -72 11 -81 6 -81 -46 -1 -49 8 -56 73 -56
l32 0 0 -55 c0 -30 5 -55 10 -55 6 0 10 -16 10 -35 0 -20 -5 -35 -11 -35 -8 0
-10 -18 -6 -59 l6 -58 -64 -44 c-36 -24 -65 -46 -65 -50 0 -3 16 -20 35 -39
l34 -33 50 46 c28 26 56 47 63 47 7 0 35 -12 62 -26 55 -29 157 -66 164 -60 2
3 15 1 28 -4 16 -6 33 -6 49 2 19 8 31 7 59 -6 27 -13 41 -14 56 -6 12 7 69 9
158 5 l139 -5 19 47 c11 27 20 51 22 55 6 12 -95 0 -117 -13 -16 -11 -27 -11
-52 -2 -25 10 -38 9 -70 -4 -26 -10 -48 -13 -66 -7 -16 4 -55 9 -88 10 -51 2
-83 6 -128 13 -5 0 -2 8 7 16 8 9 13 22 10 29 -4 9 3 14 18 15 47 3 227 2 345
-1 128 -4 137 -1 127 39 -5 17 -16 19 -107 20 -142 2 -142 2 -143 28 -1 17 4
23 20 24 75 5 96 5 137 -2 50 -8 63 1 53 41 -5 17 -15 19 -87 20 -116 1 -123
2 -124 22 -2 20 4 21 124 22 86 1 97 7 86 47 -5 18 -10 20 -52 13 -41 -6 -65
-6 -136 -1 -12 1 -21 9 -22 18 -1 17 12 18 167 22 30 1 58 7 62 13 9 13 -1 48
-16 58 -14 10 -70 10 -79 1 -11 -10 -127 -9 -128 2 0 6 -2 20 -5 33 -3 15 0
21 7 16 6 -3 49 -3 96 1 81 7 85 8 79 28 -13 48 -18 137 -8 149 5 7 10 31 10
53 l1 41 -47 -3 c-222 -13 -274 -14 -285 -5 -7 6 -35 11 -62 11 -28 0 -61 2
-75 5 -14 2 -33 2 -42 -1z m232 -74 c0 -9 27 -10 93 -6 68 4 94 2 94 -6 0 -15
-63 -19 -265 -14 -84 2 -118 17 -37 17 25 0 45 5 45 10 0 6 16 10 35 10 20 0
35 -5 35 -11z m187 -116 c0 -10 -25 -11 -104 -6 -75 4 -103 3 -103 -5 0 -7
-11 -12 -25 -12 -14 0 -25 5 -25 10 0 6 -18 10 -39 10 -22 0 -42 3 -44 8 -3 4
72 7 167 7 130 0 173 -3 173 -12z m-194 -112 c9 -16 17 -31 17 -33 0 -1 -29
-3 -65 -3 -63 0 -65 1 -45 17 11 9 20 21 20 26 0 10 18 18 45 21 6 0 18 -12
28 -28z m13 -120 c0 -15 -10 -20 -48 -25 -27 -4 -56 -2 -67 4 -11 5 -27 7 -35
4 -10 -4 -16 -1 -16 9 0 16 25 21 125 25 34 2 41 -1 41 -17z m-318 -84 l22
-21 29 28 29 28 2 -24 c7 -111 3 -239 -7 -249 -14 -14 -57 1 -98 33 -29 22
-46 118 -25 143 7 8 10 32 8 54 -4 42 1 43 40 8z m304 3 c10 0 16 -7 15 -19
-1 -15 -12 -20 -49 -25 -27 -4 -56 -2 -67 4 -11 5 -26 8 -33 5 -9 -4 -14 2
-15 15 -1 15 3 20 15 16 9 -3 24 -1 32 5 8 5 31 7 50 4 19 -2 43 -5 52 -5z m4
-100 c7 0 11 -11 10 -24 -1 -21 -8 -25 -43 -31 -24 -3 -51 -1 -62 4 -11 6 -26
9 -33 6 -8 -3 -14 4 -14 20 -2 20 2 24 15 21 9 -3 23 -1 31 5 8 5 31 7 50 4
19 -2 40 -5 46 -5z"/>
<path d="M130 963 c-19 -8 -37 -16 -38 -18 -2 -2 7 -23 21 -47 13 -24 33 -64
42 -90 10 -27 24 -48 32 -48 11 0 69 25 81 35 6 5 -88 185 -96 184 -4 0 -23
-7 -42 -16z"/>
</g>
</svg>
