<?xml version="1.0" standalone="no"?>
<!DOCTYPE svg PUBLIC "-//W3C//DTD SVG 20010904//EN"
 "http://www.w3.org/TR/2001/REC-SVG-20010904/DTD/svg10.dtd">
<svg version="1.0" xmlns="http://www.w3.org/2000/svg"
 width="101.000000pt" height="101.000000pt" viewBox="0 0 101.000000 101.000000"
 preserveAspectRatio="xMidYMid meet">
<metadata>
Created by potrace 1.16, written by Peter Selinger 2001-2019
</metadata>
<g transform="translate(0.000000,101.000000) scale(0.100000,-0.100000)"
fill="#000000" stroke="none">
<path d="M448 992 c-10 -2 -18 -7 -18 -11 0 -16 34 -106 41 -111 12 -9 -86 -4
-99 4 -7 4 -21 2 -32 -4 -17 -9 -20 -8 -20 11 0 21 -3 21 -89 14 -59 -5 -91
-3 -95 4 -4 6 -22 10 -40 9 l-33 -1 -2 -123 c-1 -74 3 -125 9 -129 13 -8 13
-52 0 -60 -13 -8 -12 -206 2 -222 10 -13 5 -115 -8 -169 -6 -25 15 -34 64 -26
32 4 32 5 28 51 l-4 47 37 1 c35 2 38 0 38 -28 0 -16 3 -32 7 -36 7 -7 75 -8
80 -1 2 1 -2 75 -7 162 -7 113 -7 164 1 177 13 20 14 117 1 125 -12 7 -11 51
1 59 6 3 10 21 11 38 0 18 3 26 6 20 6 -17 324 -8 335 10 20 32 -9 84 -41 72
-9 -4 -36 -8 -60 -9 -37 -2 -41 -1 -27 10 18 12 17 34 -4 92 -12 33 -24 36
-82 24z m-208 -234 c0 -35 -3 -80 -6 -100 -6 -37 -7 -37 -48 -35 l-41 3 -3 67
c-2 42 1 67 8 67 5 0 10 11 10 24 0 18 7 26 23 29 57 11 57 11 57 -55z m-14
-234 c-3 -9 -1 -24 4 -34 6 -10 7 -45 4 -79 l-7 -60 -37 2 -38 1 -6 59 c-3 33
-1 67 4 77 5 10 8 25 5 32 -4 10 6 14 36 15 33 2 40 -1 35 -13z"/>
<path d="M711 959 c-6 -17 -8 -35 -6 -39 3 -5 1 -11 -4 -14 -5 -3 -9 -22 -9
-41 0 -20 -4 -41 -9 -48 -5 -6 -10 -21 -10 -32 -1 -19 -48 -135 -55 -135 -2 0
-1 25 0 55 4 50 2 55 -20 60 -33 8 -225 1 -235 -8 -4 -5 -8 -53 -9 -107 -1
-91 1 -99 19 -104 11 -3 28 -1 38 4 9 6 60 8 113 6 96 -3 101 -1 96 34 -1 12
1 12 11 3 7 -7 13 -25 15 -40 5 -58 13 -90 37 -163 l26 -75 -42 -43 c-52 -53
-132 -106 -148 -97 -7 5 -8 20 -5 39 4 17 8 42 9 56 1 17 8 25 22 26 79 2 110
26 98 74 -6 22 -2 22 -98 5 l-30 -5 30 25 c17 14 44 30 61 35 33 11 47 42 36
82 -4 17 -10 19 -36 12 -35 -9 -169 -9 -232 0 -36 4 -43 2 -47 -14 -11 -43 10
-69 48 -60 6 2 21 4 35 6 14 2 39 6 56 10 46 9 52 -12 10 -33 -35 -16 -41 -27
-38 -66 2 -23 -23 -32 -53 -19 -12 6 -33 8 -44 5 -19 -5 -21 -11 -17 -47 2
-22 5 -45 5 -49 1 -5 11 -5 24 -1 12 4 32 8 44 10 12 1 26 5 31 8 5 3 9 -11 8
-32 l-1 -37 -46 1 -45 1 20 -52 c19 -49 23 -53 51 -51 50 4 104 26 107 44 2
13 11 8 40 -21 l37 -37 59 49 c33 27 69 62 80 76 l22 27 27 -33 c35 -44 92
-99 101 -99 8 1 82 68 82 75 0 2 -14 12 -32 21 -17 9 -52 36 -78 60 l-47 44
24 68 c14 37 26 76 28 87 5 27 15 93 22 135 2 19 6 50 6 68 2 26 6 32 24 32
40 0 69 53 45 85 -4 6 -47 11 -96 12 -48 1 -90 4 -92 6 -6 5 35 120 46 131 22
22 4 35 -66 50 -29 6 -33 4 -43 -25z m82 -314 c-2 -75 -9 -148 -17 -180 -2
-11 -5 -29 -6 -40 0 -17 -2 -18 -10 -4 -5 9 -12 31 -15 49 -3 19 -11 40 -17
47 -8 10 -8 20 0 37 13 29 5 66 -14 66 -18 0 -18 -1 6 52 17 38 24 45 47 44
l28 -1 -2 -70z m-247 5 c-1 -34 -2 -35 -36 -32 -19 1 -45 3 -56 3 -18 1 -22 7
-21 33 1 31 1 31 57 31 l57 0 -1 -35z"/>
</g>
</svg>
