<?xml version="1.0" standalone="no"?>
<!DOCTYPE svg PUBLIC "-//W3C//DTD SVG 20010904//EN"
 "http://www.w3.org/TR/2001/REC-SVG-20010904/DTD/svg10.dtd">
<svg version="1.0" xmlns="http://www.w3.org/2000/svg"
 width="101.000000pt" height="101.000000pt" viewBox="0 0 101.000000 101.000000"
 preserveAspectRatio="xMidYMid meet">
<metadata>
Created by potrace 1.16, written by Peter Selinger 2001-2019
</metadata>
<g transform="translate(0.000000,101.000000) scale(0.100000,-0.100000)"
fill="#000000" stroke="none">
<path d="M688 958 c-22 -48 -25 -51 -64 -52 -24 -1 -41 4 -41 10 0 6 -10 28
-23 49 -21 34 -26 37 -58 31 -50 -8 -60 -21 -35 -48 41 -47 40 -49 -36 -42
-69 7 -71 6 -80 -20 -20 -51 -10 -56 114 -52 101 2 113 1 112 -14 -1 -15 -12
-16 -92 -12 -98 5 -123 -6 -110 -47 8 -26 43 -33 130 -25 70 6 74 6 72 -14 -1
-19 -6 -20 -82 -17 -44 2 -88 6 -97 10 -24 10 -58 -12 -58 -38 0 -35 12 -45
50 -40 83 10 178 13 216 8 38 -5 40 -8 43 -43 7 -106 9 -97 -29 -94 -19 1 -44
3 -55 3 -12 1 -21 9 -22 18 -1 13 8 17 39 18 51 2 56 8 36 41 -20 33 -68 37
-137 14 -34 -11 -51 -13 -73 -4 -32 12 -71 5 -63 -12 3 -6 8 -18 11 -28 8 -21
33 -27 82 -18 36 6 40 5 39 -12 -1 -21 -38 -34 -64 -23 -10 4 -32 9 -50 10
-24 3 -32 -1 -36 -17 -11 -41 4 -53 63 -49 24 1 24 0 -10 -30 -75 -66 -73 -69
-65 90 5 101 4 141 -4 141 -7 0 -11 27 -11 75 0 41 4 75 9 75 9 0 23 94 15
113 -7 19 -242 17 -254 -3 -13 -19 -13 -47 0 -55 12 -7 12 -173 -1 -180 -12
-8 -12 -142 1 -150 13 -8 13 -52 -1 -61 -11 -7 -7 -269 5 -281 7 -8 64 -8 71
-1 3 3 7 23 8 45 1 38 2 39 39 40 30 2 37 -2 36 -15 -4 -50 13 -65 66 -55 25
5 25 7 21 75 -3 60 -2 68 10 58 8 -7 22 -10 30 -6 9 3 15 0 15 -11 0 -12 7
-14 29 -10 l30 6 -15 -41 c-8 -22 -14 -42 -14 -43 0 -10 46 -12 66 -3 17 8 28
8 35 1 26 -26 -34 -73 -70 -54 -10 6 -27 8 -38 5 -20 -5 -20 -7 -6 -44 9 -21
24 -40 34 -43 26 -7 109 26 130 52 l17 21 32 -26 c34 -30 29 -32 107 40 l33
30 45 -46 c83 -85 129 -81 161 14 16 49 16 52 -2 65 -11 7 -27 20 -37 29 -23
19 -24 17 -32 -26 -3 -19 -8 -36 -9 -38 -6 -5 -66 49 -66 60 0 6 20 39 45 75
26 36 45 67 43 68 -8 7 -68 35 -75 35 -4 0 -16 -20 -26 -45 -19 -46 -36 -58
-38 -27 -1 9 -2 32 -4 50 -2 25 1 32 11 28 8 -3 24 -1 37 5 15 7 42 7 82 1 33
-6 62 -8 64 -6 7 6 5 63 -2 70 -4 4 -14 1 -22 -6 -12 -10 -21 -10 -40 -2 -14
6 -33 9 -42 6 -10 -2 -3 3 15 12 17 10 32 21 32 25 0 5 -14 24 -31 43 l-30 35
-35 -16 c-40 -19 -41 -24 -13 -49 11 -10 25 -26 30 -36 8 -15 4 -17 -30 -15
l-40 1 2 63 c1 46 6 64 17 68 20 6 131 -1 151 -9 19 -8 30 21 22 54 -6 23 -4
23 -76 9 -40 -8 -61 -9 -69 -1 -7 6 -36 9 -64 9 -41 -2 -50 1 -47 13 3 12 24
15 104 16 75 1 103 4 110 15 11 17 11 21 0 38 -7 12 -34 15 -113 15 -85 1
-104 4 -104 16 0 12 17 15 91 15 49 0 96 -4 103 -8 30 -20 69 16 57 54 -8 24
-42 33 -111 27 l-55 -5 32 33 c18 19 30 36 27 40 -3 3 -27 12 -52 19 l-45 14
-23 -51z m-453 -218 l0 -109 -43 2 -43 1 6 38 c5 25 3 38 -4 38 -6 0 -11 11
-11 25 0 14 5 25 10 25 6 0 10 18 10 39 0 39 1 40 38 44 20 2 37 4 37 5 0 1 0
-47 0 -108z m4 -203 c1 -12 3 -47 6 -77 2 -30 2 -70 -1 -87 -5 -31 -6 -32 -49
-31 -42 2 -45 5 -50 33 -2 16 -2 55 0 85 3 30 5 64 6 75 1 17 9 21 44 23 38 1
43 -1 44 -21z m326 -97 c-3 -5 -10 -10 -16 -10 -5 0 -9 5 -9 10 0 6 7 10 16
10 8 0 12 -4 9 -10z m102 -20 l0 -28 -39 25 c-21 14 -38 26 -38 27 0 1 17 2
38 3 36 2 39 0 39 -27z m-190 -19 c2 -38 1 -39 -31 -38 l-34 1 32 38 c17 21
31 38 31 38 1 0 1 -18 2 -39z m144 -48 c23 -21 27 -22 39 -8 12 15 14 15 22 1
5 -9 11 -29 13 -45 3 -25 -4 -37 -35 -65 -21 -19 -48 -40 -61 -46 -19 -11 -21
-10 -16 3 3 9 9 31 12 51 l7 35 -60 -4 c-54 -3 -59 -2 -55 15 4 16 13 18 61
14 59 -4 73 4 65 37 -5 18 -19 24 -55 21 -13 -1 -18 6 -18 24 0 26 0 26 28 9
15 -10 39 -28 53 -42z"/>
</g>
</svg>
