<?xml version="1.0" standalone="no"?>
<!DOCTYPE svg PUBLIC "-//W3C//DTD SVG 20010904//EN"
 "http://www.w3.org/TR/2001/REC-SVG-20010904/DTD/svg10.dtd">
<svg version="1.0" xmlns="http://www.w3.org/2000/svg"
 width="101.000000pt" height="101.000000pt" viewBox="0 0 101.000000 101.000000"
 preserveAspectRatio="xMidYMid meet">
<metadata>
Created by potrace 1.16, written by Peter Selinger 2001-2019
</metadata>
<g transform="translate(0.000000,101.000000) scale(0.100000,-0.100000)"
fill="#000000" stroke="none">
<path d="M219 984 c-15 -4 -17 -26 -16 -185 l1 -181 47 4 47 3 -30 -37 c-42
-54 -104 -104 -176 -145 -35 -20 -60 -38 -55 -42 4 -3 22 -18 39 -34 l30 -27
35 25 34 26 5 -68 c3 -37 1 -74 -4 -80 -13 -20 2 -61 25 -68 27 -9 109 3 109
16 0 14 67 11 74 -3 5 -11 7 -11 12 0 6 13 93 14 219 3 52 -4 70 -10 71 -21 1
-8 5 -30 9 -48 7 -32 9 -33 49 -29 62 7 113 32 130 65 17 32 17 33 21 152 2
47 6 124 8 172 6 86 5 88 -18 94 -12 3 -36 -1 -53 -10 -34 -18 -157 -22 -167
-6 -7 12 -113 11 -121 -1 -7 -12 -51 -11 -59 1 -3 6 -27 10 -53 10 -42 1 -45
2 -28 15 10 7 15 18 11 24 -3 7 3 11 17 12 184 8 268 10 346 7 l63 -3 -7 78
c-5 54 -3 77 5 77 6 0 11 17 11 40 0 22 -5 40 -11 40 -7 0 -10 21 -7 60 l3 59
-145 0 c-80 0 -173 -1 -207 0 -35 0 -91 0 -125 -1 -35 0 -76 2 -93 5 -16 3
-37 3 -46 1z m366 -85 c4 -5 37 -9 74 -9 68 0 69 0 73 -29 l4 -30 -66 6 c-45
4 -70 2 -74 -6 -9 -14 -53 -15 -61 -1 -4 7 -48 10 -119 8 l-112 -3 0 30 c1 30
2 30 48 28 26 -2 49 1 53 7 7 12 173 12 180 -1z m55 -141 l95 2 0 -28 0 -27
-75 2 c-41 1 -79 -2 -85 -6 -15 -13 -146 -13 -161 0 -8 6 -35 9 -61 7 -45 -3
-48 -2 -49 22 -1 25 0 25 72 22 42 -3 80 1 91 7 10 6 31 8 48 4 17 -3 73 -6
125 -5z m156 -266 c18 -12 17 -142 -2 -180 -9 -18 -14 -44 -12 -57 7 -36 -5
-47 -55 -49 -25 -1 -43 2 -41 6 3 5 3 22 -1 38 l-6 29 -122 -1 c-67 0 -137 1
-156 1 l-34 1 66 50 67 50 77 -40 c43 -21 90 -47 104 -56 26 -17 27 -17 57 17
17 19 32 37 32 40 0 8 -193 89 -212 89 -7 0 -1 11 14 25 15 14 36 25 48 25 11
0 20 5 20 10 0 12 139 14 156 2z m-326 -22 c-19 -36 -124 -106 -172 -115 -19
-4 -20 0 -15 35 4 33 2 40 -15 46 -20 6 -20 6 1 27 17 19 32 22 116 24 90 2
95 1 85 -17z m-144 -162 l28 -23 -39 -6 c-22 -4 -41 -6 -42 -5 -5 4 11 56 17
56 4 0 20 -10 36 -22z"/>
</g>
</svg>
