<?xml version="1.0" standalone="no"?>
<!DOCTYPE svg PUBLIC "-//W3C//DTD SVG 20010904//EN"
 "http://www.w3.org/TR/2001/REC-SVG-20010904/DTD/svg10.dtd">
<svg version="1.0" xmlns="http://www.w3.org/2000/svg"
 width="101.000000pt" height="101.000000pt" viewBox="0 0 101.000000 101.000000"
 preserveAspectRatio="xMidYMid meet">
<metadata>
Created by potrace 1.16, written by Peter Selinger 2001-2019
</metadata>
<g transform="translate(0.000000,101.000000) scale(0.100000,-0.100000)"
fill="#000000" stroke="none">
<path d="M587 947 l-28 -62 -78 0 c-58 0 -74 3 -63 11 18 13 7 36 -37 78 -30
28 -32 29 -71 16 -22 -7 -40 -17 -40 -22 0 -5 12 -25 26 -44 15 -19 25 -37 22
-39 -3 -3 -51 -6 -106 -8 -96 -2 -108 -6 -102 -32 5 -25 2 -264 -4 -273 -3 -6
-4 -17 0 -25 4 -12 23 -14 97 -11 106 4 129 4 448 1 l237 -2 1 82 c1 51 -2 83
-9 83 -5 0 -10 16 -10 35 0 19 5 35 10 35 6 0 10 25 10 55 l0 56 -65 -7 c-43
-4 -69 -3 -78 5 -8 6 -35 10 -62 8 l-48 -3 46 41 c26 23 47 44 47 46 0 5 -38
18 -100 34 -10 3 -24 -15 -43 -58z m-140 -242 l3 -93 -31 -6 c-50 -10 -159 -7
-159 4 0 6 -13 10 -30 10 l-29 0 2 88 2 87 120 2 120 1 2 -93z m339 0 l2 -92
-82 -7 c-44 -3 -102 -6 -128 -6 -47 0 -48 0 -48 33 0 17 3 61 6 97 l7 65 121
1 121 1 1 -92z"/>
<path d="M271 760 c-10 -6 -9 -20 5 -64 17 -52 27 -63 59 -56 6 1 18 4 29 6
30 6 30 10 7 68 -21 50 -25 54 -55 54 -18 0 -39 -3 -45 -8z"/>
<path d="M611 713 c-28 -51 -36 -72 -28 -74 1 0 21 -2 44 -5 42 -5 42 -5 72
48 17 29 31 56 31 59 0 5 -68 29 -83 29 -3 0 -19 -26 -36 -57z"/>
<path d="M192 483 c-11 -20 -15 -321 -6 -359 6 -25 30 -34 68 -27 21 4 25 9
20 28 -7 27 -11 26 146 26 280 -1 282 -1 277 -15 -9 -24 11 -40 48 -39 20 1
39 3 42 6 9 9 9 374 0 383 -4 5 -138 10 -297 12 -276 4 -288 4 -298 -15z m510
-95 c4 -23 0 -28 -21 -32 -45 -9 -115 -5 -129 6 -9 8 -16 8 -24 0 -15 -15 -75
-16 -83 -2 -4 6 -40 9 -88 8 -81 -3 -82 -3 -83 22 l-1 25 213 0 212 0 4 -27z
m-278 -100 c5 -10 7 -10 12 0 6 13 64 15 190 6 l80 -7 0 -33 -1 -33 -90 -1
c-372 -2 -340 -4 -340 31 0 27 3 29 38 29 20 0 37 5 37 10 0 15 67 12 74 -2z"/>
</g>
</svg>
