<?xml version="1.0" standalone="no"?>
<!DOCTYPE svg PUBLIC "-//W3C//DTD SVG 20010904//EN"
 "http://www.w3.org/TR/2001/REC-SVG-20010904/DTD/svg10.dtd">
<svg version="1.0" xmlns="http://www.w3.org/2000/svg"
 width="101.000000pt" height="101.000000pt" viewBox="0 0 101.000000 101.000000"
 preserveAspectRatio="xMidYMid meet">
<metadata>
Created by potrace 1.16, written by Peter Selinger 2001-2019
</metadata>
<g transform="translate(0.000000,101.000000) scale(0.100000,-0.100000)"
fill="#000000" stroke="none">
<path d="M200 1004 c-12 -3 -14 -18 -12 -64 3 -39 0 -60 -7 -60 -6 0 -11 -18
-11 -40 0 -23 5 -40 11 -40 8 0 10 -17 7 -49 -4 -43 -2 -50 15 -55 28 -7 147
5 147 15 0 5 11 9 25 9 14 0 25 -4 25 -10 0 -6 30 -10 70 -10 40 0 70 4 70 10
0 6 11 10 25 10 14 0 25 -5 25 -11 0 -9 23 -10 80 -5 46 4 88 2 98 -3 10 -5
22 -7 28 -3 5 4 10 73 11 154 l2 147 -142 0 c-78 -1 -170 -1 -204 0 -35 0 -91
0 -125 -1 -35 0 -76 2 -93 5 -16 3 -37 3 -45 1z m347 -76 c7 -6 45 -9 87 -6
71 3 75 2 79 -19 4 -23 3 -23 -73 -17 -53 5 -79 3 -84 -5 -9 -14 -53 -15 -61
-1 -4 7 -48 10 -118 8 -107 -3 -112 -2 -112 17 0 18 6 20 47 18 26 -2 49 1 53
7 8 13 166 11 182 -2z m63 -109 c104 2 105 1 105 -22 0 -22 -2 -23 -84 -20
-46 2 -89 -1 -95 -6 -16 -13 -147 -13 -162 0 -8 6 -35 9 -61 7 -42 -3 -48 -1
-49 17 -2 19 3 20 71 17 43 -3 81 1 92 7 10 6 31 8 48 5 17 -4 77 -6 135 -5z"/>
<path d="M43 662 c-14 -15 -16 -26 -6 -60 5 -21 11 -23 52 -20 l46 3 0 -150
c0 -82 -4 -153 -9 -156 -5 -4 -28 -5 -53 -2 -44 4 -44 4 -37 -24 17 -71 20
-74 66 -68 55 8 96 14 128 19 14 3 44 7 68 10 23 2 52 8 64 11 17 6 20 4 15
-9 -4 -9 -1 -28 5 -42 9 -20 9 -30 -1 -46 -7 -11 -11 -22 -9 -24 6 -5 37 -8
71 -6 28 2 29 4 23 42 -5 37 -4 40 13 30 11 -5 28 -22 39 -37 l19 -26 39 24
c21 13 55 39 76 57 l36 33 37 -25 c39 -27 146 -80 149 -74 1 2 16 24 34 49 36
52 32 58 -39 65 -19 2 -56 12 -82 23 l-47 20 29 47 c27 41 96 213 89 219 -2 1
-34 -2 -71 -7 -50 -8 -75 -7 -90 1 -13 7 -59 10 -112 9 -98 -3 -105 -8 -90
-65 5 -20 10 -24 28 -20 21 6 21 5 4 -8 -18 -13 -17 -16 18 -72 21 -32 46 -68
57 -80 11 -12 18 -29 15 -37 -6 -16 -85 -59 -127 -69 -21 -5 -25 -2 -26 17 -1
19 3 23 27 23 36 0 39 3 45 47 l4 37 -37 -5 -38 -4 0 134 0 134 186 0 c102 0
206 3 231 6 43 6 44 7 43 44 l0 37 -197 2 c-132 1 -198 -2 -198 -9 0 -5 -20
-10 -45 -10 -25 0 -45 5 -45 10 0 6 -30 10 -70 10 -40 0 -70 -4 -70 -10 0 -6
-32 -10 -75 -10 -41 0 -75 4 -75 9 0 15 -92 18 -107 3z m333 -106 l-1 -28 -75
6 c-41 4 -75 8 -76 9 -1 1 -4 11 -8 22 -5 19 -1 20 78 20 l83 0 -1 -29z m1
-110 c1 -33 0 -34 -48 -40 -28 -4 -57 -2 -68 4 -11 5 -26 8 -33 5 -9 -4 -13 4
-13 27 l0 33 81 2 80 2 1 -33z m362 18 c3 -2 -10 -35 -28 -71 l-33 -67 -19 24
c-11 14 -31 47 -45 73 -22 43 -23 48 -7 43 10 -3 25 -1 33 5 14 9 88 4 99 -7z
m-378 -104 c11 0 16 -9 16 -28 0 -36 -44 -60 -76 -43 -13 8 -28 8 -46 1 -41
-15 -44 -13 -42 30 1 31 5 39 17 35 8 -2 22 0 30 6 8 5 31 7 50 4 19 -2 42 -5
51 -5z"/>
</g>
</svg>
