<?xml version="1.0" standalone="no"?>
<!DOCTYPE svg PUBLIC "-//W3C//DTD SVG 20010904//EN"
 "http://www.w3.org/TR/2001/REC-SVG-20010904/DTD/svg10.dtd">
<svg version="1.0" xmlns="http://www.w3.org/2000/svg"
 width="101.000000pt" height="101.000000pt" viewBox="0 0 101.000000 101.000000"
 preserveAspectRatio="xMidYMid meet">
<metadata>
Created by potrace 1.16, written by Peter Selinger 2001-2019
</metadata>
<g transform="translate(0.000000,101.000000) scale(0.100000,-0.100000)"
fill="#000000" stroke="none">
<path d="M265 998 c-16 -5 -35 -11 -42 -13 -10 -3 -9 -12 1 -37 32 -77 33 -75
-35 -70 -45 3 -64 1 -70 -9 -12 -19 -11 -106 1 -114 11 -7 12 -153 0 -160 -12
-7 -12 -153 0 -160 13 -8 13 -52 -1 -60 -6 -4 -8 -22 -4 -46 5 -27 2 -46 -10
-66 -16 -27 -16 -30 5 -66 12 -20 24 -37 26 -37 3 0 37 22 77 49 40 26 92 58
116 70 45 24 45 24 70 -17 6 -11 15 -9 44 8 20 12 37 27 37 33 0 13 -108 157
-118 157 -4 0 -22 -9 -40 -20 l-33 -20 21 -27 20 -26 -57 -33 c-32 -18 -62
-34 -66 -34 -4 0 -6 37 -5 83 l3 82 55 3 c30 1 89 2 130 2 l75 0 2 85 c1 46
-2 87 -8 90 -12 8 -12 52 1 60 16 10 10 153 -7 170 -8 9 -19 12 -25 9 -6 -4
-37 -8 -70 -8 -41 -2 -53 1 -41 8 10 5 19 10 21 12 5 4 -31 114 -37 113 -3 0
-19 -5 -36 -11z m102 -246 c1 -28 -3 -49 -10 -54 -7 -4 -44 -8 -83 -8 l-72 0
2 53 1 52 80 2 80 1 2 -46z m-2 -162 l0 -49 -75 6 c-41 3 -75 6 -76 7 -1 1 -4
18 -7 38 l-6 37 47 4 c26 2 63 4 82 5 l35 2 0 -50z"/>
<path d="M543 907 c-1 -28 2 -56 7 -62 13 -15 11 -173 -1 -181 -6 -4 -9 -38
-8 -83 2 -42 0 -82 -4 -88 -5 -7 -7 -34 -6 -60 4 -100 -28 -172 -107 -242 -40
-35 -44 -42 -28 -47 11 -4 34 -13 53 -21 33 -13 36 -12 62 13 56 53 118 204
120 287 0 13 5 17 15 13 9 -3 24 -1 35 4 11 6 40 8 68 4 55 -7 51 3 54 -131 2
-66 -1 -86 -15 -99 -14 -14 -22 -15 -42 -6 -13 6 -33 8 -44 5 -19 -5 -19 -5 1
-56 12 -29 22 -53 23 -55 2 -4 35 -4 64 2 39 7 75 23 88 39 17 21 29 302 13
311 -14 9 -14 53 -1 61 13 8 13 142 1 150 -13 7 -13 172 -1 180 9 6 12 66 4
95 -3 13 -31 16 -176 17 l-173 1 -2 -51z m252 -104 l0 -78 -52 -3 c-32 -2 -53
1 -53 7 0 6 -13 11 -30 11 l-30 0 3 68 2 67 80 3 80 2 0 -77z m0 -213 l0 -70
-80 2 -80 3 2 35 c6 91 0 84 83 91 41 3 75 6 75 7 0 1 0 -30 0 -68z"/>
</g>
</svg>
