<?xml version="1.0" standalone="no"?>
<!DOCTYPE svg PUBLIC "-//W3C//DTD SVG 20010904//EN"
 "http://www.w3.org/TR/2001/REC-SVG-20010904/DTD/svg10.dtd">
<svg version="1.0" xmlns="http://www.w3.org/2000/svg"
 width="101.000000pt" height="101.000000pt" viewBox="0 0 101.000000 101.000000"
 preserveAspectRatio="xMidYMid meet">
<metadata>
Created by potrace 1.16, written by Peter Selinger 2001-2019
</metadata>
<g transform="translate(0.000000,101.000000) scale(0.100000,-0.100000)"
fill="#000000" stroke="none">
<path d="M455 895 l0 -115 -145 5 c-80 3 -157 8 -171 11 -33 7 -59 -18 -59
-56 0 -45 21 -58 99 -59 50 -1 74 3 85 14 17 17 56 20 56 4 0 -7 12 -9 35 -5
19 4 35 5 35 2 0 -16 -47 -108 -86 -169 -54 -84 -136 -166 -218 -221 l-58 -38
34 -20 c18 -11 42 -29 54 -39 21 -19 21 -19 110 73 97 100 162 189 199 271 23
51 29 50 25 -6 -1 -15 4 -34 10 -42 9 -10 10 -56 5 -169 -13 -261 -13 -251 14
-254 13 -2 34 -1 48 3 l25 6 -7 89 c-5 63 -4 90 4 90 7 0 11 26 11 70 0 40 -4
70 -10 70 -6 0 -10 32 -10 75 0 43 4 75 10 75 6 0 10 8 10 18 0 9 13 -13 29
-49 53 -124 135 -225 239 -294 l41 -27 49 53 49 53 -54 22 c-72 29 -126 68
-174 124 -41 46 -104 166 -112 210 l-5 25 112 -2 c61 -1 125 -5 142 -8 22 -5
35 -2 47 10 21 21 22 69 1 89 -16 17 -59 22 -68 8 -2 -4 -23 -6 -46 -4 l-42 4
37 23 37 22 -62 66 c-60 65 -62 66 -88 53 -66 -35 -67 -38 -27 -81 20 -22 45
-51 55 -65 l18 -25 -93 0 -93 0 3 76 c2 41 7 87 10 102 6 23 3 28 -20 37 -14
5 -41 10 -58 10 l-32 0 0 -115z"/>
</g>
</svg>
