<?xml version="1.0" standalone="no"?>
<!DOCTYPE svg PUBLIC "-//W3C//DTD SVG 20010904//EN"
 "http://www.w3.org/TR/2001/REC-SVG-20010904/DTD/svg10.dtd">
<svg version="1.0" xmlns="http://www.w3.org/2000/svg"
 width="101.000000pt" height="101.000000pt" viewBox="0 0 101.000000 101.000000"
 preserveAspectRatio="xMidYMid meet">
<metadata>
Created by potrace 1.16, written by Peter Selinger 2001-2019
</metadata>
<g transform="translate(0.000000,101.000000) scale(0.100000,-0.100000)"
fill="#000000" stroke="none">
<path d="M440 1000 c0 -5 5 -10 10 -10 11 0 13 -71 4 -118 l-6 -31 -137 4
c-75 3 -152 7 -172 10 -26 5 -41 2 -53 -10 -20 -21 -21 -59 0 -79 17 -18 109
-22 119 -6 8 13 153 11 161 -2 3 -5 22 -7 43 -3 l36 6 2 -68 c2 -44 -2 -70
-10 -75 -17 -11 -157 -10 -157 1 0 10 -113 23 -134 15 -21 -8 -27 -31 -20 -70
l6 -34 124 4 124 4 -18 -32 c-36 -64 -164 -179 -247 -221 -44 -22 -82 -41 -85
-43 -3 -2 4 -8 15 -15 11 -6 32 -24 48 -40 l27 -30 54 36 c81 54 181 151 226
220 l40 62 1 -35 c0 -19 1 -107 3 -195 l3 -160 40 -3 c59 -4 78 18 68 77 -7
40 -8 97 -6 285 l1 40 36 -60 c19 -32 50 -74 67 -92 36 -38 204 -152 223 -152
7 0 16 9 19 20 4 12 22 36 41 55 l33 34 -56 16 c-116 34 -229 113 -276 194
l-18 31 98 2 c54 1 107 1 118 1 25 0 35 14 35 54 0 42 -28 59 -72 44 -17 -6
-81 -14 -142 -17 l-111 -7 0 72 0 71 43 0 c23 0 42 5 42 10 0 6 11 10 25 10
14 0 25 -5 25 -12 0 -16 221 -2 232 15 13 20 9 55 -8 71 -16 16 -75 22 -88 9
-4 -5 -67 -8 -140 -8 l-133 0 3 35 c2 19 6 46 8 60 13 69 16 65 -51 68 -39 2
-63 -1 -63 -8z"/>
</g>
</svg>
