<?xml version="1.0" standalone="no"?>
<!DOCTYPE svg PUBLIC "-//W3C//DTD SVG 20010904//EN"
 "http://www.w3.org/TR/2001/REC-SVG-20010904/DTD/svg10.dtd">
<svg version="1.0" xmlns="http://www.w3.org/2000/svg"
 width="101.000000pt" height="101.000000pt" viewBox="0 0 101.000000 101.000000"
 preserveAspectRatio="xMidYMid meet">
<metadata>
Created by potrace 1.16, written by Peter Selinger 2001-2019
</metadata>
<g transform="translate(0.000000,101.000000) scale(0.100000,-0.100000)"
fill="#000000" stroke="none">
<path d="M450 995 c0 -8 5 -15 10 -15 11 0 13 -55 4 -122 l-6 -45 -149 3 c-82
2 -160 6 -173 10 -40 10 -66 -11 -66 -54 0 -20 4 -42 8 -48 10 -15 127 -17
150 -3 17 11 152 5 152 -7 0 -12 -71 -143 -95 -174 -51 -69 -131 -144 -204
-191 -71 -46 -72 -48 -50 -59 13 -7 38 -26 55 -42 l32 -30 58 53 c33 29 67 62
76 74 17 19 17 19 12 -15 -4 -22 0 -42 9 -54 13 -18 21 -19 98 -10 l84 9 -1
-73 c-1 -40 -4 -76 -7 -79 -15 -15 15 -43 46 -43 53 0 57 8 60 106 l2 90 47
-2 c26 -2 57 -5 68 -9 11 -3 28 -4 39 0 15 5 18 13 13 50 -6 53 4 56 44 14 16
-17 48 -44 71 -60 l42 -29 53 51 c36 36 49 53 39 57 -39 13 -127 66 -167 99
-71 58 -199 253 -175 267 4 3 35 5 67 5 201 -3 216 -2 225 12 9 12 6 76 -4 85
-4 4 -78 5 -237 2 l-125 -3 1 70 c1 39 4 80 8 91 8 25 -13 34 -76 34 -27 0
-38 -4 -38 -15z m1 -414 c-1 -33 3 -62 9 -66 13 -8 13 -52 0 -60 -7 -4 -8 -24
-5 -50 l7 -43 -89 4 c-48 2 -89 3 -90 4 -1 0 26 42 61 93 34 52 70 115 80 141
10 26 21 45 24 42 3 -3 4 -33 3 -65z m228 -156 l38 -51 -25 -12 c-31 -15 -82
-16 -82 -2 0 6 -12 10 -27 10 -28 0 -28 1 -26 60 2 32 -2 62 -7 65 -13 8 -13
52 0 60 6 3 10 25 10 48 l1 42 40 -85 c22 -46 57 -107 78 -135z"/>
</g>
</svg>
