<?xml version="1.0" standalone="no"?>
<!DOCTYPE svg PUBLIC "-//W3C//DTD SVG 20010904//EN"
 "http://www.w3.org/TR/2001/REC-SVG-20010904/DTD/svg10.dtd">
<svg version="1.0" xmlns="http://www.w3.org/2000/svg"
 width="101.000000pt" height="101.000000pt" viewBox="0 0 101.000000 101.000000"
 preserveAspectRatio="xMidYMid meet">
<metadata>
Created by potrace 1.16, written by Peter Selinger 2001-2019
</metadata>
<g transform="translate(0.000000,101.000000) scale(0.100000,-0.100000)"
fill="#000000" stroke="none">
<path d="M204 897 l0 -112 -52 -3 c-34 -2 -52 1 -52 8 0 6 -12 10 -28 8 -21
-2 -28 -9 -30 -30 -2 -15 2 -37 8 -49 11 -20 17 -21 71 -15 32 3 59 4 59 2 0
-1 -8 -27 -19 -57 -24 -72 -56 -133 -98 -193 l-35 -48 24 -44 c12 -24 25 -44
28 -44 10 0 69 104 93 164 23 55 25 58 36 38 14 -26 7 -254 -8 -295 -8 -20 -8
-34 0 -49 6 -11 9 -33 5 -48 -6 -31 12 -41 59 -32 l26 5 -1 116 c-1 64 -1 145
-1 181 0 36 0 110 0 165 0 55 1 110 2 123 1 20 16 28 43 23 6 -1 22 -5 36 -8
38 -7 64 21 56 61 -7 34 -24 48 -43 38 -7 -4 -30 -6 -51 -4 l-39 4 3 66 c2 37
6 82 10 100 3 17 3 32 -2 33 -5 1 -29 3 -54 5 l-45 4 -1 -113z"/>
<path d="M443 912 c-22 -14 -27 -67 -8 -85 9 -10 20 -15 23 -13 4 2 7 -12 8
-32 0 -21 4 -48 8 -62 4 -14 9 -34 11 -45 7 -40 58 -192 87 -255 l29 -65 -33
-27 c-35 -30 -187 -110 -228 -121 -23 -6 -21 -9 33 -47 l58 -40 74 50 c40 28
90 66 111 84 l38 33 61 -45 c55 -41 194 -117 199 -110 15 21 57 100 54 102 -1
2 -33 13 -69 25 -55 18 -179 85 -179 96 0 2 9 19 20 37 47 80 119 292 146 428
15 75 14 88 -9 94 -28 7 -92 8 -99 1 -9 -10 -278 -13 -284 -4 -6 11 -35 11
-51 1z m257 -93 c0 -7 13 -8 38 -4 l38 6 -3 -38 c-1 -20 -5 -44 -9 -53 -3 -8
-8 -28 -11 -45 -7 -42 -50 -170 -72 -213 l-19 -36 -20 40 c-31 61 -58 163 -67
254 -2 19 -6 45 -9 58 -4 20 -1 22 40 22 24 0 44 5 44 10 0 6 11 10 25 10 14
0 25 -5 25 -11z"/>
<path d="M320 600 c-24 -18 -24 -20 -8 -47 9 -15 28 -50 42 -77 15 -28 28 -51
30 -53 5 -6 76 38 76 46 0 16 -93 151 -103 151 -7 0 -23 -9 -37 -20z"/>
</g>
</svg>
