<?xml version="1.0" standalone="no"?>
<!DOCTYPE svg PUBLIC "-//W3C//DTD SVG 20010904//EN"
 "http://www.w3.org/TR/2001/REC-SVG-20010904/DTD/svg10.dtd">
<svg version="1.0" xmlns="http://www.w3.org/2000/svg"
 width="101.000000pt" height="102.000000pt" viewBox="0 0 101.000000 102.000000"
 preserveAspectRatio="xMidYMid meet">
<metadata>
Created by potrace 1.16, written by Peter Selinger 2001-2019
</metadata>
<g transform="translate(0.000000,102.000000) scale(0.100000,-0.100000)"
fill="#000000" stroke="none">
<path d="M215 907 l1 -113 -85 2 c-93 2 -101 -2 -101 -51 0 -35 18 -68 27 -47
6 14 119 17 128 2 10 -16 -53 -151 -109 -234 l-53 -79 23 -35 c13 -19 24 -39
24 -43 0 -5 4 -9 9 -9 12 0 57 78 97 170 31 70 34 72 34 40 1 -32 2 -272 1
-330 -1 -95 4 -102 68 -92 27 4 32 8 27 26 -14 56 -18 136 -7 136 6 0 11 17
11 40 0 22 -4 40 -10 40 -5 0 -10 16 -10 35 0 19 5 35 10 35 6 0 10 26 11 58
l0 57 27 -55 c15 -30 27 -56 28 -58 3 -5 84 38 84 44 0 3 -6 17 -14 32 l-14
27 102 0 101 1 1 -51 c1 -27 5 -66 9 -86 4 -21 2 -45 -4 -57 -7 -14 -7 -28 1
-49 9 -23 8 -39 -4 -75 -18 -52 -13 -94 10 -100 10 -3 34 -3 55 0 36 4 38 6
32 30 -11 46 -17 253 -6 265 5 7 8 36 8 65 l-2 52 38 0 c20 0 37 5 37 11 0 7
25 8 79 3 75 -6 79 -5 86 15 3 12 4 35 0 51 l-6 29 -119 -2 -119 -2 2 125 2
125 92 -1 c102 -1 111 5 98 65 -5 25 -12 29 -51 35 -25 3 -53 2 -62 -3 -18 -9
-250 -6 -313 4 -43 7 -69 -13 -69 -54 0 -39 22 -65 48 -57 12 4 52 8 89 9 l68
3 0 -128 0 -128 -110 3 -110 2 0 -37 0 -37 -22 27 c-12 15 -22 31 -23 36 0 4
-6 6 -12 3 -7 -3 -20 -8 -28 -11 -12 -5 -15 4 -15 49 l0 55 55 0 c72 0 83 9
84 62 l1 43 -71 0 -71 0 3 93 c2 51 8 99 14 107 12 15 -14 25 -71 25 l-36 0 2
-113z"/>
</g>
</svg>
