<?xml version="1.0" standalone="no"?>
<!DOCTYPE svg PUBLIC "-//W3C//DTD SVG 20010904//EN"
 "http://www.w3.org/TR/2001/REC-SVG-20010904/DTD/svg10.dtd">
<svg version="1.0" xmlns="http://www.w3.org/2000/svg"
 width="101.000000pt" height="101.000000pt" viewBox="0 0 101.000000 101.000000"
 preserveAspectRatio="xMidYMid meet">
<metadata>
Created by potrace 1.16, written by Peter Selinger 2001-2019
</metadata>
<g transform="translate(0.000000,101.000000) scale(0.100000,-0.100000)"
fill="#000000" stroke="none">
<path d="M617 933 l-77 -78 -136 68 c-75 37 -137 67 -138 65 -2 -2 -15 -20
-31 -41 -24 -32 -26 -40 -14 -48 8 -5 18 -9 23 -9 18 0 196 -83 196 -91 0 -19
-191 -98 -274 -113 -16 -3 -31 -7 -33 -10 -3 -2 14 -23 37 -46 l42 -42 46 17
c63 24 196 91 245 123 l39 26 56 -29 c31 -17 89 -53 129 -82 l72 -52 35 42
c42 50 44 47 -76 108 -43 21 -91 47 -107 57 l-30 18 59 47 c32 26 72 52 89 58
17 6 31 15 31 19 0 10 -84 70 -97 70 -4 0 -43 -35 -86 -77z"/>
<path d="M466 677 c-15 -11 -17 -21 -12 -48 3 -19 8 -44 10 -57 l4 -23 -119 7
c-87 5 -119 4 -119 -5 0 -6 -11 -11 -25 -11 -14 0 -25 5 -25 10 0 6 -27 10
-60 10 -55 0 -60 -2 -66 -25 -3 -14 -3 -36 0 -49 5 -22 11 -24 75 -25 38 -1
72 3 76 9 8 12 52 13 59 1 8 -12 114 -13 121 -1 7 11 45 13 67 5 10 -4 13 -22
10 -64 -1 -34 2 -62 8 -66 16 -10 12 -98 -5 -122 -9 -12 -22 -20 -29 -17 -8 3
-17 1 -20 -5 -4 -5 -22 -7 -42 -4 l-36 6 21 -41 c12 -23 21 -48 21 -56 0 -52
149 -17 171 41 5 15 7 73 3 144 -5 87 -4 119 4 119 7 0 12 12 12 28 l0 27 102
2 c57 1 124 5 150 8 28 4 61 2 80 -4 17 -6 32 -10 34 -9 1 2 5 19 9 39 7 39
-16 76 -38 62 -7 -5 -86 -8 -177 -8 l-165 0 1 41 c0 22 4 45 7 51 8 13 -7 25
-37 29 -12 1 -28 5 -36 8 -9 4 -24 0 -34 -7z"/>
<path d="M273 398 c-17 -39 -102 -126 -154 -159 -27 -18 -49 -35 -49 -38 0 -3
22 -19 48 -35 l47 -28 113 118 c80 84 109 120 100 126 -30 20 -68 38 -81 38
-8 0 -18 -10 -24 -22z"/>
<path d="M637 392 c-15 -15 -27 -33 -27 -38 0 -6 21 -26 47 -44 26 -19 78 -63
115 -99 l69 -64 39 38 39 39 -41 35 c-56 48 -202 161 -209 161 -3 0 -17 -13
-32 -28z"/>
</g>
</svg>
