<?xml version="1.0" standalone="no"?>
<!DOCTYPE svg PUBLIC "-//W3C//DTD SVG 20010904//EN"
 "http://www.w3.org/TR/2001/REC-SVG-20010904/DTD/svg10.dtd">
<svg version="1.0" xmlns="http://www.w3.org/2000/svg"
 width="101.000000pt" height="102.000000pt" viewBox="0 0 101.000000 102.000000"
 preserveAspectRatio="xMidYMid meet">
<metadata>
Created by potrace 1.16, written by Peter Selinger 2001-2019
</metadata>
<g transform="translate(0.000000,102.000000) scale(0.100000,-0.100000)"
fill="#000000" stroke="none">
<path d="M430 1005 c0 -8 5 -15 11 -15 6 0 9 -21 7 -52 l-3 -53 -143 2 c-79 1
-158 5 -176 8 -40 8 -66 -13 -66 -53 0 -57 -1 -57 173 -48 113 7 118 6 108
-11 -28 -54 -196 -180 -269 -204 -20 -6 -40 -14 -44 -18 -5 -4 12 -26 36 -50
l43 -43 104 79 c57 43 129 109 159 145 30 36 57 64 59 63 1 -2 4 -58 6 -125
l3 -122 -94 7 c-51 4 -109 4 -128 1 l-35 -7 2 -209 c2 -231 -1 -221 70 -212
37 4 37 5 34 46 l-3 41 51 2 c54 3 134 4 163 4 9 0 44 1 77 4 33 3 74 3 92 0
30 -5 31 -7 28 -49 -3 -50 5 -56 67 -48 29 3 37 9 41 30 3 14 2 35 -3 46 -7
21 -3 233 6 291 8 50 -2 55 -139 62 -80 4 -128 10 -129 17 -1 6 -2 63 -2 127
l-1 116 18 -31 c45 -75 169 -181 274 -235 51 -26 60 -26 67 -3 3 9 20 33 37
51 32 36 28 50 -16 52 -73 3 -179 56 -248 123 l-52 51 43 3 c23 2 42 7 42 13
0 5 11 9 25 9 14 0 25 -5 25 -11 0 -6 24 -9 63 -8 34 0 69 -2 78 -5 39 -17 67
65 33 98 -16 16 -85 22 -98 9 -4 -5 -72 -8 -150 -8 l-143 0 3 38 c1 21 5 51 9
67 l7 30 -61 0 c-48 0 -61 -3 -61 -15z m263 -665 c2 -41 4 -76 3 -77 -1 -2
-55 -6 -120 -9 -96 -6 -120 -5 -128 7 -7 11 -11 11 -15 2 -6 -15 -73 -18 -73
-3 0 6 -17 10 -39 10 l-38 0 1 73 1 72 201 0 202 0 5 -75z"/>
</g>
</svg>
