<?xml version="1.0" standalone="no"?>
<!DOCTYPE svg PUBLIC "-//W3C//DTD SVG 20010904//EN"
 "http://www.w3.org/TR/2001/REC-SVG-20010904/DTD/svg10.dtd">
<svg version="1.0" xmlns="http://www.w3.org/2000/svg"
 width="101.000000pt" height="101.000000pt" viewBox="0 0 101.000000 101.000000"
 preserveAspectRatio="xMidYMid meet">
<metadata>
Created by potrace 1.16, written by Peter Selinger 2001-2019
</metadata>
<g transform="translate(0.000000,101.000000) scale(0.100000,-0.100000)"
fill="#000000" stroke="none">
<path d="M259 1003 c-11 -3 -15 -11 -12 -24 3 -10 2 -53 -2 -93 l-7 -75 -82 6
c-93 6 -102 0 -90 -63 l6 -33 73 4 74 4 -5 -25 c-7 -37 -62 -173 -89 -219 -13
-22 -37 -54 -54 -72 l-31 -31 27 -46 c16 -25 31 -46 35 -46 11 0 46 54 88 137
41 81 43 81 40 -3 -1 -29 3 -55 9 -59 13 -8 14 -52 2 -60 -5 -3 -9 -50 -8
-105 2 -111 4 -114 67 -104 39 6 56 26 43 47 -8 12 -14 102 -13 167 1 19 2 92
3 162 1 69 4 125 7 123 3 -2 19 -32 35 -67 16 -35 30 -64 31 -66 4 -6 84 38
84 47 0 15 -80 131 -90 131 -6 0 -25 -7 -42 -16 -31 -16 -31 -16 -25 8 4 12 7
37 7 54 0 31 0 32 63 37 60 4 63 3 109 -34 l46 -39 84 62 c78 58 248 219 248
236 0 8 -89 57 -94 51 -2 -2 -27 -33 -55 -68 -28 -35 -68 -79 -90 -97 -39 -34
-141 -104 -151 -104 -3 0 -5 18 -6 41 0 44 -17 63 -49 54 -11 -3 -40 -7 -65
-8 l-45 -2 2 70 c1 39 5 80 8 91 5 17 1 23 -17 27 -25 7 -44 7 -69 0z"/>
<path d="M735 635 c-81 -82 -116 -109 -186 -145 l-87 -45 37 -32 c20 -18 40
-32 45 -33 20 -1 176 113 253 183 45 42 91 81 103 87 21 11 21 12 3 32 -10 11
-29 28 -43 37 l-25 17 -100 -101z"/>
<path d="M795 412 c-90 -96 -234 -189 -322 -205 -34 -7 -73 -19 -73 -23 0 -3
17 -22 38 -43 l37 -39 87 38 c114 49 216 114 307 194 41 37 78 66 83 66 18 0
6 29 -19 45 -72 47 -62 49 -138 -33z"/>
</g>
</svg>
