<?xml version="1.0" standalone="no"?>
<!DOCTYPE svg PUBLIC "-//W3C//DTD SVG 20010904//EN"
 "http://www.w3.org/TR/2001/REC-SVG-20010904/DTD/svg10.dtd">
<svg version="1.0" xmlns="http://www.w3.org/2000/svg"
 width="101.000000pt" height="102.000000pt" viewBox="0 0 101.000000 102.000000"
 preserveAspectRatio="xMidYMid meet">
<metadata>
Created by potrace 1.16, written by Peter Selinger 2001-2019
</metadata>
<g transform="translate(0.000000,102.000000) scale(0.100000,-0.100000)"
fill="#000000" stroke="none">
<path d="M455 952 l0 -70 -175 2 -175 1 -3 -32 c-2 -18 2 -42 8 -53 10 -19 18
-21 58 -17 26 3 101 7 167 9 l120 3 0 -111 0 -112 -59 -6 c-86 -9 -164 -7
-171 3 -3 5 -41 9 -85 9 l-80 0 -6 -33 c-3 -19 -1 -43 6 -55 12 -22 15 -23
134 -17 66 3 132 9 146 13 l25 8 -29 -40 c-73 -98 -167 -174 -259 -209 -26
-10 -47 -19 -47 -21 0 -6 81 -78 92 -83 13 -5 147 100 201 158 26 28 64 77 86
110 l39 61 7 -94 c5 -64 4 -100 -4 -115 -8 -14 -10 -46 -5 -96 6 -71 8 -74 35
-80 56 -13 66 -2 74 80 4 41 4 79 0 85 -6 10 -9 79 -6 175 l2 40 26 -55 c36
-73 121 -157 213 -208 41 -23 80 -42 85 -42 12 0 88 100 81 107 -3 3 -26 9
-51 14 -77 14 -156 59 -222 125 -35 34 -63 66 -63 71 0 10 193 10 237 -1 55
-13 68 -3 68 51 l0 48 -87 3 c-58 3 -88 0 -88 -7 0 -7 -28 -11 -75 -11 -43 0
-75 4 -75 10 0 6 -13 10 -29 10 l-28 0 1 108 1 107 48 -4 c27 -1 54 2 60 8 16
16 81 14 124 -4 90 -38 148 -6 127 72 -5 20 -11 21 -67 17 -64 -4 -76 -4 -213
-1 l-81 2 3 35 c2 19 6 45 10 56 7 27 -5 35 -59 40 l-42 5 0 -69z"/>
<path d="M212 749 l-32 -21 37 -42 c21 -23 49 -57 63 -75 l26 -34 42 27 43 27
-22 31 c-36 50 -95 108 -110 108 -8 0 -29 -10 -47 -21z"/>
<path d="M700 761 c0 -5 -20 -40 -45 -77 -25 -36 -45 -68 -45 -69 0 -9 94 -36
99 -28 68 98 91 134 91 142 0 11 -63 41 -86 41 -8 0 -14 -4 -14 -9z"/>
</g>
</svg>
