<?xml version="1.0" standalone="no"?>
<!DOCTYPE svg PUBLIC "-//W3C//DTD SVG 20010904//EN"
 "http://www.w3.org/TR/2001/REC-SVG-20010904/DTD/svg10.dtd">
<svg version="1.0" xmlns="http://www.w3.org/2000/svg"
 width="101.000000pt" height="102.000000pt" viewBox="0 0 101.000000 102.000000"
 preserveAspectRatio="xMidYMid meet">
<metadata>
Created by potrace 1.16, written by Peter Selinger 2001-2019
</metadata>
<g transform="translate(0.000000,102.000000) scale(0.100000,-0.100000)"
fill="#000000" stroke="none">
<path d="M197 1012 c-9 -15 -5 -127 5 -139 5 -6 8 -27 6 -45 l-3 -33 -77 2
-77 2 -6 -29 c-4 -16 -4 -39 0 -49 5 -18 14 -20 71 -17 35 1 64 -2 64 -7 0
-23 -66 -144 -111 -204 l-50 -65 22 -54 c13 -30 25 -54 28 -54 6 0 92 147 112
193 20 45 29 31 29 -48 0 -50 -4 -75 -12 -75 -8 0 -9 -29 -5 -105 5 -75 3
-111 -5 -125 -9 -13 -9 -27 -2 -47 10 -30 43 -40 91 -28 22 5 24 10 19 43 -3
20 -2 116 2 212 l7 175 28 -53 27 -52 41 21 c41 21 43 26 24 73 -8 17 -6 17
24 2 17 -9 36 -14 41 -11 4 3 25 56 46 118 20 61 43 124 51 140 14 27 13 28
-29 46 -24 10 -48 16 -55 14 -11 -5 -24 -34 -29 -68 -11 -79 -64 -220 -77
-205 -2 3 -16 22 -31 42 -23 31 -31 36 -46 28 -29 -16 -31 -13 -28 43 l3 53
63 -1 c57 -1 63 0 68 22 4 13 3 34 0 48 -6 23 -10 24 -71 22 -46 -1 -66 2 -70
11 -9 24 -5 91 6 97 5 4 9 17 8 28 -2 12 1 32 5 45 4 13 5 26 2 30 -9 9 -104
13 -109 4z"/>
<path d="M616 865 c8 -246 4 -428 -10 -442 -30 -30 62 -72 99 -45 13 9 18 232
5 232 -6 0 -10 11 -10 25 0 14 5 25 10 25 6 0 10 30 10 70 0 40 -4 70 -10 70
-12 0 -13 67 -1 72 4 2 10 32 13 68 l5 65 -57 0 -58 0 4 -140z"/>
<path d="M758 802 c-16 -10 -28 -21 -28 -25 0 -5 19 -30 43 -58 23 -27 58 -75
78 -108 l36 -59 46 29 c26 16 47 32 47 35 0 20 -167 204 -184 203 -6 0 -23 -8
-38 -17z"/>
<path d="M795 528 c-20 -94 -98 -199 -187 -251 -51 -30 -156 -67 -196 -69 -32
-1 -102 -19 -102 -26 0 -2 13 -20 30 -39 16 -18 30 -38 30 -44 0 -21 148 24
255 79 112 56 208 155 236 241 6 20 23 51 36 69 14 18 23 35 22 36 -16 14 -73
36 -93 36 -19 0 -26 -6 -31 -32z"/>
</g>
</svg>
