<?xml version="1.0" standalone="no"?>
<!DOCTYPE svg PUBLIC "-//W3C//DTD SVG 20010904//EN"
 "http://www.w3.org/TR/2001/REC-SVG-20010904/DTD/svg10.dtd">
<svg version="1.0" xmlns="http://www.w3.org/2000/svg"
 width="101.000000pt" height="101.000000pt" viewBox="0 0 101.000000 101.000000"
 preserveAspectRatio="xMidYMid meet">
<metadata>
Created by potrace 1.16, written by Peter Selinger 2001-2019
</metadata>
<g transform="translate(0.000000,101.000000) scale(0.100000,-0.100000)"
fill="#000000" stroke="none">
<path d="M205 976 c-4 -19 -2 -43 4 -54 12 -22 14 -74 5 -107 -4 -17 -12 -20
-47 -17 -23 2 -55 4 -72 5 -36 3 -53 -32 -36 -76 11 -28 11 -29 76 -22 l65 7
-19 -54 c-28 -81 -56 -130 -110 -196 l-49 -59 30 -46 30 -47 20 26 c11 14 38
59 59 100 l39 75 1 -48 c0 -26 0 -84 -1 -128 0 -44 2 -115 6 -157 6 -75 7 -77
35 -83 59 -13 64 -5 62 97 -5 191 -1 378 9 372 3 -2 19 -24 35 -49 15 -25 32
-45 36 -45 13 0 67 43 67 53 0 14 -80 107 -93 107 -6 0 -20 -9 -31 -19 l-21
-20 0 66 0 65 62 -4 c69 -4 80 5 68 55 -6 21 -14 26 -55 31 -26 3 -54 4 -61 1
-11 -4 -14 11 -13 75 1 44 7 86 13 93 16 20 5 26 -40 20 -25 -4 -39 -2 -39 6
0 6 -7 11 -15 11 -8 0 -17 -14 -20 -34z"/>
<path d="M906 953 c-4 -4 -36 -6 -72 -5 -40 2 -64 -1 -64 -7 0 -6 -11 -11 -25
-11 -14 0 -25 5 -25 10 0 6 -30 10 -70 10 -40 0 -70 -4 -70 -10 0 -5 -16 -10
-35 -10 -19 0 -35 5 -35 10 0 6 -28 10 -64 10 -72 0 -81 -9 -70 -66 7 -38 35
-51 82 -39 15 4 63 8 108 9 l81 1 -17 -50 c-63 -178 -164 -325 -284 -411 l-29
-21 49 -33 49 -32 48 53 c27 29 68 81 92 117 l43 64 4 -220 c1 -121 6 -223 9
-227 11 -10 73 -16 85 -8 9 6 9 34 2 107 -8 73 -8 104 1 118 14 22 15 145 1
153 -13 8 -13 152 0 160 5 3 9 34 8 68 -1 44 5 76 21 112 l21 50 58 -2 c31 -1
71 -5 88 -8 38 -8 64 14 64 55 0 39 -34 73 -54 53z"/>
<path d="M755 614 c-11 -8 -26 -19 -34 -23 -10 -6 2 -26 49 -82 34 -41 76 -98
92 -126 16 -29 34 -53 38 -53 5 0 23 12 42 27 18 15 35 28 37 30 13 9 -171
243 -192 243 -6 0 -21 -8 -32 -16z"/>
</g>
</svg>
