<?xml version="1.0" standalone="no"?>
<!DOCTYPE svg PUBLIC "-//W3C//DTD SVG 20010904//EN"
 "http://www.w3.org/TR/2001/REC-SVG-20010904/DTD/svg10.dtd">
<svg version="1.0" xmlns="http://www.w3.org/2000/svg"
 width="101.000000pt" height="101.000000pt" viewBox="0 0 101.000000 101.000000"
 preserveAspectRatio="xMidYMid meet">
<metadata>
Created by potrace 1.16, written by Peter Selinger 2001-2019
</metadata>
<g transform="translate(0.000000,101.000000) scale(0.100000,-0.100000)"
fill="#000000" stroke="none">
<path d="M459 1004 c-11 -3 -14 -13 -11 -34 2 -17 1 -55 -2 -84 l-7 -55 -131
5 c-72 2 -146 6 -163 10 -23 4 -37 1 -48 -11 -17 -17 -22 -62 -9 -81 9 -14
118 -18 127 -5 11 18 135 10 135 -9 0 -5 -21 -36 -47 -70 -49 -66 -134 -135
-217 -177 l-49 -25 44 -39 c24 -21 48 -38 53 -39 4 0 45 29 91 64 86 68 149
136 187 203 l23 41 -2 -87 c-2 -47 0 -118 3 -158 6 -80 14 -88 72 -77 l34 7
-6 63 c-4 41 -3 65 4 69 6 4 11 30 10 59 -3 92 -3 92 45 28 44 -61 136 -134
229 -182 l48 -25 16 25 c9 14 32 39 50 56 l33 31 -33 8 c-18 4 -42 9 -53 12
-78 15 -205 109 -248 182 l-18 31 45 0 c25 0 46 5 46 10 0 6 11 10 25 10 14 0
25 -5 25 -11 0 -14 153 -10 162 5 13 19 9 64 -8 80 -16 17 -65 22 -78 9 -4 -5
-73 -8 -152 -8 l-144 0 5 55 c2 30 7 65 11 76 4 17 0 23 -18 27 -13 3 -32 8
-43 10 -11 3 -27 3 -36 1z"/>
<path d="M134 345 c-4 -9 -4 -18 -1 -22 10 -10 -31 -105 -63 -144 -26 -33 -28
-38 -12 -43 9 -3 19 -5 22 -4 3 0 20 -6 37 -16 l32 -16 51 106 c27 59 50 109
50 111 0 4 -52 27 -88 37 -16 5 -24 3 -28 -9z"/>
<path d="M767 344 l-48 -15 21 -32 c26 -38 67 -127 76 -162 3 -14 8 -25 10
-25 13 0 114 43 114 48 0 16 -112 202 -120 201 -3 0 -27 -7 -53 -15z"/>
<path d="M529 327 c-15 -9 -15 -15 2 -63 11 -30 19 -68 19 -86 0 -58 19 -66
102 -43 l26 7 -15 51 c-8 29 -24 73 -35 99 -17 41 -23 46 -51 46 -18 0 -39 -5
-48 -11z"/>
<path d="M326 323 c-17 -5 -18 -12 -11 -91 9 -128 3 -120 87 -113 25 2 50 31
43 50 -4 9 -9 30 -12 46 -2 17 -5 37 -7 45 -9 55 -18 67 -49 67 -18 0 -40 -2
-51 -4z"/>
</g>
</svg>
