<?xml version="1.0" standalone="no"?>
<!DOCTYPE svg PUBLIC "-//W3C//DTD SVG 20010904//EN"
 "http://www.w3.org/TR/2001/REC-SVG-20010904/DTD/svg10.dtd">
<svg version="1.0" xmlns="http://www.w3.org/2000/svg"
 width="101.000000pt" height="101.000000pt" viewBox="0 0 101.000000 101.000000"
 preserveAspectRatio="xMidYMid meet">
<metadata>
Created by potrace 1.16, written by Peter Selinger 2001-2019
</metadata>
<g transform="translate(0.000000,101.000000) scale(0.100000,-0.100000)"
fill="#000000" stroke="none">
<path d="M180 990 c0 -11 5 -20 10 -20 11 0 13 -55 4 -121 l-6 -44 -68 2 c-68
1 -69 1 -75 -28 -4 -16 -4 -38 0 -49 6 -18 13 -19 71 -14 35 3 64 3 64 1 0 -2
-11 -35 -24 -73 -28 -83 -58 -144 -99 -201 l-30 -43 24 -45 c13 -25 27 -45 31
-45 3 0 28 44 55 97 l48 98 -1 -165 c-1 -91 -5 -176 -8 -190 -10 -39 7 -55 55
-53 44 2 63 17 53 43 -6 17 -6 372 1 378 2 2 13 -16 26 -40 12 -23 23 -44 24
-46 2 -2 17 4 34 12 16 9 32 16 36 16 3 0 5 -25 5 -55 0 -30 5 -55 10 -55 6 0
10 -16 10 -35 0 -19 -4 -35 -10 -35 -15 0 -12 -63 5 -104 19 -44 73 -73 105
-56 12 6 79 8 184 4 191 -6 201 -3 235 76 24 56 26 70 8 70 -7 0 -29 11 -50
25 -42 29 -61 25 -54 -13 8 -42 -28 -68 -105 -76 -45 -5 -74 -4 -89 4 -12 7
-41 10 -65 7 -72 -8 -75 -1 -77 158 l-2 140 142 2 143 1 -6 -22 c-3 -15 1 -29
11 -40 17 -16 62 -21 80 -8 13 10 18 332 5 332 -6 0 -10 16 -10 35 0 19 5 35
10 35 6 0 10 25 10 56 l0 55 -102 -1 c-57 -1 -167 1 -244 3 l-142 5 0 -39 c0
-21 3 -41 8 -44 13 -8 11 -167 -2 -183 -7 -8 -9 -49 -4 -119 l7 -107 -51 77
c-49 76 -50 77 -73 62 -31 -20 -37 -12 -37 45 l0 47 54 7 c30 3 61 3 69 0 19
-7 31 27 22 66 -6 29 -7 29 -70 27 l-63 -2 4 83 c2 46 6 88 10 94 10 16 -17
28 -63 28 -36 0 -43 -3 -43 -20z m436 -249 l0 -136 -52 3 -51 4 1 131 1 132
50 1 50 0 1 -135z m145 129 c27 0 29 -2 29 -40 0 -22 5 -40 10 -40 6 0 10 -11
10 -25 0 -14 -5 -25 -11 -25 -7 0 -9 -24 -7 -67 l3 -68 -47 0 -47 0 -7 72 c-4
52 -3 77 6 88 7 8 11 35 8 65 -2 39 0 49 10 45 8 -3 27 -5 43 -5z"/>
</g>
</svg>
