<?xml version="1.0" standalone="no"?>
<!DOCTYPE svg PUBLIC "-//W3C//DTD SVG 20010904//EN"
 "http://www.w3.org/TR/2001/REC-SVG-20010904/DTD/svg10.dtd">
<svg version="1.0" xmlns="http://www.w3.org/2000/svg"
 width="101.000000pt" height="101.000000pt" viewBox="0 0 101.000000 101.000000"
 preserveAspectRatio="xMidYMid meet">
<metadata>
Created by potrace 1.16, written by Peter Selinger 2001-2019
</metadata>
<g transform="translate(0.000000,101.000000) scale(0.100000,-0.100000)"
fill="#000000" stroke="none">
<path d="M205 1001 c4 -7 4 -54 0 -105 l-7 -92 -74 3 c-71 2 -74 1 -80 -22 -3
-14 -3 -37 0 -51 6 -24 9 -25 71 -21 60 5 80 -2 54 -18 -5 -4 -8 -12 -6 -18
10 -30 -46 -156 -104 -234 l-39 -52 24 -52 25 -52 40 64 c23 35 49 84 58 109
l18 45 8 -45 c5 -25 9 -64 9 -87 -1 -24 -1 -52 -1 -63 0 -11 1 -35 2 -52 1
-18 -2 -58 -6 -89 -9 -64 -3 -69 64 -61 36 4 37 4 26 38 -7 24 -7 41 1 59 8
17 8 33 2 51 -6 14 -9 90 -8 168 3 159 5 160 58 46 l23 -49 38 20 c22 11 39
23 39 27 0 4 -9 22 -21 41 -11 18 -18 35 -15 38 2 3 49 7 103 9 l98 4 -3 -81
c-1 -47 2 -87 8 -94 7 -9 9 -40 4 -90 -8 -87 -15 -95 -82 -89 -39 3 -43 1 -37
-14 5 -9 14 -36 22 -59 14 -38 17 -41 46 -38 50 4 113 34 124 58 6 13 8 64 5
121 -4 77 -2 100 9 108 11 7 11 11 2 15 -15 6 -18 73 -3 73 6 0 10 18 10 39
l0 39 60 4 c33 1 60 1 60 -1 0 -2 -14 -28 -30 -58 -17 -29 -27 -53 -23 -54 5
0 15 -2 23 -4 79 -18 74 -20 94 32 54 143 64 178 53 185 -16 10 -62 10 -71 1
-4 -5 -48 -8 -96 -8 -83 0 -87 1 -73 17 12 14 13 21 4 31 -9 11 0 24 41 64 64
60 104 87 117 79 20 -13 42 26 39 68 -3 36 -6 42 -33 47 -48 10 -163 10 -170
0 -7 -12 -172 -13 -180 -1 -9 14 -94 10 -110 -7 -16 -16 -18 -26 -9 -61 l6
-22 172 5 171 6 -57 -58 -58 -57 -39 38 -40 39 -41 -27 c-22 -14 -40 -30 -40
-34 0 -4 23 -22 51 -41 27 -19 58 -46 69 -61 l19 -26 -115 1 -114 2 -6 -34
c-6 -33 -7 -33 -26 -17 -17 17 -21 17 -46 2 l-27 -16 0 66 0 67 72 -2 c80 -2
91 7 78 66 -5 23 -11 29 -33 28 -15 -1 -48 0 -73 1 l-47 2 4 77 c3 42 10 83
16 90 16 19 5 25 -53 31 -39 4 -50 2 -44 -7z"/>
</g>
</svg>
