<?xml version="1.0" standalone="no"?>
<!DOCTYPE svg PUBLIC "-//W3C//DTD SVG 20010904//EN"
 "http://www.w3.org/TR/2001/REC-SVG-20010904/DTD/svg10.dtd">
<svg version="1.0" xmlns="http://www.w3.org/2000/svg"
 width="101.000000pt" height="101.000000pt" viewBox="0 0 101.000000 101.000000"
 preserveAspectRatio="xMidYMid meet">
<metadata>
Created by potrace 1.16, written by Peter Selinger 2001-2019
</metadata>
<g transform="translate(0.000000,101.000000) scale(0.100000,-0.100000)"
fill="#000000" stroke="none">
<path d="M210 1004 c-12 -4 -15 -23 -14 -102 l1 -98 -52 4 c-65 5 -95 -9 -95
-46 0 -42 14 -54 66 -60 27 -2 52 -9 55 -15 16 -23 -50 -171 -113 -255 l-39
-52 33 -40 c40 -47 41 -46 97 65 35 70 40 76 42 50 1 -16 1 -34 0 -39 -1 -4 3
-13 8 -20 14 -17 12 -112 -5 -151 -11 -27 -12 -40 -3 -56 6 -12 8 -37 4 -58
-7 -43 5 -52 62 -44 l31 5 -4 75 c-3 50 -1 80 7 89 9 11 9 18 1 26 -15 15 -16
75 -2 83 6 4 9 41 8 90 -2 46 -1 82 2 80 3 -2 16 -25 30 -52 14 -26 26 -50 27
-52 4 -7 62 21 74 35 10 12 3 29 -36 85 -26 38 -53 68 -59 65 -6 -2 -18 -7
-26 -10 -12 -5 -15 4 -15 49 0 59 2 61 72 55 16 -1 24 6 29 25 4 16 9 22 14
16 4 -8 27 -10 61 -8 l54 4 -3 -76 c-6 -190 -21 -291 -54 -354 -33 -65 -59
-95 -110 -128 -26 -17 -48 -32 -48 -34 0 -1 23 -16 51 -34 l52 -32 35 33 c88
84 162 250 165 371 l1 37 46 0 c25 0 61 3 81 6 l37 6 4 -41 c2 -22 0 -50 -4
-61 -4 -11 -2 -32 4 -46 9 -20 9 -30 -1 -46 -7 -11 -14 -39 -17 -61 -6 -52
-25 -67 -80 -65 -24 1 -46 0 -49 -4 -3 -3 3 -21 14 -39 12 -19 21 -41 21 -50
0 -26 30 -27 94 -5 76 27 98 56 103 133 5 107 11 178 18 213 4 19 8 65 10 102
l4 67 -140 -2 c-153 -2 -144 -7 -133 66 7 37 7 37 55 37 26 0 51 5 54 10 7 12
48 13 59 3 4 -5 41 -8 82 -8 82 0 92 8 79 65 -7 32 -42 49 -67 33 -25 -16
-398 -15 -439 2 -22 8 -49 -20 -50 -53 -1 -17 -3 -21 -6 -10 -5 20 -42 32 -76
26 -22 -4 -22 -3 -20 89 2 82 0 94 -17 103 -19 10 -42 11 -70 4z"/>
<path d="M613 993 l-31 -16 36 -66 c19 -36 36 -67 38 -69 6 -9 84 23 84 35 0
7 -14 40 -30 73 -33 65 -43 70 -97 43z"/>
</g>
</svg>
