<?xml version="1.0" standalone="no"?>
<!DOCTYPE svg PUBLIC "-//W3C//DTD SVG 20010904//EN"
 "http://www.w3.org/TR/2001/REC-SVG-20010904/DTD/svg10.dtd">
<svg version="1.0" xmlns="http://www.w3.org/2000/svg"
 width="101.000000pt" height="101.000000pt" viewBox="0 0 101.000000 101.000000"
 preserveAspectRatio="xMidYMid meet">
<metadata>
Created by potrace 1.16, written by Peter Selinger 2001-2019
</metadata>
<g transform="translate(0.000000,101.000000) scale(0.100000,-0.100000)"
fill="#000000" stroke="none">
<path d="M219 992 c-13 -6 -16 -23 -14 -104 l2 -96 -76 1 -76 2 -3 -31 c-5
-47 20 -66 80 -62 26 1 48 -1 48 -5 0 -24 -69 -168 -107 -225 l-43 -64 30 -35
c17 -18 30 -38 30 -43 0 -30 24 0 59 71 35 73 40 79 50 60 11 -20 7 -295 -4
-332 -7 -20 18 -28 63 -21 31 4 37 14 34 54 -1 15 2 16 26 7 15 -6 36 -19 48
-30 21 -19 21 -19 68 22 60 53 127 148 170 240 31 66 35 70 45 51 8 -15 10
-65 6 -156 -4 -118 -3 -137 13 -156 11 -13 28 -21 42 -20 14 1 55 1 93 0 80
-1 101 9 126 58 37 75 36 84 -21 114 -28 15 -53 26 -56 24 -2 -2 -5 -20 -6
-40 -4 -49 -20 -65 -64 -62 l-37 2 -7 64 c-11 90 -2 242 17 283 10 24 5 28
-44 30 -38 1 -41 4 -36 22 9 27 16 75 16 103 -1 21 3 22 64 22 l65 0 0 -47 c0
-69 11 -79 77 -75 24 2 40 36 25 55 -10 12 -8 89 2 106 3 5 4 15 1 23 -4 10
-32 13 -113 13 l-107 0 1 45 c1 25 7 58 13 73 14 36 16 33 -19 47 -17 7 -44
10 -65 6 l-34 -7 3 -82 4 -82 -71 2 c-40 1 -86 0 -103 -3 l-31 -4 1 -96 c1
-90 2 -95 23 -101 13 -3 34 -2 48 1 22 6 24 10 21 55 l-3 49 45 6 c25 3 47 5
48 3 2 -1 4 -20 5 -42 5 -131 -71 -305 -175 -402 -35 -32 -76 -66 -93 -75
l-31 -18 -11 63 c-7 34 -9 98 -6 142 3 44 6 90 6 102 2 28 17 21 54 -27 17
-22 33 -39 38 -40 14 0 77 45 77 56 0 6 -27 34 -60 63 l-59 52 -28 -18 c-26
-17 -27 -17 -20 0 4 10 7 42 7 71 l0 52 33 -4 c39 -4 67 17 67 51 0 36 -13 46
-60 44 l-45 -2 -3 40 c-2 21 2 49 9 61 6 13 9 29 6 37 -3 7 -1 20 3 28 16 25
-43 47 -81 31z"/>
</g>
</svg>
