<?xml version="1.0" standalone="no"?>
<!DOCTYPE svg PUBLIC "-//W3C//DTD SVG 20010904//EN"
 "http://www.w3.org/TR/2001/REC-SVG-20010904/DTD/svg10.dtd">
<svg version="1.0" xmlns="http://www.w3.org/2000/svg"
 width="101.000000pt" height="101.000000pt" viewBox="0 0 101.000000 101.000000"
 preserveAspectRatio="xMidYMid meet">
<metadata>
Created by potrace 1.16, written by Peter Selinger 2001-2019
</metadata>
<g transform="translate(0.000000,101.000000) scale(0.100000,-0.100000)"
fill="#000000" stroke="none">
<path d="M195 908 l3 -103 -66 2 c-70 2 -82 -5 -82 -44 0 -38 26 -53 84 -50
l53 2 -12 -36 c-23 -65 -67 -143 -112 -202 l-45 -58 23 -44 c23 -42 25 -44 41
-27 9 9 38 53 63 97 43 76 45 78 45 45 0 -19 3 -94 5 -167 3 -72 1 -142 -4
-156 -20 -53 4 -79 67 -69 28 4 31 7 26 32 -4 15 -1 37 5 49 9 16 8 29 -4 57
-15 37 -20 180 -6 189 4 2 8 23 9 46 1 23 4 44 6 46 2 2 14 -16 26 -41 12 -26
24 -46 27 -46 8 0 73 41 73 46 0 3 -7 15 -16 28 -18 28 -9 37 39 40 l32 1 -3
-79 c-1 -46 2 -84 8 -92 18 -21 1 -153 -22 -176 -19 -19 -19 -20 6 -59 15 -21
28 -39 31 -39 3 0 42 30 88 66 l84 65 -15 45 -14 44 -35 -30 c-19 -17 -38 -28
-44 -25 -14 9 -11 112 4 119 10 5 10 7 0 12 -15 7 -18 74 -3 74 6 0 10 17 10
38 0 35 1 37 34 37 27 0 34 -4 34 -20 2 -54 39 -167 79 -234 31 -54 120 -151
138 -151 7 0 18 7 26 16 7 8 28 23 46 33 l34 17 -56 38 c-78 54 -136 137 -175
250 l-17 51 119 0 c113 0 119 1 124 21 12 47 1 69 -38 78 -26 7 -45 6 -60 -2
-15 -8 -69 -11 -159 -10 l-137 3 4 140 c2 77 8 156 14 175 8 30 7 37 -7 48
-21 15 -82 9 -94 -9 -11 -18 -9 -98 2 -105 10 -6 11 -75 2 -185 l-5 -66 -37 7
c-51 9 -57 5 -53 -39 5 -54 -12 -59 -40 -10 -17 31 -27 40 -43 36 -19 -3 -21
1 -21 42 1 46 1 46 34 43 82 -10 121 16 107 70 -6 22 -12 25 -67 26 -34 1 -62
3 -64 5 -5 5 -5 113 0 148 5 32 3 37 -16 43 -13 3 -37 6 -54 6 l-31 0 2 -102z"/>
<path d="M752 901 c-18 -41 -56 -95 -88 -131 -31 -33 -55 -62 -53 -63 24 -17
91 -38 98 -31 4 5 41 56 81 112 40 57 79 106 87 109 24 9 14 22 -37 48 -27 14
-51 25 -52 25 -2 0 -18 -31 -36 -69z"/>
</g>
</svg>
