<?xml version="1.0" standalone="no"?>
<!DOCTYPE svg PUBLIC "-//W3C//DTD SVG 20010904//EN"
 "http://www.w3.org/TR/2001/REC-SVG-20010904/DTD/svg10.dtd">
<svg version="1.0" xmlns="http://www.w3.org/2000/svg"
 width="101.000000pt" height="101.000000pt" viewBox="0 0 101.000000 101.000000"
 preserveAspectRatio="xMidYMid meet">
<metadata>
Created by potrace 1.16, written by Peter Selinger 2001-2019
</metadata>
<g transform="translate(0.000000,101.000000) scale(0.100000,-0.100000)"
fill="#000000" stroke="none">
<path d="M185 1000 c-11 -5 -14 -9 -7 -9 13 -1 15 -37 6 -127 l-6 -59 -69 2
c-65 2 -69 1 -75 -22 -3 -14 -3 -36 0 -50 6 -25 9 -26 66 -22 37 2 61 0 63 -7
9 -26 -52 -157 -115 -247 l-39 -56 28 -42 c33 -51 36 -48 98 69 31 61 43 77
44 59 0 -13 3 -56 6 -95 3 -39 1 -120 -4 -180 -5 -60 -7 -111 -4 -114 2 -2 22
-3 45 -3 44 2 61 17 52 46 -7 23 7 21 49 -7 27 -18 38 -22 45 -13 19 24 60
114 82 182 27 80 29 90 35 165 2 30 6 69 8 85 3 17 5 36 6 43 1 10 5 10 17 -2
18 -18 56 -21 84 -6 17 9 18 6 15 -43 -11 -161 -47 -249 -138 -344 -28 -29
-49 -54 -46 -56 13 -11 81 -47 88 -47 13 0 79 94 109 155 31 62 60 147 68 200
11 68 15 101 16 120 0 17 7 20 53 20 50 0 52 -1 44 -22 -4 -12 -3 -33 3 -50 8
-21 7 -43 -5 -88 -10 -41 -12 -65 -5 -78 7 -13 5 -28 -6 -52 -9 -18 -14 -39
-11 -47 9 -23 -30 -51 -57 -42 -31 11 -68 12 -68 1 0 -4 7 -21 15 -37 8 -16
15 -33 14 -37 -6 -35 27 -39 109 -13 64 20 83 50 82 129 -1 77 6 201 14 251 4
19 9 67 11 107 5 66 4 72 -16 78 -11 4 -32 4 -47 0 -15 -4 -49 -8 -77 -8 l-50
-2 2 45 c1 25 4 53 8 62 9 23 -29 41 -70 34 l-34 -7 2 -67 c2 -65 1 -67 -22
-64 -41 6 -89 -7 -93 -25 -2 -10 -3 28 -3 82 l0 100 212 0 212 0 6 31 c10 56
5 59 -114 62 -65 2 -112 -1 -115 -7 -8 -12 -173 -14 -181 -1 -7 12 -85 10
-109 -2 -16 -9 -18 -19 -13 -82 3 -39 3 -63 0 -54 -2 10 -12 17 -21 16 -9 -1
-37 0 -62 0 l-45 2 2 73 c1 39 5 81 8 93 6 18 1 22 -25 28 -40 7 -49 7 -75 -4z
m229 -292 c-1 -24 -5 -51 -9 -61 -4 -10 -5 -47 -2 -83 2 -35 4 -64 2 -64 -1 0
-22 26 -45 58 -24 31 -44 58 -46 60 -1 2 -12 -2 -25 -8 -19 -11 -21 -10 -16 5
4 9 7 34 7 55 0 34 3 38 29 42 16 2 38 1 50 -3 20 -8 51 11 51 32 0 5 1 9 3 9
1 0 2 -19 1 -42z m-91 -262 c4 -11 21 -4 54 20 25 18 25 21 8 -81 -9 -53 -58
-155 -88 -183 l-25 -23 -5 103 c-4 57 -4 126 -2 153 3 28 5 61 6 75 1 22 3 21
25 -15 13 -22 25 -44 27 -49z"/>
</g>
</svg>
