<?xml version="1.0" standalone="no"?>
<!DOCTYPE svg PUBLIC "-//W3C//DTD SVG 20010904//EN"
 "http://www.w3.org/TR/2001/REC-SVG-20010904/DTD/svg10.dtd">
<svg version="1.0" xmlns="http://www.w3.org/2000/svg"
 width="101.000000pt" height="101.000000pt" viewBox="0 0 101.000000 101.000000"
 preserveAspectRatio="xMidYMid meet">
<metadata>
Created by potrace 1.16, written by Peter Selinger 2001-2019
</metadata>
<g transform="translate(0.000000,101.000000) scale(0.100000,-0.100000)"
fill="#000000" stroke="none">
<path d="M187 1002 c-1 -4 -3 -50 -3 -102 l1 -95 -72 1 -72 2 -7 -33 c-10 -56
8 -75 70 -75 37 0 56 -4 59 -14 8 -19 -61 -159 -107 -219 l-37 -48 25 -29 c13
-16 26 -35 29 -42 7 -19 22 -2 62 73 33 60 35 62 35 32 0 -18 5 -33 10 -33 15
0 12 -67 -2 -74 -10 -5 -10 -7 0 -12 14 -7 16 -124 3 -191 -9 -47 -2 -53 61
-45 45 5 51 20 33 73 -17 48 -20 99 -5 99 6 0 10 18 10 40 0 22 -4 40 -10 40
-5 0 -10 16 -10 35 0 19 4 35 9 35 6 0 11 24 13 53 l3 52 28 -48 29 -47 30 17
c49 30 52 39 27 80 -13 20 -36 52 -52 70 -27 31 -31 32 -51 20 -20 -14 -21
-13 -21 38 l0 52 42 -5 c82 -9 112 14 98 77 -6 29 -7 29 -78 29 -71 -1 -72 0
-75 26 -2 15 1 33 7 40 6 7 10 24 9 37 -1 13 2 39 6 57 4 17 4 32 -1 33 -56 7
-93 7 -96 1z"/>
<path d="M434 936 c-13 -10 -15 -20 -9 -42 4 -16 7 -77 6 -136 -1 -62 3 -109
9 -113 18 -11 12 -78 -14 -170 -10 -33 9 -49 55 -48 23 1 46 8 51 15 10 16 5
106 -13 210 -11 63 -11 81 0 101 7 14 12 44 10 68 l-4 44 123 1 122 0 0 -43
c0 -24 5 -43 10 -43 6 0 10 -11 10 -25 0 -14 -4 -25 -10 -25 -6 0 -10 -30 -10
-70 0 -40 4 -70 10 -70 6 0 10 -11 10 -25 0 -14 -4 -25 -8 -25 -5 0 -9 -27 -9
-59 0 -66 6 -71 67 -64 l35 5 -2 126 c-3 154 -3 182 1 297 2 59 0 93 -8 97
-16 11 -134 10 -141 -1 -7 -12 -172 -13 -180 -1 -8 13 -91 10 -111 -4z"/>
<path d="M607 793 c-9 -34 -7 -112 3 -118 14 -9 12 -47 -4 -86 -8 -19 -14 -50
-14 -69 0 -46 -35 -138 -72 -188 -34 -48 -79 -83 -159 -126 l-60 -32 51 -37
c47 -35 52 -37 73 -23 51 34 147 131 184 188 44 67 41 72 44 -74 2 -98 15
-121 63 -119 16 1 58 1 93 1 105 -1 139 23 156 113 6 31 4 38 -11 44 -11 3
-32 15 -47 26 -33 23 -38 20 -41 -25 -4 -53 -24 -81 -49 -73 -12 4 -32 7 -45
7 -15 0 -26 8 -32 23 -11 30 -2 167 14 206 8 17 -34 42 -57 34 -9 -4 -11 5 -8
32 2 21 4 86 3 146 -1 59 2 107 7 107 19 0 22 34 5 47 -27 20 -92 17 -97 -4z"/>
</g>
</svg>
