<?xml version="1.0" standalone="no"?>
<!DOCTYPE svg PUBLIC "-//W3C//DTD SVG 20010904//EN"
 "http://www.w3.org/TR/2001/REC-SVG-20010904/DTD/svg10.dtd">
<svg version="1.0" xmlns="http://www.w3.org/2000/svg"
 width="101.000000pt" height="102.000000pt" viewBox="0 0 101.000000 102.000000"
 preserveAspectRatio="xMidYMid meet">
<metadata>
Created by potrace 1.16, written by Peter Selinger 2001-2019
</metadata>
<g transform="translate(0.000000,102.000000) scale(0.100000,-0.100000)"
fill="#000000" stroke="none">
<path d="M409 972 l-14 -47 -69 3 c-38 2 -84 1 -101 -2 -28 -6 -32 -10 -33
-41 -1 -19 3 -37 8 -40 12 -8 11 -166 -1 -181 -5 -7 -8 -38 -7 -70 3 -59 3
-59 36 -62 18 -2 32 1 32 7 0 12 138 15 156 3 6 -4 13 -24 16 -46 l4 -38 -135
7 c-159 8 -191 1 -191 -42 0 -51 7 -54 128 -48 64 3 112 1 112 -4 0 -17 -104
-93 -165 -122 -33 -15 -75 -31 -94 -34 -51 -9 -54 -14 -23 -43 16 -15 33 -35
38 -45 10 -17 12 -17 50 -1 66 27 167 100 228 164 32 34 56 55 53 46 -3 -8 -1
-27 5 -43 8 -22 7 -41 -4 -79 -18 -61 -13 -120 11 -127 9 -2 31 -2 48 0 26 4
32 10 36 36 2 18 0 43 -5 56 -8 22 -11 83 -7 154 l1 29 15 -24 c51 -76 167
-169 267 -213 l53 -23 37 55 c20 31 35 58 33 60 -2 1 -28 5 -58 8 -70 6 -163
52 -216 107 l-42 43 43 0 c43 0 44 -1 67 -52 25 -57 37 -61 112 -29 48 19 75
79 82 179 3 40 8 91 10 114 l4 42 -66 7 c-44 4 -78 2 -105 -7 -38 -12 -113
-14 -354 -7 l-111 3 1 105 1 105 112 -3 c70 -2 114 1 118 8 8 13 52 13 61 -1
4 -8 29 -10 70 -6 l63 5 -10 -25 c-5 -14 -7 -28 -5 -32 12 -19 -15 -35 -53
-32 -22 1 -45 0 -50 -3 -10 -7 25 -96 41 -107 12 -7 102 24 125 43 26 21 48
93 60 195 l5 43 -116 -6 c-78 -4 -121 -2 -130 5 -7 6 -34 10 -59 8 l-46 -3 26
34 c31 41 22 53 -40 58 l-44 4 -14 -48z m398 -436 c15 -14 -5 -140 -24 -153
-25 -19 -29 -16 -26 20 6 52 -3 56 -118 59 l-106 3 4 33 c3 23 -1 32 -12 32
-8 0 -15 5 -15 11 0 8 41 9 148 4 81 -4 148 -8 149 -9z"/>
<path d="M391 776 l-33 -34 35 -11 c19 -7 56 -26 81 -43 l47 -31 30 29 c16 15
29 33 29 39 0 10 -51 39 -126 71 -30 12 -33 11 -63 -20z"/>
</g>
</svg>
