<?xml version="1.0" standalone="no"?>
<!DOCTYPE svg PUBLIC "-//W3C//DTD SVG 20010904//EN"
 "http://www.w3.org/TR/2001/REC-SVG-20010904/DTD/svg10.dtd">
<svg version="1.0" xmlns="http://www.w3.org/2000/svg"
 width="101.000000pt" height="101.000000pt" viewBox="0 0 101.000000 101.000000"
 preserveAspectRatio="xMidYMid meet">
<metadata>
Created by potrace 1.16, written by Peter Selinger 2001-2019
</metadata>
<g transform="translate(0.000000,101.000000) scale(0.100000,-0.100000)"
fill="#000000" stroke="none">
<path d="M158 973 c1 -21 -1 -72 -5 -113 -8 -72 -9 -75 -35 -78 -16 -2 -28 2
-28 8 0 6 -10 10 -22 8 -25 -3 -33 -26 -24 -64 6 -22 11 -24 56 -21 28 1 50 0
50 -3 0 -30 -52 -147 -92 -206 l-49 -74 19 -27 c10 -16 22 -37 26 -47 9 -25
14 -19 57 72 27 57 37 71 38 52 0 -14 3 -56 6 -95 2 -38 1 -118 -3 -177 -8
-119 -8 -118 59 -110 34 4 35 5 33 43 -1 21 0 39 2 39 2 0 19 -14 39 -31 l35
-31 20 23 c46 56 112 208 126 289 1 8 6 31 9 50 4 19 9 62 11 95 6 113 18 161
42 167 15 4 17 -6 15 -85 -1 -50 -4 -96 -7 -104 -3 -7 -1 -24 5 -36 8 -17 7
-40 -1 -83 -7 -32 -12 -70 -12 -84 0 -14 -4 -42 -9 -63 -10 -38 -16 -41 -72
-37 -28 2 -28 1 -14 -27 8 -15 17 -40 21 -55 7 -32 28 -36 81 -14 63 27 75 62
80 241 2 61 6 126 10 145 3 19 8 92 9 161 l4 127 -37 6 c-20 3 -51 6 -69 6
-31 0 -33 2 -28 28 3 15 6 49 8 75 2 56 -7 66 -64 65 -34 0 -38 -3 -44 -33 -3
-18 -3 -44 1 -57 5 -12 8 -39 9 -58 l1 -36 -42 3 c-30 3 -43 0 -43 -9 0 -9
-15 -13 -47 -12 l-48 1 -3 42 c-2 24 2 48 7 55 6 7 10 24 10 37 -1 13 1 31 5
40 8 18 -17 29 -69 29 -29 0 -30 -2 -27 -37z m262 -245 c0 -4 -4 -18 -10 -32
-6 -18 -6 -34 2 -50 8 -19 7 -37 -2 -73 -7 -26 -14 -59 -16 -73 -16 -142 -43
-211 -103 -270 l-46 -45 -7 90 c-4 50 -5 124 -3 165 3 41 6 85 6 98 1 12 3 22
5 22 2 0 15 -21 30 -47 15 -27 29 -50 30 -52 4 -5 74 40 74 48 0 4 -18 34 -41
65 -30 42 -45 56 -58 51 -9 -4 -21 -9 -26 -11 -6 -3 -10 16 -10 46 l0 50 35 1
c19 1 38 1 43 0 4 0 7 5 7 12 0 8 15 12 45 12 25 0 45 -3 45 -7z"/>
<path d="M679 863 c-14 -3 -15 -23 -13 -146 4 -152 4 -174 4 -282 1 -38 2
-108 3 -155 1 -47 -2 -97 -6 -111 -10 -30 7 -39 60 -32 24 4 32 11 36 31 3 14
1 35 -3 47 -7 19 -4 21 35 23 l43 1 -5 -48 c-5 -54 5 -62 64 -54 36 6 47 31
31 72 -6 16 -7 76 -3 162 5 96 4 139 -4 143 -14 9 -15 152 -1 161 5 3 9 34 9
68 -1 34 1 69 5 78 12 27 -22 52 -58 44 -36 -7 -144 -9 -166 -2 -8 3 -22 3
-31 0z m158 -175 c1 -46 2 -110 2 -143 0 -33 0 -99 0 -147 l0 -88 -43 2 -43 2
1 221 1 220 40 6 c22 3 40 7 40 8 0 0 1 -36 2 -81z"/>
</g>
</svg>
