<?xml version="1.0" standalone="no"?>
<!DOCTYPE svg PUBLIC "-//W3C//DTD SVG 20010904//EN"
 "http://www.w3.org/TR/2001/REC-SVG-20010904/DTD/svg10.dtd">
<svg version="1.0" xmlns="http://www.w3.org/2000/svg"
 width="101.000000pt" height="101.000000pt" viewBox="0 0 101.000000 101.000000"
 preserveAspectRatio="xMidYMid meet">
<metadata>
Created by potrace 1.16, written by Peter Selinger 2001-2019
</metadata>
<g transform="translate(0.000000,101.000000) scale(0.100000,-0.100000)"
fill="#000000" stroke="none">
<path d="M654 951 l1 -59 -45 -5 c-85 -10 -152 -8 -166 3 -7 7 -35 10 -63 8
-27 -1 -48 -1 -46 2 2 3 5 25 6 49 l4 45 -58 0 -57 1 3 -50 4 -51 -83 3 -82 3
-7 -30 c-13 -61 -3 -69 88 -67 l82 2 -3 -57 c-1 -31 2 -59 8 -63 15 -9 12 -88
-5 -112 -18 -26 -10 -51 19 -59 11 -3 60 -3 107 -1 l85 4 0 -32 -1 -32 -115
-6 c-108 -5 -160 -4 -237 6 -35 4 -44 -11 -36 -57 6 -32 18 -34 103 -20 64 10
135 14 169 8 l34 -5 -48 -49 c-48 -49 -145 -106 -218 -130 -20 -6 -37 -15 -36
-18 0 -4 18 -22 39 -40 l39 -33 43 22 c71 36 162 104 215 163 58 63 54 71 56
-96 2 -117 3 -120 65 -110 28 4 32 7 25 26 -4 11 -7 59 -6 106 4 143 0 136 45
80 47 -59 142 -130 222 -165 65 -29 76 -30 76 -11 0 8 11 28 25 44 14 17 25
32 25 35 0 3 -26 13 -57 22 -76 22 -181 77 -220 115 -18 17 -33 33 -33 34 0
10 240 12 276 3 29 -7 32 -6 37 18 9 52 -1 66 -45 58 -37 -5 -276 -8 -323 -3
-15 2 -20 10 -20 31 0 27 3 29 38 29 20 0 37 5 37 11 0 8 20 9 66 4 74 -8 89
1 73 42 -5 13 -6 71 -2 131 l6 107 84 0 c91 0 102 8 88 63 -8 33 -22 43 -49
32 -12 -4 -45 -5 -73 -3 -52 5 -61 14 -53 48 15 66 16 65 -48 65 l-59 0 1 -59z
m-149 -141 c4 -7 37 -9 86 -6 l80 5 -3 -27 -3 -27 -166 0 -165 0 4 23 c4 19
10 22 53 22 26 0 51 5 54 10 8 13 52 13 60 0z m150 -170 l0 -31 -160 3 c-157
3 -160 3 -161 25 -2 22 1 23 135 26 75 1 147 4 161 5 22 2 25 -2 25 -28z"/>
</g>
</svg>
