<?xml version="1.0" standalone="no"?>
<!DOCTYPE svg PUBLIC "-//W3C//DTD SVG 20010904//EN"
 "http://www.w3.org/TR/2001/REC-SVG-20010904/DTD/svg10.dtd">
<svg version="1.0" xmlns="http://www.w3.org/2000/svg"
 width="101.000000pt" height="101.000000pt" viewBox="0 0 101.000000 101.000000"
 preserveAspectRatio="xMidYMid meet">
<metadata>
Created by potrace 1.16, written by Peter Selinger 2001-2019
</metadata>
<g transform="translate(0.000000,101.000000) scale(0.100000,-0.100000)"
fill="#000000" stroke="none">
<path d="M525 913 l0 -98 -37 3 c-21 2 -43 0 -50 -4 -7 -5 -20 -9 -28 -9 -41
-4 -48 -6 -53 -19 -7 -19 14 -74 30 -80 15 -6 63 13 63 26 0 4 16 7 35 5 34
-2 35 -4 36 -42 1 -22 2 -47 3 -55 2 -8 3 -25 4 -38 3 -37 55 -61 132 -61 109
0 190 15 216 40 19 18 37 61 39 91 0 8 -97 59 -102 54 -2 -2 -5 -18 -8 -36 -2
-18 -8 -37 -13 -42 -7 -7 -114 -13 -157 -9 -5 1 -10 24 -10 51 0 55 5 59 75
67 19 2 51 6 70 8 19 3 48 5 64 5 63 -1 77 21 59 92 -4 17 -39 21 -58 7 -6 -4
-31 -10 -55 -14 -25 -3 -56 -8 -70 -10 -14 -2 -40 -5 -58 -7 l-33 -4 5 57 c3
32 9 67 15 78 14 26 2 33 -63 38 l-51 4 0 -98z"/>
<path d="M172 967 c-25 -26 -28 -43 -9 -50 7 -3 43 -28 79 -55 l66 -51 19 22
c48 55 49 50 -34 106 -42 28 -82 51 -88 51 -7 0 -21 -10 -33 -23z"/>
<path d="M88 819 c-13 -17 -21 -34 -18 -37 2 -4 36 -27 74 -50 l71 -44 28 32
c15 17 25 35 22 39 -5 9 -140 91 -149 91 -3 0 -16 -14 -28 -31z"/>
<path d="M300 688 c-38 -26 -176 -98 -213 -111 -13 -5 31 -97 46 -97 5 0 29
14 54 32 25 17 78 49 118 72 l72 41 -16 47 -16 47 -45 -31z"/>
<path d="M437 563 c-2 -4 -4 -29 -3 -54 l1 -47 -100 -6 c-98 -5 -148 -3 -231
8 -35 4 -43 2 -47 -13 -13 -52 22 -93 62 -72 21 11 166 12 211 3 l35 -8 -65
-48 c-76 -56 -137 -89 -200 -107 -25 -7 -48 -15 -52 -18 -3 -3 9 -27 26 -54
l33 -47 93 59 c52 32 126 88 166 124 63 58 72 64 73 44 6 -86 5 -195 -2 -213
-9 -26 9 -33 66 -26 36 4 38 6 30 31 -4 14 -7 67 -6 116 4 147 0 141 48 77 60
-83 131 -132 251 -178 60 -22 65 -23 71 -7 3 10 17 33 30 51 14 18 23 36 20
38 -3 3 -20 7 -39 9 -86 11 -214 73 -267 129 l-23 24 24 2 c13 1 83 2 156 2
127 1 132 2 134 22 4 62 -10 80 -51 64 -14 -5 -89 -10 -166 -10 -190 0 -184
-1 -179 30 3 15 10 32 16 40 15 18 -6 32 -49 32 -17 0 -38 3 -46 6 -8 3 -17 2
-20 -3z"/>
</g>
</svg>
