<?xml version="1.0" standalone="no"?>
<!DOCTYPE svg PUBLIC "-//W3C//DTD SVG 20010904//EN"
 "http://www.w3.org/TR/2001/REC-SVG-20010904/DTD/svg10.dtd">
<svg version="1.0" xmlns="http://www.w3.org/2000/svg"
 width="101.000000pt" height="102.000000pt" viewBox="0 0 101.000000 102.000000"
 preserveAspectRatio="xMidYMid meet">
<metadata>
Created by potrace 1.16, written by Peter Selinger 2001-2019
</metadata>
<g transform="translate(0.000000,102.000000) scale(0.100000,-0.100000)"
fill="#000000" stroke="none">
<path d="M513 947 l2 -72 -38 4 c-65 6 -104 -6 -111 -35 -12 -47 0 -61 51 -62
25 0 56 4 68 8 20 8 22 6 19 -21 -9 -76 -60 -145 -141 -191 l-54 -31 28 -17
c15 -9 34 -24 42 -33 12 -16 15 -15 41 3 16 11 30 20 32 20 3 0 4 -15 4 -34
-1 -32 -3 -35 -41 -40 -57 -8 -174 -6 -180 4 -3 4 -31 8 -62 8 -32 0 -65 3
-73 6 -22 9 -39 -6 -45 -39 -10 -52 8 -62 85 -50 66 11 187 15 208 8 20 -8 16
-12 -36 -54 -60 -49 -151 -98 -217 -118 -22 -7 -46 -15 -54 -17 -10 -3 -2 -18
29 -49 l43 -44 51 26 c81 41 166 102 233 168 49 48 61 56 62 40 1 -11 3 -46 5
-78 3 -36 -1 -75 -9 -98 -22 -61 -5 -81 62 -72 35 6 47 31 33 69 -9 22 -14
124 -10 183 2 23 3 23 28 -10 49 -65 144 -147 212 -183 78 -41 96 -44 105 -16
4 11 18 34 32 50 29 35 27 40 -13 45 -72 9 -234 91 -272 137 -11 14 -9 16 10
17 13 0 59 3 103 7 48 3 101 0 133 -7 28 -7 55 -10 58 -6 13 12 8 79 -6 88
-22 13 -84 11 -98 -3 -9 -9 -47 -12 -125 -11 -164 3 -153 0 -149 42 3 33 0 37
-32 51 l-36 15 30 43 c32 48 73 148 79 193 1 3 14 4 30 1 16 -2 37 1 47 6 17
9 19 6 16 -36 -8 -111 -10 -128 -17 -145 -13 -31 23 -94 57 -101 7 -2 29 -6
50 -10 42 -9 101 8 136 38 29 25 52 98 33 104 -7 2 -24 14 -39 27 l-26 23 -16
-46 c-14 -41 -18 -45 -50 -47 l-35 -2 3 61 c1 34 6 90 12 126 5 36 7 72 4 82
-6 22 -31 30 -54 18 -10 -5 -47 -7 -83 -3 -62 5 -65 7 -57 27 4 12 8 38 8 58
0 32 -3 37 -30 42 -75 15 -77 14 -75 -67z"/>
<path d="M162 957 c-21 -29 -21 -33 -6 -42 9 -5 43 -27 76 -49 32 -21 60 -37
62 -35 1 2 12 17 24 33 12 16 22 33 22 38 0 12 -120 88 -139 88 -9 0 -26 -15
-39 -33z"/>
<path d="M82 810 c-12 -16 -22 -32 -22 -34 0 -3 19 -15 43 -27 23 -12 57 -32
75 -46 18 -14 34 -23 36 -22 25 34 46 69 46 76 0 9 -101 67 -136 77 -15 5 -26
-1 -42 -24z"/>
<path d="M265 663 c-33 -20 -88 -49 -122 -65 -35 -15 -63 -31 -63 -34 0 -12
46 -84 54 -84 11 0 79 38 163 92 44 28 60 44 56 55 -3 8 -6 27 -7 41 -1 14 -5
27 -11 29 -5 1 -37 -13 -70 -34z"/>
</g>
</svg>
