<?xml version="1.0" standalone="no"?>
<!DOCTYPE svg PUBLIC "-//W3C//DTD SVG 20010904//EN"
 "http://www.w3.org/TR/2001/REC-SVG-20010904/DTD/svg10.dtd">
<svg version="1.0" xmlns="http://www.w3.org/2000/svg"
 width="101.000000pt" height="101.000000pt" viewBox="0 0 101.000000 101.000000"
 preserveAspectRatio="xMidYMid meet">
<metadata>
Created by potrace 1.16, written by Peter Selinger 2001-2019
</metadata>
<g transform="translate(0.000000,101.000000) scale(0.100000,-0.100000)"
fill="#000000" stroke="none">
<path d="M194 908 l-2 -103 -51 -3 c-31 -2 -51 1 -51 7 0 17 -40 13 -46 -4 -4
-8 -3 -31 0 -50 6 -30 11 -35 43 -41 20 -4 49 -2 65 4 21 8 28 7 28 -2 0 -30
-82 -176 -125 -224 -45 -50 -48 -56 -35 -75 8 -12 20 -35 28 -51 l15 -29 23
29 c13 16 43 64 68 107 32 57 44 72 45 55 0 -13 3 -61 6 -109 4 -62 1 -97 -10
-128 -11 -31 -12 -48 -5 -62 6 -11 8 -40 4 -68 -7 -54 3 -62 64 -53 27 4 32 8
32 33 l0 29 57 -25 c53 -24 57 -24 75 -8 44 39 107 211 113 308 2 28 7 73 11
100 4 28 7 59 7 70 0 18 7 20 69 22 58 2 69 0 64 -12 -3 -9 -1 -26 6 -39 6
-14 8 -36 4 -51 l-7 -26 -28 21 c-16 11 -33 20 -38 20 -10 0 -63 -52 -63 -62
0 -3 29 -24 64 -46 48 -30 64 -46 65 -64 0 -12 3 -57 6 -99 3 -52 1 -89 -9
-116 -20 -57 -8 -69 66 -65 25 2 27 5 27 49 0 27 0 57 0 68 1 11 -1 46 -3 79
l-4 59 57 -57 58 -58 32 40 c17 22 31 44 31 49 0 9 -129 110 -165 131 -14 7
-19 70 -14 153 1 30 5 31 113 29 75 -1 86 6 86 52 0 17 -7 31 -19 38 -24 12
-68 13 -75 1 -9 -14 -145 -24 -160 -11 -8 6 -46 9 -92 8 l-79 -3 0 65 0 66 35
1 c48 1 133 8 205 18 33 4 81 8 108 7 26 0 47 4 47 9 0 18 -51 99 -63 100 -12
1 -18 1 -52 -8 -11 -2 -27 -5 -35 -5 -8 0 -22 -2 -30 -5 -31 -11 -151 -23
-231 -22 -86 0 -92 -10 -83 -140 9 -122 9 -205 0 -220 -4 -5 -1 -21 5 -35 10
-20 9 -35 -1 -68 -7 -24 -15 -58 -17 -76 -6 -53 -38 -127 -78 -182 -39 -53
-54 -62 -56 -32 -1 9 -3 33 -6 52 -7 58 -5 280 3 280 2 0 13 -19 25 -42 12
-24 23 -44 24 -46 6 -6 85 38 85 48 0 5 -20 37 -44 72 -34 50 -48 63 -67 61
-22 -1 -24 2 -24 50 l0 52 57 -2 c64 -2 75 10 63 68 -5 23 -12 30 -28 28 -12
0 -39 -1 -59 0 l-38 1 5 73 c2 40 7 81 11 90 3 9 5 17 3 18 -2 0 -29 2 -59 5
l-55 5 -1 -103z"/>
</g>
</svg>
