<?xml version="1.0" standalone="no"?>
<!DOCTYPE svg PUBLIC "-//W3C//DTD SVG 20010904//EN"
 "http://www.w3.org/TR/2001/REC-SVG-20010904/DTD/svg10.dtd">
<svg version="1.0" xmlns="http://www.w3.org/2000/svg"
 width="101.000000pt" height="101.000000pt" viewBox="0 0 101.000000 101.000000"
 preserveAspectRatio="xMidYMid meet">
<metadata>
Created by potrace 1.16, written by Peter Selinger 2001-2019
</metadata>
<g transform="translate(0.000000,101.000000) scale(0.100000,-0.100000)"
fill="#000000" stroke="none">
<path d="M186 999 c3 -6 3 -53 -1 -105 l-7 -94 -67 6 c-77 7 -87 -1 -75 -61
l6 -33 68 1 68 2 -19 -48 c-31 -77 -69 -149 -108 -202 l-37 -50 26 -48 c32
-57 31 -58 94 68 32 65 45 83 45 65 3 -46 2 -225 -1 -317 -3 -102 -3 -103 64
-95 41 5 52 21 38 58 -8 21 -16 321 -10 394 l2 24 19 -24 c10 -14 26 -40 36
-58 18 -32 24 -34 65 -17 15 6 16 0 12 -54 -5 -67 -4 -67 61 -62 33 3 47 18
39 42 -3 12 2 17 18 18 13 0 39 2 58 3 32 3 35 1 38 -27 7 -66 7 -222 -1 -256
-9 -42 2 -49 65 -41 36 4 36 4 30 41 -6 30 -7 183 -1 257 1 15 8 22 23 23 11
0 37 2 56 3 30 3 35 0 36 -20 1 -12 3 -25 6 -27 6 -6 35 -9 74 -7 29 2 31 4
29 45 -1 23 -8 60 -14 80 -8 23 -10 57 -6 85 3 26 7 94 9 152 2 58 6 126 10
152 5 25 5 55 2 66 -6 18 -13 20 -61 15 -37 -4 -60 -2 -70 7 -9 8 -25 10 -42
5 -36 -10 -223 -13 -229 -4 -2 4 -33 7 -68 7 -56 -1 -65 -3 -70 -21 -3 -11 -2
-27 2 -36 12 -25 8 -106 -5 -106 -6 0 -15 -3 -19 -7 -4 -5 -28 -8 -53 -8 l-46
0 2 84 c0 46 6 93 12 104 14 27 6 32 -56 32 -37 0 -52 -4 -47 -11z m429 -197
l1 -77 -64 0 -64 0 6 50 c3 28 6 60 6 72 0 19 6 22 53 26 28 2 54 4 57 5 3 1
5 -33 5 -76z m211 -2 l2 -75 -57 0 -56 0 0 75 0 75 55 0 55 0 1 -75z m-421
-179 l4 -101 -41 61 c-22 33 -46 58 -52 56 -42 -18 -41 -18 -41 28 l-1 45 46
1 c25 1 51 1 58 0 6 -1 12 4 12 10 0 7 2 10 5 7 3 -3 8 -51 10 -107z m210 -55
c7 -78 0 -90 -50 -81 -16 3 -40 6 -52 7 -22 0 -23 4 -20 72 l2 71 56 0 57 0 7
-69z m210 -4 l0 -77 -35 3 c-19 1 -45 3 -58 3 -21 1 -22 5 -20 68 l3 66 55 6
c30 3 55 6 55 7 0 1 0 -33 0 -76z"/>
</g>
</svg>
