<?xml version="1.0" standalone="no"?>
<!DOCTYPE svg PUBLIC "-//W3C//DTD SVG 20010904//EN"
 "http://www.w3.org/TR/2001/REC-SVG-20010904/DTD/svg10.dtd">
<svg version="1.0" xmlns="http://www.w3.org/2000/svg"
 width="101.000000pt" height="101.000000pt" viewBox="0 0 101.000000 101.000000"
 preserveAspectRatio="xMidYMid meet">
<metadata>
Created by potrace 1.16, written by Peter Selinger 2001-2019
</metadata>
<g transform="translate(0.000000,101.000000) scale(0.100000,-0.100000)"
fill="#000000" stroke="none">
<path d="M615 979 c-4 -17 -4 -65 0 -106 l7 -74 -84 6 c-90 7 -92 7 -191 3
l-69 -3 7 70 c3 39 8 81 11 95 4 24 3 25 -51 25 -41 0 -56 -4 -59 -15 -8 -29
-5 -84 5 -97 6 -6 9 -26 7 -44 l-3 -33 -77 1 -77 2 -6 -29 c-10 -47 2 -68 41
-76 20 -4 46 -2 60 5 39 17 47 14 39 -16 -11 -48 -83 -193 -120 -245 l-36 -49
23 -28 c13 -16 28 -37 35 -47 10 -17 17 -6 61 85 35 72 51 96 52 80 4 -52 1
-336 -5 -365 -6 -36 7 -43 65 -37 l35 5 2 79 c1 43 -3 81 -8 84 -11 7 -11 173
0 180 4 2 8 23 9 46 3 57 8 59 23 7 7 -23 15 -47 19 -51 8 -9 80 22 80 35 0
10 -49 108 -62 125 -7 9 -16 9 -34 1 -13 -6 -26 -9 -29 -7 -2 3 -1 30 2 61 5
52 8 56 34 60 16 3 32 1 37 -4 10 -10 42 0 42 13 0 5 3 9 8 9 14 0 15 -311 1
-598 -1 -13 2 -26 5 -30 7 -7 85 -6 92 1 3 2 5 24 6 49 2 38 6 46 23 47 11 1
45 3 75 6 30 3 91 2 135 -1 l81 -5 2 -46 c1 -25 4 -49 7 -52 3 -3 24 -4 47 -4
41 2 62 18 50 38 -17 27 -15 595 2 636 4 10 0 23 -10 34 -14 14 -28 16 -73 11
-104 -12 -141 -12 -146 2 -9 24 -5 91 6 97 5 4 9 17 7 28 -1 12 1 28 5 35 14
22 -3 32 -53 32 -46 0 -49 -1 -55 -31z m0 -347 l0 -97 -30 3 c-16 1 -40 3 -52
3 -26 1 -27 13 -17 117 7 65 10 67 74 71 l25 1 0 -98z m210 0 l0 -97 -35 3
c-19 1 -44 3 -55 3 -18 1 -20 8 -20 88 l0 86 30 6 c17 4 41 7 55 8 l25 1 0
-98z m-207 -182 c9 -84 9 -146 1 -168 -8 -20 -14 -23 -37 -17 -15 3 -37 7 -49
7 -26 0 -34 28 -27 103 2 28 4 60 5 73 1 16 6 21 18 18 9 -3 23 -1 31 4 26 17
55 7 58 -20z m210 0 c9 -84 9 -146 1 -168 -8 -21 -14 -23 -42 -18 -17 4 -42 7
-54 8 -26 0 -34 28 -27 103 2 28 4 60 5 73 1 16 6 21 18 18 9 -3 23 -1 31 4 8
6 26 9 40 8 18 -2 26 -10 28 -28z"/>
</g>
</svg>
