<?xml version="1.0" standalone="no"?>
<!DOCTYPE svg PUBLIC "-//W3C//DTD SVG 20010904//EN"
 "http://www.w3.org/TR/2001/REC-SVG-20010904/DTD/svg10.dtd">
<svg version="1.0" xmlns="http://www.w3.org/2000/svg"
 width="101.000000pt" height="101.000000pt" viewBox="0 0 101.000000 101.000000"
 preserveAspectRatio="xMidYMid meet">
<metadata>
Created by potrace 1.16, written by Peter Selinger 2001-2019
</metadata>
<g transform="translate(0.000000,101.000000) scale(0.100000,-0.100000)"
fill="#000000" stroke="none">
<path d="M205 999 c4 -5 4 -57 0 -114 l-7 -104 -82 2 c-78 2 -81 1 -84 -22 -2
-12 -1 -33 2 -46 6 -22 10 -23 75 -19 l70 4 -18 -53 c-23 -66 -76 -173 -107
-214 -13 -17 -24 -35 -24 -38 0 -13 45 -105 51 -105 4 0 31 54 60 120 29 66
54 119 55 117 8 -8 11 -304 3 -323 -5 -16 -5 -33 3 -49 8 -19 8 -28 -2 -40 -7
-8 -10 -19 -6 -22 6 -7 96 -7 101 -1 1 2 -2 39 -7 83 -6 55 -5 91 2 115 6 19
10 83 8 142 l-3 108 29 -58 c15 -31 30 -59 32 -61 7 -7 84 32 84 42 0 5 -19
40 -42 78 -42 66 -62 81 -85 58 -20 -20 -33 1 -33 50 l0 48 64 -4 c71 -5 96 9
96 52 0 36 -28 58 -64 51 -17 -3 -43 -7 -57 -9 l-26 -3 3 91 c1 49 5 97 9 106
4 11 -1 18 -17 23 -38 10 -90 7 -83 -5z"/>
<path d="M463 952 c-7 -5 -10 -42 -7 -102 2 -52 3 -112 3 -132 0 -35 0 -94 1
-373 0 -49 -1 -116 -2 -147 -3 -60 2 -66 42 -58 8 1 42 4 75 6 33 2 86 6 118
8 36 3 75 -1 99 -10 29 -10 45 -11 60 -3 11 6 36 8 58 4 36 -6 40 -5 46 19 3
14 3 37 0 51 -6 23 -9 24 -54 17 -26 -3 -62 -6 -79 -5 -18 1 -42 2 -53 2 -36
0 -114 1 -169 4 l-53 2 7 70 c4 39 8 71 10 73 2 2 37 3 79 3 42 0 78 4 82 10
4 7 32 8 78 4 l71 -7 2 139 c2 76 4 147 5 158 3 19 -2 20 -134 16 -96 -2 -138
0 -138 8 0 6 -13 11 -28 11 -28 0 -28 0 -27 68 l0 67 185 -1 c197 -2 200 -1
200 48 0 35 -27 62 -54 53 -12 -4 -58 -6 -103 -5 -53 1 -83 -2 -83 -9 0 -13
-67 -15 -72 -2 -4 10 -151 22 -165 13z m313 -403 l2 -82 -82 7 c-44 3 -95 6
-112 6 l-31 0 1 70 1 69 95 4 c52 1 102 4 110 5 12 1 15 -14 16 -79z"/>
</g>
</svg>
