<?xml version="1.0" standalone="no"?>
<!DOCTYPE svg PUBLIC "-//W3C//DTD SVG 20010904//EN"
 "http://www.w3.org/TR/2001/REC-SVG-20010904/DTD/svg10.dtd">
<svg version="1.0" xmlns="http://www.w3.org/2000/svg"
 width="101.000000pt" height="102.000000pt" viewBox="0 0 101.000000 102.000000"
 preserveAspectRatio="xMidYMid meet">
<metadata>
Created by potrace 1.16, written by Peter Selinger 2001-2019
</metadata>
<g transform="translate(0.000000,102.000000) scale(0.100000,-0.100000)"
fill="#000000" stroke="none">
<path d="M200 1012 c-17 -8 -21 -113 -7 -144 5 -9 7 -29 5 -44 -3 -27 -3 -27
-75 -26 -68 1 -73 0 -78 -21 -4 -13 -1 -36 5 -51 10 -28 12 -29 71 -23 57 5
59 4 53 -16 -18 -56 -69 -156 -109 -214 -25 -35 -45 -66 -45 -69 0 -9 53 -84
60 -84 4 0 25 36 46 80 51 104 65 92 59 -49 -13 -289 -16 -274 51 -264 l30 5
1 96 c1 53 1 107 2 120 0 64 2 122 4 169 2 52 2 53 19 30 10 -12 23 -34 29
-49 15 -36 27 -35 71 5 38 35 44 36 159 40 89 2 80 20 82 -160 1 -85 -3 -127
-11 -135 -7 -7 -36 -12 -68 -11 -48 1 -54 -1 -48 -16 4 -9 13 -35 21 -57 14
-40 15 -41 56 -38 22 2 61 14 86 26 l46 23 2 165 c2 231 -5 209 62 204 31 -2
65 -4 76 -4 84 3 86 4 91 26 9 35 0 70 -16 65 -42 -11 -213 -11 -227 0 -10 9
-17 9 -25 1 -15 -15 -75 -16 -83 -2 -4 6 -44 9 -98 8 l-92 -3 0 -43 c0 -30 -3
-39 -10 -29 -59 78 -88 106 -104 98 -14 -8 -16 -2 -16 38 l0 46 32 -3 c52 -6
80 5 87 34 12 46 -16 86 -47 67 -6 -3 -27 -7 -46 -7 -30 -1 -37 3 -39 22 -2
13 1 29 7 35 5 7 9 35 9 62 0 28 2 57 6 66 11 25 -48 47 -84 31z"/>
<path d="M619 1008 l-35 -11 23 -66 c12 -36 23 -66 23 -66 0 0 -46 0 -103 1
-117 0 -115 2 -116 -91 -1 -84 6 -103 40 -110 30 -7 69 1 68 13 -1 4 -1 26 0
50 1 38 3 42 26 42 14 0 25 5 25 11 0 9 36 10 132 5 73 -4 135 -9 137 -12 2
-2 -3 -18 -12 -35 -8 -18 -13 -38 -10 -45 6 -16 56 -28 83 -19 17 5 19 13 17
63 -2 31 0 65 5 75 12 25 1 57 -18 50 -23 -9 -209 8 -193 17 11 7 10 20 -7 72
-22 67 -28 72 -85 56z"/>
</g>
</svg>
