<?xml version="1.0" standalone="no"?>
<!DOCTYPE svg PUBLIC "-//W3C//DTD SVG 20010904//EN"
 "http://www.w3.org/TR/2001/REC-SVG-20010904/DTD/svg10.dtd">
<svg version="1.0" xmlns="http://www.w3.org/2000/svg"
 width="101.000000pt" height="101.000000pt" viewBox="0 0 101.000000 101.000000"
 preserveAspectRatio="xMidYMid meet">
<metadata>
Created by potrace 1.16, written by Peter Selinger 2001-2019
</metadata>
<g transform="translate(0.000000,101.000000) scale(0.100000,-0.100000)"
fill="#000000" stroke="none">
<path d="M170 990 c0 -11 5 -20 10 -20 11 0 13 -50 4 -126 l-6 -51 -46 9 c-67
12 -77 6 -77 -47 -1 -43 1 -45 32 -51 18 -4 44 -4 58 -2 14 3 25 3 25 0 0 -19
-95 -194 -123 -226 l-34 -40 25 -48 c16 -30 29 -45 35 -39 5 5 31 51 57 102
36 70 49 87 50 69 6 -72 -1 -351 -9 -372 -14 -37 1 -53 50 -51 23 1 43 4 45 6
3 2 4 44 4 93 -2 382 -4 358 26 309 13 -22 24 -45 24 -52 0 -21 19 -24 49 -8
38 19 39 19 40 -7 0 -13 3 -56 6 -97 4 -62 1 -82 -16 -118 l-21 -43 28 -32
c15 -18 30 -33 34 -33 4 0 49 44 100 98 l92 97 -19 45 c-10 25 -20 45 -23 45
-3 0 -23 -23 -44 -51 -28 -38 -40 -48 -47 -38 -10 17 -10 111 1 124 5 6 7 33
7 61 l-2 52 59 6 c33 3 62 4 64 1 3 -3 7 -17 8 -32 8 -74 46 -209 74 -264 31
-61 77 -106 125 -125 37 -14 47 -14 61 -3 33 27 79 149 56 149 -5 0 -25 16
-45 36 l-34 36 -8 -29 c-4 -15 -9 -39 -10 -51 -5 -38 -12 -36 -44 8 -40 55
-65 133 -76 232 -2 21 -6 41 -8 45 -6 10 132 10 159 0 31 -11 56 17 52 57 l-3
31 -108 0 -108 0 6 38 c5 24 3 37 -4 37 -6 0 -11 11 -11 25 0 14 5 25 10 25 6
0 10 20 10 45 0 25 3 45 8 46 32 3 90 8 102 9 36 3 60 11 60 20 0 6 -12 29
-27 51 -28 43 -29 43 -103 24 -53 -14 -67 -17 -80 -17 -8 0 -22 -2 -30 -5 -26
-10 -63 -13 -133 -12 -37 0 -81 -2 -96 -6 -27 -6 -28 -9 -27 -56 3 -69 -1 -72
-70 -64 l-59 6 2 77 c1 42 4 86 5 97 3 18 -4 20 -54 23 -53 3 -58 1 -58 -18z
m456 -243 l0 -102 -62 0 -62 0 2 91 c0 51 5 91 11 92 6 1 27 3 47 5 20 1 40 6
44 10 16 16 19 2 20 -96z m-219 -145 c2 -91 0 -113 -9 -97 -6 11 -27 44 -45
72 -30 45 -38 51 -53 43 -26 -14 -25 -15 -25 35 l0 45 40 1 c31 1 90 12 90 18
0 0 1 -52 2 -117z"/>
<path d="M608 264 c-16 -8 -28 -17 -28 -20 0 -2 11 -27 25 -54 14 -27 25 -56
25 -65 0 -18 3 -18 53 -4 20 5 37 16 37 23 0 23 -61 136 -73 136 -7 -1 -24 -8
-39 -16z"/>
</g>
</svg>
