<?xml version="1.0" standalone="no"?>
<!DOCTYPE svg PUBLIC "-//W3C//DTD SVG 20010904//EN"
 "http://www.w3.org/TR/2001/REC-SVG-20010904/DTD/svg10.dtd">
<svg version="1.0" xmlns="http://www.w3.org/2000/svg"
 width="101.000000pt" height="101.000000pt" viewBox="0 0 101.000000 101.000000"
 preserveAspectRatio="xMidYMid meet">
<metadata>
Created by potrace 1.16, written by Peter Selinger 2001-2019
</metadata>
<g transform="translate(0.000000,101.000000) scale(0.100000,-0.100000)"
fill="#000000" stroke="none">
<path d="M444 959 l1 -54 -53 3 c-29 2 -58 -1 -65 -6 -16 -14 -167 -14 -184
-1 -20 17 -60 2 -67 -25 -15 -58 10 -68 163 -62 l103 4 -38 -40 c-52 -53 -146
-114 -217 -140 l-58 -21 40 -41 41 -41 40 22 39 23 5 -43 c15 -123 17 -155 7
-162 -14 -8 -14 -70 -1 -96 8 -14 21 -19 50 -19 22 0 40 5 40 10 0 15 67 12
74 -2 5 -11 7 -11 12 0 7 15 164 17 164 2 0 -5 18 -10 40 -10 23 0 40 5 40 11
0 8 25 9 86 4 l87 -7 -8 23 c-14 44 -18 170 -6 193 6 11 10 44 9 72 l-3 50 40
-23 c22 -12 47 -23 55 -23 9 0 32 20 53 44 40 49 37 54 -33 62 -49 6 -169 66
-219 111 l-43 38 78 -3 c44 -1 107 0 141 4 66 6 81 20 69 67 -5 21 -12 22
-116 25 -71 2 -110 -1 -110 -8 0 -5 -16 -10 -35 -10 -19 0 -35 5 -35 10 0 6
-18 10 -39 10 -44 0 -54 16 -39 59 5 13 7 26 4 28 -2 2 -29 7 -59 10 l-55 6 2
-54z m252 -300 c19 -12 33 -23 30 -26 -3 -3 -46 -6 -95 -7 -104 -2 -96 -12
-85 106 l7 66 54 -59 c30 -32 70 -68 89 -80z m-249 -35 c-3 -3 -44 -3 -91 1
l-85 7 82 78 82 78 9 -79 c5 -44 6 -82 3 -85z m-7 -85 c0 -9 34 -10 123 -5
l124 7 -1 -33 -1 -33 -195 0 -195 0 0 38 0 37 73 0 c47 0 72 -4 72 -11z m246
-159 c-1 -26 -5 -29 -49 -34 -32 -5 -54 -3 -63 5 -11 9 -18 9 -26 1 -15 -15
-75 -16 -83 -2 -4 6 -40 9 -88 8 -81 -3 -82 -3 -83 22 l-1 25 197 2 197 2 -1
-29z"/>
<path d="M88 214 c-21 -6 -33 -44 -24 -72 8 -23 42 -35 65 -22 9 5 59 7 111 5
126 -6 187 -6 299 0 57 2 102 0 114 -7 13 -7 61 -8 142 -3 121 7 123 7 128 32
11 60 8 62 -141 62 -76 -1 -166 -1 -202 0 -56 0 -230 0 -282 0 -80 0 -109 1
-148 5 -25 2 -53 2 -62 0z"/>
</g>
</svg>
