<?xml version="1.0" standalone="no"?>
<!DOCTYPE svg PUBLIC "-//W3C//DTD SVG 20010904//EN"
 "http://www.w3.org/TR/2001/REC-SVG-20010904/DTD/svg10.dtd">
<svg version="1.0" xmlns="http://www.w3.org/2000/svg"
 width="101.000000pt" height="101.000000pt" viewBox="0 0 101.000000 101.000000"
 preserveAspectRatio="xMidYMid meet">
<metadata>
Created by potrace 1.16, written by Peter Selinger 2001-2019
</metadata>
<g transform="translate(0.000000,101.000000) scale(0.100000,-0.100000)"
fill="#000000" stroke="none">
<path d="M164 913 l3 -100 -41 4 c-61 7 -96 -10 -96 -46 0 -55 48 -75 112 -47
16 7 16 3 -1 -56 -25 -83 -56 -161 -87 -214 l-25 -42 28 -41 c15 -22 31 -40
34 -41 4 0 20 41 37 91 25 76 32 88 40 72 10 -17 9 -134 -1 -243 -2 -25 -2
-68 1 -97 5 -55 17 -65 64 -56 20 4 24 11 25 41 1 20 2 46 3 57 1 11 -3 54 -9
96 -6 42 -9 112 -6 155 3 44 6 89 6 102 1 12 3 22 5 22 2 0 15 -22 29 -50 14
-27 28 -50 31 -50 3 0 18 9 33 19 l28 20 1 -32 c0 -18 -4 -42 -10 -53 -7 -16
-6 -29 6 -53 19 -35 23 -37 45 -17 9 7 37 26 64 41 l47 27 -9 -26 c-36 -94
-86 -150 -170 -189 -25 -12 -48 -23 -50 -24 -5 -3 70 -73 79 -73 16 0 126 93
157 131 37 47 66 125 69 189 2 25 5 61 8 80 3 19 8 96 11 171 l5 136 -25 11
c-37 17 -63 15 -74 -7 -6 -11 -10 -84 -8 -175 l2 -156 -29 -10 c-16 -6 -32 -7
-35 -4 -3 3 -5 45 -4 92 1 48 4 138 5 200 2 65 7 112 13 113 22 2 61 8 90 13
17 4 42 8 58 10 39 4 42 11 19 44 -38 52 -45 54 -96 32 -54 -23 -86 -30 -136
-33 l-35 -2 -3 -57 c-2 -36 1 -58 8 -58 5 0 10 -11 10 -25 0 -30 -20 -33 -27
-5 -5 18 -12 20 -58 17 l-53 -4 4 74 c1 41 8 81 15 89 17 20 9 24 -55 31 l-55
6 3 -100z m215 -337 l1 -49 -40 62 c-31 48 -45 61 -58 56 -32 -12 -37 -10 -34
15 2 14 3 35 4 46 0 19 5 21 43 17 30 -4 46 -1 56 10 12 13 15 7 20 -47 4 -33
7 -83 8 -110z"/>
<path d="M680 940 c-15 -9 -16 -28 -6 -175 7 -106 7 -144 2 -412 -2 -111 -6
-208 -9 -216 -11 -30 12 -42 74 -39 23 2 27 7 26 30 -1 15 0 77 2 137 l3 110
14 -46 c15 -49 27 -54 84 -31 48 18 53 34 45 132 -5 63 -4 90 4 90 7 0 11 26
11 70 0 40 -4 70 -10 70 -12 0 -14 147 -2 152 5 2 12 27 15 55 7 62 -9 88 -46
74 -22 -8 -171 -6 -185 3 -5 3 -14 1 -22 -4z m150 -227 c0 -100 3 -143 11
-143 8 0 10 -22 5 -75 -9 -97 -11 -102 -46 -102 -29 0 -30 2 -30 44 0 24 -4
43 -10 43 -5 0 -10 20 -10 45 0 25 5 45 10 45 6 0 10 30 10 70 0 40 -4 70 -10
70 -6 0 -10 31 -10 73 l0 72 40 0 40 0 0 -142z"/>
</g>
</svg>
