<?xml version="1.0" standalone="no"?>
<!DOCTYPE svg PUBLIC "-//W3C//DTD SVG 20010904//EN"
 "http://www.w3.org/TR/2001/REC-SVG-20010904/DTD/svg10.dtd">
<svg version="1.0" xmlns="http://www.w3.org/2000/svg"
 width="101.000000pt" height="102.000000pt" viewBox="0 0 101.000000 102.000000"
 preserveAspectRatio="xMidYMid meet">
<metadata>
Created by potrace 1.16, written by Peter Selinger 2001-2019
</metadata>
<g transform="translate(0.000000,102.000000) scale(0.100000,-0.100000)"
fill="#000000" stroke="none">
<path d="M185 1010 c4 -6 4 -57 0 -113 l-7 -102 -74 2 c-72 3 -74 2 -80 -23
-4 -14 -1 -37 5 -51 11 -23 15 -24 76 -21 74 3 72 14 24 -113 -16 -42 -47
-102 -69 -133 l-39 -56 31 -47 32 -47 42 88 c38 80 43 87 53 68 12 -22 8 -242
-5 -328 -7 -47 3 -54 67 -46 l36 4 -4 111 c-3 62 -4 157 -4 212 1 168 1 170
41 86 13 -28 26 -51 30 -51 3 0 20 12 38 28 l33 27 -43 62 c-24 35 -47 63 -52
63 -5 0 -18 -8 -29 -17 -20 -17 -20 -17 -14 0 4 10 7 36 7 56 0 35 2 38 25 33
40 -7 74 6 80 31 5 18 13 23 43 24 20 0 69 3 107 4 l70 4 0 -56 0 -56 -72 3
c-40 1 -76 5 -80 7 -5 3 -15 2 -23 -3 -15 -9 -17 -58 -5 -120 14 -79 15 -187
2 -226 -18 -50 -11 -111 12 -117 9 -2 32 -2 50 1 33 5 33 5 26 48 -3 24 -2 52
4 63 8 14 7 30 -3 59 -9 24 -13 63 -10 99 2 32 5 67 5 78 1 17 8 20 49 20 40
0 48 -3 49 -20 3 -35 2 -216 -1 -342 -3 -135 -4 -133 63 -125 l36 4 -2 91 c-1
51 0 98 3 106 6 16 41 -44 42 -71 0 -21 19 -22 75 -7 69 19 73 27 67 135 -4
75 -2 98 9 106 11 7 11 11 2 15 -15 5 -18 70 -4 75 6 2 11 29 12 61 3 65 -9
81 -51 71 -25 -6 -152 -6 -158 1 -2 2 0 23 3 48 l7 44 76 6 c43 4 98 5 125 3
43 -2 48 0 53 21 4 13 3 34 0 47 -5 22 -10 24 -91 25 -53 1 -85 -2 -85 -9 0
-5 -16 -10 -35 -10 -19 0 -35 5 -35 10 0 6 -15 10 -32 11 l-33 1 32 11 c17 7
35 15 38 19 8 7 -41 102 -60 118 -10 8 -97 -12 -114 -26 -3 -2 5 -14 17 -27
18 -19 52 -85 52 -101 0 -11 -133 -18 -153 -8 -12 6 -34 11 -49 10 -31 -1 -42
-21 -33 -65 3 -15 2 -21 -1 -13 -10 22 -25 29 -47 21 -11 -4 -30 -6 -42 -4
-20 4 -21 9 -18 91 2 48 4 96 5 107 3 18 -4 20 -50 23 -38 2 -52 0 -47 -8z
m624 -464 c0 -12 3 -61 6 -111 7 -117 -4 -141 -61 -137 -67 5 -68 11 -53 247
1 17 9 20 54 21 47 0 53 -2 54 -20z"/>
</g>
</svg>
