<?xml version="1.0" standalone="no"?>
<!DOCTYPE svg PUBLIC "-//W3C//DTD SVG 20010904//EN"
 "http://www.w3.org/TR/2001/REC-SVG-20010904/DTD/svg10.dtd">
<svg version="1.0" xmlns="http://www.w3.org/2000/svg"
 width="101.000000pt" height="102.000000pt" viewBox="0 0 101.000000 102.000000"
 preserveAspectRatio="xMidYMid meet">
<metadata>
Created by potrace 1.16, written by Peter Selinger 2001-2019
</metadata>
<g transform="translate(0.000000,102.000000) scale(0.100000,-0.100000)"
fill="#000000" stroke="none">
<path d="M499 1004 c-1 -11 0 -23 1 -29 2 -5 2 -35 1 -65 -1 -30 2 -76 7 -102
10 -49 5 -56 -32 -49 -5 1 -16 -1 -25 -5 -42 -18 -57 -15 -56 13 0 24 -5 28
-45 35 -25 4 -51 6 -58 3 -10 -4 -12 14 -8 78 3 46 8 90 11 99 7 18 -9 25 -67
27 -27 1 -38 -3 -41 -16 -9 -31 -6 -87 4 -99 6 -7 9 -32 7 -56 l-3 -43 -72 2
-71 3 -7 -30 c-4 -16 -3 -39 0 -51 7 -20 12 -21 72 -16 l64 6 -6 -32 c-15 -67
-57 -162 -101 -228 l-45 -69 28 -40 c15 -22 32 -40 36 -40 5 0 28 41 52 91 31
66 44 85 45 68 4 -50 1 -335 -4 -355 -7 -25 11 -33 64 -27 l35 5 -3 116 c-3
116 -4 296 -1 340 1 23 1 23 15 3 8 -11 21 -36 30 -56 l14 -35 40 20 40 20 0
-20 c0 -24 -2 -24 67 -4 30 9 57 13 60 10 6 -6 53 -137 53 -148 0 -22 -156
-90 -234 -102 -22 -4 -42 -9 -44 -11 -5 -4 65 -87 78 -93 8 -3 187 84 222 109
l29 21 54 -51 c52 -49 142 -101 176 -101 20 0 55 37 69 75 19 48 22 95 7 95
-7 0 -29 11 -50 25 -25 17 -37 21 -38 13 -4 -45 -10 -82 -13 -85 -8 -8 -61 25
-90 56 l-29 30 67 76 c37 41 72 75 77 75 25 0 4 30 -37 51 l-46 24 -16 -25
c-10 -13 -34 -46 -56 -74 -43 -55 -47 -53 -72 31 l-13 43 41 11 c23 6 51 12
62 13 12 2 41 9 65 15 25 7 54 14 65 15 12 2 33 6 47 10 26 7 26 8 14 54 -8
32 -17 46 -26 43 -267 -79 -285 -83 -287 -68 0 6 -3 31 -6 55 -3 28 -1 42 7
43 27 3 53 8 77 14 14 4 34 8 45 10 11 2 31 7 45 10 14 4 34 8 45 9 11 1 33 6
48 10 29 9 30 20 12 83 -6 20 -9 20 -38 8 -18 -7 -45 -15 -62 -18 -16 -3 -37
-8 -45 -11 -8 -3 -26 -8 -40 -10 -14 -3 -39 -9 -56 -14 -53 -17 -58 -7 -47
109 5 57 8 106 6 108 -1 2 -28 6 -58 9 -48 4 -55 2 -56 -14z m-134 -299 c22
-1 32 -9 39 -28 11 -31 9 -31 69 -13 40 12 46 12 51 -1 4 -8 4 -18 1 -22 -2
-5 0 -22 5 -40 5 -17 6 -31 2 -32 -4 0 -18 -3 -32 -5 -102 -16 -107 -15 -137
31 -26 41 -28 43 -53 30 l-25 -13 0 54 c0 52 1 53 25 48 14 -4 39 -7 55 -9z"/>
<path d="M697 989 c-37 -19 -38 -21 -23 -42 9 -12 28 -43 43 -68 l27 -47 43
21 c24 12 43 25 43 30 0 11 -83 126 -90 126 -3 0 -22 -9 -43 -20z"/>
</g>
</svg>
