<?xml version="1.0" standalone="no"?>
<!DOCTYPE svg PUBLIC "-//W3C//DTD SVG 20010904//EN"
 "http://www.w3.org/TR/2001/REC-SVG-20010904/DTD/svg10.dtd">
<svg version="1.0" xmlns="http://www.w3.org/2000/svg"
 width="101.000000pt" height="101.000000pt" viewBox="0 0 101.000000 101.000000"
 preserveAspectRatio="xMidYMid meet">
<metadata>
Created by potrace 1.16, written by Peter Selinger 2001-2019
</metadata>
<g transform="translate(0.000000,101.000000) scale(0.100000,-0.100000)"
fill="#000000" stroke="none">
<path d="M216 1003 c-14 -4 -15 -7 -6 -13 9 -6 11 -32 5 -108 l-7 -100 -57 3
c-31 2 -64 6 -73 10 -13 5 -20 0 -28 -20 -14 -37 -13 -51 6 -70 11 -11 25 -14
38 -10 20 6 96 12 96 8 0 -2 -11 -31 -24 -66 -34 -92 -74 -166 -113 -215 -29
-35 -32 -43 -18 -48 9 -4 27 -23 40 -42 l24 -36 34 75 c19 41 40 92 48 113
l14 39 8 -74 c8 -76 9 -124 4 -266 -3 -90 0 -94 60 -86 l32 5 -2 218 c-2 236
0 244 46 149 l23 -49 37 26 c20 13 37 30 37 36 0 20 -92 139 -103 135 -43 -18
-42 -19 -39 27 l4 44 46 7 c26 4 50 12 54 18 22 35 -8 95 -41 82 -9 -4 -29 -8
-46 -8 -24 -1 -31 3 -33 21 -2 13 1 29 7 35 5 7 9 36 8 64 0 30 5 58 13 68 7
8 11 17 9 20 -8 7 -83 14 -103 8z"/>
<path d="M757 1002 c-4 -7 -18 -55 -23 -81 -1 -8 -16 -41 -33 -75 l-30 -61
-43 1 c-72 3 -74 4 -35 21 20 8 37 19 37 24 0 8 -42 82 -75 133 -16 24 -17 24
-61 9 l-45 -15 18 -27 c27 -41 60 -104 67 -126 5 -19 1 -20 -52 -20 -55 0 -57
-1 -60 -29 -5 -41 6 -76 23 -76 8 0 15 5 15 10 0 6 32 10 75 10 44 0 75 -4 75
-10 0 -14 302 -9 312 5 10 13 10 67 0 82 -5 8 -34 11 -88 10 l-81 -2 49 73
c27 40 56 76 64 79 29 11 18 20 -73 59 -18 8 -34 10 -36 6z"/>
<path d="M456 553 c-9 -9 -7 -76 2 -90 5 -9 63 -11 215 -10 230 2 226 1 213
71 l-6 32 -209 2 c-115 0 -211 -2 -215 -5z"/>
<path d="M373 259 c-15 -15 -17 -67 -4 -87 5 -8 19 -13 32 -13 80 4 213 11
267 15 40 3 77 0 103 -9 29 -11 46 -12 60 -5 11 6 40 8 68 4 48 -6 50 -5 57
20 3 14 3 37 0 50 -9 35 -87 45 -152 20 -38 -14 -52 -15 -76 -6 -22 8 -36 8
-50 1 -12 -6 -36 -8 -57 -4 -20 4 -61 9 -91 11 -30 3 -75 7 -100 10 -30 4 -49
1 -57 -7z"/>
</g>
</svg>
