<?xml version="1.0" standalone="no"?>
<!DOCTYPE svg PUBLIC "-//W3C//DTD SVG 20010904//EN"
 "http://www.w3.org/TR/2001/REC-SVG-20010904/DTD/svg10.dtd">
<svg version="1.0" xmlns="http://www.w3.org/2000/svg"
 width="101.000000pt" height="102.000000pt" viewBox="0 0 101.000000 102.000000"
 preserveAspectRatio="xMidYMid meet">
<metadata>
Created by potrace 1.16, written by Peter Selinger 2001-2019
</metadata>
<g transform="translate(0.000000,102.000000) scale(0.100000,-0.100000)"
fill="#000000" stroke="none">
<path d="M179 1013 c-18 -4 -25 -68 -9 -78 11 -7 13 -52 4 -105 l-6 -35 -63 2
c-56 2 -65 -1 -70 -18 -4 -11 -4 -31 -1 -45 6 -22 10 -24 65 -21 33 1 57 -1
54 -5 -4 -8 -9 -26 -19 -78 -8 -39 -50 -126 -83 -173 l-31 -42 27 -54 c27 -54
27 -54 42 -31 9 12 28 50 43 84 26 59 27 60 28 26 0 -19 2 -90 5 -158 2 -67 1
-133 -4 -145 -15 -40 3 -53 70 -49 27 2 30 10 28 82 -1 14 -2 100 -2 191 -2
162 -1 166 15 140 10 -14 23 -41 29 -58 12 -38 13 -38 68 -18 39 13 42 13 37
-3 -12 -37 13 -49 79 -37 17 3 46 7 65 8 32 2 35 -1 38 -28 5 -46 3 -137 -3
-144 -8 -7 -129 -5 -175 4 -46 8 -80 9 -88 1 -7 -8 -6 -75 1 -83 3 -3 16 -4
29 -4 13 1 70 4 128 6 58 3 133 7 168 9 40 3 77 0 103 -9 29 -10 46 -12 59 -5
11 6 43 7 73 4 53 -6 54 -6 59 21 8 42 -1 67 -23 60 -10 -3 -27 -1 -38 4 -14
8 -32 6 -67 -6 -37 -13 -54 -14 -76 -5 -16 6 -35 9 -42 6 -18 -7 -31 88 -16
115 5 11 7 26 4 34 -4 10 2 16 18 17 47 3 133 1 154 -4 26 -7 40 20 30 59 -5
19 -15 25 -50 30 -24 4 -55 4 -68 0 -12 -5 -37 -9 -53 -10 l-31 -2 1 67 0 67
37 -5 c20 -2 48 -2 63 2 21 5 24 11 19 31 -8 31 7 32 45 6 42 -30 46 -29 84
21 l36 46 -72 35 c-90 43 -142 89 -186 161 -29 48 -32 58 -20 72 19 23 -12 44
-57 38 -19 -2 -34 0 -34 6 0 5 -4 10 -10 10 -5 0 -10 -6 -10 -14 0 -8 -21 -56
-47 -107 -36 -72 -63 -111 -117 -165 -39 -39 -82 -77 -95 -85 l-24 -15 48 -27
48 -28 32 31 32 31 11 -26 c10 -22 18 -25 60 -25 l49 0 7 -62 c3 -34 5 -63 3
-64 -2 -2 -39 1 -83 6 -64 7 -81 6 -90 -5 -8 -11 -19 0 -50 55 -25 45 -44 68
-52 65 -56 -21 -57 -21 -57 52 0 68 0 68 30 74 17 3 40 2 52 -3 27 -9 53 13
53 45 0 40 -12 46 -77 43 l-62 -2 6 80 c3 45 10 89 15 100 11 21 -7 39 -30 31
-7 -3 -21 -1 -30 3 -9 5 -24 7 -33 5z m484 -186 c14 -24 46 -66 71 -94 l45
-50 -139 1 c-127 1 -138 2 -127 17 7 10 35 51 62 92 28 42 53 76 57 76 3 1 18
-18 31 -42z"/>
</g>
</svg>
