<?xml version="1.0" standalone="no"?>
<!DOCTYPE svg PUBLIC "-//W3C//DTD SVG 20010904//EN"
 "http://www.w3.org/TR/2001/REC-SVG-20010904/DTD/svg10.dtd">
<svg version="1.0" xmlns="http://www.w3.org/2000/svg"
 width="101.000000pt" height="102.000000pt" viewBox="0 0 101.000000 102.000000"
 preserveAspectRatio="xMidYMid meet">
<metadata>
Created by potrace 1.16, written by Peter Selinger 2001-2019
</metadata>
<g transform="translate(0.000000,102.000000) scale(0.100000,-0.100000)"
fill="#000000" stroke="none">
<path d="M188 1013 c-13 -3 -16 -17 -16 -71 0 -37 5 -72 10 -79 5 -6 8 -24 6
-39 -3 -27 -4 -27 -70 -27 l-68 0 -6 -33 c-3 -18 -1 -41 5 -51 6 -10 11 -12
11 -5 0 14 86 17 95 2 9 -14 -52 -162 -94 -227 l-38 -59 28 -53 29 -54 40 87
c22 47 40 92 40 99 0 6 7 3 16 -8 12 -16 13 -47 9 -178 -3 -87 -10 -168 -15
-181 -13 -35 3 -51 51 -49 23 1 44 5 47 8 3 3 1 27 -5 53 -7 26 -10 70 -7 97
2 28 4 60 5 73 2 31 12 28 48 -14 l32 -36 55 39 c30 21 63 44 73 51 22 15 23
11 21 -105 0 -40 4 -82 10 -94 16 -29 75 -52 100 -39 11 6 66 9 134 6 132 -4
147 1 177 68 22 49 24 86 5 86 -8 0 -29 12 -46 26 -17 15 -33 24 -36 22 -2 -3
-7 -22 -9 -42 -7 -50 -21 -75 -48 -81 -47 -12 -179 -6 -194 8 -3 4 -7 28 -7
54 l-1 47 101 37 c56 20 125 42 153 50 28 7 51 18 51 24 0 6 -15 25 -33 43
l-32 31 -90 -44 c-50 -24 -101 -47 -115 -50 -22 -5 -26 -3 -25 18 0 15 26 51
73 102 l73 78 77 1 c42 0 87 -3 98 -7 45 -16 73 53 37 88 -14 15 -27 16 -68 5
-5 -1 -27 -2 -47 -1 l-37 1 42 66 c23 37 54 80 70 96 15 17 27 33 27 37 0 3
-22 18 -49 34 l-50 27 -27 -61 c-26 -57 -29 -60 -36 -37 -8 23 -13 24 -73 23
l-65 -1 6 68 c3 37 1 68 -3 69 -4 1 -26 3 -48 5 l-40 3 3 -40 c2 -21 1 -54 -2
-72 l-6 -32 -70 1 c-66 1 -71 0 -76 -22 -4 -13 -3 -35 0 -49 6 -23 9 -24 79
-22 l72 3 3 -51 2 -50 -52 2 c-92 4 -119 13 -113 34 4 11 4 33 0 49 -6 28 -8
29 -66 27 -68 -2 -63 -12 -49 118 7 69 6 82 -8 93 -16 12 -41 14 -74 5z m562
-228 c0 -3 -15 -27 -32 -53 -25 -36 -40 -47 -62 -49 -27 -2 -28 0 -22 29 3 17
6 39 6 49 0 14 9 19 43 22 23 2 48 4 55 5 6 1 12 0 12 -3z m-391 -112 c-13
-34 -5 -69 18 -77 10 -4 66 -2 125 5 59 7 111 9 115 5 10 -11 -106 -116 -182
-166 -33 -21 -86 -50 -117 -64 l-57 -25 -5 27 c-3 15 -3 52 -1 82 3 30 5 66 6
80 l1 25 24 -30 c13 -16 24 -34 24 -40 0 -5 4 -16 9 -24 8 -13 15 -12 50 4 23
10 41 23 41 29 -1 6 -23 39 -51 74 -47 59 -51 61 -72 48 -22 -15 -22 -14 -22
29 l-1 44 46 3 c58 4 61 2 49 -29z"/>
</g>
</svg>
