<?xml version="1.0" standalone="no"?>
<!DOCTYPE svg PUBLIC "-//W3C//DTD SVG 20010904//EN"
 "http://www.w3.org/TR/2001/REC-SVG-20010904/DTD/svg10.dtd">
<svg version="1.0" xmlns="http://www.w3.org/2000/svg"
 width="101.000000pt" height="101.000000pt" viewBox="0 0 101.000000 101.000000"
 preserveAspectRatio="xMidYMid meet">
<metadata>
Created by potrace 1.16, written by Peter Selinger 2001-2019
</metadata>
<g transform="translate(0.000000,101.000000) scale(0.100000,-0.100000)"
fill="#000000" stroke="none">
<path d="M188 1003 c-15 -4 -17 -17 -15 -102 l2 -97 -40 7 c-75 14 -107 -12
-91 -75 6 -23 10 -25 64 -23 58 2 59 2 56 -25 -5 -40 -58 -153 -100 -210 l-36
-50 25 -55 25 -55 25 43 c14 24 34 62 46 84 l20 40 2 -35 c1 -19 1 -39 0 -44
-1 -4 3 -14 9 -21 8 -9 9 -57 5 -148 -6 -150 -6 -150 64 -139 30 4 32 7 24 31
-4 14 -7 64 -6 111 1 47 2 93 2 103 0 36 2 114 4 164 l2 52 18 -34 c9 -19 20
-35 23 -35 11 0 74 29 74 35 0 3 -14 30 -31 61 -30 52 -33 55 -62 48 -28 -6
-29 -5 -24 17 4 13 7 34 7 46 0 16 5 20 20 16 11 -3 20 -10 20 -17 0 -6 19
-22 41 -35 l42 -23 23 28 c12 16 50 75 84 131 34 56 71 110 81 119 10 9 19 23
19 30 0 15 -75 57 -91 52 -5 -2 -24 -37 -42 -78 -31 -71 -86 -162 -106 -174
-4 -3 -6 5 -4 18 6 28 -23 60 -46 50 -51 -21 -50 -22 -46 71 3 47 7 90 10 96
12 18 -54 34 -97 22z"/>
<path d="M635 911 c-3 -11 -3 -31 1 -45 8 -33 46 -40 169 -31 89 6 95 8 101
30 8 32 -5 68 -21 61 -34 -13 -135 -18 -135 -7 0 7 -21 11 -54 11 -45 0 -56
-3 -61 -19z"/>
<path d="M505 704 c-37 -84 -110 -188 -166 -237 l-49 -43 41 -27 c41 -27 59
-33 59 -19 0 4 14 23 29 42 29 34 29 34 30 10 6 -98 5 -233 -1 -276 -8 -58 0
-65 58 -57 l30 5 -4 60 c-3 44 -1 63 9 70 11 7 11 11 2 15 -15 6 -18 73 -3 73
6 0 10 18 10 40 0 22 -4 40 -10 40 -5 0 -10 16 -10 35 0 19 5 35 10 35 6 0 10
29 10 68 0 63 3 70 39 119 29 38 37 54 28 61 -15 11 -74 42 -82 42 -3 0 -16
-25 -30 -56z"/>
<path d="M857 683 c-3 -5 -59 -8 -126 -8 -117 0 -120 -1 -126 -23 -14 -54 26
-80 107 -70 l33 3 -3 -82 c-1 -48 2 -84 8 -88 13 -8 13 -68 -1 -82 -8 -8 -7
-16 2 -30 26 -42 -18 -106 -58 -85 -10 5 -25 7 -33 3 -14 -5 -13 -13 5 -61 22
-61 31 -64 111 -42 71 21 76 32 68 172 -6 99 -4 124 7 132 11 7 11 11 2 15
-15 6 -18 73 -3 73 6 0 10 17 10 38 0 37 1 38 33 34 57 -7 90 53 51 92 -16 16
-79 22 -87 9z"/>
</g>
</svg>
