<?xml version="1.0" standalone="no"?>
<!DOCTYPE svg PUBLIC "-//W3C//DTD SVG 20010904//EN"
 "http://www.w3.org/TR/2001/REC-SVG-20010904/DTD/svg10.dtd">
<svg version="1.0" xmlns="http://www.w3.org/2000/svg"
 width="101.000000pt" height="102.000000pt" viewBox="0 0 101.000000 102.000000"
 preserveAspectRatio="xMidYMid meet">
<metadata>
Created by potrace 1.16, written by Peter Selinger 2001-2019
</metadata>
<g transform="translate(0.000000,102.000000) scale(0.100000,-0.100000)"
fill="#000000" stroke="none">
<path d="M470 1008 c-33 -12 -33 -11 -10 -51 l21 -35 -43 -5 c-73 -10 -176 -8
-183 3 -4 6 -17 10 -28 9 -12 -2 -33 1 -45 5 -13 4 -39 5 -57 2 l-34 -7 2 -69
c1 -54 5 -70 16 -70 10 0 8 -6 -7 -20 -23 -22 -25 -31 -16 -67 6 -20 11 -21
105 -20 l98 2 -36 -37 c-21 -21 -33 -38 -28 -39 6 0 19 -2 30 -5 31 -7 77 -15
112 -20 18 -2 43 -9 55 -14 21 -8 21 -9 3 -10 -11 -1 -29 -3 -40 -6 -11 -2
-35 -6 -54 -9 -18 -2 -40 -10 -47 -16 -11 -9 -21 -9 -39 -1 -16 7 -34 8 -52 2
-15 -5 -35 -9 -43 -8 -8 1 -23 0 -33 0 -17 -2 -17 -4 2 -28 12 -15 21 -33 21
-41 0 -16 47 -36 62 -27 6 4 23 9 37 11 42 6 62 11 136 31 l71 19 1 -37 2 -37
-117 -6 c-64 -3 -139 -4 -167 -2 -81 7 -96 7 -102 1 -8 -8 -8 -64 0 -72 8 -8
42 -8 102 0 86 12 165 15 187 7 20 -7 18 -10 -23 -38 -64 -44 -125 -73 -204
-99 -38 -12 -68 -26 -66 -31 2 -4 16 -23 31 -42 27 -31 30 -33 62 -22 57 19
182 97 240 150 64 58 59 65 60 -81 1 -95 4 -99 66 -90 28 4 32 7 25 26 -4 11
-7 50 -6 86 4 121 -1 115 50 65 47 -46 168 -114 240 -136 l43 -12 39 44 c43
49 40 56 -26 64 -84 9 -110 16 -169 45 -33 16 -68 38 -78 49 -17 18 -16 19 6
20 13 0 53 3 90 6 42 3 81 0 105 -9 55 -19 100 -10 106 21 9 49 -1 61 -49 58
-48 -4 -48 -3 -7 53 l24 32 -23 9 c-13 4 -70 23 -128 42 -58 18 -107 34 -108
35 -2 2 18 24 45 49 l48 47 83 1 c76 1 83 3 88 23 14 56 12 57 -158 60 -98 2
-158 0 -158 -6 0 -6 -33 -10 -75 -10 -41 0 -75 3 -75 8 0 4 14 19 32 34 28 23
31 29 18 38 -11 7 -3 10 30 10 25 0 96 3 158 6 119 5 119 5 113 -42 -2 -18 26
-25 69 -18 l38 6 -1 68 0 68 -39 6 c-21 4 -46 2 -56 -3 -28 -15 -152 -25 -152
-12 0 6 -18 11 -45 11 -45 0 -45 0 -56 44 -10 39 -14 45 -38 44 -15 -1 -38 -5
-51 -10z m-80 -167 c0 -2 -11 -24 -25 -48 l-26 -43 -59 0 c-33 0 -60 4 -60 10
0 6 -19 10 -42 11 l-43 1 32 10 c27 9 32 15 29 37 l-3 26 99 0 c54 0 98 -2 98
-4z m208 -185 l-37 -33 -78 14 c-43 8 -86 14 -96 14 -10 0 -17 5 -15 10 2 6
47 13 103 15 54 2 101 6 103 9 3 3 17 5 31 5 26 -1 26 -1 -11 -34z m86 -167
c39 -16 91 -40 116 -53 l45 -24 -65 -6 c-36 -4 -94 -4 -130 -1 -36 3 -76 6
-88 6 -24 1 -25 8 -8 50 5 12 0 18 -23 22 -38 8 -39 20 -3 34 36 14 72 8 156
-28z"/>
</g>
</svg>
