<?xml version="1.0" standalone="no"?>
<!DOCTYPE svg PUBLIC "-//W3C//DTD SVG 20010904//EN"
 "http://www.w3.org/TR/2001/REC-SVG-20010904/DTD/svg10.dtd">
<svg version="1.0" xmlns="http://www.w3.org/2000/svg"
 width="101.000000pt" height="101.000000pt" viewBox="0 0 101.000000 101.000000"
 preserveAspectRatio="xMidYMid meet">
<metadata>
Created by potrace 1.16, written by Peter Selinger 2001-2019
</metadata>
<g transform="translate(0.000000,101.000000) scale(0.100000,-0.100000)"
fill="#000000" stroke="none">
<path d="M198 1003 c-15 -4 -17 -17 -14 -105 l3 -100 -39 6 c-74 12 -108 -13
-94 -69 7 -29 64 -44 102 -26 31 14 31 6 -3 -77 -21 -56 -66 -133 -106 -186
-5 -6 2 -35 16 -66 l24 -55 51 100 c38 75 50 94 52 75 4 -50 0 -356 -5 -376
-6 -25 14 -34 61 -27 27 4 30 9 31 41 1 21 3 46 4 57 1 11 -4 45 -10 76 -6 31
-9 93 -6 140 3 46 6 95 6 109 1 22 4 20 20 -15 10 -22 19 -48 19 -57 0 -9 4
-20 10 -23 12 -8 90 15 90 27 0 7 -67 147 -74 155 -1 2 -16 -1 -32 -6 l-29 -8
0 61 0 61 36 -3 c46 -5 73 20 64 57 -8 33 -5 31 -59 34 l-46 2 5 50 c6 58 12
92 20 121 6 18 1 22 -25 28 -35 6 -45 6 -72 -1z"/>
<path d="M613 999 c-37 -11 -39 -15 -18 -55 8 -16 15 -37 15 -46 0 -9 7 -24
16 -32 14 -15 4 -15 -109 -10 -145 6 -140 9 -130 -102 6 -69 20 -82 69 -70 19
5 25 15 30 46 7 42 10 44 80 40 18 -1 35 3 39 9 7 12 82 14 174 4 l63 -6 -4
-46 -3 -46 35 -3 c54 -4 60 5 62 94 3 90 15 82 -103 68 -37 -4 -59 -2 -63 5
-4 6 -28 11 -54 12 -43 1 -45 1 -19 11 33 12 33 24 6 89 -23 52 -29 54 -86 38z"/>
<path d="M578 734 c-6 -16 -12 -33 -13 -39 0 -5 -7 -31 -14 -57 -13 -47 -14
-47 -50 -43 -20 2 -47 7 -61 10 -42 9 -56 -10 -52 -71 2 -26 35 -37 68 -22 18
8 28 8 36 0 8 -8 -1 -31 -31 -86 -23 -42 -37 -76 -31 -76 6 0 46 -16 88 -36
72 -33 76 -36 58 -50 -28 -20 -117 -52 -163 -58 -21 -3 -47 -8 -58 -10 -11 -2
-26 -5 -34 -5 -8 -1 -2 -14 17 -35 17 -19 34 -42 39 -51 9 -15 16 -14 74 8 64
24 161 72 210 103 25 16 28 16 75 -16 27 -19 68 -49 91 -68 l42 -34 33 38 c18
20 33 42 33 48 0 8 -154 105 -189 118 -5 2 -1 19 9 38 10 19 28 64 40 100 24
70 23 69 112 72 25 1 32 7 36 26 3 13 2 33 0 44 -5 16 -11 18 -37 11 -17 -4
-76 -7 -131 -6 -154 3 -147 2 -139 27 10 32 33 74 44 81 20 13 9 34 -22 43
-18 6 -41 13 -50 17 -13 5 -21 0 -30 -21z m137 -239 c-1 -30 -25 -108 -40
-129 -14 -18 -16 -18 -70 4 -30 12 -55 24 -55 26 0 2 11 29 25 59 19 44 28 55
42 51 10 -3 25 -1 33 4 25 17 65 8 65 -15z"/>
</g>
</svg>
