<?xml version="1.0" standalone="no"?>
<!DOCTYPE svg PUBLIC "-//W3C//DTD SVG 20010904//EN"
 "http://www.w3.org/TR/2001/REC-SVG-20010904/DTD/svg10.dtd">
<svg version="1.0" xmlns="http://www.w3.org/2000/svg"
 width="101.000000pt" height="101.000000pt" viewBox="0 0 101.000000 101.000000"
 preserveAspectRatio="xMidYMid meet">
<metadata>
Created by potrace 1.16, written by Peter Selinger 2001-2019
</metadata>
<g transform="translate(0.000000,101.000000) scale(0.100000,-0.100000)"
fill="#000000" stroke="none">
<path d="M173 902 l4 -109 -66 1 -66 1 -3 -35 c-3 -41 13 -73 26 -52 6 9 25
12 53 10 38 -3 44 -6 41 -23 -6 -36 -82 -189 -113 -228 -17 -21 -29 -41 -27
-45 13 -27 51 -82 58 -82 4 0 26 39 48 88 l41 87 1 -47 c0 -27 5 -48 10 -48 6
0 10 -16 10 -35 0 -19 -5 -35 -11 -35 -8 0 -9 -22 -5 -73 4 -40 3 -84 -2 -97
-13 -35 -4 -87 17 -93 9 -2 32 -2 50 1 25 3 31 8 25 21 -13 31 -15 133 -3 148
9 10 9 17 1 25 -15 15 -16 75 -2 83 6 4 9 41 8 91 -2 46 -2 84 -1 84 2 0 15
-24 29 -52 15 -29 28 -55 30 -57 2 -2 18 7 36 21 l33 25 -2 -51 c0 -28 2 -55
7 -61 13 -17 10 -131 -4 -167 -17 -40 -10 -85 13 -91 9 -2 31 -2 48 0 l30 5 1
69 c0 38 -4 71 -9 74 -12 8 -12 52 1 60 12 7 12 153 0 160 -12 7 -11 146 0
160 6 7 9 58 8 116 l-3 104 165 0 165 0 -3 -48 c-2 -26 1 -53 7 -61 12 -14 13
-153 1 -161 -12 -7 -12 -153 0 -160 13 -8 13 -52 0 -60 -6 -4 -9 -35 -7 -76 5
-79 -7 -100 -47 -81 -13 6 -34 8 -45 5 -21 -5 -21 -7 -5 -24 10 -11 18 -29 20
-42 1 -12 3 -25 3 -28 4 -29 133 -1 155 34 19 29 30 103 18 111 -13 8 -15 153
-2 161 12 8 12 213 0 220 -13 8 -13 52 0 60 10 6 13 205 4 229 -6 15 -144 21
-144 6 0 -5 -11 -10 -25 -10 -14 0 -25 5 -25 10 0 6 -30 10 -70 10 -40 0 -70
-4 -70 -10 0 -5 -16 -10 -35 -10 -19 0 -35 5 -35 10 0 6 -27 10 -60 10 -55 0
-60 -2 -66 -24 -3 -13 -1 -32 4 -43 5 -10 6 -38 2 -63 -4 -25 -8 -40 -9 -35 0
6 -29 10 -64 10 -57 1 -62 3 -65 23 -2 13 1 29 7 35 5 7 9 35 9 62 0 28 3 58
7 68 6 15 4 17 -19 11 -16 -4 -26 -2 -26 5 0 6 -13 11 -30 11 l-30 0 3 -108z
m227 -271 c-8 -25 -11 -60 -7 -93 l7 -52 -41 62 c-47 71 -52 76 -76 63 -16 -8
-18 -4 -18 40 l0 49 47 0 c28 0 52 6 60 14 11 12 15 10 27 -15 12 -24 12 -35
1 -68z"/>
<path d="M538 773 c-23 -6 -33 -45 -18 -73 12 -22 15 -23 137 -17 90 3 128 9
134 18 13 20 11 57 -3 65 -13 8 -223 14 -250 7z"/>
<path d="M550 620 c-12 -7 -15 -39 -16 -169 l-2 -159 37 5 c76 10 145 11 166
3 22 -8 22 -8 29 129 10 191 12 187 -81 195 -99 8 -115 8 -133 -4z m137 -162
l1 -77 -39 2 c-43 1 -43 -1 -33 93 6 58 7 59 38 59 l31 0 2 -77z"/>
</g>
</svg>
