<?xml version="1.0" standalone="no"?>
<!DOCTYPE svg PUBLIC "-//W3C//DTD SVG 20010904//EN"
 "http://www.w3.org/TR/2001/REC-SVG-20010904/DTD/svg10.dtd">
<svg version="1.0" xmlns="http://www.w3.org/2000/svg"
 width="101.000000pt" height="101.000000pt" viewBox="0 0 101.000000 101.000000"
 preserveAspectRatio="xMidYMid meet">
<metadata>
Created by potrace 1.16, written by Peter Selinger 2001-2019
</metadata>
<g transform="translate(0.000000,101.000000) scale(0.100000,-0.100000)"
fill="#000000" stroke="none">
<path d="M212 1002 c-5 -1 -8 -12 -5 -23 3 -10 2 -52 -1 -92 l-7 -72 -67 3
-67 3 0 -45 c0 -39 3 -46 23 -51 12 -3 28 -3 33 1 6 3 23 7 39 8 l28 2 -23
-61 c-29 -78 -58 -135 -103 -203 l-36 -53 35 -35 34 -34 52 101 c35 70 51 94
52 77 3 -41 3 -221 0 -278 -5 -111 0 -147 20 -153 39 -10 68 3 69 31 1 15 2
36 2 47 1 11 -4 63 -9 116 -6 53 -9 130 -6 170 3 41 6 85 6 99 1 24 1 24 16 5
8 -11 28 -46 44 -78 l30 -58 33 20 c42 26 44 26 45 -1 0 -13 3 -59 6 -103 3
-44 1 -111 -6 -148 -6 -38 -8 -71 -5 -75 7 -7 86 -6 93 1 2 3 5 23 6 45 1 32
5 40 22 41 11 0 56 3 100 6 44 3 94 3 112 0 30 -5 31 -7 28 -49 -3 -50 5 -56
65 -49 l35 5 -9 156 c-7 115 -6 157 3 160 14 5 15 102 1 102 -5 0 -10 11 -10
25 0 14 5 25 10 25 6 0 10 30 10 70 0 40 -4 70 -10 70 -5 0 -10 11 -10 25 0
14 5 25 10 25 6 0 10 28 10 64 0 47 -4 65 -15 69 -21 9 -169 7 -183 -2 -16
-10 -25 -63 -13 -81 7 -10 26 -15 56 -15 42 0 45 -2 45 -27 0 -16 5 -28 10
-28 7 0 10 -28 8 -77 l-3 -78 -30 2 c-16 2 -42 5 -57 9 -24 5 -29 2 -38 -22
-22 -56 15 -98 62 -73 31 17 53 7 56 -26 7 -67 6 -194 -1 -202 -7 -7 -176 -9
-254 -3 -28 3 -35 38 -28 130 3 36 6 75 6 87 1 20 5 21 60 17 56 -4 59 -3 65
21 3 14 4 36 0 48 -5 20 -12 24 -52 26 -26 0 -53 -4 -61 -11 -12 -10 -14 -7
-8 24 4 22 3 38 -4 42 -14 9 -14 49 0 63 6 6 10 33 8 62 -3 40 -1 51 11 52 8
0 26 2 40 4 21 3 36 6 83 14 14 2 7 26 -17 56 -23 29 -25 29 -60 17 -32 -12
-56 -19 -96 -26 -58 -12 -57 -10 -59 -121 0 -58 4 -107 9 -110 13 -8 13 -52 0
-60 -6 -4 -9 -34 -7 -69 l3 -63 -36 58 c-66 108 -62 104 -95 86 l-30 -15 0 52
0 52 51 -4 c59 -5 84 12 84 58 0 34 -29 55 -63 44 -12 -4 -34 -8 -50 -9 -27
-3 -27 -2 -22 49 7 69 11 98 20 118 5 13 1 18 -17 22 -24 5 -59 4 -76 -2z"/>
</g>
</svg>
