<?xml version="1.0" standalone="no"?>
<!DOCTYPE svg PUBLIC "-//W3C//DTD SVG 20010904//EN"
 "http://www.w3.org/TR/2001/REC-SVG-20010904/DTD/svg10.dtd">
<svg version="1.0" xmlns="http://www.w3.org/2000/svg"
 width="101.000000pt" height="101.000000pt" viewBox="0 0 101.000000 101.000000"
 preserveAspectRatio="xMidYMid meet">
<metadata>
Created by potrace 1.16, written by Peter Selinger 2001-2019
</metadata>
<g transform="translate(0.000000,101.000000) scale(0.100000,-0.100000)"
fill="#000000" stroke="none">
<path d="M199 1003 c-12 -3 -16 -17 -17 -61 0 -31 4 -62 10 -69 5 -6 8 -31 6
-55 -3 -41 -4 -43 -33 -40 -16 1 -43 4 -60 7 -38 7 -53 -3 -61 -41 -9 -47 15
-64 82 -61 50 2 53 1 48 -18 -11 -35 -75 -148 -115 -202 -21 -29 -39 -55 -39
-58 0 -4 11 -21 25 -39 14 -18 25 -38 25 -45 0 -27 23 5 68 96 l48 95 -4 -67
c-3 -37 1 -83 7 -104 9 -25 10 -64 4 -133 -8 -86 -7 -97 8 -101 22 -6 92 6 90
16 0 4 -1 91 0 195 0 148 3 183 12 169 35 -55 33 -54 67 -34 23 14 31 15 29 5
-4 -35 1 -37 81 -34 l79 3 -27 -49 c-39 -70 -91 -128 -129 -144 l-33 -14 19
-48 19 -47 48 2 c74 3 155 10 195 18 21 4 45 2 57 -4 14 -7 28 -7 51 2 29 11
34 10 46 -7 8 -10 16 -23 17 -28 3 -9 98 26 98 37 0 19 -47 97 -132 219 -6 9
-98 -11 -98 -21 0 -2 18 -30 40 -63 32 -47 37 -59 24 -64 -26 -10 -52 -7 -58
7 -5 9 -7 9 -12 0 -7 -15 -74 -18 -74 -3 0 6 -18 10 -40 10 l-39 0 63 91 63
90 64 6 c35 3 92 7 127 7 68 1 79 11 67 59 -6 24 -9 25 -143 31 -75 3 -190 5
-255 5 -65 -1 -119 1 -120 3 -1 2 -15 18 -32 37 l-30 34 46 -26 45 -26 35 44
c40 52 54 56 45 14 l-6 -31 138 4 c75 1 140 7 144 13 4 6 8 21 8 34 l0 23 33
-24 c17 -13 37 -27 42 -31 6 -3 30 14 54 38 l42 43 -62 33 c-117 63 -214 187
-202 260 5 31 7 30 -72 33 l-40 1 -21 -65 c-45 -143 -153 -287 -241 -321 l-38
-15 0 53 c0 49 2 54 20 48 77 -22 105 -10 105 45 0 30 -30 57 -50 45 -5 -3
-26 -7 -46 -9 l-36 -3 7 91 c3 50 8 98 11 107 7 26 -49 45 -97 32z m522 -284
l38 -46 -25 -12 c-31 -14 -71 -14 -79 -1 -4 6 -32 9 -66 8 -32 -2 -59 -3 -59
-2 0 1 18 32 41 70 23 37 46 81 52 97 l10 30 25 -49 c13 -27 41 -70 63 -95z"/>
</g>
</svg>
