<?xml version="1.0" standalone="no"?>
<!DOCTYPE svg PUBLIC "-//W3C//DTD SVG 20010904//EN"
 "http://www.w3.org/TR/2001/REC-SVG-20010904/DTD/svg10.dtd">
<svg version="1.0" xmlns="http://www.w3.org/2000/svg"
 width="101.000000pt" height="101.000000pt" viewBox="0 0 101.000000 101.000000"
 preserveAspectRatio="xMidYMid meet">
<metadata>
Created by potrace 1.16, written by Peter Selinger 2001-2019
</metadata>
<g transform="translate(0.000000,101.000000) scale(0.100000,-0.100000)"
fill="#000000" stroke="none">
<path d="M182 940 c0 -39 4 -73 9 -76 9 -5 13 -57 4 -65 -2 -3 -35 -2 -72 2
-37 4 -72 4 -78 1 -5 -4 -10 -26 -11 -49 l-1 -41 72 1 72 2 -14 -50 c-19 -66
-66 -156 -108 -213 -19 -25 -35 -50 -35 -56 1 -6 14 -26 29 -44 l29 -33 21 30
c12 17 37 63 56 103 38 84 37 87 37 -117 0 -77 -5 -151 -10 -166 -13 -33 -4
-76 17 -82 9 -2 31 -2 48 0 35 6 33 -6 32 163 0 147 0 266 2 289 1 27 6 22 41
-44 11 -22 22 -42 24 -44 1 -2 19 7 38 19 36 21 46 43 26 55 -16 10 -12 24 8
24 9 0 33 3 52 6 68 12 126 14 223 8 79 -4 97 -8 93 -19 -3 -8 0 -26 6 -39 7
-16 8 -29 2 -35 -13 -13 -300 -23 -323 -11 -10 6 -27 8 -38 5 -16 -4 -19 -12
-15 -37 2 -18 5 -79 6 -137 1 -58 6 -115 10 -127 9 -28 80 -57 106 -43 12 7
74 8 165 5 176 -7 205 2 235 67 24 53 25 78 4 78 -9 0 -29 9 -46 21 -16 12
-31 19 -33 17 -2 -2 -7 -19 -10 -38 -3 -19 -11 -40 -17 -47 -19 -23 -86 -34
-175 -28 -127 7 -135 8 -143 25 -33 65 -34 71 -23 101 7 17 10 36 7 44 -7 17
3 17 206 16 l166 -1 1 103 c1 56 2 112 3 125 1 13 0 25 -2 27 -9 9 -87 7 -139
-4 -69 -14 -203 -8 -299 14 -37 8 -54 -8 -53 -51 l1 -37 -26 42 c-23 35 -31
41 -52 37 -24 -4 -25 -3 -22 37 l4 42 41 -2 c45 -2 57 7 57 49 0 31 -32 54
-58 42 -52 -22 -54 -20 -46 73 4 49 8 95 8 103 1 12 -9 14 -41 12 -26 -2 -43
1 -43 7 0 6 -6 11 -14 11 -11 0 -14 -17 -14 -70z"/>
<path d="M585 980 c-4 -17 -4 -68 0 -113 l7 -82 -51 0 -51 0 5 73 c2 39 1 72
-3 73 -14 1 -37 7 -52 13 -21 8 -41 -7 -40 -30 0 -10 1 -62 3 -116 l2 -96 107
-1 c59 0 110 4 113 9 9 14 69 12 83 -2 8 -8 15 -8 26 1 11 9 32 10 83 3 37 -5
69 -9 71 -7 1 1 5 46 7 100 3 53 8 102 11 107 10 16 -17 28 -63 28 -41 0 -49
-7 -43 -35 1 -5 4 -35 6 -65 l4 -55 -64 0 c-63 0 -65 1 -70 29 -9 44 -7 94 4
101 13 8 10 78 -4 87 -6 4 -28 8 -48 8 -32 0 -37 -3 -43 -30z"/>
</g>
</svg>
