<?xml version="1.0" standalone="no"?>
<!DOCTYPE svg PUBLIC "-//W3C//DTD SVG 20010904//EN"
 "http://www.w3.org/TR/2001/REC-SVG-20010904/DTD/svg10.dtd">
<svg version="1.0" xmlns="http://www.w3.org/2000/svg"
 width="101.000000pt" height="101.000000pt" viewBox="0 0 101.000000 101.000000"
 preserveAspectRatio="xMidYMid meet">
<metadata>
Created by potrace 1.16, written by Peter Selinger 2001-2019
</metadata>
<g transform="translate(0.000000,101.000000) scale(0.100000,-0.100000)"
fill="#000000" stroke="none">
<path d="M207 1003 c-9 -2 -14 -9 -11 -15 3 -5 3 -51 -1 -102 l-7 -92 -59 6
c-33 3 -63 3 -67 0 -4 -3 -7 -24 -8 -47 l-1 -42 53 2 c52 3 53 2 47 -23 -14
-61 -64 -173 -97 -220 l-36 -50 26 -40 c15 -22 30 -40 33 -40 11 0 43 60 72
134 23 60 28 66 37 50 6 -11 9 -60 7 -114 -14 -335 -16 -323 52 -313 35 6 32
-33 32 368 0 114 2 145 7 145 2 0 15 -21 30 -47 15 -27 29 -50 30 -52 2 -2 18
7 36 19 l33 22 -30 -26 c-16 -14 -42 -31 -57 -37 -16 -6 -28 -15 -28 -19 0 -7
75 -60 85 -60 4 0 31 24 62 53 31 28 54 44 50 35 -3 -9 -1 -30 5 -45 9 -24 7
-44 -11 -104 -19 -62 -31 -82 -72 -121 -26 -26 -60 -50 -74 -54 -14 -3 -25 -9
-25 -13 0 -3 23 -19 51 -34 l50 -28 28 23 c73 60 121 156 127 253 4 72 7 93
18 124 9 27 -8 44 -36 35 -30 -9 -30 15 0 58 16 24 36 57 45 74 10 20 26 33
42 37 24 4 29 -1 46 -41 11 -25 33 -65 49 -89 22 -32 25 -41 11 -34 -40 22
-83 -18 -61 -58 5 -9 7 -59 5 -111 -13 -300 -16 -283 52 -273 27 4 32 10 35
41 3 21 -1 54 -8 75 -13 38 -13 127 1 207 3 19 6 45 7 58 0 12 3 22 6 22 3 0
28 -19 55 -41 l49 -42 40 41 41 40 -24 12 c-73 38 -189 149 -189 180 0 10 25
12 112 11 73 -2 86 10 73 62 l-7 25 -144 -1 c-79 -1 -144 2 -144 6 0 4 6 23
14 41 l14 33 91 7 c50 4 95 5 101 1 16 -10 11 23 -10 65 -22 43 -11 41 -135
25 -38 -5 -101 -9 -240 -15 -33 -1 -67 1 -76 4 -25 11 -30 -6 -15 -49 15 -42
45 -60 80 -49 11 4 39 7 61 8 44 1 44 2 32 -59 -4 -18 -11 -20 -93 -18 -51 1
-94 -2 -101 -9 -10 -8 -13 -7 -13 5 0 17 -20 27 -53 27 -21 0 -22 4 -20 90 1
79 -1 91 -17 100 -19 10 -32 11 -63 3z m237 -310 c23 3 51 8 64 11 12 3 22 1
22 -3 0 -24 -103 -153 -113 -140 -2 2 -20 28 -41 57 -21 29 -44 51 -50 49 -6
-3 -18 -8 -26 -11 -11 -5 -15 1 -16 24 -1 31 9 36 59 31 9 -1 17 3 17 10 0 7
10 2 21 -10 18 -19 29 -22 63 -18z"/>
</g>
</svg>
