<?xml version="1.0" standalone="no"?>
<!DOCTYPE svg PUBLIC "-//W3C//DTD SVG 20010904//EN"
 "http://www.w3.org/TR/2001/REC-SVG-20010904/DTD/svg10.dtd">
<svg version="1.0" xmlns="http://www.w3.org/2000/svg"
 width="101.000000pt" height="101.000000pt" viewBox="0 0 101.000000 101.000000"
 preserveAspectRatio="xMidYMid meet">
<metadata>
Created by potrace 1.16, written by Peter Selinger 2001-2019
</metadata>
<g transform="translate(0.000000,101.000000) scale(0.100000,-0.100000)"
fill="#000000" stroke="none">
<path d="M165 980 c-4 -16 -3 -35 1 -41 4 -6 8 -33 8 -59 2 -43 0 -46 -21 -42
-12 2 -38 1 -57 -2 -26 -5 -36 -13 -40 -32 -11 -41 0 -61 32 -58 83 10 77 12
74 -29 -3 -54 -55 -173 -100 -232 l-39 -50 26 -52 c14 -29 28 -53 32 -53 3 0
24 39 46 87 37 78 42 84 52 65 14 -26 8 -235 -8 -275 -8 -20 -8 -34 0 -48 5
-11 7 -28 4 -38 -7 -22 16 -30 61 -24 l31 5 -4 111 c-7 182 -5 357 4 357 2 0
13 -20 24 -45 l20 -45 40 21 c31 15 39 24 34 37 -4 9 -9 22 -11 27 -3 6 14 11
40 13 39 1 44 -1 45 -21 0 -12 2 -35 3 -51 4 -39 -21 -55 -62 -39 -55 21 -84
-2 -73 -60 4 -22 10 -25 36 -22 18 2 42 7 54 10 35 11 38 -17 10 -77 -25 -55
-59 -96 -116 -138 l-33 -26 51 -31 51 -32 35 37 c41 42 125 207 122 237 -2 18
4 20 51 19 45 0 52 2 52 20 0 20 0 20 15 0 16 -21 20 -60 6 -68 -13 -8 -12
-108 1 -123 10 -12 8 -44 -7 -89 -8 -25 13 -34 62 -27 27 4 32 10 36 41 2 21
0 47 -4 60 -12 31 -11 129 0 137 11 6 25 -28 30 -71 2 -23 44 -22 96 0 62 28
86 58 78 96 -3 15 0 37 6 48 14 26 -12 101 -62 176 -37 56 -39 80 -13 158 8
23 18 58 21 77 3 19 8 38 11 43 5 7 8 20 19 73 4 19 -1 20 -108 22 -61 1 -126
0 -143 -2 l-31 -5 -2 -115 c0 -65 3 -116 9 -120 12 -8 11 -153 -2 -161 -5 -3
-8 -16 -7 -27 2 -38 -3 -93 -8 -74 -3 11 -15 18 -36 18 -18 1 -41 2 -52 3 -16
1 -19 7 -17 31 1 17 3 40 3 51 1 19 7 21 44 20 38 -1 44 2 48 22 8 40 -3 62
-32 63 -14 1 -35 2 -46 3 -16 1 -19 7 -17 31 1 17 3 40 3 53 1 25 7 26 43 12
32 -12 56 9 56 50 0 33 -16 48 -33 31 -6 -6 -22 -11 -36 -11 -25 0 -26 2 -24
62 1 35 5 73 9 86 7 24 6 24 -63 26 -41 1 -61 -13 -48 -35 3 -5 7 -35 9 -67
l3 -59 -49 5 c-31 3 -48 1 -48 -6 0 -6 -7 -9 -15 -6 -8 3 -20 2 -27 -2 -7 -4
-22 -9 -35 -10 -19 -2 -22 1 -19 19 3 12 8 55 11 95 l6 72 -55 0 c-52 0 -55
-1 -61 -30z m655 -130 c-4 -8 -8 -26 -8 -40 0 -14 -10 -62 -22 -108 l-22 -82
24 -33 c43 -55 69 -117 71 -165 2 -41 -1 -48 -24 -59 -15 -7 -40 -10 -57 -7
-29 6 -31 9 -37 68 -7 64 -7 159 -3 336 l3 105 42 0 c33 0 40 -3 33 -15z
m-364 -137 l1 -52 -43 1 c-51 3 -57 -2 -57 -42 l0 -30 -24 35 c-19 28 -30 35
-51 33 -24 -3 -27 0 -24 22 2 14 3 35 4 47 0 19 5 21 49 19 27 -2 49 1 49 7 0
5 6 7 13 4 8 -3 19 -2 24 1 6 4 22 7 35 7 21 0 23 -4 24 -52z"/>
</g>
</svg>
