<?xml version="1.0" standalone="no"?>
<!DOCTYPE svg PUBLIC "-//W3C//DTD SVG 20010904//EN"
 "http://www.w3.org/TR/2001/REC-SVG-20010904/DTD/svg10.dtd">
<svg version="1.0" xmlns="http://www.w3.org/2000/svg"
 width="101.000000pt" height="101.000000pt" viewBox="0 0 101.000000 101.000000"
 preserveAspectRatio="xMidYMid meet">
<metadata>
Created by potrace 1.16, written by Peter Selinger 2001-2019
</metadata>
<g transform="translate(0.000000,101.000000) scale(0.100000,-0.100000)"
fill="#000000" stroke="none">
<path d="M188 1003 c-19 -5 -25 -43 -8 -43 11 0 13 -50 4 -125 l-6 -50 -69 3
c-67 4 -68 3 -75 -24 -11 -45 6 -79 43 -82 18 -2 41 1 51 7 17 9 19 7 16 -18
-6 -48 -53 -163 -90 -219 l-35 -53 25 -29 c13 -16 26 -35 29 -42 8 -19 21 2
59 95 29 70 34 76 45 60 10 -13 12 -52 8 -163 -3 -80 -8 -163 -11 -186 -7 -46
5 -55 64 -46 32 4 32 5 26 51 -5 42 -8 304 -4 361 l2 24 19 -24 c10 -14 22
-35 25 -47 7 -27 15 -28 55 -7 30 15 31 15 24 -5 -6 -20 -3 -21 37 -17 24 3
53 8 64 11 12 4 25 2 28 -4 16 -25 -122 -179 -193 -215 l-33 -17 39 -34 c21
-19 43 -34 49 -35 18 0 162 158 194 213 23 40 28 45 29 26 1 -13 3 -63 6 -110
3 -48 1 -105 -3 -127 -11 -46 -1 -53 55 -45 39 6 47 30 27 86 -10 29 -13 66
-9 126 3 48 6 96 6 109 1 16 6 22 16 18 8 -3 23 -1 34 5 11 6 39 7 64 4 l44
-7 -6 -37 c-3 -20 -5 -48 -5 -63 1 -34 -20 -47 -70 -43 -21 2 -38 2 -38 -1 0
-2 9 -18 20 -36 11 -18 20 -40 20 -49 0 -25 37 -30 83 -10 69 30 71 37 81 196
2 33 5 67 6 75 10 53 -28 67 -112 43 -31 -9 -59 -12 -76 -7 -15 4 -36 8 -47 8
-15 1 -19 7 -17 26 2 14 3 34 4 45 0 19 7 20 109 20 96 0 110 2 115 18 3 10
-1 29 -10 42 -17 26 -22 125 -7 125 14 0 22 29 15 54 -5 22 -10 23 -84 22 -90
-1 -92 5 -20 67 22 18 40 39 40 44 0 10 -74 43 -97 43 -6 0 -16 -15 -23 -32
-7 -18 -26 -54 -42 -80 -28 -45 -31 -46 -91 -53 -42 -5 -62 -4 -65 4 -2 7 -29
11 -67 11 -54 0 -65 -3 -70 -19 -14 -45 23 -96 56 -76 6 4 43 9 82 11 l72 4 1
-50 0 -49 -71 6 c-40 3 -89 3 -110 -1 l-38 -7 6 -97 7 -96 -36 57 c-37 59 -44
63 -72 48 -15 -8 -17 -2 -17 48 l0 57 51 -3 c52 -2 52 -2 58 31 11 56 1 67
-59 63 l-52 -4 3 79 c2 43 9 88 15 99 6 11 9 22 7 23 -2 1 -16 7 -31 14 -29
12 -39 13 -69 5z m612 -244 c0 -9 3 -30 6 -45 l6 -29 -66 0 -65 0 2 45 2 45
58 0 c46 0 57 -3 57 -16z m-206 -212 l0 -52 -35 3 c-19 1 -44 3 -56 3 -20 1
-22 6 -21 45 2 43 3 43 43 47 22 2 47 4 55 5 12 2 15 -10 14 -51z"/>
<path d="M485 993 c-41 -22 -41 -20 -18 -46 11 -12 28 -37 37 -54 9 -18 21
-33 27 -33 9 0 68 27 78 36 9 8 -64 114 -79 114 -8 -1 -28 -8 -45 -17z"/>
</g>
</svg>
