<?xml version="1.0" standalone="no"?>
<!DOCTYPE svg PUBLIC "-//W3C//DTD SVG 20010904//EN"
 "http://www.w3.org/TR/2001/REC-SVG-20010904/DTD/svg10.dtd">
<svg version="1.0" xmlns="http://www.w3.org/2000/svg"
 width="101.000000pt" height="103.000000pt" viewBox="0 0 101.000000 103.000000"
 preserveAspectRatio="xMidYMid meet">
<metadata>
Created by potrace 1.16, written by Peter Selinger 2001-2019
</metadata>
<g transform="translate(0.000000,103.000000) scale(0.100000,-0.100000)"
fill="#000000" stroke="none">
<path d="M252 960 l3 -69 -92 6 -92 6 -7 -27 c-6 -27 5 -90 13 -68 6 14 109
17 118 2 16 -26 -90 -157 -145 -180 -30 -12 -41 -30 -18 -30 6 0 27 -12 46
-27 l36 -27 42 49 c23 26 55 72 71 100 l28 53 -2 -64 c-1 -35 -4 -68 -8 -74
-14 -23 5 -58 35 -65 42 -9 66 1 66 28 0 12 1 49 2 81 l2 60 33 -32 c40 -39
47 -39 77 -7 l24 25 -39 40 c-45 46 -51 47 -79 21 -21 -20 -21 -20 -21 10 0
28 1 29 55 30 30 1 58 1 61 1 10 -2 20 63 13 81 -5 13 -18 16 -67 14 l-62 -3
1 40 c0 23 4 51 8 62 5 18 2 22 -25 28 -17 3 -43 6 -56 6 -24 0 -25 -1 -21
-70z"/>
<path d="M634 1008 c-3 -10 -2 -23 2 -30 4 -6 8 -28 8 -49 l1 -36 -67 3 c-65
4 -68 3 -74 -21 -3 -14 -4 -35 0 -48 5 -20 11 -23 50 -23 l44 1 -14 -26 c-17
-33 -101 -117 -125 -124 -28 -9 -23 -19 23 -50 l42 -28 44 48 c24 27 51 63 60
81 l17 33 -3 -57 c-1 -31 -5 -69 -8 -83 -10 -43 33 -71 80 -53 11 4 16 20 17
53 0 25 4 66 8 91 7 44 7 45 20 20 24 -44 85 -120 109 -136 22 -15 25 -13 62
22 l38 37 -58 38 c-51 35 -120 113 -108 124 2 2 34 6 71 7 56 3 67 6 71 23 16
60 -10 93 -62 80 -15 -4 -54 -8 -87 -9 l-60 -1 2 63 c2 34 -2 63 -7 63 -56 7
-91 2 -96 -13z"/>
<path d="M363 568 c-30 -63 -95 -132 -169 -180 -56 -37 -63 -44 -48 -53 10 -5
28 -21 40 -33 27 -28 26 -29 123 57 41 36 83 67 95 69 73 9 151 11 213 6 70
-5 72 -7 62 -26 -18 -33 -90 -108 -104 -108 -7 0 -38 20 -68 45 -31 25 -59 45
-64 45 -12 -1 -79 -58 -73 -62 3 -2 29 -22 59 -43 l54 -39 -29 -8 c-16 -4 -40
-10 -54 -13 -14 -3 -36 -7 -50 -11 -14 -3 -41 -7 -60 -9 -19 -1 -57 -8 -83
-15 -35 -9 -55 -10 -72 -2 -12 6 -33 8 -45 5 -21 -6 -21 -6 -2 -27 11 -11 27
-35 35 -52 17 -34 17 -34 132 -19 221 27 412 121 497 246 36 52 84 166 74 176
-8 8 -47 6 -113 -6 -35 -6 -100 -9 -145 -6 -46 3 -94 5 -108 6 -24 1 -24 1 -5
16 11 8 27 18 35 23 21 12 6 24 -54 44 -27 9 -50 16 -51 16 0 0 -10 -19 -22
-42z"/>
</g>
</svg>
