<?xml version="1.0" standalone="no"?>
<!DOCTYPE svg PUBLIC "-//W3C//DTD SVG 20010904//EN"
 "http://www.w3.org/TR/2001/REC-SVG-20010904/DTD/svg10.dtd">
<svg version="1.0" xmlns="http://www.w3.org/2000/svg"
 width="101.000000pt" height="102.000000pt" viewBox="0 0 101.000000 102.000000"
 preserveAspectRatio="xMidYMid meet">
<metadata>
Created by potrace 1.16, written by Peter Selinger 2001-2019
</metadata>
<g transform="translate(0.000000,102.000000) scale(0.100000,-0.100000)"
fill="#000000" stroke="none">
<path d="M278 1013 c-22 -6 -29 -28 -24 -83 l3 -45 -88 1 -89 0 -6 -32 c-3
-18 -1 -42 6 -54 10 -18 17 -21 43 -16 18 4 48 7 68 9 l37 2 -15 -30 c-19 -35
-110 -126 -153 -151 -35 -21 -37 -30 -12 -38 10 -4 29 -16 42 -28 l23 -21 41
44 c23 24 55 61 71 82 l30 37 2 -71 c2 -55 7 -75 20 -85 16 -12 16 -13 1 -14
-12 0 -16 -8 -14 -34 2 -18 6 -38 10 -45 11 -18 -12 -133 -34 -168 -21 -36
-88 -70 -149 -77 -56 -7 -59 -11 -30 -38 13 -13 31 -34 40 -48 l17 -25 64 31
c35 18 79 44 97 60 52 44 85 133 84 230 -1 15 6 22 21 23 11 0 50 3 86 6 36 3
79 3 96 0 36 -6 34 4 38 -168 2 -104 4 -120 23 -138 11 -12 31 -20 44 -19 13
1 57 1 97 0 88 -1 115 13 143 73 22 50 24 77 5 77 -7 0 -29 11 -49 24 -39 27
-40 26 -52 -34 -8 -39 -25 -50 -74 -47 l-46 3 -7 44 c-5 25 -6 83 -3 130 8
131 8 132 -5 140 -7 5 -27 3 -44 -3 -47 -17 -314 -12 -332 5 -3 3 6 8 20 12
30 7 40 36 31 84 -4 21 -9 51 -10 67 l-3 30 39 -43 38 -43 30 22 c17 13 31 25
31 29 0 3 -20 26 -45 50 l-45 44 -22 -21 -23 -22 -1 32 c0 30 2 32 32 32 18 0
36 -4 40 -8 12 -12 42 -8 58 9 15 14 17 14 32 0 18 -19 47 -20 75 -5 58 31
-69 -123 -145 -177 l-30 -20 47 -27 c25 -15 48 -27 50 -27 3 0 32 33 65 74
l59 74 5 -69 c3 -38 8 -73 12 -76 7 -7 75 -8 82 -1 9 10 16 98 9 115 -4 10 -9
32 -10 48 -3 29 -2 29 17 -10 26 -50 83 -121 114 -142 24 -15 26 -14 59 23 40
46 41 51 14 59 -44 14 -149 128 -149 162 0 18 30 17 69 -3 60 -30 104 5 87 69
-5 22 -9 23 -109 22 l-104 0 4 25 c2 14 5 33 7 42 1 10 5 21 9 24 19 20 -7 35
-63 39 l-35 3 4 -44 c1 -25 0 -55 -3 -69 -6 -23 -9 -24 -74 -20 -37 2 -73 -1
-79 -7 -8 -6 -13 -7 -13 -1 0 6 -30 10 -68 9 l-68 -1 7 40 c3 22 9 47 13 55 5
12 -3 19 -27 28 -18 7 -35 11 -38 11 -2 -1 -12 -3 -21 -6z"/>
<path d="M433 394 c-18 -8 -33 -17 -33 -21 0 -4 15 -37 33 -73 17 -36 32 -66
33 -68 1 -1 22 6 47 17 l47 20 -43 71 c-23 38 -44 70 -47 69 -3 0 -20 -7 -37
-15z"/>
</g>
</svg>
