<?xml version="1.0" standalone="no"?>
<!DOCTYPE svg PUBLIC "-//W3C//DTD SVG 20010904//EN"
 "http://www.w3.org/TR/2001/REC-SVG-20010904/DTD/svg10.dtd">
<svg version="1.0" xmlns="http://www.w3.org/2000/svg"
 width="101.000000pt" height="101.000000pt" viewBox="0 0 101.000000 101.000000"
 preserveAspectRatio="xMidYMid meet">
<metadata>
Created by potrace 1.16, written by Peter Selinger 2001-2019
</metadata>
<g transform="translate(0.000000,101.000000) scale(0.100000,-0.100000)"
fill="#000000" stroke="none">
<path d="M182 963 c0 -27 5 -53 10 -60 5 -6 8 -31 6 -54 l-3 -43 -57 2 c-80 2
-102 -21 -78 -83 9 -25 14 -27 56 -23 44 3 45 3 39 -22 -12 -48 -58 -154 -86
-200 -54 -86 -54 -82 -21 -134 l31 -48 22 44 c12 23 34 76 49 117 24 65 29 72
38 55 6 -12 9 -59 7 -114 -14 -324 -16 -313 51 -303 l29 5 -3 101 c-6 184 -4
347 5 347 2 0 13 -20 24 -45 11 -25 23 -45 26 -45 3 0 22 10 41 22 27 16 34
18 30 7 -9 -23 6 -41 33 -40 13 1 58 3 100 5 72 3 77 2 78 -18 0 -12 3 -58 6
-102 3 -45 1 -94 -5 -108 -9 -26 -13 -27 -65 -22 -30 2 -55 4 -55 2 0 -1 9
-19 20 -41 11 -22 20 -47 20 -57 0 -16 7 -18 48 -14 55 5 97 20 108 38 5 7 9
74 11 148 2 182 3 182 19 176 8 -3 25 0 39 6 19 8 31 7 59 -6 28 -13 40 -14
57 -6 11 7 31 9 44 6 20 -5 23 -1 27 26 10 68 4 70 -153 48 -87 -12 -288 -3
-337 15 -7 2 -22 1 -35 -4 -19 -8 -27 -2 -56 40 -35 51 -41 55 -69 40 -15 -8
-17 -2 -17 45 0 52 7 66 20 44 10 -16 62 -12 79 6 9 8 16 28 16 44 0 37 -28
53 -81 48 l-39 -4 6 76 c4 41 11 83 15 92 14 25 12 26 -31 21 -26 -4 -40 -2
-40 6 0 6 -9 11 -20 11 -17 0 -19 -7 -18 -47z"/>
<path d="M658 1005 c-2 -2 -16 -6 -32 -9 -45 -8 -50 -19 -27 -64 12 -23 21
-44 21 -46 0 -3 -33 -3 -74 0 -40 4 -89 4 -109 0 l-36 -7 1 -84 c0 -80 2 -86
23 -91 20 -5 23 -11 19 -37 -8 -53 6 -62 93 -61 47 1 79 6 81 13 5 15 69 14
76 -1 5 -10 7 -10 12 0 8 16 43 15 74 -3 52 -30 90 -8 90 51 0 22 4 33 11 29
5 -4 21 -4 33 -1 22 5 24 11 25 73 0 37 3 74 6 84 6 19 -22 52 -36 43 -6 -3
-48 -7 -94 -8 l-84 -1 -22 57 c-18 49 -39 75 -51 63z m176 -253 c-2 -25 -9
-49 -16 -53 -23 -15 -117 -22 -131 -10 -8 6 -52 10 -105 9 -51 0 -95 2 -99 6
-3 3 -2 6 4 6 5 0 8 19 7 43 l-2 42 172 1 172 1 -2 -45z"/>
<path d="M430 360 c-18 -28 -54 -70 -81 -94 -50 -45 -57 -56 -38 -56 6 0 24
-9 41 -21 l29 -21 57 63 c31 34 65 73 75 85 10 13 26 26 37 29 11 4 20 11 20
16 0 9 -81 49 -100 49 -4 0 -22 -23 -40 -50z"/>
<path d="M763 369 l-31 -20 54 -76 c30 -41 54 -78 54 -82 0 -3 4 -12 9 -20 7
-11 18 -8 55 14 25 15 46 31 46 35 0 15 -132 170 -144 169 -6 0 -25 -9 -43
-20z"/>
</g>
</svg>
