<?xml version="1.0" standalone="no"?>
<!DOCTYPE svg PUBLIC "-//W3C//DTD SVG 20010904//EN"
 "http://www.w3.org/TR/2001/REC-SVG-20010904/DTD/svg10.dtd">
<svg version="1.0" xmlns="http://www.w3.org/2000/svg"
 width="101.000000pt" height="101.000000pt" viewBox="0 0 101.000000 101.000000"
 preserveAspectRatio="xMidYMid meet">
<metadata>
Created by potrace 1.16, written by Peter Selinger 2001-2019
</metadata>
<g transform="translate(0.000000,101.000000) scale(0.100000,-0.100000)"
fill="#000000" stroke="none">
<path d="M173 905 l7 -106 -59 7 c-66 7 -76 -2 -65 -61 6 -33 6 -33 60 -32 30
1 54 1 54 1 0 -1 -10 -33 -21 -70 -24 -78 -60 -154 -95 -200 l-23 -32 19 -38
c11 -21 20 -44 20 -51 0 -33 21 -6 56 72 34 76 40 84 51 68 16 -20 11 -241 -5
-284 -13 -34 -4 -76 18 -82 10 -2 29 -2 43 0 27 5 26 -1 26 173 0 346 -3 323
27 275 13 -22 29 -39 34 -38 5 2 9 -5 8 -15 -1 -9 0 -29 0 -44 2 -26 4 -27 45
-22 61 9 115 9 123 1 14 -14 -82 -122 -143 -162 -34 -22 -62 -42 -62 -45 0 -3
17 -19 38 -37 l38 -32 56 50 c30 27 79 80 108 117 29 37 56 71 60 76 8 9 9 -3
11 -134 1 -52 -1 -109 -6 -126 -9 -36 6 -45 62 -36 29 4 31 7 24 31 -4 14 -6
71 -5 126 3 158 0 152 42 87 41 -63 170 -188 180 -175 3 4 21 24 39 44 l34 37
-48 23 c-49 25 -147 108 -164 139 -10 19 -13 18 70 22 19 1 54 -1 76 -5 39 -8
42 -7 47 18 10 58 6 60 -116 62 -164 2 -155 0 -154 38 1 25 5 33 21 34 73 5
96 5 137 -1 45 -7 47 -6 52 19 3 15 1 37 -3 48 -9 24 -4 270 5 286 4 5 4 18 0
28 -5 16 -17 19 -90 20 -46 1 -86 -3 -90 -8 -7 -12 -172 -13 -180 -2 -2 5 -36
9 -74 9 l-69 0 4 -137 c3 -75 5 -158 7 -186 1 -27 -2 -58 -7 -67 -7 -15 -3
-17 32 -14 21 2 44 6 50 10 6 3 35 3 64 0 53 -6 54 -7 55 -40 1 -30 -2 -34
-30 -39 -18 -3 -66 -3 -107 0 -41 3 -85 6 -97 6 l-23 1 22 18 22 17 -33 52
c-34 53 -41 57 -69 42 -15 -8 -17 -4 -14 30 4 40 12 45 66 39 24 -2 36 16 36
57 0 33 -14 51 -25 33 -3 -5 -24 -10 -46 -10 l-40 0 5 95 c3 52 7 100 8 107 2
9 -14 14 -51 16 l-54 3 6 -106z m419 -49 l3 -31 -55 0 c-54 0 -55 0 -55 30 0
29 1 30 52 31 50 2 51 1 55 -30z m204 -3 l0 -31 -55 1 c-55 2 -56 3 -57 32 0
30 0 30 55 30 l56 0 1 -32z m-201 -154 l0 -36 -55 1 -55 1 0 35 0 35 55 0 56
0 -1 -36z m199 -1 c-2 -42 -3 -43 -36 -40 -18 1 -42 3 -53 3 -16 1 -20 8 -20
33 0 29 3 31 45 37 25 3 50 7 56 7 6 1 9 -15 8 -40z"/>
</g>
</svg>
