<?xml version="1.0" standalone="no"?>
<!DOCTYPE svg PUBLIC "-//W3C//DTD SVG 20010904//EN"
 "http://www.w3.org/TR/2001/REC-SVG-20010904/DTD/svg10.dtd">
<svg version="1.0" xmlns="http://www.w3.org/2000/svg"
 width="101.000000pt" height="102.000000pt" viewBox="0 0 101.000000 102.000000"
 preserveAspectRatio="xMidYMid meet">
<metadata>
Created by potrace 1.16, written by Peter Selinger 2001-2019
</metadata>
<g transform="translate(0.000000,102.000000) scale(0.100000,-0.100000)"
fill="#000000" stroke="none">
<path d="M205 1010 c4 -6 4 -58 0 -114 l-7 -103 -73 3 c-67 4 -74 2 -80 -17
-13 -39 2 -68 40 -75 20 -3 49 -4 65 0 34 6 34 7 18 -31 -6 -15 -13 -38 -14
-50 -4 -32 -60 -142 -95 -186 -17 -21 -28 -43 -25 -50 4 -7 18 -30 31 -52 l24
-39 54 113 c36 74 55 105 56 89 4 -55 2 -227 -2 -268 -3 -25 -2 -66 1 -92 5
-49 18 -60 64 -51 19 4 25 11 26 36 0 18 2 41 3 52 1 11 -4 45 -10 76 -6 31
-9 93 -6 140 3 46 6 94 6 106 2 32 15 20 29 -25 7 -20 15 -40 19 -44 9 -10 81
22 81 37 0 6 -18 40 -40 74 -34 52 -43 61 -62 56 -22 -6 -23 -3 -23 53 l0 59
41 -5 c48 -5 74 15 74 58 0 28 -29 57 -43 44 -3 -3 -21 -7 -39 -8 l-33 -1 3
55 c4 76 9 117 15 127 12 19 -12 35 -58 40 -34 3 -45 1 -40 -7z"/>
<path d="M489 1003 c-1 -5 -3 -21 -5 -37 -10 -88 -78 -253 -128 -313 -14 -17
-26 -35 -25 -39 0 -5 16 -22 34 -37 l33 -28 25 42 c30 50 29 62 28 -268 0 -35
0 -84 1 -110 1 -27 -2 -64 -6 -84 -9 -41 4 -50 62 -41 31 4 31 6 27 47 -3 38
-1 43 18 44 12 0 53 3 90 6 38 2 124 1 190 -4 67 -5 123 -7 125 -6 2 2 4 21 5
44 2 54 -12 62 -75 44 -30 -9 -59 -12 -76 -7 -15 4 -36 8 -47 8 -17 1 -20 7
-17 36 1 19 3 44 3 55 1 17 9 21 41 22 22 1 50 -2 63 -7 49 -19 82 16 68 71
-5 16 -14 19 -62 18 -101 -1 -116 3 -113 31 2 14 3 35 4 48 0 16 5 22 14 18 8
-3 25 0 39 6 17 8 36 8 67 0 48 -12 58 -6 58 40 0 32 -27 61 -49 53 -9 -4 -41
-7 -71 -8 l-55 -2 0 47 0 48 70 1 c39 1 80 0 92 -1 24 -1 37 28 31 71 -3 22
-8 24 -66 25 -34 1 -65 -2 -67 -6 -8 -12 -147 -11 -161 1 -8 6 -35 9 -62 7
l-49 -3 15 35 c7 19 23 50 34 68 11 18 19 34 17 36 -30 26 -117 47 -120 29z
m171 -287 c0 -24 3 -52 7 -61 5 -16 0 -17 -58 -10 -35 4 -64 8 -65 9 -1 0 -4
25 -7 54 l-6 52 64 0 65 0 0 -44z m-14 -152 c14 -4 22 -14 22 -27 0 -12 3 -32
7 -44 6 -19 2 -25 -21 -34 -16 -5 -40 -8 -54 -4 -14 3 -36 7 -50 8 -20 2 -24
7 -22 27 2 14 3 35 4 48 0 16 5 21 17 18 9 -3 23 -1 31 4 17 11 36 12 66 4z
m0 -180 c14 -4 22 -14 22 -27 1 -12 4 -37 8 -54 6 -29 3 -34 -22 -44 -16 -5
-40 -8 -54 -4 -14 3 -36 7 -50 8 -22 2 -25 6 -22 37 1 19 3 45 3 58 1 16 6 21
18 18 9 -3 23 -1 31 4 17 11 36 12 66 4z"/>
<path d="M673 994 l-42 -15 25 -52 c13 -29 24 -57 24 -64 0 -6 4 -14 9 -17 8
-5 101 22 101 30 0 10 -65 134 -70 133 -3 0 -24 -7 -47 -15z"/>
</g>
</svg>
