<?xml version="1.0" standalone="no"?>
<!DOCTYPE svg PUBLIC "-//W3C//DTD SVG 20010904//EN"
 "http://www.w3.org/TR/2001/REC-SVG-20010904/DTD/svg10.dtd">
<svg version="1.0" xmlns="http://www.w3.org/2000/svg"
 width="101.000000pt" height="101.000000pt" viewBox="0 0 101.000000 101.000000"
 preserveAspectRatio="xMidYMid meet">
<metadata>
Created by potrace 1.16, written by Peter Selinger 2001-2019
</metadata>
<g transform="translate(0.000000,101.000000) scale(0.100000,-0.100000)"
fill="#000000" stroke="none">
<path d="M179 1001 c11 -7 12 -29 6 -111 l-7 -102 -59 7 c-57 7 -59 6 -69 -20
-21 -55 14 -85 80 -71 17 3 30 2 30 -3 0 -22 -74 -183 -109 -236 l-39 -58 24
-46 c14 -24 27 -47 29 -49 3 -3 27 41 54 98 42 90 50 101 59 84 6 -12 9 -59 6
-114 -2 -52 -5 -136 -6 -187 -3 -101 -1 -104 60 -95 27 3 31 8 27 26 -6 21 -9
317 -5 366 2 23 3 23 10 5 5 -11 11 -28 14 -39 6 -18 23 -18 72 1 13 5 16 3
11 -10 -4 -10 -1 -28 5 -42 15 -33 -3 -53 -47 -52 -19 1 -36 -1 -39 -4 -2 -2
1 -25 7 -52 11 -49 22 -56 59 -36 18 10 20 9 15 -5 -4 -9 -2 -27 4 -40 8 -16
8 -38 1 -69 -10 -51 -3 -58 56 -49 31 4 37 14 34 54 -2 24 20 13 47 -22 l22
-30 57 29 c31 16 74 41 95 55 21 14 40 26 42 26 2 0 33 -22 69 -49 92 -70 98
-70 146 -20 22 23 39 43 38 44 -2 1 -24 9 -49 18 -25 10 -66 30 -91 46 l-45
29 33 68 c32 67 60 157 69 220 4 28 2 32 -22 37 -14 3 -46 -2 -70 -10 -27 -10
-54 -12 -71 -7 -15 4 -38 9 -52 10 -14 2 -32 4 -40 5 -31 4 -50 -1 -50 -14 0
-10 -12 -13 -42 -10 -95 6 -93 6 -90 38 1 17 3 40 3 51 1 22 5 23 76 26 35 1
46 17 37 54 -6 22 -11 24 -58 21 l-51 -2 0 55 0 55 69 2 c38 2 71 5 74 7 8 9
-7 53 -26 76 -17 21 -21 21 -62 9 -25 -6 -56 -11 -69 -11 -13 1 -30 -3 -37 -9
-8 -6 -14 -8 -14 -5 0 4 -9 2 -20 -4 -15 -8 -20 -21 -20 -55 0 -25 5 -45 10
-45 16 0 11 -47 -6 -54 -9 -3 -35 -6 -58 -6 l-43 0 4 86 c1 47 8 94 13 105 17
30 4 39 -58 39 -36 0 -52 -3 -43 -9z m181 -321 c0 -16 5 -30 10 -30 6 0 10
-11 10 -25 0 -14 -5 -25 -11 -25 -8 0 -10 -20 -7 -60 4 -60 4 -60 -13 -34 -9
15 -25 44 -35 66 -12 27 -23 38 -34 35 -13 -3 -16 4 -16 42 1 46 1 46 41 52
22 3 43 7 48 7 4 1 7 -11 7 -28z m432 -156 c7 -6 -38 -144 -51 -157 -9 -9 -36
62 -46 121 -5 29 -3 33 12 28 10 -3 25 -1 33 4 17 11 44 13 52 4z m-182 -30
c0 -8 14 -57 31 -110 22 -70 28 -99 20 -108 -19 -22 -139 -77 -173 -79 -31 -2
-33 0 -30 28 1 17 3 40 3 52 1 19 12 26 58 40 31 10 59 21 62 26 4 5 2 24 -3
42 l-10 32 -51 -19 c-58 -22 -72 -14 -62 37 3 17 6 40 7 52 0 20 4 21 59 17
35 -3 59 0 59 6 0 5 7 7 15 4 8 -4 15 -12 15 -20z"/>
<path d="M636 954 c-15 -15 -17 -28 -11 -81 5 -44 3 -68 -5 -78 -7 -8 -10 -20
-7 -27 7 -20 -19 -63 -54 -90 l-31 -25 47 -17 c44 -17 47 -17 67 0 34 30 70
122 71 184 2 54 3 55 32 56 l30 0 2 -95 c2 -102 12 -124 54 -121 13 0 43 2 66
3 33 1 42 5 46 22 3 11 9 30 13 43 6 22 5 23 -40 20 l-47 -3 -2 102 c-1 56 -5
104 -9 108 -6 7 -54 8 -108 4 -14 -1 -41 1 -61 5 -28 6 -40 4 -53 -10z"/>
</g>
</svg>
