<?xml version="1.0" standalone="no"?>
<!DOCTYPE svg PUBLIC "-//W3C//DTD SVG 20010904//EN"
 "http://www.w3.org/TR/2001/REC-SVG-20010904/DTD/svg10.dtd">
<svg version="1.0" xmlns="http://www.w3.org/2000/svg"
 width="101.000000pt" height="102.000000pt" viewBox="0 0 101.000000 102.000000"
 preserveAspectRatio="xMidYMid meet">
<metadata>
Created by potrace 1.16, written by Peter Selinger 2001-2019
</metadata>
<g transform="translate(0.000000,102.000000) scale(0.100000,-0.100000)"
fill="#000000" stroke="none">
<path d="M198 1013 c-9 -2 -19 -12 -22 -21 -8 -30 -5 -86 5 -99 6 -6 9 -27 7
-45 -3 -32 -4 -33 -45 -30 -58 3 -93 -12 -93 -40 0 -41 16 -53 69 -53 46 0 50
-2 45 -20 -15 -49 -88 -193 -114 -227 -17 -20 -30 -39 -30 -43 0 -3 13 -23 29
-45 34 -47 34 -47 91 62 29 55 38 66 39 47 3 -44 2 -233 -1 -316 -3 -90 -1
-94 60 -85 28 4 32 7 25 26 -4 11 -7 36 -5 54 1 17 2 60 1 95 0 107 0 261 2
287 l1 25 19 -24 c11 -13 24 -31 29 -40 8 -14 12 -14 44 3 38 20 44 34 24 54
-9 9 -8 12 8 13 10 1 39 3 64 5 l44 4 -39 -41 c-22 -22 -66 -57 -98 -77 l-58
-36 35 -35 35 -35 61 53 c39 34 60 47 60 37 0 -17 15 -21 63 -17 28 2 30 -1
21 -35 -5 -17 -16 -23 -55 -28 -27 -4 -57 -2 -67 3 -39 21 -81 -14 -66 -54 8
-19 42 -25 68 -13 15 6 38 7 67 1 l44 -10 -51 -50 c-39 -39 -67 -56 -119 -73
l-67 -22 30 -27 c16 -15 31 -34 34 -42 4 -11 19 -7 72 19 76 39 141 100 167
157 20 45 28 47 145 45 64 -1 72 1 77 19 3 12 3 30 0 41 -5 18 -10 19 -42 13
-32 -7 -54 -7 -127 -2 -16 1 -21 8 -21 30 0 20 5 28 16 27 46 -3 71 3 71 18 0
13 6 12 33 -8 36 -28 111 -68 127 -68 5 0 10 6 10 14 0 7 9 25 20 39 11 14 20
27 20 30 0 2 -20 10 -45 17 -55 15 -130 61 -144 88 -11 21 -16 20 69 25 19 1
45 -2 56 -6 18 -6 22 -3 27 19 2 14 2 35 -1 46 -4 16 -10 18 -31 13 -44 -12
-144 -15 -155 -6 -6 5 -35 8 -64 8 -53 -2 -57 0 -44 20 9 13 72 20 90 9 7 -4
46 -5 87 -1 79 8 94 20 80 64 -5 16 -19 21 -81 26 -41 4 -92 5 -113 2 -32 -4
-38 -2 -34 12 4 14 23 16 130 18 133 2 143 5 143 50 0 32 -34 46 -94 39 -28
-3 -76 -7 -106 -8 l-55 -3 3 33 c2 18 8 35 13 38 26 15 -3 34 -61 40 l-35 3 0
-57 0 -57 -75 3 c-41 1 -86 5 -100 7 -31 7 -47 -3 -54 -35 -12 -48 4 -55 113
-53 85 1 99 -1 97 -14 -2 -13 -16 -16 -80 -14 -84 3 -106 -7 -106 -45 0 -43
26 -57 96 -49 59 6 62 5 57 -14 -5 -18 -12 -20 -88 -18 -46 1 -86 -1 -90 -5
-4 -4 -8 -18 -9 -32 l-1 -25 -22 21 c-18 17 -27 19 -45 11 -22 -10 -23 -8 -23
38 0 46 1 47 27 42 15 -3 38 -3 51 1 19 4 23 12 22 46 0 43 4 41 -85 45 -22 0
-25 6 -28 39 -2 20 1 43 6 49 6 7 10 31 10 53 1 35 -3 43 -24 53 -14 6 -26 10
-27 10 -1 -1 -10 -3 -19 -6z m492 -450 c11 -19 19 -37 17 -39 -9 -9 -167 -5
-167 4 0 3 11 19 24 36 19 26 32 32 64 33 37 2 43 -2 62 -34z"/>
<path d="M666 282 c-14 -16 -26 -31 -26 -34 0 -3 20 -18 44 -32 24 -14 69 -48
98 -75 l55 -50 37 38 38 39 -88 59 c-132 89 -127 87 -158 55z"/>
</g>
</svg>
