<?xml version="1.0" standalone="no"?>
<!DOCTYPE svg PUBLIC "-//W3C//DTD SVG 20010904//EN"
 "http://www.w3.org/TR/2001/REC-SVG-20010904/DTD/svg10.dtd">
<svg version="1.0" xmlns="http://www.w3.org/2000/svg"
 width="101.000000pt" height="101.000000pt" viewBox="0 0 101.000000 101.000000"
 preserveAspectRatio="xMidYMid meet">
<metadata>
Created by potrace 1.16, written by Peter Selinger 2001-2019
</metadata>
<g transform="translate(0.000000,101.000000) scale(0.100000,-0.100000)"
fill="#000000" stroke="none">
<path d="M186 999 c3 -6 3 -53 -1 -105 l-7 -93 -58 4 c-56 5 -58 4 -64 -21
-11 -41 2 -63 39 -70 19 -3 42 -3 51 0 13 5 14 3 7 -6 -5 -7 -10 -22 -11 -33
-1 -32 -60 -178 -91 -228 l-29 -45 24 -23 c13 -12 26 -30 30 -41 11 -36 23
-17 58 90 25 76 36 98 37 77 1 -16 1 -34 0 -39 -1 -4 2 -13 8 -20 12 -15 14
-173 2 -181 -5 -3 -9 -41 -8 -85 2 -86 6 -91 63 -83 l29 5 -3 91 c-3 94 -4
282 -1 327 1 24 1 24 16 5 8 -11 17 -32 20 -47 6 -33 7 -33 37 -13 29 20 28
27 27 -186 0 -174 -1 -171 68 -161 28 4 31 7 27 31 -13 68 -18 199 -7 205 14
9 15 142 1 151 -13 8 -13 152 0 160 5 3 9 34 9 68 -1 34 2 70 6 80 4 9 3 18
-1 18 -5 1 -18 3 -29 4 -11 2 -24 4 -30 5 -29 7 -45 -3 -54 -32 -5 -18 -10
-26 -10 -17 -1 20 -28 32 -44 22 -7 -4 -16 -8 -22 -9 -14 -2 -11 147 3 173 15
28 7 33 -50 33 -33 0 -47 -4 -42 -11z m169 -365 l4 -99 -25 43 c-21 36 -28 41
-44 32 -10 -5 -20 -10 -22 -10 -2 0 -3 25 -3 55 0 53 1 55 27 55 15 0 33 6 40
14 7 8 14 13 15 12 2 -2 5 -47 8 -102z"/>
<path d="M462 985 c-19 -8 -32 -18 -30 -22 2 -5 18 -36 36 -71 l32 -62 38 15
c20 9 41 20 45 24 10 10 -60 131 -76 131 -7 -1 -27 -7 -45 -15z"/>
<path d="M625 933 c-16 -15 -18 -37 -7 -64 6 -14 22 -17 102 -15 l95 1 2 -80
c1 -44 2 -97 2 -117 0 -21 1 -93 1 -160 1 -257 1 -280 -5 -287 -4 -3 -29 -5
-57 -4 -44 2 -49 0 -43 -15 4 -9 13 -32 20 -51 7 -19 22 -38 32 -42 24 -9 106
17 126 39 20 22 33 92 18 92 -7 0 -11 25 -11 70 0 40 4 70 10 70 6 0 10 40 10
100 0 60 -4 100 -10 100 -5 0 -10 11 -10 25 0 14 5 25 10 25 6 0 10 30 10 70
0 40 -4 70 -10 70 -5 0 -10 16 -10 35 0 19 5 35 10 35 6 0 10 25 10 56 l0 56
-89 -7 c-57 -4 -91 -3 -95 3 -10 16 -94 12 -111 -5z"/>
<path d="M529 778 c0 -2 -2 -37 -4 -80 -1 -42 -6 -81 -10 -88 -22 -36 27 -80
66 -59 10 5 54 7 98 5 l80 -4 6 62 c4 33 5 81 3 106 l-3 44 -87 -3 c-59 -2
-88 1 -88 8 0 9 -58 17 -61 9z m156 -118 l0 -45 -45 0 -45 0 0 45 0 45 45 0
45 0 0 -45z"/>
<path d="M519 503 c-21 -5 -31 -41 -18 -64 5 -10 7 -54 5 -97 -4 -74 -2 -81
17 -86 11 -3 28 -1 38 4 9 6 63 8 119 7 89 -3 100 -2 94 12 -11 26 -14 142 -4
160 5 10 7 26 4 37 -5 18 -15 19 -107 19 -56 0 -109 3 -117 6 -8 4 -22 5 -31
2z m167 -71 c5 -4 11 -16 11 -27 1 -11 5 -32 8 -47 6 -23 3 -29 -18 -39 -16
-7 -36 -8 -54 -3 -15 4 -37 8 -48 8 -16 1 -19 7 -17 31 1 17 3 40 3 53 1 16 6
21 18 18 9 -3 23 -1 31 4 18 11 51 13 66 2z"/>
</g>
</svg>
