<?xml version="1.0" standalone="no"?>
<!DOCTYPE svg PUBLIC "-//W3C//DTD SVG 20010904//EN"
 "http://www.w3.org/TR/2001/REC-SVG-20010904/DTD/svg10.dtd">
<svg version="1.0" xmlns="http://www.w3.org/2000/svg"
 width="101.000000pt" height="101.000000pt" viewBox="0 0 101.000000 101.000000"
 preserveAspectRatio="xMidYMid meet">
<metadata>
Created by potrace 1.16, written by Peter Selinger 2001-2019
</metadata>
<g transform="translate(0.000000,101.000000) scale(0.100000,-0.100000)"
fill="#000000" stroke="none">
<path d="M158 1003 c-19 -5 -25 -43 -8 -43 11 0 12 -91 1 -130 -6 -23 -12 -25
-61 -26 -59 -1 -68 -10 -56 -60 6 -23 11 -25 56 -21 57 4 55 14 18 -103 -11
-36 -35 -95 -55 -132 l-35 -66 22 -49 c23 -53 25 -52 62 31 20 45 23 47 35 30
10 -14 12 -52 8 -170 -5 -144 -5 -152 14 -157 10 -2 30 -2 44 0 21 4 24 10 25
46 0 23 1 51 2 62 1 11 -3 45 -9 76 -6 31 -9 93 -6 140 3 46 6 95 6 109 1 21
5 18 23 -21 21 -45 23 -46 48 -33 25 13 26 12 27 -14 6 -95 -1 -159 -20 -190
l-19 -34 24 -28 c13 -16 27 -35 29 -42 5 -10 8 -9 16 3 11 17 144 129 153 129
3 0 8 -9 11 -20 5 -20 5 -20 41 1 20 11 36 24 36 28 0 14 -82 161 -90 161 -19
0 -60 -24 -60 -34 0 -7 7 -22 17 -35 16 -23 15 -25 -18 -55 l-34 -30 -8 59
c-4 36 -3 69 3 82 5 13 7 29 4 37 -6 15 7 17 105 17 50 -1 53 1 46 22 -14 46
-17 117 -6 130 7 9 10 56 10 126 -2 113 4 146 14 92 5 -24 13 -31 39 -36 18
-4 46 -2 61 4 50 19 53 16 49 -56 -1 -38 -4 -88 -5 -113 -2 -39 -5 -45 -25
-47 -21 -1 -23 2 -18 36 14 96 12 115 -14 122 -68 19 -69 18 -70 -83 0 -51 0
-106 0 -122 -1 -16 2 -31 4 -33 5 -5 37 -6 76 -1 23 3 25 0 23 -34 -7 -103
-94 -247 -196 -323 l-67 -50 51 -25 51 -25 64 68 c35 37 78 92 96 123 29 52
32 55 45 38 9 -13 12 -42 9 -100 -2 -45 -1 -86 3 -92 12 -20 61 -33 83 -21 11
6 31 8 44 5 33 -9 69 28 84 84 6 23 10 43 8 44 -21 15 -81 46 -84 44 -1 -2 -6
-19 -9 -38 -8 -45 -30 -69 -47 -52 -19 19 -15 175 7 254 6 23 3 27 -23 33 -29
6 -30 11 -23 59 0 4 8 6 16 2 8 -3 26 0 40 6 18 8 35 8 59 1 32 -10 34 -9 39
14 9 49 -1 60 -51 61 -96 1 -89 -4 -86 76 2 39 6 89 10 111 l6 40 56 2 c31 2
59 8 64 15 10 16 1 60 -15 70 -17 11 -95 10 -102 -1 -7 -13 -173 -13 -180 -1
-9 15 -42 12 -59 -5 -9 -9 -17 -11 -21 -5 -3 6 -30 7 -65 3 -37 -3 -64 -2 -73
5 -13 11 -68 14 -99 6 -14 -4 -17 -17 -16 -67 1 -100 1 -101 -18 -83 -18 18
-30 20 -39 6 -15 -25 -20 -3 -18 84 2 81 0 95 -15 99 -9 3 -24 7 -32 10 -8 2
-23 3 -32 0z m317 -183 l0 -45 -37 3 c-36 4 -37 5 -35 45 2 41 3 42 37 42 35
0 35 0 35 -45z m-160 -186 l3 -99 -24 48 c-21 41 -28 47 -52 45 -24 -3 -27 0
-24 27 1 17 3 40 3 52 1 19 6 21 40 17 26 -3 39 -1 39 7 0 7 2 10 6 7 3 -3 7
-50 9 -104z m163 43 c1 -12 2 -33 4 -47 3 -23 0 -25 -42 -25 -42 0 -45 2 -42
25 2 14 3 34 4 45 0 17 8 21 38 22 33 2 38 -1 38 -20z"/>
</g>
</svg>
