<?xml version="1.0" standalone="no"?>
<!DOCTYPE svg PUBLIC "-//W3C//DTD SVG 20010904//EN"
 "http://www.w3.org/TR/2001/REC-SVG-20010904/DTD/svg10.dtd">
<svg version="1.0" xmlns="http://www.w3.org/2000/svg"
 width="101.000000pt" height="102.000000pt" viewBox="0 0 101.000000 102.000000"
 preserveAspectRatio="xMidYMid meet">
<metadata>
Created by potrace 1.16, written by Peter Selinger 2001-2019
</metadata>
<g transform="translate(0.000000,102.000000) scale(0.100000,-0.100000)"
fill="#000000" stroke="none">
<path d="M185 923 l1 -98 -50 2 c-28 1 -61 0 -72 -2 -26 -6 -39 -47 -23 -76
10 -19 18 -21 65 -17 30 3 54 1 54 -4 0 -22 -82 -193 -113 -237 l-36 -50 20
-40 c10 -22 19 -45 19 -51 0 -5 4 -10 8 -10 10 0 97 153 107 189 7 24 8 24 21
6 12 -16 13 -51 9 -172 -3 -85 -9 -163 -14 -176 -4 -12 -6 -38 -4 -59 5 -39
22 -49 67 -41 24 5 25 8 19 49 -3 25 -1 49 5 56 13 16 14 96 1 103 -12 8 -10
166 2 181 6 7 9 16 8 20 -1 5 -1 25 0 44 l2 35 16 -32 16 -32 39 20 c21 11 38
22 38 25 0 4 -16 29 -36 56 -29 39 -41 48 -58 44 -20 -5 -21 -2 -18 34 4 34 8
40 27 40 13 0 31 7 39 16 36 35 5 89 -46 82 l-29 -5 5 46 c3 25 7 69 8 96 l3
50 -51 3 -50 3 1 -98z"/>
<path d="M590 998 c-23 -8 -23 -9 -11 -41 6 -14 12 -45 16 -68 11 -81 17 -85
88 -65 21 6 26 13 22 26 -3 10 -8 27 -10 37 -2 10 -8 30 -13 44 -6 15 -8 29
-6 32 3 3 1 15 -5 26 -12 21 -40 24 -81 9z"/>
<path d="M795 999 c-5 -6 -10 -27 -12 -45 -2 -18 -16 -68 -31 -111 l-27 -78
-177 4 -178 3 -10 -28 c-6 -16 -9 -39 -5 -51 5 -22 9 -23 80 -19 41 2 75 0 75
-4 0 -13 -75 -104 -111 -134 -18 -16 -53 -38 -76 -49 -47 -23 -53 -33 -24 -42
10 -3 26 -14 36 -25 24 -27 29 -26 79 20 l43 39 0 -29 c0 -44 0 -45 92 -38 34
3 35 2 38 -39 2 -38 0 -42 -25 -47 -27 -5 -85 -2 -154 7 -40 6 -50 -8 -41 -57
5 -25 8 -26 53 -23 26 2 52 7 58 11 6 4 34 4 62 0 38 -5 50 -10 46 -20 -3 -8
-1 -25 5 -38 8 -16 8 -38 1 -69 -11 -52 -4 -57 59 -49 l36 4 -9 45 c-7 31 -7
53 1 69 6 13 8 31 4 41 -5 12 -2 15 10 10 8 -3 29 -1 45 5 23 9 38 8 68 -4 54
-22 101 -13 107 19 8 43 -2 65 -27 56 -11 -4 -52 -7 -91 -6 -123 4 -114 0
-112 44 1 28 5 38 14 35 7 -3 25 0 39 6 20 9 30 9 46 -1 25 -16 30 -11 31 34
1 40 -17 58 -48 48 -11 -3 -35 -7 -52 -9 l-33 -2 6 54 c4 53 4 54 -23 56 -35
2 -65 -1 -71 -7 -5 -5 -5 -43 1 -78 l5 -27 -56 5 c-30 3 -57 7 -60 10 -3 2 11
22 30 43 20 22 48 60 62 85 22 37 33 46 61 49 33 4 37 1 64 -46 27 -48 102
-129 163 -176 l27 -21 39 43 40 42 -69 33 c-45 22 -80 48 -103 77 -20 24 -36
45 -36 47 0 2 43 4 95 4 104 -1 113 5 99 59 -7 31 -36 41 -100 33 -42 -4 -44
-3 -38 17 11 35 73 154 84 161 19 12 10 35 -17 46 -49 19 -80 22 -88 8z"/>
<path d="M430 966 c-19 -7 -35 -17 -35 -22 1 -24 71 -154 84 -154 8 0 29 5 47
12 l32 11 -41 84 c-23 46 -44 83 -47 82 -3 0 -21 -6 -40 -13z"/>
</g>
</svg>
