<?xml version="1.0" standalone="no"?>
<!DOCTYPE svg PUBLIC "-//W3C//DTD SVG 20010904//EN"
 "http://www.w3.org/TR/2001/REC-SVG-20010904/DTD/svg10.dtd">
<svg version="1.0" xmlns="http://www.w3.org/2000/svg"
 width="101.000000pt" height="101.000000pt" viewBox="0 0 101.000000 101.000000"
 preserveAspectRatio="xMidYMid meet">
<metadata>
Created by potrace 1.16, written by Peter Selinger 2001-2019
</metadata>
<g transform="translate(0.000000,101.000000) scale(0.100000,-0.100000)"
fill="#000000" stroke="none">
<path d="M188 958 c-14 -29 -46 -79 -71 -110 l-47 -58 33 -17 32 -18 -30 -3
c-40 -5 -55 -19 -55 -51 0 -45 9 -49 107 -47 80 1 90 -1 83 -15 -16 -30 -92
-91 -138 -111 l-46 -21 25 -21 c46 -41 50 -51 22 -52 -13 -1 -27 -5 -31 -8 -7
-8 -6 -75 1 -83 8 -7 44 -7 102 1 83 12 156 15 178 7 18 -7 16 -11 -25 -39
-48 -33 -128 -68 -176 -77 -73 -13 -86 -16 -93 -21 -4 -2 6 -18 22 -35 16 -17
29 -36 29 -41 0 -39 213 64 292 141 32 32 57 52 54 45 -3 -7 0 -25 6 -41 8
-21 7 -42 -4 -86 -25 -95 -11 -120 60 -109 l33 4 -8 62 c-4 33 -7 77 -6 96 5
83 2 81 47 32 22 -25 63 -60 90 -78 62 -41 198 -93 203 -77 3 7 17 30 34 52
16 23 26 42 22 42 -8 2 -35 5 -93 13 -48 6 -117 34 -167 68 -52 35 -59 46 -30
47 12 0 52 3 89 6 43 3 81 0 106 -9 53 -19 89 -11 95 21 11 58 -18 81 -76 60
-18 -6 -85 -10 -152 -10 -165 2 -163 1 -158 27 4 18 11 21 56 19 29 0 57 3 64
8 6 6 59 8 127 5 106 -4 116 -3 121 14 3 10 3 30 -1 45 -5 21 -11 25 -28 21
-72 -17 -99 -18 -108 -5 -7 11 -11 11 -15 2 -6 -15 -73 -18 -73 -3 0 6 -15 10
-34 10 -28 0 -34 4 -38 24 -5 23 -4 24 103 31 60 3 117 4 128 0 17 -5 20 1 25
52 4 32 6 76 5 98 -2 77 4 74 -137 72 -126 -2 -127 -2 -127 21 0 19 5 22 43
22 23 0 42 5 42 10 0 6 16 10 35 10 19 0 35 -5 35 -10 0 -7 26 -10 65 -9 72 2
82 13 70 70 -6 26 -11 30 -28 24 -47 -13 -137 -18 -137 -6 0 6 -17 11 -40 11
-22 0 -40 -4 -40 -10 0 -15 -107 -13 -113 3 -2 6 -8 8 -13 4 -9 -9 -9 -57 2
-131 4 -30 1 -63 -6 -87 -12 -34 -14 -36 -28 -22 -12 11 -31 14 -76 11 l-61
-4 3 36 c1 19 3 40 4 47 1 13 19 12 51 -2 46 -19 88 25 72 76 -7 20 -30 26
-40 9 -8 -13 -82 -13 -90 0 -3 6 -28 9 -55 7 l-50 -3 32 33 31 32 -29 11 c-73
28 -80 26 -106 -32z m95 -167 c-2 -24 -5 -46 -7 -48 -2 -2 -31 -1 -65 3 l-60
7 30 41 c26 37 34 42 67 41 l37 0 -2 -44z m515 -63 l-3 -33 -90 0 -91 0 4 27
c5 30 9 32 115 36 l68 2 -3 -32z m-263 -185 l-7 -71 -39 4 c-40 5 -43 1 -42
-43 1 -14 -118 -25 -202 -18 -33 3 -70 5 -82 6 -31 1 -29 11 7 33 17 9 56 43
86 74 l55 57 55 -57 55 -58 35 28 c19 15 34 30 34 33 0 4 -34 33 -75 64 -41
32 -75 58 -75 59 0 0 37 2 82 3 55 1 84 6 87 14 2 6 10 -3 18 -22 11 -25 13
-53 8 -106z"/>
</g>
</svg>
