<?xml version="1.0" standalone="no"?>
<!DOCTYPE svg PUBLIC "-//W3C//DTD SVG 20010904//EN"
 "http://www.w3.org/TR/2001/REC-SVG-20010904/DTD/svg10.dtd">
<svg version="1.0" xmlns="http://www.w3.org/2000/svg"
 width="101.000000pt" height="102.000000pt" viewBox="0 0 101.000000 102.000000"
 preserveAspectRatio="xMidYMid meet">
<metadata>
Created by potrace 1.16, written by Peter Selinger 2001-2019
</metadata>
<g transform="translate(0.000000,102.000000) scale(0.100000,-0.100000)"
fill="#000000" stroke="none">
<path d="M172 908 c-1 -61 -4 -114 -6 -116 -3 -2 -20 2 -39 8 -69 25 -119 -20
-87 -80 12 -22 67 -28 101 -10 19 11 19 10 0 -37 -38 -97 -70 -164 -99 -205
l-30 -43 27 -53 27 -53 26 48 c14 26 34 70 44 97 15 43 19 46 30 31 9 -12 11
-46 8 -114 -6 -131 -5 -283 1 -290 6 -5 85 -5 90 1 1 2 -1 58 -6 125 -5 66 -6
152 -4 190 3 37 6 78 6 91 2 31 8 28 25 -14 15 -36 21 -38 65 -19 21 8 21 5
21 -188 l-1 -147 47 6 c26 3 90 6 142 6 187 -1 221 -1 273 1 28 1 66 -2 83 -6
30 -8 32 -6 36 24 8 53 0 67 -40 72 -21 2 -48 0 -61 -5 -20 -7 -310 -14 -367
-8 -19 2 -21 8 -18 54 2 28 3 56 4 63 0 6 8 12 18 12 9 0 36 2 59 5 l42 5 -4
-48 c-4 -53 7 -64 57 -54 21 4 23 10 26 79 2 46 -1 74 -8 74 -5 0 -10 20 -10
45 0 25 4 45 10 45 5 0 10 70 12 168 3 139 0 169 -12 179 -13 10 -11 12 11 13
24 0 28 -5 33 -42 14 -111 19 -284 10 -393 -6 -85 -6 -156 1 -163 7 -7 74 -6
81 1 2 2 5 24 6 49 l2 46 52 -2 c43 -2 54 1 57 16 12 46 -20 75 -67 59 -44
-15 -61 -8 -58 24 1 17 3 40 3 51 1 22 5 23 76 26 33 1 46 21 36 56 -4 15 -14
18 -58 16 l-54 -2 1 43 c2 46 0 44 80 47 40 2 51 16 42 53 -5 21 -11 23 -58
22 l-51 -2 2 39 c1 21 4 41 7 44 3 2 33 5 66 6 67 1 77 11 65 66 -7 32 -33 45
-67 34 -13 -4 -44 -6 -69 -5 -26 1 -50 -2 -54 -8 -8 -14 -52 -14 -60 -1 -4 6
-53 10 -123 9 -64 -1 -129 2 -144 6 -45 12 -68 -9 -68 -60 0 -25 5 -45 10 -45
6 0 10 -16 10 -35 0 -39 -4 -42 -27 -19 -15 15 -38 15 -74 0 -13 -6 -15 6 -13
89 2 52 6 100 10 106 10 17 -16 29 -61 29 l-40 0 -3 -112z m404 -61 c2 -2 5
-24 7 -49 3 -50 4 -49 -65 -32 -24 5 -29 2 -38 -21 -19 -49 -6 -64 53 -62 l53
2 2 -42 2 -43 -45 2 c-48 2 -50 2 -59 -27 -10 -34 9 -50 57 -47 40 1 45 -1 46
-21 0 -12 2 -35 3 -52 l3 -30 -62 2 c-66 1 -69 -1 -65 -50 1 -10 -3 -15 -8
-12 -13 8 -13 52 0 60 12 7 12 153 0 160 -12 8 -11 147 1 161 6 8 9 35 7 62
l-3 48 53 -2 c30 -1 55 -4 58 -7z m-214 -178 c3 -24 7 -66 7 -93 l1 -50 -30
48 c-25 39 -35 47 -53 42 -21 -5 -22 -2 -22 47 l0 52 45 -1 45 -1 7 -44z"/>
</g>
</svg>
