<?xml version="1.0" standalone="no"?>
<!DOCTYPE svg PUBLIC "-//W3C//DTD SVG 20010904//EN"
 "http://www.w3.org/TR/2001/REC-SVG-20010904/DTD/svg10.dtd">
<svg version="1.0" xmlns="http://www.w3.org/2000/svg"
 width="101.000000pt" height="102.000000pt" viewBox="0 0 101.000000 102.000000"
 preserveAspectRatio="xMidYMid meet">
<metadata>
Created by potrace 1.16, written by Peter Selinger 2001-2019
</metadata>
<g transform="translate(0.000000,102.000000) scale(0.100000,-0.100000)"
fill="#000000" stroke="none">
<path d="M185 1010 c4 -6 4 -55 0 -108 l-7 -97 -63 2 c-57 2 -65 0 -70 -18
-13 -40 2 -68 41 -75 19 -4 46 -2 59 4 l23 10 -14 -44 c-22 -73 -66 -166 -102
-212 l-33 -43 23 -49 c13 -27 27 -49 31 -50 4 0 30 45 57 101 32 68 48 93 49
78 2 -23 2 -130 1 -323 0 -49 2 -91 5 -94 3 -3 22 -5 42 -5 38 1 57 18 47 43
-12 30 -24 199 -19 271 3 41 6 85 6 99 1 23 3 22 23 -13 31 -51 31 -51 60 -32
32 21 40 16 56 -40 13 -46 21 -51 68 -39 25 7 27 20 10 76 -12 40 -12 40 -55
34 -24 -3 -43 -3 -43 -1 0 2 -3 11 -7 21 -5 14 -3 16 11 11 10 -4 26 -2 37 4
29 15 112 1 105 -18 -3 -8 -1 -24 5 -35 6 -11 8 -35 4 -55 -5 -29 -14 -38 -57
-58 -28 -13 -79 -31 -113 -40 l-63 -17 13 -32 c6 -17 15 -39 18 -48 5 -15 18
-10 99 32 l94 49 1 -39 c2 -41 -13 -61 -43 -59 -52 5 -53 3 -36 -50 20 -58 36
-65 98 -44 54 18 64 35 67 113 1 33 5 60 8 60 3 0 14 -17 25 -37 10 -21 20
-40 21 -42 2 -2 26 12 55 31 116 77 106 72 106 46 1 -13 2 -34 4 -48 3 -22 -1
-25 -27 -26 -66 -3 -67 -3 -60 -21 7 -16 11 -36 14 -66 2 -20 50 -25 94 -10
39 13 48 21 58 51 6 20 11 67 10 106 -3 146 -3 272 1 303 6 40 -18 48 -73 26
-26 -10 -48 -12 -66 -7 -16 4 -37 9 -48 10 -11 1 -27 4 -35 5 -46 7 -63 -13
-53 -65 5 -22 9 -25 43 -22 20 2 43 6 49 10 6 4 30 5 52 1 30 -5 39 -11 35
-22 -3 -8 -1 -24 5 -35 6 -11 8 -34 5 -52 -5 -27 -17 -37 -74 -68 -37 -20 -83
-41 -103 -46 -36 -10 -37 -9 -48 27 -11 34 -10 137 3 238 l5 42 -27 -10 c-15
-5 -61 -7 -102 -4 -140 10 -133 11 -133 -35 l0 -30 -26 36 c-18 25 -31 34 -46
32 -18 -4 -20 1 -20 61 l0 66 31 -1 c17 -1 40 -4 50 -8 22 -6 36 1 53 29 11
18 12 16 8 -15 -2 -19 -7 -42 -11 -51 -8 -19 20 -53 36 -43 14 9 120 16 241
15 12 0 49 0 82 1 33 0 76 -3 95 -7 l35 -7 2 165 2 165 -37 6 c-56 9 -150 7
-157 -3 -7 -12 -172 -13 -180 -1 -3 4 -25 8 -50 8 -51 0 -80 -20 -67 -46 5 -9
6 -43 4 -74 -4 -53 -5 -57 -23 -47 -11 5 -25 7 -31 3 -7 -4 -29 -8 -50 -8
l-39 -1 5 60 c3 33 7 80 8 105 l3 45 -48 3 c-35 2 -47 0 -42 -8z m610 -139 l0
-27 -82 4 c-58 3 -83 1 -83 -7 0 -6 -11 -11 -25 -11 -14 0 -25 5 -25 10 0 6
-17 10 -39 10 -32 0 -39 4 -43 23 -4 22 -4 22 146 24 l151 2 0 -28z m-39 -101
c38 0 42 -2 40 -25 -1 -23 -3 -24 -58 -18 -40 4 -58 2 -58 -6 0 -6 -15 -11
-35 -11 -19 0 -35 5 -35 10 0 6 -24 10 -54 10 -50 0 -54 2 -59 26 l-5 27 112
-6 c61 -4 130 -7 152 -7z"/>
<path d="M687 493 c-10 -3 -17 -10 -15 -16 2 -7 10 -33 17 -59 13 -47 14 -48
48 -44 19 3 37 7 39 9 7 7 -26 107 -36 107 -4 0 -14 2 -22 4 -7 2 -21 2 -31
-1z"/>
</g>
</svg>
