<?xml version="1.0" standalone="no"?>
<!DOCTYPE svg PUBLIC "-//W3C//DTD SVG 20010904//EN"
 "http://www.w3.org/TR/2001/REC-SVG-20010904/DTD/svg10.dtd">
<svg version="1.0" xmlns="http://www.w3.org/2000/svg"
 width="101.000000pt" height="101.000000pt" viewBox="0 0 101.000000 101.000000"
 preserveAspectRatio="xMidYMid meet">
<metadata>
Created by potrace 1.16, written by Peter Selinger 2001-2019
</metadata>
<g transform="translate(0.000000,101.000000) scale(0.100000,-0.100000)"
fill="#000000" stroke="none">
<path d="M380 998 c0 -7 -13 -40 -28 -73 l-29 -60 -53 0 -53 0 37 14 c20 7 36
18 36 24 0 17 -50 97 -61 97 -5 0 -25 -6 -44 -14 l-34 -15 29 -53 29 -54 -57
6 c-31 3 -65 4 -74 2 -34 -7 -34 -85 0 -81 45 4 52 0 42 -25 -5 -13 -6 -27 -3
-30 8 -7 7 -112 -1 -124 -3 -6 -3 -17 0 -26 5 -13 17 -15 70 -11 37 4 64 2 64
-3 0 -17 -63 -72 -97 -84 -41 -15 -41 -23 -3 -43 16 -9 30 -18 30 -21 0 -3
-27 -3 -59 0 -65 6 -74 -3 -64 -58 6 -31 17 -33 98 -20 60 10 146 13 167 5 20
-7 20 -8 -8 -35 -36 -33 -137 -83 -184 -90 -47 -8 -94 -17 -96 -19 -1 -1 16
-22 37 -46 l39 -44 48 18 c83 31 178 92 234 154 62 67 58 72 60 -59 1 -41 -2
-89 -6 -106 -9 -36 4 -44 67 -36 34 4 37 7 30 26 -4 11 -7 57 -6 101 4 137 1
130 33 87 40 -55 101 -104 172 -139 102 -49 100 -49 143 2 20 25 35 48 32 51
-5 6 -15 7 -92 19 -48 6 -154 57 -179 84 -17 18 -16 19 6 21 13 1 82 2 155 2
119 1 132 3 136 19 3 11 3 28 0 39 -5 19 -13 20 -182 19 -209 -1 -221 0 -221
15 0 7 15 29 34 50 19 20 43 57 52 82 12 31 22 43 31 40 8 -3 23 -1 34 5 11 6
38 7 63 4 41 -7 43 -9 42 -38 -2 -32 -2 -32 -54 -31 -29 0 -52 -1 -52 -3 0 -2
7 -17 15 -33 8 -16 15 -33 14 -37 -5 -28 3 -33 44 -30 50 5 102 29 111 53 13
34 19 203 8 216 -13 17 -15 175 -2 183 6 4 9 18 8 33 l-2 27 -135 3 c-75 1
-144 3 -155 3 -10 0 -21 -3 -24 -6 -9 -9 -8 -86 1 -110 5 -14 4 -13 -4 2 -14
28 -42 37 -77 28 -36 -10 -82 -12 -82 -3 0 3 16 27 35 52 19 26 35 50 35 55 0
8 -66 31 -89 31 -6 0 -11 -6 -11 -12z m414 -150 l-1 -43 -69 -3 -69 -3 0 40 0
40 45 4 c104 8 95 12 94 -35z m-264 -50 c17 -11 22 -10 30 1 12 21 24 -51 15
-92 -4 -18 -9 -44 -11 -58 -6 -43 -21 -75 -54 -113 -17 -19 -28 -41 -25 -47 5
-8 1 -9 -14 -4 -21 6 -26 -4 -23 -47 2 -22 -41 -30 -123 -23 -33 3 -71 5 -84
6 -22 1 -20 4 22 47 25 26 52 61 60 77 13 26 21 31 56 32 34 2 41 -1 41 -16 0
-21 29 -32 60 -24 21 6 22 10 26 148 1 28 4 57 8 65 5 12 -3 19 -27 28 -19 7
-42 10 -50 6 -19 -7 -31 -59 -25 -108 4 -32 2 -34 -27 -33 l-30 1 0 73 c0 73
0 73 28 73 15 0 27 5 27 10 0 14 96 12 120 -2z m-258 -69 c2 -39 1 -74 -2 -79
-3 -4 -18 -7 -35 -7 l-30 0 3 63 c3 58 2 63 -20 70 l-23 8 25 7 c14 4 37 7 52
8 26 1 26 0 30 -70z m523 -19 c0 -37 -2 -39 -37 -45 -20 -4 -46 -2 -57 4 -11
6 -26 9 -33 6 -10 -4 -13 4 -10 32 l4 38 66 2 67 1 0 -38z"/>
</g>
</svg>
