<?xml version="1.0" standalone="no"?>
<!DOCTYPE svg PUBLIC "-//W3C//DTD SVG 20010904//EN"
 "http://www.w3.org/TR/2001/REC-SVG-20010904/DTD/svg10.dtd">
<svg version="1.0" xmlns="http://www.w3.org/2000/svg"
 width="101.000000pt" height="101.000000pt" viewBox="0 0 101.000000 101.000000"
 preserveAspectRatio="xMidYMid meet">
<metadata>
Created by potrace 1.16, written by Peter Selinger 2001-2019
</metadata>
<g transform="translate(0.000000,101.000000) scale(0.100000,-0.100000)"
fill="#000000" stroke="none">
<path d="M645 980 c-4 -16 -3 -34 0 -40 4 -6 8 -32 9 -56 l1 -45 -118 5 c-65
3 -123 9 -128 12 -6 3 -25 3 -44 0 -32 -6 -33 -9 -31 -46 3 -34 1 -37 -12 -23
-10 10 -29 14 -53 11 l-39 -4 6 71 c5 60 11 108 17 124 1 3 -23 5 -55 5 l-56
1 0 -65 c0 -36 5 -70 10 -77 5 -7 8 -22 6 -35 -3 -20 -9 -23 -53 -24 -71 -1
-72 -1 -79 -28 -11 -45 0 -54 63 -53 l58 2 -19 -70 c-24 -88 -48 -142 -87
-199 -17 -25 -31 -48 -31 -53 1 -15 62 -78 67 -68 2 6 19 42 37 80 26 55 34
65 36 45 5 -53 2 -301 -4 -324 -7 -28 11 -36 63 -28 28 4 32 8 28 28 -4 21 -1
23 21 19 14 -2 30 -9 36 -15 27 -27 39 -9 83 115 28 81 38 130 42 220 1 20 4
26 10 17 9 -14 35 -17 66 -7 18 5 21 2 22 -30 l1 -36 -38 6 c-37 6 -38 5 -45
-27 -4 -18 -8 -35 -8 -38 0 -3 -6 -22 -13 -44 -18 -49 -17 -56 1 -56 15 0 45
-48 45 -73 0 -20 36 -27 73 -15 54 18 58 25 57 102 -1 39 -1 82 1 96 1 22 4
21 20 -15 10 -22 19 -46 19 -52 0 -18 21 -16 48 3 28 19 28 24 -5 90 -25 52
-47 66 -68 45 -6 -6 -10 -2 -11 13 -1 19 4 22 33 23 21 1 40 8 48 19 12 17 13
17 13 -6 0 -14 9 -58 21 -99 l22 -74 -29 -36 c-16 -20 -54 -54 -86 -76 l-58
-40 23 -15 c13 -8 32 -23 41 -32 10 -10 21 -18 25 -18 4 0 35 30 68 66 l61 65
29 -41 c31 -44 78 -75 101 -66 16 6 64 101 64 127 0 8 -16 30 -35 49 -30 29
-35 31 -35 14 -1 -10 -7 -32 -14 -49 l-12 -30 -18 27 c-25 38 -26 69 -4 146
24 82 33 128 43 211 2 25 9 49 15 55 26 26 5 45 -61 53 -36 5 -37 4 -35 -29 2
-18 -1 -43 -5 -56 -5 -13 -4 -32 3 -47 8 -18 8 -28 -1 -39 -6 -7 -14 -31 -16
-52 -9 -63 -24 -61 -30 4 -2 22 -9 49 -17 61 -10 16 -10 27 -1 52 7 18 10 35
8 40 -3 4 -7 35 -9 68 l-3 61 66 0 c36 0 81 -4 98 -9 27 -8 33 -7 38 9 8 26
-4 68 -22 75 -9 3 -31 0 -50 -6 -19 -6 -37 -9 -40 -6 -3 3 13 11 35 18 l40 12
-26 53 c-14 30 -31 54 -38 54 -13 0 -74 -21 -74 -25 0 -2 11 -23 25 -46 14
-24 25 -47 25 -51 0 -5 -18 -8 -40 -8 l-40 0 5 61 c3 33 8 65 11 71 10 16 -17
28 -63 28 -38 0 -42 -3 -48 -30z m-8 -206 c27 -7 31 -18 25 -71 l-4 -42 -42 1
c-39 2 -42 4 -41 28 1 15 5 32 9 38 10 17 -37 36 -68 28 -25 -6 -25 -6 -23
-115 2 -103 1 -108 -18 -106 -11 1 -26 3 -32 4 -10 1 -13 30 -13 111 l0 110
25 0 c14 0 25 5 25 10 0 11 120 14 157 4z m-293 -149 l7 -100 -36 55 c-20 30
-39 54 -43 53 -4 -1 -14 -4 -22 -7 -12 -5 -14 2 -12 42 l4 48 44 -3 c28 -2 44
2 44 9 0 6 2 9 4 7 2 -2 7 -49 10 -104z m331 -72 c2 -26 1 -41 -1 -33 -3 11
-18 15 -53 14 l-49 -2 1 33 c1 32 2 33 44 31 24 -1 43 3 43 8 0 5 3 6 6 3 4
-3 8 -28 9 -54z m-385 -70 c8 3 22 8 32 12 14 6 16 0 12 -47 -6 -94 -20 -149
-49 -209 -45 -88 -51 -83 -58 53 -3 68 -4 146 -2 173 3 28 5 61 6 75 1 22 4
19 22 -18 14 -29 27 -42 37 -39z m226 -99 c-3 -8 -1 -24 5 -35 14 -27 1 -106
-18 -114 -19 -7 -59 5 -46 14 5 3 20 39 32 79 12 39 24 72 27 72 4 0 3 -7 0
-16z"/>
</g>
</svg>
