<?xml version="1.0" standalone="no"?>
<!DOCTYPE svg PUBLIC "-//W3C//DTD SVG 20010904//EN"
 "http://www.w3.org/TR/2001/REC-SVG-20010904/DTD/svg10.dtd">
<svg version="1.0" xmlns="http://www.w3.org/2000/svg"
 width="101.000000pt" height="102.000000pt" viewBox="0 0 101.000000 102.000000"
 preserveAspectRatio="xMidYMid meet">
<metadata>
Created by potrace 1.16, written by Peter Selinger 2001-2019
</metadata>
<g transform="translate(0.000000,102.000000) scale(0.100000,-0.100000)"
fill="#000000" stroke="none">
<path d="M511 1009 c-20 -8 -23 -15 -20 -53 l4 -44 -57 6 c-54 4 -58 3 -69
-22 -10 -20 -10 -32 0 -52 10 -22 16 -25 39 -20 15 3 41 7 57 9 29 2 31 0 30
-34 l0 -35 -67 0 c-36 1 -70 -2 -74 -6 -9 -9 -10 -65 -1 -74 3 -3 16 -6 29 -5
24 1 123 9 172 13 28 3 30 0 32 -34 3 -35 1 -37 -36 -43 -22 -4 -45 -3 -51 1
-7 4 -24 8 -38 9 -14 1 -30 3 -36 5 -35 9 -43 0 -38 -37 4 -21 6 -97 6 -169
l-1 -131 32 5 c28 3 80 4 284 3 34 -1 79 0 100 1 20 2 47 -1 58 -5 18 -6 22
-3 27 18 2 15 -2 49 -10 76 -9 31 -12 61 -7 77 14 49 21 148 12 158 -4 3 -38
1 -77 -6 -50 -8 -75 -9 -89 -1 -12 6 -27 8 -35 5 -12 -4 -15 3 -14 31 1 24 5
34 13 31 7 -3 25 0 41 6 22 8 41 7 83 -5 38 -11 59 -13 72 -6 10 6 27 7 37 4
21 -6 33 21 24 55 -4 16 -14 19 -57 19 -104 0 -101 -1 -101 47 -1 50 10 55 63
28 53 -26 89 -1 76 52 -7 28 -30 36 -94 32 l-45 -3 2 45 c2 51 -6 60 -59 60
-28 0 -38 -5 -43 -20 -3 -11 -3 -25 0 -30 4 -6 8 -22 9 -35 3 -22 0 -23 -53
-22 l-57 2 3 45 c3 58 -18 72 -76 49z m181 -208 l3 -39 -55 2 c-55 1 -55 1
-56 33 0 28 3 32 30 36 75 9 74 10 78 -32z m-107 -281 c0 -34 -1 -35 -35 -32
-19 1 -44 3 -56 3 -16 1 -21 8 -21 30 0 22 4 28 16 24 9 -2 23 0 31 5 8 6 26
9 40 8 21 -3 25 -8 25 -38z m200 32 c6 -4 11 -19 12 -35 1 -21 -5 -29 -24 -33
-13 -4 -35 -2 -49 4 -13 7 -30 9 -37 6 -10 -3 -14 4 -14 26 0 23 4 29 16 25 9
-2 23 0 31 5 18 11 51 13 65 2z m-200 -152 c0 -33 -2 -35 -30 -32 -16 1 -39 3
-51 3 -16 1 -21 8 -21 30 0 22 4 28 16 24 9 -2 23 0 31 5 8 6 24 9 35 8 16 -2
20 -11 20 -38z m210 0 c0 -34 -1 -35 -35 -32 -19 1 -44 3 -56 3 -16 1 -21 8
-21 30 0 22 4 28 16 24 9 -2 23 0 31 5 8 6 26 9 40 8 21 -3 25 -8 25 -38z"/>
<path d="M163 982 c-3 -13 0 -29 6 -35 12 -12 14 -82 3 -107 -5 -11 -23 -15
-60 -15 -54 -1 -72 -12 -72 -45 0 -38 21 -46 90 -38 22 3 25 0 22 -27 -5 -41
-56 -161 -96 -225 l-34 -53 27 -38 c14 -21 29 -38 33 -39 4 0 23 32 42 71 29
62 35 69 44 52 10 -17 9 -134 -1 -243 -2 -25 -2 -68 1 -97 5 -55 17 -65 65
-56 21 4 24 10 25 46 0 23 1 51 2 62 1 11 -3 48 -9 82 -6 35 -9 100 -6 145 3
46 6 94 6 108 1 20 6 15 26 -27 l24 -53 37 15 c20 9 38 17 40 19 3 4 -47 106
-66 134 -6 9 -15 10 -35 3 -24 -9 -27 -8 -33 15 -4 14 -2 36 4 50 7 13 9 30 6
37 -3 9 8 13 37 14 45 2 59 14 59 50 0 25 -27 43 -64 43 -24 0 -26 3 -27 48
-2 57 -2 50 6 92 l6 35 -51 0 c-45 0 -51 -3 -57 -23z"/>
<path d="M475 258 c-27 -17 -79 -45 -115 -61 -36 -16 -66 -30 -68 -32 -2 -1
12 -18 30 -37 l33 -34 132 66 c73 36 133 68 133 72 0 9 -75 58 -87 58 -5 0
-30 -15 -58 -32z"/>
<path d="M680 250 l-22 -30 57 -25 c31 -14 82 -41 112 -61 60 -38 65 -37 103
17 l20 27 -42 25 c-51 29 -170 77 -192 77 -8 0 -24 -14 -36 -30z"/>
</g>
</svg>
