<?xml version="1.0" standalone="no"?>
<!DOCTYPE svg PUBLIC "-//W3C//DTD SVG 20010904//EN"
 "http://www.w3.org/TR/2001/REC-SVG-20010904/DTD/svg10.dtd">
<svg version="1.0" xmlns="http://www.w3.org/2000/svg"
 width="101.000000pt" height="102.000000pt" viewBox="0 0 101.000000 102.000000"
 preserveAspectRatio="xMidYMid meet">
<metadata>
Created by potrace 1.16, written by Peter Selinger 2001-2019
</metadata>
<g transform="translate(0.000000,102.000000) scale(0.100000,-0.100000)"
fill="#000000" stroke="none">
<path d="M165 917 l0 -102 -35 3 c-84 8 -100 1 -100 -43 0 -29 12 -43 41 -50
18 -4 31 -1 42 9 21 21 34 20 40 -3 6 -24 -49 -163 -90 -229 -67 -107 -63 -91
-32 -146 l27 -49 50 98 c45 91 50 97 61 77 13 -25 7 -274 -8 -313 -12 -34 -2
-86 18 -92 9 -2 31 -2 47 0 l30 5 -4 106 c-6 174 -4 352 4 352 2 0 15 -22 29
-50 14 -27 28 -50 31 -50 12 0 74 42 74 49 0 6 -60 96 -86 130 -2 2 -14 -3
-27 -12 l-23 -15 0 66 c1 63 2 67 26 72 14 4 33 4 43 2 16 -4 16 -7 -7 -31
l-26 -27 33 -32 33 -32 27 37 c15 21 27 36 27 33 2 -27 2 -313 0 -338 -1 -23
-6 -32 -15 -28 -9 3 -15 -7 -19 -29 -4 -18 -20 -60 -36 -92 -16 -32 -30 -61
-30 -64 0 -4 12 -9 28 -13 15 -3 37 -8 50 -12 17 -5 22 -2 22 12 0 11 15 54
34 97 19 42 30 77 25 77 -5 0 -9 5 -9 10 0 6 12 10 26 10 23 0 25 3 20 24 -7
29 -12 28 179 28 77 0 151 -5 166 -10 39 -15 76 -4 82 25 6 33 -2 60 -19 67
-7 3 -34 -2 -60 -11 -37 -13 -54 -14 -76 -5 -16 6 -36 8 -43 6 -11 -4 -14 4
-12 35 1 30 5 40 14 37 7 -3 24 0 38 6 19 8 31 8 56 -5 39 -19 55 -14 62 20
10 52 0 61 -50 51 -31 -7 -53 -7 -69 1 -13 6 -30 8 -38 5 -10 -4 -14 3 -13 28
l1 33 83 -2 c79 -1 83 0 89 22 14 55 6 60 -87 60 l-85 0 4 26 c4 27 6 27 103
34 107 8 119 16 105 71 -5 19 -11 24 -26 19 -11 -3 -51 -3 -88 1 l-69 6 -12
48 c-20 77 -31 86 -80 72 -22 -7 -41 -15 -41 -17 0 -2 9 -27 20 -55 11 -28 18
-56 15 -61 -8 -13 -72 -11 -81 2 -3 6 -17 9 -30 6 l-24 -4 23 40 c12 22 28 42
35 44 23 9 12 24 -30 43 -24 11 -48 20 -54 20 -6 0 -18 -26 -28 -57 -20 -64
-75 -177 -101 -208 -9 -11 -14 -14 -10 -7 4 7 4 26 0 42 -6 27 -10 30 -46 28
-21 -1 -41 1 -43 3 -8 8 -9 134 -1 167 l8 32 -54 0 -54 0 0 -103z m471 -162
l0 -30 -65 0 -66 0 -1 30 0 30 65 0 66 0 1 -30z m-1 -140 c0 -31 -3 -36 -31
-41 -18 -3 -41 -1 -52 5 -11 6 -27 9 -35 6 -10 -4 -14 2 -14 24 0 28 3 30 41
34 96 9 91 10 91 -28z m-20 -101 c16 -4 21 -14 22 -44 2 -37 0 -40 -31 -46
-19 -3 -43 -1 -54 5 -11 6 -27 8 -36 5 -12 -5 -15 2 -13 35 1 32 5 40 17 36 8
-2 22 0 30 5 17 11 36 12 65 4z"/>
<path d="M822 307 c-18 -5 -31 -13 -30 -16 2 -4 21 -48 42 -98 l39 -91 41 18
c23 9 41 21 41 26 -1 16 -85 174 -93 173 -4 -1 -22 -6 -40 -12z"/>
<path d="M667 302 c-15 -3 -17 -10 -11 -35 4 -18 9 -43 11 -57 2 -14 6 -34 8
-45 2 -11 4 -23 4 -27 1 -8 78 -4 87 4 2 3 -5 41 -17 85 -23 84 -26 88 -82 75z"/>
<path d="M528 293 c-17 -4 -23 -21 -19 -53 6 -51 9 -78 10 -97 1 -22 8 -23 85
-14 7 1 6 20 -8 119 -8 52 -17 59 -68 45z"/>
</g>
</svg>
