<?xml version="1.0" standalone="no"?>
<!DOCTYPE svg PUBLIC "-//W3C//DTD SVG 20010904//EN"
 "http://www.w3.org/TR/2001/REC-SVG-20010904/DTD/svg10.dtd">
<svg version="1.0" xmlns="http://www.w3.org/2000/svg"
 width="101.000000pt" height="103.000000pt" viewBox="0 0 101.000000 103.000000"
 preserveAspectRatio="xMidYMid meet">
<metadata>
Created by potrace 1.16, written by Peter Selinger 2001-2019
</metadata>
<g transform="translate(0.000000,103.000000) scale(0.100000,-0.100000)"
fill="#000000" stroke="none">
<path d="M179 1023 c-18 -4 -25 -68 -9 -78 11 -7 12 -78 2 -110 -6 -17 -16
-20 -72 -20 -65 0 -65 0 -68 -30 -4 -48 10 -60 72 -60 54 0 55 -1 49 -25 -17
-73 -72 -187 -115 -243 l-30 -38 23 -44 c13 -25 26 -45 29 -45 3 0 29 43 57
97 36 68 51 89 52 72 0 -13 3 -55 6 -93 2 -38 1 -126 -4 -195 -5 -69 -7 -128
-5 -131 6 -5 85 -3 90 3 2 2 4 46 4 98 -1 395 -3 367 24 307 l21 -48 30 19 31
18 1 -40 c1 -21 4 -42 7 -44 5 -5 23 -5 101 2 28 2 96 2 151 -2 98 -5 102 -6
100 -28 -1 -22 -6 -23 -111 -28 -118 -6 -212 -2 -270 13 -39 10 -57 -14 -48
-63 4 -22 10 -25 37 -23 17 2 42 6 56 9 14 4 48 3 75 -1 50 -8 50 -8 18 -16
-18 -4 -33 -13 -33 -19 0 -15 24 -85 32 -93 8 -7 88 17 88 27 0 4 -9 27 -19
52 l-19 45 21 1 c12 1 45 3 72 5 85 7 101 1 102 -42 1 -45 -6 -50 -62 -46
l-42 4 21 -54 c12 -31 29 -57 38 -59 19 -5 97 19 113 34 5 5 11 33 12 62 5
107 -5 95 83 99 19 1 42 -2 51 -6 13 -5 18 -1 22 19 7 41 -3 65 -27 65 -12 0
-27 -5 -34 -12 -9 -9 -18 -9 -37 0 -13 6 -30 9 -37 7 -8 -3 -14 4 -14 19 -2
23 1 24 42 20 l44 -4 -7 58 c-9 65 -8 223 1 295 l6 47 -52 2 c-29 1 -71 3 -93
3 -35 1 -40 5 -43 26 -3 24 -2 24 72 24 42 -1 78 -4 82 -8 13 -13 62 -7 79 9
10 10 14 25 11 38 -3 12 -6 24 -6 27 0 14 -30 18 -57 9 -16 -6 -53 -7 -88 -2
l-60 8 34 32 c39 38 35 47 -31 67 l-46 13 -6 -28 c-3 -16 -12 -44 -19 -63 -13
-30 -18 -33 -44 -30 -24 4 -35 15 -56 59 -28 56 -29 56 -89 40 l-28 -8 25 -42
c14 -24 25 -45 25 -47 0 -6 -117 -2 -135 5 -35 13 -64 -30 -50 -74 5 -16 16
-18 104 -15 l99 3 -2 -24 c-1 -24 -3 -24 -56 -18 -32 3 -67 1 -83 -5 -25 -10
-29 -9 -34 9 -6 23 -35 34 -69 26 l-24 -6 6 98 7 98 -27 12 c-27 12 -38 13
-67 5z m463 -217 c4 -19 1 -22 -18 -18 -13 2 -24 13 -26 26 -4 19 -1 22 18 18
13 -2 24 -13 26 -26z m-271 -116 c14 0 11 -68 -3 -73 -10 -4 -10 -8 0 -15 10
-7 12 -22 7 -56 l-7 -47 -24 48 c-35 74 -38 77 -62 64 -19 -10 -22 -8 -28 15
-4 14 -2 36 4 50 7 13 9 29 7 36 -4 10 7 13 40 11 27 0 46 3 46 10 1 7 4 0 6
-15 2 -16 9 -28 14 -28z m144 0 c-4 -37 -21 -66 -41 -74 -28 -11 -40 10 -27
45 7 17 10 36 7 43 -3 8 7 12 30 13 32 1 35 -1 31 -27z m144 6 c5 -90 5 -90
42 -109 31 -15 41 -16 63 -6 20 10 29 10 38 1 22 -22 -3 -27 -115 -25 -166 3
-161 2 -143 22 23 25 57 107 51 123 -4 10 4 14 29 15 28 1 34 -3 35 -21z m148
-16 c2 -38 1 -39 -32 -37 -41 3 -45 7 -50 44 -3 27 -2 29 39 31 l42 1 1 -39z
m-324 -102 c16 -12 15 -13 -8 -14 -15 -1 -25 3 -25 12 0 17 11 18 33 2z m288
-77 c32 -1 37 -4 35 -25 -1 -23 -4 -24 -106 -29 -58 -3 -127 -4 -155 -2 -27 3
-59 5 -70 6 -14 1 -20 9 -21 26 -2 18 2 22 15 19 9 -3 23 -1 31 4 8 5 65 8
125 6 61 -2 126 -5 146 -5z"/>
</g>
</svg>
