<?xml version="1.0" standalone="no"?>
<!DOCTYPE svg PUBLIC "-//W3C//DTD SVG 20010904//EN"
 "http://www.w3.org/TR/2001/REC-SVG-20010904/DTD/svg10.dtd">
<svg version="1.0" xmlns="http://www.w3.org/2000/svg"
 width="101.000000pt" height="101.000000pt" viewBox="0 0 101.000000 101.000000"
 preserveAspectRatio="xMidYMid meet">
<metadata>
Created by potrace 1.16, written by Peter Selinger 2001-2019
</metadata>
<g transform="translate(0.000000,101.000000) scale(0.100000,-0.100000)"
fill="#000000" stroke="none">
<path d="M563 993 c2 -10 8 -25 12 -35 6 -15 -6 -16 -129 -12 -129 4 -135 3
-141 -17 -12 -36 2 -67 35 -74 26 -6 28 -8 15 -21 -8 -9 -15 -23 -15 -32 0
-13 -2 -14 -9 -4 -4 7 -12 12 -17 11 -5 -1 -23 -1 -40 0 -30 1 -32 4 -36 41
-2 22 0 46 3 53 4 6 9 30 10 51 l4 40 -58 0 c-53 1 -63 -4 -57 -29 2 -5 2 -21
1 -34 0 -13 4 -30 10 -37 5 -7 9 -29 7 -50 l-3 -37 -55 -1 c-45 -1 -55 -4 -58
-19 -11 -55 31 -92 77 -67 20 10 21 9 16 -18 -16 -93 -70 -228 -107 -268 -19
-22 -19 -22 13 -68 l33 -46 32 76 c29 70 33 75 43 56 11 -21 7 -325 -5 -344
-6 -9 17 -12 61 -9 37 3 46 17 34 48 -8 21 -15 323 -9 393 2 21 6 18 27 -25
14 -27 27 -51 28 -53 2 -2 18 4 37 14 38 20 59 23 180 30 65 4 95 1 115 -10
l28 -14 -25 -7 c-14 -3 -63 -3 -110 0 -151 9 -143 11 -140 -27 1 -13 2 -64 2
-115 1 -82 4 -92 21 -97 11 -3 28 -1 36 4 9 5 59 7 111 5 91 -4 140 -5 276 -3
l62 1 -4 79 c-2 44 0 87 5 97 6 10 7 28 4 40 -5 19 -10 21 -54 15 -31 -4 -60
-2 -80 6 -49 21 -15 32 77 25 l81 -7 7 32 c10 53 7 150 -5 150 -7 0 -9 27 -7
78 l3 77 -142 2 c-88 2 -143 -1 -143 -7 0 -6 -33 -10 -75 -10 -43 0 -75 4 -75
10 0 6 -18 10 -40 10 -22 0 -40 5 -40 10 0 6 18 10 40 10 22 0 40 5 40 10 0 6
11 10 25 10 14 0 25 -4 25 -10 0 -6 30 -10 70 -10 40 0 70 4 70 10 0 6 11 10
25 10 14 0 25 -5 25 -11 0 -9 21 -10 72 -6 41 4 79 2 90 -4 27 -15 76 -1 83
22 4 11 4 30 1 43 -5 22 -9 22 -146 22 -77 -1 -141 2 -141 7 -1 4 -3 12 -4 17
-1 6 -3 17 -4 25 -1 11 -14 15 -52 15 -44 0 -51 -2 -46 -17z m-213 -398 c-5
-12 -6 -33 -3 -45 10 -38 -11 -15 -37 40 -18 38 -28 49 -39 44 -36 -15 -46
-10 -43 21 1 17 3 39 3 50 1 17 8 20 51 18 47 -2 49 -1 56 30 5 25 8 14 14
-51 4 -46 3 -94 -2 -107z m148 154 c15 -1 20 -3 11 -6 -20 -5 -31 -41 -20 -62
5 -8 5 -25 0 -38 -5 -13 -6 -29 -3 -37 7 -19 43 -27 65 -16 9 6 61 8 113 6
l96 -3 -6 33 c-3 17 -1 41 5 51 5 11 7 30 4 42 -5 22 -9 22 -72 17 -36 -4 -72
-3 -79 2 -13 9 96 22 177 22 l36 0 2 -94 3 -93 -123 -6 c-67 -3 -144 -4 -172
-2 -27 3 -59 5 -70 6 -18 1 -20 9 -20 95 0 74 3 93 13 89 8 -3 26 -6 40 -6z
m180 -65 c12 -4 22 -12 22 -20 0 -18 -63 -29 -88 -15 -11 6 -28 8 -36 5 -11
-4 -16 -1 -16 11 0 11 6 15 18 11 9 -3 24 -1 32 4 17 11 36 12 68 4z m12 -194
c8 -5 11 -10 5 -10 -5 0 -17 5 -25 10 -8 5 -10 10 -5 10 6 0 17 -5 25 -10z
m-3 -67 c90 -4 101 -7 100 -23 -1 -16 -14 -19 -97 -24 -52 -3 -117 -3 -145 -1
-27 3 -59 5 -70 6 -13 1 -21 9 -22 21 -1 14 3 17 15 14 9 -3 24 -1 32 4 17 11
39 11 187 3z m0 -80 c90 -4 101 -7 100 -23 -1 -16 -14 -19 -97 -24 -52 -3
-117 -3 -145 -1 -27 3 -59 5 -70 6 -13 1 -21 9 -22 21 -1 14 3 17 15 14 9 -3
24 -1 32 4 17 11 39 11 187 3z"/>
<path d="M307 201 c-2 -9 -2 -31 0 -47 4 -28 8 -30 36 -26 18 2 75 4 127 3
191 0 227 0 320 2 52 1 111 -1 131 -5 35 -6 37 -5 42 25 7 48 -2 68 -27 62
-19 -4 -129 -7 -296 -6 -36 0 -108 0 -160 -1 -52 0 -111 2 -132 5 -28 4 -37 2
-41 -12z"/>
</g>
</svg>
