<?xml version="1.0" standalone="no"?>
<!DOCTYPE svg PUBLIC "-//W3C//DTD SVG 20010904//EN"
 "http://www.w3.org/TR/2001/REC-SVG-20010904/DTD/svg10.dtd">
<svg version="1.0" xmlns="http://www.w3.org/2000/svg"
 width="101.000000pt" height="101.000000pt" viewBox="0 0 101.000000 101.000000"
 preserveAspectRatio="xMidYMid meet">
<metadata>
Created by potrace 1.16, written by Peter Selinger 2001-2019
</metadata>
<g transform="translate(0.000000,101.000000) scale(0.100000,-0.100000)"
fill="#000000" stroke="none">
<path d="M158 993 c0 -10 0 -25 1 -33 1 -8 4 -46 6 -85 l5 -70 -68 0 c-65 0
-67 -1 -70 -27 -2 -15 2 -37 8 -49 11 -19 18 -21 66 -16 30 3 54 4 54 3 0 -2
-8 -27 -19 -57 -25 -74 -53 -127 -96 -183 l-36 -48 29 -45 30 -45 25 43 c14
24 36 67 50 94 21 41 25 46 26 25 0 -14 3 -62 6 -108 3 -45 0 -110 -6 -145
-11 -61 -13 -136 -3 -146 6 -7 74 -4 81 3 4 3 6 20 6 36 0 36 7 37 45 5 l30
-25 35 39 c31 34 77 132 77 164 0 8 17 13 44 15 l44 1 -3 -43 c-3 -55 -11 -67
-38 -65 -54 5 -59 2 -42 -31 8 -16 15 -36 15 -45 0 -17 33 -13 84 11 24 12 26
11 16 -1 -9 -11 -5 -20 22 -44 18 -17 38 -31 44 -31 6 0 41 32 78 70 l68 70
46 -41 c75 -66 84 -68 126 -23 19 22 36 42 36 46 0 3 -15 12 -34 18 -19 6 -55
29 -79 51 l-45 39 20 53 c11 28 22 61 23 72 2 11 7 36 10 55 6 30 9 76 16 198
1 17 6 21 19 17 19 -6 50 18 50 38 0 7 -3 22 -6 34 -6 22 -10 23 -100 20 -52
-1 -94 -2 -94 -1 0 12 37 119 51 145 l18 37 -27 10 c-27 11 -90 12 -94 2 -1
-6 -7 -43 -13 -90 -12 -86 -16 -109 -36 -168 -12 -36 -26 -61 -32 -59 -15 5
-22 88 -8 96 10 7 19 107 10 115 -2 3 -38 8 -78 13 l-74 8 28 33 c33 39 25 53
-33 59 -41 4 -45 0 -58 -65 -6 -30 -14 -43 -24 -37 -6 4 -22 4 -35 1 -21 -5
-24 -11 -22 -47 3 -45 0 -49 -46 -54 l-32 -3 2 87 c0 47 3 93 5 101 2 12 -9
16 -49 18 -45 3 -53 0 -55 -15z m353 -172 c17 -1 28 -8 31 -18 4 -16 -2 -18
-64 -15 -57 3 -68 6 -68 21 0 15 7 17 38 15 20 -2 49 -3 63 -3z m294 -109 c-2
-7 1 -24 7 -38 9 -19 9 -33 -2 -62 -7 -20 -14 -53 -15 -72 -2 -19 -5 -53 -9
-74 -11 -65 -22 -64 -30 3 -3 23 -10 49 -17 57 -9 11 -9 21 -1 38 14 32 4 66
-19 66 -23 0 -23 -2 0 51 18 40 23 44 55 44 25 0 35 -4 31 -13z m-465 -53 c0
-50 3 -57 22 -62 12 -3 29 -2 39 4 22 11 56 12 63 1 2 -4 -5 -9 -16 -9 -30 -3
-31 -8 -14 -42 l16 -31 -46 2 c-44 2 -49 6 -86 56 -22 29 -46 56 -53 58 -9 4
-13 20 -12 43 1 36 1 36 44 36 l43 0 0 -56z m207 30 c0 -23 -6 -31 -24 -35
-14 -4 -35 -2 -49 4 -13 7 -30 9 -37 6 -10 -3 -14 4 -14 23 1 27 2 28 62 30
l62 2 0 -30z m33 -97 c3 -4 22 -15 42 -24 27 -13 38 -14 41 -5 2 7 5 1 5 -13
0 -34 8 -73 30 -154 23 -80 23 -84 -7 -122 -24 -32 -102 -97 -108 -91 -2 3 1
17 8 33 11 29 12 38 24 141 l5 52 -52 0 c-99 0 -105 1 -104 25 1 14 8 21 21
22 11 0 31 4 45 8 16 4 36 2 54 -8 43 -22 71 -3 60 42 -4 12 -15 19 -32 20
-78 3 -85 6 -97 43 l-13 35 37 1 c20 1 38 -2 41 -5z m-297 -116 c3 -7 9 -7 20
3 15 12 17 11 17 -7 0 -17 6 -20 34 -18 34 3 34 3 31 -34 -8 -91 -48 -176
-101 -217 l-32 -24 -5 98 c-4 54 -4 121 -2 148 3 28 5 61 6 75 1 23 2 24 15 6
7 -10 15 -24 17 -30z"/>
</g>
</svg>
