<?xml version="1.0" standalone="no"?>
<!DOCTYPE svg PUBLIC "-//W3C//DTD SVG 20010904//EN"
 "http://www.w3.org/TR/2001/REC-SVG-20010904/DTD/svg10.dtd">
<svg version="1.0" xmlns="http://www.w3.org/2000/svg"
 width="101.000000pt" height="102.000000pt" viewBox="0 0 101.000000 102.000000"
 preserveAspectRatio="xMidYMid meet">
<metadata>
Created by potrace 1.16, written by Peter Selinger 2001-2019
</metadata>
<g transform="translate(0.000000,102.000000) scale(0.100000,-0.100000)"
fill="#000000" stroke="none">
<path d="M629 1008 c0 -7 -3 -22 -5 -33 -3 -11 -7 -30 -9 -42 -7 -45 -36 -122
-55 -143 -18 -20 -20 -21 -49 -5 -25 12 -32 13 -36 3 -3 -7 -11 -31 -18 -52
-12 -35 -17 -39 -50 -40 -20 -1 -37 0 -37 0 0 6 114 221 122 231 7 9 -2 18
-35 34 -38 19 -49 20 -61 10 -9 -7 -15 -23 -15 -35 2 -54 -64 -216 -95 -233
-14 -8 -15 -14 -6 -37 13 -35 13 -36 -4 -30 -8 3 -17 1 -21 -5 -14 -23 -20 -9
-20 48 0 43 3 57 13 54 6 -3 22 -3 35 1 19 4 23 12 22 45 0 37 -2 39 -28 39
-15 -1 -29 1 -32 3 -6 7 -6 89 0 136 6 45 2 49 -62 52 -32 1 -41 -11 -33 -44
1 -5 3 -43 4 -82 l1 -73 -56 5 c-54 4 -57 3 -63 -21 -4 -14 -4 -34 -1 -45 8
-23 65 -35 94 -19 20 10 21 9 15 -17 -13 -54 -67 -175 -101 -226 l-34 -51 22
-48 c12 -26 26 -48 30 -48 3 0 24 38 45 85 33 74 40 84 51 69 8 -11 10 -47 8
-113 -12 -278 -12 -280 6 -284 9 -3 28 -2 42 0 21 4 24 10 25 46 0 23 1 51 2
62 1 11 -3 48 -9 82 -6 35 -9 100 -6 145 3 46 6 94 6 108 1 22 4 19 22 -17 12
-24 23 -43 26 -43 4 0 20 11 36 24 l30 25 -23 41 c-13 23 -21 44 -18 47 9 9
106 15 106 6 0 -21 -82 -141 -104 -151 -28 -13 -31 -26 -16 -66 9 -24 13 -26
57 -21 27 3 62 8 78 11 17 3 42 6 57 6 22 1 27 7 33 34 4 22 10 31 19 28 8 -3
33 4 56 16 23 12 49 18 58 15 25 -10 -54 -77 -123 -105 -43 -17 -54 -26 -50
-40 9 -27 -74 -45 -183 -39 -13 0 -25 -1 -27 -3 -4 -3 23 -89 29 -96 2 -1 15
2 30 8 27 10 67 17 139 25 48 6 57 11 57 35 0 10 15 28 35 40 19 12 56 39 82
60 42 35 48 38 57 23 18 -33 -183 -183 -246 -183 -24 0 -22 -9 12 -49 l28 -33
51 28 c28 15 78 52 111 81 53 48 67 53 60 18 -1 -5 -3 -22 -5 -38 -6 -46 -22
-57 -72 -52 -39 3 -44 2 -38 -13 4 -9 11 -32 17 -50 9 -31 11 -33 47 -28 96
11 139 67 136 176 -1 36 -7 83 -14 105 -13 48 -14 55 -3 55 5 0 15 -26 22 -57
13 -59 49 -150 76 -191 l15 -23 39 43 38 43 -33 35 c-36 37 -80 124 -70 139 3
5 1 20 -4 33 -7 19 -5 27 10 36 10 7 26 12 34 12 22 0 19 17 -11 56 l-27 34
-59 -56 c-33 -31 -62 -53 -66 -48 -4 5 -17 21 -30 35 l-22 25 47 35 c27 19 57
35 68 36 11 1 34 5 51 9 19 3 34 1 38 -5 12 -19 53 -13 59 9 10 37 -2 56 -36
58 -18 0 -41 2 -52 3 -11 2 -31 -1 -43 -5 -22 -7 -23 -6 -13 13 7 12 10 21 7
21 -3 0 2 21 10 48 8 26 17 56 19 66 2 10 10 35 16 54 15 46 3 53 -88 49 -40
-2 -73 -1 -73 1 0 3 9 19 20 37 l20 33 -44 11 c-57 14 -66 14 -67 -1z m132
-186 c-6 -11 -9 -21 -6 -23 2 -2 -20 -2 -50 -1 -46 3 -52 6 -48 22 4 15 11 18
32 14 14 -3 37 -1 51 4 31 12 35 9 21 -16z m-149 -108 c67 13 129 12 123 -2
-3 -8 -5 -20 -5 -27 0 -11 -18 -13 -82 -9 -46 2 -93 5 -105 5 -21 1 -21 2 -6
25 12 19 19 22 29 13 8 -7 27 -9 46 -5z m-94 -61 c-4 -49 0 -53 45 -48 23 2
54 7 68 11 15 3 29 1 33 -4 7 -11 -126 -82 -154 -82 -26 0 -31 -12 -13 -32 15
-17 15 -18 -3 -19 -10 -1 -34 -2 -52 -4 -18 -1 -32 1 -30 5 5 14 103 190 105
190 2 0 2 -8 1 -17z"/>
</g>
</svg>
