<?xml version="1.0" standalone="no"?>
<!DOCTYPE svg PUBLIC "-//W3C//DTD SVG 20010904//EN"
 "http://www.w3.org/TR/2001/REC-SVG-20010904/DTD/svg10.dtd">
<svg version="1.0" xmlns="http://www.w3.org/2000/svg"
 width="101.000000pt" height="103.000000pt" viewBox="0 0 101.000000 103.000000"
 preserveAspectRatio="xMidYMid meet">
<metadata>
Created by potrace 1.16, written by Peter Selinger 2001-2019
</metadata>
<g transform="translate(0.000000,103.000000) scale(0.100000,-0.100000)"
fill="#000000" stroke="none">
<path d="M556 981 c-14 -26 -45 -72 -69 -102 -46 -56 -121 -121 -111 -96 6 17
-23 50 -38 41 -5 -3 -26 -7 -47 -8 l-38 -1 3 65 c1 36 5 77 9 91 6 23 3 27
-25 33 -62 12 -88 -6 -81 -54 1 -8 2 -26 2 -39 -1 -13 4 -30 10 -37 6 -7 9
-23 7 -36 -3 -21 -8 -22 -65 -21 -63 2 -72 -5 -73 -54 0 -20 32 -45 49 -38 40
16 91 9 62 -9 -5 -3 -9 -16 -9 -28 0 -35 -48 -136 -93 -196 l-40 -53 30 -45
30 -45 49 92 c38 69 51 86 52 68 4 -53 1 -327 -4 -370 -7 -52 3 -60 60 -52
l29 5 -3 116 c-3 118 -4 297 -1 341 1 22 1 22 19 -6 10 -16 21 -39 24 -51 4
-12 12 -22 17 -22 12 0 69 29 69 35 0 2 -18 33 -41 69 -37 59 -44 65 -66 60
-25 -7 -25 -7 -18 47 4 30 8 55 9 56 1 1 12 0 24 -4 21 -5 21 -6 5 -18 -16
-12 -16 -14 7 -34 43 -36 59 -36 95 -1 31 30 35 31 50 16 19 -19 21 -19 45 -6
10 5 26 7 35 4 14 -6 13 -8 -5 -21 -28 -20 -25 -30 10 -38 45 -10 44 -20 -3
-41 -23 -10 -44 -19 -46 -21 -3 -2 5 -14 17 -26 l22 -24 -30 0 c-30 0 -30 1
-26 46 2 25 7 58 11 73 5 21 3 27 -13 32 -33 11 -70 -4 -76 -29 -3 -14 -3 -62
0 -109 l7 -84 36 5 c37 6 142 6 147 0 2 -1 1 -12 -2 -24 -6 -20 -11 -21 -87
-17 -148 8 -140 10 -138 -28 6 -91 5 -229 -2 -259 -8 -41 4 -50 59 -42 l29 5
2 106 c2 151 3 154 20 148 8 -3 23 -1 35 5 11 6 26 8 34 5 12 -5 11 -12 -6
-45 -11 -22 -29 -43 -41 -46 -13 -4 -18 -12 -15 -22 3 -8 9 -26 12 -39 5 -20
11 -23 28 -18 19 6 45 10 111 18 11 1 31 6 44 10 20 7 29 3 52 -24 16 -18 31
-48 35 -67 9 -48 40 -58 99 -33 25 11 46 25 46 32 1 7 3 58 4 113 1 55 5 119
8 143 6 39 5 43 -13 37 -11 -3 -28 -2 -38 4 -13 7 -34 5 -72 -6 -42 -12 -61
-13 -83 -5 -16 6 -35 8 -43 5 -17 -6 -18 1 -3 28 6 12 17 18 25 15 9 -3 24 -1
35 5 14 7 40 7 87 0 72 -11 87 -4 76 33 -8 26 -8 117 1 137 7 18 -18 49 -40
49 -8 0 -26 -5 -40 -10 -23 -9 -26 -14 -21 -38 4 -15 9 -45 11 -68 5 -40 4
-41 -25 -41 l-30 0 21 23 c25 26 21 37 -21 54 -24 10 -28 15 -19 26 6 8 17 14
25 14 22 0 28 22 9 37 -18 13 -18 13 1 14 10 1 29 0 42 -1 16 -1 22 4 22 20 0
21 1 21 43 -5 24 -14 46 -25 49 -25 7 0 61 81 56 84 -2 2 -29 13 -62 26 -106
42 -228 153 -218 198 2 6 2 12 0 12 -2 0 -24 7 -51 15 l-47 14 -24 -48z m141
-151 l61 -65 -36 2 c-72 3 -69 2 -52 13 12 8 12 13 -3 44 -15 31 -20 35 -53
34 -44 -2 -49 -13 -30 -60 l15 -36 -52 2 -53 1 61 77 c45 58 63 74 71 65 6 -7
38 -41 71 -77z m-30 -155 c-27 -24 -28 -24 -64 -7 l-36 17 49 6 c27 3 56 6 64
7 9 1 4 -8 -13 -23z m15 -124 l38 -28 -61 -7 c-34 -3 -69 -2 -79 4 -10 5 -27
7 -37 3 -10 -3 -16 -4 -13 -1 7 8 102 58 109 58 3 0 23 -13 43 -29z m109 -198
c28 -4 29 -6 31 -88 3 -69 -7 -92 -42 -92 -35 0 -37 5 -12 23 16 12 15 16 -12
66 -41 75 -45 79 -75 71 -35 -8 -35 -7 -16 -42 14 -29 14 -32 0 -37 -9 -4 -27
-2 -41 4 -13 6 -31 9 -39 5 -13 -4 -11 4 7 41 15 32 27 45 38 41 8 -2 22 0 30
5 15 10 84 11 131 3z"/>
</g>
</svg>
