<?xml version="1.0" standalone="no"?>
<!DOCTYPE svg PUBLIC "-//W3C//DTD SVG 20010904//EN"
 "http://www.w3.org/TR/2001/REC-SVG-20010904/DTD/svg10.dtd">
<svg version="1.0" xmlns="http://www.w3.org/2000/svg"
 width="101.000000pt" height="102.000000pt" viewBox="0 0 101.000000 102.000000"
 preserveAspectRatio="xMidYMid meet">
<metadata>
Created by potrace 1.16, written by Peter Selinger 2001-2019
</metadata>
<g transform="translate(0.000000,102.000000) scale(0.100000,-0.100000)"
fill="#000000" stroke="none">
<path d="M660 1009 c-34 -14 -34 -13 -11 -58 12 -22 21 -43 21 -46 0 -3 -33
-3 -74 0 -60 5 -77 3 -90 -10 -19 -19 -20 -29 -6 -56 8 -13 22 -19 48 -20 20
0 32 -3 25 -5 -8 -4 -6 -14 8 -37 10 -18 19 -34 19 -37 0 -5 -42 -4 -84 2 -27
4 -42 -25 -30 -59 l10 -28 86 3 86 3 -2 -25 c-1 -21 -7 -25 -43 -31 -23 -3
-51 -2 -61 4 -41 22 -78 -11 -65 -57 5 -19 46 -24 71 -8 7 4 32 4 56 1 l44 -7
-2 -48 c-1 -53 9 -62 59 -53 25 5 26 8 22 53 -6 55 -11 52 109 50 76 -1 88 7
77 49 -5 20 -12 22 -77 21 -106 -2 -111 -1 -112 27 -2 18 2 23 14 18 8 -3 53
-3 98 1 87 7 99 15 88 57 -5 21 -10 22 -79 19 -83 -5 -91 3 -50 44 14 14 23
29 20 34 -5 9 28 20 61 20 25 0 35 19 27 50 -5 20 -9 21 -79 15 -57 -6 -77 -4
-94 8 -14 10 -17 16 -9 19 9 3 6 16 -12 48 -27 49 -34 53 -69 39z m85 -215
c-24 -57 -27 -60 -65 -53 -19 3 -27 7 -17 8 22 1 21 6 -2 45 l-19 31 59 2 59
1 -15 -34z"/>
<path d="M150 952 c-11 -5 -16 -28 -19 -87 -8 -182 -11 -194 -72 -260 -23 -25
-40 -47 -38 -48 20 -15 95 -35 102 -28 5 5 19 30 32 57 l23 48 7 -56 c4 -31 4
-65 1 -76 -5 -15 -1 -21 15 -25 12 -3 29 -2 38 2 22 11 164 13 193 2 16 -6 23
-17 24 -39 l2 -30 -92 -6 c-90 -5 -147 -3 -216 8 -82 13 -96 11 -103 -14 -3
-11 -3 -29 0 -40 5 -18 11 -20 57 -15 101 12 213 15 235 7 21 -7 18 -11 -38
-51 -70 -48 -170 -96 -224 -106 -20 -4 -37 -10 -37 -14 1 -3 15 -22 33 -43
l33 -36 71 33 c83 39 146 79 224 147 65 55 60 64 62 -94 1 -84 3 -97 19 -101
10 -3 26 -3 36 0 16 4 18 17 19 101 2 159 -3 150 57 94 62 -59 122 -98 196
-128 99 -39 93 -40 127 15 l31 49 -26 7 c-15 4 -43 9 -63 11 -51 5 -128 35
-182 73 -26 18 -47 34 -47 35 0 10 240 12 276 3 27 -7 32 -5 37 12 14 54 -32
81 -98 58 -16 -6 -84 -10 -150 -10 -168 2 -163 1 -160 29 1 13 8 30 15 39 14
17 -1 26 -51 29 -36 2 -54 27 -45 64 16 68 16 110 0 116 -9 4 -22 2 -28 -3 -7
-6 -43 -8 -87 -4 -40 3 -91 6 -111 7 -32 0 -35 2 -27 18 5 10 17 18 27 18 9 1
42 3 72 5 30 2 70 -1 88 -7 18 -5 44 -7 56 -4 22 5 24 13 31 91 4 46 4 98 0
115 l-7 31 -121 -2 c-67 -1 -135 1 -152 4 -16 4 -37 3 -45 -1z m235 -116 l0
-43 -85 1 -85 1 0 35 c0 34 1 35 45 41 25 3 63 7 85 7 l40 2 0 -44z m-10 -224
c6 -4 11 -22 12 -39 2 -28 -2 -34 -23 -39 -14 -4 -36 -2 -50 4 -13 7 -30 9
-38 6 -11 -4 -14 3 -13 30 1 28 5 35 16 31 9 -2 23 0 31 5 18 11 51 13 65 2z"/>
</g>
</svg>
