<?xml version="1.0" standalone="no"?>
<!DOCTYPE svg PUBLIC "-//W3C//DTD SVG 20010904//EN"
 "http://www.w3.org/TR/2001/REC-SVG-20010904/DTD/svg10.dtd">
<svg version="1.0" xmlns="http://www.w3.org/2000/svg"
 width="101.000000pt" height="102.000000pt" viewBox="0 0 101.000000 102.000000"
 preserveAspectRatio="xMidYMid meet">
<metadata>
Created by potrace 1.16, written by Peter Selinger 2001-2019
</metadata>
<g transform="translate(0.000000,102.000000) scale(0.100000,-0.100000)"
fill="#000000" stroke="none">
<path d="M207 1012 c-9 -2 -14 -8 -11 -14 3 -5 3 -51 -1 -101 l-6 -92 -52 2
c-60 3 -73 -3 -81 -37 -10 -41 7 -55 67 -55 l54 0 -12 -36 c-23 -63 -73 -154
-109 -198 -20 -24 -36 -45 -36 -47 0 -2 13 -22 29 -45 l30 -40 15 23 c8 13 30
50 50 83 l36 60 1 -35 c0 -19 0 -54 -1 -76 -1 -23 3 -45 9 -49 15 -8 14 -68
-1 -83 -8 -8 -8 -15 1 -26 9 -11 10 -32 3 -83 -5 -37 -8 -70 -5 -73 5 -6 84
-2 91 5 3 3 0 11 -6 17 -16 16 -16 115 1 122 10 5 9 7 0 12 -15 7 -18 74 -3
74 6 0 10 18 10 40 0 22 -4 40 -10 40 -5 0 -10 16 -10 35 0 19 5 35 10 35 6 0
10 26 10 58 l0 57 21 -32 c12 -18 23 -33 25 -33 2 0 19 8 39 17 34 16 36 16
57 -4 l21 -21 -39 -26 c-22 -14 -54 -30 -71 -37 -18 -6 -33 -14 -32 -17 0 -4
16 -20 36 -36 29 -25 38 -28 54 -18 25 16 26 16 26 -18 0 -36 4 -42 37 -44 14
0 26 -3 26 -6 -1 -9 -84 -67 -127 -89 -24 -12 -43 -23 -43 -25 0 -2 18 -15 39
-29 l40 -27 80 60 c45 33 86 60 92 60 21 0 2 25 -36 47 -34 19 -35 21 -14 22
13 0 40 2 59 3 29 3 35 0 33 -17 -1 -10 3 -28 9 -38 5 -10 7 -36 3 -58 l-7
-39 -45 5 c-39 3 -44 2 -37 -13 4 -9 12 -32 18 -50 10 -32 13 -33 50 -28 51 9
93 31 101 55 3 11 1 38 -6 61 -9 30 -9 46 -1 65 6 14 9 32 5 42 -5 12 -2 15
10 10 10 -4 27 -2 40 4 14 6 42 7 79 1 51 -8 57 -7 61 10 3 10 3 27 0 38 -6
22 -40 26 -153 21 -57 -3 -238 -3 -277 0 -20 1 -18 5 19 34 37 28 44 30 57 17
11 -11 27 -13 65 -7 28 4 60 6 71 5 11 -1 29 -1 40 0 11 0 35 2 53 2 20 1 32
7 32 16 0 11 8 9 33 -8 17 -11 46 -28 63 -37 32 -16 32 -15 63 18 17 19 31 37
31 41 0 4 -17 12 -37 17 -21 6 -53 20 -71 31 l-32 20 49 98 50 99 -82 7 c-45
3 -133 6 -196 6 -102 0 -112 2 -100 16 10 13 10 17 -2 25 -8 5 -21 9 -29 9 -8
0 -2 7 13 15 31 16 154 19 173 4 5 -4 38 -7 72 -6 48 2 61 -1 57 -11 -16 -41
46 -69 79 -36 21 21 21 97 0 118 -15 16 -75 22 -87 10 -5 -6 -71 -8 -137 -5
-19 1 -22 4 -11 10 12 8 12 16 -3 55 -10 25 -21 48 -25 50 -4 3 -24 0 -44 -6
l-36 -11 25 -48 c13 -27 24 -50 24 -51 0 -6 -146 -1 -192 6 -64 10 -82 -10
-75 -76 6 -45 5 -47 -10 -32 -10 10 -28 14 -49 12 l-33 -4 4 81 c2 44 6 87 9
95 7 17 -45 38 -77 32z m261 -234 c-13 -23 -44 -65 -70 -92 -27 -27 -48 -50
-48 -51 0 0 16 -9 35 -19 33 -18 36 -18 53 -3 17 16 20 15 50 -7 28 -20 30
-25 17 -36 -13 -11 -20 -9 -41 11 l-24 23 -22 -21 -21 -22 -40 55 c-40 54 -54
63 -72 45 -6 -7 -10 1 -10 20 0 26 3 29 32 29 34 0 63 22 63 47 0 12 8 15 40
10 34 -4 41 -2 39 11 -3 34 1 42 22 42 20 0 20 0 -3 -42z m99 -116 c-10 -21
-12 -21 -34 -6 -23 14 -26 14 -42 0 -26 -23 -34 -19 -15 7 13 17 27 22 59 22
40 0 42 -1 32 -23z m158 -144 c-32 -10 -85 -9 -85 2 0 6 -16 10 -35 10 l-35 0
28 38 c15 22 36 57 46 79 l18 40 42 -81 c39 -77 40 -81 21 -88z m89 147 c-4
-11 -12 -28 -20 -39 -12 -17 -13 -16 -28 12 -22 44 -20 49 19 48 30 -1 34 -4
29 -21z"/>
<path d="M747 282 l-27 -28 86 -68 87 -68 30 30 c26 26 28 33 17 46 -14 18
-132 103 -152 111 -8 3 -26 -7 -41 -23z"/>
</g>
</svg>
