<?xml version="1.0" standalone="no"?>
<!DOCTYPE svg PUBLIC "-//W3C//DTD SVG 20010904//EN"
 "http://www.w3.org/TR/2001/REC-SVG-20010904/DTD/svg10.dtd">
<svg version="1.0" xmlns="http://www.w3.org/2000/svg"
 width="101.000000pt" height="102.000000pt" viewBox="0 0 101.000000 102.000000"
 preserveAspectRatio="xMidYMid meet">
<metadata>
Created by potrace 1.16, written by Peter Selinger 2001-2019
</metadata>
<g transform="translate(0.000000,102.000000) scale(0.100000,-0.100000)"
fill="#000000" stroke="none">
<path d="M539 1008 c0 -7 -3 -22 -5 -33 -3 -11 -7 -29 -9 -40 -2 -11 -7 -31
-10 -45 -3 -14 -8 -32 -10 -42 -9 -43 -54 -139 -89 -191 -40 -60 -41 -65 -10
-72 91 -19 77 -27 126 76 l43 92 121 1 122 1 -25 -55 c-13 -30 -28 -59 -33
-64 -25 -25 63 -51 96 -28 10 7 84 203 84 223 0 5 -43 7 -105 3 -75 -4 -110
-3 -120 6 -8 7 -35 11 -63 8 l-49 -3 14 40 c7 22 23 49 35 62 36 38 12 60 -59
54 -13 -1 -23 3 -23 9 0 15 -30 12 -31 -2z"/>
<path d="M375 900 c-4 -6 -64 -8 -160 -5 l-155 5 -6 -25 c-3 -14 -4 -35 0 -48
5 -23 8 -23 129 -23 l123 1 -3 -25 c-5 -37 -11 -74 -14 -80 -1 -3 -3 -9 -4
-15 0 -5 -4 -27 -9 -48 l-7 -38 -51 68 c-28 37 -52 69 -54 71 -3 5 -82 -36
-88 -46 -3 -5 8 -22 25 -38 17 -16 53 -57 80 -91 l50 -62 -22 -43 c-41 -82
-107 -175 -146 -208 l-40 -33 46 -35 45 -35 36 41 c19 23 58 82 85 131 28 50
52 91 55 91 3 0 23 -31 44 -70 20 -38 40 -70 42 -70 12 0 84 46 84 54 0 5 -28
47 -62 95 -34 47 -61 93 -61 101 1 14 45 167 57 200 6 17 13 51 27 125 6 36 5
51 -4 57 -17 11 -35 10 -42 -2z"/>
<path d="M592 610 c1 -113 -6 -158 -36 -225 -39 -86 -145 -171 -261 -210 l-20
-6 20 -11 c11 -6 35 -24 52 -41 38 -36 45 -34 140 37 72 54 130 130 153 197
l16 47 29 -65 c31 -72 115 -167 174 -198 32 -16 35 -16 43 0 5 9 23 32 40 51
17 19 29 36 27 38 -2 1 -26 11 -54 21 -90 33 -180 141 -201 240 -8 39 -7 164
2 193 7 25 7 25 -73 26 l-53 1 2 -95z"/>
</g>
</svg>
