<?xml version="1.0" standalone="no"?>
<!DOCTYPE svg PUBLIC "-//W3C//DTD SVG 20010904//EN"
 "http://www.w3.org/TR/2001/REC-SVG-20010904/DTD/svg10.dtd">
<svg version="1.0" xmlns="http://www.w3.org/2000/svg"
 width="101.000000pt" height="101.000000pt" viewBox="0 0 101.000000 101.000000"
 preserveAspectRatio="xMidYMid meet">
<metadata>
Created by potrace 1.16, written by Peter Selinger 2001-2019
</metadata>
<g transform="translate(0.000000,101.000000) scale(0.100000,-0.100000)"
fill="#000000" stroke="none">
<path d="M586 996 c3 -8 -1 -25 -10 -38 -8 -13 -15 -32 -15 -43 1 -51 -66
-239 -82 -230 -5 4 -9 12 -9 18 0 8 -36 13 -122 15 -67 2 -123 4 -125 5 -1 1
-3 33 -5 69 -3 64 -2 67 18 62 12 -3 41 0 65 7 46 12 80 18 114 20 73 3 82 24
37 78 l-28 34 -58 -22 c-65 -24 -105 -32 -154 -31 -18 0 -38 -3 -45 -7 -7 -4
-18 -8 -25 -9 -24 -4 -27 -14 -25 -97 4 -160 -2 -389 -11 -471 -6 -52 -46
-148 -73 -178 -9 -10 -14 -20 -12 -21 10 -8 81 -47 84 -47 7 0 51 91 70 145
10 28 19 84 21 125 2 41 5 89 9 105 3 17 9 55 13 85 l7 55 40 0 40 0 -3 -82
c-1 -48 2 -84 8 -88 14 -8 13 -68 -2 -83 -8 -8 -8 -15 1 -26 8 -9 10 -38 7
-85 -5 -78 -6 -76 59 -72 l30 2 -29 -20 -29 -19 35 -15 c20 -8 39 -20 42 -26
13 -20 34 -11 89 39 68 62 119 138 145 214 l19 58 7 -35 c13 -68 65 -154 132
-216 35 -34 68 -61 72 -61 4 0 25 20 45 45 l37 44 -42 22 c-138 71 -207 194
-202 362 3 86 -5 97 -65 97 -40 0 -53 -25 -51 -98 3 -109 -18 -192 -69 -266
-36 -52 -122 -129 -133 -118 -4 4 -10 63 -14 131 -6 100 -5 125 7 133 11 7 11
11 2 15 -15 6 -18 73 -3 73 6 0 10 18 10 39 0 32 3 39 18 36 9 -1 16 -9 14
-19 -2 -9 3 -16 10 -17 18 -1 42 -6 65 -13 16 -5 24 7 53 84 l35 90 56 0 c31
0 77 -3 102 -6 l45 -6 -13 -38 c-7 -21 -20 -51 -29 -68 -15 -30 -15 -31 7 -38
31 -10 87 -14 88 -6 4 36 12 68 25 104 9 24 21 64 28 91 13 46 12 48 -10 53
-13 3 -29 2 -36 -3 -7 -4 -61 -8 -119 -8 -103 0 -107 1 -103 21 6 34 33 106
46 121 17 21 -4 35 -61 40 -41 3 -50 1 -45 -11z"/>
</g>
</svg>
