<?xml version="1.0" standalone="no"?>
<!DOCTYPE svg PUBLIC "-//W3C//DTD SVG 20010904//EN"
 "http://www.w3.org/TR/2001/REC-SVG-20010904/DTD/svg10.dtd">
<svg version="1.0" xmlns="http://www.w3.org/2000/svg"
 width="101.000000pt" height="101.000000pt" viewBox="0 0 101.000000 101.000000"
 preserveAspectRatio="xMidYMid meet">
<metadata>
Created by potrace 1.16, written by Peter Selinger 2001-2019
</metadata>
<g transform="translate(0.000000,101.000000) scale(0.100000,-0.100000)"
fill="#000000" stroke="none">
<path d="M602 982 c-6 -15 -10 -34 -11 -42 0 -62 -45 -187 -95 -264 -20 -31
-38 -56 -41 -56 -2 0 -3 39 -2 88 l2 87 42 -2 c38 -2 43 0 49 21 12 48 2 60
-46 61 -45 0 -45 0 -44 35 1 19 4 42 8 50 9 22 -47 42 -81 29 -24 -9 -25 -13
-21 -62 l4 -53 -76 1 -76 0 8 50 c9 56 5 61 -52 63 -31 1 -40 -2 -45 -18 -3
-11 -3 -25 0 -31 4 -6 8 -23 9 -37 2 -26 0 -27 -41 -26 -47 2 -59 -13 -47 -60
5 -21 14 -27 45 -32 l39 -7 0 -53 c0 -30 5 -54 10 -54 6 0 10 -16 10 -35 0
-19 -5 -35 -11 -35 -7 0 -9 -26 -4 -85 l7 -86 -55 5 c-60 6 -70 -4 -60 -58 5
-25 8 -26 52 -20 115 14 218 14 250 1 l33 -14 -23 -16 -23 -16 50 -55 c31 -34
56 -53 67 -51 26 5 12 -11 -23 -25 -16 -7 -30 -15 -30 -19 1 -8 85 -61 97 -61
12 0 114 106 143 149 13 19 33 58 46 88 l22 55 16 -49 c21 -63 86 -161 137
-208 l42 -37 38 43 38 44 -22 15 c-93 63 -178 181 -191 264 -4 22 -11 45 -17
53 -7 7 -8 25 -5 40 4 16 8 39 10 53 2 14 7 33 11 42 5 13 -1 19 -29 26 -60
17 -82 4 -78 -48 1 -8 -3 -28 -8 -43 -6 -19 -5 -36 2 -53 9 -19 9 -30 0 -44
-6 -11 -14 -34 -17 -52 -14 -78 -70 -169 -127 -209 -30 -21 -31 -21 -15 -2 17
20 16 21 -42 75 l-59 55 83 -2 c81 -2 83 -1 88 23 9 48 -1 60 -48 57 l-42 -3
-7 54 c-4 31 -2 63 4 74 5 10 7 26 4 35 -5 13 -2 15 22 9 16 -4 39 -11 52 -15
22 -8 26 -3 60 70 36 77 38 79 68 74 21 -3 36 0 48 12 14 14 27 16 71 10 51
-6 53 -8 49 -32 -3 -14 -16 -47 -30 -74 -20 -40 -21 -49 -9 -49 21 0 27 -1 52
-11 33 -12 45 5 87 126 31 87 36 109 25 116 -17 11 -53 12 -63 2 -13 -13 -226
-10 -226 3 0 6 13 38 30 70 16 32 26 62 21 67 -4 4 -29 14 -54 22 -45 13 -45
13 -55 -13z m-237 -221 c0 -39 -1 -40 -42 -46 -24 -3 -51 -1 -62 4 -11 6 -26
9 -33 6 -9 -4 -13 4 -13 27 0 31 2 33 45 39 105 14 106 13 105 -30z m-35 -97
c33 -6 36 -9 37 -44 2 -37 1 -38 -42 -45 -25 -3 -53 -2 -64 4 -11 6 -26 8 -35
5 -12 -5 -15 2 -13 35 1 32 5 40 17 36 8 -2 22 0 30 5 18 11 23 12 70 4z m0
-150 c33 -6 36 -9 37 -44 2 -37 1 -38 -42 -45 -25 -3 -53 -2 -64 4 -11 6 -26
8 -35 5 -12 -5 -15 2 -13 35 1 32 5 40 17 36 8 -2 22 0 30 5 18 11 23 12 70 4z"/>
<path d="M165 329 c-4 -11 -33 -48 -65 -82 l-57 -62 38 -27 38 -27 43 51 c24
28 55 64 71 79 15 15 27 31 27 36 0 5 -20 19 -44 31 -45 21 -45 21 -51 1z"/>
</g>
</svg>
