<?xml version="1.0" standalone="no"?>
<!DOCTYPE svg PUBLIC "-//W3C//DTD SVG 20010904//EN"
 "http://www.w3.org/TR/2001/REC-SVG-20010904/DTD/svg10.dtd">
<svg version="1.0" xmlns="http://www.w3.org/2000/svg"
 width="101.000000pt" height="101.000000pt" viewBox="0 0 101.000000 101.000000"
 preserveAspectRatio="xMidYMid meet">
<metadata>
Created by potrace 1.16, written by Peter Selinger 2001-2019
</metadata>
<g transform="translate(0.000000,101.000000) scale(0.100000,-0.100000)"
fill="#000000" stroke="none">
<path d="M615 988 c-4 -13 -9 -32 -11 -43 -11 -78 -41 -171 -90 -281 l-19 -41
-120 -6 c-66 -3 -142 -4 -170 -2 -82 7 -96 7 -102 1 -8 -8 -8 -64 0 -72 7 -8
42 -8 92 1 93 15 201 15 243 1 62 -22 79 -11 73 48 -1 15 3 17 21 12 48 -15
52 -12 84 62 l32 74 96 1 c56 1 97 -2 99 -8 2 -5 -5 -31 -16 -58 -11 -26 -17
-50 -15 -53 11 -10 98 -14 98 -4 0 16 2 23 17 65 8 22 16 47 18 55 2 8 9 31
14 50 14 43 2 58 -34 42 -32 -15 -122 -16 -130 -2 -4 6 -32 9 -64 8 l-58 -3
18 55 c11 30 24 65 31 77 15 30 9 34 -50 40 -45 4 -50 2 -57 -19z"/>
<path d="M265 982 c-3 -8 -2 -30 1 -50 l6 -37 -44 2 c-23 2 -55 6 -70 9 -48
11 -95 -3 -102 -30 -12 -50 -3 -55 107 -53 l102 2 0 -40 0 -40 -87 2 c-49 0
-88 -2 -88 -5 0 -4 -3 -16 -6 -28 -10 -39 18 -53 106 -53 44 0 82 4 85 9 9 14
69 12 83 -2 8 -8 15 -8 25 1 10 8 33 9 70 5 55 -6 56 -6 63 20 4 15 2 32 -4
38 -6 6 -46 12 -89 13 l-78 3 -3 33 -3 34 107 2 c114 1 126 6 122 53 -3 25 -4
25 -105 25 l-101 0 4 50 4 50 -50 0 c-32 0 -52 -5 -55 -13z"/>
<path d="M670 656 c-5 -13 -8 -37 -8 -54 1 -16 -2 -34 -6 -40 -3 -6 -1 -22 5
-36 9 -19 9 -29 1 -39 -6 -7 -14 -31 -18 -53 -15 -98 -74 -183 -170 -245 l-64
-42 45 -28 c25 -16 50 -29 55 -29 27 0 131 123 165 195 l37 77 17 -49 c22 -66
62 -131 115 -189 l45 -49 43 42 43 43 -25 17 c-43 29 -118 110 -139 151 -18
36 -28 69 -35 127 -2 11 -9 39 -16 63 -10 33 -11 48 -1 68 6 14 8 30 5 36 -4
6 0 14 7 19 21 14 -17 39 -58 39 -26 0 -36 -5 -43 -24z"/>
<path d="M69 483 c-19 -5 -29 -34 -22 -62 4 -16 11 -18 41 -14 130 17 179 12
181 -20 0 -12 3 -51 6 -87 6 -85 -8 -116 -53 -114 -31 2 -42 -9 -23 -21 5 -3
12 -18 16 -35 3 -16 14 -30 23 -32 19 -4 92 18 106 33 6 5 11 60 12 121 4 160
3 156 28 157 70 5 95 4 127 -3 32 -7 37 -5 42 13 12 46 -1 59 -61 59 -92 1
-181 1 -282 -1 -52 0 -102 2 -110 5 -8 3 -22 4 -31 1z"/>
<path d="M109 296 c-30 -44 -55 -83 -57 -86 -1 -3 16 -11 39 -18 37 -11 43
-11 56 5 23 29 93 136 93 142 0 3 -17 13 -39 22 l-38 16 -54 -81z"/>
<path d="M427 364 c-16 -8 -27 -18 -25 -22 14 -32 64 -112 70 -112 4 0 21 8
38 18 l30 19 -33 53 c-17 30 -36 55 -42 56 -5 2 -23 -4 -38 -12z"/>
</g>
</svg>
