<?xml version="1.0" standalone="no"?>
<!DOCTYPE svg PUBLIC "-//W3C//DTD SVG 20010904//EN"
 "http://www.w3.org/TR/2001/REC-SVG-20010904/DTD/svg10.dtd">
<svg version="1.0" xmlns="http://www.w3.org/2000/svg"
 width="101.000000pt" height="101.000000pt" viewBox="0 0 101.000000 101.000000"
 preserveAspectRatio="xMidYMid meet">
<metadata>
Created by potrace 1.16, written by Peter Selinger 2001-2019
</metadata>
<g transform="translate(0.000000,101.000000) scale(0.100000,-0.100000)"
fill="#000000" stroke="none">
<path d="M629 993 c-1 -10 -1 -24 0 -31 1 -8 -3 -19 -9 -27 -6 -7 -13 -21 -15
-31 -2 -11 -6 -30 -9 -43 -14 -65 -92 -238 -102 -228 -2 2 -7 58 -10 126 -4
88 -3 126 6 136 7 9 10 26 6 41 -6 23 -11 25 -39 20 -80 -14 -167 -18 -179 -8
-8 6 -36 11 -63 11 -28 0 -57 1 -65 2 -46 7 -50 1 -50 -66 0 -37 4 -65 10 -65
6 0 10 -16 10 -35 0 -19 -5 -35 -10 -35 -6 0 -10 -31 -9 -76 l1 -76 34 7 c19
3 34 2 34 -4 0 -12 -97 -112 -134 -138 l-29 -20 23 -34 c13 -19 25 -36 27 -38
1 -2 9 1 17 8 11 10 14 7 15 -16 4 -69 0 -144 -8 -166 -13 -33 -2 -45 39 -40
42 6 152 6 198 1 27 -2 34 -8 41 -33 9 -34 29 -36 91 -6 47 22 63 60 67 156 4
100 10 205 13 225 8 43 2 48 -49 38 -27 -5 -86 -6 -132 -3 -46 3 -94 6 -107 6
l-24 1 22 23 c19 20 35 24 138 31 64 4 122 6 127 5 6 -2 17 -4 25 -6 8 -2 23
-6 32 -10 15 -6 23 5 48 59 27 60 32 66 60 66 16 0 30 5 30 10 0 13 137 13
145 1 3 -5 -6 -39 -19 -75 -17 -45 -21 -66 -13 -67 7 0 21 -3 32 -5 50 -12 57
-9 70 29 7 20 11 37 10 37 -2 0 7 35 21 78 13 42 24 80 24 84 0 11 -39 20 -52
11 -7 -4 -64 -8 -125 -8 -129 0 -124 -7 -72 97 15 32 24 60 19 63 -8 5 -99 35
-107 35 -2 0 -4 -8 -4 -17z m-224 -147 l0 -31 -105 0 -105 0 -1 30 0 30 105 1
106 1 0 -31z m0 -136 l0 -30 -100 7 c-55 3 -101 6 -101 7 -1 0 -4 10 -8 21 -5
19 0 20 102 23 l107 3 0 -31z m-139 -238 c2 -31 -38 -112 -70 -141 -30 -28
-40 -24 -28 10 5 13 8 40 8 59 -1 27 -6 35 -24 40 l-24 5 25 24 c14 13 30 20
36 17 6 -4 19 -2 28 3 27 16 48 9 49 -17z m170 2 c-3 -8 -1 -24 4 -35 6 -11 8
-40 4 -69 -7 -56 -1 -57 -83 12 -30 26 -31 29 -22 66 10 36 12 38 57 40 38 1
45 -1 40 -14z m-80 -188 c14 -20 14 -20 42 1 l28 20 2 -42 c2 -49 -10 -62 -55
-62 -25 0 -33 5 -33 19 0 16 -8 18 -62 18 -107 -1 -113 0 -114 26 -2 23 -1 23
27 9 41 -22 45 -20 80 32 l32 46 20 -24 c11 -13 25 -33 33 -43z"/>
<path d="M649 673 c-1 -10 0 -22 1 -28 2 -5 2 -37 1 -70 -2 -33 -2 -73 -2 -90
1 -39 -26 -140 -50 -187 -11 -22 -36 -57 -55 -78 l-36 -40 22 -45 c12 -25 26
-43 30 -40 24 15 111 162 126 213 23 76 30 81 44 35 22 -67 80 -169 118 -206
l37 -36 44 41 44 41 -24 20 c-13 11 -33 27 -44 36 -61 49 -125 165 -140 256
-11 66 -11 129 -1 153 13 31 -4 42 -66 42 -39 0 -48 -3 -49 -17z"/>
</g>
</svg>
