<?xml version="1.0" standalone="no"?>
<!DOCTYPE svg PUBLIC "-//W3C//DTD SVG 20010904//EN"
 "http://www.w3.org/TR/2001/REC-SVG-20010904/DTD/svg10.dtd">
<svg version="1.0" xmlns="http://www.w3.org/2000/svg"
 width="101.000000pt" height="101.000000pt" viewBox="0 0 101.000000 101.000000"
 preserveAspectRatio="xMidYMid meet">
<metadata>
Created by potrace 1.16, written by Peter Selinger 2001-2019
</metadata>
<g transform="translate(0.000000,101.000000) scale(0.100000,-0.100000)"
fill="#000000" stroke="none">
<path d="M488 983 c-19 -5 -25 -33 -8 -33 6 0 10 -25 10 -55 0 -30 -4 -55 -10
-55 -5 0 -10 -18 -10 -40 0 -22 5 -40 10 -40 6 0 10 -33 10 -80 0 -47 -4 -80
-10 -80 -6 0 -10 -30 -10 -70 0 -40 4 -70 10 -70 6 0 10 -11 10 -25 0 -14 -5
-25 -11 -25 -8 0 -10 -25 -5 -89 l7 -88 -91 1 -91 1 6 91 c5 63 4 94 -4 98
-14 9 -14 53 -1 61 6 4 10 53 9 123 -1 64 2 129 6 144 6 23 3 29 -17 37 -34
13 -98 11 -99 -2 -4 -38 4 -133 12 -135 12 -5 11 -72 -1 -72 -6 0 -10 -30 -10
-70 0 -40 4 -70 10 -70 6 0 10 -11 10 -25 0 -14 -5 -25 -11 -25 -9 0 -10 -23
-5 -80 l7 -81 -88 3 c-87 3 -87 3 -97 -24 -15 -42 3 -84 34 -80 14 1 53 2 87
2 34 0 65 5 68 10 8 13 152 13 160 0 3 -5 37 -10 75 -10 38 0 72 5 75 10 7 12
88 14 99 3 4 -5 84 -8 177 -8 187 0 188 1 174 64 -6 26 -11 30 -53 34 -78 9
-110 8 -117 -3 -8 -13 -52 -13 -60 1 -4 6 -38 9 -86 7 l-80 -3 6 36 c4 21 2
40 -3 43 -14 8 -14 146 -1 162 6 8 9 35 7 61 l-3 48 143 1 c159 1 166 4 158
63 -3 18 -7 35 -9 37 -2 2 -70 5 -150 6 l-147 3 4 124 c3 68 7 126 10 129 25
24 -52 49 -106 35z"/>
</g>
</svg>
