<?xml version="1.0" standalone="no"?>
<!DOCTYPE svg PUBLIC "-//W3C//DTD SVG 20010904//EN"
 "http://www.w3.org/TR/2001/REC-SVG-20010904/DTD/svg10.dtd">
<svg version="1.0" xmlns="http://www.w3.org/2000/svg"
 width="101.000000pt" height="101.000000pt" viewBox="0 0 101.000000 101.000000"
 preserveAspectRatio="xMidYMid meet">
<metadata>
Created by potrace 1.16, written by Peter Selinger 2001-2019
</metadata>
<g transform="translate(0.000000,101.000000) scale(0.100000,-0.100000)"
fill="#000000" stroke="none">
<path d="M600 1000 c0 -6 5 -10 10 -10 11 0 13 -70 4 -116 l-5 -29 -86 2
c-102 2 -133 -7 -133 -39 0 -48 13 -53 115 -52 l95 2 0 -29 c0 -16 5 -29 11
-29 6 0 9 -16 7 -37 l-3 -38 -87 2 -87 1 -6 -28 c-8 -38 11 -73 36 -67 15 4
17 2 10 -11 -9 -16 29 -119 74 -200 14 -25 24 -46 23 -47 -23 -19 -153 -69
-208 -79 -66 -12 -90 -19 -90 -25 0 -13 71 -71 86 -71 18 0 177 61 232 89 l41
21 103 -50 c145 -70 147 -70 181 -14 15 26 26 48 23 51 -2 2 -20 6 -40 9 -38
4 -165 49 -179 63 -5 5 4 26 18 47 40 58 79 139 110 227 23 64 26 80 15 87 -8
5 -21 5 -29 1 -9 -4 -49 -5 -88 -3 l-73 4 0 62 0 63 61 -4 c38 -3 66 0 75 8 9
8 34 10 68 6 60 -6 71 3 60 49 -8 29 -38 36 -159 32 l-90 -3 3 35 c4 56 7 74
16 89 5 7 4 17 -3 24 -14 14 -111 20 -111 7z m148 -480 c-12 -33 -65 -130 -84
-155 -15 -20 -15 -20 -34 5 -19 24 -53 104 -65 152 -6 23 -5 23 93 23 l100 0
-10 -25z"/>
<path d="M248 983 c-15 -4 -18 -16 -18 -69 0 -36 4 -64 10 -64 6 0 10 -16 10
-35 0 -19 -4 -35 -10 -35 -6 0 -10 -30 -10 -70 0 -40 4 -70 10 -70 6 0 10 -11
10 -25 0 -14 -5 -25 -11 -25 -8 0 -10 -35 -8 -113 4 -107 3 -113 -16 -113 -11
0 -23 5 -27 10 -11 16 -10 114 2 121 12 7 11 113 -1 121 -12 7 -11 51 1 59 6
4 10 37 9 74 -1 67 -2 68 -33 79 -41 15 -42 15 -59 -3 -17 -17 -23 -160 -7
-170 12 -8 13 -52 1 -59 -12 -8 -13 -114 -1 -121 12 -7 13 -105 2 -122 -4 -7
-23 -15 -42 -18 -19 -3 -36 -7 -37 -9 -7 -7 31 -86 41 -86 7 0 81 18 165 40
85 21 157 38 160 38 3 -1 18 2 34 7 33 9 48 33 40 64 -5 20 -10 22 -42 16 -20
-4 -47 -9 -60 -12 -14 -2 -27 -6 -30 -8 -3 -1 -6 51 -6 116 l0 119 37 0 c39 0
68 21 67 48 -1 24 -15 57 -23 55 -3 -2 -23 -3 -43 -3 l-38 0 2 100 c1 64 6
106 14 116 15 19 1 35 -35 39 -14 2 -28 5 -33 7 -4 3 -16 3 -25 1z"/>
</g>
</svg>
