<?xml version="1.0" standalone="no"?>
<!DOCTYPE svg PUBLIC "-//W3C//DTD SVG 20010904//EN"
 "http://www.w3.org/TR/2001/REC-SVG-20010904/DTD/svg10.dtd">
<svg version="1.0" xmlns="http://www.w3.org/2000/svg"
 width="101.000000pt" height="101.000000pt" viewBox="0 0 101.000000 101.000000"
 preserveAspectRatio="xMidYMid meet">
<metadata>
Created by potrace 1.16, written by Peter Selinger 2001-2019
</metadata>
<g transform="translate(0.000000,101.000000) scale(0.100000,-0.100000)"
fill="#000000" stroke="none">
<path d="M138 943 c-19 -5 -33 -53 -23 -82 4 -13 19 -23 42 -27 45 -9 197 4
201 16 4 11 36 13 78 4 l29 -5 2 -162 c3 -161 3 -305 2 -382 l0 -40 -84 0 -83
0 4 72 c3 43 1 74 -6 78 -13 8 -13 52 0 60 6 4 10 41 9 88 -1 45 1 92 5 104 8
26 -16 43 -64 43 -42 0 -48 -22 -44 -165 3 -117 4 -140 4 -235 l-1 -45 -42 3
c-115 9 -127 4 -127 -49 0 -43 22 -63 61 -55 19 3 73 6 121 6 48 0 90 5 93 10
9 14 68 13 83 -2 8 -8 15 -8 24 -1 16 14 175 17 182 4 8 -12 94 -12 102 0 8
14 77 11 124 -6 83 -29 123 -11 118 54 -2 28 -8 38 -29 45 -15 5 -35 5 -45 1
-11 -5 -86 -9 -168 -9 l-149 -1 7 89 c3 49 6 109 6 133 0 39 2 43 25 43 14 0
25 5 25 10 0 11 132 14 143 4 3 -4 22 -8 41 -9 31 -2 35 1 40 30 10 50 -4 73
-39 65 -5 -1 -63 -3 -128 -4 l-118 -1 3 110 3 110 90 -3 c50 -2 109 -6 133 -9
66 -8 89 1 96 41 11 57 5 61 -93 64 -53 1 -92 -2 -96 -8 -8 -13 -52 -13 -60 0
-8 13 -142 13 -150 1 -7 -12 -172 -13 -180 -1 -3 5 -29 9 -58 9 -29 0 -61 2
-72 4 -11 3 -28 3 -37 0z"/>
</g>
</svg>
