<?xml version="1.0" standalone="no"?>
<!DOCTYPE svg PUBLIC "-//W3C//DTD SVG 20010904//EN"
 "http://www.w3.org/TR/2001/REC-SVG-20010904/DTD/svg10.dtd">
<svg version="1.0" xmlns="http://www.w3.org/2000/svg"
 width="101.000000pt" height="101.000000pt" viewBox="0 0 101.000000 101.000000"
 preserveAspectRatio="xMidYMid meet">
<metadata>
Created by potrace 1.16, written by Peter Selinger 2001-2019
</metadata>
<g transform="translate(0.000000,101.000000) scale(0.100000,-0.100000)"
fill="#000000" stroke="none">
<path d="M635 1000 c-11 -5 -14 -9 -7 -9 13 -1 15 -68 4 -136 -6 -34 -11 -40
-33 -42 -28 -2 -28 3 -4 84 5 15 2 24 -12 31 -22 11 -93 14 -94 4 0 -4 -2 -16
-5 -27 -6 -27 -14 -74 -20 -109 -2 -16 -9 -35 -14 -41 -6 -7 -10 -17 -9 -21 1
-5 -1 -21 -5 -36 -9 -31 -27 -39 -19 -9 5 20 -15 26 -116 33 -29 3 -34 7 -37
32 -2 16 4 35 12 43 8 8 12 18 9 23 -3 4 4 6 15 3 11 -3 49 -2 85 2 57 6 66 9
71 30 3 13 3 32 0 42 -6 17 -18 20 -111 21 -66 2 -105 -1 -105 -8 0 -5 -16
-10 -35 -10 -19 0 -35 5 -35 10 0 6 -20 10 -45 10 -40 0 -47 -3 -56 -27 -5
-15 -8 -37 -5 -49 5 -20 12 -22 65 -21 l59 2 -4 -32 c-7 -57 -45 -143 -97
-220 -37 -55 -47 -78 -37 -81 7 -3 23 -15 35 -28 l22 -24 21 23 c11 12 39 53
61 91 40 68 40 69 85 70 39 1 45 -2 40 -16 -5 -16 -7 -29 -20 -96 l-7 -33 -32
31 -33 32 -31 -21 c-17 -13 -31 -25 -31 -29 0 -3 19 -25 42 -49 41 -42 41 -42
24 -68 -26 -39 -91 -100 -142 -132 -24 -15 -44 -31 -44 -34 0 -14 84 -59 101
-54 32 11 145 142 182 212 32 63 74 180 82 228 8 56 16 60 85 40 12 -4 21 9
34 48 18 52 18 52 59 52 l42 0 0 -62 c0 -35 -4 -64 -10 -64 -46 -7 -122 -6
-135 1 -24 13 -57 1 -63 -21 -13 -49 22 -78 68 -57 13 6 35 8 50 4 l26 -7 -26
-48 c-43 -78 -109 -155 -173 -202 -34 -24 -61 -47 -61 -51 -1 -3 20 -18 45
-33 l46 -27 35 33 c49 48 118 138 163 215 30 52 38 60 40 42 4 -52 1 -311 -4
-333 -7 -26 14 -36 58 -28 l26 5 -5 145 c-4 98 -2 150 6 165 11 20 13 19 28
-23 24 -61 60 -116 111 -166 l42 -43 39 43 38 42 -26 20 c-91 68 -143 137
-168 221 -6 24 -2 25 106 24 48 0 57 3 62 20 13 50 2 56 -96 58 -143 1 -132
-4 -132 63 l0 59 45 2 c63 2 72 2 101 -6 35 -10 61 16 57 57 l-3 31 -100 1
-100 0 1 60 c0 33 4 71 9 84 13 41 -37 64 -90 41z"/>
</g>
</svg>
