<?xml version="1.0" standalone="no"?>
<!DOCTYPE svg PUBLIC "-//W3C//DTD SVG 20010904//EN"
 "http://www.w3.org/TR/2001/REC-SVG-20010904/DTD/svg10.dtd">
<svg version="1.0" xmlns="http://www.w3.org/2000/svg"
 width="101.000000pt" height="101.000000pt" viewBox="0 0 101.000000 101.000000"
 preserveAspectRatio="xMidYMid meet">
<metadata>
Created by potrace 1.16, written by Peter Selinger 2001-2019
</metadata>
<g transform="translate(0.000000,101.000000) scale(0.100000,-0.100000)"
fill="#000000" stroke="none">
<path d="M740 993 c0 -9 -14 -47 -31 -84 -26 -57 -36 -68 -61 -73 -46 -9 -96
-7 -103 4 -7 11 -95 13 -111 2 -14 -9 -18 -168 -4 -177 13 -8 13 -52 1 -60 -6
-3 -9 -43 -8 -90 2 -73 4 -85 21 -89 11 -3 27 -1 37 5 10 5 42 6 72 3 51 -6
54 -8 54 -35 0 -22 -6 -29 -26 -34 -38 -7 -163 -4 -182 6 -23 12 -56 0 -62
-21 -2 -10 -2 -30 0 -44 5 -26 7 -26 57 -21 153 18 222 15 212 -11 -3 -8 -1
-25 5 -38 8 -17 8 -38 0 -76 -6 -29 -9 -55 -6 -59 6 -5 85 -5 91 1 5 6 6 78 0
134 -4 48 -2 52 17 53 12 0 48 3 80 5 35 3 75 -1 96 -9 44 -15 59 -9 62 25 5
56 7 55 -108 57 -155 2 -150 1 -150 33 0 31 -1 31 124 32 79 1 81 1 86 26 3
14 2 35 -3 46 -7 21 -3 224 6 281 7 44 -4 53 -75 62 l-64 8 37 48 c20 26 36
51 36 55 0 7 -83 52 -95 52 -3 0 -5 -8 -5 -17z m62 -273 l3 -50 -50 6 c-27 4
-50 7 -51 8 -1 0 -4 20 -8 44 l-6 42 54 0 54 0 4 -50z m-201 -3 l4 -42 -45 0
-45 0 0 37 c-1 34 2 37 30 41 16 2 35 5 41 5 7 1 13 -16 15 -41z m4 -162 c0
-47 -1 -50 -25 -47 -14 2 -35 3 -47 4 -20 0 -22 5 -21 44 2 34 6 43 18 39 8
-2 22 0 30 5 31 21 45 7 45 -45z m200 0 l0 -50 -35 3 c-19 1 -45 3 -57 3 -20
1 -22 6 -21 45 2 34 6 43 18 39 8 -2 22 0 30 5 8 6 26 9 40 8 23 -3 25 -7 25
-53z"/>
<path d="M530 988 c-19 -6 -37 -11 -39 -13 -2 -3 44 -108 55 -123 3 -4 84 18
84 22 0 9 -52 116 -58 119 -4 2 -23 0 -42 -5z"/>
<path d="M56 933 c-4 -9 -4 -31 0 -49 6 -32 7 -33 58 -31 57 3 58 1 41 -78 -3
-16 -8 -40 -11 -53 -9 -46 -38 -108 -76 -166 -21 -32 -38 -61 -38 -65 0 -3 16
-19 35 -34 l35 -28 21 36 c12 19 24 35 29 35 4 0 24 -21 45 -46 35 -43 37 -47
24 -72 -7 -15 -52 -66 -99 -113 l-86 -86 42 -36 41 -36 35 37 c103 110 172
229 214 367 28 97 33 120 37 175 l2 35 -87 0 c-49 0 -84 4 -81 9 4 5 8 21 10
35 2 14 5 35 7 46 2 11 4 25 5 30 0 6 35 9 86 8 82 -2 85 -1 91 21 3 13 4 35
2 47 -3 21 -8 24 -38 22 -19 -1 -79 -5 -133 -8 -59 -4 -103 -3 -110 3 -20 17
-95 13 -101 -5z m238 -313 c-4 -40 -16 -104 -21 -113 -3 -5 -18 6 -33 25 l-28
33 -26 -24 c-30 -29 -31 -26 -10 25 9 22 20 48 24 59 6 17 17 21 52 20 40 0
44 -2 42 -25z"/>
</g>
</svg>
