<?xml version="1.0" standalone="no"?>
<!DOCTYPE svg PUBLIC "-//W3C//DTD SVG 20010904//EN"
 "http://www.w3.org/TR/2001/REC-SVG-20010904/DTD/svg10.dtd">
<svg version="1.0" xmlns="http://www.w3.org/2000/svg"
 width="101.000000pt" height="101.000000pt" viewBox="0 0 101.000000 101.000000"
 preserveAspectRatio="xMidYMid meet">
<metadata>
Created by potrace 1.16, written by Peter Selinger 2001-2019
</metadata>
<g transform="translate(0.000000,101.000000) scale(0.100000,-0.100000)"
fill="#000000" stroke="none">
<path d="M615 963 l0 -48 -107 2 c-99 1 -108 0 -113 -19 -20 -61 21 -86 114
-68 90 17 106 14 106 -18 0 -26 -3 -27 -35 -24 -111 12 -140 4 -140 -38 0 -37
18 -45 92 -44 45 0 73 5 76 12 5 16 69 15 76 0 5 -10 7 -10 12 0 8 17 104 15
128 -3 25 -19 31 -19 51 1 18 18 13 63 -8 76 -15 9 -91 10 -100 2 -4 -4 -19
-8 -35 -9 -25 -2 -28 0 -24 24 l4 26 109 0 c105 0 110 1 115 22 3 12 3 30 0
41 -6 17 -16 19 -119 18 l-113 -1 3 43 c2 23 0 42 -4 43 -5 0 -26 3 -48 5
l-40 5 0 -48z"/>
<path d="M46 904 c-4 -9 -4 -32 0 -50 l6 -33 52 5 52 4 2 -31 c2 -19 -4 -40
-14 -50 -10 -11 -15 -22 -12 -25 16 -16 -46 -178 -94 -246 l-19 -27 33 -30
c18 -17 36 -31 39 -31 3 0 14 16 25 35 10 19 21 35 23 35 14 0 72 -48 77 -63
11 -34 -102 -176 -171 -214 -11 -7 -18 -13 -15 -15 3 -2 22 -19 43 -38 l37
-34 46 44 c48 46 125 156 145 207 16 40 50 163 54 198 2 17 6 49 8 73 3 23 8
46 12 50 5 4 5 -1 2 -11 -4 -9 -1 -29 5 -43 9 -20 9 -30 -1 -46 -17 -27 -8
-33 45 -30 38 1 47 -2 51 -18 5 -18 23 -26 48 -20 66 17 192 20 232 6 43 -15
63 -11 63 10 0 9 9 14 23 13 12 -1 36 -1 52 -1 l30 2 1 80 c1 60 -3 80 -13 85
-8 3 -20 2 -26 -2 -21 -14 -365 -20 -432 -8 -22 4 -50 7 -62 7 -13 0 -23 6
-23 14 0 17 -24 18 -49 2 -15 -9 -26 -9 -45 0 -14 6 -32 9 -40 6 -12 -4 -14 0
-9 18 3 12 7 39 10 58 l5 35 61 -2 c65 -2 77 5 77 44 0 39 -26 53 -96 53 -36
0 -64 -4 -64 -10 0 -5 -16 -10 -35 -10 -19 0 -35 5 -35 10 0 6 -22 10 -49 10
-36 0 -51 -4 -55 -16z m228 -303 c-2 -25 -6 -57 -8 -71 -2 -14 -5 -31 -5 -39
-1 -10 -11 -5 -31 14 l-30 29 -24 -23 -25 -23 24 58 c14 33 25 66 25 75 0 22
5 25 44 26 l34 1 -4 -47z m517 10 c44 -1 46 -2 46 -31 0 -16 -4 -30 -9 -30 -4
0 -8 7 -8 15 0 12 -20 14 -130 9 -75 -2 -138 0 -149 5 -23 13 -61 3 -61 -15 0
-8 -4 -14 -8 -14 -5 0 -9 14 -9 30 0 23 4 29 16 25 9 -2 23 0 31 5 8 5 65 8
125 6 61 -2 131 -5 156 -5z"/>
<path d="M449 483 c-20 -5 -31 -40 -19 -62 4 -9 6 -29 4 -46 -13 -96 -8 -102
69 -80 18 5 33 3 40 -4 8 -8 5 -11 -10 -11 -31 0 -36 -15 -19 -48 l15 -30 -50
-6 c-27 -4 -55 -4 -61 0 -6 4 -26 8 -44 10 -35 2 -46 -14 -37 -59 5 -28 36
-41 62 -27 16 8 145 6 246 -4 28 -2 64 0 80 6 20 6 62 7 122 1 l91 -9 5 30 c8
58 1 64 -56 54 -33 -6 -58 -6 -74 1 -12 6 -31 8 -40 5 -10 -3 -3 8 15 24 l34
30 -23 15 c-21 15 -20 16 24 12 l46 -5 -6 33 c-6 29 -7 69 -3 135 1 13 0 25
-2 28 -3 2 -38 0 -79 -6 -86 -12 -246 -5 -299 13 -8 2 -22 3 -31 0z m302 -69
c21 -4 26 -11 25 -30 -1 -30 -31 -37 -136 -29 -41 3 -84 6 -95 6 -14 1 -20 9
-21 26 -2 18 2 22 15 19 9 -3 22 -2 30 3 15 10 143 13 182 5z m-34 -128 c3 -3
-5 -23 -17 -44 -19 -34 -27 -40 -55 -39 -28 1 -34 6 -46 36 -8 20 -16 40 -18
45 -2 4 5 5 15 2 11 -3 26 -1 34 5 14 9 77 6 87 -5z"/>
</g>
</svg>
