<?xml version="1.0" standalone="no"?>
<!DOCTYPE svg PUBLIC "-//W3C//DTD SVG 20010904//EN"
 "http://www.w3.org/TR/2001/REC-SVG-20010904/DTD/svg10.dtd">
<svg version="1.0" xmlns="http://www.w3.org/2000/svg"
 width="101.000000pt" height="101.000000pt" viewBox="0 0 101.000000 101.000000"
 preserveAspectRatio="xMidYMid meet">
<metadata>
Created by potrace 1.16, written by Peter Selinger 2001-2019
</metadata>
<g transform="translate(0.000000,101.000000) scale(0.100000,-0.100000)"
fill="#000000" stroke="none">
<path d="M554 912 c-1 -95 -16 -143 -61 -193 l-34 -38 42 -22 43 -21 23 28
c13 16 30 44 39 62 18 38 37 147 29 171 -4 13 3 16 43 16 l47 0 2 -84 c2 -114
7 -130 48 -147 39 -16 112 -18 135 -5 8 6 14 24 13 45 -1 21 4 36 10 36 7 0 6
4 -3 9 -8 6 -18 7 -24 4 -16 -11 -79 -4 -88 9 -4 7 -6 20 -3 28 8 26 15 143
10 160 -4 12 -28 15 -137 17 l-133 2 -1 -77z"/>
<path d="M64 955 c-3 -14 -1 -31 4 -38 14 -16 14 -174 1 -182 -12 -8 -12 -142
1 -150 13 -8 13 -52 -1 -61 -8 -4 -9 -52 -5 -157 3 -82 7 -152 10 -154 3 -3
15 -5 28 -4 13 0 68 2 123 4 55 3 110 1 122 -4 12 -4 34 -3 51 3 16 6 38 8 48
3 17 -6 15 -9 -11 -18 -16 -5 -31 -11 -33 -13 -2 -1 14 -18 34 -37 l39 -35 60
30 c33 17 81 45 107 64 31 22 50 30 54 22 7 -12 185 -98 202 -98 6 0 22 21 36
47 20 35 23 48 14 54 -7 4 -15 6 -19 4 -7 -5 -144 32 -170 46 -17 8 -15 15 23
85 35 66 108 236 108 254 0 3 -80 7 -177 7 -98 1 -186 4 -195 8 -13 5 -21 0
-29 -18 -14 -30 -4 -78 14 -71 8 3 17 -12 25 -42 10 -36 55 -141 90 -206 4 -9
-62 -52 -110 -72 l-37 -16 2 41 c2 50 -15 63 -59 44 -36 -15 -123 -18 -139 -5
-5 4 -34 7 -63 7 l-52 -2 6 45 c4 25 8 46 9 48 2 2 18 -3 37 -11 l34 -15 40
74 c21 41 42 74 47 74 4 0 24 -33 44 -74 l37 -75 38 20 c21 11 38 22 38 26 0
4 -27 48 -61 99 l-60 92 35 87 c20 49 43 96 52 106 15 17 14 19 -18 32 -55 23
-78 29 -79 20 -8 -52 -16 -88 -19 -88 -1 0 -4 -13 -6 -29 -6 -53 -20 -50 -58
11 -19 32 -40 64 -45 72 -7 11 -15 10 -42 -9 l-32 -24 6 25 c4 13 7 38 7 55
l0 32 95 7 c63 4 106 3 130 -5 69 -23 116 7 101 64 -5 21 -11 22 -111 24 -66
2 -105 -1 -105 -8 0 -5 -16 -10 -35 -10 -19 0 -35 5 -35 10 0 6 -30 10 -70 10
-66 0 -70 -1 -76 -25z m194 -319 l31 -42 -34 -60 c-19 -32 -45 -72 -59 -89
l-25 -30 -1 27 c0 15 -4 30 -10 33 -13 8 -13 152 1 160 6 4 10 21 9 39 -4 71
-2 74 29 38 16 -18 42 -52 59 -76z m506 -114 c-6 -29 -70 -158 -83 -166 -17
-11 -84 152 -74 179 1 6 38 10 82 10 77 0 79 0 75 -23z"/>
</g>
</svg>
