<?xml version="1.0" standalone="no"?>
<!DOCTYPE svg PUBLIC "-//W3C//DTD SVG 20010904//EN"
 "http://www.w3.org/TR/2001/REC-SVG-20010904/DTD/svg10.dtd">
<svg version="1.0" xmlns="http://www.w3.org/2000/svg"
 width="101.000000pt" height="101.000000pt" viewBox="0 0 101.000000 101.000000"
 preserveAspectRatio="xMidYMid meet">
<metadata>
Created by potrace 1.16, written by Peter Selinger 2001-2019
</metadata>
<g transform="translate(0.000000,101.000000) scale(0.100000,-0.100000)"
fill="#000000" stroke="none">
<path d="M268 998 c-16 -5 -28 -13 -28 -18 0 -16 33 -85 44 -92 12 -8 -98 -2
-151 8 -29 6 -34 3 -43 -22 -6 -16 -9 -38 -6 -50 5 -20 12 -22 61 -20 30 1 55
1 55 -1 0 -2 -12 -8 -26 -13 -14 -6 -23 -14 -20 -18 3 -5 9 -26 14 -48 l9 -40
-31 2 c-17 2 -41 6 -53 9 -19 6 -25 2 -33 -21 -6 -16 -9 -39 -5 -51 5 -22 8
-23 88 -18 76 4 81 3 62 -11 -11 -9 -53 -32 -92 -51 l-73 -35 26 -34 c30 -38
28 -39 126 27 37 26 59 35 64 28 10 -16 -89 -95 -174 -138 -23 -12 -42 -25
-41 -29 0 -4 13 -17 29 -30 36 -28 40 -26 149 63 57 47 81 60 85 50 10 -28
-108 -132 -214 -189 l-61 -33 31 -27 c17 -14 35 -26 40 -26 15 0 124 86 177
139 l51 52 -3 -48 c-7 -95 -19 -113 -75 -110 -22 1 -42 -2 -46 -5 -3 -4 2 -28
12 -53 18 -45 20 -46 54 -40 87 16 123 58 127 149 5 101 5 106 9 106 3 0 25
-19 49 -41 25 -23 46 -40 48 -38 1 2 15 18 30 35 l29 32 -71 38 c-39 22 -71
42 -71 46 0 4 22 25 49 45 28 21 49 43 47 48 -1 6 -19 19 -39 30 l-37 20 -16
-23 c-9 -13 -26 -35 -38 -49 l-22 -25 -32 48 c-29 45 -30 50 -15 67 9 10 23
15 30 13 7 -3 24 -1 37 5 17 8 38 8 72 1 52 -11 68 -3 60 30 -3 14 0 16 13 8
10 -5 23 -16 31 -24 7 -9 18 -16 26 -16 22 0 84 140 86 198 l3 50 40 4 40 3 1
-87 c2 -123 11 -134 106 -136 41 0 80 3 87 8 8 4 15 26 17 49 3 35 1 41 -16
41 -10 0 -22 -4 -25 -10 -3 -5 -22 -10 -41 -10 -38 0 -36 -3 -33 95 3 118 3
134 -1 138 -3 2 -57 -1 -119 -6 -86 -8 -116 -7 -119 1 -7 21 -20 12 -27 -18
-4 -16 -1 -45 6 -63 10 -28 9 -42 -6 -86 -9 -28 -28 -65 -42 -81 -22 -26 -26
-28 -40 -15 -9 10 -20 12 -29 7 -8 -5 -28 -6 -45 -4 l-29 4 37 41 37 41 -30
12 -29 12 28 7 c15 4 38 4 51 1 19 -5 26 -1 31 15 17 52 -27 95 -72 71 -21
-12 -121 -3 -102 8 9 6 7 20 -7 59 -19 53 -27 58 -76 39z m96 -211 c-22 -69
-45 -109 -60 -103 -9 3 -30 7 -47 7 -18 1 -24 3 -14 6 21 5 22 23 3 68 -8 18
-13 35 -11 37 2 2 33 4 70 5 63 1 65 0 59 -20z"/>
<path d="M537 581 c-7 -27 3 -71 17 -71 6 0 12 -12 13 -27 0 -14 21 -66 45
-115 l45 -90 -40 -25 c-42 -27 -103 -50 -150 -59 -48 -8 -49 -13 -10 -59 l36
-44 71 36 c39 20 90 48 112 64 l42 29 98 -52 c60 -32 99 -47 102 -40 2 6 14
27 28 47 13 20 24 37 24 39 0 2 -24 10 -52 17 -58 13 -138 45 -138 54 0 3 13
32 29 63 34 68 96 240 89 248 -3 3 -25 0 -49 -6 -42 -10 -142 -8 -255 5 -45 5
-52 3 -57 -14z m229 -69 c17 -11 13 -36 -20 -108 l-32 -68 -26 60 c-15 32 -30
72 -34 88 -6 25 -4 27 12 22 11 -3 26 -1 34 4 18 11 51 13 66 2z"/>
</g>
</svg>
