<?xml version="1.0" standalone="no"?>
<!DOCTYPE svg PUBLIC "-//W3C//DTD SVG 20010904//EN"
 "http://www.w3.org/TR/2001/REC-SVG-20010904/DTD/svg10.dtd">
<svg version="1.0" xmlns="http://www.w3.org/2000/svg"
 width="101.000000pt" height="101.000000pt" viewBox="0 0 101.000000 101.000000"
 preserveAspectRatio="xMidYMid meet">
<metadata>
Created by potrace 1.16, written by Peter Selinger 2001-2019
</metadata>
<g transform="translate(0.000000,101.000000) scale(0.100000,-0.100000)"
fill="#000000" stroke="none">
<path d="M127 973 c-16 -4 -17 -19 -13 -190 2 -102 1 -196 -4 -208 -6 -15 -5
-35 3 -54 9 -25 9 -36 -1 -52 -8 -12 -16 -39 -18 -61 -5 -43 -35 -125 -62
-170 -16 -28 -16 -29 20 -64 l36 -36 30 63 c17 35 38 89 47 120 13 46 20 57
38 58 12 0 55 3 96 6 40 3 117 1 170 -4 53 -5 98 -7 100 -5 6 6 5 63 -1 69 -2
3 -25 7 -49 8 -40 3 -44 6 -41 28 2 13 3 34 4 46 0 18 5 21 34 19 24 -2 34 1
37 13 3 13 5 12 12 -4 5 -11 12 -22 15 -25 4 -3 15 -36 24 -75 10 -38 28 -91
41 -118 l24 -47 -42 -27 c-23 -15 -71 -38 -107 -52 -36 -14 -68 -28 -70 -31
-3 -3 10 -24 28 -45 l32 -40 54 29 c29 16 77 45 107 66 l54 37 60 -45 c33 -24
72 -50 87 -58 26 -13 27 -13 52 32 14 26 26 50 26 54 0 4 -19 12 -42 19 -49
15 -120 52 -115 60 27 47 78 171 91 221 10 36 20 73 22 82 5 16 -5 17 -126 12
-75 -2 -138 0 -149 5 -23 13 -59 3 -64 -18 -4 -13 -6 -11 -12 7 -7 21 -21 27
-59 24 -13 -2 -16 2 -12 14 19 50 18 63 -6 69 -13 3 -36 1 -52 -5 -24 -9 -28
-15 -24 -43 3 -30 2 -32 -30 -32 -28 0 -32 3 -27 20 17 61 17 65 4 65 -11 0
-11 3 1 10 8 5 52 10 97 10 73 0 82 2 88 20 3 11 3 25 -1 31 -9 15 -9 99 1
128 14 44 0 56 -61 54 -30 0 -58 -4 -61 -7 -10 -10 -61 -7 -68 4 -3 5 -29 9
-58 8 -29 0 -72 2 -97 5 -25 3 -53 3 -63 0z m305 -128 l3 -40 -115 0 -115 0 0
40 0 40 112 0 111 0 4 -40z m-144 -132 c-17 -4 -35 -63 -25 -80 3 -4 -8 -8
-24 -9 -28 -1 -29 0 -29 50 l0 51 48 -4 c26 -3 39 -6 30 -8z m-20 -187 c1 -12
2 -32 4 -46 3 -23 0 -25 -39 -26 l-41 -1 3 38 c5 51 9 56 43 56 23 0 30 -5 30
-21z m140 0 c1 -11 2 -32 4 -46 3 -23 0 -25 -37 -25 -37 0 -40 2 -37 25 2 14
3 34 4 46 0 16 7 20 33 21 27 1 33 -3 33 -21z m379 16 c17 -11 8 -56 -29 -144
-11 -27 -24 -48 -28 -48 -13 0 -40 78 -45 126 -2 24 -7 49 -11 55 -4 7 0 9 12
5 11 -3 26 -1 34 4 18 12 50 13 67 2z"/>
<path d="M622 970 c-21 -9 -23 -15 -21 -92 2 -46 0 -92 -3 -103 -4 -11 -7 -23
-7 -27 -1 -4 -15 -23 -31 -42 l-30 -34 42 -22 42 -22 23 26 c28 32 56 125 57
186 1 45 1 45 36 45 l35 0 0 -91 c0 -103 6 -114 64 -134 64 -21 111 -1 117 50
2 17 6 35 9 40 3 5 -16 8 -41 8 -25 0 -48 3 -51 5 -3 3 -5 50 -5 105 l0 99
-82 7 c-102 8 -125 7 -154 -4z"/>
<path d="M255 318 c-17 -27 -49 -68 -73 -90 -24 -22 -42 -41 -40 -42 12 -9 80
-46 83 -46 3 0 30 34 61 75 31 41 64 77 75 80 30 10 23 23 -29 49 l-47 24 -30
-50z"/>
<path d="M431 339 l-33 -20 35 -38 c19 -21 39 -46 44 -56 9 -16 13 -16 46 6
20 13 37 27 37 30 0 12 -41 58 -69 78 -27 20 -28 20 -60 0z"/>
</g>
</svg>
