<?xml version="1.0" standalone="no"?>
<!DOCTYPE svg PUBLIC "-//W3C//DTD SVG 20010904//EN"
 "http://www.w3.org/TR/2001/REC-SVG-20010904/DTD/svg10.dtd">
<svg version="1.0" xmlns="http://www.w3.org/2000/svg"
 width="101.000000pt" height="101.000000pt" viewBox="0 0 101.000000 101.000000"
 preserveAspectRatio="xMidYMid meet">
<metadata>
Created by potrace 1.16, written by Peter Selinger 2001-2019
</metadata>
<g transform="translate(0.000000,101.000000) scale(0.100000,-0.100000)"
fill="#000000" stroke="none">
<path d="M220 970 c-2 -8 -4 -24 -7 -35 -10 -53 -12 -124 -3 -130 16 -10 12
-61 -6 -76 -10 -8 -14 -24 -12 -43 l3 -31 -55 2 c-96 4 -119 -11 -104 -71 6
-25 44 -39 44 -16 0 6 22 10 49 10 40 0 50 -3 54 -20 3 -11 1 -23 -4 -26 -5
-3 -9 -22 -9 -42 0 -20 -2 -55 -4 -77 -10 -77 -16 -120 -21 -136 -7 -20 30
-32 54 -19 16 8 147 6 246 -4 28 -3 62 0 77 6 38 14 158 1 158 -17 0 -31 -31
-46 -86 -41 -30 2 -54 1 -54 -2 0 -22 47 -102 63 -106 20 -5 92 18 118 37 23
18 60 93 53 110 -6 16 7 18 107 17 53 0 57 2 62 26 10 52 0 63 -57 63 -28 0
-63 1 -79 2 l-27 1 7 57 c4 31 7 79 7 106 l1 50 79 -3 c55 -1 82 2 88 10 11
17 10 66 -1 72 -5 3 -42 7 -82 8 l-74 3 0 95 c0 52 3 100 7 106 5 7 8 23 8 35
0 13 1 35 1 48 0 13 -1 25 -3 27 -2 1 -56 6 -121 10 -85 5 -117 4 -117 -5 0
-7 -27 -11 -80 -11 -47 0 -80 4 -80 10 0 6 -18 10 -40 10 -22 0 -40 -4 -40
-10 0 -15 -107 -13 -113 3 -4 8 -6 8 -7 -3z m240 -81 c0 -8 37 -9 133 -4 l133
7 -3 -34 c-3 -18 -5 -70 -6 -116 -2 -60 -7 -86 -17 -92 -20 -13 -117 -13 -125
0 -7 12 -113 11 -121 -1 -7 -13 -48 -11 -61 2 -6 6 -33 9 -60 8 l-48 -4 4 45
c2 25 5 70 6 100 2 30 4 61 4 68 1 8 17 12 46 12 25 0 45 5 45 10 0 6 16 10
35 10 19 0 35 -5 35 -11z m244 -347 c0 -16 -4 -34 -9 -41 -4 -7 -5 -38 -1 -69
9 -89 37 -82 -294 -83 -58 0 -114 1 -125 2 -21 2 -21 -4 -10 134 2 22 4 48 4
57 1 16 17 18 149 21 81 1 179 4 217 5 l70 2 -1 -28z"/>
<path d="M448 831 c-21 -9 -38 -19 -38 -23 0 -4 14 -29 30 -55 17 -26 30 -53
30 -59 0 -7 4 -15 9 -18 10 -7 101 25 101 35 0 13 -76 133 -86 135 -5 1 -26
-5 -46 -15z"/>
<path d="M444 524 l-42 -15 35 -67 c19 -37 36 -69 38 -71 6 -6 105 30 105 39
0 4 -6 12 -13 18 -7 6 -24 33 -37 61 -28 56 -27 56 -86 35z"/>
</g>
</svg>
