<?xml version="1.0" standalone="no"?>
<!DOCTYPE svg PUBLIC "-//W3C//DTD SVG 20010904//EN"
 "http://www.w3.org/TR/2001/REC-SVG-20010904/DTD/svg10.dtd">
<svg version="1.0" xmlns="http://www.w3.org/2000/svg"
 width="101.000000pt" height="102.000000pt" viewBox="0 0 101.000000 102.000000"
 preserveAspectRatio="xMidYMid meet">
<metadata>
Created by potrace 1.16, written by Peter Selinger 2001-2019
</metadata>
<g transform="translate(0.000000,102.000000) scale(0.100000,-0.100000)"
fill="#000000" stroke="none">
<path d="M261 972 c-39 -79 -93 -154 -159 -218 l-62 -62 27 -7 c16 -3 36 -14
46 -23 18 -16 21 -14 60 32 l42 48 -4 -74 c-2 -40 -4 -82 -5 -93 -1 -18 -7
-20 -78 -18 l-77 1 -6 -29 c-4 -16 -4 -37 0 -48 8 -26 67 -38 110 -22 17 6 34
11 36 11 8 0 -5 -165 -15 -197 -13 -42 16 -52 104 -38 25 4 90 7 145 6 55 0
139 -1 188 -1 68 -1 87 -4 87 -15 0 -19 -35 -37 -68 -34 -62 5 -62 4 -39 -50
24 -57 40 -64 99 -44 55 18 96 58 104 98 5 29 8 31 51 33 25 1 48 4 50 6 7 7
8 74 1 81 -3 3 -25 6 -49 7 -44 2 -45 3 -41 33 3 16 5 48 6 70 l1 40 67 -2
c59 -2 67 0 73 17 4 11 4 33 0 49 -6 28 -8 28 -72 30 -37 1 -68 3 -69 4 -2 2
1 44 6 94 5 51 7 98 4 106 -7 18 -216 35 -222 18 -5 -14 -52 -15 -52 -1 0 6
-30 10 -70 10 -40 0 -70 -4 -70 -10 0 -5 -16 -10 -35 -10 -19 0 -35 5 -35 10
0 6 -18 10 -40 10 -44 0 -45 2 -28 29 7 11 19 16 30 13 10 -2 24 0 31 6 16 14
174 14 182 1 8 -12 142 -12 150 1 8 13 52 13 60 0 3 -5 43 -9 90 -8 l83 2 6
32 c11 56 1 65 -58 57 -28 -5 -94 -7 -146 -6 -52 1 -155 4 -228 5 l-133 3 32
26 c37 30 33 43 -13 54 -73 16 -74 16 -97 -33z m179 -281 l35 -1 -30 -24 -30
-24 44 -39 c27 -24 42 -44 37 -51 -9 -15 -136 -16 -136 -2 0 6 -11 10 -24 10
-27 0 -39 27 -24 54 6 10 8 32 6 50 l-3 31 45 -1 c25 -1 61 -3 80 -3z m272
-34 c-2 -23 -4 -55 -5 -72 -1 -16 -9 -33 -17 -37 -21 -9 -160 -10 -160 0 0 4
14 16 30 26 l31 17 -27 32 c-15 18 -35 38 -45 45 -11 7 -19 16 -19 20 0 4 48
8 108 9 l107 3 -3 -43z m-272 -197 c10 0 5 -9 -15 -26 l-30 -24 50 -44 49 -43
-29 -6 c-17 -3 -55 -4 -85 -2 -30 3 -66 5 -78 6 -20 1 -23 5 -17 23 4 11 10
44 12 71 l5 50 61 -2 c34 -1 69 -2 77 -3z m262 -64 c3 -39 4 -72 3 -73 -1 -3
-119 -4 -159 -2 l-29 1 27 22 28 22 -50 46 c-58 54 -60 53 79 54 l97 1 4 -71z"/>
</g>
</svg>
