<?xml version="1.0" standalone="no"?>
<!DOCTYPE svg PUBLIC "-//W3C//DTD SVG 20010904//EN"
 "http://www.w3.org/TR/2001/REC-SVG-20010904/DTD/svg10.dtd">
<svg version="1.0" xmlns="http://www.w3.org/2000/svg"
 width="101.000000pt" height="101.000000pt" viewBox="0 0 101.000000 101.000000"
 preserveAspectRatio="xMidYMid meet">
<metadata>
Created by potrace 1.16, written by Peter Selinger 2001-2019
</metadata>
<g transform="translate(0.000000,101.000000) scale(0.100000,-0.100000)"
fill="#000000" stroke="none">
<path d="M718 1003 c-15 -4 -18 -16 -18 -74 0 -39 4 -69 10 -69 6 0 10 -16 10
-35 0 -19 -4 -35 -10 -35 -5 0 -11 -28 -11 -62 -1 -35 -3 -56 -6 -46 -5 19
-30 31 -46 21 -6 -4 -21 -7 -33 -8 -22 -1 -22 1 -18 120 2 66 7 129 10 141 5
18 0 22 -34 28 -69 11 -69 10 -71 -139 -1 -80 3 -136 9 -140 13 -8 13 -52 0
-60 -13 -8 -12 -213 1 -221 15 -9 1 -183 -17 -211 -19 -30 -18 -33 16 -71 l30
-32 64 54 c36 30 73 59 83 65 17 8 19 6 20 -23 2 -66 50 -109 94 -85 12 6 37
8 59 4 56 -9 76 0 98 48 30 64 36 87 20 87 -7 0 -30 11 -51 25 -24 17 -37 21
-38 13 -3 -62 -18 -84 -56 -83 -27 0 -28 2 -35 70 -4 39 -5 106 -3 150 3 44 6
90 6 102 1 24 85 108 140 140 16 9 29 20 29 24 0 9 -68 69 -78 69 -4 -1 -23
-21 -42 -45 -19 -25 -38 -45 -41 -45 -18 0 -26 215 -9 225 6 4 10 17 8 28 -1
12 1 28 6 35 10 17 4 23 -26 27 -12 1 -30 5 -38 8 -8 2 -23 3 -32 0z m2 -378
c0 -14 -4 -25 -10 -25 -6 0 -10 -40 -10 -100 0 -60 4 -100 10 -100 11 0 12
-68 1 -115 l-7 -30 -14 37 -13 37 -41 -35 -41 -35 -8 78 c-5 51 -4 85 3 98 6
11 9 55 8 98 l-3 77 40 1 c22 1 43 1 47 0 4 0 10 8 13 19 9 28 25 25 25 -5z"/>
<path d="M58 913 c0 -10 0 -25 1 -33 1 -8 2 -52 1 -97 0 -46 4 -84 10 -88 12
-8 13 -52 1 -59 -13 -8 -12 -114 1 -122 12 -8 2 -273 -12 -309 -15 -38 5 -50
73 -47 28 2 29 3 24 51 -5 44 -3 49 16 50 12 1 47 3 77 6 30 2 70 2 88 -1 31
-5 33 -8 27 -33 -7 -32 10 -41 62 -34 35 5 47 31 33 67 -14 37 -24 284 -12
299 13 15 14 115 1 123 -12 7 -11 51 1 59 6 4 11 35 11 68 -1 34 -1 70 0 81 0
10 -3 21 -6 25 -6 5 -108 6 -145 1 -8 -1 -68 1 -132 4 -108 6 -118 5 -120 -11z
m182 -138 c0 -33 -3 -76 -6 -95 -6 -34 -8 -35 -47 -35 l-42 0 -3 68 c-2 42 1
67 8 67 5 0 10 12 10 28 0 25 3 27 40 27 l40 1 0 -61z m125 -33 l0 -97 -34 -1
c-33 -1 -33 0 -27 35 3 20 6 62 6 93 0 51 2 57 23 61 12 2 24 5 27 6 3 0 5
-43 5 -97z m-2 -224 c0 -29 3 -58 8 -65 6 -6 7 -33 3 -61 -6 -49 -7 -50 -40
-49 -30 1 -34 5 -39 31 -2 17 -2 56 0 86 3 30 5 65 6 77 1 17 9 23 33 26 17 2
31 5 31 5 0 1 -1 -22 -2 -50z m-134 17 c1 -11 3 -45 6 -75 2 -30 2 -69 -1 -87
-4 -30 -7 -32 -44 -30 -36 1 -40 4 -45 32 -2 16 -2 55 0 85 3 30 5 64 6 75 1
17 8 21 39 20 30 0 38 -4 39 -20z"/>
</g>
</svg>
