<?xml version="1.0" standalone="no"?>
<!DOCTYPE svg PUBLIC "-//W3C//DTD SVG 20010904//EN"
 "http://www.w3.org/TR/2001/REC-SVG-20010904/DTD/svg10.dtd">
<svg version="1.0" xmlns="http://www.w3.org/2000/svg"
 width="101.000000pt" height="101.000000pt" viewBox="0 0 101.000000 101.000000"
 preserveAspectRatio="xMidYMid meet">
<metadata>
Created by potrace 1.16, written by Peter Selinger 2001-2019
</metadata>
<g transform="translate(0.000000,101.000000) scale(0.100000,-0.100000)"
fill="#000000" stroke="none">
<path d="M458 998 l-28 -10 19 -36 19 -37 -69 3 c-45 2 -69 0 -69 -7 0 -14
-67 -15 -72 -1 -1 5 -38 10 -81 12 -80 3 -97 -4 -97 -42 0 -42 12 -45 182 -43
90 2 204 2 253 2 409 -1 402 -2 389 51 -7 33 -9 34 -47 33 -17 -1 -92 -3 -165
-4 l-133 -4 -10 40 c-15 56 -33 65 -91 43z"/>
<path d="M235 803 c-9 -9 -13 -22 -9 -32 10 -25 10 -65 1 -78 -5 -7 -6 -20 -3
-30 5 -16 16 -18 86 -15 52 2 80 0 80 -7 0 -7 27 -11 70 -11 40 0 70 4 70 10
0 6 20 10 45 10 25 0 45 -4 45 -10 0 -11 61 -13 107 -4 l29 6 2 83 c2 72 0 84
-15 89 -28 8 -112 5 -118 -4 -7 -11 -153 -12 -160 0 -3 5 -53 9 -110 9 -82 0
-108 -3 -120 -16z m441 -78 c-1 -20 -7 -23 -66 -29 -97 -9 -168 -7 -175 4 -4
6 -32 9 -63 8 -51 -3 -57 -1 -57 17 0 19 7 20 181 22 l182 1 -2 -23z"/>
<path d="M86 611 c-3 -5 -5 -45 -5 -89 1 -88 5 -94 66 -85 30 5 31 7 29 52
l-2 46 251 1 c137 1 241 -2 230 -6 -11 -4 -24 -5 -28 -3 -4 3 -16 1 -25 -3 -9
-4 -27 -6 -40 -5 -13 2 -34 -5 -47 -13 -29 -19 -121 -22 -129 -3 -5 10 -7 10
-12 0 -7 -15 -74 -18 -74 -3 0 12 -77 13 -84 1 -3 -5 1 -25 9 -45 15 -34 16
-35 58 -30 23 3 63 6 89 8 40 2 46 0 45 -16 -1 -14 -8 -18 -27 -16 -14 1 -50
-4 -81 -11 -41 -10 -61 -11 -76 -3 -23 13 -63 5 -63 -12 0 -6 3 -21 6 -33 6
-21 11 -22 53 -18 25 3 78 8 118 10 66 4 72 2 70 -15 -1 -15 -8 -19 -32 -19
-16 1 -61 -4 -100 -10 -38 -6 -76 -9 -85 -5 -8 3 -30 8 -47 9 -35 4 -37 -1
-27 -53 6 -28 9 -30 43 -25 20 2 59 5 86 6 28 2 56 6 63 10 20 13 104 -3 98
-19 -3 -7 1 -30 8 -50 10 -30 21 -40 50 -51 26 -9 44 -10 57 -3 10 6 69 8 141
6 153 -6 190 3 222 52 37 57 36 67 -14 101 -24 16 -46 29 -47 28 -1 -2 -5 -18
-8 -37 -8 -46 -27 -65 -78 -79 -42 -11 -181 -7 -237 8 -3 0 -6 12 -6 25 -1 18
3 24 20 24 11 0 41 3 66 7 25 4 85 8 133 8 l89 0 -6 30 c-3 16 -6 33 -6 38 0
11 -59 6 -144 -11 -42 -8 -66 -9 -83 -1 -14 7 -32 7 -47 2 -20 -8 -23 -7 -22
12 1 25 9 27 151 29 96 2 110 10 98 56 -6 23 -44 24 -105 2 -29 -11 -43 -11
-62 -2 -18 8 -34 8 -52 2 -14 -6 -26 -10 -28 -10 -9 0 -2 40 7 40 52 1 177 11
200 16 27 6 36 27 17 39 -5 3 -14 14 -19 23 -8 15 -2 17 49 17 l57 0 -4 -35
c-2 -19 1 -42 6 -50 12 -18 80 -17 93 2 10 14 6 143 -4 153 -3 4 -103 9 -222
12 -160 5 -216 3 -216 -5 0 -7 -18 -12 -45 -12 -25 0 -45 5 -45 10 0 13 -287
14 -294 1z"/>
</g>
</svg>
