<?xml version="1.0" standalone="no"?>
<!DOCTYPE svg PUBLIC "-//W3C//DTD SVG 20010904//EN"
 "http://www.w3.org/TR/2001/REC-SVG-20010904/DTD/svg10.dtd">
<svg version="1.0" xmlns="http://www.w3.org/2000/svg"
 width="101.000000pt" height="101.000000pt" viewBox="0 0 101.000000 101.000000"
 preserveAspectRatio="xMidYMid meet">
<metadata>
Created by potrace 1.16, written by Peter Selinger 2001-2019
</metadata>
<g transform="translate(0.000000,101.000000) scale(0.100000,-0.100000)"
fill="#000000" stroke="none">
<path d="M591 972 c-49 -95 -126 -177 -156 -166 -6 3 -17 -1 -23 -9 -9 -10 -6
-23 9 -55 18 -36 24 -41 45 -36 31 8 30 2 -11 -70 -60 -105 -83 -126 -140
-131 l-50 -3 3 61 3 62 47 -3 c58 -3 82 9 63 32 -7 9 -11 25 -8 35 6 23 -17
35 -40 23 -8 -5 -26 -7 -39 -4 -22 4 -24 9 -24 62 0 32 -2 65 -5 73 -5 10 1
13 23 9 16 -2 43 3 59 12 17 8 33 13 36 9 9 -8 57 6 57 16 0 5 -12 24 -27 41
-23 28 -30 31 -61 25 -19 -3 -46 -11 -61 -18 -26 -11 -50 -14 -166 -19 -80 -4
-91 -12 -65 -45 11 -14 20 -31 20 -38 0 -13 35 -13 75 -1 19 6 20 2 21 -66 l1
-73 -36 3 c-53 5 -91 -12 -91 -42 0 -14 7 -32 16 -41 16 -16 28 -16 64 -1 26
10 37 -7 44 -66 8 -64 14 -58 -64 -64 -14 -1 -33 -2 -42 -3 -21 -1 -27 -29
-14 -59 9 -21 14 -22 67 -18 65 6 58 21 62 -130 3 -98 11 -118 57 -136 24 -9
112 -19 155 -18 11 1 112 2 225 3 244 2 269 8 299 71 26 53 27 76 2 76 -10 0
-30 10 -45 21 -32 25 -35 23 -41 -21 -7 -57 -23 -65 -143 -68 -176 -5 -305 -4
-342 2 -19 4 -43 7 -53 7 -31 0 -44 69 -36 190 1 28 2 28 80 31 35 2 36 2 33
40 -4 44 -5 43 43 23 34 -14 37 -14 51 6 8 11 20 18 28 15 8 -3 25 -1 38 6 14
6 35 8 48 5 20 -5 24 -13 26 -51 1 -44 1 -44 -38 -51 -22 -4 -45 -3 -51 1 -22
13 -116 21 -126 10 -8 -8 -8 -64 0 -72 6 -6 21 -6 107 1 30 2 67 2 83 -1 24
-5 26 -9 20 -37 -7 -37 -6 -87 2 -95 7 -8 85 -5 93 3 3 3 0 16 -7 29 -10 17
-10 29 -2 44 6 11 8 27 5 35 -6 17 5 19 117 17 69 -1 77 1 82 19 3 12 3 30 0
42 -5 19 -10 20 -47 13 -37 -7 -63 -7 -133 -3 -20 1 -22 6 -21 44 2 48 -1 47
114 45 64 -1 72 1 77 20 3 11 3 29 0 40 -4 15 -11 18 -34 13 -16 -3 -35 -1
-41 5 -7 6 -36 9 -63 9 l-50 -2 2 47 c1 43 -1 49 -22 54 -12 3 -34 4 -46 2
-22 -3 -24 -8 -24 -53 l0 -50 -37 0 c-39 -1 -39 4 -5 42 23 26 17 39 -23 48
-50 11 -41 20 21 21 32 1 103 3 156 4 89 2 98 1 111 -19 18 -27 25 -26 68 2
l34 24 -72 79 c-39 43 -79 80 -87 81 -9 2 -27 -6 -41 -16 l-25 -20 27 -28 27
-28 -104 0 -104 0 22 25 c12 14 46 51 76 82 59 62 59 67 -2 92 l-37 15 -19
-37z"/>
</g>
</svg>
