<?xml version="1.0" standalone="no"?>
<!DOCTYPE svg PUBLIC "-//W3C//DTD SVG 20010904//EN"
 "http://www.w3.org/TR/2001/REC-SVG-20010904/DTD/svg10.dtd">
<svg version="1.0" xmlns="http://www.w3.org/2000/svg"
 width="101.000000pt" height="101.000000pt" viewBox="0 0 101.000000 101.000000"
 preserveAspectRatio="xMidYMid meet">
<metadata>
Created by potrace 1.16, written by Peter Selinger 2001-2019
</metadata>
<g transform="translate(0.000000,101.000000) scale(0.100000,-0.100000)"
fill="#000000" stroke="none">
<path d="M770 993 c-8 -3 -22 -7 -30 -11 -8 -3 -31 -7 -50 -9 -73 -5 -138 -13
-209 -24 -57 -9 -76 -10 -79 -1 -4 13 -84 17 -95 5 -13 -13 -128 -15 -142 -3
-8 7 -26 9 -39 6 l-25 -6 17 -40 c19 -46 40 -55 104 -46 24 3 81 7 128 8 78 3
86 1 86 -16 0 -16 -6 -17 -56 -12 -39 4 -63 2 -84 -9 -33 -17 -96 -20 -96 -4
0 6 -14 9 -32 7 -29 -3 -31 -6 -32 -43 l-1 -40 40 1 c101 4 248 15 256 20 5 3
9 -1 9 -10 0 -8 -12 -17 -27 -20 -79 -15 -103 -17 -120 -7 -14 7 -34 5 -73 -6
-41 -12 -61 -13 -82 -5 -15 5 -36 8 -47 5 -17 -4 -20 -20 -12 -76 1 -7 95 -2
176 10 17 2 65 5 107 6 63 2 77 -1 76 -13 -4 -53 3 -68 33 -79 21 -7 37 -7 50
-1 11 6 73 8 158 5 151 -5 181 0 206 39 16 24 16 26 -10 49 l-27 23 37 1 c42
1 56 16 53 53 -3 25 -4 25 -88 23 -112 -4 -245 -10 -298 -14 -24 -3 -42 0 -42
6 0 6 8 11 18 12 42 3 289 14 304 14 23 0 29 24 15 58 -11 25 -16 28 -47 25
-19 -2 -66 -6 -105 -8 -38 -2 -95 -5 -126 -7 -42 -3 -55 -1 -52 9 3 6 10 12
17 13 6 0 34 2 61 3 101 5 240 17 244 22 6 6 -28 71 -43 83 -6 4 -18 6 -26 4z
m59 -315 c-5 -10 -13 -18 -17 -19 -18 -2 -44 -8 -74 -18 -28 -9 -102 -9 -198
1 -33 4 -40 36 -8 36 33 0 98 9 103 13 2 3 49 5 104 5 93 0 99 -1 90 -18z"/>
<path d="M379 596 c-7 -7 -71 -17 -127 -21 -29 -2 -59 -9 -67 -15 -9 -8 -25
-9 -42 -5 -39 11 -95 15 -90 7 2 -4 10 -22 18 -40 l14 -33 61 6 c60 5 62 4 60
-18 0 -13 -5 -24 -11 -25 -8 -2 -63 -7 -112 -11 -9 -1 -11 -12 -9 -33 3 -18 5
-36 5 -41 1 -8 106 -1 121 8 5 3 8 -3 7 -13 -1 -20 -1 -20 -144 -31 -9 -1 -11
-12 -9 -33 3 -18 5 -37 5 -41 1 -9 106 -2 133 8 23 9 19 -60 -5 -77 -17 -13
-17 -16 -2 -52 9 -22 21 -36 28 -33 7 3 48 22 92 41 44 20 87 36 96 36 19 0
30 30 22 60 -6 24 -10 24 -54 6 -72 -29 -76 -29 -76 3 0 22 5 29 21 30 20 2
87 7 112 10 18 2 24 28 14 56 -8 22 -14 24 -47 19 -93 -14 -104 -13 -101 4 3
17 23 22 100 25 30 1 37 5 41 25 9 48 -2 62 -42 56 -91 -14 -96 -13 -97 11 -1
17 4 23 20 23 36 0 119 12 125 17 8 9 -31 75 -44 75 -6 0 -14 -2 -16 -4z"/>
<path d="M839 576 c-2 -2 -22 -7 -43 -10 -22 -4 -46 -12 -53 -18 -10 -8 -20
-8 -38 0 -20 9 -34 8 -65 -4 -23 -10 -50 -13 -63 -9 -12 3 -44 9 -71 11 -44 4
-48 3 -41 -13 4 -10 10 -28 12 -40 5 -22 20 -29 53 -24 73 11 88 9 86 -13 -1
-25 -1 -25 -71 -30 -27 -2 -55 -5 -61 -5 -17 -1 -23 -35 -10 -57 11 -20 17
-20 104 -10 45 6 57 -9 26 -35 -12 -10 -22 -10 -45 -2 -57 22 -120 -17 -102
-63 5 -14 33 -14 133 0 24 4 26 1 28 -42 2 -53 27 -85 63 -82 13 1 56 1 95 0
87 -1 118 10 144 52 11 18 20 35 20 38 0 12 -84 52 -88 42 -11 -33 -40 -52
-83 -56 -54 -5 -71 3 -75 37 -2 20 2 25 19 25 12 0 40 3 62 7 22 3 66 7 98 9
37 2 62 8 68 17 16 26 -12 76 -34 62 -9 -5 -39 -9 -132 -17 -22 -2 -49 -6 -60
-10 -16 -4 -21 -1 -22 13 -1 12 5 20 15 20 9 0 33 3 52 6 19 4 52 7 73 9 40 3
61 21 52 44 -3 8 -5 18 -5 23 0 6 -23 7 -57 4 -127 -14 -129 -14 -130 5 -1 12
6 18 20 18 12 0 40 3 62 7 22 4 57 8 78 8 42 1 43 3 20 52 -16 33 -24 41 -34
31z"/>
</g>
</svg>
