<?xml version="1.0" standalone="no"?>
<!DOCTYPE svg PUBLIC "-//W3C//DTD SVG 20010904//EN"
 "http://www.w3.org/TR/2001/REC-SVG-20010904/DTD/svg10.dtd">
<svg version="1.0" xmlns="http://www.w3.org/2000/svg"
 width="101.000000pt" height="101.000000pt" viewBox="0 0 101.000000 101.000000"
 preserveAspectRatio="xMidYMid meet">
<metadata>
Created by potrace 1.16, written by Peter Selinger 2001-2019
</metadata>
<g transform="translate(0.000000,101.000000) scale(0.100000,-0.100000)"
fill="#000000" stroke="none">
<path d="M257 988 c-4 -13 -3 -48 2 -78 l7 -56 -28 4 c-26 4 -28 6 -14 21 14
15 14 19 1 39 -9 11 -28 30 -43 40 -27 20 -27 20 -56 -3 l-29 -23 42 -37 c43
-39 48 -55 11 -35 -12 6 -32 9 -44 6 -22 -5 -23 -8 -23 -165 0 -174 0 -175 60
-164 30 6 37 37 37 161 l0 82 33 0 c19 0 81 3 138 6 l104 7 -2 -89 c-2 -84 -3
-88 -25 -91 -22 -3 -23 0 -20 37 2 22 1 55 -2 73 l-6 32 -100 1 c-99 2 -100 1
-106 -23 -6 -24 2 -133 11 -141 2 -2 14 -3 27 -3 13 1 58 3 101 4 l77 2 11
-32 c6 -18 16 -33 23 -33 33 0 74 23 86 48 11 26 12 26 26 7 8 -10 14 -25 14
-32 0 -7 5 -13 12 -13 28 0 -5 -13 -39 -15 -21 -2 -65 -9 -97 -15 -42 -8 -66
-9 -83 -1 -13 6 -33 7 -45 3 -25 -8 -86 -8 -161 2 l-48 6 20 -39 c21 -40 52
-56 80 -42 18 10 123 13 163 5 29 -6 36 -39 9 -41 -9 -1 -49 -6 -88 -13 -49
-7 -79 -8 -91 -1 -41 22 -77 -11 -65 -59 5 -18 11 -20 57 -15 28 4 86 8 128 9
73 3 77 2 74 -18 -2 -17 -13 -22 -57 -29 -33 -5 -63 -4 -76 2 -15 7 -32 7 -48
1 -14 -5 -44 -8 -68 -5 -23 3 -49 6 -57 6 -48 6 -63 -13 -53 -65 5 -26 7 -26
57 -21 79 9 154 15 232 18 l70 3 1 -33 c1 -19 8 -44 16 -56 19 -29 83 -50 108
-36 11 5 74 7 150 4 144 -5 185 4 212 47 30 46 26 59 -23 74 -24 7 -45 12 -46
11 -1 -1 -6 -11 -12 -23 -21 -39 -112 -50 -270 -31 -47 5 -73 45 -29 45 12 0
42 3 67 6 47 8 209 16 297 17 57 0 69 12 53 54 -9 23 -13 24 -72 20 -35 -2
-90 -9 -122 -15 -43 -9 -66 -9 -83 -1 -19 9 -32 8 -58 -5 -25 -12 -38 -13 -53
-5 -12 6 -27 9 -34 6 -9 -4 -14 2 -15 15 -1 11 1 21 5 21 45 9 86 11 190 12
l123 0 -5 36 c-3 20 -5 39 -6 42 0 9 -81 2 -133 -11 -37 -10 -54 -10 -73 -1
-14 6 -29 9 -33 7 -4 -3 -21 -7 -37 -10 -25 -5 -29 -2 -30 18 -1 18 4 24 20
24 11 1 35 3 51 5 58 9 160 20 188 21 33 0 35 17 6 58 -18 24 -26 28 -48 23
-106 -27 -119 -22 -45 19 l60 34 80 -39 c43 -21 84 -39 89 -39 6 1 24 20 42
44 l32 44 -32 7 c-18 4 -39 9 -47 10 -39 8 -60 14 -79 25 -21 11 -21 11 9 70
17 33 30 66 30 74 0 12 11 15 46 14 51 -3 68 12 58 52 -7 31 -23 42 -49 34
-20 -5 -215 -11 -215 -6 0 1 9 20 20 42 11 22 20 41 20 44 0 6 -32 18 -65 23
-30 4 -32 2 -43 -44 -7 -26 -23 -70 -36 -98 -20 -45 -24 -48 -30 -27 -7 21
-18 27 -41 22 -5 -1 -25 -3 -44 -4 l-33 -1 47 43 c45 41 47 43 29 57 -39 30
-51 27 -98 -19 -43 -44 -44 -46 -25 -57 24 -12 23 -14 -13 -23 -28 -6 -28 -6
-24 42 3 26 7 59 11 74 7 26 6 26 -34 21 -27 -4 -41 -2 -41 6 0 20 -18 12 -23
-11z m498 -190 c-4 -13 -15 -36 -25 -51 l-17 -29 -32 43 c-17 24 -31 45 -31
48 0 4 25 7 56 9 54 2 55 2 49 -20z m-122 -97 l26 -39 -27 -11 c-15 -6 -40
-15 -57 -20 l-30 -8 0 53 c0 43 2 50 13 41 11 -8 16 -7 23 6 15 25 24 21 52
-22z m-308 -28 c0 -24 -4 -28 -31 -29 -26 0 -30 3 -26 22 3 15 13 24 31 27 14
2 26 5 26 6 0 0 0 -11 0 -26z"/>
</g>
</svg>
