<?xml version="1.0" standalone="no"?>
<!DOCTYPE svg PUBLIC "-//W3C//DTD SVG 20010904//EN"
 "http://www.w3.org/TR/2001/REC-SVG-20010904/DTD/svg10.dtd">
<svg version="1.0" xmlns="http://www.w3.org/2000/svg"
 width="101.000000pt" height="102.000000pt" viewBox="0 0 101.000000 102.000000"
 preserveAspectRatio="xMidYMid meet">
<metadata>
Created by potrace 1.16, written by Peter Selinger 2001-2019
</metadata>
<g transform="translate(0.000000,102.000000) scale(0.100000,-0.100000)"
fill="#000000" stroke="none">
<path d="M260 956 c-41 -87 -111 -178 -176 -229 -30 -23 -54 -44 -54 -47 1 -3
19 -17 40 -32 33 -23 40 -34 40 -60 0 -58 9 -62 121 -65 56 -1 111 3 121 8 12
7 80 8 186 3 l167 -7 0 -61 c0 -129 13 -204 47 -273 68 -138 154 -144 198 -13
l18 54 -41 37 -42 37 -8 -27 c-4 -14 -10 -34 -12 -45 -2 -10 -6 -21 -9 -23 -8
-8 -35 53 -43 94 -10 51 -10 244 -1 265 5 9 6 23 3 30 -6 14 -14 15 -285 17
-41 1 -91 1 -110 1 -19 1 -92 2 -163 3 -70 1 -127 4 -127 7 1 3 26 32 56 65
37 40 54 52 49 38 -14 -50 0 -61 80 -62 40 -1 77 3 80 9 7 12 153 12 160 0 3
-5 64 -8 135 -7 116 2 131 4 136 20 16 50 -28 92 -73 69 -18 -9 -396 -6 -465
5 -36 5 -37 6 -21 27 13 17 25 21 61 19 25 -2 50 1 57 7 15 13 173 11 181 -2
5 -7 48 -8 134 -3 91 5 134 3 150 -5 47 -25 88 9 75 63 -6 22 -11 24 -68 25
-34 1 -78 2 -97 2 -19 1 -80 -4 -134 -11 -76 -10 -101 -10 -104 -1 -4 14 -82
16 -82 2 0 -5 -25 -10 -55 -10 -30 0 -55 4 -55 9 0 5 18 27 40 49 l41 40 -56
21 c-31 12 -58 21 -60 21 -2 0 -18 -29 -35 -64z"/>
<path d="M369 523 c0 -5 0 -30 1 -56 1 -33 -4 -55 -15 -67 -9 -10 -15 -25 -12
-32 2 -7 -7 -34 -21 -60 -32 -61 -104 -109 -186 -122 -47 -8 -47 -19 0 -60
l45 -38 66 32 c128 63 203 170 208 300 1 25 5 55 9 67 6 19 2 23 -31 32 -45
13 -63 14 -64 4z"/>
</g>
</svg>
