<?xml version="1.0" standalone="no"?>
<!DOCTYPE svg PUBLIC "-//W3C//DTD SVG 20010904//EN"
 "http://www.w3.org/TR/2001/REC-SVG-20010904/DTD/svg10.dtd">
<svg version="1.0" xmlns="http://www.w3.org/2000/svg"
 width="101.000000pt" height="101.000000pt" viewBox="0 0 101.000000 101.000000"
 preserveAspectRatio="xMidYMid meet">
<metadata>
Created by potrace 1.16, written by Peter Selinger 2001-2019
</metadata>
<g transform="translate(0.000000,101.000000) scale(0.100000,-0.100000)"
fill="#000000" stroke="none">
<path d="M298 1003 c-9 -3 -31 -26 -48 -52 -36 -58 -132 -151 -180 -176 -31
-16 -32 -18 -14 -28 10 -5 29 -19 41 -30 l22 -20 46 41 c47 44 61 51 51 27
-12 -33 21 -44 129 -44 57 0 107 4 110 9 7 12 153 11 160 -1 3 -5 48 -8 100
-7 103 3 113 9 100 60 -6 23 -9 23 -140 26 -83 1 -136 -1 -140 -8 -8 -13 -52
-13 -60 0 -4 7 -49 10 -120 8 l-114 -3 20 21 c13 13 28 20 40 17 10 -3 25 -1
32 5 16 14 174 14 182 1 8 -12 142 -12 150 1 8 13 52 13 61 -1 3 -6 29 -9 63
-8 31 2 61 0 68 -4 29 -18 62 30 48 72 -5 15 -13 16 -68 10 -34 -4 -100 -6
-147 -3 -47 2 -142 5 -212 6 l-127 3 26 21 c31 24 23 47 -13 38 -13 -3 -24 -2
-24 4 0 12 -20 19 -42 15z"/>
<path d="M123 692 c-15 -10 -25 -49 -18 -71 5 -16 16 -18 86 -17 44 1 83 -2
85 -5 7 -12 -136 -139 -182 -161 -24 -12 -44 -24 -43 -27 0 -4 16 -19 35 -35
l34 -28 46 38 c37 30 45 33 40 17 -10 -31 20 -56 61 -51 18 2 33 2 33 1 0 -2
-7 -20 -15 -41 -27 -64 -78 -105 -143 -117 -36 -6 -82 -23 -65 -24 7 -1 28
-17 48 -36 l35 -35 50 25 c27 14 66 39 86 57 40 35 79 112 83 163 1 6 32 10
69 11 l68 0 -3 -55 c-3 -54 -24 -101 -44 -101 -6 0 -18 4 -28 9 -10 6 -27 7
-39 4 l-21 -5 20 -36 c10 -20 19 -43 19 -51 0 -19 73 -7 116 20 51 31 64 75
73 232 1 17 3 17 30 -2 38 -28 47 -26 57 7 6 24 9 20 21 -38 8 -36 15 -74 17
-85 6 -35 33 -89 56 -113 53 -56 108 -48 133 20 31 84 31 90 -12 126 -40 32
-40 32 -52 11 -6 -12 -9 -32 -6 -45 2 -14 1 -27 -4 -29 -9 -6 -32 59 -31 94 0
14 -7 35 -14 46 -16 22 -20 161 -5 167 6 2 12 38 15 80 6 77 6 78 -21 84 -14
4 -34 2 -45 -5 -26 -16 -224 -27 -241 -13 -15 13 -115 14 -123 1 -7 -12 -51
-11 -59 1 -4 6 -41 10 -89 8 -45 -1 -86 1 -92 4 -5 4 -15 4 -21 0z m492 -84
l100 -1 1 -83 c1 -56 -2 -84 -10 -84 -6 0 -34 13 -62 30 -49 28 -81 58 -115
110 l-16 24 -37 -23 -37 -23 23 -27 c12 -14 38 -43 58 -65 33 -37 34 -38 10
-32 -14 3 -86 6 -160 6 l-135 1 35 30 c19 16 52 39 73 50 20 10 37 24 37 30 0
5 -18 18 -40 28 l-39 17 27 12 c16 6 59 9 107 5 44 -2 125 -5 180 -5z"/>
</g>
</svg>
