<?xml version="1.0" standalone="no"?>
<!DOCTYPE svg PUBLIC "-//W3C//DTD SVG 20010904//EN"
 "http://www.w3.org/TR/2001/REC-SVG-20010904/DTD/svg10.dtd">
<svg version="1.0" xmlns="http://www.w3.org/2000/svg"
 width="101.000000pt" height="101.000000pt" viewBox="0 0 101.000000 101.000000"
 preserveAspectRatio="xMidYMid meet">
<metadata>
Created by potrace 1.16, written by Peter Selinger 2001-2019
</metadata>
<g transform="translate(0.000000,101.000000) scale(0.100000,-0.100000)"
fill="#000000" stroke="none">
<path d="M265 949 c-46 -70 -108 -129 -179 -169 l-48 -28 40 -27 c23 -15 46
-24 51 -20 7 4 9 -4 5 -23 -9 -46 15 -62 84 -58 31 2 71 7 87 11 30 6 29 6
-15 -35 -47 -44 -107 -78 -173 -100 l-39 -12 34 -29 c18 -15 38 -28 45 -29 7
0 35 14 64 31 l52 30 33 -32 c18 -18 31 -35 29 -39 -6 -9 -97 -35 -109 -32 -5
2 -16 0 -25 -4 -22 -9 -50 -14 -88 -14 -18 0 -41 -4 -52 -8 -17 -6 -16 -10 15
-46 l33 -38 73 17 c40 10 98 26 128 37 l54 18 -27 -28 c-15 -15 -27 -31 -27
-34 0 -5 29 -13 95 -25 11 -2 49 -12 85 -23 l65 -20 22 26 c37 41 46 36 -152
91 -11 3 -28 6 -37 6 -10 1 -18 5 -18 9 0 8 7 9 53 11 24 1 96 -21 112 -34 6
-4 20 -8 30 -7 11 0 35 -2 53 -6 64 -13 66 -12 81 30 15 42 19 41 25 -10 8
-67 60 -162 105 -191 23 -16 47 -25 56 -21 18 7 51 75 60 126 5 32 2 38 -30
63 -20 16 -39 27 -41 24 -3 -3 -7 -21 -8 -41 -2 -20 -6 -39 -9 -42 -10 -11
-40 47 -39 76 0 16 -2 32 -6 34 -7 4 -5 197 3 294 l4 52 -47 1 c-26 1 -87 3
-136 5 -49 2 -94 0 -100 -5 -15 -12 -146 -13 -161 -1 -7 6 -58 9 -119 8 -58
-2 -106 -3 -106 -2 0 0 22 19 49 42 32 27 48 36 45 24 -9 -38 11 -47 98 -45
46 1 101 2 123 2 379 -3 368 -4 363 51 l-3 25 -150 8 c-99 6 -155 5 -166 -1
-22 -14 -169 -14 -186 0 -7 5 -22 8 -34 5 -15 -4 -18 -2 -10 7 6 7 29 11 57 9
26 -2 52 1 59 7 15 12 166 11 182 -2 8 -6 61 -7 152 -3 149 8 157 11 145 60
-8 33 -50 40 -115 21 -59 -18 -199 -22 -199 -6 0 6 -18 10 -40 10 -22 0 -40
-4 -40 -10 0 -5 -25 -10 -55 -10 -61 0 -68 9 -29 39 l27 21 -35 14 c-77 32
-79 32 -123 -35z m447 -361 c-2 -27 1 -55 7 -62 7 -9 9 -33 5 -67 l-6 -54 -72
2 c-61 2 -162 19 -130 22 14 1 154 129 154 141 0 4 -21 10 -47 14 -33 4 -53 2
-69 -9 -26 -17 -94 -20 -94 -5 0 6 -12 10 -27 10 -24 1 -25 2 -10 11 22 13 22
24 -3 35 -13 6 35 9 137 10 l158 0 -3 -48z m-217 -78 c3 -5 -12 -21 -35 -36
l-40 -27 -40 28 c-22 15 -40 32 -40 36 0 12 147 11 155 -1z"/>
<path d="M226 223 c-16 -18 -26 -36 -24 -39 3 -2 20 -7 39 -9 19 -3 45 -7 59
-10 14 -3 41 -8 60 -11 19 -3 72 -18 118 -33 l83 -28 30 36 c16 19 25 38 21
42 -6 6 -178 54 -227 64 -131 26 -127 26 -159 -12z"/>
</g>
</svg>
