<?xml version="1.0" standalone="no"?>
<!DOCTYPE svg PUBLIC "-//W3C//DTD SVG 20010904//EN"
 "http://www.w3.org/TR/2001/REC-SVG-20010904/DTD/svg10.dtd">
<svg version="1.0" xmlns="http://www.w3.org/2000/svg"
 width="101.000000pt" height="101.000000pt" viewBox="0 0 101.000000 101.000000"
 preserveAspectRatio="xMidYMid meet">
<metadata>
Created by potrace 1.16, written by Peter Selinger 2001-2019
</metadata>
<g transform="translate(0.000000,101.000000) scale(0.100000,-0.100000)"
fill="#000000" stroke="none">
<path d="M232 947 c-33 -64 -88 -129 -156 -184 -22 -18 -38 -34 -35 -35 2 -2
19 -14 38 -27 l33 -23 50 48 c28 27 48 42 45 33 -13 -40 5 -44 170 -42 87 1
196 4 243 7 46 2 92 0 102 -5 10 -5 34 -7 53 -3 36 6 51 29 41 62 -5 15 -20
18 -96 20 -54 1 -90 -2 -90 -8 0 -6 -11 -10 -25 -10 -14 0 -25 5 -25 10 0 6
-30 10 -70 10 -40 0 -70 -4 -70 -10 0 -13 -67 -13 -72 -1 -1 5 -33 11 -70 13
-60 2 -66 4 -53 18 10 11 29 15 61 13 26 -2 52 1 59 7 14 12 173 12 180 -1 8
-12 142 -12 150 1 8 14 52 13 61 -1 10 -16 134 -5 145 12 11 17 2 61 -14 72
-7 4 -25 5 -42 1 -16 -3 -65 -5 -107 -4 -49 1 -78 -3 -78 -9 0 -7 -31 -11 -80
-11 -47 0 -80 4 -80 10 0 6 -18 10 -40 10 -22 0 -40 -4 -40 -10 0 -5 -25 -10
-55 -10 -57 0 -69 11 -35 32 30 19 24 35 -20 58 -21 11 -41 20 -42 20 -2 0
-18 -28 -36 -63z"/>
<path d="M128 680 c-22 -14 -23 -53 -2 -74 17 -18 109 -22 119 -6 8 12 52 13
59 1 8 -13 108 -12 123 1 9 7 56 8 145 3 l133 -7 2 -100 c1 -73 -2 -98 -10
-94 -7 2 -47 16 -90 31 l-77 27 50 45 c27 25 50 48 50 51 0 4 -59 8 -130 10
-86 2 -130 -1 -130 -8 0 -6 -29 -10 -75 -10 -43 0 -75 4 -75 10 0 6 -18 10
-39 10 -44 0 -57 -18 -45 -64 6 -25 24 -37 24 -16 0 11 91 11 205 1 l70 -6
-90 -33 c-49 -19 -101 -34 -115 -34 -14 0 -29 -3 -35 -6 -15 -10 -37 -13 -77
-13 -20 1 -39 -3 -42 -7 -2 -4 12 -25 31 -46 33 -35 39 -38 63 -29 23 9 27 8
24 -6 -6 -22 9 -42 32 -42 10 0 46 1 79 4 l61 4 1 -38 c2 -36 0 -39 -30 -44
-31 -6 -144 -1 -219 8 -40 6 -50 -8 -41 -57 5 -23 8 -25 47 -20 22 4 84 6 136
6 52 -1 124 -1 160 -1 166 1 237 -1 256 -6 17 -4 23 1 27 21 8 44 -2 66 -27
57 -11 -4 -57 -7 -101 -6 -134 4 -124 0 -122 44 1 28 5 38 14 35 7 -3 24 0 38
6 19 8 35 8 66 -1 48 -14 63 -4 54 37 -6 23 -5 23 17 8 20 -15 24 -14 45 6
l22 21 10 -24 c5 -13 18 -51 27 -84 13 -43 30 -72 64 -107 26 -26 52 -48 59
-48 24 0 60 49 76 105 l17 56 -39 34 c-21 19 -41 34 -45 35 -10 0 -21 -67 -13
-79 3 -6 2 -11 -3 -11 -12 0 -41 60 -46 97 -3 15 -10 59 -16 96 -8 49 -9 72
-1 81 6 7 10 45 10 85 -1 85 -15 106 -63 97 -35 -7 -172 -16 -226 -16 -94 2
-299 11 -335 15 -22 3 -48 1 -57 -5z m428 -308 c36 -18 37 -20 15 -27 -13 -4
-82 -4 -153 0 l-130 7 79 32 c85 35 99 34 189 -12z"/>
</g>
</svg>
