<?xml version="1.0" standalone="no"?>
<!DOCTYPE svg PUBLIC "-//W3C//DTD SVG 20010904//EN"
 "http://www.w3.org/TR/2001/REC-SVG-20010904/DTD/svg10.dtd">
<svg version="1.0" xmlns="http://www.w3.org/2000/svg"
 width="101.000000pt" height="102.000000pt" viewBox="0 0 101.000000 102.000000"
 preserveAspectRatio="xMidYMid meet">
<metadata>
Created by potrace 1.16, written by Peter Selinger 2001-2019
</metadata>
<g transform="translate(0.000000,102.000000) scale(0.100000,-0.100000)"
fill="#000000" stroke="none">
<path d="M200 948 c-25 -39 -71 -94 -103 -123 l-58 -53 36 -21 c20 -11 40 -21
45 -21 5 0 31 25 58 55 l49 56 6 -29 6 -29 163 3 c90 2 197 5 238 8 41 2 101
1 132 -3 62 -8 73 -1 63 42 -6 21 -12 22 -120 24 -63 1 -117 -2 -120 -8 -8
-12 -52 -12 -60 1 -4 6 -54 11 -123 11 -146 0 -163 1 -159 12 6 18 530 23 612
7 25 -5 31 3 30 38 l0 38 -41 -7 c-23 -4 -81 -6 -130 -4 -49 3 -115 5 -146 4
-119 0 -194 1 -231 3 -32 2 -36 4 -23 14 9 6 16 16 16 21 0 9 -64 33 -86 33
-5 0 -29 -32 -54 -72z"/>
<path d="M165 754 c-17 -18 -18 -24 -5 -44 7 -12 30 -15 104 -14 67 2 95 -1
93 -10 -1 -6 -6 -14 -12 -18 -15 -12 -155 -10 -155 2 0 16 -56 12 -70 -5 -10
-12 -10 -21 -1 -42 l12 -25 114 4 c92 3 115 2 115 -9 0 -11 -23 -13 -105 -11
-85 2 -107 0 -115 -12 -12 -18 -12 -22 -1 -38 9 -15 14 -15 133 -8 81 4 87 3
85 -15 -2 -29 -86 -35 -207 -14 -40 7 -80 9 -84 4 -10 -12 -14 -46 -7 -57 10
-16 36 -18 106 -7 46 6 145 8 300 5 33 -1 74 1 92 5 20 5 49 1 78 -8 40 -14
46 -14 60 0 16 16 12 52 -8 65 -5 3 -27 0 -48 -7 -21 -8 -61 -12 -96 -9 -32 2
-67 5 -78 5 -12 1 -21 9 -22 18 -1 13 11 16 72 18 41 2 85 -1 99 -7 29 -11 59
11 54 39 -3 13 -24 18 -116 25 -61 5 -112 12 -112 15 0 3 54 6 121 6 126 0
142 6 131 47 -4 18 -11 18 -128 12 -118 -7 -124 -6 -124 12 0 18 10 19 138 21
l138 3 -4 -56 c-1 -31 2 -61 7 -68 6 -7 10 -61 10 -121 1 -118 1 -127 20 -195
19 -67 50 -116 85 -135 51 -27 68 -18 92 50 11 33 18 67 16 75 -2 8 -21 27
-43 42 -42 30 -44 28 -40 -32 1 -24 1 -24 -14 -6 -8 11 -15 25 -16 30 0 6 -3
20 -5 31 -11 48 -14 96 -14 178 1 55 -3 87 -9 87 -6 0 -11 11 -11 25 0 14 5
25 10 25 6 0 10 28 10 64 l0 64 -97 5 c-138 9 -151 8 -157 -2 -8 -12 -153 -13
-161 -1 -3 5 -53 9 -110 9 -80 0 -108 -3 -120 -15z"/>
<path d="M179 413 c-20 -5 -31 -40 -20 -62 11 -22 13 -159 2 -214 -9 -50 1
-60 52 -50 28 6 41 42 27 79 -7 18 -5 22 13 23 12 1 45 3 72 6 88 8 235 -5
235 -21 0 -10 -11 -13 -40 -10 -22 2 -40 2 -40 1 0 -1 7 -18 15 -38 18 -43 46
-51 99 -29 l40 18 3 120 c1 65 2 129 3 142 1 13 0 26 -3 29 -9 8 -45 6 -122
-6 -79 -13 -232 -7 -300 11 -11 3 -27 4 -36 1z m288 -50 c81 -4 91 -7 90 -23
-1 -16 -13 -19 -92 -24 -49 -3 -112 -3 -140 -1 -27 3 -59 5 -70 6 -13 1 -21 9
-22 21 -1 14 3 17 15 14 9 -3 24 -1 32 4 16 10 43 11 187 3z m91 -97 c13 -13
-13 -17 -134 -22 -130 -4 -177 4 -144 26 15 10 267 6 278 -4z m-308 -6 c0 -5
-4 -10 -10 -10 -5 0 -10 5 -10 10 0 6 5 10 10 10 6 0 10 -4 10 -10z"/>
</g>
</svg>
