<?xml version="1.0" standalone="no"?>
<!DOCTYPE svg PUBLIC "-//W3C//DTD SVG 20010904//EN"
 "http://www.w3.org/TR/2001/REC-SVG-20010904/DTD/svg10.dtd">
<svg version="1.0" xmlns="http://www.w3.org/2000/svg"
 width="101.000000pt" height="101.000000pt" viewBox="0 0 101.000000 101.000000"
 preserveAspectRatio="xMidYMid meet">
<metadata>
Created by potrace 1.16, written by Peter Selinger 2001-2019
</metadata>
<g transform="translate(0.000000,101.000000) scale(0.100000,-0.100000)"
fill="#000000" stroke="none">
<path d="M375 983 c-38 -51 -38 -50 17 -68 29 -10 87 -35 128 -57 l75 -40 23
29 c47 58 47 58 -26 91 -88 41 -170 72 -185 72 -7 0 -21 -13 -32 -27z"/>
<path d="M228 813 c-21 -5 -33 -56 -18 -82 8 -16 21 -21 55 -21 25 0 45 5 45
10 0 6 16 10 35 10 19 0 35 -5 35 -11 0 -7 16 -10 43 -8 l42 4 -3 -112 c-2
-70 1 -114 8 -118 13 -8 13 -52 -1 -61 -8 -5 -9 -34 -5 -94 9 -106 3 -114 -85
-112 -32 0 -59 -1 -59 -4 0 -3 7 -15 15 -28 9 -13 17 -38 20 -56 5 -44 17 -54
52 -45 15 5 36 7 45 6 33 -4 96 37 102 66 15 79 17 111 7 118 -14 8 -14 52 0
60 6 4 10 30 9 59 -1 28 -1 57 -1 65 1 8 17 -12 37 -45 43 -72 109 -141 190
-200 34 -24 64 -44 66 -44 7 0 99 92 96 95 -2 1 -32 16 -68 33 -74 35 -167
106 -199 150 l-21 30 81 57 c45 31 99 65 121 75 l40 18 -42 46 c-23 25 -47 46
-52 46 -6 0 -48 -39 -93 -87 -61 -65 -86 -85 -95 -77 -22 22 -62 156 -56 189
10 51 1 61 -50 59 -25 -1 -48 -5 -51 -8 -10 -10 -81 -7 -88 4 -3 5 -29 9 -58
8 -29 0 -59 2 -67 5 -8 2 -23 3 -32 0z"/>
<path d="M64 598 c-3 -11 -3 -30 0 -43 8 -30 33 -34 168 -32 94 2 97 1 92 -18
-25 -80 -137 -206 -223 -249 l-52 -27 43 -39 c24 -22 49 -39 55 -40 25 0 178
164 210 225 38 73 83 194 83 225 0 20 -4 22 -30 17 -74 -15 -160 -19 -173 -9
-8 7 -47 11 -90 11 -67 -1 -77 -3 -83 -21z"/>
</g>
</svg>
