<?xml version="1.0" standalone="no"?>
<!DOCTYPE svg PUBLIC "-//W3C//DTD SVG 20010904//EN"
 "http://www.w3.org/TR/2001/REC-SVG-20010904/DTD/svg10.dtd">
<svg version="1.0" xmlns="http://www.w3.org/2000/svg"
 width="101.000000pt" height="101.000000pt" viewBox="0 0 101.000000 101.000000"
 preserveAspectRatio="xMidYMid meet">
<metadata>
Created by potrace 1.16, written by Peter Selinger 2001-2019
</metadata>
<g transform="translate(0.000000,101.000000) scale(0.100000,-0.100000)"
fill="#000000" stroke="none">
<path d="M456 863 c3 -82 4 -193 4 -248 -1 -55 -1 -164 0 -241 1 -162 -3 -172
-69 -168 -22 1 -41 -1 -41 -4 0 -16 35 -98 44 -104 6 -4 18 -5 26 -2 8 3 24 7
35 8 40 5 83 36 94 67 14 40 14 119 1 119 -5 0 -10 11 -10 25 0 14 5 25 10 25
6 0 10 30 10 70 0 40 -4 70 -10 70 -5 0 -10 11 -10 25 0 14 5 25 10 25 6 0 10
15 10 33 1 30 2 28 24 -24 50 -121 138 -232 233 -295 53 -35 56 -36 66 -18 6
10 23 31 39 46 15 14 28 28 28 31 0 3 -29 21 -64 41 -80 45 -155 112 -196 176
-18 28 -31 52 -29 54 168 128 208 156 222 156 29 0 19 25 -22 58 -22 18 -42
32 -44 32 -2 0 -46 -42 -97 -92 l-92 -92 -36 84 c-36 87 -41 130 -27 236 6 40
5 42 -26 48 -17 3 -44 6 -59 6 l-28 0 4 -147z"/>
<path d="M80 741 c-29 -56 2 -95 69 -87 25 3 72 7 103 10 56 4 56 4 52 -21
-22 -119 -140 -290 -241 -350 -39 -23 -49 -43 -21 -43 6 0 26 -11 44 -25 18
-14 37 -25 43 -25 14 0 117 123 167 201 44 67 143 333 130 346 -12 12 -176 16
-176 4 0 -6 -16 -11 -35 -11 -19 0 -35 5 -35 10 0 6 -20 10 -45 10 -34 0 -47
-5 -55 -19z"/>
</g>
</svg>
