<?xml version="1.0" standalone="no"?>
<!DOCTYPE svg PUBLIC "-//W3C//DTD SVG 20010904//EN"
 "http://www.w3.org/TR/2001/REC-SVG-20010904/DTD/svg10.dtd">
<svg version="1.0" xmlns="http://www.w3.org/2000/svg"
 width="101.000000pt" height="101.000000pt" viewBox="0 0 101.000000 101.000000"
 preserveAspectRatio="xMidYMid meet">
<metadata>
Created by potrace 1.16, written by Peter Selinger 2001-2019
</metadata>
<g transform="translate(0.000000,101.000000) scale(0.100000,-0.100000)"
fill="#000000" stroke="none">
<path d="M580 1004 c-12 -4 -14 -18 -12 -64 3 -39 0 -60 -7 -60 -6 0 -11 -18
-11 -40 0 -22 5 -40 10 -40 6 0 10 -33 10 -80 0 -47 -4 -80 -10 -80 -6 0 -10
-30 -10 -70 0 -40 4 -70 10 -70 6 0 10 -11 10 -25 0 -14 -5 -25 -11 -25 -8 0
-9 -29 -4 -97 l7 -98 -66 0 -67 0 7 83 c5 58 3 82 -5 82 -6 0 -11 11 -11 25 0
14 5 25 10 25 6 0 10 30 10 70 0 40 -4 70 -10 70 -12 0 -13 47 -1 52 4 2 10
36 13 75 5 64 3 73 -13 78 -10 4 -23 4 -29 0 -5 -3 -18 -1 -29 5 -29 15 -55
-14 -47 -54 15 -72 20 -524 6 -571 -9 -33 -1 -34 235 -32 129 1 235 -1 235 -5
0 -4 -4 -10 -10 -13 -14 -9 -12 -21 6 -39 17 -17 61 -21 82 -7 17 10 28 156
12 166 -13 8 -13 52 0 60 12 7 12 153 0 160 -12 7 -11 153 1 160 5 4 9 32 9
63 -1 32 2 67 5 79 6 18 3 23 -16 27 -13 3 -31 4 -39 4 -8 0 -23 3 -32 7 -24
10 -42 -38 -32 -85 4 -19 6 -69 5 -112 -1 -44 3 -79 9 -83 12 -8 13 -52 1 -59
-12 -8 -13 -114 -1 -121 12 -7 13 -85 2 -103 -6 -9 -27 -11 -80 -6 l-71 7 6
67 c4 45 2 69 -6 74 -14 9 -15 53 -1 61 13 8 13 142 1 150 -12 7 -13 172 -1
180 5 3 9 29 9 58 0 67 4 87 19 114 11 19 9 22 -20 32 -31 11 -50 12 -78 5z"/>
<path d="M143 947 c-47 -54 -49 -49 34 -117 l77 -63 32 39 33 39 -21 22 c-11
12 -46 40 -78 62 l-57 40 -20 -22z"/>
<path d="M63 705 c-13 -19 -23 -39 -23 -43 0 -5 19 -18 42 -28 24 -10 62 -34
85 -51 24 -18 47 -33 52 -33 11 0 51 66 51 83 0 17 -151 107 -177 107 -4 0
-18 -16 -30 -35z"/>
<path d="M169 513 c-1 -5 -3 -21 -5 -37 -2 -16 -6 -36 -9 -45 -4 -9 -9 -27
-11 -41 -4 -20 -49 -135 -79 -205 -7 -14 96 -78 107 -67 5 5 11 20 13 33 2 13
6 35 10 49 4 14 10 41 15 60 4 19 15 60 24 90 8 30 18 65 22 78 5 18 -1 30
-32 57 -39 34 -53 41 -55 28z"/>
</g>
</svg>
