<?xml version="1.0" standalone="no"?>
<!DOCTYPE svg PUBLIC "-//W3C//DTD SVG 20010904//EN"
 "http://www.w3.org/TR/2001/REC-SVG-20010904/DTD/svg10.dtd">
<svg version="1.0" xmlns="http://www.w3.org/2000/svg"
 width="101.000000pt" height="101.000000pt" viewBox="0 0 101.000000 101.000000"
 preserveAspectRatio="xMidYMid meet">
<metadata>
Created by potrace 1.16, written by Peter Selinger 2001-2019
</metadata>
<g transform="translate(0.000000,101.000000) scale(0.100000,-0.100000)"
fill="#000000" stroke="none">
<path d="M485 938 c-30 -92 -86 -186 -153 -259 -35 -38 -63 -71 -61 -73 2 -1
23 -14 47 -27 l43 -23 34 39 c30 37 33 38 28 14 -6 -31 22 -63 46 -53 9 3 57
7 106 8 l90 1 -100 -100 c-94 -94 -150 -173 -160 -227 -3 -13 0 -38 6 -56 18
-54 49 -63 238 -68 143 -3 171 -1 201 14 36 18 68 69 76 120 3 24 -1 29 -48
50 -28 12 -53 20 -55 18 -2 -2 -6 -21 -8 -42 -8 -63 -23 -69 -169 -68 -75 1
-131 5 -138 12 -34 34 179 280 274 317 50 18 63 38 53 78 -6 21 -14 25 -67 31
-89 9 -158 7 -158 -4 0 -5 -16 -10 -35 -10 -19 0 -35 5 -35 10 0 6 -22 10 -50
10 l-49 0 36 53 c36 51 38 52 82 50 24 -2 50 2 57 8 16 13 235 5 263 -11 30
-16 55 14 47 58 -3 19 -7 36 -9 39 -3 2 -24 -1 -48 -6 -57 -13 -119 -14 -119
-1 0 6 -18 10 -40 10 -22 0 -40 -4 -40 -10 0 -5 -25 -10 -55 -10 -32 0 -55 4
-55 10 0 15 29 71 48 93 18 20 11 30 -37 46 -60 20 -68 16 -86 -41z"/>
<path d="M156 921 c-36 -37 -37 -39 -17 -46 12 -3 49 -32 82 -62 l60 -56 34
33 c19 19 35 39 35 45 0 9 -100 90 -145 117 -7 4 -27 -9 -49 -31z"/>
<path d="M63 715 c-28 -42 -28 -52 -4 -60 10 -3 47 -25 82 -50 l63 -44 28 32
c15 18 27 37 28 44 0 10 -154 113 -170 113 -3 0 -15 -16 -27 -35z"/>
<path d="M200 510 c-6 -11 -8 -20 -4 -20 3 0 1 -7 -6 -15 -7 -9 -10 -18 -7
-21 8 -8 -32 -112 -77 -203 -21 -40 -34 -77 -29 -81 4 -4 29 -19 54 -33 l47
-27 8 28 c4 15 9 35 10 44 2 10 26 79 54 154 27 75 50 138 50 140 0 2 -6 4
-14 4 -8 0 -28 11 -45 25 -30 26 -30 26 -41 5z"/>
</g>
</svg>
