<?xml version="1.0" standalone="no"?>
<!DOCTYPE svg PUBLIC "-//W3C//DTD SVG 20010904//EN"
 "http://www.w3.org/TR/2001/REC-SVG-20010904/DTD/svg10.dtd">
<svg version="1.0" xmlns="http://www.w3.org/2000/svg"
 width="101.000000pt" height="101.000000pt" viewBox="0 0 101.000000 101.000000"
 preserveAspectRatio="xMidYMid meet">
<metadata>
Created by potrace 1.16, written by Peter Selinger 2001-2019
</metadata>
<g transform="translate(0.000000,101.000000) scale(0.100000,-0.100000)"
fill="#000000" stroke="none">
<path d="M137 954 c-16 -13 -27 -28 -25 -32 2 -4 37 -39 78 -79 l75 -71 39 33
c23 19 37 38 34 47 -8 20 -142 128 -159 128 -8 0 -27 -12 -42 -26z"/>
<path d="M780 944 c-54 -15 -200 -18 -200 -4 0 6 -18 10 -40 10 -22 0 -40 -5
-40 -11 0 -7 -21 -10 -60 -7 -54 3 -61 1 -66 -17 -3 -12 0 -33 6 -49 9 -24 14
-27 38 -22 15 4 36 7 47 7 11 -1 30 4 41 10 15 8 48 8 105 2 l84 -8 -90 -67
c-49 -37 -124 -84 -165 -105 -41 -21 -77 -39 -79 -40 -2 -2 2 -21 9 -43 l13
-39 52 2 c60 3 61 0 13 -70 -35 -52 -99 -108 -161 -140 l-49 -24 47 -30 47
-30 33 21 c56 34 158 152 192 219 29 60 33 64 66 65 30 1 34 -2 30 -19 -3 -11
-6 -27 -7 -35 -1 -9 -6 -21 -10 -28 -4 -7 -5 -16 -2 -19 12 -13 -60 -127 -107
-169 -28 -25 -90 -64 -138 -88 l-88 -43 45 -37 c51 -42 44 -44 161 37 85 58
133 108 167 174 24 49 67 173 70 207 2 12 12 20 28 22 24 2 26 -1 31 -54 4
-32 2 -61 -4 -68 -6 -7 -9 -41 -8 -76 3 -136 -12 -162 -90 -159 -28 1 -51 -2
-51 -7 0 -5 9 -27 20 -50 11 -22 20 -45 20 -51 0 -17 63 -9 117 15 55 24 82
59 83 110 1 45 8 151 16 249 11 137 10 165 -7 176 -13 8 -153 7 -291 -2 -32
-3 -54 -2 -50 2 25 24 258 170 278 175 28 7 40 40 29 81 -6 25 -22 44 -35 42
-3 -1 -25 -7 -50 -15z"/>
<path d="M63 725 c-13 -19 -23 -37 -23 -39 0 -6 167 -116 177 -116 9 0 53 65
53 78 0 15 -154 112 -177 112 -4 0 -18 -16 -30 -35z"/>
<path d="M165 520 c-3 -5 -4 -14 -1 -18 2 -4 -18 -73 -45 -152 -69 -200 -67
-184 -23 -214 37 -25 73 -34 75 -18 1 4 3 18 4 32 2 14 5 34 8 45 3 11 15 54
26 95 11 41 27 95 36 119 21 60 20 65 -23 95 -42 29 -48 31 -57 16z"/>
</g>
</svg>
