<?xml version="1.0" standalone="no"?>
<!DOCTYPE svg PUBLIC "-//W3C//DTD SVG 20010904//EN"
 "http://www.w3.org/TR/2001/REC-SVG-20010904/DTD/svg10.dtd">
<svg version="1.0" xmlns="http://www.w3.org/2000/svg"
 width="101.000000pt" height="101.000000pt" viewBox="0 0 101.000000 101.000000"
 preserveAspectRatio="xMidYMid meet">
<metadata>
Created by potrace 1.16, written by Peter Selinger 2001-2019
</metadata>
<g transform="translate(0.000000,101.000000) scale(0.100000,-0.100000)"
fill="#000000" stroke="none">
<path d="M128 950 l-33 -30 35 -27 c19 -15 58 -48 85 -73 l50 -46 37 41 37 41
-75 62 c-42 34 -82 62 -90 62 -7 0 -28 -13 -46 -30z"/>
<path d="M379 922 c-3 -55 4 -127 12 -130 12 -5 12 -72 -1 -72 -6 0 -10 -30
-10 -70 0 -40 4 -70 10 -70 6 0 10 -11 10 -25 0 -14 -4 -25 -10 -25 -6 0 -10
-40 -10 -100 0 -60 4 -100 10 -100 16 0 12 -75 -6 -120 -22 -53 -13 -87 26
-95 61 -13 90 19 76 85 -5 28 -3 30 24 30 17 0 30 5 30 10 0 11 78 13 169 4
l61 -7 0 -46 c0 -25 4 -51 8 -57 11 -17 50 -27 78 -20 24 6 24 8 18 71 -4 41
-3 69 4 78 14 16 15 214 2 222 -13 8 -13 52 0 60 13 8 13 142 1 150 -13 8 -13
166 1 182 5 7 8 24 4 37 -6 23 -10 24 -85 25 -44 0 -83 -3 -86 -8 -7 -12 -172
-13 -179 -2 -3 5 -40 9 -81 9 -63 0 -75 -2 -76 -16z m406 -182 l0 -108 -156 1
-156 2 1 105 1 105 155 1 155 2 0 -108z m-30 -190 l30 0 0 -112 c0 -104 -2
-114 -20 -120 -33 -10 -163 -9 -170 2 -4 6 -33 9 -67 8 l-60 -3 7 42 c4 28 2
43 -4 43 -6 0 -11 11 -11 25 0 14 5 25 10 25 6 0 10 18 10 40 l0 40 49 0 c28
0 53 5 57 11 5 8 28 10 73 5 36 -3 80 -6 96 -6z"/>
<path d="M67 722 c-15 -15 -27 -33 -27 -39 0 -5 18 -18 41 -28 23 -11 62 -34
88 -52 l46 -34 33 37 c17 21 32 40 32 44 0 10 -154 100 -171 100 -8 0 -27 -13
-42 -28z"/>
<path d="M189 533 c0 -5 -2 -15 -4 -23 -2 -8 -7 -28 -10 -45 -11 -52 -54 -174
-80 -225 -14 -27 -25 -53 -25 -58 0 -4 21 -19 48 -32 26 -14 49 -26 52 -27 3
-2 11 18 18 44 10 40 89 288 100 314 2 5 -19 20 -47 34 -28 14 -51 22 -52 18z"/>
</g>
</svg>
