<?xml version="1.0" standalone="no"?>
<!DOCTYPE svg PUBLIC "-//W3C//DTD SVG 20010904//EN"
 "http://www.w3.org/TR/2001/REC-SVG-20010904/DTD/svg10.dtd">
<svg version="1.0" xmlns="http://www.w3.org/2000/svg"
 width="101.000000pt" height="101.000000pt" viewBox="0 0 101.000000 101.000000"
 preserveAspectRatio="xMidYMid meet">
<metadata>
Created by potrace 1.16, written by Peter Selinger 2001-2019
</metadata>
<g transform="translate(0.000000,101.000000) scale(0.100000,-0.100000)"
fill="#000000" stroke="none">
<path d="M121 964 c-17 -19 -31 -38 -31 -42 0 -4 20 -19 44 -35 24 -15 63 -43
86 -61 l43 -34 31 38 c33 41 46 49 46 27 0 -16 106 -22 115 -7 4 6 26 10 51
10 l44 0 0 -49 c0 -27 5 -51 11 -53 8 -3 9 -25 4 -70 l-7 -67 -108 5 -108 5
-7 -30 c-13 -62 20 -92 83 -76 15 4 52 9 82 10 l55 4 1 -139 1 -139 -146 2
-146 2 -3 -40 c-3 -49 8 -67 39 -66 13 0 114 0 224 1 116 0 211 5 227 11 18 7
52 8 109 1 63 -8 86 -8 91 1 10 15 10 69 0 82 -4 6 -68 11 -147 13 -76 2 -143
6 -147 8 -12 8 -10 132 2 139 6 4 9 32 8 63 l-3 57 68 -1 c37 -1 71 -4 74 -8
4 -3 19 -6 34 -6 40 0 61 25 57 69 l-3 36 -115 0 -115 0 0 111 c0 101 2 110
18 106 9 -2 24 1 32 8 10 8 40 10 103 5 86 -7 90 -7 97 14 3 12 4 34 0 50 l-6
29 -95 1 c-58 1 -94 -3 -94 -9 0 -6 -32 -10 -80 -10 -47 0 -80 4 -80 10 0 6
-18 10 -40 10 -22 0 -40 -4 -40 -10 0 -5 -25 -10 -55 -10 -30 0 -55 5 -55 10
0 6 -7 10 -15 10 -8 0 -17 -14 -21 -34 l-6 -35 -61 46 c-34 25 -74 51 -89 59
-25 13 -28 12 -57 -22z"/>
<path d="M53 720 c-13 -21 -23 -41 -23 -44 0 -4 177 -96 185 -96 10 0 46 73
41 85 -3 8 -36 30 -73 48 -104 53 -105 53 -130 7z"/>
<path d="M187 524 c-3 -3 -3 -12 0 -20 3 -8 1 -20 -4 -27 -5 -6 -22 -48 -38
-92 -15 -44 -43 -111 -62 -150 -20 -38 -31 -71 -27 -72 5 -2 29 -16 53 -33
l45 -29 63 187 c34 102 61 187 60 189 -5 5 -78 53 -81 53 -1 0 -5 -3 -9 -6z"/>
</g>
</svg>
