<?xml version="1.0" standalone="no"?>
<!DOCTYPE svg PUBLIC "-//W3C//DTD SVG 20010904//EN"
 "http://www.w3.org/TR/2001/REC-SVG-20010904/DTD/svg10.dtd">
<svg version="1.0" xmlns="http://www.w3.org/2000/svg"
 width="101.000000pt" height="101.000000pt" viewBox="0 0 101.000000 101.000000"
 preserveAspectRatio="xMidYMid meet">
<metadata>
Created by potrace 1.16, written by Peter Selinger 2001-2019
</metadata>
<g transform="translate(0.000000,101.000000) scale(0.100000,-0.100000)"
fill="#000000" stroke="none">
<path d="M126 949 c-33 -39 -33 -45 2 -63 16 -8 52 -34 82 -57 l52 -41 35 35
c20 19 32 40 28 46 -10 17 -146 111 -161 111 -7 0 -24 -14 -38 -31z"/>
<path d="M689 963 c-1 -10 -1 -24 0 -31 1 -8 -2 -19 -8 -26 -5 -6 -13 -27 -16
-45 -3 -19 -10 -41 -14 -50 -5 -9 -9 -20 -9 -26 -1 -5 -6 -29 -13 -53 l-12
-44 -69 131 -69 131 -42 -21 c-23 -12 -44 -23 -46 -25 -2 -2 23 -45 56 -96 33
-51 74 -120 92 -153 l33 -60 -37 -65 c-38 -67 -104 -154 -111 -147 -2 2 -7 50
-10 106 -4 70 -3 106 6 115 6 8 11 38 10 68 -1 29 1 62 5 73 5 17 -1 22 -34
33 -23 6 -47 12 -55 12 -19 0 -39 -36 -30 -51 4 -6 6 -61 5 -122 0 -67 3 -115
10 -123 14 -17 4 -211 -11 -229 -15 -19 -9 -93 8 -100 21 -8 162 6 162 16 0 5
16 9 35 9 19 0 35 -4 35 -10 0 -5 18 -10 40 -10 22 0 40 5 40 10 0 15 67 12
74 -2 5 -10 7 -10 12 0 6 13 32 16 58 6 11 -4 13 -14 9 -34 -5 -26 -2 -29 30
-35 69 -13 100 19 77 79 -6 17 -8 59 -4 107 5 56 4 79 -5 79 -6 0 -11 11 -11
25 0 14 5 25 10 25 6 0 10 30 10 70 0 40 -4 70 -10 70 -12 0 -13 47 -1 52 4 2
11 37 14 79 l5 76 -39 12 c-75 23 -75 22 -77 -166 -1 -99 3 -174 9 -186 7 -12
8 -48 4 -96 l-7 -76 -191 2 -192 2 -3 35 c-4 40 4 44 50 20 38 -20 39 -19 106
99 27 49 53 84 56 79 3 -6 23 -53 44 -105 l39 -95 41 18 c23 11 42 23 42 29 0
5 -29 64 -64 132 -60 113 -64 125 -51 148 7 14 31 78 54 141 23 63 51 127 62
142 10 15 19 29 19 32 0 5 -96 36 -112 36 -4 0 -9 -8 -9 -17z"/>
<path d="M63 715 c-13 -19 -23 -37 -23 -39 0 -2 26 -19 58 -36 31 -18 71 -43
89 -56 l32 -24 31 44 30 45 -67 39 c-87 50 -110 62 -120 62 -4 0 -18 -16 -30
-35z"/>
<path d="M169 532 c0 -4 -2 -14 -4 -22 -2 -8 -7 -30 -10 -49 -4 -19 -12 -46
-18 -60 -6 -14 -12 -36 -13 -48 -2 -12 -18 -55 -38 -97 l-34 -75 56 -31 c30
-16 56 -29 57 -27 1 1 12 40 24 87 12 47 27 101 32 120 5 19 12 45 14 57 3 12
10 34 15 48 6 15 10 30 10 34 0 10 -90 73 -91 63z"/>
</g>
</svg>
