<?xml version="1.0" standalone="no"?>
<!DOCTYPE svg PUBLIC "-//W3C//DTD SVG 20010904//EN"
 "http://www.w3.org/TR/2001/REC-SVG-20010904/DTD/svg10.dtd">
<svg version="1.0" xmlns="http://www.w3.org/2000/svg"
 width="101.000000pt" height="101.000000pt" viewBox="0 0 101.000000 101.000000"
 preserveAspectRatio="xMidYMid meet">
<metadata>
Created by potrace 1.16, written by Peter Selinger 2001-2019
</metadata>
<g transform="translate(0.000000,101.000000) scale(0.100000,-0.100000)"
fill="#000000" stroke="none">
<path d="M416 993 c-4 -9 -9 -32 -12 -52 -12 -76 -82 -210 -133 -255 -11 -11
-21 -24 -21 -30 0 -9 62 -41 90 -48 3 0 20 23 38 53 27 46 31 49 26 23 -9 -45
17 -67 70 -61 102 13 245 17 251 7 3 -5 24 -10 45 -10 50 0 74 23 66 63 -3 17
-8 32 -9 34 -3 2 -334 13 -401 13 -4 0 0 13 9 29 11 22 20 28 35 24 11 -3 26
-1 33 5 16 14 174 14 183 1 3 -6 36 -9 73 -8 38 1 73 -1 80 -5 22 -14 49 4 55
38 8 44 -2 70 -23 59 -9 -4 -38 -7 -66 -5 -27 1 -109 3 -181 4 l-132 3 30 43
c16 23 27 46 24 51 -6 10 -91 41 -112 41 -6 0 -15 -7 -18 -17z"/>
<path d="M119 934 l-34 -36 35 -26 c19 -15 56 -47 83 -71 l48 -44 34 33 c19
19 35 37 35 42 0 8 -124 113 -151 128 -12 7 -25 0 -50 -26z"/>
<path d="M54 699 c-14 -22 -24 -42 -22 -43 2 -1 23 -14 48 -28 25 -14 63 -40
85 -58 43 -35 46 -33 81 32 14 27 13 28 -43 66 -32 22 -73 47 -90 56 l-33 16
-26 -41z"/>
<path d="M308 573 c-22 -5 -30 -29 -22 -68 l6 -32 68 -1 c38 -1 72 3 75 8 7
11 110 13 168 4 33 -6 37 -10 37 -35 0 -16 5 -29 11 -29 8 0 10 -23 6 -72 -3
-61 0 -82 18 -123 26 -58 75 -108 127 -129 36 -15 38 -15 69 11 32 27 79 114
78 143 -1 17 -76 86 -85 78 -2 -3 -7 -25 -10 -48 -7 -55 -21 -82 -41 -78 -22
4 -54 49 -55 79 -1 13 -5 29 -9 34 -8 11 -4 192 5 215 14 36 -1 40 -154 40
-19 0 -89 2 -155 3 -66 2 -127 2 -137 0z"/>
<path d="M175 488 c-2 -7 -15 -48 -30 -91 -14 -43 -41 -109 -60 -147 -19 -38
-35 -73 -35 -77 0 -10 83 -63 97 -63 6 0 13 8 16 18 3 9 28 80 56 157 55 155
56 149 -12 197 -21 15 -28 16 -32 6z"/>
</g>
</svg>
