<?xml version="1.0" standalone="no"?>
<!DOCTYPE svg PUBLIC "-//W3C//DTD SVG 20010904//EN"
 "http://www.w3.org/TR/2001/REC-SVG-20010904/DTD/svg10.dtd">
<svg version="1.0" xmlns="http://www.w3.org/2000/svg"
 width="101.000000pt" height="101.000000pt" viewBox="0 0 101.000000 101.000000"
 preserveAspectRatio="xMidYMid meet">
<metadata>
Created by potrace 1.16, written by Peter Selinger 2001-2019
</metadata>
<g transform="translate(0.000000,101.000000) scale(0.100000,-0.100000)"
fill="#000000" stroke="none">
<path d="M653 990 c-20 -8 -21 -12 -12 -46 6 -20 12 -44 14 -53 8 -38 66 -164
94 -205 18 -25 27 -47 21 -51 -5 -3 -83 -4 -172 -1 -90 3 -166 6 -171 6 -4 0
4 18 18 40 22 34 113 221 125 255 2 6 -18 18 -45 28 -52 19 -66 14 -71 -25 -1
-13 -3 -23 -4 -23 -1 0 -4 -13 -6 -30 -7 -61 -75 -178 -145 -248 l-67 -67 33
-14 c18 -8 36 -19 39 -25 12 -19 30 -11 59 26 23 31 27 33 27 15 0 -23 35 -38
69 -29 15 3 17 -1 16 -28 -1 -18 -5 -36 -7 -41 -3 -5 -6 -20 -6 -34 1 -67 -75
-173 -164 -231 -50 -32 -56 -38 -38 -44 11 -3 33 -17 49 -31 l29 -24 51 46
c104 93 172 231 183 372 1 7 15 12 32 12 17 0 47 3 66 6 l35 6 3 -117 c3 -99
1 -120 -14 -136 -9 -10 -14 -27 -11 -39 6 -23 -9 -36 -37 -31 -10 1 -33 0 -51
-3 l-33 -7 19 -52 c10 -28 19 -52 19 -53 0 -10 67 4 107 21 55 25 82 56 84 96
6 156 18 361 22 365 2 2 19 -12 37 -31 19 -19 38 -35 42 -35 10 0 88 80 88 91
0 4 -12 10 -26 13 -60 16 -194 182 -208 260 -3 15 -10 34 -17 42 -6 8 -9 23
-6 33 7 29 -26 39 -70 21z"/>
<path d="M125 950 c-16 -16 -27 -31 -24 -33 2 -2 27 -17 54 -35 28 -17 64 -45
80 -62 16 -16 32 -30 36 -30 4 0 19 16 34 36 26 34 26 36 9 55 -24 26 -133 99
-148 99 -7 0 -25 -13 -41 -30z"/>
<path d="M63 735 c-30 -46 -29 -51 12 -65 20 -7 58 -27 86 -45 l49 -34 26 39
c14 21 23 44 19 50 -5 8 -157 90 -167 90 -2 0 -13 -16 -25 -35z"/>
<path d="M137 400 c-22 -66 -52 -139 -67 -163 l-28 -44 55 -27 c31 -15 57 -25
60 -23 2 3 6 21 9 40 3 27 58 199 89 278 4 12 -4 23 -30 38 -20 11 -39 21 -43
21 -4 0 -24 -54 -45 -120z"/>
</g>
</svg>
