<?xml version="1.0" standalone="no"?>
<!DOCTYPE svg PUBLIC "-//W3C//DTD SVG 20010904//EN"
 "http://www.w3.org/TR/2001/REC-SVG-20010904/DTD/svg10.dtd">
<svg version="1.0" xmlns="http://www.w3.org/2000/svg"
 width="101.000000pt" height="101.000000pt" viewBox="0 0 101.000000 101.000000"
 preserveAspectRatio="xMidYMid meet">
<metadata>
Created by potrace 1.16, written by Peter Selinger 2001-2019
</metadata>
<g transform="translate(0.000000,101.000000) scale(0.100000,-0.100000)"
fill="#000000" stroke="none">
<path d="M550 1004 c-12 -4 -14 -17 -12 -63 4 -72 -11 -91 -73 -91 -24 0 -46
4 -49 9 -8 12 -88 12 -106 1 -9 -6 -29 5 -61 33 -27 23 -61 50 -76 59 -28 16
-29 16 -65 -17 l-36 -34 69 -51 c37 -28 71 -56 75 -61 4 -6 20 3 40 22 l34 33
0 -26 c0 -35 27 -61 54 -53 12 3 57 7 101 8 l80 2 -3 -48 c-2 -27 1 -54 8 -62
8 -10 10 -39 5 -97 l-7 -83 -61 1 -62 0 -3 62 c-2 34 1 62 6 62 6 0 13 12 17
27 5 20 2 31 -11 40 -24 17 -59 16 -77 -2 -17 -16 -22 -121 -7 -130 13 -8 13
-101 0 -126 -9 -15 -7 -19 7 -20 10 -1 23 0 28 1 6 1 42 3 82 4 l71 3 7 -126
c4 -74 12 -134 20 -146 16 -26 82 -48 104 -35 9 4 60 8 113 7 89 -2 98 0 122
22 32 30 66 113 48 119 -6 2 -28 15 -48 28 -20 14 -38 23 -41 20 -2 -2 -7 -19
-10 -38 -7 -46 -21 -68 -41 -68 -10 0 -23 -5 -30 -12 -9 -9 -18 -9 -37 0 -15
7 -30 10 -34 8 -4 -3 -21 -2 -37 3 l-29 7 0 107 c0 85 3 106 13 102 8 -3 33
-5 57 -5 39 0 43 -2 48 -29 5 -22 13 -31 36 -36 17 -4 40 -4 51 0 20 6 21 11
14 131 -5 84 -4 124 4 124 5 0 12 20 14 45 3 45 3 46 -35 56 -77 21 -89 1 -78
-129 l6 -84 -35 6 c-19 3 -48 6 -65 6 l-30 0 3 75 c2 49 0 75 -7 75 -6 0 -11
11 -11 25 0 14 5 25 10 25 6 0 10 19 10 43 l0 42 97 -2 c54 -1 114 -5 134 -9
53 -9 83 28 63 80 -5 13 -23 14 -120 10 -83 -4 -119 -3 -129 6 -8 7 -23 10
-32 8 -15 -4 -18 2 -17 38 0 24 6 50 14 59 15 17 15 17 -23 33 -28 12 -40 13
-67 6z"/>
<path d="M53 705 c-13 -19 -23 -38 -23 -43 0 -4 18 -16 40 -26 22 -10 62 -35
89 -56 l49 -39 27 40 c14 23 24 47 21 54 -5 14 -128 89 -161 99 -15 4 -26 -3
-42 -29z"/>
<path d="M182 482 c-6 -20 -12 -41 -13 -47 -3 -24 -51 -142 -80 -196 -18 -33
-30 -60 -28 -62 2 -1 23 -17 47 -36 24 -18 45 -31 47 -30 2 2 24 67 50 144 26
77 54 153 62 168 17 33 8 48 -45 79 l-29 17 -11 -37z"/>
</g>
</svg>
