<?xml version="1.0" standalone="no"?>
<!DOCTYPE svg PUBLIC "-//W3C//DTD SVG 20010904//EN"
 "http://www.w3.org/TR/2001/REC-SVG-20010904/DTD/svg10.dtd">
<svg version="1.0" xmlns="http://www.w3.org/2000/svg"
 width="101.000000pt" height="101.000000pt" viewBox="0 0 101.000000 101.000000"
 preserveAspectRatio="xMidYMid meet">
<metadata>
Created by potrace 1.16, written by Peter Selinger 2001-2019
</metadata>
<g transform="translate(0.000000,101.000000) scale(0.100000,-0.100000)"
fill="#000000" stroke="none">
<path d="M122 947 c-30 -31 -41 -57 -24 -57 4 0 37 -23 72 -52 l64 -51 25 30
26 31 3 -51 c1 -28 4 -52 6 -54 2 -2 19 -6 38 -9 46 -8 68 14 68 67 0 41 5 44
67 40 11 -1 24 2 27 8 9 13 167 13 183 -1 7 -5 37 -8 66 -6 47 3 53 1 49 -14
-2 -10 -1 -33 2 -52 5 -28 12 -36 36 -41 61 -13 68 -4 68 99 l0 94 -132 0
c-72 0 -158 1 -191 1 -33 1 -84 -1 -113 -5 -33 -4 -64 -1 -82 6 -38 16 -88 5
-92 -21 -3 -17 -10 -14 -63 26 -33 24 -62 45 -66 45 -3 0 -19 -15 -37 -33z"/>
<path d="M71 722 c-11 -16 -21 -33 -23 -39 -2 -6 35 -34 81 -62 l85 -51 23 27
c46 56 46 59 0 86 -62 36 -125 67 -136 67 -5 0 -19 -13 -30 -28z"/>
<path d="M432 712 c-10 -7 -12 -39 -7 -147 5 -121 4 -140 -11 -156 -10 -11
-14 -22 -11 -25 8 -9 -36 -95 -60 -116 -11 -10 -43 -31 -73 -47 l-53 -29 29
-15 c16 -8 38 -24 48 -36 l19 -21 46 36 c25 20 57 49 69 63 26 28 79 136 80
161 0 8 4 56 8 105 4 50 7 101 8 115 1 24 4 25 66 27 l65 2 -4 -50 c-2 -29 2
-56 8 -62 13 -13 15 -54 2 -61 -13 -8 -12 -108 1 -123 6 -8 9 -37 5 -73 -6
-66 2 -83 46 -100 20 -7 34 -7 48 1 12 6 37 8 60 4 58 -10 91 8 117 61 22 45
30 104 13 104 -4 0 -25 11 -46 25 -20 15 -40 24 -42 21 -3 -3 -7 -26 -9 -52
-5 -60 -14 -70 -61 -66 l-38 4 2 71 c1 39 -2 76 -6 81 -13 16 -13 154 -1 161
6 4 10 35 9 70 l-2 63 -96 5 c-144 9 -214 8 -229 -1z"/>
<path d="M164 533 c-4 -15 -8 -32 -9 -38 0 -5 -4 -16 -8 -22 -5 -7 -6 -17 -2
-22 3 -5 1 -12 -4 -15 -4 -3 -9 -16 -9 -28 0 -13 -17 -67 -37 -121 -21 -54
-36 -99 -34 -100 2 -2 25 -16 51 -30 46 -27 47 -27 58 -7 6 11 9 20 6 20 -3 0
0 15 5 33 6 17 12 43 15 58 3 14 20 73 38 132 l34 106 -27 17 c-75 49 -68 47
-77 17z"/>
</g>
</svg>
