<?xml version="1.0" standalone="no"?>
<!DOCTYPE svg PUBLIC "-//W3C//DTD SVG 20010904//EN"
 "http://www.w3.org/TR/2001/REC-SVG-20010904/DTD/svg10.dtd">
<svg version="1.0" xmlns="http://www.w3.org/2000/svg"
 width="101.000000pt" height="102.000000pt" viewBox="0 0 101.000000 102.000000"
 preserveAspectRatio="xMidYMid meet">
<metadata>
Created by potrace 1.16, written by Peter Selinger 2001-2019
</metadata>
<g transform="translate(0.000000,102.000000) scale(0.100000,-0.100000)"
fill="#000000" stroke="none">
<path d="M557 998 c-4 -12 -4 -48 0 -79 l6 -57 -83 -7 c-56 -5 -85 -4 -93 4
-16 16 -43 14 -61 -5 -35 -34 -5 -103 38 -89 20 7 176 9 181 3 1 -2 5 -27 8
-55 l6 -52 -47 5 c-26 3 -64 7 -84 11 -21 3 -50 2 -64 -1 l-26 -7 2 -192 c1
-106 0 -205 -4 -222 -10 -45 5 -60 60 -57 51 2 67 15 59 47 -3 11 -7 90 -8
175 l-2 155 55 0 55 0 0 -242 c0 -267 -4 -254 65 -246 l35 5 -2 66 c-3 76 -3
118 0 290 l2 122 31 0 c17 0 44 3 60 6 l29 5 0 -130 c0 -140 -7 -162 -43 -142
-24 13 -62 15 -62 3 0 -4 9 -25 20 -47 11 -22 20 -45 20 -51 0 -21 39 -23 92
-3 28 10 56 23 61 28 21 21 36 271 16 271 -7 0 -9 27 -7 80 l3 79 -35 6 c-20
3 -49 1 -64 -5 -16 -6 -49 -8 -76 -4 l-48 6 2 52 1 51 120 -2 c66 0 127 -4
136 -8 26 -10 52 23 45 59 -4 16 -12 34 -19 38 -18 11 -127 10 -127 -2 0 -5
-16 -10 -35 -10 -19 0 -35 5 -35 10 0 6 -19 10 -43 10 l-43 0 3 45 c1 25 7 54
12 64 14 25 5 30 -35 24 -22 -4 -34 -2 -34 6 0 21 -38 12 -43 -11z"/>
<path d="M134 949 l-31 -31 70 -70 70 -70 36 36 36 36 -65 65 c-35 36 -69 65
-75 65 -6 0 -24 -14 -41 -31z"/>
<path d="M70 732 l-31 -37 27 -20 c16 -11 47 -37 70 -57 22 -21 46 -38 51 -38
10 0 63 62 63 73 0 3 -33 30 -74 61 l-75 56 -31 -38z"/>
<path d="M189 538 c-1 -2 -3 -12 -5 -23 -11 -76 -49 -182 -90 -251 l-28 -47
49 -43 c28 -23 50 -42 51 -41 5 5 114 337 114 345 0 14 -86 70 -91 60z"/>
</g>
</svg>
