<?xml version="1.0" standalone="no"?>
<!DOCTYPE svg PUBLIC "-//W3C//DTD SVG 20010904//EN"
 "http://www.w3.org/TR/2001/REC-SVG-20010904/DTD/svg10.dtd">
<svg version="1.0" xmlns="http://www.w3.org/2000/svg"
 width="101.000000pt" height="101.000000pt" viewBox="0 0 101.000000 101.000000"
 preserveAspectRatio="xMidYMid meet">
<metadata>
Created by potrace 1.16, written by Peter Selinger 2001-2019
</metadata>
<g transform="translate(0.000000,101.000000) scale(0.100000,-0.100000)"
fill="#000000" stroke="none">
<path d="M598 985 c2 -14 -2 -33 -9 -42 -8 -9 -15 -37 -16 -62 -1 -25 -4 -59
-6 -76 l-4 -30 -122 0 c-131 0 -141 -4 -141 -55 0 -33 13 -51 36 -51 10 0 60
2 110 3 88 3 91 2 88 -19 -4 -41 -26 -98 -75 -193 -52 -103 -114 -182 -195
-251 -29 -24 -52 -48 -51 -54 1 -5 21 -23 46 -39 l46 -29 49 54 c77 85 135
167 177 252 22 43 44 75 49 72 5 -3 26 -32 46 -65 36 -58 37 -59 63 -45 68 36
68 34 11 111 -29 38 -54 71 -56 73 -2 2 -14 0 -26 -6 l-23 -10 24 76 25 76 77
1 77 2 4 -30 c3 -16 1 -31 -4 -34 -5 -4 -8 -25 -7 -48 2 -23 -1 -47 -5 -54 -4
-6 -7 -28 -6 -49 0 -21 -3 -60 -6 -88 -3 -27 -7 -67 -9 -88 -5 -57 -18 -68
-79 -61 -57 6 -87 -6 -69 -28 6 -7 17 -32 23 -55 14 -44 36 -58 74 -43 11 4
42 16 69 25 38 13 52 25 68 56 11 22 17 44 14 49 -3 5 -1 18 5 29 9 18 18 104
26 266 4 83 13 174 20 212 6 31 5 32 -37 38 -24 3 -83 4 -132 3 -88 -3 -94 0
-78 30 5 9 12 41 15 71 3 30 10 59 16 65 23 23 10 44 -34 55 -66 16 -74 15
-68 -14z"/>
<path d="M141 946 l-32 -33 64 -52 c36 -28 67 -58 71 -66 3 -8 11 -15 19 -15
14 0 83 67 76 74 -18 18 -155 126 -159 126 -3 0 -21 -15 -39 -34z"/>
<path d="M398 962 l-36 -17 38 -63 c22 -35 41 -69 43 -75 3 -10 97 22 97 33 0
11 -85 134 -95 137 -5 1 -27 -5 -47 -15z"/>
<path d="M83 705 c-30 -45 -29 -50 7 -65 17 -7 56 -30 86 -52 31 -21 57 -38
58 -36 2 2 15 19 29 39 15 20 27 40 27 45 0 10 -160 104 -176 104 -5 0 -19
-16 -31 -35z"/>
<path d="M175 482 c-4 -9 -9 -28 -11 -42 -7 -38 -44 -148 -70 -207 l-23 -52
45 -32 c37 -25 48 -29 55 -18 5 8 9 19 9 25 0 10 72 240 87 280 3 8 -1 14 -7
14 -7 0 -28 11 -46 25 -29 22 -33 23 -39 7z"/>
</g>
</svg>
