<?xml version="1.0" standalone="no"?>
<!DOCTYPE svg PUBLIC "-//W3C//DTD SVG 20010904//EN"
 "http://www.w3.org/TR/2001/REC-SVG-20010904/DTD/svg10.dtd">
<svg version="1.0" xmlns="http://www.w3.org/2000/svg"
 width="101.000000pt" height="101.000000pt" viewBox="0 0 101.000000 101.000000"
 preserveAspectRatio="xMidYMid meet">
<metadata>
Created by potrace 1.16, written by Peter Selinger 2001-2019
</metadata>
<g transform="translate(0.000000,101.000000) scale(0.100000,-0.100000)"
fill="#000000" stroke="none">
<path d="M555 931 l1 -79 -65 -7 c-45 -5 -66 -4 -69 4 -2 6 -25 11 -52 11 -54
0 -64 -12 -54 -65 l6 -33 116 2 117 1 0 -58 0 -57 -79 5 c-44 2 -90 2 -103 -1
-25 -7 -39 -40 -28 -73 6 -20 12 -21 116 -16 l110 4 -3 -62 -3 -62 -127 2
-127 2 -6 -29 c-8 -38 2 -70 23 -71 37 -4 87 4 93 13 4 6 32 7 73 3 51 -6 66
-11 62 -21 -3 -8 -1 -25 5 -37 8 -17 7 -40 -2 -83 -12 -59 -14 -123 -3 -133
10 -10 87 -2 95 10 4 7 1 29 -6 50 -9 24 -12 63 -9 101 2 35 5 72 5 83 2 22
30 26 201 25 85 -1 88 0 94 24 15 60 12 61 -146 61 l-145 0 3 58 c4 53 6 57
28 57 13 0 24 5 24 10 0 14 116 12 140 -2 17 -11 22 -10 31 2 9 14 5 67 -6 78
-2 3 -54 5 -114 6 l-109 1 5 50 c3 28 7 52 9 54 1 2 59 4 128 5 139 1 145 4
131 65 l-6 29 -132 -1 -132 -2 2 50 c1 28 5 62 9 78 6 27 6 27 -47 27 l-54 0
0 -79z"/>
<path d="M119 944 c-31 -32 -32 -36 -16 -45 9 -6 47 -33 83 -60 l65 -51 34 39
c18 21 31 41 28 46 -6 10 -144 107 -153 107 -3 0 -22 -16 -41 -36z"/>
<path d="M56 710 l-26 -40 72 -36 c40 -20 81 -43 91 -52 15 -14 19 -14 35 1 9
9 25 29 34 45 l18 30 -89 46 c-49 25 -93 46 -99 46 -5 0 -21 -18 -36 -40z"/>
<path d="M184 512 c-4 -15 -10 -31 -14 -37 -4 -5 -8 -17 -8 -25 -1 -26 -13
-72 -23 -92 -5 -10 -7 -18 -5 -18 7 0 -17 -67 -43 -120 -12 -24 -21 -45 -21
-46 0 -1 23 -16 51 -34 32 -19 55 -28 61 -22 5 5 11 29 13 53 2 24 18 89 35
144 17 55 32 107 35 115 16 55 16 55 -30 82 l-45 27 -6 -27z"/>
</g>
</svg>
