<?xml version="1.0" standalone="no"?>
<!DOCTYPE svg PUBLIC "-//W3C//DTD SVG 20010904//EN"
 "http://www.w3.org/TR/2001/REC-SVG-20010904/DTD/svg10.dtd">
<svg version="1.0" xmlns="http://www.w3.org/2000/svg"
 width="101.000000pt" height="101.000000pt" viewBox="0 0 101.000000 101.000000"
 preserveAspectRatio="xMidYMid meet">
<metadata>
Created by potrace 1.16, written by Peter Selinger 2001-2019
</metadata>
<g transform="translate(0.000000,101.000000) scale(0.100000,-0.100000)"
fill="#000000" stroke="none">
<path d="M110 945 c-18 -19 -32 -36 -29 -38 2 -2 27 -17 54 -35 28 -17 64 -45
80 -62 16 -16 34 -30 41 -30 7 0 26 18 44 39 l31 40 -83 60 c-45 34 -87 61
-93 61 -6 0 -26 -16 -45 -35z"/>
<path d="M349 963 c-12 -3 -17 -15 -17 -43 0 -22 3 -42 8 -45 12 -8 11 -173
-1 -180 -12 -8 -12 -142 1 -150 13 -8 13 -52 0 -60 -7 -4 -9 -66 -7 -168 l3
-162 147 -3 c96 -2 147 1 147 8 0 5 20 10 45 10 25 0 45 -4 45 -10 0 -5 40 -9
99 -7 91 2 100 4 105 22 17 62 -11 96 -62 76 -42 -16 -289 -26 -306 -12 -8 7
-37 10 -70 9 l-56 -4 6 157 c4 109 3 159 -5 163 -14 9 -14 53 -1 61 6 3 10 32
10 63 l0 56 61 -59 c33 -33 74 -77 91 -97 l30 -38 -23 -37 c-13 -21 -54 -71
-93 -110 -38 -40 -67 -74 -65 -75 2 -2 24 -13 49 -26 l45 -23 23 28 c13 15 46
61 74 102 l50 74 45 -69 c25 -38 49 -79 54 -92 l9 -22 42 26 c24 15 45 28 47
30 6 5 -19 39 -92 131 l-66 82 41 93 c22 51 49 101 59 110 20 17 20 17 -1 28
-40 22 -100 39 -105 31 -2 -5 -7 -26 -11 -47 -3 -22 -8 -42 -11 -47 -2 -4 -6
-18 -9 -31 -2 -14 -8 -34 -12 -46 -8 -20 -10 -19 -48 22 -21 24 -53 60 -71 82
l-31 38 -38 -26 c-21 -14 -40 -24 -42 -21 -2 2 -5 26 -5 54 l-2 51 43 0 c23 0
42 5 42 10 0 6 16 10 35 10 19 0 35 -4 35 -10 0 -6 30 -10 70 -10 40 0 70 4
70 10 0 6 11 10 25 10 14 0 25 -5 25 -11 0 -6 23 -9 59 -8 58 2 59 3 65 34 12
60 3 66 -78 57 -39 -4 -93 -6 -121 -5 -27 1 -111 4 -187 7 -75 2 -140 6 -145
8 -4 3 -15 3 -24 1z"/>
<path d="M53 725 c-30 -45 -29 -50 8 -65 17 -7 58 -30 90 -52 33 -21 61 -38
63 -38 2 0 16 19 31 41 22 35 25 44 13 54 -17 17 -160 95 -173 95 -5 0 -20
-16 -32 -35z"/>
<path d="M169 533 c-2 -21 -8 -46 -15 -61 -4 -9 -8 -24 -10 -32 -5 -39 -29
-112 -60 -179 -19 -41 -34 -75 -34 -77 0 -8 93 -64 98 -59 6 6 58 170 67 211
3 12 16 51 30 88 29 77 29 76 13 76 -7 0 -24 9 -38 20 -26 20 -49 26 -51 13z"/>
</g>
</svg>
