<?xml version="1.0" standalone="no"?>
<!DOCTYPE svg PUBLIC "-//W3C//DTD SVG 20010904//EN"
 "http://www.w3.org/TR/2001/REC-SVG-20010904/DTD/svg10.dtd">
<svg version="1.0" xmlns="http://www.w3.org/2000/svg"
 width="101.000000pt" height="101.000000pt" viewBox="0 0 101.000000 101.000000"
 preserveAspectRatio="xMidYMid meet">
<metadata>
Created by potrace 1.16, written by Peter Selinger 2001-2019
</metadata>
<g transform="translate(0.000000,101.000000) scale(0.100000,-0.100000)"
fill="#000000" stroke="none">
<path d="M462 947 c-39 -79 -118 -183 -172 -228 l-41 -35 44 -32 c44 -31 45
-31 62 -12 25 27 30 20 30 -42 -1 -39 -4 -52 -14 -50 -8 2 -21 0 -30 -4 -16
-7 -26 -10 -48 -12 -16 -2 -17 -33 -1 -67 9 -20 17 -25 32 -21 12 3 31 9 42
12 26 7 25 13 27 -176 l2 -135 28 -13 c28 -14 96 -25 132 -22 11 1 79 3 150 4
185 3 223 25 241 133 6 39 6 40 -45 65 -30 14 -51 20 -52 14 -7 -72 -11 -83
-35 -104 -15 -13 -33 -21 -41 -18 -7 3 -31 -2 -53 -10 -27 -11 -49 -14 -67 -8
-16 4 -37 9 -48 10 -11 1 -40 5 -65 8 -24 3 -50 12 -56 21 -19 25 -28 129 -14
155 7 13 10 42 7 67 -2 24 -2 42 0 39 3 -3 13 -2 22 3 9 5 27 11 41 14 l25 6
-3 -107 c-1 -59 0 -117 3 -128 5 -24 31 -34 69 -27 l25 5 -2 137 -2 138 35 12
c19 6 47 13 63 16 26 4 27 3 27 -46 0 -59 -23 -100 -54 -98 -53 5 -54 3 -37
-51 15 -48 17 -50 46 -44 46 10 83 32 102 61 15 22 18 53 20 160 1 73 -1 133
-6 133 -5 0 -27 -6 -49 -14 -22 -8 -43 -12 -46 -9 -3 3 -11 1 -19 -5 -7 -6
-28 -13 -47 -15 l-35 -4 2 57 c2 54 1 56 -29 68 -22 8 -36 8 -51 1 -18 -10
-19 -18 -13 -85 5 -57 4 -74 -6 -75 -14 -1 -32 -5 -63 -14 -19 -6 -20 -2 -18
49 2 47 0 56 -17 61 -11 3 -24 3 -30 0 -5 -3 -14 -3 -20 0 -6 4 3 22 20 43 28
35 33 37 77 35 25 -2 51 1 58 7 15 13 167 11 182 -2 19 -16 172 -5 184 13 9
13 5 67 -5 76 -2 3 -21 0 -43 -6 -49 -14 -183 -14 -183 -1 0 6 -18 10 -40 10
-22 0 -40 -4 -40 -10 0 -5 -25 -10 -56 -10 -63 0 -63 0 -19 70 14 22 32 43 40
47 24 9 17 23 -20 39 -59 24 -69 20 -103 -49z"/>
<path d="M134 939 l-29 -31 29 -22 c16 -11 57 -44 91 -73 l62 -52 32 39 31 39
-77 65 c-43 36 -85 65 -94 66 -8 0 -28 -14 -45 -31z"/>
<path d="M67 732 c-32 -34 -34 -48 -6 -57 11 -4 49 -28 84 -55 l64 -48 25 37
c14 20 26 40 26 44 0 8 -146 107 -158 107 -4 0 -20 -13 -35 -28z"/>
<path d="M179 535 c-2 -19 -4 -25 -14 -48 -4 -10 -5 -20 -2 -23 7 -8 -37 -168
-62 -228 -12 -27 -20 -50 -19 -51 97 -69 106 -70 114 -17 4 27 10 59 18 97 3
11 7 34 10 50 3 17 12 53 21 80 27 84 28 103 7 109 -11 4 -27 15 -37 26 -22
24 -35 26 -36 5z"/>
</g>
</svg>
