<?xml version="1.0" standalone="no"?>
<!DOCTYPE svg PUBLIC "-//W3C//DTD SVG 20010904//EN"
 "http://www.w3.org/TR/2001/REC-SVG-20010904/DTD/svg10.dtd">
<svg version="1.0" xmlns="http://www.w3.org/2000/svg"
 width="101.000000pt" height="101.000000pt" viewBox="0 0 101.000000 101.000000"
 preserveAspectRatio="xMidYMid meet">
<metadata>
Created by potrace 1.16, written by Peter Selinger 2001-2019
</metadata>
<g transform="translate(0.000000,101.000000) scale(0.100000,-0.100000)"
fill="#000000" stroke="none">
<path d="M131 955 c-17 -20 -31 -37 -31 -39 0 -2 24 -19 53 -39 28 -20 66 -48
83 -62 l32 -26 32 40 c17 23 28 45 25 51 -8 13 -145 110 -156 110 -4 0 -21
-16 -38 -35z"/>
<path d="M425 936 c-4 -19 -2 -43 4 -54 29 -54 -15 -155 -91 -210 l-50 -35 38
-33 c22 -18 43 -33 47 -34 4 0 31 21 58 47 64 60 88 103 94 173 4 49 17 80 34
80 9 0 22 5 28 11 5 5 30 9 53 7 42 -3 43 -4 43 -38 0 -20 -3 -48 -7 -64 -9
-35 10 -130 29 -146 25 -21 127 -33 196 -23 33 5 37 8 37 37 1 17 3 42 4 56 3
23 0 25 -32 23 -19 -1 -51 -3 -70 -6 -22 -3 -41 1 -52 11 -19 16 -24 57 -8 67
5 3 9 31 9 63 1 31 1 65 2 76 0 27 -8 31 -36 18 -32 -15 -105 -16 -105 -2 0 6
-18 10 -40 10 -22 0 -40 -4 -40 -10 0 -5 -25 -10 -55 -10 -30 0 -55 5 -55 10
0 6 -7 10 -15 10 -8 0 -17 -14 -20 -34z"/>
<path d="M76 723 c-17 -35 -17 -38 0 -50 10 -7 21 -13 25 -13 5 0 31 -13 59
-30 28 -16 55 -30 60 -30 9 0 50 62 50 77 0 10 -147 83 -166 83 -6 0 -18 -17
-28 -37z"/>
<path d="M810 560 c-8 -5 -109 -6 -225 -3 l-211 6 -2 -207 c0 -114 -3 -210 -6
-214 -8 -13 9 -31 29 -33 11 -1 35 -1 52 -1 32 2 33 2 29 46 -4 39 -2 44 17
45 12 0 56 3 97 6 41 3 93 3 115 0 40 -5 41 -7 42 -46 1 -23 5 -44 8 -47 7 -7
85 -5 93 2 3 3 5 39 4 78 -1 40 -2 98 -2 128 -1 30 2 81 5 113 11 98 -8 150
-45 127z m-65 -185 l0 -95 -40 -5 c-22 -3 -74 -3 -115 0 -41 3 -86 6 -99 6
-22 1 -23 3 -17 52 3 29 6 70 6 92 l0 40 133 3 132 2 0 -95z"/>
<path d="M175 550 c-3 -5 -4 -14 0 -19 3 -5 1 -12 -3 -15 -5 -3 -9 -18 -10
-33 -1 -35 -36 -150 -68 -221 -13 -30 -24 -60 -24 -66 0 -11 83 -66 99 -66 7
0 72 201 86 265 3 11 10 42 16 68 6 26 10 49 8 51 -18 12 -82 46 -89 46 -5 0
-12 -4 -15 -10z"/>
</g>
</svg>
