<?xml version="1.0" standalone="no"?>
<!DOCTYPE svg PUBLIC "-//W3C//DTD SVG 20010904//EN"
 "http://www.w3.org/TR/2001/REC-SVG-20010904/DTD/svg10.dtd">
<svg version="1.0" xmlns="http://www.w3.org/2000/svg"
 width="101.000000pt" height="101.000000pt" viewBox="0 0 101.000000 101.000000"
 preserveAspectRatio="xMidYMid meet">
<metadata>
Created by potrace 1.16, written by Peter Selinger 2001-2019
</metadata>
<g transform="translate(0.000000,101.000000) scale(0.100000,-0.100000)"
fill="#000000" stroke="none">
<path d="M462 978 c0 -18 4 -38 9 -45 6 -6 9 -24 7 -39 -3 -28 -4 -28 -74 -26
-69 1 -72 1 -78 -24 -15 -58 9 -75 94 -71 l45 2 2 -48 3 -48 -80 7 -80 7 -11
-29 c-6 -17 -9 -62 -6 -109 2 -44 1 -90 -4 -101 -14 -40 -1 -62 35 -60 18 2
38 6 45 10 6 4 29 5 51 1 l38 -6 -11 -34 c-21 -58 -74 -123 -134 -162 -73 -47
-71 -45 -55 -50 7 -3 26 -16 41 -29 16 -13 33 -24 39 -24 15 0 116 101 145
146 15 22 36 65 46 94 19 54 20 54 64 57 41 3 45 1 46 -19 0 -13 3 -61 6 -107
3 -46 2 -105 -3 -131 -10 -54 -3 -61 55 -53 40 6 47 26 26 70 -13 29 -14 41
-5 65 6 16 8 37 6 46 -4 12 -2 11 7 -3 7 -11 14 -29 15 -40 1 -11 3 -23 3 -26
2 -13 44 -17 74 -7 71 24 86 61 99 238 4 50 2 51 -79 50 -129 -2 -121 -6 -119
59 l1 56 86 0 87 0 -1 138 -1 139 -26 -6 c-15 -2 -52 -2 -83 1 l-55 6 -4 38
c-2 21 0 49 4 60 11 29 6 32 -47 33 -53 1 -57 -6 -50 -85 l4 -54 -42 0 -42 0
3 73 4 72 -50 0 c-48 0 -49 0 -50 -32z m186 -244 l-3 -47 -48 -1 c-48 -1 -48
-1 -43 28 3 16 6 34 6 42 0 7 15 14 38 17 20 2 41 4 45 5 4 1 7 -19 5 -44z
m157 -4 l0 -45 -40 0 -40 0 3 45 c4 44 4 45 40 45 l37 1 0 -46z m-349 -144 c1
-1 4 -25 8 -54 l7 -52 -48 3 c-46 3 -48 4 -45 33 2 32 9 78 11 81 1 2 64 -8
67 -11z m179 -46 l0 -60 -45 3 c-43 3 -45 4 -42 33 1 16 3 39 3 51 1 18 8 23
43 26 22 2 41 4 41 5 0 1 0 -25 0 -58z m188 -185 c-2 -58 -20 -77 -67 -68 -45
8 -52 18 -39 54 7 17 9 37 6 46 -5 11 -1 14 13 9 10 -3 26 -1 34 4 8 6 24 9
35 8 17 -3 20 -10 18 -53z"/>
<path d="M133 949 l-31 -32 54 -44 c29 -24 58 -53 64 -63 6 -11 16 -20 23 -20
15 0 67 51 67 66 0 11 -127 124 -139 124 -3 0 -21 -14 -38 -31z"/>
<path d="M80 715 c-29 -30 -32 -37 -20 -45 8 -5 18 -10 22 -10 4 0 32 -20 62
-45 31 -25 59 -45 64 -45 17 0 64 59 59 74 -5 13 -111 90 -140 101 -7 3 -28
-11 -47 -30z"/>
<path d="M170 487 c-26 -103 -64 -215 -85 -255 l-24 -42 44 -30 c56 -39 72
-38 66 2 0 4 19 73 44 153 25 79 45 148 45 152 -1 4 -18 20 -40 35 l-39 27
-11 -42z"/>
</g>
</svg>
