<?xml version="1.0" standalone="no"?>
<!DOCTYPE svg PUBLIC "-//W3C//DTD SVG 20010904//EN"
 "http://www.w3.org/TR/2001/REC-SVG-20010904/DTD/svg10.dtd">
<svg version="1.0" xmlns="http://www.w3.org/2000/svg"
 width="101.000000pt" height="101.000000pt" viewBox="0 0 101.000000 101.000000"
 preserveAspectRatio="xMidYMid meet">
<metadata>
Created by potrace 1.16, written by Peter Selinger 2001-2019
</metadata>
<g transform="translate(0.000000,101.000000) scale(0.100000,-0.100000)"
fill="#000000" stroke="none">
<path d="M477 979 c-26 -10 -62 -21 -79 -24 -18 -3 -38 -11 -45 -17 -7 -5 -20
-8 -28 -4 -12 4 -15 -5 -15 -49 0 -30 5 -55 10 -55 6 0 10 -16 10 -35 0 -19
-4 -35 -10 -35 -6 0 -10 -30 -10 -70 0 -40 4 -70 10 -70 6 0 10 -11 10 -25 0
-14 -5 -25 -11 -25 -6 0 -9 -21 -8 -55 2 -33 -2 -60 -9 -67 -7 -7 -12 -18 -12
-25 0 -12 26 -70 35 -81 2 -2 36 23 76 57 49 39 76 56 81 48 4 -6 2 -17 -4
-24 -5 -7 -8 -19 -5 -26 8 -22 -28 -89 -69 -129 -22 -20 -65 -49 -98 -64 l-58
-26 40 -41 41 -40 42 27 c82 55 131 109 165 182 l33 71 -5 137 c-3 88 -1 142
5 150 6 7 10 39 10 72 0 32 2 68 6 79 5 17 -1 22 -34 32 -42 13 -66 10 -74
-10 -7 -19 5 -117 14 -117 5 0 9 -34 9 -75 l0 -74 -47 -36 -48 -37 -7 39 c-10
57 -9 111 2 118 6 4 9 49 8 116 -2 67 1 110 7 110 6 1 21 3 35 5 180 24 188
29 140 79 -38 40 -46 40 -113 14z"/>
<path d="M106 956 c-14 -19 -26 -37 -26 -40 0 -2 17 -15 38 -28 20 -12 54 -38
76 -58 l38 -35 34 40 c19 22 34 42 34 45 0 6 -152 110 -161 110 -4 0 -18 -15
-33 -34z"/>
<path d="M650 942 c-18 -8 -26 -57 -11 -66 13 -8 13 -173 0 -181 -12 -8 -12
-142 1 -150 13 -8 13 -52 0 -60 -13 -8 -12 -206 2 -222 11 -13 6 -111 -7 -145
-7 -19 18 -27 62 -21 25 4 32 11 37 35 10 49 7 148 -4 148 -6 0 -10 32 -10 75
0 43 4 75 10 75 6 0 10 23 10 50 0 28 -4 50 -10 50 -5 0 -10 11 -10 25 0 14 5
25 10 25 6 0 10 30 10 70 0 40 -4 70 -10 70 -5 0 -10 11 -10 25 0 14 5 25 10
25 6 0 10 18 10 39 0 38 1 39 38 42 l37 4 2 -125 c5 -309 6 -297 -19 -315 -13
-8 -30 -15 -40 -15 -16 0 -16 -4 4 -47 13 -27 23 -50 24 -51 6 -10 95 40 107
60 19 29 35 282 19 292 -13 8 -15 173 -2 181 9 6 12 66 4 95 -3 12 -27 15
-126 17 -68 1 -130 -2 -138 -5z"/>
<path d="M56 718 l-25 -42 91 -48 c70 -37 94 -45 100 -36 13 20 38 66 38 72 0
6 -120 73 -153 85 -24 9 -28 7 -51 -31z"/>
<path d="M169 532 c-1 -9 0 -25 1 -35 1 -10 -3 -24 -8 -30 -5 -7 -13 -25 -17
-42 -5 -16 -9 -33 -10 -37 -2 -5 -4 -9 -5 -10 -1 -2 -4 -14 -5 -29 -2 -14 -16
-55 -30 -92 -15 -38 -26 -69 -24 -71 2 -1 23 -17 46 -35 31 -23 44 -29 47 -19
5 14 24 87 27 103 1 6 8 33 16 60 8 28 16 61 19 75 2 14 12 47 21 75 11 34 13
50 5 53 -6 2 -27 14 -47 27 -31 22 -35 22 -36 7z"/>
</g>
</svg>
