<?xml version="1.0" standalone="no"?>
<!DOCTYPE svg PUBLIC "-//W3C//DTD SVG 20010904//EN"
 "http://www.w3.org/TR/2001/REC-SVG-20010904/DTD/svg10.dtd">
<svg version="1.0" xmlns="http://www.w3.org/2000/svg"
 width="101.000000pt" height="102.000000pt" viewBox="0 0 101.000000 102.000000"
 preserveAspectRatio="xMidYMid meet">
<metadata>
Created by potrace 1.16, written by Peter Selinger 2001-2019
</metadata>
<g transform="translate(0.000000,102.000000) scale(0.100000,-0.100000)"
fill="#000000" stroke="none">
<path d="M574 1007 c-16 -6 -30 -11 -32 -12 -4 -4 32 -79 41 -86 10 -7 4 -52
-8 -61 -14 -11 -93 -10 -100 1 -3 5 -33 9 -66 9 l-60 -1 1 -81 c1 -45 -1 -95
-3 -113 -4 -28 -2 -33 23 -38 15 -3 39 -3 52 0 22 6 26 14 32 60 3 29 4 59 1
67 -4 10 13 13 77 15 118 3 150 3 216 0 l57 -2 -3 -46 c-5 -64 10 -89 53 -89
54 0 64 19 64 113 0 46 -4 89 -9 96 -6 11 -28 12 -102 7 -75 -6 -100 -4 -123
8 -20 11 -24 16 -12 16 23 0 22 8 -9 84 -27 68 -32 71 -90 53z"/>
<path d="M151 946 l-32 -33 28 -18 c15 -10 50 -36 76 -58 l48 -40 35 34 c19
18 34 35 34 38 0 6 -144 111 -152 111 -2 0 -19 -15 -37 -34z"/>
<path d="M73 703 c-23 -30 -25 -37 -13 -45 8 -5 50 -28 93 -53 l77 -43 25 36
c14 20 25 41 25 47 0 9 -159 95 -175 95 -2 0 -17 -16 -32 -37z"/>
<path d="M316 575 c-18 -19 -21 -62 -5 -85 8 -11 12 -12 16 -2 5 14 55 15 178
6 l80 -7 0 -141 0 -141 -24 3 c-13 2 -39 1 -57 -3 -33 -6 -34 -6 -18 -30 9
-13 17 -36 18 -50 2 -14 5 -28 8 -30 19 -19 128 7 154 36 15 16 18 46 22 184
l5 165 71 2 c39 2 94 2 123 1 50 -2 51 -1 57 31 11 56 1 67 -53 60 -91 -11
-491 -4 -537 11 -13 4 -27 1 -38 -10z"/>
<path d="M186 498 c-3 -7 -4 -20 -4 -28 -1 -46 -41 -169 -83 -253 -17 -32 -29
-60 -27 -61 12 -9 97 -56 101 -56 2 0 9 19 16 43 6 23 30 98 52 166 l39 124
-41 38 c-47 44 -48 44 -53 27z"/>
</g>
</svg>
