<?xml version="1.0" standalone="no"?>
<!DOCTYPE svg PUBLIC "-//W3C//DTD SVG 20010904//EN"
 "http://www.w3.org/TR/2001/REC-SVG-20010904/DTD/svg10.dtd">
<svg version="1.0" xmlns="http://www.w3.org/2000/svg"
 width="101.000000pt" height="101.000000pt" viewBox="0 0 101.000000 101.000000"
 preserveAspectRatio="xMidYMid meet">
<metadata>
Created by potrace 1.16, written by Peter Selinger 2001-2019
</metadata>
<g transform="translate(0.000000,101.000000) scale(0.100000,-0.100000)"
fill="#000000" stroke="none">
<path d="M137 954 c-16 -19 -27 -37 -25 -38 1 -2 30 -21 63 -43 34 -23 67 -48
74 -57 7 -9 19 -16 25 -16 19 0 69 57 63 72 -5 15 -149 118 -164 118 -4 0 -21
-16 -36 -36z"/>
<path d="M398 964 c-21 -6 -33 -63 -23 -101 10 -34 10 -187 1 -202 -4 -6 -7
-37 -6 -68 0 -66 -4 -110 -15 -136 -4 -10 -5 -20 -2 -23 9 -9 -22 -104 -51
-157 -14 -27 -41 -61 -59 -77 -36 -32 -40 -40 -19 -40 7 0 30 -12 51 -26 l39
-26 18 24 c45 56 109 212 124 301 12 71 23 193 18 207 -3 13 3 15 28 12 l33
-4 -3 -78 c-2 -48 1 -81 7 -85 13 -8 14 -52 2 -59 -13 -8 -12 -108 1 -123 6
-7 8 -29 5 -48 -3 -19 -1 -50 4 -69 8 -29 17 -37 55 -50 30 -10 52 -12 63 -7
9 5 53 8 98 8 101 -2 129 14 157 93 19 52 19 54 2 64 -10 6 -32 22 -48 35 -33
27 -38 25 -45 -20 -9 -61 -20 -77 -63 -90 -30 -9 -46 -9 -65 -1 -14 6 -31 9
-39 6 -20 -8 -28 10 -29 73 l-2 56 103 58 c57 32 106 58 110 58 13 -2 27 1 42
11 12 8 8 16 -25 50 -43 44 -56 48 -76 24 -15 -18 -120 -91 -143 -100 -13 -5
-15 5 -11 66 2 39 9 78 16 86 15 19 -1 38 -34 39 -12 1 -24 6 -27 11 -6 10
127 17 150 7 8 -4 41 -7 72 -7 l57 -1 -5 113 c-4 81 -3 117 6 127 7 8 10 25 7
37 -6 22 -11 23 -79 20 -40 -1 -97 -5 -125 -9 -32 -3 -58 -1 -66 5 -7 6 -35
10 -62 10 -28 0 -68 2 -90 5 -22 3 -48 3 -57 1z m232 -95 c0 -7 25 -9 73 -7
l72 3 2 -62 2 -61 -152 1 -152 2 0 58 0 57 43 0 c23 0 42 5 42 10 0 6 16 10
35 10 19 0 35 -5 35 -11z"/>
<path d="M77 730 l-28 -40 32 -18 c17 -9 58 -36 90 -59 33 -24 61 -43 63 -43
5 0 56 75 56 82 0 6 -151 105 -172 113 -7 3 -26 -13 -41 -35z"/>
<path d="M169 523 c-1 -10 -1 -24 0 -31 1 -8 -3 -20 -9 -27 -6 -7 -13 -26 -16
-42 -9 -52 -36 -128 -65 -179 l-28 -52 55 -36 c29 -20 54 -35 55 -34 0 2 16
57 35 123 19 66 36 129 39 139 2 10 10 35 16 54 11 34 10 36 -27 68 -45 38
-54 41 -55 17z"/>
</g>
</svg>
