<?xml version="1.0" standalone="no"?>
<!DOCTYPE svg PUBLIC "-//W3C//DTD SVG 20010904//EN"
 "http://www.w3.org/TR/2001/REC-SVG-20010904/DTD/svg10.dtd">
<svg version="1.0" xmlns="http://www.w3.org/2000/svg"
 width="101.000000pt" height="101.000000pt" viewBox="0 0 101.000000 101.000000"
 preserveAspectRatio="xMidYMid meet">
<metadata>
Created by potrace 1.16, written by Peter Selinger 2001-2019
</metadata>
<g transform="translate(0.000000,101.000000) scale(0.100000,-0.100000)"
fill="#000000" stroke="none">
<path d="M570 990 c0 -11 5 -20 10 -20 13 0 13 -87 1 -94 -20 -13 -131 -19
-144 -8 -20 17 -76 12 -81 -7 -8 -30 -5 -90 4 -96 13 -8 11 -173 -1 -181 -6
-3 -9 -27 -8 -53 1 -26 0 -52 -4 -58 -4 -6 -6 -22 -6 -34 4 -62 -35 -160 -92
-231 -16 -20 -29 -40 -29 -45 1 -4 21 -18 45 -30 l44 -22 14 22 c73 112 122
263 127 393 0 12 266 31 277 20 12 -11 -67 -196 -83 -196 -8 0 -62 116 -69
148 -6 29 -10 33 -28 28 -12 -4 -34 -9 -49 -12 -16 -4 -28 -12 -28 -20 0 -17
65 -140 94 -179 l24 -31 -46 -32 c-26 -17 -74 -43 -107 -58 -33 -14 -61 -27
-63 -29 -2 -2 14 -19 35 -38 37 -34 38 -35 68 -20 16 9 62 38 101 64 39 27 73
49 77 49 3 0 30 -14 58 -31 53 -31 178 -85 182 -78 40 72 50 101 37 109 -8 5
-17 7 -21 4 -9 -5 -134 33 -171 52 l-27 14 39 77 c34 66 100 242 100 266 0 4
-9 3 -19 -3 -11 -5 -51 -10 -89 -10 l-69 0 1 83 1 82 62 2 c68 2 63 8 46 -62
-3 -16 3 -22 33 -32 46 -14 60 -9 70 25 4 15 8 32 10 37 8 30 16 64 21 94 4
27 2 33 -9 28 -34 -12 -148 -19 -148 -8 0 6 -17 11 -40 11 -38 0 -40 2 -42 33
0 17 0 43 1 56 3 31 -13 41 -66 41 -36 0 -43 -3 -43 -20z m-45 -210 l42 0 7
-71 c4 -39 5 -73 2 -76 -2 -3 -31 -2 -64 2 l-59 7 1 74 c1 57 4 73 14 69 8 -3
33 -5 57 -5z"/>
<path d="M126 946 l-26 -34 28 -17 c15 -10 51 -36 80 -58 l53 -40 29 28 c37
35 37 45 2 70 -57 41 -124 85 -132 85 -4 0 -19 -15 -34 -34z"/>
<path d="M75 713 c-11 -21 -21 -41 -23 -45 -2 -5 2 -8 10 -8 7 0 48 -17 90
-39 l77 -38 26 39 c25 38 26 40 8 53 -15 12 -63 34 -159 71 -5 3 -19 -12 -29
-33z"/>
<path d="M173 515 c-3 -9 -3 -18 0 -21 3 -3 -1 -27 -9 -52 -8 -26 -17 -58 -20
-71 -3 -13 -19 -60 -35 -103 -30 -76 -30 -80 -12 -93 51 -39 93 -44 93 -12 0
7 16 69 35 138 53 186 53 180 6 207 -47 26 -50 27 -58 7z"/>
</g>
</svg>
