<?xml version="1.0" standalone="no"?>
<!DOCTYPE svg PUBLIC "-//W3C//DTD SVG 20010904//EN"
 "http://www.w3.org/TR/2001/REC-SVG-20010904/DTD/svg10.dtd">
<svg version="1.0" xmlns="http://www.w3.org/2000/svg"
 width="101.000000pt" height="101.000000pt" viewBox="0 0 101.000000 101.000000"
 preserveAspectRatio="xMidYMid meet">
<metadata>
Created by potrace 1.16, written by Peter Selinger 2001-2019
</metadata>
<g transform="translate(0.000000,101.000000) scale(0.100000,-0.100000)"
fill="#000000" stroke="none">
<path d="M88 973 c-21 -5 -33 -56 -18 -82 8 -16 21 -21 55 -21 25 0 45 5 45
10 0 6 16 10 35 10 19 0 35 -5 35 -11 0 -7 22 -10 61 -7 l61 3 -70 -65 c-65
-62 -212 -150 -248 -150 -8 0 -14 -4 -14 -10 0 -5 4 -10 9 -10 5 0 26 -15 46
-34 l36 -34 76 54 c44 32 73 48 69 38 -4 -10 -4 -37 0 -61 l6 -43 102 5 102 5
-3 -53 c-2 -28 2 -62 8 -74 18 -34 5 -204 -17 -220 -9 -7 -21 -10 -26 -7 -5 3
-21 3 -37 -1 l-29 -6 21 -50 c12 -27 28 -51 37 -54 9 -3 42 6 72 19 45 20 57
31 62 53 7 29 15 154 16 228 l1 40 29 -62 c53 -107 169 -211 257 -229 26 -5
33 -2 43 17 7 13 22 34 33 47 23 25 15 42 -24 46 -54 6 -130 39 -170 74 l-42
37 89 43 c49 23 95 42 102 42 22 0 13 22 -25 56 -38 35 -57 42 -69 23 -8 -13
-123 -99 -133 -99 -6 0 -14 21 -48 115 -2 6 37 10 106 10 l109 0 -1 125 0 125
-86 -2 c-99 -3 -134 -3 -248 0 l-82 2 23 29 22 29 116 -2 c72 -1 119 2 123 9
8 13 52 13 60 0 7 -11 61 -13 117 -4 28 5 38 12 43 31 14 56 7 58 -144 58 -77
0 -143 -3 -147 -7 -11 -11 -52 -10 -59 2 -8 13 -142 13 -150 1 -7 -12 -172
-13 -180 -1 -3 5 -29 9 -58 8 -29 0 -59 2 -67 5 -8 2 -23 3 -32 0z m599 -229
l51 -7 4 -48 3 -49 -82 6 c-51 3 -84 1 -88 -6 -8 -13 -52 -13 -60 1 -4 6 -37
9 -83 7 l-77 -3 0 45 0 45 107 -3 c64 -1 109 2 113 8 7 11 38 12 112 4z"/>
<path d="M113 489 c-14 -15 -17 -57 -5 -76 6 -10 35 -12 110 -8 63 3 102 1
102 -6 0 -17 -83 -100 -124 -124 -23 -12 -65 -30 -93 -40 -29 -9 -53 -18 -53
-20 0 -8 73 -75 81 -75 5 0 37 14 71 31 88 44 171 131 214 223 18 41 34 78 34
83 0 4 -51 9 -113 9 -61 1 -134 5 -162 8 -36 6 -54 4 -62 -5z"/>
</g>
</svg>
