<?xml version="1.0" standalone="no"?>
<!DOCTYPE svg PUBLIC "-//W3C//DTD SVG 20010904//EN"
 "http://www.w3.org/TR/2001/REC-SVG-20010904/DTD/svg10.dtd">
<svg version="1.0" xmlns="http://www.w3.org/2000/svg"
 width="101.000000pt" height="101.000000pt" viewBox="0 0 101.000000 101.000000"
 preserveAspectRatio="xMidYMid meet">
<metadata>
Created by potrace 1.16, written by Peter Selinger 2001-2019
</metadata>
<g transform="translate(0.000000,101.000000) scale(0.100000,-0.100000)"
fill="#000000" stroke="none">
<path d="M708 1002 c-11 -2 -22 -20 -29 -45 -6 -23 -20 -64 -32 -91 -20 -47
-21 -48 -56 -42 -20 3 -45 6 -55 6 -19 0 -19 0 -1 14 17 13 17 16 -19 79 -20
36 -41 69 -46 72 -9 5 -90 -23 -90 -32 0 -3 8 -17 19 -31 10 -15 28 -45 39
-68 l21 -41 -52 9 c-97 15 -132 -10 -107 -76 8 -23 15 -27 33 -22 12 3 63 8
112 10 l90 5 2 -62 2 -62 -91 2 c-51 0 -102 -3 -115 -8 -26 -10 -31 -45 -9
-74 12 -16 23 -18 110 -12 l96 5 0 -31 c0 -18 3 -48 6 -67 l6 -35 -44 2 c-23
1 -78 5 -120 9 -87 8 -108 -1 -108 -45 0 -41 11 -50 55 -45 80 11 151 14 181
9 36 -6 35 -2 36 -142 2 -100 4 -104 64 -96 l30 5 2 91 c1 133 1 135 26 136
11 0 49 3 84 5 39 3 77 0 102 -9 49 -17 66 -12 73 22 10 51 0 60 -69 68 -35 3
-69 3 -76 -2 -7 -4 -40 -8 -73 -8 l-60 0 0 66 0 66 37 -5 c20 -2 70 -1 110 2
l74 7 -1 39 0 39 -42 -6 c-26 -3 -48 -1 -57 6 -8 7 -37 10 -67 9 l-54 -3 0 60
0 60 98 3 c54 1 106 -2 117 -8 28 -15 54 14 46 53 -3 17 -8 32 -10 34 -6 6
-87 6 -133 1 -24 -3 -43 -2 -43 1 0 4 18 33 40 66 22 33 40 65 40 71 0 14 -69
41 -92 36z"/>
<path d="M110 942 c-27 -33 -29 -38 -14 -47 9 -5 44 -30 77 -54 l61 -44 28 32
c15 17 28 35 28 40 0 9 -90 80 -127 99 -19 11 -25 8 -53 -26z"/>
<path d="M61 680 l-22 -39 37 -16 c20 -8 38 -15 40 -15 3 0 23 -12 46 -27 l41
-27 28 34 c16 19 29 39 29 45 0 11 -141 85 -163 85 -7 0 -23 -18 -36 -40z"/>
<path d="M141 413 c-12 -48 -35 -120 -51 -160 l-28 -73 45 -31 c25 -17 48 -27
53 -23 8 9 90 302 90 322 0 9 -68 52 -83 52 -3 0 -14 -39 -26 -87z"/>
</g>
</svg>
