<?xml version="1.0" standalone="no"?>
<!DOCTYPE svg PUBLIC "-//W3C//DTD SVG 20010904//EN"
 "http://www.w3.org/TR/2001/REC-SVG-20010904/DTD/svg10.dtd">
<svg version="1.0" xmlns="http://www.w3.org/2000/svg"
 width="101.000000pt" height="101.000000pt" viewBox="0 0 101.000000 101.000000"
 preserveAspectRatio="xMidYMid meet">
<metadata>
Created by potrace 1.16, written by Peter Selinger 2001-2019
</metadata>
<g transform="translate(0.000000,101.000000) scale(0.100000,-0.100000)"
fill="#000000" stroke="none">
<path d="M527 947 l-19 -64 -99 3 c-57 2 -99 -1 -99 -6 0 -5 -34 13 -76 42
l-75 51 -39 -38 -39 -38 55 -33 c29 -18 71 -46 91 -63 l37 -31 28 27 c21 20
28 23 28 11 0 -26 91 -39 131 -18 67 37 -61 -136 -156 -210 -30 -23 -55 -45
-54 -49 0 -3 18 -21 40 -40 l40 -34 47 53 47 52 -4 -52 c-2 -29 2 -57 8 -63
13 -13 15 -54 2 -61 -12 -8 -13 -114 -1 -121 13 -8 13 -121 0 -146 -12 -21 -2
-24 55 -20 37 4 46 17 34 49 -6 14 -7 56 -3 94 l7 68 52 0 c30 0 55 5 57 11 2
7 26 8 73 4 l70 -7 -2 -50 c-1 -55 -13 -69 -53 -67 -58 4 -60 3 -39 -38 10
-21 19 -45 19 -55 0 -15 6 -17 33 -14 49 6 115 35 122 54 13 35 18 152 6 152
-6 0 -11 11 -11 25 0 14 5 25 10 25 6 0 10 30 10 70 0 40 -4 70 -10 70 -12 0
-13 47 -1 52 10 4 21 132 12 147 -5 8 -62 12 -169 14 -89 1 -162 3 -162 4 0 1
9 22 21 45 l21 43 183 0 184 0 6 31 c9 49 -1 64 -36 54 -40 -12 -180 -11 -194
0 -7 6 -33 9 -58 7 -26 -1 -47 -1 -47 2 0 2 11 24 25 48 l26 43 -24 9 c-14 6
-40 13 -58 16 l-34 6 -18 -64z m213 -326 c19 -5 25 -13 26 -36 l2 -31 -127 1
-126 0 -1 30 c0 30 0 30 49 26 27 -1 54 2 60 8 12 12 75 13 117 2z m-18 -137
c34 -6 36 -9 40 -48 l3 -41 -130 0 -130 0 0 38 c-1 34 1 37 27 37 15 0 28 5
28 10 0 11 103 13 162 4z"/>
<path d="M62 711 c-25 -45 -27 -51 -9 -51 7 0 48 -20 91 -45 44 -25 80 -45 82
-45 9 0 44 76 40 86 -5 13 -156 94 -174 94 -5 0 -18 -17 -30 -39z"/>
<path d="M167 526 c-3 -8 -4 -27 -1 -42 3 -15 -1 -33 -9 -43 -8 -9 -14 -23
-14 -31 0 -24 -32 -127 -59 -188 -13 -30 -23 -56 -22 -56 2 -1 26 -13 54 -28
l52 -27 16 62 c9 34 19 73 22 87 2 14 12 50 21 80 19 65 20 66 28 105 6 28 2
34 -38 63 -35 25 -46 29 -50 18z"/>
</g>
</svg>
