<?xml version="1.0" standalone="no"?>
<!DOCTYPE svg PUBLIC "-//W3C//DTD SVG 20010904//EN"
 "http://www.w3.org/TR/2001/REC-SVG-20010904/DTD/svg10.dtd">
<svg version="1.0" xmlns="http://www.w3.org/2000/svg"
 width="101.000000pt" height="101.000000pt" viewBox="0 0 101.000000 101.000000"
 preserveAspectRatio="xMidYMid meet">
<metadata>
Created by potrace 1.16, written by Peter Selinger 2001-2019
</metadata>
<g transform="translate(0.000000,101.000000) scale(0.100000,-0.100000)"
fill="#000000" stroke="none">
<path d="M445 959 c-4 -17 -4 -64 0 -103 l6 -71 -70 2 c-68 2 -71 1 -77 -23
-8 -31 3 -75 19 -73 7 1 36 1 65 0 49 -1 52 -3 52 -26 0 -14 5 -25 10 -25 7 0
10 -27 8 -72 l-3 -73 -75 3 c-41 1 -81 -1 -87 -6 -17 -11 -26 -64 -14 -82 13
-19 132 -21 139 -2 2 6 19 12 37 12 18 0 36 -6 39 -12 5 -10 7 -10 12 0 7 15
164 17 164 2 0 -5 18 -10 40 -10 22 0 40 5 40 10 0 15 83 11 104 -5 41 -31 86
-7 86 45 0 41 -28 53 -114 48 l-72 -3 1 100 0 100 76 -2 77 -2 6 33 c11 56 4
61 -84 61 l-79 0 4 60 c4 62 8 88 20 117 8 19 -10 26 -74 27 l-43 1 7 -107 7
-106 -38 6 c-22 4 -51 7 -66 7 -25 0 -26 2 -30 63 -2 34 0 75 5 91 12 34 2 42
-53 44 -35 2 -39 -1 -45 -29z m215 -318 c0 -32 3 -78 6 -103 l6 -45 -70 1 -70
1 -6 44 c-3 24 -6 69 -6 100 l0 56 70 2 70 1 0 -57z"/>
<path d="M136 944 c-16 -20 -25 -39 -20 -43 5 -5 40 -35 78 -66 l70 -59 33 39
c18 21 32 39 31 41 -18 17 -154 124 -158 123 -3 0 -18 -16 -34 -35z"/>
<path d="M71 716 c-12 -18 -21 -36 -21 -39 0 -7 170 -120 174 -116 1 2 16 22
32 43 l29 39 -24 16 c-57 40 -146 91 -157 91 -7 0 -22 -15 -33 -34z"/>
<path d="M169 508 c-2 -3 -7 -30 -13 -70 -7 -45 -26 -99 -64 -182 -24 -53 -33
-81 -25 -83 6 -2 30 -17 52 -34 23 -16 42 -29 44 -29 2 0 10 26 17 58 7 31 27
108 46 169 19 62 34 114 34 117 0 9 -87 61 -91 54z"/>
<path d="M427 321 c-42 -54 -103 -110 -166 -151 l-23 -15 43 -28 c23 -15 47
-26 53 -24 20 7 234 212 232 222 -2 9 -74 54 -87 55 -3 0 -27 -27 -52 -59z"/>
<path d="M676 354 l-37 -26 59 -61 c32 -34 71 -81 87 -104 15 -24 32 -43 37
-43 13 0 88 51 88 61 0 12 -96 114 -149 158 l-48 40 -37 -25z"/>
</g>
</svg>
