<?xml version="1.0" standalone="no"?>
<!DOCTYPE svg PUBLIC "-//W3C//DTD SVG 20010904//EN"
 "http://www.w3.org/TR/2001/REC-SVG-20010904/DTD/svg10.dtd">
<svg version="1.0" xmlns="http://www.w3.org/2000/svg"
 width="101.000000pt" height="101.000000pt" viewBox="0 0 101.000000 101.000000"
 preserveAspectRatio="xMidYMid meet">
<metadata>
Created by potrace 1.16, written by Peter Selinger 2001-2019
</metadata>
<g transform="translate(0.000000,101.000000) scale(0.100000,-0.100000)"
fill="#000000" stroke="none">
<path d="M388 998 c0 -7 -3 -24 -5 -38 -2 -14 -6 -52 -8 -84 -3 -54 -5 -59
-27 -62 -36 -4 -55 11 -39 29 10 13 5 20 -31 45 -24 16 -63 39 -88 52 l-44 23
-28 -34 c-15 -18 -28 -36 -27 -39 0 -3 37 -29 81 -58 61 -40 83 -50 93 -42 11
9 12 7 8 -8 -8 -33 14 -62 47 -62 38 0 39 -10 15 -110 -3 -14 -8 -38 -11 -53
-3 -16 -11 -48 -19 -72 l-13 -44 38 -26 c20 -14 48 -37 61 -51 l23 -24 -48
-49 c-27 -27 -78 -66 -113 -87 -57 -33 -63 -40 -48 -49 10 -5 30 -20 45 -32
15 -13 32 -23 38 -23 5 0 51 39 101 87 l93 86 23 -29 c14 -16 27 -37 30 -46 9
-27 27 -22 65 17 l34 35 -53 54 -53 53 22 69 c21 66 28 95 34 139 1 11 5 31 9
45 4 14 9 66 11 117 4 75 2 92 -11 97 -8 3 -20 3 -26 -1 -7 -5 -34 -8 -60 -8
-43 0 -47 2 -42 20 4 11 8 29 10 40 12 64 17 81 27 92 13 17 -27 33 -65 26
-16 -3 -27 -1 -27 6 0 15 -20 14 -22 -1z m115 -318 c-6 -88 -17 -163 -35 -222
l-11 -37 -34 27 c-36 29 -37 39 -7 127 11 35 22 86 27 136 1 10 11 15 32 15
30 -1 31 -2 28 -46z"/>
<path d="M637 863 c-9 -16 -7 -252 3 -258 12 -7 12 -153 0 -160 -12 -7 -12
-153 0 -160 12 -7 13 -48 3 -59 -5 -4 -8 -32 -9 -61 0 -59 7 -66 64 -57 32 4
39 20 34 82 -1 11 9 16 36 17 37 2 38 1 39 -39 1 -22 5 -43 8 -46 7 -7 85 -5
92 2 3 2 0 36 -6 75 -14 88 -14 191 -1 191 6 0 10 23 10 50 0 28 -4 50 -10 50
-5 0 -10 11 -10 25 0 14 5 25 10 25 6 0 10 30 10 70 0 40 -4 70 -10 70 -5 0
-10 11 -10 25 0 14 5 25 10 25 6 0 10 28 10 65 0 63 -4 71 -35 65 -23 -4 -182
0 -206 6 -15 3 -29 2 -32 -3z m183 -168 c0 -43 -4 -75 -10 -75 -6 0 -10 -30
-10 -70 0 -40 4 -70 10 -70 6 0 10 -20 10 -45 0 -26 -5 -45 -11 -45 -7 0 -10
-20 -7 -55 l3 -54 -44 2 -43 1 7 138 c5 99 4 138 -4 138 -7 0 -11 27 -11 75 0
43 4 75 10 75 6 0 10 11 10 24 0 25 13 31 68 35 21 1 22 -2 22 -74z"/>
<path d="M68 738 c-41 -64 -41 -66 -2 -83 20 -8 62 -31 94 -50 32 -19 60 -35
64 -35 12 0 58 79 51 90 -6 9 -177 100 -189 100 -2 0 -10 -10 -18 -22z"/>
<path d="M155 532 c-4 -15 -9 -36 -10 -47 -14 -93 -37 -176 -71 -253 -13 -30
-23 -56 -22 -56 2 -1 24 -11 51 -24 26 -12 49 -22 52 -22 5 0 27 75 31 107 1
12 17 75 34 140 29 109 30 119 14 128 -9 5 -29 20 -44 32 l-28 23 -7 -28z"/>
</g>
</svg>
