<?xml version="1.0" standalone="no"?>
<!DOCTYPE svg PUBLIC "-//W3C//DTD SVG 20010904//EN"
 "http://www.w3.org/TR/2001/REC-SVG-20010904/DTD/svg10.dtd">
<svg version="1.0" xmlns="http://www.w3.org/2000/svg"
 width="101.000000pt" height="101.000000pt" viewBox="0 0 101.000000 101.000000"
 preserveAspectRatio="xMidYMid meet">
<metadata>
Created by potrace 1.16, written by Peter Selinger 2001-2019
</metadata>
<g transform="translate(0.000000,101.000000) scale(0.100000,-0.100000)"
fill="#000000" stroke="none">
<path d="M584 989 c-3 -6 -15 -8 -26 -6 -24 7 -33 -15 -18 -43 28 -52 24 -55
-64 -52 -44 1 -100 5 -124 8 -38 5 -44 4 -49 -14 -5 -19 -10 -17 -60 25 -31
24 -67 50 -81 56 -22 10 -28 8 -53 -23 -16 -19 -29 -37 -29 -40 0 -3 13 -13
29 -23 15 -9 50 -35 77 -57 l49 -40 26 32 c25 30 27 31 33 11 8 -25 45 -36 93
-27 20 4 53 7 74 8 l38 1 -23 -30 c-32 -42 -115 -103 -149 -111 -25 -5 -28
-10 -24 -33 12 -59 26 -81 51 -81 14 0 31 7 39 15 12 11 43 15 139 15 67 0
153 1 191 2 65 1 68 0 90 -29 l23 -31 42 35 42 35 -51 59 c-29 33 -71 76 -95
96 l-44 35 -36 -27 -36 -27 31 -32 30 -31 -42 -2 c-23 -1 -81 -3 -128 -5 l-87
-3 64 47 c36 25 70 48 77 51 8 3 6 10 -7 26 l-19 21 36 0 c21 0 37 5 37 10 0
6 11 10 25 10 14 0 25 -5 25 -11 0 -6 29 -10 73 -10 39 0 87 -1 105 -1 36 -1
52 13 52 47 0 46 -12 50 -145 50 -76 0 -125 4 -126 10 -2 12 -3 21 -14 63 -6
25 -13 32 -31 32 -12 0 -26 -5 -30 -11z"/>
<path d="M50 720 c-12 -23 -20 -43 -18 -45 2 -2 42 -23 91 -48 l87 -45 24 41
c14 22 23 45 20 49 -6 10 -128 72 -161 82 -19 6 -25 1 -43 -34z"/>
<path d="M378 543 c-22 -6 -32 -53 -23 -109 14 -98 -42 -194 -140 -241 -19 -9
-35 -19 -35 -22 0 -3 18 -21 40 -39 38 -32 41 -32 69 -18 91 48 156 170 166
317 2 26 8 56 14 68 10 18 8 22 -25 36 -20 8 -39 14 -43 14 -3 -1 -14 -3 -23
-6z"/>
<path d="M520 525 c-5 -14 -9 -111 -7 -215 2 -209 -1 -201 69 -192 l37 4 -7
52 c-12 89 -6 260 12 327 6 21 3 27 -19 37 -43 20 -74 15 -85 -13z"/>
<path d="M700 540 c-13 -8 -15 -39 -13 -185 1 -198 5 -221 33 -230 55 -17 83
-20 131 -12 44 8 68 26 88 66 18 35 19 81 1 81 -4 0 -24 11 -45 25 -20 15 -40
24 -43 21 -3 -3 -6 -25 -6 -48 -1 -40 -3 -42 -31 -43 -27 0 -31 4 -39 43 -7
34 -6 46 5 54 11 7 11 11 2 15 -15 5 -18 70 -4 75 5 2 10 31 13 65 4 57 2 62
-19 72 -29 13 -53 14 -73 1z"/>
<path d="M152 527 c-6 -7 -11 -22 -10 -32 2 -50 -30 -161 -68 -237 -13 -26
-24 -51 -24 -56 0 -15 94 -72 103 -63 5 5 10 19 12 32 2 13 6 40 9 60 3 20 19
80 36 135 17 54 32 107 35 117 3 12 -8 23 -35 37 -46 24 -45 23 -58 7z"/>
</g>
</svg>
