<?xml version="1.0" standalone="no"?>
<!DOCTYPE svg PUBLIC "-//W3C//DTD SVG 20010904//EN"
 "http://www.w3.org/TR/2001/REC-SVG-20010904/DTD/svg10.dtd">
<svg version="1.0" xmlns="http://www.w3.org/2000/svg"
 width="101.000000pt" height="101.000000pt" viewBox="0 0 101.000000 101.000000"
 preserveAspectRatio="xMidYMid meet">
<metadata>
Created by potrace 1.16, written by Peter Selinger 2001-2019
</metadata>
<g transform="translate(0.000000,101.000000) scale(0.100000,-0.100000)"
fill="#000000" stroke="none">
<path d="M565 980 c-11 -5 -14 -9 -7 -9 13 -1 16 -60 6 -124 l-7 -37 -79 5
c-43 2 -83 7 -88 10 -4 3 -16 2 -25 -1 -13 -6 -16 -15 -11 -48 7 -55 9 -311 3
-361 -7 -45 2 -55 50 -55 42 0 66 25 59 62 -5 27 -4 28 39 28 l44 0 3 -94 c2
-52 1 -93 0 -91 -2 2 -22 -3 -43 -10 -26 -10 -64 -13 -107 -10 -95 7 -113 8
-117 3 -3 -2 3 -28 12 -56 l17 -52 40 5 c23 3 57 8 76 11 72 10 86 12 145 19
33 4 76 9 95 11 19 3 59 6 87 8 52 2 53 2 59 -31 3 -18 10 -35 14 -38 10 -6
110 24 110 33 0 15 -109 232 -117 232 -25 0 -83 -23 -83 -32 0 -6 9 -26 21
-44 23 -38 30 -35 -63 -37 l-47 -2 2 90 2 90 102 -2 101 -3 6 48 c7 56 7 256
0 294 l-6 28 -104 -3 -104 -2 5 69 c3 38 8 73 11 77 6 10 -38 29 -64 28 -9 0
-26 -4 -37 -9z m-10 -345 l0 -105 -52 2 -53 3 6 33 c4 20 2 32 -5 32 -6 0 -11
11 -11 25 0 14 5 25 10 25 6 0 10 18 10 39 l0 40 48 4 c26 2 47 4 47 5 0 1 0
-45 0 -103z m213 -4 l3 -104 -47 7 c-26 3 -52 6 -58 6 -8 0 -11 31 -11 98 l0
97 55 0 55 0 3 -104z"/>
<path d="M129 914 c-29 -30 -32 -37 -18 -44 9 -5 44 -31 79 -57 34 -27 68 -52
75 -57 9 -7 21 0 42 24 15 19 28 41 28 49 0 14 -145 121 -163 121 -5 0 -24
-16 -43 -36z"/>
<path d="M75 680 c-30 -48 -30 -47 -2 -54 12 -3 56 -27 97 -55 l75 -49 27 42
c16 22 28 46 28 51 0 11 -169 105 -189 105 -6 0 -22 -18 -36 -40z"/>
<path d="M187 485 c3 -9 -3 -25 -12 -35 -10 -11 -15 -23 -12 -26 8 -8 -45
-154 -78 -211 -14 -25 -24 -47 -23 -47 2 -1 29 -14 62 -29 32 -15 59 -27 61
-25 1 2 10 37 20 78 10 41 31 113 47 160 26 78 27 86 12 95 -9 6 -29 20 -44
33 -33 26 -42 28 -33 7z"/>
</g>
</svg>
