<?xml version="1.0" standalone="no"?>
<!DOCTYPE svg PUBLIC "-//W3C//DTD SVG 20010904//EN"
 "http://www.w3.org/TR/2001/REC-SVG-20010904/DTD/svg10.dtd">
<svg version="1.0" xmlns="http://www.w3.org/2000/svg"
 width="101.000000pt" height="101.000000pt" viewBox="0 0 101.000000 101.000000"
 preserveAspectRatio="xMidYMid meet">
<metadata>
Created by potrace 1.16, written by Peter Selinger 2001-2019
</metadata>
<g transform="translate(0.000000,101.000000) scale(0.100000,-0.100000)"
fill="#000000" stroke="none">
<path d="M480 1002 c-16 -8 -21 -102 -6 -135 6 -13 5 -16 -7 -11 -9 3 -21 2
-28 -2 -6 -4 -26 -8 -43 -10 -17 -1 -40 -5 -51 -8 -11 -2 -23 -5 -27 -5 -13
-1 -9 -31 3 -31 7 0 9 -11 6 -29 -6 -28 -5 -29 31 -29 20 0 46 5 57 11 11 5
29 11 40 13 11 1 26 4 33 5 8 3 21 -16 33 -46 10 -27 19 -51 19 -52 0 -6 -117
-35 -139 -35 -14 0 -30 -3 -36 -6 -5 -4 -14 -7 -20 -8 -5 0 -16 -2 -23 -2 -10
-2 -7 -11 10 -31 12 -15 28 -36 33 -46 10 -17 16 -16 95 11 47 16 92 28 100
27 8 -1 22 3 31 8 12 6 21 4 30 -7 18 -22 64 -44 133 -65 78 -24 114 -11 145
53 26 54 26 65 2 73 -10 3 -26 14 -36 25 -25 27 -31 25 -39 -12 -9 -44 -22
-56 -56 -52 -30 4 -90 30 -90 40 0 3 43 26 95 51 52 25 95 50 95 54 0 5 -19
21 -42 36 l-41 28 46 13 c47 13 47 13 44 55 -2 41 -3 42 -37 40 -46 -2 -85 -9
-96 -15 -9 -6 -60 -16 -114 -23 -14 -2 -34 -5 -45 -8 -18 -5 -20 0 -18 54 1
48 -2 61 -17 69 -21 11 -48 12 -70 2z m280 -196 c-14 -13 -51 -40 -83 -61
l-58 -36 -13 33 c-14 32 -13 34 11 47 14 7 40 15 57 17 17 2 43 6 59 7 15 2
30 7 34 10 3 4 9 7 12 7 3 0 -6 -11 -19 -24z"/>
<path d="M131 940 l-31 -39 33 -22 c17 -13 53 -40 78 -61 l47 -38 36 40 c20
22 36 41 36 43 0 5 -122 93 -146 105 -19 10 -25 6 -53 -28z"/>
<path d="M72 724 c-13 -19 -22 -39 -20 -44 3 -9 170 -113 173 -108 0 2 14 20
29 41 16 22 25 42 20 47 -11 11 -166 100 -174 100 -3 0 -15 -16 -28 -36z"/>
<path d="M146 523 c-4 -9 -9 -32 -12 -52 -3 -19 -22 -80 -41 -135 -42 -121
-48 -146 -36 -146 5 0 28 -16 50 -35 23 -19 43 -35 46 -35 5 0 16 46 22 87 4
22 61 239 70 264 3 9 -12 23 -44 41 -43 24 -50 25 -55 11z"/>
<path d="M277 481 c-2 -10 -2 -31 0 -45 5 -26 7 -26 57 -21 105 12 101 13 102
-20 6 -116 -73 -197 -189 -192 -20 0 -40 -3 -45 -9 -4 -5 11 -27 35 -50 l41
-40 45 13 c53 15 133 67 159 104 21 28 59 164 52 183 -3 8 9 12 35 13 44 2 40
14 45 -137 2 -52 4 -102 5 -112 2 -23 86 -51 112 -37 11 5 41 7 69 3 74 -10
105 15 134 112 6 18 1 24 -26 33 -17 6 -40 19 -50 28 -23 20 -29 14 -32 -32
-2 -20 -8 -41 -14 -47 -13 -13 -90 -14 -102 -2 -5 5 -10 38 -10 74 -1 106 1
122 15 116 8 -3 27 0 43 6 22 9 39 8 76 -5 26 -9 53 -14 60 -11 16 6 26 47 18
76 -4 18 -10 19 -56 11 -28 -4 -75 -7 -103 -6 -52 2 -83 2 -273 1 -52 0 -118
3 -146 6 -45 6 -52 4 -57 -13z"/>
</g>
</svg>
