<?xml version="1.0" standalone="no"?>
<!DOCTYPE svg PUBLIC "-//W3C//DTD SVG 20010904//EN"
 "http://www.w3.org/TR/2001/REC-SVG-20010904/DTD/svg10.dtd">
<svg version="1.0" xmlns="http://www.w3.org/2000/svg"
 width="101.000000pt" height="101.000000pt" viewBox="0 0 101.000000 101.000000"
 preserveAspectRatio="xMidYMid meet">
<metadata>
Created by potrace 1.16, written by Peter Selinger 2001-2019
</metadata>
<g transform="translate(0.000000,101.000000) scale(0.100000,-0.100000)"
fill="#000000" stroke="none">
<path d="M465 878 c-1 -145 2 -139 -69 -139 -17 0 -34 -3 -40 -6 -6 -4 -24 -7
-41 -7 -28 -1 -30 -3 -28 -36 1 -19 5 -45 8 -58 5 -22 6 -22 43 -7 33 15 48
18 107 27 15 2 21 -5 26 -32 3 -19 8 -41 10 -49 2 -8 -4 -15 -16 -16 -11 -1
-33 -6 -50 -10 -16 -4 -54 -8 -83 -10 -30 -2 -56 -6 -59 -9 -3 -3 0 -28 7 -56
10 -41 15 -50 29 -44 17 7 116 36 163 47 25 7 27 4 48 -61 11 -37 23 -72 26
-79 7 -16 -60 -50 -173 -87 l-91 -31 40 -43 40 -43 123 59 123 60 42 -44 c52
-54 91 -79 164 -104 56 -19 56 -19 75 1 18 19 51 117 51 151 0 18 -80 62 -92
50 -5 -5 -11 -25 -13 -46 -7 -54 -12 -58 -48 -40 -33 17 -97 73 -97 85 0 5 79
68 145 114 25 17 14 39 -35 68 l-35 20 -66 -68 -66 -68 -22 58 c-25 67 -24 79
10 82 13 1 38 5 54 8 17 2 45 7 63 10 17 3 47 7 65 10 42 7 78 12 99 14 12 1
16 10 16 34 -1 48 -15 70 -41 62 -53 -16 -124 -35 -152 -39 -16 -3 -41 -8 -55
-11 -52 -11 -90 -14 -91 -7 -7 97 -6 98 26 98 29 1 94 22 105 35 5 5 34 7 127
8 39 1 67 26 58 55 -7 24 -13 48 -14 57 -1 3 -25 -2 -53 -12 -29 -9 -69 -20
-88 -24 -19 -3 -42 -7 -50 -9 -8 -1 -22 -5 -30 -9 -8 -4 -28 -9 -45 -11 -16
-2 -37 -5 -45 -7 -18 -5 -27 65 -11 85 6 7 11 24 10 37 0 13 2 35 6 49 3 14 7
31 8 39 2 17 -31 29 -83 30 l-35 1 0 -132z"/>
<path d="M130 948 c-31 -37 -33 -41 -16 -50 10 -5 49 -36 86 -69 l68 -58 37
40 c29 32 34 43 25 54 -14 17 -155 125 -161 124 -2 0 -20 -19 -39 -41z"/>
<path d="M673 959 c-18 -12 -33 -23 -33 -25 0 -2 15 -24 34 -48 19 -25 36 -50
38 -57 5 -14 89 28 95 47 5 16 -67 104 -86 104 -9 0 -31 -10 -48 -21z"/>
<path d="M55 700 c-15 -22 -26 -42 -24 -44 2 -2 20 -11 39 -21 19 -10 57 -33
83 -52 27 -19 50 -33 51 -31 1 2 17 22 35 46 19 24 32 44 30 46 -16 14 -166
96 -175 96 -6 0 -24 -18 -39 -40z"/>
<path d="M141 421 c-13 -44 -38 -115 -57 -158 -19 -43 -34 -81 -34 -85 0 -9
72 -77 81 -78 4 0 30 72 58 161 29 88 54 166 57 173 4 11 -32 41 -77 64 -3 1
-15 -33 -28 -77z"/>
</g>
</svg>
