<?xml version="1.0" standalone="no"?>
<!DOCTYPE svg PUBLIC "-//W3C//DTD SVG 20010904//EN"
 "http://www.w3.org/TR/2001/REC-SVG-20010904/DTD/svg10.dtd">
<svg version="1.0" xmlns="http://www.w3.org/2000/svg"
 width="101.000000pt" height="101.000000pt" viewBox="0 0 101.000000 101.000000"
 preserveAspectRatio="xMidYMid meet">
<metadata>
Created by potrace 1.16, written by Peter Selinger 2001-2019
</metadata>
<g transform="translate(0.000000,101.000000) scale(0.100000,-0.100000)"
fill="#000000" stroke="none">
<path d="M605 968 c-4 -18 -9 -37 -11 -43 -1 -5 -5 -21 -8 -35 -9 -40 -37
-100 -80 -169 -38 -62 -40 -63 -50 -40 -15 36 -24 39 -104 38 -78 -1 -108 -16
-99 -51 5 -18 4 -18 -26 1 -69 42 -123 71 -134 71 -6 0 -22 -17 -34 -37 -22
-35 -22 -37 -5 -47 10 -6 47 -30 83 -54 70 -47 70 -47 104 11 8 14 13 16 25 7
8 -8 24 -9 41 -5 65 18 63 20 62 -48 0 -34 -5 -100 -10 -147 -5 -47 -11 -98
-13 -113 -1 -16 -10 -35 -18 -44 -15 -14 -13 -19 15 -59 17 -24 34 -44 38 -44
4 0 48 41 98 90 l91 90 -21 41 -21 42 -45 -44 -46 -44 7 85 c3 47 6 112 6 145
0 84 7 92 58 66 46 -24 45 -24 90 65 29 57 32 60 61 56 29 -4 31 -7 31 -43 0
-22 5 -39 10 -39 6 0 10 -11 10 -25 0 -14 -5 -25 -11 -25 -7 0 -9 -13 -4 -37
l6 -38 -68 3 c-103 4 -106 4 -114 -10 -14 -22 -10 -66 8 -83 12 -12 26 -15 52
-11 127 20 119 21 120 -11 4 -72 0 -155 -9 -179 -7 -17 -6 -32 1 -45 6 -11 7
-38 4 -63 -8 -49 3 -57 64 -48 33 5 33 5 26 48 -3 25 -2 52 4 63 7 13 8 28 1
45 -5 14 -10 56 -10 93 -2 116 -9 108 81 107 69 0 80 2 85 19 7 23 -4 69 -19
79 -15 10 -81 10 -90 1 -4 -3 -17 -7 -29 -9 -23 -2 -23 0 -23 105 l0 106 33
-3 c83 -10 122 17 107 75 -6 25 -6 25 -86 19 -54 -5 -79 -4 -79 3 0 6 -18 11
-40 11 -22 0 -40 4 -40 9 0 4 11 25 25 45 14 20 25 41 25 46 0 8 -83 40 -106
40 -6 0 -15 -15 -19 -32z"/>
<path d="M131 936 l-33 -34 67 -64 c37 -35 73 -64 79 -66 6 -1 26 13 44 31
l33 34 -72 67 c-39 36 -75 66 -78 66 -4 0 -22 -15 -40 -34z"/>
<path d="M360 951 c-31 -8 -30 -12 3 -84 15 -32 25 -62 23 -66 -3 -4 -1 -12 2
-19 6 -8 21 -7 60 4 29 9 52 17 52 20 0 2 -17 37 -37 79 -39 79 -45 82 -103
66z"/>
<path d="M145 521 c-3 -6 -5 -22 -4 -38 3 -57 -26 -163 -67 -245 l-24 -48 41
-25 c65 -41 76 -42 70 -3 -1 10 68 257 77 276 13 25 5 40 -39 68 -43 27 -46
28 -54 15z"/>
</g>
</svg>
