<?xml version="1.0" standalone="no"?>
<!DOCTYPE svg PUBLIC "-//W3C//DTD SVG 20010904//EN"
 "http://www.w3.org/TR/2001/REC-SVG-20010904/DTD/svg10.dtd">
<svg version="1.0" xmlns="http://www.w3.org/2000/svg"
 width="101.000000pt" height="101.000000pt" viewBox="0 0 101.000000 101.000000"
 preserveAspectRatio="xMidYMid meet">
<metadata>
Created by potrace 1.16, written by Peter Selinger 2001-2019
</metadata>
<g transform="translate(0.000000,101.000000) scale(0.100000,-0.100000)"
fill="#000000" stroke="none">
<path d="M132 967 c-18 -18 -32 -37 -32 -42 0 -6 18 -20 41 -33 22 -13 58 -40
80 -59 l39 -36 35 39 c19 22 34 42 35 45 0 6 -115 91 -146 107 -18 9 -26 6
-52 -21z"/>
<path d="M369 974 c-10 -3 -20 -15 -23 -27 -17 -65 1 -75 133 -76 63 -1 113 3
116 9 8 14 52 13 61 -1 4 -7 28 -10 64 -7 56 4 57 4 56 -22 l-1 -27 -170 3
c-93 2 -182 1 -198 -2 -32 -7 -45 -43 -28 -81 10 -22 16 -24 49 -19 20 3 61 6
90 5 30 0 60 5 67 11 10 8 42 9 103 5 l90 -7 -2 -32 c0 -17 -5 -34 -11 -38
-15 -11 -83 -10 -90 2 -7 12 -113 11 -121 -1 -7 -12 -51 -11 -59 1 -3 6 -39
10 -80 9 -82 -1 -90 -8 -79 -63 5 -32 6 -32 69 -34 35 -1 67 3 70 8 8 13 152
13 160 0 3 -5 19 -10 35 -10 25 0 28 -4 32 -39 l3 -38 -120 5 c-161 8 -262 8
-269 1 -11 -11 -16 -64 -8 -77 5 -8 20 -13 33 -13 13 1 69 2 124 1 55 0 116 5
137 11 20 6 52 9 71 5 39 -7 39 -7 37 -126 -1 -73 -20 -106 -55 -95 -25 8 -85
15 -85 10 0 -2 10 -20 21 -40 12 -20 19 -39 16 -42 -14 -14 13 -40 40 -38 49
4 122 27 135 42 8 10 13 56 15 127 3 164 1 155 32 149 14 -3 34 -5 44 -4 9 1
29 2 45 3 32 3 42 14 42 50 0 17 -7 31 -19 38 -25 13 -98 13 -106 0 -14 -23
-31 -10 -27 21 3 21 -1 34 -14 44 -17 13 -15 14 28 15 52 0 66 17 50 61 -15
40 -25 161 -14 168 8 5 17 99 13 137 -1 6 -20 9 -48 7 -181 -12 -265 -14 -276
-5 -7 6 -35 11 -62 11 -28 0 -61 2 -75 5 -14 2 -32 2 -41 0z"/>
<path d="M63 735 c-30 -46 -29 -51 10 -64 18 -6 57 -27 86 -46 38 -25 57 -32
66 -25 15 13 50 78 45 83 -9 9 -170 87 -177 87 -5 0 -18 -16 -30 -35z"/>
<path d="M176 547 c3 -9 -2 -27 -11 -41 -9 -14 -15 -31 -12 -38 5 -17 -33
-156 -66 -234 l-25 -62 56 -21 c62 -22 73 -18 78 26 2 15 5 39 8 53 3 14 7 41
10 60 3 19 15 67 26 105 33 114 34 107 -13 135 -56 33 -58 34 -51 17z"/>
<path d="M454 397 c-16 -6 -30 -11 -31 -11 -2 -1 6 -25 17 -54 11 -28 18 -57
15 -64 -3 -7 -1 -19 4 -26 7 -11 17 -11 57 1 57 17 60 31 24 115 -23 53 -30
57 -86 39z"/>
</g>
</svg>
