<?xml version="1.0" standalone="no"?>
<!DOCTYPE svg PUBLIC "-//W3C//DTD SVG 20010904//EN"
 "http://www.w3.org/TR/2001/REC-SVG-20010904/DTD/svg10.dtd">
<svg version="1.0" xmlns="http://www.w3.org/2000/svg"
 width="101.000000pt" height="102.000000pt" viewBox="0 0 101.000000 102.000000"
 preserveAspectRatio="xMidYMid meet">
<metadata>
Created by potrace 1.16, written by Peter Selinger 2001-2019
</metadata>
<g transform="translate(0.000000,102.000000) scale(0.100000,-0.100000)"
fill="#000000" stroke="none">
<path d="M550 1006 c-46 -12 -44 -9 -25 -46 33 -64 32 -65 -64 -62 -47 1 -101
5 -118 8 -24 5 -34 2 -39 -9 -4 -13 -20 -4 -72 39 -36 29 -71 54 -77 54 -6 0
-24 -14 -40 -30 -25 -26 -27 -32 -15 -43 8 -7 42 -36 76 -65 l61 -51 30 37
c29 34 30 35 26 11 -7 -41 21 -62 71 -53 22 3 43 10 44 15 5 13 52 11 52 -2 0
-9 33 -10 121 -5 114 7 120 6 111 -11 -16 -29 -93 -113 -104 -113 -5 0 -34 25
-65 56 l-54 56 -45 -12 c-24 -7 -44 -16 -44 -19 0 -4 27 -33 60 -66 33 -33 56
-62 52 -66 -8 -7 -68 -27 -102 -34 -12 -2 -28 -9 -34 -14 -7 -6 -33 -8 -59 -5
-71 9 -82 -6 -49 -62 30 -49 45 -51 128 -21 l41 15 7 -68 c3 -38 2 -80 -4 -94
-5 -14 -7 -26 -4 -26 2 0 -2 -13 -10 -29 -21 -40 -75 -84 -129 -107 -26 -10
-47 -21 -46 -24 0 -3 18 -20 40 -39 46 -40 53 -38 138 29 37 29 60 58 78 96
23 50 27 67 38 149 2 17 6 47 9 67 5 31 3 39 -15 49 -12 6 -30 8 -41 5 -34 -8
-6 9 49 31 l51 21 56 -21 c54 -21 72 -37 42 -37 -16 0 -31 -53 -20 -72 19 -30
25 -181 10 -226 -17 -48 -10 -111 13 -113 36 -4 86 4 92 13 4 6 0 31 -8 57 -9
31 -12 74 -9 131 9 164 27 229 52 189 3 -6 15 -9 25 -6 10 3 21 1 24 -3 3 -5
18 -8 33 -8 25 1 31 8 47 52 11 28 21 54 23 57 1 4 -18 4 -44 1 -27 -3 -49 -1
-53 6 -3 6 -33 13 -66 15 -120 10 -145 21 -111 48 13 10 47 49 74 87 l51 68
58 -2 c32 0 61 4 65 10 24 35 -7 104 -41 90 -19 -7 -240 -11 -238 -4 0 3 -7
31 -17 62 -18 61 -21 62 -86 44z"/>
<path d="M65 738 c-11 -18 -20 -36 -20 -40 0 -4 36 -31 81 -61 l80 -54 29 40
c28 39 28 40 9 54 -21 16 -151 93 -156 93 -2 0 -13 -15 -23 -32z"/>
<path d="M144 508 c-4 -13 -9 -34 -11 -48 -2 -14 -6 -34 -8 -45 -2 -11 -7 -38
-10 -60 -4 -22 -18 -69 -31 -104 -13 -35 -24 -67 -24 -71 0 -9 93 -71 98 -65
4 4 52 173 58 205 2 14 6 34 8 45 20 89 18 102 -21 134 -45 37 -50 38 -59 9z"/>
</g>
</svg>
