<?xml version="1.0" standalone="no"?>
<!DOCTYPE svg PUBLIC "-//W3C//DTD SVG 20010904//EN"
 "http://www.w3.org/TR/2001/REC-SVG-20010904/DTD/svg10.dtd">
<svg version="1.0" xmlns="http://www.w3.org/2000/svg"
 width="101.000000pt" height="101.000000pt" viewBox="0 0 101.000000 101.000000"
 preserveAspectRatio="xMidYMid meet">
<metadata>
Created by potrace 1.16, written by Peter Selinger 2001-2019
</metadata>
<g transform="translate(0.000000,101.000000) scale(0.100000,-0.100000)"
fill="#000000" stroke="none">
<path d="M134 949 l-29 -30 30 -22 c17 -12 49 -39 71 -59 23 -21 46 -38 52
-38 5 0 24 16 42 36 l31 36 -73 54 c-40 29 -78 54 -84 54 -5 0 -23 -14 -40
-31z"/>
<path d="M766 973 c-4 -5 -22 -9 -39 -10 -18 0 -50 -4 -72 -8 -39 -6 -88 -10
-210 -17 l-60 -3 -3 -122 c-2 -77 1 -124 8 -128 14 -8 13 -52 -1 -61 -8 -5 -9
-32 -5 -88 l7 -81 -63 0 -63 0 -3 -35 c-4 -59 10 -68 88 -54 43 7 206 8 275 1
28 -3 64 -1 81 5 22 8 58 7 129 -1 108 -13 115 -10 115 41 0 30 -26 62 -42 52
-6 -4 -43 -7 -82 -8 l-71 -1 0 103 0 104 77 -4 c74 -3 77 -2 83 20 14 57 -19
80 -97 68 -24 -4 -106 -8 -183 -9 l-140 -2 0 57 c0 54 1 57 22 52 12 -3 39 0
60 7 21 6 53 13 73 15 31 3 52 5 140 17 14 2 32 0 41 -4 8 -4 21 -4 29 1 21
13 -34 100 -64 100 -12 0 -26 -3 -30 -7z m-116 -380 c0 -38 3 -86 7 -107 l6
-39 -84 7 c-46 4 -86 9 -87 11 -2 2 -1 42 3 89 7 82 9 86 31 86 13 0 24 5 24
10 0 6 23 10 50 10 l50 0 0 -67z"/>
<path d="M72 733 c-34 -51 -34 -51 10 -71 24 -10 65 -33 92 -50 l50 -30 28 36
c15 20 28 42 28 47 0 10 -161 95 -179 95 -6 0 -18 -12 -29 -27z"/>
<path d="M169 533 c0 -4 -2 -15 -4 -23 -4 -21 -14 -70 -20 -102 -3 -15 -19
-64 -36 -110 -16 -46 -32 -90 -35 -99 -4 -11 10 -26 43 -47 51 -34 64 -31 69
15 6 63 15 105 44 203 17 56 29 108 27 114 -6 14 -87 60 -88 49z"/>
<path d="M434 302 c-28 -26 -81 -64 -118 -83 l-68 -36 40 -31 c22 -18 44 -32
49 -32 6 0 46 26 89 57 43 31 96 66 117 78 l38 22 -41 37 c-22 20 -43 36 -48
36 -4 -1 -30 -22 -58 -48z"/>
<path d="M658 322 c-21 -13 -38 -28 -38 -32 0 -4 26 -24 57 -45 32 -21 81 -60
108 -86 l51 -48 44 38 43 37 -34 25 c-55 41 -173 125 -184 131 -5 3 -27 -6
-47 -20z"/>
</g>
</svg>
