<?xml version="1.0" standalone="no"?>
<!DOCTYPE svg PUBLIC "-//W3C//DTD SVG 20010904//EN"
 "http://www.w3.org/TR/2001/REC-SVG-20010904/DTD/svg10.dtd">
<svg version="1.0" xmlns="http://www.w3.org/2000/svg"
 width="101.000000pt" height="101.000000pt" viewBox="0 0 101.000000 101.000000"
 preserveAspectRatio="xMidYMid meet">
<metadata>
Created by potrace 1.16, written by Peter Selinger 2001-2019
</metadata>
<g transform="translate(0.000000,101.000000) scale(0.100000,-0.100000)"
fill="#000000" stroke="none">
<path d="M127 969 l-37 -31 42 -34 c24 -19 57 -51 73 -70 l31 -35 39 36 40 35
-70 65 c-38 36 -72 65 -75 65 -3 0 -22 -14 -43 -31z"/>
<path d="M338 994 c-19 -6 -33 -54 -23 -83 3 -11 15 -23 26 -26 25 -8 129 5
129 16 0 5 16 9 35 9 20 0 35 -5 35 -12 0 -8 28 -9 100 -5 l101 6 -58 -48 -58
-49 -61 44 c-34 24 -65 44 -69 44 -5 0 -24 -12 -43 -26 l-34 -27 68 -39 c38
-22 71 -42 74 -45 3 -2 -46 -1 -109 3 -92 6 -115 4 -122 -7 -12 -19 -11 -106
1 -114 11 -7 12 -153 0 -160 -12 -7 -12 -153 0 -160 13 -8 13 -52 1 -59 -5 -4
-9 -37 -9 -75 0 -77 4 -81 71 -73 33 4 37 7 30 26 -4 11 -7 50 -6 86 4 110 4
112 20 106 8 -3 24 -1 35 5 11 6 35 8 53 5 25 -5 33 -12 34 -29 4 -64 3 -95
-4 -128 -8 -41 5 -50 62 -42 39 6 48 34 26 80 -12 27 -13 39 -5 58 6 14 9 32
5 42 -5 13 -2 15 11 10 10 -4 26 -2 37 4 11 6 39 7 63 4 36 -6 44 -11 44 -28
0 -12 4 -34 7 -50 10 -36 -10 -59 -49 -56 -65 4 -65 4 -38 -52 l25 -50 45 5
c25 2 57 13 71 24 26 19 26 21 22 129 -2 72 0 113 7 117 13 8 14 114 1 122
-12 7 -11 51 1 59 5 3 9 50 8 106 -1 96 -2 100 -25 105 -13 4 -36 1 -51 -4
-15 -6 -52 -10 -83 -9 l-55 2 41 32 c66 50 138 93 156 93 11 0 18 12 23 39 10
64 7 66 -103 69 -58 2 -102 -1 -105 -7 -8 -12 -173 -14 -181 -1 -3 5 -29 9
-58 9 -29 0 -63 2 -77 5 -14 2 -33 2 -42 0z m212 -335 c0 -9 3 -29 6 -45 l5
-29 -70 0 -70 0 2 45 2 45 63 0 c51 0 62 -3 62 -16z m242 -33 l3 -48 -50 6
c-27 3 -65 6 -82 6 -32 0 -33 1 -33 43 l0 42 79 0 79 0 4 -49z m-240 -168 c3
-47 2 -48 -28 -54 -18 -3 -41 -1 -52 5 -11 6 -27 9 -34 6 -10 -4 -13 7 -13 42
l0 48 62 0 61 0 4 -47z m178 42 l58 0 4 -42 c3 -24 4 -44 2 -46 -2 -4 -97 -5
-129 -2 -17 2 -20 10 -20 51 0 37 3 48 13 44 8 -3 40 -5 72 -5z"/>
<path d="M63 734 c-32 -42 -40 -30 79 -108 l68 -44 32 40 c31 39 31 41 12 55
-25 19 -151 93 -158 93 -3 0 -17 -16 -33 -36z"/>
<path d="M179 543 c-1 -5 -3 -17 -4 -28 -12 -84 -48 -202 -87 -279 -16 -32
-28 -59 -26 -61 2 -1 26 -14 55 -29 55 -27 62 -25 68 23 5 38 31 138 51 192 8
24 18 55 20 68 3 13 10 33 15 43 6 11 9 21 7 22 -2 1 -22 14 -45 29 -45 29
-52 31 -54 20z"/>
</g>
</svg>
