<?xml version="1.0" standalone="no"?>
<!DOCTYPE svg PUBLIC "-//W3C//DTD SVG 20010904//EN"
 "http://www.w3.org/TR/2001/REC-SVG-20010904/DTD/svg10.dtd">
<svg version="1.0" xmlns="http://www.w3.org/2000/svg"
 width="101.000000pt" height="101.000000pt" viewBox="0 0 101.000000 101.000000"
 preserveAspectRatio="xMidYMid meet">
<metadata>
Created by potrace 1.16, written by Peter Selinger 2001-2019
</metadata>
<g transform="translate(0.000000,101.000000) scale(0.100000,-0.100000)"
fill="#000000" stroke="none">
<path d="M513 948 l2 -63 -60 2 c-33 1 -69 5 -81 8 -26 8 -54 -17 -54 -48 0
-43 11 -47 103 -44 83 4 86 3 82 -17 -2 -12 -4 -27 -4 -33 -1 -10 -22 -12 -86
-8 -83 5 -85 5 -91 -19 -8 -35 4 -66 27 -66 10 0 19 5 19 10 0 13 107 13 115
1 3 -5 1 -13 -5 -16 -6 -4 -10 -16 -8 -27 3 -18 -3 -20 -78 -20 -45 -1 -85 2
-91 5 -30 19 -56 -59 -28 -86 9 -10 21 -15 25 -12 5 3 40 7 79 10 l70 4 -9
-24 c-34 -90 -91 -175 -167 -249 -32 -31 -53 -56 -47 -56 6 0 28 -12 49 -26
l38 -25 29 28 c16 15 54 64 84 108 37 54 62 81 77 83 135 16 222 11 213 -13
-2 -7 0 -26 6 -42 7 -20 7 -40 -1 -71 l-12 -42 -59 5 c-54 5 -77 -4 -51 -19 5
-3 14 -26 20 -50 11 -44 12 -45 49 -41 56 5 122 35 132 59 4 12 3 48 -2 81 -6
39 -6 67 1 82 6 13 8 29 5 37 -4 11 6 14 49 12 54 -2 55 -2 60 28 8 55 1 62
-58 60 l-54 -2 2 37 1 37 68 -3 c64 -3 68 -2 74 21 14 59 16 58 -192 60 -167
1 -191 3 -184 16 4 8 5 20 3 26 -4 13 253 30 286 19 16 -5 22 -1 27 19 10 42
1 61 -26 58 -95 -12 -125 -13 -144 -3 -11 6 -44 10 -71 9 -48 -3 -50 -2 -49
22 1 23 5 25 47 28 26 2 47 7 47 13 0 5 11 9 25 9 14 0 25 -5 25 -10 0 -7 32
-10 85 -9 74 1 85 4 91 21 13 43 -19 90 -49 71 -7 -5 -66 -8 -132 -8 l-120 0
1 34 c1 18 7 38 13 44 22 22 12 37 -19 31 -19 -4 -30 -2 -30 5 0 6 -15 11 -34
11 l-34 0 1 -62z m204 -457 c2 -36 -1 -40 -25 -45 -15 -2 -49 -3 -77 0 -27 2
-59 4 -71 5 -18 1 -19 4 -10 35 6 19 16 32 22 30 6 -2 26 -1 45 4 19 4 52 8
74 9 41 1 41 1 42 -38z"/>
<path d="M121 942 l-30 -38 32 -19 c17 -10 51 -37 75 -59 l43 -40 37 37 c30
31 35 40 26 55 -12 18 -129 102 -144 102 -4 0 -22 -17 -39 -38z"/>
<path d="M72 709 c-13 -22 -22 -42 -20 -44 2 -1 19 -10 38 -20 19 -10 56 -32
81 -50 l47 -33 32 45 33 46 -24 18 c-27 21 -142 79 -155 79 -5 0 -19 -19 -32
-41z"/>
<path d="M159 505 c-1 -8 -3 -27 -4 -42 -6 -80 -47 -209 -80 -256 -8 -12 -15
-25 -15 -29 0 -6 103 -58 115 -58 4 0 18 51 21 75 6 52 15 93 39 182 15 52 25
96 23 97 -9 7 -89 46 -93 46 -3 0 -6 -7 -6 -15z"/>
<path d="M550 353 c-8 -3 -25 -10 -37 -14 -22 -8 -22 -8 -4 -51 10 -24 21 -50
24 -60 5 -14 11 -15 54 -4 54 14 54 18 23 91 -19 44 -28 50 -60 38z"/>
</g>
</svg>
