<?xml version="1.0" standalone="no"?>
<!DOCTYPE svg PUBLIC "-//W3C//DTD SVG 20010904//EN"
 "http://www.w3.org/TR/2001/REC-SVG-20010904/DTD/svg10.dtd">
<svg version="1.0" xmlns="http://www.w3.org/2000/svg"
 width="101.000000pt" height="101.000000pt" viewBox="0 0 101.000000 101.000000"
 preserveAspectRatio="xMidYMid meet">
<metadata>
Created by potrace 1.16, written by Peter Selinger 2001-2019
</metadata>
<g transform="translate(0.000000,101.000000) scale(0.100000,-0.100000)"
fill="#000000" stroke="none">
<path d="M105 976 l-39 -34 34 -28 c19 -15 52 -46 73 -67 l39 -39 34 33 c34
33 38 32 35 -8 -1 -11 2 -24 8 -27 13 -8 13 -173 0 -181 -12 -8 -12 -142 1
-150 13 -8 13 -52 0 -60 -6 -4 -9 -67 -8 -160 2 -170 0 -166 69 -157 34 4 36
6 33 37 -3 40 -41 36 342 35 l91 0 0 -30 c0 -17 3 -33 7 -37 7 -7 85 -7 93 0
3 4 5 99 4 220 0 20 0 72 0 115 0 42 -1 122 -1 177 -1 55 1 147 4 205 4 58 4
119 1 135 l-5 30 -125 3 c-81 2 -125 -1 -125 -8 0 -6 -32 -10 -80 -10 -47 0
-80 4 -80 10 0 6 -18 10 -40 10 -22 0 -40 -4 -40 -10 0 -5 -25 -10 -55 -10
-30 0 -55 5 -55 10 0 6 -9 10 -19 10 -23 0 -36 -42 -21 -70 17 -31 -3 -24 -56
22 -27 23 -56 47 -64 54 -13 11 -22 7 -55 -20z m513 -78 c8 -7 45 -9 105 -5
l92 6 -3 -114 c-2 -71 1 -116 8 -120 13 -8 13 -52 0 -60 -13 -8 -12 -206 2
-222 11 -14 5 -119 -7 -132 -8 -8 -142 -12 -174 -5 -20 4 -22 10 -18 37 2 18
-2 50 -11 71 -12 30 -13 45 -4 68 6 16 9 35 6 43 -4 8 3 13 18 13 13 1 34 2
48 4 16 2 24 -2 22 -10 -1 -7 -4 -23 -6 -35 -2 -17 -9 -22 -34 -22 -18 1 -32
-1 -32 -3 0 -2 5 -23 11 -48 l11 -44 45 4 c76 6 90 31 98 171 l3 60 -92 0
c-84 0 -91 2 -92 20 -1 18 5 20 73 21 83 2 95 9 91 59 l-3 30 -81 0 c-75 0
-80 1 -76 20 3 17 11 20 50 18 108 -3 143 15 127 66 -5 16 -20 20 -95 26 l-89
7 10 25 c12 32 12 31 -12 43 -11 6 -34 8 -50 5 -28 -6 -30 -10 -26 -44 l4 -37
-56 3 c-64 4 -77 -2 -86 -38 -11 -43 17 -62 84 -57 51 4 56 2 56 -17 0 -18 -5
-20 -60 -17 l-60 3 0 -46 c-1 -52 12 -60 84 -53 34 3 38 1 37 -17 -1 -18 -8
-20 -83 -20 -79 0 -83 1 -83 23 0 12 5 22 10 22 6 0 10 30 10 70 0 40 -4 70
-10 70 -5 0 -10 16 -10 35 0 19 5 35 10 35 6 0 10 18 10 40 0 33 3 40 19 40
11 0 23 4 26 10 8 13 167 11 183 -2z m-82 -434 c-3 -7 0 -25 6 -41 8 -22 7
-41 -5 -82 -17 -58 -14 -78 11 -83 10 -2 -9 -7 -41 -11 -34 -4 -65 -3 -77 3
-10 5 -26 7 -36 3 -16 -6 -17 0 -11 72 4 43 7 93 7 112 0 28 3 33 18 29 9 -3
24 -1 32 4 22 14 102 9 96 -6z"/>
<path d="M47 742 c-34 -36 -34 -48 1 -66 16 -8 55 -36 86 -62 l58 -46 34 33
c19 18 34 36 34 40 0 10 -162 129 -176 129 -5 0 -22 -13 -37 -28z"/>
<path d="M125 517 c-5 -17 -9 -39 -10 -47 -6 -43 -41 -143 -72 -208 -20 -40
-34 -74 -32 -76 29 -22 102 -66 105 -63 2 2 19 60 38 128 19 68 44 150 55 181
l20 57 -37 23 c-20 12 -42 26 -48 30 -8 5 -14 -4 -19 -25z"/>
</g>
</svg>
