<?xml version="1.0" standalone="no"?>
<!DOCTYPE svg PUBLIC "-//W3C//DTD SVG 20010904//EN"
 "http://www.w3.org/TR/2001/REC-SVG-20010904/DTD/svg10.dtd">
<svg version="1.0" xmlns="http://www.w3.org/2000/svg"
 width="101.000000pt" height="103.000000pt" viewBox="0 0 101.000000 103.000000"
 preserveAspectRatio="xMidYMid meet">
<metadata>
Created by potrace 1.16, written by Peter Selinger 2001-2019
</metadata>
<g transform="translate(0.000000,103.000000) scale(0.100000,-0.100000)"
fill="#000000" stroke="none">
<path d="M474 1013 c-26 -73 -82 -171 -130 -222 -55 -60 -55 -60 -30 -67 14
-3 30 -12 37 -20 19 -23 37 -16 68 26 l29 40 46 -54 46 -54 -78 -31 c-42 -17
-88 -34 -102 -37 -14 -3 -34 -7 -45 -10 -11 -3 -30 -6 -42 -5 -37 1 -34 -13
13 -59 l44 -44 58 24 c31 13 95 42 142 65 l85 43 45 -24 c25 -13 74 -33 110
-44 36 -12 72 -24 80 -27 49 -20 64 -13 88 39 12 28 20 54 17 57 -3 3 -20 7
-38 8 -50 5 -100 12 -127 18 -14 3 -40 8 -58 11 -18 4 -34 10 -37 14 -2 4 13
21 34 38 39 31 121 134 146 182 l13 25 -179 0 c-98 0 -179 3 -179 6 0 3 14 25
30 47 17 23 30 44 30 46 0 7 -34 18 -73 22 -29 4 -39 1 -43 -13z m243 -181
c17 -11 -78 -105 -107 -107 -14 -1 -33 13 -54 39 -50 62 -50 62 4 59 27 -2 52
1 55 7 7 12 84 13 102 2z"/>
<path d="M119 944 c-32 -34 -33 -37 -15 -48 10 -6 47 -33 82 -60 70 -53 73
-53 116 6 20 28 20 30 2 44 -38 29 -137 94 -143 94 -4 0 -23 -16 -42 -36z"/>
<path d="M63 697 c-27 -39 -28 -47 -9 -47 8 0 45 -21 83 -46 l68 -46 28 33
c15 18 27 38 27 44 0 16 -134 95 -162 95 -7 0 -23 -15 -35 -33z"/>
<path d="M580 573 c-31 -12 -37 -35 -14 -57 8 -9 14 -26 12 -38 -3 -22 -6 -23
-93 -20 -135 5 -137 5 -146 -10 -14 -21 -10 -55 7 -72 20 -21 78 -20 99 0 12
13 27 15 69 10 60 -8 57 -2 57 -114 -1 -77 -11 -92 -66 -87 -49 5 -54 -2 -29
-41 9 -13 14 -27 11 -31 -4 -3 -2 -13 3 -23 10 -19 46 -20 102 -1 56 18 61 31
65 144 1 56 3 111 4 122 1 19 8 20 110 20 94 -1 110 2 114 16 14 43 -24 93
-55 74 -6 -4 -46 -7 -89 -8 l-78 -2 3 37 c1 21 5 42 8 47 7 11 -5 20 -31 26
-10 2 -25 6 -33 8 -8 3 -22 3 -30 0z"/>
<path d="M165 477 c-5 -12 -9 -31 -11 -42 -10 -69 -42 -173 -78 -256 -5 -12 6
-22 46 -42 55 -27 67 -25 73 14 11 71 15 91 30 150 9 35 23 80 31 99 16 38 13
43 -57 84 -26 15 -27 15 -34 -7z"/>
<path d="M338 266 l-87 -83 39 -25 38 -26 89 75 c48 40 89 78 91 83 3 9 -60
60 -74 60 -5 -1 -48 -38 -96 -84z"/>
<path d="M727 326 l-29 -23 86 -85 85 -86 41 31 c22 17 40 34 40 37 0 14 -170
150 -186 150 -5 -1 -22 -11 -37 -24z"/>
</g>
</svg>
