<?xml version="1.0" standalone="no"?>
<!DOCTYPE svg PUBLIC "-//W3C//DTD SVG 20010904//EN"
 "http://www.w3.org/TR/2001/REC-SVG-20010904/DTD/svg10.dtd">
<svg version="1.0" xmlns="http://www.w3.org/2000/svg"
 width="101.000000pt" height="101.000000pt" viewBox="0 0 101.000000 101.000000"
 preserveAspectRatio="xMidYMid meet">
<metadata>
Created by potrace 1.16, written by Peter Selinger 2001-2019
</metadata>
<g transform="translate(0.000000,101.000000) scale(0.100000,-0.100000)"
fill="#000000" stroke="none">
<path d="M123 969 l-31 -32 60 -49 c32 -28 62 -56 65 -64 8 -22 27 -17 59 17
l29 31 -70 64 c-38 35 -72 64 -75 64 -3 0 -19 -14 -37 -31z"/>
<path d="M348 964 c-18 -6 -32 -47 -23 -73 4 -13 17 -18 57 -18 29 -1 58 3 65
9 11 9 250 4 260 -6 5 -4 -68 -34 -99 -40 -54 -10 -80 -26 -73 -44 6 -16 8
-59 6 -137 -1 -28 -3 -27 -31 24 -17 30 -32 56 -34 58 -2 3 -18 -3 -36 -12
-35 -18 -35 -18 2 -106 l23 -55 34 13 c21 9 37 11 43 5 6 -6 -19 -29 -67 -61
-42 -28 -80 -51 -83 -51 -9 0 -7 229 2 256 5 17 1 24 -22 33 -16 7 -40 9 -54
6 -25 -6 -26 -8 -26 -110 -1 -58 3 -107 8 -110 12 -8 13 -52 1 -59 -12 -8 -13
-114 -1 -121 14 -9 12 -112 -2 -152 -14 -37 -9 -46 24 -44 13 1 40 2 61 3 20
1 37 5 37 10 0 13 68 9 74 -4 5 -10 7 -10 12 0 7 15 164 17 164 2 0 -5 18 -10
40 -10 22 0 40 5 40 11 0 6 12 9 28 7 25 -3 27 -6 24 -44 -3 -47 7 -54 70 -46
l37 4 -6 47 c-4 25 -5 103 -4 174 2 85 -1 127 -8 127 -13 0 -15 147 -2 152 5
2 11 28 14 58 3 30 8 63 12 72 9 22 -22 38 -73 38 -39 0 -60 -19 -46 -41 8
-13 -3 -11 -36 6 l-30 15 -35 -71 c-20 -39 -41 -69 -48 -66 -8 2 -11 28 -10
77 l1 74 91 42 c49 23 105 47 123 53 32 10 33 13 33 61 0 44 -2 49 -20 44 -19
-4 -99 -6 -252 -5 -35 0 -91 0 -125 -1 -35 0 -76 2 -93 5 -16 3 -37 3 -47 1z
m454 -343 c-1 -34 2 -62 8 -66 12 -7 13 -64 2 -82 -6 -9 -24 3 -60 40 l-52 53
51 57 c28 31 51 57 53 57 1 0 0 -27 -2 -59z m-113 -157 c27 -36 51 -70 53 -76
3 -7 14 -5 33 5 l30 15 2 -79 1 -80 -91 6 c-51 2 -105 5 -122 5 -28 1 -29 2
-7 10 34 14 41 47 35 158 -4 72 -3 102 5 102 6 0 34 -30 61 -66z m-146 -34 c0
-32 -4 -63 -7 -69 -3 -5 -24 -7 -46 -5 -44 5 -46 3 -26 -29 8 -12 17 -32 21
-44 6 -22 4 -23 -49 -23 l-56 0 3 95 c1 52 3 95 4 95 2 0 11 -15 20 -34 l18
-35 60 54 c33 30 60 54 60 55 0 0 -1 -27 -2 -60z"/>
<path d="M72 720 c-23 -31 -28 -50 -13 -50 5 0 40 -20 77 -45 36 -25 70 -45
74 -45 4 0 19 16 33 37 l26 36 -22 17 c-30 24 -131 80 -143 80 -6 0 -20 -13
-32 -30z"/>
<path d="M165 489 c-4 -6 -4 -13 -1 -16 3 -3 1 -12 -6 -20 -6 -7 -8 -16 -5
-19 8 -9 -47 -157 -79 -211 -14 -24 -24 -46 -22 -47 1 -2 25 -18 52 -36 52
-35 67 -31 64 20 -1 20 52 184 87 272 5 12 -4 23 -32 42 -42 29 -49 31 -58 15z"/>
</g>
</svg>
