<?xml version="1.0" standalone="no"?>
<!DOCTYPE svg PUBLIC "-//W3C//DTD SVG 20010904//EN"
 "http://www.w3.org/TR/2001/REC-SVG-20010904/DTD/svg10.dtd">
<svg version="1.0" xmlns="http://www.w3.org/2000/svg"
 width="101.000000pt" height="101.000000pt" viewBox="0 0 101.000000 101.000000"
 preserveAspectRatio="xMidYMid meet">
<metadata>
Created by potrace 1.16, written by Peter Selinger 2001-2019
</metadata>
<g transform="translate(0.000000,101.000000) scale(0.100000,-0.100000)"
fill="#000000" stroke="none">
<path d="M389 938 c-13 -29 -43 -81 -67 -116 l-43 -64 66 -69 c36 -38 65 -74
65 -79 0 -5 -18 -9 -41 -8 -45 2 -63 -14 -53 -47 5 -18 7 -345 3 -385 -8 -65
8 -81 68 -73 28 4 31 8 28 33 -3 23 0 28 18 29 12 1 45 3 72 6 28 2 103 1 167
-2 l117 -6 -5 -32 c-6 -37 9 -45 63 -38 26 4 32 10 36 36 2 18 1 42 -4 54 -4
12 -6 112 -3 221 4 184 3 200 -13 206 -15 6 -12 10 17 28 19 12 37 23 39 25 3
2 -26 35 -64 73 l-68 68 52 65 c28 36 58 67 66 71 28 10 15 24 -36 41 -28 9
-51 15 -53 14 -1 -2 -13 -22 -26 -44 -13 -22 -43 -66 -67 -98 l-44 -59 59 -61
c80 -84 100 -116 81 -128 -8 -6 -68 -7 -146 -3 -96 5 -133 3 -133 -5 0 -6 -16
-11 -35 -11 -19 0 -35 5 -35 10 0 6 -8 10 -17 11 -10 0 0 8 22 18 l40 18 -68
68 c-67 67 -68 68 -49 89 27 30 112 156 112 165 0 7 -66 31 -87 31 -5 0 -20
-24 -34 -52z m156 -475 c-1 -48 -1 -48 -38 -51 -21 -2 -37 1 -37 7 0 6 -11 11
-25 11 -22 0 -25 4 -25 34 0 35 0 35 53 39 28 2 57 4 62 5 6 1 10 -18 10 -45z
m239 -2 l-1 -46 -72 -3 -71 -3 3 48 2 48 70 1 70 1 -1 -46z m-239 -169 l0 -48
-65 0 -65 1 3 42 c4 46 -5 42 107 51 18 2 20 -4 20 -46z m240 -4 l0 -48 -70 3
-70 2 0 45 0 45 70 1 70 1 0 -49z"/>
<path d="M577 931 c-15 -32 -43 -82 -62 -111 l-35 -52 71 -77 c39 -42 75 -77
78 -79 4 -1 24 4 44 13 46 19 42 28 -37 103 l-56 53 51 74 c28 41 57 79 65 86
22 18 17 27 -23 38 -62 17 -67 15 -96 -48z"/>
<path d="M106 946 l-26 -34 48 -28 c26 -15 62 -39 81 -53 l34 -25 28 34 c16
19 29 37 29 40 0 9 -145 100 -158 100 -5 0 -21 -15 -36 -34z"/>
<path d="M53 715 c-26 -40 -29 -55 -10 -55 7 0 43 -18 80 -40 36 -22 70 -40
74 -40 13 0 54 70 48 81 -5 8 -158 89 -167 89 -2 0 -13 -16 -25 -35z"/>
<path d="M151 526 c-6 -13 -10 -33 -9 -43 1 -39 -43 -190 -86 -293 -4 -11 7
-20 41 -35 26 -11 50 -21 54 -23 6 -3 21 47 23 78 1 8 4 24 8 35 4 11 9 37 12
58 4 21 10 46 15 55 5 9 11 31 14 47 3 17 9 44 12 61 6 27 3 34 -22 51 -50 35
-53 35 -62 9z"/>
</g>
</svg>
