<?xml version="1.0" standalone="no"?>
<!DOCTYPE svg PUBLIC "-//W3C//DTD SVG 20010904//EN"
 "http://www.w3.org/TR/2001/REC-SVG-20010904/DTD/svg10.dtd">
<svg version="1.0" xmlns="http://www.w3.org/2000/svg"
 width="101.000000pt" height="101.000000pt" viewBox="0 0 101.000000 101.000000"
 preserveAspectRatio="xMidYMid meet">
<metadata>
Created by potrace 1.16, written by Peter Selinger 2001-2019
</metadata>
<g transform="translate(0.000000,101.000000) scale(0.100000,-0.100000)"
fill="#000000" stroke="none">
<path d="M417 1003 c-15 -4 -17 -13 -12 -66 l5 -62 -50 3 c-45 4 -50 2 -55
-21 -14 -56 22 -86 86 -72 l29 7 0 -76 c0 -51 -4 -76 -12 -76 -8 0 -9 -30 -4
-110 l6 -109 -34 -6 c-19 -4 -43 -2 -53 4 -44 23 -76 -8 -66 -63 6 -31 18 -34
98 -20 17 3 73 6 125 5 52 0 124 0 160 0 180 1 229 -1 252 -10 31 -12 46 -3
49 29 5 54 2 57 -48 58 -104 1 -97 -5 -89 70 3 37 6 117 6 178 l0 112 48 7
c26 4 50 12 54 18 22 35 -8 95 -41 82 -9 -4 -27 -8 -41 -9 -23 -2 -25 2 -23
29 1 16 5 42 9 58 7 29 12 27 -78 31 l-37 1 5 -60 4 -60 -109 0 c-103 0 -109
1 -105 20 16 90 16 90 -19 103 -18 7 -35 11 -38 11 -2 -1 -12 -3 -22 -6z m278
-211 c6 -4 10 -22 10 -40 l0 -33 -105 3 -106 3 4 28 c4 28 12 31 78 27 18 -1
35 3 39 9 7 12 65 15 80 3z m10 -185 l0 -39 -100 7 c-55 4 -100 8 -101 9 -1 0
-4 15 -7 31 l-6 30 108 0 107 0 -1 -38z m-50 -103 l51 -6 -1 -39 c0 -35 -3
-39 -30 -44 -16 -2 -55 -2 -85 0 -30 3 -64 5 -75 6 -16 1 -20 9 -20 35 0 33 2
34 38 34 20 0 37 5 37 10 0 12 15 12 85 4z"/>
<path d="M116 947 c-27 -35 -33 -57 -17 -57 6 0 40 -21 77 -46 l68 -47 28 34
c15 18 28 38 28 45 0 6 -26 27 -57 46 -104 63 -99 62 -127 25z"/>
<path d="M74 705 c-15 -20 -25 -37 -23 -38 40 -27 172 -107 177 -107 9 0 62
66 62 77 0 10 -161 103 -178 103 -6 0 -23 -16 -38 -35z"/>
<path d="M159 523 c0 -5 -2 -15 -4 -23 -5 -22 -14 -71 -20 -104 -8 -41 -64
-184 -76 -191 -19 -13 -7 -35 29 -54 68 -34 79 -35 87 -4 5 15 9 39 10 53 2
14 17 78 34 142 17 64 31 123 31 130 0 7 -18 23 -40 36 -42 24 -50 26 -51 15z"/>
<path d="M422 281 c-30 -27 -83 -63 -118 -81 -35 -17 -64 -32 -64 -34 0 -1 18
-17 39 -34 l39 -31 113 74 c63 41 123 75 134 75 16 1 11 8 -25 40 -25 22 -49
39 -55 39 -5 0 -34 -22 -63 -48z"/>
<path d="M655 299 l-36 -32 61 -39 c33 -22 80 -59 104 -84 l44 -44 43 39 c24
22 42 41 39 43 -8 7 -194 134 -207 142 -7 3 -28 -7 -48 -25z"/>
</g>
</svg>
