<?xml version="1.0" standalone="no"?>
<!DOCTYPE svg PUBLIC "-//W3C//DTD SVG 20010904//EN"
 "http://www.w3.org/TR/2001/REC-SVG-20010904/DTD/svg10.dtd">
<svg version="1.0" xmlns="http://www.w3.org/2000/svg"
 width="101.000000pt" height="102.000000pt" viewBox="0 0 101.000000 102.000000"
 preserveAspectRatio="xMidYMid meet">
<metadata>
Created by potrace 1.16, written by Peter Selinger 2001-2019
</metadata>
<g transform="translate(0.000000,102.000000) scale(0.100000,-0.100000)"
fill="#000000" stroke="none">
<path d="M734 999 c-10 -11 -39 -36 -65 -55 l-46 -34 -98 40 c-54 22 -104 40
-111 40 -13 0 -54 -51 -54 -68 0 -6 15 -14 33 -17 17 -4 56 -16 86 -28 l54
-20 -59 -24 c-32 -13 -83 -31 -111 -39 -29 -9 -53 -17 -53 -19 0 -2 15 -20 34
-41 l33 -36 79 35 c43 20 80 34 82 32 2 -1 -5 -20 -15 -41 l-18 -39 -75 2
c-41 1 -87 5 -102 9 -24 5 -29 2 -38 -22 -13 -34 -6 -70 16 -78 9 -3 45 -1 81
5 35 6 66 9 68 7 13 -13 -180 -198 -206 -198 -5 0 -6 13 -3 28 5 25 1 32 -32
51 -42 25 -69 21 -61 -9 3 -11 1 -23 -4 -26 -6 -3 -8 -11 -6 -17 5 -15 -16
-89 -55 -195 -17 -45 -29 -84 -27 -85 2 -1 25 -12 51 -24 51 -24 55 -22 63 38
4 25 55 211 60 217 2 2 19 -11 40 -29 l36 -32 50 49 c27 26 49 46 49 44 6
-100 5 -240 0 -256 -12 -30 -1 -72 20 -77 10 -2 30 -2 44 0 23 5 25 9 25 57 0
97 2 104 25 105 11 0 55 3 96 6 41 3 94 3 118 0 38 -6 42 -9 38 -30 -7 -38
-16 -46 -44 -44 -15 1 -35 1 -46 1 -17 -2 -17 -3 -1 -28 9 -14 14 -28 11 -31
-3 -3 -1 -14 4 -23 17 -31 106 -13 143 28 17 19 18 32 12 151 -5 91 -4 135 4
144 6 8 10 41 9 75 -2 64 -13 80 -46 64 -13 -7 -228 -8 -285 -3 -4 1 -1 11 7
24 15 22 19 22 203 22 114 0 191 4 195 10 27 36 -9 91 -51 80 -14 -3 -83 -7
-153 -8 -116 -2 -125 -1 -117 15 5 9 14 20 19 23 25 15 -5 37 -60 44 -18 2
-10 16 18 33 28 17 30 16 137 -37 69 -35 112 -51 119 -46 6 5 19 23 29 40 l18
30 -38 19 c-21 10 -64 29 -96 42 l-58 23 52 28 c28 16 55 27 58 24 4 -2 13 1
21 6 12 8 7 17 -29 49 -24 22 -47 40 -51 40 -4 0 -15 -9 -26 -21z m-53 -505
l96 -7 -1 -27 -1 -28 -135 2 -135 1 0 33 c0 31 2 32 40 32 22 0 83 -3 136 -6z
m94 -154 c0 -14 -4 -28 -10 -32 -13 -10 -137 -8 -150 2 -5 5 -33 7 -60 7 -49
-2 -51 -1 -47 23 l4 25 131 0 132 0 0 -25z"/>
<path d="M116 957 c-32 -42 -32 -51 -1 -65 14 -7 49 -33 77 -59 l50 -48 34 39
c19 22 34 42 34 45 -1 7 -117 95 -147 110 -19 10 -25 7 -47 -22z"/>
<path d="M60 708 c-11 -18 -20 -37 -20 -41 0 -4 21 -18 48 -29 26 -12 64 -32
84 -45 21 -12 40 -23 43 -23 10 0 45 81 39 91 -8 13 -143 79 -161 79 -7 0 -22
-15 -33 -32z"/>
</g>
</svg>
