<?xml version="1.0" standalone="no"?>
<!DOCTYPE svg PUBLIC "-//W3C//DTD SVG 20010904//EN"
 "http://www.w3.org/TR/2001/REC-SVG-20010904/DTD/svg10.dtd">
<svg version="1.0" xmlns="http://www.w3.org/2000/svg"
 width="101.000000pt" height="101.000000pt" viewBox="0 0 101.000000 101.000000"
 preserveAspectRatio="xMidYMid meet">
<metadata>
Created by potrace 1.16, written by Peter Selinger 2001-2019
</metadata>
<g transform="translate(0.000000,101.000000) scale(0.100000,-0.100000)"
fill="#000000" stroke="none">
<path d="M406 993 c-17 -5 -18 -13 -13 -98 l5 -93 -59 1 c-32 1 -59 4 -59 6 0
3 10 15 22 28 14 15 19 27 12 31 -5 4 -40 28 -76 55 -36 26 -69 47 -74 47 -10
0 -68 -70 -62 -74 1 -1 19 -12 38 -24 19 -11 50 -37 69 -56 19 -19 38 -33 43
-30 4 3 8 -5 8 -18 0 -45 21 -61 78 -57 60 5 59 14 10 -114 -27 -70 -125 -234
-134 -224 -2 2 4 29 13 61 9 33 12 60 7 65 -22 19 -84 52 -85 44 0 -4 -3 -17
-6 -28 -3 -11 -6 -36 -8 -56 -6 -60 -35 -159 -62 -212 -20 -40 -22 -52 -11
-58 7 -5 32 -20 54 -34 l42 -25 8 28 c4 15 9 36 10 47 5 40 14 91 22 119 l8
29 29 -32 c17 -17 33 -31 37 -31 9 0 94 138 104 170 9 26 9 26 30 -96 3 -18 1
-41 -5 -52 -7 -14 -7 -28 1 -49 9 -25 8 -37 -4 -64 -19 -40 -13 -85 11 -92 9
-2 32 -2 49 1 31 4 32 5 25 41 -4 20 -7 52 -6 71 2 19 3 45 4 58 1 26 6 27 31
5 29 -26 45 -9 104 102 38 71 53 91 54 74 5 -70 3 -260 -3 -300 -7 -53 2 -60
61 -51 27 4 31 7 26 27 -3 13 -1 33 6 44 9 17 8 28 -4 53 -19 38 -21 124 -3
132 10 5 10 7 0 12 -15 7 -18 74 -3 74 6 0 10 12 11 28 0 23 4 19 24 -26 33
-72 94 -172 106 -172 5 0 24 17 43 37 l34 38 -47 50 c-71 75 -129 188 -146
285 -4 25 -4 25 64 23 l69 -2 6 33 c11 56 4 61 -77 61 l-72 0 2 45 c3 56 8 90
18 113 8 19 8 19 -67 21 -47 1 -66 -12 -52 -36 3 -5 8 -40 10 -78 3 -64 2 -68
-16 -63 -11 3 -30 3 -42 0 -20 -5 -23 -13 -23 -49 1 -43 1 -43 38 -43 20 0 37
-3 37 -7 0 -9 -61 -178 -64 -178 -2 0 -20 25 -41 55 -38 55 -49 63 -60 45 -13
-21 -20 -8 -20 39 l0 49 31 -5 c37 -6 64 17 64 53 0 27 -17 37 -65 38 -28 1
-30 3 -27 31 2 17 6 55 8 86 3 52 2 57 -22 67 -26 12 -36 13 -68 5z m130 -513
c3 0 20 10 37 22 l31 23 -23 -40 c-32 -53 -92 -127 -98 -121 -3 2 -1 46 3 97
l7 92 19 -36 c10 -20 21 -37 24 -37z"/>
<path d="M81 717 c-28 -46 -27 -50 17 -71 20 -10 54 -29 76 -44 l39 -27 28 35
c16 19 28 39 26 45 -2 5 -40 29 -84 53 l-81 43 -21 -34z"/>
</g>
</svg>
