<?xml version="1.0" standalone="no"?>
<!DOCTYPE svg PUBLIC "-//W3C//DTD SVG 20010904//EN"
 "http://www.w3.org/TR/2001/REC-SVG-20010904/DTD/svg10.dtd">
<svg version="1.0" xmlns="http://www.w3.org/2000/svg"
 width="101.000000pt" height="101.000000pt" viewBox="0 0 101.000000 101.000000"
 preserveAspectRatio="xMidYMid meet">
<metadata>
Created by potrace 1.16, written by Peter Selinger 2001-2019
</metadata>
<g transform="translate(0.000000,101.000000) scale(0.100000,-0.100000)"
fill="#000000" stroke="none">
<path d="M411 973 c-21 -59 -59 -120 -112 -178 -27 -29 -49 -55 -49 -58 0 -9
69 -49 79 -45 5 2 30 29 56 61 26 32 49 56 52 53 9 -9 -55 -135 -82 -162 -14
-14 -25 -27 -23 -28 2 -1 20 -9 40 -18 l37 -17 26 34 c33 42 52 36 57 -17 l4
-40 -102 7 c-87 6 -103 4 -117 -10 -21 -20 -22 -45 -3 -70 12 -16 23 -18 117
-12 l104 6 1 -79 2 -79 -39 2 -39 1 4 48 c3 26 7 52 11 57 15 24 -70 42 -93
19 -14 -14 -16 -88 -2 -88 12 0 13 -45 1 -87 -8 -27 -6 -32 12 -37 11 -3 28
-1 38 5 11 5 85 7 182 3 162 -5 164 -5 170 16 3 12 2 32 -2 44 -9 22 -7 81 4
115 8 26 -31 47 -69 37 -28 -7 -43 -54 -33 -105 6 -27 4 -29 -28 -28 l-33 1 1
75 2 76 93 -1 c89 -2 92 -1 98 21 15 59 -18 76 -137 71 l-54 -2 0 40 0 41 40
-4 c110 -9 131 -1 119 49 -3 14 -7 27 -9 29 -2 2 -56 4 -119 5 -103 1 -113 3
-100 17 20 22 18 29 -16 41 -24 8 -28 13 -19 24 13 16 175 19 184 3 4 -5 37
-9 76 -9 l69 0 0 -40 c0 -22 5 -40 10 -40 6 0 10 -16 10 -35 0 -19 -5 -35 -11
-35 -7 0 -11 -32 -10 -92 0 -107 -6 -294 -12 -322 -7 -35 -48 -50 -102 -36
-40 10 -43 1 -21 -54 12 -32 28 -57 39 -60 24 -6 145 28 163 46 22 22 27 83
28 358 0 140 4 260 7 265 4 6 7 41 7 79 l0 68 -36 -8 c-21 -4 -59 -7 -87 -6
-27 1 -109 3 -182 4 l-132 3 25 32 c32 42 31 50 -12 68 -55 23 -68 19 -83 -22z"/>
<path d="M127 952 c-33 -34 -34 -46 -4 -59 12 -6 44 -30 70 -53 l48 -43 35 34
c19 18 34 36 34 39 0 9 -135 110 -146 110 -6 0 -22 -13 -37 -28z"/>
<path d="M80 705 c-21 -34 -20 -55 2 -55 6 0 38 -18 71 -40 33 -22 61 -39 62
-38 1 2 11 17 23 35 12 17 22 36 22 41 0 10 -132 92 -148 92 -6 0 -20 -16 -32
-35z"/>
<path d="M167 513 c-3 -3 -3 -11 0 -19 3 -8 0 -20 -6 -27 -6 -8 -13 -30 -16
-50 -7 -39 -41 -145 -69 -209 l-16 -38 51 -25 c28 -15 53 -24 56 -22 2 3 6 18
8 34 5 38 42 185 56 220 6 16 13 42 16 59 4 27 -1 34 -35 57 -22 14 -42 23
-45 20z"/>
</g>
</svg>
