<?xml version="1.0" standalone="no"?>
<!DOCTYPE svg PUBLIC "-//W3C//DTD SVG 20010904//EN"
 "http://www.w3.org/TR/2001/REC-SVG-20010904/DTD/svg10.dtd">
<svg version="1.0" xmlns="http://www.w3.org/2000/svg"
 width="101.000000pt" height="101.000000pt" viewBox="0 0 101.000000 101.000000"
 preserveAspectRatio="xMidYMid meet">
<metadata>
Created by potrace 1.16, written by Peter Selinger 2001-2019
</metadata>
<g transform="translate(0.000000,101.000000) scale(0.100000,-0.100000)"
fill="#000000" stroke="none">
<path d="M755 984 c-27 -7 -66 -16 -85 -19 -19 -3 -46 -7 -60 -10 -14 -3 -38
-6 -53 -5 -16 0 -34 -3 -40 -7 -11 -7 -48 -10 -152 -12 -16 0 -42 -3 -57 -7
l-28 -6 25 -30 c14 -16 25 -36 25 -43 0 -14 42 -15 140 -1 25 3 73 8 108 11
34 2 67 7 73 11 6 3 25 8 42 10 18 2 48 6 67 9 19 3 56 6 83 6 26 0 47 5 47
11 0 16 -62 98 -74 97 -6 0 -33 -7 -61 -15z"/>
<path d="M110 938 l-24 -31 24 -16 c13 -9 48 -35 76 -58 l53 -43 30 37 c16 20
28 40 25 44 -9 15 -133 99 -146 98 -7 0 -24 -14 -38 -31z"/>
<path d="M760 812 c-7 -20 -24 -58 -38 -85 -14 -26 -23 -48 -21 -50 25 -14 72
-37 74 -35 1 2 12 25 25 51 12 27 33 61 46 77 27 32 23 39 -39 65 l-36 15 -11
-38z"/>
<path d="M558 827 c-30 -11 -29 -7 -13 -60 8 -26 12 -54 9 -61 -7 -18 22 -46
47 -46 20 0 59 33 59 49 0 6 -5 13 -10 16 -6 4 -8 11 -5 16 4 5 3 15 -2 22 -4
6 -8 17 -9 22 -7 51 -25 61 -76 42z"/>
<path d="M399 816 c-2 -3 -17 -7 -33 -10 -16 -3 -31 -7 -33 -10 -3 -3 6 -29
20 -58 13 -29 28 -63 32 -76 5 -17 12 -22 23 -17 10 4 29 9 45 12 15 3 27 7
27 9 0 3 -14 38 -31 79 -29 69 -38 82 -50 71z"/>
<path d="M60 708 c-26 -43 -26 -45 13 -64 17 -9 51 -30 74 -45 23 -16 45 -29
50 -29 13 0 54 70 48 80 -6 10 -116 74 -147 85 -12 5 -23 -2 -38 -27z"/>
<path d="M807 634 c-7 -7 -75 -16 -110 -15 -22 1 -44 -2 -50 -8 -19 -15 -143
-25 -151 -12 -10 16 -196 12 -196 -5 0 -7 4 -15 9 -19 5 -3 12 -19 16 -35 6
-29 20 -36 55 -31 8 1 49 3 91 4 70 2 77 0 77 -18 0 -11 3 -30 7 -42 6 -19 2
-25 -20 -33 -27 -10 -149 -8 -241 4 -35 4 -43 2 -47 -13 -13 -52 22 -93 62
-72 20 10 129 13 192 5 39 -5 47 -9 47 -27 0 -12 4 -34 7 -49 6 -24 3 -29 -20
-38 -15 -6 -63 -8 -109 -5 -150 10 -140 12 -139 -41 2 -51 -2 -50 118 -38 88
9 369 6 396 -5 13 -4 38 -6 56 -4 26 4 32 10 36 36 7 49 -2 69 -27 60 -20 -8
-134 -8 -201 -1 -27 3 -30 6 -27 33 1 17 3 40 3 51 1 26 1 25 171 27 125 1
126 1 131 25 3 13 2 33 -1 44 -4 17 -10 19 -36 12 -29 -8 -176 -9 -241 -2 -27
3 -30 6 -27 33 1 17 3 40 3 53 1 18 5 21 21 16 21 -6 229 15 240 25 4 3 -3 24
-15 46 -17 31 -29 40 -50 41 -14 1 -28 0 -30 -2z"/>
<path d="M135 418 c-15 -60 -48 -160 -79 -239 -5 -11 7 -24 42 -46 l49 -31 42
162 c23 88 41 166 41 171 0 9 -62 55 -74 55 -2 0 -12 -33 -21 -72z"/>
</g>
</svg>
