<?xml version="1.0" standalone="no"?>
<!DOCTYPE svg PUBLIC "-//W3C//DTD SVG 20010904//EN"
 "http://www.w3.org/TR/2001/REC-SVG-20010904/DTD/svg10.dtd">
<svg version="1.0" xmlns="http://www.w3.org/2000/svg"
 width="101.000000pt" height="102.000000pt" viewBox="0 0 101.000000 102.000000"
 preserveAspectRatio="xMidYMid meet">
<metadata>
Created by potrace 1.16, written by Peter Selinger 2001-2019
</metadata>
<g transform="translate(0.000000,102.000000) scale(0.100000,-0.100000)"
fill="#000000" stroke="none">
<path d="M565 1008 c-16 -6 -31 -12 -33 -13 -2 -2 8 -26 23 -54 l25 -51 -127
5 -128 4 0 -49 c0 -59 10 -65 85 -55 l50 7 -14 -39 c-27 -78 -78 -167 -123
-214 -25 -27 -44 -51 -42 -52 2 -2 23 -13 46 -25 l42 -21 48 72 c26 40 49 74
51 77 2 3 19 -12 38 -33 39 -43 41 -43 69 -19 11 9 8 5 -7 -10 -15 -15 -28
-30 -28 -32 0 -2 12 -7 28 -11 26 -7 26 -7 5 -16 -22 -8 -40 -49 -29 -67 3 -5
-29 -12 -71 -16 -109 -9 -173 -8 -173 4 0 16 -30 12 -36 -5 -4 -8 -3 -31 0
-50 l7 -35 138 4 139 5 4 -72 c3 -40 1 -81 -3 -93 -10 -29 0 -71 20 -77 9 -2
31 -2 48 0 31 5 31 6 37 72 3 36 5 89 3 116 l-2 50 142 -1 c132 -1 143 0 148
17 4 11 4 32 0 48 -6 27 -9 28 -48 24 -23 -2 -87 0 -142 4 -98 8 -100 9 -97
32 2 13 -1 27 -7 30 -10 7 54 111 68 111 3 0 34 -25 68 -55 33 -30 65 -55 70
-55 12 0 63 53 63 66 0 5 -35 31 -78 59 -42 27 -79 50 -81 52 -7 5 21 62 40
79 10 9 19 23 19 30 0 14 -87 51 -97 41 -3 -4 -16 -31 -28 -61 -35 -86 -75
-149 -88 -138 -62 47 -97 77 -97 82 0 4 11 24 25 44 29 43 27 52 -15 61 -26 6
-28 8 -16 21 17 17 76 19 76 3 0 -8 37 -9 133 -4 81 4 142 3 158 -3 14 -6 30
-7 36 -4 15 10 25 49 18 72 -6 18 -12 19 -65 13 -38 -4 -64 -2 -73 6 -8 6 -35
10 -60 8 -34 -2 -47 1 -47 11 0 7 -11 35 -25 62 -27 53 -36 57 -90 38z"/>
<path d="M115 953 c-18 -22 -25 -38 -19 -40 7 -2 44 -26 83 -53 l71 -49 30 37
c16 20 30 39 30 43 0 11 -149 102 -162 98 -2 0 -16 -17 -33 -36z"/>
<path d="M61 716 c-12 -18 -21 -36 -21 -39 0 -2 19 -12 43 -22 23 -9 63 -30
88 -46 25 -16 48 -29 51 -29 8 0 48 68 48 80 0 11 -153 90 -174 90 -8 0 -24
-15 -35 -34z"/>
<path d="M156 518 c-3 -13 -4 -30 -4 -38 0 -8 -3 -28 -7 -45 -3 -16 -8 -42
-10 -57 -5 -32 -43 -143 -61 -180 -8 -15 -14 -29 -14 -32 0 -12 94 -56 102
-48 9 9 11 17 23 91 4 28 17 79 31 126 2 6 8 31 14 58 5 26 14 56 19 66 12 21
1 38 -39 65 -33 22 -49 20 -54 -6z"/>
</g>
</svg>
