<?xml version="1.0" standalone="no"?>
<!DOCTYPE svg PUBLIC "-//W3C//DTD SVG 20010904//EN"
 "http://www.w3.org/TR/2001/REC-SVG-20010904/DTD/svg10.dtd">
<svg version="1.0" xmlns="http://www.w3.org/2000/svg"
 width="101.000000pt" height="101.000000pt" viewBox="0 0 101.000000 101.000000"
 preserveAspectRatio="xMidYMid meet">
<metadata>
Created by potrace 1.16, written by Peter Selinger 2001-2019
</metadata>
<g transform="translate(0.000000,101.000000) scale(0.100000,-0.100000)"
fill="#000000" stroke="none">
<path d="M505 964 c-14 -76 -21 -82 -86 -79 -32 2 -68 7 -79 10 -12 4 -31 0
-44 -8 -21 -14 -26 -12 -87 29 -35 24 -68 44 -74 44 -5 0 -21 -17 -34 -37 -23
-35 -23 -38 -6 -48 10 -5 42 -29 70 -52 l53 -41 28 29 28 29 19 -21 c18 -19
28 -21 83 -16 59 4 63 3 54 -13 -17 -33 -126 -135 -168 -158 -42 -23 -42 -23
-39 -2 1 16 -12 28 -66 58 l-68 37 -30 -35 c-34 -40 -35 -47 -11 -54 10 -4 44
-21 74 -40 51 -30 58 -32 72 -18 14 14 19 13 54 -15 38 -31 39 -31 58 -13 19
19 19 16 19 -150 0 -185 -3 -176 60 -171 33 3 47 18 39 42 -3 12 2 17 18 18
13 0 36 2 53 3 33 3 31 7 39 -95 2 -27 9 -54 15 -60 21 -21 93 -37 113 -26 11
6 37 8 59 4 52 -9 132 11 158 39 12 13 25 36 30 53 8 26 5 31 -18 41 -14 7
-37 20 -50 31 -24 18 -24 18 -16 164 l7 145 35 -15 c19 -8 36 -13 37 -11 1 2
14 23 30 46 15 24 25 46 23 48 -3 3 -17 7 -33 10 -47 7 -167 70 -198 103 l-30
31 42 0 c23 0 42 5 42 10 0 14 47 13 52 -1 5 -16 75 0 82 18 17 42 -30 89 -66
66 -7 -4 -72 -8 -144 -8 l-132 0 14 25 c8 14 20 33 27 43 15 22 -7 39 -40 30
-14 -3 -23 -1 -23 6 0 6 -8 11 -19 11 -14 0 -21 -10 -26 -36z m141 -213 c19
-28 57 -68 84 -90 58 -46 53 -51 -49 -51 l-68 0 2 39 c1 21 5 43 9 50 4 6 6
11 4 12 -2 0 -24 3 -50 5 -43 5 -48 3 -52 -18 -2 -13 -4 -36 -3 -53 2 -28 -1
-30 -35 -33 -22 -2 -38 1 -38 7 0 6 -12 11 -26 11 -25 0 -25 1 21 52 26 29 56
68 67 88 18 31 25 35 60 34 36 -1 42 -6 74 -53z m-120 -229 c-1 -27 -3 -28
-52 -28 -46 1 -50 3 -46 23 3 18 12 23 46 26 22 2 44 4 47 5 3 1 6 -11 5 -26z
m210 -5 c-1 -28 -1 -28 -56 -21 -30 4 -56 7 -56 8 -1 0 -4 10 -8 21 -5 19 -1
20 58 20 62 0 63 0 62 -28z m-11 -95 c6 -4 11 -19 12 -35 1 -21 -5 -29 -24
-33 -13 -4 -35 -2 -49 4 -13 7 -30 9 -37 6 -10 -3 -14 4 -14 26 0 23 4 29 16
25 9 -2 23 0 31 5 18 11 51 13 65 2z m-199 -36 c-2 -28 -5 -31 -31 -28 -17 1
-39 3 -51 3 -15 1 -21 8 -21 28 0 25 3 26 52 27 52 1 52 0 51 -30z m228 -96
c32 -5 61 -11 63 -14 2 -2 -3 -20 -11 -39 -12 -29 -22 -38 -57 -47 -23 -6 -53
-8 -68 -4 -14 4 -35 8 -46 8 -17 1 -20 8 -21 49 -1 39 2 46 15 42 9 -2 23 0
31 5 19 12 22 12 94 0z"/>
<path d="M150 453 c-6 -27 -14 -56 -16 -67 -9 -47 -38 -134 -55 -168 -10 -20
-19 -41 -19 -46 0 -10 74 -62 89 -62 9 0 27 38 23 52 -2 7 61 240 73 269 4 11
-6 24 -34 42 -22 15 -42 27 -45 27 -2 0 -9 -21 -16 -47z"/>
</g>
</svg>
