<?xml version="1.0" standalone="no"?>
<!DOCTYPE svg PUBLIC "-//W3C//DTD SVG 20010904//EN"
 "http://www.w3.org/TR/2001/REC-SVG-20010904/DTD/svg10.dtd">
<svg version="1.0" xmlns="http://www.w3.org/2000/svg"
 width="101.000000pt" height="102.000000pt" viewBox="0 0 101.000000 102.000000"
 preserveAspectRatio="xMidYMid meet">
<metadata>
Created by potrace 1.16, written by Peter Selinger 2001-2019
</metadata>
<g transform="translate(0.000000,102.000000) scale(0.100000,-0.100000)"
fill="#000000" stroke="none">
<path d="M565 974 l0 -46 -108 0 c-60 0 -111 2 -114 6 -3 3 -14 1 -25 -5 -15
-8 -19 -19 -16 -43 l4 -33 -74 59 c-40 32 -77 58 -81 58 -4 0 -19 -13 -34 -28
-27 -28 -35 -52 -18 -52 6 0 37 -25 69 -55 33 -30 63 -55 68 -55 4 0 20 12 36
26 16 17 40 28 60 29 18 1 76 5 129 8 l97 6 -3 -32 -2 -32 -67 -3 c-36 -2 -66
1 -66 6 0 16 -29 22 -55 12 -27 -10 -34 -50 -15 -80 10 -16 72 -18 161 -5 46
7 47 6 45 -19 -1 -21 -7 -27 -35 -32 -23 -5 -36 -2 -43 7 -7 11 -11 11 -15 2
-6 -15 -73 -18 -73 -3 0 6 -25 10 -55 10 -50 0 -55 -2 -61 -25 -3 -14 -4 -36
0 -48 5 -20 11 -23 38 -20 30 4 81 5 283 4 33 -1 98 1 145 4 47 2 111 0 143
-4 55 -7 58 -7 63 16 13 51 -21 98 -52 72 -13 -11 -60 -12 -184 -7 -47 3 -55
6 -56 23 -1 19 5 20 112 20 98 0 115 2 120 17 14 45 -25 91 -60 71 -8 -4 -48
-7 -89 -5 -68 3 -75 6 -79 25 -4 21 -1 22 81 20 47 -1 100 -4 117 -8 42 -9 68
16 60 59 -7 36 -23 48 -51 40 -11 -3 -63 -6 -116 -7 l-97 -2 4 25 c11 68 13
65 -41 68 l-50 3 0 -47z"/>
<path d="M61 711 c-12 -16 -21 -33 -21 -39 0 -5 26 -25 59 -45 32 -20 64 -43
71 -52 18 -22 24 -19 56 22 l27 36 -29 24 c-30 24 -127 83 -137 83 -3 0 -15
-13 -26 -29z"/>
<path d="M387 563 c-14 -4 -16 -12 -11 -51 16 -133 11 -308 -10 -362 -11 -28
10 -44 55 -43 50 2 54 5 37 32 -10 16 -10 27 -1 52 7 17 10 36 7 44 -4 8 3 13
18 14 13 0 52 3 88 6 36 3 93 3 127 -1 51 -4 62 -9 60 -22 -5 -31 -18 -43 -45
-41 -62 5 -64 3 -42 -38 11 -21 20 -44 20 -51 0 -14 56 -11 100 6 52 20 55 32
56 216 0 94 2 178 4 186 8 41 1 49 -47 49 -79 1 -173 0 -273 -2 -52 0 -102 2
-110 5 -8 3 -23 4 -33 1z m314 -69 c53 -5 56 -7 56 -34 0 -28 -2 -29 -61 -35
-34 -3 -90 -3 -126 0 -36 3 -74 6 -86 6 -16 1 -21 8 -21 30 0 22 4 28 16 24 9
-2 22 -1 30 4 16 11 113 13 192 5z m0 -120 c52 -5 57 -8 55 -29 -1 -22 -7 -24
-61 -30 -33 -3 -89 -3 -125 0 -36 3 -74 6 -85 6 -14 1 -20 9 -21 26 -2 18 2
22 15 19 9 -3 22 -2 30 3 17 11 113 13 192 5z"/>
<path d="M160 468 c-19 -76 -62 -202 -81 -240 -11 -21 -19 -43 -19 -50 1 -15
62 -63 80 -63 8 0 23 37 37 90 13 50 35 125 49 168 l26 77 -24 20 c-51 44 -56
44 -68 -2z"/>
</g>
</svg>
