<?xml version="1.0" standalone="no"?>
<!DOCTYPE svg PUBLIC "-//W3C//DTD SVG 20010904//EN"
 "http://www.w3.org/TR/2001/REC-SVG-20010904/DTD/svg10.dtd">
<svg version="1.0" xmlns="http://www.w3.org/2000/svg"
 width="101.000000pt" height="101.000000pt" viewBox="0 0 101.000000 101.000000"
 preserveAspectRatio="xMidYMid meet">
<metadata>
Created by potrace 1.16, written by Peter Selinger 2001-2019
</metadata>
<g transform="translate(0.000000,101.000000) scale(0.100000,-0.100000)"
fill="#000000" stroke="none">
<path d="M543 963 l3 -48 -93 1 c-51 1 -99 4 -107 7 -20 8 -44 -13 -48 -41 -3
-23 -6 -21 -71 28 -38 28 -74 49 -81 47 -8 -3 -23 -19 -34 -35 l-21 -29 69
-56 c39 -31 74 -57 79 -57 5 0 21 16 36 36 17 22 30 32 34 25 5 -8 43 -9 118
-6 109 5 111 5 115 -18 4 -22 3 -23 -71 -20 -97 4 -117 -1 -125 -31 -11 -43
-1 -51 60 -48 31 2 75 1 99 -2 36 -6 43 -10 41 -29 -1 -22 -4 -22 -131 -21
-135 1 -145 -1 -145 -43 0 -43 25 -54 118 -51 56 2 87 8 90 16 4 14 72 16 72
2 0 -5 18 -10 40 -10 22 0 40 5 40 10 0 15 67 12 74 -2 5 -10 7 -10 12 0 9 18
118 16 134 -3 16 -20 64 -19 84 1 17 16 19 27 10 59 -5 19 -13 20 -153 20
-145 0 -147 0 -143 21 3 17 14 23 45 28 23 4 45 2 51 -4 16 -16 83 -12 100 6
17 17 20 42 8 61 -5 8 -42 14 -107 15 -92 3 -100 5 -101 23 -1 18 4 20 43 16
25 -2 56 2 69 9 22 13 98 10 136 -5 20 -8 32 22 23 58 -5 20 -15 26 -52 31
-25 3 -49 3 -54 0 -5 -3 -46 -6 -92 -6 l-82 -2 -3 37 c-2 21 1 37 7 37 6 0 11
5 11 10 0 6 -25 10 -55 10 l-55 0 3 -47z"/>
<path d="M53 709 c-23 -42 -22 -59 1 -59 6 0 43 -20 80 -45 75 -49 80 -49 112
10 18 34 18 35 -1 49 -20 14 -158 86 -166 86 -2 0 -14 -19 -26 -41z"/>
<path d="M346 526 c-9 -33 -7 -67 6 -102 8 -23 8 -46 0 -85 -5 -30 -8 -56 -6
-59 10 -9 98 0 105 12 4 6 0 29 -8 51 -13 31 -14 46 -5 69 6 16 9 35 6 43 -4
8 3 13 18 14 13 1 50 3 83 6 33 3 92 3 131 -1 65 -5 72 -8 73 -27 4 -66 4 -95
-3 -123 -9 -36 4 -44 67 -36 31 3 37 7 31 21 -11 25 -14 162 -4 181 5 9 7 25
4 36 -5 17 -15 19 -87 19 -45 0 -87 -3 -93 -7 -16 -10 -173 -8 -179 2 -3 4
-34 8 -69 8 -57 0 -65 -3 -70 -22z"/>
<path d="M169 518 c0 -7 -2 -20 -4 -28 -2 -8 -6 -33 -10 -54 -9 -55 -42 -160
-70 -222 l-23 -51 54 -26 c55 -27 63 -25 69 16 2 12 6 37 9 55 3 18 19 83 36
143 17 60 30 114 28 120 -6 18 -88 61 -89 47z"/>
<path d="M559 443 c-22 -5 -30 -39 -18 -67 17 -37 -26 -105 -87 -138 -55 -30
-86 -37 -198 -47 -11 -1 -6 -15 17 -50 36 -55 34 -55 147 -17 78 27 143 67
166 102 22 33 55 134 48 145 -3 5 0 18 6 30 7 12 8 25 3 29 -11 10 -64 18 -84
13z"/>
<path d="M635 274 l-26 -33 63 -32 c35 -17 93 -51 130 -75 l67 -43 35 42 c19
23 32 45 28 49 -4 3 -66 33 -139 66 l-132 60 -26 -34z"/>
</g>
</svg>
