<?xml version="1.0" standalone="no"?>
<!DOCTYPE svg PUBLIC "-//W3C//DTD SVG 20010904//EN"
 "http://www.w3.org/TR/2001/REC-SVG-20010904/DTD/svg10.dtd">
<svg version="1.0" xmlns="http://www.w3.org/2000/svg"
 width="101.000000pt" height="102.000000pt" viewBox="0 0 101.000000 102.000000"
 preserveAspectRatio="xMidYMid meet">
<metadata>
Created by potrace 1.16, written by Peter Selinger 2001-2019
</metadata>
<g transform="translate(0.000000,102.000000) scale(0.100000,-0.100000)"
fill="#000000" stroke="none">
<path d="M565 965 l0 -57 -115 -1 -115 -2 -3 -31 c-6 -56 17 -67 124 -59 l92
7 4 -35 4 -34 -83 3 c-46 1 -92 6 -103 9 -49 15 -86 -37 -60 -84 13 -25 71
-29 94 -6 17 17 156 22 156 5 0 -5 6 -10 14 -10 11 0 13 -10 9 -42 -3 -24 -7
-44 -8 -46 -2 -2 -31 17 -65 42 -34 25 -65 46 -69 46 -4 0 -20 -13 -36 -30
-16 -16 -24 -30 -18 -30 6 0 37 -23 67 -51 l56 -51 34 25 34 26 6 -39 c3 -21
1 -51 -4 -66 -6 -15 -9 -33 -6 -40 9 -24 -111 -29 -265 -10 -40 5 -47 3 -52
-13 -13 -52 22 -93 62 -72 22 11 174 13 202 2 23 -8 23 -8 -11 -40 -38 -35
-115 -67 -182 -76 -23 -3 -52 -8 -63 -9 -11 -2 -26 -4 -33 -5 -7 -1 0 -20 20
-51 38 -57 42 -57 168 -9 89 35 159 84 201 142 20 28 39 43 57 45 61 7 209 6
233 -1 24 -8 27 -6 31 24 9 57 0 72 -36 63 -17 -4 -67 -7 -111 -6 -128 2 -121
0 -117 36 2 17 5 60 7 96 5 76 8 90 20 109 5 10 4 16 -3 19 -27 9 3 22 49 22
l50 0 -30 -53 -31 -54 48 -11 c26 -6 50 -8 54 -4 3 4 23 49 44 101 43 108 40
115 -46 106 -62 -7 -170 -9 -174 -4 -2 2 -6 15 -9 29 -6 24 -5 25 44 21 29 -2
56 2 62 8 13 13 71 14 114 2 28 -8 33 -7 38 10 14 44 -8 87 -40 79 -5 -2 -58
-4 -116 -4 l-106 -1 5 35 c10 77 11 75 -43 78 l-50 3 0 -56z"/>
<path d="M131 946 l-33 -34 63 -61 c35 -33 69 -60 75 -61 5 0 25 15 42 33 l33
34 -70 61 c-38 34 -71 62 -73 62 -2 0 -19 -15 -37 -34z"/>
<path d="M58 736 c-16 -19 -28 -37 -28 -40 0 -2 25 -19 55 -36 31 -18 69 -43
84 -56 l29 -24 31 39 c17 21 31 41 31 45 0 4 -165 106 -173 106 -1 0 -14 -16
-29 -34z"/>
<path d="M336 544 c-16 -14 -25 -29 -20 -34 5 -4 35 -29 67 -55 l58 -46 35 26
c19 14 34 28 34 30 0 6 -132 105 -139 105 -3 0 -19 -12 -35 -26z"/>
<path d="M146 538 c-3 -7 -5 -20 -5 -28 -2 -63 -32 -170 -72 -259 -16 -35 -29
-67 -29 -70 0 -7 85 -51 99 -51 4 0 14 26 21 58 7 31 29 114 50 184 l37 127
-38 26 c-43 28 -58 31 -63 13z"/>
<path d="M641 263 l-30 -37 77 -41 c42 -23 97 -55 121 -73 l43 -31 35 41 c42
50 48 44 -109 123 l-106 55 -31 -37z"/>
</g>
</svg>
