<?xml version="1.0" standalone="no"?>
<!DOCTYPE svg PUBLIC "-//W3C//DTD SVG 20010904//EN"
 "http://www.w3.org/TR/2001/REC-SVG-20010904/DTD/svg10.dtd">
<svg version="1.0" xmlns="http://www.w3.org/2000/svg"
 width="101.000000pt" height="101.000000pt" viewBox="0 0 101.000000 101.000000"
 preserveAspectRatio="xMidYMid meet">
<metadata>
Created by potrace 1.16, written by Peter Selinger 2001-2019
</metadata>
<g transform="translate(0.000000,101.000000) scale(0.100000,-0.100000)"
fill="#000000" stroke="none">
<path d="M470 975 c-31 -80 -119 -190 -203 -252 l-48 -36 28 -18 c15 -10 36
-24 46 -31 15 -11 20 -10 35 9 16 22 17 21 19 -60 3 -142 3 -150 -2 -223 l-4
-72 137 4 c164 4 213 4 312 1 41 -1 78 2 82 8 11 15 9 103 -2 110 -13 8 -13
52 0 60 10 6 13 206 3 232 -4 9 -15 12 -37 8 -17 -3 -55 -2 -85 3 l-55 7 67
77 c37 42 67 78 67 80 0 2 -67 3 -149 3 l-149 0 20 27 c10 15 23 30 28 33 19
12 10 26 -25 41 -51 21 -74 18 -85 -11z m194 -164 c3 -5 -19 -32 -49 -60 -48
-46 -58 -51 -99 -51 -25 0 -48 5 -52 11 -3 6 -17 9 -30 6 -38 -7 -36 7 7 49
36 35 44 38 89 36 27 -1 52 3 55 8 8 12 72 13 79 1z m-112 -225 l3 -41 -55 0
-55 0 0 40 0 40 52 1 51 2 4 -42z m225 -3 l2 -42 -62 2 -62 2 0 40 0 40 60 0
60 0 2 -42z m-251 -122 c18 -1 23 -8 25 -38 l4 -38 -60 1 -60 1 -3 40 -3 40
38 -3 c21 -2 48 -3 59 -3z m249 -33 l0 -43 -60 0 -60 0 3 37 c4 39 11 43 87
47 29 1 31 0 30 -41z"/>
<path d="M130 931 c-19 -16 -33 -31 -30 -33 3 -2 35 -32 72 -67 l67 -63 41 32
41 33 -23 25 c-28 30 -117 102 -126 102 -4 0 -23 -14 -42 -29z"/>
<path d="M70 698 l-23 -32 34 -25 c18 -14 53 -44 77 -65 41 -38 43 -38 58 -20
30 38 47 65 43 68 -31 28 -143 106 -153 106 -7 0 -23 -14 -36 -32z"/>
<path d="M167 468 c-4 -13 -7 -27 -8 -33 -4 -26 -64 -185 -86 -229 -20 -39
-22 -50 -11 -57 7 -5 17 -9 21 -9 5 0 22 -9 38 -21 22 -15 30 -17 34 -7 2 7
16 50 30 94 14 45 38 113 54 152 l29 70 -43 31 c-24 17 -45 31 -48 31 -3 0 -7
-10 -10 -22z"/>
<path d="M273 219 c-15 -15 -17 -58 -4 -77 5 -8 19 -13 32 -13 13 1 69 2 124
2 55 0 129 0 165 0 36 1 128 1 205 0 98 0 142 4 147 12 24 38 -8 95 -43 77
-15 -8 -211 -15 -346 -12 -13 1 -44 1 -70 1 -70 1 -155 9 -178 16 -11 3 -26 0
-32 -6z"/>
</g>
</svg>
