<?xml version="1.0" standalone="no"?>
<!DOCTYPE svg PUBLIC "-//W3C//DTD SVG 20010904//EN"
 "http://www.w3.org/TR/2001/REC-SVG-20010904/DTD/svg10.dtd">
<svg version="1.0" xmlns="http://www.w3.org/2000/svg"
 width="101.000000pt" height="101.000000pt" viewBox="0 0 101.000000 101.000000"
 preserveAspectRatio="xMidYMid meet">
<metadata>
Created by potrace 1.16, written by Peter Selinger 2001-2019
</metadata>
<g transform="translate(0.000000,101.000000) scale(0.100000,-0.100000)"
fill="#000000" stroke="none">
<path d="M405 928 c0 -61 -1 -63 -25 -60 -14 2 -41 5 -60 6 -23 1 -57 17 -97
44 -34 23 -66 42 -71 42 -5 0 -22 -17 -38 -37 -26 -34 -27 -37 -10 -47 10 -6
36 -24 59 -41 70 -52 67 -51 77 -35 12 21 43 58 35 42 -4 -7 -4 -24 -1 -37 6
-22 11 -24 64 -22 l57 2 1 -30 0 -30 -72 2 -73 2 2 -40 c2 -21 1 -39 0 -39 -1
0 -32 18 -68 40 -36 22 -69 40 -74 40 -9 0 -51 -61 -51 -73 0 -4 15 -14 33
-23 17 -9 48 -30 68 -45 20 -16 39 -29 43 -29 3 0 17 17 32 38 16 23 23 29 19
15 -4 -16 -1 -22 12 -25 12 -2 18 -14 20 -42 1 -21 4 -41 7 -43 7 -7 42 -7
105 1 l55 6 -28 -29 c-21 -22 -29 -41 -30 -68 -1 -42 0 -42 -110 -29 -43 6
-48 5 -41 -11 4 -10 11 -32 16 -50 10 -34 13 -35 110 -19 23 3 25 1 26 -32 2
-59 -11 -73 -59 -66 -38 7 -41 6 -33 -12 4 -10 9 -30 10 -44 1 -14 3 -28 4
-32 1 -10 78 -2 113 11 35 13 41 25 45 90 1 31 3 66 4 77 1 15 8 22 23 23 11
0 35 2 51 4 17 3 35 5 40 6 6 0 11 21 12 46 1 39 -1 45 -15 41 -9 -3 -29 -7
-45 -10 -15 -3 -35 -7 -45 -10 -38 -13 -19 34 43 105 45 51 61 75 52 81 -7 5
-2 8 16 8 29 0 34 9 15 28 -9 9 -9 18 0 37 6 13 9 32 6 40 -4 9 0 15 7 16 8 0
21 2 29 4 12 2 15 -12 13 -84 -2 -161 -23 -254 -78 -347 -25 -42 -97 -114
-115 -114 -24 0 -6 -17 42 -40 l51 -24 38 44 c65 75 124 205 134 295 5 43 12
108 20 195 7 73 8 75 34 75 26 0 27 -1 24 -53 -1 -29 -5 -56 -7 -61 -3 -4 0
-21 6 -37 8 -22 7 -43 -5 -88 -10 -43 -12 -65 -4 -85 8 -21 6 -39 -6 -75 -9
-26 -14 -53 -10 -62 11 -28 -15 -43 -68 -38 -27 2 -49 2 -49 -1 0 -3 7 -17 16
-30 9 -13 13 -28 10 -34 -10 -15 4 -39 25 -44 34 -9 116 21 139 50 17 22 21
40 20 97 -1 98 8 264 16 306 3 19 8 67 10 105 2 39 4 77 5 85 4 26 -1 50 -8
49 -5 -1 -38 -1 -74 0 l-67 1 -4 37 c-3 22 3 58 13 85 16 46 16 46 -5 53 -11
4 -38 9 -58 11 -29 4 -37 1 -41 -13 -9 -32 -7 -92 3 -98 15 -9 12 -71 -4 -85
-8 -6 -25 -10 -38 -8 -20 3 -23 -1 -23 -30 0 -28 -3 -32 -20 -28 -11 3 -41 6
-67 6 -46 0 -48 1 -48 28 0 27 1 27 65 26 71 -1 82 9 69 60 -7 29 -42 43 -69
28 -24 -13 -62 -3 -68 18 -2 9 2 31 9 48 15 37 10 42 -49 49 l-42 4 0 -63z
m118 -275 c24 -4 26 -8 22 -34 -4 -23 -2 -29 12 -30 13 0 12 -3 -6 -10 -23 -9
-160 -11 -193 -3 -11 3 -16 15 -15 39 1 27 5 34 16 30 9 -2 23 0 31 5 16 10
85 11 133 3z"/>
<path d="M139 518 c0 -7 -3 -22 -5 -33 -2 -11 -6 -33 -8 -50 -10 -75 -19 -114
-43 -170 -39 -94 -40 -88 18 -113 29 -12 54 -20 55 -19 4 4 54 186 60 217 2
14 6 36 9 50 16 77 15 88 -15 95 -16 3 -34 13 -41 21 -14 17 -29 18 -30 2z"/>
</g>
</svg>
