<?xml version="1.0" standalone="no"?>
<!DOCTYPE svg PUBLIC "-//W3C//DTD SVG 20010904//EN"
 "http://www.w3.org/TR/2001/REC-SVG-20010904/DTD/svg10.dtd">
<svg version="1.0" xmlns="http://www.w3.org/2000/svg"
 width="101.000000pt" height="102.000000pt" viewBox="0 0 101.000000 102.000000"
 preserveAspectRatio="xMidYMid meet">
<metadata>
Created by potrace 1.16, written by Peter Selinger 2001-2019
</metadata>
<g transform="translate(0.000000,102.000000) scale(0.100000,-0.100000)"
fill="#000000" stroke="none">
<path d="M647 993 c-3 -16 -20 -68 -38 -118 -30 -83 -33 -88 -42 -62 -8 24
-13 27 -40 22 -18 -3 -50 -2 -72 3 -39 9 -39 9 -13 16 15 5 28 13 31 19 2 7
-7 40 -21 75 -25 66 -28 67 -92 47 -23 -7 -24 -13 -10 -50 9 -24 19 -64 23
-93 2 -11 -14 -14 -60 -14 -35 1 -66 1 -69 1 -4 1 -1 7 5 15 10 12 0 25 -55
70 -37 31 -70 56 -73 56 -13 0 -63 -72 -55 -79 5 -4 35 -31 66 -61 48 -44 60
-51 73 -40 13 10 15 9 15 -8 0 -31 29 -55 59 -49 l26 6 -3 -82 c-11 -307 -23
-362 -104 -467 l-34 -45 46 -21 47 -21 26 42 c28 43 76 162 83 205 10 55 14
88 18 145 5 59 6 60 33 57 15 -2 29 -5 30 -6 3 -3 6 -218 4 -273 -2 -43 -19
-62 -51 -61 -49 3 -51 0 -30 -39 11 -21 20 -44 20 -51 0 -17 51 -8 92 16 43
25 59 85 62 224 0 36 4 64 9 61 4 -2 7 -10 7 -17 0 -19 39 -27 63 -15 10 6 34
8 52 5 25 -5 33 -12 34 -29 1 -12 3 -49 5 -81 3 -32 0 -70 -5 -83 -8 -21 -13
-23 -59 -19 -28 3 -50 2 -48 -2 2 -4 11 -28 22 -54 10 -26 26 -48 35 -50 21
-4 106 23 123 40 8 8 13 49 15 120 1 59 3 117 4 128 1 23 9 25 105 25 43 0 53
3 57 19 12 45 -2 59 -57 59 -97 0 -101 1 -102 30 -1 22 11 36 58 72 57 43 74
69 66 106 -3 13 -11 17 -33 15 -175 -14 -194 -14 -209 1 -9 8 -21 17 -27 19
-8 3 -7 12 4 33 l15 30 136 -2 c124 -2 136 0 141 17 10 31 -5 70 -31 76 -12 3
-28 3 -34 -1 -11 -7 -180 -13 -180 -6 0 2 14 30 31 62 18 33 29 62 25 66 -4 4
-25 7 -46 6 -22 -1 -40 2 -40 8 0 22 -28 7 -33 -18z m-97 -250 c0 -2 -7 -17
-15 -32 -14 -28 -13 -30 18 -64 l33 -34 23 36 c12 20 20 29 18 20 -11 -35 9
-44 93 -42 l80 1 -51 -40 c-46 -37 -50 -45 -47 -75 4 -30 1 -33 -28 -39 -18
-3 -41 -1 -51 5 -25 13 -61 4 -66 -18 -5 -18 -9 41 -8 114 1 28 -2 56 -7 62
-4 7 -40 15 -79 19 l-72 7 2 41 2 41 78 1 c42 1 77 0 77 -3z"/>
<path d="M55 704 c-15 -19 -25 -37 -24 -38 2 -2 27 -18 54 -36 28 -18 61 -42
73 -54 l24 -21 29 35 c34 40 35 48 12 66 -42 33 -122 84 -131 84 -5 0 -22 -16
-37 -36z"/>
<path d="M129 493 c-1 -5 -3 -17 -4 -28 -8 -55 -19 -99 -51 -193 -18 -57 -34
-105 -34 -107 0 -9 91 -52 95 -45 10 17 77 266 81 305 5 39 3 42 -31 58 -39
19 -54 21 -56 10z"/>
</g>
</svg>
