<?xml version="1.0" standalone="no"?>
<!DOCTYPE svg PUBLIC "-//W3C//DTD SVG 20010904//EN"
 "http://www.w3.org/TR/2001/REC-SVG-20010904/DTD/svg10.dtd">
<svg version="1.0" xmlns="http://www.w3.org/2000/svg"
 width="101.000000pt" height="101.000000pt" viewBox="0 0 101.000000 101.000000"
 preserveAspectRatio="xMidYMid meet">
<metadata>
Created by potrace 1.16, written by Peter Selinger 2001-2019
</metadata>
<g transform="translate(0.000000,101.000000) scale(0.100000,-0.100000)"
fill="#000000" stroke="none">
<path d="M124 965 l-26 -35 28 -22 c16 -13 49 -41 73 -63 l43 -40 22 26 c17
22 27 25 57 22 24 -3 41 0 52 11 18 18 77 22 77 5 0 -7 18 -10 50 -7 45 3 49
1 44 -16 -6 -18 -12 -44 -13 -59 -1 -4 -53 -5 -116 -2 l-114 6 -7 -25 c-3 -13
-3 -33 0 -43 9 -28 15 -495 6 -518 -4 -11 -5 -36 -3 -57 5 -40 19 -48 70 -41
29 5 30 7 28 48 -3 38 -1 43 18 44 25 2 195 2 309 0 l77 -1 -4 -43 c-5 -48 6
-56 62 -48 28 5 30 8 31 46 0 23 1 53 1 67 0 14 0 129 0 257 0 128 2 237 6
243 4 6 4 23 0 39 -6 27 -8 28 -75 30 -43 1 -70 -2 -70 -9 0 -5 -11 -10 -25
-10 -14 0 -25 5 -25 10 0 6 -18 10 -40 10 -43 0 -45 3 -30 46 l10 29 78 -3
c42 -2 109 0 149 3 65 6 72 9 78 32 3 13 3 33 0 43 -5 17 -15 18 -108 15 -56
-2 -141 -7 -188 -11 -53 -3 -89 -2 -93 4 -3 5 -43 11 -88 12 -181 6 -170 8
-172 -39 -1 -25 -3 -28 -16 -17 -82 68 -117 96 -123 96 -3 0 -18 -16 -33 -35z
m326 -287 c0 -16 5 -28 10 -28 6 0 10 -32 10 -75 0 -50 -4 -75 -11 -75 -9 0
-10 -31 -5 -114 l7 -114 -34 1 -35 1 -7 148 c-5 105 -4 153 4 162 7 8 10 38 9
67 -3 53 -3 54 24 54 24 0 28 -4 28 -27z m145 22 c32 0 33 -2 36 -42 l4 -43
-50 0 -50 1 -3 48 c-3 42 -1 48 13 42 9 -3 32 -6 50 -6z m195 -190 c0 -107 3
-205 6 -217 6 -21 3 -23 -39 -21 l-45 2 0 76 c-2 129 -1 192 1 275 l2 81 37
-1 38 0 0 -195z m-156 -25 c0 -47 -2 -50 -25 -47 -13 2 -33 3 -44 4 -18 0 -20
6 -17 47 l4 46 41 0 42 0 -1 -50z m1 -130 c0 -11 4 -30 9 -43 10 -30 -10 -56
-38 -47 -12 4 -32 8 -46 9 -20 1 -24 6 -22 26 2 14 3 35 4 48 0 16 5 21 17 18
9 -3 23 -1 31 4 22 15 45 7 45 -15z"/>
<path d="M46 733 c-28 -34 -29 -37 -11 -47 10 -6 47 -30 83 -53 36 -24 68 -43
72 -43 4 0 20 16 35 36 27 36 28 37 9 51 -21 16 -150 93 -156 93 -2 0 -16 -17
-32 -37z"/>
<path d="M146 518 c-3 -7 -4 -20 -4 -28 1 -45 -36 -187 -68 -257 -13 -31 -23
-57 -22 -57 2 -1 24 -11 51 -24 26 -12 49 -22 51 -22 4 0 16 50 22 90 2 14 15
66 29 115 42 148 42 149 0 174 -42 24 -54 26 -59 9z"/>
</g>
</svg>
