<?xml version="1.0" standalone="no"?>
<!DOCTYPE svg PUBLIC "-//W3C//DTD SVG 20010904//EN"
 "http://www.w3.org/TR/2001/REC-SVG-20010904/DTD/svg10.dtd">
<svg version="1.0" xmlns="http://www.w3.org/2000/svg"
 width="101.000000pt" height="101.000000pt" viewBox="0 0 101.000000 101.000000"
 preserveAspectRatio="xMidYMid meet">
<metadata>
Created by potrace 1.16, written by Peter Selinger 2001-2019
</metadata>
<g transform="translate(0.000000,101.000000) scale(0.100000,-0.100000)"
fill="#000000" stroke="none">
<path d="M387 992 c-9 -2 -14 -8 -11 -14 3 -5 3 -51 -1 -102 l-7 -91 -56 0
c-57 0 -57 0 -60 -31 -4 -40 19 -64 63 -64 31 0 55 -23 36 -34 -5 -3 -8 -16
-8 -30 0 -33 -65 -164 -103 -206 -17 -19 -28 -29 -24 -21 4 8 8 24 10 35 1 12
3 26 4 31 6 28 -4 43 -45 63 -31 15 -45 18 -46 9 0 -6 -3 -21 -6 -32 -3 -11
-7 -36 -8 -55 -7 -69 -17 -116 -42 -188 -13 -41 -23 -75 -21 -76 4 -4 99 -46
103 -46 3 0 16 54 21 85 12 74 15 92 15 107 1 30 20 31 50 2 16 -15 31 -25 34
-23 2 3 20 39 39 80 28 57 35 68 36 47 0 -16 5 -28 10 -28 15 0 12 -67 -2 -74
-10 -5 -10 -7 0 -12 17 -8 16 -125 -2 -159 -24 -47 -2 -67 61 -58 l32 5 -2
214 c-2 209 -2 214 15 177 9 -21 17 -44 17 -50 1 -16 10 -16 41 2 14 8 27 14
30 15 6 0 12 -120 11 -220 0 -11 0 -35 1 -52 0 -18 -2 -43 -6 -54 -9 -25 12
-34 63 -26 32 4 33 5 27 49 -4 37 -3 44 10 39 9 -3 24 -1 35 5 11 6 39 7 64 4
l44 -7 -4 -43 c-5 -48 6 -56 61 -48 29 5 30 6 29 61 0 31 -3 62 -6 67 -11 16
-10 153 1 160 12 7 12 213 0 220 -13 8 -13 52 0 60 7 4 10 53 9 126 l-2 120
-129 -7 c-94 -4 -133 -3 -143 6 -8 7 -26 9 -40 6 -23 -6 -25 -11 -25 -56 0
-28 5 -50 10 -50 6 0 10 -16 10 -35 0 -19 -4 -35 -10 -35 -5 0 -10 6 -10 14 0
10 -14 13 -52 12 l-53 -1 3 45 c3 54 9 97 18 128 6 21 -2 27 -29 23 -4 -1 -16
3 -25 7 -9 5 -25 7 -35 4z m418 -213 l1 -66 -76 1 -75 1 0 65 0 65 75 0 75 0
0 -66z m-241 -142 c3 -33 6 -78 6 -101 l0 -41 -34 60 c-32 57 -40 63 -76 54
-11 -3 -16 7 -18 41 l-3 45 59 1 59 1 7 -60z m241 -69 l1 -66 -76 5 c-41 3
-76 6 -77 7 -1 1 1 28 4 61 l5 60 72 0 71 0 0 -67z m-34 -144 c29 -5 37 -11
37 -28 1 -11 4 -34 7 -51 3 -16 2 -36 -3 -43 -8 -12 -71 -17 -140 -12 -27 3
-39 41 -24 76 7 13 9 31 5 40 -5 13 -2 15 13 10 10 -3 26 -1 34 4 18 11 23 12
71 4z"/>
<path d="M124 924 c-23 -29 -25 -37 -13 -45 8 -5 17 -9 20 -9 4 0 30 -21 58
-46 l52 -47 34 39 c19 22 34 42 35 45 0 10 -133 99 -147 99 -7 0 -24 -16 -39
-36z"/>
<path d="M77 700 l-28 -39 33 -17 c18 -9 55 -32 81 -51 27 -19 50 -33 51 -31
2 2 15 20 30 40 15 20 25 42 21 47 -6 10 -116 75 -145 85 -10 4 -25 -8 -43
-34z"/>
</g>
</svg>
