<?xml version="1.0" standalone="no"?>
<!DOCTYPE svg PUBLIC "-//W3C//DTD SVG 20010904//EN"
 "http://www.w3.org/TR/2001/REC-SVG-20010904/DTD/svg10.dtd">
<svg version="1.0" xmlns="http://www.w3.org/2000/svg"
 width="101.000000pt" height="101.000000pt" viewBox="0 0 101.000000 101.000000"
 preserveAspectRatio="xMidYMid meet">
<metadata>
Created by potrace 1.16, written by Peter Selinger 2001-2019
</metadata>
<g transform="translate(0.000000,101.000000) scale(0.100000,-0.100000)"
fill="#000000" stroke="none">
<path d="M108 936 l-28 -35 38 -23 c20 -12 54 -38 75 -57 l38 -34 30 29 c20
20 41 29 67 30 20 1 60 5 87 9 l50 7 0 -38 0 -39 -60 2 c-101 4 -101 4 -103
-76 -1 -39 3 -73 8 -76 15 -9 12 -52 -6 -86 -8 -16 -12 -38 -9 -48 7 -22 42
-34 64 -22 18 10 112 13 151 5 22 -4 26 -10 28 -48 l1 -43 -55 -7 c-30 -3 -60
-3 -66 0 -6 4 -32 9 -58 11 -53 4 -61 -6 -52 -65 4 -32 5 -32 51 -26 79 10
135 13 161 8 23 -4 26 -10 28 -49 1 -42 0 -44 -31 -50 -32 -5 -115 -2 -213 10
-58 6 -65 -2 -56 -63 l4 -33 52 7 c28 3 94 6 146 6 52 -1 124 -1 160 -1 169 1
248 -1 276 -6 29 -5 32 -3 36 27 10 68 -9 85 -72 63 -27 -10 -64 -13 -108 -10
-37 3 -77 6 -89 6 -20 1 -22 6 -21 44 2 35 6 43 23 44 11 0 50 3 88 6 37 2 78
0 91 -5 22 -8 24 -6 29 23 8 61 1 68 -62 60 -50 -7 -75 -7 -146 -2 -22 1 -28
32 -11 58 5 8 4 16 -4 21 -23 14 21 20 133 16 107 -3 108 -3 102 18 -13 39
-18 186 -6 186 6 0 11 19 11 44 0 43 -1 44 -37 49 -21 3 -60 4 -88 3 l-50 -2
0 36 -1 37 48 -5 c26 -2 71 -1 102 2 47 6 55 11 60 32 4 14 4 33 1 43 -5 18
-14 18 -263 5 -60 -3 -108 -2 -115 4 -7 5 -43 11 -82 12 -167 6 -158 8 -159
-45 -1 -30 -3 -32 -17 -22 -60 44 -125 87 -134 87 -5 0 -22 -15 -37 -34z m514
-119 c3 -31 2 -32 -37 -32 -39 0 -40 1 -40 35 0 34 1 35 37 32 32 -4 36 -7 40
-35z m-159 -182 l3 -70 -42 0 -42 0 2 73 1 73 38 -3 38 -3 2 -70z m163 -3 l0
-67 -38 3 -38 4 0 58 0 59 38 4 c20 2 37 4 37 5 0 1 0 -28 1 -66z m170 -2 l0
-65 -45 0 -46 0 0 65 0 65 45 0 45 0 1 -65z"/>
<path d="M51 717 c-12 -19 -21 -37 -21 -41 0 -3 22 -17 49 -30 26 -14 63 -37
80 -52 l32 -27 29 34 c16 19 29 39 30 45 0 6 -40 32 -89 57 l-89 47 -21 -33z"/>
<path d="M145 520 c-3 -5 -8 -22 -10 -37 -12 -89 -43 -200 -71 -255 -21 -40
-18 -45 35 -72 l49 -25 8 27 c4 15 7 30 6 33 -1 3 14 66 33 139 19 74 35 138
35 144 0 16 -78 58 -85 46z"/>
</g>
</svg>
