<?xml version="1.0" standalone="no"?>
<!DOCTYPE svg PUBLIC "-//W3C//DTD SVG 20010904//EN"
 "http://www.w3.org/TR/2001/REC-SVG-20010904/DTD/svg10.dtd">
<svg version="1.0" xmlns="http://www.w3.org/2000/svg"
 width="101.000000pt" height="101.000000pt" viewBox="0 0 101.000000 101.000000"
 preserveAspectRatio="xMidYMid meet">
<metadata>
Created by potrace 1.16, written by Peter Selinger 2001-2019
</metadata>
<g transform="translate(0.000000,101.000000) scale(0.100000,-0.100000)"
fill="#000000" stroke="none">
<path d="M535 960 l0 -52 -60 -1 c-33 0 -79 3 -101 7 -32 6 -45 4 -58 -9 -9
-9 -16 -20 -16 -25 0 -5 -29 13 -66 40 -36 28 -73 50 -82 50 -15 0 -70 -66
-61 -73 2 -2 27 -17 55 -35 27 -17 61 -43 74 -57 l25 -26 27 33 c20 24 30 29
36 21 6 -9 36 -11 110 -8 105 5 115 1 93 -34 -7 -11 -23 -12 -87 -4 -89 11
-101 9 -109 -18 -17 -53 23 -75 124 -68 28 2 51 3 51 1 0 -2 -5 -12 -10 -22
-9 -17 -20 -19 -110 -15 -67 3 -100 1 -100 -6 0 -6 -6 -4 -14 4 -8 8 -51 33
-96 57 l-82 42 -24 -28 c-33 -40 -30 -51 19 -75 23 -12 63 -37 89 -55 l46 -34
23 37 23 37 8 -32 c7 -26 15 -32 45 -38 21 -4 54 -2 75 3 l38 10 -37 -33 c-56
-49 -150 -97 -156 -81 -7 20 -75 58 -82 47 -3 -5 -8 -22 -10 -37 -3 -26 -9
-61 -19 -108 -9 -47 -28 -108 -46 -150 l-19 -44 49 -35 48 -35 8 27 c4 15 7
30 6 33 -1 4 3 22 9 40 6 19 11 43 13 54 6 41 39 170 46 178 10 11 60 -32 58
-51 -1 -9 0 -31 0 -49 2 -31 3 -32 41 -29 21 2 44 6 50 10 6 4 31 4 54 1 l42
-8 -35 -29 c-19 -17 -71 -48 -115 -69 -44 -22 -78 -43 -76 -47 2 -4 17 -22 33
-41 l29 -33 57 38 c31 22 85 66 121 99 36 33 62 52 58 43 -3 -9 -1 -30 5 -46
9 -22 8 -39 -4 -74 -22 -62 -11 -75 59 -70 20 2 22 7 22 55 0 28 1 65 2 80 l1
28 47 -27 c25 -15 72 -45 103 -66 31 -21 61 -38 65 -38 9 0 67 70 61 74 -1 2
-52 29 -111 61 l-108 57 -28 -26 -28 -27 0 30 c0 22 5 29 21 30 12 0 48 3 81
6 33 2 75 -1 93 -6 40 -13 44 -10 45 35 1 20 6 36 12 36 11 0 69 80 63 85 -2
1 -26 10 -55 19 -28 10 -71 31 -95 49 l-43 31 30 6 c17 3 42 2 56 -4 56 -20
97 12 84 66 l-6 23 -178 0 c-161 0 -178 2 -170 16 6 13 34 17 145 22 143 7
154 10 154 54 0 34 -25 41 -83 26 -28 -7 -81 -13 -118 -13 -65 0 -67 1 -65 25
1 23 5 25 44 25 23 0 42 5 42 10 0 6 11 10 25 10 14 0 25 -5 25 -10 0 -7 32
-10 85 -9 74 1 85 4 91 21 11 36 -4 65 -37 72 -47 9 -97 7 -104 -4 -3 -6 -38
-9 -79 -8 -72 3 -74 4 -69 27 2 13 9 33 14 43 14 26 10 28 -52 35 l-54 5 0
-52z m136 -391 c14 -27 12 -28 -45 -33 -26 -3 -54 -10 -62 -17 -11 -9 -21 -9
-39 -1 -14 6 -32 9 -42 5 -12 -5 -8 4 11 28 26 32 31 34 96 36 61 2 71 0 81
-18z m147 -143 c18 -9 32 -21 32 -26 0 -13 -56 -20 -120 -15 -30 3 -65 5 -76
6 -18 1 -22 7 -21 33 1 30 3 32 40 33 22 1 42 5 45 8 3 3 -2 20 -13 38 -17 30
-15 29 32 -14 27 -26 64 -54 81 -63z m-378 23 c0 -16 4 -19 21 -14 11 4 35 8
53 9 30 3 33 0 33 -25 0 -24 -5 -30 -31 -34 -17 -3 -60 -3 -96 0 -36 3 -75 6
-88 6 -13 1 -22 2 -20 4 27 26 113 83 120 79 4 -3 8 -14 8 -25z"/>
</g>
</svg>
