<?xml version="1.0" standalone="no"?>
<!DOCTYPE svg PUBLIC "-//W3C//DTD SVG 20010904//EN"
 "http://www.w3.org/TR/2001/REC-SVG-20010904/DTD/svg10.dtd">
<svg version="1.0" xmlns="http://www.w3.org/2000/svg"
 width="101.000000pt" height="101.000000pt" viewBox="0 0 101.000000 101.000000"
 preserveAspectRatio="xMidYMid meet">
<metadata>
Created by potrace 1.16, written by Peter Selinger 2001-2019
</metadata>
<g transform="translate(0.000000,101.000000) scale(0.100000,-0.100000)"
fill="#000000" stroke="none">
<path d="M553 928 c-1 -45 2 -87 7 -94 10 -11 12 -128 4 -180 l-6 -30 -61 4
c-34 2 -62 5 -63 6 -1 0 -4 13 -7 27 -6 24 -4 25 23 21 16 -2 40 -2 53 2 19 4
23 12 22 48 l0 43 -43 2 c-52 2 -50 0 -54 37 -3 31 4 35 69 39 46 4 51 14 26
55 -22 37 -32 41 -83 27 -14 -4 -32 -7 -40 -7 -8 0 -22 -2 -30 -5 -19 -8 -27
-10 -40 -12 -5 0 -10 -13 -10 -27 0 -24 -2 -25 -19 -13 -10 8 -51 36 -91 63
-78 53 -70 54 -117 -13 -16 -22 -16 -24 1 -33 9 -5 46 -32 82 -59 36 -27 69
-49 74 -49 4 0 22 17 39 38 l30 37 1 -27 c0 -16 5 -28 10 -28 6 0 10 -11 10
-25 0 -14 -5 -25 -12 -25 -16 0 -3 -200 14 -212 17 -11 112 -2 116 12 4 11 44
13 77 4 16 -4 21 -14 22 -45 2 -33 -1 -40 -22 -45 -13 -3 -34 -2 -47 2 -20 7
-50 10 -146 15 -13 1 -26 -2 -30 -5 -7 -8 -6 -75 1 -82 6 -6 28 -6 76 -1 30 4
32 2 16 -9 -16 -12 -15 -16 14 -53 18 -22 45 -51 61 -64 l29 -25 -42 -11 c-64
-18 -88 -22 -142 -27 -27 -3 -59 -6 -70 -8 -11 -2 -26 -4 -34 -5 -8 -1 -2 -13
17 -35 17 -19 34 -42 39 -50 8 -14 21 -13 113 13 58 16 127 39 153 50 43 18
51 19 75 7 50 -25 175 -61 252 -71 35 -5 36 -4 63 50 l27 55 -58 -1 c-31 -1
-73 2 -92 5 -19 3 -46 8 -60 10 -14 2 -37 7 -51 10 -26 7 -26 8 29 59 48 45
132 158 132 177 0 6 -13 7 -85 10 -11 0 -46 -2 -77 -4 l-57 -4 2 36 1 37 51 2
c27 2 70 4 95 5 25 1 56 -1 70 -5 24 -8 25 -6 27 37 1 25 -2 48 -7 51 -12 7
-12 153 0 160 6 3 10 28 10 55 0 72 -12 80 -125 78 -94 -2 -94 -2 -100 -30
-12 -54 0 -66 63 -65 57 2 57 2 58 -28 l0 -30 -60 0 c-66 0 -75 -9 -62 -60 7
-28 64 -44 100 -27 21 9 22 7 21 -29 l0 -39 -71 3 -70 2 3 150 c3 143 6 181
14 215 3 12 -8 16 -51 18 l-55 3 -2 -83z m131 -528 c19 -7 17 -12 -31 -59 -29
-28 -56 -51 -61 -51 -4 0 -32 25 -62 56 -35 35 -48 54 -35 50 11 -3 26 -2 34
3 17 11 127 12 155 1z"/>
<path d="M55 710 c-15 -22 -26 -42 -24 -44 2 -2 31 -17 64 -34 33 -17 73 -40
89 -51 l30 -20 28 37 c15 20 28 43 28 49 0 10 -166 103 -183 103 -3 0 -17 -18
-32 -40z"/>
<path d="M160 504 c-6 -15 -9 -29 -6 -31 9 -9 -36 -150 -70 -221 -19 -40 -32
-76 -29 -81 3 -5 26 -21 52 -35 46 -26 62 -24 63 10 0 6 20 82 45 169 49 175
50 160 -18 200 -26 16 -27 16 -37 -11z"/>
</g>
</svg>
