<?xml version="1.0" standalone="no"?>
<!DOCTYPE svg PUBLIC "-//W3C//DTD SVG 20010904//EN"
 "http://www.w3.org/TR/2001/REC-SVG-20010904/DTD/svg10.dtd">
<svg version="1.0" xmlns="http://www.w3.org/2000/svg"
 width="101.000000pt" height="102.000000pt" viewBox="0 0 101.000000 102.000000"
 preserveAspectRatio="xMidYMid meet">
<metadata>
Created by potrace 1.16, written by Peter Selinger 2001-2019
</metadata>
<g transform="translate(0.000000,102.000000) scale(0.100000,-0.100000)"
fill="#000000" stroke="none">
<path d="M573 1007 c-24 -5 -43 -13 -43 -17 0 -4 7 -24 16 -45 8 -20 14 -38
12 -40 -2 -1 -46 -6 -99 -10 -66 -4 -99 -3 -103 4 -10 16 -42 13 -60 -5 -9 -8
-13 -21 -9 -27 4 -6 -13 4 -37 24 -25 20 -62 46 -83 58 -37 23 -39 23 -52 5
-34 -46 -40 -65 -23 -75 8 -5 43 -30 77 -55 34 -26 66 -43 70 -38 4 5 17 22
29 38 18 24 22 26 23 10 3 -46 1 -71 -5 -91 -10 -31 19 -56 58 -49 39 8 47 22
44 76 l-3 45 212 1 211 2 4 -50 c1 -28 0 -52 -3 -53 -3 -2 -31 12 -63 30 l-57
35 -24 -28 c-13 -15 -25 -29 -25 -32 0 -3 20 -18 45 -33 24 -16 67 -49 95 -74
l50 -45 35 26 c19 15 35 30 35 34 0 4 -14 19 -32 34 -33 27 -33 27 -8 28 14 0
31 4 39 9 17 11 27 112 16 167 l-6 36 -80 -6 c-54 -5 -79 -4 -79 3 0 6 -21 11
-50 11 -27 0 -49 3 -48 8 3 13 -24 102 -31 101 -3 -1 -25 -6 -48 -12z"/>
<path d="M425 729 c-27 -28 -74 -66 -104 -86 l-54 -36 34 -28 c19 -16 38 -29
43 -29 10 0 126 87 186 140 l35 30 -35 30 c-19 16 -39 30 -45 30 -5 0 -32 -23
-60 -51z"/>
<path d="M65 709 c-9 -17 -15 -34 -13 -39 2 -5 37 -31 78 -59 l74 -49 27 37
c21 27 25 39 17 49 -15 17 -141 92 -156 92 -6 0 -19 -14 -27 -31z"/>
<path d="M516 630 c-48 -75 -138 -159 -220 -205 -34 -19 -65 -35 -67 -35 -9 0
-6 55 3 61 15 9 5 21 -36 43 -39 21 -44 20 -49 -10 -2 -10 -7 -27 -12 -37 -4
-10 -5 -21 -1 -24 3 -3 1 -12 -6 -20 -6 -7 -8 -16 -5 -20 4 -3 2 -12 -5 -20
-6 -7 -8 -16 -5 -19 4 -4 -12 -65 -47 -170 -6 -19 -1 -24 40 -38 26 -9 51 -16
55 -16 6 0 17 31 25 70 1 8 5 26 8 40 10 48 15 75 19 103 7 49 22 52 55 11
l31 -37 38 30 38 31 0 -139 c0 -150 1 -153 59 -142 25 5 31 17 28 54 -1 11 7
17 21 18 12 0 56 3 97 6 41 3 89 3 106 0 26 -4 31 -10 31 -35 0 -17 2 -32 4
-35 6 -6 36 -9 71 -7 l27 2 -2 145 c-1 80 -1 145 1 145 2 0 15 -6 30 -14 48
-24 72 -29 72 -13 0 8 11 31 25 50 22 34 23 37 7 46 -9 5 -37 12 -62 15 -25 3
-69 18 -98 32 -64 31 -154 116 -146 138 6 16 -26 41 -66 51 -22 5 -30 -2 -64
-55z m138 -127 l57 -61 -119 1 -119 2 19 24 c43 55 93 107 99 102 3 -3 31 -34
63 -68z m69 -203 c3 -30 4 -57 1 -60 -3 -3 -54 -4 -112 -3 -165 3 -150 -3
-148 62 l1 56 126 0 127 0 5 -55z"/>
</g>
</svg>
