<?xml version="1.0" standalone="no"?>
<!DOCTYPE svg PUBLIC "-//W3C//DTD SVG 20010904//EN"
 "http://www.w3.org/TR/2001/REC-SVG-20010904/DTD/svg10.dtd">
<svg version="1.0" xmlns="http://www.w3.org/2000/svg"
 width="101.000000pt" height="101.000000pt" viewBox="0 0 101.000000 101.000000"
 preserveAspectRatio="xMidYMid meet">
<metadata>
Created by potrace 1.16, written by Peter Selinger 2001-2019
</metadata>
<g transform="translate(0.000000,101.000000) scale(0.100000,-0.100000)"
fill="#000000" stroke="none">
<path d="M164 959 l-31 -30 70 -70 70 -70 26 23 c14 12 30 26 36 30 8 7 -120
148 -135 148 -3 0 -19 -14 -36 -31z"/>
<path d="M389 973 c-12 -3 -17 -17 -17 -56 0 -29 4 -62 10 -73 7 -15 7 -51 1
-115 -6 -52 -8 -96 -6 -99 4 -4 147 -4 293 0 19 1 64 -1 100 -4 36 -3 71 -2
78 2 14 10 28 263 16 315 -5 24 -10 28 -27 22 -44 -13 -217 -18 -217 -6 0 6
-17 11 -40 11 -22 0 -40 -4 -40 -10 0 -5 -25 -10 -55 -10 -30 0 -55 4 -55 9 0
11 -21 18 -41 14z m316 -80 c69 -5 70 -6 70 -34 l0 -30 -156 3 c-155 3 -155 3
-151 26 3 13 12 22 23 22 10 0 21 5 24 10 7 11 70 12 190 3z m70 -157 l0 -33
-87 5 c-62 3 -88 1 -88 -7 0 -6 -11 -11 -25 -11 -14 0 -25 5 -25 10 0 6 -17
10 -39 10 -35 0 -39 3 -43 28 l-4 27 156 2 155 2 0 -33z"/>
<path d="M88 763 l-27 -35 47 -35 c26 -20 59 -47 75 -61 l27 -26 32 31 c27 28
30 34 18 48 -13 16 -112 94 -135 107 -5 3 -22 -10 -37 -29z"/>
<path d="M305 569 c-10 -31 4 -56 38 -67 19 -6 24 -10 13 -11 -14 -1 -17 -6
-12 -23 4 -13 9 -32 11 -42 7 -31 21 -39 54 -31 35 7 37 17 16 69 l-15 36 27
0 c16 0 37 3 48 6 18 5 20 0 20 -60 l0 -65 -70 -25 c-38 -14 -89 -30 -113 -37
-23 -7 -41 -15 -40 -18 2 -3 14 -22 26 -43 l23 -36 67 38 c92 52 110 57 111
28 0 -13 2 -36 3 -53 3 -28 1 -30 -32 -31 -72 -3 -73 -3 -65 -21 4 -10 9 -29
10 -43 1 -14 3 -28 4 -33 1 -9 57 -2 96 13 53 20 65 38 65 99 0 31 5 63 10 71
5 8 10 11 10 5 0 -5 8 -20 18 -33 l18 -23 69 40 c38 23 73 41 76 41 4 0 7 -10
7 -22 0 -13 4 -35 7 -51 9 -35 -11 -61 -39 -52 -12 4 -34 8 -49 9 -25 3 -28 0
-22 -18 4 -12 8 -32 10 -46 1 -14 3 -29 4 -33 1 -11 76 -2 119 13 18 7 37 21
43 31 15 29 25 219 11 219 -8 0 -12 25 -12 75 0 46 4 75 11 75 6 0 9 14 7 33
-2 26 -7 31 -23 29 -69 -12 -97 -13 -108 -4 -7 6 -43 11 -79 10 -61 -1 -67 -3
-73 -25 -9 -36 11 -63 48 -64 27 -1 29 -2 9 -7 -26 -8 -26 -11 -10 -64 12 -42
14 -43 54 -28 27 11 28 17 8 88 -6 20 -3 22 37 22 l44 0 0 -60 0 -60 -90 -35
c-49 -19 -93 -35 -97 -35 -5 0 -8 23 -8 50 0 28 -4 50 -10 50 -15 0 -13 147 2
152 7 3 -7 8 -31 12 -27 4 -48 3 -55 -4 -13 -13 -53 -13 -61 0 -4 6 -35 10
-71 9 -52 -2 -65 -5 -69 -20z"/>
<path d="M176 562 c-3 -4 -5 -21 -5 -38 0 -27 -7 -69 -11 -69 -1 0 -4 -13 -6
-28 -4 -41 -33 -124 -61 -180 -13 -26 -22 -51 -19 -55 2 -4 25 -22 50 -40 46
-33 55 -32 61 11 2 12 6 36 9 54 3 17 10 51 17 75 7 24 14 49 15 57 1 7 13 45
25 82 l23 69 -40 34 c-41 37 -50 41 -58 28z"/>
</g>
</svg>
