<?xml version="1.0" standalone="no"?>
<!DOCTYPE svg PUBLIC "-//W3C//DTD SVG 20010904//EN"
 "http://www.w3.org/TR/2001/REC-SVG-20010904/DTD/svg10.dtd">
<svg version="1.0" xmlns="http://www.w3.org/2000/svg"
 width="101.000000pt" height="101.000000pt" viewBox="0 0 101.000000 101.000000"
 preserveAspectRatio="xMidYMid meet">
<metadata>
Created by potrace 1.16, written by Peter Selinger 2001-2019
</metadata>
<g transform="translate(0.000000,101.000000) scale(0.100000,-0.100000)"
fill="#000000" stroke="none">
<path d="M519 958 l-14 -53 -67 2 c-56 2 -69 -1 -77 -15 -13 -24 -14 -229 -1
-237 13 -8 13 -52 0 -60 -13 -8 -13 -91 0 -116 12 -21 67 -27 98 -10 10 5 29
7 42 4 23 -4 25 -9 25 -48 0 -43 -1 -44 -38 -50 -21 -4 -43 -3 -50 3 -7 5 -46
10 -89 10 -73 1 -76 0 -82 -24 -4 -14 -4 -34 -1 -44 7 -21 42 -32 64 -20 18 9
101 11 144 3 l29 -5 -29 -30 c-43 -46 -108 -72 -207 -83 -21 -2 -41 -6 -44 -9
-3 -3 13 -26 34 -50 45 -51 53 -52 150 -5 66 31 159 108 169 139 5 16 15 10
68 -44 50 -50 75 -67 132 -88 93 -34 135 -43 135 -28 0 6 13 31 29 54 l30 43
-27 1 c-15 0 -40 3 -57 6 -16 2 -44 7 -62 10 -37 6 -124 48 -141 69 -15 18
-15 18 145 20 109 2 112 2 116 25 10 52 0 61 -64 57 l-58 -4 -24 43 c-22 39
-22 43 -6 39 10 -3 29 -3 43 1 23 6 24 9 31 138 5 95 4 133 -4 136 -14 5 -15
72 0 72 6 0 9 19 7 48 l-3 47 -73 -3 c-42 -2 -78 1 -86 7 -7 6 -34 10 -59 8
-26 -1 -47 0 -47 4 0 3 9 18 20 32 27 35 26 49 -5 41 -15 -4 -25 -2 -25 5 0 6
-13 11 -29 11 -26 0 -29 -5 -42 -52z m246 -146 l0 -30 -93 -6 c-65 -5 -98 -4
-107 4 -8 7 -35 10 -62 8 -45 -3 -48 -2 -49 22 l-1 25 156 3 156 3 0 -29z
m-175 -103 c0 -8 26 -10 89 -7 87 5 89 5 87 -17 -1 -21 -5 -22 -68 -18 -39 2
-69 -1 -73 -7 -8 -13 -48 -13 -62 1 -6 6 -33 9 -60 8 -41 -3 -49 -1 -49 14 0
13 9 17 43 17 24 0 43 5 43 10 0 6 11 10 25 10 14 0 25 -5 25 -11z m156 -107
c6 -4 13 -16 16 -28 5 -19 2 -20 -78 -16 -58 3 -84 1 -84 -7 0 -7 -26 -11 -74
-11 l-73 0 1 28 1 28 99 -3 c55 -1 107 2 115 7 19 11 62 12 77 2z m-18 -139
l-38 -16 21 -33 c19 -32 19 -34 3 -41 -9 -3 -30 -1 -46 5 -16 6 -36 8 -44 5
-19 -7 -18 7 3 36 15 22 15 25 -1 36 -24 18 -6 23 74 23 l65 0 -37 -15z"/>
<path d="M132 927 l-32 -33 82 -62 83 -61 37 36 c20 20 35 40 32 45 -9 14
-146 108 -159 108 -6 0 -26 -15 -43 -33z"/>
<path d="M76 708 c-25 -42 -26 -58 -1 -58 13 0 101 -44 146 -73 26 -17 26 -17
53 23 14 22 26 44 26 50 0 10 -170 100 -189 100 -6 0 -21 -19 -35 -42z"/>
<path d="M164 522 c-4 -9 -9 -24 -10 -32 -6 -40 -15 -84 -20 -92 -3 -5 -8 -24
-11 -41 -3 -17 -18 -68 -34 -111 -16 -44 -29 -83 -29 -86 0 -14 100 -54 110
-44 5 5 12 32 15 59 2 28 16 91 30 140 48 170 48 168 28 183 -10 7 -30 20 -45
28 -23 12 -27 12 -34 -4z"/>
</g>
</svg>
