<?xml version="1.0" standalone="no"?>
<!DOCTYPE svg PUBLIC "-//W3C//DTD SVG 20010904//EN"
 "http://www.w3.org/TR/2001/REC-SVG-20010904/DTD/svg10.dtd">
<svg version="1.0" xmlns="http://www.w3.org/2000/svg"
 width="101.000000pt" height="101.000000pt" viewBox="0 0 101.000000 101.000000"
 preserveAspectRatio="xMidYMid meet">
<metadata>
Created by potrace 1.16, written by Peter Selinger 2001-2019
</metadata>
<g transform="translate(0.000000,101.000000) scale(0.100000,-0.100000)"
fill="#000000" stroke="none">
<path d="M548 965 c7 -77 -1 -90 -50 -90 l-43 0 4 38 c2 20 7 40 12 43 22 13
6 32 -31 38 -49 8 -85 -8 -75 -32 4 -9 8 -33 8 -53 l2 -36 -47 4 c-38 2 -48 0
-48 -13 0 -8 -25 14 -56 50 -30 36 -59 66 -63 66 -4 0 -24 -15 -44 -32 l-36
-33 63 -67 63 -67 34 25 c33 24 34 24 37 5 4 -25 52 -37 83 -21 21 12 21 11
14 -16 -10 -34 -10 -73 -1 -82 12 -11 78 -4 88 10 5 7 7 32 5 55 l-4 42 31 -6
c17 -3 32 -7 34 -8 1 -1 3 -23 4 -48 1 -50 13 -60 66 -48 28 6 30 9 28 53 -1
46 -1 46 34 50 l35 3 -2 -51 c-2 -57 8 -67 60 -57 26 5 37 27 37 75 0 30 21
39 59 26 47 -17 79 16 69 69 -3 15 -13 18 -68 18 l-65 0 1 42 c1 23 5 46 9 52
8 15 -43 34 -72 26 -26 -6 -38 -41 -29 -88 6 -31 5 -32 -32 -32 l-37 -1 1 46
c1 25 5 52 8 61 5 12 0 18 -25 23 -62 12 -64 10 -61 -39z"/>
<path d="M67 739 l-37 -31 48 -46 c27 -26 56 -58 65 -71 l16 -24 40 33 c23 17
41 35 41 39 0 8 -121 131 -130 131 -3 0 -22 -14 -43 -31z"/>
<path d="M256 657 c-2 -10 0 -30 7 -44 8 -18 8 -32 -1 -57 -23 -63 -16 -72 49
-67 22 2 27 -2 28 -21 0 -13 3 -62 6 -109 3 -48 1 -105 -3 -127 -11 -46 -3
-52 61 -44 l39 4 -8 52 c-7 46 -8 69 -3 142 1 15 8 22 23 23 11 0 34 2 51 3
27 3 30 0 33 -27 6 -54 2 -143 -8 -169 -6 -18 -6 -34 2 -51 8 -19 8 -28 -2
-40 -20 -24 -4 -30 66 -27 26 2 33 7 37 29 3 14 -1 44 -9 65 -9 25 -12 63 -9
106 3 37 6 77 6 88 1 15 8 22 23 23 11 0 37 2 56 3 29 3 35 0 36 -17 0 -11 4
-33 8 -48 14 -46 -6 -75 -48 -74 -19 0 -38 -1 -40 -4 -9 -9 39 -98 54 -102 18
-3 91 20 105 34 5 5 10 53 11 107 1 53 4 116 7 139 8 51 -3 57 -72 36 -33 -9
-62 -12 -79 -7 -15 4 -36 8 -47 8 -16 1 -19 7 -17 31 1 17 3 40 3 51 1 15 8
22 23 23 11 1 44 3 71 5 28 3 62 2 77 0 24 -5 26 -8 18 -30 -18 -46 6 -66 68
-56 31 4 43 24 21 38 -6 3 -8 16 -4 28 3 11 8 38 10 59 l5 39 -53 -9 c-28 -4
-76 -7 -104 -6 -29 1 -81 2 -115 2 -35 0 -106 0 -158 0 -52 -1 -111 2 -130 5
-80 14 -88 13 -94 -7z m278 -66 c4 -1 6 -7 3 -15 -3 -8 0 -29 6 -46 11 -28 10
-33 -8 -46 -13 -10 -31 -13 -50 -9 -63 12 -91 16 -112 17 -24 0 -25 1 -28 61
-2 30 1 36 14 32 9 -2 23 0 31 5 12 7 84 8 144 1z"/>
<path d="M149 518 c-10 -99 -32 -182 -67 -257 -14 -31 -26 -59 -26 -63 -1 -6
89 -68 98 -68 4 0 27 84 32 115 1 11 14 63 28 115 29 107 32 130 14 130 -7 0
-24 9 -38 20 -29 23 -40 25 -41 8z"/>
</g>
</svg>
