<?xml version="1.0" standalone="no"?>
<!DOCTYPE svg PUBLIC "-//W3C//DTD SVG 20010904//EN"
 "http://www.w3.org/TR/2001/REC-SVG-20010904/DTD/svg10.dtd">
<svg version="1.0" xmlns="http://www.w3.org/2000/svg"
 width="101.000000pt" height="101.000000pt" viewBox="0 0 101.000000 101.000000"
 preserveAspectRatio="xMidYMid meet">
<metadata>
Created by potrace 1.16, written by Peter Selinger 2001-2019
</metadata>
<g transform="translate(0.000000,101.000000) scale(0.100000,-0.100000)"
fill="#000000" stroke="none">
<path d="M575 1000 c-4 -6 -16 -10 -28 -8 -26 4 -26 -10 -3 -64 l16 -37 -57
-7 c-40 -5 -58 -3 -61 5 -6 18 -122 14 -137 -5 -10 -15 -18 -11 -72 30 -34 25
-65 46 -70 46 -5 0 -25 -16 -44 -36 -24 -26 -30 -38 -20 -41 7 -3 43 -28 79
-55 l66 -50 28 31 c31 34 38 38 38 17 0 -19 36 -27 98 -19 l52 6 0 -32 c0 -35
-4 -37 -53 -16 l-35 15 -30 -53 c-16 -28 -44 -65 -61 -81 -17 -17 -31 -35 -31
-41 0 -15 75 -49 88 -41 5 3 31 39 57 79 64 99 77 98 73 -9 -4 -80 -3 -83 20
-89 34 -8 61 3 67 28 3 12 4 69 2 127 l-3 105 36 0 35 0 0 -130 1 -130 -38 0
c-45 -1 -51 -6 -52 -45 l-1 -31 -85 6 c-47 3 -96 8 -110 10 -33 7 -49 -5 -55
-40 -7 -38 6 -57 36 -56 13 0 50 2 81 4 50 2 55 1 47 -14 -27 -52 -191 -159
-241 -159 -10 0 -18 -4 -18 -10 0 -5 4 -10 10 -10 5 0 28 -16 50 -36 l39 -36
53 36 c60 39 134 112 171 168 28 43 27 47 29 -87 1 -44 -2 -96 -6 -116 -7 -31
-5 -37 11 -41 10 -3 32 -3 49 -1 l29 5 2 106 c1 59 2 118 3 132 l2 25 16 -25
c29 -45 136 -145 183 -169 l46 -24 39 43 c21 23 40 46 42 51 2 4 -16 13 -40
19 -23 7 -61 21 -83 32 -62 31 -162 134 -111 115 8 -3 28 -1 44 5 23 9 38 8
70 -5 49 -20 68 -15 75 20 11 60 -21 86 -77 59 -23 -11 -51 -14 -97 -11 -35 3
-73 6 -85 6 -15 1 -21 7 -19 23 1 11 3 27 4 34 0 6 14 12 30 12 27 0 61 21 61
39 0 4 -5 12 -11 18 -11 11 -3 103 9 103 4 0 34 -28 68 -61 l62 -62 42 33 42
33 -29 23 c-15 13 -52 43 -81 65 l-53 42 -29 -21 c-16 -12 -30 -22 -32 -22 -2
0 -3 17 -3 38 l0 37 108 0 c118 0 125 4 112 65 l-6 29 -137 -1 c-75 0 -137 3
-138 8 0 5 -6 30 -14 57 -10 39 -16 47 -36 47 -12 0 -26 -5 -29 -10z"/>
<path d="M42 708 c-12 -23 -21 -42 -20 -43 2 -2 30 -16 63 -33 33 -17 73 -40
90 -51 l29 -20 28 42 c15 23 28 45 28 48 0 6 -147 84 -175 93 -16 4 -25 -3
-43 -36z"/>
<path d="M145 530 c-3 -11 -4 -24 0 -29 3 -5 1 -12 -4 -15 -5 -4 -9 -19 -9
-34 1 -34 -36 -149 -68 -214 -13 -26 -24 -50 -24 -52 0 -10 101 -57 109 -51 5
2 12 21 15 40 7 38 70 270 81 297 5 12 -6 25 -39 47 -53 37 -53 37 -61 11z"/>
</g>
</svg>
