<?xml version="1.0" standalone="no"?>
<!DOCTYPE svg PUBLIC "-//W3C//DTD SVG 20010904//EN"
 "http://www.w3.org/TR/2001/REC-SVG-20010904/DTD/svg10.dtd">
<svg version="1.0" xmlns="http://www.w3.org/2000/svg"
 width="101.000000pt" height="101.000000pt" viewBox="0 0 101.000000 101.000000"
 preserveAspectRatio="xMidYMid meet">
<metadata>
Created by potrace 1.16, written by Peter Selinger 2001-2019
</metadata>
<g transform="translate(0.000000,101.000000) scale(0.100000,-0.100000)"
fill="#000000" stroke="none">
<path d="M119 957 l-27 -33 84 -56 83 -56 28 36 c15 20 27 39 26 42 -1 3 19 4
44 3 26 -2 52 2 59 8 7 6 25 9 40 7 23 -3 27 -8 28 -36 l1 -33 -81 7 c-71 6
-82 4 -87 -10 -4 -10 -3 -25 1 -34 5 -9 8 -59 7 -109 l-2 -93 34 -6 c18 -3 46
-3 61 1 15 4 46 7 70 7 23 -1 52 -1 65 0 12 0 92 0 177 -1 l155 -1 2 120 c2
139 6 134 -108 128 -61 -3 -64 -2 -64 19 0 20 5 23 43 23 24 0 42 5 42 11 0 8
19 9 64 4 58 -6 65 -5 71 13 3 11 3 31 0 44 -6 22 -9 23 -130 26 -80 1 -125
-1 -125 -8 0 -6 -33 -10 -80 -10 -47 0 -80 4 -80 10 0 6 -18 10 -40 10 -22 0
-40 -4 -40 -10 0 -5 -25 -10 -55 -10 -30 0 -55 5 -55 10 0 6 -6 10 -14 10 -16
0 -31 -53 -21 -70 11 -18 -7 -11 -71 30 -35 22 -67 40 -71 40 -5 0 -20 -15
-34 -33z m517 -86 c-1 -23 -5 -26 -36 -26 -31 -1 -35 2 -36 25 -1 22 3 25 36
26 34 2 37 0 36 -25z m159 -146 l0 -50 -40 0 -40 0 0 53 0 53 40 -3 39 -3 1
-50z m-310 -2 l0 -48 -35 0 -35 -1 3 43 c4 42 7 45 57 52 6 0 10 -20 10 -46z
m147 -13 c3 -35 3 -35 -29 -32 -27 3 -33 9 -33 27 0 13 -3 30 -6 38 -4 12 3
16 28 19 18 2 34 -1 35 -7 1 -5 3 -26 5 -45z"/>
<path d="M57 731 c-24 -41 -22 -49 20 -66 20 -9 58 -29 85 -45 27 -17 50 -30
52 -30 6 0 46 70 46 81 0 10 -155 89 -175 89 -6 0 -18 -13 -28 -29z"/>
<path d="M341 561 c-14 -9 -20 -65 -8 -77 8 -8 44 -8 102 1 72 12 285 10 320
-2 17 -5 46 -8 67 -5 38 4 51 24 41 61 -4 17 -11 19 -59 14 -31 -3 -59 -1 -66
5 -16 13 -96 14 -103 1 -7 -11 -173 -11 -180 0 -6 11 -98 12 -114 2z"/>
<path d="M156 542 c-5 -8 -11 -36 -22 -101 -8 -49 -60 -199 -79 -227 -8 -13
-15 -28 -15 -33 0 -7 84 -61 95 -61 1 0 5 15 9 33 4 17 27 102 53 187 31 106
42 155 34 158 -6 2 -25 15 -41 28 -16 14 -31 21 -34 16z"/>
<path d="M257 421 c-2 -11 -2 -31 0 -45 5 -23 8 -25 47 -20 78 10 191 15 222
9 24 -4 32 -11 32 -28 0 -12 3 -33 7 -47 4 -15 0 -41 -10 -63 -15 -36 -17 -38
-52 -31 -33 6 -35 5 -28 -12 4 -10 13 -33 19 -51 6 -18 18 -34 26 -36 18 -3
91 20 105 34 6 6 11 49 12 97 3 131 3 130 27 131 78 6 225 5 247 -1 23 -7 27
-4 32 18 2 14 2 35 0 45 -5 17 -12 19 -47 14 -37 -5 -123 -7 -296 -6 -36 0
-108 0 -160 -1 -52 0 -114 2 -136 6 -35 4 -43 2 -47 -13z"/>
<path d="M351 289 c-30 -33 -71 -72 -92 -86 -40 -26 -50 -43 -25 -43 7 0 25
-10 40 -21 l27 -21 92 88 c51 49 93 92 95 96 3 6 -70 49 -80 48 -2 0 -27 -28
-57 -61z"/>
<path d="M702 314 l-33 -26 64 -48 c35 -26 75 -62 90 -79 14 -17 29 -31 34
-31 8 1 73 57 73 64 0 4 -187 146 -192 146 -2 0 -18 -12 -36 -26z"/>
</g>
</svg>
