<?xml version="1.0" standalone="no"?>
<!DOCTYPE svg PUBLIC "-//W3C//DTD SVG 20010904//EN"
 "http://www.w3.org/TR/2001/REC-SVG-20010904/DTD/svg10.dtd">
<svg version="1.0" xmlns="http://www.w3.org/2000/svg"
 width="101.000000pt" height="101.000000pt" viewBox="0 0 101.000000 101.000000"
 preserveAspectRatio="xMidYMid meet">
<metadata>
Created by potrace 1.16, written by Peter Selinger 2001-2019
</metadata>
<g transform="translate(0.000000,101.000000) scale(0.100000,-0.100000)"
fill="#000000" stroke="none">
<path d="M555 1003 c-35 -8 -37 -19 -15 -63 l22 -43 -110 7 c-118 7 -162 2
-162 -20 0 -8 -28 7 -68 36 -38 28 -75 50 -83 50 -9 0 -28 -14 -45 -31 l-29
-31 25 -17 c13 -9 50 -37 82 -63 l57 -48 27 35 c15 20 29 34 31 31 9 -8 10
-281 2 -304 -5 -13 -4 -32 2 -46 8 -17 8 -38 -1 -77 -6 -30 -14 -65 -16 -79
-10 -56 -37 -121 -65 -160 -32 -44 -30 -55 11 -64 14 -3 34 -8 45 -11 17 -5
25 2 43 42 24 51 49 135 58 193 11 75 15 106 16 126 0 30 45 28 47 -1 12 -207
12 -206 -9 -250 l-21 -43 22 -36 21 -36 41 28 c23 16 63 40 89 55 45 26 47 28
43 68 -2 23 -6 43 -9 46 -2 3 -25 -9 -50 -26 -24 -17 -47 -31 -50 -31 -3 0 -5
20 -4 44 2 47 0 45 75 48 56 2 56 74 0 76 -79 3 -76 1 -74 43 1 29 5 38 15 34
7 -3 23 0 34 6 11 6 35 8 53 5 39 -8 36 5 38 -210 l2 -159 33 -14 c24 -10 38
-10 52 -3 12 6 41 8 68 4 65 -8 104 12 126 66 9 22 16 46 16 53 -1 10 -90 60
-97 54 -1 -2 -5 -18 -8 -36 -8 -49 -11 -51 -61 -49 -52 3 -69 17 -58 50 5 13
9 32 9 42 0 21 59 42 144 50 24 3 46 7 49 10 6 7 -11 41 -36 73 l-17 21 -70
-28 c-76 -31 -96 -27 -77 15 6 13 9 31 6 39 -6 15 7 17 107 17 l55 -1 -7 53
c-12 86 -11 185 4 190 6 2 -1 8 -16 12 -16 4 -39 3 -51 -3 -13 -6 -41 -8 -62
-5 -37 5 -39 7 -39 42 l-1 38 48 -5 c26 -2 71 -1 102 2 47 6 55 11 60 32 4 14
4 35 0 46 -5 16 -11 19 -32 13 -55 -14 -113 -17 -126 -6 -7 6 -33 10 -58 8
l-46 -3 -16 53 c-18 56 -28 61 -91 46z m-90 -225 l0 -43 -42 0 c-42 0 -42 0
-40 35 2 33 5 35 42 41 22 3 40 7 40 7 0 1 0 -17 0 -40z m167 -8 l3 -39 -40 2
c-40 2 -40 2 -40 42 l0 40 37 -3 c34 -4 36 -6 40 -42z m-167 -158 l0 -47 -37
4 c-37 3 -38 4 -38 41 0 37 1 39 38 43 20 2 37 4 37 5 0 1 0 -19 0 -46z m170
-2 l0 -45 -40 0 -40 0 0 45 0 45 40 0 40 0 0 -45z m160 3 l0 -48 -40 0 -40 0
0 40 c0 39 1 40 40 46 22 3 40 7 40 7 0 1 0 -19 0 -45z"/>
<path d="M60 738 c-8 -13 -18 -28 -22 -34 -5 -8 24 -34 78 -73 48 -34 87 -60
88 -59 1 2 14 18 29 36 15 19 27 37 27 42 0 11 -155 110 -172 110 -7 0 -20
-10 -28 -22z"/>
<path d="M146 542 c-5 -9 -12 -40 -22 -102 -5 -29 -20 -78 -80 -251 -4 -12 8
-21 47 -37 29 -12 54 -20 56 -18 3 2 6 15 8 28 2 12 6 39 9 58 3 19 21 89 40
155 30 108 32 121 17 129 -9 5 -28 17 -43 28 -15 10 -29 15 -32 10z"/>
</g>
</svg>
