<?xml version="1.0" standalone="no"?>
<!DOCTYPE svg PUBLIC "-//W3C//DTD SVG 20010904//EN"
 "http://www.w3.org/TR/2001/REC-SVG-20010904/DTD/svg10.dtd">
<svg version="1.0" xmlns="http://www.w3.org/2000/svg"
 width="101.000000pt" height="102.000000pt" viewBox="0 0 101.000000 102.000000"
 preserveAspectRatio="xMidYMid meet">
<metadata>
Created by potrace 1.16, written by Peter Selinger 2001-2019
</metadata>
<g transform="translate(0.000000,102.000000) scale(0.100000,-0.100000)"
fill="#000000" stroke="none">
<path d="M555 963 l0 -58 -75 0 c-41 0 -90 4 -108 8 -38 10 -72 1 -72 -18 0
-21 -20 -13 -89 34 l-63 43 -36 -35 -35 -35 41 -26 c22 -14 56 -39 75 -56 l35
-31 28 37 c27 34 29 35 37 16 14 -30 32 -34 97 -21 31 6 67 9 79 7 21 -3 17
-8 -35 -50 -33 -26 -85 -60 -116 -75 -32 -15 -58 -30 -57 -33 0 -3 16 -18 35
-34 l34 -28 56 33 c30 19 79 57 107 85 l52 50 0 -44 c-1 -40 -7 -50 -60 -104
-44 -44 -85 -72 -156 -107 l-96 -47 43 -37 42 -37 74 49 c40 27 99 72 131 99
l59 50 64 -49 c63 -47 184 -112 234 -124 23 -5 28 -1 48 41 13 25 21 48 19 51
-3 2 -17 6 -33 9 -115 20 -279 100 -267 130 3 9 -1 14 -13 14 -18 1 -18 1 -2
14 10 7 16 22 13 34 -2 12 -1 22 3 22 7 0 149 -75 190 -101 22 -13 25 -12 48
16 13 17 24 35 24 41 0 11 -119 77 -189 104 -32 13 -35 12 -55 -13 l-21 -26 0
32 0 32 132 -2 133 -2 6 25 c3 13 4 35 0 47 -5 21 -12 24 -56 26 -28 1 -57 -2
-63 -6 -7 -5 -44 -8 -84 -8 l-71 0 4 51 c4 51 4 52 -27 58 -63 12 -64 11 -64
-51z"/>
<path d="M60 690 c-7 -22 -11 -41 -9 -43 7 -4 143 -72 150 -75 7 -3 49 69 49
83 0 8 -145 75 -163 75 -7 0 -20 -18 -27 -40z"/>
<path d="M553 457 l6 -78 -60 -39 c-33 -21 -92 -51 -132 -66 -40 -15 -73 -29
-75 -30 -7 -4 60 -89 69 -87 4 2 48 32 97 68 49 36 91 65 94 65 8 0 7 -85 -3
-96 -5 -6 -25 -10 -44 -8 -19 1 -35 1 -35 -1 0 -1 9 -23 20 -49 22 -49 31 -53
92 -36 47 13 58 33 57 101 0 105 1 110 22 98 11 -5 56 -40 100 -76 l81 -65 34
33 c19 18 34 36 34 39 0 4 -38 28 -85 54 -47 26 -87 52 -90 56 -6 10 56 50 79
50 28 0 17 24 -23 52 l-38 27 -42 -45 c-23 -25 -47 -44 -53 -42 -12 4 -13 45
-5 127 2 23 -1 25 -52 25 l-54 1 6 -78z"/>
<path d="M150 474 c-6 -14 -8 -29 -5 -34 3 -5 1 -11 -4 -14 -5 -3 -9 -21 -9
-38 -1 -28 -28 -119 -57 -190 -5 -13 5 -23 45 -43 29 -15 54 -24 57 -22 5 5
10 35 17 94 2 17 8 42 12 55 4 13 9 30 10 38 1 8 5 26 9 40 20 77 18 85 -25
114 l-40 26 -10 -26z"/>
<path d="M400 435 l-24 -26 29 -24 c60 -48 72 -51 100 -25 14 13 25 27 25 31
0 10 -81 69 -95 69 -6 0 -22 -11 -35 -25z"/>
</g>
</svg>
