<?xml version="1.0" standalone="no"?>
<!DOCTYPE svg PUBLIC "-//W3C//DTD SVG 20010904//EN"
 "http://www.w3.org/TR/2001/REC-SVG-20010904/DTD/svg10.dtd">
<svg version="1.0" xmlns="http://www.w3.org/2000/svg"
 width="101.000000pt" height="101.000000pt" viewBox="0 0 101.000000 101.000000"
 preserveAspectRatio="xMidYMid meet">
<metadata>
Created by potrace 1.16, written by Peter Selinger 2001-2019
</metadata>
<g transform="translate(0.000000,101.000000) scale(0.100000,-0.100000)"
fill="#000000" stroke="none">
<path d="M558 998 c-26 -9 -26 -10 -12 -43 8 -19 14 -39 14 -44 0 -14 -147
-26 -163 -13 -15 12 -88 14 -106 2 -10 -5 -32 6 -70 36 -31 24 -61 44 -67 44
-5 0 -23 -14 -40 -31 l-29 -31 25 -16 c14 -10 47 -37 73 -61 l48 -45 23 29
c18 22 24 25 28 13 4 -8 2 -21 -3 -29 -14 -23 -10 -76 7 -93 17 -18 20 -18 63
-10 30 6 31 7 28 58 l-3 51 112 -3 c71 -2 115 1 119 8 8 14 52 13 61 -1 5 -8
31 -10 83 -5 l76 6 1 -56 c2 -60 11 -74 54 -74 44 0 48 10 52 110 l3 95 -99
-3 c-60 -1 -104 2 -112 9 -7 6 -23 9 -35 7 -19 -3 -24 4 -37 49 -13 46 -17 52
-41 51 -14 -1 -38 -5 -53 -10z"/>
<path d="M408 769 c-20 -11 -23 -45 -8 -69 7 -11 26 -14 79 -13 l69 3 4 -34 4
-33 -76 4 c-41 2 -89 6 -106 9 -40 7 -62 -17 -48 -54 7 -23 9 -115 4 -276 0
-16 2 -31 4 -33 6 -7 41 -7 96 0 41 4 43 4 25 -10 -19 -15 -160 -83 -200 -97
l-20 -7 20 -11 c11 -6 29 -19 40 -29 20 -18 23 -17 100 15 44 18 99 45 123 58
l43 25 -38 33 c-21 18 -30 30 -20 26 10 -3 27 -1 37 4 10 6 45 7 80 3 l61 -6
-23 -25 c-13 -14 -18 -26 -12 -29 9 -3 115 -63 190 -108 l31 -18 37 28 38 29
-24 18 c-12 10 -61 38 -108 62 -76 41 -81 45 -45 39 41 -6 106 -6 112 1 8 7 5
64 -7 128 -8 49 -8 72 0 88 6 11 8 25 5 30 -3 5 -1 19 5 30 6 12 9 33 5 48
l-6 28 -122 -1 -122 0 -3 30 -3 30 86 0 c64 1 89 5 96 15 11 18 2 62 -14 72
-16 9 -106 8 -112 -2 -7 -12 -153 -12 -160 0 -8 13 -95 12 -117 -1z m120 -283
c-19 -6 -37 -5 -53 2 -14 6 -30 9 -37 7 -8 -3 -14 4 -14 19 -2 24 1 25 60 28
58 3 61 2 66 -22 5 -21 1 -27 -22 -34z m247 34 c0 -26 -5 -31 -31 -36 -18 -3
-41 -1 -52 5 -11 6 -27 9 -34 6 -9 -4 -13 4 -14 22 -1 28 0 28 65 30 l66 2 0
-29z m-239 -96 c15 -4 20 -14 21 -39 1 -31 -2 -35 -32 -41 -18 -3 -42 -1 -53
5 -11 6 -27 8 -35 5 -12 -4 -15 3 -14 30 1 28 5 35 16 31 9 -2 23 0 31 5 17
11 36 12 66 4z m220 0 c15 -4 20 -14 21 -39 1 -31 -2 -35 -32 -41 -18 -3 -42
-1 -53 5 -11 6 -27 8 -35 5 -12 -4 -15 3 -14 30 1 28 5 35 16 31 9 -2 23 0 31
5 17 11 36 12 66 4z"/>
<path d="M54 710 c-15 -22 -25 -42 -23 -44 2 -2 24 -14 49 -26 25 -13 61 -36
81 -51 20 -16 41 -29 45 -29 5 0 19 16 32 36 18 28 21 38 11 50 -12 15 -151
104 -162 104 -4 0 -19 -18 -33 -40z"/>
<path d="M155 473 c-5 -21 -9 -42 -11 -48 -1 -5 -5 -26 -8 -45 -6 -31 -50
-177 -62 -207 -3 -7 16 -23 46 -38 37 -19 52 -22 55 -13 6 19 28 101 31 118 1
8 5 26 8 40 32 157 32 158 -10 196 -20 19 -38 34 -39 34 -2 0 -6 -17 -10 -37z"/>
</g>
</svg>
