<?xml version="1.0" standalone="no"?>
<!DOCTYPE svg PUBLIC "-//W3C//DTD SVG 20010904//EN"
 "http://www.w3.org/TR/2001/REC-SVG-20010904/DTD/svg10.dtd">
<svg version="1.0" xmlns="http://www.w3.org/2000/svg"
 width="101.000000pt" height="101.000000pt" viewBox="0 0 101.000000 101.000000"
 preserveAspectRatio="xMidYMid meet">
<metadata>
Created by potrace 1.16, written by Peter Selinger 2001-2019
</metadata>
<g transform="translate(0.000000,101.000000) scale(0.100000,-0.100000)"
fill="#000000" stroke="none">
<path d="M530 1002 c0 -5 9 -26 19 -48 11 -21 18 -40 16 -42 -2 -2 -53 1 -114
7 -61 7 -122 9 -136 5 -27 -7 -43 -43 -29 -66 4 -7 -21 13 -56 45 -35 31 -68
57 -73 57 -6 0 -25 -11 -43 -25 l-34 -26 76 -75 77 -75 41 38 c35 33 47 38 81
37 22 -1 60 -2 84 -3 l44 -1 -21 -23 c-12 -13 -22 -26 -22 -29 0 -4 21 -17 46
-29 25 -13 48 -27 50 -31 6 -10 -95 -61 -110 -55 -11 5 -12 44 -1 102 5 28 2
32 -30 44 -19 7 -44 10 -55 6 -18 -6 -19 -15 -17 -148 l3 -142 107 0 c59 0
107 -2 107 -5 -1 -27 -23 -33 -111 -32 -52 1 -106 -1 -121 -4 -26 -5 -26 -6
-22 -77 4 -66 5 -124 5 -177 0 -11 1 -35 1 -52 1 -18 -2 -40 -6 -49 -9 -20 15
-28 60 -22 l30 5 1 121 c2 165 2 169 19 163 8 -3 26 0 39 6 41 18 52 -3 25
-46 -12 -20 -28 -40 -37 -44 -13 -8 -13 -15 -2 -51 l12 -42 46 6 c25 3 57 8
71 10 14 2 44 7 68 9 24 3 48 9 54 12 6 4 19 -4 28 -16 16 -22 20 -22 49 -10
17 7 34 17 37 21 6 11 -93 139 -107 139 -6 0 -24 -7 -40 -16 -30 -15 -30 -16
-13 -35 18 -20 20 -19 -36 -24 -14 -1 -36 -5 -49 -9 l-24 -8 23 38 c39 65 29
60 145 69 80 6 128 -2 121 -21 -3 -8 -1 -24 4 -37 6 -13 7 -46 3 -82 l-8 -60
-43 -1 c-23 0 -45 -3 -48 -6 -3 -3 4 -23 15 -44 12 -21 21 -43 21 -49 0 -26
124 6 141 36 7 13 8 43 4 80 -5 39 -3 64 4 73 14 17 12 178 -3 188 -16 11 -86
9 -86 -2 0 -5 -16 -10 -35 -10 -19 0 -35 5 -35 10 0 6 -27 10 -60 10 -55 0
-60 2 -51 18 8 15 25 17 125 17 136 0 127 -10 123 130 -2 50 2 100 7 113 12
30 -4 42 -57 42 -49 0 -59 -24 -47 -112 16 -108 30 -98 -133 -96 -156 3 -156
3 -70 53 l32 19 45 -32 c24 -18 48 -32 53 -32 15 1 68 52 58 56 -5 2 -30 17
-54 33 l-43 29 46 27 c25 15 46 30 46 34 0 3 -12 14 -27 23 -26 16 -25 16 69
23 52 4 105 4 116 1 24 -8 36 18 27 57 -8 29 -62 45 -95 27 -12 -6 -53 -9
-102 -6 l-83 5 -13 45 -13 46 -55 0 c-30 0 -54 -4 -54 -8z m114 -203 l-38 -38
-35 21 c-20 12 -44 27 -53 32 -10 6 -18 13 -18 16 0 3 41 6 91 6 l91 2 -38
-39z m-164 -193 c0 -1 -13 -1 -30 2 -22 3 -30 10 -30 24 0 19 1 19 30 -2 17
-12 30 -23 30 -24z"/>
<path d="M70 715 c-18 -19 -32 -36 -29 -38 63 -44 91 -66 122 -96 l37 -35 41
40 41 41 -85 62 c-47 33 -87 61 -89 61 -2 0 -19 -16 -38 -35z"/>
<path d="M138 513 c-2 -24 -4 -35 -11 -53 -3 -8 -5 -22 -5 -30 0 -47 -23 -125
-68 -226 -3 -6 17 -27 43 -47 52 -39 61 -36 68 23 2 16 9 48 16 72 7 24 12 46
11 49 0 3 6 30 14 60 9 30 17 70 20 89 4 31 0 37 -32 58 -43 27 -54 28 -56 5z"/>
</g>
</svg>
