<?xml version="1.0" standalone="no"?>
<!DOCTYPE svg PUBLIC "-//W3C//DTD SVG 20010904//EN"
 "http://www.w3.org/TR/2001/REC-SVG-20010904/DTD/svg10.dtd">
<svg version="1.0" xmlns="http://www.w3.org/2000/svg"
 width="101.000000pt" height="101.000000pt" viewBox="0 0 101.000000 101.000000"
 preserveAspectRatio="xMidYMid meet">
<metadata>
Created by potrace 1.16, written by Peter Selinger 2001-2019
</metadata>
<g transform="translate(0.000000,101.000000) scale(0.100000,-0.100000)"
fill="#000000" stroke="none">
<path d="M119 954 l-34 -35 30 -22 c17 -12 52 -42 78 -66 l48 -44 34 33 c19
19 35 37 35 42 0 8 -141 128 -151 128 -3 0 -21 -16 -40 -36z"/>
<path d="M358 984 c-15 -5 -16 -21 -13 -147 l4 -142 45 -3 c28 -2 46 1 46 7 0
6 11 11 25 11 14 0 25 -4 25 -10 0 -6 30 -10 70 -10 40 0 70 4 70 10 0 6 11
10 25 10 14 0 25 -4 25 -10 0 -5 23 -10 50 -10 31 0 50 4 50 11 0 8 15 10 46
6 33 -3 43 -2 35 6 -14 14 -14 67 -1 67 6 0 10 18 10 40 0 22 -4 40 -10 40
-15 0 -13 107 3 114 6 2 -31 5 -83 5 -52 0 -123 0 -157 0 -35 0 -91 0 -125 -1
-35 0 -76 2 -93 5 -16 3 -38 3 -47 1z m369 -71 c19 -3 33 -12 36 -23 4 -17 -6
-18 -157 -17 -137 2 -162 4 -162 17 0 12 11 15 48 13 26 -2 50 1 53 7 6 10
127 13 182 3z m39 -122 c0 -15 -9 -20 -46 -24 -85 -10 -152 -8 -166 3 -7 7
-35 10 -62 8 -37 -2 -48 0 -49 12 -1 13 24 15 161 18 154 3 162 2 162 -17z"/>
<path d="M66 735 c-14 -18 -26 -37 -26 -42 0 -6 117 -72 161 -91 10 -4 59 69
54 79 -5 8 -119 71 -147 82 -11 4 -25 -5 -42 -28z"/>
<path d="M308 673 c-14 -4 -16 -19 -16 -108 l0 -105 34 -6 c19 -3 47 -3 62 1
15 4 46 7 70 7 23 -1 50 -1 60 -1 9 0 64 0 122 0 58 0 140 -1 183 -2 43 0 81
2 85 6 8 8 14 153 7 181 -5 23 -4 22 -215 24 -120 0 -129 0 -255 3 -66 2 -128
2 -137 0z m154 -113 l3 -35 -45 0 c-44 1 -45 1 -48 37 l-3 36 45 -2 c43 -1 44
-2 48 -36z m170 2 l3 -37 -42 4 c-34 2 -43 7 -43 21 0 10 -2 24 -5 32 -4 9 7
14 39 15 44 2 44 2 48 -35z m183 0 l0 -37 -45 0 c-44 0 -45 1 -46 32 0 33 -1
33 76 41 11 2 15 -8 15 -36z"/>
<path d="M174 536 c-3 -8 -7 -20 -8 -28 -2 -7 -6 -20 -9 -28 -3 -8 -5 -22 -5
-30 0 -41 -27 -119 -68 -202 -19 -37 -34 -71 -34 -75 1 -10 91 -65 97 -59 5 5
113 362 113 373 -1 4 -19 20 -41 36 -31 21 -41 24 -45 13z"/>
<path d="M307 410 c-2 -10 -2 -29 0 -43 4 -22 8 -24 56 -20 44 3 49 2 38 -11
-11 -13 -4 -22 43 -58 l56 -43 -37 -13 c-21 -7 -50 -15 -66 -17 -15 -3 -37
-11 -47 -18 -15 -9 -27 -9 -50 0 -29 11 -74 7 -68 -6 2 -3 14 -25 28 -48 30
-52 39 -52 191 2 121 42 143 45 186 28 57 -23 242 -70 251 -64 10 7 62 83 62
92 0 3 -15 6 -32 6 -18 1 -49 4 -68 7 -19 3 -53 7 -75 10 -38 4 -95 16 -95 20
0 1 28 31 63 67 34 35 71 80 81 98 l19 34 -29 -9 c-16 -4 -48 -7 -71 -6 -24 1
-71 1 -105 1 -35 0 -106 0 -158 -1 -52 0 -111 2 -132 5 -29 4 -37 2 -41 -13z
m371 -65 c5 -5 -82 -65 -93 -65 -7 0 -29 16 -51 35 -26 25 -33 34 -19 31 11
-3 27 -1 35 4 12 8 117 4 128 -5z"/>
</g>
</svg>
