<?xml version="1.0" standalone="no"?>
<!DOCTYPE svg PUBLIC "-//W3C//DTD SVG 20010904//EN"
 "http://www.w3.org/TR/2001/REC-SVG-20010904/DTD/svg10.dtd">
<svg version="1.0" xmlns="http://www.w3.org/2000/svg"
 width="101.000000pt" height="101.000000pt" viewBox="0 0 101.000000 101.000000"
 preserveAspectRatio="xMidYMid meet">
<metadata>
Created by potrace 1.16, written by Peter Selinger 2001-2019
</metadata>
<g transform="translate(0.000000,101.000000) scale(0.100000,-0.100000)"
fill="#000000" stroke="none">
<path d="M605 981 c-6 -19 -10 -39 -21 -89 -14 -69 -73 -204 -115 -264 -25
-35 -24 -39 16 -65 l35 -23 17 35 c18 34 18 31 18 -193 0 -125 -3 -232 -7
-237 -13 -21 10 -39 47 -38 20 1 38 3 41 6 2 2 5 24 6 49 3 53 -11 50 175 50
119 1 132 3 136 19 11 40 -2 56 -46 57 -97 1 -102 4 -99 42 1 19 3 45 3 57 1
20 6 21 59 19 50 -3 59 -1 63 15 10 38 -3 55 -41 57 -85 3 -84 3 -78 26 3 11
6 35 6 51 0 30 0 30 52 28 55 -2 68 6 68 44 0 28 -27 43 -78 43 l-40 0 -4 48
-3 47 58 0 c62 0 75 12 63 58 -5 21 -10 22 -145 22 l-139 0 14 35 c8 19 22 45
30 57 19 29 18 32 -8 42 -58 21 -76 22 -83 2z m130 -269 l0 -57 -46 -3 -47 -3
2 55 1 55 45 4 c25 2 45 4 45 5 0 1 0 -24 0 -56z m0 -182 c0 -53 -1 -55 -25
-52 -14 2 -34 3 -45 4 -18 0 -20 6 -17 52 l4 51 41 0 42 0 0 -55z m2 -140 c1
-14 5 -39 8 -56 8 -38 -13 -59 -47 -48 -13 5 -32 9 -43 9 -17 0 -20 6 -17 35
1 19 3 45 3 58 1 16 6 21 18 18 9 -3 23 -1 31 4 24 16 45 7 47 -20z"/>
<path d="M780 992 c-60 -20 -60 -20 -50 -49 4 -15 11 -41 15 -56 5 -24 10 -27
33 -24 26 5 62 17 62 21 0 9 -34 102 -39 107 -3 4 -13 4 -21 1z"/>
<path d="M341 943 c-8 -27 -15 -53 -17 -60 -6 -32 -58 -131 -80 -154 -24 -26
-24 -26 -7 -65 20 -43 20 -43 77 -26 22 6 42 10 44 7 6 -6 -48 -108 -70 -132
-12 -13 -29 -25 -39 -28 -16 -5 -16 -10 -5 -48 12 -41 13 -42 52 -39 21 1 50
4 64 6 14 2 49 7 79 10 30 3 57 8 59 11 3 3 5 19 5 36 0 36 -19 52 -46 38 -10
-6 -25 -8 -33 -5 -8 3 -25 1 -39 -4 -14 -5 -25 -8 -25 -6 0 17 118 247 137
268 l25 26 -40 21 c-23 12 -45 21 -51 21 -10 0 -20 -22 -28 -60 -5 -28 -9 -33
-26 -36 -7 -1 -19 -3 -27 -5 -8 -2 -15 1 -15 6 1 18 86 179 108 202 l20 23
-44 20 c-24 11 -49 20 -54 20 -6 0 -17 -21 -24 -47z"/>
<path d="M97 948 l-25 -31 47 -37 c25 -20 52 -44 60 -53 20 -25 36 -21 64 17
l26 33 -27 25 c-41 38 -98 78 -110 78 -6 0 -22 -14 -35 -32z"/>
<path d="M66 722 c-14 -16 -26 -32 -26 -38 1 -5 32 -30 69 -56 l69 -47 26 28
c14 15 26 32 26 38 0 11 -75 70 -116 91 -18 9 -25 7 -48 -16z"/>
<path d="M129 508 c0 -7 -2 -20 -4 -28 -7 -34 -16 -77 -21 -110 -5 -29 -32
-108 -57 -170 -5 -11 7 -21 45 -38 28 -12 53 -20 55 -18 3 2 7 17 9 33 10 61
13 79 18 103 3 14 7 40 10 57 3 18 10 50 15 70 17 59 14 69 -25 92 -41 25 -44
25 -45 9z"/>
<path d="M454 350 c-22 -9 -81 -20 -183 -35 -18 -2 -36 -6 -38 -8 -4 -4 17
-97 22 -97 1 0 28 9 61 20 32 12 70 22 84 24 91 13 116 34 103 85 -6 22 -16
25 -49 11z"/>
</g>
</svg>
