<?xml version="1.0" standalone="no"?>
<!DOCTYPE svg PUBLIC "-//W3C//DTD SVG 20010904//EN"
 "http://www.w3.org/TR/2001/REC-SVG-20010904/DTD/svg10.dtd">
<svg version="1.0" xmlns="http://www.w3.org/2000/svg"
 width="101.000000pt" height="101.000000pt" viewBox="0 0 101.000000 101.000000"
 preserveAspectRatio="xMidYMid meet">
<metadata>
Created by potrace 1.16, written by Peter Selinger 2001-2019
</metadata>
<g transform="translate(0.000000,101.000000) scale(0.100000,-0.100000)"
fill="#000000" stroke="none">
<path d="M445 958 l0 -53 -67 2 c-51 1 -68 -2 -68 -12 0 -30 -23 -23 -95 27
l-75 52 -35 -34 c-19 -19 -35 -37 -35 -40 0 -3 15 -14 33 -24 17 -10 54 -37
81 -59 l49 -41 33 37 c28 30 35 34 42 21 9 -16 25 -18 92 -12 35 3 35 3 37
-37 l2 -41 -62 2 c-34 1 -73 5 -86 9 -18 5 -28 3 -38 -11 -15 -20 -17 -53 -4
-72 9 -15 9 -15 166 -9 l120 4 0 -28 c0 -23 -5 -29 -25 -33 -26 -5 -84 -2
-158 8 l-43 5 6 -52 c14 -122 14 -186 1 -225 -18 -51 -10 -62 39 -55 47 6 215
6 265 0 19 -3 41 -5 47 -6 7 0 -4 -16 -24 -35 l-37 -34 64 -32 c36 -18 89 -50
117 -71 l53 -39 40 36 c23 21 37 41 33 45 -5 5 -57 35 -117 67 -98 54 -107 61
-88 71 27 14 55 14 104 -1 51 -15 62 -1 42 55 -14 39 -14 114 0 230 6 47 6 48
-16 40 -13 -4 -57 -7 -98 -6 -117 3 -115 3 -116 29 -2 21 2 24 37 24 21 0 39
5 39 10 0 15 67 12 73 -2 4 -10 8 -10 15 1 8 11 22 11 82 1 82 -14 92 -8 88
45 l-3 30 -110 0 -110 0 3 37 c4 36 4 36 54 40 27 1 58 0 68 -4 28 -10 52 18
48 56 l-3 31 -86 0 c-94 0 -92 -2 -74 66 6 24 4 27 -33 33 -62 9 -72 2 -68
-52 l4 -47 -57 0 -57 0 7 45 c4 25 5 47 3 49 -2 2 -25 5 -51 8 l-48 3 0 -52z
m213 -171 l-3 -39 -68 -1 c-64 -2 -68 -1 -63 18 3 11 6 28 6 37 0 18 19 23 88
23 l43 1 -3 -39z m-142 -243 c15 -4 21 -14 21 -35 0 -24 -5 -30 -33 -35 -17
-3 -41 -1 -52 5 -11 6 -27 9 -35 6 -10 -4 -14 3 -14 25 0 23 4 29 16 25 9 -2
23 0 31 5 17 11 36 12 66 4z m221 0 c25 -5 30 -11 30 -34 0 -25 -5 -30 -38
-35 -21 -4 -46 -2 -58 4 -11 6 -26 9 -34 6 -10 -4 -14 3 -14 25 0 23 4 29 16
25 9 -2 23 0 31 5 18 11 27 12 67 4z m-221 -120 c15 -4 21 -14 21 -35 0 -24
-5 -30 -33 -35 -17 -3 -41 -1 -52 5 -11 6 -27 9 -35 6 -10 -4 -14 3 -14 25 0
23 4 29 16 25 9 -2 23 0 31 5 17 11 36 12 66 4z m221 0 c25 -5 30 -11 30 -34
0 -25 -5 -30 -38 -35 -21 -4 -46 -2 -58 4 -11 6 -26 9 -34 6 -10 -4 -14 3 -14
25 0 23 4 29 16 25 9 -2 23 0 31 5 18 11 27 12 67 4z"/>
<path d="M51 704 c-27 -46 -27 -49 10 -64 17 -7 57 -30 89 -51 l59 -38 31 41
c16 23 30 44 30 48 0 7 -174 100 -188 100 -5 0 -19 -16 -31 -36z"/>
<path d="M139 528 c0 -7 -2 -22 -5 -33 -2 -11 -6 -31 -8 -45 -12 -73 -18 -99
-33 -145 -9 -27 -24 -67 -34 -87 l-19 -36 52 -37 c48 -35 63 -36 69 -5 1 8 7
42 12 75 5 27 51 216 63 256 3 12 -9 25 -42 43 -54 30 -54 30 -55 14z"/>
<path d="M445 264 c-30 -24 -177 -94 -196 -94 -32 0 -29 -16 9 -54 l38 -36
105 55 c57 30 112 55 121 55 34 0 31 24 -7 57 -44 38 -43 38 -70 17z"/>
</g>
</svg>
