<?xml version="1.0" standalone="no"?>
<!DOCTYPE svg PUBLIC "-//W3C//DTD SVG 20010904//EN"
 "http://www.w3.org/TR/2001/REC-SVG-20010904/DTD/svg10.dtd">
<svg version="1.0" xmlns="http://www.w3.org/2000/svg"
 width="101.000000pt" height="101.000000pt" viewBox="0 0 101.000000 101.000000"
 preserveAspectRatio="xMidYMid meet">
<metadata>
Created by potrace 1.16, written by Peter Selinger 2001-2019
</metadata>
<g transform="translate(0.000000,101.000000) scale(0.100000,-0.100000)"
fill="#000000" stroke="none">
<path d="M116 954 c-16 -19 -27 -36 -25 -37 37 -25 119 -91 121 -99 2 -6 19 7
38 28 l35 39 -2 -135 c-2 -156 -9 -255 -17 -269 -4 -6 -6 -25 -5 -43 3 -64
-33 -184 -70 -237 l-21 -29 44 -36 44 -36 25 63 c13 34 28 77 32 94 9 46 23
50 31 8 6 -34 9 -36 33 -30 61 17 70 15 66 -13 -2 -24 -7 -27 -35 -24 -27 2
-31 0 -25 -15 3 -10 9 -30 12 -45 3 -14 14 -28 24 -31 23 -6 99 22 100 37 1 6
3 25 5 41 2 17 4 44 6 60 2 22 8 30 23 31 11 1 25 2 31 3 15 1 24 35 17 60 -4
16 -9 18 -30 10 -59 -22 -58 0 2 38 44 27 64 60 50 83 -4 6 6 15 24 21 34 12
54 39 46 61 -4 10 17 13 100 13 101 0 106 1 111 22 4 13 4 30 0 38 -6 17 -42
20 -51 5 -9 -14 -155 -13 -155 1 0 6 27 22 60 36 60 26 76 46 64 77 -5 12 -20
16 -63 18 -49 1 -45 2 37 11 64 7 92 14 92 23 0 7 -4 16 -10 19 -13 8 -13 92
0 100 6 4 9 18 8 33 l-2 27 -107 3 c-62 2 -110 -1 -113 -7 -8 -12 -173 -13
-181 -1 -3 5 -31 10 -63 10 -31 1 -74 2 -94 3 -45 1 -51 -4 -52 -47 -1 -38 0
-38 -72 16 -28 21 -53 38 -55 37 -2 0 -17 -16 -33 -35z m414 -55 c0 -8 35 -10
128 -5 l127 8 0 -25 c0 -24 -3 -25 -88 -32 -59 -4 -92 -3 -101 4 -8 7 -53 10
-118 9 -93 -3 -104 -1 -105 15 -2 14 7 17 43 17 24 0 44 5 44 10 0 6 16 10 35
10 19 0 35 -5 35 -11z m116 -120 c6 -10 3 -10 -109 -12 -76 -2 -97 -11 -97
-42 0 -34 19 -40 120 -38 60 1 98 -2 95 -8 -4 -5 -13 -9 -21 -9 -8 0 -19 -11
-24 -25 -9 -23 -14 -25 -75 -25 -37 0 -65 4 -65 10 0 6 -18 10 -39 10 -43 0
-59 -21 -46 -60 6 -18 16 -20 98 -21 51 -1 84 -3 74 -6 -10 -3 -17 -10 -14
-16 2 -7 8 -23 12 -36 l7 -24 -70 7 c-85 8 -118 1 -126 -27 -3 -12 -8 -18 -11
-15 -4 3 -2 16 5 27 7 13 9 58 6 121 -2 57 0 100 5 100 5 0 9 18 9 40 l0 40
49 0 c28 0 53 4 56 10 7 12 153 11 161 -1z m-36 -220 c0 -5 -4 -7 -10 -4 -13
8 -13 15 0 15 6 0 10 -5 10 -11z m-218 -152 c9 -3 30 -1 46 5 16 6 37 8 46 5
15 -6 14 -10 -8 -29 -14 -13 -28 -34 -30 -48 -3 -22 -8 -25 -37 -22 -19 1 -44
3 -57 3 -18 1 -22 5 -17 18 4 9 8 28 10 44 5 34 15 52 24 40 3 -5 14 -12 23
-16z"/>
<path d="M53 733 c-23 -30 -25 -37 -13 -45 8 -5 44 -26 80 -47 l65 -39 23 39
c13 22 20 43 17 49 -6 10 -127 80 -138 80 -3 0 -19 -16 -34 -37z"/>
<path d="M126 528 c-3 -7 -5 -20 -5 -28 -2 -57 -48 -219 -85 -301 -5 -12 4
-23 39 -44 52 -30 66 -25 71 22 2 15 5 39 8 53 3 14 7 41 10 60 3 19 17 73 30
120 14 46 24 85 23 85 -1 1 -18 11 -38 23 -42 25 -48 27 -53 10z"/>
<path d="M669 483 c-18 -4 -31 -37 -23 -58 8 -19 40 -25 73 -12 15 5 37 7 47
3 18 -7 17 -9 -7 -30 -14 -12 -28 -30 -32 -39 -7 -19 -20 -21 -46 -8 -40 22
-76 -11 -64 -57 3 -14 12 -18 31 -16 81 10 76 12 78 -31 4 -46 -6 -55 -54 -49
-30 4 -33 2 -27 -13 5 -10 13 -32 19 -49 8 -25 15 -31 36 -30 39 3 100 26 101
39 4 42 9 95 10 115 1 16 6 22 15 18 8 -3 26 0 39 6 19 9 28 9 37 0 18 -18 35
-14 41 8 11 41 -2 56 -46 57 -23 1 -52 3 -65 3 l-24 2 22 23 c12 13 35 29 50
35 32 13 41 29 34 57 -5 17 -16 19 -102 19 -53 -1 -104 2 -112 5 -8 4 -22 5
-31 2z"/>
</g>
</svg>
