<?xml version="1.0" standalone="no"?>
<!DOCTYPE svg PUBLIC "-//W3C//DTD SVG 20010904//EN"
 "http://www.w3.org/TR/2001/REC-SVG-20010904/DTD/svg10.dtd">
<svg version="1.0" xmlns="http://www.w3.org/2000/svg"
 width="101.000000pt" height="101.000000pt" viewBox="0 0 101.000000 101.000000"
 preserveAspectRatio="xMidYMid meet">
<metadata>
Created by potrace 1.16, written by Peter Selinger 2001-2019
</metadata>
<g transform="translate(0.000000,101.000000) scale(0.100000,-0.100000)"
fill="#000000" stroke="none">
<path d="M625 1000 c-11 -5 -14 -9 -7 -9 13 -1 17 -98 4 -116 -8 -11 -61 -13
-79 -2 -27 17 -56 -48 -35 -80 8 -13 9 -13 61 -13 39 0 39 0 42 -43 4 -43 3
-44 -26 -42 -16 1 -40 5 -53 9 -37 12 -69 -1 -76 -30 -8 -32 -12 -29 -19 11
-3 17 -9 41 -15 55 -8 21 -3 32 36 80 24 30 54 60 65 66 19 11 18 13 -21 38
-23 14 -46 26 -51 26 -5 0 -23 -24 -41 -54 l-33 -55 -39 55 c-22 30 -42 54
-45 54 -3 0 -21 -12 -40 -26 l-34 -26 35 -38 c60 -67 63 -77 26 -115 -17 -18
-47 -41 -66 -51 -19 -10 -34 -21 -34 -24 0 -3 19 -16 41 -28 l41 -24 43 42 43
42 4 -37 c3 -31 -4 -50 -43 -113 -26 -43 -59 -88 -73 -101 -26 -24 -26 -24
-26 -3 0 14 -14 29 -42 46 -23 14 -44 23 -46 21 -2 -2 -5 -27 -7 -57 -2 -29
-6 -64 -9 -78 -2 -14 -7 -41 -11 -60 -3 -20 -14 -63 -24 -97 l-19 -61 55 -21
c30 -12 56 -21 57 -21 1 0 3 15 3 33 1 17 4 48 7 67 8 47 16 110 19 137 3 35
14 36 37 3 12 -17 26 -28 30 -23 5 4 33 47 63 95 44 71 56 84 60 67 3 -12 1
-32 -4 -46 -6 -16 -5 -31 2 -45 14 -27 -6 -119 -33 -154 -17 -21 -25 -23 -69
-19 l-49 5 20 -40 c12 -23 19 -44 16 -48 -3 -5 -1 -14 3 -21 12 -19 110 11
138 41 34 37 57 115 56 187 l-1 23 21 -21 21 -21 22 21 22 21 1 -24 c6 -92 5
-217 -2 -234 -9 -25 11 -34 62 -26 32 4 32 6 27 44 -5 33 -3 39 10 34 8 -3 24
-1 35 5 11 6 39 7 64 3 44 -6 44 -7 39 -39 -4 -26 -1 -33 14 -37 24 -7 83 2
77 11 -9 15 -16 299 -7 305 5 3 10 27 11 55 2 59 -18 86 -58 77 -14 -3 -45 -7
-68 -9 l-42 -3 28 35 29 36 84 0 83 -1 0 44 c0 39 -2 43 -22 39 -12 -2 -38 -1
-58 2 l-35 6 51 83 c28 45 55 82 60 82 5 0 9 4 9 10 0 12 -98 62 -103 52 -2
-4 -10 -24 -16 -44 -11 -34 -14 -36 -27 -23 -16 16 -36 19 -48 8 -3 -4 -14 -8
-24 -10 -19 -2 -21 26 -7 98 6 32 4 37 -17 42 -30 9 -48 8 -73 -3z m147 -225
c-30 -52 -54 -85 -60 -85 -5 0 -8 21 -8 48 l1 47 37 0 c21 0 34 -4 30 -10z
m-132 -190 c-21 -22 -38 -31 -51 -28 -27 7 -52 -16 -46 -44 4 -23 -18 -50 -61
-72 -23 -12 -23 -12 -16 38 3 27 2 63 -4 79 -10 30 -1 59 15 49 5 -3 14 -3 20
1 7 4 48 8 93 8 l82 2 -32 -33z m110 -101 c33 -6 36 -9 37 -44 2 -37 1 -38
-42 -45 -25 -3 -53 -2 -64 4 -11 6 -26 8 -35 5 -12 -5 -15 2 -13 35 1 32 5 40
17 36 8 -2 22 0 30 5 18 11 23 12 70 4z m0 -150 c34 -6 36 -8 38 -49 l1 -43
-44 -6 c-25 -4 -53 -3 -64 3 -11 6 -27 8 -35 5 -13 -5 -15 2 -14 40 2 36 6 45
18 41 8 -2 22 0 30 5 18 11 23 12 70 4z"/>
<path d="M85 920 c-25 -26 -27 -32 -15 -44 8 -7 39 -35 68 -61 l53 -48 29 28
c17 16 30 34 30 42 0 12 -114 113 -129 113 -4 0 -20 -14 -36 -30z"/>
<path d="M47 684 c-16 -19 -27 -37 -25 -38 1 -2 23 -16 48 -31 25 -16 61 -41
79 -56 l35 -29 28 33 c15 17 27 37 28 43 0 10 -147 114 -161 114 -2 0 -17 -16
-32 -36z"/>
</g>
</svg>
