<?xml version="1.0" standalone="no"?>
<!DOCTYPE svg PUBLIC "-//W3C//DTD SVG 20010904//EN"
 "http://www.w3.org/TR/2001/REC-SVG-20010904/DTD/svg10.dtd">
<svg version="1.0" xmlns="http://www.w3.org/2000/svg"
 width="101.000000pt" height="101.000000pt" viewBox="0 0 101.000000 101.000000"
 preserveAspectRatio="xMidYMid meet">
<metadata>
Created by potrace 1.16, written by Peter Selinger 2001-2019
</metadata>
<g transform="translate(0.000000,101.000000) scale(0.100000,-0.100000)"
fill="#000000" stroke="none">
<path d="M567 997 c-21 -7 -27 -13 -22 -26 20 -48 20 -49 -46 -56 -44 -5 -64
-4 -67 4 -2 6 -25 11 -52 11 -40 0 -50 -4 -55 -20 -16 -52 17 -73 102 -65 26
2 40 2 31 -1 -20 -6 -23 -19 -8 -29 5 -3 14 -15 20 -25 9 -18 5 -18 -94 -14
-98 5 -105 4 -111 -16 -3 -11 -4 -28 -1 -37 5 -16 17 -18 86 -15 52 2 80 0 80
-7 0 -7 27 -11 70 -11 40 0 70 4 70 10 0 6 20 10 45 10 27 0 45 -5 45 -12 0
-16 261 -3 272 14 14 23 9 57 -11 67 -10 6 -21 8 -24 4 -4 -3 -42 -6 -86 -7
l-80 -1 25 26 c13 14 21 28 17 32 -3 4 9 7 28 7 72 0 95 18 83 65 -6 23 -8 24
-119 22 -62 -1 -112 -1 -110 1 1 1 -3 19 -10 40 -14 40 -30 46 -78 29z m95
-161 c4 -6 1 -21 -6 -34 -10 -19 -22 -25 -55 -26 -39 -2 -43 0 -57 32 -8 19
-14 35 -14 36 0 6 127 -1 132 -8z"/>
<path d="M110 938 l-24 -31 29 -21 c16 -12 46 -36 67 -55 l38 -33 35 26 c19
15 35 31 35 36 0 12 -129 110 -144 109 -6 0 -22 -14 -36 -31z"/>
<path d="M66 715 c-33 -43 -33 -51 6 -64 17 -6 54 -25 80 -43 27 -17 53 -27
57 -22 4 5 18 22 30 38 l22 30 -38 23 c-21 13 -59 35 -85 48 l-46 24 -26 -34z"/>
<path d="M319 653 c-7 -18 -8 -74 -4 -160 7 -121 9 -132 28 -137 11 -3 27 -1
36 4 18 9 100 11 142 4 21 -4 26 -11 25 -29 -2 -36 -44 -40 -197 -21 -41 5
-47 3 -52 -14 -10 -39 2 -57 36 -53 76 9 154 13 183 8 26 -5 31 -10 31 -35 0
-27 -4 -30 -41 -35 -39 -6 -140 -2 -218 8 -29 4 -37 2 -41 -14 -12 -46 24 -80
62 -59 9 5 59 7 111 5 106 -5 170 -5 310 -2 52 1 118 -1 146 -6 50 -7 52 -7
57 19 8 46 -2 65 -32 56 -22 -6 -172 -7 -247 -1 -30 2 -30 56 0 58 62 5 155 3
187 -4 32 -6 37 -4 42 14 3 12 3 30 0 42 -5 17 -10 19 -32 13 -22 -7 -127 -9
-196 -3 -13 1 -20 9 -21 24 -2 26 -3 26 136 28 l95 1 3 147 c2 98 0 149 -7
154 -21 13 -151 19 -151 6 0 -6 -18 -11 -45 -11 -25 0 -45 5 -45 10 0 6 -55
10 -145 10 l-145 0 -11 -27z m227 -86 l-1 -28 -60 6 c-33 4 -61 8 -61 9 -1 0
-4 10 -8 21 -5 19 -1 20 63 20 l68 1 -1 -29z m229 3 l0 -27 -70 1 c-69 1 -71
1 -67 26 4 24 7 25 70 27 67 1 67 1 67 -27z m-249 -86 c15 -4 21 -14 21 -35 0
-24 -5 -30 -33 -35 -17 -3 -41 -1 -52 5 -11 6 -27 9 -35 6 -10 -4 -14 3 -14
25 0 23 4 29 16 25 9 -2 23 0 31 5 17 11 36 12 66 4z m221 0 c25 -5 30 -11 30
-34 0 -25 -5 -30 -38 -35 -21 -4 -46 -2 -58 4 -11 6 -26 9 -34 6 -10 -4 -14 3
-14 25 0 23 4 29 16 25 9 -2 23 0 31 5 18 11 27 12 67 4z"/>
<path d="M149 513 c-1 -5 -3 -17 -5 -28 -18 -118 -23 -142 -55 -242 -17 -52
-29 -96 -27 -98 2 -1 24 -12 50 -23 l46 -20 8 26 c8 28 10 38 18 110 3 23 10
51 15 61 6 10 8 20 6 23 -3 2 4 37 15 76 11 39 20 75 20 80 0 9 -64 42 -80 42
-6 0 -11 -3 -11 -7z"/>
</g>
</svg>
