<?xml version="1.0" standalone="no"?>
<!DOCTYPE svg PUBLIC "-//W3C//DTD SVG 20010904//EN"
 "http://www.w3.org/TR/2001/REC-SVG-20010904/DTD/svg10.dtd">
<svg version="1.0" xmlns="http://www.w3.org/2000/svg"
 width="101.000000pt" height="101.000000pt" viewBox="0 0 101.000000 101.000000"
 preserveAspectRatio="xMidYMid meet">
<metadata>
Created by potrace 1.16, written by Peter Selinger 2001-2019
</metadata>
<g transform="translate(0.000000,101.000000) scale(0.100000,-0.100000)"
fill="#000000" stroke="none">
<path d="M599 983 c-13 -3 -15 -10 -9 -36 16 -62 47 -152 63 -184 10 -18 17
-34 17 -37 0 -2 -38 -4 -85 -3 -71 2 -84 4 -79 17 15 35 56 146 59 160 2 8 4
20 5 25 6 28 -5 33 -103 39 -149 10 -178 -2 -162 -67 6 -24 9 -25 86 -23 43 0
79 0 79 -2 0 -12 -44 -102 -49 -102 -4 0 -22 16 -41 35 l-34 35 -33 -32 -33
-32 47 -41 46 -41 -39 -30 c-21 -17 -60 -43 -87 -58 l-47 -28 27 -21 c16 -12
33 -28 39 -36 9 -12 17 -10 46 12 l35 27 7 -69 c3 -38 2 -81 -4 -95 -11 -30 8
-56 43 -57 12 0 17 -3 10 -5 -8 -4 -5 -19 9 -55 12 -27 19 -52 16 -54 -4 -5
-96 -7 -151 -4 -36 1 -41 -4 -40 -47 2 -51 -5 -49 118 -38 76 6 232 7 355 0
184 -10 207 -8 213 22 10 54 3 58 -96 60 -51 0 -102 1 -114 2 l-23 2 21 29
c11 16 30 36 42 44 22 16 22 16 3 30 -19 15 -19 15 5 15 42 0 47 10 47 110 0
52 1 101 1 108 1 10 12 7 41 -9 l39 -22 42 42 c23 23 40 44 37 47 -3 3 -18 7
-34 10 -30 5 -136 66 -141 80 -3 8 107 75 135 82 19 5 14 25 -16 62 l-29 34
-67 -57 c-37 -32 -71 -55 -76 -52 -4 3 -13 18 -18 34 -10 28 -9 29 66 67 43
22 79 40 81 42 7 4 -62 72 -72 72 -6 0 -30 -18 -54 -40 -47 -44 -67 -44 -61 0
3 22 0 30 -16 34 -23 6 -42 6 -67 -1z m144 -401 c-23 -8 -54 -11 -78 -7 -22 3
-91 7 -152 9 -62 1 -115 5 -118 7 -2 3 11 21 31 40 22 21 37 30 42 23 12 -20
47 -24 110 -16 33 5 67 5 75 0 20 -11 47 0 47 20 0 11 13 3 40 -23 l40 -40
-37 -13z m-123 -68 l96 -7 -1 -36 0 -36 -135 0 -135 0 0 43 0 42 40 0 c22 0
83 -3 135 -6z m17 -160 c24 -7 24 -20 0 -75 -38 -88 -78 -92 -121 -9 -14 27
-26 54 -26 60 0 5 16 10 35 10 19 0 35 5 35 10 0 11 42 13 77 4z"/>
<path d="M95 944 c-15 -19 -25 -37 -23 -39 2 -3 33 -24 68 -47 35 -24 69 -47
76 -52 8 -7 21 1 41 24 15 19 28 39 28 44 0 12 -134 105 -151 106 -7 0 -24
-16 -39 -36z"/>
<path d="M45 704 c-15 -19 -25 -37 -24 -38 2 -2 31 -18 64 -35 33 -17 68 -37
78 -44 15 -10 21 -8 38 13 45 58 46 56 -41 100 -44 22 -81 40 -84 40 -2 0 -16
-16 -31 -36z"/>
<path d="M141 507 c-5 -7 -10 -22 -10 -32 0 -34 -11 -87 -19 -99 -5 -6 -9 -21
-10 -33 0 -18 -26 -86 -58 -160 -5 -11 59 -59 87 -65 12 -3 26 34 34 87 3 16
20 80 40 141 40 127 39 124 23 124 -6 0 -26 11 -44 25 -25 19 -34 22 -43 12z"/>
</g>
</svg>
