<?xml version="1.0" standalone="no"?>
<!DOCTYPE svg PUBLIC "-//W3C//DTD SVG 20010904//EN"
 "http://www.w3.org/TR/2001/REC-SVG-20010904/DTD/svg10.dtd">
<svg version="1.0" xmlns="http://www.w3.org/2000/svg"
 width="101.000000pt" height="101.000000pt" viewBox="0 0 101.000000 101.000000"
 preserveAspectRatio="xMidYMid meet">
<metadata>
Created by potrace 1.16, written by Peter Selinger 2001-2019
</metadata>
<g transform="translate(0.000000,101.000000) scale(0.100000,-0.100000)"
fill="#000000" stroke="none">
<path d="M420 1000 c0 -5 5 -10 11 -10 6 0 9 -19 7 -47 l-3 -48 -55 4 c-30 2
-72 4 -92 6 -26 2 -53 15 -89 44 l-52 42 -33 -32 -33 -32 62 -58 62 -57 34 31
c26 25 32 28 27 12 -10 -36 5 -44 81 -42 l71 2 4 -30 3 -30 -67 2 c-73 2 -86
-8 -73 -59 6 -22 11 -23 85 -23 44 0 80 3 80 8 0 15 117 8 130 -8 8 -9 26 -15
46 -13 24 1 41 -5 59 -22 l26 -25 20 25 c12 14 51 72 89 130 37 58 80 120 95
138 15 18 26 35 24 37 -7 6 -100 45 -108 45 -4 0 -13 -19 -20 -42 -22 -72 -79
-172 -126 -218 -29 -29 -42 -37 -39 -24 8 34 -10 45 -72 47 -58 2 -59 2 -60
32 l0 30 78 -1 c84 -1 96 7 83 58 -6 23 -10 24 -83 23 -78 0 -78 0 -76 26 1
15 5 40 9 58 l7 31 -56 0 c-31 0 -56 -4 -56 -10z"/>
<path d="M94 723 c-36 -49 -36 -50 3 -74 21 -12 55 -36 77 -53 l38 -29 19 24
c19 24 34 58 27 63 -32 23 -140 96 -142 96 -1 0 -11 -12 -22 -27z"/>
<path d="M823 657 c-36 -68 -102 -148 -157 -191 l-36 -27 5 96 c4 94 3 95 -21
101 -13 3 -30 1 -38 -5 -11 -10 -121 -9 -236 1 -44 4 -46 0 -49 -78 -3 -110 4
-133 42 -141 31 -7 31 -7 7 -13 -26 -7 -26 -7 -2 -78 15 -43 16 -44 51 -37 20
4 40 10 45 15 4 5 -3 33 -17 64 -15 31 -22 54 -16 50 5 -3 16 -1 24 6 9 7 30
9 59 5 51 -8 52 -11 25 -93 -17 -54 -28 -64 -63 -59 -17 2 -49 -2 -70 -11 -30
-12 -45 -13 -67 -5 -41 16 -72 6 -65 -21 4 -11 9 -33 12 -48 7 -29 32 -41 57
-26 9 4 33 11 54 13 21 3 52 7 68 10 31 6 85 15 120 19 47 6 95 19 95 26 0 4
3 22 6 40 l7 32 -46 -5 -46 -6 21 35 c11 19 24 37 29 40 16 10 9 22 -18 32
l-28 9 27 13 c25 12 31 10 64 -15 l36 -27 45 43 c24 24 70 76 100 114 31 39
70 82 86 97 l30 27 -49 30 c-26 17 -50 31 -53 31 -4 0 -21 -28 -38 -63z m-278
-132 c0 -28 -10 -30 -102 -19 -40 5 -53 11 -53 23 0 13 14 16 78 18 76 2 77 2
77 -22z"/>
<path d="M144 468 c-11 -49 -12 -50 -18 -86 -4 -18 -20 -69 -36 -114 -17 -45
-27 -85 -23 -89 5 -3 26 -18 48 -32 43 -29 56 -25 61 20 6 61 15 104 39 188
14 48 24 89 23 91 -7 7 -79 54 -83 54 -2 0 -7 -15 -11 -32z"/>
<path d="M836 428 c-35 -92 -136 -199 -244 -261 -29 -16 -50 -33 -45 -36 4 -4
24 -19 44 -34 l37 -26 42 28 c62 42 166 147 218 221 25 36 55 73 66 82 24 19
24 19 -31 47 -59 29 -68 27 -87 -21z"/>
</g>
</svg>
