<?xml version="1.0" standalone="no"?>
<!DOCTYPE svg PUBLIC "-//W3C//DTD SVG 20010904//EN"
 "http://www.w3.org/TR/2001/REC-SVG-20010904/DTD/svg10.dtd">
<svg version="1.0" xmlns="http://www.w3.org/2000/svg"
 width="101.000000pt" height="101.000000pt" viewBox="0 0 101.000000 101.000000"
 preserveAspectRatio="xMidYMid meet">
<metadata>
Created by potrace 1.16, written by Peter Selinger 2001-2019
</metadata>
<g transform="translate(0.000000,101.000000) scale(0.100000,-0.100000)"
fill="#000000" stroke="none">
<path d="M404 975 c-3 -19 -4 -50 -2 -69 l4 -34 -65 4 c-46 2 -70 9 -85 23
-29 27 -117 81 -132 81 -6 0 -23 -15 -38 -34 l-26 -34 43 -25 c23 -14 53 -37
66 -51 31 -33 40 -33 69 2 13 15 20 21 17 14 -4 -7 -4 -24 -1 -37 6 -23 10
-24 79 -22 l73 2 0 -30 -1 -30 -60 3 -60 3 0 -48 1 -48 49 1 c28 1 84 3 125 5
41 1 89 -1 106 -5 40 -10 66 14 62 58 -3 31 -3 31 -63 31 -59 0 -60 1 -61 27
-1 26 1 28 45 30 25 0 54 1 63 0 21 -2 31 27 22 62 -6 25 -9 26 -70 23 l-64
-3 6 68 5 68 -50 0 c-49 0 -50 -1 -57 -35z"/>
<path d="M763 955 c-1 -27 3 -55 8 -62 6 -6 9 -29 7 -50 l-3 -38 -58 0 c-65 0
-81 -13 -72 -59 3 -16 7 -32 10 -34 6 -6 52 -6 85 0 l25 5 0 -256 0 -256 -52
2 c-29 2 -53 1 -53 -1 0 -2 7 -20 15 -40 8 -19 15 -39 14 -43 -6 -34 30 -39
109 -14 59 18 61 22 55 132 -5 80 -3 103 8 111 11 7 11 11 2 15 -15 6 -18 73
-3 73 6 0 10 18 10 40 0 22 -4 40 -10 40 -5 0 -10 16 -10 35 0 19 5 35 10 35
6 0 10 26 10 58 l0 58 33 -4 c41 -5 67 18 67 58 0 36 -28 54 -76 48 l-33 -4 6
76 c3 41 10 83 15 93 13 26 6 30 -60 31 l-58 1 -1 -50z"/>
<path d="M51 706 c-23 -37 -27 -56 -10 -56 11 0 94 -46 135 -75 20 -15 23 -13
48 25 14 22 26 42 26 44 0 5 -163 96 -173 96 -3 0 -15 -15 -26 -34z"/>
<path d="M649 629 c-8 -4 -8 -21 -3 -50 9 -47 10 -58 13 -104 2 -43 15 -58 51
-58 35 0 53 18 44 46 -3 10 -7 30 -10 45 -2 15 -5 34 -7 42 -2 8 -7 32 -12 53
-6 33 -10 37 -37 35 -16 -1 -34 -5 -39 -9z"/>
<path d="M276 587 c-3 -11 -1 -27 3 -36 9 -18 8 -76 -2 -106 -9 -28 6 -47 34
-45 81 5 178 4 184 -2 3 -3 -2 -37 -12 -75 -16 -61 -21 -68 -43 -68 -14 -1
-50 -7 -81 -14 -41 -10 -61 -11 -76 -3 -18 10 -63 6 -63 -5 0 -9 32 -103 36
-103 1 0 15 4 29 10 14 5 43 13 63 16 44 6 82 12 120 18 15 3 43 7 62 9 48 6
90 18 91 26 0 3 2 21 5 39 l4 33 -40 -5 c-48 -6 -51 5 -15 58 29 43 30 46 10
46 -8 0 -15 5 -15 10 0 6 10 10 21 10 21 0 22 3 16 66 -4 37 -2 74 3 84 5 9 7
26 4 37 -5 18 -10 19 -54 11 -45 -8 -158 -6 -242 5 -30 4 -37 2 -42 -16z m240
-47 c5 0 10 -15 11 -34 1 -33 -1 -34 -43 -41 -24 -3 -52 -2 -63 4 -11 6 -26 8
-34 5 -12 -4 -15 3 -14 30 1 28 5 35 16 31 9 -2 23 0 31 6 8 5 31 7 50 4 19
-2 40 -5 46 -5z"/>
<path d="M124 507 c-4 -12 -8 -31 -10 -42 -7 -55 -17 -98 -44 -187 -17 -53
-30 -98 -30 -101 0 -2 19 -17 41 -32 44 -29 58 -25 64 16 2 13 6 41 10 63 3
21 10 46 15 56 5 9 7 19 5 22 -3 2 6 44 20 93 13 49 23 89 22 90 -1 0 -21 10
-44 22 l-42 23 -7 -23z"/>
<path d="M313 380 l-21 -9 21 -53 c12 -29 24 -55 27 -57 10 -8 80 10 80 20 0
6 -10 33 -21 60 -22 51 -38 58 -86 39z"/>
</g>
</svg>
