<?xml version="1.0" standalone="no"?>
<!DOCTYPE svg PUBLIC "-//W3C//DTD SVG 20010904//EN"
 "http://www.w3.org/TR/2001/REC-SVG-20010904/DTD/svg10.dtd">
<svg version="1.0" xmlns="http://www.w3.org/2000/svg"
 width="101.000000pt" height="101.000000pt" viewBox="0 0 101.000000 101.000000"
 preserveAspectRatio="xMidYMid meet">
<metadata>
Created by potrace 1.16, written by Peter Selinger 2001-2019
</metadata>
<g transform="translate(0.000000,101.000000) scale(0.100000,-0.100000)"
fill="#000000" stroke="none">
<path d="M456 985 c-4 -14 -2 -34 4 -45 5 -10 10 -20 10 -22 0 -2 -38 -2 -86
-2 l-85 1 -6 -28 -5 -29 -76 52 -75 52 -28 -34 c-16 -19 -29 -37 -29 -40 0 -3
15 -14 34 -24 19 -10 49 -33 68 -52 18 -18 38 -34 45 -34 6 0 21 14 33 31 12
16 24 28 26 26 2 -2 6 -56 8 -121 3 -65 7 -120 10 -123 2 -3 15 -4 28 -4 13 1
68 2 123 2 55 0 129 0 165 0 36 0 110 0 164 -1 107 -1 121 5 105 48 -5 13 -7
79 -4 147 l6 123 -85 7 c-46 4 -88 5 -94 2 -5 -4 -6 12 -2 38 4 25 4 45 1 46
-3 1 -25 2 -48 3 l-43 1 4 -45 3 -45 -41 0 c-39 0 -41 1 -40 30 1 17 4 37 6
45 2 11 -8 16 -43 18 -43 3 -47 1 -53 -23z m9 -172 c0 -26 -3 -28 -41 -28 -36
0 -40 2 -36 22 3 17 12 23 41 26 20 2 36 4 36 5 0 1 0 -10 0 -25z m160 -3 c0
-23 -3 -25 -37 -21 -21 1 -38 7 -38 11 0 5 -2 14 -5 22 -4 9 6 13 37 13 39 0
43 -2 43 -25z m183 4 c-3 -25 -7 -27 -54 -28 -47 -1 -50 1 -46 21 4 22 21 29
75 32 25 1 28 -2 25 -25z m-343 -136 c0 -26 -3 -27 -40 -26 -38 2 -41 4 -37
28 3 22 9 25 40 25 34 0 37 -3 37 -27z m161 0 c-1 -25 -4 -27 -41 -26 -38 2
-41 4 -37 28 3 22 9 25 41 25 35 0 38 -2 37 -27z m170 -3 c-2 -26 -6 -30 -26
-27 -14 2 -34 3 -45 4 -15 0 -20 7 -20 27 0 24 3 26 46 26 45 0 46 -1 45 -30z"/>
<path d="M62 702 c-36 -51 -36 -51 23 -77 31 -13 70 -34 86 -46 29 -21 31 -21
44 -3 21 29 39 64 34 68 -2 2 -41 22 -86 45 l-82 41 -19 -28z"/>
<path d="M269 563 c-19 -5 -29 -34 -22 -62 6 -22 39 -34 62 -21 9 5 59 7 111
5 52 -3 122 -4 155 -4 33 0 126 0 206 0 138 0 147 1 152 19 3 11 3 29 0 40 -5
18 -14 19 -152 19 -80 0 -175 -1 -211 0 -36 0 -108 -1 -160 -2 -52 0 -102 2
-110 5 -8 3 -22 4 -31 1z"/>
<path d="M129 505 c-5 -50 -7 -73 -12 -100 -3 -16 -8 -46 -11 -65 -4 -19 -18
-70 -32 -113 -14 -43 -24 -79 -23 -80 2 -1 24 -12 47 -25 24 -13 46 -21 49
-19 2 3 7 18 9 34 10 61 13 79 18 103 3 14 7 40 10 59 3 18 9 43 12 55 4 11 8
28 9 36 1 8 5 31 9 50 6 34 4 36 -39 57 -36 18 -45 19 -46 8z"/>
<path d="M339 453 c-21 -5 -31 -41 -18 -64 5 -10 6 -43 3 -74 l-7 -55 52 5
c29 3 50 1 47 -4 -3 -5 3 -20 14 -33 l19 -25 -60 -7 c-34 -3 -66 -3 -72 1 -5
3 -25 7 -43 9 -36 2 -46 -14 -37 -60 5 -23 8 -25 47 -20 22 4 84 6 136 6 175
-1 224 -1 320 1 52 1 116 -1 141 -5 45 -7 47 -6 52 18 10 53 0 64 -52 56 -25
-4 -62 -6 -81 -5 -19 2 -45 3 -57 4 -19 1 -21 4 -13 20 6 10 15 21 20 24 6 4
8 10 5 15 -3 5 18 7 46 5 l51 -4 -8 27 c-8 29 -9 66 -1 123 l5 37 -71 0 c-162
1 -206 1 -297 -1 -52 0 -102 2 -110 5 -8 3 -22 4 -31 1z m313 -70 c94 -5 106
-7 105 -23 -1 -15 -15 -19 -102 -24 -55 -3 -122 -3 -150 -1 -27 3 -59 5 -70 6
-13 1 -21 9 -22 21 -1 14 3 17 15 14 9 -3 24 -1 32 4 17 11 36 11 192 3z m-16
-111 c20 -6 21 -10 10 -42 -12 -37 -9 -36 -95 -27 -13 1 -27 11 -32 22 -13 34
-10 47 9 41 9 -3 24 -1 32 4 17 11 44 11 76 2z"/>
</g>
</svg>
