<?xml version="1.0" standalone="no"?>
<!DOCTYPE svg PUBLIC "-//W3C//DTD SVG 20010904//EN"
 "http://www.w3.org/TR/2001/REC-SVG-20010904/DTD/svg10.dtd">
<svg version="1.0" xmlns="http://www.w3.org/2000/svg"
 width="101.000000pt" height="101.000000pt" viewBox="0 0 101.000000 101.000000"
 preserveAspectRatio="xMidYMid meet">
<metadata>
Created by potrace 1.16, written by Peter Selinger 2001-2019
</metadata>
<g transform="translate(0.000000,101.000000) scale(0.100000,-0.100000)"
fill="#000000" stroke="none">
<path d="M476 992 c-4 -10 -34 -46 -67 -78 -58 -54 -60 -58 -43 -72 18 -14 18
-14 -1 -7 -11 4 -26 9 -32 12 -18 7 -36 -46 -29 -87 10 -59 13 -284 4 -308 -4
-13 -3 -32 4 -47 8 -18 8 -28 0 -38 -6 -7 -14 -30 -17 -51 -8 -47 -30 -100
-61 -145 l-24 -36 46 -23 c26 -13 50 -20 55 -15 11 11 70 189 75 227 11 72 23
184 24 223 0 6 8 12 18 12 402 2 492 6 498 24 3 9 3 25 -1 36 -5 15 -13 17
-55 13 -55 -5 -66 8 -22 27 l27 13 -47 42 -47 41 67 -1 c70 -2 82 4 82 43 0
26 -27 56 -43 46 -10 -6 -157 -12 -157 -6 0 2 16 27 35 58 l35 55 -25 6 c-15
4 -43 3 -63 -1 -20 -3 -65 -7 -99 -8 -61 -2 -62 -2 -40 15 29 22 15 36 -45 44
-40 6 -47 4 -52 -14z m167 -110 c15 -6 16 -10 4 -26 -11 -15 -29 -18 -104 -19
-90 -2 -90 -2 -75 19 10 13 24 19 38 16 12 -2 25 1 28 7 8 12 81 14 109 3z
m-149 -143 c-10 -12 -32 -30 -48 -40 l-28 -17 31 -16 c38 -20 39 -25 6 -18
-35 6 -58 -15 -53 -49 3 -16 1 -26 -4 -23 -12 7 -10 48 3 61 6 6 10 33 8 62
l-4 50 45 4 c25 2 49 4 54 5 5 1 1 -8 -10 -19z m229 5 c-17 -13 -14 -18 35
-65 29 -28 46 -49 37 -45 -9 3 -34 6 -55 6 -37 0 -40 2 -51 40 -10 34 -15 39
-38 36 -29 -4 -61 -16 -61 -23 0 -2 6 -16 14 -31 l14 -27 -54 0 c-30 0 -54 3
-54 7 0 4 21 24 46 44 44 37 45 39 27 54 -17 14 -12 15 69 16 76 1 86 -1 71
-12z"/>
<path d="M127 932 c-26 -27 -35 -52 -19 -52 4 0 36 -23 71 -51 l63 -51 34 33
c19 18 34 36 34 39 0 8 -136 110 -148 110 -4 0 -20 -13 -35 -28z"/>
<path d="M57 701 c-9 -16 -17 -34 -17 -40 0 -17 171 -93 184 -82 6 5 19 23 29
41 l18 31 -84 39 c-47 22 -91 40 -99 40 -7 0 -21 -13 -31 -29z"/>
<path d="M809 524 c-9 -11 -22 -14 -43 -9 -17 3 -39 5 -48 5 -23 -1 -80 -1
-188 3 -78 2 -85 0 -88 -18 -3 -29 12 -47 39 -45 13 1 102 2 198 1 176 -1 190
1 191 36 0 13 -27 43 -39 43 -5 0 -14 -7 -22 -16z"/>
<path d="M149 523 c0 -5 -2 -17 -5 -28 -2 -11 -6 -31 -8 -45 -3 -14 -7 -42
-11 -62 -3 -21 -19 -77 -36 -125 -16 -48 -29 -90 -29 -95 0 -10 100 -61 101
-51 1 11 7 42 14 78 3 17 8 41 10 55 2 14 6 36 9 50 3 14 7 40 10 57 3 18 10
50 15 70 6 21 11 44 11 50 0 14 -80 58 -81 46z"/>
<path d="M469 433 c-19 -5 -31 -37 -22 -59 5 -13 26 -19 48 -14 66 17 279 18
322 3 27 -10 35 -9 48 4 9 9 14 22 11 30 -3 8 -6 19 -6 24 0 6 -70 8 -177 7
-98 -2 -185 0 -193 3 -8 4 -22 5 -31 2z"/>
<path d="M459 333 c-21 -5 -31 -40 -19 -64 10 -18 7 -117 -5 -155 -8 -25 13
-34 63 -26 27 4 31 7 26 27 -5 19 -1 23 18 24 13 0 59 3 103 6 95 7 149 -1
142 -19 -11 -29 13 -41 75 -38 25 2 27 4 18 27 -5 14 -7 55 -5 92 7 99 8 114
2 119 -5 5 -74 5 -272 2 -55 -1 -107 1 -115 4 -8 3 -22 4 -31 1z m302 -69 c31
-5 36 -9 36 -34 0 -27 -4 -30 -41 -35 -23 -3 -75 -3 -116 0 -41 3 -84 6 -96 6
-16 1 -21 8 -21 30 0 22 4 28 16 24 9 -2 22 -1 30 4 16 10 140 13 192 5z"/>
</g>
</svg>
