<?xml version="1.0" standalone="no"?>
<!DOCTYPE svg PUBLIC "-//W3C//DTD SVG 20010904//EN"
 "http://www.w3.org/TR/2001/REC-SVG-20010904/DTD/svg10.dtd">
<svg version="1.0" xmlns="http://www.w3.org/2000/svg"
 width="101.000000pt" height="101.000000pt" viewBox="0 0 101.000000 101.000000"
 preserveAspectRatio="xMidYMid meet">
<metadata>
Created by potrace 1.16, written by Peter Selinger 2001-2019
</metadata>
<g transform="translate(0.000000,101.000000) scale(0.100000,-0.100000)"
fill="#000000" stroke="none">
<path d="M594 973 c-10 -51 -13 -62 -19 -101 -2 -18 -9 -41 -14 -51 -6 -10 -9
-20 -7 -22 2 -2 -9 -31 -24 -64 l-28 -60 -1 38 c-1 20 -5 37 -11 37 -5 0 -10
16 -10 35 0 19 5 35 10 35 6 0 10 25 10 55 l0 56 -65 -7 c-40 -4 -70 -3 -77 4
-7 5 -32 10 -55 10 -48 1 -77 -20 -70 -50 3 -12 -14 -1 -51 31 l-56 49 -33
-25 c-18 -14 -33 -28 -33 -32 0 -4 29 -35 64 -70 l63 -63 25 32 c29 36 26 45
33 -115 2 -60 7 -137 10 -170 4 -33 1 -96 -5 -140 -6 -44 -11 -88 -10 -97 4
-62 3 -86 -4 -109 -9 -30 9 -39 60 -32 29 5 30 6 28 57 l-2 52 43 2 44 2 -4
-44 c-5 -48 8 -58 59 -49 l26 5 -1 172 c-1 217 -1 220 18 205 12 -10 16 -10
24 2 5 8 9 19 10 24 1 6 6 -10 11 -35 9 -39 11 -74 9 -147 0 -10 1 -44 3 -76
3 -36 -1 -75 -10 -99 -10 -29 -11 -45 -3 -60 6 -11 8 -30 5 -43 -7 -26 14 -36
57 -28 19 4 24 11 25 36 3 71 4 75 26 76 11 0 47 3 79 5 33 3 75 -1 95 -8 50
-17 109 -10 115 15 11 43 -2 57 -51 57 -100 0 -107 3 -104 42 1 19 3 45 3 58
1 16 6 22 15 18 8 -3 26 0 40 6 19 9 30 9 44 0 15 -9 19 -8 23 9 10 36 -3 55
-36 57 -90 3 -92 4 -89 42 1 19 3 45 3 57 1 20 6 21 58 18 59 -4 71 3 71 42 0
27 -33 47 -61 38 -59 -19 -64 -15 -64 41 l0 53 62 7 c54 5 62 9 68 31 8 34 -2
63 -21 56 -8 -3 -36 -2 -62 2 -40 6 -44 9 -24 16 l22 8 -27 51 c-26 47 -30 50
-58 45 -46 -9 -50 -19 -27 -72 11 -26 20 -48 19 -49 -10 -4 -97 10 -97 16 0 7
32 81 48 112 2 5 -87 38 -104 38 -1 0 -5 -17 -10 -37z m-189 -178 l0 -60 -42
3 -41 4 1 57 2 56 40 0 40 0 0 -60z m307 -95 l3 -55 -42 4 -43 3 0 52 0 51 39
0 39 0 4 -55z m-307 -107 l0 -62 -40 1 -40 2 0 61 0 60 40 0 40 0 0 -62z m314
-38 c0 -11 2 -36 3 -55 l3 -35 -45 0 -45 0 3 35 c1 19 3 44 3 55 1 16 8 20 39
20 31 0 38 -4 39 -20z m-313 -111 c-3 -8 -1 -25 5 -36 6 -11 8 -35 5 -54 -7
-33 -8 -33 -51 -32 -42 2 -45 4 -51 34 -3 18 -1 41 5 52 6 11 9 27 6 34 -4 10
7 14 41 16 38 1 45 -1 40 -14z m313 -77 c0 -12 2 -38 3 -57 l3 -35 -45 0 -45
0 3 35 c1 19 3 44 3 55 1 17 9 21 39 22 32 2 38 -1 39 -20z"/>
<path d="M47 722 l-27 -28 71 -58 71 -58 31 31 c31 30 31 30 12 51 -25 28
-110 90 -122 90 -5 0 -21 -13 -36 -28z"/>
<path d="M109 508 c-1 -7 -3 -24 -4 -38 -6 -68 -43 -198 -71 -252 -8 -15 -14
-29 -14 -32 0 -9 91 -68 96 -63 3 3 7 16 9 29 2 12 6 38 9 55 3 18 19 85 36
149 16 64 30 119 30 121 0 7 -65 43 -77 43 -7 0 -14 -6 -14 -12z"/>
</g>
</svg>
