<?xml version="1.0" standalone="no"?>
<!DOCTYPE svg PUBLIC "-//W3C//DTD SVG 20010904//EN"
 "http://www.w3.org/TR/2001/REC-SVG-20010904/DTD/svg10.dtd">
<svg version="1.0" xmlns="http://www.w3.org/2000/svg"
 width="101.000000pt" height="101.000000pt" viewBox="0 0 101.000000 101.000000"
 preserveAspectRatio="xMidYMid meet">
<metadata>
Created by potrace 1.16, written by Peter Selinger 2001-2019
</metadata>
<g transform="translate(0.000000,101.000000) scale(0.100000,-0.100000)"
fill="#000000" stroke="none">
<path d="M520 1006 c0 -2 7 -19 15 -39 l14 -34 -72 -8 c-48 -4 -73 -3 -75 4
-2 7 -32 11 -72 11 -58 0 -70 -3 -75 -19 -11 -36 6 -54 50 -54 6 0 9 -21 8
-49 -2 -29 2 -48 9 -48 7 0 7 -4 -1 -14 -7 -8 -11 -48 -10 -99 1 -72 4 -86 19
-90 9 -2 23 -1 31 2 8 4 44 5 81 3 l66 -4 4 -32 c3 -30 1 -33 -24 -33 -20 0
-28 5 -28 17 0 14 -14 18 -83 24 -107 9 -147 -5 -127 -43 7 -15 6 -71 -4 -156
-9 -79 -24 -119 -60 -162 l-26 -31 36 -21 c19 -12 39 -21 43 -21 8 0 71 129
71 146 0 6 15 10 33 11 33 1 34 0 33 -41 -1 -29 -5 -41 -16 -42 -52 -3 -50 -1
-32 -44 16 -37 19 -40 47 -34 41 8 75 31 75 51 0 13 5 12 26 -8 l26 -24 43 48
c39 42 45 45 54 30 9 -17 11 -16 32 2 l22 20 -17 -32 c-9 -17 -26 -39 -38 -47
-25 -18 -19 -26 30 -46 28 -11 36 -11 48 2 18 18 75 168 68 180 -3 4 -1 15 4
25 9 14 11 14 22 -6 7 -14 17 -20 26 -17 12 5 14 1 8 -17 -4 -12 -7 -31 -5
-42 1 -11 3 -33 5 -50 2 -16 4 -35 5 -42 2 -18 53 -31 96 -24 30 5 45 14 62
40 30 44 29 52 -12 78 l-34 21 -10 -29 c-5 -16 -14 -29 -20 -29 -21 0 -25 159
-6 270 6 39 8 71 3 75 -2 2 -26 -1 -53 -6 -28 -5 -61 -6 -75 -3 -53 15 -80 13
-80 -7 0 -16 -7 -18 -45 -17 -50 3 -49 2 -35 28 8 15 6 21 -7 29 -21 12 -14
13 137 13 l95 -1 0 90 0 89 -80 1 c-76 2 -78 2 -30 9 28 5 75 9 106 9 60 1 72
11 62 50 -7 28 -36 35 -72 17 -33 -18 -106 -21 -116 -6 -7 12 -113 11 -121 -1
-7 -13 -48 -11 -61 2 -6 6 -33 10 -61 8 -37 -3 -48 -1 -45 9 5 12 50 15 159
12 29 -1 55 3 59 9 7 12 143 14 160 3 6 -4 40 -7 77 -8 72 -2 83 6 72 52 -6
22 -16 29 -38 25 -6 -1 -65 -3 -133 -4 -116 -2 -123 -1 -134 20 -6 12 -9 29
-6 37 5 13 -3 16 -48 16 -30 0 -55 -2 -55 -4z m85 -236 c4 -6 -10 -10 -34 -10
-23 0 -41 -4 -41 -10 0 -16 -147 -13 -153 3 -3 9 4 12 28 9 18 -2 36 1 39 7 9
14 153 15 161 1z m81 -86 c47 -5 60 -10 60 -24 0 -15 -16 -17 -172 -16 -146 1
-170 3 -167 16 3 12 18 14 73 12 38 -2 77 1 87 7 21 12 40 13 119 5z m-131
-114 c3 -6 -1 -7 -9 -4 -18 7 -21 14 -7 14 6 0 13 -4 16 -10z m-168 -120 c0
-22 -5 -27 -27 -27 -22 0 -27 5 -27 27 0 22 5 27 27 27 22 0 27 -5 27 -27z
m418 2 c-2 -7 1 -23 7 -36 6 -14 8 -32 4 -41 -5 -14 -8 -14 -30 0 -20 13 -25
24 -23 55 1 33 4 37 24 36 14 0 21 -6 18 -14z m-209 -37 c-9 -50 -29 -93 -42
-88 -24 9 4 113 31 113 11 0 14 -7 11 -25z m94 11 c0 -8 -5 -27 -10 -41 -7
-18 -7 -33 1 -47 8 -14 8 -27 1 -42 -6 -11 -12 -27 -14 -34 -2 -9 -8 -9 -24 2
l-20 15 25 80 c24 74 41 102 41 67z m-200 -8 c0 -5 -7 -25 -15 -45 -21 -50
-20 -55 22 -82 l37 -24 -39 -34 c-38 -33 -40 -33 -47 -13 -4 12 -6 54 -3 93 3
40 6 82 6 94 1 15 7 21 20 20 10 -1 19 -5 19 -9z m-113 -69 c-1 -10 -11 -16
-29 -16 -15 0 -28 1 -28 3 0 1 3 9 6 17 7 20 53 17 51 -4z"/>
<path d="M97 932 l-28 -29 39 -27 c21 -14 51 -40 67 -56 l29 -30 28 27 c15 15
28 33 28 40 0 14 -108 103 -126 103 -5 0 -23 -13 -37 -28z"/>
<path d="M56 729 c-27 -32 -33 -49 -17 -49 6 0 40 -23 77 -50 36 -28 67 -50
68 -48 2 2 15 20 30 40 l27 37 -43 31 c-24 18 -60 40 -80 51 l-37 19 -25 -31z"/>
<path d="M126 541 c-4 -5 -6 -22 -5 -38 0 -15 -2 -41 -4 -58 -3 -16 -9 -48
-12 -70 -4 -22 -18 -69 -32 -105 -13 -36 -26 -72 -29 -80 -5 -19 74 -76 88
-62 5 5 11 20 13 33 11 71 15 92 35 165 19 73 27 110 33 157 2 21 -77 74 -87
58z"/>
</g>
</svg>
