<?xml version="1.0" standalone="no"?>
<!DOCTYPE svg PUBLIC "-//W3C//DTD SVG 20010904//EN"
 "http://www.w3.org/TR/2001/REC-SVG-20010904/DTD/svg10.dtd">
<svg version="1.0" xmlns="http://www.w3.org/2000/svg"
 width="101.000000pt" height="101.000000pt" viewBox="0 0 101.000000 101.000000"
 preserveAspectRatio="xMidYMid meet">
<metadata>
Created by potrace 1.16, written by Peter Selinger 2001-2019
</metadata>
<g transform="translate(0.000000,101.000000) scale(0.100000,-0.100000)"
fill="#000000" stroke="none">
<path d="M378 1004 c13 -6 16 -55 6 -128 -6 -38 -10 -46 -23 -40 -49 20 -55
17 -88 -53 -53 -110 -52 -110 -115 -75 -85 48 -93 48 -118 8 -21 -36 -20 -56
4 -56 7 0 41 -18 76 -41 34 -22 63 -39 65 -37 1 2 12 22 25 45 19 35 26 40 41
33 30 -17 39 -11 62 38 l22 47 78 2 77 2 -15 -30 c-18 -34 -24 -35 -58 -9 -32
26 -39 25 -67 -5 -25 -27 -25 -27 8 -44 12 -6 22 -16 22 -21 0 -11 -45 -24
-72 -22 -10 0 -20 -4 -23 -9 -4 -5 -11 -7 -16 -3 -6 3 -21 3 -35 0 l-25 -7 25
-30 c19 -22 24 -37 20 -55 -3 -13 -3 -35 0 -48 5 -20 11 -24 39 -22 19 2 39 6
45 10 6 3 35 3 66 0 45 -6 54 -10 53 -26 -1 -21 -38 -34 -64 -23 -10 4 -39 9
-64 11 -51 5 -62 -7 -52 -60 5 -22 9 -25 43 -22 20 2 43 6 49 10 6 4 29 5 51
1 30 -5 38 -11 37 -26 -2 -23 -35 -34 -69 -23 -13 5 -32 9 -43 10 -11 0 -24 2
-30 4 -38 10 -59 -17 -48 -59 6 -23 39 -34 64 -20 10 5 43 6 73 3 45 -5 54
-10 53 -25 -1 -11 -11 -20 -27 -23 -39 -8 -133 -5 -151 5 -40 21 -72 -12 -62
-63 4 -21 9 -24 36 -20 18 2 75 4 127 3 52 0 124 0 160 0 183 0 271 -2 332 -4
l66 -3 5 30 c7 48 -2 68 -27 59 -18 -7 -126 -8 -201 -2 -12 1 -21 9 -22 19 -2
20 7 22 118 20 69 -1 77 1 82 19 3 12 3 30 0 42 -5 18 -13 20 -82 19 -107 -2
-121 0 -121 17 0 9 6 13 15 9 8 -3 25 -1 38 5 14 6 42 7 79 1 55 -8 56 -8 61
16 11 60 -16 81 -70 55 -29 -13 -41 -14 -65 -5 -16 6 -35 9 -42 6 -6 -2 -12 4
-13 15 -2 21 1 22 129 23 92 1 104 8 91 58 -8 29 -38 34 -89 14 -37 -14 -52
-15 -76 -6 -16 6 -36 8 -44 5 -17 -6 -19 23 -2 33 14 9 -18 34 -46 35 -14 0
-5 8 27 24 l49 23 61 -28 c104 -48 110 -48 140 2 28 48 25 54 -38 61 -59 7
-95 18 -95 29 0 5 11 26 25 46 14 20 39 73 56 116 32 83 29 103 -16 91 -30 -9
-145 -9 -191 -1 -32 6 -45 4 -58 -9 -10 -10 -16 -12 -16 -5 0 7 -6 10 -13 7
-8 -3 -38 -2 -68 1 -49 6 -54 9 -54 32 0 23 -4 25 -50 27 -27 1 -44 0 -37 -3z
m204 -142 c11 -1 31 -31 55 -82 l39 -79 -48 -21 c-26 -11 -61 -23 -78 -27 -17
-3 -32 -9 -35 -12 -2 -4 15 -22 38 -41 l42 -33 2 -192 2 -192 -29 0 -28 0 -6
91 c-6 108 -2 176 18 268 8 35 -21 53 -71 43 -32 -6 -35 -9 -31 -35 4 -27 2
-29 -38 -35 -26 -4 -52 -2 -64 5 -20 11 -17 14 39 40 82 39 150 105 186 180
35 73 29 81 -55 77 -54 -2 -56 -2 -52 23 3 23 8 25 50 24 26 0 55 -1 64 -2z
m208 -5 c0 -12 -39 -85 -49 -91 -6 -4 -51 79 -51 96 0 2 23 3 50 3 28 0 50 -4
50 -8z"/>
<path d="M116 937 c-15 -19 -26 -36 -26 -39 0 -3 19 -18 43 -33 23 -15 54 -38
68 -52 l26 -24 26 35 c15 19 27 39 27 45 0 12 -67 63 -112 87 -26 13 -28 12
-52 -19z"/>
<path d="M134 498 c-12 -50 -12 -50 -19 -88 -10 -57 -32 -127 -61 -190 -15
-33 -25 -62 -23 -63 2 -2 25 -16 52 -31 44 -25 53 -24 48 6 0 7 83 300 93 328
4 9 -3 21 -16 29 -13 8 -33 20 -45 28 -20 13 -22 12 -29 -19z"/>
</g>
</svg>
