<?xml version="1.0" standalone="no"?>
<!DOCTYPE svg PUBLIC "-//W3C//DTD SVG 20010904//EN"
 "http://www.w3.org/TR/2001/REC-SVG-20010904/DTD/svg10.dtd">
<svg version="1.0" xmlns="http://www.w3.org/2000/svg"
 width="101.000000pt" height="103.000000pt" viewBox="0 0 101.000000 103.000000"
 preserveAspectRatio="xMidYMid meet">
<metadata>
Created by potrace 1.16, written by Peter Selinger 2001-2019
</metadata>
<g transform="translate(0.000000,103.000000) scale(0.100000,-0.100000)"
fill="#000000" stroke="none">
<path d="M480 970 c-66 -97 -201 -205 -282 -225 -16 -4 -28 -10 -28 -14 0 -3
18 -21 41 -39 28 -24 43 -31 52 -24 9 8 12 2 10 -26 -1 -20 0 -62 4 -94 l5
-56 37 5 c20 3 57 5 84 5 46 -1 47 0 49 31 1 18 3 48 4 67 1 19 0 49 -2 65 -4
30 -5 31 -66 33 -34 2 -63 4 -64 5 -1 1 19 17 44 36 25 19 42 29 38 23 -3 -6
1 -18 11 -27 14 -14 27 -16 72 -10 31 4 63 7 71 6 8 0 45 -4 81 -7 60 -6 68
-4 87 16 l20 21 58 -30 59 -31 -67 6 c-37 3 -79 3 -93 0 -25 -6 -26 -9 -24
-85 1 -43 -1 -83 -4 -88 -10 -16 10 -35 34 -33 13 1 54 1 90 1 l67 -1 7 89 c4
49 4 95 0 101 -5 9 -1 10 13 6 17 -6 24 -1 36 27 8 19 19 38 25 41 19 12 12
24 -16 31 -16 4 -28 6 -28 6 0 -7 -124 38 -168 61 -71 38 -133 103 -117 123 9
10 3 16 -27 26 -65 22 -72 20 -113 -41z m132 -104 l48 -54 -96 -7 c-52 -4 -97
-5 -101 -2 -5 6 86 117 96 117 3 0 27 -25 53 -54z m164 -234 c6 -4 13 -20 16
-37 3 -25 0 -30 -17 -30 -16 0 -20 7 -20 38 -1 38 2 42 21 29z m-394 -36 c2
-23 0 -32 -8 -29 -17 6 -24 63 -8 63 6 0 14 -15 16 -34z"/>
<path d="M101 926 l-33 -34 34 -22 c18 -13 52 -41 75 -63 l42 -40 40 34 c21
19 40 36 40 39 1 5 -142 113 -157 118 -4 1 -23 -13 -41 -32z"/>
<path d="M46 696 l-26 -34 38 -23 c20 -12 56 -37 79 -56 23 -18 45 -33 50 -33
9 0 67 79 62 85 -11 10 -161 95 -168 95 -5 0 -20 -15 -35 -34z"/>
<path d="M498 703 c-19 -5 -31 -30 -22 -45 8 -13 8 -113 1 -125 -11 -17 11
-35 39 -34 16 1 54 2 85 2 l56 -1 7 62 c14 135 7 147 -86 146 -35 -1 -70 -3
-80 -5z m87 -99 c0 -29 -4 -40 -15 -41 -11 -1 -15 10 -16 43 -1 36 2 44 15 42
11 -2 16 -15 16 -44z"/>
<path d="M144 488 c-4 -18 -9 -38 -10 -44 -7 -42 -40 -139 -65 -193 l-30 -65
43 -38 c24 -20 45 -37 48 -38 3 0 29 79 58 176 58 195 59 178 -10 218 -26 16
-26 16 -34 -16z"/>
<path d="M278 473 c-13 -3 -15 -12 -11 -41 8 -56 9 -241 1 -293 -8 -53 -1 -59
63 -51 l36 4 -9 45 c-7 31 -7 53 1 69 6 13 8 30 6 37 -4 9 8 13 41 15 37 1 45
-1 40 -13 -3 -9 0 -27 6 -40 9 -19 9 -28 0 -37 -18 -18 -14 -48 6 -50 22 -2
66 2 70 7 2 2 -2 12 -10 24 -10 16 -10 27 -1 52 7 17 10 36 7 44 -4 8 3 13 18
13 13 1 34 2 48 4 21 3 25 -1 26 -27 0 -16 -3 -39 -7 -51 -18 -51 12 -90 60
-77 16 4 19 14 20 56 0 87 1 95 25 95 11 1 32 2 46 4 23 3 25 0 25 -42 0 -41
-2 -45 -25 -46 -60 -3 -58 0 -36 -49 12 -25 28 -45 36 -45 28 0 89 21 97 33 4
7 8 66 9 132 1 66 4 143 8 171 8 63 -2 69 -73 46 -41 -13 -58 -14 -84 -5 -17
7 -54 9 -82 6 -101 -10 -265 -6 -320 9 -11 3 -27 4 -37 1z m337 -108 c0 -37
-2 -40 -25 -37 -14 2 -35 3 -46 4 -18 0 -22 6 -21 34 1 26 5 33 16 29 9 -2 23
0 31 5 29 19 45 7 45 -35z m170 0 c0 -37 -2 -40 -25 -37 -14 2 -35 3 -46 4
-18 0 -22 6 -21 34 1 26 5 33 16 29 9 -2 23 0 31 5 29 19 45 7 45 -35z m-338
0 c1 -34 1 -34 -42 -33 -41 2 -43 4 -42 33 1 29 3 31 42 33 40 1 41 1 42 -33z"/>
</g>
</svg>
