<?xml version="1.0" standalone="no"?>
<!DOCTYPE svg PUBLIC "-//W3C//DTD SVG 20010904//EN"
 "http://www.w3.org/TR/2001/REC-SVG-20010904/DTD/svg10.dtd">
<svg version="1.0" xmlns="http://www.w3.org/2000/svg"
 width="101.000000pt" height="101.000000pt" viewBox="0 0 101.000000 101.000000"
 preserveAspectRatio="xMidYMid meet">
<metadata>
Created by potrace 1.16, written by Peter Selinger 2001-2019
</metadata>
<g transform="translate(0.000000,101.000000) scale(0.100000,-0.100000)"
fill="#000000" stroke="none">
<path d="M92 967 c-18 -18 -32 -36 -32 -40 0 -4 17 -15 38 -26 20 -10 55 -33
77 -51 l39 -31 28 33 c15 18 28 39 28 46 0 7 -24 27 -52 46 -95 60 -91 59
-126 23z"/>
<path d="M306 974 c-13 -50 -1 -61 64 -62 33 0 62 4 65 9 7 11 85 12 101 1 6
-4 14 -15 17 -26 7 -18 2 -18 -107 -11 -184 11 -195 4 -181 -119 6 -58 9 -65
32 -70 49 -13 61 -1 59 59 l-2 55 43 0 c24 0 43 5 43 10 0 6 11 10 25 10 14 0
25 -5 25 -11 0 -7 12 -9 33 -5 l32 6 -2 -89 c-2 -98 1 -103 63 -94 l29 5 0 86
0 87 96 2 95 1 -2 -63 c-4 -69 3 -76 62 -68 l29 5 2 81 c2 45 -1 88 -6 96 -7
10 -41 14 -143 15 -115 1 -134 3 -134 17 0 10 6 14 18 11 10 -2 25 1 33 8 14
12 130 8 177 -6 20 -6 31 24 23 59 -6 24 -9 25 -101 26 -58 1 -94 -3 -94 -9 0
-6 -32 -10 -80 -10 -47 0 -80 4 -80 10 0 6 -18 10 -40 10 -22 0 -40 -4 -40
-10 0 -5 -25 -10 -55 -10 -30 0 -55 5 -55 10 0 23 -38 9 -44 -16z"/>
<path d="M381 786 c-7 -9 -11 -26 -7 -39 5 -22 11 -24 75 -24 74 -1 85 6 74
46 -3 12 -13 21 -23 21 -9 0 -37 3 -61 6 -34 5 -48 2 -58 -10z"/>
<path d="M663 777 c-3 -5 -2 -19 1 -33 5 -20 11 -24 27 -19 l21 7 -21 -21
c-22 -22 -26 -39 -13 -56 10 -15 125 -16 134 -2 10 16 -1 49 -21 64 -15 12
-15 13 1 7 10 -3 18 1 22 14 13 39 0 47 -75 47 -39 0 -73 -4 -76 -8z"/>
<path d="M53 740 c-13 -15 -23 -33 -23 -38 0 -6 19 -21 43 -35 23 -14 59 -39
81 -56 l38 -31 29 37 c16 19 29 40 29 45 0 11 -148 108 -164 107 -6 0 -21 -13
-33 -29z"/>
<path d="M376 694 c-9 -24 3 -54 22 -56 9 0 29 0 44 1 24 2 26 -1 24 -26 -3
-23 -8 -27 -27 -25 -13 2 -34 3 -46 4 -19 0 -22 4 -17 23 4 17 0 24 -15 28
-42 11 -67 -6 -63 -44 1 -3 -12 -5 -28 -4 -20 1 -30 -4 -33 -16 -7 -26 8 -42
42 -42 29 0 30 -1 25 -39 -6 -41 -2 -44 59 -39 15 1 27 -2 27 -8 0 -16 -49
-25 -75 -13 -48 22 -88 -16 -64 -61 6 -10 8 -34 5 -53 l-7 -34 43 6 c90 11 93
11 94 -14 1 -25 -33 -40 -63 -27 -10 4 -39 9 -64 11 -40 4 -47 2 -52 -16 -10
-40 2 -58 37 -56 18 2 38 6 45 10 6 4 31 4 55 1 l44 -7 -4 -48 c-4 -41 -2 -48
16 -53 11 -3 29 -3 40 0 19 5 26 31 22 83 -1 12 10 16 43 18 52 2 55 -5 20
-38 l-25 -24 42 -21 c31 -16 47 -19 56 -12 17 13 65 108 82 160 8 26 16 37 26
33 8 -3 25 -1 38 6 14 6 35 8 49 4 21 -5 24 -11 23 -48 l-1 -43 -48 -1 c-56
-1 -66 -8 -44 -31 8 -10 20 -30 26 -46 12 -31 19 -32 90 -11 40 12 54 21 62
42 11 28 12 118 5 282 -3 52 -1 102 4 111 14 25 1 62 -19 53 -24 -11 -202 -14
-221 -4 -11 6 -34 4 -65 -5 -64 -20 -66 -19 -59 10 5 19 2 25 -11 25 -9 0 -14
4 -10 10 3 5 3 20 0 33 -6 23 -11 25 -75 26 -55 1 -69 -2 -74 -15z m243 -156
c1 -13 3 -49 5 -81 3 -36 -1 -75 -10 -99 -7 -21 -13 -42 -13 -46 5 -30 -3 -41
-28 -41 -16 0 -48 -2 -73 -4 -40 -5 -46 -3 -47 15 -1 13 3 18 13 14 8 -3 26 0
39 6 19 9 28 9 37 0 7 -7 20 -12 30 -12 15 0 16 4 7 24 -7 15 -8 36 -4 53 5
15 9 38 10 51 1 20 -3 22 -27 17 -31 -7 -68 1 -68 16 0 5 11 9 25 9 25 0 31
13 27 61 -1 11 8 16 30 16 18 0 34 5 36 11 6 18 10 14 11 -10z m-144 -8 c0
-18 -34 -24 -55 -10 -13 9 -13 11 0 20 21 14 55 8 55 -10z m340 -20 c0 -34 -1
-35 -35 -32 -19 1 -44 3 -56 3 -16 1 -21 8 -21 30 0 22 4 28 16 24 9 -2 23 0
31 5 8 6 26 9 40 8 21 -3 25 -8 25 -38z m-425 20 c0 -5 -4 -10 -10 -10 -5 0
-10 5 -10 10 0 6 5 10 10 10 6 0 10 -4 10 -10z m80 -80 c0 -5 -4 -10 -10 -10
-5 0 -10 5 -10 10 0 6 5 10 10 10 6 0 10 -4 10 -10z m345 -60 c0 -34 -1 -35
-35 -32 -19 1 -44 3 -56 3 -16 1 -21 8 -21 30 0 22 4 28 16 24 9 -2 23 0 31 5
8 6 26 9 40 8 21 -3 25 -8 25 -38z m-429 -25 c-1 -19 -7 -23 -31 -22 -23 1
-30 6 -31 22 -1 17 4 21 31 22 28 1 33 -2 31 -22z m120 0 c-1 -16 -7 -22 -26
-22 -19 0 -25 6 -26 22 -1 17 4 22 26 22 22 0 27 -5 26 -22z"/>
<path d="M122 457 c-13 -45 -39 -120 -58 -167 -19 -47 -36 -91 -37 -97 -1 -7
21 -26 49 -42 l51 -30 18 77 c10 42 33 123 51 179 19 56 34 106 34 110 0 8
-70 53 -81 53 -2 0 -14 -37 -27 -83z"/>
</g>
</svg>
