<?xml version="1.0" standalone="no"?>
<!DOCTYPE svg PUBLIC "-//W3C//DTD SVG 20010904//EN"
 "http://www.w3.org/TR/2001/REC-SVG-20010904/DTD/svg10.dtd">
<svg version="1.0" xmlns="http://www.w3.org/2000/svg"
 width="101.000000pt" height="101.000000pt" viewBox="0 0 101.000000 101.000000"
 preserveAspectRatio="xMidYMid meet">
<metadata>
Created by potrace 1.16, written by Peter Selinger 2001-2019
</metadata>
<g transform="translate(0.000000,101.000000) scale(0.100000,-0.100000)"
fill="#000000" stroke="none">
<path d="M238 1004 c-24 -7 -29 -51 -22 -174 9 -157 7 -249 -5 -264 -7 -8 -11
-29 -10 -47 5 -99 -52 -237 -133 -325 l-39 -42 47 -26 c45 -25 48 -25 66 -9
21 19 118 207 118 229 0 29 22 12 71 -56 l51 -70 39 31 c22 17 39 35 39 41 0
6 -38 47 -84 92 -79 76 -84 83 -79 116 2 19 5 51 6 70 2 30 11 41 92 102 50
38 91 73 93 78 2 5 -16 23 -40 40 l-43 32 -25 -33 c-14 -18 -37 -47 -52 -64
l-26 -30 9 50 c5 28 9 70 9 95 -1 57 9 121 22 137 5 6 5 14 0 17 -14 8 -85 15
-104 10z"/>
<path d="M632 960 c0 -22 3 -42 9 -45 9 -6 11 -128 3 -181 l-6 -31 -89 4 c-85
3 -89 2 -94 -19 -3 -13 -2 -36 3 -53 10 -35 36 -41 122 -27 l55 8 0 -193 0
-193 -25 -4 c-26 -5 -85 -2 -156 8 -47 6 -55 -5 -46 -62 4 -31 16 -39 52 -33
8 2 49 5 90 7 41 2 107 6 147 9 49 3 84 0 113 -10 31 -11 47 -12 62 -4 11 6
35 8 53 5 31 -6 33 -5 37 26 8 53 -1 71 -31 62 -22 -7 -105 -8 -178 -3 -21 1
-21 3 -20 193 l2 191 58 -2 c33 -1 69 -4 82 -7 35 -9 52 2 59 38 11 59 6 63
-102 62 l-97 -1 1 106 c1 58 5 121 9 139 9 40 -2 48 -65 48 l-48 1 0 -39z"/>
<path d="M77 776 c-3 -11 -3 -52 -1 -90 3 -55 1 -73 -12 -88 -10 -10 -15 -21
-12 -24 4 -3 2 -18 -2 -34 -9 -33 -2 -38 62 -39 32 0 39 4 44 23 3 13 5 32 3
42 -1 11 1 30 4 44 4 14 9 45 11 70 2 25 7 57 10 71 5 22 1 28 -22 37 -44 17
-80 13 -85 -12z"/>
</g>
</svg>
