<?xml version="1.0" standalone="no"?>
<!DOCTYPE svg PUBLIC "-//W3C//DTD SVG 20010904//EN"
 "http://www.w3.org/TR/2001/REC-SVG-20010904/DTD/svg10.dtd">
<svg version="1.0" xmlns="http://www.w3.org/2000/svg"
 width="101.000000pt" height="101.000000pt" viewBox="0 0 101.000000 101.000000"
 preserveAspectRatio="xMidYMid meet">
<metadata>
Created by potrace 1.16, written by Peter Selinger 2001-2019
</metadata>
<g transform="translate(0.000000,101.000000) scale(0.100000,-0.100000)"
fill="#000000" stroke="none">
<path d="M228 1003 c-14 -4 -16 -22 -16 -136 0 -73 5 -146 11 -163 8 -26 7
-39 -7 -68 -9 -20 -16 -53 -16 -73 4 -130 -52 -267 -146 -358 -44 -42 -45 -43
-22 -50 13 -4 36 -17 51 -27 16 -11 29 -19 31 -17 75 96 117 169 146 254 l17
49 32 -44 c18 -25 40 -60 49 -78 10 -21 21 -31 30 -27 23 9 71 49 71 60 1 6
-37 48 -83 94 -71 71 -83 87 -79 110 3 14 7 50 10 79 5 52 7 55 64 97 33 24
69 47 79 50 28 9 26 16 -21 60 -31 30 -43 36 -47 26 -3 -8 -22 -33 -42 -55
l-38 -40 3 37 c2 20 6 40 8 44 3 5 6 35 8 68 1 35 8 67 16 77 13 15 11 18 -24
27 -39 11 -56 12 -85 4z"/>
<path d="M544 983 c-4 -16 -9 -37 -11 -48 -1 -11 -5 -38 -8 -60 -9 -58 -52
-151 -106 -227 l-47 -66 50 -17 c28 -9 52 -15 54 -13 2 2 26 46 53 98 l49 94
55 -3 c31 -1 58 2 62 8 8 14 52 14 61 0 4 -6 20 -8 40 -5 30 6 33 5 29 -15 -2
-12 -14 -41 -25 -65 -12 -24 -19 -48 -15 -53 3 -6 26 -10 51 -9 33 0 47 5 55
19 5 11 8 19 5 19 -3 0 10 45 29 100 l34 100 -117 -4 c-64 -3 -145 -6 -178 -8
l-61 -3 19 55 c10 30 28 64 39 76 l21 23 -53 15 c-70 21 -76 21 -85 -11z"/>
<path d="M82 812 c-6 -5 -12 -19 -12 -33 0 -52 -9 -155 -15 -179 -17 -66 -17
-80 2 -81 56 -4 83 -3 84 1 6 21 11 62 14 100 6 86 14 145 20 162 11 29 -59
51 -93 30z"/>
<path d="M609 702 c0 -4 0 -29 1 -55 1 -26 -4 -55 -11 -63 -6 -8 -13 -31 -15
-52 -1 -20 -5 -52 -9 -71 -21 -116 -123 -237 -233 -275 -43 -15 -42 -20 15
-63 l42 -32 63 49 c80 65 144 150 166 223 l18 57 18 -60 c10 -33 35 -86 56
-118 36 -56 124 -142 145 -142 12 0 85 72 85 83 0 3 -19 16 -41 28 -89 45
-175 160 -195 259 -9 45 -8 170 1 192 4 11 0 20 -12 26 -24 12 -93 23 -94 14z"/>
</g>
</svg>
