<?xml version="1.0" standalone="no"?>
<!DOCTYPE svg PUBLIC "-//W3C//DTD SVG 20010904//EN"
 "http://www.w3.org/TR/2001/REC-SVG-20010904/DTD/svg10.dtd">
<svg version="1.0" xmlns="http://www.w3.org/2000/svg"
 width="101.000000pt" height="101.000000pt" viewBox="0 0 101.000000 101.000000"
 preserveAspectRatio="xMidYMid meet">
<metadata>
Created by potrace 1.16, written by Peter Selinger 2001-2019
</metadata>
<g transform="translate(0.000000,101.000000) scale(0.100000,-0.100000)"
fill="#000000" stroke="none">
<path d="M563 925 l4 -86 -48 6 c-56 8 -89 0 -89 -21 0 -13 -3 -13 -22 1 -22
15 -25 14 -66 -32 l-42 -48 6 100 c4 55 11 108 15 117 12 23 -4 31 -67 32
l-53 1 4 -85 c7 -181 3 -375 -8 -448 -16 -97 -70 -196 -141 -254 l-37 -30 47
-30 c26 -16 52 -27 59 -25 19 8 86 116 121 194 35 82 34 82 91 -9 l30 -47 43
44 43 44 -44 44 c-24 23 -61 56 -81 73 -36 28 -37 31 -28 69 5 22 10 57 10 78
0 34 5 41 61 82 34 25 66 46 73 46 6 1 25 3 41 4 17 2 41 5 55 8 l25 5 -4 -77
c-1 -42 -4 -89 -5 -104 -1 -30 -31 -45 -63 -32 -10 4 -39 9 -64 11 -52 5 -60
-5 -51 -64 4 -30 18 -39 47 -32 16 4 58 10 90 13 25 2 30 -2 31 -20 4 -75
-104 -197 -219 -248 -37 -17 -65 -33 -64 -36 1 -3 21 -22 44 -43 l42 -38 70
47 c81 53 140 118 177 193 l26 52 21 -41 c28 -58 112 -146 181 -191 33 -21 62
-38 66 -38 4 0 13 13 20 29 6 16 20 37 31 47 28 25 24 31 -30 49 -89 29 -172
100 -214 182 -22 42 -21 51 6 52 12 0 52 3 89 6 43 3 81 0 106 -9 50 -18 63
-9 65 43 1 42 -16 67 -37 53 -19 -11 -84 -10 -82 2 2 6 6 22 9 36 4 14 8 73
10 132 l4 106 -58 7 c-32 4 -82 5 -111 3 -49 -3 -53 -1 -56 20 -2 13 1 29 7
35 5 7 10 26 9 42 0 17 1 37 3 45 3 12 -8 16 -49 18 l-52 3 3 -86z m217 -215
c0 -26 -7 -61 -16 -78 -8 -18 -14 -44 -12 -59 3 -30 7 -29 -82 -20 -24 2 -25
5 -28 75 -2 45 1 72 8 72 5 0 10 11 10 24 0 26 11 31 83 31 l37 1 0 -46z"/>
<path d="M85 791 c-3 -11 -5 -50 -4 -88 2 -65 -6 -148 -17 -165 -8 -12 39 -27
69 -21 31 6 38 24 44 113 2 36 6 86 8 112 4 39 1 49 -15 58 -32 17 -78 12 -85
-9z"/>
</g>
</svg>
