<?xml version="1.0" standalone="no"?>
<!DOCTYPE svg PUBLIC "-//W3C//DTD SVG 20010904//EN"
 "http://www.w3.org/TR/2001/REC-SVG-20010904/DTD/svg10.dtd">
<svg version="1.0" xmlns="http://www.w3.org/2000/svg"
 width="101.000000pt" height="101.000000pt" viewBox="0 0 101.000000 101.000000"
 preserveAspectRatio="xMidYMid meet">
<metadata>
Created by potrace 1.16, written by Peter Selinger 2001-2019
</metadata>
<g transform="translate(0.000000,101.000000) scale(0.100000,-0.100000)"
fill="#000000" stroke="none">
<path d="M630 989 c-64 -18 -62 -15 -39 -61 12 -24 23 -53 25 -65 2 -21 -1
-22 -59 -19 -34 2 -74 7 -89 11 -15 4 -35 2 -48 -5 -18 -9 -21 -19 -18 -46 4
-33 3 -33 -18 -19 -21 13 -24 12 -50 -28 l-28 -42 -6 35 c-8 51 1 177 14 199
4 5 1 13 -6 17 -19 12 -108 11 -109 -1 -3 -41 4 -121 12 -123 13 -5 11 -72 -2
-72 -7 0 -10 -37 -9 -112 2 -163 -9 -247 -43 -338 -25 -68 -41 -95 -86 -142
-19 -21 -33 -40 -30 -42 3 -3 20 -8 39 -11 19 -3 40 -11 48 -18 11 -9 17 -7
29 8 23 30 69 132 93 209 25 76 24 76 90 -10 24 -30 46 -54 50 -54 3 0 24 15
45 33 l39 33 -98 79 c-74 59 -95 82 -89 94 4 9 7 35 8 58 1 50 24 79 103 130
54 35 62 47 38 60 -9 5 3 9 32 10 26 0 64 4 85 8 l39 7 -25 -48 c-40 -80 -114
-173 -142 -180 -29 -7 -29 -10 -13 -63 13 -42 11 -41 108 -27 69 11 130 15
130 10 0 -4 -32 -44 -70 -90 -72 -85 -119 -127 -156 -138 -20 -6 -20 -8 -5
-56 l16 -50 40 6 c22 3 51 7 65 9 61 10 136 20 227 29 l51 6 16 -40 15 -39 48
16 c26 9 50 17 52 19 4 3 -116 234 -129 247 -6 7 -90 -10 -90 -19 0 -1 11 -22
25 -45 14 -24 25 -46 25 -49 0 -3 -13 -11 -30 -18 -22 -10 -34 -10 -50 -2 -11
6 -25 8 -31 4 -6 -3 -31 -8 -56 -9 l-44 -3 23 28 c13 16 76 97 141 180 65 83
125 154 133 157 8 3 14 9 14 13 0 9 -83 60 -98 60 -5 0 -19 -22 -32 -50 -35
-76 -52 -89 -99 -83 -22 3 -48 2 -58 -2 -23 -10 -63 -15 -63 -9 0 11 143 176
156 181 22 8 17 20 -16 33 -16 7 -30 17 -30 23 0 13 209 2 224 -13 28 -28 86
1 86 45 0 37 -27 58 -69 51 -32 -5 -114 -9 -149 -7 -7 1 -10 6 -7 11 6 9 -49
142 -57 139 -2 0 -19 -5 -38 -10z"/>
<path d="M78 772 c-1 -9 -3 -37 -4 -62 -3 -49 -10 -112 -19 -176 l-6 -41 50 0
c60 -1 61 1 68 117 2 47 7 101 10 122 6 41 -10 55 -64 56 -24 0 -34 -4 -35
-16z"/>
</g>
</svg>
