<?xml version="1.0" standalone="no"?>
<!DOCTYPE svg PUBLIC "-//W3C//DTD SVG 20010904//EN"
 "http://www.w3.org/TR/2001/REC-SVG-20010904/DTD/svg10.dtd">
<svg version="1.0" xmlns="http://www.w3.org/2000/svg"
 width="101.000000pt" height="101.000000pt" viewBox="0 0 101.000000 101.000000"
 preserveAspectRatio="xMidYMid meet">
<metadata>
Created by potrace 1.16, written by Peter Selinger 2001-2019
</metadata>
<g transform="translate(0.000000,101.000000) scale(0.100000,-0.100000)"
fill="#000000" stroke="none">
<path d="M615 993 c-34 -8 -37 -19 -15 -56 12 -20 23 -52 24 -71 l3 -35 -103
5 -103 5 -7 -26 c-3 -14 -3 -33 0 -42 5 -13 1 -12 -17 6 l-25 23 -31 -46 c-17
-25 -35 -47 -39 -50 -9 -5 -6 199 3 237 10 37 3 42 -56 42 -36 0 -50 -4 -53
-15 -8 -29 -5 -89 4 -95 12 -8 11 -173 -1 -181 -6 -3 -10 -45 -9 -92 1 -202
-34 -312 -126 -403 -46 -45 -53 -59 -31 -59 7 0 31 -9 52 -20 l40 -21 19 23
c26 33 75 132 101 205 l22 62 49 -75 c26 -40 51 -74 53 -74 10 0 81 53 81 60
0 4 -37 46 -82 95 -80 85 -82 88 -81 137 0 43 5 54 39 89 21 21 56 51 77 66
22 15 36 32 33 40 -3 7 2 13 12 14 9 0 50 1 90 2 l72 2 0 -60 c0 -33 3 -76 6
-96 l6 -36 -48 8 c-27 4 -68 8 -91 8 -38 1 -42 -1 -48 -29 -4 -16 -4 -38 0
-49 7 -23 42 -34 67 -20 10 5 40 7 67 3 55 -7 51 4 54 -141 1 -50 -2 -95 -6
-100 -9 -9 -118 -8 -188 1 -52 7 -60 -3 -51 -62 4 -31 17 -39 52 -32 16 3 80
7 225 15 67 4 102 2 134 -10 31 -11 48 -12 62 -4 11 6 39 7 63 4 43 -7 43 -7
48 26 9 57 0 72 -36 63 -27 -6 -119 -8 -193 -3 -28 1 -35 37 -28 129 3 36 6
75 6 86 1 24 4 25 126 26 90 1 102 10 89 63 -5 19 -15 25 -50 30 -24 4 -54 4
-67 0 -13 -4 -40 -8 -61 -9 -43 -3 -43 -4 -31 117 5 62 8 67 29 67 13 0 24 5
24 10 0 6 22 10 49 10 28 0 53 -4 56 -10 3 -5 17 -10 30 -10 28 0 40 27 30 68
-5 26 -9 28 -60 28 -30 1 -55 -3 -55 -7 0 -5 -11 -9 -25 -9 -14 0 -25 5 -25
10 0 6 -17 11 -37 11 -21 1 -30 3 -20 6 22 6 22 11 -9 88 -27 67 -33 71 -89
58z"/>
<path d="M75 784 c-13 -13 -15 -34 -13 -103 1 -47 -1 -105 -6 -128 -6 -33 -5
-43 6 -44 7 -1 27 -2 45 -4 29 -2 33 1 43 30 6 19 11 55 11 82 -1 26 1 74 3
106 4 54 3 59 -21 68 -34 13 -49 11 -68 -7z"/>
</g>
</svg>
