<?xml version="1.0" standalone="no"?>
<!DOCTYPE svg PUBLIC "-//W3C//DTD SVG 20010904//EN"
 "http://www.w3.org/TR/2001/REC-SVG-20010904/DTD/svg10.dtd">
<svg version="1.0" xmlns="http://www.w3.org/2000/svg"
 width="101.000000pt" height="101.000000pt" viewBox="0 0 101.000000 101.000000"
 preserveAspectRatio="xMidYMid meet">
<metadata>
Created by potrace 1.16, written by Peter Selinger 2001-2019
</metadata>
<g transform="translate(0.000000,101.000000) scale(0.100000,-0.100000)"
fill="#000000" stroke="none">
<path d="M579 998 c0 -7 -2 -20 -4 -28 -2 -8 -6 -25 -9 -38 -13 -58 -11 -57
-91 -56 -71 1 -76 0 -81 -21 -8 -32 3 -63 25 -70 9 -3 38 -1 63 3 l46 9 -20
-41 c-19 -39 -22 -41 -58 -38 -29 3 -37 8 -33 19 3 8 -8 28 -27 48 l-33 34
-36 -47 -36 -47 -6 30 c-10 46 -10 95 0 95 5 0 11 26 13 58 2 31 7 64 11 72 6
12 -3 15 -53 15 -70 0 -72 -4 -65 -86 11 -141 15 -299 6 -322 -7 -17 -6 -35 1
-55 9 -24 8 -36 -6 -67 -10 -20 -15 -39 -13 -42 8 -7 -22 -102 -49 -156 -14
-26 -40 -65 -59 -86 -38 -42 -42 -51 -22 -51 7 0 29 -9 49 -20 l36 -19 31 47
c36 56 75 143 91 201 6 23 15 39 21 35 5 -3 27 -28 48 -54 l38 -49 34 36 34
35 -76 71 c-76 71 -77 72 -67 107 5 19 8 52 5 72 -5 34 -2 41 31 66 55 43 60
44 55 18 -6 -30 23 -59 54 -53 12 2 23 2 23 -1 0 -9 -52 -82 -59 -82 -3 0 -12
-4 -19 -9 -11 -6 -10 -16 4 -50 14 -35 20 -41 38 -35 44 15 169 25 207 18 19
-4 27 -12 28 -27 0 -12 3 -61 6 -108 3 -48 1 -98 -4 -113 -10 -24 -14 -26 -61
-21 -27 3 -50 2 -50 -1 0 -3 7 -27 16 -54 17 -53 38 -65 81 -49 14 5 28 7 31
5 7 -8 62 23 64 37 1 6 2 73 4 147 1 74 3 145 4 156 3 25 9 26 121 24 75 -1
77 -1 82 25 8 44 -2 66 -27 59 -22 -5 -112 -7 -151 -4 -19 2 -20 9 -18 86 3
94 -5 103 -75 89 -54 -11 -92 -14 -92 -7 0 4 7 24 15 47 l16 40 127 -2 c70 -1
134 -4 143 -8 32 -12 64 49 41 80 -4 6 -63 10 -144 10 -76 0 -138 2 -138 4 0
10 45 81 52 81 19 0 6 31 -18 40 -36 14 -94 13 -95 -2z m69 -390 c1 -13 2 -34
4 -48 3 -21 -2 -25 -41 -33 -29 -6 -52 -5 -67 2 -13 6 -31 8 -39 4 -12 -4 -8
7 11 39 23 38 30 44 54 40 16 -2 36 1 47 7 26 15 31 14 31 -11z"/>
<path d="M55 753 c-3 -13 -3 -39 1 -57 3 -21 1 -36 -6 -41 -6 -4 -10 -28 -9
-58 1 -29 -1 -61 -4 -72 -10 -31 8 -49 48 -48 45 1 45 2 50 49 2 22 9 82 14
134 12 108 6 120 -55 118 -26 -1 -34 -6 -39 -25z"/>
<path d="M477 352 c-33 -54 -95 -122 -141 -155 -20 -14 -22 -13 81 -54 6 -2
45 38 86 89 42 51 85 99 96 106 12 7 21 17 21 22 0 10 -81 50 -99 50 -5 0 -24
-26 -44 -58z"/>
<path d="M776 385 l-29 -23 42 -49 c24 -26 57 -71 74 -100 18 -29 36 -53 42
-53 5 0 25 14 44 31 28 26 32 34 23 52 -15 31 -141 167 -155 167 -7 -1 -25
-11 -41 -25z"/>
</g>
</svg>
