<?xml version="1.0" standalone="no"?>
<!DOCTYPE svg PUBLIC "-//W3C//DTD SVG 20010904//EN"
 "http://www.w3.org/TR/2001/REC-SVG-20010904/DTD/svg10.dtd">
<svg version="1.0" xmlns="http://www.w3.org/2000/svg"
 width="101.000000pt" height="101.000000pt" viewBox="0 0 101.000000 101.000000"
 preserveAspectRatio="xMidYMid meet">
<metadata>
Created by potrace 1.16, written by Peter Selinger 2001-2019
</metadata>
<g transform="translate(0.000000,101.000000) scale(0.100000,-0.100000)"
fill="#000000" stroke="none">
<path d="M218 1003 c-14 -4 -16 -22 -16 -141 0 -75 5 -150 10 -167 9 -27 2
-131 -17 -255 -9 -58 -59 -152 -112 -210 l-51 -55 49 -28 c27 -15 51 -27 53
-27 10 0 96 149 113 193 9 26 21 47 26 47 11 0 66 -55 90 -90 l18 -25 39 41
c21 23 45 42 52 41 50 -2 68 4 68 22 0 11 -4 23 -10 26 -15 9 -13 132 3 139
10 5 10 7 0 12 -15 7 -18 74 -3 74 6 0 10 18 10 40 l0 40 54 0 c30 0 56 5 58
11 2 7 26 8 73 4 l70 -7 -2 -127 c-5 -263 -7 -254 63 -244 l29 5 1 203 c1 112
4 208 8 213 3 6 -1 18 -10 26 -17 17 -109 23 -118 7 -5 -8 -26 -7 -63 4 -9 3
-9 14 3 47 l14 43 115 0 c127 -1 134 3 120 64 -7 32 -24 44 -44 31 -7 -4 -41
-5 -76 -3 -40 4 -65 2 -69 -6 -9 -14 -53 -15 -61 -1 -4 7 -53 10 -126 9 -66
-1 -122 1 -125 4 -16 15 -44 -15 -44 -46 0 -55 7 -58 113 -53 95 4 104 1 97
-29 -3 -10 -8 -42 -9 -60 -1 -6 -36 -11 -80 -13 -75 -2 -80 -1 -111 28 -18 16
-35 30 -39 30 -4 0 -22 -20 -40 -45 -18 -25 -33 -45 -34 -45 -7 0 -3 240 4
240 5 0 9 6 9 14 0 19 -59 31 -102 19z m219 -459 l2 -205 -23 18 c-13 10 -46
36 -75 58 l-52 40 7 65 c3 36 7 75 8 87 1 19 110 143 126 143 3 0 6 -93 7
-206z"/>
<path d="M78 772 c-1 -9 -2 -46 -3 -82 -1 -36 -5 -88 -9 -116 -7 -46 -5 -52
12 -56 44 -12 68 2 80 45 7 23 12 56 12 72 -1 42 6 97 15 117 8 21 -17 35 -67
36 -29 1 -38 -3 -40 -16z"/>
<path d="M634 642 c-18 -12 -24 -41 -13 -65 8 -17 7 -41 -1 -83 -6 -32 -13
-76 -16 -98 -8 -84 -78 -150 -197 -188 -87 -27 -87 -27 -62 -41 11 -6 32 -24
47 -40 l27 -28 72 37 c138 73 201 162 205 294 1 30 5 71 8 90 4 19 8 44 9 55
1 11 6 26 11 34 18 28 -57 55 -90 33z"/>
<path d="M707 302 l-28 -29 76 -57 c41 -32 87 -72 101 -89 l25 -30 40 39 c21
21 39 41 39 44 -2 14 -195 150 -214 150 -7 0 -24 -13 -39 -28z"/>
</g>
</svg>
