<?xml version="1.0" standalone="no"?>
<!DOCTYPE svg PUBLIC "-//W3C//DTD SVG 20010904//EN"
 "http://www.w3.org/TR/2001/REC-SVG-20010904/DTD/svg10.dtd">
<svg version="1.0" xmlns="http://www.w3.org/2000/svg"
 width="101.000000pt" height="101.000000pt" viewBox="0 0 101.000000 101.000000"
 preserveAspectRatio="xMidYMid meet">
<metadata>
Created by potrace 1.16, written by Peter Selinger 2001-2019
</metadata>
<g transform="translate(0.000000,101.000000) scale(0.100000,-0.100000)"
fill="#000000" stroke="none">
<path d="M95 960 c-13 -58 -2 -68 75 -68 39 0 73 4 76 9 5 9 144 11 182 2 19
-4 22 -12 22 -49 0 -26 5 -44 11 -44 12 0 7 -90 -6 -110 -3 -6 -35 -10 -71
-10 l-64 0 5 58 c3 31 8 69 10 85 3 15 1 27 -3 28 -4 1 -26 3 -49 5 -41 4 -42
3 -49 -31 -3 -18 -4 -56 -3 -83 l4 -48 -40 7 c-99 20 -142 2 -131 -54 3 -17 8
-33 11 -35 10 -10 94 -13 111 -4 18 10 19 5 19 -123 -1 -124 1 -134 19 -139
10 -3 27 -1 35 4 16 8 142 7 250 -4 30 -2 63 0 73 5 12 6 56 7 114 3 77 -5 94
-10 90 -21 -3 -8 -1 -23 5 -34 8 -16 6 -30 -10 -65 -23 -49 -61 -71 -96 -56
-11 4 -28 6 -37 4 -16 -3 -15 -7 7 -40 14 -20 25 -42 25 -48 0 -28 77 -21 142
12 30 16 51 67 54 134 2 25 6 68 10 95 7 53 8 94 3 100 -2 2 -44 -1 -93 -7
-63 -7 -99 -7 -120 0 -17 6 -53 8 -81 5 -46 -4 -222 -6 -270 -2 -15 1 -20 9
-20 28 0 24 3 26 50 28 55 3 135 4 163 4 9 -1 51 1 93 4 51 3 89 1 115 -9 42
-14 104 -10 116 8 4 6 8 23 8 38 0 38 -29 52 -67 33 -33 -17 -180 -19 -201 -2
-9 7 -16 7 -24 -1 -15 -15 -75 -16 -83 -2 -4 6 -41 9 -89 8 -83 -3 -83 -3 -73
20 6 12 17 22 26 22 9 1 145 1 303 2 265 1 288 3 293 19 3 9 3 28 0 42 -6 21
-14 26 -55 31 -26 4 -60 2 -75 -4 -17 -7 -71 -8 -144 -4 l-116 7 0 26 0 26
142 -2 c135 -2 142 -1 148 18 4 11 4 31 1 44 -6 22 -7 23 -148 21 l-143 -1 0
26 c0 20 4 25 18 21 9 -2 24 1 32 8 15 12 193 9 261 -6 27 -5 33 -3 39 15 3
12 4 34 0 49 l-6 27 -114 2 c-70 2 -115 -1 -115 -7 0 -6 -11 -10 -25 -10 -14
0 -25 5 -25 10 0 6 -30 10 -70 10 -40 0 -70 -4 -70 -10 0 -6 -33 -10 -80 -10
-47 0 -80 4 -80 10 0 6 -18 10 -40 10 -22 0 -40 -4 -40 -10 0 -5 -25 -10 -55
-10 -30 0 -55 5 -55 10 0 23 -19 8 -25 -20z"/>
<path d="M613 343 c-13 -2 -23 -5 -23 -6 0 -1 7 -24 15 -50 8 -27 14 -52 14
-55 -4 -28 3 -33 42 -28 22 2 43 7 47 10 3 4 -1 34 -9 69 -15 66 -25 73 -86
60z"/>
<path d="M140 303 c-7 -21 -22 -57 -33 -81 -11 -23 -18 -45 -15 -47 2 -2 19
-7 37 -10 18 -3 38 -7 44 -8 14 -2 71 154 60 164 -5 4 -24 10 -44 14 -36 7
-37 6 -49 -32z"/>
<path d="M462 329 c-17 -7 -22 -14 -17 -29 3 -11 8 -38 10 -61 4 -47 5 -48 31
-50 59 -6 66 -1 61 39 -8 62 -19 102 -27 102 -5 0 -14 2 -22 4 -7 3 -23 1 -36
-5z"/>
<path d="M309 323 c-22 -5 -31 -41 -18 -66 6 -10 8 -34 5 -52 -7 -37 7 -46 62
-37 31 4 32 6 28 46 -6 60 -17 106 -26 106 -5 0 -14 2 -22 4 -7 2 -20 2 -29
-1z"/>
</g>
</svg>
