<?xml version="1.0" standalone="no"?>
<!DOCTYPE svg PUBLIC "-//W3C//DTD SVG 20010904//EN"
 "http://www.w3.org/TR/2001/REC-SVG-20010904/DTD/svg10.dtd">
<svg version="1.0" xmlns="http://www.w3.org/2000/svg"
 width="101.000000pt" height="101.000000pt" viewBox="0 0 101.000000 101.000000"
 preserveAspectRatio="xMidYMid meet">
<metadata>
Created by potrace 1.16, written by Peter Selinger 2001-2019
</metadata>
<g transform="translate(0.000000,101.000000) scale(0.100000,-0.100000)"
fill="#000000" stroke="none">
<path d="M212 787 c-4 -263 -7 -319 -17 -371 -12 -66 -51 -143 -99 -194 -50
-53 -54 -62 -31 -62 9 0 33 -9 54 -20 l38 -19 29 52 c29 52 96 199 94 205 -1
2 0 6 3 8 2 2 19 -26 37 -63 19 -38 35 -70 36 -72 2 -2 20 7 40 20 32 20 37
20 31 5 -4 -10 -2 -27 4 -38 9 -16 8 -35 -1 -75 -6 -30 -9 -57 -6 -61 4 -3 23
-5 43 -5 38 1 56 18 47 44 -3 12 2 17 18 18 13 0 55 3 93 6 91 7 135 -1 133
-23 -4 -50 13 -65 65 -55 24 5 24 6 31 153 4 81 4 160 0 174 -8 31 -45 44 -86
28 -39 -15 -37 -2 21 93 l49 80 -26 3 c-153 14 -158 15 -129 26 34 13 34 21
-3 79 -34 54 -50 63 -80 47 -12 -6 -24 -10 -26 -7 -6 5 56 107 65 107 3 -1 17
-24 30 -53 28 -59 145 -181 205 -212 37 -19 38 -19 49 0 5 10 21 29 35 42 14
13 23 25 21 26 -2 2 -34 18 -71 35 -37 18 -88 53 -113 77 -51 50 -111 163 -95
179 21 21 2 33 -71 42 -36 5 -37 4 -60 -53 -50 -124 -135 -238 -234 -312 -20
-15 -26 -24 -17 -28 7 -3 25 -15 40 -28 l26 -23 33 25 c22 17 31 20 27 10 -10
-27 14 -57 46 -57 17 0 30 5 30 10 0 11 135 13 163 2 16 -7 15 -10 -8 -45 -25
-36 -25 -63 -1 -54 6 2 20 1 31 -4 29 -11 -57 -13 -235 -6 l-45 2 0 -58 c0
-31 0 -57 -1 -57 -1 0 -22 31 -48 70 -25 38 -50 70 -54 70 -4 0 -14 -6 -21
-12 -10 -11 -11 10 -7 102 l5 115 63 57 c35 32 71 60 81 63 27 10 21 22 -24
52 l-42 28 -16 -25 c-9 -13 -27 -37 -41 -54 l-25 -29 -6 24 c-11 38 -10 107 1
114 6 4 10 18 9 33 -1 15 1 34 5 43 5 13 0 18 -25 23 -68 13 -64 29 -67 -217z
m378 -84 c47 -73 43 -78 -47 -76 -43 0 -79 2 -81 2 -2 1 17 25 42 53 25 29 46
56 46 60 0 17 12 6 40 -39z m73 -345 c4 -10 8 -10 15 1 7 9 20 12 43 7 l34 -6
0 -65 c0 -64 0 -65 -30 -70 -16 -3 -61 -3 -100 0 -38 3 -80 6 -91 6 -20 1 -22
7 -20 60 l1 59 38 0 c20 0 37 5 37 10 0 15 67 12 73 -2z"/>
<path d="M85 810 c-3 -5 -5 -40 -5 -77 2 -79 -7 -144 -24 -201 -5 -14 2 -17
44 -17 28 0 51 2 51 5 12 48 29 185 24 198 -3 7 2 29 10 47 13 32 12 36 -3 44
-23 12 -90 12 -97 1z"/>
</g>
</svg>
