<?xml version="1.0" standalone="no"?>
<!DOCTYPE svg PUBLIC "-//W3C//DTD SVG 20010904//EN"
 "http://www.w3.org/TR/2001/REC-SVG-20010904/DTD/svg10.dtd">
<svg version="1.0" xmlns="http://www.w3.org/2000/svg"
 width="101.000000pt" height="102.000000pt" viewBox="0 0 101.000000 102.000000"
 preserveAspectRatio="xMidYMid meet">
<metadata>
Created by potrace 1.16, written by Peter Selinger 2001-2019
</metadata>
<g transform="translate(0.000000,102.000000) scale(0.100000,-0.100000)"
fill="#000000" stroke="none">
<path d="M527 948 c-20 -40 -56 -95 -79 -122 -39 -44 -46 -48 -65 -37 -30 15
-28 16 -63 -34 -17 -25 -35 -43 -41 -40 -12 8 -12 92 1 100 5 3 8 29 8 58 -1
29 4 63 11 75 7 13 11 25 9 26 -26 16 -80 25 -100 17 -23 -9 -25 -14 -23 -68
8 -209 4 -411 -7 -429 -5 -7 -7 -23 -7 -35 4 -76 -42 -190 -102 -252 -27 -28
-49 -52 -49 -54 0 -2 7 -3 15 -3 9 0 33 -9 54 -20 30 -15 41 -17 49 -7 17 21
74 140 91 189 9 26 21 49 26 50 6 2 27 -23 49 -55 l38 -58 37 27 c20 15 38 29
40 30 2 2 -8 19 -22 38 l-26 34 22 1 c73 6 176 5 182 -1 19 -19 -71 -121 -136
-153 -25 -13 -68 -29 -95 -36 -27 -7 -50 -13 -52 -15 -2 -1 15 -21 37 -44 46
-48 50 -48 148 6 70 39 144 108 163 153 7 17 15 31 19 31 3 0 14 -20 24 -44
22 -54 99 -132 162 -166 46 -25 48 -25 59 -5 6 11 24 32 39 47 26 25 27 28 10
34 -98 32 -196 103 -228 163 -17 34 -25 32 127 34 84 1 97 3 101 19 12 43 -7
64 -54 60 -13 -1 -18 12 -23 55 -4 34 -3 60 4 67 12 12 13 95 2 114 -5 7 -36
13 -79 15 -44 1 -69 6 -65 12 3 6 30 48 60 94 58 91 57 108 -6 85 -43 -15
-102 -18 -102 -5 0 6 -19 11 -42 13 l-43 3 34 33 33 32 -33 14 c-77 31 -73 33
-112 -46z m173 -126 c0 -1 -16 -26 -36 -56 -33 -51 -38 -54 -87 -60 -33 -5
-53 -4 -55 3 -2 6 -23 11 -47 11 -61 0 -67 -15 -61 -149 5 -100 4 -109 -12
-105 -29 7 -46 -12 -45 -51 l1 -37 -41 40 c-41 41 -42 42 -39 104 1 35 3 71 3
80 0 17 122 128 140 128 5 0 9 7 9 16 0 15 2 15 25 0 13 -9 26 -16 29 -16 2 0
20 21 39 48 l35 47 71 0 c39 0 71 -1 71 -3z m-97 -234 c-1 -29 -4 -61 -8 -71
-4 -9 -5 -26 -2 -37 4 -17 0 -19 -40 -18 -39 2 -44 5 -39 23 3 11 6 48 6 82 0
56 2 62 23 66 61 12 62 11 60 -45z m182 -34 c8 -101 2 -115 -46 -97 -17 7 -38
9 -46 6 -13 -5 -15 -2 -7 23 4 16 8 54 9 84 0 58 3 61 71 69 7 1 14 -31 19
-85z"/>
<path d="M88 773 c-24 -6 -29 -32 -26 -128 2 -44 0 -95 -5 -112 -6 -29 -5 -33
19 -39 14 -4 36 -2 48 4 20 9 22 15 18 71 -3 47 -1 64 12 77 11 11 16 30 15
58 -2 23 0 47 4 53 11 17 -42 27 -85 16z"/>
</g>
</svg>
