<?xml version="1.0" standalone="no"?>
<!DOCTYPE svg PUBLIC "-//W3C//DTD SVG 20010904//EN"
 "http://www.w3.org/TR/2001/REC-SVG-20010904/DTD/svg10.dtd">
<svg version="1.0" xmlns="http://www.w3.org/2000/svg"
 width="101.000000pt" height="101.000000pt" viewBox="0 0 101.000000 101.000000"
 preserveAspectRatio="xMidYMid meet">
<metadata>
Created by potrace 1.16, written by Peter Selinger 2001-2019
</metadata>
<g transform="translate(0.000000,101.000000) scale(0.100000,-0.100000)"
fill="#000000" stroke="none">
<path d="M208 951 c3 -39 0 -61 -7 -61 -6 0 -11 -18 -11 -40 0 -22 5 -40 10
-40 6 0 10 -33 10 -80 0 -48 -4 -80 -10 -80 -6 0 -10 -23 -10 -52 0 -166 -31
-283 -101 -375 -22 -30 -39 -56 -37 -57 1 -1 20 -12 42 -25 36 -21 39 -21 52
-4 30 41 69 121 90 187 l22 70 31 -49 c17 -27 31 -54 31 -59 0 -6 4 -17 9 -25
7 -10 16 -9 50 10 22 13 41 28 41 32 0 6 -86 141 -106 165 -1 2 -15 -5 -30
-15 -16 -10 -25 -13 -21 -7 7 11 21 131 20 171 -1 22 71 98 114 121 18 10 22
8 27 -13 7 -27 42 -41 77 -32 18 5 20 2 14 -21 -4 -15 -9 -38 -12 -52 -2 -13
-6 -26 -8 -29 -4 -3 -77 -4 -123 -1 -30 3 -35 -4 -35 -40 0 -36 5 -42 35 -41
13 1 68 2 123 2 55 0 129 0 165 0 36 0 115 0 176 -1 105 -1 112 0 117 19 11
42 -2 57 -46 58 -88 4 -82 -3 -85 86 -1 44 2 83 7 86 5 3 -29 4 -75 2 -57 -2
-84 1 -84 8 0 6 -14 11 -31 11 -26 0 -30 3 -24 18 4 9 10 25 12 35 4 13 16 17
52 17 128 0 224 9 233 22 10 16 1 60 -15 71 -7 4 -21 4 -32 0 -23 -8 -422 -6
-435 2 -17 10 -50 -15 -50 -38 0 -44 15 -52 87 -50 l68 2 -2 -32 c-1 -17 -2
-38 -2 -44 -1 -9 -16 -11 -51 -8 -28 2 -50 0 -50 -6 0 -5 -19 4 -41 21 l-41
30 -29 -40 c-16 -22 -31 -40 -34 -40 -7 0 3 228 10 241 10 15 1 21 -47 26
l-43 5 3 -61z m535 -270 c2 -9 0 -26 -5 -38 -4 -13 -5 -29 -2 -37 7 -18 -77
-32 -105 -17 -11 6 -26 8 -34 5 -16 -6 -16 -2 -1 71 6 30 6 30 74 31 55 0 70
-3 73 -15z"/>
<path d="M98 798 c0 -7 -2 -17 -2 -23 -1 -5 -5 -15 -9 -22 -4 -6 -7 -24 -7
-40 1 -42 -8 -96 -25 -144 -8 -23 -13 -44 -11 -46 2 -2 22 -6 45 -8 45 -4 53
3 58 49 2 17 5 42 8 56 3 14 7 39 9 55 7 45 14 78 21 103 4 12 6 22 4 23 -77
10 -89 10 -91 -3z"/>
<path d="M426 413 c13 -107 14 -211 3 -256 -6 -26 -8 -51 -5 -55 8 -7 75 -6
83 2 4 3 6 19 6 35 0 22 5 29 21 30 12 0 55 3 96 6 41 3 89 3 106 0 27 -5 30
-9 31 -41 1 -19 4 -38 7 -42 8 -7 75 -6 83 2 3 3 0 33 -6 68 -11 59 -10 155 3
255 l5 43 -62 -8 c-74 -8 -251 -7 -325 2 l-52 7 6 -48z m315 -29 c19 -3 27
-12 28 -27 5 -66 4 -107 -3 -114 -4 -4 -53 -7 -109 -6 -154 3 -146 1 -153 38
-3 18 -1 42 5 53 6 11 8 28 4 37 -5 14 -2 16 13 11 10 -3 25 -2 33 3 15 10
143 13 182 5z"/>
</g>
</svg>
