<?xml version="1.0" standalone="no"?>
<!DOCTYPE svg PUBLIC "-//W3C//DTD SVG 20010904//EN"
 "http://www.w3.org/TR/2001/REC-SVG-20010904/DTD/svg10.dtd">
<svg version="1.0" xmlns="http://www.w3.org/2000/svg"
 width="101.000000pt" height="102.000000pt" viewBox="0 0 101.000000 102.000000"
 preserveAspectRatio="xMidYMid meet">
<metadata>
Created by potrace 1.16, written by Peter Selinger 2001-2019
</metadata>
<g transform="translate(0.000000,102.000000) scale(0.100000,-0.100000)"
fill="#000000" stroke="none">
<path d="M278 1013 c-19 -5 -33 -57 -26 -101 l4 -28 -88 3 c-87 3 -88 3 -94
-23 -4 -14 -1 -37 5 -51 11 -23 15 -25 71 -21 33 1 60 1 60 -2 0 -19 -79 -117
-120 -148 -27 -20 -49 -40 -49 -43 -1 -3 18 -18 41 -33 l42 -28 24 29 c13 15
44 57 69 93 25 36 42 56 39 45 -4 -10 -4 -54 0 -96 7 -83 14 -92 67 -82 29 6
40 24 29 52 -4 11 -5 43 -3 71 l3 52 37 -36 37 -36 34 29 34 28 -29 28 c-52
48 -71 58 -94 46 -26 -14 -26 -15 -27 12 -2 22 1 23 56 19 49 -4 60 -1 77 17
20 22 20 22 26 1 6 -23 54 -28 89 -9 20 11 20 11 2 -21 -32 -55 -80 -105 -139
-145 l-56 -39 35 -18 c43 -22 54 -38 27 -38 -12 0 -22 -6 -22 -12 -1 -7 -3
-22 -5 -33 -1 -11 -5 -38 -9 -60 -8 -56 -41 -120 -78 -151 -63 -53 -212 -104
-251 -86 -22 10 -66 6 -66 -5 0 -3 16 -23 35 -44 19 -22 35 -44 35 -49 0 -16
57 -5 147 28 126 46 206 110 240 191 l14 33 20 -40 c38 -77 144 -150 272 -187
99 -29 103 -28 117 5 7 16 23 41 37 56 13 14 23 28 21 29 -2 2 -30 6 -63 10
-33 3 -71 7 -85 9 -137 15 -263 132 -264 245 -1 42 -3 45 -35 53 l-33 9 54 57
c29 31 62 69 73 85 l20 27 0 -67 c0 -38 -3 -73 -7 -78 -16 -25 13 -40 72 -37
24 2 25 5 27 78 0 41 4 78 7 81 6 6 126 -87 126 -98 0 -19 28 -7 59 25 l32 33
-53 43 c-29 23 -68 49 -86 58 -31 15 -33 15 -60 -11 l-27 -26 0 55 c0 52 1 54
26 54 15 0 40 -7 55 -15 31 -16 81 -19 101 -7 16 10 26 63 15 80 -10 14 -78
19 -153 10 l-46 -5 2 31 c1 17 5 42 10 55 9 29 -8 42 -47 34 -17 -3 -28 -1
-28 6 0 6 -7 11 -15 11 -14 0 -15 -11 -10 -69 5 -69 5 -70 -17 -64 -50 14
-107 8 -122 -12 -13 -17 -15 -17 -16 -4 0 20 -26 32 -46 21 -8 -4 -30 -6 -49
-4 -31 4 -35 7 -35 34 0 16 5 39 11 50 19 35 -25 57 -83 41z"/>
<path d="M217 450 c-10 -27 -29 -63 -44 -80 -28 -34 -25 -40 25 -60 25 -10 35
-10 46 0 13 10 86 144 86 156 0 7 -66 34 -82 34 -7 0 -21 -22 -31 -50z"/>
<path d="M748 462 c-10 -21 -34 -57 -54 -81 -20 -23 -35 -43 -33 -45 2 -1 21
-12 41 -24 l38 -21 24 32 c55 71 96 127 96 132 0 6 -76 45 -87 45 -4 0 -16
-18 -25 -38z"/>
</g>
</svg>
