<?xml version="1.0" standalone="no"?>
<!DOCTYPE svg PUBLIC "-//W3C//DTD SVG 20010904//EN"
 "http://www.w3.org/TR/2001/REC-SVG-20010904/DTD/svg10.dtd">
<svg version="1.0" xmlns="http://www.w3.org/2000/svg"
 width="101.000000pt" height="101.000000pt" viewBox="0 0 101.000000 101.000000"
 preserveAspectRatio="xMidYMid meet">
<metadata>
Created by potrace 1.16, written by Peter Selinger 2001-2019
</metadata>
<g transform="translate(0.000000,101.000000) scale(0.100000,-0.100000)"
fill="#000000" stroke="none">
<path d="M256 955 c-28 -82 -87 -182 -155 -263 l-62 -73 27 -34 c14 -19 30
-35 34 -35 5 0 25 23 45 50 21 28 40 49 43 46 3 -3 4 -35 3 -70 -1 -35 3 -67
9 -71 13 -8 13 -52 1 -60 -6 -3 -9 -34 -9 -70 1 -70 7 -76 66 -67 22 3 32 10
32 22 0 20 2 21 145 21 55 0 129 0 165 0 36 0 120 0 186 -1 115 -2 122 -1 127
19 13 53 -23 85 -65 57 -25 -16 -135 -20 -153 -6 -5 5 -32 7 -60 7 l-50 -2 0
37 c0 32 3 37 19 32 10 -4 70 -3 132 1 99 6 114 9 119 26 4 10 3 28 0 39 -5
16 -14 20 -43 18 -20 -1 -83 -1 -139 0 l-103 2 0 33 0 32 84 0 c47 0 88 -4 92
-8 4 -4 24 -7 45 -7 48 0 73 23 64 59 -9 35 -24 43 -65 35 -32 -6 -191 -7
-195 -2 -1 2 -5 17 -8 34 -5 28 -4 31 14 27 10 -3 26 0 33 7 15 11 163 8 233
-6 25 -5 32 -2 37 14 4 11 4 32 0 46 -5 21 -9 24 -24 16 -24 -13 -100 -13
-100 0 0 6 -18 10 -40 10 -22 0 -40 -4 -40 -10 0 -5 -25 -10 -55 -10 -61 0
-70 11 -25 30 17 7 30 14 30 17 0 8 -58 89 -73 102 -13 10 -23 8 -57 -14 l-41
-26 36 -45 c21 -25 34 -48 30 -52 -10 -10 -215 -3 -215 8 0 3 14 22 31 43 17
21 30 39 28 41 -18 13 -78 45 -94 50 -18 5 -23 -2 -39 -49z m229 -163 c6 -4
10 -24 10 -45 l0 -38 -105 3 -105 3 3 33 c4 33 13 37 69 33 11 -1 24 3 28 8 7
12 85 15 100 3z m5 -166 c0 -13 2 -31 5 -39 5 -11 -13 -14 -103 -13 l-110 1 2
35 1 35 103 3 102 3 0 -25z m-44 -135 c40 -1 42 -2 46 -36 4 -33 2 -35 -30
-41 -19 -4 -51 -1 -72 6 -22 7 -54 10 -72 7 -32 -5 -33 -4 -33 32 l-1 36 61
-2 c33 -1 79 -2 101 -2z"/>
<path d="M753 304 c-39 -17 -40 -21 -10 -61 12 -17 33 -54 46 -81 l24 -51 51
21 c28 11 52 21 54 23 5 5 -40 78 -75 123 -37 46 -42 47 -90 26z"/>
<path d="M141 264 c-14 -25 -38 -62 -53 -81 -15 -20 -28 -37 -28 -38 0 -2 21
-13 46 -26 52 -24 44 -29 94 57 16 28 39 59 50 69 28 25 26 30 -21 44 -23 7
-46 14 -53 17 -6 2 -22 -17 -35 -42z"/>
<path d="M552 299 c-20 -8 -23 -13 -16 -41 4 -18 9 -44 11 -58 2 -14 6 -34 8
-45 2 -11 4 -23 4 -27 2 -16 111 5 111 21 0 12 -42 136 -49 142 -12 13 -47 17
-69 8z"/>
<path d="M337 292 c-17 -4 -18 -8 -3 -122 2 -14 4 -33 5 -42 1 -15 9 -17 48
-13 60 5 67 13 54 61 -33 131 -30 123 -59 121 -15 0 -35 -3 -45 -5z"/>
</g>
</svg>
