<?xml version="1.0" standalone="no"?>
<!DOCTYPE svg PUBLIC "-//W3C//DTD SVG 20010904//EN"
 "http://www.w3.org/TR/2001/REC-SVG-20010904/DTD/svg10.dtd">
<svg version="1.0" xmlns="http://www.w3.org/2000/svg"
 width="101.000000pt" height="101.000000pt" viewBox="0 0 101.000000 101.000000"
 preserveAspectRatio="xMidYMid meet">
<metadata>
Created by potrace 1.16, written by Peter Selinger 2001-2019
</metadata>
<g transform="translate(0.000000,101.000000) scale(0.100000,-0.100000)"
fill="#000000" stroke="none">
<path d="M207 916 c-46 -90 -111 -172 -166 -209 l-25 -16 39 -38 38 -37 36 42
c20 23 40 42 44 42 9 0 8 -105 -2 -192 -8 -74 -8 -74 52 -69 15 1 27 0 27 -4
0 -13 -34 -72 -62 -108 -18 -23 -25 -37 -16 -37 7 0 26 -7 42 -15 35 -18 46
-11 84 54 14 25 32 50 39 54 22 14 14 27 -24 44 -50 20 -55 29 -48 85 3 25 1
49 -4 52 -13 8 -13 154 0 162 6 3 9 30 8 59 -2 41 3 62 24 97 14 24 33 50 41
58 22 17 20 25 -8 43 -60 40 -67 36 -119 -67z"/>
<path d="M388 973 c-17 -4 -24 -23 -18 -48 6 -28 5 -113 -2 -132 -16 -48 -4
-54 101 -49 l96 5 0 -29 0 -28 -80 5 c-44 2 -103 7 -132 10 -45 4 -53 2 -63
-17 -6 -12 -9 -32 -6 -45 7 -29 49 -39 136 -33 33 2 60 3 60 2 0 -11 -78 -53
-136 -74 l-72 -25 40 -34 41 -35 41 24 c23 12 69 45 102 71 l61 49 6 -40 c8
-59 -1 -83 -27 -75 -11 3 -35 8 -53 11 -28 4 -32 1 -36 -23 -3 -16 -5 -35 -5
-43 1 -26 -10 -67 -25 -96 -44 -85 -154 -128 -320 -126 -58 1 -58 1 -43 -21 9
-12 26 -37 39 -55 23 -34 26 -34 122 -17 39 6 132 45 178 74 51 33 107 103
107 135 1 18 3 16 17 -9 39 -76 134 -146 248 -183 89 -29 115 -34 115 -21 0 5
14 31 31 55 17 25 29 47 27 49 -2 2 -26 6 -53 9 -119 13 -138 17 -185 37 -48
21 -138 106 -141 133 -6 52 -3 61 16 62 11 1 34 2 51 3 32 1 32 1 30 55 0 30
2 58 6 62 4 4 47 -19 95 -52 49 -32 93 -59 99 -59 15 0 78 55 70 62 -3 4 -40
25 -82 48 l-76 42 83 6 c89 7 101 15 97 61 l-3 29 -146 1 c-140 1 -145 2 -141
21 3 18 11 20 97 19 99 0 115 7 96 44 -5 9 -6 49 -2 89 4 39 5 75 4 80 -3 9
-48 9 -199 -2 -60 -4 -94 -3 -98 4 -4 5 -30 10 -59 10 -29 0 -61 2 -72 4 -11
3 -28 3 -37 0z m367 -115 l0 -33 -77 4 c-53 2 -78 -1 -78 -8 0 -6 -11 -11 -25
-11 -14 0 -25 5 -25 10 0 6 -18 10 -40 10 -28 0 -40 4 -40 14 0 8 -2 20 -5 28
-4 10 25 14 142 16 l148 2 0 -32z m-75 -247 c0 -17 -18 -21 -24 -6 -3 9 0 15
9 15 8 0 15 -4 15 -9z"/>
<path d="M739 419 c-6 -12 -29 -41 -51 -65 -22 -24 -37 -47 -35 -51 3 -4 22
-17 42 -27 l36 -20 32 40 c18 21 45 51 60 65 31 28 29 33 -30 63 -40 20 -40
20 -54 -5z"/>
</g>
</svg>
