<?xml version="1.0" standalone="no"?>
<!DOCTYPE svg PUBLIC "-//W3C//DTD SVG 20010904//EN"
 "http://www.w3.org/TR/2001/REC-SVG-20010904/DTD/svg10.dtd">
<svg version="1.0" xmlns="http://www.w3.org/2000/svg"
 width="101.000000pt" height="101.000000pt" viewBox="0 0 101.000000 101.000000"
 preserveAspectRatio="xMidYMid meet">
<metadata>
Created by potrace 1.16, written by Peter Selinger 2001-2019
</metadata>
<g transform="translate(0.000000,101.000000) scale(0.100000,-0.100000)"
fill="#000000" stroke="none">
<path d="M206 999 c3 -6 3 -53 -1 -106 -6 -82 -9 -94 -23 -87 -38 15 -60 15
-76 -1 -9 -10 -15 -24 -12 -31 3 -7 1 -16 -5 -20 -6 -3 -9 -20 -8 -38 1 -17
-2 -39 -6 -48 -4 -10 -5 -23 -2 -30 2 -7 -2 -35 -10 -61 -8 -27 -12 -51 -10
-54 3 -2 23 -6 45 -8 43 -4 52 5 59 60 1 11 5 34 8 50 3 17 7 45 9 63 5 39 16
55 16 23 0 -12 5 -31 11 -42 7 -14 7 -29 0 -49 -7 -20 -6 -38 2 -60 9 -23 9
-35 0 -50 -7 -10 -15 -34 -18 -52 -15 -91 -56 -175 -120 -246 -26 -29 -43 -52
-37 -52 5 0 26 -12 47 -26 21 -14 41 -22 46 -17 20 20 111 181 121 215 6 21
14 38 18 38 3 0 16 -21 28 -46 21 -43 24 -45 41 -30 10 9 20 16 24 16 6 0 0
-67 -7 -79 -8 -12 9 -30 29 -32 57 -6 63 -1 60 44 l-3 43 45 2 c34 1 44 -2 40
-12 -8 -21 8 -38 38 -39 26 -2 26 -3 -23 -48 l-50 -46 43 -31 44 -31 35 39
c19 22 47 57 60 79 28 43 68 151 71 191 1 14 3 27 4 30 0 3 21 7 45 8 39 1 44
-1 45 -21 0 -12 3 -52 6 -90 6 -91 -5 -119 -48 -116 -67 4 -69 3 -52 -31 9
-17 14 -34 11 -38 -3 -4 -1 -14 4 -22 7 -11 18 -11 65 -1 83 19 91 30 98 147
3 55 4 119 1 144 -5 47 -5 107 -1 378 2 136 -1 164 -13 172 -18 12 -221 12
-239 0 -8 -4 -13 -21 -13 -36 1 -16 1 -57 1 -91 0 -33 5 -64 10 -68 13 -7 13
-153 1 -160 -5 -3 -9 -38 -9 -78 0 -114 -8 -172 -29 -214 l-20 -38 -6 75 c-6
69 -4 131 7 218 4 33 -4 38 -53 34 -12 -1 -15 12 -15 63 0 61 1 64 23 58 12
-3 33 -2 46 1 20 5 23 12 22 43 -1 42 -12 56 -34 44 -8 -4 -25 -6 -39 -3 -24
5 -24 5 -18 81 4 42 9 84 11 93 7 23 -31 41 -71 34 -30 -6 -33 -9 -33 -46 0
-22 3 -42 9 -45 10 -7 12 -68 3 -102 -5 -19 -11 -22 -33 -17 -14 3 -39 15 -54
26 -16 11 -30 18 -32 16 -1 -1 -13 -23 -25 -47 -16 -33 -24 -41 -31 -30 -12
19 -11 96 1 104 6 3 9 29 7 56 -1 28 1 53 5 55 4 3 8 12 8 20 0 10 -13 14 -51
14 -33 0 -48 -4 -43 -11z m621 -202 l3 -72 -46 4 -46 3 6 37 c3 20 6 48 6 63
0 24 4 27 38 31 20 2 37 4 37 5 0 1 1 -31 2 -71z m-403 -85 c20 4 21 0 21 -59
l0 -64 -30 2 c-62 4 -65 2 -61 -40 2 -21 6 -43 10 -49 3 -6 3 -36 0 -66 l-7
-56 -33 37 c-42 48 -60 107 -45 147 5 16 8 33 5 38 -3 4 14 35 37 68 36 52 44
58 61 49 11 -6 30 -9 42 -7z m401 -80 c-3 -7 0 -22 6 -33 6 -12 8 -37 4 -59
-7 -39 -7 -39 -50 -38 -42 2 -44 4 -50 39 -4 21 -2 47 4 58 6 11 9 26 6 33 -4
10 7 13 40 13 33 0 44 -3 40 -13z m-299 -127 c0 -11 3 -31 7 -45 5 -14 4 -43
-1 -65 -7 -35 -11 -40 -33 -37 -13 2 -34 3 -46 4 -17 0 -22 8 -28 44 -3 24 -2
52 4 63 6 11 8 27 4 36 -5 14 -2 16 13 11 10 -3 26 -1 34 4 22 15 45 7 46 -15z"/>
</g>
</svg>
