<?xml version="1.0" standalone="no"?>
<!DOCTYPE svg PUBLIC "-//W3C//DTD SVG 20010904//EN"
 "http://www.w3.org/TR/2001/REC-SVG-20010904/DTD/svg10.dtd">
<svg version="1.0" xmlns="http://www.w3.org/2000/svg"
 width="101.000000pt" height="101.000000pt" viewBox="0 0 101.000000 101.000000"
 preserveAspectRatio="xMidYMid meet">
<metadata>
Created by potrace 1.16, written by Peter Selinger 2001-2019
</metadata>
<g transform="translate(0.000000,101.000000) scale(0.100000,-0.100000)"
fill="#000000" stroke="none">
<path d="M166 985 c-4 -14 -4 -30 -1 -34 10 -17 14 -361 4 -367 -6 -3 -9 -31
-8 -62 3 -112 -26 -197 -100 -290 -24 -30 -41 -55 -39 -56 31 -23 80 -46 88
-41 15 9 73 114 99 178 l24 58 24 -36 c14 -20 31 -52 39 -71 8 -19 18 -34 22
-34 4 0 23 13 42 29 l34 28 -25 39 c-14 22 -46 63 -71 92 -38 44 -44 57 -40
85 2 17 5 63 7 101 l2 68 52 40 c40 31 52 36 49 21 -3 -20 27 -29 66 -19 19 5
22 12 21 59 l0 53 118 -3 c65 -2 127 1 137 7 10 6 44 7 78 4 51 -6 59 -9 55
-25 -3 -10 -3 -29 0 -41 5 -20 13 -23 51 -23 43 0 44 1 50 35 8 48 7 103 -2
117 -5 8 -48 13 -124 15 -64 2 -114 6 -112 9 2 4 -3 20 -11 35 -8 16 -15 35
-15 42 0 15 -27 16 -69 1 -35 -12 -36 -14 -16 -49 8 -14 14 -28 15 -31 0 -3
-44 -5 -97 -3 -54 2 -111 1 -126 -2 -28 -6 -29 -6 -25 -74 l3 -69 -26 25 -26
25 -24 -31 -24 -32 2 79 c2 80 4 91 17 132 10 30 -2 37 -63 40 -45 1 -49 -1
-55 -24z"/>
<path d="M70 783 c-8 -3 -18 -10 -21 -16 -11 -16 -9 -116 1 -122 15 -9 12 -48
-6 -90 -17 -42 -10 -55 33 -55 49 0 51 4 46 111 -4 71 -3 99 6 99 19 0 13 58
-8 70 -21 11 -28 11 -51 3z"/>
<path d="M481 729 c-30 -33 -71 -70 -93 -82 -21 -12 -38 -24 -37 -27 0 -3 16
-18 35 -34 35 -29 35 -29 59 -10 13 10 57 46 99 79 41 33 75 65 75 72 1 11
-66 64 -79 62 -3 0 -29 -27 -59 -60z"/>
<path d="M687 767 l-29 -22 47 -34 c25 -18 71 -58 102 -87 l55 -54 39 27 c21
16 39 31 39 34 0 10 -199 159 -213 159 -7 0 -25 -10 -40 -23z"/>
<path d="M600 692 c0 -5 -18 -37 -41 -71 -48 -72 -128 -133 -206 -158 -29 -9
-53 -19 -53 -23 0 -3 15 -21 34 -39 32 -31 35 -32 62 -18 l29 15 2 -52 c3 -52
4 -127 4 -168 0 -91 7 -101 63 -91 25 5 31 17 28 54 -1 11 7 17 21 18 12 0 51
3 87 6 87 7 130 -1 128 -23 -4 -50 13 -65 65 -55 33 6 39 46 19 120 -12 41
-13 59 -5 72 6 10 10 40 10 68 l-2 50 32 -14 c30 -12 33 -11 44 10 6 12 21 32
32 44 11 13 19 25 16 27 -2 2 -34 13 -71 25 -107 36 -224 131 -196 159 9 9 2
15 -23 26 -56 23 -79 28 -79 18z m87 -170 c27 -27 62 -58 78 -70 23 -16 25
-20 9 -16 -12 3 -24 2 -27 -3 -3 -5 -54 -8 -114 -6 -59 1 -116 3 -126 3 -13 0
4 21 55 70 40 38 74 69 75 70 2 0 24 -22 50 -48z m44 -168 c19 -4 27 -11 27
-27 0 -12 4 -34 7 -49 6 -24 3 -29 -20 -38 -15 -6 -61 -8 -103 -5 -133 8 -127
6 -124 40 1 17 3 40 3 53 1 16 6 21 18 18 9 -3 22 -2 30 3 15 10 121 13 162 5z"/>
</g>
</svg>
