<?xml version="1.0" standalone="no"?>
<!DOCTYPE svg PUBLIC "-//W3C//DTD SVG 20010904//EN"
 "http://www.w3.org/TR/2001/REC-SVG-20010904/DTD/svg10.dtd">
<svg version="1.0" xmlns="http://www.w3.org/2000/svg"
 width="101.000000pt" height="101.000000pt" viewBox="0 0 101.000000 101.000000"
 preserveAspectRatio="xMidYMid meet">
<metadata>
Created by potrace 1.16, written by Peter Selinger 2001-2019
</metadata>
<g transform="translate(0.000000,101.000000) scale(0.100000,-0.100000)"
fill="#000000" stroke="none">
<path d="M198 993 c-9 -2 -19 -12 -22 -21 -8 -31 -5 -86 6 -99 12 -15 4 -227
-11 -266 -7 -19 -7 -35 1 -52 8 -18 8 -28 -1 -39 -7 -8 -14 -32 -16 -53 -12
-110 -50 -202 -116 -277 l-29 -33 50 -26 49 -26 51 102 c27 56 50 110 50 120
0 29 18 19 50 -28 17 -25 34 -45 39 -45 4 0 20 14 37 31 l29 31 -60 57 -61 56
2 60 c2 33 5 78 9 100 4 22 7 50 8 62 1 14 17 33 41 49 39 27 39 23 3 -29 -23
-34 -18 -51 22 -65 30 -10 32 -9 55 31 14 23 34 65 46 92 l21 50 49 0 c47 0
61 -7 41 -20 -6 -3 -10 -13 -10 -23 -2 -55 -3 -57 -26 -29 -26 34 -40 34 -62
1 -17 -27 -17 -27 19 -58 35 -30 35 -32 22 -59 -19 -35 -29 -34 -51 3 -9 17
-20 30 -23 30 -4 0 -19 -13 -34 -29 l-27 -28 37 -32 38 -31 -29 -31 c-17 -17
-43 -37 -58 -45 -35 -19 -32 -29 17 -57 l38 -22 56 60 c62 66 116 158 142 244
15 47 18 51 25 32 6 -19 11 -21 37 -16 30 7 30 7 23 -26 -18 -91 -103 -211
-179 -254 -15 -9 -12 -14 27 -42 l45 -31 39 41 c57 60 82 100 114 181 16 39
29 64 30 56 11 -83 56 -183 104 -230 l35 -34 37 35 c21 18 40 35 42 37 3 1 -6
10 -20 19 -65 46 -121 136 -133 214 -5 35 -4 36 22 32 51 -8 105 -4 114 9 11
17 1 70 -15 80 -6 4 -20 5 -29 2 -10 -3 -44 -6 -76 -7 -57 -2 -58 -1 -56 23 1
14 5 59 8 101 3 41 8 82 11 91 8 21 -10 31 -60 34 l-40 3 3 -60 c3 -38 0 -59
-7 -59 -6 0 -11 -18 -11 -40 0 -22 5 -40 11 -40 6 0 9 -12 7 -27 -2 -18 -8
-27 -17 -25 -8 2 -27 -2 -43 -7 -17 -6 -26 -6 -23 -1 7 11 15 42 20 82 4 26 4
26 -70 33 -42 4 -77 11 -80 15 -3 4 7 24 21 45 14 21 24 38 22 40 -16 14 -72
35 -92 35 -25 0 -36 -19 -34 -60 0 -8 -2 -27 -6 -42 -3 -16 -8 -40 -11 -54 -3
-14 -11 -40 -18 -57 l-13 -31 -19 32 -19 32 -26 -25 -25 -24 3 42 c9 116 11
134 17 153 9 30 -37 50 -87 37z"/>
<path d="M833 910 c-13 -5 -23 -13 -23 -17 0 -6 40 -110 46 -121 3 -5 84 20
84 26 0 2 -12 31 -26 63 -27 60 -37 66 -81 49z"/>
<path d="M69 763 c0 -5 0 -30 1 -56 1 -26 -3 -54 -10 -61 -6 -8 -12 -28 -15
-46 -2 -17 -7 -45 -10 -61 -7 -31 0 -35 55 -30 33 3 42 14 47 53 2 18 6 44 8
58 3 14 8 48 11 76 5 47 4 51 -21 62 -29 13 -65 16 -66 5z"/>
<path d="M787 312 c-10 -2 -16 -9 -13 -15 33 -75 66 -162 66 -173 0 -17 0 -17
56 -3 24 6 44 17 44 23 0 7 -18 49 -40 94 -42 87 -43 88 -113 74z"/>
<path d="M365 300 c-3 -5 -8 -28 -11 -51 -3 -23 -14 -64 -24 -92 -11 -28 -18
-52 -16 -54 2 -2 24 -6 49 -8 l45 -5 12 48 c17 62 18 70 24 118 5 40 4 42 -26
48 -41 8 -46 8 -53 -4z"/>
<path d="M508 293 c-17 -4 -23 -21 -19 -53 0 -8 4 -37 7 -65 2 -27 6 -50 8
-52 4 -4 38 -6 68 -5 25 2 26 4 22 45 -3 23 -6 51 -8 62 -2 11 -4 25 -5 30 -4
29 -39 47 -73 38z"/>
<path d="M648 292 c-21 -4 -21 -3 -8 -38 6 -15 12 -47 15 -72 5 -51 5 -51 31
-53 81 -8 86 1 54 105 -22 70 -25 72 -92 58z"/>
</g>
</svg>
