<?xml version="1.0" standalone="no"?>
<!DOCTYPE svg PUBLIC "-//W3C//DTD SVG 20010904//EN"
 "http://www.w3.org/TR/2001/REC-SVG-20010904/DTD/svg10.dtd">
<svg version="1.0" xmlns="http://www.w3.org/2000/svg"
 width="101.000000pt" height="101.000000pt" viewBox="0 0 101.000000 101.000000"
 preserveAspectRatio="xMidYMid meet">
<metadata>
Created by potrace 1.16, written by Peter Selinger 2001-2019
</metadata>
<g transform="translate(0.000000,101.000000) scale(0.100000,-0.100000)"
fill="#000000" stroke="none">
<path d="M190 1002 c-12 -6 -15 -28 -13 -117 2 -162 2 -182 -1 -275 -8 -210
-41 -320 -122 -409 l-35 -39 47 -26 c37 -21 49 -24 56 -14 38 56 64 109 82
168 13 39 25 72 28 76 4 3 21 -25 38 -63 18 -37 34 -70 36 -72 2 -2 18 6 37
18 19 11 37 21 40 21 10 0 11 -103 2 -146 -8 -36 8 -45 63 -36 31 4 33 6 28
37 -5 29 -3 33 17 34 12 1 49 3 82 6 33 3 92 3 132 -1 l72 -6 -5 -27 c-7 -32
11 -41 64 -33 31 4 31 4 25 51 -4 25 -7 98 -6 161 2 162 2 163 22 155 9 -4 21
-9 26 -11 6 -2 22 18 37 45 l27 49 -47 12 c-55 13 -119 48 -147 81 -18 20 -18
22 -2 16 9 -4 29 -1 43 5 19 9 33 9 61 -1 29 -11 37 -11 44 0 26 42 -6 95 -50
84 -14 -4 -44 -8 -67 -9 l-41 -2 19 31 c10 18 27 40 38 50 11 10 17 22 14 26
-6 10 -75 41 -79 37 -1 -2 -10 -19 -20 -38 -10 -19 -26 -46 -37 -59 -14 -19
-16 -26 -6 -33 9 -5 7 -8 -7 -8 -19 0 -21 6 -20 70 0 66 1 69 22 64 11 -3 31
-1 43 6 11 6 52 12 90 13 37 1 71 5 75 9 4 4 -10 27 -31 53 -33 39 -43 45 -64
40 -73 -19 -111 -26 -139 -25 -12 0 -28 -3 -33 -6 -16 -10 -84 -15 -181 -14
-118 1 -123 -3 -86 -63 31 -50 38 -54 71 -36 11 6 22 8 25 5 3 -3 -6 -10 -21
-16 -28 -10 -27 -18 1 -51 7 -9 15 -25 18 -37 3 -18 0 -19 -23 -13 -15 5 -31
7 -37 6 -5 -1 -7 0 -2 3 15 8 6 23 -33 48 -22 15 -42 25 -43 23 -2 -2 -13 -20
-25 -39 l-23 -35 5 100 c3 55 8 110 11 121 5 17 2 23 -17 27 -13 3 -32 8 -43
11 -11 3 -27 2 -35 -2z m385 -203 c0 -63 -1 -65 -23 -61 -17 3 -20 7 -11 13
11 6 6 18 -19 54 -17 25 -32 47 -32 50 0 5 28 10 59 10 25 0 26 -2 26 -66z
m-217 -96 c-4 -53 11 -59 85 -38 50 14 52 -9 3 -48 -47 -39 -134 -87 -158 -87
-29 0 -26 -13 10 -47 36 -35 37 -35 66 -19 25 14 28 14 22 1 -3 -8 -1 -25 5
-38 6 -13 7 -43 2 -75 l-8 -54 -66 85 c-63 80 -66 87 -62 128 2 24 5 59 6 78
1 24 13 47 45 82 24 27 46 49 48 49 2 0 3 -8 2 -17z m380 -135 c39 -40 43 -48
28 -54 -9 -4 -28 -2 -42 4 -13 6 -30 9 -37 6 -15 -5 -15 -4 -21 79 -4 56 -3
58 11 35 9 -12 36 -44 61 -70z m-162 57 c-3 -8 -1 -26 5 -39 17 -36 -15 -80
-50 -71 -14 4 -37 7 -50 7 -21 0 -17 6 35 59 62 62 70 68 60 44z m-1 -210 c0
-38 -1 -40 -30 -37 -16 1 -40 3 -51 3 -18 1 -22 7 -21 35 1 26 5 33 16 29 9
-2 23 0 31 5 8 6 24 9 35 8 16 -3 20 -11 20 -43z m200 0 c0 -40 0 -40 -35 -37
-19 1 -45 3 -56 3 -18 1 -22 7 -21 35 1 26 5 33 16 29 9 -2 23 0 31 5 8 6 26
9 40 8 22 -3 25 -8 25 -43z m-200 -145 c0 -44 -1 -45 -30 -42 -16 1 -40 3 -52
3 -19 1 -22 6 -20 40 1 30 5 38 17 34 8 -2 22 0 30 5 8 6 24 9 35 8 17 -3 20
-11 20 -48z m200 0 l0 -45 -35 3 c-19 1 -45 3 -57 3 -19 1 -22 7 -20 40 1 30
5 38 17 34 8 -2 22 0 30 5 8 6 26 9 40 8 23 -3 25 -7 25 -48z"/>
<path d="M59 735 c0 -38 0 -83 0 -100 0 -16 -4 -47 -10 -68 -6 -22 -8 -41 -6
-43 2 -2 22 -7 45 -10 37 -5 42 -3 47 18 3 13 5 48 4 78 -1 30 2 71 5 90 4 19
8 51 10 70 l4 35 -49 0 -50 0 0 -70z"/>
</g>
</svg>
