<?xml version="1.0" standalone="no"?>
<!DOCTYPE svg PUBLIC "-//W3C//DTD SVG 20010904//EN"
 "http://www.w3.org/TR/2001/REC-SVG-20010904/DTD/svg10.dtd">
<svg version="1.0" xmlns="http://www.w3.org/2000/svg"
 width="101.000000pt" height="101.000000pt" viewBox="0 0 101.000000 101.000000"
 preserveAspectRatio="xMidYMid meet">
<metadata>
Created by potrace 1.16, written by Peter Selinger 2001-2019
</metadata>
<g transform="translate(0.000000,101.000000) scale(0.100000,-0.100000)"
fill="#000000" stroke="none">
<path d="M245 981 c-3 -2 -19 -4 -37 -3 -51 1 -71 -14 -64 -51 3 -18 8 -77 10
-133 l5 -101 -48 4 -48 3 0 -74 c-1 -81 6 -89 61 -79 26 5 32 20 28 67 -2 13
2 16 14 12 8 -3 24 -1 35 5 27 14 99 2 99 -17 0 -21 -29 -29 -61 -17 -37 14
-66 6 -72 -19 -9 -33 2 -47 34 -43 16 2 29 1 29 -1 0 -5 -61 -33 -105 -48 -19
-7 -18 -9 10 -31 24 -20 26 -25 13 -30 -9 -4 -25 -2 -36 4 -41 22 -78 -10 -65
-58 4 -16 12 -18 41 -14 75 9 145 11 165 4 17 -7 6 -14 -58 -39 -44 -16 -97
-33 -117 -37 -21 -4 -38 -10 -38 -14 0 -3 12 -19 26 -35 l25 -28 47 17 c26 10
78 33 115 52 55 27 66 30 58 15 -5 -10 -17 -24 -25 -32 -23 -18 -20 -24 17
-39 32 -12 32 -13 9 -22 -13 -5 -28 -7 -33 -3 -5 3 -24 -2 -43 -11 -25 -12
-40 -14 -54 -6 -10 5 -29 7 -41 4 -20 -5 -21 -7 -6 -29 8 -13 15 -30 15 -39 0
-14 21 -21 45 -15 6 2 21 4 35 6 70 8 186 50 220 79 12 11 29 9 100 -14 47
-15 111 -40 144 -56 l58 -27 31 31 c20 19 28 34 22 40 -6 5 -47 21 -93 36
l-84 27 33 28 c30 25 32 29 19 45 -8 10 7 4 34 -13 26 -17 77 -42 114 -57 l66
-27 28 34 c15 18 28 36 28 40 0 7 -41 23 -52 20 -8 -2 -178 58 -178 63 0 2 10
3 23 4 12 0 50 3 85 5 35 3 74 1 87 -4 19 -7 24 -5 28 11 10 36 -3 55 -36 57
-18 0 -41 2 -52 2 -11 1 -57 -4 -103 -9 -45 -6 -117 -9 -160 -6 -42 3 -88 6
-102 6 -22 1 -23 2 -7 14 23 17 22 21 -14 34 -19 7 -28 15 -23 22 4 7 -3 20
-17 30 l-24 19 31 -5 c24 -4 34 -1 38 12 6 14 9 15 16 4 4 -8 22 -14 39 -14
17 0 31 -2 31 -3 0 -2 -19 -13 -42 -25 l-42 -21 25 -19 c31 -24 42 -24 65 2
10 11 26 25 36 30 15 8 17 5 13 -20 -2 -22 1 -30 16 -34 34 -9 59 4 59 30 l0
25 33 -19 c17 -11 42 -26 55 -34 21 -13 25 -12 38 5 20 27 18 32 -16 52 -29
18 -29 18 -11 36 28 26 17 55 -22 56 -70 3 -77 5 -77 19 0 10 6 13 16 9 8 -3
24 -1 35 5 12 6 37 8 59 4 36 -6 38 -8 36 -40 -3 -38 9 -45 62 -37 28 4 31 7
26 32 -4 15 -1 36 4 47 6 11 8 29 5 41 -4 18 -11 21 -47 18 l-41 -4 2 144 c2
130 -3 164 -22 134 -9 -14 -71 -13 -94 2 -15 9 -25 9 -45 0 -22 -10 -26 -9
-26 4 0 12 -5 14 -17 8 -31 -13 -113 -17 -113 -5 0 6 -18 11 -40 11 -22 0 -40
-4 -40 -10 0 -5 -25 -10 -55 -10 -30 0 -55 5 -55 10 0 6 -7 10 -16 10 -11 0
-14 -6 -10 -22 l6 -23 -11 22 c-11 20 -50 29 -64 14z m343 -178 l3 -111 -28
-5 c-15 -3 -50 -4 -78 -1 -27 2 -60 4 -73 5 -23 1 -23 2 -20 113 l3 111 95 0
95 0 3 -112z m-268 95 c0 -13 -32 -25 -56 -20 -39 7 -28 27 16 27 22 1 40 -2
40 -7z m447 -13 c0 -7 -8 -10 -18 -8 -10 3 -32 0 -49 -5 -24 -9 -30 -8 -30 3
0 16 9 20 59 21 24 1 38 -3 38 -11z m-36 -83 c25 2 39 -1 39 -8 0 -7 -16 -10
-45 -8 -37 4 -45 1 -45 -13 0 -35 -14 0 -15 38 l-1 40 14 -26 c12 -23 19 -26
53 -23z m-422 2 c8 -7 -3 -12 -39 -18 -30 -4 -36 -2 -37 14 -2 17 3 19 35 14
20 -3 39 -8 41 -10z m419 -79 c38 3 41 2 38 -18 -3 -18 -9 -21 -32 -19 -16 1
-39 3 -51 3 -15 1 -23 7 -23 18 0 22 12 35 20 22 3 -6 25 -8 48 -6z m-427 -4
c4 -1 9 -8 13 -16 4 -12 -3 -14 -37 -13 -32 2 -43 6 -44 19 -1 15 20 18 68 10z
m292 -87 c30 -6 36 -31 11 -41 -10 -3 -30 -1 -45 4 -34 13 -69 6 -69 -13 0 -8
-4 -14 -10 -14 -5 0 -10 6 -10 14 0 8 -12 14 -32 14 -70 3 -78 5 -78 19 0 9 6
12 18 9 9 -3 23 -2 31 3 15 10 143 13 184 5z m-203 -98 c0 -2 -7 -6 -15 -10
-8 -3 -15 -1 -15 4 0 6 7 10 15 10 8 0 15 -2 15 -4z m328 -13 c-5 -7 -14 -10
-19 -7 -16 10 -9 23 10 21 15 -1 17 -4 9 -14z m-420 -20 c-3 -37 3 -51 23 -56
29 -8 49 2 49 24 0 22 13 25 29 6 8 -11 5 -19 -12 -35 -18 -17 -36 -22 -82
-23 -50 0 -101 3 -125 10 -3 0 19 17 47 36 28 19 54 39 58 45 9 15 15 12 13
-7z m187 -143 c-3 -5 -12 -10 -18 -10 -7 0 -19 -21 -27 -47 -11 -34 -25 -54
-49 -70 -50 -34 -56 -28 -21 23 l32 45 -30 11 -30 12 24 18 c13 11 28 17 34
13 5 -3 18 -1 27 4 23 13 66 14 58 1z m107 0 c29 -11 81 -53 55 -44 -12 4 -28
-6 -55 -35 -33 -36 -40 -40 -65 -33 l-28 7 25 38 c14 21 26 39 26 41 0 2 -11
7 -25 10 -14 4 -23 11 -20 16 8 13 57 13 87 0z"/>
<path d="M416 884 c-8 -21 -8 -20 10 -38 12 -13 13 -16 1 -16 -10 0 -14 -15
-14 -59 -1 -52 2 -60 20 -65 11 -3 29 0 40 5 10 6 34 8 52 5 28 -6 33 -3 39
16 10 40 7 76 -10 92 -8 9 -11 16 -6 16 5 0 9 13 8 28 -1 27 -2 28 -67 30 -53
1 -68 -2 -73 -14z m101 -115 c-1 -10 -10 -16 -27 -16 -17 0 -26 6 -27 16 -1
11 7 16 27 16 20 0 28 -5 27 -16z"/>
</g>
</svg>
