<?xml version="1.0" standalone="no"?>
<!DOCTYPE svg PUBLIC "-//W3C//DTD SVG 20010904//EN"
 "http://www.w3.org/TR/2001/REC-SVG-20010904/DTD/svg10.dtd">
<svg version="1.0" xmlns="http://www.w3.org/2000/svg"
 width="101.000000pt" height="101.000000pt" viewBox="0 0 101.000000 101.000000"
 preserveAspectRatio="xMidYMid meet">
<metadata>
Created by potrace 1.16, written by Peter Selinger 2001-2019
</metadata>
<g transform="translate(0.000000,101.000000) scale(0.100000,-0.100000)"
fill="#000000" stroke="none">
<path d="M800 1003 c-8 -2 -22 -7 -30 -11 -8 -3 -35 -7 -60 -9 -25 -1 -65 -5
-90 -8 -25 -3 -73 -5 -108 -5 -34 1 -67 -2 -73 -5 -13 -9 -225 -9 -275 -1 -61
10 -70 -2 -45 -58 14 -33 26 -47 38 -46 10 1 38 1 63 0 43 -1 44 -2 17 -12
l-27 -10 20 -33 c11 -18 20 -36 20 -39 0 -4 -29 -4 -65 -1 -35 4 -76 4 -90 1
-25 -6 -26 -7 -23 -99 l3 -92 46 0 c40 0 45 -2 42 -20 -8 -47 35 -58 130 -30
104 29 -33 -125 -168 -190 -44 -22 -81 -40 -83 -41 -2 -1 14 -18 34 -37 l39
-35 35 18 c20 10 68 44 108 75 l72 56 59 -63 c33 -35 56 -66 53 -70 -4 -3 -23
-9 -42 -12 -19 -3 -46 -8 -60 -11 -33 -8 -84 -15 -143 -19 -27 -3 -51 -7 -54
-10 -3 -3 8 -21 26 -41 17 -20 31 -39 31 -44 0 -8 22 -6 75 4 34 7 198 53 227
64 30 11 30 11 148 -24 89 -27 116 -33 191 -40 46 -4 46 -4 70 43 13 26 25 50
27 53 1 3 -35 6 -80 6 -46 1 -96 3 -113 7 -16 3 -50 8 -74 11 -24 2 -46 6 -47
8 -2 2 17 19 42 38 49 36 160 166 151 175 -3 3 -41 5 -84 5 -235 -4 -333 -2
-333 6 0 17 46 59 68 62 57 7 288 2 313 -7 34 -14 52 -1 52 37 0 27 3 30 24
25 13 -4 33 -4 46 -1 21 6 22 11 22 94 l0 89 -57 -4 c-39 -3 -58 -1 -58 7 0 6
-15 11 -32 11 l-33 1 38 33 c20 18 37 36 37 39 0 3 -20 13 -45 23 -25 9 -45
20 -45 24 0 4 25 5 55 2 67 -5 105 3 105 24 0 20 -52 94 -65 93 -5 0 -17 -3
-25 -6z m-94 -129 c-17 -44 -73 -114 -91 -114 -39 0 -64 12 -58 26 3 8 -6 32
-21 54 l-26 39 43 3 c121 9 159 7 153 -8z m-243 -16 c-39 -10 -40 -15 -12 -62
l21 -36 -30 0 c-66 0 -86 10 -108 56 l-21 44 31 0 c17 0 36 4 43 8 6 4 33 5
60 3 48 -4 48 -4 16 -13z m-23 -178 c0 -5 -6 -10 -12 -10 -7 0 -20 -17 -29
-38 l-15 -37 -105 2 c-57 1 -103 4 -101 7 1 3 2 21 2 39 l0 32 69 -3 c39 -2
78 1 88 7 23 13 103 14 103 1z m394 -38 c-3 -54 -17 -62 -104 -62 -53 0 -80 4
-84 13 -5 10 -7 10 -12 0 -7 -15 -74 -18 -74 -3 0 6 -16 10 -37 10 -35 0 -36
1 -19 19 21 23 14 40 -17 43 -56 4 93 13 213 13 l135 0 -1 -33z m-201 -259
l29 -5 -23 -24 c-12 -13 -39 -35 -60 -49 -44 -31 -54 -28 -114 35 -29 30 -34
41 -20 36 11 -3 26 -2 34 3 16 10 110 13 154 4z"/>
</g>
</svg>
