<?xml version="1.0" standalone="no"?>
<!DOCTYPE svg PUBLIC "-//W3C//DTD SVG 20010904//EN"
 "http://www.w3.org/TR/2001/REC-SVG-20010904/DTD/svg10.dtd">
<svg version="1.0" xmlns="http://www.w3.org/2000/svg"
 width="101.000000pt" height="101.000000pt" viewBox="0 0 101.000000 101.000000"
 preserveAspectRatio="xMidYMid meet">
<metadata>
Created by potrace 1.16, written by Peter Selinger 2001-2019
</metadata>
<g transform="translate(0.000000,101.000000) scale(0.100000,-0.100000)"
fill="#000000" stroke="none">
<path d="M305 947 c-29 -50 -134 -155 -199 -199 l-58 -40 43 -29 c24 -16 49
-29 54 -29 10 0 287 256 293 272 3 7 -56 40 -93 52 -16 5 -25 -1 -40 -27z"/>
<path d="M613 941 c-18 -15 -33 -32 -32 -37 0 -5 26 -25 57 -46 31 -20 94 -70
138 -112 l82 -76 43 39 c24 22 42 41 39 43 -53 45 -282 218 -287 218 -5 -1
-23 -13 -40 -29z"/>
<path d="M627 733 c-2 -5 -7 -21 -11 -38 -13 -51 -58 -158 -89 -208 l-30 -48
-19 28 c-36 54 -78 142 -94 202 -13 47 -21 60 -33 57 -9 -3 -28 -8 -43 -12
-16 -3 -28 -11 -28 -18 0 -32 90 -230 130 -287 18 -25 19 -27 2 -42 -51 -45
-220 -118 -305 -131 -67 -11 -70 -15 -38 -51 16 -19 33 -41 38 -49 8 -14 18
-12 85 13 91 35 184 82 254 126 45 29 52 31 70 18 84 -63 354 -177 362 -153 2
6 20 32 39 57 38 49 33 65 -17 62 -14 -1 -36 1 -50 4 -14 4 -36 9 -50 11 -14
3 -36 7 -49 10 -30 7 -139 59 -165 79 -19 14 -19 16 11 63 18 27 50 87 72 133
22 47 50 94 61 106 30 31 25 41 -27 59 -52 18 -70 20 -76 9z"/>
</g>
</svg>
