<?xml version="1.0" standalone="no"?>
<!DOCTYPE svg PUBLIC "-//W3C//DTD SVG 20010904//EN"
 "http://www.w3.org/TR/2001/REC-SVG-20010904/DTD/svg10.dtd">
<svg version="1.0" xmlns="http://www.w3.org/2000/svg"
 width="101.000000pt" height="102.000000pt" viewBox="0 0 101.000000 102.000000"
 preserveAspectRatio="xMidYMid meet">
<metadata>
Created by potrace 1.16, written by Peter Selinger 2001-2019
</metadata>
<g transform="translate(0.000000,102.000000) scale(0.100000,-0.100000)"
fill="#000000" stroke="none">
<path d="M455 958 l0 -63 -160 0 c-88 0 -168 3 -177 7 -37 17 -68 -24 -54 -70
6 -17 16 -20 81 -21 42 -1 77 3 80 9 7 11 79 12 170 3 l50 -5 -3 -127 c-5
-155 -7 -181 -17 -204 -4 -10 -5 -21 -1 -24 3 -3 1 -12 -6 -20 -6 -7 -8 -16
-5 -19 13 -14 -19 -67 -65 -109 -49 -44 -148 -98 -198 -109 -31 -7 -114 -28
-117 -31 -2 -1 17 -22 41 -47 l44 -46 78 32 c89 35 174 89 220 138 34 35 74
103 75 128 0 8 6 2 12 -15 35 -90 100 -156 202 -207 49 -25 158 -68 171 -68 2
0 11 15 20 32 9 18 26 43 37 56 18 20 19 24 7 32 -8 5 -33 10 -55 11 -22 0
-53 2 -69 4 -48 6 -148 61 -186 101 -32 33 -33 35 -7 19 28 -18 28 -18 75 15
l46 32 27 -30 c14 -16 29 -36 31 -43 4 -11 15 -7 46 15 23 16 42 30 42 32 0 2
-19 22 -42 44 l-43 40 35 31 35 30 -35 30 -35 30 -32 -36 -32 -37 -45 32 -45
32 -35 -22 c-20 -12 -36 -24 -36 -26 0 -2 23 -18 51 -35 57 -35 55 -45 -13
-74 l-38 -15 -17 37 c-11 24 -17 64 -18 110 l0 72 26 -25 c14 -13 29 -24 33
-24 4 0 28 15 54 32 26 18 52 33 57 34 6 0 24 -13 42 -29 l31 -29 42 25 41 24
-43 34 c-24 18 -45 35 -48 37 -3 2 10 17 28 33 39 35 40 44 6 66 l-26 17 23 9
c13 4 43 6 66 2 36 -5 42 -3 48 15 16 50 -28 98 -67 73 -7 -4 -81 -8 -164 -8
l-151 0 4 34 c2 19 9 43 14 54 15 26 -3 37 -61 37 l-45 0 0 -62z m225 -137 c0
-6 21 -11 47 -13 l47 -3 -29 -33 -30 -33 -34 26 c-43 31 -43 31 -78 0 -24 -22
-26 -26 -12 -35 9 -5 26 -18 39 -28 l24 -20 -52 -26 c-28 -14 -53 -26 -54 -26
-2 0 -3 40 -3 90 l0 90 43 0 c23 0 42 5 42 10 0 6 11 10 25 10 14 0 25 -4 25
-9z"/>
<path d="M309 757 l-35 -41 -44 32 c-24 18 -49 32 -55 32 -12 0 -61 -48 -54
-53 2 -1 23 -16 47 -31 23 -16 42 -30 42 -32 0 -2 -28 -18 -61 -35 l-61 -30
28 -30 c15 -16 32 -29 36 -29 5 0 35 17 66 39 l57 39 39 -34 38 -33 32 30 c34
33 36 27 -29 75 -19 15 -19 16 24 53 l44 38 -29 20 c-16 11 -34 22 -40 26 -6
3 -26 -13 -45 -36z"/>
<path d="M298 525 l-24 -34 -38 25 c-38 26 -38 26 -72 8 -19 -10 -34 -22 -34
-26 0 -4 18 -17 40 -29 22 -13 39 -28 37 -33 -2 -6 -29 -26 -61 -45 l-58 -35
24 -18 c49 -39 52 -39 109 7 l54 43 32 -31 33 -31 30 29 c16 16 30 32 30 36 0
4 -16 17 -36 30 l-36 22 37 32 38 31 -29 21 c-16 11 -34 23 -40 26 -6 4 -22
-9 -36 -28z"/>
</g>
</svg>
