<?xml version="1.0" standalone="no"?>
<!DOCTYPE svg PUBLIC "-//W3C//DTD SVG 20010904//EN"
 "http://www.w3.org/TR/2001/REC-SVG-20010904/DTD/svg10.dtd">
<svg version="1.0" xmlns="http://www.w3.org/2000/svg"
 width="101.000000pt" height="102.000000pt" viewBox="0 0 101.000000 102.000000"
 preserveAspectRatio="xMidYMid meet">
<metadata>
Created by potrace 1.16, written by Peter Selinger 2001-2019
</metadata>
<g transform="translate(0.000000,102.000000) scale(0.100000,-0.100000)"
fill="#000000" stroke="none">
<path d="M298 961 c3 -39 0 -61 -7 -61 -6 0 -11 -18 -11 -40 0 -22 5 -40 11
-40 6 0 9 -17 7 -42 -2 -24 -6 -42 -10 -40 -5 1 -28 2 -52 2 l-43 0 3 88 c1
48 6 101 9 118 6 27 4 33 -15 39 -12 4 -24 4 -27 1 -3 -3 -13 -1 -22 4 -32 17
-39 -2 -35 -100 4 -114 4 -133 -1 -320 -5 -229 -12 -276 -53 -360 -14 -30 -27
-57 -29 -60 -2 -3 17 -15 41 -27 l44 -21 20 46 c19 44 42 118 48 152 6 37 17
147 17 166 -1 15 6 22 21 23 11 0 37 2 56 3 32 3 35 1 38 -27 7 -56 3 -132 -8
-159 -7 -19 -7 -33 1 -48 6 -11 8 -35 4 -54 -6 -36 0 -40 49 -35 19 1 19 1 1
-19 -10 -11 -14 -20 -8 -20 6 0 27 -11 47 -25 l37 -25 31 45 c34 48 32 48 85
2 22 -20 22 -20 60 9 21 16 57 46 80 67 l42 39 62 -50 c34 -28 77 -58 95 -68
34 -18 34 -18 51 6 9 13 25 32 36 43 10 10 17 19 15 20 -1 1 -32 17 -68 34
-36 18 -81 46 -100 61 l-33 28 36 85 c33 78 73 202 83 259 3 14 6 34 9 45 13
62 19 58 -92 63 -70 2 -103 0 -103 -7 0 -7 -28 -11 -75 -11 -83 0 -81 -2 -69
72 6 32 10 37 43 43 44 9 128 15 239 17 94 2 98 7 55 69 -23 31 -34 38 -58 37
-16 -1 -34 -4 -40 -7 -5 -3 -16 -6 -25 -7 -8 -2 -31 -5 -50 -9 -19 -3 -66 -8
-105 -10 -38 -1 -88 -4 -110 -6 l-40 -4 -3 -99 c-1 -58 2 -104 8 -112 11 -13
4 -100 -11 -142 -5 -13 -4 -32 2 -46 8 -17 8 -39 -2 -82 -7 -33 -14 -68 -15
-79 -4 -47 -16 -90 -40 -137 -14 -27 -27 -48 -30 -46 -9 10 -14 279 -5 297 6
10 7 28 4 40 -5 20 -11 22 -82 21 -126 -2 -121 -4 -119 46 2 44 2 44 40 44 21
0 38 5 38 10 0 15 67 12 74 -2 5 -10 7 -10 12 0 7 15 38 16 66 1 16 -9 23 -8
29 2 27 42 -6 95 -53 85 l-28 -6 5 111 c3 61 10 119 15 129 12 23 5 28 -52 36
l-43 6 3 -61z m293 -283 c1 -7 2 -31 4 -53 6 -81 41 -220 70 -275 13 -26 12
-29 -18 -57 -41 -39 -128 -105 -133 -100 -2 2 6 28 17 58 12 30 23 68 25 84 3
17 8 48 11 70 4 22 7 95 7 163 1 67 4 122 9 122 4 0 7 -6 8 -12z m213 -18 c-2
-26 -8 -61 -20 -115 -4 -16 -18 -55 -31 -85 l-25 -55 -14 39 c-16 45 -23 76
-28 126 -3 19 -5 40 -6 45 -1 6 -2 24 -1 40 l1 30 63 0 c61 0 63 -1 61 -25z"/>
</g>
</svg>
