<?xml version="1.0" standalone="no"?>
<!DOCTYPE svg PUBLIC "-//W3C//DTD SVG 20010904//EN"
 "http://www.w3.org/TR/2001/REC-SVG-20010904/DTD/svg10.dtd">
<svg version="1.0" xmlns="http://www.w3.org/2000/svg"
 width="101.000000pt" height="101.000000pt" viewBox="0 0 101.000000 101.000000"
 preserveAspectRatio="xMidYMid meet">
<metadata>
Created by potrace 1.16, written by Peter Selinger 2001-2019
</metadata>
<g transform="translate(0.000000,101.000000) scale(0.100000,-0.100000)"
fill="#000000" stroke="none">
<path d="M560 941 c0 -43 4 -71 11 -73 8 -3 10 -21 5 -59 l-7 -56 -127 1 -127
1 1 91 c1 50 7 101 13 112 15 28 2 35 -66 36 -50 1 -59 -4 -53 -29 1 -5 2 -63
1 -127 -1 -70 3 -119 9 -123 14 -8 13 -52 -1 -61 -8 -5 -9 -33 -5 -91 5 -59 4
-89 -5 -99 -6 -8 -9 -23 -6 -34 3 -11 2 -22 -3 -25 -4 -2 -7 -16 -7 -30 0 -38
-49 -128 -98 -183 l-45 -49 51 -27 51 -26 19 23 c23 27 108 195 114 226 2 13
7 32 11 44 8 22 9 30 12 55 2 16 152 17 152 1 0 -8 26 -10 84 -7 l84 4 4 -167
c2 -92 6 -171 9 -174 11 -10 73 -16 84 -8 7 5 7 51 1 141 -7 97 -6 138 2 155
14 26 13 139 -1 148 -5 4 -26 0 -45 -8 -25 -10 -53 -13 -96 -8 -34 3 -108 7
-166 8 l-105 2 0 68 0 67 43 0 c23 0 42 5 42 10 0 6 11 10 25 10 14 0 25 -4
25 -10 0 -6 30 -10 70 -10 40 0 70 4 70 10 0 6 11 10 25 10 14 0 25 -4 25 -10
0 -5 23 -10 50 -10 28 0 50 5 50 10 0 15 74 12 105 -4 15 -8 34 -12 41 -9 18
7 28 46 20 76 -5 21 -9 22 -125 22 l-120 0 -7 73 c-4 44 -2 77 4 85 5 6 10 31
10 55 l1 42 -55 0 -54 0 0 -69z"/>
</g>
</svg>
