<?xml version="1.0" standalone="no"?>
<!DOCTYPE svg PUBLIC "-//W3C//DTD SVG 20010904//EN"
 "http://www.w3.org/TR/2001/REC-SVG-20010904/DTD/svg10.dtd">
<svg version="1.0" xmlns="http://www.w3.org/2000/svg"
 width="101.000000pt" height="101.000000pt" viewBox="0 0 101.000000 101.000000"
 preserveAspectRatio="xMidYMid meet">
<metadata>
Created by potrace 1.16, written by Peter Selinger 2001-2019
</metadata>
<g transform="translate(0.000000,101.000000) scale(0.100000,-0.100000)"
fill="#000000" stroke="none">
<path d="M265 903 l1 -108 -32 -1 c-30 0 -31 1 -24 33 5 18 5 33 2 33 -3 0 -1
5 6 12 28 28 9 46 -60 54 -35 5 -37 3 -42 -28 -3 -18 -5 -40 -6 -48 -8 -119
-32 -222 -62 -257 -13 -17 -14 -16 44 -35 49 -16 54 -13 63 32 1 3 4 14 7 25
3 11 9 36 12 55 6 34 7 35 56 37 l50 3 0 -63 c0 -34 -3 -78 -6 -99 -6 -33 -10
-37 -53 -49 -25 -8 -50 -12 -55 -11 -4 2 -14 -2 -20 -8 -7 -5 -16 -7 -19 -4
-3 4 -14 3 -24 -1 -10 -5 -24 -9 -31 -11 -8 -1 -16 -5 -19 -8 -9 -8 19 -97 31
-102 6 -2 50 11 97 30 85 33 87 33 88 12 0 -11 3 -47 5 -79 3 -36 -1 -75 -10
-99 -10 -30 -11 -45 -3 -60 6 -11 9 -33 5 -48 -6 -32 10 -40 61 -33 39 6 46
28 27 90 -10 34 -13 75 -9 138 3 50 5 100 6 113 1 24 20 36 75 46 79 14 91 29
79 93 -5 27 -10 33 -23 28 -15 -6 -124 -45 -126 -45 -1 0 0 36 2 79 l3 79 43
6 c23 4 50 4 59 0 19 -7 33 32 23 69 -5 21 -11 23 -73 23 l-68 -1 -3 43 c-2
24 2 49 7 56 6 7 10 24 10 37 -1 13 2 36 6 52 l7 27 -54 0 -54 0 1 -107z"/>
<path d="M569 1003 c-14 -3 -17 -18 -17 -74 0 -38 4 -72 9 -74 11 -8 10 -173
-2 -180 -12 -8 -12 -142 1 -150 13 -8 13 -52 -1 -61 -12 -7 -6 -285 7 -305 3
-6 26 -20 50 -31 33 -14 49 -16 63 -8 11 5 55 8 99 6 104 -5 132 10 161 89 25
66 26 75 7 75 -7 0 -30 11 -51 25 -20 15 -39 24 -41 22 -3 -2 -7 -21 -9 -41
-3 -21 -9 -46 -15 -56 -17 -32 -142 -38 -164 -8 -8 11 -11 67 -10 168 l2 151
108 71 c60 39 119 74 131 79 34 13 31 23 -25 73 l-32 30 -48 -45 c-26 -25 -67
-62 -92 -82 l-46 -36 3 150 c1 84 7 159 14 170 6 11 9 22 7 23 -33 21 -74 29
-109 19z"/>
</g>
</svg>
