<?xml version="1.0" standalone="no"?>
<!DOCTYPE svg PUBLIC "-//W3C//DTD SVG 20010904//EN"
 "http://www.w3.org/TR/2001/REC-SVG-20010904/DTD/svg10.dtd">
<svg version="1.0" xmlns="http://www.w3.org/2000/svg"
 width="101.000000pt" height="101.000000pt" viewBox="0 0 101.000000 101.000000"
 preserveAspectRatio="xMidYMid meet">
<metadata>
Created by potrace 1.16, written by Peter Selinger 2001-2019
</metadata>
<g transform="translate(0.000000,101.000000) scale(0.100000,-0.100000)"
fill="#000000" stroke="none">
<path d="M608 1003 c-17 -4 -16 -7 2 -43 l19 -38 -31 -6 c-46 -9 -96 -7 -103
4 -7 12 -95 13 -113 1 -7 -4 -13 -16 -13 -27 0 -10 2 -56 3 -101 2 -57 0 -79
-7 -73 -6 5 -22 7 -36 5 l-24 -4 3 87 c2 48 5 107 7 132 l4 45 -50 0 c-46 0
-55 -5 -49 -30 1 -5 3 -59 4 -120 l1 -110 -28 -1 -27 -1 5 115 c3 63 8 118 11
123 2 4 -13 13 -34 20 -59 17 -82 1 -82 -56 0 -25 3 -45 8 -45 9 0 9 -411 -1
-427 -4 -6 -2 -23 5 -38 9 -20 9 -31 0 -45 -6 -11 -14 -33 -17 -50 -3 -16 -15
-55 -26 -85 l-21 -55 31 -42 30 -41 20 47 c21 48 48 139 57 191 10 60 15 100
16 121 1 30 55 30 57 0 0 -12 3 -59 6 -106 3 -47 1 -107 -5 -134 -12 -55 -11
-57 23 -60 19 -1 23 -4 15 -14 -13 -15 -14 -14 39 -41 l43 -21 24 48 c42 83
68 174 72 247 3 73 6 102 18 173 6 32 12 42 23 38 8 -3 23 -1 33 4 11 6 43 8
74 4 51 -6 54 -8 51 -33 -3 -28 -5 -29 -111 -16 -47 5 -52 4 -57 -16 -3 -12
-2 -30 3 -38 5 -9 7 -59 5 -111 -3 -52 -6 -136 -7 -187 -3 -102 -1 -104 61
-95 25 3 31 8 25 21 -7 14 -8 42 -3 106 1 17 9 21 44 23 47 2 44 7 48 -85 1
-44 16 -56 55 -46 13 3 18 15 19 46 3 82 4 85 27 85 11 1 32 2 46 4 25 3 28
-8 21 -65 -1 -4 -11 -7 -23 -6 -55 5 -57 3 -34 -46 13 -27 28 -44 39 -45 27 0
87 27 89 42 1 7 2 74 3 148 1 74 5 153 9 175 9 45 10 84 4 91 -6 5 -64 6 -123
1 -46 -5 -50 -3 -51 18 -1 17 4 23 20 24 11 0 49 3 84 5 35 3 74 1 87 -4 19
-7 24 -5 28 11 12 46 -8 65 -63 61 -9 -1 -21 12 -27 28 -12 33 -11 35 17 20
32 -17 71 14 54 42 -4 6 -6 46 -6 88 l1 78 -37 7 c-23 4 -38 3 -40 -4 -5 -14
-52 -15 -52 -1 0 6 -20 10 -44 10 -43 0 -44 1 -53 38 -8 33 -12 37 -43 39 -19
0 -43 -1 -52 -4z m160 -150 l83 -6 -3 -31 c-3 -35 25 -32 -238 -28 l-140 2 0
25 c0 26 8 29 76 25 18 -1 35 3 39 9 7 12 63 14 183 4z m-126 -162 c4 -28 3
-29 -49 -35 -30 -4 -62 -2 -73 4 -10 5 -25 7 -33 4 -10 -4 -16 3 -19 23 l-4
28 87 2 87 2 4 -28z m119 17 c8 -7 21 -20 27 -30 11 -14 9 -16 -20 -15 -29 1
-33 4 -34 29 -1 31 5 34 27 16z m-452 -59 c33 -7 46 -7 52 2 24 40 40 -120 19
-191 -6 -19 -12 -60 -14 -90 -3 -50 -43 -177 -52 -167 -9 9 -14 279 -5 296 6
10 8 27 5 38 -5 17 -14 21 -52 21 -95 1 -92 -1 -90 48 2 34 6 43 18 39 8 -2
22 0 30 5 19 12 34 12 89 -1z m337 -194 c-1 -22 -5 -24 -41 -23 -33 2 -40 6
-41 23 -1 18 5 21 41 23 40 1 43 0 41 -23z m170 0 c-1 -22 -5 -24 -41 -23 -33
2 -40 6 -41 23 -1 18 5 21 41 23 40 1 43 0 41 -23z m-170 -110 c-1 -22 -5 -24
-41 -23 -33 2 -40 6 -41 23 -1 18 5 21 41 23 40 1 43 0 41 -23z m170 0 c-1
-22 -5 -24 -41 -23 -33 2 -40 6 -41 23 -1 18 5 21 41 23 40 1 43 0 41 -23z"/>
</g>
</svg>
