<?xml version="1.0" standalone="no"?>
<!DOCTYPE svg PUBLIC "-//W3C//DTD SVG 20010904//EN"
 "http://www.w3.org/TR/2001/REC-SVG-20010904/DTD/svg10.dtd">
<svg version="1.0" xmlns="http://www.w3.org/2000/svg"
 width="101.000000pt" height="101.000000pt" viewBox="0 0 101.000000 101.000000"
 preserveAspectRatio="xMidYMid meet">
<metadata>
Created by potrace 1.16, written by Peter Selinger 2001-2019
</metadata>
<g transform="translate(0.000000,101.000000) scale(0.100000,-0.100000)"
fill="#000000" stroke="none">
<path d="M210 996 c0 -8 5 -16 11 -18 8 -3 9 -33 4 -105 -6 -91 -9 -100 -25
-96 -24 6 -33 30 -20 53 25 47 10 66 -55 69 -27 1 -33 -4 -43 -34 -7 -19 -13
-53 -13 -77 1 -63 -6 -115 -19 -164 -7 -25 -10 -47 -8 -50 3 -3 23 -7 45 -10
39 -4 41 -3 48 28 4 18 9 46 10 61 3 35 4 36 38 30 23 -5 27 -10 27 -39 0 -19
5 -34 10 -34 11 0 13 -33 4 -77 -5 -27 -13 -32 -95 -58 -49 -16 -89 -29 -89
-30 0 -8 33 -95 36 -95 3 0 35 16 73 35 80 40 71 53 74 -110 1 -55 -2 -118 -7
-141 -9 -47 1 -54 66 -46 l37 4 -7 47 c-7 45 -7 228 0 285 3 25 10 31 60 49
l57 21 -2 45 c-2 42 0 46 23 48 14 1 46 5 71 8 44 5 47 3 47 -17 0 -13 4 -35
7 -51 9 -34 -10 -61 -39 -53 -11 3 -34 -2 -52 -10 -24 -11 -38 -13 -52 -5 -25
14 -59 3 -65 -20 -3 -11 0 -33 6 -49 12 -32 5 -31 110 -14 78 12 85 11 86 -10
1 -12 3 -65 4 -118 3 -107 8 -117 65 -137 23 -7 40 -7 52 -1 11 6 52 8 93 6
88 -5 124 11 150 67 30 63 27 74 -30 107 -35 20 -53 26 -54 18 -1 -7 -2 -26
-3 -42 -3 -42 -50 -80 -90 -72 -17 4 -41 8 -54 9 -13 1 -28 10 -33 19 -13 24
-14 177 0 179 3 1 17 3 31 4 14 1 52 6 85 10 64 8 100 12 126 14 15 1 16 13
10 88 -1 13 -31 12 -91 -2 -34 -8 -98 -16 -140 -18 -38 -2 -38 -3 -28 93 3 28
5 28 137 34 46 2 76 8 81 16 15 24 -21 97 -41 84 -10 -6 -76 -15 -129 -17
l-45 -2 2 64 c1 54 5 65 20 68 10 2 27 6 38 8 64 14 82 16 105 16 41 -1 70 9
70 22 0 7 -18 30 -39 51 l-39 38 -64 -21 c-90 -30 -147 -42 -191 -41 -16 0
-33 -2 -38 -6 -5 -3 -41 -6 -78 -7 -38 -1 -72 -5 -75 -8 -4 -4 4 -27 16 -53
22 -44 24 -46 58 -40 19 4 44 6 54 6 11 -1 27 3 37 8 15 9 18 3 24 -51 9 -74
2 -81 -75 -74 -78 8 -92 -6 -75 -75 5 -22 1 -27 -42 -45 -26 -11 -50 -21 -53
-23 -4 -1 -6 29 -6 68 l1 70 42 0 c52 0 75 21 71 64 -3 31 -3 31 -59 31 l-56
-1 3 93 c2 52 5 102 9 112 6 21 -17 31 -77 31 -26 0 -38 -4 -38 -14z"/>
</g>
</svg>
