<?xml version="1.0" standalone="no"?>
<!DOCTYPE svg PUBLIC "-//W3C//DTD SVG 20010904//EN"
 "http://www.w3.org/TR/2001/REC-SVG-20010904/DTD/svg10.dtd">
<svg version="1.0" xmlns="http://www.w3.org/2000/svg"
 width="101.000000pt" height="101.000000pt" viewBox="0 0 101.000000 101.000000"
 preserveAspectRatio="xMidYMid meet">
<metadata>
Created by potrace 1.16, written by Peter Selinger 2001-2019
</metadata>
<g transform="translate(0.000000,101.000000) scale(0.100000,-0.100000)"
fill="#000000" stroke="none">
<path d="M267 1002 c-9 -2 -15 -8 -11 -13 3 -6 3 -56 -1 -113 l-7 -102 -34 0
c-19 1 -34 1 -34 1 3 0 29 85 30 95 0 19 -52 40 -79 33 -23 -6 -42 -47 -41
-88 0 -29 -6 -80 -10 -80 -1 0 -4 -11 -5 -25 -2 -14 -13 -46 -24 -72 l-20 -47
37 -23 c20 -12 40 -24 43 -26 3 -1 16 32 28 75 l22 78 42 0 42 0 0 -98 0 -98
-61 -18 c-33 -11 -78 -22 -99 -25 -21 -4 -40 -8 -42 -10 -3 -3 8 -30 43 -104
2 -3 33 9 105 42 l57 25 1 -22 c0 -12 3 -56 6 -98 3 -52 1 -89 -9 -116 -21
-59 -10 -68 72 -65 l33 2 -5 45 -5 45 29 -15 c16 -8 34 -24 40 -35 6 -11 17
-20 26 -20 23 0 144 64 194 102 l44 35 92 -64 c51 -34 96 -63 101 -63 13 0 97
100 90 106 -3 3 -19 7 -36 9 -37 5 -153 59 -170 78 -8 11 -5 27 13 70 35 77
63 183 71 261 2 21 6 40 8 42 2 3 27 5 55 5 48 2 50 3 56 34 12 60 11 60 -168
60 l-164 0 25 55 c13 30 30 62 38 70 26 28 15 46 -30 51 -5 0 -18 5 -28 11
-29 15 -65 -14 -65 -54 0 -18 -6 -46 -12 -63 -7 -16 -14 -41 -17 -55 -6 -35
-78 -185 -103 -217 -12 -16 -17 -29 -11 -33 6 -3 -9 -13 -34 -22 l-44 -17 2
82 2 82 60 -2 61 -2 -1 45 c0 50 -19 63 -65 46 -54 -19 -61 -8 -55 81 2 45 8
92 11 105 6 21 -3 27 -29 23 -4 -1 -16 3 -25 7 -9 5 -25 7 -35 4z m472 -298
c-5 -6 -9 -22 -9 -35 0 -65 -40 -249 -55 -249 -7 0 -47 116 -50 145 -4 41 -16
85 -24 85 -22 1 -31 18 -21 41 10 22 16 24 90 24 56 0 76 -3 69 -11z m-201
-137 c-3 -19 32 -127 58 -178 l23 -47 -33 -26 c-72 -55 -227 -119 -244 -101
-4 4 -6 48 -5 98 3 143 0 134 49 147 51 15 56 20 57 66 1 33 2 33 24 19 29
-20 29 -20 43 15 11 28 33 33 28 7z"/>
</g>
</svg>
