<?xml version="1.0" standalone="no"?>
<!DOCTYPE svg PUBLIC "-//W3C//DTD SVG 20010904//EN"
 "http://www.w3.org/TR/2001/REC-SVG-20010904/DTD/svg10.dtd">
<svg version="1.0" xmlns="http://www.w3.org/2000/svg"
 width="101.000000pt" height="101.000000pt" viewBox="0 0 101.000000 101.000000"
 preserveAspectRatio="xMidYMid meet">
<metadata>
Created by potrace 1.16, written by Peter Selinger 2001-2019
</metadata>
<g transform="translate(0.000000,101.000000) scale(0.100000,-0.100000)"
fill="#000000" stroke="none">
<path d="M225 946 c-38 -66 -128 -167 -180 -203 l-29 -21 36 -40 36 -40 40 40
40 40 7 -90 c4 -50 4 -95 0 -101 -6 -11 13 -16 54 -12 l23 2 -20 -28 c-11 -15
-36 -44 -56 -62 -40 -39 -44 -51 -18 -51 10 0 28 -8 41 -17 24 -16 25 -16 56
22 18 21 37 35 43 31 7 -4 20 -2 31 4 12 6 42 8 73 4 l54 -6 2 -43 1 -42 -107
-6 c-105 -6 -151 -5 -243 7 -52 7 -60 -3 -52 -61 5 -29 7 -31 42 -26 77 10
130 12 244 6 94 -5 117 -9 113 -20 -3 -7 -1 -24 5 -37 8 -17 8 -38 1 -72 -6
-27 -8 -51 -6 -54 6 -5 95 -2 101 3 5 6 5 50 -1 118 -4 52 -2 57 17 59 48 5
310 1 332 -4 20 -5 23 -1 27 26 10 63 4 68 -71 60 -36 -4 -111 -6 -166 -5
-158 3 -145 -1 -143 48 2 35 6 43 23 44 11 0 54 3 95 6 41 3 88 1 104 -5 16
-6 31 -8 33 -6 2 2 5 21 6 43 1 36 3 40 29 40 36 0 61 23 85 81 22 52 20 72
-6 72 -10 0 -28 11 -41 25 -23 25 -23 25 -38 4 -7 -11 -11 -26 -9 -33 3 -8 0
-22 -7 -31 -11 -16 -16 -15 -64 9 -56 28 -117 78 -133 108 -9 17 -7 18 16 12
27 -7 85 12 85 28 0 6 25 9 58 7 31 -1 70 1 85 6 26 7 28 11 23 44 -3 20 -5
39 -6 44 0 7 -14 5 -70 -8 -34 -8 -92 -19 -160 -30 -65 -10 -75 -10 -72 4 2 8
0 21 -4 30 -3 9 -7 43 -8 76 l-1 60 -50 3 -50 3 2 -53 c1 -54 12 -138 18 -148
4 -7 -19 -9 -105 -10 -94 -2 -100 -5 -100 -50 0 -37 20 -70 41 -70 6 0 20 5
32 12 12 6 33 13 47 14 33 4 70 12 97 19 16 5 24 1 33 -17 40 -77 131 -155
219 -189 l46 -17 -35 -6 c-19 -4 -66 -4 -105 -1 -38 3 -79 6 -91 6 -22 1 -25
24 -9 82 4 15 3 27 -1 28 -18 2 -49 6 -59 9 -42 11 -61 -20 -42 -69 15 -41 -5
-65 -47 -56 -17 3 -41 6 -54 7 l-24 0 23 24 c26 28 21 36 -35 54 -31 10 -40
10 -46 -1 -5 -7 -7 54 -5 136 l3 149 41 47 c23 26 41 50 41 53 0 7 -76 46 -88
46 -5 0 -26 -29 -47 -64z"/>
<path d="M675 993 c-16 -8 -32 -17 -33 -19 -5 -3 78 -108 88 -112 8 -3 80 37
80 45 0 11 -84 103 -94 103 -6 -1 -24 -8 -41 -17z"/>
</g>
</svg>
