<?xml version="1.0" standalone="no"?>
<!DOCTYPE svg PUBLIC "-//W3C//DTD SVG 20010904//EN"
 "http://www.w3.org/TR/2001/REC-SVG-20010904/DTD/svg10.dtd">
<svg version="1.0" xmlns="http://www.w3.org/2000/svg"
 width="101.000000pt" height="101.000000pt" viewBox="0 0 101.000000 101.000000"
 preserveAspectRatio="xMidYMid meet">
<metadata>
Created by potrace 1.16, written by Peter Selinger 2001-2019
</metadata>
<g transform="translate(0.000000,101.000000) scale(0.100000,-0.100000)"
fill="#000000" stroke="none">
<path d="M227 993 c-9 -2 -15 -9 -11 -14 3 -6 3 -57 -1 -114 -6 -90 -9 -103
-24 -97 -23 8 -31 23 -22 41 22 46 -16 82 -72 67 -24 -6 -25 -9 -25 -73 -1
-91 -10 -158 -27 -201 -9 -19 -13 -37 -11 -39 9 -9 86 -11 92 -2 7 12 15 55
16 86 0 14 5 20 13 16 8 -2 23 1 36 7 19 11 21 10 16 -5 -4 -9 -2 -25 4 -36 6
-11 7 -39 3 -64 -6 -44 -7 -45 -60 -61 -29 -8 -66 -17 -81 -20 -41 -8 -43 -14
-21 -71 l20 -52 68 34 c79 40 69 53 73 -110 1 -55 -1 -116 -5 -137 -7 -40 6
-50 55 -41 l26 5 -1 152 c0 205 -3 192 48 212 23 9 45 24 47 33 6 21 7 -10 10
-221 2 -194 1 -190 63 -181 30 5 31 6 28 53 -2 43 0 48 19 49 12 1 45 3 72 6
28 2 91 2 142 -1 78 -5 92 -8 91 -22 -5 -69 8 -84 71 -74 22 3 31 9 27 18 -3
8 -8 75 -11 150 -5 99 -3 140 6 150 9 11 9 18 1 26 -14 14 -16 74 -2 83 16 10
11 163 -6 180 -17 17 -76 20 -103 6 -28 -15 -40 1 -43 59 l-3 55 98 0 c92 0
98 1 103 21 3 12 4 32 2 43 -3 21 -9 22 -160 26 -93 3 -159 1 -163 -4 -7 -13
-172 -13 -180 -1 -9 15 -73 9 -80 -8 -3 -8 -3 -29 1 -47 l6 -33 86 1 87 2 0
-60 0 -60 -35 3 c-19 1 -53 4 -75 5 -29 1 -42 7 -48 21 -6 15 -10 17 -19 8 -7
-7 -26 -12 -44 -12 l-32 0 4 98 c1 53 6 104 9 113 4 10 -3 19 -20 27 -27 12
-29 13 -58 5z m440 -208 c2 -58 1 -60 -24 -62 -23 -1 -25 2 -19 29 3 17 6 45
6 62 0 24 5 32 18 32 14 0 17 -11 19 -61z m-274 -127 c-3 -126 -3 -126 -13
-100 -11 26 -12 26 -52 6 -37 -19 -52 -6 -43 41 3 17 6 40 7 53 0 18 4 21 20
16 30 -9 66 4 73 26 3 11 7 20 8 20 1 0 1 -28 0 -62z m143 -15 c-3 -7 0 -25 6
-39 9 -19 9 -33 -1 -60 -7 -19 -14 -46 -17 -60 -3 -15 -12 -41 -21 -58 l-16
-31 -9 24 c-5 13 -6 63 -3 110 3 47 6 95 6 107 1 16 8 21 31 21 20 0 27 -4 24
-14z m133 -8 c1 -11 3 -68 4 -127 2 -59 7 -112 12 -117 11 -11 68 -24 100 -24
17 1 21 -6 23 -42 l1 -43 -92 -6 c-50 -3 -112 -3 -137 -1 -113 11 -105 7 -102
40 1 17 3 40 3 52 1 22 2 22 36 8 19 -8 39 -12 44 -10 10 7 38 96 45 145 13
86 15 106 16 126 0 29 45 28 47 -1z m140 1 c1 -11 3 -46 6 -76 7 -87 0 -107
-35 -105 -17 1 -33 5 -37 9 -4 4 -7 40 -6 79 3 118 2 113 38 114 27 1 33 -3
34 -21z"/>
</g>
</svg>
