<?xml version="1.0" standalone="no"?>
<!DOCTYPE svg PUBLIC "-//W3C//DTD SVG 20010904//EN"
 "http://www.w3.org/TR/2001/REC-SVG-20010904/DTD/svg10.dtd">
<svg version="1.0" xmlns="http://www.w3.org/2000/svg"
 width="101.000000pt" height="101.000000pt" viewBox="0 0 101.000000 101.000000"
 preserveAspectRatio="xMidYMid meet">
<metadata>
Created by potrace 1.16, written by Peter Selinger 2001-2019
</metadata>
<g transform="translate(0.000000,101.000000) scale(0.100000,-0.100000)"
fill="#000000" stroke="none">
<path d="M435 980 c-11 -4 -26 -5 -32 -3 -7 3 -21 2 -30 -2 -19 -8 -59 -11
-186 -15 -43 -1 -77 -5 -75 -9 2 -3 9 -22 17 -42 14 -37 15 -37 74 -38 32 0
67 4 76 9 15 7 17 4 17 -25 l-1 -34 -110 6 -110 6 0 -47 -1 -46 91 4 90 4 -50
-45 c-27 -25 -73 -59 -102 -75 -29 -17 -53 -31 -53 -32 0 -2 18 -17 40 -35
l40 -32 82 80 83 79 2 -80 c1 -73 0 -78 -17 -73 -15 5 -24 -5 -46 -47 -14 -29
-42 -70 -62 -90 -20 -21 -34 -39 -31 -40 25 -16 80 -40 82 -37 39 52 52 64 70
67 63 8 136 11 162 7 28 -5 31 -8 33 -49 l1 -44 -97 -6 c-98 -5 -155 -3 -227
9 -50 9 -84 9 -92 1 -8 -8 -8 -64 0 -72 3 -3 16 -5 29 -5 27 2 199 2 310 0
l76 -1 -3 -43 c-1 -24 -5 -47 -8 -52 -15 -24 15 -38 76 -35 24 2 26 4 15 22
-10 15 -10 27 -1 51 7 17 10 36 7 44 -7 17 3 17 202 16 153 -1 162 0 167 19
15 56 -33 80 -108 53 -28 -10 -66 -12 -130 -8 -49 3 -100 5 -112 6 -20 1 -22
6 -21 44 2 35 6 43 23 44 11 0 60 3 109 6 54 4 102 1 123 -6 41 -13 45 -11 46
36 1 47 -15 57 -66 39 -27 -10 -64 -12 -116 -9 -42 3 -86 6 -98 6 -26 1 -27 4
-12 49 15 40 2 51 -58 48 -40 -2 -43 -4 -49 -35 -3 -18 -4 -39 -1 -47 7 -18
-74 -32 -102 -17 -11 6 -28 8 -38 5 -13 -4 -12 -1 6 14 23 19 23 20 5 31 -16
10 -16 12 -1 7 29 -9 48 5 47 33 -1 14 -2 45 -1 69 l1 43 29 -15 c16 -9 43
-27 60 -42 l32 -27 30 29 c16 15 29 31 29 36 0 11 -89 67 -118 75 -16 4 -30
-1 -45 -15 l-22 -21 -1 32 0 32 98 0 c93 0 99 1 104 22 14 54 7 58 -102 58
l-100 0 0 33 c1 23 5 31 15 27 18 -7 171 16 171 25 0 4 -10 22 -23 41 -18 27
-30 34 -57 35 -19 1 -44 -2 -55 -6z"/>
<path d="M775 972 c-3 -8 -3 -17 0 -22 2 -4 7 -82 9 -174 4 -165 4 -167 -18
-176 -12 -4 -35 -6 -51 -3 -25 5 -27 4 -20 -13 4 -10 13 -34 19 -51 10 -30 25
-40 51 -33 6 2 17 3 26 4 39 4 78 29 85 54 4 15 9 109 10 209 1 100 5 186 8
192 10 16 -15 25 -66 26 -31 0 -49 -4 -53 -13z"/>
<path d="M623 922 c-8 -5 -11 -49 -10 -145 2 -123 4 -138 20 -143 10 -3 28 -3
40 0 21 5 22 10 18 87 -2 45 1 84 6 88 6 3 13 29 16 58 5 41 3 53 -9 57 -22 8
-67 7 -81 -2z"/>
</g>
</svg>
