<?xml version="1.0" standalone="no"?>
<!DOCTYPE svg PUBLIC "-//W3C//DTD SVG 20010904//EN"
 "http://www.w3.org/TR/2001/REC-SVG-20010904/DTD/svg10.dtd">
<svg version="1.0" xmlns="http://www.w3.org/2000/svg"
 width="101.000000pt" height="102.000000pt" viewBox="0 0 101.000000 102.000000"
 preserveAspectRatio="xMidYMid meet">
<metadata>
Created by potrace 1.16, written by Peter Selinger 2001-2019
</metadata>
<g transform="translate(0.000000,102.000000) scale(0.100000,-0.100000)"
fill="#000000" stroke="none">
<path d="M623 928 l3 -93 -38 0 c-21 -1 -38 0 -38 2 0 14 34 83 41 83 16 0 10
18 -8 25 -10 4 -32 9 -50 12 -30 4 -32 2 -44 -39 -7 -24 -13 -48 -15 -54 -1
-7 -14 -39 -29 -73 -26 -58 -52 -74 -42 -26 4 22 0 24 -55 30 l-59 7 6 77 c4
42 8 86 11 99 5 23 4 23 -57 26 l-36 1 -1 -55 c0 -30 4 -60 10 -67 5 -6 8 -28
6 -49 -3 -32 -6 -38 -29 -38 -28 -2 -30 14 -6 61 13 29 8 33 -42 39 -42 5 -60
-10 -60 -52 -1 -27 -6 -58 -12 -69 -3 -6 -6 -22 -7 -37 -1 -14 -11 -50 -22
-78 -11 -29 -19 -54 -18 -55 2 -1 22 -7 45 -12 40 -10 42 -9 49 16 10 34 9 30
17 72 7 32 10 35 40 35 l32 -1 1 -107 0 -107 -68 -25 c-38 -15 -76 -26 -84
-26 -8 0 -14 -2 -14 -4 0 -10 42 -96 46 -96 3 0 18 8 32 19 15 10 41 26 58 34
31 16 32 16 33 -6 6 -85 4 -229 -3 -263 -7 -36 -6 -42 11 -46 11 -3 33 -3 51
0 29 4 31 6 25 36 -7 32 -8 249 -2 301 3 25 11 32 47 45 43 15 43 15 38 54 -3
22 -8 41 -10 43 -2 3 -22 -5 -44 -16 l-40 -20 -6 22 c-9 35 -7 77 4 77 6 0 10
18 10 40 l0 40 40 0 c49 0 56 -2 52 -16 -1 -7 18 -19 42 -27 l44 -15 20 46 20
46 54 0 53 1 0 -58 c0 -56 -1 -57 -30 -62 -16 -3 -57 -3 -90 0 -122 10 -118
11 -118 -35 0 -36 5 -42 35 -41 13 1 68 2 123 2 55 0 129 0 165 0 36 0 104 0
151 0 78 -1 87 1 92 19 13 50 2 56 -101 57 -148 2 -137 -3 -137 58 l0 54 92 6
c98 8 109 14 97 60 -7 29 -36 37 -129 33 l-70 -3 -3 33 c-2 18 2 39 8 47 6 8
10 22 9 32 -1 10 2 26 6 37 11 24 -9 36 -62 36 l-42 0 2 -92z"/>
<path d="M458 483 c-14 -4 -16 -12 -11 -46 8 -57 8 -264 0 -303 -7 -36 7 -44
60 -37 30 5 31 7 28 43 -3 33 -1 38 18 39 12 0 54 3 92 6 91 7 135 -1 133 -23
-4 -50 13 -65 66 -55 l25 5 0 157 c-1 86 0 166 1 179 3 37 25 35 -265 30 -55
-1 -107 1 -115 4 -8 3 -23 4 -32 1z m293 -79 c19 -3 27 -12 29 -27 4 -55 2
-118 -5 -125 -3 -4 -50 -6 -103 -5 -149 3 -140 0 -147 43 -4 22 -2 47 4 59 6
11 8 27 4 36 -5 14 -2 16 13 11 10 -3 25 -2 33 3 15 10 132 13 172 5z"/>
</g>
</svg>
