<?xml version="1.0" standalone="no"?>
<!DOCTYPE svg PUBLIC "-//W3C//DTD SVG 20010904//EN"
 "http://www.w3.org/TR/2001/REC-SVG-20010904/DTD/svg10.dtd">
<svg version="1.0" xmlns="http://www.w3.org/2000/svg"
 width="101.000000pt" height="101.000000pt" viewBox="0 0 101.000000 101.000000"
 preserveAspectRatio="xMidYMid meet">
<metadata>
Created by potrace 1.16, written by Peter Selinger 2001-2019
</metadata>
<g transform="translate(0.000000,101.000000) scale(0.100000,-0.100000)"
fill="#000000" stroke="none">
<path d="M148 993 c-15 -4 -18 -16 -18 -74 0 -39 4 -69 10 -69 6 0 10 -16 10
-35 0 -20 -5 -35 -12 -35 -8 0 -9 -28 -5 -100 3 -56 2 -112 -3 -125 -6 -17 -6
-33 2 -50 8 -18 8 -28 -1 -39 -6 -7 -14 -31 -16 -52 -8 -65 -35 -146 -65 -201
l-29 -51 46 -16 c26 -9 50 -16 54 -16 8 0 43 81 60 140 12 44 14 53 24 115 3
17 5 85 5 153 0 85 3 122 11 122 8 0 10 19 7 58 l-4 57 48 -3 c28 -2 55 1 63
8 10 8 39 10 97 5 l84 -7 -3 -96 c-2 -111 2 -132 25 -132 11 0 13 -3 5 -8 -6
-4 -11 -23 -10 -42 2 -33 0 -35 -28 -32 -16 1 -40 3 -53 3 l-24 1 22 23 c25
26 19 32 -38 41 -39 6 -41 5 -60 -33 -12 -22 -39 -62 -60 -90 l-40 -50 40 -12
c29 -9 37 -16 30 -23 -8 -8 -18 -8 -36 0 -47 21 -82 -8 -69 -57 6 -22 39 -34
62 -22 19 11 103 13 193 5 l66 -6 -3 -46 c-1 -26 -5 -54 -9 -62 -11 -28 10
-44 55 -43 48 2 61 16 49 49 -5 12 -8 40 -7 62 1 47 -10 44 179 44 125 0 137
2 141 19 3 11 3 27 0 38 -4 17 -16 19 -141 19 -185 0 -179 -1 -179 32 0 32 -4
31 144 33 89 1 102 4 106 19 3 10 3 26 0 36 -4 15 -17 18 -106 19 -114 2 -147
4 -147 8 0 2 4 15 10 29 5 14 6 26 2 27 -4 0 -17 2 -29 3 -34 4 -41 16 -10 16
l27 0 -3 110 -2 110 43 0 c23 0 42 5 42 10 0 6 11 10 25 10 14 0 25 -5 25 -11
0 -7 12 -9 34 -5 19 4 37 2 40 -3 7 -11 -92 -50 -137 -54 -42 -3 -44 -19 -7
-51 18 -14 26 -26 20 -26 -14 0 -49 -40 -50 -56 0 -7 21 -17 48 -23 26 -7 72
-23 102 -37 l55 -25 28 32 c15 18 27 37 27 41 0 4 -38 19 -85 33 -47 15 -85
30 -85 34 0 11 46 30 90 36 105 16 105 17 55 60 -30 25 -35 34 -22 35 16 0 18
7 11 70 -5 50 -3 74 6 85 7 8 10 25 7 37 -6 21 -12 23 -96 26 -53 1 -92 -2
-96 -8 -8 -13 -52 -13 -60 0 -8 13 -142 13 -150 1 -7 -12 -172 -13 -180 -1 -3
5 -29 9 -58 8 -29 0 -59 2 -67 5 -8 2 -23 3 -32 0z m378 -84 c4 -7 49 -9 134
-6 l127 4 -1 -26 c-1 -26 -1 -26 -80 -24 -44 2 -84 -1 -90 -6 -15 -12 -147
-13 -161 -1 -7 6 -57 9 -116 8 l-104 -3 -1 25 -1 25 113 -3 c70 -2 115 1 119
8 8 13 52 13 61 -1z m-25 -515 c31 -5 36 -10 36 -35 0 -33 -22 -40 -102 -33
-27 2 -60 4 -72 5 -13 1 -23 4 -23 8 0 15 49 53 59 47 6 -4 19 -2 28 3 21 12
27 13 74 5z"/>
<path d="M285 730 c-24 -47 -14 -61 42 -59 27 1 68 -4 92 -11 42 -11 46 -10
63 12 9 12 18 28 18 34 0 10 -25 21 -50 24 -3 0 -21 5 -40 11 -19 6 -52 13
-72 15 -33 4 -39 2 -53 -26z"/>
<path d="M395 632 c-7 -8 -29 -12 -84 -17 -24 -2 -48 -8 -52 -12 -7 -7 11 -61
27 -82 1 -1 29 6 61 17 32 11 75 23 95 27 39 7 50 21 41 53 -4 17 -13 21 -44
20 -21 0 -41 -3 -44 -6z"/>
</g>
</svg>
