<?xml version="1.0" standalone="no"?>
<!DOCTYPE svg PUBLIC "-//W3C//DTD SVG 20010904//EN"
 "http://www.w3.org/TR/2001/REC-SVG-20010904/DTD/svg10.dtd">
<svg version="1.0" xmlns="http://www.w3.org/2000/svg"
 width="101.000000pt" height="102.000000pt" viewBox="0 0 101.000000 102.000000"
 preserveAspectRatio="xMidYMid meet">
<metadata>
Created by potrace 1.16, written by Peter Selinger 2001-2019
</metadata>
<g transform="translate(0.000000,102.000000) scale(0.100000,-0.100000)"
fill="#000000" stroke="none">
<path d="M608 1013 c-21 -5 -21 -8 -8 -32 5 -10 11 -29 14 -43 l4 -26 -85 4
c-46 2 -89 6 -93 9 -19 12 -60 -8 -66 -30 -12 -47 1 -60 61 -60 30 0 55 3 55
8 0 4 34 7 75 7 50 0 75 -4 75 -12 0 -8 30 -9 111 -4 78 4 116 3 125 -5 19
-15 61 -3 69 20 18 57 -25 93 -84 73 -17 -6 -55 -8 -85 -5 -55 6 -59 9 -71 61
-8 32 -15 38 -46 39 -19 0 -42 -1 -51 -4z"/>
<path d="M182 935 c0 -33 4 -65 10 -72 5 -6 8 -24 6 -39 -2 -21 -9 -28 -31
-30 -24 -2 -27 0 -22 14 4 9 9 31 11 49 5 37 -11 50 -63 51 -37 1 -43 -10 -41
-84 1 -28 -1 -55 -5 -61 -4 -6 -6 -26 -5 -44 0 -19 -5 -54 -11 -78 -15 -51 -8
-61 42 -65 32 -3 36 0 43 28 7 30 10 45 13 77 0 10 11 16 30 16 22 0 29 -5 30
-21 1 -12 3 -43 5 -71 8 -93 3 -101 -77 -128 l-72 -24 0 -37 c-1 -67 12 -73
82 -37 71 35 63 49 65 -114 1 -55 -2 -116 -6 -136 -7 -31 -5 -37 11 -41 10 -3
34 -3 51 0 31 4 32 6 26 37 -3 18 -1 42 5 53 8 15 7 31 -4 61 -9 26 -12 64
-10 103 8 114 7 110 50 125 22 7 45 20 51 29 10 13 12 12 12 -8 1 -13 4 -39 7
-58 15 -84 15 -206 1 -253 -23 -76 -7 -100 61 -90 39 6 46 35 26 101 -9 33
-12 75 -8 137 3 50 6 100 6 111 1 15 8 22 23 23 11 1 44 3 71 6 28 2 100 1
161 -2 105 -5 112 -7 113 -27 0 -11 3 -57 6 -101 3 -44 3 -95 0 -113 -6 -31
-7 -32 -50 -28 -25 2 -45 1 -45 -1 0 -2 7 -27 16 -54 l17 -50 42 4 c23 3 55
12 71 20 l29 15 1 139 c1 76 4 154 7 173 19 103 21 100 -80 99 -49 0 -115 0
-148 0 -33 0 -103 -1 -155 -4 -52 -2 -102 1 -111 6 -11 5 -27 5 -43 -1 -19 -7
-26 -6 -26 3 0 6 -4 18 -9 26 -7 11 -15 10 -46 -9 -20 -12 -38 -20 -41 -17 -5
5 -7 90 -4 134 2 24 43 35 79 22 30 -12 54 16 47 54 -8 40 -8 40 -70 45 l-53
4 4 52 c4 59 9 105 14 125 3 11 -9 14 -52 15 l-57 1 0 -60z"/>
<path d="M450 790 c-12 -7 -15 -31 -15 -104 0 -52 3 -97 7 -101 9 -9 42 -9 98
0 100 15 215 16 256 1 23 -8 46 -11 52 -7 14 8 21 195 9 208 -12 12 -389 15
-407 3z m325 -106 c0 -30 -4 -35 -30 -39 -16 -3 -64 -3 -105 0 -41 3 -84 6
-95 6 -15 1 -20 9 -21 33 l0 31 125 2 126 2 0 -35z"/>
<path d="M538 423 c-13 -3 -15 -12 -11 -41 8 -59 8 -94 -1 -134 l-8 -38 43 6
c70 9 172 9 198 0 l24 -8 -6 67 c-4 37 -2 75 3 85 5 9 7 26 4 36 -5 18 -14 20
-102 20 -53 -1 -104 2 -112 5 -8 4 -22 5 -32 2z m157 -108 c0 -37 -2 -40 -25
-37 -14 2 -35 3 -46 4 -18 0 -22 6 -21 34 1 26 5 33 16 29 9 -2 23 0 31 5 29
19 45 7 45 -35z"/>
</g>
</svg>
