<?xml version="1.0" standalone="no"?>
<!DOCTYPE svg PUBLIC "-//W3C//DTD SVG 20010904//EN"
 "http://www.w3.org/TR/2001/REC-SVG-20010904/DTD/svg10.dtd">
<svg version="1.0" xmlns="http://www.w3.org/2000/svg"
 width="101.000000pt" height="101.000000pt" viewBox="0 0 101.000000 101.000000"
 preserveAspectRatio="xMidYMid meet">
<metadata>
Created by potrace 1.16, written by Peter Selinger 2001-2019
</metadata>
<g transform="translate(0.000000,101.000000) scale(0.100000,-0.100000)"
fill="#000000" stroke="none">
<path d="M658 988 c-26 -9 -26 -10 -13 -42 8 -19 16 -49 18 -67 l4 -34 -103 1
-103 1 -6 -28 c-4 -16 -3 -34 0 -40 10 -14 10 -193 1 -207 -4 -7 -7 -47 -6
-89 2 -147 -21 -218 -97 -295 -26 -26 -45 -49 -42 -50 2 -2 23 -13 47 -26 l43
-23 27 32 c39 46 62 87 85 144 37 97 42 133 49 375 l3 115 185 0 c112 0 188 4
192 10 26 34 -7 104 -41 86 -9 -5 -45 -7 -79 -4 -49 5 -61 9 -59 22 1 9 -6 41
-16 72 -18 61 -30 67 -89 47z"/>
<path d="M318 943 c-10 -16 -28 -41 -41 -57 l-24 -30 -51 44 -52 43 -36 -28
-36 -27 51 -45 c28 -25 51 -49 51 -54 0 -9 -110 -94 -132 -101 -11 -4 47 -67
62 -68 3 0 32 22 65 49 61 51 80 51 70 2 -10 -53 -112 -185 -171 -222 l-35
-21 38 -39 38 -38 48 51 c27 28 63 72 80 98 l32 47 -2 -78 c-1 -43 -4 -83 -8
-88 -3 -5 -4 -23 -3 -39 4 -60 -36 -112 -81 -103 -8 1 -29 0 -47 -4 l-34 -6
28 -52 c15 -28 31 -55 36 -58 11 -9 127 37 147 59 24 26 52 109 55 166 2 28 6
77 10 109 6 47 4 61 -11 77 -13 15 -16 29 -11 68 3 27 3 52 -1 56 -4 4 -8 12
-9 19 -1 7 -9 30 -17 52 -8 22 -12 47 -9 55 7 23 63 80 95 96 15 8 25 19 21
25 -7 12 -84 69 -93 69 -4 0 -14 -12 -23 -27z"/>
</g>
</svg>
