<?xml version="1.0" standalone="no"?>
<!DOCTYPE svg PUBLIC "-//W3C//DTD SVG 20010904//EN"
 "http://www.w3.org/TR/2001/REC-SVG-20010904/DTD/svg10.dtd">
<svg version="1.0" xmlns="http://www.w3.org/2000/svg"
 width="101.000000pt" height="101.000000pt" viewBox="0 0 101.000000 101.000000"
 preserveAspectRatio="xMidYMid meet">
<metadata>
Created by potrace 1.16, written by Peter Selinger 2001-2019
</metadata>
<g transform="translate(0.000000,101.000000) scale(0.100000,-0.100000)"
fill="#000000" stroke="none">
<path d="M269 1003 c-18 -4 -25 -68 -9 -78 13 -8 11 -173 -1 -181 -6 -3 -9
-38 -8 -77 l2 -71 -107 -103 -108 -103 29 -47 c16 -26 33 -48 38 -49 6 -2 42
39 80 89 l70 93 0 -162 c0 -89 -3 -166 -7 -170 -28 -27 8 -74 57 -74 33 0 70
24 61 39 -3 4 -7 20 -10 35 -6 31 -1 29 57 -23 l29 -26 50 55 c52 56 123 186
134 247 6 32 24 47 24 19 0 -22 48 -125 81 -172 16 -23 52 -66 79 -94 l51 -52
44 48 c25 26 45 49 45 51 0 1 -18 14 -41 28 -89 57 -184 189 -193 271 -2 16
-5 31 -6 34 -1 3 -1 14 -1 26 1 11 -5 27 -13 34 -9 7 -16 20 -16 29 0 15 15
16 134 15 l134 -2 6 33 c11 59 -17 85 -72 69 -15 -4 -65 -8 -112 -8 l-85 -1 2
40 c4 72 13 170 19 198 7 30 8 29 -68 31 -59 1 -61 -5 -52 -160 l7 -115 -102
7 c-112 8 -121 4 -121 -48 0 -45 23 -58 93 -53 116 8 106 11 108 -31 1 -27 -2
-51 -16 -117 -10 -51 -45 -134 -76 -181 -29 -43 -104 -116 -120 -116 -9 0 -10
27 -9 378 1 67 1 139 1 160 0 67 9 206 15 239 5 29 3 34 -21 43 -27 10 -47 11
-76 3z"/>
<path d="M780 923 c-19 -8 -37 -17 -39 -19 -2 -2 11 -37 30 -79 36 -82 31 -80
106 -48 l34 14 -32 57 c-44 78 -53 92 -59 91 -3 0 -21 -7 -40 -16z"/>
<path d="M80 838 c-19 -12 -37 -23 -38 -24 -2 -1 14 -29 36 -61 21 -32 47 -74
57 -93 10 -19 19 -37 21 -39 6 -7 84 49 84 60 0 16 -111 179 -121 179 -2 0
-20 -10 -39 -22z"/>
</g>
</svg>
