<?xml version="1.0" standalone="no"?>
<!DOCTYPE svg PUBLIC "-//W3C//DTD SVG 20010904//EN"
 "http://www.w3.org/TR/2001/REC-SVG-20010904/DTD/svg10.dtd">
<svg version="1.0" xmlns="http://www.w3.org/2000/svg"
 width="101.000000pt" height="101.000000pt" viewBox="0 0 101.000000 101.000000"
 preserveAspectRatio="xMidYMid meet">
<metadata>
Created by potrace 1.16, written by Peter Selinger 2001-2019
</metadata>
<g transform="translate(0.000000,101.000000) scale(0.100000,-0.100000)"
fill="#000000" stroke="none">
<path d="M300 918 l-43 -62 -48 52 c-26 29 -50 52 -54 52 -10 0 -65 -43 -65
-51 0 -4 24 -30 52 -58 l53 -50 -25 -25 c-13 -15 -47 -41 -74 -58 -28 -18 -53
-33 -54 -34 -2 -2 9 -18 24 -38 33 -40 34 -40 117 34 36 33 58 47 60 38 2 -7
9 -27 14 -45 10 -29 7 -35 -32 -85 -41 -51 -103 -112 -158 -153 l-27 -20 35
-40 34 -40 26 25 c21 20 74 82 144 172 7 8 4 -149 -3 -199 -11 -82 -39 -106
-116 -99 -27 3 -50 3 -50 0 0 -3 9 -22 20 -44 11 -22 20 -47 20 -56 0 -13 7
-15 38 -10 143 26 190 113 185 341 -2 93 -4 110 -20 143 -9 18 -13 35 -10 38
3 4 -6 38 -20 77 l-26 71 57 53 c62 57 86 67 79 31 -7 -46 27 -61 107 -46 24
5 25 3 21 -41 -2 -25 -5 -73 -7 -106 -2 -33 -3 -62 -3 -65 -1 -3 -36 -5 -78
-5 l-78 0 -3 -30 c-4 -50 10 -60 80 -60 l63 0 -2 -40 c-2 -22 -5 -65 -8 -95
-3 -30 -7 -71 -8 -90 -2 -29 -7 -36 -35 -44 -21 -6 -40 -5 -56 2 -49 22 -79
-5 -69 -62 5 -24 21 -33 48 -26 45 11 142 14 320 9 33 0 73 2 89 6 16 5 51 2
82 -5 30 -7 57 -11 60 -7 7 7 10 75 3 82 -9 8 -72 9 -99 1 l-25 -7 2 68 c1 37
4 84 7 103 7 44 18 180 24 285 2 44 6 109 9 145 l4 65 -58 -2 c-32 0 -95 -4
-141 -8 -52 -4 -87 -3 -95 3 -7 6 -35 11 -62 11 -82 1 -88 3 -132 32 -23 16
-43 29 -45 29 -2 0 -24 -28 -48 -62z m471 -138 c-2 -30 -4 -81 -5 -113 l-1
-59 -35 6 c-19 3 -50 6 -67 6 -31 0 -32 1 -23 26 6 14 10 39 10 57 0 18 3 55
6 82 l6 50 56 0 57 0 -4 -55z m-21 -393 c-6 -19 -6 -36 2 -52 6 -13 8 -35 4
-48 -5 -20 -14 -27 -45 -32 -23 -4 -48 -2 -60 4 -11 6 -27 8 -36 5 -14 -6 -16
1 -10 62 4 38 9 80 11 94 3 14 6 41 7 60 l2 35 60 5 60 5 8 -55 c4 -31 3 -67
-3 -83z"/>
</g>
</svg>
