<?xml version="1.0" standalone="no"?>
<!DOCTYPE svg PUBLIC "-//W3C//DTD SVG 20010904//EN"
 "http://www.w3.org/TR/2001/REC-SVG-20010904/DTD/svg10.dtd">
<svg version="1.0" xmlns="http://www.w3.org/2000/svg"
 width="101.000000pt" height="101.000000pt" viewBox="0 0 101.000000 101.000000"
 preserveAspectRatio="xMidYMid meet">
<metadata>
Created by potrace 1.16, written by Peter Selinger 2001-2019
</metadata>
<g transform="translate(0.000000,101.000000) scale(0.100000,-0.100000)"
fill="#000000" stroke="none">
<path d="M310 991 c0 -5 -18 -32 -40 -60 l-41 -51 -47 45 c-25 25 -49 45 -52
45 -3 0 -21 -14 -40 -30 -33 -28 -34 -31 -16 -41 10 -6 36 -27 57 -46 l39 -35
-37 -29 c-20 -16 -52 -39 -72 -51 -20 -12 -37 -22 -39 -23 -1 -1 13 -18 32
-38 l35 -37 63 54 c63 54 77 56 72 10 -6 -54 -126 -209 -188 -241 -17 -9 -16
-13 20 -46 l39 -36 29 27 c15 15 49 54 74 87 25 33 48 63 51 67 6 7 5 -153 -2
-187 -13 -68 -21 -87 -49 -106 -24 -17 -34 -19 -53 -11 -13 6 -32 8 -43 5 -20
-5 -20 -6 4 -50 13 -25 24 -52 24 -60 0 -18 39 -9 110 25 58 28 69 43 94 128
19 64 26 300 9 327 -4 7 -8 21 -10 32 -5 36 -9 49 -22 80 -23 54 -20 72 18
108 76 72 76 72 79 -76 4 -202 3 -316 -3 -382 -3 -33 -1 -67 4 -75 9 -13 76
-19 87 -7 3 2 6 23 7 45 l1 40 51 4 50 3 2 -50 c3 -50 4 -126 4 -167 0 -91 7
-101 61 -91 23 4 24 6 21 95 -2 50 1 96 6 102 5 6 8 34 8 61 l-2 50 57 1 c47
2 57 -1 56 -15 -4 -59 10 -72 68 -64 l29 5 3 124 c2 82 -1 124 -7 124 -7 0
-11 31 -11 80 0 47 4 80 10 80 6 0 10 18 10 40 0 22 -4 40 -10 40 -5 0 -10 25
-10 55 0 30 5 55 10 55 6 0 10 7 10 15 0 12 -16 14 -82 14 -46 0 -111 0 -145
0 -35 0 -93 0 -130 0 -38 0 -86 2 -107 3 -24 1 -41 -3 -44 -10 -2 -8 -19 -1
-47 18 -47 32 -55 35 -55 21z m505 -186 l0 -80 -55 0 -55 0 0 76 c0 71 1 75
21 71 12 -2 25 1 29 8 4 6 19 10 33 8 26 -3 26 -4 27 -83z m-207 -4 l2 -79
-56 2 -56 1 6 50 c3 28 6 60 6 72 0 22 15 29 70 32 24 1 25 -1 28 -78z m10
-232 l-3 -71 -60 -1 -60 -1 -3 42 c-2 25 1 42 7 42 6 0 11 12 11 28 0 26 2 27
56 29 l55 2 -3 -70z m197 -4 l0 -70 -55 0 -55 0 3 67 c4 73 4 73 77 73 l30 0
0 -70z"/>
</g>
</svg>
