<?xml version="1.0" standalone="no"?>
<!DOCTYPE svg PUBLIC "-//W3C//DTD SVG 20010904//EN"
 "http://www.w3.org/TR/2001/REC-SVG-20010904/DTD/svg10.dtd">
<svg version="1.0" xmlns="http://www.w3.org/2000/svg"
 width="101.000000pt" height="101.000000pt" viewBox="0 0 101.000000 101.000000"
 preserveAspectRatio="xMidYMid meet">
<metadata>
Created by potrace 1.16, written by Peter Selinger 2001-2019
</metadata>
<g transform="translate(0.000000,101.000000) scale(0.100000,-0.100000)"
fill="#000000" stroke="none">
<path d="M522 978 c0 -18 4 -38 9 -45 6 -6 9 -24 7 -40 -3 -28 -4 -28 -73 -28
-79 0 -95 -7 -95 -38 0 -45 14 -52 95 -49 l76 2 -3 -47 -3 -48 -77 2 -76 2 0
-67 c1 -37 5 -74 11 -83 7 -11 6 -31 -1 -62 -17 -67 -17 -68 31 -62 97 11 92
12 92 -19 2 -70 -75 -180 -155 -221 -29 -15 -33 -35 -6 -35 7 0 27 -11 46 -25
l34 -25 24 23 c45 42 102 139 124 211 12 39 21 76 20 81 -1 6 16 11 37 12 33
2 39 -1 40 -20 0 -12 3 -59 6 -104 3 -45 2 -107 -3 -137 -10 -61 -4 -67 55
-59 30 5 31 7 25 42 -6 30 -7 183 -1 257 1 15 8 22 23 22 11 1 32 2 46 4 21 3
25 -1 22 -22 -1 -14 -3 -41 -5 -60 -2 -34 -4 -35 -40 -34 -36 0 -38 -1 -31
-25 6 -23 10 -48 13 -74 1 -12 75 -1 110 17 17 9 32 24 32 34 3 49 8 92 14
137 8 53 9 94 4 100 -2 2 -27 -1 -54 -6 -28 -5 -61 -6 -75 -2 -14 4 -34 7 -45
7 -17 1 -20 7 -17 36 1 19 3 45 3 56 1 23 8 25 105 25 l51 0 1 124 1 124 -55
7 c-30 3 -64 4 -77 2 -21 -4 -22 -1 -21 46 1 28 5 59 9 69 8 18 7 19 -64 21
l-44 1 6 -70 5 -70 -32 0 c-31 0 -31 0 -29 50 1 28 4 57 8 66 5 12 -2 18 -26
23 -65 13 -76 9 -77 -26z m153 -246 c0 -46 -1 -48 -27 -44 -25 4 -28 8 -28 42
0 32 4 39 23 43 12 2 24 5 27 6 3 0 5 -21 5 -47z m157 -12 c3 -34 2 -35 -32
-35 -34 -1 -35 0 -35 40 0 37 2 40 30 45 32 5 32 5 37 -50z m-303 -134 c0 -11
2 -37 3 -56 3 -35 3 -35 -37 -35 -40 0 -40 0 -37 35 1 19 3 44 3 56 1 16 8 20
34 21 27 1 33 -3 34 -21z m150 0 c0 -11 2 -37 3 -56 3 -35 3 -35 -37 -35 -40
0 -40 0 -37 35 1 19 3 44 3 56 1 16 8 20 34 21 27 1 33 -3 34 -21z"/>
<path d="M100 956 l-34 -36 40 -43 c71 -75 71 -69 2 -117 -35 -24 -65 -45 -67
-46 -5 -4 52 -72 62 -73 4 -1 30 19 57 45 26 25 51 41 54 36 3 -5 6 -27 7 -49
2 -33 -4 -50 -35 -91 -20 -29 -62 -74 -93 -100 l-56 -49 28 -37 c15 -20 31
-36 36 -36 4 0 39 38 77 84 54 66 70 80 71 63 1 -33 7 -69 15 -100 5 -16 4
-38 -3 -55 -6 -15 -13 -38 -16 -52 -5 -27 -60 -80 -83 -80 -7 0 -21 4 -31 9
-10 6 -27 7 -39 4 l-22 -5 20 -28 c11 -16 23 -42 26 -59 6 -27 10 -29 37 -26
54 7 139 57 161 94 16 28 20 56 22 145 2 61 3 120 4 131 2 21 -5 81 -15 125
-2 14 -7 34 -9 45 -2 11 -9 40 -16 65 -23 83 -22 85 41 136 33 26 59 51 59 55
0 9 -75 69 -86 69 -5 -1 -25 -26 -44 -56 l-35 -56 -25 33 c-14 18 -36 46 -50
62 l-25 28 -35 -35z"/>
</g>
</svg>
