<?xml version="1.0" standalone="no"?>
<!DOCTYPE svg PUBLIC "-//W3C//DTD SVG 20010904//EN"
 "http://www.w3.org/TR/2001/REC-SVG-20010904/DTD/svg10.dtd">
<svg version="1.0" xmlns="http://www.w3.org/2000/svg"
 width="101.000000pt" height="101.000000pt" viewBox="0 0 101.000000 101.000000"
 preserveAspectRatio="xMidYMid meet">
<metadata>
Created by potrace 1.16, written by Peter Selinger 2001-2019
</metadata>
<g transform="translate(0.000000,101.000000) scale(0.100000,-0.100000)"
fill="#000000" stroke="none">
<path d="M286 934 l-38 -56 -48 47 -48 47 -36 -27 c-20 -15 -36 -29 -36 -32 0
-2 23 -26 52 -52 l51 -47 -49 -36 c-27 -20 -61 -42 -76 -49 l-27 -12 32 -38
c18 -21 36 -39 41 -39 4 0 34 23 67 50 54 48 58 50 68 31 21 -38 18 -66 -9
-106 -34 -49 -101 -112 -155 -144 -22 -14 -42 -26 -44 -28 -7 -5 62 -73 75
-73 6 0 48 38 93 85 70 73 81 81 81 60 0 -14 5 -25 10 -25 13 0 13 -93 1 -105
-6 -6 -13 -25 -16 -44 -13 -76 -37 -94 -120 -93 l-65 0 18 -31 c11 -18 22 -44
26 -59 8 -33 22 -35 92 -12 63 21 97 53 125 118 27 62 31 88 32 186 1 119 -8
165 -48 262 -15 34 -29 70 -31 78 -6 19 68 106 96 115 11 4 20 13 20 20 0 15
-67 65 -85 65 -5 -1 -27 -26 -49 -56z"/>
<path d="M435 926 c-4 -19 -2 -42 3 -52 6 -12 8 -84 5 -182 -3 -107 -1 -167 6
-176 13 -16 13 -154 0 -162 -6 -3 -7 -25 -3 -51 5 -37 3 -50 -15 -74 l-21 -29
20 -39 c11 -22 24 -42 29 -45 5 -3 33 10 63 30 29 20 74 47 99 60 45 22 46 25
47 68 1 25 -3 48 -8 51 -6 3 -25 -5 -42 -18 -18 -13 -45 -32 -60 -41 l-27 -18
2 151 2 151 26 0 c25 0 54 -21 44 -31 -7 -8 50 -154 81 -206 34 -58 105 -136
150 -164 l34 -21 42 36 c23 20 45 36 50 36 24 0 0 19 -60 48 -38 18 -82 46
-97 62 l-29 30 30 31 c16 17 50 43 77 58 52 31 51 33 -17 75 l-28 18 -58 -57
-57 -56 -12 28 c-6 15 -15 43 -20 61 l-10 32 77 2 c42 0 90 0 106 -1 26 -2 28
0 22 21 -12 42 -18 228 -8 241 6 7 11 37 11 67 1 30 1 63 2 74 0 10 -1 20 -3
22 -2 1 -50 -2 -108 -8 -79 -9 -105 -9 -108 0 -4 14 -82 16 -82 2 0 -5 -25
-10 -55 -10 -30 0 -55 5 -55 10 0 6 -9 10 -20 10 -14 0 -21 -9 -25 -34z m330
-42 c28 -5 30 -8 30 -53 l0 -48 -130 1 -130 1 4 43 c2 33 7 42 21 42 11 0 22
4 25 10 6 10 127 13 180 4z m-14 -170 l44 -6 0 -42 0 -42 -130 0 -130 1 4 38
3 37 48 0 c27 0 52 5 55 10 7 11 42 13 106 4z"/>
</g>
</svg>
