<?xml version="1.0" standalone="no"?>
<!DOCTYPE svg PUBLIC "-//W3C//DTD SVG 20010904//EN"
 "http://www.w3.org/TR/2001/REC-SVG-20010904/DTD/svg10.dtd">
<svg version="1.0" xmlns="http://www.w3.org/2000/svg"
 width="101.000000pt" height="101.000000pt" viewBox="0 0 101.000000 101.000000"
 preserveAspectRatio="xMidYMid meet">
<metadata>
Created by potrace 1.16, written by Peter Selinger 2001-2019
</metadata>
<g transform="translate(0.000000,101.000000) scale(0.100000,-0.100000)"
fill="#000000" stroke="none">
<path d="M630 1000 c0 -4 5 -10 11 -12 8 -3 9 -33 4 -104 l-7 -99 -101 2 c-56
1 -111 5 -123 9 -13 3 -27 -1 -38 -11 -27 -27 -16 -89 15 -85 27 4 104 -2 87
-7 -22 -5 -29 -33 -25 -98 l3 -50 -53 0 c-29 0 -53 4 -54 10 0 5 -3 24 -5 40
-3 17 -6 37 -6 45 0 8 -5 21 -11 28 -5 6 -7 12 -4 12 4 0 -2 20 -13 44 l-19
44 54 51 c30 28 59 51 64 51 6 0 11 4 11 9 0 12 -63 51 -81 51 -8 -1 -29 -21
-48 -46 l-33 -46 -33 47 c-19 25 -40 56 -48 68 l-14 21 -36 -23 c-43 -26 -44
-31 -16 -57 12 -10 35 -39 52 -63 l30 -44 -24 -20 c-13 -11 -48 -33 -77 -50
l-53 -30 33 -36 c18 -20 34 -37 34 -39 1 -1 29 20 62 48 l60 50 10 -27 c7 -22
5 -37 -10 -67 -20 -39 -117 -143 -173 -185 l-29 -22 39 -34 40 -34 33 37 c18
20 55 65 81 99 44 57 48 60 49 35 2 -37 7 -72 16 -105 5 -17 4 -32 -3 -41 -6
-8 -14 -31 -16 -52 -6 -42 -15 -56 -57 -86 -24 -16 -34 -18 -53 -10 -13 6 -32
8 -43 6 -19 -5 -19 -6 -1 -42 11 -20 19 -44 19 -52 0 -19 15 -19 75 -2 103 30
147 92 152 217 1 39 3 80 4 91 1 15 8 22 23 22 11 1 32 2 46 4 24 3 25 1 24
-57 -1 -77 -29 -134 -100 -201 l-54 -51 41 -26 c22 -15 45 -27 50 -27 14 0 87
103 114 163 23 50 33 100 36 184 1 20 5 22 33 16 17 -3 41 -6 54 -6 12 1 23
-2 23 -6 1 -3 3 -17 5 -31 6 -49 12 -79 18 -88 6 -10 -87 -102 -142 -141 l-33
-23 47 -30 47 -30 63 69 c35 37 63 63 64 57 0 -20 88 -111 120 -124 36 -15 75
-7 85 17 9 22 44 148 42 148 -1 0 -21 10 -45 22 l-43 22 -9 -23 c-4 -13 -8
-29 -8 -37 4 -63 -10 -63 -57 2 l-38 50 41 87 c22 48 43 98 47 112 4 14 18 44
31 67 13 23 24 44 24 46 0 3 -21 13 -46 23 -45 17 -47 17 -58 -2 -6 -10 -12
-26 -13 -34 -7 -61 -46 -171 -51 -145 -2 11 -6 27 -10 35 -4 8 -7 56 -7 106
l0 92 80 7 c45 3 93 3 107 0 21 -5 27 -3 33 15 16 51 -32 102 -69 71 -7 -6
-43 -10 -83 -8 l-70 2 4 65 c1 36 5 84 8 108 3 23 2 43 -2 43 -42 7 -103 6
-103 -1z m-15 -286 c18 -4 20 -14 21 -87 l1 -82 -43 3 c-41 4 -42 4 -48 50 -4
29 -2 48 4 50 21 7 10 42 -15 48 -14 3 -22 10 -19 15 6 10 67 12 99 3z"/>
<path d="M765 926 l-30 -24 31 -28 c16 -16 39 -42 51 -59 l21 -29 36 28 c41
31 42 29 -23 99 -19 20 -40 37 -46 37 -5 0 -23 -11 -40 -24z"/>
</g>
</svg>
