<?xml version="1.0" standalone="no"?>
<!DOCTYPE svg PUBLIC "-//W3C//DTD SVG 20010904//EN"
 "http://www.w3.org/TR/2001/REC-SVG-20010904/DTD/svg10.dtd">
<svg version="1.0" xmlns="http://www.w3.org/2000/svg"
 width="101.000000pt" height="101.000000pt" viewBox="0 0 101.000000 101.000000"
 preserveAspectRatio="xMidYMid meet">
<metadata>
Created by potrace 1.16, written by Peter Selinger 2001-2019
</metadata>
<g transform="translate(0.000000,101.000000) scale(0.100000,-0.100000)"
fill="#000000" stroke="none">
<path d="M614 998 l-31 -10 23 -57 c33 -78 32 -84 -13 -77 -80 13 -154 11
-163 -4 -13 -20 -12 -47 1 -56 7 -4 10 -32 7 -73 -3 -63 -2 -66 21 -69 12 -2
33 -1 45 2 20 5 23 13 25 58 1 28 3 53 4 54 1 1 69 5 150 8 143 5 148 5 142
-14 -3 -10 -3 -34 0 -52 6 -32 8 -33 56 -33 46 0 55 5 49 30 -1 6 -2 30 -1 55
4 86 3 93 -11 101 -7 5 -22 7 -33 4 -27 -8 -185 -8 -193 -1 -3 3 3 6 13 6 14
0 17 6 12 33 -3 18 -12 50 -21 70 -16 39 -27 43 -82 25z m56 -132 c0 -2 -7 -6
-15 -10 -8 -3 -15 -1 -15 4 0 6 7 10 15 10 8 0 15 -2 15 -4z"/>
<path d="M87 952 c-15 -15 -27 -31 -27 -34 0 -4 27 -33 61 -64 l60 -58 -23
-18 c-13 -11 -49 -37 -81 -59 l-58 -40 33 -39 c18 -21 35 -39 38 -39 3 -1 33
26 68 58 34 33 64 56 66 53 2 -4 6 -21 7 -39 5 -41 -55 -128 -144 -208 l-63
-58 38 -35 39 -35 26 24 c14 13 51 58 82 99 l56 75 2 -55 c2 -30 4 -75 5 -100
4 -106 -51 -186 -113 -163 -16 6 -38 9 -49 6 -21 -6 -21 -6 -2 -27 11 -11 25
-37 31 -56 12 -40 25 -43 97 -22 95 28 123 76 118 201 -2 46 0 89 5 95 10 12
8 85 -3 151 -4 22 -7 49 -7 60 0 10 -3 24 -8 30 -4 5 -18 39 -30 73 l-23 64
23 25 c13 13 38 33 56 44 18 12 33 27 33 34 0 7 -16 27 -35 44 -36 31 -65 40
-65 20 0 -6 -13 -30 -30 -54 l-30 -44 -57 60 c-31 32 -59 59 -63 59 -3 0 -18
-13 -33 -28z"/>
<path d="M703 712 c-8 -5 -12 -28 -10 -64 l3 -56 -65 -7 c-45 -5 -66 -4 -69 4
-2 7 -35 11 -87 11 -81 0 -83 -1 -89 -26 -4 -14 -4 -34 -1 -44 7 -21 42 -32
64 -21 20 11 116 13 192 5 49 -5 57 -9 58 -27 0 -12 3 -60 6 -107 3 -47 2
-105 -3 -130 l-8 -45 -52 2 c-29 1 -52 0 -52 -3 0 -3 7 -18 15 -35 9 -16 13
-34 10 -38 -3 -5 -3 -16 1 -24 6 -17 39 -16 99 1 72 22 70 14 72 194 1 90 2
173 3 184 2 23 10 25 107 25 47 0 53 2 59 23 13 55 5 61 -81 61 l-80 0 2 30
c1 17 5 40 9 53 3 12 2 23 -2 23 -37 6 -52 8 -69 14 -11 3 -26 2 -32 -3z"/>
<path d="M500 467 c-19 -6 -36 -11 -38 -12 -1 -1 11 -31 28 -66 16 -35 30 -70
30 -77 0 -7 7 -15 15 -18 21 -9 85 15 85 32 0 20 -68 154 -78 153 -4 -1 -23
-6 -42 -12z"/>
</g>
</svg>
