<?xml version="1.0" standalone="no"?>
<!DOCTYPE svg PUBLIC "-//W3C//DTD SVG 20010904//EN"
 "http://www.w3.org/TR/2001/REC-SVG-20010904/DTD/svg10.dtd">
<svg version="1.0" xmlns="http://www.w3.org/2000/svg"
 width="101.000000pt" height="101.000000pt" viewBox="0 0 101.000000 101.000000"
 preserveAspectRatio="xMidYMid meet">
<metadata>
Created by potrace 1.16, written by Peter Selinger 2001-2019
</metadata>
<g transform="translate(0.000000,101.000000) scale(0.100000,-0.100000)"
fill="#000000" stroke="none">
<path d="M586 978 c-10 -51 -53 -137 -93 -186 -50 -61 -154 -137 -164 -120 -4
6 -6 15 -3 19 2 4 -2 22 -10 40 -8 19 -14 39 -14 44 1 20 62 87 95 103 18 9
32 20 30 26 -6 17 -99 62 -103 50 -3 -6 -19 -30 -36 -54 l-32 -43 -51 58 -51
57 -30 -15 c-59 -32 -59 -30 8 -95 l63 -62 -30 -24 c-23 -19 -112 -70 -143
-82 -1 -1 13 -17 31 -37 l33 -37 53 38 c30 20 62 43 72 51 17 12 19 11 19 -8
0 -12 4 -30 10 -40 17 -33 -79 -171 -173 -247 l-39 -32 29 -40 c15 -23 31 -41
35 -42 11 0 104 114 134 165 14 25 27 45 27 45 5 0 -10 -201 -18 -245 -11 -56
-59 -74 -134 -50 -13 4 -21 3 -19 -1 2 -5 15 -33 28 -61 22 -49 26 -52 55 -49
83 10 133 52 158 132 18 55 27 307 14 374 l-6 35 30 -34 31 -33 30 28 c19 18
29 23 25 12 -10 -30 16 -51 54 -44 19 3 59 6 91 6 31 -1 59 4 63 10 8 14 64
13 120 -2 39 -11 48 -10 55 2 6 8 8 21 5 28 -3 8 4 6 21 -5 25 -16 26 -16 68
33 l43 48 -54 22 c-78 32 -128 68 -164 117 -45 62 -63 108 -49 130 8 14 6 19
-14 27 -13 5 -33 6 -45 3 -12 -3 -21 -1 -21 6 0 26 -28 8 -34 -21z m84 -169
c17 -28 51 -72 75 -98 l44 -47 -145 1 c-79 0 -144 1 -144 3 0 2 23 30 51 64
28 34 58 76 67 95 9 18 17 33 18 33 1 0 16 -23 34 -51z"/>
<path d="M393 499 c-17 -6 -23 -16 -23 -38 0 -32 25 -65 42 -55 16 10 138 11
138 1 0 -18 -43 -91 -76 -126 -19 -21 -49 -44 -67 -52 -17 -7 -33 -13 -35 -15
-2 -1 2 -21 9 -44 13 -42 48 -68 71 -54 6 4 29 9 52 11 22 2 57 6 76 9 19 3
60 7 90 9 30 2 67 7 82 10 23 6 30 2 47 -26 12 -19 22 -38 24 -43 1 -5 26 4
55 18 l53 27 -37 52 c-21 29 -60 80 -87 114 l-48 63 -27 -17 c-54 -34 -55 -34
-29 -62 49 -55 49 -56 4 -58 -23 -2 -68 -3 -101 -3 -32 0 -68 -5 -79 -12 -26
-13 23 51 96 127 44 45 46 51 30 62 -14 11 -2 13 73 15 49 1 109 1 133 0 49
-2 61 7 61 51 0 36 -40 54 -86 38 -19 -7 -69 -9 -137 -4 -78 4 -107 3 -107 -5
0 -8 -25 -12 -75 -12 -41 0 -75 4 -75 9 0 14 -23 19 -47 10z"/>
</g>
</svg>
