<?xml version="1.0" standalone="no"?>
<!DOCTYPE svg PUBLIC "-//W3C//DTD SVG 20010904//EN"
 "http://www.w3.org/TR/2001/REC-SVG-20010904/DTD/svg10.dtd">
<svg version="1.0" xmlns="http://www.w3.org/2000/svg"
 width="101.000000pt" height="101.000000pt" viewBox="0 0 101.000000 101.000000"
 preserveAspectRatio="xMidYMid meet">
<metadata>
Created by potrace 1.16, written by Peter Selinger 2001-2019
</metadata>
<g transform="translate(0.000000,101.000000) scale(0.100000,-0.100000)"
fill="#000000" stroke="none">
<path d="M550 948 c-29 -80 -113 -200 -178 -256 -29 -25 -52 -41 -51 -36 2 5
-5 36 -15 69 l-18 60 34 28 c18 16 45 36 61 45 15 9 27 19 27 22 0 9 -72 80
-79 80 -3 -1 -23 -23 -44 -50 -21 -28 -42 -50 -47 -50 -4 0 -27 25 -50 55 -23
30 -45 55 -48 55 -3 0 -21 -14 -39 -32 l-33 -32 52 -54 51 -54 -29 -24 c-16
-12 -47 -33 -69 -45 l-41 -22 21 -43 c11 -24 23 -43 27 -44 4 0 35 23 70 51
l63 50 13 -32 c12 -29 11 -35 -14 -73 -48 -72 -86 -117 -134 -155 l-47 -37 27
-47 27 -47 54 57 c30 32 68 75 84 96 l30 38 0 -83 c0 -46 -4 -89 -8 -96 -5 -7
-6 -19 -3 -27 2 -7 -5 -29 -18 -47 -21 -31 -25 -33 -73 -30 -28 2 -53 -1 -57
-6 -3 -5 4 -26 14 -48 11 -21 20 -45 20 -52 0 -33 143 15 172 57 14 19 15 19
60 -4 l47 -24 65 89 c36 49 70 91 76 95 18 11 11 35 -12 44 -62 23 -62 23 -86
-22 -41 -77 -151 -189 -127 -130 11 29 17 56 22 93 13 115 14 142 7 158 -5 9
-9 35 -10 57 0 22 -4 52 -8 68 -8 33 5 35 46 6 l29 -21 28 26 28 27 7 -26 c4
-14 12 -25 19 -24 7 1 28 1 48 0 36 -1 37 -2 40 -45 l4 -44 -101 4 -102 4 -6
-26 c-15 -57 -5 -63 107 -61 l102 2 0 -115 c0 -93 -3 -114 -14 -112 -8 2 -27
0 -43 -3 -23 -6 -28 -11 -22 -27 3 -11 7 -31 9 -44 1 -14 4 -26 6 -28 11 -11
39 -8 91 7 69 21 69 19 71 189 l2 125 68 7 c37 3 84 3 105 0 l38 -6 -1 46 c0
36 -4 46 -17 46 -9 0 -20 -4 -23 -10 -8 -13 -115 -13 -115 0 0 6 -12 10 -27
10 -26 0 -28 3 -28 43 l0 42 57 -2 c49 -2 58 0 63 17 3 11 3 25 -1 31 -4 6 14
-1 40 -16 l47 -27 34 38 c19 22 34 42 35 46 0 4 -24 19 -54 33 -112 53 -220
164 -218 225 1 25 -5 31 -36 41 -74 25 -78 23 -102 -43z m170 -201 l50 -55
-50 -11 c-63 -14 -117 -14 -125 -1 -3 5 -21 9 -40 8 -19 -1 -38 1 -41 4 -3 3
7 23 21 44 15 22 41 66 57 99 l30 59 24 -46 c13 -25 46 -70 74 -101z"/>
<path d="M732 382 l-24 -18 51 -68 c28 -37 58 -81 67 -97 l15 -30 37 22 c68
41 68 37 -14 127 -42 45 -83 82 -92 82 -9 0 -28 -9 -40 -18z"/>
</g>
</svg>
