<?xml version="1.0" standalone="no"?>
<!DOCTYPE svg PUBLIC "-//W3C//DTD SVG 20010904//EN"
 "http://www.w3.org/TR/2001/REC-SVG-20010904/DTD/svg10.dtd">
<svg version="1.0" xmlns="http://www.w3.org/2000/svg"
 width="101.000000pt" height="101.000000pt" viewBox="0 0 101.000000 101.000000"
 preserveAspectRatio="xMidYMid meet">
<metadata>
Created by potrace 1.16, written by Peter Selinger 2001-2019
</metadata>
<g transform="translate(0.000000,101.000000) scale(0.100000,-0.100000)"
fill="#000000" stroke="none">
<path d="M688 1003 c-16 -4 -17 -17 -13 -136 l5 -132 -69 2 c-69 2 -70 1 -76
-27 -3 -16 -1 -38 5 -50 11 -20 17 -21 77 -14 64 6 65 6 54 -15 -7 -12 -12
-38 -11 -59 0 -45 -7 -111 -16 -132 -3 -8 -8 -25 -10 -38 -11 -57 -62 -141
-120 -198 l-61 -61 46 -24 c25 -13 49 -25 53 -27 11 -5 99 118 125 177 13 30
29 75 35 102 l11 47 26 -78 c26 -77 79 -166 124 -208 l23 -22 36 43 36 44 -32
26 c-43 33 -98 117 -124 189 -21 57 -30 108 -35 201 l-2 47 71 0 c42 0 75 -5
82 -12 18 -18 33 8 30 52 l-3 35 -90 0 c-81 0 -91 2 -97 20 -10 32 -9 103 2
110 5 3 9 20 8 38 -1 18 4 43 11 56 7 12 11 24 9 25 -2 1 -19 7 -39 14 -37 12
-42 13 -71 5z"/>
<path d="M93 954 l-32 -26 45 -54 c24 -30 44 -59 44 -63 0 -8 -46 -41 -106
-77 -17 -10 -17 -12 6 -42 14 -17 30 -31 36 -31 6 -1 31 15 55 34 45 35 56 35
64 -3 2 -12 7 -27 10 -32 9 -14 -65 -108 -131 -170 -30 -27 -54 -51 -54 -54 0
-11 52 -86 60 -86 4 0 38 42 76 93 l69 92 -1 -105 c-1 -58 -4 -114 -7 -125 -3
-11 -6 -26 -6 -32 -1 -20 -61 -45 -108 -47 -24 0 -43 -2 -43 -4 0 -1 9 -20 20
-42 11 -22 20 -46 20 -54 0 -21 50 -13 116 19 42 20 57 35 74 70 22 46 24 54
36 216 4 66 3 98 -4 103 -6 4 -9 13 -6 21 4 8 1 28 -4 45 -7 18 -7 32 -1 35 5
4 9 1 9 -6 0 -7 10 -10 28 -6 15 3 33 3 39 -1 8 -5 13 -60 15 -159 3 -148 2
-152 -21 -177 l-24 -25 38 -35 c21 -20 39 -36 40 -36 2 0 20 24 41 52 20 29
59 76 86 104 l48 51 -27 42 c-30 47 -30 47 -74 -20 -16 -23 -17 -16 -15 129 1
126 -2 154 -14 162 -8 6 -46 9 -85 8 l-70 -2 -11 -35 -11 -36 -16 52 c-8 28
-21 61 -27 73 -10 18 -5 27 47 76 l58 56 -40 34 c-22 18 -42 34 -45 34 -3 0
-18 -20 -33 -45 -16 -25 -32 -45 -36 -45 -5 0 -22 23 -39 50 -17 28 -37 50
-44 50 -7 -1 -27 -12 -45 -26z"/>
<path d="M449 966 c-2 -3 -17 -7 -33 -10 -38 -7 -40 -10 -23 -43 13 -25 36
-95 43 -132 5 -26 20 -31 55 -20 19 7 38 15 42 19 5 4 -7 47 -26 96 -31 80
-45 103 -58 90z"/>
<path d="M822 937 c-18 -5 -31 -13 -30 -17 2 -3 16 -37 32 -76 17 -38 31 -71
33 -73 5 -7 83 22 83 31 0 20 -64 148 -74 147 -6 -1 -26 -6 -44 -12z"/>
</g>
</svg>
