<?xml version="1.0" standalone="no"?>
<!DOCTYPE svg PUBLIC "-//W3C//DTD SVG 20010904//EN"
 "http://www.w3.org/TR/2001/REC-SVG-20010904/DTD/svg10.dtd">
<svg version="1.0" xmlns="http://www.w3.org/2000/svg"
 width="101.000000pt" height="101.000000pt" viewBox="0 0 101.000000 101.000000"
 preserveAspectRatio="xMidYMid meet">
<metadata>
Created by potrace 1.16, written by Peter Selinger 2001-2019
</metadata>
<g transform="translate(0.000000,101.000000) scale(0.100000,-0.100000)"
fill="#000000" stroke="none">
<path d="M576 954 c-51 -81 -114 -151 -151 -168 -27 -13 -35 -22 -30 -34 4 -9
11 -29 17 -44 8 -23 14 -26 41 -22 85 13 82 15 35 -33 -61 -64 -154 -121 -141
-87 3 7 2 22 -2 32 -4 9 -9 26 -10 37 -2 11 -10 45 -19 75 l-15 55 32 33 c18
18 47 42 65 53 17 12 32 24 32 28 0 4 -19 23 -42 41 l-41 34 -16 -24 c-9 -14
-29 -39 -44 -57 l-29 -33 -50 60 c-27 33 -53 60 -57 60 -3 0 -23 -11 -44 -26
l-38 -25 61 -61 61 -61 -36 -24 c-20 -14 -57 -34 -81 -44 -49 -22 -50 -24 -29
-45 8 -8 21 -24 29 -36 15 -20 16 -20 80 26 63 45 65 46 72 24 15 -44 10 -61
-28 -109 -35 -44 -115 -115 -156 -138 -14 -8 -12 -14 14 -44 16 -20 34 -36 41
-36 6 -1 44 35 85 79 l73 79 0 -102 c0 -75 -5 -112 -17 -139 -18 -40 -19 -41
-83 -39 -61 2 -69 -8 -45 -54 11 -22 20 -45 20 -52 0 -20 54 -12 113 17 38 18
58 36 74 66 35 64 48 189 30 296 -4 27 -4 27 24 13 15 -8 31 -19 34 -25 13
-21 37 -8 114 65 44 41 88 75 97 75 16 0 16 2 -1 20 -10 11 -26 22 -36 25 -25
8 -15 25 11 18 11 -3 26 0 33 6 9 6 50 9 110 7 86 -3 99 -6 115 -26 20 -25 41
-20 76 19 22 24 25 19 -98 148 l-60 62 -35 -21 c-20 -12 -37 -22 -39 -24 -2
-1 18 -22 44 -47 l48 -45 -31 -6 c-18 -4 -41 -3 -52 3 -27 15 -51 14 -85 -4
-30 -16 -86 -20 -86 -7 0 14 135 140 158 147 12 3 22 10 22 15 0 6 -93 70
-103 70 -1 0 -15 -21 -31 -46z"/>
<path d="M699 664 c-22 -24 -23 -27 -7 -37 111 -77 157 -111 154 -115 -3 -2
-56 -5 -120 -6 l-115 -1 21 22 20 22 -53 15 c-29 9 -53 15 -54 13 -1 -1 -21
-38 -44 -83 -23 -44 -64 -104 -91 -134 -28 -30 -50 -55 -50 -56 0 -5 91 -37
94 -33 1 2 18 25 38 51 34 46 36 46 46 25 6 -12 21 -37 32 -54 l22 -33 -47
-20 c-61 -26 -99 -33 -162 -31 -28 1 -54 -3 -58 -9 -3 -6 6 -31 22 -55 26 -43
30 -45 63 -39 19 3 69 19 110 36 153 61 135 59 209 23 90 -44 174 -71 179 -57
2 6 17 30 34 53 33 46 28 59 -27 59 -70 -1 -185 25 -185 41 0 5 16 30 35 55
20 25 50 77 68 115 18 40 37 67 44 64 10 -3 73 57 73 70 0 7 -201 125 -214
125 -7 0 -23 -12 -37 -26z m26 -234 c7 -12 -35 -89 -59 -109 -13 -11 -20 -6
-46 35 -36 58 -37 64 -5 64 14 0 25 5 25 10 0 13 77 13 85 0z"/>
</g>
</svg>
