<?xml version="1.0" standalone="no"?>
<!DOCTYPE svg PUBLIC "-//W3C//DTD SVG 20010904//EN"
 "http://www.w3.org/TR/2001/REC-SVG-20010904/DTD/svg10.dtd">
<svg version="1.0" xmlns="http://www.w3.org/2000/svg"
 width="101.000000pt" height="102.000000pt" viewBox="0 0 101.000000 102.000000"
 preserveAspectRatio="xMidYMid meet">
<metadata>
Created by potrace 1.16, written by Peter Selinger 2001-2019
</metadata>
<g transform="translate(0.000000,102.000000) scale(0.100000,-0.100000)"
fill="#000000" stroke="none">
<path d="M623 1007 c-46 -17 -47 -21 -19 -70 14 -24 26 -46 26 -48 0 -3 -30
-3 -67 -1 -96 5 -114 5 -120 -2 -7 -6 -7 -26 1 -151 6 -102 6 -107 2 -340 -3
-161 -6 -201 -21 -225 -4 -6 6 -28 22 -49 l29 -39 74 59 c41 32 83 62 93 65
15 5 17 12 12 32 -4 15 -8 36 -10 47 -1 11 -3 24 -4 29 0 5 -23 -12 -51 -38
-27 -25 -51 -46 -54 -46 -2 0 -4 56 -3 124 l2 124 33 4 c30 4 33 2 43 -36 19
-73 71 -155 134 -214 69 -65 157 -121 163 -104 2 6 16 29 33 51 l29 41 -36 15
c-20 8 -39 15 -43 15 -4 0 -31 15 -61 34 l-55 35 72 33 c40 18 72 38 73 44 0
5 -16 25 -34 44 l-35 33 -58 -53 -58 -53 -22 49 c-12 27 -22 54 -22 59 -1 6
35 10 88 10 l88 0 7 74 c9 106 7 161 -4 161 -5 0 -10 16 -10 35 0 19 5 35 10
35 6 0 10 22 10 48 l0 48 -69 -3 c-37 -2 -79 1 -92 6 -17 7 -19 10 -6 10 9 1
17 4 17 7 0 12 -61 114 -68 113 -4 0 -21 -6 -39 -12z m152 -242 c0 -31 -4 -41
-20 -47 -33 -10 -100 -9 -112 3 -6 6 -33 9 -60 8 l-48 -4 0 40 0 40 120 0 120
0 0 -40z m0 -159 l0 -43 -74 -7 c-41 -3 -95 -6 -120 -6 l-46 0 0 48 0 47 120
2 120 2 0 -43z"/>
<path d="M86 944 l-28 -34 63 -58 63 -58 -76 -59 -75 -58 26 -38 c14 -21 31
-38 36 -39 6 0 35 25 65 55 30 30 57 55 61 55 4 0 9 -16 11 -36 3 -25 -3 -45
-20 -72 -44 -66 -114 -143 -154 -169 l-38 -26 42 -39 43 -40 33 39 c19 21 53
63 76 95 l43 56 6 -96 c5 -63 3 -100 -4 -109 -6 -7 -9 -22 -6 -32 5 -21 -24
-60 -46 -62 -7 0 -23 -2 -37 -4 -14 -1 -32 1 -41 6 -23 12 -44 -4 -25 -20 8
-7 23 -33 32 -57 17 -44 18 -44 56 -40 64 7 126 43 148 86 16 31 19 62 21 181
3 185 1 220 -12 236 -7 7 -9 13 -6 13 3 0 -8 37 -24 83 l-29 82 57 54 57 54
-44 40 c-40 38 -44 39 -54 23 -6 -10 -24 -36 -40 -59 l-28 -40 -55 62 c-30 33
-58 61 -61 60 -4 0 -20 -16 -36 -35z"/>
</g>
</svg>
