<?xml version="1.0" standalone="no"?>
<!DOCTYPE svg PUBLIC "-//W3C//DTD SVG 20010904//EN"
 "http://www.w3.org/TR/2001/REC-SVG-20010904/DTD/svg10.dtd">
<svg version="1.0" xmlns="http://www.w3.org/2000/svg"
 width="101.000000pt" height="101.000000pt" viewBox="0 0 101.000000 101.000000"
 preserveAspectRatio="xMidYMid meet">
<metadata>
Created by potrace 1.16, written by Peter Selinger 2001-2019
</metadata>
<g transform="translate(0.000000,101.000000) scale(0.100000,-0.100000)"
fill="#000000" stroke="none">
<path d="M563 931 c-42 -89 -111 -181 -173 -230 -29 -23 -56 -41 -60 -41 -5 0
-16 23 -25 51 l-17 51 33 35 c19 19 49 43 67 54 17 12 32 25 32 30 0 9 -78 69
-89 69 -4 0 -14 -12 -24 -27 -9 -16 -28 -41 -42 -58 l-25 -30 -53 53 c-29 28
-57 52 -61 52 -5 0 -24 -12 -43 -26 l-34 -26 61 -55 c71 -65 71 -66 -35 -128
l-66 -38 33 -34 c17 -18 35 -33 38 -33 3 0 34 23 69 51 35 28 64 49 65 47 2
-2 8 -17 13 -34 10 -29 7 -36 -38 -97 -28 -36 -78 -87 -112 -113 -34 -25 -62
-50 -62 -54 0 -4 15 -20 34 -36 l34 -28 86 90 86 89 -2 -90 c-4 -188 -22 -220
-121 -210 l-50 5 26 -55 c15 -30 34 -56 42 -57 24 -5 122 31 147 53 35 34 50
94 45 187 -2 55 0 82 7 82 13 0 15 56 2 64 -5 3 -7 15 -4 26 3 11 1 32 -5 48
-15 43 -2 55 33 32 l30 -19 39 37 c21 20 36 32 32 25 -3 -6 -3 -18 0 -27 5
-13 29 -15 165 -13 155 2 160 3 165 24 3 12 3 27 -1 33 -4 7 12 -2 35 -19 24
-17 46 -31 50 -31 4 0 25 18 48 40 l42 39 -78 40 c-43 23 -99 62 -126 88 -53
53 -96 125 -77 131 34 11 -14 42 -75 47 -28 3 -32 -1 -61 -64z m92 -90 c8 -17
38 -57 65 -91 l51 -60 -124 2 c-80 2 -123 7 -119 13 3 6 20 30 38 55 17 25 39
60 48 78 9 17 19 32 21 32 2 0 11 -13 20 -29z"/>
<path d="M757 548 c-4 -13 -4 -38 -1 -56 3 -18 1 -39 -5 -45 -5 -7 -12 -26
-15 -42 -3 -17 -15 -61 -27 -98 -17 -54 -28 -71 -47 -78 -24 -9 -143 -7 -248
6 -58 6 -65 -2 -57 -62 5 -34 34 -49 62 -33 9 5 59 7 111 5 96 -4 166 -5 275
-2 33 0 74 -2 91 -6 31 -6 32 -5 36 31 7 56 -1 75 -26 66 -19 -6 -47 -7 -114
-3 -13 0 -21 6 -19 13 2 6 21 63 42 126 21 63 44 122 51 131 21 24 17 36 -18
49 -65 23 -85 23 -91 -2z"/>
<path d="M563 545 c-10 -7 -13 -17 -8 -25 13 -22 35 -114 38 -167 2 -18 5 -34
7 -37 3 -2 26 0 51 6 41 9 47 14 47 37 0 14 -4 31 -8 36 -7 9 -12 28 -24 90
-11 56 -25 74 -56 73 -17 -1 -38 -6 -47 -13z"/>
<path d="M409 520 c-6 -4 -9 -12 -5 -18 7 -12 36 -136 41 -179 5 -48 10 -51
60 -40 44 10 46 12 41 41 -7 46 -16 82 -39 156 -13 42 -17 45 -50 46 -20 1
-41 -2 -48 -6z"/>
</g>
</svg>
