<?xml version="1.0" standalone="no"?>
<!DOCTYPE svg PUBLIC "-//W3C//DTD SVG 20010904//EN"
 "http://www.w3.org/TR/2001/REC-SVG-20010904/DTD/svg10.dtd">
<svg version="1.0" xmlns="http://www.w3.org/2000/svg"
 width="101.000000pt" height="101.000000pt" viewBox="0 0 101.000000 101.000000"
 preserveAspectRatio="xMidYMid meet">
<metadata>
Created by potrace 1.16, written by Peter Selinger 2001-2019
</metadata>
<g transform="translate(0.000000,101.000000) scale(0.100000,-0.100000)"
fill="#000000" stroke="none">
<path d="M107 968 l-38 -33 45 -38 c77 -64 77 -69 -5 -126 -39 -27 -76 -52
-82 -54 -7 -3 3 -20 25 -41 l36 -37 66 56 c36 30 66 50 67 43 6 -80 -32 -149
-139 -251 l-61 -58 32 -29 c18 -16 36 -30 40 -30 11 0 31 23 104 118 30 39 56
72 57 72 0 0 1 -62 1 -138 0 -182 -16 -207 -121 -197 -40 3 -45 2 -38 -13 6
-15 9 -33 13 -84 1 -13 8 -16 29 -13 58 8 132 37 163 62 l32 27 27 -32 27 -33
76 75 c42 42 89 94 103 116 15 22 28 40 29 40 9 0 9 -181 0 -221 -6 -31 -4
-37 13 -41 11 -3 31 -4 44 -1 23 4 23 7 25 116 2 172 1 167 30 116 28 -51 104
-131 149 -160 l32 -19 39 40 40 40 -51 23 c-65 30 -114 73 -144 125 l-22 40
22 1 c13 1 39 2 58 4 19 1 51 -2 71 -6 34 -7 37 -6 42 19 10 56 5 59 -111 61
-144 2 -148 3 -149 23 -1 15 12 18 100 24 56 4 103 8 104 10 2 2 -1 27 -7 56
-13 67 -13 120 0 120 6 0 10 18 10 40 0 22 -4 40 -10 40 -5 0 -10 25 -10 55 0
30 5 55 10 55 6 0 10 7 10 16 0 14 -6 15 -32 9 -18 -5 -48 -8 -65 -7 -18 1
-60 2 -93 2 -33 -1 -88 -1 -122 -1 -35 0 -92 2 -127 5 l-63 5 5 -28 6 -27 -35
33 c-20 18 -39 33 -43 33 -4 0 -23 -20 -41 -45 l-34 -46 -26 33 c-14 18 -36
45 -50 61 l-25 27 -38 -32z m284 -130 c1 -29 2 -103 2 -165 1 -131 -2 -128
121 -117 73 6 73 6 78 -20 5 -22 1 -26 -26 -31 -17 -3 -60 -3 -96 0 -36 3 -77
5 -92 5 -16 1 -28 4 -28 8 -6 85 -9 112 -15 137 -4 17 -8 37 -9 45 -1 8 -8 28
-14 44 -24 57 -22 69 22 108 22 20 44 37 49 38 4 0 8 -24 8 -52z m404 0 l0
-47 -50 6 c-27 3 -50 6 -51 7 -1 1 -4 17 -7 37 -5 33 -4 36 18 32 12 -3 26 0
30 7 4 6 19 10 33 8 24 -3 26 -7 27 -50z m-200 -2 l0 -41 -55 0 -55 0 3 37 c4
39 10 42 77 44 29 0 30 -2 30 -40z m2 -153 c2 -42 1 -45 -20 -39 -12 3 -38 6
-57 6 -34 0 -35 1 -35 38 l-1 37 56 2 55 1 2 -45z m211 4 l-3 -39 -63 -2 c-58
-1 -63 0 -58 19 3 11 6 28 6 37 0 17 18 23 83 24 l38 0 -3 -39z m-280 -262
c13 -13 -101 -140 -165 -184 l-32 -21 6 32 c3 18 5 59 5 91 -1 50 2 59 23 73
13 9 29 13 34 9 6 -3 19 -1 28 5 16 9 91 6 101 -5z"/>
</g>
</svg>
