<?xml version="1.0" standalone="no"?>
<!DOCTYPE svg PUBLIC "-//W3C//DTD SVG 20010904//EN"
 "http://www.w3.org/TR/2001/REC-SVG-20010904/DTD/svg10.dtd">
<svg version="1.0" xmlns="http://www.w3.org/2000/svg"
 width="101.000000pt" height="103.000000pt" viewBox="0 0 101.000000 103.000000"
 preserveAspectRatio="xMidYMid meet">
<metadata>
Created by potrace 1.16, written by Peter Selinger 2001-2019
</metadata>
<g transform="translate(0.000000,103.000000) scale(0.100000,-0.100000)"
fill="#000000" stroke="none">
<path d="M610 1018 c-19 -5 -36 -11 -38 -12 -1 -2 9 -28 24 -59 14 -31 23 -61
19 -67 -8 -13 -72 -13 -80 -1 -3 5 -31 9 -63 9 -57 -1 -60 0 -102 45 -39 43
-70 60 -70 39 0 -4 -14 -30 -30 -56 l-30 -47 -52 60 c-28 34 -54 61 -58 61 -3
0 -20 -15 -38 -33 l-32 -33 60 -59 60 -59 -22 -23 c-12 -13 -45 -39 -74 -59
l-54 -37 33 -38 c17 -20 35 -38 38 -38 3 -1 32 26 63 59 52 55 57 58 65 38 4
-11 7 -29 6 -39 -2 -32 -66 -122 -136 -190 l-66 -65 40 -34 40 -34 34 40 c19
21 53 67 75 102 23 34 46 62 50 62 12 0 10 -119 -3 -181 -10 -48 -16 -80 -18
-101 -1 -4 -15 -17 -32 -29 -25 -17 -35 -19 -54 -11 -13 6 -32 8 -44 5 l-21
-5 20 -28 c11 -16 23 -42 26 -58 5 -27 10 -30 39 -28 18 2 55 14 82 27 58 29
86 78 90 158 2 59 8 73 17 43 8 -23 42 -35 65 -22 18 9 100 11 142 4 19 -4 27
-12 28 -27 6 -81 5 -165 -2 -183 -9 -25 11 -34 59 -27 l30 5 2 91 c1 133 1
134 26 137 11 1 67 2 123 3 112 1 121 6 107 61 -8 33 -43 43 -95 27 -43 -13
-140 -5 -151 13 -4 6 -5 19 -2 28 7 22 -27 40 -69 36 -30 -3 -32 -5 -32 -45
l0 -42 -65 4 c-36 2 -77 6 -91 10 -13 3 -36 2 -51 -4 -24 -9 -26 -8 -33 32 -4
23 -7 61 -6 85 1 24 -2 49 -6 55 -4 6 -8 20 -10 32 -5 34 -8 48 -32 118 l-23
68 23 26 c32 33 61 49 53 28 -4 -8 -3 -26 0 -40 6 -23 9 -24 71 -22 67 4 101
-5 70 -17 -9 -3 -15 -12 -12 -20 7 -19 -56 -162 -92 -206 l-29 -37 49 -16 50
-15 30 61 c17 34 33 64 35 66 2 3 17 -8 32 -22 16 -15 32 -27 38 -26 10 0 58
58 53 64 -2 1 -25 14 -51 28 l-47 25 24 36 c14 21 25 39 25 41 0 2 -18 9 -41
15 -23 6 -39 13 -36 16 5 6 168 15 273 16 39 0 81 -5 92 -11 16 -9 24 -8 36 5
17 17 22 79 7 88 -5 3 -56 1 -114 -6 -86 -9 -109 -9 -122 2 -13 10 -13 15 -3
21 10 7 9 20 -7 66 -21 62 -30 67 -85 51z"/>
<path d="M747 783 c-2 -5 -10 -26 -17 -48 -17 -53 -57 -132 -86 -171 -31 -42
-33 -58 -9 -60 11 -1 32 -5 46 -8 23 -7 28 -2 49 37 13 25 29 44 35 43 7 -1
31 -18 55 -39 24 -20 46 -37 50 -37 3 0 21 15 39 34 l32 33 -75 45 -75 45 19
30 c10 17 23 34 29 37 23 15 9 35 -36 50 -54 19 -51 18 -56 9z"/>
</g>
</svg>
