<?xml version="1.0" standalone="no"?>
<!DOCTYPE svg PUBLIC "-//W3C//DTD SVG 20010904//EN"
 "http://www.w3.org/TR/2001/REC-SVG-20010904/DTD/svg10.dtd">
<svg version="1.0" xmlns="http://www.w3.org/2000/svg"
 width="101.000000pt" height="101.000000pt" viewBox="0 0 101.000000 101.000000"
 preserveAspectRatio="xMidYMid meet">
<metadata>
Created by potrace 1.16, written by Peter Selinger 2001-2019
</metadata>
<g transform="translate(0.000000,101.000000) scale(0.100000,-0.100000)"
fill="#000000" stroke="none">
<path d="M277 935 c-16 -25 -33 -48 -39 -51 -5 -3 -24 7 -41 23 -79 72 -74 70
-107 38 -17 -16 -30 -31 -30 -35 0 -3 25 -25 56 -49 l55 -43 -22 -24 c-13 -14
-45 -38 -72 -56 l-49 -31 36 -36 36 -36 59 59 c63 62 61 63 82 -8 7 -23 4 -37
-12 -62 -22 -36 -175 -184 -190 -184 -19 0 -8 -27 22 -56 l31 -29 86 90 87 90
-3 -70 c-7 -211 -18 -235 -104 -232 -48 1 -53 -5 -33 -42 9 -18 14 -35 11 -39
-3 -4 -1 -13 3 -20 14 -23 134 22 170 63 17 20 31 39 32 43 1 4 3 27 5 52 3
49 10 90 20 132 3 15 3 36 -1 45 -4 10 -8 38 -10 63 -4 53 -10 96 -20 130 -3
14 -8 32 -9 40 -1 8 -13 38 -25 65 l-23 50 44 38 c24 20 51 40 61 43 29 9 19
32 -26 59 -24 14 -46 25 -48 25 -2 0 -17 -20 -32 -45z"/>
<path d="M460 964 c-12 -4 -15 -26 -14 -122 0 -64 -3 -125 -8 -134 -11 -24 2
-108 18 -108 7 0 14 -8 16 -17 6 -24 -44 -123 -83 -168 -18 -20 -30 -37 -28
-38 2 -1 19 -13 37 -25 19 -13 36 -22 38 -19 3 3 20 29 38 58 l34 52 58 1 59
1 0 -38 c0 -34 -3 -38 -32 -43 -17 -3 -37 -3 -44 2 -7 4 -27 8 -45 10 -36 2
-46 -14 -37 -60 5 -25 8 -26 52 -20 107 13 104 14 108 -33 3 -41 1 -42 -30
-47 -32 -5 -92 -3 -178 8 -40 5 -47 3 -52 -13 -13 -50 8 -79 53 -72 98 16 373
18 413 2 19 -8 34 -7 52 1 19 8 28 8 40 -2 19 -16 23 -12 26 20 5 57 6 56 -93
58 -145 1 -137 -1 -135 42 1 30 5 38 22 39 57 4 93 3 126 -4 34 -7 37 -5 41
20 3 15 3 36 0 47 -4 17 -10 19 -41 13 -33 -7 -66 -8 -127 -4 -18 1 -22 7 -21
34 1 37 1 37 114 35 64 -1 72 1 78 20 13 40 -2 57 -58 64 -28 3 -69 6 -89 6
-33 0 -38 3 -38 23 0 12 -3 32 -7 45 -6 24 -5 24 73 19 44 -2 88 -7 99 -11 20
-7 20 -2 22 179 l1 187 -26 -8 c-15 -5 -46 -7 -69 -6 -44 2 -113 2 -225 0 -35
0 -76 2 -93 5 -16 3 -37 3 -45 1z m288 -80 c57 -6 60 -8 64 -35 l5 -29 -141 3
-141 2 0 25 c0 24 3 25 47 23 26 -2 50 1 53 7 7 12 29 12 113 4z m67 -169 l0
-32 -140 1 -140 1 0 30 0 30 140 2 140 1 0 -33z m-193 -142 l3 -48 -37 0 c-34
-1 -36 1 -23 15 8 9 15 20 15 24 0 8 -61 32 -72 28 -4 -1 -5 5 -2 13 4 11 21
15 59 15 l53 0 4 -47z"/>
</g>
</svg>
