<?xml version="1.0" standalone="no"?>
<!DOCTYPE svg PUBLIC "-//W3C//DTD SVG 20010904//EN"
 "http://www.w3.org/TR/2001/REC-SVG-20010904/DTD/svg10.dtd">
<svg version="1.0" xmlns="http://www.w3.org/2000/svg"
 width="101.000000pt" height="102.000000pt" viewBox="0 0 101.000000 102.000000"
 preserveAspectRatio="xMidYMid meet">
<metadata>
Created by potrace 1.16, written by Peter Selinger 2001-2019
</metadata>
<g transform="translate(0.000000,102.000000) scale(0.100000,-0.100000)"
fill="#000000" stroke="none">
<path d="M493 973 c4 -46 3 -48 -22 -47 -14 0 -36 4 -48 8 -33 11 -60 -1 -67
-29 -12 -48 0 -56 76 -50 63 5 70 4 64 -10 -3 -9 -6 -20 -6 -24 0 -4 -13 -6
-30 -3 -16 2 -45 1 -64 -2 -42 -8 -50 -32 -40 -126 l6 -67 49 4 50 4 -16 -38
c-19 -47 -77 -132 -110 -163 -31 -29 -31 -33 -1 -76 l23 -35 26 30 c30 36 28
43 30 -142 0 -108 3 -127 16 -129 50 -5 75 12 65 43 -6 20 -4 20 146 20 265
-1 304 0 308 4 11 11 5 67 -8 75 -7 5 -24 4 -37 -1 -22 -8 -100 -12 -164 -8
-21 1 -26 6 -26 29 0 21 5 28 21 29 73 5 95 5 127 -2 40 -8 52 4 42 42 -5 20
-12 22 -77 21 -105 -2 -111 -1 -112 25 -2 26 4 27 107 26 71 -1 83 7 72 49 -5
19 -10 21 -37 14 -28 -7 -59 -7 -122 -3 -16 1 -21 8 -21 31 0 19 5 27 13 24 7
-3 26 0 42 6 23 9 37 8 68 -4 68 -28 112 -4 97 51 -4 16 -10 18 -28 11 -12 -5
-49 -7 -81 -4 -32 2 -69 4 -81 5 -13 1 -23 7 -23 14 0 7 -3 20 -6 28 -6 17 5
19 116 17 l75 -1 1 95 c2 109 1 110 -84 105 -41 -3 -47 -1 -50 17 -3 20 1 21
82 19 92 -3 102 3 90 51 -7 28 -39 39 -73 26 -13 -4 -36 -6 -52 -4 -26 4 -29
8 -29 43 0 24 -5 39 -12 40 -7 1 -30 2 -50 3 l-38 1 4 -45 3 -45 -56 0 -56 0
1 48 2 47 -49 0 -49 0 3 -47z m200 -135 c-2 -5 -3 -12 -3 -17 0 -5 -8 -8 -17
-7 -16 1 -18 -9 -17 -96 1 -91 0 -98 -18 -98 -15 0 -18 -5 -13 -22 12 -40 11
-43 -25 -40 -19 1 -46 3 -60 3 l-24 1 24 19 c24 18 24 20 7 33 -17 13 -15 14
20 11 21 -1 41 2 45 9 9 13 10 122 2 154 -4 12 -11 22 -18 22 -6 0 -11 10 -11
23 0 21 3 22 55 17 30 -3 54 -8 53 -12z m-159 -123 c-1 -26 -5 -30 -25 -27
-13 2 -33 3 -44 4 -14 0 -20 8 -21 27 -1 24 2 26 45 26 45 0 46 -1 45 -30z
m292 -2 c-1 -34 -3 -38 -26 -35 -14 2 -34 3 -46 4 -16 0 -21 7 -21 29 0 26 4
28 41 32 23 2 44 4 47 5 3 1 6 -15 5 -35z m-219 -209 c25 -5 30 -11 30 -34 0
-25 -5 -30 -38 -35 -21 -4 -46 -2 -58 4 -11 6 -26 9 -34 6 -10 -4 -14 3 -14
25 0 23 4 29 16 25 9 -2 23 0 31 5 18 11 27 12 67 4z m1 -120 c23 -5 29 -11
28 -30 -1 -18 -8 -24 -38 -29 -20 -4 -46 -2 -57 4 -11 6 -26 9 -33 6 -8 -3
-14 4 -14 20 -2 20 2 24 15 21 9 -3 23 -1 31 4 18 11 27 12 68 4z m-1 -110
c25 -5 30 -11 30 -34 0 -25 -5 -30 -38 -35 -21 -4 -46 -2 -58 4 -11 6 -26 9
-34 6 -10 -4 -14 3 -14 25 0 23 4 29 16 25 9 -2 23 0 31 5 18 11 27 12 67 4z"/>
<path d="M228 924 l-33 -55 -41 47 -41 47 -37 -22 c-20 -13 -36 -24 -36 -26 0
-2 23 -27 51 -56 l52 -53 -62 -56 c-33 -30 -61 -58 -61 -61 0 -3 14 -16 31
-28 l31 -23 49 48 c30 30 49 43 50 34 1 -8 3 -28 4 -45 3 -43 -38 -114 -105
-180 l-58 -58 25 -38 c14 -22 27 -39 28 -39 2 0 33 39 71 88 37 48 64 79 61
69 -4 -10 -2 -27 4 -38 7 -15 7 -39 -1 -87 -18 -102 -18 -106 -19 -119 -1 -7
-10 -22 -21 -33 -16 -16 -29 -19 -70 -15 l-50 5 15 -36 c8 -20 13 -39 11 -43
-3 -4 -1 -13 4 -21 7 -11 18 -11 64 -1 111 25 138 73 142 256 2 61 3 119 4
130 2 53 -11 142 -32 215 -19 64 -13 83 43 144 27 30 49 56 49 59 0 8 -65 47
-78 47 -6 0 -26 -25 -44 -56z"/>
</g>
</svg>
