<?xml version="1.0" standalone="no"?>
<!DOCTYPE svg PUBLIC "-//W3C//DTD SVG 20010904//EN"
 "http://www.w3.org/TR/2001/REC-SVG-20010904/DTD/svg10.dtd">
<svg version="1.0" xmlns="http://www.w3.org/2000/svg"
 width="101.000000pt" height="101.000000pt" viewBox="0 0 101.000000 101.000000"
 preserveAspectRatio="xMidYMid meet">
<metadata>
Created by potrace 1.16, written by Peter Selinger 2001-2019
</metadata>
<g transform="translate(0.000000,101.000000) scale(0.100000,-0.100000)"
fill="#000000" stroke="none">
<path d="M250 929 c0 -7 -21 -10 -60 -7 -67 3 -74 -3 -64 -57 5 -28 10 -32 39
-33 19 -1 37 3 40 9 7 10 95 11 180 3 l50 -6 0 -98 0 -98 -105 4 c-58 2 -117
1 -133 -2 -30 -6 -43 -37 -33 -77 6 -24 7 -24 138 -23 l133 1 -4 -48 c-1 -27
2 -54 8 -60 14 -14 14 -54 1 -62 -5 -3 -9 -30 -7 -60 l2 -53 -120 4 c-66 2
-150 7 -186 10 -76 8 -83 0 -73 -67 6 -37 17 -46 49 -39 6 1 139 2 297 1 174
0 290 4 293 9 8 13 72 13 80 0 8 -13 148 -10 157 4 11 17 9 84 -2 91 -6 4 -17
1 -26 -5 -10 -9 -44 -11 -122 -7 -59 4 -137 7 -173 7 l-66 0 1 138 1 137 148
0 c143 0 148 1 153 21 3 12 4 33 2 45 -3 21 -10 25 -63 31 -33 5 -100 7 -150
5 l-90 -2 0 92 0 93 43 0 c23 0 42 5 42 10 0 6 16 10 35 10 19 0 35 -5 35 -11
0 -7 30 -9 90 -7 100 3 108 9 96 72 l-6 32 -100 1 c-58 1 -100 -2 -100 -7 0
-6 -11 -10 -25 -10 -14 0 -25 5 -25 10 0 6 -30 10 -70 10 -40 0 -70 -4 -70
-10 0 -6 -33 -10 -80 -10 -47 0 -80 4 -80 10 0 6 -18 10 -40 10 -22 0 -40 -5
-40 -11z"/>
<path d="M647 484 l-38 -26 48 -51 c27 -29 58 -65 70 -82 19 -27 23 -28 44
-17 13 7 35 22 49 32 l25 19 -75 76 c-41 41 -77 75 -80 75 -3 0 -22 -12 -43
-26z"/>
</g>
</svg>
