<?xml version="1.0" standalone="no"?>
<!DOCTYPE svg PUBLIC "-//W3C//DTD SVG 20010904//EN"
 "http://www.w3.org/TR/2001/REC-SVG-20010904/DTD/svg10.dtd">
<svg version="1.0" xmlns="http://www.w3.org/2000/svg"
 width="101.000000pt" height="101.000000pt" viewBox="0 0 101.000000 101.000000"
 preserveAspectRatio="xMidYMid meet">
<metadata>
Created by potrace 1.16, written by Peter Selinger 2001-2019
</metadata>
<g transform="translate(0.000000,101.000000) scale(0.100000,-0.100000)"
fill="#000000" stroke="none">
<path d="M450 972 c-12 -6 -15 -28 -13 -117 1 -60 2 -126 2 -145 1 -37 -7
-136 -15 -205 -7 -57 6 -70 62 -67 26 1 48 3 50 5 2 2 -2 45 -8 95 -9 70 -8
98 1 115 7 14 10 59 9 122 l-3 100 125 1 125 1 -3 -49 c-2 -27 1 -54 7 -62 12
-14 13 -153 1 -161 -10 -6 -12 -136 -2 -152 8 -13 30 -17 72 -15 25 2 25 2 28
121 2 71 -1 122 -7 125 -12 8 -14 173 -2 181 5 3 9 27 9 54 l1 49 -57 0 c-86
1 -175 1 -244 0 -35 0 -76 2 -93 5 -16 4 -37 3 -45 -1z"/>
<path d="M68 919 c-21 -12 -23 -48 -4 -74 11 -15 22 -17 67 -13 l54 6 0 -91 0
-92 -48 3 c-55 5 -77 -9 -77 -47 0 -42 11 -49 70 -47 l55 1 0 -100 c0 -57 -4
-102 -10 -104 -6 -2 -19 -7 -31 -11 -11 -5 -38 -11 -58 -14 -21 -4 -42 -9 -47
-11 -7 -5 13 -90 23 -101 2 -2 53 10 114 27 222 61 211 57 217 85 9 48 -2 65
-37 58 -78 -14 -84 -14 -90 9 -9 35 -7 77 4 77 6 0 10 18 10 40 0 39 1 40 38
41 20 1 41 1 46 0 13 -3 26 20 26 46 0 37 -28 56 -77 50 l-43 -4 3 93 c2 75 5
93 16 89 7 -3 35 -2 62 1 51 7 66 25 54 63 -5 18 -14 19 -111 14 -62 -3 -110
-1 -117 5 -16 13 -87 13 -109 1z"/>
<path d="M608 801 c-1 -9 -3 -47 -4 -86 -6 -154 -17 -214 -53 -290 -36 -76
-114 -154 -203 -200 -37 -20 -68 -39 -68 -43 0 -4 18 -22 40 -40 l39 -33 43
27 c65 41 156 132 199 197 34 53 39 56 48 38 6 -11 9 -64 8 -126 l-3 -108 33
-14 c24 -9 39 -11 52 -3 11 5 46 7 78 4 38 -3 67 -1 83 8 25 13 70 89 70 118
0 18 -100 74 -101 56 -3 -50 -23 -96 -42 -97 -7 0 -24 -2 -38 -4 -14 -2 -31 0
-37 4 -16 10 -35 116 -25 144 4 12 8 31 9 42 3 25 10 66 15 84 5 16 -44 33
-69 24 -12 -5 -14 -3 -7 13 5 10 8 52 7 92 -2 54 2 77 13 88 8 9 15 28 15 44
0 16 2 35 6 43 3 9 -5 18 -23 25 -41 16 -83 13 -85 -7z"/>
</g>
</svg>
