<?xml version="1.0" standalone="no"?>
<!DOCTYPE svg PUBLIC "-//W3C//DTD SVG 20010904//EN"
 "http://www.w3.org/TR/2001/REC-SVG-20010904/DTD/svg10.dtd">
<svg version="1.0" xmlns="http://www.w3.org/2000/svg"
 width="101.000000pt" height="101.000000pt" viewBox="0 0 101.000000 101.000000"
 preserveAspectRatio="xMidYMid meet">
<metadata>
Created by potrace 1.16, written by Peter Selinger 2001-2019
</metadata>
<g transform="translate(0.000000,101.000000) scale(0.100000,-0.100000)"
fill="#000000" stroke="none">
<path d="M489 998 c0 -7 -2 -20 -4 -28 -2 -8 -6 -26 -9 -39 -28 -128 -118
-297 -151 -285 -8 3 -20 2 -27 -2 -7 -5 -21 -10 -30 -11 -15 -2 -16 9 -15 95
l2 98 40 -2 c22 -1 47 -5 56 -9 34 -13 63 47 41 83 -9 13 -285 29 -328 18 -39
-10 -43 -88 -5 -101 9 -3 37 -1 62 3 l44 8 2 -96 3 -97 -28 3 c-15 1 -36 5
-48 9 -26 8 -54 -17 -54 -48 0 -41 13 -48 72 -43 52 5 56 4 57 -17 0 -12 3
-57 6 -99 5 -80 -4 -124 -27 -125 -28 -2 -84 -12 -100 -18 -17 -7 -24 -26 -18
-50 1 -5 4 -21 5 -33 2 -13 6 -26 9 -29 2 -3 33 6 68 20 62 25 132 46 172 52
66 9 83 18 93 46 10 26 8 69 -4 69 -3 0 -30 -7 -60 -16 -30 -9 -58 -13 -61 -9
-4 4 -6 43 -5 88 3 137 -1 126 49 121 45 -5 48 -2 45 36 -1 8 7 -1 18 -20 l19
-34 30 47 c36 57 34 75 33 -260 0 -35 1 -87 2 -115 1 -29 -1 -65 -5 -79 -9
-31 7 -39 58 -32 l30 5 2 129 c2 84 -1 129 -8 129 -5 0 -10 20 -10 45 0 25 5
45 10 45 6 0 10 30 10 70 0 40 -4 70 -10 70 -6 0 -10 32 -10 75 0 43 4 75 10
75 6 0 10 18 10 39 0 43 29 119 61 160 l21 26 -49 22 c-56 25 -73 28 -74 11z"/>
<path d="M634 962 c-8 -41 5 -162 17 -162 12 0 12 -117 0 -124 -5 -3 -32 -7
-60 -10 -66 -4 -73 -12 -58 -56 13 -37 29 -42 90 -25 15 4 28 3 28 -1 1 -5 3
-20 5 -34 3 -28 11 -82 18 -120 8 -44 48 -164 68 -205 28 -55 85 -112 126
-126 29 -10 36 -8 56 10 35 33 72 161 47 161 -5 0 -24 12 -41 26 -17 15 -34
24 -37 20 -3 -3 -7 -23 -8 -43 -3 -51 -3 -53 -15 -53 -15 0 -67 86 -84 139
-21 62 -34 135 -39 216 -2 25 2 30 23 32 14 1 45 4 70 8 25 4 56 8 70 10 14 1
29 3 33 4 5 0 6 18 3 39 -3 20 -5 40 -6 43 0 10 -59 8 -66 -2 -3 -5 -10 -7
-15 -3 -6 3 -18 2 -27 -2 -9 -4 -24 -8 -32 -10 -8 -1 -28 -5 -43 -8 l-28 -7 5
116 c4 66 12 130 20 150 18 43 10 49 -62 50 -51 0 -52 -1 -58 -33z"/>
<path d="M798 917 c-21 -6 -38 -14 -38 -18 0 -4 13 -36 30 -71 16 -34 30 -68
30 -75 0 -20 13 -21 63 -4 l48 16 -41 83 c-23 45 -44 81 -48 81 -4 -1 -24 -6
-44 -12z"/>
</g>
</svg>
