<?xml version="1.0" standalone="no"?>
<!DOCTYPE svg PUBLIC "-//W3C//DTD SVG 20010904//EN"
 "http://www.w3.org/TR/2001/REC-SVG-20010904/DTD/svg10.dtd">
<svg version="1.0" xmlns="http://www.w3.org/2000/svg"
 width="101.000000pt" height="101.000000pt" viewBox="0 0 101.000000 101.000000"
 preserveAspectRatio="xMidYMid meet">
<metadata>
Created by potrace 1.16, written by Peter Selinger 2001-2019
</metadata>
<g transform="translate(0.000000,101.000000) scale(0.100000,-0.100000)"
fill="#000000" stroke="none">
<path d="M570 996 c0 -20 -1 -25 -12 -61 -5 -16 -11 -41 -14 -55 -3 -13 -10
-30 -16 -37 -6 -8 -8 -16 -5 -19 12 -13 -97 -243 -123 -259 -20 -13 -9 -31 28
-45 20 -8 40 -16 44 -18 3 -2 17 16 31 38 l25 42 32 -99 c18 -54 39 -110 46
-125 13 -26 12 -28 -19 -51 -63 -48 -183 -98 -267 -112 -19 -3 -35 -7 -36 -8
-7 -6 79 -87 92 -87 29 0 168 64 232 106 l64 44 55 -49 c30 -27 76 -60 102
-74 l48 -27 14 26 c7 14 26 35 41 46 30 21 29 38 -1 38 -24 0 -153 65 -174 88
-15 16 -13 24 20 112 44 119 46 127 44 226 l-2 81 36 -2 c20 -1 39 -5 42 -9
19 -19 53 16 53 54 0 33 -26 64 -43 53 -10 -7 -287 -12 -287 -6 0 12 46 113
61 135 l21 28 -34 14 c-61 25 -98 30 -98 12z m164 -323 c3 -25 2 -51 -4 -58
-5 -6 -9 -27 -9 -46 1 -37 -3 -54 -22 -117 -7 -23 -15 -42 -19 -42 -11 0 -40
104 -44 156 -4 53 -27 78 -63 69 -21 -5 -22 -3 -13 21 22 57 25 59 98 61 l69
3 7 -47z"/>
<path d="M65 914 c-16 -17 -18 -27 -9 -61 5 -19 12 -21 72 -20 l67 2 2 -90 2
-90 -65 0 c-69 0 -84 -9 -84 -52 0 -37 28 -56 74 -50 23 3 48 8 57 12 19 7 19
9 22 -132 1 -50 0 -94 -3 -97 -7 -6 -64 -18 -102 -21 -16 -2 -35 -3 -43 -4
-10 -1 -13 -10 -9 -33 3 -18 7 -44 9 -56 5 -36 10 -37 67 -12 60 26 99 38 143
46 17 3 39 7 50 10 11 2 33 6 48 8 16 3 31 7 34 10 9 9 14 96 6 96 -5 0 -33
-7 -63 -15 -30 -8 -57 -12 -60 -9 -3 3 -4 42 -3 87 3 135 -2 124 59 120 45 -2
54 0 59 17 7 23 -3 62 -19 72 -6 4 -30 8 -53 8 l-42 0 2 88 2 87 68 0 c62 -1
68 1 73 21 3 13 4 31 2 41 -3 16 -14 18 -121 15 -66 -2 -124 1 -130 6 -19 16
-95 12 -112 -4z"/>
</g>
</svg>
