<?xml version="1.0" standalone="no"?>
<!DOCTYPE svg PUBLIC "-//W3C//DTD SVG 20010904//EN"
 "http://www.w3.org/TR/2001/REC-SVG-20010904/DTD/svg10.dtd">
<svg version="1.0" xmlns="http://www.w3.org/2000/svg"
 width="101.000000pt" height="101.000000pt" viewBox="0 0 101.000000 101.000000"
 preserveAspectRatio="xMidYMid meet">
<metadata>
Created by potrace 1.16, written by Peter Selinger 2001-2019
</metadata>
<g transform="translate(0.000000,101.000000) scale(0.100000,-0.100000)"
fill="#000000" stroke="none">
<path d="M597 991 c3 -11 0 -28 -7 -36 -7 -9 -14 -25 -16 -38 -2 -12 -5 -31
-8 -42 -2 -11 -5 -25 -5 -32 -1 -8 -18 -10 -55 -7 -54 4 -54 4 -61 -26 -4 -16
-3 -40 1 -52 4 -12 6 -140 5 -283 -1 -143 -2 -269 -1 -280 1 -11 2 -39 2 -62
1 -46 12 -53 65 -46 26 4 30 9 31 36 3 71 4 75 26 76 11 0 53 3 91 6 39 3 84
3 102 0 31 -6 32 -6 27 -54 -5 -55 3 -61 68 -53 l36 4 1 159 c1 103 -2 159 -9
159 -5 0 -10 20 -10 45 0 25 5 45 10 45 6 0 10 61 10 164 0 156 -1 165 -20
171 -11 3 -25 3 -32 -2 -7 -4 -54 -8 -104 -8 -91 0 -92 0 -87 24 2 13 15 49
30 78 14 30 23 57 20 59 -3 3 -30 8 -60 11 -53 5 -56 5 -50 -16z m200 -336 l3
-94 -36 -7 c-26 -5 -39 -3 -46 7 -7 11 -11 11 -15 2 -6 -15 -73 -18 -73 -3 0
6 -18 10 -40 10 -45 0 -44 -3 -34 110 l7 65 116 2 116 2 2 -94z m-26 -171 c29
-6 29 -4 32 -121 1 -39 -2 -75 -6 -80 -7 -7 -144 -8 -224 -2 -26 1 -33 30 -27
104 2 28 4 60 5 73 1 16 6 21 18 18 9 -3 22 -2 30 3 15 10 132 13 172 5z"/>
<path d="M73 892 c-17 -11 -26 -64 -14 -82 8 -11 27 -15 71 -13 l60 1 0 -29
c0 -16 5 -29 10 -29 7 0 10 -23 8 -62 l-3 -61 -67 0 c-66 1 -67 0 -73 -28 -13
-56 -1 -67 69 -65 73 1 66 14 69 -131 1 -50 0 -94 -3 -96 -6 -6 -84 -20 -137
-26 -13 -1 -12 -24 2 -88 9 -38 7 -38 45 -18 33 17 189 63 234 69 42 6 66 16
67 30 1 6 3 28 4 49 2 20 2 37 0 37 -2 0 -14 -4 -28 -9 -13 -5 -40 -12 -60
-15 -33 -5 -36 -3 -41 22 -3 15 -3 52 -1 82 3 30 5 65 6 76 1 16 6 20 20 17
10 -3 35 -2 54 1 26 5 36 13 41 31 12 47 -2 62 -58 64 -29 1 -54 4 -57 7 -3 3
-8 43 -9 88 l-4 83 65 -4 c50 -3 68 0 81 12 20 21 21 59 0 79 -16 17 -49 21
-58 8 -5 -9 -242 -7 -266 2 -8 3 -21 2 -27 -2z"/>
</g>
</svg>
