<?xml version="1.0" standalone="no"?>
<!DOCTYPE svg PUBLIC "-//W3C//DTD SVG 20010904//EN"
 "http://www.w3.org/TR/2001/REC-SVG-20010904/DTD/svg10.dtd">
<svg version="1.0" xmlns="http://www.w3.org/2000/svg"
 width="101.000000pt" height="101.000000pt" viewBox="0 0 101.000000 101.000000"
 preserveAspectRatio="xMidYMid meet">
<metadata>
Created by potrace 1.16, written by Peter Selinger 2001-2019
</metadata>
<g transform="translate(0.000000,101.000000) scale(0.100000,-0.100000)"
fill="#000000" stroke="none">
<path d="M406 922 l1 -88 -31 4 c-24 3 -32 9 -33 24 -1 12 -8 25 -15 29 -19
12 -108 11 -108 -1 0 -5 -16 -10 -35 -10 -19 0 -35 5 -35 10 0 6 -20 10 -45
10 -38 0 -47 -4 -56 -24 -7 -14 -9 -36 -5 -49 5 -23 10 -25 63 -24 l58 2 2
-86 1 -86 -49 5 c-44 4 -49 2 -60 -21 -6 -14 -9 -37 -5 -50 6 -24 9 -25 60
-21 51 5 54 3 55 -18 1 -13 3 -50 6 -83 9 -115 2 -129 -78 -139 -21 -3 -42 -8
-48 -11 -10 -7 -7 -101 4 -112 4 -3 37 8 74 24 79 36 127 52 172 58 l31 4 -17
-31 c-10 -16 -33 -43 -52 -60 -18 -16 -32 -30 -30 -32 2 -1 21 -12 43 -25 l39
-22 24 23 c14 13 35 41 48 63 24 41 74 197 81 250 8 75 13 127 20 217 7 94 7
96 33 100 l26 4 -3 -101 c-2 -55 -3 -109 -2 -120 4 -54 -2 -148 -10 -169 -6
-16 -5 -35 2 -53 16 -43 -11 -81 -57 -80 -44 1 -49 -4 -30 -39 8 -16 15 -37
15 -47 0 -16 5 -17 33 -12 41 9 95 34 105 49 7 11 8 30 16 246 2 69 6 141 10
160 3 19 8 66 10 104 3 38 8 77 11 87 4 11 4 28 0 38 -5 17 -15 19 -81 17
l-75 -2 6 64 c2 36 10 71 16 79 17 20 5 26 -54 30 l-52 3 1 -88z m-60 -143
c-5 -29 -1 -32 39 -32 15 0 8 -251 -10 -352 -7 -42 -25 -72 -25 -43 0 15 -4
16 -46 1 -25 -8 -48 -12 -52 -8 -4 4 -6 41 -5 83 3 128 1 121 39 117 35 -2 40
6 35 59 -2 27 -8 31 -44 31 -32 0 -32 0 -35 58 -2 35 1 57 8 57 5 0 10 12 10
28 0 25 3 27 46 28 46 2 46 1 40 -27z"/>
<path d="M689 863 c-12 -3 -17 -19 -18 -68 -1 -35 3 -66 9 -70 11 -7 12 -153
0 -160 -12 -7 -12 -153 0 -160 13 -8 13 -52 1 -60 -6 -3 -9 -50 -8 -105 2
-108 4 -111 63 -103 30 5 31 6 28 52 l-2 47 34 1 c25 1 33 -3 32 -15 -5 -67
10 -85 65 -75 20 4 26 13 31 46 4 23 2 45 -4 51 -13 13 -13 53 0 61 12 7 12
153 0 160 -12 7 -12 153 0 160 12 7 12 205 0 224 -6 11 -35 15 -112 17 -56 1
-110 0 -119 -3z m138 -165 c1 -46 2 -110 2 -143 0 -33 0 -99 0 -146 l0 -87
-33 1 -33 1 1 220 1 221 30 6 c17 4 30 7 30 8 0 0 1 -36 2 -81z"/>
</g>
</svg>
