<?xml version="1.0" standalone="no"?>
<!DOCTYPE svg PUBLIC "-//W3C//DTD SVG 20010904//EN"
 "http://www.w3.org/TR/2001/REC-SVG-20010904/DTD/svg10.dtd">
<svg version="1.0" xmlns="http://www.w3.org/2000/svg"
 width="101.000000pt" height="101.000000pt" viewBox="0 0 101.000000 101.000000"
 preserveAspectRatio="xMidYMid meet">
<metadata>
Created by potrace 1.16, written by Peter Selinger 2001-2019
</metadata>
<g transform="translate(0.000000,101.000000) scale(0.100000,-0.100000)"
fill="#000000" stroke="none">
<path d="M458 926 c-15 -8 -28 -10 -30 -6 -2 5 -23 5 -48 0 -61 -11 -198 -12
-205 -1 -3 5 -32 9 -65 9 -56 -1 -59 -2 -65 -29 -13 -59 -2 -67 78 -63 l72 4
1 -93 2 -93 -63 3 c-48 2 -67 -1 -79 -13 -30 -29 -16 -86 20 -83 10 1 40 1 67
1 47 -2 47 -2 47 -37 0 -19 5 -35 10 -35 15 0 12 -67 -2 -74 -10 -5 -10 -7 0
-12 16 -7 16 -46 0 -66 -15 -18 -64 -35 -122 -43 -21 -2 -41 -6 -43 -9 -3 -2
3 -18 11 -35 9 -16 16 -36 16 -43 1 -37 16 -39 81 -9 35 16 117 46 182 66 108
35 117 40 119 64 2 32 -1 63 -6 69 -2 2 -36 -8 -75 -22 l-70 -25 -7 35 c-4 21
-1 52 6 74 7 22 10 54 7 72 l-5 33 69 -2 c75 -1 87 8 74 60 -6 22 -14 26 -61
32 -33 4 -60 3 -67 -4 -10 -7 -12 12 -12 87 l0 97 68 -2 c63 -2 67 0 67 20 l1
22 12 -22 c12 -21 18 -22 97 -19 l85 4 2 -91 2 -92 -82 3 -82 3 0 -51 c0 -61
11 -67 103 -53 56 9 60 8 62 -11 4 -45 3 -276 -1 -281 -8 -7 -118 -8 -170 -1
-52 7 -60 -3 -51 -62 4 -31 17 -39 52 -32 8 1 42 4 75 6 33 2 92 6 132 9 48 3
84 0 113 -10 30 -11 47 -12 61 -4 11 6 39 7 64 3 44 -6 45 -6 47 22 3 71 -8
89 -49 73 -22 -8 -99 -12 -165 -8 -26 1 -27 4 -32 73 -4 39 -4 98 -1 131 3 33
6 69 6 80 1 18 7 20 68 17 36 -1 77 -3 90 -3 30 -1 42 17 39 61 l-3 35 -96 0
-96 0 1 87 1 88 43 0 c23 0 42 5 42 10 0 7 20 9 59 4 54 -6 59 -4 65 14 4 11
4 31 1 44 -6 23 -7 23 -168 24 -89 0 -187 3 -217 7 -40 5 -62 3 -82 -7z"/>
<path d="M780 508 c-19 -5 -36 -11 -37 -12 -3 -2 63 -166 70 -172 8 -9 87 18
87 30 0 15 -72 166 -79 165 -3 0 -22 -5 -41 -11z"/>
</g>
</svg>
