<?xml version="1.0" standalone="no"?>
<!DOCTYPE svg PUBLIC "-//W3C//DTD SVG 20010904//EN"
 "http://www.w3.org/TR/2001/REC-SVG-20010904/DTD/svg10.dtd">
<svg version="1.0" xmlns="http://www.w3.org/2000/svg"
 width="101.000000pt" height="101.000000pt" viewBox="0 0 101.000000 101.000000"
 preserveAspectRatio="xMidYMid meet">
<metadata>
Created by potrace 1.16, written by Peter Selinger 2001-2019
</metadata>
<g transform="translate(0.000000,101.000000) scale(0.100000,-0.100000)"
fill="#000000" stroke="none">
<path d="M507 993 c-16 -4 -17 -16 -15 -106 l3 -102 -55 -1 c-59 -1 -68 -11
-56 -58 4 -18 13 -22 52 -24 26 -1 48 -3 49 -4 2 -2 6 -49 10 -105 l7 -102
-33 5 c-99 13 -114 4 -102 -60 5 -26 7 -26 57 -20 47 6 154 7 301 4 33 -1 74
1 92 5 20 5 49 1 76 -8 50 -17 65 -12 68 23 4 48 0 57 -28 58 -16 1 -37 2 -48
3 -11 1 -37 -1 -57 -4 -36 -6 -37 -5 -44 29 -4 21 -1 52 6 74 7 22 10 54 7 72
l-5 33 59 0 c61 0 79 10 79 47 0 34 -30 50 -84 46 l-51 -4 1 75 c1 42 3 81 4
86 6 25 -3 30 -50 30 -55 0 -66 -12 -54 -59 3 -15 7 -50 8 -79 l1 -52 -63 3
-63 4 7 90 c8 107 -2 121 -79 101z m149 -293 c43 0 44 0 44 -34 0 -19 5 -36
11 -38 8 -3 9 -25 4 -71 -7 -60 -10 -68 -32 -73 -13 -4 -35 -2 -49 4 -13 7
-30 9 -37 6 -11 -4 -13 17 -13 106 1 87 4 109 14 105 8 -3 34 -5 58 -5z"/>
<path d="M53 900 c-17 -7 -23 -18 -23 -39 0 -48 24 -64 89 -59 l56 4 2 -93 2
-93 -43 3 c-24 2 -47 7 -53 10 -19 12 -37 -12 -36 -48 1 -51 -1 -50 93 -43 32
3 35 1 38 -27 8 -73 6 -195 -3 -204 -5 -5 -26 -12 -45 -15 -19 -2 -50 -7 -67
-11 -32 -7 -33 -9 -29 -49 7 -75 10 -78 71 -51 49 22 152 53 200 60 66 10 85
18 86 39 1 11 2 33 3 49 2 30 -1 31 -37 18 -13 -5 -40 -12 -60 -15 -33 -5 -36
-3 -41 22 -3 15 -3 52 -1 82 3 30 5 65 6 76 1 22 5 23 82 26 30 1 37 5 39 22
4 59 -10 80 -46 67 -12 -4 -34 -7 -51 -7 -30 1 -30 2 -33 64 -2 38 1 62 8 62
5 0 10 12 10 28 0 26 2 27 62 30 34 1 63 4 65 5 1 2 6 17 9 34 8 41 -18 67
-60 58 -36 -7 -196 -8 -241 0 -16 2 -40 0 -52 -5z"/>
<path d="M486 325 c-42 -60 -113 -129 -151 -147 -14 -6 -25 -14 -25 -18 0 -8
78 -60 90 -60 4 0 43 39 85 88 43 48 91 99 106 113 16 14 29 28 29 32 0 7 -74
47 -88 47 -5 0 -26 -25 -46 -55z"/>
<path d="M702 342 l-33 -27 41 -40 c23 -22 65 -68 93 -102 28 -35 53 -63 56
-63 3 0 24 16 46 35 l40 34 -95 95 c-52 53 -99 96 -105 96 -5 0 -25 -13 -43
-28z"/>
</g>
</svg>
