<?xml version="1.0" standalone="no"?>
<!DOCTYPE svg PUBLIC "-//W3C//DTD SVG 20010904//EN"
 "http://www.w3.org/TR/2001/REC-SVG-20010904/DTD/svg10.dtd">
<svg version="1.0" xmlns="http://www.w3.org/2000/svg"
 width="101.000000pt" height="101.000000pt" viewBox="0 0 101.000000 101.000000"
 preserveAspectRatio="xMidYMid meet">
<metadata>
Created by potrace 1.16, written by Peter Selinger 2001-2019
</metadata>
<g transform="translate(0.000000,101.000000) scale(0.100000,-0.100000)"
fill="#000000" stroke="none">
<path d="M618 985 c2 -14 1 -53 -2 -87 l-7 -63 -45 0 c-24 0 -44 2 -44 5 0 3
9 20 20 38 27 45 26 50 -19 62 -37 10 -70 6 -72 -9 0 -3 -2 -13 -4 -21 -2 -8
-7 -26 -10 -40 -3 -14 -8 -36 -11 -49 -3 -13 -17 -46 -32 -75 -15 -28 -28 -54
-30 -58 -3 -7 16 -17 64 -32 19 -6 25 1 45 49 l23 56 55 -3 55 -3 0 -65 1 -65
-122 0 c-91 0 -123 3 -123 12 0 16 -43 27 -80 20 l-29 -6 2 87 2 87 59 2 c36
1 62 7 68 15 7 11 3 57 -7 66 -6 6 -289 13 -311 8 -26 -7 -39 -48 -23 -77 10
-19 18 -21 68 -16 l56 5 0 -87 0 -86 -57 1 c-63 2 -76 -11 -64 -62 6 -23 10
-24 65 -22 67 3 61 15 64 -124 1 -47 0 -89 -3 -91 -3 -3 -23 -8 -45 -12 -22
-4 -47 -8 -55 -10 -8 -2 -21 -4 -27 -4 -13 -1 -12 -31 2 -84 6 -21 11 -26 24
-21 40 18 182 64 207 68 67 9 94 19 95 35 7 81 9 79 -66 56 -27 -8 -52 -12
-55 -9 -3 3 -4 40 -3 82 3 132 -2 121 59 117 36 -2 54 1 55 8 0 7 5 -3 10 -20
9 -30 25 -40 54 -33 20 5 61 11 95 13 30 2 35 -1 32 -18 -11 -64 -135 -217
-227 -281 l-56 -38 22 -17 c13 -9 35 -24 51 -34 l28 -16 55 55 c58 60 104 122
146 200 25 46 28 47 38 28 11 -21 7 -304 -4 -322 -7 -11 27 -18 63 -12 27 4
31 7 26 27 -3 13 -1 32 5 43 8 15 7 31 -4 62 -16 45 -18 174 -3 203 8 15 15 7
44 -53 47 -98 174 -230 174 -180 0 5 14 25 31 45 18 20 30 37 28 39 -2 2 -23
13 -47 25 -80 40 -153 133 -167 209 l-5 30 48 -4 c26 -2 70 -5 99 -8 59 -4 70
8 58 65 -7 29 -8 30 -47 24 -29 -5 -43 -3 -50 6 -7 11 -11 11 -15 2 -6 -15
-73 -18 -73 -3 0 6 -17 10 -39 10 l-38 0 5 53 c2 28 5 53 6 54 1 2 48 3 104 5
97 2 103 3 108 24 12 49 3 59 -66 66 -36 4 -83 6 -105 5 l-40 -2 1 67 c1 37 6
74 12 81 17 21 4 27 -53 27 -50 0 -52 -1 -47 -25z"/>
</g>
</svg>
