<?xml version="1.0" standalone="no"?>
<!DOCTYPE svg PUBLIC "-//W3C//DTD SVG 20010904//EN"
 "http://www.w3.org/TR/2001/REC-SVG-20010904/DTD/svg10.dtd">
<svg version="1.0" xmlns="http://www.w3.org/2000/svg"
 width="101.000000pt" height="101.000000pt" viewBox="0 0 101.000000 101.000000"
 preserveAspectRatio="xMidYMid meet">
<metadata>
Created by potrace 1.16, written by Peter Selinger 2001-2019
</metadata>
<g transform="translate(0.000000,101.000000) scale(0.100000,-0.100000)"
fill="#000000" stroke="none">
<path d="M508 993 c-19 -5 -25 -33 -8 -33 6 0 10 -25 10 -55 0 -30 -4 -55 -10
-55 -14 0 -13 -77 2 -82 8 -3 8 -30 -1 -109 -7 -57 -12 -117 -12 -134 1 -45
-24 -130 -52 -178 -25 -42 -114 -133 -152 -155 -19 -11 -18 -13 20 -46 22 -20
45 -35 51 -36 14 0 91 82 132 141 32 48 71 135 78 179 19 105 29 330 15 330
-13 0 -15 47 -2 52 6 2 11 32 12 68 1 36 6 73 11 83 14 27 -41 44 -94 30z"/>
<path d="M56 934 c-17 -16 -21 -61 -8 -80 4 -7 29 -11 57 -10 l50 2 -3 -57
c-1 -32 2 -60 8 -64 11 -7 13 -64 2 -82 -8 -13 -21 -14 -44 -2 -10 5 -27 5
-42 -1 -20 -7 -26 -17 -26 -39 0 -53 7 -60 60 -55 44 4 48 3 49 -18 0 -13 3
-60 6 -104 7 -108 0 -125 -64 -147 -28 -10 -51 -24 -51 -31 0 -11 19 -76 25
-83 1 -2 66 22 146 52 137 51 144 55 150 85 4 17 4 40 2 51 -6 21 -15 20 -82
-7 -19 -8 -37 -12 -40 -8 -3 3 -5 42 -4 87 3 132 -1 122 51 125 25 1 49 7 53
13 4 6 10 -7 14 -29 4 -23 4 -45 1 -50 -8 -13 23 -20 61 -15 35 6 47 31 32 70
-9 23 -5 190 6 244 4 21 0 27 -28 37 -17 6 -42 9 -54 6 -22 -6 -23 -11 -23
-101 0 -92 0 -93 -21 -83 -11 6 -37 10 -57 8 l-37 -3 -3 73 c-2 45 1 72 8 72
5 0 10 11 10 24 0 24 28 36 86 36 26 0 38 26 28 64 -7 28 -34 41 -61 29 -20
-10 -216 -8 -232 1 -5 4 -17 -1 -25 -10z"/>
<path d="M610 931 c-29 -55 2 -96 67 -88 l43 5 0 -57 c0 -97 -11 -160 -26
-154 -8 3 -29 2 -48 -1 -36 -7 -47 -26 -39 -69 4 -22 8 -24 53 -20 44 3 48 2
49 -19 0 -13 3 -52 6 -88 3 -36 3 -93 0 -127 l-6 -62 -52 5 c-113 10 -111 10
-110 -42 1 -42 5 -47 35 -44 13 1 102 2 199 1 l177 -1 5 26 c12 65 -12 77
-130 60 l-32 -5 -5 62 c-4 34 -4 91 -1 127 3 36 6 75 6 86 1 23 5 24 86 27 44
1 56 16 46 56 -4 15 -17 21 -58 26 -30 4 -59 4 -66 -1 -9 -5 -11 5 -6 47 4 30
7 79 7 109 l0 55 67 3 c69 3 83 11 83 47 0 41 -16 50 -100 53 -54 3 -80 1 -80
-7 0 -6 -16 -11 -35 -11 -19 0 -35 5 -35 10 0 6 -20 10 -45 10 -34 0 -47 -5
-55 -19z"/>
</g>
</svg>
