<?xml version="1.0" standalone="no"?>
<!DOCTYPE svg PUBLIC "-//W3C//DTD SVG 20010904//EN"
 "http://www.w3.org/TR/2001/REC-SVG-20010904/DTD/svg10.dtd">
<svg version="1.0" xmlns="http://www.w3.org/2000/svg"
 width="101.000000pt" height="102.000000pt" viewBox="0 0 101.000000 102.000000"
 preserveAspectRatio="xMidYMid meet">
<metadata>
Created by potrace 1.16, written by Peter Selinger 2001-2019
</metadata>
<g transform="translate(0.000000,102.000000) scale(0.100000,-0.100000)"
fill="#000000" stroke="none">
<path d="M573 928 l3 -93 -100 0 -100 1 -8 31 c-8 30 -9 31 -73 32 -37 0 -65
-4 -65 -9 0 -6 -16 -10 -35 -10 -19 0 -35 5 -35 10 0 6 -26 10 -59 10 -66 0
-78 -13 -65 -64 7 -29 35 -40 87 -34 l32 3 0 -81 c0 -77 -1 -81 -22 -78 -12 1
-26 5 -32 8 -5 3 -21 2 -35 -4 -19 -7 -26 -17 -26 -37 0 -46 14 -58 67 -58
l48 0 1 -112 1 -111 -69 -23 c-60 -19 -68 -24 -62 -42 11 -36 34 -87 39 -87 2
0 24 14 49 31 25 16 93 52 150 79 86 40 107 54 112 75 4 15 3 35 -2 45 -9 17
-12 17 -71 -10 l-61 -28 -6 22 c-9 34 -7 76 4 76 6 0 10 18 10 40 0 40 0 40
39 40 58 0 79 25 65 77 -6 21 -12 22 -59 20 l-53 -4 2 78 1 77 53 4 c31 3 58
11 63 19 6 9 7 4 4 -16 -10 -53 4 -60 110 -59 l95 2 0 -29 c0 -16 5 -29 10
-29 6 0 10 -29 10 -67 l0 -68 -75 -87 c-42 -48 -102 -109 -134 -135 -33 -27
-60 -52 -60 -58 -1 -11 63 -65 76 -65 4 0 23 22 40 48 18 26 57 74 87 107 49
54 54 58 55 35 0 -14 3 -55 6 -93 2 -37 0 -78 -5 -92 -8 -20 -15 -24 -49 -22
-22 0 -42 -1 -45 -4 -11 -10 29 -98 47 -103 28 -7 106 24 123 49 9 13 14 45
13 81 0 32 0 69 0 82 0 12 0 41 -1 65 0 23 4 62 9 87 l8 45 13 -45 c8 -25 29
-72 47 -105 34 -62 110 -155 126 -155 4 0 29 14 53 32 45 31 45 32 23 46 -46
31 -101 89 -138 147 l-39 60 62 63 c35 34 70 65 80 68 10 3 18 10 18 15 0 9
-77 69 -90 69 -3 0 -16 -17 -28 -37 -11 -21 -32 -53 -46 -72 l-25 -34 -21 49
c-12 27 -23 58 -24 69 -1 11 -6 29 -10 40 -4 11 -9 25 -11 30 -2 7 17 9 49 7
28 -1 61 3 72 9 21 11 77 8 121 -6 25 -8 38 18 27 59 -5 21 -13 26 -57 31 -29
3 -89 4 -134 3 l-81 -3 4 86 4 87 -31 6 c-79 16 -78 17 -76 -86z"/>
<path d="M753 987 l-42 -22 27 -41 c15 -23 32 -50 38 -60 11 -18 12 -18 52 0
23 11 42 23 42 28 0 13 -48 94 -63 106 -8 7 -25 3 -54 -11z"/>
<path d="M417 661 c-15 -10 -30 -20 -32 -23 -8 -8 75 -138 87 -138 22 0 78 42
71 53 -20 35 -88 127 -92 126 -4 0 -18 -8 -34 -18z"/>
</g>
</svg>
