<?xml version="1.0" standalone="no"?>
<!DOCTYPE svg PUBLIC "-//W3C//DTD SVG 20010904//EN"
 "http://www.w3.org/TR/2001/REC-SVG-20010904/DTD/svg10.dtd">
<svg version="1.0" xmlns="http://www.w3.org/2000/svg"
 width="101.000000pt" height="102.000000pt" viewBox="0 0 101.000000 102.000000"
 preserveAspectRatio="xMidYMid meet">
<metadata>
Created by potrace 1.16, written by Peter Selinger 2001-2019
</metadata>
<g transform="translate(0.000000,102.000000) scale(0.100000,-0.100000)"
fill="#000000" stroke="none">
<path d="M625 1013 c-11 -3 -30 -9 -43 -14 l-22 -9 25 -50 c14 -27 25 -52 25
-55 0 -3 -38 -3 -84 1 l-85 7 -7 -27 c-3 -14 -1 -32 4 -39 14 -16 14 -174 1
-182 -12 -8 -12 -142 1 -150 13 -8 13 -52 -1 -61 -7 -4 -9 -39 -4 -109 6 -84
4 -107 -9 -133 -21 -40 -20 -41 8 -77 l24 -29 53 41 c30 22 80 57 111 77 l57
36 -17 45 c-18 50 -9 51 -96 -13 l-45 -33 -6 33 c-3 18 -3 65 0 103 3 39 6 79
6 90 1 16 8 20 38 20 35 0 37 -2 57 -56 45 -122 132 -229 229 -280 l45 -24 39
45 c40 46 43 60 13 60 -22 0 -116 44 -147 68 l-24 19 45 38 c25 20 59 44 75
52 16 8 29 18 29 23 0 5 -17 21 -37 35 -23 15 -31 25 -21 25 20 0 34 72 23
122 -8 38 -8 71 1 151 3 32 3 73 0 92 l-7 33 -62 0 c-120 1 -128 2 -122 12 6
9 -39 122 -47 119 -2 -1 -12 -4 -23 -6z m125 -201 c33 -7 35 -9 35 -48 l0 -41
-132 1 -132 1 2 40 2 40 48 -4 c27 -1 54 2 60 8 12 12 63 14 117 3z m28 -158
c20 -6 23 -12 20 -48 l-3 -41 -65 -8 c-44 -6 -77 -4 -102 4 -20 6 -53 9 -73 6
l-36 -6 7 37 c4 20 8 39 10 41 2 2 26 3 53 3 28 -1 53 3 56 8 7 11 97 13 133
4z m31 -163 c23 -6 22 -7 -24 -59 -26 -28 -50 -52 -55 -52 -7 0 -50 90 -50
105 0 4 8 4 18 1 9 -3 24 -1 32 4 17 11 43 11 79 1z"/>
<path d="M170 889 c0 -7 -21 -10 -60 -7 -50 2 -61 0 -66 -14 -15 -49 23 -74
94 -62 l39 6 6 -68 c11 -118 17 -109 -66 -109 l-72 0 -3 -30 c-4 -49 13 -62
68 -54 8 1 27 1 41 1 26 -2 26 -3 34 -103 4 -56 3 -105 -2 -109 -8 -8 -76 -22
-140 -29 -13 -1 -12 -32 2 -83 8 -32 15 -34 55 -13 32 16 172 56 210 60 55 5
90 18 91 34 5 58 4 71 -6 71 -7 0 -104 -24 -120 -30 -1 0 -1 47 0 104 l0 103
26 -2 c14 -1 31 -5 37 -9 20 -12 52 4 58 29 8 33 -4 66 -24 64 -9 -1 -35 -1
-58 0 l-41 1 1 83 1 82 33 -3 c51 -6 100 6 107 27 10 32 -5 73 -24 66 -34 -13
-141 -18 -141 -6 0 6 -17 11 -40 11 -22 0 -40 -5 -40 -11z"/>
</g>
</svg>
