<?xml version="1.0" standalone="no"?>
<!DOCTYPE svg PUBLIC "-//W3C//DTD SVG 20010904//EN"
 "http://www.w3.org/TR/2001/REC-SVG-20010904/DTD/svg10.dtd">
<svg version="1.0" xmlns="http://www.w3.org/2000/svg"
 width="101.000000pt" height="101.000000pt" viewBox="0 0 101.000000 101.000000"
 preserveAspectRatio="xMidYMid meet">
<metadata>
Created by potrace 1.16, written by Peter Selinger 2001-2019
</metadata>
<g transform="translate(0.000000,101.000000) scale(0.100000,-0.100000)"
fill="#000000" stroke="none">
<path d="M438 973 c-19 -5 -33 -53 -23 -84 11 -32 12 -211 2 -239 -4 -13 -6
-35 -2 -47 5 -21 9 -23 53 -17 104 12 182 14 292 4 88 -7 116 -7 122 3 11 17
10 125 -1 132 -13 8 -13 166 1 182 5 7 8 24 4 37 -5 21 -10 23 -43 20 -98 -12
-235 -15 -246 -6 -7 6 -35 10 -62 10 -28 0 -57 2 -65 5 -8 2 -23 3 -32 0z
m297 -79 l51 -6 -1 -39 0 -39 -135 3 -135 2 3 33 c4 31 5 32 53 32 26 0 51 5
54 10 7 11 38 12 110 4z m50 -191 l0 -38 -135 0 -135 0 -1 32 0 32 95 4 c53 1
114 4 136 5 40 2 40 2 40 -35z"/>
<path d="M40 904 c-21 -54 13 -100 56 -76 28 16 64 2 64 -24 0 -13 5 -24 10
-24 7 0 10 -25 8 -67 -3 -64 -4 -67 -28 -67 -14 0 -37 4 -53 8 -34 10 -57 -7
-57 -43 0 -51 21 -61 96 -48 27 5 32 2 33 -16 0 -12 3 -51 6 -87 3 -36 3 -79
0 -96 -6 -33 -2 -32 -105 -51 -13 -2 -26 -6 -28 -7 -5 -6 20 -96 27 -96 4 0
34 11 67 24 32 13 98 34 146 47 75 20 87 26 91 47 5 28 -2 62 -13 62 -4 0 -27
-7 -50 -15 -24 -8 -46 -13 -49 -9 -3 3 -5 40 -4 82 3 130 1 123 36 117 17 -3
33 -8 37 -10 15 -9 32 15 33 49 1 36 -17 61 -36 49 -5 -3 -21 -6 -37 -7 -25
-2 -29 2 -34 33 -3 20 -6 64 -6 98 l0 62 34 -3 c18 -2 38 -6 45 -10 38 -24 82
25 66 73 -8 25 -65 38 -109 24 -31 -10 -69 -9 -178 3 -56 6 -58 6 -68 -22z"/>
<path d="M669 572 c-21 -4 -31 -39 -18 -63 5 -11 7 -83 4 -178 -4 -111 -3
-167 5 -181 16 -30 75 -54 100 -40 11 6 42 8 72 4 45 -5 57 -3 82 17 27 21 56
74 56 102 0 7 -20 23 -44 34 l-44 22 -6 -33 c-9 -47 -33 -65 -84 -63 -55 2
-80 26 -64 62 6 14 9 31 6 40 -6 16 82 77 169 118 26 12 47 25 47 29 0 5 -19
21 -41 38 l-41 30 -61 -55 c-34 -31 -66 -54 -71 -52 -13 5 -9 83 7 132 6 16 1
22 -26 30 -17 6 -39 9 -48 7z"/>
<path d="M429 563 c-21 -5 -31 -41 -18 -64 5 -10 7 -72 5 -140 -4 -114 -6
-124 -29 -147 -25 -24 -25 -26 -9 -61 9 -20 17 -37 18 -39 1 -2 51 21 111 50
l108 53 -1 38 c-1 21 -3 40 -6 42 -2 3 -30 -9 -61 -25 l-56 -31 -6 34 c-4 20
-2 44 4 55 6 11 8 27 5 35 -6 16 -1 17 84 20 44 1 48 8 43 61 -2 27 -8 31 -26
16 -12 -10 -21 -10 -40 -2 -14 6 -32 9 -40 6 -12 -5 -14 2 -11 40 3 25 2 47
-2 49 -14 8 -58 14 -73 10z"/>
</g>
</svg>
