<?xml version="1.0" standalone="no"?>
<!DOCTYPE svg PUBLIC "-//W3C//DTD SVG 20010904//EN"
 "http://www.w3.org/TR/2001/REC-SVG-20010904/DTD/svg10.dtd">
<svg version="1.0" xmlns="http://www.w3.org/2000/svg"
 width="101.000000pt" height="101.000000pt" viewBox="0 0 101.000000 101.000000"
 preserveAspectRatio="xMidYMid meet">
<metadata>
Created by potrace 1.16, written by Peter Selinger 2001-2019
</metadata>
<g transform="translate(0.000000,101.000000) scale(0.100000,-0.100000)"
fill="#000000" stroke="none">
<path d="M434 953 l1 -58 -47 0 c-29 0 -48 4 -48 11 0 7 -23 14 -52 18 -69 8
-221 7 -235 -2 -15 -10 -25 -49 -18 -72 5 -17 13 -19 63 -15 l57 5 -3 -59 c-1
-34 2 -62 8 -66 14 -9 13 -58 -3 -79 -10 -14 -19 -16 -38 -10 -45 16 -69 11
-75 -13 -4 -13 -3 -34 0 -48 6 -23 9 -24 60 -20 62 6 56 21 59 -142 1 -56 -1
-104 -4 -108 -4 -3 -30 -8 -59 -10 -29 -2 -54 -6 -56 -8 -3 -2 1 -25 8 -51 9
-35 16 -45 28 -41 17 7 163 48 229 65 42 11 43 12 38 45 -5 32 -4 33 18 25 12
-5 26 -6 29 -3 13 13 187 20 304 12 l33 -2 -31 -32 c-16 -17 -30 -34 -30 -37
0 -3 17 -17 39 -31 21 -14 65 -50 98 -81 l60 -55 37 38 37 38 -96 73 -96 74
27 14 c26 14 79 13 145 -4 24 -5 27 -3 31 27 9 60 3 67 -60 64 l-57 -3 0 197
0 197 52 -3 c44 -2 53 0 58 17 7 23 -3 62 -19 72 -6 4 -28 8 -48 8 l-38 0 0
53 0 53 -47 0 c-27 -1 -51 -5 -55 -11 -4 -5 -5 -32 -2 -58 l7 -48 -106 3 -105
3 5 58 4 57 -54 0 -54 0 1 -57z m-87 -115 c-5 -16 10 -48 23 -48 5 0 16 7 24
16 9 8 21 14 26 12 7 -2 11 -80 13 -209 l2 -207 -21 9 c-44 16 -68 -2 -67 -48
1 -15 -84 -49 -95 -39 -4 4 -6 47 -5 94 3 141 -1 130 53 128 46 -1 49 0 53 28
8 56 0 64 -56 62 l-52 -1 -3 73 c-2 45 1 72 8 72 5 0 10 11 10 25 0 20 5 25
28 26 15 1 33 1 40 0 6 -1 12 3 12 9 0 5 3 10 6 10 3 0 4 -6 1 -12z m388 -74
l0 -45 -95 6 c-52 4 -95 8 -96 9 -1 0 -4 15 -7 33 l-6 32 77 4 c42 1 88 4 102
5 24 2 26 -1 25 -44z m0 -160 c0 -51 -12 -56 -105 -49 -30 3 -64 5 -75 6 -17
1 -20 7 -17 40 4 42 5 43 137 45 l60 1 0 -43z m-25 -110 c23 -4 26 -10 28 -49
1 -40 -1 -44 -26 -49 -15 -3 -52 -3 -82 -1 -30 3 -65 5 -77 6 -20 1 -22 6 -21
45 2 34 6 43 18 39 8 -2 22 0 30 5 15 9 84 11 130 4z"/>
<path d="M460 293 c-28 -36 -116 -102 -160 -121 l-35 -14 25 -17 c13 -9 31
-24 39 -34 9 -9 18 -17 22 -17 4 0 53 34 109 75 56 41 109 75 116 75 27 0 13
21 -33 50 -26 17 -50 30 -54 30 -4 0 -17 -12 -29 -27z"/>
</g>
</svg>
