<?xml version="1.0" standalone="no"?>
<!DOCTYPE svg PUBLIC "-//W3C//DTD SVG 20010904//EN"
 "http://www.w3.org/TR/2001/REC-SVG-20010904/DTD/svg10.dtd">
<svg version="1.0" xmlns="http://www.w3.org/2000/svg"
 width="101.000000pt" height="102.000000pt" viewBox="0 0 101.000000 102.000000"
 preserveAspectRatio="xMidYMid meet">
<metadata>
Created by potrace 1.16, written by Peter Selinger 2001-2019
</metadata>
<g transform="translate(0.000000,102.000000) scale(0.100000,-0.100000)"
fill="#000000" stroke="none">
<path d="M562 913 l3 -108 -52 -3 c-32 -2 -53 1 -53 7 0 6 -18 11 -41 11 -26
0 -38 4 -34 11 4 6 4 25 1 42 l-6 32 -170 2 -170 1 -6 -25 c-4 -13 -1 -36 5
-50 11 -24 15 -25 69 -21 l57 6 -1 -97 c-1 -108 9 -98 -82 -87 -27 4 -33 1
-38 -20 -3 -13 -4 -35 0 -47 4 -19 11 -23 33 -20 85 10 88 10 91 -22 6 -54 7
-203 2 -209 -3 -3 -21 -7 -40 -9 -19 -3 -47 -8 -63 -12 -26 -7 -27 -10 -24
-56 2 -27 6 -52 9 -55 3 -2 26 5 52 16 82 35 226 69 226 54 0 -2 -20 -28 -45
-58 -49 -61 -52 -66 -31 -66 7 0 25 -9 39 -20 14 -11 29 -20 34 -20 18 0 77
114 101 193 15 49 26 114 28 162 5 122 6 125 13 126 3 1 17 2 31 4 14 1 36 5
49 9 19 7 23 5 18 -7 -3 -9 -1 -32 4 -52 12 -43 65 -73 99 -55 10 5 49 8 87 6
80 -5 103 6 132 62 l19 38 -43 23 c-32 17 -47 33 -55 57 -10 30 -14 33 -53 32
-23 0 -46 -3 -51 -6 -6 -3 -19 -6 -30 -7 -17 0 -21 6 -22 30 l0 30 87 0 c86 0
86 0 76 -23 -12 -26 -10 -29 23 -35 14 -3 32 -8 40 -11 12 -5 21 11 42 74 l26
80 -23 6 c-13 3 -33 1 -45 -6 -11 -6 -67 -14 -124 -17 l-103 -6 1 34 1 34 123
0 c98 0 125 3 132 15 12 18 13 67 2 74 -4 2 -44 -1 -89 -7 -66 -8 -88 -8 -107
3 -14 7 -32 10 -41 6 -14 -5 -16 -2 -11 20 9 34 -5 44 -62 44 l-42 0 2 -107z
m-192 -226 c6 -163 5 -227 -3 -296 -6 -51 -17 -83 -17 -47 0 12 -6 16 -17 12
-10 -3 -32 -8 -50 -11 -28 -4 -32 -2 -37 22 -3 16 -3 53 -1 83 3 30 5 65 6 77
1 14 7 22 18 21 58 -4 79 2 84 28 9 51 0 61 -54 58 l-49 -2 3 91 2 92 55 2 55
1 5 -131z m194 11 c-1 -42 -2 -43 -32 -40 -16 2 -33 -1 -37 -7 -15 -26 -30 -9
-30 34 l-1 44 51 4 c27 2 50 4 50 5 0 1 -1 -17 -1 -40z m241 -107 c-7 -38 -32
-52 -86 -48 -57 5 -67 11 -65 39 1 19 7 22 45 25 24 2 46 4 48 6 1 2 16 4 33
4 27 0 29 -3 25 -26z m-459 -298 c-3 -4 -6 2 -5 13 0 11 3 14 6 6 3 -7 2 -16
-1 -19z"/>
<path d="M517 418 c-3 -11 -1 -31 5 -44 20 -43 -34 -172 -88 -211 l-26 -19 43
-29 43 -28 33 39 c34 39 76 153 76 205 0 20 5 27 21 27 12 1 32 2 46 4 28 3
32 -12 31 -117 -1 -33 1 -70 4 -82 6 -27 59 -47 86 -32 11 6 39 7 64 3 58 -8
86 10 105 67 11 34 12 43 2 47 -7 2 -26 15 -41 28 -34 29 -41 30 -41 7 -1 -62
-65 -93 -95 -47 -10 16 -13 32 -8 47 4 12 8 31 9 42 1 11 4 42 7 68 l6 49 -27
-8 c-29 -9 -153 -9 -214 -1 -30 4 -37 2 -41 -15z"/>
</g>
</svg>
