<?xml version="1.0" standalone="no"?>
<!DOCTYPE svg PUBLIC "-//W3C//DTD SVG 20010904//EN"
 "http://www.w3.org/TR/2001/REC-SVG-20010904/DTD/svg10.dtd">
<svg version="1.0" xmlns="http://www.w3.org/2000/svg"
 width="101.000000pt" height="101.000000pt" viewBox="0 0 101.000000 101.000000"
 preserveAspectRatio="xMidYMid meet">
<metadata>
Created by potrace 1.16, written by Peter Selinger 2001-2019
</metadata>
<g transform="translate(0.000000,101.000000) scale(0.100000,-0.100000)"
fill="#000000" stroke="none">
<path d="M595 965 c5 -42 4 -46 -20 -55 -34 -13 -102 -13 -110 0 -7 12 -35 13
-52 2 -22 -14 -26 -58 -7 -77 15 -15 29 -17 93 -11 l75 6 -25 -26 c-27 -29
-118 -76 -131 -68 -5 3 -16 0 -24 -7 -13 -11 -11 -16 16 -44 l31 -32 -48 3
c-26 1 -71 3 -99 3 l-51 1 1 88 c1 95 3 98 64 78 47 -16 82 18 67 65 -7 21
-11 21 -105 14 -62 -4 -100 -3 -104 4 -4 5 -33 9 -66 9 -56 -1 -59 -3 -65 -29
-4 -15 -1 -38 5 -50 10 -19 18 -21 63 -17 l52 4 0 -90 0 -91 -47 0 c-41 0 -48
-3 -53 -23 -3 -12 0 -32 6 -43 9 -17 18 -20 52 -17 l42 3 3 -55 c4 -96 4 -171
0 -175 -2 -2 -19 -6 -38 -8 -19 -3 -47 -8 -61 -11 l-25 -7 14 -47 15 -47 81
27 c45 15 100 30 121 33 106 16 96 10 101 69 l4 45 -64 -19 -64 -18 -7 45 c-4
25 -2 49 3 56 6 7 9 35 9 62 l-2 50 82 -3 c48 -1 84 2 88 8 8 14 68 13 83 -2
8 -8 15 -8 24 -1 15 13 109 16 184 7 61 -7 56 10 55 -203 0 -95 -4 -158 -11
-165 -6 -6 -31 -9 -55 -8 -42 1 -58 -9 -35 -23 5 -3 14 -24 20 -47 l11 -40 42
6 c23 4 58 15 77 24 l35 17 -4 134 c-2 104 0 135 10 143 11 7 11 11 2 15 -15
6 -18 73 -3 73 6 0 10 17 10 38 l0 38 44 -3 c49 -4 63 12 50 61 -6 24 -9 25
-65 23 -32 -1 -59 -1 -59 0 0 1 14 18 30 37 l30 34 -96 49 -96 50 66 6 c37 4
78 2 91 -3 45 -17 71 8 59 57 -7 25 -8 25 -80 18 -51 -5 -74 -3 -74 4 0 6 -18
11 -41 11 -38 0 -41 2 -34 23 17 56 14 62 -43 65 l-52 3 5 -46z m105 -231 c37
-19 78 -47 91 -61 l24 -26 -64 7 c-35 3 -109 6 -165 6 l-101 0 45 29 c25 16
56 40 69 55 14 14 26 26 29 26 2 0 35 -16 72 -36z"/>
<path d="M418 523 c-13 -3 -15 -12 -11 -41 11 -92 13 -198 2 -229 -13 -42 -9
-47 38 -46 38 1 56 18 47 44 -3 12 2 17 18 18 13 0 39 2 58 3 26 2 35 -1 35
-12 0 -19 24 -29 56 -23 25 5 25 5 22 105 -1 55 1 108 7 117 5 10 7 26 4 37
-5 17 -15 19 -117 19 -62 0 -119 3 -127 6 -8 4 -22 5 -32 2z m188 -88 c0 -11
4 -32 8 -48 12 -39 -9 -61 -48 -52 -17 3 -42 7 -56 8 -21 2 -25 7 -22 32 1 17
3 40 3 53 1 16 6 21 18 18 9 -3 23 -1 31 4 25 17 65 8 66 -15z"/>
</g>
</svg>
