<?xml version="1.0" standalone="no"?>
<!DOCTYPE svg PUBLIC "-//W3C//DTD SVG 20010904//EN"
 "http://www.w3.org/TR/2001/REC-SVG-20010904/DTD/svg10.dtd">
<svg version="1.0" xmlns="http://www.w3.org/2000/svg"
 width="101.000000pt" height="101.000000pt" viewBox="0 0 101.000000 101.000000"
 preserveAspectRatio="xMidYMid meet">
<metadata>
Created by potrace 1.16, written by Peter Selinger 2001-2019
</metadata>
<g transform="translate(0.000000,101.000000) scale(0.100000,-0.100000)"
fill="#000000" stroke="none">
<path d="M128 983 c-21 -5 -31 -34 -22 -67 6 -25 8 -26 73 -22 l66 3 0 -36 c0
-33 -2 -36 -30 -35 -16 0 -40 4 -53 8 -45 15 -71 -43 -35 -79 13 -14 28 -16
68 -11 l51 6 1 -34 c1 -33 -1 -35 -38 -41 -21 -4 -44 -3 -50 1 -7 4 -27 8 -45
10 -36 2 -46 -14 -37 -60 6 -32 17 -34 108 -20 75 10 160 14 195 8 l34 -6 -54
-35 c-76 -49 -165 -89 -251 -113 -39 -11 -73 -21 -75 -23 -2 -2 13 -22 33 -44
l38 -41 47 19 c45 17 48 17 46 1 -1 -9 0 -31 0 -48 2 -29 4 -30 35 -26 17 2
77 3 132 3 55 0 139 -1 188 -1 80 -1 87 -2 78 -18 -12 -22 -97 -102 -134 -126
-15 -10 -27 -21 -27 -25 0 -4 21 -17 47 -30 l48 -23 73 76 c40 42 95 111 123
153 28 43 51 79 53 80 1 1 26 -4 56 -12 30 -8 55 -13 56 -12 5 7 44 101 44
107 0 4 -12 7 -27 8 -16 0 -41 3 -58 6 -16 3 -41 7 -55 9 -90 15 -188 56 -223
95 -18 19 -18 20 5 21 13 1 64 3 113 6 66 4 102 2 133 -9 51 -18 68 -13 75 21
11 57 -17 79 -63 51 -15 -10 -27 -10 -51 -1 -17 7 -36 10 -44 7 -9 -4 -13 4
-12 28 l1 33 63 -2 c59 -2 63 -1 69 21 13 53 4 61 -67 61 l-65 0 0 30 1 30 68
0 c76 1 91 11 82 59 -3 16 -7 31 -8 33 -2 1 -26 3 -53 3 -152 -1 -222 1 -249
6 -16 3 -42 1 -57 -5 -22 -8 -28 -17 -28 -40 0 -46 22 -61 89 -58 l57 2 0 -30
-1 -30 -62 1 c-57 1 -62 0 -68 -23 -12 -51 0 -61 68 -60 l63 2 1 -32 c1 -29
-1 -31 -31 -28 -17 1 -35 4 -41 5 -27 6 -45 -2 -45 -20 0 -19 -1 -19 -40 -4
-39 16 -42 16 -55 -2 -12 -16 -14 -16 -15 -3 0 11 -10 16 -32 17 -75 3 -75 3
-75 33 0 25 4 29 27 29 78 0 110 23 95 68 -4 14 -14 18 -41 17 -58 -4 -74 4
-74 35 0 25 4 28 40 32 22 2 48 0 58 -3 28 -11 37 2 37 51 l0 45 -124 -8 c-85
-6 -132 -5 -148 2 -24 11 -44 12 -75 4z m396 -418 c8 -22 124 -105 191 -136
l60 -27 -30 -13 c-16 -6 -46 -11 -65 -11 -19 1 -64 1 -100 1 -36 0 -108 0
-160 0 -52 -1 -111 2 -130 6 -19 3 -46 6 -59 6 -17 1 0 13 56 44 86 45 198
118 208 135 9 14 22 12 29 -5z"/>
<path d="M470 507 c-19 -6 -36 -11 -38 -12 -1 -1 4 -15 13 -31 8 -16 15 -37
15 -47 0 -15 6 -17 41 -13 23 2 46 9 51 14 18 18 -19 105 -42 101 -3 -1 -21
-6 -40 -12z"/>
</g>
</svg>
