<?xml version="1.0" standalone="no"?>
<!DOCTYPE svg PUBLIC "-//W3C//DTD SVG 20010904//EN"
 "http://www.w3.org/TR/2001/REC-SVG-20010904/DTD/svg10.dtd">
<svg version="1.0" xmlns="http://www.w3.org/2000/svg"
 width="101.000000pt" height="101.000000pt" viewBox="0 0 101.000000 101.000000"
 preserveAspectRatio="xMidYMid meet">
<metadata>
Created by potrace 1.16, written by Peter Selinger 2001-2019
</metadata>
<g transform="translate(0.000000,101.000000) scale(0.100000,-0.100000)"
fill="#000000" stroke="none">
<path d="M384 825 c1 -180 0 -177 64 -167 l32 4 -3 117 -2 116 80 2 c106 2
148 2 220 0 l60 -2 -1 -75 c-1 -114 -2 -118 -17 -99 -16 21 -256 37 -299 20
-45 -17 -34 -84 13 -82 13 1 42 3 64 4 22 1 43 6 46 11 4 5 40 4 85 -1 64 -8
81 -7 87 4 7 11 11 11 23 -2 17 -17 61 -20 84 -5 12 8 13 13 3 30 -15 24 -17
70 -3 70 6 0 10 18 10 40 0 22 -4 40 -10 40 -5 0 -10 25 -10 55 0 30 5 55 10
55 6 0 10 6 10 14 0 12 -8 13 -37 8 -21 -4 -62 -6 -90 -5 -50 2 -92 3 -235 2
-35 0 -91 2 -124 5 l-62 5 2 -164z"/>
<path d="M33 932 c-14 -15 -16 -26 -7 -59 6 -21 12 -23 68 -20 l61 2 0 -91 0
-91 -47 5 c-43 4 -48 2 -57 -20 -5 -13 -7 -36 -4 -50 5 -25 7 -26 58 -22 50 5
53 3 54 -18 0 -13 3 -52 6 -88 3 -36 3 -79 0 -97 -6 -32 -8 -34 -83 -48 -52
-10 -63 -16 -57 -35 3 -10 8 -32 10 -50 2 -18 6 -35 9 -38 3 -3 38 10 78 28
39 18 109 45 155 60 46 15 85 29 88 32 3 3 7 24 9 46 4 49 -1 51 -75 22 -28
-12 -54 -18 -58 -15 -3 4 -5 41 -4 83 3 121 4 124 19 118 8 -3 25 0 39 6 19 8
28 8 40 -2 14 -12 18 -11 26 1 11 17 12 60 1 76 -4 7 -30 11 -63 10 l-56 -2 1
87 1 86 32 4 c18 2 39 0 47 -4 30 -17 60 45 38 78 -9 14 -122 18 -122 5 0 -6
-16 -11 -35 -11 -19 0 -35 4 -35 9 0 15 -122 18 -137 3z"/>
<path d="M495 841 c-3 -11 -3 -31 1 -45 7 -30 15 -31 195 -20 l105 7 -1 36 0
37 -45 -7 c-67 -11 -180 -11 -180 1 0 6 -15 10 -34 10 -25 0 -36 -5 -41 -19z"/>
<path d="M428 623 c-14 -4 -16 -12 -12 -46 7 -46 7 -163 2 -354 -3 -134 -3
-135 60 -125 31 4 37 13 34 53 -1 11 7 17 21 18 12 0 54 3 92 6 39 3 93 3 122
0 l52 -6 -5 -38 c-6 -44 5 -51 69 -43 34 4 37 7 30 26 -4 11 -7 45 -6 74 3 77
3 156 -2 262 -2 52 0 102 5 111 5 8 7 25 4 37 -6 22 -4 22 -164 21 -36 0 -108
-1 -160 -2 -52 0 -102 2 -110 5 -8 3 -23 4 -32 1z m323 -69 c42 -5 46 -7 46
-34 0 -27 -3 -29 -51 -35 -28 -3 -82 -3 -121 0 -38 3 -79 6 -91 6 -16 1 -21 8
-21 30 0 22 4 28 16 24 9 -2 22 -1 30 4 16 10 127 13 192 5z m0 -130 c42 -5
47 -8 45 -29 -1 -21 -7 -25 -51 -30 -27 -3 -81 -3 -120 0 -38 3 -79 6 -90 6
-14 1 -20 9 -21 26 -2 18 2 22 15 19 9 -3 22 -2 30 3 16 10 127 13 192 5z m0
-120 c42 -5 46 -7 46 -34 0 -27 -3 -29 -51 -35 -28 -3 -82 -3 -121 0 -38 3
-79 6 -91 6 -16 1 -21 8 -21 30 0 22 4 28 16 24 9 -2 22 -1 30 4 16 10 127 13
192 5z"/>
</g>
</svg>
