<?xml version="1.0" standalone="no"?>
<!DOCTYPE svg PUBLIC "-//W3C//DTD SVG 20010904//EN"
 "http://www.w3.org/TR/2001/REC-SVG-20010904/DTD/svg10.dtd">
<svg version="1.0" xmlns="http://www.w3.org/2000/svg"
 width="101.000000pt" height="101.000000pt" viewBox="0 0 101.000000 101.000000"
 preserveAspectRatio="xMidYMid meet">
<metadata>
Created by potrace 1.16, written by Peter Selinger 2001-2019
</metadata>
<g transform="translate(0.000000,101.000000) scale(0.100000,-0.100000)"
fill="#000000" stroke="none">
<path d="M350 967 c0 -7 -10 -14 -22 -16 -26 -3 -238 -4 -253 -1 -25 5 -35 -2
-41 -34 -3 -19 -1 -43 5 -53 6 -10 11 -13 11 -5 0 9 13 12 46 10 l46 -3 2 -95
1 -95 -47 2 c-42 2 -47 0 -52 -23 -14 -54 2 -69 70 -65 36 3 34 11 37 -131 1
-47 -1 -89 -4 -92 -6 -6 -21 -10 -84 -22 -16 -3 -31 -7 -33 -9 -7 -7 19 -105
28 -105 4 0 32 11 62 24 31 14 91 34 135 47 l81 22 -1 48 c-1 27 -3 49 -4 49
-1 0 -25 -9 -52 -20 l-50 -19 -5 27 c-3 15 -3 52 -1 82 3 30 5 65 6 76 1 22 5
23 77 26 25 1 32 5 34 22 4 64 -6 76 -71 76 l-44 0 7 53 c3 28 6 64 6 80 0 25
3 27 38 27 41 0 54 7 68 32 6 11 10 -27 11 -110 1 -70 2 -143 3 -162 0 -19 0
-66 0 -105 0 -38 2 -103 6 -142 4 -51 1 -88 -10 -125 -10 -36 -12 -57 -5 -70
6 -10 7 -27 4 -37 -7 -22 16 -30 63 -23 l33 4 -8 62 c-7 55 -7 77 -2 152 1 15
8 22 23 23 77 5 94 5 117 -2 23 -6 27 -3 32 19 9 50 -1 61 -51 62 -26 0 -56 1
-67 2 -11 0 -29 -1 -40 -2 -16 -2 -19 2 -17 22 2 14 3 35 4 48 0 16 5 22 14
18 8 -3 25 0 39 6 17 7 36 8 64 0 23 -5 41 -6 41 -1 0 20 30 7 32 -13 0 -13 2
-27 3 -33 2 -19 38 -120 51 -146 12 -24 11 -28 -9 -46 -37 -34 -73 -54 -139
-76 l-63 -22 41 -41 42 -41 48 24 c27 14 71 42 98 63 l50 38 46 -41 c61 -55
102 -77 108 -59 2 8 18 30 35 49 24 27 28 36 17 43 -8 5 -17 7 -22 4 -10 -6
-101 40 -117 59 -10 13 -7 25 13 65 28 55 64 174 72 236 5 38 5 38 -23 30 -31
-9 -163 -9 -230 0 -30 4 -43 2 -43 -7 0 -8 -19 -11 -63 -10 -108 4 -102 2
-102 42 l0 36 97 0 c98 0 98 0 98 25 1 23 2 23 15 -7 13 -29 18 -33 55 -33 22
0 40 5 40 11 0 7 25 8 78 4 l77 -7 2 118 c2 66 5 130 8 144 8 36 -7 55 -33 41
-25 -13 -99 -15 -107 -2 -9 15 -87 11 -112 -5 -20 -13 -23 -13 -23 2 0 13 -7
15 -32 10 -79 -14 -218 -19 -218 -7 0 6 -9 11 -20 11 -11 0 -20 -6 -20 -13z
m205 -134 l0 -68 -57 0 -57 0 2 62 2 62 45 4 c25 2 50 4 55 5 6 1 10 -26 10
-65z m191 40 c44 2 64 -1 64 -9 0 -6 3 -31 6 -55 l6 -44 -81 1 c-69 1 -81 -1
-81 -15 0 -12 -2 -13 -8 -4 -5 7 -7 32 -6 55 1 24 2 56 3 71 1 26 2 27 17 13
12 -12 31 -15 80 -13z m48 -379 c-3 -20 -14 -54 -24 -77 l-18 -42 -11 28 c-6
15 -13 38 -15 50 -2 12 -7 33 -11 47 -6 24 -4 26 39 28 l46 2 -6 -36z"/>
</g>
</svg>
