<?xml version="1.0" standalone="no"?>
<!DOCTYPE svg PUBLIC "-//W3C//DTD SVG 20010904//EN"
 "http://www.w3.org/TR/2001/REC-SVG-20010904/DTD/svg10.dtd">
<svg version="1.0" xmlns="http://www.w3.org/2000/svg"
 width="101.000000pt" height="101.000000pt" viewBox="0 0 101.000000 101.000000"
 preserveAspectRatio="xMidYMid meet">
<metadata>
Created by potrace 1.16, written by Peter Selinger 2001-2019
</metadata>
<g transform="translate(0.000000,101.000000) scale(0.100000,-0.100000)"
fill="#000000" stroke="none">
<path d="M528 983 c-19 -5 -33 -53 -23 -82 5 -18 13 -19 73 -16 l68 4 -1 -38
0 -39 -57 6 c-56 5 -58 4 -68 -24 -8 -21 -8 -35 0 -53 10 -22 14 -23 68 -18
l58 6 1 -39 c2 -35 -1 -41 -23 -46 -13 -3 -32 -3 -41 1 -10 4 -32 9 -50 10
-35 4 -43 -10 -35 -63 l4 -33 52 7 c67 9 279 9 332 1 41 -7 42 -6 46 25 9 58
0 71 -41 62 -20 -4 -52 -7 -71 -6 -84 4 -79 1 -77 43 1 33 4 38 20 33 11 -3
43 -3 73 1 58 7 70 22 58 69 -6 25 -8 25 -79 23 l-73 -2 2 35 1 35 82 -2 c80
-2 83 -1 89 23 12 47 -2 71 -46 78 -23 3 -46 4 -52 0 -12 -7 -223 -8 -253 -1
-11 3 -28 3 -37 0z"/>
<path d="M86 964 c-4 -9 -4 -32 0 -50 l6 -34 77 3 76 3 -1 -41 -1 -40 -66 0
c-60 0 -67 -2 -72 -23 -3 -12 -1 -32 6 -43 9 -18 18 -20 72 -17 l62 3 0 -37
c0 -36 -1 -36 -48 -42 -26 -4 -53 -4 -59 0 -6 4 -24 8 -39 9 -31 2 -39 -13
-31 -63 4 -30 5 -31 46 -26 90 12 185 14 266 5 47 -4 86 -7 88 -6 7 5 6 85 -1
91 -4 4 -18 2 -31 -5 -17 -10 -29 -10 -44 -2 -11 6 -27 8 -36 5 -12 -5 -15 2
-13 34 1 28 5 38 14 35 28 -11 102 8 108 27 8 25 -4 71 -19 69 -6 -1 -30 -1
-53 0 -41 1 -43 3 -43 31 0 27 3 30 33 30 71 0 99 27 83 78 -6 18 -16 20 -86
21 -47 0 -80 -3 -80 -9 0 -6 -16 -10 -35 -10 -19 0 -35 5 -35 10 0 6 -30 10
-69 10 -54 0 -70 -3 -75 -16z"/>
<path d="M680 551 c0 -20 -144 -162 -210 -207 -55 -37 -73 -45 -82 -36 -9 9
-10 19 -1 43 7 17 10 36 7 44 -3 7 -1 16 5 20 6 3 11 15 11 26 0 16 -5 19 -20
14 -10 -3 -28 -2 -38 4 -10 5 -28 8 -39 5 -16 -4 -19 -12 -15 -37 7 -52 7
-165 0 -172 -11 -11 -144 -55 -182 -59 -56 -8 -59 -14 -27 -51 16 -18 30 -38
33 -45 2 -8 34 2 93 28 l90 39 26 -19 c15 -11 37 -19 50 -18 13 0 87 2 164 4
114 2 145 5 167 20 26 17 68 91 68 120 0 8 -21 26 -46 40 -54 30 -54 30 -54
14 0 -7 -5 -30 -11 -51 -16 -58 -74 -75 -234 -66 -27 1 -28 2 -11 13 86 51
203 135 263 190 40 36 82 70 93 76 30 16 25 26 -29 49 -54 23 -71 26 -71 12z"/>
<path d="M445 533 c-16 -8 -32 -17 -34 -19 -4 -4 79 -97 91 -102 4 -2 24 6 44
18 l36 23 -48 48 c-27 27 -51 49 -54 49 -3 -1 -18 -8 -35 -17z"/>
<path d="M140 463 c0 -10 -14 -56 -30 -103 -29 -83 -28 -98 5 -101 6 0 20 -2
32 -5 19 -3 24 5 42 69 12 39 29 87 38 105 9 17 13 35 10 38 -3 4 -27 8 -52
10 -38 4 -45 1 -45 -13z"/>
<path d="M766 425 l-29 -23 48 -54 c26 -29 57 -72 68 -96 14 -28 26 -41 35
-37 24 9 71 49 71 61 1 16 -138 174 -152 174 -7 -1 -25 -11 -41 -25z"/>
</g>
</svg>
