<?xml version="1.0" standalone="no"?>
<!DOCTYPE svg PUBLIC "-//W3C//DTD SVG 20010904//EN"
 "http://www.w3.org/TR/2001/REC-SVG-20010904/DTD/svg10.dtd">
<svg version="1.0" xmlns="http://www.w3.org/2000/svg"
 width="101.000000pt" height="102.000000pt" viewBox="0 0 101.000000 102.000000"
 preserveAspectRatio="xMidYMid meet">
<metadata>
Created by potrace 1.16, written by Peter Selinger 2001-2019
</metadata>
<g transform="translate(0.000000,102.000000) scale(0.100000,-0.100000)"
fill="#000000" stroke="none">
<path d="M588 1013 c-19 -5 -24 -18 -9 -27 5 -3 14 -20 20 -36 l10 -31 -119 6
c-103 4 -120 3 -120 -10 0 -8 -4 -15 -10 -15 -5 0 -10 6 -10 14 0 16 -27 29
-42 20 -13 -8 -214 -8 -227 0 -22 14 -51 -14 -51 -47 0 -47 10 -55 65 -53 l50
1 0 -95 0 -95 -25 3 c-43 5 -71 4 -78 -2 -7 -8 -6 -75 1 -83 6 -5 36 -6 77 -1
21 3 25 -2 28 -27 7 -59 7 -173 1 -180 -4 -3 -20 -8 -35 -10 -16 -3 -38 -7
-49 -9 -11 -3 -26 -5 -33 -5 -8 -1 -11 -8 -8 -18 3 -10 10 -37 16 -61 11 -42
11 -42 38 -28 72 37 252 85 252 67 0 -14 -58 -97 -88 -125 l-32 -29 57 -23
c31 -13 60 -21 65 -18 24 15 91 164 103 229 14 78 18 103 17 123 0 12 4 22 9
22 5 0 9 -9 9 -20 0 -18 5 -20 48 -15 98 12 97 12 97 -17 1 -23 -4 -28 -36
-33 -21 -4 -46 -2 -57 4 -10 5 -28 8 -39 5 -18 -5 -20 -12 -16 -42 11 -88 13
-198 3 -226 -13 -37 -9 -41 42 -39 48 2 51 5 51 42 0 22 5 29 21 30 12 0 50 3
86 6 36 3 79 3 97 0 30 -5 32 -8 28 -39 -5 -38 9 -46 62 -39 l30 5 -4 110 c-1
60 1 117 7 127 5 10 6 28 3 40 -5 20 -11 22 -77 21 -105 -2 -111 -1 -112 25
-1 17 4 23 20 24 59 5 104 4 133 -2 l32 -6 -4 69 -4 69 35 -4 c30 -4 34 -2 36
18 4 57 -10 82 -42 72 -12 -4 -14 5 -12 51 2 31 0 60 -5 65 -5 5 -50 10 -99
12 -87 2 -89 2 -90 27 -1 25 0 25 90 25 50 0 96 -3 103 -8 30 -19 59 22 51 74
-3 23 -5 23 -125 24 -75 0 -123 4 -123 10 0 6 -5 26 -10 46 -10 34 -13 37 -48
36 -20 0 -45 -2 -54 -4z m-218 -185 c4 -303 -2 -434 -19 -423 -5 2 -34 -4 -64
-14 l-56 -19 -5 26 c-2 15 -3 50 0 77 2 28 4 60 5 72 1 22 9 23 76 12 22 -4
31 3 36 27 8 42 -2 61 -31 62 -90 4 -87 1 -90 70 -2 38 1 62 8 62 5 0 10 11
10 24 0 26 34 38 83 29 16 -3 27 -1 27 6 0 6 5 11 10 11 6 0 10 -10 10 -22z
m242 -18 c4 -25 3 -25 -63 -24 -64 1 -68 0 -74 -23 -13 -53 0 -63 74 -60 l67
3 0 -32 c-1 -30 -4 -33 -43 -39 -24 -3 -51 -1 -62 4 -11 6 -26 8 -34 5 -17 -6
-27 41 -27 131 l0 60 79 0 c77 1 79 0 83 -25z m182 -137 c-1 -34 -4 -38 -25
-35 -13 2 -33 3 -45 4 -16 0 -21 7 -21 29 0 26 4 28 41 32 23 2 43 4 46 5 3 1
4 -15 4 -35z m-213 -99 c31 -5 36 -10 36 -35 0 -31 -1 -31 -97 -18 -32 4 -49
-2 -53 -18 -2 -10 -4 1 -3 24 0 34 4 42 16 38 8 -2 22 0 30 5 18 11 23 12 71
4z m214 -34 c0 -31 -3 -35 -25 -32 -14 2 -34 3 -46 4 -16 0 -21 7 -21 29 0 22
4 28 16 24 9 -2 23 0 31 5 28 18 45 7 45 -30z m-440 -160 c-3 -5 -8 -10 -11
-10 -2 0 -4 5 -4 10 0 6 5 10 11 10 5 0 7 -4 4 -10z m415 -66 c22 -4 26 -10
27 -44 2 -37 0 -40 -30 -45 -18 -3 -63 -3 -102 0 -38 3 -80 6 -92 6 -19 1 -22
7 -20 40 1 30 5 38 17 34 8 -2 21 -1 29 4 15 10 132 13 171 5z"/>
</g>
</svg>
