<?xml version="1.0" standalone="no"?>
<!DOCTYPE svg PUBLIC "-//W3C//DTD SVG 20010904//EN"
 "http://www.w3.org/TR/2001/REC-SVG-20010904/DTD/svg10.dtd">
<svg version="1.0" xmlns="http://www.w3.org/2000/svg"
 width="101.000000pt" height="101.000000pt" viewBox="0 0 101.000000 101.000000"
 preserveAspectRatio="xMidYMid meet">
<metadata>
Created by potrace 1.16, written by Peter Selinger 2001-2019
</metadata>
<g transform="translate(0.000000,101.000000) scale(0.100000,-0.100000)"
fill="#000000" stroke="none">
<path d="M820 993 c-8 -2 -22 -7 -30 -11 -8 -3 -28 -7 -45 -9 -43 -3 -107 -11
-208 -24 -69 -9 -93 -9 -112 1 -22 12 -70 6 -61 -8 2 -4 -31 -5 -75 -3 -53 2
-79 0 -79 -8 0 -6 -16 -11 -35 -11 -19 0 -35 5 -35 10 0 6 -20 10 -45 10 -38
0 -47 -4 -56 -24 -27 -59 11 -93 91 -80 l40 7 0 -65 c0 -36 -3 -79 -6 -96 -6
-28 -9 -30 -26 -21 -32 17 -87 2 -94 -26 -13 -51 25 -87 68 -64 27 14 43 7 46
-22 9 -81 11 -158 7 -186 -5 -26 -12 -33 -38 -39 -37 -9 -46 -10 -69 -12 -21
-2 -22 -29 -5 -84 l12 -36 89 38 c49 21 118 47 153 57 l64 18 -5 36 c-5 33 -3
37 17 38 12 0 54 3 92 6 39 3 84 3 101 0 35 -6 36 -9 35 -104 0 -61 -11 -74
-56 -66 -16 3 -39 6 -51 7 -17 0 -20 6 -17 32 9 85 10 80 -25 87 -59 12 -73 3
-67 -45 2 -22 7 -53 11 -67 3 -15 1 -30 -5 -33 -6 -4 -11 -18 -11 -32 0 -24
14 -31 50 -25 8 2 49 5 90 7 41 2 107 6 145 9 93 7 138 -1 131 -23 -10 -30 10
-46 55 -45 23 1 44 4 46 7 3 3 0 27 -7 55 -7 28 -8 60 -4 73 5 13 9 32 9 43 1
11 5 29 8 41 6 17 2 22 -28 31 -65 20 -95 -7 -72 -66 15 -41 -5 -65 -47 -56
-17 3 -41 6 -53 7 -17 0 -22 8 -28 44 -3 24 -2 52 4 63 6 11 8 26 5 34 -4 10
2 15 18 16 13 0 59 3 103 6 44 3 92 1 106 -4 25 -9 27 -7 32 22 7 51 -1 67
-33 61 -15 -4 -37 -1 -49 5 -17 9 -29 8 -56 -5 -24 -11 -43 -14 -62 -8 -16 4
-37 8 -48 8 -15 1 -19 7 -17 26 2 14 3 35 4 48 0 16 4 22 15 18 8 -3 23 -1 34
4 12 7 42 8 84 2 69 -9 75 -6 75 41 0 38 -14 51 -38 36 -16 -10 -26 -10 -47
-1 -19 9 -32 9 -47 1 -12 -6 -35 -8 -57 -4 -20 4 -59 8 -87 9 -37 1 -51 5 -50
15 1 7 -15 19 -34 26 -29 10 -32 13 -17 21 16 9 16 14 -9 60 -39 74 -43 77
-92 58 -42 -17 -51 -27 -32 -39 6 -4 22 -29 36 -57 17 -34 30 -48 40 -44 8 3
14 3 14 0 0 -19 -34 -79 -73 -126 l-46 -56 31 -11 c46 -16 52 -14 83 28 16 21
39 39 50 40 11 0 33 2 50 3 25 3 30 -1 32 -22 1 -14 4 -36 5 -50 l3 -25 -105
3 c-58 1 -115 3 -128 3 -30 1 -34 -3 -36 -41 -1 -27 -8 -34 -45 -51 -24 -11
-47 -17 -50 -13 -3 3 -5 40 -4 82 3 120 3 120 27 121 91 5 96 7 96 53 0 33
-24 48 -77 48 l-38 0 3 78 c2 42 5 78 7 80 1 1 25 5 53 9 55 6 69 22 57 66 -3
12 3 6 14 -14 l19 -35 78 -2 c43 -1 93 3 113 9 19 7 51 13 70 14 20 2 54 5 76
8 22 3 70 8 108 11 37 3 72 8 77 11 14 9 -59 95 -79 94 -9 0 -23 -3 -31 -6z"/>
<path d="M799 873 c-3 -33 -13 -62 -41 -116 -18 -34 -34 -65 -36 -69 -3 -6 60
-28 80 -28 6 0 98 182 98 194 0 6 -61 26 -81 26 -11 0 -19 -3 -20 -7z"/>
<path d="M615 849 c-4 -5 -15 -9 -26 -9 -23 0 -23 -3 -3 -41 8 -17 17 -43 19
-57 1 -15 3 -30 4 -34 0 -4 16 -6 34 -4 17 3 35 5 39 5 16 2 28 41 18 58 -5
10 -16 34 -23 53 -14 35 -49 51 -62 29z"/>
</g>
</svg>
