<?xml version="1.0" standalone="no"?>
<!DOCTYPE svg PUBLIC "-//W3C//DTD SVG 20010904//EN"
 "http://www.w3.org/TR/2001/REC-SVG-20010904/DTD/svg10.dtd">
<svg version="1.0" xmlns="http://www.w3.org/2000/svg"
 width="101.000000pt" height="101.000000pt" viewBox="0 0 101.000000 101.000000"
 preserveAspectRatio="xMidYMid meet">
<metadata>
Created by potrace 1.16, written by Peter Selinger 2001-2019
</metadata>
<g transform="translate(0.000000,101.000000) scale(0.100000,-0.100000)"
fill="#000000" stroke="none">
<path d="M610 1008 c-6 -141 -9 -180 -13 -184 -3 -4 -28 -3 -55 1 -49 7 -50 7
-54 46 -2 21 0 49 5 61 10 28 -4 36 -57 34 l-41 -1 -3 -47 c-2 -32 1 -48 9
-48 12 0 8 -76 -7 -114 -7 -17 -4 -19 29 -13 l36 6 -20 -52 c-28 -72 -55 -113
-112 -174 l-48 -52 23 -12 c13 -7 33 -18 44 -26 20 -13 23 -11 42 18 19 31 20
31 22 8 5 -67 3 -271 -3 -320 -8 -64 -1 -70 62 -61 31 4 32 5 27 47 -4 38 -2
43 17 45 61 6 348 -1 369 -9 31 -12 46 -3 49 29 6 66 -11 78 -73 53 -32 -13
-47 -14 -70 -5 -16 6 -36 8 -43 6 -11 -4 -14 4 -12 35 1 30 5 40 14 37 7 -3
24 0 38 6 19 8 31 8 56 -5 18 -8 38 -13 45 -10 15 6 24 37 17 63 -5 17 -14 20
-62 20 -105 -1 -108 -1 -108 30 0 31 3 31 108 30 48 0 57 3 62 20 13 51 -19
75 -63 48 -15 -10 -27 -10 -51 -1 -17 7 -36 10 -44 7 -9 -4 -13 4 -12 28 l1
33 65 -2 c36 -1 73 -3 81 -4 47 -7 67 16 55 63 -6 22 -9 23 -110 23 -57 0 -97
4 -89 8 10 6 12 13 4 27 -5 10 -10 21 -10 24 0 2 40 8 89 11 l89 7 0 97 c-1
53 1 102 3 110 5 16 -46 34 -77 26 -20 -4 -22 -11 -21 -82 l0 -78 -61 -3 -61
-3 4 80 c2 44 6 85 10 91 4 6 4 14 1 17 -5 6 -96 16 -96 11z m18 -296 c8 -15
16 -31 18 -37 3 -6 -21 -10 -60 -10 l-65 0 25 26 c24 26 25 28 7 38 -15 9 -11
10 22 11 34 0 42 -4 53 -28z m19 -157 c1 -32 -1 -33 -43 -40 -24 -3 -52 -2
-63 4 -11 6 -26 8 -34 5 -12 -4 -15 2 -14 28 l1 33 76 2 76 1 1 -33z m-11 -95
c5 0 10 -15 11 -34 1 -33 -1 -34 -43 -41 -24 -3 -52 -2 -63 4 -11 6 -26 8 -34
5 -12 -4 -15 3 -14 30 1 28 5 35 16 31 9 -2 23 0 31 6 8 5 31 7 50 4 19 -2 40
-5 46 -5z m-26 -136 c33 -6 36 -9 37 -44 2 -37 1 -38 -42 -45 -25 -3 -53 -2
-64 4 -11 6 -26 8 -35 5 -12 -5 -15 2 -13 35 1 32 5 40 17 36 8 -2 22 0 30 5
18 11 23 12 70 4z"/>
<path d="M48 910 c-23 -14 -23 -63 -2 -85 12 -12 27 -14 62 -9 l47 6 1 -89 1
-88 -47 3 c-46 4 -48 3 -55 -27 -12 -56 -1 -69 54 -64 45 3 49 2 50 -19 1 -13
3 -50 6 -83 6 -73 -1 -121 -18 -123 -49 -4 -100 -12 -104 -15 -5 -6 17 -88 27
-100 5 -6 276 76 287 87 4 4 12 96 9 96 -2 0 -28 -9 -59 -19 l-56 -19 -5 26
c-2 15 -3 50 0 77 2 28 4 60 5 72 1 19 6 21 50 19 44 -3 50 0 55 20 3 12 4 33
2 45 -3 22 -8 24 -55 24 l-51 0 1 85 2 85 41 -3 c53 -5 79 18 70 61 -3 17 -8
32 -10 34 -10 10 -292 13 -308 3z"/>
</g>
</svg>
