<?xml version="1.0" standalone="no"?>
<!DOCTYPE svg PUBLIC "-//W3C//DTD SVG 20010904//EN"
 "http://www.w3.org/TR/2001/REC-SVG-20010904/DTD/svg10.dtd">
<svg version="1.0" xmlns="http://www.w3.org/2000/svg"
 width="101.000000pt" height="101.000000pt" viewBox="0 0 101.000000 101.000000"
 preserveAspectRatio="xMidYMid meet">
<metadata>
Created by potrace 1.16, written by Peter Selinger 2001-2019
</metadata>
<g transform="translate(0.000000,101.000000) scale(0.100000,-0.100000)"
fill="#000000" stroke="none">
<path d="M685 973 c-7 -43 -65 -165 -94 -203 l-20 -25 3 67 c2 37 7 71 11 77
3 6 4 20 0 30 -5 16 -20 20 -103 25 -123 9 -149 3 -150 -32 -1 -15 4 -37 10
-49 7 -15 7 -51 0 -120 -5 -54 -9 -100 -7 -101 2 -2 22 -6 44 -9 l41 -6 0 -53
c0 -30 5 -54 10 -54 6 0 10 -16 10 -35 0 -19 -4 -35 -10 -35 -5 0 -10 -18 -10
-40 0 -23 5 -40 11 -40 16 0 4 -101 -13 -112 -25 -15 -37 -8 -43 25 -7 41 3
196 16 246 3 10 -9 18 -34 24 -54 13 -52 17 -42 -108 3 -33 3 -92 -1 -132 l-6
-72 -39 -6 c-32 -6 -39 -10 -34 -23 4 -10 9 -29 12 -45 3 -15 9 -29 13 -32 4
-2 35 5 70 15 35 11 66 17 68 15 3 -2 13 0 22 5 16 9 63 18 115 24 29 3 65 16
66 24 3 22 8 82 6 82 -1 0 -24 -7 -51 -15 -27 -8 -51 -13 -54 -10 -2 2 -4 26
-4 52 1 90 0 89 44 90 48 2 51 5 51 42 0 34 24 32 26 -2 0 -12 3 -54 6 -93 3
-40 1 -115 -3 -167 -8 -106 -7 -109 55 -100 31 5 32 6 28 53 -3 43 -1 48 18
49 12 0 36 2 52 3 l30 3 -2 -53 c-3 -56 0 -58 57 -53 35 3 40 18 24 64 -14 39
-14 150 0 232 17 102 26 96 -134 93 -51 0 -110 6 -102 12 4 4 30 25 57 47 l50
41 32 -27 c51 -42 125 -78 130 -63 3 7 16 26 30 43 29 34 27 38 -13 45 -33 6
-126 55 -121 63 30 56 98 202 102 222 l6 25 -90 -1 -90 -1 20 28 c11 15 24 30
29 33 20 12 9 23 -37 39 -26 9 -50 16 -54 16 -4 0 -10 -17 -14 -37z m-195
-137 c0 -11 3 -44 6 -71 l6 -50 -44 3 -45 4 1 71 1 72 38 -4 c30 -2 37 -7 37
-25z m306 -51 c-9 -20 -21 -44 -29 -56 -14 -19 -15 -19 -31 6 -9 14 -21 36
-26 49 -8 23 -6 25 23 29 81 10 79 11 63 -28z m-115 -97 l22 -42 -34 -29 c-19
-16 -55 -40 -81 -53 -51 -26 -58 -38 -32 -48 22 -9 13 -16 -25 -21 l-30 -4 2
69 c2 64 4 70 24 70 12 0 28 3 37 6 18 7 22 39 6 49 -15 9 -12 35 4 35 7 0 19
-7 26 -15 17 -21 37 -19 45 5 9 28 12 26 36 -22z m125 -283 c0 -11 4 -32 8
-46 4 -14 3 -41 -2 -60 -7 -30 -12 -34 -38 -31 -16 1 -39 3 -51 3 -17 1 -23 9
-28 39 -4 22 -2 47 4 59 6 11 8 27 4 36 -5 14 -2 16 13 11 10 -3 26 -1 34 4
24 16 55 7 56 -15z"/>
<path d="M50 901 c-24 -46 4 -86 54 -77 l31 6 1 -93 2 -92 -44 1 c-35 1 -45
-2 -50 -18 -16 -51 22 -87 71 -68 19 7 23 5 24 -13 0 -12 3 -57 6 -99 7 -102
-2 -122 -59 -138 -26 -7 -48 -16 -51 -20 -4 -7 17 -76 27 -85 3 -4 28 5 55 18
26 13 76 35 111 47 34 12 62 28 63 34 5 48 6 76 4 76 -1 0 -19 -7 -40 -16 -20
-8 -40 -12 -44 -9 -3 4 -5 43 -4 88 3 133 -1 124 49 121 48 -3 60 12 48 60 -5
23 -10 25 -49 22 l-44 -3 2 91 c2 89 3 92 24 88 33 -6 70 5 77 24 3 8 3 27 0
41 -7 25 -7 25 -85 18 -54 -4 -79 -3 -79 4 0 6 -20 11 -45 11 -34 0 -47 -5
-55 -19z"/>
</g>
</svg>
