<?xml version="1.0" standalone="no"?>
<!DOCTYPE svg PUBLIC "-//W3C//DTD SVG 20010904//EN"
 "http://www.w3.org/TR/2001/REC-SVG-20010904/DTD/svg10.dtd">
<svg version="1.0" xmlns="http://www.w3.org/2000/svg"
 width="101.000000pt" height="101.000000pt" viewBox="0 0 101.000000 101.000000"
 preserveAspectRatio="xMidYMid meet">
<metadata>
Created by potrace 1.16, written by Peter Selinger 2001-2019
</metadata>
<g transform="translate(0.000000,101.000000) scale(0.100000,-0.100000)"
fill="#000000" stroke="none">
<path d="M424 912 l4 -98 -28 4 c-23 3 -31 -1 -44 -25 -8 -17 -31 -44 -52 -62
-20 -18 -35 -33 -33 -34 2 -1 19 -11 38 -21 l34 -19 30 33 c27 31 35 34 88 34
33 1 59 -1 59 -4 0 -3 -8 -17 -18 -33 l-18 -27 -24 25 c-28 30 -37 31 -70 5
l-25 -20 34 -31 c26 -25 31 -33 20 -40 -22 -14 -118 -49 -134 -49 -23 0 -18
-10 20 -47 l36 -35 54 27 c30 14 77 47 105 72 l51 46 25 -24 c13 -12 20 -25
16 -28 -16 -11 -22 -43 -11 -63 6 -11 8 -35 5 -52 -5 -28 -10 -33 -36 -33 -26
0 -27 2 -12 13 16 11 15 16 -13 55 -17 23 -34 44 -40 46 -5 1 -25 -6 -43 -17
l-33 -20 21 -23 c12 -12 26 -29 30 -38 9 -16 2 -17 -60 -8 -47 7 -63 -13 -53
-65 5 -24 9 -26 47 -22 22 3 51 8 62 11 12 4 24 3 27 -3 11 -17 -69 -82 -146
-120 l-77 -38 40 -39 40 -39 70 48 c38 26 92 72 119 102 42 46 49 50 50 31 0
-12 3 -50 5 -85 3 -35 1 -74 -4 -87 -10 -27 5 -34 62 -27 33 4 37 7 33 26 -5
20 -7 102 -4 158 1 27 2 27 48 -24 25 -28 72 -69 104 -89 l59 -38 34 45 c19
24 34 46 34 48 0 2 -26 13 -58 24 -64 24 -152 78 -152 94 0 6 7 8 15 4 8 -3
26 -1 39 5 17 8 38 8 72 1 27 -6 50 -9 52 -7 2 2 4 20 5 40 1 39 -17 59 -43
49 -8 -4 -37 -8 -64 -9 l-49 -3 43 43 42 43 -38 26 -39 27 -15 -23 c-8 -12
-28 -37 -44 -56 -27 -30 -27 -34 -12 -45 16 -12 15 -13 -11 -12 -31 0 -31 5
-19 103 4 35 3 42 -11 42 -9 0 14 18 51 41 l68 41 44 -43 44 -43 32 30 c18 16
35 31 38 32 3 2 -17 24 -44 48 l-49 45 31 67 c43 94 57 152 40 163 -18 12
-244 9 -295 -4 -33 -8 -48 -8 -67 2 -13 8 -31 11 -39 8 -13 -5 -14 0 -6 26 5
18 9 33 9 34 0 2 -23 3 -50 3 l-51 0 5 -98z m313 -58 l81 3 -9 -24 c-25 -66
-26 -67 -74 -32 l-43 31 -31 -23 c-17 -12 -31 -26 -31 -29 0 -4 20 -21 45 -39
25 -18 45 -34 45 -36 0 -8 -86 -55 -127 -69 l-41 -14 25 44 c14 25 31 65 39
89 13 44 13 45 -11 51 -14 3 -42 5 -62 3 -35 -4 -38 -2 -38 21 0 24 2 25 53
22 29 -1 60 2 70 7 10 6 19 6 22 0 3 -5 43 -7 87 -5z"/>
<path d="M58 934 c-24 -7 -33 -49 -19 -81 12 -26 16 -27 94 -7 l27 6 0 -63 c0
-35 -3 -80 -6 -99 -6 -35 -6 -35 -51 -31 -48 3 -63 -7 -63 -44 0 -42 19 -52
81 -41 22 3 27 0 28 -18 0 -11 3 -48 6 -81 3 -33 3 -74 0 -91 -5 -30 -10 -33
-70 -49 -36 -10 -65 -19 -65 -20 0 -2 6 -18 14 -36 7 -19 16 -42 19 -51 5 -15
12 -14 64 12 31 16 94 41 138 55 l82 27 -1 44 c0 24 -3 44 -7 44 -3 0 -25 -6
-47 -14 -41 -15 -41 -15 -46 12 -2 15 -3 50 0 77 2 28 4 60 5 72 1 19 6 21 45
17 40 -5 44 -3 50 20 11 46 -19 88 -49 69 -37 -23 -42 -14 -42 77 l0 90 42 0
c49 0 73 20 73 61 0 41 -10 44 -160 40 -25 0 -63 1 -85 3 -22 3 -48 2 -57 0z"/>
</g>
</svg>
