<?xml version="1.0" standalone="no"?>
<!DOCTYPE svg PUBLIC "-//W3C//DTD SVG 20010904//EN"
 "http://www.w3.org/TR/2001/REC-SVG-20010904/DTD/svg10.dtd">
<svg version="1.0" xmlns="http://www.w3.org/2000/svg"
 width="101.000000pt" height="101.000000pt" viewBox="0 0 101.000000 101.000000"
 preserveAspectRatio="xMidYMid meet">
<metadata>
Created by potrace 1.16, written by Peter Selinger 2001-2019
</metadata>
<g transform="translate(0.000000,101.000000) scale(0.100000,-0.100000)"
fill="#000000" stroke="none">
<path d="M712 985 c-77 -25 -222 -45 -310 -44 -30 0 -60 -5 -68 -11 -9 -8 -36
-10 -81 -6 -39 4 -74 2 -83 -3 -17 -12 -16 -121 2 -132 13 -8 -5 -275 -26
-399 -14 -79 -61 -186 -99 -227 -24 -27 -21 -32 21 -37 16 -3 39 -9 51 -15 19
-10 23 -6 50 48 29 56 66 170 77 236 19 108 29 305 16 305 -8 0 -12 25 -12 73
l0 74 54 -5 c29 -2 62 0 72 6 18 10 19 5 16 -116 -2 -70 -5 -194 -7 -277 -4
-177 -5 -183 -34 -206 l-22 -18 21 -40 c11 -23 22 -41 24 -41 2 0 52 16 110
35 59 19 109 35 111 35 2 0 9 -18 15 -39 l10 -40 46 16 c42 14 45 18 39 42 -8
33 -78 180 -97 205 -14 18 -18 18 -49 6 -19 -7 -36 -15 -38 -16 -2 -2 7 -24
19 -49 25 -52 21 -61 -32 -69 l-37 -6 3 39 c2 21 6 42 9 48 3 5 7 120 8 256 1
136 6 248 11 248 4 1 20 3 36 4 15 1 36 5 47 8 16 4 20 0 21 -22 5 -108 22
-259 29 -271 3 -5 17 -48 31 -96 14 -48 43 -122 64 -164 42 -79 126 -190 144
-190 6 0 31 19 55 42 37 35 41 42 27 50 -83 47 -186 203 -210 320 -3 13 -8 37
-11 53 -11 50 -15 88 -15 137 1 25 -3 49 -7 51 -5 3 -7 25 -5 50 4 41 7 46 35
53 18 4 47 7 65 6 22 -1 32 3 32 13 0 15 -67 96 -79 94 -3 -1 -25 -7 -49 -14z"/>
</g>
</svg>
