<?xml version="1.0" standalone="no"?>
<!DOCTYPE svg PUBLIC "-//W3C//DTD SVG 20010904//EN"
 "http://www.w3.org/TR/2001/REC-SVG-20010904/DTD/svg10.dtd">
<svg version="1.0" xmlns="http://www.w3.org/2000/svg"
 width="101.000000pt" height="101.000000pt" viewBox="0 0 101.000000 101.000000"
 preserveAspectRatio="xMidYMid meet">
<metadata>
Created by potrace 1.16, written by Peter Selinger 2001-2019
</metadata>
<g transform="translate(0.000000,101.000000) scale(0.100000,-0.100000)"
fill="#000000" stroke="none">
<path d="M832 969 c-25 -10 -67 -18 -117 -24 -33 -4 -174 -8 -190 -5 -22 4
-154 0 -207 -6 -35 -4 -63 -3 -70 4 -7 5 -32 10 -56 10 -23 1 -51 4 -62 7 -54
17 -100 -18 -85 -65 5 -17 14 -19 78 -17 l72 2 0 -30 c0 -28 -2 -30 -35 -27
-19 2 -47 -1 -62 -7 -24 -9 -28 -16 -28 -51 0 -23 5 -40 11 -40 8 0 9 -19 5
-63 l-7 -64 33 4 c85 10 172 12 269 5 l106 -7 7 83 c9 116 4 130 -50 138 -24
3 -50 4 -57 1 -10 -4 -12 3 -9 24 4 26 8 29 46 31 22 1 52 1 66 0 13 -1 27 3
31 9 3 6 6 -2 6 -18 0 -15 2 -113 3 -218 1 -104 0 -208 -3 -230 -8 -71 -19
-120 -29 -138 -9 -17 -13 -15 -45 22 -39 46 -48 48 -82 22 l-24 -19 44 -50 44
-51 29 27 29 27 -13 -25 c-7 -14 -24 -40 -38 -57 -17 -23 -20 -33 -11 -34 19
-1 43 -6 68 -14 18 -5 24 0 41 39 47 110 53 154 64 426 3 63 6 124 7 135 0 11
0 25 -1 30 -1 6 -2 30 -1 55 1 40 4 45 24 45 l22 0 0 -225 c0 -124 -4 -230 -8
-237 -4 -6 -2 -23 5 -37 12 -28 10 -35 -33 -118 -19 -36 -19 -39 -2 -65 9 -16
18 -29 18 -30 1 -2 30 13 65 31 68 37 80 37 80 4 0 -17 4 -19 28 -13 15 3 30
10 35 14 6 6 -34 145 -46 157 -2 2 -18 -1 -36 -7 -24 -9 -31 -16 -26 -28 13
-31 10 -44 -13 -47 -13 -2 -21 0 -18 5 13 21 19 123 20 353 l1 247 23 11 c13
5 25 10 27 10 3 0 4 -80 2 -177 -2 -197 2 -234 33 -343 20 -71 84 -215 100
-225 4 -2 20 15 37 39 l30 43 -37 57 c-39 58 -77 161 -85 228 -2 20 -10 46
-17 57 -10 16 -10 27 -1 52 7 18 9 37 6 43 -4 6 -7 62 -8 123 0 102 2 112 17
107 26 -8 88 7 88 21 0 21 -50 75 -68 74 -10 0 -28 -4 -40 -10z m-516 -124 c0
-28 -2 -31 -28 -27 -15 2 -28 10 -28 17 0 7 -2 19 -5 27 -4 9 4 13 27 13 30 0
33 -3 34 -30z m-118 -120 c1 -11 2 -31 4 -44 3 -21 -1 -25 -27 -25 -26 -1 -30
2 -27 24 2 14 3 34 4 45 0 14 7 20 23 20 16 0 23 -6 23 -20z m120 1 c1 -12 2
-32 4 -46 3 -22 -1 -25 -32 -25 -31 0 -35 3 -32 25 2 14 3 34 4 46 0 16 7 21
28 21 21 0 28 -5 28 -21z m110 0 c1 -12 2 -32 4 -46 3 -22 -1 -25 -32 -25 -31
0 -35 3 -32 25 2 14 3 34 4 46 0 16 7 21 28 21 21 0 28 -5 28 -21z"/>
<path d="M87 539 c-12 -47 24 -80 64 -58 11 5 79 7 167 4 160 -6 168 -4 155
44 -5 19 -12 20 -157 19 -83 -1 -167 1 -188 4 -30 5 -37 3 -41 -13z"/>
<path d="M79 443 c-20 -5 -29 -34 -22 -63 4 -17 12 -19 48 -16 23 1 47 6 54
10 6 4 32 4 57 0 33 -5 44 -10 40 -20 -3 -8 0 -25 6 -39 14 -30 -1 -89 -22
-91 -51 -3 -51 -3 -40 -23 5 -11 8 -26 5 -33 -17 -47 78 -48 115 -1 16 21 20
40 19 92 -1 101 1 109 25 110 69 5 94 4 117 -3 22 -6 27 -4 32 13 3 12 3 30 0
41 -4 15 -11 18 -33 14 -15 -4 -37 -1 -48 5 -15 8 -29 8 -48 1 -38 -15 -234
-13 -274 2 -8 3 -22 4 -31 1z"/>
<path d="M95 277 c-22 -33 -41 -64 -43 -67 -1 -3 13 -14 32 -23 l35 -16 46 65
c25 36 45 69 45 73 0 9 -46 31 -63 30 -7 0 -30 -28 -52 -62z"/>
</g>
</svg>
