<?xml version="1.0" standalone="no"?>
<!DOCTYPE svg PUBLIC "-//W3C//DTD SVG 20010904//EN"
 "http://www.w3.org/TR/2001/REC-SVG-20010904/DTD/svg10.dtd">
<svg version="1.0" xmlns="http://www.w3.org/2000/svg"
 width="101.000000pt" height="101.000000pt" viewBox="0 0 101.000000 101.000000"
 preserveAspectRatio="xMidYMid meet">
<metadata>
Created by potrace 1.16, written by Peter Selinger 2001-2019
</metadata>
<g transform="translate(0.000000,101.000000) scale(0.100000,-0.100000)"
fill="#000000" stroke="none">
<path d="M65 906 c-9 -46 9 -80 38 -72 12 4 54 8 92 10 l70 4 -3 -42 c-2 -37
-5 -61 -16 -151 -2 -16 -7 -38 -11 -48 -4 -9 -5 -26 -2 -37 3 -11 1 -22 -4
-26 -5 -3 -9 -22 -9 -42 0 -47 -4 -74 -13 -89 -4 -6 -7 -22 -6 -34 2 -49 -12
-104 -31 -124 -18 -20 -19 -22 -2 -68 13 -35 21 -46 32 -41 57 24 235 84 283
94 51 12 57 16 59 39 2 33 -1 64 -7 69 -2 2 -55 -12 -117 -33 -62 -20 -118
-38 -125 -40 -7 -2 -9 6 -7 23 11 62 14 79 23 122 5 25 7 65 5 89 -4 30 -1 47
7 52 8 4 14 20 15 36 1 15 3 33 3 38 1 6 54 11 134 12 l132 2 -3 -52 c-2 -28
-7 -90 -10 -137 -8 -122 -4 -272 8 -284 19 -19 92 -36 112 -25 10 5 40 7 68 3
71 -9 104 7 128 64 32 76 35 92 19 92 -8 0 -30 11 -50 25 -40 27 -46 23 -53
-32 -2 -21 -13 -47 -24 -58 -17 -17 -24 -18 -51 -8 -17 7 -36 10 -43 7 -8 -3
-16 1 -18 8 -5 14 -5 18 6 158 9 108 17 235 19 279 2 31 -1 35 -33 44 -22 5
-41 5 -50 -1 -22 -14 -150 -14 -166 -1 -8 6 -36 9 -63 7 -45 -3 -48 -1 -44 17
3 11 7 32 8 48 1 15 3 31 4 36 0 5 10 7 21 4 11 -3 26 -1 33 5 16 13 174 14
182 2 3 -6 72 -9 156 -7 164 2 168 4 154 66 l-6 28 -134 2 c-88 1 -135 -2
-135 -9 0 -5 -11 -10 -25 -10 -14 0 -25 5 -25 10 0 6 -30 10 -70 10 -40 0 -70
-4 -70 -10 0 -6 -33 -10 -80 -10 -47 0 -80 4 -80 10 0 6 -18 10 -40 10 -22 0
-40 -4 -40 -10 0 -5 -25 -10 -55 -10 -30 0 -55 5 -55 10 0 6 -7 10 -15 10 -8
0 -17 -14 -20 -34z"/>
<path d="M427 578 c-23 -8 -27 -14 -22 -32 4 -11 14 -47 23 -79 17 -58 17 -58
50 -53 19 2 38 8 43 13 12 12 -39 163 -54 162 -7 0 -25 -5 -40 -11z"/>
</g>
</svg>
