<?xml version="1.0" standalone="no"?>
<!DOCTYPE svg PUBLIC "-//W3C//DTD SVG 20010904//EN"
 "http://www.w3.org/TR/2001/REC-SVG-20010904/DTD/svg10.dtd">
<svg version="1.0" xmlns="http://www.w3.org/2000/svg"
 width="101.000000pt" height="101.000000pt" viewBox="0 0 101.000000 101.000000"
 preserveAspectRatio="xMidYMid meet">
<metadata>
Created by potrace 1.16, written by Peter Selinger 2001-2019
</metadata>
<g transform="translate(0.000000,101.000000) scale(0.100000,-0.100000)"
fill="#000000" stroke="none">
<path d="M163 996 c-46 -16 -47 -20 -20 -63 14 -21 28 -47 31 -58 5 -19 2 -20
-54 -17 -59 4 -68 -1 -60 -33 1 -5 2 -35 1 -67 -1 -31 3 -59 9 -63 12 -7 14
-52 2 -59 -5 -3 -9 -32 -9 -66 l-1 -60 47 6 c66 9 243 10 332 2 l76 -8 6 108
c4 59 6 137 4 174 -2 64 -1 67 24 70 23 4 25 1 23 -33 -1 -20 -5 -42 -9 -48
-3 -7 -6 -71 -5 -144 0 -73 1 -141 1 -152 -1 -11 1 -51 4 -90 3 -38 0 -85 -6
-103 -6 -18 -12 -39 -13 -45 -1 -7 -6 -22 -10 -35 -6 -18 -1 -33 20 -63 l27
-39 61 58 c34 32 75 68 92 80 l32 22 1 -23 c1 -12 3 -41 4 -64 3 -51 14 -63
69 -80 62 -18 112 5 132 60 29 82 30 80 -19 103 l-44 20 -6 -37 c-14 -81 -56
-67 -56 18 0 87 9 267 15 303 3 19 8 72 10 118 5 81 1 91 -29 81 -5 -2 -49 -3
-96 -4 l-86 0 1 50 1 50 140 0 c116 -1 141 2 147 15 21 49 -5 80 -68 80 -24 0
-44 -4 -44 -10 0 -6 -33 -10 -80 -10 -47 0 -80 4 -80 10 0 6 -18 10 -40 10
-22 0 -40 -5 -40 -11 0 -7 -21 -10 -60 -7 -52 3 -60 1 -64 -17 -9 -32 -7 -43
10 -60 15 -14 11 -15 -40 -13 -31 2 -56 6 -56 9 0 4 16 30 35 59 19 29 35 53
35 55 0 8 -93 36 -99 29 -4 -5 -15 -34 -24 -64 -23 -78 -37 -95 -72 -86 -24 6
-26 8 -11 19 15 11 14 17 -9 64 -34 67 -42 73 -82 59z m106 -289 c-1 -104 -8
-123 -45 -119 -16 1 -39 3 -52 3 -16 1 -22 5 -18 16 3 8 6 27 7 41 l1 27 11
-27 c12 -31 42 -42 62 -22 12 12 11 21 -4 67 -16 47 -21 52 -48 52 -22 0 -29
4 -26 15 3 11 20 16 59 17 l54 2 -1 -72z m157 57 c-3 -9 -6 -17 -6 -20 0 -2
-13 -1 -28 2 -23 5 -30 1 -39 -18 -11 -22 -12 -22 -12 9 -1 33 8 38 68 42 17
1 22 -3 17 -15z m-6 -178 c-6 -6 -19 -5 -35 2 -13 6 -31 9 -38 6 -7 -2 -13 4
-14 15 -1 18 2 19 24 10 31 -11 39 -3 50 51 7 34 7 34 14 -20 4 -30 4 -59 -1
-64z m359 79 c7 -74 -3 -194 -15 -182 -3 3 -7 18 -9 33 -13 91 -22 112 -48
109 -12 -1 -28 -3 -35 -4 -9 -1 -11 -14 -8 -48 22 -202 19 -192 67 -188 31 3
39 1 35 -10 -2 -7 0 -27 7 -44 8 -22 8 -34 1 -41 -8 -8 -15 2 -24 35 l-13 46
-47 -46 -47 -47 -7 46 c-4 25 -4 52 1 58 4 7 9 69 10 138 3 183 -5 165 68 165
56 0 63 -2 64 -20z"/>
<path d="M96 448 c9 -67 10 -227 1 -289 -9 -63 -2 -71 62 -61 31 4 32 6 27 37
-6 29 -4 33 16 34 13 1 48 3 78 6 30 2 69 2 87 -1 31 -5 32 -6 27 -43 -6 -43
7 -52 63 -44 41 6 44 18 27 84 -14 52 -14 156 0 272 l6 49 -52 -9 c-59 -9
-215 -8 -295 1 l-52 7 5 -43z m275 -34 c21 -4 27 -11 25 -30 -1 -29 -31 -36
-116 -29 -30 3 -64 5 -75 6 -14 1 -20 9 -21 26 -2 18 2 22 15 19 9 -3 23 -1
31 4 15 9 97 12 141 4z m0 -120 c21 -4 27 -11 25 -30 -1 -29 -31 -36 -116 -29
-30 3 -64 5 -75 6 -14 1 -20 9 -21 26 -2 18 2 22 15 19 9 -3 23 -1 31 4 15 9
97 12 141 4z"/>
</g>
</svg>
