<?xml version="1.0" standalone="no"?>
<!DOCTYPE svg PUBLIC "-//W3C//DTD SVG 20010904//EN"
 "http://www.w3.org/TR/2001/REC-SVG-20010904/DTD/svg10.dtd">
<svg version="1.0" xmlns="http://www.w3.org/2000/svg"
 width="101.000000pt" height="101.000000pt" viewBox="0 0 101.000000 101.000000"
 preserveAspectRatio="xMidYMid meet">
<metadata>
Created by potrace 1.16, written by Peter Selinger 2001-2019
</metadata>
<g transform="translate(0.000000,101.000000) scale(0.100000,-0.100000)"
fill="#000000" stroke="none">
<path d="M460 1004 c-12 -4 -15 -23 -14 -98 l1 -94 -41 -6 c-68 -8 -174 -7
-181 3 -3 5 -23 9 -44 9 l-39 0 4 -102 c4 -139 4 -147 -1 -266 -4 -66 -1 -119
6 -142 8 -25 9 -59 2 -112 -10 -81 -7 -86 42 -86 32 0 58 28 51 54 -5 21 -4
21 249 22 244 1 255 0 255 -18 0 -35 19 -58 48 -58 50 0 54 10 47 97 -5 54 -4
83 3 87 14 8 15 213 2 221 -13 8 -13 52 0 60 10 6 13 206 4 230 -6 16 -154 21
-154 5 0 -5 -16 -10 -35 -10 -19 0 -35 5 -35 10 0 6 -18 10 -39 10 l-39 0 -4
58 c-2 31 0 67 6 80 6 15 6 26 -1 33 -11 11 -71 20 -93 13z m-20 -299 c0 -11
3 -51 7 -88 l6 -68 -106 3 -106 3 2 85 2 85 97 0 c91 0 98 -1 98 -20z m315
-62 l0 -88 -106 0 -106 0 1 85 1 85 105 3 105 3 0 -88z m-321 -175 c3 -7 7
-55 10 -106 l5 -93 -102 3 c-118 3 -114 -1 -116 124 l-1 71 64 -4 c39 -3 67 0
71 6 9 15 65 14 69 -1z m319 -93 l2 -100 -107 0 -108 0 0 25 c0 14 3 55 7 93
5 62 8 67 29 67 13 0 24 5 24 10 0 7 28 10 76 8 l76 -3 1 -100z"/>
</g>
</svg>
