<?xml version="1.0" standalone="no"?>
<!DOCTYPE svg PUBLIC "-//W3C//DTD SVG 20010904//EN"
 "http://www.w3.org/TR/2001/REC-SVG-20010904/DTD/svg10.dtd">
<svg version="1.0" xmlns="http://www.w3.org/2000/svg"
 width="101.000000pt" height="101.000000pt" viewBox="0 0 101.000000 101.000000"
 preserveAspectRatio="xMidYMid meet">
<metadata>
Created by potrace 1.16, written by Peter Selinger 2001-2019
</metadata>
<g transform="translate(0.000000,101.000000) scale(0.100000,-0.100000)"
fill="#000000" stroke="none">
<path d="M158 984 c-24 -7 -29 -51 -22 -174 7 -130 6 -272 -2 -366 -6 -80 6
-104 54 -104 35 0 46 9 50 40 2 14 5 26 5 26 1 1 49 4 107 6 l105 5 -2 -111
c-2 -61 -5 -129 -8 -151 -8 -55 5 -70 56 -68 51 2 61 15 54 68 -3 22 -7 90 -8
150 l-2 110 116 0 117 0 -2 -35 c-1 -32 2 -35 28 -38 65 -8 71 0 74 87 1 46
-2 82 -8 86 -13 8 -13 52 0 60 13 8 13 142 1 150 -13 7 -13 172 -1 180 5 3 9
20 8 38 l-1 32 -161 0 c-89 0 -166 -3 -171 -7 -16 -10 -173 -9 -180 2 -3 5
-29 9 -58 8 -29 0 -70 2 -92 5 -22 3 -48 3 -57 1z m247 -90 l50 -6 0 -80 0
-79 -42 6 c-28 4 -43 2 -43 -4 0 -6 -11 -11 -25 -11 -14 0 -25 5 -25 10 0 6
-19 10 -43 10 l-43 0 1 70 0 70 43 0 c23 0 42 5 42 10 0 12 15 12 85 4z m371
-84 l1 -75 -116 0 -116 0 0 75 0 75 115 0 115 0 1 -75z m-13 -160 l28 0 -3
-72 -3 -73 -125 2 -125 2 -3 40 c-2 24 1 41 7 41 6 0 11 11 11 25 0 23 3 25
49 25 28 0 53 5 57 11 4 7 21 9 43 5 20 -3 49 -6 64 -6z m-308 -77 l1 -75 -60
6 c-32 3 -83 6 -112 6 l-54 0 3 68 2 67 110 1 110 2 0 -75z"/>
</g>
</svg>
