<?xml version="1.0" standalone="no"?>
<!DOCTYPE svg PUBLIC "-//W3C//DTD SVG 20010904//EN"
 "http://www.w3.org/TR/2001/REC-SVG-20010904/DTD/svg10.dtd">
<svg version="1.0" xmlns="http://www.w3.org/2000/svg"
 width="101.000000pt" height="101.000000pt" viewBox="0 0 101.000000 101.000000"
 preserveAspectRatio="xMidYMid meet">
<metadata>
Created by potrace 1.16, written by Peter Selinger 2001-2019
</metadata>
<g transform="translate(0.000000,101.000000) scale(0.100000,-0.100000)"
fill="#000000" stroke="none">
<path d="M178 993 c-13 -3 -16 -17 -16 -71 0 -37 5 -72 10 -79 10 -13 5 -192
-7 -250 -7 -30 -6 -32 28 -38 20 -4 57 -5 82 -3 25 2 45 2 45 2 0 -1 -22 -16
-49 -33 -75 -49 -176 -86 -240 -90 -8 -1 6 -21 33 -46 l47 -46 105 56 c58 30
106 55 108 55 4 0 -2 -80 -8 -113 -12 -68 -78 -128 -156 -142 -18 -3 -37 -8
-41 -10 -6 -5 68 -85 78 -85 16 0 112 56 136 78 47 45 82 126 92 219 2 21 7
48 10 60 5 16 2 23 -17 29 -12 4 -30 7 -38 5 -8 -1 1 11 20 28 25 21 42 28 58
24 13 -3 42 0 64 8 l41 13 38 -44 c34 -39 37 -46 21 -50 -16 -4 -19 -17 -20
-88 -1 -45 3 -90 9 -100 7 -12 8 -41 2 -94 -10 -86 -9 -88 59 -80 36 4 36 4
30 41 -6 30 -7 179 -1 258 l1 22 41 -21 c46 -23 143 -58 163 -58 7 0 16 9 19
20 4 11 18 34 32 50 13 17 21 30 16 31 -4 0 -15 2 -23 4 -8 3 -49 11 -91 19
-73 13 -151 45 -164 66 -6 9 26 13 117 14 26 1 27 1 26 76 0 41 3 122 6 180 4
58 4 119 1 136 l-5 32 -132 7 c-95 5 -133 4 -136 -4 -5 -14 -162 -15 -162 -1
0 6 -18 10 -40 10 -22 0 -40 -4 -40 -10 0 -5 -25 -10 -55 -10 -30 0 -55 4 -55
9 0 12 -21 18 -42 14z m238 -79 c27 -5 29 -9 29 -54 l0 -49 -90 2 -90 2 0 46
c0 41 2 45 21 41 12 -2 25 1 28 7 8 12 56 14 102 5z m294 0 c34 -6 35 -7 36
-55 l0 -49 -33 6 c-21 4 -33 2 -33 -5 0 -6 -11 -11 -25 -11 -14 0 -25 5 -25
10 0 6 -18 10 -39 10 -38 0 -39 1 -43 40 l-4 40 43 0 c24 0 43 5 43 10 0 11
28 13 80 4z m-264 -224 c0 -46 -1 -49 -29 -54 -16 -3 -57 -6 -91 -6 l-61 0 0
52 0 53 90 1 90 2 1 -48z m298 1 c3 -24 5 -45 4 -47 -2 -1 -49 0 -105 3 l-102
6 2 41 2 41 96 0 97 0 6 -44z"/>
</g>
</svg>
