<?xml version="1.0" standalone="no"?>
<!DOCTYPE svg PUBLIC "-//W3C//DTD SVG 20010904//EN"
 "http://www.w3.org/TR/2001/REC-SVG-20010904/DTD/svg10.dtd">
<svg version="1.0" xmlns="http://www.w3.org/2000/svg"
 width="101.000000pt" height="101.000000pt" viewBox="0 0 101.000000 101.000000"
 preserveAspectRatio="xMidYMid meet">
<metadata>
Created by potrace 1.16, written by Peter Selinger 2001-2019
</metadata>
<g transform="translate(0.000000,101.000000) scale(0.100000,-0.100000)"
fill="#000000" stroke="none">
<path d="M345 984 c-27 -8 -67 -15 -87 -15 -21 0 -40 -4 -43 -9 -3 -4 -14 -6
-25 -3 -11 3 -30 3 -43 -1 -22 -5 -24 -12 -26 -67 -1 -35 3 -67 10 -75 17 -20
3 -145 -17 -161 -18 -13 -13 -36 14 -71 l18 -23 54 36 c29 20 82 52 118 72
l65 36 17 -23 18 -24 42 27 41 28 -68 78 -68 78 -28 -16 c-48 -27 -52 -38 -21
-64 l28 -25 -63 -31 c-35 -18 -64 -31 -65 -29 -2 2 0 41 3 88 l6 85 30 2 c17
1 48 5 70 8 22 3 64 6 93 6 59 0 58 -2 26 76 -16 37 -24 38 -99 17z"/>
<path d="M497 965 c-22 -21 -22 -59 -1 -80 13 -12 27 -14 60 -9 47 7 51 0 30
-48 -4 -9 -5 -21 -2 -26 2 -4 -8 -31 -24 -59 -30 -52 -84 -95 -123 -97 -27 -1
-33 -23 -9 -30 10 -4 29 -16 41 -27 19 -18 26 -19 50 -9 46 19 108 91 141 162
16 37 29 71 28 75 -1 5 2 20 6 36 7 23 13 27 46 27 21 0 45 3 54 6 13 5 16 -3
16 -48 0 -30 -5 -59 -10 -64 -6 -6 -12 -25 -15 -43 -5 -40 -6 -42 -36 -43 -13
0 -36 -2 -51 -5 l-26 -4 21 -49 c20 -45 25 -49 52 -46 80 9 136 56 141 119 1
18 5 85 9 150 l8 117 -39 2 c-21 1 -50 1 -64 0 -66 -5 -228 -3 -256 3 -22 5
-35 2 -47 -10z"/>
<path d="M164 524 c-3 -19 -3 -47 1 -62 4 -15 7 -46 7 -69 -1 -48 -1 -46 1
-200 2 -123 3 -124 64 -116 30 5 31 7 28 43 -3 33 -1 38 18 39 28 2 204 2 282
1 33 -1 75 1 92 5 18 4 49 4 68 1 28 -6 35 -11 31 -24 -10 -30 10 -46 55 -45
23 1 43 3 44 5 2 2 -1 53 -6 113 -9 106 -7 179 6 294 l6 53 -43 -5 c-109 -15
-199 -19 -211 -9 -15 13 -95 14 -102 1 -7 -11 -173 -11 -180 1 -2 4 -38 8 -79
8 l-75 1 -7 -35z m276 -40 c23 -4 26 -10 28 -49 1 -40 -1 -44 -26 -49 -15 -3
-52 -3 -82 -1 -30 3 -65 5 -77 6 -20 1 -22 6 -21 45 2 34 6 43 18 39 8 -2 22
0 30 5 15 9 84 11 130 4z m290 0 c23 -4 26 -10 28 -49 1 -40 -1 -44 -26 -49
-15 -3 -52 -3 -82 -1 -30 3 -65 5 -77 6 -20 1 -22 6 -21 45 2 34 6 43 18 39 8
-2 22 0 30 5 15 9 84 11 130 4z m-290 -160 c23 -4 26 -10 28 -49 1 -40 -1 -44
-26 -49 -15 -3 -52 -3 -82 -1 -30 3 -65 5 -77 6 -20 1 -22 6 -21 45 2 34 6 43
18 39 8 -2 22 0 30 5 15 9 84 11 130 4z m290 0 c23 -4 26 -10 28 -49 1 -40 -1
-44 -26 -49 -15 -3 -52 -3 -82 -1 -30 3 -65 5 -77 6 -20 1 -22 6 -21 45 2 34
6 43 18 39 8 -2 22 0 30 5 15 9 84 11 130 4z"/>
</g>
</svg>
