<?xml version="1.0" standalone="no"?>
<!DOCTYPE svg PUBLIC "-//W3C//DTD SVG 20010904//EN"
 "http://www.w3.org/TR/2001/REC-SVG-20010904/DTD/svg10.dtd">
<svg version="1.0" xmlns="http://www.w3.org/2000/svg"
 width="101.000000pt" height="101.000000pt" viewBox="0 0 101.000000 101.000000"
 preserveAspectRatio="xMidYMid meet">
<metadata>
Created by potrace 1.16, written by Peter Selinger 2001-2019
</metadata>
<g transform="translate(0.000000,101.000000) scale(0.100000,-0.100000)"
fill="#000000" stroke="none">
<path d="M581 958 c-17 -57 -74 -165 -111 -208 l-30 -35 7 104 c6 100 5 104
-13 97 -31 -13 -214 -19 -227 -8 -7 6 -38 10 -69 10 -57 -1 -58 -1 -64 -34 -3
-19 -3 -46 1 -61 4 -16 7 -62 6 -105 -1 -44 3 -79 9 -83 12 -8 13 -52 1 -59
-12 -8 -13 -114 -1 -121 15 -9 12 -135 -4 -188 -23 -76 -3 -115 53 -100 14 4
19 14 19 51 1 83 3 90 26 91 11 1 44 3 71 5 69 6 105 -2 103 -22 -5 -67 10
-85 65 -75 l25 5 -1 139 -2 138 28 -30 c20 -22 27 -41 27 -70 0 -21 5 -39 10
-39 15 0 12 -67 -2 -74 -10 -5 -10 -7 0 -12 15 -7 17 -110 2 -119 -5 -3 -10
-17 -10 -29 0 -27 20 -35 67 -29 30 5 31 7 28 45 -3 32 -1 39 11 34 9 -3 24
-1 34 4 11 6 43 8 73 4 52 -6 53 -7 54 -41 1 -19 4 -37 7 -41 7 -7 75 -6 82 1
9 9 6 63 -6 125 -8 42 -9 66 -2 75 5 6 10 38 11 70 3 99 2 96 30 83 19 -8 25
-8 29 2 2 7 15 26 29 43 14 17 22 34 17 38 -5 4 -36 15 -69 25 -33 10 -77 27
-98 38 l-38 19 34 47 c33 45 87 146 108 199 l10 26 -96 -7 c-69 -5 -100 -4
-111 5 -7 6 -24 9 -35 6 -19 -5 -17 -1 11 28 37 38 34 50 -18 65 -60 16 -68
14 -81 -32z m-353 -224 l2 -101 -32 1 -33 1 0 100 0 100 30 0 30 0 3 -101z
m113 96 c15 0 19 -7 19 -39 0 -22 5 -41 11 -43 6 -2 8 -21 4 -53 l-7 -50 -39
0 -39 -1 3 98 c1 77 5 97 15 93 8 -3 22 -5 33 -5z m414 -59 c-12 -26 -32 -57
-42 -70 l-20 -24 -26 35 c-15 19 -33 50 -41 69 l-14 34 83 1 84 1 -24 -46z
m-133 -128 c8 -9 4 -18 -13 -33 -29 -24 -137 -80 -155 -80 -9 0 -12 22 -11 84
2 75 4 83 19 75 9 -5 20 -14 23 -19 11 -17 19 -11 50 34 l30 44 23 -47 c13
-25 28 -52 34 -58z m-262 -86 c0 -13 3 -58 6 -100 l7 -76 -39 1 -39 2 0 98 0
98 33 0 c27 0 32 -4 32 -23z m-140 -56 c0 -32 3 -72 6 -89 6 -29 5 -30 -29
-29 l-36 1 2 88 2 88 28 0 c26 0 27 -1 27 -59z m537 19 l67 -40 -40 0 c-21 0
-76 3 -121 7 l-82 6 52 32 c29 18 53 33 55 34 2 1 33 -17 69 -39z m13 -133 c3
-39 1 -129 -3 -133 -3 -4 -102 -6 -149 -3 -23 1 -27 7 -33 45 -3 24 -2 52 4
63 6 11 9 26 6 33 -4 10 15 13 84 15 85 2 89 1 91 -20z"/>
</g>
</svg>
