<?xml version="1.0" standalone="no"?>
<!DOCTYPE svg PUBLIC "-//W3C//DTD SVG 20010904//EN"
 "http://www.w3.org/TR/2001/REC-SVG-20010904/DTD/svg10.dtd">
<svg version="1.0" xmlns="http://www.w3.org/2000/svg"
 width="101.000000pt" height="101.000000pt" viewBox="0 0 101.000000 101.000000"
 preserveAspectRatio="xMidYMid meet">
<metadata>
Created by potrace 1.16, written by Peter Selinger 2001-2019
</metadata>
<g transform="translate(0.000000,101.000000) scale(0.100000,-0.100000)"
fill="#000000" stroke="none">
<path d="M220 996 c0 -24 -71 -122 -101 -140 -16 -10 -26 -22 -23 -28 4 -6 8
-20 9 -32 1 -11 3 -24 4 -28 2 -14 41 -19 61 -8 12 6 31 13 43 15 16 3 9 -8
-31 -45 -29 -28 -60 -50 -68 -50 -11 0 -14 -8 -11 -27 11 -64 11 -64 108 -59
49 3 98 10 109 16 23 12 41 10 55 -8 8 -10 17 -10 45 -1 19 7 36 13 38 14 2 2
-54 129 -63 142 -2 4 -75 -18 -75 -23 0 -3 7 -16 16 -29 19 -29 7 -39 -36 -31
-14 2 -34 5 -45 5 -15 1 -1 20 60 81 44 44 88 83 97 86 26 8 22 27 -11 47 -41
24 -52 22 -84 -18 -16 -20 -33 -33 -38 -29 -6 3 -24 0 -40 -6 -16 -7 -32 -11
-34 -8 -3 3 22 35 56 71 l61 67 -47 20 c-55 24 -55 24 -55 6z"/>
<path d="M456 897 c1 -123 9 -217 22 -288 l9 -46 -116 -6 c-136 -7 -239 -1
-281 17 -30 12 -46 -14 -42 -70 2 -17 7 -20 34 -16 18 2 78 3 133 3 55 0 143
-1 196 -1 l96 0 12 -43 c7 -23 28 -73 47 -111 19 -39 30 -72 26 -75 -4 -3 -29
-21 -54 -38 l-46 -33 -6 28 c-8 39 -5 164 5 183 4 9 5 26 2 38 -6 22 -7 22
-165 16 -94 -3 -166 -1 -177 4 -10 6 -27 8 -38 5 -16 -4 -19 -12 -16 -37 12
-93 13 -189 3 -246 -6 -35 -8 -66 -5 -69 3 -3 22 -5 42 -5 38 1 56 18 47 44
-3 12 2 17 18 18 13 0 59 3 103 6 85 6 164 -2 133 -14 -10 -3 -19 -9 -20 -13
-3 -6 67 -58 79 -58 3 0 39 25 80 56 l74 55 47 -42 c58 -52 125 -83 159 -74
17 4 31 21 48 58 39 87 38 88 -11 124 -26 19 -45 28 -45 20 -5 -42 -7 -54 -13
-75 -4 -12 -13 -22 -20 -22 -15 0 -96 68 -96 80 0 13 70 109 103 142 l29 28
-36 21 c-20 11 -36 22 -36 24 0 4 41 6 106 6 48 0 52 2 57 25 2 14 3 34 0 44
-4 15 -10 16 -44 7 -28 -7 -47 -6 -64 1 -14 6 -31 9 -38 7 -7 -3 -20 7 -29 23
l-17 29 42 -1 c23 -1 45 -5 48 -10 8 -11 79 12 79 26 0 11 -69 138 -75 138 -4
0 -57 -22 -63 -26 -2 -1 4 -16 13 -34 l16 -31 -45 6 c-32 5 -51 3 -61 -5 -9
-7 -17 -11 -19 -9 -7 7 204 179 220 179 7 0 14 4 14 9 0 13 -59 61 -74 61 -6
0 -28 -20 -48 -44 -29 -34 -42 -42 -61 -39 -14 3 -35 0 -47 -7 -40 -22 -31 -3
29 58 42 43 56 63 48 70 -17 12 -77 36 -81 31 -2 -2 -15 -24 -29 -49 -28 -48
-73 -96 -95 -102 -11 -2 -14 12 -14 57 0 33 4 70 7 83 7 21 5 22 -46 22 l-54
0 1 -113z m174 -131 c27 0 50 -1 50 -2 0 -3 -108 -74 -113 -74 -11 0 -17 35
-11 67 5 24 9 31 15 21 5 -8 27 -13 59 -12z m2 -152 c22 2 37 2 34 -1 -3 -4 1
-14 10 -24 23 -25 8 -42 -30 -34 -17 3 -41 6 -54 7 -13 0 -21 2 -18 5 2 3 0
17 -5 31 -5 14 -7 39 -3 56 l7 31 10 -38 c9 -37 10 -38 49 -33z m107 -129 c6
-6 -35 -93 -58 -124 l-18 -24 -17 26 c-10 14 -26 49 -37 77 -18 48 -18 51 -2
46 10 -3 25 -1 33 5 14 9 88 4 99 -6z m-483 -120 c-1 -20 -6 -24 -36 -22 -28
1 -35 5 -36 22 -1 17 5 21 36 22 34 2 38 -1 36 -22z m150 0 c-1 -20 -6 -24
-36 -22 -28 1 -35 5 -36 22 -1 17 5 21 36 22 34 2 38 -1 36 -22z m-150 -110
c-1 -20 -6 -24 -36 -22 -28 1 -35 5 -36 22 -1 17 5 21 36 22 34 2 38 -1 36
-22z m150 0 c-1 -20 -6 -24 -36 -22 -28 1 -35 5 -36 22 -1 17 5 21 36 22 34 2
38 -1 36 -22z"/>
</g>
</svg>
