<?xml version="1.0" standalone="no"?>
<!DOCTYPE svg PUBLIC "-//W3C//DTD SVG 20010904//EN"
 "http://www.w3.org/TR/2001/REC-SVG-20010904/DTD/svg10.dtd">
<svg version="1.0" xmlns="http://www.w3.org/2000/svg"
 width="101.000000pt" height="101.000000pt" viewBox="0 0 101.000000 101.000000"
 preserveAspectRatio="xMidYMid meet">
<metadata>
Created by potrace 1.16, written by Peter Selinger 2001-2019
</metadata>
<g transform="translate(0.000000,101.000000) scale(0.100000,-0.100000)"
fill="#000000" stroke="none">
<path d="M638 1003 c-21 -5 -22 -12 -9 -46 8 -21 6 -26 -12 -31 -35 -9 -95 -7
-102 4 -9 15 -42 12 -59 -6 -34 -34 -5 -89 44 -82 22 3 28 -2 41 -32 l15 -35
-50 3 c-83 4 -86 5 -87 27 0 11 -2 42 -3 68 -2 51 -18 72 -46 57 -8 -4 -81 -6
-162 -4 -140 4 -147 4 -153 -16 -3 -11 -3 -30 1 -42 4 -13 7 -49 6 -80 -1 -31
2 -59 8 -63 13 -8 13 -152 0 -160 -7 -4 -10 -53 -10 -128 1 -67 2 -133 1 -147
-1 -93 6 -103 63 -93 26 5 32 20 28 67 -2 13 2 16 14 12 8 -3 24 -1 35 4 11 6
40 8 69 4 40 -5 49 -10 45 -23 -10 -33 13 -46 77 -43 l28 2 -6 103 c-12 247
-4 366 25 368 9 0 53 0 98 0 45 -1 84 3 88 9 8 14 68 13 83 -2 8 -8 15 -8 24
-1 20 17 149 15 182 -2 36 -19 64 -11 72 20 14 55 6 60 -94 60 -50 0 -92 3
-92 6 0 3 9 15 21 27 11 12 17 27 13 33 -4 8 1 9 15 4 54 -17 101 18 86 64 -5
15 -22 19 -113 27 -105 9 -107 9 -107 34 0 37 -24 47 -77 33z m94 -184 c-16
-38 -21 -41 -60 -43 -23 -1 -40 0 -37 2 2 2 0 14 -5 26 -14 39 1 47 97 54 22
2 22 2 5 -39z m-522 -28 c0 -31 -3 -79 -6 -106 -6 -47 -8 -51 -33 -50 -26 0
-26 1 -29 78 -2 48 1 77 8 77 5 0 10 12 10 28 0 22 5 27 25 28 24 2 25 -1 25
-55z m106 -49 c1 -107 1 -107 -24 -109 -24 -1 -24 0 -18 50 3 29 6 75 6 104 0
41 4 52 18 56 9 3 17 5 17 6 0 0 0 -47 1 -107z m-117 -207 c1 -11 3 -42 5 -70
7 -76 0 -100 -29 -101 -28 -2 -36 23 -29 101 2 28 4 60 5 71 2 29 46 28 48 -1z
m120 0 c1 -11 3 -42 5 -70 7 -76 0 -100 -29 -101 -28 -2 -36 23 -29 101 2 28
4 60 5 71 2 29 46 28 48 -1z"/>
<path d="M467 673 c-14 -4 -16 -12 -11 -51 9 -70 9 -193 0 -228 -7 -27 -5 -32
15 -37 12 -3 31 -2 41 4 10 5 40 7 67 3 43 -5 49 -9 47 -29 -1 -20 -8 -24 -49
-29 -26 -4 -53 -4 -59 0 -25 16 -66 11 -71 -8 -12 -46 24 -79 65 -57 10 5 40
7 67 3 43 -5 49 -9 47 -29 -1 -20 -8 -23 -60 -29 -32 -3 -63 -3 -69 1 -19 12
-105 18 -115 8 -7 -7 -6 -74 1 -81 6 -7 34 -6 77 2 63 11 433 4 460 -9 24 -11
42 8 43 46 1 46 -3 49 -39 37 -16 -5 -60 -8 -99 -5 -38 3 -79 6 -90 6 -13 1
-20 9 -21 24 -2 26 2 27 117 25 82 -1 93 6 82 50 -5 19 -12 21 -82 20 -110 -2
-116 -1 -117 25 -2 26 4 27 107 26 l67 -1 -4 115 c-2 64 0 124 5 134 13 24 3
59 -19 66 -10 3 -40 -1 -67 -10 -57 -19 -204 -14 -298 8 -11 3 -28 3 -38 0z
m338 -103 c0 -31 -3 -35 -25 -32 -14 2 -34 3 -46 4 -16 0 -21 7 -21 29 0 22 4
28 16 24 9 -2 23 0 31 5 28 18 45 7 45 -30z m-178 0 c0 -28 -2 -29 -42 -28
-38 2 -42 5 -42 28 0 23 4 26 42 28 40 1 42 0 42 -28z m177 -115 c0 -26 -4
-30 -25 -27 -13 2 -33 3 -44 4 -14 0 -20 8 -21 25 -2 18 2 22 15 19 9 -3 23
-1 31 4 26 17 45 7 44 -25z m-178 0 c-1 -22 -5 -24 -41 -23 -33 2 -40 6 -41
23 -1 18 5 21 41 23 40 1 43 0 41 -23z"/>
</g>
</svg>
