<?xml version="1.0" standalone="no"?>
<!DOCTYPE svg PUBLIC "-//W3C//DTD SVG 20010904//EN"
 "http://www.w3.org/TR/2001/REC-SVG-20010904/DTD/svg10.dtd">
<svg version="1.0" xmlns="http://www.w3.org/2000/svg"
 width="101.000000pt" height="101.000000pt" viewBox="0 0 101.000000 101.000000"
 preserveAspectRatio="xMidYMid meet">
<metadata>
Created by potrace 1.16, written by Peter Selinger 2001-2019
</metadata>
<g transform="translate(0.000000,101.000000) scale(0.100000,-0.100000)"
fill="#000000" stroke="none">
<path d="M106 917 c-9 -36 -7 -55 10 -71 10 -11 21 -13 31 -7 9 4 24 6 34 4
11 -3 25 0 33 6 15 12 67 13 191 4 l70 -5 2 -82 c1 -44 2 -99 1 -121 0 -22 0
-118 1 -213 l0 -174 -27 7 c-75 18 -151 121 -158 211 -3 41 0 60 12 71 8 9 13
22 10 30 -3 7 1 32 8 54 l14 40 -36 15 c-28 11 -43 12 -60 4 -20 -9 -23 -17
-23 -63 0 -64 -4 -111 -11 -123 -3 -5 -6 -24 -6 -42 -1 -50 -64 -175 -118
-232 -48 -52 -50 -66 -6 -75 11 -2 30 -8 40 -14 25 -13 28 -10 91 109 l49 93
16 -30 c8 -17 37 -50 65 -75 63 -57 152 -83 261 -77 14 0 91 2 172 3 80 0 149
4 152 7 4 4 9 16 11 29 2 12 10 29 16 37 18 21 -7 35 -51 27 -19 -3 -59 -5
-87 -4 -32 0 -53 -3 -53 -9 0 -6 -16 -11 -35 -11 -19 0 -35 5 -35 10 0 6 -27
10 -60 10 l-59 0 2 135 2 135 28 0 c15 0 27 5 27 10 0 17 131 12 151 -6 37
-33 80 12 65 69 -5 22 -8 23 -138 22 l-133 0 0 107 0 108 43 0 c25 0 42 5 42
11 0 8 16 10 51 6 29 -4 54 -9 57 -11 2 -3 -8 -26 -23 -51 -28 -49 -28 -53 1
-59 11 -2 31 -7 46 -11 24 -6 29 -3 41 27 13 28 76 162 84 178 5 8 -255 6
-263 -2 -11 -11 -52 -10 -59 2 -8 13 -142 13 -150 1 -7 -12 -172 -13 -179 -2
-3 5 -39 9 -80 9 -68 0 -75 -2 -80 -21z"/>
</g>
</svg>
