<?xml version="1.0" standalone="no"?>
<!DOCTYPE svg PUBLIC "-//W3C//DTD SVG 20010904//EN"
 "http://www.w3.org/TR/2001/REC-SVG-20010904/DTD/svg10.dtd">
<svg version="1.0" xmlns="http://www.w3.org/2000/svg"
 width="101.000000pt" height="101.000000pt" viewBox="0 0 101.000000 101.000000"
 preserveAspectRatio="xMidYMid meet">
<metadata>
Created by potrace 1.16, written by Peter Selinger 2001-2019
</metadata>
<g transform="translate(0.000000,101.000000) scale(0.100000,-0.100000)"
fill="#000000" stroke="none">
<path d="M517 1002 c-10 -2 -16 -9 -14 -15 3 -7 12 -28 21 -48 l15 -37 -31 -6
c-47 -9 -98 -7 -98 4 0 6 -18 10 -40 10 -22 0 -40 -5 -40 -11 0 -7 -21 -10
-60 -7 -34 2 -61 -1 -63 -7 -7 -19 5 -145 14 -145 5 0 9 -16 9 -35 0 -19 -5
-35 -11 -35 -7 0 -10 -18 -7 -50 l3 -50 -55 -21 c-30 -11 -67 -21 -82 -21 -16
-1 -32 -6 -37 -12 -10 -12 8 -109 18 -104 3 2 38 20 78 40 l71 37 -4 -37 c-4
-36 -7 -55 -20 -117 -10 -45 -41 -101 -81 -145 -19 -22 -30 -40 -23 -40 7 0
29 -12 48 -27 l35 -26 20 24 c28 34 62 105 87 179 35 107 37 119 42 355 l3
160 112 -3 c70 -2 114 1 118 8 8 13 52 13 60 0 4 -7 55 -10 138 -9 73 1 146
-1 162 -5 38 -8 53 2 60 39 10 55 2 58 -173 59 l-160 1 -16 52 c-16 49 -19 52
-49 51 -18 -1 -40 -4 -50 -6z"/>
<path d="M82 807 c-20 -9 -23 -16 -18 -41 4 -17 7 -38 7 -46 2 -46 24 -110 41
-116 42 -13 84 32 62 67 -7 12 -14 56 -15 89 -1 57 -24 71 -77 47z"/>
<path d="M354 702 c-11 -11 -14 -25 -9 -51 4 -20 9 -38 12 -41 3 -3 88 -4 190
-4 l185 2 -73 -33 c-48 -22 -76 -41 -81 -56 -5 -12 -7 -80 -5 -152 4 -151 0
-159 -69 -153 -24 2 -44 1 -44 -3 0 -3 10 -29 22 -59 l22 -52 46 3 c102 8 134
46 125 145 -4 40 -3 68 4 76 7 8 10 46 9 95 l-3 80 88 41 c48 22 97 42 110 45
20 5 22 12 22 66 0 66 -11 77 -58 60 -15 -6 -69 -8 -127 -4 -72 4 -100 3 -100
-5 0 -14 -146 -17 -152 -3 -1 4 -25 10 -51 13 -35 4 -52 2 -63 -10z"/>
</g>
</svg>
