<?xml version="1.0" standalone="no"?>
<!DOCTYPE svg PUBLIC "-//W3C//DTD SVG 20010904//EN"
 "http://www.w3.org/TR/2001/REC-SVG-20010904/DTD/svg10.dtd">
<svg version="1.0" xmlns="http://www.w3.org/2000/svg"
 width="101.000000pt" height="101.000000pt" viewBox="0 0 101.000000 101.000000"
 preserveAspectRatio="xMidYMid meet">
<metadata>
Created by potrace 1.16, written by Peter Selinger 2001-2019
</metadata>
<g transform="translate(0.000000,101.000000) scale(0.100000,-0.100000)"
fill="#000000" stroke="none">
<path d="M564 994 c-15 -8 -34 -12 -41 -10 -16 6 -17 -6 -2 -21 6 -6 12 -22
13 -35 l3 -25 -166 1 -166 1 -3 -47 c-2 -29 1 -48 7 -48 6 0 11 -16 11 -35 0
-19 -5 -35 -11 -35 -8 0 -10 -26 -7 -85 l4 -85 -53 -27 c-30 -14 -67 -26 -83
-25 -17 0 -32 -4 -36 -9 -6 -10 13 -78 26 -92 4 -5 37 10 74 32 36 23 68 41
70 41 5 0 0 -50 -9 -100 -11 -61 -52 -138 -99 -183 l-45 -44 47 -31 c42 -28
49 -29 64 -15 33 29 71 93 95 160 23 64 28 85 38 158 2 17 7 43 12 58 l9 29
24 -20 25 -21 27 26 c22 21 26 22 22 7 -6 -25 8 -45 32 -45 97 1 141 5 151 13
7 5 32 6 58 3 l46 -7 -65 -38 c-122 -71 -226 -161 -245 -211 -15 -40 17 -85
71 -100 65 -17 91 -22 108 -20 8 1 71 3 140 5 145 3 179 16 209 74 32 64 34
80 11 87 -11 3 -34 18 -50 32 -17 14 -33 23 -36 21 -2 -3 -7 -22 -9 -42 -5
-39 -20 -75 -33 -77 -89 -18 -283 -12 -304 9 -19 19 267 224 329 237 35 7 49
31 37 68 -9 30 -23 37 -51 26 -13 -5 -90 -6 -171 -2 -81 3 -161 6 -178 7 l-32
1 30 34 c29 33 33 34 111 37 108 4 185 5 277 1 l75 -4 0 43 c0 42 -1 42 -40
48 -24 4 -60 0 -89 -9 -55 -17 -186 -20 -186 -5 0 6 -11 10 -25 10 -32 0 -32
15 0 36 32 21 26 28 -30 44 -42 12 -44 14 -26 26 22 16 149 18 167 3 6 -5 51
-7 100 -5 49 2 106 4 126 5 40 1 54 20 43 63 -6 23 -7 23 -165 23 -87 0 -158
2 -157 5 3 17 -26 89 -37 93 -7 3 -26 -1 -42 -9z m-97 -183 l32 -1 -41 -72
c-23 -39 -67 -98 -98 -131 l-56 -59 9 113 c4 63 6 123 4 134 -3 18 2 20 57 18
34 -1 75 -2 93 -2z"/>
<path d="M76 811 c-3 -5 -3 -30 0 -57 2 -27 5 -59 5 -71 -1 -45 17 -73 46 -73
45 0 51 10 48 75 -2 33 -5 71 -8 85 -2 14 -5 30 -5 36 -2 13 -79 18 -86 5z"/>
</g>
</svg>
