<?xml version="1.0" standalone="no"?>
<!DOCTYPE svg PUBLIC "-//W3C//DTD SVG 20010904//EN"
 "http://www.w3.org/TR/2001/REC-SVG-20010904/DTD/svg10.dtd">
<svg version="1.0" xmlns="http://www.w3.org/2000/svg"
 width="101.000000pt" height="101.000000pt" viewBox="0 0 101.000000 101.000000"
 preserveAspectRatio="xMidYMid meet">
<metadata>
Created by potrace 1.16, written by Peter Selinger 2001-2019
</metadata>
<g transform="translate(0.000000,101.000000) scale(0.100000,-0.100000)"
fill="#000000" stroke="none">
<path d="M535 997 c-38 -12 -40 -14 -28 -29 5 -7 14 -24 20 -38 l10 -25 -53 3
c-35 3 -54 0 -54 -7 0 -13 -67 -15 -72 -2 -2 8 -97 16 -134 12 -8 -1 -11 -54
-10 -181 l1 -181 -78 -24 c-43 -14 -85 -25 -93 -25 -15 0 -13 -24 7 -77 10
-27 11 -28 52 -6 18 10 49 25 69 34 l37 17 -4 -36 c-10 -94 -40 -171 -93 -240
-18 -24 -32 -46 -29 -48 2 -2 25 -15 50 -28 l47 -23 30 52 c17 29 30 58 30 64
0 21 28 11 55 -21 l26 -31 57 40 c71 49 144 144 172 222 17 46 26 59 43 59 12
1 33 2 47 4 22 3 25 0 22 -27 -9 -92 -111 -229 -200 -269 -23 -11 -42 -22 -42
-25 0 -3 18 -20 39 -38 l39 -32 38 28 c97 70 180 193 205 306 l11 51 44 2 c47
2 50 -2 34 -42 -6 -18 -6 -34 2 -51 8 -18 8 -28 -1 -39 -7 -8 -14 -36 -16 -61
-4 -70 -44 -102 -94 -76 -10 6 -27 7 -39 4 -22 -5 -22 -5 -3 -32 11 -15 23
-39 26 -53 6 -24 11 -26 45 -23 54 5 126 39 141 66 13 25 17 54 24 159 2 36 6
81 9 100 20 128 15 147 -32 129 -39 -15 -289 -21 -314 -8 -18 10 -8 16 91 55
61 24 117 41 125 38 16 -6 56 12 68 30 10 14 10 68 0 81 -8 11 -10 11 -286 15
l-200 2 -8 -23 c-14 -36 7 -73 35 -65 12 4 83 8 158 9 l136 2 -121 -51 c-67
-28 -145 -59 -174 -68 -50 -17 -52 -19 -48 -49 7 -56 15 -65 49 -62 18 1 40 6
49 10 9 4 22 4 28 0 16 -10 -37 -100 -86 -148 -39 -38 -123 -91 -131 -83 -3 2
3 30 12 62 29 105 40 217 40 394 l0 125 48 -3 c26 -2 53 1 61 7 15 13 146 13
162 0 6 -5 71 -8 145 -8 74 0 149 -1 167 -2 40 -3 55 14 47 56 -6 34 -22 47
-50 40 -39 -10 -262 -10 -262 0 0 6 -5 29 -12 51 -12 45 -27 51 -86 31z"/>
<path d="M116 843 c-3 -3 -16 -6 -28 -7 -24 -1 -28 -21 -13 -76 8 -29 14 -62
24 -123 1 -6 62 -4 88 2 2 1 0 18 -3 39 -3 20 -6 46 -5 57 0 10 -5 25 -11 32
-6 7 -8 13 -5 13 3 0 1 13 -4 29 -10 29 -31 45 -43 34z"/>
</g>
</svg>
