<?xml version="1.0" standalone="no"?>
<!DOCTYPE svg PUBLIC "-//W3C//DTD SVG 20010904//EN"
 "http://www.w3.org/TR/2001/REC-SVG-20010904/DTD/svg10.dtd">
<svg version="1.0" xmlns="http://www.w3.org/2000/svg"
 width="101.000000pt" height="101.000000pt" viewBox="0 0 101.000000 101.000000"
 preserveAspectRatio="xMidYMid meet">
<metadata>
Created by potrace 1.16, written by Peter Selinger 2001-2019
</metadata>
<g transform="translate(0.000000,101.000000) scale(0.100000,-0.100000)"
fill="#000000" stroke="none">
<path d="M513 990 c-21 -9 -22 -11 -8 -44 8 -20 15 -39 15 -43 0 -9 -269 -8
-277 1 -12 11 -44 -16 -38 -31 3 -9 8 -75 11 -147 3 -72 8 -134 10 -138 4 -6
-147 -68 -166 -68 -18 0 -20 -20 -4 -59 9 -23 20 -41 26 -41 5 0 28 13 51 29
23 15 52 33 65 40 21 11 22 10 17 -16 -3 -15 -8 -44 -11 -63 -10 -60 -44 -139
-80 -186 l-35 -46 38 -33 c21 -19 41 -34 45 -35 13 0 67 106 93 185 30 88 35
109 40 174 2 24 6 46 10 49 3 3 18 -7 35 -23 24 -23 32 -26 45 -15 13 11 15 7
15 -29 0 -22 5 -41 10 -41 15 0 12 -67 -2 -73 -10 -4 -10 -8 0 -15 10 -7 13
-29 11 -82 -3 -64 -1 -74 16 -86 22 -14 81 -28 105 -25 8 1 73 3 143 5 110 2
132 6 155 23 45 34 91 133 62 133 -7 0 -28 11 -46 25 -18 14 -35 25 -37 25 -3
0 -8 -15 -11 -34 -7 -34 -44 -92 -53 -82 -3 3 -23 -2 -44 -11 -26 -10 -48 -12
-66 -7 -30 8 -48 11 -101 17 -19 2 -37 10 -42 17 -13 21 -22 111 -11 123 5 7
8 36 8 65 l-2 52 40 0 c22 0 63 3 92 6 l52 7 -4 -38 c-7 -51 -19 -63 -60 -62
-19 1 -37 -2 -40 -5 -12 -11 17 -97 34 -100 9 -2 38 4 66 14 27 10 51 18 53
18 5 0 34 73 39 100 5 24 9 66 12 103 1 16 6 15 46 -9 25 -14 47 -25 48 -23 2
2 16 23 31 47 16 23 27 44 25 45 -2 2 -30 13 -62 25 -109 41 -216 126 -221
176 -3 23 0 26 30 26 19 0 34 5 34 10 0 6 11 10 25 10 14 0 25 -5 25 -10 0 -6
32 -10 80 -9 87 1 98 9 84 63 -6 26 -30 33 -104 28 -14 0 -66 -2 -117 -4 -103
-3 -106 -1 -112 83 -1 18 -52 23 -88 9z m33 -173 c19 -19 -104 -175 -194 -245
l-42 -34 3 139 2 138 48 -4 c29 -2 54 2 60 9 12 12 111 10 123 -3z m191 -246
c2 -3 -58 -6 -132 -6 -74 0 -135 1 -135 2 0 1 20 25 44 52 24 27 52 63 62 79
l17 30 71 -75 c39 -42 72 -78 73 -82z"/>
<path d="M89 822 c-13 -2 -15 -12 -12 -45 3 -23 9 -49 13 -57 5 -8 6 -27 3
-41 -8 -43 46 -77 83 -51 16 11 17 82 1 101 -8 9 -15 31 -15 48 -1 52 -11 58
-73 45z"/>
</g>
</svg>
