<?xml version="1.0" standalone="no"?>
<!DOCTYPE svg PUBLIC "-//W3C//DTD SVG 20010904//EN"
 "http://www.w3.org/TR/2001/REC-SVG-20010904/DTD/svg10.dtd">
<svg version="1.0" xmlns="http://www.w3.org/2000/svg"
 width="101.000000pt" height="102.000000pt" viewBox="0 0 101.000000 102.000000"
 preserveAspectRatio="xMidYMid meet">
<metadata>
Created by potrace 1.16, written by Peter Selinger 2001-2019
</metadata>
<g transform="translate(0.000000,102.000000) scale(0.100000,-0.100000)"
fill="#000000" stroke="none">
<path d="M552 1002 c-14 -7 -32 -10 -39 -8 -17 7 -17 3 8 -39 12 -20 19 -39
16 -42 -11 -10 -208 -15 -220 -5 -19 15 -95 13 -112 -4 -12 -12 -13 -31 -8
-92 3 -42 10 -78 15 -80 12 -5 10 -52 -3 -52 -6 0 -8 -15 -4 -43 l7 -43 -69
-31 c-37 -17 -78 -34 -91 -38 -12 -3 -22 -10 -22 -14 0 -9 30 -83 35 -89 2 -2
30 14 62 35 88 60 86 59 78 32 -5 -13 -9 -33 -11 -44 -10 -75 -19 -107 -44
-161 -15 -34 -45 -80 -65 -103 -22 -24 -31 -41 -23 -41 7 0 30 -12 51 -26 45
-30 46 -30 96 73 68 139 95 285 96 528 l0 110 80 2 c166 4 457 -3 506 -12 48
-9 71 13 67 64 -2 30 -7 35 -23 33 -79 -11 -218 -12 -230 -2 -8 7 -24 10 -35
7 -16 -4 -22 4 -35 48 -17 58 -31 65 -83 37z"/>
<path d="M68 832 c-13 -2 -15 -11 -12 -40 3 -20 5 -62 5 -92 0 -73 5 -87 35
-94 46 -12 57 4 59 90 1 44 -3 94 -8 112 -11 32 -22 36 -79 24z"/>
<path d="M425 759 c-4 -10 -1 -28 5 -39 9 -16 8 -25 0 -36 -7 -7 -9 -21 -6
-30 8 -21 -56 -86 -77 -78 -29 11 -29 -18 -1 -48 16 -17 24 -28 19 -25 -21 11
-39 -12 -38 -48 1 -20 4 -39 8 -43 3 -3 27 -5 52 -4 41 1 44 0 28 -12 -18 -13
-15 -17 35 -75 29 -33 57 -61 61 -61 5 0 9 -4 9 -9 0 -11 -81 -39 -134 -46
-21 -2 -45 -10 -52 -16 -11 -9 -21 -9 -38 -1 -24 11 -66 6 -66 -8 0 -4 7 -13
16 -21 8 -7 22 -25 30 -41 8 -15 21 -28 28 -28 25 0 190 51 242 74 44 21 54
22 76 10 32 -17 164 -61 203 -68 17 -3 42 -8 58 -11 25 -5 33 2 28 29 -1 4 7
24 19 43 11 19 20 36 20 37 0 2 -19 4 -42 4 -24 0 -56 2 -73 5 -16 3 -48 8
-70 10 -97 12 -96 11 -35 76 56 59 134 186 124 202 -3 5 6 9 20 9 27 0 33 14
34 73 0 26 -2 28 -27 22 -42 -11 -105 -12 -118 -2 -15 11 -17 77 -3 77 6 0 10
20 10 44 l0 44 -52 1 c-29 0 -106 2 -170 4 -106 3 -118 2 -123 -14z m247 -122
c-7 -82 11 -108 90 -129 l63 -17 -95 0 c-168 -2 -304 -2 -330 0 l-25 2 27 11
c15 6 39 22 53 34 29 25 68 109 61 128 -4 10 14 14 72 17 42 1 80 4 83 5 3 1
4 -22 1 -51z m34 -230 c9 -8 -60 -93 -88 -108 -22 -12 -45 5 -101 75 -25 31
-27 37 -11 32 10 -3 26 -1 34 4 16 10 155 8 166 -3z"/>
</g>
</svg>
