<?xml version="1.0" standalone="no"?>
<!DOCTYPE svg PUBLIC "-//W3C//DTD SVG 20010904//EN"
 "http://www.w3.org/TR/2001/REC-SVG-20010904/DTD/svg10.dtd">
<svg version="1.0" xmlns="http://www.w3.org/2000/svg"
 width="101.000000pt" height="101.000000pt" viewBox="0 0 101.000000 101.000000"
 preserveAspectRatio="xMidYMid meet">
<metadata>
Created by potrace 1.16, written by Peter Selinger 2001-2019
</metadata>
<g transform="translate(0.000000,101.000000) scale(0.100000,-0.100000)"
fill="#000000" stroke="none">
<path d="M540 997 c-19 -6 -36 -11 -38 -13 -2 -1 5 -19 16 -41 l20 -38 -49 3
c-27 2 -55 -1 -62 -6 -16 -14 -167 -14 -184 -1 -30 25 -72 -5 -63 -46 1 -5 3
-75 3 -155 l2 -144 -73 -25 -73 -24 5 -40 c7 -59 17 -62 73 -28 28 17 53 31
57 31 3 0 3 -15 0 -32 -3 -18 -8 -43 -9 -55 -9 -68 -51 -155 -96 -201 -17 -18
-30 -34 -28 -36 2 -2 23 -13 47 -25 35 -18 46 -20 59 -10 43 36 114 234 119
334 2 28 6 66 9 85 14 77 17 150 6 150 -6 0 -11 11 -11 25 0 14 5 25 10 25 6
0 10 18 10 40 l0 40 48 0 c26 0 86 2 135 4 62 3 87 1 88 -7 0 -7 1 -26 2 -44
l2 -31 -110 1 -110 2 -1 -165 c-2 -241 -17 -302 -95 -383 -27 -28 -49 -52 -49
-54 0 -2 7 -3 16 -3 9 0 32 -8 52 -17 l35 -17 32 38 32 38 31 -38 31 -38 58
23 c32 13 81 37 110 53 l52 29 53 -27 c29 -15 83 -37 120 -50 l66 -22 31 50
c18 28 30 52 28 54 -2 3 -24 7 -48 9 -24 3 -58 7 -74 9 -34 4 -105 32 -105 40
0 3 18 29 40 58 42 56 115 196 106 205 -2 3 -36 0 -75 -7 -50 -8 -75 -9 -89
-1 -12 6 -27 8 -36 5 -12 -5 -14 5 -13 58 l2 63 78 2 78 1 -21 -33 -20 -33 45
-15 46 -16 16 42 c9 23 27 61 40 86 12 25 21 46 19 48 -2 2 -63 4 -137 6
l-134 2 1 28 c1 15 2 33 3 40 1 8 16 11 52 8 29 -2 56 2 62 8 14 14 71 14 117
1 39 -11 50 -2 50 42 0 30 -26 62 -43 51 -6 -3 -32 -5 -59 -4 -28 1 -48 -2
-48 -9 0 -5 -16 -10 -35 -10 -19 0 -35 5 -35 10 0 6 -20 10 -44 10 l-45 0 -13
48 c-15 52 -25 56 -88 39z m-30 -357 l48 0 4 -60 3 -60 -31 -6 c-18 -3 -41 -1
-52 5 -11 6 -28 8 -38 4 -14 -5 -16 -2 -10 18 17 52 18 80 5 96 -12 15 -12 16
4 10 10 -4 40 -7 67 -7z m187 -188 l52 -7 -50 -69 -50 -68 -24 22 c-13 12 -34
42 -47 66 -22 44 -24 45 -63 40 -22 -3 -43 -5 -48 -5 -13 -1 20 -57 69 -116
24 -31 42 -60 39 -65 -7 -12 -102 -47 -149 -54 -21 -4 -43 -9 -49 -13 -7 -4
-8 0 -2 13 32 77 58 184 57 232 0 17 4 21 17 18 9 -3 22 -2 30 3 16 10 148 12
218 3z"/>
<path d="M68 802 c-13 -2 -17 -11 -14 -34 2 -17 9 -34 15 -38 8 -4 10 -25 7
-58 -6 -67 8 -84 57 -69 31 10 34 14 36 53 0 24 -3 45 -9 49 -5 3 -7 12 -3 20
3 8 2 23 -3 33 -8 19 -11 28 -13 41 -1 9 -39 11 -73 3z"/>
</g>
</svg>
