<?xml version="1.0" standalone="no"?>
<!DOCTYPE svg PUBLIC "-//W3C//DTD SVG 20010904//EN"
 "http://www.w3.org/TR/2001/REC-SVG-20010904/DTD/svg10.dtd">
<svg version="1.0" xmlns="http://www.w3.org/2000/svg"
 width="101.000000pt" height="101.000000pt" viewBox="0 0 101.000000 101.000000"
 preserveAspectRatio="xMidYMid meet">
<metadata>
Created by potrace 1.16, written by Peter Selinger 2001-2019
</metadata>
<g transform="translate(0.000000,101.000000) scale(0.100000,-0.100000)"
fill="#000000" stroke="none">
<path d="M518 1003 c-20 -5 -22 -16 -8 -42 5 -10 11 -29 14 -43 l4 -25 -166 1
-167 1 2 -25 c1 -14 3 -87 5 -162 l4 -137 -56 -20 c-30 -11 -67 -23 -82 -25
-55 -9 -59 -16 -36 -68 22 -51 31 -56 57 -35 9 8 37 26 64 41 l47 27 -5 -28
c-3 -15 -7 -41 -10 -56 -15 -78 -70 -174 -127 -222 -21 -18 -28 -30 -20 -32 7
-3 33 -16 58 -29 25 -13 47 -24 49 -24 2 0 23 31 45 69 40 67 88 188 96 241 8
55 19 230 19 308 l0 82 43 0 c23 0 42 5 42 10 0 6 11 10 25 10 14 0 25 -4 25
-10 0 -6 30 -10 70 -10 40 0 70 4 70 10 0 6 11 10 25 10 14 0 25 -4 25 -10 0
-5 23 -10 50 -10 28 0 50 5 50 10 0 6 31 10 74 10 41 0 78 -4 81 -10 11 -18
53 -11 60 10 14 45 -9 90 -40 79 -17 -6 -273 -4 -270 2 2 3 -3 28 -11 56 -14
49 -16 51 -52 50 -20 0 -45 -2 -54 -4z"/>
<path d="M73 822 c-16 -10 -11 -81 7 -92 9 -5 11 -24 8 -64 -4 -48 -2 -57 14
-62 11 -3 32 -1 48 6 26 11 28 16 28 63 1 28 -2 56 -6 61 -6 11 -8 16 -10 48
-4 37 -56 61 -89 40z"/>
<path d="M390 741 c-12 -8 -15 -29 -13 -93 1 -46 2 -110 2 -143 0 -33 0 -106
1 -162 0 -102 0 -103 -25 -109 -15 -4 -37 -2 -50 4 -48 22 -78 -6 -68 -62 5
-25 20 -32 53 -26 63 11 293 14 455 6 195 -10 212 -8 218 22 8 44 -2 58 -41
60 -20 1 -47 2 -59 3 l-21 1 4 248 4 248 -55 7 c-30 3 -60 3 -66 -1 -13 -8
-244 -6 -294 2 -16 2 -37 0 -45 -5z m355 -133 c0 -36 -1 -36 -49 -43 -35 -4
-52 -2 -58 7 -8 10 -11 10 -15 1 -6 -15 -73 -18 -73 -3 0 6 -16 10 -35 10 -28
0 -35 4 -35 19 0 11 -2 25 -5 33 -4 10 22 13 133 13 l138 0 -1 -37z m-35 -114
c34 -5 36 -7 38 -49 l2 -44 -43 -6 c-23 -3 -76 -3 -117 0 -41 3 -85 6 -97 6
-20 1 -22 6 -21 45 2 34 6 43 18 39 8 -2 21 -1 29 4 15 10 140 13 191 5z m0
-170 c34 -5 36 -7 37 -44 2 -38 1 -39 -40 -45 -23 -3 -76 -3 -117 0 -41 3 -85
6 -97 6 -19 1 -22 7 -20 40 1 30 5 38 17 34 8 -2 21 -1 29 4 15 10 140 13 191
5z"/>
</g>
</svg>
