<?xml version="1.0" standalone="no"?>
<!DOCTYPE svg PUBLIC "-//W3C//DTD SVG 20010904//EN"
 "http://www.w3.org/TR/2001/REC-SVG-20010904/DTD/svg10.dtd">
<svg version="1.0" xmlns="http://www.w3.org/2000/svg"
 width="101.000000pt" height="101.000000pt" viewBox="0 0 101.000000 101.000000"
 preserveAspectRatio="xMidYMid meet">
<metadata>
Created by potrace 1.16, written by Peter Selinger 2001-2019
</metadata>
<g transform="translate(0.000000,101.000000) scale(0.100000,-0.100000)"
fill="#000000" stroke="none">
<path d="M535 998 c-22 -6 -41 -12 -43 -13 -2 -2 6 -20 17 -41 24 -45 19 -58
-23 -49 -46 9 -226 16 -263 10 -24 -4 -34 -12 -39 -31 -3 -13 -1 -30 5 -37 13
-17 13 -168 -1 -184 -5 -7 -8 -31 -6 -54 3 -39 1 -43 -27 -54 -16 -7 -48 -16
-70 -19 -51 -8 -58 -16 -50 -58 12 -63 16 -64 90 -25 l67 36 -7 -27 c-4 -15
-9 -34 -10 -42 -6 -50 -21 -95 -57 -168 -22 -46 -39 -84 -37 -85 2 -1 21 -17
41 -36 l38 -35 29 65 c31 68 69 184 78 234 2 17 7 44 10 60 3 17 5 54 4 83 -1
65 0 106 2 207 l2 80 112 -3 c70 -2 114 1 118 8 8 13 52 13 60 0 4 -7 62 -11
148 -11 78 0 159 0 180 -1 44 -2 58 13 55 57 l-3 30 -99 -3 c-54 -1 -104 2
-110 7 -7 6 -34 9 -60 8 l-48 -2 -20 53 c-21 55 -21 56 -83 40z"/>
<path d="M66 794 c-9 -8 -13 -21 -9 -27 4 -7 8 -28 8 -47 4 -117 4 -118 31
-124 52 -13 59 -3 57 76 -1 40 -3 83 -3 95 -1 39 -55 56 -84 27z"/>
<path d="M890 740 c-9 -6 -59 -8 -131 -4 -82 5 -118 3 -123 -5 -9 -13 -152
-15 -161 -2 -3 5 -41 9 -85 9 l-80 0 -6 -33 c-3 -19 -1 -43 6 -55 13 -24 11
-24 205 -4 l60 6 -1 -47 -1 -48 -59 2 c-33 1 -80 4 -107 7 -31 4 -53 2 -62 -6
-17 -14 -21 -90 -5 -90 15 0 12 -67 -2 -73 -10 -4 -10 -8 1 -15 11 -8 13 -34
7 -140 -7 -123 -6 -130 12 -134 11 -3 31 -3 45 -1 23 5 25 9 26 57 0 68 2 96
8 96 3 0 19 -10 35 -22 l31 -22 24 30 c13 16 37 53 54 82 17 29 35 50 40 47 5
-3 29 -35 55 -70 25 -36 49 -65 52 -65 4 0 23 13 42 29 l34 29 -82 84 c-81 83
-97 106 -66 94 8 -3 24 -1 35 4 11 6 40 8 68 4 41 -5 49 -10 50 -28 0 -11 3
-61 6 -111 7 -118 -4 -141 -63 -139 -47 2 -47 2 -30 -60 l12 -44 43 4 c49 4
102 28 105 47 1 6 3 80 4 162 0 83 4 171 8 197 6 44 5 48 -18 54 -13 3 -33 1
-45 -5 -12 -7 -56 -10 -101 -9 -76 3 -80 4 -74 23 4 11 7 31 7 45 l0 25 135 2
c97 2 138 6 144 15 15 24 9 67 -11 78 -24 12 -22 12 -41 0z m-341 -259 c12 -8
12 -14 1 -43 -17 -42 -61 -106 -93 -136 l-25 -24 -5 29 c-3 15 -4 51 -1 78 2
28 4 60 5 73 1 16 6 21 18 18 9 -3 23 -1 31 4 19 12 51 12 69 1z"/>
</g>
</svg>
