<?xml version="1.0" standalone="no"?>
<!DOCTYPE svg PUBLIC "-//W3C//DTD SVG 20010904//EN"
 "http://www.w3.org/TR/2001/REC-SVG-20010904/DTD/svg10.dtd">
<svg version="1.0" xmlns="http://www.w3.org/2000/svg"
 width="101.000000pt" height="101.000000pt" viewBox="0 0 101.000000 101.000000"
 preserveAspectRatio="xMidYMid meet">
<metadata>
Created by potrace 1.16, written by Peter Selinger 2001-2019
</metadata>
<g transform="translate(0.000000,101.000000) scale(0.100000,-0.100000)"
fill="#000000" stroke="none">
<path d="M498 1003 c-15 -4 -15 -8 4 -49 11 -25 18 -48 15 -50 -10 -10 -238
-15 -250 -6 -31 26 -100 1 -82 -28 3 -5 7 -71 10 -148 l4 -140 -67 -28 c-36
-16 -72 -28 -79 -26 -27 6 -26 -15 3 -107 3 -10 10 -10 32 5 15 10 47 29 71
43 41 23 44 23 37 5 -4 -10 -9 -39 -12 -64 -6 -61 -54 -159 -104 -214 l-41
-45 33 -17 c18 -9 40 -23 50 -31 14 -13 19 -10 48 32 46 67 93 180 106 255 9
58 16 109 16 134 l1 30 19 -24 c16 -20 22 -21 44 -11 33 15 34 14 34 -9 0 -19
5 -20 83 -15 l83 5 -1 -45 c0 -43 -1 -44 -37 -50 -21 -4 -43 -3 -49 1 -7 4
-31 9 -54 10 -35 3 -44 1 -48 -15 -14 -53 22 -93 64 -70 26 14 131 0 125 -17
-3 -7 0 -26 7 -43 10 -26 9 -34 -6 -48 -14 -14 -22 -15 -47 -6 -16 6 -57 9
-92 8 -34 -2 -69 0 -78 5 -23 12 -57 2 -63 -19 -2 -9 -2 -31 1 -49 4 -30 5
-31 46 -26 22 4 84 6 136 6 52 -1 124 -1 160 -1 169 1 248 -1 276 -6 29 -5 32
-3 36 27 9 55 0 69 -37 62 -18 -3 -42 -1 -53 5 -16 9 -31 7 -62 -5 -27 -11
-49 -14 -67 -8 -16 4 -37 8 -48 8 -16 1 -19 7 -17 31 1 17 3 40 3 51 1 25 8
26 120 24 75 -1 77 -1 82 25 2 15 2 36 -1 47 -4 18 -10 19 -46 12 -37 -7 -70
-8 -131 -3 -16 1 -20 9 -20 39 l0 38 72 7 c40 4 77 3 84 0 15 -10 30 15 23 38
-5 17 -3 17 35 -3 23 -11 41 -16 41 -12 0 5 12 26 26 47 28 41 24 50 -26 61
-87 18 -256 136 -244 169 8 19 190 32 216 16 41 -26 78 16 64 73 -5 22 -10 24
-86 25 -49 1 -80 -2 -80 -9 0 -5 -16 -10 -35 -10 -19 0 -35 5 -35 10 0 6 -20
10 -44 10 -48 0 -59 14 -65 88 -1 12 -65 15 -103 5z m52 -195 c0 -18 -138
-147 -190 -176 -30 -18 -59 -32 -63 -32 -4 0 -7 48 -5 108 l3 107 128 1 c70 0
127 -3 127 -8z m164 -184 l51 -34 -45 -1 c-25 0 -92 -1 -150 -2 l-105 -2 69
71 70 70 30 -34 c16 -19 53 -49 80 -68z"/>
<path d="M92 807 c-31 -10 -33 -12 -27 -46 3 -20 7 -49 8 -64 2 -16 9 -32 16
-37 8 -4 11 -16 7 -28 -5 -14 -1 -21 15 -25 43 -11 93 33 73 65 -4 7 -9 21
-11 33 -8 55 -24 103 -36 108 -7 2 -27 -1 -45 -6z"/>
</g>
</svg>
