<?xml version="1.0" standalone="no"?>
<!DOCTYPE svg PUBLIC "-//W3C//DTD SVG 20010904//EN"
 "http://www.w3.org/TR/2001/REC-SVG-20010904/DTD/svg10.dtd">
<svg version="1.0" xmlns="http://www.w3.org/2000/svg"
 width="101.000000pt" height="102.000000pt" viewBox="0 0 101.000000 102.000000"
 preserveAspectRatio="xMidYMid meet">
<metadata>
Created by potrace 1.16, written by Peter Selinger 2001-2019
</metadata>
<g transform="translate(0.000000,102.000000) scale(0.100000,-0.100000)"
fill="#000000" stroke="none">
<path d="M540 1006 c-47 -13 -46 -11 -25 -51 11 -19 16 -37 12 -41 -11 -11
-207 -16 -220 -6 -7 5 -31 10 -54 10 -47 1 -78 -21 -68 -46 3 -9 7 -75 8 -146
l2 -131 -70 -36 c-38 -19 -77 -38 -85 -41 -12 -4 -12 -11 4 -51 10 -26 22 -47
28 -47 5 0 36 21 69 46 l60 46 -6 -29 c-3 -15 -8 -44 -10 -63 -12 -100 -40
-171 -87 -225 -22 -25 -39 -47 -37 -49 7 -5 101 -56 104 -56 9 0 76 155 90
205 26 98 28 123 27 270 0 84 3 144 10 152 5 7 8 34 6 60 l-3 48 104 -3 c58
-1 109 2 116 8 17 14 147 11 168 -5 18 -13 17 -15 -3 -57 -50 -98 -94 -115
-123 -45 -9 23 -25 52 -35 65 -18 23 -19 23 -60 7 -23 -10 -42 -20 -42 -23 0
-3 16 -25 37 -50 27 -33 32 -43 17 -39 -10 3 -45 9 -76 13 -56 6 -58 6 -68
-22 -6 -16 -9 -38 -5 -51 5 -22 7 -23 119 -18 l113 5 -1 -42 c-1 -34 -5 -44
-21 -50 -32 -10 -85 -9 -85 2 0 6 -22 10 -49 10 -51 0 -61 -9 -61 -53 0 -31
13 -48 36 -48 37 1 81 8 93 15 6 4 29 5 50 1 31 -5 39 -11 39 -28 1 -12 2 -33
4 -46 2 -20 -3 -26 -31 -33 -19 -5 -46 -6 -60 -2 -14 4 -48 9 -76 11 -114 7
-109 9 -108 -43 1 -42 5 -46 35 -45 98 4 135 8 146 15 21 13 94 -4 88 -20 -3
-8 0 -25 6 -39 8 -19 7 -31 -6 -59 -27 -56 -7 -77 65 -68 l36 4 -9 51 c-6 33
-6 58 1 74 6 12 8 29 5 37 -4 9 2 14 18 15 13 1 49 3 81 5 34 3 75 -1 95 -8
54 -19 99 -10 105 21 8 41 -2 60 -31 61 -15 1 -36 2 -47 3 -11 0 -49 -4 -83
-10 -35 -7 -74 -8 -85 -4 -12 4 -31 8 -42 8 -15 0 -19 6 -17 25 2 14 3 35 4
46 0 24 -1 23 118 27 41 1 85 -2 97 -6 19 -7 23 -4 29 17 3 14 3 37 0 50 -5
22 -8 23 -51 13 -33 -8 -55 -7 -84 3 -22 7 -55 10 -73 7 l-33 -5 3 42 4 41
116 0 c67 0 120 4 124 10 4 6 8 22 8 38 0 35 -28 47 -118 47 l-67 1 40 35 c39
35 39 36 20 50 -11 8 -30 17 -42 21 -13 3 -23 8 -23 12 0 8 109 5 117 -3 4 -3
26 -6 49 -6 55 0 76 20 72 69 -3 32 -6 36 -28 33 -119 -11 -223 -12 -235 -2
-8 7 -23 10 -34 7 -15 -3 -21 6 -35 49 -18 57 -21 58 -86 40z"/>
<path d="M79 839 c-21 -8 -25 -15 -22 -37 10 -70 13 -99 13 -124 0 -32 24 -58
53 -58 36 0 43 12 41 75 -4 100 -9 127 -29 141 -21 16 -21 16 -56 3z"/>
</g>
</svg>
