<?xml version="1.0" standalone="no"?>
<!DOCTYPE svg PUBLIC "-//W3C//DTD SVG 20010904//EN"
 "http://www.w3.org/TR/2001/REC-SVG-20010904/DTD/svg10.dtd">
<svg version="1.0" xmlns="http://www.w3.org/2000/svg"
 width="101.000000pt" height="102.000000pt" viewBox="0 0 101.000000 102.000000"
 preserveAspectRatio="xMidYMid meet">
<metadata>
Created by potrace 1.16, written by Peter Selinger 2001-2019
</metadata>
<g transform="translate(0.000000,102.000000) scale(0.100000,-0.100000)"
fill="#000000" stroke="none">
<path d="M513 1009 c-27 -10 -27 -7 -8 -52 8 -20 15 -40 15 -44 0 -9 -289 -7
-298 1 -2 3 -13 1 -23 -5 -14 -7 -19 -21 -19 -54 0 -25 5 -45 10 -45 6 0 10
-16 10 -35 0 -19 -4 -35 -10 -35 -5 0 -10 -24 -10 -52 0 -35 -3 -48 -9 -39 -5
8 -7 20 -4 28 3 7 2 21 -2 31 -4 9 -9 26 -10 37 -2 11 -6 29 -8 40 -3 11 -6
23 -6 27 -1 5 -27 5 -79 -1 -15 -1 -9 -74 7 -79 6 -2 8 -21 4 -47 -3 -24 -3
-55 1 -69 6 -23 10 -26 43 -22 21 3 43 12 49 21 10 14 12 13 17 -7 9 -31 -5
-43 -86 -74 -40 -15 -73 -29 -75 -29 -4 -3 39 -95 45 -95 3 0 30 16 59 35 29
19 55 35 58 35 4 0 4 -12 1 -27 -3 -16 -7 -41 -10 -58 -10 -52 -61 -148 -104
-197 -40 -45 -41 -47 -19 -54 13 -3 36 -16 52 -27 l29 -20 18 24 c47 61 105
194 115 264 21 135 29 295 16 295 -7 0 -12 11 -12 25 0 14 5 25 10 25 6 0 10
18 10 40 l0 40 48 0 c26 0 82 2 125 4 51 2 77 -1 78 -8 0 -6 1 -31 2 -56 l2
-46 -70 4 c-164 10 -174 8 -175 -45 0 -41 28 -56 89 -49 31 4 58 11 59 16 4
11 45 13 78 4 14 -4 22 -14 22 -27 1 -12 2 -33 4 -46 3 -22 -2 -26 -37 -33
-22 -5 -51 -6 -65 -2 -47 14 -109 19 -118 9 -7 -7 -6 -74 1 -82 6 -6 10 -5
144 2 63 4 100 2 115 -6 23 -12 22 -13 -11 -21 -24 -7 -32 -13 -28 -26 5 -17
49 -123 54 -131 5 -8 83 20 83 30 0 5 -14 37 -31 70 -17 34 -27 64 -24 67 9 9
64 14 156 13 74 0 77 1 82 26 2 14 2 34 -1 45 -4 16 -10 18 -31 12 -25 -8
-115 -9 -176 -2 -25 3 -30 7 -27 28 2 14 3 34 4 45 0 19 7 20 107 18 169 -4
175 -3 183 10 11 16 1 69 -15 79 -14 9 -91 11 -99 2 -3 -3 -44 -6 -90 -7 l-84
-2 4 30 c7 62 12 75 32 75 10 0 22 5 26 11 6 11 119 7 201 -7 25 -5 32 -2 38
15 3 12 4 34 0 49 l-6 27 -158 0 c-88 0 -157 2 -155 4 2 3 -3 15 -11 28 -9 13
-15 29 -14 36 5 37 -2 45 -33 45 -18 0 -43 -4 -55 -9z"/>
<path d="M778 388 l-36 -21 48 -58 c27 -32 56 -72 66 -88 10 -17 23 -31 29
-31 13 0 75 38 75 46 0 8 -102 134 -127 156 -17 16 -21 15 -55 -4z"/>
<path d="M315 381 c-3 -12 -8 -32 -11 -46 -7 -39 -44 -134 -55 -140 -19 -12
-8 -23 35 -34 25 -6 47 -11 50 -11 4 0 76 213 76 224 0 2 -12 7 -27 10 -16 4
-36 9 -45 12 -10 3 -19 -2 -23 -15z"/>
<path d="M426 358 c4 -24 7 -83 8 -133 l1 -90 37 -18 c28 -14 42 -16 57 -8 11
6 59 9 111 7 79 -3 94 -1 117 17 41 33 70 117 39 117 -8 0 -29 12 -46 26 -17
15 -33 24 -36 21 -5 -4 -12 -43 -13 -74 -2 -21 -68 -46 -98 -37 -16 4 -38 8
-50 9 -32 1 -54 34 -48 70 3 17 7 41 9 55 2 14 7 32 10 41 9 22 -5 30 -60 36
l-44 4 6 -43z"/>
</g>
</svg>
