<?xml version="1.0" standalone="no"?>
<!DOCTYPE svg PUBLIC "-//W3C//DTD SVG 20010904//EN"
 "http://www.w3.org/TR/2001/REC-SVG-20010904/DTD/svg10.dtd">
<svg version="1.0" xmlns="http://www.w3.org/2000/svg"
 width="101.000000pt" height="101.000000pt" viewBox="0 0 101.000000 101.000000"
 preserveAspectRatio="xMidYMid meet">
<metadata>
Created by potrace 1.16, written by Peter Selinger 2001-2019
</metadata>
<g transform="translate(0.000000,101.000000) scale(0.100000,-0.100000)"
fill="#000000" stroke="none">
<path d="M538 997 c-30 -11 -30 -10 -12 -46 9 -18 14 -34 11 -37 -2 -2 -34 -7
-71 -11 -46 -4 -66 -3 -66 6 0 6 -17 11 -40 11 -22 0 -40 -5 -40 -11 0 -7 -21
-10 -60 -7 -35 2 -60 -1 -61 -7 -3 -41 4 -121 12 -123 13 -5 11 -72 -2 -72 -7
0 -9 -26 -7 -75 l3 -75 -50 -20 c-27 -11 -65 -23 -83 -26 -18 -4 -35 -10 -38
-15 -7 -12 17 -89 29 -89 6 0 41 18 78 39 l68 39 -5 -36 c-12 -93 -51 -185
-105 -247 -18 -20 -30 -37 -28 -38 35 -24 90 -57 93 -57 11 0 59 93 88 171 32
88 44 166 41 262 -3 65 -3 99 0 212 l2 80 112 -3 c70 -2 114 1 118 8 8 13 52
13 60 0 4 -7 70 -9 180 -8 173 3 174 3 180 26 16 62 -9 71 -192 69 l-111 -2
-20 47 c-21 49 -33 54 -84 35z"/>
<path d="M77 803 c-15 -4 -17 -11 -12 -41 4 -21 6 -46 6 -57 0 -11 5 -37 11
-57 11 -38 40 -54 72 -42 19 7 31 47 21 71 -4 10 -9 27 -10 38 -10 64 -14 78
-26 86 -15 9 -32 10 -62 2z"/>
<path d="M354 782 c-18 -12 -26 -50 -14 -72 11 -21 70 -29 70 -10 0 6 23 9 55
8 l54 -2 -34 -20 c-42 -24 -44 -33 -9 -46 14 -6 36 -17 47 -26 20 -14 14 -15
-80 -8 l-101 6 0 -255 c1 -282 -2 -269 66 -259 l32 4 -1 67 c-1 101 1 113 18
107 8 -3 24 -1 35 5 11 6 35 8 54 5 31 -6 33 -9 28 -39 -17 -118 -6 -142 60
-130 23 5 25 9 25 57 0 96 2 108 18 102 8 -3 23 -1 34 5 12 6 37 8 58 4 34 -6
38 -9 38 -38 0 -44 -12 -56 -53 -51 -31 4 -46 -8 -25 -20 5 -3 12 -22 15 -41
7 -36 15 -40 71 -36 41 4 64 18 75 46 11 28 23 397 15 434 -6 26 -6 26 -105
26 -55 0 -100 1 -100 2 0 8 142 84 168 89 22 5 34 14 38 29 14 55 10 57 -138
61 -75 2 -140 0 -143 -5 -7 -13 -153 -13 -160 -1 -7 12 -95 13 -111 2z m376
-76 c0 -2 -24 -19 -53 -38 l-53 -35 -25 21 c-13 11 -35 28 -47 36 -21 14 -15
15 78 17 55 1 100 1 100 -1z m-158 -208 c4 -24 1 -28 -28 -34 -17 -3 -41 -1
-52 5 -11 6 -27 9 -34 6 -9 -4 -13 4 -13 22 0 28 1 28 62 28 59 0 62 -1 65
-27z m234 2 c-1 -25 -5 -30 -38 -35 -20 -4 -46 -2 -57 4 -11 6 -26 8 -34 6 -9
-4 -13 1 -13 17 1 21 7 24 61 29 33 3 65 6 71 7 6 1 11 -11 10 -28z m-250 -86
c15 -4 20 -14 21 -39 1 -31 -2 -35 -32 -41 -18 -3 -42 -1 -53 5 -11 6 -27 8
-35 5 -12 -4 -15 3 -14 30 1 28 5 35 16 31 9 -2 23 0 31 5 17 11 36 12 66 4z
m221 0 c25 -5 29 -10 30 -39 1 -31 -2 -34 -37 -40 -22 -4 -47 -2 -59 4 -11 6
-26 8 -34 5 -12 -4 -15 3 -14 30 1 28 5 35 16 31 9 -2 23 0 31 5 18 11 28 12
67 4z"/>
</g>
</svg>
