<?xml version="1.0" standalone="no"?>
<!DOCTYPE svg PUBLIC "-//W3C//DTD SVG 20010904//EN"
 "http://www.w3.org/TR/2001/REC-SVG-20010904/DTD/svg10.dtd">
<svg version="1.0" xmlns="http://www.w3.org/2000/svg"
 width="101.000000pt" height="101.000000pt" viewBox="0 0 101.000000 101.000000"
 preserveAspectRatio="xMidYMid meet">
<metadata>
Created by potrace 1.16, written by Peter Selinger 2001-2019
</metadata>
<g transform="translate(0.000000,101.000000) scale(0.100000,-0.100000)"
fill="#000000" stroke="none">
<path d="M523 1004 c-9 -4 -8 -15 3 -46 8 -22 14 -42 14 -43 0 -8 -193 -15
-203 -7 -7 5 -44 10 -84 10 l-72 1 3 -102 c2 -56 5 -130 8 -164 l5 -62 -61
-24 c-34 -13 -73 -27 -88 -31 l-27 -6 16 -48 c9 -26 17 -48 18 -50 2 -2 32 13
68 33 l66 36 -5 -33 c-2 -18 -7 -50 -10 -71 -8 -58 -46 -136 -96 -198 l-46
-56 55 -23 c29 -12 56 -21 57 -19 15 16 80 147 97 195 29 82 33 110 44 282 6
82 5 112 -3 112 -7 0 -12 11 -12 25 0 14 5 25 10 25 6 0 10 19 10 43 l0 42 83
0 83 0 -1 -37 0 -38 -76 6 -76 7 -7 -28 c-4 -14 -4 -35 -1 -45 7 -22 42 -32
65 -20 9 5 35 8 57 7 36 -1 40 -3 40 -29 0 -37 6 -42 49 -41 43 1 47 5 47 41
0 26 2 27 58 27 45 0 58 -3 57 -15 -3 -49 14 -63 67 -52 24 4 26 8 21 36 l-6
31 78 -1 c42 0 82 -2 87 -3 32 -10 51 18 40 61 -6 22 -10 23 -98 23 l-92 0 0
30 c0 27 4 31 40 37 22 3 64 7 92 7 47 1 53 4 59 25 10 41 1 61 -26 58 -117
-11 -223 -12 -235 -2 -8 7 -24 10 -34 7 -16 -4 -21 3 -31 44 l-12 49 -41 -1
c-23 0 -47 -3 -54 -5z m143 -212 l2 -37 -57 0 -57 0 6 30 c5 27 10 31 55 36
28 3 50 7 50 7 0 1 1 -15 1 -36z"/>
<path d="M75 837 c-16 -5 -31 -10 -32 -11 -1 -1 4 -25 11 -54 8 -28 12 -61 9
-72 -3 -11 0 -34 7 -50 11 -26 16 -29 46 -26 18 3 37 7 41 9 12 8 15 65 4 72
-6 3 -8 12 -5 20 3 8 2 20 -2 27 -5 7 -9 18 -9 23 -2 26 -18 64 -28 68 -7 2
-25 0 -42 -6z"/>
<path d="M329 603 c-23 -6 -30 -37 -16 -73 9 -24 9 -35 -1 -51 -8 -12 -12 -23
-10 -25 6 -5 37 -8 72 -6 27 2 28 4 21 38 -5 31 -4 36 10 30 9 -3 25 -1 36 5
11 6 37 8 58 4 35 -6 37 -8 39 -50 1 -43 1 -43 -38 -50 -22 -4 -45 -3 -51 1
-7 4 -27 8 -45 10 -36 2 -46 -14 -37 -60 5 -25 19 -32 53 -27 67 9 100 10 100
3 0 -4 -13 -28 -28 -53 -31 -49 -105 -95 -163 -102 -18 -3 -46 -8 -61 -12
l-27 -7 32 -42 c17 -22 33 -43 34 -45 7 -11 145 50 193 85 52 38 94 100 115
168 3 11 11 16 21 12 8 -3 25 -1 36 5 11 6 35 8 53 5 32 -6 33 -9 29 -44 -2
-20 -6 -46 -8 -57 -2 -11 -5 -25 -5 -32 -2 -30 -32 -43 -87 -38 l-54 5 20 -38
c11 -20 20 -45 20 -55 0 -15 7 -17 48 -13 56 5 93 18 115 41 16 15 38 78 43
120 1 11 5 36 8 55 3 19 7 57 10 84 l6 48 -28 -8 c-15 -4 -58 -7 -97 -6 -118
2 -114 1 -108 31 2 14 5 33 6 42 1 9 10 17 22 18 11 1 45 3 75 6 30 2 70 2 87
-1 31 -5 32 -7 27 -38 -5 -38 9 -47 62 -39 l30 5 0 72 c0 80 6 73 -71 76 -11
0 -72 -4 -135 -9 -64 -6 -147 -9 -185 -6 -39 3 -95 6 -125 8 -30 2 -62 6 -70
9 -8 3 -22 4 -31 1z"/>
</g>
</svg>
