<?xml version="1.0" standalone="no"?>
<!DOCTYPE svg PUBLIC "-//W3C//DTD SVG 20010904//EN"
 "http://www.w3.org/TR/2001/REC-SVG-20010904/DTD/svg10.dtd">
<svg version="1.0" xmlns="http://www.w3.org/2000/svg"
 width="101.000000pt" height="102.000000pt" viewBox="0 0 101.000000 102.000000"
 preserveAspectRatio="xMidYMid meet">
<metadata>
Created by potrace 1.16, written by Peter Selinger 2001-2019
</metadata>
<g transform="translate(0.000000,102.000000) scale(0.100000,-0.100000)"
fill="#000000" stroke="none">
<path d="M507 1012 c-10 -2 -16 -9 -14 -15 3 -7 12 -28 20 -47 l15 -35 -44 4
c-27 2 -44 -1 -44 -8 0 -6 -16 -11 -35 -11 -19 0 -35 4 -35 9 0 10 -140 22
-170 14 -24 -6 -37 -47 -22 -66 14 -16 14 -174 1 -183 -14 -8 -16 -5 -24 36
-20 110 -21 112 -69 106 -22 -3 -43 -5 -45 -5 -2 -1 0 -9 4 -18 4 -10 9 -40
12 -68 3 -27 10 -58 15 -68 5 -9 7 -21 4 -25 -8 -13 10 -33 30 -33 10 -1 29 2
40 6 16 5 23 2 27 -15 5 -19 -3 -26 -58 -51 -36 -16 -69 -29 -74 -29 -20 0
-21 -21 -6 -74 l16 -55 57 44 c31 25 60 45 65 45 4 0 5 -12 2 -27 -3 -16 -8
-44 -11 -63 -7 -52 -56 -150 -98 -194 -37 -39 -44 -56 -25 -56 5 0 26 -11 46
-25 l37 -24 28 42 c64 94 108 207 115 292 1 22 4 54 6 70 3 17 5 53 7 80 2 48
2 49 12 20 26 -79 33 -244 14 -309 -11 -35 -12 -55 -5 -68 6 -11 8 -37 4 -57
-7 -43 5 -52 63 -43 27 4 31 8 26 26 -5 21 -7 108 -4 153 2 22 3 23 31 6 16
-10 29 -21 29 -25 0 -4 6 -8 13 -8 13 0 44 43 75 105 18 36 20 37 21 15 1 -14
2 -41 4 -60 1 -19 -2 -56 -6 -81 -9 -52 1 -60 62 -51 l33 5 -8 46 c-4 25 -7
62 -6 81 1 19 2 46 3 60 1 24 1 24 30 -10 16 -19 31 -43 34 -53 8 -22 20 -22
60 3 l32 20 7 -31 c16 -84 0 -122 -51 -117 -50 4 -55 0 -38 -32 9 -17 13 -35
10 -39 -3 -5 -2 -16 1 -25 13 -33 142 2 165 45 7 14 11 62 11 123 -1 56 -2
139 -2 186 0 47 1 140 3 206 l4 121 -68 1 c-38 0 -71 -4 -74 -9 -8 -12 -52
-12 -60 1 -3 6 -47 9 -100 8 l-94 -1 -6 -28 c-7 -32 9 -69 30 -69 11 0 15 -11
15 -39 0 -22 3 -46 6 -55 6 -15 -3 -16 -86 -5 -46 6 -65 -16 -53 -61 5 -18 12
-20 59 -16 30 2 54 2 54 0 0 -18 -50 -95 -88 -136 -33 -35 -48 -45 -53 -36
-11 17 -10 146 1 153 4 3 8 31 8 62 1 32 4 68 7 80 6 18 2 23 -29 31 -43 12
-73 6 -79 -17 -5 -16 -6 3 -10 124 l-2 60 160 2 c252 4 324 4 412 -1 91 -5
101 3 88 63 -7 31 -40 47 -76 36 -11 -4 -69 -7 -130 -8 l-110 -2 -15 52 c-15
51 -16 52 -52 51 -20 -1 -45 -3 -55 -6z m300 -404 c1 -46 3 -108 4 -138 1 -30
-2 -69 -6 -87 l-7 -32 -37 47 c-55 69 -69 78 -92 64 -26 -16 -26 -16 -26 18 0
22 4 29 14 26 7 -3 25 0 39 6 19 9 30 9 45 0 25 -16 26 -15 32 8 11 41 -2 56
-46 57 -84 3 -82 3 -81 37 4 72 9 76 94 76 l65 0 2 -82z"/>
<path d="M393 788 c-18 -6 -33 -14 -33 -19 0 -6 47 -106 54 -116 4 -5 76 21
76 27 0 15 -52 120 -58 119 -4 -1 -22 -6 -39 -11z"/>
</g>
</svg>
