<?xml version="1.0" standalone="no"?>
<!DOCTYPE svg PUBLIC "-//W3C//DTD SVG 20010904//EN"
 "http://www.w3.org/TR/2001/REC-SVG-20010904/DTD/svg10.dtd">
<svg version="1.0" xmlns="http://www.w3.org/2000/svg"
 width="101.000000pt" height="101.000000pt" viewBox="0 0 101.000000 101.000000"
 preserveAspectRatio="xMidYMid meet">
<metadata>
Created by potrace 1.16, written by Peter Selinger 2001-2019
</metadata>
<g transform="translate(0.000000,101.000000) scale(0.100000,-0.100000)"
fill="#000000" stroke="none">
<path d="M545 1003 c-33 -8 -37 -19 -21 -58 9 -21 16 -38 16 -39 0 0 -27 1
-60 2 -39 3 -60 0 -60 -7 0 -6 -16 -11 -35 -11 -19 0 -35 4 -35 9 0 9 -126 21
-147 14 -9 -4 -11 -51 -10 -176 l2 -171 -48 -18 c-26 -10 -62 -20 -79 -23 -18
-4 -34 -8 -36 -10 -7 -7 30 -95 40 -95 6 0 22 9 38 20 15 11 39 24 53 29 24 9
25 8 22 -22 -11 -113 -45 -194 -105 -255 l-40 -39 52 -27 c50 -26 53 -26 66
-9 30 40 73 136 93 210 26 92 29 113 36 216 2 42 8 77 11 77 4 0 24 -11 45
-24 l38 -23 5 -81 c5 -86 5 -86 -51 -72 -39 10 -57 -14 -48 -62 4 -21 9 -24
36 -20 57 7 215 7 223 -1 4 -4 -3 -19 -17 -33 -46 -50 -137 -96 -213 -108 -54
-9 -60 -15 -38 -40 11 -11 25 -31 31 -43 l12 -23 50 20 c79 29 156 80 209 136
l49 51 29 -47 c16 -26 50 -61 75 -78 44 -31 136 -72 160 -72 7 0 24 22 38 49
l26 50 -26 6 c-14 4 -40 9 -56 10 -48 5 -99 30 -144 70 -47 43 -50 52 -18 54
12 0 60 3 106 6 47 3 97 1 112 -4 24 -8 28 -7 32 16 10 55 -8 70 -76 65 -16
-2 -17 7 -11 98 7 102 5 108 -31 101 -5 -2 -37 -3 -72 -4 l-63 -2 66 66 66 66
-53 6 c-39 5 -59 3 -76 -8 -25 -17 -103 -20 -103 -5 0 6 -12 10 -27 10 l-28 1
28 15 c15 8 27 17 27 20 0 3 -15 11 -32 19 l-33 14 43 1 c23 0 51 5 61 12 15
9 38 9 103 -2 103 -16 178 -15 190 2 8 12 4 66 -6 75 -5 5 -77 6 -194 2 -56
-2 -102 -2 -103 1 -4 26 -10 52 -18 74 -11 26 -28 30 -76 19z m-64 -200 c-41
-58 -175 -172 -187 -160 -4 3 -3 44 1 91 l7 85 51 4 c29 2 74 4 100 5 l48 2
-20 -27z m169 -143 c-22 -41 -43 -48 -125 -45 -44 2 -86 4 -93 4 -7 1 2 13 18
29 29 25 37 27 120 27 75 0 87 -2 80 -15z m20 -110 c13 -7 27 -7 44 1 35 16
74 4 75 -23 9 -117 1 -133 -54 -123 -16 3 -40 6 -52 7 -18 0 -21 5 -18 29 2
16 9 37 14 48 17 31 13 39 -24 50 -66 18 -95 -9 -72 -69 10 -26 9 -33 -10 -52
-19 -18 -26 -20 -47 -10 -14 6 -32 9 -41 6 -12 -5 -14 6 -12 63 l2 70 41 -5
c23 -2 50 1 60 7 24 13 70 14 94 1z"/>
<path d="M73 823 c-10 -4 -11 -28 -7 -96 8 -126 19 -143 78 -115 20 9 23 14
15 25 -8 8 -9 36 -5 77 9 98 -15 131 -81 109z"/>
</g>
</svg>
