<?xml version="1.0" standalone="no"?>
<!DOCTYPE svg PUBLIC "-//W3C//DTD SVG 20010904//EN"
 "http://www.w3.org/TR/2001/REC-SVG-20010904/DTD/svg10.dtd">
<svg version="1.0" xmlns="http://www.w3.org/2000/svg"
 width="101.000000pt" height="101.000000pt" viewBox="0 0 101.000000 101.000000"
 preserveAspectRatio="xMidYMid meet">
<metadata>
Created by potrace 1.16, written by Peter Selinger 2001-2019
</metadata>
<g transform="translate(0.000000,101.000000) scale(0.100000,-0.100000)"
fill="#000000" stroke="none">
<path d="M510 968 c11 -24 20 -47 20 -53 0 -11 -217 -12 -268 0 -50 11 -72 -8
-72 -60 0 -25 5 -45 10 -45 6 0 10 -16 10 -35 0 -19 -5 -35 -11 -35 -7 0 -9
-26 -7 -75 l3 -74 -75 -36 c-42 -19 -81 -35 -88 -35 -18 0 -15 -17 14 -66 l26
-44 45 32 c24 18 47 36 49 40 10 16 21 7 18 -14 -2 -13 -6 -43 -9 -68 -8 -62
-57 -160 -105 -208 -22 -22 -40 -42 -40 -45 0 -2 12 -7 28 -10 15 -3 38 -16
51 -28 l24 -22 18 24 c74 97 150 335 135 427 -4 28 -2 31 12 23 9 -5 38 -27
64 -50 25 -23 50 -41 55 -41 11 0 68 58 62 63 -68 57 -122 97 -131 97 -7 0
-24 -12 -39 -26 l-27 -26 10 48 c8 35 7 49 -1 52 -14 5 -15 52 -1 52 6 0 10
18 10 40 l0 40 49 0 c28 0 53 4 56 10 8 12 153 11 161 -2 3 -5 16 -8 27 -7 12
0 36 1 52 0 23 -1 27 -4 15 -11 -12 -7 -15 -30 -13 -117 1 -59 5 -140 9 -179
3 -40 1 -88 -4 -108 -11 -40 -10 -41 58 -37 l35 3 -44 -45 c-50 -52 -155 -105
-222 -112 -24 -2 -61 -7 -81 -10 l-37 -5 30 87 c17 49 35 96 41 106 7 14 1 25
-28 53 -28 26 -40 31 -46 22 -7 -11 -9 -20 -8 -30 2 -14 -55 -161 -75 -194
-14 -23 -25 -46 -25 -51 0 -8 73 -63 83 -63 3 0 10 15 17 33 l11 32 20 -27
c11 -14 27 -36 37 -48 l17 -21 85 26 c155 49 281 138 331 236 11 22 27 43 35
46 9 3 14 13 11 23 -3 13 6 23 34 36 22 9 39 19 39 22 0 6 -31 59 -82 139
l-40 62 -36 -15 c-47 -19 -49 -21 -32 -47 36 -56 99 -171 96 -174 -2 -3 -20 3
-40 11 l-37 15 -21 -44 c-12 -25 -25 -45 -29 -45 -4 0 -5 43 -2 95 4 68 3 95
-6 95 -7 0 -11 25 -11 75 0 41 4 75 9 75 5 0 11 8 14 18 2 9 8 24 11 33 5 11
-1 19 -19 27 -14 7 -23 17 -20 22 8 13 52 13 60 1 3 -5 37 -9 75 -9 59 1 70 4
76 20 14 46 -19 100 -49 81 -7 -5 -67 -8 -134 -8 -113 0 -122 1 -129 20 -8 21
-11 40 -13 68 -1 14 -11 17 -61 17 l-59 0 19 -42z"/>
<path d="M74 832 c-6 -4 -10 -20 -8 -37 11 -111 15 -138 24 -155 6 -11 15 -20
21 -20 15 0 53 21 61 34 11 16 10 64 -2 71 -6 3 -7 17 -4 30 6 23 -10 64 -30
77 -6 4 -20 8 -31 8 -11 0 -25 -4 -31 -8z"/>
<path d="M364 759 c-28 -29 -28 -31 -10 -41 11 -6 40 -29 63 -51 l44 -41 32
33 32 32 -53 50 c-29 27 -59 49 -66 49 -7 0 -25 -14 -42 -31z"/>
<path d="M535 670 c-3 -5 -8 -26 -11 -47 -7 -59 -24 -114 -51 -166 -13 -27
-22 -51 -20 -54 3 -2 25 -6 49 -9 l45 -5 20 58 c17 50 44 137 48 153 0 3 6 15
13 27 12 21 10 24 -24 38 -42 17 -60 19 -69 5z"/>
</g>
</svg>
