<?xml version="1.0" standalone="no"?>
<!DOCTYPE svg PUBLIC "-//W3C//DTD SVG 20010904//EN"
 "http://www.w3.org/TR/2001/REC-SVG-20010904/DTD/svg10.dtd">
<svg version="1.0" xmlns="http://www.w3.org/2000/svg"
 width="101.000000pt" height="101.000000pt" viewBox="0 0 101.000000 101.000000"
 preserveAspectRatio="xMidYMid meet">
<metadata>
Created by potrace 1.16, written by Peter Selinger 2001-2019
</metadata>
<g transform="translate(0.000000,101.000000) scale(0.100000,-0.100000)"
fill="#000000" stroke="none">
<path d="M508 1003 c-22 -5 -22 -8 -4 -36 8 -12 17 -34 20 -48 l4 -27 -136 4
c-76 2 -148 6 -162 9 -14 3 -31 1 -39 -4 -19 -13 -25 -96 -13 -208 13 -125 9
-138 -41 -153 -22 -6 -49 -13 -59 -15 -46 -9 -59 -17 -54 -33 3 -9 8 -29 12
-44 3 -16 10 -28 15 -28 5 0 36 13 68 30 l59 29 -3 -42 c-8 -91 -37 -175 -81
-233 -19 -24 -34 -48 -34 -52 0 -4 15 -12 33 -18 17 -6 39 -14 48 -18 19 -8
56 56 89 154 26 77 31 103 36 190 2 36 4 75 5 87 1 19 4 21 27 12 15 -6 32
-15 39 -20 9 -8 18 1 35 33 16 31 30 43 46 44 15 0 21 -4 18 -13 -3 -7 -1 -24
6 -37 6 -14 8 -36 4 -50 -6 -25 -9 -26 -54 -21 -61 7 -83 7 -90 0 -7 -7 -6
-74 1 -81 6 -6 31 -6 85 0 41 5 43 4 37 -17 -30 -102 -88 -180 -160 -216 -25
-13 -45 -25 -43 -26 2 -2 21 -16 42 -30 34 -23 42 -25 62 -15 37 20 101 92
132 147 l28 52 38 -69 c20 -39 42 -70 48 -70 5 0 22 9 37 19 l27 20 1 -35 c1
-20 4 -38 7 -42 7 -7 75 -6 82 1 2 2 5 24 6 49 2 38 6 46 23 46 11 1 31 2 44
4 22 3 25 -1 28 -41 1 -24 5 -47 8 -50 8 -7 75 -4 83 4 4 4 8 136 9 293 l2
287 -107 2 c-59 2 -119 5 -135 9 -34 8 -57 -10 -58 -45 -1 -15 -3 -19 -6 -9
-3 13 -21 18 -78 23 -41 4 -81 5 -90 1 -19 -7 -19 4 1 32 15 22 14 23 -20 37
-19 8 -41 15 -48 15 -7 0 -25 -33 -41 -73 -15 -39 -36 -83 -47 -97 l-20 -25 0
43 c0 23 -4 42 -10 42 -5 0 -10 11 -10 25 0 14 5 25 10 25 6 0 10 18 10 40 l0
40 49 0 c28 0 53 4 56 10 7 11 153 12 160 0 7 -12 153 -12 160 0 8 13 52 13
60 -1 4 -6 22 -8 44 -4 20 3 50 1 65 -5 53 -20 87 14 72 73 -4 18 -13 23 -42
25 -20 2 -42 -2 -49 -8 -13 -11 -236 -10 -229 1 1 3 -4 28 -12 57 -15 50 -16
51 -52 50 -20 -1 -45 -3 -54 -5z m318 -405 c1 -29 5 -69 9 -89 4 -22 2 -45 -4
-57 -8 -15 -8 -27 0 -45 7 -16 8 -39 2 -68 -8 -39 -12 -44 -33 -41 -14 1 -34
3 -45 4 -11 1 -23 7 -27 12 -13 19 -9 164 5 170 10 5 10 7 0 12 -15 7 -18 74
-3 74 6 0 10 15 10 34 0 33 2 35 38 39 20 2 39 4 42 5 3 1 6 -22 6 -50z m-187
-68 c1 -18 -5 -26 -16 -27 -10 -1 -37 -4 -60 -6 -39 -5 -43 -4 -49 19 -4 14
-2 36 4 50 7 13 9 30 7 37 -4 9 8 13 42 15 28 1 50 7 53 14 4 13 18 -57 19
-102z m-11 -122 c7 -1 11 -7 8 -15 -3 -7 -1 -24 5 -37 7 -14 8 -38 2 -65 l-8
-43 -60 76 c-33 43 -61 81 -63 86 -3 7 50 6 116 -2z"/>
<path d="M65 804 c-9 -10 -13 -23 -9 -33 6 -17 9 -40 12 -113 3 -51 9 -63 39
-72 16 -5 28 -1 44 15 17 17 20 28 14 58 -4 20 -6 45 -6 56 1 28 -20 89 -33
97 -18 13 -44 9 -61 -8z"/>
</g>
</svg>
