<?xml version="1.0" standalone="no"?>
<!DOCTYPE svg PUBLIC "-//W3C//DTD SVG 20010904//EN"
 "http://www.w3.org/TR/2001/REC-SVG-20010904/DTD/svg10.dtd">
<svg version="1.0" xmlns="http://www.w3.org/2000/svg"
 width="101.000000pt" height="102.000000pt" viewBox="0 0 101.000000 102.000000"
 preserveAspectRatio="xMidYMid meet">
<metadata>
Created by potrace 1.16, written by Peter Selinger 2001-2019
</metadata>
<g transform="translate(0.000000,102.000000) scale(0.100000,-0.100000)"
fill="#000000" stroke="none">
<path d="M544 1009 c-3 -6 -15 -9 -25 -6 -15 4 -17 2 -9 -13 6 -10 14 -29 19
-42 l9 -23 -131 2 c-72 1 -146 4 -164 8 -39 7 -77 -10 -69 -31 3 -8 8 -88 10
-179 l4 -163 -46 -20 c-26 -11 -59 -23 -75 -27 -15 -4 -30 -11 -33 -16 -6 -10
16 -89 25 -89 3 0 30 14 60 30 30 17 56 30 57 30 2 0 1 -12 -1 -27 -15 -111
-46 -191 -99 -250 -10 -13 -18 -25 -15 -27 7 -6 88 -46 93 -46 16 0 100 209
113 280 19 111 28 300 15 300 -7 0 -12 11 -12 25 0 14 5 25 10 25 6 0 10 18
10 40 l0 40 49 0 c28 0 53 4 56 10 7 12 153 11 161 -1 3 -5 0 -9 -6 -9 -8 0
-9 -7 -5 -17 4 -10 9 -27 10 -38 3 -19 -2 -20 -115 -17 l-118 3 -6 -26 c-4
-15 -4 -35 -1 -46 7 -22 60 -34 110 -25 l36 7 -31 -62 c-18 -34 -54 -84 -81
-111 -28 -28 -49 -51 -47 -52 2 -1 23 -11 47 -21 38 -17 45 -17 55 -4 6 8 24
31 39 50 l28 34 34 -40 34 -40 33 32 32 33 -47 48 -47 48 23 22 c22 23 22 23
3 38 -18 13 -15 14 32 14 29 0 52 5 52 10 0 15 60 12 76 -5 13 -12 11 -21 -15
-73 -16 -33 -42 -73 -57 -91 -14 -17 -25 -33 -23 -35 9 -8 69 -36 76 -36 5 0
17 16 27 35 11 19 23 35 29 35 5 0 36 -23 69 -52 l59 -51 36 35 36 36 -82 54
c-80 54 -81 55 -61 73 27 24 25 30 -10 45 -26 11 -27 14 -15 27 12 11 30 13
84 7 64 -6 69 -5 75 14 4 11 4 31 1 44 -6 23 -8 23 -138 23 -111 0 -133 2
-134 15 -1 8 -4 25 -8 38 -7 20 -4 22 28 22 20 0 39 5 42 10 8 13 52 13 60 0
3 -5 42 -8 86 -7 87 2 97 10 84 66 -6 27 -9 29 -45 24 -25 -4 -46 -1 -55 7 -9
7 -25 10 -42 5 -15 -3 -60 -7 -99 -8 l-72 -2 -12 48 c-11 42 -15 47 -40 47
-16 0 -32 -5 -36 -11z"/>
<path d="M68 819 c-6 -4 -8 -25 -4 -55 3 -27 6 -60 6 -74 1 -68 25 -91 73 -69
22 10 25 17 26 70 0 32 -4 61 -9 64 -5 3 -7 12 -4 20 11 27 -15 55 -47 53 -16
-1 -35 -5 -41 -9z"/>
<path d="M568 433 c-13 -3 -16 -13 -13 -43 3 -37 2 -40 -28 -45 -32 -5 -120
-2 -208 9 -52 7 -60 -3 -51 -62 5 -38 13 -40 102 -26 124 20 187 13 189 -19 1
-12 2 -38 4 -57 1 -19 -2 -51 -6 -71 -8 -41 4 -50 60 -42 39 6 48 34 26 80
-12 27 -13 39 -5 58 6 14 9 31 6 39 -4 9 2 14 18 15 13 0 57 3 99 6 53 4 89 1
118 -10 52 -18 68 -12 74 28 8 55 -1 69 -37 60 -26 -7 -171 -8 -252 -2 -23 1
-25 22 -9 62 6 13 2 17 -18 17 -14 0 -31 2 -39 4 -7 2 -21 2 -30 -1z"/>
</g>
</svg>
