<?xml version="1.0" standalone="no"?>
<!DOCTYPE svg PUBLIC "-//W3C//DTD SVG 20010904//EN"
 "http://www.w3.org/TR/2001/REC-SVG-20010904/DTD/svg10.dtd">
<svg version="1.0" xmlns="http://www.w3.org/2000/svg"
 width="101.000000pt" height="101.000000pt" viewBox="0 0 101.000000 101.000000"
 preserveAspectRatio="xMidYMid meet">
<metadata>
Created by potrace 1.16, written by Peter Selinger 2001-2019
</metadata>
<g transform="translate(0.000000,101.000000) scale(0.100000,-0.100000)"
fill="#000000" stroke="none">
<path d="M518 998 c-24 -8 -26 -12 -17 -29 27 -51 23 -54 -62 -50 -53 2 -79 0
-79 -8 0 -6 -16 -11 -35 -11 -19 0 -35 5 -35 10 0 6 -25 10 -55 10 -50 0 -55
-2 -61 -25 -3 -14 -1 -31 5 -38 16 -20 12 -167 -5 -191 -10 -15 -14 -16 -15
-6 0 17 -8 75 -13 105 -2 11 -4 25 -5 31 -2 19 -29 24 -57 12 -24 -11 -25 -16
-20 -57 4 -26 6 -59 6 -76 -1 -64 7 -76 47 -71 20 3 39 10 43 17 4 6 9 -5 12
-25 4 -34 2 -36 -49 -61 -29 -13 -64 -27 -78 -31 -30 -7 -29 -4 -9 -54 18 -44
21 -46 49 -27 11 7 37 23 57 36 l37 22 -5 -33 c-2 -18 -7 -50 -10 -71 -9 -65
-45 -148 -82 -189 -19 -21 -33 -40 -31 -41 5 -3 70 -27 90 -34 24 -7 108 184
115 262 0 11 4 54 8 95 15 181 19 212 25 203 11 -17 42 -23 63 -12 11 6 35 8
53 5 27 -5 33 -11 31 -32 -1 -30 -35 -42 -71 -26 -47 22 -88 -15 -64 -59 5
-10 7 -51 5 -93 l-4 -74 50 4 50 5 -34 -47 c-26 -37 -90 -93 -147 -131 -6 -4
53 -52 65 -53 12 0 110 101 136 140 l16 25 1 -25 c1 -14 2 -41 3 -60 1 -19 -2
-56 -6 -81 -7 -42 -6 -47 13 -52 12 -3 30 -3 41 0 18 5 20 13 19 72 -1 127 3
134 47 74 16 -21 31 -42 35 -47 8 -9 79 30 79 43 0 4 -24 31 -54 60 -52 52
-54 53 -78 37 -24 -16 -25 -16 -25 13 l0 30 68 -4 67 -4 -4 75 c-2 41 0 83 5
93 6 10 8 27 5 38 -5 17 -14 21 -52 21 -81 1 -87 3 -88 27 -2 25 4 27 93 26
48 0 54 3 59 25 12 47 1 54 -79 51 l-74 -2 8 35 c5 22 4 37 -3 41 -28 18 136
25 334 15 80 -4 88 -3 93 15 4 11 4 32 0 47 l-5 27 -163 2 -162 2 -10 43 c-12
47 -31 55 -87 36z m-115 -177 c33 -1 37 -3 28 -19 -6 -11 -6 -24 0 -33 5 -7 9
-18 9 -24 0 -11 -95 -11 -123 0 -14 6 -20 2 -24 -14 -10 -38 -18 -22 -18 37
l0 57 45 -1 c25 -1 62 -3 83 -3z m35 -326 c1 -40 0 -42 -28 -42 -28 0 -29 2
-28 42 2 38 5 42 28 42 23 0 26 -4 28 -42z m130 0 c1 -40 0 -42 -28 -42 -28 0
-29 2 -28 42 2 38 5 42 28 42 23 0 26 -4 28 -42z"/>
<path d="M830 790 c-12 -8 -14 -30 -12 -122 6 -217 1 -453 -11 -460 -6 -3 -28
-5 -49 -3 -28 3 -38 0 -34 -8 3 -7 11 -31 18 -54 6 -23 19 -44 27 -46 9 -1 38
5 66 15 27 10 51 18 52 18 1 0 9 13 17 29 12 23 15 80 15 309 -1 154 2 285 5
290 18 29 -58 55 -94 32z"/>
<path d="M695 717 c-15 -12 -17 -22 -11 -63 4 -27 8 -58 9 -69 2 -11 6 -30 10
-42 4 -11 3 -50 -4 -85 -11 -62 -13 -137 -3 -147 10 -10 77 -3 84 9 4 7 1 33
-7 59 -17 56 -12 198 11 302 5 21 1 28 -20 37 -32 15 -46 15 -69 -1z"/>
</g>
</svg>
