<?xml version="1.0" standalone="no"?>
<!DOCTYPE svg PUBLIC "-//W3C//DTD SVG 20010904//EN"
 "http://www.w3.org/TR/2001/REC-SVG-20010904/DTD/svg10.dtd">
<svg version="1.0" xmlns="http://www.w3.org/2000/svg"
 width="101.000000pt" height="103.000000pt" viewBox="0 0 101.000000 103.000000"
 preserveAspectRatio="xMidYMid meet">
<metadata>
Created by potrace 1.16, written by Peter Selinger 2001-2019
</metadata>
<g transform="translate(0.000000,103.000000) scale(0.100000,-0.100000)"
fill="#000000" stroke="none">
<path d="M530 1018 c-45 -13 -44 -11 -26 -47 9 -16 16 -34 16 -38 0 -9 -145
-8 -253 2 -76 6 -113 -6 -102 -33 9 -22 9 -219 1 -211 -5 4 -14 46 -21 94 -7
48 -33 74 -58 58 -12 -8 -18 -9 -38 -12 -7 -1 -8 -12 -4 -32 11 -49 16 -83 15
-104 0 -11 2 -30 5 -43 5 -21 10 -23 52 -18 25 2 50 10 54 18 6 9 9 7 9 -9 0
-24 -52 -68 -125 -105 -22 -11 -42 -22 -43 -23 -2 -2 8 -24 23 -50 31 -52 24
-53 108 25 l38 35 -6 -30 c-3 -16 -8 -47 -11 -69 -12 -89 -53 -174 -114 -233
l-33 -32 28 -11 c15 -6 40 -19 55 -30 33 -24 34 -23 83 76 31 62 67 162 73
204 11 82 19 207 19 310 l0 125 48 -3 c26 -2 53 1 61 7 14 12 153 13 161 1 7
-12 153 -12 160 0 8 13 52 13 60 0 4 -6 34 -8 73 -6 37 2 77 5 89 5 25 1 37
28 28 64 -6 24 -9 25 -61 20 -36 -4 -59 -2 -69 7 -9 8 -25 10 -42 5 -16 -4
-57 -7 -92 -8 l-65 -1 -14 52 c-16 56 -20 58 -82 40z"/>
<path d="M297 793 c-9 -34 -7 -112 3 -118 13 -8 13 -152 0 -160 -13 -8 -13
-142 0 -150 13 -8 13 -92 0 -100 -5 -3 -9 -44 -9 -90 2 -92 5 -96 66 -88 40 6
47 26 27 69 -13 28 -14 40 -6 59 6 14 9 31 6 39 -6 16 7 18 114 16 68 -1 72 0
74 22 4 70 -9 83 -65 61 -31 -13 -46 -14 -69 -5 -16 6 -36 8 -43 6 -11 -4 -14
4 -12 34 1 32 5 40 22 41 55 5 103 4 133 -2 27 -6 32 -4 32 13 0 10 5 22 10
25 6 3 10 -3 10 -14 0 -12 5 -21 11 -21 6 0 9 -6 6 -12 -4 -14 48 -147 63
-162 6 -6 10 -14 10 -18 0 -10 -72 -46 -133 -67 l-48 -16 40 -39 39 -38 87 46
87 46 31 -24 c18 -13 50 -33 73 -44 l41 -21 31 45 c29 40 30 45 15 51 -49 16
-133 57 -130 62 37 68 82 195 91 259 3 22 1 23 -28 16 -36 -8 -135 -9 -186 0
-83 14 -96 11 -105 -16 -6 -18 -8 -20 -12 -7 -6 24 -52 30 -90 12 -24 -11 -36
-12 -51 -4 -12 6 -27 8 -35 5 -12 -4 -15 3 -14 29 1 39 0 39 114 37 l72 -1 -2
119 -2 119 -23 -8 c-32 -12 -162 -11 -162 1 0 6 -18 10 -39 10 -29 0 -41 -5
-44 -17z m180 -77 c0 0 3 -19 4 -41 4 -39 3 -40 -26 -37 -17 1 -39 3 -50 4
-17 0 -20 8 -20 43 l0 42 45 -5 c25 -2 46 -5 47 -6z m317 -296 c-1 -35 -41
-123 -53 -116 -5 4 -17 30 -27 59 -9 28 -19 58 -22 66 -4 9 1 12 14 7 10 -3
26 -1 34 4 27 18 55 7 54 -20z"/>
<path d="M610 785 c-14 -36 -4 -64 23 -70 12 -3 56 -4 97 -3 l76 3 -1 -36 0
-37 -58 -6 c-32 -3 -66 -2 -76 4 -40 21 -76 -12 -64 -59 6 -23 39 -34 64 -21
9 6 65 8 123 7 113 -3 124 1 107 46 -4 12 -4 56 0 97 5 41 5 78 1 82 -4 3 -69
10 -144 14 l-137 7 -11 -28z"/>
</g>
</svg>
