<?xml version="1.0" standalone="no"?>
<!DOCTYPE svg PUBLIC "-//W3C//DTD SVG 20010904//EN"
 "http://www.w3.org/TR/2001/REC-SVG-20010904/DTD/svg10.dtd">
<svg version="1.0" xmlns="http://www.w3.org/2000/svg"
 width="101.000000pt" height="101.000000pt" viewBox="0 0 101.000000 101.000000"
 preserveAspectRatio="xMidYMid meet">
<metadata>
Created by potrace 1.16, written by Peter Selinger 2001-2019
</metadata>
<g transform="translate(0.000000,101.000000) scale(0.100000,-0.100000)"
fill="#000000" stroke="none">
<path d="M540 998 c-45 -13 -44 -11 -26 -47 9 -16 16 -32 16 -34 0 -3 -75 -3
-167 -1 l-168 3 -3 -79 c-2 -53 0 -80 7 -80 6 0 11 -16 11 -35 0 -19 -5 -35
-11 -35 -7 0 -10 -21 -7 -60 l3 -61 -83 -31 c-54 -21 -81 -36 -78 -44 3 -7 10
-31 16 -54 12 -43 12 -43 65 -4 17 12 40 27 53 33 22 11 22 11 17 -21 -17 -96
-50 -177 -100 -243 -19 -25 -35 -47 -35 -49 0 -1 22 -17 49 -33 l49 -31 40 82
c50 102 75 174 89 251 7 41 18 232 18 310 l0 80 112 -3 c70 -2 114 1 118 8 8
13 52 13 60 0 4 -6 74 -9 185 -8 l178 3 6 37 c9 53 -1 71 -35 64 -73 -14 -159
-18 -172 -7 -8 6 -35 10 -60 8 l-47 -3 -16 48 c-17 51 -22 54 -84 36z"/>
<path d="M73 803 c-19 -4 -22 -10 -19 -45 2 -22 9 -44 16 -48 9 -5 11 -23 8
-55 -5 -41 -3 -47 16 -54 40 -16 90 28 70 61 -7 11 -12 38 -15 78 0 8 -5 27
-11 43 -10 26 -18 29 -65 20z"/>
<path d="M358 776 c-18 -18 -25 -161 -8 -171 13 -8 13 -48 -1 -62 -6 -6 -8
-25 -4 -47 7 -34 19 -43 50 -36 6 1 35 2 65 2 30 0 60 4 67 10 14 11 219 3
254 -10 53 -21 66 -8 72 71 9 128 4 237 -13 247 -17 11 -73 13 -84 3 -3 -4
-33 -6 -66 -5 -33 1 -62 -3 -65 -8 -8 -13 -52 -13 -60 0 -4 6 -32 11 -63 11
-32 -1 -73 2 -93 5 -25 4 -40 1 -51 -10z m315 -62 c75 -7 75 -7 79 -38 l3 -31
-155 0 -155 0 -1 28 c-1 23 3 27 27 27 16 0 29 5 29 10 0 11 64 13 173 4z m79
-158 c3 -14 3 -28 0 -31 -12 -11 -140 -5 -146 8 -5 10 -7 10 -12 0 -7 -15 -74
-18 -74 -3 0 6 -16 10 -35 10 -19 0 -35 2 -35 4 0 2 -2 10 -5 18 -4 10 26 14
149 16 l154 3 4 -25z"/>
<path d="M307 398 c-3 -12 -2 -29 4 -39 9 -18 10 -66 3 -126 -4 -28 -8 -31
-39 -30 -42 1 -48 -5 -48 -43 0 -36 5 -42 35 -41 21 2 128 2 288 2 36 0 108 0
160 0 52 1 112 -2 133 -6 20 -4 57 -4 81 -1 37 6 45 11 49 32 9 48 -1 60 -43
58 -35 -2 -39 1 -44 25 -3 14 -3 51 -1 81 7 81 7 101 3 105 -2 2 -34 -1 -71
-8 -50 -8 -75 -8 -99 0 -18 7 -55 9 -83 6 -67 -7 -230 -6 -281 1 -37 5 -43 3
-47 -16z m169 -74 c-3 -9 -1 -25 5 -36 6 -11 8 -35 5 -54 -6 -31 -9 -33 -46
-31 -36 1 -40 4 -46 33 -3 18 -1 41 5 52 6 11 9 27 6 34 -4 10 6 14 36 15 33
2 40 -1 35 -13z m160 0 c-3 -9 -1 -25 5 -36 6 -11 8 -35 5 -54 -6 -31 -9 -33
-46 -31 -36 1 -40 4 -46 33 -3 18 -1 41 5 52 6 11 9 27 6 34 -4 10 6 14 36 15
33 2 40 -1 35 -13z m160 0 c-3 -9 -1 -25 5 -36 6 -11 8 -35 5 -54 -6 -31 -9
-33 -46 -31 -36 1 -40 4 -46 33 -3 18 -1 41 5 52 6 11 9 27 6 34 -4 10 6 14
36 15 33 2 40 -1 35 -13z"/>
</g>
</svg>
