<?xml version="1.0" standalone="no"?>
<!DOCTYPE svg PUBLIC "-//W3C//DTD SVG 20010904//EN"
 "http://www.w3.org/TR/2001/REC-SVG-20010904/DTD/svg10.dtd">
<svg version="1.0" xmlns="http://www.w3.org/2000/svg"
 width="101.000000pt" height="102.000000pt" viewBox="0 0 101.000000 102.000000"
 preserveAspectRatio="xMidYMid meet">
<metadata>
Created by potrace 1.16, written by Peter Selinger 2001-2019
</metadata>
<g transform="translate(0.000000,102.000000) scale(0.100000,-0.100000)"
fill="#000000" stroke="none">
<path d="M528 1003 c-27 -7 -48 -15 -48 -18 0 -2 9 -20 21 -39 19 -32 19 -37
5 -42 -9 -3 -29 -3 -44 1 -48 12 -249 16 -277 5 -22 -8 -26 -15 -21 -33 3 -12
7 -85 9 -161 l2 -139 -50 -24 c-27 -12 -65 -26 -83 -29 -17 -3 -32 -9 -32 -11
0 -14 24 -89 31 -97 5 -5 34 9 69 33 l61 43 -6 -29 c-3 -15 -7 -40 -10 -56
-10 -55 -46 -136 -85 -191 -38 -54 -43 -76 -18 -76 5 0 23 -10 40 -21 36 -26
33 -28 88 86 37 77 69 173 75 225 5 44 5 45 14 32 4 -7 18 -14 30 -15 19 -1
21 -5 15 -27 -3 -14 -8 -42 -10 -62 -5 -53 -39 -145 -69 -183 -28 -38 -24 -44
34 -51 47 -6 50 -1 81 107 20 72 30 117 35 169 1 14 3 30 4 36 0 7 11 12 24
13 12 0 35 2 52 3 33 3 31 9 40 -115 2 -37 0 -78 -5 -92 -8 -20 -15 -24 -49
-22 -50 2 -57 -5 -36 -37 9 -14 14 -29 12 -34 -3 -4 -2 -13 2 -20 5 -8 20 -8
61 3 71 19 67 19 96 -12 l25 -27 32 18 c18 10 49 32 71 49 35 27 41 29 60 17
69 -45 130 -73 134 -61 2 6 15 25 28 40 13 16 24 31 24 34 0 2 -14 7 -30 11
-17 3 -52 15 -79 27 l-50 21 20 31 c21 35 69 177 69 206 0 26 -55 33 -98 14
-26 -13 -38 -13 -58 -4 -14 6 -29 9 -34 6 -4 -3 -15 -2 -24 1 -13 5 -14 10 -2
32 19 38 36 105 39 155 1 18 6 26 15 22 8 -3 20 -5 27 -5 10 0 16 -23 21 -81
6 -74 9 -81 33 -91 25 -11 109 -13 119 -4 2 3 6 23 8 45 l3 41 -41 -3 -41 -2
1 82 c1 97 7 93 -126 90 -68 -2 -95 -6 -102 -17 -5 -7 -8 -44 -8 -81 1 -52 -4
-76 -21 -104 -27 -46 -27 -49 7 -62 23 -9 24 -11 6 -12 -38 -2 -41 -71 -3 -71
11 0 16 -5 13 -13 -6 -17 30 -110 57 -148 l19 -27 -27 -20 c-43 -30 -94 -54
-101 -47 -3 3 -5 34 -5 68 2 65 2 131 2 287 -1 52 2 109 5 125 3 17 7 44 9 60
l2 30 -62 -1 c-66 0 -74 5 -47 27 14 12 14 14 -2 26 -13 10 -14 13 -3 13 257
6 331 5 335 -2 3 -5 32 -8 64 -7 l58 2 6 38 c11 70 12 70 -136 53 -37 -4 -62
-3 -71 4 -7 6 -35 10 -62 9 l-48 -2 -16 47 c-9 26 -18 49 -21 51 -3 3 -26 -2
-52 -10z m-135 -208 c-1 -16 -2 -33 -2 -37 -1 -4 -15 -3 -32 2 -18 5 -36 7
-40 4 -5 -3 -7 -61 -5 -129 l3 -125 -24 6 c-18 5 -23 2 -23 -12 -1 -18 -1 -18
-11 -1 -6 11 -8 31 -5 45 10 42 18 120 19 202 l2 75 60 0 60 0 -2 -30z m102
-123 c-2 -7 0 -22 6 -35 6 -13 7 -43 2 -77 -9 -60 -1 -56 -93 -47 -27 2 -37
26 -24 55 9 19 11 29 13 56 2 33 11 11 15 -38 3 -27 7 -50 9 -53 3 -2 17 -1
32 3 25 6 26 9 21 57 -5 54 -18 69 -52 61 -15 -4 -23 0 -26 13 -4 16 2 18 49
18 39 0 52 -3 48 -13z m297 -251 c-1 -13 -12 -44 -23 -70 l-20 -46 -15 28 c-9
16 -22 46 -29 68 -13 37 -13 40 3 35 9 -3 24 -1 32 4 27 18 55 8 52 -19z"/>
<path d="M68 813 c-15 -4 -17 -14 -12 -81 7 -104 17 -129 53 -127 47 3 53 12
46 73 -3 32 -6 64 -6 72 0 8 -5 27 -11 41 -9 26 -27 31 -70 22z"/>
<path d="M420 421 c-9 -4 -14 -16 -12 -31 5 -40 9 -75 11 -81 2 -11 38 -17 50
-9 8 4 10 22 7 46 -8 68 -23 88 -56 75z"/>
</g>
</svg>
