<?xml version="1.0" standalone="no"?>
<!DOCTYPE svg PUBLIC "-//W3C//DTD SVG 20010904//EN"
 "http://www.w3.org/TR/2001/REC-SVG-20010904/DTD/svg10.dtd">
<svg version="1.0" xmlns="http://www.w3.org/2000/svg"
 width="101.000000pt" height="102.000000pt" viewBox="0 0 101.000000 102.000000"
 preserveAspectRatio="xMidYMid meet">
<metadata>
Created by potrace 1.16, written by Peter Selinger 2001-2019
</metadata>
<g transform="translate(0.000000,102.000000) scale(0.100000,-0.100000)"
fill="#000000" stroke="none">
<path d="M525 1008 c-22 -6 -41 -12 -43 -13 -2 -2 6 -21 17 -43 l20 -39 -161
3 c-89 2 -163 6 -166 9 -3 2 -13 0 -24 -6 -14 -8 -18 -17 -14 -32 3 -12 8 -60
11 -107 6 -96 11 -136 19 -165 3 -11 0 -28 -8 -37 -14 -19 -117 -68 -141 -68
-22 0 -25 -13 -12 -63 l12 -47 30 21 c17 11 46 29 66 39 l37 19 -3 -37 c-10
-116 -33 -190 -87 -269 l-28 -42 46 -20 c26 -12 48 -21 50 -21 10 0 56 107 74
172 30 104 37 148 39 258 1 39 5 60 10 55 5 -6 29 -46 52 -89 l43 -79 -33 -63
c-18 -35 -50 -83 -72 -108 l-39 -44 36 -21 c19 -12 38 -21 42 -21 8 0 45 55
83 123 l26 49 25 -63 c14 -35 29 -64 34 -66 5 -2 26 7 46 20 l38 22 -49 87
c-31 56 -47 95 -45 113 4 39 13 43 36 15 l20 -25 18 23 c19 22 19 22 29 3 7
-13 9 -78 5 -189 -5 -163 -5 -170 14 -174 11 -3 31 -3 45 -1 24 5 25 8 22 55
-3 41 -1 49 11 44 9 -3 24 -1 35 5 15 7 39 7 87 -1 37 -7 76 -11 87 -10 11 0
34 2 52 2 25 1 32 7 36 26 3 13 2 32 0 42 -4 16 -9 17 -30 7 -18 -8 -32 -8
-54 0 -17 7 -37 9 -45 6 -11 -4 -13 5 -12 40 l2 45 57 -4 c50 -4 57 -2 62 16
11 41 -6 67 -38 60 -5 -1 -27 -3 -47 -5 -37 -4 -37 -4 -35 35 1 40 -1 39 79
42 39 2 51 19 41 58 -5 18 -12 20 -64 16 l-58 -5 2 39 c1 41 -1 40 84 43 45 1
55 12 46 46 -4 17 -13 20 -57 20 -28 0 -64 1 -81 2 l-30 2 28 11 c29 11 30 16
11 79 -5 17 10 20 103 21 27 0 37 24 28 65 -5 23 -13 30 -41 35 -19 4 -40 3
-47 -1 -6 -4 -65 -8 -129 -8 l-118 0 -15 53 c-9 28 -19 52 -23 51 -4 -1 -25
-6 -47 -11z m22 -178 c32 0 34 -6 18 -43 -4 -10 -5 -20 -2 -23 12 -12 -59
-214 -75 -214 -6 0 -7 7 -3 18 9 20 14 55 20 130 4 51 0 59 -30 52 -22 -4
-132 -1 -157 6 -23 5 -29 2 -37 -17 -11 -27 -12 -23 -15 41 l-1 45 48 -4 c30
-2 54 2 60 9 8 8 33 10 77 6 36 -3 79 -6 97 -6z m207 -5 c4 -10 -1 -15 -14
-15 -11 0 -20 -1 -20 -2 0 -2 6 -24 14 -49 l14 -46 -53 1 -53 1 14 27 c8 15
18 30 24 33 17 11 11 23 -17 33 l-28 10 33 1 c17 1 32 6 32 11 0 16 47 12 54
-5z m-442 -156 c13 0 39 2 58 3 29 3 35 0 36 -17 0 -11 4 -32 8 -47 8 -26 -10
-88 -25 -88 -3 0 -16 23 -29 50 -13 28 -25 50 -27 50 -2 0 -15 -7 -29 -16 -13
-9 -26 -15 -28 -13 -2 2 -6 28 -8 58 -5 47 -4 52 8 37 7 -10 23 -18 36 -17z
m423 -69 c0 -42 -2 -45 -25 -42 -14 2 -35 3 -47 4 -19 0 -22 5 -20 39 1 30 5
38 17 34 8 -2 22 0 30 5 30 20 45 7 45 -40z m0 -145 c0 -47 -1 -50 -25 -47
-14 2 -35 3 -47 4 -20 0 -22 5 -21 44 2 34 6 43 18 39 8 -2 22 0 30 5 31 21
45 7 45 -45z m0 -150 c0 -47 -1 -50 -25 -47 -14 2 -35 3 -47 4 -20 0 -22 5
-21 44 2 34 6 43 18 39 8 -2 22 0 30 5 31 21 45 7 45 -45z"/>
<path d="M59 810 c-14 -8 -16 -23 -12 -87 2 -43 6 -88 8 -99 6 -25 38 -36 70
-24 19 7 23 16 23 56 1 26 -2 52 -5 58 -4 6 -6 22 -5 36 3 26 -29 70 -51 70
-7 0 -19 -5 -28 -10z"/>
</g>
</svg>
