<?xml version="1.0" standalone="no"?>
<!DOCTYPE svg PUBLIC "-//W3C//DTD SVG 20010904//EN"
 "http://www.w3.org/TR/2001/REC-SVG-20010904/DTD/svg10.dtd">
<svg version="1.0" xmlns="http://www.w3.org/2000/svg"
 width="101.000000pt" height="102.000000pt" viewBox="0 0 101.000000 102.000000"
 preserveAspectRatio="xMidYMid meet">
<metadata>
Created by potrace 1.16, written by Peter Selinger 2001-2019
</metadata>
<g transform="translate(0.000000,102.000000) scale(0.100000,-0.100000)"
fill="#000000" stroke="none">
<path d="M478 1013 c-15 -4 -15 -8 4 -49 11 -25 17 -48 14 -51 -3 -3 -64 -1
-135 6 -72 6 -141 9 -155 5 -28 -7 -41 -33 -30 -66 6 -19 6 -46 5 -180 -1 -46
-9 -47 -15 -2 -3 16 -7 40 -11 54 -3 14 -7 35 -9 48 -5 31 -6 32 -53 19 -40
-10 -41 -12 -36 -41 3 -17 10 -39 15 -48 4 -9 10 -38 13 -64 2 -25 5 -48 7
-49 14 -14 92 1 82 16 -3 5 0 9 5 9 6 0 11 -13 11 -29 0 -25 -6 -31 -43 -45
-23 -8 -61 -20 -85 -26 -39 -10 -42 -13 -36 -38 10 -40 23 -72 29 -72 3 0 32
13 65 30 33 16 62 30 66 30 3 0 3 -12 -1 -27 -4 -16 -9 -41 -11 -58 -9 -71
-48 -156 -95 -210 -18 -20 -30 -37 -28 -39 2 -2 22 -8 44 -13 22 -6 47 -14 56
-17 30 -13 98 163 112 287 5 47 12 54 27 28 6 -12 18 -21 26 -21 29 0 166 63
209 96 l44 33 63 -43 c60 -39 232 -116 261 -116 14 1 71 90 62 98 -2 3 -17 6
-32 8 -16 2 -39 5 -53 8 -14 3 -38 7 -55 10 -51 8 -155 52 -155 66 0 8 54 21
101 25 22 1 26 -2 26 -27 0 -37 6 -42 50 -41 43 1 54 16 41 54 -6 18 -6 63 0
126 5 54 6 101 3 105 -9 10 -264 20 -276 11 -5 -5 -11 -22 -11 -40 -2 -25 3
-33 22 -37 13 -4 23 -10 22 -14 -1 -4 8 -26 20 -49 l21 -41 -34 1 c-47 1 -53
-8 -24 -40 25 -27 15 -24 -33 9 -25 17 -28 25 -28 79 0 33 4 59 10 59 6 0 10
15 10 34 0 41 -23 53 -73 37 -30 -10 -51 -9 -164 6 -38 4 -44 3 -51 -18 -9
-23 -9 -23 -13 6 l-5 30 161 2 c281 4 328 4 416 -2 73 -5 89 -3 104 11 11 12
14 25 10 43 -4 14 -8 27 -9 28 -4 5 -116 6 -234 2 l-122 -4 -15 51 c-15 50
-16 52 -52 51 -21 0 -46 -2 -55 -4z m-170 -279 c71 -6 76 -7 55 -11 -13 -2
-23 -6 -23 -8 0 -4 31 -74 37 -83 4 -8 73 20 73 29 0 17 -29 67 -42 72 -7 3 7
6 32 6 l45 1 0 -45 0 -44 -65 -21 c-81 -25 -133 -32 -142 -16 -16 25 -5 152
11 129 3 -4 12 -8 19 -9z m452 -4 c13 0 19 -9 22 -36 5 -40 5 -39 -42 -48 -28
-5 -31 -4 -12 4 l23 10 -22 41 c-18 36 -19 41 -4 35 9 -3 25 -6 35 -6z m-247
-150 c16 0 -56 -48 -97 -65 -36 -15 -85 -26 -126 -29 -21 -1 -25 3 -22 24 2
14 3 35 4 48 0 30 14 28 22 -3 4 -14 12 -28 19 -31 7 -2 47 11 88 30 40 19 80
33 87 30 8 -2 19 -4 25 -4z"/>
<path d="M557 470 c-45 -36 -124 -70 -171 -74 -65 -7 -70 -12 -39 -51 l27 -33
81 28 c44 16 112 44 149 61 l69 32 -34 28 c-41 34 -49 35 -82 9z"/>
<path d="M631 381 c-78 -55 -142 -76 -264 -86 -27 -2 -51 -5 -53 -8 -2 -2 11
-20 29 -39 40 -42 58 -42 172 -4 62 21 206 88 245 114 6 5 -58 62 -68 61 -4 0
-31 -17 -61 -38z"/>
<path d="M750 315 c-57 -59 -194 -121 -285 -130 -16 -1 -52 -8 -78 -15 -35 -9
-55 -10 -72 -2 -12 6 -32 8 -44 5 -20 -5 -20 -6 6 -42 15 -20 28 -38 29 -40 2
-1 13 -3 26 -3 20 -1 42 2 123 17 72 13 217 65 317 113 64 31 117 60 118 64 0
9 -82 68 -95 68 -6 0 -26 -16 -45 -35z"/>
</g>
</svg>
