<?xml version="1.0" standalone="no"?>
<!DOCTYPE svg PUBLIC "-//W3C//DTD SVG 20010904//EN"
 "http://www.w3.org/TR/2001/REC-SVG-20010904/DTD/svg10.dtd">
<svg version="1.0" xmlns="http://www.w3.org/2000/svg"
 width="101.000000pt" height="101.000000pt" viewBox="0 0 101.000000 101.000000"
 preserveAspectRatio="xMidYMid meet">
<metadata>
Created by potrace 1.16, written by Peter Selinger 2001-2019
</metadata>
<g transform="translate(0.000000,101.000000) scale(0.100000,-0.100000)"
fill="#000000" stroke="none">
<path d="M533 988 c-37 -12 -39 -18 -18 -57 8 -16 11 -31 8 -35 -10 -10 -93
-7 -93 4 0 6 -18 10 -40 10 -22 0 -40 -4 -40 -10 0 -5 -25 -10 -55 -10 -30 0
-55 4 -55 9 0 13 -25 20 -47 15 -14 -4 -20 -15 -21 -39 -1 -19 3 -37 8 -40 13
-8 11 -167 -2 -182 -5 -7 -8 -35 -6 -63 l3 -51 -67 -20 c-38 -12 -68 -23 -68
-26 0 -22 25 -83 34 -83 6 0 29 12 51 25 47 29 60 31 51 8 -4 -9 -9 -32 -12
-51 -9 -55 -32 -113 -70 -175 l-36 -59 38 -31 c21 -18 43 -32 49 -32 5 0 23
33 40 72 16 40 33 73 36 73 3 0 18 -11 33 -25 15 -14 29 -25 31 -25 3 0 18 26
33 57 28 54 30 56 41 34 9 -17 10 -39 2 -89 -6 -36 -9 -67 -8 -69 5 -4 39 -6
66 -5 22 2 23 5 17 40 l-6 38 41 1 c33 2 39 -1 35 -15 -11 -33 13 -48 70 -44
20 2 21 5 12 51 -5 27 -6 86 -3 132 7 116 8 130 4 134 -2 1 -31 -1 -64 -7 -40
-6 -67 -6 -82 1 -13 6 -29 8 -37 5 -9 -4 -13 2 -11 18 1 13 3 30 4 39 0 10 10
17 24 18 12 1 38 2 57 4 19 1 52 -2 72 -6 31 -7 37 -5 43 12 3 11 1 29 -4 40
-9 16 -8 109 1 175 3 17 -7 18 -138 22 l-141 3 -1 -89 c-1 -51 2 -91 8 -95 13
-8 13 -52 0 -60 -5 -3 -9 -23 -8 -43 3 -70 -25 -154 -72 -212 l-20 -25 11 30
c15 41 20 69 24 145 2 36 7 92 12 125 4 33 8 104 8 158 l0 97 43 0 c23 0 42 5
42 10 0 6 16 10 35 10 19 0 35 -5 35 -11 0 -8 39 -9 138 -4 130 7 138 6 139
-11 1 -11 4 -31 6 -45 5 -25 4 -25 -48 -21 -47 4 -54 2 -60 -17 -16 -50 22
-77 101 -70 16 1 43 1 60 1 28 -2 31 -5 28 -29 -1 -16 -8 -47 -15 -70 -11 -40
-13 -42 -50 -40 -38 1 -34 17 5 17 20 0 19 25 -3 84 -10 25 -15 28 -43 22 -17
-3 -33 -8 -35 -10 -3 -2 2 -27 11 -55 15 -51 15 -52 -7 -50 -54 5 -72 -14 -60
-61 5 -18 11 -20 62 -15 l57 5 2 -46 c2 -45 2 -46 -31 -43 -17 1 -39 1 -48 0
-19 -1 -30 -32 -22 -61 5 -18 12 -20 53 -17 55 5 52 11 50 -114 -1 -69 1 -77
19 -82 12 -3 30 -3 42 0 18 5 20 13 19 82 -2 125 -4 120 45 116 24 -1 47 -5
53 -9 27 -17 56 23 45 63 -4 14 -14 19 -51 19 -95 1 -92 -1 -90 48 2 32 6 43
15 39 7 -2 25 1 38 7 19 9 28 9 37 0 33 -33 74 -1 61 47 -7 26 -26 32 -63 19
-17 -5 -34 -7 -38 -3 -4 3 5 29 20 57 28 52 28 68 2 68 -8 0 -14 5 -14 10 0 6
16 10 35 10 29 0 36 4 41 25 3 14 4 32 0 40 -6 17 -32 20 -41 5 -3 -5 -26 -10
-49 -10 -40 0 -43 2 -43 28 0 15 -4 38 -8 51 -6 18 -5 22 4 17 7 -4 38 -5 71
-1 51 6 59 10 65 32 14 56 9 58 -155 58 l-150 0 -16 48 c-17 50 -23 53 -81 35z
m-28 -337 l0 -50 -45 6 c-25 3 -45 6 -46 7 -1 1 -4 18 -7 38 l-6 37 47 4 c26
2 49 4 52 5 3 1 5 -20 5 -47z m4 -294 c0 -12 2 -35 3 -52 3 -29 2 -30 -42 -30
-44 0 -45 1 -42 30 1 17 3 39 3 50 1 17 9 21 39 22 32 2 38 -1 39 -20z"/>
<path d="M52 800 c-18 -8 -21 -13 -13 -28 10 -19 13 -31 30 -110 4 -23 11 -45
14 -49 5 -4 61 12 75 23 2 1 -8 41 -22 88 -28 90 -34 96 -84 76z"/>
</g>
</svg>
