<?xml version="1.0" standalone="no"?>
<!DOCTYPE svg PUBLIC "-//W3C//DTD SVG 20010904//EN"
 "http://www.w3.org/TR/2001/REC-SVG-20010904/DTD/svg10.dtd">
<svg version="1.0" xmlns="http://www.w3.org/2000/svg"
 width="101.000000pt" height="101.000000pt" viewBox="0 0 101.000000 101.000000"
 preserveAspectRatio="xMidYMid meet">
<metadata>
Created by potrace 1.16, written by Peter Selinger 2001-2019
</metadata>
<g transform="translate(0.000000,101.000000) scale(0.100000,-0.100000)"
fill="#000000" stroke="none">
<path d="M517 983 c-13 -3 -16 -11 -11 -31 15 -61 38 -120 68 -177 l33 -60
-118 0 c-75 0 -115 4 -111 10 3 6 20 33 38 60 17 28 43 73 57 101 l26 51 -45
7 c-25 3 -54 1 -65 -4 -18 -10 -184 -6 -241 6 -39 8 -68 -11 -68 -44 0 -49 6
-50 148 -48 72 1 132 0 132 -4 0 -5 -72 -113 -85 -128 -2 -2 -15 19 -31 47
-29 55 -39 59 -84 36 -34 -18 -37 -27 -14 -46 9 -7 28 -31 44 -54 l28 -41 -61
-42 c-34 -23 -77 -47 -94 -53 -18 -6 -33 -14 -33 -17 0 -4 16 -20 36 -36 44
-35 50 -33 163 58 44 36 81 61 81 56 0 -6 23 -10 50 -10 28 0 50 5 50 10 0 6
11 10 25 10 14 0 25 -5 25 -11 0 -14 199 -8 201 6 1 6 1 14 0 19 -1 5 13 -3
31 -17 39 -32 189 -127 200 -127 4 0 13 10 19 23 6 12 20 32 31 44 25 27 18
39 -26 47 -19 4 -67 23 -106 42 -83 42 -85 39 34 107 l79 46 -36 36 -36 36
-65 -55 c-95 -80 -100 -82 -126 -45 -12 16 -21 32 -19 33 13 11 147 93 162 99
26 10 21 23 -19 48 -24 14 -41 19 -49 13 -7 -5 -36 -28 -65 -52 -43 -35 -55
-40 -67 -30 -9 7 -13 24 -11 45 5 41 -17 51 -75 36z"/>
<path d="M235 563 c-17 -17 -21 -108 -5 -118 7 -4 8 -31 4 -72 -4 -40 -3 -64
2 -60 5 3 25 2 44 -3 19 -4 27 -8 17 -9 -15 -1 -13 -8 16 -43 l35 -43 -133 1
-134 2 -6 -29 c-13 -59 -2 -68 78 -63 64 4 120 5 175 5 9 0 62 0 117 0 55 1
123 -2 150 -4 28 -3 64 -1 80 5 20 7 62 7 130 0 110 -11 115 -9 115 45 0 32
-29 61 -44 45 -4 -3 -61 -7 -128 -7 l-120 0 38 33 c36 31 37 33 18 47 -18 13
-16 14 21 15 22 0 45 4 50 8 6 4 10 60 11 128 l1 120 -83 -4 c-52 -3 -89 0
-97 6 -15 13 -115 14 -123 1 -7 -12 -51 -11 -59 1 -10 16 -153 10 -170 -7z
m379 -70 l77 -6 -3 -46 -3 -46 -42 0 c-24 1 -108 2 -188 3 l-146 2 7 38 c4 20
8 39 10 41 2 2 26 3 53 3 28 -1 53 3 56 8 7 12 70 13 179 3z m-41 -222 c-15
-27 -31 -50 -35 -50 -5 -1 -29 -1 -55 -1 -46 1 -49 3 -75 45 l-27 44 97 4 c53
1 103 4 110 5 9 1 3 -16 -15 -47z"/>
</g>
</svg>
