<?xml version="1.0" standalone="no"?>
<!DOCTYPE svg PUBLIC "-//W3C//DTD SVG 20010904//EN"
 "http://www.w3.org/TR/2001/REC-SVG-20010904/DTD/svg10.dtd">
<svg version="1.0" xmlns="http://www.w3.org/2000/svg"
 width="101.000000pt" height="101.000000pt" viewBox="0 0 101.000000 101.000000"
 preserveAspectRatio="xMidYMid meet">
<metadata>
Created by potrace 1.16, written by Peter Selinger 2001-2019
</metadata>
<g transform="translate(0.000000,101.000000) scale(0.100000,-0.100000)"
fill="#000000" stroke="none">
<path d="M148 1003 c15 -6 17 -113 2 -113 -5 0 -10 -18 -10 -40 0 -22 5 -40
10 -40 13 0 13 -71 0 -106 -6 -15 -18 -33 -27 -40 -16 -11 -16 -15 1 -53 11
-22 24 -41 30 -41 6 0 38 10 71 21 59 20 162 32 169 20 2 -3 -3 -23 -11 -43
l-15 -37 -66 6 c-122 12 -118 14 -113 -32 5 -57 3 -356 -4 -381 -6 -26 12 -33
69 -26 36 4 38 6 32 32 -6 34 -35 32 337 30 l88 -1 -6 -28 c-7 -33 8 -40 67
-33 43 5 51 20 36 64 -19 52 -14 291 6 339 4 10 0 23 -10 34 -18 18 -35 17
-148 -5 -46 -10 -66 -10 -97 0 -21 7 -54 10 -73 7 -32 -5 -35 -4 -27 12 6 10
17 23 25 31 24 19 20 27 -21 41 l-38 13 27 10 c28 10 43 44 33 77 -8 23 -19
24 -76 4 -24 -9 -46 -16 -49 -15 -3 0 -18 -4 -35 -10 -16 -5 -42 -11 -58 -14
l-27 -5 6 57 c4 31 8 58 9 59 1 2 47 4 103 5 111 3 120 8 106 62 -6 25 -6 25
-115 23 l-108 -2 4 54 c6 64 -1 71 -65 70 -25 0 -39 -3 -32 -6z m473 -544 l85
0 1 -34 1 -34 -87 -1 c-368 -2 -339 -5 -338 36 1 26 5 33 16 29 9 -2 23 0 31
5 8 5 57 7 110 4 52 -2 133 -4 181 -5z m-1 -150 l86 0 1 -39 2 -39 -87 -1
c-181 -1 -298 -1 -319 1 -19 1 -22 7 -20 40 1 30 5 38 17 34 8 -2 22 0 30 5 8
5 57 7 110 4 52 -2 133 -4 180 -5z"/>
<path d="M548 1003 c-9 -2 -19 -12 -22 -21 -8 -30 -5 -86 5 -99 6 -7 9 -64 7
-140 l-3 -128 35 -17 c28 -14 57 -17 152 -15 133 2 155 12 195 84 l23 39 -45
32 -45 32 -16 -40 c-9 -21 -26 -46 -39 -54 -27 -18 -95 -22 -95 -6 0 6 -17 10
-38 10 l-38 0 1 43 c0 23 5 45 10 49 25 19 199 71 258 77 15 2 6 28 -23 63
l-30 37 -103 -50 c-56 -27 -105 -49 -108 -49 -4 0 -4 30 -1 67 4 56 2 68 -13
80 -19 13 -35 15 -67 6z"/>
</g>
</svg>
