<?xml version="1.0" standalone="no"?>
<!DOCTYPE svg PUBLIC "-//W3C//DTD SVG 20010904//EN"
 "http://www.w3.org/TR/2001/REC-SVG-20010904/DTD/svg10.dtd">
<svg version="1.0" xmlns="http://www.w3.org/2000/svg"
 width="101.000000pt" height="101.000000pt" viewBox="0 0 101.000000 101.000000"
 preserveAspectRatio="xMidYMid meet">
<metadata>
Created by potrace 1.16, written by Peter Selinger 2001-2019
</metadata>
<g transform="translate(0.000000,101.000000) scale(0.100000,-0.100000)"
fill="#000000" stroke="none">
<path d="M615 980 c-4 -17 -4 -68 0 -113 l7 -82 -56 0 c-55 0 -56 1 -51 25 2
14 7 50 9 80 l5 55 -37 12 c-65 20 -70 11 -69 -132 1 -145 -1 -143 104 -128
32 4 105 7 163 6 230 -4 230 -4 230 23 0 13 -4 26 -10 29 -12 8 -13 112 -1
117 5 2 12 17 15 35 7 30 5 33 -21 39 -15 3 -35 8 -44 10 -9 3 -25 -3 -34 -13
-15 -14 -17 -29 -12 -88 l6 -70 -52 0 -52 0 2 90 c0 50 2 95 3 100 6 29 -2 35
-49 35 -47 0 -50 -2 -56 -30z"/>
<path d="M162 965 c-1 -16 -3 -46 -6 -65 -3 -19 -5 -37 -5 -40 -1 -3 -20 -5
-43 -5 l-43 0 -1 -362 c-2 -400 -6 -376 62 -366 27 4 31 9 32 41 3 76 4 80 26
81 11 0 34 2 51 3 27 3 29 0 31 -30 2 -43 7 -47 56 -45 44 2 61 17 52 46 -3
10 -6 155 -6 323 l0 304 -24 6 c-14 4 -45 4 -69 1 -43 -4 -44 -4 -33 17 6 11
10 21 7 21 -2 0 3 19 10 43 18 53 8 63 -55 59 -38 -2 -41 -4 -42 -32z m116
-282 c3 -82 2 -82 -23 -89 -15 -4 -37 -2 -51 4 -13 7 -31 9 -40 5 -15 -5 -16
-1 -11 33 4 21 7 59 7 84 l0 45 58 0 57 1 3 -83z m-12 -161 c12 -8 15 -29 17
-125 2 -77 -8 -91 -58 -82 -16 3 -40 6 -52 7 -26 0 -34 28 -27 103 2 28 4 60
5 73 1 16 6 21 18 18 9 -3 23 -1 31 4 18 11 51 13 66 2z"/>
<path d="M439 643 c-35 -9 -31 -87 4 -97 11 -3 28 -1 37 4 10 5 64 8 121 6 57
-2 127 -4 154 -5 l51 -1 2 -44 1 -43 -107 -6 c-59 -3 -129 -4 -157 -2 -109 10
-108 10 -105 -27 0 -13 2 -79 4 -148 1 -69 6 -135 10 -147 9 -28 89 -57 117
-43 11 6 72 8 150 5 167 -6 190 2 223 77 27 61 24 86 -13 99 -14 6 -36 20 -48
31 -17 16 -23 18 -24 7 -7 -87 -23 -112 -81 -127 -49 -13 -197 -6 -224 11 -19
11 -38 112 -25 135 6 11 8 27 5 35 -6 17 -7 17 141 20 55 1 131 -1 168 -5 67
-7 68 -7 60 15 -8 22 -8 154 -1 213 l5 32 -51 1 c-81 0 -174 0 -276 -2 -52 0
-102 2 -110 5 -8 3 -22 4 -31 1z"/>
</g>
</svg>
