<?xml version="1.0" standalone="no"?>
<!DOCTYPE svg PUBLIC "-//W3C//DTD SVG 20010904//EN"
 "http://www.w3.org/TR/2001/REC-SVG-20010904/DTD/svg10.dtd">
<svg version="1.0" xmlns="http://www.w3.org/2000/svg"
 width="101.000000pt" height="102.000000pt" viewBox="0 0 101.000000 102.000000"
 preserveAspectRatio="xMidYMid meet">
<metadata>
Created by potrace 1.16, written by Peter Selinger 2001-2019
</metadata>
<g transform="translate(0.000000,102.000000) scale(0.100000,-0.100000)"
fill="#000000" stroke="none">
<path d="M234 952 l5 -69 -84 4 c-81 3 -85 2 -90 -20 -4 -12 -1 -35 5 -51 10
-27 12 -28 74 -24 l63 3 -36 -41 c-38 -42 -90 -90 -128 -116 l-23 -15 39 -31
39 -31 70 73 c57 60 70 70 71 52 4 -56 3 -93 -4 -117 -8 -30 10 -39 61 -32
l29 5 0 95 0 95 37 -42 37 -41 30 22 c17 13 31 26 31 30 0 8 -86 79 -96 79 -4
0 -15 -7 -24 -15 -16 -14 -17 -14 -13 7 4 21 9 23 44 20 59 -6 86 4 93 34 13
50 3 59 -71 59 l-68 0 2 35 c1 19 4 45 7 57 6 28 -3 34 -61 40 l-45 5 6 -70z"/>
<path d="M810 981 c-8 -6 -18 -7 -22 -5 -4 3 -14 2 -20 -2 -7 -5 -22 -9 -33
-11 -11 -1 -38 -5 -60 -8 -22 -3 -63 -5 -91 -5 -75 1 -88 -15 -81 -102 8 -89
-13 -160 -59 -206 -39 -39 -40 -42 -16 -42 9 -1 28 -7 42 -16 22 -13 22 -14 3
-9 -18 5 -23 0 -29 -27 -4 -18 -8 -37 -8 -43 -1 -8 -94 -10 -214 -4 -13 1 -26
-1 -29 -4 -7 -8 -7 -44 2 -97 15 -98 15 -187 1 -228 -25 -69 -11 -88 59 -83
33 3 47 18 39 42 -6 22 -35 20 344 19 l94 0 -7 -29 c-7 -33 9 -41 64 -33 l32
4 -5 165 c-4 97 -2 171 3 182 6 10 7 28 4 41 -6 21 -9 22 -71 17 -37 -4 -72
-2 -83 4 -14 7 -28 5 -53 -6 -26 -13 -39 -14 -54 -6 -12 6 -28 8 -36 5 -20 -8
-20 6 -1 32 20 26 19 34 -5 34 -19 0 -18 3 9 40 15 21 34 58 40 82 l12 43 63
0 64 0 5 -53 c3 -30 2 -64 -3 -77 -11 -30 -2 -65 19 -67 35 -3 76 5 83 15 4 7
4 21 1 32 -4 11 -7 48 -8 82 l0 63 45 1 c25 1 57 0 72 -1 30 -2 43 23 33 63
l-7 25 -181 0 -182 0 -3 25 c-3 22 2 25 35 31 21 3 72 7 113 9 93 5 180 17
180 26 0 10 -70 91 -78 91 -4 0 -14 -4 -22 -9z m-174 -551 l90 0 1 -35 1 -35
-91 0 c-384 -1 -345 -5 -344 36 1 26 5 33 16 29 9 -2 23 0 31 5 8 5 57 7 110
4 52 -2 136 -4 186 -4z m0 -140 l90 0 1 -35 1 -35 -91 0 c-384 -1 -345 -5
-344 36 1 26 5 33 16 29 9 -2 23 0 31 5 8 5 57 7 110 4 52 -2 136 -4 186 -4z"/>
</g>
</svg>
