<?xml version="1.0" standalone="no"?>
<!DOCTYPE svg PUBLIC "-//W3C//DTD SVG 20010904//EN"
 "http://www.w3.org/TR/2001/REC-SVG-20010904/DTD/svg10.dtd">
<svg version="1.0" xmlns="http://www.w3.org/2000/svg"
 width="101.000000pt" height="101.000000pt" viewBox="0 0 101.000000 101.000000"
 preserveAspectRatio="xMidYMid meet">
<metadata>
Created by potrace 1.16, written by Peter Selinger 2001-2019
</metadata>
<g transform="translate(0.000000,101.000000) scale(0.100000,-0.100000)"
fill="#000000" stroke="none">
<path d="M192 937 c-31 -67 -85 -137 -107 -137 -22 0 -25 -14 -13 -54 11 -35
13 -36 50 -32 l38 4 -19 -27 c-11 -15 -40 -46 -64 -68 l-45 -41 27 -26 c15
-14 30 -26 35 -26 7 0 158 152 154 155 -47 31 -51 35 -36 35 9 0 23 7 32 15
21 21 145 14 158 -9 8 -14 12 -14 43 1 19 9 35 24 35 33 0 22 -76 139 -94 146
-21 8 -78 -24 -70 -39 4 -7 16 -22 27 -34 l20 -23 -54 2 c-30 1 -66 -1 -81 -4
-16 -4 -28 -5 -28 -4 0 9 93 122 105 129 25 14 17 27 -31 47 -25 11 -47 20
-50 20 -2 0 -17 -28 -32 -63z"/>
<path d="M680 994 c-11 -3 -14 -16 -12 -49 2 -25 1 -56 -2 -69 -5 -21 -10 -23
-63 -20 -32 2 -65 5 -73 9 -9 3 -24 -1 -34 -8 -17 -13 -18 -21 -9 -93 6 -51 6
-90 0 -111 l-10 -32 -59 54 c-33 30 -65 55 -72 55 -7 0 -23 -11 -35 -24 l-23
-25 63 -59 64 -60 32 25 32 24 6 -43 c4 -24 2 -56 -4 -71 -6 -16 -9 -32 -7
-36 7 -11 -23 -120 -46 -165 -11 -22 -45 -66 -76 -98 l-55 -58 29 -10 c16 -6
39 -15 51 -21 18 -10 25 -7 52 22 52 58 125 211 137 289 2 14 6 45 9 69 3 24
7 46 9 48 2 2 11 -26 20 -63 9 -36 30 -95 46 -130 l29 -64 -42 -34 c-23 -18
-68 -47 -100 -63 l-57 -29 39 -38 39 -39 39 24 c21 13 62 43 91 67 l52 43 33
-25 c32 -24 134 -86 142 -86 7 0 43 74 42 85 -1 6 -25 19 -53 31 -28 11 -65
31 -82 43 l-32 22 24 47 c22 43 74 197 90 265 6 26 -1 33 -29 27 -5 -1 -35 -3
-65 -4 l-56 -1 1 77 0 76 43 4 c23 2 42 3 42 2 0 -1 -7 -21 -15 -45 -17 -48
-10 -59 35 -59 41 0 49 12 71 99 17 66 18 85 8 91 -7 5 -18 6 -25 3 -7 -2 -45
-5 -86 -6 l-73 -2 1 45 c1 25 5 53 9 62 11 27 -36 45 -85 32z m-23 -299 l1
-81 -34 4 c-33 4 -34 5 -35 51 0 25 -1 60 -2 76 -2 28 0 30 33 30 l35 0 2 -80z
m130 -153 c8 -5 5 -26 -11 -77 -12 -39 -27 -79 -34 -90 -10 -18 -12 -16 -31
25 -10 25 -22 62 -25 84 -4 21 -9 43 -12 48 -4 6 1 8 12 4 11 -3 26 -1 34 4
18 12 50 13 67 2z"/>
<path d="M189 570 c-18 -34 -59 -89 -91 -122 -32 -34 -55 -64 -51 -67 4 -4 20
-17 34 -29 l27 -23 62 76 c36 42 69 74 76 71 7 -3 26 0 43 7 45 17 54 1 30
-52 l-19 -44 -28 26 c-35 33 -43 33 -81 1 l-31 -26 40 -29 c22 -16 40 -33 40
-39 0 -12 -112 -105 -151 -125 -16 -9 -29 -19 -28 -23 0 -4 16 -20 35 -36 l34
-28 53 40 c28 23 67 57 86 76 33 34 35 35 48 16 19 -27 32 -25 65 7 l28 27
-25 26 -25 26 35 80 c19 44 38 95 41 113 7 31 6 32 -22 24 -16 -4 -45 -7 -64
-6 -19 2 -45 3 -58 4 l-24 1 24 25 c23 24 23 25 4 39 -11 8 -25 14 -32 14 -7
0 -19 3 -27 6 -11 4 -25 -13 -48 -56z"/>
</g>
</svg>
