<?xml version="1.0" standalone="no"?>
<!DOCTYPE svg PUBLIC "-//W3C//DTD SVG 20010904//EN"
 "http://www.w3.org/TR/2001/REC-SVG-20010904/DTD/svg10.dtd">
<svg version="1.0" xmlns="http://www.w3.org/2000/svg"
 width="101.000000pt" height="101.000000pt" viewBox="0 0 101.000000 101.000000"
 preserveAspectRatio="xMidYMid meet">
<metadata>
Created by potrace 1.16, written by Peter Selinger 2001-2019
</metadata>
<g transform="translate(0.000000,101.000000) scale(0.100000,-0.100000)"
fill="#000000" stroke="none">
<path d="M138 963 c-22 -5 -33 -56 -18 -84 11 -20 16 -21 95 -14 l83 7 -4 -34
c-15 -135 -85 -243 -202 -310 l-52 -30 42 -27 c24 -15 46 -29 50 -32 22 -12
187 186 211 252 4 14 23 18 94 21 48 2 89 4 90 3 1 0 -9 -19 -23 -42 l-24 -42
-55 25 c-31 13 -58 24 -60 24 -6 0 -37 -61 -33 -64 2 -2 21 -10 43 -18 21 -9
41 -20 42 -25 4 -11 -105 -63 -131 -63 -26 0 -19 -15 19 -45 40 -30 43 -30
122 21 31 20 64 37 73 39 8 1 35 -13 59 -32 24 -18 48 -33 53 -33 5 0 21 14
35 30 13 17 29 30 33 30 5 0 14 -17 21 -37 6 -21 16 -41 22 -44 17 -12 -149
-22 -170 -11 -11 6 -44 8 -74 6 -108 -11 -234 -12 -250 -4 -8 5 -25 7 -36 4
-16 -4 -19 -12 -16 -37 9 -68 11 -123 6 -150 -5 -32 -42 -45 -78 -29 -49 23
-77 -3 -68 -64 4 -28 8 -30 36 -26 29 3 87 4 282 3 33 -1 102 1 154 4 54 2
102 0 113 -6 12 -6 76 -8 177 -3 159 7 159 7 164 31 9 46 -1 59 -46 60 -89 4
-84 0 -91 65 -3 33 -3 65 0 70 4 6 8 28 10 50 l4 39 -48 -5 -47 -4 51 22 c68
31 86 82 87 244 0 28 4 52 8 52 5 0 9 9 9 20 0 23 -27 32 -90 28 l-46 -3 7 45
c4 25 10 61 14 80 l6 35 -160 2 c-88 1 -163 -2 -166 -7 -7 -12 -173 -12 -180
0 -3 5 -29 8 -58 8 -29 -1 -57 1 -62 3 -6 3 -18 4 -27 2z m545 -106 c-3 -6 -7
-20 -9 -31 -3 -22 -8 -44 -19 -87 -8 -30 10 -39 83 -39 41 0 42 -1 43 -32 1
-18 1 -37 -1 -43 -1 -5 -3 -25 -6 -44 -2 -19 -6 -37 -9 -39 -2 -3 -27 -5 -54
-5 -43 0 -112 28 -150 59 -2 2 12 36 31 76 53 108 55 118 24 118 -14 0 -28 -4
-31 -10 -3 -5 -40 -10 -81 -10 -43 0 -74 4 -74 10 0 6 -14 10 -31 10 -26 0
-30 3 -24 18 6 15 11 35 14 52 1 3 68 5 151 6 95 0 147 -3 143 -9z m-317 -512
c0 -11 4 -32 8 -46 4 -14 3 -41 -2 -60 -7 -28 -13 -33 -33 -31 -13 2 -34 3
-46 4 -17 0 -23 8 -28 38 -4 22 -2 47 4 59 6 11 8 27 4 36 -5 14 -2 16 13 11
10 -3 26 -1 34 4 22 15 45 7 46 -15z m190 0 c0 -11 4 -32 8 -46 4 -14 3 -41
-2 -60 -7 -30 -12 -34 -38 -31 -16 1 -39 3 -51 3 -17 1 -23 9 -28 39 -4 22 -2
47 4 59 6 11 8 27 4 36 -5 14 -2 16 13 11 10 -3 26 -1 34 4 24 16 55 7 56 -15z
m180 0 c0 -11 4 -32 8 -46 4 -14 3 -41 -2 -60 -7 -28 -13 -33 -33 -31 -13 2
-34 3 -46 4 -17 0 -23 8 -28 38 -4 22 -2 47 4 59 6 11 8 27 4 36 -5 14 -2 16
13 11 10 -3 26 -1 34 4 22 15 45 7 46 -15z"/>
</g>
</svg>
