<?xml version="1.0" standalone="no"?>
<!DOCTYPE svg PUBLIC "-//W3C//DTD SVG 20010904//EN"
 "http://www.w3.org/TR/2001/REC-SVG-20010904/DTD/svg10.dtd">
<svg version="1.0" xmlns="http://www.w3.org/2000/svg"
 width="101.000000pt" height="101.000000pt" viewBox="0 0 101.000000 101.000000"
 preserveAspectRatio="xMidYMid meet">
<metadata>
Created by potrace 1.16, written by Peter Selinger 2001-2019
</metadata>
<g transform="translate(0.000000,101.000000) scale(0.100000,-0.100000)"
fill="#000000" stroke="none">
<path d="M295 982 c-22 -8 -41 -17 -43 -18 -2 -1 13 -23 33 -49 69 -91 73 -86
-67 -81 l-123 5 0 -49 c0 -48 1 -50 32 -56 18 -3 54 -4 80 0 26 3 101 5 165 5
69 0 119 5 123 11 8 13 52 13 60 0 4 -7 42 -10 93 -9 48 1 121 -2 164 -5 62
-5 79 -3 92 10 17 17 22 79 6 89 -5 3 -47 0 -94 -7 -70 -10 -90 -9 -110 1 -13
8 -32 11 -41 7 -13 -5 -12 0 5 23 11 17 34 42 50 58 17 15 30 31 30 34 0 9
-99 51 -111 47 -5 -2 -29 -41 -52 -88 -45 -91 -65 -105 -113 -80 -12 7 -29 10
-37 7 -7 -3 -20 -1 -28 4 -11 7 -11 9 4 9 34 0 29 29 -18 90 -25 33 -49 60
-53 59 -4 -1 -25 -8 -47 -17z"/>
<path d="M350 699 c-39 -33 -191 -105 -240 -114 -22 -4 -50 -18 -50 -25 0 -5
9 -11 20 -15 11 -3 28 -17 38 -29 12 -16 27 -23 43 -21 l24 3 2 -137 3 -136
-39 1 c-22 1 -44 5 -49 8 -6 3 -22 2 -36 -4 -45 -17 -32 -93 15 -91 36 2 280
3 454 1 160 -2 410 1 413 5 2 2 4 20 5 40 1 36 -17 60 -37 48 -5 -4 -31 -7
-58 -9 l-49 -2 6 38 c4 23 2 41 -4 45 -14 8 -14 52 -1 60 6 4 11 32 10 63 0
32 0 66 2 76 2 16 -5 22 -41 29 -29 6 -47 5 -54 -2 -14 -14 -54 -14 -62 -1 -7
12 -153 12 -160 0 -7 -11 -146 -12 -159 0 -6 5 -30 10 -54 12 l-42 3 110 50
c60 28 110 55 110 61 0 14 -64 64 -82 64 -7 -1 -24 -10 -38 -21z m20 -305 c0
-28 3 -78 6 -111 l7 -61 -49 5 c-27 3 -50 7 -52 8 -2 2 -6 50 -9 107 l-6 105
52 -1 51 -1 0 -51z m170 -28 c0 -46 3 -96 6 -112 5 -29 5 -29 -44 -29 l-49 0
1 110 1 110 43 2 42 2 0 -83z m178 -29 l3 -112 -43 0 -43 0 0 107 0 107 30 4
c17 2 35 4 40 5 6 1 11 -43 13 -111z"/>
<path d="M585 690 c-33 -35 -30 -39 40 -65 28 -10 93 -39 145 -66 l95 -49 32
38 c18 20 32 41 33 45 0 14 -275 127 -309 127 -4 0 -20 -14 -36 -30z"/>
</g>
</svg>
