<?xml version="1.0" standalone="no"?>
<!DOCTYPE svg PUBLIC "-//W3C//DTD SVG 20010904//EN"
 "http://www.w3.org/TR/2001/REC-SVG-20010904/DTD/svg10.dtd">
<svg version="1.0" xmlns="http://www.w3.org/2000/svg"
 width="101.000000pt" height="101.000000pt" viewBox="0 0 101.000000 101.000000"
 preserveAspectRatio="xMidYMid meet">
<metadata>
Created by potrace 1.16, written by Peter Selinger 2001-2019
</metadata>
<g transform="translate(0.000000,101.000000) scale(0.100000,-0.100000)"
fill="#000000" stroke="none">
<path d="M303 988 c-39 -13 -40 -20 -9 -61 55 -74 55 -75 -37 -69 -110 7 -155
7 -162 1 -2 -3 -8 -19 -11 -36 -6 -30 18 -69 36 -58 5 3 80 8 167 10 l158 6 0
-35 0 -35 -141 4 -142 5 -6 -26 c-14 -53 -3 -61 84 -62 44 0 82 4 85 9 7 10
78 12 113 3 19 -5 23 -12 20 -38 l-3 -31 -186 4 -187 3 -7 -31 c-3 -17 -4 -39
0 -50 5 -18 16 -19 213 -15 229 4 280 4 350 3 26 0 63 2 83 6 21 4 45 2 57 -4
15 -8 28 -8 47 1 18 8 35 8 60 1 30 -10 35 -9 40 8 4 11 4 33 0 49 l-6 29
-188 -2 -187 -2 4 28 c3 21 10 27 28 27 13 0 24 5 24 11 0 12 163 7 207 -6 25
-8 38 18 28 57 -6 22 -11 24 -60 24 -29 -1 -57 -4 -61 -8 -11 -12 -48 -10 -61
3 -6 6 -33 9 -60 8 l-48 -4 3 30 4 30 174 0 c160 0 175 2 180 18 3 10 3 29 0
41 -5 21 -10 22 -73 19 -38 -2 -94 0 -125 4 l-58 8 30 32 c17 18 38 37 48 42
15 9 15 11 2 24 -15 15 -73 37 -95 37 -7 0 -24 -24 -39 -52 -43 -87 -57 -100
-114 -106 -36 -3 -57 0 -73 12 -15 10 -18 16 -9 16 8 0 22 4 30 10 12 7 8 18
-24 64 -40 58 -48 61 -103 44z"/>
<path d="M167 442 c-13 -3 -17 -14 -17 -52 0 -27 5 -50 11 -52 8 -3 9 -25 4
-71 l-7 -68 -58 5 c-64 6 -71 -1 -62 -62 4 -30 5 -31 46 -26 22 4 84 6 136 6
52 -1 124 -1 160 -1 126 0 267 -2 427 -4 l161 -2 5 29 c9 60 1 66 -68 61 l-64
-4 5 107 c2 59 1 112 -3 118 -6 8 -26 9 -63 3 -89 -12 -198 -11 -204 4 -5 10
-7 10 -12 0 -7 -15 -74 -18 -74 -3 0 6 -18 10 -40 10 -22 0 -40 -4 -40 -10 0
-12 -67 -13 -72 -1 -3 9 -138 19 -171 13z m589 -97 c0 -11 3 -31 7 -45 5 -14
4 -43 -1 -65 -8 -38 -10 -40 -43 -37 -19 1 -44 3 -56 3 -17 1 -22 9 -28 45 -3
24 -2 52 4 63 6 11 8 27 4 36 -5 14 -2 16 13 11 10 -3 26 -1 34 4 25 17 65 8
66 -15z m-401 -3 c-2 -7 0 -23 6 -36 7 -15 8 -38 2 -67 -9 -43 -10 -44 -43
-41 -19 1 -45 3 -57 3 -17 1 -22 9 -28 45 -3 24 -2 52 4 63 6 11 9 26 6 33 -4
10 9 13 55 13 44 0 59 -3 55 -13z m201 2 c-3 -8 -1 -25 5 -38 7 -15 8 -38 2
-67 -9 -43 -10 -44 -43 -41 -19 1 -45 3 -57 3 -17 1 -22 9 -28 45 -3 24 -2 52
4 63 6 11 9 26 6 33 -4 10 10 13 56 14 48 2 59 -1 55 -12z"/>
</g>
</svg>
