<?xml version="1.0" standalone="no"?>
<!DOCTYPE svg PUBLIC "-//W3C//DTD SVG 20010904//EN"
 "http://www.w3.org/TR/2001/REC-SVG-20010904/DTD/svg10.dtd">
<svg version="1.0" xmlns="http://www.w3.org/2000/svg"
 width="101.000000pt" height="101.000000pt" viewBox="0 0 101.000000 101.000000"
 preserveAspectRatio="xMidYMid meet">
<metadata>
Created by potrace 1.16, written by Peter Selinger 2001-2019
</metadata>
<g transform="translate(0.000000,101.000000) scale(0.100000,-0.100000)"
fill="#000000" stroke="none">
<path d="M176 942 c-5 -20 -3 -45 4 -62 7 -18 10 -49 6 -82 -4 -29 -6 -80 -6
-113 0 -33 0 -105 0 -160 0 -55 -1 -174 -1 -265 l-1 -165 32 -3 c62 -6 103 19
83 51 -4 6 -7 20 -8 31 0 20 6 21 110 24 204 6 315 6 321 -1 4 -3 6 -24 6 -46
-1 -38 1 -41 34 -47 18 -3 44 -4 56 -1 23 6 23 7 21 179 -4 283 -4 365 1 524
l5 151 -147 8 c-103 5 -147 4 -150 -4 -5 -14 -162 -15 -162 -1 0 6 -18 10 -40
10 -22 0 -40 -4 -40 -10 0 -15 -107 -13 -113 3 -2 6 -7 -3 -11 -21z m391 -74
c7 -5 44 -8 83 -6 l70 3 0 -31 c0 -17 3 -46 6 -63 l6 -31 -74 6 c-52 5 -77 3
-82 -5 -9 -14 -53 -15 -61 -1 -4 7 -51 10 -123 9 -115 -2 -117 -2 -120 21 -2
13 2 33 8 46 7 12 10 29 8 36 -4 10 6 13 43 11 26 -2 50 1 54 7 8 13 166 11
182 -2z m58 -210 l100 2 1 -72 1 -73 -80 2 c-44 2 -85 -1 -91 -6 -16 -13 -147
-13 -162 0 -8 6 -36 9 -64 7 l-50 -3 3 70 2 70 72 -4 c41 -2 79 2 90 8 10 6
31 8 48 5 17 -4 75 -6 130 -6z m-205 -228 c0 -6 30 -10 70 -10 40 0 70 4 70
10 0 6 11 10 25 10 14 0 25 -5 25 -11 0 -8 19 -10 58 -7 l57 4 2 -70 c2 -47
-1 -72 -10 -78 -17 -11 -135 -10 -142 2 -7 12 -113 11 -121 -1 -7 -13 -48 -11
-61 2 -6 6 -33 9 -60 8 l-48 -4 0 68 0 67 43 0 c23 0 42 5 42 10 0 6 11 10 25
10 14 0 25 -4 25 -10z"/>
</g>
</svg>
