<?xml version="1.0" standalone="no"?>
<!DOCTYPE svg PUBLIC "-//W3C//DTD SVG 20010904//EN"
 "http://www.w3.org/TR/2001/REC-SVG-20010904/DTD/svg10.dtd">
<svg version="1.0" xmlns="http://www.w3.org/2000/svg"
 width="101.000000pt" height="101.000000pt" viewBox="0 0 101.000000 101.000000"
 preserveAspectRatio="xMidYMid meet">
<metadata>
Created by potrace 1.16, written by Peter Selinger 2001-2019
</metadata>
<g transform="translate(0.000000,101.000000) scale(0.100000,-0.100000)"
fill="#000000" stroke="none">
<path d="M428 973 c-24 -6 -32 -42 -18 -77 l11 -29 72 7 c39 4 83 9 97 10 l25
4 1 -177 2 -176 -37 0 -36 0 3 115 c2 63 8 119 13 125 5 5 9 12 9 16 0 11 -57
31 -81 27 -21 -3 -22 -7 -20 -85 2 -55 -1 -83 -9 -83 -7 0 -10 -33 -8 -105 3
-109 5 -113 48 -105 8 1 44 4 80 6 36 2 92 6 125 9 80 7 128 -2 121 -21 -3 -8
0 -25 6 -39 8 -18 8 -28 0 -38 -6 -7 -14 -28 -17 -47 -7 -41 -27 -65 -72 -87
-26 -12 -39 -13 -57 -5 -33 15 -69 4 -60 -17 4 -9 12 -32 19 -50 14 -38 39
-53 70 -40 11 5 40 13 64 20 81 20 129 92 137 204 2 22 5 56 8 75 3 19 8 105
11 190 l5 156 -112 -1 -113 0 0 65 0 65 55 -2 c30 0 67 -4 83 -8 59 -15 99 21
82 76 -6 17 -16 19 -93 18 -48 0 -115 0 -149 0 -35 0 -91 0 -125 -1 -35 0 -76
2 -93 5 -16 3 -38 3 -47 0z m397 -376 l0 -72 -35 3 c-19 1 -46 3 -59 3 -21 1
-23 4 -17 37 3 21 6 49 6 64 0 25 3 27 53 31 28 2 52 4 52 5 0 1 0 -31 0 -71z"/>
<path d="M345 960 c-11 -4 -78 -7 -148 -6 l-127 2 0 -48 c0 -26 5 -48 10 -48
6 0 10 -16 10 -35 0 -19 -4 -35 -10 -35 -6 0 -10 -30 -10 -70 0 -40 4 -70 10
-70 6 0 10 -11 10 -25 0 -14 -4 -25 -10 -25 -6 0 -10 -40 -10 -100 0 -69 4
-100 11 -100 12 0 7 -161 -6 -206 -8 -25 13 -34 61 -27 27 4 31 9 32 41 3 76
4 80 26 81 11 0 37 2 56 3 29 3 35 0 36 -17 1 -11 2 -30 3 -41 1 -24 26 -34
66 -27 l26 6 -1 111 c0 61 0 166 0 234 1 67 1 137 1 155 0 17 2 80 4 139 4
112 0 123 -40 108z m-50 -145 l0 -60 -62 3 -61 4 1 56 2 57 60 0 60 0 0 -60z
m0 -190 l0 -60 -60 0 -60 0 0 60 0 60 60 0 60 0 0 -60z m-9 -133 c5 -4 11 -16
12 -27 1 -11 4 -34 7 -51 9 -43 -17 -68 -59 -59 -17 3 -41 6 -54 7 -27 0 -40
38 -24 74 7 13 9 31 5 40 -5 13 -2 15 13 10 10 -3 26 -1 34 4 18 11 51 13 66
2z"/>
</g>
</svg>
