<?xml version="1.0" standalone="no"?>
<!DOCTYPE svg PUBLIC "-//W3C//DTD SVG 20010904//EN"
 "http://www.w3.org/TR/2001/REC-SVG-20010904/DTD/svg10.dtd">
<svg version="1.0" xmlns="http://www.w3.org/2000/svg"
 width="101.000000pt" height="101.000000pt" viewBox="0 0 101.000000 101.000000"
 preserveAspectRatio="xMidYMid meet">
<metadata>
Created by potrace 1.16, written by Peter Selinger 2001-2019
</metadata>
<g transform="translate(0.000000,101.000000) scale(0.100000,-0.100000)"
fill="#000000" stroke="none">
<path d="M155 950 c-4 -16 -3 -34 0 -41 11 -16 4 -299 -9 -424 -13 -114 -43
-209 -91 -285 -14 -23 -25 -43 -23 -44 3 -3 99 -36 104 -36 10 0 90 238 101
300 10 63 20 190 19 235 l-2 50 49 -4 c27 -1 54 2 60 8 13 13 54 15 61 2 8
-13 105 -12 125 1 12 7 66 8 177 1 167 -9 180 -6 168 32 -6 18 -9 166 -4 190
9 38 1 43 -75 44 -44 1 -75 -3 -75 -9 0 -5 -11 -10 -25 -10 -14 0 -25 5 -25
10 0 6 -30 10 -70 10 -40 0 -70 -4 -70 -10 0 -6 -33 -10 -80 -10 -47 0 -80 4
-80 10 0 6 -18 10 -40 10 -22 0 -40 -4 -40 -10 0 -5 -25 -10 -55 -10 -30 0
-55 5 -55 10 0 6 -9 10 -19 10 -13 0 -21 -9 -26 -30z m310 -60 c17 0 20 -7 21
-48 l0 -47 -48 3 c-30 3 -48 0 -48 -7 0 -6 -11 -11 -25 -11 -14 0 -25 5 -25
10 0 6 -18 10 -40 10 -38 0 -40 2 -40 29 0 16 -3 36 -6 44 -4 11 1 13 19 10
14 -3 28 1 32 7 6 9 27 11 74 6 36 -3 75 -6 86 -6z m290 2 c40 -7 40 -7 40
-52 l0 -45 -110 0 -110 0 0 43 0 42 43 0 c23 0 42 5 42 10 0 11 35 12 95 2z"/>
<path d="M310 645 c-7 -8 -10 -25 -6 -39 10 -41 15 -317 6 -341 -6 -15 -5 -35
3 -54 9 -24 9 -36 -1 -51 -18 -29 -15 -60 6 -61 39 -4 87 4 94 15 4 6 5 18 2
27 -3 12 2 17 18 18 13 1 46 3 73 6 28 2 101 1 163 -2 97 -5 112 -8 107 -22
-10 -33 13 -46 76 -43 l25 2 -3 108 c-3 115 -3 164 0 339 2 97 0 112 -13 109
-8 -3 -54 -8 -102 -12 -62 -4 -88 -3 -88 5 0 7 -25 11 -70 11 -40 0 -70 -4
-70 -10 0 -6 -32 -10 -75 -10 -43 0 -75 4 -75 10 0 16 -56 12 -70 -5z m466
-100 c-1 -31 -4 -36 -34 -41 -20 -4 -38 -1 -48 6 -11 10 -18 10 -26 2 -15 -15
-75 -16 -83 -2 -4 6 -40 9 -88 8 l-82 -3 -1 27 -1 28 181 3 c100 1 181 3 182
5 0 1 0 -14 0 -33z m-212 -107 c5 -10 7 -10 12 0 6 13 116 17 171 6 24 -5 30
-11 30 -34 l0 -27 -111 -6 c-61 -3 -133 -4 -161 -2 -27 3 -59 5 -70 6 -14 1
-20 9 -21 25 -2 21 2 24 37 24 21 0 39 5 39 10 0 15 67 12 74 -2z m171 -127
c40 -1 41 -2 42 -40 l2 -38 -112 -6 c-62 -3 -134 -4 -162 -2 -27 3 -60 5 -72
6 -19 1 -22 7 -20 40 1 30 5 38 17 34 8 -2 22 0 30 5 8 5 65 8 125 6 61 -2
128 -5 150 -5z"/>
</g>
</svg>
