<?xml version="1.0" standalone="no"?>
<!DOCTYPE svg PUBLIC "-//W3C//DTD SVG 20010904//EN"
 "http://www.w3.org/TR/2001/REC-SVG-20010904/DTD/svg10.dtd">
<svg version="1.0" xmlns="http://www.w3.org/2000/svg"
 width="101.000000pt" height="101.000000pt" viewBox="0 0 101.000000 101.000000"
 preserveAspectRatio="xMidYMid meet">
<metadata>
Created by potrace 1.16, written by Peter Selinger 2001-2019
</metadata>
<g transform="translate(0.000000,101.000000) scale(0.100000,-0.100000)"
fill="#000000" stroke="none">
<path d="M468 993 c-2 -23 -1 -33 6 -61 5 -22 4 -23 -79 -20 l-84 3 26 27 25
27 -37 15 c-57 24 -67 20 -100 -36 -16 -28 -59 -82 -94 -120 -35 -38 -62 -70
-60 -71 10 -8 101 -39 103 -36 2 2 20 27 42 54 l39 50 106 3 106 3 5 -25 5
-25 -102 4 c-56 2 -106 5 -111 6 -34 6 -53 -35 -33 -72 10 -20 17 -21 88 -15
42 3 94 9 116 12 39 5 40 4 40 -23 l0 -28 -213 0 c-227 0 -232 -1 -232 -50 0
-32 14 -45 52 -51 24 -4 39 -1 51 10 19 19 73 21 81 4 5 -10 7 -10 12 0 7 15
164 17 164 2 0 -5 18 -10 40 -10 22 0 40 5 40 10 0 6 33 10 80 10 47 0 80 -4
80 -10 0 -6 30 -10 70 -10 40 0 70 4 70 10 0 6 11 10 25 10 14 0 25 -5 25 -11
0 -17 130 -5 141 12 5 8 8 27 7 43 l-3 29 -200 1 -200 1 -1 25 -1 25 127 -1
127 0 -1 35 c-1 44 -14 55 -43 36 -26 -17 -153 -21 -153 -5 0 6 -11 10 -25 10
-14 0 -25 2 -25 4 0 2 -2 10 -5 18 -4 10 6 12 45 10 29 -2 57 1 64 8 10 8 44
9 114 4 88 -6 100 -5 105 10 4 10 4 28 1 40 -5 23 -10 24 -152 30 -81 4 -156
4 -166 0 -11 -4 -17 -4 -13 2 3 5 8 28 12 52 l6 42 -56 0 c-45 0 -55 -3 -57
-17z"/>
<path d="M212 541 c-15 -9 -15 -21 -7 -111 15 -159 15 -227 1 -268 -23 -65
-12 -78 59 -73 32 3 46 16 38 37 -5 14 3 15 147 15 258 -1 272 -2 267 -15 -10
-25 11 -40 54 -39 23 1 43 3 44 5 2 2 -1 49 -6 106 -9 99 -7 178 6 291 l6 54
-105 -7 c-65 -5 -106 -4 -110 3 -8 12 -94 12 -101 0 -7 -11 -173 -10 -180 0
-6 11 -97 12 -113 2z m419 -62 c85 0 87 0 85 -24 -1 -27 18 -25 -276 -26 -147
0 -145 0 -146 28 -2 18 2 22 15 19 9 -3 23 -1 31 4 8 5 57 7 110 4 52 -2 134
-4 181 -5z m0 -110 c85 0 87 0 85 -24 -1 -27 18 -25 -276 -26 -147 0 -145 0
-146 28 -2 18 2 22 15 19 9 -3 23 -1 31 4 8 5 57 7 110 4 52 -2 134 -4 181 -5z
m0 -110 l86 0 0 -29 0 -29 -86 -1 c-361 -2 -338 -4 -338 31 0 22 4 28 16 24 9
-2 23 0 31 5 8 5 57 7 110 4 52 -2 134 -4 181 -5z"/>
</g>
</svg>
