<?xml version="1.0" standalone="no"?>
<!DOCTYPE svg PUBLIC "-//W3C//DTD SVG 20010904//EN"
 "http://www.w3.org/TR/2001/REC-SVG-20010904/DTD/svg10.dtd">
<svg version="1.0" xmlns="http://www.w3.org/2000/svg"
 width="101.000000pt" height="101.000000pt" viewBox="0 0 101.000000 101.000000"
 preserveAspectRatio="xMidYMid meet">
<metadata>
Created by potrace 1.16, written by Peter Selinger 2001-2019
</metadata>
<g transform="translate(0.000000,101.000000) scale(0.100000,-0.100000)"
fill="#000000" stroke="none">
<path d="M555 942 c-18 -41 -52 -90 -87 -128 l-57 -61 39 -26 40 -26 44 55 45
55 106 5 c99 4 105 3 96 -13 -14 -27 -87 -103 -97 -103 -5 1 -22 21 -37 45
l-28 45 -40 -20 c-21 -11 -39 -23 -39 -26 0 -3 16 -25 36 -47 l35 -42 -38 -17
c-59 -25 -156 -38 -172 -23 -10 11 -12 197 -2 208 10 13 13 69 5 99 -4 13 -14
15 -64 11 -41 -4 -60 -2 -60 6 0 6 -17 11 -40 11 -22 0 -40 -5 -40 -11 0 -7
-21 -10 -60 -7 -60 3 -68 -2 -60 -37 1 -5 2 -63 1 -127 -1 -70 3 -119 9 -123
13 -8 13 -52 0 -60 -13 -8 -12 -206 2 -222 10 -13 6 -100 -8 -172 -7 -32 10
-41 64 -33 30 4 32 7 30 43 -1 22 1 41 3 43 2 2 31 5 64 8 l61 4 -4 -26 c-2
-16 3 -34 13 -43 17 -17 62 -22 80 -9 14 10 20 252 6 252 -7 0 -11 27 -11 75
0 41 4 75 9 75 5 0 23 -17 40 -37 l31 -37 75 31 c57 23 72 27 66 14 -14 -25
-122 -125 -158 -146 -18 -11 -33 -22 -33 -25 0 -3 17 -22 36 -43 l36 -39 37
33 c20 19 55 51 77 72 41 38 44 39 128 42 47 2 86 2 86 -1 0 -20 -68 -124 -81
-124 -4 0 -20 20 -36 45 -15 25 -31 45 -35 45 -4 0 -23 -10 -43 -21 l-36 -21
34 -42 c18 -22 37 -47 41 -54 10 -16 -123 -79 -181 -86 -72 -8 -76 -15 -32
-64 l38 -43 84 34 c110 44 197 105 253 175 45 56 107 172 119 222 l6 25 -120
0 c-67 0 -121 1 -121 3 0 2 12 14 26 27 26 24 25 45 -2 45 -23 0 -18 7 49 74
74 74 148 203 126 217 -8 5 -21 6 -29 2 -35 -14 -152 -26 -159 -15 -3 6 -24
12 -46 14 l-40 3 34 33 c37 36 35 43 -18 61 -57 19 -64 15 -96 -57z m-250
-145 l0 -59 -35 6 c-19 3 -49 6 -66 6 -32 0 -32 0 -30 53 l1 52 65 0 65 0 0
-58z m0 -195 l0 -57 -62 3 c-57 3 -63 6 -64 25 0 12 -1 36 -2 52 l-2 30 65 2
65 2 0 -57z m0 -205 l0 -63 -65 0 -65 1 0 57 0 57 45 4 c25 2 54 4 65 5 18 2
20 -4 20 -61z"/>
</g>
</svg>
