<?xml version="1.0" standalone="no"?>
<!DOCTYPE svg PUBLIC "-//W3C//DTD SVG 20010904//EN"
 "http://www.w3.org/TR/2001/REC-SVG-20010904/DTD/svg10.dtd">
<svg version="1.0" xmlns="http://www.w3.org/2000/svg"
 width="101.000000pt" height="101.000000pt" viewBox="0 0 101.000000 101.000000"
 preserveAspectRatio="xMidYMid meet">
<metadata>
Created by potrace 1.16, written by Peter Selinger 2001-2019
</metadata>
<g transform="translate(0.000000,101.000000) scale(0.100000,-0.100000)"
fill="#000000" stroke="none">
<path d="M438 963 c-17 -4 -23 -17 -18 -38 7 -30 12 -446 7 -653 -3 -139 -3
-140 43 -133 8 2 38 5 65 7 155 13 186 13 225 -1 29 -10 47 -12 60 -5 10 5 45
7 78 4 l59 -7 5 34 c10 64 8 65 -105 61 -102 -3 -282 -4 -325 -1 -21 1 -22 4
-16 53 7 54 14 73 14 38 0 -18 5 -20 38 -15 59 8 221 9 293 1 66 -7 67 -7 72
18 10 55 0 64 -67 64 -114 -1 -115 -1 -122 35 -3 18 -1 42 5 53 6 11 8 27 5
36 -5 12 1 14 33 11 21 -3 45 -6 53 -6 42 -5 58 2 63 27 10 53 2 59 -76 59
l-72 0 0 63 c0 58 1 63 20 57 94 -29 149 -11 143 49 -3 27 -7 31 -28 28 -90
-11 -182 -13 -193 -4 -7 6 -45 10 -84 10 -71 -1 -72 -1 -78 -29 -10 -45 9 -69
55 -69 21 0 49 4 62 9 22 8 23 7 23 -53 l0 -61 -65 0 c-65 0 -65 0 -68 -30 -4
-54 6 -59 98 -53 29 3 35 0 35 -17 0 -11 4 -30 9 -43 14 -41 0 -70 -38 -77
-19 -4 -43 -2 -53 4 -25 13 -61 4 -66 -18 -3 -9 -5 -4 -6 11 0 15 -5 30 -11
33 -13 8 -13 152 0 160 12 7 11 113 -1 121 -13 7 -11 48 2 61 6 6 9 33 8 60
l-4 48 77 -3 c46 -2 79 1 83 7 8 14 52 14 60 1 4 -6 34 -8 73 -6 37 2 81 5 99
5 35 1 49 25 39 65 -6 23 -9 23 -98 20 -51 -2 -119 -6 -152 -10 -34 -4 -61 -2
-65 3 -6 11 -164 23 -193 16z"/>
<path d="M59 941 c-1 -9 0 -20 1 -26 1 -5 2 -60 1 -122 0 -64 3 -114 9 -118
12 -7 12 -153 -1 -160 -5 -3 -8 -61 -8 -128 0 -67 0 -133 0 -147 0 -106 4
-112 67 -102 34 5 43 27 20 50 -9 9 -9 18 0 37 6 13 9 32 5 42 -5 12 -2 15 10
10 10 -4 28 -2 41 5 14 6 35 8 48 5 20 -5 24 -13 25 -48 2 -51 5 -53 50 -52
38 1 57 18 47 43 -17 42 -26 173 -15 208 7 23 10 76 6 142 -6 120 -6 127 0
274 l3 108 -26 -6 c-63 -14 -132 -18 -144 -8 -7 5 -41 10 -75 10 -51 0 -63 -3
-64 -17z m216 -129 l0 -67 -64 -3 -64 -3 6 38 c4 21 7 50 7 65 0 25 3 27 53
31 28 2 54 4 57 5 3 1 5 -28 5 -66z m2 -199 c2 -60 0 -63 -23 -69 -14 -4 -36
-2 -50 4 -13 7 -29 9 -36 7 -10 -4 -12 10 -10 57 l4 63 56 0 57 1 2 -63z m-11
-131 c5 -4 11 -16 12 -27 1 -11 4 -34 7 -51 9 -43 -17 -68 -59 -59 -17 3 -41
6 -54 7 -27 0 -40 38 -24 74 7 13 9 31 5 40 -5 13 -2 15 13 10 10 -3 26 -1 34
4 18 11 51 13 66 2z"/>
</g>
</svg>
