<?xml version="1.0" standalone="no"?>
<!DOCTYPE svg PUBLIC "-//W3C//DTD SVG 20010904//EN"
 "http://www.w3.org/TR/2001/REC-SVG-20010904/DTD/svg10.dtd">
<svg version="1.0" xmlns="http://www.w3.org/2000/svg"
 width="101.000000pt" height="101.000000pt" viewBox="0 0 101.000000 101.000000"
 preserveAspectRatio="xMidYMid meet">
<metadata>
Created by potrace 1.16, written by Peter Selinger 2001-2019
</metadata>
<g transform="translate(0.000000,101.000000) scale(0.100000,-0.100000)"
fill="#000000" stroke="none">
<path d="M515 978 c-6 -37 1 -213 11 -269 7 -41 -10 -63 -20 -25 -3 13 -19 54
-36 91 -27 60 -33 67 -53 61 -53 -16 -53 -16 -49 20 2 19 1 50 -2 69 l-7 34
-147 -2 -147 -2 -3 -47 c-2 -29 1 -48 7 -48 6 0 11 -16 11 -35 0 -19 -4 -35
-10 -35 -6 0 -10 -30 -10 -70 0 -40 4 -70 10 -70 6 0 10 -11 10 -25 0 -14 -4
-25 -10 -25 -6 0 -10 -40 -10 -100 0 -60 4 -100 10 -100 14 0 13 -137 0 -142
-7 -2 -8 -19 -4 -45 7 -45 20 -53 70 -46 30 5 31 6 28 53 -2 43 0 48 19 49 12
0 36 2 52 3 29 3 30 1 28 -34 -2 -40 11 -48 64 -41 31 5 32 5 32 67 1 33 2 87
3 118 l3 57 19 -36 19 -37 58 64 c63 70 63 70 44 -25 -20 -96 -94 -189 -180
-226 -30 -13 -55 -27 -55 -30 0 -4 11 -14 24 -22 13 -9 31 -23 40 -33 23 -22
45 -12 119 56 86 79 133 172 143 280 2 25 9 100 15 168 7 83 8 127 1 135 -13
15 -15 174 -2 182 5 3 8 23 8 44 0 42 -12 51 -70 51 -23 0 -28 -5 -33 -32z
m-248 -162 l2 -64 -55 2 -55 1 5 29 c3 16 6 41 6 57 0 26 3 28 48 32 26 2 47
4 47 5 0 1 1 -27 2 -62z m141 -139 l28 -76 41 19 41 18 -2 -26 c-1 -19 -19
-40 -74 -84 -40 -32 -74 -58 -76 -58 -1 0 -1 29 1 64 2 36 -1 67 -7 71 -13 8
-13 52 0 60 6 3 10 27 10 52 0 26 2 44 5 41 3 -3 18 -39 33 -81z m-130 -58
l-3 -61 -57 -1 c-64 -2 -64 -2 -52 75 7 39 15 44 82 47 l33 1 -3 -61z m-13
-209 l0 -65 -30 3 c-16 1 -39 3 -50 3 -18 1 -20 7 -17 63 l3 61 47 0 47 0 0
-65z"/>
<path d="M654 983 c-3 -12 -3 -27 1 -34 4 -6 7 -62 6 -125 0 -64 3 -115 9
-119 11 -7 12 -153 0 -160 -12 -7 -12 -153 0 -160 13 -8 13 -52 0 -60 -15 -9
-5 -152 12 -172 22 -27 76 -45 99 -33 11 6 38 8 62 5 34 -5 47 -2 69 14 23 19
67 107 57 114 -43 29 -92 58 -94 55 -2 -2 -7 -19 -10 -38 -10 -57 -41 -79 -88
-61 -19 8 -27 19 -32 52 -5 30 -3 44 6 51 11 7 11 11 2 15 -15 5 -18 73 -4 73
6 0 11 17 13 38 l3 37 45 -57 45 -58 40 41 40 40 -55 51 c-30 28 -71 62 -90
77 -52 39 -44 84 11 56 25 -14 27 -13 33 8 3 12 28 60 56 106 27 46 50 85 50
87 0 4 -81 34 -93 34 -8 0 -21 -26 -31 -57 -10 -32 -29 -78 -41 -103 l-23 -45
3 145 c2 80 7 159 10 175 l7 30 -57 0 c-49 0 -56 -3 -61 -22z"/>
</g>
</svg>
