<?xml version="1.0" standalone="no"?>
<!DOCTYPE svg PUBLIC "-//W3C//DTD SVG 20010904//EN"
 "http://www.w3.org/TR/2001/REC-SVG-20010904/DTD/svg10.dtd">
<svg version="1.0" xmlns="http://www.w3.org/2000/svg"
 width="101.000000pt" height="101.000000pt" viewBox="0 0 101.000000 101.000000"
 preserveAspectRatio="xMidYMid meet">
<metadata>
Created by potrace 1.16, written by Peter Selinger 2001-2019
</metadata>
<g transform="translate(0.000000,101.000000) scale(0.100000,-0.100000)"
fill="#000000" stroke="none">
<path d="M540 969 c-30 -11 -55 -19 -55 -18 0 0 -12 -2 -26 -6 l-26 -7 0 -224
c1 -246 -4 -229 64 -225 l32 2 -4 -58 c-7 -129 -81 -217 -212 -252 l-42 -12
40 -41 41 -42 55 29 c129 67 218 211 216 351 -1 16 5 21 22 20 26 -1 26 3 29
-171 4 -187 1 -174 41 -191 27 -11 41 -12 56 -4 11 7 38 8 64 4 69 -10 111 27
130 114 5 25 3 32 -8 32 -9 0 -29 11 -45 25 l-30 25 -7 -39 c-3 -22 -12 -47
-19 -56 -14 -19 -72 -23 -89 -6 -10 10 -14 149 -6 247 1 22 5 23 80 26 l37 2
7 89 c5 62 3 98 -6 119 -10 24 -10 37 0 64 7 19 11 67 10 108 l-3 74 -60 6
c-94 10 -154 7 -160 -6 -3 -9 -12 -4 -26 15 -25 32 -28 32 -100 6z m129 -66
c-4 -28 4 -32 61 -30 39 1 60 -2 60 -9 0 -6 3 -31 6 -55 l6 -44 -61 3 c-59 4
-61 3 -72 -24 -17 -47 2 -74 51 -74 23 0 49 4 58 9 15 8 17 2 18 -50 l2 -58
-42 -6 c-22 -3 -75 -3 -116 0 -41 3 -84 6 -96 6 -18 1 -20 7 -20 54 l1 53 32
-5 c66 -11 104 17 88 66 -4 13 -15 18 -38 18 -86 0 -82 -4 -82 67 0 70 -6 64
73 66 13 0 31 4 40 10 21 11 32 13 31 3z"/>
<path d="M86 827 c5 -148 5 -234 1 -499 -2 -172 -5 -164 58 -159 34 3 47 18
39 44 -3 10 -7 30 -9 46 -3 24 0 29 18 30 12 0 36 2 52 3 24 2 30 -1 31 -17 2
-47 5 -53 23 -58 10 -2 31 -2 46 1 l27 5 -7 97 c-4 64 -3 100 4 104 13 8 14
213 1 221 -13 8 -13 52 0 60 6 4 10 58 9 136 l-2 130 -31 -8 c-32 -8 -107 -8
-208 0 l-56 5 4 -141z m189 -4 l0 -68 -50 0 -50 0 0 60 0 60 45 6 c25 3 47 7
50 7 3 1 5 -28 5 -65z m-1 -208 c-1 -60 -1 -60 -30 -57 -16 1 -40 3 -53 3 -20
1 -22 5 -17 31 3 17 6 42 6 57 0 24 3 26 48 26 l47 0 -1 -60z m3 -145 c1 -14
5 -39 8 -56 9 -39 -13 -60 -52 -48 -16 4 -37 8 -48 8 -17 1 -20 7 -17 36 1 19
3 45 3 58 1 16 6 21 18 18 9 -3 23 -1 31 4 26 17 55 7 57 -20z"/>
</g>
</svg>
