<?xml version="1.0" standalone="no"?>
<!DOCTYPE svg PUBLIC "-//W3C//DTD SVG 20010904//EN"
 "http://www.w3.org/TR/2001/REC-SVG-20010904/DTD/svg10.dtd">
<svg version="1.0" xmlns="http://www.w3.org/2000/svg"
 width="101.000000pt" height="102.000000pt" viewBox="0 0 101.000000 102.000000"
 preserveAspectRatio="xMidYMid meet">
<metadata>
Created by potrace 1.16, written by Peter Selinger 2001-2019
</metadata>
<g transform="translate(0.000000,102.000000) scale(0.100000,-0.100000)"
fill="#000000" stroke="none">
<path d="M545 990 c-4 -16 -3 -40 1 -52 18 -54 15 -57 -52 -53 -62 4 -63 3
-69 -25 -13 -58 -1 -69 68 -67 l62 2 2 -40 2 -40 -52 3 c-96 4 -127 12 -127
33 0 10 -4 19 -10 19 -5 0 -10 16 -10 35 0 19 5 35 10 35 12 0 14 86 3 93 -5
3 -50 0 -101 -5 -66 -8 -99 -8 -115 0 -32 16 -76 12 -81 -7 -8 -30 -5 -90 4
-96 12 -8 12 -173 -1 -180 -12 -8 -12 -142 1 -150 13 -8 13 -52 -1 -60 -6 -5
-9 -57 -7 -150 3 -157 3 -157 64 -148 27 4 31 9 32 41 3 76 4 80 26 81 11 0
37 2 56 3 34 3 35 2 33 -34 -2 -40 11 -48 64 -41 29 5 31 7 22 32 -5 14 -7 58
-4 96 3 39 6 81 6 95 l1 24 19 -24 c10 -14 19 -29 19 -34 0 -4 11 -1 24 7 29
19 28 27 28 -160 1 -144 3 -147 62 -136 25 5 31 17 28 54 -1 11 7 17 21 18 12
1 49 3 82 6 33 3 74 3 91 0 26 -5 31 -10 31 -35 0 -17 3 -33 7 -37 7 -7 74 -8
82 -1 8 9 6 76 -5 129 -11 54 -9 173 4 249 8 45 8 80 2 87 -3 3 -21 0 -39 -5
-18 -6 -58 -9 -88 -6 -30 2 -65 4 -77 5 -18 1 -21 5 -14 18 18 33 52 54 93 57
68 5 72 5 98 5 111 0 120 2 125 19 3 10 3 29 0 42 -6 23 -9 24 -99 23 l-94 0
41 50 c22 28 54 64 70 81 l29 32 -44 26 c-57 33 -63 33 -78 -4 -12 -28 -30
-41 -30 -21 0 5 -28 9 -63 8 l-63 -2 2 36 c1 20 7 45 13 57 16 30 15 31 -24
25 -23 -4 -35 -2 -35 6 0 6 -9 11 -19 11 -13 0 -21 -9 -26 -30z m-260 -198 l0
-67 -60 -3 -61 -3 1 63 0 63 45 6 c25 3 52 7 60 7 12 2 15 -11 15 -66z m445 2
c0 -2 -12 -21 -27 -42 -21 -27 -34 -36 -51 -34 -16 3 -22 8 -18 19 3 8 6 24 6
36 0 19 6 22 45 23 25 1 45 0 45 -2z m-495 -144 l43 0 4 -60 c3 -57 1 -61 -20
-67 -13 -3 -34 -1 -48 5 -13 7 -30 9 -37 7 -9 -4 -12 11 -12 60 0 50 3 64 13
60 8 -3 33 -5 57 -5z m330 -57 c-34 -32 -51 -41 -62 -34 -9 4 -25 6 -35 3 -15
-4 -18 -10 -13 -29 6 -26 -5 -40 -56 -68 l-27 -14 6 64 c3 45 1 65 -7 65 -6 0
-11 11 -11 25 0 25 2 25 48 20 26 -3 67 -2 90 2 24 4 60 8 79 8 l35 0 -47 -42z
m185 -109 c23 -4 26 -10 28 -49 1 -43 0 -44 -31 -50 -17 -3 -61 -3 -97 0 -36
3 -75 6 -87 6 -19 1 -22 7 -20 40 1 37 18 56 38 43 5 -3 17 -1 26 5 19 10 99
13 143 5z m-474 -22 c5 -4 11 -16 12 -27 1 -11 4 -34 7 -51 9 -43 -17 -68 -59
-59 -17 3 -41 6 -54 7 -27 0 -40 38 -24 74 7 13 9 31 5 40 -5 13 -2 15 13 10
10 -3 26 -1 34 4 18 11 51 13 66 2z m474 -138 c23 -4 26 -10 28 -49 1 -43 0
-44 -31 -50 -17 -3 -61 -3 -97 0 -36 3 -75 6 -87 6 -20 1 -22 6 -21 45 2 34 6
43 18 39 8 -2 21 -1 29 4 15 10 121 13 161 5z"/>
</g>
</svg>
