<?xml version="1.0" standalone="no"?>
<!DOCTYPE svg PUBLIC "-//W3C//DTD SVG 20010904//EN"
 "http://www.w3.org/TR/2001/REC-SVG-20010904/DTD/svg10.dtd">
<svg version="1.0" xmlns="http://www.w3.org/2000/svg"
 width="101.000000pt" height="101.000000pt" viewBox="0 0 101.000000 101.000000"
 preserveAspectRatio="xMidYMid meet">
<metadata>
Created by potrace 1.16, written by Peter Selinger 2001-2019
</metadata>
<g transform="translate(0.000000,101.000000) scale(0.100000,-0.100000)"
fill="#000000" stroke="none">
<path d="M680 983 c-8 -4 -18 -10 -21 -15 -3 -5 -62 -10 -130 -11 l-124 -2 -3
-31 c-4 -44 19 -64 74 -64 25 0 54 5 65 10 15 8 19 7 19 -4 0 -8 -5 -18 -10
-21 -6 -4 -10 -12 -9 -18 4 -35 -3 -37 -38 -8 l-38 31 -30 -30 -30 -30 47 -41
c47 -40 47 -41 31 -65 -9 -14 -39 -43 -67 -65 l-51 -38 -7 47 c-9 70 -9 182 1
182 10 0 22 116 14 136 -6 16 -39 19 -48 4 -8 -13 -82 -13 -90 0 -3 5 -29 9
-58 8 -29 0 -56 0 -62 2 -42 11 -43 9 -39 -182 7 -315 3 -534 -10 -574 -11
-37 9 -49 82 -46 29 2 31 4 20 21 -9 15 -9 25 0 45 6 14 9 32 6 40 -4 9 2 14
18 15 13 0 37 2 53 3 29 3 30 2 27 -38 -3 -47 7 -54 68 -47 34 4 35 6 34 46 0
23 -6 58 -13 78 -7 23 -10 67 -6 120 3 46 6 94 6 107 1 28 6 28 54 -5 l39 -26
36 42 c31 35 38 40 44 26 5 -13 15 -16 44 -14 l37 4 -2 -44 c-3 -65 -9 -74
-41 -67 -65 16 -148 23 -157 14 -6 -6 -9 -36 -7 -70 2 -24 6 -26 36 -24 18 2
38 6 45 10 6 4 31 4 56 0 l45 -6 -22 -40 c-30 -52 -96 -111 -164 -144 -48 -24
-69 -44 -45 -44 5 0 23 -14 41 -30 l33 -30 65 47 c37 27 84 72 107 100 22 28
44 52 49 52 6 1 52 -41 104 -93 l94 -94 39 35 c21 19 39 39 39 42 0 6 -131
109 -239 188 -14 10 -12 11 9 13 59 3 123 2 159 -4 38 -6 39 -5 43 26 9 61 1
71 -51 62 -25 -4 -62 -7 -81 -6 -88 4 -82 1 -74 36 4 17 7 41 7 53 -1 19 3 21
31 16 36 -6 72 19 59 40 -4 7 17 -9 46 -35 29 -27 56 -48 60 -48 3 0 23 18 44
39 l38 40 -38 20 c-21 11 -53 33 -72 49 l-35 29 35 31 c19 18 46 37 62 44 15
7 27 15 27 18 0 4 -15 21 -34 39 l-34 33 -42 -46 c-46 -49 -67 -55 -62 -15 4
25 67 88 90 89 21 0 13 25 -19 56 l-30 29 -36 -43 -35 -43 -15 28 c-8 15 -12
35 -10 43 4 17 -24 23 -53 13z m-15 -79 c10 -52 48 -154 70 -193 14 -24 24
-45 22 -47 -2 -2 -45 -1 -95 2 l-91 7 19 36 c10 20 26 63 36 96 24 81 25 87
25 109 0 22 8 16 14 -10z m-390 -89 l0 -60 -52 0 -52 0 2 60 2 60 50 0 50 0 0
-60z m0 -205 l-1 -65 -29 3 c-17 1 -39 3 -50 4 -18 0 -20 7 -20 62 l0 61 50 0
50 0 0 -65z m2 -150 c1 -14 5 -39 8 -56 9 -39 -13 -60 -52 -48 -16 4 -37 8
-48 8 -17 1 -20 7 -17 36 1 19 3 45 3 58 1 16 6 21 18 18 9 -3 23 -1 31 4 26
17 55 7 57 -20z"/>
</g>
</svg>
