<?xml version="1.0" standalone="no"?>
<!DOCTYPE svg PUBLIC "-//W3C//DTD SVG 20010904//EN"
 "http://www.w3.org/TR/2001/REC-SVG-20010904/DTD/svg10.dtd">
<svg version="1.0" xmlns="http://www.w3.org/2000/svg"
 width="101.000000pt" height="102.000000pt" viewBox="0 0 101.000000 102.000000"
 preserveAspectRatio="xMidYMid meet">
<metadata>
Created by potrace 1.16, written by Peter Selinger 2001-2019
</metadata>
<g transform="translate(0.000000,102.000000) scale(0.100000,-0.100000)"
fill="#000000" stroke="none">
<path d="M428 1014 c13 -6 16 -65 6 -125 l-6 -37 -173 4 -173 5 -5 -28 c-9
-50 -7 -125 4 -144 6 -13 20 -19 42 -19 45 0 53 9 53 60 l-1 45 125 2 c69 1
141 2 160 3 19 0 67 0 105 0 39 0 99 2 133 6 35 3 78 3 96 0 32 -6 32 -7 29
-56 -4 -46 -2 -50 22 -56 14 -3 35 -4 48 -1 20 6 22 12 25 95 l2 89 -62 -1
c-35 -1 -67 -4 -73 -8 -17 -10 -148 -8 -161 3 -8 6 -35 9 -62 7 -37 -2 -48 0
-49 12 -1 13 24 15 175 15 107 0 180 4 184 10 17 22 8 56 -17 65 -27 10 -61 8
-188 -11 -62 -10 -82 -10 -101 1 -14 7 -32 10 -42 6 -12 -5 -15 -2 -11 11 13
49 14 48 -43 50 -30 1 -49 0 -42 -3z"/>
<path d="M220 741 c0 -4 -3 -15 -6 -27 -3 -12 1 -28 10 -37 15 -15 11 -19 -53
-49 l-69 -34 29 -19 c16 -11 29 -23 29 -27 0 -18 29 -5 100 43 91 62 85 56 72
71 -8 10 2 13 49 13 l60 0 -53 -47 c-93 -81 -248 -162 -310 -160 -47 1 -52
-21 -14 -62 l34 -37 51 25 c27 14 52 26 55 26 9 0 13 -233 4 -291 -8 -53 -1
-59 64 -51 34 4 37 7 32 27 -5 19 -1 23 18 24 13 1 46 3 73 6 28 2 104 1 171
-2 120 -6 121 -6 116 -29 -5 -26 5 -29 63 -25 40 4 46 16 29 65 -11 29 -13 66
-9 131 3 49 5 100 6 113 1 13 6 21 13 19 73 -28 130 -40 134 -29 2 7 15 26 29
43 14 16 23 32 21 35 -7 6 -44 15 -88 19 -97 11 -212 71 -290 149 l-44 46 36
0 c19 0 51 3 69 6 l34 7 -25 -28 c-21 -23 -23 -29 -10 -37 8 -5 38 -22 65 -39
28 -16 57 -34 66 -41 13 -9 22 -6 47 12 18 13 32 29 32 35 0 6 -26 26 -59 45
-50 29 -56 36 -44 48 8 8 13 25 11 39 -3 24 -5 24 -124 29 -82 4 -124 2 -129
-5 -8 -14 -152 -15 -160 -1 -6 10 -135 11 -135 1z m327 -178 l58 -58 -125 0
-126 0 46 36 c25 20 54 46 64 58 11 11 20 21 22 21 1 0 29 -26 61 -57z m-93
-125 c5 -10 7 -10 12 0 6 13 99 16 177 6 35 -5 45 -11 44 -24 -1 -15 -17 -18
-122 -23 -66 -3 -142 -4 -170 -2 -27 3 -59 5 -71 6 -39 3 -23 29 18 29 21 0
38 5 38 10 0 15 67 12 74 -2z m183 -97 c44 -1 52 -4 50 -20 -1 -16 -13 -19
-122 -24 -66 -3 -142 -4 -170 -2 -27 3 -59 5 -70 6 -13 1 -21 9 -22 21 -1 14
3 17 15 14 9 -3 24 -1 32 4 8 5 65 8 125 6 61 -2 133 -5 162 -5z m-1 -100 c48
-1 52 -3 50 -25 -1 -23 -4 -23 -121 -29 -66 -3 -142 -4 -170 -2 -27 3 -59 5
-70 6 -14 1 -20 9 -21 26 -2 18 2 22 15 19 9 -3 23 -1 31 4 8 5 65 8 125 6 61
-2 133 -5 161 -5z"/>
</g>
</svg>
