<?xml version="1.0" standalone="no"?>
<!DOCTYPE svg PUBLIC "-//W3C//DTD SVG 20010904//EN"
 "http://www.w3.org/TR/2001/REC-SVG-20010904/DTD/svg10.dtd">
<svg version="1.0" xmlns="http://www.w3.org/2000/svg"
 width="101.000000pt" height="101.000000pt" viewBox="0 0 101.000000 101.000000"
 preserveAspectRatio="xMidYMid meet">
<metadata>
Created by potrace 1.16, written by Peter Selinger 2001-2019
</metadata>
<g transform="translate(0.000000,101.000000) scale(0.100000,-0.100000)"
fill="#000000" stroke="none">
<path d="M738 1003 c-19 -5 -33 -57 -26 -101 4 -27 3 -27 -52 -27 -54 0 -56 1
-53 25 4 40 9 59 16 66 15 15 5 19 -48 19 l-54 0 4 -56 5 -57 -67 2 -68 1 -3
-30 c-3 -39 7 -53 44 -61 21 -4 36 -1 47 10 8 9 20 16 26 16 10 0 17 -73 12
-122 -2 -18 13 -23 59 -19 29 3 42 19 34 44 -3 10 -7 30 -9 45 -3 27 -3 27 61
27 35 0 64 -3 64 -7 0 -4 -5 -18 -11 -32 -14 -30 -4 -76 16 -76 30 0 14 -17
-17 -18 -137 -9 -225 -9 -239 -2 -8 5 -25 7 -36 4 -18 -5 -20 -12 -16 -42 5
-34 6 -138 3 -287 -1 -33 2 -77 5 -97 4 -21 2 -52 -5 -73 -14 -44 -10 -49 36
-48 43 1 47 5 47 42 0 22 5 29 21 30 12 0 50 3 86 6 36 3 93 3 127 -1 l62 -5
-4 -34 c-5 -37 9 -45 61 -38 l30 5 -10 59 c-7 42 -7 69 1 92 7 17 9 55 6 82
-6 61 -6 228 0 273 l4 33 -38 -6 c-25 -4 -47 -1 -66 9 -26 14 -27 15 -5 16 13
0 22 6 21 13 -1 6 -1 33 0 59 1 52 15 61 64 45 57 -19 95 11 82 65 -6 23 -10
24 -78 24 l-72 -1 4 40 c2 22 8 46 14 53 11 14 12 14 -26 30 -29 12 -31 13
-59 5z m-121 -453 c1 -14 5 -39 8 -56 9 -39 -13 -60 -52 -48 -16 4 -37 8 -48
8 -17 1 -20 7 -17 36 1 19 3 45 3 58 1 16 6 21 18 18 9 -3 23 -1 31 4 26 17
55 7 57 -20z m190 0 c1 -14 5 -37 9 -53 9 -39 -11 -60 -50 -52 -17 3 -42 7
-56 8 -22 2 -25 6 -22 37 1 19 3 45 3 58 1 16 6 21 18 18 9 -3 23 -1 31 4 8 6
26 9 40 8 19 -2 25 -9 27 -28z m-191 -185 c0 -11 4 -33 8 -48 5 -18 4 -38 -3
-54 -10 -21 -16 -24 -39 -18 -15 3 -37 7 -50 7 -27 0 -40 38 -24 74 7 13 9 31
5 40 -5 13 -2 15 13 10 10 -3 26 -1 34 4 24 16 55 7 56 -15z m190 0 c0 -11 4
-33 8 -48 5 -18 4 -38 -3 -54 -10 -22 -16 -24 -44 -19 -18 4 -42 7 -55 8 -27
0 -40 38 -24 74 7 13 9 31 5 40 -5 13 -2 15 13 10 10 -3 26 -1 34 4 25 17 65
8 66 -15z"/>
<path d="M90 930 c-12 -7 -15 -28 -13 -92 2 -93 2 -109 2 -275 0 -65 2 -156 5
-203 2 -46 0 -92 -5 -102 -5 -9 -7 -35 -3 -57 7 -42 23 -52 67 -44 19 4 24 11
25 36 3 71 4 75 26 76 11 0 37 2 56 3 32 3 35 1 35 -24 1 -32 5 -37 31 -39 65
-6 64 -9 58 109 -5 114 -5 183 -1 439 1 89 -2 165 -6 169 -12 12 -259 16 -277
4z m196 -136 c3 -30 4 -57 2 -59 -2 -3 -28 -2 -56 2 -48 5 -52 8 -53 32 0 14
-1 40 -2 56 l-2 30 52 -3 52 -4 7 -54z m0 -139 c-3 -8 0 -27 7 -44 8 -22 8
-36 -1 -56 -11 -24 -17 -26 -45 -21 -18 4 -42 7 -55 8 -27 0 -40 38 -24 74 7
13 9 29 7 36 -4 10 11 13 56 14 46 2 59 -1 55 -11z m0 -200 c0 -11 4 -33 8
-48 5 -18 4 -38 -3 -54 -10 -22 -16 -24 -44 -19 -18 4 -42 7 -55 8 -27 0 -40
38 -24 74 7 13 9 31 5 40 -5 13 -2 15 13 10 10 -3 26 -1 34 4 25 17 65 8 66
-15z"/>
</g>
</svg>
