<?xml version="1.0" standalone="no"?>
<!DOCTYPE svg PUBLIC "-//W3C//DTD SVG 20010904//EN"
 "http://www.w3.org/TR/2001/REC-SVG-20010904/DTD/svg10.dtd">
<svg version="1.0" xmlns="http://www.w3.org/2000/svg"
 width="101.000000pt" height="102.000000pt" viewBox="0 0 101.000000 102.000000"
 preserveAspectRatio="xMidYMid meet">
<metadata>
Created by potrace 1.16, written by Peter Selinger 2001-2019
</metadata>
<g transform="translate(0.000000,102.000000) scale(0.100000,-0.100000)"
fill="#000000" stroke="none">
<path d="M598 1008 l-37 -10 24 -36 c14 -20 25 -39 25 -42 0 -3 -52 -4 -116
-3 l-115 2 3 -85 3 -84 32 -6 c18 -3 40 -3 49 0 10 4 14 2 11 -6 -2 -7 0 -21
5 -30 10 -20 61 -24 101 -9 22 9 23 7 23 -24 l-1 -34 -50 5 c-73 7 -78 7 -96
6 -18 -2 -31 -35 -23 -57 7 -18 44 -26 66 -14 10 6 38 7 62 4 39 -6 43 -9 43
-35 0 -26 -5 -30 -38 -35 -21 -4 -44 -3 -50 1 -22 13 -135 21 -146 10 -8 -8
-8 -64 0 -72 11 -11 114 -3 136 10 6 4 31 4 54 1 40 -6 44 -9 44 -36 l0 -30
-61 7 c-110 12 -119 10 -117 -28 2 -46 3 -134 3 -158 -2 -79 3 -110 18 -112
49 -5 74 12 64 43 -3 12 2 17 18 18 13 0 59 3 103 6 103 7 148 0 141 -23 -11
-33 13 -48 71 -44 19 2 21 5 12 36 -5 19 -7 75 -4 123 7 126 8 134 2 139 -5 6
-47 6 -118 0 -55 -4 -56 -4 -56 24 0 23 5 28 26 29 65 4 130 1 152 -8 55 -20
95 8 82 58 -6 25 -27 33 -58 21 -23 -9 -111 -13 -176 -9 -21 1 -26 6 -26 29 0
31 3 31 108 30 60 0 72 10 63 47 -4 14 -15 20 -37 21 -18 0 -41 2 -52 3 -11 1
-33 -1 -50 -4 -28 -6 -30 -5 -30 26 0 30 2 32 36 31 20 -1 46 -5 57 -8 27 -9
54 19 50 53 -3 25 -5 26 -76 26 l-73 0 6 27 c5 23 2 27 -24 33 -17 4 -29 11
-25 16 7 12 51 11 59 -1 4 -7 35 -9 79 -6 l73 4 -3 -44 c-3 -39 -1 -44 21 -50
14 -3 36 -3 49 0 23 6 24 10 24 85 l0 79 -113 -1 -113 -2 -22 53 c-23 55 -27
57 -92 40z m-19 -167 c40 -1 43 -2 27 -14 -15 -11 -16 -18 -8 -33 10 -18 7
-19 -56 -14 -64 5 -65 5 -66 35 -1 27 2 30 29 28 17 -1 50 -2 74 -2z m171
-507 c34 -5 36 -7 37 -44 2 -38 1 -39 -40 -45 -23 -3 -76 -3 -117 0 -41 3 -85
6 -97 6 -19 1 -22 7 -20 40 1 30 5 38 17 34 8 -2 21 -1 29 4 15 10 140 13 191
5z"/>
<path d="M275 941 c-11 -4 -59 -7 -108 -6 -69 0 -88 -3 -91 -15 -8 -29 -5 -89
4 -95 12 -8 12 -173 -1 -180 -12 -8 -12 -142 1 -150 13 -8 13 -52 0 -60 -7 -4
-9 -57 -8 -140 3 -145 4 -149 61 -138 19 4 24 11 25 36 3 71 4 75 26 76 11 0
37 2 56 3 32 3 35 1 32 -23 -3 -30 18 -40 61 -32 31 6 40 25 27 58 -5 14 -10
47 -10 73 0 26 0 88 0 137 0 50 2 171 4 270 2 125 0 182 -8 187 -14 9 -45 9
-71 -1z m2 -139 l1 -57 -59 0 c-55 0 -60 2 -55 20 3 11 6 34 6 52 0 31 1 32
53 36 28 2 52 4 52 5 0 1 1 -24 2 -56z m0 -162 c1 -14 5 -37 9 -53 9 -39 -11
-60 -50 -52 -17 3 -42 7 -56 8 -22 2 -25 6 -22 37 1 19 3 45 3 58 1 16 6 21
18 18 9 -3 23 -1 31 4 8 6 26 9 40 8 19 -2 25 -9 27 -28z m-1 -185 c0 -11 4
-33 8 -48 5 -18 4 -38 -3 -54 -10 -22 -16 -24 -44 -19 -18 4 -42 7 -55 8 -27
0 -40 38 -24 74 7 13 9 31 5 40 -5 13 -2 15 13 10 10 -3 26 -1 34 4 25 17 65
8 66 -15z"/>
</g>
</svg>
