<?xml version="1.0" standalone="no"?>
<!DOCTYPE svg PUBLIC "-//W3C//DTD SVG 20010904//EN"
 "http://www.w3.org/TR/2001/REC-SVG-20010904/DTD/svg10.dtd">
<svg version="1.0" xmlns="http://www.w3.org/2000/svg"
 width="101.000000pt" height="102.000000pt" viewBox="0 0 101.000000 102.000000"
 preserveAspectRatio="xMidYMid meet">
<metadata>
Created by potrace 1.16, written by Peter Selinger 2001-2019
</metadata>
<g transform="translate(0.000000,102.000000) scale(0.100000,-0.100000)"
fill="#000000" stroke="none">
<path d="M290 1013 c-26 -10 -30 -26 -25 -95 l5 -68 -35 0 c-41 0 -45 11 -10
34 l26 17 -37 44 c-40 50 -57 54 -94 25 l-25 -19 45 -45 44 -46 -44 -1 c-25
-1 -52 -1 -62 0 -14 2 -16 -10 -17 -75 0 -43 4 -83 10 -90 8 -9 8 -33 0 -81
-6 -37 -9 -68 -8 -70 5 -4 39 -6 70 -5 26 2 27 4 23 52 -2 27 -2 50 0 50 1 0
14 -4 29 -10 24 -9 27 -7 47 35 12 25 24 45 27 45 4 0 5 -33 4 -74 -2 -81 5
-89 60 -79 23 5 27 12 32 58 4 29 4 63 0 76 -6 23 -6 23 9 5 9 -11 16 -24 16
-29 0 -4 12 -7 28 -5 15 2 27 -1 27 -7 0 -10 -3 -11 -39 -13 -13 -2 -16 -7
-11 -19 7 -16 11 -38 14 -66 1 -11 57 1 100 21 33 15 34 15 54 -9 l19 -24 -88
-7 c-82 -7 -181 -5 -261 5 -25 3 -33 0 -37 -16 -3 -11 -1 -28 4 -36 5 -9 7
-57 5 -106 -2 -50 -5 -115 -6 -145 -7 -150 -1 -163 70 -152 29 4 32 7 26 32
-7 32 -15 31 145 31 293 -1 282 0 276 -19 -11 -34 12 -48 74 -44 l25 2 -3 98
c-5 158 -4 284 1 325 5 35 4 37 -16 30 -19 -6 -84 -7 -177 -2 -19 1 -10 8 40
30 l65 30 86 -41 c48 -22 91 -40 96 -39 11 0 75 89 65 90 -12 1 -45 8 -66 13
-12 3 -23 5 -26 4 -3 0 -23 8 -46 20 l-40 21 35 73 35 73 43 0 c48 -1 59 14
47 59 -6 27 -43 44 -64 31 -6 -4 -53 -8 -105 -9 l-93 -1 19 38 c11 20 24 37
29 37 21 0 9 21 -17 31 -44 17 -83 20 -77 6 5 -13 -61 -155 -89 -191 -13 -18
-14 -17 -9 13 4 32 4 32 -31 26 -19 -4 -43 -3 -52 2 -14 8 -10 16 28 56 48 49
47 59 -5 72 -24 6 -34 1 -72 -41 l-44 -49 31 -17 32 -17 -32 -1 c-18 0 -36 -1
-40 -2 -14 -5 -15 44 -3 68 7 12 10 30 7 38 -3 8 -1 18 5 22 7 5 5 12 -7 21
-20 14 -39 15 -65 6z m466 -228 c-30 -70 -31 -71 -56 -30 -23 36 -29 38 -74
20 -17 -8 -18 -7 -3 16 14 21 25 24 82 26 l65 2 -14 -34z m-476 -23 c0 -29
-10 -32 -42 -16 -17 9 -31 14 -32 12 -1 -2 -12 -25 -24 -52 -13 -26 -25 -46
-28 -43 -3 3 -3 29 1 59 l7 53 59 3 c51 2 59 0 59 -16z m166 2 c-3 -9 -6 -28
-6 -42 l0 -27 -21 33 c-24 36 -23 36 -49 22 -16 -8 -18 -7 -14 4 6 15 27 22
73 25 17 1 22 -3 17 -15z m147 -30 c12 16 16 14 41 -24 15 -23 26 -44 24 -46
-11 -10 -76 -32 -81 -27 -4 3 -13 0 -22 -7 -23 -19 -26 -10 -19 59 7 59 8 61
26 45 17 -16 19 -16 31 0z m29 -265 c79 0 87 -1 85 -19 -1 -21 9 -20 -277 -21
-144 0 -146 0 -147 23 -1 14 3 17 15 14 9 -3 24 -1 32 4 8 5 57 7 110 4 52 -2
134 -4 182 -5z m-1 -100 c85 0 87 0 85 -24 -1 -27 18 -25 -276 -26 -147 0
-145 0 -146 28 -2 18 2 22 15 19 9 -3 23 -1 31 4 8 5 57 7 110 4 52 -2 134 -4
181 -5z m1 -110 c79 0 87 -1 85 -19 -1 -21 9 -20 -277 -21 -144 0 -146 0 -147
23 -1 14 3 17 15 14 9 -3 24 -1 32 4 8 5 57 7 110 4 52 -2 134 -4 182 -5z"/>
</g>
</svg>
