<?xml version="1.0" standalone="no"?>
<!DOCTYPE svg PUBLIC "-//W3C//DTD SVG 20010904//EN"
 "http://www.w3.org/TR/2001/REC-SVG-20010904/DTD/svg10.dtd">
<svg version="1.0" xmlns="http://www.w3.org/2000/svg"
 width="101.000000pt" height="101.000000pt" viewBox="0 0 101.000000 101.000000"
 preserveAspectRatio="xMidYMid meet">
<metadata>
Created by potrace 1.16, written by Peter Selinger 2001-2019
</metadata>
<g transform="translate(0.000000,101.000000) scale(0.100000,-0.100000)"
fill="#000000" stroke="none">
<path d="M521 956 c-23 -30 -54 -62 -67 -71 -20 -13 -23 -19 -13 -31 9 -12 6
-14 -19 -14 l-30 0 4 -127 c2 -71 6 -149 10 -175 3 -28 1 -62 -7 -85 -7 -21
-13 -54 -14 -73 -3 -50 -15 -110 -30 -145 -12 -29 -12 -29 -13 -5 -1 14 -4 50
-7 80 -6 59 -7 132 -2 391 2 91 7 171 11 177 4 7 5 20 2 30 -5 15 -22 17 -140
19 l-134 1 0 -39 c0 -21 3 -41 8 -44 12 -8 11 -173 -1 -180 -12 -8 -12 -142 1
-150 13 -8 13 -52 0 -60 -6 -4 -9 -64 -8 -155 3 -161 4 -164 61 -153 19 4 24
11 25 36 3 72 4 75 26 75 11 1 32 2 46 4 22 3 25 -1 24 -27 0 -35 17 -45 61
-37 l30 5 -24 -27 c-14 -14 -23 -27 -20 -28 2 -2 23 -13 47 -25 l42 -21 16 30
c32 62 52 141 58 233 12 162 24 244 35 226 9 -14 36 -16 96 -6 91 15 201 15
241 1 68 -24 110 -6 97 43 -6 24 -34 35 -65 26 -19 -5 -18 -3 5 10 34 20 34
25 -3 60 -16 16 -30 33 -30 38 0 5 24 7 55 5 47 -4 56 -2 61 14 3 10 3 27 -1
37 -5 17 -16 19 -104 17 l-98 -1 40 54 c47 63 40 74 -36 54 -56 -14 -147 -18
-147 -5 0 4 9 13 20 20 28 17 25 28 -11 41 -49 17 -54 15 -98 -43z m159 -96
c-20 -28 -24 -30 -90 -27 l-69 2 20 21 c14 15 28 19 53 16 19 -2 43 1 53 7 10
6 26 11 36 11 17 0 17 -2 -3 -30z m-425 -70 l0 -55 -45 0 -45 0 0 55 0 55 45
0 45 0 0 -55z m519 -29 c3 -5 -2 -12 -11 -15 -14 -6 -9 -14 26 -50 l42 -43
-31 -7 c-41 -8 -46 -4 -54 38 -7 35 -29 52 -49 39 -12 -8 -17 -9 -37 -12 -6 0
-4 -13 5 -31 20 -39 11 -54 -29 -45 -17 3 -41 6 -53 7 -34 0 -29 9 27 47 39
27 48 37 39 48 -9 10 -7 13 10 13 11 0 21 5 21 10 0 12 87 13 94 1z m-236 -36
c-46 -43 -56 -44 -50 -6 4 30 16 37 67 39 16 1 13 -5 -17 -33z m-22 -65 c3 0
-1 -6 -8 -14 -9 -10 -15 -11 -20 -2 -13 19 -9 28 8 22 9 -3 18 -6 20 -6z
m-261 -70 c0 -63 -1 -65 -25 -62 -14 2 -34 3 -45 4 -18 0 -20 6 -17 62 l3 61
42 0 42 0 0 -65z m2 -150 c1 -14 5 -38 8 -55 4 -19 1 -37 -8 -50 -13 -16 -18
-18 -41 -7 -14 6 -32 9 -40 6 -20 -8 -32 40 -18 72 7 13 9 31 5 40 -5 13 -2
15 13 10 10 -3 26 -1 34 4 24 16 45 7 47 -20z"/>
<path d="M517 529 c-3 -10 -3 -28 0 -39 5 -18 11 -19 52 -14 72 10 231 10 282
1 42 -8 47 -7 52 12 3 12 3 30 0 41 -5 17 -11 18 -52 12 -52 -8 -237 -7 -293
1 -30 4 -37 2 -41 -14z"/>
<path d="M539 443 c-18 -4 -31 -37 -23 -58 7 -18 43 -26 65 -14 11 5 79 7 167
4 144 -5 150 -5 155 15 12 45 -13 76 -41 48 -9 -9 -18 -9 -37 0 -22 10 -33 9
-60 -4 -22 -10 -42 -13 -57 -8 -13 5 -45 9 -73 9 -27 1 -57 4 -65 7 -8 3 -22
4 -31 1z"/>
<path d="M509 322 c-1 -9 0 -21 1 -27 2 -5 4 -19 5 -30 1 -11 5 -32 9 -48 6
-18 3 -38 -8 -61 -25 -54 -3 -80 57 -69 20 4 24 10 21 28 -3 18 1 23 18 24 13
1 48 3 78 6 72 6 123 -2 117 -19 -9 -24 11 -40 48 -39 20 1 39 4 43 7 3 4 0
29 -7 56 -7 28 -9 59 -5 72 11 32 19 107 12 113 -2 1 -41 -2 -88 -6 -80 -8
-176 -7 -262 5 -30 3 -38 1 -39 -12z m272 -48 c21 -4 25 -10 26 -39 1 -31 -2
-35 -30 -39 -18 -3 -57 -3 -87 -1 -30 3 -65 5 -76 6 -18 1 -22 7 -21 35 1 26
5 33 16 29 9 -2 23 0 31 5 15 9 97 12 141 4z"/>
</g>
</svg>
