<?xml version="1.0" standalone="no"?>
<!DOCTYPE svg PUBLIC "-//W3C//DTD SVG 20010904//EN"
 "http://www.w3.org/TR/2001/REC-SVG-20010904/DTD/svg10.dtd">
<svg version="1.0" xmlns="http://www.w3.org/2000/svg"
 width="101.000000pt" height="101.000000pt" viewBox="0 0 101.000000 101.000000"
 preserveAspectRatio="xMidYMid meet">
<metadata>
Created by potrace 1.16, written by Peter Selinger 2001-2019
</metadata>
<g transform="translate(0.000000,101.000000) scale(0.100000,-0.100000)"
fill="#000000" stroke="none">
<path d="M666 997 c-50 -174 -140 -317 -202 -323 -16 -1 -48 -4 -72 -7 -40 -4
-42 -3 -28 11 14 14 14 18 -1 35 -17 18 -16 20 7 38 53 42 125 89 137 89 15 0
26 37 21 76 -3 29 -4 29 -72 32 -38 1 -74 -2 -80 -7 -14 -12 -173 -13 -181 -2
-3 5 -25 9 -50 9 -49 0 -61 -15 -49 -62 8 -34 41 -40 178 -31 l111 7 -45 -41
c-25 -22 -48 -40 -51 -41 -3 0 -16 11 -29 25 l-23 24 -38 -20 c-22 -11 -39
-22 -39 -25 0 -4 28 -33 63 -66 l62 -59 -40 6 c-92 12 -165 10 -175 -5 -15
-23 -12 -57 6 -75 13 -12 31 -15 90 -11 41 2 74 1 74 -3 0 -18 -102 -151 -154
-199 l-56 -53 32 -40 c17 -21 35 -39 38 -39 11 0 73 78 118 149 l39 63 7 -94
c4 -51 3 -104 -2 -117 -8 -22 -14 -25 -65 -23 l-57 1 20 -39 c11 -22 20 -46
20 -53 0 -23 34 -26 90 -8 75 25 81 36 81 166 -1 61 0 149 2 197 2 86 2 86 30
91 24 3 26 1 21 -17 -4 -12 -13 -34 -21 -49 -17 -33 -16 -34 20 -41 14 -2 30
-7 35 -10 23 -14 57 66 46 108 -4 16 -2 26 5 26 6 0 11 7 11 17 0 15 1 15 18
0 10 -10 23 -17 28 -17 12 0 90 119 129 196 l31 61 22 -56 c24 -61 111 -183
148 -207 22 -15 25 -14 65 18 l41 33 -28 20 c-93 66 -164 165 -178 247 -3 15
-7 32 -10 37 -4 5 -2 12 4 16 18 11 11 25 -17 36 -44 17 -84 20 -87 6z"/>
<path d="M653 663 c-12 -4 -11 -62 2 -120 6 -28 47 -40 82 -24 22 10 24 16 19
49 -3 20 -10 51 -16 69 -10 26 -16 31 -43 31 -18 0 -37 -3 -44 -5z"/>
<path d="M523 480 c-15 -6 -23 -18 -23 -32 0 -44 15 -53 77 -51 131 6 163 6
169 0 3 -3 -25 -66 -64 -140 l-70 -135 42 -16 c48 -18 66 -20 66 -6 0 5 38 92
83 194 l84 184 -116 5 c-173 8 -224 7 -248 -3z"/>
</g>
</svg>
