<?xml version="1.0" standalone="no"?>
<!DOCTYPE svg PUBLIC "-//W3C//DTD SVG 20010904//EN"
 "http://www.w3.org/TR/2001/REC-SVG-20010904/DTD/svg10.dtd">
<svg version="1.0" xmlns="http://www.w3.org/2000/svg"
 width="101.000000pt" height="101.000000pt" viewBox="0 0 101.000000 101.000000"
 preserveAspectRatio="xMidYMid meet">
<metadata>
Created by potrace 1.16, written by Peter Selinger 2001-2019
</metadata>
<g transform="translate(0.000000,101.000000) scale(0.100000,-0.100000)"
fill="#000000" stroke="none">
<path d="M192 943 c-7 -27 -15 -59 -18 -72 -7 -32 -61 -139 -90 -178 -13 -17
-24 -36 -24 -41 0 -8 53 -25 84 -26 5 -1 23 26 40 59 29 56 33 60 66 60 34 0
35 -1 35 -40 -1 -22 -5 -48 -9 -58 -5 -9 -6 -29 -3 -43 l4 -25 -107 7 -108 7
-7 -31 c-3 -18 -1 -40 5 -52 10 -19 18 -21 68 -16 31 3 76 6 98 8 45 3 43 7
29 -54 -17 -77 -96 -186 -173 -238 -52 -35 -63 -50 -38 -50 7 0 30 -11 50 -25
21 -14 42 -23 47 -19 22 13 131 159 155 205 13 27 26 49 29 49 6 0 120 -143
133 -167 9 -14 14 -13 48 15 21 17 39 30 41 29 1 -2 3 -24 4 -49 2 -51 12 -58
67 -50 l33 4 -5 55 c-4 46 -2 54 10 49 9 -3 24 -1 35 5 30 15 109 1 107 -20
-6 -76 9 -95 67 -83 l27 5 -7 92 c-4 61 -3 95 4 99 13 8 14 213 1 221 -13 8
-13 52 0 60 10 6 13 205 4 230 -6 16 -154 21 -154 6 0 -6 -16 -11 -35 -11 -19
0 -35 5 -35 10 0 6 -27 10 -60 10 -58 0 -67 -5 -60 -35 6 -23 12 -480 8 -552
l-2 -31 -101 94 c-81 76 -101 100 -100 122 0 23 4 27 28 27 16 1 31 -3 33 -7
6 -9 59 -10 91 -2 26 7 36 32 28 66 -6 23 -10 24 -89 23 l-82 0 -2 53 c-1 30
2 52 8 52 5 0 10 12 10 28 0 27 1 27 62 26 66 0 78 6 78 43 0 37 -28 56 -69
48 -46 -10 -201 -12 -201 -4 0 4 16 31 35 59 20 29 34 58 32 63 -3 9 -79 37
-103 37 -6 0 -16 -21 -22 -47z m605 -280 c2 -126 2 -151 3 -264 l1 -57 -45 -6
c-27 -4 -53 -3 -66 4 -11 6 -25 8 -31 4 -6 -4 -15 0 -20 7 -12 19 -11 76 1 84
12 7 11 113 -1 121 -13 7 -11 51 2 59 6 4 9 38 7 86 l-3 78 45 4 c25 2 59 4
75 5 l30 2 2 -127z"/>
</g>
</svg>
