<?xml version="1.0" standalone="no"?>
<!DOCTYPE svg PUBLIC "-//W3C//DTD SVG 20010904//EN"
 "http://www.w3.org/TR/2001/REC-SVG-20010904/DTD/svg10.dtd">
<svg version="1.0" xmlns="http://www.w3.org/2000/svg"
 width="101.000000pt" height="101.000000pt" viewBox="0 0 101.000000 101.000000"
 preserveAspectRatio="xMidYMid meet">
<metadata>
Created by potrace 1.16, written by Peter Selinger 2001-2019
</metadata>
<g transform="translate(0.000000,101.000000) scale(0.100000,-0.100000)"
fill="#000000" stroke="none">
<path d="M176 978 c-28 -101 -73 -222 -97 -261 -17 -27 -29 -51 -27 -53 2 -1
19 -6 38 -9 19 -3 37 -8 39 -11 3 -3 15 17 27 44 19 44 25 49 48 45 19 -4 26
-11 26 -29 0 -13 5 -24 11 -24 6 0 9 -21 7 -52 l-3 -53 -92 4 c-92 3 -92 3
-98 -22 -13 -50 6 -74 55 -68 8 1 39 4 68 7 l53 5 -7 -28 c-27 -112 -64 -182
-135 -253 -28 -28 -50 -52 -48 -54 2 -1 25 -14 50 -29 l47 -27 51 79 c29 43
60 100 70 125 l17 46 59 -60 c33 -33 63 -60 66 -60 11 0 69 51 69 60 0 5 -39
37 -86 71 -70 51 -84 66 -80 83 3 12 6 26 6 33 0 12 78 11 98 -1 15 -9 42 22
42 49 0 34 -35 66 -53 49 -3 -4 -21 -8 -39 -9 l-33 -2 2 71 c1 39 2 76 2 82 1
7 19 10 53 7 57 -4 68 4 68 49 0 30 -32 55 -53 41 -11 -7 -187 -12 -187 -5 0
11 52 101 64 111 9 8 16 17 16 22 0 24 -108 50 -114 27z"/>
<path d="M448 919 c-18 -10 -25 -64 -10 -85 6 -10 205 -11 392 -2 30 2 67 0
82 -5 22 -6 28 -3 33 13 9 29 -3 77 -21 84 -9 3 -24 2 -33 -4 -18 -9 -364 -5
-406 5 -11 3 -28 0 -37 -6z"/>
<path d="M478 763 c-19 -5 -25 -23 -8 -23 12 0 12 -89 1 -205 -4 -44 -7 -82
-5 -84 4 -5 44 -3 84 4 85 15 206 15 246 1 22 -7 51 -12 65 -9 24 4 24 4 27
157 3 170 -1 181 -58 151 -32 -17 -135 -20 -145 -5 -3 5 -34 10 -68 10 -34 0
-75 1 -92 4 -16 2 -38 2 -47 -1z m318 -158 l1 -75 -31 -5 c-17 -3 -60 -3 -96
0 -36 3 -74 6 -85 6 -18 1 -20 9 -20 70 l0 68 95 4 c52 1 104 4 115 5 18 2 20
-4 21 -73z"/>
<path d="M747 380 c-9 -33 -28 -84 -41 -114 -23 -53 -25 -54 -72 -60 -65 -8
-175 -5 -195 5 -23 12 -56 0 -62 -21 -2 -10 -2 -30 0 -44 5 -25 8 -26 52 -20
25 3 89 6 141 6 52 -1 123 -1 158 -1 34 -1 79 0 100 1 20 0 53 -2 73 -7 34 -7
37 -5 41 20 11 55 1 65 -61 65 -70 -1 -111 1 -111 5 0 15 84 154 95 159 29 11
14 34 -32 50 -26 9 -51 16 -57 16 -6 0 -19 -27 -29 -60z"/>
<path d="M512 417 c-18 -5 -31 -15 -28 -21 33 -75 56 -134 56 -150 0 -12 5
-16 14 -13 8 3 31 9 51 13 41 7 41 9 -7 117 -33 70 -34 71 -86 54z"/>
</g>
</svg>
