<?xml version="1.0" standalone="no"?>
<!DOCTYPE svg PUBLIC "-//W3C//DTD SVG 20010904//EN"
 "http://www.w3.org/TR/2001/REC-SVG-20010904/DTD/svg10.dtd">
<svg version="1.0" xmlns="http://www.w3.org/2000/svg"
 width="101.000000pt" height="101.000000pt" viewBox="0 0 101.000000 101.000000"
 preserveAspectRatio="xMidYMid meet">
<metadata>
Created by potrace 1.16, written by Peter Selinger 2001-2019
</metadata>
<g transform="translate(0.000000,101.000000) scale(0.100000,-0.100000)"
fill="#000000" stroke="none">
<path d="M478 976 c2 -18 -1 -36 -6 -40 -18 -11 -252 -18 -265 -8 -7 5 -31 10
-54 10 -47 1 -57 -12 -47 -63 l6 -33 91 4 c114 4 154 4 215 1 40 -2 47 -5 47
-22 0 -19 -7 -20 -145 -20 l-145 0 -3 -27 c-5 -42 14 -68 48 -68 17 0 30 4 30
9 0 5 52 8 115 8 l116 -1 -3 -26 -3 -25 -182 2 -183 2 -6 -25 c-4 -14 -2 -36
5 -50 9 -20 18 -24 51 -24 23 0 40 5 40 11 0 8 18 10 59 5 40 -5 60 -3 63 4 2
8 25 10 74 5 69 -7 71 -8 70 -35 l-1 -27 -125 -6 c-121 -5 -175 -4 -252 6 -29
4 -37 2 -41 -13 -13 -51 22 -92 62 -71 20 11 103 13 193 5 l68 -6 -47 -39
c-60 -49 -161 -102 -235 -124 -32 -9 -58 -20 -58 -24 0 -4 9 -16 20 -26 11
-10 22 -26 25 -36 9 -27 22 -24 112 24 75 41 81 43 82 23 5 -74 5 -95 -2 -127
-9 -42 4 -50 62 -41 29 4 32 8 29 32 -3 22 0 28 16 29 12 1 44 3 71 5 28 3
107 2 178 -1 111 -5 127 -8 122 -22 -9 -29 11 -45 56 -44 23 1 44 4 47 7 2 3
0 25 -7 48 -11 41 -10 104 3 211 l6 48 -66 -7 c-59 -6 -293 -9 -353 -4 -22 2
-21 4 15 33 49 41 31 39 344 38 164 -1 158 -2 163 26 11 57 5 59 -106 51 -56
-4 -133 -5 -172 -3 -38 3 -79 6 -90 6 -15 1 -20 8 -20 28 l0 26 125 -1 c69 -1
132 -3 140 -5 61 -10 88 12 74 65 -7 29 -43 44 -71 30 -10 -5 -75 -9 -144 -9
-124 0 -125 0 -121 23 3 14 12 22 26 23 49 2 104 -1 143 -7 77 -12 113 13 99
69 -5 21 -10 22 -138 22 -126 0 -133 1 -133 20 0 19 6 20 135 17 74 -1 149 0
167 3 35 6 49 31 39 70 -5 21 -11 23 -96 24 -56 1 -90 -2 -90 -9 0 -5 -16 -10
-35 -10 -19 0 -35 5 -35 10 0 6 -18 10 -39 10 -41 0 -62 23 -41 44 20 20 9 26
-43 26 l-53 0 4 -34z m223 -655 c52 -1 57 -3 57 -23 1 -13 2 -34 4 -48 3 -25
3 -25 -107 -32 -60 -4 -141 -5 -180 -3 -123 8 -120 7 -117 35 2 14 3 35 4 48
0 16 5 21 17 18 9 -3 23 -1 31 4 8 5 65 8 125 6 61 -2 135 -5 166 -5z"/>
</g>
</svg>
