<?xml version="1.0" standalone="no"?>
<!DOCTYPE svg PUBLIC "-//W3C//DTD SVG 20010904//EN"
 "http://www.w3.org/TR/2001/REC-SVG-20010904/DTD/svg10.dtd">
<svg version="1.0" xmlns="http://www.w3.org/2000/svg"
 width="101.000000pt" height="101.000000pt" viewBox="0 0 101.000000 101.000000"
 preserveAspectRatio="xMidYMid meet">
<metadata>
Created by potrace 1.16, written by Peter Selinger 2001-2019
</metadata>
<g transform="translate(0.000000,101.000000) scale(0.100000,-0.100000)"
fill="#000000" stroke="none">
<path d="M636 853 c8 -232 6 -313 -7 -360 -21 -77 -1 -104 71 -95 l35 4 3 128
c2 76 -1 131 -7 134 -12 8 -13 173 -1 181 5 3 9 29 9 58 0 29 2 63 3 77 3 24
0 25 -54 28 l-57 3 5 -158z"/>
<path d="M58 919 c-41 -23 -8 -108 36 -94 12 4 37 7 57 8 33 2 36 0 33 -23 -9
-71 -66 -195 -126 -272 l-30 -38 20 -27 c10 -16 21 -35 24 -43 3 -10 14 -1 36
29 l32 44 0 -36 c0 -21 5 -37 10 -37 15 0 12 -67 -2 -74 -10 -5 -10 -7 -1 -12
16 -7 16 -27 -1 -92 -22 -86 -6 -117 56 -105 20 4 24 11 25 46 3 82 4 85 27
85 11 1 32 2 46 4 20 2 25 -2 26 -20 2 -27 5 -31 30 -33 57 -6 64 -1 64 44 0
23 3 78 6 123 l7 81 31 -3 c17 -2 37 -6 43 -9 8 -3 18 15 27 48 42 150 42 146
50 198 2 15 9 37 16 49 16 30 2 42 -54 46 -44 3 -45 3 -50 -29 -2 -18 -4 -43
-5 -57 0 -25 -8 -65 -12 -65 -1 0 -3 -9 -4 -21 -5 -46 -37 -124 -52 -124 -12
0 -14 14 -11 80 2 50 0 76 -6 70 -13 -13 -116 -13 -116 0 0 6 -13 10 -29 10
l-30 0 28 81 27 82 57 2 c31 2 60 -1 63 -6 16 -27 64 8 64 46 0 41 -25 55
-100 55 -38 0 -71 -4 -75 -9 -7 -13 -173 -13 -180 -1 -8 13 -35 12 -57 -1z
m267 -447 l0 -117 -25 3 c-14 2 -34 3 -46 4 -20 0 -21 5 -20 109 l1 108 45 4
c25 2 45 4 45 5 0 1 0 -51 0 -116z"/>
<path d="M793 803 l-32 -25 43 -62 c24 -33 53 -80 65 -104 23 -46 28 -46 80
-2 20 17 22 24 14 43 -15 31 -123 177 -131 177 -4 -1 -22 -12 -39 -27z"/>
<path d="M796 552 c-3 -6 -5 -21 -4 -33 4 -62 -45 -153 -121 -222 -64 -56
-139 -87 -254 -102 -15 -2 -34 -8 -43 -13 -15 -8 -14 -11 3 -23 11 -8 27 -26
37 -41 16 -24 20 -25 54 -16 20 5 84 32 141 60 118 57 202 130 238 208 12 25
31 68 44 95 13 28 25 53 27 57 9 18 -111 47 -122 30z"/>
</g>
</svg>
