<?xml version="1.0" standalone="no"?>
<!DOCTYPE svg PUBLIC "-//W3C//DTD SVG 20010904//EN"
 "http://www.w3.org/TR/2001/REC-SVG-20010904/DTD/svg10.dtd">
<svg version="1.0" xmlns="http://www.w3.org/2000/svg"
 width="101.000000pt" height="101.000000pt" viewBox="0 0 101.000000 101.000000"
 preserveAspectRatio="xMidYMid meet">
<metadata>
Created by potrace 1.16, written by Peter Selinger 2001-2019
</metadata>
<g transform="translate(0.000000,101.000000) scale(0.100000,-0.100000)"
fill="#000000" stroke="none">
<path d="M679 993 c-14 -3 -17 -18 -17 -74 0 -38 4 -72 9 -74 11 -7 10 -173
-1 -180 -5 -3 -11 4 -15 15 -6 18 -14 20 -60 18 l-53 -3 -7 64 c-4 39 -3 66 3
70 5 3 12 37 13 75 l4 70 -57 0 c-45 1 -57 -2 -56 -14 2 -31 -5 -84 -9 -69 -3
14 -25 18 -136 22 -247 11 -243 12 -253 -39 -9 -44 15 -64 76 -64 30 0 50 -5
53 -12 11 -33 -56 -179 -110 -239 l-36 -39 13 -48 c7 -26 16 -51 20 -55 4 -4
22 14 41 41 l34 49 -3 -141 c-2 -78 -4 -153 -4 -169 -1 -15 2 -30 6 -34 8 -9
75 -7 84 2 4 4 7 28 7 55 0 48 0 48 36 52 36 3 37 3 33 -27 -7 -48 9 -61 75
-57 l24 2 -8 164 c-4 113 -3 166 4 170 6 4 10 34 9 70 l-2 62 -88 -1 c-59 -1
-87 2 -85 9 3 6 14 43 27 81 l22 70 75 1 c53 1 78 5 84 15 5 8 9 10 10 4 6
-46 10 -148 9 -235 -3 -322 -5 -367 -19 -384 -13 -15 -12 -23 9 -61 l24 -44
35 31 c51 45 152 109 162 102 5 -3 9 -22 9 -43 0 -20 6 -44 13 -53 19 -24 75
-40 98 -27 11 6 39 7 64 4 38 -6 47 -4 69 18 21 21 55 105 44 111 -2 0 -22 16
-45 34 -27 21 -44 28 -45 20 0 -7 -2 -17 -3 -23 -2 -5 -3 -19 -4 -30 -1 -11
-5 -26 -10 -33 -8 -13 -56 -23 -76 -16 -6 3 -9 65 -8 175 l1 171 77 64 c42 35
83 64 90 64 28 0 24 21 -11 60 l-37 41 -58 -63 c-31 -35 -60 -60 -64 -56 -13
12 -18 208 -6 222 6 7 10 24 10 37 -1 13 1 31 5 40 11 26 -46 45 -95 32z m-8
-477 c12 -13 12 -53 -2 -61 -6 -4 -10 -30 -9 -59 2 -69 2 -70 -14 -57 -9 8
-16 8 -20 2 -4 -5 -24 -23 -45 -40 l-39 -31 5 95 c4 68 3 95 -6 95 -7 0 -11
25 -11 75 l0 75 38 2 c20 1 47 1 60 0 12 0 23 5 24 11 1 7 3 -13 5 -43 2 -30
8 -59 14 -64z m-375 -49 l1 -112 -39 -1 c-35 0 -39 2 -34 20 3 12 6 60 6 108
l0 87 33 4 c17 2 32 4 32 5 0 1 1 -49 1 -111z"/>
</g>
</svg>
