<?xml version="1.0" standalone="no"?>
<!DOCTYPE svg PUBLIC "-//W3C//DTD SVG 20010904//EN"
 "http://www.w3.org/TR/2001/REC-SVG-20010904/DTD/svg10.dtd">
<svg version="1.0" xmlns="http://www.w3.org/2000/svg"
 width="101.000000pt" height="101.000000pt" viewBox="0 0 101.000000 101.000000"
 preserveAspectRatio="xMidYMid meet">
<metadata>
Created by potrace 1.16, written by Peter Selinger 2001-2019
</metadata>
<g transform="translate(0.000000,101.000000) scale(0.100000,-0.100000)"
fill="#000000" stroke="none">
<path d="M448 993 c-20 -5 -25 -33 -7 -33 8 0 9 -32 4 -112 -4 -62 -9 -115
-11 -117 -2 -2 -18 -4 -36 -5 -30 -1 -33 -4 -30 -28 2 -20 -2 -28 -13 -28 -8
0 -24 -6 -35 -12 -15 -10 -27 -10 -51 -1 -17 7 -36 10 -43 7 -9 -3 -5 17 10
63 13 37 24 75 24 83 0 12 12 15 59 12 66 -3 91 12 91 53 0 30 -28 58 -49 49
-19 -8 -254 -9 -268 -1 -15 10 -32 -7 -38 -38 -9 -48 7 -60 70 -59 48 1 55 -1
50 -15 -4 -9 -9 -27 -12 -41 -9 -48 -63 -148 -107 -197 l-45 -50 22 -46 c12
-25 24 -46 27 -46 3 -1 21 25 42 56 30 46 36 52 37 32 0 -13 3 -58 6 -99 3
-43 0 -89 -6 -109 -6 -18 -13 -58 -14 -87 -2 -58 5 -65 61 -57 27 4 31 9 32
41 3 79 3 79 33 79 20 0 28 -5 27 -16 -4 -49 14 -64 65 -54 32 6 39 45 20 116
-12 48 -12 154 0 255 5 40 10 45 46 47 33 2 31 10 34 -146 2 -93 0 -110 -17
-128 -19 -21 -19 -22 2 -67 l22 -45 93 97 c50 53 93 102 95 109 2 8 -5 30 -16
50 l-18 37 -41 -46 -41 -47 -6 28 c-3 15 -3 53 -1 83 3 30 5 65 6 76 1 23 5
24 85 23 47 0 74 20 74 55 0 35 -23 48 -67 41 -21 -4 -50 -8 -65 -10 l-27 -4
5 92 c2 51 6 104 10 119 8 39 -30 56 -88 41z m-169 -427 c0 -12 3 -48 6 -81 3
-33 3 -74 0 -91 -5 -26 -10 -31 -35 -31 -25 0 -30 5 -35 31 -3 17 -3 58 0 91
3 33 6 69 6 81 1 16 8 21 29 21 21 0 28 -5 29 -21z"/>
<path d="M593 919 c-17 -17 -16 -60 1 -84 10 -14 21 -17 48 -12 l36 5 7 -81
c4 -50 2 -93 -4 -110 -8 -19 -7 -34 1 -53 9 -20 9 -30 0 -45 -7 -10 -15 -35
-18 -55 -9 -56 -31 -110 -63 -158 -31 -44 -147 -156 -163 -156 -4 0 -8 -4 -8
-10 0 -5 8 -10 18 -10 10 0 34 -9 55 -19 l37 -19 50 58 c81 93 144 209 157
285 8 50 13 160 13 267 l-1 118 33 -7 c18 -3 34 -7 35 -7 2 -2 5 -223 4 -261
0 -11 2 -61 4 -110 4 -67 2 -102 -10 -134 -8 -24 -13 -47 -10 -52 9 -13 -27
-27 -67 -26 -21 0 -40 -2 -43 -5 -3 -3 3 -21 14 -39 12 -19 21 -42 21 -51 0
-21 34 -18 98 7 73 30 81 48 76 176 -4 78 -1 115 7 125 9 11 9 18 1 26 -15 15
-16 74 -2 83 5 3 10 45 11 93 0 48 2 122 4 164 5 94 -7 114 -64 103 -41 -8
-167 -7 -226 1 -26 3 -44 1 -52 -7z"/>
</g>
</svg>
