<?xml version="1.0" standalone="no"?>
<!DOCTYPE svg PUBLIC "-//W3C//DTD SVG 20010904//EN"
 "http://www.w3.org/TR/2001/REC-SVG-20010904/DTD/svg10.dtd">
<svg version="1.0" xmlns="http://www.w3.org/2000/svg"
 width="101.000000pt" height="101.000000pt" viewBox="0 0 101.000000 101.000000"
 preserveAspectRatio="xMidYMid meet">
<metadata>
Created by potrace 1.16, written by Peter Selinger 2001-2019
</metadata>
<g transform="translate(0.000000,101.000000) scale(0.100000,-0.100000)"
fill="#000000" stroke="none">
<path d="M607 991 c3 -11 0 -27 -6 -35 -7 -8 -14 -27 -17 -42 -7 -38 -7 -38
-62 -35 -26 2 -59 3 -74 3 -23 1 -27 6 -30 32 -2 19 -8 30 -16 28 -48 -9 -254
-12 -265 -4 -19 16 -75 11 -82 -6 -3 -8 -3 -30 1 -48 7 -38 22 -45 90 -41 40
2 41 1 38 -28 -1 -16 -4 -30 -5 -30 0 0 -3 -12 -4 -27 -6 -47 -55 -137 -106
-192 l-50 -54 23 -46 c12 -25 25 -46 29 -46 4 0 21 16 37 36 28 34 30 35 31
13 6 -89 5 -230 -1 -261 -7 -41 4 -49 58 -41 27 4 30 8 31 46 4 85 2 83 44 84
31 2 38 -2 37 -15 -5 -60 9 -73 71 -64 25 3 31 8 25 21 -15 36 -16 63 -3 73
11 7 11 11 2 15 -15 6 -18 73 -3 73 6 0 10 18 10 40 0 22 -4 40 -10 40 -5 0
-10 16 -10 35 0 19 5 35 10 35 6 0 10 29 10 68 l0 69 -84 -1 -83 -1 19 55 c20
56 26 77 27 95 1 6 28 10 61 10 51 0 60 -3 60 -18 0 -53 33 -68 97 -45 18 6
35 9 38 6 11 -11 -58 -162 -86 -190 -27 -27 -27 -27 -11 -72 17 -47 20 -48
112 -31 70 14 85 11 87 -15 9 -92 14 -84 -52 -92 -33 -5 -67 -5 -75 -2 -8 3
-34 8 -56 10 -47 5 -54 -5 -46 -68 4 -35 5 -36 40 -31 137 18 189 12 191 -20
1 -12 3 -49 5 -81 3 -32 1 -69 -4 -81 -10 -27 5 -34 62 -27 46 5 51 19 31 78
-13 37 -14 54 -5 76 6 16 9 35 6 43 -4 8 3 13 18 14 13 1 39 2 58 4 19 1 56
-1 81 -5 l47 -7 4 37 c8 65 2 72 -51 64 -44 -6 -72 -7 -136 0 -27 3 -30 6 -27
33 1 17 3 39 3 50 1 17 9 21 41 22 22 1 50 -2 63 -7 37 -14 62 -2 68 33 8 58
1 65 -50 55 -31 -7 -53 -7 -69 1 -13 6 -29 8 -36 6 -10 -4 -13 13 -11 70 1 72
0 75 -23 81 -65 16 -93 -22 -80 -110 l6 -41 -48 0 -49 0 35 80 c19 44 40 93
46 109 l11 29 110 -7 c61 -3 126 -9 146 -12 32 -5 38 -3 44 15 10 33 -4 79
-26 86 -11 4 -41 1 -67 -5 -31 -8 -70 -9 -115 -3 l-68 8 25 50 c14 27 22 53
18 57 -5 5 -32 11 -60 15 -48 5 -51 5 -45 -16z m-304 -427 c-3 -19 0 -52 7
-74 7 -22 10 -53 6 -74 -6 -33 -9 -35 -45 -33 l-39 1 -7 65 c-5 45 -4 66 4 69
6 2 11 19 11 37 0 31 3 34 33 38 17 2 33 5 34 5 1 1 -1 -14 -4 -34z"/>
</g>
</svg>
