<?xml version="1.0" standalone="no"?>
<!DOCTYPE svg PUBLIC "-//W3C//DTD SVG 20010904//EN"
 "http://www.w3.org/TR/2001/REC-SVG-20010904/DTD/svg10.dtd">
<svg version="1.0" xmlns="http://www.w3.org/2000/svg"
 width="101.000000pt" height="101.000000pt" viewBox="0 0 101.000000 101.000000"
 preserveAspectRatio="xMidYMid meet">
<metadata>
Created by potrace 1.16, written by Peter Selinger 2001-2019
</metadata>
<g transform="translate(0.000000,101.000000) scale(0.100000,-0.100000)"
fill="#000000" stroke="none">
<path d="M449 963 c-10 -2 -19 -13 -22 -25 -6 -19 -7 -20 -23 -3 -12 12 -26
15 -48 11 -31 -6 -190 -8 -255 -3 -29 2 -35 -2 -44 -26 -6 -20 -6 -37 2 -54
10 -23 16 -25 66 -21 51 3 68 -3 46 -16 -5 -3 -8 -16 -8 -30 0 -34 -65 -164
-107 -213 l-36 -41 23 -41 24 -41 20 23 c11 12 25 31 31 42 9 18 10 18 11 -5
0 -14 3 -59 6 -101 3 -42 1 -111 -3 -152 -9 -83 -4 -90 51 -80 23 5 24 8 21
63 -2 53 -1 58 19 59 12 0 36 2 52 3 28 3 30 1 28 -29 -2 -34 15 -44 60 -36
33 6 38 28 36 163 -2 139 -1 148 10 132 8 -14 25 -15 85 -10 28 3 30 1 33 -37
7 -97 -59 -225 -149 -291 l-49 -37 48 -27 48 -28 33 28 c47 39 98 113 123 179
19 52 26 85 34 166 2 17 3 33 4 36 1 4 11 7 24 8 12 0 35 2 52 3 27 3 30 0 33
-27 3 -29 4 -146 1 -308 0 -43 2 -81 6 -85 6 -6 85 -6 90 0 1 2 -1 55 -6 118
-5 64 -6 147 -4 185 3 39 6 80 6 91 1 23 8 25 91 26 41 1 47 3 51 25 10 53
-19 83 -51 51 -9 -9 -18 -9 -37 0 -15 7 -31 9 -37 6 -6 -4 -14 0 -19 7 -12 20
-11 126 1 134 6 4 9 32 8 65 -3 61 4 69 40 46 23 -14 59 2 66 30 13 52 2 62
-74 63 -38 0 -72 -4 -75 -9 -7 -12 -173 -12 -180 0 -3 5 -29 9 -58 8 -29 0
-59 2 -67 5 -8 2 -22 3 -31 0z m20 -98 c9 4 27 8 41 9 24 2 25 0 21 -47 -1
-27 2 -54 8 -60 14 -14 14 -54 1 -62 -7 -4 -8 -23 -5 -48 l7 -42 -39 2 c-21 1
-48 5 -60 9 -18 5 -25 1 -31 -17 -8 -20 -10 -16 -14 24 -3 27 -8 50 -11 53 -3
3 -42 6 -86 7 -68 2 -80 5 -75 17 3 8 15 42 27 76 l21 61 42 -5 c57 -6 91 4
99 28 6 18 8 19 22 4 9 -8 23 -12 32 -9z m256 -123 l0 -137 -30 3 c-16 1 -40
3 -51 3 -21 1 -21 5 -20 130 l1 128 50 4 c28 2 50 4 50 5 0 1 0 -60 0 -136z
m-420 -247 l0 -120 -30 3 c-16 1 -40 3 -52 3 -26 1 -27 5 -17 145 l7 89 46 0
46 0 0 -120z"/>
</g>
</svg>
