<?xml version="1.0" standalone="no"?>
<!DOCTYPE svg PUBLIC "-//W3C//DTD SVG 20010904//EN"
 "http://www.w3.org/TR/2001/REC-SVG-20010904/DTD/svg10.dtd">
<svg version="1.0" xmlns="http://www.w3.org/2000/svg"
 width="101.000000pt" height="101.000000pt" viewBox="0 0 101.000000 101.000000"
 preserveAspectRatio="xMidYMid meet">
<metadata>
Created by potrace 1.16, written by Peter Selinger 2001-2019
</metadata>
<g transform="translate(0.000000,101.000000) scale(0.100000,-0.100000)"
fill="#000000" stroke="none">
<path d="M435 900 l0 -48 92 2 93 1 0 -42 c0 -24 5 -43 10 -43 6 0 10 -11 10
-25 0 -14 -5 -25 -11 -25 -9 0 -10 -32 -5 -119 l7 -118 -61 -6 c-34 -4 -69 -3
-79 2 -9 5 -23 9 -31 9 -59 -4 -57 -6 -52 100 l4 98 -94 -1 -95 0 19 60 c18
55 25 82 27 95 1 3 33 5 71 4 66 -1 71 0 76 22 4 13 3 35 0 48 -6 23 -10 24
-86 25 -48 1 -80 -3 -80 -9 0 -5 -16 -10 -35 -10 -19 0 -35 5 -35 10 0 6 -26
10 -59 10 -66 0 -76 -10 -65 -66 l6 -33 59 2 c49 2 58 -1 53 -13 -3 -8 -8 -28
-10 -44 -2 -16 -9 -35 -14 -41 -6 -7 -9 -17 -8 -21 5 -16 -34 -107 -74 -173
-21 -34 -38 -66 -38 -69 0 -3 14 -21 32 -39 l32 -33 24 42 c13 24 21 35 18 25
-3 -10 -1 -27 5 -38 7 -14 7 -41 -2 -92 -12 -81 -14 -115 -5 -125 7 -7 75 -7
82 1 2 2 5 24 6 49 2 38 6 46 23 46 11 1 31 2 45 4 24 3 25 1 23 -44 -2 -51 8
-59 64 -51 39 6 46 22 27 59 -11 21 -13 34 -5 51 6 13 8 30 5 38 -4 9 0 16 7
16 8 1 28 3 44 6 125 17 172 12 174 -20 0 -12 3 -52 6 -89 3 -44 0 -81 -10
-108 -22 -62 -5 -82 61 -73 l30 5 1 121 c1 67 2 132 3 143 3 25 4 25 138 26
86 1 92 3 94 22 4 62 -10 80 -50 65 -23 -9 -86 -12 -154 -8 l-27 1 2 187 2
186 101 -2 102 -2 6 33 c11 57 0 69 -53 60 -25 -5 -68 -8 -96 -7 -27 1 -117 4
-200 7 l-150 5 0 -49z m-122 -326 c-3 -19 0 -53 7 -75 10 -28 11 -51 4 -77 -8
-32 -13 -37 -34 -34 -14 2 -35 3 -46 4 -19 0 -23 8 -29 66 -5 45 -4 67 4 70 6
2 11 19 11 37 0 32 2 34 38 38 20 2 40 4 44 5 4 1 4 -14 1 -34z"/>
<path d="M473 789 c-37 -11 -36 -9 -23 -44 14 -38 31 -119 31 -149 0 -40 18
-57 57 -52 20 3 40 5 45 5 4 1 5 16 1 34 -10 57 -16 92 -16 107 0 8 -4 20 -8
25 -4 6 -13 27 -19 48 -13 39 -17 41 -68 26z"/>
<path d="M809 793 c-1 -5 -3 -23 -5 -41 -2 -18 -18 -68 -35 -112 -18 -44 -30
-83 -27 -85 3 -3 22 -6 42 -8 l38 -2 33 92 c19 51 38 100 44 111 8 16 5 21
-25 35 -37 18 -63 22 -65 10z"/>
</g>
</svg>
