<?xml version="1.0" standalone="no"?>
<!DOCTYPE svg PUBLIC "-//W3C//DTD SVG 20010904//EN"
 "http://www.w3.org/TR/2001/REC-SVG-20010904/DTD/svg10.dtd">
<svg version="1.0" xmlns="http://www.w3.org/2000/svg"
 width="101.000000pt" height="101.000000pt" viewBox="0 0 101.000000 101.000000"
 preserveAspectRatio="xMidYMid meet">
<metadata>
Created by potrace 1.16, written by Peter Selinger 2001-2019
</metadata>
<g transform="translate(0.000000,101.000000) scale(0.100000,-0.100000)"
fill="#000000" stroke="none">
<path d="M418 963 c-10 -2 -18 -11 -18 -18 0 -11 -19 -12 -95 -8 -68 4 -95 3
-95 -6 0 -6 -15 -11 -35 -11 -19 0 -35 5 -35 10 0 6 -20 10 -45 10 -47 0 -65
-16 -65 -59 0 -37 27 -52 80 -45 44 6 48 5 45 -12 -2 -11 -4 -19 -6 -19 -1 0
-3 -9 -4 -21 -4 -36 -54 -136 -95 -190 l-40 -51 22 -41 c21 -38 38 -53 38 -34
0 4 9 18 19 32 l19 24 1 -24 c1 -14 3 -61 6 -105 3 -45 2 -108 -3 -142 -9 -69
-5 -74 55 -66 31 5 31 6 28 57 l-3 52 39 1 c39 2 39 2 33 -31 -5 -37 11 -48
59 -39 21 4 25 11 29 56 3 29 3 72 1 97 -4 41 -6 214 -2 268 2 33 -4 36 -80
40 l-69 4 24 61 c13 33 24 66 24 71 0 7 26 11 65 11 48 0 68 4 75 15 8 12 10
10 11 -10 13 -363 11 -596 -5 -647 -8 -26 8 -45 35 -44 74 3 212 11 262 15 36
3 74 -1 99 -10 29 -10 45 -11 60 -3 11 6 36 8 57 4 36 -6 39 -4 44 20 2 15 2
35 0 45 -6 22 -48 31 -82 19 -21 -8 -296 -15 -358 -9 -20 2 -21 6 -17 75 3 45
1 76 -6 80 -13 8 -13 52 0 60 12 7 12 153 0 160 -12 8 -11 147 1 161 6 8 9 35
7 61 l-3 48 104 -3 c67 -1 108 2 118 9 16 14 123 5 151 -12 29 -18 69 -4 76
27 12 48 1 61 -52 57 -201 -13 -284 -14 -295 -5 -7 6 -35 11 -62 11 -28 0 -61
2 -75 5 -14 2 -33 2 -42 -1z m-8 -88 c0 -5 -5 -3 -10 5 -5 8 -10 20 -10 25 0
6 5 3 10 -5 5 -8 10 -19 10 -25z m-141 -288 c0 -12 3 -51 6 -87 3 -36 3 -79 0
-97 -5 -30 -8 -32 -45 -30 -36 1 -40 4 -45 32 -3 16 -3 59 0 95 3 36 6 74 6
85 1 17 9 21 39 22 32 2 38 -1 39 -20z"/>
<path d="M698 863 c-20 -5 -31 -46 -23 -83 l6 -27 -70 5 -70 5 -6 -37 c-4 -20
-4 -53 -1 -73 4 -21 8 -47 9 -58 2 -11 6 -30 11 -43 5 -15 2 -35 -9 -57 -12
-27 -13 -39 -4 -56 6 -12 9 -34 5 -49 -6 -31 12 -41 58 -33 25 5 32 20 27 53
-2 8 -4 72 -5 143 -1 102 2 126 12 122 8 -3 18 -5 23 -5 5 0 9 -16 9 -35 0
-19 5 -35 10 -35 15 0 12 -67 -2 -73 -10 -4 -10 -8 1 -15 11 -8 13 -31 8 -119
-4 -60 -9 -117 -12 -125 -7 -19 18 -27 63 -20 29 4 31 7 25 31 -4 14 -7 42 -6
61 2 19 3 46 4 59 1 18 3 21 10 10 5 -8 9 -21 9 -30 0 -41 96 -23 121 23 9 16
14 75 16 189 l2 165 -82 1 -82 1 -3 31 c-2 17 1 31 6 31 16 0 24 33 10 42 -14
8 -41 9 -70 1z m125 -237 c0 -27 3 -57 9 -65 6 -11 7 -33 1 -61 -8 -41 -11
-45 -40 -46 -31 -2 -32 1 -39 42 -4 28 -2 56 6 74 7 17 10 47 7 68 -4 38 -4
38 27 38 31 -1 31 -2 29 -50z"/>
</g>
</svg>
