<?xml version="1.0" standalone="no"?>
<!DOCTYPE svg PUBLIC "-//W3C//DTD SVG 20010904//EN"
 "http://www.w3.org/TR/2001/REC-SVG-20010904/DTD/svg10.dtd">
<svg version="1.0" xmlns="http://www.w3.org/2000/svg"
 width="101.000000pt" height="102.000000pt" viewBox="0 0 101.000000 102.000000"
 preserveAspectRatio="xMidYMid meet">
<metadata>
Created by potrace 1.16, written by Peter Selinger 2001-2019
</metadata>
<g transform="translate(0.000000,102.000000) scale(0.100000,-0.100000)"
fill="#000000" stroke="none">
<path d="M648 975 c8 -89 6 -90 -102 -89 l-96 1 5 -81 c3 -44 5 -94 4 -111 0
-16 -2 -84 -3 -150 -2 -66 -6 -138 -10 -160 -9 -53 -26 -105 -35 -105 -23 0
-43 181 -21 195 4 3 8 31 8 64 -1 32 2 64 6 70 4 6 5 25 1 40 l-6 29 -83 -1
-83 -2 24 70 23 70 70 -2 c77 -1 88 8 75 66 -5 23 -13 30 -43 35 -58 9 -152 7
-152 -4 0 -5 -16 -10 -35 -10 -19 0 -35 5 -35 10 0 6 -20 10 -45 10 -38 0 -47
-4 -56 -24 -27 -59 11 -93 90 -80 40 6 40 6 35 -22 -12 -66 -68 -177 -115
-228 l-49 -53 23 -42 c12 -22 25 -41 29 -41 4 0 18 16 32 36 22 33 24 34 25
12 0 -12 3 -59 6 -103 3 -45 1 -110 -4 -145 -5 -36 -7 -67 -4 -70 2 -2 22 -3
45 -3 41 2 62 18 51 37 -4 5 -7 30 -9 56 l-2 46 45 2 c38 1 43 -1 39 -16 -10
-31 10 -46 56 -45 l43 2 -45 -39 c-24 -22 -42 -40 -40 -42 3 -2 25 -14 49 -26
l43 -24 35 34 34 33 30 -33 c27 -30 33 -33 60 -23 31 11 135 77 145 92 3 5 27
-6 53 -25 67 -50 142 -81 153 -64 4 7 8 16 8 20 0 3 12 21 26 38 15 17 25 32
23 34 -2 1 -34 10 -70 20 -36 9 -77 27 -93 39 l-27 22 30 55 c30 56 90 222 98
273 4 26 2 28 -24 26 -15 -1 -54 -1 -85 -1 l-58 2 0 69 0 70 45 7 c25 3 48 4
51 2 2 -3 -3 -22 -11 -43 -21 -48 -14 -65 27 -65 47 0 54 7 82 86 41 114 45
109 -87 109 l-112 0 2 30 c1 17 5 45 8 63 4 17 3 32 -2 33 -4 1 -28 3 -53 5
l-45 4 3 -45z m10 -252 l-3 -75 -55 -1 -55 -1 -3 47 c-2 28 1 47 7 47 6 0 11
12 11 28 0 26 3 27 50 29 l51 2 -3 -76z m-355 -169 c-3 -19 0 -53 7 -75 10
-28 11 -51 4 -77 -8 -32 -13 -37 -34 -34 -14 2 -35 3 -47 4 -27 0 -34 29 -28
108 3 30 5 65 6 77 1 18 8 23 43 26 22 2 44 4 48 5 4 1 4 -14 1 -34z m482 4
c9 -8 -21 -111 -47 -162 -24 -47 -29 -42 -60 59 -11 39 -25 73 -31 76 -5 4
-25 2 -44 -4 -32 -10 -34 -13 -29 -41 3 -16 22 -67 42 -113 30 -70 34 -86 23
-99 -13 -16 -107 -66 -147 -79 l-23 -7 20 39 c37 73 57 173 62 311 1 16 6 21
18 18 9 -3 23 -1 31 4 17 10 174 9 185 -2z"/>
</g>
</svg>
