<?xml version="1.0" standalone="no"?>
<!DOCTYPE svg PUBLIC "-//W3C//DTD SVG 20010904//EN"
 "http://www.w3.org/TR/2001/REC-SVG-20010904/DTD/svg10.dtd">
<svg version="1.0" xmlns="http://www.w3.org/2000/svg"
 width="101.000000pt" height="101.000000pt" viewBox="0 0 101.000000 101.000000"
 preserveAspectRatio="xMidYMid meet">
<metadata>
Created by potrace 1.16, written by Peter Selinger 2001-2019
</metadata>
<g transform="translate(0.000000,101.000000) scale(0.100000,-0.100000)"
fill="#000000" stroke="none">
<path d="M640 1002 c-11 -5 -15 -25 -15 -79 l0 -71 -89 4 c-97 4 -106 1 -106
-48 0 -48 23 -59 110 -54 l78 5 4 -57 3 -57 -102 2 c-96 1 -101 1 -107 -20
-17 -63 5 -88 75 -86 28 1 52 6 54 10 7 11 173 11 180 0 7 -13 87 -12 103 1 7
6 36 8 67 5 51 -5 55 -4 61 18 3 12 4 33 2 46 -3 22 -6 22 -123 23 l-120 1 0
53 c0 50 1 52 28 52 15 0 27 5 27 11 0 8 23 10 70 7 78 -4 88 4 75 63 -6 28
-10 31 -37 25 -17 -3 -60 -3 -97 0 l-66 6 2 32 c1 17 5 45 8 62 6 27 4 32 -17
36 -12 3 -30 8 -38 11 -8 3 -22 3 -30 -1z"/>
<path d="M61 892 c-12 -23 -14 -62 -5 -86 4 -11 18 -14 61 -10 l55 4 -7 -32
c-12 -54 -43 -118 -91 -186 l-45 -64 18 -44 c10 -24 21 -44 24 -44 3 0 17 16
31 36 24 34 26 34 28 12 5 -60 3 -276 -3 -304 -7 -35 9 -46 56 -37 19 4 24 11
25 36 3 75 2 73 44 74 32 2 38 -1 34 -15 -9 -29 10 -46 49 -45 20 1 38 3 41 6
9 9 6 63 -7 131 -9 52 -10 73 -1 87 7 11 11 54 10 102 0 46 2 89 5 95 18 27
-4 38 -79 39 -42 1 -78 3 -80 6 -2 2 6 34 19 72 l23 68 66 -1 c65 0 67 0 73
28 3 15 3 38 0 51 -6 24 -7 24 -148 26 -78 1 -152 5 -164 9 -15 4 -24 0 -32
-14z m232 -372 c-3 -22 0 -53 7 -70 8 -19 10 -46 6 -75 l-7 -45 -45 2 c-41 2
-44 5 -49 33 -2 16 -2 55 0 85 3 30 5 65 6 77 1 18 8 23 43 26 22 2 42 4 43 5
0 1 -1 -16 -4 -38z"/>
<path d="M637 543 c-15 -4 -16 -13 -12 -68 l6 -64 -35 -6 c-19 -4 -40 -4 -47
1 -7 4 -33 9 -59 11 -40 3 -48 1 -53 -16 -14 -53 22 -93 64 -70 10 5 43 6 74
3 43 -5 55 -10 51 -21 -3 -8 -1 -24 5 -35 6 -11 8 -35 5 -53 l-7 -33 -87 4
c-48 2 -97 5 -110 5 -31 1 -36 -5 -35 -47 1 -42 5 -46 35 -45 13 1 68 2 123 2
55 0 129 0 165 0 36 0 102 0 146 0 80 0 82 0 87 25 8 46 -2 64 -33 58 -15 -4
-37 -1 -49 5 -17 9 -28 8 -55 -4 -26 -13 -39 -14 -54 -6 -12 6 -27 8 -36 5
-19 -7 -32 55 -17 84 6 11 8 27 5 35 -4 10 2 16 18 17 47 3 133 1 154 -4 18
-5 22 -1 26 26 9 59 1 70 -46 61 -22 -4 -57 -6 -76 -5 -81 4 -77 2 -74 37 1
18 8 43 14 55 13 25 1 40 -32 40 -9 0 -22 2 -30 4 -7 2 -21 2 -31 -1z"/>
</g>
</svg>
