<?xml version="1.0" standalone="no"?>
<!DOCTYPE svg PUBLIC "-//W3C//DTD SVG 20010904//EN"
 "http://www.w3.org/TR/2001/REC-SVG-20010904/DTD/svg10.dtd">
<svg version="1.0" xmlns="http://www.w3.org/2000/svg"
 width="101.000000pt" height="101.000000pt" viewBox="0 0 101.000000 101.000000"
 preserveAspectRatio="xMidYMid meet">
<metadata>
Created by potrace 1.16, written by Peter Selinger 2001-2019
</metadata>
<g transform="translate(0.000000,101.000000) scale(0.100000,-0.100000)"
fill="#000000" stroke="none">
<path d="M625 966 c-4 -19 -2 -43 5 -56 8 -15 9 -55 4 -133 l-6 -112 -42 0
-41 0 1 97 c1 53 5 107 9 119 5 16 2 26 -11 36 -23 17 -90 17 -97 1 -2 -7 -2
-57 2 -111 3 -54 3 -104 -1 -110 -10 -16 -10 -89 0 -104 5 -8 34 -11 94 -8 82
3 86 3 87 -18 0 -12 3 -56 6 -97 2 -41 1 -113 -3 -160 -7 -83 -8 -85 -32 -82
-14 2 -35 3 -47 4 -16 0 -23 8 -27 27 -9 48 7 198 23 214 28 28 5 47 -66 53
-43 4 -52 -5 -43 -41 17 -67 22 -218 9 -273 -7 -28 -10 -55 -6 -58 7 -7 -4 -8
252 11 85 7 139 -1 132 -19 -11 -28 14 -42 70 -38 21 2 22 5 21 145 -1 78 2
156 5 172 13 67 13 66 -26 80 -57 20 -76 11 -70 -33 11 -87 13 -201 3 -227 -9
-23 -14 -26 -38 -20 -15 3 -37 7 -48 7 -20 0 -22 7 -27 107 -3 58 -4 129 -2
156 3 28 5 59 6 70 1 17 9 20 50 20 44 0 48 -2 43 -21 -6 -25 15 -34 63 -27
37 6 46 23 33 58 -5 14 -7 38 -4 54 4 16 1 32 -5 35 -14 9 -14 53 -1 61 6 4
10 33 9 65 -1 36 3 65 10 74 11 13 9 17 -15 27 -16 6 -44 13 -62 14 -27 3 -33
-1 -38 -20 -3 -13 -3 -29 1 -35 4 -6 8 -55 10 -108 l3 -97 -48 0 -49 0 -7 72
c-4 46 -3 78 4 86 6 7 11 35 10 62 0 28 4 60 7 73 8 23 -2 28 -52 23 -13 -1
-23 3 -23 9 0 5 -7 10 -15 10 -8 0 -17 -14 -20 -34z"/>
<path d="M78 913 c-21 -5 -33 -43 -24 -78 6 -25 8 -26 77 -20 l69 5 -6 -27
c-21 -87 -80 -198 -140 -265 l-33 -37 19 -43 c10 -24 24 -43 30 -43 5 0 23 20
39 44 25 38 29 40 30 20 0 -13 3 -58 6 -100 3 -52 1 -89 -9 -116 -25 -72 -4
-107 58 -96 26 5 32 25 28 83 -1 12 10 16 39 17 33 2 39 -1 35 -15 -9 -29 10
-46 49 -45 20 1 39 4 42 7 4 3 1 29 -5 57 -16 69 -16 186 1 193 10 5 10 7 0
12 -15 7 -18 74 -3 74 6 0 10 24 10 54 0 55 -16 76 -43 59 -15 -10 -117 -10
-117 -1 0 4 11 33 25 64 14 31 25 67 25 81 0 23 1 24 69 19 63 -5 70 -4 76 14
4 11 4 34 0 50 -8 34 -37 46 -88 35 -34 -7 -123 -7 -197 -1 -25 2 -53 2 -62
-1z m221 -366 c1 -12 3 -49 6 -82 3 -33 2 -74 0 -92 -5 -30 -8 -32 -45 -30
-36 1 -40 4 -45 32 -3 16 -3 57 0 90 3 33 6 69 6 80 1 17 9 21 39 22 32 2 38
-1 39 -20z"/>
</g>
</svg>
