<?xml version="1.0" standalone="no"?>
<!DOCTYPE svg PUBLIC "-//W3C//DTD SVG 20010904//EN"
 "http://www.w3.org/TR/2001/REC-SVG-20010904/DTD/svg10.dtd">
<svg version="1.0" xmlns="http://www.w3.org/2000/svg"
 width="101.000000pt" height="101.000000pt" viewBox="0 0 101.000000 101.000000"
 preserveAspectRatio="xMidYMid meet">
<metadata>
Created by potrace 1.16, written by Peter Selinger 2001-2019
</metadata>
<g transform="translate(0.000000,101.000000) scale(0.100000,-0.100000)"
fill="#000000" stroke="none">
<path d="M830 992 c-12 -6 -16 -35 -18 -149 -2 -92 0 -143 7 -148 14 -8 14
-52 1 -60 -13 -8 -12 -213 2 -221 7 -4 8 -33 3 -87 -8 -98 -12 -108 -39 -106
-53 5 -55 2 -35 -38 10 -21 19 -46 19 -56 0 -13 5 -17 18 -13 9 3 36 10 58 15
23 6 48 18 55 27 16 19 23 140 9 149 -13 8 -13 52 0 60 12 7 12 153 0 160 -12
7 -11 153 0 160 6 4 10 55 9 118 0 62 3 127 6 145 4 17 4 32 -1 33 -26 2 -51
7 -64 12 -8 3 -22 3 -30 -1z"/>
<path d="M377 944 c-11 -12 -62 -16 -189 -16 l-136 0 -7 -25 c-13 -55 17 -80
89 -71 19 2 32 0 29 -5 -3 -4 -7 -23 -10 -40 -11 -72 -64 -177 -119 -237 l-24
-26 21 -42 c23 -45 34 -52 43 -24 4 9 15 28 25 42 l19 24 1 -24 c0 -14 3 -55
6 -92 3 -43 0 -81 -9 -106 -25 -71 -4 -106 58 -95 25 5 32 22 28 74 -1 11 8
16 29 16 19 0 28 -5 25 -12 -8 -23 13 -39 49 -38 l37 1 -42 -43 -43 -43 43
-22 c40 -20 43 -20 61 -4 29 26 65 93 89 164 23 68 33 120 39 211 1 10 11 16
30 16 22 0 29 -5 30 -21 0 -12 3 -59 6 -107 4 -61 1 -97 -9 -127 -12 -34 -13
-48 -4 -68 9 -20 9 -30 -1 -46 -7 -11 -11 -22 -9 -24 5 -5 37 -8 68 -6 l25 2
-7 108 c-4 59 -5 139 -3 177 3 39 6 80 6 93 1 12 6 22 13 21 25 -3 35 2 39 19
2 9 7 -8 11 -38 4 -30 3 -66 -2 -80 -5 -14 -7 -41 -5 -62 5 -39 22 -49 66 -41
24 5 25 10 31 81 3 43 5 159 5 260 -1 178 -2 188 -32 183 -4 -1 -16 3 -26 8
-13 7 -23 6 -34 -2 -13 -10 -14 -28 -10 -104 3 -51 10 -93 14 -93 16 0 10 -67
-6 -74 -9 -3 -15 0 -15 9 0 14 -11 19 -36 16 -12 -1 -24 94 -24 188 0 49 2 53
20 48 29 -7 52 19 48 57 l-3 31 -94 -3 c-51 -1 -98 1 -105 7 -11 9 -90 13 -99
5z m35 -156 c-1 -31 2 -59 8 -63 11 -7 13 -84 2 -101 -4 -6 -22 -11 -39 -11
-33 0 -37 7 -36 54 0 7 -24 14 -61 18 -33 4 -64 9 -67 11 -4 2 3 35 14 73 19
66 22 69 46 65 14 -2 38 -1 53 3 15 4 40 8 55 8 28 0 28 -1 25 -57z m118 27
c0 -14 5 -25 10 -25 11 0 13 -136 2 -160 -4 -8 -18 -16 -31 -18 -21 -2 -23 1
-17 29 3 17 6 69 6 115 0 68 3 84 15 84 9 0 15 -9 15 -25z m-271 -230 c0 -11
3 -49 6 -85 3 -36 3 -79 0 -97 -5 -28 -9 -31 -40 -30 -31 1 -35 5 -40 31 -3
17 -3 60 0 96 3 36 6 74 6 85 1 16 8 20 34 20 26 0 33 -4 34 -20z m109 -57 c9
0 25 0 35 0 10 1 15 -3 12 -9 -4 -5 -8 -31 -10 -57 -5 -71 -37 -186 -55 -197
-13 -8 -20 51 -15 115 7 83 7 83 0 112 -4 15 -4 40 1 55 7 26 8 27 11 6 3 -13
12 -24 21 -25z"/>
</g>
</svg>
