<?xml version="1.0" standalone="no"?>
<!DOCTYPE svg PUBLIC "-//W3C//DTD SVG 20010904//EN"
 "http://www.w3.org/TR/2001/REC-SVG-20010904/DTD/svg10.dtd">
<svg version="1.0" xmlns="http://www.w3.org/2000/svg"
 width="101.000000pt" height="102.000000pt" viewBox="0 0 101.000000 102.000000"
 preserveAspectRatio="xMidYMid meet">
<metadata>
Created by potrace 1.16, written by Peter Selinger 2001-2019
</metadata>
<g transform="translate(0.000000,102.000000) scale(0.100000,-0.100000)"
fill="#000000" stroke="none">
<path d="M547 906 c-31 -61 -78 -139 -106 -172 l-50 -61 41 -27 c46 -30 52
-28 95 39 l27 43 38 -56 37 -57 -22 -17 c-28 -22 -188 -87 -202 -82 -6 3 -9
32 -7 74 4 67 3 69 -22 76 -15 3 -39 3 -54 0 -15 -3 -39 -8 -54 -9 l-26 -3 20
50 c11 28 25 65 30 82 10 30 11 30 64 26 87 -7 100 -1 99 52 0 40 -2 45 -20
41 -22 -5 -246 -8 -313 -4 -45 3 -62 -9 -62 -43 0 -36 30 -51 92 -44 32 4 58
5 58 3 0 -2 -9 -30 -20 -62 -26 -77 -64 -139 -117 -197 l-44 -46 27 -42 28
-42 28 31 c15 17 30 31 33 31 3 0 5 -34 5 -75 0 -43 -4 -75 -10 -75 -11 0 -14
-99 -4 -148 7 -33 26 -43 68 -35 17 4 26 12 25 22 -1 9 -1 32 0 52 1 35 3 37
41 41 32 3 39 1 35 -12 -10 -31 15 -46 71 -42 19 2 22 8 21 50 -1 26 0 81 1
122 l3 75 17 -28 c11 -18 22 -25 32 -21 8 3 21 8 28 11 9 4 12 -21 12 -104 0
-61 3 -137 6 -171 7 -65 17 -74 69 -65 24 5 26 9 21 43 -5 34 -3 38 17 39 12
1 45 3 72 5 69 6 105 -2 103 -22 -4 -58 12 -75 64 -65 23 4 23 5 25 176 1 95
2 178 3 184 0 9 7 10 26 3 28 -11 44 -6 44 14 0 7 10 25 21 40 24 31 23 35
-17 42 -40 7 -123 34 -157 51 l-28 14 26 35 c30 39 115 215 115 238 0 28 -58
35 -104 11 -33 -18 -92 -20 -102 -4 -3 6 -17 9 -30 6 -22 -4 -23 -3 -8 25 8
16 22 32 30 35 28 10 13 29 -35 45 l-49 15 -55 -111z m217 -126 c-8 -19 -27
-52 -41 -73 -30 -44 -42 -39 -70 29 -16 41 -21 45 -46 40 -26 -5 -27 -5 -13
17 14 20 23 22 100 22 l84 0 -14 -35z m-456 -315 l3 -110 -44 3 -44 4 1 106 1
107 40 0 40 0 3 -110z m522 3 c0 -9 -68 -8 -180 1 l-75 6 35 19 c19 10 45 27
57 36 22 17 25 16 93 -19 38 -20 70 -39 70 -43z m-54 -153 c1 -73 1 -75 -24
-82 -14 -3 -33 -1 -42 5 -9 5 -39 9 -66 9 l-49 -2 0 70 0 70 90 2 90 3 1 -75z"/>
</g>
</svg>
