<?xml version="1.0" standalone="no"?>
<!DOCTYPE svg PUBLIC "-//W3C//DTD SVG 20010904//EN"
 "http://www.w3.org/TR/2001/REC-SVG-20010904/DTD/svg10.dtd">
<svg version="1.0" xmlns="http://www.w3.org/2000/svg"
 width="101.000000pt" height="101.000000pt" viewBox="0 0 101.000000 101.000000"
 preserveAspectRatio="xMidYMid meet">
<metadata>
Created by potrace 1.16, written by Peter Selinger 2001-2019
</metadata>
<g transform="translate(0.000000,101.000000) scale(0.100000,-0.100000)"
fill="#000000" stroke="none">
<path d="M448 974 c-9 -3 -19 -17 -23 -32 -5 -20 -9 -23 -14 -12 -5 12 -34 15
-176 15 l-170 0 -3 -27 c-2 -15 2 -37 8 -49 11 -19 18 -21 65 -17 52 4 53 4
49 -21 -8 -45 -72 -166 -114 -214 l-41 -47 19 -51 19 -51 35 42 c33 37 36 39
37 18 0 -13 3 -59 6 -103 3 -44 1 -111 -5 -149 -6 -38 -8 -71 -5 -74 7 -7 85
-5 92 2 2 2 -1 13 -9 25 -10 16 -10 27 -1 52 7 17 10 36 7 43 -3 8 8 12 34 13
38 2 38 2 39 -39 1 -22 5 -43 8 -46 7 -7 74 -6 82 2 8 7 16 405 9 432 -5 20
-15 23 -85 30 l-80 6 25 57 c14 31 25 57 25 59 -4 14 8 17 61 19 38 1 64 7 69
15 6 9 9 3 10 -17 1 -16 3 -57 5 -90 3 -33 4 -107 4 -165 -1 -195 -1 -260 0
-292 1 -18 -1 -48 -5 -66 -4 -17 -4 -52 -1 -76 7 -47 22 -58 68 -49 25 5 28
15 27 93 0 14 0 84 0 157 0 73 -4 135 -8 138 -13 7 -13 146 -1 160 6 7 9 58 8
116 l-3 104 155 2 155 2 -3 -50 c-2 -27 1 -55 7 -63 12 -14 13 -153 1 -161
-12 -7 -12 -153 0 -160 13 -8 13 -52 0 -60 -6 -4 -9 -41 -8 -88 l3 -82 -48 -1
c-26 0 -50 -3 -53 -6 -3 -4 2 -20 10 -37 9 -16 16 -36 16 -44 0 -8 9 -17 20
-20 29 -8 119 22 130 43 15 28 25 336 11 344 -14 9 -14 53 -1 61 13 8 13 142
1 150 -13 7 -13 172 -1 180 5 3 9 20 8 38 l-1 32 -61 -2 c-34 -1 -89 -5 -123
-9 -40 -4 -67 -3 -75 4 -8 6 -36 10 -63 10 -28 0 -68 2 -90 5 -22 3 -47 3 -57
1z m-162 -348 c1 -1 5 -49 9 -108 l7 -107 -38 2 -39 1 0 112 0 113 30 -6 c17
-3 31 -6 31 -7z"/>
<path d="M558 803 c-23 -6 -33 -45 -18 -72 9 -17 20 -21 60 -21 30 0 54 6 64
15 18 19 27 19 62 0 37 -19 49 -19 68 1 19 18 21 60 4 70 -14 9 -212 14 -240
7z"/>
<path d="M568 654 c-14 -4 -18 -16 -18 -55 0 -29 4 -49 11 -49 12 0 4 -116
-11 -156 -5 -12 -6 -31 -3 -42 4 -17 11 -19 41 -15 80 10 146 11 169 2 l25 -9
-7 64 c-5 41 -3 66 4 70 12 8 14 155 2 175 -8 13 -179 25 -213 15z m127 -92
c-3 -7 0 -22 5 -33 6 -11 8 -40 4 -68 -6 -48 -7 -49 -40 -48 l-35 1 3 81 3 81
33 0 c22 -1 31 -5 27 -14z"/>
</g>
</svg>
