<?xml version="1.0" standalone="no"?>
<!DOCTYPE svg PUBLIC "-//W3C//DTD SVG 20010904//EN"
 "http://www.w3.org/TR/2001/REC-SVG-20010904/DTD/svg10.dtd">
<svg version="1.0" xmlns="http://www.w3.org/2000/svg"
 width="101.000000pt" height="102.000000pt" viewBox="0 0 101.000000 102.000000"
 preserveAspectRatio="xMidYMid meet">
<metadata>
Created by potrace 1.16, written by Peter Selinger 2001-2019
</metadata>
<g transform="translate(0.000000,102.000000) scale(0.100000,-0.100000)"
fill="#000000" stroke="none">
<path d="M625 978 l0 -43 -95 0 -95 0 -3 -30 c-1 -16 2 -36 6 -43 10 -14 15
-15 112 -10 63 3 65 2 65 -22 0 -25 -1 -25 -85 -25 l-85 0 -3 -30 c-2 -16 3
-39 11 -49 13 -18 21 -19 89 -10 l75 9 -1 -27 c-1 -23 -6 -27 -43 -33 -24 -3
-48 -3 -55 1 -6 4 -23 8 -37 9 -14 1 -30 3 -36 5 -39 10 -57 -14 -48 -64 5
-23 8 -25 47 -20 38 6 146 7 291 4 33 -1 75 2 93 5 19 4 52 2 78 -5 24 -7 47
-10 50 -7 3 3 6 22 7 42 1 42 -16 57 -50 44 -21 -8 -130 -13 -178 -9 -14 2
-20 10 -20 29 l0 26 98 0 c106 0 115 5 102 58 -6 24 -8 24 -104 23 -94 -1 -97
0 -93 20 3 19 13 23 77 29 47 4 81 3 94 -4 15 -9 23 -7 35 5 17 17 19 27 10
60 -5 21 -11 22 -113 20 l-108 -1 3 35 c3 40 -8 50 -56 50 -35 0 -35 -1 -35
-42z"/>
<path d="M35 922 c-3 -8 -3 -29 1 -47 7 -39 32 -49 94 -39 26 4 40 3 40 -4 0
-6 -4 -13 -9 -16 -5 -3 -8 -16 -8 -30 0 -34 -57 -143 -102 -196 l-39 -44 21
-43 c12 -24 24 -43 28 -43 4 0 16 14 27 32 20 30 20 31 22 7 1 -13 2 -85 2
-161 0 -149 2 -152 61 -141 19 4 24 11 25 36 3 75 2 73 44 74 29 2 38 -2 35
-11 -9 -24 11 -40 48 -39 20 1 39 3 42 6 5 6 5 116 -1 257 -3 52 -1 102 4 111
5 8 7 25 4 37 -5 17 -14 20 -57 21 -72 0 -97 2 -97 10 0 3 7 27 14 53 8 25 12
55 9 66 -4 18 0 19 55 15 64 -4 92 10 92 47 0 49 -4 51 -136 44 -80 -4 -129
-2 -137 4 -19 16 -75 11 -82 -6z m244 -335 c1 -12 3 -49 6 -82 3 -33 2 -74 0
-92 -5 -30 -8 -32 -45 -30 -36 1 -40 4 -45 32 -3 16 -3 57 0 90 3 33 6 69 6
80 1 17 9 21 39 22 32 2 38 -1 39 -20z"/>
<path d="M449 563 c-21 -5 -31 -40 -19 -64 6 -9 8 -62 7 -117 -4 -110 -1 -116
58 -105 26 5 26 7 25 82 -2 112 -1 119 24 120 11 0 55 3 96 6 41 3 94 3 116 0
47 -7 46 -3 44 -126 -1 -85 4 -91 68 -81 28 4 32 7 25 26 -9 23 -8 147 1 214
l5 42 -52 2 c-29 1 -77 0 -107 -1 -115 -5 -246 -5 -260 1 -8 3 -22 4 -31 1z"/>
<path d="M638 452 c-10 -2 -19 -9 -19 -15 -11 -99 -28 -145 -71 -184 -33 -31
-108 -62 -162 -67 -74 -7 -79 -15 -40 -60 30 -34 37 -38 66 -32 50 9 169 69
205 103 l32 30 82 -44 c45 -24 98 -57 119 -73 l38 -30 32 40 c17 22 28 44 25
50 -8 14 -220 120 -239 120 -7 0 -21 -10 -30 -22 -16 -22 -16 -22 -3 7 13 28
26 70 33 105 1 8 5 24 9 35 5 16 0 22 -27 30 -18 6 -41 9 -50 7z"/>
</g>
</svg>
