<?xml version="1.0" standalone="no"?>
<!DOCTYPE svg PUBLIC "-//W3C//DTD SVG 20010904//EN"
 "http://www.w3.org/TR/2001/REC-SVG-20010904/DTD/svg10.dtd">
<svg version="1.0" xmlns="http://www.w3.org/2000/svg"
 width="101.000000pt" height="101.000000pt" viewBox="0 0 101.000000 101.000000"
 preserveAspectRatio="xMidYMid meet">
<metadata>
Created by potrace 1.16, written by Peter Selinger 2001-2019
</metadata>
<g transform="translate(0.000000,101.000000) scale(0.100000,-0.100000)"
fill="#000000" stroke="none">
<path d="M574 975 c-3 -19 -5 -50 -2 -67 3 -31 1 -33 -27 -34 -30 0 -30 0 -28
48 3 42 1 48 -19 53 -13 3 -34 4 -48 1 -14 -2 -28 -5 -32 -5 -3 -1 -5 -23 -5
-49 2 -46 1 -49 -22 -46 -24 3 -41 19 -41 40 0 6 -26 10 -65 10 -36 0 -65 -3
-65 -8 0 -4 -11 -8 -25 -8 -14 0 -25 5 -25 10 0 6 -28 10 -65 10 -60 0 -65 -2
-71 -24 -10 -41 4 -65 42 -72 19 -3 42 -4 52 -2 52 14 -27 -193 -98 -257 -18
-16 -18 -20 -5 -52 8 -19 14 -37 14 -41 -5 -32 5 -33 30 -2 35 42 33 51 33
-157 0 -130 1 -142 19 -146 10 -3 28 -3 39 0 19 5 26 31 22 83 -1 12 11 16 45
18 34 1 44 -2 40 -12 -9 -22 10 -39 42 -39 17 0 34 2 37 5 3 3 5 43 4 89 -2
240 -1 287 2 317 4 30 3 32 -26 34 -17 0 -38 0 -46 -1 -8 0 -32 -3 -52 -5 -21
-3 -38 -2 -38 1 0 12 43 149 49 154 3 4 29 9 57 11 49 5 51 4 62 -25 11 -29
12 -30 57 -11 9 4 14 -222 6 -251 -8 -25 1 -33 33 -31 18 2 38 6 45 10 6 4 31
4 55 1 42 -7 43 -8 42 -43 -1 -41 -3 -42 -111 -26 -60 8 -94 8 -102 0 -8 -8
-8 -64 0 -72 6 -6 19 -6 110 0 l57 4 -30 -38 c-46 -58 -125 -126 -176 -150
l-45 -22 46 -29 c25 -16 48 -29 51 -29 15 0 142 132 174 182 35 53 38 56 39
30 4 -69 1 -131 -8 -153 -21 -56 6 -93 61 -82 23 4 24 7 25 106 2 159 1 154
35 103 29 -45 142 -156 157 -156 5 0 25 15 46 34 l37 35 -49 24 c-48 25 -153
111 -153 127 0 9 26 11 111 10 48 0 57 3 62 20 11 44 -2 58 -51 59 -26 0 -56
0 -67 1 -11 0 -43 -1 -71 -4 l-52 -4 1 33 c1 25 5 33 21 34 71 5 96 5 137 -2
45 -8 47 -7 52 19 7 41 -2 66 -24 59 -10 -3 -27 -1 -38 4 -14 8 -31 7 -62 -4
-32 -12 -67 -14 -134 -10 -49 3 -100 6 -112 6 -19 1 -22 9 -28 62 -5 42 -4 62
4 65 6 2 11 20 11 40 0 34 2 37 30 37 24 0 29 -3 24 -18 -3 -10 -2 -47 1 -82
l7 -64 42 5 c64 9 159 9 184 1 21 -8 22 -6 22 50 -1 117 -5 111 55 106 l52 -4
-1 43 c-1 46 -12 61 -34 49 -8 -4 -25 -6 -38 -3 -19 3 -24 11 -26 36 -1 30 -1
38 5 73 2 14 -7 17 -46 17 -55 1 -59 -5 -53 -81 l5 -52 -42 2 c-41 2 -42 3
-41 37 1 19 5 47 8 61 6 22 4 27 -16 33 -13 3 -35 6 -50 6 -23 0 -28 -5 -34
-35z m174 -222 l2 -43 -43 2 -42 2 0 41 0 40 40 0 41 0 2 -42z m-470 -173 c10
-95 11 -192 2 -215 -8 -22 -14 -26 -33 -20 -12 4 -32 7 -44 7 -28 0 -36 35
-28 133 3 39 6 80 6 93 1 16 6 21 18 18 9 -3 23 -1 31 4 24 16 45 7 48 -20z"/>
</g>
</svg>
