<?xml version="1.0" standalone="no"?>
<!DOCTYPE svg PUBLIC "-//W3C//DTD SVG 20010904//EN"
 "http://www.w3.org/TR/2001/REC-SVG-20010904/DTD/svg10.dtd">
<svg version="1.0" xmlns="http://www.w3.org/2000/svg"
 width="101.000000pt" height="101.000000pt" viewBox="0 0 101.000000 101.000000"
 preserveAspectRatio="xMidYMid meet">
<metadata>
Created by potrace 1.16, written by Peter Selinger 2001-2019
</metadata>
<g transform="translate(0.000000,101.000000) scale(0.100000,-0.100000)"
fill="#000000" stroke="none">
<path d="M548 970 c2 -22 1 -55 -2 -73 -6 -30 -9 -32 -39 -30 -76 7 -113 17
-131 35 -16 18 -27 19 -85 14 -82 -7 -136 -7 -181 -1 -43 7 -58 -2 -66 -41 -9
-48 16 -66 78 -58 l51 7 -7 -29 c-14 -55 -57 -139 -102 -196 l-44 -57 22 -42
22 -42 22 26 c21 25 22 25 23 4 0 -12 3 -60 6 -108 4 -60 1 -97 -9 -126 -24
-68 -4 -98 56 -86 20 4 24 11 25 46 3 84 3 83 39 84 25 1 33 -3 32 -15 -4 -50
13 -65 66 -55 25 5 25 6 21 87 -2 44 -2 71 1 58 5 -20 9 -22 52 -16 26 3 90 6
142 6 144 -1 219 -1 285 1 33 0 74 -2 91 -6 30 -6 32 -4 36 25 8 49 0 67 -27
62 -21 -4 -24 0 -30 40 -4 24 -4 70 -1 102 10 93 15 227 10 256 -5 27 -6 27
-77 25 l-73 -2 7 65 c7 69 2 80 -36 79 -47 -1 -53 -10 -51 -79 l2 -65 -28 0
c-28 0 -28 0 -24 55 2 30 6 62 8 70 2 11 -8 16 -42 18 l-46 3 4 -41z m-157
-225 c-1 -48 3 -94 9 -105 12 -22 4 -200 -9 -198 -24 3 -41 -4 -41 -18 0 -8
-5 -12 -10 -9 -10 6 -8 139 3 226 l5 37 -72 -2 -71 -1 24 62 c26 65 22 63 119
80 17 3 32 10 32 16 0 6 3 7 7 3 4 -3 6 -44 4 -91z m144 -19 l0 -64 -30 1
c-30 1 -30 1 -30 58 0 57 1 58 30 62 17 2 30 5 30 5 0 1 0 -27 0 -62z m137 -6
l3 -58 -30 1 -30 1 0 61 c0 60 0 61 27 57 25 -4 27 -8 30 -62z m134 56 c1 -1
5 -26 8 -58 l7 -56 -35 1 -34 1 1 62 c2 62 3 63 27 57 14 -3 26 -6 26 -7z
m-547 -210 c1 -11 3 -46 6 -76 2 -30 2 -67 -1 -81 -4 -23 -10 -27 -39 -26 -40
1 -47 19 -40 107 3 30 5 64 6 76 1 16 8 20 34 21 27 1 33 -3 34 -21z m277 7
c-3 -8 -1 -23 5 -34 6 -12 8 -37 4 -59 -6 -35 -9 -38 -40 -37 -31 1 -34 4 -40
38 -4 21 -2 47 4 58 6 11 9 26 6 33 -4 10 4 14 30 15 28 1 35 -2 31 -14z m140
0 c-3 -8 -1 -23 5 -34 6 -12 8 -37 4 -59 -6 -35 -9 -38 -40 -37 -31 1 -34 4
-40 38 -4 21 -2 47 4 58 6 11 9 26 6 33 -4 10 4 14 30 15 28 1 35 -2 31 -14z
m140 0 c-3 -8 -1 -23 5 -34 6 -12 8 -37 4 -59 -6 -35 -9 -38 -40 -37 -31 1
-34 4 -40 38 -4 21 -2 47 4 58 6 11 9 26 6 33 -4 10 4 14 30 15 28 1 35 -2 31
-14z"/>
<path d="M470 288 c-29 -33 -78 -76 -108 -95 l-54 -35 37 -34 c32 -29 40 -32
54 -22 9 7 48 40 87 73 38 33 83 70 100 81 27 20 28 22 12 40 -9 11 -29 26
-45 36 l-28 16 -55 -60z"/>
<path d="M705 308 l-37 -31 34 -26 c18 -14 63 -54 99 -89 l67 -63 36 31 c20
18 36 36 36 41 0 12 -50 56 -134 120 l-63 48 -38 -31z"/>
</g>
</svg>
