<?xml version="1.0" standalone="no"?>
<!DOCTYPE svg PUBLIC "-//W3C//DTD SVG 20010904//EN"
 "http://www.w3.org/TR/2001/REC-SVG-20010904/DTD/svg10.dtd">
<svg version="1.0" xmlns="http://www.w3.org/2000/svg"
 width="101.000000pt" height="101.000000pt" viewBox="0 0 101.000000 101.000000"
 preserveAspectRatio="xMidYMid meet">
<metadata>
Created by potrace 1.16, written by Peter Selinger 2001-2019
</metadata>
<g transform="translate(0.000000,101.000000) scale(0.100000,-0.100000)"
fill="#000000" stroke="none">
<path d="M665 966 c-4 -19 -2 -43 5 -56 6 -11 9 -34 5 -49 l-6 -28 -151 4
c-150 3 -167 7 -168 39 0 18 -29 25 -51 14 -19 -11 -171 -6 -201 5 -27 11 -58
-13 -58 -43 0 -40 11 -49 56 -48 38 1 41 -1 38 -22 -8 -41 -53 -153 -85 -208
-28 -50 -29 -54 -14 -77 9 -14 15 -29 14 -33 -8 -46 16 -43 40 4 17 34 19 35
20 12 0 -14 3 -62 6 -108 3 -45 1 -110 -5 -144 -5 -34 -7 -64 -4 -67 2 -3 21
-4 41 -4 35 1 57 18 46 37 -4 5 -7 30 -9 56 -2 46 -2 46 32 47 27 1 34 -3 34
-18 0 -19 14 -24 58 -20 22 2 23 1 8 -27 -8 -16 -27 -43 -41 -60 -31 -37 -31
-38 3 -45 15 -3 35 -9 44 -12 12 -5 23 4 41 32 23 36 57 126 64 168 9 56 11
79 18 183 6 82 5 112 -3 112 -8 0 -12 25 -12 74 l0 73 57 -4 c32 -2 67 1 78 7
12 6 39 10 61 8 l39 -3 2 -55 c1 -30 -1 -47 -4 -37 -3 11 -14 17 -31 17 -15 0
-57 3 -94 6 -65 7 -68 6 -79 -18 -18 -41 2 -68 51 -68 23 0 40 5 40 11 0 8 17
10 54 5 39 -4 56 -2 59 7 8 23 20 -3 23 -50 2 -47 5 -70 19 -143 3 -19 8 -44
10 -55 2 -11 6 -27 10 -37 9 -23 -88 -116 -153 -148 -28 -14 -51 -27 -52 -30
0 -3 23 -16 50 -28 l51 -23 49 41 c28 23 59 53 69 67 l20 24 17 -33 c29 -58
62 -95 94 -107 26 -9 34 -7 50 9 23 23 50 111 43 139 -5 21 -71 66 -81 56 -4
-3 -5 -26 -4 -51 2 -56 -11 -50 -43 18 -22 47 -22 52 -8 86 17 41 62 183 69
222 3 14 12 33 21 42 14 16 12 19 -18 37 -49 30 -64 27 -76 -16 -6 -21 -11
-45 -11 -53 0 -8 -2 -26 -5 -40 -3 -14 -8 -42 -12 -62 -9 -47 -24 -40 -24 10
0 20 -2 62 -5 92 -14 155 -15 150 16 150 15 0 28 5 28 10 0 6 20 10 44 10 25
0 48 -4 51 -10 10 -16 42 -12 49 6 19 49 -9 91 -51 78 -17 -5 -17 -5 -1 9 17
13 16 17 -17 61 -39 50 -49 54 -83 30 l-22 -15 25 -43 c14 -24 25 -45 25 -47
0 -2 -17 -4 -37 -4 l-38 0 2 55 c1 30 3 64 5 75 3 17 -2 20 -34 17 -23 -2 -38
1 -38 7 0 26 -20 8 -25 -23z m-299 -269 c2 -61 6 -136 10 -166 4 -34 1 -70 -6
-95 -7 -23 -14 -52 -15 -66 -4 -50 -17 -100 -26 -100 -15 0 -22 52 -10 73 9
14 10 22 2 30 -14 14 -14 74 -1 82 6 3 9 45 8 95 l-1 88 -30 6 c-16 3 -51 6
-77 6 l-48 0 25 78 26 78 63 -2 c40 -1 64 2 64 9 0 6 3 7 7 4 4 -4 8 -58 9
-120z m-120 -154 c-3 -8 -1 -23 4 -33 6 -10 7 -45 4 -78 -7 -60 -7 -60 -39
-59 -32 1 -33 2 -39 60 -3 32 -1 67 4 77 5 10 8 25 5 32 -4 10 4 14 30 15 28
1 35 -2 31 -14z"/>
<path d="M621 569 c-12 -5 -51 -7 -86 -4 -58 5 -63 4 -68 -16 -3 -12 -2 -30 3
-40 6 -9 8 -60 7 -112 -4 -89 -2 -96 16 -101 11 -3 28 -1 38 4 10 6 44 7 77 4
66 -7 80 4 61 53 -11 31 -14 110 -6 170 7 46 -3 56 -42 42z m-36 -87 c-3 -7 0
-23 6 -34 6 -11 8 -34 5 -52 -5 -24 -11 -31 -31 -32 -20 -2 -26 4 -31 31 -3
18 -1 42 5 53 6 11 8 27 5 35 -4 11 2 15 20 13 17 0 24 -6 21 -14z"/>
</g>
</svg>
