<?xml version="1.0" standalone="no"?>
<!DOCTYPE svg PUBLIC "-//W3C//DTD SVG 20010904//EN"
 "http://www.w3.org/TR/2001/REC-SVG-20010904/DTD/svg10.dtd">
<svg version="1.0" xmlns="http://www.w3.org/2000/svg"
 width="101.000000pt" height="103.000000pt" viewBox="0 0 101.000000 103.000000"
 preserveAspectRatio="xMidYMid meet">
<metadata>
Created by potrace 1.16, written by Peter Selinger 2001-2019
</metadata>
<g transform="translate(0.000000,103.000000) scale(0.100000,-0.100000)"
fill="#000000" stroke="none">
<path d="M514 1019 c-3 -6 -17 -9 -30 -6 -28 5 -30 -3 -9 -42 l14 -28 -72 -6
c-119 -9 -185 -8 -191 2 -3 5 -26 9 -51 9 -57 0 -79 -19 -71 -62 8 -47 11
-310 3 -323 -4 -6 -2 -23 5 -38 9 -20 9 -34 -2 -63 -7 -20 -14 -53 -16 -72 -5
-64 -14 -94 -48 -164 l-34 -70 31 -38 c18 -21 36 -38 40 -38 17 0 91 188 104
265 2 11 5 61 7 110 2 50 4 94 5 98 0 4 17 -4 37 -19 41 -32 44 -30 97 58 l35
58 7 -55 c3 -30 4 -64 0 -75 -7 -21 5 -25 55 -21 31 3 41 18 30 47 -5 12 -8
41 -7 64 l1 42 34 -37 34 -37 24 23 c31 29 30 42 -7 73 -35 30 -46 32 -69 11
-14 -13 -16 -12 -17 5 -2 17 5 20 37 20 22 0 45 7 54 16 15 14 17 14 22 0 4
-12 16 -15 40 -12 19 2 34 0 34 -4 0 -24 -100 -132 -147 -158 -10 -6 -16 -12
-13 -14 3 -2 19 -15 36 -29 l31 -25 -31 -2 c-126 -9 -223 -9 -237 -2 -39 21
-74 -13 -62 -60 5 -17 12 -19 47 -16 22 3 50 8 62 11 11 4 36 2 55 -2 l34 -9
-76 -60 c-41 -32 -91 -68 -112 -79 -20 -11 -37 -22 -37 -26 0 -4 16 -19 36
-34 l35 -27 39 31 c43 34 55 39 47 17 -3 -8 -1 -28 6 -45 9 -23 8 -35 -3 -55
-17 -32 -9 -40 37 -39 36 1 55 16 46 39 -2 7 5 12 19 13 13 1 46 3 73 6 85 7
237 -5 232 -19 -11 -28 14 -42 70 -38 19 2 21 5 12 30 -8 25 -7 118 5 204 l4
38 -41 -7 c-37 -6 -253 -8 -315 -3 l-24 2 27 28 c15 15 36 28 48 29 12 0 54 3
92 6 39 3 124 1 190 -5 65 -5 121 -7 124 -5 7 8 5 64 -3 72 -8 8 -97 8 -226
-2 -55 -3 -99 -1 -123 6 l-38 12 40 41 c22 23 51 61 64 85 25 43 25 43 26 15
1 -16 2 -52 2 -80 0 -43 3 -53 19 -57 41 -10 56 2 57 46 4 94 4 93 15 72 15
-28 90 -105 103 -105 5 0 22 16 38 35 l27 34 -38 20 c-37 19 -118 98 -109 107
2 3 29 5 60 5 60 1 72 11 61 53 -5 20 -11 22 -77 21 l-73 0 2 30 c3 34 -9 45
-48 45 -30 0 -53 -30 -45 -59 3 -13 -3 -16 -32 -14 -20 0 -43 4 -52 8 -11 4
-22 -1 -33 -17 -12 -16 -16 -18 -16 -7 0 11 -13 18 -41 23 -22 4 -44 4 -49 1
-5 -3 -4 8 1 25 10 27 15 30 57 31 26 0 74 3 107 5 173 11 214 12 263 5 49 -8
53 -7 58 14 11 44 1 70 -26 68 -174 -13 -262 -14 -275 -3 -8 7 -24 10 -35 7
-17 -4 -22 2 -31 39 -9 36 -15 44 -35 44 -12 0 -26 -5 -30 -11z m-101 -160
c-31 -9 -37 -20 -35 -58 0 -10 -11 -12 -48 -7 -56 8 -100 -6 -100 -31 0 -33
18 -47 58 -47 l40 -1 -16 -29 c-27 -46 -94 -118 -102 -109 -5 4 -4 34 1 66 5
32 8 93 6 135 l-3 77 72 -3 c40 -2 80 1 91 7 10 6 29 10 43 10 22 -1 21 -2 -7
-10z m253 -576 l90 -5 1 -33 1 -33 -92 -6 c-50 -3 -113 -3 -141 -1 -27 3 -60
5 -71 6 -18 1 -22 7 -21 35 1 26 5 33 16 29 9 -2 23 0 31 5 16 10 43 11 186 3z"/>
</g>
</svg>
