<?xml version="1.0" standalone="no"?>
<!DOCTYPE svg PUBLIC "-//W3C//DTD SVG 20010904//EN"
 "http://www.w3.org/TR/2001/REC-SVG-20010904/DTD/svg10.dtd">
<svg version="1.0" xmlns="http://www.w3.org/2000/svg"
 width="101.000000pt" height="101.000000pt" viewBox="0 0 101.000000 101.000000"
 preserveAspectRatio="xMidYMid meet">
<metadata>
Created by potrace 1.16, written by Peter Selinger 2001-2019
</metadata>
<g transform="translate(0.000000,101.000000) scale(0.100000,-0.100000)"
fill="#000000" stroke="none">
<path d="M658 972 c-10 -2 -18 -10 -18 -18 0 -11 -22 -14 -122 -11 -76 1 -122
-2 -125 -8 -2 -6 -21 -9 -43 -7 -22 2 -46 -1 -53 -6 -17 -14 -164 -14 -187 0
-29 19 -70 -4 -70 -39 0 -45 10 -51 76 -50 l62 2 -22 -61 c-27 -74 -64 -137
-105 -182 -24 -26 -29 -37 -21 -51 5 -10 11 -30 14 -46 7 -40 15 -43 39 -13
l22 27 -2 -97 c-1 -53 0 -131 3 -174 7 -82 14 -91 66 -81 20 4 25 11 26 41 3
79 2 78 37 79 29 1 32 -2 32 -28 0 -38 7 -44 51 -42 37 2 38 1 39 -33 1 -42 5
-46 35 -45 45 3 174 11 240 16 45 3 81 0 108 -10 31 -11 47 -12 62 -4 11 6 36
8 57 4 36 -6 39 -4 44 20 11 58 -17 82 -62 53 -15 -9 -26 -9 -45 0 -14 6 -34
8 -43 5 -17 -7 -17 -5 1 22 10 17 28 40 38 52 21 23 17 43 -8 43 -8 0 -12 5
-9 10 3 6 19 10 35 10 28 0 29 2 35 66 4 36 5 85 2 110 -4 41 -3 44 12 30 28
-25 38 -22 71 22 17 24 30 45 28 45 -54 27 -121 64 -124 69 -7 10 44 54 79 69
35 15 34 28 -3 64 l-29 28 -47 -52 c-46 -52 -48 -52 -59 -30 -19 35 -6 58 54
97 31 20 58 38 61 40 3 2 -13 20 -35 39 l-40 34 -41 -48 c-36 -40 -43 -45 -49
-30 -4 9 -5 30 -3 46 4 26 2 29 -21 28 -14 0 -34 -3 -43 -5z m-11 -74 c0 -7
14 -50 31 -95 l30 -83 -69 3 c-57 2 -68 5 -63 17 7 18 53 139 59 158 2 6 6 12
8 12 2 0 4 -6 4 -12z m-177 -41 c80 3 80 3 41 -75 l-17 -34 -28 36 -27 36 -35
-26 -35 -27 41 -40 42 -39 -38 -39 c-39 -40 -57 -50 -48 -25 3 7 -2 21 -12 30
-13 13 -31 16 -85 14 -59 -3 -68 -1 -63 12 4 8 19 47 33 85 l26 70 58 -1 c57
-2 61 1 58 36 -2 13 -1 13 8 0 8 -11 27 -14 81 -13z m136 -223 c31 -1 79 1
105 5 44 7 50 6 74 -19 l26 -27 -92 -6 c-129 -10 -179 -9 -179 3 0 6 -11 10
-25 10 l-26 0 23 30 c15 20 24 26 29 18 4 -6 33 -13 65 -14z m-346 -114 c0
-30 3 -77 6 -105 l6 -50 -35 -1 c-34 0 -35 0 -41 50 -3 28 -6 76 -6 107 l0 56
35 -1 35 -1 0 -55z m185 -70 c0 -88 2 -101 18 -106 10 -3 16 -8 13 -11 -3 -3
9 -30 26 -60 35 -62 28 -78 -27 -68 -16 3 -48 7 -69 10 -21 3 -40 6 -41 7 -1
2 0 74 3 160 4 150 5 156 23 145 15 -9 22 -8 36 6 9 9 17 17 18 17 0 0 0 -45
0 -100z m251 51 c40 -1 42 -3 46 -35 l4 -34 -65 -7 c-45 -5 -66 -4 -69 4 -2 6
-19 11 -38 11 -27 0 -34 4 -34 19 0 11 -2 25 -5 33 -4 10 9 13 57 11 35 -1 82
-2 104 -2z m12 -155 c2 -2 -9 -35 -25 -73 -23 -56 -33 -69 -53 -71 -14 -2 -34
4 -44 11 -19 14 -19 15 2 21 28 9 28 18 -5 73 -23 41 -24 45 -7 39 10 -3 26
-1 34 5 13 8 88 4 98 -5z"/>
</g>
</svg>
