<?xml version="1.0" standalone="no"?>
<!DOCTYPE svg PUBLIC "-//W3C//DTD SVG 20010904//EN"
 "http://www.w3.org/TR/2001/REC-SVG-20010904/DTD/svg10.dtd">
<svg version="1.0" xmlns="http://www.w3.org/2000/svg"
 width="101.000000pt" height="101.000000pt" viewBox="0 0 101.000000 101.000000"
 preserveAspectRatio="xMidYMid meet">
<metadata>
Created by potrace 1.16, written by Peter Selinger 2001-2019
</metadata>
<g transform="translate(0.000000,101.000000) scale(0.100000,-0.100000)"
fill="#000000" stroke="none">
<path d="M430 965 l-23 -25 48 -52 c27 -29 52 -57 57 -62 5 -6 21 3 40 22 l33
31 -3 -109 c-1 -66 2 -111 8 -115 13 -8 13 -70 1 -113 -7 -23 -6 -32 2 -32 7
0 12 -15 13 -35 0 -31 -3 -35 -30 -39 -59 -7 -107 -6 -125 3 -25 14 -58 3 -64
-20 -13 -49 22 -78 68 -57 13 6 36 7 51 4 l27 -7 -53 -54 c-31 -32 -75 -63
-106 -77 -30 -13 -53 -25 -53 -28 0 -3 18 -20 40 -39 38 -33 39 -33 66 -16 47
31 115 99 148 148 37 55 34 60 37 -73 1 -41 -1 -87 -6 -101 -9 -31 9 -39 63
-31 30 4 32 7 25 31 -5 14 -7 60 -6 101 3 130 0 126 34 75 31 -47 106 -118
157 -148 l29 -17 32 46 c17 26 28 50 23 54 -4 4 -30 15 -58 25 -27 10 -70 38
-95 61 l-44 42 29 2 c17 0 55 1 86 0 48 0 57 3 62 20 13 50 3 56 -106 57 -161
2 -154 1 -137 34 8 14 7 19 -2 20 -7 1 -20 3 -28 4 -8 1 -22 3 -30 4 -13 1
-13 2 0 11 9 6 72 8 156 5 135 -5 142 -4 147 15 13 51 4 55 -116 57 -149 2
-153 3 -154 23 -1 14 9 18 55 23 33 4 70 2 88 -5 65 -23 138 16 105 56 -8 9
-9 40 -5 94 l7 81 -27 7 c-14 3 -41 3 -59 -1 -17 -4 -61 -7 -97 -8 -61 -2 -65
-1 -67 21 -1 19 3 22 19 16 12 -3 71 -3 132 1 l111 7 0 44 c0 42 -1 44 -25 40
-71 -14 -219 -17 -240 -6 -13 7 -36 9 -56 6 -33 -7 -33 -8 -31 -50 l3 -44 -54
49 c-30 27 -59 49 -66 49 -7 0 -23 -11 -36 -25z m395 -217 l0 -46 -75 1 -75 2
0 48 0 48 75 -3 74 -3 1 -47z"/>
<path d="M46 934 c-4 -9 -4 -32 0 -50 l6 -33 59 2 58 2 -5 -30 c-3 -16 -10
-35 -15 -42 -6 -7 -8 -16 -5 -21 9 -15 -50 -127 -90 -171 -39 -45 -39 -51 2
-106 15 -20 16 -20 39 7 22 26 23 26 25 5 1 -12 2 -88 2 -169 -1 -160 0 -162
62 -151 26 5 27 8 22 57 l-4 52 39 1 c33 2 39 -1 35 -15 -9 -29 10 -46 49 -45
20 1 39 3 42 6 8 8 6 41 -7 141 -8 61 -8 96 -1 110 5 12 11 27 13 35 3 10 15
4 43 -20 21 -19 40 -29 42 -24 2 6 26 50 53 99 28 49 50 92 50 96 0 3 -13 19
-29 34 l-29 27 -35 -63 c-20 -35 -49 -79 -66 -98 -34 -40 -33 -42 -32 72 l1
67 -54 6 c-30 4 -63 4 -74 0 -23 -7 -24 5 -2 60 6 17 13 38 16 49 2 10 5 20 6
22 7 7 85 7 95 1 28 -17 57 56 35 89 -9 15 -142 18 -142 4 0 -6 -16 -10 -35
-10 -19 0 -35 5 -35 10 0 6 -28 10 -64 10 -50 0 -65 -4 -70 -16z m233 -329 c0
-11 3 -56 6 -100 3 -44 3 -94 0 -112 -5 -30 -8 -32 -45 -30 -36 1 -40 4 -45
32 -3 16 -3 66 0 110 3 44 6 89 6 100 1 17 8 21 39 20 30 0 38 -4 39 -20z"/>
<path d="M362 817 l-31 -32 43 -28 c23 -14 51 -36 61 -47 l18 -20 29 27 c15
15 28 32 28 39 0 9 -101 94 -113 94 -2 0 -17 -15 -35 -33z"/>
</g>
</svg>
