<?xml version="1.0" standalone="no"?>
<!DOCTYPE svg PUBLIC "-//W3C//DTD SVG 20010904//EN"
 "http://www.w3.org/TR/2001/REC-SVG-20010904/DTD/svg10.dtd">
<svg version="1.0" xmlns="http://www.w3.org/2000/svg"
 width="101.000000pt" height="102.000000pt" viewBox="0 0 101.000000 102.000000"
 preserveAspectRatio="xMidYMid meet">
<metadata>
Created by potrace 1.16, written by Peter Selinger 2001-2019
</metadata>
<g transform="translate(0.000000,102.000000) scale(0.100000,-0.100000)"
fill="#000000" stroke="none">
<path d="M610 1005 c0 -8 5 -15 10 -15 11 0 13 -55 4 -122 l-6 -46 -82 4 c-44
2 -91 7 -103 10 -31 8 -52 -34 -35 -71 10 -21 19 -25 51 -25 22 0 52 4 68 10
l28 10 -33 -29 c-35 -30 -112 -74 -149 -86 -19 -5 -23 -2 -23 14 0 26 -33 35
-99 29 l-48 -5 19 61 c21 63 26 84 27 101 1 7 28 10 71 8 66 -3 70 -2 76 21
14 58 9 61 -109 58 -60 -2 -114 1 -120 6 -19 16 -95 12 -112 -4 -16 -17 -18
-27 -9 -62 6 -20 12 -22 65 -20 49 3 58 1 53 -12 -3 -8 -7 -22 -9 -30 -2 -8
-4 -15 -5 -15 -1 0 -4 -12 -5 -26 -5 -35 -67 -157 -100 -197 l-27 -32 21 -29
c12 -16 21 -34 21 -40 0 -23 20 -9 43 30 29 47 26 55 30 -106 1 -55 -2 -125
-6 -156 -7 -51 -6 -57 11 -61 11 -3 31 -3 45 -1 24 5 25 8 22 67 l-4 62 35 1
c24 1 34 -3 31 -11 -11 -28 15 -42 69 -38 18 2 20 8 18 57 -1 30 0 55 2 55 2
0 8 -19 15 -42 10 -40 12 -41 25 -23 13 18 15 18 39 -5 14 -13 25 -29 25 -37
0 -15 -60 -55 -112 -74 -21 -7 -38 -15 -37 -19 0 -3 16 -18 35 -34 l34 -28 56
33 c89 54 139 117 170 212 14 45 28 96 30 113 4 29 1 32 -28 36 -18 3 -46 1
-61 -5 -39 -13 -42 -5 -11 33 31 36 25 45 -33 56 l-33 6 44 34 c24 18 59 51
77 74 l34 40 0 -94 c0 -103 4 -109 59 -99 25 5 31 15 26 38 -1 6 -3 43 -4 83
l-1 72 19 -27 c33 -46 96 -101 143 -124 l44 -21 33 38 c34 39 34 39 12 51 -11
7 -30 12 -41 13 -22 0 -115 50 -132 72 -9 11 4 13 75 11 58 -1 89 2 94 10 22
35 -9 83 -46 70 -11 -4 -61 -7 -111 -8 l-90 0 1 65 c1 36 4 76 9 89 9 29 -7
41 -57 41 -27 0 -38 -4 -38 -15z m-357 -435 c-3 -22 0 -53 7 -70 8 -18 10 -46
6 -74 -7 -42 -8 -44 -40 -43 l-34 1 -7 70 c-4 47 -3 72 4 74 6 2 11 19 11 37
0 29 4 34 28 38 15 2 28 5 29 6 0 0 -1 -17 -4 -39z m178 5 c19 6 19 6 0 -45
-11 -28 -34 -74 -53 -102 l-33 -52 -8 49 c-5 31 -5 56 1 66 6 9 9 39 9 67 l-2
51 34 -20 c19 -11 41 -17 52 -14z m109 -149 c0 -14 -34 -96 -39 -96 -5 0 -16
9 -26 20 -16 18 -19 18 -42 3 -24 -16 -24 -15 6 28 25 39 35 45 65 46 20 1 36
0 36 -1z"/>
<path d="M800 991 c0 -5 -16 -32 -35 -60 -19 -28 -35 -53 -35 -56 0 -6 56 -35
67 -35 4 0 23 23 42 50 18 28 37 50 42 50 24 0 5 32 -27 45 -42 17 -54 19 -54
6z"/>
<path d="M463 978 c-13 -6 -23 -14 -23 -19 0 -10 70 -113 80 -117 11 -4 70 26
70 36 0 15 -76 107 -90 109 -8 1 -25 -3 -37 -9z"/>
<path d="M774 538 c1 -59 10 -55 -90 -43 -36 4 -42 2 -47 -15 -8 -30 3 -60 22
-60 12 0 13 -2 3 -9 -8 -4 -15 -30 -16 -58 -2 -27 -6 -54 -9 -60 -20 -32 27
-60 68 -41 30 14 79 2 72 -17 -3 -7 -1 -27 6 -44 9 -24 9 -36 -1 -51 -27 -44
-3 -76 48 -63 17 5 20 14 20 62 -1 116 -5 109 55 107 49 -2 54 0 58 22 10 51
0 61 -61 59 -55 -2 -57 -1 -54 23 2 14 3 35 4 47 0 14 6 22 17 21 9 -1 30 0
47 0 34 2 47 24 37 63 -5 18 -11 20 -53 16 -45 -5 -48 -3 -45 16 1 12 6 29 10
38 8 21 -5 30 -54 35 l-39 5 2 -53z m5 -133 c0 -11 2 -33 3 -50 3 -28 1 -30
-35 -31 -29 -1 -37 2 -32 13 18 49 17 63 -4 63 -28 0 -27 18 2 22 47 8 65 3
66 -17z"/>
</g>
</svg>
