<?xml version="1.0" standalone="no"?>
<!DOCTYPE svg PUBLIC "-//W3C//DTD SVG 20010904//EN"
 "http://www.w3.org/TR/2001/REC-SVG-20010904/DTD/svg10.dtd">
<svg version="1.0" xmlns="http://www.w3.org/2000/svg"
 width="101.000000pt" height="102.000000pt" viewBox="0 0 101.000000 102.000000"
 preserveAspectRatio="xMidYMid meet">
<metadata>
Created by potrace 1.16, written by Peter Selinger 2001-2019
</metadata>
<g transform="translate(0.000000,102.000000) scale(0.100000,-0.100000)"
fill="#000000" stroke="none">
<path d="M222 1007 c-23 -5 -41 -13 -40 -16 2 -3 19 -36 38 -73 19 -37 31 -70
28 -74 -4 -3 -48 -7 -98 -8 -68 -1 -93 -5 -101 -16 -12 -18 -3 -71 14 -82 6
-5 61 -6 121 -2 l109 7 -24 -44 c-31 -56 -128 -159 -193 -206 -28 -20 -53 -38
-55 -40 -3 -2 7 -16 21 -31 14 -15 29 -35 35 -45 8 -15 15 -12 63 31 l55 49 0
-188 c0 -208 -5 -194 65 -189 37 2 51 15 43 36 -8 21 -9 413 -1 408 4 -3 24
-32 44 -64 l37 -60 36 22 c20 12 38 23 40 25 4 3 -89 143 -95 143 -2 0 -19 -9
-38 -21 -45 -26 -45 -14 -2 53 32 51 106 192 106 203 0 3 -26 5 -57 5 -70 0
-101 14 -54 25 17 3 31 10 31 13 1 11 -75 152 -80 151 -3 -1 -24 -6 -48 -12z"/>
<path d="M832 964 c-19 -7 -50 -16 -70 -19 -20 -3 -53 -8 -72 -11 -19 -3 -72
-5 -117 -5 -70 2 -83 -1 -92 -16 -13 -25 -14 -230 -1 -238 13 -8 13 -52 -1
-60 -6 -4 -10 -39 -9 -83 2 -93 -6 -166 -20 -192 -6 -11 -8 -20 -5 -20 13 0
-50 -105 -86 -145 -41 -45 -41 -51 3 -59 15 -2 36 -10 48 -16 26 -14 35 -4 81
86 50 101 96 300 87 382 -4 29 -2 32 24 32 15 0 28 5 28 10 0 6 16 10 35 10
l35 0 0 -150 c0 -105 3 -150 11 -150 13 0 5 -134 -11 -175 -18 -47 4 -65 70
-58 l35 5 -3 116 c-2 128 -2 193 1 325 l2 87 34 0 c19 0 42 -7 52 -16 29 -26
65 -11 73 30 9 47 -1 69 -28 59 -11 -4 -50 -7 -86 -6 -36 2 -114 4 -174 5
l-108 3 6 44 c3 24 6 54 6 66 0 27 -4 26 210 49 30 4 69 7 85 7 55 0 60 11 30
63 -15 25 -30 48 -34 50 -3 2 -21 -2 -39 -10z"/>
</g>
</svg>
