<?xml version="1.0" standalone="no"?>
<!DOCTYPE svg PUBLIC "-//W3C//DTD SVG 20010904//EN"
 "http://www.w3.org/TR/2001/REC-SVG-20010904/DTD/svg10.dtd">
<svg version="1.0" xmlns="http://www.w3.org/2000/svg"
 width="101.000000pt" height="101.000000pt" viewBox="0 0 101.000000 101.000000"
 preserveAspectRatio="xMidYMid meet">
<metadata>
Created by potrace 1.16, written by Peter Selinger 2001-2019
</metadata>
<g transform="translate(0.000000,101.000000) scale(0.100000,-0.100000)"
fill="#000000" stroke="none">
<path d="M235 998 c-16 -6 -31 -11 -32 -12 -1 -1 11 -28 27 -61 16 -33 30 -65
30 -72 0 -15 -76 -21 -111 -9 -41 15 -76 0 -84 -34 -9 -42 1 -67 32 -75 30 -7
83 3 83 16 0 5 11 9 25 9 14 0 25 -5 25 -11 0 -7 14 -8 42 -4 50 9 49 4 -17
-95 -42 -63 -95 -119 -178 -185 l-38 -30 22 -42 c25 -51 29 -49 110 29 l55 53
-4 -57 c-1 -32 2 -59 8 -63 15 -10 12 -88 -6 -131 -15 -35 -15 -116 -1 -130 3
-3 23 -8 44 -11 28 -4 44 -1 56 11 14 15 14 20 0 61 -10 31 -13 62 -8 102 3
32 7 107 8 166 l2 109 38 -44 c20 -23 40 -51 43 -60 8 -25 25 -22 63 10 l33
28 -52 62 c-28 34 -56 62 -62 62 -5 0 -22 -9 -38 -20 l-27 -19 2 22 c2 13 17
46 33 73 17 27 45 80 63 118 26 56 29 70 18 77 -8 5 -23 7 -34 3 -11 -3 -44
-8 -72 -11 -64 -7 -72 11 -13 28 46 14 46 21 1 101 -27 50 -36 53 -86 36z"/>
<path d="M558 944 c-24 -7 -29 -51 -22 -174 3 -58 5 -150 4 -205 0 -97 -1
-216 -1 -292 0 -21 -1 -72 -2 -113 l-2 -75 45 -3 c25 -1 50 1 56 5 7 6 8 38 1
108 -7 73 -7 100 2 103 14 5 16 202 1 202 -5 0 -10 11 -10 25 0 14 5 25 10 25
6 0 10 30 10 70 0 40 -4 70 -10 70 -5 0 -10 16 -10 35 0 19 5 35 10 35 6 0 10
18 10 40 0 33 3 40 19 40 11 0 23 5 26 10 8 13 82 13 90 0 3 -5 -1 -25 -9 -45
-8 -19 -13 -35 -11 -35 2 0 -9 -39 -25 -86 l-29 -86 39 -49 c21 -27 44 -65 51
-84 7 -19 17 -35 21 -35 16 0 7 -47 -12 -68 -23 -24 -24 -24 -92 -22 l-48 1
25 -43 c14 -24 25 -51 25 -60 0 -32 43 -32 106 0 67 34 89 64 98 137 6 42 3
59 -19 102 -14 29 -40 70 -58 90 -18 21 -32 47 -31 58 1 11 25 83 53 160 28
76 51 142 51 145 0 8 -89 4 -97 -4 -10 -10 -71 -7 -78 4 -3 5 -29 9 -58 9 -29
0 -65 2 -82 5 -16 2 -38 2 -47 0z"/>
</g>
</svg>
