<?xml version="1.0" standalone="no"?>
<!DOCTYPE svg PUBLIC "-//W3C//DTD SVG 20010904//EN"
 "http://www.w3.org/TR/2001/REC-SVG-20010904/DTD/svg10.dtd">
<svg version="1.0" xmlns="http://www.w3.org/2000/svg"
 width="101.000000pt" height="102.000000pt" viewBox="0 0 101.000000 102.000000"
 preserveAspectRatio="xMidYMid meet">
<metadata>
Created by potrace 1.16, written by Peter Selinger 2001-2019
</metadata>
<g transform="translate(0.000000,102.000000) scale(0.100000,-0.100000)"
fill="#000000" stroke="none">
<path d="M567 1013 c-3 -5 -12 -35 -22 -67 -25 -89 -87 -205 -140 -264 -26
-29 -46 -54 -44 -55 2 -1 23 -12 47 -24 l43 -22 30 42 c17 23 44 65 60 94 17
29 31 53 32 53 1 0 1 -51 -1 -114 -2 -72 1 -117 8 -121 13 -8 13 -52 -1 -61
-7 -4 -9 -50 -6 -146 3 -83 1 -152 -5 -169 -16 -47 -3 -77 36 -85 53 -9 73 1
73 39 -1 17 0 75 1 127 l2 95 82 -3 c46 -1 97 -5 114 -8 41 -8 66 17 62 60
l-3 31 -132 -4 -133 -3 3 68 2 69 123 0 c134 0 141 3 127 63 -5 25 -9 27 -60
28 -30 1 -55 -2 -55 -7 0 -5 -11 -9 -25 -9 -14 0 -25 5 -25 10 0 6 -20 10 -44
10 l-44 0 1 59 2 59 82 7 c54 4 95 3 118 -5 63 -21 94 7 80 71 -6 26 -10 30
-28 24 -44 -14 -127 -18 -127 -6 0 6 -17 11 -40 11 -22 0 -40 -4 -40 -10 0 -5
-25 -10 -55 -10 -30 0 -55 2 -55 5 0 12 33 71 57 103 18 24 21 33 11 37 -38
14 -101 35 -104 35 -1 0 -5 -3 -7 -7z"/>
<path d="M213 998 c-18 -6 -33 -14 -33 -19 0 -4 18 -42 41 -84 44 -81 40 -79
107 -54 30 11 28 24 -16 99 -40 69 -49 74 -99 58z"/>
<path d="M45 803 c-15 -40 18 -105 45 -88 5 3 47 7 95 9 99 4 97 8 38 -82 -40
-61 -117 -142 -171 -182 l-33 -25 33 -43 33 -44 57 63 c54 60 58 62 58 36 0
-15 5 -27 11 -27 8 0 10 -39 5 -142 -4 -79 -9 -151 -12 -160 -4 -13 3 -18 30
-23 72 -14 72 -13 62 145 -7 104 -6 147 3 163 6 12 10 46 8 75 l-3 53 28 -33
c15 -18 35 -48 45 -65 10 -18 21 -33 25 -33 13 0 78 44 78 53 0 13 -103 137
-114 137 -6 0 -20 -7 -30 -15 -11 -8 -22 -15 -26 -15 -15 0 1 53 44 141 25 53
46 99 46 103 0 3 -56 4 -125 0 -79 -4 -130 -2 -138 4 -19 16 -85 12 -92 -5z"/>
</g>
</svg>
