<?xml version="1.0" standalone="no"?>
<!DOCTYPE svg PUBLIC "-//W3C//DTD SVG 20010904//EN"
 "http://www.w3.org/TR/2001/REC-SVG-20010904/DTD/svg10.dtd">
<svg version="1.0" xmlns="http://www.w3.org/2000/svg"
 width="101.000000pt" height="101.000000pt" viewBox="0 0 101.000000 101.000000"
 preserveAspectRatio="xMidYMid meet">
<metadata>
Created by potrace 1.16, written by Peter Selinger 2001-2019
</metadata>
<g transform="translate(0.000000,101.000000) scale(0.100000,-0.100000)"
fill="#000000" stroke="none">
<path d="M183 984 l-32 -14 29 -56 c17 -31 30 -62 30 -70 0 -8 2 -14 4 -14 12
0 96 40 96 46 0 3 -15 33 -32 65 -34 62 -43 66 -95 43z"/>
<path d="M449 974 c-19 -6 -23 -49 -7 -81 8 -16 8 -49 0 -115 -5 -51 -8 -97
-5 -102 3 -4 26 -5 52 -1 25 3 67 8 94 9 42 2 47 0 47 -20 0 -12 -7 -27 -15
-34 -9 -7 -14 -19 -11 -25 3 -10 -15 -12 -72 -9 -42 2 -86 6 -97 9 -11 3 -26
1 -33 -3 -13 -9 -14 -16 -10 -90 2 -23 2 -42 1 -42 -1 0 -14 22 -30 50 -15 27
-32 50 -36 50 -4 0 -21 -7 -36 -14 -28 -15 -28 -15 -23 11 3 15 34 75 69 135
36 61 63 111 61 112 -1 2 -43 -1 -92 -7 -66 -7 -94 -7 -108 2 -23 15 -130 12
-140 -3 -24 -35 7 -104 41 -91 9 4 47 9 85 11 58 3 67 2 62 -11 -14 -37 -95
-145 -147 -196 l-57 -57 16 -46 17 -46 51 51 c48 48 52 50 54 28 5 -62 3 -277
-3 -305 -7 -36 7 -44 61 -36 l32 4 -7 57 c-6 50 -8 267 -3 330 2 23 2 23 21
-5 10 -16 24 -41 30 -56 13 -31 26 -35 55 -13 26 20 32 19 33 -7 0 -13 3 -57
6 -99 3 -52 1 -89 -9 -117 -25 -69 -6 -94 60 -85 l31 5 -9 56 c-6 37 -5 65 1
79 6 13 8 30 4 39 -5 14 -3 15 18 4 13 -7 31 -19 40 -27 15 -12 19 -11 37 14
10 15 29 47 41 71 26 50 33 48 83 -27 17 -25 33 -48 34 -50 2 -2 15 6 31 16
50 35 57 38 50 20 -3 -8 -1 -29 5 -45 17 -43 -2 -62 -58 -60 -23 1 -46 0 -49
-4 -3 -3 1 -29 11 -57 16 -49 17 -51 49 -47 38 5 102 33 113 50 4 6 8 81 8
166 1 149 5 190 19 236 9 30 -19 56 -48 45 -12 -5 -54 -6 -94 -4 -66 5 -71 7
-76 30 -9 47 1 58 48 58 24 0 47 -3 51 -7 4 -5 22 -8 40 -8 38 0 68 25 58 49
-14 33 -15 58 -7 144 5 48 7 91 3 95 -3 4 -84 8 -180 9 -96 1 -191 4 -210 7
-19 2 -42 2 -51 0z m348 -149 l2 -60 -65 3 c-41 3 -64 0 -64 -7 0 -6 -11 -11
-25 -11 -14 0 -25 5 -25 10 0 6 -18 10 -40 10 l-40 0 0 44 c0 24 -2 50 -5 58
-4 10 21 13 127 13 l133 0 2 -60z m1 -301 c15 -4 21 -12 18 -21 -3 -8 -1 -23
4 -33 6 -11 7 -43 4 -74 l-7 -55 -71 65 c-78 73 -92 109 -44 109 15 1 30 4 34
8 9 9 31 9 62 1z m-213 -44 c-21 -59 -41 -93 -73 -123 l-29 -28 -6 61 c-4 35
-3 70 3 80 5 10 8 25 5 32 -4 10 10 13 54 14 l59 2 -13 -38z"/>
</g>
</svg>
