<?xml version="1.0" standalone="no"?>
<!DOCTYPE svg PUBLIC "-//W3C//DTD SVG 20010904//EN"
 "http://www.w3.org/TR/2001/REC-SVG-20010904/DTD/svg10.dtd">
<svg version="1.0" xmlns="http://www.w3.org/2000/svg"
 width="101.000000pt" height="101.000000pt" viewBox="0 0 101.000000 101.000000"
 preserveAspectRatio="xMidYMid meet">
<metadata>
Created by potrace 1.16, written by Peter Selinger 2001-2019
</metadata>
<g transform="translate(0.000000,101.000000) scale(0.100000,-0.100000)"
fill="#000000" stroke="none">
<path d="M756 993 c-4 -5 -24 -9 -44 -10 -21 -1 -60 -4 -89 -5 -29 -2 -58 -9
-65 -16 -15 -15 -50 -16 -65 -1 -7 7 -22 9 -40 4 -15 -5 -65 -7 -110 -6 -56 2
-83 -1 -83 -8 0 -6 -16 -11 -35 -11 -19 0 -35 5 -35 10 0 10 -82 14 -92 4 -4
-3 5 -22 18 -41 13 -20 24 -42 24 -49 0 -10 16 -12 68 -8 37 3 92 4 123 4 31
0 67 4 80 9 23 8 24 7 24 -30 l0 -38 -110 4 c-61 3 -116 1 -125 -4 -22 -15
-25 -214 -4 -236 9 -8 20 -13 25 -9 5 3 54 7 108 10 l99 4 4 -35 c4 -32 2 -35
-27 -40 -32 -5 -108 -1 -190 11 -57 8 -94 8 -101 1 -6 -6 -6 -33 1 -77 14 -85
15 -188 2 -226 -17 -48 -11 -101 12 -107 9 -2 31 -2 49 1 31 4 32 5 24 46 -6
34 -7 184 -1 262 1 15 8 22 23 23 11 0 50 3 86 6 93 7 128 0 129 -28 0 -12 2
-38 3 -57 l3 -35 -55 -8 c-33 -4 -64 -4 -76 2 -26 11 -64 4 -64 -13 0 -6 5
-28 10 -48 12 -40 3 -38 100 -23 56 9 136 19 248 30 40 4 52 2 52 -8 0 -8 11
-47 24 -87 27 -83 34 -87 117 -63 72 21 74 27 75 187 1 78 4 160 7 182 6 39 5
42 -20 47 -15 3 -45 -2 -67 -9 -38 -14 -55 -14 -241 -3 -15 1 -20 8 -20 29 l0
27 96 7 c53 4 107 3 120 -2 40 -15 49 -5 42 44 -3 26 -1 49 5 57 12 14 14 107
4 124 -10 16 -89 27 -97 14 -8 -14 -48 -14 -62 0 -6 6 -33 9 -60 8 l-48 -4 3
35 4 35 61 1 c34 0 89 3 122 6 33 2 71 1 84 -4 26 -9 61 -2 61 13 0 6 -15 32
-32 60 -31 47 -61 62 -82 42z m-325 -307 l4 -44 -75 1 -75 2 0 33 c0 28 3 32
28 32 15 0 27 5 27 10 0 6 20 10 44 10 l44 0 3 -44z m255 36 c6 -4 13 -23 15
-42 l4 -35 -85 0 -85 0 -1 43 -1 42 71 0 c39 0 76 -4 82 -8z m87 -288 c20 -4
27 -10 23 -21 -3 -8 -1 -23 5 -34 7 -13 7 -42 0 -92 -11 -77 -30 -103 -66 -92
-11 4 -28 7 -38 6 -24 0 -13 14 23 29 16 7 30 18 30 24 0 6 -15 40 -33 76 -33
68 -38 70 -94 49 -22 -8 -23 -10 -8 -33 19 -28 7 -41 -28 -29 -12 4 -31 8 -42
8 -16 0 -19 6 -17 30 1 17 3 40 3 53 1 16 6 21 18 18 9 -3 22 -2 30 3 15 10
153 14 194 5z"/>
</g>
</svg>
