<?xml version="1.0" standalone="no"?>
<!DOCTYPE svg PUBLIC "-//W3C//DTD SVG 20010904//EN"
 "http://www.w3.org/TR/2001/REC-SVG-20010904/DTD/svg10.dtd">
<svg version="1.0" xmlns="http://www.w3.org/2000/svg"
 width="101.000000pt" height="101.000000pt" viewBox="0 0 101.000000 101.000000"
 preserveAspectRatio="xMidYMid meet">
<metadata>
Created by potrace 1.16, written by Peter Selinger 2001-2019
</metadata>
<g transform="translate(0.000000,101.000000) scale(0.100000,-0.100000)"
fill="#000000" stroke="none">
<path d="M332 954 c-34 -13 -79 -26 -100 -29 -58 -8 -95 -14 -117 -19 -11 -2
-26 -5 -33 -5 -22 -2 25 -81 48 -81 11 0 20 4 20 10 0 5 15 8 33 6 17 -2 39 0
47 4 13 7 15 -3 17 -60 l3 -69 -89 6 -88 6 -7 -27 c-11 -43 1 -65 40 -72 19
-3 47 -3 62 0 49 12 72 14 72 7 0 -18 -94 -163 -139 -213 -28 -31 -51 -60 -51
-65 1 -4 16 -25 35 -46 l34 -39 44 69 c24 37 53 83 65 102 19 32 20 33 21 10
6 -96 5 -233 -1 -280 -9 -63 -2 -70 58 -62 l30 5 -8 95 c-4 52 -6 127 -3 167
3 39 6 82 6 96 1 24 1 24 16 5 8 -11 24 -39 35 -62 l19 -43 42 21 c23 12 44
23 46 25 2 2 -54 88 -95 142 -1 2 -15 -3 -31 -11 l-28 -15 3 53 c4 52 4 53 27
43 35 -16 113 -2 120 22 14 44 -23 95 -56 74 -6 -4 -32 -7 -56 -8 l-45 -1 6
44 c3 24 6 58 6 76 0 18 5 32 13 33 71 7 127 5 127 -4 0 -17 38 -24 100 -17
l56 5 -4 -60 c-1 -34 2 -63 8 -67 12 -7 13 -84 2 -102 -5 -8 -39 -11 -107 -10
l-100 2 -3 -35 c-4 -64 6 -69 134 -56 70 7 72 6 73 -16 0 -13 3 -54 6 -93 2
-38 1 -121 -4 -185 -5 -63 -7 -117 -4 -120 5 -5 84 -3 90 4 3 2 4 40 4 83 -2
118 -2 285 0 309 1 15 8 22 23 23 73 5 96 4 142 -3 l52 -8 4 33 c9 59 2 68
-44 56 -28 -7 -46 -7 -58 1 -9 5 -40 9 -68 9 -43 -2 -52 1 -56 18 -10 35 -6
155 4 155 6 0 10 11 10 25 0 27 4 28 91 25 57 -2 81 19 77 64 -3 35 14 33
-186 21 -77 -5 -117 -3 -126 4 -7 6 -24 11 -37 11 -13 0 -35 0 -48 1 -24 0
-44 -18 -35 -33 3 -4 3 -8 0 -8 -2 0 -15 18 -27 40 -13 22 -30 39 -38 39 -9
-1 -44 -12 -79 -25z"/>
</g>
</svg>
