<?xml version="1.0" standalone="no"?>
<!DOCTYPE svg PUBLIC "-//W3C//DTD SVG 20010904//EN"
 "http://www.w3.org/TR/2001/REC-SVG-20010904/DTD/svg10.dtd">
<svg version="1.0" xmlns="http://www.w3.org/2000/svg"
 width="101.000000pt" height="102.000000pt" viewBox="0 0 101.000000 102.000000"
 preserveAspectRatio="xMidYMid meet">
<metadata>
Created by potrace 1.16, written by Peter Selinger 2001-2019
</metadata>
<g transform="translate(0.000000,102.000000) scale(0.100000,-0.100000)"
fill="#000000" stroke="none">
<path d="M636 868 c2 -84 6 -191 9 -238 4 -77 -4 -160 -19 -200 -11 -28 11
-44 55 -43 49 2 51 4 50 35 -1 13 -1 58 -1 101 1 47 -3 77 -10 77 -5 0 -10 11
-10 25 0 14 5 25 10 25 6 0 10 30 10 70 0 40 -4 70 -10 70 -5 0 -10 16 -10 35
0 19 5 35 10 35 6 0 10 26 10 58 0 33 5 63 12 70 19 19 -7 32 -64 32 l-47 0 5
-152z"/>
<path d="M382 979 c-48 -19 -145 -35 -254 -41 -31 -2 -59 -6 -63 -10 -9 -9 14
-81 29 -91 12 -8 82 1 106 13 13 7 15 -3 17 -59 l2 -66 -42 2 c-23 2 -57 5
-75 9 -41 8 -62 -9 -62 -50 0 -53 8 -57 98 -51 l82 5 -21 -43 c-30 -59 -113
-178 -148 -211 l-29 -28 31 -43 c18 -24 35 -44 39 -44 7 -1 83 119 111 174 15
30 15 30 17 5 4 -58 1 -313 -4 -335 -7 -27 10 -34 66 -27 38 4 38 4 32 42 -6
35 -9 282 -4 339 2 28 7 22 45 -51 l25 -47 40 22 c22 12 40 27 40 33 0 13 -62
107 -93 141 -14 16 -24 20 -36 14 -13 -7 -16 -4 -16 20 0 27 3 29 40 30 22 1
50 0 62 -1 25 -2 39 33 29 73 -5 20 -11 22 -57 21 -29 -1 -57 0 -64 2 -6 3
-10 31 -10 72 0 53 3 68 15 69 8 1 29 5 45 8 17 4 42 6 58 6 15 -1 27 4 27 10
0 11 -48 100 -53 98 -1 0 -12 -4 -25 -10z"/>
<path d="M795 814 c-11 -8 -26 -19 -33 -23 -10 -6 -1 -24 37 -75 28 -37 58
-82 67 -99 9 -18 18 -34 20 -36 5 -6 84 48 84 58 0 17 -135 191 -148 191 -4 0
-16 -8 -27 -16z"/>
<path d="M496 788 c-4 -13 -10 -39 -12 -58 -3 -19 -16 -66 -30 -105 -14 -38
-26 -76 -27 -83 -1 -8 17 -20 42 -29 36 -12 45 -12 52 -1 20 29 67 191 73 250
3 27 -5 33 -65 44 -21 4 -28 0 -33 -18z"/>
<path d="M795 512 c-46 -192 -184 -308 -385 -327 -14 -1 -31 -3 -37 -4 -21 -2
-15 -15 26 -60 l40 -43 53 17 c72 24 177 75 223 110 48 38 126 148 155 222 13
32 32 68 43 80 10 12 16 26 13 31 -5 9 -89 42 -107 42 -4 0 -14 -31 -24 -68z"/>
</g>
</svg>
