<?xml version="1.0" standalone="no"?>
<!DOCTYPE svg PUBLIC "-//W3C//DTD SVG 20010904//EN"
 "http://www.w3.org/TR/2001/REC-SVG-20010904/DTD/svg10.dtd">
<svg version="1.0" xmlns="http://www.w3.org/2000/svg"
 width="101.000000pt" height="101.000000pt" viewBox="0 0 101.000000 101.000000"
 preserveAspectRatio="xMidYMid meet">
<metadata>
Created by potrace 1.16, written by Peter Selinger 2001-2019
</metadata>
<g transform="translate(0.000000,101.000000) scale(0.100000,-0.100000)"
fill="#000000" stroke="none">
<path d="M300 974 c-54 -17 -109 -25 -170 -24 -65 0 -75 -9 -59 -54 18 -49 32
-60 59 -46 11 6 25 8 30 5 5 -3 18 -2 27 4 16 8 18 3 18 -58 l0 -68 -75 1 -75
1 -3 -30 c-4 -54 17 -66 94 -50 20 4 34 3 39 -5 9 -15 -58 -154 -107 -219
l-40 -53 27 -55 28 -54 28 44 c15 24 37 68 50 97 21 48 24 51 36 34 10 -14 12
-52 8 -170 -5 -144 -5 -152 14 -157 10 -2 31 -2 45 0 l26 5 -1 172 c-1 174 0
216 7 216 2 0 13 -18 24 -40 23 -44 25 -45 60 -25 34 19 40 18 40 -5 0 -25 18
-28 90 -14 14 2 41 6 60 7 32 2 35 0 38 -28 7 -66 6 -222 -2 -251 -7 -26 -5
-32 11 -36 11 -3 33 -3 49 -1 26 4 31 9 32 36 0 18 2 41 2 52 1 11 -3 50 -10
87 -8 48 -8 72 -1 87 6 11 8 26 5 34 -6 16 -4 17 111 19 39 1 82 -1 96 -6 24
-7 27 -5 31 25 8 54 0 72 -31 63 -14 -5 -57 -7 -96 -6 -124 3 -113 -5 -108 72
2 40 -1 71 -7 75 -13 8 -13 52 1 60 6 4 9 37 7 83 l-3 77 55 -3 c30 -1 69 -5
85 -7 39 -7 52 3 59 45 10 54 2 58 -88 47 -53 -6 -90 -6 -110 0 -41 14 -228
16 -260 3 -14 -5 -26 -17 -26 -27 0 -12 -9 -7 -31 20 -17 20 -34 37 -37 36 -4
-1 -27 -7 -52 -15z m136 -103 c7 -9 22 -12 50 -7 21 3 59 7 84 9 l45 3 2 -182
1 -181 -55 -7 c-30 -3 -59 -3 -66 1 -23 14 -67 10 -67 -6 0 -9 -17 10 -38 41
-20 32 -41 56 -47 54 -5 -2 -17 -7 -27 -11 -13 -5 -16 0 -15 28 1 37 0 36 79
39 42 2 53 19 42 63 -4 16 -13 25 -23 24 -9 -1 -34 -1 -56 0 l-41 1 3 73 c1
39 3 72 3 72 0 0 26 0 58 0 36 0 61 -5 68 -14z"/>
<path d="M450 805 c-8 -10 -9 -24 -4 -42 10 -37 15 -64 14 -88 0 -42 24 -104
43 -109 38 -10 73 14 68 47 -1 4 -3 22 -6 40 -4 28 -10 60 -20 107 -2 8 -4 18
-4 22 -1 4 -8 14 -17 22 -20 20 -58 21 -74 1z"/>
<path d="M805 813 c-3 -9 -8 -32 -11 -52 -3 -20 -19 -70 -35 -110 -15 -41 -27
-76 -26 -77 1 -2 18 -6 36 -9 19 -3 38 -8 42 -10 4 -3 17 28 29 68 12 39 33
93 48 120 14 26 23 50 20 53 -3 3 -26 11 -51 19 -40 12 -46 12 -52 -2z"/>
</g>
</svg>
