<?xml version="1.0" standalone="no"?>
<!DOCTYPE svg PUBLIC "-//W3C//DTD SVG 20010904//EN"
 "http://www.w3.org/TR/2001/REC-SVG-20010904/DTD/svg10.dtd">
<svg version="1.0" xmlns="http://www.w3.org/2000/svg"
 width="101.000000pt" height="101.000000pt" viewBox="0 0 101.000000 101.000000"
 preserveAspectRatio="xMidYMid meet">
<metadata>
Created by potrace 1.16, written by Peter Selinger 2001-2019
</metadata>
<g transform="translate(0.000000,101.000000) scale(0.100000,-0.100000)"
fill="#000000" stroke="none">
<path d="M618 1003 c-16 -4 -18 -15 -15 -88 l3 -84 -67 5 c-37 2 -80 -1 -94
-6 -26 -10 -27 -12 -21 -68 16 -171 18 -230 4 -229 -37 1 -48 -4 -48 -25 0
-17 -5 -12 -20 19 -18 40 -21 42 -45 33 -31 -12 -43 7 -26 38 6 12 8 27 5 36
-5 13 1 14 31 11 20 -3 41 -7 45 -10 14 -8 40 25 40 50 0 32 -28 58 -54 51
-12 -3 -31 -9 -42 -12 -21 -6 -22 -3 -20 73 1 85 0 83 66 83 42 1 70 10 70 23
0 7 -13 28 -29 47 l-28 34 -58 -18 c-57 -18 -95 -26 -125 -27 -8 0 -22 -3 -30
-6 -8 -3 -24 -7 -35 -8 -11 -2 -29 -6 -40 -8 -11 -3 -26 -6 -33 -6 -10 -1 -7
-12 9 -38 29 -47 38 -54 60 -42 10 5 24 6 32 3 9 -3 24 -1 34 4 17 9 18 5 18
-53 l0 -63 -77 6 c-76 5 -77 5 -83 -21 -4 -14 -4 -35 0 -47 6 -19 12 -20 76
-15 56 5 69 3 69 -9 0 -26 -88 -190 -125 -233 l-36 -42 28 -42 27 -41 23 28
c13 16 41 63 62 104 45 84 42 90 44 -100 0 -69 -4 -139 -10 -156 -17 -48 -3
-60 71 -56 21 2 27 6 22 18 -3 9 -8 80 -11 158 -4 112 -3 145 9 161 13 18 14
17 20 -12 l7 -32 37 13 c23 8 37 20 36 29 -1 9 6 16 15 16 30 2 66 7 92 15 14
4 40 4 58 -1 l32 -8 -30 -61 c-37 -74 -116 -153 -182 -184 -43 -21 -63 -40
-41 -40 4 0 22 -13 40 -29 l32 -30 59 44 c64 47 129 126 159 192 l18 42 29
-62 c30 -66 113 -157 177 -194 l36 -21 26 39 c15 21 31 39 36 39 27 0 4 18
-42 35 -71 25 -168 121 -191 188 -13 40 -14 48 -2 44 7 -3 26 -1 42 5 21 8 43
7 87 -5 70 -18 92 -13 99 20 9 47 -2 63 -38 58 l-33 -4 -7 139 c-4 76 -4 143
-1 148 6 11 -78 23 -134 19 l-35 -2 2 80 c1 94 -9 106 -79 88z m155 -368 c-1
-109 -2 -110 -25 -107 -13 2 -33 3 -45 4 -17 0 -23 8 -28 39 -4 21 -3 44 1 50
7 12 13 48 17 99 2 23 6 25 42 25 l40 0 -2 -110z m-172 68 c1 -21 0 -42 -1
-48 -2 -11 -2 -30 2 -85 3 -35 2 -35 -37 -36 l-41 -1 1 104 0 103 38 0 c36 0
37 -1 38 -37z"/>
</g>
</svg>
