<?xml version="1.0" standalone="no"?>
<!DOCTYPE svg PUBLIC "-//W3C//DTD SVG 20010904//EN"
 "http://www.w3.org/TR/2001/REC-SVG-20010904/DTD/svg10.dtd">
<svg version="1.0" xmlns="http://www.w3.org/2000/svg"
 width="101.000000pt" height="101.000000pt" viewBox="0 0 101.000000 101.000000"
 preserveAspectRatio="xMidYMid meet">
<metadata>
Created by potrace 1.16, written by Peter Selinger 2001-2019
</metadata>
<g transform="translate(0.000000,101.000000) scale(0.100000,-0.100000)"
fill="#000000" stroke="none">
<path d="M537 933 c-10 -38 -20 -78 -22 -90 -4 -18 -23 -64 -82 -200 -4 -10
53 -43 74 -43 2 0 20 35 39 78 l35 77 59 -3 c33 -1 61 2 65 8 7 12 94 13 112
2 9 -5 5 -23 -13 -67 -27 -68 -29 -85 -11 -86 6 -1 26 -3 44 -5 l32 -4 36 110
c19 60 35 115 35 122 0 16 -146 23 -155 8 -8 -13 -48 -13 -62 1 -6 6 -33 10
-61 8 l-51 -4 30 54 c16 30 29 58 29 61 0 6 -17 12 -101 36 -12 3 -19 -12 -32
-63z"/>
<path d="M372 959 c-22 -8 -39 -12 -102 -25 -14 -3 -39 -4 -57 -4 -17 0 -34
-4 -37 -9 -3 -5 -25 -7 -48 -4 -64 6 -74 -5 -49 -55 20 -39 23 -41 63 -38 24
2 50 6 58 10 12 5 15 -5 15 -56 l0 -63 -45 1 c-25 0 -55 4 -68 8 -30 10 -52
-9 -52 -43 0 -51 19 -63 88 -59 34 1 62 2 62 0 0 -20 -81 -170 -116 -215 l-46
-57 26 -31 c14 -17 26 -37 26 -45 0 -30 17 -11 67 77 46 82 52 89 62 70 12
-21 9 -233 -4 -282 -8 -30 10 -39 63 -31 28 4 31 7 26 32 -4 15 -1 37 5 49 9
16 8 29 -3 55 -15 37 -20 142 -7 150 4 3 8 24 9 47 1 23 4 44 6 46 2 3 16 -16
31 -41 15 -25 29 -46 31 -46 9 0 74 45 74 51 0 4 -20 35 -45 68 l-46 62 -27
-19 -27 -20 0 49 c0 30 4 44 10 38 15 -15 82 -10 99 7 17 16 21 51 8 71 -4 6
-31 11 -61 11 -29 1 -55 2 -56 4 -2 2 -1 32 2 68 5 58 8 66 27 68 40 4 91 8
119 10 35 3 34 19 -4 65 -32 39 -40 42 -77 26z"/>
<path d="M648 703 c-26 -7 -29 -46 -25 -275 2 -143 0 -209 -7 -211 -6 -3 -34
-3 -63 0 l-52 4 22 -53 c12 -29 22 -55 24 -57 3 -5 44 -4 85 2 78 12 91 33 90
141 -3 192 3 400 12 415 9 14 10 13 -27 29 -29 12 -31 13 -59 5z"/>
<path d="M471 478 c-27 -85 -53 -140 -88 -186 -14 -18 -23 -34 -22 -36 16 -10
90 -38 93 -35 3 2 36 69 74 148 l69 143 -41 19 c-23 10 -46 19 -52 19 -5 0
-21 -33 -33 -72z"/>
<path d="M775 523 c-16 -8 -32 -17 -33 -19 -2 -1 17 -37 42 -78 26 -42 56
-100 67 -129 11 -28 22 -53 24 -55 6 -6 95 43 95 52 -1 16 -143 239 -155 242
-5 2 -23 -4 -40 -13z"/>
</g>
</svg>
