<?xml version="1.0" standalone="no"?>
<!DOCTYPE svg PUBLIC "-//W3C//DTD SVG 20010904//EN"
 "http://www.w3.org/TR/2001/REC-SVG-20010904/DTD/svg10.dtd">
<svg version="1.0" xmlns="http://www.w3.org/2000/svg"
 width="101.000000pt" height="101.000000pt" viewBox="0 0 101.000000 101.000000"
 preserveAspectRatio="xMidYMid meet">
<metadata>
Created by potrace 1.16, written by Peter Selinger 2001-2019
</metadata>
<g transform="translate(0.000000,101.000000) scale(0.100000,-0.100000)"
fill="#000000" stroke="none">
<path d="M633 931 c1 -44 -1 -77 -6 -74 -4 2 -22 -3 -40 -12 -21 -10 -53 -15
-92 -14 l-60 2 2 -69 c1 -38 -1 -62 -3 -53 -4 12 -18 17 -52 17 -92 1 -87 -3
-87 68 0 36 4 64 10 65 6 0 24 3 40 5 37 5 76 10 93 12 19 3 14 22 -14 60 -28
36 -28 36 -109 16 -52 -13 -115 -21 -197 -26 -31 -2 -59 -6 -63 -9 -8 -9 34
-89 49 -90 6 -1 16 0 21 1 11 3 68 1 71 -3 1 -1 5 -23 9 -49 l7 -48 -80 5
c-79 5 -80 5 -86 -21 -14 -54 20 -84 69 -62 26 12 75 3 75 -12 0 -24 -73 -150
-121 -209 l-52 -64 24 -44 c13 -24 27 -43 30 -43 4 0 36 45 72 100 47 72 65
93 66 77 6 -81 5 -232 -1 -283 -8 -69 -2 -76 60 -66 26 3 31 8 27 23 -3 10 -2
26 4 36 6 13 5 36 -5 73 -10 38 -13 84 -9 145 3 50 5 100 6 113 1 12 3 22 5
22 2 0 18 -24 34 -54 l31 -54 39 15 c22 9 40 21 40 26 0 8 -46 75 -86 126 -2
2 -17 -1 -33 -7 l-31 -11 2 45 c2 32 6 43 15 39 7 -2 25 1 39 7 19 9 30 9 45
0 27 -17 39 -15 39 9 0 12 4 17 11 13 7 -4 9 -20 4 -43 -15 -83 -13 -109 8
-115 11 -3 29 0 40 5 10 6 35 8 53 4 l35 -6 -18 -31 c-27 -46 -128 -153 -177
-185 -23 -15 -43 -31 -44 -36 -1 -4 13 -23 32 -42 l35 -34 49 44 c27 25 76 80
108 122 32 43 61 82 65 87 4 4 7 -3 8 -15 1 -13 3 -62 6 -110 4 -60 1 -97 -9
-125 -16 -48 -11 -90 13 -97 9 -2 31 -2 49 1 27 3 31 8 27 26 -5 21 -9 330 -5
372 2 14 10 22 24 23 11 0 37 2 56 3 l35 3 -2 -50 c-1 -27 -3 -70 -5 -95 l-3
-45 -47 1 c-52 0 -56 -4 -32 -41 9 -13 13 -28 11 -33 -8 -11 5 -29 23 -33 21
-4 92 18 114 34 20 15 21 23 30 192 3 44 7 97 9 117 l5 38 -39 -6 c-21 -4 -60
-6 -86 -6 -95 1 -88 -6 -88 91 l0 86 36 -3 c20 -2 49 3 65 11 17 8 47 13 72
11 49 -5 52 3 19 61 -18 31 -28 40 -47 38 -33 -3 -75 -10 -75 -12 0 -2 -7 -4
-16 -6 -9 -1 -25 -6 -36 -9 -18 -6 -19 -2 -13 46 4 29 10 60 14 69 5 13 0 18
-25 23 -17 3 -44 6 -59 6 l-28 0 1 -79z m-7 -175 c1 -1 3 -37 5 -81 l4 -80
-35 3 c-19 1 -45 3 -58 3 -21 1 -22 4 -20 80 2 52 7 78 14 75 6 -2 17 0 25 5
11 6 55 3 65 -5z"/>
</g>
</svg>
