<?xml version="1.0" standalone="no"?>
<!DOCTYPE svg PUBLIC "-//W3C//DTD SVG 20010904//EN"
 "http://www.w3.org/TR/2001/REC-SVG-20010904/DTD/svg10.dtd">
<svg version="1.0" xmlns="http://www.w3.org/2000/svg"
 width="101.000000pt" height="101.000000pt" viewBox="0 0 101.000000 101.000000"
 preserveAspectRatio="xMidYMid meet">
<metadata>
Created by potrace 1.16, written by Peter Selinger 2001-2019
</metadata>
<g transform="translate(0.000000,101.000000) scale(0.100000,-0.100000)"
fill="#000000" stroke="none">
<path d="M727 926 c-15 -40 -37 -88 -50 -107 l-23 -34 -107 3 c-107 3 -115 0
-107 -33 1 -5 2 -69 3 -142 l0 -131 45 4 c36 3 43 1 38 -11 -3 -8 0 -26 6 -40
8 -19 8 -31 -1 -48 -6 -12 -13 -32 -16 -44 -10 -56 -69 -113 -144 -140 l-50
-17 41 -38 c23 -21 45 -38 49 -38 18 0 131 94 154 128 36 55 59 145 58 228 -1
16 5 21 22 20 27 -1 26 3 29 -176 2 -74 3 -141 4 -148 3 -22 69 -44 93 -31 12
6 37 8 59 4 53 -9 93 14 114 65 18 45 20 70 7 70 -4 0 -25 11 -46 25 -20 15
-39 24 -41 22 -4 -4 -12 -46 -13 -70 -1 -21 -40 -38 -69 -30 -31 8 -43 58 -37
149 3 43 6 89 6 102 1 16 6 22 15 18 8 -3 26 0 39 6 19 9 28 9 37 0 28 -28 35
-12 30 68 -3 51 -1 85 7 93 11 14 14 85 4 120 -4 15 -14 17 -64 14 -32 -2 -59
-2 -59 0 0 13 91 143 100 143 28 0 4 24 -45 46 -31 13 -57 24 -58 24 -1 0 -14
-33 -30 -74z m68 -292 l0 -72 -44 -7 c-31 -5 -46 -3 -53 7 -7 10 -11 10 -15 1
-6 -15 -73 -18 -73 -3 0 6 -17 10 -38 10 l-39 0 1 68 1 67 130 1 130 1 0 -73z"/>
<path d="M338 975 c-20 -7 -54 -17 -75 -20 -21 -4 -51 -9 -68 -12 -16 -2 -50
-6 -75 -7 -25 -2 -50 -3 -57 -4 -8 -1 -5 -17 10 -47 21 -42 24 -44 57 -41 19
2 44 7 55 11 19 6 20 2 19 -57 l-2 -63 -36 -3 c-22 -2 -36 1 -36 8 0 17 -61 8
-73 -11 -5 -9 -7 -28 -3 -42 7 -30 53 -44 111 -33 35 7 35 7 24 -21 -19 -50
-90 -172 -128 -221 l-38 -48 27 -24 c15 -14 29 -32 32 -40 8 -23 29 1 82 93
32 56 44 72 45 55 0 -13 3 -57 6 -99 3 -42 1 -111 -3 -152 -9 -84 -6 -89 57
-79 32 4 33 6 26 41 -12 57 -16 213 -6 225 5 6 8 34 8 63 -1 28 1 49 5 47 4
-3 22 -25 38 -50 17 -24 36 -44 43 -44 7 1 25 11 41 25 l29 23 -40 49 c-23 26
-50 57 -62 67 -19 18 -22 18 -39 3 -16 -15 -17 -13 -17 34 l0 49 52 0 c60 0
83 17 83 60 0 33 -16 48 -33 31 -6 -6 -33 -11 -59 -11 l-48 0 4 71 3 70 59 4
c61 3 94 12 94 25 0 11 -59 90 -68 89 -4 0 -24 -7 -44 -14z"/>
<path d="M510 969 c-34 -14 -33 -12 -11 -60 11 -24 25 -59 32 -77 12 -34 14
-34 78 -11 26 11 25 28 -11 112 -22 50 -37 56 -88 36z"/>
</g>
</svg>
