<?xml version="1.0" standalone="no"?>
<!DOCTYPE svg PUBLIC "-//W3C//DTD SVG 20010904//EN"
 "http://www.w3.org/TR/2001/REC-SVG-20010904/DTD/svg10.dtd">
<svg version="1.0" xmlns="http://www.w3.org/2000/svg"
 width="101.000000pt" height="101.000000pt" viewBox="0 0 101.000000 101.000000"
 preserveAspectRatio="xMidYMid meet">
<metadata>
Created by potrace 1.16, written by Peter Selinger 2001-2019
</metadata>
<g transform="translate(0.000000,101.000000) scale(0.100000,-0.100000)"
fill="#000000" stroke="none">
<path d="M640 1004 c-12 -3 -14 -18 -12 -64 3 -39 0 -60 -7 -60 -6 0 -11 -18
-11 -40 0 -22 5 -40 10 -40 14 0 12 -74 -2 -88 -16 -16 -155 -16 -160 0 -3 7
-10 8 -17 3 -9 -5 -11 -20 -7 -49 12 -70 19 -185 17 -263 0 -10 1 -44 3 -76 3
-36 -1 -75 -10 -99 -10 -29 -11 -45 -3 -59 5 -11 7 -28 4 -38 -7 -22 16 -30
63 -23 28 4 32 8 34 36 0 17 0 38 -1 46 -1 8 -4 38 -6 66 -3 47 -1 52 18 53
12 0 56 3 97 6 41 3 94 3 117 0 l42 -6 -5 -46 c-2 -26 -9 -50 -16 -54 -6 -4
-32 -6 -56 -3 -39 3 -44 2 -39 -14 35 -105 39 -108 116 -85 65 19 105 62 91
99 -6 14 -13 77 -17 141 -5 93 -3 117 8 125 11 7 11 11 2 15 -15 5 -18 70 -4
75 5 2 11 37 14 79 l4 76 -95 2 c-63 1 -99 6 -104 14 -11 17 -10 95 2 102 5 3
8 29 8 58 -1 29 4 63 11 75 7 13 11 25 9 27 -7 7 -83 14 -98 9z m165 -411 c0
-27 -4 -51 -10 -55 -13 -10 -137 -8 -150 2 -5 5 -32 7 -60 7 l-50 -2 3 45 4
45 131 3 132 2 0 -47z m-35 -119 c34 -5 36 -7 38 -49 l2 -44 -43 -6 c-23 -3
-76 -3 -117 0 -41 3 -85 6 -97 6 -20 1 -22 6 -21 45 2 34 6 43 18 39 8 -2 21
-1 29 4 15 10 140 13 191 5z"/>
<path d="M283 955 c-37 -16 -88 -27 -122 -26 -12 1 -28 -2 -34 -6 -7 -4 -23
-6 -37 -5 -14 1 -31 -2 -39 -7 -12 -7 -10 -14 8 -36 11 -15 21 -34 21 -41 0
-9 8 -10 30 -4 17 5 30 7 30 4 0 -3 9 0 20 6 24 13 26 9 34 -65 l6 -50 -74 2
c-67 2 -76 0 -81 -17 -7 -23 3 -62 19 -72 17 -11 75 -9 98 3 11 6 22 8 25 6 9
-9 -70 -150 -114 -204 -24 -29 -43 -58 -43 -64 0 -6 9 -22 20 -36 11 -14 20
-32 20 -39 0 -8 3 -14 8 -14 10 0 28 29 78 124 33 62 43 74 44 55 4 -55 1
-312 -4 -334 -7 -27 12 -35 62 -27 31 4 32 5 25 46 -9 59 -7 336 3 336 2 0 18
-25 35 -55 17 -30 32 -55 34 -55 2 0 20 9 39 21 l36 21 -20 37 c-12 20 -34 52
-50 71 -25 30 -31 33 -51 23 -23 -10 -24 -9 -24 38 0 44 2 48 26 51 15 2 36 1
48 -4 29 -10 48 -1 56 29 13 52 0 63 -71 59 l-64 -2 3 73 c2 79 1 77 67 74 60
-3 67 11 30 58 -36 44 -48 48 -97 26z"/>
<path d="M830 930 c-7 -17 -30 -55 -51 -85 l-38 -54 37 -21 36 -22 30 39 c17
21 45 53 63 72 18 18 33 36 33 40 0 7 -58 47 -81 56 -11 4 -20 -3 -29 -25z"/>
<path d="M460 934 c-19 -8 -36 -17 -38 -19 -4 -4 62 -140 74 -154 9 -10 84 23
84 37 0 16 -65 138 -78 146 -4 2 -23 -2 -42 -10z"/>
</g>
</svg>
