<?xml version="1.0" standalone="no"?>
<!DOCTYPE svg PUBLIC "-//W3C//DTD SVG 20010904//EN"
 "http://www.w3.org/TR/2001/REC-SVG-20010904/DTD/svg10.dtd">
<svg version="1.0" xmlns="http://www.w3.org/2000/svg"
 width="101.000000pt" height="101.000000pt" viewBox="0 0 101.000000 101.000000"
 preserveAspectRatio="xMidYMid meet">
<metadata>
Created by potrace 1.16, written by Peter Selinger 2001-2019
</metadata>
<g transform="translate(0.000000,101.000000) scale(0.100000,-0.100000)"
fill="#000000" stroke="none">
<path d="M594 996 c-6 -16 -12 -44 -13 -63 -1 -7 -10 -10 -23 -7 -13 3 -33 8
-45 11 -13 3 -34 2 -49 -1 -22 -6 -25 -11 -20 -31 4 -14 2 -25 -4 -25 -5 0
-10 4 -10 9 0 5 -15 26 -34 46 -29 30 -38 35 -54 26 -20 -11 -67 -22 -92 -23
-8 0 -22 -2 -30 -5 -22 -8 -60 -12 -112 -13 -26 0 -49 -4 -53 -9 -3 -6 3 -28
14 -50 22 -42 30 -44 99 -23 l32 11 0 -37 c0 -20 3 -47 6 -58 5 -18 2 -21 -18
-18 -118 19 -132 16 -142 -26 -12 -49 5 -56 106 -46 l47 5 -23 -62 c-33 -88
-69 -156 -110 -210 l-36 -47 24 -35 c14 -20 27 -41 29 -48 8 -20 33 12 75 97
34 67 41 76 50 60 15 -29 14 -176 -2 -228 -22 -74 -5 -101 58 -89 l26 5 -1
172 c-2 240 0 246 36 166 10 -22 22 -40 28 -40 11 0 77 39 77 46 0 3 -7 17
-16 32 l-16 27 21 -23 c11 -13 24 -22 28 -20 37 16 143 82 143 88 0 5 -14 20
-32 33 l-32 25 -43 -29 c-24 -17 -57 -35 -74 -41 -28 -10 -34 -8 -49 12 -16
22 -18 22 -43 5 -25 -16 -27 -16 -33 0 -4 9 -2 27 4 41 6 13 9 30 6 38 -6 14
-1 16 83 19 44 1 56 16 46 56 -5 19 -45 31 -106 31 l-29 0 7 53 c4 28 8 53 10
55 1 1 32 4 69 5 76 3 69 17 68 -134 -1 -91 0 -97 20 -102 12 -3 30 -2 40 4
10 5 40 7 67 3 53 -7 52 -4 53 -96 0 -42 3 -48 22 -49 43 -2 -90 -36 -173 -44
-48 -5 -55 -16 -34 -54 16 -29 22 -32 53 -27 49 8 320 89 320 96 0 3 -13 21
-29 40 -24 28 -32 33 -42 22 -20 -19 -28 -14 -27 16 1 15 -2 41 -5 57 -6 30
-6 31 40 33 l46 2 -26 -28 -27 -28 76 -58 77 -57 28 27 c16 15 29 31 29 36 0
5 -34 31 -77 58 -42 28 -67 50 -57 49 10 -1 33 -1 49 -1 l30 2 2 150 c1 142 1
149 -19 156 -11 3 -36 3 -56 -1 -48 -9 -152 -12 -152 -4 0 4 9 18 20 31 22 29
17 40 -16 32 -15 -4 -24 -2 -24 5 0 16 -50 13 -56 -3z m206 -156 l7 -25 -141
1 c-133 1 -141 2 -144 21 -3 18 2 20 62 16 40 -3 67 0 71 7 4 7 32 10 73 8 60
-3 66 -5 72 -28z m2 -120 c4 -28 2 -30 -36 -35 -23 -3 -75 -3 -116 0 -41 3
-84 6 -95 6 -14 1 -20 9 -21 28 l-1 26 133 2 132 2 4 -29z"/>
<path d="M766 406 c-47 -30 -218 -87 -266 -91 -19 -1 -52 -5 -72 -9 l-37 -8
25 -38 c21 -32 31 -38 52 -35 39 5 186 49 267 80 39 14 86 31 105 38 19 6 37
12 39 14 7 5 -50 73 -62 73 -7 0 -29 -11 -51 -24z"/>
<path d="M825 298 c-95 -58 -209 -96 -308 -103 -20 -2 -44 -9 -53 -15 -11 -10
-21 -10 -38 -2 -13 6 -34 8 -45 5 -19 -5 -20 -7 -7 -22 8 -9 19 -28 25 -43 10
-26 13 -27 58 -22 101 12 136 19 218 44 93 29 265 102 265 112 0 5 -15 24 -32
42 l-33 34 -50 -30z"/>
</g>
</svg>
