<?xml version="1.0" standalone="no"?>
<!DOCTYPE svg PUBLIC "-//W3C//DTD SVG 20010904//EN"
 "http://www.w3.org/TR/2001/REC-SVG-20010904/DTD/svg10.dtd">
<svg version="1.0" xmlns="http://www.w3.org/2000/svg"
 width="101.000000pt" height="101.000000pt" viewBox="0 0 101.000000 101.000000"
 preserveAspectRatio="xMidYMid meet">
<metadata>
Created by potrace 1.16, written by Peter Selinger 2001-2019
</metadata>
<g transform="translate(0.000000,101.000000) scale(0.100000,-0.100000)"
fill="#000000" stroke="none">
<path d="M448 993 c-23 -6 -22 -15 2 -62 l19 -38 -94 -7 c-52 -4 -101 -4 -107
1 -7 4 -54 8 -104 8 l-91 0 1 -90 1 -90 40 -3 c56 -3 70 9 70 60 l0 43 80 2
c133 3 146 3 255 -2 66 -4 119 -1 142 6 21 7 58 9 90 5 l53 -7 -2 -47 c-1 -26
-2 -48 -2 -48 -1 -1 -47 16 -103 37 -56 22 -107 39 -113 39 -13 -1 -70 -59
-63 -65 3 -3 16 -8 28 -10 48 -9 127 -39 200 -75 l75 -37 29 34 c16 19 27 35
25 37 -2 2 -17 10 -34 19 l-30 16 35 -5 c19 -3 40 -1 47 3 7 5 14 44 17 95 5
80 4 87 -14 93 -11 4 -30 3 -42 -1 -13 -4 -44 -6 -70 -5 -28 1 -48 -2 -48 -9
0 -5 -16 -10 -35 -10 -19 0 -35 5 -35 10 0 6 -22 10 -48 10 l-48 0 -15 48
c-14 45 -16 47 -54 48 -22 1 -48 -1 -57 -3z"/>
<path d="M349 783 c-37 -28 -125 -71 -161 -79 -13 -3 -27 -6 -33 -8 -5 -2 -23
-6 -38 -11 l-28 -8 29 -31 c16 -17 31 -37 33 -44 3 -9 50 10 148 58 80 38 151
70 158 70 25 0 13 19 -31 49 l-43 30 -34 -26z"/>
<path d="M372 669 c-19 -7 -23 -14 -18 -36 2 -16 8 -62 11 -103 l6 -75 -68
-20 c-37 -10 -72 -20 -78 -21 -5 0 -12 -2 -15 -3 -13 -6 -47 -12 -65 -12 -11
1 -30 -4 -42 -10 l-21 -12 21 -46 c12 -25 23 -48 24 -50 2 -2 52 19 112 47 59
29 113 52 120 52 21 0 -18 -74 -60 -112 -41 -37 -104 -64 -172 -72 -55 -7 -58
-13 -28 -44 15 -15 32 -35 38 -46 9 -17 14 -17 49 -6 121 39 228 128 254 211
7 24 15 101 16 172 2 70 6 138 9 150 5 18 1 26 -20 35 -30 14 -42 14 -73 1z"/>
<path d="M535 674 c-6 -2 -9 -37 -7 -84 2 -52 0 -80 -7 -80 -7 0 -11 -27 -11
-70 0 -44 4 -70 11 -70 8 0 9 -26 5 -87 -5 -63 -3 -95 6 -112 16 -29 82 -55
107 -42 9 6 67 9 128 8 96 -1 114 1 132 17 19 17 59 104 50 109 -2 1 -23 12
-47 24 -39 20 -43 20 -48 5 -18 -62 -78 -100 -134 -87 -14 3 -39 7 -57 9 -51
6 -54 11 -51 95 l3 78 99 -49 c54 -27 102 -46 106 -41 4 4 17 25 29 45 l22 37
-118 36 c-65 20 -123 38 -130 40 -6 2 -9 13 -6 24 4 16 9 18 22 11 10 -5 23
-16 30 -24 11 -14 20 -11 68 20 31 20 66 40 79 45 13 4 24 12 24 17 0 13 -32
39 -62 51 -21 8 -29 6 -45 -11 -20 -22 -102 -73 -108 -67 -7 8 -8 104 -1 121
6 13 0 19 -31 27 -40 12 -42 12 -58 5z"/>
<path d="M206 585 c-10 -8 -24 -16 -30 -18 -6 -2 2 -19 19 -38 17 -19 37 -45
45 -57 15 -23 16 -23 55 -7 22 10 42 19 44 21 8 7 -85 113 -99 113 -8 0 -24
-6 -34 -14z"/>
</g>
</svg>
