<?xml version="1.0" standalone="no"?>
<!DOCTYPE svg PUBLIC "-//W3C//DTD SVG 20010904//EN"
 "http://www.w3.org/TR/2001/REC-SVG-20010904/DTD/svg10.dtd">
<svg version="1.0" xmlns="http://www.w3.org/2000/svg"
 width="101.000000pt" height="102.000000pt" viewBox="0 0 101.000000 102.000000"
 preserveAspectRatio="xMidYMid meet">
<metadata>
Created by potrace 1.16, written by Peter Selinger 2001-2019
</metadata>
<g transform="translate(0.000000,102.000000) scale(0.100000,-0.100000)"
fill="#000000" stroke="none">
<path d="M448 1013 c-22 -5 -22 -11 -4 -54 l14 -34 -69 3 c-45 2 -69 0 -69 -7
0 -14 -67 -15 -72 -1 -1 5 -38 10 -81 12 -61 2 -80 0 -87 -12 -13 -20 -13 -47
0 -55 14 -8 13 -68 -1 -82 -18 -18 0 -33 39 -33 51 0 60 9 58 55 l-1 40 160 2
c225 4 318 4 410 1 l80 -3 0 -43 c0 -33 -3 -41 -15 -36 -8 3 -59 21 -114 40
l-99 34 -34 -26 c-19 -14 -31 -30 -26 -34 4 -4 33 -16 63 -25 99 -32 125 -46
109 -56 -19 -12 -116 -12 -124 1 -7 12 -113 11 -121 -1 -7 -12 -47 -12 -59 0
-6 6 -30 11 -55 13 l-45 3 74 30 74 29 -38 33 -37 32 -76 -38 c-78 -39 -140
-62 -177 -66 -11 -1 -24 -3 -30 -4 -5 0 8 -19 30 -41 30 -31 42 -37 56 -30 10
6 21 10 26 10 4 0 9 -39 9 -86 1 -61 6 -89 15 -95 8 -5 61 -7 121 -3 l106 6
-1 -26 -2 -26 -140 6 c-77 3 -151 6 -165 7 -24 2 -25 0 -27 -63 0 -36 3 -70 8
-76 10 -12 7 -172 -4 -195 -10 -20 13 -27 67 -21 37 4 38 5 30 36 -7 26 -8
138 -3 212 1 15 8 22 23 23 11 0 49 3 84 5 35 3 72 2 83 -3 21 -7 20 -8 -5
-39 -33 -38 -84 -71 -137 -86 l-39 -12 39 -38 40 -39 49 32 c27 17 66 47 86
67 l37 36 47 -28 c26 -14 62 -38 81 -52 l33 -25 40 40 40 40 -99 40 c-99 40
-118 56 -73 61 83 9 149 11 176 7 35 -6 35 -7 34 -119 0 -33 -3 -62 -6 -65 -3
-3 -26 -5 -50 -4 -25 1 -43 -2 -41 -5 2 -4 12 -26 21 -49 10 -23 27 -43 37
-46 20 -5 98 18 114 34 5 5 10 56 11 112 1 56 5 118 8 137 13 73 7 92 -24 72
-26 -16 -117 -16 -124 1 -5 10 -7 10 -12 0 -7 -15 -74 -18 -74 -3 0 6 -18 10
-41 10 -33 0 -40 3 -35 16 3 9 6 16 6 17 0 1 48 1 108 0 111 -3 148 5 124 29
-14 14 -16 98 -2 98 6 0 10 13 10 30 0 20 4 28 13 24 8 -3 26 11 42 32 27 36
28 37 9 51 -18 14 -18 15 4 8 13 -4 34 -4 47 -1 23 6 24 9 22 86 -2 84 -14
108 -47 93 -8 -3 -82 -6 -165 -5 l-150 1 -13 45 c-12 43 -14 45 -50 44 -20 -1
-45 -3 -54 -5z m12 -384 c0 -9 31 -10 113 -5 l114 7 -1 -33 -1 -33 -181 3
-182 3 -4 34 -4 35 73 0 c48 0 73 -4 73 -11z"/>
</g>
</svg>
