<?xml version="1.0" standalone="no"?>
<!DOCTYPE svg PUBLIC "-//W3C//DTD SVG 20010904//EN"
 "http://www.w3.org/TR/2001/REC-SVG-20010904/DTD/svg10.dtd">
<svg version="1.0" xmlns="http://www.w3.org/2000/svg"
 width="101.000000pt" height="101.000000pt" viewBox="0 0 101.000000 101.000000"
 preserveAspectRatio="xMidYMid meet">
<metadata>
Created by potrace 1.16, written by Peter Selinger 2001-2019
</metadata>
<g transform="translate(0.000000,101.000000) scale(0.100000,-0.100000)"
fill="#000000" stroke="none">
<path d="M620 1004 c-12 -4 -14 -18 -12 -64 3 -39 0 -60 -7 -60 -6 0 -11 -18
-11 -40 0 -22 5 -40 10 -40 11 0 13 -87 4 -179 l-7 -61 -33 6 c-19 3 -49 3
-68 0 l-34 -7 4 -72 c4 -68 6 -135 5 -174 0 -10 1 -45 4 -78 2 -33 -1 -75 -6
-93 -14 -41 -8 -47 43 -45 49 2 50 3 51 46 1 28 5 35 21 36 12 0 48 3 81 6 33
3 74 2 92 0 30 -5 32 -8 28 -39 -5 -38 8 -46 63 -38 l32 4 -7 57 c-9 70 -8
269 1 338 l7 52 -36 7 c-20 3 -61 4 -93 2 l-57 -4 0 78 0 78 43 0 c23 0 42 5
42 10 0 6 11 10 25 10 14 0 25 -4 25 -10 0 -17 107 -12 124 6 20 20 20 58 0
78 -17 18 -104 23 -104 6 0 -5 -16 -10 -35 -10 -19 0 -35 5 -35 10 0 6 -20 10
-43 10 l-44 0 3 68 c1 37 5 74 9 83 9 23 -39 35 -85 23z m141 -520 c30 -6 29
-3 32 -131 1 -45 -2 -85 -6 -90 -7 -7 -122 -8 -204 -2 -27 1 -35 36 -28 119 3
30 5 65 6 78 1 16 6 21 18 18 9 -3 22 -2 30 3 16 10 110 13 152 5z"/>
<path d="M250 967 c-19 -6 -36 -11 -37 -12 -1 0 9 -31 22 -68 14 -37 25 -71
25 -75 0 -4 -43 -7 -95 -7 -101 0 -115 -6 -115 -50 0 -47 11 -50 147 -48 168
3 201 3 247 2 41 -1 56 12 56 48 0 44 -25 54 -124 50 -83 -3 -88 -2 -58 10 38
15 38 20 11 101 -22 65 -23 66 -79 49z"/>
<path d="M320 660 c-6 -12 -9 -34 -5 -50 3 -16 2 -31 -5 -35 -5 -3 -10 -18
-10 -33 1 -15 -1 -38 -4 -52 -27 -149 -37 -186 -55 -187 -9 -1 -32 -4 -51 -7
-19 -3 -54 -7 -77 -10 -57 -6 -64 -12 -59 -49 9 -70 12 -72 116 -51 14 3 32 6
40 8 8 1 25 6 36 10 12 3 35 9 50 11 81 12 152 38 157 56 10 38 -6 65 -36 60
-28 -5 -77 -10 -77 -8 0 1 14 52 30 112 17 61 33 121 36 134 3 13 11 36 19 52
19 36 19 35 -7 43 -62 19 -86 18 -98 -4z"/>
<path d="M131 659 c-14 -6 -21 -15 -17 -24 3 -8 8 -56 11 -107 10 -157 19
-172 87 -153 27 7 27 7 23 83 -5 106 -5 102 -17 152 -15 61 -33 71 -87 49z"/>
</g>
</svg>
