<?xml version="1.0" standalone="no"?>
<!DOCTYPE svg PUBLIC "-//W3C//DTD SVG 20010904//EN"
 "http://www.w3.org/TR/2001/REC-SVG-20010904/DTD/svg10.dtd">
<svg version="1.0" xmlns="http://www.w3.org/2000/svg"
 width="101.000000pt" height="102.000000pt" viewBox="0 0 101.000000 102.000000"
 preserveAspectRatio="xMidYMid meet">
<metadata>
Created by potrace 1.16, written by Peter Selinger 2001-2019
</metadata>
<g transform="translate(0.000000,102.000000) scale(0.100000,-0.100000)"
fill="#000000" stroke="none">
<path d="M559 960 c-40 -76 -90 -134 -129 -150 -17 -7 -29 -15 -28 -19 2 -3
10 -23 18 -44 13 -33 17 -37 45 -33 16 2 37 7 46 11 10 3 20 2 23 -4 6 -9 -99
-106 -153 -141 l-23 -15 42 -28 42 -27 94 82 94 83 -22 17 c-13 10 -27 18 -31
18 -5 0 -5 5 -2 10 4 6 15 8 25 5 10 -3 40 -1 66 5 27 6 78 12 113 12 55 1 66
-2 81 -22 l17 -23 37 22 c20 13 36 26 36 31 0 11 -109 147 -138 174 -21 18
-22 18 -57 -4 -19 -12 -35 -24 -35 -28 0 -3 15 -21 33 -40 17 -18 28 -32 22
-31 -5 1 -28 -3 -50 -9 -50 -15 -112 -15 -121 -1 -3 6 -18 9 -32 6 -21 -4 -12
9 51 70 42 42 77 77 77 79 0 6 -87 54 -98 54 -6 0 -25 -27 -43 -60z"/>
<path d="M190 976 c-22 -9 -33 -19 -31 -27 34 -110 47 -134 69 -131 12 2 22 8
22 14 0 6 10 8 25 4 14 -4 25 -3 25 2 0 27 -49 147 -61 149 -8 1 -30 -4 -49
-11z"/>
<path d="M60 784 c-16 -42 -5 -71 30 -79 16 -4 40 -3 52 1 13 4 57 6 98 5 134
-5 142 -5 151 10 21 33 -6 100 -33 83 -13 -8 -225 -7 -260 2 -24 5 -29 2 -38
-22z"/>
<path d="M737 692 c-15 -15 -27 -31 -27 -35 0 -4 18 -16 40 -27 21 -11 64 -40
95 -65 l55 -45 30 32 c16 18 30 36 30 41 0 8 -177 127 -189 127 -4 0 -19 -13
-34 -28z"/>
<path d="M269 663 c-6 -15 -9 -43 -8 -63 2 -20 0 -41 -4 -47 -4 -7 -7 -24 -6
-40 1 -27 -2 -51 -15 -118 -12 -62 -15 -78 -18 -81 -7 -6 -65 -16 -116 -19
-30 -2 -56 -6 -59 -9 -3 -3 0 -28 7 -56 10 -41 16 -50 29 -45 29 12 159 46
193 51 18 3 44 7 57 9 33 5 43 18 47 61 l3 36 -40 -6 c-43 -7 -44 -6 -28 44 5
19 12 50 15 69 2 19 7 38 10 42 5 9 11 33 19 74 4 21 9 43 21 82 5 18 1 25
-21 33 -47 18 -75 13 -86 -17z"/>
<path d="M155 670 c-4 -7 -21 -10 -37 -8 -29 5 -30 4 -24 -26 9 -43 14 -89 19
-179 2 -42 7 -80 11 -84 8 -8 75 -7 83 1 4 3 1 17 -6 30 -10 18 -10 29 -2 45
7 12 9 26 6 31 -3 5 -8 38 -10 72 -8 109 -10 121 -22 125 -6 2 -14 -1 -18 -7z"/>
<path d="M562 588 c-41 -74 -95 -148 -140 -191 l-49 -45 38 -25 39 -26 37 43
37 43 33 -55 c18 -30 33 -58 33 -62 0 -20 -129 -67 -230 -85 -19 -3 -36 -8
-38 -10 -3 -3 30 -53 58 -88 8 -9 166 53 237 94 l51 29 46 -30 c43 -29 154
-80 175 -80 7 0 61 84 61 95 0 4 -54 19 -62 17 -9 -2 -111 33 -137 48 l-22 11
21 28 c11 16 41 72 67 126 38 79 44 98 32 106 -17 11 -63 12 -73 2 -9 -9 -146
-11 -146 -2 0 3 9 14 20 24 28 26 26 31 -26 49 l-45 15 -17 -31z m177 -134 c8
-8 -66 -119 -79 -119 -14 0 -80 98 -80 118 0 4 8 6 18 3 9 -3 24 -1 32 5 13 8
98 4 109 -7z"/>
</g>
</svg>
