<?xml version="1.0" standalone="no"?>
<!DOCTYPE svg PUBLIC "-//W3C//DTD SVG 20010904//EN"
 "http://www.w3.org/TR/2001/REC-SVG-20010904/DTD/svg10.dtd">
<svg version="1.0" xmlns="http://www.w3.org/2000/svg"
 width="101.000000pt" height="101.000000pt" viewBox="0 0 101.000000 101.000000"
 preserveAspectRatio="xMidYMid meet">
<metadata>
Created by potrace 1.16, written by Peter Selinger 2001-2019
</metadata>
<g transform="translate(0.000000,101.000000) scale(0.100000,-0.100000)"
fill="#000000" stroke="none">
<path d="M448 1003 c-16 -4 -16 -7 1 -46 l18 -42 -108 1 c-60 1 -125 5 -144 8
-46 9 -75 -7 -75 -42 0 -48 9 -52 100 -48 47 2 79 1 73 -1 -18 -6 -16 -23 3
-44 16 -18 11 -18 -124 -14 l-140 5 -6 -26 c-12 -47 -1 -59 54 -59 27 0 50 3
50 7 0 5 34 8 75 8 43 0 75 -4 75 -10 0 -6 30 -10 70 -10 40 0 70 4 70 10 0 6
20 10 45 10 26 0 45 -5 45 -11 0 -8 55 -10 183 -8 100 2 188 0 195 -4 33 -21
71 27 57 72 -4 15 -22 17 -144 16 -127 0 -138 1 -125 16 8 8 14 20 14 26 0 12
142 29 158 19 14 -9 24 27 16 58 -6 27 -36 42 -56 29 -19 -12 -268 -10 -268 2
0 6 -5 27 -11 48 -9 35 -12 37 -47 36 -20 -1 -45 -3 -54 -6z m146 -195 l-16
-34 -71 3 c-66 2 -74 4 -94 30 l-21 28 109 3 109 3 -16 -33z"/>
<path d="M777 673 c-4 -3 -140 -6 -302 -5 l-295 1 -6 -24 c-6 -25 3 -265 10
-273 5 -5 19 -4 131 3 112 8 143 1 141 -30 -1 -19 -8 -26 -31 -30 -30 -6 -130
-1 -216 9 -51 7 -62 -5 -52 -56 4 -21 9 -24 36 -21 82 10 167 13 213 8 46 -6
52 -9 50 -29 -1 -23 -5 -24 -116 -29 -111 -6 -164 -4 -242 6 -40 6 -50 -8 -41
-56 4 -23 9 -25 41 -20 21 3 80 5 132 5 52 -1 124 -1 160 -1 109 0 258 -2 407
-4 141 -2 142 -2 146 21 8 41 -3 62 -27 56 -20 -5 -311 -8 -351 -4 -29 3 -30
47 -1 49 11 0 60 3 107 6 48 3 105 2 127 -3 38 -9 40 -8 45 15 2 14 2 34 -1
45 -4 17 -10 19 -36 12 -26 -7 -171 -9 -241 -3 -13 1 -20 9 -21 24 -2 26 -6
26 158 28 105 2 117 4 122 21 3 10 1 29 -4 42 -5 13 -7 59 -4 102 9 108 8 123
-8 133 -16 11 -23 11 -31 2z m-325 -98 c6 -29 -18 -36 -97 -29 -27 2 -59 4
-70 5 -13 1 -20 9 -20 23 0 20 6 21 91 23 90 3 92 2 96 -22z m274 1 c-1 -21
-7 -24 -59 -30 -33 -3 -67 -1 -77 4 -10 5 -25 8 -32 5 -9 -4 -14 2 -15 14 -2
18 6 21 60 24 34 2 76 4 93 5 28 2 32 -1 30 -22z m-275 -85 c3 -1 6 -14 6 -31
0 -34 -21 -41 -102 -34 -27 2 -59 4 -71 5 -16 1 -21 8 -21 30 0 22 4 28 16 24
9 -2 23 0 31 5 12 7 100 8 141 1z m250 -1 c22 0 26 -5 26 -29 0 -27 -2 -29
-59 -35 -33 -3 -68 -1 -78 4 -10 5 -25 8 -33 5 -10 -4 -14 3 -14 25 0 23 4 29
16 25 9 -2 23 0 31 6 8 5 31 7 50 4 19 -2 47 -5 61 -5z"/>
</g>
</svg>
