<?xml version="1.0" standalone="no"?>
<!DOCTYPE svg PUBLIC "-//W3C//DTD SVG 20010904//EN"
 "http://www.w3.org/TR/2001/REC-SVG-20010904/DTD/svg10.dtd">
<svg version="1.0" xmlns="http://www.w3.org/2000/svg"
 width="101.000000pt" height="102.000000pt" viewBox="0 0 101.000000 102.000000"
 preserveAspectRatio="xMidYMid meet">
<metadata>
Created by potrace 1.16, written by Peter Selinger 2001-2019
</metadata>
<g transform="translate(0.000000,102.000000) scale(0.100000,-0.100000)"
fill="#000000" stroke="none">
<path d="M193 932 c-26 -55 -62 -110 -98 -150 -32 -35 -56 -64 -54 -66 2 -1
21 -12 42 -24 l37 -21 56 74 c31 41 62 75 70 75 7 0 18 -19 25 -42 22 -83 24
-87 64 -84 54 5 59 15 31 77 l-24 54 57 -1 c31 -1 68 -4 82 -8 43 -12 74 34
50 73 -9 14 -47 17 -177 10 l-82 -4 20 28 c11 16 29 34 39 40 11 7 19 15 19
18 0 8 -86 39 -104 39 -6 -1 -30 -40 -53 -88z"/>
<path d="M623 1003 c-23 -71 -90 -189 -133 -236 -51 -55 -51 -63 -8 -74 55
-12 62 -9 108 57 57 82 75 85 105 17 12 -29 25 -60 28 -69 4 -11 14 -17 24
-15 33 7 73 19 73 23 0 2 -15 27 -34 56 l-33 53 91 0 c50 0 94 5 98 10 11 14
10 63 -1 70 -6 3 -51 0 -100 -7 -74 -9 -95 -9 -115 2 -14 7 -32 10 -41 6 -14
-5 -14 -2 2 25 10 17 26 37 36 43 25 16 22 22 -23 40 -52 21 -69 20 -77 -1z"/>
<path d="M148 672 c-22 -4 -30 -28 -22 -68 6 -31 34 -50 34 -24 0 7 27 10 73
8 66 -3 72 -5 69 -23 -2 -11 -5 -36 -8 -55 -14 -99 -116 -240 -214 -298 l-48
-27 43 -37 43 -38 70 65 c76 71 122 135 157 222 l23 56 25 -50 c14 -27 44 -73
67 -101 22 -29 38 -57 35 -61 -13 -22 -124 -49 -224 -56 -29 -2 -57 -7 -61
-12 -5 -4 9 -28 29 -51 l38 -44 76 22 c42 11 108 34 147 50 73 30 83 31 140 7
46 -20 171 -53 232 -62 25 -3 30 2 53 52 14 30 25 56 25 58 0 1 -24 2 -52 2
-52 0 -123 7 -163 17 -11 2 -27 5 -35 5 -44 3 -44 19 2 73 26 29 67 87 92 128
54 88 50 95 -50 88 l-63 -4 40 74 c23 40 39 75 37 77 -2 2 -50 -1 -108 -7 -79
-9 -105 -9 -108 0 -5 15 -142 17 -142 2 0 -6 -32 -10 -75 -10 -41 0 -75 4 -75
9 0 9 -74 18 -102 13z m472 -99 c0 -3 -16 -35 -35 -69 -21 -40 -30 -66 -24
-70 6 -3 40 -3 76 1 l65 7 -18 -32 c-11 -17 -37 -52 -59 -77 l-41 -46 -41 47
c-41 46 -71 99 -78 136 -6 33 -16 42 -41 37 -35 -6 -47 5 -34 34 10 22 16 24
70 21 32 -2 67 1 77 7 20 11 83 15 83 4z"/>
</g>
</svg>
