<?xml version="1.0" standalone="no"?>
<!DOCTYPE svg PUBLIC "-//W3C//DTD SVG 20010904//EN"
 "http://www.w3.org/TR/2001/REC-SVG-20010904/DTD/svg10.dtd">
<svg version="1.0" xmlns="http://www.w3.org/2000/svg"
 width="101.000000pt" height="101.000000pt" viewBox="0 0 101.000000 101.000000"
 preserveAspectRatio="xMidYMid meet">
<metadata>
Created by potrace 1.16, written by Peter Selinger 2001-2019
</metadata>
<g transform="translate(0.000000,101.000000) scale(0.100000,-0.100000)"
fill="#000000" stroke="none">
<path d="M230 976 c-15 -46 -99 -164 -145 -205 -20 -18 -36 -33 -34 -35 2 -1
24 -11 48 -21 l44 -19 29 34 c16 19 37 47 46 63 24 40 40 33 68 -28 14 -30 29
-55 34 -55 4 0 24 7 44 15 31 13 35 18 27 34 -6 10 -17 23 -25 31 -27 22 -18
25 58 23 81 -3 92 5 80 53 -6 24 -8 25 -75 18 -49 -5 -73 -3 -84 6 -8 7 -24
10 -35 7 -16 -4 -18 -2 -10 13 5 10 22 28 36 39 31 24 25 37 -24 51 -59 16
-69 13 -82 -24z"/>
<path d="M593 943 c-33 -72 -131 -192 -150 -186 -7 3 -45 -23 -85 -57 -105
-89 -167 -123 -221 -122 -26 1 -32 -23 -17 -68 l13 -38 66 -1 c36 0 93 4 126
10 69 13 205 20 355 19 89 -1 108 -4 126 -21 28 -26 35 -24 73 15 l32 33 -48
35 c-81 60 -205 138 -217 138 -17 0 -73 -62 -61 -67 6 -2 35 -19 65 -39 l55
-35 -127 7 c-93 5 -128 4 -128 -5 0 -7 -26 -11 -75 -11 -41 0 -75 4 -75 9 0
12 192 121 213 121 26 0 20 16 -15 44 -36 28 -28 34 12 11 38 -22 47 -19 82
33 27 38 39 47 61 47 30 -1 43 -15 51 -56 7 -39 17 -59 31 -59 17 0 75 21 75
27 0 3 -10 21 -21 40 -12 19 -20 36 -17 38 6 7 92 7 114 0 26 -8 54 17 54 48
0 43 -10 46 -95 35 -60 -9 -80 -9 -83 0 -2 7 -21 12 -43 12 -47 0 -49 9 -9 48
17 17 30 33 30 35 0 6 -38 17 -80 23 -35 5 -35 5 -67 -63z"/>
<path d="M196 442 c-12 -3 -16 -15 -16 -53 0 -27 5 -49 10 -49 15 0 12 -67 -2
-74 -10 -5 -10 -7 0 -12 16 -7 16 -108 0 -134 -17 -27 -5 -35 49 -32 54 2 56
3 56 41 0 35 -28 33 340 31 l88 -1 -6 -28 c-7 -33 8 -40 68 -33 25 3 37 9 34
17 -13 32 -19 126 -9 138 11 13 15 137 6 170 -6 18 -49 24 -59 7 -9 -15 -152
-13 -159 3 -5 10 -7 10 -12 0 -7 -15 -74 -18 -74 -3 0 6 -18 10 -40 10 -22 0
-40 -4 -40 -10 0 -5 -16 -10 -35 -10 -19 0 -35 4 -35 9 0 9 -132 19 -164 13z
m304 -82 c8 0 47 2 85 5 98 7 133 0 134 -28 0 -12 2 -38 3 -57 l3 -35 -95 -3
c-103 -3 -292 -4 -326 -1 -20 1 -22 7 -20 59 l1 57 41 -5 c23 -2 50 1 60 7 11
6 37 9 59 6 22 -3 47 -5 55 -5z"/>
</g>
</svg>
