<?xml version="1.0" standalone="no"?>
<!DOCTYPE svg PUBLIC "-//W3C//DTD SVG 20010904//EN"
 "http://www.w3.org/TR/2001/REC-SVG-20010904/DTD/svg10.dtd">
<svg version="1.0" xmlns="http://www.w3.org/2000/svg"
 width="101.000000pt" height="102.000000pt" viewBox="0 0 101.000000 102.000000"
 preserveAspectRatio="xMidYMid meet">
<metadata>
Created by potrace 1.16, written by Peter Selinger 2001-2019
</metadata>
<g transform="translate(0.000000,102.000000) scale(0.100000,-0.100000)"
fill="#000000" stroke="none">
<path d="M206 944 c-41 -86 -113 -192 -151 -222 -14 -11 -25 -22 -25 -25 0 -5
82 -47 92 -47 3 0 29 34 57 75 29 41 59 75 67 75 14 0 30 -29 38 -73 11 -56
25 -77 54 -77 15 0 37 6 47 14 19 13 19 15 -6 72 l-25 59 68 0 c37 0 68 -2 68
-4 0 -3 -14 -19 -31 -37 -30 -31 -31 -32 -9 -39 20 -6 20 -7 3 -20 -16 -12
-16 -17 -5 -47 6 -19 12 -38 12 -42 0 -5 -57 -5 -127 -1 -85 4 -138 3 -156 -4
-28 -11 -29 -14 -23 -59 3 -26 8 -60 11 -77 15 -75 15 -201 1 -249 -11 -36
-12 -54 -4 -72 8 -18 8 -27 -2 -39 -7 -8 -10 -19 -6 -22 7 -7 96 -7 103 1 2 2
5 22 6 44 1 32 5 40 22 41 27 2 204 2 280 0 33 0 72 2 87 6 15 4 43 4 61 1 29
-5 34 -10 34 -36 0 -17 2 -32 4 -35 7 -6 36 -9 76 -7 31 2 32 4 23 28 -13 33
-11 165 3 182 7 9 7 16 -1 24 -14 14 -16 74 -2 83 12 7 12 156 0 175 -7 12
-38 15 -153 15 l-143 0 2 25 c1 14 5 33 9 43 5 12 2 17 -9 17 -22 0 -21 4 18
57 51 71 92 64 110 -18 21 -92 24 -96 64 -81 15 6 35 13 45 16 16 5 15 11 -12
64 l-30 59 65 6 c35 4 76 2 89 -3 36 -14 59 13 51 58 -6 38 -21 53 -43 45 -7
-3 -69 -6 -137 -7 l-124 -1 18 25 c10 14 27 34 39 44 12 11 21 23 21 27 0 7
-91 39 -110 39 -4 0 -17 -26 -29 -57 -12 -32 -34 -78 -49 -103 l-27 -45 -5 35
c-6 38 -8 39 -109 24 -27 -4 -52 -2 -66 6 -13 7 -31 10 -40 6 -22 -8 15 45 50
73 14 10 25 22 25 25 0 10 -50 27 -91 32 l-36 5 -37 -77z m224 -423 c22 -5 25
-11 26 -53 0 -43 -2 -48 -25 -52 -14 -2 -48 -3 -76 0 -27 2 -60 4 -72 5 -20 1
-22 6 -21 45 2 44 2 44 40 44 21 0 38 5 38 10 0 11 50 12 90 1z m318 -23 c0
-13 3 -33 7 -45 10 -31 -25 -43 -107 -38 -116 8 -113 8 -110 35 2 14 3 34 4
45 0 18 8 20 103 23 101 2 103 2 103 -20z m-317 -145 c20 -3 27 -10 27 -26 0
-12 3 -32 7 -44 10 -31 -25 -43 -107 -38 -116 8 -113 8 -110 35 2 14 3 35 4
48 0 16 5 21 17 18 9 -3 23 -1 31 4 15 10 84 11 131 3z m300 1 c19 -4 27 -11
27 -27 0 -12 3 -32 7 -44 10 -31 -27 -44 -112 -38 -121 8 -118 8 -115 35 2 14
3 35 4 48 0 16 5 21 17 18 9 -3 23 -1 31 4 15 9 97 12 141 4z"/>
</g>
</svg>
