<?xml version="1.0" standalone="no"?>
<!DOCTYPE svg PUBLIC "-//W3C//DTD SVG 20010904//EN"
 "http://www.w3.org/TR/2001/REC-SVG-20010904/DTD/svg10.dtd">
<svg version="1.0" xmlns="http://www.w3.org/2000/svg"
 width="101.000000pt" height="101.000000pt" viewBox="0 0 101.000000 101.000000"
 preserveAspectRatio="xMidYMid meet">
<metadata>
Created by potrace 1.16, written by Peter Selinger 2001-2019
</metadata>
<g transform="translate(0.000000,101.000000) scale(0.100000,-0.100000)"
fill="#000000" stroke="none">
<path d="M234 993 c-20 -62 -85 -172 -134 -225 l-56 -62 45 -23 c25 -13 46
-23 47 -23 0 0 22 31 49 69 64 95 89 92 120 -14 13 -41 18 -44 74 -31 34 8 35
10 12 55 -12 22 -21 42 -21 43 0 2 18 2 40 0 63 -6 87 4 95 38 7 32 -7 71 -19
51 -9 -14 -93 -15 -101 -1 -3 6 -28 9 -55 7 l-49 -3 35 48 c19 27 34 50 34 53
0 7 -36 20 -78 30 -26 5 -33 3 -38 -12z"/>
<path d="M610 989 c0 -30 -69 -170 -111 -226 -47 -62 -48 -64 -27 -72 l22 -8
-23 -12 c-21 -12 -23 -18 -17 -60 l6 -47 -67 4 c-102 5 -99 3 -68 40 15 18 25
35 22 38 -3 3 -25 11 -50 19 l-45 13 -36 -74 c-21 -41 -61 -100 -91 -132 l-53
-58 44 -21 44 -22 38 50 38 49 110 6 110 5 -1 -44 0 -43 -125 1 c-124 0 -125
0 -128 -24 -2 -12 -1 -33 2 -46 6 -22 11 -23 74 -23 37 0 72 5 79 10 6 5 32 6
56 3 37 -6 45 -11 45 -28 0 -12 4 -34 7 -49 6 -24 3 -29 -20 -38 -31 -12 -193
-5 -337 13 -41 6 -48 -4 -40 -64 4 -34 6 -35 35 -31 29 3 87 4 282 3 33 -1
102 1 154 4 56 2 102 0 114 -6 13 -7 64 -9 152 -4 131 7 133 8 138 32 8 45 -2
63 -33 57 -15 -4 -37 -1 -48 5 -15 8 -31 7 -63 -4 -30 -11 -66 -14 -123 -10
-138 8 -131 6 -128 40 1 17 3 40 3 51 1 24 -1 24 129 27 47 1 97 -2 112 -7 22
-6 27 -4 33 13 3 12 3 35 0 52 -6 26 -10 30 -28 24 -53 -16 -70 -17 -79 -4 -7
11 -11 11 -15 2 -6 -15 -73 -18 -73 -3 0 6 -16 10 -35 10 -30 0 -35 3 -35 24
0 13 -2 30 -5 38 -4 10 27 13 165 13 168 -1 171 -1 176 21 3 12 4 32 2 44 -3
21 -7 22 -178 25 l-175 3 -3 26 c-2 14 1 26 6 26 13 0 22 38 10 42 -6 2 7 31
28 63 32 49 44 60 67 60 24 1 30 -6 47 -52 11 -30 20 -58 20 -63 0 -13 -2 -13
53 6 l47 16 -21 40 c-11 22 -19 42 -16 44 2 2 41 5 85 7 89 2 99 9 86 61 -7
28 -41 43 -71 31 -24 -9 -223 -12 -223 -3 0 3 16 27 35 52 19 26 35 48 35 50
0 5 -85 26 -104 26 -9 0 -16 -5 -16 -11z"/>
</g>
</svg>
