<?xml version="1.0" standalone="no"?>
<!DOCTYPE svg PUBLIC "-//W3C//DTD SVG 20010904//EN"
 "http://www.w3.org/TR/2001/REC-SVG-20010904/DTD/svg10.dtd">
<svg version="1.0" xmlns="http://www.w3.org/2000/svg"
 width="101.000000pt" height="101.000000pt" viewBox="0 0 101.000000 101.000000"
 preserveAspectRatio="xMidYMid meet">
<metadata>
Created by potrace 1.16, written by Peter Selinger 2001-2019
</metadata>
<g transform="translate(0.000000,101.000000) scale(0.100000,-0.100000)"
fill="#000000" stroke="none">
<path d="M206 934 c-31 -67 -100 -166 -150 -213 -38 -37 -44 -51 -23 -51 6 0
23 -9 37 -20 14 -11 28 -20 32 -20 4 0 32 32 63 72 41 52 63 72 81 73 13 0 24
-4 25 -10 0 -5 3 -19 5 -30 3 -11 5 -27 5 -35 1 -24 21 -70 30 -70 5 0 9 5 9
10 0 6 10 10 23 9 64 -6 63 -14 11 116 -3 6 23 10 66 10 38 0 70 -2 70 -5 0
-4 -13 -19 -30 -35 -16 -16 -30 -32 -30 -35 0 -4 18 -15 40 -25 46 -21 44 -30
-5 -39 -39 -8 -40 -10 -20 -46 28 -49 25 -50 -126 -45 -77 3 -144 7 -147 9 -4
2 -17 0 -29 -5 -18 -6 -23 -16 -23 -41 0 -18 4 -38 8 -45 8 -13 159 -16 167
-3 7 12 173 12 180 1 7 -13 87 -12 102 1 13 10 219 4 267 -8 29 -7 41 19 31
66 -8 34 -4 34 -79 18 -48 -9 -60 -9 -68 3 -7 11 -11 11 -15 2 -6 -15 -73 -18
-73 -3 0 6 -19 10 -42 10 -38 0 -43 3 -44 24 -1 14 -9 38 -17 54 -14 29 -13
32 22 84 27 39 42 53 61 54 14 0 32 3 40 5 10 3 17 -8 23 -36 27 -124 36 -135
93 -108 38 19 38 19 6 98 l-20 50 90 1 c95 1 108 7 108 51 0 29 -28 56 -49 47
-9 -3 -37 -6 -63 -5 -28 1 -48 -2 -48 -9 0 -5 -16 -10 -35 -10 -19 0 -35 5
-35 10 0 6 -18 10 -40 10 -22 0 -40 3 -40 8 0 4 14 24 31 45 l30 37 -24 9
c-14 5 -40 13 -59 16 -34 6 -35 5 -47 -37 -12 -38 -67 -158 -74 -158 -1 0 -3
14 -3 31 -1 35 -20 52 -49 44 -30 -8 -185 -11 -185 -4 0 4 18 25 40 48 23 23
38 46 35 51 -6 10 -70 30 -97 30 -10 0 -26 -20 -42 -56z"/>
<path d="M293 419 c-18 -5 -33 -12 -33 -15 0 -2 8 -21 19 -42 10 -20 24 -55
31 -77 7 -22 15 -43 19 -47 3 -4 26 -1 51 6 53 16 53 19 8 119 -33 70 -37 73
-95 56z"/>
<path d="M609 393 c-6 -21 -27 -68 -45 -105 l-34 -67 -87 -1 c-49 0 -133 -1
-188 -1 -55 -1 -121 2 -146 5 -53 7 -59 -1 -51 -66 l4 -37 42 5 c22 4 84 6
136 6 52 -1 124 -1 160 -1 98 0 250 -2 392 -4 l126 -2 5 35 c6 54 -2 72 -27
63 -17 -7 -158 -8 -243 -2 l-22 1 20 40 c11 21 35 56 54 77 19 21 35 43 35 49
0 12 -72 42 -99 42 -14 0 -23 -12 -32 -37z"/>
</g>
</svg>
