<?xml version="1.0" standalone="no"?>
<!DOCTYPE svg PUBLIC "-//W3C//DTD SVG 20010904//EN"
 "http://www.w3.org/TR/2001/REC-SVG-20010904/DTD/svg10.dtd">
<svg version="1.0" xmlns="http://www.w3.org/2000/svg"
 width="101.000000pt" height="102.000000pt" viewBox="0 0 101.000000 102.000000"
 preserveAspectRatio="xMidYMid meet">
<metadata>
Created by potrace 1.16, written by Peter Selinger 2001-2019
</metadata>
<g transform="translate(0.000000,102.000000) scale(0.100000,-0.100000)"
fill="#000000" stroke="none">
<path d="M207 991 c-11 -53 -70 -163 -116 -213 -24 -27 -42 -50 -40 -52 2 -1
23 -12 47 -24 l43 -22 47 74 c57 91 77 95 102 21 9 -28 24 -52 36 -56 10 -4
13 -8 6 -8 -12 -1 -12 -77 1 -98 4 -6 -3 -8 -18 -5 -14 2 -31 -1 -39 -7 -9 -7
-33 -9 -69 -5 -30 4 -67 4 -81 0 -23 -6 -25 -10 -22 -47 4 -44 21 -63 46 -52
8 3 33 5 55 4 22 -1 63 3 90 8 28 5 53 7 56 3 14 -15 18 -59 6 -60 -6 -1 -32
-4 -57 -7 -25 -2 -65 -7 -90 -10 -25 -3 -67 -7 -93 -9 -27 -3 -50 -6 -52 -8
-7 -7 -8 -35 -1 -61 8 -26 11 -27 55 -22 25 3 57 8 71 10 40 7 81 13 145 19
l61 7 32 -46 c18 -25 33 -51 35 -57 3 -14 -79 -38 -178 -52 -11 -2 -39 -9 -63
-16 -31 -10 -48 -10 -66 -2 -13 6 -33 8 -44 5 -20 -5 -20 -6 4 -51 25 -46 55
-68 76 -55 6 3 23 8 37 10 14 2 35 6 46 8 34 7 153 43 208 63 l53 20 54 -34
c55 -34 138 -70 185 -78 14 -3 33 -7 44 -11 38 -12 87 50 106 134 5 23 3 31
-8 31 -8 0 -30 11 -50 24 l-36 25 -8 -32 c-4 -18 -8 -38 -8 -45 0 -20 -27 -32
-46 -22 -9 5 -19 7 -22 4 -3 -3 -29 7 -58 21 l-52 27 69 40 c38 22 81 45 97
50 15 6 27 14 27 19 0 5 -22 21 -49 37 l-49 28 41 3 c23 1 53 4 67 6 14 1 36
3 50 4 21 1 25 6 24 31 -3 64 -1 62 -41 54 -39 -7 -64 -10 -143 -19 -25 -2
-65 -7 -90 -10 -25 -3 -63 -7 -85 -9 -22 -2 -52 -7 -67 -11 -27 -7 -26 -9 -43
54 -4 15 -1 17 17 14 13 -2 50 1 83 7 72 13 138 20 185 19 19 0 49 3 67 6 30
5 32 8 30 48 -2 39 -4 42 -32 43 -16 1 -40 -4 -52 -12 -12 -8 -41 -13 -64 -12
-42 1 -42 2 -20 19 11 9 21 20 21 23 0 3 -21 21 -46 40 -48 37 -53 37 -98 1
-19 -15 -19 -16 14 -50 36 -37 36 -38 -22 -35 -21 1 -43 -2 -50 -6 -34 -21
-43 -14 -43 34 l0 46 -45 10 c-44 9 -44 9 -17 18 32 11 33 17 7 60 l-19 33 64
-2 c61 -2 65 0 71 22 15 60 3 65 -105 49 -27 -4 -52 -2 -66 6 -13 7 -31 10
-40 7 -13 -6 -14 -3 -4 16 6 12 19 30 27 40 18 20 11 30 -37 46 -50 16 -58 14
-64 -18z m507 -593 c-4 -5 -38 -30 -77 -56 l-70 -45 -34 36 c-39 43 -41 55
-10 55 28 0 119 11 123 15 9 9 73 4 68 -5z"/>
<path d="M566 963 c-25 -79 -50 -127 -91 -172 -19 -21 -35 -41 -35 -44 0 -4
79 -27 94 -27 2 0 19 24 38 53 30 47 37 52 68 52 32 -1 37 -5 65 -58 17 -31
35 -57 40 -57 6 0 27 8 48 18 l38 17 -26 35 -26 35 53 7 c29 4 63 5 75 3 25
-6 37 19 28 58 -8 29 -29 40 -57 31 -27 -8 -238 -10 -238 -2 0 3 11 20 25 36
40 48 32 58 -37 53 -16 -1 -28 3 -28 8 0 30 -18 5 -34 -46z"/>
</g>
</svg>
