<?xml version="1.0" standalone="no"?>
<!DOCTYPE svg PUBLIC "-//W3C//DTD SVG 20010904//EN"
 "http://www.w3.org/TR/2001/REC-SVG-20010904/DTD/svg10.dtd">
<svg version="1.0" xmlns="http://www.w3.org/2000/svg"
 width="101.000000pt" height="101.000000pt" viewBox="0 0 101.000000 101.000000"
 preserveAspectRatio="xMidYMid meet">
<metadata>
Created by potrace 1.16, written by Peter Selinger 2001-2019
</metadata>
<g transform="translate(0.000000,101.000000) scale(0.100000,-0.100000)"
fill="#000000" stroke="none">
<path d="M178 911 c-21 -45 -60 -103 -89 -135 -44 -48 -48 -57 -32 -62 10 -4
37 -15 61 -26 l42 -20 0 -74 c0 -43 -4 -74 -10 -74 -6 0 -10 -30 -10 -70 0
-40 4 -70 10 -70 6 0 10 -20 10 -45 0 -25 -5 -45 -10 -45 -7 0 -10 -33 -8 -89
l3 -89 35 5 c19 3 78 5 130 5 52 -1 124 -1 160 -1 173 0 272 -2 352 -5 l86 -3
5 31 c8 59 -19 90 -61 67 -16 -9 -115 -13 -302 -12 -36 0 -110 0 -165 0 -55 0
-110 1 -121 2 -20 1 -22 9 -28 100 -5 67 -3 105 5 120 6 13 10 52 7 95 l-3 74
142 0 c89 0 143 4 143 10 0 6 20 10 45 10 27 0 45 -5 45 -11 0 -8 37 -10 128
-8 137 4 140 6 141 61 1 36 -27 52 -66 37 -19 -7 -73 -8 -160 -4 -73 4 -133 8
-133 10 0 2 17 29 39 61 32 48 43 57 70 58 25 1 33 -4 41 -28 5 -16 10 -38 10
-50 0 -42 12 -48 63 -34 26 7 47 16 47 20 0 5 -9 26 -20 48 -11 22 -20 41 -20
42 0 2 40 3 89 3 l90 0 6 31 c10 57 4 61 -86 50 -57 -6 -86 -6 -102 2 -12 7
-41 11 -64 9 l-42 -3 26 28 26 27 -25 10 c-14 5 -35 7 -47 4 -12 -3 -21 -1
-21 6 0 28 -18 5 -49 -64 -35 -78 -51 -101 -44 -61 9 46 -54 71 -119 48 -13
-5 -48 -6 -78 -3 l-55 6 28 21 c15 12 27 26 27 31 0 10 -66 33 -91 33 -8 0
-31 -36 -51 -79z m119 -147 c35 -76 34 -78 -47 -74 -19 1 -50 2 -67 3 -18 1
-32 4 -30 7 1 3 17 31 36 62 29 47 39 56 60 54 20 -3 31 -14 48 -52z m195 29
c-11 -16 -30 -37 -41 -47 l-22 -20 43 -16 c24 -8 43 -20 43 -25 0 -6 -34 -11
-76 -13 -60 -2 -79 1 -89 13 -7 9 -9 15 -4 14 17 -4 64 13 64 24 0 6 -11 29
-24 51 l-24 41 75 3 74 2 -19 -27z"/>
<path d="M340 541 c-7 -14 -10 -67 -8 -146 l3 -125 33 -6 c18 -4 45 -3 60 1
23 7 55 8 130 6 9 -1 51 1 92 4 41 3 87 1 101 -4 l27 -9 7 113 c4 63 4 126 1
142 l-6 28 -198 2 c-108 1 -205 4 -214 8 -11 4 -20 0 -28 -14z m346 -133 l2
-57 -40 -6 c-29 -5 -43 -3 -50 6 -7 11 -11 11 -15 2 -6 -15 -73 -18 -73 -3 0
6 -16 10 -35 10 l-35 0 0 53 0 52 123 0 122 0 1 -57z"/>
</g>
</svg>
