<?xml version="1.0" standalone="no"?>
<!DOCTYPE svg PUBLIC "-//W3C//DTD SVG 20010904//EN"
 "http://www.w3.org/TR/2001/REC-SVG-20010904/DTD/svg10.dtd">
<svg version="1.0" xmlns="http://www.w3.org/2000/svg"
 width="101.000000pt" height="101.000000pt" viewBox="0 0 101.000000 101.000000"
 preserveAspectRatio="xMidYMid meet">
<metadata>
Created by potrace 1.16, written by Peter Selinger 2001-2019
</metadata>
<g transform="translate(0.000000,101.000000) scale(0.100000,-0.100000)"
fill="#000000" stroke="none">
<path d="M216 955 c-30 -66 -68 -123 -129 -191 l-45 -50 44 -24 c26 -13 48
-19 53 -14 5 5 28 36 52 69 24 33 50 61 57 63 12 2 30 -52 23 -72 -12 -44 36
-76 83 -54 30 13 30 13 11 67 l-14 41 28 0 c16 0 48 3 72 6 l44 6 0 44 c0 39
-2 43 -20 36 -18 -6 -43 -6 -157 0 -21 1 -38 4 -38 7 0 3 14 19 31 37 17 18
28 37 24 43 -6 11 -70 41 -86 41 -5 0 -20 -25 -33 -55z"/>
<path d="M600 999 c0 -28 -92 -201 -134 -253 l-44 -54 44 -17 c24 -9 48 -14
53 -11 5 4 28 34 51 68 36 54 44 61 75 62 21 1 36 -4 36 -11 1 -7 3 -17 4 -23
1 -5 3 -21 4 -35 1 -29 37 -69 52 -59 6 3 21 7 35 9 14 1 27 5 30 7 2 3 -4 29
-16 57 -11 28 -20 53 -20 55 0 1 27 0 60 -2 80 -6 106 2 114 34 15 57 9 59
-144 59 -77 0 -140 3 -140 6 0 3 14 18 30 34 17 16 30 33 30 37 0 10 -49 32
-93 43 -19 5 -27 3 -27 -6z"/>
<path d="M446 606 c-3 -17 -5 -71 -5 -121 0 -115 -7 -169 -31 -215 -21 -41
-77 -95 -109 -105 -27 -8 -27 -21 2 -36 12 -6 33 -21 46 -33 l23 -21 50 55
c54 59 97 139 104 195 2 19 5 77 7 129 l2 93 65 7 c112 10 120 9 112 -16 -3
-13 -5 -55 -4 -95 1 -40 -2 -83 -8 -97 -6 -18 -6 -34 2 -51 8 -19 8 -34 -1
-62 -17 -52 -2 -90 44 -109 27 -11 40 -12 56 -3 12 6 33 9 47 6 56 -11 92 25
107 105 7 35 5 37 -35 58 -23 12 -43 20 -45 18 -1 -2 -8 -23 -16 -47 -12 -36
-19 -45 -41 -47 -22 -2 -28 2 -32 24 -5 29 -1 96 9 152 6 36 15 134 18 205 2
39 1 40 -28 37 -111 -12 -157 -13 -168 -4 -7 6 -47 10 -89 10 l-78 0 -4 -32z"/>
<path d="M75 582 l0 -49 61 1 62 1 7 -113 c4 -62 5 -115 3 -117 -2 -2 -17 -6
-33 -9 -17 -3 -41 -8 -55 -11 -14 -3 -38 -8 -55 -11 -16 -3 -31 -6 -32 -8 -2
-2 2 -26 9 -55 8 -38 15 -50 26 -46 19 7 212 56 237 60 53 8 85 19 86 29 1 6
2 26 4 44 l3 34 -44 -6 c-24 -3 -48 -7 -53 -10 -4 -3 -8 45 -7 108 l1 113 57
-4 c50 -3 57 -2 63 17 4 11 4 33 0 48 l-6 27 -167 3 -167 3 0 -49z"/>
<path d="M588 493 c-23 -6 -25 -22 -12 -98 3 -16 6 -47 7 -67 1 -40 15 -49 61
-41 29 6 32 14 14 43 -10 15 -10 27 -1 50 9 25 4 75 -11 106 -3 6 -45 11 -58
7z"/>
</g>
</svg>
