<?xml version="1.0" standalone="no"?>
<!DOCTYPE svg PUBLIC "-//W3C//DTD SVG 20010904//EN"
 "http://www.w3.org/TR/2001/REC-SVG-20010904/DTD/svg10.dtd">
<svg version="1.0" xmlns="http://www.w3.org/2000/svg"
 width="101.000000pt" height="101.000000pt" viewBox="0 0 101.000000 101.000000"
 preserveAspectRatio="xMidYMid meet">
<metadata>
Created by potrace 1.16, written by Peter Selinger 2001-2019
</metadata>
<g transform="translate(0.000000,101.000000) scale(0.100000,-0.100000)"
fill="#000000" stroke="none">
<path d="M601 973 c-15 -41 -76 -139 -94 -150 -6 -3 -7 -1 -3 6 12 19 -4 73
-20 67 -26 -10 -194 -19 -194 -10 0 4 14 23 32 41 l31 32 -44 21 c-24 11 -48
20 -54 20 -5 0 -26 -30 -45 -67 -20 -39 -60 -93 -94 -127 -34 -34 -55 -61 -48
-64 7 -2 26 -15 42 -28 l28 -24 46 59 c30 38 54 60 72 64 24 4 29 -1 51 -50
22 -48 28 -53 51 -49 66 11 75 24 42 66 -30 38 -32 37 69 28 10 -1 7 -7 -8
-20 l-23 -18 27 -10 c14 -5 32 -10 38 -11 7 0 2 -4 -10 -9 -20 -8 -22 -15 -18
-67 2 -32 5 -73 7 -90 5 -36 6 -36 -77 -33 -90 2 -124 -25 -96 -79 8 -13 19
-17 48 -14 21 2 53 3 71 3 19 0 41 4 50 9 14 8 20 -1 40 -52 36 -96 36 -92
-22 -110 -51 -17 -85 -23 -155 -32 -18 -2 -37 -7 -41 -12 -5 -4 9 -27 29 -51
l38 -44 111 44 111 44 65 -62 c46 -44 82 -69 122 -84 57 -21 58 -21 83 -2 45
33 100 152 71 152 -7 0 -28 11 -47 26 -34 26 -56 24 -51 -4 1 -10 -1 -29 -5
-43 -6 -25 -15 -28 -59 -20 -11 2 -88 72 -88 80 0 11 127 90 156 97 31 8 27
20 -19 57 l-36 30 -68 -57 c-37 -31 -71 -56 -75 -56 -9 0 -25 30 -42 78 l-13
37 51 1 c28 0 62 2 76 3 14 1 64 5 112 8 80 5 87 7 86 27 0 55 -7 65 -39 61
-17 -3 -37 -9 -45 -16 -9 -7 -46 -9 -119 -4 -68 5 -110 4 -118 -3 -9 -8 -12 3
-10 51 1 34 5 72 9 85 3 12 2 22 -2 22 -5 0 -15 4 -23 9 -11 7 -8 17 17 49 28
34 36 39 69 37 33 -2 42 -8 66 -46 32 -51 35 -69 7 -44 -19 17 -21 17 -55 -9
l-35 -27 42 -52 c24 -29 44 -54 45 -56 4 -7 62 21 74 35 9 11 6 21 -14 47
l-25 32 45 20 45 20 -30 41 -29 40 78 -2 c75 -1 78 0 84 23 14 56 -18 83 -68
58 -34 -17 -93 -20 -102 -5 -3 6 -28 9 -56 7 -27 -1 -49 0 -49 2 0 3 14 20 32
38 l31 32 -44 21 c-62 28 -73 26 -88 -17z"/>
<path d="M239 673 c-18 -32 -73 -99 -124 -149 l-91 -91 32 -35 32 -35 41 41
41 41 0 -58 c0 -31 4 -57 10 -57 6 0 10 -16 10 -35 0 -19 -4 -35 -10 -35 -5 0
-8 -36 -7 -84 2 -93 5 -97 64 -89 l31 5 7 131 c5 94 4 132 -4 135 -14 5 -15
152 -1 152 6 0 10 15 10 34 0 28 8 42 45 74 l46 40 -43 36 c-23 20 -45 36 -49
36 -4 0 -22 -26 -40 -57z"/>
</g>
</svg>
