<?xml version="1.0" standalone="no"?>
<!DOCTYPE svg PUBLIC "-//W3C//DTD SVG 20010904//EN"
 "http://www.w3.org/TR/2001/REC-SVG-20010904/DTD/svg10.dtd">
<svg version="1.0" xmlns="http://www.w3.org/2000/svg"
 width="101.000000pt" height="101.000000pt" viewBox="0 0 101.000000 101.000000"
 preserveAspectRatio="xMidYMid meet">
<metadata>
Created by potrace 1.16, written by Peter Selinger 2001-2019
</metadata>
<g transform="translate(0.000000,101.000000) scale(0.100000,-0.100000)"
fill="#000000" stroke="none">
<path d="M228 948 c-18 -35 -63 -95 -100 -134 l-67 -71 37 -19 c20 -10 40 -20
43 -22 4 -1 30 25 59 60 34 41 60 62 74 62 11 0 21 -4 21 -9 1 -6 5 -21 9 -33
6 -19 13 -23 34 -19 48 9 -78 -98 -164 -139 l-76 -36 36 -37 c33 -33 38 -35
58 -22 19 12 23 11 35 -5 15 -21 60 -23 180 -9 l62 7 -2 -28 c-2 -36 -19 -42
-119 -43 -52 -1 -78 3 -82 12 -5 10 -7 10 -12 0 -7 -15 -74 -18 -74 -3 0 6
-27 10 -60 10 -55 0 -60 -2 -66 -24 -12 -49 9 -75 56 -66 8 1 42 4 75 6 33 2
96 7 140 9 44 3 94 3 111 0 26 -4 30 -9 31 -40 1 -29 -3 -35 -26 -39 -27 -5
-98 -2 -166 8 -87 13 -101 11 -108 -13 -2 -10 -2 -31 0 -45 5 -23 8 -25 47
-20 78 10 191 15 222 9 26 -4 31 -10 31 -34 0 -23 -6 -31 -24 -36 -13 -3 -31
-2 -40 3 -9 5 -23 7 -32 5 -16 -4 -16 -8 -2 -53 19 -57 32 -63 104 -44 74 19
96 53 89 138 -2 13 2 16 14 12 8 -3 24 -1 34 4 11 6 43 7 74 4 51 -6 55 -8 50
-29 -7 -26 12 -34 69 -27 37 4 45 16 38 62 -1 8 -4 38 -6 66 -3 57 -9 53 77
56 30 1 37 6 41 26 10 52 0 62 -62 59 l-56 -2 0 67 c0 63 -2 68 -22 68 -12 0
-25 -4 -28 -10 -8 -13 -95 -13 -95 -1 0 5 -12 11 -27 13 l-27 3 48 55 49 54
-29 8 c-16 5 -51 8 -79 7 -80 -2 -80 -2 -37 49 38 45 44 48 84 46 42 -2 43 -2
63 -58 11 -31 26 -58 33 -61 13 -5 72 20 72 31 0 2 -9 22 -20 44 -11 22 -20
41 -20 42 0 2 32 2 72 1 48 -1 75 2 80 10 10 15 10 64 1 70 -5 3 -50 0 -101
-5 -72 -9 -98 -8 -117 2 -13 7 -32 10 -42 6 -11 -4 -4 7 16 28 19 20 33 37 30
40 -13 12 -71 36 -86 36 -12 0 -28 -19 -46 -53 -15 -30 -41 -69 -58 -88 -17
-19 -27 -28 -24 -21 4 7 4 23 1 36 -5 22 -9 23 -115 22 l-110 -1 29 30 c17 17
30 34 30 38 0 10 -57 37 -79 37 -14 0 -29 -18 -53 -62z m266 -128 c5 0 1 -9
-10 -21 -18 -20 -18 -21 6 -40 14 -10 28 -19 33 -19 4 0 7 -3 7 -7 0 -5 -20
-8 -45 -8 -35 0 -41 2 -25 9 30 13 25 22 -22 41 -38 15 -57 30 -58 45 0 4 36
5 114 0z m44 -205 c-38 -35 -89 -47 -103 -25 -4 6 -32 9 -66 8 -32 -2 -59 0
-59 3 0 4 11 16 25 26 21 14 48 19 133 20 l107 3 -37 -35z m194 -125 l4 -29
-85 2 c-84 2 -86 3 -87 27 -1 25 1 25 82 27 l82 1 4 -28z m-16 -100 c16 0 20
-7 21 -34 1 -33 1 -34 -53 -40 -31 -4 -63 -2 -74 4 -10 5 -25 7 -33 4 -12 -4
-15 3 -14 30 1 28 5 35 16 31 9 -2 23 0 31 6 8 5 31 7 50 4 19 -2 44 -5 56 -5z"/>
</g>
</svg>
