<?xml version="1.0" standalone="no"?>
<!DOCTYPE svg PUBLIC "-//W3C//DTD SVG 20010904//EN"
 "http://www.w3.org/TR/2001/REC-SVG-20010904/DTD/svg10.dtd">
<svg version="1.0" xmlns="http://www.w3.org/2000/svg"
 width="101.000000pt" height="102.000000pt" viewBox="0 0 101.000000 102.000000"
 preserveAspectRatio="xMidYMid meet">
<metadata>
Created by potrace 1.16, written by Peter Selinger 2001-2019
</metadata>
<g transform="translate(0.000000,102.000000) scale(0.100000,-0.100000)"
fill="#000000" stroke="none">
<path d="M591 962 c-24 -68 -91 -175 -118 -190 -24 -14 -9 -28 38 -37 36 -7
38 -5 78 48 34 45 46 54 71 53 31 -1 38 -15 48 -92 2 -13 71 -17 90 -5 10 6 9
17 -3 50 -8 24 -15 44 -15 45 0 0 38 0 85 -1 81 -1 85 0 91 22 15 62 4 66
-139 50 -49 -5 -75 -4 -92 5 -13 7 -31 10 -39 7 -24 -9 -19 6 9 33 14 13 25
27 25 31 0 6 -90 39 -105 39 -1 0 -12 -26 -24 -58z"/>
<path d="M199 958 c-14 -30 -56 -86 -97 -130 l-74 -77 42 -21 c41 -21 43 -21
62 -3 12 10 37 38 57 63 30 37 42 45 69 45 31 0 34 -3 45 -43 14 -53 34 -66
75 -49 26 11 28 15 20 37 -20 53 -19 56 22 54 21 -1 42 -4 48 -8 28 -17 60 32
47 73 -4 15 -20 17 -120 17 l-114 -1 26 28 c30 30 26 38 -26 56 -52 17 -56 15
-82 -41z"/>
<path d="M233 724 c-18 -8 -33 -16 -33 -18 0 -2 16 -30 35 -62 19 -32 35 -61
35 -66 0 -6 75 17 89 28 7 6 -73 134 -84 133 -5 0 -25 -7 -42 -15z"/>
<path d="M373 719 c-15 -15 -17 -58 -4 -77 5 -8 19 -14 32 -14 13 0 103 2 199
4 l175 3 -1 -216 c0 -118 -4 -221 -8 -228 -5 -8 -17 -10 -30 -6 -38 12 -77 12
-73 1 1 -6 9 -32 16 -58 l13 -47 42 4 c24 3 60 10 82 17 64 21 66 34 68 340
l1 269 -197 4 c-108 2 -221 6 -250 10 -37 5 -57 3 -65 -6z"/>
<path d="M120 554 c0 -43 4 -74 10 -74 6 0 10 -16 10 -35 0 -19 -4 -35 -10
-35 -5 0 -10 -18 -10 -40 0 -22 5 -40 10 -40 15 0 12 -67 -2 -73 -10 -4 -9 -8
2 -16 13 -9 13 -17 -1 -70 -8 -33 -13 -65 -9 -70 6 -11 29 -15 71 -13 l26 2
-4 91 c-2 61 0 96 8 105 9 11 9 18 1 26 -14 14 -16 74 -2 83 13 8 11 213 -3
222 -6 4 -31 8 -54 9 l-43 3 0 -75z"/>
<path d="M312 518 c0 -35 4 -68 9 -74 10 -12 6 -169 -5 -201 -7 -20 -5 -21 31
-17 88 12 188 14 256 5 47 -5 74 -5 79 2 3 5 0 28 -8 49 -13 39 -13 126 1 208
13 73 6 105 -17 82 -16 -16 -135 -16 -142 1 -5 10 -7 10 -12 0 -7 -15 -74 -18
-74 -3 0 6 -26 10 -59 10 l-59 0 0 -62z m249 -18 c22 0 25 -5 26 -34 l1 -33
-60 -7 c-33 -3 -68 -2 -78 4 -10 5 -25 7 -33 4 -12 -4 -15 3 -14 30 1 28 5 35
16 31 9 -2 23 0 31 6 8 5 31 7 50 4 19 -2 46 -5 61 -5z m5 -130 c16 0 20 -7
21 -34 1 -33 1 -34 -53 -40 -31 -4 -63 -2 -74 4 -10 5 -25 7 -33 4 -12 -4 -15
3 -14 30 1 28 5 35 16 31 9 -2 23 0 31 6 8 5 31 7 50 4 19 -2 44 -5 56 -5z"/>
</g>
</svg>
