<?xml version="1.0" standalone="no"?>
<!DOCTYPE svg PUBLIC "-//W3C//DTD SVG 20010904//EN"
 "http://www.w3.org/TR/2001/REC-SVG-20010904/DTD/svg10.dtd">
<svg version="1.0" xmlns="http://www.w3.org/2000/svg"
 width="101.000000pt" height="102.000000pt" viewBox="0 0 101.000000 102.000000"
 preserveAspectRatio="xMidYMid meet">
<metadata>
Created by potrace 1.16, written by Peter Selinger 2001-2019
</metadata>
<g transform="translate(0.000000,102.000000) scale(0.100000,-0.100000)"
fill="#000000" stroke="none">
<path d="M225 998 c-12 -38 -93 -154 -131 -188 -20 -17 -35 -33 -33 -35 2 -2
20 -10 39 -18 25 -11 29 -16 15 -16 -29 -2 -43 -13 -50 -42 -10 -39 16 -59 75
-59 27 0 52 5 55 10 8 12 52 13 59 1 8 -12 114 -13 121 -1 7 12 65 13 80 2 6
-4 10 -14 11 -22 1 -13 -22 -15 -147 -15 -146 0 -148 0 -154 -23 -3 -12 -3
-27 0 -32 10 -16 14 -151 5 -174 -11 -31 -1 -74 19 -79 9 -2 26 1 39 7 19 8
27 4 60 -34 20 -24 36 -46 34 -50 -5 -9 -71 -29 -114 -34 -22 -3 -46 -10 -54
-17 -11 -9 -21 -9 -38 -1 -23 10 -66 6 -66 -7 0 -3 9 -17 20 -31 11 -14 20
-30 20 -37 0 -6 4 -14 10 -18 11 -7 191 38 261 65 48 19 53 19 97 4 50 -16 76
-21 157 -30 57 -5 57 -5 143 1 37 2 78 -1 100 -9 43 -15 62 -11 62 12 0 10 9
32 20 50 l20 32 -168 -1 c-92 -1 -183 1 -202 5 -19 4 -46 8 -60 10 -14 2 -29
4 -33 5 -5 0 0 13 11 29 10 15 21 34 24 42 5 16 13 18 125 25 48 3 84 0 112
-10 23 -8 47 -12 54 -9 18 7 21 305 4 316 -16 10 -72 10 -81 1 -4 -5 -49 -8
-100 -8 -77 0 -92 2 -89 15 4 15 48 18 295 22 66 1 79 4 84 20 14 44 -2 55
-89 63 -62 5 -76 9 -59 16 27 10 27 17 2 49 -11 14 -20 27 -20 30 0 3 38 4 84
2 83 -2 84 -2 90 24 15 56 9 59 -139 59 -74 0 -135 3 -135 6 0 3 9 14 20 24
11 10 20 24 20 30 0 12 -78 50 -86 43 -2 -2 -22 -41 -44 -86 -41 -81 -66 -99
-58 -40 4 28 3 29 -21 21 -35 -10 -221 -5 -221 7 0 4 11 17 25 30 31 30 31 38
0 50 -61 23 -73 23 -80 -2z m88 -214 l25 -51 -86 4 c-47 2 -87 4 -88 6 -1 1
12 22 30 47 26 37 38 45 63 45 28 0 34 -6 56 -51z m200 46 c6 0 -1 -13 -16
-28 l-28 -29 38 -12 c21 -7 43 -14 50 -17 6 -3 23 17 37 43 22 41 31 48 54 47
20 0 34 -11 54 -44 16 -24 28 -48 28 -53 0 -6 -21 -7 -49 -3 -28 4 -52 2 -55
-3 -8 -12 -153 -13 -161 -1 -3 6 -25 10 -48 11 -35 0 -38 2 -19 9 26 11 27 18
7 44 -8 11 -15 23 -15 27 0 8 76 18 98 12 8 -2 19 -3 25 -3z m-46 -309 c-2
-25 -31 -32 -107 -26 -30 3 -65 5 -76 6 -15 1 -20 6 -17 18 3 13 22 17 103 19
94 3 99 2 97 -17z m279 -1 c0 -23 -29 -30 -101 -24 -27 2 -60 4 -72 5 -13 1
-23 7 -23 15 0 13 9 14 160 22 30 2 36 -1 36 -18z m-281 -92 c3 -3 3 -12 -1
-21 -7 -20 -44 -27 -109 -21 -27 2 -59 4 -70 5 -13 1 -21 9 -22 21 -1 14 3 17
15 14 9 -3 24 -1 32 4 15 10 145 8 155 -2z m277 3 c4 -1 6 -10 5 -21 -1 -23
-31 -30 -102 -24 -27 2 -59 4 -70 5 -13 1 -21 9 -22 21 -1 14 3 17 15 14 9 -3
24 -1 32 4 12 7 94 8 142 1z m-302 -120 c0 -4 -8 -15 -18 -24 -17 -16 -20 -16
-40 6 l-22 23 40 1 c22 1 40 -2 40 -6z"/>
</g>
</svg>
