<?xml version="1.0" standalone="no"?>
<!DOCTYPE svg PUBLIC "-//W3C//DTD SVG 20010904//EN"
 "http://www.w3.org/TR/2001/REC-SVG-20010904/DTD/svg10.dtd">
<svg version="1.0" xmlns="http://www.w3.org/2000/svg"
 width="101.000000pt" height="101.000000pt" viewBox="0 0 101.000000 101.000000"
 preserveAspectRatio="xMidYMid meet">
<metadata>
Created by potrace 1.16, written by Peter Selinger 2001-2019
</metadata>
<g transform="translate(0.000000,101.000000) scale(0.100000,-0.100000)"
fill="#000000" stroke="none">
<path d="M202 948 c-31 -63 -77 -119 -141 -171 -18 -15 -32 -29 -30 -30 22
-13 88 -47 92 -47 3 0 27 26 53 57 39 49 51 58 79 58 28 0 34 -4 38 -25 3 -14
8 -34 10 -45 3 -11 6 -23 6 -28 1 -8 88 -3 97 6 3 3 -4 23 -15 46 -12 22 -21
42 -21 43 0 2 29 4 65 5 36 1 65 -2 65 -6 0 -5 -16 -19 -35 -32 -34 -24 -44
-39 -25 -39 16 0 22 -2 60 -18 l35 -14 41 47 c34 40 47 48 77 49 40 1 54 -18
61 -80 2 -16 4 -32 5 -37 1 -10 64 -1 90 12 l21 12 -24 47 -24 47 82 0 c45 -1
84 4 88 10 25 35 -7 104 -40 86 -28 -15 -152 -25 -152 -12 0 6 -17 11 -40 11
-47 0 -49 8 -15 40 14 13 25 26 25 30 0 10 -42 28 -82 35 -34 7 -35 6 -57 -51
-12 -31 -35 -75 -51 -98 -30 -40 -30 -40 -25 -11 9 51 -2 56 -118 58 l-106 2
30 30 c16 17 29 34 29 38 0 5 -93 37 -110 37 -4 0 -21 -28 -38 -62z"/>
<path d="M175 694 c-15 -19 -25 -36 -24 -38 2 -1 20 -13 39 -26 19 -13 50 -37
69 -53 l33 -28 25 23 c48 45 47 51 -15 95 -97 68 -96 68 -127 27z"/>
<path d="M557 724 c-3 -3 -3 -12 0 -20 3 -8 -2 -23 -11 -33 -9 -10 -16 -25
-14 -32 2 -10 -11 -13 -57 -11 -33 1 -67 -2 -75 -7 -13 -9 -15 -50 -15 -270 0
-286 -3 -273 63 -263 32 4 38 15 34 63 -1 11 7 17 21 18 12 1 49 3 82 6 33 3
93 3 132 -1 l73 -6 -6 -37 c-7 -43 6 -52 63 -44 30 5 31 5 37 83 5 53 3 86 -4
101 -7 13 -9 35 -5 58 4 20 8 91 9 159 1 99 -2 125 -14 132 -8 6 -68 9 -132 8
-114 -3 -118 -2 -112 17 4 11 13 27 20 36 8 8 14 20 14 26 0 16 -89 31 -103
17z m113 -185 c0 -8 18 -10 58 -6 l57 6 -1 -52 0 -52 -35 2 c-19 2 -42 3 -51
2 -27 0 -107 1 -163 4 l-50 2 4 43 3 42 54 0 c30 0 54 5 54 10 0 6 16 10 35
10 20 0 35 -5 35 -11z m106 -177 c5 -4 11 -16 12 -27 8 -87 12 -79 -47 -87
-30 -5 -91 -6 -135 -3 -138 8 -131 6 -128 40 1 17 3 39 3 50 1 18 8 20 55 18
30 -1 56 2 59 7 6 10 166 12 181 2z"/>
<path d="M82 550 c-12 -16 -22 -33 -22 -37 0 -4 35 -29 78 -54 l77 -47 27 32
c15 17 27 36 28 43 0 10 -139 93 -158 93 -4 0 -18 -13 -30 -30z"/>
<path d="M275 430 c-9 -27 -109 -167 -153 -213 l-36 -37 43 -43 c50 -49 31
-64 151 120 l79 122 -33 35 c-38 42 -42 43 -51 16z"/>
</g>
</svg>
