<?xml version="1.0" standalone="no"?>
<!DOCTYPE svg PUBLIC "-//W3C//DTD SVG 20010904//EN"
 "http://www.w3.org/TR/2001/REC-SVG-20010904/DTD/svg10.dtd">
<svg version="1.0" xmlns="http://www.w3.org/2000/svg"
 width="101.000000pt" height="102.000000pt" viewBox="0 0 101.000000 102.000000"
 preserveAspectRatio="xMidYMid meet">
<metadata>
Created by potrace 1.16, written by Peter Selinger 2001-2019
</metadata>
<g transform="translate(0.000000,102.000000) scale(0.100000,-0.100000)"
fill="#000000" stroke="none">
<path d="M193 962 c-17 -31 -58 -86 -91 -122 l-60 -66 34 -22 c19 -12 37 -22
42 -22 5 0 32 29 60 64 44 53 56 63 82 62 16 -1 31 -3 31 -6 1 -3 3 -14 4 -25
2 -11 8 -32 14 -47 l11 -28 -58 -1 c-31 -1 -66 -2 -77 -3 -15 -1 -21 -9 -23
-31 -5 -62 4 -64 194 -52 91 6 92 6 96 -17 5 -24 3 -24 -101 -30 -151 -8 -162
-8 -175 3 -6 5 -39 9 -73 9 -57 0 -62 -2 -68 -25 -3 -14 -3 -33 0 -44 8 -24
22 -26 115 -13 89 12 146 14 226 8 79 -5 82 -7 80 -30 -1 -18 -8 -25 -31 -29
-29 -6 -133 -1 -207 8 -40 6 -50 -8 -41 -57 5 -25 8 -26 52 -20 166 20 228 15
230 -19 0 -12 3 -56 6 -98 3 -51 1 -89 -8 -115 -8 -22 -12 -55 -9 -76 4 -39
21 -49 65 -41 l26 5 -1 152 c0 194 0 194 26 195 11 0 57 3 100 6 47 3 94 1
114 -6 40 -13 49 -7 33 25 -10 17 -10 29 -2 44 6 11 8 28 4 38 -5 13 -3 16 10
11 10 -4 29 -1 42 5 19 9 28 9 37 0 32 -32 64 7 51 58 -4 16 -9 17 -30 7 -18
-8 -32 -8 -54 0 -17 7 -36 10 -42 7 -9 -3 -11 14 -10 61 2 58 0 65 -15 61 -9
-3 -73 -2 -141 2 l-123 7 39 49 c34 42 45 49 76 50 23 1 37 -4 38 -11 1 -7 2
-16 4 -20 18 -68 15 -65 59 -59 22 3 42 5 44 5 7 2 0 35 -12 59 l-14 27 84 0
c79 0 83 1 89 23 13 54 6 57 -139 57 l-135 0 20 21 c10 11 19 24 19 28 0 8
-63 36 -83 36 -8 0 -28 -28 -45 -63 -18 -35 -40 -71 -50 -81 -19 -16 -19 -16
-15 7 9 46 -42 70 -100 48 -13 -5 -48 -6 -78 -2 -50 6 -52 8 -31 19 29 17 28
29 -5 45 -66 33 -75 31 -110 -31z m260 -117 c9 -4 25 -4 34 -1 15 6 15 4 -2
-14 -14 -15 -15 -20 -4 -21 8 0 4 -5 -8 -11 -20 -10 -28 -26 -24 -50 0 -5 -21
-8 -49 -8 -53 0 -67 15 -25 26 29 7 30 10 11 56 l-15 35 32 -2 c18 -2 40 -6
50 -10z m270 -201 c3 -19 -2 -22 -55 -28 -33 -3 -68 -1 -78 4 -10 5 -25 8 -32
5 -8 -3 -13 3 -13 17 0 22 3 23 87 23 80 0 87 -2 91 -21z m-22 -94 c22 0 27
-4 25 -24 -1 -21 -7 -24 -59 -30 -33 -3 -67 -1 -77 4 -10 5 -25 8 -32 5 -8 -3
-14 4 -14 20 -2 20 2 24 15 21 9 -3 23 -1 31 5 8 5 31 7 50 4 19 -2 47 -5 61
-5z"/>
<path d="M167 389 c-3 -12 -1 -32 5 -45 8 -18 8 -30 0 -47 -6 -12 -16 -38 -22
-58 -6 -20 -27 -55 -46 -78 -20 -23 -35 -43 -33 -44 9 -6 80 -37 84 -37 20 0
111 202 99 221 -2 4 2 26 10 48 16 47 13 51 -48 56 -38 4 -45 2 -49 -16z"/>
<path d="M747 403 c-14 -4 -16 -12 -11 -51 9 -67 8 -181 0 -223 -9 -41 4 -50
63 -41 32 4 33 6 26 41 -14 61 -8 222 8 248 4 7 -1 14 -10 16 -42 12 -59 14
-76 10z"/>
<path d="M593 375 l-33 -14 25 -53 c14 -29 28 -68 31 -85 7 -36 15 -39 63 -22
28 10 32 15 26 37 -10 40 -63 152 -72 152 -4 -1 -23 -7 -40 -15z"/>
<path d="M335 365 c-2 -5 -9 -28 -15 -50 -7 -22 -23 -60 -36 -84 -13 -24 -23
-46 -20 -48 2 -2 21 -6 43 -9 l39 -4 41 95 c40 93 40 95 19 102 -32 11 -68 10
-71 -2z"/>
</g>
</svg>
