<?xml version="1.0" standalone="no"?>
<!DOCTYPE svg PUBLIC "-//W3C//DTD SVG 20010904//EN"
 "http://www.w3.org/TR/2001/REC-SVG-20010904/DTD/svg10.dtd">
<svg version="1.0" xmlns="http://www.w3.org/2000/svg"
 width="101.000000pt" height="102.000000pt" viewBox="0 0 101.000000 102.000000"
 preserveAspectRatio="xMidYMid meet">
<metadata>
Created by potrace 1.16, written by Peter Selinger 2001-2019
</metadata>
<g transform="translate(0.000000,102.000000) scale(0.100000,-0.100000)"
fill="#000000" stroke="none">
<path d="M199 959 c-19 -35 -57 -88 -86 -119 l-51 -56 41 -22 42 -23 45 49
c55 60 90 73 90 34 0 -37 13 -54 36 -47 18 6 18 6 1 -8 -13 -10 -16 -22 -12
-40 l7 -25 -84 5 c-46 2 -92 4 -102 4 -36 0 -48 -47 -19 -76 13 -13 27 -16 62
-11 25 3 67 7 93 9 l47 2 -5 -31 c-5 -35 12 -46 61 -37 23 5 25 9 20 34 -6 28
-5 29 33 29 22 0 42 5 44 11 2 7 27 8 75 4 l71 -7 -2 -39 c-2 -42 8 -49 61
-42 29 5 31 7 28 42 l-3 36 61 -3 c143 -8 157 -4 157 46 0 27 -40 49 -67 37
-10 -4 -45 -8 -78 -9 -60 -1 -61 -1 -57 25 3 21 -2 28 -26 38 -17 7 -39 10
-50 7 -20 -7 -38 -49 -28 -65 3 -5 -45 -8 -107 -7 -110 1 -113 2 -109 23 3 15
-2 23 -19 28 l-22 7 20 12 c19 10 20 14 9 41 l-13 30 51 -3 c28 -1 57 -3 64
-4 8 -1 5 -9 -8 -23 -11 -12 -20 -24 -20 -27 0 -11 83 -39 90 -31 4 4 19 26
33 48 25 36 30 39 72 40 l46 0 16 -52 c17 -55 29 -61 85 -41 l27 10 -19 39
c-11 21 -20 40 -20 42 0 6 97 0 108 -7 12 -7 42 20 42 39 0 35 -11 43 -51 38
-25 -4 -39 -2 -39 6 0 6 -17 11 -40 11 -22 0 -40 -4 -40 -10 0 -5 -25 -10 -55
-10 -30 0 -55 4 -55 9 0 5 11 22 24 38 l24 29 -42 15 c-24 8 -50 13 -60 10 -9
-4 -29 -33 -45 -66 -16 -33 -36 -69 -46 -80 -9 -11 -13 -14 -10 -7 4 7 4 24 1
36 -6 23 -9 23 -111 22 l-106 -1 36 33 36 33 -34 14 c-80 33 -82 33 -118 -36z"/>
<path d="M430 568 c-24 -69 -35 -71 -250 -54 -30 3 -69 7 -87 9 -35 4 -44 -11
-36 -56 6 -28 37 -41 64 -27 9 5 36 8 60 6 24 -2 53 1 65 6 14 7 36 7 60 1
l39 -9 -65 -46 c-75 -53 -147 -90 -208 -108 -23 -7 -42 -15 -42 -17 0 -7 70
-73 77 -73 5 0 39 18 77 40 37 22 69 40 71 40 8 0 9 -144 1 -176 -7 -26 11
-33 67 -26 38 4 38 5 33 42 -5 34 -3 38 17 39 12 1 45 3 72 6 28 2 100 1 162
-2 l111 -6 -3 -37 c-4 -43 6 -50 68 -42 31 3 37 7 31 21 -11 25 -15 211 -4
231 5 9 7 25 4 36 -5 17 -13 19 -87 16 -83 -3 -271 -4 -317 -1 -24 1 -23 2 14
32 22 18 49 33 60 35 80 10 184 11 261 1 50 -5 99 -10 110 -9 11 0 32 1 47 2
28 1 41 30 31 68 -4 16 -8 17 -23 8 -14 -9 -25 -9 -44 0 -19 8 -33 8 -58 -1
-28 -10 -193 -14 -286 -7 -24 2 -24 2 7 34 l31 32 -47 17 c-27 9 -53 17 -58
17 -6 0 -17 -19 -25 -42z m246 -267 c38 -1 40 -2 41 -35 l1 -33 -112 -6 c-61
-3 -133 -4 -161 -2 -27 3 -60 5 -71 6 -18 1 -22 7 -21 35 1 26 5 33 16 29 9
-2 23 0 31 5 8 5 65 8 125 6 61 -2 128 -5 151 -5z"/>
</g>
</svg>
