<?xml version="1.0" standalone="no"?>
<!DOCTYPE svg PUBLIC "-//W3C//DTD SVG 20010904//EN"
 "http://www.w3.org/TR/2001/REC-SVG-20010904/DTD/svg10.dtd">
<svg version="1.0" xmlns="http://www.w3.org/2000/svg"
 width="101.000000pt" height="102.000000pt" viewBox="0 0 101.000000 102.000000"
 preserveAspectRatio="xMidYMid meet">
<metadata>
Created by potrace 1.16, written by Peter Selinger 2001-2019
</metadata>
<g transform="translate(0.000000,102.000000) scale(0.100000,-0.100000)"
fill="#000000" stroke="none">
<path d="M591 958 c-18 -35 -42 -75 -54 -90 l-22 -27 -1 35 c-1 38 -20 58 -44
47 -8 -4 -52 -8 -97 -8 -85 0 -91 6 -40 43 9 7 17 17 17 22 0 9 -63 30 -90 30
-8 0 -37 -37 -65 -81 -27 -44 -71 -101 -98 -125 -26 -25 -47 -46 -47 -48 0 -2
19 -11 42 -22 l41 -18 53 59 c40 45 60 59 80 59 23 0 28 -5 31 -29 9 -62 28
-76 77 -53 25 11 29 38 12 67 -6 8 105 23 114 14 2 -2 -2 -8 -10 -13 -11 -7
-9 -11 13 -19 36 -14 34 -18 -7 -13 -42 5 -52 -10 -30 -43 9 -14 15 -28 13
-30 -3 -2 -61 0 -129 6 -69 5 -137 7 -152 3 -32 -6 -39 -32 -36 -129 4 -146
-36 -271 -113 -360 l-31 -35 33 -39 c19 -22 37 -40 40 -40 10 -2 88 143 107
199 17 48 20 52 29 35 15 -30 15 -158 -1 -203 -20 -56 -8 -68 64 -64 23 2 26
7 27 40 1 20 3 46 4 57 1 11 -1 32 -5 46 -7 24 -5 27 16 27 13 1 34 2 48 4 27
3 32 -11 32 -104 0 -49 14 -62 57 -51 16 4 19 14 20 56 0 87 1 95 25 95 11 1
32 2 46 4 19 2 25 -2 26 -17 0 -11 4 -33 9 -49 5 -19 4 -36 -4 -48 -14 -23
-12 -27 15 -29 56 -6 61 -1 62 48 1 85 3 95 18 89 8 -3 25 -1 38 6 14 6 36 8
50 4 23 -6 26 -10 21 -38 -8 -44 -13 -49 -43 -47 -62 5 -63 3 -39 -45 12 -24
30 -46 40 -49 22 -6 116 31 118 47 1 6 3 65 4 131 1 66 5 139 8 161 6 41 6 42
-26 47 -17 2 -51 -2 -75 -10 -26 -9 -55 -12 -75 -8 -18 4 -59 6 -92 5 -153 -3
-253 -1 -290 5 -22 4 -50 7 -63 7 -17 0 -22 4 -18 15 3 8 6 18 6 23 0 4 10 9
23 9 29 2 205 2 282 1 33 -1 74 1 92 5 20 4 49 1 75 -7 24 -8 60 -13 81 -10
l38 4 -7 59 c-5 41 -3 59 5 59 6 0 11 17 11 40 0 52 -23 65 -99 56 -83 -10
-181 -12 -181 -3 0 15 -2 22 -11 40 -7 12 -6 17 5 17 8 0 22 12 31 28 15 24
22 27 63 27 47 -1 47 -1 56 -43 l9 -42 44 4 c24 2 46 6 49 9 3 2 -2 22 -10 42
-9 21 -16 38 -16 39 0 1 15 0 33 -2 58 -8 120 -3 129 10 10 16 1 60 -15 70
-18 11 -107 10 -107 -2 0 -5 -16 -10 -35 -10 -19 0 -35 5 -35 10 0 6 -21 10
-47 10 l-48 1 33 28 c35 30 33 39 -16 47 -15 3 -34 7 -43 10 -11 3 -25 -13
-48 -58z m-121 -308 c8 0 42 3 75 5 33 3 92 3 131 -1 70 -5 71 -6 71 -35 0
-25 -5 -30 -34 -35 -18 -3 -48 -3 -66 1 -17 4 -59 6 -92 5 -80 -1 -255 -1
-280 1 -15 1 -20 9 -20 29 0 26 2 27 41 22 23 -2 50 1 60 7 11 6 37 9 59 6 22
-3 47 -5 55 -5z m-65 -285 c0 -37 -2 -40 -25 -37 -14 2 -35 3 -46 4 -18 0 -22
6 -21 34 1 26 5 33 16 29 9 -2 23 0 31 5 29 19 45 7 45 -35z m180 0 c0 -37 -2
-40 -25 -37 -14 2 -35 3 -46 4 -18 0 -22 6 -21 34 1 26 5 33 16 29 9 -2 23 0
31 5 29 19 45 7 45 -35z m200 37 c6 -4 11 -22 12 -39 2 -28 -2 -34 -23 -39
-14 -4 -36 -2 -50 4 -13 7 -30 9 -38 6 -11 -4 -14 3 -13 30 1 28 5 35 16 31 9
-2 23 0 31 5 18 11 51 13 65 2z"/>
</g>
</svg>
