<?xml version="1.0" standalone="no"?>
<!DOCTYPE svg PUBLIC "-//W3C//DTD SVG 20010904//EN"
 "http://www.w3.org/TR/2001/REC-SVG-20010904/DTD/svg10.dtd">
<svg version="1.0" xmlns="http://www.w3.org/2000/svg"
 width="101.000000pt" height="103.000000pt" viewBox="0 0 101.000000 103.000000"
 preserveAspectRatio="xMidYMid meet">
<metadata>
Created by potrace 1.16, written by Peter Selinger 2001-2019
</metadata>
<g transform="translate(0.000000,103.000000) scale(0.100000,-0.100000)"
fill="#000000" stroke="none">
<path d="M214 963 c-21 -36 -63 -88 -93 -115 -29 -27 -52 -50 -50 -52 2 -1 19
-8 37 -15 17 -8 32 -18 32 -23 0 -5 -5 -6 -11 -3 -5 4 -20 4 -32 1 -18 -4 -22
-12 -22 -49 l0 -44 85 3 c47 2 112 3 145 3 33 0 183 -1 333 -2 272 -2 273 -2
278 20 3 12 4 30 2 40 -3 17 -15 18 -161 15 -107 -2 -157 0 -157 7 0 6 -13 11
-29 11 -20 0 -30 6 -34 20 -3 13 0 20 8 20 8 0 22 12 33 28 15 21 28 27 53 26
30 -1 34 -5 47 -42 14 -44 24 -48 67 -32 27 10 28 18 11 60 -5 12 4 15 53 14
33 -1 64 -5 69 -8 28 -17 59 25 47 63 -9 28 -32 33 -81 16 -51 -17 -104 -20
-104 -5 0 6 -18 10 -40 10 -45 0 -51 11 -18 34 28 20 16 33 -38 42 l-42 6 -23
-48 c-13 -27 -42 -68 -65 -91 -22 -24 -39 -45 -37 -47 3 -2 -9 -7 -26 -11 -27
-6 -29 -9 -20 -32 5 -14 8 -27 6 -29 -2 -2 -49 -7 -104 -10 -74 -5 -108 -3
-131 7 l-30 13 35 45 c25 33 42 46 60 46 27 1 30 -3 37 -49 8 -43 37 -57 77
-36 18 10 18 13 4 47 -8 19 -15 36 -15 37 0 1 27 1 59 0 55 -1 60 1 66 23 13
54 3 59 -101 59 l-95 -1 25 22 c30 25 31 29 14 36 -7 3 -29 12 -49 21 l-37 15
-38 -66z"/>
<path d="M213 556 l2 -95 27 -6 c35 -8 138 4 138 16 0 14 68 11 73 -3 4 -10 8
-10 15 1 12 17 185 11 221 -8 12 -7 33 -10 46 -7 21 5 24 14 30 80 12 121 37
110 -279 115 l-274 3 1 -96z m450 -7 c7 -24 -37 -37 -66 -20 -14 9 -22 10 -30
2 -14 -14 -74 -14 -82 -1 -4 6 -40 9 -89 8 -67 -3 -82 0 -83 12 -1 13 25 15
172 16 162 1 174 0 178 -17z"/>
<path d="M120 442 c-10 -5 -14 -17 -12 -37 7 -55 6 -250 0 -281 -8 -37 4 -43
64 -36 44 5 53 27 33 82 -8 22 -12 62 -9 97 2 32 5 68 5 79 1 15 8 22 23 23
53 4 226 2 275 -2 30 -3 63 -1 73 4 12 6 56 7 112 3 106 -7 97 3 97 -113 -1
-65 -11 -79 -56 -78 -19 1 -37 -1 -39 -4 -10 -9 29 -98 44 -102 21 -4 112 30
122 45 10 17 10 16 13 133 1 55 5 119 8 141 6 41 6 42 -26 47 -18 2 -42 1 -55
-4 -20 -8 -99 -11 -272 -10 -36 0 -108 0 -160 -1 -88 0 -155 5 -205 16 -11 2
-27 1 -35 -2z"/>
<path d="M319 343 c-21 -5 -31 -41 -18 -65 5 -10 7 -40 3 -67 -6 -44 -4 -49
17 -54 12 -3 30 -2 40 4 11 5 78 7 165 4 l147 -6 -7 51 c-4 28 -2 58 3 68 6
10 7 28 4 40 -5 21 -10 21 -157 19 -83 -1 -158 1 -166 4 -8 4 -22 5 -31 2z
m242 -70 c21 -3 27 -9 25 -28 -1 -29 -26 -36 -106 -30 -30 3 -64 5 -75 6 -14
1 -20 9 -21 26 -2 18 2 22 15 19 9 -3 23 -1 31 4 15 10 84 11 131 3z"/>
</g>
</svg>
