<?xml version="1.0" standalone="no"?>
<!DOCTYPE svg PUBLIC "-//W3C//DTD SVG 20010904//EN"
 "http://www.w3.org/TR/2001/REC-SVG-20010904/DTD/svg10.dtd">
<svg version="1.0" xmlns="http://www.w3.org/2000/svg"
 width="101.000000pt" height="102.000000pt" viewBox="0 0 101.000000 102.000000"
 preserveAspectRatio="xMidYMid meet">
<metadata>
Created by potrace 1.16, written by Peter Selinger 2001-2019
</metadata>
<g transform="translate(0.000000,102.000000) scale(0.100000,-0.100000)"
fill="#000000" stroke="none">
<path d="M190 953 c-25 -37 -68 -86 -97 -108 -28 -22 -52 -43 -52 -47 -1 -4 9
-10 21 -13 46 -14 86 -54 104 -104 10 -28 25 -52 33 -54 19 -3 71 14 71 25 0
4 -11 32 -24 61 -24 56 -43 71 -67 56 -8 -5 -20 -9 -28 -9 -25 0 53 83 80 85
13 1 30 4 38 6 10 3 17 -7 22 -30 4 -18 12 -37 19 -41 9 -6 55 4 78 16 2 1 -3
15 -11 31 l-15 28 58 1 58 2 -31 -50 c-17 -27 -56 -73 -87 -100 -30 -28 -50
-53 -44 -55 6 -2 20 -10 30 -18 18 -13 17 -14 -16 -16 -19 -1 -41 -2 -47 -2
-17 1 -17 -2 10 -42 22 -35 30 -39 77 -37 14 0 18 -2 9 -4 -18 -5 -31 -38 -23
-59 7 -18 43 -26 65 -15 24 13 139 1 139 -15 0 -16 -105 -29 -129 -16 -38 21
-80 -14 -64 -55 5 -14 69 -14 92 0 6 4 31 4 55 1 38 -6 44 -10 42 -30 -1 -20
-8 -24 -49 -29 -26 -4 -53 -4 -59 0 -18 11 -125 21 -132 13 -10 -12 -14 -46
-7 -57 9 -15 18 -15 116 -7 84 7 127 -1 121 -23 -6 -20 3 -37 24 -45 20 -7
-87 2 -183 16 -46 7 -134 72 -141 104 -8 42 1 146 18 206 16 53 -19 104 -55
81 -17 -10 -81 -11 -101 -2 -9 4 -28 4 -42 -2 -19 -7 -26 -17 -26 -37 0 -52
12 -58 95 -51 33 3 31 9 40 -114 2 -37 1 -76 -3 -87 -4 -10 -36 -40 -71 -66
l-63 -47 28 -31 c16 -18 32 -36 36 -41 4 -5 26 12 49 37 22 26 46 47 52 47 7
0 38 -16 69 -35 78 -46 173 -70 263 -64 11 1 93 1 182 0 153 -1 162 0 168 19
4 11 17 33 31 49 30 36 13 47 -35 24 -24 -12 -37 -13 -55 -5 -16 7 -38 6 -80
-5 -80 -20 -104 -13 -103 31 1 27 5 34 21 35 12 0 55 3 96 6 41 3 87 1 102 -4
22 -8 27 -6 31 10 15 58 -20 74 -110 51 -44 -11 -65 -12 -86 -4 -16 6 -34 9
-40 6 -7 -2 -13 6 -13 20 -1 18 4 24 20 25 70 5 95 4 127 -3 40 -9 52 4 42 43
-5 20 -12 22 -77 21 -100 -2 -116 0 -116 15 0 15 16 17 121 15 82 -1 93 6 82
50 -5 20 -10 21 -47 14 -23 -4 -57 -7 -76 -6 -86 4 -82 2 -76 28 5 17 2 24 -9
24 -8 0 -15 4 -15 9 0 6 13 6 33 0 55 -16 116 -27 189 -34 45 -4 48 -2 68 32
11 19 18 38 15 41 -3 4 -36 8 -73 9 -37 2 -87 7 -112 11 l-45 7 37 23 c46 29
115 105 100 110 -7 2 -35 -1 -62 -7 -64 -14 -180 -14 -180 -1 0 6 -9 10 -21
10 -11 0 -28 8 -37 17 -16 16 -16 16 0 10 12 -4 23 2 37 21 17 24 25 28 68 26
26 -1 48 -6 48 -10 3 -50 37 -72 78 -53 24 11 25 13 12 39 l-14 26 85 -1 c73
-2 84 0 89 17 4 10 3 27 0 39 -7 20 -11 21 -91 14 -56 -4 -89 -3 -98 4 -7 6
-34 10 -59 8 l-47 -3 27 28 26 28 -36 15 c-53 22 -60 20 -85 -27 -13 -24 -33
-55 -45 -70 l-22 -27 -1 25 c-1 14 -4 27 -6 29 -2 2 -33 0 -68 -5 -79 -12
-150 -13 -150 -2 0 4 14 19 32 34 l33 27 -37 15 c-60 26 -70 21 -118 -51z
m480 -248 c0 -2 -18 -14 -41 -25 -39 -21 -41 -21 -67 -3 l-27 18 65 6 c36 3
66 6 68 7 1 1 2 0 2 -3z m-185 -45 c30 -31 26 -36 -27 -31 -10 1 -26 -3 -37
-8 -11 -6 -22 -7 -25 -3 -5 9 41 72 53 72 4 0 20 -13 36 -30z m110 -88 c-3 -3
-11 0 -18 7 -9 10 -8 11 6 5 10 -3 15 -9 12 -12z m-48 -4 c-2 -7 0 -21 4 -30
8 -14 3 -18 -25 -23 -19 -4 -43 -2 -55 5 -12 6 -25 8 -30 5 -11 -6 -41 4 -41
15 0 4 10 8 23 8 12 0 45 7 72 15 28 8 52 16 53 16 2 1 2 -5 -1 -11z"/>
</g>
</svg>
