<?xml version="1.0" standalone="no"?>
<!DOCTYPE svg PUBLIC "-//W3C//DTD SVG 20010904//EN"
 "http://www.w3.org/TR/2001/REC-SVG-20010904/DTD/svg10.dtd">
<svg version="1.0" xmlns="http://www.w3.org/2000/svg"
 width="101.000000pt" height="102.000000pt" viewBox="0 0 101.000000 102.000000"
 preserveAspectRatio="xMidYMid meet">
<metadata>
Created by potrace 1.16, written by Peter Selinger 2001-2019
</metadata>
<g transform="translate(0.000000,102.000000) scale(0.100000,-0.100000)"
fill="#000000" stroke="none">
<path d="M221 957 c-19 -34 -65 -93 -103 -131 -38 -38 -67 -69 -66 -70 2 0 22
-11 46 -23 l42 -21 53 63 c29 35 60 62 69 62 12 -1 26 -20 40 -54 23 -57 25
-58 81 -42 l37 10 -25 43 -26 44 28 -3 c15 -1 36 -6 46 -10 9 -4 25 -4 34 -1
14 6 13 3 -4 -16 -12 -13 -27 -42 -34 -66 -9 -32 -16 -41 -28 -37 -19 8 -20 8
-46 6 -16 -1 -17 -3 -6 -10 9 -6 11 -16 7 -27 -7 -16 -10 -14 -27 18 -19 37
-20 38 -79 23 -14 -4 -36 -7 -50 -6 -14 0 -34 -6 -45 -15 -18 -13 -20 -28 -22
-145 -1 -105 -5 -135 -18 -149 -12 -13 -13 -20 -5 -25 6 -4 20 -20 29 -36 l18
-29 44 33 c24 19 62 45 85 59 37 24 40 29 38 68 -1 23 -4 44 -7 46 -3 3 -25
-9 -49 -26 l-43 -31 -8 47 c-5 30 -4 57 2 71 6 13 8 29 5 36 -3 8 1 14 8 15 7
0 20 2 28 3 8 1 30 1 48 1 30 -2 32 -5 32 -37 0 -19 5 -35 10 -35 15 0 12 -67
-2 -74 -10 -5 -10 -7 0 -12 17 -8 15 -35 -9 -88 -11 -25 -18 -50 -14 -55 8
-13 -13 -62 -37 -88 -12 -12 -42 -30 -67 -39 -25 -9 -56 -21 -67 -26 -15 -7
-28 -7 -41 0 -18 10 -63 6 -63 -5 0 -3 13 -20 29 -38 16 -18 30 -38 33 -45 3
-9 15 -8 53 1 134 33 213 93 239 180 9 28 21 58 27 65 14 18 3 34 -24 34 -20
1 -20 2 -5 11 27 15 116 0 117 -20 0 -9 3 -32 7 -51 3 -19 6 -60 5 -90 -1 -30
1 -65 4 -77 6 -26 59 -47 85 -33 10 5 67 8 126 7 102 -3 110 -2 132 20 21 22
52 81 52 101 0 15 -100 63 -101 49 -4 -74 -28 -97 -99 -98 -113 -1 -139 13
-126 69 14 59 16 106 3 114 -8 5 -4 8 11 8 20 0 22 4 22 63 0 90 12 200 20
187 7 -12 23 -13 78 -7 25 3 32 1 27 -10 -2 -8 0 -23 5 -34 6 -11 8 -40 4 -69
l-7 -51 -52 5 c-45 4 -54 2 -58 -14 -14 -52 22 -92 64 -70 10 6 44 7 77 4 67
-7 79 3 61 53 -6 18 -6 70 -1 138 5 61 7 116 4 123 -3 9 -14 11 -32 7 -16 -3
-46 -3 -66 1 l-39 7 39 14 c22 7 41 15 44 17 2 3 -9 24 -26 48 l-29 43 88 0
c97 0 108 7 95 60 -5 21 -12 23 -71 24 -37 0 -65 -4 -65 -9 0 -6 -16 -10 -35
-10 -19 0 -35 5 -35 10 0 6 -18 10 -40 10 -45 0 -49 8 -20 35 21 19 26 40 12
49 -5 3 -27 8 -49 12 l-40 6 -36 -76 c-20 -42 -39 -76 -42 -76 -3 0 -4 4 -1 9
4 5 3 16 0 25 -7 18 -39 22 -49 6 -8 -13 -62 -13 -70 0 -3 6 -28 9 -55 7 l-50
-3 32 33 c38 39 29 58 -27 56 -19 -1 -35 3 -35 8 0 23 -18 4 -49 -54z m476
-177 c29 -66 29 -70 -2 -70 -16 0 -25 -6 -25 -15 0 -12 -5 -10 -20 5 -17 17
-31 20 -75 17 -30 -1 -55 0 -55 3 0 3 12 19 26 35 14 17 32 41 41 55 11 20 22
25 50 24 34 -1 38 -5 60 -54z m-132 -173 c0 -33 -32 -46 -71 -29 -13 7 -29 9
-36 7 -9 -3 -13 5 -14 22 -1 28 0 28 60 28 60 0 61 0 61 -28z m-10 -85 c6 -4
11 -22 12 -39 2 -28 -2 -34 -23 -39 -14 -4 -36 -2 -50 4 -13 7 -30 9 -38 6
-11 -4 -14 3 -13 30 1 28 5 35 16 31 9 -2 23 0 31 5 18 11 51 13 65 2z m-183
-149 c-7 -3 -16 -2 -19 1 -4 3 2 6 13 5 11 0 14 -3 6 -6z"/>
</g>
</svg>
