<?xml version="1.0" standalone="no"?>
<!DOCTYPE svg PUBLIC "-//W3C//DTD SVG 20010904//EN"
 "http://www.w3.org/TR/2001/REC-SVG-20010904/DTD/svg10.dtd">
<svg version="1.0" xmlns="http://www.w3.org/2000/svg"
 width="101.000000pt" height="102.000000pt" viewBox="0 0 101.000000 102.000000"
 preserveAspectRatio="xMidYMid meet">
<metadata>
Created by potrace 1.16, written by Peter Selinger 2001-2019
</metadata>
<g transform="translate(0.000000,102.000000) scale(0.100000,-0.100000)"
fill="#000000" stroke="none">
<path d="M210 974 c-29 -59 -103 -157 -135 -178 -14 -9 -25 -20 -25 -24 0 -8
69 -42 83 -42 4 0 24 21 44 48 29 36 45 47 67 48 26 0 32 -6 50 -49 20 -47 21
-48 56 -42 50 9 55 19 32 57 l-21 33 65 0 66 0 -33 -27 -32 -27 35 -14 c20 -8
39 -20 43 -26 9 -16 -38 -94 -86 -142 -21 -21 -39 -41 -39 -42 0 -7 80 -40 84
-36 2 2 22 26 43 53 l39 49 137 0 c76 0 140 -3 144 -6 9 -9 65 -9 79 1 13 9
12 75 -1 84 -6 3 -35 0 -65 -8 -63 -16 -190 -19 -190 -4 0 6 -11 10 -25 10
-28 0 -34 17 -10 26 22 9 1 31 -36 39 l-30 7 24 31 c20 26 31 32 65 32 38 0
42 -2 47 -30 13 -63 15 -66 43 -61 51 8 64 17 57 40 -15 53 -17 51 62 52 81 1
95 9 91 54 -3 28 -14 29 -141 15 -49 -5 -75 -4 -92 5 -13 7 -31 10 -40 7 -13
-6 -14 -3 -5 13 6 11 20 26 30 33 27 16 25 24 -7 40 -67 34 -69 34 -107 -40
-19 -37 -45 -79 -56 -93 -12 -14 -19 -19 -15 -12 4 7 4 24 1 36 -6 23 -8 23
-121 22 -63 0 -115 1 -115 3 0 2 17 18 37 37 l36 33 -44 21 c-24 11 -49 20
-56 20 -6 0 -21 -20 -33 -46z"/>
<path d="M193 743 c-9 -3 -7 -15 7 -43 11 -22 20 -41 20 -42 0 -3 -92 0 -139
5 -32 3 -48 -24 -35 -60 9 -26 13 -28 66 -27 l56 1 -4 -51 c-7 -108 -13 -143
-32 -198 -20 -56 -66 -133 -96 -157 -13 -11 -9 -16 31 -37 26 -13 48 -22 49
-21 32 32 116 219 120 267 1 8 2 22 3 31 1 10 12 15 37 16 26 1 34 -3 30 -12
-3 -8 0 -27 6 -43 9 -23 8 -38 -6 -71 -9 -23 -14 -46 -11 -51 10 -16 -23 -30
-64 -26 -23 2 -40 1 -38 -3 2 -3 12 -25 23 -49 19 -42 20 -43 58 -37 49 7 94
33 103 60 3 11 8 52 9 90 1 39 5 88 8 110 16 104 15 104 -46 104 -105 0 -109
1 -97 23 6 11 8 30 5 41 -5 20 -2 22 32 19 20 -1 51 -5 68 -8 41 -8 68 18 59
55 -7 26 -24 43 -36 35 -13 -8 -79 -13 -77 -6 1 4 -4 26 -12 49 -12 39 -15 42
-49 41 -20 0 -42 -3 -48 -5z"/>
<path d="M540 585 c0 -22 -37 -93 -71 -136 l-29 -37 46 -11 c26 -7 48 -11 49
-9 1 2 9 17 18 33 13 26 22 31 52 32 32 1 35 -1 29 -20 -4 -12 -8 -29 -8 -38
0 -13 -14 -18 -59 -23 -32 -3 -66 -2 -76 4 -25 13 -58 2 -64 -21 -13 -49 22
-78 67 -57 15 6 39 7 66 1 l44 -8 -37 -42 c-36 -40 -86 -70 -128 -78 -63 -12
-64 -14 -20 -56 l41 -40 42 22 c64 32 118 78 148 125 l27 43 16 -27 c26 -44
88 -102 142 -133 54 -31 75 -36 75 -17 0 6 11 26 25 44 27 36 26 38 -25 49
-45 9 -107 45 -143 83 l-29 30 24 2 c12 1 53 1 89 1 59 -1 67 1 72 19 13 49 1
57 -86 58 -132 1 -126 -1 -123 41 2 39 8 42 104 43 43 1 48 6 43 53 -2 26 -20
35 -48 24 -39 -15 -193 -13 -193 2 0 5 5 9 10 9 26 0 5 28 -29 38 -51 16 -61
15 -61 -3z"/>
</g>
</svg>
