<?xml version="1.0" standalone="no"?>
<!DOCTYPE svg PUBLIC "-//W3C//DTD SVG 20010904//EN"
 "http://www.w3.org/TR/2001/REC-SVG-20010904/DTD/svg10.dtd">
<svg version="1.0" xmlns="http://www.w3.org/2000/svg"
 width="101.000000pt" height="102.000000pt" viewBox="0 0 101.000000 102.000000"
 preserveAspectRatio="xMidYMid meet">
<metadata>
Created by potrace 1.16, written by Peter Selinger 2001-2019
</metadata>
<g transform="translate(0.000000,102.000000) scale(0.100000,-0.100000)"
fill="#000000" stroke="none">
<path d="M622 967 c-17 -29 -49 -70 -72 -92 -24 -22 -40 -34 -36 -27 5 7 5 23
2 35 -5 21 -10 22 -126 22 l-122 0 36 31 c20 17 36 34 36 37 0 9 -101 37 -111
31 -5 -3 -9 -10 -9 -15 0 -22 -75 -126 -127 -176 l-56 -53 51 -23 52 -22 2
-105 c4 -154 3 -200 -6 -245 -9 -48 -48 -127 -81 -167 -14 -16 -25 -33 -25
-37 0 -6 22 -19 82 -49 21 -10 106 183 112 253 1 15 9 20 37 21 41 3 39 11 42
-117 2 -63 -1 -81 -17 -98 -16 -18 -17 -24 -6 -51 7 -16 16 -30 19 -30 4 0 40
11 80 25 40 13 76 24 79 23 17 -3 62 15 63 26 7 74 7 77 -10 71 -22 -9 -123
-45 -127 -45 -2 0 -2 18 -1 39 l1 39 42 -3 c23 -1 46 -5 51 -8 17 -11 36 11
36 42 0 40 -8 47 -37 32 -17 -10 -29 -10 -44 -2 -11 6 -27 9 -35 6 -10 -4 -14
3 -14 25 0 22 4 29 14 25 8 -3 23 0 34 5 11 6 40 8 68 4 55 -7 50 7 54 -152 3
-111 14 -135 58 -132 13 0 74 2 136 3 95 2 115 6 133 22 21 19 55 75 48 79 -2
0 -22 16 -44 33 l-42 32 -6 -27 c-3 -15 -10 -33 -15 -41 -12 -18 -94 -28 -161
-19 -20 2 -25 9 -26 34 -1 26 2 32 20 32 19 0 44 3 136 18 40 6 77 11 103 13
16 1 16 3 2 29 -36 66 -35 65 -116 38 -41 -13 -90 -27 -111 -30 -36 -5 -36 -5
-35 28 1 39 -5 37 138 39 l95 1 -8 60 c-5 33 -5 69 -1 80 4 12 8 31 8 43 1 21
-2 22 -37 17 -36 -6 -109 -8 -153 -3 -15 1 -20 9 -21 33 l0 31 65 -2 c36 -1
78 -4 94 -8 37 -10 94 2 101 21 18 48 -33 92 -77 65 -14 -9 -54 -11 -154 -5
-131 7 -135 7 -144 32 -12 30 -5 39 16 22 13 -11 20 -9 46 16 30 29 94 41 97
19 0 -5 3 -19 6 -30 2 -11 5 -23 5 -26 2 -13 44 -17 68 -6 23 10 25 19 9 57
-5 13 7 15 70 16 82 1 96 9 92 54 -3 23 -7 24 -56 23 -29 0 -56 -3 -59 -7 -11
-10 -91 -7 -99 5 -3 6 -17 9 -30 6 -20 -3 -22 -2 -13 15 5 10 19 24 29 31 31
18 24 31 -24 49 l-45 17 -29 -52z m-352 -159 c0 -9 5 -29 12 -43 10 -22 17
-25 50 -22 21 2 41 6 44 9 3 3 -1 21 -9 39 l-14 34 73 0 c61 0 71 -2 64 -15
-5 -9 -18 -16 -30 -17 -31 -3 -33 -7 -16 -41 l15 -29 -82 -6 c-129 -11 -167
-9 -184 9 -9 8 -24 13 -34 11 -13 -4 -7 9 21 42 28 32 46 46 64 46 18 0 26 -5
26 -17z m82 -186 c3 -28 0 -34 -20 -39 -13 -3 -34 -1 -48 5 -13 7 -29 9 -36 7
-9 -4 -13 6 -14 27 l0 33 57 0 57 0 4 -33z m210 0 c3 -28 0 -34 -20 -39 -13
-3 -34 -1 -48 5 -13 7 -29 9 -36 7 -9 -4 -13 5 -13 27 l0 33 57 0 c56 0 56 0
60 -33z m-217 -90 c6 -4 11 -24 12 -44 3 -33 0 -38 -23 -44 -14 -4 -36 -2 -50
4 -13 7 -30 9 -38 6 -12 -5 -15 3 -13 35 1 32 5 40 17 36 8 -2 22 0 30 5 18
11 51 13 65 2z m210 0 c6 -4 11 -24 12 -44 3 -33 0 -38 -23 -44 -14 -4 -36 -2
-50 4 -13 7 -30 9 -38 6 -12 -5 -15 3 -13 35 1 32 5 40 17 36 8 -2 22 0 30 5
18 11 51 13 65 2z m210 0 c6 -4 11 -24 12 -44 3 -33 0 -38 -23 -44 -14 -4 -36
-2 -50 4 -13 7 -30 9 -38 6 -12 -5 -15 3 -13 35 1 32 5 40 17 36 8 -2 22 0 30
5 18 11 51 13 65 2z"/>
</g>
</svg>
