<?xml version="1.0" standalone="no"?>
<!DOCTYPE svg PUBLIC "-//W3C//DTD SVG 20010904//EN"
 "http://www.w3.org/TR/2001/REC-SVG-20010904/DTD/svg10.dtd">
<svg version="1.0" xmlns="http://www.w3.org/2000/svg"
 width="101.000000pt" height="102.000000pt" viewBox="0 0 101.000000 102.000000"
 preserveAspectRatio="xMidYMid meet">
<metadata>
Created by potrace 1.16, written by Peter Selinger 2001-2019
</metadata>
<g transform="translate(0.000000,102.000000) scale(0.100000,-0.100000)"
fill="#000000" stroke="none">
<path d="M200 983 c-13 -21 -47 -63 -76 -93 l-54 -55 30 -20 c17 -11 30 -28
30 -37 0 -21 29 -50 42 -42 6 4 50 7 98 8 77 1 88 -1 87 -16 -1 -13 -15 -18
-61 -23 -41 -5 -61 -4 -64 4 -2 6 -21 11 -42 11 -42 0 -66 -24 -50 -50 5 -7 7
-39 5 -71 -4 -51 -2 -58 17 -62 12 -3 29 -2 37 3 14 7 93 7 240 -1 31 -2 32
-3 15 -16 -14 -10 -42 -12 -114 -8 -140 7 -141 8 -147 2 -3 -3 -4 -16 -3 -29
1 -13 2 -69 3 -125 l1 -101 36 5 c133 17 220 13 220 -12 0 -11 -14 -15 -52
-16 -29 -1 -100 -3 -157 -5 -57 -2 -111 1 -121 6 -40 21 -75 -13 -63 -60 5
-18 11 -20 57 -14 102 12 143 13 238 8 82 -5 97 -9 96 -23 -5 -68 8 -82 69
-74 29 5 30 7 28 48 -4 49 -17 45 140 48 55 1 130 -1 166 -6 62 -7 67 -6 72
13 3 11 3 29 0 40 -5 19 -13 20 -172 19 -200 -1 -211 0 -211 16 0 15 7 16 150
18 58 1 108 6 112 11 3 5 0 27 -9 48 -10 25 -12 47 -7 65 4 16 8 37 9 48 1 11
3 25 5 30 1 6 2 18 1 28 -1 17 -11 18 -113 17 -62 0 -130 0 -152 1 -35 2 -37
4 -20 16 13 10 42 12 113 7 145 -8 220 -9 227 -1 4 3 1 13 -6 22 -7 9 -10 26
-6 42 4 16 9 44 11 64 l4 37 -57 1 c-135 2 -169 6 -169 19 0 11 100 18 223 16
29 -1 32 1 30 30 -1 37 -13 48 -38 35 -29 -16 -228 -25 -228 -11 0 7 -12 12
-26 12 l-27 0 25 32 c18 23 32 31 58 32 29 1 35 -4 47 -33 13 -30 17 -33 46
-27 41 8 51 19 39 42 -9 18 -6 19 49 17 32 -1 63 -4 68 -7 13 -8 41 21 41 42
0 32 -16 45 -46 37 -57 -14 -115 -17 -128 -6 -7 6 -34 10 -61 8 -44 -3 -46 -2
-26 11 29 20 26 39 -6 46 -16 4 -35 9 -44 12 -12 3 -25 -10 -45 -43 -15 -26
-47 -68 -70 -93 l-43 -46 36 -13 c26 -10 32 -15 22 -22 -20 -12 -77 -11 -84 2
-4 6 -22 9 -40 7 -19 -1 -37 1 -41 5 -4 4 0 7 9 7 19 0 21 5 8 28 -8 15 -3 17
43 14 59 -4 89 15 84 52 -3 18 -12 22 -78 29 -41 4 -95 6 -120 3 -44 -4 -44
-4 -17 10 34 18 34 32 2 44 -65 25 -71 24 -95 -17z m97 -150 l9 -31 -60 4
c-34 3 -67 5 -74 6 -8 1 -3 12 13 28 19 19 34 26 63 25 34 0 40 -3 49 -32z
m255 -117 c12 -19 -30 -31 -64 -18 -16 6 -35 9 -42 6 -6 -2 -12 4 -13 14 -1
17 5 18 55 14 31 -3 60 -10 64 -16z m-216 -62 c15 -4 21 -13 20 -30 -1 -19 -8
-25 -32 -30 -18 -3 -41 -1 -52 5 -11 6 -27 9 -34 6 -8 -3 -14 4 -14 20 -2 20
2 24 15 21 9 -3 23 -1 31 4 17 11 36 12 66 4z m210 -2 c5 -4 10 -17 10 -30 0
-28 -36 -40 -72 -24 -13 7 -29 9 -36 7 -8 -3 -14 4 -14 20 -2 20 2 24 15 21 9
-3 23 -1 31 4 18 11 51 13 66 2z m202 2 c23 -5 29 -11 28 -30 -1 -18 -8 -24
-38 -29 -20 -4 -46 -2 -57 4 -11 6 -26 9 -33 6 -8 -3 -14 4 -14 20 -2 20 2 24
15 21 9 -3 23 -1 31 4 18 11 27 12 68 4z m-125 -204 c69 -1 87 -4 87 -15 0
-15 -1 -15 -280 -16 -143 0 -150 1 -150 18 0 9 6 12 18 9 9 -3 24 -1 32 4 8 5
57 7 110 4 52 -2 134 -4 183 -4z m0 -80 c69 -1 87 -4 87 -15 0 -15 -1 -15
-280 -16 -143 0 -150 1 -150 18 0 9 6 12 18 9 9 -3 24 -1 32 4 8 5 57 7 110 4
52 -2 134 -4 183 -4z"/>
</g>
</svg>
