<?xml version="1.0" standalone="no"?>
<!DOCTYPE svg PUBLIC "-//W3C//DTD SVG 20010904//EN"
 "http://www.w3.org/TR/2001/REC-SVG-20010904/DTD/svg10.dtd">
<svg version="1.0" xmlns="http://www.w3.org/2000/svg"
 width="101.000000pt" height="102.000000pt" viewBox="0 0 101.000000 102.000000"
 preserveAspectRatio="xMidYMid meet">
<metadata>
Created by potrace 1.16, written by Peter Selinger 2001-2019
</metadata>
<g transform="translate(0.000000,102.000000) scale(0.100000,-0.100000)"
fill="#000000" stroke="none">
<path d="M206 995 c-3 -13 -4 -42 0 -63 3 -21 7 -87 8 -146 l1 -107 -35 6
c-111 17 -150 7 -150 -40 0 -44 24 -54 95 -40 58 11 63 -6 25 -87 -19 -40 -56
-100 -83 -135 l-47 -62 27 -40 c16 -22 30 -40 33 -41 8 0 64 93 99 165 33 69
32 73 34 -105 1 -63 -2 -136 -6 -161 -7 -53 0 -59 63 -52 l35 5 -7 114 c-4 63
-5 145 -3 182 3 37 6 78 6 90 1 22 3 20 26 -13 13 -20 31 -52 39 -71 l14 -34
40 26 c22 15 40 32 40 39 0 7 -20 41 -45 74 l-46 62 -34 -21 -34 -21 2 39 c1
43 0 43 89 44 52 1 66 17 54 64 -6 24 -9 24 -76 21 l-69 -3 -7 64 c-4 39 -2
72 4 85 6 12 10 46 10 74 0 29 5 59 12 67 19 24 3 35 -40 29 -26 -4 -40 -2
-40 6 0 22 -28 11 -34 -14z"/>
<path d="M611 988 c-20 -7 -19 -9 14 -80 19 -41 40 -72 47 -71 81 11 86 20 50
97 -29 62 -33 66 -61 64 -17 -1 -39 -6 -50 -10z"/>
<path d="M71 911 c-12 -8 -12 -14 -1 -40 7 -17 12 -44 12 -59 -1 -15 4 -39 10
-54 9 -25 15 -27 46 -24 43 6 67 38 45 60 -5 4 -15 33 -23 64 -14 52 -18 57
-45 59 -16 1 -36 -2 -44 -6z"/>
<path d="M366 908 c-3 -7 -4 -20 -4 -28 -1 -28 -13 -72 -28 -102 -9 -17 -14
-31 -12 -32 6 -6 71 -26 73 -24 8 12 75 158 75 166 0 8 -65 32 -89 32 -6 0
-13 -6 -15 -12z"/>
<path d="M453 811 c-17 -16 -9 -81 10 -94 9 -6 260 -3 447 5 23 1 25 5 25 48
l0 46 -112 2 c-71 1 -113 -2 -113 -8 0 -6 -31 -10 -75 -10 -41 0 -75 4 -75 9
0 16 -92 18 -107 2z"/>
<path d="M746 668 c-3 -18 -5 -40 -5 -48 0 -17 -9 -93 -15 -130 -11 -66 -17
-96 -22 -112 -3 -9 -6 -25 -8 -35 -2 -10 -9 -37 -15 -60 -11 -41 -12 -42 -64
-48 -28 -3 -83 -3 -122 0 -135 10 -129 12 -128 -41 1 -42 5 -46 35 -45 13 1
68 2 123 2 55 0 129 0 165 0 172 1 226 0 246 -5 18 -5 23 -1 26 26 10 64 4 69
-81 68 -72 -1 -121 0 -121 4 0 0 5 17 11 36 5 19 12 47 14 62 10 69 68 266 86
291 15 20 17 28 7 32 -126 43 -126 43 -132 3z"/>
<path d="M498 672 c-22 -4 -22 -3 3 -82 11 -36 22 -83 25 -105 2 -22 7 -53 10
-70 3 -16 6 -45 7 -63 1 -34 2 -34 101 -23 8 1 5 34 -9 101 -3 14 -7 34 -9 45
-2 11 -9 38 -14 60 -6 22 -13 51 -16 65 -13 73 -17 79 -49 78 -18 -1 -40 -4
-49 -6z"/>
</g>
</svg>
