<?xml version="1.0" standalone="no"?>
<!DOCTYPE svg PUBLIC "-//W3C//DTD SVG 20010904//EN"
 "http://www.w3.org/TR/2001/REC-SVG-20010904/DTD/svg10.dtd">
<svg version="1.0" xmlns="http://www.w3.org/2000/svg"
 width="101.000000pt" height="101.000000pt" viewBox="0 0 101.000000 101.000000"
 preserveAspectRatio="xMidYMid meet">
<metadata>
Created by potrace 1.16, written by Peter Selinger 2001-2019
</metadata>
<g transform="translate(0.000000,101.000000) scale(0.100000,-0.100000)"
fill="#000000" stroke="none">
<path d="M458 952 c-56 -120 -174 -220 -343 -292 -27 -12 -51 -23 -53 -25 -3
-2 30 -59 55 -94 2 -3 13 5 26 16 12 11 63 44 112 73 50 30 92 55 94 57 2 2
-1 20 -7 40 -6 20 -9 39 -6 42 3 3 20 -3 39 -14 20 -10 37 -16 40 -13 3 3 18
22 34 43 23 31 35 38 67 40 21 1 42 -2 46 -8 12 -19 -45 -108 -91 -144 -24
-18 -70 -41 -100 -50 -49 -14 -54 -17 -37 -27 11 -6 31 -22 45 -35 l25 -24 52
27 c28 15 73 49 99 75 l48 48 45 -25 c25 -14 77 -49 116 -78 l70 -53 29 40
c35 48 42 41 -113 125 -58 32 -106 58 -108 60 -2 1 3 15 12 32 8 16 14 31 12
33 -2 2 20 5 50 7 30 1 54 0 54 -3 0 -3 -10 -19 -22 -35 -25 -34 -24 -37 21
-45 18 -3 37 -7 41 -8 5 -1 28 36 52 83 l43 85 -187 0 -187 0 36 37 c26 27 32
39 22 42 -8 2 -29 9 -48 15 -51 17 -54 15 -83 -47z"/>
<path d="M101 914 c-12 -20 -21 -38 -19 -39 4 -3 180 -85 183 -85 1 0 14 18
29 40 l27 41 -85 39 c-46 22 -91 40 -99 40 -8 0 -25 -16 -36 -36z"/>
<path d="M243 569 c-18 -12 -33 -24 -33 -27 0 -4 23 -30 52 -59 l52 -53 -107
5 c-59 2 -111 6 -115 9 -14 9 -32 -10 -37 -39 -10 -56 1 -60 147 -60 73 1 144
4 158 9 21 7 19 2 -15 -28 -52 -47 -189 -116 -237 -119 -34 -3 -58 -13 -47
-19 2 -2 23 -20 45 -41 l41 -39 54 27 c78 39 171 108 215 158 l39 44 -3 -76
c-3 -73 -3 -85 0 -143 1 -29 20 -39 61 -31 24 5 25 8 32 115 l7 109 59 -56
c39 -38 86 -69 143 -96 46 -21 88 -39 92 -38 5 0 24 23 42 51 27 40 31 52 20
59 -7 5 -21 7 -31 5 -10 -2 -32 0 -50 5 -18 6 -43 12 -56 15 -37 8 -114 50
-138 76 l-22 23 117 0 c64 0 129 -4 143 -8 37 -12 63 15 55 57 -7 34 -24 49
-46 40 -18 -8 -18 -8 -110 -5 l-75 1 48 46 c26 25 47 46 47 47 0 1 -21 14 -46
27 l-46 25 -16 -25 c-9 -14 -31 -40 -49 -58 l-32 -33 39 -18 c22 -10 37 -21
33 -24 -3 -4 -34 -7 -69 -7 l-62 0 5 43 c2 23 6 49 7 58 4 19 -55 43 -84 34
-23 -7 -34 -38 -22 -62 5 -10 9 -29 7 -43 -1 -21 -7 -25 -38 -28 -21 -2 -37 1
-37 7 0 6 -10 11 -22 11 -22 1 -22 2 5 22 l29 21 -53 53 c-29 30 -56 54 -59
54 -3 0 -20 -10 -37 -21z"/>
</g>
</svg>
