<?xml version="1.0" standalone="no"?>
<!DOCTYPE svg PUBLIC "-//W3C//DTD SVG 20010904//EN"
 "http://www.w3.org/TR/2001/REC-SVG-20010904/DTD/svg10.dtd">
<svg version="1.0" xmlns="http://www.w3.org/2000/svg"
 width="101.000000pt" height="101.000000pt" viewBox="0 0 101.000000 101.000000"
 preserveAspectRatio="xMidYMid meet">
<metadata>
Created by potrace 1.16, written by Peter Selinger 2001-2019
</metadata>
<g transform="translate(0.000000,101.000000) scale(0.100000,-0.100000)"
fill="#000000" stroke="none">
<path d="M183 889 c1 -66 -1 -123 -5 -126 -5 -2 -9 4 -9 14 -1 19 -4 33 -9 46
-1 4 -3 10 -5 15 -13 50 -19 61 -32 66 -13 6 -63 -2 -63 -9 0 -2 4 -16 10 -30
5 -14 12 -41 15 -58 2 -18 6 -41 9 -52 2 -11 5 -23 5 -27 1 -4 21 -6 46 -4 44
2 46 1 43 -23 -3 -28 2 -27 -99 -16 -51 6 -62 -6 -52 -59 5 -26 6 -27 75 -21
69 6 70 6 63 -17 -18 -56 -74 -167 -103 -200 -18 -19 -32 -39 -32 -44 0 -10
41 -94 46 -94 2 0 24 34 48 76 39 67 46 74 55 56 11 -21 9 -196 -4 -248 -8
-36 7 -45 63 -36 l32 4 -8 72 c-4 39 -6 116 -5 171 4 163 1 157 35 90 17 -33
32 -61 33 -63 4 -4 75 31 75 37 -2 20 -70 116 -81 114 -8 0 -25 -3 -39 -5 -22
-3 -25 0 -22 22 2 14 3 35 4 47 0 20 4 21 64 18 57 -3 63 -2 66 18 2 11 9 22
16 25 16 5 16 -64 0 -72 -10 -5 -10 -7 0 -12 15 -7 17 -164 2 -164 -14 0 -13
-77 2 -82 8 -3 9 -28 1 -99 -5 -51 -8 -96 -6 -99 5 -6 84 -3 90 4 3 2 5 20 6
39 1 28 5 35 21 36 12 1 46 3 76 6 30 3 92 2 137 -1 l82 -6 -5 -38 c-5 -43 6
-50 69 -42 29 3 37 8 33 21 -3 9 -8 80 -11 159 -5 105 -3 148 6 158 9 11 9 18
1 26 -14 14 -16 74 -2 83 9 6 13 136 5 165 -4 11 -24 16 -82 18 -43 2 -79 5
-81 7 -2 1 0 25 4 53 l6 50 79 7 c43 4 82 4 87 1 11 -7 25 55 17 75 -6 17
-229 26 -239 10 -8 -12 -173 -14 -181 -1 -7 11 -85 11 -107 -1 -10 -6 -18 -21
-18 -35 0 -15 -4 -23 -10 -19 -6 4 -24 8 -39 10 -30 4 -38 -9 -46 -72 -2 -11
-9 -37 -16 -57 -15 -41 -13 -44 28 -52 l31 -6 27 82 c15 45 30 78 34 72 4 -6
36 -10 76 -9 l70 2 0 -60 0 -60 -50 3 c-27 2 -62 -1 -77 -7 -24 -9 -28 -17
-29 -48 0 -21 -3 -31 -6 -23 -9 22 -25 30 -43 20 -8 -4 -31 -8 -50 -7 l-35 1
2 132 c1 73 6 142 12 153 16 29 14 32 -14 25 -15 -4 -25 -2 -25 5 0 6 -15 11
-34 11 l-35 0 2 -121z m504 -84 c2 -59 2 -60 -26 -61 -28 -1 -28 0 -19 34 5
19 8 47 6 61 -3 21 0 26 17 26 18 0 20 -7 22 -60z m-123 -147 c-3 -5 -7 -33
-9 -61 -4 -66 -11 -101 -32 -156 -15 -42 -17 -43 -25 -21 -5 13 -6 64 -3 114
3 50 6 100 6 112 1 16 8 20 35 21 19 1 31 -3 28 -9z m125 -12 c4 -61 4 -97 -1
-159 -4 -54 -2 -72 11 -87 16 -19 64 -33 107 -33 15 1 22 -6 22 -21 1 -11 2
-32 4 -46 3 -24 0 -25 -62 -32 -36 -4 -101 -6 -145 -3 -138 8 -130 5 -127 45
1 19 3 46 3 59 1 20 5 22 27 18 15 -3 34 -8 43 -12 13 -5 20 7 34 57 10 35 20
92 21 128 6 113 4 107 34 107 21 0 28 -5 29 -21z m140 1 c1 -12 3 -47 6 -77 2
-30 2 -69 -1 -86 -4 -28 -8 -31 -37 -30 -17 1 -32 6 -33 11 0 6 -6 36 -13 69
-10 43 -10 65 -2 82 6 13 8 30 5 37 -3 9 7 13 35 14 33 2 39 -1 40 -20z"/>
</g>
</svg>
