<?xml version="1.0" standalone="no"?>
<!DOCTYPE svg PUBLIC "-//W3C//DTD SVG 20010904//EN"
 "http://www.w3.org/TR/2001/REC-SVG-20010904/DTD/svg10.dtd">
<svg version="1.0" xmlns="http://www.w3.org/2000/svg"
 width="101.000000pt" height="102.000000pt" viewBox="0 0 101.000000 102.000000"
 preserveAspectRatio="xMidYMid meet">
<metadata>
Created by potrace 1.16, written by Peter Selinger 2001-2019
</metadata>
<g transform="translate(0.000000,102.000000) scale(0.100000,-0.100000)"
fill="#000000" stroke="none">
<path d="M218 1013 c-16 -4 -17 -20 -14 -171 l3 -167 -72 3 c-71 3 -73 3 -79
-23 -13 -50 5 -73 54 -66 60 8 90 10 90 5 0 -17 -67 -133 -113 -193 l-55 -73
25 -44 c14 -24 28 -44 32 -44 4 0 32 48 63 107 40 75 56 99 57 82 6 -98 5
-232 -2 -270 -9 -52 1 -60 61 -51 27 4 31 7 26 27 -5 22 -8 283 -4 332 3 31
16 21 51 -43 17 -30 33 -54 35 -54 5 0 66 30 73 36 2 2 -18 33 -44 69 l-47 66
-34 -20 c-28 -17 -36 -18 -40 -7 -3 8 -1 23 5 34 6 12 8 27 5 36 -5 12 2 14
38 9 94 -11 110 -3 106 52 l-3 30 -72 0 -71 0 -7 83 c-4 52 -3 87 3 95 6 7 10
35 10 62 0 28 3 58 7 67 11 28 -36 45 -87 31z"/>
<path d="M650 1008 c-51 -14 -53 -20 -25 -69 13 -24 25 -47 25 -51 0 -4 -41
-5 -91 -1 -72 5 -93 3 -100 -8 -12 -19 -11 -106 1 -114 11 -7 12 -153 0 -160
-12 -7 -12 -153 0 -160 13 -8 13 -52 0 -60 -7 -4 -9 -38 -5 -93 5 -78 3 -88
-17 -109 l-22 -23 39 -40 39 -40 41 38 c22 21 62 56 88 77 46 36 48 41 42 74
-4 20 -10 39 -13 43 -4 4 -30 -10 -57 -32 -48 -38 -50 -39 -58 -18 -4 12 -5
60 -2 107 3 47 6 95 6 107 1 18 7 21 42 20 40 -1 41 -2 53 -50 24 -92 74 -176
154 -260 l76 -79 52 39 c28 21 51 42 51 46 1 4 -20 16 -46 28 -25 11 -66 36
-90 56 l-44 36 48 34 c26 19 60 38 76 41 44 9 32 31 -36 69 -28 15 -29 15 -79
-38 l-50 -53 -17 40 c-10 22 -21 52 -24 67 l-7 26 53 -4 c50 -5 62 -5 118 -2
25 1 25 3 27 74 0 41 -3 76 -9 79 -12 8 -12 52 1 60 6 4 9 44 8 95 l-1 88 -99
-2 c-68 -1 -93 2 -79 8 26 11 26 26 1 76 -24 48 -27 49 -70 38z m148 -194 c20
-6 23 -12 20 -48 l-3 -41 -137 0 -138 0 6 35 c4 19 8 37 10 39 2 2 26 3 53 3
28 -1 53 3 56 8 7 11 97 13 133 4z m-13 -164 c17 0 21 -7 22 -40 2 -37 0 -40
-30 -45 -18 -3 -68 -3 -112 0 -44 3 -89 6 -100 6 -16 1 -20 8 -20 39 l0 37 41
-5 c23 -2 50 1 60 7 11 7 40 9 69 6 28 -2 59 -5 70 -5z"/>
<path d="M344 896 c-11 -9 -18 -28 -20 -54 -1 -22 -4 -44 -7 -48 -2 -5 -5 -21
-5 -36 0 -26 18 -38 58 -38 24 0 58 110 46 148 -9 28 -50 44 -72 28z"/>
<path d="M97 886 c-24 -9 -27 -14 -21 -36 4 -14 7 -36 6 -50 -1 -14 4 -38 10
-53 11 -27 24 -30 85 -17 3 0 -10 78 -22 127 -9 37 -20 43 -58 29z"/>
</g>
</svg>
