<?xml version="1.0" standalone="no"?>
<!DOCTYPE svg PUBLIC "-//W3C//DTD SVG 20010904//EN"
 "http://www.w3.org/TR/2001/REC-SVG-20010904/DTD/svg10.dtd">
<svg version="1.0" xmlns="http://www.w3.org/2000/svg"
 width="101.000000pt" height="101.000000pt" viewBox="0 0 101.000000 101.000000"
 preserveAspectRatio="xMidYMid meet">
<metadata>
Created by potrace 1.16, written by Peter Selinger 2001-2019
</metadata>
<g transform="translate(0.000000,101.000000) scale(0.100000,-0.100000)"
fill="#000000" stroke="none">
<path d="M152 980 c-29 -38 -28 -42 11 -64 17 -11 49 -32 69 -48 l37 -29 25
34 c14 19 26 38 26 43 0 8 -130 94 -142 94 -2 0 -14 -13 -26 -30z"/>
<path d="M400 982 c-10 -5 -15 -23 -16 -54 l0 -47 82 4 82 3 4 -29 c6 -40 -23
-122 -59 -167 -17 -20 -57 -51 -90 -68 l-59 -31 30 -34 c17 -19 39 -34 49 -34
16 0 20 -8 21 -48 1 -48 1 -48 -28 -43 -16 3 -47 6 -70 7 -39 1 -40 1 -14 11
l28 10 -20 36 c-36 68 -33 66 -84 47 -50 -19 -54 -26 -30 -46 8 -7 22 -25 30
-40 l14 -28 -104 4 -104 5 -7 -30 c-13 -59 -2 -68 76 -68 38 0 72 4 74 8 7 11
107 11 124 1 30 -19 -168 -133 -253 -146 -22 -3 -42 -8 -44 -10 -9 -9 73 -90
88 -87 48 11 201 104 260 159 60 55 68 60 69 40 1 -12 2 -38 4 -57 1 -19 -2
-63 -6 -96 -9 -70 -4 -74 67 -66 37 4 38 5 30 36 -6 27 -8 106 -3 185 1 22 3
21 42 -19 61 -63 150 -117 240 -145 44 -14 82 -23 85 -21 2 3 15 28 28 55 15
35 19 51 11 52 -110 12 -142 20 -202 48 -33 15 -71 37 -85 49 l-25 20 25 1
c14 1 65 3 114 6 55 4 102 1 123 -6 29 -9 37 -9 45 2 7 12 5 77 -4 84 -2 1
-32 -3 -67 -9 -50 -8 -65 -8 -69 2 -2 7 -20 12 -40 12 l-37 1 33 29 c17 16 32
34 32 40 0 6 -18 17 -40 26 -22 9 -40 20 -40 24 0 5 16 14 36 20 49 16 65 55
76 178 2 21 8 13 34 -43 14 -30 27 -55 29 -55 4 0 75 31 84 37 1 1 -16 36 -39
77 -39 71 -60 90 -75 66 -15 -24 -20 -5 -18 64 l2 74 -57 0 c-86 1 -175 1
-244 0 -35 0 -76 2 -93 5 -16 4 -37 3 -45 -1z m336 -115 c-1 -13 -5 -28 -9
-34 -4 -7 -7 -33 -6 -60 1 -64 -7 -92 -28 -109 -21 -16 -53 -18 -53 -4 0 6 -7
10 -15 10 -17 0 -20 -16 -5 -25 6 -3 10 -18 10 -33 0 -40 14 -55 40 -47 20 6
21 4 15 -17 -12 -37 -44 -96 -56 -104 -7 -4 -28 -7 -48 -8 -35 -1 -36 0 -34
34 1 19 5 47 9 63 6 24 3 28 -23 33 l-28 6 39 41 c52 55 90 137 102 222 2 17
5 35 6 40 1 6 21 11 44 12 39 2 42 0 40 -20z"/>
<path d="M80 828 c-16 -26 -17 -35 -8 -41 45 -27 131 -77 133 -77 6 0 45 67
45 77 0 9 -122 73 -140 73 -6 0 -19 -15 -30 -32z"/>
<path d="M398 838 c0 -7 -2 -17 -3 -23 -2 -5 -3 -18 -4 -27 0 -10 -15 -33 -31
-52 -27 -30 -28 -35 -13 -42 10 -4 25 -9 33 -10 8 -1 23 -5 32 -9 14 -6 24 7
53 70 19 43 35 79 35 80 0 4 -39 15 -72 21 -19 3 -29 1 -30 -8z"/>
<path d="M232 701 c-29 -26 -77 -60 -107 -76 -30 -15 -55 -30 -55 -34 0 -5 42
-72 56 -90 2 -2 36 25 76 60 40 35 86 74 102 86 l28 22 -19 40 c-10 22 -20 40
-23 40 -3 0 -29 -22 -58 -48z"/>
</g>
</svg>
