<?xml version="1.0" standalone="no"?>
<!DOCTYPE svg PUBLIC "-//W3C//DTD SVG 20010904//EN"
 "http://www.w3.org/TR/2001/REC-SVG-20010904/DTD/svg10.dtd">
<svg version="1.0" xmlns="http://www.w3.org/2000/svg"
 width="101.000000pt" height="102.000000pt" viewBox="0 0 101.000000 102.000000"
 preserveAspectRatio="xMidYMid meet">
<metadata>
Created by potrace 1.16, written by Peter Selinger 2001-2019
</metadata>
<g transform="translate(0.000000,102.000000) scale(0.100000,-0.100000)"
fill="#000000" stroke="none">
<path d="M550 954 c-29 -44 -59 -74 -85 -88 -22 -11 -42 -22 -44 -23 -2 -2 2
-21 9 -43 13 -39 14 -40 54 -35 91 11 126 0 107 -34 -10 -16 -75 -21 -108 -8
-32 14 -91 0 -98 -23 -15 -46 26 -81 68 -59 10 6 35 8 55 4 l37 -7 -35 -28
c-19 -16 -63 -42 -97 -57 -58 -26 -78 -43 -52 -43 6 0 23 -13 39 -30 l28 -30
43 31 c59 42 116 97 139 134 28 46 60 40 108 -22 57 -72 181 -160 190 -134 2
6 15 25 28 40 29 34 30 41 7 41 -29 0 -136 55 -162 83 l-23 26 48 -6 c74 -7
117 -4 126 10 10 15 0 59 -15 69 -15 9 -61 10 -70 2 -5 -5 -187 -12 -187 -8 0
1 6 16 14 34 13 33 14 33 80 33 37 0 72 -6 80 -12 12 -10 22 -8 52 15 l36 28
-49 43 c-26 24 -62 55 -80 69 -32 25 -32 25 -57 7 -32 -23 -32 -29 0 -57 l26
-22 -38 -1 c-22 0 -70 -2 -108 -4 l-69 -4 74 67 c40 37 71 69 69 71 -12 11
-70 37 -82 37 -7 0 -33 -30 -58 -66z"/>
<path d="M188 1003 c-19 -5 -25 -43 -8 -43 6 0 10 -25 10 -55 0 -30 -4 -55
-10 -55 -5 0 -10 -18 -10 -40 0 -22 5 -40 11 -40 6 0 9 -15 7 -36 l-3 -37 -64
-1 c-71 -1 -89 -14 -78 -58 8 -30 39 -41 73 -26 63 29 49 -47 -29 -163 -78
-115 -74 -101 -42 -142 l29 -36 15 22 c9 12 30 49 47 81 30 55 33 57 43 38 12
-22 8 -251 -4 -283 -7 -20 17 -28 63 -21 29 4 31 6 25 36 -9 43 -7 316 3 316
2 0 15 -21 30 -47 15 -27 28 -49 30 -51 4 -7 74 33 74 42 0 6 -17 36 -38 66
-37 54 -49 60 -92 49 -11 -3 -14 3 -12 21 2 14 3 35 4 46 0 22 4 23 75 26 35
1 46 17 37 54 -6 25 -55 41 -94 31 -20 -5 -20 -2 -16 123 3 71 8 139 11 153 5
20 2 25 -17 31 -25 6 -43 6 -70 -1z"/>
<path d="M61 906 c-22 -10 -22 -10 -5 -96 2 -14 6 -36 8 -48 6 -31 15 -40 25
-23 6 9 18 11 35 7 26 -6 27 -5 22 31 -5 34 -10 62 -21 113 -2 8 -4 18 -4 22
-1 9 -33 6 -60 -6z"/>
<path d="M310 896 c-7 -14 -10 -32 -7 -40 3 -8 2 -18 -4 -22 -6 -3 -8 -11 -6
-17 2 -7 0 -23 -5 -36 -11 -31 5 -50 40 -48 23 2 30 11 54 77 15 41 28 78 28
81 0 5 -68 29 -82 29 -3 0 -10 -11 -18 -24z"/>
<path d="M629 543 c-20 -24 -154 -109 -183 -117 -33 -8 -33 -16 2 -49 l29 -28
59 34 c32 18 83 49 111 69 29 20 58 38 65 40 17 6 0 27 -40 50 -28 17 -31 17
-43 1z"/>
<path d="M690 420 c-61 -54 -122 -85 -215 -111 -44 -11 -81 -23 -83 -24 -2 -2
5 -12 16 -23 11 -11 24 -27 29 -37 9 -15 18 -14 97 19 48 20 117 55 154 78 37
23 81 49 99 57 18 9 32 21 33 28 0 12 -60 53 -76 53 -5 -1 -29 -18 -54 -40z"/>
<path d="M790 324 c-116 -92 -220 -137 -347 -149 -60 -6 -65 -16 -27 -59 l34
-40 78 23 c96 28 229 90 293 136 26 19 60 37 74 41 14 3 25 12 25 20 0 14 -60
64 -76 63 -5 0 -29 -16 -54 -35z"/>
</g>
</svg>
