<?xml version="1.0" standalone="no"?>
<!DOCTYPE svg PUBLIC "-//W3C//DTD SVG 20010904//EN"
 "http://www.w3.org/TR/2001/REC-SVG-20010904/DTD/svg10.dtd">
<svg version="1.0" xmlns="http://www.w3.org/2000/svg"
 width="101.000000pt" height="101.000000pt" viewBox="0 0 101.000000 101.000000"
 preserveAspectRatio="xMidYMid meet">
<metadata>
Created by potrace 1.16, written by Peter Selinger 2001-2019
</metadata>
<g transform="translate(0.000000,101.000000) scale(0.100000,-0.100000)"
fill="#000000" stroke="none">
<path d="M200 1002 c-12 -6 -15 -33 -15 -157 l0 -150 -63 0 c-67 0 -82 -9 -82
-52 0 -29 28 -56 49 -47 16 6 71 13 71 8 0 -15 -68 -161 -95 -205 l-36 -59 27
-35 c14 -19 30 -35 34 -35 4 0 24 41 46 91 32 75 40 87 50 74 16 -22 15 -130
-2 -177 -10 -30 -11 -45 -3 -60 6 -11 8 -35 5 -53 -7 -36 9 -47 57 -38 32 6
39 24 25 65 -7 18 -11 88 -11 158 2 194 2 195 49 114 26 -44 38 -52 49 -34 3
5 15 15 27 21 17 9 19 8 14 -8 -9 -31 7 -43 50 -38 82 10 89 10 89 -3 0 -23
-98 -112 -154 -139 -31 -15 -58 -28 -60 -30 -3 -2 13 -19 34 -38 l38 -36 38
27 c41 28 134 124 161 164 l16 25 1 -25 c6 -97 5 -188 -2 -206 -9 -26 11 -34
62 -26 32 4 33 6 26 41 -7 31 -9 121 -4 188 1 17 10 10 41 -37 22 -34 65 -79
99 -105 58 -43 79 -49 79 -21 0 7 9 21 20 31 28 25 25 42 -7 50 -57 14 -173
106 -173 137 0 11 105 13 141 3 21 -5 27 -3 32 14 13 51 2 57 -96 59 -138 1
-138 1 -127 22 14 26 13 30 -12 31 l-23 2 22 4 c41 8 63 49 63 118 l0 63 33 5
c17 2 33 3 35 2 2 -2 -4 -17 -13 -35 -9 -18 -15 -34 -12 -36 6 -7 87 -16 87
-11 0 3 13 41 29 85 l30 80 -37 -4 c-20 -3 -66 -1 -102 3 l-65 8 56 33 c31 17
61 32 66 32 12 0 25 72 17 93 -6 16 -119 24 -128 8 -8 -12 -173 -13 -181 -1
-3 5 -32 8 -64 8 -53 -1 -60 -4 -65 -24 -8 -31 2 -53 28 -60 12 -3 79 -3 149
-1 l127 4 -41 -30 -40 -30 -29 22 c-37 27 -41 26 -69 -3 l-23 -24 31 -16 c17
-9 31 -18 31 -19 0 -1 -42 -1 -94 -1 -91 2 -95 1 -100 -21 -14 -55 9 -67 110
-61 l69 4 -54 -48 c-30 -27 -74 -57 -97 -67 -24 -10 -44 -20 -44 -24 0 -3 15
-19 33 -37 l33 -32 59 50 c33 27 78 72 100 99 22 28 44 50 48 51 4 0 7 -24 5
-52 l-3 -53 -42 2 c-44 1 -52 -4 -31 -25 16 -16 19 -111 4 -113 -51 -7 -123
-6 -137 2 -10 5 -27 5 -40 1 -19 -8 -28 -2 -57 37 -19 25 -36 48 -38 50 -2 2
-15 -4 -28 -13 -14 -9 -27 -16 -28 -16 -2 0 -3 18 -3 40 -1 38 1 40 30 41 16
1 42 0 57 -1 30 -2 43 23 33 63 -7 27 -29 37 -86 37 l-37 0 -7 66 c-4 39 -3
69 3 73 5 3 12 41 15 83 4 62 3 78 -10 82 -19 8 -44 7 -63 -2z"/>
<path d="M74 889 l-31 -9 13 -47 c27 -103 33 -114 62 -107 41 10 44 14 37 43
-4 14 -8 33 -10 41 -4 18 -34 90 -38 89 -1 0 -16 -5 -33 -10z"/>
<path d="M324 878 c-4 -13 -7 -25 -7 -28 1 -3 -8 -27 -18 -53 -11 -26 -19 -49
-19 -51 0 -9 64 -26 71 -19 3 5 14 29 24 55 10 26 24 53 31 59 22 18 17 29
-21 45 -46 19 -52 18 -61 -8z"/>
</g>
</svg>
