<?xml version="1.0" standalone="no"?>
<!DOCTYPE svg PUBLIC "-//W3C//DTD SVG 20010904//EN"
 "http://www.w3.org/TR/2001/REC-SVG-20010904/DTD/svg10.dtd">
<svg version="1.0" xmlns="http://www.w3.org/2000/svg"
 width="101.000000pt" height="101.000000pt" viewBox="0 0 101.000000 101.000000"
 preserveAspectRatio="xMidYMid meet">
<metadata>
Created by potrace 1.16, written by Peter Selinger 2001-2019
</metadata>
<g transform="translate(0.000000,101.000000) scale(0.100000,-0.100000)"
fill="#000000" stroke="none">
<path d="M464 913 l5 -98 -48 0 -48 0 9 27 c6 16 14 31 19 34 5 3 9 13 9 23 0
14 -12 22 -46 30 -53 14 -66 8 -63 -27 1 -15 -2 -35 -6 -45 -4 -10 -5 -20 -2
-23 3 -3 -1 -24 -9 -47 -8 -23 -12 -47 -10 -54 7 -17 67 -13 74 5 4 11 6 11
13 1 8 -13 65 -17 89 -6 12 6 15 -4 17 -59 l2 -65 -32 2 c-66 4 -68 3 -62 -43
2 -24 7 -54 10 -68 4 -14 2 -36 -4 -50 -5 -14 -10 -18 -10 -10 -1 8 -12 39
-26 68 -22 47 -27 52 -44 42 -33 -17 -40 -12 -38 29 l1 39 47 -3 c43 -3 47 -2
52 22 9 50 0 60 -53 57 -42 -2 -49 1 -54 19 -9 35 -7 95 4 102 6 4 10 35 9 69
-1 34 3 72 10 84 6 12 8 22 4 23 -4 0 -31 2 -60 2 l-51 2 1 -155 2 -155 -30 2
c-16 2 -42 4 -57 6 -30 4 -39 -13 -31 -57 5 -25 8 -26 59 -21 l54 5 -26 -58
c-30 -67 -76 -142 -104 -167 -26 -23 -25 -33 6 -79 l26 -38 25 37 c14 21 38
65 53 99 31 68 29 73 33 -89 1 -55 -2 -125 -6 -156 -7 -51 -6 -57 11 -61 11
-3 32 -3 46 -1 l26 5 -1 172 c-1 174 0 216 7 216 2 0 11 -25 20 -56 17 -58 20
-60 77 -38 10 4 15 -2 16 -18 1 -13 2 -39 4 -58 1 -19 -2 -56 -6 -81 -7 -41
-6 -47 12 -52 10 -2 31 -2 45 0 26 5 27 8 22 57 l-4 52 44 2 c43 2 43 1 37
-28 -6 -31 2 -36 50 -32 17 2 17 0 -1 -25 -11 -16 -32 -39 -46 -52 -28 -26
-33 -41 -15 -41 6 0 27 -8 46 -17 l36 -17 24 30 c55 67 112 209 114 285 0 10
9 17 22 18 12 0 35 2 52 3 33 3 31 9 40 -119 3 -40 1 -83 -5 -97 -8 -21 -15
-25 -49 -23 -51 2 -56 -4 -37 -42 9 -16 16 -37 16 -46 0 -29 111 -5 140 30 19
23 29 365 11 365 -13 0 -15 87 -2 92 5 2 11 83 12 181 3 199 2 202 -61 192
-35 -6 -113 -7 -180 -2 l-35 2 -3 -82 c-1 -48 2 -84 8 -88 12 -8 13 -52 1 -59
-12 -8 -13 -114 -1 -121 13 -8 13 -72 -1 -97 -6 -11 -12 -41 -14 -67 -2 -25
-6 -57 -9 -71 -3 -14 -8 -37 -12 -53 -3 -15 -9 -27 -14 -27 -20 0 -23 134 -6
268 6 44 2 48 -46 44 -23 -2 -34 41 -20 74 7 13 9 31 5 40 -5 13 -2 15 18 8
59 -20 94 0 83 46 -8 33 -22 41 -69 38 l-40 -3 -3 43 c-2 24 2 49 7 56 6 7 10
24 10 37 -1 13 2 32 6 42 6 15 1 17 -49 17 l-56 0 4 -97z m396 -102 c0 -77
-13 -98 -52 -85 -13 5 -32 9 -43 9 -16 0 -21 8 -23 43 -2 25 1 42 7 42 6 0 11
11 11 24 0 25 13 32 73 35 27 1 27 1 27 -68z m-14 -166 c0 -11 3 -31 7 -45 5
-14 4 -43 -1 -65 -7 -35 -11 -40 -33 -37 -13 2 -34 3 -46 4 -17 0 -22 8 -28
44 -3 24 -2 52 4 63 6 11 8 27 4 36 -5 14 -2 16 13 11 10 -3 26 -1 34 4 22 15
45 7 46 -15z m-310 -121 c-3 -8 -1 -24 5 -35 6 -11 7 -39 3 -64 l-6 -44 -43 1
c-43 2 -43 3 -50 45 -3 24 -1 51 4 62 6 11 9 26 6 33 -4 10 7 14 41 16 38 1
45 -1 40 -14z"/>
<path d="M61 910 c-8 -5 -10 -13 -5 -21 4 -8 7 -39 6 -70 -3 -63 13 -89 51
-89 39 0 48 13 42 61 -3 24 -6 52 -6 62 -1 41 -17 64 -46 65 -16 0 -35 -3 -42
-8z"/>
</g>
</svg>
