<?xml version="1.0" standalone="no"?>
<!DOCTYPE svg PUBLIC "-//W3C//DTD SVG 20010904//EN"
 "http://www.w3.org/TR/2001/REC-SVG-20010904/DTD/svg10.dtd">
<svg version="1.0" xmlns="http://www.w3.org/2000/svg"
 width="101.000000pt" height="101.000000pt" viewBox="0 0 101.000000 101.000000"
 preserveAspectRatio="xMidYMid meet">
<metadata>
Created by potrace 1.16, written by Peter Selinger 2001-2019
</metadata>
<g transform="translate(0.000000,101.000000) scale(0.100000,-0.100000)"
fill="#000000" stroke="none">
<path d="M198 1003 c-15 -4 -17 -21 -14 -169 3 -164 3 -166 -18 -159 -12 4
-38 9 -58 12 -34 5 -39 2 -48 -22 -18 -47 2 -75 45 -65 6 1 22 3 36 4 24 2 26
-1 23 -23 -7 -40 -61 -149 -99 -203 l-35 -49 27 -34 c16 -19 31 -35 35 -35 4
0 27 41 52 91 30 61 44 83 45 67 6 -86 5 -231 -1 -274 -8 -57 2 -67 56 -57 20
4 25 10 21 24 -3 10 -1 27 4 38 8 14 7 31 -4 62 -11 30 -14 65 -10 123 3 45 6
91 6 104 1 12 3 22 5 22 1 0 17 -20 34 -45 33 -47 36 -48 84 -12 22 16 18 26
-37 86 -36 40 -38 41 -62 25 -23 -15 -25 -15 -31 1 -4 9 -2 27 4 41 6 13 9 31
5 40 -5 13 -2 15 18 9 13 -5 39 -9 57 -11 26 -2 33 2 38 21 3 13 3 33 -1 46
-7 21 -6 21 16 5 30 -21 47 -20 51 1 3 14 8 11 27 -15 28 -40 23 -48 -63 -103
l-58 -38 36 -18 c20 -9 37 -19 37 -22 9 -38 11 -91 10 -222 -1 -173 0 -174 64
-161 25 4 27 7 21 42 -5 34 -4 38 17 39 12 0 54 3 92 6 39 3 84 3 102 0 30 -5
32 -8 28 -39 -5 -38 8 -46 63 -38 l33 4 -8 62 c-11 81 -8 242 6 318 0 4 9 7
19 6 48 -4 59 2 71 40 7 20 14 42 17 48 8 19 -38 24 -73 7 -22 -10 -42 -13
-60 -7 -16 4 -35 9 -43 9 -57 6 -56 6 -28 16 32 12 44 40 27 67 -9 14 -10 34
-3 72 l9 53 37 -64 c21 -34 39 -67 41 -73 2 -5 20 1 41 13 44 27 44 27 -26
127 -38 55 -55 73 -67 69 -9 -4 -20 -9 -26 -11 -11 -5 -12 66 0 108 7 26 6 26
-34 21 -27 -4 -41 -2 -41 6 0 6 -6 11 -14 11 -16 0 -21 -76 -5 -85 11 -8 10
-125 -2 -225 -8 -66 -7 -77 8 -89 16 -12 16 -12 -7 -6 -44 12 -95 40 -93 50 2
6 17 51 34 100 40 117 44 141 24 149 -9 3 -23 3 -31 -2 -7 -4 -31 -6 -53 -4
l-40 4 20 31 c10 18 19 35 19 38 0 9 -29 20 -66 26 -28 4 -33 1 -40 -24 -4
-15 -8 -35 -9 -44 -1 -9 -6 -29 -10 -45 -5 -16 -9 -35 -11 -43 -4 -23 -65
-141 -72 -142 -4 0 -28 -1 -55 -2 l-47 -2 5 105 c3 58 10 125 14 150 5 25 9
45 8 45 -1 1 -15 6 -30 13 -29 12 -31 13 -59 5z m370 -206 c-5 -10 -7 -21 -4
-24 3 -4 1 -12 -6 -20 -6 -7 -8 -16 -5 -20 9 -9 -13 -44 -23 -38 -5 3 -18 18
-29 33 -17 24 -18 31 -6 58 11 26 18 30 48 30 31 -1 34 -3 25 -19z m20 -246
c40 -21 109 -41 157 -47 106 -14 -67 -40 -190 -29 -27 3 -60 5 -72 6 -13 1
-23 3 -23 5 0 4 83 83 88 84 1 0 20 -9 40 -19z m143 -127 c21 -4 26 -11 26
-34 0 -25 -5 -31 -31 -35 -17 -3 -62 -3 -101 0 -38 3 -79 6 -91 6 -16 1 -21 8
-21 30 0 22 4 28 16 24 9 -2 22 -1 30 4 15 10 132 13 172 5z m0 -130 c21 -4
26 -11 25 -30 -1 -30 -32 -37 -131 -29 -38 3 -79 6 -90 6 -14 1 -20 9 -21 26
-2 18 2 22 15 19 9 -3 22 -2 30 3 15 10 132 13 172 5z"/>
<path d="M73 890 c-28 -11 -28 -8 -1 -93 l23 -69 34 6 c18 3 36 7 39 10 8 9
-52 156 -63 155 -5 0 -20 -4 -32 -9z"/>
<path d="M308 818 c-15 -46 -26 -84 -25 -85 1 -1 13 -4 27 -8 23 -5 28 0 60
62 19 37 36 71 38 76 3 6 -57 37 -70 37 -2 0 -15 -37 -30 -82z"/>
</g>
</svg>
