<?xml version="1.0" standalone="no"?>
<!DOCTYPE svg PUBLIC "-//W3C//DTD SVG 20010904//EN"
 "http://www.w3.org/TR/2001/REC-SVG-20010904/DTD/svg10.dtd">
<svg version="1.0" xmlns="http://www.w3.org/2000/svg"
 width="101.000000pt" height="101.000000pt" viewBox="0 0 101.000000 101.000000"
 preserveAspectRatio="xMidYMid meet">
<metadata>
Created by potrace 1.16, written by Peter Selinger 2001-2019
</metadata>
<g transform="translate(0.000000,101.000000) scale(0.100000,-0.100000)"
fill="#000000" stroke="none">
<path d="M187 991 c-2 -10 -2 -23 2 -29 3 -6 6 -73 6 -149 l0 -138 -25 3 c-14
1 -41 4 -61 7 -41 5 -51 -10 -42 -59 5 -24 21 -33 48 -26 29 7 65 6 65 -3 0
-25 -73 -157 -109 -199 -23 -25 -41 -52 -41 -60 1 -15 47 -74 54 -68 2 3 29
44 59 92 40 63 55 81 56 65 1 -12 3 -62 6 -112 4 -64 1 -104 -9 -138 -8 -27
-12 -55 -10 -62 7 -17 35 -24 68 -18 21 4 25 9 20 28 -3 13 -1 32 5 43 8 15 7
31 -4 62 -11 30 -14 66 -10 119 3 42 6 87 6 101 l1 25 17 -24 c44 -67 45 -67
80 -42 25 18 29 26 20 37 -9 11 -8 14 7 15 11 1 29 3 40 4 24 2 24 4 27 -120
2 -104 -14 -139 -63 -141 -71 -3 -73 -3 -65 -22 4 -9 9 -28 10 -40 2 -13 5
-25 7 -27 10 -10 39 -7 91 8 44 14 62 25 76 48 18 30 20 30 30 11 6 -11 11
-28 11 -37 0 -16 24 -16 120 0 44 8 84 14 137 19 51 6 51 6 58 -24 8 -35 6
-34 50 -16 19 8 35 22 35 31 0 8 -16 49 -35 89 -40 84 -40 86 -21 86 21 0 26
69 9 107 -10 22 -13 42 -7 60 4 16 8 37 9 48 1 11 3 25 5 30 10 39 1 44 -68
40 l-69 -4 0 29 c0 29 1 29 80 32 30 1 39 6 43 25 4 12 3 31 -1 40 -6 17 -7
71 -2 167 l2 40 -127 2 c-69 1 -131 5 -136 8 -6 3 -18 -1 -27 -10 -14 -14 -16
-35 -13 -140 2 -68 8 -127 12 -131 4 -4 26 -6 50 -5 41 1 43 0 43 -28 0 -30
-1 -30 -46 -25 -89 11 -94 9 -91 -27 1 -13 2 -78 3 -145 1 -133 3 -137 61
-126 20 4 25 10 21 23 -4 13 1 17 25 17 22 0 29 -4 26 -14 -3 -7 -1 -24 6 -37
18 -42 3 -74 -42 -87 -30 -9 -46 -9 -65 -1 -15 7 -33 8 -47 3 l-23 -9 -2 126
c-1 69 2 133 7 142 5 9 6 27 3 39 -5 19 -11 21 -49 17 -40 -4 -44 -2 -50 20
-4 14 -2 36 4 50 7 13 9 30 6 38 -5 12 5 14 54 11 l60 -4 -1 149 c0 119 -4
150 -15 155 -7 3 -19 2 -25 -2 -16 -10 -88 -11 -108 -2 -24 11 -42 -6 -43 -40
-1 -28 -4 -31 -23 -26 -13 3 -23 2 -24 -2 -3 -31 -12 -59 -30 -95 l-21 -42 22
-18 c12 -10 25 -18 29 -18 8 0 76 132 75 145 0 6 16 11 37 11 l37 2 4 -67 3
-66 -47 0 c-53 0 -61 -5 -59 -37 6 -87 5 -208 -2 -215 -8 -7 -16 0 -52 50 -11
15 -17 17 -34 8 -19 -10 -20 -8 -18 28 l1 39 42 -4 c38 -5 42 -3 47 21 9 51 0
63 -48 60 -41 -3 -43 -2 -49 27 -11 54 -7 156 6 160 7 3 12 27 12 64 1 59 1
59 -26 56 -16 -1 -28 2 -28 8 0 18 -38 11 -43 -9z m628 -185 l0 -64 -60 1 -60
2 0 55 c0 53 1 55 30 61 17 4 44 7 60 8 l30 1 0 -64z m-106 -290 c0 -12 2 -34
3 -51 3 -28 1 -30 -32 -30 -33 0 -35 2 -32 30 1 17 3 39 3 51 1 16 8 21 29 21
21 0 28 -5 29 -21z m130 0 c0 -12 2 -34 3 -51 3 -28 1 -30 -32 -30 -33 0 -35
2 -32 30 1 17 3 39 3 51 1 16 8 21 29 21 21 0 28 -5 29 -21z m1 -172 c0 -7 8
-14 18 -17 12 -3 9 -7 -15 -17 -33 -12 -41 -24 -24 -34 5 -3 11 -14 13 -24 4
-15 0 -19 -24 -19 -34 0 -47 33 -30 73 7 13 9 30 6 37 -3 10 4 14 26 14 17 0
30 -6 30 -13z"/>
<path d="M83 897 c-20 -9 -20 -10 -2 -58 10 -26 16 -55 13 -64 -10 -24 4 -63
25 -70 32 -10 71 14 69 44 -1 14 -5 31 -10 37 -4 6 -9 24 -11 40 -9 74 -33 94
-84 71z"/>
</g>
</svg>
