<?xml version="1.0" standalone="no"?>
<!DOCTYPE svg PUBLIC "-//W3C//DTD SVG 20010904//EN"
 "http://www.w3.org/TR/2001/REC-SVG-20010904/DTD/svg10.dtd">
<svg version="1.0" xmlns="http://www.w3.org/2000/svg"
 width="101.000000pt" height="101.000000pt" viewBox="0 0 101.000000 101.000000"
 preserveAspectRatio="xMidYMid meet">
<metadata>
Created by potrace 1.16, written by Peter Selinger 2001-2019
</metadata>
<g transform="translate(0.000000,101.000000) scale(0.100000,-0.100000)"
fill="#000000" stroke="none">
<path d="M460 999 c-33 -14 -33 -12 -14 -53 10 -19 15 -38 12 -41 -10 -11
-238 -17 -251 -7 -19 16 -95 13 -112 -4 -16 -16 -20 -52 -7 -70 4 -7 43 -11
96 -12 84 -1 90 -2 120 -30 17 -17 49 -42 70 -56 29 -19 34 -26 20 -27 -20 -1
-35 -4 -44 -8 -3 -2 -14 -5 -25 -7 -57 -13 -83 -16 -118 -15 -21 1 -43 -2 -50
-6 -6 -4 -30 -6 -54 -4 -23 1 -47 0 -53 -4 -12 -7 22 -71 48 -92 23 -19 67
-16 113 8 23 11 55 21 72 21 18 0 43 6 57 13 14 7 36 16 50 19 l25 7 -25 -20
c-48 -40 -114 -74 -148 -77 -19 -1 -36 -4 -38 -6 -2 -2 2 -21 8 -41 l11 -37
51 5 c28 3 74 7 101 9 l50 4 -65 -30 c-44 -21 -84 -32 -123 -34 -33 -1 -61 -5
-64 -8 -3 -2 -2 -23 2 -45 6 -39 18 -49 50 -41 6 1 21 4 35 5 24 3 24 2 -8
-25 -18 -15 -67 -43 -107 -61 -41 -19 -74 -36 -74 -39 0 -3 16 -18 34 -33 l34
-28 109 66 c60 36 114 65 120 65 20 0 13 19 -13 36 -29 19 -27 26 12 31 80 10
88 9 89 -12 0 -11 4 -33 8 -48 5 -17 4 -38 -2 -53 -10 -21 -17 -23 -57 -20
-25 3 -45 3 -45 2 0 -2 9 -24 20 -50 23 -50 28 -52 96 -35 58 15 74 40 74 115
-1 108 0 112 29 113 95 6 147 0 162 -18 15 -18 16 -18 52 1 20 10 37 22 37 27
0 5 -34 40 -75 80 l-75 71 -35 -17 c-19 -9 -35 -20 -35 -24 0 -4 14 -18 31
-32 l31 -24 -51 -7 c-31 -4 -59 -2 -71 4 -15 8 -28 7 -54 -5 -28 -13 -39 -14
-57 -5 -20 11 -18 14 42 39 35 15 99 46 142 69 43 23 85 42 94 42 28 0 6 25
-39 44 l-46 19 -45 -35 c-58 -44 -128 -65 -162 -50 -14 6 -33 9 -42 6 -10 -3
16 13 57 34 l75 40 -32 18 c-18 11 -33 22 -33 25 0 18 36 15 121 -12 52 -16
105 -32 119 -34 14 -3 36 -7 50 -11 40 -9 72 -14 122 -20 42 -4 47 -3 54 18 3
13 15 34 24 48 l18 25 -80 -4 c-54 -2 -83 1 -88 8 -4 7 -27 14 -51 17 -59 6
-91 11 -130 19 l-33 7 30 22 c16 11 46 36 67 55 37 33 38 34 137 34 95 1 101
2 106 23 3 12 4 33 2 45 -2 19 -9 24 -28 22 -174 -13 -262 -14 -275 -3 -8 7
-24 10 -34 7 -16 -4 -21 3 -30 39 -6 24 -20 48 -30 54 -23 12 -28 12 -61 -1z
m140 -186 c0 -7 -94 -65 -108 -68 -14 -2 -96 48 -107 65 -2 3 46 5 106 5 60 0
109 -1 109 -2z"/>
<path d="M625 300 c-16 -16 -27 -31 -24 -33 2 -1 21 -12 42 -22 21 -11 66 -42
99 -69 l61 -48 34 35 35 34 -33 26 c-19 14 -68 44 -110 66 l-75 41 -29 -30z"/>
</g>
</svg>
