<?xml version="1.0" standalone="no"?>
<!DOCTYPE svg PUBLIC "-//W3C//DTD SVG 20010904//EN"
 "http://www.w3.org/TR/2001/REC-SVG-20010904/DTD/svg10.dtd">
<svg version="1.0" xmlns="http://www.w3.org/2000/svg"
 width="101.000000pt" height="103.000000pt" viewBox="0 0 101.000000 103.000000"
 preserveAspectRatio="xMidYMid meet">
<metadata>
Created by potrace 1.16, written by Peter Selinger 2001-2019
</metadata>
<g transform="translate(0.000000,103.000000) scale(0.100000,-0.100000)"
fill="#000000" stroke="none">
<path d="M247 1008 c-3 -12 -2 -28 3 -37 7 -14 -2 -16 -76 -15 -80 2 -84 1
-90 -21 -3 -13 0 -33 6 -45 11 -21 16 -22 88 -16 l77 7 3 -116 3 -115 -109 6
-109 7 -7 -26 c-11 -44 8 -66 49 -57 6 1 35 2 65 2 30 0 62 5 71 11 9 5 28 7
44 3 27 -7 27 -7 9 -28 -32 -34 -136 -105 -184 -124 -25 -9 -48 -20 -53 -24
-4 -3 8 -21 27 -39 30 -29 36 -32 57 -21 50 26 157 111 210 167 43 44 63 58
88 60 l32 2 -36 -44 c-49 -59 -84 -81 -132 -84 -9 -1 -8 -10 4 -36 16 -34 19
-35 62 -31 25 3 55 8 66 11 34 12 -38 -30 -81 -48 -23 -9 -61 -18 -84 -21 -23
-3 -44 -6 -45 -8 -1 -2 4 -18 12 -36 l13 -32 58 6 c31 3 71 8 87 10 73 11 96
11 91 -2 -3 -7 0 -26 6 -42 15 -40 -3 -64 -46 -61 -64 4 -65 4 -42 -46 21 -45
21 -45 66 -42 50 4 89 21 92 40 1 7 3 37 4 67 5 98 5 98 28 98 34 0 89 9 109
17 13 5 27 -1 48 -21 l30 -28 34 18 c19 11 35 23 35 27 0 9 -132 105 -167 122
-18 8 -27 6 -44 -8 l-20 -19 21 -16 c20 -15 20 -17 5 -30 -13 -11 -23 -11 -47
-2 -19 7 -38 8 -53 2 -13 -5 -42 -8 -64 -7 -40 1 -39 2 72 59 61 32 121 61
132 64 11 4 23 11 26 16 4 6 34 -12 67 -38 33 -27 73 -56 89 -65 28 -17 29
-17 72 22 28 25 38 40 30 43 -98 28 -188 81 -218 126 -15 22 -15 24 1 18 9 -4
29 -2 45 4 21 8 43 7 87 -5 80 -20 102 -9 89 43 -5 20 -10 21 -69 14 -43 -4
-64 -3 -64 4 0 6 -19 12 -42 14 l-43 3 -3 78 c-2 48 1 77 8 77 5 0 10 11 10
25 0 27 4 28 91 25 49 -1 79 17 79 48 0 33 -14 39 -96 38 l-81 -1 4 32 c4 37
-18 49 -68 38 -28 -6 -31 -10 -27 -41 l4 -33 -156 2 -157 2 4 32 c3 31 3 32
-32 26 -23 -4 -35 -2 -35 6 0 20 -28 12 -33 -11z m410 -143 c0 -8 -26 -10 -84
-7 -57 3 -83 1 -83 -7 0 -7 -26 -11 -75 -11 -65 0 -75 2 -75 18 0 15 14 17
158 18 111 0 159 -3 159 -11z m3 -91 c0 -14 -7 -15 -37 -10 -21 3 -94 7 -163
8 l-125 2 150 6 c83 3 156 7 163 8 6 1 12 -5 12 -14z m-4 -101 c-1 -19 -9 -22
-64 -28 -41 -4 -68 -3 -76 4 -8 7 -45 10 -92 9 -73 -3 -79 -1 -80 17 -2 19 5
20 156 20 155 0 158 0 156 -22z m-28 -94 c2 -5 15 -23 29 -39 14 -17 20 -30
15 -30 -5 0 -15 7 -22 15 -18 22 -26 20 -92 -31 -53 -41 -62 -45 -84 -35 -13
6 -32 7 -41 4 -32 -12 6 25 54 54 24 13 43 28 43 32 0 4 -15 15 -32 24 -18 10
-24 15 -13 12 11 -2 27 0 35 6 17 11 103 2 108 -12z"/>
<path d="M611 246 l-32 -33 63 -23 c35 -12 89 -36 122 -52 l58 -30 34 33 c18
18 31 36 28 40 -2 4 -28 17 -57 27 -28 11 -82 31 -118 45 l-67 25 -31 -32z"/>
<path d="M250 219 c-41 -21 -93 -40 -115 -44 -56 -8 -60 -17 -23 -52 l33 -32
117 50 c65 27 125 49 133 49 26 0 17 24 -18 48 -18 12 -37 21 -43 21 -5 -1
-43 -19 -84 -40z"/>
</g>
</svg>
