<?xml version="1.0" standalone="no"?>
<!DOCTYPE svg PUBLIC "-//W3C//DTD SVG 20010904//EN"
 "http://www.w3.org/TR/2001/REC-SVG-20010904/DTD/svg10.dtd">
<svg version="1.0" xmlns="http://www.w3.org/2000/svg"
 width="101.000000pt" height="101.000000pt" viewBox="0 0 101.000000 101.000000"
 preserveAspectRatio="xMidYMid meet">
<metadata>
Created by potrace 1.16, written by Peter Selinger 2001-2019
</metadata>
<g transform="translate(0.000000,101.000000) scale(0.100000,-0.100000)"
fill="#000000" stroke="none">
<path d="M410 867 c-32 -66 -71 -129 -96 -155 l-42 -44 19 -43 c16 -36 23 -43
42 -39 23 5 64 12 110 17 27 4 27 4 10 -22 -36 -56 -95 -119 -128 -137 -34
-18 -44 -37 -26 -49 5 -3 12 -19 16 -35 7 -32 18 -36 58 -21 13 5 37 12 53 15
16 2 40 8 54 12 14 3 38 6 54 6 15 -1 42 6 60 15 17 9 32 15 34 15 13 -9 19 5
19 43 0 44 0 45 -31 43 -17 -1 -35 -5 -41 -9 -11 -7 -61 -19 -101 -24 -23 -2
-23 -1 9 34 18 20 67 84 110 144 44 59 83 107 88 107 24 0 4 28 -37 53 -26 15
-47 27 -48 25 -23 -54 -61 -118 -70 -119 -6 -1 -21 0 -33 1 -12 1 -38 -6 -58
-16 -20 -9 -38 -14 -41 -11 -7 6 103 171 147 222 18 20 30 37 28 39 -10 9 -89
46 -96 45 -4 0 -33 -51 -63 -112z"/>
<path d="M555 298 c-44 -16 -89 -31 -100 -32 -11 -1 -33 -8 -49 -14 -16 -7
-40 -14 -55 -16 -30 -4 -71 -17 -71 -22 0 -2 11 -19 24 -39 14 -20 26 -40 28
-45 2 -6 41 5 88 23 47 19 122 46 168 61 l83 28 -5 41 c-3 23 -5 43 -5 45 -2
6 -33 -2 -106 -30z"/>
</g>
</svg>
