<?xml version="1.0" standalone="no"?>
<!DOCTYPE svg PUBLIC "-//W3C//DTD SVG 20010904//EN"
 "http://www.w3.org/TR/2001/REC-SVG-20010904/DTD/svg10.dtd">
<svg version="1.0" xmlns="http://www.w3.org/2000/svg"
 width="101.000000pt" height="103.000000pt" viewBox="0 0 101.000000 103.000000"
 preserveAspectRatio="xMidYMid meet">
<metadata>
Created by potrace 1.16, written by Peter Selinger 2001-2019
</metadata>
<g transform="translate(0.000000,103.000000) scale(0.100000,-0.100000)"
fill="#000000" stroke="none">
<path d="M580 1010 c0 -11 5 -20 10 -20 13 0 13 -96 0 -121 -8 -14 -21 -19
-50 -19 -21 0 -42 4 -45 10 -3 5 -21 9 -40 8 -38 -1 -51 -22 -40 -59 l7 -21
-28 20 c-58 41 -69 38 -94 -23 -26 -64 -55 -89 -93 -80 -14 4 -35 2 -46 -5
-28 -15 -27 -8 13 47 18 27 48 73 65 104 17 30 42 66 56 79 14 13 25 27 25 32
0 11 -78 47 -101 48 -10 0 -19 -11 -23 -27 -13 -54 -108 -233 -136 -256 -28
-24 -28 -24 -13 -70 17 -51 34 -63 66 -45 22 11 97 18 97 8 0 -16 -95 -123
-118 -132 -15 -7 -28 -13 -30 -14 -2 -1 2 -23 9 -48 l12 -47 46 6 c25 3 57 8
71 10 14 2 54 6 90 10 36 4 66 7 67 9 1 1 5 20 9 43 l6 41 -38 0 c-22 0 -43
-3 -49 -6 -5 -3 -16 -7 -25 -8 -8 -1 -28 -5 -45 -9 l-30 -8 37 45 c21 26 68
92 106 148 l68 103 49 3 c28 1 70 4 95 6 l45 3 0 -52 c0 -42 -3 -52 -15 -49
-8 3 -40 7 -71 11 -69 8 -95 -10 -85 -58 3 -16 6 -33 6 -38 0 -4 37 -7 83 -5
l82 4 0 -49 c0 -48 0 -48 -37 -54 -20 -4 -46 -2 -57 5 -12 6 -26 8 -31 5 -5
-3 -18 -1 -29 5 -37 19 -69 -47 -43 -88 9 -13 88 -12 111 2 6 4 29 5 50 1 31
-5 39 -11 40 -28 0 -12 3 -63 6 -112 4 -65 2 -102 -9 -131 -20 -58 -9 -70 66
-66 l26 2 0 143 c0 183 1 190 19 183 8 -3 23 -1 34 5 29 15 102 2 95 -17 -3
-8 0 -26 6 -40 11 -23 10 -29 -9 -44 -15 -12 -35 -16 -63 -14 -23 2 -40 0 -38
-4 23 -47 38 -80 42 -96 5 -15 12 -17 42 -11 95 17 114 41 119 152 2 43 6 98
9 122 6 43 6 43 -22 35 -15 -5 -63 -8 -107 -7 -131 3 -120 -1 -117 52 l4 46
99 -1 c95 -1 100 0 105 22 3 12 4 33 2 45 -2 20 -8 23 -33 21 -16 -2 -65 -6
-109 -9 -79 -5 -79 -5 -73 19 4 13 7 39 7 58 l0 35 84 -2 c47 0 89 -4 95 -7
14 -9 41 22 41 49 0 49 -6 52 -72 41 -47 -8 -62 -8 -66 2 -2 7 -21 12 -43 12
l-39 0 -2 53 c0 28 0 62 1 74 2 24 -12 30 -76 31 -26 1 -33 -3 -33 -18z"/>
<path d="M345 329 c-16 -5 -46 -11 -65 -14 -19 -2 -49 -7 -67 -9 -17 -3 -41
-11 -52 -18 -16 -10 -27 -10 -51 -1 -27 10 -70 8 -70 -4 0 -3 7 -29 15 -58
l16 -53 47 14 c25 8 62 17 82 20 19 3 46 7 60 10 24 5 42 8 103 18 37 6 37 6
42 60 5 51 0 53 -60 35z"/>
</g>
</svg>
