<?xml version="1.0" standalone="no"?>
<!DOCTYPE svg PUBLIC "-//W3C//DTD SVG 20010904//EN"
 "http://www.w3.org/TR/2001/REC-SVG-20010904/DTD/svg10.dtd">
<svg version="1.0" xmlns="http://www.w3.org/2000/svg"
 width="101.000000pt" height="101.000000pt" viewBox="0 0 101.000000 101.000000"
 preserveAspectRatio="xMidYMid meet">
<metadata>
Created by potrace 1.16, written by Peter Selinger 2001-2019
</metadata>
<g transform="translate(0.000000,101.000000) scale(0.100000,-0.100000)"
fill="#000000" stroke="none">
<path d="M220 953 c-40 -101 -97 -190 -136 -213 -29 -18 -34 -27 -30 -46 19
-76 36 -87 86 -59 14 7 37 11 51 8 15 -3 37 0 49 7 l23 12 -21 -29 c-28 -40
-93 -98 -131 -118 -35 -18 -35 -15 -19 -67 11 -38 12 -38 52 -33 23 3 57 8 76
11 19 2 51 7 70 10 19 3 52 7 72 7 31 1 38 5 43 27 3 14 8 33 11 42 5 15 -1
17 -38 13 -76 -8 -103 -12 -127 -19 -19 -7 -13 4 31 55 29 35 79 99 111 142
31 42 62 77 67 77 6 0 10 4 10 10 0 12 -89 64 -96 57 -3 -3 -19 -29 -34 -59
-15 -29 -34 -53 -42 -54 -7 0 -15 -2 -18 -3 -3 -2 -26 -4 -51 -5 l-46 -1 60
90 c33 49 71 102 85 117 14 15 24 30 21 32 -9 8 -89 46 -97 46 -4 0 -19 -26
-32 -57z"/>
<path d="M406 928 c-15 -58 7 -81 72 -72 l47 6 -3 -44 c-2 -23 -6 -63 -9 -88
-2 -25 -6 -65 -8 -90 -12 -148 -46 -256 -107 -343 -22 -31 -36 -30 -19 1 5 10
7 29 4 41 -4 18 -11 21 -32 16 -59 -12 -101 -20 -176 -31 -16 -3 -54 -6 -83
-8 -30 -2 -55 -6 -57 -8 -5 -5 16 -91 25 -101 4 -5 33 -1 64 8 32 9 74 19 94
21 72 9 87 11 122 18 l35 7 -45 -41 c-25 -22 -53 -43 -62 -46 -28 -9 -21 -20
28 -49 l46 -27 40 38 c91 89 145 192 189 364 9 39 12 42 22 25 5 -10 11 -28
13 -39 2 -19 40 -135 58 -177 5 -12 -1 -23 -21 -37 -39 -27 -109 -62 -165 -81
l-47 -16 40 -42 40 -43 44 21 c24 11 72 40 106 64 l63 44 39 -36 c22 -19 67
-48 100 -64 l62 -29 14 28 c7 15 20 35 29 45 19 22 11 30 -53 51 -27 9 -69 29
-92 44 -40 27 -42 29 -28 49 39 56 109 225 122 293 16 88 15 99 -9 105 -13 3
-44 4 -69 2 l-45 -2 37 119 c21 66 36 122 34 124 -2 3 -24 -1 -49 -7 -56 -14
-186 -15 -186 -1 0 6 -18 10 -40 10 -22 0 -40 -4 -40 -10 0 -5 -25 -10 -55
-10 -30 0 -55 5 -55 10 0 20 -28 9 -34 -12z m284 -68 c31 0 50 -5 53 -13 3 -8
-10 -60 -29 -117 -18 -57 -31 -106 -29 -109 3 -2 33 -7 67 -10 49 -5 62 -10
59 -21 -2 -8 -5 -25 -6 -37 -7 -49 -62 -193 -74 -193 -13 0 -44 114 -42 155 1
22 -1 52 -5 68 -5 25 -9 27 -52 25 -38 -3 -47 0 -50 14 -2 10 3 25 12 33 10
10 16 37 17 83 2 127 3 133 17 127 8 -3 35 -5 62 -5z"/>
</g>
</svg>
