<?xml version="1.0" standalone="no"?>
<!DOCTYPE svg PUBLIC "-//W3C//DTD SVG 20010904//EN"
 "http://www.w3.org/TR/2001/REC-SVG-20010904/DTD/svg10.dtd">
<svg version="1.0" xmlns="http://www.w3.org/2000/svg"
 width="101.000000pt" height="101.000000pt" viewBox="0 0 101.000000 101.000000"
 preserveAspectRatio="xMidYMid meet">
<metadata>
Created by potrace 1.16, written by Peter Selinger 2001-2019
</metadata>
<g transform="translate(0.000000,101.000000) scale(0.100000,-0.100000)"
fill="#000000" stroke="none">
<path d="M201 978 c-51 -133 -99 -227 -138 -269 -23 -25 -24 -29 -12 -68 12
-40 13 -41 48 -36 61 9 75 12 94 20 9 4 17 4 17 0 0 -15 -73 -106 -116 -144
-45 -39 -45 -40 -34 -80 10 -39 24 -49 55 -41 6 2 24 4 40 6 17 3 41 6 55 9
14 2 41 6 60 8 77 9 105 32 93 76 -6 23 -3 23 -135 7 -27 -3 -36 -1 -31 7 12
20 162 220 194 260 29 36 30 39 13 51 -19 14 -84 40 -87 34 -48 -94 -63 -118
-72 -119 -5 0 -29 -1 -52 -3 -24 -1 -43 -1 -43 2 0 2 36 60 80 129 44 69 80
128 80 132 0 9 -66 41 -86 41 -8 0 -18 -10 -23 -22z"/>
<path d="M476 993 c-18 -5 -18 -13 -12 -123 5 -82 4 -120 -4 -125 -7 -4 -10
-37 -10 -83 1 -81 -3 -126 -15 -154 -4 -9 -4 -21 -1 -27 4 -5 2 -12 -2 -15 -5
-3 -9 -19 -10 -35 -1 -28 -65 -181 -76 -181 -2 0 -2 16 1 36 6 35 5 36 -18 29
-71 -20 -135 -31 -232 -39 -27 -2 -51 -7 -54 -10 -3 -2 1 -28 8 -56 9 -37 17
-49 27 -45 32 12 198 58 219 61 12 1 28 5 35 10 7 4 -7 -14 -31 -39 -40 -42
-42 -47 -25 -53 10 -4 34 -13 53 -21 30 -12 35 -11 47 4 45 57 124 225 139
293 2 8 7 25 12 38 8 22 11 19 38 -35 16 -32 30 -60 32 -62 1 -2 14 4 29 13
14 10 28 15 31 13 11 -12 -64 -135 -113 -187 l-53 -56 51 -22 c28 -12 54 -19
59 -17 15 10 97 141 113 180 21 57 40 127 38 145 -2 9 2 8 10 -5 6 -11 12 -27
13 -35 5 -57 89 -243 125 -275 17 -15 19 -13 44 40 l26 57 -35 42 c-41 51 -91
156 -99 210 -4 21 -10 43 -14 50 -4 6 -8 34 -8 61 -1 28 -4 79 -7 115 -9 95
-7 225 3 265 6 25 -4 30 -55 30 -41 0 -56 -4 -59 -15 -8 -29 -5 -89 4 -95 13
-8 11 -173 -1 -181 -6 -3 -9 -34 -8 -68 1 -35 -1 -68 -5 -74 -3 -6 -6 -23 -6
-39 0 -33 -3 -73 -6 -73 -1 0 -32 40 -68 89 -61 84 -64 92 -55 123 5 18 9 58
8 88 -1 73 10 220 17 231 11 19 -55 33 -100 22z"/>
</g>
</svg>
