<?xml version="1.0" standalone="no"?>
<!DOCTYPE svg PUBLIC "-//W3C//DTD SVG 20010904//EN"
 "http://www.w3.org/TR/2001/REC-SVG-20010904/DTD/svg10.dtd">
<svg version="1.0" xmlns="http://www.w3.org/2000/svg"
 width="101.000000pt" height="101.000000pt" viewBox="0 0 101.000000 101.000000"
 preserveAspectRatio="xMidYMid meet">
<metadata>
Created by potrace 1.16, written by Peter Selinger 2001-2019
</metadata>
<g transform="translate(0.000000,101.000000) scale(0.100000,-0.100000)"
fill="#000000" stroke="none">
<path d="M575 943 c-30 -103 -84 -192 -168 -275 -43 -43 -74 -78 -69 -78 5 0
27 -12 48 -26 l39 -26 37 42 38 43 0 -57 c0 -31 5 -56 10 -56 6 0 10 -11 10
-25 0 -14 -4 -25 -10 -25 -6 0 -10 -30 -10 -70 0 -40 4 -70 10 -70 6 0 10 -11
10 -25 0 -14 -4 -25 -10 -25 -13 0 -13 -79 1 -118 9 -26 19 -34 62 -46 29 -8
57 -11 66 -7 9 5 54 7 100 5 121 -4 151 16 175 117 5 23 1 28 -23 39 -16 6
-39 21 -51 32 -26 25 -31 21 -36 -33 -2 -24 -8 -47 -13 -52 -15 -15 -83 -21
-156 -15 l-30 3 0 92 0 92 117 50 c64 28 121 51 127 51 23 0 9 28 -29 59 l-40
32 -84 -55 c-46 -31 -86 -56 -89 -56 -9 0 0 116 12 137 9 18 7 22 -19 33 -16
7 -41 10 -55 8 -33 -7 -32 0 11 63 20 30 49 81 65 113 22 47 30 56 35 40 33
-98 131 -224 206 -263 24 -12 28 -11 62 25 19 22 36 41 36 44 0 3 -21 16 -46
30 -104 55 -198 168 -196 236 2 42 -21 66 -54 58 -14 -4 -24 -2 -24 5 0 6 -11
11 -24 11 -21 0 -27 -8 -41 -57z"/>
<path d="M190 928 c-32 -91 -79 -175 -112 -203 -24 -20 -27 -28 -19 -48 6 -14
7 -27 4 -30 -2 -3 -2 -15 2 -27 6 -17 12 -20 38 -15 18 4 46 8 62 9 17 2 39 7
49 11 15 7 17 5 11 -6 -20 -34 -106 -126 -129 -138 -18 -10 -24 -20 -21 -35 2
-12 6 -33 9 -47 7 -33 30 -43 59 -27 13 7 51 11 91 9 67 -2 126 12 126 31 0 6
11 7 25 4 20 -5 26 -2 31 18 3 14 3 34 -1 45 -7 22 -14 23 -105 6 -19 -4 -44
-7 -54 -6 -11 0 -27 -4 -38 -10 -10 -5 -18 -7 -18 -4 0 5 51 70 182 233 32 40
56 77 53 82 -6 9 -78 50 -88 50 -2 0 -18 -28 -35 -63 -18 -35 -37 -64 -44 -64
-7 0 -17 -2 -23 -3 -5 -1 -27 -2 -47 -1 l-38 1 52 83 c28 45 64 96 80 113 27
29 28 31 11 46 -17 14 -77 48 -86 48 -2 0 -14 -28 -27 -62z"/>
<path d="M370 299 c-14 -6 -38 -11 -55 -11 -16 0 -34 -3 -39 -6 -13 -7 -52
-12 -103 -11 -23 0 -44 -4 -47 -10 -3 -5 -15 -7 -26 -4 -11 3 -31 2 -44 -1
-26 -6 -27 -13 -11 -83 8 -36 13 -38 68 -22 20 5 52 12 70 15 17 3 43 7 57 10
39 8 72 13 113 18 47 5 50 8 52 43 1 16 5 38 9 51 8 25 -3 27 -44 11z"/>
</g>
</svg>
