<?xml version="1.0" standalone="no"?>
<!DOCTYPE svg PUBLIC "-//W3C//DTD SVG 20010904//EN"
 "http://www.w3.org/TR/2001/REC-SVG-20010904/DTD/svg10.dtd">
<svg version="1.0" xmlns="http://www.w3.org/2000/svg"
 width="101.000000pt" height="101.000000pt" viewBox="0 0 101.000000 101.000000"
 preserveAspectRatio="xMidYMid meet">
<metadata>
Created by potrace 1.16, written by Peter Selinger 2001-2019
</metadata>
<g transform="translate(0.000000,101.000000) scale(0.100000,-0.100000)"
fill="#000000" stroke="none">
<path d="M608 992 c-14 -6 -16 -25 -14 -148 l1 -142 -37 2 -38 1 5 113 c3 61
2 112 -2 113 -4 1 -28 3 -52 5 l-44 4 7 -118 7 -117 -41 0 c-22 -1 -40 1 -40
4 0 3 10 15 22 28 24 25 22 28 -35 62 l-37 23 -11 -31 c-6 -16 -20 -49 -32
-73 -22 -43 -22 -43 -72 -40 -27 1 -51 4 -53 7 -2 2 9 23 25 47 17 24 47 72
67 108 21 36 44 69 52 73 25 14 15 33 -31 55 -25 12 -50 22 -54 22 -5 0 -17
-24 -27 -52 -26 -80 -80 -184 -118 -226 -34 -37 -34 -39 -23 -85 10 -45 12
-48 36 -42 14 4 43 8 64 10 20 2 47 7 58 10 18 6 15 -3 -22 -55 -45 -65 -82
-100 -105 -100 -17 0 -18 -22 -3 -73 8 -30 14 -37 29 -32 16 5 44 10 110 20
14 2 52 7 85 10 33 4 61 8 63 10 2 2 6 22 8 44 l5 41 -38 -6 c-47 -6 -68 -10
-112 -18 l-34 -7 29 38 c16 21 52 72 80 114 l50 77 11 -29 c10 -25 17 -29 47
-29 l36 0 0 -55 c0 -30 5 -55 10 -55 6 0 10 -16 10 -35 0 -19 -4 -35 -10 -35
-5 0 -10 -18 -10 -40 0 -22 5 -40 10 -40 15 0 12 -67 -2 -74 -10 -5 -10 -7 0
-12 16 -7 15 -32 -2 -81 -16 -46 -9 -66 25 -64 22 2 61 2 289 2 194 0 188 0
193 26 9 46 -2 60 -46 66 -23 2 -62 3 -87 0 -42 -4 -217 -6 -266 -2 -18 1 -22
10 -28 56 -4 37 -2 60 5 70 9 10 9 17 1 25 -15 15 -16 75 -2 83 6 4 9 40 8 88
l-3 82 33 -3 c29 -4 32 -7 32 -38 0 -19 5 -34 10 -34 15 0 12 -67 -2 -73 -10
-4 -10 -8 1 -15 10 -7 12 -28 9 -80 -3 -64 -2 -71 16 -76 10 -3 27 -1 37 4 9
6 58 8 107 6 l90 -3 0 136 c0 191 -4 177 51 175 50 -2 61 6 61 49 0 32 -37 52
-80 43 l-25 -4 2 124 c0 68 4 131 7 139 6 16 3 17 -61 19 -24 0 -43 -3 -44 -9
-3 -41 4 -121 13 -126 6 -4 7 -33 3 -75 l-7 -69 -50 0 -49 0 5 118 c3 65 8
128 12 141 4 18 1 25 -18 30 -28 7 -48 7 -70 -2z m165 -427 c0 -27 3 -55 8
-62 6 -7 7 -34 2 -70 -8 -54 -10 -58 -33 -55 -14 2 -35 3 -47 4 -18 0 -22 8
-28 50 -5 31 -3 60 5 79 7 16 10 46 8 67 l-5 37 46 0 46 0 -2 -50z"/>
<path d="M359 296 c-2 -3 -22 -7 -44 -10 -22 -3 -51 -8 -65 -11 -14 -4 -47 -9
-75 -12 -27 -2 -62 -6 -77 -8 -16 -1 -35 -3 -43 -4 -12 -1 -15 -10 -11 -38 6
-55 16 -74 35 -69 9 2 26 7 37 11 21 5 48 10 119 21 17 2 41 6 55 8 14 3 40 7
59 10 43 6 43 7 47 61 4 38 2 45 -14 45 -10 0 -21 -2 -23 -4z"/>
</g>
</svg>
