<?xml version="1.0" standalone="no"?>
<!DOCTYPE svg PUBLIC "-//W3C//DTD SVG 20010904//EN"
 "http://www.w3.org/TR/2001/REC-SVG-20010904/DTD/svg10.dtd">
<svg version="1.0" xmlns="http://www.w3.org/2000/svg"
 width="101.000000pt" height="101.000000pt" viewBox="0 0 101.000000 101.000000"
 preserveAspectRatio="xMidYMid meet">
<metadata>
Created by potrace 1.16, written by Peter Selinger 2001-2019
</metadata>
<g transform="translate(0.000000,101.000000) scale(0.100000,-0.100000)"
fill="#000000" stroke="none">
<path d="M190 928 c-32 -88 -65 -151 -100 -191 -24 -28 -29 -41 -26 -74 2 -22
6 -45 10 -51 7 -12 46 -4 46 10 0 5 24 8 54 6 45 -2 53 -5 46 -18 -18 -32
-112 -129 -131 -135 -14 -5 -18 -12 -13 -23 4 -10 8 -28 9 -42 1 -14 3 -28 4
-32 0 -4 16 -5 34 -2 17 3 46 7 62 10 17 2 41 6 55 8 14 2 56 7 95 11 38 3 73
12 77 18 4 7 7 27 6 45 l-2 33 -46 -5 c-25 -3 -58 -8 -75 -10 -104 -18 -104
-28 -3 102 50 64 104 131 120 147 15 17 28 36 28 41 0 10 -70 54 -86 54 -5 0
-24 -29 -42 -64 -29 -55 -36 -63 -57 -58 -14 2 -33 1 -42 -3 -23 -10 -53 -16
-53 -11 0 13 134 217 147 225 9 4 13 14 9 20 -8 12 -79 51 -94 51 -5 0 -20
-28 -32 -62z"/>
<path d="M430 942 c-10 -4 -15 -22 -16 -50 -1 -37 2 -43 23 -48 13 -4 30 -1
37 6 8 6 32 10 53 8 l38 -3 -3 -50 c-2 -27 -6 -70 -9 -95 -3 -25 -6 -56 -6
-70 -2 -24 -4 -25 -64 -22 -61 4 -61 4 -68 -27 -13 -58 -1 -70 65 -68 l59 2
-5 -30 c-4 -16 -8 -46 -10 -65 -6 -58 -20 -168 -23 -182 0 -3 -18 -4 -38 -2
-21 3 -46 5 -56 5 -15 0 -17 6 -11 35 l6 35 -43 -6 c-24 -4 -57 -9 -74 -11
-50 -7 -107 -14 -163 -18 -30 -2 -56 -7 -59 -10 -5 -5 14 -89 24 -107 1 -4 38
2 80 13 81 20 112 26 179 34 39 4 41 3 41 -26 0 -17 2 -33 6 -36 8 -8 43 -8
97 1 40 6 83 7 298 6 34 -1 77 0 95 1 17 1 44 -2 58 -6 24 -7 27 -5 31 25 8
54 1 65 -45 66 -91 4 -84 -4 -80 87 3 88 6 117 16 156 6 23 17 198 23 371 l2
76 -66 1 c-100 1 -185 1 -254 0 -35 0 -76 2 -93 5 -16 4 -37 3 -45 -1z m343
-166 c-1 -45 -4 -99 -5 -121 l-3 -40 -62 0 -61 0 5 45 c3 25 7 63 9 85 9 106
12 109 89 111 l30 0 -2 -80z m-10 -275 c-2 -14 -6 -28 -9 -33 -3 -4 0 -17 7
-29 9 -17 8 -35 -2 -78 -7 -31 -12 -70 -10 -88 2 -29 0 -31 -38 -38 -23 -4
-48 -2 -60 4 -11 6 -27 8 -36 5 -17 -7 -17 4 1 141 3 28 7 59 8 70 7 65 13 70
80 70 62 0 64 -1 59 -24z"/>
</g>
</svg>
