<?xml version="1.0" standalone="no"?>
<!DOCTYPE svg PUBLIC "-//W3C//DTD SVG 20010904//EN"
 "http://www.w3.org/TR/2001/REC-SVG-20010904/DTD/svg10.dtd">
<svg version="1.0" xmlns="http://www.w3.org/2000/svg"
 width="101.000000pt" height="101.000000pt" viewBox="0 0 101.000000 101.000000"
 preserveAspectRatio="xMidYMid meet">
<metadata>
Created by potrace 1.16, written by Peter Selinger 2001-2019
</metadata>
<g transform="translate(0.000000,101.000000) scale(0.100000,-0.100000)"
fill="#000000" stroke="none">
<path d="M214 993 c-43 -122 -126 -275 -155 -285 -9 -3 -9 -15 1 -56 7 -30 16
-49 22 -46 6 4 33 6 60 5 27 0 59 4 70 10 36 20 -62 -109 -101 -133 -20 -12
-37 -22 -39 -23 -1 -1 3 -23 10 -48 11 -43 13 -45 42 -41 68 11 83 14 126 19
25 4 59 8 75 10 17 1 33 3 36 4 4 1 10 17 14 37 7 40 -7 59 -35 48 -15 -6 -32
-9 -98 -18 -33 -5 -34 -5 -18 17 9 12 53 77 98 145 45 67 84 118 88 113 3 -6
5 -54 3 -108 -1 -54 3 -112 9 -130 10 -26 9 -43 -4 -84 -13 -39 -14 -56 -6
-75 8 -17 8 -27 -1 -37 -14 -18 10 -26 57 -19 32 4 38 15 34 63 -1 11 7 17 21
18 12 0 35 2 52 3 33 3 31 9 40 -114 3 -43 -1 -81 -9 -106 -20 -55 -6 -69 59
-64 19 2 20 10 22 119 2 163 2 161 27 162 11 0 35 2 51 3 24 2 30 -1 31 -17 3
-55 5 -63 22 -67 10 -3 32 -3 48 -1 l30 5 -9 86 c-6 59 -6 97 2 117 6 17 10
94 9 181 l-2 152 -44 6 c-24 3 -48 3 -53 0 -5 -3 -31 -6 -57 -8 l-47 -2 1 58
c0 31 7 64 14 73 10 12 10 19 2 27 -14 14 -112 21 -112 8 0 -6 5 -10 10 -10
11 0 13 -65 4 -120 l-6 -35 -51 2 c-29 1 -67 4 -84 8 -38 7 -77 -10 -69 -31 7
-18 4 -18 -36 6 l-34 20 -13 -38 c-23 -65 -49 -101 -70 -95 -11 3 -27 0 -37
-5 -11 -5 -26 -7 -36 -3 -14 5 -7 21 42 101 32 52 70 108 84 123 29 32 27 41
-12 61 -52 26 -72 29 -78 9z m393 -291 l1 -57 -54 0 c-50 0 -55 2 -50 20 3 11
6 34 6 52 0 31 2 32 48 36 26 2 47 4 47 5 0 1 1 -24 2 -56z m198 -4 l0 -56
-50 5 c-27 3 -51 7 -52 8 -2 1 -4 24 -5 51 l-3 49 55 0 55 0 0 -57z m-200
-193 l0 -60 -30 3 c-16 1 -39 3 -50 3 -18 1 -20 7 -17 58 l4 56 46 0 47 0 0
-60z m200 -5 l-1 -65 -34 3 c-19 1 -46 3 -59 3 -21 1 -23 4 -17 37 3 21 6 48
6 62 0 23 3 25 53 25 l52 0 0 -65z"/>
<path d="M339 336 c-4 -4 -50 -13 -111 -21 -14 -2 -35 -9 -46 -16 -16 -10 -26
-10 -46 -1 -31 14 -90 -3 -82 -23 3 -8 8 -30 12 -49 7 -41 10 -41 79 -21 27 9
65 18 85 21 19 3 46 8 60 10 14 3 36 7 50 8 14 2 28 4 31 5 6 1 6 14 0 79 -1
11 -23 17 -32 8z"/>
</g>
</svg>
