<?xml version="1.0" standalone="no"?>
<!DOCTYPE svg PUBLIC "-//W3C//DTD SVG 20010904//EN"
 "http://www.w3.org/TR/2001/REC-SVG-20010904/DTD/svg10.dtd">
<svg version="1.0" xmlns="http://www.w3.org/2000/svg"
 width="101.000000pt" height="101.000000pt" viewBox="0 0 101.000000 101.000000"
 preserveAspectRatio="xMidYMid meet">
<metadata>
Created by potrace 1.16, written by Peter Selinger 2001-2019
</metadata>
<g transform="translate(0.000000,101.000000) scale(0.100000,-0.100000)"
fill="#000000" stroke="none">
<path d="M568 983 c-63 -152 -140 -287 -182 -322 -20 -16 -21 -31 -2 -31 7 0
25 -9 40 -21 14 -11 30 -18 35 -15 5 3 26 32 47 65 l38 58 33 -55 c19 -30 30
-58 25 -61 -81 -56 -200 -104 -222 -91 -8 5 -21 5 -31 0 -9 -5 -19 -7 -22 -3
-3 3 -14 2 -24 -2 -37 -16 -103 -26 -103 -15 0 4 7 13 15 20 8 7 58 70 110
140 52 71 100 131 107 134 15 6 -57 76 -78 76 -7 0 -29 -34 -49 -76 -32 -66
-39 -75 -58 -70 -12 3 -37 6 -55 6 l-33 0 48 61 c26 34 67 86 91 115 23 30 42
56 42 59 0 7 -88 45 -104 45 -7 0 -18 -19 -25 -42 -18 -61 -62 -135 -120 -201
l-50 -57 16 -40 c16 -40 17 -40 57 -35 76 10 96 11 96 4 0 -13 -113 -131 -142
-149 l-27 -16 24 -52 c13 -29 26 -52 29 -52 14 0 56 24 56 32 0 5 21 8 48 8
26 -1 63 1 82 4 19 3 48 8 63 9 31 4 50 24 42 44 -10 28 15 21 30 -8 14 -26
20 -30 43 -24 29 7 126 59 181 98 l34 23 51 -34 c42 -29 166 -92 179 -92 2 0
18 22 35 50 34 54 31 61 -25 67 -39 4 -131 37 -157 56 -17 12 -14 18 36 84 29
39 68 100 86 134 28 55 30 64 17 72 -10 5 -28 4 -45 -2 -42 -14 -220 -26 -220
-14 0 5 16 28 35 50 19 23 35 44 35 48 0 9 -81 45 -103 45 -10 0 -22 -12 -29
-27z m192 -192 c0 -9 -61 -100 -75 -111 -10 -9 -19 -4 -38 22 -32 42 -51 89
-34 83 7 -3 35 -1 62 4 54 8 85 9 85 2z"/>
<path d="M571 431 c-12 -16 -21 -33 -21 -38 0 -5 20 -15 45 -22 25 -7 82 -35
126 -61 l79 -48 20 38 c11 22 20 43 20 48 0 10 -214 112 -235 112 -7 0 -23
-13 -34 -29z"/>
<path d="M347 333 c-3 -2 -15 -6 -28 -8 -13 -3 -37 -8 -54 -11 -16 -4 -37 -6
-45 -6 -8 0 -22 -2 -30 -5 -21 -8 -51 -13 -75 -14 -11 0 -29 -6 -39 -14 -17
-13 -18 -18 -6 -60 7 -25 17 -45 22 -45 5 0 54 11 108 25 54 14 106 27 116 29
93 19 110 34 99 86 -5 24 -11 28 -35 28 -17 -1 -31 -3 -33 -5z"/>
<path d="M483 297 c-13 -18 -23 -36 -23 -39 0 -4 43 -27 96 -52 52 -25 124
-65 159 -90 l63 -44 31 38 c17 22 31 43 31 48 0 15 -295 172 -322 172 -7 0
-23 -15 -35 -33z"/>
</g>
</svg>
