<?xml version="1.0" standalone="no"?>
<!DOCTYPE svg PUBLIC "-//W3C//DTD SVG 20010904//EN"
 "http://www.w3.org/TR/2001/REC-SVG-20010904/DTD/svg10.dtd">
<svg version="1.0" xmlns="http://www.w3.org/2000/svg"
 width="101.000000pt" height="101.000000pt" viewBox="0 0 101.000000 101.000000"
 preserveAspectRatio="xMidYMid meet">
<metadata>
Created by potrace 1.16, written by Peter Selinger 2001-2019
</metadata>
<g transform="translate(0.000000,101.000000) scale(0.100000,-0.100000)"
fill="#000000" stroke="none">
<path d="M197 937 c-28 -96 -76 -185 -120 -222 l-40 -34 13 -46 c14 -49 15
-49 110 -29 46 10 80 11 80 3 0 -11 -139 -151 -163 -164 -17 -9 -17 -13 -2
-57 16 -46 16 -46 63 -46 25 0 56 5 67 11 18 9 50 14 120 18 49 2 63 10 70 36
16 58 12 70 -20 63 -5 -1 -21 -3 -35 -5 -14 -2 -38 -6 -55 -10 -16 -3 -41 -6
-54 -5 -13 0 -31 -5 -40 -12 -9 -6 14 19 50 58 73 76 209 248 209 264 0 5 -22
21 -49 34 l-48 25 -27 -60 c-16 -32 -33 -59 -39 -60 -7 0 -32 -1 -57 -3 -25
-1 -54 -6 -64 -11 -13 -6 -7 8 20 46 22 30 55 79 74 109 18 30 42 64 52 76 15
17 16 23 6 31 -12 10 -94 53 -100 53 -2 0 -11 -28 -21 -63z"/>
<path d="M801 939 c-36 -14 -249 -23 -264 -11 -7 5 -33 10 -59 10 -42 1 -49
-2 -53 -21 -4 -13 -1 -35 4 -50 9 -24 16 -27 56 -27 25 0 45 5 45 10 0 6 16
10 35 10 19 0 35 -5 35 -11 0 -7 20 -10 54 -7 l54 3 -19 -26 c-54 -76 -232
-212 -306 -234 -23 -6 -32 -25 -13 -25 5 0 24 -13 43 -30 l34 -29 54 35 c30
20 74 52 99 72 86 71 76 67 117 37 21 -16 69 -53 107 -84 l68 -55 34 37 c19
20 34 40 34 44 0 5 -46 37 -101 73 -56 36 -106 68 -111 71 -6 4 14 40 45 80
72 98 83 119 66 130 -17 11 -27 10 -58 -2z"/>
<path d="M438 489 c-18 -10 -24 -54 -10 -76 13 -20 58 -26 75 -9 9 9 32 16 55
16 l40 0 7 -96 c4 -52 4 -98 0 -102 -6 -6 -104 -7 -183 -1 -13 0 -26 -2 -30
-5 -7 -8 -6 -75 1 -83 8 -7 45 -7 97 2 62 11 363 7 394 -5 36 -13 53 -4 59 33
7 52 -2 70 -32 61 -14 -5 -57 -7 -96 -6 -128 3 -115 -8 -112 92 l2 88 68 4
c38 2 75 0 82 -5 23 -12 48 22 41 57 -4 16 -12 34 -19 38 -16 10 -156 8 -162
-2 -7 -12 -153 -11 -160 0 -8 13 -95 12 -117 -1z"/>
<path d="M305 292 c-3 -3 -15 -7 -28 -8 -12 -2 -39 -5 -60 -8 -21 -2 -45 -10
-53 -17 -11 -9 -21 -9 -39 -1 -29 14 -77 0 -70 -20 2 -7 9 -33 15 -56 11 -44
11 -44 48 -37 20 4 46 9 57 11 54 10 75 15 136 30 58 15 66 20 75 48 16 51 8
65 -36 64 -22 0 -42 -3 -45 -6z"/>
</g>
</svg>
