<?xml version="1.0" standalone="no"?>
<!DOCTYPE svg PUBLIC "-//W3C//DTD SVG 20010904//EN"
 "http://www.w3.org/TR/2001/REC-SVG-20010904/DTD/svg10.dtd">
<svg version="1.0" xmlns="http://www.w3.org/2000/svg"
 width="101.000000pt" height="101.000000pt" viewBox="0 0 101.000000 101.000000"
 preserveAspectRatio="xMidYMid meet">
<metadata>
Created by potrace 1.16, written by Peter Selinger 2001-2019
</metadata>
<g transform="translate(0.000000,101.000000) scale(0.100000,-0.100000)"
fill="#000000" stroke="none">
<path d="M615 999 c-11 -4 -14 -8 -7 -8 8 -1 12 -17 12 -48 0 -90 2 -88 -110
-87 l-99 1 -6 -28 c-4 -16 -4 -33 0 -39 9 -15 -7 -12 -29 5 -31 24 -40 18 -69
-40 -19 -39 -31 -53 -42 -49 -8 3 -29 1 -46 -5 -18 -6 -34 -9 -36 -7 -6 6 105
186 134 217 22 24 23 26 6 41 -10 8 -37 22 -60 31 -41 16 -43 16 -53 -3 -6
-11 -9 -20 -6 -20 9 0 -44 -143 -68 -184 -13 -23 -38 -53 -54 -68 -27 -24 -30
-31 -22 -57 13 -46 17 -50 58 -45 60 6 112 9 112 6 0 -13 -68 -97 -106 -131
-44 -39 -46 -42 -39 -81 6 -38 18 -48 50 -40 6 1 26 4 45 7 19 2 49 6 65 9 17
3 54 6 82 7 61 3 73 12 79 60 l4 35 -48 -4 c-26 -2 -68 -6 -95 -8 -34 -3 -45
-1 -40 7 17 30 180 254 195 269 11 11 43 18 100 23 l83 7 0 -59 0 -58 -85 3
-85 3 0 -50 c0 -50 6 -58 38 -52 5 1 84 4 177 7 112 3 170 2 175 -5 9 -16 41
-13 59 5 9 8 16 29 16 45 0 39 -33 52 -125 47 l-70 -3 0 55 0 55 115 -1 c123
-2 130 0 130 48 0 36 -26 61 -50 48 -18 -10 -210 -10 -205 0 1 3 6 33 9 68 6
61 3 68 -27 63 -4 -1 -16 3 -25 8 -9 4 -26 5 -37 0z"/>
<path d="M460 500 c-16 -10 -18 -82 -5 -151 4 -22 2 -45 -4 -57 -8 -15 -8 -27
0 -45 7 -16 8 -40 1 -78 -6 -30 -9 -56 -7 -58 2 -1 14 -2 27 -2 13 1 37 2 55
3 30 1 31 2 28 38 -3 33 -1 38 18 39 12 0 49 3 82 6 82 7 125 -1 123 -23 -5
-60 9 -73 70 -64 l33 4 -6 155 c-3 91 -1 161 4 172 13 24 3 59 -20 66 -10 3
-29 -1 -42 -9 -25 -17 -182 -22 -192 -6 -3 4 -31 8 -62 8 -32 0 -65 3 -73 6
-8 3 -22 2 -30 -4z m291 -86 c19 -4 27 -12 28 -27 5 -66 4 -107 -3 -114 -4 -4
-47 -7 -94 -6 -137 3 -131 1 -138 38 -3 18 -1 42 5 53 6 11 8 28 4 37 -5 14
-2 16 13 11 10 -3 25 -2 33 3 16 10 110 13 152 5z"/>
<path d="M378 314 c-3 -3 -25 -8 -49 -10 -24 -3 -60 -8 -79 -10 -19 -3 -53 -6
-75 -8 -22 -2 -57 -7 -78 -11 l-37 -7 4 -47 c2 -25 4 -50 5 -54 1 -9 83 -3 99
7 5 3 27 8 48 11 40 6 73 12 109 20 11 3 33 7 48 9 37 6 39 8 43 53 3 40 -19
67 -38 47z"/>
</g>
</svg>
