<?xml version="1.0" standalone="no"?>
<!DOCTYPE svg PUBLIC "-//W3C//DTD SVG 20010904//EN"
 "http://www.w3.org/TR/2001/REC-SVG-20010904/DTD/svg10.dtd">
<svg version="1.0" xmlns="http://www.w3.org/2000/svg"
 width="101.000000pt" height="101.000000pt" viewBox="0 0 101.000000 101.000000"
 preserveAspectRatio="xMidYMid meet">
<metadata>
Created by potrace 1.16, written by Peter Selinger 2001-2019
</metadata>
<g transform="translate(0.000000,101.000000) scale(0.100000,-0.100000)"
fill="#000000" stroke="none">
<path d="M628 1003 c-16 -4 -17 -20 -15 -175 l3 -170 -35 6 c-20 3 -44 6 -53
6 -14 0 -16 6 -11 30 3 19 1 30 -6 30 -13 0 -15 47 -2 52 4 2 10 35 13 75 4
57 2 73 -9 77 -8 4 -19 4 -24 1 -5 -3 -17 -1 -28 5 -15 7 -23 6 -36 -6 -13
-14 -15 -30 -9 -97 l7 -79 -45 26 c-25 14 -49 26 -54 26 -5 0 -19 -24 -32 -54
-13 -29 -28 -53 -35 -54 -7 0 -31 -3 -54 -5 l-43 -4 22 36 c12 20 47 74 77
121 31 47 57 88 59 91 3 6 -90 49 -106 49 -11 0 -33 -52 -38 -86 -5 -43 -65
-158 -98 -189 -19 -18 -33 -39 -32 -46 13 -64 14 -65 78 -67 33 -1 69 3 81 10
21 11 21 11 3 -18 -36 -56 -90 -117 -118 -133 -22 -13 -27 -22 -24 -46 7 -52
15 -62 44 -58 15 2 41 6 57 8 17 3 48 7 70 11 43 6 88 11 121 13 15 1 24 10
28 27 10 40 19 20 17 -36 -1 -27 4 -58 10 -68 9 -14 9 -37 2 -88 -6 -38 -9
-71 -7 -73 4 -5 44 -3 84 4 66 12 125 14 231 8 l106 -5 0 -29 c0 -16 3 -32 7
-36 7 -7 85 -7 92 -1 1 2 -1 35 -7 73 -11 85 -1 287 16 315 9 15 -34 31 -73
28 -37 -3 -37 -4 -40 -50 -2 -29 1 -48 7 -48 15 0 14 -67 -1 -73 -10 -4 -10
-8 1 -15 11 -8 12 -20 5 -54 -9 -41 -11 -43 -44 -40 -19 1 -45 3 -56 3 -21 1
-21 5 -20 173 l1 171 89 2 c49 1 91 5 95 8 3 4 6 70 7 148 1 78 4 152 8 165 5
13 3 22 -3 22 -19 0 -26 2 -43 11 -10 5 -28 7 -41 4 -22 -6 -24 -12 -26 -67
-1 -34 3 -66 10 -74 12 -14 7 -112 -6 -134 -3 -5 -26 -10 -49 -10 l-44 0 -5
53 c-10 88 -8 175 3 182 6 3 10 18 9 33 0 15 2 36 6 48 10 31 -43 51 -97 37z
m-216 -328 c-2 -35 2 -74 8 -86 11 -20 17 -20 103 -14 l92 7 0 -179 0 -178
-35 3 c-19 1 -45 3 -57 3 -17 1 -24 9 -28 33 -7 46 5 182 19 217 10 23 -8 32
-67 36 -45 3 -49 1 -44 -17 4 -14 0 -20 -11 -21 -10 0 -28 -3 -42 -5 -14 -3
-41 -7 -60 -8 -19 -2 -47 -7 -62 -11 -16 -4 -28 -5 -28 -2 0 4 75 113 181 260
11 15 23 27 27 27 4 0 6 -29 4 -65z"/>
<path d="M325 289 c-45 -13 -160 -29 -273 -38 -9 -1 -12 -12 -8 -38 8 -72 10
-73 74 -56 31 8 73 17 92 19 19 3 46 6 60 8 14 3 40 7 59 10 44 7 51 14 55 64
4 46 -1 49 -59 31z"/>
</g>
</svg>
