<?xml version="1.0" standalone="no"?>
<!DOCTYPE svg PUBLIC "-//W3C//DTD SVG 20010904//EN"
 "http://www.w3.org/TR/2001/REC-SVG-20010904/DTD/svg10.dtd">
<svg version="1.0" xmlns="http://www.w3.org/2000/svg"
 width="101.000000pt" height="101.000000pt" viewBox="0 0 101.000000 101.000000"
 preserveAspectRatio="xMidYMid meet">
<metadata>
Created by potrace 1.16, written by Peter Selinger 2001-2019
</metadata>
<g transform="translate(0.000000,101.000000) scale(0.100000,-0.100000)"
fill="#000000" stroke="none">
<path d="M552 957 c-26 -49 -94 -134 -123 -155 -16 -11 -23 -10 -44 4 -30 20
-28 21 -63 -46 -28 -56 -31 -58 -114 -63 -30 -2 -44 1 -40 8 57 94 134 204
146 208 33 13 21 24 -70 63 l-32 13 -27 -77 c-31 -87 -55 -131 -103 -184 l-34
-38 18 -45 c18 -42 21 -45 49 -39 17 3 41 7 55 9 14 2 35 6 48 9 12 2 22 2 22
-1 0 -14 -104 -133 -137 -158 -21 -16 -40 -30 -42 -31 -5 -4 30 -104 37 -104
4 0 23 4 42 10 68 18 95 22 135 21 52 -2 114 26 121 55 10 39 1 59 -26 58 -30
-1 -76 -11 -88 -18 -4 -2 -27 -7 -49 -10 l-41 -5 120 150 c97 122 122 148 133
139 12 -10 12 -14 -1 -28 -11 -11 -14 -25 -9 -51 4 -20 11 -37 16 -39 12 -5
12 -152 -1 -152 -8 0 -8 -214 -1 -312 2 -25 94 -53 156 -48 11 1 74 3 140 4
72 2 129 8 143 15 21 11 80 118 71 125 -2 1 -26 17 -52 34 l-48 32 -9 -26 c-6
-14 -8 -30 -5 -35 4 -5 -5 -20 -19 -34 -25 -25 -29 -26 -166 -25 -93 0 -100 1
-115 24 -10 15 -12 42 -8 101 l6 80 126 0 c122 0 127 -1 124 -20 -6 -33 12
-49 52 -48 20 1 39 4 43 8 4 4 8 90 8 191 2 183 0 192 -31 184 -31 -8 -132 -4
-126 5 33 43 121 165 121 168 0 3 -37 5 -82 5 -46 1 -103 2 -127 3 l-44 3 37
30 c20 17 36 34 36 37 0 8 -75 39 -93 39 -6 0 -22 -19 -35 -43z m141 -136 l27
-6 -46 -59 c-42 -53 -49 -58 -76 -52 -17 3 -53 6 -81 6 l-50 0 47 50 c25 27
46 54 46 60 0 11 86 12 133 1z m-77 -266 l1 -70 -39 3 c-36 4 -38 6 -39 41 0
20 -1 50 -2 66 -2 29 0 30 38 30 l40 0 1 -70z m191 2 l3 -72 -58 0 -57 1 -3
37 c-2 21 1 37 7 37 6 0 11 13 11 29 0 28 3 30 43 34 23 2 44 4 47 5 3 1 6
-31 7 -71z"/>
<path d="M336 293 c-2 -3 -19 -6 -38 -8 -18 -2 -63 -9 -100 -15 -48 -8 -72 -8
-87 -1 -13 7 -28 8 -45 1 -26 -9 -28 -23 -11 -83 7 -27 9 -27 59 -22 28 3 62
8 76 10 38 7 80 13 135 19 27 4 53 10 57 14 5 5 10 27 12 49 3 40 2 42 -25 41
-16 -1 -31 -3 -33 -5z"/>
</g>
</svg>
