<?xml version="1.0" standalone="no"?>
<!DOCTYPE svg PUBLIC "-//W3C//DTD SVG 20010904//EN"
 "http://www.w3.org/TR/2001/REC-SVG-20010904/DTD/svg10.dtd">
<svg version="1.0" xmlns="http://www.w3.org/2000/svg"
 width="101.000000pt" height="101.000000pt" viewBox="0 0 101.000000 101.000000"
 preserveAspectRatio="xMidYMid meet">
<metadata>
Created by potrace 1.16, written by Peter Selinger 2001-2019
</metadata>
<g transform="translate(0.000000,101.000000) scale(0.100000,-0.100000)"
fill="#000000" stroke="none">
<path d="M176 948 c-27 -77 -93 -198 -128 -234 -25 -27 -28 -35 -19 -53 6 -11
11 -24 10 -28 -6 -35 -6 -35 129 -19 17 3 32 1 32 -2 0 -19 -96 -126 -121
-136 -26 -9 -29 -14 -25 -46 5 -46 16 -71 26 -65 5 3 28 8 52 11 24 2 54 6 68
8 14 2 52 7 85 11 68 7 67 7 69 37 1 18 8 24 31 26 57 6 104 6 110 0 4 -4 -9
-32 -29 -62 -39 -61 -41 -66 -26 -66 6 0 41 -14 78 -31 l67 -31 -60 -29 c-32
-16 -90 -36 -127 -46 -37 -10 -68 -20 -68 -23 1 -3 16 -22 35 -43 l33 -38 75
31 c41 17 105 49 141 71 l66 40 97 -66 c53 -36 96 -64 97 -63 1 2 14 20 29 40
15 20 27 39 27 42 0 3 -45 28 -100 56 l-100 50 26 42 c15 23 35 60 45 82 16
35 22 41 54 43 20 1 47 -2 59 -7 12 -4 28 -5 35 -1 11 7 20 85 11 95 -3 2 -28
0 -56 -5 -29 -5 -89 -7 -135 -4 -46 3 -94 6 -106 6 -25 1 -23 10 10 46 11 13
18 25 15 29 -6 5 -111 35 -113 31 -1 -1 -8 -24 -16 -52 l-15 -50 -64 2 c-36 2
-75 3 -88 4 -29 1 -34 -3 -36 -35 0 -14 -3 -26 -6 -27 -3 0 -14 -2 -25 -4 -45
-7 -92 -15 -118 -20 l-29 -6 44 58 c25 32 68 94 98 138 29 44 62 88 74 97 19
15 19 19 6 32 -8 8 -32 22 -53 31 -35 14 -38 14 -43 -2 -4 -10 -17 -41 -30
-69 -22 -46 -26 -50 -53 -46 -16 2 -37 0 -47 -6 -36 -18 -47 -2 -21 31 13 18
43 64 66 103 23 40 51 80 61 89 11 10 20 24 20 32 0 13 -71 52 -96 53 -5 0
-18 -24 -28 -52z m534 -488 c13 -8 12 -15 -9 -53 -45 -83 -42 -81 -100 -56
-29 12 -50 25 -49 28 2 3 12 23 23 44 12 25 24 36 34 32 9 -2 23 0 31 5 19 12
51 12 70 0z"/>
<path d="M750 969 c-91 -27 -194 -40 -303 -38 -67 0 -80 -5 -67 -29 6 -9 14
-29 19 -43 8 -23 15 -26 53 -27 24 0 61 4 83 10 22 6 51 12 65 14 14 1 45 5
70 8 71 8 161 15 208 15 55 1 56 23 4 74 -43 42 -43 42 -132 16z"/>
<path d="M805 822 c-5 -15 -10 -36 -12 -47 -1 -11 -16 -46 -33 -78 -26 -52
-27 -59 -12 -63 9 -3 27 -11 39 -17 13 -6 25 -8 26 -6 5 6 107 201 107 204 0
4 -62 26 -86 31 -17 3 -24 -2 -29 -24z"/>
<path d="M598 819 c-9 -5 -15 -15 -13 -22 3 -6 7 -28 10 -47 3 -19 8 -44 10
-55 2 -11 4 -23 4 -27 2 -19 43 -29 70 -18 30 12 34 31 15 68 -7 14 -10 30 -8
37 3 7 1 16 -5 20 -6 3 -11 14 -11 25 0 28 -39 39 -72 19z"/>
<path d="M437 795 c-15 -11 -16 -16 -2 -60 7 -26 13 -51 13 -54 -1 -3 2 -18 6
-32 6 -23 12 -26 43 -23 19 1 37 5 41 8 3 3 -1 32 -8 63 -8 32 -14 63 -15 68
-5 41 -43 56 -78 30z"/>
<path d="M359 316 c-2 -2 -20 -7 -39 -10 -19 -3 -46 -8 -60 -11 -14 -3 -41 -8
-61 -10 -20 -2 -46 -9 -57 -16 -16 -10 -26 -10 -45 -2 -23 11 -67 8 -67 -4 0
-3 7 -29 15 -58 l16 -53 47 14 c25 8 62 17 82 20 19 3 46 7 60 10 24 5 42 8
103 18 37 6 36 5 41 59 4 40 2 47 -13 47 -10 0 -20 -2 -22 -4z"/>
</g>
</svg>
