<?xml version="1.0" standalone="no"?>
<!DOCTYPE svg PUBLIC "-//W3C//DTD SVG 20010904//EN"
 "http://www.w3.org/TR/2001/REC-SVG-20010904/DTD/svg10.dtd">
<svg version="1.0" xmlns="http://www.w3.org/2000/svg"
 width="101.000000pt" height="101.000000pt" viewBox="0 0 101.000000 101.000000"
 preserveAspectRatio="xMidYMid meet">
<metadata>
Created by potrace 1.16, written by Peter Selinger 2001-2019
</metadata>
<g transform="translate(0.000000,101.000000) scale(0.100000,-0.100000)"
fill="#000000" stroke="none">
<path d="M200 948 c-29 -84 -85 -186 -121 -224 -26 -27 -28 -34 -19 -58 5 -15
9 -30 9 -34 -3 -19 2 -33 10 -27 6 3 29 8 53 10 24 3 55 6 70 8 24 3 26 1 16
-17 -22 -44 -82 -108 -114 -123 -29 -14 -31 -19 -23 -41 5 -14 7 -27 5 -30 -3
-2 -1 -13 5 -24 7 -13 16 -17 30 -13 11 4 36 9 55 11 19 2 49 6 67 9 17 2 52
6 76 8 28 3 50 12 59 23 13 17 14 17 9 1 -4 -9 -2 -27 4 -40 6 -14 7 -42 1
-80 -10 -63 -10 -63 53 -58 33 3 47 18 39 42 -3 12 2 17 18 18 13 0 39 2 58 3
32 3 35 1 38 -27 2 -16 3 -53 3 -81 0 -59 12 -74 73 -92 26 -7 45 -8 57 -2 10
6 48 8 84 6 93 -6 120 6 141 60 9 24 15 46 13 47 -9 7 -80 47 -83 47 -2 0 -7
-16 -10 -35 -6 -30 -12 -36 -49 -46 -30 -8 -50 -8 -70 -1 -16 6 -34 9 -41 6
-23 -9 -40 23 -28 51 6 14 9 31 6 39 -6 15 -4 15 106 19 36 1 74 -2 85 -6 19
-7 20 -2 23 172 3 125 0 181 -7 186 -7 4 -54 9 -106 12 -75 5 -94 9 -98 22 -3
14 7 17 80 16 70 0 84 3 89 17 3 10 1 25 -4 35 -10 19 -7 136 3 153 4 6 4 19
0 29 -6 19 -12 20 -142 5 -40 -4 -67 -3 -75 4 -8 6 -38 11 -68 12 -30 1 -72 2
-92 3 -21 0 -41 -3 -45 -7 -4 -4 -7 -62 -7 -129 l1 -122 80 3 c77 2 80 1 79
-20 -1 -29 -22 -36 -113 -37 -47 -1 -73 3 -75 11 -2 6 -10 8 -16 4 -15 -9 -16
-66 -1 -66 6 0 9 -21 7 -52 -3 -45 -6 -53 -23 -55 -23 -2 -86 -10 -133 -17
l-33 -5 32 42 c17 23 56 80 87 127 30 47 67 98 81 113 26 28 26 29 6 44 -11 8
-32 21 -47 29 l-27 14 -31 -68 c-24 -52 -36 -67 -53 -68 -12 -1 -40 -4 -62 -6
l-40 -4 62 96 c34 52 73 109 87 126 14 18 26 37 26 43 0 12 -74 50 -96 51 -6
0 -21 -28 -34 -62z m505 -64 l50 -6 0 -45 0 -44 -110 3 -110 3 0 38 -1 37 43
0 c24 0 43 5 43 10 0 12 15 12 85 4z m-115 -331 c0 -46 -1 -48 -35 -45 -16 1
-39 3 -50 3 -16 1 -20 8 -20 38 l0 36 52 0 53 0 0 -32z m214 -5 c-2 -42 -3
-43 -36 -40 -18 1 -42 3 -53 3 -16 1 -20 8 -20 33 0 30 1 31 55 37 30 3 55 6
56 7 0 1 -1 -17 -2 -40z m-209 -133 c0 -40 0 -40 -35 -37 -19 1 -45 3 -56 3
-18 1 -22 7 -21 35 1 26 5 33 16 29 9 -2 23 0 31 5 8 6 26 9 40 8 22 -3 25 -8
25 -43z m210 -5 l0 -45 -35 3 c-19 1 -45 3 -57 3 -19 1 -22 7 -20 40 1 30 5
38 17 34 8 -2 22 0 30 5 8 6 26 9 40 8 23 -3 25 -7 25 -48z"/>
<path d="M339 316 c-5 -5 -69 -16 -115 -21 -17 -2 -41 -9 -52 -16 -17 -11 -28
-11 -52 -2 -45 17 -71 7 -63 -26 16 -69 21 -74 61 -66 20 4 48 9 62 12 14 2
36 6 50 9 24 5 41 8 103 18 37 6 37 6 42 55 3 34 1 41 -14 41 -10 0 -20 -2
-22 -4z"/>
</g>
</svg>
