<?xml version="1.0" standalone="no"?>
<!DOCTYPE svg PUBLIC "-//W3C//DTD SVG 20010904//EN"
 "http://www.w3.org/TR/2001/REC-SVG-20010904/DTD/svg10.dtd">
<svg version="1.0" xmlns="http://www.w3.org/2000/svg"
 width="101.000000pt" height="101.000000pt" viewBox="0 0 101.000000 101.000000"
 preserveAspectRatio="xMidYMid meet">
<metadata>
Created by potrace 1.16, written by Peter Selinger 2001-2019
</metadata>
<g transform="translate(0.000000,101.000000) scale(0.100000,-0.100000)"
fill="#000000" stroke="none">
<path d="M630 1002 c-10 -5 -15 -22 -15 -52 l0 -45 -102 3 c-94 4 -101 3 -107
-16 -4 -11 -4 -32 0 -46 7 -30 33 -36 134 -33 63 2 65 1 65 -23 l0 -25 -102 0
c-89 1 -105 4 -125 22 -13 11 -33 26 -46 32 -21 11 -24 8 -48 -49 -15 -33 -32
-60 -38 -61 -6 0 -29 -1 -52 -3 l-40 -2 58 105 c33 58 66 110 74 114 25 14 15
37 -21 53 -71 30 -72 29 -111 -86 -37 -110 -51 -138 -90 -180 -21 -23 -22 -30
-13 -64 10 -37 11 -38 47 -31 20 4 53 8 73 9 l36 1 -38 -56 c-36 -53 -91 -109
-108 -109 -5 0 -4 -20 2 -45 l10 -44 46 5 c25 3 64 8 86 11 46 6 82 10 110 12
33 2 46 16 51 54 l4 37 -42 -5 c-66 -9 -128 -13 -128 -9 0 9 172 253 187 265
12 10 15 10 9 1 -4 -7 -5 -23 -2 -35 4 -19 11 -22 44 -19 49 5 61 -12 33 -42
l-21 -23 58 -51 59 -51 25 25 25 25 7 -77 c7 -92 -5 -116 -49 -96 -13 6 -32 9
-42 5 -19 -7 -12 9 19 43 19 21 18 21 -21 57 -22 19 -51 43 -65 52 -24 16 -26
15 -55 -6 -17 -13 -31 -25 -30 -28 0 -3 27 -28 60 -54 32 -26 59 -52 59 -56 0
-5 -17 -7 -37 -5 -52 6 -74 6 -81 -1 -7 -7 -6 -74 1 -81 8 -9 72 -3 117 10 14
4 43 3 65 -2 l40 -9 -44 -41 c-44 -42 -123 -79 -187 -87 -54 -7 -56 -13 -13
-56 l41 -41 46 17 c122 46 198 101 231 167 16 33 27 44 48 46 50 6 141 2 166
-7 30 -12 45 -3 48 29 6 65 -21 79 -99 52 -35 -12 -52 -13 -74 -4 -16 6 -35 9
-42 6 -9 -4 -12 4 -9 28 3 18 7 56 9 83 8 93 9 100 18 114 18 28 -37 49 -91
35 -17 -5 -21 -12 -18 -35 2 -16 0 -31 -5 -34 -10 -6 -122 77 -114 84 2 3 33
4 69 3 35 -1 67 3 70 8 3 6 35 10 70 10 80 0 91 -14 64 -77 -10 -24 -14 -43
-9 -43 19 0 25 -2 37 -12 29 -24 51 2 82 95 17 51 31 94 31 97 0 3 -51 6 -113
5 -110 0 -113 1 -109 21 3 19 13 22 79 28 42 3 93 6 114 6 42 0 55 19 43 64
l-6 25 -117 -2 c-129 -2 -127 -3 -107 61 11 32 -42 53 -84 34z"/>
<path d="M308 324 c-4 -3 -47 -12 -98 -19 -14 -3 -36 -7 -50 -10 -14 -3 -38
-7 -55 -9 -16 -3 -40 -8 -52 -13 l-22 -8 19 -43 c20 -43 20 -43 62 -38 24 3
54 8 68 11 14 3 39 7 55 10 17 4 39 8 50 10 11 3 32 7 47 9 49 7 54 20 33 85
-5 16 -46 27 -57 15z"/>
<path d="M696 268 c-24 -30 -24 -34 -9 -43 9 -5 52 -37 95 -69 l80 -59 36 36
c32 32 35 39 22 51 -18 18 -180 116 -191 116 -4 0 -19 -15 -33 -32z"/>
</g>
</svg>
