<?xml version="1.0" standalone="no"?>
<!DOCTYPE svg PUBLIC "-//W3C//DTD SVG 20010904//EN"
 "http://www.w3.org/TR/2001/REC-SVG-20010904/DTD/svg10.dtd">
<svg version="1.0" xmlns="http://www.w3.org/2000/svg"
 width="101.000000pt" height="102.000000pt" viewBox="0 0 101.000000 102.000000"
 preserveAspectRatio="xMidYMid meet">
<metadata>
Created by potrace 1.16, written by Peter Selinger 2001-2019
</metadata>
<g transform="translate(0.000000,102.000000) scale(0.100000,-0.100000)"
fill="#000000" stroke="none">
<path d="M175 963 c-23 -80 -81 -203 -110 -233 -21 -22 -22 -30 -16 -68 5 -23
11 -45 14 -48 3 -3 21 -1 39 5 37 12 98 21 98 14 0 -2 -11 -23 -25 -46 -29
-51 -82 -107 -100 -107 -10 0 -11 -8 -5 -31 5 -18 8 -35 5 -38 -2 -4 0 -13 5
-21 7 -11 19 -10 72 5 34 9 74 18 88 20 40 3 84 17 92 29 10 14 10 48 0 63 -6
10 -23 9 -75 -6 l-66 -18 25 41 c13 23 50 85 80 139 31 53 59 99 63 101 3 2 4
-18 2 -46 -2 -28 2 -55 8 -61 14 -14 14 -54 1 -62 -7 -4 -8 -23 -5 -48 4 -23
2 -54 -4 -70 -8 -19 -7 -34 1 -52 8 -18 8 -28 0 -38 -6 -7 -14 -31 -18 -53 -7
-48 -13 -55 -21 -25 -6 24 -5 24 -93 6 -63 -13 -103 -19 -166 -24 -12 -1 -14
-10 -11 -47 3 -25 7 -47 9 -49 2 -3 25 2 52 10 26 8 51 14 54 13 4 -1 26 4 50
11 24 7 56 14 72 16 l30 3 -35 -54 c-40 -63 -41 -64 -17 -64 9 0 30 -7 45 -15
27 -14 28 -13 48 18 35 58 80 214 81 282 0 17 7 21 43 23 38 1 43 -1 44 -21 1
-12 3 -49 5 -81 6 -79 -6 -108 -41 -105 -62 5 -62 4 -44 -46 18 -51 26 -55 93
-35 20 6 25 5 22 -5 -6 -15 3 -22 37 -29 13 -2 31 -7 40 -11 12 -4 23 10 46
62 30 66 43 102 49 133 8 39 16 97 16 115 0 17 7 21 43 23 38 1 43 -1 44 -21
0 -12 3 -54 6 -94 6 -87 -5 -125 -37 -122 -55 5 -58 2 -37 -38 10 -21 19 -42
19 -49 0 -15 47 -11 91 8 33 15 36 20 42 68 4 29 2 60 -3 69 -5 9 -6 55 -4
101 3 47 5 138 5 203 0 64 0 132 0 150 0 17 1 79 3 136 l4 103 -83 -7 c-60 -5
-88 -3 -103 6 -16 10 -26 10 -46 1 -22 -10 -26 -18 -26 -57 0 -25 5 -45 10
-45 6 0 10 -16 10 -35 0 -19 -4 -35 -10 -35 -6 0 -10 -30 -10 -70 0 -40 4 -70
10 -70 6 0 10 -11 10 -25 0 -14 -5 -25 -11 -25 -6 0 -10 -25 -9 -67 3 -116 -9
-200 -39 -268 l-18 -40 -7 88 c-5 57 -4 92 3 100 13 16 14 214 1 222 -13 8
-13 52 0 60 6 4 10 60 9 139 l-1 133 -124 -1 -124 -1 -6 -32 c-3 -18 -4 -50
-2 -72 l3 -39 -36 19 -37 18 -21 -57 c-31 -85 -33 -86 -102 -83 l-26 1 58 113
c32 63 65 120 74 127 12 10 13 16 3 27 -9 11 -71 43 -84 43 -1 0 -10 -26 -19
-57z m341 -97 c1 -1 5 -30 8 -66 l7 -65 -39 0 -39 -1 1 72 1 72 30 -5 c17 -3
31 -6 31 -7z m319 -62 l0 -72 -37 2 -38 1 3 70 2 70 35 0 35 0 0 -71z m-308
-216 l1 -77 -38 2 -38 1 2 76 1 76 35 -1 35 0 2 -77z m299 58 c1 -1 4 -33 7
-73 l6 -72 -39 2 -38 1 1 77 2 77 30 -5 c17 -3 31 -6 31 -7z"/>
</g>
</svg>
