<?xml version="1.0" standalone="no"?>
<!DOCTYPE svg PUBLIC "-//W3C//DTD SVG 20010904//EN"
 "http://www.w3.org/TR/2001/REC-SVG-20010904/DTD/svg10.dtd">
<svg version="1.0" xmlns="http://www.w3.org/2000/svg"
 width="101.000000pt" height="102.000000pt" viewBox="0 0 101.000000 102.000000"
 preserveAspectRatio="xMidYMid meet">
<metadata>
Created by potrace 1.16, written by Peter Selinger 2001-2019
</metadata>
<g transform="translate(0.000000,102.000000) scale(0.100000,-0.100000)"
fill="#000000" stroke="none">
<path d="M589 1008 c0 -12 -7 -46 -14 -78 -2 -8 -4 -18 -4 -21 -1 -3 -24 -2
-52 2 -27 4 -57 5 -65 2 -20 -7 -29 -50 -14 -68 9 -10 10 -47 6 -134 -3 -65
-8 -126 -12 -134 -8 -21 58 -34 92 -18 14 6 40 11 58 11 30 0 32 -2 32 -32
l-1 -33 -50 3 c-27 1 -67 5 -88 8 -23 4 -43 2 -52 -6 -17 -14 -21 -90 -5 -90
15 0 12 -67 -2 -74 -10 -5 -10 -7 0 -12 16 -7 16 -136 0 -152 -19 -19 2 -27
62 -24 l25 2 2 113 c2 156 2 155 27 156 11 0 34 2 51 3 34 3 32 9 40 -123 3
-50 0 -90 -8 -115 -8 -22 -12 -55 -9 -76 4 -39 21 -49 65 -41 l26 5 -1 152 c0
194 0 194 26 195 11 0 37 2 56 3 29 3 35 0 36 -17 0 -11 3 -31 7 -45 4 -14 4
-47 -1 -75 l-7 -50 -48 2 -47 2 16 -30 c8 -17 13 -33 10 -36 -3 -3 -1 -14 5
-25 8 -15 18 -18 47 -14 47 5 88 21 99 38 4 7 9 69 9 138 1 69 4 140 6 158 4
28 1 33 -19 38 -12 4 -35 3 -50 -2 -16 -4 -53 -8 -83 -8 -54 -1 -55 -1 -56 29
l0 30 90 -1 91 -1 2 173 2 173 -115 -2 c-63 -1 -114 0 -114 3 0 3 9 23 21 44
11 21 18 41 14 44 -3 3 -21 6 -40 5 -19 -1 -35 3 -35 8 0 14 -30 11 -31 -3z
m196 -207 c0 -25 -1 -26 -57 -23 -37 3 -58 0 -58 -7 0 -6 -11 -11 -25 -11 -14
0 -25 5 -25 10 0 6 -17 10 -39 10 -32 0 -39 4 -43 23 -4 22 -3 22 121 23 l126
1 0 -26z m1 -135 l-1 -29 -80 7 c-44 3 -99 6 -121 6 -35 0 -42 4 -46 23 -4 22
-4 22 122 22 l127 0 -1 -29z"/>
<path d="M194 958 c-26 -80 -80 -184 -118 -226 -32 -35 -34 -41 -26 -80 9 -53
11 -55 44 -43 14 6 32 8 40 5 7 -3 20 2 29 10 18 18 43 21 52 6 13 -21 -80
-133 -129 -155 -22 -10 -22 -11 -9 -58 12 -41 17 -47 34 -42 11 4 35 9 52 11
18 2 50 6 72 9 22 2 59 6 83 8 51 5 52 6 58 50 4 34 -14 55 -36 42 -4 -3 -25
-7 -46 -10 -22 -3 -51 -8 -66 -10 -25 -4 -25 -2 24 63 28 37 67 92 86 122 19
30 49 70 66 88 l31 34 -24 16 c-14 10 -37 22 -53 29 -25 11 -30 10 -35 -5 -3
-9 -16 -39 -29 -67 -19 -42 -28 -50 -51 -52 -15 0 -43 -3 -60 -5 -18 -2 -33
-3 -33 -1 0 2 15 24 34 50 18 27 48 73 65 104 17 31 40 64 51 74 11 10 20 24
20 32 0 12 -77 53 -100 53 -5 0 -16 -24 -26 -52z"/>
<path d="M369 336 c-2 -2 -20 -7 -39 -10 -19 -3 -46 -8 -60 -11 -14 -4 -44 -8
-68 -10 -24 -2 -50 -9 -58 -16 -11 -9 -21 -9 -38 -1 -33 15 -68 5 -61 -18 3
-10 8 -33 10 -50 2 -18 8 -37 12 -41 5 -5 37 1 72 11 34 11 79 23 99 26 21 3
48 7 62 10 14 3 37 6 53 8 36 4 37 6 42 60 4 34 1 46 -8 46 -8 0 -16 -2 -18
-4z"/>
</g>
</svg>
