<?xml version="1.0" standalone="no"?>
<!DOCTYPE svg PUBLIC "-//W3C//DTD SVG 20010904//EN"
 "http://www.w3.org/TR/2001/REC-SVG-20010904/DTD/svg10.dtd">
<svg version="1.0" xmlns="http://www.w3.org/2000/svg"
 width="101.000000pt" height="101.000000pt" viewBox="0 0 101.000000 101.000000"
 preserveAspectRatio="xMidYMid meet">
<metadata>
Created by potrace 1.16, written by Peter Selinger 2001-2019
</metadata>
<g transform="translate(0.000000,101.000000) scale(0.100000,-0.100000)"
fill="#000000" stroke="none">
<path d="M193 983 c-45 -127 -97 -226 -130 -253 -23 -18 -24 -26 -8 -90 2 -8
4 -18 4 -22 2 -14 39 -8 55 7 10 11 30 15 60 13 50 -3 52 3 -27 -90 -26 -31
-57 -60 -68 -63 -22 -7 -23 -16 -9 -67 10 -35 13 -37 43 -32 18 3 43 7 57 9
14 2 43 7 65 10 22 4 55 7 73 8 32 2 56 23 46 39 -3 4 0 16 5 25 6 10 11 12
11 5 0 -9 30 -11 128 -8 l127 3 -2 -51 c0 -28 2 -55 7 -61 10 -13 11 -107 1
-123 -10 -16 -75 39 -91 78 -12 28 -11 34 9 60 11 16 21 33 21 38 0 14 -90 37
-99 26 -4 -5 -13 -29 -20 -54 -19 -66 -55 -132 -107 -195 -25 -31 -44 -58 -42
-60 5 -5 80 -35 87 -35 4 0 26 33 50 73 l44 74 42 -42 c48 -49 127 -80 255
-102 19 -3 43 -5 53 -4 9 1 30 2 47 4 23 2 34 10 50 42 11 21 20 42 20 45 0 3
-42 7 -92 7 -149 2 -153 3 -150 38 1 17 3 40 3 53 1 16 6 22 15 18 8 -3 25 -1
37 5 16 7 41 7 74 1 50 -9 51 -8 56 16 3 13 2 33 0 44 -5 16 -11 18 -37 11
-28 -7 -45 -7 -123 -2 -20 1 -22 6 -21 45 2 44 3 44 39 44 21 0 39 5 41 11 3
9 25 9 81 2 85 -10 95 -4 82 50 l-7 25 -261 1 c-144 1 -273 2 -287 4 -19 1
-27 -4 -35 -28 -11 -31 -22 -37 -65 -37 -14 0 -29 -3 -34 -6 -5 -2 -24 -6 -42
-7 l-33 -2 52 66 c28 36 67 86 86 111 19 25 50 61 69 82 19 20 31 41 27 47 -9
15 -84 53 -93 47 -4 -2 -20 -31 -36 -64 -19 -40 -33 -59 -42 -55 -8 3 -22 2
-31 -2 -10 -4 -32 -8 -49 -9 l-31 -3 60 96 c32 53 71 107 85 119 28 26 28 26
-40 62 -45 24 -47 24 -55 3z"/>
<path d="M470 952 c-12 -6 -15 -32 -17 -133 -1 -69 -5 -138 -9 -153 -3 -14 -3
-37 0 -50 6 -23 7 -24 103 -20 129 6 283 5 308 -1 23 -5 21 -18 29 217 l4 136
-47 1 c-67 1 -162 0 -233 -1 -35 0 -76 2 -93 5 -16 4 -37 3 -45 -1z m278 -68
c25 -5 31 -12 34 -39 l4 -33 -121 1 -121 2 0 30 c1 30 2 30 48 28 26 -2 50 1
53 7 7 11 57 13 103 4z m37 -179 l0 -30 -120 0 -120 0 0 30 0 30 120 1 120 0
0 -31z"/>
<path d="M302 335 c-65 -21 -154 -35 -270 -44 -8 -1 -11 -8 -7 -20 3 -10 8
-33 10 -51 2 -18 6 -34 9 -37 3 -3 47 6 98 21 51 14 109 29 128 32 19 3 46 7
59 9 30 5 39 14 42 45 6 65 2 67 -69 45z"/>
</g>
</svg>
