<?xml version="1.0" standalone="no"?>
<!DOCTYPE svg PUBLIC "-//W3C//DTD SVG 20010904//EN"
 "http://www.w3.org/TR/2001/REC-SVG-20010904/DTD/svg10.dtd">
<svg version="1.0" xmlns="http://www.w3.org/2000/svg"
 width="101.000000pt" height="101.000000pt" viewBox="0 0 101.000000 101.000000"
 preserveAspectRatio="xMidYMid meet">
<metadata>
Created by potrace 1.16, written by Peter Selinger 2001-2019
</metadata>
<g transform="translate(0.000000,101.000000) scale(0.100000,-0.100000)"
fill="#000000" stroke="none">
<path d="M450 972 c-9 -28 -75 -182 -86 -200 -1 -2 -17 6 -35 17 -19 12 -37
21 -40 21 -3 0 -15 -24 -27 -52 -22 -53 -22 -53 -67 -53 -25 0 -45 1 -45 3 0
14 118 197 137 211 12 11 23 21 23 24 0 6 -107 57 -119 57 -8 0 -31 -63 -38
-105 -7 -37 -64 -150 -90 -177 -22 -23 -24 -32 -18 -67 l7 -41 41 4 c23 3 54
6 70 9 15 2 27 1 27 -3 0 -17 -92 -131 -114 -141 -19 -9 -24 -18 -22 -44 4
-49 12 -56 64 -51 26 2 79 6 117 9 89 7 101 12 111 45 15 53 13 61 -15 57 -14
-1 -26 -4 -26 -4 0 -1 -13 -4 -30 -6 -16 -2 -45 -6 -63 -9 -18 -3 -32 -2 -30
2 10 23 168 250 182 261 14 12 19 11 31 -5 15 -20 75 -129 75 -136 0 -2 -15
-2 -34 0 l-33 4 -2 -70 c-1 -39 3 -73 9 -77 12 -8 13 -52 1 -59 -12 -8 -13
-114 -1 -121 14 -8 13 -121 -1 -147 -14 -26 -6 -33 43 -31 43 2 61 17 52 44
-3 12 2 17 18 18 13 0 52 3 88 6 36 3 93 3 128 -1 53 -5 62 -8 58 -22 -10 -30
10 -46 55 -45 50 2 54 5 40 31 -14 26 -14 99 -1 107 12 7 11 113 -1 121 -12 7
-11 51 1 59 11 7 13 124 3 158 -4 15 -16 18 -71 18 -62 -1 -225 5 -282 9 l-25
1 23 11 c12 6 22 16 22 22 0 6 -22 42 -49 79 -27 37 -48 73 -47 80 3 21 57
110 84 140 31 32 24 42 -41 62 l-46 14 -11 -37z m168 -504 l-3 -53 -60 3 c-33
2 -61 5 -63 6 -1 2 1 23 4 47 l6 44 60 3 59 2 -3 -52z m177 0 l0 -53 -50 0
-50 0 3 47 c4 49 9 53 72 57 24 1 25 -2 25 -51z m-190 -143 c0 -11 4 -30 9
-43 11 -34 -10 -55 -48 -47 -17 3 -42 7 -56 8 -20 2 -24 7 -22 27 2 14 3 35 4
48 0 16 5 21 17 18 9 -3 23 -1 31 4 25 17 65 8 65 -15z m192 -5 c0 -14 4 -34
8 -46 9 -29 -17 -48 -52 -38 -16 4 -37 8 -48 8 -15 1 -19 7 -17 26 2 14 3 35
4 48 0 16 5 21 17 18 9 -3 23 -1 31 4 26 18 55 7 57 -20z"/>
<path d="M839 1003 c-9 -2 -23 -27 -33 -61 -10 -31 -32 -83 -49 -114 l-31 -57
45 -48 c24 -26 55 -63 69 -82 l26 -34 42 22 43 22 -61 69 -62 70 37 67 c20 38
46 78 57 89 11 12 16 24 11 27 -25 15 -80 33 -94 30z"/>
<path d="M627 947 c-9 -29 -32 -79 -52 -111 -19 -32 -35 -62 -35 -65 0 -4 14
-20 31 -37 17 -16 45 -49 62 -74 16 -25 32 -47 34 -49 6 -8 83 32 83 43 0 6
-25 36 -55 66 l-56 56 32 60 c17 32 42 73 55 91 13 17 24 34 24 38 0 9 -66 35
-88 35 -13 0 -23 -14 -35 -53z"/>
<path d="M309 340 c-31 -10 -74 -21 -95 -25 -69 -11 -88 -15 -123 -20 -18 -2
-36 -6 -38 -9 -9 -9 0 -93 11 -104 4 -3 43 7 89 21 45 15 98 30 117 33 19 3
46 7 59 9 13 2 28 8 33 13 12 12 22 102 11 101 -4 -1 -33 -9 -64 -19z"/>
</g>
</svg>
