<?xml version="1.0" standalone="no"?>
<!DOCTYPE svg PUBLIC "-//W3C//DTD SVG 20010904//EN"
 "http://www.w3.org/TR/2001/REC-SVG-20010904/DTD/svg10.dtd">
<svg version="1.0" xmlns="http://www.w3.org/2000/svg"
 width="101.000000pt" height="101.000000pt" viewBox="0 0 101.000000 101.000000"
 preserveAspectRatio="xMidYMid meet">
<metadata>
Created by potrace 1.16, written by Peter Selinger 2001-2019
</metadata>
<g transform="translate(0.000000,101.000000) scale(0.100000,-0.100000)"
fill="#000000" stroke="none">
<path d="M197 1003 c-5 -9 -30 -82 -33 -98 -14 -64 -73 -176 -104 -198 -18
-13 -19 -17 -7 -58 10 -34 18 -43 33 -42 10 2 38 5 61 7 24 3 48 8 54 12 7 4
1 -13 -12 -37 -25 -46 -95 -123 -117 -130 -11 -4 -11 -13 -1 -52 l12 -48 41 6
c22 3 52 8 66 11 14 3 34 7 45 8 47 6 96 19 101 28 3 5 7 25 9 44 2 34 1 35
-29 30 -39 -7 -63 -12 -101 -22 l-30 -7 17 24 c10 13 47 71 82 129 101 164 92
161 99 28 4 -64 3 -127 -2 -140 -12 -33 -3 -75 19 -81 10 -2 30 -2 44 0 25 5
31 19 28 64 -1 11 7 17 21 18 12 0 38 2 57 3 29 3 35 0 36 -17 2 -47 5 -53 23
-58 10 -2 31 -2 46 1 24 4 26 8 21 37 -6 29 -4 33 16 33 13 1 37 4 53 7 40 7
54 -4 48 -38 -4 -20 -11 -27 -27 -26 -51 5 -58 0 -54 -31 4 -28 2 -30 -36 -35
-42 -6 -154 -1 -216 10 -47 8 -80 8 -87 1 -8 -8 -8 -64 0 -72 6 -6 22 -6 102
1 28 2 94 2 148 -2 75 -4 97 -8 93 -18 -3 -8 0 -27 6 -43 17 -43 -2 -62 -58
-60 -23 1 -45 0 -48 -3 -11 -10 29 -98 46 -102 22 -6 114 17 134 34 10 8 14
31 14 73 -1 106 0 114 24 116 11 1 42 2 68 2 49 1 62 15 51 58 -6 24 -7 24
-33 8 -15 -10 -27 -10 -51 -1 -17 7 -37 9 -45 6 -8 -3 -14 1 -14 8 0 22 17 42
28 35 26 -16 41 6 41 57 0 29 0 61 1 72 3 51 -6 235 -12 235 -4 0 -10 -4 -13
-10 -8 -13 -125 -13 -125 -1 0 5 -12 11 -27 13 -50 6 -35 23 18 19 29 -2 56 2
62 8 14 14 50 14 63 1 17 -17 92 -1 99 21 14 42 -27 82 -67 66 -21 -7 -33 -3
-30 10 3 12 -34 93 -43 93 -7 0 -85 -32 -85 -35 0 -1 7 -19 15 -38 8 -20 15
-38 15 -39 0 -2 -17 -3 -38 -3 l-37 -1 2 58 2 58 -52 0 c-32 0 -47 -4 -39 -9
9 -5 12 -24 10 -56 l-3 -48 -71 0 c-39 1 -89 4 -111 8 -58 9 -92 -30 -63 -75
10 -17 109 -20 191 -6 44 8 46 7 45 -15 -1 -13 -5 -27 -11 -31 -15 -11 -83
-10 -90 2 -3 5 -34 9 -68 8 -42 -1 -73 4 -95 16 -36 19 -30 25 -62 -64 -7 -20
-20 -36 -29 -37 -9 -1 -21 -2 -26 -3 -6 -1 -20 -2 -32 -1 -20 1 -16 10 44 114
36 61 71 119 79 128 20 23 18 28 -18 43 -54 22 -76 27 -81 19z m389 -319 c-1
-19 -7 -21 -56 -20 -48 1 -55 4 -55 21 0 18 7 20 56 20 51 0 56 -2 55 -21z
m210 1 c-1 -31 -35 -43 -72 -27 -13 7 -30 9 -38 6 -11 -4 -13 0 -9 15 4 15 15
21 47 24 22 2 48 4 57 5 12 1 16 -5 15 -23z m-211 -105 c0 -34 -1 -35 -35 -32
-19 1 -44 3 -56 3 -16 1 -21 8 -21 30 0 22 4 28 16 24 9 -2 23 0 31 5 8 6 26
9 40 8 21 -3 25 -8 25 -38z m200 32 c6 -4 11 -19 12 -35 1 -21 -5 -29 -24 -33
-13 -4 -35 -2 -49 4 -13 7 -30 9 -37 6 -10 -3 -14 4 -14 26 0 23 4 29 16 25 9
-2 23 0 31 5 18 11 51 13 65 2z"/>
<path d="M295 314 c-27 -7 -68 -16 -90 -19 -101 -15 -145 -26 -145 -36 0 -5 6
-29 12 -54 9 -34 17 -45 28 -42 8 3 70 20 137 39 117 32 122 34 126 62 4 32
-2 67 -12 65 -3 0 -28 -7 -56 -15z"/>
<path d="M510 293 c-8 -3 -25 -10 -38 -14 l-22 -9 25 -50 c14 -27 29 -50 34
-50 8 0 73 21 79 25 6 5 -48 105 -56 104 -4 0 -14 -3 -22 -6z"/>
</g>
</svg>
