<?xml version="1.0" standalone="no"?>
<!DOCTYPE svg PUBLIC "-//W3C//DTD SVG 20010904//EN"
 "http://www.w3.org/TR/2001/REC-SVG-20010904/DTD/svg10.dtd">
<svg version="1.0" xmlns="http://www.w3.org/2000/svg"
 width="101.000000pt" height="101.000000pt" viewBox="0 0 101.000000 101.000000"
 preserveAspectRatio="xMidYMid meet">
<metadata>
Created by potrace 1.16, written by Peter Selinger 2001-2019
</metadata>
<g transform="translate(0.000000,101.000000) scale(0.100000,-0.100000)"
fill="#000000" stroke="none">
<path d="M473 999 c-40 -11 -40 -17 -8 -65 14 -21 24 -42 22 -48 -5 -15 -55
-20 -70 -8 -7 6 -31 10 -54 10 -45 1 -73 -17 -73 -46 0 -37 13 -42 102 -37
l86 5 4 -38 3 -39 -45 10 c-25 5 -69 20 -98 34 -29 14 -54 24 -55 22 -1 -2
-12 -24 -25 -49 -13 -26 -30 -46 -40 -47 -9 0 -36 -3 -59 -6 l-41 -5 32 47
c18 25 50 77 71 114 21 38 44 71 51 74 27 10 13 34 -32 53 -55 24 -64 25 -64
4 0 -30 -63 -168 -107 -233 -43 -63 -44 -68 -33 -104 l11 -37 47 5 c26 3 59 7
74 9 l27 3 -29 -41 c-36 -53 -90 -106 -107 -106 -14 0 -12 -46 2 -82 7 -18 7
-18 110 -2 17 3 52 6 78 8 28 1 53 9 58 17 7 12 9 11 9 -2 0 -22 33 -30 69
-16 15 5 36 7 45 4 16 -6 12 -15 -26 -70 -25 -35 -73 -84 -111 -112 l-67 -50
23 -17 c59 -46 67 -46 105 -3 19 22 57 74 85 115 27 41 47 67 44 58 -3 -9 -1
-30 5 -46 9 -22 8 -39 -4 -73 -27 -79 -6 -127 50 -112 17 4 19 17 19 131 2
177 0 168 38 169 38 1 36 10 38 -169 0 -114 2 -127 19 -131 10 -3 26 -3 36 0
16 4 18 17 19 101 2 157 0 152 44 83 22 -33 63 -81 91 -106 l51 -45 38 41 c22
23 38 43 37 44 -79 43 -129 80 -159 118 -43 54 -48 67 -21 65 9 -1 31 0 48 0
31 2 32 3 32 50 1 94 -1 91 47 87 35 -2 44 1 48 16 11 42 -2 57 -48 54 l-42
-3 5 43 c8 75 -1 91 -50 91 -105 1 -106 1 -110 37 l-3 32 112 0 c121 -1 129 3
117 51 -6 24 -9 24 -65 18 -41 -5 -59 -3 -59 5 0 6 -17 11 -40 11 -22 0 -40 4
-40 8 0 5 14 21 30 37 37 35 37 43 5 55 -58 22 -75 23 -81 4 -4 -11 -17 -43
-30 -71 -19 -44 -27 -53 -48 -53 -24 0 -39 13 -42 37 -2 11 -63 104 -67 102
-1 0 -17 -5 -34 -10z m153 -229 c2 -33 0 -35 -30 -36 -29 0 -31 2 -31 35 -1
33 1 36 30 36 27 0 30 -3 31 -35z m-263 -52 c-6 -36 11 -50 65 -56 46 -4 50
-7 54 -33 4 -26 1 -28 -33 -34 -21 -4 -44 -3 -50 1 -6 4 -29 8 -49 10 -31 3
-39 0 -43 -16 -11 -43 10 -69 48 -60 20 5 61 11 94 13 34 2 35 1 38 -40 l3
-41 -58 5 c-81 9 -103 7 -113 -9 -7 -10 -9 -9 -9 5 0 21 -25 24 -106 13 -32
-5 -31 -4 64 130 52 74 96 134 97 134 1 0 0 -10 -2 -22z m263 -82 c-1 -31 -3
-34 -32 -33 -27 1 -31 4 -31 28 0 24 5 29 31 32 17 2 31 5 32 5 0 1 0 -13 0
-32z m161 -3 c1 -30 -1 -32 -36 -30 -33 1 -36 3 -36 32 0 28 3 30 36 30 33 0
35 -2 36 -32z m-160 -133 c2 -37 1 -38 -32 -37 -32 1 -34 3 -32 37 1 33 4 36
32 37 29 1 31 -1 32 -37z m160 0 l2 -39 -39 2 c-38 1 -39 2 -37 37 1 34 3 36
37 37 35 2 36 1 37 -37z"/>
<path d="M270 344 c-61 -21 -112 -33 -170 -39 -57 -6 -81 -17 -75 -34 4 -9 12
-29 18 -46 5 -16 11 -31 12 -33 2 -2 57 15 124 38 66 22 127 40 135 40 8 0 18
5 21 10 9 15 15 90 7 89 -4 -1 -36 -12 -72 -25z"/>
</g>
</svg>
