<?xml version="1.0" standalone="no"?>
<!DOCTYPE svg PUBLIC "-//W3C//DTD SVG 20010904//EN"
 "http://www.w3.org/TR/2001/REC-SVG-20010904/DTD/svg10.dtd">
<svg version="1.0" xmlns="http://www.w3.org/2000/svg"
 width="101.000000pt" height="102.000000pt" viewBox="0 0 101.000000 102.000000"
 preserveAspectRatio="xMidYMid meet">
<metadata>
Created by potrace 1.16, written by Peter Selinger 2001-2019
</metadata>
<g transform="translate(0.000000,102.000000) scale(0.100000,-0.100000)"
fill="#000000" stroke="none">
<path d="M518 1008 l-38 -10 25 -42 c14 -24 25 -47 25 -53 0 -6 -29 -9 -74 -7
-71 3 -74 2 -80 -21 -14 -56 25 -72 153 -61 l76 6 0 -28 0 -28 -100 1 c-99 0
-100 0 -103 -25 -5 -48 10 -55 107 -54 84 1 89 0 93 -20 4 -22 3 -22 -109 -18
l-113 4 -10 -26 c-7 -19 -7 -34 1 -48 10 -19 18 -20 78 -15 l66 6 -37 -16
c-36 -15 -37 -16 -21 -40 22 -33 4 -52 -36 -37 -39 15 -158 9 -220 -11 -21 -6
-18 0 21 51 25 33 70 98 101 146 31 47 61 89 66 93 21 12 11 33 -25 54 -19 12
-39 21 -43 21 -5 0 -20 -26 -34 -59 -19 -43 -34 -63 -58 -75 -30 -15 -99 -23
-99 -11 0 3 15 26 34 52 18 27 46 71 61 98 16 28 42 65 58 82 17 18 29 34 26
37 -15 14 -109 54 -112 48 -2 -4 -10 -25 -17 -47 -22 -68 -89 -194 -125 -234
l-35 -38 16 -39 c20 -47 32 -56 58 -42 12 7 35 12 51 13 17 1 39 6 49 10 19 8
19 8 0 -24 -31 -54 -94 -121 -120 -127 -28 -7 -27 -3 -13 -60 l12 -45 41 6
c44 7 68 10 131 20 76 12 209 17 463 16 34 0 86 1 115 2 28 1 68 -1 88 -6 32
-6 37 -5 42 13 11 43 -2 57 -51 58 -26 0 -58 1 -70 2 l-24 2 27 28 c25 26 25
29 9 38 -16 9 -15 11 6 22 12 7 35 10 50 6 32 -6 44 11 35 47 -6 21 -11 22
-123 22 -110 0 -117 1 -118 20 -1 17 4 20 35 18 20 -1 66 1 103 4 72 6 87 19
73 63 -6 18 -14 19 -108 17 l-102 -2 0 26 c0 25 1 25 70 22 131 -7 175 9 160
57 -4 14 -23 20 -83 26 l-76 9 37 37 c20 21 37 39 37 42 0 9 -94 36 -100 29
-4 -5 -17 -34 -30 -65 -17 -46 -27 -58 -44 -58 -26 0 -40 10 -44 30 -5 23 -52
100 -60 99 -4 -1 -24 -6 -44 -11z m90 -483 c1 -35 -1 -40 -21 -41 -16 -1 -27
9 -42 40 l-20 41 40 0 c41 0 41 0 43 -40z m155 25 c-17 -54 -25 -65 -48 -66
-23 -2 -24 1 -23 40 2 40 3 41 39 41 28 0 35 -4 32 -15z"/>
<path d="M448 373 c-17 -4 -23 -21 -19 -53 1 -8 3 -26 5 -40 1 -14 6 -37 10
-53 5 -17 3 -40 -7 -66 -27 -67 -7 -93 61 -83 31 4 32 6 28 42 -4 33 -2 38 17
39 12 0 58 3 102 6 44 3 94 3 111 0 26 -4 31 -10 31 -35 0 -39 6 -44 50 -43
42 1 55 17 42 51 -12 30 -14 108 -5 178 l6 51 -52 5 c-29 3 -73 3 -98 1 -70
-7 -233 -8 -250 -1 -8 3 -23 4 -32 1z m312 -68 c22 -5 26 -11 27 -45 2 -37 0
-40 -30 -45 -18 -3 -68 -3 -112 0 -44 3 -90 6 -102 6 -19 1 -22 7 -20 40 1 30
5 38 17 34 8 -2 21 -1 29 4 15 10 153 14 191 6z"/>
<path d="M345 318 c-16 -4 -41 -10 -55 -13 -14 -3 -36 -7 -50 -10 -32 -7 -88
-16 -120 -20 -34 -3 -80 -16 -80 -22 0 -24 25 -93 34 -93 6 0 38 9 71 20 32
11 75 23 95 26 110 17 133 26 141 58 12 45 0 64 -36 54z"/>
</g>
</svg>
