<?xml version="1.0" standalone="no"?>
<!DOCTYPE svg PUBLIC "-//W3C//DTD SVG 20010904//EN"
 "http://www.w3.org/TR/2001/REC-SVG-20010904/DTD/svg10.dtd">
<svg version="1.0" xmlns="http://www.w3.org/2000/svg"
 width="101.000000pt" height="102.000000pt" viewBox="0 0 101.000000 102.000000"
 preserveAspectRatio="xMidYMid meet">
<metadata>
Created by potrace 1.16, written by Peter Selinger 2001-2019
</metadata>
<g transform="translate(0.000000,102.000000) scale(0.100000,-0.100000)"
fill="#000000" stroke="none">
<path d="M588 972 c3 -33 -1 -52 -11 -60 -20 -17 -133 -27 -149 -14 -7 5 -30
10 -50 10 -40 0 -55 -20 -43 -58 4 -14 2 -18 -7 -15 -9 4 -25 -17 -46 -60 -32
-66 -36 -69 -84 -65 -15 1 -36 -4 -47 -10 -27 -14 -26 -6 3 33 13 18 45 68 71
112 26 44 56 86 66 93 24 17 18 27 -31 52 -55 28 -65 25 -79 -19 -21 -70 -100
-219 -131 -244 -30 -26 -31 -37 -11 -90 10 -25 14 -27 48 -22 55 8 113 11 113
5 0 -17 -97 -125 -121 -134 -32 -11 -37 -37 -17 -80 9 -22 18 -26 52 -25 56 0
206 21 207 28 0 3 3 19 5 35 3 18 0 32 -8 37 -16 10 -72 12 -81 2 -4 -3 -18
-7 -31 -9 -23 -2 -19 5 37 80 34 45 78 107 97 139 19 31 37 57 40 57 3 0 21
-15 39 -34 l34 -35 -29 -25 c-16 -14 -56 -40 -89 -57 -35 -20 -54 -34 -45 -37
8 -2 27 -16 42 -29 l27 -25 30 21 31 22 2 -78 c1 -43 1 -90 0 -105 -1 -19 3
-28 12 -28 8 0 17 -4 21 -9 8 -14 -97 -123 -139 -146 -20 -11 -36 -23 -36 -26
0 -8 67 -49 78 -49 4 0 45 36 91 80 46 44 88 80 92 80 24 0 4 23 -31 38 -43
19 -49 27 -24 36 28 11 116 -5 110 -20 -3 -7 0 -26 7 -43 9 -25 8 -37 -6 -65
-15 -32 -20 -35 -56 -33 -51 2 -56 -4 -37 -42 9 -16 16 -37 16 -46 0 -13 8
-15 43 -12 99 11 118 35 116 146 0 36 0 76 1 87 2 23 10 25 111 25 l56 -1 -8
48 c-12 71 -11 182 1 182 6 0 25 -7 43 -16 29 -16 32 -16 42 1 5 10 20 30 32
45 21 26 22 28 5 35 -9 4 -30 9 -45 11 -16 2 -47 12 -70 22 l-41 18 49 34 c28
18 52 35 54 37 7 5 -32 31 -58 38 -18 5 -32 -1 -57 -26 -19 -18 -35 -31 -38
-28 -2 2 -13 22 -24 44 l-20 40 106 -2 c109 -2 122 2 122 39 0 29 -29 48 -76
48 -24 0 -44 -4 -44 -10 0 -5 -16 -10 -35 -10 -19 0 -35 5 -35 10 0 6 -18 10
-40 10 -44 0 -48 9 -25 50 20 36 19 38 -22 49 -72 20 -78 17 -75 -37z m-38
-150 c0 -1 -10 -22 -21 -45 l-22 -41 -28 34 c-24 29 -32 33 -47 24 -14 -9 -23
-8 -39 6 -12 10 -20 19 -18 21 4 5 175 5 175 1z m154 -134 l18 -28 -38 1 c-22
0 -61 4 -87 7 l-49 7 20 25 c10 14 29 45 42 69 l22 44 27 -49 c15 -27 35 -61
45 -76z m49 -125 c4 -21 2 -21 -117 -20 -114 2 -121 3 -121 22 0 19 7 20 117
20 112 0 117 -1 121 -22z m3 -124 c-1 -26 -5 -28 -58 -34 -36 -4 -64 -3 -78 5
-13 7 -41 10 -64 8 -38 -5 -41 -3 -42 21 l-1 26 122 1 122 0 -1 -27z"/>
<path d="M324 330 c-26 -10 -86 -21 -137 -25 -20 -2 -44 -9 -53 -15 -11 -10
-21 -10 -38 -2 -29 13 -69 4 -62 -14 3 -7 8 -29 12 -48 3 -20 10 -39 15 -42 5
-3 31 2 58 11 26 8 63 18 82 21 19 3 45 8 59 10 14 3 36 7 50 8 14 2 28 4 31
5 4 0 10 17 13 37 4 19 10 42 13 50 6 16 -11 17 -43 4z"/>
<path d="M734 287 l-27 -23 78 -78 77 -79 36 37 37 36 -30 25 c-56 48 -132
105 -138 105 -3 0 -18 -10 -33 -23z"/>
</g>
</svg>
