<?xml version="1.0" standalone="no"?>
<!DOCTYPE svg PUBLIC "-//W3C//DTD SVG 20010904//EN"
 "http://www.w3.org/TR/2001/REC-SVG-20010904/DTD/svg10.dtd">
<svg version="1.0" xmlns="http://www.w3.org/2000/svg"
 width="101.000000pt" height="101.000000pt" viewBox="0 0 101.000000 101.000000"
 preserveAspectRatio="xMidYMid meet">
<metadata>
Created by potrace 1.16, written by Peter Selinger 2001-2019
</metadata>
<g transform="translate(0.000000,101.000000) scale(0.100000,-0.100000)"
fill="#000000" stroke="none">
<path d="M408 980 c2 -17 1 -55 -3 -86 -6 -53 -8 -55 -32 -49 -36 9 -60 -2
-67 -31 -11 -42 10 -66 52 -62 l37 3 0 -47 0 -46 -37 3 c-40 4 -50 -11 -41
-59 6 -31 18 -34 98 -20 46 8 87 8 123 -1 27 -6 32 -5 33 11 4 53 21 -104 19
-182 -1 -83 1 -92 18 -96 35 -10 72 3 72 23 0 11 5 19 10 19 13 0 -12 -60 -40
-100 -12 -17 -53 -45 -95 -66 -41 -20 -75 -40 -74 -43 0 -3 16 -19 34 -34 30
-25 37 -27 57 -16 53 28 129 94 156 134 l28 43 50 -69 c27 -38 56 -78 65 -90
l15 -22 37 24 c20 13 37 29 37 35 0 10 -21 36 -114 142 -20 22 -20 22 0 21 10
-1 29 -1 42 -1 l23 2 -7 131 c-6 107 -4 133 7 141 11 7 11 11 2 15 -15 6 -18
73 -3 73 6 0 10 18 10 40 0 46 -25 66 -68 55 -15 -4 -42 -8 -60 -9 -25 -1 -31
2 -26 14 4 8 10 31 13 50 6 30 10 35 31 32 48 -7 148 9 154 25 16 41 -27 89
-58 64 -13 -11 -298 -7 -316 4 -13 8 -40 -24 -40 -48 0 -37 12 -44 74 -46 33
-1 62 -3 64 -6 2 -2 5 -23 5 -47 2 -38 0 -43 -18 -40 -52 7 -65 13 -65 31 0
36 -29 53 -82 49 l-48 -3 4 55 c2 30 7 67 11 83 7 27 7 27 -42 27 -49 0 -50 0
-45 -30z m176 -283 c0 -31 -4 -60 -7 -64 -4 -3 -7 1 -7 10 0 16 -23 22 -70 19
-11 -1 -15 11 -15 46 l0 47 50 0 50 0 -1 -58z m245 -20 c0 -12 3 -60 6 -106 3
-47 0 -108 -6 -140 -6 -31 -11 -67 -11 -80 0 -13 -10 -32 -21 -42 -28 -23 -41
-24 -32 -1 8 18 13 70 19 192 3 41 7 94 10 116 5 39 3 42 -20 47 -53 10 -86
-22 -65 -62 20 -38 4 -221 -19 -221 -23 0 -41 179 -20 205 5 6 7 33 7 60 l-2
50 76 2 c72 1 77 0 78 -20z"/>
<path d="M146 928 c-21 -77 -77 -198 -99 -217 -20 -16 -20 -23 -6 -74 10 -37
12 -38 42 -31 59 13 88 12 82 -3 -13 -37 -78 -123 -96 -128 -16 -5 -19 -13
-15 -45 6 -53 12 -60 49 -54 51 8 79 12 126 18 52 6 50 5 58 48 l5 35 -38 -2
c-22 -2 -53 -6 -71 -9 l-31 -6 73 125 c40 69 79 133 86 142 11 13 9 19 -16 39
-17 13 -35 24 -42 24 -6 0 -19 -22 -28 -49 -13 -39 -20 -49 -38 -48 -12 0 -34
-3 -48 -7 -26 -7 -25 -4 32 108 33 63 64 118 69 121 20 12 10 45 -20 60 -48
25 -55 20 -74 -47z"/>
<path d="M317 498 c-3 -12 -2 -29 4 -39 10 -20 5 -242 -6 -271 -5 -13 -2 -18
11 -20 60 -5 89 11 79 43 -4 11 3 15 30 16 22 1 35 -4 35 -12 0 -15 32 -25 58
-19 15 4 17 19 18 117 1 62 4 131 7 153 l6 41 -77 0 c-42 0 -96 3 -118 6 -37
6 -43 4 -47 -15z m159 -74 c-3 -9 -1 -25 5 -36 6 -11 8 -35 5 -54 -6 -31 -9
-33 -46 -31 -36 1 -40 4 -46 33 -3 18 -1 41 5 52 6 11 9 27 6 34 -4 10 6 14
36 15 33 2 40 -1 35 -13z"/>
<path d="M235 335 c-33 -13 -91 -31 -130 -41 -38 -9 -71 -17 -72 -18 -1 -1 4
-22 11 -46 16 -54 17 -54 152 -5 l101 37 0 49 c0 27 -1 49 -1 48 -1 0 -28 -11
-61 -24z"/>
</g>
</svg>
