<?xml version="1.0" standalone="no"?>
<!DOCTYPE svg PUBLIC "-//W3C//DTD SVG 20010904//EN"
 "http://www.w3.org/TR/2001/REC-SVG-20010904/DTD/svg10.dtd">
<svg version="1.0" xmlns="http://www.w3.org/2000/svg"
 width="101.000000pt" height="102.000000pt" viewBox="0 0 101.000000 102.000000"
 preserveAspectRatio="xMidYMid meet">
<metadata>
Created by potrace 1.16, written by Peter Selinger 2001-2019
</metadata>
<g transform="translate(0.000000,102.000000) scale(0.100000,-0.100000)"
fill="#000000" stroke="none">
<path d="M169 993 c-6 -16 -12 -35 -14 -43 -14 -60 -76 -193 -107 -226 -17
-19 -18 -26 -7 -68 11 -46 12 -46 48 -40 63 9 91 11 91 5 0 -25 -97 -141 -117
-141 -8 0 -12 -10 -9 -27 4 -32 17 -83 21 -83 1 0 22 7 45 15 47 16 90 25 178
34 6 0 12 9 12 19 0 13 9 17 40 19 38 1 40 0 35 -25 -3 -15 -7 -40 -10 -57
-10 -56 -56 -134 -104 -178 l-49 -43 51 -18 51 -18 23 28 c13 16 42 65 64 109
l40 79 45 3 c43 3 45 2 38 -19 -4 -13 -8 -32 -9 -43 -1 -16 -9 -20 -39 -21
-47 -1 -50 -5 -31 -40 8 -16 15 -35 15 -41 0 -27 90 -4 118 30 7 8 15 35 17
59 3 24 7 66 10 95 l5 52 -53 0 c-95 0 -102 2 -103 26 -2 25 3 26 103 26 54 0
66 10 56 48 -5 19 -15 25 -35 22 -3 0 -19 -3 -35 -5 -24 -5 -31 0 -49 33 l-21
38 41 -2 c69 -3 70 -3 56 -20 -10 -12 -5 -17 26 -30 36 -15 39 -15 51 1 10 14
13 15 14 3 1 -8 3 -25 4 -39 1 -14 14 -65 29 -114 25 -82 25 -90 11 -112 -18
-27 -152 -124 -172 -124 -7 0 -13 -4 -13 -10 0 -5 6 -10 14 -10 8 0 28 -11 44
-25 l29 -25 39 29 c22 16 58 49 82 73 l43 44 59 -60 60 -60 40 39 c22 22 40
42 40 45 0 3 -17 13 -38 22 -20 10 -54 33 -76 51 l-38 33 17 54 c9 30 18 69
21 85 2 17 7 50 11 75 4 25 7 81 7 125 l1 80 42 -2 c38 -2 43 0 49 21 14 57 8
61 -109 61 -91 0 -106 2 -101 15 3 8 8 26 10 39 3 13 14 41 25 63 11 22 18 46
16 52 -6 14 -94 42 -103 33 -3 -3 -8 -23 -11 -44 -2 -21 -6 -49 -9 -63 -2 -14
-6 -43 -9 -64 -6 -42 -39 -147 -59 -184 -10 -19 -12 1 -10 112 l3 135 -54 6
c-29 4 -59 4 -65 0 -6 -4 -2 11 9 34 28 54 27 62 -9 55 -19 -4 -30 -2 -30 5 0
6 -9 11 -20 11 -14 0 -21 -9 -25 -33 -4 -18 -6 -37 -5 -42 5 -24 -3 -30 -42
-30 l-43 0 0 -61 0 -60 -32 19 -33 19 -24 -56 c-24 -55 -31 -60 -69 -56 -10 1
-25 -4 -33 -11 -8 -6 -17 -10 -20 -7 -6 7 104 217 129 245 23 26 17 37 -34 63
l-39 21 -11 -28z m366 -191 c0 -27 -1 -27 -56 -24 -49 3 -58 7 -61 25 -4 20 0
22 56 24 60 2 61 2 61 -25z m-202 -131 c-3 -73 -1 -79 18 -84 12 -3 33 -1 46
4 28 10 46 3 24 -10 -11 -7 -10 -13 3 -34 21 -30 8 -43 -32 -31 -32 9 -65 11
-72 4 -3 -3 -32 -13 -65 -22 -33 -9 -69 -20 -79 -24 -16 -6 -14 0 11 37 16 24
49 78 73 119 48 85 69 120 73 120 1 0 1 -35 0 -79z m471 9 c-2 -28 -6 -55 -9
-60 -3 -5 0 -20 6 -34 10 -20 9 -35 -1 -68 -7 -24 -14 -54 -15 -68 -5 -53 -7
-54 -20 -11 -8 25 -12 48 -9 53 3 4 -2 23 -11 42 -12 25 -14 40 -6 54 12 23 3
62 -14 62 -14 0 -14 10 -1 47 5 16 17 23 44 26 20 2 37 4 38 5 0 1 -1 -21 -2
-48z m-269 3 c0 -29 -35 -41 -71 -25 -13 7 -30 9 -38 6 -10 -4 -12 1 -9 18 4
21 10 23 61 24 53 0 57 -1 57 -23z"/>
<path d="M277 349 c-18 -11 -144 -55 -162 -57 -62 -8 -66 -12 -62 -59 3 -24 7
-46 9 -49 2 -2 40 12 84 31 43 19 100 40 125 46 50 13 47 7 40 87 -1 15 -10
15 -34 1z"/>
</g>
</svg>
