<?xml version="1.0" standalone="no"?>
<!DOCTYPE svg PUBLIC "-//W3C//DTD SVG 20010904//EN"
 "http://www.w3.org/TR/2001/REC-SVG-20010904/DTD/svg10.dtd">
<svg version="1.0" xmlns="http://www.w3.org/2000/svg"
 width="101.000000pt" height="101.000000pt" viewBox="0 0 101.000000 101.000000"
 preserveAspectRatio="xMidYMid meet">
<metadata>
Created by potrace 1.16, written by Peter Selinger 2001-2019
</metadata>
<g transform="translate(0.000000,101.000000) scale(0.100000,-0.100000)"
fill="#000000" stroke="none">
<path d="M169 953 c-7 -21 -14 -43 -15 -48 -5 -32 -70 -171 -90 -195 -27 -32
-31 -51 -19 -98 7 -31 10 -33 39 -26 41 9 96 11 96 3 0 -19 -78 -121 -101
-131 -28 -12 -29 -18 -14 -85 l7 -31 41 14 c38 13 78 22 137 28 63 7 86 34 73
86 -5 17 -8 17 -56 3 -104 -31 -104 -38 -1 133 52 87 94 158 94 160 0 5 -67
44 -76 44 -5 0 -20 -29 -32 -65 -23 -63 -33 -72 -74 -66 -4 0 -19 -4 -33 -9
-23 -9 -20 -1 37 108 34 64 67 124 75 133 7 8 13 18 13 22 0 7 -71 57 -82 57
-3 0 -12 -17 -19 -37z"/>
<path d="M360 974 c-10 -3 -15 -18 -15 -47 1 -40 2 -42 30 -39 17 1 42 2 57 2
15 0 29 4 33 10 7 12 173 12 180 -1 4 -5 67 -8 145 -6 150 2 156 5 144 54 l-7
25 -121 -2 c-66 -1 -149 -1 -183 -1 -35 0 -91 0 -125 -1 -35 0 -76 2 -93 5
-16 3 -37 3 -45 1z"/>
<path d="M382 729 c0 -113 2 -129 17 -134 23 -7 101 -3 106 6 7 11 173 11 180
0 7 -13 87 -12 102 1 7 6 28 7 47 4 l34 -7 7 95 c4 53 5 110 1 128 l-6 33 -84
3 c-49 1 -87 -2 -91 -8 -8 -13 -52 -13 -60 0 -4 6 -55 10 -129 9 l-123 -2 -1
-128z m205 52 c-1 -18 -8 -20 -63 -18 -76 2 -77 24 -1 30 29 2 55 4 59 5 4 1
6 -7 5 -17z m199 -1 c0 -12 -14 -15 -61 -15 -47 0 -61 3 -61 15 0 12 14 15 61
15 47 0 61 -3 61 -15z m-4 -89 l4 -29 -60 1 c-59 2 -61 3 -63 30 -2 27 -1 27
56 27 57 0 59 -1 63 -29z m-200 -3 c4 -22 2 -23 -51 -19 -65 4 -87 23 -38 32
67 13 84 10 89 -13z"/>
<path d="M329 573 c-19 -5 -31 -37 -22 -59 4 -11 17 -13 52 -8 25 3 89 6 141
6 187 -1 221 -1 273 1 28 1 80 -1 114 -5 65 -8 77 -1 66 40 -4 18 -14 20 -131
20 -70 0 -156 1 -192 1 -36 0 -108 -1 -160 -2 -52 0 -102 2 -110 5 -8 3 -22 4
-31 1z"/>
<path d="M367 459 c-3 -12 -2 -30 3 -40 6 -9 8 -58 6 -108 l-3 -90 41 6 c60 9
371 4 399 -6 12 -5 34 -7 48 -4 24 4 25 6 26 101 0 53 3 111 5 128 l5 30 -116
-4 c-174 -5 -300 -5 -357 2 -47 6 -52 5 -57 -15z m199 -37 c6 -4 11 -15 11
-25 0 -22 -41 -33 -73 -19 -13 7 -30 9 -37 6 -8 -3 -13 4 -14 16 -1 15 3 20
15 16 9 -3 24 -1 32 4 18 11 51 13 66 2z m212 2 c22 -4 30 -12 29 -25 -1 -22
-66 -36 -96 -20 -11 6 -26 9 -33 6 -9 -4 -14 2 -15 15 -1 15 3 20 15 16 9 -3
24 -1 32 4 18 11 27 12 68 4z m-212 -102 c6 -4 11 -15 11 -25 0 -22 -41 -33
-73 -19 -13 7 -30 9 -37 6 -8 -3 -13 4 -14 16 -1 15 3 20 15 16 9 -3 24 -1 32
4 18 11 51 13 66 2z m212 2 c22 -4 30 -12 29 -25 -1 -22 -66 -36 -96 -20 -11
6 -26 9 -33 6 -9 -4 -14 2 -15 15 -1 15 3 20 15 16 9 -3 24 -1 32 4 18 11 27
12 68 4z"/>
<path d="M291 314 c-44 -19 -183 -54 -192 -49 -4 3 -20 0 -37 -6 -26 -9 -30
-15 -27 -42 4 -48 16 -69 34 -64 9 3 54 19 101 36 47 17 104 35 126 41 33 8
43 15 47 36 5 28 -1 64 -12 64 -3 -1 -21 -7 -40 -16z"/>
<path d="M339 193 c-20 -5 -29 -34 -22 -63 5 -18 23 -26 48 -20 50 13 217 16
310 7 28 -3 64 -1 82 6 24 8 51 8 105 -1 40 -6 75 -9 77 -6 10 10 3 66 -9 74
-7 4 -32 1 -57 -7 -27 -9 -56 -13 -76 -8 -18 4 -59 6 -92 5 -201 -4 -280 -1
-330 12 -11 3 -27 4 -36 1z"/>
</g>
</svg>
