<?xml version="1.0" standalone="no"?>
<!DOCTYPE svg PUBLIC "-//W3C//DTD SVG 20010904//EN"
 "http://www.w3.org/TR/2001/REC-SVG-20010904/DTD/svg10.dtd">
<svg version="1.0" xmlns="http://www.w3.org/2000/svg"
 width="101.000000pt" height="101.000000pt" viewBox="0 0 101.000000 101.000000"
 preserveAspectRatio="xMidYMid meet">
<metadata>
Created by potrace 1.16, written by Peter Selinger 2001-2019
</metadata>
<g transform="translate(0.000000,101.000000) scale(0.100000,-0.100000)"
fill="#000000" stroke="none">
<path d="M118 973 c-24 -6 -31 -52 -23 -143 7 -76 8 -79 35 -85 15 -3 39 -3
53 0 25 7 26 10 24 66 l-3 59 43 0 c24 0 43 5 43 10 0 6 16 10 35 10 19 0 35
-4 35 -10 0 -6 30 -10 70 -10 40 0 70 4 70 10 0 6 11 10 25 10 14 0 25 -5 25
-11 0 -9 36 -10 128 -7 l127 5 1 -60 c2 -65 11 -77 59 -77 44 0 60 13 46 38
-13 25 -15 99 -2 107 6 3 9 22 9 43 l0 37 -118 0 c-65 0 -122 -3 -126 -7 -11
-11 -52 -10 -59 2 -8 13 -142 13 -150 1 -7 -12 -172 -13 -180 -1 -3 5 -29 9
-58 9 -29 0 -61 2 -72 4 -11 3 -28 3 -37 0z"/>
<path d="M338 806 c-25 -23 -71 -56 -102 -72 -60 -31 -66 -39 -37 -49 10 -3
26 -14 36 -25 16 -18 16 -18 -4 -13 -30 8 -68 -4 -75 -23 -4 -9 -4 -31 0 -50
l6 -32 143 2 143 2 6 -44 c11 -84 20 -78 -116 -73 -68 2 -156 6 -196 8 -82 5
-102 -4 -102 -46 0 -51 10 -56 135 -59 71 -2 123 2 136 9 13 7 42 8 80 4 l59
-7 0 -39 c0 -21 5 -39 10 -39 13 0 13 -37 -2 -100 -13 -59 -6 -70 47 -70 44 0
59 13 51 44 -3 14 -3 68 0 119 l7 92 121 0 c66 0 127 -4 134 -9 8 -4 38 -5 67
-1 59 7 71 22 59 70 l-6 26 -107 -1 c-58 0 -146 1 -196 3 l-90 4 -3 55 -3 55
65 -4 c38 -3 67 0 71 6 8 14 111 14 137 0 25 -13 38 1 38 43 0 39 -26 61 -64
54 l-30 -6 33 34 c18 19 31 39 27 44 -6 10 -116 77 -182 110 l-41 21 -34 -36
c-19 -19 -29 -37 -24 -39 22 -8 171 -96 195 -114 l25 -20 -77 7 c-56 4 -78 3
-78 -6 0 -6 -11 -11 -25 -11 -14 0 -25 5 -25 10 0 6 -30 10 -70 10 -40 0 -70
-4 -70 -10 0 -5 -11 -10 -25 -10 -14 0 -25 5 -25 10 0 6 -19 10 -42 10 l-42 0
75 51 c41 29 89 58 107 66 17 7 32 15 32 18 0 6 -87 65 -97 65 -4 -1 -29 -20
-55 -44z"/>
</g>
</svg>
