<?xml version="1.0" standalone="no"?>
<!DOCTYPE svg PUBLIC "-//W3C//DTD SVG 20010904//EN"
 "http://www.w3.org/TR/2001/REC-SVG-20010904/DTD/svg10.dtd">
<svg version="1.0" xmlns="http://www.w3.org/2000/svg"
 width="101.000000pt" height="102.000000pt" viewBox="0 0 101.000000 102.000000"
 preserveAspectRatio="xMidYMid meet">
<metadata>
Created by potrace 1.16, written by Peter Selinger 2001-2019
</metadata>
<g transform="translate(0.000000,102.000000) scale(0.100000,-0.100000)"
fill="#000000" stroke="none">
<path d="M535 973 l0 -47 -56 3 c-42 2 -60 -2 -70 -14 -34 -40 -42 -45 -69
-45 -16 0 -32 5 -35 10 -4 6 -32 9 -65 8 l-58 -3 14 34 c8 19 20 41 26 49 10
11 9 17 -5 27 -18 13 -96 19 -98 7 -3 -12 -8 -46 -14 -90 -5 -37 -32 -120 -59
-183 -5 -12 2 -18 32 -27 22 -7 41 -12 44 -12 3 0 13 27 23 60 10 33 23 59 29
57 11 -4 27 -135 19 -150 -3 -5 -15 -6 -27 -2 -11 4 -32 8 -46 9 -14 2 -29 4
-35 6 -39 10 -57 -14 -48 -62 4 -20 10 -24 32 -23 15 1 33 5 40 9 6 4 29 5 50
1 31 -5 39 -11 40 -28 0 -12 3 -58 6 -103 3 -44 2 -105 -2 -134 -7 -48 -11
-53 -35 -56 -24 -2 -28 2 -33 29 -5 32 -2 103 9 185 5 38 3 44 -18 52 -50 19
-89 -18 -65 -61 5 -11 7 -78 4 -164 -3 -84 -2 -144 3 -141 8 5 24 8 117 22 61
9 81 13 101 19 18 6 21 2 21 -24 0 -40 6 -45 49 -44 44 1 46 3 34 39 -5 16 -8
61 -5 99 3 39 6 81 6 95 1 23 2 23 19 -9 l17 -35 16 30 15 29 2 -25 c1 -14 2
-82 3 -153 0 -108 3 -127 16 -129 50 -5 75 12 65 43 -6 20 -2 21 176 21 74 0
147 -5 162 -11 46 -18 73 4 61 49 -5 19 -12 21 -82 20 -117 -2 -118 -2 -118
32 0 19 5 27 13 24 7 -3 26 0 43 7 24 9 36 9 51 -1 43 -27 75 -8 63 37 -5 18
-13 21 -62 21 -99 -1 -106 0 -107 25 -2 25 3 26 106 26 56 -1 71 9 63 40 -4
16 -15 19 -62 19 -105 -1 -108 -1 -108 30 0 28 1 28 51 24 28 -3 60 -4 71 -4
11 0 32 1 47 2 30 1 39 15 31 47 -4 17 -10 19 -37 13 -30 -6 -57 -7 -120 0
-18 2 -32 11 -37 23 -18 47 -16 47 109 45 66 -1 72 1 72 19 0 11 -5 23 -11 27
-6 3 -8 16 -4 28 3 11 8 39 11 62 l4 40 -38 2 c-72 2 -77 4 -78 26 -2 20 2 21
77 19 70 -3 78 -1 84 17 3 11 3 29 0 40 -6 20 -37 26 -132 24 -27 -1 -31 2
-27 20 15 65 15 65 -9 71 -12 4 -35 1 -51 -5 -25 -9 -28 -14 -24 -51 4 -40 3
-41 -25 -35 -16 3 -42 6 -57 6 -31 0 -46 30 -30 61 11 20 -5 29 -53 29 -31 0
-32 -1 -32 -47z m-3 -140 c4 -28 4 -28 -57 -28 l-60 0 2 -85 c1 -47 -1 -78 -4
-70 -9 23 -24 29 -49 20 -12 -5 -41 -8 -63 -7 l-41 1 3 71 2 71 62 -3 c54 -3
62 -1 68 17 3 11 13 20 21 20 8 0 14 5 14 10 0 6 22 10 49 10 46 0 49 -2 53
-27z m203 -6 c0 -15 -6 -24 -19 -25 -23 -1 -27 -5 -26 -28 4 -127 1 -152 -22
-160 -16 -5 -17 -8 -3 -35 14 -27 14 -30 0 -35 -9 -4 -27 -2 -41 4 -13 6 -32
9 -41 5 -14 -5 -13 -1 6 20 12 14 20 31 16 37 -4 7 -1 11 6 9 35 -4 39 1 39
59 -1 31 0 70 1 86 1 27 -17 50 -32 40 -4 -2 -9 5 -12 16 -4 17 1 19 62 23 36
2 66 4 66 5 0 1 0 -8 0 -21z m-159 -112 c-1 -22 -5 -24 -41 -23 -33 2 -40 6
-41 23 -1 18 5 21 41 23 40 1 43 0 41 -23z m271 -5 c0 -28 -2 -29 -42 -28 -38
2 -42 5 -42 28 0 23 4 26 42 28 40 1 42 0 42 -28z m-332 -98 c-10 -29 -69
-122 -97 -155 -26 -31 -26 -31 -23 -7 1 14 4 30 5 35 9 38 -27 69 -68 58 -23
-6 -35 -39 -23 -62 10 -18 13 -123 5 -161 -3 -18 -11 -25 -29 -26 -22 -2 -24
3 -30 60 -3 33 -3 90 0 126 3 36 6 75 6 86 1 24 9 26 97 25 37 0 52 4 52 14 0
14 19 19 78 22 27 1 32 -2 27 -15z m140 -142 c0 -34 -1 -35 -35 -32 -19 1 -44
3 -56 3 -16 1 -21 8 -21 30 0 22 4 28 16 24 9 -2 23 0 31 5 8 6 26 9 40 8 21
-3 25 -8 25 -38z m-1 -115 c0 -28 -3 -30 -35 -27 -19 1 -43 3 -54 3 -14 1 -20
9 -21 26 -2 18 2 22 15 19 9 -3 23 -1 31 4 8 6 26 9 40 8 21 -3 25 -8 24 -33z
m1 -115 c0 -34 -1 -35 -35 -32 -19 1 -44 3 -56 3 -16 1 -21 8 -21 30 0 22 4
28 16 24 9 -2 23 0 31 5 8 6 26 9 40 8 21 -3 25 -8 25 -38z"/>
</g>
</svg>
