<?xml version="1.0" standalone="no"?>
<!DOCTYPE svg PUBLIC "-//W3C//DTD SVG 20010904//EN"
 "http://www.w3.org/TR/2001/REC-SVG-20010904/DTD/svg10.dtd">
<svg version="1.0" xmlns="http://www.w3.org/2000/svg"
 width="101.000000pt" height="101.000000pt" viewBox="0 0 101.000000 101.000000"
 preserveAspectRatio="xMidYMid meet">
<metadata>
Created by potrace 1.16, written by Peter Selinger 2001-2019
</metadata>
<g transform="translate(0.000000,101.000000) scale(0.100000,-0.100000)"
fill="#000000" stroke="none">
<path d="M148 983 c-18 -5 -32 -48 -21 -66 4 -7 8 -64 9 -127 l1 -115 46 0 46
0 -21 -22 c-12 -13 -20 -24 -17 -26 2 -2 18 -11 34 -22 17 -10 51 -35 76 -56
l46 -38 31 32 c18 18 32 37 32 43 0 10 -20 24 -91 63 l-46 26 81 2 c110 3 182
3 308 0 98 -2 105 -3 97 -20 -6 -9 -7 -23 -3 -29 4 -6 6 -51 6 -99 -1 -49 2
-91 8 -94 14 -9 13 -68 -2 -83 -8 -8 -8 -15 1 -26 17 -21 5 -89 -20 -112 -15
-14 -24 -15 -43 -6 -13 6 -34 8 -46 5 l-21 -6 22 -23 c12 -13 23 -34 25 -46 1
-13 3 -26 3 -31 1 -12 82 -1 123 16 32 14 37 21 49 71 10 45 10 64 -1 95 -8
24 -10 50 -5 68 5 15 9 82 10 149 1 66 5 126 10 133 8 14 -13 33 -27 25 -4 -3
-16 0 -25 5 -15 8 -11 10 21 11 37 0 38 1 33 30 -15 70 -19 160 -9 172 5 7 10
31 10 54 l1 40 -94 2 c-52 1 -97 -3 -100 -8 -8 -13 -52 -13 -60 0 -8 13 -142
13 -150 1 -7 -12 -172 -13 -180 -1 -3 5 -29 8 -58 8 -29 -1 -57 1 -62 3 -6 3
-17 4 -27 2z m197 -153 l1 -69 -61 2 -60 2 0 60 0 60 45 6 c25 3 52 7 60 7 12
2 15 -12 15 -68z m205 36 c0 -17 3 -47 6 -66 l6 -35 -64 0 -63 0 0 65 0 65 58
1 57 2 0 -32z m234 -41 l-2 -70 -41 -3 c-24 -2 -41 1 -41 7 0 6 -13 11 -30 11
l-29 0 2 63 2 62 70 0 70 0 -1 -70z"/>
<path d="M548 633 c-15 -4 -18 -16 -18 -74 0 -39 4 -69 10 -69 6 0 10 -16 10
-35 0 -19 -5 -35 -10 -35 -6 0 -9 -27 -8 -69 3 -76 8 -82 64 -74 l30 5 -4 65
c-3 48 -1 68 9 75 11 7 11 11 2 15 -15 5 -18 70 -4 75 16 6 17 108 0 119 -14
9 -51 10 -81 2z"/>
<path d="M78 534 c-9 -3 -20 -14 -23 -25 -15 -47 24 -78 70 -57 35 16 73 3 74
-24 0 -13 3 -54 6 -91 5 -74 -11 -132 -40 -143 -8 -3 -15 -11 -15 -18 1 -19
68 -88 75 -77 3 6 58 52 121 102 68 55 113 97 110 105 -3 7 -8 29 -12 48 -3
20 -9 36 -12 36 -3 0 -34 -28 -70 -62 -63 -60 -65 -62 -74 -39 -8 22 -5 121 5
202 l5 37 -56 0 c-32 0 -77 3 -102 5 -25 3 -53 3 -62 1z"/>
</g>
</svg>
