<?xml version="1.0" standalone="no"?>
<!DOCTYPE svg PUBLIC "-//W3C//DTD SVG 20010904//EN"
 "http://www.w3.org/TR/2001/REC-SVG-20010904/DTD/svg10.dtd">
<svg version="1.0" xmlns="http://www.w3.org/2000/svg"
 width="101.000000pt" height="101.000000pt" viewBox="0 0 101.000000 101.000000"
 preserveAspectRatio="xMidYMid meet">
<metadata>
Created by potrace 1.16, written by Peter Selinger 2001-2019
</metadata>
<g transform="translate(0.000000,101.000000) scale(0.100000,-0.100000)"
fill="#000000" stroke="none">
<path d="M113 839 c2 -116 5 -140 18 -144 17 -6 164 2 189 10 26 8 42 -10 38
-45 l-3 -33 -96 0 c-53 1 -106 4 -116 7 -11 4 -32 2 -47 -3 -45 -18 -32 -94
15 -92 13 0 58 3 99 6 41 3 89 3 106 0 26 -4 30 -9 31 -39 1 -33 -1 -35 -38
-41 -21 -4 -44 -3 -50 1 -22 13 -135 21 -146 10 -8 -8 -8 -64 0 -72 6 -7 22
-6 112 1 33 3 74 3 91 0 26 -5 30 -9 31 -39 1 -34 0 -35 -46 -40 -63 -8 -172
-5 -192 5 -23 12 -56 0 -62 -21 -2 -10 -2 -30 0 -44 5 -25 8 -26 52 -20 158
19 257 15 247 -12 -3 -8 0 -26 6 -40 9 -19 9 -30 0 -45 -27 -43 -8 -59 59 -51
l37 4 0 276 c0 153 3 285 7 295 5 11 3 17 -6 17 -31 0 6 15 44 17 23 1 65 5
94 8 38 5 61 3 84 -9 37 -19 79 -21 79 -5 0 8 21 10 64 7 l64 -4 -6 38 c-3 25
-1 38 7 38 6 0 11 17 11 40 0 22 -5 40 -11 40 -7 0 -10 21 -7 58 l3 57 -105
-2 c-105 -2 -248 -4 -367 -4 -35 0 -91 0 -125 0 -35 0 -86 2 -115 4 l-52 5 2
-139z m441 1 l1 -55 -61 0 -61 0 1 51 c1 46 3 50 22 46 12 -2 25 1 29 8 4 6
20 10 37 8 30 -3 30 -4 32 -58z m-219 -6 l0 -53 -61 2 -60 2 0 50 1 50 60 1
60 0 0 -52z m440 3 l0 -52 -65 0 -65 0 3 47 4 47 41 4 c23 2 51 4 62 5 18 2
20 -4 20 -51z"/>
<path d="M551 689 c-21 -8 -22 -14 -17 -57 3 -26 6 -72 7 -102 0 -30 5 -60 11
-67 12 -15 3 -219 -11 -256 -8 -20 -8 -34 0 -48 5 -11 7 -28 4 -38 -7 -22 16
-30 64 -23 25 3 31 8 25 21 -7 14 -8 39 -3 107 1 15 8 22 23 23 11 0 53 3 91
6 40 3 85 0 105 -7 19 -6 47 -12 62 -13 22 -1 27 3 31 29 9 63 8 63 -136 64
-184 0 -175 -2 -174 37 1 37 -4 35 117 37 41 1 89 -2 106 -6 29 -7 32 -6 36
19 10 50 0 66 -37 59 -18 -3 -42 -1 -54 5 -17 9 -29 8 -57 -5 -28 -13 -40 -14
-59 -6 -14 6 -31 9 -39 6 -11 -4 -14 3 -13 29 1 40 -9 38 160 40 128 2 135 6
121 62 -6 25 -10 27 -43 22 -104 -16 -161 -19 -161 -8 0 6 -17 11 -40 11 -37
0 -40 2 -30 19 20 39 -32 63 -89 40z"/>
</g>
</svg>
