<?xml version="1.0" standalone="no"?>
<!DOCTYPE svg PUBLIC "-//W3C//DTD SVG 20010904//EN"
 "http://www.w3.org/TR/2001/REC-SVG-20010904/DTD/svg10.dtd">
<svg version="1.0" xmlns="http://www.w3.org/2000/svg"
 width="101.000000pt" height="101.000000pt" viewBox="0 0 101.000000 101.000000"
 preserveAspectRatio="xMidYMid meet">
<metadata>
Created by potrace 1.16, written by Peter Selinger 2001-2019
</metadata>
<g transform="translate(0.000000,101.000000) scale(0.100000,-0.100000)"
fill="#000000" stroke="none">
<path d="M143 873 l2 -118 140 -1 140 -2 0 -29 0 -29 -65 4 c-36 2 -87 5 -115
8 -57 5 -71 -1 -80 -37 -11 -45 17 -62 89 -54 34 3 63 11 64 16 4 10 36 12 79
3 24 -5 30 -11 30 -34 l0 -28 -91 -6 c-89 -5 -135 -4 -227 8 -51 7 -62 -5 -52
-57 4 -23 9 -25 41 -20 79 10 131 12 241 6 l115 -6 -50 -20 c-27 -11 -73 -21
-103 -23 -36 -1 -57 -7 -63 -17 -4 -9 -21 -18 -37 -22 -28 -6 -43 -8 -120 -20
-18 -2 -36 -6 -38 -9 -7 -7 41 -76 53 -76 6 0 43 11 83 25 54 18 72 21 68 10
-3 -7 -1 -27 5 -43 9 -22 8 -39 -5 -76 -12 -36 -14 -53 -6 -68 6 -11 8 -31 5
-44 -7 -25 2 -30 54 -25 29 3 42 19 34 42 -3 12 2 17 18 18 13 1 46 3 73 5 28
3 107 2 177 -1 126 -6 128 -6 122 -28 -6 -26 14 -35 64 -27 29 4 31 6 24 36
-7 37 -7 234 1 290 l6 38 -32 -8 c-18 -5 -75 -7 -127 -6 -157 2 -151 1 -105
25 54 27 76 30 246 29 138 -1 147 0 152 19 3 10 3 28 0 39 -5 17 -11 19 -44
14 -36 -6 -102 -7 -158 -4 l-24 2 29 24 c16 13 53 36 82 50 28 15 52 29 52 33
0 3 -16 17 -36 31 -34 23 -35 25 -16 33 18 8 21 22 26 101 9 125 8 130 -34
138 -53 10 -120 9 -120 -2 0 -5 -11 -10 -25 -10 -14 0 -25 5 -25 10 0 6 -30
10 -70 10 -40 0 -70 -4 -70 -10 0 -6 -33 -10 -80 -10 -47 0 -80 4 -80 10 0 6
-18 10 -40 10 -22 0 -40 -4 -40 -10 0 -5 -25 -10 -55 -10 -30 0 -55 5 -55 10
0 6 -6 10 -14 10 -12 0 -14 -21 -13 -117z m222 2 l0 -40 -65 0 -65 0 0 36 c-1
31 2 35 21 31 12 -2 25 1 29 8 4 6 23 10 43 8 36 -3 37 -4 37 -43z m200 -2 l0
-38 -60 0 -60 0 -1 32 c0 31 1 32 45 36 25 2 53 4 61 5 11 2 15 -8 15 -35z
m207 -3 l3 -39 -65 2 -65 2 0 35 0 35 62 2 61 2 4 -39z m-92 -115 c8 -10 30
-15 63 -15 l51 0 -49 -50 c-53 -54 -66 -61 -58 -31 10 41 -62 66 -122 42 -29
-12 -45 -2 -45 25 0 20 5 24 30 24 17 0 30 5 30 10 0 16 86 12 100 -5z m-31
-134 c9 -1 0 -12 -19 -26 -24 -18 -44 -24 -75 -23 -37 2 -42 5 -42 28 0 24 2
25 61 23 34 -1 67 -2 75 -2z m22 -230 c54 -1 56 -2 56 -30 l0 -28 -126 -6
c-69 -3 -148 -4 -176 -1 -27 2 -59 4 -71 5 -16 1 -21 8 -21 30 0 22 4 28 16
24 9 -2 23 0 31 5 8 5 65 8 125 6 61 -2 135 -5 166 -5z m0 -120 c54 -1 56 -2
56 -30 l0 -28 -126 -6 c-69 -3 -148 -4 -176 -1 -27 2 -59 4 -71 5 -16 1 -21 8
-21 30 0 22 4 28 16 24 9 -2 23 0 31 5 8 5 65 8 125 6 61 -2 135 -5 166 -5z"/>
</g>
</svg>
