<?xml version="1.0" standalone="no"?>
<!DOCTYPE svg PUBLIC "-//W3C//DTD SVG 20010904//EN"
 "http://www.w3.org/TR/2001/REC-SVG-20010904/DTD/svg10.dtd">
<svg version="1.0" xmlns="http://www.w3.org/2000/svg"
 width="101.000000pt" height="101.000000pt" viewBox="0 0 101.000000 101.000000"
 preserveAspectRatio="xMidYMid meet">
<metadata>
Created by potrace 1.16, written by Peter Selinger 2001-2019
</metadata>
<g transform="translate(0.000000,101.000000) scale(0.100000,-0.100000)"
fill="#000000" stroke="none">
<path d="M601 958 c-7 -24 -22 -60 -34 -81 l-21 -37 -55 4 c-31 3 -62 5 -70 5
-11 1 -11 4 3 14 16 12 14 17 -29 70 -25 31 -47 57 -49 57 -1 0 -23 -7 -49
-16 l-47 -16 37 -46 c20 -26 41 -52 46 -59 7 -10 -18 -11 -115 -8 l-123 5 0
-50 0 -50 175 3 175 4 1 -46 0 -46 -68 3 c-44 2 -68 0 -68 -7 0 -6 -11 -11
-25 -11 -14 0 -25 5 -25 10 0 6 -20 10 -45 10 -51 0 -70 -22 -60 -70 l6 -28
139 2 138 2 6 -44 c3 -25 6 -50 6 -56 0 -8 -48 -10 -162 -8 -90 2 -174 4 -187
4 -38 0 -53 -41 -31 -83 9 -15 22 -19 70 -19 33 0 60 4 60 10 0 6 16 10 35 10
19 0 35 -4 35 -10 0 -5 18 -10 40 -10 22 0 40 5 40 10 0 15 67 12 74 -2 5 -10
7 -10 12 0 7 15 164 17 164 2 0 -5 18 -10 40 -10 24 0 40 5 40 12 0 8 32 9
119 5 112 -6 120 -6 126 12 10 33 -5 71 -31 77 -13 4 -30 1 -38 -5 -9 -8 -61
-10 -167 -7 l-154 5 -3 54 -3 54 65 -4 c38 -3 67 0 71 6 9 16 77 13 102 -4 39
-27 72 7 59 60 -8 31 -38 36 -176 32 l-105 -3 0 46 0 45 150 0 c83 0 157 -4
166 -8 24 -12 49 18 49 58 0 19 -4 36 -10 40 -5 3 -47 0 -94 -7 -70 -10 -90
-9 -110 1 -13 8 -32 11 -41 7 -24 -9 19 49 56 76 16 12 29 25 29 28 0 7 -104
50 -119 50 -4 0 -13 -19 -20 -42z"/>
<path d="M149 344 c-4 -49 -35 -126 -69 -174 l-21 -30 28 -11 c53 -20 83 -23
83 -7 0 8 20 54 45 103 25 50 45 91 45 92 0 1 -18 7 -41 13 -22 6 -47 14 -55
17 -8 3 -14 1 -15 -3z"/>
<path d="M750 334 c-19 -8 -36 -16 -37 -18 -2 -2 20 -40 49 -84 29 -44 58 -87
63 -97 10 -16 14 -16 58 7 l48 24 -66 92 c-36 51 -69 92 -73 92 -4 -1 -23 -8
-42 -16z"/>
<path d="M551 329 c-25 -8 -32 -14 -27 -27 3 -9 15 -52 27 -95 l22 -78 36 5
c72 9 72 7 33 112 -19 51 -40 94 -46 93 -6 0 -26 -5 -45 -10z"/>
<path d="M322 323 c-6 -2 -10 -9 -7 -13 3 -5 8 -28 11 -52 3 -24 6 -54 8 -68
2 -14 4 -33 5 -43 1 -16 8 -18 47 -14 52 6 66 20 54 51 -4 12 -8 26 -9 31 0 6
-6 33 -12 61 -11 49 -12 51 -48 52 -20 0 -42 -2 -49 -5z"/>
</g>
</svg>
