<?xml version="1.0" standalone="no"?>
<!DOCTYPE svg PUBLIC "-//W3C//DTD SVG 20010904//EN"
 "http://www.w3.org/TR/2001/REC-SVG-20010904/DTD/svg10.dtd">
<svg version="1.0" xmlns="http://www.w3.org/2000/svg"
 width="101.000000pt" height="101.000000pt" viewBox="0 0 101.000000 101.000000"
 preserveAspectRatio="xMidYMid meet">
<metadata>
Created by potrace 1.16, written by Peter Selinger 2001-2019
</metadata>
<g transform="translate(0.000000,101.000000) scale(0.100000,-0.100000)"
fill="#000000" stroke="none">
<path d="M625 997 c-2 -6 -9 -30 -16 -52 -7 -22 -14 -46 -15 -54 -6 -36 -71
-145 -116 -196 l-51 -56 33 -34 c26 -27 36 -32 47 -23 26 21 124 176 146 232
l23 56 26 -58 c15 -31 44 -77 64 -101 37 -43 129 -121 143 -121 7 0 75 91 69
94 -65 29 -112 60 -146 95 -52 53 -101 146 -97 183 3 21 -2 28 -23 33 -51 14
-83 15 -87 2z"/>
<path d="M154 971 l-41 -16 33 -60 c35 -64 63 -77 101 -49 16 11 16 16 -12 74
-16 34 -32 63 -35 65 -3 1 -23 -5 -46 -14z"/>
<path d="M341 968 c-4 -13 -18 -52 -30 -88 l-23 -65 -106 0 -107 0 -3 -27 c-2
-15 2 -37 8 -48 12 -22 19 -23 130 -8 24 4 25 1 26 -47 l1 -51 -31 3 c-107 11
-126 3 -112 -50 5 -20 14 -28 41 -33 20 -3 48 -4 63 -1 27 5 27 5 28 -49 1
-49 -2 -55 -23 -60 -12 -4 -31 -3 -40 1 -10 4 -37 9 -59 11 -46 4 -56 -9 -47
-59 4 -21 10 -25 38 -23 17 2 37 6 44 10 7 5 28 5 47 1 30 -5 34 -9 29 -28
-19 -64 -59 -132 -105 -178 -28 -28 -50 -52 -48 -53 2 0 24 -12 51 -26 l47
-25 25 30 c39 48 88 145 106 210 12 46 21 60 35 61 10 0 32 4 48 9 19 5 36 4
48 -4 24 -15 26 -13 29 19 5 54 1 61 -27 48 -19 -9 -33 -9 -55 -1 -17 7 -36
10 -44 7 -10 -4 -11 6 -8 43 3 26 6 49 7 50 1 1 23 3 49 4 40 2 48 6 53 25 13
49 3 59 -54 56 l-52 -4 2 55 c2 30 8 54 13 53 6 -1 20 -6 33 -10 54 -18 90 14
76 68 -5 23 -10 25 -45 22 l-38 -4 19 38 c10 20 31 52 46 69 14 18 25 33 23
35 -13 11 -71 36 -84 36 -8 0 -19 -10 -24 -22z"/>
<path d="M632 699 c-19 -7 -20 -12 -12 -34 5 -14 12 -37 14 -52 8 -39 19 -46
66 -38 40 7 41 8 37 38 -11 68 -27 96 -56 95 -14 -1 -37 -5 -49 -9z"/>
<path d="M498 544 c-35 -11 -34 -77 1 -87 11 -2 39 -1 62 3 24 5 47 6 51 4 4
-3 16 0 27 6 12 6 43 8 76 4 64 -8 64 -3 4 -106 l-41 -70 -37 36 -36 35 -33
-20 c-17 -12 -32 -25 -32 -29 0 -4 32 -39 71 -77 39 -37 86 -89 105 -115 l35
-47 39 27 c22 15 39 32 40 37 0 6 -20 30 -44 54 l-44 43 89 145 c49 80 89 150
89 155 0 5 -9 6 -22 1 -13 -4 -57 -7 -98 -6 -41 1 -83 2 -92 2 -77 -1 -109 1
-148 5 -25 2 -53 2 -62 0z"/>
</g>
</svg>
