<?xml version="1.0" standalone="no"?>
<!DOCTYPE svg PUBLIC "-//W3C//DTD SVG 20010904//EN"
 "http://www.w3.org/TR/2001/REC-SVG-20010904/DTD/svg10.dtd">
<svg version="1.0" xmlns="http://www.w3.org/2000/svg"
 width="101.000000pt" height="101.000000pt" viewBox="0 0 101.000000 101.000000"
 preserveAspectRatio="xMidYMid meet">
<metadata>
Created by potrace 1.16, written by Peter Selinger 2001-2019
</metadata>
<g transform="translate(0.000000,101.000000) scale(0.100000,-0.100000)"
fill="#000000" stroke="none">
<path d="M779 901 l-45 -96 -47 0 c-26 0 -47 2 -47 5 0 3 19 13 41 22 l41 17
-33 62 c-18 33 -38 63 -45 66 -14 5 -77 -25 -72 -35 2 -4 16 -33 32 -65 16
-32 26 -60 22 -64 -3 -3 -19 -6 -36 -5 -17 0 -30 -4 -30 -11 0 -16 -53 -19
-62 -4 -11 18 -10 85 2 92 12 7 13 35 2 53 -7 10 -27 10 -105 1 -72 -9 -103
-9 -120 -1 -12 6 -42 11 -67 10 -25 0 -49 1 -55 2 -41 10 -66 -30 -44 -71 9
-18 18 -20 60 -17 41 2 48 0 42 -12 -3 -8 -7 -24 -7 -35 -1 -18 -7 -20 -55
-18 -63 3 -91 -9 -91 -40 0 -43 15 -52 84 -52 59 0 63 -1 54 -18 -5 -10 -7
-25 -4 -32 8 -23 -21 -40 -48 -27 -47 21 -82 -8 -69 -58 6 -21 18 -25 66 -21
27 2 28 1 16 -21 -22 -43 -72 -113 -103 -146 l-30 -32 36 -36 36 -36 35 52
c40 59 38 66 40 -102 2 -116 5 -121 62 -111 25 5 26 8 21 45 -5 33 -3 39 10
34 8 -3 24 -1 35 5 11 6 38 7 62 4 41 -6 43 -8 44 -42 1 -19 4 -37 7 -41 7 -6
75 -7 81 0 1 1 -1 32 -6 68 -5 35 -7 100 -4 145 10 149 12 142 -37 126 -19 -6
-66 -9 -108 -6 -41 3 -85 6 -97 6 -27 1 -27 -1 -7 48 17 44 10 42 161 44 l101
1 7 78 c4 42 10 77 14 76 20 -2 31 4 31 20 0 10 3 13 8 6 4 -6 33 -11 67 -10
l60 1 0 -53 c0 -50 -1 -52 -31 -58 -18 -3 -41 -1 -51 5 -26 14 -60 4 -66 -20
-13 -48 24 -80 66 -58 26 15 90 2 83 -16 -2 -7 0 -27 7 -44 16 -43 -4 -86 -36
-76 -20 6 -35 9 -87 16 -46 7 -63 -13 -53 -63 4 -20 10 -24 32 -23 15 1 33 5
39 9 7 4 33 4 58 0 33 -5 44 -10 40 -20 -3 -8 0 -25 6 -39 8 -19 7 -31 -6 -59
-13 -28 -14 -40 -6 -57 7 -11 9 -31 6 -44 -7 -26 14 -36 56 -28 23 4 24 8 25
101 2 139 3 144 19 138 8 -3 25 -1 38 5 16 8 38 8 69 1 43 -9 45 -8 50 15 11
60 -16 82 -68 57 -25 -12 -38 -13 -53 -5 -12 6 -27 8 -36 5 -20 -8 -32 40 -18
72 7 13 9 30 6 38 -6 15 6 17 93 17 54 1 68 14 56 58 -4 16 -14 19 -56 20 -96
0 -92 -2 -89 51 l4 47 63 7 c34 3 69 4 78 0 19 -7 30 24 22 59 -7 27 -30 41
-47 31 -6 -4 -28 -7 -48 -8 -43 -1 -45 -6 27 81 45 54 51 68 31 76 -7 3 -29
12 -48 20 l-35 15 -46 -97z m-364 -72 c0 -37 -2 -39 -30 -38 -55 2 -90 14 -86
30 2 8 4 21 3 29 0 11 13 15 57 16 l57 2 -1 -39z m0 -161 c0 -35 -2 -37 -37
-43 -20 -4 -46 -2 -57 4 -11 6 -27 8 -37 4 -14 -5 -16 -3 -10 13 5 10 9 28 11
39 1 11 3 20 4 20 0 0 29 0 63 0 l63 0 0 -37z m-44 -264 c29 -5 37 -11 37 -28
1 -11 4 -34 7 -51 3 -16 2 -36 -3 -43 -8 -12 -71 -17 -140 -12 -27 3 -39 41
-24 76 7 13 9 31 5 40 -5 13 -2 15 13 10 10 -3 26 -1 34 4 18 11 23 12 71 4z"/>
</g>
</svg>
