<?xml version="1.0" standalone="no"?>
<!DOCTYPE svg PUBLIC "-//W3C//DTD SVG 20010904//EN"
 "http://www.w3.org/TR/2001/REC-SVG-20010904/DTD/svg10.dtd">
<svg version="1.0" xmlns="http://www.w3.org/2000/svg"
 width="101.000000pt" height="102.000000pt" viewBox="0 0 101.000000 102.000000"
 preserveAspectRatio="xMidYMid meet">
<metadata>
Created by potrace 1.16, written by Peter Selinger 2001-2019
</metadata>
<g transform="translate(0.000000,102.000000) scale(0.100000,-0.100000)"
fill="#000000" stroke="none">
<path d="M315 987 c-5 -17 -9 -39 -10 -48 -1 -8 -10 -38 -19 -67 l-17 -52
-104 5 -103 5 -6 -26 c-12 -45 5 -72 39 -64 6 1 35 3 65 5 l55 3 1 -52 1 -52
-61 7 c-33 4 -63 6 -65 4 -2 -2 -4 -22 -5 -45 -2 -35 1 -41 21 -47 13 -3 43
-3 66 -1 l42 5 0 -54 c0 -47 -3 -54 -22 -59 -13 -4 -31 -3 -40 1 -10 4 -37 9
-60 11 -38 4 -43 2 -49 -20 -3 -14 -3 -33 0 -44 7 -21 31 -22 96 -7 14 4 35 2
48 -2 l23 -9 -32 -62 c-17 -35 -56 -90 -86 -123 -31 -33 -54 -61 -52 -63 2 -2
24 -14 49 -26 l44 -23 29 34 c42 50 105 167 119 222 8 32 16 46 25 43 7 -3 25
0 39 6 19 9 33 9 60 -1 20 -7 38 -10 41 -8 3 3 5 22 6 42 1 42 -16 58 -53 49
-14 -4 -41 -8 -60 -9 l-35 -3 0 52 0 51 57 0 c46 0 60 4 72 20 14 20 15 19 48
-12 33 -32 35 -32 58 -16 14 9 55 43 93 76 l68 59 37 -28 c20 -16 60 -50 89
-77 l52 -49 29 21 c62 44 62 44 -52 120 l-106 71 34 48 c18 26 48 72 65 103
27 49 29 57 15 63 -25 10 -132 7 -139 -3 -8 -14 -163 -12 -185 1 -28 18 -70
-4 -70 -36 0 -49 21 -56 150 -54 l118 3 -28 -41 c-42 -61 -151 -158 -210 -187
-46 -23 -55 -25 -64 -12 -8 11 -27 14 -74 12 l-62 -3 2 50 3 51 77 -2 c74 -2
78 -1 84 22 13 50 3 60 -59 60 -31 0 -57 1 -57 2 0 14 51 111 63 122 10 7 17
17 17 22 0 10 -45 34 -81 42 -24 6 -27 3 -34 -26z"/>
<path d="M130 1001 c-30 -8 -30 -10 -1 -88 23 -62 24 -63 59 -59 55 7 58 17
24 90 -31 66 -36 70 -82 57z"/>
<path d="M465 512 c-8 -8 -6 -65 3 -78 8 -12 61 -12 81 0 7 5 27 5 46 2 36 -7
37 -7 35 -126 0 -35 -3 -67 -6 -70 -7 -6 -134 -4 -186 3 -29 4 -37 2 -41 -13
-13 -51 22 -92 62 -70 9 5 59 7 111 5 52 -3 122 -4 155 -4 33 0 97 0 141 0 80
0 82 0 87 25 8 44 -2 66 -27 57 -11 -4 -55 -7 -96 -6 -128 4 -117 -2 -124 65
-3 33 -2 68 4 78 5 10 7 26 3 36 -5 13 -3 16 10 11 10 -4 28 -2 40 4 16 7 41
7 75 1 56 -10 62 -6 62 48 0 38 -8 41 -59 28 -33 -9 -48 -8 -64 1 -14 9 -22
10 -30 2 -14 -14 -74 -14 -82 -1 -6 10 -190 12 -200 2z"/>
</g>
</svg>
