<?xml version="1.0" standalone="no"?>
<!DOCTYPE svg PUBLIC "-//W3C//DTD SVG 20010904//EN"
 "http://www.w3.org/TR/2001/REC-SVG-20010904/DTD/svg10.dtd">
<svg version="1.0" xmlns="http://www.w3.org/2000/svg"
 width="101.000000pt" height="101.000000pt" viewBox="0 0 101.000000 101.000000"
 preserveAspectRatio="xMidYMid meet">
<metadata>
Created by potrace 1.16, written by Peter Selinger 2001-2019
</metadata>
<g transform="translate(0.000000,101.000000) scale(0.100000,-0.100000)"
fill="#000000" stroke="none">
<path d="M638 1003 c-16 -4 -17 -17 -15 -110 l3 -105 -29 6 c-16 3 -37 6 -46
6 -15 0 -16 9 -10 73 4 47 3 74 -4 79 -6 3 -30 6 -54 6 l-43 0 5 -90 c4 -56 2
-95 -5 -103 -18 -22 0 -47 32 -43 34 3 51 -17 37 -44 -6 -10 -7 -23 -4 -29 5
-7 -12 -9 -48 -5 -60 5 -70 -4 -60 -58 5 -27 16 -31 66 -27 26 2 28 0 22 -21
-21 -76 -82 -176 -146 -240 l-68 -68 46 -20 c25 -11 49 -20 53 -20 14 0 101
123 135 190 18 36 41 90 50 121 21 66 2 61 221 60 l162 -1 5 26 c9 48 -1 64
-37 57 -27 -6 -236 -8 -292 -3 -18 2 -21 7 -17 29 2 14 5 33 6 41 1 12 20 15
94 17 53 2 95 -1 98 -7 7 -12 75 -13 93 -2 8 6 14 42 17 106 3 54 7 102 10
107 3 4 -11 16 -32 24 -29 12 -43 13 -61 5 -22 -10 -23 -15 -20 -93 l3 -82
-45 -3 -45 -3 2 83 c1 46 5 92 8 104 9 30 -37 50 -87 37z"/>
<path d="M297 992 c-2 -4 -8 -20 -12 -37 -5 -16 -10 -34 -11 -40 -2 -5 -5 -17
-7 -25 -2 -8 -9 -31 -15 -51 l-12 -36 -94 4 c-86 3 -95 2 -101 -16 -3 -11 -3
-30 0 -44 6 -23 10 -24 73 -23 l67 1 0 -46 c0 -49 2 -47 -65 -38 -47 7 -63
-13 -53 -65 5 -26 7 -26 65 -21 52 5 60 3 54 -10 -3 -8 0 -27 6 -41 11 -23 9
-28 -7 -41 -13 -9 -31 -12 -50 -9 -77 15 -93 15 -98 -4 -14 -55 21 -90 68 -68
13 6 35 8 49 4 23 -6 25 -10 20 -34 -14 -56 -57 -133 -100 -178 -25 -25 -44
-47 -42 -48 2 -1 23 -10 47 -19 42 -16 46 -16 63 0 30 27 79 121 104 197 24
77 21 75 116 79 30 1 37 5 41 25 10 50 -13 78 -40 51 -7 -7 -20 -8 -34 -3 -13
5 -33 9 -44 9 -15 0 -19 6 -17 25 2 14 3 35 4 47 0 19 5 21 48 19 44 -3 49 -1
53 22 10 55 -8 69 -83 64 -11 -1 -15 10 -15 39 -1 37 1 39 30 39 93 0 125 21
110 71 -6 17 -13 19 -51 15 -24 -2 -44 -3 -44 -1 0 14 45 104 61 121 16 17 17
23 6 32 -22 18 -86 43 -90 34z"/>
<path d="M130 975 c-19 -6 -35 -16 -35 -21 0 -5 11 -37 24 -72 24 -62 25 -63
55 -56 17 3 35 10 40 14 8 8 -29 136 -42 144 -4 2 -23 -2 -42 -9z"/>
<path d="M689 553 c-22 -5 -30 -39 -17 -69 8 -17 8 -27 -1 -38 -7 -8 -14 -38
-16 -66 -2 -28 -12 -66 -22 -83 -26 -43 -95 -94 -146 -107 -77 -19 -77 -21
-37 -62 l37 -38 61 31 c74 36 139 106 155 166 l11 42 14 -42 c20 -60 65 -121
119 -162 25 -19 49 -35 53 -35 4 0 21 18 39 40 l31 39 -41 21 c-80 41 -142
111 -155 175 -2 11 -9 30 -15 42 -10 18 -10 29 -1 49 7 14 10 30 7 35 -3 5 -1
18 5 29 12 22 9 24 -40 33 -14 2 -32 2 -41 0z"/>
<path d="M560 464 c0 -11 -11 -46 -25 -78 -13 -33 -23 -61 -21 -63 1 -2 20 -4
40 -6 36 -2 38 -1 56 48 11 28 24 58 30 69 15 24 3 35 -43 43 -32 5 -37 3 -37
-13z"/>
<path d="M834 462 c-3 -9 -14 -41 -26 -70 -11 -29 -19 -54 -17 -56 2 -2 18
-11 36 -20 l31 -16 33 68 c18 37 35 70 37 73 1 4 -18 14 -43 22 -43 15 -46 15
-51 -1z"/>
</g>
</svg>
