<?xml version="1.0" standalone="no"?>
<!DOCTYPE svg PUBLIC "-//W3C//DTD SVG 20010904//EN"
 "http://www.w3.org/TR/2001/REC-SVG-20010904/DTD/svg10.dtd">
<svg version="1.0" xmlns="http://www.w3.org/2000/svg"
 width="101.000000pt" height="101.000000pt" viewBox="0 0 101.000000 101.000000"
 preserveAspectRatio="xMidYMid meet">
<metadata>
Created by potrace 1.16, written by Peter Selinger 2001-2019
</metadata>
<g transform="translate(0.000000,101.000000) scale(0.100000,-0.100000)"
fill="#000000" stroke="none">
<path d="M296 971 c-25 -47 -131 -155 -187 -192 l-51 -32 52 -26 51 -25 129
129 c71 71 126 133 123 138 -5 9 -39 23 -78 33 -19 5 -27 0 -39 -25z"/>
<path d="M598 987 c-16 -6 -28 -15 -28 -20 0 -15 65 -99 112 -144 37 -36 181
-133 198 -133 3 0 22 20 43 44 l37 44 -65 22 c-82 27 -173 94 -211 153 -30 48
-41 52 -86 34z"/>
<path d="M414 848 c-41 -66 -114 -149 -140 -159 -26 -9 -29 -24 -14 -64 9 -25
12 -25 72 -19 35 3 93 5 129 4 49 -1 71 3 82 14 10 10 33 16 65 16 39 0 53 -5
72 -25 l23 -24 38 22 c21 12 39 27 39 34 0 9 -63 68 -152 141 -14 11 -21 11
-47 -3 -39 -20 -39 -32 2 -66 l32 -27 -38 -7 c-20 -4 -52 -4 -70 0 -17 4 -49
7 -69 8 l-36 1 60 68 c33 38 64 71 69 74 18 11 8 25 -26 40 -52 21 -62 18 -91
-28z"/>
<path d="M116 564 c-9 -8 -16 -26 -16 -39 0 -28 27 -58 43 -48 6 4 63 7 127 7
l115 1 2 -66 3 -67 -43 -11 c-23 -7 -53 -14 -67 -16 -14 -2 -36 -6 -50 -10
-14 -4 -39 -6 -57 -6 -18 0 -35 -4 -38 -9 -3 -6 -15 -10 -27 -10 -15 0 -18 -4
-13 -17 4 -10 12 -30 17 -45 5 -16 15 -28 20 -28 6 0 53 16 105 36 53 19 107
37 122 39 23 3 26 0 26 -29 0 -40 -11 -47 -59 -39 l-38 6 16 -31 c9 -17 16
-35 15 -39 -5 -29 3 -34 49 -30 57 6 102 22 103 39 1 7 3 29 5 48 2 19 4 46 5
60 1 23 3 22 20 -12 11 -21 23 -38 28 -38 5 0 57 20 117 45 59 25 110 45 113
45 8 0 5 -75 -4 -89 -4 -7 -21 -11 -39 -10 -65 4 -65 4 -38 -51 13 -27 30 -50
36 -50 7 0 36 7 65 16 38 11 54 22 61 39 15 40 25 255 11 255 -6 0 -11 11 -11
25 0 14 5 25 10 25 6 0 10 25 10 56 0 53 -1 56 -22 51 -57 -14 -186 -19 -192
-8 -12 18 -138 12 -153 -8 -11 -15 -12 -15 -13 0 0 21 -28 33 -44 20 -12 -10
-279 -6 -296 4 -5 3 -16 -2 -24 -11z m448 -88 c36 6 186 7 192 1 1 -1 5 -23 9
-48 7 -45 6 -47 -24 -57 -31 -11 -32 -10 -56 39 -14 27 -32 52 -40 55 -17 7
-88 -15 -82 -24 2 -4 12 -26 23 -49 20 -46 27 -49 70 -33 15 6 29 8 32 6 6 -7
-47 -27 -73 -29 -11 0 -25 -4 -31 -9 -6 -5 -32 -10 -57 -12 l-45 -3 4 91 c2
50 3 92 4 94 0 2 7 -4 16 -13 13 -13 26 -15 58 -9z"/>
<path d="M225 458 c-16 -6 -31 -12 -33 -13 -1 -1 10 -25 24 -54 19 -36 32 -50
43 -47 9 3 28 8 44 12 15 3 27 8 27 10 0 3 -11 27 -25 54 -27 52 -32 55 -80
38z"/>
</g>
</svg>
