<?xml version="1.0" standalone="no"?>
<!DOCTYPE svg PUBLIC "-//W3C//DTD SVG 20010904//EN"
 "http://www.w3.org/TR/2001/REC-SVG-20010904/DTD/svg10.dtd">
<svg version="1.0" xmlns="http://www.w3.org/2000/svg"
 width="101.000000pt" height="101.000000pt" viewBox="0 0 101.000000 101.000000"
 preserveAspectRatio="xMidYMid meet">
<metadata>
Created by potrace 1.16, written by Peter Selinger 2001-2019
</metadata>
<g transform="translate(0.000000,101.000000) scale(0.100000,-0.100000)"
fill="#000000" stroke="none">
<path d="M338 992 c-11 -2 -22 -20 -29 -45 -20 -78 -51 -138 -66 -133 -8 4
-24 6 -35 6 -26 0 -19 9 12 15 12 2 25 7 28 10 3 3 -6 33 -20 68 -25 58 -28
62 -57 61 -61 -3 -62 -7 -31 -81 30 -70 27 -93 -8 -74 -27 14 -49 5 -56 -24
-13 -53 14 -70 98 -60 52 7 54 6 54 -16 1 -13 2 -35 4 -49 3 -25 2 -25 -63
-23 -73 2 -82 -6 -72 -60 4 -23 9 -25 41 -21 86 11 87 11 88 -21 1 -16 0 -45
-3 -63 -5 -32 -6 -32 -52 -29 -25 3 -50 6 -56 7 -39 10 -57 -14 -48 -63 5 -27
15 -28 99 -11 43 8 49 -7 25 -61 -27 -61 -64 -107 -112 -141 l-40 -27 43 -15
c24 -8 49 -19 57 -25 11 -9 20 -4 43 23 36 44 95 160 104 206 4 24 11 34 20
30 8 -3 26 0 40 6 24 11 29 9 54 -19 15 -17 30 -37 33 -44 3 -10 26 7 70 50
64 63 65 63 66 35 5 -85 -1 -159 -12 -166 -7 -4 -33 -5 -59 -3 -44 4 -62 -5
-38 -20 5 -3 14 -23 20 -44 12 -45 33 -54 88 -38 78 24 83 31 89 138 4 67 2
98 -6 103 -14 9 -15 152 -1 161 12 7 11 113 -1 121 -12 7 -11 51 1 59 6 4 10
41 8 89 -1 45 1 87 5 93 11 18 -23 46 -47 38 -32 -10 -109 -12 -128 -3 -9 4
-23 5 -32 2 -20 -8 -30 -58 -16 -84 10 -18 18 -21 43 -16 18 3 47 8 65 10 l32
4 0 -74 c0 -49 -4 -74 -11 -74 -9 0 -10 -27 -6 -93 l5 -93 -61 -42 c-69 -46
-77 -49 -77 -26 0 11 -6 13 -20 9 -10 -3 -28 -1 -39 4 -13 7 -28 8 -44 2 -24
-10 -25 -9 -20 27 2 20 4 47 5 59 0 20 5 21 53 18 50 -3 53 -1 58 22 10 52 0
62 -61 60 -55 -2 -57 -1 -54 23 2 14 3 35 4 48 0 16 5 22 14 18 8 -3 25 0 39
6 19 8 28 8 40 -2 14 -12 18 -11 26 1 10 16 10 15 15 -21 1 -14 6 -43 9 -65 4
-22 7 -54 8 -72 1 -36 23 -48 63 -33 22 9 23 14 19 62 -11 124 -21 157 -51
164 -13 3 -31 4 -39 0 -10 -4 -15 1 -15 14 0 25 -35 43 -66 36 -33 -9 -31 1
17 74 22 34 39 64 37 65 -12 11 -76 30 -90 27z"/>
<path d="M688 914 c-8 -17 -8 -33 -2 -52 10 -28 8 -28 99 -19 l30 2 3 -146 2
-147 -30 -26 c-17 -14 -53 -38 -80 -53 -28 -15 -50 -32 -50 -36 0 -4 9 -26 21
-48 l20 -41 27 23 c15 13 41 37 59 52 l31 29 2 -24 c11 -176 1 -203 -70 -202
-38 1 -51 -8 -30 -21 5 -3 14 -23 20 -45 6 -23 17 -40 28 -42 17 -4 80 17 117
39 21 12 22 26 24 363 1 108 1 130 4 277 3 139 -2 155 -42 134 -16 -9 -44 -8
-139 4 -27 3 -35 0 -44 -21z"/>
<path d="M696 771 c-3 -5 -3 -28 0 -52 4 -24 6 -68 6 -97 -1 -47 1 -54 22 -62
40 -15 66 -2 68 34 3 68 -16 165 -36 178 -15 11 -54 10 -60 -1z"/>
</g>
</svg>
