<?xml version="1.0" standalone="no"?>
<!DOCTYPE svg PUBLIC "-//W3C//DTD SVG 20010904//EN"
 "http://www.w3.org/TR/2001/REC-SVG-20010904/DTD/svg10.dtd">
<svg version="1.0" xmlns="http://www.w3.org/2000/svg"
 width="101.000000pt" height="101.000000pt" viewBox="0 0 101.000000 101.000000"
 preserveAspectRatio="xMidYMid meet">
<metadata>
Created by potrace 1.16, written by Peter Selinger 2001-2019
</metadata>
<g transform="translate(0.000000,101.000000) scale(0.100000,-0.100000)"
fill="#000000" stroke="none">
<path d="M418 965 c2 -25 1 -57 -2 -70 -6 -25 -8 -25 -84 -21 -42 2 -89 7
-104 11 -38 10 -68 -10 -68 -45 0 -54 21 -63 135 -55 l103 7 3 -44 4 -44 -62
3 c-34 2 -64 -1 -68 -7 -8 -13 -52 -13 -60 0 -3 6 -40 10 -81 9 -95 -2 -114
-16 -98 -76 6 -22 34 -33 34 -13 0 6 32 10 75 10 49 0 75 -4 75 -11 0 -9 35
-10 128 -5 l127 7 -64 -42 c-52 -34 -74 -42 -115 -43 -47 -1 -51 -3 -51 -26 0
-20 -11 -30 -54 -51 -30 -15 -78 -35 -107 -44 -30 -9 -54 -19 -54 -22 0 -2 14
-22 32 -44 l31 -39 73 40 c40 22 74 40 76 40 4 0 8 -103 7 -206 0 -101 3 -106
70 -96 31 4 33 7 28 37 -5 28 -2 33 16 34 12 1 45 3 72 6 28 2 98 1 156 -2
l106 -5 0 -29 c0 -38 6 -44 55 -42 48 2 51 4 48 35 -1 13 -2 112 -1 220 l0
197 -153 -2 -153 -2 50 34 c55 37 64 38 307 44 52 1 98 6 102 12 4 5 8 22 8
38 0 38 -27 46 -148 44 l-99 -3 50 46 c64 57 115 98 129 102 20 7 1 36 -42 64
l-41 27 -17 -24 c-9 -13 -30 -39 -47 -57 -29 -32 -31 -33 -32 -11 -2 27 -21
41 -48 34 -11 -3 -51 -6 -90 -8 l-70 -2 2 40 c1 22 5 52 9 68 6 27 6 27 -47
27 l-54 0 3 -45z m222 -217 c-38 -34 -52 -41 -90 -42 l-45 -1 0 40 0 40 90 2
90 2 -45 -41z m55 -328 l0 -38 -60 -6 c-81 -8 -168 -6 -180 4 -5 5 -33 7 -60
7 l-50 -2 3 35 4 35 171 2 172 2 0 -39z m-35 -109 c34 -1 36 -3 37 -40 l2 -39
-107 -5 c-59 -3 -129 -4 -157 -2 -27 3 -60 5 -72 6 -19 1 -22 7 -20 40 1 30 5
38 17 34 8 -2 22 0 30 5 8 5 65 8 125 6 61 -2 126 -5 145 -5z"/>
</g>
</svg>
