<?xml version="1.0" standalone="no"?>
<!DOCTYPE svg PUBLIC "-//W3C//DTD SVG 20010904//EN"
 "http://www.w3.org/TR/2001/REC-SVG-20010904/DTD/svg10.dtd">
<svg version="1.0" xmlns="http://www.w3.org/2000/svg"
 width="101.000000pt" height="101.000000pt" viewBox="0 0 101.000000 101.000000"
 preserveAspectRatio="xMidYMid meet">
<metadata>
Created by potrace 1.16, written by Peter Selinger 2001-2019
</metadata>
<g transform="translate(0.000000,101.000000) scale(0.100000,-0.100000)"
fill="#000000" stroke="none">
<path d="M458 965 c8 -92 10 -90 -130 -88 -68 1 -135 4 -150 8 -40 10 -68 -10
-68 -48 0 -57 2 -58 172 -54 l156 3 4 -38 4 -38 -110 5 c-60 3 -117 3 -127 0
-22 -7 -34 -57 -19 -84 13 -26 90 -30 114 -6 11 12 32 15 78 13 l62 -3 1 -46
0 -47 -69 -7 c-40 -4 -71 -3 -75 3 -6 9 -163 21 -193 15 -18 -5 -33 -52 -24
-81 7 -22 91 -28 140 -11 21 7 51 8 91 2 l60 -9 -80 -80 c-74 -74 -132 -112
-219 -144 l-30 -11 45 -39 c24 -22 48 -39 52 -40 30 -1 227 176 284 255 l21
30 1 -25 c6 -101 5 -232 -1 -266 -9 -48 0 -54 64 -46 36 4 37 5 30 36 -5 27
-7 211 -2 286 l2 25 21 -30 c70 -101 303 -282 315 -245 3 7 22 32 43 55 l39
42 -80 26 c-91 30 -167 76 -222 133 l-37 39 52 -2 c29 0 57 3 63 8 7 5 48 8
92 6 87 -4 92 -1 92 48 0 38 -31 48 -92 30 -60 -17 -104 -19 -113 -5 -4 6 -40
9 -88 8 l-82 -3 0 49 0 48 90 -4 c50 -3 101 -10 113 -17 31 -16 59 -6 66 25
11 43 -1 61 -46 68 -24 4 -45 3 -52 -4 -13 -13 -49 -13 -63 1 -6 6 -33 9 -60
8 l-48 -4 0 35 -1 35 44 -4 c24 -2 55 2 68 9 18 10 44 10 116 2 69 -7 95 -7
101 2 7 10 3 74 -6 82 -5 5 -77 6 -212 2 l-110 -3 2 40 c1 22 5 52 9 68 6 27
6 27 -47 27 l-54 0 3 -45z"/>
</g>
</svg>
