<?xml version="1.0" standalone="no"?>
<!DOCTYPE svg PUBLIC "-//W3C//DTD SVG 20010904//EN"
 "http://www.w3.org/TR/2001/REC-SVG-20010904/DTD/svg10.dtd">
<svg version="1.0" xmlns="http://www.w3.org/2000/svg"
 width="101.000000pt" height="103.000000pt" viewBox="0 0 101.000000 103.000000"
 preserveAspectRatio="xMidYMid meet">
<metadata>
Created by potrace 1.16, written by Peter Selinger 2001-2019
</metadata>
<g transform="translate(0.000000,103.000000) scale(0.100000,-0.100000)"
fill="#000000" stroke="none">
<path d="M749 1013 c-1 -10 -1 -22 0 -27 1 -5 4 -47 7 -95 l5 -86 -61 0 -60 0
4 75 c2 41 7 87 11 101 6 24 3 27 -28 33 -19 3 -42 4 -51 0 -21 -8 -32 -52
-17 -67 12 -12 14 -52 5 -107 -6 -35 -6 -35 -54 -32 -46 4 -48 3 -55 -27 -12
-55 -1 -68 55 -67 38 1 49 -2 45 -12 -3 -7 0 -22 5 -33 6 -11 8 -40 4 -69 l-7
-51 -57 5 c-64 6 -71 -1 -63 -60 4 -27 8 -30 31 -27 89 11 87 12 86 -32 -3
-97 -54 -194 -128 -247 l-45 -31 47 -30 c56 -35 61 -33 119 52 50 73 95 205
95 277 0 15 7 22 22 23 11 0 37 2 56 3 39 3 36 10 45 -114 3 -44 -1 -81 -10
-108 -11 -31 -12 -47 -4 -62 6 -11 8 -36 4 -57 -7 -43 5 -52 61 -44 29 4 30 7
28 52 0 26 -6 63 -13 82 -7 21 -9 67 -6 115 3 43 6 89 6 100 1 23 5 24 86 27
35 1 42 5 46 25 10 53 1 61 -68 57 l-63 -4 -6 50 c-4 28 -2 57 4 68 5 11 7 26
4 34 -5 15 -2 16 73 19 36 1 48 20 37 61 -5 24 -10 25 -58 24 l-53 -2 3 78 c2
42 8 86 14 97 15 28 4 40 -30 33 -19 -3 -30 -1 -30 6 0 19 -40 13 -41 -6z m7
-309 c-3 -8 -1 -24 5 -37 6 -14 7 -41 2 -72 -9 -49 -9 -50 -43 -47 -19 1 -45
3 -56 3 -18 1 -23 9 -28 50 -4 28 -2 57 4 68 5 11 8 26 5 33 -4 10 10 13 56
14 48 2 59 -1 55 -12z"/>
<path d="M227 1013 c-16 -4 -18 -13 -15 -63 l3 -57 -60 4 c-67 5 -81 -1 -90
-38 -8 -31 18 -64 40 -51 8 4 34 6 59 4 36 -3 46 -8 46 -22 0 -10 3 -25 6 -34
5 -13 1 -15 -25 -10 -73 15 -122 -15 -106 -65 5 -16 13 -18 43 -15 89 12 85
13 89 -33 2 -38 0 -43 -22 -49 -14 -3 -33 -3 -42 1 -10 4 -34 9 -54 11 -41 4
-51 -11 -42 -60 5 -24 7 -25 64 -20 l59 5 -10 -25 c-20 -54 -52 -108 -95 -161
l-45 -55 27 -41 27 -42 21 27 c11 15 41 65 67 113 33 61 46 79 47 62 1 -13 3
-51 6 -84 2 -33 -1 -75 -7 -94 -6 -19 -12 -56 -13 -82 -3 -52 6 -60 62 -52
l30 5 1 131 c0 202 -4 191 51 128 l48 -54 36 29 c21 16 37 31 37 34 0 3 -27
32 -60 65 l-60 59 -24 -23 -25 -24 2 41 1 40 57 -3 c50 -3 58 -1 62 16 10 38
-2 55 -41 57 -85 3 -81 1 -79 43 1 28 5 38 14 35 7 -3 24 0 38 6 19 8 28 8 40
-2 14 -12 18 -11 26 1 15 24 10 58 -10 69 -11 5 -42 10 -70 10 l-51 0 0 35 c0
33 1 34 35 31 20 -2 38 -6 42 -10 23 -22 83 8 83 42 0 32 -16 42 -77 48 -56 6
-62 9 -66 33 -3 14 0 34 5 45 18 34 -27 54 -85 39z"/>
</g>
</svg>
