<?xml version="1.0" standalone="no"?>
<!DOCTYPE svg PUBLIC "-//W3C//DTD SVG 20010904//EN"
 "http://www.w3.org/TR/2001/REC-SVG-20010904/DTD/svg10.dtd">
<svg version="1.0" xmlns="http://www.w3.org/2000/svg"
 width="101.000000pt" height="101.000000pt" viewBox="0 0 101.000000 101.000000"
 preserveAspectRatio="xMidYMid meet">
<metadata>
Created by potrace 1.16, written by Peter Selinger 2001-2019
</metadata>
<g transform="translate(0.000000,101.000000) scale(0.100000,-0.100000)"
fill="#000000" stroke="none">
<path d="M219 1003 c-13 -3 -16 -16 -15 -63 l1 -60 -72 5 c-69 4 -71 3 -77
-21 -14 -55 -2 -64 77 -60 l72 4 0 -37 0 -37 -61 4 c-60 4 -61 3 -68 -23 -11
-43 1 -64 41 -71 20 -4 48 -3 62 3 25 9 26 8 26 -29 0 -35 -3 -39 -32 -44 -17
-3 -37 -3 -44 2 -7 4 -27 8 -45 10 -35 2 -46 -14 -37 -59 6 -30 31 -39 79 -25
20 5 38 7 41 4 12 -12 -54 -133 -122 -223 -7 -9 -1 -22 22 -45 18 -18 34 -30
37 -27 2 2 24 37 49 77 40 65 47 71 56 54 11 -21 9 -197 -3 -223 -9 -20 16
-28 62 -21 31 4 32 6 26 37 -3 18 -1 42 5 53 8 15 6 32 -6 68 -13 37 -14 54
-5 76 6 16 8 37 6 46 -3 9 15 -5 40 -31 l45 -48 35 27 c39 31 39 30 -23 97
-41 43 -47 44 -77 16 l-23 -22 2 42 c1 29 5 40 14 37 7 -3 25 0 39 6 19 9 33
9 62 -2 38 -14 122 -25 122 -16 0 2 12 47 26 98 14 51 27 100 28 108 1 8 8 35
15 59 7 23 11 44 9 45 -2 1 -20 7 -40 14 -51 18 -79 3 -77 -41 2 -69 -27 -188
-60 -243 -10 -18 -11 -18 -9 1 3 46 -1 51 -44 52 -90 4 -87 2 -85 42 l1 36 62
-2 c69 -3 82 8 68 60 -5 24 -9 26 -67 24 l-62 -2 0 35 -1 35 73 -2 c64 -2 73
0 78 18 4 11 4 30 1 43 -5 20 -11 22 -80 22 -69 -1 -74 0 -69 19 2 11 6 29 8
40 2 11 6 27 10 36 8 22 -48 35 -96 22z"/>
<path d="M632 938 c0 -32 3 -60 8 -63 12 -8 11 -173 -1 -180 -5 -4 -8 -73 -6
-160 2 -168 2 -167 64 -158 33 5 31 0 32 113 0 14 0 73 1 133 1 69 -2 107 -9
107 -6 0 -11 11 -11 25 0 14 4 25 9 25 4 0 11 39 15 88 4 48 8 96 9 106 2 17
-5 20 -54 20 l-56 1 -1 -57z"/>
<path d="M788 808 c-21 -12 -38 -26 -38 -31 0 -5 13 -26 28 -46 16 -20 48 -69
72 -108 23 -40 45 -73 47 -73 5 0 70 37 82 47 4 3 -147 233 -152 233 -1 0 -19
-10 -39 -22z"/>
<path d="M807 543 c-3 -5 -8 -24 -12 -43 -12 -58 -65 -147 -115 -194 -65 -61
-165 -109 -245 -120 -37 -4 -85 -17 -85 -22 0 -2 10 -14 23 -26 13 -13 28 -32
34 -43 11 -18 15 -19 60 -7 26 7 89 32 140 57 128 63 196 132 260 262 26 54
48 102 48 107 0 19 -99 45 -108 29z"/>
</g>
</svg>
