<?xml version="1.0" standalone="no"?>
<!DOCTYPE svg PUBLIC "-//W3C//DTD SVG 20010904//EN"
 "http://www.w3.org/TR/2001/REC-SVG-20010904/DTD/svg10.dtd">
<svg version="1.0" xmlns="http://www.w3.org/2000/svg"
 width="101.000000pt" height="102.000000pt" viewBox="0 0 101.000000 102.000000"
 preserveAspectRatio="xMidYMid meet">
<metadata>
Created by potrace 1.16, written by Peter Selinger 2001-2019
</metadata>
<g transform="translate(0.000000,102.000000) scale(0.100000,-0.100000)"
fill="#000000" stroke="none">
<path d="M610 987 c-6 -18 -14 -43 -16 -57 -8 -39 -90 -201 -122 -238 l-28
-34 1 29 0 28 -67 -3 -66 -4 1 39 c2 38 2 38 44 38 22 0 45 -3 49 -7 23 -24
64 10 64 53 0 38 -33 55 -87 44 -21 -5 -43 -9 -49 -11 -6 -1 -10 6 -8 15 1 9
5 39 8 67 l5 52 -40 -5 c-25 -4 -39 -2 -39 6 0 6 -9 11 -19 11 -18 0 -19 -7
-18 -72 l2 -73 -40 3 c-22 1 -53 5 -70 7 -38 7 -53 -3 -61 -41 -7 -38 18 -69
50 -59 12 3 44 7 71 9 l51 3 -1 -36 0 -36 -75 0 c-80 0 -89 -7 -76 -59 5 -20
12 -23 72 -24 37 -1 68 -3 70 -5 1 -1 4 -18 6 -37 3 -33 2 -35 -27 -33 -16 2
-43 5 -60 8 -40 7 -66 7 -73 0 -7 -7 -6 -74 1 -82 7 -6 40 -7 95 -1 40 5 42 4
36 -16 -12 -41 -70 -130 -116 -178 -27 -27 -48 -51 -48 -54 0 -7 64 -63 73
-64 4 0 35 42 69 93 33 50 58 84 55 74 -4 -9 -2 -28 4 -41 8 -17 8 -39 -2 -82
-7 -33 -13 -76 -14 -96 -1 -42 8 -47 68 -40 l39 4 -7 44 c-3 25 -2 52 5 63 8
15 6 30 -7 62 -13 33 -14 48 -5 71 6 16 8 37 5 46 -10 28 34 -15 59 -57 12
-20 23 -38 25 -40 4 -6 83 48 83 57 0 4 -24 34 -53 66 l-52 59 -32 -16 -31
-16 1 35 c1 23 5 33 13 30 7 -3 26 0 43 7 25 9 36 9 52 -1 25 -16 27 -15 30
18 5 54 2 57 -48 58 -87 1 -88 2 -88 36 0 30 1 31 47 31 28 0 43 -4 38 -9 -5
-5 10 -21 38 -39 l46 -29 28 33 c26 30 28 31 28 11 0 -20 16 -29 45 -22 6 1
35 2 65 2 30 0 61 5 68 11 9 7 28 7 64 -2 52 -14 67 -8 68 27 0 17 8 15 38 -9
l26 -20 21 28 c11 15 28 36 38 46 22 22 25 18 -41 51 -30 15 -74 45 -98 68
-51 47 -105 147 -98 183 4 20 -1 28 -23 36 -16 6 -42 13 -60 14 -28 3 -33 -1
-43 -28z m100 -177 c17 -33 46 -77 64 -98 l34 -37 -27 -3 c-42 -4 -192 -4
-196 -1 -3 4 87 198 92 199 2 0 16 -27 33 -60z"/>
<path d="M529 493 c-21 -5 -31 -41 -18 -64 10 -19 5 -257 -6 -302 -8 -28 10
-36 66 -29 34 4 35 5 33 44 -2 31 1 38 13 34 8 -3 23 -1 33 4 11 6 43 8 73 4
51 -6 54 -8 54 -35 0 -16 3 -32 7 -36 7 -7 85 -7 92 0 2 2 0 37 -6 78 -10 68
-8 171 3 261 l5 37 -151 -2 c-84 -1 -159 1 -167 4 -8 4 -22 5 -31 2z m227 -93
c15 0 22 -7 24 -22 3 -47 2 -119 -2 -123 -4 -5 -99 -7 -150 -4 -23 1 -28 7
-33 39 -4 22 -2 47 4 59 6 11 8 27 4 36 -5 14 -2 16 13 11 10 -3 26 -1 34 5 8
5 31 7 50 4 19 -2 45 -5 56 -5z"/>
</g>
</svg>
