<?xml version="1.0" standalone="no"?>
<!DOCTYPE svg PUBLIC "-//W3C//DTD SVG 20010904//EN"
 "http://www.w3.org/TR/2001/REC-SVG-20010904/DTD/svg10.dtd">
<svg version="1.0" xmlns="http://www.w3.org/2000/svg"
 width="101.000000pt" height="101.000000pt" viewBox="0 0 101.000000 101.000000"
 preserveAspectRatio="xMidYMid meet">
<metadata>
Created by potrace 1.16, written by Peter Selinger 2001-2019
</metadata>
<g transform="translate(0.000000,101.000000) scale(0.100000,-0.100000)"
fill="#000000" stroke="none">
<path d="M198 1003 c-13 -3 -16 -16 -15 -66 l2 -62 -35 2 c-19 1 -44 5 -55 8
-26 7 -42 -4 -49 -35 -11 -43 6 -55 76 -53 l63 2 0 -32 c0 -30 -2 -32 -27 -29
-52 8 -95 -6 -102 -32 -13 -53 26 -78 94 -59 l36 9 1 -38 c2 -35 0 -38 -32
-44 -18 -3 -39 -3 -46 2 -7 4 -27 8 -45 10 -36 2 -46 -14 -37 -60 5 -26 7 -26
65 -21 58 5 59 5 52 -17 -11 -39 -35 -80 -81 -146 l-45 -63 23 -27 c13 -15 27
-31 30 -35 4 -5 29 28 57 73 44 71 52 79 61 63 10 -21 9 -146 -4 -204 -8 -41
5 -50 63 -41 28 4 32 7 25 26 -4 11 -7 64 -6 116 4 162 -1 151 43 102 41 -46
45 -46 94 -8 18 14 17 17 -24 66 -44 53 -63 60 -91 34 -17 -15 -18 -14 -16 25
1 29 5 40 14 37 7 -3 25 0 39 6 20 9 30 9 46 -1 25 -15 31 -9 31 29 l0 30 24
-22 23 -22 36 35 c20 19 54 56 75 82 l39 49 1 -54 c2 -72 1 -77 -24 -128 -19
-38 -27 -45 -52 -46 -16 0 -42 3 -57 7 -53 15 -84 -11 -71 -60 4 -17 12 -19
59 -15 30 3 54 2 54 -1 0 -4 -14 -27 -31 -51 -17 -25 -29 -47 -27 -48 1 -2 36
-11 76 -21 39 -9 72 -20 72 -24 0 -13 -97 -40 -165 -46 -22 -2 -53 -8 -68 -12
l-28 -8 25 -34 c14 -19 27 -38 29 -44 4 -14 191 39 260 73 67 33 67 33 175
-38 l52 -35 34 39 c19 21 31 42 28 45 -4 4 -41 21 -82 39 -41 18 -78 35 -83
39 -4 4 6 32 22 62 31 56 35 58 118 61 34 2 46 21 36 59 -5 19 -10 20 -42 13
-30 -6 -155 -8 -239 -3 l-24 1 27 28 c27 28 27 50 -1 50 -8 0 -14 5 -14 10 0
6 6 10 14 10 17 0 32 79 22 106 -4 9 15 -7 40 -35 26 -29 66 -65 91 -82 l44
-31 39 34 c21 18 39 36 39 39 1 3 -16 11 -37 17 -45 14 -129 67 -141 91 -8 14
0 16 66 17 81 2 95 10 91 54 -2 19 -8 24 -23 22 -11 -1 -64 -5 -118 -9 l-97
-6 6 99 7 99 -51 0 -51 0 2 -95 2 -95 -62 -3 c-39 -2 -63 1 -63 8 0 5 -11 10
-25 10 -22 0 -25 4 -25 35 0 39 -27 61 -62 49 -11 -3 -37 -7 -58 -8 -36 -1
-37 0 -34 34 2 19 6 44 9 56 9 30 -38 50 -87 37z m188 -240 l0 -32 -50 6 c-28
3 -51 6 -52 7 -1 1 -4 12 -7 26 -6 24 -5 25 51 25 l57 0 1 -32z m126 -67 c-22
-26 -66 -64 -116 -100 -35 -25 -43 -28 -69 -18 -15 6 -35 8 -42 6 -11 -4 -14
4 -12 33 l1 39 57 -3 c49 -3 58 -1 64 15 3 11 3 25 0 33 -4 11 9 14 65 14 68
1 69 0 52 -19z m212 -292 c14 -5 13 -10 -4 -42 -36 -68 -32 -66 -91 -47 -30
10 -56 19 -58 21 -2 1 7 17 19 34 14 20 28 29 38 26 10 -3 24 -1 32 4 17 11
42 13 64 4z"/>
<path d="M769 918 c-18 -29 -37 -58 -42 -65 -9 -14 51 -49 63 -36 4 4 27 30
51 57 l44 48 -30 24 c-17 13 -35 24 -41 24 -6 0 -26 -24 -45 -52z"/>
<path d="M472 944 l-32 -14 32 -58 c17 -31 32 -58 33 -60 4 -5 75 29 75 36 0
13 -60 112 -68 111 -4 0 -22 -7 -40 -15z"/>
</g>
</svg>
