<?xml version="1.0" standalone="no"?>
<!DOCTYPE svg PUBLIC "-//W3C//DTD SVG 20010904//EN"
 "http://www.w3.org/TR/2001/REC-SVG-20010904/DTD/svg10.dtd">
<svg version="1.0" xmlns="http://www.w3.org/2000/svg"
 width="101.000000pt" height="101.000000pt" viewBox="0 0 101.000000 101.000000"
 preserveAspectRatio="xMidYMid meet">
<metadata>
Created by potrace 1.16, written by Peter Selinger 2001-2019
</metadata>
<g transform="translate(0.000000,101.000000) scale(0.100000,-0.100000)"
fill="#000000" stroke="none">
<path d="M205 958 l1 -53 -72 2 -73 2 -6 -29 c-10 -46 2 -55 79 -55 l69 0 1
-36 c1 -20 -3 -36 -9 -34 -5 1 -21 5 -35 9 -38 11 -80 -9 -80 -36 0 -47 14
-53 94 -46 28 3 30 1 33 -39 l3 -43 -48 5 c-72 8 -76 8 -93 7 -19 -2 -29 -30
-22 -65 4 -21 10 -25 36 -22 18 1 40 6 50 10 9 4 24 4 33 1 23 -9 -45 -133
-112 -203 l-52 -56 35 -33 c29 -28 39 -32 50 -22 20 16 67 86 99 145 14 26 23
40 20 31 -2 -9 0 -30 6 -46 9 -23 8 -38 -5 -70 -13 -33 -14 -46 -4 -71 9 -24
9 -36 -1 -51 -27 -43 -7 -62 56 -52 23 3 32 10 32 23 0 23 25 24 60 4 14 -8
28 -14 32 -15 21 -1 102 172 100 213 0 9 3 17 9 17 5 0 9 -6 9 -14 0 -18 36
-27 67 -15 14 5 29 7 34 4 5 -3 17 -1 28 5 29 15 134 2 127 -17 -3 -7 -1 -24
5 -37 9 -18 8 -32 -2 -56 -12 -26 -19 -31 -44 -29 -65 4 -67 3 -45 -33 11 -18
20 -41 20 -50 0 -16 20 -24 45 -18 6 1 21 4 35 6 14 1 35 15 48 29 19 22 22
38 21 93 -1 113 -1 113 34 107 17 -3 33 -8 37 -10 3 -2 12 0 20 5 13 8 19 64
7 76 -8 9 -49 9 -72 1 -16 -5 -21 -3 -22 13 -2 18 2 20 31 15 30 -6 35 -3 55
30 12 21 20 39 17 42 -2 2 -21 6 -41 9 -20 2 -49 11 -64 18 l-26 14 48 21 c26
11 47 24 47 29 0 13 -44 52 -59 52 -7 0 -26 -11 -43 -25 -37 -31 -42 -31 -56
0 -15 33 -15 38 2 32 8 -3 28 -1 44 5 23 9 38 8 69 -5 43 -17 62 -12 64 18 6
59 12 57 -152 50 -91 -3 -155 -2 -162 4 -7 5 -35 8 -63 8 l-52 -2 2 77 1 78
43 0 c23 0 42 5 42 10 0 6 11 10 25 10 14 0 25 -5 25 -11 0 -6 30 -10 78 -10
42 0 97 -2 122 -4 69 -8 87 0 94 39 11 59 7 61 -114 64 -61 1 -111 -2 -114 -7
-8 -12 -173 -13 -181 -1 -3 5 -22 9 -43 9 -66 -1 -70 -5 -69 -59 1 -28 -1 -50
-5 -50 -5 0 -8 7 -8 15 0 17 -39 29 -78 23 -26 -4 -27 -3 -24 43 4 45 3 46
-28 53 -63 12 -65 11 -65 -46z m216 -232 c12 -13 12 -53 -1 -61 -5 -3 -11 -25
-11 -48 -1 -23 -3 -35 -6 -26 -3 13 -15 16 -63 13 l-59 -2 2 37 c1 36 2 37 46
39 50 2 64 15 55 52 -6 28 -23 42 -42 35 -54 -20 -58 -18 -54 23 4 41 15 45
70 28 12 -4 26 -1 34 7 11 13 13 7 16 -37 2 -28 7 -55 13 -60z m127 -101 c1
-11 4 -33 7 -50 4 -20 0 -42 -13 -67 -20 -38 -19 -42 14 -86 1 -2 37 9 79 25
l77 28 -6 34 c-7 44 -9 45 -46 26 -39 -20 -54 -7 -45 40 3 17 6 40 7 52 0 17
6 22 22 20 15 -1 26 -15 39 -49 10 -26 38 -68 63 -94 41 -42 43 -46 24 -51
-17 -4 -20 -12 -18 -37 3 -30 2 -31 -32 -29 -19 2 -62 5 -95 7 -33 2 -67 5
-75 6 -30 6 -49 0 -52 -17 -3 -14 -1 137 3 243 2 30 46 28 47 -1z m-132 -122
c-8 -68 -12 -104 -14 -118 -1 -5 -17 15 -35 45 -33 55 -37 57 -68 45 -12 -4
-16 1 -16 24 l0 29 59 -3 c52 -4 58 -2 58 15 0 11 5 20 11 20 8 0 9 -18 5 -57z
m-107 -128 l21 -44 36 21 36 21 -7 -34 c-9 -42 -46 -114 -79 -154 l-24 -30
-11 29 c-7 17 -9 61 -6 110 3 44 6 91 6 104 1 12 2 22 4 22 2 0 12 -20 24 -45z"/>
<path d="M537 839 c-17 -10 -22 -45 -9 -65 5 -8 62 -12 180 -11 171 0 172 0
178 23 9 36 1 59 -21 56 -69 -11 -187 -13 -198 -4 -16 13 -107 14 -130 1z"/>
<path d="M582 294 c-18 -8 -32 -18 -30 -22 33 -68 43 -88 44 -90 5 -8 84 22
84 31 0 15 -50 97 -58 96 -4 0 -22 -7 -40 -15z"/>
</g>
</svg>
