<?xml version="1.0" standalone="no"?>
<!DOCTYPE svg PUBLIC "-//W3C//DTD SVG 20010904//EN"
 "http://www.w3.org/TR/2001/REC-SVG-20010904/DTD/svg10.dtd">
<svg version="1.0" xmlns="http://www.w3.org/2000/svg"
 width="101.000000pt" height="102.000000pt" viewBox="0 0 101.000000 102.000000"
 preserveAspectRatio="xMidYMid meet">
<metadata>
Created by potrace 1.16, written by Peter Selinger 2001-2019
</metadata>
<g transform="translate(0.000000,102.000000) scale(0.100000,-0.100000)"
fill="#000000" stroke="none">
<path d="M196 996 c-3 -13 -3 -44 0 -69 l7 -46 -72 4 c-68 4 -71 3 -77 -20
-12 -48 8 -72 56 -66 8 1 33 2 55 4 l41 2 -1 -37 c0 -42 -3 -43 -39 -27 -14 7
-40 9 -59 5 -37 -7 -48 -26 -40 -69 4 -23 9 -25 41 -20 96 12 95 12 99 -34 3
-41 2 -41 -36 -48 -22 -4 -48 -2 -59 4 -43 23 -75 -8 -65 -62 4 -22 10 -25 36
-22 18 2 42 7 53 10 12 4 25 2 28 -4 10 -16 -51 -126 -102 -182 l-44 -49 29
-34 c15 -19 31 -35 34 -35 8 -1 68 83 100 142 22 41 27 46 28 26 0 -13 3 -58
6 -100 3 -52 1 -89 -9 -116 -18 -53 -8 -68 45 -66 23 1 43 4 45 6 2 2 -1 17
-6 34 -6 17 -8 67 -5 119 3 49 5 100 6 114 l1 25 21 -25 c12 -14 31 -38 43
-54 l21 -29 34 31 34 31 -58 58 c-50 51 -59 56 -76 46 -17 -11 -19 -9 -18 21
1 27 5 34 21 35 12 0 37 2 56 3 28 2 37 -1 45 -19 12 -28 29 -31 97 -20 l36 5
-3 -54 c-6 -108 -68 -192 -172 -233 l-32 -13 42 -33 42 -32 36 18 c49 24 124
109 145 165 12 31 22 43 31 40 8 -3 23 -1 33 4 22 12 132 2 124 -11 -3 -5 -7
-25 -10 -45 -7 -57 -19 -65 -81 -60 -48 4 -54 3 -47 -12 3 -9 12 -32 19 -51
17 -45 42 -54 102 -34 74 24 88 43 99 133 1 14 5 45 9 70 7 53 8 81 2 86 -2 2
-17 0 -33 -6 -16 -6 -63 -8 -104 -5 -41 3 -84 6 -96 6 -16 1 -21 8 -21 29 0
33 -6 32 179 32 l136 0 5 25 c8 41 -2 63 -27 58 -25 -6 -118 -8 -160 -3 -25 2
-32 10 -44 46 -13 41 -16 43 -46 38 -64 -10 -68 -14 -50 -48 9 -16 13 -33 9
-36 -10 -10 -145 -6 -217 7 -5 0 -8 7 -8 14 0 9 -14 14 -37 15 -85 3 -82 1
-80 42 1 40 0 39 75 42 22 1 32 6 32 17 1 13 3 12 16 -4 10 -13 14 -32 10 -52
-5 -35 1 -39 54 -34 29 3 42 19 34 42 -3 12 2 17 18 18 13 1 46 3 73 6 28 2
98 1 157 -2 l107 -6 -5 -32 c-6 -37 9 -45 63 -38 l30 5 0 74 -1 75 -31 -8
c-16 -4 -46 -7 -65 -5 -91 4 -83 1 -63 26 10 11 26 28 37 37 23 20 15 35 -24
44 -17 4 -30 11 -30 17 0 7 26 9 79 5 78 -6 79 -6 85 19 14 56 -19 83 -87 70
-72 -13 -122 -12 -123 4 -1 8 -2 18 -4 23 -3 9 -7 25 -9 36 -2 17 -33 21 -72
10 -41 -13 -46 -18 -29 -35 6 -6 12 -19 14 -30 4 -19 0 -19 -72 -12 -43 4 -87
4 -100 1 -27 -6 -39 -45 -23 -79 12 -28 24 -30 45 -9 17 17 156 22 156 5 0 -5
22 -10 49 -10 30 0 51 -5 54 -12 2 -7 -7 -34 -21 -60 -23 -44 -27 -47 -62 -45
-31 1 -35 3 -23 12 14 10 12 17 -12 58 -15 26 -29 47 -31 47 -11 0 -74 -30
-74 -35 0 -3 10 -19 21 -35 28 -38 19 -65 -19 -56 -68 16 -101 16 -105 -2 -4
-14 -6 -13 -12 6 -9 27 -48 39 -81 23 -14 -6 -26 -11 -27 -11 -1 0 -1 17 1 38
3 34 6 38 30 36 15 -1 34 -5 43 -9 25 -10 51 22 47 59 -3 31 -3 31 -63 31
l-61 0 2 30 c3 34 10 71 18 84 3 5 -15 6 -39 3 -30 -3 -45 -1 -45 7 0 21 -28
11 -34 -13z"/>
</g>
</svg>
