<?xml version="1.0" standalone="no"?>
<!DOCTYPE svg PUBLIC "-//W3C//DTD SVG 20010904//EN"
 "http://www.w3.org/TR/2001/REC-SVG-20010904/DTD/svg10.dtd">
<svg version="1.0" xmlns="http://www.w3.org/2000/svg"
 width="101.000000pt" height="101.000000pt" viewBox="0 0 101.000000 101.000000"
 preserveAspectRatio="xMidYMid meet">
<metadata>
Created by potrace 1.16, written by Peter Selinger 2001-2019
</metadata>
<g transform="translate(0.000000,101.000000) scale(0.100000,-0.100000)"
fill="#000000" stroke="none">
<path d="M639 1001 c11 -7 13 -25 8 -80 -3 -39 -9 -76 -12 -81 -8 -14 -145
-13 -145 1 0 6 -10 9 -22 7 -18 -2 -24 -11 -26 -35 -2 -20 1 -33 8 -33 9 0 11
-22 8 -74 -4 -82 2 -89 55 -79 23 5 27 12 32 58 4 30 4 58 1 63 -3 6 13 11 37
13 l44 4 -5 -40 c-2 -22 -5 -53 -7 -70 -3 -28 -7 -52 -20 -114 -11 -58 -49
-153 -81 -207 -66 -111 -141 -166 -118 -87 4 15 8 37 8 48 1 13 11 22 34 29
17 5 32 14 33 20 8 83 6 86 -44 67 l-25 -10 -7 94 c-4 52 -4 109 0 127 4 18 8
81 9 141 1 110 2 113 43 108 16 -2 27 42 19 73 -7 27 -63 44 -93 28 -29 -15
-155 -25 -162 -13 -4 5 -44 11 -89 13 -93 3 -107 -5 -97 -57 7 -36 21 -46 60
-43 l30 3 2 -125 c3 -169 3 -189 0 -310 -2 -97 -4 -105 -21 -103 -11 1 -30 -3
-43 -8 -20 -7 -23 -13 -17 -32 4 -12 8 -33 10 -45 1 -13 5 -26 8 -29 2 -3 33
4 68 15 58 19 179 52 191 52 3 0 3 -26 1 -57 -6 -77 -6 -115 1 -121 7 -8 75
-6 82 2 4 3 6 20 6 36 l0 31 35 -33 34 -33 39 45 c44 50 120 191 140 259 12
39 14 41 26 25 10 -13 12 -54 11 -153 l-3 -136 29 -13 c16 -8 38 -14 50 -13
153 9 164 15 197 124 7 25 5 29 -19 38 -15 6 -35 18 -45 27 -25 22 -37 5 -41
-58 -1 -19 -42 -39 -66 -33 -11 3 -24 19 -30 37 -9 29 -8 132 4 201 11 66 14
81 20 96 5 12 -1 19 -24 27 -17 6 -37 9 -45 6 -10 -4 -13 3 -11 29 2 19 6 39
9 44 4 6 7 30 8 54 l2 44 56 0 56 0 0 -57 c0 -31 4 -60 8 -64 9 -10 76 -9 85
1 4 4 8 51 9 105 1 80 -2 100 -14 104 -8 3 -21 3 -28 -1 -7 -5 -45 -7 -83 -5
l-70 4 -5 31 c-3 18 1 50 9 71 7 22 11 43 8 48 -3 4 -33 8 -67 8 -40 0 -57 -3
-48 -9z m-324 -181 l0 -55 -52 3 c-46 3 -53 7 -54 25 0 12 -1 36 -2 52 -2 30
-2 30 53 30 l55 0 0 -55z m3 -165 c1 -11 4 -34 7 -51 8 -39 -13 -59 -52 -50
-16 4 -39 8 -53 9 -22 2 -25 6 -22 37 1 19 3 44 3 55 1 18 8 20 59 20 51 0 58
-2 58 -20z m-3 -190 c0 -11 4 -31 9 -44 10 -30 0 -39 -65 -56 -61 -16 -73 -9
-64 40 3 17 6 40 7 53 0 16 5 21 17 18 9 -3 23 -1 31 4 25 17 65 8 65 -15z"/>
</g>
</svg>
