<?xml version="1.0" standalone="no"?>
<!DOCTYPE svg PUBLIC "-//W3C//DTD SVG 20010904//EN"
 "http://www.w3.org/TR/2001/REC-SVG-20010904/DTD/svg10.dtd">
<svg version="1.0" xmlns="http://www.w3.org/2000/svg"
 width="101.000000pt" height="102.000000pt" viewBox="0 0 101.000000 102.000000"
 preserveAspectRatio="xMidYMid meet">
<metadata>
Created by potrace 1.16, written by Peter Selinger 2001-2019
</metadata>
<g transform="translate(0.000000,102.000000) scale(0.100000,-0.100000)"
fill="#000000" stroke="none">
<path d="M277 1000 c3 -12 -1 -28 -9 -38 -8 -9 -15 -27 -16 -40 -1 -32 -56
-115 -96 -146 -18 -14 -54 -35 -80 -47 -25 -13 -46 -26 -46 -30 0 -14 72 -60
86 -55 11 4 14 1 9 -13 -9 -30 22 -54 61 -47 l33 7 3 -158 c2 -87 3 -159 2
-161 -1 -3 -92 -4 -137 -1 -36 1 -41 -4 -40 -47 2 -51 -3 -50 118 -38 33 3
112 7 175 10 63 2 142 6 175 9 33 3 74 3 92 0 l31 -6 -2 -58 c-4 -66 1 -71 66
-63 l36 4 -3 65 c-3 55 -1 64 11 59 9 -3 24 -1 35 4 13 7 42 8 87 2 37 -5 69
-8 70 -7 10 9 4 77 -7 84 -7 5 -36 2 -64 -7 -39 -11 -58 -12 -80 -4 -16 6 -34
9 -40 6 -9 -3 -12 37 -12 156 l0 160 43 0 c23 0 51 -6 62 -12 26 -16 42 4 37
43 -2 18 1 25 9 22 6 -2 21 12 34 31 12 20 29 40 38 46 25 14 -1 29 -50 28
-55 -1 -144 46 -174 91 -36 56 -47 101 -29 121 30 34 12 46 -72 49 -33 1 -42
-12 -42 -59 1 -92 -79 -196 -177 -232 -38 -14 -43 -24 -15 -33 11 -3 24 -11
29 -18 13 -15 -189 -15 -227 0 l-25 10 33 24 c18 13 50 47 70 76 l37 51 55
-48 54 -48 40 34 40 33 -24 18 c-13 10 -50 34 -81 53 -48 30 -56 38 -50 55 4
12 15 27 24 34 35 29 4 51 -74 51 -23 0 -27 -3 -23 -20z m507 -289 c38 -24 38
-26 15 -29 -13 -2 -31 -6 -39 -10 -8 -4 -70 -7 -137 -7 l-122 0 48 42 c26 23
58 62 71 87 l25 45 49 -51 c28 -28 68 -62 90 -77z m-228 -117 c79 -7 81 -7 80
-33 l-1 -26 -155 0 c-154 0 -155 0 -155 23 0 17 6 22 28 22 15 0 27 5 27 10 0
11 59 13 176 4z m76 -158 c5 -23 2 -24 -59 -31 -42 -4 -69 -3 -77 4 -8 7 -45
10 -92 9 -73 -3 -79 -1 -80 17 -1 19 6 20 151 23 l153 3 4 -25z m-159 -98 c4
-10 7 -10 15 0 6 9 30 12 78 10 l69 -3 0 -34 c0 -38 -16 -49 -50 -33 -19 9
-34 8 -64 -3 -23 -8 -62 -12 -98 -9 -32 2 -67 5 -78 5 -15 1 -20 8 -20 30 0
27 3 29 38 29 20 0 37 5 37 10 0 15 67 12 73 -2z"/>
</g>
</svg>
