<?xml version="1.0" standalone="no"?>
<!DOCTYPE svg PUBLIC "-//W3C//DTD SVG 20010904//EN"
 "http://www.w3.org/TR/2001/REC-SVG-20010904/DTD/svg10.dtd">
<svg version="1.0" xmlns="http://www.w3.org/2000/svg"
 width="101.000000pt" height="102.000000pt" viewBox="0 0 101.000000 102.000000"
 preserveAspectRatio="xMidYMid meet">
<metadata>
Created by potrace 1.16, written by Peter Selinger 2001-2019
</metadata>
<g transform="translate(0.000000,102.000000) scale(0.100000,-0.100000)"
fill="#000000" stroke="none">
<path d="M385 968 l0 -52 -52 3 c-33 1 -53 -2 -53 -8 0 -6 -16 -11 -35 -11
-19 0 -35 5 -35 10 0 6 -28 10 -64 10 -55 0 -66 -3 -71 -19 -12 -40 7 -77 38
-72 4 1 59 4 122 7 77 3 115 1 115 -6 0 -5 -16 -28 -36 -49 -38 -43 -111 -83
-150 -83 -13 0 -27 -4 -29 -8 -3 -5 -13 -6 -23 -4 -9 2 -23 0 -31 -5 -12 -8
-9 -15 12 -41 15 -17 27 -36 27 -42 0 -23 154 40 219 89 l34 26 18 -21 c9 -12
19 -27 21 -33 4 -11 27 -13 71 -5 22 3 30 0 37 -17 10 -26 73 -62 94 -54 9 3
18 2 21 -3 8 -12 -142 -25 -158 -12 -15 13 -95 14 -102 1 -7 -11 -173 -10
-180 1 -3 4 -34 8 -69 8 -60 0 -65 -2 -71 -25 -8 -33 3 -63 23 -65 18 -1 20
-1 93 5 54 5 49 18 52 -140 1 -56 -1 -105 -5 -108 -7 -7 -68 -9 -126 -5 -13 1
-26 -1 -30 -4 -7 -8 -6 -75 1 -82 6 -7 33 -6 77 1 47 8 153 15 275 18 55 1
105 5 111 10 7 4 39 4 72 1 l60 -7 -2 -43 c-1 -48 6 -53 65 -46 l36 4 -3 48
c-2 54 -11 51 118 52 73 1 76 2 81 26 3 13 2 33 -1 44 -4 18 -10 19 -46 12
-37 -7 -63 -7 -133 -3 -27 1 -35 36 -28 124 3 33 6 70 6 82 1 19 5 21 43 16
22 -2 50 -4 61 -3 11 0 34 2 52 2 25 1 32 7 36 26 7 38 -3 64 -22 56 -28 -11
-132 -14 -150 -4 -14 8 -13 9 7 10 12 0 23 -1 25 -1 1 -1 21 7 43 19 26 13 47
34 58 56 9 18 16 36 16 39 0 2 -18 16 -40 31 -41 27 -66 27 -56 0 7 -18 -27
-54 -51 -55 -63 -3 -153 0 -163 6 -7 4 31 24 91 46 56 21 104 41 107 44 3 2
-7 20 -21 38 l-25 33 78 -2 c87 -3 98 5 84 60 -6 25 -7 25 -94 23 -80 -2 -87
0 -74 14 21 23 19 26 -36 54 -60 30 -67 31 -104 1 l-29 -24 42 -21 c22 -12 41
-22 41 -24 0 -1 -47 -2 -104 -2 -96 0 -103 1 -95 18 5 9 7 17 3 17 -3 0 1 11
10 24 19 31 10 38 -53 43 l-46 3 0 -52z m130 -180 c0 -36 -4 -48 -15 -49 -8 0
-36 -1 -62 -2 -46 -3 -47 -2 -34 18 7 11 20 34 28 50 13 24 22 30 49 30 34 0
34 0 34 -47z m175 18 c-36 -19 -68 -32 -71 -30 -4 2 -9 15 -11 28 -5 23 -2 25
41 29 111 9 111 8 41 -27z m-139 -303 c103 -5 107 -6 105 -28 -1 -22 -6 -23
-101 -29 -55 -3 -122 -3 -150 -1 -27 3 -59 5 -70 6 -14 1 -20 9 -21 26 -2 18
2 22 15 19 9 -3 23 -1 31 4 17 11 36 11 191 3z m2 -110 c76 -4 107 -9 107 -18
0 -14 -169 -27 -255 -20 -27 3 -60 5 -72 6 -13 1 -23 8 -23 16 0 9 6 12 18 9
9 -3 24 -1 32 4 17 11 36 11 193 3z m105 -107 c2 -3 2 -13 -2 -22 -4 -12 -12
-14 -29 -9 -29 9 -39 9 -124 -5 -53 -8 -78 -8 -93 0 -11 6 -24 9 -29 6 -4 -3
-21 -7 -37 -10 -25 -5 -29 -2 -30 20 -2 19 2 23 15 20 9 -3 23 -1 31 4 15 10
288 5 298 -4z"/>
</g>
</svg>
