<?xml version="1.0" standalone="no"?>
<!DOCTYPE svg PUBLIC "-//W3C//DTD SVG 20010904//EN"
 "http://www.w3.org/TR/2001/REC-SVG-20010904/DTD/svg10.dtd">
<svg version="1.0" xmlns="http://www.w3.org/2000/svg"
 width="101.000000pt" height="101.000000pt" viewBox="0 0 101.000000 101.000000"
 preserveAspectRatio="xMidYMid meet">
<metadata>
Created by potrace 1.16, written by Peter Selinger 2001-2019
</metadata>
<g transform="translate(0.000000,101.000000) scale(0.100000,-0.100000)"
fill="#000000" stroke="none">
<path d="M68 974 c-19 -6 -32 -47 -23 -74 6 -18 56 -37 72 -27 5 3 7 -30 5
-73 -2 -48 1 -81 7 -85 13 -8 15 -52 2 -59 -12 -8 -13 -114 -1 -121 16 -10 12
-148 -4 -170 -12 -16 -18 -17 -39 -8 -14 7 -35 9 -47 6 -17 -5 -20 -11 -15
-31 3 -13 9 -37 12 -53 5 -27 8 -28 42 -23 37 5 71 12 106 19 37 9 80 16 106
19 14 1 31 6 39 11 10 6 12 4 7 -8 -3 -8 -1 -28 5 -44 8 -22 7 -41 -5 -82 -8
-29 -13 -59 -11 -66 7 -17 35 -24 68 -18 25 5 31 17 28 56 -2 14 2 16 16 8 10
-6 24 -17 32 -25 7 -9 16 -16 20 -16 17 0 200 261 200 285 0 12 -77 52 -83 44
-2 -2 -23 -39 -47 -82 -24 -42 -65 -101 -91 -130 l-47 -52 -7 36 c-4 22 -2 45
4 57 6 11 8 28 4 38 -5 13 -3 16 10 11 28 -11 64 9 69 38 11 57 -9 73 -64 50
-15 -6 -16 2 -11 88 4 65 2 96 -6 101 -14 9 -15 152 -1 161 6 4 9 32 8 65 -2
32 0 56 5 53 4 -3 19 -2 31 1 25 6 41 45 31 75 -6 19 -11 20 -163 5 -45 -4
-77 -3 -85 4 -7 6 -35 11 -62 11 -28 0 -61 2 -75 5 -14 2 -32 2 -42 0z m269
-154 l1 -55 -58 3 -58 4 -4 51 -3 52 60 0 60 0 2 -55z m-2 -190 l0 -55 -63 0
c-58 0 -63 2 -58 20 3 11 6 36 6 55 l0 35 58 0 57 0 0 -55z m1 -183 c0 -41 -3
-53 -15 -54 -9 -1 -36 -4 -61 -6 l-45 -5 0 54 0 53 60 4 c33 2 60 4 60 5 0 1
0 -22 1 -51z"/>
<path d="M532 953 c-11 -22 -3 -153 9 -153 5 0 9 -11 9 -25 0 -14 -5 -25 -11
-25 -8 0 -10 -27 -7 -87 3 -49 1 -100 -4 -115 -15 -43 5 -68 52 -68 22 0 40 5
40 10 0 15 67 12 73 -2 4 -10 8 -10 15 1 7 10 31 13 99 9 l89 -4 -3 96 c-3
116 -3 138 1 266 l4 102 -45 6 c-70 9 -153 7 -153 -4 0 -5 -16 -10 -35 -10
-19 0 -35 5 -35 10 0 6 -20 10 -45 10 -32 0 -47 -5 -53 -17z m285 -186 c-4
-62 -7 -130 -7 -152 l0 -40 -94 0 -93 0 -7 74 c-9 107 -7 171 4 171 6 0 10 12
10 28 l0 27 97 2 96 2 -6 -112z"/>
<path d="M778 420 l-36 -20 47 -78 c26 -43 58 -104 72 -135 13 -31 28 -57 32
-57 11 0 87 39 87 45 0 29 -139 265 -155 264 -5 0 -26 -9 -47 -19z"/>
</g>
</svg>
