<?xml version="1.0" standalone="no"?>
<!DOCTYPE svg PUBLIC "-//W3C//DTD SVG 20010904//EN"
 "http://www.w3.org/TR/2001/REC-SVG-20010904/DTD/svg10.dtd">
<svg version="1.0" xmlns="http://www.w3.org/2000/svg"
 width="101.000000pt" height="101.000000pt" viewBox="0 0 101.000000 101.000000"
 preserveAspectRatio="xMidYMid meet">
<metadata>
Created by potrace 1.16, written by Peter Selinger 2001-2019
</metadata>
<g transform="translate(0.000000,101.000000) scale(0.100000,-0.100000)"
fill="#000000" stroke="none">
<path d="M50 963 c-33 -13 -40 -52 -14 -78 10 -9 24 -15 33 -12 13 3 15 -4 12
-46 -1 -27 2 -54 8 -60 13 -13 15 -54 2 -61 -13 -8 -12 -105 1 -125 10 -17 2
-278 -9 -267 -3 2 -17 0 -33 -5 -26 -9 -27 -13 -19 -41 4 -17 7 -34 4 -37 -2
-4 0 -12 3 -19 6 -8 25 -5 72 12 36 13 88 31 116 39 51 15 52 15 53 -6 5 -75
5 -96 -2 -133 -7 -36 -6 -42 11 -46 11 -3 31 -4 44 -1 24 5 25 8 26 91 1 124
2 131 23 137 19 6 24 20 21 60 -2 18 -1 18 11 -2 l13 -23 34 23 c19 13 47 32
63 42 l27 17 -6 -38 c-9 -57 -48 -128 -91 -163 -21 -17 -42 -31 -48 -31 -5 0
-16 -4 -24 -9 -10 -7 -5 -17 25 -44 l39 -35 41 30 c68 48 123 138 141 228 2
14 4 74 3 134 -1 80 2 111 12 118 10 8 10 11 1 15 -14 5 -18 69 -5 75 5 2 12
28 15 59 5 53 4 57 -19 68 -36 16 -62 14 -73 -7 -13 -24 -13 -163 0 -179 7 -7
8 -37 4 -78 -7 -59 -10 -67 -36 -80 -15 -8 -30 -15 -33 -15 -2 0 -2 84 0 188
3 169 5 187 21 189 58 7 76 12 83 23 5 9 20 11 44 7 42 -7 44 1 14 49 -25 38
-26 39 -119 5 -61 -22 -132 -33 -123 -20 3 5 2 19 -1 30 -7 20 -13 21 -148 18
-78 -1 -155 1 -172 4 -16 3 -37 3 -45 0z m227 -146 l2 -62 -55 0 c-50 0 -55 2
-50 20 3 11 6 37 6 57 0 36 1 37 43 41 23 2 44 4 47 5 3 1 6 -26 7 -61z m117
47 c9 -8 16 -18 16 -22 10 -323 9 -378 -8 -414 -31 -67 -42 -49 -35 61 4 68 2
100 -6 105 -14 9 -15 152 -1 161 6 4 9 32 8 66 -4 62 1 69 26 43z m-118 -200
c-3 -7 0 -26 7 -43 8 -22 8 -36 -1 -56 -11 -23 -17 -26 -40 -20 -15 3 -37 7
-50 7 -27 0 -40 38 -24 74 7 13 9 29 7 36 -4 10 10 13 50 14 41 0 55 -3 51
-12z m1 -214 c9 -89 13 -81 -46 -101 -30 -11 -57 -17 -60 -14 -5 5 -5 50 0
113 1 16 6 21 18 18 9 -3 23 -1 31 4 26 17 55 7 57 -20z"/>
<path d="M845 961 c-11 -5 -50 -8 -86 -7 l-66 1 -2 -122 c-1 -73 3 -124 9
-128 13 -8 13 -52 0 -60 -12 -7 -12 -212 0 -220 12 -7 11 -153 0 -160 -5 -3
-8 -45 -8 -94 0 -98 3 -103 64 -94 28 4 30 7 30 51 -1 117 5 225 11 219 3 -4
7 -15 8 -25 4 -41 16 -59 38 -57 33 4 71 21 85 38 18 21 30 297 14 297 -7 0
-12 11 -12 25 0 14 5 25 10 25 6 0 10 30 10 70 0 40 -4 70 -10 70 -5 0 -10 16
-10 35 0 19 5 35 10 35 6 0 10 20 10 45 0 34 -5 47 -19 55 -23 12 -57 12 -86
1z m12 -163 c3 -105 3 -175 0 -312 l-2 -110 -30 0 c-30 -1 -30 -1 -33 62 -2
34 -7 62 -12 62 -6 0 -10 20 -10 45 0 25 5 45 10 45 6 0 10 53 10 139 0 152
-4 142 55 150 6 0 11 -33 12 -81z"/>
</g>
</svg>
