<?xml version="1.0" standalone="no"?>
<!DOCTYPE svg PUBLIC "-//W3C//DTD SVG 20010904//EN"
 "http://www.w3.org/TR/2001/REC-SVG-20010904/DTD/svg10.dtd">
<svg version="1.0" xmlns="http://www.w3.org/2000/svg"
 width="101.000000pt" height="101.000000pt" viewBox="0 0 101.000000 101.000000"
 preserveAspectRatio="xMidYMid meet">
<metadata>
Created by potrace 1.16, written by Peter Selinger 2001-2019
</metadata>
<g transform="translate(0.000000,101.000000) scale(0.100000,-0.100000)"
fill="#000000" stroke="none">
<path d="M815 989 c-16 -6 -37 -13 -45 -17 -8 -3 -33 -7 -55 -8 -22 -1 -60 -4
-85 -7 -87 -9 -160 -12 -160 -7 0 3 -50 6 -110 8 -73 2 -110 0 -110 -7 0 -6
-16 -11 -35 -11 -19 0 -35 5 -35 10 0 6 -30 10 -69 10 -60 0 -71 -3 -76 -19
-15 -50 22 -94 62 -73 17 9 18 2 21 -101 4 -133 2 -420 -3 -425 -1 -2 -18 -5
-36 -7 -18 -3 -36 -8 -40 -12 -12 -12 17 -99 31 -95 7 1 49 13 94 26 44 13 95
27 112 30 37 8 35 14 36 -121 1 -89 6 -96 63 -85 23 4 26 8 19 31 -7 22 -8
101 -3 179 0 12 6 22 13 21 6 -1 26 2 44 6 32 8 39 22 33 79 -2 28 -3 28 -47
12 l-39 -13 3 53 c3 35 0 54 -7 54 -6 0 -11 19 -11 45 0 25 5 45 10 45 6 0 10
30 10 70 0 40 -4 70 -10 70 -6 0 -10 31 -10 73 l0 74 45 -2 c44 -2 48 1 47 35
-1 8 6 -1 14 -22 21 -49 76 -63 132 -34 l27 14 0 -63 0 -63 -96 5 -97 6 -7
-31 c-11 -51 1 -71 39 -68 18 2 38 6 44 10 6 3 35 3 65 0 47 -6 55 -10 55 -28
1 -11 4 -34 7 -51 11 -56 -17 -67 -127 -52 -30 4 -37 2 -42 -16 -3 -11 -1 -28
5 -38 9 -18 4 -298 -7 -350 -6 -30 14 -40 60 -32 26 5 32 22 28 74 -1 11 7 17
21 18 12 0 51 3 87 6 36 3 79 3 96 0 27 -5 30 -9 31 -41 1 -19 4 -38 7 -42 8
-7 75 -6 83 1 5 6 5 116 -1 257 -3 52 -1 102 4 111 5 8 6 25 3 37 -4 18 -10
20 -37 14 -17 -4 -47 -6 -66 -5 -19 1 -45 3 -58 4 -27 1 -39 40 -24 75 7 13 9
30 6 38 -4 9 2 14 18 15 13 0 53 3 91 6 37 2 79 0 94 -6 33 -12 44 2 41 51
l-3 35 -120 0 -120 0 0 68 c0 37 4 67 10 68 6 0 28 2 50 4 22 2 58 4 80 4 62
1 68 10 42 62 -24 47 -41 55 -92 38z m-511 -157 c11 -79 12 -77 -52 -77 l-57
0 0 60 0 60 51 1 52 2 6 -46z m4 -187 c1 -11 4 -34 7 -51 9 -39 -13 -59 -52
-49 -16 3 -38 7 -49 7 -20 0 -22 5 -20 57 l1 56 56 0 c50 0 57 -2 57 -20z m-1
-185 c0 -14 4 -34 8 -46 8 -26 -9 -40 -56 -48 -20 -3 -43 -8 -52 -12 -21 -8
-34 39 -19 72 7 13 9 31 5 40 -5 13 -2 15 13 10 10 -3 26 -1 34 4 8 6 26 9 40
8 19 -2 25 -9 27 -28z m474 -6 c29 -6 30 -10 29 -118 0 -33 -3 -62 -6 -65 -3
-3 -47 -5 -97 -4 -146 3 -134 -2 -141 60 -4 30 -2 62 4 73 5 10 7 26 3 35 -5
14 -2 16 13 11 10 -3 25 -2 33 3 15 10 121 13 162 5z"/>
</g>
</svg>
