<?xml version="1.0" standalone="no"?>
<!DOCTYPE svg PUBLIC "-//W3C//DTD SVG 20010904//EN"
 "http://www.w3.org/TR/2001/REC-SVG-20010904/DTD/svg10.dtd">
<svg version="1.0" xmlns="http://www.w3.org/2000/svg"
 width="101.000000pt" height="102.000000pt" viewBox="0 0 101.000000 102.000000"
 preserveAspectRatio="xMidYMid meet">
<metadata>
Created by potrace 1.16, written by Peter Selinger 2001-2019
</metadata>
<g transform="translate(0.000000,102.000000) scale(0.100000,-0.100000)"
fill="#000000" stroke="none">
<path d="M750 1007 c0 -30 -51 -176 -66 -192 -17 -17 -89 -21 -99 -5 -6 10
-107 12 -121 1 -13 -9 -12 -84 1 -93 14 -10 84 -10 120 1 l30 8 2 -83 2 -83
-89 2 c-48 1 -92 -2 -96 -6 -9 -8 -9 -75 -1 -84 3 -3 16 -4 29 -4 13 1 51 3
85 4 l61 2 -4 -33 c-10 -81 -93 -200 -166 -238 l-28 -14 2 45 c2 42 4 45 35
51 18 3 33 9 34 13 1 3 3 23 4 44 l4 38 -38 -5 c-37 -4 -39 -3 -45 26 -9 48
-7 156 4 163 12 7 11 113 -1 121 -13 7 -11 48 2 61 6 6 9 33 8 60 -4 48 -3 49
23 47 32 -2 43 20 33 65 -6 27 -9 29 -41 24 -21 -3 -45 0 -59 7 -19 10 -31 11
-48 3 -22 -10 -70 -10 -205 2 -68 7 -92 -6 -92 -48 0 -46 13 -61 44 -53 25 6
26 5 26 -39 0 -25 5 -45 10 -45 6 0 10 -11 10 -25 0 -14 -4 -25 -10 -25 -6 0
-10 -30 -10 -70 0 -40 4 -70 10 -70 6 0 10 -11 10 -25 0 -14 -4 -25 -10 -25
-5 0 -10 -22 -10 -50 0 -28 5 -50 10 -50 7 0 10 -22 8 -57 -3 -48 -6 -57 -23
-58 -37 -3 -65 -16 -65 -31 0 -24 28 -84 39 -84 6 0 46 10 88 21 43 12 87 23
98 25 11 2 30 6 42 10 23 6 23 12 12 -86 -9 -74 5 -90 72 -82 34 4 36 5 33 39
l-3 36 38 -37 38 -37 70 75 c43 46 79 96 94 130 13 31 26 56 29 56 3 0 18 -25
34 -55 16 -30 60 -87 98 -126 l68 -70 45 48 c24 26 44 51 45 55 0 4 -18 17
-41 29 -74 37 -172 142 -198 212 -11 29 -15 28 121 29 l86 1 5 31 c8 57 1 64
-51 53 -31 -6 -51 -6 -62 1 -9 6 -40 9 -67 9 l-51 -2 1 77 2 76 32 4 c17 2 40
1 50 -3 10 -4 37 -8 60 -8 52 -1 75 20 71 63 -3 30 -4 31 -50 28 -30 -3 -48 0
-48 7 0 6 -11 11 -25 11 -14 0 -25 2 -25 5 0 8 52 88 73 112 26 30 17 47 -33
62 -23 7 -48 15 -56 18 -8 3 -14 -1 -14 -10z m-435 -207 l0 -55 -57 0 -56 0 1
55 2 55 55 0 55 0 0 -55z m0 -203 l0 -62 -35 3 c-19 1 -46 3 -58 3 -19 1 -23
5 -18 23 3 11 6 35 6 53 0 31 1 32 53 36 28 2 52 4 52 5 0 1 0 -26 0 -61z m1
-152 c0 -11 4 -33 8 -48 10 -33 0 -47 -35 -52 -13 -1 -39 -6 -56 -9 -29 -6
-33 -3 -39 20 -4 14 -2 36 4 50 7 13 9 31 5 40 -5 13 -2 15 13 10 10 -3 26 -1
34 4 25 17 65 8 66 -15z"/>
<path d="M540 997 c-19 -6 -37 -12 -39 -13 -4 -3 48 -134 58 -146 10 -12 91
13 91 28 0 27 -52 144 -64 143 -6 -1 -27 -6 -46 -12z"/>
</g>
</svg>
