<?xml version="1.0" standalone="no"?>
<!DOCTYPE svg PUBLIC "-//W3C//DTD SVG 20010904//EN"
 "http://www.w3.org/TR/2001/REC-SVG-20010904/DTD/svg10.dtd">
<svg version="1.0" xmlns="http://www.w3.org/2000/svg"
 width="101.000000pt" height="101.000000pt" viewBox="0 0 101.000000 101.000000"
 preserveAspectRatio="xMidYMid meet">
<metadata>
Created by potrace 1.16, written by Peter Selinger 2001-2019
</metadata>
<g transform="translate(0.000000,101.000000) scale(0.100000,-0.100000)"
fill="#000000" stroke="none">
<path d="M430 1000 c0 -5 5 -10 11 -10 6 0 9 -20 7 -51 l-3 -51 -118 0 c-65 0
-121 2 -124 6 -14 13 -43 -16 -43 -44 0 -55 19 -62 154 -58 l121 4 0 -42 c0
-39 -3 -43 -29 -48 -46 -10 -154 -7 -158 4 -4 13 -161 22 -192 10 -19 -7 -26
-17 -26 -37 0 -55 8 -58 152 -58 73 0 160 4 194 8 l61 8 -1 -43 c-1 -24 -5
-46 -11 -50 -14 -10 -134 -8 -140 2 -3 4 -32 8 -64 8 -55 -1 -60 -3 -66 -25
-12 -49 23 -85 64 -64 19 10 154 14 192 5 31 -6 30 -2 32 -169 0 -69 -4 -134
-11 -153 -19 -55 1 -74 66 -64 31 4 32 6 26 37 -3 18 -1 42 5 53 8 15 7 31 -4
62 -10 29 -13 65 -10 113 3 40 6 82 6 93 1 24 -2 24 144 27 55 1 112 -2 127
-6 26 -9 26 -9 33 58 5 45 4 70 -4 78 -19 19 -13 22 56 24 74 2 87 12 78 58
-7 39 -20 45 -85 42 l-56 -2 7 63 c11 103 20 97 -149 97 l-148 0 3 25 c1 14 4
39 7 55 2 17 -1 33 -8 37 -17 11 -96 9 -96 -2z m295 -246 l0 -46 -44 6 c-24 3
-70 6 -101 6 l-58 0 1 38 2 37 100 3 100 2 0 -46z m-3 -159 c3 -41 1 -45 -22
-49 -14 -3 -50 -3 -80 -1 -30 3 -64 5 -75 6 -17 1 -20 9 -20 43 l0 41 96 3 97
2 4 -45z"/>
</g>
</svg>
