<?xml version="1.0" standalone="no"?>
<!DOCTYPE svg PUBLIC "-//W3C//DTD SVG 20010904//EN"
 "http://www.w3.org/TR/2001/REC-SVG-20010904/DTD/svg10.dtd">
<svg version="1.0" xmlns="http://www.w3.org/2000/svg"
 width="101.000000pt" height="101.000000pt" viewBox="0 0 101.000000 101.000000"
 preserveAspectRatio="xMidYMid meet">
<metadata>
Created by potrace 1.16, written by Peter Selinger 2001-2019
</metadata>
<g transform="translate(0.000000,101.000000) scale(0.100000,-0.100000)"
fill="#000000" stroke="none">
<path d="M115 929 c-4 -17 -2 -43 5 -59 7 -18 10 -50 6 -82 -14 -121 -14 -145
-3 -176 8 -24 8 -48 -2 -100 -8 -37 -15 -86 -16 -108 -1 -23 -5 -46 -8 -50 -2
-5 -5 -21 -5 -35 1 -27 -30 -99 -58 -136 -15 -22 -15 -23 2 -23 11 0 33 -9 50
-19 l32 -19 12 26 c18 40 51 133 56 162 13 70 16 87 17 111 0 25 1 25 61 21
34 -2 62 -5 63 -6 0 0 3 -44 5 -96 l3 -95 -52 2 c-29 1 -53 0 -53 -3 0 -3 7
-18 15 -34 8 -16 15 -33 14 -37 -6 -38 23 -46 88 -25 63 20 73 29 73 63 0 16
5 29 10 29 6 0 10 -11 10 -25 0 -24 2 -25 48 -19 52 7 179 7 344 2 l106 -4 5
30 c2 16 2 38 0 47 -6 23 -69 30 -110 12 -23 -11 -37 -12 -51 -4 -12 6 -28 8
-37 4 -16 -6 -17 5 -10 134 5 99 4 143 -4 147 -14 9 -15 153 -1 161 6 4 9 32
8 63 l-3 57 40 0 c22 -1 48 -5 58 -9 27 -13 85 2 92 23 15 49 -22 93 -62 73
-19 -10 -312 -7 -344 3 -30 10 -59 -12 -59 -45 0 -42 25 -63 69 -56 20 3 52 7
71 9 l35 2 -2 -95 c-1 -52 3 -108 8 -125 7 -20 8 -84 2 -190 l-8 -160 -25 3
c-46 5 -65 8 -92 16 -37 11 -78 0 -78 -21 0 -15 -2 -14 -15 3 -17 22 -20 60
-5 69 12 7 12 153 0 160 -12 7 -11 153 0 160 6 3 10 58 11 123 0 64 0 127 1
140 0 30 -9 39 -24 24 -15 -15 -68 -16 -68 -2 0 6 -18 10 -40 10 -22 0 -40 -4
-40 -10 0 -5 -25 -10 -55 -10 -30 0 -55 5 -55 10 0 24 -29 7 -35 -21z m218
-116 c4 -36 4 -70 1 -74 -3 -5 -33 -9 -68 -9 l-63 0 1 73 1 72 61 2 61 2 6
-66z m2 -221 l0 -67 -68 0 -68 0 5 29 c3 16 6 43 6 62 l0 33 63 4 c34 2 62 4
62 5 0 1 0 -28 0 -66z"/>
</g>
</svg>
