<?xml version="1.0" standalone="no"?>
<!DOCTYPE svg PUBLIC "-//W3C//DTD SVG 20010904//EN"
 "http://www.w3.org/TR/2001/REC-SVG-20010904/DTD/svg10.dtd">
<svg version="1.0" xmlns="http://www.w3.org/2000/svg"
 width="101.000000pt" height="101.000000pt" viewBox="0 0 101.000000 101.000000"
 preserveAspectRatio="xMidYMid meet">
<metadata>
Created by potrace 1.16, written by Peter Selinger 2001-2019
</metadata>
<g transform="translate(0.000000,101.000000) scale(0.100000,-0.100000)"
fill="#000000" stroke="none">
<path d="M118 964 c-14 -5 -16 -19 -13 -112 8 -202 1 -376 -20 -502 -7 -49
-35 -129 -46 -135 -17 -11 -9 -41 19 -68 15 -15 31 -27 35 -27 10 0 43 68 62
130 17 55 22 84 34 186 0 7 11 12 24 13 12 0 35 2 52 3 34 3 37 -8 36 -117 -2
-81 -18 -105 -71 -100 -43 4 -50 -6 -25 -39 8 -11 15 -28 15 -37 0 -10 5 -21
10 -24 15 -9 115 22 131 41 7 9 14 44 16 78 5 122 1 112 37 77 l33 -32 41 43
c43 44 100 143 122 211 6 20 13 37 15 37 2 0 15 -4 29 -9 24 -10 24 -10 11
-63 -19 -68 -66 -163 -107 -212 -17 -21 -57 -55 -88 -75 -30 -20 -58 -39 -60
-43 -3 -4 14 -21 38 -38 l43 -31 45 37 c48 39 124 136 154 194 28 55 71 185
73 222 1 13 7 16 27 11 27 -6 42 -22 34 -35 -3 -4 -7 -20 -9 -35 -2 -16 -6
-41 -9 -58 -3 -16 -7 -46 -10 -65 -6 -36 -11 -65 -21 -112 -9 -37 -50 -63 -80
-50 -13 6 -32 8 -43 6 -19 -5 -19 -6 -1 -42 11 -20 19 -44 19 -54 0 -14 7 -17
28 -14 51 6 109 26 134 46 29 22 40 63 63 215 3 22 7 51 10 65 2 14 6 41 9 60
3 19 10 60 15 90 6 30 7 57 3 61 -4 3 -56 3 -117 -2 -148 -11 -225 -11 -225 0
0 6 139 124 217 183 7 6 24 11 39 13 31 3 44 20 44 57 0 47 -25 61 -99 54 -36
-3 -130 -7 -209 -8 -125 -3 -143 -5 -148 -20 -16 -50 22 -75 98 -64 35 5 211
13 205 10 -1 0 -38 -32 -81 -69 -99 -86 -166 -131 -207 -140 -26 -6 -30 -11
-25 -28 4 -12 9 -35 13 -50 5 -24 9 -27 32 -22 73 15 72 15 65 -8 -20 -67 -72
-140 -126 -178 l-31 -22 8 145 c5 97 4 148 -3 152 -13 8 -15 173 -2 181 5 3 8
30 8 60 l-2 54 -95 -1 c-53 -1 -109 1 -126 5 -16 3 -38 3 -47 1z m179 -152 l2
-67 -55 0 -56 0 6 35 c3 19 6 47 6 62 0 25 4 27 48 31 26 2 47 4 47 5 0 1 1
-28 2 -66z m-7 -174 c0 -15 5 -28 10 -28 16 0 11 -66 -6 -81 -12 -10 -22 -10
-46 -1 -16 6 -35 9 -41 6 -9 -3 -12 16 -12 63 l0 68 48 1 c45 0 47 -1 47 -28z"/>
</g>
</svg>
