<?xml version="1.0" standalone="no"?>
<!DOCTYPE svg PUBLIC "-//W3C//DTD SVG 20010904//EN"
 "http://www.w3.org/TR/2001/REC-SVG-20010904/DTD/svg10.dtd">
<svg version="1.0" xmlns="http://www.w3.org/2000/svg"
 width="101.000000pt" height="102.000000pt" viewBox="0 0 101.000000 102.000000"
 preserveAspectRatio="xMidYMid meet">
<metadata>
Created by potrace 1.16, written by Peter Selinger 2001-2019
</metadata>
<g transform="translate(0.000000,102.000000) scale(0.100000,-0.100000)"
fill="#000000" stroke="none">
<path d="M628 990 c2 -16 1 -54 -2 -83 l-7 -52 -57 2 c-31 2 -70 6 -86 9 -22
5 -32 2 -43 -11 -14 -21 -14 -21 -15 57 l0 47 -106 -5 c-74 -4 -112 -2 -128 7
-18 9 -30 10 -49 1 -21 -10 -25 -18 -25 -57 0 -25 5 -45 10 -45 6 0 10 -16 10
-35 0 -19 -4 -35 -10 -35 -6 0 -10 -30 -10 -70 0 -40 4 -70 10 -70 6 0 10 -11
10 -25 0 -14 -5 -25 -10 -25 -7 0 -10 -33 -8 -92 1 -51 -1 -106 -4 -123 -4
-16 -9 -46 -13 -65 -3 -19 -19 -64 -36 -99 l-30 -64 33 -34 c17 -18 35 -33 40
-33 26 0 98 236 100 328 0 16 5 22 14 18 8 -3 25 -1 38 6 35 15 74 3 75 -24 0
-13 3 -50 5 -83 7 -87 -7 -110 -67 -111 -26 0 -50 -3 -53 -6 -3 -4 2 -20 10
-37 9 -17 16 -34 15 -38 -6 -39 35 -40 118 -3 l48 21 33 -36 33 -36 47 27 c26
15 72 46 103 70 l56 43 29 -20 c16 -12 65 -38 109 -60 72 -36 81 -38 90 -23 6
9 23 32 38 50 27 31 27 33 9 43 -11 6 -22 8 -24 5 -6 -5 -156 41 -178 56 -13
8 -13 13 3 37 51 78 141 312 126 327 -3 3 -41 7 -85 8 l-81 3 1 67 1 68 62 0
c34 0 85 -5 113 -11 28 -6 53 -9 56 -7 2 3 7 18 10 35 6 33 -19 69 -39 56 -7
-4 -55 -8 -107 -8 l-95 0 2 35 c3 44 9 80 18 103 4 9 6 17 4 18 -2 0 -29 2
-60 5 l-56 5 5 -31z m-302 -183 l1 -72 -62 0 -62 0 1 70 1 70 60 2 60 2 1 -72z
m172 -44 c31 3 71 8 87 12 l30 7 0 -65 0 -64 -67 5 c-75 5 -98 -5 -98 -44 0
-38 26 -55 81 -53 28 1 52 6 54 10 7 10 157 11 173 0 10 -6 9 -19 -8 -64 -26
-70 -69 -147 -81 -147 -13 0 -61 100 -64 135 -2 16 -3 36 -4 42 -2 20 -101 3
-101 -18 0 -21 43 -120 75 -174 l36 -59 -28 -23 c-34 -28 -141 -83 -161 -83
-11 0 -13 9 -8 44 4 25 3 47 -3 50 -12 8 -14 153 -1 161 12 8 12 213 0 220
-13 8 -13 52 0 60 6 3 10 25 11 48 0 36 2 39 10 19 8 -22 13 -23 67 -19z
m-172 -176 c0 -63 -1 -68 -23 -74 -14 -3 -35 -1 -49 5 -13 7 -29 9 -36 7 -10
-4 -13 12 -13 62 l0 68 60 0 60 0 1 -68z"/>
</g>
</svg>
