<?xml version="1.0" standalone="no"?>
<!DOCTYPE svg PUBLIC "-//W3C//DTD SVG 20010904//EN"
 "http://www.w3.org/TR/2001/REC-SVG-20010904/DTD/svg10.dtd">
<svg version="1.0" xmlns="http://www.w3.org/2000/svg"
 width="101.000000pt" height="101.000000pt" viewBox="0 0 101.000000 101.000000"
 preserveAspectRatio="xMidYMid meet">
<metadata>
Created by potrace 1.16, written by Peter Selinger 2001-2019
</metadata>
<g transform="translate(0.000000,101.000000) scale(0.100000,-0.100000)"
fill="#000000" stroke="none">
<path d="M608 970 c2 -22 1 -55 -2 -73 -6 -32 -6 -32 -63 -30 -32 0 -70 4 -85
8 -54 14 -86 -15 -73 -67 6 -22 9 -23 105 -23 l100 1 0 -36 c0 -20 3 -84 6
-142 l7 -106 -36 1 c-34 1 -36 3 -42 44 -3 24 -1 51 5 63 6 11 8 24 5 29 -3 5
0 22 5 37 12 31 9 36 -24 39 -14 2 -28 5 -33 8 -4 3 -19 1 -32 -4 -20 -8 -22
-14 -17 -47 4 -20 8 -46 9 -57 2 -11 7 -32 11 -47 5 -17 2 -46 -7 -79 -9 -28
-13 -57 -10 -65 5 -14 61 -13 96 1 9 4 28 4 41 1 27 -7 26 -1 29 -159 2 -78 7
-111 17 -121 21 -19 80 -37 94 -29 6 4 47 8 92 8 92 0 107 8 135 70 25 53 24
72 -3 81 -13 4 -34 15 -47 26 -28 22 -30 20 -35 -20 -7 -53 -22 -70 -63 -71
-21 -1 -49 -2 -62 -2 -13 -1 -27 4 -31 11 -13 21 -20 131 -10 150 5 10 8 25 5
32 -4 10 6 14 38 16 42 1 44 0 44 -28 0 -39 6 -45 55 -43 49 2 53 5 37 31 -10
16 -10 26 -1 47 9 19 9 32 1 47 -6 12 -8 36 -4 57 4 20 8 64 10 99 1 35 5 66
9 69 12 12 -57 34 -86 28 -26 -6 -28 -10 -28 -55 0 -27 5 -50 11 -52 8 -3 10
-21 5 -61 l-7 -57 -46 2 -45 2 6 66 c3 36 6 98 6 138 0 70 1 72 25 72 14 0 25
5 25 10 0 16 84 12 119 -6 60 -30 100 1 86 65 -5 25 -10 28 -52 30 -25 0 -51
-3 -58 -9 -6 -5 -43 -9 -81 -7 l-69 2 3 45 c2 25 4 56 5 70 2 23 -1 25 -48 28
l-51 3 4 -41z"/>
<path d="M95 946 c-15 -11 -16 -23 -11 -92 11 -130 14 -357 5 -381 -5 -13 -3
-34 4 -52 9 -24 9 -36 -1 -51 -7 -11 -15 -37 -18 -57 -6 -41 -32 -112 -46
-128 -11 -12 -10 -45 1 -45 5 0 24 -12 41 -26 17 -15 32 -25 34 -23 6 7 48
124 51 144 2 11 6 34 9 50 11 60 18 110 18 131 0 15 7 22 22 23 11 0 34 2 51
3 34 3 35 0 38 -135 2 -88 -6 -101 -62 -90 -32 5 -34 5 -27 -18 5 -13 9 -35
11 -49 1 -14 3 -29 4 -33 2 -11 70 -2 112 16 45 18 48 32 55 223 4 98 3 144
-5 148 -14 9 -14 53 -1 61 13 8 13 142 1 150 -13 8 -13 166 1 182 15 18 1 66
-18 59 -32 -12 -144 -18 -156 -8 -18 14 -93 13 -113 -2z m190 -146 l0 -65 -52
0 -52 0 2 65 2 65 50 0 50 0 0 -65z m1 -166 c-3 -7 0 -26 7 -43 8 -22 8 -36
-1 -56 -11 -23 -17 -26 -40 -20 -15 3 -37 7 -50 7 -27 0 -40 38 -24 74 7 13 9
29 7 36 -4 10 10 13 50 14 41 0 55 -3 51 -12z"/>
</g>
</svg>
