<?xml version="1.0" standalone="no"?>
<!DOCTYPE svg PUBLIC "-//W3C//DTD SVG 20010904//EN"
 "http://www.w3.org/TR/2001/REC-SVG-20010904/DTD/svg10.dtd">
<svg version="1.0" xmlns="http://www.w3.org/2000/svg"
 width="101.000000pt" height="102.000000pt" viewBox="0 0 101.000000 102.000000"
 preserveAspectRatio="xMidYMid meet">
<metadata>
Created by potrace 1.16, written by Peter Selinger 2001-2019
</metadata>
<g transform="translate(0.000000,102.000000) scale(0.100000,-0.100000)"
fill="#000000" stroke="none">
<path d="M453 887 l-2 -132 -70 -3 -70 -3 6 33 c9 49 12 168 5 169 -4 0 -16 3
-27 6 -58 15 -90 -2 -80 -42 3 -11 6 -51 8 -88 l2 -69 -55 7 c-30 3 -67 8 -81
11 -40 8 -62 -20 -54 -65 4 -20 12 -39 18 -43 7 -4 151 -7 321 -5 237 1 310 5
314 15 4 14 72 17 72 3 0 -5 45 -8 100 -8 110 2 118 7 105 67 -8 35 -48 47
-101 30 -49 -16 -304 -3 -304 15 0 8 -3 20 -6 29 -5 13 2 16 40 16 25 0 46 5
46 10 0 6 11 10 25 10 14 0 25 -5 25 -10 0 -7 32 -10 85 -9 74 1 85 4 91 21 3
11 3 30 0 42 -5 22 -12 24 -108 29 -57 4 -126 5 -154 4 l-51 -3 9 39 c4 21 6
42 3 48 -4 5 -30 9 -58 9 l-52 0 -2 -133z"/>
<path d="M191 519 c0 -59 4 -111 9 -114 14 -9 12 -69 -2 -83 -8 -8 -8 -15 1
-25 11 -15 9 -126 -4 -178 -8 -31 8 -38 67 -31 l38 4 0 57 c-1 101 0 109 24
110 24 2 195 2 307 0 l76 -1 -1 -36 -1 -37 -52 1 c-29 1 -53 0 -53 -3 0 -27
35 -102 50 -106 31 -8 113 12 135 33 18 17 21 28 17 81 -3 45 -1 64 9 71 11 7
11 11 2 15 -15 6 -18 73 -3 73 6 0 10 18 10 40 0 22 -4 40 -10 40 -5 0 -10 16
-10 35 0 19 5 35 10 35 7 0 10 24 8 62 l-3 62 -115 -2 c-141 -3 -166 -3 -357
2 l-151 4 -1 -109z m263 19 c5 -10 7 -10 12 0 6 13 83 16 181 6 58 -6 60 -8
59 -34 -1 -31 8 -30 -256 -31 -148 0 -145 0 -145 27 0 21 5 24 38 24 20 0 37
5 37 10 0 15 67 12 74 -2z m177 -129 l75 -1 1 -33 1 -33 -77 -1 c-112 -2 -283
-2 -307 0 -18 1 -22 7 -21 35 1 26 5 33 16 29 9 -2 23 0 31 5 8 5 57 7 110 4
52 -2 129 -5 171 -5z"/>
</g>
</svg>
