<?xml version="1.0" standalone="no"?>
<!DOCTYPE svg PUBLIC "-//W3C//DTD SVG 20010904//EN"
 "http://www.w3.org/TR/2001/REC-SVG-20010904/DTD/svg10.dtd">
<svg version="1.0" xmlns="http://www.w3.org/2000/svg"
 width="101.000000pt" height="101.000000pt" viewBox="0 0 101.000000 101.000000"
 preserveAspectRatio="xMidYMid meet">
<metadata>
Created by potrace 1.16, written by Peter Selinger 2001-2019
</metadata>
<g transform="translate(0.000000,101.000000) scale(0.100000,-0.100000)"
fill="#000000" stroke="none">
<path d="M590 1002 c-15 -7 -20 -41 -23 -152 l-1 -45 -77 2 c-71 1 -78 0 -83
-20 -9 -34 -7 -44 10 -62 10 -9 23 -13 33 -9 9 3 39 7 67 8 l52 1 -5 -35 c-3
-19 -7 -57 -9 -85 -17 -209 -45 -284 -145 -380 -35 -33 -57 -52 -50 -43 10 14
11 50 6 161 -5 100 -4 146 3 151 13 8 14 114 1 122 -12 7 -11 51 1 59 6 4 11
43 11 88 1 45 2 106 2 135 2 55 -13 78 -43 66 -20 -8 -206 -8 -218 0 -25 15
-42 -6 -42 -55 0 -27 5 -49 10 -49 6 0 10 -16 10 -35 0 -19 -4 -35 -10 -35 -6
0 -10 -30 -10 -70 0 -40 4 -70 10 -70 6 0 10 -11 10 -25 0 -14 -5 -25 -10 -25
-7 0 -10 -35 -8 -97 3 -130 -5 -189 -37 -265 l-25 -63 37 -32 38 -32 17 40
c33 76 61 206 61 275 -1 15 6 22 21 23 11 0 37 2 56 3 32 3 35 1 38 -27 7 -58
1 -159 -9 -171 -6 -7 -28 -12 -49 -11 -22 1 -41 -1 -44 -4 -10 -9 29 -98 44
-102 8 -1 33 3 54 11 22 7 42 9 45 4 3 -4 28 -19 55 -32 l50 -23 50 54 c28 30
63 77 78 105 32 59 77 209 84 279 3 28 8 66 11 85 3 19 5 49 6 67 0 28 4 32
36 35 l36 3 -3 -100 c-2 -55 -3 -107 -3 -115 1 -8 3 -41 5 -73 3 -35 -1 -75
-9 -97 -7 -21 -11 -48 -8 -59 10 -37 -14 -52 -74 -47 -29 2 -53 2 -53 0 0 -3
7 -18 15 -35 9 -16 13 -34 10 -38 -3 -5 -2 -16 1 -25 14 -36 139 4 178 56 17
25 20 46 22 170 2 79 5 157 7 173 2 17 5 39 6 50 3 25 26 -34 48 -125 9 -36
17 -66 18 -67 1 -2 22 4 48 13 l46 15 -15 52 c-17 58 -64 187 -69 187 -1 0
-18 -7 -38 -15 -19 -8 -37 -11 -41 -8 -10 11 -7 143 4 143 6 0 10 7 10 15 0
20 -47 30 -80 18 -15 -6 -41 -8 -58 -5 -29 4 -32 8 -33 41 -1 20 0 41 2 46 1
6 3 24 4 40 0 17 4 36 8 43 14 22 -57 40 -93 24z m-303 -190 l3 -67 -61 3 -61
4 6 30 c3 17 6 43 6 59 0 27 2 28 53 32 28 2 52 4 52 5 0 1 1 -28 2 -66z m-2
-215 l0 -72 -35 3 c-19 1 -46 3 -59 3 -21 1 -23 4 -17 37 3 21 6 49 6 64 0 25
3 27 53 31 28 2 52 4 52 5 0 1 0 -31 0 -71z"/>
<path d="M453 642 c-12 -7 -19 -35 -29 -106 -3 -21 -11 -56 -18 -76 l-13 -37
38 -10 c46 -12 61 -4 65 34 2 15 5 42 8 58 4 17 8 39 10 50 2 11 7 33 11 49 5
20 4 31 -6 37 -17 11 -50 11 -66 1z"/>
</g>
</svg>
