<?xml version="1.0" standalone="no"?>
<!DOCTYPE svg PUBLIC "-//W3C//DTD SVG 20010904//EN"
 "http://www.w3.org/TR/2001/REC-SVG-20010904/DTD/svg10.dtd">
<svg version="1.0" xmlns="http://www.w3.org/2000/svg"
 width="101.000000pt" height="101.000000pt" viewBox="0 0 101.000000 101.000000"
 preserveAspectRatio="xMidYMid meet">
<metadata>
Created by potrace 1.16, written by Peter Selinger 2001-2019
</metadata>
<g transform="translate(0.000000,101.000000) scale(0.100000,-0.100000)"
fill="#000000" stroke="none">
<path d="M334 975 c-3 -19 -4 -43 -2 -53 4 -15 -5 -17 -111 -15 -64 2 -121 -1
-127 -5 -21 -14 -25 -49 -8 -66 14 -15 33 -16 133 -12 l117 6 0 -33 c-1 -35
-3 -36 -75 -37 -18 0 -38 -3 -44 -7 -5 -3 -24 -7 -41 -8 -66 -5 -117 -12 -122
-17 -3 -3 0 -27 7 -53 12 -46 13 -47 43 -40 49 10 49 10 87 23 20 7 59 14 87
16 42 2 52 0 52 -13 0 -31 18 -45 56 -44 20 1 40 7 45 15 12 18 11 85 0 93
-13 7 -13 173 -1 180 6 4 10 18 9 33 0 15 2 37 6 50 7 21 5 22 -48 22 l-56 0
-7 -35z"/>
<path d="M532 950 c0 -30 4 -60 10 -67 6 -7 8 -55 5 -118 -5 -103 -5 -106 19
-121 13 -9 34 -15 46 -15 13 1 78 3 145 5 133 3 148 9 179 68 21 41 17 53 -27
82 -39 26 -41 27 -55 9 -7 -10 -12 -23 -9 -30 2 -6 -5 -19 -15 -28 -14 -13
-39 -17 -104 -17 -95 -1 -116 8 -116 52 0 28 7 32 85 46 11 2 34 6 50 9 17 3
43 6 60 6 16 0 47 4 68 10 l38 10 -18 30 c-34 58 -43 61 -106 40 -51 -18 -85
-26 -142 -35 -18 -2 -20 2 -16 38 2 23 8 47 14 54 15 19 1 26 -57 26 l-53 1
-1 -55z"/>
<path d="M217 603 c-14 -4 -16 -12 -11 -51 7 -52 7 -180 2 -344 -4 -118 -3
-120 60 -110 30 4 31 5 31 56 0 96 2 104 25 105 11 1 44 3 71 5 28 3 107 2
177 -1 l126 -6 -2 -24 c-4 -35 -23 -43 -84 -37 -30 2 -52 1 -50 -3 2 -4 14
-29 26 -55 21 -44 37 -55 67 -48 6 1 19 4 31 5 27 4 77 30 93 48 12 15 15 115
7 287 -2 52 -1 102 4 111 5 8 6 26 3 38 -5 21 -10 22 -107 21 -55 -1 -130 -1
-166 -1 -36 0 -108 -1 -160 -2 -52 0 -102 2 -110 5 -8 3 -23 4 -33 1z m424
-82 c54 -1 56 -2 56 -30 l0 -28 -126 -6 c-69 -3 -148 -4 -176 -1 -27 2 -59 4
-71 5 -16 1 -21 8 -21 30 0 22 4 28 16 24 9 -2 23 0 31 5 8 5 65 8 125 6 61
-2 135 -5 166 -5z m0 -130 c54 -1 56 -2 56 -30 l0 -28 -126 -6 c-69 -3 -148
-4 -176 -1 -27 2 -59 4 -71 5 -16 1 -21 8 -21 30 0 22 4 28 16 24 9 -2 23 0
31 5 8 5 65 8 125 6 61 -2 135 -5 166 -5z"/>
</g>
</svg>
