<?xml version="1.0" standalone="no"?>
<!DOCTYPE svg PUBLIC "-//W3C//DTD SVG 20010904//EN"
 "http://www.w3.org/TR/2001/REC-SVG-20010904/DTD/svg10.dtd">
<svg version="1.0" xmlns="http://www.w3.org/2000/svg"
 width="101.000000pt" height="101.000000pt" viewBox="0 0 101.000000 101.000000"
 preserveAspectRatio="xMidYMid meet">
<metadata>
Created by potrace 1.16, written by Peter Selinger 2001-2019
</metadata>
<g transform="translate(0.000000,101.000000) scale(0.100000,-0.100000)"
fill="#000000" stroke="none">
<path d="M596 999 c-37 -127 -97 -250 -153 -315 l-24 -29 5 70 c3 39 8 106 12
151 l7 81 -44 6 c-24 3 -62 4 -84 2 -54 -6 -55 -6 -98 1 -60 10 -106 -3 -113
-32 -3 -13 -1 -30 4 -37 14 -17 14 -175 0 -183 -7 -4 -8 -50 -3 -139 5 -88 3
-135 -3 -139 -6 -4 -11 -23 -10 -44 0 -42 -23 -114 -58 -184 l-24 -47 23 -7
c12 -4 34 -15 49 -26 l27 -19 15 35 c16 39 55 168 62 206 17 97 15 95 82 95
l57 1 0 -103 1 -102 -43 1 c-23 1 -44 0 -47 -3 -11 -11 28 -108 45 -112 26 -7
112 13 129 29 12 12 16 56 18 239 l4 225 30 -16 c35 -18 29 -23 84 74 20 34
36 62 37 62 6 0 9 -305 4 -522 -2 -141 -4 -138 66 -130 34 4 37 7 30 26 -4 11
-7 57 -6 101 4 125 3 123 27 124 11 0 57 3 101 6 44 3 92 1 107 -4 25 -9 29
-7 34 15 3 13 3 36 0 50 -6 24 -10 26 -39 18 -18 -4 -52 -7 -77 -6 -25 2 -68
3 -95 5 l-50 2 0 60 0 60 123 0 c134 0 141 3 127 63 l-6 27 -116 3 c-64 1
-118 4 -119 5 -2 2 -4 30 -6 62 l-3 60 132 -2 133 -2 6 25 c3 13 4 34 1 47 -6
22 -9 22 -160 22 l-155 0 15 30 c9 17 24 40 35 52 25 27 18 48 -19 56 -15 4
-38 9 -50 13 -15 4 -24 2 -27 -7z m-269 -187 l2 -67 -62 0 -62 0 0 65 0 65 60
2 60 1 2 -66z m11 -210 l-3 -64 -70 -1 -70 -1 -3 37 c-2 21 1 37 7 37 6 0 11
11 11 24 0 27 11 31 88 31 l43 1 -3 -64z"/>
</g>
</svg>
