<?xml version="1.0" standalone="no"?>
<!DOCTYPE svg PUBLIC "-//W3C//DTD SVG 20010904//EN"
 "http://www.w3.org/TR/2001/REC-SVG-20010904/DTD/svg10.dtd">
<svg version="1.0" xmlns="http://www.w3.org/2000/svg"
 width="101.000000pt" height="101.000000pt" viewBox="0 0 101.000000 101.000000"
 preserveAspectRatio="xMidYMid meet">
<metadata>
Created by potrace 1.16, written by Peter Selinger 2001-2019
</metadata>
<g transform="translate(0.000000,101.000000) scale(0.100000,-0.100000)"
fill="#000000" stroke="none">
<path d="M120 954 c-12 -3 -14 -18 -12 -64 3 -39 0 -60 -7 -60 -6 0 -11 -18
-11 -40 0 -22 5 -40 10 -40 6 0 10 -33 10 -80 0 -51 -4 -80 -11 -80 -7 0 -10
-31 -9 -92 2 -84 -2 -134 -14 -193 -3 -11 -5 -20 -7 -20 -1 0 -3 -9 -4 -20 -1
-12 -10 -38 -20 -59 -18 -37 -18 -39 -1 -48 10 -6 27 -19 38 -30 11 -11 21
-18 22 -16 5 5 50 142 53 158 1 8 5 29 8 45 6 26 12 75 14 112 1 7 26 13 69
15 l67 3 -1 -98 c-1 -53 -4 -100 -8 -104 -3 -4 -27 -6 -52 -6 -30 1 -43 -3
-40 -11 3 -6 11 -30 18 -54 12 -41 13 -42 49 -38 20 2 53 12 72 21 44 20 57
65 57 191 l0 88 30 -29 30 -29 18 24 c9 13 41 57 70 98 36 52 52 69 52 55 0
-12 5 -23 11 -25 9 -3 9 -44 3 -153 l-9 -150 -25 3 c-14 1 -36 5 -50 7 -94 19
-109 18 -119 -7 -19 -49 3 -88 44 -78 50 13 168 15 362 7 101 -3 101 -3 106
21 12 64 -24 84 -102 56 -40 -14 -55 -15 -75 -6 -14 6 -32 9 -40 6 -11 -4 -14
12 -15 88 -1 215 2 298 11 298 9 0 92 -126 119 -182 13 -27 28 -48 34 -48 6 0
27 11 48 26 l38 25 -18 30 c-35 58 -143 199 -153 199 -6 0 -24 -7 -40 -15 -17
-9 -30 -12 -31 -8 -7 58 -1 112 16 154 l20 50 94 4 c100 5 113 11 109 55 -3
21 -9 26 -48 32 -67 10 -168 9 -175 -1 -7 -12 -172 -13 -180 -1 -9 14 -94 10
-110 -7 -20 -19 -19 -48 2 -68 14 -15 30 -16 108 -10 76 5 93 4 98 -8 7 -18
-47 -143 -97 -225 -21 -34 -61 -86 -89 -115 l-52 -52 -8 90 c-4 50 -5 101 -2
115 10 37 16 220 10 257 l-6 33 -102 -2 c-56 -1 -115 1 -132 5 -16 3 -37 3
-45 1z m197 -152 l2 -67 -67 0 -67 0 0 65 0 65 65 2 65 2 2 -67z m-3 -217 l0
-70 -67 -3 -67 -3 2 73 3 73 65 0 65 0 -1 -70z"/>
</g>
</svg>
