<?xml version="1.0" standalone="no"?>
<!DOCTYPE svg PUBLIC "-//W3C//DTD SVG 20010904//EN"
 "http://www.w3.org/TR/2001/REC-SVG-20010904/DTD/svg10.dtd">
<svg version="1.0" xmlns="http://www.w3.org/2000/svg"
 width="101.000000pt" height="102.000000pt" viewBox="0 0 101.000000 102.000000"
 preserveAspectRatio="xMidYMid meet">
<metadata>
Created by potrace 1.16, written by Peter Selinger 2001-2019
</metadata>
<g transform="translate(0.000000,102.000000) scale(0.100000,-0.100000)"
fill="#000000" stroke="none">
<path d="M245 990 c-4 -16 -1 -45 6 -63 6 -19 9 -49 5 -68 l-6 -34 -94 2 -95
2 -6 -29 c-4 -16 -4 -39 0 -50 6 -18 13 -19 106 -16 l100 4 -3 -67 -3 -66 -40
3 c-21 2 -54 1 -71 -3 l-31 -5 -1 -100 c-1 -54 3 -102 8 -105 13 -8 13 -68 -1
-82 -8 -8 -7 -16 2 -31 10 -16 10 -28 0 -62 -7 -23 -11 -44 -9 -46 6 -5 37 -8
69 -6 25 2 26 4 23 53 -2 41 0 49 13 45 8 -3 23 -1 34 4 26 14 122 2 115 -15
-8 -21 11 -38 43 -38 17 0 31 -4 31 -8 0 -4 -22 -22 -50 -40 l-50 -32 57 -26
56 -25 43 48 c62 71 136 224 138 286 1 9 9 14 21 13 10 -1 27 3 37 8 10 5 41
7 69 3 38 -5 49 -10 45 -21 -3 -8 -1 -23 4 -33 13 -24 1 -137 -16 -154 -11
-11 -48 -14 -79 -6 -5 1 -18 2 -27 1 -16 -1 -15 -6 7 -47 14 -26 25 -53 25
-60 0 -22 122 -2 155 26 19 16 39 108 27 123 -13 16 -15 154 -2 162 12 7 12
213 0 220 -13 8 -13 52 0 60 11 7 13 215 2 232 -10 15 -79 25 -99 15 -11 -5
-53 -6 -103 0 -111 11 -148 5 -156 -28 -3 -13 -1 -30 4 -37 14 -16 14 -174 1
-183 -6 -4 -9 -56 -7 -132 3 -153 -4 -197 -43 -281 -25 -54 -31 -62 -44 -51
-19 16 -21 145 -2 154 10 5 10 7 0 12 -15 7 -18 74 -3 74 6 0 10 26 10 59 0
62 -9 74 -44 62 -10 -4 -31 -5 -47 -3 -28 4 -29 6 -29 63 0 56 1 59 25 59 14
0 25 5 25 10 0 6 20 10 44 10 25 0 48 -4 51 -10 10 -17 33 -11 40 10 15 47
-17 102 -48 83 -7 -4 -41 -8 -77 -8 l-65 0 2 60 c0 33 4 75 8 93 7 32 7 32
-24 26 -20 -4 -31 -3 -31 5 0 6 -9 11 -19 11 -13 0 -21 -9 -26 -30z m561 -190
l1 -75 -82 0 -83 0 2 75 1 75 80 0 80 0 1 -75z m-1 -219 l1 -69 -48 -6 c-27
-4 -56 -2 -67 4 -11 5 -26 8 -33 5 -10 -4 -13 9 -13 59 l0 65 45 4 c25 2 61 4
80 5 l35 2 0 -69z m-436 -79 c3 -45 1 -145 -3 -149 -4 -5 -104 -5 -141 -1 -22
2 -31 9 -33 26 -2 13 1 28 6 35 6 7 9 35 9 62 l-2 50 81 2 82 2 1 -27z"/>
</g>
</svg>
