<?xml version="1.0" standalone="no"?>
<!DOCTYPE svg PUBLIC "-//W3C//DTD SVG 20010904//EN"
 "http://www.w3.org/TR/2001/REC-SVG-20010904/DTD/svg10.dtd">
<svg version="1.0" xmlns="http://www.w3.org/2000/svg"
 width="101.000000pt" height="101.000000pt" viewBox="0 0 101.000000 101.000000"
 preserveAspectRatio="xMidYMid meet">
<metadata>
Created by potrace 1.16, written by Peter Selinger 2001-2019
</metadata>
<g transform="translate(0.000000,101.000000) scale(0.100000,-0.100000)"
fill="#000000" stroke="none">
<path d="M557 1003 c-9 -2 -14 -9 -11 -15 3 -5 3 -52 -1 -103 l-7 -93 -56 4
c-101 6 -96 4 -103 59 -3 28 -2 58 3 69 16 30 -4 40 -56 27 -56 -14 -113 -14
-121 -1 -4 6 -18 10 -33 10 -15 0 -38 1 -51 1 -29 0 -43 -19 -36 -46 9 -32 12
-388 3 -413 -4 -12 -3 -33 4 -47 8 -19 7 -31 -6 -59 -9 -19 -15 -38 -14 -43 5
-18 -15 -90 -37 -133 l-23 -45 35 -39 c19 -20 36 -36 38 -34 31 36 81 207 94
324 0 7 11 12 24 13 12 0 35 2 52 3 34 3 35 -1 38 -125 2 -81 -11 -98 -74 -92
-21 2 -39 2 -39 0 0 -3 9 -19 20 -37 11 -18 20 -41 20 -51 0 -16 5 -18 32 -12
18 3 54 17 81 29 l48 23 16 -28 c10 -16 21 -29 25 -29 4 0 19 22 35 50 15 27
31 50 35 50 4 0 15 -11 24 -25 9 -14 21 -25 27 -25 5 0 30 17 55 37 25 21 43
30 40 22 -3 -9 -3 -31 1 -49 5 -27 13 -36 45 -46 27 -10 43 -11 57 -3 11 5 39
7 62 4 58 -9 93 7 115 52 37 74 36 86 -11 107 -23 11 -45 21 -49 23 -3 2 -9
-14 -13 -37 -9 -55 -27 -70 -78 -67 l-42 3 -1 42 c-1 34 7 52 42 99 24 32 58
84 76 116 18 32 44 72 57 88 28 36 22 45 -42 64 l-45 13 -12 -46 c-6 -26 -26
-74 -43 -106 l-32 -60 -8 55 c-5 34 -4 63 3 77 6 13 8 27 5 32 -3 4 0 22 6 40
9 26 9 34 -2 41 -22 14 -76 10 -92 -6 -13 -13 -16 -13 -21 1 -3 9 -4 19 -1 23
6 12 263 21 289 11 32 -12 46 0 53 45 5 30 2 41 -12 51 -15 11 -22 11 -46 -1
-32 -17 -135 -20 -144 -5 -4 6 -32 9 -63 8 l-57 -3 3 40 c4 65 10 108 17 136
6 23 3 27 -26 33 -34 6 -44 6 -72 -1z m-277 -158 c0 -12 3 -42 6 -66 l6 -44
-54 3 -54 4 1 66 0 67 48 -3 c41 -4 47 -7 47 -27z m106 -119 c-7 -29 19 -42
57 -30 12 4 37 8 55 8 29 1 32 -2 26 -19 -3 -11 -8 -36 -10 -55 -11 -123 -42
-236 -89 -330 -19 -38 -39 -71 -43 -74 -13 -8 -25 179 -13 202 13 24 12 218
-1 247 -12 26 -3 75 13 75 7 0 9 -10 5 -24z m-101 -144 l0 -77 -30 3 c-16 1
-40 3 -52 3 -17 1 -24 9 -29 34 -3 18 -1 42 5 53 6 11 8 27 5 36 -5 12 5 16
48 19 29 2 53 4 53 5 0 1 0 -33 0 -76z m337 9 c1 -23 5 -44 9 -46 9 -6 11
-138 3 -182 -5 -25 -18 -41 -61 -69 -30 -20 -56 -34 -59 -31 -3 2 4 29 15 58
33 89 67 216 75 279 2 14 4 29 5 34 3 23 11 -5 13 -43z"/>
<path d="M720 950 l-35 -30 25 -17 c14 -10 42 -34 64 -55 l38 -38 33 28 c19
15 34 32 34 38 1 10 -107 104 -119 104 -3 0 -21 -14 -40 -30z"/>
</g>
</svg>
