<?xml version="1.0" standalone="no"?>
<!DOCTYPE svg PUBLIC "-//W3C//DTD SVG 20010904//EN"
 "http://www.w3.org/TR/2001/REC-SVG-20010904/DTD/svg10.dtd">
<svg version="1.0" xmlns="http://www.w3.org/2000/svg"
 width="101.000000pt" height="101.000000pt" viewBox="0 0 101.000000 101.000000"
 preserveAspectRatio="xMidYMid meet">
<metadata>
Created by potrace 1.16, written by Peter Selinger 2001-2019
</metadata>
<g transform="translate(0.000000,101.000000) scale(0.100000,-0.100000)"
fill="#000000" stroke="none">
<path d="M550 969 c0 -6 -23 -9 -62 -8 l-63 3 -3 -47 c-2 -28 1 -47 7 -47 6 0
11 -16 11 -35 0 -19 -4 -35 -10 -35 -6 0 -10 -30 -10 -70 0 -40 4 -70 10 -70
6 0 10 -11 10 -25 0 -14 -4 -25 -10 -25 -6 0 -10 -40 -10 -100 0 -60 4 -100
10 -100 6 0 10 -30 10 -70 0 -42 -4 -70 -10 -70 -7 0 -10 -30 -9 -79 2 -88 5
-91 70 -83 33 3 36 7 37 35 3 71 4 75 26 76 11 0 53 3 91 6 39 3 93 3 122 0
l52 -6 -5 -48 c-5 -55 3 -61 67 -53 l36 4 1 79 c1 43 -3 81 -8 84 -11 7 -12
153 0 160 12 8 12 213 0 220 -13 8 -13 52 0 60 15 9 11 238 -4 247 -17 11
-116 9 -116 -2 0 -6 -33 -10 -80 -10 -47 0 -80 4 -80 10 0 6 -18 10 -40 10
-22 0 -40 -5 -40 -11z m262 -159 c-2 -48 1 -81 7 -85 13 -8 15 -52 2 -59 -12
-8 -13 -114 -1 -121 12 -7 13 -95 2 -112 -10 -15 -125 142 -126 172 -1 17 7
21 47 26 54 6 70 22 61 59 -7 32 -20 40 -67 40 -34 0 -37 2 -27 19 5 11 9 30
9 43 -1 13 1 30 5 38 8 19 -54 45 -84 35 -22 -7 -24 -14 -24 -95 l-1 -55 -42
-3 c-30 -2 -43 1 -44 10 -1 7 -2 47 -2 88 l-2 75 145 1 145 1 -3 -77z m-192
-180 c-4 -8 -8 -31 -8 -51 0 -42 -29 -111 -65 -153 l-24 -30 3 70 c2 38 -1 81
-7 96 -6 15 -8 39 -5 54 6 21 11 25 29 20 12 -3 29 -1 36 4 24 14 51 8 41 -10z
m91 -212 c17 -35 32 -64 34 -66 1 -1 17 4 36 12 l35 15 1 -39 2 -39 -62 -5
c-34 -4 -91 -4 -127 -1 -36 3 -74 6 -86 6 -16 1 -21 8 -21 30 0 34 -1 33 37
14 l29 -15 31 52 c17 29 33 63 36 76 10 35 21 26 55 -40z"/>
<path d="M95 936 c-3 -17 -3 -78 0 -136 4 -58 8 -139 10 -180 2 -41 -1 -111
-6 -155 -5 -44 -11 -99 -14 -122 -2 -22 -15 -70 -30 -105 -14 -34 -28 -67 -30
-73 -2 -5 16 -20 41 -31 41 -19 46 -20 53 -5 9 16 38 115 46 156 9 46 17 102
18 131 1 25 6 32 21 33 12 0 34 2 51 3 25 3 30 -1 33 -22 17 -165 9 -196 -56
-194 -29 1 -41 -2 -38 -10 3 -6 11 -30 18 -53 6 -23 19 -44 27 -45 20 -4 97
24 114 41 13 14 17 106 18 549 0 54 6 205 9 217 6 24 -2 35 -24 35 -14 0 -28
-4 -31 -10 -8 -12 -82 -13 -89 -1 -4 5 -35 9 -71 9 -64 -1 -65 -1 -70 -32z
m189 -120 c4 -38 5 -71 3 -72 -2 -2 -24 -1 -48 2 l-45 6 1 67 0 66 41 0 42 0
6 -69z m1 -214 l0 -67 -45 0 -45 0 0 62 0 62 45 4 c25 2 45 4 45 5 0 1 0 -28
0 -66z"/>
</g>
</svg>
