<?xml version="1.0" standalone="no"?>
<!DOCTYPE svg PUBLIC "-//W3C//DTD SVG 20010904//EN"
 "http://www.w3.org/TR/2001/REC-SVG-20010904/DTD/svg10.dtd">
<svg version="1.0" xmlns="http://www.w3.org/2000/svg"
 width="101.000000pt" height="101.000000pt" viewBox="0 0 101.000000 101.000000"
 preserveAspectRatio="xMidYMid meet">
<metadata>
Created by potrace 1.16, written by Peter Selinger 2001-2019
</metadata>
<g transform="translate(0.000000,101.000000) scale(0.100000,-0.100000)"
fill="#000000" stroke="none">
<path d="M638 950 c3 -39 0 -60 -7 -60 -6 0 -11 -18 -11 -40 0 -22 5 -40 11
-40 6 0 9 -17 7 -42 l-3 -42 -83 1 -84 1 3 -151 c3 -180 -1 -232 -27 -312
l-19 -60 -6 47 c-4 25 -5 81 -3 125 3 43 5 131 5 196 0 64 0 132 0 150 0 17 1
78 3 133 l4 101 -50 6 c-28 4 -58 3 -67 -1 -9 -5 -25 -7 -36 -5 -139 20 -165
12 -165 -52 0 -25 5 -45 10 -45 6 0 10 -16 10 -35 0 -19 -4 -35 -10 -35 -6 0
-10 -30 -10 -70 0 -40 4 -70 10 -70 6 0 10 -11 10 -25 0 -14 -5 -25 -11 -25
-6 0 -9 -31 -8 -87 4 -121 -9 -188 -53 -282 l-30 -63 33 -34 c18 -19 37 -33
42 -31 20 6 111 286 101 310 -3 8 16 12 60 12 72 0 66 11 69 -112 2 -86 -15
-115 -57 -95 -13 6 -33 8 -44 6 -19 -5 -19 -6 -1 -42 11 -20 19 -44 19 -54 0
-22 29 -23 85 -3 50 18 50 18 35 0 -7 -9 -11 -17 -9 -18 6 -5 94 -37 101 -37
8 0 60 134 79 200 14 51 17 70 21 120 l2 35 51 -2 c27 0 55 2 60 7 11 9 111
12 137 4 12 -4 16 -13 13 -34 -4 -32 11 -40 63 -32 31 4 38 15 33 52 -1 8 -2
81 -2 163 -1 114 -4 147 -15 147 -7 0 -16 -4 -19 -10 -3 -5 -28 -10 -56 -10
-27 0 -49 5 -49 10 0 6 -11 10 -24 10 -21 0 -24 5 -27 43 l-4 42 112 -1 c104
-2 113 0 119 18 3 11 3 29 0 41 -5 21 -10 22 -118 22 l-113 0 0 35 c0 19 4 41
8 48 14 21 -3 32 -51 32 l-47 0 3 -60z m-311 -140 l3 -68 -61 1 -61 2 6 35 c3
19 6 49 6 65 0 29 2 30 53 32 l52 2 2 -69z m-1 -226 l1 -72 -57 2 -56 1 0 70
1 70 55 0 55 0 1 -71z m494 13 c0 -29 3 -62 6 -73 5 -19 0 -22 -42 -29 -34 -5
-49 -3 -56 7 -7 10 -11 10 -15 1 -6 -15 -73 -18 -73 -3 0 6 -17 10 -38 10
l-39 0 1 68 1 67 128 2 127 2 0 -52z"/>
</g>
</svg>
