<?xml version="1.0" standalone="no"?>
<!DOCTYPE svg PUBLIC "-//W3C//DTD SVG 20010904//EN"
 "http://www.w3.org/TR/2001/REC-SVG-20010904/DTD/svg10.dtd">
<svg version="1.0" xmlns="http://www.w3.org/2000/svg"
 width="101.000000pt" height="101.000000pt" viewBox="0 0 101.000000 101.000000"
 preserveAspectRatio="xMidYMid meet">
<metadata>
Created by potrace 1.16, written by Peter Selinger 2001-2019
</metadata>
<g transform="translate(0.000000,101.000000) scale(0.100000,-0.100000)"
fill="#000000" stroke="none">
<path d="M625 998 c-16 -6 -31 -12 -33 -13 -1 -1 5 -19 14 -40 30 -73 33 -70
-77 -69 l-98 1 -6 -27 c-3 -15 -5 -61 -4 -103 3 -80 8 -86 61 -87 39 0 63 64
39 108 -8 16 4 17 148 17 l156 1 2 -45 c3 -62 8 -71 40 -71 44 0 50 10 58 91
9 96 2 123 -31 115 -13 -4 -54 -3 -92 0 l-69 7 -24 61 c-25 64 -36 71 -84 54z"/>
<path d="M119 963 c-14 -3 -17 -17 -17 -74 0 -38 4 -72 9 -74 12 -8 10 -173
-2 -181 -5 -3 -9 -34 -8 -68 1 -35 -1 -68 -4 -73 -4 -6 -1 -24 6 -42 9 -25 9
-36 -1 -52 -7 -11 -15 -33 -17 -47 -9 -68 -18 -101 -41 -152 -14 -31 -21 -56
-15 -58 6 -2 26 -14 45 -27 l35 -24 15 42 c33 89 58 202 65 288 0 10 10 17 24
17 12 1 33 2 47 4 27 3 26 5 35 -102 2 -30 2 -67 -1 -82 -5 -25 -9 -27 -49
-26 -24 1 -46 0 -49 -3 -4 -4 22 -97 30 -107 5 -7 120 30 135 45 15 13 20 11
45 -22 24 -32 32 -36 58 -31 47 9 188 81 215 110 l24 25 46 -31 c25 -18 65
-47 89 -67 l43 -34 41 40 41 41 -101 58 c-75 44 -100 63 -95 74 3 8 20 54 37
102 l30 86 58 -4 c54 -4 58 -3 64 20 3 13 4 34 2 46 -3 22 -7 22 -145 24 -79
0 -143 3 -143 6 0 3 14 29 30 59 17 30 30 57 30 62 0 19 -95 36 -115 19 -7 -6
-13 -24 -13 -39 1 -15 -5 -38 -12 -51 -7 -14 -13 -26 -12 -27 1 -2 2 -9 2 -17
0 -12 -17 -13 -95 -9 -84 5 -95 4 -95 -11 0 -9 -5 -16 -11 -16 -7 0 -9 17 -5
53 4 28 8 114 10 191 l4 138 -31 -6 c-66 -13 -197 -19 -197 -9 0 13 -20 21
-41 16z m166 -171 l0 -77 -49 -3 -49 -3 7 47 c3 26 6 59 6 75 0 26 4 28 43 32
23 2 42 4 42 5 0 1 0 -33 0 -76z m0 -215 c0 -71 0 -72 -25 -69 -14 2 -34 3
-45 4 -18 0 -20 7 -20 64 l0 63 45 4 c25 2 45 4 45 5 0 1 0 -31 0 -71z m123
-68 c10 -1 22 0 27 1 14 4 105 6 105 2 0 -1 -16 -34 -36 -73 -19 -39 -34 -72
-32 -73 2 -1 36 -17 76 -36 39 -18 72 -37 72 -40 0 -15 -107 -63 -166 -74 -10
-2 -32 -7 -47 -11 l-28 -7 2 138 c1 77 -1 159 -4 184 -6 39 -5 41 4 18 6 -16
18 -29 27 -29z m326 -24 c-6 -37 -38 -110 -52 -119 -5 -3 -31 3 -56 15 l-46
20 29 57 29 57 51 0 50 0 -5 -30z"/>
</g>
</svg>
