<?xml version="1.0" standalone="no"?>
<!DOCTYPE svg PUBLIC "-//W3C//DTD SVG 20010904//EN"
 "http://www.w3.org/TR/2001/REC-SVG-20010904/DTD/svg10.dtd">
<svg version="1.0" xmlns="http://www.w3.org/2000/svg"
 width="101.000000pt" height="102.000000pt" viewBox="0 0 101.000000 102.000000"
 preserveAspectRatio="xMidYMid meet">
<metadata>
Created by potrace 1.16, written by Peter Selinger 2001-2019
</metadata>
<g transform="translate(0.000000,102.000000) scale(0.100000,-0.100000)"
fill="#000000" stroke="none">
<path d="M611 1008 c-25 -9 -25 -7 -6 -50 8 -20 16 -48 19 -63 l5 -27 -88 7
c-104 8 -131 -1 -131 -45 0 -34 25 -62 54 -59 11 0 36 1 54 0 28 -1 31 -3 23
-19 -19 -35 -143 -162 -153 -156 -6 4 -7 24 -4 48 10 65 17 238 11 272 -5 31
-5 31 -60 26 -37 -3 -55 -1 -55 7 0 6 -17 11 -40 11 -22 0 -40 -5 -40 -11 0
-7 -21 -10 -58 -7 l-59 3 -1 -57 c0 -32 3 -60 8 -63 13 -8 11 -173 -1 -181 -6
-4 -9 -54 -8 -128 1 -66 0 -137 -3 -156 -16 -90 -20 -106 -40 -152 -11 -27
-19 -50 -17 -51 2 -2 21 -15 42 -30 l37 -28 10 25 c13 34 43 136 47 161 2 11
6 31 9 45 3 14 7 44 10 67 l6 41 56 4 57 3 1 -112 1 -112 -43 1 c-24 1 -45 0
-48 -3 -10 -9 29 -98 44 -102 19 -4 110 29 126 45 17 18 31 258 15 258 -7 0
-11 25 -11 75 0 41 3 75 6 75 3 0 19 -11 36 -25 35 -30 44 -31 53 -7 5 12 16
-10 40 -75 18 -51 45 -114 59 -139 25 -44 25 -48 9 -66 -21 -23 -149 -88 -174
-88 -28 0 -23 -12 21 -54 l41 -38 42 27 c23 15 66 46 95 68 53 40 54 41 80 23
42 -27 185 -96 199 -96 7 0 18 10 24 22 6 13 21 33 32 46 18 19 19 25 7 32 -8
5 -17 7 -21 5 -10 -7 -109 25 -162 51 l-47 24 16 32 c9 18 36 78 59 135 l43
103 -50 15 c-59 17 -67 14 -67 -23 0 -53 -45 -192 -63 -192 -14 0 -67 120 -71
161 -5 49 -15 62 -43 56 -14 -2 -27 -1 -29 3 -3 5 26 42 65 83 l69 74 -39 18
c-36 16 -38 19 -22 31 20 15 58 18 66 5 8 -13 108 -12 123 1 8 6 42 9 88 6 82
-5 93 2 79 56 -6 26 -7 26 -74 20 -45 -5 -69 -3 -74 5 -4 6 -28 12 -54 12 -26
1 -39 3 -29 6 10 3 17 10 14 16 -2 7 -12 36 -22 65 -17 47 -22 52 -46 50 -16
-1 -37 -6 -48 -10z m-314 -201 l2 -62 -62 0 -62 0 0 60 0 60 60 2 60 1 2 -61z
m-7 -178 c0 -16 5 -29 11 -29 6 0 9 -16 7 -37 l-3 -38 -65 0 -65 0 0 65 0 65
58 2 c57 1 57 1 57 -28z"/>
<path d="M726 735 l-29 -23 89 -86 89 -85 35 28 c19 15 35 32 34 37 0 12 -166
154 -179 154 -5 -1 -23 -11 -39 -25z"/>
</g>
</svg>
