<?xml version="1.0" standalone="no"?>
<!DOCTYPE svg PUBLIC "-//W3C//DTD SVG 20010904//EN"
 "http://www.w3.org/TR/2001/REC-SVG-20010904/DTD/svg10.dtd">
<svg version="1.0" xmlns="http://www.w3.org/2000/svg"
 width="101.000000pt" height="101.000000pt" viewBox="0 0 101.000000 101.000000"
 preserveAspectRatio="xMidYMid meet">
<metadata>
Created by potrace 1.16, written by Peter Selinger 2001-2019
</metadata>
<g transform="translate(0.000000,101.000000) scale(0.100000,-0.100000)"
fill="#000000" stroke="none">
<path d="M118 974 c-21 -6 -33 -62 -23 -101 8 -31 9 -393 1 -463 -13 -117 -27
-166 -66 -221 -20 -28 -20 -29 -3 -35 10 -3 33 -12 51 -20 18 -8 35 -14 37
-14 5 0 55 154 60 185 2 11 7 36 11 55 3 19 6 44 6 55 1 17 8 20 53 21 60 1
55 11 58 -119 2 -89 -4 -97 -64 -91 -22 3 -39 2 -39 -2 0 -3 8 -28 17 -56 l18
-49 41 4 c61 7 96 27 106 62 6 25 18 177 18 247 0 23 28 30 134 32 l91 1 -1
-120 c0 -66 -1 -126 -2 -133 -1 -9 -16 -11 -53 -8 -36 3 -49 1 -45 -7 3 -7 10
-31 17 -55 l12 -43 46 4 c26 2 60 10 76 18 30 14 30 14 26 93 -2 58 1 81 11
88 10 7 10 11 1 15 -15 6 -18 73 -3 73 6 0 10 17 10 38 l0 37 110 0 c98 0 111
2 116 18 3 10 3 29 0 41 -7 29 -38 36 -147 36 -76 0 -79 1 -85 26 -4 17 -2 29
7 35 26 17 -29 37 -81 29 -23 -3 -31 -22 -25 -60 l6 -36 -113 1 c-110 0 -113
-1 -112 -22 0 -12 -3 -20 -8 -17 -11 7 -10 52 2 59 13 8 13 142 1 150 -13 8
-13 166 1 182 5 7 8 23 5 35 -6 22 -12 23 -99 24 -51 1 -109 4 -128 7 -19 3
-43 3 -52 1z m179 -162 l2 -67 -52 0 -52 0 0 62 0 62 45 4 c25 2 47 4 50 5 3
1 6 -29 7 -66z m-2 -221 l0 -66 -50 0 -50 0 0 65 0 65 50 1 50 1 0 -66z"/>
<path d="M747 910 l-57 -70 -87 60 c-47 33 -92 60 -98 60 -12 0 -71 -68 -64
-74 2 -2 31 -17 64 -35 33 -17 71 -41 85 -52 l25 -21 -30 -24 c-38 -31 -111
-67 -139 -68 -29 -1 -26 -16 12 -60 l33 -38 34 21 c19 11 61 39 92 63 32 23
63 43 69 44 7 1 42 -29 79 -66 l68 -69 44 30 c24 17 43 35 41 39 -2 5 -40 38
-85 73 l-83 64 75 64 c41 35 75 67 75 71 0 7 -81 58 -91 58 -3 0 -30 -31 -62
-70z"/>
<path d="M496 388 c-12 -29 -40 -75 -61 -102 -36 -47 -37 -50 -19 -63 11 -7
27 -20 37 -29 11 -8 20 -14 21 -12 2 2 26 42 54 89 29 48 58 92 67 99 19 16
12 26 -36 50 l-39 20 -24 -52z"/>
<path d="M776 415 c-10 -8 -23 -16 -29 -18 -5 -1 8 -28 29 -58 22 -30 50 -79
63 -107 14 -29 28 -52 32 -52 17 0 79 43 79 54 0 7 -23 46 -51 87 -81 117 -86
122 -123 94z"/>
</g>
</svg>
