<?xml version="1.0" standalone="no"?>
<!DOCTYPE svg PUBLIC "-//W3C//DTD SVG 20010904//EN"
 "http://www.w3.org/TR/2001/REC-SVG-20010904/DTD/svg10.dtd">
<svg version="1.0" xmlns="http://www.w3.org/2000/svg"
 width="101.000000pt" height="101.000000pt" viewBox="0 0 101.000000 101.000000"
 preserveAspectRatio="xMidYMid meet">
<metadata>
Created by potrace 1.16, written by Peter Selinger 2001-2019
</metadata>
<g transform="translate(0.000000,101.000000) scale(0.100000,-0.100000)"
fill="#000000" stroke="none">
<path d="M448 961 c3 -32 -2 -57 -11 -72 -8 -13 -15 -36 -15 -51 0 -15 -9 -42
-21 -62 -47 -75 -135 -129 -288 -176 l-73 -22 31 -43 31 -44 50 20 c60 23 56
24 57 -3 1 -13 3 -63 6 -113 4 -64 1 -104 -9 -139 -11 -36 -12 -54 -4 -69 5
-11 8 -32 4 -47 -6 -32 10 -40 60 -33 27 4 30 9 31 41 1 21 3 46 4 57 2 11 -1
30 -5 41 -5 18 -3 22 16 23 13 1 46 3 73 6 28 2 104 1 171 -2 l121 -6 -1 -36
c-1 -33 -4 -36 -31 -37 -68 -3 -65 -1 -49 -31 7 -16 14 -35 14 -44 0 -24 33
-29 86 -13 77 23 74 16 73 213 -1 201 0 221 12 221 4 0 31 -9 59 -20 51 -20
70 -19 70 2 0 6 12 26 26 45 29 38 27 45 -13 49 -88 10 -108 14 -155 30 -190
62 -252 152 -223 327 l7 37 -54 0 -53 0 3 -49z m52 -212 c0 -25 65 -101 108
-126 l47 -28 -60 -7 c-33 -5 -96 -6 -140 -3 -44 3 -91 6 -105 6 l-25 1 25 16
c43 27 119 110 126 137 6 23 24 26 24 4z m126 -228 c49 -1 51 -2 51 -30 l0
-28 -121 -6 c-67 -3 -143 -4 -171 -2 -27 3 -59 5 -71 6 -16 1 -21 8 -21 30 0
22 4 28 16 24 9 -2 23 0 31 5 8 5 65 8 125 6 61 -2 133 -5 161 -5z m0 -130
c48 -1 52 -3 50 -25 -1 -23 -4 -23 -121 -29 -66 -3 -142 -4 -170 -2 -27 3 -59
5 -70 6 -14 1 -20 9 -21 26 -2 18 2 22 15 19 9 -3 23 -1 31 4 8 5 65 8 125 6
61 -2 133 -5 161 -5z"/>
<path d="M793 975 c-26 -18 -139 -62 -179 -69 -14 -3 -29 -7 -31 -10 -5 -5 26
-57 40 -67 4 -3 -2 -22 -13 -42 -22 -37 -22 -37 -2 -37 12 0 23 -4 26 -8 3 -5
18 -9 33 -10 15 0 61 -15 102 -32 58 -23 77 -27 83 -18 14 20 38 66 38 72 0 5
-65 26 -99 32 -8 2 -47 11 -85 20 l-71 17 35 15 c19 8 46 14 60 14 14 0 39 7
55 16 17 8 32 15 35 14 13 -2 61 11 65 18 3 4 -12 26 -33 49 -35 40 -38 41
-59 26z"/>
<path d="M143 936 c-20 -31 -21 -35 -5 -42 9 -4 28 -9 42 -10 14 -2 56 -15 93
-30 l68 -28 24 30 c13 16 23 33 22 38 -3 10 -182 75 -207 76 -8 0 -25 -16 -37
-34z"/>
<path d="M298 799 c-5 -4 -18 -4 -28 -2 -10 3 -21 0 -24 -5 -3 -6 -15 -8 -26
-5 -11 3 -28 2 -37 -2 -10 -4 -35 -8 -55 -9 -21 -1 -40 -5 -43 -7 -3 -3 2 -27
11 -53 14 -41 19 -46 38 -40 69 23 106 32 106 28 0 -3 8 0 18 5 9 5 32 11 51
14 39 6 51 20 51 59 0 24 -4 27 -26 26 -14 -1 -30 -5 -36 -9z"/>
</g>
</svg>
