<?xml version="1.0" standalone="no"?>
<!DOCTYPE svg PUBLIC "-//W3C//DTD SVG 20010904//EN"
 "http://www.w3.org/TR/2001/REC-SVG-20010904/DTD/svg10.dtd">
<svg version="1.0" xmlns="http://www.w3.org/2000/svg"
 width="101.000000pt" height="102.000000pt" viewBox="0 0 101.000000 102.000000"
 preserveAspectRatio="xMidYMid meet">
<metadata>
Created by potrace 1.16, written by Peter Selinger 2001-2019
</metadata>
<g transform="translate(0.000000,102.000000) scale(0.100000,-0.100000)"
fill="#000000" stroke="none">
<path d="M540 961 c-18 -33 -56 -83 -85 -112 l-54 -53 30 -18 c30 -19 38 -38
16 -38 -11 0 -14 -32 -15 -152 -2 -263 -16 -335 -83 -429 -12 -17 -20 -31 -18
-33 2 -1 23 -12 46 -24 l42 -21 29 62 c61 128 76 214 77 417 l0 105 77 -3 c46
-2 79 1 83 7 7 13 48 15 59 4 4 -5 31 -9 59 -10 147 -7 160 -3 155 47 -3 23
-8 26 -78 33 -41 4 -89 6 -106 5 l-32 -4 47 71 c26 38 51 75 54 82 6 9 -7 10
-48 6 -34 -4 -60 -2 -68 6 -8 6 -35 10 -62 8 l-48 -3 32 26 c17 15 31 31 31
37 0 10 -79 43 -101 43 -4 0 -22 -27 -39 -59z m170 -129 c0 -2 -13 -22 -29
-45 l-29 -42 -76 1 c-42 1 -79 4 -81 6 -3 3 10 22 29 44 l33 39 77 0 c42 0 76
-1 76 -3z"/>
<path d="M110 954 c-12 -3 -14 -18 -12 -64 3 -39 0 -60 -7 -60 -6 0 -11 -18
-11 -40 0 -22 5 -40 10 -40 6 0 10 -33 10 -80 0 -51 -4 -80 -11 -80 -7 0 -10
-37 -8 -112 3 -132 -4 -181 -36 -261 l-23 -58 36 -34 c25 -23 39 -30 44 -22
10 15 48 133 54 167 9 48 13 75 20 123 6 43 9 47 34 47 16 0 35 3 44 6 12 5
14 -1 9 -31 -3 -20 0 -54 7 -76 9 -28 11 -51 4 -77 -8 -32 -13 -37 -39 -38
-68 -3 -64 1 -46 -51 9 -27 17 -50 18 -51 4 -9 111 30 126 46 16 18 21 112 17
397 0 55 1 164 4 242 l4 141 -86 -1 c-48 0 -100 2 -117 6 -16 3 -37 3 -45 1z
m157 -152 l2 -67 -50 0 -51 0 6 35 c3 19 6 47 6 62 0 27 11 33 65 37 18 1 20
-6 22 -67z m11 -208 l-3 -66 -55 -1 -55 -1 -3 37 c-2 21 1 37 7 37 6 0 11 11
11 24 0 22 5 25 43 29 23 2 46 4 50 5 4 1 7 -28 5 -64z"/>
<path d="M569 584 c-6 -17 -8 -57 -4 -99 8 -94 8 -160 0 -217 -5 -34 -2 -60
10 -92 15 -39 23 -47 62 -60 31 -11 51 -13 63 -6 10 6 51 8 92 6 40 -2 81 0
91 6 18 9 67 101 67 126 0 7 -8 15 -17 19 -10 3 -28 15 -40 26 -28 25 -34 20
-37 -28 -5 -52 -33 -78 -87 -77 -62 1 -96 6 -106 15 -4 5 -8 77 -8 160 l0 152
63 0 62 0 1 -30 c1 -16 0 -34 -1 -40 -1 -5 -3 -17 -4 -25 -2 -9 -15 -15 -35
-16 -18 -1 -34 -3 -36 -5 -9 -10 20 -88 34 -92 25 -6 98 29 111 53 12 23 20
66 25 135 1 23 6 51 10 64 4 13 3 27 -2 31 -4 4 -74 11 -155 15 l-148 7 -11
-28z"/>
</g>
</svg>
