<?xml version="1.0" standalone="no"?>
<!DOCTYPE svg PUBLIC "-//W3C//DTD SVG 20010904//EN"
 "http://www.w3.org/TR/2001/REC-SVG-20010904/DTD/svg10.dtd">
<svg version="1.0" xmlns="http://www.w3.org/2000/svg"
 width="101.000000pt" height="101.000000pt" viewBox="0 0 101.000000 101.000000"
 preserveAspectRatio="xMidYMid meet">
<metadata>
Created by potrace 1.16, written by Peter Selinger 2001-2019
</metadata>
<g transform="translate(0.000000,101.000000) scale(0.100000,-0.100000)"
fill="#000000" stroke="none">
<path d="M638 954 c2 -31 -1 -61 -6 -66 -11 -11 -153 -15 -169 -5 -32 20 -49
-56 -36 -160 5 -34 10 -43 30 -48 49 -12 60 0 55 63 l-4 57 51 2 c48 1 51 0
46 -20 -13 -44 -75 -168 -102 -204 -28 -36 -98 -93 -115 -93 -5 0 -6 46 -2
110 4 72 3 114 -4 122 -13 17 -15 175 -2 183 6 4 9 20 8 37 l-2 30 -78 -7
c-50 -5 -83 -3 -91 3 -13 11 -68 14 -100 5 -14 -3 -17 -16 -17 -64 0 -33 4
-59 10 -59 6 0 10 -16 10 -35 0 -19 -5 -35 -10 -35 -7 0 -10 -50 -8 -147 1
-82 0 -164 -4 -183 -3 -19 -9 -53 -13 -75 -8 -46 -38 -125 -61 -160 -15 -23
-14 -25 23 -59 21 -19 40 -36 43 -36 7 0 25 44 62 155 29 86 38 125 40 171 0
15 7 22 22 23 11 0 34 2 51 3 34 3 35 0 38 -129 2 -87 -6 -98 -73 -96 -28 1
-50 0 -50 -1 0 -1 9 -19 20 -41 11 -22 20 -45 20 -52 0 -7 8 -13 18 -13 31 0
121 30 129 43 4 6 8 59 10 117 1 58 3 116 3 129 l2 24 23 -29 24 -29 39 39
c38 36 40 37 41 15 0 -13 3 -53 6 -89 7 -87 -1 -128 -31 -155 l-25 -23 29 -41
29 -40 79 60 c43 33 84 64 92 68 11 6 12 15 1 49 -7 23 -14 42 -17 42 -2 0
-21 -14 -42 -30 -34 -27 -39 -29 -44 -13 -9 27 -5 162 4 168 5 3 8 30 8 60 -1
34 6 71 18 97 l19 42 8 -44 c25 -151 68 -269 126 -347 32 -44 104 -103 126
-103 6 0 25 20 43 45 l32 45 -35 14 c-44 19 -122 91 -144 135 l-18 35 40 33
c22 19 60 46 85 60 l45 27 -38 33 c-21 18 -44 33 -50 33 -7 0 -32 -25 -56 -55
-24 -30 -46 -55 -49 -55 -7 0 -9 24 -11 103 -1 52 -3 58 -25 63 -13 4 -34 4
-45 1 -13 -4 -18 -1 -15 6 2 7 12 35 22 64 18 55 19 55 115 70 l37 5 -5 -44
c-4 -33 -1 -49 12 -61 17 -17 62 -23 80 -9 6 4 11 49 11 99 1 82 -1 93 -17 98
-10 4 -24 3 -31 -2 -7 -4 -47 -8 -89 -8 -70 0 -76 2 -68 18 6 9 7 17 4 17 -2
0 2 18 11 40 9 23 14 44 10 47 -3 4 -30 8 -59 10 l-52 3 3 -56z m-343 -147 c1
-53 -2 -66 -13 -62 -7 3 -31 5 -52 5 l-39 0 2 63 2 62 50 0 50 0 0 -68z m-8
-151 c1 0 3 -28 4 -61 l3 -60 -30 3 c-16 1 -38 3 -49 3 -18 1 -20 8 -20 64 l0
62 45 -5 c25 -2 46 -5 47 -6z"/>
</g>
</svg>
