<?xml version="1.0" standalone="no"?>
<!DOCTYPE svg PUBLIC "-//W3C//DTD SVG 20010904//EN"
 "http://www.w3.org/TR/2001/REC-SVG-20010904/DTD/svg10.dtd">
<svg version="1.0" xmlns="http://www.w3.org/2000/svg"
 width="101.000000pt" height="101.000000pt" viewBox="0 0 101.000000 101.000000"
 preserveAspectRatio="xMidYMid meet">
<metadata>
Created by potrace 1.16, written by Peter Selinger 2001-2019
</metadata>
<g transform="translate(0.000000,101.000000) scale(0.100000,-0.100000)"
fill="#000000" stroke="none">
<path d="M627 1002 c-17 -3 -18 -17 -13 -215 l5 -212 -43 82 c-43 79 -44 83
-31 120 8 21 14 48 15 60 0 12 5 25 10 28 17 10 11 21 -15 33 -32 15 -85 16
-85 2 0 -19 -2 -25 -11 -36 -5 -7 -9 -29 -8 -50 2 -66 -27 -181 -59 -231 -10
-16 -14 113 -8 285 4 91 3 93 -18 89 -57 -14 -156 -19 -156 -8 0 7 -22 11 -59
11 -45 0 -60 -4 -65 -16 -3 -9 -3 -20 0 -26 4 -6 6 -61 5 -124 0 -66 3 -115 9
-119 14 -9 12 -71 -4 -134 -10 -40 -11 -60 -3 -82 9 -22 8 -34 -1 -50 -7 -11
-15 -37 -18 -57 -6 -51 -23 -112 -41 -145 -13 -27 -12 -30 15 -62 16 -18 32
-39 35 -47 4 -10 7 -10 16 2 10 15 62 170 67 200 8 47 17 128 17 146 -1 15 6
22 21 23 11 0 34 2 51 3 33 3 31 10 40 -122 3 -41 3 -89 0 -107 -5 -28 -9 -31
-40 -30 -19 1 -37 -2 -40 -5 -4 -3 0 -28 8 -54 16 -54 24 -57 92 -35 67 22 65
17 64 200 -1 91 0 177 1 191 l2 25 25 -29 c29 -34 30 -34 70 68 l27 69 13 -32
c8 -18 15 -46 17 -62 5 -39 8 -42 40 -29 40 15 41 14 44 -34 l1 -44 -44 -7
c-25 -3 -50 -3 -56 1 -7 4 -29 8 -49 10 -30 3 -39 -1 -43 -15 -14 -53 22 -93
64 -70 10 5 43 6 72 3 60 -7 56 -2 60 -91 0 -23 -2 -46 -7 -50 -6 -7 -101 -8
-184 -2 -13 0 -26 -2 -30 -5 -7 -8 -6 -75 1 -83 7 -7 44 -6 87 3 49 10 343 6
371 -5 13 -4 38 -6 56 -4 26 4 32 10 36 36 7 52 -2 70 -32 61 -14 -5 -60 -7
-101 -6 -125 2 -119 1 -126 37 -3 18 -1 42 5 53 6 11 8 27 5 35 -6 17 5 19
117 17 75 -1 77 -1 82 25 2 15 2 36 0 46 -5 16 -11 18 -47 12 -22 -4 -57 -7
-76 -6 -19 2 -45 3 -57 4 -20 1 -22 6 -21 45 2 44 2 44 17 19 9 -14 19 -25 23
-25 9 0 68 123 68 141 0 24 17 -5 35 -58 9 -29 21 -53 26 -53 5 0 25 7 45 15
l35 14 -51 101 c-50 99 -50 101 -38 148 6 26 18 57 25 69 14 21 13 23 -22 37
-66 28 -96 7 -95 -66 0 -31 -6 -83 -10 -83 -1 0 -4 -12 -6 -28 -1 -15 -13 -50
-26 -78 l-23 -51 2 168 c1 93 5 184 8 202 6 31 0 38 -28 33 -4 -1 -16 3 -25 7
-9 5 -25 7 -35 4z m-342 -189 l0 -68 -52 0 -52 0 2 65 2 65 50 3 50 2 0 -67z
m0 -211 l-1 -67 -29 3 c-17 1 -41 3 -54 3 -21 1 -23 4 -17 37 3 21 6 47 6 59
0 18 7 23 38 26 20 2 42 4 47 5 6 1 10 -26 10 -66z"/>
</g>
</svg>
