<?xml version="1.0" standalone="no"?>
<!DOCTYPE svg PUBLIC "-//W3C//DTD SVG 20010904//EN"
 "http://www.w3.org/TR/2001/REC-SVG-20010904/DTD/svg10.dtd">
<svg version="1.0" xmlns="http://www.w3.org/2000/svg"
 width="101.000000pt" height="101.000000pt" viewBox="0 0 101.000000 101.000000"
 preserveAspectRatio="xMidYMid meet">
<metadata>
Created by potrace 1.16, written by Peter Selinger 2001-2019
</metadata>
<g transform="translate(0.000000,101.000000) scale(0.100000,-0.100000)"
fill="#000000" stroke="none">
<path d="M119 954 c-17 -5 -25 -69 -9 -79 13 -8 11 -173 -1 -181 -7 -4 -10
-52 -8 -123 4 -172 -13 -263 -60 -335 -19 -28 -19 -28 8 -72 14 -24 30 -44 34
-44 9 0 40 69 69 155 19 58 27 91 33 145 1 14 3 27 4 30 0 3 21 7 45 8 39 1
44 -1 45 -21 0 -12 3 -52 6 -90 2 -37 0 -78 -5 -91 -7 -20 -14 -23 -49 -20
-23 2 -41 0 -41 -4 1 -26 31 -87 46 -92 21 -8 92 15 116 37 15 13 18 12 32
-14 l15 -28 18 42 c10 24 22 43 26 43 4 0 24 -7 43 -15 20 -8 41 -12 46 -9 18
11 86 165 107 243 11 41 22 75 23 77 2 1 4 -21 4 -49 1 -29 5 -68 9 -88 4 -21
2 -45 -4 -57 -7 -14 -7 -28 1 -50 10 -27 9 -34 -7 -52 -11 -12 -29 -20 -44
-19 -59 4 -62 2 -47 -33 8 -18 17 -40 19 -48 6 -19 38 -19 92 -1 60 20 67 29
60 72 -4 21 -2 46 4 57 7 14 6 33 -6 70 -14 43 -14 56 -4 79 l13 28 33 -72
c36 -78 91 -163 105 -163 4 0 26 12 49 27 l40 26 -45 40 c-25 22 -65 73 -89
115 l-44 75 42 32 c23 18 57 40 75 49 38 20 39 26 10 53 -43 38 -48 37 -99
-13 l-48 -47 -12 29 c-13 35 -14 103 -1 116 6 6 32 11 59 13 89 4 82 -1 76 60
-3 31 -1 60 5 67 15 20 13 96 -4 113 -17 17 -124 21 -124 5 0 -6 -33 -10 -80
-10 -47 0 -80 4 -80 10 0 6 -18 10 -40 10 -22 0 -40 -5 -40 -11 0 -7 -21 -10
-60 -7 l-60 3 0 -57 c0 -32 4 -58 10 -58 6 0 10 -16 10 -35 0 -19 -5 -35 -11
-35 -6 0 -10 -28 -10 -72 0 -174 -15 -303 -42 -366 -12 -29 -13 -24 -14 61 -4
236 -4 299 1 397 4 58 4 119 1 136 l-5 31 -83 0 c-45 0 -95 2 -112 6 -16 3
-37 3 -46 1z m696 -123 l0 -47 -151 1 -150 0 0 45 1 45 150 1 150 1 0 -46z
m-549 25 c1 -1 4 -29 8 -63 l7 -62 -43 2 -43 2 0 66 0 67 35 -6 c19 -2 36 -5
36 -6z m389 -181 c11 -48 11 -85 0 -86 -5 -1 -39 -2 -75 -3 l-65 -1 0 60 0 60
67 0 c66 1 66 0 73 -30z m-381 -75 l1 -75 -40 0 -40 0 0 78 0 78 39 -3 39 -3
1 -75z m300 -117 c-8 -68 -62 -180 -104 -218 l-23 -20 8 25 c32 100 45 161 47
207 0 18 7 23 37 26 20 2 37 4 37 5 1 1 0 -10 -2 -25z"/>
</g>
</svg>
