<?xml version="1.0" standalone="no"?>
<!DOCTYPE svg PUBLIC "-//W3C//DTD SVG 20010904//EN"
 "http://www.w3.org/TR/2001/REC-SVG-20010904/DTD/svg10.dtd">
<svg version="1.0" xmlns="http://www.w3.org/2000/svg"
 width="101.000000pt" height="101.000000pt" viewBox="0 0 101.000000 101.000000"
 preserveAspectRatio="xMidYMid meet">
<metadata>
Created by potrace 1.16, written by Peter Selinger 2001-2019
</metadata>
<g transform="translate(0.000000,101.000000) scale(0.100000,-0.100000)"
fill="#000000" stroke="none">
<path d="M745 958 c-10 -29 -29 -77 -43 -105 l-23 -53 -50 0 c-59 0 -64 15 -9
31 l40 12 -31 56 c-51 96 -51 96 -104 81 -25 -7 -45 -15 -45 -19 0 -3 12 -23
26 -44 14 -21 32 -54 40 -73 l14 -34 -37 0 c-67 0 -68 -2 -68 -172 l0 -153 40
0 40 0 -2 -46 c-4 -74 -39 -153 -94 -212 l-49 -52 6 38 c4 24 2 37 -5 37 -7 0
-11 25 -11 70 0 40 4 70 10 70 6 0 10 40 10 100 0 60 -4 100 -10 100 -5 0 -10
11 -10 25 0 14 5 25 10 25 6 0 10 30 10 70 0 40 -4 70 -10 70 -5 0 -10 16 -10
35 0 19 5 35 10 35 6 0 10 26 10 59 0 51 -3 61 -20 66 -11 4 -34 -1 -52 -9
-33 -17 -70 -21 -82 -8 -4 4 -39 7 -77 7 -79 0 -81 -2 -74 -80 6 -67 7 -361 1
-455 -8 -137 -19 -189 -55 -239 l-19 -26 35 -39 c19 -20 36 -36 38 -34 8 10
44 89 55 123 16 46 18 61 25 130 11 114 0 101 95 108 39 2 36 9 45 -116 2 -37
0 -78 -5 -92 -9 -23 -13 -24 -61 -20 -46 4 -50 3 -44 -13 4 -9 13 -32 20 -51
7 -19 22 -38 34 -42 22 -9 84 12 112 38 15 13 21 11 51 -16 l35 -30 31 29 c75
68 131 200 135 318 2 31 6 41 15 37 8 -3 18 -5 23 -5 5 0 9 -16 9 -35 0 -19 5
-35 10 -35 15 0 12 -67 -2 -73 -10 -4 -10 -8 0 -15 10 -7 13 -32 11 -98 l-3
-88 32 -13 c24 -10 38 -11 53 -3 11 7 38 8 65 4 79 -11 114 15 129 100 6 29 4
36 -8 36 -9 0 -29 11 -45 25 l-30 25 -7 -38 c-9 -55 -19 -66 -65 -68 -36 -2
-43 1 -51 24 -5 14 -7 66 -4 116 3 50 6 100 6 111 1 18 8 20 64 18 l62 -2 1
64 c0 36 -4 67 -9 70 -12 8 -11 52 1 60 6 4 10 33 9 66 -2 53 -5 60 -25 65
-13 3 -28 2 -35 -2 -7 -4 -24 -8 -39 -8 l-27 -1 44 71 c24 39 50 77 58 84 23
19 19 26 -25 44 -65 26 -74 22 -95 -36z m-437 -144 l2 -72 -57 1 -58 2 0 70 0
70 55 1 55 1 3 -73z m470 -90 c21 -6 23 -11 20 -78 l-3 -71 -125 2 -125 2 -3
40 c-2 24 1 41 7 41 6 0 11 11 11 25 0 26 8 29 76 25 18 -1 35 3 39 9 7 12 66
14 103 5z m-473 -126 l0 -73 -58 0 -59 0 6 35 c3 19 6 49 6 67 0 31 1 32 53
36 28 2 52 4 52 5 0 1 0 -31 0 -70z"/>
</g>
</svg>
