<?xml version="1.0" standalone="no"?>
<!DOCTYPE svg PUBLIC "-//W3C//DTD SVG 20010904//EN"
 "http://www.w3.org/TR/2001/REC-SVG-20010904/DTD/svg10.dtd">
<svg version="1.0" xmlns="http://www.w3.org/2000/svg"
 width="101.000000pt" height="102.000000pt" viewBox="0 0 101.000000 102.000000"
 preserveAspectRatio="xMidYMid meet">
<metadata>
Created by potrace 1.16, written by Peter Selinger 2001-2019
</metadata>
<g transform="translate(0.000000,102.000000) scale(0.100000,-0.100000)"
fill="#000000" stroke="none">
<path d="M615 945 l2 -76 -38 6 c-26 4 -39 3 -39 -4 0 -6 -11 -11 -25 -11 -14
0 -25 5 -25 10 0 17 -90 12 -96 -5 -12 -30 -19 -14 -17 41 l2 56 -32 -6 c-67
-15 -137 -18 -149 -8 -7 5 -32 10 -55 10 l-43 1 0 -55 c0 -30 5 -54 10 -54 6
0 10 -16 10 -35 0 -19 -4 -35 -10 -35 -6 0 -10 -30 -10 -70 0 -40 4 -70 10
-70 6 0 10 -11 10 -25 0 -14 -5 -25 -11 -25 -6 0 -9 -31 -8 -87 4 -123 -9
-200 -46 -281 l-25 -54 32 -39 c17 -21 33 -39 35 -39 7 0 44 95 64 165 20 69
31 130 31 171 0 15 7 22 22 22 11 1 32 2 46 4 20 2 25 -2 28 -22 20 -193 4
-251 -65 -234 -24 6 -25 5 -19 -17 4 -13 9 -35 11 -49 1 -14 3 -27 4 -30 5
-22 127 15 145 43 16 24 20 113 6 122 -11 7 -12 153 0 160 12 8 12 213 0 220
-13 8 -13 52 0 60 6 3 10 27 10 53 0 27 4 42 8 34 6 -9 38 -11 126 -7 l117 5
-3 -38 -3 -37 -102 3 -101 4 4 -224 c2 -122 5 -245 6 -273 1 -27 -1 -64 -5
-81 -7 -35 9 -46 55 -37 24 5 25 8 26 91 1 127 1 130 26 131 11 0 35 2 51 3
24 2 30 -1 31 -17 0 -11 4 -32 8 -48 5 -18 3 -40 -7 -65 -20 -49 -9 -66 38
-65 20 1 39 3 42 6 2 3 -1 30 -7 60 -9 40 -10 59 -1 75 6 11 8 27 5 35 -4 10
2 15 18 16 13 0 39 2 58 3 31 3 35 0 37 -22 1 -14 5 -36 8 -50 4 -14 2 -37 -4
-51 -8 -24 -14 -26 -51 -23 -30 3 -40 0 -36 -9 2 -6 10 -29 17 -49 14 -42 34
-51 87 -35 59 17 62 22 55 88 -3 35 -2 64 5 71 12 16 14 96 1 103 -11 7 -10
173 1 180 4 3 8 31 9 62 0 32 1 65 2 73 6 44 3 45 -104 45 l-102 0 3 33 c3 26
9 32 28 32 13 0 24 5 24 10 0 13 125 13 174 -1 46 -13 60 -1 51 46 -7 38 -20
45 -78 43 -52 -1 -70 6 -38 17 12 3 21 12 21 19 0 15 -61 96 -73 96 -11 0 -67
-29 -67 -35 0 -3 14 -24 30 -47 17 -22 30 -44 30 -48 0 -4 -24 -7 -54 -6 -51
1 -53 2 -49 26 2 14 5 45 6 70 l2 45 -46 3 -46 3 2 -76z m-330 -134 l0 -66
-45 0 -45 0 0 65 0 65 45 1 45 0 0 -65z m0 -221 c0 -74 0 -75 -25 -72 -14 2
-36 3 -48 4 -19 0 -23 4 -18 22 3 11 6 44 6 71 l0 50 43 0 42 0 0 -75z m331 3
c-1 -47 -2 -48 -31 -45 -16 1 -40 3 -52 3 -19 1 -22 6 -20 40 1 37 2 38 42 42
22 2 45 4 51 5 6 1 10 -16 10 -45z m190 -3 l-1 -45 -35 3 c-19 1 -45 3 -57 3
-20 1 -22 6 -21 43 l2 41 56 0 57 0 -1 -45z m-191 -155 c0 -50 0 -50 -30 -47
-16 1 -40 3 -52 3 -20 1 -22 6 -21 45 2 34 6 43 18 39 8 -2 22 0 30 5 8 6 24
9 35 8 17 -3 20 -11 20 -53z m190 0 l0 -50 -35 3 c-19 1 -45 3 -57 3 -20 1
-22 6 -21 45 2 34 6 43 18 39 8 -2 22 0 30 5 8 6 26 9 40 8 23 -3 25 -7 25
-53z"/>
</g>
</svg>
