<?xml version="1.0" standalone="no"?>
<!DOCTYPE svg PUBLIC "-//W3C//DTD SVG 20010904//EN"
 "http://www.w3.org/TR/2001/REC-SVG-20010904/DTD/svg10.dtd">
<svg version="1.0" xmlns="http://www.w3.org/2000/svg"
 width="101.000000pt" height="102.000000pt" viewBox="0 0 101.000000 102.000000"
 preserveAspectRatio="xMidYMid meet">
<metadata>
Created by potrace 1.16, written by Peter Selinger 2001-2019
</metadata>
<g transform="translate(0.000000,102.000000) scale(0.100000,-0.100000)"
fill="#000000" stroke="none">
<path d="M633 1013 c-27 -5 -27 -2 -8 -46 8 -20 15 -38 15 -39 0 -2 -51 -2
-112 0 -137 3 -154 0 -162 -34 -12 -45 0 -62 42 -62 69 0 71 -1 67 -23 -12
-63 -69 -189 -115 -254 l-21 -30 7 133 c5 95 3 132 -5 132 -6 0 -11 16 -11 35
0 19 5 35 11 35 6 0 9 19 7 48 l-3 47 -68 -3 c-37 -2 -73 1 -80 6 -19 16 -95
13 -112 -4 -17 -17 -20 -50 -5 -59 12 -7 12 -173 -1 -180 -12 -8 -12 -142 1
-150 13 -8 13 -52 -1 -60 -6 -4 -9 -39 -8 -88 3 -93 -2 -128 -29 -207 l-19
-56 32 -38 c30 -36 33 -38 43 -20 11 20 39 119 48 169 5 26 9 68 15 171 1 15
8 22 23 22 11 1 32 2 46 4 28 3 27 7 35 -124 7 -102 -3 -126 -49 -125 -46 1
-51 -5 -32 -42 9 -16 16 -37 16 -46 0 -17 20 -19 71 -5 60 17 64 27 66 189 2
214 2 215 26 146 l14 -39 27 47 c15 26 29 47 31 47 2 0 3 -10 4 -22 0 -13 3
-54 6 -93 3 -38 1 -121 -5 -184 -5 -63 -7 -117 -4 -120 6 -7 74 -4 81 3 4 3 6
20 6 38 l0 31 28 -31 28 -31 38 26 c21 14 55 41 76 59 20 19 40 34 43 34 3 0
24 -15 47 -34 53 -42 126 -90 130 -85 29 37 57 77 57 82 0 3 -28 18 -62 35
-35 16 -74 38 -87 49 l-23 19 26 51 c23 46 71 193 81 248 2 11 7 34 10 50 13
65 11 80 -10 77 -52 -8 -195 -14 -195 -7 0 12 34 65 42 65 21 0 5 29 -19 35
-79 22 -91 16 -99 -49 -4 -30 -81 -199 -108 -237 -14 -21 -15 -16 -11 70 4 91
16 129 63 183 18 22 9 35 -29 43 l-31 7 27 14 c31 16 61 18 69 5 8 -12 114
-13 121 -1 7 12 120 12 187 1 42 -7 48 -5 54 11 3 11 3 30 0 43 -5 21 -13 24
-91 30 -48 4 -102 5 -121 2 -33 -6 -39 -1 -35 29 1 7 -3 24 -9 38 -10 26 -28
30 -87 19z m-376 -204 l3 -70 -48 7 c-26 3 -48 7 -49 8 -1 1 1 27 4 58 l6 57
41 4 c22 2 41 4 41 5 0 1 1 -30 2 -69z m-2 -209 c0 -74 0 -75 -25 -72 -14 2
-36 3 -49 3 -22 1 -23 4 -17 46 3 25 6 58 6 72 0 24 3 26 43 26 l42 0 0 -75z
m552 25 c19 -15 -13 -169 -49 -239 l-20 -40 -19 35 c-44 82 -63 181 -46 235 6
18 13 20 70 16 34 -2 63 -5 64 -7z m-148 -293 c26 -51 23 -56 -47 -100 -75
-48 -88 -49 -101 -9 -7 20 -9 68 -6 118 3 46 5 95 6 109 1 24 1 24 28 -8 l27
-33 18 38 18 38 17 -55 c10 -30 28 -74 40 -98z"/>
<path d="M686 602 c-2 -4 -3 -21 0 -37 2 -17 6 -45 8 -63 6 -44 7 -45 51 -36
36 6 37 7 32 48 -7 49 -17 78 -31 88 -15 10 -54 10 -60 0z"/>
</g>
</svg>
