<?xml version="1.0" standalone="no"?>
<!DOCTYPE svg PUBLIC "-//W3C//DTD SVG 20010904//EN"
 "http://www.w3.org/TR/2001/REC-SVG-20010904/DTD/svg10.dtd">
<svg version="1.0" xmlns="http://www.w3.org/2000/svg"
 width="101.000000pt" height="102.000000pt" viewBox="0 0 101.000000 102.000000"
 preserveAspectRatio="xMidYMid meet">
<metadata>
Created by potrace 1.16, written by Peter Selinger 2001-2019
</metadata>
<g transform="translate(0.000000,102.000000) scale(0.100000,-0.100000)"
fill="#000000" stroke="none">
<path d="M603 973 l3 -48 -108 1 c-92 1 -108 -2 -109 -15 -1 -9 -4 0 -8 19 -3
19 -10 35 -16 35 -5 -1 -47 -4 -93 -9 -54 -5 -87 -5 -95 2 -7 6 -27 10 -45 10
-35 -1 -48 -23 -36 -60 4 -13 6 -62 5 -110 0 -49 3 -89 9 -93 13 -8 13 -52 1
-60 -5 -3 -9 -36 -9 -74 0 -38 -2 -73 -6 -79 -3 -6 -1 -22 6 -37 9 -21 9 -31
-1 -46 -6 -11 -14 -37 -17 -57 -8 -60 -24 -115 -49 -160 l-24 -43 45 -22 c39
-18 46 -19 54 -7 10 16 52 134 57 160 6 33 15 96 16 120 2 21 7 24 48 27 53 4
51 9 49 -111 0 -39 -5 -75 -11 -82 -6 -7 -25 -10 -50 -8 l-40 5 16 -30 c8 -17
15 -34 14 -38 -6 -36 23 -46 81 -29 67 20 69 24 70 186 1 80 -1 180 -5 222 -4
51 -3 83 5 95 10 17 11 16 6 -2 -12 -44 15 -54 104 -40 73 12 397 6 435 -7 30
-11 47 5 48 45 1 46 -3 49 -39 37 -16 -6 -63 -8 -104 -5 -41 3 -84 6 -95 6
-13 1 -20 9 -21 23 -1 19 3 21 50 19 28 0 56 3 63 9 7 6 29 7 52 3 34 -6 40
-4 46 14 16 51 -25 82 -82 65 -16 -5 -49 -8 -75 -6 -40 3 -48 6 -48 23 0 14 7
19 25 19 14 0 25 5 25 10 0 16 84 12 118 -6 53 -26 92 3 78 59 -5 21 -10 22
-129 22 -135 0 -133 -1 -113 63 5 16 1 21 -25 26 -17 3 -42 6 -55 6 -22 0 -23
-3 -21 -47z m-326 -166 l3 -72 -43 3 -42 4 0 61 0 62 40 6 c22 3 40 7 40 7 0
1 1 -31 2 -71z m198 36 c44 -1 90 -2 101 -2 14 -1 23 -9 26 -23 4 -22 1 -23
-51 -22 -31 0 -66 4 -78 8 -48 15 -84 -24 -68 -74 6 -18 15 -19 104 -15 l99 5
-2 -25 c-1 -20 -8 -26 -31 -30 -44 -7 -190 6 -202 18 -7 8 -11 165 -4 186 3
10 7 9 15 -5 9 -16 25 -19 91 -21z m-199 -209 c-3 -8 -1 -24 5 -35 6 -12 8
-37 4 -59 -7 -39 -7 -39 -50 -38 -42 2 -44 4 -50 39 -4 21 -2 47 4 58 6 11 9
26 6 33 -4 10 7 14 41 16 38 1 45 -1 40 -14z"/>
<path d="M448 553 c-18 -4 -24 -22 -19 -53 15 -88 15 -228 1 -265 -7 -18 -7
-33 1 -46 6 -12 8 -37 4 -58 -7 -43 5 -52 62 -44 30 5 30 5 20 44 -7 28 -6 47
1 64 6 14 9 31 6 39 -4 9 2 14 18 15 13 0 57 3 98 6 41 3 90 3 108 0 28 -5 32
-9 27 -32 -6 -34 -20 -42 -62 -36 -32 5 -46 -8 -23 -22 5 -3 13 -20 18 -37 10
-38 34 -42 101 -18 l46 16 1 170 c0 93 4 188 7 210 l6 41 -47 5 c-26 3 -67 4
-92 1 -69 -7 -233 -8 -250 -1 -8 3 -23 4 -32 1z m303 -69 c21 -4 26 -11 25
-30 -1 -30 -31 -37 -136 -29 -41 3 -84 6 -95 6 -14 1 -20 9 -21 26 -2 18 2 22
15 19 9 -3 22 -2 30 3 15 10 143 13 182 5z m0 -110 c21 -4 26 -11 25 -30 -1
-30 -31 -37 -136 -29 -41 3 -84 6 -95 6 -14 1 -20 9 -21 26 -2 18 2 22 15 19
9 -3 22 -2 30 3 15 10 143 13 182 5z"/>
</g>
</svg>
