<?xml version="1.0" standalone="no"?>
<!DOCTYPE svg PUBLIC "-//W3C//DTD SVG 20010904//EN"
 "http://www.w3.org/TR/2001/REC-SVG-20010904/DTD/svg10.dtd">
<svg version="1.0" xmlns="http://www.w3.org/2000/svg"
 width="101.000000pt" height="102.000000pt" viewBox="0 0 101.000000 102.000000"
 preserveAspectRatio="xMidYMid meet">
<metadata>
Created by potrace 1.16, written by Peter Selinger 2001-2019
</metadata>
<g transform="translate(0.000000,102.000000) scale(0.100000,-0.100000)"
fill="#000000" stroke="none">
<path d="M655 973 l0 -47 -41 2 c-28 2 -47 -2 -58 -13 -9 -9 -16 -12 -16 -7 0
5 -30 11 -67 11 -134 4 -143 5 -143 18 0 16 -44 28 -67 18 -23 -10 -71 -10
-107 -1 -15 4 -36 4 -46 1 -18 -6 -19 -19 -16 -218 2 -117 0 -222 -5 -234 -4
-12 -3 -34 3 -51 9 -24 8 -36 -5 -65 -10 -20 -16 -39 -15 -44 4 -16 -14 -88
-32 -124 l-19 -36 24 -34 c14 -18 25 -39 25 -46 0 -60 64 78 86 187 6 26 16
104 18 130 1 20 7 24 37 26 32 2 37 0 38 -19 0 -12 3 -54 6 -94 6 -93 -3 -117
-44 -119 -18 -1 -34 -4 -36 -6 -3 -2 3 -24 13 -49 12 -32 22 -44 37 -43 43 1
78 18 95 46 l17 29 17 -41 c19 -48 28 -45 72 25 l27 42 35 -24 c52 -35 175
-68 237 -63 11 1 62 2 113 3 59 0 92 5 92 12 0 6 8 27 19 47 18 36 18 37 -1
41 -11 3 -36 0 -56 -7 -44 -15 -132 -18 -152 -6 -11 7 -12 10 -2 10 8 0 11 7
8 18 -18 62 -19 75 -3 69 8 -3 29 -1 46 6 24 9 36 9 51 -1 46 -28 78 2 62 60
-4 16 -10 18 -31 12 -23 -7 -53 -8 -116 -3 -14 1 -20 9 -21 26 -2 17 2 23 12
19 8 -3 26 0 40 6 19 9 33 9 57 0 17 -6 33 -10 35 -8 6 6 7 74 1 80 -8 8 -81
10 -116 3 -30 -7 -31 -6 -30 28 1 25 5 34 14 31 7 -3 25 0 39 6 19 9 30 9 45
0 36 -23 46 -15 47 36 1 93 0 91 42 87 34 -3 38 -1 43 22 10 54 -7 70 -73 65
-11 -1 -14 9 -12 41 4 72 3 80 -10 88 -16 10 -62 12 -71 2 -4 -3 -19 -7 -35
-7 -24 -1 -27 2 -25 29 0 17 4 37 8 46 5 12 -2 18 -26 23 -61 12 -64 10 -64
-41z m-74 -138 c15 -4 36 -2 47 4 16 9 18 6 18 -23 -1 -28 -4 -33 -21 -30 -11
2 -33 6 -50 9 -40 7 -58 -7 -58 -44 0 -46 0 -46 92 -39 33 3 35 2 37 -34 3
-36 3 -36 -28 -27 -23 6 -40 4 -64 -7 -24 -12 -37 -13 -52 -5 -12 6 -27 8 -35
5 -11 -4 -5 21 20 88 35 92 40 108 43 138 1 10 5 8 12 -7 6 -12 23 -25 39 -28z
m-323 -32 l-3 -68 -40 0 c-39 0 -40 1 -43 38 -2 21 1 37 7 37 6 0 11 11 11 24
0 18 7 26 23 29 49 9 48 10 45 -60z m177 20 c-14 -66 -69 -179 -92 -187 -10
-4 -13 9 -13 58 0 35 3 78 6 95 6 27 11 31 38 31 17 0 38 5 46 10 20 13 19 13
15 -7z m361 -14 c-1 -23 -5 -27 -31 -26 -27 1 -31 4 -27 26 3 21 9 26 31 26
24 0 28 -4 27 -26z m1 -134 c1 -31 -1 -33 -32 -32 -30 1 -33 3 -32 32 1 28 4
31 32 32 29 1 31 -2 32 -32z m-551 -32 c-3 -8 -1 -23 5 -34 6 -12 8 -37 4 -59
-6 -35 -9 -38 -40 -37 -31 1 -34 4 -40 38 -4 21 -2 47 4 58 6 11 9 26 6 33 -4
10 4 14 30 15 28 1 35 -2 31 -14z m401 -96 c1 -32 -1 -33 -31 -30 -17 2 -41 4
-53 5 -18 0 -23 6 -23 25 0 21 4 24 23 20 12 -3 31 -1 42 3 34 15 41 11 42
-23z m-297 7 c0 -11 5 -14 18 -9 9 4 26 9 37 11 11 2 31 6 44 10 22 7 23 5 16
-22 -4 -16 -9 -40 -10 -54 -4 -34 -15 -94 -19 -98 -2 -1 -9 18 -15 44 l-12 46
-39 -6 c-36 -6 -39 -4 -45 24 -7 33 1 70 16 70 5 0 9 -7 9 -16z m245 -118 l54
5 -3 -28 c-3 -31 -24 -40 -54 -24 -41 22 -78 -11 -65 -59 4 -16 12 -18 42 -15
86 11 86 11 83 -10 -2 -11 -4 -34 -5 -52 -2 -29 -5 -32 -27 -26 -41 9 -104 39
-117 54 -10 12 -9 26 3 65 9 27 17 58 19 69 7 49 7 51 12 33 3 -13 14 -16 58
-12z m-199 -142 c3 -7 -9 -29 -27 -49 -31 -35 -33 -36 -41 -16 -10 29 -8 152
4 175 9 16 14 10 35 -40 13 -33 26 -64 29 -70z"/>
</g>
</svg>
