<?xml version="1.0" standalone="no"?>
<!DOCTYPE svg PUBLIC "-//W3C//DTD SVG 20010904//EN"
 "http://www.w3.org/TR/2001/REC-SVG-20010904/DTD/svg10.dtd">
<svg version="1.0" xmlns="http://www.w3.org/2000/svg"
 width="101.000000pt" height="101.000000pt" viewBox="0 0 101.000000 101.000000"
 preserveAspectRatio="xMidYMid meet">
<metadata>
Created by potrace 1.16, written by Peter Selinger 2001-2019
</metadata>
<g transform="translate(0.000000,101.000000) scale(0.100000,-0.100000)"
fill="#000000" stroke="none">
<path d="M600 1000 c0 -5 5 -10 10 -10 6 0 10 -25 10 -55 0 -61 -18 -75 -38
-30 -11 24 -16 25 -59 21 -27 -3 -61 -8 -76 -12 l-29 -7 3 -211 c1 -116 1
-215 0 -221 -10 -33 26 -53 61 -34 11 6 39 7 64 3 50 -7 51 -10 11 -93 -29
-62 -72 -108 -128 -137 -27 -13 -51 -24 -53 -24 -3 0 -5 19 -5 43 -1 61 -1
203 -1 345 1 182 1 190 3 280 2 89 -9 110 -45 91 -17 -9 -181 -5 -197 5 -4 3
-16 -1 -26 -8 -14 -10 -16 -19 -10 -42 4 -16 7 -53 6 -83 0 -30 4 -60 10 -68
14 -16 6 -193 -10 -236 -7 -19 -7 -34 1 -51 8 -19 7 -37 -2 -73 -7 -26 -14
-57 -15 -68 -8 -54 -16 -80 -35 -119 l-21 -43 37 -37 c20 -20 38 -36 40 -36 6
0 33 70 49 129 19 69 35 151 36 191 0 11 13 16 44 18 49 2 45 13 48 -131 2
-95 -6 -112 -50 -102 -27 6 -28 3 -7 -52 15 -39 19 -42 48 -38 17 2 35 4 39 4
5 1 22 15 38 32 l28 30 29 -40 30 -41 61 45 c67 49 125 128 151 205 l17 50 28
-66 c31 -73 111 -168 167 -198 l34 -18 40 41 41 40 -51 25 c-77 38 -156 123
-186 200 -10 26 -8 27 96 27 l51 0 -5 79 c-3 49 0 85 6 93 13 15 14 115 1 123
-12 7 -11 51 1 59 6 4 10 34 9 68 l-2 62 -88 3 c-87 2 -89 2 -95 -23 -14 -57
23 -98 67 -74 10 5 19 9 21 9 2 0 3 -28 3 -63 l0 -62 -31 3 c-49 6 -80 -38
-54 -78 6 -9 23 -14 50 -13 32 2 40 -1 36 -12 -2 -7 0 -27 6 -43 16 -42 -4
-66 -46 -57 -17 3 -41 6 -53 7 -21 0 -22 3 -17 78 3 49 1 81 -6 85 -13 8 -13
52 0 60 6 4 10 43 10 88 0 89 4 133 15 160 6 15 0 17 -54 17 -34 0 -61 -4 -61
-10z m-312 -206 l-3 -66 -48 -2 -49 -2 6 29 c3 16 6 44 6 63 0 28 4 33 28 37
66 10 63 13 60 -59z m312 29 c0 -13 5 -23 10 -23 6 0 10 -33 10 -80 0 -49 -4
-80 -11 -80 -6 0 -9 -23 -8 -60 3 -68 -8 -86 -42 -74 -13 5 -33 9 -44 9 -17 0
-20 6 -17 35 1 19 3 45 3 57 1 14 7 22 18 21 66 -5 87 11 75 57 -7 27 -40 43
-57 26 -26 -26 -34 -10 -33 62 l1 72 47 0 c43 0 48 -2 48 -22z m-324 -189 c-3
-8 -1 -24 5 -35 6 -12 8 -37 4 -59 -7 -39 -7 -39 -50 -38 -42 2 -44 4 -50 39
-4 21 -2 47 4 58 6 11 9 26 6 33 -4 10 7 14 41 16 38 1 45 -1 40 -14z"/>
</g>
</svg>
