<?xml version="1.0" standalone="no"?>
<!DOCTYPE svg PUBLIC "-//W3C//DTD SVG 20010904//EN"
 "http://www.w3.org/TR/2001/REC-SVG-20010904/DTD/svg10.dtd">
<svg version="1.0" xmlns="http://www.w3.org/2000/svg"
 width="101.000000pt" height="101.000000pt" viewBox="0 0 101.000000 101.000000"
 preserveAspectRatio="xMidYMid meet">
<metadata>
Created by potrace 1.16, written by Peter Selinger 2001-2019
</metadata>
<g transform="translate(0.000000,101.000000) scale(0.100000,-0.100000)"
fill="#000000" stroke="none">
<path d="M120 962 c-18 -8 -26 -107 -10 -117 13 -8 11 -173 -2 -181 -6 -4 -9
-47 -7 -108 3 -149 -8 -219 -47 -307 l-26 -56 29 -41 c15 -23 32 -41 36 -42
22 -1 96 243 99 325 0 17 8 21 43 23 49 2 45 13 48 -131 2 -99 -5 -111 -62
-100 -26 4 -32 3 -28 -8 3 -8 12 -33 18 -56 12 -40 14 -42 49 -39 52 4 93 27
101 56 7 23 7 24 8 3 1 -20 5 -22 44 -17 52 7 214 8 282 1 28 -3 64 -1 82 5
22 8 53 8 109 0 43 -6 80 -9 82 -7 7 6 6 74 0 81 -4 3 -23 6 -42 7 -32 1 -36
4 -41 31 -7 44 4 168 19 221 11 36 -4 45 -52 32 -36 -9 -45 -9 -53 3 -8 11
-12 12 -16 3 -6 -15 -73 -18 -73 -3 0 6 -18 10 -40 10 -22 0 -40 -4 -40 -10 0
-5 -16 -10 -35 -10 -19 0 -35 5 -35 10 0 6 -32 10 -75 10 l-75 0 0 -60 c0 -33
4 -60 10 -60 15 0 12 -67 -2 -73 -10 -4 -10 -8 1 -15 9 -7 11 -21 7 -48 -6
-32 -11 -39 -31 -40 -23 -2 -25 2 -26 45 -1 25 -3 60 -5 76 -6 46 -1 521 6
550 7 30 -2 33 -88 32 -48 0 -100 3 -117 6 -16 4 -37 3 -45 -1z m157 -147 l2
-65 -42 6 c-23 4 -43 7 -43 8 -1 1 0 24 3 53 5 51 6 52 42 56 20 2 36 4 36 5
0 1 1 -27 2 -63z m-2 -205 l0 -65 -43 0 -44 -1 6 36 c3 19 6 49 6 65 0 28 3
30 38 30 l37 0 0 -65z m284 -165 c1 -11 3 -45 6 -75 2 -30 2 -69 -1 -87 -4
-28 -8 -31 -39 -30 -31 1 -35 4 -40 31 -2 17 -2 56 0 86 3 30 5 64 6 76 2 29
66 29 68 -1z m120 0 c1 -11 3 -45 6 -75 2 -30 2 -69 0 -86 -5 -26 -10 -31 -35
-31 -25 0 -30 5 -35 31 -2 17 -2 56 0 86 3 30 5 64 6 75 1 15 9 20 29 20 20 0
28 -5 29 -20z m140 1 c1 -11 3 -46 6 -76 2 -30 2 -69 -1 -87 -4 -28 -8 -31
-39 -30 -31 1 -35 4 -40 31 -2 17 -2 56 0 86 3 30 5 64 6 76 1 16 8 20 34 21
27 1 33 -3 34 -21z"/>
<path d="M793 960 c-40 -16 -143 -24 -143 -11 0 9 -28 11 -99 9 l-100 -3 1
-177 2 -177 25 -5 c31 -7 350 -7 371 -1 13 4 15 34 17 182 2 181 -1 193 -37
192 -8 0 -25 -4 -37 -9z m-33 -78 c8 -4 15 -18 15 -32 l0 -25 -115 0 -115 0 0
25 c0 24 2 25 48 21 27 -1 54 2 60 8 12 12 83 14 107 3z m10 -162 l6 -35 -120
1 -121 1 -3 30 -3 30 65 -4 c40 -3 67 0 71 7 4 6 27 10 53 8 45 -3 47 -4 52
-38z"/>
</g>
</svg>
