<?xml version="1.0" standalone="no"?>
<!DOCTYPE svg PUBLIC "-//W3C//DTD SVG 20010904//EN"
 "http://www.w3.org/TR/2001/REC-SVG-20010904/DTD/svg10.dtd">
<svg version="1.0" xmlns="http://www.w3.org/2000/svg"
 width="101.000000pt" height="103.000000pt" viewBox="0 0 101.000000 103.000000"
 preserveAspectRatio="xMidYMid meet">
<metadata>
Created by potrace 1.16, written by Peter Selinger 2001-2019
</metadata>
<g transform="translate(0.000000,103.000000) scale(0.100000,-0.100000)"
fill="#000000" stroke="none">
<path d="M464 1017 c-39 -13 -38 -12 -19 -41 16 -25 16 -25 -9 -32 -14 -3 -43
-3 -64 0 -69 12 -260 16 -286 6 -44 -16 -31 -82 15 -81 13 0 79 0 146 0 72 0
124 5 128 11 8 13 52 13 60 0 8 -13 206 -12 222 1 13 11 159 7 219 -6 28 -6
32 -4 38 20 10 38 -2 68 -22 60 -30 -13 -212 -17 -226 -6 -6 5 -34 9 -61 8
-49 -2 -49 -1 -58 36 -10 40 -22 43 -83 24z"/>
<path d="M717 851 c-10 -4 -57 -5 -104 -4 -47 2 -91 -1 -97 -6 -15 -13 -153
-13 -161 -1 -9 14 -138 10 -147 -4 -11 -16 -10 -95 2 -117 11 -20 70 -28 70
-9 0 6 32 10 75 10 43 0 75 -4 75 -10 0 -15 137 -13 142 2 3 8 28 9 96 2 82
-8 93 -8 97 7 3 9 1 27 -4 41 -5 15 -6 30 0 39 20 32 -7 63 -44 50z m-51 -71
c0 -14 -12 -19 -66 -24 -97 -9 -168 -7 -175 4 -4 6 -32 9 -64 8 -45 -3 -57 0
-57 12 0 13 27 15 181 17 167 1 181 0 181 -17z"/>
<path d="M220 679 c0 -7 -28 -9 -80 -7 l-80 3 4 -43 c2 -23 -1 -45 -5 -48 -29
-17 9 -64 51 -64 41 0 63 26 57 67 l-6 33 292 0 c161 0 309 3 329 6 34 6 36 5
31 -15 -11 -41 5 -70 41 -77 65 -12 74 -2 73 78 l-2 71 -237 4 c-169 4 -238 2
-238 -6 0 -6 -19 -11 -45 -11 -25 0 -45 5 -45 10 0 6 -30 10 -70 10 -43 0 -70
-4 -70 -11z"/>
<path d="M211 577 c0 -12 3 -46 5 -75 l5 -52 47 6 c26 3 90 6 142 6 52 -1 123
-1 158 -1 34 0 81 0 105 2 23 1 52 -2 64 -6 20 -7 22 -4 28 37 4 24 4 57 1 73
l-7 28 -274 2 -274 2 0 -22z m243 -39 c5 -10 7 -10 12 0 4 8 29 12 74 12 94 0
129 -8 127 -30 -1 -15 -15 -18 -112 -23 -60 -3 -132 -4 -160 -2 -27 3 -60 5
-72 6 -42 2 -26 29 17 29 22 0 40 5 40 10 0 15 67 12 74 -2z"/>
<path d="M199 433 c-21 -5 -31 -41 -18 -64 10 -20 5 -242 -6 -272 -8 -19 4
-22 65 -17 34 2 53 16 44 32 -3 5 -7 26 -9 47 -4 45 -15 42 145 42 303 -1 290
0 290 -17 0 -11 -8 -15 -27 -13 -60 5 -65 2 -47 -26 8 -13 13 -28 11 -33 -11
-16 12 -35 40 -35 16 0 47 8 69 19 l39 19 1 110 c1 61 4 131 8 156 7 57 -4 65
-69 42 -29 -9 -58 -13 -78 -8 -18 4 -59 6 -92 5 -201 -4 -280 -1 -330 12 -11
3 -27 4 -36 1z m418 -63 c85 0 92 -2 90 -20 -1 -21 18 -20 -287 -21 -144 0
-146 0 -147 23 -1 14 3 17 15 14 9 -3 24 -1 32 4 8 5 57 7 110 4 52 -2 136 -4
187 -4z m1 -90 c74 0 92 -3 92 -15 0 -15 10 -15 -290 -16 -143 0 -150 1 -150
18 0 9 6 12 18 9 9 -3 24 -1 32 4 8 5 57 7 110 4 52 -2 137 -4 188 -4z"/>
</g>
</svg>
