<?xml version="1.0" standalone="no"?>
<!DOCTYPE svg PUBLIC "-//W3C//DTD SVG 20010904//EN"
 "http://www.w3.org/TR/2001/REC-SVG-20010904/DTD/svg10.dtd">
<svg version="1.0" xmlns="http://www.w3.org/2000/svg"
 width="101.000000pt" height="101.000000pt" viewBox="0 0 101.000000 101.000000"
 preserveAspectRatio="xMidYMid meet">
<metadata>
Created by potrace 1.16, written by Peter Selinger 2001-2019
</metadata>
<g transform="translate(0.000000,101.000000) scale(0.100000,-0.100000)"
fill="#000000" stroke="none">
<path d="M616 999 c3 -6 3 -52 -1 -102 l-7 -92 -43 0 c-59 1 -64 9 -14 24 39
12 40 13 25 34 -8 12 -28 41 -43 64 -31 48 -35 49 -80 25 l-32 -17 39 -63 c22
-34 36 -62 32 -63 -4 0 -29 -2 -55 -3 -29 -1 -52 -7 -58 -16 -14 -21 -3 -151
13 -162 7 -5 27 -7 44 -4 l32 4 6 -59 c4 -32 4 -74 1 -92 -6 -29 -4 -35 15
-40 12 -3 32 -1 45 5 13 6 34 8 48 4 21 -5 24 -11 23 -48 -1 -43 -1 -43 -36
-41 -19 1 -46 5 -60 7 -70 13 -86 11 -93 -14 -12 -48 24 -81 64 -59 10 5 42 6
72 3 l53 -6 1 -39 c2 -36 0 -39 -30 -42 -60 -8 -108 -7 -126 2 -41 23 -74 -9
-64 -61 4 -21 9 -24 36 -20 18 2 75 4 127 3 52 0 123 0 158 0 34 0 86 1 115 2
28 1 64 -1 78 -5 23 -7 27 -4 32 18 10 56 4 60 -96 62 -144 1 -136 -1 -134 42
1 43 -1 42 113 40 64 -1 72 1 77 20 7 28 -2 57 -20 64 -8 3 -31 -1 -50 -11
-29 -13 -41 -14 -65 -5 -16 6 -36 8 -44 5 -11 -4 -13 5 -12 40 2 45 3 45 33
41 45 -6 57 -7 87 -6 26 2 26 3 33 96 l7 94 32 -5 c23 -3 38 0 49 12 18 18 23
50 8 59 -5 3 -6 21 -2 38 12 56 4 68 -42 69 -23 1 -55 4 -72 8 l-30 6 53 56
c40 43 49 59 40 66 -18 14 -79 45 -82 41 -1 -2 -17 -26 -35 -55 -17 -28 -39
-57 -47 -64 -13 -11 -11 -15 18 -30 18 -10 29 -19 23 -19 -5 -1 -24 -2 -40 -3
l-31 -2 2 85 c2 47 6 93 9 103 6 15 0 17 -50 17 -38 0 -54 -4 -49 -11z m152
-266 l82 -6 0 -33 0 -33 -197 4 -198 4 -3 29 -3 29 65 -4 c38 -3 67 0 71 6 7
12 63 14 183 4z m-31 -139 c25 -5 29 -10 30 -44 2 -35 -1 -39 -25 -44 -15 -3
-52 -3 -82 -1 -30 3 -65 5 -77 6 -19 1 -22 7 -20 38 l1 36 53 -2 c29 -1 55 3
58 8 7 10 21 11 62 3z"/>
<path d="M96 957 c-15 -11 -17 -20 -12 -43 11 -42 15 -435 5 -462 -5 -13 -4
-32 3 -48 9 -20 9 -30 -1 -46 -7 -11 -15 -39 -17 -61 -3 -23 -16 -67 -30 -98
l-25 -55 35 -39 35 -38 21 47 c19 45 51 144 56 176 9 52 16 108 16 125 0 17 7
21 43 23 49 2 45 14 48 -136 2 -103 -2 -111 -59 -106 -40 3 -40 1 -14 -51 25
-48 49 -59 93 -40 59 25 57 16 57 250 0 50 0 145 0 213 1 67 1 137 1 155 0 17
1 78 3 133 l4 102 -39 6 c-22 4 -47 3 -57 -2 -19 -9 -48 -8 -107 2 -28 5 -46
3 -59 -7z m164 -122 c0 -12 3 -42 6 -66 l6 -44 -44 0 -45 0 1 70 1 70 38 -4
c31 -3 37 -7 37 -26z m6 -257 l1 -67 -41 1 -41 2 0 66 0 65 40 0 40 0 1 -67z"/>
</g>
</svg>
