<?xml version="1.0" standalone="no"?>
<!DOCTYPE svg PUBLIC "-//W3C//DTD SVG 20010904//EN"
 "http://www.w3.org/TR/2001/REC-SVG-20010904/DTD/svg10.dtd">
<svg version="1.0" xmlns="http://www.w3.org/2000/svg"
 width="101.000000pt" height="102.000000pt" viewBox="0 0 101.000000 102.000000"
 preserveAspectRatio="xMidYMid meet">
<metadata>
Created by potrace 1.16, written by Peter Selinger 2001-2019
</metadata>
<g transform="translate(0.000000,102.000000) scale(0.100000,-0.100000)"
fill="#000000" stroke="none">
<path d="M524 985 c-3 -19 -4 -44 -1 -54 4 -16 1 -18 -17 -14 -86 21 -121 15
-130 -23 -14 -54 -2 -63 78 -61 l72 2 0 -30 c-1 -28 -3 -30 -43 -30 -48 -1
-55 -5 -54 -37 6 -110 6 -186 0 -203 -3 -11 -4 -34 -2 -52 6 -35 34 -49 65
-32 10 5 40 7 68 3 46 -6 50 -8 45 -32 -2 -13 -7 -27 -10 -31 -6 -5 -107 -6
-183 0 -13 0 -26 -2 -29 -5 -8 -8 -8 -64 0 -72 10 -11 56 -7 153 12 47 9 48
-8 5 -57 -36 -41 -85 -72 -155 -99 l-29 -11 34 -37 c19 -20 35 -39 36 -41 1
-2 24 9 50 25 69 40 139 109 164 161 l22 45 12 -36 c21 -59 61 -102 126 -135
34 -17 69 -31 78 -31 9 0 25 19 37 45 22 49 20 53 -38 60 -36 5 -87 32 -120
63 -30 28 -37 48 -14 39 8 -3 28 -1 44 5 22 9 39 8 76 -5 52 -18 72 -15 79 14
13 49 3 54 -111 56 -151 2 -154 3 -148 20 3 8 6 21 6 28 0 15 16 17 116 15
l71 -1 1 133 c0 73 1 143 2 156 3 31 1 32 -51 34 -43 2 -44 3 -41 33 l4 30 62
-3 c48 -3 67 0 79 13 21 21 22 49 1 69 -16 16 -94 23 -108 9 -3 -4 -14 -8 -24
-9 -15 -3 -17 4 -14 49 l4 52 -51 0 -51 0 3 -50 4 -50 -42 0 c-36 0 -41 3 -38
20 1 11 5 35 8 53 l5 32 -50 0 c-48 0 -49 -1 -56 -35z m171 -180 c0 -28 -2
-30 -40 -30 -39 0 -40 1 -37 30 3 27 7 30 40 30 34 0 37 -2 37 -30z m66 -101
c31 -5 37 -9 35 -29 -1 -21 -8 -25 -41 -30 -22 -3 -74 -3 -115 0 -41 3 -84 6
-95 6 -14 1 -20 9 -21 26 -2 18 2 22 15 19 9 -3 22 -2 30 3 16 10 140 13 192
5z m0 -120 c31 -5 36 -9 36 -34 0 -27 -4 -30 -41 -35 -23 -3 -75 -3 -116 0
-41 3 -84 6 -96 6 -16 1 -21 8 -21 30 0 22 4 28 16 24 9 -2 22 -1 30 4 16 10
140 13 192 5z"/>
<path d="M100 960 c-15 -10 -16 -113 0 -118 14 -5 13 -152 -1 -152 -8 0 -10
-27 -7 -92 3 -51 2 -102 -3 -114 -5 -14 -3 -35 4 -53 9 -24 9 -36 0 -51 -7
-10 -15 -32 -18 -47 -11 -63 -16 -80 -31 -124 l-17 -47 34 -30 c19 -17 36 -32
40 -32 5 0 50 129 55 160 14 83 20 125 23 171 1 10 10 17 24 17 12 1 33 2 47
4 27 3 27 5 34 -107 3 -36 -1 -72 -9 -92 -13 -30 -16 -32 -55 -28 -29 3 -40 0
-36 -8 2 -7 10 -29 17 -49 14 -42 34 -51 84 -34 68 24 70 28 73 216 2 116 0
170 -7 170 -6 0 -11 20 -11 45 0 25 5 45 10 45 6 0 10 30 10 70 0 40 -4 70
-10 70 -16 0 -12 139 4 156 19 19 9 51 -19 58 -34 9 -219 6 -235 -4z m173
-157 c-2 -75 -3 -78 -25 -75 -13 2 -34 3 -47 4 -21 0 -23 3 -17 36 3 21 6 51
6 69 0 30 2 32 43 36 23 2 42 4 42 5 0 1 -1 -33 -2 -75z m4 -163 c1 -14 5 -36
8 -50 4 -14 1 -38 -4 -54 -9 -23 -15 -27 -34 -21 -12 4 -32 7 -44 7 -18 0 -24
8 -29 33 -3 18 -1 42 5 53 6 11 8 28 4 37 -5 14 -2 16 13 11 10 -3 26 -1 34 4
24 16 45 7 47 -20z"/>
</g>
</svg>
