<?xml version="1.0" standalone="no"?>
<!DOCTYPE svg PUBLIC "-//W3C//DTD SVG 20010904//EN"
 "http://www.w3.org/TR/2001/REC-SVG-20010904/DTD/svg10.dtd">
<svg version="1.0" xmlns="http://www.w3.org/2000/svg"
 width="101.000000pt" height="101.000000pt" viewBox="0 0 101.000000 101.000000"
 preserveAspectRatio="xMidYMid meet">
<metadata>
Created by potrace 1.16, written by Peter Selinger 2001-2019
</metadata>
<g transform="translate(0.000000,101.000000) scale(0.100000,-0.100000)"
fill="#000000" stroke="none">
<path d="M590 996 c0 -9 5 -16 10 -16 11 0 13 -55 4 -123 l-6 -45 -49 2 c-27
0 -49 2 -49 4 0 2 16 10 36 18 l35 15 -22 37 c-19 30 -54 86 -65 101 -2 1 -21
-7 -42 -19 l-40 -23 39 -60 c37 -58 39 -62 20 -69 -11 -4 -34 -1 -51 5 -28 11
-33 10 -46 -7 -15 -22 -15 -22 -16 99 l0 50 -129 2 -129 2 -6 -25 c-3 -13 -1
-30 4 -37 14 -16 14 -174 1 -182 -12 -8 -12 -142 1 -150 13 -8 13 -52 -1 -60
-6 -4 -10 -35 -9 -73 3 -114 -22 -235 -56 -262 -18 -16 -18 -30 0 -30 7 0 25
-9 39 -20 14 -11 28 -20 31 -20 22 0 78 213 78 295 0 17 7 21 43 23 49 2 47 6
45 -112 0 -39 -5 -75 -11 -82 -5 -7 -26 -11 -45 -9 -32 2 -35 0 -29 -19 3 -11
8 -32 10 -44 2 -13 5 -25 7 -27 17 -17 107 6 132 34 12 13 16 35 16 82 -1 35
0 76 1 91 1 26 2 26 24 12 22 -15 25 -13 60 33 31 41 42 48 76 50 43 3 42 5
24 -77 -2 -8 -4 -17 -4 -19 -1 -3 -14 8 -31 24 -25 24 -32 26 -45 15 -36 -30
-38 -49 -5 -76 16 -14 30 -31 30 -38 0 -20 -41 -53 -94 -77 l-49 -21 35 -35
c35 -35 35 -35 67 -18 44 22 106 86 130 133 24 47 61 189 55 207 -3 7 -1 16 5
20 7 3 11 -2 11 -14 0 -18 5 -19 54 -15 51 5 54 3 55 -18 0 -13 2 -38 3 -57 3
-30 0 -34 -25 -37 -30 -3 -31 1 -11 67 3 11 -3 18 -16 22 -30 8 -60 -3 -61
-22 -1 -9 -2 -29 -4 -46 -1 -16 -5 -46 -9 -66 -6 -32 -4 -37 15 -42 12 -3 31
-1 41 4 34 18 63 7 66 -26 6 -56 5 -90 -2 -111 -9 -25 12 -34 62 -26 34 5 40
20 20 52 -10 15 -10 27 -1 51 7 17 10 36 7 44 -5 13 0 14 78 17 30 1 37 6 41
26 3 13 2 33 0 43 -4 15 -8 17 -19 8 -9 -7 -24 -8 -41 -3 -16 4 -37 8 -48 8
-17 1 -20 7 -17 36 1 19 3 45 3 56 1 22 5 23 76 26 33 1 46 21 36 57 -4 16
-13 19 -60 16 -45 -3 -54 -1 -49 11 3 9 6 20 6 25 0 5 13 7 28 4 25 -4 32 1
56 37 29 45 29 47 -4 53 -47 9 -96 29 -134 54 l-40 26 70 5 c38 3 74 2 80 -3
29 -20 63 30 49 73 -5 16 -14 19 -53 16 -26 -2 -51 -4 -57 -6 -5 -1 -18 -2
-27 -1 -15 1 -12 10 18 51 20 28 40 50 45 50 5 0 9 6 9 13 0 11 -89 53 -95 45
-1 -2 -19 -39 -39 -84 -21 -44 -43 -81 -49 -81 -12 0 -14 98 -4 142 3 11 7 27
9 35 2 12 -9 16 -49 18 -43 2 -53 0 -53 -12z m-334 -181 l1 -70 -42 0 -42 0 1
70 1 70 40 0 40 0 1 -70z m135 -80 c18 -4 31 -1 42 9 17 17 82 22 92 7 8 -14
-64 -69 -114 -86 -60 -20 -71 -19 -71 9 0 38 12 88 19 78 3 -6 18 -13 32 -17z
m201 -67 c-5 -65 -5 -98 0 -103 6 -6 36 -9 70 -7 29 2 29 8 15 123 l-5 36 52
-51 c28 -29 62 -60 76 -69 17 -12 18 -14 4 -8 -43 20 -70 0 -66 -51 1 -14 -7
-16 -53 -12 -42 4 -55 2 -55 -9 0 -10 -11 -13 -37 -10 -21 2 -48 4 -60 4 -26
1 -31 17 -8 25 24 10 17 31 -15 44 -16 7 -30 14 -30 15 0 2 26 30 58 63 31 33
57 60 58 61 0 0 -1 -23 -4 -51z m-335 -85 l3 -72 -41 2 c-35 1 -40 4 -35 22 3
11 6 43 6 70 0 50 0 50 33 50 l32 0 2 -72z m123 6 c9 -22 17 -28 29 -24 9 4
22 9 30 13 19 7 -44 -110 -74 -138 l-24 -22 -5 33 c-3 19 -3 59 -1 89 3 30 5
65 6 78 1 29 21 14 39 -29z"/>
</g>
</svg>
