<?xml version="1.0" standalone="no"?>
<!DOCTYPE svg PUBLIC "-//W3C//DTD SVG 20010904//EN"
 "http://www.w3.org/TR/2001/REC-SVG-20010904/DTD/svg10.dtd">
<svg version="1.0" xmlns="http://www.w3.org/2000/svg"
 width="101.000000pt" height="102.000000pt" viewBox="0 0 101.000000 102.000000"
 preserveAspectRatio="xMidYMid meet">
<metadata>
Created by potrace 1.16, written by Peter Selinger 2001-2019
</metadata>
<g transform="translate(0.000000,102.000000) scale(0.100000,-0.100000)"
fill="#000000" stroke="none">
<path d="M684 1009 c-3 -6 -15 -9 -25 -6 -23 6 -24 -6 -4 -37 l15 -23 -82 1
c-82 1 -83 1 -86 -25 -4 -35 23 -62 48 -49 11 6 28 6 42 1 l23 -9 -27 -7 c-32
-8 -33 -12 -13 -39 22 -29 20 -31 -36 -30 -55 1 -66 -9 -55 -51 8 -30 57 -42
124 -28 l47 9 -1 -30 c-1 -26 -5 -31 -25 -28 -13 1 -45 5 -70 7 -41 5 -47 3
-52 -15 -10 -40 2 -58 37 -56 18 2 38 6 45 10 7 5 28 5 46 2 33 -7 34 -8 29
-46 -5 -31 -2 -39 13 -42 10 -3 -3 -8 -30 -12 -26 -5 -60 -5 -75 -1 -28 7 -66
7 -232 0 -52 -2 -102 0 -111 5 -8 5 -25 6 -37 3 -20 -5 -21 -10 -16 -52 12
-104 14 -191 4 -280 -6 -52 -8 -96 -5 -100 3 -3 24 -4 47 -4 41 2 62 18 51 37
-4 5 -7 31 -9 57 -2 42 0 47 19 48 54 4 227 2 272 -2 28 -3 64 -1 81 5 42 15
106 2 102 -20 -4 -25 -15 -30 -65 -25 l-45 3 21 -34 c12 -18 21 -41 21 -50 0
-32 128 -8 152 28 5 6 6 78 3 159 -3 87 -1 155 4 166 6 10 7 27 4 39 -4 17
-11 20 -32 16 -37 -6 -48 4 -55 55 -5 36 -3 42 9 37 9 -3 26 0 40 6 17 8 36 8
67 0 23 -6 44 -9 47 -6 7 6 5 63 -2 70 -6 7 -25 7 -108 0 -55 -4 -56 -4 -56
22 0 27 1 27 66 25 36 -1 73 -3 81 -4 53 -8 75 11 64 55 -5 20 -11 22 -78 22
l-73 -1 15 23 c8 12 18 22 23 22 17 0 9 19 -11 25 -11 3 -20 11 -20 16 0 12
46 12 70 -1 14 -7 23 -6 34 6 18 17 18 20 10 51 -6 22 -11 23 -85 20 l-80 -2
-11 38 c-9 29 -16 37 -34 37 -13 0 -26 -5 -30 -11z m49 -138 c21 -1 21 -9 2
-53 -20 -48 -52 -42 -80 16 l-20 42 40 -2 c22 -1 48 -2 58 -3z m-178 -435 c28
-2 64 0 81 6 17 6 47 8 66 4 30 -5 36 -10 34 -31 -1 -20 -8 -26 -35 -31 -19
-4 -48 -2 -65 4 -17 6 -53 8 -81 5 -46 -4 -222 -6 -270 -2 -14 1 -20 9 -21 26
-2 18 2 22 15 19 9 -3 23 -1 31 4 13 8 140 7 245 -4z m0 -110 c28 -2 64 0 81
6 17 6 47 8 66 4 30 -5 36 -10 34 -31 -1 -20 -8 -26 -35 -31 -19 -4 -48 -2
-65 4 -17 6 -53 8 -81 5 -46 -4 -222 -6 -270 -2 -14 1 -20 9 -21 26 -2 18 2
22 15 19 9 -3 23 -1 31 4 13 8 140 7 245 -4z"/>
<path d="M104 933 c-4 -19 -3 -61 0 -94 9 -73 -4 -116 -51 -182 -19 -27 -33
-50 -31 -51 2 0 18 -12 37 -25 33 -23 35 -23 49 -5 8 10 25 43 39 72 13 28 26
52 28 52 1 0 3 -10 4 -22 1 -13 2 -39 4 -58 1 -19 -2 -45 -6 -57 -7 -20 -5
-21 30 -16 65 9 217 8 242 -1 22 -8 23 -6 16 15 -9 27 -9 66 -1 126 5 40 3 43
-20 49 -14 4 -43 1 -65 -5 -29 -9 -44 -9 -60 0 -13 6 -47 9 -81 7 -47 -4 -58
-2 -53 10 3 7 5 21 5 29 0 14 14 15 113 9 61 -3 122 -9 134 -12 22 -6 23 -5
17 55 -5 42 -3 65 6 76 18 21 4 68 -18 61 -41 -11 -193 -17 -205 -8 -7 6 -38
10 -69 10 -57 -1 -58 -1 -64 -35z m268 -64 c3 -16 2 -31 0 -34 -10 -10 -122
-5 -122 5 0 6 -11 10 -24 10 -17 0 -25 7 -28 23 -4 21 -1 22 83 24 l87 2 4
-30z m-15 -195 c25 -5 30 -11 30 -34 0 -25 -5 -30 -38 -35 -21 -4 -46 -2 -58
4 -11 6 -26 9 -34 6 -10 -4 -14 3 -14 25 0 23 4 29 16 25 9 -2 23 0 31 5 18
11 27 12 67 4z"/>
</g>
</svg>
