<?xml version="1.0" standalone="no"?>
<!DOCTYPE svg PUBLIC "-//W3C//DTD SVG 20010904//EN"
 "http://www.w3.org/TR/2001/REC-SVG-20010904/DTD/svg10.dtd">
<svg version="1.0" xmlns="http://www.w3.org/2000/svg"
 width="101.000000pt" height="101.000000pt" viewBox="0 0 101.000000 101.000000"
 preserveAspectRatio="xMidYMid meet">
<metadata>
Created by potrace 1.16, written by Peter Selinger 2001-2019
</metadata>
<g transform="translate(0.000000,101.000000) scale(0.100000,-0.100000)"
fill="#000000" stroke="none">
<path d="M598 1003 c-22 -5 -22 -12 -3 -37 31 -40 21 -47 -64 -42 -44 2 -83 6
-88 9 -14 9 -31 -6 -37 -33 -10 -39 7 -54 64 -56 49 -1 86 -14 42 -14 -27 0
-28 -12 -2 -35 27 -25 25 -33 -7 -28 -84 15 -119 14 -132 -1 -8 -9 -17 -16
-22 -16 -12 0 -12 47 0 52 5 2 11 32 13 68 l3 65 -68 -3 c-37 -2 -73 1 -80 6
-19 16 -95 13 -112 -4 -17 -17 -20 -50 -5 -59 12 -7 12 -173 -1 -180 -12 -8
-12 -142 1 -150 13 -8 13 -52 0 -60 -6 -4 -10 -30 -10 -58 2 -88 -8 -142 -43
-216 l-21 -44 34 -29 c19 -15 37 -28 41 -28 20 0 80 220 81 296 0 15 7 22 22
22 11 1 32 2 46 4 28 3 30 -4 33 -124 2 -75 -5 -87 -53 -93 -18 -3 -34 -6 -36
-8 -2 -2 4 -23 14 -46 16 -40 18 -42 52 -36 19 4 47 13 63 22 l29 15 -7 149
c-5 107 -4 149 4 149 7 0 11 20 11 50 0 28 -4 50 -10 50 -5 0 -10 11 -10 25 0
14 5 25 10 25 6 0 10 23 10 52 0 46 2 50 13 34 11 -15 22 -17 53 -12 21 3 78
6 126 6 48 0 90 5 93 10 8 13 68 13 82 -1 8 -8 16 -7 31 2 16 10 32 9 85 -5
92 -25 126 -10 111 50 -7 28 -40 40 -81 29 -16 -4 -41 -9 -57 -11 l-29 -3 28
29 28 29 -27 7 c-37 9 -23 18 23 16 42 -3 71 17 71 46 0 34 -15 38 -113 38
l-98 -1 -10 42 c-10 37 -14 41 -42 40 -18 0 -40 -2 -49 -4z m-322 -207 l1 -71
-44 4 c-42 3 -43 4 -44 40 0 20 -1 50 -2 66 -2 29 -1 30 43 31 l45 0 1 -70z
m460 51 c3 -2 -2 -22 -11 -43 -15 -37 -17 -39 -61 -39 -39 1 -48 5 -59 26 -15
29 -11 39 25 57 23 11 95 10 106 -1z m-461 -215 c-2 -7 0 -23 6 -36 8 -16 8
-37 2 -63 -8 -33 -13 -38 -34 -35 -13 2 -34 3 -46 4 -17 0 -23 8 -28 38 -4 22
-2 47 4 59 6 11 9 26 6 33 -4 10 8 13 45 13 37 0 49 -3 45 -13z"/>
<path d="M459 663 c-21 -5 -31 -41 -19 -64 6 -10 8 -67 6 -128 -4 -128 -9
-121 89 -105 80 14 203 14 254 0 30 -8 60 -12 66 -10 7 3 11 47 12 127 1 67 2
132 3 145 3 37 25 35 -265 30 -55 -1 -107 1 -115 4 -8 3 -22 4 -31 1z m302
-58 c21 -5 26 -12 26 -35 0 -25 -5 -31 -31 -35 -17 -3 -67 -3 -111 0 -44 3
-89 6 -101 6 -16 1 -21 8 -21 30 0 22 4 28 16 24 9 -2 22 -1 30 4 15 10 153
14 192 6z m0 -121 c21 -4 26 -11 25 -30 -1 -31 -31 -37 -141 -29 -44 3 -89 6
-100 6 -14 1 -20 9 -21 26 -2 18 2 22 15 19 9 -3 22 -2 30 3 15 10 153 14 192
5z"/>
<path d="M632 343 c-13 -3 -22 -8 -20 -12 2 -3 12 -28 23 -54 19 -45 22 -48
50 -42 48 9 52 21 26 70 -24 44 -30 47 -79 38z"/>
<path d="M517 298 c-3 -12 -2 -29 3 -39 6 -10 7 -45 4 -78 l-7 -61 37 -15 c26
-11 42 -13 56 -5 10 5 49 8 87 6 76 -5 97 2 118 44 21 41 20 46 -21 71 -30 18
-38 19 -45 8 -5 -8 -9 -20 -9 -26 0 -23 -45 -43 -87 -39 -61 5 -64 9 -58 80 5
60 4 64 -17 70 -40 10 -56 7 -61 -16z"/>
<path d="M810 303 c-14 -9 -27 -18 -29 -19 -2 -2 12 -22 32 -46 19 -24 42 -58
51 -75 9 -18 19 -33 21 -33 9 0 75 45 75 51 0 13 -103 139 -114 139 -6 0 -23
-8 -36 -17z"/>
<path d="M415 300 c-2 -3 -6 -20 -9 -36 -3 -16 -15 -50 -27 -76 -12 -27 -20
-51 -17 -54 4 -3 23 -6 43 -7 37 -2 37 -2 60 63 12 36 26 72 29 82 5 12 1 18
-16 24 -31 10 -58 12 -63 4z"/>
</g>
</svg>
