<?xml version="1.0" standalone="no"?>
<!DOCTYPE svg PUBLIC "-//W3C//DTD SVG 20010904//EN"
 "http://www.w3.org/TR/2001/REC-SVG-20010904/DTD/svg10.dtd">
<svg version="1.0" xmlns="http://www.w3.org/2000/svg"
 width="101.000000pt" height="101.000000pt" viewBox="0 0 101.000000 101.000000"
 preserveAspectRatio="xMidYMid meet">
<metadata>
Created by potrace 1.16, written by Peter Selinger 2001-2019
</metadata>
<g transform="translate(0.000000,101.000000) scale(0.100000,-0.100000)"
fill="#000000" stroke="none">
<path d="M477 1003 c-14 -4 -17 -13 -13 -59 l5 -54 -62 7 c-62 6 -79 16 -70
39 6 16 -31 27 -59 18 -25 -8 -82 -7 -140 2 -34 6 -39 4 -48 -21 -6 -15 -7
-37 -3 -49 3 -11 6 -47 5 -78 -1 -31 2 -59 8 -63 15 -9 12 -108 -5 -149 -11
-25 -12 -42 -6 -54 12 -22 11 -109 -1 -142 -5 -14 -11 -44 -14 -68 -2 -23 -13
-65 -25 -91 l-21 -49 31 -42 30 -41 14 28 c15 29 49 127 53 153 10 60 16 108
16 125 0 17 7 21 38 22 43 2 42 4 40 -111 -1 -73 -11 -96 -38 -94 -49 4 -53 0
-38 -34 8 -18 17 -41 20 -50 10 -33 118 1 131 42 7 21 25 28 25 10 0 -10 60
-7 130 5 36 6 94 14 135 19 42 4 46 7 50 38 1 12 6 31 10 42 7 15 4 17 -11 13
-10 -3 -32 -9 -47 -13 l-29 -7 26 52 c21 41 23 51 11 51 -8 0 -15 5 -15 10 0
6 7 10 16 10 14 0 15 6 9 33 -8 29 -8 55 -4 125 1 28 19 29 19 1 0 -15 4 -19
19 -14 11 3 22 1 26 -5 3 -5 -1 -10 -10 -10 -17 0 -36 -39 -27 -54 3 -5 7 -21
9 -35 8 -52 12 -67 32 -131 20 -61 20 -66 3 -79 -28 -22 -135 -71 -169 -77
-18 -3 -33 -8 -33 -9 0 -2 17 -20 37 -40 l36 -36 41 18 c22 10 67 35 99 56
l59 38 43 -39 c62 -58 85 -69 98 -46 6 10 21 28 34 40 29 26 29 30 1 38 -13 3
-44 19 -71 36 l-47 30 19 38 c28 54 53 150 66 247 14 107 15 106 -47 103 l-53
-3 3 30 c1 17 3 39 3 51 1 19 6 21 59 17 51 -3 59 -1 65 16 13 43 -18 93 -47
75 -6 -4 -25 -8 -43 -9 -32 -2 -32 -1 -28 39 6 61 10 89 14 106 3 12 -4 14
-33 12 -23 -2 -38 1 -38 7 0 6 -9 11 -19 11 -18 0 -19 -7 -18 -87 l2 -88 -35
2 c-19 1 -37 2 -40 2 -3 1 -6 13 -6 27 -3 35 -9 39 -58 39 l-43 0 4 47 c4 60
-19 77 -80 61z m-219 -205 l-3 -73 -40 0 c-40 0 -40 0 -43 43 -2 25 1 42 7 42
6 0 11 11 11 24 0 19 6 26 28 29 15 2 31 5 35 6 4 0 7 -32 5 -71z m148 6 c59
1 61 0 60 -25 -1 -24 -4 -26 -41 -22 -51 5 -68 -7 -68 -46 0 -37 5 -44 35 -41
13 1 73 2 135 3 119 2 129 7 116 56 -7 26 -27 33 -59 21 -14 -6 -26 -10 -27
-10 -1 0 -2 14 -2 30 0 28 2 30 41 30 38 0 42 -3 47 -29 7 -32 36 -45 72 -31
19 7 23 5 24 -13 0 -12 2 -35 3 -52 3 -30 3 -30 -44 -28 -37 1 -48 -2 -48 -13
0 -11 -4 -12 -16 -6 -11 6 -34 4 -66 -5 -30 -9 -60 -12 -76 -7 -15 4 -36 8
-47 9 -11 1 -24 3 -30 5 -36 9 -44 0 -39 -42 9 -66 9 -100 2 -134 -6 -27 -4
-33 14 -37 12 -3 30 -2 40 4 10 5 40 7 69 3 41 -5 49 -10 44 -23 -4 -9 -9 -34
-11 -56 -6 -49 -16 -59 -57 -61 -29 -1 -30 -1 -9 9 12 5 22 13 22 16 -1 19
-29 84 -40 91 -11 7 -70 -6 -70 -15 0 -1 7 -19 15 -38 24 -57 20 -66 -24 -64
l-39 1 4 72 c3 44 1 75 -6 79 -13 8 -13 52 0 60 12 7 12 153 0 160 -5 3 -8 37
-9 76 -1 72 6 100 18 82 3 -6 33 -10 67 -9z m-160 -171 c-3 -8 -1 -24 5 -35 6
-11 8 -35 5 -53 -6 -30 -10 -33 -41 -32 -31 1 -36 5 -41 33 -3 18 -1 41 5 52
6 11 9 27 6 34 -4 10 4 14 30 15 28 1 35 -2 31 -14z m546 -59 c36 -6 38 -8 32
-38 -4 -17 -7 -42 -8 -56 -4 -45 -28 -130 -36 -130 -9 0 -21 45 -26 90 -7 73
-15 105 -30 113 -13 8 -14 11 -3 18 17 10 23 11 71 3z m-237 -49 c0 -38 -1
-40 -30 -37 -16 1 -40 3 -51 3 -18 1 -22 7 -21 35 1 26 5 33 16 29 9 -2 23 0
31 5 8 6 24 9 35 8 16 -3 20 -11 20 -43z"/>
</g>
</svg>
