<?xml version="1.0" standalone="no"?>
<!DOCTYPE svg PUBLIC "-//W3C//DTD SVG 20010904//EN"
 "http://www.w3.org/TR/2001/REC-SVG-20010904/DTD/svg10.dtd">
<svg version="1.0" xmlns="http://www.w3.org/2000/svg"
 width="101.000000pt" height="101.000000pt" viewBox="0 0 101.000000 101.000000"
 preserveAspectRatio="xMidYMid meet">
<metadata>
Created by potrace 1.16, written by Peter Selinger 2001-2019
</metadata>
<g transform="translate(0.000000,101.000000) scale(0.100000,-0.100000)"
fill="#000000" stroke="none">
<path d="M129 964 c-18 -5 -25 -79 -9 -89 12 -8 11 -173 -1 -180 -12 -8 -12
-142 1 -150 13 -8 13 -52 0 -60 -7 -4 -9 -67 -8 -170 l3 -164 28 -7 c35 -7
127 5 127 17 0 14 68 11 74 -3 5 -10 7 -10 12 0 7 15 164 17 164 2 0 -5 18
-10 40 -10 22 0 40 5 40 10 0 6 33 10 80 10 49 0 80 -4 80 -10 0 -7 20 -10 48
-10 26 1 56 -1 68 -5 28 -9 54 18 54 55 0 35 -26 64 -49 55 -9 -4 -52 -12 -95
-18 -60 -7 -81 -7 -84 1 -2 7 -27 12 -62 12 l-57 0 1 74 1 73 100 6 c55 3 107
2 115 -3 9 -5 20 -6 26 -2 5 4 10 78 11 165 2 157 0 164 -32 157 -5 -1 -57 -3
-115 -4 l-105 -1 0 75 0 75 152 0 152 -1 6 32 c10 56 4 59 -98 55 -137 -7
-499 1 -603 12 -27 3 -56 3 -65 1z m241 -95 c0 -7 21 -10 58 -7 l57 3 0 -75 0
-75 -67 3 c-44 2 -68 0 -68 -7 0 -6 -11 -11 -25 -11 -14 0 -25 5 -25 10 0 6
-19 10 -43 10 l-43 0 1 70 0 70 43 0 c23 0 42 5 42 10 0 6 16 10 35 10 19 0
35 -5 35 -11z m14 -238 c8 -12 114 -13 121 -1 7 11 116 12 185 2 l45 -7 0 -67
0 -66 -85 -7 c-58 -5 -85 -4 -88 4 -5 14 -142 15 -142 1 0 -6 -32 -10 -75 -10
-43 0 -75 4 -75 10 0 6 -13 10 -30 10 l-29 0 2 63 2 62 48 -4 c27 -1 54 2 60
8 13 13 54 15 61 2z m92 -224 c1 -1 5 -38 9 -82 l7 -80 -139 0 -138 0 0 89 0
89 130 -8 c71 -3 131 -7 131 -8z"/>
</g>
</svg>
