<?xml version="1.0" standalone="no"?>
<!DOCTYPE svg PUBLIC "-//W3C//DTD SVG 20010904//EN"
 "http://www.w3.org/TR/2001/REC-SVG-20010904/DTD/svg10.dtd">
<svg version="1.0" xmlns="http://www.w3.org/2000/svg"
 width="101.000000pt" height="102.000000pt" viewBox="0 0 101.000000 102.000000"
 preserveAspectRatio="xMidYMid meet">
<metadata>
Created by potrace 1.16, written by Peter Selinger 2001-2019
</metadata>
<g transform="translate(0.000000,102.000000) scale(0.100000,-0.100000)"
fill="#000000" stroke="none">
<path d="M368 973 c-11 -37 -19 -49 -36 -51 -13 -2 -28 1 -35 6 -7 6 -38 10
-69 10 l-58 -1 0 -53 c0 -30 5 -54 10 -54 6 0 10 -16 10 -35 0 -19 -5 -35 -11
-35 -7 0 -8 -46 -4 -142 l5 -143 129 3 129 2 4 -30 c4 -29 3 -30 -36 -30 -23
0 -97 5 -166 10 -149 12 -176 8 -184 -26 -13 -49 -1 -60 62 -62 31 -1 70 3 87
9 20 7 51 8 90 2 l60 -9 -70 -52 c-40 -30 -105 -65 -152 -83 l-81 -32 40 -38
40 -38 47 23 c64 33 157 103 218 165 57 58 53 64 55 -69 1 -41 -2 -89 -6 -106
-9 -36 6 -45 62 -36 26 3 31 8 27 23 -3 10 -1 27 4 38 8 14 6 32 -6 67 -13 37
-14 54 -5 76 6 16 9 35 6 42 -3 7 26 -18 64 -55 53 -52 92 -78 173 -118 94
-47 105 -50 114 -34 6 9 23 30 38 46 15 16 27 31 25 32 -2 2 -39 13 -83 25
-89 25 -186 68 -228 102 l-28 23 53 -2 c29 0 58 2 63 7 16 13 142 11 171 -2
30 -14 44 0 44 44 0 37 -31 53 -84 42 -23 -4 -104 -8 -181 -8 l-140 -1 0 27
c0 22 4 27 18 22 10 -3 75 -3 145 1 l127 7 3 68 c2 41 -1 71 -7 75 -14 8 -14
52 -1 60 6 3 10 53 9 116 -1 130 -6 139 -84 139 -30 0 -56 -4 -60 -9 -8 -13
-166 -13 -182 1 -7 6 -22 8 -33 5 -24 -6 -25 1 -5 27 23 31 19 47 -10 40 -15
-4 -25 -2 -25 5 0 6 -11 11 -24 11 -21 0 -27 -7 -38 -47z m252 -114 l105 2 0
-29 0 -28 -84 3 c-46 2 -89 -1 -95 -6 -16 -13 -147 -13 -162 0 -8 6 -35 9 -61
7 -45 -3 -48 -2 -49 22 -1 25 0 25 72 22 42 -3 80 1 91 7 10 6 31 8 48 5 17
-4 77 -6 135 -5z m-210 -129 c0 -6 30 -10 70 -10 40 0 70 4 70 10 0 6 11 10
25 10 14 0 25 -5 25 -11 0 -8 20 -10 65 -7 61 5 64 5 62 -16 -1 -11 -6 -24
-12 -28 -15 -11 -143 -10 -150 2 -7 12 -113 11 -121 -1 -7 -13 -48 -11 -61 2
-6 6 -33 9 -60 8 -41 -3 -49 -1 -49 14 0 13 9 17 43 17 24 0 43 5 43 10 0 6
11 10 25 10 14 0 25 -4 25 -10z m257 -116 c43 -6 52 -10 56 -29 4 -22 0 -24
-77 -30 -56 -5 -81 -4 -84 4 -5 14 -142 15 -142 1 0 -6 -31 -10 -74 -10 l-73
0 1 28 1 28 99 -3 c55 -1 107 2 115 7 19 11 104 13 178 4z"/>
</g>
</svg>
