<?xml version="1.0" standalone="no"?>
<!DOCTYPE svg PUBLIC "-//W3C//DTD SVG 20010904//EN"
 "http://www.w3.org/TR/2001/REC-SVG-20010904/DTD/svg10.dtd">
<svg version="1.0" xmlns="http://www.w3.org/2000/svg"
 width="101.000000pt" height="102.000000pt" viewBox="0 0 101.000000 102.000000"
 preserveAspectRatio="xMidYMid meet">
<metadata>
Created by potrace 1.16, written by Peter Selinger 2001-2019
</metadata>
<g transform="translate(0.000000,102.000000) scale(0.100000,-0.100000)"
fill="#000000" stroke="none">
<path d="M626 1012 c-6 -10 -16 -53 -22 -100 -8 -56 -84 -252 -98 -252 -2 0
-25 29 -51 65 -25 36 -47 65 -49 65 -2 0 -20 -7 -41 -16 l-37 -15 19 -22 c43
-49 46 -56 24 -50 -11 3 -33 1 -48 -4 -15 -6 -50 -7 -77 -4 l-48 6 66 68 c52
53 65 72 56 82 -9 11 7 14 85 20 88 7 96 9 101 30 9 35 -4 64 -31 71 -13 3
-53 -1 -88 -10 -73 -18 -117 -21 -117 -5 0 6 -36 9 -105 7 -114 -3 -123 -8
-110 -61 8 -31 33 -38 107 -30 55 5 57 5 53 -16 -7 -37 -74 -127 -115 -156
-42 -29 -42 -30 -20 -91 7 -16 18 -21 54 -22 26 -1 59 4 74 12 l27 14 0 -54
c0 -48 -3 -55 -22 -60 -13 -4 -31 -3 -40 1 -10 4 -34 9 -54 11 -41 4 -51 -11
-42 -60 5 -24 21 -33 48 -26 12 3 50 9 85 12 19 2 25 -2 25 -17 0 -11 4 -30 9
-43 11 -33 -1 -72 -22 -72 -10 0 -23 -5 -30 -12 -8 -8 -18 -9 -35 -1 -17 8
-36 8 -66 0 l-43 -12 7 -40 c8 -55 17 -61 65 -46 23 7 55 14 73 17 18 3 41 7
52 10 60 13 109 20 185 29 30 3 59 10 63 14 4 4 10 27 12 51 l4 42 -37 -7
c-20 -4 -48 -9 -62 -12 -14 -3 -41 -6 -60 -7 -33 -1 -35 1 -32 29 1 17 3 40 3
53 1 16 6 22 15 18 8 -3 25 0 39 6 19 8 31 8 56 -5 18 -8 38 -13 45 -10 14 5
24 47 16 75 -4 16 -10 18 -31 12 -23 -7 -48 -8 -117 -3 -20 1 -22 7 -20 58 l1
57 35 0 c19 0 42 3 51 7 12 6 18 2 22 -13 3 -12 10 -19 16 -15 15 9 14 -8 -1
-23 -17 -17 -7 -22 45 -27 36 -4 48 -1 56 13 9 14 11 14 12 2 1 -8 3 -19 3
-25 5 -32 50 -164 63 -184 15 -24 14 -26 -28 -63 -44 -38 -170 -108 -195 -108
-21 0 -18 -6 25 -50 l38 -40 89 60 c49 33 101 70 116 81 l27 22 63 -50 c55
-44 99 -73 110 -73 2 0 20 20 41 44 l37 44 -68 32 c-37 17 -81 41 -99 53 -30
20 -31 23 -17 48 15 30 64 189 70 229 2 14 6 39 9 55 3 17 8 48 11 71 l6 41
40 -4 c44 -5 58 6 58 44 0 33 -28 56 -59 47 -14 -4 -72 -7 -127 -8 l-102 -1
13 43 c7 23 22 58 34 78 12 19 21 37 21 40 0 5 -49 27 -87 38 -12 4 -24 3 -27
-2z m126 -306 c5 -88 -42 -313 -63 -301 -8 5 -31 96 -34 135 -1 14 -6 38 -10
53 -6 25 -12 28 -36 25 l-28 -4 20 38 c11 21 24 49 28 61 7 19 17 22 65 23
l56 2 2 -32z"/>
</g>
</svg>
