<?xml version="1.0" standalone="no"?>
<!DOCTYPE svg PUBLIC "-//W3C//DTD SVG 20010904//EN"
 "http://www.w3.org/TR/2001/REC-SVG-20010904/DTD/svg10.dtd">
<svg version="1.0" xmlns="http://www.w3.org/2000/svg"
 width="101.000000pt" height="101.000000pt" viewBox="0 0 101.000000 101.000000"
 preserveAspectRatio="xMidYMid meet">
<metadata>
Created by potrace 1.16, written by Peter Selinger 2001-2019
</metadata>
<g transform="translate(0.000000,101.000000) scale(0.100000,-0.100000)"
fill="#000000" stroke="none">
<path d="M432 890 c-2 -79 1 -120 8 -120 11 0 13 -62 4 -171 l-7 -75 -101 1
-101 0 0 55 0 55 70 -1 c75 -1 85 5 85 48 0 36 -25 48 -99 48 l-61 0 6 43 c4
23 8 44 10 46 4 4 63 9 132 11 23 1 42 6 42 11 0 5 -9 28 -20 50 -19 37 -23
40 -53 34 -67 -12 -93 -15 -134 -15 -66 1 -83 -13 -83 -65 0 -25 5 -45 10 -45
6 0 10 -11 10 -25 0 -14 -4 -25 -10 -25 -6 0 -10 -30 -10 -70 0 -40 4 -70 10
-70 6 0 10 -11 10 -25 0 -14 -4 -25 -10 -25 -11 0 -13 -71 -4 -107 6 -20 10
-21 82 -17 109 7 192 7 199 1 12 -12 -40 -97 -83 -137 -53 -48 -122 -83 -216
-107 -38 -10 -68 -20 -68 -24 0 -3 11 -11 25 -17 14 -7 30 -23 37 -37 9 -19
16 -24 32 -19 162 50 281 138 335 246 l19 39 26 -44 c35 -62 121 -137 197
-174 72 -35 169 -66 169 -54 0 5 16 29 36 55 20 26 34 49 32 51 -2 2 -26 6
-53 9 -119 12 -190 37 -254 92 -32 27 -91 100 -91 113 0 3 24 5 52 4 29 0 58
3 64 8 7 5 46 8 87 6 l75 -4 7 34 c3 19 2 40 -3 46 -13 16 -15 154 -2 162 5 3
9 53 9 110 0 80 -3 108 -15 120 -17 16 -27 19 -37 9 -8 -8 -165 -8 -192 0 -27
8 -44 -4 -50 -39 -10 -52 4 -60 102 -59 l88 1 3 -51 2 -51 -51 4 c-73 5 -117
-6 -124 -30 -10 -31 3 -69 23 -67 9 1 45 0 79 0 l61 -2 4 -54 3 -54 -70 -7
c-47 -4 -71 -3 -73 4 -2 6 -21 11 -42 11 l-38 0 5 178 c3 159 6 213 15 277 3
18 -4 20 -52 23 l-55 3 -3 -121z"/>
</g>
</svg>
