<?xml version="1.0" standalone="no"?>
<!DOCTYPE svg PUBLIC "-//W3C//DTD SVG 20010904//EN"
 "http://www.w3.org/TR/2001/REC-SVG-20010904/DTD/svg10.dtd">
<svg version="1.0" xmlns="http://www.w3.org/2000/svg"
 width="101.000000pt" height="101.000000pt" viewBox="0 0 101.000000 101.000000"
 preserveAspectRatio="xMidYMid meet">
<metadata>
Created by potrace 1.16, written by Peter Selinger 2001-2019
</metadata>
<g transform="translate(0.000000,101.000000) scale(0.100000,-0.100000)"
fill="#000000" stroke="none">
<path d="M815 980 c-3 -5 -36 -7 -78 -4 -52 4 -84 1 -116 -10 -52 -19 -104
-21 -130 -4 -13 8 -26 9 -39 2 -19 -9 -19 -10 -1 -53 l19 -44 64 6 c64 6 71 2
55 -33 -3 -6 -6 -22 -8 -35 -1 -6 -37 -10 -86 -10 -80 0 -84 -1 -90 -23 -12
-47 8 -70 55 -63 8 2 29 4 47 5 41 3 34 -11 -39 -80 -67 -64 -91 -77 -150 -80
-46 -2 -48 -1 -54 31 -3 18 -1 42 5 53 6 11 8 27 5 35 -4 13 5 15 51 13 50 -2
56 0 61 20 11 45 -3 61 -53 62 -25 1 -47 3 -49 5 -2 2 -5 26 -6 53 l-3 49 35
2 c64 3 109 9 115 14 3 4 -7 25 -22 48 -19 29 -32 40 -44 36 -36 -12 -65 -17
-88 -16 -12 1 -28 -2 -34 -6 -6 -3 -47 -6 -91 -5 -104 2 -112 -3 -86 -53 16
-31 26 -39 52 -42 18 -2 44 1 58 5 24 9 25 8 28 -42 l2 -52 -74 2 c-72 2 -74
2 -81 -23 -10 -43 2 -62 38 -58 18 1 40 6 50 10 27 11 70 -3 63 -21 -3 -9 -1
-25 5 -36 6 -11 8 -35 4 -55 l-6 -34 -60 5 -60 6 7 -53 c11 -85 9 -280 -4
-315 -19 -55 1 -74 66 -64 32 4 32 5 28 52 -4 43 -2 48 17 49 12 0 38 2 57 3
32 3 34 1 36 -30 2 -42 7 -46 50 -45 43 1 47 5 47 43 0 23 4 29 15 25 56 -21
55 -22 110 96 29 62 48 117 44 121 -5 5 -24 11 -43 14 l-34 6 -17 -59 c-9 -32
-31 -80 -49 -108 -31 -48 -32 -49 -41 -26 -11 32 0 243 15 257 3 3 16 -2 30
-10 13 -9 32 -14 41 -10 18 7 126 129 160 181 26 40 46 38 67 -7 31 -68 174
-200 215 -200 6 0 24 20 41 44 l31 44 -59 21 c-61 23 -132 71 -155 106 -13 19
-11 20 39 17 29 -2 61 -3 72 -2 11 0 32 1 47 2 17 0 30 8 33 19 7 22 -3 61
-19 71 -14 10 -61 10 -70 1 -7 -7 -196 -12 -196 -5 0 1 6 17 13 35 8 18 12 37
10 42 -3 10 18 12 150 15 87 2 93 9 57 68 -20 32 -61 45 -75 22z m-529 -515
c0 -11 3 -31 7 -45 4 -14 3 -47 -1 -75 -7 -50 -8 -50 -42 -47 -19 1 -45 3 -56
3 -18 1 -22 9 -28 56 -4 30 -2 62 4 73 5 10 7 26 3 35 -5 14 -2 16 13 11 10
-3 26 -1 34 4 25 17 65 8 66 -15z"/>
<path d="M598 593 c-14 -4 -16 -12 -11 -46 3 -23 6 -112 5 -197 -2 -171 -6
-182 -64 -175 -25 4 -29 2 -23 -13 4 -9 12 -30 19 -47 6 -16 12 -32 13 -34 5
-8 103 22 115 36 8 10 13 55 15 132 2 127 4 161 8 161 6 0 54 -111 65 -149 6
-23 17 -41 25 -41 22 0 65 22 65 34 0 6 -19 51 -42 99 -45 95 -38 90 -109 75
-10 -2 -13 6 -12 27 3 52 12 116 18 126 4 5 -5 9 -19 9 -13 0 -30 2 -38 4 -7
2 -21 2 -30 -1z"/>
<path d="M798 463 c-24 -6 -23 -13 16 -91 18 -37 39 -87 47 -112 7 -25 16 -49
19 -53 4 -5 26 1 48 12 l41 21 -16 37 c-8 21 -33 73 -54 116 -40 79 -47 84
-101 70z"/>
</g>
</svg>
