<?xml version="1.0" standalone="no"?>
<!DOCTYPE svg PUBLIC "-//W3C//DTD SVG 20010904//EN"
 "http://www.w3.org/TR/2001/REC-SVG-20010904/DTD/svg10.dtd">
<svg version="1.0" xmlns="http://www.w3.org/2000/svg"
 width="101.000000pt" height="102.000000pt" viewBox="0 0 101.000000 102.000000"
 preserveAspectRatio="xMidYMid meet">
<metadata>
Created by potrace 1.16, written by Peter Selinger 2001-2019
</metadata>
<g transform="translate(0.000000,102.000000) scale(0.100000,-0.100000)"
fill="#000000" stroke="none">
<path d="M217 977 c-25 -42 -94 -112 -151 -153 l-29 -21 44 -21 44 -22 45 45
c25 25 48 45 51 45 2 0 4 -20 4 -44 0 -40 -2 -43 -18 -34 -11 5 -29 7 -40 4
-18 -4 -22 -12 -22 -48 0 -36 4 -43 22 -46 12 -2 30 1 40 6 16 9 18 5 18 -39
l0 -48 -60 6 c-72 7 -104 7 -112 -1 -8 -8 -8 -64 0 -72 8 -8 40 -8 115 0 l64
7 -24 -42 c-13 -24 -51 -72 -85 -108 -34 -36 -61 -66 -60 -66 1 -1 19 -11 40
-23 21 -12 40 -22 41 -22 2 0 23 25 46 56 28 37 47 54 57 50 8 -3 24 -1 35 5
11 6 35 8 54 4 l34 -6 -15 -36 c-9 -21 -18 -39 -20 -41 -2 -2 -21 10 -42 27
-21 17 -42 31 -48 30 -5 0 -20 -13 -32 -29 l-23 -28 45 -26 c25 -15 45 -31 45
-37 0 -14 -133 -76 -181 -84 -41 -7 -41 -7 -17 -23 13 -8 34 -25 48 -38 l25
-23 61 29 c73 36 141 94 183 156 32 49 71 142 76 182 2 21 -1 22 -59 22 -33
-1 -74 0 -91 0 -29 2 -29 2 -10 17 19 14 19 15 2 28 -18 13 -18 14 0 23 18 10
141 9 248 -2 28 -2 64 0 80 6 21 7 58 7 125 -1 52 -7 104 -12 115 -11 11 0 32
1 47 2 28 1 40 23 31 56 -5 20 -48 25 -163 19 -32 -2 -35 0 -32 23 2 14 3 35
4 48 0 19 4 21 22 15 71 -24 127 25 80 71 -17 18 -69 22 -79 6 -14 -22 -24 -7
-22 33 2 39 4 42 27 40 14 -1 34 -5 46 -8 30 -9 57 21 49 54 -8 32 -24 43 -50
33 -11 -4 -66 -5 -122 -4 -70 3 -103 0 -103 -7 0 -7 -29 -11 -80 -11 -47 0
-80 4 -80 10 0 6 -18 10 -40 10 -22 0 -40 -4 -40 -10 0 -5 -25 -10 -55 -10
-30 0 -55 3 -55 8 0 4 16 18 35 32 39 28 40 40 4 56 -59 28 -65 27 -92 -19z
m168 -170 l0 -42 -40 3 c-39 4 -40 5 -40 40 -1 36 0 37 40 39 l40 2 0 -42z
m157 0 l3 -42 -45 0 -45 0 0 40 c0 40 0 40 42 42 l41 2 4 -42z m163 0 l0 -42
-37 4 c-29 2 -38 8 -38 21 0 10 -3 25 -6 34 -4 11 4 16 38 19 23 2 43 4 43 5
0 1 0 -17 0 -41z m-320 -159 l0 -47 -43 2 c-31 1 -41 5 -37 15 3 8 5 28 5 45
0 30 2 32 38 32 l37 0 0 -47z m160 34 c-2 -7 1 -24 7 -37 9 -21 9 -29 -5 -42
-13 -14 -21 -14 -42 -5 -13 6 -30 9 -37 7 -10 -4 -13 8 -13 42 l0 48 48 0 c34
0 46 -4 42 -13z m163 -7 c1 -11 2 -31 4 -45 3 -24 0 -25 -47 -25 -47 0 -50 2
-47 25 2 14 3 34 4 45 0 17 7 20 43 20 36 0 43 -3 43 -20z"/>
<path d="M698 533 c-16 -4 -22 -17 -21 -49 1 -16 -92 -27 -115 -15 -26 14 -59
3 -65 -20 -8 -29 3 -59 22 -60 15 -1 15 -2 0 -6 -15 -4 -29 -42 -34 -93 -1 -8
-5 -25 -9 -36 -5 -17 -2 -23 15 -27 12 -3 30 -2 39 3 13 7 85 8 136 1 12 -1
15 -16 16 -93 1 -50 12 -60 61 -51 22 4 24 7 14 33 -8 21 -8 36 1 54 6 14 9
32 6 40 -6 15 7 17 102 17 55 0 69 14 57 59 -6 23 -24 26 -53 8 -15 -10 -27
-10 -51 -1 -17 7 -37 9 -45 6 -11 -4 -13 5 -12 40 2 49 0 48 90 49 49 1 62 15
51 57 -4 14 -14 19 -51 19 -89 1 -93 2 -82 22 6 10 10 21 10 23 0 4 -61 29
-64 26 -1 -1 -9 -3 -18 -6z m-37 -143 c12 0 16 -10 15 -47 l-1 -48 -35 3 c-19
1 -46 3 -58 3 -25 1 -25 0 -5 62 4 12 0 17 -13 17 -16 0 -17 2 -4 11 8 5 31 7
50 4 19 -2 42 -5 51 -5z"/>
</g>
</svg>
