<?xml version="1.0" standalone="no"?>
<!DOCTYPE svg PUBLIC "-//W3C//DTD SVG 20010904//EN"
 "http://www.w3.org/TR/2001/REC-SVG-20010904/DTD/svg10.dtd">
<svg version="1.0" xmlns="http://www.w3.org/2000/svg"
 width="101.000000pt" height="101.000000pt" viewBox="0 0 101.000000 101.000000"
 preserveAspectRatio="xMidYMid meet">
<metadata>
Created by potrace 1.16, written by Peter Selinger 2001-2019
</metadata>
<g transform="translate(0.000000,101.000000) scale(0.100000,-0.100000)"
fill="#000000" stroke="none">
<path d="M208 970 c5 -50 -10 -71 -46 -64 -54 9 -57 -1 -55 -165 l2 -150 -33
6 c-27 4 -34 2 -38 -15 -3 -11 -3 -31 -1 -45 4 -22 10 -25 40 -22 24 2 33 -1
29 -11 -3 -7 0 -26 7 -43 9 -25 9 -36 -1 -52 -8 -12 -15 -39 -18 -61 -3 -21
-16 -71 -30 -109 l-25 -69 32 -46 c37 -54 35 -57 81 77 25 74 33 114 35 184 2
50 3 100 4 113 1 16 6 22 16 18 8 -3 23 -1 34 4 11 6 40 8 68 4 56 -7 52 7 54
-166 2 -129 -3 -142 -54 -144 -40 -2 -43 -7 -25 -43 9 -16 16 -37 16 -46 0
-13 6 -15 33 -10 40 9 89 34 102 52 8 11 18 7 53 -23 l42 -36 89 90 88 90 25
-32 c14 -17 57 -58 96 -90 l71 -58 36 36 c20 20 40 36 45 36 24 0 5 19 -67 67
-43 29 -95 68 -116 86 l-38 33 26 58 c14 32 39 106 56 164 31 110 34 121 44
185 3 22 12 52 20 68 15 28 14 29 -15 44 -16 9 -30 13 -30 11 0 -3 -13 -1 -29
4 -37 10 -43 -2 -35 -74 4 -38 2 -60 -9 -77 -8 -13 -15 -38 -15 -55 0 -18 -17
-82 -38 -144 l-37 -112 -23 37 c-30 50 -76 192 -76 235 0 19 -3 39 -6 45 -3 5
-5 26 -3 47 2 32 -1 38 -22 43 -15 4 -38 0 -57 -10 -26 -13 -31 -21 -26 -38 4
-12 9 -33 12 -47 2 -14 6 -34 8 -45 11 -56 80 -244 107 -291 l30 -54 -46 -49
c-42 -45 -131 -111 -148 -111 -4 0 -4 38 -2 84 4 53 2 87 -5 91 -13 8 -13 52
0 60 12 7 12 153 0 160 -12 7 -11 153 0 160 6 4 10 37 9 75 l-1 68 -82 7 c-44
4 -84 9 -89 12 -4 3 1 20 13 40 11 19 18 39 15 44 -4 5 -27 9 -53 9 l-48 0 4
-40z m144 -202 c-1 -31 2 -59 8 -63 12 -7 13 -84 2 -103 -8 -11 -68 -16 -142
-11 l-25 1 0 117 0 116 80 0 80 0 -3 -57z"/>
<path d="M219 790 c-9 -6 -8 -17 2 -46 7 -22 13 -46 14 -54 5 -46 16 -59 47
-55 45 6 52 17 38 61 -7 21 -14 45 -15 54 -4 34 -17 49 -45 48 -16 -1 -34 -4
-41 -8z"/>
<path d="M613 987 c-31 -9 -32 -10 -18 -37 12 -23 40 -122 49 -170 9 -54 16
-61 58 -56 22 2 44 8 49 13 10 10 -17 110 -53 203 -23 61 -27 63 -85 47z"/>
<path d="M244 476 c-28 -10 -30 -14 -23 -35 5 -13 11 -36 13 -50 12 -85 16
-91 54 -87 19 3 39 9 43 13 11 11 -29 160 -44 166 -7 2 -26 -1 -43 -7z"/>
</g>
</svg>
