<?xml version="1.0" standalone="no"?>
<!DOCTYPE svg PUBLIC "-//W3C//DTD SVG 20010904//EN"
 "http://www.w3.org/TR/2001/REC-SVG-20010904/DTD/svg10.dtd">
<svg version="1.0" xmlns="http://www.w3.org/2000/svg"
 width="101.000000pt" height="101.000000pt" viewBox="0 0 101.000000 101.000000"
 preserveAspectRatio="xMidYMid meet">
<metadata>
Created by potrace 1.16, written by Peter Selinger 2001-2019
</metadata>
<g transform="translate(0.000000,101.000000) scale(0.100000,-0.100000)"
fill="#000000" stroke="none">
<path d="M217 983 c-3 -16 -6 -36 -6 -45 -2 -45 -4 -47 -32 -41 -16 3 -39 3
-53 -1 l-25 -6 4 -159 4 -158 -37 1 c-28 1 -37 -3 -40 -17 -10 -51 24 -86 63
-64 15 8 17 7 12 -7 -4 -9 -1 -27 5 -41 8 -18 8 -28 -1 -39 -7 -8 -14 -32 -16
-53 -7 -62 -15 -94 -37 -145 l-21 -49 33 -34 c25 -25 36 -32 42 -22 13 19 59
168 65 207 2 19 7 51 10 70 3 19 6 55 7 80 l1 45 75 3 75 2 -2 -52 c0 -29 2
-57 7 -63 4 -5 8 -36 9 -69 0 -66 -20 -116 -47 -114 -44 3 -54 -1 -46 -25 6
-19 9 -35 13 -70 2 -12 68 0 108 20 45 22 56 54 48 135 -4 35 -2 59 5 63 12 7
12 153 0 160 -12 7 -12 153 0 160 5 3 9 53 9 110 0 131 -5 139 -96 133 -35 -2
-63 -2 -63 -1 0 2 9 22 21 44 11 23 18 44 14 47 -3 3 -21 6 -40 5 -19 -1 -35
3 -35 8 0 22 -29 6 -33 -18z m128 -287 l0 -114 -78 1 -78 2 6 43 c4 27 2 42
-4 42 -6 0 -11 11 -11 25 0 14 5 25 10 25 6 0 10 18 10 39 l0 40 53 4 c28 2
61 4 72 5 19 2 20 -4 20 -112z"/>
<path d="M244 762 c-12 -8 -17 -112 -6 -128 13 -21 49 -25 66 -9 34 35 5 145
-39 145 -5 0 -15 -4 -21 -8z"/>
<path d="M670 972 c-18 -8 -26 -107 -10 -117 12 -7 12 -173 -1 -180 -12 -8
-12 -142 1 -150 13 -8 13 -52 -1 -60 -7 -5 -8 -42 -4 -115 l7 -108 -34 1 -35
1 5 63 c3 43 1 63 -7 63 -14 0 -15 87 -1 92 5 2 10 71 11 163 l1 160 -34 7
c-47 11 -78 2 -78 -22 0 -11 5 -20 10 -20 6 0 10 -32 10 -75 0 -43 -4 -75 -10
-75 -6 0 -10 -30 -10 -70 0 -40 4 -70 10 -70 6 0 10 -20 10 -45 0 -25 -4 -45
-9 -45 -6 0 -9 -44 -8 -104 l2 -104 35 5 c80 10 149 13 216 7 70 -5 71 -6 71
-35 0 -16 2 -31 4 -34 6 -6 36 -9 71 -7 l27 2 1 317 c0 174 3 326 6 337 4 18
-2 23 -38 34 -62 18 -78 9 -78 -44 0 -24 5 -44 10 -44 6 0 10 -32 10 -75 0
-43 -4 -75 -10 -75 -14 0 -13 -137 1 -142 8 -3 9 -28 4 -85 l-7 -82 -39 2 -39
1 7 153 c4 113 3 153 -5 153 -7 0 -12 11 -12 25 0 14 5 25 10 25 6 0 10 30 10
70 0 40 -4 70 -10 70 -5 0 -10 16 -10 35 0 19 5 35 10 35 6 0 10 25 10 56 0
30 5 65 11 76 9 16 8 23 -2 29 -16 10 -67 11 -89 1z"/>
<path d="M247 463 c-15 -4 -17 -12 -11 -56 3 -29 6 -64 6 -79 1 -48 67 -47 70
1 4 78 -15 145 -42 140 -3 -1 -13 -3 -23 -6z"/>
</g>
</svg>
