<?xml version="1.0" standalone="no"?>
<!DOCTYPE svg PUBLIC "-//W3C//DTD SVG 20010904//EN"
 "http://www.w3.org/TR/2001/REC-SVG-20010904/DTD/svg10.dtd">
<svg version="1.0" xmlns="http://www.w3.org/2000/svg"
 width="101.000000pt" height="101.000000pt" viewBox="0 0 101.000000 101.000000"
 preserveAspectRatio="xMidYMid meet">
<metadata>
Created by potrace 1.16, written by Peter Selinger 2001-2019
</metadata>
<g transform="translate(0.000000,101.000000) scale(0.100000,-0.100000)"
fill="#000000" stroke="none">
<path d="M225 979 c-9 -25 -12 -43 -14 -69 -1 -12 -10 -15 -35 -12 -55 6 -76
-11 -76 -63 0 -25 5 -45 10 -45 6 0 10 -11 10 -25 0 -14 -5 -25 -11 -25 -8 0
-10 -26 -7 -85 2 -47 3 -85 1 -85 -3 0 -12 4 -21 9 -29 15 -62 -5 -62 -36 0
-42 11 -51 53 -48 30 3 37 0 33 -11 -3 -8 0 -25 6 -39 8 -18 8 -28 -1 -39 -6
-7 -14 -31 -16 -52 -8 -57 -33 -129 -57 -159 l-21 -26 34 -29 c19 -16 37 -29
41 -30 16 0 73 137 84 200 6 40 17 148 17 168 -1 17 3 22 14 18 8 -3 23 -1 34
4 11 6 40 8 68 4 56 -7 51 6 54 -161 2 -130 -2 -138 -68 -135 -48 2 -52 -2
-30 -32 8 -11 15 -28 15 -38 0 -30 38 -37 94 -17 27 10 54 23 60 29 12 12 27
226 23 352 l-2 97 18 -30 c20 -30 36 -38 38 -16 1 11 7 -15 25 -108 7 -37 7
-160 1 -238 -4 -44 -1 -62 11 -77 17 -19 68 -34 107 -31 11 1 58 2 105 4 103
2 133 18 162 84 11 24 18 46 16 49 -2 2 -24 17 -48 33 l-45 30 -18 -49 c-16
-45 -22 -51 -60 -61 -30 -8 -50 -8 -70 -1 -16 6 -34 9 -41 6 -30 -11 -38 24
-38 163 0 197 -9 178 83 181 l77 2 -3 -42 c-2 -24 -6 -52 -9 -63 -2 -11 -5
-23 -5 -27 -1 -4 -21 -7 -46 -6 -24 1 -47 0 -50 -3 -3 -3 1 -19 10 -35 8 -16
15 -37 15 -47 0 -14 7 -16 33 -13 51 6 104 32 122 59 11 17 17 56 20 127 3 57
7 105 10 108 3 3 14 -3 26 -14 21 -19 21 -19 45 11 48 58 48 58 -21 103 -35
23 -77 60 -94 81 -46 58 -83 144 -75 175 3 14 2 26 -2 27 -5 0 -18 3 -29 5
-11 3 -34 7 -51 10 -33 4 -33 5 -50 -79 -15 -70 -96 -217 -146 -264 l-23 -22
0 124 c0 68 -3 127 -7 131 -5 4 -42 8 -83 8 -82 1 -88 7 -54 50 26 33 18 43
-37 52 -37 5 -42 4 -49 -17z m504 -187 c16 -32 50 -83 75 -114 l45 -56 -137 2
-138 1 40 65 c21 35 48 86 59 112 11 27 21 48 23 48 2 0 17 -26 33 -58z m-374
-105 l0 -118 -81 3 -82 3 -6 54 c-4 34 -2 58 5 67 6 7 9 35 7 61 l-3 48 80 0
80 0 0 -118z"/>
<path d="M258 766 c-27 -10 -38 -26 -18 -26 7 0 9 -20 6 -54 -7 -69 8 -93 47
-75 30 13 44 48 32 76 -4 10 -7 30 -6 45 3 34 -23 49 -61 34z"/>
<path d="M242 449 c-13 -5 -20 -14 -17 -19 4 -6 9 -28 11 -48 3 -20 6 -46 8
-57 3 -11 5 -23 5 -26 1 -6 34 -5 74 0 11 1 -6 137 -19 150 -9 9 -39 9 -62 0z"/>
</g>
</svg>
