<?xml version="1.0" standalone="no"?>
<!DOCTYPE svg PUBLIC "-//W3C//DTD SVG 20010904//EN"
 "http://www.w3.org/TR/2001/REC-SVG-20010904/DTD/svg10.dtd">
<svg version="1.0" xmlns="http://www.w3.org/2000/svg"
 width="101.000000pt" height="101.000000pt" viewBox="0 0 101.000000 101.000000"
 preserveAspectRatio="xMidYMid meet">
<metadata>
Created by potrace 1.16, written by Peter Selinger 2001-2019
</metadata>
<g transform="translate(0.000000,101.000000) scale(0.100000,-0.100000)"
fill="#000000" stroke="none">
<path d="M247 987 c3 -14 -2 -36 -11 -50 -9 -13 -16 -29 -15 -33 4 -25 -4 -30
-48 -28 -27 2 -50 -2 -54 -8 -6 -10 -5 -81 5 -231 4 -54 3 -57 -17 -56 -56 5
-70 -11 -60 -65 5 -24 9 -26 44 -22 l38 4 -5 -35 c-2 -19 -6 -39 -9 -43 -3 -5
0 -20 6 -34 9 -18 9 -29 1 -38 -5 -7 -13 -30 -17 -50 -4 -21 -20 -58 -37 -84
l-29 -47 32 -33 c18 -19 36 -34 40 -34 9 0 43 81 65 155 10 33 19 92 21 130 5
120 4 117 20 111 8 -3 23 -1 34 5 12 6 37 8 59 4 30 -5 38 -11 39 -28 0 -12 3
-60 6 -107 3 -47 2 -105 -3 -130 -7 -41 -10 -45 -40 -46 -18 -1 -35 -4 -38 -7
-2 -2 1 -24 7 -49 13 -49 17 -50 87 -28 67 21 72 34 72 197 0 89 -4 143 -10
143 -13 0 -13 87 -1 92 6 2 11 76 12 168 l2 164 -29 8 c-16 5 -40 5 -54 2 -54
-15 -58 -13 -49 24 4 18 14 41 23 51 14 15 22 40 14 41 -2 1 -26 3 -54 6 -50
5 -51 5 -47 -19z m98 -304 l0 -112 -37 -6 c-20 -4 -46 -2 -57 4 -11 6 -27 8
-36 5 -14 -6 -16 5 -13 107 l3 114 70 0 70 0 0 -112z"/>
<path d="M244 740 c-19 -8 -21 -13 -13 -47 5 -21 11 -50 14 -64 5 -26 6 -27
45 -17 45 12 46 14 25 86 -16 54 -27 60 -71 42z"/>
<path d="M706 987 c-14 -10 -17 -20 -11 -38 5 -13 7 -47 6 -75 -1 -29 2 -55 8
-59 11 -6 14 -142 4 -158 -3 -4 -11 -3 -18 3 -7 6 -34 9 -61 7 l-49 -2 2 115
c1 63 4 131 7 151 5 33 3 38 -23 49 -36 15 -68 6 -76 -21 -9 -27 3 -109 16
-109 5 0 9 -34 9 -75 0 -43 -4 -75 -10 -75 -6 0 -10 -30 -10 -70 0 -40 4 -70
10 -70 6 0 10 -20 10 -45 0 -25 -4 -45 -10 -45 -6 0 -9 -44 -8 -112 2 -108 0
-122 -16 -159 -4 -10 2 -31 14 -52 l21 -35 87 70 c48 38 85 75 84 81 -2 7 -6
25 -8 41 -2 16 -6 31 -8 34 -3 3 -25 -13 -48 -34 l-43 -38 -8 59 c-4 33 -5 96
-2 140 3 44 6 89 6 100 1 17 8 20 52 18 34 -1 55 4 62 13 7 11 9 1 6 -37 -2
-29 2 -56 8 -62 13 -13 15 -54 2 -61 -13 -8 -12 -114 0 -122 7 -4 10 -38 7
-88 l-3 -81 37 -18 c30 -15 41 -16 59 -7 12 7 34 9 50 6 46 -9 78 9 99 56 27
59 25 66 -16 83 -50 21 -51 20 -61 -22 -8 -36 -11 -38 -48 -38 l-40 0 -7 70
c-7 60 -4 181 4 251 3 22 128 162 163 182 19 12 19 13 -10 37 -35 29 -68 42
-72 28 -2 -6 -21 -34 -42 -62 l-39 -52 3 143 c2 79 6 150 10 159 8 20 1 25
-45 34 -23 4 -41 1 -54 -8z"/>
<path d="M238 453 c-10 -2 -18 -5 -18 -6 0 -1 7 -24 15 -51 8 -26 13 -51 11
-55 -12 -19 13 -32 49 -25 41 7 41 8 14 106 -10 39 -22 44 -71 31z"/>
</g>
</svg>
