<?xml version="1.0" standalone="no"?>
<!DOCTYPE svg PUBLIC "-//W3C//DTD SVG 20010904//EN"
 "http://www.w3.org/TR/2001/REC-SVG-20010904/DTD/svg10.dtd">
<svg version="1.0" xmlns="http://www.w3.org/2000/svg"
 width="101.000000pt" height="101.000000pt" viewBox="0 0 101.000000 101.000000"
 preserveAspectRatio="xMidYMid meet">
<metadata>
Created by potrace 1.16, written by Peter Selinger 2001-2019
</metadata>
<g transform="translate(0.000000,101.000000) scale(0.100000,-0.100000)"
fill="#000000" stroke="none">
<path d="M237 986 c4 -17 -1 -34 -11 -45 -10 -11 -16 -27 -14 -38 3 -15 -3
-18 -44 -17 -43 2 -47 0 -52 -25 -3 -14 -4 -83 -3 -152 l3 -127 -33 1 c-40 1
-46 -5 -46 -43 0 -39 6 -44 49 -43 26 1 34 -3 30 -12 -3 -8 0 -27 7 -44 9 -24
9 -36 0 -51 -7 -10 -15 -34 -18 -52 -9 -51 -14 -69 -37 -120 l-21 -47 29 -35
c16 -19 32 -35 35 -35 13 -2 63 135 76 204 3 19 12 124 14 173 1 16 6 22 16
18 8 -3 24 -1 35 5 32 17 85 3 88 -24 5 -62 3 -267 -3 -273 -3 -4 -17 -8 -29
-9 -13 -1 -28 -3 -34 -4 -17 -2 17 -90 36 -94 37 -8 110 43 110 77 0 17 4 15
23 -11 12 -17 27 -40 34 -50 10 -16 13 -14 31 26 l20 43 27 -46 c15 -25 30
-46 33 -46 4 0 40 32 81 70 74 71 74 71 95 51 26 -24 132 -91 143 -91 8 1 66
91 61 95 -2 1 -24 9 -49 17 -25 9 -64 27 -87 42 l-41 26 20 47 c41 97 69 210
83 346 6 53 -3 74 -19 47 -9 -15 -122 -13 -129 3 -5 10 -7 10 -12 0 -7 -15
-74 -18 -74 -3 0 6 -15 10 -34 10 -32 0 -34 2 -38 40 -3 36 -1 40 19 40 12 0
29 7 37 16 11 11 33 15 73 14 32 -1 81 1 108 5 28 3 62 6 78 6 35 -2 34 11 -5
60 -22 27 -37 38 -49 34 -10 -3 -28 -8 -41 -11 -13 -3 -30 -7 -38 -9 -71 -19
-128 -27 -192 -25 -66 1 -104 -24 -94 -64 4 -17 7 -326 4 -476 -1 -41 -28
-133 -46 -158 -16 -21 -17 -13 -19 156 -4 253 -1 431 7 467 9 37 1 42 -69 41
-66 -1 -69 0 -58 19 6 11 9 20 6 20 -2 0 3 15 10 33 8 18 12 35 9 37 -2 3 -25
8 -50 11 -45 6 -46 6 -41 -20z m98 -298 l0 -108 -31 -6 c-18 -3 -41 -1 -52 5
-11 6 -28 8 -38 4 -15 -6 -16 -1 -11 42 4 26 7 62 8 79 0 29 1 28 14 -13 8
-25 12 -48 10 -51 -2 -4 1 -14 8 -23 9 -13 19 -15 42 -9 32 9 35 23 20 87 -3
17 -7 39 -8 50 -2 20 -10 22 -59 12 -16 -3 -28 -2 -28 3 0 5 -2 14 -5 22 -4
10 10 13 62 14 l68 0 0 -108z m458 -48 c-9 -97 -45 -250 -58 -250 -9 0 -29 95
-40 180 -1 14 -6 40 -9 58 -6 29 -4 33 11 28 10 -3 25 -1 33 4 8 6 26 9 40 8
20 -2 25 -8 23 -28z m-196 -12 c1 -18 4 -49 7 -68 3 -19 7 -47 10 -61 2 -14
18 -66 35 -115 l30 -89 -22 -24 c-23 -25 -105 -81 -118 -81 -5 0 -1 21 7 48
21 64 25 96 29 247 2 72 5 140 6 153 2 34 15 26 16 -10z"/>
<path d="M241 439 c-19 -8 -22 -14 -16 -37 4 -15 9 -42 10 -61 5 -44 16 -54
55 -46 28 6 31 10 27 38 -9 61 -28 117 -40 116 -7 0 -23 -5 -36 -10z"/>
</g>
</svg>
