<?xml version="1.0" standalone="no"?>
<!DOCTYPE svg PUBLIC "-//W3C//DTD SVG 20010904//EN"
 "http://www.w3.org/TR/2001/REC-SVG-20010904/DTD/svg10.dtd">
<svg version="1.0" xmlns="http://www.w3.org/2000/svg"
 width="101.000000pt" height="102.000000pt" viewBox="0 0 101.000000 102.000000"
 preserveAspectRatio="xMidYMid meet">
<metadata>
Created by potrace 1.16, written by Peter Selinger 2001-2019
</metadata>
<g transform="translate(0.000000,102.000000) scale(0.100000,-0.100000)"
fill="#000000" stroke="none">
<path d="M229 1008 c-1 -7 -3 -22 -5 -33 -5 -23 -12 -67 -13 -77 -1 -3 -10 -4
-21 -1 -11 3 -31 2 -45 -1 l-25 -6 3 -158 4 -157 -38 3 c-30 3 -39 0 -49 -18
-6 -12 -9 -32 -6 -45 5 -21 10 -23 52 -19 38 3 45 1 40 -11 -3 -8 0 -26 6 -40
8 -19 8 -35 -2 -67 -7 -24 -15 -56 -17 -73 -6 -33 -37 -98 -64 -134 -21 -27
-24 -41 -8 -41 6 0 25 -10 41 -22 l31 -21 18 22 c32 39 72 179 75 266 2 44 4
90 5 103 1 16 6 22 16 18 8 -3 23 -1 34 5 11 6 39 7 63 4 36 -6 44 -11 45 -28
0 -12 3 -62 6 -112 3 -49 1 -103 -3 -120 -8 -29 -11 -30 -61 -29 -43 0 -51 -2
-45 -15 4 -9 13 -35 21 -58 13 -37 18 -41 42 -38 38 4 94 29 110 49 11 13 12
47 6 175 -5 108 -3 161 4 165 12 8 13 114 0 122 -12 7 -11 51 1 59 5 3 9 52 8
111 -1 121 0 120 -107 112 l-59 -4 11 25 c6 14 18 34 26 44 20 24 1 41 -44 40
-19 -1 -35 3 -35 8 0 14 -20 11 -21 -3z m133 -248 c-1 -33 2 -61 8 -65 11 -7
14 -94 2 -111 -4 -7 -36 -11 -82 -10 l-75 1 0 120 0 120 75 1 75 2 -3 -58z"/>
<path d="M251 758 c-5 -13 -5 -29 -1 -37 4 -8 5 -31 3 -51 -8 -58 43 -93 81
-54 18 17 21 50 6 59 -5 3 -7 11 -4 19 6 16 -13 68 -29 78 -23 14 -48 8 -56
-14z"/>
<path d="M644 983 c-3 -18 -4 -42 -1 -53 3 -11 1 -23 -5 -26 -5 -3 -7 -15 -5
-26 7 -24 -15 -33 -43 -18 -12 6 -33 9 -46 6 -21 -6 -24 -12 -24 -56 0 -28 5
-50 10 -50 6 0 10 -32 10 -75 0 -43 -4 -75 -10 -75 -6 0 -10 -30 -10 -70 0
-40 4 -70 10 -70 6 0 10 -20 10 -45 0 -25 -5 -45 -11 -45 -7 0 -9 -46 -7 -139
3 -153 3 -153 65 -144 37 6 46 23 33 59 -14 36 -13 42 13 43 12 1 47 3 77 6
74 6 110 -2 108 -23 -6 -78 7 -94 69 -85 l31 5 2 169 c0 111 -3 169 -10 169
-5 0 -10 20 -10 45 0 25 5 45 10 45 6 0 10 30 10 70 0 40 -4 70 -10 70 -6 0
-10 32 -10 75 0 43 4 75 10 75 6 0 10 8 10 19 0 16 -12 19 -92 25 -51 4 -94 9
-97 12 -3 2 6 26 19 52 14 26 26 50 28 54 5 11 -64 37 -97 36 -27 -1 -32 -6
-37 -35z m172 -313 l1 -109 -26 -5 c-14 -3 -51 -3 -81 -1 -30 3 -65 5 -78 6
-23 1 -23 3 -20 103 l3 101 75 6 c41 3 86 6 100 7 l25 2 1 -110z m-25 -177
c30 -5 29 -1 32 -130 1 -45 -2 -85 -6 -90 -7 -7 -104 -8 -184 -2 -27 1 -35 36
-28 119 3 30 5 65 6 78 1 16 6 21 18 18 9 -3 23 -1 31 4 15 10 84 11 131 3z"/>
<path d="M257 463 c-14 -4 -16 -12 -11 -51 3 -26 7 -65 8 -87 1 -35 4 -39 26
-38 62 1 61 0 55 51 -6 64 -14 114 -17 117 -8 7 -45 12 -61 8z"/>
</g>
</svg>
