<?xml version="1.0" standalone="no"?>
<!DOCTYPE svg PUBLIC "-//W3C//DTD SVG 20010904//EN"
 "http://www.w3.org/TR/2001/REC-SVG-20010904/DTD/svg10.dtd">
<svg version="1.0" xmlns="http://www.w3.org/2000/svg"
 width="101.000000pt" height="101.000000pt" viewBox="0 0 101.000000 101.000000"
 preserveAspectRatio="xMidYMid meet">
<metadata>
Created by potrace 1.16, written by Peter Selinger 2001-2019
</metadata>
<g transform="translate(0.000000,101.000000) scale(0.100000,-0.100000)"
fill="#000000" stroke="none">
<path d="M238 1003 c-9 -2 -15 -10 -12 -18 3 -7 -1 -24 -10 -37 -15 -23 -16
-26 -16 -49 0 -7 -10 -9 -26 -5 -14 4 -34 4 -45 1 -18 -6 -18 -15 -14 -162 5
-146 4 -155 -12 -148 -20 9 -52 9 -61 1 -8 -8 -7 -65 2 -73 3 -4 22 -7 40 -6
34 1 34 1 30 -41 -4 -41 -7 -63 -18 -122 -8 -43 -32 -110 -52 -144 -17 -28
-17 -28 21 -64 21 -20 39 -36 41 -36 12 0 72 152 81 205 3 17 9 88 14 183 1
16 6 22 16 18 8 -3 23 -1 34 5 11 6 39 7 63 4 36 -6 44 -11 45 -28 1 -12 3
-65 6 -117 6 -109 -5 -144 -45 -146 -60 -3 -62 -4 -55 -21 4 -10 9 -29 10 -43
4 -37 4 -37 25 -43 29 -7 119 22 130 42 14 27 23 208 10 216 -13 8 -13 52 0
60 12 7 12 153 0 160 -12 7 -11 153 0 160 6 4 10 35 9 70 l-2 64 -79 7 -78 7
25 33 c31 40 31 50 3 57 -13 3 -32 8 -43 10 -11 3 -28 3 -37 0z m117 -302 l0
-119 -42 -7 c-24 -3 -51 -1 -62 4 -11 6 -26 9 -33 6 -10 -4 -13 18 -13 109 l0
115 45 4 c25 2 59 4 75 5 l30 2 0 -119z"/>
<path d="M246 761 c-8 -13 -4 -106 5 -123 10 -18 45 -24 65 -10 16 10 17 117
2 130 -14 11 -66 13 -72 3z"/>
<path d="M482 891 c-21 -13 -26 -66 -7 -84 9 -10 20 -15 25 -12 5 3 68 7 139
10 l131 4 0 -30 c0 -16 5 -29 10 -29 6 0 10 -32 10 -75 0 -43 -4 -75 -10 -75
-6 0 -10 -30 -10 -70 0 -40 4 -70 10 -70 6 0 10 -20 10 -45 0 -27 -5 -45 -11
-45 -9 0 -10 -21 -6 -70 7 -79 -8 -107 -47 -95 -21 7 -56 9 -61 3 -2 -2 4 -27
13 -56 l17 -52 50 4 c63 5 100 20 109 41 3 10 9 78 13 151 4 98 3 134 -5 134
-7 0 -12 18 -12 45 0 25 5 45 10 45 6 0 10 30 10 70 0 40 -4 70 -10 70 -6 0
-10 31 -10 73 l0 74 55 -4 c51 -3 55 -1 61 21 13 54 0 64 -92 71 -59 5 -89 4
-97 -4 -14 -14 -54 -15 -62 -1 -7 11 -215 13 -233 1z"/>
<path d="M495 690 c-7 -30 2 -371 10 -378 3 -3 19 -5 36 -5 33 0 52 18 44 44
-4 11 3 15 30 16 29 1 35 -2 31 -15 -10 -32 15 -49 65 -44 13 2 16 17 17 82 0
44 -3 80 -9 80 -12 0 -12 67 0 72 8 2 15 95 12 160 -1 14 -15 17 -115 16
l-115 0 -6 -28z m148 -105 c0 -27 3 -55 9 -62 6 -7 7 -29 3 -52 -6 -39 -7 -40
-46 -38 l-39 1 2 101 3 100 35 0 35 0 -2 -50z"/>
<path d="M248 463 c-13 -3 -16 -13 -11 -46 2 -23 6 -53 8 -67 1 -14 3 -28 4
-31 1 -7 54 -5 67 3 11 7 11 57 0 111 -8 38 -20 43 -68 30z"/>
</g>
</svg>
