<?xml version="1.0" standalone="no"?>
<!DOCTYPE svg PUBLIC "-//W3C//DTD SVG 20010904//EN"
 "http://www.w3.org/TR/2001/REC-SVG-20010904/DTD/svg10.dtd">
<svg version="1.0" xmlns="http://www.w3.org/2000/svg"
 width="101.000000pt" height="101.000000pt" viewBox="0 0 101.000000 101.000000"
 preserveAspectRatio="xMidYMid meet">
<metadata>
Created by potrace 1.16, written by Peter Selinger 2001-2019
</metadata>
<g transform="translate(0.000000,101.000000) scale(0.100000,-0.100000)"
fill="#000000" stroke="none">
<path d="M217 987 c3 -14 -2 -35 -11 -48 -8 -13 -16 -28 -18 -34 -2 -5 -24 -9
-50 -7 l-47 2 4 -153 4 -154 -29 2 c-32 2 -41 -15 -33 -59 5 -24 16 -30 51
-29 8 1 11 -5 8 -13 -3 -8 0 -25 6 -39 8 -18 8 -28 -1 -39 -6 -7 -13 -28 -16
-46 -7 -60 -17 -95 -42 -148 l-25 -54 33 -28 c19 -16 37 -29 40 -30 13 0 63
136 76 205 3 17 10 112 14 183 1 16 6 22 16 18 8 -3 23 -1 34 5 12 6 37 8 59
4 30 -5 38 -11 39 -28 0 -12 3 -62 6 -112 3 -49 1 -103 -3 -120 -8 -27 -13
-30 -50 -31 -23 0 -45 -3 -48 -6 -3 -4 2 -20 10 -37 9 -17 16 -34 15 -38 -6
-34 9 -36 88 -14 62 17 66 31 58 196 -5 98 -4 144 3 149 13 8 14 114 1 122
-12 7 -11 51 1 59 6 4 10 43 10 88 0 45 1 96 3 112 l2 30 -82 0 c-78 0 -81 1
-71 20 6 11 20 30 31 42 23 26 21 32 -14 38 -13 3 -36 7 -50 10 -24 5 -26 3
-22 -18z m108 -282 l0 -114 -37 -6 c-20 -4 -46 -2 -57 4 -11 6 -27 8 -36 5
-14 -6 -16 5 -13 107 l3 114 70 2 70 3 0 -115z"/>
<path d="M225 777 c-17 -9 -21 -37 -5 -37 6 0 8 -19 5 -46 -5 -58 1 -74 30
-74 35 0 58 28 50 59 -4 14 -8 35 -10 46 -6 59 -29 76 -70 52z"/>
<path d="M642 968 c0 -24 4 -48 10 -55 5 -7 7 -50 2 -106 l-7 -95 -82 6 -83 5
-7 -31 c-3 -18 -3 -37 1 -43 9 -15 17 -146 15 -236 -1 -10 1 -46 4 -81 2 -39
-1 -77 -10 -103 -11 -30 -12 -46 -4 -61 6 -11 8 -30 5 -43 -7 -27 12 -35 62
-27 28 4 32 7 25 26 -6 18 -7 98 -2 172 1 15 8 22 23 23 11 0 53 3 91 6 87 7
139 -1 131 -20 -2 -7 0 -27 7 -44 16 -43 -6 -64 -68 -65 -25 0 -44 -2 -43 -6
2 -3 11 -26 22 -52 19 -49 20 -50 93 -33 63 14 69 30 76 172 3 70 6 199 6 285
-1 145 -2 158 -20 163 -10 4 -24 3 -30 0 -6 -4 -37 -8 -69 -9 l-58 -1 -7 69
c-4 40 -3 71 3 75 5 3 11 39 14 79 l5 72 -53 0 -53 0 1 -42z m173 -373 c0 -42
-2 -45 -30 -50 -16 -3 -61 -3 -100 0 -38 3 -79 6 -90 6 -16 1 -20 8 -20 38 l0
36 60 6 c33 3 87 6 120 7 l60 2 0 -45z m-25 -111 c22 -4 26 -10 28 -49 1 -42
0 -44 -31 -50 -17 -3 -63 -3 -102 0 -38 3 -80 6 -92 6 -20 1 -22 6 -21 45 2
34 6 43 18 39 8 -2 21 -1 29 4 15 10 132 13 171 5z"/>
<path d="M815 873 c-22 -47 -41 -90 -43 -94 -3 -7 67 -34 72 -27 2 1 26 40 54
85 l51 83 -27 14 c-64 32 -64 32 -107 -61z"/>
<path d="M478 932 c-37 -14 -49 -34 -28 -47 5 -3 26 -35 46 -70 19 -36 38 -65
40 -65 3 0 23 9 44 20 l39 20 -45 75 c-25 41 -48 76 -52 78 -4 2 -24 -3 -44
-11z"/>
<path d="M223 482 c-12 -8 -11 -43 6 -156 2 -12 63 2 73 17 4 6 5 20 2 30 -3
11 -7 29 -9 40 -7 56 -17 77 -39 77 -11 0 -27 -4 -33 -8z"/>
</g>
</svg>
