<?xml version="1.0" standalone="no"?>
<!DOCTYPE svg PUBLIC "-//W3C//DTD SVG 20010904//EN"
 "http://www.w3.org/TR/2001/REC-SVG-20010904/DTD/svg10.dtd">
<svg version="1.0" xmlns="http://www.w3.org/2000/svg"
 width="101.000000pt" height="102.000000pt" viewBox="0 0 101.000000 102.000000"
 preserveAspectRatio="xMidYMid meet">
<metadata>
Created by potrace 1.16, written by Peter Selinger 2001-2019
</metadata>
<g transform="translate(0.000000,102.000000) scale(0.100000,-0.100000)"
fill="#000000" stroke="none">
<path d="M310 958 c-42 -72 -132 -173 -200 -223 -28 -20 -50 -40 -50 -43 0 -4
16 -20 36 -36 l36 -28 27 26 c32 31 31 34 31 -91 0 -45 4 -84 10 -88 12 -8 13
-52 1 -59 -13 -8 -12 -108 1 -123 6 -8 9 -39 5 -78 -4 -58 -2 -67 16 -80 11
-8 24 -12 28 -9 4 2 10 0 14 -6 8 -13 85 -13 85 0 0 15 67 12 74 -2 5 -11 7
-11 12 0 7 15 164 17 164 2 0 -5 18 -10 40 -10 22 0 40 5 40 10 0 6 35 9 89 8
83 -3 91 -1 116 22 29 27 55 71 55 93 0 16 -80 68 -92 60 -5 -2 -8 -13 -8 -24
0 -35 -50 -75 -104 -83 -36 -6 -51 -4 -58 6 -7 10 -11 10 -15 1 -6 -15 -73
-18 -73 -3 0 6 -18 10 -40 10 -22 0 -40 -4 -40 -10 0 -5 -16 -10 -35 -10 -19
0 -35 4 -35 10 0 5 -33 10 -72 12 -40 2 -72 6 -70 11 1 4 2 49 2 100 l0 92 80
2 c44 2 106 2 138 2 31 0 96 0 144 0 48 0 87 -3 87 -7 -4 -22 4 -31 31 -37 16
-4 38 -4 47 -1 19 6 18 -3 24 325 1 13 -5 27 -13 32 -15 10 -72 12 -80 3 -11
-10 -137 -10 -129 1 74 94 121 159 121 166 0 13 -17 11 -26 -2 -4 -7 -20 -8
-43 -4 -20 3 -94 7 -164 8 l-128 2 42 36 c39 34 41 37 23 46 -10 6 -32 13 -49
17 -16 4 -37 9 -45 11 -10 3 -27 -16 -50 -57z m237 -136 l42 -7 -33 -44 -32
-43 -110 2 c-60 1 -123 2 -141 3 l-32 2 39 40 c37 38 43 40 89 38 28 -2 53 1
56 7 7 11 59 12 122 2z m-82 -251 c1 -81 1 -81 -107 -81 -77 0 -75 -3 -62 93
7 51 6 50 129 55 l40 2 0 -69z m290 -3 l0 -70 -35 6 c-19 3 -63 6 -97 6 l-62
0 2 63 2 62 95 2 95 1 0 -70z"/>
</g>
</svg>
