<?xml version="1.0" standalone="no"?>
<!DOCTYPE svg PUBLIC "-//W3C//DTD SVG 20010904//EN"
 "http://www.w3.org/TR/2001/REC-SVG-20010904/DTD/svg10.dtd">
<svg version="1.0" xmlns="http://www.w3.org/2000/svg"
 width="101.000000pt" height="101.000000pt" viewBox="0 0 101.000000 101.000000"
 preserveAspectRatio="xMidYMid meet">
<metadata>
Created by potrace 1.16, written by Peter Selinger 2001-2019
</metadata>
<g transform="translate(0.000000,101.000000) scale(0.100000,-0.100000)"
fill="#000000" stroke="none">
<path d="M468 974 c-14 -5 -16 -21 -12 -147 3 -78 4 -187 4 -242 -1 -55 -1
-160 -1 -233 1 -108 -2 -139 -15 -162 -17 -27 -16 -29 7 -58 13 -17 26 -30 29
-29 3 1 51 25 107 52 l103 50 -5 40 c-2 22 -4 43 -4 47 -1 4 -30 -9 -66 -28
l-66 -36 7 66 c5 47 3 66 -5 66 -6 0 -11 16 -11 35 0 19 5 35 10 35 6 0 10 26
10 58 0 54 1 57 24 57 22 0 27 -7 41 -65 27 -107 72 -188 146 -261 84 -84 97
-88 139 -49 18 16 36 30 41 30 23 0 4 21 -43 48 -29 16 -70 45 -92 64 l-38 33
71 68 c39 36 71 71 71 76 0 5 -12 17 -27 27 -16 10 -22 19 -15 22 9 3 10 33 5
123 -4 87 -3 119 5 119 7 0 12 16 12 40 0 22 -5 40 -11 40 -7 0 -10 21 -7 58
l3 57 -105 -3 c-178 -5 -234 -5 -265 1 -16 3 -37 3 -47 1z m328 -134 l0 -45
-120 0 -121 0 0 45 0 45 120 0 120 0 1 -45z m-6 -145 c0 -11 3 -29 6 -41 5
-20 2 -20 -120 -20 l-125 1 2 40 2 40 118 0 c110 0 117 -1 117 -20z m34 -173
c-26 -41 -86 -112 -93 -112 -7 0 -29 54 -36 87 -2 10 -6 25 -9 33 -5 13 7 15
75 17 l80 1 -17 -26z"/>
<path d="M55 913 c-20 -19 -19 -48 1 -68 15 -14 32 -16 123 -10 l106 7 -3 -48
c-2 -27 -5 -68 -5 -91 -1 -23 -5 -45 -9 -49 -5 -4 -8 -16 -8 -26 0 -32 -16
-19 -64 52 -50 76 -49 76 -105 31 l-24 -19 65 -82 c36 -45 68 -93 71 -106 3
-17 -7 -43 -33 -82 -36 -55 -136 -162 -152 -162 -5 0 -8 -4 -8 -10 0 -5 6 -10
14 -10 7 0 29 -11 49 -25 l37 -24 55 71 c31 40 68 92 82 116 l26 45 34 -67 33
-66 40 20 c21 11 41 24 45 30 3 6 -18 45 -48 88 -55 80 -61 102 -38 161 9 25
18 70 27 136 3 17 9 61 15 99 15 102 17 100 -105 92 -65 -5 -106 -4 -110 3
-10 15 -94 11 -111 -6z"/>
</g>
</svg>
