<?xml version="1.0" standalone="no"?>
<!DOCTYPE svg PUBLIC "-//W3C//DTD SVG 20010904//EN"
 "http://www.w3.org/TR/2001/REC-SVG-20010904/DTD/svg10.dtd">
<svg version="1.0" xmlns="http://www.w3.org/2000/svg"
 width="101.000000pt" height="101.000000pt" viewBox="0 0 101.000000 101.000000"
 preserveAspectRatio="xMidYMid meet">
<metadata>
Created by potrace 1.16, written by Peter Selinger 2001-2019
</metadata>
<g transform="translate(0.000000,101.000000) scale(0.100000,-0.100000)"
fill="#000000" stroke="none">
<path d="M328 1003 c-15 -4 -18 -15 -15 -66 l2 -62 -80 3 c-44 1 -96 5 -115 8
-19 2 -41 1 -48 -4 -16 -11 -26 -73 -14 -90 14 -21 76 -26 95 -8 11 12 35 16
85 16 69 0 70 0 74 -29 2 -16 1 -37 -3 -47 -11 -33 8 -54 49 -54 55 0 62 8 59
73 l-3 57 70 0 c87 0 100 -7 86 -44 -14 -37 -13 -52 6 -70 16 -17 70 -21 91
-8 7 4 11 26 9 55 l-3 47 76 2 c42 2 101 2 132 1 56 -1 57 -1 63 29 8 42 8 45
-10 62 -16 17 -65 22 -78 9 -4 -5 -47 -8 -94 -8 l-87 0 2 35 c1 19 4 45 7 58
3 13 0 22 -7 23 -77 6 -108 3 -113 -13 -3 -10 -2 -23 1 -29 4 -6 8 -26 9 -44
l1 -33 -80 1 -80 2 2 30 c1 17 5 42 9 57 5 24 2 29 -21 38 -27 10 -47 11 -77
3z"/>
<path d="M130 624 c-24 -62 -8 -86 51 -78 24 3 89 6 144 5 55 0 138 -1 185 -1
l85 -1 -80 -44 c-258 -140 -366 -247 -335 -330 13 -35 98 -72 150 -66 14 2
112 2 280 2 170 -1 208 4 234 28 14 13 34 50 45 81 l19 58 -29 12 c-15 7 -34
18 -40 26 -20 25 -37 15 -44 -26 -10 -61 -34 -84 -91 -86 -27 -2 -78 -8 -112
-14 -35 -6 -74 -7 -85 -3 -12 4 -44 8 -72 10 -184 9 -187 33 -17 145 107 69
332 188 357 188 40 0 60 73 29 104 -17 18 -94 22 -94 6 0 -6 -33 -10 -80 -10
-47 0 -80 4 -80 10 0 6 -18 10 -40 10 -22 0 -40 -4 -40 -10 0 -15 -157 -13
-164 3 -5 10 -7 10 -12 0 -7 -15 -74 -18 -74 -3 0 6 -18 10 -40 10 -34 0 -42
-4 -50 -26z"/>
</g>
</svg>
