<?xml version="1.0" standalone="no"?>
<!DOCTYPE svg PUBLIC "-//W3C//DTD SVG 20010904//EN"
 "http://www.w3.org/TR/2001/REC-SVG-20010904/DTD/svg10.dtd">
<svg version="1.0" xmlns="http://www.w3.org/2000/svg"
 width="101.000000pt" height="101.000000pt" viewBox="0 0 101.000000 101.000000"
 preserveAspectRatio="xMidYMid meet">
<metadata>
Created by potrace 1.16, written by Peter Selinger 2001-2019
</metadata>
<g transform="translate(0.000000,101.000000) scale(0.100000,-0.100000)"
fill="#000000" stroke="none">
<path d="M574 941 l1 -70 -86 2 -87 2 4 40 c2 22 6 49 9 60 6 18 1 20 -54 20
l-61 0 5 -62 5 -63 -101 5 c-55 3 -105 8 -111 11 -5 3 -20 3 -33 0 -26 -7 -41
-51 -30 -86 6 -18 13 -19 138 -15 l132 4 0 -52 c0 -50 1 -52 29 -55 56 -7 71
3 73 49 2 23 4 43 5 44 2 2 42 6 91 10 l87 7 0 -26 c0 -15 -6 -35 -12 -46 -16
-25 1 -40 47 -40 41 0 57 13 55 41 -6 68 -13 64 135 63 149 0 154 2 140 66 -8
37 -41 47 -96 31 -26 -8 -65 -10 -110 -5 l-71 7 4 61 3 61 -56 3 -56 3 1 -70z"/>
<path d="M128 663 c-19 -5 -33 -53 -23 -82 6 -19 48 -36 65 -26 5 3 46 8 92
10 l83 5 -1 -38 c-4 -150 -75 -262 -212 -335 l-62 -33 49 -37 49 -36 45 29
c135 90 234 266 238 423 0 13 9 17 40 17 22 0 39 5 39 11 0 12 85 8 96 -4 3
-3 -10 -43 -30 -88 -19 -46 -34 -85 -31 -87 4 -4 22 -4 100 2 28 3 62 2 77 0
25 -5 26 -8 23 -54 -4 -58 -29 -110 -53 -111 -31 -2 -67 -1 -99 5 -31 5 -44
-6 -23 -19 5 -3 16 -27 23 -53 14 -46 15 -47 53 -47 38 0 98 16 136 36 21 11
48 66 54 109 2 14 6 43 10 65 9 68 12 89 18 123 l5 34 -42 -8 c-38 -8 -57 -8
-134 -3 -22 1 -22 2 -7 38 51 117 58 142 43 152 -16 11 -55 7 -122 -12 -42
-12 -49 -11 -58 1 -8 11 -12 12 -16 3 -6 -15 -73 -18 -73 -3 0 6 -18 10 -40
10 -22 0 -40 -4 -40 -10 0 -12 -67 -14 -72 -1 -3 9 -172 21 -200 14z"/>
</g>
</svg>
