<?xml version="1.0" standalone="no"?>
<!DOCTYPE svg PUBLIC "-//W3C//DTD SVG 20010904//EN"
 "http://www.w3.org/TR/2001/REC-SVG-20010904/DTD/svg10.dtd">
<svg version="1.0" xmlns="http://www.w3.org/2000/svg"
 width="101.000000pt" height="101.000000pt" viewBox="0 0 101.000000 101.000000"
 preserveAspectRatio="xMidYMid meet">
<metadata>
Created by potrace 1.16, written by Peter Selinger 2001-2019
</metadata>
<g transform="translate(0.000000,101.000000) scale(0.100000,-0.100000)"
fill="#000000" stroke="none">
<path d="M584 943 l6 -68 -98 0 -98 0 3 25 c2 14 5 41 8 60 l5 35 -55 0 c-54
0 -55 -1 -61 -33 -3 -17 -4 -45 -2 -61 l4 -28 -113 1 c-120 1 -133 -3 -133
-49 0 -45 13 -50 134 -50 l114 0 -5 -31 c-6 -37 17 -64 55 -64 40 0 49 11 48
55 l-1 40 92 0 91 0 4 -33 c5 -39 -4 -47 -33 -32 -40 22 -44 4 -47 -248 -2
-244 5 -307 37 -336 17 -15 73 -30 101 -27 8 1 61 3 117 5 92 2 105 5 128 26
23 21 65 114 65 143 0 10 -90 51 -97 43 -1 -1 -5 -20 -9 -42 -8 -54 -20 -73
-50 -80 -51 -13 -167 -5 -185 13 -14 14 -31 131 -22 156 4 12 8 30 8 40 0 20
175 107 258 128 26 7 47 15 47 19 0 3 -19 25 -43 48 l-43 43 -40 -29 c-36 -27
-166 -102 -175 -102 -2 0 -3 24 -1 52 2 29 4 72 5 95 2 36 5 42 20 37 9 -3 26
-3 36 1 16 5 18 13 14 44 l-5 38 52 -5 c30 -3 60 0 73 7 16 9 39 9 82 3 69
-11 77 -6 73 47 -3 30 -8 36 -35 43 -17 4 -76 7 -130 6 l-98 -3 3 59 c4 68 -2
76 -66 76 l-43 0 5 -67z"/>
<path d="M166 702 c-2 -4 -4 -110 -3 -235 1 -219 0 -229 -20 -249 l-21 -21 21
-46 c12 -25 23 -48 24 -50 2 -2 26 8 54 24 29 15 93 43 143 61 l91 32 -1 46
c-1 26 -3 49 -6 51 -2 3 -44 -11 -92 -31 -48 -20 -91 -33 -94 -29 -4 4 -6 41
-5 83 3 119 3 120 27 122 43 3 131 1 153 -5 18 -4 24 0 29 20 3 14 4 35 0 48
-5 21 -10 22 -103 22 l-99 0 3 25 c12 121 13 116 -22 128 -36 14 -72 15 -79 4z"/>
</g>
</svg>
