<?xml version="1.0" standalone="no"?>
<!DOCTYPE svg PUBLIC "-//W3C//DTD SVG 20010904//EN"
 "http://www.w3.org/TR/2001/REC-SVG-20010904/DTD/svg10.dtd">
<svg version="1.0" xmlns="http://www.w3.org/2000/svg"
 width="101.000000pt" height="102.000000pt" viewBox="0 0 101.000000 102.000000"
 preserveAspectRatio="xMidYMid meet">
<metadata>
Created by potrace 1.16, written by Peter Selinger 2001-2019
</metadata>
<g transform="translate(0.000000,102.000000) scale(0.100000,-0.100000)"
fill="#000000" stroke="none">
<path d="M296 968 l1 -53 -123 2 -123 1 -6 -29 c-12 -54 6 -76 55 -70 54 6
188 7 184 0 -2 -4 -2 -26 2 -48 6 -36 10 -41 39 -47 54 -10 70 0 72 47 2 23 4
43 6 45 1 2 49 5 105 8 92 4 102 3 102 -13 0 -9 -5 -22 -11 -28 -6 -6 -9 -21
-7 -34 2 -18 10 -25 32 -27 56 -7 72 4 75 50 1 23 3 43 4 45 7 6 175 7 193 0
31 -11 56 17 52 57 l-3 31 -63 -3 c-39 -3 -68 1 -77 8 -8 7 -35 11 -63 8 l-49
-3 9 44 c10 55 0 64 -61 58 -45 -5 -65 -21 -55 -47 3 -8 7 -25 9 -38 2 -22 1
-22 -100 -20 l-102 3 4 46 c3 51 -6 59 -72 59 -30 0 -30 -1 -29 -52z"/>
<path d="M433 773 c-3 -8 -3 -34 -1 -58 l5 -44 -39 -6 c-21 -4 -44 -2 -51 3
-7 5 -37 10 -67 11 -30 0 -66 3 -80 6 -14 3 -31 2 -37 -3 -17 -11 -26 -63 -15
-80 10 -15 16 -15 132 -7 41 3 94 3 117 0 l42 -6 -4 -41 c-2 -22 -6 -42 -9
-45 -7 -7 -274 -7 -318 0 -41 6 -49 -5 -40 -61 4 -30 18 -39 47 -32 88 22 295
22 295 0 0 -17 -66 -95 -107 -126 -43 -33 -127 -69 -185 -80 -18 -3 -40 -7
-48 -9 -8 -2 -21 -4 -27 -4 -20 -1 -15 -17 10 -30 12 -6 31 -25 42 -40 l19
-29 50 15 c28 8 86 33 128 55 91 47 181 136 199 198 l12 39 24 -51 c34 -74 83
-130 154 -177 81 -52 181 -90 187 -71 3 7 23 33 45 57 22 24 38 46 35 48 -3 3
-23 7 -44 10 -80 8 -104 15 -154 40 -56 28 -121 88 -144 133 -15 29 -15 30 7
31 12 1 63 3 112 6 65 4 102 2 131 -9 23 -8 46 -11 53 -7 11 7 20 86 11 94 -3
2 -52 0 -110 -4 -58 -5 -136 -6 -175 -4 -38 3 -80 6 -91 6 -19 1 -21 5 -14 31
5 16 7 35 4 43 -6 16 1 16 168 18 125 1 126 1 131 25 7 36 -2 59 -26 66 -34 9
-82 7 -93 -4 -9 -9 -78 -14 -144 -9 -21 1 -25 6 -24 33 0 17 4 39 9 50 11 25
-10 36 -68 34 -32 0 -51 -6 -54 -15z"/>
</g>
</svg>
