<?xml version="1.0" standalone="no"?>
<!DOCTYPE svg PUBLIC "-//W3C//DTD SVG 20010904//EN"
 "http://www.w3.org/TR/2001/REC-SVG-20010904/DTD/svg10.dtd">
<svg version="1.0" xmlns="http://www.w3.org/2000/svg"
 width="101.000000pt" height="102.000000pt" viewBox="0 0 101.000000 102.000000"
 preserveAspectRatio="xMidYMid meet">
<metadata>
Created by potrace 1.16, written by Peter Selinger 2001-2019
</metadata>
<g transform="translate(0.000000,102.000000) scale(0.100000,-0.100000)"
fill="#000000" stroke="none">
<path d="M584 985 c-3 -19 -4 -46 -2 -60 l5 -24 -87 2 c-87 2 -87 2 -83 27 12
75 13 74 -45 75 l-54 0 4 -52 3 -52 -117 5 c-136 5 -168 -3 -168 -43 0 -51 5
-53 151 -48 l135 4 -3 -41 c-1 -25 3 -46 10 -50 12 -8 -27 -10 -160 -10 -71 0
-72 0 -78 -29 -13 -56 -2 -67 68 -64 34 2 78 6 98 10 21 4 45 2 57 -4 14 -7
28 -7 49 1 17 6 39 8 49 4 15 -6 6 -14 -46 -42 -82 -43 -93 -57 -87 -111 4
-35 1 -43 -12 -44 -76 -6 -202 -26 -209 -34 -3 -2 17 -82 23 -92 1 -2 33 6 71
17 108 31 131 32 134 7 10 -127 -2 -148 -80 -141 l-49 4 15 -35 c8 -20 13 -39
10 -43 -9 -15 11 -34 35 -34 64 -2 148 23 150 44 1 7 3 56 5 108 4 127 5 140
13 141 3 1 20 3 36 5 100 13 122 22 128 51 9 47 -1 62 -36 52 -18 -4 -43 -10
-57 -13 -14 -2 -36 -7 -50 -10 -22 -6 -25 -3 -26 19 -2 20 8 32 42 56 25 17
65 39 89 50 46 21 60 44 53 90 -3 23 -6 24 -95 24 -50 0 -95 3 -99 8 -4 4 0 7
9 7 28 0 47 28 37 55 -5 13 -6 26 -2 28 4 3 47 8 96 12 l89 7 -5 -46 c-5 -38
-3 -46 11 -46 10 0 12 -3 5 -8 -14 -9 -18 -189 -4 -197 14 -9 13 -68 -2 -83
-8 -8 -8 -15 1 -26 8 -10 11 -47 7 -127 -2 -65 0 -121 6 -134 20 -45 100 -64
206 -51 74 9 112 46 127 128 7 34 5 36 -41 62 -26 14 -49 24 -51 22 -2 -2 -6
-23 -8 -47 -2 -23 -11 -49 -19 -57 -18 -18 -101 -21 -118 -4 -25 25 -38 275
-15 286 10 5 10 7 0 12 -14 6 -18 70 -4 76 4 2 11 31 14 66 5 59 4 62 -19 68
-21 5 -22 8 -9 21 17 17 19 39 5 48 -5 3 -7 11 -4 18 3 9 41 12 134 12 142 -1
149 2 134 60 -6 26 -7 26 -75 19 -49 -5 -73 -3 -84 6 -8 7 -34 11 -62 8 l-48
-3 2 53 c2 28 2 52 0 53 -1 0 -23 3 -49 5 l-47 5 -7 -36z"/>
</g>
</svg>
