<?xml version="1.0" standalone="no"?>
<!DOCTYPE svg PUBLIC "-//W3C//DTD SVG 20010904//EN"
 "http://www.w3.org/TR/2001/REC-SVG-20010904/DTD/svg10.dtd">
<svg version="1.0" xmlns="http://www.w3.org/2000/svg"
 width="101.000000pt" height="101.000000pt" viewBox="0 0 101.000000 101.000000"
 preserveAspectRatio="xMidYMid meet">
<metadata>
Created by potrace 1.16, written by Peter Selinger 2001-2019
</metadata>
<g transform="translate(0.000000,101.000000) scale(0.100000,-0.100000)"
fill="#000000" stroke="none">
<path d="M305 958 l4 -53 -129 2 -129 1 -6 -29 c-14 -63 -8 -66 133 -65 l128
1 0 -50 c-1 -48 0 -50 28 -53 15 -2 38 -1 51 2 19 5 22 12 21 53 l-1 48 92 0
c102 0 98 3 93 -67 -1 -22 4 -27 29 -33 55 -12 69 -1 63 53 l-4 47 136 0 c132
0 137 1 142 21 3 12 4 32 2 44 -3 22 -6 23 -134 24 l-131 1 3 35 c1 19 5 42 8
50 5 12 -4 15 -54 15 l-60 0 3 -52 3 -53 -96 3 -95 2 4 35 c2 19 7 40 12 46
15 18 -1 24 -63 24 l-58 0 5 -52z"/>
<path d="M444 757 c-3 -8 0 -26 6 -41 5 -15 10 -30 10 -34 0 -4 -61 -6 -135
-6 l-135 2 0 -54 c0 -30 5 -54 10 -54 15 0 12 -67 -2 -73 -10 -4 -9 -8 2 -16
12 -9 13 -17 1 -58 -7 -26 -15 -61 -17 -78 -7 -56 -57 -138 -107 -175 l-47
-35 38 -12 c20 -7 47 -18 59 -24 19 -10 25 -8 47 17 36 40 103 174 111 222 5
31 11 40 28 41 56 4 227 2 276 -2 30 -3 63 -1 74 5 10 5 34 7 53 4 32 -7 33
-8 28 -46 -6 -44 -4 -45 66 -40 42 3 52 15 38 49 -14 37 -10 231 6 286 11 37
-3 43 -88 32 -55 -7 -80 -6 -85 1 -3 6 -33 12 -66 14 -45 2 -60 7 -61 18 -2
32 -5 39 -20 54 -19 19 -83 21 -90 3z m141 -167 c4 -7 36 -8 85 -5 76 6 78 6
78 -17 1 -13 4 -36 7 -53 8 -43 -7 -59 -52 -57 -21 1 -67 1 -103 1 -131 0
-266 0 -288 2 -27 1 -39 40 -24 75 7 13 9 29 7 36 -4 10 9 13 50 11 30 -1 57
2 60 7 7 12 173 12 180 0z"/>
</g>
</svg>
