<?xml version="1.0" standalone="no"?>
<!DOCTYPE svg PUBLIC "-//W3C//DTD SVG 20010904//EN"
 "http://www.w3.org/TR/2001/REC-SVG-20010904/DTD/svg10.dtd">
<svg version="1.0" xmlns="http://www.w3.org/2000/svg"
 width="101.000000pt" height="101.000000pt" viewBox="0 0 101.000000 101.000000"
 preserveAspectRatio="xMidYMid meet">
<metadata>
Created by potrace 1.16, written by Peter Selinger 2001-2019
</metadata>
<g transform="translate(0.000000,101.000000) scale(0.100000,-0.100000)"
fill="#000000" stroke="none">
<path d="M307 993 c-16 -4 -18 -14 -15 -68 3 -57 1 -65 -17 -69 -34 -10 -93
-7 -100 5 -9 13 -118 9 -127 -5 -13 -19 -9 -64 8 -80 18 -18 104 -22 121 -5 6
6 30 7 62 3 57 -7 54 -3 55 -114 1 -42 3 -45 30 -48 45 -5 76 6 76 28 0 10 -4
22 -10 25 -5 3 -10 28 -10 54 l0 47 101 -2 c56 -2 103 -5 105 -7 2 -2 4 -32 5
-68 2 -69 8 -79 54 -79 49 0 54 9 52 85 l-2 70 50 -3 c28 -1 60 3 71 9 22 11
85 9 115 -5 13 -6 18 1 23 33 11 69 10 70 -132 68 l-127 -2 2 35 c1 19 5 45 8
58 8 24 7 25 -67 26 -45 1 -54 -4 -48 -29 1 -5 3 -29 3 -52 l2 -43 -32 6 c-21
4 -33 2 -33 -5 0 -6 -11 -11 -25 -11 -14 0 -25 5 -25 10 0 6 -17 10 -39 10
-32 0 -40 4 -44 22 -4 12 0 36 8 52 17 34 15 38 -22 41 -16 2 -35 5 -43 8 -8
2 -23 3 -33 0z"/>
<path d="M473 619 c-18 -5 -33 -14 -33 -20 0 -5 13 -35 29 -67 15 -31 36 -82
46 -112 10 -30 19 -56 20 -58 4 -5 88 20 98 28 5 4 -15 60 -44 124 -54 123
-55 123 -116 105z"/>
<path d="M733 537 l-43 -22 35 -50 c27 -37 103 -178 131 -243 1 -2 27 9 58 25
31 15 55 30 54 33 -22 44 -176 280 -183 279 -5 0 -29 -10 -52 -22z"/>
<path d="M158 543 c-10 -2 -19 -10 -20 -16 -2 -21 -5 -32 -11 -47 -3 -8 -5
-22 -5 -30 -1 -33 -15 -77 -48 -148 -18 -41 -34 -76 -34 -78 0 -5 73 -24 92
-24 12 0 29 37 68 153 28 83 54 157 56 163 9 21 -54 39 -98 27z"/>
<path d="M285 522 c-11 -51 4 -344 19 -367 16 -25 93 -47 117 -34 10 5 66 7
126 5 121 -4 157 6 192 50 36 46 54 96 39 106 -7 4 -17 8 -22 8 -5 0 -24 12
-43 26 -19 14 -36 24 -38 22 -2 -2 -7 -19 -10 -37 -13 -74 -35 -90 -126 -92
-82 -2 -127 5 -142 20 -17 17 -16 237 1 270 11 22 11 27 -4 38 -10 7 -37 13
-60 13 -38 0 -43 -3 -49 -28z"/>
</g>
</svg>
