<?xml version="1.0" standalone="no"?>
<!DOCTYPE svg PUBLIC "-//W3C//DTD SVG 20010904//EN"
 "http://www.w3.org/TR/2001/REC-SVG-20010904/DTD/svg10.dtd">
<svg version="1.0" xmlns="http://www.w3.org/2000/svg"
 width="101.000000pt" height="101.000000pt" viewBox="0 0 101.000000 101.000000"
 preserveAspectRatio="xMidYMid meet">
<metadata>
Created by potrace 1.16, written by Peter Selinger 2001-2019
</metadata>
<g transform="translate(0.000000,101.000000) scale(0.100000,-0.100000)"
fill="#000000" stroke="none">
<path d="M313 956 l4 -54 -130 4 c-141 4 -147 2 -147 -48 0 -47 25 -61 98 -55
36 3 68 10 72 17 5 7 23 9 57 4 l51 -6 -4 -46 c-3 -30 0 -48 8 -54 8 -5 -14
-8 -57 -7 -38 1 -77 1 -86 0 -14 -1 -17 -16 -17 -106 -1 -57 3 -107 8 -110 14
-9 12 -69 -2 -83 -8 -8 -8 -15 0 -25 17 -20 3 -136 -18 -157 -10 -10 -23 -19
-29 -21 -10 -4 1 -34 36 -98 1 -2 53 19 115 47 62 27 130 55 151 63 31 11 37
18 39 44 1 34 -1 67 -6 72 -1 2 -45 -17 -97 -41 l-94 -44 -8 46 c-5 29 -4 55
2 69 6 13 8 29 5 37 -4 9 2 14 18 15 13 0 55 3 93 6 118 9 126 6 158 -75 46
-114 141 -204 256 -245 l43 -15 32 33 c18 17 41 53 51 79 l18 48 -44 40 c-50
44 -58 48 -60 23 -1 -10 -3 -25 -3 -33 -1 -8 -5 -25 -9 -37 -19 -52 -124 14
-186 117 -38 63 -43 60 136 63 l111 2 5 29 c7 52 -2 69 -32 59 -22 -7 -166 -8
-247 -2 -30 2 -50 40 -35 67 6 11 9 27 6 34 -4 10 9 13 52 14 34 0 59 6 61 12
5 16 69 15 75 0 4 -10 8 -10 15 1 7 10 20 12 46 7 20 -4 36 -4 36 -1 0 3 -11
28 -25 55 -22 43 -29 50 -53 48 -15 -1 -31 -4 -37 -7 -5 -3 -16 -6 -25 -6 -8
-1 -26 -5 -40 -9 -19 -5 -21 -5 -10 3 12 9 13 14 3 31 -7 11 -13 28 -13 37 0
16 11 18 98 17 54 0 104 -4 111 -8 7 -4 23 -5 36 -2 27 7 41 42 31 80 -6 24
-7 24 -134 22 l-128 -1 7 45 c4 25 5 47 3 49 -2 2 -28 6 -58 9 l-54 4 2 -53 1
-54 -80 0 c-80 0 -80 0 -79 26 0 14 4 31 8 37 13 21 -3 31 -39 25 -23 -4 -35
-2 -35 6 0 6 -9 11 -20 11 -19 0 -20 -5 -17 -54z m258 -166 c1 -14 1 -33 0
-42 -2 -11 5 -18 14 -18 9 0 13 -5 10 -10 -4 -6 -42 -9 -88 -8 -45 1 -100 -1
-122 -5 -42 -8 -38 -3 6 7 23 5 26 10 25 53 l-1 48 77 0 c77 1 78 0 79 -25z
m-94 -183 c-1 -12 2 -39 6 -59 8 -36 7 -37 -25 -42 -18 -3 -60 -4 -93 -1 -116
9 -110 7 -107 40 1 17 3 40 3 53 1 14 6 22 13 19 7 -3 18 -2 24 1 6 4 49 8 95
9 81 2 85 1 84 -20z"/>
</g>
</svg>
