<?xml version="1.0" standalone="no"?>
<!DOCTYPE svg PUBLIC "-//W3C//DTD SVG 20010904//EN"
 "http://www.w3.org/TR/2001/REC-SVG-20010904/DTD/svg10.dtd">
<svg version="1.0" xmlns="http://www.w3.org/2000/svg"
 width="101.000000pt" height="101.000000pt" viewBox="0 0 101.000000 101.000000"
 preserveAspectRatio="xMidYMid meet">
<metadata>
Created by potrace 1.16, written by Peter Selinger 2001-2019
</metadata>
<g transform="translate(0.000000,101.000000) scale(0.100000,-0.100000)"
fill="#000000" stroke="none">
<path d="M306 1002 c-3 -5 -3 -36 0 -69 l5 -60 -83 2 c-46 2 -96 6 -111 10
-43 11 -77 -8 -77 -44 0 -16 7 -36 15 -44 17 -17 113 -21 131 -6 7 6 34 9 60
7 43 -3 48 -6 55 -32 5 -16 13 -32 19 -36 29 -18 -125 -163 -230 -215 -19 -10
-36 -19 -38 -20 -4 -3 66 -75 73 -75 3 0 46 32 96 72 87 70 90 71 149 72 l59
1 -16 -25 c-53 -84 -137 -141 -286 -193 -14 -5 -10 -13 28 -48 l45 -41 72 45
c98 61 176 133 218 201 32 51 38 56 71 56 23 0 39 -5 42 -15 11 -28 -61 -151
-120 -205 -58 -53 -175 -118 -253 -141 -25 -7 -47 -14 -48 -15 -2 -1 15 -21
39 -45 l42 -42 76 38 c159 78 270 179 324 294 27 57 32 73 36 121 1 11 13 15
44 15 l42 0 -2 -42 c-1 -24 -4 -47 -8 -52 -3 -5 0 -20 6 -34 8 -18 8 -39 -2
-83 -7 -33 -13 -70 -14 -83 -2 -45 -62 -74 -104 -52 -10 6 -27 7 -39 4 l-21
-5 19 -39 c11 -21 20 -42 19 -46 -6 -38 26 -40 127 -9 82 25 95 51 101 186 5
154 15 249 27 269 5 7 5 27 2 44 l-6 32 -250 0 c-137 0 -250 1 -250 2 0 1 14
9 30 18 37 19 38 32 5 45 -14 5 -25 14 -25 19 0 5 -3 16 -6 25 -5 13 1 16 25
16 17 0 31 5 31 10 0 7 27 10 73 8 l72 -3 0 -33 c0 -35 17 -52 50 -52 34 0 45
14 41 54 l-3 39 133 -7 c126 -7 132 -7 138 12 18 56 -23 94 -81 76 -16 -5 -65
-9 -111 -9 -78 0 -83 1 -77 20 18 57 23 100 12 107 -18 12 -89 1 -98 -14 -5
-7 -7 -36 -5 -64 l3 -50 -104 0 c-99 1 -104 2 -98 21 4 11 8 30 10 42 2 11 6
31 10 42 6 19 4 21 -19 15 -16 -4 -26 -2 -26 5 0 13 -56 15 -64 3z"/>
</g>
</svg>
