<?xml version="1.0" standalone="no"?>
<!DOCTYPE svg PUBLIC "-//W3C//DTD SVG 20010904//EN"
 "http://www.w3.org/TR/2001/REC-SVG-20010904/DTD/svg10.dtd">
<svg version="1.0" xmlns="http://www.w3.org/2000/svg"
 width="101.000000pt" height="101.000000pt" viewBox="0 0 101.000000 101.000000"
 preserveAspectRatio="xMidYMid meet">
<metadata>
Created by potrace 1.16, written by Peter Selinger 2001-2019
</metadata>
<g transform="translate(0.000000,101.000000) scale(0.100000,-0.100000)"
fill="#000000" stroke="none">
<path d="M337 1003 c-14 -4 -16 -13 -13 -54 l3 -49 -99 5 c-55 3 -104 8 -109
11 -32 20 -69 -38 -54 -86 6 -19 13 -20 134 -16 l127 3 -3 -45 c-4 -51 5 -62
52 -62 41 0 50 9 53 54 1 22 3 40 5 42 1 1 40 5 86 9 l84 7 -5 -46 c-4 -36 -2
-48 11 -56 14 -8 14 -10 -4 -11 -11 -1 -50 -1 -88 1 -39 1 -73 -3 -81 -9 -10
-8 -38 -9 -102 -1 -48 5 -98 7 -111 4 -30 -8 -38 -41 -26 -103 5 -26 6 -58 2
-70 -5 -12 -4 -32 3 -46 8 -19 8 -35 -1 -67 -7 -23 -15 -53 -17 -66 -8 -43
-41 -96 -88 -141 l-45 -45 50 -28 c27 -16 54 -26 59 -23 37 23 124 203 136
280 0 6 2 15 2 21 1 7 12 12 25 13 12 0 56 3 97 6 41 3 94 3 116 0 34 -5 42
-10 43 -28 0 -12 3 -60 6 -106 3 -46 1 -109 -5 -139 -5 -30 -8 -57 -6 -60 3
-2 15 -3 28 -3 13 1 37 2 54 3 l30 1 -8 61 c-5 33 -6 96 -3 141 3 44 6 90 6
103 1 16 6 22 16 18 8 -3 23 -1 35 5 15 8 28 7 54 -6 27 -12 38 -13 55 -4 12
6 34 9 49 5 25 -5 28 -2 32 26 8 54 0 69 -36 63 -28 -5 -107 -7 -276 -6 -36 0
-108 0 -160 0 -146 0 -156 2 -152 31 2 14 3 35 4 46 0 25 0 24 135 25 51 0 95
3 97 7 2 4 72 7 155 7 83 -1 151 2 151 6 0 4 -15 29 -34 55 -22 33 -40 48 -52
47 -11 -2 -35 -5 -54 -8 -20 -2 -29 -1 -22 4 7 4 12 12 11 17 -1 5 -1 23 0 39
l1 30 125 -1 c138 -2 144 2 130 66 -8 35 -32 45 -71 30 -18 -7 -59 -9 -109 -5
l-81 7 3 42 2 41 -49 0 c-48 0 -50 -1 -56 -32 -3 -18 -4 -39 -1 -47 5 -13 -8
-15 -82 -13 -80 2 -88 4 -80 19 30 57 -14 99 -84 81z"/>
</g>
</svg>
