<?xml version="1.0" standalone="no"?>
<!DOCTYPE svg PUBLIC "-//W3C//DTD SVG 20010904//EN"
 "http://www.w3.org/TR/2001/REC-SVG-20010904/DTD/svg10.dtd">
<svg version="1.0" xmlns="http://www.w3.org/2000/svg"
 width="101.000000pt" height="102.000000pt" viewBox="0 0 101.000000 102.000000"
 preserveAspectRatio="xMidYMid meet">
<metadata>
Created by potrace 1.16, written by Peter Selinger 2001-2019
</metadata>
<g transform="translate(0.000000,102.000000) scale(0.100000,-0.100000)"
fill="#000000" stroke="none">
<path d="M292 967 l3 -53 -97 3 c-120 3 -148 -5 -148 -46 0 -55 19 -62 139
-57 l107 5 -3 -48 c-3 -43 0 -49 19 -55 56 -15 94 7 79 47 -14 37 -3 47 48 47
26 0 52 5 57 10 6 6 35 8 72 4 56 -6 62 -9 62 -30 0 -12 -4 -26 -10 -29 -20
-12 -10 -45 15 -51 32 -8 76 3 74 19 -1 7 -1 28 0 47 l1 35 110 0 c122 0 135
6 125 59 -3 16 -6 31 -8 32 -1 2 -54 4 -118 6 l-116 3 4 29 c1 16 8 35 14 43
17 20 6 25 -56 27 l-55 1 3 -50 4 -50 -119 0 c-65 0 -118 4 -118 8 0 4 7 24
15 44 19 44 13 49 -56 52 l-51 1 4 -53z"/>
<path d="M453 790 c-26 -10 -25 -9 -14 -66 l8 -42 -101 -5 c-99 -6 -140 -5
-243 7 -46 6 -52 4 -58 -14 -16 -51 23 -92 65 -70 10 5 64 8 121 6 57 -2 129
-4 159 -5 l56 -1 1 -40 c2 -37 0 -40 -30 -45 -31 -5 -122 -1 -199 9 -46 5 -45
8 -34 -111 3 -29 1 -64 -4 -78 -6 -17 -6 -33 1 -49 8 -16 8 -38 1 -69 -8 -41
-7 -46 11 -51 11 -3 29 0 39 5 10 6 28 7 39 4 19 -6 20 -4 12 17 -4 12 -7 64
-6 113 3 138 3 137 20 131 8 -3 23 -1 34 4 11 6 40 8 68 4 41 -5 49 -10 50
-28 0 -11 3 -62 6 -111 4 -66 2 -102 -9 -132 -25 -72 -8 -94 67 -85 l38 4 -8
57 c-4 31 -7 101 -6 156 3 148 3 147 20 141 8 -3 23 -1 33 4 11 6 43 8 73 4
61 -7 59 -3 58 -103 0 -29 -3 -56 -6 -59 -4 -4 -27 -7 -51 -8 -25 -1 -47 -4
-50 -7 -3 -2 2 -20 10 -38 8 -19 17 -42 20 -52 5 -15 14 -18 48 -14 54 6 118
32 119 49 1 7 3 67 5 133 1 66 3 130 4 143 3 33 -4 36 -52 23 -24 -6 -73 -9
-113 -6 -38 3 -80 6 -92 6 -20 1 -22 6 -21 44 2 35 6 43 23 44 11 0 58 3 104
6 47 3 108 0 140 -6 52 -11 130 -13 139 -4 2 2 4 20 5 40 1 43 -16 57 -52 43
-22 -8 -278 -14 -336 -8 -15 2 -20 10 -20 34 0 17 4 37 9 44 10 17 3 24 -26
27 -13 2 -30 6 -38 8 -8 3 -25 2 -37 -3z"/>
</g>
</svg>
