<?xml version="1.0" standalone="no"?>
<!DOCTYPE svg PUBLIC "-//W3C//DTD SVG 20010904//EN"
 "http://www.w3.org/TR/2001/REC-SVG-20010904/DTD/svg10.dtd">
<svg version="1.0" xmlns="http://www.w3.org/2000/svg"
 width="101.000000pt" height="102.000000pt" viewBox="0 0 101.000000 102.000000"
 preserveAspectRatio="xMidYMid meet">
<metadata>
Created by potrace 1.16, written by Peter Selinger 2001-2019
</metadata>
<g transform="translate(0.000000,102.000000) scale(0.100000,-0.100000)"
fill="#000000" stroke="none">
<path d="M295 968 l0 -53 -90 4 c-136 5 -146 5 -156 -10 -21 -34 0 -105 28
-95 8 4 62 8 119 11 l104 5 0 -24 c0 -14 -4 -28 -10 -31 -21 -13 -9 -34 24
-40 35 -7 76 1 75 13 -1 4 -1 23 0 42 l1 35 98 0 99 0 -3 -42 c-3 -39 -1 -42
26 -48 50 -11 71 1 68 40 -1 19 1 37 4 40 8 8 176 9 213 1 39 -9 52 1 60 45 5
27 2 40 -10 53 -9 9 -21 13 -27 10 -5 -3 -60 -7 -121 -8 l-112 -1 2 46 3 46
-39 7 c-62 10 -70 2 -65 -56 l4 -50 -40 7 c-26 4 -40 3 -40 -4 0 -6 -11 -11
-25 -11 -14 0 -25 5 -25 10 0 6 -20 10 -45 10 -42 0 -45 2 -35 19 12 23 14 71
3 72 -5 0 -26 3 -48 5 l-40 5 0 -53z"/>
<path d="M443 786 l-42 -21 28 -45 c49 -79 49 -87 -4 -95 -31 -4 -51 -2 -61 6
-11 9 -18 9 -26 1 -15 -15 -74 -16 -83 -2 -4 6 -48 9 -108 7 l-102 -2 -3 -29
c-2 -15 -1 -39 2 -51 5 -20 12 -22 66 -23 33 0 62 4 65 8 6 10 110 12 181 4
43 -5 52 -9 54 -28 6 -59 -1 -368 -9 -389 -12 -31 0 -49 30 -48 13 1 39 2 57
3 35 1 38 8 20 37 -9 15 -9 26 0 45 8 19 8 33 0 58 -7 19 -11 84 -11 153 2
163 2 162 27 165 64 5 251 4 318 -3 72 -6 77 -5 83 14 4 11 4 36 0 56 -5 27
-10 33 -23 28 -9 -4 -61 -9 -115 -12 -78 -5 -101 -3 -109 8 -7 11 -11 11 -15
2 -6 -15 -73 -18 -73 -3 0 6 -15 10 -32 10 -30 1 -31 2 -13 12 11 6 21 12 23
13 3 3 -49 94 -72 126 -10 15 -15 15 -53 -5z"/>
<path d="M577 464 l-38 -25 70 -74 c39 -41 82 -92 97 -115 15 -22 29 -40 31
-40 9 0 93 61 93 68 0 8 -202 212 -210 212 -3 0 -22 -12 -43 -26z"/>
</g>
</svg>
