<?xml version="1.0" standalone="no"?>
<!DOCTYPE svg PUBLIC "-//W3C//DTD SVG 20010904//EN"
 "http://www.w3.org/TR/2001/REC-SVG-20010904/DTD/svg10.dtd">
<svg version="1.0" xmlns="http://www.w3.org/2000/svg"
 width="101.000000pt" height="101.000000pt" viewBox="0 0 101.000000 101.000000"
 preserveAspectRatio="xMidYMid meet">
<metadata>
Created by potrace 1.16, written by Peter Selinger 2001-2019
</metadata>
<g transform="translate(0.000000,101.000000) scale(0.100000,-0.100000)"
fill="#000000" stroke="none">
<path d="M294 968 l1 -43 -112 2 c-90 2 -115 0 -127 -13 -20 -20 -20 -58 0
-78 20 -21 97 -21 118 -1 17 17 56 20 56 4 0 -7 12 -9 34 -5 l33 6 -3 -42 c-3
-47 6 -58 51 -58 44 0 54 11 52 55 l-2 40 75 -2 c41 0 85 -1 96 -2 17 -1 23
-9 28 -40 5 -33 10 -40 36 -46 53 -12 68 0 63 48 l-5 42 131 0 c127 0 132 1
137 22 13 49 -2 61 -79 67 -40 3 -98 5 -130 3 -49 -3 -57 -1 -51 12 3 9 8 27
10 41 4 24 3 25 -51 25 -60 0 -71 -11 -60 -57 l6 -24 -104 0 c-65 1 -103 5
-102 11 2 6 6 25 9 43 l5 32 -58 0 -58 0 1 -42z"/>
<path d="M435 811 c-3 -6 -5 -33 -4 -59 l3 -47 -58 -3 c-40 -2 -62 1 -68 10
-8 10 -11 10 -15 1 -6 -15 -70 -18 -75 -3 -1 5 -32 10 -66 11 -67 2 -82 -6
-82 -46 0 -37 13 -45 61 -39 91 12 146 14 225 8 l80 -5 1 -34 c1 -31 -2 -35
-30 -39 -32 -5 -87 -3 -183 9 -45 5 -52 3 -57 -14 -12 -48 10 -80 48 -71 46
12 164 20 196 14 21 -4 25 -11 26 -38 l1 -34 -107 -5 c-99 -6 -150 -4 -228 6
-36 4 -43 -8 -36 -60 5 -29 7 -31 42 -26 78 10 130 12 227 6 95 -5 102 -7 103
-27 0 -11 3 -57 6 -101 3 -44 1 -93 -5 -109 -12 -34 -9 -38 22 -37 13 1 38 2
56 3 29 1 32 3 25 22 -7 18 -8 142 -2 222 1 24 1 24 131 27 47 1 89 -1 93 -5
10 -10 -14 -75 -30 -82 -7 -2 -35 -3 -60 0 l-47 4 21 -34 c12 -18 21 -41 21
-50 0 -52 142 -27 169 29 8 17 15 41 17 55 1 14 5 57 8 96 l7 71 -63 -9 c-34
-4 -98 -6 -143 -3 -44 3 -90 6 -101 6 -18 1 -22 7 -21 34 1 26 5 33 21 34 12
0 47 3 79 5 36 3 75 -1 98 -9 22 -8 46 -12 53 -9 16 6 26 47 18 76 -4 16 -9
18 -31 11 -14 -4 -64 -7 -111 -6 -136 3 -128 1 -127 38 1 38 -7 36 157 38 67
1 129 -4 148 -10 38 -14 59 -9 68 19 17 53 -30 95 -79 69 -21 -10 -119 -14
-238 -9 -52 3 -55 4 -53 28 1 14 5 33 9 43 4 9 3 17 -1 18 -9 1 -20 3 -80 15
-19 3 -34 1 -39 -5z"/>
</g>
</svg>
