<?xml version="1.0" standalone="no"?>
<!DOCTYPE svg PUBLIC "-//W3C//DTD SVG 20010904//EN"
 "http://www.w3.org/TR/2001/REC-SVG-20010904/DTD/svg10.dtd">
<svg version="1.0" xmlns="http://www.w3.org/2000/svg"
 width="101.000000pt" height="101.000000pt" viewBox="0 0 101.000000 101.000000"
 preserveAspectRatio="xMidYMid meet">
<metadata>
Created by potrace 1.16, written by Peter Selinger 2001-2019
</metadata>
<g transform="translate(0.000000,101.000000) scale(0.100000,-0.100000)"
fill="#000000" stroke="none">
<path d="M593 955 l4 -56 -112 3 -113 3 5 25 c2 13 9 30 14 36 15 18 -8 28
-63 29 -46 0 -48 -1 -54 -32 -3 -18 -4 -39 -1 -45 3 -10 -22 -13 -114 -12
l-118 2 -6 -29 c-12 -52 8 -78 50 -69 6 1 51 3 100 5 l90 3 0 -54 c-1 -53 0
-54 31 -60 18 -3 42 -3 53 1 24 7 38 49 23 68 -22 27 4 36 116 41 l112 6 0
-25 c0 -13 -4 -27 -10 -30 -16 -10 -12 -42 6 -49 42 -16 97 -1 94 25 -1 8 -2
26 -1 40 1 26 3 27 89 33 53 4 98 3 114 -3 22 -8 31 -7 43 6 21 20 17 90 -5
85 -56 -13 -114 -13 -134 -2 -13 7 -44 11 -69 9 -26 -3 -43 0 -42 6 2 6 6 29
9 53 l6 42 -60 0 -61 0 4 -55z"/>
<path d="M450 792 c0 -5 -28 -38 -62 -74 -77 -79 -185 -151 -283 -187 l-74
-27 45 -42 c50 -47 48 -47 132 10 l42 29 0 -51 c0 -27 5 -50 10 -50 15 0 12
-67 -2 -73 -10 -4 -10 -8 0 -15 10 -7 13 -32 11 -97 -3 -80 -1 -89 17 -102 22
-14 85 -27 119 -23 11 1 101 2 200 4 107 1 191 6 206 13 32 14 62 54 78 105
13 40 9 58 -14 58 -7 0 -28 12 -45 26 -17 15 -33 24 -36 22 -2 -3 -7 -22 -9
-42 -3 -21 -10 -46 -15 -56 -16 -29 -84 -43 -210 -43 -133 0 -190 7 -200 23
-13 20 -21 122 -11 134 5 6 8 34 8 62 l-2 51 41 -5 c23 -2 51 1 63 7 14 8 46
10 95 5 73 -6 74 -7 71 -33 -2 -14 -4 -33 -4 -42 -1 -24 -44 -43 -68 -31 -11
6 -29 9 -40 6 -19 -5 -19 -7 5 -55 25 -50 25 -50 67 -46 45 5 94 27 114 51 14
17 18 40 25 135 3 35 7 65 9 67 2 2 35 -10 73 -26 38 -16 74 -30 80 -30 6 0
25 22 42 50 29 47 30 50 13 60 -10 5 -21 7 -23 4 -8 -7 -166 45 -223 73 -77
39 -147 93 -141 110 4 9 -8 20 -37 33 -46 21 -67 25 -67 12z m173 -215 l67
-44 -31 -7 c-46 -9 -79 -7 -79 4 0 6 -18 10 -40 10 -22 0 -40 -4 -40 -10 0 -5
-16 -10 -35 -10 -19 0 -35 5 -35 10 0 6 -25 10 -55 10 l-56 0 68 58 c38 32 74
66 82 76 13 16 17 14 50 -18 20 -19 66 -55 104 -79z"/>
</g>
</svg>
