<?xml version="1.0" standalone="no"?>
<!DOCTYPE svg PUBLIC "-//W3C//DTD SVG 20010904//EN"
 "http://www.w3.org/TR/2001/REC-SVG-20010904/DTD/svg10.dtd">
<svg version="1.0" xmlns="http://www.w3.org/2000/svg"
 width="101.000000pt" height="101.000000pt" viewBox="0 0 101.000000 101.000000"
 preserveAspectRatio="xMidYMid meet">
<metadata>
Created by potrace 1.16, written by Peter Selinger 2001-2019
</metadata>
<g transform="translate(0.000000,101.000000) scale(0.100000,-0.100000)"
fill="#000000" stroke="none">
<path d="M304 975 c-3 -19 -4 -43 -1 -54 4 -16 -2 -17 -77 -13 -167 10 -176 8
-176 -49 0 -40 22 -63 54 -55 15 4 72 9 126 11 94 5 100 4 100 -14 0 -11 -4
-23 -10 -26 -22 -14 -10 -43 20 -50 30 -7 70 1 69 13 -1 4 -1 23 0 42 l1 35
84 1 85 2 -6 -43 c-5 -41 -4 -43 26 -50 57 -12 92 15 71 55 -14 25 1 33 61 31
26 0 51 4 54 9 8 14 89 13 120 -2 30 -14 32 -13 39 32 9 48 -5 64 -51 63 -200
-7 -230 -7 -228 2 2 6 6 28 9 50 l5 40 -54 0 -55 0 4 -54 3 -54 -86 7 c-47 4
-89 11 -93 15 -5 4 0 23 11 43 21 42 19 44 -51 47 -46 2 -47 1 -54 -34z"/>
<path d="M151 706 c-9 -10 -11 -28 -7 -48 4 -18 8 -42 9 -53 2 -11 6 -29 10
-41 4 -11 3 -52 -3 -90 -6 -38 -13 -84 -15 -101 -7 -63 -37 -132 -77 -178 -22
-25 -39 -47 -37 -48 2 -1 28 -10 58 -21 60 -20 55 -23 96 55 39 74 58 165 61
284 4 158 3 153 28 154 11 1 65 3 119 6 64 4 97 2 97 -5 0 -5 -7 -10 -15 -10
-16 0 -19 -15 -16 -66 2 -30 1 -31 -48 -38 -29 -4 -59 -2 -69 3 -42 23 -75 -8
-65 -61 4 -20 10 -24 32 -23 15 1 33 5 39 9 7 4 32 4 56 1 44 -7 45 -8 40 -41
-10 -81 -98 -183 -189 -220 -25 -11 -45 -22 -45 -26 0 -3 13 -9 30 -13 16 -3
40 -15 54 -26 l26 -20 43 30 c75 51 139 137 168 226 12 38 14 44 17 71 1 7 12
12 25 13 12 1 45 3 72 5 28 3 62 2 77 0 28 -6 28 -6 15 -151 -3 -40 -33 -65
-67 -57 -29 7 -70 8 -75 2 -3 -2 4 -22 15 -43 11 -22 20 -45 20 -51 0 -16 37
-24 64 -14 11 4 43 16 69 25 61 21 68 39 73 170 2 55 6 121 8 146 l6 46 -128
0 c-179 2 -175 1 -168 27 17 60 18 66 7 66 -6 0 -11 4 -11 8 0 11 39 14 215
13 157 0 165 2 165 46 0 37 -28 56 -74 49 -92 -14 -271 -25 -334 -21 -37 3
-75 5 -84 4 -80 -2 -206 6 -249 16 -17 5 -30 1 -38 -9z"/>
</g>
</svg>
