<?xml version="1.0" standalone="no"?>
<!DOCTYPE svg PUBLIC "-//W3C//DTD SVG 20010904//EN"
 "http://www.w3.org/TR/2001/REC-SVG-20010904/DTD/svg10.dtd">
<svg version="1.0" xmlns="http://www.w3.org/2000/svg"
 width="101.000000pt" height="101.000000pt" viewBox="0 0 101.000000 101.000000"
 preserveAspectRatio="xMidYMid meet">
<metadata>
Created by potrace 1.16, written by Peter Selinger 2001-2019
</metadata>
<g transform="translate(0.000000,101.000000) scale(0.100000,-0.100000)"
fill="#000000" stroke="none">
<path d="M294 975 c-3 -20 -2 -46 3 -58 l10 -22 -123 1 -123 2 -6 -29 c-4 -16
-4 -38 0 -49 6 -19 13 -20 123 -16 115 4 118 4 118 -17 1 -89 3 -95 34 -102
52 -11 65 -1 67 56 0 28 3 52 5 54 2 3 48 6 101 9 93 4 97 3 97 -17 0 -11 -7
-28 -15 -37 -27 -30 1 -59 57 -60 25 0 50 29 40 47 -5 8 -7 25 -5 38 4 20 12
23 87 29 46 4 101 4 124 0 38 -6 41 -5 47 19 11 43 2 72 -20 69 -92 -13 -108
-14 -129 -2 -13 7 -44 11 -69 9 -26 -3 -43 0 -42 6 2 6 6 30 9 55 l5 45 -54 0
-54 0 5 -58 4 -57 -98 2 c-108 3 -107 2 -87 79 7 30 1 34 -62 38 -41 2 -42 2
-49 -34z"/>
<path d="M685 682 c-3 -16 -5 -44 -5 -63 2 -62 -13 -154 -35 -205 -44 -105
-140 -187 -258 -219 l-64 -17 41 -43 41 -42 79 40 c50 26 103 64 145 104 l66
64 58 -63 c32 -35 66 -75 75 -90 9 -16 19 -28 22 -28 10 0 90 64 90 71 0 5
-191 175 -208 185 -2 1 5 28 14 60 10 33 19 68 21 79 2 11 5 31 8 45 2 14 6
38 9 54 2 16 9 33 15 39 18 18 13 26 -25 42 -57 24 -81 20 -89 -13z"/>
<path d="M167 679 c-19 -11 -25 -89 -7 -89 15 0 12 -67 -2 -74 -10 -5 -10 -7
0 -12 18 -8 16 -143 -3 -188 -9 -20 -13 -41 -10 -46 3 -5 -3 -18 -15 -30 -11
-11 -20 -22 -20 -25 0 -2 14 -25 32 -49 l31 -45 61 56 c34 30 94 78 134 107
65 45 72 53 67 76 -4 14 -9 38 -11 54 -2 16 -6 31 -8 34 -3 2 -42 -30 -88 -72
l-83 -77 -8 32 c-5 18 -5 44 -1 58 5 14 9 60 10 101 3 78 8 120 19 156 7 22
-17 40 -36 29 -5 -3 -17 -2 -27 4 -11 6 -24 6 -35 0z"/>
<path d="M428 642 c-21 -8 -38 -19 -38 -23 0 -5 15 -32 33 -61 18 -29 41 -72
51 -95 11 -24 21 -43 23 -43 14 0 83 42 83 51 0 13 -97 176 -108 182 -4 2 -24
-3 -44 -11z"/>
</g>
</svg>
