<?xml version="1.0" standalone="no"?>
<!DOCTYPE svg PUBLIC "-//W3C//DTD SVG 20010904//EN"
 "http://www.w3.org/TR/2001/REC-SVG-20010904/DTD/svg10.dtd">
<svg version="1.0" xmlns="http://www.w3.org/2000/svg"
 width="101.000000pt" height="101.000000pt" viewBox="0 0 101.000000 101.000000"
 preserveAspectRatio="xMidYMid meet">
<metadata>
Created by potrace 1.16, written by Peter Selinger 2001-2019
</metadata>
<g transform="translate(0.000000,101.000000) scale(0.100000,-0.100000)"
fill="#000000" stroke="none">
<path d="M305 950 l5 -61 -107 6 c-134 9 -163 0 -163 -47 0 -18 4 -38 8 -44 4
-7 52 -10 129 -10 113 1 122 0 117 -17 -9 -28 6 -75 24 -80 16 -4 -143 -1
-163 3 -24 5 -34 -2 -40 -30 -12 -56 -1 -67 68 -68 34 -1 73 3 87 9 16 6 56 7
105 2 l80 -8 -78 -62 c-94 -75 -190 -133 -274 -163 l-61 -22 46 -44 c25 -24
48 -44 52 -44 10 0 176 115 246 170 71 56 64 67 67 -107 1 -61 -2 -115 -6
-120 -10 -9 -214 -9 -267 1 -40 7 -71 9 -76 3 -5 -5 -7 -36 -6 -74 2 -30 3
-31 40 -26 20 3 80 5 132 5 52 -1 124 -1 160 -1 131 0 267 -2 373 -4 l107 -2
2 30 c4 75 -7 89 -56 72 -26 -9 -217 -14 -292 -7 -20 2 -22 9 -27 109 -3 58
-4 129 -2 156 3 28 5 60 6 72 2 38 33 56 94 55 30 0 57 3 60 8 8 13 116 11
148 -2 36 -14 48 1 45 52 l-3 35 -92 1 c-104 0 -122 11 -123 70 l0 31 55 -5
c33 -3 60 0 69 7 8 7 35 9 74 5 60 -7 61 -6 68 20 3 14 4 36 1 49 -6 21 -10
22 -129 22 l-124 0 7 50 c4 28 5 52 2 55 -2 2 -26 4 -53 5 -49 0 -50 -1 -56
-33 -4 -18 -4 -42 -2 -55 4 -22 2 -22 -91 -22 l-96 0 2 35 c2 19 4 44 5 55 3
17 -4 20 -49 23 l-53 3 5 -61z m276 -175 c0 -11 1 -35 2 -54 l2 -33 -65 6
c-36 3 -77 6 -93 6 -24 0 -27 3 -21 24 3 14 2 31 -2 38 -19 29 -10 33 82 33
87 0 94 -1 95 -20z"/>
<path d="M597 512 c-15 -15 -27 -31 -27 -34 0 -3 31 -24 68 -46 37 -22 101
-66 142 -98 l74 -57 38 44 c21 24 34 47 30 50 -11 11 -285 169 -292 169 -3 0
-18 -13 -33 -28z"/>
</g>
</svg>
