<?xml version="1.0" standalone="no"?>
<!DOCTYPE svg PUBLIC "-//W3C//DTD SVG 20010904//EN"
 "http://www.w3.org/TR/2001/REC-SVG-20010904/DTD/svg10.dtd">
<svg version="1.0" xmlns="http://www.w3.org/2000/svg"
 width="101.000000pt" height="102.000000pt" viewBox="0 0 101.000000 102.000000"
 preserveAspectRatio="xMidYMid meet">
<metadata>
Created by potrace 1.16, written by Peter Selinger 2001-2019
</metadata>
<g transform="translate(0.000000,102.000000) scale(0.100000,-0.100000)"
fill="#000000" stroke="none">
<path d="M324 960 l4 -60 -101 6 c-137 9 -148 8 -158 -8 -11 -16 -11 -59 -1
-74 12 -18 50 -26 71 -15 11 6 61 13 111 15 l91 5 -3 -32 c-3 -32 -14 -37 -50
-22 -14 5 -22 -4 -42 -48 -37 -85 -93 -167 -158 -230 l-59 -57 19 -28 c10 -15
22 -35 26 -46 6 -18 7 -18 28 0 11 11 38 40 58 66 32 40 38 44 39 25 0 -12 3
-56 6 -97 3 -41 1 -115 -4 -165 -5 -49 -7 -92 -5 -95 10 -10 98 0 106 12 4 7
4 22 0 33 -4 11 -7 54 -7 95 0 41 -3 80 -7 86 -10 16 -8 173 2 179 5 3 8 30 8
59 -1 35 5 64 15 80 27 40 75 86 91 86 18 0 25 19 16 45 -15 41 0 50 86 52
l81 2 -1 -52 c-1 -47 1 -52 23 -55 50 -8 67 4 70 50 1 23 4 44 5 46 7 6 172 5
191 -1 27 -10 44 3 51 39 8 41 -18 69 -55 58 -14 -4 -64 -8 -111 -8 l-85 -1 0
54 0 55 -51 0 c-34 1 -50 -3 -47 -10 2 -6 5 -33 6 -59 l2 -47 -65 6 c-36 3
-74 6 -86 6 -18 0 -21 5 -18 38 1 20 5 45 9 55 6 15 0 17 -49 17 l-57 0 5 -60z"/>
<path d="M701 721 c-10 -6 -12 -24 -9 -64 l5 -56 -51 -6 c-51 -6 -149 -1 -216
10 -46 7 -71 7 -78 0 -7 -7 -5 -85 1 -92 6 -6 34 -5 77 2 67 11 165 16 216 10
44 -5 52 -9 53 -28 0 -12 3 -58 6 -102 3 -44 2 -107 -3 -140 l-7 -60 -62 2
-61 1 19 -41 c10 -23 19 -50 19 -60 0 -15 7 -17 54 -13 111 11 132 31 126 125
-4 57 -3 220 1 289 1 15 6 22 14 18 8 -3 27 0 44 7 23 9 35 8 55 -3 32 -17 37
-12 39 39 1 44 -15 66 -43 55 -8 -3 -33 -7 -55 -9 l-40 -3 2 58 c2 52 0 59
-20 64 -32 8 -70 7 -86 -3z"/>
<path d="M448 452 c-16 -10 -28 -20 -28 -23 0 -3 21 -37 46 -76 l46 -71 44 25
c50 28 50 29 -13 116 -37 50 -52 55 -95 29z"/>
</g>
</svg>
