<?xml version="1.0" standalone="no"?>
<!DOCTYPE svg PUBLIC "-//W3C//DTD SVG 20010904//EN"
 "http://www.w3.org/TR/2001/REC-SVG-20010904/DTD/svg10.dtd">
<svg version="1.0" xmlns="http://www.w3.org/2000/svg"
 width="101.000000pt" height="102.000000pt" viewBox="0 0 101.000000 102.000000"
 preserveAspectRatio="xMidYMid meet">
<metadata>
Created by potrace 1.16, written by Peter Selinger 2001-2019
</metadata>
<g transform="translate(0.000000,102.000000) scale(0.100000,-0.100000)"
fill="#000000" stroke="none">
<path d="M314 961 l4 -60 -129 2 c-135 2 -149 -2 -149 -43 0 -41 15 -45 150
-45 128 0 146 -5 119 -32 -20 -20 -2 -61 31 -68 54 -12 69 0 67 53 l-2 47 80
0 80 0 10 -50 c10 -48 12 -50 45 -53 44 -3 70 12 52 30 -6 6 -12 26 -12 43 l0
31 59 -4 c36 -3 61 0 65 7 9 14 49 14 62 1 5 -5 32 -7 62 -3 44 5 53 10 58 29
11 43 0 52 -78 58 -40 4 -104 5 -143 4 l-70 -3 3 53 c3 45 1 52 -15 53 -94 6
-96 4 -87 -64 l6 -42 -89 0 c-87 0 -88 0 -87 25 0 14 4 35 8 48 10 31 6 33
-54 39 l-51 5 5 -61z"/>
<path d="M175 720 c-16 -16 -27 -31 -24 -33 2 -1 38 -30 80 -64 l75 -61 32 25
c18 13 32 31 32 38 0 15 -139 125 -157 125 -5 0 -22 -13 -38 -30z"/>
<path d="M450 681 c-12 -8 -15 -43 -17 -193 -3 -208 8 -333 30 -355 12 -12 84
-24 147 -23 177 1 238 7 264 23 38 25 85 137 57 137 -4 0 -25 12 -46 26 -42
28 -53 24 -60 -26 -4 -37 -16 -53 -42 -56 -10 -1 -44 -7 -76 -14 -33 -6 -66
-8 -75 -5 -10 4 -32 9 -51 10 -18 2 -38 8 -44 14 -5 5 -12 53 -15 106 -4 76
-2 99 9 107 11 7 11 11 2 15 -15 6 -18 73 -3 73 6 0 10 16 10 35 0 33 2 35 33
35 17 0 63 2 100 4 60 3 67 2 61 -13 -4 -9 -8 -42 -10 -74 -2 -32 -6 -62 -9
-67 -3 -5 -26 -9 -50 -8 -24 1 -46 0 -49 -3 -3 -2 3 -26 12 -52 15 -43 29 -54
57 -47 6 2 17 4 25 5 8 1 32 7 52 14 50 17 58 43 75 258 4 55 2 63 -16 73 -12
6 -26 8 -31 5 -13 -8 -278 -8 -305 -1 -11 4 -27 2 -35 -3z"/>
<path d="M97 552 c-15 -15 -27 -33 -27 -38 0 -6 17 -18 37 -28 21 -10 54 -31
74 -47 20 -16 41 -29 45 -29 9 0 64 64 64 74 0 7 -145 96 -156 96 -6 0 -22
-13 -37 -28z"/>
<path d="M269 379 c-23 -35 -74 -97 -113 -137 l-70 -73 46 -46 46 -46 16 31
c9 17 52 77 97 132 44 56 78 107 74 113 -3 7 -16 29 -29 51 l-24 38 -43 -63z"/>
</g>
</svg>
