<?xml version="1.0" standalone="no"?>
<!DOCTYPE svg PUBLIC "-//W3C//DTD SVG 20010904//EN"
 "http://www.w3.org/TR/2001/REC-SVG-20010904/DTD/svg10.dtd">
<svg version="1.0" xmlns="http://www.w3.org/2000/svg"
 width="101.000000pt" height="102.000000pt" viewBox="0 0 101.000000 102.000000"
 preserveAspectRatio="xMidYMid meet">
<metadata>
Created by potrace 1.16, written by Peter Selinger 2001-2019
</metadata>
<g transform="translate(0.000000,102.000000) scale(0.100000,-0.100000)"
fill="#000000" stroke="none">
<path d="M292 968 l3 -53 -117 1 -117 2 -6 -29 c-12 -52 8 -78 50 -69 6 1 51
3 100 5 l90 3 -2 -48 c-3 -46 -2 -49 27 -55 50 -11 66 0 67 46 1 23 4 43 5 45
2 2 54 5 116 8 l112 6 0 -40 c0 -21 -5 -42 -12 -46 -8 -5 -6 -10 8 -15 55 -22
94 1 94 55 l0 33 80 7 c43 3 97 4 119 0 37 -6 41 -4 46 19 4 14 5 35 3 47 -3
22 -6 23 -129 24 l-126 1 2 31 c1 17 6 37 10 43 11 19 0 23 -59 25 l-54 1 4
-53 4 -53 -113 3 -113 3 3 33 c1 18 5 37 9 43 10 17 -16 29 -64 29 l-44 0 4
-52z"/>
<path d="M445 798 c-2 -7 -3 -34 -2 -61 1 -35 -2 -49 -13 -52 -25 -8 -160 -4
-165 5 -3 4 -31 8 -62 8 -32 1 -67 3 -78 7 -11 3 -26 2 -32 -3 -17 -11 -26
-63 -15 -80 10 -14 19 -15 107 -7 28 2 97 1 155 -2 l106 -5 1 -39 c2 -36 0
-39 -30 -44 -32 -6 -142 -1 -228 9 -40 5 -47 3 -52 -13 -13 -52 22 -93 62 -72
20 10 127 12 152 3 17 -7 14 -12 -24 -51 -56 -58 -143 -114 -222 -143 -36 -12
-65 -26 -65 -30 0 -5 4 -8 8 -8 5 0 27 -16 50 -36 l42 -36 72 48 c40 27 110
85 154 130 67 67 82 78 83 60 6 -81 5 -226 -2 -252 -9 -37 4 -44 66 -36 31 3
37 7 32 23 -3 10 -1 27 4 38 8 14 7 30 -3 59 -9 24 -13 63 -10 99 2 32 4 68 5
81 1 19 5 16 28 -20 40 -63 128 -137 222 -188 78 -41 83 -42 93 -24 6 10 26
34 44 52 17 19 32 35 32 36 0 2 -26 8 -57 15 -87 19 -177 66 -241 126 -64 60
-71 54 63 58 39 1 80 -2 91 -6 19 -7 22 -3 26 25 8 54 0 71 -31 61 -14 -4 -71
-7 -126 -6 -156 3 -144 0 -142 43 1 45 -12 42 205 41 161 -1 162 0 164 22 2
39 -2 61 -15 69 -19 12 -62 9 -75 -4 -9 -9 -47 -12 -125 -11 -142 2 -158 4
-153 12 3 4 7 26 10 49 4 34 1 44 -14 52 -26 14 -90 12 -95 -2z"/>
</g>
</svg>
