<?xml version="1.0" standalone="no"?>
<!DOCTYPE svg PUBLIC "-//W3C//DTD SVG 20010904//EN"
 "http://www.w3.org/TR/2001/REC-SVG-20010904/DTD/svg10.dtd">
<svg version="1.0" xmlns="http://www.w3.org/2000/svg"
 width="101.000000pt" height="101.000000pt" viewBox="0 0 101.000000 101.000000"
 preserveAspectRatio="xMidYMid meet">
<metadata>
Created by potrace 1.16, written by Peter Selinger 2001-2019
</metadata>
<g transform="translate(0.000000,101.000000) scale(0.100000,-0.100000)"
fill="#000000" stroke="none">
<path d="M315 958 l0 -53 -127 0 c-69 0 -129 -3 -132 -6 -12 -11 -16 -65 -7
-79 8 -12 35 -15 134 -15 l124 0 -1 -25 c-1 -21 -5 -25 -22 -22 -18 3 -28 -7
-55 -60 -21 -40 -65 -95 -120 -151 l-87 -87 36 -36 35 -35 48 47 c55 54 50 66
52 -126 0 -69 -4 -139 -10 -156 -17 -48 -2 -60 70 -56 23 2 27 5 22 22 -3 10
-1 28 4 39 8 14 7 31 -4 61 -17 49 -20 100 -5 100 6 0 10 18 10 40 0 22 -4 40
-10 40 -5 0 -10 16 -10 35 0 19 5 35 10 35 6 0 10 31 10 74 l0 73 45 42 c46
42 55 60 33 62 -7 0 1 5 19 10 29 8 32 13 30 47 -2 35 -1 37 28 35 16 -1 51
-2 78 -2 42 -1 47 -3 47 -23 0 -27 10 -43 30 -51 12 -4 12 -6 -2 -6 -14 -1
-16 -12 -15 -71 l2 -69 -110 5 c-60 2 -116 1 -122 -4 -17 -11 -26 -63 -15 -80
5 -8 20 -13 33 -13 92 4 127 8 147 15 36 12 70 0 71 -26 6 -82 5 -228 -2 -234
-11 -12 -146 -15 -167 -4 -23 12 -57 2 -63 -19 -2 -9 -2 -31 0 -48 5 -30 7
-31 42 -26 20 3 79 5 131 5 190 -1 221 -1 273 1 28 1 66 -1 83 -5 30 -7 32 -5
36 24 9 62 6 64 -100 65 -146 2 -141 1 -147 37 -3 17 -3 65 0 106 3 41 6 85 6
98 1 16 6 22 16 18 8 -3 23 -1 35 5 15 8 28 7 54 -6 26 -12 38 -13 55 -5 12 7
37 9 59 5 33 -6 39 -4 45 15 4 12 4 33 1 47 -6 23 -10 24 -48 18 -29 -5 -43
-3 -50 6 -7 11 -11 11 -15 2 -6 -15 -73 -18 -73 -3 0 6 -16 10 -35 10 -32 0
-35 2 -37 33 -2 44 -1 50 6 68 5 12 0 18 -16 23 -18 5 -20 8 -9 15 9 6 10 11
2 15 -6 4 -11 19 -11 34 l0 27 112 2 c68 2 116 -1 124 -8 33 -27 70 17 62 72
-3 23 -5 23 -143 23 l-141 1 2 25 c1 14 5 32 9 41 8 20 1 25 -46 34 -50 9 -73
-14 -64 -66 l7 -38 -84 2 -84 2 7 45 c4 25 5 47 4 49 -2 2 -25 5 -52 8 l-48 4
0 -53z"/>
</g>
</svg>
