<?xml version="1.0" standalone="no"?>
<!DOCTYPE svg PUBLIC "-//W3C//DTD SVG 20010904//EN"
 "http://www.w3.org/TR/2001/REC-SVG-20010904/DTD/svg10.dtd">
<svg version="1.0" xmlns="http://www.w3.org/2000/svg"
 width="101.000000pt" height="102.000000pt" viewBox="0 0 101.000000 102.000000"
 preserveAspectRatio="xMidYMid meet">
<metadata>
Created by potrace 1.16, written by Peter Selinger 2001-2019
</metadata>
<g transform="translate(0.000000,102.000000) scale(0.100000,-0.100000)"
fill="#000000" stroke="none">
<path d="M314 986 c-3 -20 -4 -42 -1 -48 3 -10 -23 -13 -118 -11 l-123 1 -7
-25 c-15 -63 6 -73 157 -70 95 2 97 1 92 -20 -3 -11 -1 -29 4 -40 9 -17 5 -18
-64 -17 -72 1 -73 1 -79 -27 -10 -45 9 -69 55 -69 21 0 40 5 42 11 3 8 22 10
63 4 l60 -7 -34 -29 c-19 -16 -33 -30 -30 -31 2 -2 26 -14 54 -28 l49 -25 -64
-7 c-63 -8 -172 -5 -257 6 -39 5 -43 3 -49 -19 -3 -13 -3 -33 1 -44 8 -27 20
-28 120 -16 92 12 150 14 183 9 l33 -5 -21 -29 c-33 -46 -168 -149 -247 -188
-40 -20 -73 -39 -72 -42 0 -3 20 -22 43 -42 l42 -37 88 65 c93 69 181 152 233
219 36 46 33 54 36 -95 3 -123 -20 -158 -88 -140 -5 1 -17 2 -26 1 -15 -1 -15
-5 2 -38 10 -21 19 -45 19 -54 0 -15 7 -17 40 -14 55 5 106 23 122 42 9 12 13
57 15 162 2 193 1 189 27 190 11 1 46 3 76 6 30 2 67 2 82 -1 l28 -5 -30 -60
c-20 -39 -26 -59 -18 -60 7 0 32 -2 55 -4 l42 -3 30 77 c16 42 33 89 37 105 7
28 6 29 -22 20 -24 -7 -154 -9 -253 -3 -21 1 -21 2 10 22 19 11 63 34 99 50
36 17 68 35 72 41 10 14 10 68 0 81 -4 6 -41 12 -82 14 -41 2 -76 4 -76 5 -1
0 -4 17 -8 36 l-6 35 51 -4 c29 -2 56 2 62 8 14 14 50 14 63 1 5 -5 32 -7 62
-3 44 5 53 10 58 29 9 36 1 59 -21 58 -11 -1 -46 -5 -78 -9 -40 -6 -65 -4 -81
5 -13 7 -44 11 -68 9 l-44 -4 7 40 c4 22 5 42 3 45 -3 2 -27 4 -54 5 l-49 0 4
-47 3 -46 -82 1 c-82 2 -83 2 -79 27 9 69 11 65 -39 68 -47 3 -47 3 -54 -32z
m245 -161 c2 -2 3 -17 3 -32 0 -15 5 -31 12 -35 6 -4 -32 -7 -85 -5 -79 2 -93
4 -82 15 15 15 16 25 6 36 -4 3 -8 12 -9 19 -1 9 19 11 75 9 41 -2 77 -5 80
-7z m81 -154 c22 -6 19 -10 -43 -49 l-68 -43 -49 42 c-28 23 -50 43 -50 44 0
2 20 0 44 -2 24 -3 52 0 62 6 21 12 66 13 104 2z"/>
</g>
</svg>
