<?xml version="1.0" standalone="no"?>
<!DOCTYPE svg PUBLIC "-//W3C//DTD SVG 20010904//EN"
 "http://www.w3.org/TR/2001/REC-SVG-20010904/DTD/svg10.dtd">
<svg version="1.0" xmlns="http://www.w3.org/2000/svg"
 width="101.000000pt" height="101.000000pt" viewBox="0 0 101.000000 101.000000"
 preserveAspectRatio="xMidYMid meet">
<metadata>
Created by potrace 1.16, written by Peter Selinger 2001-2019
</metadata>
<g transform="translate(0.000000,101.000000) scale(0.100000,-0.100000)"
fill="#000000" stroke="none">
<path d="M306 986 c-3 -13 -3 -45 0 -70 l7 -46 -126 6 -125 5 -7 -30 c-3 -17
-4 -40 0 -51 6 -19 13 -20 129 -16 114 3 123 2 119 -14 -8 -28 15 -61 39 -58
20 3 22 -2 22 -55 1 -57 1 -57 -32 -63 -19 -4 -51 -1 -72 6 -21 7 -53 10 -72
7 -18 -2 -41 0 -51 5 -36 19 -64 -40 -38 -80 9 -15 17 -15 121 -7 36 3 80 3
98 -1 31 -5 33 -8 27 -32 -25 -107 -126 -229 -237 -287 -66 -35 -70 -39 -52
-52 10 -8 30 -23 42 -34 29 -25 30 -24 109 35 105 79 184 192 217 307 16 52
18 55 50 56 28 1 34 -3 35 -21 1 -11 3 -46 6 -76 7 -92 1 -105 -63 -133 -32
-13 -72 -28 -90 -31 -17 -4 -32 -9 -32 -10 0 -2 16 -20 36 -41 l36 -38 55 27
c43 21 54 23 49 11 -17 -46 70 -119 114 -95 11 6 67 9 137 6 64 -2 128 0 141
5 36 14 82 129 51 129 -6 0 -24 9 -41 21 -16 12 -31 20 -33 18 -2 -2 -7 -20
-12 -39 -13 -51 -57 -71 -142 -65 -124 9 -116 5 -117 50 0 38 3 43 74 100 40
33 87 69 102 80 16 11 29 23 30 27 0 3 -21 20 -46 37 l-47 30 -28 -42 c-15
-23 -41 -55 -57 -70 l-30 -29 -7 40 c-4 24 -2 49 4 61 6 11 8 26 5 34 -4 10 2
15 18 16 13 0 61 3 108 6 48 3 104 1 129 -5 24 -6 45 -9 48 -7 10 11 6 89 -5
96 -7 4 -34 1 -59 -7 -36 -12 -52 -13 -75 -4 -16 6 -37 8 -46 6 -14 -5 -14 -3
2 10 10 8 24 17 30 20 6 3 -8 22 -31 43 -22 22 -42 48 -43 59 -6 50 -8 49 130
48 143 -1 149 2 135 65 -6 27 -8 28 -70 30 -40 1 -65 -2 -65 -8 0 -6 -11 -11
-25 -11 -14 0 -25 5 -25 10 0 6 -19 10 -41 10 l-42 0 6 60 c4 53 3 60 -15 66
-11 3 -35 3 -54 -1 l-34 -6 5 -65 5 -64 -98 2 -98 3 3 25 c7 48 11 65 18 82 6
14 1 16 -34 11 -27 -4 -41 -2 -41 6 0 21 -28 11 -34 -13z m294 -215 c0 -11 -4
-23 -10 -26 -19 -12 -10 -23 23 -31 31 -7 31 -7 9 -17 -23 -10 -23 -11 18 -52
l41 -42 -51 -7 c-29 -4 -57 -3 -63 3 -7 5 -35 8 -63 8 l-51 -2 3 31 c1 18 7
41 13 52 6 12 11 23 11 25 0 9 -59 29 -68 23 -5 -3 -7 6 -4 19 4 21 10 24 56
28 129 9 136 8 136 -12z"/>
</g>
</svg>
