<?xml version="1.0" standalone="no"?>
<!DOCTYPE svg PUBLIC "-//W3C//DTD SVG 20010904//EN"
 "http://www.w3.org/TR/2001/REC-SVG-20010904/DTD/svg10.dtd">
<svg version="1.0" xmlns="http://www.w3.org/2000/svg"
 width="101.000000pt" height="101.000000pt" viewBox="0 0 101.000000 101.000000"
 preserveAspectRatio="xMidYMid meet">
<metadata>
Created by potrace 1.16, written by Peter Selinger 2001-2019
</metadata>
<g transform="translate(0.000000,101.000000) scale(0.100000,-0.100000)"
fill="#000000" stroke="none">
<path d="M304 975 c-3 -19 -4 -41 -1 -48 4 -11 -20 -13 -123 -11 l-129 2 -6
-29 c-4 -16 -4 -37 0 -48 6 -20 49 -36 66 -25 6 3 52 7 102 9 l92 3 -1 -32
c-1 -17 -2 -38 -3 -46 -1 -12 -20 -15 -116 -14 -112 1 -122 -2 -115 -31 1 -5
2 -45 3 -87 0 -84 4 -89 65 -80 35 5 48 31 40 77 -5 23 -2 25 33 25 22 0 39 5
39 10 0 15 67 12 74 -2 5 -10 7 -10 12 0 7 15 164 17 164 2 0 -5 18 -10 40
-10 22 0 40 5 40 10 0 11 97 13 176 4 l51 -6 -3 -49 c-4 -54 -3 -54 66 -49 35
2 53 16 43 33 -3 5 -5 41 -4 81 l2 71 -113 1 -113 1 -3 44 -3 44 98 0 c54 0
104 -4 111 -8 33 -22 68 20 60 73 -3 22 -7 23 -133 24 l-130 1 3 45 4 45 -51
0 c-48 0 -57 -5 -51 -30 1 -5 3 -22 4 -37 l2 -28 -96 3 -96 2 1 33 c2 18 5 36
9 39 16 16 2 23 -49 23 -54 0 -54 0 -61 -35z m289 -169 c-4 -12 -7 -32 -8 -46
0 -25 -1 -25 -86 -25 -61 0 -85 3 -82 11 2 7 0 15 -5 18 -5 3 -7 17 -5 30 6
28 15 31 121 32 69 1 72 0 65 -20z"/>
<path d="M209 573 c-20 -5 -28 -31 -22 -67 5 -24 21 -32 48 -26 6 1 30 4 54 6
35 4 42 2 38 -10 -3 -8 0 -29 6 -46 11 -28 10 -33 -8 -46 -13 -10 -31 -13 -50
-10 -90 18 -171 23 -182 13 -8 -9 -8 -76 0 -84 11 -11 125 -2 146 11 6 4 29 5
50 1 43 -7 40 -1 44 -115 1 -36 -2 -75 -6 -86 -9 -26 9 -33 65 -26 34 4 36 6
28 27 -5 13 -7 52 -4 87 2 35 5 73 5 86 1 15 6 22 14 18 8 -3 27 0 43 6 24 9
36 8 63 -4 18 -9 38 -14 45 -11 14 5 24 47 17 73 -5 19 -42 23 -153 17 -33 -2
-35 0 -32 28 1 17 3 40 3 51 1 15 8 22 23 23 11 1 44 3 71 5 75 7 103 -1 103
-27 0 -19 9 -92 17 -137 20 -119 88 -212 173 -238 46 -14 75 2 98 56 21 50 28
112 13 112 -7 0 -27 11 -46 26 l-33 25 -10 -26 c-6 -15 -8 -31 -5 -36 3 -5 1
-18 -5 -29 -9 -17 -14 -18 -31 -9 -51 27 -78 159 -68 328 1 25 -18 44 -36 33
-27 -18 -418 -18 -451 0 -5 2 -16 3 -25 1z"/>
</g>
</svg>
