<?xml version="1.0" standalone="no"?>
<!DOCTYPE svg PUBLIC "-//W3C//DTD SVG 20010904//EN"
 "http://www.w3.org/TR/2001/REC-SVG-20010904/DTD/svg10.dtd">
<svg version="1.0" xmlns="http://www.w3.org/2000/svg"
 width="101.000000pt" height="102.000000pt" viewBox="0 0 101.000000 102.000000"
 preserveAspectRatio="xMidYMid meet">
<metadata>
Created by potrace 1.16, written by Peter Selinger 2001-2019
</metadata>
<g transform="translate(0.000000,102.000000) scale(0.100000,-0.100000)"
fill="#000000" stroke="none">
<path d="M318 1003 c-2 -23 -1 -32 6 -61 l5 -22 -107 6 c-143 9 -153 8 -163
-8 -11 -16 -11 -59 -1 -74 9 -14 118 -18 127 -5 8 14 52 14 60 0 5 -6 22 -8
46 -4 38 7 39 6 30 -17 -5 -13 -5 -31 -1 -39 7 -11 0 -14 -38 -12 -26 1 -54 3
-62 4 -47 7 -49 3 -44 -78 4 -73 6 -141 5 -180 -1 -10 2 -55 4 -101 6 -98 -8
-202 -31 -219 -14 -10 -12 -16 12 -55 15 -23 28 -44 29 -46 1 -2 38 21 82 50
43 29 98 62 121 72 36 16 42 23 37 40 -3 12 -8 32 -11 46 -3 13 -7 26 -9 28
-2 2 -33 -17 -70 -43 -36 -26 -68 -45 -71 -43 -2 3 -4 29 -5 59 0 99 2 111 18
105 8 -3 24 -1 35 5 38 21 82 3 108 -44 61 -110 203 -206 358 -244 l72 -17 45
50 c24 27 44 51 45 54 0 4 -17 6 -37 7 -21 1 -51 4 -68 7 -16 3 -46 7 -66 10
-48 6 -119 28 -119 37 0 11 149 71 160 64 6 -3 17 -2 26 3 14 8 12 14 -16 45
-18 21 -29 37 -26 37 3 0 0 16 -8 35 -15 36 -20 141 -7 150 5 2 9 40 9 84 1
87 -9 101 -59 83 -35 -12 -56 -4 -62 24 -6 31 4 37 61 36 25 -1 52 4 59 10 8
6 38 9 77 6 59 -5 65 -4 70 16 9 33 7 43 -10 61 -10 10 -23 13 -33 9 -9 -4
-64 -8 -122 -8 l-106 -1 9 39 c5 21 6 41 3 44 -3 3 -28 6 -55 7 l-50 0 3 -49
3 -48 -81 7 c-44 4 -82 8 -84 10 -4 5 -4 45 0 65 3 12 -8 16 -48 18 -45 3 -53
0 -55 -15z m282 -188 c0 -13 -5 -27 -11 -31 -8 -4 -7 -9 2 -16 9 -6 -21 -7
-81 -2 -52 3 -96 7 -96 8 -1 0 0 15 3 31 l5 30 89 2 c88 2 89 1 89 -22z m16
-125 l90 0 1 -35 1 -35 -91 0 c-384 -1 -345 -5 -344 36 1 26 5 33 16 29 9 -2
23 0 31 5 8 5 57 7 110 4 52 -2 136 -4 186 -4z m0 -140 l90 0 1 -35 1 -35 -91
0 c-384 -1 -345 -5 -344 36 1 26 5 33 16 29 9 -2 23 0 31 5 8 5 57 7 110 4 52
-2 136 -4 186 -4z m105 -138 c17 -7 8 -15 -54 -50 -40 -23 -78 -42 -83 -42
-10 0 -44 34 -74 74 -14 17 -13 18 5 13 11 -4 26 -3 34 2 17 11 145 13 172 3z"/>
</g>
</svg>
