<?xml version="1.0" standalone="no"?>
<!DOCTYPE svg PUBLIC "-//W3C//DTD SVG 20010904//EN"
 "http://www.w3.org/TR/2001/REC-SVG-20010904/DTD/svg10.dtd">
<svg version="1.0" xmlns="http://www.w3.org/2000/svg"
 width="101.000000pt" height="102.000000pt" viewBox="0 0 101.000000 102.000000"
 preserveAspectRatio="xMidYMid meet">
<metadata>
Created by potrace 1.16, written by Peter Selinger 2001-2019
</metadata>
<g transform="translate(0.000000,102.000000) scale(0.100000,-0.100000)"
fill="#000000" stroke="none">
<path d="M314 985 c-3 -19 -4 -43 -2 -53 4 -16 -6 -17 -133 -15 l-137 2 -7
-26 c-3 -14 -3 -38 0 -54 l7 -29 145 5 c126 4 144 3 133 -10 -17 -21 -3 -52
28 -60 56 -14 -24 -32 -163 -38 l-60 -2 2 -60 c3 -57 4 -129 4 -177 0 -13 1
-63 2 -111 2 -76 -1 -91 -16 -102 -18 -13 -18 -15 -1 -63 l18 -49 85 37 c47
20 123 49 167 64 77 25 82 29 86 58 7 46 -1 71 -21 62 -9 -3 -61 -23 -116 -45
l-100 -38 -8 41 c-6 26 -5 50 2 64 6 13 8 31 4 41 -5 12 -2 15 10 10 10 -4 28
-2 40 4 17 8 40 7 83 -1 61 -13 102 -16 110 -7 3 2 6 23 7 46 2 53 -13 63 -64
46 -21 -8 -62 -12 -96 -9 -109 7 -108 7 -105 34 1 14 4 36 5 50 1 19 8 25 27
26 14 1 54 4 90 8 36 4 86 8 113 8 34 0 47 4 47 14 0 22 -51 94 -66 94 -8 0
-14 3 -15 8 -6 61 -12 57 82 59 l86 2 -1 -37 c-1 -32 2 -37 23 -40 52 -8 98
25 71 52 -5 5 -10 12 -10 16 0 3 60 5 134 4 135 0 135 0 141 24 3 14 3 37 0
52 -6 26 -9 28 -71 29 -37 1 -64 -3 -64 -9 0 -5 -11 -10 -25 -10 -14 0 -25 5
-25 10 0 6 -17 10 -39 10 -41 0 -57 21 -40 53 17 29 1 42 -52 42 -43 0 -51 -3
-55 -22 -3 -11 -1 -30 5 -41 20 -38 14 -41 -76 -39 l-88 2 0 50 0 50 -47 3
c-47 3 -47 3 -54 -33z"/>
<path d="M538 713 c-17 -4 -23 -17 -18 -38 11 -44 14 -132 10 -320 -1 -33 1
-74 5 -92 4 -20 1 -49 -8 -75 -17 -52 -12 -104 12 -110 9 -3 33 -3 55 0 l38 4
-8 37 c-4 20 -7 57 -6 84 1 26 1 75 1 110 -1 304 -1 310 18 303 8 -3 23 -1 34
4 11 6 40 8 68 4 56 -7 51 6 54 -160 2 -122 -8 -151 -47 -139 -24 7 -86 15
-86 10 0 -1 7 -19 15 -39 9 -20 14 -40 11 -44 -8 -13 10 -33 30 -33 55 1 126
26 150 52 17 19 19 35 16 137 -2 86 0 118 10 124 10 8 10 11 1 15 -15 6 -18
73 -3 73 13 0 13 77 1 85 -12 7 -330 15 -353 8z"/>
</g>
</svg>
