<?xml version="1.0" standalone="no"?>
<!DOCTYPE svg PUBLIC "-//W3C//DTD SVG 20010904//EN"
 "http://www.w3.org/TR/2001/REC-SVG-20010904/DTD/svg10.dtd">
<svg version="1.0" xmlns="http://www.w3.org/2000/svg"
 width="101.000000pt" height="102.000000pt" viewBox="0 0 101.000000 102.000000"
 preserveAspectRatio="xMidYMid meet">
<metadata>
Created by potrace 1.16, written by Peter Selinger 2001-2019
</metadata>
<g transform="translate(0.000000,102.000000) scale(0.100000,-0.100000)"
fill="#000000" stroke="none">
<path d="M325 968 l0 -54 -135 3 c-146 3 -147 2 -149 -54 -1 -24 26 -56 40
-48 4 3 60 7 123 9 124 3 127 2 118 -51 -4 -19 -7 -21 -24 -12 -24 13 -18 19
-61 -66 -47 -94 -114 -182 -177 -229 l-51 -39 33 -20 c18 -10 35 -23 36 -28 8
-21 34 -5 75 46 37 45 45 50 46 32 0 -12 3 -58 6 -103 4 -58 1 -93 -10 -123
-11 -32 -12 -48 -4 -63 6 -11 8 -33 5 -49 -6 -31 0 -34 59 -30 32 3 48 18 37
36 -11 16 -19 364 -10 430 6 39 22 68 65 116 21 23 32 43 27 50 -5 9 -2 10 9
6 21 -8 50 21 43 42 -19 60 -24 56 69 58 81 1 85 0 86 -20 2 -39 -2 -60 -18
-84 -11 -17 -13 -37 -8 -82 7 -59 7 -59 -22 -65 -28 -5 -92 -2 -169 8 -47 6
-55 -5 -46 -62 4 -31 16 -39 52 -33 8 2 52 4 97 6 l82 3 -5 -41 c-11 -99 -85
-201 -188 -261 -37 -22 -63 -42 -59 -46 4 -3 25 -19 46 -34 l37 -27 34 20 c75
47 155 150 191 250 8 20 14 28 14 18 3 -58 90 -166 191 -234 l65 -44 15 23 c8
13 28 36 43 52 28 29 24 45 -11 46 -7 0 -38 13 -70 29 -89 45 -156 128 -186
227 -5 18 -2 22 16 24 55 4 160 -1 181 -9 38 -15 74 -2 80 26 9 51 -1 61 -56
62 -104 0 -107 1 -59 24 23 12 42 25 42 30 0 10 -35 63 -63 94 l-20 22 -38
-20 c-22 -11 -39 -22 -39 -24 0 -3 14 -30 31 -60 35 -62 31 -80 -15 -70 -17 3
-40 6 -51 7 -18 0 -20 7 -18 50 1 28 8 57 15 65 9 11 9 16 -2 23 -11 7 -10 12
4 26 13 12 16 27 13 48 l-5 31 97 0 c53 0 102 -4 109 -8 20 -13 60 1 67 23 4
11 4 33 0 49 -6 27 -8 28 -70 30 -40 1 -65 -2 -65 -8 0 -6 -11 -11 -25 -11
-14 0 -25 5 -25 10 0 6 -19 10 -42 10 -41 0 -43 1 -42 30 0 17 4 33 7 37 15
14 5 21 -38 26 -68 10 -77 3 -73 -54 l3 -48 -86 2 -87 2 4 29 c2 15 9 35 15
42 17 21 6 26 -53 31 l-53 4 0 -53z"/>
</g>
</svg>
