<?xml version="1.0" standalone="no"?>
<!DOCTYPE svg PUBLIC "-//W3C//DTD SVG 20010904//EN"
 "http://www.w3.org/TR/2001/REC-SVG-20010904/DTD/svg10.dtd">
<svg version="1.0" xmlns="http://www.w3.org/2000/svg"
 width="101.000000pt" height="101.000000pt" viewBox="0 0 101.000000 101.000000"
 preserveAspectRatio="xMidYMid meet">
<metadata>
Created by potrace 1.16, written by Peter Selinger 2001-2019
</metadata>
<g transform="translate(0.000000,101.000000) scale(0.100000,-0.100000)"
fill="#000000" stroke="none">
<path d="M324 945 l5 -66 -34 7 c-23 4 -35 2 -35 -5 0 -6 -11 -11 -25 -11 -14
0 -25 5 -25 10 0 6 -30 10 -70 10 -66 0 -70 -1 -76 -25 -3 -14 -3 -36 0 -49 6
-23 6 -24 141 -22 l135 2 0 -26 c0 -14 -6 -32 -12 -38 -16 -16 5 -32 42 -32
35 0 45 10 49 50 1 19 4 36 5 37 1 1 39 5 84 8 l82 5 -6 -24 c-9 -36 3 -63 32
-70 38 -10 65 2 63 27 -3 48 1 57 26 57 14 0 25 5 25 10 0 13 124 13 170 0 39
-11 50 -2 50 42 0 31 -26 62 -43 51 -7 -5 -63 -8 -125 -8 -109 0 -113 1 -106
20 15 46 16 95 3 96 -83 7 -89 5 -95 -29 -3 -17 -4 -45 -2 -61 l4 -28 -85 1
-86 1 2 35 c1 19 5 47 8 63 5 27 5 27 -50 27 l-56 0 5 -65z"/>
<path d="M202 720 l-22 -28 37 -23 c21 -13 57 -41 81 -63 l43 -40 27 34 c15
19 27 39 27 45 0 13 -135 105 -154 104 -9 0 -26 -13 -39 -29z"/>
<path d="M415 631 c-3 -17 -1 -39 5 -51 11 -20 16 -21 93 -15 l82 7 -2 -54 c0
-29 3 -58 8 -64 11 -14 6 -210 -5 -221 -9 -9 -128 -8 -197 1 -52 7 -60 -3 -51
-62 4 -30 5 -31 46 -26 22 4 84 6 136 6 186 -1 221 -1 273 1 28 1 71 -2 93 -6
41 -8 42 -8 46 24 9 57 0 72 -36 63 -17 -4 -62 -7 -101 -6 -125 2 -112 -9
-119 101 -3 53 -3 119 -1 146 3 28 5 60 6 73 1 17 5 22 17 17 8 -3 53 -3 99 1
76 6 84 9 89 30 3 12 3 32 -1 44 -6 19 -12 21 -44 15 -85 -15 -121 -17 -121
-6 0 6 -17 11 -40 11 -22 0 -40 -4 -40 -10 0 -5 -16 -10 -35 -10 -19 0 -35 5
-35 10 0 6 -33 10 -79 10 l-79 0 -7 -29z"/>
<path d="M101 601 c-12 -16 -21 -33 -21 -38 1 -4 24 -25 53 -46 29 -20 65 -47
80 -59 l28 -22 24 29 c30 37 31 46 3 72 -28 25 -130 93 -140 93 -4 0 -16 -13
-27 -29z"/>
<path d="M261 375 c-18 -31 -61 -90 -97 -131 l-66 -75 34 -39 c18 -21 36 -37
39 -37 4 1 44 57 90 125 46 68 88 130 94 137 7 10 1 22 -20 44 -17 17 -33 31
-37 31 -3 0 -20 -25 -37 -55z"/>
</g>
</svg>
