<?xml version="1.0" standalone="no"?>
<!DOCTYPE svg PUBLIC "-//W3C//DTD SVG 20010904//EN"
 "http://www.w3.org/TR/2001/REC-SVG-20010904/DTD/svg10.dtd">
<svg version="1.0" xmlns="http://www.w3.org/2000/svg"
 width="101.000000pt" height="101.000000pt" viewBox="0 0 101.000000 101.000000"
 preserveAspectRatio="xMidYMid meet">
<metadata>
Created by potrace 1.16, written by Peter Selinger 2001-2019
</metadata>
<g transform="translate(0.000000,101.000000) scale(0.100000,-0.100000)"
fill="#000000" stroke="none">
<path d="M304 975 c-3 -19 -4 -43 -2 -53 4 -15 -2 -17 -51 -15 -31 1 -81 4
-111 8 -30 3 -61 2 -67 -3 -22 -15 -27 -67 -8 -86 15 -15 33 -16 134 -12 l117
6 -1 -39 c0 -36 -1 -38 -23 -30 -39 15 -47 11 -61 -28 -17 -46 -55 -109 -87
-143 l-24 -26 51 -15 50 -16 18 34 17 35 100 4 100 4 2 -45 2 -45 -53 -1 c-28
-1 -99 -3 -156 -5 -57 -2 -111 1 -121 6 -41 22 -73 -10 -63 -63 4 -23 9 -25
41 -20 80 10 179 13 221 8 l44 -7 -44 -44 c-69 -70 -159 -124 -262 -158 -15
-5 -12 -12 24 -46 49 -46 51 -46 138 10 73 47 141 108 191 172 32 40 38 44 39
25 0 -12 3 -60 6 -106 3 -46 2 -105 -3 -131 -10 -54 -3 -61 54 -53 l30 5 1
121 c1 67 2 133 3 147 2 24 3 24 14 5 28 -50 145 -152 214 -189 41 -21 75 -36
76 -34 1 1 22 25 46 51 34 38 41 50 30 57 -8 5 -17 7 -21 4 -4 -2 -36 5 -72
16 -62 19 -159 81 -200 127 -18 20 -18 21 5 22 87 6 228 5 254 -1 29 -6 32 -4
37 18 2 15 2 35 0 45 -5 18 -16 19 -177 18 -233 -1 -216 -5 -214 45 l2 41 51
-2 c27 0 55 3 61 8 12 10 137 6 171 -6 18 -6 23 -3 29 19 3 14 4 36 0 49 -5
20 -12 23 -66 25 -36 2 -60 -2 -60 -8 0 -5 -16 -10 -35 -10 -19 0 -35 5 -35
10 0 6 -27 10 -61 10 -54 0 -60 2 -54 18 4 9 7 24 8 32 0 8 4 21 10 28 16 20
-9 32 -65 32 l-48 0 3 -65 c2 -73 7 -70 -91 -58 -50 6 -52 7 -36 24 9 10 13
23 9 28 -4 7 4 11 19 11 32 0 59 27 54 54 -4 20 1 21 100 24 99 2 103 2 97
-17 -17 -54 -15 -60 20 -67 43 -8 76 3 74 24 -5 58 -8 57 116 57 92 0 118 3
126 15 12 18 3 71 -14 82 -15 9 -105 9 -130 0 -10 -4 -35 -6 -57 -4 -36 4 -40
7 -40 31 0 15 5 32 12 39 18 18 4 24 -56 26 -63 1 -69 -5 -60 -65 l7 -39 -100
2 -99 3 1 31 c1 17 5 36 9 43 13 21 -5 31 -54 31 -48 0 -49 -1 -56 -35z"/>
</g>
</svg>
