<?xml version="1.0" standalone="no"?>
<!DOCTYPE svg PUBLIC "-//W3C//DTD SVG 20010904//EN"
 "http://www.w3.org/TR/2001/REC-SVG-20010904/DTD/svg10.dtd">
<svg version="1.0" xmlns="http://www.w3.org/2000/svg"
 width="101.000000pt" height="102.000000pt" viewBox="0 0 101.000000 102.000000"
 preserveAspectRatio="xMidYMid meet">
<metadata>
Created by potrace 1.16, written by Peter Selinger 2001-2019
</metadata>
<g transform="translate(0.000000,102.000000) scale(0.100000,-0.100000)"
fill="#000000" stroke="none">
<path d="M323 971 l3 -50 -128 2 c-136 2 -148 -2 -148 -48 0 -29 14 -46 36
-46 10 1 69 2 130 3 83 2 111 0 110 -9 -1 -7 -5 -16 -9 -19 -19 -19 13 -54 49
-54 14 0 22 -4 19 -10 -8 -13 -72 -13 -80 0 -3 5 -53 9 -118 7 l-112 -2 -3
-30 c-4 -56 5 -60 109 -51 42 3 47 1 48 -18 1 -11 3 -43 6 -71 2 -27 1 -105
-2 -172 l-6 -123 -32 -6 c-18 -3 -41 -1 -52 4 -26 15 -100 -6 -106 -30 -11
-41 10 -67 48 -58 34 9 140 18 270 25 172 9 250 14 275 17 19 2 25 -2 25 -17
0 -11 4 -31 9 -44 5 -14 4 -27 -3 -34 -17 -17 -13 -44 7 -49 10 -3 32 -3 49
-1 31 5 31 7 32 57 0 106 -10 98 122 96 l77 -1 4 32 c8 53 1 65 -38 64 -18 -1
-45 -8 -59 -15 -19 -10 -31 -11 -50 -2 -14 6 -31 9 -39 6 -11 -4 -15 16 -19
98 -4 57 -4 126 -2 153 3 28 5 60 6 72 1 18 6 20 28 16 14 -3 34 -5 44 -4 9 1
32 3 50 4 17 1 35 6 39 12 11 14 10 63 -1 70 -6 3 -51 0 -100 -7 -74 -9 -95
-9 -115 2 -14 7 -33 10 -43 6 -16 -5 -16 -5 -2 7 9 7 17 25 17 40 -1 15 1 30
4 32 8 8 203 10 224 2 31 -11 56 17 52 57 -3 28 -7 31 -48 38 -25 4 -88 7
-140 5 l-96 -2 2 25 c1 14 5 33 9 43 7 18 9 17 -72 21 -33 1 -33 1 -30 -44 l2
-45 -81 0 -80 0 7 40 c5 22 8 43 9 48 0 4 -25 7 -55 7 l-55 0 3 -49z m267
-148 c0 -6 -4 -15 -10 -18 -16 -10 -12 -45 6 -45 9 0 14 -6 12 -12 -7 -20
-173 -21 -188 -2 -10 11 -10 14 -1 14 7 0 11 8 10 18 -5 55 -1 57 109 57 41 0
62 -4 62 -12z m-79 -153 c13 -8 25 -7 39 0 12 7 39 8 63 5 40 -6 43 -9 44 -40
l1 -33 -102 -5 c-55 -4 -123 -4 -151 -2 -27 3 -60 5 -71 6 -18 1 -22 7 -21 34
1 32 1 32 43 27 23 -2 50 1 60 7 24 13 70 14 95 1z m40 -147 l105 -5 1 -33 1
-33 -102 -5 c-55 -4 -123 -4 -151 -2 -27 3 -60 5 -71 6 -18 1 -22 7 -21 35 1
26 5 33 16 29 9 -2 23 0 31 5 17 11 36 11 191 3z m0 -150 l106 -5 0 -29 c0
-24 -4 -29 -21 -27 -12 1 -46 -4 -77 -11 -43 -10 -61 -11 -77 -2 -18 9 -29 8
-58 -5 -28 -13 -40 -14 -59 -6 -14 6 -31 9 -39 6 -12 -5 -15 3 -13 35 1 32 5
40 17 36 8 -2 22 0 30 5 17 11 36 11 191 3z"/>
</g>
</svg>
