<?xml version="1.0" standalone="no"?>
<!DOCTYPE svg PUBLIC "-//W3C//DTD SVG 20010904//EN"
 "http://www.w3.org/TR/2001/REC-SVG-20010904/DTD/svg10.dtd">
<svg version="1.0" xmlns="http://www.w3.org/2000/svg"
 width="101.000000pt" height="101.000000pt" viewBox="0 0 101.000000 101.000000"
 preserveAspectRatio="xMidYMid meet">
<metadata>
Created by potrace 1.16, written by Peter Selinger 2001-2019
</metadata>
<g transform="translate(0.000000,101.000000) scale(0.100000,-0.100000)"
fill="#000000" stroke="none">
<path d="M304 975 c-3 -19 -4 -43 -1 -54 4 -16 -2 -17 -72 -14 -42 2 -88 6
-103 9 -46 10 -76 -3 -83 -36 -4 -16 -4 -39 0 -50 6 -19 13 -19 134 -16 120 4
128 3 124 -14 -9 -33 15 -60 52 -60 49 0 82 39 56 66 -6 5 22 10 75 11 80 1
84 0 85 -20 1 -12 1 -26 0 -31 -5 -24 68 -35 99 -16 12 7 12 12 2 22 -6 6 -12
19 -12 28 0 13 19 15 135 14 149 0 154 2 140 65 -8 35 -26 44 -63 30 -16 -7
-60 -8 -112 -4 l-86 7 3 47 3 47 -48 0 c-26 -1 -50 -5 -54 -11 -5 -5 -5 -29
-2 -52 l6 -42 -89 2 -89 2 6 48 c4 26 4 49 2 52 -3 3 -27 5 -53 5 -47 0 -48
-1 -55 -35z"/>
<path d="M470 778 c-19 -5 -37 -11 -39 -13 -2 -2 6 -19 18 -38 l21 -35 -189 4
-189 4 -7 -30 c-12 -55 5 -76 55 -72 8 1 66 3 129 5 l115 4 -49 -44 c-55 -51
-89 -70 -135 -78 -49 -9 -50 -11 -30 -62 19 -51 17 -50 98 -38 92 14 94 14 87
-14 -4 -14 -9 -34 -11 -45 -13 -69 -97 -130 -216 -156 l-58 -13 38 -42 37 -41
51 17 c160 53 242 149 246 287 0 12 5 23 12 23 72 8 66 21 69 -136 2 -55 7
-108 12 -117 14 -23 92 -50 113 -39 10 5 59 8 110 8 94 -2 94 -2 122 30 24 27
59 111 48 117 -2 0 -23 11 -47 24 -24 12 -46 20 -48 18 -2 -2 -5 -17 -8 -34
-2 -17 -6 -39 -9 -49 -8 -26 -61 -47 -94 -37 -15 4 -42 9 -61 10 -19 2 -39 8
-45 14 -6 6 -10 42 -9 83 3 115 4 119 19 113 8 -3 26 0 40 6 25 11 29 10 59
-26 l32 -38 41 21 c23 12 42 25 42 29 0 3 -41 48 -92 99 l-91 92 -41 -21 -40
-21 39 -32 39 -33 -55 -6 c-30 -4 -85 -4 -124 -1 -38 3 -81 6 -95 6 l-25 1 30
21 c17 12 47 38 69 57 30 27 45 34 71 32 19 -2 39 3 48 12 19 19 73 21 81 4 5
-10 7 -10 12 0 8 18 133 16 171 -3 50 -25 80 3 71 66 l-3 24 -172 0 -171 0
-14 45 c-15 49 -25 54 -78 38z"/>
</g>
</svg>
