<?xml version="1.0" standalone="no"?>
<!DOCTYPE svg PUBLIC "-//W3C//DTD SVG 20010904//EN"
 "http://www.w3.org/TR/2001/REC-SVG-20010904/DTD/svg10.dtd">
<svg version="1.0" xmlns="http://www.w3.org/2000/svg"
 width="101.000000pt" height="101.000000pt" viewBox="0 0 101.000000 101.000000"
 preserveAspectRatio="xMidYMid meet">
<metadata>
Created by potrace 1.16, written by Peter Selinger 2001-2019
</metadata>
<g transform="translate(0.000000,101.000000) scale(0.100000,-0.100000)"
fill="#000000" stroke="none">
<path d="M322 950 l3 -61 -132 6 -132 6 -7 -27 c-11 -42 7 -79 36 -77 204 15
269 12 229 -13 -6 -3 -9 -15 -6 -25 4 -15 2 -17 -13 -9 -31 16 -67 -3 -68 -37
0 -15 -5 -41 -11 -57 -10 -25 -15 -28 -44 -22 -84 16 -105 16 -109 -2 -3 -10
-3 -32 0 -50 l4 -32 64 5 64 6 -26 -71 c-14 -39 -35 -87 -46 -106 -11 -19 -19
-36 -17 -38 2 -2 34 -13 71 -25 37 -13 70 -26 73 -31 9 -14 -83 -62 -160 -85
l-72 -20 49 -44 48 -43 68 37 c37 20 86 52 109 71 23 19 45 34 51 34 5 0 35
-18 66 -40 l58 -41 33 38 33 38 -2 -52 c-1 -58 4 -63 66 -55 36 4 36 5 33 44
-3 32 -1 39 11 34 9 -3 24 -1 35 5 11 6 37 8 58 4 35 -6 37 -8 38 -47 1 -22 5
-43 8 -46 6 -6 96 -5 100 0 1 2 -2 31 -8 66 -8 45 -8 71 0 95 7 17 9 55 7 82
-10 101 -12 230 -4 246 5 8 6 26 3 38 -5 21 -10 22 -42 15 -41 -9 -184 -9
-252 0 -42 5 -47 4 -52 -16 -3 -12 -2 -29 3 -37 5 -9 7 -59 4 -111 -2 -52 -4
-130 -5 -172 0 -43 -3 -78 -5 -78 -4 0 -126 60 -131 64 -1 1 9 24 22 51 35 75
71 211 67 258 -2 15 -12 17 -69 17 -103 -2 -115 0 -109 17 3 8 6 18 6 23 0 4
9 6 20 3 25 -7 77 14 84 34 4 8 -1 29 -9 46 -8 16 -15 33 -15 36 0 10 175 7
182 -3 4 -5 2 -18 -3 -28 -23 -43 19 -78 77 -64 24 6 25 10 21 54 l-5 47 58
-3 c33 -1 61 2 65 8 8 13 91 13 117 -1 24 -13 25 -13 33 32 5 27 2 40 -10 53
-9 9 -21 13 -27 10 -5 -3 -60 -7 -122 -8 l-112 -1 3 34 c1 18 7 39 13 46 21
25 -41 44 -97 29 -21 -6 -22 -11 -18 -62 l5 -55 -62 7 c-33 3 -72 6 -86 6 -19
0 -23 4 -17 18 14 33 15 76 3 84 -7 4 -33 8 -56 8 l-44 0 4 -60z m429 -366
c28 -5 37 -11 39 -28 5 -55 4 -266 -2 -271 -3 -4 -30 -6 -59 -6 -102 -1 -97
-4 -104 65 -3 33 -3 90 0 126 3 36 6 75 6 88 1 16 6 21 18 18 9 -3 23 -1 31 4
18 11 23 12 71 4z m-365 -28 c7 -17 -42 -166 -61 -185 -11 -12 -20 -11 -57 4
l-44 18 31 83 c22 61 34 82 45 79 8 -3 22 0 30 5 22 14 50 12 56 -4z"/>
</g>
</svg>
