<?xml version="1.0" standalone="no"?>
<!DOCTYPE svg PUBLIC "-//W3C//DTD SVG 20010904//EN"
 "http://www.w3.org/TR/2001/REC-SVG-20010904/DTD/svg10.dtd">
<svg version="1.0" xmlns="http://www.w3.org/2000/svg"
 width="101.000000pt" height="102.000000pt" viewBox="0 0 101.000000 102.000000"
 preserveAspectRatio="xMidYMid meet">
<metadata>
Created by potrace 1.16, written by Peter Selinger 2001-2019
</metadata>
<g transform="translate(0.000000,102.000000) scale(0.100000,-0.100000)"
fill="#000000" stroke="none">
<path d="M314 971 l1 -49 -85 5 c-47 2 -101 7 -121 10 -43 6 -69 -15 -69 -55
0 -50 6 -52 147 -47 119 3 131 2 128 -13 -2 -9 -4 -22 -4 -29 -1 -6 -9 -9 -18
-7 -13 3 -28 -11 -52 -47 -40 -58 -99 -112 -156 -141 -37 -19 -38 -22 -21 -32
11 -6 30 -21 43 -33 l24 -23 47 42 c26 23 77 71 114 105 36 35 71 63 77 63 20
0 11 19 -16 34 l-28 15 31 -5 c35 -7 64 15 64 47 0 14 7 19 29 19 15 0 56 3
90 6 l61 7 0 -31 c0 -17 -5 -34 -10 -37 -19 -11 1 -25 35 -25 40 0 65 22 65
58 l0 27 77 -2 c43 -1 99 1 125 4 52 5 64 22 53 73 -6 29 -7 29 -63 24 -31 -3
-89 -6 -127 -7 l-70 -2 2 30 c0 16 4 37 7 45 5 12 -4 15 -53 15 l-60 0 4 -47
c4 -55 6 -54 -114 -42 l-62 7 3 41 3 41 -51 3 -52 3 2 -50z"/>
<path d="M454 743 c-16 -12 -27 -51 -20 -77 5 -22 11 -23 100 -24 53 -1 98 3
101 8 9 14 68 13 83 -2 8 -8 15 -8 27 2 13 11 26 11 72 1 63 -15 73 -9 73 46
0 40 -27 57 -73 47 -36 -8 -289 -7 -327 1 -14 3 -30 2 -36 -2z"/>
<path d="M277 575 c-34 -52 -135 -150 -200 -190 -44 -28 -58 -45 -38 -45 5 0
24 -14 41 -31 l31 -32 49 48 c44 44 48 45 49 24 0 -13 3 -54 6 -91 3 -43 0
-81 -9 -106 -19 -53 -8 -67 50 -64 26 1 49 4 51 6 2 2 -1 41 -7 87 -6 46 -8
118 -5 159 3 41 6 84 6 95 1 12 19 41 40 65 l38 45 1 -35 c1 -60 12 -67 90
-55 63 11 164 16 196 10 24 -4 32 -11 33 -28 0 -12 3 -57 6 -100 7 -98 -12
-153 -47 -143 -13 4 -40 9 -61 11 l-38 5 21 -29 c11 -16 23 -43 26 -59 8 -40
29 -44 102 -20 82 26 96 43 82 99 -6 25 -8 81 -5 129 3 47 6 95 6 106 1 15 8
22 23 23 61 4 93 3 113 -4 18 -6 23 -3 29 19 3 14 3 38 0 52 -6 24 -9 25 -49
17 -23 -4 -87 -7 -142 -6 -55 1 -108 2 -117 2 -172 -1 -236 7 -255 30 -10 11
-34 27 -53 35 l-36 15 -27 -44z"/>
</g>
</svg>
