<?xml version="1.0" standalone="no"?>
<!DOCTYPE svg PUBLIC "-//W3C//DTD SVG 20010904//EN"
 "http://www.w3.org/TR/2001/REC-SVG-20010904/DTD/svg10.dtd">
<svg version="1.0" xmlns="http://www.w3.org/2000/svg"
 width="101.000000pt" height="101.000000pt" viewBox="0 0 101.000000 101.000000"
 preserveAspectRatio="xMidYMid meet">
<metadata>
Created by potrace 1.16, written by Peter Selinger 2001-2019
</metadata>
<g transform="translate(0.000000,101.000000) scale(0.100000,-0.100000)"
fill="#000000" stroke="none">
<path d="M238 1003 c-17 -4 -24 -23 -18 -48 1 -5 3 -25 4 -42 1 -32 1 -32 -39
-27 -22 3 -50 7 -62 10 -32 6 -56 -23 -49 -59 3 -17 9 -33 12 -36 3 -3 34 -6
69 -6 62 0 63 0 59 -25 -7 -37 9 -54 52 -53 41 1 54 14 54 58 0 30 1 30 54 30
30 0 52 -3 50 -7 -3 -4 -7 -23 -9 -43 -4 -26 -1 -35 9 -35 30 0 24 -17 -7 -18
-133 -9 -224 -9 -238 -2 -40 22 -72 -11 -62 -64 5 -24 7 -25 63 -20 55 5 58 4
58 -18 1 -13 4 -36 7 -53 11 -57 -17 -67 -131 -51 -47 6 -55 -4 -47 -61 5 -30
7 -31 42 -26 54 8 109 8 117 1 10 -11 -27 -116 -58 -162 -15 -24 -47 -56 -69
-72 l-41 -28 53 -23 52 -23 24 22 c52 48 122 195 127 263 1 14 9 21 26 22 14
1 36 4 50 5 30 4 31 -4 33 -174 1 -128 2 -130 65 -120 28 4 32 7 25 26 -4 11
-7 66 -6 121 3 147 3 147 19 141 8 -3 25 0 39 6 18 8 28 8 39 -1 11 -9 15 -6
18 21 9 58 3 64 -58 62 -50 -2 -55 0 -60 23 -4 13 -2 35 4 49 7 13 9 30 6 38
-4 12 4 14 39 11 41 -2 46 0 50 22 2 14 2 34 -1 45 -4 16 -10 18 -41 13 -23
-4 -49 0 -71 9 l-35 15 28 1 c28 0 29 2 24 40 -2 23 0 37 5 34 5 -3 34 -3 63
1 59 7 71 22 59 70 -5 21 -12 26 -33 25 -91 -6 -107 4 -91 61 5 18 8 35 5 37
-2 2 -24 5 -49 6 -43 1 -52 -4 -46 -29 1 -5 3 -28 3 -50 l1 -40 -62 -3 -63 -3
6 28 c13 64 15 93 5 93 -17 0 -24 2 -40 9 -8 4 -23 6 -32 4z m179 -413 c1 -14
5 -38 8 -55 4 -19 1 -37 -8 -50 -13 -16 -18 -18 -41 -7 -14 6 -32 9 -40 6 -20
-8 -32 40 -18 72 7 13 9 31 5 40 -5 13 -2 15 13 10 10 -3 26 -1 34 4 24 16 45
7 47 -20z"/>
<path d="M811 982 c-13 -24 -14 -229 -1 -237 13 -8 13 -52 0 -60 -12 -7 -12
-212 0 -220 13 -8 11 -153 -2 -161 -5 -4 -7 -21 -4 -39 8 -41 -8 -55 -62 -52
-22 0 -43 -1 -46 -4 -10 -9 39 -97 57 -102 10 -3 41 2 70 11 39 13 55 24 66
47 19 38 28 195 12 195 -7 0 -11 26 -11 75 0 43 4 75 10 75 6 0 10 23 10 50 0
28 -4 50 -10 50 -5 0 -10 11 -10 25 0 14 5 25 10 25 6 0 10 30 10 70 0 40 -4
70 -10 70 -5 0 -10 11 -10 25 0 14 4 25 9 25 13 0 18 133 6 142 -21 15 -84 9
-94 -10z"/>
<path d="M656 872 c-2 -4 -4 -130 -3 -279 2 -300 -1 -285 66 -275 30 4 32 7
28 32 -3 15 -9 84 -13 154 -6 104 -4 130 7 138 11 7 11 11 2 15 -15 5 -18 70
-4 75 10 3 19 115 10 121 -2 2 -17 8 -32 15 -32 14 -54 15 -61 4z"/>
</g>
</svg>
