<?xml version="1.0" standalone="no"?>
<!DOCTYPE svg PUBLIC "-//W3C//DTD SVG 20010904//EN"
 "http://www.w3.org/TR/2001/REC-SVG-20010904/DTD/svg10.dtd">
<svg version="1.0" xmlns="http://www.w3.org/2000/svg"
 width="101.000000pt" height="101.000000pt" viewBox="0 0 101.000000 101.000000"
 preserveAspectRatio="xMidYMid meet">
<metadata>
Created by potrace 1.16, written by Peter Selinger 2001-2019
</metadata>
<g transform="translate(0.000000,101.000000) scale(0.100000,-0.100000)"
fill="#000000" stroke="none">
<path d="M283 968 l2 -43 -102 2 c-108 3 -133 -6 -133 -47 0 -41 11 -50 61
-50 27 0 49 5 49 10 0 6 11 10 25 10 14 0 25 -5 25 -11 0 -7 14 -8 39 -4 l39
6 -5 -35 c-4 -33 -3 -35 31 -42 20 -3 43 -4 51 0 17 6 19 -2 7 -22 -7 -9 -34
-11 -113 -7 -57 3 -120 8 -139 11 -43 6 -58 -4 -66 -42 -4 -22 -1 -36 11 -47
21 -21 69 -22 89 -2 18 18 72 20 80 3 5 -10 7 -10 12 0 7 14 42 16 63 3 19
-12 -154 -184 -227 -226 -28 -16 -51 -32 -51 -35 0 -3 19 -20 40 -39 l40 -34
64 63 c56 56 63 60 64 39 0 -13 3 -56 6 -96 3 -48 0 -84 -10 -113 -11 -30 -12
-47 -4 -61 5 -11 7 -29 4 -39 -7 -22 4 -25 60 -21 37 4 46 17 34 49 -9 24 -15
311 -8 362 2 14 26 52 52 85 47 57 51 59 100 62 52 3 131 5 165 4 9 -1 56 2
103 4 48 3 106 1 130 -4 47 -11 59 -4 59 36 0 37 -28 56 -69 47 -20 -4 -73 -7
-118 -6 -51 1 -83 -2 -83 -8 0 -5 -16 -10 -35 -10 -19 0 -35 5 -35 10 0 6 -25
10 -57 10 -56 0 -56 0 -38 20 20 22 20 22 -12 39 -31 16 -74 14 -87 -4 -9 -13
-11 -10 -12 12 l-1 28 97 2 96 1 -1 -36 c0 -33 3 -37 29 -40 49 -6 71 5 74 34
1 15 4 29 5 31 2 2 56 4 121 6 126 2 136 7 122 62 -5 21 -14 24 -68 29 -35 4
-90 5 -123 3 l-60 -3 0 40 0 41 -51 3 -52 3 2 -43 1 -43 -95 0 -95 0 4 37 3
37 -36 -6 c-24 -4 -36 -2 -36 6 0 6 -9 11 -20 11 -17 0 -19 -6 -17 -42z"/>
<path d="M419 603 c-20 -5 -28 -31 -22 -67 5 -26 7 -26 57 -21 100 12 192 16
226 9 l35 -6 -47 -24 c-44 -22 -52 -34 -51 -71 1 -15 -61 -28 -79 -17 -11 7
-48 11 -146 15 -30 1 -35 -5 -35 -41 0 -46 -6 -45 128 -35 87 7 139 -1 131
-20 -2 -7 0 -27 7 -44 8 -22 8 -36 -1 -56 -11 -24 -16 -25 -63 -21 -56 5 -55
10 -26 -68 11 -29 21 -40 38 -41 29 -2 120 31 131 47 4 7 8 45 7 83 -1 106 1
113 25 115 11 1 62 2 113 2 80 1 92 4 96 20 9 32 -4 59 -24 53 -10 -3 -27 -1
-39 5 -16 8 -28 7 -56 -6 -28 -13 -40 -14 -59 -6 -14 6 -32 9 -40 6 -9 -4 -15
0 -15 10 0 18 106 75 152 81 17 2 32 6 35 9 7 6 8 74 2 80 -2 3 -63 1 -134 -4
-140 -11 -290 -5 -321 12 -5 2 -16 3 -25 1z"/>
</g>
</svg>
