<?xml version="1.0" standalone="no"?>
<!DOCTYPE svg PUBLIC "-//W3C//DTD SVG 20010904//EN"
 "http://www.w3.org/TR/2001/REC-SVG-20010904/DTD/svg10.dtd">
<svg version="1.0" xmlns="http://www.w3.org/2000/svg"
 width="101.000000pt" height="102.000000pt" viewBox="0 0 101.000000 102.000000"
 preserveAspectRatio="xMidYMid meet">
<metadata>
Created by potrace 1.16, written by Peter Selinger 2001-2019
</metadata>
<g transform="translate(0.000000,102.000000) scale(0.100000,-0.100000)"
fill="#000000" stroke="none">
<path d="M304 986 c-3 -19 -4 -39 -1 -43 3 -5 -52 -8 -123 -7 l-128 2 -7 -25
c-3 -13 -3 -33 0 -43 6 -19 49 -35 66 -24 16 10 199 13 193 3 -10 -17 8 -78
25 -82 9 -2 -15 -7 -54 -11 -48 -6 -70 -5 -73 3 -2 6 -29 11 -62 11 -50 0 -61
-3 -70 -21 -7 -11 -9 -32 -6 -45 8 -29 20 -32 111 -18 77 11 170 15 221 9 48
-6 51 -8 51 -35 0 -27 -4 -30 -41 -35 -42 -6 -154 -1 -216 10 -47 8 -80 8 -87
1 -8 -8 -8 -64 0 -72 6 -6 22 -6 102 1 28 2 93 2 146 -1 94 -6 97 -7 95 -30
-1 -18 -8 -25 -31 -29 -36 -6 -173 3 -220 15 -34 8 -43 0 -38 -37 8 -56 8
-104 0 -141 l-7 -33 53 6 c100 12 168 14 189 6 19 -7 17 -10 -21 -40 -61 -49
-150 -80 -241 -86 -25 -1 -55 -5 -68 -9 l-23 -8 23 -21 c13 -12 30 -33 39 -47
l16 -24 76 17 c128 31 248 98 285 162 11 18 13 19 22 3 23 -37 65 -81 101
-104 38 -24 159 -68 212 -78 15 -2 36 -7 47 -11 21 -7 37 8 74 65 l23 36 -36
1 c-104 3 -161 25 -97 37 52 10 70 43 80 149 l3 27 -171 -1 c-214 -1 -211 -2
-212 26 -1 17 4 23 20 24 11 0 57 3 101 6 45 3 109 1 144 -3 l64 -9 -6 65 c-4
35 -2 72 3 82 26 49 -23 79 -93 54 -26 -9 -63 -12 -110 -9 -40 3 -81 6 -93 6
-30 2 -30 56 0 59 73 7 266 2 292 -7 61 -22 101 4 87 57 -5 19 -13 21 -87 20
-154 -1 -194 3 -179 18 7 7 13 26 13 42 l0 28 93 7 c51 3 110 3 131 -1 43 -8
56 3 56 48 0 36 -31 54 -68 39 -15 -6 -70 -10 -122 -9 -95 3 -96 3 -94 28 1
14 5 32 8 40 5 12 -4 15 -49 15 -60 0 -71 -11 -59 -59 l6 -26 -94 3 -95 2 8
35 c5 19 9 38 9 43 0 4 -22 7 -50 7 -48 0 -49 -1 -56 -34z m286 -157 c0 -43
-10 -59 -36 -59 -27 0 -30 10 -11 29 17 17 -17 41 -60 41 -36 0 -58 -26 -42
-51 14 -22 11 -28 -13 -21 -30 7 -35 16 -30 52 5 33 10 35 120 36 l72 1 0 -28z
m141 -255 c21 -4 26 -11 26 -34 0 -25 -5 -30 -31 -35 -17 -3 -58 -3 -91 0 -33
3 -69 6 -81 6 -16 1 -21 8 -21 30 0 22 4 28 16 24 9 -2 22 -1 30 4 16 10 110
13 152 5z m-299 -123 c4 -1 5 -13 4 -28 -3 -26 -7 -29 -62 -36 -35 -4 -68 -3
-81 3 -13 5 -29 7 -36 4 -10 -3 -14 4 -14 26 0 23 4 29 16 25 9 -2 23 0 31 5
12 7 95 8 142 1z m360 -130 c18 -7 19 -9 5 -23 -11 -11 -30 -14 -62 -12 l-47
4 21 -34 c29 -47 28 -58 -6 -44 -49 21 -102 59 -118 85 -16 24 -16 25 2 19 10
-3 24 -2 32 3 17 11 145 13 173 2z"/>
</g>
</svg>
