<?xml version="1.0" standalone="no"?>
<!DOCTYPE svg PUBLIC "-//W3C//DTD SVG 20010904//EN"
 "http://www.w3.org/TR/2001/REC-SVG-20010904/DTD/svg10.dtd">
<svg version="1.0" xmlns="http://www.w3.org/2000/svg"
 width="101.000000pt" height="102.000000pt" viewBox="0 0 101.000000 102.000000"
 preserveAspectRatio="xMidYMid meet">
<metadata>
Created by potrace 1.16, written by Peter Selinger 2001-2019
</metadata>
<g transform="translate(0.000000,102.000000) scale(0.100000,-0.100000)"
fill="#000000" stroke="none">
<path d="M303 967 l4 -53 -123 2 -123 2 -6 -29 c-12 -52 8 -78 50 -69 6 1 53
3 105 5 l96 3 -3 -48 c-3 -49 -3 -49 31 -55 56 -11 72 -1 73 46 1 23 4 43 5
45 2 2 52 5 111 8 l107 5 0 -24 c0 -13 -4 -27 -10 -30 -5 -3 -10 -15 -10 -25
0 -14 10 -21 34 -25 56 -11 73 -1 74 47 1 23 4 43 6 45 2 3 52 5 110 6 100 2
107 3 112 23 3 12 4 32 2 44 -3 20 -8 21 -118 23 l-115 2 2 30 c0 17 4 38 8
48 8 19 9 19 -62 21 l-53 1 4 -53 5 -53 -107 3 -108 3 6 47 c7 54 3 58 -66 58
l-45 0 4 -53z"/>
<path d="M458 792 c-13 -2 -16 -13 -15 -47 l2 -44 -57 6 c-40 4 -58 2 -58 -6
0 -6 -15 -11 -35 -11 -19 0 -35 5 -35 10 0 14 -114 12 -128 -2 -14 -14 -16
-57 -4 -75 6 -9 33 -11 92 -9 69 4 78 3 50 -6 -52 -14 -54 -22 -25 -67 14 -23
30 -53 35 -66 9 -24 10 -24 56 -10 25 7 48 15 50 17 1 2 -15 32 -36 66 -45 70
-47 77 -24 68 8 -3 25 -1 36 5 28 15 91 2 84 -17 -3 -8 0 -25 6 -39 9 -19 8
-35 -3 -67 -8 -24 -13 -46 -12 -50 7 -19 -252 -18 -332 2 -39 10 -57 -14 -48
-64 5 -23 8 -25 47 -20 85 11 193 14 250 7 l60 -8 -34 -39 c-66 -75 -167 -120
-288 -131 -24 -2 -46 -6 -49 -9 -9 -9 71 -95 89 -96 25 0 161 55 211 86 53 33
112 89 139 132 l20 33 30 -51 c36 -62 120 -126 220 -168 109 -44 123 -46 136
-18 6 13 25 40 42 60 l32 36 -28 1 c-142 7 -240 42 -311 112 -49 47 -52 54
-20 56 86 6 230 5 273 -2 50 -7 52 -7 57 19 2 14 2 35 0 45 -5 18 -11 19 -67
12 -33 -4 -77 -7 -96 -6 -19 2 -45 3 -57 4 l-23 1 22 32 c12 17 32 44 45 59
29 36 29 42 -4 55 -57 22 -73 24 -73 9 0 -7 -18 -39 -40 -70 l-39 -56 42 -12
42 -12 -38 -10 c-26 -6 -46 -6 -63 2 -13 6 -31 8 -39 5 -13 -6 -15 3 -9 62 4
38 7 79 7 90 -1 15 6 22 21 24 56 5 265 3 293 -3 37 -7 49 12 37 58 l-7 28
-79 -7 c-51 -4 -85 -3 -93 4 -7 6 -47 9 -92 8 l-80 -3 9 33 c5 19 7 36 4 39
-8 8 -79 19 -98 15z"/>
</g>
</svg>
