<?xml version="1.0" standalone="no"?>
<!DOCTYPE svg PUBLIC "-//W3C//DTD SVG 20010904//EN"
 "http://www.w3.org/TR/2001/REC-SVG-20010904/DTD/svg10.dtd">
<svg version="1.0" xmlns="http://www.w3.org/2000/svg"
 width="101.000000pt" height="102.000000pt" viewBox="0 0 101.000000 102.000000"
 preserveAspectRatio="xMidYMid meet">
<metadata>
Created by potrace 1.16, written by Peter Selinger 2001-2019
</metadata>
<g transform="translate(0.000000,102.000000) scale(0.100000,-0.100000)"
fill="#000000" stroke="none">
<path d="M304 986 c-3 -19 -4 -38 -1 -43 3 -4 -48 -7 -113 -5 -129 2 -150 -5
-150 -53 0 -42 27 -58 93 -53 32 2 62 10 66 17 6 8 23 10 57 6 l50 -7 -1 -39
c0 -30 -4 -39 -17 -39 -23 0 -23 -9 2 -35 13 -14 16 -22 8 -23 -7 -1 -35 -3
-61 -6 -26 -2 -55 -10 -63 -17 -11 -9 -21 -9 -38 -1 -13 6 -33 8 -45 5 -17 -4
-20 -11 -17 -37 4 -31 15 -66 21 -66 2 0 16 5 31 10 15 6 46 13 68 16 23 2 59
7 81 10 79 12 90 10 128 -20 43 -32 39 -39 -28 -51 -22 -3 -51 -9 -65 -11 -14
-3 -50 -7 -80 -10 -30 -3 -66 -7 -80 -8 -14 -2 -32 -4 -40 -5 -13 -1 -13 -3 1
-14 8 -7 24 -24 34 -40 16 -25 22 -27 64 -23 25 3 57 8 71 11 14 3 36 7 50 9
14 3 61 16 106 29 l81 24 44 -23 c24 -12 76 -31 114 -40 l70 -18 -68 -7 c-38
-4 -105 -6 -150 -3 -45 2 -109 4 -142 3 -33 0 -103 0 -155 -1 -52 0 -111 2
-132 5 -41 6 -49 -6 -40 -61 4 -30 18 -39 47 -32 48 12 165 20 198 14 25 -5
28 -9 22 -32 -18 -78 -99 -126 -227 -137 -16 -1 -36 -3 -45 -4 -13 -1 -10 -8
15 -34 18 -18 32 -38 32 -44 0 -23 20 -23 92 0 88 28 147 64 183 111 25 34 51
99 47 122 -1 7 8 12 20 13 13 0 39 2 58 3 32 3 35 1 38 -27 2 -16 3 -59 2 -94
0 -40 5 -72 14 -85 17 -26 82 -49 105 -36 9 4 57 8 107 7 68 -2 96 2 109 13
18 15 60 98 53 106 -12 11 -93 62 -96 60 -1 -2 -5 -18 -7 -37 -2 -18 -12 -39
-21 -46 -26 -19 -79 -26 -102 -14 -11 6 -27 8 -36 5 -22 -9 -50 40 -41 74 3
15 7 37 7 48 0 15 7 22 22 23 11 0 51 3 88 6 43 3 81 0 106 -9 57 -20 89 -11
95 27 7 54 -1 67 -37 59 -17 -4 -47 -6 -66 -5 -19 1 -46 3 -60 4 -22 1 -22 2
-6 11 10 6 30 8 46 5 34 -7 63 18 80 68 7 20 10 37 8 39 -1 1 -20 14 -41 30
-21 15 -40 26 -42 24 -2 -2 -6 -16 -9 -32 -10 -55 -31 -62 -141 -42 -11 2 -26
4 -32 5 -22 2 -14 19 15 29 15 6 56 22 91 35 l65 24 -43 28 c-48 33 -42 50 16
47 58 -3 96 11 99 35 2 12 -1 25 -6 28 -6 3 -10 15 -10 26 0 17 -4 19 -22 13
-13 -4 -32 -8 -43 -9 -11 -1 -20 -3 -20 -5 0 -1 -9 -3 -20 -5 -11 -1 -36 -5
-55 -8 -19 -3 -42 -7 -50 -10 -8 -2 -12 -2 -9 0 4 2 5 21 2 41 l-5 37 119 0
c65 0 123 -3 130 -8 30 -20 62 27 50 76 -6 22 -9 22 -151 22 -79 0 -142 3
-139 7 2 5 6 16 8 25 2 10 6 25 9 33 5 12 -4 15 -53 15 l-60 0 3 -40 3 -40
-82 0 -81 0 6 37 c8 40 -2 48 -67 48 -29 0 -33 -4 -39 -34z m256 -167 c0 -15
7 -34 15 -43 8 -8 15 -16 15 -18 0 -3 -40 -7 -79 -8 -12 0 -28 -3 -34 -7 -20
-12 -72 -8 -84 7 -17 20 -16 30 2 30 10 0 13 10 12 33 l-3 32 78 0 78 1 0 -27z
m125 -145 c-22 -14 -64 -36 -94 -50 l-54 -24 -34 26 c-19 14 -32 28 -30 30 2
2 24 7 48 9 24 3 55 8 69 10 14 2 42 6 63 9 22 2 41 7 45 10 3 3 10 6 16 6 6
0 -7 -12 -29 -26z"/>
</g>
</svg>
