<?xml version="1.0" standalone="no"?>
<!DOCTYPE svg PUBLIC "-//W3C//DTD SVG 20010904//EN"
 "http://www.w3.org/TR/2001/REC-SVG-20010904/DTD/svg10.dtd">
<svg version="1.0" xmlns="http://www.w3.org/2000/svg"
 width="101.000000pt" height="102.000000pt" viewBox="0 0 101.000000 102.000000"
 preserveAspectRatio="xMidYMid meet">
<metadata>
Created by potrace 1.16, written by Peter Selinger 2001-2019
</metadata>
<g transform="translate(0.000000,102.000000) scale(0.100000,-0.100000)"
fill="#000000" stroke="none">
<path d="M303 971 l4 -50 -126 4 c-91 3 -127 1 -133 -8 -13 -21 -9 -65 9 -83
18 -17 14 -17 197 2 l58 7 -7 -31 c-6 -28 -4 -32 19 -38 14 -3 37 -3 52 0 21
6 24 11 21 34 l-4 27 93 1 c90 2 94 1 94 -20 0 -11 4 -26 8 -32 10 -16 49 -26
71 -19 16 5 19 12 14 38 l-5 32 94 -2 c51 0 101 -4 111 -8 48 -19 87 22 74 78
-6 21 -10 22 -134 22 l-128 0 3 45 4 45 -51 0 c-50 0 -51 -1 -57 -32 -3 -18
-4 -39 -1 -45 3 -10 -19 -13 -92 -13 l-96 0 0 45 0 45 -48 3 -47 3 3 -50z"/>
<path d="M459 813 c-12 -3 -16 -14 -15 -36 l1 -32 -137 3 -136 4 -7 -31 c-11
-51 -1 -66 50 -69 26 -2 61 2 79 9 43 15 113 4 96 -16 -16 -19 -72 -44 -113
-49 -20 -3 -45 -11 -56 -18 -16 -10 -27 -10 -51 -1 -30 11 -70 7 -70 -7 0 -4
9 -15 20 -25 11 -10 22 -26 25 -36 5 -16 14 -18 49 -16 41 4 43 3 43 -24 0
-24 -5 -30 -33 -35 -18 -3 -38 -3 -45 1 -6 5 -29 9 -49 11 -42 4 -52 -11 -43
-60 5 -25 19 -32 53 -27 8 1 37 4 63 7 47 5 48 4 42 -18 -22 -73 -76 -133
-154 -173 l-34 -17 39 -24 c21 -13 45 -26 52 -30 16 -8 83 54 120 111 14 22
35 65 48 95 22 54 22 54 69 57 40 3 46 1 41 -13 -3 -8 -1 -24 5 -35 20 -39
-18 -90 -71 -95 -52 -4 -50 -1 -27 -46 12 -24 23 -45 25 -47 5 -10 110 30 126
48 18 20 31 91 35 194 1 31 21 38 21 6 0 -19 4 -20 59 -15 l60 5 -14 -38 c-31
-88 -86 -153 -140 -167 -14 -3 -25 -9 -25 -13 1 -8 77 -61 88 -61 5 0 26 15
48 34 42 36 99 131 119 200 11 39 14 40 58 43 l45 3 -4 -52 c-7 -108 -14 -120
-58 -117 -68 4 -70 3 -47 -35 12 -18 21 -40 21 -49 0 -17 20 -17 85 1 46 13
84 44 87 70 1 9 2 53 4 97 1 44 5 100 8 124 l6 43 -33 -7 c-30 -6 -67 -8 -125
-4 -13 0 -21 6 -19 13 18 43 18 46 6 47 -8 1 -18 2 -24 4 -5 1 -17 3 -25 4 -8
1 4 11 28 21 53 24 69 56 88 171 l6 36 -94 6 c-51 3 -116 5 -145 4 -47 -2 -50
-1 -41 17 6 11 6 22 1 27 -13 13 -65 26 -84 22z m250 -159 c3 -2 -5 -17 -16
-32 -14 -18 -28 -26 -44 -24 -13 1 -41 4 -61 7 l-37 4 19 -32 c11 -18 20 -40
20 -51 0 -14 5 -17 24 -12 22 5 23 3 23 -34 l0 -40 -58 5 c-49 4 -59 3 -59
-10 0 -8 -4 -15 -10 -15 -5 0 -10 7 -10 15 0 12 -6 14 -27 8 -16 -4 -44 -7
-63 -6 -19 2 -45 3 -58 4 -17 1 -22 5 -17 18 12 30 10 36 -12 39 -34 5 -28 16
18 30 53 16 126 66 147 100 15 24 23 27 70 26 28 -1 55 3 58 8 6 10 82 3 93
-8z"/>
</g>
</svg>
