<?xml version="1.0" standalone="no"?>
<!DOCTYPE svg PUBLIC "-//W3C//DTD SVG 20010904//EN"
 "http://www.w3.org/TR/2001/REC-SVG-20010904/DTD/svg10.dtd">
<svg version="1.0" xmlns="http://www.w3.org/2000/svg"
 width="101.000000pt" height="101.000000pt" viewBox="0 0 101.000000 101.000000"
 preserveAspectRatio="xMidYMid meet">
<metadata>
Created by potrace 1.16, written by Peter Selinger 2001-2019
</metadata>
<g transform="translate(0.000000,101.000000) scale(0.100000,-0.100000)"
fill="#000000" stroke="none">
<path d="M324 960 l3 -49 -91 5 c-50 3 -102 7 -116 10 -33 6 -48 -5 -56 -42
-4 -22 -1 -36 11 -48 15 -15 33 -16 135 -12 l117 6 -4 -34 c-2 -27 1 -36 14
-39 37 -10 -163 -12 -207 -2 -40 9 -53 -8 -58 -74 -8 -117 7 -144 75 -134 36
6 46 23 34 56 -15 40 0 49 82 48 42 0 79 4 82 9 9 14 69 12 83 -2 8 -8 15 -8
24 -1 17 14 175 16 183 3 4 -7 37 -8 89 -5 l83 6 -3 -44 c-4 -51 8 -59 67 -48
l34 6 0 85 0 85 -30 -1 c-84 -4 -142 -5 -160 -5 -11 1 -36 -1 -57 -5 -20 -3
-45 -1 -55 5 -15 9 -14 10 14 11 37 0 63 22 63 53 0 22 3 22 130 22 144 -1
149 2 135 65 -7 33 -31 45 -66 31 -43 -16 -129 -24 -129 -12 0 6 -18 11 -40
11 -38 0 -40 2 -40 29 0 17 5 33 10 36 22 14 7 20 -48 20 l-59 0 1 -47 1 -46
-80 1 c-80 2 -81 2 -78 27 1 14 5 35 9 48 6 21 4 22 -50 22 l-56 0 4 -50z
m266 -154 c0 -14 -5 -28 -10 -31 -6 -4 -8 -10 -5 -15 3 -4 -14 -11 -38 -14
-23 -4 -58 -9 -77 -12 -42 -6 -74 10 -50 26 8 5 14 12 13 15 -2 3 -3 14 -3 24
0 17 8 21 53 24 123 8 117 9 117 -17z"/>
<path d="M472 642 c-8 -6 -11 -25 -7 -60 4 -49 3 -52 -21 -58 -14 -4 -36 -2
-50 4 -13 7 -31 9 -40 5 -14 -5 -15 -3 -6 14 6 11 18 25 26 33 34 27 12 46
-65 56 -22 3 -28 -1 -34 -24 -12 -49 -56 -126 -93 -164 -19 -21 -34 -39 -31
-41 2 -1 18 -7 34 -13 17 -7 37 -14 45 -18 10 -4 23 6 40 34 15 24 30 38 38
35 7 -3 22 0 32 5 11 6 43 8 73 4 47 -6 55 -10 55 -28 1 -11 2 -32 4 -46 3
-23 -1 -25 -57 -32 -61 -8 -178 -5 -250 7 -46 8 -84 9 -90 3 -6 -6 -9 -36 -7
-70 2 -26 4 -27 44 -22 86 11 135 13 246 7 90 -5 112 -9 108 -20 -3 -7 0 -24
6 -38 8 -19 7 -31 -6 -59 -27 -57 -7 -77 66 -68 36 4 37 5 30 36 -6 28 -6 45
-1 122 1 14 9 22 23 24 56 5 265 3 292 -3 30 -6 32 -4 36 25 11 70 -7 84 -79
62 -34 -10 -75 -13 -138 -9 -144 8 -140 7 -137 35 2 14 3 35 4 46 0 24 -1 24
118 26 41 1 87 -1 101 -6 23 -7 27 -4 32 20 3 16 1 38 -4 51 -7 19 -12 21 -36
13 -15 -6 -59 -8 -98 -5 -38 3 -80 6 -92 6 -21 1 -22 5 -18 52 6 57 -2 67 -50
67 -16 0 -36 -4 -43 -8z"/>
</g>
</svg>
