<?xml version="1.0" standalone="no"?>
<!DOCTYPE svg PUBLIC "-//W3C//DTD SVG 20010904//EN"
 "http://www.w3.org/TR/2001/REC-SVG-20010904/DTD/svg10.dtd">
<svg version="1.0" xmlns="http://www.w3.org/2000/svg"
 width="101.000000pt" height="101.000000pt" viewBox="0 0 101.000000 101.000000"
 preserveAspectRatio="xMidYMid meet">
<metadata>
Created by potrace 1.16, written by Peter Selinger 2001-2019
</metadata>
<g transform="translate(0.000000,101.000000) scale(0.100000,-0.100000)"
fill="#000000" stroke="none">
<path d="M294 967 l3 -44 -120 3 c-130 4 -137 2 -137 -48 0 -47 25 -61 94 -53
34 3 84 9 113 11 l52 6 -2 -38 c-2 -35 1 -39 28 -45 30 -7 -81 -1 -166 8 -59
6 -89 -9 -89 -45 0 -37 13 -54 41 -54 104 1 170 6 174 12 6 10 136 12 150 2 6
-4 11 -19 12 -34 1 -26 -1 -27 -71 -32 -69 -6 -131 -4 -227 8 -42 5 -47 4 -52
-16 -3 -12 -2 -30 4 -40 6 -11 7 -42 1 -82 -9 -73 -6 -76 59 -68 l36 4 -3 58
c-2 53 -1 58 19 59 21 2 137 2 287 2 36 0 94 2 130 4 36 2 90 2 122 -1 l56 -6
-5 -48 c-5 -53 5 -61 66 -52 30 4 32 7 26 31 -8 29 -9 69 -2 121 5 43 -6 51
-47 37 -26 -10 -205 -14 -282 -7 -30 3 -30 57 0 59 12 0 62 3 111 6 62 4 104
1 137 -8 81 -25 118 -4 102 57 -8 33 -41 42 -97 26 -33 -9 -67 -9 -145 0 -57
6 -113 8 -124 4 -22 -6 -22 -6 -5 19 9 15 17 28 17 29 0 2 -26 2 -57 1 -54 -1
-58 -3 -58 -25 0 -20 -5 -23 -36 -23 -31 -1 -34 1 -23 13 16 16 18 34 4 48 -6
6 31 9 99 9 l108 0 -3 -27 c-3 -22 1 -28 26 -33 48 -10 73 2 67 34 l-5 26 124
-1 c122 -1 125 0 130 23 4 13 4 33 1 46 -6 21 -10 22 -130 22 l-123 0 6 38 c4
20 5 37 1 38 -3 1 -27 2 -54 2 l-47 2 3 -40 3 -40 -107 0 -107 0 14 34 c8 19
12 36 9 39 -2 3 -29 7 -60 9 l-55 4 4 -44z"/>
<path d="M238 492 c-3 -10 -3 -33 0 -50 l4 -33 52 6 c98 12 221 15 250 7 28
-8 26 -9 -32 -27 -57 -17 -67 -26 -64 -56 2 -9 -179 -19 -238 -14 -25 2 -68 6
-96 9 -45 6 -52 4 -57 -13 -13 -53 22 -93 63 -71 10 5 64 8 121 6 57 -2 130
-4 161 -5 54 -1 58 -2 54 -23 -3 -13 -5 -29 -5 -36 -1 -10 -15 -12 -56 -8 -30
2 -55 3 -55 1 0 -2 9 -19 20 -38 12 -19 20 -39 19 -43 -5 -29 3 -34 52 -29 28
3 63 11 78 18 23 11 26 19 28 67 4 96 4 98 27 99 11 0 59 3 107 6 62 4 97 1
128 -10 32 -11 48 -12 63 -4 11 6 33 9 48 5 24 -4 29 -1 33 20 11 59 -18 82
-76 61 -35 -12 -317 -14 -317 -2 0 2 49 23 109 46 111 43 125 55 114 98 -6 22
3 21 -333 19 -52 0 -118 3 -146 6 -45 6 -52 4 -56 -12z"/>
</g>
</svg>
