<?xml version="1.0" standalone="no"?>
<!DOCTYPE svg PUBLIC "-//W3C//DTD SVG 20010904//EN"
 "http://www.w3.org/TR/2001/REC-SVG-20010904/DTD/svg10.dtd">
<svg version="1.0" xmlns="http://www.w3.org/2000/svg"
 width="101.000000pt" height="102.000000pt" viewBox="0 0 101.000000 102.000000"
 preserveAspectRatio="xMidYMid meet">
<metadata>
Created by potrace 1.16, written by Peter Selinger 2001-2019
</metadata>
<g transform="translate(0.000000,102.000000) scale(0.100000,-0.100000)"
fill="#000000" stroke="none">
<path d="M314 960 l1 -61 -117 5 c-64 3 -121 6 -125 7 -31 5 -52 -38 -38 -81
6 -19 13 -20 145 -15 127 4 138 3 133 -13 -2 -10 0 -30 6 -45 20 -51 101 -28
101 29 0 21 5 24 34 24 18 0 55 3 81 7 l48 6 -6 -36 c-5 -30 -3 -37 11 -38 16
-1 16 -2 0 -6 -14 -4 -16 -25 -16 -189 0 -102 -3 -188 -6 -191 -3 -3 -1 -14 5
-24 10 -20 72 -27 95 -11 7 4 11 67 11 177 1 94 4 182 8 196 6 23 3 27 -20 33
-23 6 -24 8 -10 22 8 8 15 25 15 37 0 22 3 22 140 22 155 0 159 2 145 65 -8
35 -33 45 -78 31 -56 -17 -127 -24 -127 -12 0 6 -18 11 -43 11 -41 0 -42 1
-41 33 1 17 4 38 6 46 2 11 -10 14 -49 15 -60 1 -66 -6 -57 -64 l6 -38 -79 2
-79 1 7 50 c7 59 2 65 -62 65 l-46 0 1 -60z"/>
<path d="M186 749 l-36 -31 48 -37 c26 -21 56 -48 66 -60 26 -28 37 -27 74 12
l32 33 -32 30 c-38 36 -102 84 -111 84 -4 0 -22 -14 -41 -31z"/>
<path d="M753 649 c-18 -12 -33 -23 -33 -26 0 -3 23 -31 51 -61 29 -31 63 -74
77 -94 13 -21 29 -38 34 -38 14 0 88 52 88 62 0 13 -161 178 -174 178 -6 0
-26 -10 -43 -21z"/>
<path d="M438 653 c-10 -2 -19 -10 -19 -16 -5 -47 -10 -69 -28 -115 -11 -28
-32 -70 -46 -92 -14 -23 -23 -45 -20 -51 4 -5 29 -8 58 -7 l51 3 38 98 c21 54
45 108 53 120 20 29 19 34 -12 45 -51 18 -58 20 -75 15z"/>
<path d="M80 595 c-18 -19 -32 -36 -29 -39 2 -2 22 -13 44 -24 22 -11 56 -32
75 -46 l35 -27 31 38 c18 21 30 41 28 45 -5 8 -137 88 -145 88 -3 0 -20 -16
-39 -35z"/>
<path d="M735 418 c-26 -75 -120 -167 -198 -197 -71 -26 -116 -34 -182 -32
-76 2 -83 -8 -44 -63 42 -58 37 -58 167 -20 157 46 251 110 325 222 25 39 52
72 59 74 16 6 -69 68 -92 68 -10 0 -22 -18 -35 -52z"/>
<path d="M203 433 c-36 -100 -72 -178 -114 -240 l-21 -33 47 -20 c55 -23 75
-25 75 -6 0 7 23 69 51 137 l51 124 -33 27 c-39 33 -47 34 -56 11z"/>
</g>
</svg>
