<?xml version="1.0" standalone="no"?>
<!DOCTYPE svg PUBLIC "-//W3C//DTD SVG 20010904//EN"
 "http://www.w3.org/TR/2001/REC-SVG-20010904/DTD/svg10.dtd">
<svg version="1.0" xmlns="http://www.w3.org/2000/svg"
 width="101.000000pt" height="102.000000pt" viewBox="0 0 101.000000 102.000000"
 preserveAspectRatio="xMidYMid meet">
<metadata>
Created by potrace 1.16, written by Peter Selinger 2001-2019
</metadata>
<g transform="translate(0.000000,102.000000) scale(0.100000,-0.100000)"
fill="#000000" stroke="none">
<path d="M284 986 c-3 -19 -3 -40 1 -46 5 -9 -17 -10 -86 -4 -146 12 -158 9
-159 -42 0 -36 24 -58 54 -50 15 4 68 9 118 11 l91 4 -5 -44 c-5 -40 -3 -44
19 -50 52 -13 86 22 64 64 -6 11 -11 21 -11 23 0 2 49 3 109 3 70 0 106 -4
100 -9 -14 -15 -11 -53 7 -70 36 -36 94 -9 94 45 0 21 5 29 18 29 9 1 43 2 76
5 32 2 70 -1 84 -6 56 -22 93 15 78 76 -6 22 -10 24 -49 20 -23 -3 -81 -6
-128 -8 -93 -2 -94 -1 -75 60 5 17 1 19 -46 18 -29 0 -56 -4 -59 -9 -4 -4 -3
-22 1 -40 l7 -31 -109 0 c-92 0 -107 2 -102 15 3 8 7 20 8 27 1 7 5 16 9 19
17 17 3 24 -48 24 -54 0 -54 0 -61 -34z"/>
<path d="M723 820 c-18 -11 -33 -22 -33 -25 0 -3 12 -17 28 -30 15 -13 23 -27
19 -32 -5 -4 -43 -7 -85 -6 -127 3 -123 2 -117 27 4 11 9 28 11 37 6 22 -44
42 -80 33 -26 -6 -28 -10 -24 -50 l3 -42 -40 -6 c-57 -8 -174 -6 -180 4 -3 4
-31 8 -62 8 -32 1 -68 4 -80 8 -18 5 -25 1 -33 -21 -28 -73 -6 -94 80 -80 68
12 126 14 221 9 l96 -6 0 -29 c0 -24 -5 -30 -31 -34 -30 -6 -144 -1 -218 9
-38 4 -46 -5 -38 -39 16 -63 17 -326 2 -365 -13 -35 -4 -87 17 -93 9 -2 31 -2
47 0 26 4 31 9 32 36 0 18 2 41 3 52 1 11 -1 32 -5 46 -7 24 -5 27 16 28 13 1
46 3 73 5 68 6 108 -2 101 -20 -3 -8 0 -26 6 -39 9 -19 9 -28 0 -37 -18 -18
-14 -55 6 -60 10 -3 32 -3 50 0 31 4 38 15 33 52 -11 87 -9 98 12 99 12 1 45
3 72 5 28 3 62 2 76 0 23 -4 26 -10 25 -42 l-1 -37 -47 1 c-27 1 -48 0 -48 -3
0 -2 7 -15 16 -28 9 -13 13 -28 10 -33 -3 -5 1 -17 8 -27 12 -17 18 -18 69 -6
87 19 88 20 86 222 -1 96 1 190 5 209 8 42 9 71 2 77 -2 3 -20 0 -39 -6 -21
-7 -69 -10 -123 -6 -49 3 -98 6 -110 6 -30 2 -30 56 0 58 12 0 57 3 101 6 44
3 111 0 150 -6 70 -11 124 -13 132 -5 7 6 8 85 1 91 -3 4 -15 1 -26 -6 -16
-10 -26 -10 -46 -1 -14 6 -34 9 -43 6 -13 -4 -11 0 6 13 l23 20 -43 36 c-23
20 -45 37 -48 37 -3 0 -21 -9 -38 -20z m-282 -299 c3 -1 6 -14 6 -31 0 -34
-21 -41 -102 -34 -27 2 -59 4 -71 5 -16 1 -21 8 -21 30 0 22 4 28 16 24 9 -2
23 0 31 5 12 7 100 8 141 1z m280 0 c3 -1 6 -14 6 -31 0 -34 -21 -41 -102 -34
-27 2 -59 4 -71 5 -16 1 -21 8 -21 30 0 22 4 28 16 24 9 -2 23 0 31 5 12 7
100 8 141 1z m-280 -130 c3 -1 5 -16 6 -35 1 -30 -3 -36 -26 -40 -14 -2 -48
-3 -76 0 -27 2 -60 4 -71 5 -18 1 -22 7 -21 35 1 26 5 33 16 29 9 -2 23 0 31
5 12 7 102 8 141 1z m280 0 c3 -1 5 -16 6 -35 1 -30 -3 -36 -26 -40 -14 -2
-48 -3 -76 0 -27 2 -60 4 -71 5 -18 1 -22 7 -21 35 1 26 5 33 16 29 9 -2 23 0
31 5 12 7 102 8 141 1z"/>
</g>
</svg>
