<?xml version="1.0" standalone="no"?>
<!DOCTYPE svg PUBLIC "-//W3C//DTD SVG 20010904//EN"
 "http://www.w3.org/TR/2001/REC-SVG-20010904/DTD/svg10.dtd">
<svg version="1.0" xmlns="http://www.w3.org/2000/svg"
 width="101.000000pt" height="101.000000pt" viewBox="0 0 101.000000 101.000000"
 preserveAspectRatio="xMidYMid meet">
<metadata>
Created by potrace 1.16, written by Peter Selinger 2001-2019
</metadata>
<g transform="translate(0.000000,101.000000) scale(0.100000,-0.100000)"
fill="#000000" stroke="none">
<path d="M306 1002 c-3 -5 -3 -32 -1 -61 l5 -52 -50 7 c-98 13 -200 10 -210
-6 -15 -23 -12 -57 6 -74 17 -18 109 -22 119 -6 8 13 52 13 61 -1 3 -6 19 -9
34 -5 26 5 28 2 32 -30 3 -22 0 -33 -6 -30 -6 2 -18 7 -27 10 -12 5 -20 -3
-31 -33 -25 -62 -87 -151 -156 -220 -34 -35 -61 -65 -60 -67 8 -7 79 -54 83
-54 3 0 22 22 44 50 33 41 39 46 40 27 0 -12 3 -62 6 -112 4 -61 1 -107 -9
-144 -22 -84 -9 -102 64 -94 l35 5 2 84 c1 47 -2 84 -8 84 -14 0 -11 157 4
164 10 5 10 7 0 12 -15 7 -18 74 -3 74 6 0 10 18 10 40 0 47 20 92 51 114 12
8 18 19 15 24 -3 5 5 13 18 16 21 5 24 10 19 43 l-5 38 95 1 95 1 4 -29 c3
-17 0 -28 -7 -28 -6 0 -17 -22 -24 -49 -14 -57 -70 -174 -100 -211 l-20 -25 4
76 5 77 -30 12 c-16 7 -40 10 -54 6 -25 -6 -25 2 -13 -181 1 -22 -1 -70 -6
-106 -8 -75 -4 -80 64 -71 l36 4 -10 39 c-7 28 -6 47 1 64 6 14 9 32 6 40 -8
20 6 19 36 -5 25 -19 25 -19 42 3 l18 22 7 -24 c3 -14 19 -49 33 -79 l28 -53
-37 -24 c-43 -29 -137 -63 -193 -69 -22 -3 -43 -7 -46 -10 -2 -3 9 -17 26 -31
17 -14 34 -34 37 -45 6 -18 7 -18 62 1 31 10 93 39 139 63 46 25 86 41 89 36
9 -14 125 -77 171 -94 l41 -14 35 53 35 53 -31 7 c-17 4 -41 9 -53 10 -22 4
-143 55 -143 61 0 2 9 18 20 36 21 35 71 179 74 213 1 20 8 22 91 28 35 2 45
12 45 49 0 26 -30 55 -43 42 -8 -8 -287 -10 -287 -3 0 4 10 19 21 34 17 21 19
29 9 35 -9 6 -7 10 8 14 16 5 20 14 17 39 l-3 32 52 -3 c28 -1 61 3 73 9 14 7
45 10 83 6 57 -5 60 -4 66 19 3 13 4 35 0 48 -5 22 -10 23 -68 20 -35 -2 -94
-4 -133 -6 l-70 -3 2 53 c2 36 -1 52 -10 53 -6 1 -31 2 -54 3 l-42 1 4 -56 5
-57 -93 2 -92 1 5 52 c6 50 5 51 -23 57 -42 8 -75 7 -81 -2z m401 -438 c19 -5
22 -11 18 -38 -8 -48 -34 -128 -49 -156 l-15 -25 -15 36 c-8 20 -18 51 -21 70
-8 46 -14 52 -46 45 l-28 -5 21 35 c14 23 26 33 37 30 9 -3 23 -1 31 4 17 11
36 12 67 4z"/>
</g>
</svg>
