<?xml version="1.0" standalone="no"?>
<!DOCTYPE svg PUBLIC "-//W3C//DTD SVG 20010904//EN"
 "http://www.w3.org/TR/2001/REC-SVG-20010904/DTD/svg10.dtd">
<svg version="1.0" xmlns="http://www.w3.org/2000/svg"
 width="101.000000pt" height="102.000000pt" viewBox="0 0 101.000000 102.000000"
 preserveAspectRatio="xMidYMid meet">
<metadata>
Created by potrace 1.16, written by Peter Selinger 2001-2019
</metadata>
<g transform="translate(0.000000,102.000000) scale(0.100000,-0.100000)"
fill="#000000" stroke="none">
<path d="M314 986 c-3 -19 -3 -39 0 -45 4 -6 -40 -8 -129 -5 l-135 4 -6 -25
c-10 -41 3 -74 33 -81 15 -4 66 -2 113 4 125 17 131 16 125 -10 -7 -31 5 -47
41 -54 37 -7 68 18 62 50 -4 20 0 21 79 22 53 0 83 -3 84 -10 0 -6 1 -22 3
-36 1 -23 -2 -25 -44 -26 -25 -1 -80 -7 -123 -14 -57 -10 -81 -10 -86 -2 -7
11 -195 22 -205 11 -3 -3 2 -24 11 -47 16 -42 25 -47 73 -43 22 1 23 0 8 -9
-17 -10 -16 -14 7 -60 14 -27 25 -52 25 -55 0 -3 -27 -4 -59 -1 -66 6 -72 -1
-63 -62 4 -30 18 -39 47 -32 46 12 75 12 370 9 l100 -1 -70 -23 c-38 -13 -78
-24 -87 -24 -15 -1 -23 -17 -20 -42 2 -16 -252 -19 -338 -4 -42 7 -80 9 -85 3
-6 -6 -9 -36 -7 -70 2 -26 4 -27 44 -22 84 11 135 12 261 7 102 -5 127 -9 123
-20 -3 -7 0 -25 6 -39 10 -22 9 -28 -6 -39 -17 -13 -57 -13 -97 0 -23 8 -23 8
1 -40 11 -22 20 -47 20 -57 0 -16 7 -18 58 -13 84 8 107 28 109 101 3 100 4
102 27 103 11 0 57 3 101 6 44 3 111 0 150 -6 75 -12 113 -14 121 -6 11 11 8
89 -4 96 -7 4 -36 2 -65 -6 -34 -9 -82 -12 -142 -8 -49 3 -101 5 -115 6 l-25
1 25 13 c41 21 201 75 209 71 14 -9 29 10 32 39 5 62 3 64 -42 53 -28 -8 -47
-7 -64 0 -14 6 -33 9 -42 6 -10 -3 6 17 35 46 28 28 52 55 52 59 0 5 -17 15
-37 23 l-38 15 73 8 c39 4 72 12 72 18 0 5 -12 25 -26 44 -27 35 -37 37 -140
19 -28 -4 -31 -2 -27 15 3 10 1 25 -5 32 -8 9 19 12 129 12 137 0 140 1 146
23 3 12 3 32 -1 45 -5 23 -7 23 -144 23 l-139 -1 8 35 c4 19 6 36 3 39 -2 2
-26 5 -53 5 l-49 1 3 -40 3 -40 -94 0 c-80 0 -93 2 -88 15 3 8 8 27 11 43 4
26 3 27 -46 27 -49 0 -50 -1 -57 -34z m386 -291 c0 -12 -44 -92 -67 -122 -26
-35 -42 -40 -76 -22 l-21 12 22 8 22 9 -30 53 -30 54 28 -4 c15 -2 47 0 72 6
55 11 80 13 80 6z m-267 -18 c-3 -4 8 -32 23 -62 16 -30 26 -56 23 -60 -6 -5
-82 -8 -144 -4 -28 1 -29 2 -8 11 l22 11 -24 48 c-30 58 -30 62 -7 55 9 -3 24
-1 32 4 18 11 91 9 83 -3z"/>
</g>
</svg>
