<?xml version="1.0" standalone="no"?>
<!DOCTYPE svg PUBLIC "-//W3C//DTD SVG 20010904//EN"
 "http://www.w3.org/TR/2001/REC-SVG-20010904/DTD/svg10.dtd">
<svg version="1.0" xmlns="http://www.w3.org/2000/svg"
 width="101.000000pt" height="102.000000pt" viewBox="0 0 101.000000 102.000000"
 preserveAspectRatio="xMidYMid meet">
<metadata>
Created by potrace 1.16, written by Peter Selinger 2001-2019
</metadata>
<g transform="translate(0.000000,102.000000) scale(0.100000,-0.100000)"
fill="#000000" stroke="none">
<path d="M585 966 l4 -54 -83 1 c-90 2 -91 4 -71 66 5 16 2 21 -12 22 -92 6
-98 2 -87 -55 l5 -32 -139 2 -140 3 -6 -25 c-10 -38 2 -62 32 -68 15 -2 77 -4
138 -3 l111 2 -1 -25 c-1 -24 -3 -25 -76 -25 l-75 0 0 -167 c0 -91 3 -169 7
-173 7 -8 20 -8 123 0 100 8 133 0 131 -29 -1 -23 -4 -24 -111 -29 -106 -6
-159 -4 -237 6 -29 4 -37 2 -41 -13 -14 -52 23 -92 64 -69 20 10 36 10 187 2
100 -5 103 -6 86 -24 -25 -28 -113 -67 -161 -73 -22 -3 -50 -10 -62 -18 -16
-10 -27 -10 -51 -1 -27 10 -70 8 -70 -4 0 -3 10 -18 22 -33 13 -15 28 -35 34
-45 10 -18 14 -17 100 4 146 36 245 90 283 152 l18 30 26 -34 c49 -65 205
-146 312 -163 29 -4 34 -1 63 46 19 30 26 51 19 51 -45 5 -95 12 -164 23 -41
6 -116 39 -148 65 l-25 19 22 2 c13 1 91 2 174 2 l152 -1 5 26 c8 41 -2 64
-27 57 -20 -5 -311 -8 -351 -4 -13 2 -20 10 -21 25 -2 26 -6 26 157 28 l117 2
0 172 0 172 -77 -1 c-74 -1 -76 0 -79 24 -3 24 -2 24 56 20 37 -3 62 0 66 7 9
14 49 14 62 1 7 -7 28 -8 53 -4 43 7 58 28 49 71 -4 19 -7 19 -91 7 -32 -4
-56 -2 -71 6 -13 7 -43 11 -67 9 l-44 -4 3 46 c4 45 3 46 -28 53 -68 13 -70
12 -65 -48z m-54 -145 c42 -1 47 -4 52 -27 l5 -27 -61 7 c-33 3 -68 6 -77 6
-10 0 -19 9 -22 23 -4 19 0 22 26 20 17 -1 52 -2 77 -2z m191 -153 c4 -23 0
-28 -21 -32 -44 -9 -125 -5 -139 6 -9 8 -16 8 -24 0 -15 -15 -75 -16 -83 -2
-4 6 -40 9 -88 8 -81 -3 -82 -3 -83 22 l-1 25 218 0 217 0 4 -27z m-288 -100
c5 -10 7 -10 12 0 6 14 56 15 191 6 l90 -7 -1 -28 -1 -29 -95 0 c-382 -1 -345
-4 -345 26 0 21 5 24 38 24 20 0 37 5 37 10 0 15 67 12 74 -2z"/>
</g>
</svg>
