<?xml version="1.0" standalone="no"?>
<!DOCTYPE svg PUBLIC "-//W3C//DTD SVG 20010904//EN"
 "http://www.w3.org/TR/2001/REC-SVG-20010904/DTD/svg10.dtd">
<svg version="1.0" xmlns="http://www.w3.org/2000/svg"
 width="101.000000pt" height="101.000000pt" viewBox="0 0 101.000000 101.000000"
 preserveAspectRatio="xMidYMid meet">
<metadata>
Created by potrace 1.16, written by Peter Selinger 2001-2019
</metadata>
<g transform="translate(0.000000,101.000000) scale(0.100000,-0.100000)"
fill="#000000" stroke="none">
<path d="M315 957 l4 -55 -87 5 c-194 12 -182 13 -188 -13 -3 -13 -3 -35 0
-49 l6 -25 133 4 132 4 0 -36 c-1 -42 8 -52 50 -52 39 0 49 9 54 45 1 17 4 31
4 31 1 1 44 5 95 9 l93 7 -3 -33 c-3 -36 -9 -38 -61 -24 -24 6 -28 4 -37 -21
-10 -29 -11 -29 -78 -26 -88 4 -122 -8 -122 -45 0 -46 10 -52 78 -48 34 1 62
0 62 -4 0 -12 -75 -81 -89 -81 -10 0 -11 -10 -6 -37 10 -59 8 -58 125 -48 30
2 69 2 86 0 26 -5 31 -10 31 -35 0 -25 -5 -30 -31 -35 -31 -5 -110 -1 -197 9
-51 7 -62 -5 -52 -57 6 -30 29 -38 80 -27 20 5 40 7 45 4 4 -3 16 0 27 6 12 6
43 8 75 4 l54 -7 -4 -46 c-3 -25 -5 -52 -6 -58 -2 -18 -35 -26 -66 -17 -15 4
-36 9 -47 10 -171 21 -211 67 -200 235 8 122 8 130 1 136 -3 3 -26 0 -50 -7
-25 -7 -53 -9 -63 -5 -10 4 -37 9 -59 11 -47 4 -55 -7 -46 -64 4 -30 5 -31 46
-26 86 11 91 10 89 -11 -1 -10 3 -27 8 -37 5 -9 6 -42 3 -72 -6 -52 -9 -56
-75 -112 -37 -33 -68 -64 -68 -70 -1 -5 14 -24 32 -42 l33 -32 48 55 c26 30
53 55 59 55 7 0 32 -16 55 -35 45 -35 147 -79 162 -70 5 3 20 1 33 -4 17 -7
35 -6 54 1 21 8 43 7 88 -5 38 -10 66 -12 77 -6 9 5 60 7 113 5 82 -2 98 0
101 13 3 9 13 32 23 53 l18 36 -25 5 c-14 3 -37 1 -50 -4 -21 -8 -97 -12 -164
-8 -29 1 -30 2 -33 77 -1 31 2 42 11 38 7 -3 26 0 42 6 22 9 39 8 73 -4 61
-21 106 -13 112 19 2 14 2 34 -1 45 -4 16 -10 18 -31 12 -14 -5 -57 -7 -96 -6
-120 2 -113 0 -112 38 1 23 5 33 13 30 7 -3 26 0 42 6 23 9 38 8 70 -5 49 -20
68 -15 75 20 8 42 -2 64 -27 57 -21 -5 -110 -7 -152 -4 -22 2 -25 23 -10 61 5
11 -2 18 -30 27 -54 16 -69 5 -69 -48 l0 -45 -35 3 c-19 1 -45 3 -57 3 -23 1
-23 2 -5 31 23 39 50 62 76 66 77 9 187 11 246 4 64 -8 70 -7 76 11 3 10 3 29
0 42 -5 20 -14 25 -59 30 -28 3 -93 4 -143 3 -71 -2 -90 0 -87 10 3 7 13 10
25 6 26 -8 69 4 67 19 -1 7 -1 23 0 37 l1 25 120 -2 c119 -1 120 -1 126 23 3
13 3 35 0 48 -6 23 -9 24 -63 19 -114 -9 -191 -8 -188 2 2 5 6 28 9 50 l5 40
-54 0 c-54 0 -55 -1 -61 -33 -4 -18 -4 -41 -1 -52 6 -23 -4 -24 -113 -14 l-65
6 1 32 c1 17 4 38 6 46 2 12 -9 16 -54 18 l-58 3 5 -54z"/>
<path d="M146 771 c-6 -10 38 -136 49 -139 6 -2 27 0 48 3 42 8 42 5 7 95 -17
43 -20 45 -59 46 -23 1 -43 -1 -45 -5z"/>
</g>
</svg>
