<?xml version="1.0" standalone="no"?>
<!DOCTYPE svg PUBLIC "-//W3C//DTD SVG 20010904//EN"
 "http://www.w3.org/TR/2001/REC-SVG-20010904/DTD/svg10.dtd">
<svg version="1.0" xmlns="http://www.w3.org/2000/svg"
 width="101.000000pt" height="103.000000pt" viewBox="0 0 101.000000 103.000000"
 preserveAspectRatio="xMidYMid meet">
<metadata>
Created by potrace 1.16, written by Peter Selinger 2001-2019
</metadata>
<g transform="translate(0.000000,103.000000) scale(0.100000,-0.100000)"
fill="#000000" stroke="none">
<path d="M593 980 l3 -50 -96 3 c-104 2 -107 4 -85 60 8 18 9 18 -72 21 l-42
1 3 -43 2 -42 -103 5 c-56 3 -106 5 -110 6 -31 5 -52 -38 -38 -81 6 -19 13
-20 129 -16 108 3 122 1 121 -13 0 -9 -4 -22 -9 -29 -14 -23 4 -51 39 -58 43
-8 72 2 71 24 0 73 -5 69 100 77 52 4 98 4 102 1 3 -4 1 -16 -6 -26 -19 -31
-15 -57 11 -64 36 -9 55 -7 70 9 14 13 18 11 40 -15 14 -16 27 -35 29 -41 3
-10 14 -9 43 3 22 8 41 20 42 25 2 5 -10 28 -27 51 l-30 42 -40 -20 c-38 -19
-40 -19 -40 -2 0 10 -4 22 -10 28 -6 6 39 8 120 8 119 -2 130 0 135 17 4 11 4
32 0 48 -6 28 -8 29 -66 28 -32 0 -59 -4 -59 -9 0 -4 -11 -8 -25 -8 -14 0 -25
5 -25 10 0 6 -19 10 -41 10 l-42 0 6 39 c5 43 -5 51 -71 51 l-32 0 3 -50z"/>
<path d="M426 755 c-27 -63 -29 -64 -73 -71 -27 -4 -53 -2 -66 5 -13 6 -62 10
-122 8 -97 -2 -100 -3 -103 -26 -2 -12 -1 -33 2 -46 5 -21 11 -23 68 -23 35 0
68 5 75 10 6 5 35 6 64 2 l53 -7 -30 -24 c-44 -37 -163 -92 -213 -97 -24 -3
-46 -8 -49 -10 -6 -7 60 -84 73 -85 6 -1 11 -20 12 -42 1 -23 4 -44 7 -46 7
-7 43 -6 91 2 109 18 124 8 73 -51 -38 -43 -100 -74 -160 -79 -44 -4 -62 -15
-38 -23 8 -3 30 -20 48 -39 19 -18 40 -33 46 -33 7 0 40 14 74 31 71 35 137
104 154 161 8 27 16 37 25 33 8 -3 23 0 33 5 11 6 43 8 73 4 59 -7 55 -2 59
-84 1 -19 -2 -56 -6 -81 -9 -52 1 -60 61 -52 l30 5 1 81 c1 120 2 129 17 123
8 -3 27 0 43 6 24 9 36 8 65 -5 44 -21 64 -14 70 26 8 56 -1 68 -42 60 -20 -4
-52 -7 -71 -6 -19 2 -45 3 -57 4 -20 1 -22 6 -20 43 2 22 7 41 13 41 5 0 43
-14 84 -32 126 -53 123 -53 158 11 29 55 30 56 9 57 -88 6 -147 18 -202 44
-65 31 -86 52 -53 54 85 5 177 4 200 -3 22 -6 27 -4 33 13 3 12 3 35 0 52 -6
27 -10 30 -34 25 -14 -3 -70 -9 -124 -13 -79 -5 -101 -3 -109 8 -7 11 -11 11
-15 2 -6 -15 -73 -18 -73 -3 0 6 -16 10 -35 10 -19 0 -35 4 -35 8 0 5 14 23
32 41 41 41 31 52 -63 66 -23 3 -28 -3 -53 -60z m146 -147 c8 -7 32 -32 53
-56 30 -33 34 -42 19 -41 -53 5 -55 3 -49 -60 l5 -58 -50 -7 c-29 -4 -58 -2
-69 4 -11 5 -26 7 -34 5 -14 -6 -15 9 -3 82 4 28 1 33 -25 42 -16 5 -37 7 -47
4 -9 -3 6 15 33 40 28 25 57 44 65 42 8 -3 22 0 30 5 21 13 53 12 72 -2z
m-233 -120 c0 -13 2 -39 3 -58 l3 -35 -60 -8 c-36 -4 -69 -3 -82 3 -13 5 -30
7 -38 4 -8 -4 -15 -2 -15 3 0 5 15 14 33 21 17 7 59 30 92 51 33 22 61 40 61
40 1 1 2 -9 3 -21z"/>
</g>
</svg>
