<?xml version="1.0" standalone="no"?>
<!DOCTYPE svg PUBLIC "-//W3C//DTD SVG 20010904//EN"
 "http://www.w3.org/TR/2001/REC-SVG-20010904/DTD/svg10.dtd">
<svg version="1.0" xmlns="http://www.w3.org/2000/svg"
 width="101.000000pt" height="102.000000pt" viewBox="0 0 101.000000 102.000000"
 preserveAspectRatio="xMidYMid meet">
<metadata>
Created by potrace 1.16, written by Peter Selinger 2001-2019
</metadata>
<g transform="translate(0.000000,102.000000) scale(0.100000,-0.100000)"
fill="#000000" stroke="none">
<path d="M305 969 l4 -50 -124 6 -123 5 -7 -30 c-4 -16 -4 -39 0 -50 6 -18 13
-19 128 -16 l122 4 0 -42 c0 -40 1 -41 36 -44 42 -4 69 17 69 52 0 21 5 24 77
30 117 10 128 9 113 -9 -32 -39 17 -86 75 -71 25 6 35 39 15 51 -5 3 -10 12
-10 18 0 9 36 12 130 11 143 -1 149 2 135 64 -5 26 -9 28 -60 28 -30 1 -55 -3
-55 -7 0 -5 -11 -9 -25 -9 -14 0 -25 5 -25 10 0 6 -18 10 -39 10 -47 0 -55 9
-41 46 13 34 5 40 -55 42 -45 2 -53 -6 -45 -43 12 -57 16 -56 -94 -53 l-101 3
3 41 4 42 -46 -5 c-31 -4 -46 -2 -46 6 0 6 -4 11 -10 11 -6 0 -8 -21 -5 -51z"/>
<path d="M460 808 c-20 -7 -20 -9 -5 -39 9 -17 14 -33 11 -36 -3 -3 -76 0
-163 6 -87 6 -168 8 -180 5 -23 -6 -37 -44 -28 -75 6 -17 24 -25 50 -19 5 1
55 3 110 5 80 2 94 1 68 -7 -39 -13 -40 -20 -12 -60 12 -16 18 -32 14 -36 -7
-7 -188 -7 -242 0 -36 5 -43 -7 -35 -60 4 -30 18 -39 47 -32 33 8 81 12 165
11 52 0 124 0 160 0 291 -1 461 -5 485 -14 27 -9 43 3 46 33 5 57 8 56 -123
57 -169 2 -169 2 -159 22 5 9 19 25 30 35 26 24 27 36 1 36 -28 0 -25 18 5 26
15 4 39 0 60 -10 27 -13 39 -14 56 -6 11 7 31 9 44 6 25 -6 35 8 35 49 0 34
-33 49 -89 41 -25 -4 -91 -7 -146 -7 l-99 -1 -14 41 c-12 36 -17 41 -42 39
-16 -1 -38 -6 -50 -10z m132 -148 c16 0 15 -6 -9 -55 -23 -46 -32 -56 -59 -61
-18 -3 -41 -1 -52 5 -11 6 -29 8 -39 5 -14 -5 -15 -4 -4 4 12 9 11 16 -10 44
-41 54 -41 53 17 51 29 -1 57 3 60 9 4 6 22 8 43 4 20 -3 44 -6 53 -6z"/>
<path d="M187 398 c-3 -12 -2 -29 3 -38 5 -9 6 -47 4 -85 -3 -39 -5 -79 -4
-90 1 -11 2 -37 3 -57 1 -41 13 -48 65 -40 31 4 37 13 34 53 -1 11 7 17 21 18
26 2 198 2 308 0 l76 -1 0 -29 c0 -16 2 -31 4 -34 6 -6 36 -9 70 -7 26 2 30
14 28 102 -2 79 -1 121 4 173 l6 57 -52 -7 c-29 -5 -76 -7 -104 -6 -52 2 -86
2 -273 1 -52 0 -116 3 -141 6 -42 5 -47 4 -52 -16z m433 -69 l76 -1 2 -43 1
-43 -77 -1 c-113 -2 -284 -2 -309 0 -20 1 -22 6 -21 45 2 34 6 43 18 39 8 -2
22 0 30 5 8 5 57 7 110 4 52 -2 129 -5 170 -5z"/>
</g>
</svg>
