<?xml version="1.0" standalone="no"?>
<!DOCTYPE svg PUBLIC "-//W3C//DTD SVG 20010904//EN"
 "http://www.w3.org/TR/2001/REC-SVG-20010904/DTD/svg10.dtd">
<svg version="1.0" xmlns="http://www.w3.org/2000/svg"
 width="101.000000pt" height="101.000000pt" viewBox="0 0 101.000000 101.000000"
 preserveAspectRatio="xMidYMid meet">
<metadata>
Created by potrace 1.16, written by Peter Selinger 2001-2019
</metadata>
<g transform="translate(0.000000,101.000000) scale(0.100000,-0.100000)"
fill="#000000" stroke="none">
<path d="M328 1003 c-18 -5 -34 -60 -26 -91 4 -15 -2 -17 -46 -13 -28 2 -86 5
-129 6 -74 3 -77 2 -83 -21 -10 -39 3 -71 31 -78 14 -4 31 -4 36 0 17 10 199
13 193 3 -3 -5 -3 -23 1 -39 5 -21 14 -30 35 -35 46 -10 67 1 68 36 0 17 3 33
5 35 2 2 41 5 86 7 l81 2 0 -27 c0 -15 -5 -30 -10 -33 -19 -11 1 -25 35 -25
40 0 65 22 65 56 0 22 4 24 49 24 28 0 53 5 56 10 8 12 52 13 59 1 3 -5 28 -8
56 -8 44 1 51 4 56 23 12 46 2 58 -54 66 -29 5 -95 7 -146 5 -78 -2 -92 0 -90
13 15 81 17 76 -34 76 -56 -1 -64 -9 -57 -56 l6 -35 -83 0 -83 0 2 42 c3 54
-21 71 -79 56z"/>
<path d="M829 746 c-2 -3 -16 -7 -29 -10 -14 -3 -38 -9 -55 -14 -16 -5 -36 -7
-43 -5 -7 3 -20 2 -30 -2 -45 -19 -252 -26 -245 -9 5 14 -25 27 -40 17 -7 -4
-77 -8 -157 -8 -158 0 -161 -1 -146 -61 6 -22 11 -24 50 -21 24 2 48 7 55 11
6 4 30 5 52 1 l41 -7 -43 -44 c-37 -38 -43 -49 -42 -84 2 -42 -2 -45 -67 -55
-48 -6 -94 -16 -98 -19 -2 -3 25 -81 32 -93 1 -1 32 9 70 23 55 20 67 22 62 9
-3 -8 -1 -26 5 -39 7 -15 8 -38 2 -67 l-9 -44 -52 2 c-29 1 -52 0 -52 -3 0 -3
7 -18 15 -34 8 -16 15 -33 14 -37 -6 -39 18 -42 101 -13 30 10 57 15 60 11 3
-5 16 -12 30 -16 14 -4 33 -14 43 -23 16 -14 19 -13 43 9 29 27 93 151 100
195 3 16 7 76 9 134 6 166 6 165 36 165 31 1 30 6 30 -145 0 -180 -6 -258 -18
-271 -11 -11 -3 -29 33 -78 2 -2 15 4 29 13 15 10 44 24 66 31 l40 14 5 -28
c6 -28 7 -28 45 -18 21 5 39 13 39 18 0 9 -68 160 -75 167 -2 3 -18 -1 -35 -8
-27 -11 -30 -17 -25 -40 4 -19 2 -29 -8 -33 -11 -4 -15 18 -20 121 -3 70 -4
150 -1 177 2 28 4 60 5 73 1 12 6 22 13 22 6 0 21 3 32 6 18 5 22 1 23 -18 1
-12 3 -59 5 -103 1 -44 11 -105 20 -135 23 -70 78 -176 115 -221 l29 -34 24
21 c12 12 33 27 46 33 22 12 22 12 -27 61 -48 48 -106 148 -115 200 -2 14 -10
49 -16 79 -9 39 -9 60 -1 77 6 13 8 30 5 38 -4 9 2 14 18 14 42 1 88 9 95 16
4 3 -11 24 -32 46 -38 39 -47 45 -56 36z m-401 -99 c10 -85 11 -195 2 -221 -6
-17 -13 -49 -16 -70 -3 -22 -11 -54 -19 -72 -13 -32 -91 -124 -104 -124 -4 0
-6 46 -4 103 3 142 4 147 17 149 78 10 112 39 99 87 -6 25 -17 26 -71 7 -40
-14 -40 -14 -38 9 3 25 116 168 125 159 3 -3 7 -15 9 -27z"/>
</g>
</svg>
