<?xml version="1.0" standalone="no"?>
<!DOCTYPE svg PUBLIC "-//W3C//DTD SVG 20010904//EN"
 "http://www.w3.org/TR/2001/REC-SVG-20010904/DTD/svg10.dtd">
<svg version="1.0" xmlns="http://www.w3.org/2000/svg"
 width="101.000000pt" height="102.000000pt" viewBox="0 0 101.000000 102.000000"
 preserveAspectRatio="xMidYMid meet">
<metadata>
Created by potrace 1.16, written by Peter Selinger 2001-2019
</metadata>
<g transform="translate(0.000000,102.000000) scale(0.100000,-0.100000)"
fill="#000000" stroke="none">
<path d="M325 963 l0 -57 -137 2 -137 1 -6 -29 c-4 -16 -4 -39 0 -50 6 -19 13
-20 141 -15 88 2 132 0 128 -6 -9 -16 5 -59 19 -59 9 0 13 -13 13 -39 l-1 -39
-65 -7 c-44 -5 -65 -4 -68 4 -2 6 -29 11 -63 11 -54 0 -59 -2 -65 -24 -12 -50
24 -88 65 -67 18 10 134 13 171 6 22 -5 26 -11 27 -45 2 -37 0 -40 -30 -44
-31 -5 -95 -2 -169 7 -41 6 -49 -6 -41 -60 5 -29 7 -31 42 -26 72 9 137 12
167 7 25 -3 32 -10 32 -27 0 -12 4 -34 7 -49 6 -23 3 -29 -18 -37 -26 -10
-108 -8 -182 4 -51 9 -85 9 -93 1 -7 -8 -6 -75 1 -82 6 -6 33 -6 77 1 117 20
216 15 206 -11 -3 -8 0 -26 6 -40 9 -19 9 -30 0 -45 -29 -47 -7 -71 56 -61
l33 4 -1 82 c0 44 0 105 0 134 0 28 0 73 0 100 1 136 9 299 15 314 5 13 0 19
-19 24 -22 5 -25 10 -20 33 4 14 7 27 8 27 1 1 39 5 85 9 l84 7 -6 -24 c-4
-13 -7 -29 -7 -35 0 -7 -6 -13 -14 -13 -8 0 -17 -12 -20 -27 -7 -36 -7 -341 1
-505 6 -138 7 -140 70 -131 39 6 46 22 27 59 -11 21 -13 34 -5 51 6 13 8 29 5
37 -4 9 2 14 18 15 13 1 49 3 81 5 34 3 75 -1 95 -8 54 -19 99 -10 105 21 2
14 2 34 -1 45 -4 17 -10 19 -36 12 -29 -8 -176 -9 -241 -2 -27 3 -30 6 -27 33
1 17 3 40 3 51 1 24 9 25 111 24 31 0 67 -4 81 -9 30 -12 45 -3 48 29 5 53 1
60 -30 54 -16 -3 -38 -1 -50 5 -17 9 -28 8 -55 -4 -25 -12 -40 -14 -53 -7 -10
6 -28 10 -38 9 -16 -2 -19 3 -17 23 2 14 3 35 4 46 0 15 7 22 22 23 11 0 49 3
84 5 39 3 77 0 102 -9 35 -12 42 -12 55 1 19 20 19 58 -1 78 -16 16 -123 23
-137 9 -4 -3 -34 -7 -67 -7 -50 -1 -59 2 -54 14 4 8 9 25 11 38 3 12 10 22 15
22 5 0 9 10 8 23 -1 12 -2 27 -1 32 1 6 33 9 78 8 43 -1 104 1 135 4 62 6 74
19 63 66 -6 23 -11 25 -76 26 -41 1 -69 -3 -69 -9 0 -5 -11 -10 -25 -10 -14 0
-25 5 -25 10 0 6 -18 10 -39 10 -45 0 -55 15 -38 59 6 17 9 32 7 34 -3 3 -24
8 -46 12 -32 5 -45 2 -58 -10 -9 -9 -13 -21 -10 -27 3 -5 7 -25 8 -43 l1 -34
-85 2 -86 2 8 49 c4 28 5 52 3 54 -2 3 -26 6 -52 9 l-48 3 0 -57z"/>
</g>
</svg>
