<?xml version="1.0" standalone="no"?>
<!DOCTYPE svg PUBLIC "-//W3C//DTD SVG 20010904//EN"
 "http://www.w3.org/TR/2001/REC-SVG-20010904/DTD/svg10.dtd">
<svg version="1.0" xmlns="http://www.w3.org/2000/svg"
 width="101.000000pt" height="102.000000pt" viewBox="0 0 101.000000 102.000000"
 preserveAspectRatio="xMidYMid meet">
<metadata>
Created by potrace 1.16, written by Peter Selinger 2001-2019
</metadata>
<g transform="translate(0.000000,102.000000) scale(0.100000,-0.100000)"
fill="#000000" stroke="none">
<path d="M303 972 l2 -48 -70 4 c-38 2 -88 6 -111 9 -47 6 -74 -13 -74 -52 0
-27 27 -58 41 -49 17 10 209 10 210 -1 1 -5 1 -17 0 -26 -3 -24 59 -38 87 -20
12 7 12 12 1 29 -17 27 -12 30 33 25 34 -5 37 -7 27 -25 -6 -11 -9 -28 -6 -38
4 -15 -5 -19 -61 -25 -42 -4 -67 -3 -71 4 -4 5 -39 11 -79 13 -77 3 -92 -4
-92 -47 0 -38 13 -46 66 -40 91 11 179 15 210 10 26 -4 31 -10 31 -34 l0 -28
-111 -6 c-104 -6 -155 -4 -233 6 -36 4 -43 -8 -35 -61 4 -32 5 -32 51 -28 25
3 55 8 67 11 11 4 36 2 55 -3 l34 -9 -61 -39 c-34 -22 -82 -48 -108 -58 l-47
-18 36 -34 37 -34 124 73 124 73 -21 21 -21 21 23 1 c13 0 53 3 89 6 36 3 94
3 128 -1 l64 -6 -21 -22 -21 -22 58 -28 c53 -26 55 -29 33 -37 -12 -5 -57 -7
-100 -4 -42 3 -87 6 -101 6 l-25 1 33 29 c17 16 32 31 32 33 0 2 -21 11 -47
20 l-48 17 -30 -38 c-48 -61 -125 -130 -187 -165 -32 -18 -58 -35 -58 -38 0
-3 20 -16 45 -29 50 -26 48 -27 116 36 l36 34 40 -54 41 -55 -37 -10 c-42 -13
-95 -23 -131 -27 -14 -1 -42 -8 -62 -15 -28 -10 -43 -11 -61 -3 -25 12 -67 7
-67 -7 0 -4 6 -13 14 -19 8 -6 19 -25 26 -41 12 -30 25 -32 110 -15 14 3 36 7
50 9 47 9 172 47 200 61 31 16 34 16 150 -24 47 -17 99 -32 115 -35 17 -4 43
-9 59 -11 16 -3 33 -8 37 -10 17 -11 40 10 68 61 l29 54 -61 -1 c-34 -1 -75 1
-92 4 -16 3 -46 8 -65 11 -80 11 -103 16 -108 21 -3 3 12 24 34 48 32 33 79
91 110 136 2 2 22 -11 46 -28 l43 -32 33 37 c17 21 32 40 32 43 0 4 -46 29
-102 58 -75 37 -96 51 -78 52 14 1 41 2 60 3 19 1 58 -1 86 -6 l52 -8 4 33
c10 65 9 65 -110 57 -59 -4 -138 -5 -177 -3 -38 3 -79 6 -91 6 -30 2 -30 56 0
58 12 0 59 3 106 6 47 3 108 1 138 -6 44 -9 56 -8 63 3 14 21 10 55 -7 72 -18
19 -75 21 -92 4 -6 -6 -35 -11 -64 -10 -99 3 -168 7 -168 9 0 1 4 13 10 27 5
14 6 26 2 26 -5 0 -17 7 -28 15 -18 13 -16 14 22 15 38 0 42 -3 47 -29 5 -22
13 -31 36 -36 49 -11 73 2 66 33 l-5 27 129 -1 c120 -2 131 0 136 17 4 11 4
33 0 49 -6 29 -7 29 -63 24 -31 -3 -89 -6 -127 -7 l-70 -2 2 42 c2 24 -1 43
-5 44 -4 1 -25 3 -47 5 l-40 3 0 -47 0 -47 -55 -8 c-38 -7 -55 -6 -58 2 -2 6
-22 11 -44 11 l-41 0 6 40 c6 44 2 46 -71 48 l-32 1 3 -47z m275 -610 c22 -7
22 -8 -17 -46 l-41 -40 -35 34 c-38 37 -45 54 -17 46 9 -3 24 -1 32 4 17 11
43 11 78 2z"/>
</g>
</svg>
