<?xml version="1.0" standalone="no"?>
<!DOCTYPE svg PUBLIC "-//W3C//DTD SVG 20010904//EN"
 "http://www.w3.org/TR/2001/REC-SVG-20010904/DTD/svg10.dtd">
<svg version="1.0" xmlns="http://www.w3.org/2000/svg"
 width="101.000000pt" height="103.000000pt" viewBox="0 0 101.000000 103.000000"
 preserveAspectRatio="xMidYMid meet">
<metadata>
Created by potrace 1.16, written by Peter Selinger 2001-2019
</metadata>
<g transform="translate(0.000000,103.000000) scale(0.100000,-0.100000)"
fill="#000000" stroke="none">
<path d="M592 971 l3 -59 -50 -7 c-32 -4 -51 -2 -53 4 -2 6 -21 11 -43 11 -41
0 -45 7 -40 76 2 18 -4 20 -46 20 -26 -1 -51 -5 -55 -11 -5 -5 -5 -28 -2 -50
l6 -40 -64 4 c-137 9 -188 7 -198 -9 -15 -23 -12 -57 6 -74 17 -18 109 -22
119 -6 8 13 52 13 60 -1 5 -6 22 -8 47 -4 l40 7 -4 -43 c-3 -43 -2 -44 28 -47
38 -4 64 19 64 56 l0 27 94 2 94 2 -4 -39 c-3 -35 -1 -40 21 -46 46 -11 72 2
79 41 4 19 5 39 2 43 -6 9 70 9 80 0 12 -12 64 -9 64 3 0 8 18 10 55 7 60 -5
72 6 60 55 -6 23 -12 26 -78 31 -40 3 -97 5 -129 3 l-56 -3 4 47 c3 45 3 47
-28 53 -17 3 -42 6 -55 6 -24 0 -25 -2 -21 -59z"/>
<path d="M160 753 c-11 -14 -19 -30 -18 -34 2 -4 37 -30 78 -58 l75 -50 28 29
c15 17 27 34 27 39 0 11 -141 101 -158 101 -6 0 -20 -12 -32 -27z"/>
<path d="M408 732 c-23 -4 -29 -46 -23 -167 5 -109 6 -151 2 -265 l-2 -75 -35
3 c-65 4 -81 4 -88 -2 -7 -8 -6 -75 1 -83 7 -7 43 -6 87 2 43 8 206 9 275 1
28 -3 62 0 78 6 19 7 57 7 134 -1 58 -6 108 -9 110 -7 7 6 8 85 1 91 -3 4 -15
1 -26 -6 -16 -10 -26 -10 -46 -1 -14 6 -32 9 -40 6 -8 -3 -16 4 -20 20 -10 39
-5 170 7 184 7 9 7 16 -1 24 -15 15 -16 74 -2 83 6 3 9 45 8 96 -1 84 -3 90
-24 95 -13 3 -38 1 -56 -4 -52 -17 -160 -26 -167 -14 -6 9 -140 20 -173 14z
m225 -94 c4 -10 8 -10 15 1 7 9 20 12 44 7 32 -6 34 -8 33 -46 0 -36 -3 -40
-30 -45 -16 -3 -61 -3 -100 0 -38 3 -79 6 -90 6 -16 1 -20 8 -20 35 0 33 2 34
38 34 20 0 37 5 37 10 0 15 67 12 73 -2z m67 -154 c22 -4 26 -10 28 -49 1 -42
0 -44 -31 -50 -17 -3 -63 -3 -102 0 -38 3 -80 6 -92 6 -20 1 -22 6 -21 45 2
34 6 43 18 39 8 -2 21 -1 29 4 15 10 132 13 171 5z m1 -160 c19 -4 27 -11 27
-27 0 -12 3 -32 7 -44 11 -33 -29 -44 -129 -38 -135 8 -131 7 -128 35 2 14 3
35 4 48 0 16 5 21 17 18 9 -3 22 -2 30 3 15 10 132 13 172 5z"/>
<path d="M83 607 c-13 -18 -23 -36 -23 -39 0 -3 38 -27 85 -52 l86 -46 24 27
c14 16 24 34 22 42 -2 11 -150 101 -167 101 -3 0 -15 -15 -27 -33z"/>
<path d="M165 412 c-22 -78 -41 -128 -75 -190 l-28 -53 50 -25 c27 -14 51 -24
53 -22 10 10 95 290 91 297 -3 5 -21 18 -40 29 l-35 21 -16 -57z"/>
</g>
</svg>
