<?xml version="1.0" standalone="no"?>
<!DOCTYPE svg PUBLIC "-//W3C//DTD SVG 20010904//EN"
 "http://www.w3.org/TR/2001/REC-SVG-20010904/DTD/svg10.dtd">
<svg version="1.0" xmlns="http://www.w3.org/2000/svg"
 width="101.000000pt" height="102.000000pt" viewBox="0 0 101.000000 102.000000"
 preserveAspectRatio="xMidYMid meet">
<metadata>
Created by potrace 1.16, written by Peter Selinger 2001-2019
</metadata>
<g transform="translate(0.000000,102.000000) scale(0.100000,-0.100000)"
fill="#000000" stroke="none">
<path d="M335 973 l0 -48 -85 3 c-47 2 -103 6 -125 8 -49 6 -63 -3 -71 -42 -9
-46 17 -67 70 -58 22 4 55 6 71 6 117 -1 123 -2 128 -21 4 -16 -1 -18 -34 -15
-35 3 -38 1 -44 -26 -4 -16 -4 -34 -1 -39 7 -10 -49 -8 -77 4 -26 11 -64 -2
-70 -24 -2 -10 -2 -31 0 -45 5 -22 9 -25 42 -22 20 2 44 7 54 11 29 12 65 -2
66 -27 1 -13 3 -50 6 -83 3 -33 3 -92 -1 -131 l-6 -72 -71 4 c-40 2 -86 5
-104 7 -36 4 -43 -9 -36 -60 5 -34 34 -49 64 -33 9 5 37 8 60 6 24 -2 52 0 61
5 10 6 41 7 69 3 l52 -7 -29 -15 c-38 -20 -176 -70 -209 -76 -67 -12 -67 -14
-23 -58 l41 -41 41 16 c85 32 242 90 256 94 11 3 4 15 -26 43 -35 32 -38 38
-20 39 12 0 59 3 106 6 47 3 96 3 109 0 l24 -6 -32 -33 c-17 -17 -31 -37 -31
-42 0 -6 24 -16 53 -24 28 -7 84 -26 122 -42 39 -17 82 -35 97 -41 25 -10 30
-8 62 28 19 22 35 43 36 46 0 7 -258 89 -280 89 -11 0 -12 2 -2 8 7 5 49 7 95
5 88 -3 102 -3 159 0 30 1 37 5 41 25 10 55 1 63 -77 62 -121 -2 -114 -6 -121
64 -3 33 -3 90 0 126 3 36 6 75 6 88 1 16 6 22 15 18 8 -3 26 0 40 6 19 9 33
9 60 -1 20 -7 38 -10 41 -8 7 7 8 75 2 82 -8 7 -67 8 -116 2 -38 -5 -41 -4
-38 16 1 12 6 30 10 39 8 19 -25 32 -66 26 -15 -2 -25 3 -26 12 -3 12 11 15
71 18 42 1 78 -2 81 -8 3 -5 26 -10 50 -10 56 0 79 21 71 64 -9 46 -37 57 -93
35 -17 -6 -56 -8 -101 -3 l-74 7 5 38 c6 44 -11 55 -68 45 -33 -7 -34 -8 -30
-51 l3 -43 -82 1 -83 2 3 40 c3 45 -6 55 -56 55 l-35 0 0 -47z m246 -147 c1
-12 1 -26 0 -33 -2 -12 53 -28 66 -20 5 3 8 -5 8 -18 0 -22 -4 -24 -80 -29
-44 -3 -105 -4 -135 -1 -30 3 -65 5 -77 6 -25 1 -32 19 -8 19 8 0 25 5 38 11
21 10 24 16 20 48 l-5 36 86 1 c81 1 86 0 87 -20z m0 -162 c75 -6 76 -6 76
-34 0 -28 0 -28 -81 -34 -45 -3 -106 -4 -136 -1 -30 3 -64 5 -76 6 -16 1 -21
8 -21 30 0 22 4 28 16 24 9 -2 23 0 31 5 16 10 81 11 191 4z m0 -120 c75 -6
76 -6 76 -34 0 -28 0 -28 -81 -34 -45 -3 -106 -4 -136 -1 -30 3 -64 5 -76 6
-16 1 -21 8 -21 30 0 22 4 28 16 24 9 -2 23 0 31 5 16 10 81 11 191 4z m0
-120 l75 -6 1 -33 1 -33 -82 -6 c-44 -3 -106 -4 -136 -1 -30 3 -65 5 -76 6
-18 1 -22 7 -21 35 1 26 5 33 16 29 9 -2 23 0 31 5 16 10 81 11 191 4z"/>
</g>
</svg>
