<?xml version="1.0" standalone="no"?>
<!DOCTYPE svg PUBLIC "-//W3C//DTD SVG 20010904//EN"
 "http://www.w3.org/TR/2001/REC-SVG-20010904/DTD/svg10.dtd">
<svg version="1.0" xmlns="http://www.w3.org/2000/svg"
 width="101.000000pt" height="103.000000pt" viewBox="0 0 101.000000 103.000000"
 preserveAspectRatio="xMidYMid meet">
<metadata>
Created by potrace 1.16, written by Peter Selinger 2001-2019
</metadata>
<g transform="translate(0.000000,103.000000) scale(0.100000,-0.100000)"
fill="#000000" stroke="none">
<path d="M296 1005 c-4 -14 -4 -30 -1 -35 3 -4 -55 -6 -129 -4 -129 4 -135 3
-141 -17 -11 -35 3 -68 32 -75 15 -4 66 -2 113 4 117 16 133 16 126 -3 -9 -23
3 -43 31 -50 41 -10 65 3 60 33 -4 26 -2 27 39 27 24 0 44 -1 44 -3 0 -1 -12
-7 -26 -12 -21 -8 -25 -15 -21 -36 l4 -25 -106 6 c-58 4 -124 9 -146 11 -59 8
-95 -9 -95 -43 0 -41 11 -51 50 -46 140 17 300 10 300 -12 0 -25 -102 -30
-242 -12 -40 6 -50 -8 -41 -57 5 -25 8 -26 52 -20 161 20 231 15 228 -16 -1
-16 -12 -20 -62 -25 -58 -5 -147 -2 -210 9 -78 13 -91 11 -98 -13 -2 -10 -2
-30 0 -44 4 -23 9 -25 41 -20 79 10 131 12 229 6 91 -5 101 -7 100 -24 -2 -30
-73 -34 -223 -15 -46 6 -56 -7 -47 -58 5 -24 9 -26 47 -22 22 3 50 7 61 10 11
3 41 3 67 -1 l46 -8 -20 -25 c-19 -23 -26 -25 -107 -23 -47 0 -99 3 -116 6
-76 14 -91 12 -98 -12 -2 -10 -2 -31 0 -45 5 -25 8 -26 52 -20 83 10 135 13
166 7 l30 -6 -39 -33 c-22 -19 -37 -37 -34 -40 6 -5 38 -9 133 -18 17 -1 38
-3 48 -4 9 -1 17 -6 17 -12 0 -5 -3 -9 -7 -8 -5 1 -28 -3 -53 -10 -42 -12
-143 -11 -242 1 -43 6 -45 2 -18 -33 11 -14 20 -31 20 -38 0 -16 48 -35 63
-25 7 5 44 9 82 10 39 1 86 4 105 6 39 5 187 52 209 66 16 10 100 -12 204 -54
38 -15 69 -25 71 -23 1 1 17 22 35 45 l32 42 -38 10 c-21 5 -65 17 -98 26 -57
15 -83 21 -113 24 -24 2 39 66 67 69 57 7 88 6 142 -1 55 -7 57 -6 62 19 11
58 7 59 -121 56 -116 -3 -296 -4 -340 -1 -21 1 -21 2 -6 14 9 6 14 17 11 22
-4 6 3 11 16 12 12 0 60 3 106 6 46 3 109 1 139 -5 30 -5 57 -8 60 -6 6 7 6
48 -2 85 -6 28 -4 32 9 27 8 -3 27 0 40 6 19 9 28 9 37 0 7 -7 22 -12 35 -12
17 0 23 6 25 23 4 62 -10 81 -48 67 -12 -5 -40 -8 -62 -7 -34 1 -39 4 -36 22
14 84 19 80 -113 82 -155 2 -163 3 -163 18 0 16 11 17 207 16 155 -1 162 0
168 20 4 11 4 30 1 43 -7 27 -55 33 -89 11 -15 -10 -47 -14 -95 -14 -74 1
-101 12 -57 23 20 5 24 11 19 34 l-6 27 97 -1 c53 -1 99 -4 102 -8 12 -12 62
-6 77 10 17 16 21 51 8 70 -5 8 -49 11 -137 10 l-130 -1 1 30 c2 30 1 30 -51
30 -52 0 -53 0 -51 -30 l1 -30 -101 0 -101 0 8 33 7 32 -48 0 c-43 0 -48 -3
-54 -25z m282 -130 c2 -2 4 -12 5 -24 1 -11 7 -21 14 -21 7 0 13 -3 13 -7 0
-5 -20 -8 -43 -8 -42 0 -44 1 -41 28 2 15 -1 27 -6 27 -6 0 -10 4 -10 10 0 8
57 4 68 -5z m104 -235 c20 0 26 -5 25 -19 -1 -15 -12 -20 -60 -25 -33 -3 -67
-1 -77 4 -10 5 -25 8 -32 5 -9 -4 -14 2 -15 15 -1 15 3 20 15 16 9 -3 24 -1
32 5 8 5 31 7 50 4 19 -2 47 -5 62 -5z m-1 -110 c22 0 27 -4 25 -24 -1 -21 -7
-24 -59 -30 -33 -3 -67 -1 -77 4 -10 5 -25 8 -32 5 -8 -3 -14 4 -14 20 -2 20
2 24 15 21 9 -3 23 -1 31 5 8 5 31 7 50 4 19 -2 47 -5 61 -5z m-109 -227 c26
-4 27 -5 12 -28 -16 -25 -20 -25 -134 -9 -25 3 -55 6 -68 6 -18 0 -21 3 -11
14 7 8 19 12 28 9 9 -2 23 0 31 5 15 9 97 12 142 3z"/>
</g>
</svg>
