<?xml version="1.0" standalone="no"?>
<!DOCTYPE svg PUBLIC "-//W3C//DTD SVG 20010904//EN"
 "http://www.w3.org/TR/2001/REC-SVG-20010904/DTD/svg10.dtd">
<svg version="1.0" xmlns="http://www.w3.org/2000/svg"
 width="101.000000pt" height="102.000000pt" viewBox="0 0 101.000000 102.000000"
 preserveAspectRatio="xMidYMid meet">
<metadata>
Created by potrace 1.16, written by Peter Selinger 2001-2019
</metadata>
<g transform="translate(0.000000,102.000000) scale(0.100000,-0.100000)"
fill="#000000" stroke="none">
<path d="M315 966 l0 -50 -116 1 c-64 0 -120 3 -126 6 -25 16 -54 -52 -35 -81
10 -15 14 -16 162 -8 l105 5 1 -33 c1 -53 10 -66 46 -66 43 0 52 8 56 50 2 19
5 36 6 38 2 1 40 3 85 5 72 2 81 0 81 -16 0 -9 -6 -26 -12 -37 -16 -25 1 -40
44 -40 34 0 58 24 58 60 l0 28 98 7 c60 4 107 3 124 -4 36 -14 60 9 56 53 -3
34 -1 34 -96 20 -36 -5 -60 -3 -76 6 -13 7 -43 11 -67 9 l-44 -4 0 50 0 50
-53 3 -52 3 4 -55 4 -54 -82 1 -83 2 7 31 c4 18 10 36 14 42 10 16 -26 31 -70
30 l-39 -2 0 -50z"/>
<path d="M149 749 c-21 -29 -21 -32 -5 -41 10 -5 43 -30 73 -55 l56 -46 35 38
34 37 -73 49 c-41 27 -79 49 -86 49 -6 0 -22 -14 -34 -31z"/>
<path d="M373 720 c-28 -12 -31 -60 -6 -85 17 -17 48 -17 165 1 41 7 38 19 41
-133 1 -50 -2 -95 -6 -100 -12 -11 -166 -14 -187 -3 -41 22 -73 -10 -63 -63 4
-23 9 -25 41 -20 75 9 148 13 178 8 24 -4 32 -11 33 -28 0 -12 3 -52 6 -90 2
-37 0 -79 -6 -93 -11 -31 -8 -36 23 -35 13 1 37 2 54 3 30 1 31 3 23 27 -5 14
-7 58 -4 96 3 39 6 80 6 91 1 25 -1 25 161 27 102 2 118 4 122 19 2 10 2 26 0
36 -4 15 -20 17 -122 19 -169 2 -161 0 -167 37 -3 17 -3 60 0 96 3 36 6 74 6
85 1 18 8 20 88 18 47 0 93 -2 101 -4 48 -8 67 16 55 71 l-6 29 -77 -5 c-92
-6 -317 -5 -387 1 -27 3 -60 1 -72 -5z"/>
<path d="M85 583 c-11 -21 -21 -41 -23 -45 -2 -5 1 -8 7 -8 9 0 115 -47 152
-67 8 -4 49 59 49 74 0 8 -145 83 -161 83 -3 0 -14 -17 -24 -37z"/>
<path d="M774 588 c-3 -13 -23 -48 -44 -79 l-38 -56 34 -17 c47 -22 48 -21 77
22 13 21 39 53 57 71 18 17 31 33 29 35 -10 9 -89 46 -98 46 -5 0 -13 -10 -17
-22z"/>
<path d="M404 578 l-31 -10 30 -72 c16 -39 31 -72 32 -74 8 -9 85 23 85 35 0
24 -60 133 -73 132 -6 -1 -26 -6 -43 -11z"/>
<path d="M190 360 c-17 -50 -47 -114 -66 -141 -19 -28 -34 -55 -34 -60 0 -9
89 -64 93 -58 2 2 19 45 39 94 20 50 47 114 59 143 l23 52 -34 30 c-19 16 -38
29 -41 30 -4 0 -21 -41 -39 -90z"/>
</g>
</svg>
