<?xml version="1.0" standalone="no"?>
<!DOCTYPE svg PUBLIC "-//W3C//DTD SVG 20010904//EN"
 "http://www.w3.org/TR/2001/REC-SVG-20010904/DTD/svg10.dtd">
<svg version="1.0" xmlns="http://www.w3.org/2000/svg"
 width="101.000000pt" height="102.000000pt" viewBox="0 0 101.000000 102.000000"
 preserveAspectRatio="xMidYMid meet">
<metadata>
Created by potrace 1.16, written by Peter Selinger 2001-2019
</metadata>
<g transform="translate(0.000000,102.000000) scale(0.100000,-0.100000)"
fill="#000000" stroke="none">
<path d="M284 985 c-3 -19 -4 -42 0 -50 4 -13 -9 -14 -93 -10 -55 3 -105 7
-113 10 -36 13 -63 -59 -33 -89 15 -15 33 -16 132 -12 75 4 112 2 108 -4 -12
-19 6 -69 26 -75 47 -15 100 28 70 58 -18 18 -13 25 13 20 28 -6 37 -35 22
-72 l-10 -24 -146 7 c-168 8 -200 2 -200 -41 0 -38 13 -55 41 -54 63 3 84 6
90 14 3 5 39 5 79 1 l74 -7 -40 -33 c-41 -36 -199 -118 -246 -130 -16 -3 -28
-9 -28 -13 1 -3 16 -24 35 -46 l34 -40 48 25 c26 14 76 44 111 67 67 46 77 50
69 30 -8 -22 8 -39 34 -37 13 1 88 2 167 2 143 0 147 1 143 37 -3 15 2 12 69
-35 25 -17 70 -46 101 -63 l56 -31 31 51 c18 27 32 52 32 54 0 2 -33 13 -72
25 -75 23 -121 46 -173 88 -50 41 -49 47 8 45 29 0 58 3 65 9 8 7 31 7 74 -1
66 -14 78 -8 78 34 0 40 -13 46 -96 44 -65 -1 -206 15 -167 20 7 1 9 14 6 39
l-5 37 131 0 c145 0 156 5 146 60 -6 35 -21 46 -49 35 -40 -15 -126 -22 -126
-11 0 6 -18 11 -40 11 -39 0 -48 10 -40 45 8 35 4 39 -47 39 -59 1 -67 -7 -57
-61 l6 -34 -114 3 -115 3 9 39 c10 46 1 56 -54 56 -34 0 -38 -2 -44 -35z m306
-169 c0 -35 10 -56 26 -56 8 0 14 -3 14 -7 0 -5 -27 -8 -60 -8 -63 0 -70 4
-45 25 8 7 15 16 15 21 0 13 -53 37 -70 32 -13 -4 -13 -3 0 6 8 6 39 11 68 11
48 0 52 -2 52 -24z m8 -206 c31 -44 31 -45 10 -53 -12 -4 -60 -5 -107 -2 -47
3 -96 6 -108 6 -21 1 -19 5 18 48 39 45 41 46 98 46 57 0 58 0 89 -45z"/>
<path d="M209 433 c-34 -9 -31 -87 3 -96 11 -3 31 -1 45 4 14 5 29 7 34 4 5
-3 17 -1 28 4 11 7 44 8 79 5 52 -6 60 -9 60 -28 0 -11 3 -33 7 -47 4 -15 1
-40 -8 -61 -14 -34 -16 -35 -61 -32 -25 2 -46 3 -46 1 0 -1 9 -20 20 -42 11
-22 20 -44 20 -51 0 -20 118 2 145 28 6 5 11 48 12 96 3 134 2 130 32 131 66
4 130 1 152 -8 39 -14 76 -3 82 26 2 14 2 34 -1 45 -4 18 -13 19 -121 18 -64
-1 -145 -1 -181 -1 -36 0 -108 -1 -160 -2 -52 0 -102 2 -110 5 -8 3 -22 4 -31
1z"/>
<path d="M245 284 c-28 -20 -81 -51 -119 -71 -38 -19 -65 -38 -60 -41 5 -4 23
-20 40 -35 l31 -28 103 66 c57 36 109 65 116 65 28 0 25 23 -7 50 -19 16 -39
29 -44 30 -6 0 -33 -16 -60 -36z"/>
<path d="M631 291 l-34 -28 59 -36 c32 -20 82 -54 109 -76 l50 -41 40 40 c38
38 39 40 20 54 -39 29 -189 116 -199 116 -6 0 -26 -13 -45 -29z"/>
</g>
</svg>
