<?xml version="1.0" standalone="no"?>
<!DOCTYPE svg PUBLIC "-//W3C//DTD SVG 20010904//EN"
 "http://www.w3.org/TR/2001/REC-SVG-20010904/DTD/svg10.dtd">
<svg version="1.0" xmlns="http://www.w3.org/2000/svg"
 width="101.000000pt" height="102.000000pt" viewBox="0 0 101.000000 102.000000"
 preserveAspectRatio="xMidYMid meet">
<metadata>
Created by potrace 1.16, written by Peter Selinger 2001-2019
</metadata>
<g transform="translate(0.000000,102.000000) scale(0.100000,-0.100000)"
fill="#000000" stroke="none">
<path d="M593 966 l2 -55 -91 2 -90 2 7 40 c4 22 5 42 3 45 -3 2 -27 4 -54 5
l-50 0 3 -45 2 -45 -118 2 c-65 1 -124 4 -131 6 -35 14 -60 -57 -31 -86 9 -10
21 -15 25 -12 5 3 66 7 135 9 106 4 124 2 115 -9 -7 -8 -9 -19 -5 -26 6 -8 2
-8 -13 0 -11 6 -35 11 -52 11 -37 0 -54 -34 -47 -96 l4 -42 -36 3 c-20 2 -43
5 -51 6 -44 6 -50 1 -43 -43 8 -54 7 -293 -1 -374 -7 -69 -1 -76 62 -66 27 3
31 8 26 26 -5 20 -8 309 -4 352 2 16 9 21 25 20 26 -1 26 0 26 -141 0 -126 0
-210 1 -302 0 -77 7 -86 61 -76 21 4 24 10 25 46 0 23 2 51 3 62 1 11 -1 36
-4 55 l-6 35 14 -30 c8 -16 14 -36 15 -43 0 -8 7 -11 18 -8 9 3 29 8 44 11 55
14 59 26 57 216 -1 96 1 192 4 215 6 39 5 41 -21 42 -15 1 -36 2 -47 3 -11 1
-34 -1 -51 -5 l-31 -6 8 43 c4 23 8 45 9 49 0 4 13 5 30 2 45 -10 83 3 77 25
-8 32 5 38 94 45 l86 8 -5 -31 c-2 -17 0 -31 4 -31 5 0 9 -66 9 -148 0 -143
-1 -147 -22 -150 -12 -2 -30 1 -41 7 -10 5 -28 8 -39 5 -18 -5 -20 -12 -16
-42 11 -92 13 -184 3 -266 -6 -49 -8 -91 -5 -94 7 -7 85 -5 92 2 3 2 5 20 6
39 1 28 5 35 21 36 12 1 46 3 76 6 30 2 69 2 87 -1 31 -5 32 -6 27 -43 -6 -43
7 -52 63 -44 27 4 32 10 35 41 3 21 -1 54 -9 76 -13 38 -12 111 2 232 l5 51
-32 1 c-18 0 -42 2 -53 2 -11 1 -39 -1 -62 -3 -41 -5 -42 -5 -49 28 -3 18 -1
42 5 53 6 11 8 27 5 35 -4 10 2 15 18 16 13 0 55 3 93 6 39 3 82 1 97 -4 23
-8 27 -6 31 16 11 59 -19 82 -91 68 -20 -4 -62 -8 -92 -8 l-55 -2 2 30 c1 17
5 40 9 53 4 13 2 22 -5 23 -6 1 -17 2 -23 3 -7 0 -14 8 -16 16 -2 13 18 15
143 14 158 -1 164 1 150 59 -6 23 -10 24 -76 23 -38 0 -69 -4 -69 -8 0 -4 -11
-8 -25 -8 -14 0 -25 5 -25 10 0 6 -19 10 -42 10 l-43 0 0 47 0 48 -47 3 -46 3
1 -55z m-234 -390 c0 -11 3 -59 6 -106 3 -47 2 -105 -3 -130 -7 -40 -10 -44
-37 -45 -27 0 -30 3 -37 45 -5 25 -6 83 -3 130 3 47 6 94 6 106 1 16 8 20 34
21 27 1 33 -3 34 -21z m412 -162 c29 -6 30 -10 30 -113 -1 -30 -3 -57 -7 -60
-3 -3 -45 -5 -92 -4 -140 3 -129 -1 -136 54 -4 28 -2 57 4 68 5 11 7 27 3 36
-5 14 -2 16 13 11 10 -3 25 -2 33 3 16 10 110 13 152 5z"/>
</g>
</svg>
