<?xml version="1.0" standalone="no"?>
<!DOCTYPE svg PUBLIC "-//W3C//DTD SVG 20010904//EN"
 "http://www.w3.org/TR/2001/REC-SVG-20010904/DTD/svg10.dtd">
<svg version="1.0" xmlns="http://www.w3.org/2000/svg"
 width="101.000000pt" height="102.000000pt" viewBox="0 0 101.000000 102.000000"
 preserveAspectRatio="xMidYMid meet">
<metadata>
Created by potrace 1.16, written by Peter Selinger 2001-2019
</metadata>
<g transform="translate(0.000000,102.000000) scale(0.100000,-0.100000)"
fill="#000000" stroke="none">
<path d="M603 974 l4 -45 -39 6 c-25 4 -38 3 -38 -4 0 -6 -11 -11 -25 -11 -14
0 -25 5 -25 10 0 6 -20 10 -45 10 -44 0 -44 0 -35 26 15 38 14 39 -40 39 -53
0 -68 -14 -55 -54 5 -18 0 -19 -77 -15 -46 3 -95 7 -109 10 -48 10 -78 -46
-43 -81 14 -13 34 -15 125 -11 69 3 107 1 104 -5 -12 -18 6 -47 31 -53 31 -8
65 1 63 17 -4 29 3 37 31 37 28 0 29 -2 20 -26 -6 -14 -8 -29 -6 -32 2 -4 -12
-8 -32 -8 -21 -1 -59 -3 -87 -4 -27 -1 -61 1 -75 5 -38 10 -80 -10 -80 -37 0
-33 14 -50 41 -50 38 0 95 8 106 15 6 4 38 4 70 1 58 -6 60 -8 60 -35 0 -24
-5 -30 -31 -34 -29 -6 -122 -2 -246 10 -81 8 -101 8 -107 1 -8 -8 -8 -64 0
-72 7 -8 42 -8 92 1 74 12 149 15 221 9 68 -5 72 -7 70 -30 -1 -18 -8 -25 -31
-29 -29 -5 -122 -1 -197 8 -40 6 -50 -8 -41 -57 5 -25 8 -26 52 -20 161 20
218 15 221 -19 5 -51 2 -298 -4 -321 -7 -28 9 -35 66 -28 l37 4 -6 47 c-6 40
-8 238 -3 297 2 15 9 22 24 23 11 0 63 3 114 6 60 4 92 2 92 -5 0 -5 -7 -10
-15 -10 -13 0 -15 -9 -9 -52 9 -80 10 -240 1 -269 -10 -30 7 -39 60 -32 30 5
30 5 21 45 -12 55 -1 237 17 281 4 9 3 17 -1 18 -43 4 -55 7 -61 14 -5 4 2 4
15 1 25 -8 27 -4 10 23 -9 15 -9 26 0 45 6 14 9 32 6 40 -4 12 4 14 39 11 25
-1 49 -5 55 -9 27 -17 56 23 45 63 -4 14 -14 19 -46 19 -23 0 -55 2 -72 4 -32
3 -31 0 -20 90 l4 38 -62 -5 c-147 -10 -207 -2 -207 26 0 14 -9 21 -30 25 -46
10 -25 24 36 24 52 0 54 -1 48 -24 -4 -19 -1 -26 16 -31 12 -4 32 -4 46 -1 19
5 23 11 19 29 -6 23 -6 23 87 20 161 -4 188 7 172 71 -6 24 -9 25 -52 19 -26
-3 -81 -6 -123 -7 l-76 -1 8 35 c10 42 0 50 -59 50 l-43 0 4 -46z m98 -264
c22 0 27 -4 25 -24 -1 -21 -7 -24 -59 -30 -33 -3 -67 -1 -77 4 -10 5 -25 8
-32 5 -8 -3 -14 4 -14 20 -2 20 2 24 15 21 9 -3 23 -1 31 5 8 5 31 7 50 4 19
-2 47 -5 61 -5z m0 -120 c22 0 27 -4 25 -24 -1 -21 -7 -24 -59 -30 -33 -3 -67
-1 -77 4 -10 5 -25 8 -32 5 -8 -3 -14 4 -14 20 -2 20 2 24 15 21 9 -3 23 -1
31 5 8 5 31 7 50 4 19 -2 47 -5 61 -5z"/>
<path d="M189 443 c-22 -5 -30 -39 -17 -69 8 -18 7 -31 -6 -59 -10 -20 -15
-39 -12 -42 10 -10 -33 -80 -65 -107 -17 -15 -30 -28 -28 -30 18 -13 82 -46
90 -46 16 0 69 91 85 147 8 29 17 73 20 98 2 25 8 54 14 65 14 26 13 27 -14
34 -13 3 -30 8 -38 10 -7 2 -20 2 -29 -1z"/>
<path d="M591 413 c-26 -5 -26 -10 11 -113 13 -36 23 -66 23 -67 1 -8 85 24
85 32 -1 5 -13 42 -28 80 -28 73 -36 79 -91 68z"/>
<path d="M330 396 c0 -10 -11 -51 -25 -93 -14 -42 -24 -77 -22 -79 2 -3 20 -5
41 -7 l37 -2 25 75 c14 41 30 80 35 87 13 15 2 21 -49 29 -36 6 -42 4 -42 -10z"/>
</g>
</svg>
