<?xml version="1.0" standalone="no"?>
<!DOCTYPE svg PUBLIC "-//W3C//DTD SVG 20010904//EN"
 "http://www.w3.org/TR/2001/REC-SVG-20010904/DTD/svg10.dtd">
<svg version="1.0" xmlns="http://www.w3.org/2000/svg"
 width="101.000000pt" height="102.000000pt" viewBox="0 0 101.000000 102.000000"
 preserveAspectRatio="xMidYMid meet">
<metadata>
Created by potrace 1.16, written by Peter Selinger 2001-2019
</metadata>
<g transform="translate(0.000000,102.000000) scale(0.100000,-0.100000)"
fill="#000000" stroke="none">
<path d="M315 972 l0 -47 -114 2 c-62 1 -119 4 -126 7 -6 2 -17 1 -23 -3 -16
-10 -25 -63 -13 -80 10 -16 15 -16 178 -10 50 2 90 2 88 0 -3 -2 0 -12 5 -22
9 -15 6 -17 -20 -14 -24 3 -31 0 -36 -19 -3 -13 -4 -32 -2 -42 3 -20 2 -20
-73 -11 -14 2 -30 7 -36 10 -14 9 -43 -19 -43 -41 0 -34 14 -42 61 -36 94 11
94 11 94 -18 1 -29 0 -30 -95 -17 -45 6 -65 -16 -53 -60 4 -15 12 -18 36 -16
18 1 40 6 50 10 9 4 28 4 41 1 20 -5 24 -11 22 -34 -4 -28 -6 -29 -81 -17 -77
12 -91 10 -98 -15 -12 -48 24 -81 65 -59 10 5 40 7 67 3 48 -6 50 -8 46 -35
-4 -31 4 -35 55 -30 29 3 42 19 34 42 -5 19 4 20 93 20 29 0 60 -4 70 -10 14
-8 7 -10 -29 -6 -50 4 -54 0 -50 -48 2 -25 -35 -36 -104 -31 -32 2 -93 6 -134
8 -41 3 -89 7 -107 9 -35 4 -44 -11 -36 -56 5 -27 36 -41 62 -27 9 4 47 7 86
5 38 -2 78 1 87 6 10 5 41 7 70 3 l52 -7 -30 -24 c-38 -32 -103 -62 -147 -67
-20 -3 -45 -11 -56 -18 -16 -10 -27 -10 -51 -1 -27 10 -70 8 -70 -4 0 -2 11
-19 25 -37 14 -18 25 -38 25 -44 0 -25 177 11 260 53 45 23 130 104 130 125 0
19 16 10 34 -21 33 -56 179 -132 294 -154 13 -2 32 -7 42 -10 12 -4 25 1 35
12 27 31 65 81 65 86 0 2 -19 5 -42 5 -24 0 -56 3 -73 6 -16 3 -49 8 -73 10
-50 6 -122 36 -160 67 -15 13 -19 19 -9 16 9 -4 28 -1 42 5 19 8 31 7 59 -6
27 -13 41 -14 55 -6 11 5 53 8 94 6 74 -4 75 -4 80 21 7 39 -3 65 -22 57 -28
-11 -132 -14 -151 -4 -12 7 -28 7 -45 0 -15 -6 -52 -10 -83 -10 -130 -1 -134
3 -73 67 58 60 105 161 106 228 0 14 8 21 25 22 14 1 36 4 50 5 24 3 25 1 23
-47 -5 -135 -3 -130 -51 -131 -53 -1 -58 -6 -37 -37 8 -14 15 -29 14 -33 -7
-37 37 -42 98 -11 44 23 54 41 58 99 4 56 10 95 21 140 3 15 3 43 0 62 l-6 33
-82 8 c-57 5 -84 3 -86 -4 -5 -14 -72 -14 -72 -1 0 7 -24 10 -62 8 -55 -3 -64
-6 -75 -28 -9 -17 -13 -20 -13 -8 0 14 -9 16 -63 13 -63 -4 -63 -3 -61 23 2
40 2 39 29 46 14 4 25 11 25 16 0 6 14 10 30 10 17 0 30 5 30 10 0 7 22 10 58
8 l57 -3 -2 -32 c-1 -26 3 -32 24 -37 44 -12 62 1 56 37 l-5 32 80 0 c44 0 84
-3 88 -8 15 -14 102 -8 119 10 19 18 14 71 -8 85 -17 11 -81 10 -112 -2 -14
-5 -53 -7 -86 -3 l-60 6 3 41 3 41 -52 3 -52 3 4 -50 4 -50 -87 2 c-87 2 -87
2 -86 28 0 14 4 31 8 38 12 18 1 24 -52 27 l-47 3 0 -47z m222 -305 l41 3 -3
-43 c-4 -53 -20 -95 -48 -125 -29 -32 -55 -45 -54 -29 1 46 -1 47 -65 43 -60
-4 -63 -3 -64 19 -1 17 4 23 20 24 11 1 37 2 56 4 40 2 52 14 43 42 -7 26 -24
36 -46 29 -10 -3 -30 -7 -45 -9 -22 -3 -27 1 -28 20 -2 23 0 23 62 20 54 -3
64 -1 64 13 1 15 2 15 13 1 8 -10 25 -14 54 -12z"/>
</g>
</svg>
