<?xml version="1.0" standalone="no"?>
<!DOCTYPE svg PUBLIC "-//W3C//DTD SVG 20010904//EN"
 "http://www.w3.org/TR/2001/REC-SVG-20010904/DTD/svg10.dtd">
<svg version="1.0" xmlns="http://www.w3.org/2000/svg"
 width="101.000000pt" height="101.000000pt" viewBox="0 0 101.000000 101.000000"
 preserveAspectRatio="xMidYMid meet">
<metadata>
Created by potrace 1.16, written by Peter Selinger 2001-2019
</metadata>
<g transform="translate(0.000000,101.000000) scale(0.100000,-0.100000)"
fill="#000000" stroke="none">
<path d="M338 1003 c-18 -4 -35 -63 -24 -81 4 -7 -40 -9 -119 -6 l-125 4 -6
-25 c-10 -39 3 -72 31 -79 30 -8 105 3 105 15 0 5 11 9 25 9 14 0 25 -5 25
-11 0 -7 12 -9 33 -5 l33 6 -3 -40 c-2 -35 1 -41 23 -46 13 -3 36 -3 50 0 20
5 25 12 24 34 -1 15 -2 32 -1 37 1 6 38 11 87 12 82 1 86 0 80 -20 -3 -11 1
-34 8 -52 l13 -31 -224 0 c-188 1 -225 -1 -234 -14 -6 -9 -7 -39 -3 -75 23
-198 -8 -353 -87 -433 l-42 -41 29 -11 c16 -6 39 -15 51 -21 11 -6 26 -8 32
-4 22 13 99 187 106 240 1 6 3 15 3 20 1 6 20 11 42 12 l40 2 -21 -41 c-11
-22 -19 -41 -17 -42 2 -1 25 -11 52 -21 48 -17 48 -18 25 -31 -13 -7 -53 -21
-89 -30 -36 -10 -66 -18 -68 -20 -2 -1 9 -20 25 -42 l29 -40 57 23 c31 13 78
35 106 50 l49 27 42 -23 c41 -23 41 -24 21 -38 -12 -7 -21 -16 -21 -20 0 -3
20 -17 44 -30 l43 -24 61 64 61 64 48 -47 c57 -56 114 -83 142 -68 20 10 71
104 71 129 0 9 -18 30 -39 48 l-39 32 -11 -44 c-6 -24 -15 -46 -20 -49 -11 -7
-67 38 -81 64 -7 13 3 46 41 131 28 63 57 122 66 131 15 17 13 19 -19 32 -59
25 -88 30 -89 15 -2 -36 -16 -94 -36 -147 -18 -49 -29 -42 -37 25 -2 23 -10
50 -17 61 -10 16 -10 26 -1 46 6 14 9 32 6 40 -5 12 1 14 31 9 20 -3 54 0 76
7 31 10 50 11 80 3 37 -10 40 -9 45 12 3 13 4 34 2 46 -3 22 -8 24 -65 24 -57
0 -60 1 -37 13 l25 13 -25 34 c-14 19 -26 35 -26 37 0 2 31 2 70 1 66 -2 70 0
76 23 3 13 3 35 0 48 -6 23 -6 23 -144 22 l-139 -1 3 40 3 40 -50 0 c-53 0
-65 -12 -54 -57 6 -23 5 -23 -78 -23 l-83 0 7 40 c9 51 -11 65 -73 48z m410
-185 c-33 -12 -34 -14 -8 -53 11 -16 20 -32 20 -35 0 -3 -18 -5 -39 -5 -36 -1
-39 1 -29 19 8 15 6 22 -11 35 -34 26 -6 48 64 49 l30 0 -27 -10z m-364 -180
c5 -10 7 -10 12 0 4 8 30 12 82 11 97 -1 116 -8 120 -39 1 -14 4 -38 7 -55 2
-16 7 -46 9 -65 2 -19 14 -68 25 -108 24 -83 23 -87 -44 -152 l-47 -45 22 37
21 37 -28 17 c-15 10 -30 19 -32 21 -2 1 7 24 19 50 13 26 29 68 36 92 l14 43
-28 -8 c-24 -7 -45 -8 -119 -3 -25 1 -28 11 -13 39 8 15 19 18 64 15 46 -3 55
0 59 16 13 50 -33 79 -91 58 -13 -5 -51 -7 -85 -4 -86 8 -90 8 -108 7 -19 -2
-30 -32 -22 -61 4 -17 12 -19 59 -15 l54 5 -13 -33 c-12 -29 -18 -33 -48 -30
-19 1 -44 3 -56 3 -17 1 -22 9 -28 45 -3 24 -2 52 4 63 6 11 8 27 5 35 -5 13
2 16 35 16 23 0 41 5 41 10 0 15 67 12 74 -2z m85 -267 c-21 -37 -23 -39 -53
-29 -40 14 -38 12 -26 40 9 19 19 24 56 26 l45 2 -22 -39z"/>
</g>
</svg>
