<?xml version="1.0" standalone="no"?>
<!DOCTYPE svg PUBLIC "-//W3C//DTD SVG 20010904//EN"
 "http://www.w3.org/TR/2001/REC-SVG-20010904/DTD/svg10.dtd">
<svg version="1.0" xmlns="http://www.w3.org/2000/svg"
 width="101.000000pt" height="101.000000pt" viewBox="0 0 101.000000 101.000000"
 preserveAspectRatio="xMidYMid meet">
<metadata>
Created by potrace 1.16, written by Peter Selinger 2001-2019
</metadata>
<g transform="translate(0.000000,101.000000) scale(0.100000,-0.100000)"
fill="#000000" stroke="none">
<path d="M314 966 l1 -44 -137 4 c-132 4 -137 4 -143 -17 -11 -34 3 -68 31
-75 14 -4 71 -2 125 5 136 15 127 17 123 -29 -2 -35 0 -41 22 -46 13 -3 34 -4
47 0 20 5 23 12 23 43 l-1 38 73 0 c66 0 72 -2 72 -21 0 -34 24 -58 52 -52 22
4 25 1 24 -18 -1 -28 -26 -34 -101 -29 -27 3 -58 4 -67 4 -82 -1 -155 4 -271
17 -31 4 -53 2 -62 -6 -17 -14 -21 -90 -5 -90 15 0 12 -67 -2 -73 -10 -4 -10
-8 1 -15 12 -9 12 -19 2 -69 -7 -32 -14 -69 -16 -83 -9 -76 -19 -112 -49 -174
l-34 -70 31 -38 c29 -37 32 -38 45 -21 34 43 80 163 98 253 4 21 9 100 15 276
1 25 1 25 149 25 268 -1 270 -1 271 -19 1 -9 3 -30 6 -47 2 -16 6 -61 8 -100
5 -82 10 -119 20 -135 9 -15 -20 -46 -72 -77 -27 -15 -40 -29 -36 -36 4 -7
-12 3 -35 21 -28 23 -48 31 -61 27 -45 -14 -41 -29 26 -98 68 -70 69 -70 117
-32 19 15 19 16 -10 47 l-29 31 33 -22 33 -23 35 27 c19 15 36 25 38 24 1 -2
15 -26 30 -52 30 -53 97 -107 131 -107 35 0 77 61 90 130 5 33 3 36 -35 58
-23 13 -43 22 -46 20 -4 -4 -12 -44 -13 -65 -3 -42 -75 31 -86 85 -4 21 86
205 106 217 20 13 7 33 -34 49 -23 9 -45 16 -49 16 -3 0 -11 -21 -18 -47 -6
-27 -19 -64 -29 -82 l-19 -35 -7 32 c-3 17 -4 36 0 42 3 5 -1 25 -10 44 -13
26 -14 39 -6 54 6 12 8 27 5 35 -4 10 2 15 18 16 13 0 51 3 86 5 35 3 75 1 89
-5 32 -12 35 -9 36 36 1 41 -15 57 -53 53 -20 -3 -28 4 -42 36 -10 21 -18 40
-18 42 0 2 22 4 49 4 55 0 81 17 81 53 0 41 -10 43 -160 43 l-145 -1 2 40 2
40 -49 0 c-54 0 -66 -12 -55 -57 6 -23 5 -23 -72 -23 l-78 0 4 43 3 42 -49 0
-50 0 1 -44z m493 -130 c4 -3 -8 -11 -25 -17 -36 -12 -37 -16 -17 -43 23 -31
18 -41 -20 -41 -34 0 -47 16 -25 30 6 3 10 10 10 14 0 12 -50 32 -62 25 -10
-7 -28 13 -28 31 0 11 157 12 167 1z"/>
<path d="M269 623 c-21 -5 -31 -41 -19 -64 6 -10 8 -67 7 -128 -4 -100 -2
-110 15 -114 10 -3 26 -3 36 0 16 4 19 16 20 91 1 128 2 134 19 128 8 -3 23
-1 34 4 11 6 40 8 68 4 40 -5 49 -10 50 -28 5 -76 5 -96 -1 -137 -6 -41 -5
-47 11 -52 11 -2 30 -3 43 0 23 4 23 7 24 111 1 59 4 123 7 144 4 30 2 37 -15
41 -11 3 -31 2 -44 -3 -41 -16 -174 -14 -224 3 -8 2 -22 3 -31 0z"/>
<path d="M387 523 c-12 -3 -16 -11 -12 -22 3 -10 1 -30 -5 -45 -7 -19 -7 -33
1 -48 9 -17 5 -32 -20 -83 -36 -72 -85 -112 -145 -119 -21 -3 -41 -7 -43 -10
-3 -2 13 -22 34 -44 l38 -40 35 18 c96 49 164 143 176 243 2 23 6 53 8 67 1
14 6 35 10 46 5 18 1 24 -25 33 -18 6 -32 10 -33 10 -1 -1 -9 -3 -19 -6z"/>
</g>
</svg>
