<?xml version="1.0" standalone="no"?>
<!DOCTYPE svg PUBLIC "-//W3C//DTD SVG 20010904//EN"
 "http://www.w3.org/TR/2001/REC-SVG-20010904/DTD/svg10.dtd">
<svg version="1.0" xmlns="http://www.w3.org/2000/svg"
 width="101.000000pt" height="102.000000pt" viewBox="0 0 101.000000 102.000000"
 preserveAspectRatio="xMidYMid meet">
<metadata>
Created by potrace 1.16, written by Peter Selinger 2001-2019
</metadata>
<g transform="translate(0.000000,102.000000) scale(0.100000,-0.100000)"
fill="#000000" stroke="none">
<path d="M582 965 l3 -54 -91 2 c-90 2 -90 2 -88 27 1 14 2 30 4 35 6 25 -3
31 -47 31 -57 -1 -65 -9 -57 -58 l5 -36 -110 4 c-126 5 -161 -4 -161 -40 0
-31 26 -58 54 -55 53 4 51 7 50 -127 0 -106 -3 -127 -17 -135 -15 -9 -14 -13
5 -47 12 -20 22 -38 24 -40 1 -1 36 9 78 23 42 14 93 27 114 29 20 2 45 7 54
11 15 6 17 2 12 -31 -2 -21 -7 -40 -10 -43 -5 -5 -102 -5 -172 -1 -29 2 -35
-3 -32 -32 5 -59 3 -276 -3 -304 -7 -37 5 -43 65 -36 35 4 38 6 33 32 -6 32
-13 31 145 31 273 -1 271 -1 266 -19 -10 -32 10 -47 60 -44 26 1 48 3 50 5 2
1 -1 34 -7 72 -9 65 -7 169 4 257 l5 36 -141 0 c-199 0 -191 -1 -172 28 8 13
15 25 15 28 0 6 -53 20 -70 17 -12 -2 -11 0 2 11 16 12 23 41 20 80 -2 15 -7
15 -67 -2 -36 -10 -65 -17 -65 -15 0 3 -10 1 -23 -4 -13 -5 -40 -12 -60 -15
l-36 -6 2 40 c1 27 5 39 13 36 7 -3 26 0 42 6 23 9 38 8 71 -5 32 -13 47 -15
62 -7 11 6 28 8 39 5 15 -5 21 0 26 19 12 50 6 53 -131 52 -121 -1 -126 0
-120 19 16 58 17 65 6 65 -6 0 -11 5 -11 10 0 6 20 10 44 10 38 0 43 -3 39
-19 -6 -23 22 -51 52 -51 26 0 55 24 55 46 0 9 10 14 28 14 15 0 58 3 96 7 62
5 68 4 65 -12 -3 -12 -15 -18 -42 -20 -20 -1 -40 -5 -44 -9 -12 -11 -5 -100
12 -159 4 -16 3 -38 -2 -50 -5 -12 -8 -30 -6 -39 5 -22 59 -41 83 -28 16 9
170 7 250 -3 44 -6 77 14 96 58 21 52 18 69 -18 85 -18 7 -36 15 -39 17 -3 2
-10 -13 -15 -34 -13 -53 -40 -64 -144 -58 -127 7 -134 9 -138 27 -3 13 21 24
115 54 65 20 129 38 143 39 14 1 28 3 33 4 16 3 5 26 -29 58 -35 33 -37 33
-61 18 -29 -20 -149 -66 -179 -69 -17 -2 -19 2 -16 26 5 30 7 32 55 43 24 5
28 10 23 28 -5 22 -5 22 134 22 153 -1 159 2 144 60 l-7 26 -73 -6 c-53 -5
-78 -4 -89 5 -8 7 -35 11 -65 8 -42 -2 -49 0 -44 12 10 25 15 80 7 81 -5 1
-30 3 -56 5 l-49 4 4 -55z m49 -576 l86 0 0 -29 0 -29 -86 -1 c-361 -2 -338
-4 -338 31 0 22 4 28 16 24 9 -2 23 0 31 5 8 5 57 7 110 4 52 -2 134 -4 181
-5z m0 -120 l86 0 0 -29 0 -29 -86 -1 c-361 -2 -338 -4 -338 31 0 22 4 28 16
24 9 -2 23 0 31 5 8 5 57 7 110 4 52 -2 134 -4 181 -5z"/>
</g>
</svg>
