<?xml version="1.0" standalone="no"?>
<!DOCTYPE svg PUBLIC "-//W3C//DTD SVG 20010904//EN"
 "http://www.w3.org/TR/2001/REC-SVG-20010904/DTD/svg10.dtd">
<svg version="1.0" xmlns="http://www.w3.org/2000/svg"
 width="101.000000pt" height="102.000000pt" viewBox="0 0 101.000000 102.000000"
 preserveAspectRatio="xMidYMid meet">
<metadata>
Created by potrace 1.16, written by Peter Selinger 2001-2019
</metadata>
<g transform="translate(0.000000,102.000000) scale(0.100000,-0.100000)"
fill="#000000" stroke="none">
<path d="M294 986 c-3 -20 -4 -42 -1 -50 5 -13 -8 -14 -88 -11 -52 3 -98 5
-102 6 -40 7 -62 -26 -48 -70 6 -20 12 -21 121 -15 l114 5 0 -28 c0 -15 4 -33
8 -39 10 -16 49 -26 72 -19 21 7 27 39 10 50 -5 3 -10 12 -10 19 0 15 221 17
232 2 4 -6 3 -17 -2 -26 -12 -22 1 -39 36 -46 40 -8 68 18 61 55 -6 26 -5 26
53 23 33 -1 61 2 65 8 8 13 71 13 97 -1 24 -13 26 -11 34 28 9 44 -18 68 -65
57 -20 -4 -70 -8 -111 -8 l-75 -1 0 45 0 44 -48 1 c-36 0 -48 -4 -53 -17 -3
-10 -2 -22 1 -28 3 -5 8 -19 10 -31 4 -20 1 -21 -40 -14 -29 4 -45 3 -45 -4 0
-6 -11 -11 -25 -11 -14 0 -25 5 -25 10 0 6 -17 10 -39 10 l-39 0 2 43 1 42
-47 3 c-47 3 -47 3 -54 -32z"/>
<path d="M435 810 c-3 -5 1 -23 10 -39 8 -17 15 -32 15 -35 0 -2 -19 -7 -41
-11 -30 -5 -44 -3 -51 6 -7 11 -11 11 -15 2 -6 -15 -70 -17 -75 -3 -1 5 -45
11 -96 12 -73 2 -95 0 -102 -12 -22 -34 -5 -73 31 -71 13 1 51 4 84 7 78 7
247 7 310 1 28 -3 64 -1 81 5 23 8 54 8 115 -1 46 -7 93 -12 104 -11 11 1 38
2 60 2 41 1 55 11 55 40 0 32 -29 48 -85 48 -30 0 -57 -5 -60 -10 -4 -6 -47
-9 -110 -8 l-104 3 -16 41 c-15 40 -18 42 -60 42 -24 1 -47 -3 -50 -8z"/>
<path d="M307 644 c-28 -15 -28 -16 -12 -41 9 -13 14 -28 10 -31 -10 -10 -156
-12 -175 -2 -9 5 -27 6 -39 3 -19 -5 -21 -10 -16 -59 2 -30 1 -64 -4 -77 -16
-40 2 -52 72 -49 28 2 29 3 24 51 -5 45 -3 49 16 50 12 0 56 3 97 6 41 3 93 3
115 0 39 -5 41 -7 42 -45 2 -37 0 -40 -30 -44 -32 -5 -95 -2 -173 8 -36 4 -43
2 -47 -15 -3 -11 -2 -32 3 -47 4 -15 6 -50 3 -77 -3 -49 -4 -60 -1 -117 1 -30
18 -37 66 -30 28 4 32 8 34 36 0 17 0 38 -1 46 -1 8 -4 39 -6 68 -3 44 -1 52
12 48 8 -3 23 -1 34 5 11 6 39 7 63 4 38 -6 44 -10 45 -33 4 -66 0 -143 -8
-165 -14 -37 1 -52 55 -49 26 1 49 4 52 7 3 2 0 24 -6 47 -6 24 -9 66 -7 93 3
28 5 60 6 73 1 16 6 22 16 18 8 -3 23 -1 33 4 27 14 142 1 136 -16 -3 -7 0
-26 6 -42 15 -40 -3 -64 -46 -61 -65 4 -68 2 -51 -31 8 -16 15 -36 15 -45 0
-26 38 -33 91 -16 26 9 54 22 61 29 9 9 14 47 15 115 1 56 2 112 3 125 3 34
-4 36 -62 24 -29 -7 -80 -10 -113 -7 -33 3 -70 5 -82 6 -19 1 -22 7 -20 39 1
30 5 38 22 39 11 0 49 3 85 6 36 3 93 3 127 -1 50 -4 62 -9 61 -22 -5 -69 8
-84 71 -74 33 5 33 5 26 48 -3 24 -2 52 4 62 5 10 8 27 5 38 -5 18 -15 20
-112 21 -59 1 -118 2 -130 3 l-24 2 27 28 c26 27 26 29 8 38 -10 6 -34 13 -53
17 -34 6 -36 5 -57 -38 -19 -39 -27 -46 -62 -52 -23 -4 -48 -2 -60 4 -11 6
-26 8 -35 5 -9 -3 -19 3 -26 18 -17 32 -51 68 -64 68 -6 -1 -24 -8 -39 -16z"/>
</g>
</svg>
