<?xml version="1.0" standalone="no"?>
<!DOCTYPE svg PUBLIC "-//W3C//DTD SVG 20010904//EN"
 "http://www.w3.org/TR/2001/REC-SVG-20010904/DTD/svg10.dtd">
<svg version="1.0" xmlns="http://www.w3.org/2000/svg"
 width="101.000000pt" height="101.000000pt" viewBox="0 0 101.000000 101.000000"
 preserveAspectRatio="xMidYMid meet">
<metadata>
Created by potrace 1.16, written by Peter Selinger 2001-2019
</metadata>
<g transform="translate(0.000000,101.000000) scale(0.100000,-0.100000)"
fill="#000000" stroke="none">
<path d="M304 976 c-3 -20 -4 -42 -1 -48 3 -10 -21 -12 -109 -11 -91 2 -116 0
-128 -13 -18 -17 -20 -42 -6 -64 11 -18 112 -20 118 -2 5 15 52 16 52 1 0 -7
14 -8 41 -4 29 5 39 4 35 -4 -13 -20 13 -51 42 -51 30 0 54 12 51 26 -4 22 3
29 26 29 20 0 24 -4 19 -20 -3 -11 -8 -28 -10 -38 -5 -16 -19 -17 -169 -12
l-163 6 -6 -25 c-14 -55 -8 -57 160 -51 148 4 154 4 145 -14 -12 -21 -105 -38
-124 -23 -7 5 -40 10 -74 10 -56 0 -62 -2 -67 -23 -10 -38 1 -52 37 -48 76 9
149 12 167 5 17 -6 17 -9 4 -27 -13 -18 -26 -20 -107 -19 -51 1 -111 4 -133 7
-36 5 -43 3 -47 -13 -10 -40 2 -58 37 -56 18 2 38 6 43 9 6 4 39 4 72 1 59 -7
61 -8 45 -26 -26 -28 -122 -89 -169 -107 -23 -9 -42 -20 -42 -26 -1 -5 13 -25
29 -44 35 -40 33 -41 163 56 85 64 99 68 107 28 3 -18 10 -20 60 -18 51 2 57
0 55 -17 -2 -30 -62 -35 -199 -17 -30 4 -37 2 -41 -14 -13 -49 22 -78 68 -57
13 6 36 7 52 3 28 -7 27 -7 -27 -35 -31 -16 -83 -36 -115 -45 -33 -10 -61 -18
-63 -20 -1 -1 12 -18 30 -38 l32 -35 90 45 c49 25 107 56 128 69 20 13 39 24
42 24 5 0 7 -27 8 -92 1 -51 12 -60 63 -50 23 4 26 8 19 31 -7 23 -8 50 -3
117 1 16 8 21 30 21 l29 0 -20 -32 -20 -32 95 -37 c52 -21 97 -42 101 -47 11
-19 33 -8 55 27 22 36 22 37 4 50 -11 8 -50 24 -87 36 -37 12 -68 25 -68 29 0
13 34 20 75 13 37 -5 43 -3 48 15 3 12 3 30 0 41 -4 16 -10 19 -27 13 -11 -4
-55 -7 -96 -6 -116 3 -115 3 -116 28 -2 24 0 25 84 28 49 1 53 13 14 50 -23
22 -35 26 -64 23 -20 -3 -46 -11 -57 -17 -15 -10 -25 -10 -46 -1 -15 7 -31 9
-37 5 -6 -3 -33 -7 -60 -9 l-48 -2 26 31 c30 35 40 38 167 40 79 2 90 0 99
-18 22 -42 111 -114 189 -155 l80 -42 34 39 c19 21 34 41 35 46 0 6 -15 11
-32 8 -19 -2 -123 42 -162 69 -49 33 -71 58 -43 47 10 -4 28 -1 42 5 19 8 31
7 57 -5 63 -29 115 -3 102 51 -5 15 -18 17 -127 14 -123 -3 -303 -4 -344 -1
-18 1 -21 5 -14 18 5 9 20 17 33 19 84 9 184 11 255 4 74 -7 82 -6 86 10 3 10
3 27 0 38 -4 16 -10 18 -37 12 -26 -6 -201 -7 -274 -2 -39 3 -18 25 26 28 23
2 42 7 42 13 0 14 67 11 74 -3 5 -10 7 -10 12 0 4 8 29 12 75 12 38 0 78 -6
89 -12 17 -11 22 -10 30 2 6 8 9 26 8 40 -3 22 -8 25 -48 26 -113 1 -154 5
-142 13 8 4 12 17 10 27 -2 16 4 19 42 22 25 1 54 7 65 13 14 7 41 7 85 0 67
-11 80 -6 80 29 0 39 -14 43 -149 44 -113 1 -130 3 -125 16 25 58 14 73 -52
74 l-42 1 3 -45 4 -45 -100 0 c-84 0 -98 2 -92 15 3 8 7 29 7 45 1 29 -1 30
-46 33 -47 3 -47 3 -54 -32z m293 -165 c-4 -19 -2 -31 6 -35 7 -2 -2 -5 -20
-5 -17 -1 -40 -4 -50 -8 -15 -5 -15 -2 5 19 27 29 28 38 5 38 -15 0 -16 2 -3
10 8 5 26 10 39 10 21 0 23 -3 18 -29z"/>
</g>
</svg>
