<?xml version="1.0" standalone="no"?>
<!DOCTYPE svg PUBLIC "-//W3C//DTD SVG 20010904//EN"
 "http://www.w3.org/TR/2001/REC-SVG-20010904/DTD/svg10.dtd">
<svg version="1.0" xmlns="http://www.w3.org/2000/svg"
 width="101.000000pt" height="103.000000pt" viewBox="0 0 101.000000 103.000000"
 preserveAspectRatio="xMidYMid meet">
<metadata>
Created by potrace 1.16, written by Peter Selinger 2001-2019
</metadata>
<g transform="translate(0.000000,103.000000) scale(0.100000,-0.100000)"
fill="#000000" stroke="none">
<path d="M585 1000 c-4 -16 -4 -33 -2 -37 3 -5 -44 -8 -104 -8 -104 0 -109 1
-103 20 11 36 9 38 -39 39 -41 1 -49 -2 -53 -21 -3 -12 -3 -26 -1 -30 3 -5
-44 -8 -106 -7 -78 2 -114 0 -119 -9 -13 -20 -9 -55 8 -71 20 -20 78 -21 98
-1 17 17 56 20 56 4 0 -7 12 -9 34 -5 31 6 35 4 33 -14 -2 -28 -31 -44 -56
-30 -37 19 -71 12 -82 -17 -17 -45 2 -73 51 -73 22 0 40 5 40 10 0 15 67 12
73 -2 4 -10 8 -10 15 1 7 9 21 11 51 6 57 -9 56 -35 -1 -36 -24 -1 -90 -3
-147 -5 -57 -2 -111 1 -121 6 -39 21 -75 -13 -63 -60 4 -16 11 -18 47 -14 119
16 333 11 305 -7 -35 -23 -206 -69 -269 -73 -14 -1 -39 -6 -57 -10 l-31 -7 26
-40 c14 -21 31 -39 37 -39 6 0 44 11 83 24 64 22 71 23 70 8 -4 -51 2 -60 48
-76 30 -10 52 -12 63 -7 9 5 59 7 111 5 257 -12 334 -3 369 43 29 36 26 57
-10 70 -17 7 -28 16 -25 22 3 5 -6 24 -21 43 -15 18 -27 34 -28 35 -1 1 -17
-2 -36 -7 -19 -5 -47 -12 -64 -14 -16 -3 -41 -8 -55 -11 -24 -6 -78 -13 -130
-19 -14 -2 -36 -6 -50 -10 -14 -3 7 10 45 30 39 21 84 39 100 42 17 3 105 4
196 3 159 -1 167 0 172 19 3 11 3 29 0 41 -5 18 -10 20 -37 13 -37 -9 -206 -8
-206 2 0 2 32 21 71 42 l70 39 -27 22 c-47 37 -71 37 -108 2 -17 -17 -35 -31
-39 -31 -12 0 -8 21 7 36 8 7 16 18 18 24 2 7 52 12 131 13 113 2 128 4 133
20 14 44 -22 91 -51 67 -8 -6 -55 -9 -117 -8 l-104 3 3 31 c2 34 -13 44 -69
44 -21 0 -28 -6 -33 -30z m-169 -130 c14 0 20 -31 8 -42 -12 -13 -42 6 -47 28
-3 19 -1 24 10 20 8 -3 21 -6 29 -6z m169 -15 c-1 -13 -8 -19 -18 -17 -9 2
-25 -2 -36 -7 -16 -9 -18 -8 -14 10 3 12 1 24 -5 28 -6 3 8 6 32 6 36 0 42 -3
41 -20z m3 -107 c25 -3 -6 -21 -40 -23 -26 -2 -34 1 -35 14 -1 13 5 16 30 14
18 -2 38 -4 45 -5z m192 -206 c-1 -16 -18 -33 -41 -38 -109 -23 -222 -27 -329
-10 -14 2 -34 4 -44 5 -11 0 -17 4 -14 7 8 7 65 15 138 18 67 4 204 16 207 19
6 6 83 5 83 -1z"/>
<path d="M195 357 c13 -110 13 -160 0 -197 -24 -68 -6 -91 67 -82 32 3 36 7
32 27 -5 27 -9 26 146 26 258 -1 272 -2 267 -15 -10 -27 11 -40 59 -38 26 1
49 3 51 6 2 2 -1 23 -7 47 -10 39 -8 143 3 237 l4 33 -111 -1 c-61 -1 -140 -1
-176 -1 -36 0 -108 0 -160 -1 -52 0 -114 2 -138 6 l-43 5 6 -52z m438 -27 c69
-1 87 -4 87 -15 0 -15 -1 -15 -280 -16 -143 0 -150 1 -150 18 0 9 6 12 18 9 9
-3 24 -1 32 4 8 5 57 7 110 4 52 -2 134 -4 183 -4z m-2 -91 c85 0 87 0 85 -24
-1 -27 18 -25 -276 -26 -147 0 -145 0 -146 28 -2 18 2 22 15 19 9 -3 23 -1 31
4 8 5 57 7 110 4 52 -2 134 -4 181 -5z"/>
</g>
</svg>
