<?xml version="1.0" standalone="no"?>
<!DOCTYPE svg PUBLIC "-//W3C//DTD SVG 20010904//EN"
 "http://www.w3.org/TR/2001/REC-SVG-20010904/DTD/svg10.dtd">
<svg version="1.0" xmlns="http://www.w3.org/2000/svg"
 width="101.000000pt" height="102.000000pt" viewBox="0 0 101.000000 102.000000"
 preserveAspectRatio="xMidYMid meet">
<metadata>
Created by potrace 1.16, written by Peter Selinger 2001-2019
</metadata>
<g transform="translate(0.000000,102.000000) scale(0.100000,-0.100000)"
fill="#000000" stroke="none">
<path d="M332 975 l3 -44 -133 2 c-141 2 -152 -1 -152 -48 0 -46 11 -50 155
-50 108 0 134 -3 130 -13 -3 -8 -5 -20 -5 -28 0 -10 -6 -11 -26 -4 -42 16 -49
12 -76 -42 -35 -73 -111 -171 -169 -220 l-50 -42 37 -37 c21 -21 41 -36 46
-33 5 3 26 28 47 54 33 42 39 46 40 27 3 -39 2 -219 -1 -314 -3 -101 -1 -104
59 -96 40 6 45 20 27 80 -10 34 -13 75 -9 138 2 50 5 98 4 108 -1 33 1 112 4
164 3 42 10 62 38 99 l34 46 6 -32 c4 -17 10 -34 14 -38 4 -4 36 -7 71 -7 53
0 60 -1 37 -9 -15 -5 -30 -10 -31 -12 -2 -1 8 -23 23 -48 l26 -45 -35 -6 c-19
-4 -40 -4 -47 0 -6 5 -31 10 -55 12 -36 3 -44 0 -49 -18 -4 -11 -4 -31 -1 -44
6 -22 10 -24 49 -19 23 4 85 6 137 6 186 -1 221 -1 273 1 28 1 82 -1 118 -5
66 -7 67 -7 72 18 2 15 2 35 -1 46 -4 17 -10 19 -41 12 -32 -7 -53 -8 -128 -3
-13 1 -23 3 -23 6 0 13 25 50 44 65 16 14 18 20 8 27 -15 9 29 21 78 21 31 0
43 19 34 55 -8 32 -22 35 -136 33 -53 -1 -99 0 -101 2 -2 3 -7 17 -11 33 -5
20 -3 27 8 27 8 0 16 7 20 15 4 11 20 15 55 15 27 0 53 5 56 10 8 13 48 13 62
-1 6 -6 25 -8 47 -4 26 5 38 13 42 30 16 63 -14 77 -163 73 l-98 -3 0 40 0 39
-52 1 -52 0 3 -40 3 -40 -87 0 c-87 0 -88 0 -83 24 2 14 7 29 10 34 9 15 -19
27 -66 27 l-43 0 4 -45z m264 -157 c0 -9 -11 -19 -23 -23 -22 -5 -23 -7 -8
-36 l16 -30 -111 3 c-86 2 -109 6 -105 16 3 8 5 16 5 18 0 2 9 4 19 4 26 0 53
28 46 49 -4 14 6 16 78 16 71 0 83 -2 83 -17z m86 -186 c3 -10 -3 -38 -12 -63
-15 -37 -22 -43 -41 -41 -13 2 -34 3 -46 4 -13 0 -20 5 -17 13 3 7 -6 31 -20
54 l-26 40 63 4 c34 2 69 4 78 5 9 1 19 -6 21 -16z"/>
<path d="M380 411 c-10 -4 -14 -16 -12 -36 7 -62 7 -221 0 -251 -8 -37 4 -43
65 -36 37 4 38 5 33 37 -5 29 -3 33 17 34 12 0 51 3 87 6 36 3 92 3 126 0 59
-6 61 -7 61 -36 0 -16 3 -32 7 -36 8 -8 85 -7 94 1 2 3 0 25 -7 48 -11 40 -10
114 3 218 l6 46 -98 -4 c-209 -7 -334 -4 -358 10 -5 3 -16 3 -24 -1z m321 -77
c50 -5 57 -8 57 -27 1 -12 2 -33 4 -47 3 -21 -2 -25 -42 -32 -25 -5 -83 -6
-130 -3 -139 8 -135 7 -132 35 2 14 3 35 4 48 0 16 5 21 17 18 9 -3 22 -2 30
3 17 11 113 13 192 5z"/>
</g>
</svg>
