<?xml version="1.0" standalone="no"?>
<!DOCTYPE svg PUBLIC "-//W3C//DTD SVG 20010904//EN"
 "http://www.w3.org/TR/2001/REC-SVG-20010904/DTD/svg10.dtd">
<svg version="1.0" xmlns="http://www.w3.org/2000/svg"
 width="101.000000pt" height="102.000000pt" viewBox="0 0 101.000000 102.000000"
 preserveAspectRatio="xMidYMid meet">
<metadata>
Created by potrace 1.16, written by Peter Selinger 2001-2019
</metadata>
<g transform="translate(0.000000,102.000000) scale(0.100000,-0.100000)"
fill="#000000" stroke="none">
<path d="M344 986 c-3 -19 -3 -40 1 -46 5 -8 -26 -10 -114 -6 -66 3 -124 6
-128 7 -40 7 -62 -26 -49 -69 5 -16 17 -19 70 -21 36 -1 67 3 71 9 8 13 52 13
60 -1 4 -6 22 -8 45 -4 34 6 38 4 42 -17 4 -23 3 -23 -96 -23 l-101 0 -3 -140
c-5 -282 -17 -342 -87 -441 l-35 -49 34 -17 c19 -10 38 -22 41 -28 3 -5 10
-10 14 -10 16 0 92 193 107 270 7 39 15 97 16 115 0 17 7 21 38 22 33 2 38 -1
38 -20 1 -12 4 -36 7 -53 5 -21 2 -34 -9 -43 -18 -15 -21 -47 -6 -56 20 -12 9
-26 -17 -24 -63 5 -76 -9 -66 -65 5 -25 8 -26 52 -22 25 3 56 8 68 11 13 4 31
4 40 0 16 -6 16 -8 -4 -15 l-21 -9 26 -53 c15 -29 27 -54 28 -55 1 -8 77 24
81 34 3 7 -4 28 -16 46 -26 43 -26 45 2 46 12 1 47 3 77 6 30 2 67 2 81 -1 23
-4 26 -10 25 -42 l-1 -37 -47 1 c-52 2 -55 -1 -33 -30 8 -11 15 -28 15 -38 0
-28 37 -37 84 -21 54 19 60 26 63 76 6 98 -7 89 119 87 64 -1 72 1 77 20 3 11
3 29 0 40 -5 19 -13 21 -77 20 -107 -2 -118 0 -114 19 4 17 11 18 68 6 74 -15
78 -14 90 16 7 15 18 34 26 40 8 6 14 16 14 21 0 6 -7 5 -15 -2 -8 -7 -22 -9
-32 -5 -20 8 -76 17 -110 17 -35 0 -28 16 15 34 l37 15 -25 21 -25 21 25 -8
c14 -5 34 -8 45 -6 11 1 32 2 47 3 28 1 40 23 31 58 -6 24 -82 38 -127 22 -32
-11 -168 -15 -198 -6 -10 3 -18 9 -18 13 0 9 45 12 161 12 78 -1 87 1 92 19
11 41 -7 69 -38 59 -14 -4 -179 -10 -300 -10 -95 -1 -127 2 -187 17 -21 5 -29
1 -38 -16 -24 -45 16 -93 59 -71 19 10 167 14 193 5 28 -9 21 -20 -14 -23 -37
-2 -231 -3 -264 0 -20 1 -22 7 -20 60 l1 59 58 0 c31 0 57 5 57 10 0 6 16 10
35 10 19 0 35 -4 35 -10 0 -5 18 -10 40 -10 22 0 40 5 40 10 0 15 67 12 73 -2
4 -10 8 -10 15 1 8 11 34 13 139 7 70 -4 138 -9 149 -12 25 -6 37 16 28 50 -5
22 -12 24 -110 30 -57 4 -107 5 -111 3 -5 -3 -9 5 -9 17 -2 20 2 21 56 18 33
-1 61 2 65 8 8 14 78 13 110 -2 30 -13 33 -11 41 29 8 40 -18 68 -55 57 -14
-4 -69 -8 -121 -8 l-95 -1 4 38 c2 22 -1 38 -8 38 -89 10 -109 -1 -95 -56 l7
-27 -69 7 c-38 4 -71 9 -73 11 -2 2 -3 16 -3 31 0 33 -12 43 -55 43 -29 0 -33
-4 -39 -34z m228 -155 l4 -29 -75 3 c-71 3 -76 4 -79 26 -3 23 0 24 72 26 l74
2 4 -28z m142 -291 c19 0 19 0 0 -21 -36 -39 -50 -41 -104 -14 -49 25 -67 42
-32 31 9 -3 24 -1 32 5 8 5 31 7 50 4 19 -2 44 -5 54 -5z m-239 -26 c15 -23
14 -24 -25 -44 -55 -28 -60 -26 -58 23 2 41 4 43 35 44 23 1 36 -5 48 -23z
m159 -100 c38 -14 52 -23 37 -23 -19 -1 -22 -5 -17 -25 6 -24 4 -24 -67 -30
-39 -4 -99 -4 -132 -1 -33 3 -71 5 -84 6 -33 1 -13 13 67 40 63 21 68 27 64
82 -2 17 1 17 35 -4 20 -13 64 -33 97 -45z"/>
</g>
</svg>
