<?xml version="1.0" standalone="no"?>
<!DOCTYPE svg PUBLIC "-//W3C//DTD SVG 20010904//EN"
 "http://www.w3.org/TR/2001/REC-SVG-20010904/DTD/svg10.dtd">
<svg version="1.0" xmlns="http://www.w3.org/2000/svg"
 width="101.000000pt" height="103.000000pt" viewBox="0 0 101.000000 103.000000"
 preserveAspectRatio="xMidYMid meet">
<metadata>
Created by potrace 1.16, written by Peter Selinger 2001-2019
</metadata>
<g transform="translate(0.000000,103.000000) scale(0.100000,-0.100000)"
fill="#000000" stroke="none">
<path d="M593 972 l2 -58 -101 0 c-112 1 -106 -4 -88 68 5 21 2 27 -16 33 -12
4 -37 4 -56 1 -33 -7 -34 -7 -30 -56 l4 -48 -98 3 c-54 2 -103 6 -109 9 -20
13 -51 -14 -51 -42 0 -15 4 -32 8 -37 9 -14 129 -18 137 -5 8 12 85 13 104 1
7 -5 11 -13 7 -19 -10 -17 4 -40 31 -47 39 -9 62 2 58 30 -4 40 37 33 58 -9
l16 -35 -27 -5 c-27 -5 -90 -2 -167 8 -22 2 -74 8 -117 11 -72 7 -77 6 -88
-15 -24 -45 16 -93 59 -71 18 10 113 13 154 5 27 -6 27 -7 12 -24 -15 -17 -12
-19 57 -42 l73 -25 -68 -18 c-37 -10 -67 -20 -67 -22 0 -2 7 -15 16 -28 l16
-25 -43 3 c-49 4 -48 0 -35 110 7 51 10 49 -64 50 -22 1 -25 -3 -22 -28 9
-108 10 -160 1 -182 -5 -14 -7 -28 -5 -30 6 -7 43 -5 86 2 48 9 177 11 185 3
14 -14 -16 -47 -48 -53 -37 -6 -164 3 -212 15 -34 8 -43 0 -38 -37 8 -61 8
-216 -1 -249 -7 -26 -5 -32 12 -36 11 -3 31 -4 44 -1 23 4 24 8 25 101 2 140
3 144 20 138 8 -3 24 -1 35 5 11 6 35 8 55 4 28 -5 32 -9 23 -20 -6 -8 -27
-19 -46 -25 -37 -12 -37 -14 -13 -77 7 -20 13 -21 61 -17 29 3 69 8 88 11 19
3 75 6 124 7 73 1 91 -2 99 -15 10 -16 13 -16 44 -1 18 9 33 21 33 27 0 7 -13
31 -30 53 -16 23 -30 44 -30 46 0 2 10 4 23 5 12 0 35 2 52 3 26 3 30 -1 32
-22 1 -14 5 -36 8 -50 10 -39 -10 -81 -37 -79 -50 4 -60 0 -52 -24 4 -12 8
-31 10 -42 1 -11 3 -22 3 -25 2 -14 108 8 137 27 7 5 12 28 12 53 1 25 3 77 6
115 8 105 8 116 4 121 -3 2 -38 0 -79 -6 -41 -6 -110 -8 -154 -5 -44 3 -90 6
-102 6 -19 1 -20 4 -11 24 6 13 20 23 32 24 11 0 48 3 81 6 74 6 125 -2 125
-19 0 -16 32 -26 59 -19 16 4 18 15 18 81 0 42 3 101 7 130 5 39 3 52 -6 53
-7 1 -30 3 -50 4 l-37 4 3 -38 c2 -21 6 -44 11 -50 4 -7 4 -27 1 -45 -5 -28
-10 -33 -36 -33 -25 0 -28 3 -19 18 15 29 12 33 -53 58 l-63 24 40 18 c22 10
48 18 58 18 19 1 23 27 5 34 -15 5 5 7 117 10 44 1 90 -2 101 -6 18 -6 22 -3
27 19 10 53 1 61 -79 69 -40 4 -79 3 -85 -1 -7 -4 -35 -8 -63 -10 -27 -1 -44
1 -38 5 6 4 9 18 7 32 l-5 26 125 7 c69 4 129 4 134 1 14 -8 24 31 15 58 -9
29 -24 38 -46 26 -10 -5 -64 -8 -121 -7 l-103 3 2 25 c1 14 5 37 8 51 5 23 2
27 -25 33 -75 15 -79 12 -76 -52z m-2 -149 c1 -16 1 -32 0 -37 -1 -5 3 -12 9
-16 6 -4 -3 -7 -19 -7 -17 0 -28 4 -25 9 3 5 1 14 -4 21 -5 7 -13 22 -16 35
-7 19 -4 22 23 22 27 0 31 -4 32 -27z m-26 -133 c18 0 18 -1 -3 -16 -31 -21
-57 -25 -94 -12 -30 10 -30 12 -12 25 12 9 32 12 54 9 19 -3 44 -6 55 -6z m12
-146 c54 -24 56 -27 34 -35 -12 -5 -57 -7 -100 -4 -42 3 -87 6 -101 6 -19 1
-12 8 35 29 33 16 63 29 67 29 4 1 33 -11 65 -25z m-7 -220 c21 -5 27 -9 19
-15 -10 -6 -10 -11 -1 -22 10 -12 3 -15 -43 -21 -32 -3 -64 -2 -75 4 -10 5
-26 7 -36 3 -16 -6 -16 -4 2 20 10 14 26 24 34 22 8 -3 22 0 30 5 18 12 27 12
70 4z"/>
</g>
</svg>
