<?xml version="1.0" standalone="no"?>
<!DOCTYPE svg PUBLIC "-//W3C//DTD SVG 20010904//EN"
 "http://www.w3.org/TR/2001/REC-SVG-20010904/DTD/svg10.dtd">
<svg version="1.0" xmlns="http://www.w3.org/2000/svg"
 width="101.000000pt" height="101.000000pt" viewBox="0 0 101.000000 101.000000"
 preserveAspectRatio="xMidYMid meet">
<metadata>
Created by potrace 1.16, written by Peter Selinger 2001-2019
</metadata>
<g transform="translate(0.000000,101.000000) scale(0.100000,-0.100000)"
fill="#000000" stroke="none">
<path d="M304 975 c-3 -19 -4 -44 -1 -55 3 -12 0 -20 -6 -20 -7 1 -57 5 -112
10 -55 5 -110 6 -123 3 -24 -6 -38 -40 -28 -71 6 -19 15 -20 146 -18 128 2
140 1 140 -15 0 -25 -14 -31 -36 -14 -10 8 -21 15 -24 15 -3 0 -25 -25 -49
-55 -24 -30 -69 -74 -100 -97 -31 -23 -60 -45 -65 -49 -4 -4 10 -20 33 -35
l42 -27 52 49 c50 49 120 110 166 147 12 10 26 15 31 12 16 -10 36 6 38 32 1
14 3 28 5 29 2 2 37 5 79 8 l77 5 -4 -34 c-4 -30 -2 -35 15 -35 11 0 20 -6 21
-12 0 -7 1 -49 2 -93 2 -80 2 -80 -23 -77 -14 1 -36 4 -50 5 -29 3 -29 6 -4
135 4 21 2 32 -5 32 -18 0 -25 2 -41 10 -8 4 -26 4 -39 -1 -23 -9 -24 -12 -18
-93 l6 -84 -35 1 c-21 1 -34 6 -34 14 0 13 -56 53 -75 53 -5 0 -37 -37 -70
-82 -33 -45 -88 -104 -122 -131 -35 -28 -63 -53 -63 -56 0 -3 14 -18 32 -33
l33 -27 47 46 c53 52 47 63 51 -102 1 -55 -2 -114 -6 -131 -7 -26 -5 -32 11
-37 11 -2 32 -2 46 0 l27 5 -2 182 c-1 228 -3 218 35 255 l33 32 0 -31 c0 -44
7 -47 83 -35 73 12 211 16 228 6 15 -10 15 -11 -3 -9 -53 4 -56 1 -49 -49 9
-67 10 -200 2 -208 -11 -12 -56 25 -87 71 l-29 44 16 50 c9 27 13 52 10 55 -3
3 -26 8 -52 10 -36 4 -46 1 -47 -10 -1 -8 -2 -27 -4 -42 -6 -85 -31 -147 -84
-218 l-39 -51 42 -13 c22 -6 46 -14 52 -17 6 -2 25 27 43 66 l33 71 34 -39
c46 -54 131 -89 235 -97 20 -1 41 -5 46 -8 6 -4 24 -1 42 6 24 9 36 9 51 -1
27 -16 40 -15 40 3 0 9 9 33 20 55 24 47 16 51 -54 33 -28 -8 -62 -11 -76 -8
-14 3 -43 8 -64 10 -53 6 -63 18 -49 56 7 17 9 38 6 46 -5 12 -2 15 10 10 8
-3 29 -1 45 5 22 9 39 8 74 -4 49 -17 67 -13 69 17 5 55 4 56 -78 55 -129 -2
-123 -5 -118 47 2 25 6 48 10 51 10 10 142 13 167 3 53 -20 94 8 81 57 -4 15
-17 18 -106 19 -156 2 -146 -1 -144 43 l1 38 51 -3 c27 -2 57 -5 65 -6 60 -9
86 12 73 61 -4 15 -11 18 -34 13 -16 -3 -35 -1 -41 5 -7 6 -36 9 -65 9 -49 -2
-52 -1 -46 21 5 20 -3 27 -28 24 -4 -1 -5 8 -2 18 3 13 14 20 29 20 13 0 24 5
24 10 0 13 125 13 174 -1 31 -8 41 -8 47 3 25 38 -6 95 -45 83 -12 -4 -68 -8
-126 -9 l-106 -1 3 30 c1 17 3 39 5 49 3 17 -3 20 -49 20 -60 1 -66 -6 -57
-63 l6 -38 -84 1 -83 1 1 30 c1 17 3 35 4 40 7 29 -2 35 -50 35 -48 0 -49 -1
-56 -35z"/>
</g>
</svg>
