<?xml version="1.0" standalone="no"?>
<!DOCTYPE svg PUBLIC "-//W3C//DTD SVG 20010904//EN"
 "http://www.w3.org/TR/2001/REC-SVG-20010904/DTD/svg10.dtd">
<svg version="1.0" xmlns="http://www.w3.org/2000/svg"
 width="101.000000pt" height="102.000000pt" viewBox="0 0 101.000000 102.000000"
 preserveAspectRatio="xMidYMid meet">
<metadata>
Created by potrace 1.16, written by Peter Selinger 2001-2019
</metadata>
<g transform="translate(0.000000,102.000000) scale(0.100000,-0.100000)"
fill="#000000" stroke="none">
<path d="M334 963 l1 -58 -122 3 c-100 2 -124 0 -137 -13 -20 -21 -21 -59 0
-79 20 -20 78 -21 98 -1 17 17 56 20 56 4 0 -7 20 -10 55 -7 48 3 54 1 49 -14
-9 -28 14 -58 44 -58 39 0 51 11 48 45 l-2 30 78 0 c54 1 79 -3 82 -12 3 -7
-1 -13 -9 -13 -8 0 -26 -21 -39 -47 -28 -54 -75 -114 -76 -97 0 7 -29 15 -72
19 -52 5 -67 10 -55 17 15 8 15 13 -8 58 -28 55 -28 55 -74 39 -33 -11 -37
-19 -22 -34 6 -6 17 -27 26 -48 l16 -39 -93 6 c-51 4 -98 3 -105 -1 -21 -15
-26 -59 -8 -77 18 -18 67 -21 95 -6 20 11 20 12 22 -115 2 -103 -23 -170 -93
-248 -28 -32 -50 -59 -48 -60 2 -2 21 -15 42 -31 l38 -27 19 23 c55 66 118
222 121 298 0 11 13 16 44 18 l43 1 -4 -52 c-6 -71 -6 -78 1 -107 4 -14 2 -38
-4 -53 -9 -24 -16 -28 -44 -26 -68 4 -68 4 -45 -48 11 -27 21 -49 23 -50 1 -2
24 4 52 12 79 23 87 38 89 163 1 59 4 121 7 137 17 88 15 92 -35 93 -24 0 -52
2 -63 3 -11 2 -30 -1 -42 -5 -21 -7 -23 -5 -21 36 l2 43 74 1 c40 1 70 -1 67
-4 -3 -3 13 -16 36 -30 22 -13 41 -22 43 -20 24 37 91 108 102 108 21 0 -28
-91 -78 -146 -23 -24 -39 -46 -37 -47 6 -4 75 -27 81 -27 4 0 16 15 27 33 16
26 27 33 54 34 33 1 34 0 32 -36 -1 -20 -3 -39 -4 -42 -2 -11 -112 -19 -130
-10 -40 22 -76 -11 -64 -59 4 -16 11 -18 47 -14 59 9 114 9 122 1 4 -4 -5 -25
-21 -47 -28 -41 -98 -92 -153 -111 l-32 -11 42 -38 c36 -32 46 -36 63 -27 34
18 127 110 155 154 l27 42 16 -35 c22 -45 88 -116 129 -138 l33 -18 38 35 c42
40 45 47 20 47 -30 0 -120 58 -146 92 -38 52 -39 56 -14 57 68 4 95 4 123 -3
27 -7 32 -5 37 13 13 50 1 58 -86 59 -135 1 -127 -2 -125 47 2 35 6 43 23 44
71 5 93 5 116 -2 23 -6 27 -3 32 19 2 14 2 34 0 44 -4 15 -10 17 -32 9 -14 -5
-62 -7 -106 -4 -44 3 -90 6 -103 6 -21 1 -22 2 -8 18 21 23 20 39 -1 44 -10 2
27 7 82 12 66 5 109 4 128 -3 36 -14 56 -6 63 23 14 57 13 58 -159 59 -118 1
-153 4 -142 12 8 6 15 16 15 23 0 6 7 11 15 11 11 0 13 7 9 28 l-5 27 135 0
c123 0 137 2 142 18 3 10 3 29 0 42 -5 21 -13 24 -78 29 -40 3 -98 5 -130 3
l-56 -3 4 56 5 56 -48 0 c-26 -1 -51 -5 -55 -11 -4 -5 -5 -30 -2 -55 l6 -45
-84 0 -84 0 8 49 c4 27 5 53 2 58 -3 4 -27 8 -53 8 l-48 0 1 -57z"/>
</g>
</svg>
