<?xml version="1.0" standalone="no"?>
<!DOCTYPE svg PUBLIC "-//W3C//DTD SVG 20010904//EN"
 "http://www.w3.org/TR/2001/REC-SVG-20010904/DTD/svg10.dtd">
<svg version="1.0" xmlns="http://www.w3.org/2000/svg"
 width="101.000000pt" height="101.000000pt" viewBox="0 0 101.000000 101.000000"
 preserveAspectRatio="xMidYMid meet">
<metadata>
Created by potrace 1.16, written by Peter Selinger 2001-2019
</metadata>
<g transform="translate(0.000000,101.000000) scale(0.100000,-0.100000)"
fill="#000000" stroke="none">
<path d="M304 976 c-3 -19 -4 -38 -1 -43 4 -7 -208 -9 -238 -3 -23 5 -33 -1
-39 -26 -15 -58 -9 -61 144 -60 128 1 139 0 134 -16 -9 -28 14 -58 44 -58 39
0 52 12 49 46 l-4 29 86 0 c86 0 86 0 86 -25 0 -16 6 -25 15 -25 17 0 37 -32
37 -58 0 -19 -57 -34 -78 -21 -12 7 -55 14 -93 15 -31 0 -46 -39 -27 -69 9
-16 36 -18 99 -9 23 3 42 2 42 -2 0 -15 -107 -111 -123 -111 -14 0 -16 -7 -13
-36 3 -20 7 -38 10 -41 7 -7 44 -7 101 1 28 4 82 9 120 11 39 2 85 7 102 11
28 5 37 2 63 -26 l30 -32 41 27 41 27 -53 54 c-30 30 -71 66 -91 80 l-37 26
-30 -23 c-17 -13 -31 -25 -31 -28 0 -3 15 -17 33 -30 17 -13 24 -21 14 -17
-10 3 -36 -2 -59 -11 -32 -13 -47 -14 -70 -5 -16 6 -37 8 -46 5 -9 -3 12 24
48 61 37 38 70 64 78 61 7 -3 22 0 34 6 15 8 28 7 54 -6 26 -12 38 -13 55 -4
12 6 36 8 54 5 27 -5 33 -3 38 14 3 11 3 29 0 40 -5 19 -10 20 -52 13 -25 -4
-62 -7 -81 -6 -19 2 -45 3 -57 4 -13 1 -20 5 -17 10 3 5 2 15 -3 22 -4 6 -8
18 -10 26 -2 18 -23 31 -38 24 -7 -2 -14 6 -17 19 -4 22 -2 23 45 19 27 -1 54
2 60 8 14 14 54 14 63 0 4 -6 20 -8 39 -5 19 4 36 2 40 -4 9 -15 31 -12 49 6
16 16 22 69 8 78 -4 2 -44 -1 -89 -7 -65 -8 -88 -8 -107 2 -13 7 -44 12 -69
10 -40 -4 -44 -2 -36 14 5 9 7 17 3 17 -3 0 -1 7 6 15 18 22 6 29 -50 30 l-50
0 3 -42 3 -42 -86 2 -87 2 7 25 c5 14 11 33 15 43 6 15 1 17 -48 17 -56 0 -56
0 -63 -34z"/>
<path d="M68 753 c-20 -5 -32 -36 -23 -62 7 -24 39 -33 72 -20 14 5 29 7 34 4
5 -3 18 -1 29 5 13 7 39 8 66 4 l46 -6 -32 -33 c-33 -34 -33 -37 -25 -130 2
-27 2 -94 -1 -147 -6 -93 -7 -97 -31 -103 -14 -3 -28 -3 -32 0 -13 14 -3 218
14 258 4 9 3 17 -1 18 -5 0 -28 3 -50 5 -36 4 -42 2 -47 -17 -3 -12 -2 -29 2
-38 10 -20 13 -129 5 -193 -5 -45 -8 -48 -40 -54 -34 -6 -35 -7 -30 -46 3 -23
9 -45 14 -50 6 -6 45 1 103 17 51 15 107 29 124 31 16 3 41 7 55 10 27 6 61
12 71 13 9 1 20 30 25 65 3 27 2 28 -29 23 -18 -4 -42 -9 -53 -13 -19 -5 -23
-1 -29 34 -4 24 -2 49 4 61 6 11 8 26 5 34 -4 13 4 15 45 13 53 -3 66 10 54
54 -5 19 -33 26 -86 22 -14 -2 -17 5 -14 41 3 32 16 58 55 110 29 37 52 72 52
77 0 17 -36 19 -84 5 -55 -17 -103 -19 -108 -7 -3 10 -134 22 -160 15z"/>
<path d="M739 453 c-21 -5 -31 -40 -19 -64 6 -9 8 -65 7 -124 -4 -126 5 -144
68 -150 22 -2 45 -4 50 -6 17 -4 69 13 88 29 23 20 44 95 28 100 -7 2 -25 15
-42 29 -34 29 -38 28 -44 -15 -5 -43 -9 -48 -42 -47 -26 0 -28 3 -35 55 -4 30
-5 66 -1 80 4 14 7 34 8 45 1 11 5 27 9 36 5 13 -1 19 -25 28 -18 6 -32 10
-33 10 -1 -1 -8 -3 -17 -6z"/>
<path d="M469 443 c-18 -4 -19 -34 -5 -86 5 -15 4 -33 -1 -40 -5 -6 -15 -31
-21 -53 -11 -39 -69 -105 -102 -116 -19 -6 -8 -20 34 -42 l37 -19 36 34 c45
43 74 106 78 172 5 69 11 108 20 130 5 13 2 17 -13 17 -11 0 -26 2 -34 4 -7 2
-20 2 -29 -1z"/>
<path d="M597 443 c-15 -4 -17 -12 -12 -56 14 -116 14 -169 0 -207 -22 -62 -3
-84 60 -72 25 4 26 7 19 36 -14 53 -7 219 10 274 6 18 4 22 -13 22 -10 0 -25
2 -33 4 -7 2 -21 2 -31 -1z"/>
</g>
</svg>
