<?xml version="1.0" standalone="no"?>
<!DOCTYPE svg PUBLIC "-//W3C//DTD SVG 20010904//EN"
 "http://www.w3.org/TR/2001/REC-SVG-20010904/DTD/svg10.dtd">
<svg version="1.0" xmlns="http://www.w3.org/2000/svg"
 width="101.000000pt" height="103.000000pt" viewBox="0 0 101.000000 103.000000"
 preserveAspectRatio="xMidYMid meet">
<metadata>
Created by potrace 1.16, written by Peter Selinger 2001-2019
</metadata>
<g transform="translate(0.000000,103.000000) scale(0.100000,-0.100000)"
fill="#000000" stroke="none">
<path d="M315 1000 c-4 -16 -4 -34 0 -40 6 -10 -176 -6 -220 5 -28 7 -44 -6
-51 -41 -4 -22 -1 -36 11 -48 15 -15 33 -16 139 -11 l121 5 1 -36 c1 -38 18
-57 46 -50 14 3 17 -1 12 -19 -3 -13 -3 -33 1 -44 5 -18 13 -19 78 -16 40 2
88 7 108 10 22 4 46 2 58 -4 15 -8 27 -9 41 -1 11 6 42 8 72 4 l53 -6 -2 -52
c0 -28 2 -55 7 -61 11 -14 12 -172 1 -179 -12 -8 -12 -94 0 -102 13 -8 11 -71
-2 -97 -17 -31 -27 -36 -74 -31 l-42 3 21 -54 c12 -31 29 -56 39 -58 9 -3 43
5 75 17 l57 23 -3 101 c-2 66 1 102 8 102 5 0 10 18 10 40 0 22 -4 40 -10 40
-15 0 -13 157 3 164 10 5 10 7 0 12 -15 7 -18 71 -4 76 5 2 11 31 13 66 3 72
-8 87 -57 76 -16 -4 -56 -6 -87 -5 -36 1 -58 -2 -58 -8 0 -6 -16 -11 -35 -11
-19 0 -35 5 -35 10 0 6 9 10 19 10 39 0 50 10 44 43 l-5 32 142 1 c155 0 165
4 155 59 -7 38 -22 47 -65 38 -38 -8 -200 -7 -208 2 -3 2 -5 17 -4 32 1 27 -1
28 -53 28 l-55 0 3 -37 3 -37 -86 2 -87 2 9 30 c12 45 12 45 -46 45 -52 0 -55
-1 -61 -30z m275 -138 c0 -4 -5 -13 -11 -19 -8 -8 -8 -17 1 -32 11 -22 11 -22
-74 -19 -78 2 -85 4 -89 25 -8 40 1 43 141 51 17 1 32 -2 32 -6z"/>
<path d="M218 810 l-37 -20 32 -48 c18 -27 37 -57 42 -67 10 -17 13 -16 53 4
l42 21 -43 65 c-23 36 -44 64 -47 64 -3 0 -22 -9 -42 -19z"/>
<path d="M327 627 c-20 -39 -55 -92 -76 -116 l-38 -44 -7 51 c-4 29 -3 60 2
70 5 9 8 32 8 51 -1 29 -6 36 -28 42 -54 14 -91 -18 -68 -60 5 -9 7 -59 5
-111 -6 -143 -6 -201 0 -250 3 -26 0 -67 -8 -97 -19 -70 -11 -79 65 -75 l27 2
-1 148 c0 209 -1 205 36 177 17 -13 21 -12 42 16 21 29 22 29 23 7 6 -92 5
-230 -2 -264 -9 -47 2 -55 61 -46 31 4 32 6 28 42 -4 33 -2 38 17 39 12 0 50
3 85 5 40 3 77 0 103 -9 30 -11 46 -12 61 -4 11 6 30 8 43 5 25 -6 37 17 28
55 -5 16 -11 19 -27 13 -19 -6 -55 -7 -111 -3 -14 1 -20 9 -21 26 -2 17 2 23
12 19 8 -3 26 0 40 6 18 9 33 9 54 1 24 -9 29 -8 33 8 3 11 3 28 0 39 -5 17
-12 19 -72 15 -64 -3 -66 -3 -67 20 -2 23 0 24 66 20 61 -4 68 -2 73 15 5 19
-1 60 -9 60 -2 0 -13 -6 -24 -12 -15 -10 -27 -10 -51 -1 -17 7 -36 10 -43 7
-6 -2 -12 4 -13 15 -2 20 6 22 104 22 54 0 66 10 56 47 -4 16 -14 20 -51 20
-82 1 -96 3 -82 12 11 7 -3 42 -36 88 -1 2 -20 -2 -43 -8 l-41 -11 20 -40 c18
-35 19 -40 5 -46 -9 -3 -27 -1 -41 5 -13 6 -31 9 -39 6 -21 -9 -19 10 5 31 32
29 27 36 -45 59 -17 5 -26 -6 -58 -67z m168 -117 c0 -22 -5 -25 -30 -22 -17 1
-39 3 -50 3 -13 1 -21 9 -22 21 -1 14 3 17 15 14 9 -3 24 -1 32 4 27 18 55 7
55 -20z m-1 -105 c0 -27 -3 -30 -30 -27 -16 1 -38 3 -49 3 -14 1 -20 9 -21 26
-2 18 2 22 15 19 9 -3 23 -1 31 4 8 6 24 9 35 8 15 -2 20 -10 19 -33z m0 -110
c0 -27 -3 -30 -30 -27 -16 1 -38 3 -49 3 -14 1 -20 9 -21 26 -2 18 2 22 15 19
9 -3 23 -1 31 4 8 6 24 9 35 8 15 -2 20 -10 19 -33z"/>
</g>
</svg>
