<?xml version="1.0" standalone="no"?>
<!DOCTYPE svg PUBLIC "-//W3C//DTD SVG 20010904//EN"
 "http://www.w3.org/TR/2001/REC-SVG-20010904/DTD/svg10.dtd">
<svg version="1.0" xmlns="http://www.w3.org/2000/svg"
 width="101.000000pt" height="102.000000pt" viewBox="0 0 101.000000 102.000000"
 preserveAspectRatio="xMidYMid meet">
<metadata>
Created by potrace 1.16, written by Peter Selinger 2001-2019
</metadata>
<g transform="translate(0.000000,102.000000) scale(0.100000,-0.100000)"
fill="#000000" stroke="none">
<path d="M302 974 l3 -45 -105 7 c-126 7 -160 -2 -160 -43 0 -48 7 -50 137
-49 120 1 122 1 117 -21 -3 -11 -1 -30 5 -41 10 -18 7 -21 -17 -26 -15 -2 -43
-2 -62 0 -19 3 -60 7 -91 9 l-57 2 2 -88 c1 -98 -2 -94 70 -89 32 2 38 -1 33
-14 -13 -33 2 -46 46 -40 62 9 168 9 203 0 29 -7 32 -6 36 19 11 58 7 60 -115
62 -62 1 -123 2 -136 3 -13 1 -27 -4 -32 -11 -5 -9 -7 2 -6 27 1 48 -9 45 147
45 257 -1 268 -2 274 -18 3 -8 4 -19 1 -24 -3 -5 -1 -18 5 -29 6 -12 8 -40 4
-69 -6 -50 -11 -53 -59 -41 -23 5 -45 -1 -45 -12 0 -10 -43 -13 -188 -11 -103
1 -197 2 -210 3 -30 3 -35 -4 -35 -40 0 -44 0 -45 93 -38 33 3 34 1 36 -32 4
-58 -15 -109 -58 -156 -22 -24 -55 -49 -74 -56 -19 -6 -34 -14 -33 -18 0 -3
22 -19 48 -37 l49 -32 40 35 c22 19 49 49 60 67 33 53 64 158 64 213 0 16 6
21 23 20 26 -1 26 2 28 -155 2 -111 3 -113 28 -127 31 -16 86 -28 114 -25 11
2 101 3 200 4 197 2 220 8 249 66 35 67 35 66 -68 116 -53 25 -96 47 -96 49 0
2 11 23 24 47 14 24 32 60 40 80 l15 35 -32 2 c-18 0 -41 2 -52 3 -11 1 -33
-1 -50 -4 -27 -6 -30 -4 -31 19 -2 18 2 24 12 20 8 -3 25 0 39 6 19 9 34 8 65
-2 22 -7 43 -11 46 -7 3 3 6 21 7 41 1 25 5 35 16 34 47 -3 48 -1 48 81 l0 78
-65 1 c-36 1 -71 -3 -76 -7 -6 -5 -27 -8 -46 -6 -19 1 -51 4 -70 5 -36 2 -34
4 14 15 22 5 26 9 17 18 -6 6 -11 20 -11 32 0 19 6 20 135 20 133 0 136 1 142
23 3 12 3 32 0 45 -6 21 -10 22 -134 22 l-128 0 0 40 0 40 -44 3 c-51 4 -64
-9 -56 -53 l5 -30 -103 0 c-112 0 -114 2 -92 58 4 9 3 18 -1 18 -5 1 -31 3
-57 5 l-49 3 4 -45z m166 -133 c20 -1 3 -21 -18 -21 -16 0 -17 -4 -10 -28 7
-27 6 -28 -16 -24 -13 2 -24 9 -25 16 0 6 -1 22 -3 36 -2 26 -4 25 72 21z
m123 -13 c1 -13 1 -29 0 -35 -1 -7 4 -14 11 -14 7 -1 0 -4 -17 -8 -27 -6 -31
-4 -43 28 -10 28 -10 36 0 43 25 15 48 9 49 -14z m214 -146 c6 -4 11 -19 11
-33 2 -37 -35 -57 -77 -42 -17 7 -36 10 -43 7 -9 -3 -13 3 -11 18 1 13 3 29 4
36 0 8 8 11 19 8 9 -3 24 -1 32 4 18 11 51 13 65 2z m-112 -259 c27 -5 27 -5
11 -33 l-17 -28 -41 17 c-78 33 -90 34 -114 1 -26 -35 -27 -40 -7 -40 9 0 32
-7 53 -16 36 -15 36 -16 14 -25 -13 -5 -36 -11 -50 -14 -69 -13 -87 -16 -88
-18 -1 -1 13 -19 31 -39 l32 -38 55 19 c29 10 72 28 94 39 l40 20 50 -29 c27
-16 52 -29 56 -29 3 0 15 15 27 33 22 34 28 24 10 -17 -23 -50 -164 -67 -324
-41 -22 4 -50 7 -63 7 -31 0 -41 31 -36 104 2 32 4 69 5 82 1 17 5 21 19 17
10 -3 25 1 34 10 9 9 24 14 33 11 10 -3 25 -1 33 4 15 9 97 12 143 3z"/>
</g>
</svg>
