<?xml version="1.0" standalone="no"?>
<!DOCTYPE svg PUBLIC "-//W3C//DTD SVG 20010904//EN"
 "http://www.w3.org/TR/2001/REC-SVG-20010904/DTD/svg10.dtd">
<svg version="1.0" xmlns="http://www.w3.org/2000/svg"
 width="101.000000pt" height="102.000000pt" viewBox="0 0 101.000000 102.000000"
 preserveAspectRatio="xMidYMid meet">
<metadata>
Created by potrace 1.16, written by Peter Selinger 2001-2019
</metadata>
<g transform="translate(0.000000,102.000000) scale(0.100000,-0.100000)"
fill="#000000" stroke="none">
<path d="M314 982 l1 -39 -137 3 -137 3 -6 -29 c-14 -64 -9 -67 144 -66 l139
1 -1 -25 c-2 -21 -8 -26 -42 -31 -22 -4 -50 -2 -63 2 -29 11 -99 12 -105 2 -2
-5 4 -27 15 -50 18 -41 21 -43 62 -43 33 0 48 -6 70 -29 l27 -28 -56 -7 c-31
-3 -61 -3 -67 0 -6 4 -30 9 -53 10 -47 4 -57 -9 -48 -60 5 -26 7 -26 57 -21
99 12 167 14 188 6 18 -7 12 -14 -54 -57 -40 -28 -106 -61 -146 -73 -40 -13
-72 -25 -72 -28 0 -2 14 -22 31 -43 l32 -39 47 24 48 24 1 -22 c5 -78 3 -208
-3 -238 -7 -31 -5 -37 11 -41 10 -3 33 -3 51 0 27 4 31 7 26 27 -7 27 -11 26
146 26 322 -1 291 2 284 -25 -6 -27 13 -36 63 -29 40 6 46 22 28 74 -10 28
-13 64 -10 112 3 40 6 82 6 94 l1 21 45 -19 c25 -10 49 -19 53 -19 12 0 73 90
66 97 -3 4 -18 7 -33 9 -92 9 -187 46 -248 97 l-30 25 25 1 c103 6 209 4 231
-2 23 -8 27 -5 31 18 7 34 0 62 -17 68 -6 3 -34 -2 -60 -11 -37 -12 -54 -13
-77 -4 -16 6 -36 8 -44 5 -22 -8 -17 15 6 27 25 14 25 25 0 36 -15 7 -3 9 44
9 36 0 68 3 72 7 13 13 -47 94 -72 96 -13 1 -26 -3 -29 -8 -3 -5 -12 -7 -20
-4 -8 3 -29 1 -47 -4 -21 -7 -48 -7 -73 -2 l-40 9 47 -3 c44 -3 48 -2 44 18
-4 19 0 21 46 17 28 -2 55 2 61 8 14 14 54 14 62 1 8 -13 107 -1 117 14 10 14
10 64 1 69 -5 2 -41 -1 -80 -6 -56 -8 -78 -8 -97 2 -13 7 -44 12 -68 10 l-45
-4 8 33 c4 21 3 32 -5 33 -69 6 -97 3 -102 -13 -3 -10 -3 -27 1 -37 6 -18 1
-19 -78 -18 -89 2 -90 3 -72 48 7 19 -5 25 -61 28 l-41 2 1 -39z m253 -148 c1
-30 -47 -43 -127 -34 -36 4 -57 8 -46 8 13 2 17 8 14 25 -4 21 -2 22 78 22 76
0 81 -1 81 -21z m93 -114 c0 -3 -9 -20 -20 -37 -17 -29 -24 -32 -62 -31 -41 2
-43 4 -44 35 0 21 5 33 15 35 25 5 111 3 111 -2z m-218 -36 c4 -33 4 -33 -35
-31 -30 2 -42 9 -57 32 l-19 30 54 1 c53 1 53 0 57 -32z m4 -159 c-1 -30 -5
-58 -9 -62 -4 -4 -27 -6 -50 -6 -95 4 -93 0 -25 64 35 32 68 58 75 59 7 0 10
-19 9 -55z m129 23 c15 -17 42 -44 62 -59 l35 -28 -27 -7 c-15 -4 -37 -2 -51
4 -13 7 -30 9 -37 6 -21 -8 -41 39 -28 64 6 11 8 28 5 36 -10 27 13 18 41 -16z
m-149 -158 c16 0 21 -6 21 -29 0 -27 -3 -29 -54 -35 -30 -4 -62 -2 -73 4 -10
5 -25 8 -33 5 -10 -4 -14 3 -14 25 0 23 4 29 16 25 9 -2 23 0 31 6 8 5 31 7
50 4 19 -2 44 -5 56 -5z m260 0 c16 0 21 -6 21 -29 0 -27 -3 -29 -54 -35 -30
-4 -62 -2 -73 4 -10 5 -25 8 -33 5 -10 -4 -14 3 -14 25 0 23 4 29 16 25 9 -2
23 0 31 6 8 5 31 7 50 4 19 -2 44 -5 56 -5z m-260 -120 c16 0 20 -7 21 -34 1
-33 1 -34 -53 -40 -31 -4 -63 -2 -74 4 -10 5 -25 7 -33 4 -12 -4 -15 3 -14 30
1 28 5 35 16 31 9 -2 23 0 31 6 8 5 31 7 50 4 19 -2 44 -5 56 -5z m260 0 c16
0 20 -7 21 -34 1 -33 1 -34 -53 -40 -31 -4 -63 -2 -74 4 -10 5 -25 7 -33 4
-12 -4 -15 3 -14 30 1 28 5 35 16 31 9 -2 23 0 31 6 8 5 31 7 50 4 19 -2 44
-5 56 -5z"/>
</g>
</svg>
