<?xml version="1.0" standalone="no"?>
<!DOCTYPE svg PUBLIC "-//W3C//DTD SVG 20010904//EN"
 "http://www.w3.org/TR/2001/REC-SVG-20010904/DTD/svg10.dtd">
<svg version="1.0" xmlns="http://www.w3.org/2000/svg"
 width="101.000000pt" height="102.000000pt" viewBox="0 0 101.000000 102.000000"
 preserveAspectRatio="xMidYMid meet">
<metadata>
Created by potrace 1.16, written by Peter Selinger 2001-2019
</metadata>
<g transform="translate(0.000000,102.000000) scale(0.100000,-0.100000)"
fill="#000000" stroke="none">
<path d="M314 986 c-3 -19 -3 -40 1 -46 5 -8 -26 -9 -110 -6 -64 3 -120 8
-124 10 -14 9 -31 -10 -37 -40 -8 -43 18 -68 60 -59 17 4 70 7 118 8 86 2 87
2 92 -25 3 -14 13 -28 23 -31 10 -3 -7 -6 -37 -7 -56 -3 -64 -3 -112 7 -15 3
-39 2 -53 -1 -24 -6 -25 -10 -25 -76 0 -40 4 -70 10 -70 6 0 10 -16 10 -35 0
-19 -5 -35 -10 -35 -6 0 -10 -30 -8 -77 3 -136 -15 -210 -76 -299 -28 -41 -28
-40 26 -73 l37 -22 21 33 c32 51 73 187 76 253 2 33 6 107 9 165 2 58 5 114 6
125 1 17 9 20 58 21 56 1 56 1 24 -13 -39 -15 -39 -17 -13 -50 26 -33 25 -44
-2 -42 -43 4 -56 -1 -61 -22 -12 -44 23 -68 68 -47 13 6 35 8 48 4 24 -6 25
-9 21 -63 -7 -87 -7 -89 -26 -90 -16 -2 -18 5 -13 56 5 53 3 59 -15 64 -49 13
-81 -24 -59 -66 10 -17 7 -62 -7 -108 -6 -21 27 -30 68 -18 18 5 34 7 36 4 3
-3 -7 -23 -22 -45 -28 -43 -96 -97 -133 -106 -22 -6 -33 -24 -14 -24 4 0 25
-12 46 -26 l38 -25 46 39 c52 44 110 123 118 163 4 21 11 26 29 25 13 0 22 -6
20 -12 -10 -26 16 -39 72 -36 25 2 30 30 10 62 -10 15 -10 27 -1 51 7 17 9 38
6 46 -4 10 -2 14 4 10 23 -14 64 -15 70 -1 3 7 9 11 15 8 5 -3 6 -13 3 -23 -4
-9 -8 -31 -11 -50 -10 -76 -95 -172 -180 -203 -39 -14 -43 -24 -14 -33 11 -3
28 -17 38 -30 l19 -24 45 28 c54 34 102 90 131 154 12 26 24 47 28 47 3 0 14
-19 24 -42 10 -23 39 -63 65 -89 48 -48 110 -87 110 -70 0 6 16 26 35 45 l35
35 -61 27 c-108 49 -173 144 -164 242 3 28 0 42 -8 43 -7 1 -19 3 -27 4 -8 1
-23 3 -32 4 -25 2 -11 29 15 29 12 1 36 4 52 7 48 9 59 -5 39 -48 -10 -20 -15
-39 -12 -42 3 -4 24 -8 46 -10 31 -3 42 0 47 13 20 48 54 156 51 159 -2 2 -35
-1 -74 -7 -50 -8 -77 -8 -91 -1 -11 6 -27 8 -35 5 -21 -8 -20 1 1 37 16 26 16
31 3 39 -12 8 -12 10 5 11 28 2 38 4 56 13 9 4 41 3 70 -2 62 -12 73 -4 64 43
-9 50 -20 51 -168 25 -38 -6 -81 -9 -95 -5 l-27 7 23 11 c24 11 28 22 12 32
-5 3 -10 12 -10 18 0 9 37 12 145 11 131 -2 145 0 150 16 9 28 -5 69 -25 75
-9 3 -28 1 -41 -4 -43 -16 -129 -24 -129 -12 0 6 -18 11 -41 11 l-41 0 4 37 3
37 -52 1 -52 0 2 -42 3 -41 -81 1 -81 2 3 43 4 42 -50 0 c-49 0 -50 -1 -57
-34z m256 -141 c-8 -10 -8 -19 0 -34 10 -19 8 -21 -22 -22 -18 0 -61 -1 -96
-2 -51 -2 -59 0 -46 10 11 8 14 20 11 35 -6 23 -4 23 79 25 71 1 83 -1 74 -12z
m-136 -157 c-3 -13 -13 -39 -21 -58 -15 -34 -15 -35 -24 -11 -5 13 -18 36 -29
51 l-20 29 37 4 c21 2 44 4 51 5 9 1 11 -5 6 -20z m191 -5 c-11 -66 -18 -91
-37 -135 -19 -44 -21 -46 -48 -38 -16 5 -38 6 -49 3 -16 -4 -18 -11 -15 -41
11 -83 11 -84 -18 -87 -24 -3 -27 1 -33 35 -4 22 -2 47 4 59 6 11 8 26 5 34
-6 16 3 18 88 19 49 1 61 11 51 47 -5 20 -27 27 -75 23 -25 -2 -22 7 8 39 27
28 25 48 -4 50 -22 2 53 16 96 18 30 1 32 -1 27 -26z"/>
</g>
</svg>
