<?xml version="1.0" standalone="no"?>
<!DOCTYPE svg PUBLIC "-//W3C//DTD SVG 20010904//EN"
 "http://www.w3.org/TR/2001/REC-SVG-20010904/DTD/svg10.dtd">
<svg version="1.0" xmlns="http://www.w3.org/2000/svg"
 width="101.000000pt" height="102.000000pt" viewBox="0 0 101.000000 102.000000"
 preserveAspectRatio="xMidYMid meet">
<metadata>
Created by potrace 1.16, written by Peter Selinger 2001-2019
</metadata>
<g transform="translate(0.000000,102.000000) scale(0.100000,-0.100000)"
fill="#000000" stroke="none">
<path d="M324 972 l4 -49 -133 3 -133 2 -7 -25 c-16 -64 6 -73 172 -70 97 2
102 1 97 -18 -5 -23 4 -39 26 -48 8 -3 -34 -5 -95 -4 l-110 2 -3 -62 c-2 -39
1 -63 8 -63 5 0 10 -16 10 -35 0 -19 -5 -35 -11 -35 -7 0 -9 -27 -7 -77 l3
-78 -25 3 c-42 5 -71 4 -77 -2 -8 -8 -8 -64 0 -72 7 -8 38 -8 104 0 l53 6 -21
-34 c-23 -40 -58 -79 -83 -93 -17 -9 -17 -12 3 -51 23 -45 27 -47 66 -32 14 5
43 12 63 16 20 3 46 7 57 10 11 2 31 6 45 9 14 2 35 7 46 10 16 5 26 1 37 -15
l15 -22 31 23 c17 12 31 28 31 33 0 14 -108 126 -121 126 -5 0 -21 -7 -35 -16
l-25 -17 20 -21 c18 -20 19 -22 3 -22 -20 -1 -64 -10 -92 -19 -27 -8 -25 -3
12 54 35 52 35 52 141 51 44 0 57 3 57 15 0 8 5 15 10 15 6 0 10 -6 10 -14 0
-17 38 -28 59 -16 9 5 59 7 111 5 52 -3 122 -4 155 -4 154 0 153 0 158 20 11
42 -2 56 -51 57 -91 1 -89 0 -97 48 -3 24 -2 52 4 63 6 11 8 26 5 34 -5 15 -2
16 73 19 34 1 46 21 36 58 -5 18 -12 20 -59 16 -52 -4 -53 -4 -43 16 14 26 5
98 -13 109 -7 5 -25 9 -41 9 -34 0 -50 -35 -45 -97 l3 -42 -42 1 -42 2 5 41
c3 22 5 50 5 63 -1 12 4 22 10 22 6 0 8 11 5 28 l-7 27 52 -4 c29 -2 56 2 62
8 13 13 50 15 61 4 4 -5 30 -8 57 -8 54 0 65 13 57 66 -3 26 -5 26 -96 13 -36
-5 -60 -3 -76 6 -13 7 -45 11 -70 9 -38 -4 -45 -2 -40 11 4 8 9 29 11 45 l5
30 -55 0 -55 0 4 -46 3 -47 -77 2 -77 1 2 41 c2 39 1 42 -29 48 -17 3 -41 6
-54 6 -22 0 -23 -3 -20 -48z m201 -141 c36 -1 42 -5 52 -31 6 -16 8 -29 5 -28
-26 3 -31 -6 -29 -56 l2 -55 -37 2 c-45 2 -51 -4 -51 -43 0 -39 6 -45 54 -43
33 2 40 -1 35 -13 -3 -9 -1 -24 5 -35 6 -12 7 -39 3 -65 -6 -41 -9 -45 -33
-43 -45 3 -61 -1 -61 -16 0 -8 -4 -15 -10 -15 -5 0 -10 6 -10 14 0 21 -60 26
-99 8 -27 -12 -40 -13 -63 -4 -16 6 -35 9 -42 6 -8 -3 -13 5 -13 24 0 34 -3
33 122 34 83 1 99 9 88 43 -9 31 -21 33 -76 17 -39 -11 -58 -12 -80 -4 -16 6
-34 9 -40 6 -7 -2 -13 6 -13 20 -2 27 -2 27 121 28 83 1 99 9 88 43 -9 31 -21
33 -76 17 -39 -11 -58 -12 -80 -4 -16 6 -34 9 -40 6 -7 -2 -13 6 -13 20 -2 27
-4 27 138 29 105 1 114 6 102 53 -5 18 -12 24 -27 22 -18 -3 -22 2 -22 32 0
33 2 35 30 33 17 -1 48 -2 70 -2z m201 -267 c-3 -8 -1 -24 5 -35 6 -11 7 -39
3 -64 l-6 -44 -43 1 c-43 2 -43 3 -50 45 -3 24 -1 51 4 62 6 11 9 26 6 33 -4
10 7 14 41 16 38 1 45 -1 40 -14z"/>
<path d="M557 272 c-20 -32 -56 -77 -80 -101 l-45 -44 46 -23 c25 -13 46 -22
47 -21 0 1 36 46 79 100 43 55 74 103 70 107 -5 4 -25 15 -46 23 l-36 15 -35
-56z"/>
<path d="M747 303 l-37 -26 48 -51 c27 -28 61 -70 77 -94 15 -23 31 -42 34
-42 13 0 81 51 81 61 0 5 -37 48 -82 94 l-83 84 -38 -26z"/>
</g>
</svg>
