<?xml version="1.0" standalone="no"?>
<!DOCTYPE svg PUBLIC "-//W3C//DTD SVG 20010904//EN"
 "http://www.w3.org/TR/2001/REC-SVG-20010904/DTD/svg10.dtd">
<svg version="1.0" xmlns="http://www.w3.org/2000/svg"
 width="101.000000pt" height="102.000000pt" viewBox="0 0 101.000000 102.000000"
 preserveAspectRatio="xMidYMid meet">
<metadata>
Created by potrace 1.16, written by Peter Selinger 2001-2019
</metadata>
<g transform="translate(0.000000,102.000000) scale(0.100000,-0.100000)"
fill="#000000" stroke="none">
<path d="M304 985 c-3 -19 -4 -41 -1 -48 4 -11 -10 -13 -69 -11 -40 2 -89 6
-109 10 -69 13 -108 -20 -90 -77 6 -17 15 -18 138 -15 130 5 132 4 132 -17 0
-20 -4 -22 -53 -19 -30 2 -68 1 -86 -2 l-33 -6 1 -89 1 -89 35 5 c82 10 183
13 254 5 75 -8 77 -8 83 16 3 13 1 34 -5 46 -6 14 -6 28 0 39 10 19 2 58 -16
69 -6 4 -26 8 -43 8 -23 0 -33 5 -33 15 0 10 10 15 33 15 17 0 56 3 85 6 51 7
52 6 52 -19 0 -14 -4 -28 -9 -31 -9 -6 -7 -62 3 -148 l6 -47 -45 -7 c-25 -3
-58 -3 -73 1 -15 4 -54 6 -87 6 -138 -4 -253 -3 -296 3 -51 7 -62 -5 -52 -58
5 -24 8 -25 58 -21 50 5 53 4 54 -17 0 -13 3 -57 6 -98 3 -41 3 -94 0 -118 -6
-41 -8 -43 -38 -41 -67 4 -67 5 -49 -51 8 -27 19 -47 22 -45 7 4 35 9 115 20
17 3 48 7 70 10 22 4 63 7 92 9 l52 2 -5 -34 c-2 -19 -6 -37 -8 -41 -11 -17
15 -35 50 -34 40 1 57 18 48 46 -5 16 -2 18 18 12 12 -4 36 -16 52 -27 l28
-20 53 52 54 53 55 -50 c89 -82 127 -78 167 15 26 59 23 72 -21 110 l-38 32
-11 -45 c-6 -25 -17 -45 -24 -45 -7 0 -26 14 -42 30 l-29 30 18 33 c11 17 36
58 57 91 22 32 39 62 39 66 0 9 -89 46 -93 39 -2 -2 -16 -34 -31 -71 -16 -38
-32 -68 -36 -68 -4 0 -11 15 -14 33 -10 53 -14 71 -21 98 -8 31 -17 28 130 32
50 1 102 -2 116 -6 23 -8 27 -5 31 18 3 15 3 36 0 47 -4 16 -9 18 -31 11 -22
-6 -152 -8 -238 -2 -22 1 -22 3 -16 90 5 80 4 89 -11 89 -16 0 -16 1 -2 16 9
8 16 23 16 32 0 15 15 17 130 17 142 0 148 3 134 59 -8 33 -43 43 -95 27 -24
-7 -63 -9 -104 -5 -68 7 -71 10 -66 67 2 18 0 18 -61 21 -43 1 -51 -11 -42
-60 l6 -33 -84 2 -83 2 3 41 c3 36 1 42 -20 47 -12 4 -35 7 -50 7 -23 0 -28
-5 -34 -35z m111 -270 c0 -29 -23 -36 -100 -29 -27 2 -59 4 -70 5 -13 1 -21 9
-22 20 -2 19 -5 18 157 27 31 2 35 -1 35 -23z m-34 -185 c22 0 27 -4 25 -24
-1 -21 -7 -24 -59 -30 -33 -3 -67 -1 -77 4 -10 5 -25 8 -32 5 -8 -3 -14 4 -14
20 -2 20 2 24 15 21 9 -3 23 -1 31 5 8 5 31 7 50 4 19 -2 47 -5 61 -5z m206
-15 c2 -11 5 -33 8 -50 3 -16 8 -39 10 -50 2 -11 13 -47 24 -80 l21 -59 -42
-37 c-24 -21 -59 -46 -78 -57 l-35 -20 -1 22 c-1 19 4 23 27 23 36 0 37 0 45
51 l7 43 -33 -6 c-18 -3 -37 -8 -41 -11 -13 -8 -20 56 -14 131 3 39 6 80 6 93
1 16 6 21 18 18 9 -3 23 -1 31 4 22 15 45 7 47 -15z m-206 -85 c22 0 27 -4 25
-24 -1 -21 -7 -24 -59 -30 -33 -3 -67 -1 -77 4 -10 5 -25 8 -32 5 -8 -3 -14 4
-14 20 -2 20 2 24 15 21 9 -3 23 -1 31 5 8 5 31 7 50 4 19 -2 47 -5 61 -5z m0
-100 c22 0 26 -4 26 -30 0 -24 -6 -32 -24 -36 -14 -4 -36 -1 -49 5 -14 6 -29
9 -34 6 -4 -3 -24 -7 -43 -9 -34 -5 -35 -4 -34 30 1 26 5 33 16 29 9 -2 23 0
31 6 8 5 31 7 50 4 19 -2 47 -5 61 -5z"/>
<path d="M726 766 l-29 -24 53 -61 52 -60 39 31 40 32 -53 53 c-29 29 -57 53
-63 53 -5 -1 -23 -11 -39 -24z"/>
</g>
</svg>
