<?xml version="1.0" standalone="no"?>
<!DOCTYPE svg PUBLIC "-//W3C//DTD SVG 20010904//EN"
 "http://www.w3.org/TR/2001/REC-SVG-20010904/DTD/svg10.dtd">
<svg version="1.0" xmlns="http://www.w3.org/2000/svg"
 width="101.000000pt" height="103.000000pt" viewBox="0 0 101.000000 103.000000"
 preserveAspectRatio="xMidYMid meet">
<metadata>
Created by potrace 1.16, written by Peter Selinger 2001-2019
</metadata>
<g transform="translate(0.000000,103.000000) scale(0.100000,-0.100000)"
fill="#000000" stroke="none">
<path d="M339 1023 c-12 -3 -16 -15 -15 -46 l1 -42 -140 0 -140 0 -3 -31 c-4
-44 19 -64 74 -64 24 0 52 5 62 11 12 8 41 9 84 5 l66 -7 -5 -30 c-5 -35 11
-44 63 -34 31 5 35 10 32 30 -5 22 -2 23 79 30 47 4 87 5 90 2 11 -12 -10 -47
-28 -47 -16 0 -23 -13 -21 -40 0 -3 -54 -5 -121 -4 -109 1 -123 -1 -132 -17
-10 -17 -15 -16 -65 21 -30 22 -58 40 -63 40 -8 0 -66 -61 -67 -71 0 -3 11
-11 24 -17 14 -6 42 -27 64 -46 l39 -35 33 34 c29 30 34 32 48 19 12 -13 36
-15 134 -10 96 5 118 3 118 -8 0 -16 -96 -32 -113 -18 -14 10 -82 15 -107 7
-15 -5 -17 -13 -13 -43 8 -61 8 -205 0 -233 -10 -30 8 -39 61 -31 28 4 31 7
25 30 -5 21 -3 24 11 19 10 -4 26 -2 37 4 12 6 37 8 60 4 34 -6 38 -9 33 -30
-4 -17 -1 -24 14 -27 36 -10 72 3 72 24 0 14 5 18 16 14 8 -3 25 -1 36 5 22
12 88 4 88 -11 0 -6 -8 -9 -17 -8 -44 3 -53 -2 -47 -25 l5 -24 -128 -6 c-137
-6 -229 -2 -288 13 -38 9 -59 -17 -48 -59 4 -16 12 -18 41 -14 76 10 145 11
166 4 19 -7 17 -9 -14 -16 -19 -4 -38 -9 -43 -12 -5 -3 18 -53 48 -101 3 -4
69 20 79 29 5 4 -3 27 -17 52 l-27 45 23 1 c12 1 49 3 82 6 33 3 74 3 91 0 29
-5 31 -8 30 -43 -1 -37 -1 -37 -44 -38 -23 0 -44 -3 -47 -5 -9 -9 30 -99 45
-102 21 -4 92 21 110 39 8 8 16 33 17 57 1 23 3 52 4 65 1 16 6 22 15 18 8 -3
26 0 40 6 19 9 33 9 60 -1 42 -15 47 -11 47 30 0 33 -19 52 -43 43 -8 -4 -39
-8 -67 -9 -40 -2 -53 0 -53 11 0 7 8 13 18 12 54 -4 61 0 51 34 -11 39 -10
186 2 209 4 9 6 25 3 36 -5 17 -15 20 -97 21 -121 1 -137 2 -137 13 0 5 18 9
40 9 22 0 40 5 40 10 0 15 67 12 73 -2 4 -10 8 -10 15 1 7 10 27 12 76 9 63
-4 67 -3 72 19 11 43 1 48 -84 48 -62 0 -76 2 -61 11 19 10 19 11 -4 45 l-23
34 72 -3 c78 -3 104 9 104 51 0 40 -11 43 -140 43 l-125 -1 2 41 2 41 -44 -5
c-30 -3 -45 -1 -45 7 0 6 -5 11 -10 11 -6 0 -9 -20 -7 -47 l4 -48 -87 0 c-87
0 -88 0 -79 23 14 37 11 48 -16 60 -26 12 -37 13 -66 5z m389 -184 c13 0 11
-3 -5 -11 -25 -12 -29 -23 -13 -33 5 -3 14 -14 19 -23 8 -15 3 -17 -44 -17
-37 0 -51 4 -48 12 3 7 13 15 23 18 21 7 35 39 24 57 -5 8 -2 9 10 5 10 -4 25
-7 34 -8z m-210 -245 c22 -4 30 -12 29 -25 -1 -22 -66 -36 -96 -20 -11 6 -26
9 -33 6 -9 -4 -14 2 -15 15 -1 15 3 20 15 16 9 -3 24 -1 32 4 18 11 27 12 68
4z m229 0 c13 -4 21 -13 20 -25 -2 -23 -55 -36 -85 -20 -11 6 -27 9 -34 6 -9
-4 -14 2 -15 15 -1 15 3 20 15 16 9 -3 24 -1 32 4 17 11 36 12 67 4z m-228
-100 c17 -4 31 -12 31 -19 0 -18 -73 -29 -99 -16 -11 6 -27 8 -35 5 -11 -4
-16 -1 -16 11 0 11 6 15 18 11 9 -3 24 -1 32 4 18 12 27 12 69 4z m229 0 c12
-4 22 -12 22 -20 0 -18 -63 -29 -88 -15 -11 6 -28 8 -36 5 -11 -4 -16 -1 -16
11 0 11 6 15 18 11 9 -3 24 -1 32 4 17 11 36 12 68 4z"/>
<path d="M73 604 l-28 -37 25 -16 c14 -9 42 -31 63 -50 l38 -34 34 33 c19 19
35 38 35 42 0 9 -118 98 -131 98 -4 0 -20 -16 -36 -36z"/>
<path d="M142 373 c-12 -48 -35 -116 -52 -150 l-29 -63 42 -24 c23 -14 45 -22
49 -18 10 10 52 130 77 221 l20 71 -39 25 c-22 14 -41 25 -42 25 -2 0 -13 -39
-26 -87z"/>
</g>
</svg>
