<?xml version="1.0" standalone="no"?>
<!DOCTYPE svg PUBLIC "-//W3C//DTD SVG 20010904//EN"
 "http://www.w3.org/TR/2001/REC-SVG-20010904/DTD/svg10.dtd">
<svg version="1.0" xmlns="http://www.w3.org/2000/svg"
 width="101.000000pt" height="102.000000pt" viewBox="0 0 101.000000 102.000000"
 preserveAspectRatio="xMidYMid meet">
<metadata>
Created by potrace 1.16, written by Peter Selinger 2001-2019
</metadata>
<g transform="translate(0.000000,102.000000) scale(0.100000,-0.100000)"
fill="#000000" stroke="none">
<path d="M338 1013 c-18 -5 -35 -64 -23 -82 6 -11 -165 -7 -210 4 -26 7 -42
-4 -50 -36 -4 -18 -1 -31 10 -43 15 -15 33 -16 135 -12 112 6 118 5 113 -13
-8 -31 14 -61 45 -61 38 0 56 14 49 39 -3 12 -2 23 1 25 4 2 44 7 90 10 l83 7
-6 -34 c-6 -30 -4 -36 15 -42 12 -4 24 -4 27 -1 8 8 43 -65 36 -76 -3 -6 -19
-7 -37 -4 -17 4 -42 8 -56 10 -14 3 -34 7 -45 10 -29 9 -48 -8 -48 -43 0 -17
2 -33 5 -37 7 -7 34 -6 78 2 60 11 263 9 298 -4 18 -6 39 -9 46 -6 27 10 28
77 2 87 -7 3 -27 -2 -45 -10 -25 -13 -37 -13 -56 -5 -14 6 -31 9 -38 6 -8 -3
-17 11 -25 41 -11 40 -15 45 -33 40 -25 -8 -38 7 -32 38 4 21 9 22 123 21 131
-1 139 3 124 60 -7 31 -38 41 -79 26 -18 -7 -55 -8 -98 -4 l-69 7 4 38 c4 42
7 40 -64 43 l-37 1 4 -47 4 -47 -90 2 c-75 2 -88 4 -83 17 26 67 3 92 -68 73z"/>
<path d="M228 803 c-16 -4 -31 -37 -33 -67 0 -5 -22 -10 -50 -10 -54 -1 -52 4
-39 -71 5 -28 7 -133 4 -280 -1 -33 2 -77 5 -97 5 -24 2 -54 -8 -82 -25 -72
-6 -101 57 -89 26 5 32 23 28 77 -2 13 2 16 14 12 8 -3 24 -1 35 4 11 6 40 8
69 4 45 -6 49 -9 44 -29 -6 -25 16 -36 58 -28 24 5 24 6 21 105 -1 55 1 108 7
117 5 10 6 28 3 40 -5 19 -10 21 -32 15 -14 -5 -60 -7 -101 -6 -128 3 -119 -1
-117 42 1 43 -8 41 147 43 l105 2 2 113 1 114 -24 -6 c-14 -4 -54 -4 -89 0
l-65 7 18 29 c15 25 15 30 2 38 -16 10 -33 11 -62 3z m113 -143 c11 0 17 -9
17 -22 1 -13 2 -34 4 -48 3 -21 -2 -25 -42 -32 -25 -5 -56 -5 -70 -1 -14 4
-34 7 -45 7 -15 1 -19 7 -17 26 2 14 3 35 4 48 0 16 5 21 17 18 9 -3 23 -1 31
5 8 5 31 7 50 4 19 -2 42 -5 51 -5z m-1 -300 c11 0 16 -12 18 -44 l1 -43 -49
-7 c-29 -4 -58 -2 -69 4 -11 5 -27 7 -35 4 -13 -5 -15 2 -14 40 2 36 6 45 18
41 8 -2 22 0 30 6 8 5 31 7 50 4 19 -2 42 -5 50 -5z"/>
<path d="M562 605 c-19 -8 -32 -18 -30 -22 10 -21 43 -88 44 -91 1 -2 21 2 43
9 45 13 47 23 12 83 -20 37 -28 39 -69 21z"/>
<path d="M732 550 c-20 -59 -26 -69 -50 -74 -40 -8 -144 -5 -163 5 -36 19 -77
-18 -63 -56 7 -18 43 -26 65 -15 10 6 44 7 76 4 l59 -6 1 -38 2 -38 -50 -6
c-27 -4 -57 -2 -67 3 -39 21 -81 -14 -66 -54 7 -18 44 -26 66 -14 27 14 121 0
114 -17 -3 -8 0 -25 6 -39 8 -19 8 -31 -5 -56 -17 -37 -14 -55 13 -62 38 -10
67 3 68 31 1 15 2 36 3 47 1 11 -1 36 -4 56 -7 42 -9 41 104 40 71 -1 83 7 72
48 -5 19 -12 21 -67 21 -118 -1 -115 -3 -113 40 1 43 -1 42 118 40 81 -1 93 6
82 48 -4 16 -14 20 -51 20 -65 1 -92 3 -92 8 0 9 50 83 60 89 26 16 -2 32 -71
41 -23 3 -27 -2 -47 -66z"/>
</g>
</svg>
