<?xml version="1.0" standalone="no"?>
<!DOCTYPE svg PUBLIC "-//W3C//DTD SVG 20010904//EN"
 "http://www.w3.org/TR/2001/REC-SVG-20010904/DTD/svg10.dtd">
<svg version="1.0" xmlns="http://www.w3.org/2000/svg"
 width="101.000000pt" height="102.000000pt" viewBox="0 0 101.000000 102.000000"
 preserveAspectRatio="xMidYMid meet">
<metadata>
Created by potrace 1.16, written by Peter Selinger 2001-2019
</metadata>
<g transform="translate(0.000000,102.000000) scale(0.100000,-0.100000)"
fill="#000000" stroke="none">
<path d="M323 986 c4 -32 2 -35 -27 -40 -56 -9 -169 -6 -182 5 -21 17 -61 2
-68 -25 -10 -42 7 -64 47 -57 4 1 58 4 120 6 111 6 112 6 112 -17 0 -22 -2
-23 -87 -20 l-87 3 2 -90 c1 -101 5 -106 74 -91 20 5 40 7 45 4 4 -3 17 0 29
6 12 7 37 9 59 5 32 -5 38 -10 36 -31 -1 -24 -2 -24 -71 -18 -74 8 -114 8
-119 3 -10 -12 -14 -46 -7 -57 9 -16 35 -18 101 -8 96 13 95 13 95 -16 1 -25
-3 -27 -50 -33 -50 -6 -148 -1 -215 10 -76 12 -83 9 -83 -35 0 -36 5 -42 35
-41 57 3 179 11 238 16 78 6 141 -2 119 -16 -21 -13 -188 -66 -234 -74 -80
-13 -91 -15 -123 -19 -50 -8 -55 -15 -28 -46 13 -16 26 -35 28 -41 3 -9 26 -5
80 13 l76 26 2 -22 c1 -11 2 -62 2 -113 2 -101 4 -104 67 -95 29 4 32 7 26 32
-5 24 -3 28 17 29 13 1 46 3 73 6 28 2 103 1 168 -2 116 -6 118 -6 113 -28 -7
-27 11 -34 68 -27 37 4 38 5 30 36 -9 35 -9 188 0 255 l6 44 -38 -8 c-44 -10
-232 -9 -232 1 0 8 66 38 90 42 46 7 138 2 165 -8 18 -7 33 -7 46 1 12 6 37 8
58 4 33 -5 39 -3 44 14 3 12 3 30 0 41 -4 16 -10 19 -27 13 -18 -7 -89 -7
-186 -2 l-24 1 24 19 c14 10 49 31 79 46 l54 27 -27 23 c-24 20 -25 23 -8 23
18 0 19 8 19 91 l0 91 -33 -6 c-51 -10 -164 4 -164 20 0 10 13 14 40 14 22 0
40 5 40 10 0 6 11 10 25 10 14 0 25 -4 25 -10 0 -5 19 -9 43 -8 23 1 51 -2 63
-6 30 -11 57 19 49 53 -4 14 -9 28 -12 31 -2 3 -67 5 -143 5 l-139 0 15 23
c20 31 13 36 -46 37 -43 0 -50 -3 -55 -23 -3 -13 -3 -28 1 -34 5 -8 -7 -9 -41
-5 -26 4 -61 7 -77 7 -26 0 -28 2 -18 20 16 30 4 40 -51 40 l-49 0 3 -34z
m243 -130 c-1 -19 -7 -21 -76 -21 -68 0 -75 2 -75 20 0 18 7 20 76 21 72 2 77
0 75 -20z m-219 -100 c0 0 3 -10 5 -21 2 -17 -2 -20 -27 -17 -16 1 -39 3 -50
3 -14 1 -20 8 -20 24 0 20 4 22 45 17 25 -2 46 -5 47 -6z m207 -16 c-1 -21 -5
-25 -30 -22 -16 1 -38 3 -49 3 -13 1 -20 9 -21 23 -1 19 4 21 50 21 48 0 51
-1 50 -25z m192 3 c-3 -24 -7 -28 -32 -25 -16 1 -38 3 -49 3 -13 1 -21 9 -22
20 -1 15 7 19 50 22 29 2 53 4 54 5 1 1 0 -10 -1 -25z m-6 -71 c20 -7 17 -11
-27 -49 -43 -36 -49 -38 -50 -21 -1 11 -4 22 -6 24 -5 6 -67 6 -117 1 -42 -5
-45 -3 -46 19 -2 19 2 23 15 20 9 -3 22 -2 29 3 18 11 175 13 202 3z m-140
-114 l25 0 -23 -19 c-16 -12 -37 -18 -65 -17 -36 2 -42 5 -43 24 -2 21 2 22
40 17 22 -3 52 -5 66 -5z m2 -205 c94 -5 106 -7 105 -23 -1 -15 -16 -18 -117
-23 -63 -3 -137 -4 -165 -2 -27 3 -60 5 -72 6 -13 1 -23 7 -23 15 0 14 3 15
52 18 15 1 30 5 34 9 8 8 31 8 186 0z m60 -102 c39 -1 47 -4 45 -20 -1 -16
-13 -19 -117 -24 -63 -3 -137 -4 -165 -2 -27 3 -59 5 -70 6 -13 1 -21 9 -22
21 -1 14 3 17 15 14 9 -3 24 -1 32 4 8 5 65 8 125 6 61 -2 131 -5 157 -5z"/>
</g>
</svg>
