<?xml version="1.0" standalone="no"?>
<!DOCTYPE svg PUBLIC "-//W3C//DTD SVG 20010904//EN"
 "http://www.w3.org/TR/2001/REC-SVG-20010904/DTD/svg10.dtd">
<svg version="1.0" xmlns="http://www.w3.org/2000/svg"
 width="101.000000pt" height="103.000000pt" viewBox="0 0 101.000000 103.000000"
 preserveAspectRatio="xMidYMid meet">
<metadata>
Created by potrace 1.16, written by Peter Selinger 2001-2019
</metadata>
<g transform="translate(0.000000,103.000000) scale(0.100000,-0.100000)"
fill="#000000" stroke="none">
<path d="M330 1022 c-8 -4 -15 -18 -15 -32 0 -24 -3 -25 -89 -33 -64 -7 -95
-6 -111 3 -30 16 -62 5 -69 -25 -13 -53 -5 -56 133 -50 l126 6 0 -28 0 -28
-107 4 -108 3 -10 -26 c-12 -32 -4 -53 21 -61 25 -8 129 5 129 16 0 5 16 9 35
9 19 0 35 -4 35 -10 0 -5 18 -10 40 -10 22 0 40 5 40 10 0 15 67 12 74 -2 5
-10 7 -10 12 0 7 15 164 17 164 2 0 -5 18 -10 40 -10 23 0 40 5 40 11 0 12 94
8 167 -7 34 -7 47 11 37 50 -5 23 -8 23 -134 22 -83 -1 -123 2 -112 8 19 11
32 27 27 36 -2 3 52 4 120 3 134 -1 142 2 129 53 -8 31 -28 36 -151 32 l-102
-3 6 26 c4 21 1 28 -15 33 -45 15 -97 -22 -78 -53 3 -5 -22 -12 -56 -16 -43
-5 -63 -4 -66 4 -2 6 -21 11 -43 11 -34 0 -39 3 -39 24 0 32 -33 45 -70 28z
m122 -156 c15 -21 8 -31 -22 -31 -16 0 -30 2 -31 5 -7 42 -5 46 20 42 14 -3
29 -10 33 -16z m134 -28 c-19 -4 -33 -2 -37 4 -12 19 2 37 29 40 20 2 28 -2
33 -17 4 -16 -1 -21 -25 -27z"/>
<path d="M229 759 c-1 -2 -3 -39 -4 -81 -2 -69 0 -77 18 -82 11 -3 28 -1 36 4
9 5 59 7 111 5 52 -3 122 -4 155 -4 33 0 95 0 138 0 l78 0 -7 34 c-3 18 -1 42
5 52 5 11 7 30 4 42 -5 20 -10 22 -47 17 -81 -12 -308 -17 -319 -8 -7 6 -37
10 -67 10 -30 1 -65 4 -77 8 -13 3 -24 5 -24 3z m403 -68 c39 -1 47 -4 45 -20
-1 -16 -13 -19 -117 -24 -63 -3 -137 -4 -165 -2 -27 3 -59 5 -70 6 -13 1 -21
9 -22 21 -1 14 3 17 15 14 9 -3 24 -1 32 4 8 5 65 8 125 6 61 -2 131 -5 157
-5z"/>
<path d="M139 583 c-21 -5 -31 -41 -18 -64 5 -10 7 -49 5 -87 -5 -77 2 -85 58
-75 25 5 33 25 27 73 0 8 -3 31 -5 51 -4 32 -2 37 17 38 55 4 227 2 276 -2 30
-3 63 -1 73 4 11 6 60 7 121 3 l104 -7 -1 -36 c-1 -29 -5 -36 -21 -37 -59 -3
-57 -1 -40 -34 8 -16 15 -36 15 -44 0 -23 31 -24 83 -3 53 22 68 52 47 92 -8
15 -10 34 -5 52 18 62 14 72 -31 79 -23 3 -66 3 -96 -1 -29 -3 -96 -6 -148 -6
-163 0 -222 0 -320 -2 -52 0 -102 2 -110 5 -8 3 -22 4 -31 1z"/>
<path d="M287 479 c-3 -12 -1 -31 4 -41 6 -11 8 -36 4 -57 -6 -37 -5 -38 23
-36 15 1 34 5 40 9 18 11 102 -4 102 -19 0 -22 -213 -28 -351 -11 -41 5 -47 4
-52 -14 -12 -46 23 -81 62 -61 21 11 168 13 204 3 27 -7 26 -9 -35 -30 -70
-24 -110 -32 -213 -41 -11 -1 -8 -11 13 -45 31 -51 26 -50 152 -9 69 22 138
57 200 101 22 16 24 16 18 0 -4 -9 -2 -30 5 -47 9 -23 8 -35 -3 -55 -15 -29
-13 -35 16 -37 59 -6 63 -2 63 54 0 28 1 65 2 81 l1 28 36 -35 c44 -43 128
-83 226 -108 85 -22 96 -23 96 -5 0 7 11 29 23 48 l24 34 -31 1 c-17 1 -44 4
-61 7 -16 3 -49 8 -73 10 -23 3 -62 14 -85 24 -50 23 -51 23 125 25 125 2 134
6 121 57 -5 17 -11 19 -43 14 -35 -6 -286 -9 -337 -4 -13 1 -23 9 -23 17 0 9
6 13 15 9 8 -3 26 0 40 6 18 8 35 8 59 1 l34 -11 0 52 c1 28 1 61 2 74 1 13 0
26 -3 29 -3 3 -36 0 -74 -6 -64 -11 -153 -10 -269 4 -47 5 -52 4 -57 -16z
m305 -35 c19 -4 26 -11 25 -25 -2 -24 -39 -31 -132 -24 -38 3 -79 6 -90 6 -13
1 -21 9 -22 21 -1 14 3 17 15 14 9 -3 23 -2 31 3 15 10 132 13 173 5z"/>
</g>
</svg>
