<?xml version="1.0" standalone="no"?>
<!DOCTYPE svg PUBLIC "-//W3C//DTD SVG 20010904//EN"
 "http://www.w3.org/TR/2001/REC-SVG-20010904/DTD/svg10.dtd">
<svg version="1.0" xmlns="http://www.w3.org/2000/svg"
 width="101.000000pt" height="102.000000pt" viewBox="0 0 101.000000 102.000000"
 preserveAspectRatio="xMidYMid meet">
<metadata>
Created by potrace 1.16, written by Peter Selinger 2001-2019
</metadata>
<g transform="translate(0.000000,102.000000) scale(0.100000,-0.100000)"
fill="#000000" stroke="none">
<path d="M335 987 c-4 -20 -4 -40 -1 -45 3 -6 -52 -8 -138 -6 l-144 3 -6 -25
c-11 -41 2 -63 39 -70 18 -3 39 -3 45 1 6 3 58 8 115 10 96 3 123 -3 94 -20
-6 -4 -8 -14 -5 -22 4 -10 1 -13 -13 -8 -11 3 -40 -8 -76 -30 -32 -19 -93 -47
-136 -62 l-77 -28 30 -37 c24 -31 33 -36 48 -28 15 8 23 5 40 -17 11 -14 19
-31 17 -37 -2 -6 -28 -17 -58 -25 -30 -8 -56 -16 -58 -17 -7 -6 41 -64 52 -64
7 0 48 16 92 35 44 19 83 31 88 26 19 -19 -175 -141 -224 -141 -26 0 -24 -12
10 -44 36 -35 43 -33 165 49 111 74 139 69 55 -9 -52 -48 -112 -84 -203 -121
l-39 -15 33 -35 33 -34 47 25 c26 14 79 50 118 80 l71 54 -5 -38 c-10 -84 -28
-102 -101 -100 -43 2 -48 -5 -28 -35 8 -14 15 -29 14 -33 -8 -43 30 -49 109
-18 l64 26 22 -21 c12 -12 29 -21 37 -21 20 1 87 53 115 91 22 31 57 117 60
149 1 8 2 25 3 36 1 16 7 22 25 20 27 -1 26 3 29 -143 3 -112 13 -136 58 -133
13 1 58 1 99 0 67 -1 78 2 97 22 12 13 25 42 29 65 5 36 4 44 -12 49 -11 4
-31 16 -46 26 -21 14 -28 16 -29 6 -5 -49 -8 -59 -18 -72 -8 -9 -27 -14 -49
-12 l-37 2 -8 59 c-4 36 -3 69 3 82 5 13 7 29 4 37 -5 14 -1 15 79 18 27 1 36
5 33 15 -13 33 -18 114 -8 126 7 8 11 51 10 105 -1 86 -2 93 -22 98 -12 3 -33
1 -46 -4 -14 -5 -58 -7 -98 -4 l-73 4 23 26 c13 14 18 26 12 29 -6 2 -9 16 -6
32 l4 29 96 6 c54 4 116 5 140 2 38 -4 43 -2 48 19 3 13 4 32 2 42 -4 20 -16
20 -106 8 -36 -6 -60 -4 -76 5 -13 7 -44 11 -69 9 -41 -4 -44 -2 -40 16 13 57
11 59 -44 59 l-52 1 2 -42 3 -41 -82 1 -81 2 8 35 c4 19 6 36 4 39 -3 2 -27 6
-54 9 l-50 4 -6 -35z m259 -153 c-1 -12 -7 -31 -13 -42 -6 -12 -11 -25 -10
-29 4 -23 -5 -28 -45 -28 -25 0 -48 -3 -51 -7 -4 -3 -9 -24 -12 -46 l-5 -41
-25 30 c-29 34 -43 36 -68 9 -17 -19 -18 -19 -36 4 -25 32 -25 33 16 46 38 12
42 19 23 38 -9 9 -7 12 13 12 38 0 53 14 46 46 l-5 29 87 0 c83 0 88 -1 85
-21z m-328 -179 c13 -20 14 -28 4 -40 -18 -21 -26 -19 -51 16 -18 26 -19 33
-8 40 23 14 38 10 55 -16z m496 -1 c40 -6 46 -9 44 -30 -1 -30 -32 -37 -131
-29 -38 3 -79 6 -90 6 -14 1 -20 8 -20 24 0 20 4 22 41 17 23 -2 50 1 60 7 22
12 36 13 96 5z m-295 -147 c1 -60 4 -112 8 -115 3 -3 24 -6 45 -5 43 2 43 4
26 -72 -14 -64 -47 -110 -96 -135 -50 -25 -53 -25 -39 2 7 13 14 48 16 78 1
30 3 62 4 70 5 59 -38 185 -76 223 -14 15 -13 17 7 28 105 57 103 58 105 -74z
m314 17 c21 -4 26 -11 25 -30 -1 -30 -32 -37 -131 -29 -38 3 -79 6 -90 6 -14
1 -20 9 -21 26 -2 18 2 22 15 19 9 -3 22 -2 30 3 15 10 132 13 172 5z"/>
</g>
</svg>
