<?xml version="1.0" standalone="no"?>
<!DOCTYPE svg PUBLIC "-//W3C//DTD SVG 20010904//EN"
 "http://www.w3.org/TR/2001/REC-SVG-20010904/DTD/svg10.dtd">
<svg version="1.0" xmlns="http://www.w3.org/2000/svg"
 width="101.000000pt" height="102.000000pt" viewBox="0 0 101.000000 102.000000"
 preserveAspectRatio="xMidYMid meet">
<metadata>
Created by potrace 1.16, written by Peter Selinger 2001-2019
</metadata>
<g transform="translate(0.000000,102.000000) scale(0.100000,-0.100000)"
fill="#000000" stroke="none">
<path d="M315 987 c-4 -20 -5 -40 -2 -44 3 -5 -54 -8 -128 -7 l-133 3 -7 -26
c-14 -58 -7 -61 140 -59 125 1 134 0 129 -17 -3 -10 -1 -24 5 -30 8 -10 2 -12
-24 -9 -19 2 -43 1 -52 -3 -10 -4 -46 -7 -81 -6 -35 0 -62 -3 -60 -7 3 -4 11
-22 19 -40 16 -39 47 -49 100 -35 33 9 37 8 36 -7 -1 -14 -14 -19 -54 -24 -30
-3 -62 -2 -72 3 -40 22 -76 -11 -64 -57 5 -19 28 -21 75 -8 71 20 39 -39 -50
-91 l-42 -25 41 -30 c47 -34 46 -35 123 57 27 33 47 52 43 42 -3 -9 -1 -28 5
-42 8 -19 8 -28 -2 -40 -17 -20 -8 -28 30 -28 76 0 -95 -62 -200 -72 -14 -1
-31 -3 -37 -4 -21 -2 -14 -24 18 -59 35 -39 45 -39 178 15 89 36 181 87 231
129 l28 24 29 -25 c20 -19 22 -23 7 -16 -44 21 -86 -17 -65 -58 12 -23 12
-156 1 -186 -9 -24 -13 -25 -60 -21 -51 5 -61 -2 -35 -24 8 -7 17 -27 21 -46
7 -40 22 -42 99 -16 48 16 50 19 52 57 2 22 3 50 4 62 1 18 5 20 23 13 50 -19
154 -70 193 -94 l41 -26 26 46 c14 26 26 48 26 50 0 2 -53 20 -117 40 l-118
37 40 18 c22 10 48 19 58 19 20 0 22 11 6 27 -7 7 30 -2 81 -18 51 -16 93 -29
94 -27 0 2 13 27 27 56 l27 52 -27 1 c-14 1 -37 3 -51 5 -14 2 -43 5 -66 8
-92 12 -191 57 -277 129 l-48 40 -23 -22 -22 -21 -29 30 c-25 26 -27 30 -10
29 47 -5 65 1 65 21 0 24 8 25 39 4 22 -16 24 -15 47 12 13 16 23 31 24 34 0
3 18 6 40 7 36 2 39 0 30 -16 -13 -25 -68 -71 -99 -82 l-24 -10 34 -29 c19
-16 37 -29 40 -30 21 -1 101 76 121 118 17 37 28 49 44 48 20 -1 22 -6 20 -54
-3 -61 -12 -71 -67 -66 -44 4 -45 2 -24 -30 9 -13 15 -28 14 -32 -4 -25 3 -33
29 -30 45 6 112 37 122 57 12 22 24 106 24 177 1 52 -15 79 -37 65 -5 -3 -55
-6 -112 -7 -83 -1 -99 1 -86 12 15 11 14 13 -3 27 -19 15 -19 15 2 15 12 0 21
6 20 13 -2 8 14 13 47 15 28 2 54 7 59 13 12 11 50 12 60 2 14 -14 115 -9 121
5 21 55 -9 88 -61 66 -40 -17 -106 -18 -121 -3 -6 6 -33 9 -60 8 l-48 -4 2 40
2 40 -49 0 -49 0 2 -42 3 -42 -91 2 -92 2 8 35 c4 19 6 36 4 38 -2 3 -24 7
-49 9 -45 5 -45 5 -51 -30z m259 -153 c-4 -45 -77 -159 -94 -149 -5 3 -18 0
-29 -7 -16 -10 -27 -10 -52 -1 -17 7 -36 10 -42 7 -7 -2 -13 6 -13 19 -1 20 2
23 25 19 35 -5 111 15 111 29 0 6 -15 26 -32 44 -54 54 -49 60 45 60 79 0 84
-1 81 -21z m-204 -228 c0 -2 -7 -9 -15 -16 -12 -10 -15 -10 -15 4 0 9 7 16 15
16 8 0 15 -2 15 -4z m20 -102 c0 -12 -29 -34 -44 -34 -3 0 -5 20 -4 45 l2 44
23 -21 c13 -12 23 -27 23 -34z m278 -120 c3 -2 -96 -64 -103 -64 -3 0 -3 19
-1 43 2 23 4 50 5 59 1 14 7 13 49 -9 26 -15 48 -27 50 -29z"/>
<path d="M328 359 c-21 -11 -38 -22 -38 -26 0 -4 9 -17 21 -29 12 -12 18 -27
15 -32 -7 -12 -84 -39 -135 -47 -50 -9 -52 -12 -26 -51 13 -19 25 -40 27 -46
2 -6 25 0 58 17 30 16 91 43 135 61 l80 32 -2 37 c-2 46 -6 50 -33 35 -14 -7
-20 -8 -16 -1 4 5 -6 24 -21 40 l-28 30 -37 -20z"/>
</g>
</svg>
