<?xml version="1.0" standalone="no"?>
<!DOCTYPE svg PUBLIC "-//W3C//DTD SVG 20010904//EN"
 "http://www.w3.org/TR/2001/REC-SVG-20010904/DTD/svg10.dtd">
<svg version="1.0" xmlns="http://www.w3.org/2000/svg"
 width="101.000000pt" height="102.000000pt" viewBox="0 0 101.000000 102.000000"
 preserveAspectRatio="xMidYMid meet">
<metadata>
Created by potrace 1.16, written by Peter Selinger 2001-2019
</metadata>
<g transform="translate(0.000000,102.000000) scale(0.100000,-0.100000)"
fill="#000000" stroke="none">
<path d="M316 995 c-4 -14 -4 -30 -1 -36 6 -9 -178 -4 -220 6 -26 7 -42 -4
-50 -36 -8 -31 19 -64 44 -54 20 8 221 13 222 5 0 -3 2 -12 4 -21 2 -13 -3
-14 -34 -6 -55 15 -108 2 -115 -27 -10 -42 2 -56 50 -56 24 0 44 5 44 10 0 15
67 12 73 -2 4 -10 7 -10 15 0 12 17 109 6 109 -13 0 -21 -224 -28 -353 -11
-37 5 -43 3 -47 -16 -3 -12 -1 -30 4 -40 6 -10 7 -38 3 -63 -7 -49 -6 -50 64
-46 29 2 33 0 31 -21 -5 -51 -1 -56 41 -52 24 2 40 -1 40 -7 0 -19 -124 -136
-168 -158 l-43 -22 33 -32 c18 -17 37 -30 43 -28 5 1 29 18 51 37 48 39 43 48
47 -91 1 -44 -2 -92 -7 -106 -9 -30 9 -39 62 -31 27 4 31 7 26 27 -7 27 -11
26 141 26 55 0 129 0 165 0 177 1 240 -2 262 -10 33 -13 51 1 51 38 0 17 -2
33 -4 35 -2 2 -30 0 -62 -5 -32 -5 -95 -7 -140 -4 -45 3 -91 6 -102 6 -12 1
-21 9 -22 19 -2 20 -1 21 147 23 107 2 121 6 113 36 -3 14 -21 17 -111 18 -59
1 -116 2 -127 3 -29 3 -30 37 -2 39 79 5 176 4 198 -3 30 -9 41 7 32 43 -4 17
-10 20 -27 14 -18 -7 -126 -8 -201 -2 -29 2 -30 36 -2 38 84 6 216 4 238 -2
25 -8 26 -7 25 25 l-1 34 -120 1 c-143 2 -165 3 -163 12 1 3 -4 17 -12 31 -8
14 -15 30 -15 35 -1 6 -5 19 -10 29 -5 11 -4 31 3 48 6 16 9 35 6 43 -4 8 3
13 18 14 13 0 52 3 88 6 36 3 93 3 127 0 l61 -6 -2 -49 c-3 -54 4 -60 65 -52
37 4 37 4 27 39 -5 19 -6 47 -2 62 15 52 12 71 -11 65 -19 -5 -307 -8 -352 -4
-13 1 -23 7 -23 14 0 12 57 16 196 16 67 -1 83 2 88 16 10 27 -3 53 -30 60
-24 6 -91 2 -124 -8 -8 -3 -12 -3 -7 -1 4 3 7 12 7 21 0 15 15 17 135 16 144
0 151 2 139 51 -8 31 -35 39 -80 25 -23 -8 -63 -10 -116 -5 -80 7 -80 7 -75
34 5 25 4 26 -44 26 l-50 0 4 -32 5 -32 -87 2 -87 2 3 33 3 32 -49 0 c-44 0
-49 -3 -55 -25z m254 -115 c0 -5 8 -16 17 -25 15 -16 11 -17 -73 -10 -96 8
-104 10 -104 28 0 8 26 12 80 13 44 1 80 -2 80 -6z m-178 -186 l68 -6 -6 -32
c-7 -37 -8 -43 -6 -78 2 -22 7 -28 25 -29 l22 0 -22 -9 c-27 -11 -28 -18 -7
-41 15 -17 14 -18 -19 -24 -20 -4 -44 -2 -55 4 -11 6 -28 8 -38 4 -11 -4 -15
-3 -10 5 3 6 0 15 -9 19 -10 6 1 9 32 11 50 2 66 15 57 47 -9 28 -9 28 -46 16
-38 -12 -197 -5 -212 10 -3 3 -8 27 -10 53 -4 41 -3 46 12 42 9 -3 23 -2 31 3
17 11 99 13 193 5z m80 -270 c19 -4 26 -11 25 -25 -2 -23 -38 -30 -117 -24
-30 3 -64 5 -75 6 -13 1 -21 9 -22 21 -1 14 3 17 15 14 9 -3 24 -1 32 4 15 9
97 12 142 4z m-1 -90 c21 -4 27 -11 25 -30 -1 -29 -31 -36 -116 -29 -30 3 -64
5 -75 6 -14 1 -20 9 -21 26 -2 18 2 22 15 19 9 -3 23 -1 31 4 15 9 97 12 141
4z m1 -100 c19 -4 26 -11 25 -25 -2 -23 -38 -30 -117 -24 -30 3 -64 5 -75 6
-13 1 -21 9 -22 21 -1 14 3 17 15 14 9 -3 24 -1 32 4 15 9 97 12 142 4z"/>
<path d="M177 649 c-10 -40 2 -50 52 -45 25 3 57 8 71 11 14 4 37 0 54 -9 44
-22 71 -3 59 43 -4 16 -11 19 -27 15 -30 -7 -113 -8 -162 -1 -36 5 -43 4 -47
-14z"/>
<path d="M567 649 c-7 -27 1 -49 18 -49 8 0 17 -5 21 -11 4 -7 0 -9 -14 -5
-14 5 -21 1 -25 -15 -3 -11 -3 -27 -1 -34 7 -18 43 -26 65 -15 9 6 58 8 108 6
96 -3 105 1 94 44 -4 15 -10 19 -22 14 -28 -12 -153 -14 -174 -2 -18 9 -19 11
-4 20 10 5 21 7 26 3 5 -3 21 0 35 6 20 10 32 9 57 -4 48 -23 74 -5 62 42 -4
15 -11 19 -27 16 -30 -8 -124 -9 -172 -2 -36 5 -43 4 -47 -14z"/>
</g>
</svg>
