<?xml version="1.0" standalone="no"?>
<!DOCTYPE svg PUBLIC "-//W3C//DTD SVG 20010904//EN"
 "http://www.w3.org/TR/2001/REC-SVG-20010904/DTD/svg10.dtd">
<svg version="1.0" xmlns="http://www.w3.org/2000/svg"
 width="101.000000pt" height="101.000000pt" viewBox="0 0 101.000000 101.000000"
 preserveAspectRatio="xMidYMid meet">
<metadata>
Created by potrace 1.16, written by Peter Selinger 2001-2019
</metadata>
<g transform="translate(0.000000,101.000000) scale(0.100000,-0.100000)"
fill="#000000" stroke="none">
<path d="M326 985 c-4 -14 -5 -29 -2 -33 2 -4 -55 -7 -127 -7 l-132 0 -3 -26
c-5 -40 21 -59 78 -59 27 0 52 5 55 10 7 11 57 13 101 4 26 -5 29 -9 28 -44 0
-35 2 -40 28 -45 49 -11 68 1 63 41 l-4 34 44 0 c25 0 45 5 45 10 0 6 11 10
25 10 33 0 32 -16 -1 -24 -25 -7 -26 -10 -22 -57 l5 -50 -72 6 c-117 11 -114
14 -113 -123 0 -181 -5 -212 -57 -334 -9 -23 63 -56 77 -36 10 16 38 107 38
125 0 19 16 16 31 -7 14 -20 15 -19 97 14 80 33 116 34 68 3 -29 -19 -145 -67
-162 -67 -22 0 -25 -17 -6 -40 l18 -22 60 30 c32 17 79 44 104 60 31 21 47 27
52 19 4 -6 2 -17 -4 -24 -16 -20 -164 -91 -203 -99 -40 -7 -41 -10 -18 -36 35
-39 -13 -32 -123 19 -49 22 -53 27 -59 66 -7 49 2 201 15 252 9 37 1 42 -57
33 -37 -6 -66 -5 -79 1 -47 21 -77 -7 -67 -63 5 -25 8 -26 58 -21 49 4 53 3
54 -18 0 -12 3 -56 6 -97 9 -118 3 -133 -66 -181 l-60 -42 37 -38 38 -38 48
50 c52 54 61 56 123 19 46 -27 114 -47 187 -55 21 -2 42 -6 46 -9 5 -3 23 0
39 6 25 9 37 8 67 -6 27 -12 41 -14 55 -6 12 6 66 9 130 6 97 -3 111 -1 111
13 0 9 9 31 20 48 19 32 15 40 -15 33 -5 -2 -28 -4 -50 -5 -22 -1 -59 -8 -83
-15 -32 -10 -48 -11 -68 -2 -23 11 -24 13 -9 29 25 25 37 64 31 103 l-6 35 55
-59 55 -59 28 24 c15 13 29 26 32 27 5 4 -30 35 -93 82 l-37 28 41 20 41 21
-26 25 -27 24 45 -3 c48 -3 59 7 49 44 -5 19 -10 20 -82 13 -89 -8 -266 -7
-332 2 -42 5 -47 4 -52 -15 -10 -38 1 -46 56 -43 l52 3 -40 -19 c-22 -10 -56
-21 -77 -24 -33 -5 -36 -4 -33 17 1 12 6 50 10 85 4 34 10 63 14 63 3 1 17 3
31 5 14 2 36 5 50 7 19 3 26 -1 30 -17 8 -29 54 -50 79 -37 10 6 61 9 112 7
83 -3 97 -1 117 17 29 27 28 41 -5 54 -21 8 -23 11 -8 11 55 -2 61 2 83 55 27
66 28 64 -5 60 -16 -2 -53 0 -83 5 -54 10 -54 10 -13 11 33 1 43 5 48 22 4 11
4 23 0 27 -3 4 -39 5 -80 3 -71 -3 -73 -2 -72 21 2 23 3 24 104 21 107 -2 133
6 133 45 0 36 -13 39 -131 38 l-117 -1 10 24 c11 30 1 37 -53 39 -40 2 -41 2
-36 -31 l4 -33 -103 1 c-57 0 -104 1 -104 3 0 2 5 13 11 24 14 26 -2 38 -52
38 -31 0 -38 -4 -43 -25z m294 -122 c0 -5 -5 -15 -11 -23 -8 -11 -12 -12 -16
-2 -2 6 -12 12 -21 13 -14 0 -13 2 3 9 26 11 45 12 45 3z m-90 -189 c0 -6 -6
-11 -12 -12 -99 -10 -106 -10 -110 6 -4 15 4 17 59 17 39 0 63 -4 63 -11z
m280 7 c0 -5 -7 -14 -15 -21 -8 -7 -15 -20 -15 -30 0 -26 -47 -53 -79 -45 -23
5 -50 10 -88 14 -22 2 -14 19 10 20 119 5 139 8 147 20 14 23 0 43 -26 38 -13
-2 -24 0 -24 4 0 5 20 9 45 9 25 0 45 -4 45 -9z m-170 -5 c0 -2 -9 -6 -20 -9
-11 -3 -20 -1 -20 4 0 5 9 9 20 9 11 0 20 -2 20 -4z m138 -211 c3 -3 -10 -22
-29 -41 l-36 -35 -36 36 c-41 41 -45 49 -19 41 9 -3 24 -1 32 5 15 9 77 6 88
-6z m-105 -186 c-7 -26 -20 -32 -60 -31 l-33 1 16 -30 c21 -42 12 -63 -24 -55
-42 10 -84 17 -112 17 -18 1 -6 10 43 34 37 18 89 49 115 68 47 34 64 32 55
-4z"/>
<path d="M143 804 c-18 -8 -33 -17 -33 -20 0 -3 18 -35 40 -71 21 -36 41 -70
42 -75 5 -13 78 12 78 26 0 13 -82 156 -89 155 -3 0 -21 -7 -38 -15z"/>
</g>
</svg>
