<?xml version="1.0" standalone="no"?>
<!DOCTYPE svg PUBLIC "-//W3C//DTD SVG 20010904//EN"
 "http://www.w3.org/TR/2001/REC-SVG-20010904/DTD/svg10.dtd">
<svg version="1.0" xmlns="http://www.w3.org/2000/svg"
 width="101.000000pt" height="102.000000pt" viewBox="0 0 101.000000 102.000000"
 preserveAspectRatio="xMidYMid meet">
<metadata>
Created by potrace 1.16, written by Peter Selinger 2001-2019
</metadata>
<g transform="translate(0.000000,102.000000) scale(0.100000,-0.100000)"
fill="#000000" stroke="none">
<path d="M315 990 c-4 -16 -4 -33 -1 -38 3 -4 -50 -7 -117 -5 -88 2 -123 -1
-129 -10 -13 -20 -9 -54 8 -71 20 -21 97 -21 118 -1 17 17 56 20 56 4 0 -7 12
-9 36 -4 31 5 36 4 30 -10 -3 -9 -1 -25 4 -36 22 -41 108 -11 97 33 -4 14 -2
18 10 14 8 -3 17 -6 19 -6 3 0 3 -4 0 -9 -4 -5 -2 -20 3 -34 10 -24 9 -25 -56
-32 -42 -4 -68 -3 -72 4 -8 12 -177 18 -188 7 -5 -4 -9 -80 -9 -169 -1 -89 -4
-183 -8 -208 -8 -63 -39 -146 -77 -203 -17 -26 -30 -48 -28 -50 2 -2 23 -13
46 -25 l43 -21 29 58 c52 103 80 201 84 289 1 31 2 32 20 15 18 -16 21 -15 67
35 l48 53 -3 -45 c-3 -48 -4 -46 55 -49 14 -1 26 -8 28 -17 2 -13 -9 -17 -58
-22 -34 -4 -69 -3 -79 3 -38 20 -80 -16 -65 -55 7 -18 44 -26 66 -14 10 5 22
7 27 4 5 -3 21 0 35 6 37 17 74 5 72 -25 -1 -21 -7 -25 -43 -31 -24 -3 -48 -3
-54 1 -7 4 -29 8 -49 10 -31 3 -39 0 -43 -16 -10 -40 2 -58 37 -56 18 2 38 6
44 10 6 4 34 4 61 0 40 -5 49 -10 48 -25 -2 -29 -63 -34 -203 -15 -36 4 -43 2
-47 -14 -12 -47 24 -81 63 -60 9 5 34 7 55 6 22 -2 49 1 61 6 13 6 34 8 48 4
24 -6 26 -10 20 -45 -5 -33 -3 -39 14 -43 11 -3 32 -3 47 0 25 4 27 7 19 41
-9 41 -9 178 0 231 12 78 14 120 5 126 -6 3 -26 6 -45 7 -19 1 -34 6 -35 11 0
6 -2 22 -5 36 l-4 25 24 -27 c14 -15 37 -30 52 -32 35 -7 72 -41 73 -69 0 -12
3 -56 6 -97 3 -41 1 -115 -4 -165 -5 -50 -7 -92 -5 -94 6 -6 74 -4 80 2 3 2 6
23 7 46 1 28 5 40 13 37 7 -3 26 0 42 6 24 9 36 8 66 -6 28 -13 40 -14 57 -5
12 6 36 8 54 5 35 -7 48 6 39 41 -5 16 -17 18 -117 20 -62 1 -121 2 -132 3
-29 3 -30 37 -2 40 50 4 120 2 156 -4 33 -5 39 -3 44 14 3 11 3 29 0 40 -5 17
-11 19 -44 14 -36 -6 -110 -8 -154 -3 -13 1 -20 9 -21 24 -1 18 4 23 25 24 68
4 130 1 154 -8 44 -17 72 4 61 46 -5 17 -16 19 -102 20 -139 2 -140 2 -135 24
3 10 13 18 22 17 56 -4 61 0 57 45 l-4 42 39 -37 c22 -21 53 -45 69 -53 29
-15 30 -15 64 22 l35 38 -38 11 c-49 15 -94 39 -110 58 -11 13 -8 15 26 9 57
-9 85 -6 94 9 7 10 4 45 -5 55 -4 5 -70 4 -122 0 -50 -5 -51 -5 -51 23 0 21 5
28 21 29 55 4 93 3 120 -4 31 -9 46 5 46 42 0 34 -25 41 -83 26 -61 -16 -103
-17 -112 -3 -3 6 -18 10 -33 10 -19 0 -23 3 -13 9 9 6 10 11 2 15 -6 4 -11 15
-11 24 0 15 14 17 130 17 118 -1 130 1 136 18 3 10 3 28 0 40 -5 21 -10 22
-129 22 -78 0 -123 4 -122 10 18 60 18 60 -40 60 l-54 0 2 -35 2 -35 -90 0
-91 0 3 38 3 37 -49 0 c-47 0 -50 -2 -56 -30z m180 -130 c-3 -5 -8 -10 -11
-10 -2 0 -4 5 -4 10 0 6 5 10 11 10 5 0 7 -4 4 -10z m95 -9 c0 -11 7 -27 16
-35 14 -15 13 -16 -15 -16 -17 0 -34 -1 -38 -2 -10 -3 -24 52 -17 64 3 4 16 8
30 8 17 0 24 -6 24 -19z m46 -121 c16 0 21 -6 21 -29 0 -26 -3 -29 -26 -25
-70 11 -91 8 -91 -11 0 -8 -4 -15 -10 -15 -5 0 -10 6 -10 14 0 11 -11 14 -48
11 -47 -3 -49 -2 -49 23 0 26 2 27 53 25 30 -1 57 3 60 9 4 6 22 8 43 4 20 -3
45 -6 57 -6z m-290 -29 c-3 -29 -25 -38 -54 -22 -26 14 -59 3 -65 -21 -9 -34
2 -45 41 -42 l37 3 -45 -42 -45 -42 -8 60 c-4 36 -3 69 3 82 5 13 7 28 5 35
-4 10 13 13 64 14 69 0 69 0 67 -25z m196 -81 c4 -13 35 -15 63 -6 12 5 2 -9
-23 -32 l-42 -40 -35 31 c-38 33 -43 42 -20 33 8 -3 21 1 27 9 16 17 25 19 30
5z m-82 -7 c0 -1 -9 -7 -20 -13 -16 -8 -20 -8 -20 4 0 9 8 14 20 13 11 -1 20
-2 20 -4z m195 -80 c-1 -21 -3 -41 -4 -45 0 -3 -16 -6 -35 -5 l-34 1 36 43
c20 24 37 43 38 43 0 0 0 -17 -1 -37z"/>
</g>
</svg>
