<?xml version="1.0" standalone="no"?>
<!DOCTYPE svg PUBLIC "-//W3C//DTD SVG 20010904//EN"
 "http://www.w3.org/TR/2001/REC-SVG-20010904/DTD/svg10.dtd">
<svg version="1.0" xmlns="http://www.w3.org/2000/svg"
 width="101.000000pt" height="102.000000pt" viewBox="0 0 101.000000 102.000000"
 preserveAspectRatio="xMidYMid meet">
<metadata>
Created by potrace 1.16, written by Peter Selinger 2001-2019
</metadata>
<g transform="translate(0.000000,102.000000) scale(0.100000,-0.100000)"
fill="#000000" stroke="none">
<path d="M446 1009 c3 -6 3 -54 -1 -106 l-7 -95 -102 8 c-136 11 -166 10 -177
-7 -13 -20 -11 -96 3 -118 8 -14 8 -41 -1 -112 -6 -52 -13 -114 -15 -139 -10
-109 -47 -209 -97 -256 -16 -15 -29 -31 -29 -35 0 -7 84 -49 96 -49 2 0 19 28
38 63 46 84 78 188 82 267 1 36 6 92 10 125 5 33 8 87 9 120 l0 60 91 2 92 3
4 -33 c3 -30 2 -32 -32 -34 -19 -1 -48 -2 -64 -3 -45 -2 -76 -18 -76 -39 0
-40 10 -48 48 -44 86 9 132 8 128 -4 -9 -23 26 -93 50 -99 19 -5 21 -9 14 -30
-5 -13 -7 -30 -4 -38 9 -25 -62 -29 -192 -12 -35 4 -43 2 -47 -13 -14 -53 22
-93 64 -71 17 9 135 8 144 -2 2 -2 -9 -20 -25 -40 -38 -45 -119 -86 -184 -92
-26 -3 -51 -7 -54 -10 -9 -10 63 -84 83 -85 35 -2 161 65 203 107 22 22 47 57
57 80 12 27 25 40 39 41 12 1 44 3 71 5 28 3 62 2 77 0 25 -5 26 -8 22 -46 -9
-76 -17 -82 -102 -80 l-42 1 20 -39 c11 -22 20 -46 20 -54 0 -10 9 -14 33 -11
142 12 155 33 181 276 5 40 5 41 -22 33 -23 -7 -138 -9 -230 -3 -23 1 -23 2
-6 45 3 6 -5 15 -18 21 l-23 11 25 1 c14 1 69 3 122 4 109 2 124 10 152 79
l16 36 -44 25 -44 24 -11 -39 c-19 -62 -64 -73 -220 -56 -19 2 -25 9 -25 31
-1 18 3 27 14 27 8 1 57 2 108 3 103 2 117 10 100 58 -10 28 -33 44 -50 33 -5
-4 -29 -7 -51 -9 -23 -1 -46 -3 -52 -5 -5 -1 -27 -2 -47 -1 -32 1 -38 4 -38
24 0 22 2 22 144 23 l145 1 -14 -34 c-13 -31 -13 -33 8 -38 12 -3 35 -4 52 -2
25 2 32 9 48 52 32 84 32 103 3 111 -15 3 -38 3 -53 -2 -16 -4 -95 -8 -178 -8
l-150 -1 -1 25 -1 25 165 2 c176 1 185 4 180 53 -3 21 -10 26 -51 33 -27 4
-55 4 -65 -2 -32 -17 -160 -25 -177 -11 -8 7 -24 10 -35 7 -23 -6 -25 5 -7 33
10 17 9 22 -3 30 -21 14 -103 13 -94 -1z"/>
</g>
</svg>
