<?xml version="1.0" standalone="no"?>
<!DOCTYPE svg PUBLIC "-//W3C//DTD SVG 20010904//EN"
 "http://www.w3.org/TR/2001/REC-SVG-20010904/DTD/svg10.dtd">
<svg version="1.0" xmlns="http://www.w3.org/2000/svg"
 width="101.000000pt" height="102.000000pt" viewBox="0 0 101.000000 102.000000"
 preserveAspectRatio="xMidYMid meet">
<metadata>
Created by potrace 1.16, written by Peter Selinger 2001-2019
</metadata>
<g transform="translate(0.000000,102.000000) scale(0.100000,-0.100000)"
fill="#000000" stroke="none">
<path d="M410 1000 c0 -11 5 -20 10 -20 11 0 13 -55 4 -121 l-6 -44 -49 3
c-31 3 -49 0 -49 -7 0 -6 -11 -11 -25 -11 -14 0 -25 5 -25 10 0 6 -30 10 -70
10 -66 0 -70 -1 -76 -25 -3 -14 -4 -40 0 -58 7 -42 9 -235 3 -312 -7 -81 -29
-148 -72 -219 -19 -32 -34 -60 -33 -60 2 -1 24 -11 49 -23 l47 -22 32 70 c55
119 63 161 61 298 -1 75 2 128 9 136 6 7 9 37 8 66 l-3 54 96 3 97 2 4 -35 c5
-40 8 -39 -89 -35 -69 2 -73 1 -84 -23 -6 -14 -9 -37 -5 -51 7 -28 -3 -28 141
-11 l41 5 1 -40 c2 -51 8 -59 49 -76 25 -11 40 -12 54 -4 11 6 67 8 137 6 65
-2 126 0 135 5 18 10 40 46 52 87 5 16 3 22 -7 22 -8 0 -26 9 -40 20 -14 11
-27 20 -30 20 -3 0 -8 -16 -11 -35 -4 -19 -15 -39 -25 -45 -26 -13 -160 -14
-211 -1 -3 0 -6 11 -6 24 -1 20 3 22 48 22 31 0 52 5 57 14 7 10 22 12 59 7
46 -6 51 -4 57 14 4 12 4 32 1 45 -5 19 -12 23 -43 23 -21 0 -42 -2 -46 -5 -5
-3 -28 -7 -50 -9 -23 -2 -53 -5 -67 -6 -21 -3 -25 2 -28 27 l-3 30 146 1 c122
1 145 -2 140 -14 -15 -40 -17 -62 -4 -63 87 -9 85 -9 97 24 6 18 13 43 16 57
2 14 8 40 12 58 6 32 -3 41 -31 31 -5 -2 -93 -4 -195 -4 l-185 0 -1 25 -1 25
170 2 c182 2 190 4 185 53 -3 20 -11 26 -43 33 -23 4 -49 4 -61 -2 -37 -17
-172 -25 -189 -11 -8 7 -23 10 -34 7 -15 -4 -18 0 -17 18 2 12 6 27 9 32 9 15
-16 23 -69 23 -37 0 -44 -3 -44 -20z"/>
<path d="M367 409 c-3 -11 0 -33 6 -49 9 -23 9 -35 -1 -50 -6 -11 -12 -26 -12
-34 0 -38 -67 -90 -131 -101 -18 -3 -35 -7 -36 -9 -2 -2 14 -21 36 -43 39 -39
41 -39 77 -27 96 33 157 124 156 232 0 17 4 22 15 18 8 -3 23 -1 34 5 12 6 37
8 59 4 43 -7 40 1 43 -140 2 -88 2 -90 31 -103 16 -8 40 -14 55 -13 14 1 53 2
85 1 89 -1 121 13 145 64 12 23 21 49 21 57 0 11 -50 48 -91 67 -4 2 -9 -12
-13 -31 -3 -19 -17 -44 -31 -57 -21 -20 -28 -22 -50 -12 -14 6 -31 9 -39 6
-25 -10 -37 85 -23 182 l6 42 -132 -1 c-73 0 -148 2 -169 6 -30 4 -37 2 -41
-14z"/>
</g>
</svg>
