<?xml version="1.0" standalone="no"?>
<!DOCTYPE svg PUBLIC "-//W3C//DTD SVG 20010904//EN"
 "http://www.w3.org/TR/2001/REC-SVG-20010904/DTD/svg10.dtd">
<svg version="1.0" xmlns="http://www.w3.org/2000/svg"
 width="101.000000pt" height="103.000000pt" viewBox="0 0 101.000000 103.000000"
 preserveAspectRatio="xMidYMid meet">
<metadata>
Created by potrace 1.16, written by Peter Selinger 2001-2019
</metadata>
<g transform="translate(0.000000,103.000000) scale(0.100000,-0.100000)"
fill="#000000" stroke="none">
<path d="M416 1019 c3 -6 3 -53 -1 -104 l-7 -93 -50 -6 c-31 -4 -54 -3 -57 3
-4 5 -41 11 -84 13 -61 2 -80 0 -87 -12 -13 -20 -13 -107 0 -115 11 -7 12
-144 1 -160 -3 -5 -7 -32 -8 -60 -6 -148 -31 -242 -85 -317 -16 -23 -19 -33
-9 -36 7 -2 28 -18 46 -34 l34 -29 20 40 c27 52 73 187 78 231 3 19 4 89 4
154 -1 68 3 124 9 131 6 7 9 37 8 66 l-3 54 96 3 97 2 4 -31 5 -30 -63 7 c-82
8 -110 1 -118 -32 -12 -47 0 -62 47 -58 122 10 134 9 130 -6 -7 -25 26 -90 50
-99 12 -5 45 -6 72 -4 28 3 100 6 162 7 91 2 116 5 132 20 18 17 48 74 40 79
-2 1 -22 12 -45 24 l-41 22 -14 -32 c-20 -45 -51 -57 -134 -52 -112 8 -120 9
-123 25 -2 12 16 18 90 28 51 7 105 12 120 12 21 0 29 6 34 25 12 48 1 55 -73
50 -186 -11 -178 -12 -181 15 l-3 25 156 1 c85 1 155 0 155 -1 0 -1 -7 -19
-15 -38 -15 -35 -15 -36 13 -40 65 -11 78 -8 90 26 6 17 13 43 16 57 2 14 7
37 11 52 5 21 3 27 -14 33 -11 3 -26 3 -33 -2 -7 -4 -96 -8 -198 -8 -178 0
-185 1 -186 20 -1 19 5 20 180 20 109 0 184 4 188 10 15 20 8 64 -11 75 -24
13 -118 13 -126 1 -8 -13 -166 -13 -182 1 -7 6 -22 8 -32 5 -20 -5 -21 6 -6
44 5 12 -2 18 -26 23 -49 9 -81 7 -73 -5z"/>
<path d="M825 462 c-12 -12 -376 -19 -456 -8 -42 5 -47 4 -52 -15 -3 -12 -1
-31 5 -44 6 -13 8 -35 4 -49 -5 -22 -9 -24 -36 -16 -55 16 -86 -9 -73 -60 6
-21 17 -24 69 -21 35 3 35 3 36 -92 1 -56 5 -57 98 -40 53 9 365 4 394 -7 34
-13 53 -4 59 27 11 57 5 59 -111 55 -105 -3 -286 -4 -328 -1 -18 1 -22 7 -21
34 1 25 5 33 21 34 47 4 227 2 311 -3 162 -10 192 -8 198 15 3 11 3 27 0 38
-6 23 -36 25 -198 15 -84 -5 -263 -7 -311 -3 -30 2 -30 56 0 58 42 3 223 2
323 -2 101 -3 101 -3 106 21 8 44 -16 85 -38 64z"/>
</g>
</svg>
