<?xml version="1.0" standalone="no"?>
<!DOCTYPE svg PUBLIC "-//W3C//DTD SVG 20010904//EN"
 "http://www.w3.org/TR/2001/REC-SVG-20010904/DTD/svg10.dtd">
<svg version="1.0" xmlns="http://www.w3.org/2000/svg"
 width="101.000000pt" height="102.000000pt" viewBox="0 0 101.000000 102.000000"
 preserveAspectRatio="xMidYMid meet">
<metadata>
Created by potrace 1.16, written by Peter Selinger 2001-2019
</metadata>
<g transform="translate(0.000000,102.000000) scale(0.100000,-0.100000)"
fill="#000000" stroke="none">
<path d="M407 1000 c3 -11 2 -53 -2 -93 l-6 -74 -140 3 c-145 3 -149 2 -139
-41 1 -5 2 -34 1 -63 -1 -30 3 -60 10 -68 13 -16 6 -125 -11 -169 -6 -17 -6
-33 2 -50 8 -18 8 -28 -1 -39 -7 -8 -14 -32 -17 -55 -5 -46 -28 -104 -55 -143
-26 -35 -24 -47 16 -91 l34 -39 25 49 c26 52 65 160 73 203 2 14 6 54 8 90 2
36 7 97 12 135 4 39 8 98 8 133 l0 62 42 0 c23 0 43 5 45 11 2 6 21 8 53 4 49
-7 50 -8 51 -41 l1 -35 -86 3 -85 3 -2 -32 c-3 -59 13 -68 99 -57 l76 10 -6
-27 c-7 -37 11 -66 47 -74 17 -4 27 -11 24 -16 -3 -6 0 -17 7 -25 6 -8 9 -18
5 -22 -11 -11 -186 -12 -206 -2 -24 13 -57 2 -63 -21 -13 -47 24 -80 65 -58
11 6 39 7 65 3 l46 -7 -33 -17 -32 -17 65 -54 66 -54 -35 -12 c-19 -7 -53 -14
-74 -17 -21 -3 -47 -10 -59 -18 -16 -10 -27 -10 -51 -1 -26 10 -70 8 -70 -3 0
-2 12 -23 27 -46 28 -43 31 -44 88 -35 28 5 162 45 205 61 40 16 70 14 137 -8
71 -22 173 -48 214 -53 34 -4 38 -2 63 42 15 26 26 48 24 50 -2 2 -35 7 -73
10 -39 4 -81 9 -95 11 -14 2 -44 6 -68 8 -24 3 -47 8 -51 11 -5 2 9 24 31 47
22 24 47 55 55 69 17 29 25 31 124 30 59 -1 67 1 72 19 3 11 3 29 0 39 -4 18
-16 19 -146 19 -183 0 -183 0 -196 29 -6 13 -11 26 -11 27 0 5 39 7 110 7 76
-1 118 15 141 53 21 35 24 56 8 56 -6 0 -24 9 -40 20 l-28 21 -14 -34 c-8 -18
-21 -34 -28 -35 -8 -1 -36 -6 -64 -12 -27 -6 -61 -7 -75 -3 -23 6 -32 8 -70
12 -9 0 -16 9 -16 19 0 19 12 21 139 21 85 0 97 6 95 48 -2 45 -37 66 -67 39
-14 -13 -34 -16 -92 -14 -72 3 -74 4 -74 28 l0 25 158 1 c131 0 157 -2 152
-14 -18 -48 -16 -57 15 -69 17 -7 38 -9 45 -6 11 4 70 164 62 169 -1 0 -46 -3
-101 -9 -70 -6 -105 -6 -120 2 -13 7 -61 10 -121 9 -90 -3 -101 -1 -101 15 0
13 9 17 43 17 24 0 43 5 43 10 0 6 16 10 35 10 19 0 35 -4 35 -10 0 -11 69
-13 158 -4 66 7 80 22 67 65 -5 16 -12 19 -28 15 -45 -13 -237 -18 -251 -7 -7
6 -34 10 -59 8 -46 -3 -46 -2 -44 28 2 29 1 30 -45 33 -43 3 -46 1 -41 -18z
m225 -629 c16 -6 15 -10 -13 -44 -48 -58 -64 -63 -108 -32 -21 14 -49 37 -62
52 -22 23 -22 25 -4 19 11 -3 26 -2 34 3 16 11 127 12 153 2z"/>
</g>
</svg>
