<?xml version="1.0" standalone="no"?>
<!DOCTYPE svg PUBLIC "-//W3C//DTD SVG 20010904//EN"
 "http://www.w3.org/TR/2001/REC-SVG-20010904/DTD/svg10.dtd">
<svg version="1.0" xmlns="http://www.w3.org/2000/svg"
 width="101.000000pt" height="101.000000pt" viewBox="0 0 101.000000 101.000000"
 preserveAspectRatio="xMidYMid meet">
<metadata>
Created by potrace 1.16, written by Peter Selinger 2001-2019
</metadata>
<g transform="translate(0.000000,101.000000) scale(0.100000,-0.100000)"
fill="#000000" stroke="none">
<path d="M635 925 l0 -85 -60 7 c-33 4 -69 7 -81 6 -17 -1 -19 4 -16 30 7 43
-17 57 -99 57 -37 0 -70 -4 -74 -9 -7 -12 -172 -13 -180 -1 -3 5 -23 8 -45 8
-45 0 -53 -12 -44 -67 6 -35 8 -37 42 -38 20 -1 44 2 52 7 13 7 16 -9 20 -118
10 -283 -11 -402 -90 -517 l-29 -42 39 -38 c22 -21 41 -37 44 -34 29 32 104
231 112 299 3 19 6 51 9 70 12 102 15 199 5 205 -13 8 -13 48 1 62 6 6 9 33 8
60 -4 46 -3 48 21 48 25 0 25 0 28 -105 1 -58 2 -145 2 -195 -3 -283 1 -359
15 -375 21 -23 84 -41 104 -30 9 4 59 7 111 5 202 -9 336 -4 367 13 24 13 73
73 73 89 0 5 -18 19 -40 32 -22 12 -40 26 -40 30 0 5 13 14 30 21 l29 12 -39
78 c-22 43 -44 81 -50 85 -6 4 -26 1 -45 -5 l-36 -12 20 -32 c18 -29 18 -32 3
-33 -9 0 -34 -3 -54 -6 -36 -6 -38 -5 -44 27 -3 19 -1 43 5 54 6 11 8 28 4 38
-5 13 -3 16 10 11 10 -4 28 -1 42 5 19 8 31 7 58 -5 18 -9 42 -14 53 -11 18 5
19 16 21 164 2 151 1 159 -18 165 -11 4 -30 0 -44 -9 -14 -9 -45 -16 -73 -16
l-49 0 4 43 c1 23 5 63 8 90 l5 47 -47 0 -48 0 0 -85z m-173 -144 c-1 -34 2
-62 8 -66 13 -8 13 -126 -1 -184 -5 -24 -7 -46 -4 -49 3 -4 24 -5 47 -5 43 2
61 17 53 43 -4 12 4 15 34 15 42 0 41 3 44 -82 0 -23 -2 -45 -5 -48 -13 -13
-148 -26 -166 -16 -10 5 -28 8 -38 5 -19 -5 -20 -7 -5 -55 15 -47 17 -49 46
-43 17 4 41 9 55 11 14 2 36 6 50 8 24 4 79 12 130 20 14 2 51 6 83 9 55 6 58
5 67 -19 19 -49 -12 -103 -62 -110 -12 -1 -46 -8 -73 -14 -47 -11 -166 -9
-245 3 -19 4 -44 7 -55 9 -35 4 -46 43 -39 145 4 65 3 92 -5 92 -6 0 -11 18
-11 45 0 25 5 45 10 45 6 0 10 55 10 144 l0 145 38 4 c20 2 37 4 37 5 0 1 -1
-25 -3 -57z m174 -86 l1 -70 -38 3 -39 4 0 53 c0 29 -2 59 -5 67 -4 9 6 13 37
13 l43 0 1 -70z m171 0 l3 -70 -51 0 c-45 0 -50 2 -45 20 3 11 6 43 6 70 l0
50 43 0 42 0 2 -70z"/>
</g>
</svg>
