<?xml version="1.0" standalone="no"?>
<!DOCTYPE svg PUBLIC "-//W3C//DTD SVG 20010904//EN"
 "http://www.w3.org/TR/2001/REC-SVG-20010904/DTD/svg10.dtd">
<svg version="1.0" xmlns="http://www.w3.org/2000/svg"
 width="101.000000pt" height="101.000000pt" viewBox="0 0 101.000000 101.000000"
 preserveAspectRatio="xMidYMid meet">
<metadata>
Created by potrace 1.16, written by Peter Selinger 2001-2019
</metadata>
<g transform="translate(0.000000,101.000000) scale(0.100000,-0.100000)"
fill="#000000" stroke="none">
<path d="M249 1003 c-11 -3 -14 -12 -11 -33 2 -17 1 -54 -2 -83 -8 -59 -2 -57
-97 -41 -41 7 -75 -17 -64 -45 6 -13 7 -219 4 -369 -1 -31 5 -36 47 -35 44 1
46 3 47 45 1 31 4 34 33 35 28 1 32 -3 33 -26 3 -37 1 -144 -2 -147 -4 -4 -81
-16 -121 -19 -49 -4 -59 -15 -51 -57 12 -62 8 -62 191 -9 l169 48 9 -23 c6
-13 15 -24 21 -24 15 0 75 21 75 25 0 15 -64 175 -69 175 -5 0 -23 -5 -40 -11
-23 -8 -31 -16 -28 -28 2 -9 6 -22 8 -30 3 -9 -11 -18 -42 -26 l-47 -12 -6 48
c-4 28 -2 57 4 68 5 11 8 26 5 33 -4 10 4 14 30 15 27 1 35 -3 35 -17 0 -20
26 -30 63 -23 18 4 27 13 31 35 10 49 7 148 -4 148 -6 0 -10 32 -10 75 0 43 4
75 10 75 19 0 11 59 -9 70 -23 12 -64 13 -75 3 -4 -4 -22 -8 -40 -8 -30 0 -32
2 -29 30 2 17 6 44 8 60 2 17 6 38 10 47 11 27 -36 45 -86 31z m-33 -253 c9 0
14 -11 14 -34 0 -19 5 -36 11 -38 8 -3 9 -23 4 -65 -7 -61 -7 -61 -39 -60
l-32 1 1 103 c0 82 3 102 13 98 8 -3 20 -5 28 -5z m172 -95 l2 -104 -40 2
c-37 1 -40 4 -46 34 -3 18 -2 39 4 46 6 6 9 35 9 64 l-2 52 35 4 c19 2 35 4
35 5 0 1 1 -45 3 -103z"/>
<path d="M623 980 c-27 -11 -27 -11 -8 -57 15 -37 18 -47 34 -121 4 -23 10
-45 12 -47 8 -8 89 19 93 31 3 7 -1 26 -9 41 -8 15 -16 39 -19 53 -2 14 -11
43 -19 65 -15 43 -40 53 -84 35z"/>
<path d="M795 890 c-3 -5 -5 -38 -4 -72 3 -118 -24 -255 -73 -371 -19 -43 -22
-46 -33 -30 -19 28 -63 157 -70 205 -3 24 -6 77 -6 118 0 107 -2 112 -52 106
-23 -3 -45 -5 -49 -5 -7 -1 -4 -75 7 -141 3 -19 7 -46 9 -60 8 -55 58 -208 85
-262 l29 -56 -27 -25 c-38 -36 -147 -104 -187 -117 -19 -6 -34 -15 -34 -18 1
-6 73 -62 92 -70 3 -2 53 35 110 81 l104 84 30 -24 c74 -62 178 -126 182 -113
3 7 19 29 37 49 l33 36 -86 42 c-48 24 -98 52 -111 63 l-24 21 36 77 c44 94
75 201 92 312 11 71 15 89 25 114 5 15 10 29 10 31 0 4 -69 25 -102 32 -9 1
-20 -2 -23 -7z"/>
</g>
</svg>
