<?xml version="1.0" standalone="no"?>
<!DOCTYPE svg PUBLIC "-//W3C//DTD SVG 20010904//EN"
 "http://www.w3.org/TR/2001/REC-SVG-20010904/DTD/svg10.dtd">
<svg version="1.0" xmlns="http://www.w3.org/2000/svg"
 width="101.000000pt" height="101.000000pt" viewBox="0 0 101.000000 101.000000"
 preserveAspectRatio="xMidYMid meet">
<metadata>
Created by potrace 1.16, written by Peter Selinger 2001-2019
</metadata>
<g transform="translate(0.000000,101.000000) scale(0.100000,-0.100000)"
fill="#000000" stroke="none">
<path d="M248 1004 c-19 -6 -25 -34 -8 -34 11 0 13 -81 4 -118 -6 -21 -10 -22
-85 -18 l-79 5 0 -44 c0 -24 5 -45 12 -47 8 -3 9 -43 1 -164 -5 -87 -8 -161
-6 -163 2 -3 20 -4 40 -4 38 1 56 18 47 44 -3 13 3 18 28 21 l33 3 -2 -50 c0
-27 3 -55 9 -62 15 -19 0 -88 -20 -90 -104 -11 -152 -20 -152 -32 1 -24 31
-86 42 -84 7 0 80 19 163 42 82 23 152 41 155 41 3 0 12 -16 19 -35 7 -19 16
-35 20 -35 20 0 81 31 81 41 0 23 -93 189 -106 189 -11 0 -60 -18 -73 -27 -2
-1 4 -14 13 -29 18 -26 16 -36 -8 -40 -7 -1 -22 -5 -33 -8 -18 -6 -21 0 -26
55 -4 34 -3 69 3 79 5 10 8 25 5 33 -4 10 3 13 30 13 19 -1 35 -6 35 -12 0
-15 31 -23 65 -17 22 5 25 10 21 32 -3 14 -8 88 -12 163 -5 119 -4 139 10 153
9 9 14 21 11 26 -4 5 5 9 18 9 13 0 44 3 68 6 l44 6 -3 -80 c-2 -49 1 -83 7
-87 13 -8 15 -52 2 -59 -12 -8 -13 -114 -1 -121 13 -8 13 -152 -1 -160 -6 -4
-9 -50 -7 -125 3 -130 4 -131 65 -123 33 5 30 -3 32 113 0 14 -1 103 -2 198
l-2 174 34 -39 c18 -21 58 -73 88 -115 59 -84 57 -83 113 -39 22 18 23 21 10
45 -16 31 -173 231 -189 240 -6 4 -22 -1 -36 -10 l-27 -17 7 36 c5 25 3 37 -4
37 -6 0 -11 11 -11 25 0 14 5 25 10 25 6 0 10 17 10 39 l0 38 75 6 c41 4 86 2
100 -3 46 -17 73 11 60 63 -5 19 -15 26 -46 31 -22 3 -48 2 -58 -3 -18 -10
-274 -6 -342 5 -26 4 -41 1 -53 -11 -20 -21 -21 -59 -1 -79 8 -8 15 -16 15
-18 0 -2 -30 -3 -67 -3 l-68 0 6 80 c4 44 5 81 4 83 -5 6 -71 10 -87 6z m139
-339 l3 -90 -35 0 -34 0 2 91 2 90 30 0 30 -1 2 -90z m-153 24 c11 -112 11
-116 -26 -111 l-33 4 0 84 c0 84 0 84 26 84 25 0 27 -4 33 -61z"/>
</g>
</svg>
