<?xml version="1.0" standalone="no"?>
<!DOCTYPE svg PUBLIC "-//W3C//DTD SVG 20010904//EN"
 "http://www.w3.org/TR/2001/REC-SVG-20010904/DTD/svg10.dtd">
<svg version="1.0" xmlns="http://www.w3.org/2000/svg"
 width="101.000000pt" height="101.000000pt" viewBox="0 0 101.000000 101.000000"
 preserveAspectRatio="xMidYMid meet">
<metadata>
Created by potrace 1.16, written by Peter Selinger 2001-2019
</metadata>
<g transform="translate(0.000000,101.000000) scale(0.100000,-0.100000)"
fill="#000000" stroke="none">
<path d="M710 994 c-12 -4 -14 -18 -12 -64 3 -39 0 -60 -7 -60 -6 0 -11 -18
-11 -40 0 -23 5 -40 11 -40 11 0 9 -104 -2 -114 -2 -2 -29 -1 -59 1 l-56 5 2
123 c1 68 5 128 8 134 15 23 -77 46 -99 24 -17 -16 -20 -49 -5 -58 12 -7 12
-173 -1 -180 -12 -8 -12 -142 1 -150 13 -8 13 -52 -1 -61 -7 -4 -9 -50 -6
-145 3 -77 2 -139 -1 -139 -4 0 -20 34 -35 75 -16 41 -32 75 -38 75 -5 0 -9 5
-9 10 0 6 6 10 14 10 21 0 36 153 16 165 -13 8 -13 52 0 60 10 6 13 122 4 155
-3 11 -20 15 -71 15 l-68 0 2 60 c2 33 6 72 9 87 5 21 2 27 -16 33 -12 4 -37
4 -56 1 l-34 -7 5 -88 5 -88 -70 5 c-70 5 -78 1 -70 -33 1 -5 2 -35 1 -67 -1
-31 3 -59 9 -63 12 -8 13 -52 1 -59 -5 -3 -9 -51 -8 -105 2 -108 5 -114 61
-104 22 5 25 9 21 33 -4 24 -1 28 23 32 27 4 27 3 25 -47 0 -27 3 -55 9 -62
18 -22 5 -58 -22 -60 -34 -4 -112 -11 -128 -12 -12 -1 -11 -48 3 -83 7 -18 31
-17 140 7 129 29 176 34 193 22 8 -7 22 -6 39 2 30 14 41 8 23 -13 -10 -13 -8
-21 12 -45 26 -33 40 -38 57 -17 11 14 155 116 163 116 2 0 4 -18 5 -40 2 -51
8 -59 49 -76 26 -11 39 -12 55 -3 12 6 36 8 54 5 50 -10 83 8 105 56 11 24 20
48 20 55 0 9 -46 43 -81 61 -4 1 -12 -18 -18 -43 -6 -25 -15 -45 -19 -46 -4
-1 -20 -2 -37 -3 l-30 -1 2 165 1 164 59 49 c32 27 73 55 91 63 17 8 32 18 32
22 0 4 -18 25 -39 46 l-40 39 -28 -34 c-15 -18 -40 -47 -55 -64 l-28 -30 5
159 c3 98 9 164 16 173 13 15 14 15 -24 31 -28 12 -40 13 -67 6z m-500 -349
c0 -34 -3 -76 -6 -92 -5 -26 -9 -28 -40 -25 l-34 4 0 59 c0 33 4 59 10 59 6 0
10 12 10 28 0 23 4 27 30 28 l30 1 0 -62z m125 -28 l0 -92 -28 0 c-26 0 -28 3
-23 29 3 16 6 55 6 87 0 52 2 58 23 62 12 2 22 5 22 6 0 0 0 -41 0 -92z m351
-177 c1 -80 -1 -135 -3 -122 -2 12 -7 22 -10 22 -3 0 -26 -15 -52 -34 l-46
-34 0 156 0 157 55 0 55 0 1 -145z m-346 -21 c0 -9 10 -20 23 -24 22 -6 21 -7
-5 -17 -32 -11 -33 -14 -14 -60 11 -26 12 -35 3 -35 -7 0 -24 -4 -38 -7 -25
-7 -26 -6 -33 43 -4 30 -2 59 4 70 5 11 7 26 4 34 -4 10 3 14 25 13 22 -1 31
-6 31 -17z"/>
</g>
</svg>
