<?xml version="1.0" standalone="no"?>
<!DOCTYPE svg PUBLIC "-//W3C//DTD SVG 20010904//EN"
 "http://www.w3.org/TR/2001/REC-SVG-20010904/DTD/svg10.dtd">
<svg version="1.0" xmlns="http://www.w3.org/2000/svg"
 width="101.000000pt" height="101.000000pt" viewBox="0 0 101.000000 101.000000"
 preserveAspectRatio="xMidYMid meet">
<metadata>
Created by potrace 1.16, written by Peter Selinger 2001-2019
</metadata>
<g transform="translate(0.000000,101.000000) scale(0.100000,-0.100000)"
fill="#000000" stroke="none">
<path d="M249 1003 c-11 -3 -15 -12 -11 -28 2 -14 1 -53 -2 -87 -7 -60 -8 -63
-34 -62 -15 1 -41 4 -59 8 -44 10 -77 -8 -68 -37 3 -12 6 -47 5 -79 0 -31 4
-59 10 -63 12 -8 13 -52 1 -60 -5 -3 -10 -36 -10 -73 0 -37 -1 -74 -2 -82 -6
-47 13 -63 66 -53 24 5 26 9 21 47 -4 42 -4 42 29 43 29 1 33 -2 34 -26 3 -47
1 -145 -3 -149 -8 -7 -59 -14 -164 -21 -9 -1 -11 -8 -7 -21 6 -17 12 -56 14
-84 1 -4 9 -6 19 -3 80 26 307 86 316 84 6 -1 16 -8 22 -15 8 -12 16 -11 47 2
20 8 37 19 37 23 0 4 -18 41 -40 81 -22 40 -40 75 -40 78 0 2 10 4 21 4 19 0
21 4 15 33 -14 62 -18 214 -7 221 6 4 11 19 11 34 0 24 1 25 14 7 12 -17 24
-18 143 -12 l131 6 -3 -28 c-1 -15 -5 -32 -8 -38 -4 -6 -6 -22 -6 -34 1 -13
-1 -40 -5 -59 -7 -40 -47 -172 -51 -168 -16 18 -57 163 -56 198 1 73 -3 79
-59 78 -28 0 -52 -4 -55 -8 -7 -12 51 -202 85 -277 l29 -64 -47 -34 c-47 -34
-148 -80 -196 -89 -68 -12 -68 -14 -20 -62 l45 -44 81 42 c44 23 106 60 137
83 l57 42 36 -31 c40 -35 157 -106 173 -106 8 1 62 67 73 91 2 4 -13 10 -32
13 -41 8 -169 70 -185 90 -10 11 -8 23 7 53 20 38 60 150 67 188 3 11 7 34 11
50 5 26 7 41 13 98 1 8 15 11 44 9 51 -3 65 5 73 44 8 41 -18 69 -55 59 -35
-9 -212 -12 -217 -3 -2 3 12 12 31 18 19 6 35 18 35 26 0 12 -55 130 -66 143
-4 4 -94 -29 -94 -34 0 -3 16 -34 36 -70 20 -36 34 -71 31 -78 -5 -14 -73 -15
-119 -2 -17 4 -38 2 -56 -8 -27 -13 -29 -13 -25 3 4 13 -4 19 -31 24 -20 4
-41 4 -46 1 -6 -4 -25 -8 -43 -10 l-32 -3 1 57 c1 31 5 69 9 85 11 40 -18 55
-76 39z m-9 -317 c0 -34 -3 -78 -6 -98 -6 -35 -8 -37 -43 -34 l-36 2 -3 67
c-2 42 1 67 8 67 5 0 10 12 10 28 0 24 4 27 35 28 l35 1 0 -61z m145 -35 l0
-100 -38 2 c-39 1 -39 2 -33 37 3 19 6 61 6 92 0 59 0 59 55 67 6 0 10 -38 10
-98z m-6 -184 c-3 -26 2 -36 19 -40 12 -3 9 -7 -15 -17 l-33 -12 17 -29 c20
-33 19 -34 -23 -43 -31 -7 -32 -6 -38 38 -4 26 -3 53 3 65 6 11 9 26 6 33 -4
10 4 14 30 15 21 1 35 -4 34 -10z"/>
</g>
</svg>
