<?xml version="1.0" standalone="no"?>
<!DOCTYPE svg PUBLIC "-//W3C//DTD SVG 20010904//EN"
 "http://www.w3.org/TR/2001/REC-SVG-20010904/DTD/svg10.dtd">
<svg version="1.0" xmlns="http://www.w3.org/2000/svg"
 width="101.000000pt" height="101.000000pt" viewBox="0 0 101.000000 101.000000"
 preserveAspectRatio="xMidYMid meet">
<metadata>
Created by potrace 1.16, written by Peter Selinger 2001-2019
</metadata>
<g transform="translate(0.000000,101.000000) scale(0.100000,-0.100000)"
fill="#000000" stroke="none">
<path d="M145 950 c-12 -57 -2 -67 70 -68 36 0 67 4 71 9 6 10 74 10 115 0
l27 -6 -17 -45 -17 -45 -144 2 c-80 1 -153 4 -162 8 -13 5 -20 0 -28 -21 -15
-40 -5 -72 26 -80 34 -9 117 1 122 15 5 14 52 14 52 0 0 -7 15 -9 43 -5 l42 7
-49 -45 c-56 -51 -149 -100 -224 -117 l-50 -12 31 -41 c18 -23 33 -43 35 -45
1 -3 27 7 57 22 l54 26 8 -22 c4 -12 8 -29 8 -37 1 -8 5 -27 9 -43 5 -18 3
-40 -7 -65 -20 -49 -9 -66 39 -65 39 1 56 16 46 41 -4 12 -1 14 12 9 10 -4 26
-2 37 4 11 6 39 7 63 4 36 -6 44 -11 44 -28 1 -12 2 -33 4 -46 2 -21 -3 -27
-30 -34 -21 -7 -40 -6 -55 0 -17 8 -39 7 -81 -4 -35 -9 -69 -12 -85 -7 -42 12
-110 19 -117 12 -2 -2 4 -27 12 -55 l15 -52 47 5 c26 3 63 8 82 10 19 3 67 8
105 10 39 2 102 6 140 9 39 3 114 6 169 8 l98 3 26 -32 26 -32 45 31 45 31
-89 84 c-50 46 -81 81 -70 78 38 -11 45 6 48 101 l2 91 48 -19 c26 -11 53 -19
60 -19 7 0 25 21 40 47 31 51 26 63 -28 62 -72 -2 -174 41 -227 98 l-27 28
132 0 c80 -1 135 3 139 10 24 33 -8 93 -41 76 -29 -16 -159 -25 -175 -12 -9 7
-51 10 -120 9 -68 -2 -105 1 -103 7 3 6 10 26 17 46 10 28 17 35 32 31 10 -2
25 1 33 8 15 12 195 8 242 -6 25 -7 38 21 28 64 l-6 27 -154 2 c-98 2 -155 -1
-155 -7 0 -6 -34 -10 -80 -10 -47 0 -80 4 -80 10 0 6 -18 10 -40 10 -22 0 -40
-4 -40 -10 0 -5 -25 -10 -55 -10 -30 0 -55 5 -55 10 0 24 -29 7 -35 -20z m451
-281 c19 -26 48 -59 63 -72 l29 -24 -77 3 c-71 3 -100 16 -74 33 6 3 13 16 17
28 9 29 -24 47 -69 39 -39 -8 -44 -17 -34 -69 l7 -39 -46 6 c-24 3 -54 6 -66
6 -18 0 -10 12 44 68 63 65 66 67 118 68 51 2 53 1 88 -47z m-141 -218 l0 -49
-42 -7 c-24 -3 -51 -1 -62 4 -11 6 -26 9 -33 6 -10 -4 -13 7 -13 42 l0 48 75
3 75 2 0 -49z m253 27 c1 -13 2 -34 4 -48 3 -22 -2 -25 -47 -33 -31 -5 -58 -4
-72 2 -13 6 -29 8 -38 5 -12 -5 -14 3 -13 40 2 45 2 45 43 49 110 10 123 8
123 -15z m-38 -147 l25 -8 -27 -13 c-36 -17 -35 -24 4 -51 l32 -23 -39 -9
c-22 -4 -51 -5 -65 0 -14 4 -34 7 -45 7 -15 1 -19 7 -17 26 2 14 3 35 4 48 0
16 5 21 17 18 9 -3 23 -1 31 4 17 11 44 11 80 1z"/>
</g>
</svg>
