<?xml version="1.0" standalone="no"?>
<!DOCTYPE svg PUBLIC "-//W3C//DTD SVG 20010904//EN"
 "http://www.w3.org/TR/2001/REC-SVG-20010904/DTD/svg10.dtd">
<svg version="1.0" xmlns="http://www.w3.org/2000/svg"
 width="101.000000pt" height="102.000000pt" viewBox="0 0 101.000000 102.000000"
 preserveAspectRatio="xMidYMid meet">
<metadata>
Created by potrace 1.16, written by Peter Selinger 2001-2019
</metadata>
<g transform="translate(0.000000,102.000000) scale(0.100000,-0.100000)"
fill="#000000" stroke="none">
<path d="M228 995 c2 -14 1 -54 -3 -90 l-6 -64 -65 2 c-68 2 -90 -10 -76 -42
4 -9 7 -98 7 -198 0 -199 -1 -197 59 -186 25 5 31 17 28 54 -1 12 6 16 23 15
17 -1 23 -6 20 -14 -3 -7 0 -22 5 -32 14 -27 1 -130 -17 -130 -7 0 -22 -5 -32
-12 -15 -9 -26 -9 -44 -1 -22 10 -67 8 -67 -4 0 -2 5 -25 11 -49 l12 -46 36 7
c20 4 47 9 61 12 14 2 36 6 50 9 14 3 36 7 50 9 43 7 74 14 98 21 18 5 24 2
29 -15 6 -23 18 -26 60 -11 27 10 27 10 -8 -23 -19 -19 -44 -39 -55 -46 -13
-8 -15 -14 -7 -17 7 -3 28 -16 47 -29 l35 -23 44 47 c86 91 117 182 122 346 1
44 5 91 10 104 9 29 -7 41 -57 41 -21 0 -38 2 -38 4 0 2 25 46 55 97 30 51 55
100 55 108 0 9 15 -11 33 -44 33 -61 160 -205 181 -205 13 0 92 77 85 83 -2 2
-28 17 -57 32 -63 34 -131 105 -165 171 -14 27 -26 52 -28 55 -2 4 4 16 14 27
18 20 18 21 -4 33 -13 7 -40 14 -60 16 -39 5 -43 -1 -55 -72 -9 -56 -80 -190
-128 -240 l-47 -50 7 92 6 93 -28 11 c-16 6 -49 9 -74 7 l-46 -3 4 65 c3 36 8
72 13 81 10 19 -13 29 -67 29 -28 0 -31 -3 -26 -25z m-11 -336 c2 -96 2 -96
-21 -92 -23 5 -24 8 -22 96 1 85 3 92 21 92 18 0 20 -7 22 -96z m153 39 c0
-35 -3 -79 -6 -98 -5 -32 -9 -35 -37 -34 l-32 1 -3 66 c-2 42 1 67 8 67 5 0
10 11 10 24 0 23 4 26 53 35 4 0 7 -27 7 -61z m162 -97 c13 20 14 16 18 -47 4
-86 4 -116 -3 -181 -6 -53 -35 -129 -45 -118 -3 3 -20 42 -38 88 l-32 82 -37
-2 c-21 -2 -40 -5 -42 -7 -2 -2 3 -21 12 -41 8 -21 14 -39 13 -41 -2 -1 -19
-5 -39 -8 l-36 -5 -7 49 c-4 29 -2 58 4 69 5 11 8 26 5 33 -4 9 4 13 25 13 22
0 30 -5 30 -17 0 -18 15 -23 55 -19 29 2 35 19 35 99 l0 74 34 -21 34 -21 14
21z"/>
<path d="M734 622 c-13 -8 -18 -489 -6 -509 8 -13 30 -17 72 -15 25 2 26 4 23
65 -4 79 -3 118 1 300 4 135 2 148 -14 157 -22 12 -60 13 -76 2z"/>
</g>
</svg>
