<?xml version="1.0" standalone="no"?>
<!DOCTYPE svg PUBLIC "-//W3C//DTD SVG 20010904//EN"
 "http://www.w3.org/TR/2001/REC-SVG-20010904/DTD/svg10.dtd">
<svg version="1.0" xmlns="http://www.w3.org/2000/svg"
 width="101.000000pt" height="101.000000pt" viewBox="0 0 101.000000 101.000000"
 preserveAspectRatio="xMidYMid meet">
<metadata>
Created by potrace 1.16, written by Peter Selinger 2001-2019
</metadata>
<g transform="translate(0.000000,101.000000) scale(0.100000,-0.100000)"
fill="#000000" stroke="none">
<path d="M208 993 c-21 -5 -32 -36 -22 -65 4 -13 8 -42 8 -65 l2 -42 -64 2
c-70 2 -86 -9 -77 -53 5 -23 8 -327 4 -360 -6 -47 13 -63 65 -53 24 5 26 9 22
38 -5 29 -3 32 23 32 24 0 29 -5 30 -26 3 -47 1 -134 -2 -138 -5 -4 -38 -11
-82 -17 -38 -6 -67 -17 -63 -25 2 -3 10 -23 18 -44 10 -27 19 -37 30 -33 8 3
55 19 103 36 115 40 147 45 147 20 0 -22 27 -30 58 -16 24 10 25 25 7 81 -5
16 -5 17 3 5 9 -12 20 -11 79 7 120 38 112 37 123 7 10 -24 7 -31 -22 -61 -18
-19 -53 -46 -77 -61 -41 -24 -42 -26 -21 -34 12 -4 36 -18 53 -30 l31 -22 49
55 c57 63 91 118 119 192 24 62 29 90 33 182 2 39 6 88 10 110 4 22 7 49 7 61
0 17 6 21 28 20 27 -1 28 -2 24 -51 -5 -57 -5 -58 1 -143 2 -39 -1 -77 -10
-102 -11 -31 -12 -46 -3 -65 8 -19 7 -32 -6 -60 -9 -19 -14 -39 -11 -44 10
-18 -35 -38 -76 -35 -36 3 -40 1 -34 -14 4 -9 13 -33 21 -52 14 -39 18 -39 96
-14 69 22 89 52 88 133 -2 106 7 313 15 351 12 61 13 174 1 182 -6 4 -37 8
-68 8 l-56 0 -4 73 c-2 39 0 81 5 91 13 26 -14 45 -63 44 -34 0 -40 -4 -45
-29 -4 -16 -3 -38 0 -50 4 -12 7 -50 7 -83 0 -56 -2 -61 -21 -60 -12 0 -21 -3
-21 -7 0 -4 -16 -1 -35 7 -41 17 -55 12 -53 -19 2 -31 -21 -97 -35 -98 -7 0
-21 -2 -33 -4 -19 -4 -17 6 28 137 26 78 53 147 60 155 15 18 3 28 -46 42 -33
9 -41 8 -52 -7 -7 -9 -14 -28 -14 -42 0 -36 -6 -75 -11 -86 -3 -5 -6 -22 -7
-39 -2 -25 -55 -155 -64 -155 -2 0 -2 36 -1 80 2 91 0 93 -88 87 l-47 -3 4 69
c2 38 7 73 10 79 13 21 -32 33 -78 21z m-12 -366 l1 -114 -27 0 -27 0 1 106
c1 104 1 106 26 112 14 4 25 7 25 8 0 0 1 -50 1 -112z m114 74 c0 -14 3 -62 6
-106 6 -79 6 -80 -17 -81 -24 -2 -24 -1 -24 111 0 102 2 111 18 107 11 -3 17
-14 17 -31z m391 -9 c11 4 14 -3 12 -33 -1 -22 -4 -43 -8 -48 -3 -5 0 -21 7
-36 9 -20 9 -34 -2 -63 -12 -33 -19 -70 -23 -124 -2 -25 -4 -23 -27 22 -24 48
-37 55 -73 41 -26 -10 -26 -11 -12 -46 15 -34 12 -41 -17 -36 -4 0 -19 -4 -33
-9 -14 -5 -25 -8 -25 -6 0 2 22 45 49 97 27 52 64 133 82 180 27 71 35 84 45
71 6 -8 17 -13 25 -10z m-176 -124 c-26 -86 -145 -263 -145 -216 0 22 -19 27
-53 15 -20 -7 -27 -15 -23 -26 18 -58 18 -58 -7 -63 -23 -4 -26 -1 -32 38 -3
25 -2 52 4 63 6 11 8 26 5 34 -4 11 1 15 20 13 14 0 26 -6 26 -12 0 -15 31
-23 64 -17 19 4 25 10 22 22 -13 45 -16 102 -8 118 6 9 32 25 59 34 67 24 76
24 68 -3z"/>
</g>
</svg>
