<?xml version="1.0" standalone="no"?>
<!DOCTYPE svg PUBLIC "-//W3C//DTD SVG 20010904//EN"
 "http://www.w3.org/TR/2001/REC-SVG-20010904/DTD/svg10.dtd">
<svg version="1.0" xmlns="http://www.w3.org/2000/svg"
 width="101.000000pt" height="102.000000pt" viewBox="0 0 101.000000 102.000000"
 preserveAspectRatio="xMidYMid meet">
<metadata>
Created by potrace 1.16, written by Peter Selinger 2001-2019
</metadata>
<g transform="translate(0.000000,102.000000) scale(0.100000,-0.100000)"
fill="#000000" stroke="none">
<path d="M639 1011 c11 -7 12 -28 6 -105 l-7 -97 -89 6 -89 5 0 -55 c0 -30 5
-55 10 -55 6 0 10 -11 10 -25 0 -14 -4 -25 -10 -25 -6 0 -10 -30 -10 -70 0
-40 4 -70 10 -70 6 0 10 -11 10 -25 0 -14 -4 -25 -10 -25 -5 0 -10 -22 -10
-50 0 -27 5 -50 10 -50 11 0 14 -113 3 -123 -3 -4 -20 27 -36 69 l-29 76 -35
-5 c-20 -4 -38 -9 -41 -11 -3 -3 2 -24 11 -46 14 -37 14 -40 -1 -41 -9 0 -27
-2 -38 -4 -19 -4 -22 1 -28 45 -4 29 -2 58 4 69 5 11 8 26 5 34 -4 10 3 14 25
14 22 0 30 -5 30 -18 0 -19 30 -30 59 -22 14 3 21 16 25 41 8 59 6 111 -4 117
-13 8 -13 52 0 60 12 7 11 146 -1 166 -6 10 -29 14 -73 14 l-65 0 5 45 c3 25
7 62 9 82 4 30 1 39 -16 49 -12 6 -36 8 -54 5 -32 -6 -34 -9 -33 -49 0 -23 4
-47 10 -54 5 -6 8 -27 6 -45 l-3 -33 -60 3 c-91 4 -90 5 -88 -150 1 -73 2
-165 2 -204 0 -64 2 -72 20 -77 46 -12 67 6 63 54 -1 11 8 16 29 16 22 0 28
-4 24 -14 -3 -8 0 -23 5 -33 11 -20 2 -133 -10 -125 -3 2 -20 -3 -35 -11 -22
-11 -35 -12 -51 -5 -26 11 -64 4 -64 -13 0 -6 5 -28 11 -49 9 -35 12 -37 44
-33 19 3 39 7 44 10 5 4 27 9 48 11 21 3 49 7 63 10 32 6 79 15 108 20 14 2
22 -2 22 -10 0 -22 17 -27 54 -17 l34 10 -2 -53 c-2 -60 3 -65 64 -58 35 5 35
5 34 53 -1 42 1 48 20 49 11 0 57 3 101 6 101 7 145 0 143 -23 -5 -60 9 -73
70 -64 l31 4 -5 102 c-5 123 -5 228 1 406 2 74 2 149 -1 167 l-5 32 -94 -2
-94 -2 4 83 c2 45 7 87 11 93 11 18 -17 29 -71 29 -32 0 -45 -3 -36 -9z m-9
-307 c0 -13 5 -24 10 -24 10 0 15 -122 6 -131 -3 -3 -23 -3 -45 -1 l-40 4 2
92 2 91 33 -3 c26 -4 32 -9 32 -28z m190 -29 c0 -33 3 -76 6 -96 l6 -35 -48 0
c-57 1 -61 8 -63 122 l-1 70 50 0 50 -1 0 -60z m-622 -56 l2 -96 -30 5 -30 4
3 92 c2 92 2 93 27 92 25 -1 25 -2 28 -97z m137 3 l0 -97 -27 -1 -28 -1 3 93
c2 91 3 93 27 97 14 2 25 5 25 5 0 1 0 -42 0 -96z m493 -172 c16 -154 8 -207
-31 -195 -12 4 -32 7 -44 7 -27 0 -34 29 -28 108 3 30 5 65 6 78 1 16 6 21 18
18 9 -3 23 -1 31 4 24 16 45 7 48 -20z m-189 -5 c1 -11 3 -45 6 -75 2 -30 2
-67 -1 -82 -5 -24 -9 -27 -44 -25 -46 1 -52 16 -45 107 3 30 5 64 6 75 1 16 9
20 39 20 30 0 38 -4 39 -20z"/>
</g>
</svg>
