<?xml version="1.0" standalone="no"?>
<!DOCTYPE svg PUBLIC "-//W3C//DTD SVG 20010904//EN"
 "http://www.w3.org/TR/2001/REC-SVG-20010904/DTD/svg10.dtd">
<svg version="1.0" xmlns="http://www.w3.org/2000/svg"
 width="101.000000pt" height="102.000000pt" viewBox="0 0 101.000000 102.000000"
 preserveAspectRatio="xMidYMid meet">
<metadata>
Created by potrace 1.16, written by Peter Selinger 2001-2019
</metadata>
<g transform="translate(0.000000,102.000000) scale(0.100000,-0.100000)"
fill="#000000" stroke="none">
<path d="M599 1008 c0 -7 -2 -20 -4 -28 -2 -8 -6 -26 -9 -39 -17 -76 -82 -215
-114 -244 -16 -14 -17 -12 -15 31 1 26 4 54 7 62 11 28 -10 39 -81 46 l-71 7
5 81 6 81 -56 0 -55 0 0 -35 c0 -19 4 -40 10 -47 5 -6 8 -29 6 -50 l-3 -38
-65 3 c-36 1 -72 -2 -80 -7 -19 -13 -26 -219 -9 -274 9 -28 9 -43 0 -63 -15
-34 -4 -91 18 -97 9 -2 31 -2 48 0 27 4 30 8 27 37 -2 30 1 33 26 33 23 0 28
-5 29 -26 4 -54 0 -145 -5 -150 -3 -3 -24 -7 -47 -8 -23 -2 -53 -5 -67 -7 -14
-2 -31 -4 -37 -5 -16 -1 -16 -14 -2 -64 5 -21 14 -35 18 -33 5 3 26 8 47 11
22 4 50 8 64 11 42 9 116 21 168 28 15 2 35 7 44 11 12 5 17 1 20 -17 2 -18 9
-23 31 -23 16 -1 36 4 45 11 14 10 14 17 3 55 -7 23 -24 67 -37 97 l-24 54
-37 -7 c-21 -4 -40 -8 -42 -10 -2 -3 4 -22 13 -45 12 -30 13 -40 3 -41 -6 0
-24 -2 -38 -4 -25 -3 -27 0 -33 46 -4 28 -2 57 4 68 5 11 8 26 5 34 -4 10 3
14 25 14 22 0 30 -5 30 -18 0 -19 27 -29 62 -22 24 5 24 6 24 118 l-1 113 27
-16 c16 -9 28 -20 28 -24 0 -21 22 -3 46 37 14 25 27 45 27 45 1 0 3 -91 3
-202 1 -112 5 -218 9 -236 4 -20 3 -44 -5 -62 -8 -18 -10 -47 -6 -74 8 -48 20
-56 75 -48 30 4 32 7 25 31 -7 22 -8 106 -3 177 1 23 9 25 105 25 28 0 63 -5
77 -10 37 -14 54 -5 60 32 7 49 -2 69 -27 60 -11 -4 -55 -7 -96 -6 -125 4
-119 2 -126 38 -3 18 -1 42 5 53 6 11 9 27 6 34 -4 10 8 13 50 11 30 -1 57 3
61 8 3 5 32 7 69 3 63 -7 64 -6 71 20 10 40 -3 79 -24 71 -9 -3 -67 -3 -129 1
l-113 7 0 61 0 61 89 0 c49 0 93 -3 97 -7 13 -14 82 -8 98 8 17 16 21 62 8 79
-4 6 -69 10 -159 10 -84 0 -153 3 -153 6 0 14 50 118 59 124 6 3 11 10 11 14
0 23 -119 42 -121 19z m-389 -353 c0 -46 2 -90 5 -98 5 -10 -1 -13 -22 -10
l-28 5 0 97 c0 95 0 97 23 93 21 -4 22 -9 22 -87z m158 -8 l2 -102 -30 -1 -30
-1 2 98 c3 96 4 98 28 102 14 2 25 5 25 5 0 1 1 -44 3 -101z"/>
</g>
</svg>
