<?xml version="1.0" standalone="no"?>
<!DOCTYPE svg PUBLIC "-//W3C//DTD SVG 20010904//EN"
 "http://www.w3.org/TR/2001/REC-SVG-20010904/DTD/svg10.dtd">
<svg version="1.0" xmlns="http://www.w3.org/2000/svg"
 width="101.000000pt" height="101.000000pt" viewBox="0 0 101.000000 101.000000"
 preserveAspectRatio="xMidYMid meet">
<metadata>
Created by potrace 1.16, written by Peter Selinger 2001-2019
</metadata>
<g transform="translate(0.000000,101.000000) scale(0.100000,-0.100000)"
fill="#000000" stroke="none">
<path d="M663 989 c-18 -5 -33 -11 -33 -13 0 -2 11 -34 25 -70 14 -37 25 -69
25 -71 0 -3 -16 -5 -35 -5 -19 0 -35 5 -35 10 0 6 -27 10 -60 10 -55 0 -60 -2
-66 -25 -3 -14 -1 -32 6 -40 7 -9 10 -41 8 -87 l-3 -73 43 0 42 0 0 -55 c1
-167 9 -417 15 -432 9 -22 62 -40 84 -29 9 5 60 9 113 8 81 -2 99 1 116 17 25
22 57 109 43 114 -6 2 -26 14 -46 28 -20 13 -38 24 -40 24 -2 0 -6 -18 -10
-39 -4 -22 -13 -45 -20 -51 -23 -19 -135 -14 -156 7 -10 10 -14 66 -9 129 2
17 27 35 111 78 60 31 116 56 124 56 26 0 16 24 -26 58 l-40 34 -52 -39 c-54
-40 -104 -73 -110 -73 -5 0 1 138 8 178 4 17 3 32 -2 33 -18 2 -49 6 -58 9
-21 5 -35 -1 -35 -15 0 -8 -5 -15 -10 -15 -6 0 -9 22 -8 53 l3 52 135 0 135 0
-3 -46 c-5 -61 10 -89 48 -89 37 0 62 24 52 50 -4 11 -5 50 -1 88 7 86 4 95
-34 88 -16 -3 -68 -3 -116 1 -74 5 -82 8 -56 16 17 5 31 11 33 12 7 6 -52 125
-62 124 -6 0 -26 -5 -43 -10z"/>
<path d="M238 965 c2 -14 1 -54 -3 -90 l-7 -65 -73 4 c-68 4 -74 2 -79 -18
-10 -37 -6 -134 6 -161 9 -20 9 -34 -1 -61 -9 -25 -11 -60 -6 -119 8 -89 14
-98 67 -88 20 4 23 10 22 47 -2 41 -1 42 33 43 26 1 33 -2 29 -13 -3 -8 -1
-24 5 -37 6 -13 7 -43 2 -77 -8 -51 -11 -55 -33 -52 -31 3 -44 3 -100 -2 -25
-2 -51 -4 -58 -5 -9 -1 -11 -8 -6 -24 4 -12 8 -32 10 -44 3 -30 13 -45 26 -37
6 4 23 9 37 11 14 2 35 6 46 8 43 10 116 23 160 29 17 2 42 7 58 11 24 6 28 4
33 -23 5 -26 10 -30 33 -27 38 5 61 16 61 29 0 6 -14 53 -31 104 l-31 93 -40
-5 c-22 -3 -42 -7 -45 -10 -2 -2 3 -21 11 -41 19 -45 19 -42 4 -42 -7 0 -23
-3 -34 -7 -19 -6 -22 -2 -28 44 -4 29 -2 58 4 69 5 11 8 26 5 34 -4 10 3 14
25 14 22 0 30 -5 30 -18 0 -19 27 -29 63 -22 27 5 41 41 28 74 -3 10 -3 80 1
156 4 76 5 145 2 154 -3 12 -20 15 -79 15 l-75 -1 4 55 c2 30 7 67 11 83 4 15
3 27 -1 28 -88 10 -91 9 -86 -16z m2 -299 c0 -34 -3 -77 -6 -96 -5 -33 -8 -35
-42 -34 l-37 1 -3 67 c-2 41 1 66 8 66 5 0 10 12 10 28 0 24 4 27 35 28 l35 1
0 -61z m125 -34 l0 -99 -29 0 c-27 0 -28 2 -22 36 3 20 6 62 6 93 0 51 2 57
23 61 12 2 22 5 22 6 0 0 0 -43 0 -97z"/>
</g>
</svg>
