<?xml version="1.0" standalone="no"?>
<!DOCTYPE svg PUBLIC "-//W3C//DTD SVG 20010904//EN"
 "http://www.w3.org/TR/2001/REC-SVG-20010904/DTD/svg10.dtd">
<svg version="1.0" xmlns="http://www.w3.org/2000/svg"
 width="101.000000pt" height="101.000000pt" viewBox="0 0 101.000000 101.000000"
 preserveAspectRatio="xMidYMid meet">
<metadata>
Created by potrace 1.16, written by Peter Selinger 2001-2019
</metadata>
<g transform="translate(0.000000,101.000000) scale(0.100000,-0.100000)"
fill="#000000" stroke="none">
<path d="M644 908 l3 -103 -88 2 c-74 1 -89 -1 -92 -15 -3 -12 -5 -11 -6 5 -1
18 -9 23 -56 28 -30 4 -65 5 -78 3 -20 -4 -22 -1 -20 41 1 25 6 61 12 80 6 19
9 37 6 39 -3 3 -29 6 -59 6 l-55 1 1 -40 c0 -22 4 -45 10 -52 5 -6 8 -27 6
-45 l-3 -33 -73 0 c-54 0 -75 -4 -82 -15 -13 -20 -13 -107 0 -115 12 -7 12
-153 0 -160 -11 -7 -11 -107 0 -125 11 -18 79 -17 91 2 5 7 6 20 4 29 -4 12 2
16 25 16 22 0 29 -4 25 -14 -3 -8 0 -23 5 -34 6 -11 8 -40 4 -68 -8 -58 -37
-82 -78 -63 -18 8 -34 8 -60 0 -33 -10 -35 -14 -32 -44 3 -18 7 -38 11 -44 6
-10 46 -8 115 6 14 3 37 7 53 10 15 2 39 6 55 9 15 3 41 7 57 9 17 2 40 8 53
11 18 6 22 4 22 -14 0 -24 16 -26 68 -11 28 8 33 7 28 -6 -3 -8 0 -25 6 -39 8
-19 8 -28 -2 -40 -19 -23 -3 -30 63 -27 27 2 27 3 23 51 -4 45 -3 49 17 50 12
1 47 3 77 6 30 2 67 2 82 -1 25 -5 26 -8 23 -49 -5 -48 5 -56 62 -48 29 5 31
8 35 56 3 29 3 72 1 97 -9 102 -11 225 -3 241 5 8 7 24 4 35 -5 17 -15 19 -91
19 l-85 0 6 44 c3 24 6 61 6 82 l0 38 53 3 c28 2 62 -1 74 -6 50 -20 91 14 78
66 -6 22 -9 23 -110 23 l-104 0 4 70 c3 39 8 85 11 103 l5 32 -55 0 -56 0 4
-102z m-438 -182 c1 -1 4 -42 7 -92 l5 -91 -28 0 c-24 0 -29 5 -34 36 -3 20
-6 64 -6 99 l0 62 28 -6 c15 -4 28 -7 28 -8z m159 -85 l0 -99 -32 1 -33 1 3
92 2 93 30 4 c17 2 30 5 30 5 0 1 0 -43 0 -97z m178 71 c35 -2 73 0 83 6 18 9
19 5 21 -77 l2 -86 -67 0 -67 0 -3 -42 c-2 -26 1 -43 7 -43 15 0 14 -67 -1
-74 -10 -5 -10 -7 0 -12 13 -6 18 -135 5 -147 -3 -4 -23 32 -43 80 -30 73 -39
88 -57 87 -12 0 -20 3 -17 8 3 4 15 8 27 8 21 0 22 4 25 120 2 80 0 120 -7
120 -6 0 -11 11 -11 25 0 14 5 25 10 25 6 0 10 8 10 18 0 14 2 15 9 3 6 -10
32 -16 74 -19z m258 -231 c8 -1 9 -16 12 -123 1 -42 -2 -80 -6 -85 -7 -6 -98
-8 -174 -2 -27 2 -34 31 -28 109 3 30 5 65 6 78 1 16 6 21 18 18 9 -3 23 -1
31 4 12 7 97 8 141 1z m-436 -42 c-4 -13 -2 -19 9 -19 9 0 16 -4 16 -10 0 -5
-7 -10 -15 -10 -19 0 -19 -8 0 -54 12 -28 12 -36 3 -37 -82 -7 -76 -10 -83 37
-3 25 -2 52 4 63 6 11 9 26 6 33 -4 10 4 14 30 15 31 1 35 -2 30 -18z"/>
</g>
</svg>
