<?xml version="1.0" standalone="no"?>
<!DOCTYPE svg PUBLIC "-//W3C//DTD SVG 20010904//EN"
 "http://www.w3.org/TR/2001/REC-SVG-20010904/DTD/svg10.dtd">
<svg version="1.0" xmlns="http://www.w3.org/2000/svg"
 width="101.000000pt" height="101.000000pt" viewBox="0 0 101.000000 101.000000"
 preserveAspectRatio="xMidYMid meet">
<metadata>
Created by potrace 1.16, written by Peter Selinger 2001-2019
</metadata>
<g transform="translate(0.000000,101.000000) scale(0.100000,-0.100000)"
fill="#000000" stroke="none">
<path d="M237 993 c-16 -4 -17 -15 -13 -100 l4 -96 -53 7 c-73 8 -105 -5 -105
-44 0 -16 5 -30 10 -30 6 0 10 -32 10 -75 0 -50 -4 -75 -12 -75 -8 0 -9 -28
-5 -101 4 -56 9 -104 12 -107 11 -11 78 -4 85 9 5 7 4 23 -1 36 -5 14 -9 25
-9 27 0 1 15 2 34 3 38 1 38 2 36 -112 -1 -77 -7 -85 -60 -83 -37 1 -110 -9
-117 -16 -3 -3 16 -95 21 -103 1 -1 30 7 65 17 35 11 79 23 99 26 21 3 46 7
57 10 11 2 32 6 47 8 15 2 32 7 38 11 17 10 45 -25 47 -58 1 -35 6 -39 35 -38
13 1 68 2 123 2 55 0 129 0 165 0 36 0 99 0 141 0 74 0 77 1 82 26 9 50 0 60
-52 57 l-48 -2 -7 75 c-9 109 -7 173 4 173 6 0 10 23 10 50 0 28 -4 50 -10 50
-5 0 -10 11 -10 25 0 14 5 25 10 25 6 0 10 30 10 70 0 40 -4 70 -10 70 -13 0
-13 47 -1 52 5 2 11 34 13 71 3 78 -7 91 -62 81 -32 -6 -116 -6 -245 -1 l-50
2 -3 -79 c-1 -43 2 -84 8 -90 11 -15 12 -154 0 -161 -12 -7 -12 -153 0 -160
13 -8 13 -52 0 -60 -7 -4 -9 -40 -5 -100 l6 -93 -36 1 c-26 1 -31 3 -19 10 19
11 14 36 -23 120 -25 56 -28 59 -57 53 -46 -9 -52 -21 -33 -61 12 -26 13 -35
4 -36 -6 0 -22 -2 -33 -4 -19 -4 -22 1 -28 51 -3 31 -2 63 4 74 5 10 8 25 5
32 -4 10 4 14 30 15 27 1 35 -3 35 -17 0 -20 26 -30 62 -23 24 5 24 7 26 109
2 66 -1 104 -8 104 -6 0 -10 30 -10 75 0 43 4 75 10 75 6 0 10 6 10 14 0 16
-57 27 -125 24 -37 -2 -40 0 -43 25 -2 16 1 34 7 40 5 7 9 26 9 42 -1 17 2 40
6 51 5 17 2 23 -16 28 -25 6 -44 6 -71 -1z m550 -229 l1 -83 -86 2 -87 2 0 80
0 80 85 1 85 1 2 -83z m-409 -144 l2 -95 -35 0 -35 0 3 96 2 95 30 0 30 -1 3
-95z m-156 -2 l3 -93 -30 -1 -30 0 0 93 0 93 27 0 27 0 3 -92z m565 -92 l3
-73 -55 -7 c-32 -3 -64 -2 -75 4 -10 5 -26 7 -36 3 -15 -6 -16 -1 -11 42 4 26
7 58 7 71 0 21 5 23 58 27 31 2 68 4 82 5 24 2 25 0 27 -72z m-21 -146 c17 0
22 -7 23 -27 3 -43 1 -157 -3 -160 -3 -3 -107 -5 -147 -2 -25 1 -27 5 -33 61
-3 33 -2 68 4 78 5 10 7 26 3 35 -5 14 -2 16 13 11 10 -3 26 -1 34 5 8 5 31 7
50 4 19 -2 45 -5 56 -5z"/>
</g>
</svg>
