<?xml version="1.0" standalone="no"?>
<!DOCTYPE svg PUBLIC "-//W3C//DTD SVG 20010904//EN"
 "http://www.w3.org/TR/2001/REC-SVG-20010904/DTD/svg10.dtd">
<svg version="1.0" xmlns="http://www.w3.org/2000/svg"
 width="101.000000pt" height="101.000000pt" viewBox="0 0 101.000000 101.000000"
 preserveAspectRatio="xMidYMid meet">
<metadata>
Created by potrace 1.16, written by Peter Selinger 2001-2019
</metadata>
<g transform="translate(0.000000,101.000000) scale(0.100000,-0.100000)"
fill="#000000" stroke="none">
<path d="M217 990 c3 -11 2 -53 -1 -93 -7 -70 -8 -72 -34 -72 -15 1 -37 4 -49
9 -42 14 -63 -1 -63 -44 0 -21 5 -40 12 -42 8 -3 9 -45 1 -169 -5 -90 -8 -166
-6 -168 5 -7 73 -4 80 3 4 3 6 19 6 35 0 24 4 28 24 27 15 -1 21 -6 18 -14 -3
-7 0 -22 6 -33 12 -23 2 -112 -12 -103 -5 3 -24 -2 -43 -11 -25 -12 -40 -14
-54 -6 -10 5 -29 7 -41 4 -19 -5 -21 -10 -15 -32 3 -14 8 -37 9 -49 2 -13 5
-25 7 -27 2 -2 43 8 93 21 50 13 106 27 125 30 63 10 75 12 93 19 12 5 17 2
17 -9 0 -9 6 -16 13 -16 6 -1 -6 -16 -28 -35 -22 -18 -37 -36 -35 -38 3 -2 22
-13 44 -26 l39 -22 24 23 c42 39 112 142 147 219 31 66 35 70 45 51 13 -25 8
-243 -7 -283 -16 -41 1 -55 66 -51 22 2 22 2 17 145 -3 81 -1 148 4 157 6 8
11 12 13 10 2 -3 20 -40 41 -82 21 -42 56 -96 77 -120 l38 -43 36 34 c34 33
47 61 27 61 -4 0 -31 23 -60 52 -46 46 -99 135 -116 194 -6 24 -2 25 106 24
53 0 57 2 62 26 2 14 2 35 0 45 -5 17 -11 19 -57 12 -46 -7 -69 -7 -142 -2
-19 1 -20 7 -20 70 l1 69 60 2 c33 1 74 2 92 2 25 -1 33 4 38 23 3 14 3 33 0
43 -7 23 -41 35 -58 21 -7 -5 -40 -9 -74 -8 l-62 2 4 40 c2 22 7 61 9 87 5 41
3 48 -15 53 -11 4 -36 4 -55 1 l-34 -7 4 -87 4 -87 -39 0 c-21 0 -39 2 -39 5
0 3 9 20 20 38 11 18 20 36 20 41 0 9 -25 18 -71 27 -28 5 -33 -3 -45 -76 -3
-14 -8 -32 -11 -40 -4 -8 -7 -23 -8 -33 -4 -30 -37 -97 -46 -91 -14 8 -11 112
4 117 20 9 -15 28 -38 21 -11 -3 -38 -6 -60 -7 -37 -1 -40 2 -43 27 -2 15 1
33 7 39 5 7 10 26 10 42 0 17 2 39 3 50 3 17 -4 20 -44 23 -43 3 -46 1 -41
-18z m-9 -336 l2 -101 -30 0 -30 0 2 102 c3 101 3 102 28 101 25 -1 25 -2 28
-102z m137 3 l1 -104 -26 0 -25 0 0 96 c0 94 1 96 25 102 14 4 25 7 25 8 0 0
0 -46 0 -102z m282 79 c0 0 4 -31 8 -67 l7 -66 -46 -7 c-25 -4 -51 -4 -57 0
-7 4 -29 8 -49 10 -42 4 -52 -11 -43 -59 6 -30 33 -39 73 -24 46 17 56 0 36
-60 -18 -54 -72 -153 -84 -153 -4 0 -20 25 -35 55 -29 60 -30 60 -75 44 -31
-10 -31 -12 -17 -38 10 -20 11 -28 2 -28 -7 0 -22 -3 -34 -7 -19 -6 -22 -2
-28 33 -4 23 -2 48 4 60 6 11 9 26 6 34 -4 10 2 14 24 14 18 0 27 -5 24 -12
-5 -15 26 -24 60 -18 22 4 24 8 17 28 -5 12 -7 49 -4 81 2 32 5 69 5 81 1 22
12 23 58 8 18 -6 23 1 50 77 9 24 13 26 53 21 24 -3 44 -6 45 -7z"/>
</g>
</svg>
