<?xml version="1.0" standalone="no"?>
<!DOCTYPE svg PUBLIC "-//W3C//DTD SVG 20010904//EN"
 "http://www.w3.org/TR/2001/REC-SVG-20010904/DTD/svg10.dtd">
<svg version="1.0" xmlns="http://www.w3.org/2000/svg"
 width="101.000000pt" height="101.000000pt" viewBox="0 0 101.000000 101.000000"
 preserveAspectRatio="xMidYMid meet">
<metadata>
Created by potrace 1.16, written by Peter Selinger 2001-2019
</metadata>
<g transform="translate(0.000000,101.000000) scale(0.100000,-0.100000)"
fill="#000000" stroke="none">
<path d="M218 1003 c-12 -3 -17 -15 -16 -46 0 -23 4 -47 10 -54 5 -6 8 -24 6
-40 -3 -28 -4 -28 -71 -28 -71 0 -93 -12 -79 -44 9 -21 8 -330 -1 -356 -10
-29 7 -48 42 -48 39 0 43 4 44 46 1 30 4 34 29 34 21 0 27 -4 23 -14 -3 -8 0
-23 5 -33 10 -19 2 -142 -9 -135 -4 2 -21 -3 -39 -12 -25 -12 -38 -13 -56 -5
-26 12 -66 5 -66 -11 0 -5 5 -27 12 -49 8 -26 16 -37 25 -34 25 10 136 37 164
41 16 2 32 6 37 9 5 3 25 7 45 10 32 4 35 2 41 -24 5 -27 7 -28 41 -19 47 13
55 6 55 -47 0 -47 4 -50 60 -45 32 3 41 18 29 49 -5 14 -10 48 -10 76 0 97 2
104 25 104 11 1 32 2 46 4 28 3 32 -12 31 -118 -1 -54 1 -62 19 -67 11 -3 29
-3 40 0 18 5 20 13 19 72 -1 101 1 109 25 110 11 0 34 2 51 3 25 3 30 -1 32
-22 1 -14 5 -39 9 -56 7 -36 -5 -48 -49 -50 -15 -1 -30 -4 -32 -6 -2 -2 4 -25
13 -51 15 -43 19 -46 47 -43 51 7 84 27 94 60 11 32 15 546 5 579 -4 14 -13
16 -37 12 -18 -2 -56 -2 -86 3 l-53 7 58 48 c33 26 73 52 91 59 24 9 33 19 37
43 10 53 0 67 -43 58 -20 -5 -58 -7 -86 -6 -27 1 -113 4 -190 7 l-140 4 0 -44
-1 -44 158 5 c87 2 158 3 158 1 0 -1 -23 -22 -50 -45 l-50 -42 -45 36 -44 37
-36 -29 c-19 -15 -35 -30 -35 -33 0 -3 18 -14 41 -24 58 -28 57 -36 -3 -37
-29 -1 -64 -2 -78 -3 l-25 -1 -3 -147 c-2 -97 1 -148 8 -148 5 0 10 -20 10
-45 0 -25 -4 -45 -10 -45 -6 0 -10 -31 -10 -72 l-1 -73 -23 70 c-35 108 -40
115 -77 105 -18 -5 -34 -12 -37 -14 -2 -3 3 -24 13 -48 9 -24 14 -40 10 -36
-4 4 -17 3 -30 -2 -21 -8 -23 -6 -29 46 -3 31 -2 63 4 74 5 10 7 25 4 33 -4
11 1 15 20 13 14 0 26 -6 26 -12 0 -15 31 -23 62 -17 22 4 23 8 26 124 3 81 0
119 -7 119 -6 0 -11 11 -11 25 0 14 5 25 10 25 6 0 10 20 10 45 0 54 -20 68
-89 63 l-46 -3 3 45 c1 25 5 60 8 79 9 45 -17 60 -78 44z m-16 -305 c-1 -31 2
-59 8 -63 11 -7 13 -55 2 -70 -4 -6 -18 -11 -32 -11 l-25 -2 0 102 0 101 25 0
c24 0 25 -2 22 -57z m148 3 c0 -32 -3 -79 -6 -103 -6 -43 -8 -45 -38 -44 l-31
2 -3 72 c-2 45 1 72 8 72 5 0 10 11 10 24 0 23 4 26 53 35 4 0 7 -25 7 -58z
m250 -31 c26 0 28 -3 31 -42 l4 -43 -45 0 -45 0 0 48 c0 35 3 46 13 42 8 -3
26 -5 42 -5z m216 -4 c1 0 4 -19 6 -42 l6 -41 -52 1 -51 1 0 46 0 46 45 -5
c25 -3 46 -5 46 -6z m-180 -171 c0 -11 4 -32 8 -48 10 -35 -9 -61 -38 -52 -12
4 -32 8 -46 8 -21 2 -25 6 -22 32 1 17 3 40 3 53 1 16 6 21 18 18 9 -3 23 -1
31 4 22 15 45 7 46 -15z m190 0 c0 -11 4 -33 8 -48 12 -40 -11 -63 -51 -51
-15 4 -37 8 -48 8 -16 1 -19 7 -17 31 1 17 3 40 3 53 1 16 6 21 18 18 9 -3 23
-1 31 4 24 16 55 7 56 -15z"/>
</g>
</svg>
