<?xml version="1.0" standalone="no"?>
<!DOCTYPE svg PUBLIC "-//W3C//DTD SVG 20010904//EN"
 "http://www.w3.org/TR/2001/REC-SVG-20010904/DTD/svg10.dtd">
<svg version="1.0" xmlns="http://www.w3.org/2000/svg"
 width="101.000000pt" height="101.000000pt" viewBox="0 0 101.000000 101.000000"
 preserveAspectRatio="xMidYMid meet">
<metadata>
Created by potrace 1.16, written by Peter Selinger 2001-2019
</metadata>
<g transform="translate(0.000000,101.000000) scale(0.100000,-0.100000)"
fill="#000000" stroke="none">
<path d="M208 985 c2 -14 1 -54 -3 -90 l-6 -64 -70 4 -69 4 0 -40 c0 -21 5
-39 10 -39 6 0 10 -32 10 -75 0 -46 -4 -75 -11 -75 -7 0 -9 -34 -7 -99 3 -108
7 -114 63 -103 24 4 26 8 21 37 -6 30 -5 32 24 32 22 0 29 -4 25 -14 -3 -8 0
-23 5 -33 16 -29 2 -125 -19 -128 -9 -1 -42 -4 -74 -6 -32 -2 -61 -6 -63 -9
-3 -2 0 -26 7 -51 11 -46 12 -47 43 -40 17 4 40 9 51 10 11 2 31 6 45 9 38 8
82 16 110 20 83 14 82 14 87 -6 6 -22 6 -22 56 -8 41 11 40 7 20 78 -5 20 -3
23 11 18 10 -4 26 -2 36 3 28 15 142 1 136 -17 -3 -7 0 -24 6 -38 15 -34 -13
-67 -57 -64 -67 4 -68 3 -45 -41 11 -21 20 -46 20 -54 0 -29 127 0 157 36 7 8
13 39 12 69 0 99 2 107 25 108 76 5 96 5 137 -1 45 -7 47 -6 52 18 2 14 2 35
-1 46 -4 18 -10 19 -51 12 -41 -7 -63 -8 -138 -3 -34 2 -28 23 15 51 45 30 78
43 120 47 9 1 11 8 7 21 -3 10 -2 28 4 38 5 10 8 27 5 38 -5 17 -14 19 -97 16
-95 -3 -285 -4 -325 -1 -30 1 -35 -5 -35 -41 0 -47 -7 -45 133 -35 41 3 95 3
119 0 l44 -7 -48 -28 c-49 -28 -69 -57 -59 -84 4 -10 -7 -15 -40 -20 -25 -4
-51 -4 -57 0 -7 4 -31 9 -55 11 -34 2 -44 0 -44 -12 0 -24 -16 -18 -29 11 -10
23 -16 26 -48 21 -19 -4 -37 -8 -39 -10 -3 -2 3 -20 11 -40 18 -44 18 -44 3
-44 -7 0 -25 -4 -39 -7 -25 -7 -26 -6 -33 43 -4 30 -2 59 4 70 5 11 8 26 5 34
-4 10 3 14 25 14 22 0 30 -5 30 -18 0 -19 27 -29 62 -22 22 4 23 8 26 119 3
77 0 114 -7 114 -7 0 -11 28 -11 75 0 43 4 75 10 75 6 0 10 4 10 9 0 5 -34 9
-75 8 l-75 -2 5 63 c2 34 9 71 14 81 14 25 5 31 -49 31 -45 0 -47 -1 -42 -25z
m-34 -241 c10 -4 16 -18 16 -39 0 -18 5 -35 11 -37 8 -3 10 -21 5 -58 -6 -47
-10 -55 -29 -56 -21 -2 -22 2 -22 97 0 55 1 99 2 99 1 0 8 -3 17 -6z m164 -92
l2 -99 -29 0 c-27 0 -29 2 -35 59 -3 33 -1 68 4 78 5 10 7 25 4 34 -4 10 3 16
23 19 15 2 28 5 28 5 0 1 1 -42 3 -96z"/>
<path d="M849 966 c-6 -6 -72 -18 -98 -17 -12 1 -28 -2 -34 -6 -6 -4 -22 -8
-36 -9 -15 -2 -51 -5 -81 -9 -30 -3 -75 -7 -100 -9 -84 -5 -80 -1 -56 -50 23
-48 24 -48 146 -32 25 3 71 8 102 10 31 2 67 8 80 12 23 7 70 13 118 14 50 1
56 14 27 59 -24 35 -53 51 -68 37z"/>
<path d="M834 813 c-4 -16 -20 -54 -35 -87 -16 -32 -29 -62 -29 -66 0 -7 41
-23 62 -24 5 -1 108 160 108 170 0 3 -80 34 -90 34 -5 0 -13 -12 -16 -27z"/>
<path d="M644 816 c-17 -9 -19 -16 -12 -35 5 -13 11 -47 13 -74 3 -28 7 -52 9
-55 3 -2 23 -1 46 3 40 7 41 8 37 38 -8 55 -29 122 -41 129 -15 10 -26 9 -52
-6z"/>
<path d="M490 795 c-7 -8 -9 -23 -4 -37 4 -13 8 -30 10 -38 11 -79 31 -98 79
-80 24 9 26 22 10 90 -3 14 -8 34 -10 44 -8 36 -61 49 -85 21z"/>
</g>
</svg>
