<?xml version="1.0" standalone="no"?>
<!DOCTYPE svg PUBLIC "-//W3C//DTD SVG 20010904//EN"
 "http://www.w3.org/TR/2001/REC-SVG-20010904/DTD/svg10.dtd">
<svg version="1.0" xmlns="http://www.w3.org/2000/svg"
 width="101.000000pt" height="101.000000pt" viewBox="0 0 101.000000 101.000000"
 preserveAspectRatio="xMidYMid meet">
<metadata>
Created by potrace 1.16, written by Peter Selinger 2001-2019
</metadata>
<g transform="translate(0.000000,101.000000) scale(0.100000,-0.100000)"
fill="#000000" stroke="none">
<path d="M570 1000 c0 -27 -62 -139 -100 -183 -47 -53 -55 -56 -57 -26 -3 31
-9 34 -76 34 l-62 0 6 65 c3 36 9 72 13 82 8 18 -7 25 -65 27 -42 2 -53 -14
-44 -63 3 -17 7 -49 9 -72 l3 -40 -52 4 c-74 6 -95 -8 -95 -63 0 -25 5 -45 10
-45 6 0 10 -11 10 -25 0 -14 -4 -25 -10 -25 -6 0 -10 -30 -10 -70 0 -40 4 -70
10 -70 14 0 13 -47 -1 -52 -18 -6 0 -75 22 -81 44 -12 65 6 61 54 -1 11 8 16
29 16 22 0 28 -4 24 -14 -3 -8 0 -23 5 -33 13 -24 2 -126 -14 -128 -6 -1 -31
-4 -56 -6 -25 -2 -57 -7 -71 -11 -27 -7 -27 -7 -13 -52 8 -26 16 -48 17 -50 2
-2 24 4 48 12 38 14 230 65 242 65 3 0 7 -14 11 -31 6 -30 7 -31 43 -24 48 9
52 11 48 33 -1 9 0 11 2 4 5 -13 81 -11 116 3 26 11 70 -3 63 -21 -3 -8 0 -26
6 -39 9 -19 9 -28 0 -37 -32 -32 -2 -61 51 -51 22 4 24 10 25 51 1 85 3 94 19
88 8 -3 24 -1 35 5 16 9 35 8 75 -1 29 -7 56 -10 60 -7 8 8 9 65 1 72 -5 5
-70 7 -123 4 -51 -3 -60 0 -61 25 -2 26 3 27 93 27 42 1 52 4 56 20 9 32 -3
61 -22 53 -14 -7 -40 -8 -107 -3 -16 1 -21 8 -21 29 0 27 2 28 41 23 47 -6
118 -5 125 2 2 3 4 19 4 36 0 41 -20 52 -55 31 -23 -13 -33 -14 -59 -5 -17 7
-36 10 -43 7 -11 -4 -12 4 -6 34 6 37 5 40 -24 50 -17 6 -41 9 -53 6 -18 -5
-21 -13 -20 -52 1 -46 0 -47 -29 -45 -16 2 -42 5 -59 8 -40 7 -66 7 -73 1 -7
-8 -7 -64 1 -72 8 -8 40 -8 108 -1 l56 5 0 -29 c0 -25 -5 -30 -33 -35 -18 -3
-38 -3 -45 2 -7 4 -27 8 -45 10 -25 2 -33 -2 -37 -17 -13 -47 24 -80 65 -58
11 6 37 8 58 4 32 -5 38 -10 36 -30 -1 -20 -8 -24 -49 -29 -26 -4 -55 -2 -65
3 -26 14 -59 3 -66 -22 -5 -17 -13 -4 -33 56 l-26 79 -36 -7 c-48 -9 -54 -17
-40 -49 14 -30 11 -35 -24 -41 -23 -5 -25 -1 -31 40 -4 25 -3 53 3 64 6 11 9
26 6 34 -4 10 3 14 25 14 24 0 29 -4 25 -17 -6 -20 19 -30 58 -23 21 4 25 12
31 56 3 29 6 70 6 92 0 39 0 39 16 17 8 -12 23 -22 32 -22 9 0 62 22 117 48
l100 48 40 -19 c48 -24 173 -67 192 -67 7 0 13 6 13 13 0 7 9 30 19 50 19 37
19 37 -1 48 -10 6 -31 9 -46 8 -15 -1 -38 1 -52 4 -14 3 -42 9 -63 12 l-39 6
49 52 c60 63 109 135 99 145 -4 4 -64 7 -132 7 -68 0 -124 3 -124 7 0 4 12 16
27 28 34 27 21 41 -46 47 -35 3 -51 1 -51 -7z m153 -192 l-42 -42 -27 24 c-52
50 -49 55 35 58 l76 2 -42 -42z m-123 -95 c-26 -18 -111 -50 -151 -57 l-34 -5
3 39 c5 45 5 45 36 25 22 -14 24 -13 61 33 l39 48 32 -35 c30 -33 31 -36 14
-48z m-403 -74 l2 -96 -29 0 -28 0 1 96 c2 95 2 96 27 96 25 0 25 -1 27 -96z
m143 39 c0 -35 -3 -79 -6 -99 -6 -33 -9 -36 -38 -35 l-31 2 -3 67 c-2 42 1 67
8 67 5 0 10 11 10 24 0 23 4 26 53 35 4 0 7 -27 7 -61z"/>
</g>
</svg>
