<?xml version="1.0" standalone="no"?>
<!DOCTYPE svg PUBLIC "-//W3C//DTD SVG 20010904//EN"
 "http://www.w3.org/TR/2001/REC-SVG-20010904/DTD/svg10.dtd">
<svg version="1.0" xmlns="http://www.w3.org/2000/svg"
 width="101.000000pt" height="101.000000pt" viewBox="0 0 101.000000 101.000000"
 preserveAspectRatio="xMidYMid meet">
<metadata>
Created by potrace 1.16, written by Peter Selinger 2001-2019
</metadata>
<g transform="translate(0.000000,101.000000) scale(0.100000,-0.100000)"
fill="#000000" stroke="none">
<path d="M212 943 c0 -38 5 -73 10 -80 5 -7 8 -22 6 -35 -3 -22 -6 -23 -79
-19 l-77 3 -1 -126 c0 -72 4 -128 9 -131 13 -8 12 -68 -1 -124 -5 -24 -7 -46
-4 -49 7 -7 74 -6 82 1 3 3 5 21 6 40 1 30 4 34 29 34 21 0 27 -4 23 -14 -3
-8 0 -23 5 -33 6 -11 8 -43 4 -73 -6 -47 -10 -55 -28 -55 -41 -1 -101 -9 -124
-16 -17 -6 -22 -13 -17 -24 4 -10 9 -30 12 -45 7 -33 0 -33 133 7 47 15 99 28
115 31 17 2 45 8 63 14 28 8 32 7 32 -9 0 -10 4 -21 8 -24 12 -7 82 15 82 26
0 5 -14 45 -32 89 -31 80 -32 81 -62 75 -42 -9 -49 -19 -35 -50 14 -31 7 -41
-37 -50 -31 -7 -32 -6 -38 38 -4 26 -3 53 3 65 6 11 8 26 5 34 -4 11 2 15 23
14 15 -1 31 -6 35 -11 6 -9 75 -12 83 -4 2 2 -1 48 -7 102 -8 75 -8 103 1 117
6 11 11 47 10 82 l-1 63 -77 0 -76 1 -3 42 c-2 23 1 48 6 54 5 7 10 33 10 60
l1 47 -48 0 -49 0 0 -67z m18 -277 c0 -34 -3 -77 -6 -96 -5 -31 -9 -35 -37
-35 l-32 0 -3 68 c-2 42 1 67 8 67 5 0 10 12 10 28 0 23 4 27 30 28 l30 1 0
-61z m125 -34 l0 -98 -28 4 c-26 4 -28 7 -23 35 3 16 6 56 6 88 0 52 2 58 23
62 12 2 22 5 22 6 0 0 0 -43 0 -97z"/>
<path d="M770 995 c0 -8 0 -16 0 -17 1 -6 -49 -145 -60 -170 l-13 -28 -101 3
-101 2 -3 -47 c-2 -29 1 -48 7 -48 6 0 11 -11 11 -25 0 -14 -4 -25 -10 -25 -6
0 -10 -28 -10 -64 0 -74 17 -100 59 -94 25 4 26 2 24 -37 -1 -22 -4 -53 -7
-70 -3 -16 -5 -37 -5 -46 -2 -31 -60 -103 -113 -138 -29 -20 -53 -41 -53 -46
0 -11 60 -55 75 -55 19 0 119 108 143 155 30 60 47 135 49 212 0 14 8 23 23
25 27 6 26 12 28 -174 1 -95 6 -141 15 -150 21 -22 93 -38 115 -27 10 6 28 8
39 6 47 -13 92 31 100 96 2 23 -4 31 -39 53 -30 17 -43 21 -44 12 -3 -65 -19
-86 -62 -84 -47 2 -58 32 -52 141 3 50 5 100 6 112 1 19 5 22 25 17 13 -3 35
-4 48 0 19 5 24 14 29 58 4 30 2 57 -3 62 -13 13 -13 53 0 61 16 10 12 102 -6
119 -8 9 -20 14 -24 11 -5 -3 -25 -7 -44 -9 l-34 -2 28 56 c16 32 40 71 54 87
29 35 26 40 -42 66 -52 21 -52 21 -52 2z m36 -354 l2 -78 -113 1 -112 1 1 72
1 72 95 4 c52 1 102 4 110 5 12 1 15 -13 16 -77z"/>
<path d="M528 974 c-16 -8 -28 -17 -28 -20 0 -2 10 -21 23 -42 13 -20 29 -52
36 -69 15 -38 12 -37 62 -21 45 13 45 18 -4 111 -32 61 -44 66 -89 41z"/>
</g>
</svg>
