<?xml version="1.0" standalone="no"?>
<!DOCTYPE svg PUBLIC "-//W3C//DTD SVG 20010904//EN"
 "http://www.w3.org/TR/2001/REC-SVG-20010904/DTD/svg10.dtd">
<svg version="1.0" xmlns="http://www.w3.org/2000/svg"
 width="101.000000pt" height="101.000000pt" viewBox="0 0 101.000000 101.000000"
 preserveAspectRatio="xMidYMid meet">
<metadata>
Created by potrace 1.16, written by Peter Selinger 2001-2019
</metadata>
<g transform="translate(0.000000,101.000000) scale(0.100000,-0.100000)"
fill="#000000" stroke="none">
<path d="M195 916 l0 -93 -70 1 -70 1 -3 -47 c-2 -29 1 -48 7 -48 6 0 11 -11
11 -25 0 -14 -4 -25 -10 -25 -6 0 -10 -30 -10 -70 0 -40 4 -70 10 -70 6 0 10
-11 10 -25 0 -14 -4 -25 -10 -25 -12 0 -13 -79 -2 -97 8 -13 30 -17 69 -15 20
2 22 7 19 35 -4 32 -3 34 25 34 22 0 28 -4 24 -14 -3 -8 0 -23 5 -33 6 -11 8
-43 4 -73 -6 -47 -10 -55 -36 -66 -22 -10 -36 -11 -54 -2 -16 7 -32 7 -49 1
-21 -8 -25 -15 -21 -42 7 -50 17 -70 33 -63 26 9 216 56 245 60 16 2 28 -1 28
-6 0 -5 6 -9 13 -9 8 0 14 -12 14 -30 0 -36 5 -42 35 -41 13 1 68 2 123 2 55
0 129 0 165 0 36 0 106 0 156 0 84 -1 92 0 97 19 11 41 -5 65 -40 61 -6 -1
-14 16 -17 36 -8 52 -5 174 5 194 12 23 0 56 -22 62 -10 3 -40 -1 -65 -9 -50
-15 -203 -17 -226 -3 -7 5 -8 9 -3 10 6 1 19 3 30 4 32 4 72 23 81 37 5 7 9
31 11 53 5 89 -8 80 119 80 100 0 115 2 120 17 6 22 -4 60 -20 70 -13 9 -70
10 -78 2 -9 -8 -138 -10 -138 -2 0 12 56 47 111 68 61 24 79 42 79 79 0 40
-14 53 -56 53 -163 -1 -184 -2 -184 -11 0 -6 -16 -11 -35 -11 -19 0 -35 5 -35
10 0 6 -30 10 -69 10 -76 0 -89 -11 -75 -64 6 -26 43 -44 63 -32 5 3 62 8 128
11 l118 4 -62 -31 c-43 -22 -64 -39 -68 -55 -3 -13 -4 -27 -1 -31 2 -4 -43 -8
-100 -10 l-104 -3 0 28 c0 43 -10 49 -80 48 l-65 0 1 66 c1 36 6 75 12 86 15
27 7 33 -47 33 l-46 0 0 -94z m-5 -260 c0 -44 3 -90 6 -102 5 -17 1 -21 -24
-21 l-29 0 1 107 c1 105 1 106 24 102 21 -4 22 -9 22 -86z m138 -14 l3 -109
-32 0 -32 0 7 66 c3 36 6 83 6 103 0 30 4 37 23 41 12 2 22 5 22 6 0 0 1 -48
3 -107z m87 59 c-19 -32 79 -56 109 -26 15 15 46 19 81 9 16 -4 21 -14 22 -44
2 -42 -6 -49 -50 -44 -25 2 -27 0 -21 -19 4 -12 8 -35 8 -52 1 -24 -3 -30 -19
-28 -49 7 -95 7 -101 1 -7 -7 -7 -18 1 -125 3 -39 1 -82 -3 -94 -8 -20 -10
-16 -21 26 -7 26 -19 61 -27 77 -13 25 -13 28 0 28 12 0 14 10 9 50 -3 30 -1
55 5 63 13 15 14 115 1 123 -10 6 -12 48 -2 57 9 10 15 8 8 -2z m-85 -273 c0
-10 7 -18 15 -18 24 0 17 -17 -10 -24 -27 -7 -30 -20 -15 -62 12 -31 11 -33
-22 -39 -24 -5 -26 -1 -32 45 -4 29 -2 58 4 69 5 11 8 26 5 34 -4 10 3 14 25
14 22 0 30 -5 30 -19z m239 -33 c1 -11 3 -45 6 -75 6 -80 -1 -105 -30 -106
-29 -2 -36 24 -30 106 3 30 5 65 6 76 2 29 46 28 48 -1z m130 1 c1 -12 3 -46
6 -76 7 -85 0 -107 -35 -107 -35 0 -42 22 -35 107 3 30 5 64 6 76 1 16 8 21
29 21 21 0 28 -5 29 -21z m120 -1 c1 -11 3 -45 6 -75 6 -80 -1 -105 -30 -106
-29 -2 -36 24 -30 106 3 30 5 65 6 76 2 29 46 28 48 -1z m-387 -182 c-7 -3
-16 -2 -19 1 -4 3 2 6 13 5 11 0 14 -3 6 -6z"/>
</g>
</svg>
