<?xml version="1.0" standalone="no"?>
<!DOCTYPE svg PUBLIC "-//W3C//DTD SVG 20010904//EN"
 "http://www.w3.org/TR/2001/REC-SVG-20010904/DTD/svg10.dtd">
<svg version="1.0" xmlns="http://www.w3.org/2000/svg"
 width="101.000000pt" height="101.000000pt" viewBox="0 0 101.000000 101.000000"
 preserveAspectRatio="xMidYMid meet">
<metadata>
Created by potrace 1.16, written by Peter Selinger 2001-2019
</metadata>
<g transform="translate(0.000000,101.000000) scale(0.100000,-0.100000)"
fill="#000000" stroke="none">
<path d="M239 993 c-11 -3 -14 -12 -11 -33 2 -17 1 -54 -2 -83 l-7 -54 -53 5
c-75 6 -96 -8 -96 -63 0 -25 5 -45 10 -45 6 0 10 -11 10 -25 0 -14 -4 -25 -10
-25 -6 0 -10 -30 -10 -70 0 -40 4 -70 10 -70 6 0 10 -11 10 -25 0 -14 -4 -25
-10 -25 -12 0 -13 -80 -1 -99 9 -14 65 -20 76 -9 3 3 6 25 7 50 2 42 4 45 31
45 19 0 26 -4 23 -14 -3 -7 -1 -23 4 -36 6 -13 7 -46 3 -82 l-8 -60 -35 3
c-52 4 -73 3 -95 -2 -11 -2 -26 -5 -33 -5 -12 -1 -11 -48 3 -84 8 -20 10 -20
35 -7 10 5 35 12 56 15 22 4 48 8 59 11 34 7 79 15 105 18 14 2 32 7 42 10 12
6 18 0 22 -22 7 -30 19 -33 64 -18 28 9 27 22 -6 126 -27 82 -29 85 -57 83
-41 -3 -49 -16 -36 -54 15 -43 15 -44 -13 -45 -21 -2 -24 4 -30 47 -4 28 -2
57 4 68 5 11 7 26 4 34 -4 11 1 15 20 13 17 0 26 -7 26 -17 0 -19 27 -29 62
-22 l23 4 1 199 2 199 -67 -2 -66 -2 1 60 c1 33 5 68 9 77 11 26 -31 44 -76
31z m-27 -305 c-1 -31 2 -59 8 -63 11 -7 13 -55 2 -70 -4 -6 -18 -11 -32 -11
l-25 -2 0 102 0 101 25 0 c24 0 25 -2 22 -57z m147 -20 c-2 -99 -9 -122 -38
-126 -21 -2 -23 1 -17 29 3 17 6 60 6 95 0 63 2 67 43 73 4 0 6 -32 6 -71z"/>
<path d="M503 943 c-17 -6 -18 -113 -2 -113 12 0 8 -77 -6 -112 -6 -15 2 -16
67 -15 72 2 73 2 73 -23 0 -24 -2 -25 -60 -22 -33 2 -72 -1 -87 -7 -26 -10
-28 -14 -28 -71 0 -33 4 -60 10 -60 6 0 10 -16 10 -35 0 -19 -4 -35 -10 -35
-5 0 -10 -18 -10 -40 0 -23 5 -40 11 -40 8 0 9 -20 4 -65 -6 -59 -5 -65 12
-67 52 -4 77 11 68 42 -4 12 5 16 39 18 48 2 44 10 50 -93 1 -27 3 -55 4 -62
3 -19 102 -44 125 -31 11 5 32 7 48 4 67 -13 118 20 134 87 5 19 3 27 -6 27
-8 0 -25 9 -39 20 -33 26 -36 25 -43 -9 -4 -19 -15 -32 -34 -39 -27 -10 -99
-9 -110 2 -3 3 -7 26 -8 51 -3 37 -1 45 11 41 8 -3 24 -1 37 5 14 6 42 7 77 1
l55 -8 2 177 2 177 -78 6 c-42 4 -83 4 -91 1 -11 -4 -15 2 -16 20 -2 23 2 25
45 27 25 1 61 1 80 -1 l33 -2 -7 81 c-5 58 -4 85 5 95 7 8 10 26 6 40 l-6 25
-126 -6 c-77 -4 -129 -2 -137 4 -12 10 -82 13 -104 5z m282 -119 l0 -40 -100
0 -100 1 0 40 0 40 100 0 100 0 0 -41z m-150 -279 c0 -34 -1 -34 -41 -33 -37
2 -41 5 -41 30 0 24 4 27 41 31 23 2 41 4 41 5 0 1 0 -14 0 -33z m181 -5 c-1
-33 -3 -35 -31 -32 -16 1 -40 3 -51 3 -18 1 -22 7 -21 33 1 31 1 31 52 31 l52
0 -1 -35z m-1 -135 c0 -38 -1 -40 -30 -37 -16 1 -40 3 -51 3 -18 1 -22 7 -21
35 1 26 5 33 16 29 9 -2 23 0 31 5 8 6 24 9 35 8 16 -3 20 -11 20 -43z m-178
0 c1 -34 1 -34 -42 -33 -41 2 -43 4 -42 33 1 29 3 31 42 33 40 1 41 1 42 -33z"/>
</g>
</svg>
