<?xml version="1.0" standalone="no"?>
<!DOCTYPE svg PUBLIC "-//W3C//DTD SVG 20010904//EN"
 "http://www.w3.org/TR/2001/REC-SVG-20010904/DTD/svg10.dtd">
<svg version="1.0" xmlns="http://www.w3.org/2000/svg"
 width="101.000000pt" height="101.000000pt" viewBox="0 0 101.000000 101.000000"
 preserveAspectRatio="xMidYMid meet">
<metadata>
Created by potrace 1.16, written by Peter Selinger 2001-2019
</metadata>
<g transform="translate(0.000000,101.000000) scale(0.100000,-0.100000)"
fill="#000000" stroke="none">
<path d="M218 1003 c-22 -5 -32 -59 -25 -121 l6 -47 -61 3 c-43 3 -63 0 -69
-10 -12 -18 -11 -105 1 -113 12 -7 12 -153 0 -160 -5 -3 -8 -39 -8 -79 1 -81
7 -89 62 -79 26 5 32 22 28 74 -1 12 6 16 22 15 16 -1 24 -8 25 -21 1 -11 3
-42 5 -70 7 -83 0 -100 -44 -115 -30 -10 -46 -10 -64 -2 -32 14 -69 4 -61 -17
4 -9 9 -28 12 -44 7 -37 15 -40 63 -27 23 6 56 13 73 16 34 6 70 12 102 19 56
13 76 13 72 1 -11 -29 9 -38 48 -22 33 14 36 14 31 1 -3 -8 0 -27 6 -41 9 -19
9 -30 0 -44 -9 -15 -8 -19 8 -23 10 -2 30 -2 44 0 22 5 25 9 21 38 -3 28 -1
33 18 34 12 1 47 3 77 6 30 3 92 2 137 -1 l83 -6 -5 -28 c-6 -31 13 -41 60
-33 l26 6 -1 111 c-1 61 -1 140 -1 176 0 36 0 110 0 165 0 55 1 111 2 124 1
30 -18 43 -51 35 -14 -4 -41 -8 -60 -9 -34 -3 -35 -2 -35 34 l-1 36 88 0 c96
0 106 6 92 59 -6 25 -7 26 -89 23 l-83 -2 29 42 c16 23 37 46 46 51 14 8 12
12 -13 24 -71 36 -76 34 -113 -48 l-34 -74 -36 6 c-40 7 -53 14 -28 14 10 0
17 6 17 13 0 17 -58 107 -69 107 -16 0 -71 -22 -71 -28 0 -4 14 -27 30 -51 17
-24 30 -47 30 -50 0 -3 -30 -4 -66 -3 -48 3 -69 0 -75 -10 -5 -7 -21 -14 -36
-15 -15 0 -46 -3 -68 -5 l-40 -5 1 57 c1 31 5 66 9 79 11 34 -16 48 -67 34z
m279 -220 l71 3 4 -33 4 -34 -56 7 c-74 8 -91 -7 -89 -77 1 -28 6 -52 10 -54
10 -7 11 -173 0 -180 -12 -7 -12 -93 0 -101 10 -6 12 -45 3 -69 -5 -11 -16 12
-34 67 -24 76 -29 83 -51 80 -47 -5 -49 -8 -34 -47 12 -27 12 -35 3 -36 -7 0
-22 -2 -34 -4 -19 -4 -22 1 -28 56 -3 34 -2 69 4 79 5 10 7 25 4 33 -4 11 1
15 20 13 17 0 26 -7 26 -17 0 -19 27 -29 63 -22 23 5 24 8 23 78 -1 41 -5 77
-9 81 -11 11 -8 52 4 59 6 4 10 30 9 59 -1 28 -1 60 0 71 1 17 2 18 8 3 6 -14
19 -17 79 -15z m184 -3 c4 0 9 -12 11 -28 4 -26 2 -27 -29 -24 -29 4 -33 8
-33 34 0 27 3 30 23 24 12 -3 25 -6 28 -6z m-484 -118 l3 -97 -26 -2 c-26 -1
-26 0 -20 50 3 29 6 71 6 94 0 31 4 43 18 46 9 3 17 5 17 6 0 0 1 -43 2 -97z
m131 -3 l2 -96 -27 0 -28 0 0 96 c0 96 0 96 25 96 25 0 25 -1 28 -96z m237
-73 c-3 -55 -17 -100 -34 -111 -19 -11 -12 -31 17 -46 15 -7 30 -15 33 -16 16
-9 73 184 63 211 -3 8 5 13 24 13 33 0 33 -2 32 -113 0 -60 0 -62 31 -73 22
-7 37 -8 51 0 29 16 42 6 44 -33 l3 -36 -82 -6 c-45 -3 -107 -4 -137 -1 -30 3
-65 5 -77 6 -29 1 -36 37 -28 139 3 41 6 84 6 96 1 16 8 21 29 21 28 0 28 -1
25 -51z m264 30 c0 -11 2 -37 3 -56 3 -32 1 -34 -28 -36 -40 -2 -63 31 -45 64
6 11 9 27 6 34 -4 10 4 14 29 15 28 1 34 -3 35 -21z m-79 -302 l76 -6 1 -38 2
-38 -82 -6 c-45 -3 -107 -4 -137 -1 -30 3 -65 5 -77 6 -19 1 -22 7 -20 40 1
30 5 38 17 34 8 -2 22 0 30 5 16 10 81 11 190 4z"/>
</g>
</svg>
