<?xml version="1.0" standalone="no"?>
<!DOCTYPE svg PUBLIC "-//W3C//DTD SVG 20010904//EN"
 "http://www.w3.org/TR/2001/REC-SVG-20010904/DTD/svg10.dtd">
<svg version="1.0" xmlns="http://www.w3.org/2000/svg"
 width="101.000000pt" height="101.000000pt" viewBox="0 0 101.000000 101.000000"
 preserveAspectRatio="xMidYMid meet">
<metadata>
Created by potrace 1.16, written by Peter Selinger 2001-2019
</metadata>
<g transform="translate(0.000000,101.000000) scale(0.100000,-0.100000)"
fill="#000000" stroke="none">
<path d="M618 1003 c-19 -5 -33 -37 -23 -53 4 -6 8 -27 9 -48 3 -37 2 -38 -30
-34 -35 4 -50 32 -34 63 15 27 -15 52 -54 45 -39 -8 -47 -22 -44 -73 3 -38 1
-40 -16 -31 -15 8 -22 7 -31 -5 -12 -16 -29 -20 -91 -18 l-41 1 2 53 c1 29 5
62 9 73 5 18 1 19 -47 18 l-52 -2 1 -44 c1 -23 4 -56 6 -73 l4 -30 -63 2 -62
1 -6 -31 c-8 -46 -1 -394 8 -403 8 -9 64 -10 73 -1 3 3 6 21 7 40 1 29 4 34
23 33 14 -1 22 -8 24 -21 2 -26 0 -158 -3 -161 -1 -2 -20 -5 -42 -8 -55 -7
-99 -16 -104 -22 -7 -7 19 -84 29 -84 4 0 62 15 127 34 125 36 152 39 168 18
8 -10 17 -10 43 0 17 7 32 16 32 21 0 17 -73 147 -82 147 -8 0 -47 -18 -56
-25 -2 -2 4 -15 13 -29 10 -14 13 -26 9 -27 -5 0 -21 -2 -35 -4 -25 -3 -27 0
-33 46 -4 28 -2 57 4 68 5 11 7 26 4 34 -4 11 1 15 20 13 14 0 26 -6 26 -12 0
-14 33 -24 59 -17 18 4 19 16 19 146 0 191 -2 182 37 182 37 0 37 0 35 -108 0
-37 -4 -77 -9 -90 -21 -55 16 -100 61 -76 10 5 40 7 66 3 46 -6 48 -7 49 -39
1 -32 0 -33 -48 -39 -27 -4 -55 -4 -61 0 -6 4 -32 9 -58 11 -41 3 -48 1 -53
-17 -13 -49 24 -81 66 -59 10 6 34 8 53 4 l35 -6 -33 -46 c-38 -52 -84 -91
-145 -122 -24 -12 -43 -25 -43 -29 1 -4 18 -19 39 -33 l38 -27 52 41 c45 35
110 112 147 173 11 18 12 17 13 -6 6 -93 5 -178 -2 -196 -9 -25 11 -34 62 -26
30 4 32 7 25 31 -5 14 -7 58 -6 96 3 126 1 123 32 68 30 -52 100 -122 147
-147 l30 -15 32 46 c18 25 31 46 29 47 -2 1 -21 8 -43 15 -55 19 -109 57 -139
96 l-25 33 27 1 c15 1 52 2 83 1 61 0 74 13 62 61 -5 18 -10 19 -62 12 -50 -7
-72 -7 -147 -2 -18 1 -22 7 -21 34 1 37 -2 36 124 37 71 1 82 3 86 19 9 35 -3
59 -27 53 -21 -5 -297 -8 -343 -4 -26 3 -33 31 -27 105 2 28 4 60 5 72 1 17 9
22 40 25 29 3 38 0 34 -9 -2 -7 1 -25 7 -39 9 -19 9 -30 0 -45 -25 -40 -16
-50 41 -43 77 9 108 9 149 0 l37 -8 0 54 c-1 89 1 96 22 91 34 -9 87 7 94 27
12 39 -2 57 -42 55 -59 -4 -64 1 -63 64 1 31 1 62 1 69 -1 7 -17 12 -45 12
-53 0 -58 -10 -51 -91 l4 -54 -37 0 -37 -1 3 41 c8 101 -2 116 -70 98z m139
-255 c2 -37 2 -37 -37 -35 -38 1 -39 2 -37 37 1 34 3 36 37 35 34 0 36 -2 37
-37z m-568 7 c0 -11 3 -47 6 -80 7 -90 0 -120 -30 -121 -20 -2 -25 4 -30 30
-3 17 -3 58 0 91 3 33 6 70 6 81 2 29 46 28 48 -1z m120 0 c0 -11 3 -47 6 -80
7 -90 0 -120 -30 -121 -20 -2 -25 4 -30 30 -3 17 -3 58 0 91 3 33 6 70 6 81 2
29 46 28 48 -1z"/>
</g>
</svg>
