<?xml version="1.0" standalone="no"?>
<!DOCTYPE svg PUBLIC "-//W3C//DTD SVG 20010904//EN"
 "http://www.w3.org/TR/2001/REC-SVG-20010904/DTD/svg10.dtd">
<svg version="1.0" xmlns="http://www.w3.org/2000/svg"
 width="101.000000pt" height="101.000000pt" viewBox="0 0 101.000000 101.000000"
 preserveAspectRatio="xMidYMid meet">
<metadata>
Created by potrace 1.16, written by Peter Selinger 2001-2019
</metadata>
<g transform="translate(0.000000,101.000000) scale(0.100000,-0.100000)"
fill="#000000" stroke="none">
<path d="M198 1003 c-15 -4 -17 -15 -14 -88 l4 -83 -62 3 -63 4 -2 -86 c-1
-46 4 -99 10 -117 9 -24 9 -56 1 -122 -6 -49 -8 -91 -6 -93 2 -2 18 -4 35 -4
33 0 52 18 43 44 -3 13 1 17 21 15 16 0 23 -6 20 -14 -2 -7 0 -22 6 -35 6 -13
7 -43 2 -77 -8 -52 -10 -55 -38 -57 -17 -1 -46 -4 -65 -6 -19 -3 -41 -5 -48
-6 -8 -1 -11 -15 -8 -46 2 -25 6 -48 9 -51 3 -3 42 6 88 20 45 14 85 24 87 21
3 -2 13 0 22 5 10 5 34 12 55 14 30 4 36 2 31 -10 -3 -9 -1 -24 4 -34 9 -17
14 -18 48 -6 43 15 43 19 5 139 l-24 78 -32 -7 c-42 -8 -41 -8 -28 -45 12 -35
10 -41 -18 -46 -15 -2 -20 6 -25 47 -4 29 -2 58 4 69 5 11 7 26 4 34 -4 11 1
15 20 13 17 0 26 -7 26 -17 0 -18 30 -30 58 -23 14 4 18 19 20 95 2 59 0 89
-7 89 -7 0 -11 28 -11 75 0 41 3 75 8 75 4 0 15 -9 25 -20 10 -12 23 -18 29
-14 6 4 22 8 35 10 18 2 23 -1 19 -13 -3 -8 -1 -24 5 -35 6 -11 8 -35 5 -52
-5 -28 -10 -33 -36 -33 -37 0 -43 -5 -40 -35 1 -13 2 -89 2 -170 -1 -138 0
-146 20 -151 39 -11 54 5 50 54 -1 11 9 15 34 16 24 1 34 -3 31 -11 -8 -20 8
-38 37 -39 14 -1 26 -4 26 -7 0 -11 -34 -56 -73 -97 -37 -38 -39 -43 -21 -49
10 -4 34 -13 52 -20 32 -13 33 -12 56 24 53 84 107 223 110 282 1 21 6 24 47
27 43 3 47 1 48 -19 0 -13 3 -55 6 -95 7 -96 -5 -125 -48 -122 -66 4 -67 3
-46 -38 10 -21 19 -43 19 -51 0 -16 70 -11 113 9 41 19 40 6 38 404 -1 50 1
170 3 267 3 148 1 178 -11 182 -8 4 -19 3 -24 0 -14 -8 -174 -8 -187 0 -19 11
-43 -25 -42 -63 1 -20 2 -53 1 -74 -1 -35 -2 -37 -17 -23 -8 9 -29 16 -45 16
-28 0 -29 2 -30 48 -1 26 0 54 1 62 9 51 7 54 -43 54 -45 1 -47 0 -53 -32 -4
-18 -3 -45 0 -60 4 -15 7 -40 9 -57 2 -29 0 -30 -45 -31 -26 -1 -49 4 -51 10
-3 6 -29 11 -63 11 l-59 0 1 45 c1 25 5 61 9 79 10 46 -16 60 -77 44z m638
-188 l1 -84 -41 1 -41 2 0 76 0 75 40 6 c22 3 40 7 40 7 0 1 0 -36 1 -83z
m-670 -63 c6 -4 15 -50 18 -102 l7 -95 -25 -1 -26 -2 2 104 c2 57 5 104 8 104
3 0 10 -4 16 -8z m118 2 c10 -4 16 -18 16 -39 0 -18 5 -35 11 -37 8 -3 9 -23
5 -63 -7 -53 -10 -60 -30 -61 -21 -2 -22 1 -21 102 0 57 1 104 2 104 1 0 8 -3
17 -6z m396 -65 c0 -10 -5 -21 -10 -24 -7 -4 -10 -55 -9 -133 2 -124 -2 -166
-20 -214 -12 -32 -23 85 -16 172 10 127 11 123 -35 123 -24 0 -32 6 -36 24 -4
14 -2 35 4 49 7 13 9 30 6 37 -3 9 8 13 38 14 24 1 44 7 46 13 5 15 32 -37 32
-61z m156 -35 c-3 -8 -1 -24 4 -35 6 -11 8 -40 4 -69 l-7 -49 -42 1 -43 2 -6
48 c-4 27 -2 56 4 67 5 11 8 26 5 33 -4 10 7 14 41 16 38 1 45 -1 40 -14z
m-280 -121 c-3 -8 -1 -23 5 -34 6 -11 7 -39 4 -63 -7 -42 -8 -44 -40 -43 -31
1 -34 3 -40 44 -3 24 -2 51 4 62 6 11 9 26 6 33 -4 10 4 14 30 15 28 1 35 -2
31 -14z"/>
</g>
</svg>
