<?xml version="1.0" standalone="no"?>
<!DOCTYPE svg PUBLIC "-//W3C//DTD SVG 20010904//EN"
 "http://www.w3.org/TR/2001/REC-SVG-20010904/DTD/svg10.dtd">
<svg version="1.0" xmlns="http://www.w3.org/2000/svg"
 width="101.000000pt" height="102.000000pt" viewBox="0 0 101.000000 102.000000"
 preserveAspectRatio="xMidYMid meet">
<metadata>
Created by potrace 1.16, written by Peter Selinger 2001-2019
</metadata>
<g transform="translate(0.000000,102.000000) scale(0.100000,-0.100000)"
fill="#000000" stroke="none">
<path d="M628 980 c2 -22 1 -55 -2 -73 l-6 -32 -94 1 c-92 1 -95 1 -101 -23
-3 -14 -3 -33 0 -44 6 -17 15 -18 96 -15 88 5 89 4 89 -19 0 -13 3 -30 6 -39
5 -14 -7 -15 -93 -13 l-98 2 2 -65 c3 -72 4 -150 4 -177 -1 -10 2 -52 4 -93 3
-41 3 -91 -1 -110 -6 -34 -7 -33 -30 43 -14 42 -29 77 -33 77 -5 0 -23 -3 -40
-6 -29 -6 -32 -9 -25 -33 15 -59 14 -68 -16 -68 -26 0 -28 4 -34 49 -4 27 -2
56 4 67 5 11 8 26 5 34 -4 10 3 14 25 14 22 0 30 -5 30 -18 0 -19 30 -30 61
-22 15 4 19 11 15 27 -13 46 -19 215 -8 229 6 7 11 43 10 79 l-1 66 -53 6
c-29 3 -59 4 -67 1 -11 -5 -13 5 -11 52 2 32 6 72 10 89 5 27 3 33 -15 39 -28
8 -81 -3 -82 -18 -2 -25 2 -93 7 -129 l5 -36 -59 5 c-52 5 -61 3 -70 -13 -13
-25 -15 -161 -2 -169 13 -8 13 -52 0 -60 -10 -6 -5 -183 5 -194 7 -7 64 -5 72
2 3 4 6 20 6 36 0 24 4 28 24 27 15 -1 21 -6 18 -14 -3 -7 0 -22 5 -32 6 -11
8 -43 4 -73 -5 -46 -10 -55 -35 -66 -20 -9 -33 -9 -48 -2 -13 8 -28 8 -46 1
-23 -9 -25 -14 -21 -49 6 -58 11 -62 58 -45 22 8 56 16 74 18 18 3 37 7 42 10
5 3 27 8 48 11 22 4 49 8 62 10 16 2 22 -2 22 -14 0 -28 10 -31 46 -16 l33 14
-5 -36 c-2 -19 -6 -38 -8 -42 -8 -12 9 -30 29 -32 65 -6 65 -6 64 89 0 48 0
116 0 152 0 36 0 110 0 165 0 150 -3 140 47 140 49 0 58 -9 19 -19 -30 -8 -31
-15 -5 -66 24 -48 25 -45 -1 -47 -25 -2 -25 -2 -33 -28 -9 -33 9 -49 52 -48
37 2 39 0 39 -28 0 -26 -4 -30 -26 -28 -46 4 -59 -1 -64 -21 -11 -44 1 -57 50
-53 37 3 44 1 39 -12 -3 -8 -1 -26 5 -39 8 -16 8 -38 1 -69 -10 -50 -1 -60 52
-50 24 5 26 9 26 62 -1 115 -4 109 50 107 52 -3 64 10 53 54 -5 19 -31 26 -84
22 -11 -1 -16 8 -16 27 0 28 2 29 48 27 51 -3 63 10 52 53 -4 16 -12 19 -44
16 l-39 -4 21 32 c12 18 31 42 42 54 l20 23 -36 15 c-51 21 -64 19 -71 -12 -4
-16 -14 -47 -22 -69 -14 -36 -20 -41 -44 -40 -32 1 -54 16 -24 16 42 0 47 14
24 68 -12 28 -19 55 -16 60 7 11 133 15 182 6 23 -4 32 -12 33 -27 3 -35 2
-224 -1 -332 l-3 -100 -48 -1 c-26 0 -49 -3 -52 -6 -10 -10 36 -97 53 -100 19
-4 110 26 126 42 7 7 10 46 9 96 -2 50 1 84 7 84 6 0 10 18 10 40 0 22 -4 40
-10 40 -15 0 -13 157 3 164 10 5 10 7 0 12 -16 7 -17 74 -2 74 6 0 9 17 7 43
l-3 42 -115 2 -115 1 -3 34 -3 33 88 0 c48 0 94 -4 101 -8 33 -22 70 20 58 66
-5 21 -10 22 -121 22 l-115 0 4 52 c3 29 8 58 12 64 10 17 -16 29 -61 29 l-41
0 4 -40z m-440 -345 l2 -100 -25 -1 -25 -2 2 103 c3 95 4 102 23 101 18 -1 20
-9 23 -101z m127 2 l1 -104 -28 0 -28 0 2 98 c3 96 4 98 28 102 14 2 25 5 25
5 0 1 0 -45 0 -101z"/>
</g>
</svg>
