<?xml version="1.0" standalone="no"?>
<!DOCTYPE svg PUBLIC "-//W3C//DTD SVG 20010904//EN"
 "http://www.w3.org/TR/2001/REC-SVG-20010904/DTD/svg10.dtd">
<svg version="1.0" xmlns="http://www.w3.org/2000/svg"
 width="101.000000pt" height="101.000000pt" viewBox="0 0 101.000000 101.000000"
 preserveAspectRatio="xMidYMid meet">
<metadata>
Created by potrace 1.16, written by Peter Selinger 2001-2019
</metadata>
<g transform="translate(0.000000,101.000000) scale(0.100000,-0.100000)"
fill="#000000" stroke="none">
<path d="M688 1003 c-15 -4 -17 -17 -14 -99 l2 -94 -72 5 c-67 5 -72 4 -77
-16 -9 -32 4 -153 17 -161 7 -5 6 -27 -3 -75 -7 -37 -12 -77 -11 -88 0 -11 2
-35 2 -52 2 -34 9 -38 58 -34 28 3 42 19 35 42 -4 12 2 16 24 16 22 0 29 -5
30 -21 1 -12 3 -43 5 -71 7 -86 1 -101 -50 -115 -33 -9 -51 -10 -68 -2 -13 6
-34 8 -46 5 -17 -5 -20 -11 -15 -31 3 -13 9 -37 12 -53 5 -24 9 -28 27 -23 46
13 55 15 87 20 19 3 45 7 59 10 38 8 71 13 112 18 20 2 42 7 48 11 6 3 11 -4
12 -17 0 -13 2 -27 3 -33 2 -5 3 -15 4 -22 2 -19 91 18 91 37 0 22 -66 210
-78 222 -7 7 -22 6 -47 -2 -28 -9 -35 -16 -30 -29 18 -42 27 -72 24 -75 -2 -2
-18 -7 -35 -10 l-31 -7 -6 61 c-4 35 -3 70 3 80 5 10 7 25 4 33 -6 16 5 18
101 18 l50 0 3 99 c2 66 0 100 -7 100 -7 0 -11 29 -11 75 0 43 4 75 10 75 6 0
10 4 10 10 0 15 -49 24 -63 11 -8 -6 -29 -8 -50 -4 -36 5 -47 23 -37 58 2 6 4
24 6 41 1 17 5 41 9 54 6 19 4 21 -14 15 -13 -4 -27 -1 -37 9 -16 16 -17 17
-46 9z m-13 -369 l1 -101 -28 0 -28 0 2 102 c3 101 3 102 28 101 25 -1 25 -1
25 -102z m153 2 l2 -104 -32 1 -33 1 0 95 0 96 30 6 c17 4 30 7 30 8 0 0 1
-46 3 -103z"/>
<path d="M74 943 c-14 -15 -14 -66 0 -81 5 -5 3 -5 216 -1 91 2 174 0 186 -5
45 -17 78 71 35 94 -24 13 -138 13 -146 1 -7 -12 -172 -13 -180 -1 -9 15 -94
10 -111 -7z"/>
<path d="M116 795 c-9 -36 4 -189 17 -197 16 -10 99 -7 113 4 7 5 57 7 112 5
l100 -3 7 88 c9 118 7 123 -54 123 -27 0 -53 -3 -57 -7 -11 -12 -52 -10 -59 2
-4 6 -41 10 -90 8 -77 -2 -84 -4 -89 -23z m259 -90 l0 -34 -85 2 -86 2 4 27
c4 26 7 27 76 31 39 1 76 4 81 5 6 1 10 -14 10 -33z"/>
<path d="M99 563 c-21 -5 -31 -40 -19 -62 5 -9 6 -59 4 -111 -6 -135 -6 -272
1 -278 7 -7 74 -6 81 1 3 3 0 42 -6 88 -6 46 -8 118 -5 159 3 41 6 85 6 96 1
15 8 22 23 23 11 0 53 3 91 6 97 8 133 0 134 -28 1 -12 3 -63 6 -113 6 -94 -2
-138 -26 -140 -50 -4 -51 -4 -44 -21 4 -10 9 -29 10 -41 5 -33 8 -35 54 -27
67 11 85 32 81 96 -5 81 -3 237 4 297 l7 53 -178 -3 c-98 -2 -185 0 -193 3 -8
4 -22 5 -31 2z"/>
<path d="M206 463 c-18 -5 -18 -16 0 -80 5 -17 2 -23 -9 -23 -16 0 -29 -34
-20 -56 5 -14 21 -18 54 -16 17 1 19 -4 22 -85 1 -32 6 -43 20 -47 32 -8 43 3
44 47 3 85 3 83 41 84 39 1 55 18 45 48 -7 25 -22 35 -40 28 -19 -7 -16 7 8
46 20 33 20 35 3 48 -10 7 -28 13 -40 13 -19 0 -24 -8 -35 -55 -7 -33 -17 -55
-26 -55 -16 0 -17 17 -1 22 9 3 8 14 -3 44 -15 39 -27 46 -63 37z"/>
</g>
</svg>
