<?xml version="1.0" standalone="no"?>
<!DOCTYPE svg PUBLIC "-//W3C//DTD SVG 20010904//EN"
 "http://www.w3.org/TR/2001/REC-SVG-20010904/DTD/svg10.dtd">
<svg version="1.0" xmlns="http://www.w3.org/2000/svg"
 width="101.000000pt" height="101.000000pt" viewBox="0 0 101.000000 101.000000"
 preserveAspectRatio="xMidYMid meet">
<metadata>
Created by potrace 1.16, written by Peter Selinger 2001-2019
</metadata>
<g transform="translate(0.000000,101.000000) scale(0.100000,-0.100000)"
fill="#000000" stroke="none">
<path d="M602 968 c1 -91 7 -85 -74 -76 -89 9 -116 3 -124 -28 -7 -27 -7 -27
-84 -28 l-55 -1 2 45 c2 25 5 61 8 80 l6 36 -45 -1 c-44 0 -46 -1 -52 -33 -4
-19 -4 -55 -1 -81 l6 -46 -40 3 c-21 2 -50 1 -63 -2 l-23 -6 2 -157 c1 -87 -2
-168 -6 -179 -18 -49 10 -77 66 -66 25 4 27 7 21 42 -5 35 -4 38 18 36 16 -1
24 -7 25 -21 1 -11 3 -45 6 -75 4 -59 -2 -113 -14 -106 -4 3 -21 -2 -39 -11
-25 -12 -38 -13 -56 -5 -13 6 -33 8 -44 5 -20 -5 -20 -6 -5 -47 21 -54 27 -60
51 -47 11 6 37 13 58 16 22 4 50 8 64 11 24 5 38 7 103 18 17 3 27 0 26 -7 -4
-35 1 -39 39 -32 20 3 40 10 45 14 4 4 -5 46 -19 94 -26 84 -28 86 -53 80 -40
-9 -43 -13 -37 -44 3 -16 2 -29 -2 -30 -4 0 -16 -2 -28 -4 -19 -4 -22 1 -28
56 -3 34 -2 69 4 79 5 10 7 25 4 33 -4 11 1 15 20 13 18 -1 26 -7 26 -18 0
-10 5 -18 10 -18 6 0 29 -18 52 -40 23 -21 45 -37 50 -34 4 3 7 -3 6 -13 -5
-59 -2 -62 58 -57 53 5 55 4 45 -15 -16 -29 -86 -86 -139 -112 -26 -13 -49
-25 -50 -26 -8 -3 63 -62 75 -63 14 0 147 128 182 175 13 17 20 22 17 13 -2
-9 0 -30 6 -46 9 -23 8 -38 -5 -70 -25 -62 -6 -87 57 -75 26 5 26 7 19 57 -4
28 -7 67 -6 86 2 19 3 45 4 58 1 16 6 22 16 18 8 -3 24 -1 35 5 16 9 35 8 75
-1 30 -6 57 -10 59 -7 3 3 6 23 7 45 0 23 6 38 12 36 5 -2 25 14 43 36 30 36
31 41 15 46 -52 17 -122 57 -147 83 l-28 29 53 -4 c76 -7 99 -7 106 0 7 7 8
64 2 71 -10 9 -86 7 -151 -5 -48 -8 -72 -8 -87 -1 -11 6 -27 8 -35 5 -17 -6
-22 12 -8 32 9 12 33 15 135 16 73 1 78 2 83 24 11 45 3 49 -98 49 -80 0 -94
2 -95 16 -2 20 57 31 83 16 24 -13 124 -3 135 14 13 22 11 46 -8 64 -12 13
-28 16 -67 12 -28 -3 -69 -7 -92 -9 l-40 -4 7 55 c9 64 4 71 -58 71 l-42 0 1
-42z m-129 -166 c30 -2 63 0 74 6 21 11 39 5 45 -16 2 -9 -16 -13 -70 -15 -71
-2 -92 -12 -92 -42 0 -34 30 -43 97 -29 38 7 52 -11 33 -46 -9 -16 -17 -20
-33 -15 -27 8 -75 16 -104 17 -22 0 -23 4 -23 87 0 54 4 81 9 72 5 -8 32 -16
64 -19z m-287 -68 c-3 -8 -1 -24 4 -35 6 -11 8 -40 4 -66 -5 -41 -9 -48 -29
-49 -20 -2 -24 4 -30 42 -3 24 -2 52 4 63 6 11 8 26 5 34 -4 11 2 17 18 20 13
2 25 5 27 6 2 0 0 -6 -3 -15z m119 -2 c-3 -7 0 -22 5 -33 6 -11 8 -40 4 -66
-5 -41 -9 -48 -29 -49 -20 -2 -24 4 -29 47 -4 28 -2 57 4 68 5 11 7 26 4 34
-4 11 2 15 20 13 17 0 24 -6 21 -14z m411 -163 c8 -17 12 -35 7 -40 -7 -7 -52
-15 -131 -24 -33 -3 -33 -3 -18 18 9 12 21 32 28 45 7 13 18 20 27 17 9 -2 23
0 31 5 25 16 39 11 56 -21z m-206 0 c-17 -30 -103 -100 -113 -90 -5 5 -5 30
-2 55 6 37 11 46 24 42 9 -3 22 -2 29 3 7 4 26 8 42 8 24 0 27 -3 20 -18z m35
-120 c6 -18 13 -20 40 -16 30 5 33 3 31 -18 -1 -20 -8 -25 -38 -30 -20 -4 -46
-2 -57 5 -12 6 -26 8 -31 5 -5 -3 -17 -2 -26 3 -13 7 -10 14 21 40 42 38 51
39 60 11z m289 -14 c45 -40 39 -46 -45 -46 -92 -1 -96 1 -96 30 0 24 4 27 41
29 22 0 42 6 44 12 6 16 14 12 56 -25z"/>
<path d="M731 287 c-27 -29 -27 -41 2 -54 12 -6 48 -32 80 -58 l58 -47 30 28
c16 15 29 31 29 35 0 6 -108 78 -166 112 -6 4 -21 -4 -33 -16z"/>
</g>
</svg>
