<?xml version="1.0" standalone="no"?>
<!DOCTYPE svg PUBLIC "-//W3C//DTD SVG 20010904//EN"
 "http://www.w3.org/TR/2001/REC-SVG-20010904/DTD/svg10.dtd">
<svg version="1.0" xmlns="http://www.w3.org/2000/svg"
 width="101.000000pt" height="101.000000pt" viewBox="0 0 101.000000 101.000000"
 preserveAspectRatio="xMidYMid meet">
<metadata>
Created by potrace 1.16, written by Peter Selinger 2001-2019
</metadata>
<g transform="translate(0.000000,101.000000) scale(0.100000,-0.100000)"
fill="#000000" stroke="none">
<path d="M219 1003 c-11 -3 -14 -12 -11 -33 2 -17 1 -54 -2 -84 l-7 -54 -72 2
-72 1 -3 -47 c-2 -29 1 -48 7 -48 6 0 11 -11 11 -25 0 -14 -4 -25 -10 -25 -6
0 -10 -30 -10 -70 0 -40 4 -70 10 -70 14 0 13 -47 -1 -52 -7 -2 -8 -17 -4 -40
7 -38 25 -49 68 -41 20 4 24 10 21 37 -2 30 0 33 26 33 21 0 28 -5 29 -21 0
-12 3 -47 5 -80 3 -32 1 -68 -3 -79 -8 -20 -16 -23 -100 -31 -58 -6 -65 -15
-51 -65 12 -44 15 -46 55 -31 14 6 76 23 136 39 96 26 109 28 105 13 -10 -32
8 -45 54 -37 l42 7 -6 42 c-7 56 -35 146 -45 146 -5 0 -23 -3 -41 -6 -30 -6
-31 -9 -26 -39 6 -28 3 -33 -16 -38 -12 -4 -23 -5 -25 -4 -3 4 -5 135 -3 163
2 16 10 20 37 21 31 1 34 -1 29 -22 -7 -26 12 -35 62 -27 27 4 30 7 22 22 -13
24 -13 67 0 75 12 7 11 113 -1 121 -12 7 -11 51 1 59 6 3 10 24 10 46 0 21 2
39 4 39 20 0 36 -16 36 -36 0 -13 5 -24 11 -24 9 0 10 -36 5 -134 -7 -132 -7
-133 15 -139 12 -3 31 -1 41 4 11 6 39 7 66 3 40 -6 43 -8 23 -16 -13 -4 -21
-14 -18 -21 3 -6 8 -19 12 -28 5 -13 -3 -18 -39 -23 -25 -4 -51 -4 -57 0 -7 4
-29 8 -49 10 -42 4 -52 -11 -43 -59 4 -23 9 -25 41 -20 40 5 173 6 344 1 105
-3 107 -3 111 20 3 13 2 33 0 43 -5 18 -11 19 -52 12 -25 -4 -62 -7 -81 -6
-19 2 -45 3 -57 4 -16 1 -25 11 -34 37 -10 31 -9 37 7 49 23 17 34 16 70 -1
44 -22 81 -11 88 26 10 49 7 148 -4 148 -6 0 -10 32 -10 75 0 73 1 75 23 70
38 -9 49 7 50 80 l2 68 -118 4 c-68 2 -124 0 -131 -6 -15 -12 -173 -13 -181
-1 -9 15 -73 9 -80 -7 -3 -8 -2 -32 1 -53 7 -44 15 -40 -91 -43 l-60 -2 2 54
c1 30 5 66 8 79 9 36 -22 50 -76 35z m625 -169 l-1 -38 -154 3 c-85 1 -155 4
-157 6 -2 1 -5 16 -7 31 l-3 29 161 3 162 3 -1 -37z m-646 -175 l2 -96 -30 0
-30 0 3 97 c2 96 2 97 27 96 25 -1 25 -2 28 -97z m147 2 l0 -99 -32 1 -33 1 3
92 2 93 30 4 c17 2 30 5 30 5 0 1 0 -43 0 -97z m450 34 c0 -33 -2 -35 -43 -41
-26 -4 -54 -1 -72 6 -17 7 -47 10 -68 7 -37 -4 -38 -4 -34 24 4 30 8 31 167
37 l50 2 0 -35z m-14 -95 c11 0 16 -9 16 -30 0 -25 -5 -30 -31 -35 -17 -3 -58
-3 -91 0 -33 3 -69 6 -81 6 -15 1 -21 8 -21 28 0 25 2 26 53 24 30 -1 57 3 60
9 4 6 22 8 43 4 20 -3 43 -6 52 -6z m-86 -130 c-3 -5 -8 -10 -11 -10 -2 0 -4
5 -4 10 0 6 5 10 11 10 5 0 7 -4 4 -10z"/>
<path d="M538 256 c-21 -18 -63 -46 -93 -63 l-55 -29 33 -32 32 -32 60 41 c33
22 82 51 108 65 53 28 52 40 -4 70 -37 19 -38 18 -81 -20z"/>
<path d="M732 267 c-29 -30 -28 -33 11 -53 17 -9 58 -36 89 -61 l58 -44 35 28
c19 15 35 31 35 35 0 6 -66 51 -141 96 -46 28 -60 28 -87 -1z"/>
</g>
</svg>
