<?xml version="1.0" standalone="no"?>
<!DOCTYPE svg PUBLIC "-//W3C//DTD SVG 20010904//EN"
 "http://www.w3.org/TR/2001/REC-SVG-20010904/DTD/svg10.dtd">
<svg version="1.0" xmlns="http://www.w3.org/2000/svg"
 width="101.000000pt" height="101.000000pt" viewBox="0 0 101.000000 101.000000"
 preserveAspectRatio="xMidYMid meet">
<metadata>
Created by potrace 1.16, written by Peter Selinger 2001-2019
</metadata>
<g transform="translate(0.000000,101.000000) scale(0.100000,-0.100000)"
fill="#000000" stroke="none">
<path d="M183 922 l2 -88 -50 7 c-27 3 -54 5 -60 3 -6 -3 -9 -36 -7 -80 3 -53
0 -79 -8 -84 -9 -6 -11 -39 -5 -133 8 -136 10 -141 69 -130 22 5 25 9 21 33
-4 25 -2 28 20 26 16 0 23 -6 20 -14 -3 -7 0 -22 6 -33 6 -12 8 -37 4 -59 -6
-34 -10 -39 -33 -39 -15 0 -45 -2 -67 -4 -22 -3 -46 -5 -53 -6 -8 -1 -11 -15
-8 -46 2 -25 5 -48 8 -50 2 -2 30 3 62 11 32 8 73 18 90 20 17 3 42 7 56 10
14 3 34 7 45 9 11 1 27 5 35 6 9 3 16 -5 18 -19 3 -17 8 -21 23 -17 28 9 24
-1 -26 -54 l-45 -48 50 -23 c49 -23 50 -23 65 -4 42 53 92 177 101 254 5 38
14 151 15 188 1 16 6 22 15 18 8 -3 25 -1 38 6 14 6 36 8 49 4 20 -5 24 -11
23 -38 -2 -29 -5 -33 -26 -30 -36 4 -71 5 -74 1 -2 -2 -6 -13 -10 -24 -12 -41
24 -59 85 -42 25 6 27 5 25 -26 -2 -34 -9 -36 -98 -24 -30 4 -44 -23 -28 -53
11 -20 7 -206 -4 -231 -9 -20 16 -28 62 -21 30 4 31 6 27 39 -3 28 -1 34 11
29 9 -3 24 -1 34 4 26 14 133 1 126 -15 -8 -23 12 -39 50 -38 43 1 56 17 43
51 -11 30 -14 113 -5 162 8 42 9 71 3 77 -3 2 -17 -2 -31 -9 -21 -9 -35 -9
-57 -1 -17 7 -36 10 -43 7 -8 -3 -13 5 -13 24 0 26 4 28 39 29 22 1 50 -2 64
-7 37 -14 50 -4 51 43 4 88 3 86 34 82 22 -3 29 1 31 13 5 53 -12 76 -45 66
-17 -5 -18 -1 -12 39 12 79 6 85 -83 83 -73 -1 -77 0 -78 22 -2 18 3 22 27 22
16 0 29 5 29 10 0 13 113 13 127 -1 7 -7 12 -3 17 16 14 55 4 62 -99 70 -52 4
-98 4 -103 1 -5 -3 -9 0 -10 7 -4 62 -18 78 -63 74 -51 -5 -54 -9 -35 -46 9
-16 16 -34 16 -40 0 -10 -104 -7 -131 3 -8 4 -28 2 -44 -4 l-28 -11 8 -72 c4
-40 7 -83 7 -97 0 -14 -1 -36 -1 -50 -1 -14 1 -63 4 -110 4 -51 1 -103 -6
-130 -6 -25 -13 -58 -15 -75 -8 -61 -16 -60 -39 4 -24 65 -24 81 -2 81 9 0 12
52 14 194 1 166 -1 195 -14 200 -8 3 -19 4 -23 1 -5 -3 -31 -7 -57 -8 l-48 -3
2 35 c1 20 7 54 12 75 12 48 7 58 -25 50 -14 -4 -24 -2 -24 5 0 6 -11 11 -24
11 -24 0 -25 -1 -23 -88z m462 -122 c0 -24 -2 -25 -52 -22 -44 3 -53 7 -53 22
0 19 18 25 75 25 25 0 30 -4 30 -25z m-456 -62 c1 -13 3 -48 6 -78 6 -80 -1
-105 -30 -106 -28 -2 -36 23 -29 101 2 28 4 60 5 72 1 14 9 23 23 26 11 2 22
5 22 6 1 0 2 -9 3 -21z m140 -3 c1 -11 3 -45 6 -75 7 -85 0 -107 -35 -107 -35
0 -42 22 -35 107 3 30 5 64 6 75 1 15 9 20 29 20 20 0 28 -5 29 -20z m265 -30
l53 4 -1 -37 c-1 -36 -2 -37 -36 -34 -19 1 -45 3 -57 3 -21 1 -23 6 -22 53 1
28 4 41 6 28 4 -21 8 -22 57 -17z m213 -30 c1 -33 0 -34 -37 -32 -36 1 -38 3
-37 32 1 28 4 31 37 32 34 2 36 0 37 -32z m10 -125 c0 -28 -2 -29 -42 -28 -38
2 -42 5 -42 28 0 23 4 26 42 28 40 1 42 0 42 -28z m-487 -85 c0 -8 8 -15 18
-18 12 -3 8 -8 -16 -17 -25 -9 -31 -17 -26 -29 17 -42 16 -48 -11 -55 -35 -9
-39 -4 -38 47 3 85 3 83 39 84 22 1 34 -4 34 -12z m440 -135 c23 0 26 -4 28
-44 l1 -43 -60 -7 c-34 -3 -69 -2 -79 4 -10 5 -26 7 -34 4 -13 -5 -15 2 -14
40 2 36 6 45 18 41 8 -2 22 0 30 6 8 5 31 7 50 4 19 -2 46 -5 60 -5z"/>
</g>
</svg>
