<?xml version="1.0" standalone="no"?>
<!DOCTYPE svg PUBLIC "-//W3C//DTD SVG 20010904//EN"
 "http://www.w3.org/TR/2001/REC-SVG-20010904/DTD/svg10.dtd">
<svg version="1.0" xmlns="http://www.w3.org/2000/svg"
 width="101.000000pt" height="102.000000pt" viewBox="0 0 101.000000 102.000000"
 preserveAspectRatio="xMidYMid meet">
<metadata>
Created by potrace 1.16, written by Peter Selinger 2001-2019
</metadata>
<g transform="translate(0.000000,102.000000) scale(0.100000,-0.100000)"
fill="#000000" stroke="none">
<path d="M197 1000 c3 -11 2 -53 -2 -94 l-7 -74 -41 3 c-23 2 -47 4 -52 5 -36
8 -36 4 -34 -214 3 -235 1 -230 63 -219 25 5 31 17 28 55 -1 11 5 16 18 15 12
-1 18 -7 16 -14 -3 -7 -1 -23 5 -36 6 -13 7 -43 2 -77 -8 -54 -9 -55 -43 -56
-61 -1 -112 -15 -106 -30 3 -7 8 -29 12 -49 5 -28 10 -35 23 -29 24 10 119 35
155 40 45 8 68 12 93 20 18 5 23 1 29 -20 6 -27 11 -27 60 -9 12 4 13 -4 16
-74 1 -34 18 -44 61 -36 20 4 26 12 30 41 2 21 0 47 -4 59 -5 13 -9 53 -9 90
-2 109 -2 109 36 110 19 1 34 -2 34 -7 0 -16 -30 -79 -45 -94 -13 -13 -14 -22
-5 -57 10 -38 13 -40 38 -34 32 9 65 15 109 20 18 2 37 6 42 9 6 4 15 -2 21
-13 10 -20 12 -20 44 -4 l34 16 -36 73 c-37 76 -52 86 -86 61 -18 -13 -18 -15
-1 -40 14 -21 14 -27 4 -28 -8 -1 -28 -2 -46 -4 -30 -2 -31 -1 -23 21 23 58
42 85 56 80 9 -3 24 -1 35 4 11 6 40 8 68 4 54 -7 52 -2 52 -114 -1 -88 -5
-98 -46 -97 -19 1 -37 -2 -40 -5 -11 -10 19 -97 34 -101 16 -3 108 26 120 38
3 4 7 68 7 143 1 76 4 153 7 173 l5 35 -96 1 c-140 2 -140 2 -134 25 3 12 10
17 19 14 8 -3 24 -1 35 5 16 9 35 8 76 -1 45 -10 56 -10 63 1 5 8 8 72 6 144
l-2 130 -45 -1 -45 -1 -5 -73 -5 -72 -30 23 c-16 12 -32 25 -35 27 -3 2 11 17
30 33 l35 29 -30 25 c-17 13 -33 24 -37 25 -4 0 -16 -13 -28 -30 -26 -36 -32
-37 -74 -5 -39 29 -44 30 -67 9 -17 -15 -19 -15 -34 0 -18 17 -28 19 -62 10
-20 -6 -22 -12 -21 -78 1 -39 6 -78 11 -88 8 -11 7 -28 -1 -56 -18 -58 -16
-61 26 -55 43 6 132 6 138 0 3 -2 2 -11 -1 -19 -8 -19 -97 -33 -123 -19 -44
23 -82 -16 -61 -63 5 -12 6 -46 2 -81 l-8 -60 -19 68 c-10 37 -22 67 -26 67
-4 0 -22 -3 -40 -6 -34 -7 -34 -11 -15 -80 6 -18 2 -21 -23 -21 -28 0 -30 3
-36 49 -4 27 -2 56 4 67 5 11 7 26 4 34 -4 11 1 15 20 13 17 0 26 -7 26 -17 0
-18 30 -30 58 -22 16 4 18 16 19 86 1 45 4 123 7 172 2 50 2 102 0 117 -5 27
-28 43 -46 32 -6 -4 -27 -7 -48 -8 l-37 -1 3 73 c2 40 6 77 10 83 10 16 -16
29 -58 29 -31 0 -35 -3 -31 -20z m-12 -345 c1 -99 0 -100 -24 -102 -23 -1 -24
0 -17 65 3 37 6 83 6 102 0 27 4 36 18 36 15 0 17 -12 17 -101z m133 0 c2
-100 2 -100 -22 -101 -23 -2 -25 3 -31 59 -5 42 -4 62 4 65 6 2 11 20 11 41 0
28 4 37 18 37 15 0 17 -13 20 -101z m289 51 c-2 -4 -22 -19 -45 -33 l-42 -25
4 39 c2 21 7 46 11 55 6 16 10 15 41 -5 18 -12 32 -26 31 -31z m102 -80 l34
-35 -34 -5 c-19 -3 -59 -3 -89 -1 -30 3 -64 5 -75 6 -14 1 -20 9 -21 25 l-2
24 28 -20 c36 -26 39 -25 80 10 19 16 37 29 41 30 3 0 20 -15 38 -34z m101
-27 c0 -3 -14 -6 -32 -6 l-31 0 23 19 c18 15 25 16 31 6 5 -7 9 -16 9 -19z"/>
<path d="M633 1008 l-32 -11 19 -46 18 -46 -88 1 c-48 1 -92 4 -98 8 -15 9
-42 -22 -42 -49 0 -28 27 -58 43 -48 9 6 134 11 312 13 67 0 119 -5 132 -13
30 -19 62 28 49 71 -7 22 -32 36 -48 26 -5 -4 -46 -7 -89 -8 l-79 -1 -16 50
c-15 45 -30 66 -44 64 -3 -1 -19 -6 -37 -11z"/>
</g>
</svg>
