<?xml version="1.0" standalone="no"?>
<!DOCTYPE svg PUBLIC "-//W3C//DTD SVG 20010904//EN"
 "http://www.w3.org/TR/2001/REC-SVG-20010904/DTD/svg10.dtd">
<svg version="1.0" xmlns="http://www.w3.org/2000/svg"
 width="101.000000pt" height="102.000000pt" viewBox="0 0 101.000000 102.000000"
 preserveAspectRatio="xMidYMid meet">
<metadata>
Created by potrace 1.16, written by Peter Selinger 2001-2019
</metadata>
<g transform="translate(0.000000,102.000000) scale(0.100000,-0.100000)"
fill="#000000" stroke="none">
<path d="M203 1013 c-6 -2 -8 -15 -5 -28 2 -14 1 -53 -2 -88 l-7 -63 -61 4
c-42 3 -63 1 -68 -8 -12 -20 -11 -118 2 -126 7 -5 8 -49 3 -144 -6 -132 -6
-137 13 -142 11 -3 31 -3 45 -1 21 4 25 10 22 33 -3 24 -1 28 21 26 16 -1 22
-6 19 -14 -3 -7 0 -22 5 -32 6 -11 8 -43 4 -73 -6 -47 -10 -55 -28 -55 -11 -1
-39 -3 -61 -5 -22 -3 -46 -5 -53 -6 -8 -1 -11 -12 -8 -33 6 -49 17 -70 33 -64
31 12 122 37 154 42 63 10 74 12 92 19 14 6 20 2 24 -14 4 -17 10 -20 27 -15
11 4 28 9 36 11 8 3 -2 -11 -22 -29 l-37 -34 43 -21 43 -21 77 80 c42 45 76
82 76 83 0 2 -19 10 -42 20 l-42 16 -32 -38 c-18 -21 -34 -36 -37 -33 -2 3
-11 26 -20 51 -15 46 -15 47 6 48 12 0 49 3 82 6 80 7 128 -2 121 -21 -3 -8
-1 -25 5 -38 8 -16 8 -37 2 -63 -9 -37 -10 -38 -51 -37 -29 1 -41 -2 -38 -10
3 -6 11 -30 17 -53 12 -40 14 -41 50 -38 51 5 98 31 104 58 3 12 5 49 5 82 -1
104 0 113 24 114 79 6 174 5 192 -2 18 -6 22 -3 27 19 8 42 -2 61 -31 62 -15
1 -36 2 -47 2 -11 1 -54 -3 -96 -9 -73 -11 -166 -9 -274 4 -97 12 -115 10
-115 -10 0 -9 -6 -12 -15 -9 -19 8 -20 24 -1 24 16 0 26 101 26 272 0 100 -2
120 -16 125 -9 3 -25 1 -35 -5 -28 -18 -86 -15 -93 4 -9 24 -7 62 4 69 6 4 10
18 9 33 0 15 2 37 6 50 5 15 3 22 -6 24 -31 3 -67 4 -76 1z m-39 -259 c10 -4
16 -18 16 -39 0 -18 5 -35 11 -37 8 -3 10 -21 5 -58 -6 -47 -10 -55 -29 -56
-21 -2 -22 2 -22 97 0 55 1 99 2 99 1 0 8 -3 17 -6z m153 -92 c3 -96 3 -97
-21 -98 -21 -2 -24 3 -30 58 -3 33 -2 68 4 78 5 10 7 25 4 33 -4 11 2 17 18
20 13 2 23 5 23 6 0 0 1 -43 2 -97z m8 -202 c-4 -12 2 -20 17 -25 22 -6 21 -7
-9 -17 -38 -13 -38 -13 -17 -64 9 -22 13 -36 9 -32 -4 4 -17 3 -30 -2 -21 -8
-23 -6 -29 41 -4 28 -2 57 4 68 5 11 8 26 5 34 -4 10 3 14 25 14 24 0 29 -4
25 -17z"/>
<path d="M413 969 c-15 -5 -23 -17 -23 -31 0 -40 16 -52 67 -54 26 -1 60 -3
74 -3 21 -1 28 -7 31 -30 l4 -28 -67 5 c-65 4 -66 4 -73 -22 -3 -15 -2 -34 3
-44 7 -15 7 -54 0 -112 -6 -47 0 -57 34 -52 17 2 75 4 127 3 172 0 224 0 272
0 l46 0 7 48 c3 26 5 75 3 109 l-3 61 -51 7 c-29 3 -60 3 -70 0 -16 -5 -19 0
-19 27 l0 32 84 2 c91 2 105 10 95 53 -7 30 -23 41 -44 30 -8 -4 -45 -6 -81
-3 -44 4 -69 2 -73 -6 -9 -14 -53 -15 -61 -1 -4 6 -53 10 -124 9 -65 -1 -122
0 -127 3 -5 3 -19 2 -31 -3z m283 -114 c0 -26 -3 -30 -25 -30 -22 0 -26 5 -27
30 0 26 3 30 25 30 22 0 26 -5 27 -30z m-129 -146 c2 -33 0 -36 -27 -36 -27 0
-29 3 -27 36 1 32 4 36 27 36 23 0 26 -4 27 -36z m130 1 c2 -34 0 -37 -27 -37
-27 0 -29 3 -27 37 1 32 4 37 27 37 23 0 26 -5 27 -37z m130 0 c2 -34 0 -37
-27 -37 -27 0 -29 3 -27 37 1 32 4 37 27 37 23 0 26 -5 27 -37z"/>
<path d="M479 563 c-20 -5 -29 -31 -22 -65 4 -21 9 -24 36 -20 36 4 189 4 314
0 79 -3 82 -2 86 20 3 13 2 33 0 43 -5 18 -11 19 -67 12 -92 -12 -293 -7 -322
9 -5 2 -16 3 -25 1z"/>
<path d="M786 305 c-10 -8 -24 -16 -30 -18 -6 -2 12 -28 39 -58 28 -30 59 -66
70 -82 l20 -27 38 25 c20 14 37 30 37 35 0 9 -140 140 -150 140 -3 0 -14 -7
-24 -15z"/>
</g>
</svg>
