<?xml version="1.0" standalone="no"?>
<!DOCTYPE svg PUBLIC "-//W3C//DTD SVG 20010904//EN"
 "http://www.w3.org/TR/2001/REC-SVG-20010904/DTD/svg10.dtd">
<svg version="1.0" xmlns="http://www.w3.org/2000/svg"
 width="101.000000pt" height="101.000000pt" viewBox="0 0 101.000000 101.000000"
 preserveAspectRatio="xMidYMid meet">
<metadata>
Created by potrace 1.16, written by Peter Selinger 2001-2019
</metadata>
<g transform="translate(0.000000,101.000000) scale(0.100000,-0.100000)"
fill="#000000" stroke="none">
<path d="M203 928 l2 -83 -51 3 c-67 5 -82 -10 -83 -82 0 -31 4 -58 9 -61 12
-7 12 -101 1 -197 -8 -73 -7 -74 49 -69 29 3 42 19 34 42 -3 13 1 17 21 15 16
0 23 -6 20 -14 -3 -7 0 -22 5 -32 12 -22 2 -132 -11 -124 -5 3 -24 -2 -43 -11
-25 -12 -40 -14 -54 -6 -10 5 -29 7 -41 4 -18 -5 -21 -11 -16 -31 3 -13 9 -37
12 -53 3 -16 6 -29 7 -29 0 0 25 9 53 20 29 11 68 22 87 24 20 2 40 7 45 10 5
4 27 8 48 10 21 2 46 7 56 11 13 6 17 2 17 -15 0 -16 4 -20 16 -16 9 3 27 9
40 12 14 4 24 14 24 24 0 24 -37 129 -55 157 -15 22 -14 23 6 23 21 0 21 1 14
155 -5 111 -4 155 4 155 14 0 15 57 1 65 -5 3 -38 7 -72 8 l-63 2 2 35 c1 19
5 54 8 78 6 42 6 43 -19 36 -16 -4 -26 -2 -26 5 0 6 -11 11 -24 11 -24 0 -24
-2 -23 -82z m4 -268 c3 -92 2 -95 -20 -96 -21 -2 -22 1 -22 96 0 91 1 97 20
96 18 -1 20 -9 22 -96z m123 56 c0 -18 3 -60 6 -93 l7 -60 -30 0 c-30 0 -31 2
-37 59 -3 33 -1 68 4 78 5 10 7 26 4 34 -5 12 0 16 20 16 23 0 26 -4 26 -34z
m3 -236 c-3 -11 3 -20 19 -25 l23 -7 -25 -7 c-19 -6 -24 -13 -21 -32 8 -56 7
-61 -20 -64 -25 -3 -28 0 -34 40 -3 25 -2 53 4 64 6 11 9 26 6 34 -4 10 2 14
23 14 23 0 28 -4 25 -17z"/>
<path d="M458 959 c-13 -7 -18 -23 -18 -54 0 -25 5 -45 10 -45 6 0 10 -16 10
-35 0 -19 -4 -35 -10 -35 -11 0 -14 -111 -4 -148 6 -22 10 -22 76 -17 l70 6
-34 -29 c-18 -16 -47 -37 -65 -45 -30 -16 -31 -18 -20 -52 l11 -36 70 6 c67 5
70 4 51 -11 -29 -23 -117 -64 -139 -64 -16 0 -17 -5 -11 -37 9 -49 13 -55 35
-48 10 3 21 1 25 -4 6 -10 -98 -93 -142 -114 -29 -13 -28 -17 9 -46 21 -17 34
-21 43 -15 8 5 50 34 95 64 l82 55 -38 32 c-20 18 -33 33 -28 34 95 10 102 10
102 -13 1 -13 4 -37 7 -54 8 -36 -13 -58 -57 -60 -39 -2 -41 -6 -23 -40 8 -16
15 -35 15 -41 0 -28 103 -3 125 31 10 14 15 45 15 82 -1 104 0 112 24 112 11
0 34 4 50 8 25 6 33 3 52 -21 l23 -29 40 19 c23 10 41 21 41 24 0 4 -28 38
-63 76 -54 59 -66 67 -87 62 -51 -14 -57 -24 -31 -50 l23 -25 -40 -7 c-24 -4
-49 -2 -61 4 -11 6 -27 8 -35 5 -40 -15 -7 12 92 77 59 39 108 74 110 78 1 5
-13 20 -33 35 l-36 28 -55 -47 c-49 -43 -58 -46 -80 -37 -13 6 -32 9 -41 6
-10 -4 4 13 32 37 27 24 60 45 75 47 54 6 87 6 135 -1 l50 -8 2 169 2 169 -52
7 c-76 9 -155 7 -162 -3 -7 -13 -173 -13 -180 -1 -8 13 -35 12 -57 -1z m174
-106 c2 -19 2 -36 -1 -38 -2 -3 -25 -5 -51 -5 l-46 0 1 38 0 37 47 1 c45 0 46
0 50 -33z m184 2 c0 -30 0 -30 -48 -27 -31 3 -48 9 -48 17 0 7 -2 19 -5 27 -4
10 8 13 47 13 52 0 53 -1 54 -30z m-184 -137 c6 -35 -12 -46 -48 -30 -13 6
-29 9 -36 7 -9 -4 -13 5 -13 27 l0 33 46 -3 c44 -4 47 -6 51 -34z m182 2 c-1
-32 -4 -35 -30 -32 -16 1 -38 3 -49 4 -15 0 -20 8 -21 32 0 31 0 31 50 31 l51
0 -1 -35z"/>
<path d="M760 280 c-22 -17 -23 -21 -10 -33 8 -7 41 -37 72 -66 l57 -53 35 27
c20 15 33 31 30 36 -10 16 -136 109 -148 109 -6 0 -22 -9 -36 -20z"/>
</g>
</svg>
