<?xml version="1.0" standalone="no"?>
<!DOCTYPE svg PUBLIC "-//W3C//DTD SVG 20010904//EN"
 "http://www.w3.org/TR/2001/REC-SVG-20010904/DTD/svg10.dtd">
<svg version="1.0" xmlns="http://www.w3.org/2000/svg"
 width="101.000000pt" height="101.000000pt" viewBox="0 0 101.000000 101.000000"
 preserveAspectRatio="xMidYMid meet">
<metadata>
Created by potrace 1.16, written by Peter Selinger 2001-2019
</metadata>
<g transform="translate(0.000000,101.000000) scale(0.100000,-0.100000)"
fill="#000000" stroke="none">
<path d="M514 947 l5 -64 -47 7 c-55 9 -69 5 -77 -21 -13 -41 1 -54 62 -54 58
0 58 0 58 -30 0 -29 -1 -30 -42 -27 -34 3 -43 0 -53 -18 -6 -12 -9 -32 -6 -44
5 -19 11 -22 38 -19 137 17 170 14 237 -19 37 -18 69 -34 72 -35 3 -2 37 56
74 129 38 73 77 139 87 146 10 7 18 16 18 20 0 9 -46 37 -83 51 -25 10 -26 8
-42 -47 -20 -67 -77 -185 -110 -226 l-23 -29 1 37 c1 44 -15 59 -59 52 -28 -4
-30 -2 -26 20 4 20 10 24 42 24 41 0 70 20 70 48 0 34 -15 43 -67 39 -55 -4
-54 -6 -37 79 5 29 3 32 -26 38 -71 14 -72 13 -66 -57z"/>
<path d="M198 993 c-15 -4 -17 -15 -14 -81 l4 -77 -39 3 c-76 8 -85 0 -87 -69
-1 -35 3 -69 10 -76 11 -13 5 -218 -8 -269 -6 -24 17 -35 61 -27 24 5 26 8 21
48 -4 40 -3 43 20 41 16 -1 22 -6 19 -14 -3 -7 0 -22 5 -32 6 -10 7 -45 4 -79
-6 -57 -8 -60 -33 -60 -14 0 -42 -2 -61 -4 -19 -3 -40 -5 -47 -6 -22 -2 -1
-91 21 -91 6 0 45 9 86 20 41 10 76 17 78 15 3 -2 12 -1 21 4 9 5 28 11 44 15
20 5 27 3 27 -9 0 -8 7 -15 16 -15 8 0 22 -17 31 -37 8 -21 16 -39 17 -41 2
-1 29 7 61 18 33 11 75 23 95 26 19 3 49 7 65 10 17 3 41 6 55 8 14 2 28 4 31
5 7 1 32 81 27 87 -2 2 -21 -1 -42 -7 -21 -6 -40 -8 -43 -5 -3 3 7 26 21 51
25 42 26 46 9 51 -10 3 -27 9 -38 13 -26 9 -55 3 -56 -12 0 -7 -2 -19 -4 -27
-2 -8 -6 -33 -10 -55 -4 -22 -8 -40 -8 -41 -1 -1 -15 -4 -32 -8 -26 -5 -27 -5
-10 5 11 7 21 13 23 14 6 5 -28 99 -39 106 -19 12 -71 -11 -64 -28 3 -9 10
-35 16 -59 9 -33 15 -41 28 -37 9 4 13 3 10 -1 -4 -4 -19 -9 -35 -12 -15 -3
-31 -7 -36 -10 -4 -3 -8 0 -8 7 0 7 -10 48 -21 92 l-22 79 -41 -6 c-22 -4 -42
-8 -43 -10 -2 -2 3 -16 12 -32 21 -40 19 -51 -9 -56 -22 -4 -24 -1 -30 49 -4
30 -2 62 4 73 5 10 7 25 4 34 -4 11 0 14 15 13 12 -1 21 -7 21 -13 0 -15 33
-24 61 -17 21 6 21 9 14 154 -5 107 -4 149 4 149 6 0 11 14 11 30 0 36 -14 43
-81 44 l-47 1 4 74 c5 88 -5 101 -68 84z m-11 -333 c3 -92 2 -95 -20 -96 -21
-2 -22 1 -22 95 0 89 1 96 20 96 18 0 20 -7 22 -95z m108 0 c0 -87 -2 -96 -19
-98 -17 -1 -18 4 -12 60 3 34 6 78 6 98 0 23 5 37 13 37 9 0 12 -26 12 -97z"/>
<path d="M821 626 c-39 -81 -122 -188 -136 -175 -8 8 -9 91 -2 139 l5 35 -107
2 c-58 1 -116 2 -129 3 -29 2 -34 -3 -32 -32 1 -13 1 -57 0 -99 -1 -71 1 -77
21 -82 12 -3 29 -2 38 2 9 5 51 9 93 10 66 1 84 -3 132 -29 l56 -29 43 62 c24
34 60 90 80 123 20 34 44 67 52 74 24 20 18 35 -24 58 -21 12 -41 22 -44 22
-3 0 -23 -38 -46 -84z m-216 -101 c0 -38 -1 -40 -30 -37 -16 1 -40 3 -51 3
-18 1 -22 7 -21 35 1 26 5 33 16 29 9 -2 23 0 31 5 8 6 24 9 35 8 16 -3 20
-11 20 -43z"/>
<path d="M851 423 c-45 -119 -124 -210 -222 -255 -26 -13 -48 -26 -49 -29 0
-3 20 -19 44 -36 l43 -31 65 49 c68 50 122 115 178 209 18 30 40 60 48 67 21
18 8 39 -37 63 -22 11 -42 20 -44 20 -2 0 -14 -26 -26 -57z"/>
</g>
</svg>
