<?xml version="1.0" standalone="no"?>
<!DOCTYPE svg PUBLIC "-//W3C//DTD SVG 20010904//EN"
 "http://www.w3.org/TR/2001/REC-SVG-20010904/DTD/svg10.dtd">
<svg version="1.0" xmlns="http://www.w3.org/2000/svg"
 width="101.000000pt" height="102.000000pt" viewBox="0 0 101.000000 102.000000"
 preserveAspectRatio="xMidYMid meet">
<metadata>
Created by potrace 1.16, written by Peter Selinger 2001-2019
</metadata>
<g transform="translate(0.000000,102.000000) scale(0.100000,-0.100000)"
fill="#000000" stroke="none">
<path d="M185 930 l4 -90 -64 6 c-65 7 -73 3 -65 -31 1 -5 2 -49 1 -97 0 -54
3 -89 10 -94 10 -6 7 -95 -7 -165 -6 -29 14 -40 58 -32 21 4 24 10 22 43 -2
34 1 38 21 36 15 -1 23 -8 24 -21 1 -11 3 -42 5 -70 3 -27 2 -62 -1 -77 -4
-24 -9 -28 -36 -27 -31 2 -107 -7 -113 -13 -1 -2 2 -24 8 -49 l11 -47 33 10
c19 5 49 11 67 14 34 6 70 12 102 19 11 3 32 7 47 9 15 2 32 8 39 12 8 5 11 2
7 -8 -12 -29 5 -37 50 -25 45 12 44 9 26 72 -5 18 0 21 40 23 26 1 46 -3 46
-9 0 -44 -84 -136 -141 -154 -27 -9 -24 -16 22 -53 l40 -34 45 37 c51 42 100
121 109 176 5 29 11 37 28 37 12 1 33 2 47 4 21 3 25 -2 28 -27 7 -63 6 -161
-2 -186 -6 -21 -4 -27 12 -31 11 -3 31 -4 44 -1 23 4 24 8 25 101 2 137 3 144
18 138 8 -3 27 0 44 7 24 9 36 9 51 -1 26 -16 27 -16 33 8 11 43 -2 57 -51 58
-95 1 -92 0 -90 47 l2 43 58 -29 c66 -33 68 -34 68 -15 0 7 9 25 20 39 26 33
26 34 -12 42 -40 9 -122 52 -143 75 -15 17 -14 18 12 19 15 1 53 2 84 1 60 0
72 10 62 49 -5 21 -33 28 -88 22 -19 -2 -19 -1 -1 12 15 11 16 17 7 35 -6 11
-22 29 -35 39 -34 27 -21 39 49 47 63 7 78 19 69 51 -9 30 -10 30 -78 30 l-62
0 3 46 c2 41 0 47 -22 57 -17 8 -33 8 -51 2 -24 -9 -26 -14 -22 -58 l3 -47
-60 0 -61 0 3 30 c2 17 4 39 6 49 2 17 -4 20 -45 20 -48 1 -66 -13 -51 -37 3
-6 7 -22 8 -36 1 -25 -1 -26 -54 -26 -53 0 -56 -1 -56 -25 0 -35 -22 -49 -80
-50 l-51 0 4 53 c4 72 7 90 16 105 13 22 -4 32 -54 32 l-50 0 5 -90z m308
-122 c-5 -35 11 -51 53 -53 22 -1 40 -3 41 -4 1 0 -3 -14 -8 -30 -9 -24 -17
-30 -54 -36 -24 -3 -52 -2 -63 4 -10 5 -26 9 -36 8 -16 -2 -19 6 -20 60 l-1
62 45 4 c25 2 46 4 46 5 1 1 -1 -8 -3 -20z m212 1 c-3 -9 1 -24 10 -32 8 -9
15 -19 15 -23 0 -4 12 -20 27 -36 24 -25 25 -28 8 -34 -10 -4 -31 -2 -47 4
-16 6 -36 8 -44 5 -18 -7 -17 5 1 37 20 36 20 36 -32 50 -42 10 -62 23 -63 40
0 3 29 5 65 5 55 0 64 -2 60 -16z m-520 -67 c-3 -7 0 -22 5 -33 6 -11 8 -40 4
-66 -5 -41 -9 -48 -29 -49 -20 -2 -24 4 -29 47 -4 28 -2 57 4 68 5 11 7 26 4
34 -4 11 2 15 20 13 17 0 24 -6 21 -14z m130 1 c-3 -8 0 -23 5 -34 6 -11 8
-40 4 -67 -6 -45 -8 -49 -34 -49 -26 0 -28 4 -34 49 -4 27 -2 56 4 67 5 11 8
26 5 34 -4 10 3 14 25 14 22 0 29 -4 25 -14z m209 -122 c3 -4 -22 -35 -57 -67
l-62 -59 -3 36 c-4 50 13 92 36 85 9 -3 24 -1 32 4 19 12 47 13 54 1z m185
-49 c32 -43 36 -53 24 -51 -39 6 -43 0 -37 -61 l5 -60 -45 2 -45 2 3 36 c2 19
7 42 10 51 5 12 0 19 -21 24 -15 5 -34 7 -42 6 -14 -3 -14 -3 37 66 35 45 72
40 111 -15z m-389 -74 c0 -4 6 -8 13 -8 6 -1 29 -18 51 -40 28 -28 37 -43 32
-57 -6 -15 -9 -13 -21 14 -12 28 -17 31 -42 27 -41 -8 -46 -17 -29 -58 8 -20
14 -37 13 -37 -1 -1 -18 -3 -38 -4 l-37 -2 -6 54 c-4 30 -2 62 4 73 5 10 8 25
5 33 -4 10 3 14 25 14 16 0 30 -4 30 -9z m208 -20 c1 -13 2 -34 4 -48 3 -22
-1 -25 -32 -26 -71 -1 -73 5 -22 52 26 24 48 43 48 44 1 0 2 -10 2 -22z"/>
</g>
</svg>
