<?xml version="1.0" standalone="no"?>
<!DOCTYPE svg PUBLIC "-//W3C//DTD SVG 20010904//EN"
 "http://www.w3.org/TR/2001/REC-SVG-20010904/DTD/svg10.dtd">
<svg version="1.0" xmlns="http://www.w3.org/2000/svg"
 width="101.000000pt" height="101.000000pt" viewBox="0 0 101.000000 101.000000"
 preserveAspectRatio="xMidYMid meet">
<metadata>
Created by potrace 1.16, written by Peter Selinger 2001-2019
</metadata>
<g transform="translate(0.000000,101.000000) scale(0.100000,-0.100000)"
fill="#000000" stroke="none">
<path d="M208 1003 c-22 -6 -29 -45 -20 -118 l8 -60 -58 3 c-90 6 -88 11 -88
-217 0 -108 4 -202 9 -210 9 -15 65 -20 78 -8 3 4 6 20 6 35 0 25 4 29 29 29
21 0 27 -4 23 -14 -3 -8 0 -23 5 -33 6 -11 8 -43 4 -73 -5 -46 -10 -55 -35
-66 -20 -9 -34 -9 -48 -2 -27 15 -78 -4 -75 -27 7 -59 17 -83 33 -76 24 10
119 35 155 40 17 3 42 8 56 10 55 11 65 9 68 -13 4 -27 3 -27 47 -9 19 8 35
22 35 30 0 26 -50 176 -59 176 -5 0 -23 -3 -40 -6 -27 -6 -32 -11 -27 -28 2
-12 8 -33 11 -47 6 -23 4 -26 -23 -26 -28 0 -30 3 -36 49 -4 27 -2 56 4 67 5
11 7 26 4 34 -4 11 1 15 20 13 17 0 26 -7 26 -17 0 -19 27 -29 63 -22 21 4 24
10 22 41 l-3 37 14 -33 c8 -18 18 -30 23 -28 12 8 13 -13 13 -186 -1 -160 0
-162 62 -151 25 5 30 13 27 39 -1 7 9 12 21 13 13 0 57 3 98 6 41 3 90 3 108
0 30 -6 33 -9 27 -34 -7 -33 10 -41 63 -33 27 4 31 7 26 27 -5 22 -9 283 -4
332 2 18 6 21 19 14 13 -7 24 -1 48 28 l31 37 -62 32 c-34 18 -77 48 -95 66
-38 39 -40 37 66 37 42 1 52 4 56 20 14 53 -27 82 -84 59 -16 -7 -32 -10 -35
-7 -8 8 14 47 43 79 29 30 23 51 -13 42 -13 -3 -24 -2 -24 4 0 5 -9 12 -20 15
-14 3 -21 -1 -26 -17 -26 -84 -45 -122 -63 -123 -17 -1 -19 6 -17 78 1 62 4
79 16 80 8 0 33 2 55 4 22 2 66 4 98 5 31 1 60 6 63 11 11 19 -49 101 -70 93
-6 -2 -24 -6 -41 -8 -16 -3 -41 -7 -55 -11 -14 -4 -32 -7 -40 -7 -8 0 -22 -2
-30 -5 -31 -11 -78 -15 -170 -13 -52 1 -110 -2 -129 -5 l-33 -6 19 -22 c11
-12 27 -35 37 -50 12 -20 22 -27 34 -22 9 4 33 9 52 10 19 2 51 5 70 7 l35 3
0 -74 c0 -79 -8 -91 -45 -71 -20 11 -20 13 -5 24 14 10 13 16 -15 54 -33 46
-34 47 -78 31 l-32 -11 24 -31 c37 -51 37 -52 -10 -52 -42 -1 -44 1 -45 30 -1
16 -1 33 0 37 2 13 -48 21 -94 16 l-44 -5 4 66 c2 36 7 74 11 85 11 29 -25 43
-78 29z m-22 -277 c1 0 5 -44 9 -97 l7 -96 -31 0 -31 0 2 103 c3 98 4 103 23
98 11 -4 21 -7 21 -8z m108 8 c10 -4 16 -18 16 -39 0 -18 5 -35 11 -37 8 -3 9
-23 5 -63 -7 -53 -10 -60 -30 -61 -21 -2 -22 1 -21 102 0 57 1 104 2 104 1 0
8 -3 17 -6z m233 -72 c9 -6 -7 -29 -54 -78 -74 -77 -80 -75 -68 23 5 44 10 53
23 49 9 -3 24 -1 32 4 18 12 50 13 67 2z m291 -157 c-2 -2 -22 -7 -43 -10 -58
-9 -77 9 -77 71 1 99 -1 99 64 17 33 -41 58 -76 56 -78z m-199 103 c1 -13 2
-40 3 -60 1 -25 6 -38 15 -38 8 0 11 -5 7 -11 -4 -6 -19 -8 -38 -5 -17 4 -42
8 -56 10 -14 2 -26 4 -28 5 -3 1 89 121 93 121 2 0 4 -10 4 -22z m6 -213 c0
-37 -2 -40 -25 -37 -14 2 -35 3 -46 4 -18 0 -22 6 -21 34 1 26 5 33 16 29 9
-2 23 0 31 5 29 19 45 7 45 -35z m170 0 c0 -37 -2 -40 -25 -37 -14 2 -35 3
-46 4 -18 0 -22 6 -21 34 1 26 5 33 16 29 9 -2 23 0 31 5 29 19 45 7 45 -35z
m-170 -140 c0 -37 -2 -40 -25 -37 -14 2 -35 3 -46 4 -18 0 -22 6 -21 34 1 26
5 33 16 29 9 -2 23 0 31 5 29 19 45 7 45 -35z m170 0 c0 -37 -2 -40 -25 -37
-14 2 -35 3 -46 4 -18 0 -22 6 -21 34 1 26 5 33 16 29 9 -2 23 0 31 5 29 19
45 7 45 -35z"/>
</g>
</svg>
