<?xml version="1.0" standalone="no"?>
<!DOCTYPE svg PUBLIC "-//W3C//DTD SVG 20010904//EN"
 "http://www.w3.org/TR/2001/REC-SVG-20010904/DTD/svg10.dtd">
<svg version="1.0" xmlns="http://www.w3.org/2000/svg"
 width="101.000000pt" height="101.000000pt" viewBox="0 0 101.000000 101.000000"
 preserveAspectRatio="xMidYMid meet">
<metadata>
Created by potrace 1.16, written by Peter Selinger 2001-2019
</metadata>
<g transform="translate(0.000000,101.000000) scale(0.100000,-0.100000)"
fill="#000000" stroke="none">
<path d="M179 998 c-1 -7 0 -17 1 -23 1 -5 2 -37 3 -70 l2 -60 -37 1 c-20 1
-41 5 -47 8 -18 12 -53 -14 -46 -32 4 -9 7 -43 7 -75 0 -31 4 -59 8 -62 14 -9
11 -151 -4 -187 -21 -50 -6 -65 60 -60 18 2 21 8 19 36 -3 30 0 34 20 32 15
-1 23 -8 24 -21 1 -11 3 -42 5 -70 6 -65 -2 -105 -20 -105 -8 0 -23 -5 -33
-12 -15 -9 -26 -9 -44 -1 -29 13 -70 6 -63 -11 3 -6 10 -28 17 -49 9 -28 16
-36 28 -32 36 15 195 54 199 50 3 -2 13 0 24 6 16 9 20 7 25 -11 5 -17 11 -20
34 -15 16 4 29 2 29 -3 0 -12 -77 -82 -90 -82 -6 0 -10 -4 -10 -10 0 -5 8 -10
18 -10 9 0 31 -9 49 -20 l32 -19 26 31 c32 38 60 93 70 136 l7 32 36 -30 37
-30 29 30 c17 16 28 31 25 33 -2 3 -29 22 -59 43 -37 26 -56 47 -58 63 -2 18
2 22 14 17 8 -3 24 -1 35 5 11 6 37 8 58 4 35 -6 38 -9 57 -68 11 -34 24 -69
28 -79 6 -12 -3 -22 -36 -41 -24 -14 -62 -31 -85 -38 -24 -7 -43 -15 -43 -18
1 -7 78 -61 88 -61 4 0 34 18 67 40 l60 40 41 -41 c23 -22 59 -46 80 -54 48
-16 65 -5 90 60 l16 43 -33 31 c-37 33 -49 38 -50 19 -1 -23 -7 -50 -12 -55
-9 -8 -46 16 -57 37 -9 17 -5 28 26 66 21 25 46 51 57 59 18 13 18 14 -9 28
-25 13 -27 16 -11 22 9 4 26 5 36 2 22 -5 33 20 24 53 -5 19 -19 25 -56 22
-10 -1 -15 2 -12 8 3 5 -2 21 -12 36 -16 26 -16 26 2 21 34 -11 41 5 42 88 1
44 3 94 5 112 4 28 2 32 -26 36 -17 2 -44 0 -59 -6 -33 -11 -34 -10 -41 30 -6
30 -5 31 46 37 31 4 55 3 61 -3 26 -26 77 1 77 39 0 23 -28 52 -41 44 -6 -3
-41 -7 -78 -7 l-67 -2 0 40 c1 39 0 40 -38 43 -46 4 -59 -10 -51 -53 5 -29 4
-30 -38 -30 l-43 0 2 40 3 40 -44 0 -44 0 2 -43 3 -42 -73 6 c-72 7 -73 6 -82
-20 -6 -14 -8 -32 -5 -39 3 -10 -5 -13 -28 -13 -18 0 -45 -4 -60 -8 l-26 -8 1
84 2 83 -42 3 c-30 2 -43 -1 -44 -10z m357 -165 c2 -39 -17 -54 -53 -44 -18 5
-41 7 -53 4 -18 -5 -20 -12 -16 -52 2 -25 7 -54 11 -64 4 -10 2 -38 -5 -63 -7
-24 -10 -47 -7 -50 10 -10 48 -8 152 11 37 7 57 -5 60 -38 2 -14 6 -30 9 -36
12 -19 -67 -22 -176 -8 -30 4 -37 2 -42 -16 -3 -11 -1 -28 4 -38 12 -21 7
-128 -7 -152 -7 -14 -13 -1 -27 57 -9 41 -23 77 -29 79 -18 6 -68 -13 -62 -24
3 -5 8 -22 10 -38 3 -24 -1 -30 -20 -33 -21 -4 -23 -1 -29 54 -3 33 -1 68 4
78 5 10 7 25 4 33 -4 11 1 15 19 13 17 -1 23 -6 20 -17 -5 -18 26 -30 57 -22
18 5 20 13 19 67 -1 125 3 275 10 319 0 4 34 7 74 5 67 -3 72 -5 73 -25z m160
11 c-9 -24 3 -54 22 -55 9 0 2 -5 -17 -11 -47 -13 -78 -4 -83 26 -6 30 1 42
27 49 42 10 57 8 51 -9z m-507 -89 c1 -11 3 -42 5 -70 7 -76 0 -100 -29 -101
-28 -2 -36 23 -29 101 2 28 4 60 5 71 2 29 46 28 48 -1z m120 0 c1 -11 3 -42
5 -70 7 -76 0 -100 -29 -101 -28 -2 -36 23 -29 101 2 28 4 60 5 71 2 29 46 28
48 -1z m249 -80 c1 -43 1 -43 -33 -42 -34 1 -34 2 -33 42 2 39 4 41 33 42 29
1 31 -1 33 -42z m130 0 c1 -43 1 -43 -33 -42 -34 1 -34 2 -33 42 2 39 4 41 33
42 29 1 31 -1 33 -42z m140 0 c1 -43 1 -43 -33 -42 -34 1 -34 2 -33 42 2 39 4
41 33 42 29 1 31 -1 33 -42z m-35 -117 c-27 -13 -28 -21 -8 -38 25 -20 17 -29
-23 -27 -37 1 -39 2 -38 37 0 36 1 36 46 37 39 1 42 0 23 -9z m27 -146 c0 -10
-49 -82 -56 -82 -6 0 -34 65 -34 78 0 4 20 9 45 10 25 1 45 -2 45 -6z"/>
</g>
</svg>
