<?xml version="1.0" standalone="no"?>
<!DOCTYPE svg PUBLIC "-//W3C//DTD SVG 20010904//EN"
 "http://www.w3.org/TR/2001/REC-SVG-20010904/DTD/svg10.dtd">
<svg version="1.0" xmlns="http://www.w3.org/2000/svg"
 width="101.000000pt" height="101.000000pt" viewBox="0 0 101.000000 101.000000"
 preserveAspectRatio="xMidYMid meet">
<metadata>
Created by potrace 1.16, written by Peter Selinger 2001-2019
</metadata>
<g transform="translate(0.000000,101.000000) scale(0.100000,-0.100000)"
fill="#000000" stroke="none">
<path d="M200 947 c-19 -33 -64 -89 -99 -123 l-63 -64 30 -30 c34 -33 47 -37
59 -16 4 8 52 65 107 126 l99 113 -24 18 c-13 10 -35 22 -49 27 -24 9 -28 5
-60 -51z"/>
<path d="M401 936 l-32 -33 28 -18 c15 -10 51 -38 79 -61 l51 -44 26 28 c15
16 27 33 27 38 0 9 -102 96 -136 117 -6 3 -25 -9 -43 -27z"/>
<path d="M616 908 c-9 -35 -7 -45 9 -61 17 -17 101 -21 111 -5 4 6 40 7 99 3
88 -7 93 -6 99 13 4 11 4 32 0 47 -6 24 -10 26 -38 21 -79 -13 -236 -18 -236
-7 0 21 -38 11 -44 -11z"/>
<path d="M232 760 c-16 -46 -69 -118 -140 -192 l-64 -67 23 -38 c12 -21 24
-40 26 -42 1 -2 20 15 40 38 l38 43 0 -169 c-1 -92 -4 -175 -8 -184 -17 -35 4
-57 55 -58 37 -1 61 25 53 58 -3 14 -5 50 -5 79 1 30 -3 52 -9 52 -6 0 -11 11
-11 25 0 14 5 25 10 25 6 0 10 30 10 70 0 40 -4 70 -10 70 -5 0 -10 11 -10 25
0 14 5 25 10 25 6 0 10 21 10 48 0 49 12 74 58 124 24 26 24 29 9 45 -8 10
-29 26 -45 35 l-30 18 -10 -30z"/>
<path d="M365 710 l-29 -30 24 -17 c14 -10 44 -34 66 -55 23 -21 46 -38 51
-38 16 0 66 58 59 68 -8 14 -126 102 -135 102 -4 0 -20 -14 -36 -30z"/>
<path d="M556 704 c-4 -9 -4 -32 0 -50 5 -28 11 -34 39 -40 19 -3 57 -4 87 -2
l53 3 -3 -100 c-1 -61 2 -108 9 -122 8 -15 9 -45 3 -100 -5 -43 -11 -77 -14
-75 -3 2 -16 -1 -31 -6 -14 -6 -32 -6 -40 -2 -32 18 -38 -3 -19 -60 16 -48 22
-55 47 -58 48 -5 123 35 139 73 15 36 18 172 4 180 -12 8 -11 147 1 161 6 8 9
35 7 61 l-3 48 64 2 c39 1 68 7 73 15 10 16 10 49 0 65 -11 17 -232 31 -232
15 0 -7 -15 -12 -35 -12 -19 0 -35 5 -35 10 0 6 -24 10 -54 10 -41 0 -55 -4
-60 -16z"/>
<path d="M450 498 c-6 -18 -14 -43 -16 -56 -8 -41 -55 -149 -85 -197 -16 -25
-27 -50 -25 -54 6 -9 96 -45 100 -40 7 11 116 308 116 318 0 6 -4 11 -9 11 -5
0 -23 11 -39 25 l-30 25 -12 -32z"/>
</g>
</svg>
