<?xml version="1.0" standalone="no"?>
<!DOCTYPE svg PUBLIC "-//W3C//DTD SVG 20010904//EN"
 "http://www.w3.org/TR/2001/REC-SVG-20010904/DTD/svg10.dtd">
<svg version="1.0" xmlns="http://www.w3.org/2000/svg"
 width="101.000000pt" height="101.000000pt" viewBox="0 0 101.000000 101.000000"
 preserveAspectRatio="xMidYMid meet">
<metadata>
Created by potrace 1.16, written by Peter Selinger 2001-2019
</metadata>
<g transform="translate(0.000000,101.000000) scale(0.100000,-0.100000)"
fill="#000000" stroke="none">
<path d="M214 963 c-15 -27 -59 -80 -97 -120 l-69 -72 42 -21 c23 -12 45 -20
50 -18 9 4 200 224 200 232 0 7 -76 46 -89 46 -5 0 -22 -21 -37 -47z"/>
<path d="M411 930 c-18 -38 -56 -94 -83 -124 -41 -47 -53 -54 -68 -46 -10 6
-21 10 -24 10 -3 0 -20 -28 -38 -62 -18 -35 -67 -98 -110 -142 l-76 -79 26
-36 c14 -20 27 -38 29 -40 1 -2 20 15 40 39 l38 42 -2 -54 c0 -29 2 -57 7 -63
13 -17 11 -157 -4 -215 -20 -78 -14 -87 59 -81 35 3 46 16 36 45 -4 12 -6 124
-5 249 3 246 3 245 61 309 16 16 22 31 17 40 -4 7 3 4 15 -7 l23 -20 34 39 34
40 110 -1 c107 -1 110 0 116 22 13 52 -1 63 -87 71 l-81 7 42 42 c32 32 38 44
28 52 -15 12 -76 33 -92 32 -6 0 -26 -31 -45 -69z"/>
<path d="M678 934 c-19 -6 -32 -47 -23 -74 8 -27 53 -33 175 -25 104 7 109 8
115 32 13 53 4 58 -107 60 -57 1 -112 4 -123 6 -11 3 -27 3 -37 1z"/>
<path d="M644 693 c-5 -18 -9 -21 -15 -11 -13 20 -286 19 -299 -2 -14 -21 -12
-43 4 -66 12 -16 19 -17 43 -8 28 10 28 10 28 -30 l0 -41 -58 0 c-61 0 -77
-10 -77 -50 0 -45 15 -51 96 -41 48 6 46 10 44 -108 0 -51 -6 -75 -20 -93 -18
-24 -18 -24 12 -74 36 -56 22 -60 138 36 134 111 122 93 104 147 l-16 48 -67
-60 -66 -60 -8 47 c-5 29 -4 56 2 70 6 13 8 29 5 37 -4 9 2 14 18 15 72 4 96
4 124 -3 27 -7 33 -5 38 12 11 34 -4 72 -32 79 -14 3 -32 2 -41 -4 -9 -5 -35
-8 -58 -5 -39 4 -43 7 -43 31 0 14 -3 37 -7 50 -6 23 -6 23 65 19 57 -3 73 -1
77 11 5 14 7 14 15 1 7 -11 26 -15 65 -14 l55 2 0 -118 c0 -64 3 -150 6 -191
3 -41 1 -80 -4 -88 -11 -16 -54 -19 -96 -8 -25 7 -28 6 -21 -10 5 -10 15 -38
24 -63 18 -51 25 -53 109 -31 72 18 84 38 83 143 0 46 0 110 0 143 0 33 1 96
2 140 l2 80 39 2 c44 1 57 15 54 58 -3 33 2 32 -100 19 -30 -4 -53 -2 -61 5
-8 6 -46 10 -86 10 -67 -1 -72 -3 -77 -26z"/>
</g>
</svg>
