<?xml version="1.0" standalone="no"?>
<!DOCTYPE svg PUBLIC "-//W3C//DTD SVG 20010904//EN"
 "http://www.w3.org/TR/2001/REC-SVG-20010904/DTD/svg10.dtd">
<svg version="1.0" xmlns="http://www.w3.org/2000/svg"
 width="101.000000pt" height="101.000000pt" viewBox="0 0 101.000000 101.000000"
 preserveAspectRatio="xMidYMid meet">
<metadata>
Created by potrace 1.16, written by Peter Selinger 2001-2019
</metadata>
<g transform="translate(0.000000,101.000000) scale(0.100000,-0.100000)"
fill="#000000" stroke="none">
<path d="M148 952 c-15 -31 -50 -83 -78 -114 l-51 -58 27 -34 c16 -19 31 -33
36 -30 4 3 41 51 83 109 42 57 82 106 88 108 9 3 12 -20 12 -83 l0 -88 -37 22
c-20 11 -38 18 -40 16 -2 -3 -23 -45 -47 -93 -24 -49 -61 -111 -82 -139 l-38
-51 22 -38 c12 -22 25 -39 29 -39 3 0 16 16 28 35 12 19 23 35 25 35 11 0 10
-272 -1 -305 -6 -16 -9 -46 -6 -67 4 -40 18 -48 69 -41 30 5 31 7 25 42 -6 30
-7 166 -1 261 l1 24 19 -24 19 -25 24 27 c23 26 24 26 26 5 1 -12 2 -83 2
-159 0 -125 2 -137 19 -141 11 -3 28 -3 39 0 16 4 19 12 15 48 -4 50 -18 47
173 47 148 1 149 0 171 -74 10 -33 14 -36 45 -34 18 2 51 12 72 22 l39 19 2
75 c1 41 2 104 2 140 0 331 -1 310 20 308 65 -5 87 13 74 61 -4 16 -14 19 -61
18 -32 0 -69 3 -84 8 -40 11 -98 -2 -98 -22 0 -14 -2 -14 -15 3 -15 20 -21
114 -6 114 9 0 22 115 15 134 -3 7 -43 12 -109 13 l-104 1 -6 -31 c-6 -37 1
-217 11 -264 8 -40 -2 -83 -19 -83 -6 0 -18 -4 -26 -9 -12 -8 -12 -12 -2 -24
10 -13 7 -15 -23 -14 -20 1 -32 5 -30 12 3 6 -9 18 -27 26 l-31 15 48 2 c26 1
49 3 51 5 6 7 14 317 8 336 -4 13 -14 18 -34 16 -15 -1 -52 1 -82 5 -30 4 -65
3 -77 -1 -18 -7 -31 -4 -52 11 -15 11 -32 20 -37 19 -4 0 -20 -26 -35 -57z
m498 -49 c0 -14 -9 -18 -37 -18 -47 -1 -46 18 1 26 19 3 35 7 35 8 1 0 1 -7 1
-16z m-246 -9 c0 -6 -13 -9 -30 -6 -43 6 -46 19 -5 18 19 -1 35 -6 35 -12z
m247 -92 c-1 -14 -8 -17 -34 -14 -42 5 -43 20 0 25 17 2 33 5 34 5 1 1 1 -6 0
-16z m-247 -7 c0 -5 -16 -10 -35 -10 -19 0 -35 5 -35 10 0 6 16 10 35 10 19 0
35 -4 35 -10z m-137 -120 c-2 -58 1 -61 55 -56 22 2 22 1 8 -26 -8 -16 -36
-57 -62 -92 -44 -58 -48 -62 -56 -42 -7 19 -5 79 4 186 1 16 43 85 51 85 1 0
1 -25 0 -55z m134 25 c-2 -24 -62 -24 -64 0 -1 12 8 16 32 17 26 1 33 -3 32
-17z m253 5 c0 -10 -12 -13 -40 -12 -52 2 -52 22 0 24 28 1 40 -2 40 -12z
m139 -69 c2 -20 2 -152 2 -286 0 -36 0 -82 1 -102 2 -44 -1 -48 -41 -53 -24
-3 -30 0 -29 13 4 49 0 52 -59 52 -102 -1 -108 0 -109 26 -2 22 1 22 64 19 69
-4 83 3 75 35 -4 13 -16 18 -51 18 -81 1 -87 3 -88 27 -2 22 1 23 40 18 88
-11 112 -1 100 42 -9 28 -9 28 -33 13 -16 -10 -27 -10 -52 -1 -17 7 -36 10
-43 7 -6 -2 -12 4 -13 15 -1 13 5 19 20 20 78 5 94 5 113 -2 25 -9 36 9 27 41
-4 17 -13 20 -56 21 -74 0 -97 2 -97 10 0 4 -9 17 -19 28 -22 23 -29 20 59 26
19 1 54 -2 78 -6 37 -6 42 -5 42 11 0 25 5 29 39 29 22 0 29 -5 30 -21z m-314
-156 c0 -22 -5 -25 -30 -22 -17 1 -39 3 -50 3 -13 1 -21 9 -22 21 -1 14 3 17
15 14 9 -3 24 -1 32 4 27 18 55 7 55 -20z m-1 -95 c0 -27 -3 -30 -30 -27 -16
1 -38 3 -49 3 -14 1 -20 9 -21 26 -2 18 2 22 15 19 9 -3 23 -1 31 4 8 6 24 9
35 8 15 -2 20 -10 19 -33z m0 -100 c0 -27 -3 -30 -30 -27 -16 1 -38 3 -49 3
-14 1 -20 9 -21 26 -2 18 2 22 15 19 9 -3 23 -1 31 4 8 6 24 9 35 8 15 -2 20
-10 19 -33z"/>
<path d="M758 954 c-21 -6 -32 -37 -23 -64 6 -20 35 -28 35 -10 0 14 126 12
150 -2 17 -11 22 -10 30 2 12 19 12 41 1 59 -9 15 -156 26 -193 15z"/>
</g>
</svg>
