<?xml version="1.0" standalone="no"?>
<!DOCTYPE svg PUBLIC "-//W3C//DTD SVG 20010904//EN"
 "http://www.w3.org/TR/2001/REC-SVG-20010904/DTD/svg10.dtd">
<svg version="1.0" xmlns="http://www.w3.org/2000/svg"
 width="101.000000pt" height="101.000000pt" viewBox="0 0 101.000000 101.000000"
 preserveAspectRatio="xMidYMid meet">
<metadata>
Created by potrace 1.16, written by Peter Selinger 2001-2019
</metadata>
<g transform="translate(0.000000,101.000000) scale(0.100000,-0.100000)"
fill="#000000" stroke="none">
<path d="M235 992 c-22 -8 -41 -16 -43 -18 -2 -1 13 -31 33 -67 l36 -65 42 16
c23 9 44 17 46 19 10 7 -57 134 -69 132 -3 -1 -23 -8 -45 -17z"/>
<path d="M610 1004 c-12 -4 -14 -18 -12 -64 3 -39 0 -60 -7 -60 -6 0 -11 -18
-11 -40 0 -22 5 -40 10 -40 6 0 10 -33 10 -80 0 -47 -4 -80 -10 -80 -6 0 -10
-30 -10 -70 0 -40 4 -70 10 -70 6 0 10 -11 10 -25 0 -14 -4 -25 -10 -25 -6 0
-10 -40 -10 -100 0 -68 4 -100 11 -100 8 0 10 -22 5 -75 -7 -74 -7 -74 19 -81
14 -3 35 -4 48 -1 22 6 22 8 20 174 -3 302 -1 413 9 407 13 -9 104 -150 138
-216 l35 -67 47 27 c26 15 48 32 48 38 0 12 -126 203 -164 249 l-25 29 -45
-22 -46 -22 5 118 c2 64 7 131 10 147 6 28 3 32 -27 43 -19 6 -36 11 -39 11
-2 -1 -11 -3 -19 -5z"/>
<path d="M76 813 c-4 -9 -4 -31 0 -49 8 -43 31 -50 121 -34 113 20 115 17 43
-78 -34 -46 -90 -106 -124 -134 -33 -28 -62 -56 -64 -62 -3 -15 26 -86 35 -86
4 0 35 27 68 60 l60 59 0 -189 c0 -208 -1 -206 60 -194 31 5 33 8 39 61 3 30
3 60 -1 66 -10 15 -11 227 -1 227 4 0 33 -29 65 -65 32 -36 63 -65 69 -65 5 0
23 13 39 30 28 29 28 30 9 51 -10 12 -38 35 -61 51 -24 16 -43 33 -43 38 0 6
25 24 55 41 30 17 55 35 55 39 0 11 -63 60 -78 60 -6 0 -20 -13 -32 -30 -11
-16 -33 -38 -48 -49 l-27 -19 1 37 c0 24 14 56 40 96 44 68 80 143 72 150 -3
3 -25 1 -49 -4 -56 -12 -196 -13 -204 -2 -10 16 -93 11 -99 -6z"/>
</g>
</svg>
