<?xml version="1.0" standalone="no"?>
<!DOCTYPE svg PUBLIC "-//W3C//DTD SVG 20010904//EN"
 "http://www.w3.org/TR/2001/REC-SVG-20010904/DTD/svg10.dtd">
<svg version="1.0" xmlns="http://www.w3.org/2000/svg"
 width="101.000000pt" height="102.000000pt" viewBox="0 0 101.000000 102.000000"
 preserveAspectRatio="xMidYMid meet">
<metadata>
Created by potrace 1.16, written by Peter Selinger 2001-2019
</metadata>
<g transform="translate(0.000000,102.000000) scale(0.100000,-0.100000)"
fill="#000000" stroke="none">
<path d="M432 968 l3 -53 -67 3 c-44 2 -68 0 -68 -7 0 -6 -16 -11 -35 -11 -19
0 -35 5 -35 10 0 6 -20 10 -45 10 -40 0 -47 -3 -56 -27 -14 -37 0 -79 27 -76
10 2 78 4 150 5 l131 3 -2 -35 -3 -35 -76 -3 c-44 -2 -76 1 -76 7 0 15 -73 23
-103 12 -21 -8 -27 -17 -27 -39 0 -15 6 -37 14 -47 12 -17 24 -18 143 -12
l130 6 -1 -29 -1 -29 -183 2 c-195 2 -202 0 -202 -48 0 -39 16 -50 72 -49 29
1 69 5 89 9 21 4 45 2 57 -4 14 -7 28 -7 51 2 24 9 33 9 43 -1 27 -27 -165
-176 -282 -219 -25 -9 -47 -18 -49 -20 -2 -1 15 -21 39 -44 49 -48 45 -49 160
37 39 30 73 54 75 54 4 0 6 -32 7 -94 0 -36 -4 -53 -17 -62 -17 -13 -16 -16 9
-54 27 -40 40 -48 51 -30 3 5 49 35 100 66 52 31 95 62 95 69 0 11 -20 76 -26
83 -1 2 -28 -15 -58 -39 -31 -23 -58 -40 -61 -37 -6 6 -8 127 -3 164 5 34 78
137 78 110 0 -10 15 -50 33 -89 57 -123 166 -222 303 -276 l50 -19 41 53 41
52 -57 13 c-62 14 -174 61 -185 78 -4 7 25 33 69 64 41 29 75 55 75 58 0 3
-20 18 -45 33 l-46 27 -56 -60 c-31 -34 -61 -59 -66 -57 -9 3 -77 114 -77 127
0 3 24 4 52 3 29 0 58 3 65 8 7 6 61 8 132 5 l121 -5 6 24 c13 53 4 60 -69 57
-43 -2 -67 1 -67 7 0 6 -18 11 -40 11 -22 0 -40 -4 -40 -10 0 -5 -16 -10 -35
-10 -19 0 -35 5 -35 10 0 6 -25 10 -55 10 -30 0 -55 4 -55 9 0 5 -2 15 -5 23
-4 10 10 13 62 11 38 -1 105 0 150 4 89 6 100 15 88 66 -5 19 -15 27 -41 31
-18 4 -42 3 -51 -2 -10 -6 -61 -7 -113 -5 -95 5 -95 6 -95 32 0 25 2 26 48 23
28 -3 54 1 62 8 17 14 146 6 176 -11 27 -14 52 17 45 54 -3 17 -8 33 -11 35
-2 2 -76 5 -163 6 -177 1 -162 -6 -147 67 7 30 -11 39 -78 39 l-38 0 3 -52z"/>
</g>
</svg>
