<?xml version="1.0" standalone="no"?>
<!DOCTYPE svg PUBLIC "-//W3C//DTD SVG 20010904//EN"
 "http://www.w3.org/TR/2001/REC-SVG-20010904/DTD/svg10.dtd">
<svg version="1.0" xmlns="http://www.w3.org/2000/svg"
 width="101.000000pt" height="101.000000pt" viewBox="0 0 101.000000 101.000000"
 preserveAspectRatio="xMidYMid meet">
<metadata>
Created by potrace 1.16, written by Peter Selinger 2001-2019
</metadata>
<g transform="translate(0.000000,101.000000) scale(0.100000,-0.100000)"
fill="#000000" stroke="none">
<path d="M187 992 c-45 -16 -47 -18 -33 -37 9 -11 22 -41 31 -67 17 -49 18
-49 78 -29 32 11 37 16 31 34 -7 24 -53 117 -57 116 -1 0 -24 -8 -50 -17z"/>
<path d="M635 1000 c-11 -5 -14 -9 -7 -9 13 -1 16 -50 6 -122 l-6 -44 -101 2
c-66 1 -104 -3 -109 -10 -11 -17 -9 -225 2 -232 13 -8 13 -52 0 -60 -12 -8
-12 -213 1 -220 6 -4 8 -49 7 -108 l-3 -102 30 -3 c57 -5 60 4 60 152 l0 135
23 -22 23 -22 19 25 c11 14 35 56 54 94 l34 69 42 -82 41 -82 32 18 32 19 0
-93 c0 -55 -4 -93 -10 -94 -5 0 -30 0 -54 1 -24 1 -41 -2 -39 -7 2 -4 15 -32
27 -60 22 -50 26 -53 55 -49 39 5 101 30 110 45 20 31 32 166 16 176 -13 8
-13 52 0 60 12 7 12 153 0 160 -12 7 -11 153 0 160 6 3 10 28 10 55 0 73 -13
82 -124 78 l-92 -4 3 26 c2 14 5 41 7 61 2 20 9 47 16 59 6 12 10 23 8 25 -9
9 -96 13 -113 5z m-20 -299 c0 -20 -3 -40 -6 -46 -4 -5 -7 -22 -7 -36 1 -31
-40 -123 -70 -159 l-20 -25 1 150 2 150 50 1 50 1 0 -36z m195 9 c0 -17 5 -30
10 -30 11 0 12 -111 2 -177 l-7 -43 -60 78 c-51 66 -60 84 -63 125 -3 59 8 71
69 74 48 3 49 2 49 -27z"/>
<path d="M50 811 c-29 -54 2 -96 64 -87 106 16 126 18 126 8 0 -22 -122 -172
-170 -208 -44 -34 -50 -42 -44 -64 3 -14 8 -36 9 -48 5 -39 13 -38 65 13 l50
49 0 -181 c0 -196 4 -213 55 -213 50 0 55 17 52 196 -1 90 -2 164 -1 164 0 0
15 -20 34 -45 19 -25 39 -45 44 -45 6 0 24 12 40 26 l29 25 -39 40 -39 40 27
24 c16 13 36 29 45 35 16 9 15 13 -17 40 -19 17 -38 30 -42 30 -3 0 -21 -20
-39 -45 -18 -25 -35 -43 -37 -40 -16 16 -5 75 24 120 29 46 94 169 94 178 0 2
-36 5 -80 6 -51 1 -80 -2 -80 -8 0 -6 -16 -11 -35 -11 -19 0 -35 5 -35 10 0 6
-20 10 -45 10 -34 0 -47 -5 -55 -19z"/>
</g>
</svg>
