<?xml version="1.0" standalone="no"?>
<!DOCTYPE svg PUBLIC "-//W3C//DTD SVG 20010904//EN"
 "http://www.w3.org/TR/2001/REC-SVG-20010904/DTD/svg10.dtd">
<svg version="1.0" xmlns="http://www.w3.org/2000/svg"
 width="101.000000pt" height="103.000000pt" viewBox="0 0 101.000000 103.000000"
 preserveAspectRatio="xMidYMid meet">
<metadata>
Created by potrace 1.16, written by Peter Selinger 2001-2019
</metadata>
<g transform="translate(0.000000,103.000000) scale(0.100000,-0.100000)"
fill="#000000" stroke="none">
<path d="M411 985 l-19 -43 -101 2 c-88 1 -102 -1 -107 -16 -3 -10 -3 -27 1
-37 10 -33 12 -175 3 -194 -5 -10 -7 -31 -3 -46 l6 -28 87 2 c48 2 104 6 124
10 21 4 50 4 65 0 l28 -7 -30 -15 c-40 -21 -38 -18 -25 -42 6 -12 13 -34 15
-50 3 -27 1 -29 -42 -35 -78 -10 -171 -7 -177 7 -5 10 -7 10 -12 0 -7 -15 -74
-18 -74 -3 0 6 -18 10 -40 10 -33 0 -42 -4 -50 -24 -18 -48 17 -89 59 -67 20
11 117 13 195 5 l59 -6 -54 -34 c-53 -33 -170 -80 -219 -88 -14 -2 -37 -7 -52
-11 l-27 -7 32 -39 c18 -21 38 -39 45 -39 7 0 51 16 99 35 48 19 87 35 88 35
1 0 1 -15 2 -34 1 -22 -6 -41 -18 -52 -18 -16 -18 -17 1 -55 l20 -38 82 38
c46 21 96 43 112 50 26 11 28 14 21 49 -4 20 -9 39 -11 41 -3 3 -30 -7 -61
-23 -63 -31 -85 -25 -65 19 6 13 9 31 7 38 -3 7 17 30 46 52 31 23 54 35 56
28 2 -6 18 -32 35 -58 50 -75 161 -149 288 -190 52 -17 55 -17 65 0 5 10 20
33 33 52 13 20 21 37 18 40 -2 2 -19 6 -38 8 -102 12 -190 35 -185 49 2 6 29
27 61 46 l59 34 -33 27 -32 27 29 1 c15 1 51 2 79 2 48 0 52 2 57 25 8 42 -2
64 -27 59 -11 -3 -37 -1 -56 3 -33 8 -33 9 -12 16 28 9 61 80 69 146 l5 45
-86 3 c-54 2 -86 -1 -86 -8 0 -5 -20 -10 -45 -10 -25 0 -45 5 -45 10 0 6 -30
10 -70 10 -40 0 -70 -4 -70 -10 0 -6 -32 -10 -75 -10 -43 0 -75 4 -75 10 0 6
-11 10 -25 10 -21 0 -25 5 -26 33 0 17 -2 52 -3 77 l-1 45 80 2 c44 1 98 2
120 2 22 0 76 -1 121 -1 81 0 81 0 78 -25 -3 -32 -17 -41 -56 -37 -27 4 -30 2
-24 -19 8 -26 14 -50 15 -58 2 -16 52 -17 87 -3 54 22 78 70 89 171 6 49 5 53
-17 58 -13 3 -36 2 -50 -4 -44 -16 -148 -25 -148 -12 0 6 -17 11 -40 11 -46 0
-48 5 -18 37 28 30 14 41 -49 40 -41 0 -44 -2 -62 -42z m369 -364 c0 -21 -37
-37 -81 -35 l-47 3 16 -42 c9 -23 20 -45 24 -48 5 -3 -23 -5 -62 -5 l-70 1
-18 60 -18 60 36 5 c63 9 220 10 220 1z m-96 -210 l30 -6 -45 -42 c-24 -24
-47 -43 -51 -43 -9 0 -68 72 -68 83 0 5 8 6 18 3 9 -3 24 -1 32 4 16 11 40 11
84 1z"/>
<path d="M392 821 c-25 -35 -27 -41 -9 -41 6 0 40 -13 74 -29 l62 -30 26 35
26 34 -55 25 c-90 40 -98 40 -124 6z"/>
</g>
</svg>
