<?xml version="1.0" standalone="no"?>
<!DOCTYPE svg PUBLIC "-//W3C//DTD SVG 20010904//EN"
 "http://www.w3.org/TR/2001/REC-SVG-20010904/DTD/svg10.dtd">
<svg version="1.0" xmlns="http://www.w3.org/2000/svg"
 width="101.000000pt" height="102.000000pt" viewBox="0 0 101.000000 102.000000"
 preserveAspectRatio="xMidYMid meet">
<metadata>
Created by potrace 1.16, written by Peter Selinger 2001-2019
</metadata>
<g transform="translate(0.000000,102.000000) scale(0.100000,-0.100000)"
fill="#000000" stroke="none">
<path d="M388 979 c3 -23 -1 -52 -9 -65 -13 -26 -27 -26 -222 -9 -73 7 -97 -5
-97 -48 0 -18 4 -37 8 -43 9 -14 128 -18 137 -4 7 11 72 12 118 1 l28 -6 -33
-46 c-18 -26 -47 -58 -64 -72 -36 -30 -116 -72 -156 -82 l-28 -7 38 -43 37
-43 37 19 c21 11 62 39 93 64 l55 45 22 -35 c27 -41 31 -41 100 -15 63 24 58
23 58 7 0 -8 10 -23 23 -35 20 -19 34 -22 103 -21 203 1 254 17 281 89 10 27
9 32 -5 37 -9 4 -30 15 -45 26 -16 10 -29 18 -31 16 -1 -2 -8 -19 -16 -37 -7
-18 -20 -36 -29 -40 -9 -4 -58 -5 -110 -2 l-95 5 90 45 c49 24 94 45 99 46 6
0 16 2 23 2 20 3 14 22 -17 51 l-28 26 56 -3 c31 -1 66 0 78 3 25 6 39 42 29
73 -6 17 -13 19 -46 15 -25 -4 -46 -1 -55 7 -9 8 -25 10 -42 5 -65 -18 -67
-17 -38 16 29 36 31 34 -49 75 l-48 26 -29 -28 c-16 -15 -29 -31 -29 -34 0 -4
23 -17 51 -30 28 -13 52 -27 54 -31 3 -3 -47 -6 -110 -5 l-114 1 6 25 c3 14
12 37 20 53 13 26 12 28 -12 37 -15 6 -41 10 -58 10 -32 0 -32 -1 -29 -41z
m116 -230 c-2 -68 -14 -83 -65 -81 -15 0 -33 -6 -40 -14 -6 -8 -22 -14 -35
-14 -25 0 -32 14 -13 26 6 3 29 34 51 68 31 48 46 62 71 67 18 4 32 7 32 8 0
0 -1 -27 -1 -60z m192 37 c-15 -13 -45 -33 -65 -44 l-36 -20 0 41 0 42 65 2
65 2 -29 -23z"/>
<path d="M438 549 c-10 -6 -9 -13 1 -32 7 -14 10 -30 7 -36 -10 -16 -143 -14
-150 2 -5 10 -7 10 -12 0 -7 -15 -71 -18 -76 -3 -1 5 -34 10 -71 12 -72 2 -87
-6 -87 -47 0 -37 13 -45 61 -39 89 11 216 14 239 6 22 -8 22 -10 -26 -46 -51
-39 -209 -120 -256 -132 -16 -3 -28 -9 -28 -13 0 -4 15 -22 34 -40 l34 -33 87
46 c48 25 89 46 91 46 3 0 3 -10 0 -22 -16 -90 -16 -93 7 -121 l23 -28 68 45
c37 24 80 49 96 56 26 11 29 16 24 43 -10 57 -15 58 -74 21 -59 -37 -82 -33
-62 11 6 13 9 31 7 38 -3 7 17 34 43 60 l49 49 30 -54 c38 -66 114 -138 184
-173 62 -32 155 -65 178 -64 16 0 86 98 73 100 -8 2 -42 6 -94 13 -21 2 -68
14 -105 27 l-68 22 60 29 c33 15 66 28 73 28 23 0 12 20 -27 46 l-39 26 -54
-36 c-29 -20 -57 -36 -63 -36 -9 0 -65 72 -65 83 0 3 10 5 23 6 12 0 56 3 97
6 41 3 115 1 164 -5 71 -9 91 -8 98 2 13 21 9 55 -8 72 -17 18 -65 21 -80 7
-9 -10 -123 -14 -237 -9 -57 3 -58 3 -68 40 -9 36 -12 38 -49 36 -21 -1 -45
-5 -52 -9z"/>
</g>
</svg>
