<?xml version="1.0" standalone="no"?>
<!DOCTYPE svg PUBLIC "-//W3C//DTD SVG 20010904//EN"
 "http://www.w3.org/TR/2001/REC-SVG-20010904/DTD/svg10.dtd">
<svg version="1.0" xmlns="http://www.w3.org/2000/svg"
 width="101.000000pt" height="101.000000pt" viewBox="0 0 101.000000 101.000000"
 preserveAspectRatio="xMidYMid meet">
<metadata>
Created by potrace 1.16, written by Peter Selinger 2001-2019
</metadata>
<g transform="translate(0.000000,101.000000) scale(0.100000,-0.100000)"
fill="#000000" stroke="none">
<path d="M678 1003 c-9 -3 -19 -12 -22 -21 -8 -31 -5 -86 6 -99 6 -8 8 -41 3
-91 l-7 -78 -52 4 c-63 5 -100 -11 -93 -39 3 -10 1 -19 -4 -19 -5 0 -9 11 -9
25 0 14 5 25 10 25 6 0 10 23 10 50 0 55 39 165 66 184 21 16 4 30 -54 46 -39
10 -45 9 -57 -7 -8 -10 -13 -27 -13 -38 2 -24 -27 -115 -52 -165 -10 -19 -39
-64 -65 -98 -25 -35 -45 -65 -43 -66 2 -1 20 -12 40 -24 l38 -21 22 39 c13 22
26 40 31 40 4 0 7 -34 7 -75 0 -43 -4 -75 -10 -75 -6 0 -10 -30 -10 -70 0 -46
4 -70 11 -70 11 0 8 -86 -7 -196 -5 -35 -3 -42 14 -46 35 -9 72 3 72 23 0 23
4 23 36 3 23 -16 26 -16 40 2 52 67 124 258 125 334 1 24 1 24 15 5 8 -11 12
-25 10 -31 -8 -21 63 -213 100 -271 l35 -54 35 30 c19 17 39 31 45 31 5 0 -12
28 -38 63 -72 93 -104 171 -118 287 -2 19 -6 47 -8 61 -4 25 -3 25 49 21 73
-6 100 2 108 34 14 55 5 61 -102 60 l-97 -1 2 35 c4 88 13 191 19 215 3 14 2
26 -2 26 -5 1 -19 3 -30 4 -12 1 -25 4 -30 7 -5 2 -17 3 -26 1z m-24 -395 c-4
-13 -9 -34 -11 -48 -11 -85 -16 -112 -38 -173 -26 -77 -84 -179 -97 -171 -12
7 -10 154 2 154 6 0 10 23 10 50 0 28 -4 50 -10 50 -5 0 -10 11 -10 25 0 14 5
25 10 25 6 0 10 20 10 45 l0 45 43 1 c23 1 53 5 67 9 14 4 26 8 28 9 2 1 0 -9
-4 -21z"/>
<path d="M215 990 c-4 -6 -14 -10 -23 -9 -10 1 -22 1 -28 0 -17 -2 28 -121 45
-121 8 0 11 -3 8 -6 -4 -4 -35 -6 -71 -5 -70 2 -96 -12 -96 -52 0 -40 11 -45
101 -43 l87 1 -25 -50 c-32 -63 -49 -85 -123 -160 l-59 -60 16 -55 16 -55 52
58 c47 51 53 55 55 35 4 -51 1 -311 -4 -333 -7 -26 12 -35 62 -27 29 4 31 6
24 36 -6 26 -7 159 -1 256 l1 24 19 -24 c10 -14 21 -33 25 -43 7 -22 19 -22
61 4 l35 22 -42 42 -42 43 41 24 c22 12 41 26 41 30 0 4 -16 19 -36 34 l-36
28 -25 -32 c-13 -18 -27 -32 -31 -32 -4 0 -7 20 -7 43 1 32 15 73 53 150 29
58 52 109 52 115 0 5 -30 13 -67 19 -64 9 -66 10 -35 18 30 7 33 11 29 34 -16
76 -53 122 -72 91z"/>
<path d="M792 912 l-22 -17 36 -68 c19 -37 37 -67 39 -67 10 0 85 32 85 36 0
3 -18 34 -41 69 -43 69 -59 76 -97 47z"/>
</g>
</svg>
