<?xml version="1.0" standalone="no"?>
<!DOCTYPE svg PUBLIC "-//W3C//DTD SVG 20010904//EN"
 "http://www.w3.org/TR/2001/REC-SVG-20010904/DTD/svg10.dtd">
<svg version="1.0" xmlns="http://www.w3.org/2000/svg"
 width="101.000000pt" height="102.000000pt" viewBox="0 0 101.000000 102.000000"
 preserveAspectRatio="xMidYMid meet">
<metadata>
Created by potrace 1.16, written by Peter Selinger 2001-2019
</metadata>
<g transform="translate(0.000000,102.000000) scale(0.100000,-0.100000)"
fill="#000000" stroke="none">
<path d="M453 1013 c-26 -5 -28 -18 -8 -53 8 -14 14 -28 15 -32 0 -3 -43 -4
-95 -1 -68 4 -95 3 -95 -6 0 -6 -15 -11 -35 -11 -19 0 -35 5 -35 10 0 6 -28
10 -64 10 -71 0 -81 -9 -70 -65 l6 -32 166 4 c172 3 270 4 427 3 50 -1 108 -1
130 -1 22 1 62 1 89 1 56 0 69 12 61 55 -6 33 -23 48 -45 38 -8 -4 -89 -6
-180 -5 l-165 1 -13 46 c-14 47 -22 51 -89 38z"/>
<path d="M395 812 c-7 -7 -69 -13 -145 -15 l-75 -2 0 -177 -1 -178 42 4 c23 2
46 6 53 10 6 4 32 4 58 0 l47 -7 -39 -34 c-61 -53 -180 -124 -248 -148 -34
-13 -62 -25 -62 -27 0 -2 16 -23 35 -45 l36 -42 88 55 c48 30 89 54 91 54 9 0
-3 -80 -13 -93 -10 -12 -9 -22 5 -51 9 -20 19 -35 22 -34 3 2 54 32 114 67 91
54 107 67 109 90 2 34 -1 64 -7 69 -3 3 -31 -13 -62 -35 -84 -58 -81 -57 -76
-15 3 20 5 47 6 58 1 12 25 46 53 76 l51 54 32 -66 c17 -36 49 -86 71 -112 46
-54 153 -128 224 -156 l49 -19 44 45 c23 25 42 46 40 47 -1 1 -32 9 -68 19
-36 10 -90 28 -119 42 l-53 24 69 45 c38 24 77 45 87 45 28 0 20 14 -28 43
l-46 27 -66 -56 c-75 -64 -71 -65 -118 27 l-24 47 22 1 c70 5 167 3 197 -3
l35 -8 2 81 c1 44 -2 83 -8 86 -12 8 -12 52 1 60 6 4 10 34 9 68 l-2 62 -153
2 -153 2 -6 -29 c-6 -29 8 -70 25 -70 5 0 16 7 24 15 12 12 33 15 88 13 l73
-3 0 -32 0 -33 -97 5 c-91 4 -97 3 -103 -16 -4 -11 -4 -31 -1 -44 8 -32 58
-41 133 -26 31 6 59 11 62 11 3 0 6 -16 6 -35 0 -31 -3 -36 -31 -41 -18 -3
-41 -1 -51 4 -11 6 -44 8 -74 5 -49 -4 -225 -6 -274 -2 -15 1 -20 9 -20 33 l0
31 92 -2 c99 -1 109 4 97 52 -5 21 -13 23 -95 30 -86 6 -89 7 -89 31 0 25 10
28 73 24 15 -1 35 4 43 10 9 8 29 10 54 6 47 -7 50 2 20 51 -15 25 -26 32 -45
31 -15 -1 -28 -4 -30 -6z"/>
</g>
</svg>
