<?xml version="1.0" standalone="no"?>
<!DOCTYPE svg PUBLIC "-//W3C//DTD SVG 20010904//EN"
 "http://www.w3.org/TR/2001/REC-SVG-20010904/DTD/svg10.dtd">
<svg version="1.0" xmlns="http://www.w3.org/2000/svg"
 width="101.000000pt" height="101.000000pt" viewBox="0 0 101.000000 101.000000"
 preserveAspectRatio="xMidYMid meet">
<metadata>
Created by potrace 1.16, written by Peter Selinger 2001-2019
</metadata>
<g transform="translate(0.000000,101.000000) scale(0.100000,-0.100000)"
fill="#000000" stroke="none">
<path d="M480 1002 c-10 -5 -15 -22 -15 -57 l0 -50 -58 3 c-32 2 -63 -1 -70
-6 -16 -13 -174 -15 -182 -2 -7 12 -35 13 -52 2 -6 -4 -14 -19 -18 -33 -10
-41 17 -61 79 -59 80 3 80 3 52 -32 l-25 -33 61 -27 c34 -16 59 -30 57 -32 -6
-6 -59 -17 -79 -18 -8 0 -22 -2 -30 -5 -8 -3 -30 -5 -48 -4 -21 2 -34 -3 -38
-12 -6 -17 31 -97 45 -97 5 0 72 22 149 50 77 28 142 50 145 50 3 0 6 -8 6
-17 0 -31 7 -68 18 -88 11 -20 8 -20 -197 -18 l-209 1 -6 -29 c-13 -59 -4 -66
96 -67 52 -1 98 3 108 10 13 8 35 8 71 2 l53 -9 -74 -42 c-82 -47 -169 -80
-231 -87 -22 -3 -43 -7 -46 -10 -2 -3 7 -19 22 -36 14 -17 26 -36 26 -41 0
-16 29 -9 119 29 l89 39 -2 -44 c-1 -26 -7 -48 -16 -53 -12 -7 -11 -15 5 -49
10 -23 19 -41 20 -41 1 0 40 17 86 38 46 21 97 44 112 50 25 11 28 16 22 48
-3 20 -8 40 -11 45 -3 5 -32 -5 -65 -21 -51 -26 -60 -28 -66 -15 -3 9 -1 27 5
41 6 13 9 30 6 37 -5 13 72 82 91 82 5 0 18 -17 28 -37 33 -65 114 -136 212
-184 49 -24 104 -46 122 -50 28 -6 33 -3 48 27 10 19 24 42 33 52 18 20 13 27
-25 33 -15 3 -39 7 -53 9 -14 2 -36 6 -50 8 -14 2 -42 9 -63 16 l-38 13 38 30
c21 17 50 35 66 40 34 13 34 21 -3 50 l-29 23 76 1 c83 2 95 9 91 59 l-3 30
-177 0 c-136 0 -178 3 -178 13 0 20 -2 26 -11 44 -5 10 -11 35 -13 57 -4 36
-2 39 17 35 12 -2 72 -33 134 -69 62 -36 117 -65 121 -65 4 1 20 17 35 38 l28
37 -38 17 c-21 10 -60 27 -88 39 l-50 22 58 21 c31 11 57 27 57 34 0 7 -20 22
-44 34 l-45 21 -54 -37 -54 -37 -39 16 c-32 12 -39 20 -40 43 -1 26 1 27 44
23 24 -2 54 2 67 9 22 12 162 9 231 -6 26 -5 33 -3 38 14 4 11 4 31 1 45 -6
22 -13 25 -75 31 -54 6 -67 10 -66 23 0 9 -18 30 -41 46 -44 31 -69 32 -108 1
-20 -15 -19 -16 15 -45 l35 -31 -40 6 c-22 3 -52 6 -66 6 -32 0 -43 29 -27 66
6 13 9 27 6 29 -10 10 -72 15 -88 7z m-52 -188 c27 -6 30 -10 34 -50 3 -42 1
-45 -28 -54 -17 -6 -41 -13 -54 -15 -22 -4 -22 -4 -4 16 22 25 14 33 -62 64
-53 22 -56 25 -27 25 17 0 35 5 38 10 7 11 57 13 103 4z m308 -393 c-4 -5 -28
-28 -55 -50 l-49 -41 -32 42 -31 43 43 6 c70 10 130 10 124 0z"/>
</g>
</svg>
