<?xml version="1.0" standalone="no"?>
<!DOCTYPE svg PUBLIC "-//W3C//DTD SVG 20010904//EN"
 "http://www.w3.org/TR/2001/REC-SVG-20010904/DTD/svg10.dtd">
<svg version="1.0" xmlns="http://www.w3.org/2000/svg"
 width="101.000000pt" height="101.000000pt" viewBox="0 0 101.000000 101.000000"
 preserveAspectRatio="xMidYMid meet">
<metadata>
Created by potrace 1.16, written by Peter Selinger 2001-2019
</metadata>
<g transform="translate(0.000000,101.000000) scale(0.100000,-0.100000)"
fill="#000000" stroke="none">
<path d="M565 1000 c-3 -5 -1 -10 4 -10 7 0 11 -23 11 -55 0 -30 -4 -55 -10
-55 -5 0 -10 -18 -10 -40 0 -23 5 -40 11 -40 8 0 10 -15 7 -44 -4 -33 -2 -46
9 -50 26 -10 51 -6 68 10 14 15 14 18 0 40 -17 26 -20 70 -6 78 5 4 9 35 9 70
0 35 3 69 7 76 4 7 2 16 -6 21 -19 12 -86 11 -94 -1z"/>
<path d="M170 968 c-23 -30 -23 -32 -6 -42 11 -6 44 -28 75 -48 l56 -37 27 32
c15 18 27 34 28 38 0 5 -144 90 -151 88 -2 0 -15 -14 -29 -31z"/>
<path d="M735 906 l-30 -24 82 -81 c46 -45 86 -81 90 -81 13 1 63 48 63 59 0
10 -159 151 -170 151 -3 0 -18 -11 -35 -24z"/>
<path d="M408 862 c-15 -31 -41 -71 -58 -89 -16 -18 -30 -34 -30 -37 0 -2 20
-11 44 -19 l45 -15 40 67 c22 37 47 73 55 81 23 18 20 39 -6 49 -63 23 -61 24
-90 -37z"/>
<path d="M85 830 c-16 -16 -27 -31 -24 -33 2 -1 39 -20 81 -41 l77 -38 25 28
c14 16 26 32 26 35 0 6 -140 79 -151 79 -3 0 -18 -13 -34 -30z"/>
<path d="M725 734 c-79 -65 -205 -103 -343 -103 -19 0 -42 -3 -52 -6 -17 -5
-17 -9 6 -50 22 -39 28 -43 58 -41 18 2 38 6 44 10 6 4 18 -6 27 -24 l15 -30
-84 5 c-53 4 -87 2 -91 -5 -8 -13 -52 -13 -60 0 -6 10 -123 13 -157 4 -21 -6
-31 -49 -18 -74 9 -17 21 -20 85 -20 52 0 78 4 89 15 16 16 131 22 140 7 6
-11 -101 -74 -174 -102 -30 -12 -55 -21 -55 -20 0 1 -13 -2 -29 -6 -26 -6 -39
-8 -83 -13 -20 -2 -15 -13 21 -54 l34 -38 88 35 c49 19 89 34 90 33 9 -9 6
-68 -4 -80 -10 -12 -9 -22 5 -51 9 -20 19 -35 23 -34 3 2 54 23 113 48 l108
45 -7 35 c-3 19 -8 38 -10 42 -3 4 -30 -4 -61 -17 -30 -14 -56 -25 -57 -25 -1
0 1 22 4 49 4 43 11 55 47 86 l42 36 20 -39 c28 -55 102 -124 171 -161 59 -32
162 -71 185 -71 7 0 26 23 44 52 37 58 32 69 -34 67 -53 -1 -99 7 -127 22 -13
7 -24 12 -25 11 -2 -1 -8 -2 -14 -2 -15 0 28 34 81 64 l42 24 -35 26 c-18 14
-40 26 -46 26 -7 0 -36 -20 -63 -45 -28 -25 -54 -42 -60 -39 -13 8 -68 85 -68
96 0 15 207 4 316 -18 47 -9 80 35 56 74 -11 16 -168 27 -177 12 -8 -13 -48
-13 -62 1 -6 6 -33 10 -62 8 -44 -4 -51 -2 -56 18 -2 11 -7 28 -10 36 -5 10
17 22 82 45 49 18 105 43 124 56 20 14 48 28 63 32 34 8 33 18 -7 48 -42 32
-54 32 -92 0z"/>
<path d="M250 698 c-30 -22 -80 -52 -110 -66 -30 -15 -57 -28 -59 -29 -2 -1
12 -22 29 -47 l33 -45 50 45 c28 25 69 56 92 69 34 20 41 30 43 58 4 57 -16
60 -78 15z"/>
</g>
</svg>
