<?xml version="1.0" standalone="no"?>
<!DOCTYPE svg PUBLIC "-//W3C//DTD SVG 20010904//EN"
 "http://www.w3.org/TR/2001/REC-SVG-20010904/DTD/svg10.dtd">
<svg version="1.0" xmlns="http://www.w3.org/2000/svg"
 width="101.000000pt" height="102.000000pt" viewBox="0 0 101.000000 102.000000"
 preserveAspectRatio="xMidYMid meet">
<metadata>
Created by potrace 1.16, written by Peter Selinger 2001-2019
</metadata>
<g transform="translate(0.000000,102.000000) scale(0.100000,-0.100000)"
fill="#000000" stroke="none">
<path d="M556 1008 c-3 -7 -10 -31 -17 -53 -32 -107 -103 -206 -198 -276 l-34
-25 51 -25 51 -25 36 35 c28 28 36 31 31 15 -10 -33 16 -58 50 -49 16 4 82 8
147 8 102 1 118 4 123 19 3 10 2 23 -2 29 -3 6 17 -5 47 -25 l53 -35 35 41
c20 23 36 46 36 51 0 5 -21 17 -46 26 -58 23 -127 70 -167 115 -45 51 -83 121
-76 139 4 12 -5 18 -38 27 -23 6 -51 13 -61 16 -9 3 -19 -1 -21 -8z m166 -266
c20 -22 35 -42 32 -44 -2 -3 -55 -3 -117 -2 -61 2 -117 4 -124 4 -6 0 9 30 33
67 24 36 49 82 55 100 l11 34 36 -60 c21 -33 54 -78 74 -99z"/>
<path d="M175 983 c-22 -9 -41 -17 -43 -18 -2 -2 8 -19 22 -39 14 -20 31 -50
38 -67 7 -16 19 -27 25 -24 7 2 13 -2 13 -10 0 -10 -11 -15 -35 -15 -19 0 -35
5 -35 10 0 6 -24 10 -54 10 -61 0 -71 -11 -60 -67 l6 -34 94 6 c52 3 94 2 94
-2 0 -24 -102 -162 -156 -211 l-65 -60 23 -38 c12 -22 24 -41 26 -44 2 -3 24
17 48 45 l44 49 2 -144 c2 -80 2 -168 0 -196 -2 -57 7 -65 66 -56 31 4 37 14
34 52 -6 60 -6 297 0 294 4 -3 22 -25 39 -50 l30 -45 37 22 c20 13 39 24 41
26 3 2 -17 26 -45 54 l-49 51 45 40 45 40 -30 24 c-41 33 -51 30 -77 -16 -13
-22 -27 -38 -33 -37 -18 6 -8 63 18 104 29 46 97 177 97 187 0 3 -3 5 -7 5 -5
-1 -37 0 -73 1 l-65 2 38 16 c24 9 36 20 33 29 -10 26 -76 123 -83 122 -5 0
-26 -7 -48 -16z"/>
<path d="M750 546 c-5 -13 -9 -33 -9 -43 1 -17 -2 -37 -16 -108 -8 -40 -43
-146 -55 -165 -7 -11 -34 -14 -127 -14 -65 1 -139 4 -164 8 -52 7 -60 -3 -51
-62 4 -32 5 -32 51 -26 42 6 132 7 296 4 33 -1 79 2 102 5 26 4 60 1 91 -8 59
-17 69 -13 73 28 5 71 -11 85 -68 58 -29 -13 -41 -14 -65 -5 -16 6 -36 8 -44
5 -11 -4 -10 6 7 48 12 30 35 90 51 134 16 44 36 87 44 97 17 18 16 20 -54 47
l-53 21 -9 -24z"/>
<path d="M572 547 c-15 -7 -21 -16 -16 -26 14 -35 35 -124 35 -151 0 -48 9
-58 41 -55 55 5 69 14 61 42 -3 14 -7 35 -8 47 -1 11 -4 22 -5 24 -1 1 -3 5
-4 10 -1 4 -10 32 -19 62 -18 60 -37 70 -85 47z"/>
<path d="M419 519 c-9 -5 -9 -15 0 -40 16 -43 33 -128 40 -197 1 -8 12 -11 34
-8 53 7 66 15 61 39 -2 12 -6 31 -8 42 -2 11 -9 40 -16 65 -7 25 -13 52 -14
60 -5 37 -18 49 -51 48 -19 -1 -39 -4 -46 -9z"/>
</g>
</svg>
