<?xml version="1.0" standalone="no"?>
<!DOCTYPE svg PUBLIC "-//W3C//DTD SVG 20010904//EN"
 "http://www.w3.org/TR/2001/REC-SVG-20010904/DTD/svg10.dtd">
<svg version="1.0" xmlns="http://www.w3.org/2000/svg"
 width="101.000000pt" height="101.000000pt" viewBox="0 0 101.000000 101.000000"
 preserveAspectRatio="xMidYMid meet">
<metadata>
Created by potrace 1.16, written by Peter Selinger 2001-2019
</metadata>
<g transform="translate(0.000000,101.000000) scale(0.100000,-0.100000)"
fill="#000000" stroke="none">
<path d="M190 994 c-19 -8 -35 -16 -37 -17 -1 -2 9 -30 22 -63 25 -62 31 -65
88 -50 22 7 26 12 21 30 -12 41 -47 116 -53 116 -3 -1 -22 -8 -41 -16z"/>
<path d="M438 980 l-37 -20 31 -67 c17 -38 33 -70 34 -72 3 -4 94 30 94 36 0
11 -71 143 -78 143 -4 -1 -24 -10 -44 -20z"/>
<path d="M600 932 c-10 -4 -15 -22 -16 -49 -1 -40 1 -42 30 -42 17 0 41 5 53
11 13 6 46 8 85 4 l63 -7 -3 -114 c-2 -71 1 -116 8 -120 13 -8 13 -52 -1 -61
-8 -4 -9 -54 -5 -165 6 -150 5 -159 -13 -169 -11 -5 -28 -9 -38 -8 -50 4 -51
2 -32 -55 18 -51 19 -52 55 -50 21 2 53 11 73 22 l36 18 -3 82 c-3 53 0 81 7
81 7 0 11 35 11 100 0 60 -4 100 -10 100 -5 0 -10 11 -10 25 0 14 5 25 10 25
6 0 10 30 10 70 0 40 -4 70 -10 70 -12 0 -13 67 -1 72 5 2 10 30 11 63 4 105
16 96 -117 94 -65 -1 -131 1 -148 4 -16 4 -37 3 -45 -1z"/>
<path d="M55 793 c-3 -13 -3 -33 0 -44 6 -17 14 -18 91 -14 46 3 84 3 84 -1 0
-18 -100 -155 -146 -200 -49 -48 -53 -55 -44 -79 6 -15 8 -30 6 -34 -3 -4 -1
-13 4 -21 7 -12 17 -7 50 25 l40 39 0 -37 c0 -20 5 -37 10 -37 15 0 12 -67 -2
-73 -10 -4 -10 -8 1 -15 11 -8 13 -31 9 -105 -6 -105 -2 -111 57 -99 23 4 26
8 20 31 -12 41 -15 183 -6 195 5 6 8 34 8 63 -2 57 7 57 44 -3 l21 -34 33 25
33 26 1 -23 c1 -13 3 -49 5 -81 3 -34 -1 -75 -9 -96 -25 -71 -2 -105 60 -93
l28 5 -7 167 c-5 113 -4 170 3 174 12 8 13 114 0 122 -12 7 -11 51 1 59 6 4
10 32 9 63 -1 32 2 64 5 73 5 12 -2 20 -24 29 -41 17 -86 3 -82 -26 1 -10 3
-60 5 -110 l2 -92 -29 21 c-30 22 -27 23 -63 -35 -10 -16 -22 -28 -29 -28 -20
0 1 70 55 176 28 56 51 103 51 105 0 2 -65 5 -144 6 l-144 1 -7 -25z m310
-317 l0 -65 -33 37 -34 36 31 28 c17 16 32 28 34 28 1 0 2 -29 2 -64z"/>
<path d="M518 753 c-14 -4 -18 -15 -18 -54 0 -30 4 -49 11 -49 14 0 3 -258
-12 -297 -14 -38 -2 -52 39 -46 62 8 166 8 191 -1 l23 -8 -7 150 c-5 103 -4
152 4 156 6 4 10 36 9 76 l-1 69 -41 5 c-51 5 -175 5 -198 -1z m156 -123 l1
-55 -45 0 -45 0 0 58 0 58 44 -3 45 -3 0 -55z m1 -195 c0 -58 -1 -60 -25 -57
-14 2 -34 3 -45 4 -18 0 -20 6 -17 57 l4 56 41 0 42 0 0 -60z"/>
</g>
</svg>
