<?xml version="1.0" standalone="no"?>
<!DOCTYPE svg PUBLIC "-//W3C//DTD SVG 20010904//EN"
 "http://www.w3.org/TR/2001/REC-SVG-20010904/DTD/svg10.dtd">
<svg version="1.0" xmlns="http://www.w3.org/2000/svg"
 width="101.000000pt" height="101.000000pt" viewBox="0 0 101.000000 101.000000"
 preserveAspectRatio="xMidYMid meet">
<metadata>
Created by potrace 1.16, written by Peter Selinger 2001-2019
</metadata>
<g transform="translate(0.000000,101.000000) scale(0.100000,-0.100000)"
fill="#000000" stroke="none">
<path d="M477 993 c-16 -4 -17 -13 -12 -78 l6 -73 -43 1 c-24 0 -85 -6 -137
-13 -71 -10 -98 -10 -112 -2 -28 18 -105 15 -123 -4 -17 -17 -19 -27 -10 -61
6 -21 11 -22 95 -19 l89 3 -22 -36 c-42 -71 -90 -131 -138 -174 l-49 -44 16
-54 16 -54 47 55 c57 64 53 78 51 -166 -1 -161 0 -172 18 -177 10 -2 30 -2 44
0 25 5 26 7 19 57 -6 43 -7 177 -1 276 l1 25 21 -25 c12 -14 29 -37 38 -50
l17 -25 30 28 c20 20 31 25 34 16 3 -9 19 -13 45 -12 36 2 41 -1 41 -20 1 -12
2 -33 4 -47 3 -22 -1 -25 -32 -26 -56 -1 -110 -15 -110 -29 0 -6 5 -27 11 -44
11 -31 13 -32 48 -26 20 4 47 9 61 11 25 3 56 8 135 19 22 4 52 7 67 8 34 3
38 7 44 51 l4 37 -42 -6 c-114 -16 -108 -18 -106 30 2 46 0 44 76 47 21 1 33
6 34 17 5 51 -12 75 -44 65 -56 -17 -64 -15 -63 19 1 18 5 39 10 47 5 8 2 18
-10 27 -17 12 -13 13 31 15 27 0 59 0 70 -1 25 -2 37 20 28 54 -6 25 -37 35
-105 35 l-39 0 0 43 0 42 61 1 c67 1 83 13 73 54 -8 34 -22 41 -75 38 -44 -3
-46 -2 -41 22 2 14 5 39 7 55 2 17 6 37 10 46 9 23 -38 35 -88 22z m-104 -235
c7 -4 29 -8 50 -8 25 0 37 -5 37 -14 0 -7 3 -26 6 -42 l5 -29 -61 0 c-64 0
-84 -13 -76 -48 4 -15 2 -16 -11 -6 -9 8 -17 9 -21 3 -4 -6 -18 -27 -31 -48
-13 -20 -26 -35 -29 -31 -18 18 -4 69 45 156 29 52 53 102 54 110 0 8 5 3 10
-11 6 -13 15 -28 22 -32z m68 -178 c27 0 29 -2 19 -20 -6 -12 -8 -31 -4 -43
15 -44 14 -47 -31 -45 -49 3 -55 -1 -58 -31 -1 -19 -4 -18 -37 14 l-35 36 39
33 c21 18 36 38 32 44 -7 12 13 22 32 16 8 -2 27 -4 43 -4z"/>
<path d="M706 858 c3 -79 5 -188 4 -243 -1 -110 -1 -235 -1 -292 0 -21 -1 -77
-2 -125 -2 -95 0 -99 59 -91 l29 5 3 89 c2 56 -1 89 -8 89 -5 0 -10 20 -10 45
0 25 5 45 10 45 6 0 10 53 11 138 l0 137 20 -48 c10 -26 26 -77 35 -112 11
-42 22 -65 31 -65 16 0 83 27 83 34 0 6 -111 280 -115 285 -2 2 -17 -1 -33 -7
-28 -10 -30 -9 -36 20 -9 43 -7 76 3 80 4 2 10 35 13 75 l5 71 -33 -5 c-22 -4
-34 -2 -34 6 0 6 -9 11 -19 11 -18 0 -19 -7 -15 -142z"/>
<path d="M183 978 c-18 -6 -33 -14 -33 -18 0 -4 12 -33 26 -64 19 -42 30 -56
42 -52 10 3 29 8 45 12 33 8 33 10 3 79 -26 57 -30 60 -83 43z"/>
</g>
</svg>
