<?xml version="1.0" standalone="no"?>
<!DOCTYPE svg PUBLIC "-//W3C//DTD SVG 20010904//EN"
 "http://www.w3.org/TR/2001/REC-SVG-20010904/DTD/svg10.dtd">
<svg version="1.0" xmlns="http://www.w3.org/2000/svg"
 width="101.000000pt" height="101.000000pt" viewBox="0 0 101.000000 101.000000"
 preserveAspectRatio="xMidYMid meet">
<metadata>
Created by potrace 1.16, written by Peter Selinger 2001-2019
</metadata>
<g transform="translate(0.000000,101.000000) scale(0.100000,-0.100000)"
fill="#000000" stroke="none">
<path d="M518 1003 c-19 -5 -34 -60 -25 -92 4 -18 -1 -19 -54 -18 -44 2 -62
-2 -69 -13 -28 -44 6 -73 81 -68 55 4 57 3 55 -20 -1 -18 -13 -30 -47 -48 -26
-13 -59 -25 -75 -28 -44 -8 -49 -21 -24 -60 12 -20 23 -36 26 -36 2 0 28 16
58 35 30 19 57 35 60 35 3 0 2 -16 -1 -35 -5 -30 -3 -35 20 -40 14 -4 35 -4
46 0 24 7 38 49 23 68 -10 12 -6 211 5 275 3 20 1 32 -6 32 -18 0 -25 2 -41 9
-8 4 -23 6 -32 4z"/>
<path d="M652 971 c-1 -13 2 -29 8 -36 6 -7 9 -67 7 -142 -3 -172 -1 -174 138
-176 61 -2 115 23 138 62 25 42 21 54 -22 77 l-39 21 -9 -31 c-12 -42 -48 -59
-93 -43 -29 10 -35 17 -35 40 -1 25 8 34 67 68 38 22 82 45 98 51 17 5 30 13
30 16 -1 9 -76 62 -88 62 -5 0 -15 -7 -22 -15 -7 -9 -29 -29 -49 -44 l-36 -29
2 51 c1 29 5 61 8 72 6 18 1 20 -47 20 -50 0 -54 -2 -56 -24z"/>
<path d="M180 977 c-14 -6 -27 -12 -29 -13 -2 -2 11 -31 28 -64 26 -53 28 -64
16 -76 -16 -16 -55 -19 -55 -4 0 6 -20 10 -45 10 -51 0 -70 -22 -60 -70 l6
-28 100 3 c98 3 100 3 93 -18 -16 -51 -63 -117 -134 -187 -63 -62 -75 -79 -68
-95 4 -11 12 -33 18 -49 10 -28 11 -28 32 -10 11 11 38 40 58 66 45 56 42 64
42 -137 0 -77 -5 -152 -10 -166 -15 -38 0 -54 49 -52 23 1 43 4 45 6 2 2 -1
40 -6 84 -6 44 -8 116 -5 159 3 44 6 90 6 104 l1 25 26 -30 c15 -17 34 -41 43
-55 l16 -25 37 28 c20 16 41 25 46 22 14 -9 13 -68 -2 -83 -8 -8 -8 -15 0 -25
13 -15 10 -143 -3 -183 -8 -25 11 -33 67 -26 35 4 37 6 31 31 -7 23 -7 40 -2
117 1 15 8 22 23 23 11 0 57 3 101 6 44 3 95 3 113 0 30 -6 32 -8 27 -38 -8
-44 -19 -53 -49 -39 -13 6 -33 8 -44 6 -19 -5 -19 -6 -1 -42 11 -20 19 -42 19
-48 0 -30 103 -14 140 22 13 13 19 74 19 222 0 64 1 123 5 177 2 37 -1 63 -8
67 -16 11 -114 10 -121 -1 -9 -15 -116 -26 -124 -13 -10 17 -180 20 -190 4 -6
-10 -16 -8 -46 9 l-37 22 -32 -37 c-29 -35 -33 -37 -45 -22 -12 14 -7 30 32
115 61 132 65 147 35 155 -13 3 -43 6 -68 6 l-45 1 35 15 c19 8 36 16 38 18 2
2 -11 31 -27 65 -33 64 -44 70 -91 48z m241 -454 c2 -16 2 -45 -1 -66 l-5 -38
-38 39 -38 39 31 27 c40 33 47 33 51 -1z m355 -11 c5 -4 10 -17 10 -29 0 -29
-33 -36 -141 -28 -44 3 -89 6 -100 6 -13 1 -20 9 -21 23 -1 19 3 21 52 19 30
-1 56 2 59 7 6 10 126 12 141 2z m-15 -117 c21 -5 26 -12 26 -35 0 -25 -5 -31
-31 -35 -17 -3 -67 -3 -111 0 -44 3 -89 6 -101 6 -16 1 -21 8 -21 30 0 22 4
28 16 24 9 -2 22 -1 30 4 15 10 153 14 192 6z"/>
</g>
</svg>
