<?xml version="1.0" standalone="no"?>
<!DOCTYPE svg PUBLIC "-//W3C//DTD SVG 20010904//EN"
 "http://www.w3.org/TR/2001/REC-SVG-20010904/DTD/svg10.dtd">
<svg version="1.0" xmlns="http://www.w3.org/2000/svg"
 width="101.000000pt" height="101.000000pt" viewBox="0 0 101.000000 101.000000"
 preserveAspectRatio="xMidYMid meet">
<metadata>
Created by potrace 1.16, written by Peter Selinger 2001-2019
</metadata>
<g transform="translate(0.000000,101.000000) scale(0.100000,-0.100000)"
fill="#000000" stroke="none">
<path d="M618 1003 c-10 -2 -15 -10 -11 -19 3 -8 2 -51 -2 -97 l-6 -82 -87 1
c-48 1 -94 4 -102 8 -21 8 -37 -5 -44 -34 -12 -50 13 -60 127 -49 l38 4 -58
-55 c-32 -31 -68 -62 -81 -70 l-23 -15 38 -29 37 -30 73 79 c57 61 73 74 73
57 0 -12 5 -22 10 -22 16 0 12 -70 -5 -76 -8 -3 -23 -25 -35 -49 l-21 -42 -73
1 c-80 1 -86 -1 -89 -32 -1 -19 -3 -19 -33 6 -18 15 -33 30 -33 34 -1 4 17 20
39 34 22 15 40 30 40 35 0 15 -71 63 -78 53 -4 -6 -18 -27 -30 -47 -13 -21
-27 -35 -31 -32 -18 10 10 96 58 180 57 101 62 120 29 112 -58 -14 -158 -19
-158 -8 0 7 -22 11 -59 11 -65 0 -78 -13 -66 -63 9 -33 42 -41 116 -26 33 6
62 9 65 7 10 -10 -98 -158 -151 -206 -44 -40 -53 -54 -49 -73 6 -25 12 -57 13
-74 1 -5 23 13 51 40 l50 49 0 -177 c0 -97 -1 -180 -2 -183 -5 -11 37 -22 63
-17 24 4 24 6 20 85 -2 60 0 83 10 90 11 7 11 11 2 15 -15 6 -18 73 -3 73 6 0
10 17 10 38 1 36 1 37 18 16 9 -11 24 -31 33 -45 l17 -24 25 23 c19 18 39 24
86 27 l62 3 -17 -27 c-9 -14 -23 -35 -31 -46 -7 -11 -13 -23 -13 -26 0 -4 34
-15 75 -25 41 -10 75 -21 75 -24 0 -8 -71 -30 -113 -36 -16 -2 -36 -9 -43 -15
-11 -9 -21 -9 -38 -1 -22 10 -66 6 -66 -5 0 -2 13 -24 30 -48 l30 -44 92 25
c51 14 123 39 159 55 l66 31 81 -50 80 -50 37 38 37 38 -28 15 c-16 7 -56 24
-89 37 -33 13 -62 25 -64 26 -2 2 12 33 30 69 31 60 36 65 59 59 83 -24 143
22 93 71 -13 14 -25 16 -57 9 -41 -8 -227 -7 -235 2 -2 2 6 15 18 28 21 22 21
25 5 34 -16 9 -15 10 4 16 23 8 30 40 12 51 -10 6 -14 85 -4 85 3 0 30 -27 61
-60 31 -34 75 -72 98 -86 l43 -24 36 36 c20 20 35 38 34 39 -2 1 -19 7 -38 15
-52 19 -126 68 -143 93 -14 21 -13 22 24 21 20 -1 42 -5 48 -8 6 -4 26 -4 45
0 37 6 52 29 42 62 -5 15 -20 17 -123 17 l-118 0 2 75 c0 41 4 82 7 91 5 10
-1 19 -19 27 -27 12 -29 13 -57 5z m86 -589 c14 -5 14 -9 0 -37 -32 -63 -38
-66 -99 -49 -30 8 -55 18 -55 22 0 19 44 60 59 56 9 -3 23 -1 31 4 17 11 42
13 64 4z"/>
<path d="M193 988 c-18 -6 -33 -14 -33 -19 0 -4 11 -30 25 -57 14 -28 25 -55
25 -62 0 -8 9 -10 28 -5 31 8 54 13 65 14 12 2 8 22 -19 82 -28 62 -34 65 -91
47z"/>
<path d="M754 915 l-42 -65 31 -15 31 -16 53 58 c29 31 53 58 53 59 0 5 -68
44 -76 43 -5 0 -28 -29 -50 -64z"/>
<path d="M447 947 l-27 -12 30 -45 c16 -25 30 -51 30 -57 0 -17 13 -16 56 2
l36 15 -19 32 c-52 87 -53 88 -106 65z"/>
</g>
</svg>
