<?xml version="1.0" standalone="no"?>
<!DOCTYPE svg PUBLIC "-//W3C//DTD SVG 20010904//EN"
 "http://www.w3.org/TR/2001/REC-SVG-20010904/DTD/svg10.dtd">
<svg version="1.0" xmlns="http://www.w3.org/2000/svg"
 width="101.000000pt" height="101.000000pt" viewBox="0 0 101.000000 101.000000"
 preserveAspectRatio="xMidYMid meet">
<metadata>
Created by potrace 1.16, written by Peter Selinger 2001-2019
</metadata>
<g transform="translate(0.000000,101.000000) scale(0.100000,-0.100000)"
fill="#000000" stroke="none">
<path d="M430 1003 c1 -4 7 -19 15 -33 26 -45 21 -48 -75 -42 -64 3 -90 1 -90
-7 0 -13 -67 -15 -72 -2 -2 8 -82 15 -123 12 -14 -1 -18 -58 -5 -66 13 -8 13
-62 0 -70 -5 -3 -10 -15 -10 -25 0 -14 10 -21 35 -26 19 -3 44 -4 54 -1 12 3
22 -1 25 -10 6 -15 36 -15 116 0 21 4 25 1 25 -19 0 -19 -7 -24 -37 -29 -20
-4 -45 -2 -56 4 -38 20 -81 -14 -66 -53 5 -14 52 -15 73 -2 6 4 29 5 51 1 30
-5 38 -11 37 -25 -1 -23 -31 -30 -97 -25 -45 4 -96 10 -115 15 -38 9 -59 -17
-48 -60 4 -16 11 -18 47 -14 78 10 149 12 168 5 16 -6 7 -13 -49 -38 -37 -17
-93 -36 -123 -43 -82 -19 -83 -20 -44 -63 l34 -37 62 25 c72 29 69 29 67 13
-5 -39 16 -43 102 -22 48 11 41 -15 -13 -46 -59 -34 -137 -59 -199 -65 -23 -2
-43 -6 -46 -9 -3 -3 10 -23 28 -44 l33 -40 62 23 c34 13 75 30 92 39 30 16 31
15 28 -9 -1 -13 -9 -31 -16 -40 -12 -14 -11 -22 5 -51 13 -24 24 -34 34 -30 9
3 57 22 108 43 l92 37 -4 34 c-2 19 -7 37 -9 40 -3 3 -33 -7 -66 -22 -34 -14
-63 -26 -65 -26 -2 0 -3 18 -2 40 1 35 8 46 48 80 52 44 86 55 50 17 l-22 -24
43 -43 c54 -55 162 -125 240 -157 33 -13 61 -23 62 -21 1 3 36 78 40 86 0 2
-30 14 -69 27 -88 28 -105 35 -105 44 0 9 86 51 105 51 26 0 29 23 5 42 -13
10 -25 29 -26 42 l-2 23 64 -24 c36 -12 69 -23 74 -23 9 0 64 89 58 95 -2 2
-26 6 -53 9 -89 9 -115 15 -168 39 -58 27 -60 26 68 30 39 1 80 -2 91 -6 17
-6 23 -3 27 13 13 49 -14 77 -58 60 -23 -9 -112 -13 -175 -9 -33 2 -39 36 -7
38 78 5 94 5 113 -2 25 -9 36 9 27 42 -4 17 -13 20 -57 20 -96 0 -101 1 -101
27 0 19 4 23 20 17 11 -4 29 -6 40 -4 11 1 32 2 47 3 15 0 29 7 32 13 7 19 -5
56 -18 54 -6 -1 -36 -1 -68 0 -51 1 -56 3 -51 21 4 14 14 20 32 20 14 0 49 3
77 6 l50 6 -4 -34 c-2 -23 2 -40 13 -51 17 -17 62 -22 81 -9 12 8 18 100 9
141 l-6 26 -179 0 c-170 0 -179 1 -186 20 -4 11 -8 29 -8 40 -1 17 -9 20 -59
23 -31 2 -57 -1 -57 -5z m-104 -186 l-1 -27 -60 6 c-33 4 -66 7 -72 7 -7 0
-13 10 -13 21 0 19 6 21 73 21 l74 0 -1 -28z m249 6 c0 -16 -4 -31 -10 -35 -5
-4 -43 -8 -82 -8 -63 0 -73 2 -73 18 0 38 14 43 135 50 27 2 31 -1 30 -25z
m11 -107 c-1 -21 -7 -25 -54 -30 -30 -4 -61 -2 -72 4 -10 5 -25 7 -33 4 -11
-4 -13 1 -10 18 4 22 10 23 88 26 82 2 83 2 81 -22z m-19 -86 c15 0 21 -6 20
-19 -1 -15 -12 -20 -54 -25 -30 -4 -62 -2 -73 4 -10 5 -25 8 -32 5 -9 -4 -14
2 -15 15 -1 15 3 20 15 16 9 -3 24 -1 32 5 8 5 31 7 50 4 19 -2 45 -5 57 -5z
m-63 -99 c3 -5 0 -9 -7 -8 -44 1 -49 -3 -42 -30 17 -65 16 -71 -25 -78 -22 -4
-47 -2 -59 5 -12 6 -25 8 -30 5 -5 -3 -19 -2 -30 3 -18 7 -13 13 45 55 36 26
69 45 75 42 5 -3 17 -1 26 4 22 13 40 14 47 2z m144 -52 l53 -46 -41 -13 c-31
-10 -46 -11 -65 -2 -14 6 -33 9 -42 6 -14 -5 -15 -4 -4 4 13 9 12 27 -5 83
-10 34 50 16 104 -32z m50 -124 c5 -4 -81 -65 -92 -65 -6 1 -29 17 -51 36 -26
23 -33 34 -20 30 11 -3 27 -1 35 4 12 8 117 4 128 -5z"/>
</g>
</svg>
