<?xml version="1.0" standalone="no"?>
<!DOCTYPE svg PUBLIC "-//W3C//DTD SVG 20010904//EN"
 "http://www.w3.org/TR/2001/REC-SVG-20010904/DTD/svg10.dtd">
<svg version="1.0" xmlns="http://www.w3.org/2000/svg"
 width="101.000000pt" height="103.000000pt" viewBox="0 0 101.000000 103.000000"
 preserveAspectRatio="xMidYMid meet">
<metadata>
Created by potrace 1.16, written by Peter Selinger 2001-2019
</metadata>
<g transform="translate(0.000000,103.000000) scale(0.100000,-0.100000)"
fill="#000000" stroke="none">
<path d="M485 1018 c-22 -6 -41 -12 -43 -13 -2 -2 3 -16 11 -32 l15 -28 -127
3 c-69 1 -150 5 -179 7 -63 6 -92 -7 -92 -40 0 -38 27 -58 69 -51 20 3 86 6
148 6 62 0 115 4 118 10 7 11 153 12 160 0 7 -12 153 -12 160 0 8 13 52 13 61
-1 4 -6 19 -9 37 -5 16 3 36 1 43 -5 16 -13 50 -3 58 17 3 9 3 26 0 38 -5 19
-14 24 -56 29 -28 4 -58 3 -67 -2 -9 -4 -65 -7 -126 -5 l-109 3 -11 37 c-12
43 -16 45 -70 32z"/>
<path d="M169 844 c-14 -4 -17 -20 -17 -89 0 -98 1 -99 99 -89 l67 6 -1 -25
c-2 -22 -8 -26 -44 -32 -24 -3 -48 -3 -55 1 -6 4 -23 8 -37 9 -14 1 -30 3 -36
5 -37 9 -62 -20 -48 -56 5 -14 78 -15 101 0 6 3 35 3 65 0 50 -6 55 -9 53 -30
-1 -19 -8 -25 -33 -30 -17 -3 -37 -3 -44 1 -6 5 -31 10 -54 11 -36 3 -43 1
-48 -17 -10 -39 2 -50 52 -45 25 2 54 7 64 11 9 4 28 4 41 1 34 -8 31 -53 -4
-60 -38 -8 -143 -5 -161 5 -23 11 -56 0 -62 -21 -7 -26 7 -42 34 -41 13 1 65
3 114 6 50 3 104 1 120 -3 l30 -9 -44 -22 c-60 -31 -158 -68 -201 -75 -59 -10
-94 -17 -97 -20 -2 -1 14 -22 36 -45 l38 -41 99 40 c54 22 99 40 99 40 7 0 0
-68 -7 -77 -8 -10 8 -93 19 -93 2 0 34 17 71 38 37 21 81 44 98 51 24 9 33 20
37 44 9 64 -2 69 -66 31 -45 -26 -59 -31 -63 -20 -3 8 -1 23 5 34 6 12 9 27 6
34 -5 15 87 82 119 86 69 8 196 11 215 4 20 -7 19 -10 -24 -42 -25 -19 -53
-35 -63 -36 -9 -2 -33 13 -53 32 -36 35 -37 36 -67 20 -17 -9 -33 -20 -37 -25
-8 -14 87 -87 165 -126 61 -31 171 -69 226 -79 17 -3 27 1 35 17 6 12 23 34
37 49 24 26 24 28 6 29 -39 3 -133 15 -179 23 -11 2 -28 4 -37 5 -33 2 -18 18
37 42 30 13 55 27 55 31 0 3 -16 16 -35 28 -19 12 -35 23 -35 25 0 4 42 6 114
5 64 0 80 10 69 45 -9 30 -22 34 -64 20 -24 -9 -63 -12 -101 -9 -35 2 -72 5
-83 5 -29 2 -30 46 -1 48 52 4 93 2 122 -4 35 -8 47 7 37 45 -5 19 -10 21 -37
15 -29 -6 -72 -8 -121 -4 -14 1 -20 9 -21 26 -2 18 2 23 13 19 8 -3 23 -1 34
5 13 7 42 7 91 0 78 -11 93 -4 81 34 -9 31 -19 33 -81 17 -43 -11 -64 -12 -85
-4 -16 6 -34 9 -40 6 -7 -2 -13 6 -13 20 -2 26 2 27 107 27 l56 -1 -5 50 c-3
33 -1 50 7 50 6 0 11 14 11 30 0 23 -6 33 -24 40 -31 11 -124 11 -132 -1 -7
-12 -51 -11 -59 1 -7 12 -94 13 -112 2 -9 -6 -13 -35 -12 -90 1 -87 1 -88 55
-83 17 1 22 -4 20 -23 -1 -21 -7 -24 -59 -30 -33 -3 -67 -1 -77 4 -10 5 -25 8
-32 5 -8 -3 -14 4 -14 21 -2 18 2 24 12 20 32 -12 40 3 36 75 -3 52 -1 74 9
80 20 12 3 23 -34 21 -84 -3 -204 -3 -222 2 -11 2 -27 2 -36 0z m207 -95 c-1
-31 -1 -31 -45 -25 -24 3 -52 6 -62 6 -12 0 -19 7 -19 19 0 20 3 21 106 29 18
2 21 -3 20 -29z m380 5 c-1 -24 -2 -24 -81 -22 -72 3 -80 5 -81 23 -1 18 5 20
81 22 82 1 83 1 81 -23z m-195 -184 c22 0 27 -4 25 -24 -1 -21 -7 -24 -59 -30
-33 -3 -67 -1 -77 4 -10 5 -25 8 -32 5 -8 -3 -14 4 -14 20 -2 20 2 24 15 21 9
-3 23 -1 31 5 8 5 31 7 50 4 19 -2 47 -5 61 -5z m0 -100 c22 0 27 -4 25 -24
-1 -21 -7 -24 -59 -30 -33 -3 -67 -1 -77 4 -10 5 -25 8 -32 5 -8 -3 -14 4 -14
20 -2 20 2 24 15 21 9 -3 23 -1 31 5 8 5 31 7 50 4 19 -2 47 -5 61 -5z"/>
</g>
</svg>
