<?xml version="1.0" standalone="no"?>
<!DOCTYPE svg PUBLIC "-//W3C//DTD SVG 20010904//EN"
 "http://www.w3.org/TR/2001/REC-SVG-20010904/DTD/svg10.dtd">
<svg version="1.0" xmlns="http://www.w3.org/2000/svg"
 width="101.000000pt" height="101.000000pt" viewBox="0 0 101.000000 101.000000"
 preserveAspectRatio="xMidYMid meet">
<metadata>
Created by potrace 1.16, written by Peter Selinger 2001-2019
</metadata>
<g transform="translate(0.000000,101.000000) scale(0.100000,-0.100000)"
fill="#000000" stroke="none">
<path d="M180 1003 c-8 -3 -25 -10 -38 -14 -23 -9 -23 -9 -5 -37 25 -36 44
-82 39 -91 -3 -4 -1 -12 3 -19 6 -10 16 -9 47 2 46 16 47 27 10 110 -25 56
-28 59 -56 49z"/>
<path d="M397 1003 c-14 -4 -17 -13 -13 -56 l4 -52 -38 1 c-33 2 -39 -2 -45
-23 -11 -45 2 -64 41 -60 19 3 34 1 34 -3 0 -5 -25 -34 -55 -66 l-55 -59 22
-17 c32 -24 39 -23 70 14 l26 33 -3 -35 c-2 -19 -4 -39 -5 -45 -5 -22 1 -35
16 -35 8 0 13 -4 10 -9 -8 -12 -54 -7 -89 10 -26 12 -30 11 -50 -15 l-22 -27
5 73 c4 47 13 88 28 115 12 23 22 46 22 50 0 4 -55 9 -123 11 l-122 3 0 -48
c1 -47 2 -48 30 -46 17 2 46 4 66 5 l37 3 -19 -36 c-25 -49 -84 -129 -120
-160 l-30 -26 24 -42 24 -42 39 48 c21 26 41 52 45 57 4 4 8 -3 8 -15 4 -57 2
-228 -2 -269 -3 -25 -2 -64 0 -87 6 -45 20 -55 67 -46 21 4 25 9 20 28 -3 13
-1 32 5 43 8 15 7 31 -4 62 -10 27 -13 64 -10 108 3 37 6 78 6 90 l1 24 29
-28 c28 -27 29 -27 49 -9 27 25 25 38 -11 59 -36 21 -34 30 9 58 25 15 33 17
32 7 -6 -41 21 -55 70 -36 22 8 33 8 41 0 12 -12 -82 -85 -137 -105 -19 -7
-34 -15 -34 -18 0 -4 13 -19 29 -34 26 -25 32 -26 52 -16 13 7 32 20 42 28 16
14 17 14 16 -4 -5 -52 22 -75 63 -53 26 14 98 1 98 -16 0 -18 -50 -26 -125
-20 -117 10 -109 11 -119 -20 -8 -28 7 -47 35 -46 56 3 156 10 179 13 21 3 25
-1 25 -22 0 -32 -12 -40 -49 -33 -26 5 -28 4 -21 -13 4 -10 10 -29 12 -41 6
-27 33 -34 78 -19 49 17 55 25 57 78 l2 46 56 -4 c30 -2 64 -4 75 -4 72 3 85
5 89 16 3 7 2 21 0 31 -5 18 -15 20 -92 21 -121 1 -132 2 -132 17 0 13 14 16
92 17 49 1 61 11 51 47 -6 25 -28 29 -108 17 -25 -4 -31 -1 -32 15 -1 15 3 19
16 14 9 -3 25 1 35 8 18 13 18 15 1 40 -19 29 -44 34 -74 15 -15 -9 -26 -9
-45 0 -14 6 -34 9 -43 5 -17 -6 -17 -5 0 14 10 12 28 21 40 21 12 1 36 4 53 7
28 6 35 2 70 -40 35 -42 141 -131 171 -142 11 -4 72 54 73 70 0 4 -8 7 -17 7
-23 0 -112 52 -136 78 -21 23 -21 23 75 24 50 1 62 15 51 59 -5 18 -10 20 -37
13 -26 -7 -156 -9 -244 -3 -21 1 -22 2 -8 18 9 10 13 20 10 24 -3 3 6 13 20
22 14 10 26 23 26 31 0 8 6 11 16 7 11 -4 24 3 36 18 17 20 19 21 13 4 -24
-70 -10 -115 35 -115 36 0 53 29 47 84 l-4 50 28 -32 c29 -32 30 -32 54 -15
34 25 31 37 -16 88 -29 31 -45 42 -53 36 -8 -7 -12 -4 -12 8 0 18 18 22 32 8
22 -22 64 11 64 48 0 30 -32 49 -69 42 -27 -6 -27 -5 -27 41 l1 46 -43 1 c-40
0 -42 -2 -48 -32 -3 -18 -4 -40 0 -48 3 -9 2 -13 -4 -10 -15 9 -48 -4 -52 -21
-3 -13 -5 -13 -23 1 -20 15 -19 16 15 45 33 29 33 30 15 45 -28 21 -56 29 -64
18 -3 -5 -14 -20 -23 -32 l-17 -23 -31 22 -32 23 -25 -25 -25 -26 31 -18 c23
-14 28 -21 19 -31 -14 -17 -28 -16 -28 2 0 10 -7 14 -22 11 -22 -4 -23 -1 -20
43 3 43 1 48 -23 59 -14 7 -27 11 -28 11 -1 -1 -10 -3 -20 -6z m227 -198 c-15
-23 -17 -23 -40 -9 l-24 16 23 18 c16 13 27 15 39 9 17 -9 17 -12 2 -34z m94
14 c9 -1 21 -1 25 0 11 2 -7 -28 -41 -68 -19 -23 -33 -32 -42 -26 -10 6 -5 15
21 36 l34 27 -28 13 c-26 12 -26 13 -10 32 16 17 18 17 21 3 2 -9 11 -17 20
-17z m-188 -24 c-21 -22 -24 -23 -46 -8 -31 20 -31 31 1 25 19 -3 25 0 25 12
0 14 4 15 21 5 l21 -11 -22 -23z m20 -65 c0 -5 -13 -19 -30 -32 -16 -12 -30
-25 -30 -28 0 -8 52 -34 63 -32 11 3 8 -12 -8 -35 -17 -24 -85 -40 -111 -25
-16 9 -15 10 4 16 26 8 36 40 30 95 -3 33 -1 37 13 28 13 -8 21 -6 34 6 18 19
35 22 35 7z m80 -80 c9 -17 7 -17 -20 -7 -22 8 -27 14 -18 24 12 15 24 10 38
-17z m-112 -237 c6 -10 22 -16 41 -16 19 0 31 -5 31 -14 0 -10 -13 -11 -52 -7
-29 4 -64 6 -78 6 l-25 0 30 24 c36 28 41 29 53 7z"/>
</g>
</svg>
