<?xml version="1.0" standalone="no"?>
<!DOCTYPE svg PUBLIC "-//W3C//DTD SVG 20010904//EN"
 "http://www.w3.org/TR/2001/REC-SVG-20010904/DTD/svg10.dtd">
<svg version="1.0" xmlns="http://www.w3.org/2000/svg"
 width="101.000000pt" height="101.000000pt" viewBox="0 0 101.000000 101.000000"
 preserveAspectRatio="xMidYMid meet">
<metadata>
Created by potrace 1.16, written by Peter Selinger 2001-2019
</metadata>
<g transform="translate(0.000000,101.000000) scale(0.100000,-0.100000)"
fill="#000000" stroke="none">
<path d="M88 984 c-18 -6 -31 -44 -22 -68 10 -27 114 -32 114 -5 0 5 16 9 35
9 19 0 35 -5 35 -11 0 -7 19 -10 53 -7 l52 3 0 -32 0 -33 -73 5 c-39 2 -77 7
-83 10 -5 4 -21 4 -35 1 -24 -6 -25 -10 -23 -75 1 -38 -2 -74 -6 -80 -4 -7 -4
-23 -1 -36 5 -21 10 -23 43 -18 21 3 81 5 133 5 52 -1 124 -1 160 -1 36 1 135
0 220 0 l156 -1 -1 100 c0 96 -1 101 -23 107 -12 3 -36 0 -52 -7 -36 -15 -130
-4 -130 15 0 7 -2 19 -5 27 -4 10 24 13 145 13 134 0 151 2 156 18 3 9 3 25 0
35 -5 15 -25 17 -228 17 -123 0 -228 -3 -233 -7 -16 -10 -173 -9 -180 2 -3 5
-29 9 -58 8 -29 0 -70 2 -92 5 -22 3 -47 3 -57 1z m464 -108 l3 -31 -60 0 -60
0 0 30 c0 30 1 30 57 31 56 2 56 2 60 -30z m-196 -133 l-1 -32 -65 2 c-65 2
-65 2 -66 32 l0 30 66 0 66 0 0 -32z m200 2 c-1 -29 -6 -37 -24 -42 -13 -3
-34 -1 -48 5 -13 7 -30 9 -37 6 -10 -4 -13 3 -9 25 4 27 8 30 46 34 22 2 48 4
57 5 12 2 15 -7 15 -33z m209 0 c0 -31 -3 -36 -31 -41 -18 -3 -41 -1 -52 5
-11 6 -27 9 -35 6 -10 -5 -13 1 -9 24 4 28 7 30 56 34 28 2 56 4 61 5 6 1 10
-14 10 -33z"/>
<path d="M185 548 c13 -107 13 -154 3 -186 -15 -49 -22 -47 127 -37 110 8 143
1 141 -29 -1 -23 -4 -23 -121 -29 -113 -5 -166 -4 -242 6 -24 3 -33 -1 -36
-15 -11 -41 10 -67 48 -58 39 10 87 13 208 12 76 0 141 -3 144 -6 3 -3 1 -18
-5 -34 -21 -61 4 -96 60 -85 20 4 25 11 26 41 3 76 4 80 26 81 11 0 62 3 111
6 60 4 108 1 142 -8 87 -23 129 -8 116 42 -5 20 -11 21 -177 20 -214 -1 -211
-2 -212 26 -1 17 4 23 20 24 11 0 57 3 101 6 44 3 91 1 105 -4 l25 -8 1 101
c1 55 4 120 7 144 l6 42 -41 -6 c-23 -4 -71 -7 -107 -6 -83 1 -170 1 -291 0
-52 0 -117 3 -143 6 l-48 6 6 -52z m437 -19 c79 0 87 -1 85 -19 -1 -21 9 -20
-277 -21 -144 0 -146 0 -147 23 -1 14 3 17 15 14 9 -3 24 -1 32 4 8 5 57 7
110 4 52 -2 134 -4 182 -5z m-1 -100 c85 0 87 0 85 -24 -1 -27 18 -25 -276
-26 -147 0 -145 0 -146 28 -2 18 2 22 15 19 9 -3 23 -1 31 4 8 5 57 7 110 4
52 -2 134 -4 181 -5z"/>
</g>
</svg>
