<?xml version="1.0" standalone="no"?>
<!DOCTYPE svg PUBLIC "-//W3C//DTD SVG 20010904//EN"
 "http://www.w3.org/TR/2001/REC-SVG-20010904/DTD/svg10.dtd">
<svg version="1.0" xmlns="http://www.w3.org/2000/svg"
 width="101.000000pt" height="101.000000pt" viewBox="0 0 101.000000 101.000000"
 preserveAspectRatio="xMidYMid meet">
<metadata>
Created by potrace 1.16, written by Peter Selinger 2001-2019
</metadata>
<g transform="translate(0.000000,101.000000) scale(0.100000,-0.100000)"
fill="#000000" stroke="none">
<path d="M240 992 c-11 -5 -15 -26 -15 -87 l0 -81 -55 4 c-63 3 -76 -3 -85
-39 -8 -31 17 -61 49 -58 11 0 35 1 53 0 31 -1 31 -2 35 -59 l3 -59 -75 3
c-79 3 -90 -3 -90 -43 0 -42 27 -56 95 -48 l61 6 -3 -40 c-6 -81 -42 -152
-113 -223 l-67 -67 45 -31 45 -32 26 32 c51 64 102 146 113 182 6 21 15 38 19
38 4 0 32 -27 61 -60 29 -33 57 -60 63 -60 13 1 65 47 65 58 0 5 -37 40 -82
78 -51 42 -84 77 -85 90 -2 19 4 22 67 28 75 8 87 19 74 70 -6 24 -9 25 -67
23 l-62 -2 0 57 0 57 57 6 c44 5 59 11 63 26 15 46 -13 69 -82 69 -30 0 -31 1
-35 53 -2 28 -1 63 4 76 5 13 7 26 5 28 -9 8 -73 12 -87 5z"/>
<path d="M466 922 c-8 -31 -5 -91 4 -97 13 -8 11 -167 -2 -183 -11 -12 -4
-209 7 -221 7 -6 74 -5 81 2 5 5 6 50 2 262 l-3 170 125 2 125 2 -3 -106 c-1
-64 2 -111 8 -118 7 -9 9 -47 4 -113 -6 -94 -6 -99 14 -104 11 -3 31 -4 44 -1
22 4 24 10 26 74 2 43 -1 69 -8 69 -5 0 -10 11 -10 25 0 14 5 25 10 25 6 0 10
30 10 70 0 40 -4 70 -10 70 -5 0 -10 16 -10 35 0 19 5 35 10 35 6 0 10 26 10
59 l0 59 -74 1 c-41 1 -77 -3 -81 -8 -7 -12 -172 -13 -180 -1 -3 4 -25 8 -50
8 -33 0 -45 -4 -49 -16z"/>
<path d="M628 777 c-1 -6 -3 -61 -3 -122 -1 -139 -9 -184 -40 -254 -49 -105
-127 -164 -273 -207 -8 -2 3 -19 30 -45 l43 -40 59 28 c85 40 165 121 208 212
26 54 36 67 38 50 1 -13 3 -69 4 -124 2 -55 4 -105 5 -111 0 -7 19 -19 41 -28
32 -12 46 -14 62 -5 11 6 33 8 48 5 41 -8 76 24 95 86 8 28 14 52 12 53 -12
11 -90 45 -93 42 -3 -2 -7 -22 -10 -43 -5 -42 -9 -49 -39 -58 -38 -11 -50 8
-48 81 1 75 6 116 17 151 6 19 4 22 -21 24 -15 0 -36 1 -45 0 -20 -2 -22 7 -8
40 9 24 31 260 24 267 -2 3 -27 6 -54 8 -34 2 -51 -1 -52 -10z"/>
</g>
</svg>
