<?xml version="1.0" standalone="no"?>
<!DOCTYPE svg PUBLIC "-//W3C//DTD SVG 20010904//EN"
 "http://www.w3.org/TR/2001/REC-SVG-20010904/DTD/svg10.dtd">
<svg version="1.0" xmlns="http://www.w3.org/2000/svg"
 width="101.000000pt" height="101.000000pt" viewBox="0 0 101.000000 101.000000"
 preserveAspectRatio="xMidYMid meet">
<metadata>
Created by potrace 1.16, written by Peter Selinger 2001-2019
</metadata>
<g transform="translate(0.000000,101.000000) scale(0.100000,-0.100000)"
fill="#000000" stroke="none">
<path d="M213 994 l-41 -15 33 -72 c36 -77 45 -82 107 -58 l28 10 -33 72 c-18
40 -37 74 -42 75 -6 1 -29 -4 -52 -12z"/>
<path d="M448 964 c-19 -6 -34 -57 -22 -76 4 -7 7 -25 6 -40 -1 -14 2 -29 8
-33 12 -8 12 -173 -1 -181 -6 -3 -9 -25 -8 -48 1 -22 -1 -48 -4 -56 -3 -8 -7
-26 -9 -39 -3 -21 -8 -16 -41 37 -21 34 -40 62 -43 62 -3 0 -18 -7 -34 -15
-37 -19 -38 -7 -6 43 38 61 98 184 92 190 -3 3 -77 7 -165 9 -158 3 -159 3
-165 -19 -9 -35 -7 -45 11 -63 14 -15 30 -16 111 -10 l95 7 -32 -43 c-55 -76
-134 -164 -178 -199 -42 -34 -42 -34 -24 -59 10 -14 21 -34 24 -43 12 -33 18
-28 116 94 3 4 5 -48 4 -115 -2 -67 -2 -133 -2 -147 0 -14 0 -46 0 -72 1 -51
10 -59 66 -51 30 5 31 7 32 52 0 25 0 57 0 71 0 14 0 87 -2 163 -2 146 3 155
40 65 8 -21 16 -38 18 -38 2 0 22 9 46 19 36 17 44 17 56 5 15 -15 71 -19 88
-6 14 10 19 282 6 282 -6 0 -11 16 -11 35 0 19 5 35 10 35 6 0 10 18 10 40 0
42 5 45 67 41 11 -1 24 3 28 8 7 12 51 14 105 5 l35 -6 -3 -113 c-2 -71 1
-116 8 -120 13 -8 13 -52 -1 -61 -11 -6 -8 -129 4 -140 10 -10 73 -14 86 -5
18 12 30 181 12 181 -7 0 -11 27 -11 80 0 47 4 80 10 80 6 0 10 18 10 40 0 22
-5 40 -11 40 -7 0 -10 21 -7 60 3 56 2 59 -17 53 -11 -4 -35 -7 -52 -5 -32 2
-87 2 -215 0 -35 0 -76 2 -93 5 -16 3 -38 3 -47 1z"/>
<path d="M618 823 c-16 -4 -17 -7 -18 -212 -1 -25 -4 -50 -9 -55 -5 -6 -9 -26
-9 -45 0 -19 -17 -68 -37 -108 -43 -87 -119 -166 -194 -203 -28 -14 -50 -27
-50 -30 1 -8 89 -70 100 -70 22 0 176 167 206 224 35 67 33 71 36 -81 2 -101
14 -126 58 -124 13 1 65 3 115 4 63 2 97 7 109 17 20 17 54 86 55 111 0 19
-99 74 -101 56 -5 -43 -7 -54 -13 -73 -9 -30 -48 -49 -74 -35 -11 6 -27 8 -36
5 -34 -13 -42 76 -19 228 4 30 1 38 -16 48 -12 6 -31 8 -42 5 -18 -6 -19 -4
-10 13 6 11 8 22 5 25 -3 3 -1 14 5 26 6 11 14 51 16 88 7 92 12 125 20 145 4
11 0 20 -15 28 -12 6 -24 9 -27 6 -3 -3 -13 -2 -22 3 -9 4 -23 6 -33 4z"/>
</g>
</svg>
