<?xml version="1.0" standalone="no"?>
<!DOCTYPE svg PUBLIC "-//W3C//DTD SVG 20010904//EN"
 "http://www.w3.org/TR/2001/REC-SVG-20010904/DTD/svg10.dtd">
<svg version="1.0" xmlns="http://www.w3.org/2000/svg"
 width="101.000000pt" height="101.000000pt" viewBox="0 0 101.000000 101.000000"
 preserveAspectRatio="xMidYMid meet">
<metadata>
Created by potrace 1.16, written by Peter Selinger 2001-2019
</metadata>
<g transform="translate(0.000000,101.000000) scale(0.100000,-0.100000)"
fill="#000000" stroke="none">
<path d="M518 963 c0 -10 0 -25 1 -33 1 -8 2 -64 1 -124 0 -65 5 -114 11 -122
8 -9 9 -41 4 -96 l-7 -82 -36 69 c-28 56 -35 80 -33 120 1 28 6 54 12 60 5 5
9 12 9 15 0 12 -44 27 -75 26 -28 -1 -30 -4 -33 -41 -7 -103 -17 -164 -34
-215 l-12 -35 -7 45 c-11 69 -10 178 1 185 6 4 9 32 8 63 l-3 57 82 0 c90 -1
101 6 88 58 -6 22 -10 24 -51 19 -27 -3 -50 0 -59 8 -9 8 -25 10 -42 5 -31 -9
-96 -9 -191 0 -75 7 -102 -5 -102 -43 0 -46 9 -51 100 -49 l85 2 -2 -95 c-1
-52 3 -107 8 -122 7 -16 8 -43 4 -65 l-8 -38 -26 60 c-27 59 -28 90 -6 161 5
18 1 23 -22 29 -15 5 -39 8 -53 9 -22 1 -25 -4 -28 -34 -2 -34 -8 -91 -17
-177 -3 -23 -16 -72 -29 -109 -14 -38 -24 -69 -23 -71 1 -1 14 -4 27 -6 14 -3
32 -7 40 -9 10 -2 20 19 36 77 12 44 23 78 24 75 3 -6 9 -43 14 -80 2 -14 4
-29 5 -34 0 -4 9 -5 19 -1 9 4 23 10 31 13 10 4 13 1 8 -11 -3 -8 -1 -29 6
-46 13 -36 5 -47 -38 -55 -16 -3 -41 -8 -55 -11 -14 -3 -42 -8 -64 -10 -21 -2
-40 -5 -42 -7 -2 -3 24 -91 33 -106 1 -2 34 8 75 21 80 28 144 46 186 52 82
14 162 40 163 54 1 9 2 31 4 49 2 26 -1 32 -14 28 -25 -8 -165 -46 -168 -46
-1 0 -1 18 0 40 1 42 7 46 37 30 16 -8 20 -2 36 58 9 37 20 71 24 75 4 4 13
-20 20 -53 14 -65 16 -66 73 -44 12 4 14 0 10 -14 -5 -23 17 -31 64 -25 l31 5
1 74 c1 44 -3 74 -9 74 -5 0 -10 11 -10 25 0 14 5 25 10 25 6 0 10 30 10 70 0
40 -4 70 -10 70 -5 0 -10 11 -10 25 0 14 5 25 10 25 6 0 10 18 10 40 0 37 2
40 28 40 15 0 56 3 92 6 l65 6 2 -128 c1 -71 2 -145 3 -164 1 -19 -1 -65 -4
-101 -6 -74 0 -81 60 -72 l29 5 3 246 c1 136 3 255 3 266 0 27 -6 30 -42 17
-40 -14 -109 -14 -109 -1 0 6 -18 10 -40 10 -22 0 -40 -4 -40 -10 0 -5 -25
-10 -55 -10 -30 0 -55 5 -55 10 0 18 -40 11 -42 -7z"/>
<path d="M669 848 c0 -2 -2 -56 -4 -121 -3 -65 -7 -122 -10 -127 -3 -5 0 -20
6 -34 9 -18 9 -29 1 -39 -6 -7 -14 -28 -17 -47 -18 -104 -105 -213 -223 -280
-34 -19 -61 -37 -61 -40 0 -3 21 -20 46 -38 44 -32 45 -33 71 -16 48 31 160
151 190 205 34 58 34 56 32 -64 0 -37 4 -76 10 -86 15 -29 99 -50 156 -40 26
5 56 16 65 25 16 15 56 113 48 117 -2 1 -24 12 -47 25 -24 13 -45 22 -48 20
-4 -4 -12 -44 -13 -65 -1 -18 -39 -35 -61 -28 -24 8 -45 77 -34 114 4 14 8 40
10 56 1 17 4 37 6 45 2 9 -9 18 -30 25 -28 8 -32 13 -27 35 7 36 15 122 20
217 2 46 6 92 10 103 5 15 0 22 -20 30 -24 9 -74 14 -76 8z"/>
</g>
</svg>
