<?xml version="1.0" standalone="no"?>
<!DOCTYPE svg PUBLIC "-//W3C//DTD SVG 20010904//EN"
 "http://www.w3.org/TR/2001/REC-SVG-20010904/DTD/svg10.dtd">
<svg version="1.0" xmlns="http://www.w3.org/2000/svg"
 width="101.000000pt" height="102.000000pt" viewBox="0 0 101.000000 102.000000"
 preserveAspectRatio="xMidYMid meet">
<metadata>
Created by potrace 1.16, written by Peter Selinger 2001-2019
</metadata>
<g transform="translate(0.000000,102.000000) scale(0.100000,-0.100000)"
fill="#000000" stroke="none">
<path d="M328 1012 c-15 -6 -16 -24 -14 -164 2 -86 -1 -162 -5 -169 -4 -7 -3
-21 2 -31 12 -23 81 -25 103 -2 19 19 20 26 4 42 -18 18 6 16 43 -4 17 -8 35
-14 40 -12 5 2 26 32 46 67 l38 65 56 -3 c33 -1 60 2 64 8 8 14 52 14 60 1 7
-11 39 -12 117 -3 39 4 47 8 53 30 11 44 -17 85 -46 67 -6 -3 -68 -6 -138 -7
l-129 -2 19 37 c10 20 24 39 31 41 25 11 -21 36 -58 31 -19 -2 -34 0 -34 6 0
5 -4 10 -9 10 -4 0 -14 -21 -21 -47 -16 -61 -83 -199 -114 -237 l-25 -30 4
131 c3 71 7 137 11 146 10 27 -55 46 -98 29z"/>
<path d="M128 979 c-13 -7 -18 -23 -18 -54 0 -25 5 -45 10 -45 6 0 10 -16 10
-35 0 -19 -4 -35 -10 -35 -11 0 -13 -126 -2 -150 5 -10 22 -15 54 -16 52 0 63
11 48 51 -5 13 -7 66 -4 117 5 107 7 118 18 136 10 17 3 24 -26 28 -13 2 -32
6 -43 9 -11 2 -28 0 -37 -6z"/>
<path d="M633 769 c-18 -12 -33 -25 -33 -30 0 -5 17 -17 38 -28 20 -10 57 -36
80 -57 l44 -39 -39 -3 c-39 -3 -453 -2 -508 1 l-30 2 -3 -135 c-1 -74 -3 -145
-3 -158 -1 -13 2 -26 5 -30 7 -6 96 -6 102 1 2 1 -2 34 -9 72 -9 54 -9 69 1
73 7 2 12 21 12 43 l0 39 55 0 c30 0 55 5 55 10 0 6 16 10 35 10 19 0 35 -4
35 -10 0 -14 77 -13 82 1 3 8 23 9 63 5 l60 -7 -1 -115 c-1 -125 -5 -119 66
-114 42 3 51 15 39 48 -8 20 -6 157 4 249 1 12 17 33 35 46 l33 25 -38 29
c-56 44 -130 93 -140 93 -4 0 -23 -10 -40 -21z"/>
<path d="M428 493 c-19 -5 -20 -6 -24 -43 -8 -89 -28 -135 -76 -175 -58 -49
-125 -72 -231 -80 -27 -2 -51 -5 -53 -8 -7 -7 47 -97 58 -97 26 0 158 45 213
72 77 38 109 69 145 141 26 51 30 56 39 38 6 -10 9 -54 7 -98 -2 -43 0 -85 5
-94 12 -24 66 -41 90 -29 10 6 69 8 141 6 140 -5 155 0 187 62 35 69 35 79 2
87 -16 3 -37 15 -47 26 -25 27 -31 24 -39 -21 -4 -22 -13 -47 -20 -54 -21 -21
-138 -40 -163 -27 -11 6 -27 9 -34 6 -24 -9 -51 30 -44 62 4 15 8 40 10 55 1
15 9 34 16 43 15 18 15 18 -32 32 -45 13 -78 7 -79 -16 0 -9 -3 -11 -5 -5 -3
6 2 31 10 55 8 24 14 44 13 44 -1 1 -15 6 -30 13 -29 12 -31 13 -59 5z"/>
</g>
</svg>
