<?xml version="1.0" standalone="no"?>
<!DOCTYPE svg PUBLIC "-//W3C//DTD SVG 20010904//EN"
 "http://www.w3.org/TR/2001/REC-SVG-20010904/DTD/svg10.dtd">
<svg version="1.0" xmlns="http://www.w3.org/2000/svg"
 width="101.000000pt" height="101.000000pt" viewBox="0 0 101.000000 101.000000"
 preserveAspectRatio="xMidYMid meet">
<metadata>
Created by potrace 1.16, written by Peter Selinger 2001-2019
</metadata>
<g transform="translate(0.000000,101.000000) scale(0.100000,-0.100000)"
fill="#000000" stroke="none">
<path d="M188 1003 c-13 -3 -17 -15 -16 -54 0 -27 4 -51 9 -54 12 -8 10 -167
-3 -182 -5 -7 -8 -34 -6 -60 l3 -48 -55 0 -55 0 -1 -215 c-2 -238 -4 -233 64
-223 33 5 39 19 34 77 -2 13 2 16 14 12 8 -3 25 -1 36 5 26 14 91 3 85 -15
-11 -29 13 -41 73 -38 l25 2 2 199 2 200 -67 -2 -67 -2 0 87 0 88 63 0 c34 0
71 -6 82 -12 17 -11 22 -10 30 2 11 17 14 -1 11 -90 0 -30 4 -72 10 -92 10
-31 9 -45 -5 -82 -28 -72 -9 -99 61 -89 36 6 47 31 32 71 -6 14 -7 43 -4 63 4
21 2 40 -3 43 -14 8 -14 146 -1 162 6 8 9 35 7 61 l-3 48 113 0 112 0 0 -42
c0 -24 5 -43 10 -43 6 0 10 -11 10 -25 0 -14 -4 -25 -10 -25 -6 0 -10 -30 -10
-70 0 -40 4 -70 10 -70 6 0 10 -11 10 -25 0 -14 -4 -25 -10 -25 -13 0 -13 -90
0 -110 11 -17 90 -17 101 1 4 7 4 22 -1 33 -4 12 -6 128 -4 258 l3 236 -32 5
c-17 4 -50 4 -72 1 -48 -6 -184 -5 -240 2 -22 3 -53 1 -69 -6 -28 -10 -29 -12
-23 -70 5 -54 4 -58 -11 -44 -11 12 -25 14 -51 9 -20 -4 -54 -8 -76 -9 l-40
-1 1 50 c1 28 5 62 9 76 5 22 3 27 -17 33 -25 6 -44 6 -70 -1z m112 -523 c0
-23 5 -40 11 -40 12 0 8 -85 -4 -97 -6 -5 -73 -7 -124 -3 -21 2 -22 6 -20 86
l2 83 60 4 c33 2 63 4 68 5 4 1 7 -16 7 -38z"/>
<path d="M618 810 c-19 -12 -25 -70 -8 -70 13 0 12 -124 -1 -175 -6 -22 -12
-52 -14 -67 -13 -113 -128 -262 -249 -325 l-31 -16 25 -16 c14 -9 33 -24 43
-34 13 -13 22 -15 35 -8 35 20 162 158 195 214 27 45 35 52 36 35 1 -13 2 -58
4 -100 2 -86 23 -121 68 -118 13 1 58 1 100 0 74 -1 77 0 102 30 23 27 55 108
45 114 -2 1 -24 15 -50 30 -52 29 -49 31 -52 -35 -1 -39 -28 -58 -74 -55 -47
3 -62 31 -57 106 5 75 12 127 19 138 8 13 -40 33 -60 25 -13 -5 -15 -3 -6 13
11 21 11 23 16 165 2 53 7 106 10 117 4 11 3 23 -1 25 -20 12 -80 16 -95 7z"/>
</g>
</svg>
