<?xml version="1.0" standalone="no"?>
<!DOCTYPE svg PUBLIC "-//W3C//DTD SVG 20010904//EN"
 "http://www.w3.org/TR/2001/REC-SVG-20010904/DTD/svg10.dtd">
<svg version="1.0" xmlns="http://www.w3.org/2000/svg"
 width="101.000000pt" height="101.000000pt" viewBox="0 0 101.000000 101.000000"
 preserveAspectRatio="xMidYMid meet">
<metadata>
Created by potrace 1.16, written by Peter Selinger 2001-2019
</metadata>
<g transform="translate(0.000000,101.000000) scale(0.100000,-0.100000)"
fill="#000000" stroke="none">
<path d="M317 959 c-45 -80 -121 -164 -194 -215 -38 -26 -70 -49 -73 -51 -2
-3 13 -19 35 -38 l40 -34 40 40 c23 21 43 39 45 39 8 0 4 -289 -4 -344 -10
-70 -29 -109 -81 -165 l-47 -50 29 -7 c15 -3 39 -13 52 -22 24 -15 26 -14 63
27 34 39 78 132 78 165 0 8 19 15 53 19 28 4 70 9 92 13 l40 6 0 -115 c0 -128
-1 -127 66 -119 l36 4 -10 46 c-6 31 -6 51 1 62 6 9 9 39 9 66 l-2 49 98 0
c70 0 96 -3 93 -12 -3 -6 0 -25 7 -42 8 -22 8 -36 -1 -57 -11 -23 -17 -26 -45
-22 -58 10 -65 0 -42 -57 17 -42 24 -50 45 -49 40 1 107 23 119 38 8 10 12 53
11 123 -1 176 7 437 14 454 4 10 0 23 -9 33 -19 19 -26 20 -57 6 -15 -7 -46
-8 -85 -3 l-62 8 59 70 c54 63 58 71 41 79 -13 5 -36 3 -67 -8 -53 -18 -124
-21 -124 -6 0 6 -18 10 -40 10 -22 0 -40 -4 -40 -10 0 -5 -25 -10 -55 -10 -30
0 -55 4 -55 8 0 4 16 23 35 42 19 19 35 37 35 41 0 7 -85 39 -104 39 -6 0 -24
-23 -39 -51z m265 -180 c-26 -36 -27 -37 -120 -43 -64 -5 -98 -4 -107 4 -8 6
-22 11 -32 10 -55 -6 -58 -1 -25 33 l31 32 139 0 140 0 -26 -36z m-97 -153 l0
-43 -85 1 -85 1 3 37 c4 37 4 37 56 41 123 8 111 12 111 -37z m290 -1 l0 -44
-97 2 -97 2 2 40 2 40 95 2 95 3 0 -45z m-293 -165 l3 -49 -85 2 -85 2 0 38
c0 34 2 37 28 37 15 0 27 5 27 10 0 6 24 10 54 10 l54 0 4 -50z m256 44 c27
-5 31 -10 34 -48 l3 -41 -95 0 -95 0 -1 48 -1 47 62 0 c34 0 76 -3 93 -6z"/>
</g>
</svg>
