<?xml version="1.0" standalone="no"?>
<!DOCTYPE svg PUBLIC "-//W3C//DTD SVG 20010904//EN"
 "http://www.w3.org/TR/2001/REC-SVG-20010904/DTD/svg10.dtd">
<svg version="1.0" xmlns="http://www.w3.org/2000/svg"
 width="101.000000pt" height="102.000000pt" viewBox="0 0 101.000000 102.000000"
 preserveAspectRatio="xMidYMid meet">
<metadata>
Created by potrace 1.16, written by Peter Selinger 2001-2019
</metadata>
<g transform="translate(0.000000,102.000000) scale(0.100000,-0.100000)"
fill="#000000" stroke="none">
<path d="M190 1006 c0 -28 -81 -173 -125 -223 -25 -28 -45 -55 -45 -60 1 -16
48 -65 58 -59 15 9 26 -202 13 -237 -8 -19 -7 -34 1 -52 8 -18 8 -28 0 -38 -6
-7 -14 -28 -17 -47 -3 -19 -13 -56 -22 -81 l-16 -47 34 -30 c19 -17 37 -32 40
-32 6 0 26 65 35 110 8 44 16 98 18 125 1 26 5 29 38 31 41 3 39 10 40 -128 1
-73 4 -88 17 -90 31 -3 55 3 64 15 6 8 7 6 3 -6 -14 -44 28 -57 85 -26 21 11
26 9 50 -20 l26 -32 20 34 c28 46 64 144 69 187 21 159 28 320 16 320 -8 0
-12 25 -12 75 0 43 4 75 10 75 6 0 10 14 10 30 0 17 4 30 9 30 5 0 15 2 23 5
11 4 13 -7 10 -54 -1 -34 2 -62 8 -66 13 -8 13 -118 -1 -186 -6 -30 -11 -61
-10 -69 14 -162 11 -200 -21 -232 -20 -20 -20 -21 -2 -54 10 -19 20 -34 21
-34 1 0 28 11 59 25 31 14 58 25 60 25 2 0 7 -13 11 -28 7 -26 11 -28 40 -20
l31 8 -23 76 c-13 42 -25 77 -27 79 -2 2 -16 1 -31 -2 -24 -5 -28 -9 -23 -29
5 -17 2 -24 -7 -24 -18 0 -31 113 -17 141 8 13 7 25 -1 40 -6 13 -8 36 -4 58
4 20 8 61 10 91 1 30 6 72 10 93 5 25 4 37 -4 37 -6 0 -11 11 -11 25 0 14 5
25 10 25 6 0 10 17 10 39 0 28 5 40 18 43 15 4 17 -6 17 -121 1 -69 4 -148 8
-176 5 -27 10 -72 12 -100 2 -27 9 -72 17 -100 15 -58 98 -227 114 -232 6 -2
23 15 39 37 l28 40 -31 44 c-17 24 -40 66 -51 95 -19 47 -24 66 -38 146 -8 47
-14 140 -16 265 l-2 115 47 1 c26 0 51 4 55 8 4 4 -3 27 -16 52 -25 46 -39 52
-84 35 -22 -8 -52 -15 -132 -27 -35 -6 -118 -13 -155 -14 -34 -1 -51 -13 -51
-36 1 -10 1 -47 0 -81 0 -33 5 -64 11 -68 12 -8 13 -52 1 -59 -12 -8 -13 -114
-1 -121 14 -9 12 -47 -5 -88 -12 -29 -12 -42 -3 -61 8 -19 8 -29 0 -39 -6 -7
-14 -31 -18 -53 -3 -21 -14 -54 -23 -73 l-18 -34 -6 93 c-10 138 -9 188 6 194
10 5 10 7 0 12 -14 6 -18 74 -4 74 10 0 23 137 15 166 -4 17 -14 21 -52 23
-25 1 -47 3 -48 4 -2 2 15 31 36 65 22 35 40 64 40 66 0 2 -43 7 -95 11 l-96
7 27 35 c29 38 26 45 -25 62 -45 15 -61 14 -61 -3z m114 -188 c-4 -7 -18 -28
-31 -45 -21 -30 -29 -33 -74 -33 -27 0 -49 3 -49 8 0 4 11 23 24 42 22 32 28
35 81 38 43 2 55 0 49 -10z m-69 -177 c0 -48 -1 -49 -30 -48 -28 1 -30 3 -30
41 0 37 3 42 30 47 17 4 30 7 30 8 0 0 0 -21 0 -48z m150 -3 l0 -47 -35 2
c-35 1 -35 2 -35 47 0 45 0 45 35 45 l35 0 0 -47z m-147 -132 c1 -11 2 -32 4
-46 3 -23 0 -25 -37 -25 -37 0 -40 2 -37 25 2 14 3 34 4 46 0 16 7 20 33 21
27 1 33 -3 33 -21z m150 1 c1 -12 2 -33 4 -47 3 -23 0 -25 -42 -25 -42 0 -45
2 -42 25 2 14 3 34 4 45 0 17 8 21 38 22 33 2 38 -1 38 -20z m-2 -152 c-2 -7
0 -27 6 -43 17 -45 -7 -104 -44 -108 -25 -2 -29 2 -39 39 -8 30 -8 50 -1 70 6
16 9 34 6 41 -3 8 9 12 37 13 31 2 39 -1 35 -12z"/>
</g>
</svg>
