<?xml version="1.0" standalone="no"?>
<!DOCTYPE svg PUBLIC "-//W3C//DTD SVG 20010904//EN"
 "http://www.w3.org/TR/2001/REC-SVG-20010904/DTD/svg10.dtd">
<svg version="1.0" xmlns="http://www.w3.org/2000/svg"
 width="101.000000pt" height="102.000000pt" viewBox="0 0 101.000000 102.000000"
 preserveAspectRatio="xMidYMid meet">
<metadata>
Created by potrace 1.16, written by Peter Selinger 2001-2019
</metadata>
<g transform="translate(0.000000,102.000000) scale(0.100000,-0.100000)"
fill="#000000" stroke="none">
<path d="M295 992 c-3 -18 -4 -35 -2 -39 3 -5 -36 -7 -86 -5 -112 3 -133 -2
-140 -29 -12 -46 -3 -50 117 -44 110 5 111 5 111 -18 0 -20 -4 -22 -55 -20
-30 1 -66 5 -80 8 -37 9 -65 -15 -56 -48 4 -16 14 -27 24 -28 9 0 -1 -6 -23
-13 -38 -11 -40 -14 -43 -56 -7 -97 16 -132 74 -110 16 7 24 6 24 -1 0 -7 10
-9 26 -5 l26 7 -22 -28 c-26 -34 -94 -89 -135 -110 -16 -9 -31 -17 -33 -18 -2
-1 11 -17 29 -34 l31 -32 36 28 c24 18 34 21 29 11 -3 -9 -1 -30 6 -47 9 -25
9 -36 -1 -52 -7 -11 -15 -37 -18 -56 -4 -38 -33 -91 -60 -114 -13 -11 -9 -15
32 -30 56 -22 61 -18 90 67 13 40 22 52 38 52 12 1 32 2 46 4 24 3 25 1 25
-54 0 -46 3 -58 17 -61 35 -10 55 3 56 36 3 75 1 73 48 75 36 1 42 -1 41 -17
-1 -12 -9 -18 -29 -18 -15 0 -30 -2 -32 -4 -11 -10 20 -78 37 -83 23 -6 78 12
93 31 10 12 15 10 32 -12 25 -31 29 -30 126 45 l66 50 37 -33 c50 -44 113 -91
116 -86 1 2 17 21 35 41 l34 36 -59 31 c-32 17 -71 41 -86 54 l-28 22 20 45
c22 51 70 210 76 253 4 27 3 29 -23 21 -29 -9 -232 -8 -232 1 0 1 10 24 22 51
16 37 21 66 20 117 -2 44 2 67 9 67 6 0 9 8 7 18 -4 14 2 17 36 17 40 0 41 -1
38 -30 -1 -16 1 -66 5 -110 8 -79 9 -80 43 -97 49 -24 102 -9 118 34 16 43 6
58 -37 55 l-36 -2 -9 64 c-7 48 -6 66 2 69 7 2 12 24 12 53 l0 50 -65 -7 c-41
-4 -69 -3 -78 4 -12 11 -68 14 -97 6 -18 -5 -26 -59 -10 -69 13 -8 13 -81 0
-104 -5 -10 -11 -30 -14 -44 -2 -14 -9 -34 -14 -43 -7 -13 -10 -11 -15 14 -6
29 -8 30 -75 37 -45 4 -77 3 -90 -4 -24 -13 -72 -14 -90 -2 -17 11 57 21 153
21 77 0 93 10 80 51 -7 22 -51 36 -74 23 -21 -12 -103 -2 -108 12 -4 14 128
27 173 18 34 -7 50 12 39 47 -7 21 -88 34 -165 27 l-48 -5 4 33 c4 33 4 33
-32 27 -24 -4 -39 -2 -44 7 -5 8 -10 2 -15 -18z m97 -309 l107 -5 -5 -39 c-5
-41 0 -45 53 -40 17 1 22 -3 21 -16 -4 -47 2 -61 22 -56 15 4 19 2 15 -9 -7
-18 36 -136 70 -195 l25 -41 -39 -34 c-21 -18 -57 -43 -79 -56 l-41 -23 -6 43
c-5 41 -2 142 8 218 l5 36 -41 1 c-94 4 -90 0 -55 44 17 21 29 41 26 44 -6 6
-59 7 -132 1 -33 -2 -54 -1 -46 4 7 4 9 13 5 21 -6 9 -4 11 8 6 8 -3 29 -1 46
6 24 9 36 9 51 -1 42 -26 75 -8 64 36 -5 18 -15 19 -132 19 -155 1 -184 4
-190 22 -3 9 1 11 14 7 11 -3 26 -1 34 4 17 11 36 11 192 3z m217 -62 c9 -6
10 -11 2 -15 -13 -8 -31 1 -31 15 0 11 11 11 29 0z m184 -124 c-2 -45 -31
-137 -43 -137 -11 0 -40 65 -56 122 -11 44 -11 48 4 44 9 -3 24 -1 32 4 8 6
26 9 40 8 22 -3 25 -7 23 -41z m-448 13 c3 -5 -4 -19 -16 -31 -16 -16 -28 -20
-52 -14 -18 3 -42 6 -55 7 -22 0 -23 1 -6 19 10 11 24 17 33 14 9 -2 23 0 31
5 19 13 57 13 65 0z m-35 -115 c0 -11 -11 -14 -45 -13 -58 3 -58 23 0 26 34 1
45 -2 45 -13z m160 0 c0 -11 -11 -14 -45 -13 -58 3 -58 23 0 26 34 1 45 -2 45
-13z m-160 -90 c0 -11 -11 -14 -45 -13 -58 3 -58 23 0 26 34 1 45 -2 45 -13z
m160 0 c0 -11 -11 -14 -45 -13 -58 3 -58 23 0 26 34 1 45 -2 45 -13z"/>
</g>
</svg>
