<?xml version="1.0" standalone="no"?>
<!DOCTYPE svg PUBLIC "-//W3C//DTD SVG 20010904//EN"
 "http://www.w3.org/TR/2001/REC-SVG-20010904/DTD/svg10.dtd">
<svg version="1.0" xmlns="http://www.w3.org/2000/svg"
 width="101.000000pt" height="102.000000pt" viewBox="0 0 101.000000 102.000000"
 preserveAspectRatio="xMidYMid meet">
<metadata>
Created by potrace 1.16, written by Peter Selinger 2001-2019
</metadata>
<g transform="translate(0.000000,102.000000) scale(0.100000,-0.100000)"
fill="#000000" stroke="none">
<path d="M292 979 c0 -24 5 -50 10 -56 15 -19 0 -163 -16 -157 -7 3 -24 0 -38
-5 l-26 -10 4 83 c2 46 6 91 10 100 7 18 8 17 -57 22 l-46 3 1 -102 1 -102
-42 0 c-23 0 -44 -3 -47 -6 -3 -2 3 -26 12 -52 16 -45 18 -47 47 -41 68 15
122 22 221 27 45 3 91 10 103 16 14 8 21 8 21 1 0 -5 -7 -10 -15 -10 -19 0
-19 -10 0 -37 15 -21 14 -21 -63 -22 -42 -1 -120 -3 -172 -5 -52 -3 -102 -1
-111 4 -40 22 -72 -11 -62 -63 4 -23 9 -25 41 -20 21 3 80 5 132 5 52 -1 124
-1 160 -1 98 0 247 -2 427 -4 l161 -2 5 29 c9 59 1 67 -62 59 -49 -6 -259 -8
-318 -3 -16 2 -26 12 -33 36 -7 19 -16 34 -22 34 -10 0 -5 51 8 85 4 10 -3 13
-26 13 -17 -1 -33 -4 -35 -9 -3 -4 -14 -5 -24 -2 -10 3 -28 0 -39 -6 -18 -10
-20 -8 -18 27 l1 37 73 0 c67 0 73 2 79 22 3 13 3 29 0 37 -6 16 -82 31 -125
24 -28 -4 -29 -4 -21 36 4 23 6 42 4 44 -1 1 -25 5 -53 9 l-51 6 1 -44z"/>
<path d="M556 1000 c-8 -29 -5 -85 6 -97 6 -8 8 -41 3 -92 -4 -44 -4 -88 -1
-99 9 -27 80 -56 105 -42 11 5 57 8 103 6 111 -4 150 16 172 91 5 16 2 23 -14
28 -11 3 -33 18 -50 31 l-29 25 -6 -35 c-11 -56 -28 -64 -120 -57 -44 3 -79 9
-77 14 1 4 2 15 2 25 0 17 54 43 118 57 12 3 32 8 45 11 12 4 37 7 55 7 26 0
32 3 27 16 -10 25 -49 81 -58 81 -4 0 -27 -10 -49 -21 -23 -12 -65 -29 -93
-39 l-50 -17 1 37 c1 21 5 47 9 59 7 22 7 22 -58 25 -25 1 -38 -4 -41 -14z"/>
<path d="M189 523 c-31 -8 -33 -83 -3 -83 8 0 14 -4 14 -10 0 -5 -6 -10 -14
-10 -16 0 -26 -32 -19 -60 5 -18 11 -19 52 -14 56 7 217 8 286 1 28 -3 64 -1
80 5 20 6 64 6 130 0 55 -5 102 -7 104 -5 6 4 5 62 0 68 -6 6 -63 6 -184 -1
-195 -10 -398 -5 -414 12 -22 21 79 28 344 24 33 -1 79 2 102 6 28 4 58 1 86
-9 50 -17 65 -12 68 23 5 56 3 58 -53 49 -29 -4 -91 -6 -138 -4 -87 5 -133 5
-300 2 -52 0 -102 2 -110 5 -8 3 -22 4 -31 1z"/>
<path d="M166 297 c-3 -11 0 -29 5 -39 5 -10 7 -22 4 -27 -3 -5 0 -21 6 -35 9
-20 9 -35 0 -67 -7 -22 -10 -44 -6 -47 3 -3 24 -5 47 -5 42 2 60 16 51 39 -5
14 3 15 147 15 58 -1 149 -1 203 -1 l97 0 -6 -24 c-7 -28 11 -35 69 -28 l38 4
-7 42 c-9 45 -9 77 0 149 l6 48 -47 -6 c-44 -6 -87 -7 -273 -6 -36 0 -108 0
-160 -1 -52 0 -111 2 -132 5 -30 4 -37 2 -42 -16z m455 -47 l97 0 -2 -25 c-1
-28 33 -25 -296 -26 -147 0 -145 0 -146 28 -2 18 2 22 15 19 9 -3 23 -1 31 4
8 5 57 7 110 4 52 -2 138 -4 191 -4z"/>
</g>
</svg>
