<?xml version="1.0" standalone="no"?>
<!DOCTYPE svg PUBLIC "-//W3C//DTD SVG 20010904//EN"
 "http://www.w3.org/TR/2001/REC-SVG-20010904/DTD/svg10.dtd">
<svg version="1.0" xmlns="http://www.w3.org/2000/svg"
 width="101.000000pt" height="102.000000pt" viewBox="0 0 101.000000 102.000000"
 preserveAspectRatio="xMidYMid meet">
<metadata>
Created by potrace 1.16, written by Peter Selinger 2001-2019
</metadata>
<g transform="translate(0.000000,102.000000) scale(0.100000,-0.100000)"
fill="#000000" stroke="none">
<path d="M228 1013 c-13 -3 -17 -12 -14 -33 l3 -29 -83 6 c-83 6 -83 6 -89
-20 -10 -37 11 -70 38 -63 12 4 48 9 80 12 47 4 57 2 57 -11 0 -13 -4 -14 -20
-5 -18 10 -29 2 -89 -60 -37 -38 -73 -70 -80 -70 -20 0 -11 -15 24 -39 l36
-24 23 22 24 23 1 -24 c1 -13 2 -40 3 -60 2 -40 26 -55 59 -38 10 6 56 8 103
6 53 -2 86 0 89 7 4 12 59 -12 64 -29 7 -20 -240 -27 -363 -10 -36 4 -43 2
-47 -14 -8 -30 3 -60 22 -62 20 -1 33 0 91 8 25 3 88 6 140 6 52 -1 124 -1
160 -1 212 -1 273 -2 340 -6 89 -7 142 -7 148 0 7 6 7 63 1 70 -3 2 -47 0 -99
-5 -52 -6 -129 -8 -170 -5 -41 3 -85 6 -97 6 -16 1 -25 11 -33 35 -9 27 -16
33 -30 29 -15 -5 -17 -2 -13 14 5 20 6 20 35 3 17 -9 36 -25 42 -34 15 -24 27
-23 87 7 l50 26 62 -25 c84 -33 137 -43 137 -24 0 7 9 29 19 49 l19 36 -26 1
c-37 1 -97 9 -120 16 -18 6 -17 9 8 59 15 29 29 63 32 74 5 18 12 21 46 17 45
-4 58 12 47 58 -6 23 -8 23 -130 23 -69 0 -125 1 -125 3 0 1 8 14 17 29 16 24
16 26 -2 39 -10 8 -33 14 -51 14 -31 0 -33 -2 -53 -67 -25 -82 -70 -161 -71
-125 0 18 -5 23 -22 22 -55 -5 -65 -1 -65 25 0 23 3 25 46 25 26 0 53 -6 59
-12 10 -10 15 -10 22 2 30 48 -4 83 -76 78 -29 -1 -50 0 -47 5 2 4 1 16 -2 27
-5 16 -15 20 -45 20 -34 0 -41 -4 -46 -24 -3 -14 -4 -28 -1 -33 3 -4 -11 -8
-30 -9 -32 0 -34 1 -28 24 9 36 -16 49 -67 35z m131 -150 c8 -16 4 -18 -28
-18 -28 0 -37 4 -38 18 -1 12 6 17 27 17 18 0 33 -7 39 -17z m407 -38 c-6 -16
-17 -39 -23 -50 -13 -20 -13 -20 -33 5 -11 14 -20 31 -20 39 0 7 -6 11 -12 8
-51 -21 -49 -21 -38 4 10 22 17 24 74 24 l63 0 -11 -30z m-335 -41 c14 -4 19
-35 10 -74 -2 -11 -48 -7 -48 4 1 39 -4 47 -23 41 -10 -3 -28 -1 -39 4 -13 7
-28 7 -48 0 -19 -6 -38 -6 -54 0 -24 10 -24 10 6 12 17 1 35 1 42 0 6 -1 14 3
17 8 7 10 109 14 137 5z m-241 -14 c0 -5 -5 -10 -11 -10 -5 0 -7 5 -4 10 3 6
8 10 11 10 2 0 4 -4 4 -10z m470 -56 c0 -14 -38 -25 -97 -29 l-42 -3 1 43 2
43 30 -15 c29 -15 31 -15 45 7 l15 22 23 -28 c13 -16 23 -34 23 -40z m-346
-39 c0 -27 -3 -30 -30 -27 -16 1 -38 3 -49 3 -14 1 -20 9 -21 26 -2 18 2 22
15 19 9 -3 23 -1 31 4 8 6 24 9 35 8 15 -2 20 -10 19 -33z"/>
<path d="M189 483 c-31 -8 -33 -73 -3 -73 8 0 14 -4 14 -10 0 -5 -6 -10 -14
-10 -15 0 -27 -35 -19 -56 4 -11 17 -13 52 -8 25 3 89 6 141 6 187 -1 221 -1
273 1 28 1 80 -2 113 -6 66 -8 78 -1 67 42 -5 19 -11 20 -127 15 -123 -5 -168
4 -136 26 9 7 62 9 137 6 129 -5 138 -2 126 42 -7 28 -35 33 -93 14 -40 -13
-57 -14 -83 -5 -17 7 -54 9 -82 6 -103 -10 -272 -5 -332 10 -10 2 -25 3 -34 0z
m241 -73 c28 -19 -11 -30 -102 -28 -89 1 -125 10 -100 27 19 12 184 13 202 1z
m70 -10 c0 -5 -4 -10 -10 -10 -5 0 -10 5 -10 10 0 6 5 10 10 10 6 0 10 -4 10
-10z"/>
<path d="M199 303 c-21 -5 -31 -40 -18 -64 5 -10 7 -50 5 -89 -5 -76 -5 -76
54 -71 29 3 42 19 34 42 -6 20 -4 20 146 20 58 -1 149 -1 203 -1 l97 0 -4 -24
c-5 -28 12 -36 62 -28 29 4 31 6 25 36 -7 34 -7 82 0 136 2 19 0 38 -5 41 -5
4 -32 0 -60 -8 -31 -9 -65 -12 -91 -8 -23 3 -69 6 -102 5 -216 -4 -298 -1
-321 12 -5 2 -16 3 -25 1z m360 -77 c30 -2 63 0 74 6 25 13 87 1 87 -17 0 -18
-62 -30 -87 -17 -11 6 -44 8 -74 5 -48 -4 -218 -6 -276 -2 -13 0 -23 8 -23 16
0 9 6 12 18 9 9 -3 24 -1 32 4 14 8 137 7 249 -4z"/>
</g>
</svg>
