<?xml version="1.0" standalone="no"?>
<!DOCTYPE svg PUBLIC "-//W3C//DTD SVG 20010904//EN"
 "http://www.w3.org/TR/2001/REC-SVG-20010904/DTD/svg10.dtd">
<svg version="1.0" xmlns="http://www.w3.org/2000/svg"
 width="101.000000pt" height="101.000000pt" viewBox="0 0 101.000000 101.000000"
 preserveAspectRatio="xMidYMid meet">
<metadata>
Created by potrace 1.16, written by Peter Selinger 2001-2019
</metadata>
<g transform="translate(0.000000,101.000000) scale(0.100000,-0.100000)"
fill="#000000" stroke="none">
<path d="M506 956 c-29 -99 -94 -213 -162 -284 -35 -37 -64 -68 -64 -69 0 -2
6 -3 13 -3 7 0 30 -9 51 -21 l39 -21 23 29 23 28 1 -25 c0 -14 4 -29 8 -35 9
-12 92 -15 92 -3 0 11 107 10 114 -1 3 -5 -12 -28 -33 -52 -79 -91 -171 -248
-171 -292 0 -33 21 -58 65 -77 52 -22 83 -25 195 -15 164 14 173 18 201 78 29
65 25 78 -31 109 -28 16 -50 25 -51 20 -9 -81 -31 -107 -88 -104 -22 2 -42 -1
-44 -5 -5 -8 -64 -8 -101 0 -32 6 -27 47 17 122 43 74 157 198 179 194 30 -6
56 12 62 45 4 18 4 41 0 50 -8 20 -46 30 -81 21 -16 -4 -84 -7 -153 -7 -181 0
-165 -5 -136 44 23 39 28 42 64 39 25 -1 45 3 55 13 18 18 74 21 79 5 3 -8 39
-10 130 -4 124 7 126 7 133 32 13 54 -23 85 -76 65 -42 -17 -178 -26 -192 -13
-8 6 -35 10 -60 8 -26 -1 -47 -1 -47 1 0 13 56 96 76 111 13 10 24 21 24 25 0
4 -122 46 -135 46 -2 0 -11 -24 -19 -54z"/>
<path d="M158 964 c-21 -13 -38 -27 -38 -30 0 -4 13 -21 29 -40 16 -18 42 -55
57 -81 15 -26 28 -49 29 -50 2 -4 105 52 105 57 -1 14 -123 170 -133 169 -7 0
-29 -11 -49 -25z"/>
<path d="M35 678 c-15 -68 29 -95 105 -64 13 5 15 -10 17 -101 1 -60 5 -133 8
-165 5 -44 3 -66 -13 -100 l-19 -44 34 -37 c18 -20 36 -37 38 -37 3 0 30 25
60 55 30 30 77 72 104 93 41 33 47 42 38 57 -5 10 -10 33 -9 51 1 18 -3 36 -8
39 -5 3 -38 -24 -71 -60 -45 -48 -64 -62 -70 -53 -12 18 -11 126 1 133 5 3 10
34 10 68 1 34 3 92 5 129 l4 66 -114 -1 -114 -1 -6 -28z"/>
</g>
</svg>
