<?xml version="1.0" standalone="no"?>
<!DOCTYPE svg PUBLIC "-//W3C//DTD SVG 20010904//EN"
 "http://www.w3.org/TR/2001/REC-SVG-20010904/DTD/svg10.dtd">
<svg version="1.0" xmlns="http://www.w3.org/2000/svg"
 width="101.000000pt" height="101.000000pt" viewBox="0 0 101.000000 101.000000"
 preserveAspectRatio="xMidYMid meet">
<metadata>
Created by potrace 1.16, written by Peter Selinger 2001-2019
</metadata>
<g transform="translate(0.000000,101.000000) scale(0.100000,-0.100000)"
fill="#000000" stroke="none">
<path d="M155 964 c-11 -8 -27 -19 -35 -24 -11 -6 -7 -16 23 -49 21 -23 45
-57 54 -76 9 -19 20 -35 25 -35 15 0 78 45 78 55 0 17 -99 145 -112 145 -7 0
-22 -8 -33 -16z"/>
<path d="M745 951 c-35 -15 -205 -24 -205 -12 0 6 -17 11 -40 11 -22 0 -40 -5
-40 -11 0 -7 -21 -10 -60 -7 -52 3 -60 1 -64 -17 -8 -29 -8 -32 10 -50 12 -12
27 -14 62 -9 l47 6 0 -127 0 -126 -72 7 c-71 6 -72 6 -78 -19 -4 -14 -1 -35 5
-47 11 -21 17 -22 79 -17 l66 7 0 -173 c-1 -94 -4 -181 -8 -192 -3 -11 -2 -27
3 -35 11 -18 79 -17 91 2 5 7 7 99 6 203 l-2 190 51 -3 c57 -4 84 13 84 53 0
34 -30 48 -64 29 -16 -8 -38 -14 -50 -14 -22 0 -22 3 -22 124 l1 124 65 6
c114 11 105 17 107 -76 2 -113 3 -149 1 -215 -2 -51 6 -157 15 -218 7 -49 42
-130 69 -161 50 -56 90 -41 137 53 28 56 26 73 -14 106 -34 28 -34 28 -45 7
-6 -12 -9 -28 -6 -35 2 -7 -2 -21 -9 -32 -13 -16 -16 -16 -25 -3 -10 16 -13
40 -10 77 1 13 -2 28 -6 35 -4 7 -7 29 -5 49 1 20 -2 40 -8 43 -10 6 -7 272 4
403 6 70 -12 87 -70 64z"/>
<path d="M48 730 c-10 -6 -18 -23 -18 -38 0 -47 11 -53 82 -47 l65 5 -6 -32
c-3 -18 -5 -102 -3 -186 3 -124 0 -158 -13 -184 -15 -32 -15 -32 20 -67 l35
-36 92 92 92 92 -22 46 -22 46 -50 -53 -49 -53 6 95 c8 123 9 307 3 313 -12
11 -196 17 -212 7z"/>
</g>
</svg>
