<?xml version="1.0" standalone="no"?>
<!DOCTYPE svg PUBLIC "-//W3C//DTD SVG 20010904//EN"
 "http://www.w3.org/TR/2001/REC-SVG-20010904/DTD/svg10.dtd">
<svg version="1.0" xmlns="http://www.w3.org/2000/svg"
 width="101.000000pt" height="101.000000pt" viewBox="0 0 101.000000 101.000000"
 preserveAspectRatio="xMidYMid meet">
<metadata>
Created by potrace 1.16, written by Peter Selinger 2001-2019
</metadata>
<g transform="translate(0.000000,101.000000) scale(0.100000,-0.100000)"
fill="#000000" stroke="none">
<path d="M143 979 l-33 -21 26 -33 c14 -19 40 -61 57 -94 l32 -59 43 25 c23
14 42 29 42 33 0 18 -106 165 -120 167 -8 2 -30 -6 -47 -18z"/>
<path d="M365 936 c-8 -43 10 -80 33 -71 9 4 39 7 67 7 27 0 55 4 62 10 8 6
41 8 90 3 l78 -7 -2 -121 -2 -122 -70 -3 c-45 -2 -71 1 -71 8 0 5 -13 10 -29
10 l-30 0 26 63 c14 34 32 70 41 80 25 28 -11 49 -82 48 -22 0 -38 -20 -31
-38 2 -7 0 -15 -5 -18 -5 -3 -8 -18 -8 -33 1 -31 -24 -86 -55 -120 -20 -21
-20 -24 -4 -56 14 -30 19 -34 49 -30 68 8 168 9 168 1 0 -4 -14 -36 -31 -70
-49 -97 -131 -190 -216 -245 -24 -15 -43 -30 -43 -34 0 -9 89 -58 105 -58 33
0 176 184 247 317 l43 80 0 -161 0 -160 -46 3 c-26 1 -50 -2 -53 -7 -3 -6 6
-36 19 -67 24 -53 28 -57 53 -52 79 15 107 30 122 67 5 14 9 102 7 206 l-2
182 80 7 c85 7 95 13 95 58 0 32 -24 46 -51 29 -10 -7 -43 -12 -73 -12 l-55 0
2 123 2 123 62 -2 c52 -2 63 1 68 16 11 35 -5 67 -37 74 -49 10 -148 7 -148
-4 0 -6 -33 -10 -80 -10 -47 0 -80 4 -80 10 0 6 -18 10 -40 10 -22 0 -40 -4
-40 -10 0 -5 -25 -10 -55 -10 -30 0 -55 5 -55 10 0 25 -20 6 -25 -24z"/>
<path d="M25 699 c-4 -16 -4 -38 0 -48 5 -18 14 -20 68 -18 l62 3 -3 -57 c-1
-32 2 -60 8 -64 17 -10 7 -213 -13 -265 -3 -9 7 -25 28 -43 l33 -28 94 97 c51
52 94 99 96 104 3 9 -49 89 -58 90 -3 0 -13 -12 -22 -27 -10 -16 -28 -41 -42
-58 l-24 -30 4 77 c3 47 1 79 -6 83 -13 8 -13 52 0 60 6 3 10 39 9 80 l-1 74
-114 -1 -113 -1 -6 -28z"/>
</g>
</svg>
