<?xml version="1.0" standalone="no"?>
<!DOCTYPE svg PUBLIC "-//W3C//DTD SVG 20010904//EN"
 "http://www.w3.org/TR/2001/REC-SVG-20010904/DTD/svg10.dtd">
<svg version="1.0" xmlns="http://www.w3.org/2000/svg"
 width="101.000000pt" height="101.000000pt" viewBox="0 0 101.000000 101.000000"
 preserveAspectRatio="xMidYMid meet">
<metadata>
Created by potrace 1.16, written by Peter Selinger 2001-2019
</metadata>
<g transform="translate(0.000000,101.000000) scale(0.100000,-0.100000)"
fill="#000000" stroke="none">
<path d="M491 988 c-45 -118 -71 -170 -118 -239 -29 -45 -53 -82 -51 -83 18
-11 89 -38 92 -35 1 2 21 35 43 73 l40 70 55 0 c47 1 54 -1 50 -17 -2 -9 1
-24 8 -32 8 -10 10 -39 5 -103 l-7 -89 -88 2 c-49 2 -93 6 -99 9 -20 13 -61
-6 -67 -30 -8 -33 3 -74 21 -74 8 0 15 5 15 10 0 11 93 13 161 4 l44 -6 3 -87
c1 -47 2 -127 2 -178 l0 -91 30 -7 c62 -14 90 19 76 88 -6 28 -8 258 -2 264 1
1 52 4 113 5 102 3 112 5 117 23 16 58 -11 95 -57 78 -12 -4 -58 -8 -102 -8
l-80 0 4 43 c2 26 -1 42 -8 42 -6 0 -11 16 -11 35 0 19 5 35 10 35 6 0 10 18
10 40 0 42 7 46 63 40 10 -1 25 4 33 11 8 7 33 10 62 7 l47 -5 0 44 c0 42 -1
43 -30 38 -32 -6 -223 -8 -292 -4 l-41 3 18 37 c11 20 26 39 35 42 26 11 17
24 -34 46 -61 26 -60 26 -70 -1z"/>
<path d="M155 973 c-16 -8 -31 -17 -33 -18 -2 -2 84 -145 105 -174 5 -7 77 36
81 47 4 14 -96 162 -110 162 -7 -1 -26 -8 -43 -17z"/>
<path d="M54 743 c-31 -22 -28 -106 4 -102 9 1 38 1 65 0 l47 -1 0 -40 c0 -22
5 -40 10 -40 6 0 10 -11 10 -25 0 -14 -5 -25 -12 -25 -8 0 -9 -29 -5 -105 5
-83 4 -114 -8 -142 -15 -34 -14 -38 7 -62 13 -14 26 -30 30 -35 7 -9 198 152
198 167 0 14 -40 87 -48 87 -4 0 -23 -22 -42 -47 l-35 -47 -9 79 c-6 54 -5 84
2 96 6 9 11 62 11 118 0 123 -8 137 -78 127 -53 -8 -54 -8 -101 -1 -19 3 -40
2 -46 -2z"/>
</g>
</svg>
