<?xml version="1.0" standalone="no"?>
<!DOCTYPE svg PUBLIC "-//W3C//DTD SVG 20010904//EN"
 "http://www.w3.org/TR/2001/REC-SVG-20010904/DTD/svg10.dtd">
<svg version="1.0" xmlns="http://www.w3.org/2000/svg"
 width="101.000000pt" height="101.000000pt" viewBox="0 0 101.000000 101.000000"
 preserveAspectRatio="xMidYMid meet">
<metadata>
Created by potrace 1.16, written by Peter Selinger 2001-2019
</metadata>
<g transform="translate(0.000000,101.000000) scale(0.100000,-0.100000)"
fill="#000000" stroke="none">
<path d="M570 995 c0 -8 5 -15 10 -15 14 0 12 -104 -2 -118 -14 -14 -84 -16
-92 -3 -10 15 -95 11 -111 -6 -16 -15 -20 -60 -7 -80 4 -7 26 -10 57 -8 28 2
73 5 100 7 l50 3 0 -50 0 -50 -74 7 c-41 4 -80 4 -85 0 -6 -4 -11 -26 -12 -50
-1 -37 2 -43 23 -48 14 -4 34 -2 46 3 12 6 39 8 60 5 40 -5 37 2 41 -89 1 -18
-11 -19 -74 -8 -127 22 -145 17 -143 -47 2 -42 -6 -57 -70 -132 -18 -21 -18
-20 -13 49 8 91 10 335 3 341 -3 3 -52 8 -110 10 -114 5 -137 -3 -137 -49 0
-41 12 -47 85 -44 l70 2 0 -191 c0 -137 -3 -195 -12 -206 -11 -12 -7 -22 21
-54 l35 -39 93 92 c85 86 92 95 80 114 -7 11 -17 31 -22 44 -7 19 -5 23 13 24
28 1 124 9 157 13 28 3 27 6 35 -119 3 -46 0 -85 -9 -110 -16 -47 -10 -100 13
-106 9 -2 31 -2 48 0 l31 5 0 141 c0 183 1 190 19 183 8 -3 23 -1 34 5 11 6
37 8 58 4 35 -6 37 -8 38 -46 1 -22 -2 -52 -8 -65 -7 -21 -15 -25 -42 -23 -68
4 -69 3 -47 -38 11 -21 20 -46 20 -55 0 -15 7 -17 33 -14 50 6 104 32 117 56
6 12 13 45 15 73 2 29 6 68 9 87 16 101 21 96 -96 97 -153 2 -143 -1 -143 49
l-1 44 61 2 c33 1 77 1 97 0 41 -2 54 16 43 60 -6 22 -9 23 -76 20 -46 -3 -69
-1 -69 7 0 6 -11 11 -25 11 -23 0 -25 4 -25 43 l0 42 82 -2 c46 0 95 -4 109
-8 35 -9 59 16 59 60 0 19 -3 36 -8 39 -4 2 -44 -1 -89 -7 -66 -8 -88 -8 -107
3 -14 7 -31 10 -38 8 -10 -4 -13 8 -12 51 1 31 3 63 5 71 3 12 -8 16 -53 18
-47 2 -58 0 -58 -13z"/>
<path d="M173 944 l-32 -14 34 -56 c19 -31 37 -69 40 -85 9 -39 15 -41 64 -22
51 20 50 31 -7 129 -38 67 -46 71 -99 48z"/>
</g>
</svg>
