<?xml version="1.0" standalone="no"?>
<!DOCTYPE svg PUBLIC "-//W3C//DTD SVG 20010904//EN"
 "http://www.w3.org/TR/2001/REC-SVG-20010904/DTD/svg10.dtd">
<svg version="1.0" xmlns="http://www.w3.org/2000/svg"
 width="101.000000pt" height="101.000000pt" viewBox="0 0 101.000000 101.000000"
 preserveAspectRatio="xMidYMid meet">
<metadata>
Created by potrace 1.16, written by Peter Selinger 2001-2019
</metadata>
<g transform="translate(0.000000,101.000000) scale(0.100000,-0.100000)"
fill="#000000" stroke="none">
<path d="M510 994 c0 -38 -90 -201 -139 -254 -36 -38 -47 -56 -38 -62 6 -4 15
-8 19 -8 4 0 18 -4 33 -10 l25 -10 -21 -21 c-16 -16 -20 -28 -15 -52 4 -17 11
-34 18 -38 18 -11 108 -9 127 3 12 7 59 8 144 3 108 -6 127 -9 127 -24 0 -9 3
-32 6 -52 l6 -35 -204 0 -203 1 -3 -31 c-6 -59 9 -64 191 -60 89 2 173 6 187
10 25 7 25 7 25 -53 0 -58 -1 -60 -29 -65 -43 -9 -76 -7 -76 4 0 6 -18 10 -40
10 -22 0 -40 -4 -40 -10 0 -13 -67 -13 -72 -1 -3 10 -174 19 -183 10 -3 -3 -8
-19 -11 -36 -10 -49 13 -62 106 -62 44 0 82 4 85 9 9 14 69 12 83 -2 8 -8 15
-8 24 0 14 11 89 15 121 6 9 -3 17 -15 17 -27 0 -12 4 -28 9 -35 10 -16 81
-27 97 -15 7 6 8 40 2 113 -5 58 -6 128 -3 155 3 28 7 100 9 162 l2 111 -41 7
c-23 3 -53 2 -66 -3 -13 -5 -31 -7 -41 -3 -13 5 -4 27 59 134 41 71 73 130 71
132 -1 2 -40 -2 -85 -8 -62 -8 -88 -8 -105 1 -13 7 -42 11 -64 9 -41 -2 -41
-2 -26 21 8 12 23 27 33 33 11 5 19 14 19 20 0 13 -46 30 -97 36 -36 4 -43 2
-43 -13z m188 -180 c12 -4 22 -9 22 -13 0 -3 -22 -35 -49 -71 l-49 -65 39 -13
c43 -15 53 -32 15 -25 -13 3 -27 0 -30 -6 -9 -14 -53 -14 -61 0 -4 6 -30 10
-59 9 -106 -3 -108 1 -42 97 48 69 59 80 80 76 13 -3 27 0 30 6 8 12 67 15
104 5z"/>
<path d="M155 973 c-22 -9 -41 -17 -43 -19 -3 -2 76 -172 84 -183 3 -3 93 27
103 35 5 4 -91 184 -98 183 -3 0 -24 -7 -46 -16z"/>
<path d="M30 701 c-25 -48 3 -98 49 -86 14 3 37 7 51 9 24 2 25 1 22 -46 -2
-27 1 -54 7 -62 13 -16 13 -147 -1 -163 -6 -7 -7 -24 -4 -38 4 -15 0 -37 -8
-54 -15 -27 -14 -29 24 -66 l39 -38 23 29 c13 16 51 61 86 101 l62 72 -25 37
c-14 20 -25 41 -25 45 0 16 -19 9 -24 -8 -4 -10 -16 -29 -27 -43 l-20 -25 6
146 c3 80 3 158 -1 173 -6 27 -7 27 -70 20 -45 -4 -64 -3 -64 5 0 6 -18 11
-45 11 -34 0 -47 -5 -55 -19z"/>
</g>
</svg>
