<?xml version="1.0" standalone="no"?>
<!DOCTYPE svg PUBLIC "-//W3C//DTD SVG 20010904//EN"
 "http://www.w3.org/TR/2001/REC-SVG-20010904/DTD/svg10.dtd">
<svg version="1.0" xmlns="http://www.w3.org/2000/svg"
 width="101.000000pt" height="101.000000pt" viewBox="0 0 101.000000 101.000000"
 preserveAspectRatio="xMidYMid meet">
<metadata>
Created by potrace 1.16, written by Peter Selinger 2001-2019
</metadata>
<g transform="translate(0.000000,101.000000) scale(0.100000,-0.100000)"
fill="#000000" stroke="none">
<path d="M160 978 c-19 -12 -37 -23 -39 -24 -1 -2 19 -36 45 -77 27 -41 54
-82 59 -91 9 -13 15 -12 52 10 l43 26 -17 31 c-21 42 -94 147 -102 147 -3 0
-22 -10 -41 -22z"/>
<path d="M435 940 c-11 -5 -14 -9 -7 -9 15 -1 17 -111 2 -111 -5 0 -10 -18
-10 -40 0 -22 5 -40 10 -40 13 0 13 -117 0 -195 -10 -62 -2 -82 30 -69 8 4 52
6 97 5 47 -1 84 3 88 9 8 13 52 13 60 0 4 -7 23 -8 48 -5 23 4 54 2 68 -3 43
-17 49 -4 48 94 0 49 2 150 4 225 l5 137 -57 0 c-84 1 -173 1 -243 0 -35 0
-76 2 -93 5 -16 4 -39 2 -50 -3z m294 -76 c29 -6 31 -9 31 -50 0 -24 5 -44 10
-44 6 0 10 -16 10 -35 0 -19 -5 -35 -11 -35 -7 0 -10 -22 -7 -62 l3 -63 -122
0 -121 0 -6 50 c-9 89 -7 167 5 181 6 8 9 22 7 32 -4 15 1 17 43 15 26 -2 51
1 54 7 7 11 57 13 104 4z"/>
<path d="M53 712 c-15 -10 -25 -49 -18 -71 5 -17 15 -19 68 -18 l62 2 -3 -48
c-2 -26 1 -53 7 -61 13 -16 13 -154 -1 -162 -5 -4 -7 -21 -3 -40 3 -19 1 -43
-6 -55 -9 -19 -7 -26 19 -52 l30 -30 91 83 c50 46 91 85 91 87 0 1 -7 21 -16
44 l-17 41 -51 -51 -51 -51 3 80 c3 54 1 80 -7 80 -13 0 -15 47 -1 52 5 2 10
38 12 81 2 61 0 80 -12 87 -17 11 -181 12 -197 2z"/>
<path d="M467 333 c-30 -43 -77 -100 -106 -128 -28 -27 -51 -52 -51 -55 0 -6
81 -40 96 -40 9 0 199 238 199 249 0 3 -19 16 -42 29 l-41 22 -55 -77z"/>
<path d="M713 379 c-18 -12 -33 -23 -33 -26 0 -3 22 -29 49 -60 27 -30 68 -83
92 -118 24 -36 47 -65 52 -65 11 0 87 52 87 60 0 13 -192 230 -203 230 -7 0
-27 -10 -44 -21z"/>
</g>
</svg>
