<?xml version="1.0" standalone="no"?>
<!DOCTYPE svg PUBLIC "-//W3C//DTD SVG 20010904//EN"
 "http://www.w3.org/TR/2001/REC-SVG-20010904/DTD/svg10.dtd">
<svg version="1.0" xmlns="http://www.w3.org/2000/svg"
 width="101.000000pt" height="101.000000pt" viewBox="0 0 101.000000 101.000000"
 preserveAspectRatio="xMidYMid meet">
<metadata>
Created by potrace 1.16, written by Peter Selinger 2001-2019
</metadata>
<g transform="translate(0.000000,101.000000) scale(0.100000,-0.100000)"
fill="#000000" stroke="none">
<path d="M604 928 c2 -46 5 -94 8 -108 l5 -25 -161 0 -161 0 -3 -32 c-4 -41
14 -77 35 -69 9 4 78 8 155 9 100 2 137 0 134 -9 -4 -10 6 -98 18 -164 3 -14
7 -36 10 -50 2 -14 15 -61 28 -106 37 -125 93 -211 166 -251 39 -23 39 -23 65
-3 25 20 49 69 61 125 6 28 2 34 -38 62 -45 32 -45 32 -52 10 -6 -19 -9 -35
-13 -69 -2 -18 -18 -5 -48 40 -36 53 -71 145 -78 207 -2 22 -7 58 -10 80 -4
22 -7 60 -8 85 l-2 45 75 -1 c41 -1 84 -5 96 -9 39 -12 62 28 48 82 -6 21 -11
22 -117 21 -108 -1 -112 0 -115 21 -2 12 1 27 6 34 5 7 10 42 10 78 0 66 0 67
-30 73 -17 3 -43 6 -58 6 l-28 0 2 -82z"/>
<path d="M772 944 l-33 -14 27 -48 c15 -26 30 -51 34 -55 6 -6 83 16 99 29 2
2 -11 26 -29 54 -34 53 -45 57 -98 34z"/>
<path d="M128 929 c-43 -22 -45 -27 -20 -60 11 -13 32 -46 47 -74 16 -27 30
-52 31 -53 5 -7 94 50 94 61 0 12 -101 147 -109 147 -4 -1 -23 -10 -43 -21z"/>
<path d="M175 680 c-11 -5 -50 -6 -86 -3 -75 6 -85 -2 -73 -63 5 -29 11 -34
41 -40 19 -4 44 -2 56 3 l22 10 0 -181 c0 -120 -4 -188 -12 -201 -10 -18 -7
-26 21 -60 l33 -39 34 40 c19 21 59 66 90 99 l57 60 -21 37 c-12 21 -25 38
-28 38 -4 0 -24 -22 -45 -50 -21 -27 -38 -50 -39 -50 0 0 -1 83 -2 185 -1 111
2 185 8 185 15 0 10 27 -7 34 -19 7 -23 7 -49 -4z"/>
<path d="M348 599 c-18 -10 -24 -55 -10 -75 12 -18 39 -23 70 -14 26 7 30 5
31 -14 0 -11 3 -50 6 -86 7 -82 -1 -134 -20 -127 -7 3 -30 0 -51 -6 -41 -12
-42 -17 -29 -74 8 -35 20 -36 94 -14 19 6 37 9 39 6 3 -2 13 0 22 5 10 5 33
12 51 14 70 10 93 21 100 49 9 33 1 67 -14 62 -7 -3 -23 -6 -37 -9 -14 -2 -37
-7 -52 -11 -24 -6 -27 -4 -32 27 -3 18 -3 58 -1 88 3 30 5 65 6 77 1 19 6 21
39 17 32 -4 40 -1 45 16 4 11 4 33 0 48 l-6 27 -117 2 c-64 1 -125 -3 -134 -8z"/>
</g>
</svg>
