<?xml version="1.0" standalone="no"?>
<!DOCTYPE svg PUBLIC "-//W3C//DTD SVG 20010904//EN"
 "http://www.w3.org/TR/2001/REC-SVG-20010904/DTD/svg10.dtd">
<svg version="1.0" xmlns="http://www.w3.org/2000/svg"
 width="101.000000pt" height="101.000000pt" viewBox="0 0 101.000000 101.000000"
 preserveAspectRatio="xMidYMid meet">
<metadata>
Created by potrace 1.16, written by Peter Selinger 2001-2019
</metadata>
<g transform="translate(0.000000,101.000000) scale(0.100000,-0.100000)"
fill="#000000" stroke="none">
<path d="M550 965 c-27 -95 -153 -275 -194 -275 -12 0 -11 -8 3 -47 14 -39 23
-49 49 -57 21 -6 41 -5 62 4 16 7 56 14 87 15 103 5 197 12 231 17 29 4 35 0
49 -26 9 -17 17 -32 18 -34 2 -2 26 8 55 23 l51 26 -20 32 c-45 72 -163 227
-173 227 -8 0 -44 -22 -77 -46 -2 -2 18 -28 45 -59 56 -66 51 -76 -38 -73 -32
1 -61 -2 -65 -5 -11 -11 -71 -8 -79 4 -3 6 -17 9 -30 6 -30 -5 -30 -3 4 42 16
20 52 71 81 114 29 43 59 81 67 84 25 9 15 24 -28 42 -84 36 -84 36 -98 -14z"/>
<path d="M174 958 l-42 -21 54 -79 c30 -43 54 -83 54 -88 0 -16 21 -11 66 15
l44 26 -57 84 c-31 47 -61 85 -67 84 -6 0 -30 -10 -52 -21z"/>
<path d="M68 704 c-19 -6 -33 -54 -23 -83 5 -16 14 -18 63 -16 l57 3 -3 -49
c-2 -27 1 -55 7 -63 13 -16 13 -147 -1 -163 -6 -7 -8 -24 -4 -37 3 -13 1 -38
-5 -55 -10 -28 -8 -35 18 -65 15 -19 31 -35 34 -35 3 -1 43 40 89 90 78 85 82
92 70 114 -7 13 -13 34 -14 47 -2 36 -22 27 -59 -25 l-34 -48 -6 73 c-9 122
-8 186 2 193 6 3 10 22 10 43 -1 67 -4 70 -67 70 -31 -1 -70 2 -87 5 -16 3
-38 3 -47 1z"/>
<path d="M414 523 c-14 -10 -17 -150 -4 -158 13 -8 12 -111 0 -199 -6 -38 -8
-71 -6 -73 2 -3 22 -7 43 -10 45 -6 79 17 68 46 -23 57 -26 56 118 56 l133 0
0 -45 c-1 -42 1 -45 28 -48 46 -6 75 6 82 33 3 14 2 31 -4 38 -16 19 -28 267
-13 267 6 0 11 18 11 45 0 40 -3 45 -26 51 -14 4 -35 2 -47 -3 -23 -11 -288
-9 -342 2 -16 3 -35 2 -41 -2z m262 -79 l89 -7 0 -87 0 -87 -130 1 -130 1 0
92 0 93 41 0 c22 0 81 -3 130 -6z"/>
</g>
</svg>
