<?xml version="1.0" standalone="no"?>
<!DOCTYPE svg PUBLIC "-//W3C//DTD SVG 20010904//EN"
 "http://www.w3.org/TR/2001/REC-SVG-20010904/DTD/svg10.dtd">
<svg version="1.0" xmlns="http://www.w3.org/2000/svg"
 width="101.000000pt" height="101.000000pt" viewBox="0 0 101.000000 101.000000"
 preserveAspectRatio="xMidYMid meet">
<metadata>
Created by potrace 1.16, written by Peter Selinger 2001-2019
</metadata>
<g transform="translate(0.000000,101.000000) scale(0.100000,-0.100000)"
fill="#000000" stroke="none">
<path d="M153 969 c-18 -12 -33 -23 -33 -25 0 -3 17 -28 39 -57 21 -29 46 -67
55 -84 9 -18 19 -33 21 -33 15 0 95 46 95 54 0 18 -114 161 -130 163 -8 2 -30
-6 -47 -18z"/>
<path d="M375 936 c-4 -20 -2 -43 5 -56 11 -21 16 -22 92 -15 55 4 78 3 74 -4
-4 -6 -9 -27 -12 -48 -11 -87 -81 -175 -171 -215 l-44 -20 38 -33 c21 -19 44
-34 51 -35 8 0 12 -19 12 -60 0 -33 4 -60 10 -60 6 0 10 -16 10 -35 0 -19 -4
-35 -10 -35 -5 0 -10 -18 -10 -40 0 -23 5 -40 11 -40 8 0 9 -19 5 -64 -8 -71
-2 -78 62 -68 32 4 38 17 34 73 -1 11 7 17 21 18 12 0 54 3 92 6 39 3 84 3
101 0 30 -5 32 -8 30 -50 -1 -49 6 -54 67 -47 l37 4 0 77 c0 42 2 121 5 176 3
55 3 114 0 130 l-5 30 -197 2 c-109 1 -205 2 -213 3 -8 0 7 22 36 53 28 28 60
66 71 82 25 37 65 141 68 175 4 39 4 40 21 33 8 -3 26 0 38 6 12 7 38 11 56 9
38 -3 36 9 24 -123 -8 -99 -9 -100 -72 -100 -41 0 -47 -2 -44 -20 1 -11 4 -35
6 -54 6 -55 42 -65 120 -30 51 22 79 56 82 100 1 15 4 32 8 37 3 5 8 42 11 83
7 79 12 128 15 144 8 38 1 42 -75 44 -46 1 -75 -2 -75 -9 0 -6 -31 -10 -80
-10 -47 0 -80 4 -80 10 0 6 -18 10 -40 10 -22 0 -40 -4 -40 -10 0 -5 -25 -10
-55 -10 -30 0 -55 5 -55 10 0 6 -7 10 -15 10 -8 0 -17 -14 -20 -34z m402 -576
c1 -66 -2 -80 -15 -84 -28 -8 -106 -5 -117 4 -5 4 -34 7 -63 7 -59 -2 -57 -5
-46 90 8 59 -2 56 159 60 l80 3 2 -80z"/>
<path d="M35 701 c-3 -11 -3 -30 0 -43 5 -21 10 -23 64 -20 l59 4 4 -174 c3
-121 1 -182 -8 -204 -11 -30 -10 -34 21 -64 l34 -33 95 89 c53 48 95 91 93 94
-2 3 -12 24 -22 48 -10 23 -21 42 -24 42 -3 -1 -24 -24 -45 -52 -38 -49 -40
-50 -48 -27 -5 13 -7 44 -3 69 3 25 7 97 9 162 l3 116 -91 6 c-132 8 -134 8
-141 -13z"/>
</g>
</svg>
