<?xml version="1.0" standalone="no"?>
<!DOCTYPE svg PUBLIC "-//W3C//DTD SVG 20010904//EN"
 "http://www.w3.org/TR/2001/REC-SVG-20010904/DTD/svg10.dtd">
<svg version="1.0" xmlns="http://www.w3.org/2000/svg"
 width="101.000000pt" height="102.000000pt" viewBox="0 0 101.000000 102.000000"
 preserveAspectRatio="xMidYMid meet">
<metadata>
Created by potrace 1.16, written by Peter Selinger 2001-2019
</metadata>
<g transform="translate(0.000000,102.000000) scale(0.100000,-0.100000)"
fill="#000000" stroke="none">
<path d="M496 953 c-19 -38 -55 -92 -81 -121 -48 -53 -49 -65 -10 -75 19 -5
19 -5 -2 -12 -21 -7 -21 -10 -18 -183 3 -197 -3 -238 -25 -173 -7 23 -17 41
-21 41 -4 0 -25 -21 -46 -47 l-38 -46 -6 64 c-11 104 -10 199 1 199 6 0 10 24
10 53 l0 52 -115 1 c-110 2 -115 1 -120 -20 -3 -11 -1 -34 3 -51 8 -29 10 -30
68 -30 l59 0 0 -165 c0 -91 -3 -172 -7 -180 -5 -10 4 -28 22 -50 l30 -34 73
70 c39 39 80 76 89 83 17 13 17 11 4 -27 -22 -62 -44 -100 -83 -143 -20 -22
-34 -41 -32 -44 3 -2 16 -6 29 -8 14 -3 37 -8 52 -12 24 -6 30 -2 54 37 42 65
77 157 81 213 2 28 4 109 3 181 l-1 131 61 -4 c37 -2 67 0 75 7 10 8 62 9 179
4 l165 -7 6 26 c15 58 9 61 -106 62 l-105 0 43 71 c24 39 43 76 43 82 0 18
-27 21 -55 6 -32 -16 -81 -19 -90 -4 -3 6 -28 9 -56 7 -27 -1 -49 0 -49 3 0 3
14 22 31 43 l30 37 -23 9 c-13 5 -37 12 -55 15 -31 7 -33 6 -67 -61z m188
-121 c3 -5 -6 -26 -19 -48 l-24 -39 -95 0 -95 0 40 41 c30 31 46 40 63 37 13
-3 27 0 30 6 8 13 92 15 100 3z"/>
<path d="M155 973 c-37 -9 -38 -21 -7 -71 18 -26 37 -63 43 -80 10 -29 15 -32
43 -28 42 5 66 16 66 30 0 6 -19 43 -43 81 -42 70 -57 79 -102 68z"/>
<path d="M540 584 c-16 -41 -3 -422 14 -449 17 -26 83 -48 106 -35 9 5 64 8
122 7 93 -1 109 1 128 18 43 38 70 135 37 135 -5 0 -25 11 -43 25 l-32 25 -7
-33 c-17 -79 -70 -119 -133 -101 -15 4 -39 8 -55 9 -47 4 -57 21 -57 95 0 45
4 70 13 74 10 5 10 7 0 12 -15 7 -18 74 -3 74 6 0 10 16 10 35 0 27 4 35 19
35 10 0 39 3 64 6 l45 6 -5 -38 c-3 -22 -6 -50 -7 -64 -3 -23 -7 -25 -50 -24
-32 1 -45 -2 -42 -10 3 -6 11 -30 17 -53 18 -58 38 -61 127 -20 26 12 56 62
47 77 -3 5 -1 18 4 28 6 11 11 54 12 97 2 80 -8 102 -41 89 -19 -7 -192 -6
-242 2 -34 6 -39 4 -48 -22z"/>
</g>
</svg>
