<?xml version="1.0" standalone="no"?>
<!DOCTYPE svg PUBLIC "-//W3C//DTD SVG 20010904//EN"
 "http://www.w3.org/TR/2001/REC-SVG-20010904/DTD/svg10.dtd">
<svg version="1.0" xmlns="http://www.w3.org/2000/svg"
 width="101.000000pt" height="101.000000pt" viewBox="0 0 101.000000 101.000000"
 preserveAspectRatio="xMidYMid meet">
<metadata>
Created by potrace 1.16, written by Peter Selinger 2001-2019
</metadata>
<g transform="translate(0.000000,101.000000) scale(0.100000,-0.100000)"
fill="#000000" stroke="none">
<path d="M155 979 c-43 -20 -45 -28 -14 -71 11 -15 30 -52 42 -82 l22 -53 53
20 c28 11 52 25 52 31 0 16 -99 176 -108 175 -4 0 -25 -9 -47 -20z"/>
<path d="M800 964 c-25 -8 -54 -18 -65 -24 -11 -6 -31 -8 -44 -5 -14 2 -38 -2
-54 -10 -36 -18 -51 -19 -76 -3 -14 8 -26 9 -42 2 -14 -6 -42 -7 -71 -3 -71
11 -77 7 -73 -54 9 -114 3 -404 -9 -462 -3 -11 -5 -22 -5 -24 -3 -13 -31 26
-36 50 -6 26 -24 41 -25 22 -1 -5 -13 -22 -28 -40 l-27 -32 2 107 c1 59 5 132
8 163 5 39 3 59 -5 64 -7 4 -56 9 -110 12 -117 5 -136 -6 -125 -66 4 -20 12
-39 18 -43 17 -11 75 -10 95 1 16 8 17 -4 17 -152 -1 -89 -4 -168 -9 -175 -6
-9 3 -25 25 -48 l33 -34 84 82 c62 62 82 77 77 58 -11 -39 -54 -108 -93 -152
-19 -21 -32 -42 -28 -45 4 -4 28 -15 54 -25 47 -18 47 -18 64 5 48 62 92 169
114 277 14 70 24 179 19 208 l-6 32 76 0 c49 0 75 -4 75 -11 0 -9 33 -10 121
-5 87 5 124 4 135 -4 19 -17 61 -4 69 20 4 11 3 34 0 51 -6 28 -10 30 -34 24
-50 -13 -132 -17 -144 -7 -15 13 -115 14 -123 1 -7 -13 -48 -11 -61 2 -6 6
-33 10 -62 8 -40 -3 -50 -1 -46 9 3 8 5 29 5 47 0 36 8 39 110 49 25 2 72 7
105 10 33 4 94 6 135 6 104 -1 109 5 60 71 -23 30 -44 55 -48 55 -4 1 -27 -4
-52 -12z"/>
<path d="M497 542 c-3 -4 -3 -41 -1 -82 4 -69 5 -128 5 -180 0 -11 1 -35 2
-52 1 -18 -2 -52 -6 -74 -9 -47 0 -54 63 -47 35 5 35 6 34 48 -1 37 1 43 20
44 11 1 46 3 76 6 30 2 67 2 82 -1 25 -5 26 -8 22 -48 -6 -49 4 -56 67 -48
l36 4 -10 59 c-6 44 -5 64 4 75 9 11 9 18 1 26 -15 15 -16 74 -2 83 6 3 9 45
8 96 l-1 90 -64 -7 c-44 -4 -63 -3 -63 5 0 6 -17 11 -40 11 -22 0 -40 -4 -40
-10 0 -5 -16 -10 -35 -10 -19 0 -35 5 -35 10 0 12 -116 14 -123 2z m271 -78
c33 -7 33 -9 32 -118 0 -33 -3 -62 -6 -65 -3 -3 -40 -5 -82 -4 -129 3 -119 -2
-126 60 -4 30 -2 62 4 73 5 10 8 25 5 32 -4 10 8 13 50 11 30 -1 57 3 60 8 7
11 21 11 63 3z"/>
</g>
</svg>
