<?xml version="1.0" standalone="no"?>
<!DOCTYPE svg PUBLIC "-//W3C//DTD SVG 20010904//EN"
 "http://www.w3.org/TR/2001/REC-SVG-20010904/DTD/svg10.dtd">
<svg version="1.0" xmlns="http://www.w3.org/2000/svg"
 width="101.000000pt" height="101.000000pt" viewBox="0 0 101.000000 101.000000"
 preserveAspectRatio="xMidYMid meet">
<metadata>
Created by potrace 1.16, written by Peter Selinger 2001-2019
</metadata>
<g transform="translate(0.000000,101.000000) scale(0.100000,-0.100000)"
fill="#000000" stroke="none">
<path d="M580 1000 c0 -5 5 -10 10 -10 11 0 13 -99 2 -116 -10 -17 -169 -29
-186 -15 -18 15 -64 10 -71 -8 -3 -7 -3 -29 1 -47 l6 -34 122 3 121 3 0 -65 0
-66 -70 2 c-38 1 -82 5 -98 9 -35 8 -57 -10 -57 -47 0 -47 21 -58 110 -58 44
0 82 4 85 9 9 14 69 12 83 -2 8 -8 15 -8 26 1 10 9 48 11 135 7 l121 -5 6 24
c12 49 0 60 -68 59 -35 -1 -88 0 -118 3 l-55 5 0 62 0 61 83 -1 c46 -1 86 -5
89 -8 12 -12 72 -6 87 10 17 16 21 61 8 80 -10 14 -102 19 -102 5 0 -6 -16
-11 -35 -11 -19 0 -35 5 -35 10 0 6 -18 10 -39 10 -37 0 -39 1 -43 38 -3 20
-1 48 4 60 4 13 6 28 2 33 -7 12 -124 12 -124 -1z"/>
<path d="M143 957 c-24 -12 -43 -25 -43 -30 0 -5 11 -23 26 -39 14 -17 36 -53
50 -79 13 -27 28 -49 32 -49 12 0 92 44 92 51 0 9 -97 156 -107 162 -4 2 -27
-5 -50 -16z"/>
<path d="M48 693 c-21 -5 -33 -43 -24 -79 6 -21 12 -25 39 -23 85 6 87 5 87
-56 0 -30 5 -55 10 -55 6 0 10 -16 10 -35 0 -19 -5 -35 -11 -35 -8 0 -10 -20
-5 -68 4 -41 3 -80 -4 -96 -9 -24 -7 -32 17 -61 16 -19 33 -34 38 -34 6 -1 47
36 93 82 l82 82 -18 48 -19 49 -44 -52 -44 -51 2 163 c1 90 4 170 8 179 8 22
-23 52 -44 43 -18 -8 -118 -9 -141 -1 -8 2 -23 3 -32 0z"/>
<path d="M407 493 c-8 -14 -5 -143 3 -148 13 -8 11 -145 -2 -197 -6 -26 -8
-51 -4 -55 7 -7 85 -7 93 0 2 3 5 23 6 45 1 32 5 40 22 41 11 0 56 3 100 6
101 7 145 0 143 -23 -5 -60 9 -73 70 -64 l33 4 -1 67 c-1 36 -1 76 -1 89 0 12
0 41 -1 65 0 23 3 54 7 69 4 15 4 44 1 64 l-7 36 -141 -7 c-114 -6 -142 -5
-150 6 -7 11 -11 11 -15 2 -6 -15 -73 -18 -73 -3 0 12 -77 14 -83 3z m334 -79
c40 -6 40 -6 41 -97 0 -26 -3 -51 -7 -55 -3 -4 -57 -6 -118 -5 -165 3 -155 0
-162 43 -4 22 -2 47 4 59 6 11 8 27 4 36 -5 14 -2 16 13 11 10 -3 25 -2 33 3
16 10 140 13 192 5z"/>
</g>
</svg>
