<?xml version="1.0" standalone="no"?>
<!DOCTYPE svg PUBLIC "-//W3C//DTD SVG 20010904//EN"
 "http://www.w3.org/TR/2001/REC-SVG-20010904/DTD/svg10.dtd">
<svg version="1.0" xmlns="http://www.w3.org/2000/svg"
 width="101.000000pt" height="101.000000pt" viewBox="0 0 101.000000 101.000000"
 preserveAspectRatio="xMidYMid meet">
<metadata>
Created by potrace 1.16, written by Peter Selinger 2001-2019
</metadata>
<g transform="translate(0.000000,101.000000) scale(0.100000,-0.100000)"
fill="#000000" stroke="none">
<path d="M145 983 c-22 -9 -41 -17 -42 -18 -2 -1 15 -36 37 -79 22 -42 40 -84
40 -91 0 -12 10 -11 53 6 28 11 54 22 56 24 5 6 -83 168 -94 171 -6 2 -28 -4
-50 -13z"/>
<path d="M329 981 c-13 -5 -16 -23 -16 -91 -1 -92 4 -100 52 -100 46 0 58 12
51 54 l-6 36 45 0 c25 0 45 5 45 10 0 6 16 10 35 10 20 0 35 -5 35 -11 0 -9
32 -10 119 -5 l118 7 -4 -37 c-4 -42 7 -54 52 -54 36 0 63 14 46 24 -14 9 -14
79 0 93 6 6 9 22 6 35 -6 22 -10 23 -126 26 -71 2 -122 -1 -125 -7 -8 -12
-173 -14 -181 -1 -3 5 -29 8 -58 8 -29 -1 -57 1 -62 4 -6 3 -17 3 -26 -1z"/>
<path d="M515 819 l-20 -52 -60 1 c-33 1 -70 4 -82 8 -28 8 -47 -26 -38 -67 6
-27 16 -35 40 -29 20 5 95 5 95 0 0 -17 -76 -114 -101 -129 -17 -11 -26 -21
-21 -25 5 -3 13 -21 16 -40 7 -34 7 -35 49 -30 23 3 56 6 73 8 17 2 36 6 43
10 6 4 29 5 49 1 37 -6 38 -7 40 -50 1 -42 0 -44 -31 -50 -17 -3 -61 -3 -97 0
-36 3 -82 6 -102 7 -32 2 -38 7 -44 30 -6 32 -20 36 -28 11 -4 -10 -14 -28
-24 -40 -16 -22 -17 -15 -13 165 l3 187 -81 -3 c-57 -3 -81 -1 -81 8 0 7 -12
10 -31 8 -31 -3 -31 -4 -32 -58 -1 -53 0 -55 23 -52 14 1 41 3 60 5 l35 2 -3
-75 c-1 -41 2 -84 9 -96 11 -22 -2 -188 -19 -221 -7 -14 -1 -25 28 -50 l37
-33 64 82 c50 63 65 77 67 60 4 -25 30 -32 79 -22 20 5 40 7 45 4 4 -3 17 0
29 6 12 7 37 9 59 5 43 -7 42 -5 40 -126 -1 -84 4 -91 67 -82 26 4 32 10 36
36 3 18 -2 46 -10 64 -11 23 -12 36 -4 51 6 12 8 28 4 38 -5 13 -3 16 10 11
10 -4 28 -2 40 4 17 8 41 7 83 -1 32 -7 73 -13 91 -14 29 -2 32 1 36 34 6 57
0 70 -32 59 -14 -5 -62 -7 -106 -4 -44 3 -90 6 -102 6 -20 1 -22 6 -21 44 2
47 -5 44 108 48 36 1 75 -2 86 -6 19 -7 22 -3 26 25 8 52 0 68 -27 58 -13 -5
-52 -7 -87 -4 -35 2 -73 5 -84 5 -23 1 -24 11 -10 76 7 29 5 33 -19 39 -14 4
-41 2 -58 -3 -33 -10 -33 -8 -24 -85 3 -24 -1 -29 -29 -34 -17 -3 -41 -1 -52
5 -11 6 -28 8 -37 5 -9 -4 4 22 30 60 l47 66 96 1 c53 1 102 0 107 -2 15 -5
144 -3 150 2 3 3 8 19 11 36 8 40 -18 67 -55 57 -14 -3 -81 -7 -147 -8 l-122
-1 20 28 c11 15 24 27 30 27 22 0 0 24 -33 36 -62 23 -72 19 -94 -37z"/>
</g>
</svg>
