<?xml version="1.0" standalone="no"?>
<!DOCTYPE svg PUBLIC "-//W3C//DTD SVG 20010904//EN"
 "http://www.w3.org/TR/2001/REC-SVG-20010904/DTD/svg10.dtd">
<svg version="1.0" xmlns="http://www.w3.org/2000/svg"
 width="101.000000pt" height="101.000000pt" viewBox="0 0 101.000000 101.000000"
 preserveAspectRatio="xMidYMid meet">
<metadata>
Created by potrace 1.16, written by Peter Selinger 2001-2019
</metadata>
<g transform="translate(0.000000,101.000000) scale(0.100000,-0.100000)"
fill="#000000" stroke="none">
<path d="M165 978 c-11 -6 -30 -17 -43 -25 l-22 -14 24 -32 c13 -18 34 -52 46
-77 12 -25 24 -46 25 -48 7 -8 85 44 85 57 0 16 -64 123 -83 139 -8 7 -18 7
-32 0z"/>
<path d="M368 974 c-18 -6 -32 -47 -23 -74 3 -10 16 -21 28 -24 36 -9 127 -7
148 4 15 8 19 7 19 -4 0 -8 -5 -18 -10 -21 -6 -4 -10 -12 -9 -18 3 -28 -4 -32
-53 -30 -75 3 -95 -3 -102 -33 -15 -59 20 -85 85 -64 43 15 59 9 39 -15 -7 -9
-10 -18 -7 -21 3 -3 1 -19 -5 -35 -10 -29 -11 -29 -67 -23 -69 8 -100 8 -109
0 -7 -8 -6 -75 1 -83 8 -7 44 -6 92 2 47 8 208 9 280 2 28 -3 65 -1 82 6 26 9
43 8 81 -5 66 -21 109 -14 115 19 12 63 -7 74 -109 59 l-31 -5 8 52 c5 29 11
71 13 93 l5 41 -104 7 c-58 4 -109 5 -114 2 -9 -6 -8 10 2 58 3 16 13 18 63
18 32 -1 74 -4 92 -8 17 -3 52 -3 76 0 36 6 45 11 50 32 12 48 1 60 -52 57
-243 -13 -284 -14 -295 -5 -7 6 -35 11 -62 11 -28 0 -63 3 -80 5 -16 2 -37 2
-47 0z m354 -289 c-2 -22 -4 -48 -5 -57 -2 -21 -77 -34 -106 -19 -11 6 -27 8
-37 4 -14 -5 -16 -2 -10 18 12 41 14 53 15 77 1 22 4 23 74 20 l72 -3 -3 -40z"/>
<path d="M36 706 c-11 -43 1 -65 40 -72 19 -3 46 -4 60 -1 18 3 24 1 20 -9 -3
-7 0 -25 6 -41 8 -22 7 -41 -5 -83 -11 -37 -13 -59 -6 -72 12 -23 -4 -152 -22
-174 -10 -12 -6 -21 22 -52 19 -20 34 -38 35 -39 0 -1 42 39 93 89 l92 91 -18
34 c-10 19 -22 37 -27 40 -5 3 -28 -16 -52 -43 -35 -41 -44 -46 -49 -31 -4 9
-4 25 1 35 4 9 9 60 11 112 1 52 5 111 8 130 8 44 9 89 3 95 -2 3 -50 8 -105
11 l-100 7 -7 -27z"/>
<path d="M389 462 c-1 -9 0 -21 1 -27 16 -65 21 -199 9 -253 -7 -28 -9 -55 -5
-59 8 -8 86 -7 94 2 3 3 5 18 5 34 0 22 5 29 21 30 12 0 55 3 96 6 41 3 89 3
107 0 30 -5 32 -8 28 -39 -5 -39 7 -45 67 -38 29 3 37 9 41 30 3 14 -1 43 -9
64 -14 39 -11 157 6 223 9 37 2 40 -93 37 -154 -5 -280 -4 -324 2 -36 4 -43 3
-44 -12z m332 -68 c19 -4 27 -12 27 -27 1 -12 4 -35 7 -52 10 -54 -3 -60 -117
-58 -151 3 -147 2 -154 30 -4 13 -2 35 4 49 7 13 9 31 5 40 -5 13 -2 15 13 10
10 -3 25 -2 33 3 15 10 143 13 182 5z"/>
</g>
</svg>
