<?xml version="1.0" standalone="no"?>
<!DOCTYPE svg PUBLIC "-//W3C//DTD SVG 20010904//EN"
 "http://www.w3.org/TR/2001/REC-SVG-20010904/DTD/svg10.dtd">
<svg version="1.0" xmlns="http://www.w3.org/2000/svg"
 width="101.000000pt" height="101.000000pt" viewBox="0 0 101.000000 101.000000"
 preserveAspectRatio="xMidYMid meet">
<metadata>
Created by potrace 1.16, written by Peter Selinger 2001-2019
</metadata>
<g transform="translate(0.000000,101.000000) scale(0.100000,-0.100000)"
fill="#000000" stroke="none">
<path d="M138 959 c-21 -11 -38 -22 -38 -24 0 -3 15 -26 34 -52 18 -27 41 -63
50 -81 l17 -33 39 22 c22 13 40 28 40 35 0 13 -91 154 -100 154 -3 -1 -22 -10
-42 -21z"/>
<path d="M356 945 c-4 -14 -4 -31 0 -36 10 -16 11 -131 2 -158 -16 -46 -3 -58
66 -60 36 -1 67 3 71 9 8 12 52 13 59 1 8 -13 107 -12 123 0 13 11 138 8 163
-4 13 -6 15 12 17 131 l1 139 -64 2 c-38 1 -64 -2 -64 -9 0 -6 -32 -10 -80
-10 -47 0 -80 4 -80 10 0 6 -18 10 -40 10 -22 0 -40 -4 -40 -10 0 -5 -25 -10
-55 -10 -30 0 -55 5 -55 10 0 21 -18 9 -24 -15z m334 -62 l65 -5 0 -49 0 -49
-150 2 -150 3 4 43 c2 33 7 42 21 42 11 0 22 5 25 10 7 11 74 12 185 3z"/>
<path d="M48 719 c-19 -11 -24 -55 -8 -79 7 -11 25 -15 65 -14 l55 2 0 -74 c0
-49 -4 -74 -12 -74 -8 0 -9 -28 -5 -99 4 -64 2 -110 -5 -129 -10 -26 -8 -33
13 -60 13 -17 27 -31 30 -31 10 -1 154 148 157 162 1 7 -9 26 -23 42 l-25 30
-31 -35 -31 -35 6 150 c4 83 9 166 12 186 6 44 -17 74 -50 64 -28 -8 -97 -9
-116 -2 -8 4 -23 2 -32 -4z"/>
<path d="M354 643 c-16 -11 -26 -50 -19 -72 5 -18 14 -19 113 -15 l108 5 -1
-45 0 -45 -43 -7 c-24 -4 -54 -2 -70 5 -15 6 -54 10 -87 9 -59 -3 -60 -4 -63
-33 -4 -54 12 -62 94 -52 17 2 36 7 42 11 15 9 102 -3 102 -14 0 -18 -79 -107
-119 -135 -24 -16 -72 -39 -106 -50 l-63 -20 44 -38 44 -38 71 37 c81 43 157
112 186 168 l20 38 26 -44 c34 -59 120 -136 188 -170 l54 -27 15 22 c8 12 25
32 38 45 12 13 22 25 22 27 0 2 -18 9 -40 15 -102 28 -193 88 -225 151 -14 25
-13 27 8 28 12 0 58 3 101 6 47 3 94 1 114 -6 40 -13 44 -11 45 36 1 45 -17
59 -53 40 -29 -15 -129 -18 -145 -5 -5 5 -32 7 -60 7 l-50 -2 3 40 4 40 116 0
c67 0 120 4 124 10 13 17 9 53 -8 69 -15 16 -65 22 -76 10 -7 -7 -377 -5 -416
2 -15 2 -32 1 -38 -3z"/>
</g>
</svg>
