<?xml version="1.0" standalone="no"?>
<!DOCTYPE svg PUBLIC "-//W3C//DTD SVG 20010904//EN"
 "http://www.w3.org/TR/2001/REC-SVG-20010904/DTD/svg10.dtd">
<svg version="1.0" xmlns="http://www.w3.org/2000/svg"
 width="101.000000pt" height="101.000000pt" viewBox="0 0 101.000000 101.000000"
 preserveAspectRatio="xMidYMid meet">
<metadata>
Created by potrace 1.16, written by Peter Selinger 2001-2019
</metadata>
<g transform="translate(0.000000,101.000000) scale(0.100000,-0.100000)"
fill="#000000" stroke="none">
<path d="M588 1003 c13 -5 15 -87 3 -133 -5 -21 -12 -25 -48 -26 -35 0 -41 2
-38 18 2 10 13 31 24 47 l21 29 -33 12 c-17 6 -44 14 -59 16 -23 4 -28 2 -28
-15 0 -11 -4 -22 -9 -26 -5 -3 -10 -18 -9 -33 0 -33 -24 -101 -57 -161 -14
-24 -24 -45 -23 -46 7 -5 72 -25 82 -25 7 0 20 21 30 48 l19 47 61 0 61 0 2
-66 3 -66 -148 1 -147 1 -3 -24 c-2 -12 -1 -34 2 -47 6 -22 11 -24 71 -24 37
0 65 4 65 10 0 6 16 10 35 10 19 0 35 -4 35 -10 0 -5 18 -10 40 -10 22 0 40 5
40 10 0 15 67 12 73 -2 4 -10 8 -10 15 1 8 11 33 13 131 7 66 -3 127 -9 135
-12 19 -7 29 28 21 66 -8 35 -44 49 -78 31 -13 -6 -59 -10 -107 -8 l-85 2 0
61 0 62 72 6 c44 4 80 3 92 -4 40 -21 71 19 57 75 -6 24 -7 24 -116 22 l-110
-2 4 58 c3 32 10 65 16 72 20 24 1 35 -63 34 -34 0 -56 -3 -49 -6z"/>
<path d="M145 969 c-16 -10 -34 -20 -40 -22 -5 -2 4 -21 21 -43 17 -21 44 -61
59 -89 16 -27 30 -52 32 -54 3 -4 77 33 92 45 7 6 -114 184 -124 183 -5 0 -23
-9 -40 -20z"/>
<path d="M58 703 c-22 -6 -30 -29 -22 -68 5 -30 7 -32 52 -31 l47 1 0 -170 c0
-93 -4 -180 -8 -193 -7 -17 -1 -31 24 -63 l31 -40 90 89 89 89 -16 29 c-8 16
-15 34 -15 41 0 28 -20 19 -57 -27 l-40 -50 -8 152 c-5 108 -4 153 4 156 6 2
11 21 11 43 0 33 -3 39 -22 40 -13 1 -50 2 -83 4 -33 1 -67 1 -77 -2z"/>
<path d="M401 471 c-14 -9 -17 -43 -6 -101 13 -71 14 -146 3 -180 -6 -19 -12
-49 -13 -67 -1 -36 10 -42 68 -35 37 4 37 5 33 42 -4 33 -2 38 17 39 12 0 54
3 92 6 39 3 93 3 122 0 l52 -6 -4 -39 c-4 -43 6 -50 68 -42 29 3 37 8 32 19
-10 29 -16 283 -6 302 26 47 -25 87 -71 57 -25 -17 -163 -21 -173 -6 -3 4 -31
9 -62 9 -32 1 -76 4 -98 7 -22 2 -46 0 -54 -5z m320 -77 c51 -6 50 -3 51 -97
0 -26 -3 -51 -7 -55 -6 -6 -196 -7 -262 -2 -17 2 -23 11 -28 40 -4 22 -2 47 4
59 6 11 8 27 4 36 -5 14 -2 16 13 11 10 -3 25 -2 33 3 16 10 127 13 192 5z"/>
</g>
</svg>
