<?xml version="1.0" standalone="no"?>
<!DOCTYPE svg PUBLIC "-//W3C//DTD SVG 20010904//EN"
 "http://www.w3.org/TR/2001/REC-SVG-20010904/DTD/svg10.dtd">
<svg version="1.0" xmlns="http://www.w3.org/2000/svg"
 width="101.000000pt" height="101.000000pt" viewBox="0 0 101.000000 101.000000"
 preserveAspectRatio="xMidYMid meet">
<metadata>
Created by potrace 1.16, written by Peter Selinger 2001-2019
</metadata>
<g transform="translate(0.000000,101.000000) scale(0.100000,-0.100000)"
fill="#000000" stroke="none">
<path d="M578 1003 c15 -6 17 -113 2 -113 -5 0 -10 -18 -10 -40 0 -22 5 -40
11 -40 6 0 9 -19 7 -47 l-3 -46 -45 1 c-25 0 -67 4 -95 7 -55 7 -76 -2 -75
-31 0 -10 0 -58 0 -106 0 -49 4 -89 10 -93 12 -8 13 -52 1 -59 -12 -8 -13
-114 -1 -121 16 -10 11 -103 -6 -137 -18 -35 -12 -74 13 -80 10 -3 35 -3 56 0
36 4 38 6 32 30 -3 14 -3 59 1 99 l6 73 54 0 c30 0 54 5 54 10 0 6 16 10 35
10 19 0 35 -5 35 -11 0 -8 19 -10 63 -5 l62 6 -2 -42 c-1 -24 -2 -45 -2 -48
-1 -3 -23 -4 -51 -4 -27 1 -50 0 -50 -1 0 -1 7 -19 15 -39 9 -20 13 -41 10
-46 -14 -22 7 -38 47 -35 111 10 123 21 120 116 -2 43 1 69 8 69 5 0 10 22 10
50 0 28 -4 50 -10 50 -5 0 -10 11 -10 25 0 14 5 25 10 25 6 0 10 30 10 70 0
40 -4 70 -10 70 -5 0 -10 11 -10 25 0 14 5 25 10 25 6 0 10 20 10 45 0 48 -16
65 -64 65 -14 0 -26 2 -26 5 0 14 101 153 114 158 9 4 16 11 16 16 0 8 -81 61
-94 61 -3 0 -15 -19 -27 -42 -12 -24 -39 -67 -61 -96 -22 -30 -38 -55 -36 -56
1 -2 20 -11 41 -21 20 -9 37 -21 37 -26 0 -10 -3 -10 -77 -11 l-48 -1 -3 42
c-2 23 1 48 6 54 6 7 10 39 10 73 0 33 5 71 11 83 18 33 5 41 -62 40 -34 0
-56 -3 -49 -6z m67 -363 c4 -6 35 -9 71 -7 59 3 64 1 64 -17 0 -12 3 -31 6
-44 l7 -23 -161 3 -161 3 2 40 2 40 48 -4 c27 -1 54 2 60 8 14 14 54 14 62 1z
m140 -203 l0 -44 -155 1 -155 1 0 37 -1 37 136 4 c74 1 144 4 155 5 17 2 20
-4 20 -41z"/>
<path d="M138 979 c-21 -11 -38 -22 -38 -25 0 -3 13 -24 29 -47 15 -23 38 -61
50 -84 12 -24 23 -43 26 -43 15 0 95 46 95 54 0 17 -102 166 -114 166 -6 -1
-28 -10 -48 -21z"/>
<path d="M377 939 l-37 -20 39 -52 c21 -29 46 -67 55 -84 9 -18 19 -33 22 -33
13 0 84 41 84 49 0 18 -100 161 -112 161 -7 -1 -30 -10 -51 -21z"/>
<path d="M36 714 c-3 -8 -3 -33 0 -54 l6 -38 54 3 54 2 0 -73 c0 -49 -4 -74
-12 -74 -8 0 -9 -29 -5 -106 5 -68 3 -113 -4 -125 -8 -17 -5 -27 23 -59 18
-21 35 -37 38 -37 3 1 40 38 82 82 l77 81 -18 58 -18 59 -32 -46 c-17 -25 -36
-49 -42 -53 -11 -6 -8 131 6 336 l4 55 -103 2 c-87 3 -105 0 -110 -13z"/>
</g>
</svg>
