<?xml version="1.0" standalone="no"?>
<!DOCTYPE svg PUBLIC "-//W3C//DTD SVG 20010904//EN"
 "http://www.w3.org/TR/2001/REC-SVG-20010904/DTD/svg10.dtd">
<svg version="1.0" xmlns="http://www.w3.org/2000/svg"
 width="101.000000pt" height="101.000000pt" viewBox="0 0 101.000000 101.000000"
 preserveAspectRatio="xMidYMid meet">
<metadata>
Created by potrace 1.16, written by Peter Selinger 2001-2019
</metadata>
<g transform="translate(0.000000,101.000000) scale(0.100000,-0.100000)"
fill="#000000" stroke="none">
<path d="M439 993 c-1 -10 0 -22 1 -28 1 -5 3 -26 3 -45 l2 -35 -45 3 c-65 5
-100 -11 -100 -45 0 -26 -3 -24 -30 22 -16 28 -42 65 -57 84 l-29 34 -42 -22
-43 -22 29 -42 c16 -23 39 -61 51 -84 12 -24 23 -43 25 -43 3 0 26 9 52 20 28
13 50 17 53 11 4 -5 34 -8 69 -7 60 3 62 3 56 -19 -9 -37 12 -65 49 -65 45 0
60 13 61 52 1 30 3 33 31 31 17 -1 48 -2 71 -2 39 -1 40 -2 50 -43 9 -45 25
-55 69 -44 20 5 22 10 18 48 l-5 43 81 -2 c78 -1 81 0 87 23 3 13 3 35 0 48
-5 22 -10 24 -80 22 l-75 -1 5 58 c5 62 10 58 -64 61 -38 1 -43 -10 -38 -74
l3 -45 -76 0 -77 0 7 55 c7 64 2 70 -63 70 -39 0 -48 -3 -49 -17z"/>
<path d="M550 689 c-7 -29 -19 -53 -29 -57 -19 -7 -73 -6 -116 2 -16 3 -43 8
-60 11 -42 8 -59 -7 -58 -50 1 -20 3 -39 6 -42 10 -9 49 -6 152 12 17 3 36 1
44 -4 22 -14 -50 -123 -142 -214 -44 -43 -78 -79 -76 -80 2 -1 23 -12 46 -24
l43 -21 41 46 c22 26 38 39 35 30 -2 -9 0 -30 6 -46 9 -24 8 -36 -4 -63 -19
-40 -13 -88 11 -91 57 -5 85 11 75 43 -3 12 2 17 18 18 13 0 55 3 93 6 39 3
84 3 102 0 30 -5 31 -8 26 -39 -6 -38 9 -47 65 -38 29 4 31 6 25 36 -8 38 -8
257 0 310 l6 38 -37 -8 c-31 -6 -168 -8 -250 -3 l-22 1 26 48 c18 33 33 48 47
49 82 6 231 5 278 -2 56 -8 57 -8 62 18 12 64 -26 90 -88 61 -26 -13 -53 -15
-117 -11 -46 3 -93 6 -105 6 -28 1 -28 7 -3 39 11 14 20 28 20 33 0 9 -46 28
-82 32 -24 4 -27 0 -38 -46z m191 -295 c18 -3 27 -12 29 -27 4 -49 1 -129 -5
-136 -4 -3 -50 -5 -103 -4 -150 3 -139 -1 -147 49 -3 24 -2 52 4 63 6 11 8 27
4 36 -5 14 -2 16 13 11 10 -3 25 -2 33 3 15 10 132 13 172 5z"/>
<path d="M24 695 c-11 -46 3 -73 42 -81 19 -4 45 -2 57 3 21 10 22 8 20 -41 0
-28 2 -55 7 -61 15 -18 11 -160 -5 -199 -8 -20 -13 -36 -10 -36 3 0 1 -9 -6
-21 -9 -18 -6 -26 21 -54 l32 -33 79 104 79 104 -22 35 c-13 19 -27 35 -31 35
-4 0 -17 -16 -28 -35 -12 -19 -23 -35 -25 -35 -3 0 -4 72 -2 159 2 88 0 162
-3 166 -4 3 -50 8 -103 10 -95 5 -96 5 -102 -20z"/>
</g>
</svg>
