<?xml version="1.0" standalone="no"?>
<!DOCTYPE svg PUBLIC "-//W3C//DTD SVG 20010904//EN"
 "http://www.w3.org/TR/2001/REC-SVG-20010904/DTD/svg10.dtd">
<svg version="1.0" xmlns="http://www.w3.org/2000/svg"
 width="101.000000pt" height="101.000000pt" viewBox="0 0 101.000000 101.000000"
 preserveAspectRatio="xMidYMid meet">
<metadata>
Created by potrace 1.16, written by Peter Selinger 2001-2019
</metadata>
<g transform="translate(0.000000,101.000000) scale(0.100000,-0.100000)"
fill="#000000" stroke="none">
<path d="M510 954 c-39 -70 -101 -138 -141 -154 -22 -9 -28 -17 -23 -29 3 -9
11 -29 16 -44 9 -24 15 -28 39 -25 16 3 29 0 29 -5 0 -20 -54 -115 -90 -158
l-39 -47 37 -15 37 -15 -30 -1 c-29 -1 -30 -3 -27 -38 2 -31 -3 -45 -32 -78
l-34 -40 -7 78 c-5 52 -4 81 4 90 6 9 10 58 10 130 -1 114 -5 126 -34 116 -5
-2 -50 -3 -100 -4 -87 0 -90 -1 -93 -24 -6 -38 7 -72 26 -70 9 1 32 1 50 0 31
-1 32 -3 32 -41 0 -22 5 -40 10 -40 6 0 10 -11 10 -25 0 -14 -5 -25 -11 -25
-9 0 -10 -32 -5 -118 4 -68 3 -129 -2 -143 -8 -21 -5 -30 23 -60 l32 -36 78
79 c76 77 77 79 65 109 -7 16 -10 32 -8 35 3 2 51 7 107 9 114 6 117 4 75 -57
-35 -50 -104 -94 -187 -120 l-68 -20 43 -39 42 -40 40 16 c93 38 209 137 223
192 5 22 7 20 25 -17 26 -52 85 -103 170 -146 69 -35 98 -42 98 -24 0 6 12 29
26 51 28 44 27 50 -8 55 -90 13 -161 48 -211 103 -20 23 -37 42 -37 44 0 1 58
1 130 0 129 -2 130 -2 136 22 3 12 4 33 2 46 -3 23 -5 23 -144 23 -130 1 -141
2 -133 18 5 9 9 29 9 45 l0 28 99 -1 99 -1 6 32 c12 60 13 60 -188 60 -168 0
-183 1 -170 16 20 22 18 28 -13 40 -39 15 -13 27 46 21 36 -3 52 0 65 13 15
15 29 17 94 11 44 -3 80 -11 84 -19 26 -42 24 -42 72 -16 25 13 46 26 46 29 0
8 -125 164 -144 179 -12 10 -23 10 -50 1 -20 -6 -39 -16 -42 -22 -3 -5 11 -27
31 -48 l37 -38 -46 -7 c-25 -4 -63 -4 -83 0 -21 4 -54 7 -74 8 l-37 1 61 68
c34 37 69 70 79 74 10 3 18 9 18 13 0 9 -86 51 -104 51 -8 0 -28 -25 -46 -56z
m57 -458 l3 -48 -83 7 c-45 4 -83 8 -85 10 -1 1 9 20 23 41 25 38 27 39 83 39
l57 0 2 -49z"/>
<path d="M150 954 c-19 -8 -36 -16 -38 -18 -2 -2 8 -22 22 -45 14 -22 33 -59
42 -81 18 -44 23 -46 76 -22 l37 17 -42 79 c-23 44 -47 81 -52 82 -6 2 -26 -4
-45 -12z"/>
</g>
</svg>
