<?xml version="1.0" standalone="no"?>
<!DOCTYPE svg PUBLIC "-//W3C//DTD SVG 20010904//EN"
 "http://www.w3.org/TR/2001/REC-SVG-20010904/DTD/svg10.dtd">
<svg version="1.0" xmlns="http://www.w3.org/2000/svg"
 width="101.000000pt" height="102.000000pt" viewBox="0 0 101.000000 102.000000"
 preserveAspectRatio="xMidYMid meet">
<metadata>
Created by potrace 1.16, written by Peter Selinger 2001-2019
</metadata>
<g transform="translate(0.000000,102.000000) scale(0.100000,-0.100000)"
fill="#000000" stroke="none">
<path d="M578 1013 c-14 -3 -15 -9 -8 -29 26 -68 24 -71 -48 -79 -45 -5 -67
-4 -70 4 -2 6 -28 11 -62 11 -65 0 -75 -10 -64 -65 l6 -32 166 4 c218 4 336 4
395 1 53 -3 64 9 52 62 l-6 29 -125 -2 c-68 -1 -125 1 -125 6 -1 4 -2 10 -4
15 -1 4 -5 24 -9 45 -8 35 -10 37 -45 36 -20 -1 -44 -3 -53 -6z"/>
<path d="M143 994 c-18 -8 -33 -17 -33 -22 0 -4 11 -24 25 -44 14 -20 25 -39
25 -41 0 -3 9 -25 20 -50 l21 -46 44 21 c25 12 45 26 45 30 0 27 -89 168 -105
167 -5 0 -25 -7 -42 -15z"/>
<path d="M393 792 c-6 -4 -11 -51 -11 -119 0 -94 3 -113 16 -118 22 -8 142 5
142 16 0 5 16 9 35 9 19 0 35 -4 35 -10 0 -15 78 -12 82 2 4 10 20 10 78 0 82
-14 95 -8 79 36 -5 13 -7 49 -3 80 8 80 7 94 -8 104 -7 4 -22 5 -33 2 -11 -4
-62 -6 -112 -4 -62 1 -93 -2 -93 -9 0 -13 -47 -15 -52 -3 -4 11 -141 23 -155
14z m259 -78 l105 -7 -1 -28 -1 -29 -140 3 -140 2 0 33 c0 37 -4 37 177 26z"/>
<path d="M25 722 c-10 -26 -5 -61 12 -77 16 -17 68 -17 103 -2 13 6 15 -17 15
-177 0 -125 -4 -188 -12 -197 -9 -12 -5 -23 22 -54 l34 -40 33 40 c63 77 100
112 94 90 -8 -28 7 -47 35 -47 39 0 95 8 107 16 6 4 33 4 60 0 l49 -6 -1 -42
c-1 -40 -2 -41 -36 -42 -76 -3 -72 -1 -55 -34 8 -16 15 -33 14 -37 -5 -30 3
-34 55 -29 63 5 116 29 117 54 1 9 3 33 5 52 2 19 4 45 5 56 1 15 8 22 23 23
69 5 176 3 207 -4 35 -7 37 -6 41 26 8 55 1 69 -31 58 -15 -5 -65 -7 -112 -4
-46 3 -95 6 -109 6 -20 1 -13 7 34 30 32 15 81 34 108 40 52 14 66 35 54 83
-6 23 -9 24 -66 19 -41 -4 -60 -2 -60 6 0 6 -17 11 -40 11 -22 0 -40 -4 -40
-10 0 -15 -157 -13 -164 3 -5 10 -7 10 -12 0 -7 -15 -74 -18 -74 -3 0 6 -18
10 -40 10 -35 0 -42 -4 -51 -27 -5 -15 -8 -37 -4 -50 5 -20 10 -22 48 -17 86
11 194 14 257 6 l65 -8 -67 -23 c-63 -21 -74 -31 -69 -63 1 -12 -60 -18 -124
-13 -33 3 -69 6 -81 6 -14 1 -26 15 -40 45 -10 24 -22 44 -26 44 -4 0 -20 -19
-35 -42 l-28 -42 -9 149 c-6 109 -6 150 3 153 6 2 11 20 11 40 l0 37 -110 1
c-85 0 -110 -3 -115 -14z"/>
</g>
</svg>
