<?xml version="1.0" standalone="no"?>
<!DOCTYPE svg PUBLIC "-//W3C//DTD SVG 20010904//EN"
 "http://www.w3.org/TR/2001/REC-SVG-20010904/DTD/svg10.dtd">
<svg version="1.0" xmlns="http://www.w3.org/2000/svg"
 width="101.000000pt" height="101.000000pt" viewBox="0 0 101.000000 101.000000"
 preserveAspectRatio="xMidYMid meet">
<metadata>
Created by potrace 1.16, written by Peter Selinger 2001-2019
</metadata>
<g transform="translate(0.000000,101.000000) scale(0.100000,-0.100000)"
fill="#000000" stroke="none">
<path d="M574 999 c-3 -6 -14 -9 -24 -6 -16 4 -16 2 1 -43 l18 -48 -74 -7
c-54 -5 -79 -4 -90 5 -39 32 -86 -17 -71 -74 5 -22 10 -24 60 -22 30 1 53 -2
50 -6 -3 -5 -8 -21 -10 -36 -9 -50 -64 -148 -110 -196 -26 -26 -44 -49 -42
-50 1 -2 17 -8 33 -13 17 -6 37 -14 46 -18 12 -5 27 10 59 61 l43 68 28 -34
c16 -19 29 -38 29 -42 0 -16 20 -7 52 22 l33 30 -52 48 c-56 51 -56 58 -10
109 l20 22 -24 9 c-13 5 -31 12 -39 15 -8 3 1 6 20 7 19 1 64 4 100 6 36 3
118 5 182 5 129 1 137 5 122 64 l-7 27 -78 -7 c-54 -4 -79 -3 -79 4 0 6 -20
11 -45 11 -25 0 -46 5 -46 10 -1 6 -3 13 -4 18 -1 4 -6 22 -10 40 -7 28 -11
32 -41 32 -18 0 -36 -5 -40 -11z"/>
<path d="M137 961 c-41 -27 -41 -26 -9 -73 16 -24 37 -59 47 -78 10 -19 19
-37 21 -39 5 -6 94 43 94 52 0 20 -97 157 -110 156 -8 0 -27 -8 -43 -18z"/>
<path d="M704 780 c-4 -8 -9 -25 -10 -37 -4 -33 -61 -136 -101 -183 l-35 -40
24 -9 c13 -5 28 -6 33 -3 6 3 6 1 2 -3 -4 -5 -20 -9 -35 -10 -24 0 -27 -3 -27
-38 l0 -37 -104 2 c-76 2 -105 0 -108 -9 -5 -14 -24 -18 -22 -5 3 20 -2 42
-10 42 -5 0 -22 -21 -38 -46 l-30 -45 -6 77 c-10 109 -9 172 3 176 10 3 17
104 8 113 -5 5 -35 7 -113 7 -11 0 -37 0 -58 1 -42 1 -57 -13 -57 -53 0 -31
19 -61 27 -42 3 7 23 12 48 12 l43 0 4 -177 c3 -98 1 -186 -4 -196 -7 -13 -2
-27 19 -52 15 -18 33 -33 38 -33 6 0 38 32 71 71 37 43 67 70 75 67 8 -3 60
-4 115 -2 118 3 105 20 107 -140 1 -106 3 -109 63 -101 l30 5 1 96 c2 148 -2
137 57 135 28 0 56 3 62 8 7 5 46 8 88 6 73 -4 77 -3 82 19 14 54 5 59 -84 56
-48 -1 -82 2 -82 7 0 6 -26 11 -57 13 l-58 3 1 35 c0 37 52 131 69 126 6 -1
32 -30 60 -64 l49 -62 38 37 c21 20 38 40 38 44 0 4 -33 32 -74 61 -79 57 -84
69 -47 119 12 16 21 31 21 33 0 10 -69 35 -90 33 -10 -1 -23 -8 -26 -17z"/>
</g>
</svg>
