<?xml version="1.0" standalone="no"?>
<!DOCTYPE svg PUBLIC "-//W3C//DTD SVG 20010904//EN"
 "http://www.w3.org/TR/2001/REC-SVG-20010904/DTD/svg10.dtd">
<svg version="1.0" xmlns="http://www.w3.org/2000/svg"
 width="101.000000pt" height="101.000000pt" viewBox="0 0 101.000000 101.000000"
 preserveAspectRatio="xMidYMid meet">
<metadata>
Created by potrace 1.16, written by Peter Selinger 2001-2019
</metadata>
<g transform="translate(0.000000,101.000000) scale(0.100000,-0.100000)"
fill="#000000" stroke="none">
<path d="M138 969 c-21 -11 -38 -22 -38 -26 0 -3 11 -20 24 -37 13 -17 34 -52
47 -79 l24 -47 40 27 c22 14 42 28 44 29 5 4 -76 129 -92 143 -8 6 -25 3 -49
-10z"/>
<path d="M363 804 c1 -191 2 -193 64 -178 l28 7 -30 -33 c-53 -58 -89 -89
-132 -112 -24 -13 -43 -26 -43 -29 0 -4 17 -18 39 -32 34 -22 40 -24 53 -11
18 18 18 19 20 -123 l1 -101 36 5 c123 16 288 9 310 -12 3 -3 6 -18 7 -33 1
-15 2 -32 3 -38 4 -37 138 -3 167 41 21 32 29 111 29 280 l0 140 -115 3 c-287
6 -289 6 -278 20 6 6 21 12 34 12 12 0 29 7 38 15 16 17 86 19 199 6 l68 -7
-7 78 c-5 55 -3 78 5 78 6 0 11 17 11 40 0 22 -5 40 -11 40 -7 0 -10 21 -7 60
3 56 2 59 -17 52 -11 -4 -41 -6 -67 -5 -45 2 -75 3 -230 2 -35 0 -88 2 -119 4
l-57 5 1 -174z m374 99 c15 -3 22 -14 25 -38 l4 -33 -156 2 -156 1 0 30 c1 30
2 30 48 28 26 -2 50 1 53 7 6 10 143 13 182 3z m28 -168 l0 -37 -42 7 c-25 3
-44 2 -48 -5 -8 -13 -52 -13 -60 1 -4 6 -37 9 -83 7 l-77 -3 -1 30 0 30 155 3
156 3 0 -36z m-205 -265 c-16 -31 -57 -75 -101 -108 -14 -11 -15 -7 -8 36 8
51 -7 76 -39 65 -13 -5 -11 0 5 18 19 21 31 24 92 24 l69 1 -18 -36z m252 -68
c-2 -59 -3 -120 -3 -136 1 -48 -14 -65 -56 -62 -35 2 -38 4 -39 34 -2 43 -6
46 -46 33 -19 -6 -66 -9 -108 -6 -41 3 -84 6 -96 6 -16 1 -21 8 -21 30 0 34
-3 33 43 12 l36 -18 42 48 42 49 45 -49 46 -49 38 33 c21 18 36 35 34 37 -2 1
-31 23 -65 47 -55 40 -60 46 -52 69 8 24 12 25 86 27 l77 1 -3 -106z"/>
<path d="M48 720 c-19 -11 -24 -64 -10 -87 5 -7 29 -11 65 -10 l57 3 0 -73 c0
-48 -4 -73 -12 -73 -8 0 -9 -28 -5 -100 4 -59 2 -112 -4 -127 -8 -23 -6 -31
22 -59 l32 -33 74 75 c58 59 72 78 63 89 -6 7 -13 23 -15 35 -4 23 -13 37 -18
29 -1 -2 -17 -21 -34 -41 l-32 -38 -7 36 c-4 20 -2 52 4 72 6 21 12 82 12 137
0 55 1 112 2 128 0 15 -1 29 -3 32 -11 10 -175 15 -191 5z"/>
</g>
</svg>
