<?xml version="1.0" standalone="no"?>
<!DOCTYPE svg PUBLIC "-//W3C//DTD SVG 20010904//EN"
 "http://www.w3.org/TR/2001/REC-SVG-20010904/DTD/svg10.dtd">
<svg version="1.0" xmlns="http://www.w3.org/2000/svg"
 width="101.000000pt" height="101.000000pt" viewBox="0 0 101.000000 101.000000"
 preserveAspectRatio="xMidYMid meet">
<metadata>
Created by potrace 1.16, written by Peter Selinger 2001-2019
</metadata>
<g transform="translate(0.000000,101.000000) scale(0.100000,-0.100000)"
fill="#000000" stroke="none">
<path d="M800 993 c-8 -2 -22 -7 -30 -11 -8 -3 -28 -7 -45 -9 -16 -1 -52 -5
-80 -8 -27 -3 -80 -5 -117 -5 -36 1 -69 -3 -71 -8 -6 -9 -52 -8 -86 3 -11 3
-29 4 -40 0 -18 -5 -17 -8 8 -55 15 -28 31 -48 38 -45 7 2 15 0 18 -5 3 -4 0
-10 -6 -12 -8 -3 -6 -21 9 -60 l21 -55 -44 3 c-40 4 -45 2 -51 -20 -12 -50 24
-88 65 -67 9 5 37 9 62 9 46 0 47 0 40 -26 -6 -23 -15 -28 -56 -35 -30 -5 -58
-4 -71 2 -47 21 -77 -7 -67 -62 5 -23 9 -25 41 -20 52 7 110 8 117 1 10 -9
-34 -99 -80 -164 -39 -55 -107 -117 -161 -150 -16 -9 -12 -14 35 -38 l54 -27
29 28 30 28 29 -35 c16 -19 29 -38 29 -42 0 -9 89 22 169 57 l58 27 49 -25
c38 -19 173 -67 189 -67 2 0 10 12 17 28 8 15 22 39 32 55 l18 27 -28 1 c-16
1 -40 3 -54 5 -14 2 -41 5 -60 8 -19 2 -48 9 -63 15 l-28 11 38 48 c47 59 100
158 90 168 -4 4 -31 2 -59 -5 -31 -7 -84 -10 -128 -6 -41 3 -85 6 -98 6 -16 1
-22 6 -18 16 3 8 6 18 6 23 0 4 10 9 23 10 52 5 298 2 321 -4 21 -5 24 -2 28
26 8 52 1 63 -40 62 -20 0 -53 -6 -73 -12 -22 -8 -66 -10 -115 -7 -43 3 -89 6
-100 6 -20 1 -21 5 -13 33 5 17 9 31 9 31 0 0 24 1 52 1 29 1 69 5 88 8 20 4
58 1 88 -7 47 -13 55 -13 68 1 9 8 14 28 12 46 l-3 31 -61 0 -61 0 25 35 c14
19 36 45 50 56 29 26 24 39 -20 49 -37 8 -32 11 35 20 26 3 47 10 47 14 0 15
-71 101 -83 100 -7 0 -19 -3 -27 -6z m-49 -113 c10 0 -2 -36 -38 -107 -22 -45
-31 -53 -54 -53 -35 0 -59 9 -59 22 0 6 14 8 35 5 32 -5 35 -4 31 16 -16 78
-47 108 -98 91 -16 -5 -18 -11 -13 -32 4 -15 9 -42 10 -59 3 -32 2 -33 -35
-33 -21 0 -47 -2 -57 -5 -11 -3 -9 -1 5 6 27 15 27 16 3 79 -11 27 -16 50 -13
51 4 0 30 2 57 3 111 7 177 15 183 20 3 4 12 4 20 1 7 -3 18 -5 23 -5z m-48
-488 c16 -7 14 -12 -14 -50 -17 -23 -35 -42 -39 -42 -5 0 -23 21 -41 46 -25
37 -28 45 -13 40 11 -3 26 -1 34 4 17 11 47 12 73 2z m-193 -26 c0 -8 16 -37
35 -65 34 -52 34 -52 12 -60 -12 -5 -35 -14 -52 -21 -16 -6 -54 -13 -83 -15
l-53 -4 29 34 c16 18 45 58 63 89 34 55 49 68 49 42z"/>
<path d="M148 963 c-21 -8 -38 -19 -38 -24 0 -5 13 -30 29 -56 16 -27 34 -65
41 -85 6 -21 16 -38 21 -38 18 0 89 40 89 51 0 14 -90 169 -98 168 -4 0 -24
-7 -44 -16z"/>
<path d="M25 701 c-4 -17 -4 -40 0 -51 5 -17 14 -19 59 -17 63 2 58 18 58
-168 1 -99 -3 -138 -14 -160 -15 -28 -15 -30 15 -66 l31 -36 23 28 c13 15 52
51 88 80 56 45 63 54 54 71 -6 11 -13 32 -15 46 -3 15 -7 28 -9 31 -3 2 -22
-16 -43 -40 l-39 -43 -7 73 c-5 46 -4 77 3 85 6 7 10 53 9 102 l-1 89 -103 3
-102 3 -7 -30z"/>
</g>
</svg>
