<?xml version="1.0" standalone="no"?>
<!DOCTYPE svg PUBLIC "-//W3C//DTD SVG 20010904//EN"
 "http://www.w3.org/TR/2001/REC-SVG-20010904/DTD/svg10.dtd">
<svg version="1.0" xmlns="http://www.w3.org/2000/svg"
 width="101.000000pt" height="101.000000pt" viewBox="0 0 101.000000 101.000000"
 preserveAspectRatio="xMidYMid meet">
<metadata>
Created by potrace 1.16, written by Peter Selinger 2001-2019
</metadata>
<g transform="translate(0.000000,101.000000) scale(0.100000,-0.100000)"
fill="#000000" stroke="none">
<path d="M405 978 c-4 -18 -6 -38 -5 -43 5 -24 -1 -46 -10 -40 -6 4 -23 4 -39
0 -27 -6 -28 -8 -30 -70 -1 -35 3 -66 9 -70 12 -7 12 -145 -1 -161 -5 -6 -8
-33 -6 -61 1 -28 0 -51 -3 -51 -25 2 -38 -5 -43 -22 -13 -49 22 -79 67 -59 13
6 41 7 71 2 l49 -8 -59 -61 c-33 -33 -81 -73 -107 -89 -27 -17 -48 -33 -48
-36 0 -3 18 -18 41 -32 l41 -27 36 29 c46 36 87 81 137 146 21 28 35 42 32 32
-4 -9 -2 -27 4 -40 6 -13 7 -43 2 -77 l-8 -55 -43 2 c-23 2 -42 1 -42 -1 0 -2
7 -17 15 -32 8 -16 15 -37 15 -47 0 -16 6 -18 45 -14 25 3 57 13 72 22 l26 17
-7 168 c-5 113 -4 170 3 174 12 8 13 114 0 122 -12 7 -11 51 1 59 6 3 10 21
10 38 0 24 3 28 10 17 7 -11 28 -15 82 -15 l73 0 -3 -82 c-1 -48 2 -84 8 -88
14 -8 13 -68 -2 -83 -8 -8 -8 -15 -1 -24 15 -17 16 -154 2 -195 -10 -33 -12
-33 -60 -29 -27 3 -49 2 -49 0 0 -3 7 -18 15 -34 8 -16 15 -33 14 -37 -6 -38
23 -46 91 -26 62 18 72 37 63 128 -4 46 -2 65 6 65 6 0 11 17 11 40 0 22 -4
40 -10 40 -15 0 -13 157 3 164 10 5 10 7 0 12 -15 7 -18 74 -3 74 6 0 10 18
10 41 0 26 4 38 11 34 17 -11 57 4 64 24 3 11 3 31 -1 45 -5 21 -11 25 -40 24
-19 -1 -37 1 -40 5 -4 3 -2 51 3 106 6 68 5 101 -2 102 -94 10 -113 -1 -99
-54 3 -14 7 -59 7 -99 2 -73 2 -73 -25 -76 -16 -2 -28 1 -28 6 0 15 -67 24
-89 13 -15 -8 -20 -7 -24 8 -2 10 0 26 5 35 20 35 1 53 -62 59 -33 4 -66 4
-75 1 -20 -8 -19 -3 7 51 12 24 19 48 15 51 -4 4 -29 9 -56 12 l-50 4 -6 -34z
m131 -194 c-1 -34 -2 -35 -30 -30 -16 3 -41 6 -56 6 -21 0 -29 6 -32 25 -5 22
-2 24 41 28 25 2 53 4 62 5 12 2 15 -7 15 -34z m-1 -134 c0 -34 -4 -42 -23
-47 -13 -3 -34 -1 -48 5 -13 7 -30 9 -38 6 -11 -4 -14 3 -13 30 l1 35 60 4
c34 2 61 4 61 5 0 1 0 -16 0 -38z m-10 -98 c6 -4 11 -22 12 -39 2 -28 -2 -34
-23 -39 -14 -4 -36 -2 -50 4 -13 7 -30 9 -38 6 -11 -4 -14 3 -13 30 1 28 5 35
16 31 9 -2 23 0 31 5 18 11 51 13 65 2z"/>
<path d="M140 961 c-19 -8 -37 -17 -39 -18 -2 -1 8 -29 22 -60 14 -32 29 -71
33 -86 5 -21 11 -27 23 -22 9 4 29 9 44 12 16 3 31 11 33 18 7 16 -55 162 -70
168 -6 2 -27 -3 -46 -12z"/>
<path d="M53 722 c-16 -10 -25 -54 -14 -70 8 -14 30 -16 81 -10 31 4 33 -6 32
-197 0 -91 -5 -154 -14 -180 -13 -37 -12 -42 10 -77 23 -36 42 -49 42 -30 0 5
27 42 61 82 l61 72 -18 39 c-9 22 -20 39 -23 39 -3 0 -16 -17 -27 -38 l-22
-37 -6 65 c-6 64 -3 150 9 220 3 19 7 54 10 76 l4 41 -61 7 c-78 8 -110 7
-125 -2z"/>
<path d="M667 612 c-12 -2 -16 -10 -12 -22 9 -29 21 -107 24 -159 1 -22 4 -23
43 -17 39 6 62 22 53 36 -2 4 -6 19 -9 34 -3 15 -12 51 -20 80 -16 55 -25 61
-79 48z"/>
</g>
</svg>
