<?xml version="1.0" standalone="no"?>
<!DOCTYPE svg PUBLIC "-//W3C//DTD SVG 20010904//EN"
 "http://www.w3.org/TR/2001/REC-SVG-20010904/DTD/svg10.dtd">
<svg version="1.0" xmlns="http://www.w3.org/2000/svg"
 width="101.000000pt" height="101.000000pt" viewBox="0 0 101.000000 101.000000"
 preserveAspectRatio="xMidYMid meet">
<metadata>
Created by potrace 1.16, written by Peter Selinger 2001-2019
</metadata>
<g transform="translate(0.000000,101.000000) scale(0.100000,-0.100000)"
fill="#000000" stroke="none">
<path d="M582 898 c-1 -61 -4 -113 -6 -116 -10 -9 -117 -14 -128 -5 -7 6 -43
11 -80 11 l-66 0 2 -96 3 -97 31 -3 c17 -2 39 1 49 6 17 9 18 3 18 -99 0 -106
1 -110 23 -116 12 -3 30 -3 40 -1 14 4 17 -2 16 -32 -1 -21 -5 -47 -8 -58 -12
-37 -82 -90 -143 -108 -32 -9 -59 -17 -61 -19 -1 -1 14 -19 33 -39 l36 -38 39
16 c57 23 114 60 139 92 23 30 62 149 55 169 -3 8 5 14 24 17 34 5 32 15 35
-140 3 -111 14 -135 58 -133 13 1 64 3 112 4 80 2 91 4 108 25 18 23 46 100
38 105 -2 1 -22 12 -44 23 l-39 22 -16 -46 c-15 -46 -24 -52 -83 -54 -40 -2
-46 9 -47 87 -2 116 -3 113 39 108 20 -2 41 0 48 4 7 5 15 51 19 116 l7 108
28 -6 c56 -13 68 -1 68 68 0 34 2 73 3 87 2 14 -1 25 -7 25 -5 0 -52 -4 -103
-9 -68 -5 -97 -4 -107 4 -8 7 -23 10 -33 8 -17 -5 -18 2 -15 86 2 50 4 100 6
111 2 17 -5 20 -43 23 l-45 3 -3 -113z m203 -185 l50 -5 0 -43 c0 -24 -4 -41
-8 -38 -18 11 -247 14 -247 4 0 -7 -29 -11 -75 -11 -43 0 -75 4 -75 10 0 6 -7
10 -15 10 -8 0 -15 3 -16 8 0 4 -1 18 -3 32 l-1 25 107 -3 c67 -1 109 2 113 8
7 11 79 12 170 3z m-50 -207 l0 -48 -115 7 c-63 4 -116 7 -116 8 -1 1 -4 20
-6 42 l-5 40 121 0 121 0 0 -49z"/>
<path d="M153 973 l-42 -14 39 -80 c21 -45 40 -85 42 -90 3 -10 98 18 98 29 0
9 -79 155 -88 163 -4 4 -26 0 -49 -8z"/>
<path d="M400 963 c-14 -9 -27 -18 -29 -20 -3 -2 6 -17 19 -35 13 -17 33 -48
44 -69 l22 -38 43 20 c31 14 41 23 34 32 -5 6 -26 38 -48 70 -21 31 -43 57
-49 57 -7 0 -23 -8 -36 -17z"/>
<path d="M778 936 c-9 -18 -31 -50 -49 -70 -17 -20 -30 -38 -28 -39 2 -1 20
-10 39 -21 l35 -18 30 38 c17 22 45 53 63 71 l33 32 -40 21 c-54 27 -65 26
-83 -14z"/>
<path d="M24 695 c-3 -14 -3 -36 0 -50 6 -24 9 -24 66 -20 l60 5 0 -29 c0 -16
5 -31 12 -33 15 -5 -3 -303 -20 -320 -8 -8 -2 -21 20 -50 18 -21 34 -37 37
-36 3 2 44 42 90 90 l84 88 -18 40 c-10 22 -20 40 -23 40 -3 0 -25 -21 -48
-47 l-42 -48 -7 38 c-4 21 -3 49 3 65 6 15 10 70 8 122 -1 52 1 102 5 111 5 9
6 25 3 35 -5 18 -16 20 -114 22 l-110 2 -6 -25z"/>
</g>
</svg>
