<?xml version="1.0" standalone="no"?>
<!DOCTYPE svg PUBLIC "-//W3C//DTD SVG 20010904//EN"
 "http://www.w3.org/TR/2001/REC-SVG-20010904/DTD/svg10.dtd">
<svg version="1.0" xmlns="http://www.w3.org/2000/svg"
 width="101.000000pt" height="101.000000pt" viewBox="0 0 101.000000 101.000000"
 preserveAspectRatio="xMidYMid meet">
<metadata>
Created by potrace 1.16, written by Peter Selinger 2001-2019
</metadata>
<g transform="translate(0.000000,101.000000) scale(0.100000,-0.100000)"
fill="#000000" stroke="none">
<path d="M148 969 l-37 -19 39 -61 c22 -34 42 -70 45 -81 4 -10 10 -18 13 -16
4 2 24 10 45 18 20 8 37 19 37 25 0 13 -92 155 -99 155 -3 -1 -23 -10 -43 -21z"/>
<path d="M347 951 c-2 -11 -1 -57 4 -103 5 -47 7 -114 6 -150 l-2 -66 72 2
c40 0 73 1 73 0 0 -7 -130 -89 -165 -104 -26 -11 -46 -22 -44 -25 3 -2 21 -15
41 -29 l36 -24 94 59 c51 32 98 61 103 63 6 3 -5 17 -23 33 l-33 28 97 -2 c54
-2 99 -5 101 -7 2 -1 -6 -15 -18 -30 -12 -15 -20 -28 -18 -30 2 -1 24 -11 49
-20 25 -10 70 -33 101 -52 31 -19 61 -34 67 -34 10 0 52 52 52 64 0 4 -45 28
-99 55 -55 27 -97 52 -94 55 4 3 36 6 72 6 l66 0 3 133 c1 72 0 146 -3 163
l-5 31 -70 2 c-42 1 -70 -3 -70 -9 0 -6 -32 -10 -80 -10 -47 0 -80 4 -80 10 0
6 -18 10 -40 10 -22 0 -40 -4 -40 -10 0 -5 -25 -10 -55 -10 -30 0 -55 5 -55
10 0 18 -38 10 -43 -9z m448 -84 l1 -28 -61 7 c-53 6 -74 16 -75 35 0 3 11 4
24 2 13 -3 27 0 31 7 4 6 23 10 43 8 31 -3 36 -6 37 -31z m-229 -1 c-1 -19 -7
-21 -61 -21 -53 0 -60 2 -60 20 0 18 7 20 61 21 56 0 62 -1 60 -20z m0 -124
c-1 -26 -3 -27 -61 -27 -57 0 -60 1 -60 25 0 24 3 25 61 27 60 2 61 2 60 -25z
m190 19 c26 -1 33 -6 37 -27 4 -25 3 -26 -32 -20 -20 3 -48 6 -62 6 -20 0 -28
6 -31 23 -4 19 0 22 26 20 17 -1 45 -2 62 -2z"/>
<path d="M39 696 c-9 -18 -10 -35 -3 -54 8 -22 16 -28 46 -30 21 -2 45 1 55 6
16 9 18 5 20 -41 8 -176 5 -311 -8 -344 -9 -24 -6 -31 23 -60 l34 -33 77 90
c43 49 81 90 86 90 5 0 20 -9 34 -20 l25 -20 39 43 39 42 36 -57 36 -56 -37
-15 c-35 -14 -87 -26 -141 -32 -35 -3 -80 -16 -80 -22 0 -3 11 -18 24 -34 13
-15 26 -34 28 -41 5 -13 173 36 242 71 36 19 41 19 69 4 32 -16 194 -73 209
-73 4 0 8 5 8 12 0 6 12 26 26 45 14 19 24 36 22 38 -2 3 -24 7 -49 9 -80 9
-120 16 -151 29 l-31 12 27 32 c32 38 96 158 96 179 0 12 -6 13 -22 7 -20 -7
-94 -8 -198 -2 l-25 1 23 18 c28 23 28 28 -5 41 -60 23 -66 21 -98 -32 -31
-52 -103 -127 -143 -148 -21 -11 -24 -9 -33 18 -6 17 -14 31 -17 31 -4 -1 -23
-23 -42 -50 l-35 -49 -8 72 c-6 47 -5 78 2 89 6 10 11 57 11 105 1 48 1 98 1
111 1 13 -2 26 -5 29 -3 3 -48 8 -100 11 l-95 5 -12 -27z m680 -301 c5 -5 -61
-94 -71 -95 -9 0 -78 81 -78 92 0 5 8 7 18 4 9 -3 24 -1 32 5 14 9 88 4 99 -6z"/>
</g>
</svg>
