<?xml version="1.0" standalone="no"?>
<!DOCTYPE svg PUBLIC "-//W3C//DTD SVG 20010904//EN"
 "http://www.w3.org/TR/2001/REC-SVG-20010904/DTD/svg10.dtd">
<svg version="1.0" xmlns="http://www.w3.org/2000/svg"
 width="101.000000pt" height="101.000000pt" viewBox="0 0 101.000000 101.000000"
 preserveAspectRatio="xMidYMid meet">
<metadata>
Created by potrace 1.16, written by Peter Selinger 2001-2019
</metadata>
<g transform="translate(0.000000,101.000000) scale(0.100000,-0.100000)"
fill="#000000" stroke="none">
<path d="M718 1003 c-18 -4 -35 -62 -25 -85 3 -10 -16 -13 -77 -13 -81 0 -81
0 -80 26 0 14 4 30 7 36 10 16 -3 23 -34 16 -18 -3 -29 -1 -29 6 0 6 -9 11
-20 11 -19 0 -20 -5 -17 -54 l4 -53 -36 8 c-77 18 -121 3 -121 -41 0 -46 42
-58 131 -35 l26 7 -4 -66 -4 -65 38 -7 c20 -4 49 -2 64 3 24 10 27 8 25 -13
-2 -34 -45 -38 -183 -20 l-42 5 3 -32 c2 -18 6 -44 10 -59 5 -16 3 -42 -4 -63
-7 -20 -10 -39 -7 -42 10 -10 105 -2 125 11 7 4 32 4 55 1 40 -6 44 -9 44 -35
0 -26 -3 -28 -54 -34 -30 -3 -59 -3 -65 0 -6 4 -28 8 -48 10 -31 3 -39 0 -43
-16 -11 -43 10 -69 48 -60 6 2 22 4 36 5 14 1 31 5 38 9 6 4 29 5 50 1 33 -5
39 -10 37 -30 -1 -20 -8 -25 -43 -30 -24 -3 -48 -3 -54 1 -7 4 -31 9 -54 10
-36 3 -44 1 -48 -16 -3 -11 -3 -29 0 -40 4 -17 12 -19 48 -16 23 1 47 6 54 10
6 4 31 4 54 1 40 -6 44 -9 44 -35 0 -26 -5 -30 -38 -35 -21 -4 -44 -3 -51 1
-7 5 -40 10 -73 11 -33 2 -70 3 -83 4 -13 1 -26 -2 -29 -5 -8 -8 -8 -64 0 -72
8 -8 43 -8 97 1 74 12 436 6 457 -8 6 -4 23 -2 38 5 20 9 31 9 45 1 16 -10 18
-8 23 20 2 17 2 39 0 48 -4 15 -8 16 -24 6 -14 -9 -26 -9 -48 -1 -22 9 -42 8
-87 -3 -44 -12 -66 -13 -87 -5 -16 6 -34 9 -41 6 -8 -3 -13 5 -13 24 0 33 -4
32 112 34 39 1 82 -1 96 -6 22 -6 27 -4 32 13 3 12 3 30 0 41 -4 16 -10 19
-27 13 -18 -7 -119 -8 -191 -2 -29 2 -30 46 -1 48 64 5 155 3 187 -4 32 -6 37
-4 42 14 3 12 3 30 0 42 -5 18 -10 20 -37 13 -17 -4 -62 -7 -101 -6 -115 2
-112 1 -112 34 0 20 4 27 14 24 7 -3 24 -1 36 5 22 10 102 2 147 -15 8 -3 22
-2 30 3 12 8 12 13 1 35 -8 14 -11 34 -7 48 4 13 10 45 12 71 5 47 4 48 -18
40 -19 -7 -119 -8 -193 -2 -13 1 -20 9 -21 23 -2 20 3 21 72 19 68 -2 90 6 64
22 -5 3 -10 28 -10 54 l0 48 57 -4 c73 -5 100 2 108 27 14 45 0 55 -78 55
l-74 -1 8 41 c4 22 7 40 6 40 -1 1 -15 6 -30 13 -29 12 -31 13 -59 5z m-16
-205 c4 -26 2 -29 -16 -24 -12 3 -49 6 -82 6 -56 0 -62 2 -66 23 -4 21 -2 22
78 23 l82 1 4 -29z m-156 -194 c15 -4 21 -14 21 -35 0 -24 -5 -30 -33 -35 -17
-3 -41 -1 -52 5 -11 6 -27 9 -35 6 -10 -4 -14 3 -14 25 0 23 4 29 16 25 9 -2
23 0 31 5 17 11 36 12 66 4z m221 0 c25 -5 30 -11 30 -34 0 -25 -5 -30 -38
-35 -21 -4 -46 -2 -58 4 -11 6 -26 9 -34 6 -10 -4 -14 3 -14 25 0 23 4 29 16
25 9 -2 23 0 31 5 18 11 27 12 67 4z"/>
<path d="M135 933 c-16 -8 -32 -17 -34 -19 -2 -2 8 -21 22 -41 14 -21 35 -59
47 -85 12 -27 25 -48 30 -48 13 0 90 31 90 36 0 10 -45 92 -72 132 -32 46 -39
49 -83 25z"/>
<path d="M32 688 c-13 -13 -16 -56 -6 -82 5 -12 18 -14 64 -10 68 6 62 25 62
-189 -1 -108 -4 -155 -15 -176 -14 -28 -13 -32 11 -65 14 -20 28 -36 31 -36 3
0 40 37 82 83 l75 82 -19 44 -19 45 -19 -25 c-51 -69 -46 -70 -53 11 -8 93 -1
187 19 271 9 33 -19 63 -49 54 -29 -8 -117 -9 -136 -1 -9 3 -21 1 -28 -6z"/>
</g>
</svg>
