<?xml version="1.0" standalone="no"?>
<!DOCTYPE svg PUBLIC "-//W3C//DTD SVG 20010904//EN"
 "http://www.w3.org/TR/2001/REC-SVG-20010904/DTD/svg10.dtd">
<svg version="1.0" xmlns="http://www.w3.org/2000/svg"
 width="101.000000pt" height="101.000000pt" viewBox="0 0 101.000000 101.000000"
 preserveAspectRatio="xMidYMid meet">
<metadata>
Created by potrace 1.16, written by Peter Selinger 2001-2019
</metadata>
<g transform="translate(0.000000,101.000000) scale(0.100000,-0.100000)"
fill="#000000" stroke="none">
<path d="M420 963 c-7 -27 -14 -54 -16 -62 -7 -34 -67 -141 -111 -196 l-47
-60 -9 32 c-10 32 -31 48 -49 37 -6 -4 -47 -7 -92 -8 l-81 -1 -3 -30 c-4 -48
11 -60 70 -60 l53 0 -2 -50 c0 -27 2 -54 7 -60 14 -17 11 -158 -5 -219 -15
-57 -15 -57 11 -92 15 -19 30 -33 33 -32 4 2 44 42 89 89 l83 87 -18 38 c-10
22 -19 41 -20 43 -1 2 -22 -18 -47 -45 l-44 -49 -6 55 c-7 60 -2 169 13 253 2
13 17 8 56 -18 20 -15 39 -25 40 -23 2 2 19 28 37 58 l33 55 0 -170 c0 -93 -3
-177 -7 -185 -13 -25 8 -44 48 -43 37 1 56 16 47 39 -2 7 5 13 19 14 53 5 308
2 364 -4 60 -6 62 -6 67 20 9 51 -1 65 -44 58 -36 -6 -106 -8 -156 -4 -19 2
-22 8 -20 40 1 30 5 38 22 39 72 5 93 5 121 -1 29 -6 32 -4 37 18 2 15 2 35
-1 46 -4 16 -10 19 -36 13 -17 -4 -47 -6 -66 -6 -77 1 -76 0 -72 40 l4 36 84
0 c79 -1 85 1 90 21 13 53 6 58 -91 58 l-90 1 0 28 c0 25 3 27 43 27 23 0 42
5 42 10 0 6 11 10 25 10 14 0 25 -5 25 -11 0 -14 82 -1 92 15 23 35 -9 81 -51
72 -24 -6 -110 -9 -155 -7 -18 1 -18 2 -3 14 16 11 15 16 -8 65 -26 56 -37 61
-94 41 l-31 -11 19 -32 c11 -17 24 -42 29 -56 l10 -25 -88 0 -87 0 29 46 c15
25 28 49 28 53 0 10 -65 36 -88 36 -15 0 -23 -12 -32 -47z m285 -83 c-3 -5
-12 -10 -18 -10 -7 0 -6 4 3 10 19 12 23 12 15 0z m-79 -117 l0 -33 -70 3 -71
2 -1 30 0 30 70 1 71 1 1 -34z m-1 -145 c0 -35 -2 -37 -37 -43 -20 -4 -46 -2
-57 4 -11 6 -26 9 -33 6 -10 -4 -13 4 -10 32 l4 38 66 0 67 0 0 -37z m-28
-104 c25 -5 29 -10 30 -44 2 -37 1 -39 -37 -45 -22 -4 -47 -2 -59 4 -11 6 -26
8 -35 5 -12 -5 -15 2 -13 35 1 32 5 40 17 36 8 -2 22 0 30 5 18 11 28 12 67 4z"/>
<path d="M133 964 c-18 -8 -33 -16 -33 -19 0 -3 10 -22 23 -43 13 -20 31 -57
42 -82 10 -25 20 -46 20 -48 3 -3 95 38 95 43 0 8 -73 130 -88 148 -18 20 -17
20 -59 1z"/>
<path d="M830 317 c-19 -5 -36 -10 -38 -12 -2 -2 14 -47 35 -100 l38 -96 35 6
c60 12 61 14 31 85 -16 36 -37 79 -47 96 -18 28 -21 30 -54 21z"/>
<path d="M657 303 c-14 -4 -16 -12 -11 -41 8 -49 11 -81 13 -116 1 -28 2 -28
43 -22 39 6 62 22 53 36 -2 4 -6 17 -8 31 -10 55 -28 109 -37 109 -4 0 -14 2
-22 4 -7 2 -21 2 -31 -1z"/>
<path d="M360 274 c-6 -14 -10 -29 -10 -33 0 -4 -17 -35 -39 -68 l-38 -60 45
-12 c25 -6 48 -8 52 -4 4 4 26 47 48 95 l40 87 -30 10 c-46 16 -57 14 -68 -15z"/>
<path d="M497 257 c3 -23 5 -63 5 -89 -1 -50 12 -60 62 -51 31 6 36 33 21 132
-6 43 -6 43 -54 47 l-40 3 6 -42z"/>
</g>
</svg>
