<?xml version="1.0" standalone="no"?>
<!DOCTYPE svg PUBLIC "-//W3C//DTD SVG 20010904//EN"
 "http://www.w3.org/TR/2001/REC-SVG-20010904/DTD/svg10.dtd">
<svg version="1.0" xmlns="http://www.w3.org/2000/svg"
 width="101.000000pt" height="101.000000pt" viewBox="0 0 101.000000 101.000000"
 preserveAspectRatio="xMidYMid meet">
<metadata>
Created by potrace 1.16, written by Peter Selinger 2001-2019
</metadata>
<g transform="translate(0.000000,101.000000) scale(0.100000,-0.100000)"
fill="#000000" stroke="none">
<path d="M362 985 l-32 -14 29 -47 c17 -25 33 -59 36 -75 4 -16 8 -29 10 -29
5 0 80 32 84 36 5 5 -79 144 -87 144 -4 -1 -22 -7 -40 -15z"/>
<path d="M123 959 c-18 -5 -33 -12 -33 -15 0 -2 11 -26 24 -52 13 -26 29 -64
35 -84 7 -21 14 -38 16 -38 5 0 77 32 84 37 9 6 -73 163 -84 162 -5 0 -25 -5
-42 -10z"/>
<path d="M505 933 c-13 -52 24 -85 69 -61 19 9 19 8 -2 -12 -16 -15 -22 -30
-19 -46 4 -24 4 -24 -74 -20 -70 3 -79 2 -84 -15 -9 -29 3 -56 28 -63 34 -9
96 -7 117 4 15 8 18 6 16 -13 -1 -22 -4 -23 -78 -20 l-76 2 5 -37 c8 -53 4
-158 -6 -185 -14 -36 0 -49 47 -43 23 2 42 1 42 -4 0 -4 -28 -36 -62 -71 l-63
-64 -9 95 c-6 68 -5 95 3 98 14 5 15 142 1 142 -17 0 -12 139 5 156 8 9 15 21
15 29 0 16 -47 34 -80 31 -22 -2 -25 -8 -28 -49 -2 -28 1 -47 7 -47 6 0 11
-11 11 -25 0 -14 -4 -25 -10 -25 -6 0 -10 -30 -10 -70 0 -40 4 -70 10 -70 6 0
10 -11 10 -25 0 -14 -5 -25 -11 -25 -8 0 -10 -20 -7 -60 5 -64 2 -73 -11 -39
-7 20 -9 20 -29 -12 l-21 -34 5 164 c3 90 2 177 -1 192 l-6 28 -87 -2 c-83 -2
-87 -3 -90 -26 -2 -12 -1 -34 3 -48 5 -22 10 -24 49 -20 52 6 48 21 48 -190
-1 -89 -5 -161 -12 -173 -9 -17 -5 -26 21 -54 l31 -35 37 47 c21 26 45 53 53
60 17 14 17 15 20 -68 1 -19 -2 -49 -6 -66 -7 -26 -5 -32 12 -36 11 -3 31 -4
44 -1 20 4 25 11 26 41 3 92 2 91 46 71 22 -11 28 -8 53 21 15 18 44 58 65 88
40 60 37 64 40 -63 1 -38 -1 -82 -6 -96 -6 -21 -4 -27 12 -31 11 -3 32 -3 47
-1 25 5 26 8 18 47 -7 37 -7 55 -2 134 1 12 3 22 5 22 2 0 22 -25 45 -55 23
-30 44 -55 48 -55 3 1 20 12 36 26 l30 24 -57 56 c-55 53 -58 54 -81 40 -21
-14 -23 -14 -24 3 -1 13 6 19 20 20 78 5 94 5 113 -2 20 -7 20 -5 17 94 -1 55
1 109 7 118 22 42 -22 85 -67 66 -10 -4 -34 -8 -54 -9 -30 -1 -35 2 -31 19 3
17 11 20 55 18 29 -1 59 -4 68 -8 23 -9 51 22 47 54 -3 26 -4 26 -84 26 l-81
0 3 26 c2 19 -3 29 -19 37 -26 12 -36 11 113 15 l85 2 2 -160 c6 -398 2 -494
-21 -507 -10 -5 -23 -5 -32 0 -9 5 -24 7 -34 5 -15 -4 -15 -9 4 -58 21 -53 21
-53 60 -50 55 5 94 24 102 47 3 11 3 60 -1 109 -5 63 -4 89 4 89 7 0 11 34 11
100 0 60 -4 100 -10 100 -5 0 -10 11 -10 25 0 14 5 25 10 25 6 0 10 30 10 70
0 40 -4 70 -10 70 -13 0 -13 67 -1 72 11 3 19 133 10 143 -4 3 -26 1 -50 -4
-56 -12 -196 -13 -203 -2 -3 5 -39 9 -80 9 -71 0 -75 -1 -81 -25z m52 -361 l2
-47 -15 37 c-13 30 -20 36 -40 32 -15 -3 -24 0 -24 9 0 8 14 13 38 14 l38 2 1
-47z m153 35 c0 -14 -72 -15 -77 -1 -2 6 15 10 37 11 25 1 40 -2 40 -10z m-2
-81 l2 -45 -40 2 c-23 1 -40 6 -40 13 0 7 8 10 20 7 15 -4 23 3 37 31 9 20 17
36 18 36 0 0 2 -20 3 -44z m-177 -21 c22 5 29 3 29 -9 0 -11 -10 -15 -40 -13
-30 1 -40 5 -40 17 0 23 14 35 18 15 3 -12 10 -15 33 -10z"/>
</g>
</svg>
