<?xml version="1.0" standalone="no"?>
<!DOCTYPE svg PUBLIC "-//W3C//DTD SVG 20010904//EN"
 "http://www.w3.org/TR/2001/REC-SVG-20010904/DTD/svg10.dtd">
<svg version="1.0" xmlns="http://www.w3.org/2000/svg"
 width="101.000000pt" height="103.000000pt" viewBox="0 0 101.000000 103.000000"
 preserveAspectRatio="xMidYMid meet">
<metadata>
Created by potrace 1.16, written by Peter Selinger 2001-2019
</metadata>
<g transform="translate(0.000000,103.000000) scale(0.100000,-0.100000)"
fill="#000000" stroke="none">
<path d="M476 974 c-26 -30 -67 -67 -89 -81 l-41 -26 30 -12 29 -13 -27 -2
c-16 -2 -34 -3 -40 -4 -7 -1 -12 -10 -10 -21 2 -11 2 -45 2 -77 -1 -31 4 -59
9 -63 13 -7 13 -153 1 -160 -5 -3 -9 -36 -9 -73 0 -133 -23 -229 -66 -281
l-24 -28 50 -20 49 -21 19 36 c30 59 44 114 55 217 14 134 17 223 6 230 -13 8
-13 52 0 60 6 3 10 15 10 25 0 17 3 18 26 8 25 -12 25 -13 6 -21 -22 -10 -35
-46 -26 -71 5 -12 21 -16 70 -16 36 0 64 4 64 10 0 6 16 10 35 10 19 0 35 -4
35 -10 0 -5 18 -10 40 -10 22 0 40 5 40 10 0 15 67 12 74 -2 5 -10 7 -10 12 0
4 9 21 11 63 6 63 -7 75 2 64 45 -4 18 -13 21 -57 21 l-51 1 33 26 33 26 -27
28 -26 28 35 6 c20 4 41 4 47 0 7 -4 16 -1 21 6 24 39 -6 98 -40 79 -10 -5
-48 -8 -83 -7 l-65 2 37 55 37 55 -132 0 c-103 0 -131 3 -123 12 5 7 18 15 29
18 38 12 15 36 -46 49 -27 5 -35 1 -79 -50z m198 -93 c3 -4 -1 -16 -8 -26 -11
-16 -29 -19 -109 -19 l-96 -1 19 20 c15 16 30 20 69 18 27 -2 53 1 56 7 8 12
62 13 69 1z m-192 -151 c-39 -36 -48 -37 -54 -6 -5 23 -1 25 36 29 23 2 43 4
46 5 3 1 -10 -12 -28 -28z m258 20 c-9 -6 0 -21 31 -51 l44 -43 -40 -7 c-48
-8 -51 -7 -60 28 -8 34 -21 43 -62 43 -41 0 -48 -12 -28 -50 l16 -30 -38 1
c-21 1 -51 4 -68 8 l-29 6 44 34 c25 19 47 36 49 38 3 2 -3 9 -12 16 -14 10
-1 12 74 13 50 1 85 -2 79 -6z"/>
<path d="M146 964 c-22 -8 -41 -16 -43 -18 -2 -2 12 -34 32 -72 19 -38 35 -75
35 -81 0 -17 23 -16 65 1 31 13 34 17 26 40 -12 30 -70 146 -74 145 -1 0 -20
-7 -41 -15z"/>
<path d="M43 720 c-16 -7 -23 -18 -23 -37 0 -41 10 -49 59 -51 24 0 45 -3 47
-4 6 -6 6 -372 0 -388 -3 -9 8 -30 26 -49 l31 -35 26 34 c14 19 45 55 68 81
l42 45 -18 49 -18 48 -27 -39 -26 -39 6 113 c5 85 4 112 -5 112 -9 0 -12 22
-9 79 l3 80 -32 6 c-18 3 -41 1 -51 -4 -11 -6 -24 -6 -33 0 -17 11 -37 11 -66
-1z"/>
<path d="M473 542 c-15 -10 -25 -46 -17 -65 5 -13 15 -15 47 -10 53 8 296 7
347 -1 32 -5 38 -3 43 14 3 11 3 29 0 41 -5 18 -10 20 -42 14 -56 -12 -213
-16 -225 -6 -6 5 -36 9 -67 9 -31 0 -61 2 -66 5 -5 3 -14 3 -20 -1z"/>
<path d="M457 419 c-8 -29 3 -59 22 -61 17 -1 26 0 76 8 83 14 202 14 248 0
27 -8 55 -12 62 -10 16 7 25 37 18 64 -5 18 -11 19 -62 13 -66 -8 -270 -8
-323 0 -30 4 -37 2 -41 -14z"/>
<path d="M464 295 c1 -23 6 -47 10 -54 4 -6 3 -43 -4 -83 -6 -39 -8 -73 -5
-76 3 -4 24 -5 47 -5 43 2 61 17 52 44 -3 12 2 17 18 18 13 0 52 3 88 6 36 3
80 3 98 0 31 -6 33 -9 27 -34 -7 -32 10 -41 62 -34 l30 5 -3 90 c-2 49 0 98 6
107 5 10 7 26 4 37 -5 17 -13 19 -87 16 -126 -4 -278 -4 -314 0 l-33 5 4 -42z
m307 -31 c21 -4 26 -11 25 -30 -1 -30 -32 -37 -131 -29 -38 3 -79 6 -90 6 -14
1 -20 9 -21 26 -2 18 2 22 15 19 9 -3 22 -2 30 3 15 10 132 13 172 5z"/>
</g>
</svg>
