<?xml version="1.0" standalone="no"?>
<!DOCTYPE svg PUBLIC "-//W3C//DTD SVG 20010904//EN"
 "http://www.w3.org/TR/2001/REC-SVG-20010904/DTD/svg10.dtd">
<svg version="1.0" xmlns="http://www.w3.org/2000/svg"
 width="101.000000pt" height="102.000000pt" viewBox="0 0 101.000000 102.000000"
 preserveAspectRatio="xMidYMid meet">
<metadata>
Created by potrace 1.16, written by Peter Selinger 2001-2019
</metadata>
<g transform="translate(0.000000,102.000000) scale(0.100000,-0.100000)"
fill="#000000" stroke="none">
<path d="M281 929 c-46 -49 -114 -110 -152 -136 -38 -25 -69 -49 -69 -53 0 -3
15 -20 33 -38 l33 -32 34 24 35 23 -3 -41 c-2 -23 0 -57 5 -76 10 -38 -1 -36
131 -26 34 3 62 3 62 0 0 -8 -92 -45 -120 -49 -14 -1 -25 -4 -25 -5 0 -4 -43
-11 -72 -11 -18 0 -35 -4 -38 -9 -3 -5 -12 -7 -20 -4 -7 3 -21 2 -30 -3 -13
-8 -11 -15 18 -48 l34 -39 62 18 c34 10 95 31 134 48 83 34 98 37 104 21 10
-27 -212 -126 -279 -125 -21 1 -40 -3 -43 -8 -3 -5 -11 -7 -18 -5 -7 3 -19 1
-27 -4 -11 -8 -8 -16 20 -45 19 -20 41 -36 48 -36 25 0 219 82 286 122 54 32
70 38 77 27 11 -17 -20 -44 -111 -99 -68 -41 -183 -88 -228 -94 -42 -5 -92
-18 -92 -24 0 -2 16 -21 36 -42 l36 -37 73 28 c102 39 223 101 269 138 26 21
43 28 49 22 7 -7 6 -15 -3 -25 -7 -9 -10 -22 -7 -30 3 -8 -2 -25 -12 -37 -15
-19 -28 -23 -70 -22 -28 0 -51 -1 -51 -4 0 -2 9 -21 20 -43 11 -22 20 -46 20
-55 0 -39 144 21 173 72 12 21 19 59 22 120 2 48 4 90 5 93 0 3 16 -20 37 -50
41 -62 166 -190 185 -190 13 0 112 90 106 95 -2 1 -26 10 -55 19 -60 20 -127
68 -168 122 l-29 38 28 20 c15 12 46 28 69 37 22 9 43 21 44 26 2 6 -17 24
-43 41 l-46 31 -54 -47 c-29 -26 -65 -54 -81 -64 l-28 -16 -54 59 c-29 33 -50
63 -47 66 4 4 35 6 71 5 35 -1 67 3 70 8 9 14 126 12 180 -2 39 -11 48 -10 55
2 10 15 12 182 4 205 -4 8 -18 11 -42 8 -20 -2 -63 0 -94 4 l-58 8 50 55 c27
30 49 57 50 60 0 3 -81 5 -180 5 -99 0 -180 1 -180 2 0 0 16 11 36 22 28 17
34 24 25 35 -10 12 -88 37 -108 35 -4 -1 -46 -41 -92 -90z m292 -67 l38 -7
-28 -34 c-29 -33 -29 -33 -131 -38 -72 -3 -107 -1 -117 7 -8 7 -25 10 -37 7
-15 -4 -11 3 17 26 33 26 46 31 86 29 27 -1 51 3 54 8 7 11 62 12 118 2z m-91
-156 c3 -5 2 -19 -3 -30 -9 -19 -18 -21 -97 -21 l-87 0 0 30 0 30 90 0 c50 0
93 -4 97 -9z m294 -24 l-1 -33 -106 3 c-59 2 -105 6 -103 9 2 3 7 17 12 30 9
23 14 24 104 24 l94 0 0 -33z"/>
</g>
</svg>
