<?xml version="1.0" standalone="no"?>
<!DOCTYPE svg PUBLIC "-//W3C//DTD SVG 20010904//EN"
 "http://www.w3.org/TR/2001/REC-SVG-20010904/DTD/svg10.dtd">
<svg version="1.0" xmlns="http://www.w3.org/2000/svg"
 width="101.000000pt" height="101.000000pt" viewBox="0 0 101.000000 101.000000"
 preserveAspectRatio="xMidYMid meet">
<metadata>
Created by potrace 1.16, written by Peter Selinger 2001-2019
</metadata>
<g transform="translate(0.000000,101.000000) scale(0.100000,-0.100000)"
fill="#000000" stroke="none">
<path d="M525 944 c-38 -62 -154 -184 -175 -184 -19 0 -10 -15 26 -43 34 -28
36 -28 49 -10 13 16 15 14 16 -27 1 -25 1 -59 0 -77 l-2 -31 55 1 c49 2 54 0
39 -11 -24 -18 -130 -72 -142 -72 -5 0 -3 24 5 53 31 108 31 105 -21 100 -30
-4 -45 -2 -45 6 0 6 -8 11 -17 11 -10 0 -25 15 -35 34 l-17 34 64 59 c34 32
70 64 80 72 13 10 16 23 12 49 -8 44 -13 49 -37 34 -24 -14 -100 -16 -100 -2
0 6 -18 10 -40 10 -22 0 -40 -4 -40 -10 0 -5 -25 -10 -55 -10 -30 0 -55 5 -55
10 0 6 -4 10 -9 10 -16 0 -23 -57 -11 -80 10 -19 18 -21 53 -17 98 13 157 17
157 12 0 -3 -15 -26 -34 -50 -33 -44 -34 -44 -51 -25 -22 25 -33 25 -64 1
l-23 -18 51 -54 c28 -29 51 -57 51 -60 0 -4 -30 -6 -67 -3 -37 2 -75 2 -84 -1
-22 -7 -32 -50 -18 -76 9 -18 18 -20 72 -17 l62 3 1 -50 c1 -27 5 -66 9 -86 4
-21 2 -45 -4 -57 -7 -14 -7 -28 1 -49 9 -24 8 -38 -1 -61 -12 -29 -17 -31 -57
-30 -23 1 -46 0 -49 -4 -3 -3 1 -21 9 -39 8 -19 17 -42 20 -52 4 -13 13 -16
38 -13 52 7 98 27 108 46 6 11 8 71 4 145 -3 76 -1 131 5 138 5 7 8 35 8 62
-2 48 -1 50 26 50 15 0 27 -1 27 -3 0 -1 -7 -19 -15 -39 -18 -42 -15 -46 25
-46 16 0 27 -3 25 -7 -2 -4 9 -19 24 -34 34 -33 44 -31 131 25 60 39 86 45 60
15 -21 -26 -119 -87 -177 -111 l-56 -22 34 -37 34 -36 65 39 c36 22 86 58 112
80 40 35 47 38 53 23 15 -37 -163 -162 -274 -192 l-43 -11 28 -32 c16 -18 32
-36 36 -41 10 -13 163 73 223 126 56 50 68 51 59 2 -3 -16 -7 -35 -8 -42 -5
-27 -22 -34 -94 -41 -10 -1 -9 -8 3 -31 8 -16 15 -35 15 -43 0 -46 129 1 151
55 12 29 18 56 20 83 1 21 -10 91 -20 122 -9 30 -6 43 10 43 4 0 13 -17 20
-37 19 -61 55 -125 93 -170 l37 -42 38 36 37 37 -61 60 c-43 43 -67 75 -78
109 l-16 48 47 22 c26 12 49 23 52 25 6 5 -61 62 -72 62 -5 0 -33 -20 -64 -45
-30 -25 -60 -45 -67 -45 -7 0 -27 19 -46 41 -24 29 -30 44 -23 51 7 7 60 11
142 10 129 0 130 0 136 23 3 13 3 29 -1 36 -9 14 -10 113 -1 127 16 26 -5 37
-74 37 -39 0 -70 2 -70 4 0 2 15 24 33 50 54 75 55 72 -12 64 -41 -4 -65 -2
-75 6 -8 7 -23 12 -33 11 -10 -1 -27 -2 -37 -1 -18 1 -18 2 -3 19 10 10 17 21
17 24 0 6 -75 38 -88 38 -4 -1 -25 -30 -47 -66z m172 -119 c-12 -25 -18 -26
-99 -28 l-85 -2 19 25 c17 23 26 25 99 28 l80 2 -14 -25z m-65 -124 c-15 -43
-35 -61 -66 -61 -30 0 -32 2 -31 38 l0 37 52 1 c44 1 51 -1 45 -15z m184 -14
l-1 -32 -53 3 c-50 4 -53 6 -48 25 3 12 6 24 6 27 0 3 22 6 48 7 l48 3 0 -33z"/>
</g>
</svg>
