<?xml version="1.0" standalone="no"?>
<!DOCTYPE svg PUBLIC "-//W3C//DTD SVG 20010904//EN"
 "http://www.w3.org/TR/2001/REC-SVG-20010904/DTD/svg10.dtd">
<svg version="1.0" xmlns="http://www.w3.org/2000/svg"
 width="101.000000pt" height="101.000000pt" viewBox="0 0 101.000000 101.000000"
 preserveAspectRatio="xMidYMid meet">
<metadata>
Created by potrace 1.16, written by Peter Selinger 2001-2019
</metadata>
<g transform="translate(0.000000,101.000000) scale(0.100000,-0.100000)"
fill="#000000" stroke="none">
<path d="M670 974 c-98 -42 -242 -83 -300 -85 -8 0 -22 -3 -30 -6 -16 -6 -49
-11 -115 -17 -76 -7 -104 -12 -111 -19 -4 -3 5 -20 20 -37 14 -17 26 -35 26
-38 0 -8 90 -6 135 3 57 11 96 20 140 31 37 10 75 11 75 2 0 -5 14 -27 32 -49
17 -21 29 -41 27 -43 -2 -2 -31 -12 -64 -23 l-60 -20 -27 51 c-29 55 -42 59
-101 37 l-28 -11 29 -42 c42 -63 47 -72 34 -64 -7 4 -18 4 -24 0 -7 -5 -19 -9
-28 -10 -8 -2 -33 -5 -55 -9 -22 -3 -53 -6 -69 -5 -16 0 -44 -4 -63 -11 l-34
-11 31 -34 c16 -19 30 -39 30 -45 0 -13 45 -7 116 15 29 9 65 18 80 21 16 2
69 18 117 36 78 28 90 30 103 17 13 -13 11 -18 -24 -40 -91 -61 -224 -115
-299 -123 -39 -4 -96 -15 -100 -18 -1 -1 16 -21 37 -44 l39 -41 100 34 c113
38 205 81 273 129 46 33 46 33 64 14 10 -12 14 -23 8 -28 -122 -110 -320 -210
-464 -235 -14 -2 -38 -7 -53 -11 l-29 -8 30 -26 c16 -15 34 -35 39 -46 11 -18
14 -18 100 14 149 57 261 118 378 207 30 22 37 25 32 11 -4 -10 -2 -27 4 -38
8 -15 5 -31 -12 -69 -30 -67 -54 -81 -123 -75 -31 3 -56 2 -56 -1 0 -4 7 -31
17 -60 10 -33 23 -54 35 -57 10 -3 47 4 82 14 47 14 73 29 95 54 35 40 54 99
45 142 -3 17 -1 39 5 50 7 15 5 36 -9 82 -25 84 -64 146 -112 181 -27 20 -36
31 -27 35 8 2 52 18 97 35 46 16 88 27 93 24 11 -6 69 14 69 25 0 3 -18 26
-40 51 -37 43 -40 44 -62 31 -41 -26 -123 -71 -130 -71 -3 0 -18 20 -32 45
-15 25 -32 45 -39 46 -18 1 26 17 61 22 17 3 35 8 40 11 4 3 21 7 37 10 16 3
32 11 36 17 4 7 17 9 33 5 15 -4 26 -2 26 4 0 15 -71 90 -84 89 -6 0 -36 -11
-66 -25z"/>
</g>
</svg>
