<?xml version="1.0" standalone="no"?>
<!DOCTYPE svg PUBLIC "-//W3C//DTD SVG 20010904//EN"
 "http://www.w3.org/TR/2001/REC-SVG-20010904/DTD/svg10.dtd">
<svg version="1.0" xmlns="http://www.w3.org/2000/svg"
 width="101.000000pt" height="101.000000pt" viewBox="0 0 101.000000 101.000000"
 preserveAspectRatio="xMidYMid meet">
<metadata>
Created by potrace 1.16, written by Peter Selinger 2001-2019
</metadata>
<g transform="translate(0.000000,101.000000) scale(0.100000,-0.100000)"
fill="#000000" stroke="none">
<path d="M310 969 c-39 -34 -172 -101 -237 -120 l-42 -12 23 -28 c13 -16 26
-34 29 -41 3 -9 52 11 161 65 86 42 160 75 165 73 4 -3 13 -1 21 4 12 7 7 17
-25 50 -21 22 -44 40 -50 40 -5 -1 -26 -14 -45 -31z"/>
<path d="M770 914 c-51 -14 -123 -18 -134 -6 -4 4 -46 7 -92 7 -92 0 -102 -7
-89 -58 9 -34 26 -39 104 -31 l66 6 2 -60 c1 -58 0 -60 -20 -55 -46 12 -93 13
-107 4 -12 -8 -15 -34 -13 -138 1 -70 2 -144 3 -163 0 -19 0 -66 0 -105 0 -38
1 -90 2 -115 2 -25 -1 -55 -5 -66 -9 -26 9 -33 64 -26 36 4 37 4 34 47 -3 38
-1 43 18 44 12 0 49 3 82 6 33 3 74 3 92 0 30 -5 31 -7 28 -49 -3 -49 7 -57
62 -49 35 6 48 39 31 82 -6 16 -7 77 -4 151 8 174 11 368 5 374 -10 10 -118
18 -136 11 -35 -16 -38 -12 -38 44 l0 56 114 1 c124 2 133 6 129 59 -2 22 -9
31 -28 36 -39 11 -120 8 -170 -7z m28 -270 c21 -6 23 -11 20 -71 l-3 -65 -120
-1 -120 -1 -3 37 c-2 21 1 37 7 37 6 0 11 11 11 25 0 26 8 29 76 25 18 -1 35
3 39 9 7 12 57 14 93 5z m9 -291 l3 -72 -33 -5 c-17 -3 -59 -4 -92 -1 -33 3
-71 5 -83 6 -19 1 -23 5 -18 23 3 11 6 44 6 71 l0 50 107 0 108 0 2 -72z"/>
<path d="M293 839 c-18 -12 -33 -24 -33 -28 0 -4 13 -20 30 -36 l30 -29 -27
-17 -27 -18 -34 40 c-18 21 -37 39 -40 39 -4 0 -22 -9 -41 -21 l-34 -20 38
-39 38 -39 -44 -19 c-24 -10 -61 -25 -82 -31 l-37 -13 27 -33 c16 -19 33 -34
38 -34 6 0 43 17 84 40 69 37 101 44 101 19 0 -18 -133 -110 -192 -131 -32
-12 -58 -25 -58 -28 0 -4 13 -20 30 -36 l29 -28 46 24 c25 13 77 47 115 75
l68 51 12 -26 c11 -24 9 -29 -37 -70 -61 -56 -154 -116 -201 -132 -20 -6 -41
-15 -46 -19 -9 -9 51 -69 69 -70 17 0 128 75 181 123 l51 46 -3 -49 c-5 -86
-38 -125 -99 -119 -51 5 -55 2 -39 -36 8 -19 14 -38 13 -42 -6 -37 32 -38 113
-1 49 23 59 32 81 80 14 30 26 63 26 74 0 10 3 38 7 61 3 23 3 50 -1 60 -4 10
-9 25 -10 33 -12 74 -36 133 -76 183 -17 21 -29 40 -28 41 2 2 41 25 86 51 46
26 79 52 77 58 -3 7 -19 23 -35 36 l-30 23 -23 -21 -23 -22 -24 36 c-13 19
-26 35 -29 35 -3 0 -20 -10 -37 -21z"/>
</g>
</svg>
