<?xml version="1.0" standalone="no"?>
<!DOCTYPE svg PUBLIC "-//W3C//DTD SVG 20010904//EN"
 "http://www.w3.org/TR/2001/REC-SVG-20010904/DTD/svg10.dtd">
<svg version="1.0" xmlns="http://www.w3.org/2000/svg"
 width="101.000000pt" height="101.000000pt" viewBox="0 0 101.000000 101.000000"
 preserveAspectRatio="xMidYMid meet">
<metadata>
Created by potrace 1.16, written by Peter Selinger 2001-2019
</metadata>
<g transform="translate(0.000000,101.000000) scale(0.100000,-0.100000)"
fill="#000000" stroke="none">
<path d="M614 956 c-3 -19 -3 -39 0 -44 3 -6 3 -18 0 -26 -5 -14 -17 -16 -70
-12 l-64 6 3 -63 3 -62 -33 34 -34 34 -28 -27 c-27 -26 -29 -27 -35 -9 -3 11
-15 29 -26 40 l-19 21 64 28 c62 27 64 29 47 47 -9 11 -30 28 -45 39 l-28 20
-42 -29 c-54 -39 -128 -76 -197 -98 -30 -10 -57 -19 -58 -21 -2 -1 7 -17 20
-36 12 -18 24 -35 25 -37 2 -2 22 3 45 12 l43 16 -29 -23 -28 -24 26 -38 26
-39 -30 -13 c-17 -7 -44 -14 -59 -16 -49 -5 -54 -15 -26 -43 14 -14 25 -30 25
-34 0 -17 31 -9 100 26 66 33 77 34 76 9 -1 -18 -93 -89 -158 -124 l-59 -32
28 -32 28 -33 39 21 c22 11 68 48 103 80 35 32 65 57 67 55 2 -2 6 -13 10 -25
9 -30 -107 -137 -204 -188 -41 -21 -77 -40 -78 -42 -6 -4 62 -63 72 -64 11 0
102 67 177 131 54 46 55 47 53 21 -9 -108 -38 -144 -109 -137 -25 2 -45 1 -45
-2 0 -3 10 -27 22 -54 21 -45 25 -48 53 -45 17 2 47 11 67 19 36 15 38 15 77
-14 23 -16 45 -29 49 -29 19 0 94 62 122 102 39 53 66 138 73 230 1 18 9 28
22 30 19 4 20 0 17 -116 -3 -140 10 -194 51 -214 20 -10 32 -10 48 -2 12 7 36
9 56 5 50 -9 79 14 98 77 8 28 14 52 12 52 -1 1 -21 10 -43 22 l-42 21 -11
-37 c-12 -41 -33 -64 -53 -58 -10 4 -13 37 -13 131 0 140 -6 130 65 113 14 -3
30 -3 37 2 17 11 30 242 14 242 -6 0 -11 15 -11 35 0 19 5 35 11 35 6 0 9 19
7 48 l-3 47 -73 -3 c-47 -2 -78 1 -87 8 -8 7 -24 10 -35 7 -26 -7 -25 9 1 52
24 39 20 45 -26 44 -19 -1 -35 3 -35 8 0 5 -9 9 -20 9 -14 0 -21 -9 -26 -34z
m-328 -131 c-10 -8 -23 -16 -29 -18 -5 -1 3 -20 17 -42 l27 -39 -26 -14 c-15
-7 -28 -12 -29 -10 -1 2 -14 23 -30 46 -15 24 -26 45 -24 46 7 5 103 45 108
45 3 0 -4 -6 -14 -14z m529 -78 l0 -42 -52 3 c-34 3 -53 0 -53 -7 0 -6 -11
-11 -25 -11 -14 0 -25 5 -25 10 0 6 -19 10 -42 10 -43 0 -43 0 -43 38 l-1 37
121 2 120 1 0 -41z m-333 -57 c-3 -30 1 -57 8 -65 9 -11 11 -36 6 -87 -8 -76
-3 -88 42 -88 20 0 28 -15 22 -45 -1 -5 -3 -24 -6 -43 -8 -64 -66 -147 -126
-178 -38 -20 -39 -19 -21 23 16 39 17 47 29 149 4 42 3 64 -5 68 -6 4 -8 12
-5 18 7 12 2 24 -52 134 l-41 81 76 41 c42 23 76 42 76 42 0 0 -2 -23 -3 -50z
m333 -107 c0 -38 -3 -42 -29 -47 -47 -10 -156 -7 -156 4 0 6 -11 10 -24 10
-20 0 -24 6 -27 38 l-4 37 120 0 120 0 0 -42z"/>
</g>
</svg>
