<?xml version="1.0" standalone="no"?>
<!DOCTYPE svg PUBLIC "-//W3C//DTD SVG 20010904//EN"
 "http://www.w3.org/TR/2001/REC-SVG-20010904/DTD/svg10.dtd">
<svg version="1.0" xmlns="http://www.w3.org/2000/svg"
 width="57.000000pt" height="101.000000pt" viewBox="0 0 57.000000 101.000000"
 preserveAspectRatio="xMidYMid meet">
<metadata>
Created by potrace 1.16, written by Peter Selinger 2001-2019
</metadata>
<g transform="translate(0.000000,101.000000) scale(0.100000,-0.100000)"
fill="#000000" stroke="none">
<path d="M230 914 c-17 -5 -39 -49 -39 -79 0 -11 -3 -33 -6 -50 -5 -25 -11
-55 -14 -75 -1 -3 -21 -5 -46 -5 -32 0 -48 -5 -59 -20 -30 -40 -13 -69 42 -69
34 -1 40 -4 38 -21 -1 -12 -5 -25 -8 -30 -3 -6 -6 -22 -7 -37 -3 -58 -2 -58
-47 -56 -50 3 -61 -5 -69 -49 -6 -36 -2 -38 63 -34 30 3 33 0 27 -18 -3 -11
-8 -33 -11 -48 -3 -16 -7 -36 -10 -45 -5 -16 -9 -37 -18 -85 -5 -25 20 -35 61
-24 30 8 36 21 58 136 3 17 7 39 9 50 2 11 4 22 5 25 0 3 21 7 46 8 50 2 48 6
30 -78 -3 -14 -7 -36 -10 -50 -2 -14 -6 -39 -9 -56 -5 -26 -2 -33 13 -37 49
-13 78 8 87 63 2 8 5 29 9 45 6 30 11 66 14 95 1 11 14 16 48 18 55 2 63 8 68
51 4 29 2 31 -28 33 -18 0 -39 1 -49 0 -16 -1 -17 12 -2 78 3 14 6 34 6 45 0
17 6 20 42 17 52 -3 65 6 73 51 l5 36 -51 7 c-28 3 -48 11 -45 16 3 5 7 19 9
31 2 12 7 36 10 52 3 17 8 46 10 65 l5 36 -44 -1 c-41 0 -45 -2 -52 -30 -12
-52 -30 -139 -33 -167 -1 -7 -91 -7 -91 0 0 2 4 12 10 22 5 10 12 38 15 62 2
23 7 58 10 77 7 45 -13 59 -65 45z m93 -331 c-3 -21 -7 -47 -8 -58 -2 -11 -4
-28 -4 -37 -1 -14 -9 -17 -44 -16 -40 2 -43 4 -40 28 11 96 18 108 61 113 20
2 38 4 39 5 1 1 0 -15 -4 -35z"/>
</g>
</svg>
