<?xml version="1.0" standalone="no"?>
<!DOCTYPE svg PUBLIC "-//W3C//DTD SVG 20010904//EN"
 "http://www.w3.org/TR/2001/REC-SVG-20010904/DTD/svg10.dtd">
<svg version="1.0" xmlns="http://www.w3.org/2000/svg"
 width="101.000000pt" height="101.000000pt" viewBox="0 0 101.000000 101.000000"
 preserveAspectRatio="xMidYMid meet">
<metadata>
Created by potrace 1.16, written by Peter Selinger 2001-2019
</metadata>
<g transform="translate(0.000000,101.000000) scale(0.100000,-0.100000)"
fill="#000000" stroke="none">
<path d="M746 903 c1 -68 -3 -111 -10 -115 -16 -11 -94 -10 -101 2 -7 12 -104
11 -127 -2 -20 -10 -23 -40 -7 -70 10 -19 17 -20 101 -13 l90 7 -7 -23 c-4
-13 -30 -69 -58 -124 -41 -80 -67 -116 -129 -178 l-77 -77 52 -26 51 -26 24
28 c52 64 107 151 148 238 l44 91 1 -70 c2 -205 1 -324 -5 -333 -4 -6 -29 -8
-62 -6 l-56 5 16 -23 c9 -13 21 -40 26 -60 10 -35 12 -36 48 -33 20 2 55 9 77
17 36 12 41 17 52 62 8 33 12 128 10 290 l-2 241 32 -3 c63 -8 79 2 78 50 l0
44 -53 0 c-29 1 -55 3 -57 6 -5 5 -7 138 -3 178 3 23 0 25 -47 28 l-50 3 1
-108z"/>
<path d="M108 949 c-13 -7 -18 -23 -18 -54 0 -25 5 -45 10 -45 6 0 10 -16 10
-35 0 -19 -4 -35 -10 -35 -6 0 -10 -30 -10 -70 0 -40 4 -70 10 -70 6 0 10 -11
10 -25 0 -14 -4 -25 -10 -25 -6 0 -9 -45 -7 -115 2 -124 0 -121 62 -116 17 2
33 8 37 14 12 18 9 85 -3 92 -7 5 -8 46 -3 131 5 90 4 124 -5 124 -6 0 -11 11
-11 25 0 14 5 25 10 25 6 0 10 18 10 40 0 35 3 40 23 40 13 0 57 3 98 6 l74 6
-1 -188 c-1 -104 -4 -207 -8 -229 -8 -48 0 -63 40 -71 47 -9 64 14 63 87 -1
32 -5 61 -9 64 -12 7 -12 153 0 160 5 3 9 62 9 134 l-1 129 -39 6 c-22 4 -48
2 -58 -4 -18 -9 -143 -7 -221 5 -19 3 -43 0 -52 -6z"/>
<path d="M246 804 c-18 -17 -22 -109 -6 -119 13 -8 13 -52 0 -60 -5 -3 -9 -45
-9 -93 1 -82 -1 -103 -16 -177 -11 -56 -63 -114 -142 -161 l-42 -26 46 -35 46
-35 59 59 c33 32 71 78 86 102 l26 44 38 -44 c21 -24 50 -63 66 -86 15 -24 29
-43 32 -43 3 0 24 13 48 29 l43 28 -55 65 c-30 36 -66 72 -81 82 -25 16 -27
16 -61 -5 l-35 -21 7 28 c4 16 10 36 15 44 4 9 10 97 13 195 3 99 9 190 12
203 6 21 -3 27 -29 23 -4 -1 -16 3 -27 9 -14 7 -23 6 -34 -6z"/>
</g>
</svg>
