<?xml version="1.0" standalone="no"?>
<!DOCTYPE svg PUBLIC "-//W3C//DTD SVG 20010904//EN"
 "http://www.w3.org/TR/2001/REC-SVG-20010904/DTD/svg10.dtd">
<svg version="1.0" xmlns="http://www.w3.org/2000/svg"
 width="101.000000pt" height="102.000000pt" viewBox="0 0 101.000000 102.000000"
 preserveAspectRatio="xMidYMid meet">
<metadata>
Created by potrace 1.16, written by Peter Selinger 2001-2019
</metadata>
<g transform="translate(0.000000,102.000000) scale(0.100000,-0.100000)"
fill="#000000" stroke="none">
<path d="M613 948 l2 -73 -48 4 c-27 1 -54 -2 -60 -8 -14 -14 -54 -14 -62 -1
-8 13 -142 13 -150 1 -7 -13 -173 -13 -180 -1 -7 12 -35 13 -52 2 -21 -13 -26
-58 -8 -75 12 -13 38 -16 120 -16 57 0 107 4 110 9 8 12 146 11 161 -1 6 -5
47 -8 92 -6 81 2 82 2 83 -23 2 -55 18 -257 23 -290 3 -19 7 -44 9 -55 14 -89
77 -225 127 -275 45 -45 100 -64 129 -44 19 14 51 98 51 133 0 18 -78 86 -87
77 -3 -3 -7 -23 -8 -43 -3 -51 -3 -53 -15 -53 -28 0 -93 140 -105 225 -3 22
-8 58 -12 80 -3 22 -6 67 -7 100 -1 33 -4 63 -5 68 -7 16 -5 105 2 100 4 -3
50 -2 102 2 78 6 95 10 100 25 8 25 -5 71 -19 69 -6 -1 -27 -1 -46 0 l-35 1
33 20 c17 11 32 23 32 27 0 4 -17 24 -37 45 l-36 37 -39 -21 c-21 -12 -38 -25
-38 -29 0 -4 14 -21 30 -39 17 -18 30 -35 30 -39 0 -3 -20 -5 -44 -3 -43 4
-43 4 -40 40 1 21 5 49 9 64 7 26 6 27 -29 21 -24 -4 -36 -2 -36 6 0 6 -11 11
-24 11 -23 0 -24 -2 -23 -72z"/>
<path d="M136 733 c-19 -47 7 -71 78 -72 31 0 58 5 62 11 5 7 51 8 149 3 128
-6 143 -5 149 10 3 9 3 28 0 41 -5 19 -11 23 -23 18 -30 -13 -81 -16 -94 -6
-15 13 -115 14 -123 1 -7 -12 -51 -11 -59 1 -10 17 -133 10 -139 -7z"/>
<path d="M300 639 c0 -6 -29 -9 -82 -8 -77 2 -83 1 -86 -18 -2 -11 4 -28 13
-37 15 -14 43 -16 221 -14 217 3 220 4 208 52 -5 21 -12 24 -102 29 -136 9
-172 9 -172 -4z"/>
<path d="M168 533 c-22 -6 -28 -38 -26 -155 1 -106 3 -110 66 -100 32 4 32 5
32 61 -1 114 -2 111 41 111 21 0 39 5 39 10 0 15 67 12 73 -2 4 -10 8 -10 15
1 7 9 20 12 43 7 34 -6 34 -6 31 -58 -5 -87 -4 -119 2 -126 11 -11 89 -4 97 9
4 7 4 22 -1 33 -4 11 -5 61 -2 109 4 68 2 91 -8 97 -14 8 -370 11 -402 3z"/>
<path d="M319 427 c-1 -7 -2 -26 -4 -43 -10 -118 -71 -168 -229 -190 -16 -2
-30 -5 -33 -7 -2 -2 10 -19 27 -37 16 -18 30 -37 30 -42 0 -28 144 30 203 81
39 35 89 126 92 170 2 14 6 33 9 42 8 19 -12 30 -61 34 -20 2 -33 -1 -34 -8z"/>
<path d="M401 266 l-32 -33 56 -32 c30 -17 73 -48 96 -68 l40 -36 34 33 c19
19 35 39 35 44 0 6 -26 25 -58 43 -31 18 -75 43 -98 57 l-41 25 -32 -33z"/>
</g>
</svg>
