<?xml version="1.0" standalone="no"?>
<!DOCTYPE svg PUBLIC "-//W3C//DTD SVG 20010904//EN"
 "http://www.w3.org/TR/2001/REC-SVG-20010904/DTD/svg10.dtd">
<svg version="1.0" xmlns="http://www.w3.org/2000/svg"
 width="101.000000pt" height="101.000000pt" viewBox="0 0 101.000000 101.000000"
 preserveAspectRatio="xMidYMid meet">
<metadata>
Created by potrace 1.16, written by Peter Selinger 2001-2019
</metadata>
<g transform="translate(0.000000,101.000000) scale(0.100000,-0.100000)"
fill="#000000" stroke="none">
<path d="M635 998 c-16 -6 -31 -12 -33 -13 -2 -2 9 -37 24 -79 15 -42 24 -79
22 -82 -3 -3 -44 -5 -91 -6 -84 0 -86 -1 -92 -27 -6 -32 2 -248 10 -261 7 -11
54 -13 77 -5 10 4 13 31 13 103 l0 97 48 -4 c27 -1 54 2 60 8 14 14 54 14 62
1 4 -7 23 -8 48 -5 l42 6 3 -55 c1 -30 -2 -57 -8 -61 -16 -10 -12 -62 6 -79
16 -16 70 -21 90 -8 8 5 11 53 11 144 l0 138 -107 -6 c-86 -5 -108 -3 -118 9
-10 12 -7 15 18 20 37 8 37 18 3 107 -29 74 -34 77 -88 58z"/>
<path d="M72 865 c0 -41 4 -78 9 -81 12 -7 9 -166 -3 -182 -7 -8 -9 -44 -6
-96 3 -45 2 -90 -3 -99 -21 -37 62 -65 95 -31 18 18 21 50 5 59 -7 5 -8 46 -3
131 5 90 4 124 -5 124 -6 0 -11 16 -11 35 0 19 5 35 10 35 6 0 10 18 10 40 0
33 3 40 19 40 11 0 23 5 26 10 7 11 57 13 101 4 l29 -5 -3 -114 c-2 -71 1
-116 8 -120 13 -8 13 -52 0 -60 -5 -3 -9 -46 -8 -95 1 -97 4 -101 66 -92 l31
4 0 147 c-1 80 1 193 5 251 8 129 2 174 -22 165 -34 -14 -132 -18 -132 -6 0 6
-17 11 -40 11 -22 0 -40 -4 -40 -10 0 -5 -25 -10 -55 -10 -30 0 -55 5 -55 10
0 6 -6 10 -14 10 -11 0 -14 -17 -14 -75z"/>
<path d="M216 797 c-15 -11 -16 -24 -10 -115 4 -56 11 -102 15 -102 14 0 10
-65 -6 -96 -8 -15 -14 -46 -14 -68 1 -23 -4 -54 -10 -70 -19 -48 -76 -119
-125 -155 -25 -19 -46 -37 -46 -40 0 -3 21 -18 45 -33 l44 -27 50 56 c27 30
60 75 73 99 12 24 27 43 33 41 11 -4 82 -91 101 -123 11 -18 12 -18 53 4 34
19 41 21 41 8 0 -15 21 -22 45 -16 64 16 346 17 388 1 37 -14 54 -5 60 32 9
62 6 64 -106 60 -154 -6 -287 -6 -339 1 -49 6 -54 2 -49 -39 1 -5 -28 22 -63
60 l-65 70 -30 -18 c-34 -20 -36 -17 -20 33 13 43 20 87 19 120 -2 35 -1 59 4
191 l5 116 -25 12 c-32 14 -46 14 -68 -2z"/>
</g>
</svg>
