<?xml version="1.0" standalone="no"?>
<!DOCTYPE svg PUBLIC "-//W3C//DTD SVG 20010904//EN"
 "http://www.w3.org/TR/2001/REC-SVG-20010904/DTD/svg10.dtd">
<svg version="1.0" xmlns="http://www.w3.org/2000/svg"
 width="101.000000pt" height="103.000000pt" viewBox="0 0 101.000000 103.000000"
 preserveAspectRatio="xMidYMid meet">
<metadata>
Created by potrace 1.16, written by Peter Selinger 2001-2019
</metadata>
<g transform="translate(0.000000,103.000000) scale(0.100000,-0.100000)"
fill="#000000" stroke="none">
<path d="M237 1023 c-15 -4 -17 -13 -14 -59 l4 -54 -82 5 c-82 5 -83 5 -89
-21 -14 -53 -3 -60 83 -59 l79 1 4 -41 c2 -23 -1 -42 -7 -42 -5 -1 -28 -4 -50
-8 -22 -3 -55 -8 -73 -10 -19 -2 -36 -5 -38 -8 -5 -5 16 -69 26 -80 4 -4 38 1
77 11 l70 20 -1 -37 c-1 -35 -2 -36 -44 -37 -23 0 -45 -3 -48 -6 -3 -4 2 -20
10 -37 9 -16 16 -37 16 -46 0 -10 7 -15 17 -13 13 2 19 -5 21 -27 7 -65 7
-181 -1 -201 -9 -26 9 -33 65 -26 33 4 37 7 32 26 -5 21 -7 110 -4 152 3 25 2
25 150 25 266 -1 258 0 259 -29 4 -65 1 -136 -7 -144 -4 -4 -31 1 -60 12 -29
11 -56 20 -61 20 -14 0 -53 -68 -46 -80 3 -5 12 -10 19 -10 7 0 78 -32 157
-72 l143 -71 38 44 39 44 -86 40 c-79 38 -97 55 -55 55 15 0 16 12 14 96 -2
53 0 104 6 113 5 10 7 27 4 38 -6 20 -13 21 -147 21 -203 0 -195 -3 -137 43
26 21 55 48 63 59 l15 22 41 -27 c45 -30 53 -28 83 23 l17 29 -48 22 c-42 20
-48 26 -44 50 2 14 5 35 6 46 1 14 12 21 37 25 20 4 40 9 45 12 6 4 10 -17 10
-50 1 -151 59 -282 124 -282 23 0 64 44 91 98 l23 43 -34 35 c-18 19 -36 34
-39 34 -4 0 -14 -18 -23 -40 -13 -35 -35 -54 -38 -32 -2 15 -7 48 -20 112 -9
48 -9 65 0 68 6 2 11 26 11 58 l0 54 -52 -4 c-29 -3 -67 -6 -84 -8 -30 -3 -31
-2 -28 32 1 19 5 43 9 52 8 19 -16 28 -70 26 -30 -1 -30 -2 -30 -61 0 -59 0
-60 -30 -63 -87 -10 -125 -9 -125 3 0 8 -18 12 -58 10 l-58 -2 8 49 c4 28 6
51 4 53 -7 7 -71 12 -89 6z m197 -205 c12 -16 43 -17 119 -4 23 4 26 2 16 -10
-6 -7 -9 -20 -6 -28 5 -13 0 -12 -30 2 l-35 17 -24 -30 c-29 -37 -27 -47 14
-59 18 -5 32 -12 32 -16 0 -16 -60 -61 -114 -86 l-60 -27 29 -23 29 -23 -28
-7 c-15 -3 -38 -2 -52 4 -13 7 -32 9 -41 6 -16 -5 -16 -4 1 10 12 10 21 31 23
58 6 91 7 93 33 96 36 4 74 9 80 11 11 2 31 71 25 82 -7 11 -48 7 -100 -9 -29
-9 -30 -8 -31 22 l0 31 54 0 c38 -1 58 -6 66 -17z"/>
<path d="M449 417 c0 -6 -2 -19 -4 -27 -2 -8 -5 -27 -8 -42 -14 -72 -88 -131
-175 -142 -15 -1 -44 -9 -64 -16 -28 -10 -43 -11 -61 -3 -23 11 -67 8 -67 -4
0 -3 14 -21 30 -40 17 -18 30 -38 30 -44 0 -22 192 21 271 62 52 26 94 79 120
149 12 33 26 63 30 66 18 11 8 32 -18 39 -53 14 -83 15 -84 2z"/>
</g>
</svg>
