<?xml version="1.0" standalone="no"?>
<!DOCTYPE svg PUBLIC "-//W3C//DTD SVG 20010904//EN"
 "http://www.w3.org/TR/2001/REC-SVG-20010904/DTD/svg10.dtd">
<svg version="1.0" xmlns="http://www.w3.org/2000/svg"
 width="101.000000pt" height="102.000000pt" viewBox="0 0 101.000000 102.000000"
 preserveAspectRatio="xMidYMid meet">
<metadata>
Created by potrace 1.16, written by Peter Selinger 2001-2019
</metadata>
<g transform="translate(0.000000,102.000000) scale(0.100000,-0.100000)"
fill="#000000" stroke="none">
<path d="M630 1000 c0 -11 5 -20 10 -20 11 0 13 -55 4 -123 l-7 -47 -81 6
c-44 4 -93 7 -108 8 -29 1 -31 5 -28 67 1 37 -19 69 -45 69 -8 0 -25 -5 -39
-11 -18 -8 -54 -9 -133 -2 -59 6 -113 8 -120 6 -8 -3 -10 -36 -8 -111 6 -149
3 -385 -5 -422 -11 -53 11 -74 67 -61 l28 6 3 112 c1 61 -2 114 -7 117 -13 8
-13 147 0 162 6 8 9 35 7 61 l-3 48 73 1 72 1 0 -44 c0 -23 5 -43 10 -43 6 0
10 -11 10 -25 0 -14 -4 -25 -10 -25 -6 0 -10 -30 -10 -70 0 -40 4 -70 10 -70
14 0 13 -47 -1 -52 -8 -3 -10 -29 -5 -90 8 -93 15 -101 70 -91 26 5 33 26 28
86 -1 9 2 17 6 18 4 1 21 2 39 4 l31 3 -2 -57 c-5 -90 -66 -185 -146 -226 -17
-9 -30 -17 -30 -19 0 -3 21 -16 47 -30 l47 -27 40 40 41 41 35 -21 c19 -12 38
-26 42 -32 8 -13 36 5 102 65 l50 44 45 -60 c46 -61 118 -110 146 -100 16 7
43 70 50 121 5 36 3 40 -35 66 l-40 28 -10 -26 c-6 -15 -8 -31 -4 -36 3 -5 2
-14 -1 -19 -9 -15 -31 5 -61 56 l-25 42 35 63 c19 35 47 96 62 134 15 39 36
80 46 92 20 21 20 21 -5 38 -35 23 -97 32 -98 14 -2 -49 -54 -215 -70 -225 -5
-3 -9 10 -10 28 0 18 -1 85 -2 149 l-2 117 70 6 c39 4 85 3 104 0 38 -8 51 5
51 48 0 34 -31 53 -68 42 -15 -4 -58 -8 -97 -8 l-70 -1 3 40 c11 161 12 155
-11 159 -60 10 -87 5 -87 -14z m7 -295 c0 -16 2 -66 5 -110 3 -44 4 -72 1 -62
-4 16 -19 22 -55 19 -12 -1 -15 5 -12 26 3 15 6 42 8 59 1 18 6 36 9 40 9 8
-47 33 -74 33 -19 0 -43 -33 -32 -44 6 -5 8 -19 15 -86 3 -23 0 -25 -44 -26
l-48 -1 0 73 c0 90 4 102 35 97 13 -3 30 -1 38 4 9 4 47 8 84 8 l69 0 1 -30z
m19 -238 c2 -29 12 -87 19 -113 5 -15 -5 -31 -43 -66 -50 -47 -132 -96 -132
-79 0 5 4 12 9 16 24 14 65 159 64 222 -1 15 5 22 16 21 36 -3 51 3 51 19 0
24 15 6 16 -20z"/>
<path d="M785 963 c-16 -8 -31 -17 -33 -18 -2 -2 8 -19 22 -40 14 -20 28 -45
31 -56 5 -14 12 -18 23 -14 10 4 29 12 45 17 15 5 27 14 27 18 0 13 -64 104
-75 106 -5 2 -23 -4 -40 -13z"/>
<path d="M218 823 c-19 -5 -25 -43 -8 -43 12 0 12 -96 -1 -210 -5 -47 -11
-103 -13 -125 -12 -115 -57 -193 -142 -246 l-35 -21 33 -29 c18 -15 38 -28 44
-29 17 0 100 92 124 140 l21 42 27 -23 c14 -13 35 -34 45 -46 24 -29 38 -29
67 2 l24 25 -33 34 c-18 18 -43 39 -57 46 -21 12 -27 11 -46 -6 -21 -19 -21
-19 -13 1 4 11 9 43 11 70 1 28 5 75 9 105 3 30 10 109 14 175 7 102 5 122 -8
133 -15 12 -31 14 -63 5z"/>
</g>
</svg>
