<?xml version="1.0" standalone="no"?>
<!DOCTYPE svg PUBLIC "-//W3C//DTD SVG 20010904//EN"
 "http://www.w3.org/TR/2001/REC-SVG-20010904/DTD/svg10.dtd">
<svg version="1.0" xmlns="http://www.w3.org/2000/svg"
 width="101.000000pt" height="101.000000pt" viewBox="0 0 101.000000 101.000000"
 preserveAspectRatio="xMidYMid meet">
<metadata>
Created by potrace 1.16, written by Peter Selinger 2001-2019
</metadata>
<g transform="translate(0.000000,101.000000) scale(0.100000,-0.100000)"
fill="#000000" stroke="none">
<path d="M82 914 c0 -35 4 -66 9 -69 11 -8 10 -173 -2 -180 -5 -4 -8 -67 -6
-145 2 -152 2 -152 64 -143 l31 5 -4 136 c-4 151 -4 171 -1 287 l2 80 85 0 85
0 2 -155 c1 -85 4 -180 5 -210 2 -30 0 -71 -5 -91 -8 -41 4 -50 59 -42 l29 5
3 158 c1 91 -2 161 -7 165 -12 7 -13 172 -1 180 5 3 8 23 8 45 0 35 -3 39 -22
35 -28 -7 -217 -8 -282 -2 l-51 4 -1 -63z"/>
<path d="M480 910 c0 -33 4 -60 10 -60 6 0 10 -16 10 -35 0 -19 -5 -35 -10
-35 -7 0 -10 -39 -8 -105 1 -79 5 -105 15 -105 7 0 13 5 13 10 0 6 8 10 19 10
15 0 19 -10 24 -67 3 -38 2 -72 -3 -78 -4 -5 -8 -26 -8 -46 0 -70 -57 -153
-145 -211 l-37 -25 49 -31 50 -30 54 57 c97 101 127 187 136 387 1 14 9 23 24
26 l22 4 -2 -156 c-2 -86 1 -183 5 -215 6 -53 11 -61 36 -74 16 -7 38 -13 50
-12 82 4 119 11 136 26 17 15 57 114 49 118 -95 50 -94 50 -103 2 -3 -15 -10
-33 -15 -38 -16 -16 -49 -18 -58 -4 -4 6 -8 89 -8 183 l0 171 41 -5 c29 -3 45
0 57 13 19 18 23 70 7 80 -7 5 -8 46 -4 123 8 134 8 171 3 176 -2 1 -47 -2
-98 -7 -71 -8 -96 -7 -99 1 -5 15 -82 16 -82 2 0 -5 -25 -10 -55 -10 -30 0
-55 5 -55 10 0 6 -4 10 -10 10 -6 0 -10 -27 -10 -60z m315 -137 c0 -61 -4
-111 -10 -115 -15 -11 -73 -9 -80 2 -4 6 -32 9 -66 8 l-60 -3 6 37 c5 25 3 38
-4 38 -6 0 -11 11 -11 25 0 14 5 25 10 25 6 0 10 18 10 39 l0 40 53 4 c28 2
75 4 102 5 l50 2 0 -107z"/>
<path d="M216 820 c-9 -32 -6 -149 4 -155 13 -8 13 -52 -1 -60 -6 -5 -8 -22
-4 -46 4 -24 3 -45 -4 -53 -6 -8 -11 -27 -10 -42 4 -85 -35 -167 -116 -242
-33 -30 -54 -57 -48 -59 7 -3 28 -15 48 -29 20 -13 38 -24 40 -24 9 0 96 131
118 178 l24 52 36 -39 c19 -22 40 -49 47 -60 6 -12 16 -21 23 -21 14 1 67 45
67 57 0 12 -103 113 -115 113 -5 0 -20 -10 -33 -22 l-25 -23 7 25 c4 14 9 34
13 45 9 31 13 89 17 235 2 74 7 142 11 151 4 11 -2 19 -22 27 -37 15 -72 12
-77 -8z"/>
</g>
</svg>
