<?xml version="1.0" standalone="no"?>
<!DOCTYPE svg PUBLIC "-//W3C//DTD SVG 20010904//EN"
 "http://www.w3.org/TR/2001/REC-SVG-20010904/DTD/svg10.dtd">
<svg version="1.0" xmlns="http://www.w3.org/2000/svg"
 width="101.000000pt" height="101.000000pt" viewBox="0 0 101.000000 101.000000"
 preserveAspectRatio="xMidYMid meet">
<metadata>
Created by potrace 1.16, written by Peter Selinger 2001-2019
</metadata>
<g transform="translate(0.000000,101.000000) scale(0.100000,-0.100000)"
fill="#000000" stroke="none">
<path d="M81 969 c-20 -8 -22 -14 -17 -47 3 -20 8 -95 11 -167 6 -188 6 -195
0 -255 -7 -64 -6 -132 1 -139 10 -10 87 -2 95 11 4 7 10 10 13 7 13 -13 -50
-112 -99 -157 l-54 -50 40 -31 39 -32 38 41 c20 22 51 66 69 97 l31 56 38 -59
c21 -33 39 -60 40 -62 1 -2 19 7 40 20 36 20 38 21 24 3 -8 -11 -23 -30 -34
-42 -23 -27 -24 -25 35 -51 l47 -20 21 43 c23 46 60 147 66 180 2 11 7 36 10
55 6 30 13 97 16 166 1 11 7 21 14 21 16 0 17 -11 16 -197 0 -142 -2 -155 -20
-170 -20 -15 -20 -15 -1 -58 l19 -42 60 38 c32 22 73 44 89 51 38 16 44 30 30
74 l-11 35 -39 -25 c-22 -13 -43 -22 -46 -19 -5 6 -7 230 -2 283 3 29 38 38
38 9 -1 -118 70 -304 149 -393 l38 -42 45 40 45 41 -48 41 c-27 22 -61 59 -77
82 l-29 42 22 20 c12 11 41 33 65 48 23 15 42 32 42 37 0 12 -46 58 -59 58 -5
0 -30 -24 -55 -52 -26 -29 -46 -46 -47 -38 0 8 -2 24 -4 35 -2 11 -6 38 -8 60
l-5 40 81 0 c45 0 85 5 89 10 15 20 8 74 -11 84 -10 6 -22 7 -26 3 -3 -4 -84
-7 -178 -7 l-172 0 0 113 0 112 43 0 c23 0 42 5 42 10 0 6 11 10 25 10 14 0
25 -5 25 -11 0 -7 38 -10 119 -7 l119 3 6 37 c10 59 3 65 -67 62 -129 -5 -254
-4 -295 2 -23 3 -58 3 -76 0 l-34 -7 -1 -129 c0 -83 3 -132 10 -136 13 -7 4
-150 -12 -191 -5 -15 -4 -32 3 -49 9 -20 9 -30 -1 -45 -6 -11 -14 -37 -17 -57
-2 -20 -11 -58 -20 -85 l-16 -47 -45 62 c-25 35 -47 65 -49 67 -2 2 -16 -1
-30 -8 -25 -11 -26 -10 -19 11 8 28 13 65 19 138 2 30 7 66 10 80 3 14 7 71 8
126 l3 102 -32 11 c-44 16 -73 1 -73 -39 0 -17 5 -30 10 -30 13 0 12 -101 -1
-200 -5 -41 -11 -92 -13 -113 -5 -52 -12 -55 -30 -12 -18 42 -21 101 -6 110
12 7 11 113 -1 121 -13 7 -11 51 2 59 6 4 9 37 7 83 l-3 77 80 2 80 1 -4 -50
c-2 -28 2 -55 8 -61 13 -13 15 -54 2 -61 -12 -8 -13 -114 -1 -121 13 -8 13
-130 1 -172 -10 -36 2 -44 56 -36 l31 5 5 96 c4 54 4 129 2 167 -6 102 -6 133
1 198 3 32 3 73 0 90 l-6 32 -102 1 c-57 0 -128 3 -158 7 -30 3 -66 2 -79 -4z"/>
<path d="M574 801 c-7 -7 -4 -55 4 -68 5 -8 52 -11 160 -10 166 2 171 4 156
62 l-6 26 -155 -3 c-85 -2 -156 -5 -159 -7z"/>
</g>
</svg>
