<?xml version="1.0" standalone="no"?>
<!DOCTYPE svg PUBLIC "-//W3C//DTD SVG 20010904//EN"
 "http://www.w3.org/TR/2001/REC-SVG-20010904/DTD/svg10.dtd">
<svg version="1.0" xmlns="http://www.w3.org/2000/svg"
 width="101.000000pt" height="102.000000pt" viewBox="0 0 101.000000 102.000000"
 preserveAspectRatio="xMidYMid meet">
<metadata>
Created by potrace 1.16, written by Peter Selinger 2001-2019
</metadata>
<g transform="translate(0.000000,102.000000) scale(0.100000,-0.100000)"
fill="#000000" stroke="none">
<path d="M653 1007 l-41 -12 15 -30 c9 -16 19 -43 23 -60 l7 -30 -108 0 c-59
0 -105 4 -102 8 3 5 2 18 -1 30 -5 22 -9 22 -189 24 l-184 1 -1 -33 c-1 -19 3
-37 8 -40 12 -8 12 -173 -1 -180 -12 -8 -12 -142 1 -150 13 -8 13 -52 0 -60
-6 -4 -10 -35 -9 -70 2 -69 8 -76 65 -68 l30 5 2 89 c1 53 -2 89 -8 89 -6 0
-10 11 -10 25 0 14 5 25 10 25 6 0 10 30 10 70 0 40 -4 70 -10 70 -5 0 -10 11
-10 25 0 14 5 25 10 25 6 0 10 18 10 40 0 37 2 40 29 40 15 0 55 3 87 6 l59 6
2 -128 c1 -71 2 -145 3 -164 0 -19 -1 -69 -2 -110 l-3 -75 35 -6 c19 -4 28 -7
21 -8 -16 -1 46 -71 63 -71 17 0 150 107 207 167 31 32 81 93 113 136 32 43
64 81 72 84 8 3 14 9 14 14 0 10 -70 59 -85 59 -6 0 -23 -25 -38 -55 -30 -62
-46 -72 -111 -67 -54 5 -53 11 18 87 25 27 46 52 46 57 0 9 19 11 63 8 15 -1
35 4 43 11 9 8 37 10 84 7 72 -5 80 -1 80 42 0 23 -28 52 -41 44 -5 -3 -50 -6
-99 -7 -48 -1 -84 1 -78 4 16 10 -31 141 -50 138 -4 -1 -26 -6 -49 -12z m-207
-186 c-4 -5 -3 -16 0 -24 4 -12 20 -14 75 -11 38 2 69 0 69 -5 0 -16 -78 -128
-104 -148 -27 -21 -29 -40 -11 -86 6 -15 15 -17 54 -12 25 3 61 7 78 8 l33 3
-42 -43 c-23 -24 -69 -62 -101 -84 l-59 -42 7 130 c5 89 4 132 -3 137 -6 4
-11 42 -11 88 0 76 3 98 15 98 3 0 3 -4 0 -9z"/>
<path d="M215 796 c-13 -10 -16 -21 -12 -47 11 -61 15 -279 6 -284 -5 -3 -8
-28 -8 -55 2 -85 -55 -167 -159 -230 -16 -9 -15 -11 2 -22 11 -6 29 -22 41
-34 l21 -23 36 30 c33 26 110 130 120 161 5 14 44 -25 79 -80 24 -38 34 -39
73 -8 20 17 26 28 20 39 -12 21 -103 117 -111 117 -4 0 -15 -7 -24 -16 -17
-16 -18 -15 -12 7 7 28 9 52 18 272 l8 168 -27 -7 c-15 -3 -26 -2 -26 4 0 17
-27 21 -45 8z"/>
<path d="M819 548 c-54 -131 -195 -276 -330 -342 l-87 -41 38 -42 37 -43 60
39 c33 21 90 64 127 96 l68 57 45 -43 c25 -24 58 -61 73 -81 l28 -38 38 31
c22 17 41 33 44 36 3 3 -33 40 -80 82 l-84 78 49 73 c28 40 59 78 69 86 16 11
17 15 6 29 -8 9 -30 25 -51 35 l-37 19 -13 -31z"/>
</g>
</svg>
