<?xml version="1.0" standalone="no"?>
<!DOCTYPE svg PUBLIC "-//W3C//DTD SVG 20010904//EN"
 "http://www.w3.org/TR/2001/REC-SVG-20010904/DTD/svg10.dtd">
<svg version="1.0" xmlns="http://www.w3.org/2000/svg"
 width="101.000000pt" height="101.000000pt" viewBox="0 0 101.000000 101.000000"
 preserveAspectRatio="xMidYMid meet">
<metadata>
Created by potrace 1.16, written by Peter Selinger 2001-2019
</metadata>
<g transform="translate(0.000000,101.000000) scale(0.100000,-0.100000)"
fill="#000000" stroke="none">
<path d="M585 996 c-30 -98 -42 -130 -67 -178 -16 -31 -41 -67 -54 -79 l-25
-23 5 79 c3 44 8 89 11 100 9 33 -7 46 -43 36 -41 -12 -190 -13 -197 -2 -3 5
-34 9 -70 9 -67 -1 -72 -4 -66 -48 1 -8 2 -68 1 -132 0 -69 4 -119 10 -123 14
-8 13 -52 -1 -61 -8 -5 -10 -30 -5 -80 3 -40 2 -84 -3 -97 -15 -40 3 -53 70
-49 24 2 26 5 27 62 0 33 -3 62 -8 65 -12 7 -12 146 0 160 6 7 9 58 8 116 l-3
104 90 0 90 0 -3 -48 c-2 -26 1 -53 7 -61 13 -15 13 -154 0 -162 -5 -3 -8 -52
-6 -109 2 -114 4 -116 66 -107 l32 4 -4 54 c-5 58 0 65 28 34 12 -13 22 -17
34 -11 14 8 16 1 14 -57 -2 -37 0 -117 3 -179 7 -122 9 -125 71 -116 30 5 31
7 28 45 -3 32 -1 39 11 34 9 -3 24 -1 35 5 11 6 39 7 64 4 43 -7 43 -7 40 -45
-4 -43 6 -50 65 -43 l35 5 2 84 c1 48 -2 84 -7 84 -6 0 -10 16 -10 35 0 19 5
35 10 35 6 0 10 29 10 66 0 57 2 65 18 62 11 -2 26 11 45 40 15 25 27 45 25
46 -17 10 -62 26 -75 26 -8 0 -42 12 -73 26 l-58 26 35 46 c34 44 91 156 108
211 6 21 5 23 -16 18 -59 -14 -149 -19 -149 -8 0 6 -17 11 -40 11 -45 0 -48 7
-20 43 26 32 25 33 -7 43 -45 12 -84 13 -88 0z m180 -213 c-14 -27 -35 -59
-46 -73 l-21 -24 -19 24 c-10 14 -28 43 -39 65 l-20 40 47 6 c27 3 65 7 86 7
l38 2 -26 -47z m-157 -175 c-29 -25 -88 -57 -143 -78 -20 -8 -21 -5 -20 70 l0
78 34 -14 c18 -8 35 -14 36 -14 2 0 15 21 30 46 l27 45 34 -53 34 -53 -32 -27z
m217 -109 c5 -1 -10 -5 -35 -10 -55 -11 -124 -12 -167 -3 l-33 6 43 33 c24 18
52 34 62 37 11 2 42 -11 70 -29 27 -18 54 -34 60 -34z m-45 -121 c3 -51 2
-119 -3 -124 -3 -3 -29 -5 -58 -5 -97 -1 -97 0 -104 41 -4 22 -2 47 4 59 6 11
9 26 6 33 -4 10 13 14 74 16 76 2 79 1 81 -20z"/>
<path d="M216 787 c-3 -12 -3 -98 -1 -190 2 -93 0 -169 -5 -172 -5 -3 -8 -18
-8 -33 1 -58 -56 -143 -132 -198 l-50 -36 41 -30 41 -30 45 44 c24 23 62 69
83 101 l39 58 41 -52 c23 -29 50 -70 61 -91 l19 -38 51 25 51 26 -34 42 c-19
23 -51 63 -72 90 l-39 47 -35 -20 c-19 -12 -36 -19 -39 -17 -2 3 3 24 11 48 8
24 15 53 16 64 0 11 3 54 5 95 3 41 7 121 10 177 6 112 8 109 -61 112 -25 1
-33 -4 -38 -22z"/>
</g>
</svg>
