<?xml version="1.0" standalone="no"?>
<!DOCTYPE svg PUBLIC "-//W3C//DTD SVG 20010904//EN"
 "http://www.w3.org/TR/2001/REC-SVG-20010904/DTD/svg10.dtd">
<svg version="1.0" xmlns="http://www.w3.org/2000/svg"
 width="101.000000pt" height="102.000000pt" viewBox="0 0 101.000000 102.000000"
 preserveAspectRatio="xMidYMid meet">
<metadata>
Created by potrace 1.16, written by Peter Selinger 2001-2019
</metadata>
<g transform="translate(0.000000,102.000000) scale(0.100000,-0.100000)"
fill="#000000" stroke="none">
<path d="M438 967 c-14 -29 -48 -82 -75 -118 l-49 -65 44 -18 c24 -11 47 -15
51 -10 4 5 17 22 29 38 18 23 31 29 72 32 l50 4 -11 -27 c-28 -76 -76 -122
-152 -149 -23 -8 -43 -15 -44 -14 -34 5 -34 -4 0 -35 42 -38 45 -45 20 -40
-10 2 -46 6 -80 9 -48 4 -65 2 -77 -10 -18 -17 -21 -89 -6 -128 6 -16 6 -27 0
-31 -12 -7 -13 -105 -2 -122 10 -16 57 -26 85 -19 23 5 24 8 23 113 l-1 108
48 -4 c27 -1 54 2 60 8 13 13 54 15 61 2 8 -12 114 -13 121 -1 7 11 54 13 77
5 10 -4 13 -31 12 -109 0 -98 1 -105 20 -110 58 -16 103 8 91 48 -3 12 -6 62
-6 111 0 138 -4 126 34 111 32 -13 32 -13 63 35 l32 48 -67 20 c-98 30 -175
91 -195 157 -6 18 -3 21 18 17 13 -3 27 0 30 6 8 12 58 15 69 5 3 -4 -1 -20
-9 -36 -9 -17 -14 -31 -12 -32 73 -43 90 -34 118 64 13 44 21 82 19 84 -2 1
-44 -2 -93 -7 -68 -8 -91 -8 -94 1 -4 14 -82 16 -82 2 0 -5 -25 -10 -55 -10
-63 0 -67 8 -29 57 l25 33 -35 15 c-58 24 -69 20 -98 -38z m227 -306 c17 -19
48 -47 69 -63 46 -33 58 -30 -155 -32 l-156 -1 41 23 c54 31 112 87 127 125
l13 30 15 -24 c9 -13 30 -39 46 -58z"/>
<path d="M120 945 c-19 -19 -32 -36 -29 -38 2 -2 20 -14 39 -27 19 -13 52 -39
72 -59 l38 -35 30 29 c16 16 30 34 30 39 0 10 -104 101 -134 118 -8 4 -26 -6
-46 -27z"/>
<path d="M255 724 c-22 -14 -75 -43 -117 -65 -43 -21 -78 -44 -78 -50 0 -14
39 -89 46 -89 3 0 23 13 43 29 20 15 69 50 109 76 79 52 74 44 62 123 -1 8
-31 -2 -65 -24z"/>
<path d="M459 453 c-1 -5 0 -18 1 -31 1 -13 -6 -32 -15 -42 -9 -9 -15 -21 -14
-26 4 -21 -3 -36 -33 -69 -52 -60 -126 -89 -216 -86 -23 1 -48 -2 -55 -6 -6
-4 -16 -8 -22 -9 -5 0 -16 -2 -24 -2 -9 -2 -6 -12 13 -36 14 -19 26 -39 26
-45 0 -16 46 -24 69 -12 11 6 24 10 28 9 18 -5 151 43 194 71 72 45 130 134
134 206 2 17 6 38 10 47 5 13 0 20 -20 28 -31 12 -75 13 -76 3z"/>
<path d="M536 287 c-15 -19 -26 -37 -26 -40 0 -3 43 -26 96 -51 52 -25 122
-62 155 -82 33 -20 61 -35 63 -33 63 85 61 80 41 96 -38 28 -280 143 -301 143
-2 0 -14 -15 -28 -33z"/>
</g>
</svg>
