<?xml version="1.0" standalone="no"?>
<!DOCTYPE svg PUBLIC "-//W3C//DTD SVG 20010904//EN"
 "http://www.w3.org/TR/2001/REC-SVG-20010904/DTD/svg10.dtd">
<svg version="1.0" xmlns="http://www.w3.org/2000/svg"
 width="101.000000pt" height="101.000000pt" viewBox="0 0 101.000000 101.000000"
 preserveAspectRatio="xMidYMid meet">
<metadata>
Created by potrace 1.16, written by Peter Selinger 2001-2019
</metadata>
<g transform="translate(0.000000,101.000000) scale(0.100000,-0.100000)"
fill="#000000" stroke="none">
<path d="M350 974 c-41 -15 -116 -18 -124 -5 -3 5 -37 9 -76 9 l-69 0 -6 -32
c-3 -17 -3 -78 1 -136 7 -129 7 -275 -1 -355 -7 -74 2 -89 51 -88 41 1 57 18
47 48 -3 11 -5 34 -4 50 1 17 4 57 6 89 2 33 0 64 -4 70 -13 16 -13 147 0 162
6 8 9 35 7 61 l-3 48 68 2 67 3 0 -45 c0 -25 5 -45 10 -45 6 0 10 -11 10 -25
0 -14 -4 -25 -10 -25 -6 0 -10 -30 -10 -70 0 -40 4 -70 10 -70 6 0 10 -11 10
-25 0 -14 -5 -25 -10 -25 -7 0 -10 -33 -8 -90 3 -97 2 -96 63 -91 37 3 46 17
34 48 -10 26 -1 25 34 -5 16 -14 20 -13 52 18 22 21 45 34 64 34 l29 1 -18
-25 c-32 -45 -94 -102 -133 -122 l-38 -19 41 -30 c30 -22 45 -27 58 -20 29 16
117 113 145 162 21 35 35 48 56 51 l28 4 -14 -43 c-35 -101 -130 -197 -228
-229 -70 -23 -70 -23 -34 -50 18 -13 36 -29 40 -35 11 -18 127 49 185 107 52
50 89 112 115 189 7 22 12 45 11 51 -1 7 9 11 23 10 20 -1 24 -5 18 -21 -3
-11 -8 -42 -10 -70 -2 -27 -5 -61 -7 -75 -1 -14 -4 -35 -4 -47 -3 -38 -27 -52
-81 -47 l-49 4 26 -54 c31 -62 43 -64 126 -27 54 23 66 47 72 136 2 33 6 76
10 95 3 19 8 69 11 111 l4 76 -78 6 c-43 4 -121 5 -175 4 l-96 -2 18 25 c17
24 21 24 131 22 63 -1 120 2 127 6 13 9 28 285 18 328 -6 21 -8 22 -111 16
-75 -3 -105 -2 -105 7 0 6 -17 11 -40 11 -22 0 -40 -5 -40 -11 0 -6 -23 -9
-62 -8 l-63 3 -3 -47 c-2 -28 1 -47 7 -47 6 0 11 -16 11 -35 0 -19 -4 -35 -10
-35 -6 0 -10 -26 -10 -59 0 -110 17 -144 61 -121 36 20 20 -8 -40 -70 -32 -33
-64 -60 -70 -60 -6 0 -10 32 -10 88 0 48 0 105 0 127 0 87 7 213 13 223 8 13
-2 39 -17 45 -7 2 -28 -2 -47 -9z m445 -104 l0 -25 -120 0 -120 0 -1 25 -1 25
121 0 121 0 0 -25z m-73 -96 l75 -7 -1 -29 c-1 -30 -2 -30 -45 -24 -24 3 -76
6 -116 6 l-73 0 -4 30 c-4 30 -4 30 42 30 26 0 81 -3 122 -6z"/>
<path d="M202 785 c-1 -41 3 -77 8 -80 15 -9 12 -119 -5 -158 -8 -20 -14 -62
-14 -94 1 -32 -4 -71 -10 -88 -18 -45 -81 -122 -123 -151 -21 -15 -38 -29 -38
-33 0 -3 19 -17 41 -29 l41 -24 40 39 c54 53 97 122 119 194 16 52 18 82 14
227 -3 91 -1 168 3 171 5 3 11 25 15 48 5 46 2 49 -59 52 l-31 1 -1 -75z"/>
<path d="M283 351 c-13 -11 -23 -22 -23 -26 0 -4 15 -24 33 -44 17 -20 42 -49
53 -65 l21 -29 37 22 c20 13 36 26 36 29 0 13 -112 132 -123 132 -7 -1 -22 -9
-34 -19z"/>
</g>
</svg>
