<?xml version="1.0" standalone="no"?>
<!DOCTYPE svg PUBLIC "-//W3C//DTD SVG 20010904//EN"
 "http://www.w3.org/TR/2001/REC-SVG-20010904/DTD/svg10.dtd">
<svg version="1.0" xmlns="http://www.w3.org/2000/svg"
 width="101.000000pt" height="102.000000pt" viewBox="0 0 101.000000 102.000000"
 preserveAspectRatio="xMidYMid meet">
<metadata>
Created by potrace 1.16, written by Peter Selinger 2001-2019
</metadata>
<g transform="translate(0.000000,102.000000) scale(0.100000,-0.100000)"
fill="#000000" stroke="none">
<path d="M462 1013 c-9 -4 -7 -13 8 -38 l20 -33 -62 -5 c-104 -9 -176 -9 -182
2 -4 5 -33 9 -65 9 -54 -1 -60 -3 -66 -25 -3 -13 -3 -28 0 -34 10 -16 14 -301
4 -326 -5 -15 -4 -32 3 -49 9 -20 9 -30 -1 -46 -7 -11 -14 -32 -16 -46 -12
-92 -32 -152 -70 -212 l-27 -42 33 -34 c18 -19 36 -34 41 -34 20 0 112 237
110 284 -1 16 3 15 28 -9 l29 -27 34 21 c41 25 51 26 43 6 -3 -8 0 -26 6 -40
8 -18 8 -35 1 -59 -9 -30 -8 -35 7 -39 10 -3 29 -2 43 0 23 5 25 9 26 57 0 86
2 94 25 95 11 0 48 3 81 6 33 3 93 2 133 -1 58 -5 72 -9 68 -20 -3 -8 0 -25 6
-39 9 -19 8 -31 -2 -50 -17 -31 -9 -39 37 -38 41 1 55 17 43 49 -5 12 -8 40
-7 62 l1 40 52 -29 51 -29 16 23 c9 13 23 32 33 41 22 22 8 36 -42 42 -38 4
-164 57 -164 68 0 3 8 5 18 4 59 -5 68 1 70 40 3 82 -1 77 57 75 58 -3 70 8
59 53 -6 22 -10 24 -61 21 l-55 -4 6 43 c9 70 9 70 -122 69 l-118 0 4 25 4 25
159 0 c157 0 160 0 165 22 13 51 5 54 -136 47 -93 -4 -135 -3 -145 6 -7 6 -24
10 -37 8 -19 -2 -24 3 -32 35 -9 36 -11 37 -55 36 -25 0 -52 -3 -59 -6z m43
-162 c-2 -9 -4 -21 -4 -27 -1 -10 -83 -11 -181 -2 -50 4 -71 -22 -50 -62 11
-21 70 -29 70 -10 0 7 29 10 78 8 76 -3 77 -3 74 -28 -2 -14 -5 -26 -6 -27 -1
-1 -63 0 -138 4 l-136 6 2 76 1 76 146 1 c128 0 146 -1 144 -15z m227 -120 l4
-29 -83 1 c-64 2 -82 5 -78 15 3 8 5 20 5 28 0 11 17 14 74 14 l74 0 4 -29z
m-274 -117 c-8 -17 -22 -23 -64 -28 -30 -3 -63 -2 -73 3 -38 21 -80 -14 -64
-55 5 -14 69 -14 92 0 7 4 19 5 29 1 13 -5 11 -9 -13 -26 -38 -26 -113 -64
-143 -74 -25 -7 -25 -8 -6 145 l6 55 123 0 c121 0 122 0 113 -21z m277 1 c0
-29 -23 -36 -100 -29 -27 2 -60 4 -73 5 -16 1 -22 6 -18 16 3 8 6 16 6 18 0 1
19 0 43 -2 23 -3 53 0 67 6 14 5 36 10 50 10 20 1 25 -4 25 -24z m-73 -117
c26 -33 26 -33 6 -41 -12 -4 -60 -5 -107 -2 -47 3 -97 5 -111 6 -24 1 -23 2
15 35 22 18 47 31 55 29 8 -2 22 0 30 6 28 18 83 2 112 -33z"/>
<path d="M504 342 c-4 -20 -8 -43 -10 -51 -5 -26 -57 -70 -100 -85 -23 -8 -45
-12 -47 -9 -3 2 -22 -3 -42 -13 -28 -13 -41 -14 -60 -6 -14 6 -33 8 -44 4 -19
-7 -18 -9 6 -50 23 -38 40 -49 68 -42 6 2 17 4 25 5 28 3 135 37 162 51 59 31
96 74 123 145 15 39 25 72 23 75 -3 2 -25 6 -50 8 -46 5 -46 5 -54 -32z"/>
<path d="M585 246 c-11 -19 -17 -37 -15 -39 3 -2 34 -16 70 -31 36 -16 94 -44
130 -63 l64 -35 28 34 c15 18 28 36 28 39 0 5 -208 100 -274 125 -7 3 -21 -11
-31 -30z"/>
</g>
</svg>
