<?xml version="1.0" standalone="no"?>
<!DOCTYPE svg PUBLIC "-//W3C//DTD SVG 20010904//EN"
 "http://www.w3.org/TR/2001/REC-SVG-20010904/DTD/svg10.dtd">
<svg version="1.0" xmlns="http://www.w3.org/2000/svg"
 width="101.000000pt" height="101.000000pt" viewBox="0 0 101.000000 101.000000"
 preserveAspectRatio="xMidYMid meet">
<metadata>
Created by potrace 1.16, written by Peter Selinger 2001-2019
</metadata>
<g transform="translate(0.000000,101.000000) scale(0.100000,-0.100000)"
fill="#000000" stroke="none">
<path d="M632 938 c0 -40 -3 -81 -7 -91 -4 -10 -5 -20 -2 -24 9 -8 -19 -71
-49 -110 -21 -27 -115 -93 -134 -93 -3 0 -4 36 -2 80 3 54 1 80 -7 80 -6 0
-11 11 -11 25 0 14 5 25 10 25 6 0 10 20 10 45 0 40 -3 47 -26 55 -31 12 -101
13 -108 2 -5 -8 -133 -5 -177 4 -33 7 -63 -20 -54 -50 3 -12 6 -46 5 -78 0
-31 4 -59 10 -63 12 -8 13 -52 1 -59 -12 -8 -13 -114 -1 -121 15 -9 12 -88 -5
-128 -23 -56 -2 -81 59 -70 l26 5 -1 132 c0 72 1 181 3 241 l3 110 85 0 85 0
-3 -54 c-1 -30 2 -59 9 -67 11 -13 6 -248 -7 -315 -6 -30 12 -39 63 -32 l31 5
-2 103 c0 57 3 101 7 98 5 -3 17 -18 27 -35 l17 -29 74 59 c41 32 82 71 92 85
10 15 23 27 30 27 16 0 113 -65 152 -101 l30 -28 34 41 c27 32 31 42 20 49
-51 34 -131 81 -171 100 -40 19 -45 25 -37 41 6 10 10 45 9 76 -2 60 2 87 13
98 13 13 -5 24 -29 18 -14 -4 -24 -2 -24 5 0 6 -11 11 -24 11 -23 0 -24 -3
-24 -72z"/>
<path d="M816 942 c-3 -3 -6 -12 -6 -21 0 -9 -14 -43 -30 -75 -17 -33 -29 -60
-28 -61 17 -9 61 -25 69 -25 5 0 23 29 38 64 16 35 34 67 40 70 6 4 11 11 11
16 0 10 -86 40 -94 32z"/>
<path d="M517 929 c-9 -6 -17 -17 -17 -25 0 -9 -12 -45 -26 -81 -29 -72 -25
-82 29 -80 28 2 32 7 53 71 13 37 29 74 35 82 9 11 5 16 -16 24 -15 6 -31 12
-34 14 -4 3 -14 0 -24 -5z"/>
<path d="M203 783 c-3 -7 -3 -36 0 -65 9 -92 11 -302 4 -337 -13 -56 -45 -108
-103 -167 -31 -30 -54 -56 -52 -57 1 -1 17 -11 33 -23 17 -11 35 -23 42 -27
13 -8 88 91 124 165 22 46 23 47 42 30 11 -9 33 -37 49 -61 l30 -43 36 35 35
35 -76 74 -76 73 7 185 c4 102 7 186 6 188 -1 2 -23 4 -49 6 -31 2 -49 -2 -52
-11z"/>
<path d="M642 620 c-22 -9 -22 -14 -20 -112 2 -88 -1 -110 -19 -150 -30 -65
-98 -130 -177 -167 l-66 -32 37 -36 38 -35 44 23 c59 31 155 128 184 185 l24
46 13 -33 c17 -41 123 -150 168 -173 l34 -17 33 38 c19 21 34 41 35 44 0 3
-24 15 -54 28 -62 25 -130 80 -151 122 -15 28 -15 28 12 24 16 -2 34 -5 41 -7
8 -2 23 21 38 62 14 35 31 71 39 80 8 9 15 19 15 22 0 5 -78 28 -93 28 -3 0
-8 -12 -12 -27 -3 -16 -18 -54 -32 -86 -30 -66 -39 -62 -49 20 -8 67 -8 84 0
114 6 21 3 27 -19 37 -30 14 -32 14 -63 2z"/>
<path d="M518 538 c-10 -7 -20 -28 -23 -47 -3 -19 -17 -57 -30 -85 -13 -28
-22 -52 -20 -54 2 -2 23 -5 47 -6 l44 -3 25 76 c14 42 29 83 33 92 5 11 1 18
-11 22 -10 2 -25 8 -33 11 -9 4 -23 1 -32 -6z"/>
</g>
</svg>
