<?xml version="1.0" standalone="no"?>
<!DOCTYPE svg PUBLIC "-//W3C//DTD SVG 20010904//EN"
 "http://www.w3.org/TR/2001/REC-SVG-20010904/DTD/svg10.dtd">
<svg version="1.0" xmlns="http://www.w3.org/2000/svg"
 width="101.000000pt" height="101.000000pt" viewBox="0 0 101.000000 101.000000"
 preserveAspectRatio="xMidYMid meet">
<metadata>
Created by potrace 1.16, written by Peter Selinger 2001-2019
</metadata>
<g transform="translate(0.000000,101.000000) scale(0.100000,-0.100000)"
fill="#000000" stroke="none">
<path d="M445 942 l0 -67 -72 3 c-48 2 -73 0 -73 -7 0 -6 -16 -11 -35 -11 -19
0 -35 5 -35 10 0 6 -24 10 -54 10 -61 0 -71 -11 -60 -66 6 -33 33 -52 55 -39
5 4 68 8 139 9 l128 2 4 -50 c2 -28 2 -53 0 -56 -2 -3 -31 -4 -65 -3 -342 11
-317 12 -323 -13 -10 -38 4 -74 26 -74 11 0 20 5 20 12 0 8 31 9 117 4 64 -3
118 -8 119 -9 7 -7 8 -156 1 -187 -24 -107 -81 -157 -255 -226 -21 -9 -20 -11
27 -51 l49 -42 68 45 c114 75 183 153 201 228 18 79 24 128 21 173 l-5 51 56
4 56 3 -2 -177 c-1 -98 -4 -181 -7 -186 -3 -5 -27 -7 -54 -4 -27 2 -52 0 -55
-5 -4 -6 6 -33 21 -61 22 -42 33 -53 59 -58 48 -9 121 22 130 55 4 14 7 118 8
231 l0 205 138 0 137 0 6 32 c10 51 -1 67 -39 59 -70 -15 -226 -19 -241 -7 -8
7 -37 10 -69 9 l-54 -3 1 50 1 50 140 -1 c77 0 147 -4 156 -8 21 -9 49 18 48
47 -1 52 -3 52 -179 52 l-165 0 2 37 c1 20 7 46 13 58 9 17 7 22 -15 30 -15 6
-41 10 -58 10 l-32 0 0 -68z"/>
<path d="M165 483 c-21 -32 -56 -80 -79 -106 -43 -52 -44 -50 18 -83 15 -9 32
-12 36 -7 4 4 27 35 52 68 25 33 62 76 82 94 20 19 36 38 36 43 0 10 -74 48
-93 48 -8 0 -31 -26 -52 -57z"/>
<path d="M725 518 c-22 -11 -42 -22 -44 -24 -2 -2 16 -25 39 -51 23 -26 60
-78 82 -115 l40 -67 51 26 c29 14 54 27 56 29 6 6 -103 144 -146 186 l-38 36
-40 -20z"/>
</g>
</svg>
