<?xml version="1.0" standalone="no"?>
<!DOCTYPE svg PUBLIC "-//W3C//DTD SVG 20010904//EN"
 "http://www.w3.org/TR/2001/REC-SVG-20010904/DTD/svg10.dtd">
<svg version="1.0" xmlns="http://www.w3.org/2000/svg"
 width="101.000000pt" height="101.000000pt" viewBox="0 0 101.000000 101.000000"
 preserveAspectRatio="xMidYMid meet">
<metadata>
Created by potrace 1.16, written by Peter Selinger 2001-2019
</metadata>
<g transform="translate(0.000000,101.000000) scale(0.100000,-0.100000)"
fill="#000000" stroke="none">
<path d="M275 929 c5 -74 4 -80 -12 -75 -10 3 -49 6 -86 8 -73 2 -87 -5 -87
-49 0 -35 28 -56 64 -48 27 6 107 7 113 2 1 -1 5 -25 8 -52 l7 -50 -79 2 c-43
1 -88 5 -100 9 -19 5 -25 1 -33 -22 -15 -39 -5 -71 25 -78 14 -4 30 -4 35 -1
5 3 46 8 92 10 l83 5 -2 -52 c0 -29 2 -57 7 -63 10 -12 12 -147 4 -181 l-6
-25 -25 23 c-26 24 -62 87 -68 120 -2 11 3 40 11 65 9 25 14 46 12 47 -13 11
-70 24 -86 19 -25 -6 -34 -38 -20 -69 8 -17 8 -27 0 -37 -6 -7 -13 -26 -16
-42 -13 -71 -20 -94 -48 -162 l-30 -72 36 -37 35 -36 16 39 c9 21 26 68 38
106 11 37 23 67 26 67 4 0 13 -15 22 -33 30 -62 130 -118 238 -133 18 -2 37
-6 41 -9 5 -3 20 0 34 6 20 10 32 8 60 -5 27 -13 41 -14 56 -6 12 6 66 9 142
6 l123 -5 20 47 c11 25 21 49 23 53 4 9 -95 3 -175 -11 -58 -10 -176 -8 -248
4 -16 2 -50 7 -74 10 -24 3 -48 9 -54 15 -8 8 -12 68 -7 127 2 24 10 26 111
25 59 -1 67 1 72 19 3 11 3 29 0 40 -5 18 -13 20 -67 19 -110 -1 -121 2 -118
36 1 17 3 40 3 53 1 18 7 22 38 23 20 1 41 0 46 -1 6 -1 19 -2 30 -1 90 5 95
8 95 53 0 31 -28 52 -51 38 -7 -5 -54 -8 -104 -6 l-90 4 -3 54 -3 53 73 2 c40
1 78 -3 84 -8 28 -23 63 28 49 72 -7 21 -47 35 -67 23 -7 -5 -38 -9 -69 -9
l-57 0 4 30 c15 128 16 125 -57 125 l-40 0 6 -81z"/>
<path d="M619 995 c-1 -5 0 -14 1 -20 1 -5 2 -63 1 -127 -1 -70 3 -119 9 -123
13 -8 13 -52 -1 -61 -8 -4 -9 -53 -5 -160 3 -84 2 -164 -3 -177 -12 -32 -3
-74 18 -80 9 -2 31 -2 49 1 l31 4 -5 77 c-4 80 -5 133 -1 268 2 79 3 81 20 65
11 -9 44 -54 74 -99 30 -46 57 -83 60 -83 11 0 73 42 73 50 0 16 -85 134 -135
188 -44 47 -54 53 -70 44 -19 -10 -20 -7 -17 91 1 56 4 113 5 126 2 23 -1 25
-50 25 -29 1 -54 -3 -54 -9z"/>
</g>
</svg>
