<?xml version="1.0" standalone="no"?>
<!DOCTYPE svg PUBLIC "-//W3C//DTD SVG 20010904//EN"
 "http://www.w3.org/TR/2001/REC-SVG-20010904/DTD/svg10.dtd">
<svg version="1.0" xmlns="http://www.w3.org/2000/svg"
 width="101.000000pt" height="101.000000pt" viewBox="0 0 101.000000 101.000000"
 preserveAspectRatio="xMidYMid meet">
<metadata>
Created by potrace 1.16, written by Peter Selinger 2001-2019
</metadata>
<g transform="translate(0.000000,101.000000) scale(0.100000,-0.100000)"
fill="#000000" stroke="none">
<path d="M275 943 l5 -68 -85 2 c-83 3 -85 2 -91 -22 -3 -14 -3 -36 0 -50 6
-25 8 -25 86 -20 62 3 80 1 80 -9 0 -7 3 -34 6 -59 l7 -46 -104 2 -104 2 -3
-36 c-3 -38 20 -75 39 -63 6 3 43 7 84 8 l75 3 0 -39 c0 -21 5 -38 10 -38 15
0 12 -67 -2 -74 -10 -5 -10 -7 0 -12 15 -7 17 -130 2 -139 -5 -3 -23 21 -39
53 -29 58 -33 91 -16 153 6 24 3 27 -27 34 -63 14 -67 13 -74 -19 -4 -17 -8
-47 -9 -66 -5 -87 -24 -160 -63 -232 l-25 -47 29 -35 c16 -19 33 -33 39 -32 5
1 26 48 45 104 l36 101 19 -35 c27 -50 96 -108 146 -123 67 -20 147 -34 179
-31 36 3 219 1 260 -3 25 -3 65 -2 90 1 43 5 46 8 72 58 28 57 23 68 -25 51
-15 -5 -37 -7 -48 -4 -11 3 -39 -1 -62 -9 -41 -14 -147 -14 -254 0 -24 3 -60
8 -80 11 -69 8 -94 12 -99 17 -2 3 -4 29 -5 59 0 98 2 111 17 105 8 -3 25 0
39 6 18 8 35 8 59 1 33 -10 34 -10 39 20 9 61 -10 81 -52 55 -15 -9 -26 -9
-45 0 -14 6 -32 9 -39 6 -10 -3 -13 7 -13 43 l1 48 50 5 c28 3 60 2 72 -2 39
-13 62 24 47 78 -5 20 -12 22 -92 21 l-87 -1 -3 54 -3 55 48 0 c26 0 54 -4 61
-8 18 -12 50 1 57 24 4 11 4 32 0 47 -5 26 -9 27 -72 30 -37 1 -68 4 -70 5 -6
7 -5 75 2 100 l7 27 -61 0 -61 0 5 -67z"/>
<path d="M762 963 c-1 -18 3 -35 8 -38 13 -8 11 -173 -2 -181 -6 -4 -9 -49 -7
-123 l4 -116 -30 3 c-16 1 -40 3 -52 3 -22 1 -22 2 -17 138 6 160 10 200 18
209 11 11 -57 33 -84 27 -27 -6 -27 -7 -28 -100 -1 -53 2 -97 8 -100 12 -8 13
-52 1 -59 -5 -3 -8 -51 -8 -106 2 -101 5 -109 42 -100 6 2 22 4 36 5 14 1 31
5 38 9 7 5 27 5 46 2 37 -7 37 -8 35 -123 -1 -80 -1 -79 65 -74 35 3 47 18 37
46 -6 17 -9 141 -11 420 0 85 9 212 18 248 10 41 13 40 -65 41 -51 1 -51 1
-52 -31z"/>
</g>
</svg>
