<?xml version="1.0" standalone="no"?>
<!DOCTYPE svg PUBLIC "-//W3C//DTD SVG 20010904//EN"
 "http://www.w3.org/TR/2001/REC-SVG-20010904/DTD/svg10.dtd">
<svg version="1.0" xmlns="http://www.w3.org/2000/svg"
 width="101.000000pt" height="101.000000pt" viewBox="0 0 101.000000 101.000000"
 preserveAspectRatio="xMidYMid meet">
<metadata>
Created by potrace 1.16, written by Peter Selinger 2001-2019
</metadata>
<g transform="translate(0.000000,101.000000) scale(0.100000,-0.100000)"
fill="#000000" stroke="none">
<path d="M240 995 c0 -8 5 -15 11 -15 6 0 9 -21 7 -52 l-3 -53 -85 0 -85 0 -3
-35 c-4 -52 9 -65 65 -64 26 1 59 4 73 8 25 7 25 6 25 -48 l0 -56 -50 6 c-72
9 -123 9 -132 1 -8 -9 -8 -75 0 -84 6 -5 21 -5 102 1 74 7 103 -1 104 -27 0
-12 3 -53 6 -92 6 -79 -2 -178 -15 -170 -4 3 -21 25 -37 49 -30 45 -33 65 -18
139 4 20 3 37 -1 38 -5 0 -25 2 -45 5 -34 4 -38 2 -48 -26 -7 -22 -7 -38 1
-55 8 -18 8 -28 0 -38 -6 -7 -14 -31 -18 -53 -7 -49 -30 -117 -55 -166 -11
-21 -19 -39 -19 -41 0 -3 18 -16 39 -30 l40 -26 21 56 c12 32 26 79 32 104
l11 47 26 -39 c45 -66 129 -117 225 -135 41 -8 116 -15 141 -13 11 1 97 1 190
0 l170 -1 27 60 27 61 -47 -4 c-26 -2 -64 -10 -84 -17 -29 -11 -43 -11 -62 -2
-18 8 -34 8 -51 2 -30 -11 -136 -15 -185 -6 -19 3 -51 8 -70 10 -58 8 -84 13
-101 20 -21 9 -34 87 -20 115 6 11 8 26 5 34 -6 15 -2 16 78 19 26 1 38 7 41
20 10 35 -3 54 -36 56 -84 3 -92 6 -89 32 2 14 3 35 4 46 0 23 4 24 86 27 33
1 42 5 42 19 0 23 9 22 40 -2 19 -15 21 -20 9 -20 -20 0 -31 -37 -19 -60 10
-19 7 -194 -4 -226 -6 -17 -3 -22 15 -27 12 -3 30 -2 40 4 11 5 79 7 167 4
l148 -6 1 118 c0 65 3 135 6 156 l5 38 -36 -8 c-44 -10 -282 -7 -282 3 0 2 16
26 36 53 35 50 83 158 86 196 2 18 7 20 57 15 43 -4 55 -9 52 -20 -2 -8 -5
-37 -7 -64 -2 -27 -6 -51 -9 -55 -3 -3 -24 -4 -45 -2 -54 4 -63 -4 -45 -39 8
-16 15 -33 14 -37 -5 -28 3 -33 44 -29 111 10 129 42 142 251 1 28 4 55 5 60
7 29 -4 32 -100 34 -63 1 -100 -2 -100 -9 0 -13 -67 -13 -72 -1 -2 8 -81 15
-124 12 -18 -1 -25 -30 -18 -66 l6 -33 59 1 60 2 -7 -30 c-10 -46 -43 -106
-77 -142 -34 -36 -47 -41 -47 -18 0 17 -43 30 -62 19 -7 -4 -29 -9 -48 -10
l-35 -2 3 49 4 49 51 1 c29 1 57 1 64 0 16 -2 27 42 19 73 -6 23 -10 24 -74
22 l-67 -2 2 68 2 68 -50 0 c-37 0 -49 -4 -49 -15z m531 -482 c19 -3 27 -11
28 -26 5 -66 4 -107 -3 -114 -4 -4 -42 -7 -84 -6 -126 3 -121 2 -128 38 -3 18
-1 42 5 53 6 11 8 28 4 37 -5 14 -2 16 13 11 10 -3 26 -1 34 4 15 10 84 11
131 3z"/>
</g>
</svg>
