<?xml version="1.0" standalone="no"?>
<!DOCTYPE svg PUBLIC "-//W3C//DTD SVG 20010904//EN"
 "http://www.w3.org/TR/2001/REC-SVG-20010904/DTD/svg10.dtd">
<svg version="1.0" xmlns="http://www.w3.org/2000/svg"
 width="101.000000pt" height="101.000000pt" viewBox="0 0 101.000000 101.000000"
 preserveAspectRatio="xMidYMid meet">
<metadata>
Created by potrace 1.16, written by Peter Selinger 2001-2019
</metadata>
<g transform="translate(0.000000,101.000000) scale(0.100000,-0.100000)"
fill="#000000" stroke="none">
<path d="M248 1003 c-14 -3 -16 -16 -15 -76 l2 -73 -30 3 c-16 1 -44 5 -61 9
-36 7 -64 -15 -64 -49 0 -42 39 -67 64 -42 8 8 31 15 50 15 36 0 36 0 36 -42
0 -24 3 -53 6 -66 7 -25 6 -25 -133 -6 -38 5 -44 4 -54 -19 -6 -14 -9 -37 -5
-52 6 -24 10 -25 55 -22 26 2 53 7 60 11 6 4 31 4 55 1 36 -6 44 -11 45 -28 0
-12 3 -60 6 -108 3 -47 2 -102 -2 -123 l-8 -39 -28 37 c-36 46 -40 69 -21 114
18 44 10 53 -49 58 -39 3 -45 1 -50 -17 -3 -12 -1 -32 5 -45 8 -17 8 -27 0
-37 -6 -7 -14 -28 -17 -47 -8 -49 -23 -96 -53 -163 -14 -31 -23 -58 -21 -60
43 -25 74 -36 80 -30 4 4 21 47 37 94 l29 87 41 -48 c59 -69 144 -107 253
-115 20 -1 41 -5 46 -8 6 -4 23 -1 39 5 23 8 42 7 84 -5 34 -10 60 -13 70 -7
18 9 136 7 185 -3 29 -7 31 -4 58 50 33 67 24 80 -36 56 -32 -13 -46 -14 -69
-5 -16 6 -39 8 -51 3 -25 -8 -266 -6 -314 3 -18 3 -45 8 -60 9 -63 8 -70 14
-77 73 -3 31 -2 63 4 74 5 10 7 25 4 34 -5 12 3 14 49 10 48 -4 55 -3 60 16 9
35 -3 57 -31 58 -80 3 -87 6 -84 32 2 14 3 35 4 48 0 16 5 22 14 18 8 -3 24
-1 37 5 17 8 30 6 51 -5 16 -8 34 -12 41 -10 15 6 25 48 18 74 -7 27 -25 30
-62 12 -27 -12 -39 -13 -63 -4 -16 6 -35 9 -41 6 -8 -3 -12 13 -12 50 l0 54
48 4 c27 2 55 0 62 -5 21 -12 46 21 43 57 -3 34 -41 55 -74 41 -11 -4 -34 -9
-51 -9 l-33 -1 5 58 c3 32 7 62 10 67 3 4 -5 10 -18 13 -12 2 -29 7 -37 10 -8
2 -23 3 -32 0z"/>
<path d="M827 954 c-3 -3 -75 -7 -159 -8 l-153 -1 -3 -47 c-2 -29 1 -48 7 -48
6 0 11 -16 11 -35 0 -19 -4 -35 -10 -35 -6 0 -10 -30 -10 -70 0 -40 4 -70 10
-70 6 0 10 -11 10 -25 0 -14 -5 -25 -11 -25 -8 0 -10 -35 -8 -114 l4 -114 -46
4 c-39 4 -47 1 -52 -15 -13 -52 22 -93 62 -71 9 5 59 7 111 5 92 -4 138 -5
282 -3 62 1 67 3 71 25 2 14 2 34 -1 45 -4 16 -11 19 -42 14 l-37 -5 -7 99
c-4 61 -3 107 3 118 14 26 11 365 -3 374 -14 9 -21 10 -29 2z m-50 -147 l3
-52 -84 0 -83 0 1 50 1 50 80 2 80 1 2 -51z m-1 -186 l2 -59 -49 -6 c-28 -4
-57 -2 -68 4 -11 5 -26 8 -33 5 -10 -4 -12 8 -10 52 l4 58 76 2 77 2 1 -58z
m-15 -131 c11 0 17 -9 17 -22 1 -13 4 -36 7 -53 8 -44 -4 -55 -66 -56 -103 0
-109 1 -115 28 -4 13 -2 35 4 49 7 13 9 31 5 40 -5 13 -2 15 13 10 10 -3 26
-1 34 5 8 5 31 7 50 4 19 -2 42 -5 51 -5z"/>
</g>
</svg>
