<?xml version="1.0" standalone="no"?>
<!DOCTYPE svg PUBLIC "-//W3C//DTD SVG 20010904//EN"
 "http://www.w3.org/TR/2001/REC-SVG-20010904/DTD/svg10.dtd">
<svg version="1.0" xmlns="http://www.w3.org/2000/svg"
 width="101.000000pt" height="101.000000pt" viewBox="0 0 101.000000 101.000000"
 preserveAspectRatio="xMidYMid meet">
<metadata>
Created by potrace 1.16, written by Peter Selinger 2001-2019
</metadata>
<g transform="translate(0.000000,101.000000) scale(0.100000,-0.100000)"
fill="#000000" stroke="none">
<path d="M600 1004 c-8 -3 -27 -37 -42 -77 -16 -42 -51 -102 -84 -145 -30 -41
-54 -74 -52 -75 2 -1 18 -10 37 -20 18 -10 35 -16 36 -15 1 2 25 31 52 66 l51
63 70 2 70 3 -36 -54 -37 -53 -55 5 c-69 6 -85 -1 -86 -41 -2 -29 1 -33 30
-38 17 -3 77 -4 133 -3 l101 3 4 -43 c3 -40 2 -42 -27 -47 -16 -3 -64 -3 -105
0 -140 10 -133 12 -133 -35 0 -47 -7 -45 133 -35 103 8 138 1 138 -28 1 -12 2
-33 4 -46 4 -33 -33 -42 -147 -36 -134 8 -136 8 -142 1 -8 -8 -8 -64 -1 -72 7
-6 33 -6 78 1 75 13 197 15 244 5 27 -6 51 -9 53 -7 2 3 6 50 10 106 4 73 3
101 -5 101 -8 0 -12 25 -12 75 0 46 4 75 11 75 6 0 9 14 7 33 l-3 32 -66 0
-65 0 33 43 c18 24 45 64 60 89 21 37 24 47 12 54 -19 12 -36 11 -60 -2 -22
-11 -159 -2 -159 12 0 4 12 22 26 39 15 17 25 32 23 34 -5 5 -81 36 -83 35 0
-1 -8 -3 -16 -5z"/>
<path d="M234 953 c-3 -18 -4 -48 -2 -65 l3 -33 -77 1 c-75 2 -78 1 -84 -23
-4 -13 -1 -36 5 -50 12 -25 13 -25 89 -19 l77 7 3 -53 2 -53 -37 3 c-21 2 -59
6 -86 9 -55 6 -77 -7 -77 -46 0 -49 9 -53 106 -47 l89 5 -2 -52 c0 -29 2 -56
7 -62 10 -13 11 -107 1 -123 -6 -10 -13 -6 -25 14 -23 33 -26 67 -13 110 13
43 4 54 -52 60 -29 4 -41 1 -42 -8 0 -7 -2 -22 -5 -33 -4 -21 -8 -41 -19 -110
-4 -22 -20 -79 -36 -128 l-30 -87 37 -35 c20 -20 39 -34 40 -32 2 2 19 50 37
107 l33 103 22 -34 c11 -19 33 -46 49 -61 31 -30 121 -74 168 -82 72 -14 89
-17 96 -22 4 -2 19 1 33 7 20 10 32 8 60 -5 27 -12 41 -14 55 -7 11 6 66 9
128 8 59 -2 116 -2 125 1 14 3 48 77 48 104 0 12 -99 1 -116 -13 -11 -9 -21
-9 -38 -1 -18 8 -36 7 -72 -4 -27 -8 -60 -12 -74 -9 -24 6 -55 10 -135 19 -84
10 -116 17 -155 32 -32 13 -41 22 -46 49 -3 18 -1 42 5 53 6 11 8 27 5 35 -6
16 3 18 89 19 49 1 54 6 48 62 -2 27 -6 29 -29 15 -12 -8 -29 -9 -48 -4 -16 5
-38 9 -49 9 -15 1 -19 7 -17 26 2 14 3 35 4 46 0 19 8 22 68 28 73 8 85 18 74
62 -6 22 -16 29 -38 25 -5 -1 -29 -3 -55 -5 l-46 -2 0 53 c0 41 3 52 14 48 7
-3 35 -2 62 1 52 7 66 24 55 68 -5 20 -11 22 -75 21 l-69 -1 4 41 c2 22 6 50
10 63 7 23 7 23 -59 26 -34 1 -37 -1 -43 -31z"/>
</g>
</svg>
