<?xml version="1.0" standalone="no"?>
<!DOCTYPE svg PUBLIC "-//W3C//DTD SVG 20010904//EN"
 "http://www.w3.org/TR/2001/REC-SVG-20010904/DTD/svg10.dtd">
<svg version="1.0" xmlns="http://www.w3.org/2000/svg"
 width="101.000000pt" height="101.000000pt" viewBox="0 0 101.000000 101.000000"
 preserveAspectRatio="xMidYMid meet">
<metadata>
Created by potrace 1.16, written by Peter Selinger 2001-2019
</metadata>
<g transform="translate(0.000000,101.000000) scale(0.100000,-0.100000)"
fill="#000000" stroke="none">
<path d="M185 936 c-4 -19 -2 -43 5 -55 7 -15 9 -60 4 -146 l-7 -125 134 4
134 4 -3 -105 c-1 -69 2 -110 9 -120 11 -13 6 -129 -6 -141 -17 -17 -135 70
-160 118 -12 24 -11 32 15 85 16 33 26 63 24 67 -7 11 -105 39 -115 32 -5 -3
-9 -17 -8 -32 3 -87 -63 -221 -150 -306 l-40 -39 37 -33 c20 -18 40 -33 43
-34 9 0 80 96 110 147 13 24 26 43 29 43 3 0 14 -14 25 -30 44 -67 165 -126
272 -135 13 -1 26 -5 30 -8 10 -11 123 -8 123 3 0 14 67 13 72 -2 3 -8 23 -9
77 -2 l73 9 18 55 c11 30 19 56 20 56 1 7 -34 13 -43 7 -14 -9 -49 -12 -114
-12 -28 -1 -54 -5 -58 -11 -4 -6 -44 -8 -103 -5 l-97 5 -3 55 c-2 34 1 55 8
55 5 0 10 11 10 25 0 26 8 29 76 25 18 -1 35 3 39 9 9 15 111 14 152 -1 29
-10 36 -10 44 2 10 15 5 77 -6 88 -10 11 -134 12 -140 2 -8 -13 -48 -13 -62 1
-6 6 -33 9 -60 8 l-48 -4 0 60 0 61 50 -3 c28 -1 88 0 135 3 l85 6 0 163 c0
90 -2 166 -5 168 -3 3 -60 9 -128 13 -89 5 -122 4 -122 -5 0 -7 -27 -11 -80
-11 -47 0 -80 4 -80 10 0 6 -18 10 -40 10 -22 0 -40 -4 -40 -10 0 -5 -25 -10
-55 -10 -30 0 -55 5 -55 10 0 25 -20 6 -25 -24z m390 -67 c4 -5 35 -9 69 -9
l63 0 7 -61 c10 -104 15 -97 -58 -92 -41 4 -66 2 -70 -6 -9 -14 -53 -14 -61
-1 -4 7 -49 10 -121 8 -88 -2 -115 0 -119 10 -9 25 -5 91 6 98 6 3 9 16 7 28
-4 20 -1 21 43 19 26 -2 50 1 54 7 7 12 173 12 180 -1z"/>
</g>
</svg>
