<?xml version="1.0" standalone="no"?>
<!DOCTYPE svg PUBLIC "-//W3C//DTD SVG 20010904//EN"
 "http://www.w3.org/TR/2001/REC-SVG-20010904/DTD/svg10.dtd">
<svg version="1.0" xmlns="http://www.w3.org/2000/svg"
 width="101.000000pt" height="101.000000pt" viewBox="0 0 101.000000 101.000000"
 preserveAspectRatio="xMidYMid meet">
<metadata>
Created by potrace 1.16, written by Peter Selinger 2001-2019
</metadata>
<g transform="translate(0.000000,101.000000) scale(0.100000,-0.100000)"
fill="#000000" stroke="none">
<path d="M630 1002 c-12 -5 -15 -26 -15 -92 l0 -85 -67 2 c-63 2 -68 1 -73
-20 -4 -13 -1 -35 5 -51 10 -27 11 -28 69 -21 l59 7 3 -50 c6 -75 5 -77 -49
-76 -27 0 -54 4 -61 8 -29 19 -55 -47 -32 -82 8 -14 20 -15 91 -10 l35 3 -2
-45 c-6 -107 -113 -253 -218 -296 -40 -17 -59 -34 -37 -34 5 0 27 -16 50 -36
l43 -36 45 37 c83 69 184 221 184 279 0 10 16 -12 35 -50 37 -75 116 -176 163
-211 l30 -22 41 39 c23 22 41 41 41 44 0 2 -22 18 -50 36 -90 58 -177 172
-205 266 -7 25 -8 25 132 26 88 2 92 2 96 26 11 56 -18 84 -59 57 -26 -17 -60
-20 -69 -6 -3 5 -29 9 -58 8 l-52 -2 0 69 -1 69 102 -6 c99 -6 102 -5 108 16
9 34 7 44 -9 61 -12 11 -22 13 -41 6 -13 -5 -55 -9 -92 -7 l-67 2 3 40 c1 22
5 58 8 80 5 39 4 41 -28 53 -38 13 -37 13 -58 4z"/>
<path d="M93 805 l1 -164 76 2 75 2 1 -172 1 -171 -30 -6 c-17 -3 -33 -4 -36
0 -7 6 -5 127 2 169 19 108 20 103 -18 114 -56 15 -74 6 -68 -37 10 -81 13
-170 8 -218 -6 -48 -7 -51 -36 -51 -16 0 -31 -2 -34 -4 -2 -3 3 -29 11 -58 13
-42 19 -51 32 -45 25 10 143 44 172 49 14 2 58 13 99 24 41 11 77 18 81 16 13
-8 28 11 31 40 5 65 6 65 -62 44 -34 -11 -64 -17 -68 -14 -4 5 -5 53 0 111 1
22 5 23 76 26 34 1 46 21 36 58 -5 18 -12 20 -57 16 l-51 -4 0 57 0 57 53 -3
52 -2 -6 125 c-4 91 -3 129 6 139 7 9 10 26 6 41 -6 21 -11 25 -29 20 -52 -13
-157 -18 -169 -9 -7 6 -45 11 -85 11 l-72 1 2 -164z m251 2 c3 -39 5 -72 2
-74 -2 -2 -37 -1 -78 3 l-74 6 1 67 0 66 71 1 71 1 7 -70z"/>
</g>
</svg>
