<?xml version="1.0" standalone="no"?>
<!DOCTYPE svg PUBLIC "-//W3C//DTD SVG 20010904//EN"
 "http://www.w3.org/TR/2001/REC-SVG-20010904/DTD/svg10.dtd">
<svg version="1.0" xmlns="http://www.w3.org/2000/svg"
 width="101.000000pt" height="101.000000pt" viewBox="0 0 101.000000 101.000000"
 preserveAspectRatio="xMidYMid meet">
<metadata>
Created by potrace 1.16, written by Peter Selinger 2001-2019
</metadata>
<g transform="translate(0.000000,101.000000) scale(0.100000,-0.100000)"
fill="#000000" stroke="none">
<path d="M128 964 c-19 -6 -33 -38 -23 -55 12 -19 15 -153 4 -186 -7 -23 -7
-38 1 -54 11 -19 18 -21 69 -16 l56 5 0 -171 0 -170 -27 -3 c-24 -2 -28 2 -32
29 -8 45 3 168 18 214 6 18 3 23 -18 29 -56 14 -99 -22 -77 -65 10 -20 13
-129 5 -193 -5 -43 -8 -46 -40 -52 -19 -4 -34 -8 -34 -10 0 -2 6 -19 14 -37 7
-19 16 -42 20 -53 6 -17 8 -17 24 -3 19 18 157 65 267 91 68 16 70 18 69 46
-3 62 1 59 -55 43 -60 -18 -74 -9 -64 42 3 17 6 40 7 51 0 19 6 21 43 20 38
-1 44 2 48 22 10 53 -7 69 -73 64 -12 -1 -15 11 -15 51 l0 52 32 -3 c18 -2 44
-1 57 2 22 5 23 9 16 42 -12 52 -11 192 0 199 6 4 9 20 8 36 l-2 29 -111 -1
c-60 -1 -123 0 -140 4 -16 3 -38 3 -47 1z m202 -119 c0 -16 3 -46 6 -65 l6
-35 -74 3 -73 3 0 62 0 62 68 0 67 1 0 -31z"/>
<path d="M455 952 c-8 -8 -6 -65 3 -77 4 -6 23 -11 42 -10 l35 0 1 -135 1
-135 -57 3 c-58 4 -58 3 -65 -27 -3 -17 -4 -40 0 -50 5 -18 13 -20 65 -15 l59
5 -4 -28 c-2 -15 -7 -45 -10 -66 -10 -73 -75 -174 -140 -218 -19 -13 -35 -26
-35 -29 0 -3 22 -17 49 -33 l49 -27 37 42 c83 96 136 225 137 334 0 15 7 22
22 23 11 0 34 2 51 3 27 3 30 0 33 -27 7 -65 7 -224 -1 -286 -8 -74 -3 -81 61
-71 31 4 32 5 25 46 -6 36 -8 253 -3 314 1 16 7 22 16 18 8 -3 25 0 39 6 20 9
31 8 51 -2 22 -12 27 -12 34 0 11 17 12 36 4 65 -4 18 -14 21 -71 23 -36 1
-67 3 -69 4 -1 2 -6 62 -9 133 l-8 130 66 -2 c73 -2 85 8 72 65 l-5 27 -235 1
c-129 1 -237 -1 -240 -4z m265 -112 c0 -17 5 -30 10 -30 11 0 13 -88 4 -166
l-6 -52 -52 2 c-28 0 -54 6 -58 11 -12 15 -9 133 2 140 6 4 9 32 8 63 l-3 57
47 2 c47 3 48 2 48 -27z"/>
</g>
</svg>
