<?xml version="1.0" standalone="no"?>
<!DOCTYPE svg PUBLIC "-//W3C//DTD SVG 20010904//EN"
 "http://www.w3.org/TR/2001/REC-SVG-20010904/DTD/svg10.dtd">
<svg version="1.0" xmlns="http://www.w3.org/2000/svg"
 width="101.000000pt" height="101.000000pt" viewBox="0 0 101.000000 101.000000"
 preserveAspectRatio="xMidYMid meet">
<metadata>
Created by potrace 1.16, written by Peter Selinger 2001-2019
</metadata>
<g transform="translate(0.000000,101.000000) scale(0.100000,-0.100000)"
fill="#000000" stroke="none">
<path d="M418 973 c-14 -4 -18 -15 -18 -54 0 -27 5 -49 10 -49 6 0 10 -16 10
-35 0 -19 -5 -35 -11 -35 -8 0 -10 -26 -7 -83 l4 -83 -28 4 c-29 4 -34 -4 -30
-50 1 -10 -4 -18 -11 -19 -6 0 -25 -2 -40 -4 -22 -3 -27 0 -23 11 3 9 6 31 6
50 0 29 3 34 24 34 41 0 56 25 56 91 0 33 -4 59 -10 59 -5 0 -10 11 -10 25 0
14 5 25 11 25 6 0 9 19 7 48 l-3 47 -94 -3 c-59 -2 -98 1 -107 9 -8 6 -24 9
-37 5 -23 -5 -24 -7 -24 -151 l-1 -145 34 -6 c19 -3 42 -4 52 -2 15 4 17 -3
14 -78 -1 -48 2 -85 8 -89 13 -8 13 -68 -1 -82 -8 -8 -7 -16 2 -30 17 -27 4
-69 -23 -76 -12 -4 -25 -4 -28 -1 -12 13 -2 223 14 272 6 17 3 22 -11 23 -68
5 -72 4 -77 -15 -3 -10 -1 -27 4 -36 10 -19 11 -68 4 -185 -5 -72 -8 -81 -26
-82 -11 -1 -22 -4 -25 -7 -5 -5 17 -76 28 -90 4 -4 70 13 146 38 76 25 142 46
146 46 11 0 -7 -30 -38 -65 -17 -18 -23 -31 -16 -33 6 -2 25 -15 40 -28 32
-27 36 -25 68 41 21 41 54 135 60 170 2 11 6 54 8 95 3 41 5 84 6 96 2 30 56
30 58 0 1 -12 3 -46 6 -76 3 -30 2 -91 -1 -136 l-6 -81 -29 0 c-39 0 -42 -4
-27 -51 14 -47 29 -54 76 -35 17 7 31 9 30 4 -3 -9 72 -65 77 -59 18 22 63
164 72 228 2 19 6 69 9 110 2 41 4 84 5 95 1 17 9 21 39 22 44 2 41 14 43
-162 1 -146 -5 -176 -36 -174 -47 4 -59 0 -52 -18 4 -10 9 -28 10 -40 5 -36
14 -43 53 -39 50 4 81 21 87 49 3 12 5 94 4 182 -1 210 -3 202 31 197 21 -3
28 1 33 17 11 44 -22 85 -53 66 -10 -6 -6 258 5 286 9 24 -12 42 -47 42 -43
-2 -125 -2 -161 -1 -34 1 -39 -4 -38 -34 0 -13 1 -53 1 -90 0 -37 5 -70 10
-73 11 -7 13 -115 2 -130 -4 -6 -20 -11 -35 -12 l-28 -1 5 167 5 166 -82 0
c-45 0 -89 3 -97 6 -8 3 -23 4 -32 2z m-188 -93 l38 0 4 -67 3 -68 -55 1 -55
0 -3 73 c-3 65 -1 73 13 67 9 -3 34 -6 55 -6z m296 -4 c1 0 4 -55 7 -122 l6
-121 -29 0 -29 0 2 128 c2 124 3 128 22 123 11 -4 21 -7 21 -8z m300 -115 l1
-130 -36 2 -36 1 0 123 0 122 30 4 c17 2 32 4 35 5 3 1 5 -56 6 -127z m-420
-206 c-3 -8 0 -27 6 -41 9 -20 9 -30 -1 -46 -7 -11 -14 -37 -16 -57 -7 -58
-16 -95 -26 -106 -6 -6 -7 2 -3 23 7 36 3 38 -54 18 l-40 -14 -7 43 c-3 25 -2
53 4 64 6 11 9 26 6 33 -4 10 4 14 30 15 44 1 48 5 48 43 0 20 5 29 12 26 7
-2 18 0 26 5 20 12 22 11 15 -6z m268 -23 c-2 -19 -6 -38 -9 -42 -2 -4 1 -21
8 -39 9 -25 9 -36 -1 -52 -7 -11 -15 -37 -18 -57 -2 -20 -10 -55 -16 -77 l-12
-40 -8 70 c-4 39 -5 106 -3 150 3 44 6 89 6 101 1 16 8 21 29 21 27 0 28 -3
24 -35z"/>
</g>
</svg>
