<?xml version="1.0" standalone="no"?>
<!DOCTYPE svg PUBLIC "-//W3C//DTD SVG 20010904//EN"
 "http://www.w3.org/TR/2001/REC-SVG-20010904/DTD/svg10.dtd">
<svg version="1.0" xmlns="http://www.w3.org/2000/svg"
 width="101.000000pt" height="101.000000pt" viewBox="0 0 101.000000 101.000000"
 preserveAspectRatio="xMidYMid meet">
<metadata>
Created by potrace 1.16, written by Peter Selinger 2001-2019
</metadata>
<g transform="translate(0.000000,101.000000) scale(0.100000,-0.100000)"
fill="#000000" stroke="none">
<path d="M478 973 c-9 -2 -18 -10 -21 -17 -8 -20 5 -146 14 -146 5 0 9 -34 9
-75 0 -43 -4 -75 -10 -75 -6 0 -10 -30 -10 -70 0 -40 4 -70 10 -70 6 0 10 -20
10 -45 0 -27 -5 -45 -11 -45 -8 0 -10 -26 -5 -89 6 -73 4 -97 -9 -124 -15 -33
-15 -36 6 -71 22 -37 33 -44 44 -26 4 6 42 31 86 57 l80 46 -5 45 c-3 24 -7
46 -9 49 -3 2 -28 -12 -56 -33 -29 -20 -55 -33 -59 -30 -5 6 -7 216 -2 271 2
17 10 21 40 22 33 2 38 -1 38 -20 1 -50 29 -142 65 -212 23 -46 135 -160 166
-170 16 -5 32 4 67 40 26 25 45 47 43 49 -2 1 -24 8 -49 15 -44 13 -115 56
-139 84 -10 13 -3 22 44 55 31 23 70 44 86 47 38 8 33 22 -19 62 l-42 32 -51
-55 c-29 -30 -55 -54 -60 -54 -6 0 -16 30 -25 76 -1 6 -5 21 -8 32 -7 21 -7
21 79 24 22 1 54 -1 71 -5 l31 -6 0 212 1 212 -55 -2 c-29 0 -81 -4 -115 -8
-36 -4 -63 -3 -67 2 -6 11 -134 23 -163 16z m202 -84 c0 -7 19 -10 53 -7 l52
3 2 -46 3 -46 -77 -7 c-42 -3 -98 -6 -124 -6 l-49 0 3 50 2 50 43 0 c23 0 42
5 42 10 0 6 11 10 25 10 14 0 25 -5 25 -11z m105 -218 l0 -50 -57 -6 c-36 -4
-64 -3 -78 5 -13 7 -41 10 -64 8 l-41 -5 0 43 -1 43 76 4 c41 1 95 4 120 5
l45 2 0 -49z"/>
<path d="M397 963 c-3 -3 -69 -5 -147 -5 l-141 1 5 -110 c3 -63 1 -121 -5
-137 -6 -14 -8 -36 -5 -48 5 -19 12 -21 68 -20 l63 1 -3 -82 c-1 -48 2 -84 8
-88 13 -8 13 -68 -1 -82 -8 -8 -7 -16 2 -30 13 -22 5 -78 -10 -68 -5 3 -21 1
-35 -5 -23 -8 -26 -7 -31 23 -8 48 4 190 20 244 8 24 -10 33 -62 31 l-33 -1 6
-46 c10 -86 15 -196 9 -228 -5 -27 -11 -33 -40 -39 l-34 -6 18 -47 c19 -51 17
-50 106 -26 33 10 74 19 90 21 17 2 44 6 60 9 17 4 39 8 50 9 65 8 97 41 87
89 -4 21 -15 21 -77 2 -27 -8 -51 -13 -53 -11 -3 4 -5 96 -2 132 2 22 6 23 82
26 39 2 51 19 41 58 -5 18 -12 20 -63 16 l-57 -4 5 46 c2 26 5 48 6 49 1 1 25
3 54 4 57 2 70 17 53 62 -6 14 -8 76 -5 140 4 94 3 115 -9 120 -8 3 -17 3 -20
0z m-52 -166 l1 -79 -51 6 c-27 3 -62 6 -76 6 -25 0 -26 1 -25 73 l1 72 75 0
75 1 0 -79z"/>
</g>
</svg>
