<?xml version="1.0" standalone="no"?>
<!DOCTYPE svg PUBLIC "-//W3C//DTD SVG 20010904//EN"
 "http://www.w3.org/TR/2001/REC-SVG-20010904/DTD/svg10.dtd">
<svg version="1.0" xmlns="http://www.w3.org/2000/svg"
 width="101.000000pt" height="101.000000pt" viewBox="0 0 101.000000 101.000000"
 preserveAspectRatio="xMidYMid meet">
<metadata>
Created by potrace 1.16, written by Peter Selinger 2001-2019
</metadata>
<g transform="translate(0.000000,101.000000) scale(0.100000,-0.100000)"
fill="#000000" stroke="none">
<path d="M542 937 c-18 -35 -50 -85 -73 -111 -23 -26 -40 -48 -38 -50 2 -2 18
-11 34 -19 l30 -16 -27 -1 c-35 0 -41 -21 -29 -105 6 -38 7 -73 3 -79 -4 -6
-8 -49 -8 -96 -2 -122 -17 -193 -30 -143 -6 20 -6 20 -54 2 l-49 -19 -6 34
c-4 19 -2 43 4 54 6 11 8 27 5 35 -5 15 -2 16 74 19 35 1 50 27 37 67 -5 17
-14 19 -58 18 l-52 -2 3 47 c4 44 6 48 30 48 48 0 56 12 43 63 -13 55 -14 114
-2 122 5 3 9 32 9 64 l-1 58 -44 -5 c-28 -3 -43 -1 -43 7 0 6 -17 11 -40 11
-22 0 -40 -5 -40 -11 0 -7 -21 -10 -60 -7 l-60 3 0 -67 c0 -44 4 -68 11 -68
12 0 9 -53 -6 -125 l-7 -30 64 0 63 0 -4 -77 c-1 -45 2 -85 9 -98 8 -15 10
-47 5 -100 -6 -73 -9 -79 -32 -85 -14 -3 -28 -3 -32 0 -14 14 -2 240 14 266
11 16 -14 29 -57 29 -45 0 -47 -5 -32 -95 10 -58 14 -150 9 -182 -4 -25 -12
-34 -32 -39 -23 -6 -25 -10 -19 -47 4 -23 9 -43 11 -46 3 -2 73 15 156 38 83
24 153 40 157 37 3 -4 -14 -26 -38 -51 -24 -25 -42 -47 -39 -49 2 -3 16 -7 31
-10 14 -2 36 -9 47 -16 27 -14 33 -10 66 46 51 88 72 171 67 273 -2 59 0 97 7
105 7 8 10 38 9 67 l-3 54 105 3 c58 1 139 3 180 5 41 1 87 -2 101 -6 23 -8
27 -5 33 18 14 57 5 63 -103 61 l-99 -1 36 55 c19 30 44 70 56 89 l20 34 -30
-7 c-72 -16 -134 -18 -149 -6 -8 7 -24 10 -36 7 -19 -5 -19 -3 5 28 14 19 26
36 26 38 0 7 -60 27 -80 27 -11 0 -28 -22 -48 -63z m-235 -160 l3 -72 -63 0
-62 0 0 70 0 70 60 2 60 1 2 -71z m374 1 c-23 -43 -30 -48 -61 -48 -19 0 -52
3 -72 6 l-37 6 35 42 c33 40 35 41 98 41 l63 0 -26 -47z"/>
<path d="M561 407 c-1 -232 6 -257 76 -281 32 -11 51 -13 64 -6 10 6 49 8 87
6 85 -6 110 6 140 64 25 51 28 80 8 80 -8 0 -28 11 -44 25 l-30 25 -7 -39 c-9
-55 -32 -72 -96 -72 -97 -1 -98 0 -109 42 -6 21 -8 78 -5 126 3 49 6 98 6 111
1 16 7 22 24 22 12 0 42 3 66 6 l45 6 2 -45 c2 -60 -14 -77 -68 -71 -45 5 -46
4 -25 -36 8 -16 15 -33 14 -37 -6 -37 28 -39 105 -5 46 21 54 36 61 120 1 15
5 39 9 55 5 15 5 42 2 60 l-6 32 -159 2 -158 3 -2 -193z"/>
</g>
</svg>
