<?xml version="1.0" standalone="no"?>
<!DOCTYPE svg PUBLIC "-//W3C//DTD SVG 20010904//EN"
 "http://www.w3.org/TR/2001/REC-SVG-20010904/DTD/svg10.dtd">
<svg version="1.0" xmlns="http://www.w3.org/2000/svg"
 width="101.000000pt" height="101.000000pt" viewBox="0 0 101.000000 101.000000"
 preserveAspectRatio="xMidYMid meet">
<metadata>
Created by potrace 1.16, written by Peter Selinger 2001-2019
</metadata>
<g transform="translate(0.000000,101.000000) scale(0.100000,-0.100000)"
fill="#000000" stroke="none">
<path d="M623 1003 c-28 -5 -27 0 -3 -51 31 -65 31 -65 -73 -57 -80 6 -96 5
-110 -10 -18 -17 -22 -52 -9 -71 4 -6 29 -11 55 -11 26 -1 51 -4 54 -7 4 -3
-1 -6 -10 -6 -28 0 -20 -21 33 -90 l51 -65 -33 -11 c-18 -6 -36 -9 -40 -7 -5
2 -14 1 -20 -4 -7 -4 -25 -6 -40 -4 -14 1 -29 -2 -33 -8 -3 -6 -15 -11 -26
-11 -18 0 -19 -1 -3 -25 15 -23 15 -25 -1 -32 -10 -3 -31 -1 -47 5 -16 6 -35
9 -41 6 -8 -3 -12 12 -12 46 0 50 0 50 32 50 47 0 63 22 63 86 0 30 -4 54 -10
54 -5 0 -10 16 -10 35 0 19 5 35 10 35 6 0 10 23 10 51 l0 51 -94 -7 c-60 -4
-96 -3 -100 3 -3 6 -26 10 -51 10 -47 0 -81 -20 -68 -41 4 -6 6 -69 6 -139
l-1 -127 34 -7 c19 -3 46 -4 62 -2 l27 4 0 -178 c0 -112 -4 -178 -10 -179 -5
0 -20 -2 -32 -5 -18 -3 -23 2 -28 29 -9 58 7 211 26 233 16 20 9 24 -50 30
-60 5 -61 4 -45 -96 18 -113 11 -223 -13 -219 -32 5 -44 -2 -37 -24 4 -12 8
-33 10 -45 1 -13 5 -26 8 -29 3 -3 60 9 126 26 66 18 135 34 153 37 17 3 39 7
47 8 34 6 60 18 61 29 6 59 6 77 2 77 -3 0 -32 -7 -65 -16 -33 -8 -62 -13 -65
-11 -4 5 -6 92 -3 134 2 20 7 21 60 19 48 -3 59 0 63 14 3 10 22 21 49 28 24
6 76 24 114 39 81 33 85 33 189 -1 44 -15 96 -29 115 -32 34 -5 36 -3 58 42
13 25 21 49 18 52 -3 3 -32 7 -63 8 -67 4 -117 11 -143 19 -18 6 -17 8 4 39
12 19 33 59 47 90 24 55 25 56 66 56 23 0 45 -4 48 -10 18 -29 40 11 30 53 -5
19 -15 27 -43 32 -23 4 -38 3 -40 -4 -5 -14 -52 -15 -52 -1 0 6 -22 10 -50 10
-27 0 -49 3 -48 8 1 4 -5 28 -12 55 -12 44 -14 47 -44 46 -17 -1 -41 -4 -53
-6z m-308 -203 l0 -75 -60 3 -60 3 0 72 0 72 60 0 60 0 0 -75z m430 10 c7 -11
-37 -101 -57 -118 -11 -9 -22 0 -52 46 l-38 57 31 3 c17 2 31 7 31 13 0 12 77
12 85 -1z"/>
<path d="M537 498 c-3 -11 -1 -31 6 -45 8 -18 7 -33 -3 -61 -7 -20 -15 -50
-17 -66 -7 -64 -77 -132 -155 -151 -29 -8 -39 -25 -13 -25 8 0 30 -14 49 -31
l36 -31 27 20 c81 59 138 142 149 217 24 164 25 185 6 186 -9 1 -31 2 -49 4
-24 2 -32 -2 -36 -17z"/>
<path d="M727 498 c-4 -12 -2 -29 4 -39 9 -18 4 -307 -7 -342 -6 -19 6 -22 66
-17 19 1 38 6 41 12 3 5 0 32 -8 61 -17 64 -10 227 12 310 6 22 4 27 -11 28
-11 1 -35 3 -55 4 -31 3 -38 0 -42 -17z"/>
</g>
</svg>
