<?xml version="1.0" standalone="no"?>
<!DOCTYPE svg PUBLIC "-//W3C//DTD SVG 20010904//EN"
 "http://www.w3.org/TR/2001/REC-SVG-20010904/DTD/svg10.dtd">
<svg version="1.0" xmlns="http://www.w3.org/2000/svg"
 width="101.000000pt" height="101.000000pt" viewBox="0 0 101.000000 101.000000"
 preserveAspectRatio="xMidYMid meet">
<metadata>
Created by potrace 1.16, written by Peter Selinger 2001-2019
</metadata>
<g transform="translate(0.000000,101.000000) scale(0.100000,-0.100000)"
fill="#000000" stroke="none">
<path d="M639 959 c2 -30 -2 -56 -8 -62 -8 -8 -52 -12 -121 -12 -117 0 -110
-3 -114 48 -1 6 -5 15 -11 19 -12 9 -79 10 -88 2 -8 -9 -104 -8 -143 1 -23 5
-35 2 -48 -10 -15 -16 -17 -35 -13 -162 3 -79 8 -147 12 -151 4 -4 31 -7 61
-7 l54 0 0 -105 c0 -58 3 -135 6 -171 5 -52 4 -66 -7 -66 -8 0 -24 -3 -36 -7
-19 -6 -23 -3 -27 26 -10 58 6 211 24 233 14 17 -10 31 -61 34 l-36 1 -1 -66
c-1 -37 3 -75 9 -86 6 -11 7 -46 4 -86 -7 -62 -9 -67 -32 -68 -35 -3 -37 -8
-23 -59 10 -37 16 -44 31 -40 11 3 28 7 38 10 10 3 34 8 52 11 33 5 55 9 109
20 23 5 43 8 95 17 33 6 65 18 66 25 0 4 3 24 5 45 4 36 3 38 -18 32 -38 -11
-51 -14 -85 -20 -30 -5 -32 -3 -38 34 -4 23 -2 48 4 60 6 11 8 27 4 37 -5 13
-3 16 10 11 10 -4 29 -1 42 5 19 9 28 9 37 0 18 -18 38 -14 38 7 0 19 19 40
21 24 1 -4 4 -21 6 -38 10 -63 7 -251 -4 -283 -20 -54 0 -74 64 -65 30 5 31 7
28 43 -3 33 -1 38 18 39 12 0 56 3 97 6 96 7 140 0 138 -23 -5 -60 10 -73 68
-65 l29 5 -3 81 c-5 136 -4 280 1 320 5 35 4 37 -16 30 -19 -7 -111 -8 -217
-2 -25 1 -25 1 5 16 17 9 32 18 35 20 2 2 3 33 2 69 -2 40 1 64 7 64 6 0 11 8
11 18 0 9 13 -6 29 -34 28 -48 68 -86 119 -113 21 -11 26 -9 61 30 l38 43 -55
23 c-50 20 -122 76 -122 94 0 4 34 26 75 48 41 23 75 44 75 48 0 12 -51 73
-62 73 -6 0 -35 -23 -65 -51 -31 -29 -58 -48 -63 -43 -13 13 -22 62 -22 115 0
44 -1 47 -30 53 -61 12 -63 11 -59 -45z m-334 -174 l0 -80 -55 -3 -55 -3 0 83
0 83 55 0 55 0 0 -80z m174 19 l62 6 -28 -51 c-15 -28 -55 -76 -88 -107 -39
-36 -55 -57 -46 -60 7 -2 27 -17 44 -32 25 -22 28 -30 19 -46 -10 -17 -11 -17
-12 -1 0 15 -3 15 -20 5 -15 -10 -27 -10 -51 -1 -17 7 -36 10 -42 7 -8 -3 -12
12 -12 49 0 46 2 53 17 49 10 -2 29 -1 43 2 22 6 25 12 25 49 0 66 12 150 20
137 4 -7 29 -9 69 -6z m146 -90 l5 -79 -39 0 c-48 -1 -56 -7 -43 -32 6 -10 12
-31 13 -48 4 -28 2 -30 -26 -27 -30 2 -77 8 -84 11 -2 0 19 26 48 56 48 50
111 161 111 194 0 8 2 12 5 9 3 -3 8 -41 10 -84z m156 -249 c21 -5 25 -12 26
-40 1 -31 -2 -35 -30 -40 -18 -3 -68 -3 -112 0 -44 3 -90 6 -101 6 -18 1 -22
7 -21 35 1 26 5 33 16 29 9 -2 22 -1 30 4 15 10 153 14 192 6z m0 -140 c21 -5
25 -12 26 -40 1 -31 -2 -35 -30 -40 -18 -3 -68 -3 -112 0 -44 3 -90 6 -101 6
-18 1 -22 7 -21 35 1 26 5 33 16 29 9 -2 22 -1 30 4 15 10 153 14 192 6z"/>
</g>
</svg>
