<?xml version="1.0" standalone="no"?>
<!DOCTYPE svg PUBLIC "-//W3C//DTD SVG 20010904//EN"
 "http://www.w3.org/TR/2001/REC-SVG-20010904/DTD/svg10.dtd">
<svg version="1.0" xmlns="http://www.w3.org/2000/svg"
 width="101.000000pt" height="102.000000pt" viewBox="0 0 101.000000 102.000000"
 preserveAspectRatio="xMidYMid meet">
<metadata>
Created by potrace 1.16, written by Peter Selinger 2001-2019
</metadata>
<g transform="translate(0.000000,102.000000) scale(0.100000,-0.100000)"
fill="#000000" stroke="none">
<path d="M595 1010 c4 -6 3 -61 -1 -122 l-7 -110 -51 6 c-89 10 -92 7 -88 -84
2 -53 0 -80 -7 -80 -12 0 -14 -76 -5 -157 l7 -53 42 4 c23 1 48 6 54 11 7 4
27 4 45 1 29 -6 32 -10 33 -45 2 -38 1 -40 -37 -46 -22 -4 -45 -3 -51 1 -7 4
-31 9 -54 10 -35 3 -44 1 -48 -15 -14 -53 22 -93 64 -70 10 5 43 6 72 3 61 -7
58 -1 57 -115 0 -62 10 -72 64 -62 24 5 26 9 26 62 -1 101 0 109 24 111 11 1
65 2 118 3 93 1 97 2 101 25 10 55 -13 79 -60 61 -24 -9 -85 -12 -155 -8 -24
1 -27 5 -25 39 1 30 5 38 22 39 50 4 93 2 124 -4 l34 -8 -8 157 c-5 116 -4
156 5 156 7 0 10 12 8 31 l-3 32 -105 1 -105 1 0 30 0 30 127 -2 c116 -1 128
0 133 17 13 42 -19 91 -48 73 -6 -4 -57 -7 -112 -7 l-101 -1 2 25 c1 14 6 35
9 48 7 21 5 22 -49 22 -37 0 -55 -4 -51 -10z m197 -339 l3 -39 -44 -7 c-31 -5
-46 -3 -53 7 -7 10 -11 10 -15 1 -6 -15 -73 -18 -73 -3 0 6 -15 10 -34 10 -30
0 -34 3 -38 30 l-4 29 75 4 c42 1 99 4 127 5 l52 2 4 -39z m-16 -111 c16 0 20
-7 21 -35 1 -31 -2 -35 -30 -40 -18 -3 -68 -3 -112 0 -44 3 -89 6 -100 6 -16
1 -20 8 -20 34 0 32 0 32 41 27 23 -2 50 1 60 7 11 7 40 9 69 6 28 -2 59 -5
71 -5z"/>
<path d="M85 928 c-4 -10 -3 -28 1 -40 4 -12 6 -75 6 -139 -1 -131 -3 -129 81
-129 l37 0 0 -55 c0 -30 5 -55 10 -55 6 0 10 -16 10 -35 0 -19 -5 -35 -11 -35
-8 0 -9 -24 -4 -79 l7 -78 -27 -7 c-15 -4 -30 -4 -34 -1 -13 14 -2 230 14 255
3 5 0 10 -7 11 -7 1 -29 3 -49 4 -31 3 -38 0 -42 -17 -4 -12 -2 -28 2 -37 11
-21 13 -168 3 -205 -5 -20 -15 -30 -32 -33 -13 -2 -25 -5 -27 -6 -6 -7 22 -80
33 -84 7 -2 46 5 88 17 41 11 88 23 103 25 15 2 43 8 62 14 18 6 36 10 40 9 3
-1 18 2 34 6 27 8 33 23 28 70 -2 27 -1 27 -59 12 l-51 -14 -7 33 c-3 18 -1
42 5 53 6 11 9 27 6 34 -4 10 7 14 41 16 56 2 57 3 57 42 0 39 -1 40 -55 42
l-44 2 0 53 c1 49 2 52 24 46 12 -3 33 -3 45 1 22 5 24 11 26 76 1 44 -2 70
-8 70 -6 0 -11 16 -11 35 0 19 5 35 10 35 6 0 10 25 10 56 l0 56 -32 -5 c-82
-14 -189 -19 -201 -9 -21 18 -76 11 -82 -10z m215 -88 c0 -14 3 -47 6 -75 l6
-50 -70 0 -70 0 2 75 1 75 63 0 c59 0 62 -1 62 -25z"/>
</g>
</svg>
