<?xml version="1.0" standalone="no"?>
<!DOCTYPE svg PUBLIC "-//W3C//DTD SVG 20010904//EN"
 "http://www.w3.org/TR/2001/REC-SVG-20010904/DTD/svg10.dtd">
<svg version="1.0" xmlns="http://www.w3.org/2000/svg"
 width="101.000000pt" height="101.000000pt" viewBox="0 0 101.000000 101.000000"
 preserveAspectRatio="xMidYMid meet">
<metadata>
Created by potrace 1.16, written by Peter Selinger 2001-2019
</metadata>
<g transform="translate(0.000000,101.000000) scale(0.100000,-0.100000)"
fill="#000000" stroke="none">
<path d="M550 970 c-5 -10 -9 -29 -9 -42 2 -25 -6 -72 -22 -130 -9 -36 -11
-37 -47 -33 -20 2 -46 6 -57 9 -37 11 -51 -11 -47 -72 2 -21 6 -23 46 -19 39
4 44 3 45 -17 0 -11 2 -37 3 -56 l3 -35 -52 1 c-42 1 -52 -2 -56 -17 -4 -15
-13 -18 -49 -16 -42 3 -43 4 -40 38 1 19 3 44 3 57 1 25 0 25 32 13 13 -5 29
-6 35 -2 8 5 13 61 17 163 5 150 4 157 -15 163 -11 3 -30 3 -42 -1 -13 -4 -66
-8 -118 -8 l-95 -2 -3 -47 c-2 -28 1 -47 7 -47 6 0 11 -16 11 -35 0 -19 -4
-35 -10 -35 -12 0 -13 -119 -1 -138 9 -14 36 -17 82 -9 22 4 27 1 28 -17 1
-11 3 -43 6 -71 2 -27 2 -96 -2 -152 -5 -96 -6 -101 -29 -106 -20 -3 -24 1
-29 27 -8 47 5 192 20 229 4 9 3 17 -1 18 -5 0 -28 3 -51 5 l-41 5 4 -38 c11
-83 14 -171 9 -219 -6 -48 -9 -52 -36 -58 -26 -5 -29 -9 -23 -28 4 -13 8 -34
10 -46 1 -13 5 -26 7 -28 3 -3 58 13 123 35 66 22 138 45 162 51 28 7 42 17
43 28 7 83 10 79 -52 57 -50 -18 -63 -8 -54 40 3 17 6 40 7 52 0 14 6 22 17
21 38 -3 61 3 61 15 0 9 16 14 49 15 l50 1 -4 -52 c-6 -75 -63 -185 -125 -239
l-50 -44 46 -22 c36 -18 49 -20 60 -11 25 20 111 156 124 193 6 20 15 36 20
36 5 0 23 -30 41 -67 18 -38 34 -70 36 -72 2 -3 16 4 31 15 46 34 50 35 51 11
4 -59 3 -94 -4 -118 -8 -30 10 -39 64 -31 l32 4 -1 77 c-2 106 0 125 12 113 7
-7 12 -25 17 -73 2 -11 56 -2 87 14 39 20 49 33 67 85 14 39 13 48 -3 103 -10
32 -31 81 -46 107 -15 26 -29 56 -29 66 -1 11 16 87 37 170 21 83 41 160 43
171 4 19 -1 20 -126 20 -106 0 -139 4 -171 18 -60 28 -96 30 -108 7z m124
-114 c1 -47 -2 -93 -6 -103 -6 -17 -7 -17 -7 0 -1 16 -7 18 -41 13 l-39 -5 26
72 c26 74 52 121 61 113 2 -3 5 -43 6 -90z m-414 -2 c0 -13 5 -24 11 -24 6 0
9 -19 7 -47 l-3 -48 -46 -1 -46 -1 1 76 1 76 38 -4 c31 -3 37 -7 37 -27z m584
-14 c-3 -14 -7 -38 -10 -54 -2 -16 -9 -47 -15 -70 -6 -22 -13 -54 -16 -70 -3
-16 -8 -38 -13 -50 -10 -23 -10 -25 -13 164 l-2 106 37 -1 c35 0 37 -2 32 -25z
m-163 -215 c-3 -83 -1 -176 5 -228 3 -32 3 -74 -1 -93 l-6 -35 -66 91 c-67 90
-89 138 -58 126 8 -3 27 0 41 6 19 9 30 9 44 1 15 -10 19 -8 23 14 8 43 -2 59
-36 61 -90 3 -92 4 -89 42 1 19 3 45 3 57 1 19 6 21 38 18 20 -2 41 -4 46 -5
24 -5 35 2 36 23 1 16 4 13 11 -13 6 -19 10 -48 9 -65z m178 -201 c11 -41 5
-96 -13 -109 -8 -6 -26 -11 -41 -10 l-27 0 0 105 c1 58 1 114 1 125 1 26 68
-66 80 -111z"/>
<path d="M383 973 c-9 -3 -9 -11 -1 -31 5 -15 12 -43 15 -62 10 -68 27 -81 77
-59 19 9 24 18 21 38 -1 14 -4 28 -5 31 -1 3 -3 10 -4 15 -2 6 -8 24 -15 42
-10 26 -18 31 -44 31 -18 0 -37 -3 -44 -5z"/>
</g>
</svg>
