<?xml version="1.0" standalone="no"?>
<!DOCTYPE svg PUBLIC "-//W3C//DTD SVG 20010904//EN"
 "http://www.w3.org/TR/2001/REC-SVG-20010904/DTD/svg10.dtd">
<svg version="1.0" xmlns="http://www.w3.org/2000/svg"
 width="101.000000pt" height="101.000000pt" viewBox="0 0 101.000000 101.000000"
 preserveAspectRatio="xMidYMid meet">
<metadata>
Created by potrace 1.16, written by Peter Selinger 2001-2019
</metadata>
<g transform="translate(0.000000,101.000000) scale(0.100000,-0.100000)"
fill="#000000" stroke="none">
<path d="M778 975 c-26 -7 -49 -10 -52 -8 -3 3 -13 2 -23 -2 -44 -19 -113 -27
-212 -26 -54 1 -89 -3 -99 -11 -13 -11 -14 -10 -8 8 7 23 -16 40 -36 28 -13
-8 -204 -8 -217 0 -6 4 -20 5 -30 1 -15 -5 -19 -17 -20 -75 -1 -38 3 -71 9
-75 13 -8 13 -70 0 -114 -5 -19 -7 -37 -4 -40 6 -7 79 -4 103 4 15 4 19 0 20
-17 1 -13 3 -45 6 -73 2 -27 2 -96 -2 -151 -5 -97 -7 -102 -30 -113 -14 -7
-28 -9 -32 -6 -7 8 -6 132 2 186 3 20 10 46 16 56 9 17 6 21 -24 31 -57 17
-86 0 -75 -43 12 -49 21 -184 15 -222 -4 -24 -12 -34 -31 -39 -26 -7 -26 -13
2 -82 l13 -33 78 40 c43 21 114 51 158 66 96 34 106 41 109 89 4 42 0 43 -71
16 l-53 -20 -6 26 c-4 14 -2 36 4 50 7 13 9 30 6 38 -5 12 4 14 45 11 45 -3
51 -1 51 15 0 10 5 22 10 25 6 3 10 -3 10 -14 0 -20 14 -26 50 -22 8 0 32 3
53 5 l37 5 -31 -60 c-38 -71 -120 -159 -174 -186 l-39 -20 25 -13 c13 -7 34
-21 46 -32 l22 -20 68 68 c38 38 83 93 100 123 29 50 32 52 42 33 12 -22 9
-223 -3 -253 -9 -20 16 -28 63 -21 32 4 33 5 25 41 -4 20 -7 81 -6 136 2 163
0 157 34 90 32 -63 145 -185 171 -185 9 0 18 8 22 19 3 10 16 30 30 45 l24 26
-50 25 c-72 36 -114 71 -149 123 -36 54 -37 59 -7 61 12 1 38 2 57 4 19 1 56
-2 81 -6 45 -8 47 -7 52 19 2 14 2 34 0 44 -4 15 -10 17 -32 9 -14 -5 -62 -7
-106 -4 -44 3 -90 6 -103 6 -19 1 -21 5 -16 23 13 41 9 50 -24 57 -56 12 -71
3 -67 -41 l3 -37 -60 -7 c-33 -3 -65 -3 -71 1 -6 3 -23 7 -38 8 -20 1 -29 -4
-34 -19 -5 -17 -8 -18 -13 -6 -5 10 -22 15 -57 15 l-50 0 3 35 c1 19 3 45 3
57 1 20 5 22 31 18 40 -7 41 -8 53 -6 6 1 11 46 12 109 3 163 0 151 23 123 11
-13 20 -29 20 -36 0 -14 31 -25 72 -25 32 0 78 19 78 32 0 5 33 9 73 8 39 -1
90 1 112 4 22 3 49 6 60 7 53 2 95 12 95 22 0 6 -12 28 -26 49 -29 42 -41 44
-116 23z m-483 -160 l0 -60 -62 0 -62 0 2 60 2 60 60 0 60 0 0 -60z"/>
<path d="M611 827 c-7 -9 -9 -33 -5 -63 10 -88 11 -91 41 -92 50 0 65 15 59
56 -15 94 -21 107 -55 110 -16 1 -34 -4 -40 -11z"/>
<path d="M793 772 c-18 -37 -38 -75 -45 -84 -15 -21 -11 -26 34 -33 35 -6 37
-4 72 54 20 32 43 62 51 65 27 10 16 34 -25 50 -22 9 -44 16 -48 16 -4 0 -21
-30 -39 -68z"/>
<path d="M448 799 l-26 -10 18 -42 c10 -23 21 -55 24 -71 3 -16 9 -33 13 -37
10 -10 83 10 83 22 0 4 -12 40 -26 78 -28 75 -34 79 -86 60z"/>
</g>
</svg>
