<?xml version="1.0" standalone="no"?>
<!DOCTYPE svg PUBLIC "-//W3C//DTD SVG 20010904//EN"
 "http://www.w3.org/TR/2001/REC-SVG-20010904/DTD/svg10.dtd">
<svg version="1.0" xmlns="http://www.w3.org/2000/svg"
 width="101.000000pt" height="101.000000pt" viewBox="0 0 101.000000 101.000000"
 preserveAspectRatio="xMidYMid meet">
<metadata>
Created by potrace 1.16, written by Peter Selinger 2001-2019
</metadata>
<g transform="translate(0.000000,101.000000) scale(0.100000,-0.100000)"
fill="#000000" stroke="none">
<path d="M653 988 c-38 -12 -38 -13 -18 -61 8 -20 15 -38 15 -40 0 -5 -145 2
-161 7 -25 10 -43 -11 -43 -51 1 -21 2 -110 4 -198 3 -145 -1 -213 -14 -270
-2 -11 -5 -28 -5 -37 -1 -22 -21 -24 -21 -3 0 19 -11 19 -55 -2 -31 -15 -37
-15 -46 -3 -5 8 -7 29 -4 45 3 17 6 40 7 51 0 22 3 23 75 26 33 1 46 21 36 56
-3 15 -14 18 -57 16 l-52 -2 0 47 c1 54 7 60 52 54 l34 -5 -6 121 c-4 88 -3
126 6 136 7 9 10 26 6 41 -6 22 -11 25 -34 20 -58 -14 -122 -18 -134 -8 -7 5
-39 10 -70 10 -56 -1 -58 -2 -63 -32 -8 -40 1 -272 10 -287 5 -7 25 -10 59 -6
l51 5 1 -51 c1 -29 5 -68 9 -88 4 -22 2 -45 -4 -57 -8 -15 -8 -28 0 -46 17
-36 1 -88 -28 -92 -18 -3 -23 2 -28 29 -5 32 -2 119 9 210 5 40 4 47 -11 48
-10 1 -32 2 -50 4 -31 3 -31 2 -26 -34 8 -50 9 -269 1 -276 -6 -7 -32 -13 -57
-14 -9 -1 -11 -7 -6 -18 4 -10 9 -29 10 -42 2 -13 7 -27 12 -32 4 -4 82 19
173 51 90 33 165 60 167 60 10 0 -24 -49 -55 -82 -32 -34 -34 -38 -16 -44 10
-3 36 -13 57 -21 20 -9 39 -14 41 -12 33 36 120 278 109 305 -3 8 0 14 6 14 6
0 12 -10 12 -22 3 -40 5 -53 13 -79 5 -17 2 -50 -7 -85 -10 -40 -12 -65 -6
-77 6 -10 7 -26 4 -36 -7 -22 18 -31 59 -24 26 5 32 20 28 67 -2 13 2 16 14
12 8 -3 24 -1 34 4 11 6 43 7 74 4 l55 -7 -4 -32 c-5 -37 9 -45 64 -37 32 4
33 5 24 41 -9 40 -9 200 1 273 l6 47 -52 0 c-102 0 -108 1 -114 28 -4 13 -2
35 4 49 7 13 9 31 5 41 -5 12 -2 15 10 10 10 -4 28 -2 40 4 16 7 41 7 78 1 60
-11 69 -6 69 40 0 26 -30 55 -43 41 -4 -3 -39 -6 -79 -7 l-73 -1 3 50 4 50
-54 -1 -53 -2 3 -151 c3 -127 1 -152 -11 -157 -9 -3 -24 -1 -35 5 -24 13 -62
3 -62 -15 0 -8 -5 -14 -11 -14 -7 0 -9 12 -5 33 20 104 23 157 14 277 l-3 45
105 2 c58 1 126 5 152 8 34 5 56 2 79 -9 39 -19 34 -19 53 0 9 8 16 28 16 44
0 38 -29 54 -79 45 -66 -13 -129 -11 -124 3 3 7 -2 21 -12 32 -10 11 -15 26
-12 34 5 13 -22 39 -35 35 -2 -1 -18 -6 -35 -11z m-337 -206 l2 -77 -62 0 -61
0 0 75 0 75 60 2 60 2 1 -77z m480 -372 c15 0 22 -7 24 -22 3 -47 2 -119 -2
-123 -4 -5 -99 -7 -150 -4 -23 1 -28 7 -33 39 -4 22 -2 47 4 59 6 11 8 27 4
36 -5 14 -2 16 13 11 10 -3 26 -1 34 5 8 5 31 7 50 4 19 -2 45 -5 56 -5z"/>
</g>
</svg>
