<?xml version="1.0" standalone="no"?>
<!DOCTYPE svg PUBLIC "-//W3C//DTD SVG 20010904//EN"
 "http://www.w3.org/TR/2001/REC-SVG-20010904/DTD/svg10.dtd">
<svg version="1.0" xmlns="http://www.w3.org/2000/svg"
 width="101.000000pt" height="101.000000pt" viewBox="0 0 101.000000 101.000000"
 preserveAspectRatio="xMidYMid meet">
<metadata>
Created by potrace 1.16, written by Peter Selinger 2001-2019
</metadata>
<g transform="translate(0.000000,101.000000) scale(0.100000,-0.100000)"
fill="#000000" stroke="none">
<path d="M618 968 c1 -24 -1 -70 -5 -103 l-8 -60 -47 -3 -47 -3 4 78 5 79 -31
11 c-62 24 -70 6 -67 -142 l3 -100 175 -3 c96 -2 203 0 236 3 l62 6 0 82 c0
45 3 93 7 108 5 21 2 27 -20 37 -36 17 -74 5 -81 -25 -4 -14 -4 -46 -1 -71 l6
-47 -60 3 -59 4 0 43 c0 24 4 46 9 50 6 3 10 23 9 44 0 35 -3 40 -30 45 -60
12 -63 10 -60 -36z"/>
<path d="M76 962 c-3 -5 -4 -80 -3 -168 l2 -159 63 -3 62 -3 0 -34 c0 -19 5
-35 10 -35 15 0 12 -67 -2 -74 -10 -5 -10 -7 0 -12 13 -6 16 -145 3 -178 -4
-11 -19 -20 -34 -22 -23 -2 -27 2 -32 29 -3 18 -3 61 -1 97 13 169 14 163 -16
171 -47 12 -65 2 -61 -34 10 -82 13 -189 6 -237 -7 -46 -11 -54 -32 -57 -14
-2 -26 -5 -27 -6 -2 -2 5 -24 14 -50 13 -35 21 -46 32 -41 23 11 239 73 276
80 33 6 47 34 37 74 -4 15 -10 17 -40 8 -19 -5 -37 -7 -40 -5 -4 5 -6 93 -3
133 2 16 10 20 37 21 42 1 46 5 46 43 0 38 -4 42 -45 43 -32 1 -33 2 -33 47 0
43 1 46 25 43 47 -6 51 4 57 159 6 172 3 178 -83 178 -30 0 -54 -4 -54 -10 0
-5 -16 -10 -35 -10 -19 0 -35 5 -35 10 0 12 -87 14 -94 2z m204 -114 c0 -16 5
-28 11 -28 6 0 9 -19 7 -47 l-3 -47 -66 0 -65 -1 0 75 1 75 58 0 c56 0 57 -1
57 -27z"/>
<path d="M418 673 c-18 -5 -31 -43 -22 -67 3 -8 14 -18 24 -21 25 -8 92 -3
111 8 9 6 27 7 40 4 21 -5 25 -13 26 -45 l2 -40 -50 -6 c-27 -4 -55 -4 -61 0
-6 4 -28 8 -48 10 -32 3 -39 0 -43 -18 -3 -12 -2 -29 4 -39 5 -11 7 -85 3
-182 -5 -157 -4 -165 14 -169 11 -3 32 -3 46 -1 20 4 25 10 21 24 -3 10 -1 27
4 38 8 14 7 30 -4 60 -9 26 -12 63 -9 103 2 35 5 72 5 84 1 16 8 20 34 21 27
1 33 -3 34 -21 0 -11 3 -47 5 -79 3 -35 -1 -75 -9 -96 -17 -48 -6 -65 40 -64
46 1 47 3 35 39 -6 16 -8 63 -5 104 3 41 6 84 6 96 1 16 8 21 29 21 32 0 31 5
33 -149 1 -93 4 -107 19 -111 10 -3 26 -3 36 0 15 4 18 18 19 111 2 157 0 148
43 149 32 2 38 -1 39 -20 0 -12 3 -51 6 -87 6 -87 -8 -129 -46 -137 -23 -4
-29 -10 -24 -22 4 -9 9 -28 12 -43 4 -19 12 -28 24 -28 32 0 98 31 104 49 3 9
3 78 0 154 -3 80 -1 145 4 156 6 10 7 28 4 40 -5 19 -10 21 -32 15 -14 -5 -57
-7 -96 -6 -122 3 -114 0 -112 42 1 30 5 38 22 39 11 0 60 3 109 6 49 3 102 1
117 -4 24 -8 29 -7 34 9 3 10 3 29 0 43 -5 20 -15 26 -48 31 -46 6 -472 5
-499 -1z"/>
</g>
</svg>
