<?xml version="1.0" standalone="no"?>
<!DOCTYPE svg PUBLIC "-//W3C//DTD SVG 20010904//EN"
 "http://www.w3.org/TR/2001/REC-SVG-20010904/DTD/svg10.dtd">
<svg version="1.0" xmlns="http://www.w3.org/2000/svg"
 width="101.000000pt" height="101.000000pt" viewBox="0 0 101.000000 101.000000"
 preserveAspectRatio="xMidYMid meet">
<metadata>
Created by potrace 1.16, written by Peter Selinger 2001-2019
</metadata>
<g transform="translate(0.000000,101.000000) scale(0.100000,-0.100000)"
fill="#000000" stroke="none">
<path d="M675 958 l0 -52 -41 2 c-28 2 -47 -2 -58 -13 -17 -17 -21 -52 -8 -72
11 -18 58 -26 80 -14 17 9 20 8 18 -12 -1 -21 -5 -22 -62 -19 -59 3 -62 3 -68
-23 -4 -15 -4 -35 -1 -46 6 -17 13 -19 69 -14 l63 6 0 -30 c0 -30 -1 -30 -43
-26 -34 3 -43 0 -47 -15 -14 -52 22 -92 64 -69 26 13 28 12 25 -18 -4 -31 -17
-39 -44 -24 -24 13 -62 3 -62 -15 0 -8 -4 -14 -9 -14 -8 0 -8 39 0 90 6 44 1
49 -50 45 l-49 -3 13 31 c7 18 29 78 49 134 33 98 34 102 15 108 -10 4 -29 3
-41 -1 -13 -4 -44 -7 -70 -6 -37 2 -47 -1 -51 -15 -3 -10 -5 1 -6 25 l-1 43
-65 -7 c-40 -4 -70 -3 -77 4 -7 5 -32 10 -55 10 -53 1 -77 -20 -68 -57 6 -27
9 -162 4 -218 -1 -18 0 -35 3 -39 7 -6 33 -6 69 0 22 3 27 0 28 -18 1 -11 3
-43 6 -71 2 -27 1 -100 -2 -160 -5 -98 -8 -111 -24 -112 -13 -1 -20 7 -24 30
-8 46 4 207 19 253 5 18 1 24 -23 32 -16 6 -39 8 -50 5 -17 -4 -20 -11 -15
-47 12 -87 14 -144 8 -223 -5 -75 -7 -82 -30 -87 -13 -4 -24 -10 -24 -15 0
-18 31 -82 38 -79 51 27 142 65 203 85 l76 25 -10 34 c-11 37 -14 38 -51 25
-23 -9 -25 -8 -31 29 -4 22 -2 47 4 59 6 11 9 26 6 34 -4 10 3 14 26 14 22 0
33 -6 39 -21 4 -12 20 -51 34 -87 15 -36 24 -72 21 -80 -5 -12 -40 -40 -117
-92 -16 -11 -13 -15 24 -46 l41 -35 57 61 57 60 29 -24 c41 -33 165 -69 219
-63 11 1 66 2 123 3 97 1 103 3 108 24 3 12 12 27 20 34 35 29 0 44 -58 23
-40 -14 -149 -14 -233 0 -16 3 -41 7 -55 9 -29 4 -67 23 -92 44 -13 12 -15 20
-6 41 13 35 23 92 27 150 1 24 21 31 21 7 0 -14 21 -21 45 -15 6 2 22 4 37 5
23 1 26 -2 23 -24 -3 -27 -1 -27 -82 -17 -35 5 -45 -11 -36 -58 5 -24 21 -32
48 -26 6 1 24 4 41 5 34 3 33 5 36 -72 1 -22 7 -33 19 -36 36 -10 56 3 57 36
3 74 4 78 18 73 8 -3 26 0 40 6 19 9 30 9 45 0 32 -20 56 -15 62 14 10 57 -11
78 -53 52 -15 -10 -27 -10 -51 -1 -17 7 -36 10 -42 7 -7 -2 -13 6 -13 20 -2
24 0 24 57 21 63 -4 66 -2 60 59 -2 27 -8 31 -26 16 -12 -10 -21 -10 -40 -2
-14 6 -30 9 -37 7 -8 -3 -14 4 -14 21 -2 23 1 25 25 18 14 -4 35 -6 46 -5 11
1 32 2 48 3 29 1 37 24 15 46 -9 9 -9 18 0 37 6 13 9 32 5 41 -5 13 0 14 30 9
30 -6 36 -4 41 13 4 11 4 32 0 47 -6 24 -10 26 -39 21 l-33 -6 5 64 c6 64 5
65 -21 72 -15 3 -48 4 -74 2 l-47 -5 0 51 0 51 -40 3 -40 3 0 -53z m-399 -166
l2 -77 -47 0 -47 0 0 70 1 70 45 6 c25 3 45 7 45 7 0 1 1 -33 1 -76z m526 16
c3 -30 1 -33 -22 -33 -21 0 -25 5 -27 33 -1 27 2 32 22 32 18 0 24 -6 27 -32z
m-391 -4 l37 1 -30 -80 c-16 -44 -38 -100 -49 -124 -10 -24 -17 -46 -15 -49 5
-4 31 -4 81 0 25 2 30 -1 28 -17 -1 -10 3 -28 9 -38 7 -13 5 -28 -6 -52 -9
-18 -13 -40 -10 -48 3 -8 1 -18 -5 -21 -6 -4 -13 9 -17 29 -6 35 -15 40 -58
36 -15 -1 -18 4 -13 26 8 46 -3 58 -53 58 l-45 0 3 35 c1 19 3 45 3 57 1 20 5
21 46 16 l46 -5 -6 33 c-18 100 -20 141 -6 150 7 4 16 4 19 0 3 -5 21 -8 41
-7z m396 -134 c0 -22 -5 -27 -27 -27 -22 0 -27 5 -27 27 0 22 5 27 27 27 22 0
27 -5 27 -27z"/>
</g>
</svg>
