<?xml version="1.0" standalone="no"?>
<!DOCTYPE svg PUBLIC "-//W3C//DTD SVG 20010904//EN"
 "http://www.w3.org/TR/2001/REC-SVG-20010904/DTD/svg10.dtd">
<svg version="1.0" xmlns="http://www.w3.org/2000/svg"
 width="101.000000pt" height="101.000000pt" viewBox="0 0 101.000000 101.000000"
 preserveAspectRatio="xMidYMid meet">
<metadata>
Created by potrace 1.16, written by Peter Selinger 2001-2019
</metadata>
<g transform="translate(0.000000,101.000000) scale(0.100000,-0.100000)"
fill="#000000" stroke="none">
<path d="M805 989 c-61 -18 -149 -27 -280 -29 -117 -1 -119 -2 -93 -55 24 -48
21 -48 143 -32 29 3 31 2 30 -32 l0 -36 -90 0 -90 0 -3 -80 c-4 -106 3 -141
30 -148 12 -3 30 -2 40 4 10 5 40 7 66 3 46 -6 48 -7 49 -39 1 -31 -2 -34 -38
-40 -21 -4 -44 -3 -50 1 -13 8 -58 15 -96 14 -13 0 -23 6 -23 14 0 8 -12 14
-32 14 -82 3 -78 0 -76 48 2 32 6 43 18 42 8 -1 26 0 40 0 l25 2 2 152 c2 111
-1 154 -10 160 -15 10 -84 10 -90 1 -6 -9 -75 -9 -132 1 -60 10 -70 -2 -67
-76 1 -35 7 -64 12 -66 15 -5 12 -75 -5 -109 -8 -17 -13 -37 -9 -46 7 -20 43
-28 66 -16 34 18 63 7 66 -26 10 -100 10 -130 5 -227 -5 -105 -6 -106 -32
-111 -14 -3 -28 -3 -31 0 -11 11 -2 169 14 239 7 31 6 32 -31 36 -59 7 -70 1
-66 -35 18 -143 12 -267 -12 -267 -23 0 -27 -17 -14 -60 9 -30 17 -40 28 -37
44 13 241 67 279 77 23 6 42 16 43 23 8 89 13 83 -53 63 l-46 -13 -6 48 c-4
28 -2 57 4 68 5 11 7 27 3 37 -5 13 -3 16 10 11 8 -3 30 0 47 6 29 11 34 10
51 -12 18 -22 19 -36 14 -181 -6 -150 -5 -158 14 -163 10 -2 30 -2 44 0 l25 5
0 136 c0 180 0 180 26 181 11 0 35 2 51 3 24 2 30 -1 30 -17 0 -11 4 -30 9
-43 11 -33 -8 -51 -54 -49 -22 1 -42 -2 -46 -5 -12 -12 12 -83 27 -80 7 2 26
5 41 7 15 2 31 6 36 9 5 3 24 8 43 10 19 3 44 8 57 12 18 5 24 2 29 -15 6 -23
19 -26 56 -12 l25 10 -25 68 c-13 37 -26 69 -28 71 -2 2 -17 1 -34 -3 -25 -5
-29 -11 -28 -33 1 -18 -3 -27 -13 -27 -10 0 -14 8 -12 25 2 14 3 35 4 48 0 16
4 22 15 18 8 -3 23 -1 34 5 11 6 39 7 63 4 36 -6 44 -11 45 -28 0 -12 3 -53 6
-92 7 -99 -6 -121 -68 -118 l-47 2 14 -27 c7 -15 16 -39 19 -53 6 -23 11 -26
42 -23 48 3 105 23 107 37 1 7 2 75 3 152 1 77 5 159 8 181 5 37 4 43 -14 47
-12 3 -33 1 -47 -4 -23 -9 -86 -12 -153 -8 -24 1 -27 5 -26 34 1 37 1 37 113
35 l72 -1 0 115 0 114 -93 -1 -94 -2 2 35 c2 34 3 35 52 42 28 4 74 8 103 9
30 0 52 5 52 11 0 16 -49 98 -58 97 -4 0 -20 -5 -37 -10z m-529 -132 c2 -1 4
-36 5 -77 l2 -75 -34 2 c-91 7 -84 0 -87 84 l-3 76 58 -4 c31 -2 58 -5 59 -6z
m321 -131 c0 0 3 -19 4 -41 3 -37 2 -40 -21 -37 -14 2 -34 3 -45 4 -17 0 -20
7 -20 43 l0 42 40 -5 c22 -2 41 -5 42 -6z m197 -33 c-2 -46 -3 -48 -31 -45
-15 1 -37 3 -48 3 -16 1 -20 8 -20 38 0 36 0 36 50 42 28 3 50 6 50 7 1 1 0
-19 -1 -45z"/>
</g>
</svg>
