<?xml version="1.0" standalone="no"?>
<!DOCTYPE svg PUBLIC "-//W3C//DTD SVG 20010904//EN"
 "http://www.w3.org/TR/2001/REC-SVG-20010904/DTD/svg10.dtd">
<svg version="1.0" xmlns="http://www.w3.org/2000/svg"
 width="101.000000pt" height="101.000000pt" viewBox="0 0 101.000000 101.000000"
 preserveAspectRatio="xMidYMid meet">
<metadata>
Created by potrace 1.16, written by Peter Selinger 2001-2019
</metadata>
<g transform="translate(0.000000,101.000000) scale(0.100000,-0.100000)"
fill="#000000" stroke="none">
<path d="M630 999 c-33 -14 -33 -12 -14 -53 10 -19 15 -38 13 -41 -3 -3 -43
-1 -90 4 -46 4 -89 6 -96 4 -9 -4 -11 -36 -8 -119 2 -68 0 -116 -6 -119 -5 -4
-9 -21 -8 -38 1 -18 -2 -50 -6 -72 -8 -48 -34 -111 -33 -80 2 47 0 50 -47 49
l-44 -2 1 44 c2 42 4 44 33 45 16 1 33 1 36 1 8 -1 19 133 18 230 0 56 -4 82
-15 93 -17 16 -42 19 -61 7 -7 -4 -45 -5 -85 -1 -40 4 -83 5 -96 2 -25 -6 -40
-46 -23 -66 12 -15 13 -137 2 -209 -8 -45 -7 -49 16 -54 13 -4 38 -3 56 0 l32
6 -2 -53 c0 -28 2 -56 7 -62 10 -13 11 -133 2 -204 -6 -45 -11 -55 -29 -57
-18 -3 -23 2 -28 29 -8 48 3 190 20 245 4 12 3 22 -1 23 -108 12 -105 16 -88
-96 17 -117 14 -232 -6 -220 -4 3 -20 1 -34 -5 -24 -9 -25 -11 -11 -37 8 -15
15 -34 15 -40 0 -18 18 -16 107 8 43 12 87 23 98 25 11 1 35 7 54 13 18 6 36
10 40 9 32 -4 54 32 45 70 -5 18 -8 19 -51 6 -26 -8 -48 -13 -49 -11 -4 3 -6
131 -4 165 2 19 6 21 24 15 11 -4 31 -7 43 -6 20 1 21 -2 12 -21 -7 -11 -22
-35 -35 -53 -13 -17 -24 -34 -24 -37 0 -6 81 -29 85 -24 1 2 14 26 28 53 28
57 27 63 30 -100 1 -55 -2 -114 -7 -131 -7 -26 -5 -32 12 -36 11 -3 31 -4 44
-1 23 4 24 7 25 111 2 155 1 149 35 149 21 0 27 -4 23 -14 -3 -8 0 -23 6 -35
8 -15 7 -28 -5 -52 -26 -55 0 -93 54 -79 16 4 18 10 12 37 -6 28 -6 48 -1 122
1 16 8 21 29 21 31 0 32 -3 30 -109 -1 -72 -3 -69 55 -72 14 -1 22 -12 28 -39
9 -38 10 -39 46 -32 62 11 77 27 83 87 3 29 3 73 1 98 -7 66 -6 228 1 278 l5
43 -47 -7 c-44 -5 -311 -9 -358 -4 -15 2 -21 8 -19 24 1 11 3 28 4 36 1 13 30
15 195 15 l194 0 1 92 c1 51 4 99 7 106 8 22 -25 50 -50 42 -12 -4 -47 -8 -78
-9 -49 -1 -58 2 -58 16 0 9 -5 20 -11 24 -6 3 -9 15 -6 25 3 12 -2 23 -13 29
-22 12 -27 12 -60 -1z m-340 -165 c0 -13 5 -24 11 -24 6 0 9 -20 7 -52 l-3
-51 -61 -1 -61 -1 1 80 1 80 53 -3 c47 -4 52 -6 52 -28z m403 10 l105 -7 4
-48 3 -48 -145 2 -145 2 -1 53 -1 52 37 0 c20 0 84 -3 143 -6z m-104 -338 c0
-12 2 -34 3 -51 3 -28 1 -30 -32 -30 -33 0 -35 2 -32 30 1 17 3 39 3 51 1 16
8 21 29 21 21 0 28 -5 29 -21z m120 0 c0 -12 2 -34 3 -51 3 -28 1 -30 -32 -30
-33 0 -35 2 -32 30 1 17 3 39 3 51 1 16 8 21 29 21 21 0 28 -5 29 -21z m140 0
c0 -11 2 -34 3 -51 3 -29 1 -30 -37 -30 -38 0 -40 1 -37 30 1 17 3 39 3 51 1
16 8 20 34 21 27 1 33 -3 34 -21z m1 -170 c5 -59 1 -119 -7 -127 -5 -5 -21
-12 -35 -14 -24 -5 -26 -2 -32 45 -4 29 -2 58 4 69 5 11 8 26 5 33 -4 10 4 14
29 15 28 1 34 -3 36 -21z"/>
</g>
</svg>
