<?xml version="1.0" standalone="no"?>
<!DOCTYPE svg PUBLIC "-//W3C//DTD SVG 20010904//EN"
 "http://www.w3.org/TR/2001/REC-SVG-20010904/DTD/svg10.dtd">
<svg version="1.0" xmlns="http://www.w3.org/2000/svg"
 width="101.000000pt" height="101.000000pt" viewBox="0 0 101.000000 101.000000"
 preserveAspectRatio="xMidYMid meet">
<metadata>
Created by potrace 1.16, written by Peter Selinger 2001-2019
</metadata>
<g transform="translate(0.000000,101.000000) scale(0.100000,-0.100000)"
fill="#000000" stroke="none">
<path d="M120 973 c-12 -3 -14 -16 -12 -63 3 -39 0 -60 -7 -60 -6 0 -11 -18
-11 -40 0 -23 5 -40 11 -40 8 0 10 -17 7 -50 l-5 -50 33 -6 c19 -3 40 -4 48
-1 9 4 14 -2 15 -16 0 -12 3 -58 6 -102 7 -113 -5 -209 -27 -213 -12 -2 -18 6
-23 30 -8 48 4 203 19 239 6 13 0 18 -25 21 -54 8 -66 1 -62 -35 11 -84 13
-148 7 -214 l-6 -71 -34 -6 c-19 -4 -34 -9 -34 -11 0 -15 34 -85 41 -85 5 0
56 20 114 45 58 24 116 47 129 51 26 6 37 32 29 64 -6 23 -4 23 -37 10 -23 -9
-26 -7 -32 24 -3 19 -1 43 5 54 6 11 9 27 6 34 -4 10 6 14 36 15 50 2 52 5 52
43 0 38 -2 41 -52 43 l-40 1 1 42 c2 29 6 40 15 37 7 -3 25 -2 39 1 l26 7 -7
88 c-5 59 -3 91 4 95 6 4 10 23 10 44 -2 72 1 70 -108 70 -54 -1 -102 1 -107
4 -5 2 -16 3 -24 1z m145 -153 l0 -65 -40 0 -40 0 0 65 0 65 40 0 40 0 0 -65z"/>
<path d="M386 957 c-15 -11 -17 -21 -12 -48 4 -19 6 -71 6 -116 0 -45 4 -84
10 -88 13 -8 13 -52 0 -60 -5 -3 -9 -36 -9 -73 1 -166 -30 -274 -101 -355 -18
-21 -31 -39 -29 -41 2 -1 23 -12 46 -24 l42 -21 20 33 c30 48 66 133 81 191
25 99 36 205 21 205 -6 0 -11 11 -11 25 0 14 5 25 10 25 6 0 10 30 10 70 0 40
-4 70 -10 70 -5 0 -10 11 -10 25 0 14 5 25 10 25 6 0 10 19 10 43 l0 42 158 0
c157 0 228 -9 200 -26 -9 -6 -13 -32 -13 -88 1 -75 0 -79 -18 -69 -24 12 -87
2 -87 -15 0 -7 -4 -6 -10 3 -7 12 -33 15 -114 17 l-105 2 5 -42 c9 -66 9 -170
1 -195 -8 -22 -7 -23 45 -18 58 4 110 -2 103 -14 -2 -3 -7 -22 -10 -41 -10
-61 -26 -99 -47 -110 -23 -12 -39 -2 -18 11 8 5 18 11 22 12 5 2 1 29 -8 61
-14 46 -21 57 -38 57 -33 0 -49 -15 -41 -39 5 -18 12 -53 14 -83 1 -5 9 -8 18
-8 39 0 -7 -22 -52 -25 -26 -2 -49 -5 -51 -7 -2 -3 4 -23 13 -47 12 -31 21
-40 32 -36 36 14 213 64 219 63 15 -4 50 13 55 26 3 8 3 23 0 34 -4 17 -9 19
-30 11 -13 -5 -29 -9 -34 -9 -14 0 -2 38 22 72 26 37 24 43 -13 56 -26 8 -28
10 -10 11 18 1 22 7 23 34 0 17 4 41 8 51 6 15 10 10 21 -29 12 -42 15 -60 19
-98 1 -7 20 -4 57 10 13 5 15 -15 14 -112 0 -66 -8 -76 -57 -68 -38 6 -39 4
-17 -53 15 -38 19 -42 48 -39 89 8 107 31 106 137 -3 337 -2 340 20 333 25 -8
52 22 48 54 -2 19 -11 28 -33 35 l-30 9 3 68 c4 65 3 68 -24 83 l-29 15 42 1
c45 0 61 20 48 59 -5 16 -22 19 -156 25 -96 5 -154 4 -162 -2 -16 -13 -174
-14 -182 -2 -9 14 -38 12 -59 -3z m243 -341 c0 -11 2 -37 3 -56 3 -35 3 -35
-37 -35 -40 0 -40 0 -37 35 1 19 3 44 3 56 1 16 8 20 34 21 27 1 33 -3 34 -21z
m184 -11 c-1 -10 3 -27 8 -37 5 -9 6 -43 2 -75 l-6 -58 -20 73 -19 73 -34 -6
c-26 -4 -34 -1 -34 10 0 8 -1 18 -2 23 -2 4 9 7 24 7 15 1 31 4 35 8 15 15 48
2 46 -18z"/>
<path d="M505 832 c-5 -4 -10 -26 -11 -49 l-1 -42 119 2 c129 2 136 6 122 61
-5 21 -14 26 -51 32 -25 4 -49 2 -54 -3 -6 -6 -27 -7 -52 -2 -53 10 -60 10
-72 1z"/>
</g>
</svg>
