<?xml version="1.0" standalone="no"?>
<!DOCTYPE svg PUBLIC "-//W3C//DTD SVG 20010904//EN"
 "http://www.w3.org/TR/2001/REC-SVG-20010904/DTD/svg10.dtd">
<svg version="1.0" xmlns="http://www.w3.org/2000/svg"
 width="101.000000pt" height="101.000000pt" viewBox="0 0 101.000000 101.000000"
 preserveAspectRatio="xMidYMid meet">
<metadata>
Created by potrace 1.16, written by Peter Selinger 2001-2019
</metadata>
<g transform="translate(0.000000,101.000000) scale(0.100000,-0.100000)"
fill="#000000" stroke="none">
<path d="M513 966 l3 -46 -79 4 c-44 3 -83 9 -86 13 -3 5 -63 9 -133 10 -96 1
-128 -1 -131 -11 -8 -19 -8 -184 -1 -233 l6 -41 48 4 c44 4 48 2 49 -18 1 -13
3 -45 6 -73 2 -27 1 -98 -2 -157 -4 -83 -9 -108 -21 -113 -24 -9 -27 2 -25 98
1 97 6 141 18 170 5 11 3 17 -6 18 -8 1 -31 3 -52 4 l-38 4 6 -52 c21 -183 16
-277 -15 -277 -10 0 -21 -4 -24 -9 -6 -9 11 -70 24 -84 3 -4 35 6 71 22 35 15
93 39 129 51 70 25 91 42 84 68 -3 10 2 4 12 -13 15 -25 16 -41 8 -107 -10
-86 -8 -89 54 -80 31 4 31 4 25 51 -6 40 -8 233 -3 301 l2 25 11 -22 c12 -27
23 -29 36 -6 8 15 9 14 10 -7 6 -104 5 -231 -2 -261 -8 -32 -6 -37 12 -42 44
-11 59 1 56 48 -4 49 -14 44 120 48 44 1 90 -2 101 -6 25 -9 36 8 27 41 -4 17
-12 20 -57 17 -52 -3 -53 -3 -53 25 0 28 2 29 40 23 43 -6 58 6 49 39 -4 16
-11 18 -46 15 -37 -5 -41 -3 -42 17 -1 19 4 22 39 23 44 2 57 14 49 45 -4 16
-11 18 -47 14 -40 -4 -42 -3 -42 24 0 28 1 28 53 24 56 -4 68 5 57 45 -6 25
-7 25 -32 9 -15 -9 -26 -9 -47 1 -19 8 -24 15 -16 20 9 5 6 18 -13 46 -19 27
-22 36 -10 31 9 -3 25 -1 36 5 11 6 39 7 63 4 35 -6 44 -11 45 -28 4 -54 2
-227 -2 -272 -3 -27 -1 -65 6 -83 21 -62 -22 -165 -61 -143 -8 5 -23 6 -32 4
-16 -4 -16 -8 3 -53 11 -27 28 -51 36 -52 27 -6 101 24 112 43 5 11 9 63 9
117 -1 53 -1 126 -1 162 0 36 0 108 0 160 -1 94 3 134 16 177 9 27 -23 47 -57
34 -24 -8 -252 -6 -268 4 -4 3 -20 1 -34 -5 -26 -10 -35 -41 -18 -66 7 -12 50
-11 88 1 12 4 25 2 28 -4 4 -6 1 -11 -6 -11 -7 0 -19 -4 -27 -9 -12 -8 -12
-13 2 -35 24 -37 21 -44 -18 -43 -31 1 -33 2 -20 17 22 25 18 36 -17 53 l-33
16 -22 -49 c-27 -62 -72 -122 -85 -114 -5 4 -7 16 -3 28 3 11 8 39 11 61 3 37
1 42 -24 51 -15 5 -34 8 -43 6 -20 -4 -31 -39 -19 -61 7 -14 7 -100 -2 -239
-1 -20 -4 -28 -9 -20 -6 10 -16 9 -43 -4 l-34 -17 -7 39 c-4 22 -2 47 4 59 6
11 8 26 5 35 -5 12 2 14 34 11 33 -3 41 0 45 16 3 10 3 28 0 39 -5 17 -12 20
-47 18 l-41 -3 3 35 c1 19 3 45 3 57 1 19 6 21 40 18 30 -3 39 0 44 15 3 11 2
27 -3 37 -7 15 -9 63 -3 118 1 6 38 11 86 11 83 1 85 1 79 -21 -4 -18 -1 -25
16 -30 31 -10 68 2 75 24 3 12 19 21 42 24 38 7 56 -5 46 -28 -5 -15 41 -28
68 -20 19 6 23 15 20 48 -2 15 7 17 66 17 39 0 74 -5 80 -11 9 -9 13 -6 18 14
15 57 8 62 -88 62 -73 0 -86 2 -81 15 14 36 14 60 -1 61 -71 6 -75 5 -81 -28
-3 -17 -4 -35 -1 -40 3 -4 -19 -8 -47 -8 l-53 0 8 35 c4 19 6 36 4 38 -2 3
-25 7 -50 10 l-46 5 4 -47z m-246 -159 l2 -62 -47 0 -47 0 0 60 0 60 45 2 45
2 2 -62z m380 -277 c0 -28 -2 -29 -42 -28 -38 2 -42 5 -42 28 0 23 4 26 42 28
40 1 42 0 42 -28z m-1 -105 c-1 -22 -5 -24 -41 -23 -33 2 -40 6 -41 23 -1 18
5 21 41 23 40 1 43 0 41 -23z m1 -95 c0 -28 -2 -29 -42 -28 -38 2 -42 5 -42
28 0 23 4 26 42 28 40 1 42 0 42 -28z"/>
<path d="M418 799 l-37 -19 32 -49 c18 -28 38 -50 45 -50 10 -1 43 16 71 36 5
3 -47 79 -63 92 -7 6 -24 2 -48 -10z"/>
</g>
</svg>
