<?xml version="1.0" standalone="no"?>
<!DOCTYPE svg PUBLIC "-//W3C//DTD SVG 20010904//EN"
 "http://www.w3.org/TR/2001/REC-SVG-20010904/DTD/svg10.dtd">
<svg version="1.0" xmlns="http://www.w3.org/2000/svg"
 width="101.000000pt" height="101.000000pt" viewBox="0 0 101.000000 101.000000"
 preserveAspectRatio="xMidYMid meet">
<metadata>
Created by potrace 1.16, written by Peter Selinger 2001-2019
</metadata>
<g transform="translate(0.000000,101.000000) scale(0.100000,-0.100000)"
fill="#000000" stroke="none">
<path d="M226 986 c3 -8 -1 -25 -10 -38 -8 -13 -16 -27 -18 -33 -2 -5 -7 -9
-13 -7 -5 2 -23 1 -41 -2 l-31 -6 -1 -100 c-1 -55 3 -102 8 -105 13 -8 13 -52
0 -60 -6 -4 -9 -35 -7 -76 4 -66 3 -69 -17 -68 -55 5 -69 -11 -59 -64 4 -22
10 -25 37 -23 17 2 42 6 56 9 14 4 48 4 75 -1 l50 -7 -48 -52 c-38 -40 -106
-94 -166 -130 -2 -1 13 -18 34 -37 l38 -36 48 41 c45 37 123 123 163 179 11
14 16 17 12 7 -3 -9 -1 -27 5 -40 6 -14 7 -41 2 -72 l-9 -50 -52 1 c-29 0 -52
-2 -52 -4 0 -2 8 -26 17 -53 19 -54 35 -62 91 -46 48 14 70 33 80 71 l8 30 22
-22 c13 -13 27 -20 32 -17 15 9 71 93 106 159 29 54 33 57 43 38 12 -22 9
-223 -3 -253 -9 -20 16 -28 63 -21 28 4 32 8 26 26 -12 37 -15 217 -4 238 10
19 13 16 39 -28 26 -46 120 -144 137 -144 4 0 24 19 43 42 28 34 31 43 20 50
-8 5 -38 22 -67 38 -55 32 -93 74 -117 131 l-15 35 40 1 c22 1 51 -2 64 -7 49
-18 82 16 68 70 -5 20 -24 20 -91 0 -32 -10 -48 -10 -67 -2 -14 6 -31 9 -40 6
-12 -5 -14 2 -11 34 2 21 6 44 9 49 9 14 -44 36 -75 31 -21 -3 -23 -8 -24 -63
0 -67 4 -64 -84 -49 -45 8 -80 8 -87 0 -8 -8 -8 -64 0 -72 9 -9 47 -9 90 0
l39 7 -38 -71 c-21 -40 -56 -93 -79 -118 l-42 -46 -7 53 c-5 36 -3 57 5 67 9
11 9 18 1 26 -15 15 -16 75 -2 83 6 4 9 41 8 90 -3 73 -1 82 13 75 9 -5 21
-16 29 -24 19 -23 35 -20 71 16 39 40 70 106 63 136 -4 13 0 28 10 37 9 9 16
22 16 30 0 8 16 14 48 17 l47 3 1 -88 c2 -122 8 -128 141 -131 59 -1 66 3 69
43 1 16 5 38 9 50 6 20 4 21 -25 16 -44 -8 -41 -8 -75 -6 l-30 1 3 77 c1 43 0
88 -3 101 -6 23 -8 23 -80 17 -47 -5 -80 -4 -88 3 -16 13 -86 13 -111 0 -17
-9 -18 -18 -12 -82 6 -63 4 -77 -16 -115 -13 -23 -38 -51 -55 -62 l-33 -21 6
115 c5 110 4 116 -16 122 -11 3 -30 3 -41 0 -24 -8 -79 -13 -79 -8 0 2 9 21
20 43 23 45 19 50 -46 57 -36 4 -43 2 -38 -11z m106 -189 l3 -32 -65 3 c-63 3
-65 4 -65 30 0 26 2 27 61 29 l62 2 4 -32z m4 -144 c-1 -29 -5 -34 -32 -39
-18 -3 -41 -1 -52 5 -11 6 -27 9 -34 6 -9 -4 -13 5 -14 27 l0 33 66 1 66 0 0
-33z m-20 -99 c15 -4 20 -14 21 -39 1 -31 -2 -35 -32 -41 -18 -3 -42 -1 -53 5
-11 6 -27 8 -35 5 -12 -4 -15 3 -14 30 1 28 5 35 16 31 9 -2 23 0 31 5 17 11
36 12 66 4z"/>
</g>
</svg>
