<?xml version="1.0" standalone="no"?>
<!DOCTYPE svg PUBLIC "-//W3C//DTD SVG 20010904//EN"
 "http://www.w3.org/TR/2001/REC-SVG-20010904/DTD/svg10.dtd">
<svg version="1.0" xmlns="http://www.w3.org/2000/svg"
 width="101.000000pt" height="101.000000pt" viewBox="0 0 101.000000 101.000000"
 preserveAspectRatio="xMidYMid meet">
<metadata>
Created by potrace 1.16, written by Peter Selinger 2001-2019
</metadata>
<g transform="translate(0.000000,101.000000) scale(0.100000,-0.100000)"
fill="#000000" stroke="none">
<path d="M259 999 c0 -8 -2 -21 -4 -29 -2 -8 -6 -25 -9 -38 -15 -67 -11 -65
-95 -58 -42 3 -82 3 -88 -2 -17 -11 -26 -64 -14 -81 9 -14 46 -17 108 -9 25 3
30 1 28 -13 -7 -35 -64 -135 -94 -163 l-30 -29 20 -38 19 -39 95 4 95 3 0 -58
c0 -33 1 -62 3 -66 2 -7 -16 -11 -76 -18 -21 -2 -45 -9 -53 -16 -11 -9 -21 -9
-38 -1 -29 13 -69 4 -62 -14 3 -7 8 -29 12 -48 3 -20 10 -38 14 -41 5 -3 50 6
102 20 51 14 96 25 99 25 4 0 7 -10 8 -22 5 -79 5 -97 -2 -134 -9 -47 2 -55
62 -46 l33 4 -8 52 c-7 46 -8 68 -3 143 1 13 8 22 18 22 9 0 30 3 46 6 17 2
45 6 63 8 41 5 42 6 47 56 3 39 -2 47 -28 42 -5 -1 -21 -3 -35 -6 -32 -4 -67
-12 -92 -20 -16 -5 -18 1 -16 52 l1 58 42 -1 c22 -1 46 -5 53 -9 6 -4 22 -4
35 -1 28 7 41 42 31 81 -5 20 -12 24 -39 23 -17 -1 -52 -1 -76 0 l-44 2 5 65
c5 61 4 66 -16 70 -24 5 -56 8 -73 6 -16 -1 -17 -31 -3 -31 7 0 10 -22 8 -56
l-3 -56 -57 -1 c-32 -1 -58 -1 -58 -1 0 1 19 41 43 90 l42 89 45 3 c96 6 156
6 186 -2 36 -9 64 12 64 47 0 45 -11 49 -137 50 l-120 2 9 24 c4 13 18 36 29
52 19 27 19 28 2 38 -10 5 -35 12 -56 16 -28 5 -37 4 -38 -6z"/>
<path d="M630 1003 c-8 -3 -18 -11 -22 -16 -9 -15 -8 -96 2 -102 12 -8 11
-173 -1 -180 -12 -8 -12 -142 1 -150 13 -8 13 -52 -1 -61 -10 -6 -6 -227 5
-308 6 -37 37 -68 67 -66 13 0 67 2 120 3 108 2 122 9 150 72 25 53 24 82 -2
90 -11 4 -36 20 -55 37 -21 19 -34 25 -35 17 -6 -79 -10 -95 -33 -118 -22 -21
-28 -23 -50 -13 -14 6 -32 9 -39 6 -23 -9 -36 20 -43 94 -5 51 -4 72 5 72 7 0
11 32 11 100 0 60 -4 100 -10 100 -5 0 -10 11 -10 25 0 14 5 25 10 25 6 0 10
30 10 70 0 40 -4 70 -10 70 -5 0 -10 16 -10 35 0 19 5 35 10 35 6 0 10 26 10
58 0 33 5 63 13 71 25 26 -45 52 -93 34z"/>
</g>
</svg>
