<?xml version="1.0" standalone="no"?>
<!DOCTYPE svg PUBLIC "-//W3C//DTD SVG 20010904//EN"
 "http://www.w3.org/TR/2001/REC-SVG-20010904/DTD/svg10.dtd">
<svg version="1.0" xmlns="http://www.w3.org/2000/svg"
 width="101.000000pt" height="102.000000pt" viewBox="0 0 101.000000 102.000000"
 preserveAspectRatio="xMidYMid meet">
<metadata>
Created by potrace 1.16, written by Peter Selinger 2001-2019
</metadata>
<g transform="translate(0.000000,102.000000) scale(0.100000,-0.100000)"
fill="#000000" stroke="none">
<path d="M229 1009 c0 -8 -2 -21 -4 -29 -2 -8 -6 -26 -9 -39 -3 -13 -10 -39
-16 -57 l-11 -32 -77 1 -77 2 -3 -31 c-5 -47 20 -66 79 -62 45 3 48 1 43 -17
-17 -53 -58 -133 -80 -156 -21 -22 -24 -33 -20 -70 3 -24 5 -45 5 -46 1 -2 44
2 91 8 8 1 31 1 52 1 l36 -2 4 -55 c1 -30 1 -55 -2 -56 -3 0 -14 -2 -25 -4
-30 -5 -105 -16 -143 -20 -19 -2 -36 -5 -38 -7 -2 -3 2 -24 9 -49 12 -40 16
-44 43 -43 38 1 91 10 130 22 29 9 32 8 33 -12 5 -59 4 -104 -2 -132 -7 -36 7
-44 60 -37 39 6 48 34 26 81 -13 28 -14 40 -5 64 6 16 8 36 5 44 -3 8 1 15 8
15 70 7 121 17 130 26 4 4 11 27 15 50 l6 42 -38 -1 c-22 0 -46 -4 -54 -8 -8
-4 -27 -10 -41 -13 -25 -6 -26 -6 -25 47 1 50 3 54 24 52 12 -2 25 -6 29 -9
12 -13 51 -7 67 9 23 22 20 71 -3 84 -11 5 -40 10 -65 10 l-46 0 5 51 c3 28 7
55 10 59 9 15 -34 31 -73 28 l-37 -3 0 -75 0 -75 -37 -3 c-21 -2 -38 -1 -38 1
0 3 19 49 43 103 l42 99 115 4 c72 2 118 7 123 15 7 11 1 56 -10 66 -2 3 -47
5 -99 5 -52 0 -94 1 -94 3 0 8 35 70 51 91 24 30 19 36 -35 50 -24 6 -51 13
-60 17 -10 4 -16 1 -17 -7z"/>
<path d="M604 978 c-4 -13 -6 -23 -5 -23 1 0 -7 -22 -18 -48 -31 -73 -77 -135
-155 -209 -60 -58 -67 -68 -50 -74 10 -4 31 -16 46 -26 l26 -18 51 56 c28 30
74 89 102 130 28 41 54 74 58 74 3 0 19 -26 36 -58 32 -61 157 -195 194 -207
18 -5 29 1 56 32 19 21 34 43 34 48 0 6 -22 20 -48 33 -66 31 -132 91 -180
164 -36 55 -39 64 -26 78 24 27 18 37 -32 54 -63 21 -80 20 -89 -6z"/>
<path d="M550 660 c-12 -7 -14 -30 -12 -122 2 -62 4 -171 5 -243 1 -72 6 -140
10 -152 10 -27 62 -47 87 -33 10 5 60 8 110 6 85 -3 94 -1 120 21 29 24 66
112 53 124 -19 16 -93 52 -98 47 -3 -3 -8 -21 -10 -39 -6 -48 -48 -83 -89 -75
-17 4 -41 8 -53 9 -34 3 -45 21 -45 74 1 90 2 93 41 112 67 35 162 70 174 65
7 -2 21 2 32 10 19 13 18 15 -19 60 -23 28 -42 43 -49 39 -7 -4 -32 -21 -57
-39 -40 -28 -103 -64 -112 -64 -7 0 0 147 7 170 5 15 2 25 -6 31 -19 12 -70
11 -89 -1z"/>
</g>
</svg>
