<?xml version="1.0" standalone="no"?>
<!DOCTYPE svg PUBLIC "-//W3C//DTD SVG 20010904//EN"
 "http://www.w3.org/TR/2001/REC-SVG-20010904/DTD/svg10.dtd">
<svg version="1.0" xmlns="http://www.w3.org/2000/svg"
 width="101.000000pt" height="101.000000pt" viewBox="0 0 101.000000 101.000000"
 preserveAspectRatio="xMidYMid meet">
<metadata>
Created by potrace 1.16, written by Peter Selinger 2001-2019
</metadata>
<g transform="translate(0.000000,101.000000) scale(0.100000,-0.100000)"
fill="#000000" stroke="none">
<path d="M217 990 c3 -12 -2 -29 -11 -39 -10 -11 -16 -25 -15 -33 5 -40 1 -43
-68 -41 -73 2 -83 -4 -83 -49 0 -41 26 -60 76 -56 40 3 43 1 38 -17 -14 -48
-84 -185 -93 -185 -11 0 -9 -50 4 -82 6 -16 31 -17 105 -3 70 14 85 11 87 -15
9 -85 9 -83 -17 -87 -39 -5 -91 -11 -139 -17 -24 -3 -45 -7 -48 -9 -8 -9 20
-89 33 -94 6 -2 31 1 54 7 23 6 54 13 70 15 16 2 34 6 39 9 5 3 9 -4 10 -17 1
-12 2 -38 4 -57 1 -19 -1 -56 -5 -81 -8 -52 1 -60 58 -52 l31 5 1 81 c1 130 3
142 32 144 67 6 103 12 112 21 10 10 16 78 7 86 -3 3 -27 0 -54 -7 -28 -7 -61
-12 -75 -12 -21 0 -24 4 -22 25 2 14 3 35 4 47 0 19 5 21 42 18 22 -2 48 -6
57 -10 17 -7 49 18 49 38 -1 39 -14 58 -39 56 -14 -1 -42 -1 -63 -1 l-36 2 -4
56 c-1 30 1 62 6 71 11 21 -9 33 -59 33 l-40 0 0 -81 0 -81 -48 -2 c-26 0 -46
2 -45 5 2 3 21 48 42 100 l39 94 118 -1 c131 -1 138 3 124 65 -6 28 -6 29
-106 36 -54 3 -99 10 -99 13 0 4 11 27 25 51 14 23 25 45 25 47 0 6 -75 24
-102 24 -21 0 -25 -4 -21 -20z"/>
<path d="M572 983 c-6 -15 -10 -35 -10 -43 -1 -55 -48 -178 -97 -256 -19 -30
-35 -56 -35 -58 0 -2 21 -9 48 -16 26 -6 48 -12 50 -13 2 -1 18 32 37 73 l34
74 60 -2 c33 -1 62 2 66 8 7 12 65 13 83 1 11 -7 9 -20 -13 -65 -29 -61 -29
-64 1 -69 10 -2 27 -7 36 -11 31 -14 53 11 77 86 32 100 41 130 41 137 0 3
-71 6 -158 6 l-159 0 15 35 c7 19 25 49 38 67 13 17 24 34 24 38 0 9 -52 27
-91 32 -32 3 -37 1 -47 -24z"/>
<path d="M632 709 c-23 -9 -23 -13 -22 -116 1 -60 -1 -125 -5 -146 -17 -101
-83 -190 -187 -254 l-59 -37 28 -14 c15 -8 38 -23 50 -34 l22 -21 38 31 c21
16 50 43 65 59 36 38 95 138 103 174 9 41 21 36 39 -17 24 -72 59 -124 121
-183 l57 -54 21 26 c12 14 35 37 52 50 l29 25 -49 23 c-65 31 -125 92 -158
161 -35 73 -46 131 -48 253 -1 40 -6 73 -13 77 -15 10 -56 9 -84 -3z"/>
</g>
</svg>
