<?xml version="1.0" standalone="no"?>
<!DOCTYPE svg PUBLIC "-//W3C//DTD SVG 20010904//EN"
 "http://www.w3.org/TR/2001/REC-SVG-20010904/DTD/svg10.dtd">
<svg version="1.0" xmlns="http://www.w3.org/2000/svg"
 width="101.000000pt" height="102.000000pt" viewBox="0 0 101.000000 102.000000"
 preserveAspectRatio="xMidYMid meet">
<metadata>
Created by potrace 1.16, written by Peter Selinger 2001-2019
</metadata>
<g transform="translate(0.000000,102.000000) scale(0.100000,-0.100000)"
fill="#000000" stroke="none">
<path d="M207 1013 c-2 -4 -8 -21 -12 -38 -12 -43 -12 -44 -15 -52 -4 -11 -7
-26 -9 -39 -1 -6 -25 -9 -65 -8 -64 3 -65 3 -71 -26 -11 -52 1 -70 46 -68 22
1 44 -3 48 -8 13 -13 -36 -137 -65 -169 -22 -24 -23 -30 -14 -66 12 -45 21
-48 100 -33 71 12 85 10 88 -16 8 -84 7 -93 -13 -96 -11 -1 -40 -5 -65 -9 -25
-3 -60 -8 -78 -10 -19 -2 -36 -6 -39 -9 -3 -3 0 -28 7 -56 10 -42 15 -50 30
-45 10 3 31 8 46 10 16 2 45 9 64 14 50 15 49 16 44 -41 -3 -29 -4 -62 -4 -73
0 -11 1 -32 2 -47 1 -30 18 -37 65 -31 39 6 47 32 26 84 -10 26 -12 48 -7 66
4 16 8 37 8 48 1 11 8 20 16 21 8 0 33 6 54 12 22 6 42 9 46 7 3 -2 12 0 19 4
9 6 11 20 6 50 -7 44 -7 44 -99 26 -16 -3 -34 -7 -40 -8 -7 -1 -10 10 -8 28 1
17 3 40 3 51 1 22 5 23 77 26 32 1 33 3 36 53 1 14 9 21 26 23 73 7 95 6 93
-4 -7 -36 -20 -107 -27 -141 -6 -26 19 -34 71 -23 20 5 40 7 45 4 4 -3 17 0
29 6 12 7 36 9 55 5 l35 -6 -22 -38 c-12 -21 -31 -51 -43 -66 l-22 -28 -55 37
c-29 20 -59 36 -65 36 -6 0 -23 -15 -38 -34 l-26 -34 71 -42 c39 -23 104 -73
144 -111 40 -38 76 -69 81 -69 12 1 89 69 83 73 -2 2 -29 24 -60 49 l-56 45
52 77 c61 88 112 182 104 190 -3 4 -19 1 -35 -4 -17 -6 -67 -8 -115 -5 -46 3
-94 6 -106 6 -13 1 -20 6 -17 11 4 6 8 20 9 32 1 11 3 24 4 27 1 8 14 9 146
12 55 1 114 -1 131 -5 31 -7 32 -6 36 30 7 59 0 73 -31 64 -14 -4 -71 -6 -126
-5 -156 3 -148 2 -140 27 4 11 8 32 8 46 l0 25 119 0 c104 0 119 2 124 18 15
47 -24 102 -58 81 -6 -4 -46 -8 -88 -8 l-76 -1 3 32 c1 18 9 46 18 64 20 38
15 44 -35 42 -22 -1 -40 2 -40 8 0 5 -9 9 -20 9 -22 0 -23 -6 -24 -95 l-1 -60
-40 1 c-22 0 -50 4 -63 8 -14 5 -29 3 -37 -4 -8 -7 -15 -8 -15 -3 0 6 -35 10
-85 9 -47 -1 -85 0 -85 2 0 10 31 61 44 71 30 25 16 46 -39 57 -5 1 -22 5 -36
9 -15 4 -29 3 -32 -2z m281 -249 c20 -4 48 -2 62 3 26 10 26 9 24 -31 -2 -23
-3 -46 -3 -53 -1 -8 -16 -10 -48 -7 -105 11 -107 10 -106 -41 1 -37 -8 -42
-68 -43 -24 0 -26 4 -22 27 2 14 6 44 8 66 4 41 4 41 -42 54 -42 13 -47 13
-59 -4 -7 -10 -10 -23 -7 -28 6 -10 9 -26 15 -87 3 -23 0 -25 -39 -26 -24 0
-43 2 -43 6 0 3 15 44 34 91 l34 84 53 9 c34 5 66 4 90 -3 39 -12 68 -7 70 13
1 6 3 3 6 -6 3 -11 19 -20 41 -24z"/>
</g>
</svg>
