<?xml version="1.0" standalone="no"?>
<!DOCTYPE svg PUBLIC "-//W3C//DTD SVG 20010904//EN"
 "http://www.w3.org/TR/2001/REC-SVG-20010904/DTD/svg10.dtd">
<svg version="1.0" xmlns="http://www.w3.org/2000/svg"
 width="101.000000pt" height="101.000000pt" viewBox="0 0 101.000000 101.000000"
 preserveAspectRatio="xMidYMid meet">
<metadata>
Created by potrace 1.16, written by Peter Selinger 2001-2019
</metadata>
<g transform="translate(0.000000,101.000000) scale(0.100000,-0.100000)"
fill="#000000" stroke="none">
<path d="M213 988 c-4 -13 -8 -27 -9 -33 -1 -5 -3 -12 -4 -15 -2 -4 -8 -36
-12 -66 -1 -11 -104 -12 -115 -1 -3 4 -14 2 -24 -4 -21 -11 -25 -49 -8 -81 10
-18 17 -19 66 -13 54 7 55 6 48 -17 -16 -56 -75 -167 -94 -178 -18 -9 -19 -14
-10 -31 6 -12 8 -23 5 -26 -3 -3 -1 -14 4 -23 10 -18 32 -19 110 -5 67 12 75
11 77 -15 9 -82 8 -83 -12 -85 -11 -1 -39 -8 -63 -15 -31 -10 -48 -10 -66 -2
-13 6 -33 8 -45 5 -20 -5 -22 -17 -12 -96 1 -8 48 -4 116 9 71 13 83 12 85
-10 4 -47 2 -119 -4 -155 -7 -44 5 -52 62 -43 24 3 32 9 32 24 0 19 2 19 44
-6 l45 -26 35 43 c20 24 45 65 57 91 27 63 58 176 52 192 -2 7 5 12 19 13 13
0 57 3 98 6 41 3 89 3 106 0 26 -4 31 -10 31 -35 0 -17 3 -33 7 -37 7 -7 74
-8 82 -1 7 7 15 320 9 349 l-6 27 -99 -1 -99 -2 2 40 2 40 113 -1 c111 -2 112
-2 118 22 3 13 3 35 0 48 -6 23 -8 24 -113 22 l-108 -1 2 30 c2 17 6 42 9 58
l6 27 -60 0 -60 0 1 -142 2 -143 -72 2 c-70 2 -73 1 -79 -23 -3 -13 -3 -37 0
-52 4 -15 8 -39 10 -53 1 -14 6 -31 10 -38 4 -6 1 -27 -8 -46 -13 -27 -14 -38
-4 -60 9 -21 9 -31 0 -46 -7 -10 -15 -36 -18 -56 -8 -60 -52 -140 -97 -178
l-42 -36 -8 53 c-5 32 -4 62 2 75 6 13 8 30 5 38 -4 9 0 16 7 16 8 1 21 3 29
3 30 3 80 18 81 24 3 21 8 82 6 82 -1 0 -22 -6 -47 -13 -71 -21 -85 -17 -82
18 1 17 3 40 3 52 1 20 5 21 64 18 61 -3 63 -2 68 22 10 54 1 62 -67 58 -70
-4 -71 -2 -47 84 14 50 10 55 -47 66 -21 4 -39 2 -46 -5 -6 -6 -11 -42 -11
-80 l0 -69 -41 1 -41 2 45 103 46 103 65 0 c36 0 83 -4 104 -9 34 -8 38 -7 43
15 3 13 3 35 0 49 -6 24 -8 24 -96 22 -55 -1 -90 2 -90 8 0 6 11 30 25 54 14
23 25 47 25 51 0 7 -75 30 -99 30 -5 0 -13 -10 -18 -22z m613 -423 l1 -75 -31
-5 c-17 -3 -62 -3 -101 0 -38 3 -81 6 -94 6 -22 1 -23 3 -17 52 3 29 6 60 6
69 0 18 17 21 155 25 l80 3 1 -75z"/>
</g>
</svg>
