<?xml version="1.0" standalone="no"?>
<!DOCTYPE svg PUBLIC "-//W3C//DTD SVG 20010904//EN"
 "http://www.w3.org/TR/2001/REC-SVG-20010904/DTD/svg10.dtd">
<svg version="1.0" xmlns="http://www.w3.org/2000/svg"
 width="101.000000pt" height="102.000000pt" viewBox="0 0 101.000000 102.000000"
 preserveAspectRatio="xMidYMid meet">
<metadata>
Created by potrace 1.16, written by Peter Selinger 2001-2019
</metadata>
<g transform="translate(0.000000,102.000000) scale(0.100000,-0.100000)"
fill="#000000" stroke="none">
<path d="M177 993 c-3 -15 -5 -37 -6 -48 0 -11 -3 -29 -5 -40 -2 -11 -5 -22
-5 -25 -1 -3 -28 -3 -61 -2 -57 4 -59 3 -66 -24 -11 -41 7 -78 38 -82 15 -2
37 2 49 9 19 10 21 9 16 -4 -3 -9 -11 -35 -17 -59 -14 -49 -45 -115 -67 -140
-22 -25 -9 -84 19 -91 12 -3 29 -2 39 4 10 5 43 6 72 3 47 -6 55 -10 56 -28 0
-11 2 -36 3 -55 3 -34 2 -35 -52 -49 -40 -10 -63 -11 -82 -4 -61 22 -73 1 -53
-86 6 -27 11 -31 29 -26 11 4 32 9 46 11 38 6 62 11 89 19 20 6 23 4 18 -9 -3
-8 -1 -29 5 -45 9 -23 8 -38 -5 -70 -18 -45 -14 -71 12 -74 33 -3 76 4 82 13
3 6 -1 36 -9 67 -11 43 -12 64 -4 85 6 16 8 35 6 42 -4 9 1 14 13 14 32 0 75
9 84 18 12 12 23 93 13 93 -5 0 -33 -7 -62 -14 -47 -13 -54 -13 -59 0 -3 9 -1
26 5 40 6 13 9 30 6 38 -5 14 -1 15 73 18 25 1 32 6 36 25 7 38 -3 63 -27 65
-33 2 -40 1 -64 -6 -22 -7 -23 -6 -17 50 3 31 10 62 15 69 12 15 -27 32 -78
34 l-33 1 6 -52 c13 -111 16 -103 -37 -104 l-47 -1 31 81 c16 45 35 96 41 114
9 29 14 32 53 32 23 0 55 -7 70 -15 53 -28 87 -18 98 28 14 58 5 64 -93 63
l-89 -1 4 25 c3 14 14 37 24 52 11 15 20 30 20 33 0 9 -52 27 -92 32 -33 4
-36 2 -41 -24z"/>
<path d="M636 1004 c-3 -9 -4 -20 -1 -24 3 -5 8 -45 10 -88 l5 -80 -95 3 c-93
3 -95 2 -101 -21 -4 -14 -3 -37 0 -52 18 -73 20 -119 16 -337 -1 -33 2 -77 5
-97 5 -24 1 -54 -9 -84 -11 -34 -13 -51 -5 -65 5 -11 7 -28 4 -38 -7 -22 16
-30 61 -24 30 5 31 6 28 53 -2 43 0 48 19 49 12 0 56 3 97 6 101 8 160 -1 158
-23 -6 -78 7 -94 70 -84 l31 4 1 332 c1 182 2 342 3 356 l2 25 -102 0 -102 0
4 69 c3 46 10 74 21 87 10 11 15 21 13 23 -33 29 -123 36 -133 10z m8 -372 c7
-96 1 -112 -39 -94 -13 6 -32 9 -40 6 -13 -5 -15 8 -12 87 l2 94 41 -3 41 -4
7 -86z m152 88 c32 0 34 -2 34 -35 0 -20 5 -35 11 -35 14 0 5 -98 -11 -114 -7
-7 -20 -7 -41 1 -17 7 -36 10 -42 7 -9 -3 -12 22 -12 91 0 75 3 94 13 90 8 -3
29 -5 48 -5z m-150 -275 c0 -11 3 -31 7 -45 4 -14 3 -47 -1 -75 -7 -46 -10
-50 -32 -47 -14 2 -35 3 -46 4 -18 0 -22 8 -28 55 -4 30 -2 62 4 73 5 10 7 26
3 35 -5 14 -2 16 13 11 10 -3 26 -1 34 4 22 15 45 7 46 -15z m190 0 c0 -11 3
-31 7 -45 4 -14 3 -47 -1 -75 -7 -48 -9 -50 -37 -47 -17 1 -40 3 -51 3 -18 1
-22 9 -28 56 -4 30 -2 62 4 73 5 10 7 26 3 35 -5 14 -2 16 13 11 10 -3 26 -1
34 4 24 16 55 7 56 -15z"/>
</g>
</svg>
