<?xml version="1.0" standalone="no"?>
<!DOCTYPE svg PUBLIC "-//W3C//DTD SVG 20010904//EN"
 "http://www.w3.org/TR/2001/REC-SVG-20010904/DTD/svg10.dtd">
<svg version="1.0" xmlns="http://www.w3.org/2000/svg"
 width="101.000000pt" height="101.000000pt" viewBox="0 0 101.000000 101.000000"
 preserveAspectRatio="xMidYMid meet">
<metadata>
Created by potrace 1.16, written by Peter Selinger 2001-2019
</metadata>
<g transform="translate(0.000000,101.000000) scale(0.100000,-0.100000)"
fill="#000000" stroke="none">
<path d="M215 990 c-3 -11 -9 -32 -11 -47 -3 -15 -10 -33 -15 -40 -6 -7 -8
-16 -5 -21 6 -9 -47 -7 -64 3 -6 3 -24 4 -40 0 -33 -7 -47 -38 -35 -75 6 -18
13 -20 61 -17 52 4 54 3 48 -17 -17 -54 -65 -148 -88 -171 -24 -24 -25 -28
-14 -75 11 -47 12 -48 42 -44 17 3 45 7 61 9 17 2 46 6 66 8 32 5 37 3 37 -16
0 -12 4 -34 7 -50 10 -36 -10 -60 -44 -54 -14 3 -41 -2 -59 -10 -25 -12 -39
-13 -56 -5 -13 6 -34 8 -45 5 -17 -4 -20 -10 -14 -27 3 -11 7 -32 8 -46 2 -14
3 -28 4 -32 0 -3 33 2 73 12 39 11 75 17 80 14 4 -3 17 0 29 7 19 10 21 9 16
-5 -4 -9 -1 -27 5 -41 8 -18 8 -28 -1 -39 -7 -8 -14 -39 -16 -69 -3 -61 4 -68
61 -60 l30 5 2 91 c1 129 2 136 21 136 30 1 93 9 97 14 2 2 6 23 8 46 l3 43
-36 -7 c-20 -4 -49 -8 -66 -9 -28 -1 -30 1 -27 29 1 17 3 40 3 52 1 20 6 21
55 18 58 -3 61 0 55 60 -2 20 -20 37 -32 29 -4 -2 -23 -6 -42 -8 l-36 -5 4 66
c2 36 6 68 9 71 12 11 5 18 -29 31 -19 7 -44 10 -54 6 -23 -7 -36 -56 -23 -82
5 -10 8 -36 8 -58 -1 -37 -3 -40 -26 -37 -14 2 -35 3 -48 4 -14 0 -21 5 -19
12 3 6 23 54 46 106 l41 95 70 0 c38 0 72 -4 76 -8 4 -4 17 -7 29 -7 15 0 24
-9 30 -32 9 -29 14 -33 40 -31 17 2 57 4 90 5 l60 3 3 -82 3 -82 -35 -6 c-18
-4 -43 -2 -53 4 -42 22 -85 -17 -63 -58 5 -9 7 -59 4 -111 -13 -307 -16 -291
56 -283 35 5 35 6 34 48 -1 37 1 43 20 44 11 1 46 3 76 6 30 2 69 2 87 -1 30
-4 31 -6 28 -48 -3 -50 5 -56 68 -48 l37 4 -6 47 c-7 56 -9 324 -2 368 l5 33
-56 -1 c-105 0 -111 1 -111 26 0 12 3 49 6 81 l6 59 99 -1 c108 -1 117 5 103
60 -6 27 -51 44 -78 29 -8 -4 -44 -6 -80 -5 l-66 4 0 38 c0 21 5 42 10 45 6 4
10 18 9 33 -1 15 2 35 6 45 8 18 9 18 -72 21 l-43 1 3 -100 2 -100 -63 -3
c-45 -2 -67 1 -78 12 -8 8 -20 13 -27 10 -8 -3 -12 7 -13 27 -1 36 -20 52 -49
42 -22 -8 -114 -5 -127 3 -5 3 3 25 17 49 14 24 25 46 25 48 0 5 -81 27 -99
27 -5 0 -12 -9 -16 -20z m566 -506 c29 -6 29 -4 32 -121 1 -39 -2 -75 -6 -80
-7 -7 -115 -8 -194 -2 -26 1 -33 30 -27 104 2 28 4 60 5 73 1 16 6 21 18 18 9
-3 23 -1 31 4 15 9 97 12 141 4z"/>
</g>
</svg>
