<?xml version="1.0" standalone="no"?>
<!DOCTYPE svg PUBLIC "-//W3C//DTD SVG 20010904//EN"
 "http://www.w3.org/TR/2001/REC-SVG-20010904/DTD/svg10.dtd">
<svg version="1.0" xmlns="http://www.w3.org/2000/svg"
 width="101.000000pt" height="102.000000pt" viewBox="0 0 101.000000 102.000000"
 preserveAspectRatio="xMidYMid meet">
<metadata>
Created by potrace 1.16, written by Peter Selinger 2001-2019
</metadata>
<g transform="translate(0.000000,102.000000) scale(0.100000,-0.100000)"
fill="#000000" stroke="none">
<path d="M194 983 c-4 -21 -9 -45 -10 -53 -10 -56 -7 -54 -71 -51 -53 2 -62 0
-68 -17 -11 -37 5 -70 36 -77 16 -4 37 -4 48 0 20 6 20 6 2 -48 -25 -71 -44
-108 -70 -131 -17 -15 -20 -27 -16 -50 13 -64 12 -63 74 -65 32 -1 69 3 82 8
24 8 24 8 24 -48 l0 -56 -80 3 c-106 4 -125 -8 -105 -67 15 -46 3 -43 120 -26
14 2 35 6 46 10 25 8 25 9 26 -127 1 -94 6 -101 63 -90 23 4 26 8 19 31 -7 22
-8 102 -3 179 1 21 13 26 51 23 19 -2 77 25 79 37 2 16 7 72 5 72 0 0 -21 -6
-46 -13 -62 -18 -80 -13 -80 26 0 18 -3 42 -6 55 -5 17 -2 22 14 22 11 0 25
-7 33 -16 9 -11 22 -14 41 -10 23 4 36 -1 67 -29 l38 -34 44 31 c24 17 76 62
115 100 40 37 79 68 88 68 28 0 17 17 -30 49 l-47 30 -27 -37 c-15 -20 -45
-54 -66 -74 -53 -50 -181 -113 -159 -78 4 6 4 24 0 40 -6 28 -8 29 -61 27
l-54 -2 5 53 c2 30 10 60 16 69 10 12 10 16 -1 23 -8 5 -18 7 -22 4 -4 -3 -17
0 -28 6 -14 8 -26 8 -41 -1 -20 -10 -21 -16 -15 -89 l7 -78 -39 1 c-30 2 -38
5 -34 17 37 97 81 184 93 182 7 -2 55 0 106 3 100 8 111 15 98 68 -7 25 -8 25
-100 24 l-93 -2 16 40 c8 22 22 48 30 58 20 22 10 31 -33 30 -19 -1 -35 3 -35
8 0 5 -8 9 -19 9 -14 0 -21 -10 -27 -37z"/>
<path d="M627 957 c-31 -98 -129 -224 -214 -274 -24 -14 -43 -28 -43 -31 0 -4
21 -19 45 -34 l45 -27 32 27 c39 33 136 155 163 205 11 20 22 37 25 36 3 0 18
-28 34 -62 20 -42 53 -85 103 -134 41 -40 78 -73 83 -73 10 0 79 70 79 80 0 3
-27 21 -61 40 -33 19 -78 55 -99 79 -47 53 -92 142 -78 156 19 19 8 34 -38 49
-26 9 -49 16 -53 16 -3 0 -14 -24 -23 -53z"/>
<path d="M725 522 c-61 -67 -149 -126 -224 -149 -31 -9 -57 -18 -59 -19 -1 -1
10 -20 25 -43 21 -33 31 -40 47 -35 45 13 149 78 222 137 42 34 87 68 100 75
13 7 24 17 24 22 0 9 -71 71 -80 69 -3 -1 -27 -26 -55 -57z"/>
<path d="M795 366 c-41 -41 -88 -75 -140 -103 -97 -49 -128 -60 -230 -79 -16
-3 -31 -7 -34 -9 -2 -2 10 -20 27 -39 16 -19 31 -39 34 -46 2 -8 22 -6 68 10
89 30 199 89 305 166 50 35 95 64 102 64 27 0 20 20 -19 59 -24 23 -45 40 -48
40 -3 -1 -32 -29 -65 -63z"/>
</g>
</svg>
