<?xml version="1.0" standalone="no"?>
<!DOCTYPE svg PUBLIC "-//W3C//DTD SVG 20010904//EN"
 "http://www.w3.org/TR/2001/REC-SVG-20010904/DTD/svg10.dtd">
<svg version="1.0" xmlns="http://www.w3.org/2000/svg"
 width="101.000000pt" height="102.000000pt" viewBox="0 0 101.000000 102.000000"
 preserveAspectRatio="xMidYMid meet">
<metadata>
Created by potrace 1.16, written by Peter Selinger 2001-2019
</metadata>
<g transform="translate(0.000000,102.000000) scale(0.100000,-0.100000)"
fill="#000000" stroke="none">
<path d="M185 993 c-4 -15 -9 -43 -12 -62 -2 -19 -8 -42 -13 -51 -5 -10 -7
-20 -5 -22 3 -3 -14 -2 -37 1 -67 10 -73 7 -73 -47 l1 -47 42 0 c23 0 42 -3
42 -6 0 -17 -46 -118 -67 -146 -21 -30 -23 -37 -13 -73 l11 -41 66 6 c36 3 70
8 76 12 6 4 8 0 4 -10 -3 -8 -1 -29 6 -46 19 -52 6 -58 -161 -70 -9 -1 -12
-12 -8 -38 6 -50 16 -74 27 -67 6 3 38 14 73 24 l64 18 1 -22 c5 -67 3 -155
-3 -182 -9 -36 6 -45 62 -36 27 4 31 7 26 27 -3 13 -1 33 6 44 8 17 7 29 -6
56 -11 24 -14 43 -8 62 4 16 8 37 8 47 1 16 9 21 40 23 21 1 43 6 48 11 9 9
23 92 16 92 -2 0 -25 -7 -52 -15 -58 -18 -76 -9 -58 30 6 13 9 31 6 39 -4 12
4 14 39 11 41 -2 46 0 50 22 9 50 -2 64 -44 59 l-39 -5 5 57 c5 57 5 58 -25
69 -16 6 -38 9 -49 6 -23 -6 -34 -39 -20 -65 6 -11 9 -29 7 -41 -2 -17 -10
-22 -36 -23 -37 -2 -38 -9 7 106 l28 75 56 -2 c31 -1 60 -4 64 -6 17 -11 36
12 42 49 9 57 27 52 22 -7 -2 -29 2 -56 8 -62 13 -13 15 -54 2 -61 -12 -8 -13
-114 -1 -121 11 -7 12 -113 2 -190 -7 -47 -9 -50 -44 -58 -38 -9 -38 -9 -23
-37 8 -16 15 -37 15 -46 0 -20 15 -17 115 21 97 37 122 39 124 12 5 -75 5 -96
-2 -133 -9 -47 2 -55 62 -46 30 4 32 7 25 31 -7 22 -8 104 -3 178 1 15 10 24
30 28 20 5 29 13 29 26 0 10 4 19 8 19 8 0 10 -12 16 -125 2 -33 4 -65 4 -72
3 -19 61 -34 84 -22 11 6 30 8 43 5 31 -8 61 19 77 69 18 55 14 67 -38 91 -48
23 -45 25 -48 -40 -1 -21 -7 -30 -23 -32 -20 -3 -22 1 -27 79 -3 45 -4 107 -1
137 2 30 4 63 4 73 -2 89 6 215 15 242 5 17 0 23 -26 33 -67 24 -100 -16 -84
-101 15 -75 17 -96 22 -179 4 -66 1 -95 -10 -115 -12 -22 -15 -24 -16 -9 0 18
-2 18 -46 0 -8 -4 -10 62 -10 221 l1 225 43 0 c24 0 42 5 42 11 0 13 95 2 121
-14 22 -14 66 -1 74 22 16 51 -23 94 -65 71 -13 -7 -49 -9 -104 -4 -58 4 -85
3 -90 -5 -9 -14 -53 -15 -61 -1 -4 6 -53 10 -124 9 -65 -1 -123 1 -129 5 -7 4
-21 2 -33 -4 -16 -9 -20 -19 -17 -44 2 -18 -1 -33 -7 -34 -95 -10 -96 -10 -89
12 3 11 17 41 30 65 13 24 22 47 19 51 -3 4 -21 11 -41 14 -19 4 -41 9 -48 12
-8 3 -16 -6 -21 -23z m410 -199 l0 -60 -52 0 -52 1 2 60 2 60 50 0 50 0 0 -61z
m2 -144 c1 -14 5 -39 8 -56 9 -39 -13 -60 -52 -48 -16 4 -37 8 -48 8 -17 1
-20 7 -17 36 1 19 3 45 3 58 1 16 6 21 18 18 9 -3 23 -1 31 4 26 17 55 7 57
-20z m0 -190 c9 -90 13 -82 -49 -101 l-58 -17 -6 33 c-3 18 -1 42 5 53 6 11 8
28 4 37 -5 14 -2 16 13 11 10 -3 26 -1 34 4 26 17 55 7 57 -20z"/>
</g>
</svg>
