<?xml version="1.0" standalone="no"?>
<!DOCTYPE svg PUBLIC "-//W3C//DTD SVG 20010904//EN"
 "http://www.w3.org/TR/2001/REC-SVG-20010904/DTD/svg10.dtd">
<svg version="1.0" xmlns="http://www.w3.org/2000/svg"
 width="101.000000pt" height="102.000000pt" viewBox="0 0 101.000000 102.000000"
 preserveAspectRatio="xMidYMid meet">
<metadata>
Created by potrace 1.16, written by Peter Selinger 2001-2019
</metadata>
<g transform="translate(0.000000,102.000000) scale(0.100000,-0.100000)"
fill="#000000" stroke="none">
<path d="M177 993 c-3 -15 -6 -35 -6 -43 0 -8 -2 -24 -5 -35 -2 -11 -5 -24 -5
-29 -1 -5 -22 -6 -47 -2 -57 7 -84 -6 -84 -42 0 -15 4 -32 8 -39 12 -19 58
-26 83 -13 18 10 21 10 17 -1 -3 -8 -15 -44 -27 -81 -12 -36 -32 -77 -44 -90
-13 -13 -22 -27 -21 -33 10 -68 23 -84 59 -75 6 1 31 4 56 7 43 3 47 2 47 -19
0 -13 4 -35 7 -50 6 -22 3 -29 -11 -34 -11 -3 -29 -11 -42 -17 -17 -8 -31 -8
-52 0 -27 10 -70 8 -70 -4 0 -2 5 -25 11 -49 l12 -46 36 7 c20 4 45 9 56 10
11 2 27 6 36 10 13 5 17 0 18 -22 4 -71 1 -132 -8 -155 -14 -37 1 -53 50 -51
23 1 44 4 47 7 2 3 0 25 -6 48 -6 24 -9 66 -7 93 3 28 5 60 6 73 1 16 6 22 15
18 24 -9 64 12 64 34 0 24 13 19 65 -23 l29 -25 -26 -35 c-24 -30 -96 -86
-131 -101 -8 -3 -5 -9 8 -17 10 -7 30 -23 44 -37 l24 -24 75 78 74 79 28 -33
27 -32 37 32 37 33 -44 35 c-50 40 -50 40 -13 164 14 48 26 90 26 91 0 2 -36
1 -81 -1 -47 -2 -89 1 -101 7 -20 11 -18 14 37 66 l57 55 32 -31 31 -30 39 32
39 33 -50 32 -50 32 24 61 c13 33 26 70 28 81 6 29 12 33 19 10 9 -26 38 -33
104 -25 32 3 52 2 52 -4 0 -10 -20 -75 -25 -81 -2 -2 -25 9 -53 25 l-50 28
-26 -24 c-27 -26 -33 -41 -16 -41 6 0 30 -13 55 -28 42 -26 44 -29 30 -48 -7
-12 -39 -38 -69 -59 -31 -21 -56 -40 -56 -42 0 -2 19 -13 43 -24 23 -11 32
-18 20 -15 -23 4 -29 -8 -24 -44 1 -8 4 -34 6 -57 2 -22 16 -76 30 -118 27
-76 27 -78 8 -96 -10 -11 -51 -36 -90 -57 l-71 -37 38 -37 37 -37 59 40 c33
23 69 50 81 61 l22 20 43 -35 c24 -19 58 -44 77 -55 l34 -21 29 45 c32 51 35
64 12 64 -21 0 -125 52 -130 65 -3 6 7 38 22 71 15 32 39 95 54 140 l28 80
-92 1 c-154 2 -146 -3 -85 60 l54 54 43 -47 43 -47 36 36 36 36 -34 28 c-18
15 -43 37 -56 48 l-22 20 34 98 c19 55 35 105 35 112 0 10 -29 13 -130 13 -99
-1 -130 -4 -130 -14 0 -7 -4 -15 -9 -18 -5 -4 -7 2 -4 13 4 15 -3 19 -37 25
-23 3 -46 4 -52 0 -13 -9 -87 -8 -120 1 -37 10 -68 -10 -68 -43 0 -47 9 -51
91 -47 75 5 76 4 74 -19 -2 -13 -6 -34 -10 -46 l-7 -21 -33 25 c-42 32 -45 32
-79 -3 l-27 -28 45 -27 c25 -15 46 -31 46 -36 0 -13 -90 -80 -117 -86 -22 -6
-33 -24 -14 -24 4 0 26 -14 47 -32 22 -17 31 -28 21 -25 -10 4 -23 7 -28 7 -5
0 -9 6 -9 14 0 20 -26 27 -56 16 -14 -6 -23 -7 -21 -2 3 4 8 35 11 69 7 70 -3
83 -64 83 -25 0 -31 3 -26 16 3 9 6 19 6 22 0 4 33 6 74 5 82 -2 94 7 81 60
-6 21 -14 26 -61 32 -61 7 -69 23 -34 68 11 14 20 28 20 31 0 3 -19 10 -42 16
-24 6 -50 13 -60 16 -12 3 -18 -3 -21 -23z m27 -344 l7 -56 -30 0 c-17 0 -31
1 -31 3 0 7 43 114 45 112 1 -2 6 -28 9 -59z m169 -138 c4 0 7 -8 7 -16 0 -14
17 -20 50 -17 8 1 34 4 58 6 41 5 42 4 36 -22 -4 -15 -11 -37 -15 -50 l-9 -23
-40 32 -40 32 -25 -23 c-21 -20 -25 -21 -25 -6 0 14 -5 16 -22 10 -47 -15 -63
-11 -60 16 2 14 3 34 4 46 0 18 6 21 37 19 20 -1 39 -3 44 -4z m433 -48 c-7
-34 -39 -113 -47 -113 -5 0 -39 116 -39 132 0 2 20 5 45 6 44 2 45 1 41 -25z"/>
</g>
</svg>
