<?xml version="1.0" standalone="no"?>
<!DOCTYPE svg PUBLIC "-//W3C//DTD SVG 20010904//EN"
 "http://www.w3.org/TR/2001/REC-SVG-20010904/DTD/svg10.dtd">
<svg version="1.0" xmlns="http://www.w3.org/2000/svg"
 width="101.000000pt" height="102.000000pt" viewBox="0 0 101.000000 102.000000"
 preserveAspectRatio="xMidYMid meet">
<metadata>
Created by potrace 1.16, written by Peter Selinger 2001-2019
</metadata>
<g transform="translate(0.000000,102.000000) scale(0.100000,-0.100000)"
fill="#000000" stroke="none">
<path d="M228 960 c3 -39 0 -60 -7 -60 -6 0 -11 -18 -11 -40 0 -22 5 -40 10
-40 11 0 12 -67 1 -115 -7 -33 -4 -32 -107 -20 -46 5 -52 3 -57 -15 -13 -49 5
-66 67 -61 23 2 27 -1 23 -13 -4 -9 -1 -28 5 -42 9 -19 9 -33 -2 -62 -7 -20
-15 -50 -17 -67 -2 -16 -8 -46 -14 -65 -12 -38 -69 -130 -81 -130 -14 0 -8
-20 18 -62 l27 -42 24 30 c53 64 104 195 109 279 2 22 6 60 10 85 3 25 6 55 6
66 0 16 6 21 23 20 21 -1 23 -4 19 -56 -5 -64 -5 -66 0 -145 4 -44 0 -71 -15
-103 l-19 -44 26 -34 c15 -19 30 -34 34 -34 4 0 29 28 56 61 40 50 50 58 52
41 4 -23 37 -35 61 -23 18 10 113 13 154 5 18 -4 27 -11 23 -19 -3 -8 0 -27 6
-43 9 -23 8 -38 -5 -69 -20 -52 -10 -68 44 -66 23 1 43 4 45 6 3 2 -1 28 -7
57 -8 38 -8 59 0 76 6 13 8 30 5 38 -6 16 1 17 128 18 75 1 87 4 91 20 3 10 3
26 0 36 -4 16 -16 19 -86 20 -132 1 -142 3 -139 32 2 14 3 35 4 46 0 24 8 26
109 25 59 -1 67 1 72 19 3 11 3 29 0 41 -5 18 -10 20 -37 13 -28 -7 -58 -7
-122 -3 -19 1 -21 7 -20 52 1 47 -1 51 -26 58 -54 14 -67 3 -65 -59 2 -55 1
-57 -23 -54 -14 2 -35 3 -47 4 -20 0 -19 5 23 67 51 76 41 72 217 74 114 1
118 2 123 24 12 46 3 50 -126 58 l-121 7 26 33 c32 43 32 49 -8 63 -43 15 -67
15 -71 0 -3 -7 -12 -35 -22 -61 l-17 -48 -43 7 c-82 12 -126 -14 -109 -65 7
-23 42 -33 67 -20 11 6 26 8 34 5 12 -4 11 -11 -5 -37 -24 -39 -79 -99 -91
-99 -13 0 -17 -33 -7 -57 11 -25 43 -36 68 -23 10 6 44 7 77 4 52 -6 60 -9 60
-28 0 -11 3 -31 7 -43 10 -31 -25 -43 -107 -37 -35 2 -73 5 -85 5 -14 1 -20 6
-16 15 5 13 -26 74 -38 74 -3 0 -19 -19 -35 -42 l-29 -41 -7 54 c-4 30 -5 65
-1 79 7 28 13 65 14 96 1 16 8 20 36 21 42 1 46 5 46 44 0 35 -19 52 -43 39
-10 -5 -36 -8 -59 -7 -37 1 -42 4 -37 22 3 11 6 24 6 29 0 4 6 6 13 3 57 -21
56 -22 87 45 16 35 32 77 36 95 6 30 4 33 -31 48 -21 8 -39 14 -41 12 -1 -1
-5 -16 -8 -32 -7 -40 -48 -155 -55 -155 -8 0 -4 209 4 236 7 22 -14 34 -60 34
-18 0 -20 -5 -17 -60z"/>
<path d="M461 960 c-5 -3 -7 -45 -7 -95 l1 -90 30 -3 c43 -3 55 9 58 59 l2 44
150 0 150 1 -1 -46 c-2 -48 7 -60 46 -60 41 0 47 11 54 91 6 64 5 79 -9 93
-12 12 -21 13 -35 6 -12 -7 -61 -8 -130 -4 -80 5 -110 4 -110 -4 0 -7 -15 -12
-35 -12 -19 0 -35 4 -35 9 0 10 -117 20 -129 11z"/>
<path d="M90 910 c-5 -3 -7 -17 -4 -30 6 -28 12 -66 17 -110 5 -40 9 -43 55
-35 34 5 40 10 40 33 0 15 -3 31 -6 37 -3 5 -7 19 -9 30 -10 71 -20 86 -54 83
-17 -1 -34 -5 -39 -8z"/>
</g>
</svg>
