<?xml version="1.0" standalone="no"?>
<!DOCTYPE svg PUBLIC "-//W3C//DTD SVG 20010904//EN"
 "http://www.w3.org/TR/2001/REC-SVG-20010904/DTD/svg10.dtd">
<svg version="1.0" xmlns="http://www.w3.org/2000/svg"
 width="101.000000pt" height="102.000000pt" viewBox="0 0 101.000000 102.000000"
 preserveAspectRatio="xMidYMid meet">
<metadata>
Created by potrace 1.16, written by Peter Selinger 2001-2019
</metadata>
<g transform="translate(0.000000,102.000000) scale(0.100000,-0.100000)"
fill="#000000" stroke="none">
<path d="M199 1008 c-4 -35 -17 -102 -25 -130 -5 -16 -39 -19 -62 -4 -6 4 -23
4 -37 0 -27 -7 -41 -39 -30 -73 7 -24 56 -37 84 -21 21 11 31 -3 12 -15 -6 -3
-9 -13 -9 -23 1 -27 -30 -103 -58 -144 -23 -33 -25 -40 -15 -71 13 -38 42 -52
73 -36 27 15 111 1 104 -17 -3 -8 0 -26 6 -39 18 -41 2 -48 -145 -60 -48 -4
-50 -6 -42 -47 11 -57 16 -61 66 -47 24 6 53 13 64 14 11 2 29 7 39 11 16 6
18 4 13 -10 -4 -10 -2 -26 4 -38 8 -15 7 -28 -6 -54 -12 -26 -13 -38 -5 -55 7
-11 9 -31 6 -44 -7 -25 14 -36 56 -28 23 4 24 7 25 106 2 144 3 149 19 143 15
-6 83 20 85 32 1 4 2 22 4 39 3 36 9 34 -77 18 -26 -5 -27 -4 -25 35 1 27 5
39 13 36 7 -3 26 0 43 7 38 14 62 -5 68 -55 13 -105 13 -206 0 -250 -25 -82
-8 -111 61 -100 31 4 32 6 28 42 -4 33 -2 38 17 39 12 0 51 3 87 6 36 3 93 3
127 -1 50 -4 62 -9 61 -22 -5 -68 8 -83 68 -75 l29 5 -3 101 c-5 164 -5 289 2
335 l5 43 -65 -7 c-85 -9 -305 -9 -368 0 -35 5 -52 3 -58 -6 -6 -10 -8 -9 -8
3 0 11 -9 16 -27 17 -80 3 -88 6 -85 32 4 41 9 74 13 88 5 15 -56 40 -83 34
-17 -3 -24 -23 -18 -47 1 -5 4 -31 7 -57 l4 -48 -44 2 -44 2 17 41 c9 22 27
69 38 105 l22 65 54 -2 c30 0 63 -4 74 -7 27 -9 52 18 52 54 0 35 -30 55 -63
43 -12 -4 -38 -8 -59 -8 l-36 0 14 35 c8 19 22 45 30 57 21 34 18 40 -30 52
-57 14 -66 14 -67 -1z m436 -568 c0 -44 -1 -45 -30 -42 -16 1 -40 3 -52 3 -19
1 -22 6 -20 40 1 30 5 38 17 34 8 -2 22 0 30 5 8 6 24 9 35 8 17 -3 20 -11 20
-48z m190 0 c0 -44 -1 -45 -30 -42 -16 1 -40 3 -52 3 -19 1 -22 6 -20 40 1 30
5 38 17 34 8 -2 22 0 30 5 8 6 24 9 35 8 17 -3 20 -11 20 -48z m-190 -160 c0
-44 -1 -45 -30 -42 -16 1 -40 3 -52 3 -19 1 -22 6 -20 40 1 30 5 38 17 34 8
-2 22 0 30 5 8 6 24 9 35 8 17 -3 20 -11 20 -48z m190 0 c0 -44 -1 -45 -30
-42 -16 1 -40 3 -52 3 -19 1 -22 6 -20 40 1 30 5 38 17 34 8 -2 22 0 30 5 8 6
24 9 35 8 17 -3 20 -11 20 -48z"/>
<path d="M911 960 c-7 -4 -41 -5 -76 -3 -40 4 -65 2 -69 -6 -9 -14 -53 -15
-61 -1 -4 6 -60 9 -148 8 l-142 -3 -3 -31 c-4 -43 21 -68 62 -60 17 3 81 6
143 6 64 0 115 4 118 10 9 15 86 12 119 -5 37 -19 71 -19 90 1 17 17 19 27 10
61 -7 25 -25 35 -43 23z"/>
<path d="M474 747 c-1 -46 -4 -93 -8 -103 -12 -41 15 -53 94 -39 85 15 206 15
253 1 63 -19 85 -11 77 29 -3 15 -3 139 0 150 10 41 8 41 -207 44 l-208 2 -1
-84z m322 -32 c-1 -31 -5 -36 -31 -40 -16 -3 -59 -3 -95 0 -36 3 -74 6 -86 6
-16 1 -19 7 -16 30 5 31 8 32 153 36 l75 3 0 -35z"/>
</g>
</svg>
