<?xml version="1.0" standalone="no"?>
<!DOCTYPE svg PUBLIC "-//W3C//DTD SVG 20010904//EN"
 "http://www.w3.org/TR/2001/REC-SVG-20010904/DTD/svg10.dtd">
<svg version="1.0" xmlns="http://www.w3.org/2000/svg"
 width="101.000000pt" height="101.000000pt" viewBox="0 0 101.000000 101.000000"
 preserveAspectRatio="xMidYMid meet">
<metadata>
Created by potrace 1.16, written by Peter Selinger 2001-2019
</metadata>
<g transform="translate(0.000000,101.000000) scale(0.100000,-0.100000)"
fill="#000000" stroke="none">
<path d="M174 978 c-4 -18 -9 -37 -10 -43 -6 -20 -12 -50 -13 -60 -1 -6 -24
-9 -56 -7 -51 4 -55 2 -61 -22 -3 -14 -3 -37 0 -51 6 -22 11 -24 46 -21 22 2
40 2 40 0 0 -18 -55 -143 -71 -160 -19 -21 -21 -63 -4 -106 7 -17 59 -19 84
-4 7 5 27 5 46 2 25 -5 33 -12 33 -29 0 -12 4 -34 7 -50 7 -24 4 -29 -31 -43
-21 -9 -48 -13 -63 -9 -14 3 -40 7 -58 9 -30 4 -31 3 -28 -27 1 -18 6 -45 10
-60 7 -26 11 -28 39 -22 109 24 128 26 122 8 -3 -8 -1 -23 4 -34 7 -12 8 -42
2 -83 -9 -72 -5 -77 56 -68 26 3 31 8 27 23 -8 25 11 24 52 0 l32 -20 30 47
c42 67 83 194 83 258 0 17 6 21 24 20 16 -1 22 -6 19 -14 -3 -7 0 -22 6 -33
15 -29 -6 -156 -32 -192 l-21 -28 26 -40 26 -39 80 63 c76 59 79 63 75 97 -2
19 -4 38 -5 43 0 15 -25 6 -50 -18 l-27 -26 -6 61 c-4 35 -3 70 3 80 5 10 7
25 4 34 -4 11 1 14 23 12 15 -2 28 -9 29 -17 0 -25 36 -123 57 -159 26 -46 95
-118 129 -136 26 -13 30 -12 72 18 25 18 45 36 45 39 1 3 -27 20 -62 37 -35
18 -71 40 -81 51 -17 19 -16 20 36 55 29 20 58 36 65 36 25 0 13 20 -27 45
-22 14 -42 25 -45 25 -3 0 -21 -18 -42 -40 -20 -23 -40 -37 -44 -33 -4 4 -12
25 -17 46 -9 33 -9 38 4 33 9 -3 24 -1 35 4 13 7 42 8 87 2 37 -5 68 -8 70 -7
6 5 6 84 0 90 -3 4 -15 1 -27 -7 -16 -10 -27 -10 -52 -1 -17 7 -36 10 -44 7
-9 -4 -13 4 -12 31 1 25 5 34 14 31 7 -3 25 0 39 6 20 9 30 9 46 -1 26 -16 29
-12 31 37 2 49 -5 57 -31 41 -16 -10 -26 -10 -46 -1 -14 6 -31 9 -38 7 -9 -4
-13 5 -13 25 0 28 2 30 40 31 22 1 49 0 59 -1 14 -1 17 2 12 17 -14 36 -19
113 -7 113 7 0 11 20 11 53 l0 52 -124 3 c-71 1 -127 -2 -131 -7 -7 -12 -172
-13 -180 -1 -10 16 -84 9 -89 -9 -8 -30 -5 -85 6 -98 6 -7 8 -33 6 -58 -4 -27
-2 -45 5 -45 13 0 3 -184 -12 -223 -7 -19 -7 -34 0 -50 8 -17 6 -30 -5 -52
-11 -20 -16 -24 -16 -12 0 14 -6 16 -32 11 -65 -13 -73 -11 -70 16 2 14 3 35
4 47 0 19 5 21 48 19 47 -3 48 -2 53 28 8 58 0 68 -52 63 l-47 -5 7 72 c4 39
3 75 -2 80 -4 5 -28 10 -51 10 l-43 1 1 -82 0 -82 -38 2 c-21 1 -38 2 -38 2 0
1 17 44 38 95 l38 94 86 -1 86 -1 6 33 c11 56 3 62 -79 60 l-73 -1 18 36 c10
20 26 42 34 49 25 21 19 29 -26 41 -24 6 -50 13 -60 16 -12 4 -18 -4 -24 -28z
m616 -102 c45 -1 45 -1 45 -38 l0 -37 -77 5 c-47 3 -79 1 -83 -6 -8 -13 -48
-13 -62 1 -6 6 -33 9 -60 8 l-48 -4 0 35 -1 35 72 -3 c42 -3 80 1 91 7 10 6
32 8 48 5 17 -3 50 -7 75 -8z m-224 -178 c-1 -30 -4 -33 -31 -34 -28 0 -31 2
-27 27 3 21 11 29 31 32 14 2 26 5 27 6 0 0 0 -14 0 -31z m160 -3 c-1 -28 -4
-30 -36 -30 -32 0 -35 2 -36 30 0 29 2 31 36 30 34 0 36 -2 36 -30z m-159
-150 c1 -31 -1 -33 -32 -32 -30 1 -33 3 -32 32 1 28 4 31 32 32 29 1 31 -2 32
-32z m160 0 c1 -33 0 -34 -37 -32 -36 1 -38 3 -37 32 1 28 4 31 37 32 34 2 36
0 37 -32z m-347 -247 c-20 -65 -56 -128 -76 -135 -16 -5 -28 81 -15 106 6 11
8 26 5 35 -4 10 0 15 13 14 36 -2 73 21 73 44 0 15 3 19 10 12 7 -7 4 -31 -10
-76z"/>
</g>
</svg>
