<?xml version="1.0" standalone="no"?>
<!DOCTYPE svg PUBLIC "-//W3C//DTD SVG 20010904//EN"
 "http://www.w3.org/TR/2001/REC-SVG-20010904/DTD/svg10.dtd">
<svg version="1.0" xmlns="http://www.w3.org/2000/svg"
 width="101.000000pt" height="101.000000pt" viewBox="0 0 101.000000 101.000000"
 preserveAspectRatio="xMidYMid meet">
<metadata>
Created by potrace 1.16, written by Peter Selinger 2001-2019
</metadata>
<g transform="translate(0.000000,101.000000) scale(0.100000,-0.100000)"
fill="#000000" stroke="none">
<path d="M561 949 c-73 -126 -220 -245 -291 -234 -55 8 -62 -2 -58 -83 l3 -71
-37 2 c-21 1 -38 4 -38 7 0 4 17 53 38 111 l37 104 51 -1 c28 -1 57 -4 63 -8
19 -12 59 2 66 23 3 11 3 31 -1 45 -6 24 -8 25 -83 23 l-78 -2 14 34 c8 19 21
44 29 57 12 18 13 24 2 30 -18 12 -108 11 -110 -1 -5 -35 -9 -64 -12 -89 -3
-29 -4 -29 -62 -30 -49 -1 -59 -4 -62 -19 -11 -56 32 -92 78 -67 12 6 23 10
25 8 8 -8 -55 -173 -76 -201 -19 -26 -20 -34 -10 -68 l12 -39 47 6 c96 11 97
11 100 -16 7 -69 6 -95 -3 -95 -5 -1 -23 -4 -40 -8 -16 -4 -40 -9 -53 -12 -45
-8 -62 -16 -62 -29 0 -12 20 -76 24 -76 0 0 31 9 67 19 l67 19 1 -22 c5 -66 4
-95 -3 -132 -7 -36 -6 -42 11 -46 11 -3 33 -3 51 0 31 4 32 5 26 43 -6 36 -8
106 -4 156 2 23 16 31 68 38 l30 3 7 -93 c4 -51 4 -101 1 -112 -8 -24 16 -34
58 -26 24 5 25 7 18 52 -6 41 -6 61 -1 137 1 15 8 22 23 22 11 1 32 2 46 4 19
2 25 -2 26 -17 0 -11 4 -33 8 -48 9 -29 -2 -51 -27 -53 -48 -4 -46 -1 -29 -47
14 -38 19 -43 43 -42 52 3 76 28 81 87 3 29 3 73 1 98 -11 110 -4 283 11 309
4 7 5 22 2 35 -5 22 -10 23 -128 25 -67 1 -123 3 -124 4 -1 1 21 22 49 47 28
25 48 39 43 32 -4 -7 -5 -25 -1 -40 5 -24 10 -27 45 -27 22 -1 40 3 40 7 0 13
136 9 165 -4 33 -15 48 3 41 45 -3 15 -4 27 -2 27 2 0 34 -21 71 -46 l68 -45
38 43 c20 24 34 46 31 49 -4 4 -31 14 -60 24 -104 33 -251 159 -235 201 6 16
-34 34 -75 34 -22 -1 -33 -11 -61 -61z m100 -61 c7 -12 34 -46 61 -74 61 -64
56 -67 -98 -59 -60 2 -110 5 -112 5 -2 0 24 30 57 67 34 37 61 71 61 75 0 16
20 7 31 -14z m-305 -224 c30 -18 43 -31 40 -41 -3 -8 -7 -31 -7 -51 -1 -20 -3
-29 -6 -19 -4 16 -29 22 -73 19 -14 -1 -16 15 -11 101 1 22 4 22 57 -9z m210
-124 c-1 -31 -4 -35 -26 -32 -14 2 -35 3 -46 4 -18 0 -22 6 -21 32 1 30 2 31
47 31 l47 0 -1 -35z m-173 -92 c-4 -19 -15 -27 -50 -37 -56 -14 -72 -4 -55 34
6 13 9 32 6 40 -5 13 -2 14 19 6 32 -12 67 -3 68 18 0 9 4 4 9 -10 4 -15 6
-38 3 -51z m172 -43 c0 -37 -2 -40 -25 -37 -14 2 -35 3 -46 4 -18 0 -22 6 -21
34 1 26 5 33 16 29 9 -2 23 0 31 5 29 19 45 7 45 -35z"/>
<path d="M828 653 c-23 -6 -29 -47 -23 -168 9 -181 5 -287 -10 -297 -5 -4 -24
-5 -42 -2 l-32 6 21 -51 c24 -55 25 -56 81 -40 63 17 70 38 61 195 -5 111 -4
138 7 146 11 7 11 11 2 15 -15 6 -18 73 -3 73 6 0 10 25 10 55 0 43 -4 56 -19
65 -20 10 -25 11 -53 3z"/>
<path d="M691 622 c-13 -25 -13 -170 0 -178 10 -6 6 -105 -8 -160 -5 -24 19
-35 61 -27 20 4 25 10 21 24 -3 10 -2 26 4 36 6 12 4 37 -6 77 -9 35 -12 69
-7 85 4 14 9 35 10 46 1 11 5 36 8 56 5 31 3 37 -20 47 -35 17 -52 15 -63 -6z"/>
</g>
</svg>
