<?xml version="1.0" standalone="no"?>
<!DOCTYPE svg PUBLIC "-//W3C//DTD SVG 20010904//EN"
 "http://www.w3.org/TR/2001/REC-SVG-20010904/DTD/svg10.dtd">
<svg version="1.0" xmlns="http://www.w3.org/2000/svg"
 width="101.000000pt" height="102.000000pt" viewBox="0 0 101.000000 102.000000"
 preserveAspectRatio="xMidYMid meet">
<metadata>
Created by potrace 1.16, written by Peter Selinger 2001-2019
</metadata>
<g transform="translate(0.000000,102.000000) scale(0.100000,-0.100000)"
fill="#000000" stroke="none">
<path d="M176 988 c-3 -18 -5 -40 -5 -48 -1 -8 -3 -26 -5 -40 -2 -14 -5 -30
-5 -36 -1 -7 -21 -9 -56 -6 -52 4 -55 3 -65 -24 -6 -15 -9 -39 -5 -51 5 -21
11 -23 54 -20 27 1 47 -1 45 -5 -3 -5 -7 -19 -10 -33 -7 -39 -44 -118 -65
-141 -18 -20 -19 -26 -8 -62 11 -39 13 -40 48 -36 20 3 54 6 76 7 l40 2 1 -51
0 -51 -43 -13 c-32 -9 -51 -10 -68 -2 -21 10 -65 6 -65 -5 0 -2 5 -24 11 -49
l12 -45 41 6 c22 4 53 7 67 9 14 1 30 6 36 9 13 8 14 -5 15 -125 1 -94 6 -101
62 -91 20 4 25 10 21 24 -3 10 -1 27 5 39 8 16 7 28 -6 56 -13 28 -14 40 -6
59 6 14 9 31 6 39 -4 10 1 15 13 15 52 1 99 11 109 26 11 14 12 13 13 -7 0
-13 3 -57 6 -98 3 -42 0 -89 -6 -108 -14 -41 -9 -47 43 -45 43 2 61 17 52 44
-3 12 2 17 18 18 13 0 55 3 93 6 39 3 94 3 123 0 43 -5 52 -10 48 -23 -11 -34
12 -47 76 -44 l26 2 0 243 0 242 -177 2 c-97 1 -187 2 -201 3 -23 1 -22 3 15
26 22 13 39 30 37 36 -2 6 -26 40 -53 75 l-51 63 38 67 c20 38 48 82 61 100
l24 31 -51 17 c-29 10 -55 13 -60 9 -4 -5 -15 -34 -25 -64 -19 -59 -62 -150
-71 -150 -3 0 -3 4 1 10 3 5 3 19 0 32 -6 22 -11 23 -84 23 l-79 0 24 65 c33
89 34 85 -8 82 -23 -2 -38 1 -38 7 0 6 -9 11 -20 11 -14 0 -20 -9 -24 -32z
m200 -232 c33 -4 42 -13 89 -94 46 -79 46 -98 -2 -85 -14 3 -23 1 -23 -6 0 -7
-10 -5 -25 5 -17 11 -38 15 -64 11 l-38 -5 5 52 c2 28 9 59 14 69 7 14 3 19
-19 28 -15 6 -42 8 -60 4 -38 -7 -44 -24 -40 -100 3 -51 3 -51 -26 -47 -15 3
-26 9 -24 16 2 6 15 43 27 83 22 68 25 71 49 67 14 -3 37 -1 51 5 14 6 34 8
45 5 11 -4 29 -7 41 -8z m63 -323 c1 -18 -4 -22 -26 -22 -16 1 -47 -1 -70 -4
l-43 -6 2 45 2 44 41 1 c22 1 48 1 58 0 9 -1 18 4 18 11 2 17 16 -40 18 -69z
m186 49 c-2 -7 1 -23 7 -37 14 -32 -6 -60 -36 -50 -12 4 -32 8 -46 9 -20 1
-24 6 -22 26 2 14 3 34 4 45 0 17 7 20 49 20 36 0 48 -3 44 -13z m201 3 c-3
-8 0 -26 6 -40 16 -35 -5 -59 -46 -50 -17 3 -41 6 -53 7 -20 0 -22 5 -21 44 2
43 3 43 43 47 22 2 48 4 59 5 12 1 16 -3 12 -13z m-201 -170 c0 -11 4 -30 9
-43 10 -30 -10 -56 -38 -47 -12 4 -32 8 -46 9 -20 1 -24 6 -22 26 2 14 3 35 4
48 0 16 5 21 17 18 9 -3 23 -1 31 4 22 15 45 7 45 -15z m200 0 c0 -11 4 -30 9
-43 11 -34 -10 -55 -48 -47 -17 3 -42 7 -56 8 -20 2 -24 7 -22 27 2 14 3 35 4
48 0 16 5 21 17 18 9 -3 23 -1 31 4 25 17 65 8 65 -15z"/>
<path d="M665 973 c-5 -15 -9 -33 -11 -40 -3 -18 -50 -114 -70 -144 -16 -25
-15 -26 32 -90 27 -36 54 -73 59 -83 9 -15 14 -14 58 8 l47 24 -54 63 c-33 38
-53 69 -51 80 2 10 25 51 52 91 26 40 49 76 51 80 2 4 -15 12 -38 18 -23 6
-47 13 -54 16 -8 3 -17 -6 -21 -23z"/>
<path d="M827 937 c-9 -29 -32 -79 -52 -111 l-35 -58 46 -52 c26 -28 54 -66
62 -83 9 -18 19 -33 23 -33 7 0 75 36 88 47 3 2 -24 32 -59 68 l-63 64 42 65
c24 36 49 70 57 77 8 6 14 16 14 21 0 9 -76 47 -96 48 -6 0 -18 -24 -27 -53z"/>
</g>
</svg>
