<?xml version="1.0" standalone="no"?>
<!DOCTYPE svg PUBLIC "-//W3C//DTD SVG 20010904//EN"
 "http://www.w3.org/TR/2001/REC-SVG-20010904/DTD/svg10.dtd">
<svg version="1.0" xmlns="http://www.w3.org/2000/svg"
 width="101.000000pt" height="102.000000pt" viewBox="0 0 101.000000 102.000000"
 preserveAspectRatio="xMidYMid meet">
<metadata>
Created by potrace 1.16, written by Peter Selinger 2001-2019
</metadata>
<g transform="translate(0.000000,102.000000) scale(0.100000,-0.100000)"
fill="#000000" stroke="none">
<path d="M430 1010 c0 -5 5 -10 11 -10 6 0 9 -14 7 -32 l-3 -32 -155 1 c-85 2
-167 5 -182 8 -39 9 -68 -10 -68 -45 0 -31 25 -64 42 -54 6 4 86 7 179 8 165
1 168 1 172 -21 2 -13 -2 -24 -10 -27 -23 -9 -61 -7 -68 4 -3 5 -34 9 -68 8
-35 -1 -67 1 -73 4 -5 4 -16 3 -24 -2 -20 -13 -19 -188 1 -200 7 -5 17 -6 21
-4 5 3 55 7 111 10 l103 4 17 -34 16 -35 -62 -5 c-81 -8 -205 1 -264 19 -16 5
-24 1 -33 -15 -24 -45 16 -93 59 -71 19 10 124 13 165 4 l30 -5 -27 -15 c-32
-16 -33 -20 -6 -49 l20 -22 -45 -6 c-25 -4 -52 -4 -58 1 -7 4 -40 9 -73 10
-33 2 -70 3 -83 4 -13 1 -26 -2 -29 -5 -8 -8 -8 -64 0 -72 8 -8 42 -8 102 0
90 13 169 17 231 11 l60 -6 1 -34 c1 -31 -2 -35 -30 -40 -34 -6 -136 -1 -202
10 -50 9 -85 9 -92 1 -8 -8 -8 -64 0 -72 6 -7 27 -7 107 1 177 17 226 15 216
-11 -3 -8 0 -25 6 -39 8 -19 8 -28 -2 -40 -7 -8 -10 -19 -6 -22 7 -7 85 -7 92
0 7 7 8 73 1 93 -6 18 -4 22 15 23 13 0 59 3 104 6 55 4 93 1 120 -8 52 -18
111 -11 117 14 15 55 -27 77 -97 53 -29 -11 -66 -13 -131 -9 -49 3 -100 6
-111 6 -18 1 -22 7 -21 34 1 25 6 33 21 35 61 6 315 0 337 -8 40 -16 56 3 51
59 -3 23 -58 30 -104 13 -20 -7 -61 -11 -95 -8 -32 2 -69 4 -83 5 l-25 1 30
24 c17 13 34 24 39 24 4 0 6 7 2 15 -9 25 28 35 107 31 68 -4 76 -2 80 15 7
26 -2 57 -19 63 -7 3 -33 -1 -56 -10 -31 -11 -67 -13 -133 -9 -49 3 -100 5
-113 6 -14 1 -28 12 -37 29 l-14 27 108 7 c59 4 124 5 143 1 40 -8 53 8 42 52
-4 14 -7 52 -8 85 -1 66 -19 82 -61 54 -28 -18 -165 -23 -165 -6 0 6 -11 10
-24 10 -19 0 -36 16 -36 33 0 1 46 1 102 -1 65 -1 111 2 125 9 17 9 43 10 100
2 55 -7 80 -7 86 1 10 15 0 68 -16 78 -17 11 -145 10 -152 -1 -8 -13 -166 -13
-182 1 -7 6 -21 8 -31 6 -15 -4 -18 0 -17 26 1 17 -3 34 -9 38 -17 11 -96 9
-96 -2z m227 -256 c55 -6 61 -9 59 -29 -1 -22 -1 -22 -226 -21 -208 1 -226 2
-226 19 0 15 14 17 143 17 89 0 143 4 143 10 0 12 24 12 107 4z m-61 -267 c3
-3 -9 -27 -26 -52 -28 -41 -36 -46 -59 -40 -14 3 -36 7 -49 8 -15 1 -31 17
-48 46 -23 38 -24 42 -8 37 11 -3 26 -1 34 4 16 10 145 8 156 -3z"/>
</g>
</svg>
