<?xml version="1.0" standalone="no"?>
<!DOCTYPE svg PUBLIC "-//W3C//DTD SVG 20010904//EN"
 "http://www.w3.org/TR/2001/REC-SVG-20010904/DTD/svg10.dtd">
<svg version="1.0" xmlns="http://www.w3.org/2000/svg"
 width="101.000000pt" height="102.000000pt" viewBox="0 0 101.000000 102.000000"
 preserveAspectRatio="xMidYMid meet">
<metadata>
Created by potrace 1.16, written by Peter Selinger 2001-2019
</metadata>
<g transform="translate(0.000000,102.000000) scale(0.100000,-0.100000)"
fill="#000000" stroke="none">
<path d="M184 993 c-4 -15 -8 -32 -9 -38 -1 -5 -4 -26 -8 -45 -7 -35 -8 -35
-51 -32 -56 5 -86 -11 -86 -44 0 -56 34 -79 82 -53 18 10 19 8 13 -13 -19 -62
-57 -144 -77 -165 -20 -21 -20 -25 -7 -60 14 -35 18 -38 54 -39 22 0 54 3 71
7 28 6 32 4 32 -15 1 -11 4 -35 7 -53 7 -30 5 -33 -31 -48 -23 -9 -49 -14 -64
-10 -30 8 -69 9 -76 2 -7 -6 5 -69 15 -86 6 -10 17 -10 50 -1 80 21 99 21 100
-3 5 -73 4 -156 -3 -178 -9 -30 9 -39 62 -31 27 4 31 7 26 27 -3 13 -1 33 6
44 8 17 7 29 -6 57 -13 28 -14 40 -6 59 6 14 9 31 6 39 -4 10 6 16 34 21 34 5
40 10 48 43 l10 37 17 -32 c12 -24 14 -33 4 -36 -7 -3 3 -20 27 -45 37 -39 39
-42 23 -60 -15 -17 -84 -52 -130 -66 -15 -5 -11 -11 21 -41 22 -19 43 -35 46
-35 13 0 93 58 125 91 18 17 40 48 51 68 21 43 51 149 56 202 3 34 2 36 -29
37 -86 3 -86 3 -44 49 l20 23 -42 17 -42 18 60 52 c64 57 59 60 64 -27 1 -19
-2 -45 -6 -56 -9 -25 11 -34 61 -26 l31 4 -2 82 -2 82 52 -56 c53 -57 149
-119 162 -104 4 5 19 25 34 46 29 40 25 45 -35 53 -33 5 -100 38 -117 59 -12
14 -7 16 45 17 33 1 68 1 79 0 18 -2 21 4 20 44 0 40 -3 47 -24 52 -14 3 -36
2 -50 -3 -14 -6 -34 -8 -43 -6 -15 3 -13 9 15 44 17 22 43 44 56 49 30 12 17
29 -35 48 -36 13 -39 13 -54 -10 -8 -13 -30 -40 -48 -61 l-33 -37 30 -16 c17
-8 31 -17 31 -20 0 -2 -20 -3 -44 -2 l-44 2 4 65 c2 36 7 78 11 94 7 34 -4 42
-62 44 l-44 2 4 -104 3 -104 -96 4 c-125 6 -118 4 -119 27 -3 30 -22 38 -81
35 -30 -2 -52 1 -52 7 0 6 11 30 25 54 14 23 25 45 25 47 0 6 -38 20 -76 28
-28 6 -32 4 -40 -21z m178 -216 c10 -1 17 -6 17 -12 -4 -30 3 -33 72 -32 l70
2 -28 -23 c-32 -27 -141 -82 -162 -82 -11 0 -11 -3 -1 -15 7 -8 11 -15 9 -16
-58 -10 -59 -10 -55 34 3 23 8 52 11 64 6 18 2 23 -19 29 -14 3 -37 7 -51 8
-27 1 -30 8 -16 34 9 17 36 18 153 9z m-173 -167 c1 -9 -8 -16 -24 -16 -30 -2
-29 -5 -8 48 l18 43 6 -30 c4 -16 7 -37 8 -45z m271 -35 c-30 -78 -82 -147
-115 -154 -11 -2 -31 -4 -45 -5 -22 -1 -25 3 -22 29 1 17 3 40 3 52 1 21 5 22
40 17 36 -6 39 -5 41 17 0 13 0 33 -1 43 -1 18 0 18 17 3 24 -21 31 -21 62 3
32 25 31 25 20 -5z m71 -159 c-5 -11 -9 -23 -8 -26 0 -3 -4 -20 -7 -37 l-8
-33 -26 33 c-15 17 -30 33 -34 35 -4 2 -1 14 7 26 10 15 25 22 49 23 32 1 34
-1 27 -21z"/>
<path d="M442 954 l-33 -15 29 -37 c16 -20 34 -47 41 -60 l12 -22 40 20 c25
13 37 25 33 33 -29 49 -67 97 -77 96 -7 0 -27 -7 -45 -15z"/>
<path d="M758 583 c-14 -4 -17 -13 -13 -48 4 -43 3 -44 -23 -39 -63 13 -89 8
-95 -16 -7 -29 2 -58 22 -63 11 -3 9 -5 -6 -6 -13 0 -23 -7 -24 -13 -6 -76 -9
-97 -17 -119 -9 -24 -8 -28 10 -32 12 -4 30 -1 40 4 11 6 37 8 58 4 30 -5 38
-11 39 -28 4 -58 3 -94 -4 -118 -8 -30 10 -39 63 -31 29 4 31 7 25 31 -7 23
-7 40 -2 117 1 22 5 23 76 26 33 1 46 21 36 57 -6 25 -36 32 -74 19 -42 -15
-57 1 -42 43 7 17 9 38 6 46 -5 13 -1 15 19 10 15 -4 32 -9 40 -12 22 -8 41
12 41 44 0 40 -1 41 -55 43 -44 2 -45 3 -42 34 2 28 -2 34 -28 43 -17 6 -31
10 -32 10 -1 -1 -9 -3 -18 -6z m-9 -175 c0 -13 2 -36 3 -53 3 -27 0 -29 -30
-31 -35 -2 -37 5 -16 60 4 11 1 16 -10 16 -27 0 -18 18 12 23 15 2 30 5 33 6
4 0 7 -9 8 -21z"/>
</g>
</svg>
