<?xml version="1.0" standalone="no"?>
<!DOCTYPE svg PUBLIC "-//W3C//DTD SVG 20010904//EN"
 "http://www.w3.org/TR/2001/REC-SVG-20010904/DTD/svg10.dtd">
<svg version="1.0" xmlns="http://www.w3.org/2000/svg"
 width="101.000000pt" height="102.000000pt" viewBox="0 0 101.000000 102.000000"
 preserveAspectRatio="xMidYMid meet">
<metadata>
Created by potrace 1.16, written by Peter Selinger 2001-2019
</metadata>
<g transform="translate(0.000000,102.000000) scale(0.100000,-0.100000)"
fill="#000000" stroke="none">
<path d="M613 944 l3 -76 -91 7 c-91 6 -107 2 -118 -25 -4 -12 -6 -11 -6 3 -1
14 -8 18 -28 16 -55 -4 -99 1 -84 10 9 6 11 18 5 42 -4 19 -7 38 -6 43 5 17
-21 36 -42 30 -22 -5 -55 -12 -67 -13 -4 -1 0 -24 8 -52 8 -28 13 -53 10 -56
-3 -3 -37 -5 -76 -5 -69 0 -70 -1 -76 -29 -4 -16 -4 -37 0 -48 6 -19 15 -20
180 -18 96 1 175 5 175 9 0 3 9 4 20 1 11 -3 20 0 20 6 0 12 138 16 156 3 6
-4 13 -24 16 -45 4 -33 1 -38 -20 -44 -13 -3 -35 0 -48 6 -14 6 -30 9 -35 6
-5 -3 -17 -1 -28 5 -26 14 -55 -14 -46 -44 4 -12 8 -30 9 -41 1 -11 6 -32 10
-48 6 -18 3 -38 -7 -60 -9 -18 -14 -43 -10 -55 5 -20 10 -22 58 -17 l53 4 -11
-29 c-28 -73 -110 -165 -203 -228 -13 -9 -15 -14 -7 -18 7 -3 29 -17 49 -30
l37 -25 34 33 c47 45 100 118 139 191 37 70 36 76 36 -125 0 -150 0 -150 64
-141 30 5 31 6 28 51 -1 26 -7 59 -12 73 -13 33 -13 138 0 163 9 16 12 13 30
-25 24 -55 88 -137 128 -168 l32 -23 39 38 38 37 -42 27 c-52 33 -109 96 -137
149 -11 22 -20 42 -20 45 0 3 29 3 63 1 l64 -5 -4 96 c-1 53 1 104 7 113 5 10
6 28 3 40 -5 21 -10 22 -47 15 -37 -7 -71 -8 -131 -3 -16 1 -20 9 -21 35 l-1
34 76 2 c77 1 86 1 132 -9 16 -3 32 1 42 12 23 23 22 72 -2 85 -23 12 -64 13
-75 3 -4 -5 -46 -8 -92 -8 -71 0 -83 2 -77 15 4 8 8 40 9 71 3 56 3 57 -28 63
-77 15 -77 14 -75 -70z m193 -319 c0 -11 4 -33 8 -48 12 -40 -11 -63 -51 -51
-15 4 -37 8 -48 8 -16 1 -19 7 -17 31 1 17 3 40 3 53 1 16 6 21 18 18 9 -3 23
-1 31 4 24 16 55 7 56 -15z m-187 -8 c0 -12 2 -35 3 -52 3 -30 3 -30 -47 -30
-49 0 -50 0 -47 30 1 17 3 39 3 50 1 17 9 21 44 23 38 1 43 -1 44 -21z"/>
<path d="M132 747 c-30 -9 -33 -13 -26 -36 4 -14 8 -35 8 -46 5 -58 26 -71 83
-52 18 7 20 12 14 35 -5 15 -8 29 -8 32 -1 24 -17 69 -26 72 -7 3 -27 0 -45
-5z"/>
<path d="M279 748 c0 -7 -2 -20 -4 -28 -2 -8 -6 -33 -10 -55 -15 -89 -23 -94
-120 -80 -88 12 -101 10 -108 -14 -2 -10 -2 -31 0 -45 5 -23 8 -25 47 -20 102
13 99 14 103 -39 l3 -47 -64 5 c-70 6 -80 -2 -69 -59 6 -31 19 -33 96 -22 35
6 34 -6 -3 -71 -19 -34 -44 -61 -70 -75 -22 -13 -40 -25 -40 -28 1 -3 21 -18
47 -33 l46 -28 38 37 c37 36 91 139 93 179 1 21 -3 20 109 13 35 -2 39 3 40
47 1 36 -17 60 -37 48 -5 -4 -31 -7 -58 -9 -46 -2 -48 -1 -41 19 4 12 7 32 6
43 -1 23 5 25 89 26 37 0 47 5 51 19 13 49 -21 77 -70 58 -13 -5 -28 -9 -33
-9 -10 0 39 110 60 135 14 17 15 17 -23 33 -36 16 -77 15 -78 0z"/>
</g>
</svg>
