<?xml version="1.0" standalone="no"?>
<!DOCTYPE svg PUBLIC "-//W3C//DTD SVG 20010904//EN"
 "http://www.w3.org/TR/2001/REC-SVG-20010904/DTD/svg10.dtd">
<svg version="1.0" xmlns="http://www.w3.org/2000/svg"
 width="101.000000pt" height="101.000000pt" viewBox="0 0 101.000000 101.000000"
 preserveAspectRatio="xMidYMid meet">
<metadata>
Created by potrace 1.16, written by Peter Selinger 2001-2019
</metadata>
<g transform="translate(0.000000,101.000000) scale(0.100000,-0.100000)"
fill="#000000" stroke="none">
<path d="M518 1003 c-17 -4 -24 -24 -18 -48 1 -5 2 -63 1 -127 -1 -70 3 -119
9 -123 13 -8 13 -52 -1 -60 -5 -4 -10 -34 -9 -68 5 -186 -43 -289 -171 -374
-21 -14 -39 -28 -39 -32 1 -3 24 -17 52 -30 l52 -24 54 58 c48 52 68 86 120
205 11 25 11 25 17 3 8 -25 41 -36 67 -22 34 18 63 7 66 -26 6 -55 2 -143 -8
-169 -18 -48 5 -68 69 -58 30 4 32 7 25 31 -7 22 -8 121 -3 197 1 22 5 23 81
26 39 2 51 19 41 57 -6 22 -64 33 -101 20 -28 -11 -40 11 -24 47 6 13 9 31 5
41 -5 12 -2 15 10 10 10 -4 29 -1 43 5 19 9 30 9 45 0 28 -18 36 -15 42 14 10
53 0 62 -59 59 -30 -2 -54 -1 -54 1 0 13 51 102 64 113 25 21 19 29 -31 44
l-47 14 59 6 c63 6 78 19 69 57 -8 33 -6 33 -69 38 l-54 4 -16 54 c-15 54 -16
54 -55 52 -57 -2 -65 -10 -47 -44 34 -68 33 -69 -38 -69 l-65 0 0 56 c0 67
-16 79 -82 62z m192 -213 c55 0 100 -1 100 -3 0 -15 -36 -120 -52 -151 -18
-35 -22 -38 -51 -32 -85 16 -105 16 -110 -3 -2 -11 -2 -31 0 -45 5 -24 7 -25
63 -20 55 5 58 4 58 -18 1 -13 2 -34 4 -47 4 -33 -23 -49 -62 -34 -35 13 -70
7 -70 -14 0 -8 -5 -11 -10 -8 -6 4 -9 14 -6 23 4 14 14 227 16 362 1 22 2 23
11 8 8 -15 25 -18 109 -18z"/>
<path d="M647 772 c-15 -3 -17 -9 -11 -35 4 -18 8 -44 9 -58 2 -33 10 -45 36
-52 25 -7 63 28 55 50 -4 9 -11 35 -17 59 -12 45 -16 47 -72 36z"/>
<path d="M183 977 c-20 -9 -20 -11 -6 -45 28 -67 27 -69 -24 -62 -57 9 -81 3
-88 -21 -10 -30 4 -56 32 -64 15 -3 86 -3 158 1 l131 6 -1 38 c0 36 -2 38 -38
44 -21 4 -42 4 -47 1 -5 -3 -16 21 -26 54 -15 54 -19 60 -43 59 -14 -1 -36 -5
-48 -11z"/>
<path d="M389 776 c-7 -15 -8 -36 -3 -53 4 -15 8 -35 9 -43 0 -8 4 -24 8 -36
4 -11 2 -52 -4 -90 -6 -38 -11 -81 -11 -96 1 -31 -26 -45 -56 -29 -10 5 -27 9
-37 8 -16 -2 -19 3 -17 23 2 14 3 34 4 45 0 17 8 21 40 22 49 2 51 5 51 44 0
34 -18 52 -45 43 -16 -5 -15 0 3 43 12 26 25 52 30 58 17 17 9 33 -22 44 -43
15 -59 14 -59 -3 0 -8 -9 -42 -20 -77 -17 -57 -22 -64 -47 -66 -22 -1 -24 1
-10 9 14 7 16 18 12 51 -7 48 -12 79 -14 88 -2 10 -65 8 -77 -2 -9 -7 -9 -21
2 -55 7 -25 13 -49 13 -52 -3 -21 3 -32 18 -32 13 0 14 -3 5 -12 -8 -8 -18 -9
-36 0 -47 21 -82 -8 -69 -57 6 -24 40 -34 66 -20 27 15 90 2 83 -17 -3 -8 0
-25 6 -39 16 -35 -5 -59 -46 -50 -40 8 -76 9 -83 1 -8 -8 -8 -64 0 -72 6 -7
35 -7 85 -1 19 2 32 -1 32 -7 0 -28 -52 -118 -89 -155 -23 -23 -41 -43 -41
-46 0 -2 21 -13 46 -25 44 -19 47 -19 60 -3 35 45 74 124 90 180 18 66 21 68
82 49 28 -9 46 10 45 49 -1 30 2 35 20 34 62 -5 70 -1 62 34 -11 54 -15 160
-6 171 5 6 9 34 8 62 0 28 3 56 7 63 9 14 10 13 -27 29 -41 18 -56 15 -68 -12z"/>
</g>
</svg>
