<?xml version="1.0" standalone="no"?>
<!DOCTYPE svg PUBLIC "-//W3C//DTD SVG 20010904//EN"
 "http://www.w3.org/TR/2001/REC-SVG-20010904/DTD/svg10.dtd">
<svg version="1.0" xmlns="http://www.w3.org/2000/svg"
 width="101.000000pt" height="101.000000pt" viewBox="0 0 101.000000 101.000000"
 preserveAspectRatio="xMidYMid meet">
<metadata>
Created by potrace 1.16, written by Peter Selinger 2001-2019
</metadata>
<g transform="translate(0.000000,101.000000) scale(0.100000,-0.100000)"
fill="#000000" stroke="none">
<path d="M125 960 c-4 -16 -3 -35 1 -42 4 -7 7 -25 6 -40 -1 -14 2 -29 8 -33
15 -9 12 -68 -6 -103 -8 -18 -15 -42 -14 -54 1 -13 1 -25 0 -28 -1 -3 -4 -18
-6 -33 -1 -16 -17 -58 -34 -94 -17 -36 -29 -66 -28 -67 2 -1 22 -11 45 -23
l41 -23 30 73 c30 74 44 116 50 162 1 6 15 10 31 10 29 0 30 -2 36 -59 6 -50
4 -62 -14 -87 -12 -15 -21 -31 -21 -34 0 -15 46 -65 59 -65 13 -1 13 -2 -1
-11 -17 -9 -144 -7 -230 4 -41 6 -49 -6 -40 -61 4 -30 5 -31 46 -26 80 11 151
14 184 8 l33 -5 -21 -29 -21 -29 43 -22 c23 -12 60 -33 81 -47 l38 -25 32 31
c37 38 34 44 -52 91 -43 23 -49 29 -30 30 13 1 49 3 79 6 30 3 92 2 136 -1 75
-5 82 -7 83 -27 9 -116 -2 -143 -53 -133 -39 8 -96 15 -96 12 0 -1 9 -19 20
-41 11 -22 20 -45 20 -53 0 -10 14 -12 65 -7 121 10 136 24 135 127 -2 108 0
120 17 114 8 -3 23 -1 34 4 12 7 42 8 83 2 l64 -8 5 30 c8 59 3 63 -69 54 -41
-6 -71 -5 -83 2 -11 5 -26 7 -35 4 -11 -4 -13 0 -9 15 4 15 11 20 27 16 11 -3
33 -8 47 -11 29 -6 34 -2 73 58 l24 36 -56 6 c-32 3 -64 5 -72 5 -8 0 -31 4
-50 9 l-35 8 30 16 c17 9 32 16 35 15 8 0 70 33 70 38 0 2 -12 11 -27 19 l-28
14 37 7 c20 4 46 4 57 0 16 -5 22 -1 26 18 4 14 5 35 3 47 -3 20 -9 22 -105
25 -60 3 -105 0 -108 -5 -8 -13 -52 -13 -60 0 -7 12 -153 12 -160 0 -8 -12
-147 -11 -161 1 -8 6 -36 9 -64 7 l-51 -3 7 65 c3 36 8 67 10 69 2 2 21 3 43
3 22 0 43 3 46 8 8 12 173 11 180 -1 8 -12 142 -12 150 1 8 13 52 13 60 0 4
-7 41 -10 96 -8 97 3 107 10 94 66 l-6 27 -99 2 c-60 2 -100 -2 -100 -7 0 -6
-11 -10 -25 -10 -14 0 -25 5 -25 10 0 6 -30 10 -70 10 -40 0 -70 -4 -70 -10 0
-6 -33 -10 -80 -10 -47 0 -80 4 -80 10 0 6 -18 10 -40 10 -22 0 -40 -4 -40
-10 0 -5 -25 -10 -55 -10 -30 0 -55 5 -55 10 0 24 -29 7 -35 -20z m376 -335
c34 -53 94 -105 146 -129 37 -17 41 -20 26 -31 -10 -7 -14 -20 -11 -32 5 -19
-1 -21 -104 -27 -72 -4 -115 -3 -129 5 -12 6 -31 8 -42 6 -12 -3 -30 -2 -41 2
-15 6 -7 12 40 33 33 15 71 30 87 33 33 9 50 36 41 70 -8 31 -18 31 -87 1 -30
-14 -58 -22 -61 -19 -3 4 -6 34 -6 67 l0 62 58 -1 c56 0 58 -1 83 -40z m218
14 c-73 -60 -86 -60 -128 0 l-19 26 91 1 91 1 -35 -28z"/>
<path d="M294 854 c-3 -13 -3 -35 0 -48 6 -23 8 -24 125 -25 69 0 123 3 126 9
7 11 144 12 160 1 6 -3 34 -6 63 -6 58 0 69 12 57 64 l-6 28 -132 -3 c-166 -4
-192 -4 -300 0 -85 3 -87 3 -93 -20z"/>
</g>
</svg>
