<?xml version="1.0" standalone="no"?>
<!DOCTYPE svg PUBLIC "-//W3C//DTD SVG 20010904//EN"
 "http://www.w3.org/TR/2001/REC-SVG-20010904/DTD/svg10.dtd">
<svg version="1.0" xmlns="http://www.w3.org/2000/svg"
 width="101.000000pt" height="101.000000pt" viewBox="0 0 101.000000 101.000000"
 preserveAspectRatio="xMidYMid meet">
<metadata>
Created by potrace 1.16, written by Peter Selinger 2001-2019
</metadata>
<g transform="translate(0.000000,101.000000) scale(0.100000,-0.100000)"
fill="#000000" stroke="none">
<path d="M547 1002 c-16 -3 -17 -14 -13 -105 l5 -102 -52 2 c-29 2 -63 5 -77
8 -33 7 -48 -4 -56 -41 -10 -50 13 -64 100 -61 l73 2 -3 -44 c-4 -53 -19 -100
-50 -162 -31 -62 -65 -101 -120 -137 l-45 -30 56 -30 56 -31 34 30 c47 42 101
126 131 206 27 71 29 79 42 153 l7 45 70 1 70 1 3 -50 c1 -27 -3 -56 -8 -63
-6 -7 -11 -32 -10 -56 2 -122 -19 -176 -65 -162 -23 7 -64 8 -71 2 -2 -3 6
-28 18 -57 23 -51 23 -51 63 -47 76 9 115 26 135 59 22 35 24 55 21 220 -2 95
1 120 13 133 23 23 21 100 -3 113 -10 6 -22 7 -26 3 -3 -4 -54 -7 -111 -7 -87
0 -103 2 -99 15 2 8 5 40 6 70 1 30 7 65 13 78 12 27 -7 45 -38 38 -11 -3 -26
-1 -35 3 -9 4 -24 6 -34 3z"/>
<path d="M205 950 c-11 -4 -32 -13 -47 -19 l-28 -10 30 -47 c16 -26 34 -63 40
-83 7 -20 13 -41 15 -48 6 -18 111 20 107 38 -6 26 -84 179 -91 178 -3 0 -15
-4 -26 -9z"/>
<path d="M70 655 c-24 -64 -10 -82 65 -81 l60 1 2 -128 2 -127 -74 -50 c-40
-27 -76 -54 -79 -59 -5 -8 74 -81 87 -81 3 0 15 16 27 36 12 19 33 42 46 51
22 14 27 13 86 -19 61 -34 109 -53 159 -64 30 -6 128 -15 154 -13 11 1 83 1
161 1 l141 -1 27 56 c22 44 25 58 14 64 -7 5 -20 6 -28 3 -8 -4 -33 -8 -55
-10 -22 -1 -68 -8 -102 -14 -58 -10 -175 -8 -248 4 -16 2 -48 7 -70 11 -22 3
-66 18 -99 33 l-58 27 1 165 c0 91 -2 173 -5 182 -3 12 -21 18 -62 23 -31 3
-76 8 -100 11 -38 5 -43 3 -52 -21z"/>
</g>
</svg>
