<?xml version="1.0" standalone="no"?>
<!DOCTYPE svg PUBLIC "-//W3C//DTD SVG 20010904//EN"
 "http://www.w3.org/TR/2001/REC-SVG-20010904/DTD/svg10.dtd">
<svg version="1.0" xmlns="http://www.w3.org/2000/svg"
 width="101.000000pt" height="101.000000pt" viewBox="0 0 101.000000 101.000000"
 preserveAspectRatio="xMidYMid meet">
<metadata>
Created by potrace 1.16, written by Peter Selinger 2001-2019
</metadata>
<g transform="translate(0.000000,101.000000) scale(0.100000,-0.100000)"
fill="#000000" stroke="none">
<path d="M138 952 c-21 -10 -38 -20 -38 -23 0 -4 16 -32 35 -64 19 -32 39 -73
45 -91 13 -39 24 -41 75 -17 31 15 35 21 30 43 -9 37 -87 170 -99 169 -6 0
-28 -8 -48 -17z"/>
<path d="M315 921 c-3 -16 -3 -40 1 -54 6 -26 7 -27 84 -24 l78 3 6 -73 c4
-47 3 -80 -4 -94 -7 -11 -9 -38 -6 -60 3 -22 2 -48 -3 -57 -5 -9 -17 -39 -27
-67 -12 -34 -36 -69 -76 -109 -32 -32 -58 -59 -56 -60 2 -1 25 -12 53 -25 l50
-23 33 38 c36 41 94 149 107 199 5 17 10 37 12 45 3 8 8 31 11 50 l7 35 85 2
85 3 -2 -73 c-4 -106 -11 -169 -22 -180 -6 -6 -36 -10 -68 -9 l-58 0 25 -53
c14 -30 32 -56 40 -58 8 -2 42 6 75 17 90 32 99 50 114 240 15 183 11 206 -34
196 -5 -1 -63 -3 -127 -4 l-116 -1 1 61 c2 52 4 60 20 56 9 -2 24 1 32 8 10 9
48 10 139 6 119 -6 125 -5 131 14 4 11 4 33 0 48 l-6 28 -99 2 c-64 2 -100 -1
-100 -8 0 -6 -31 -10 -80 -10 -47 0 -80 4 -80 10 0 6 -18 10 -40 10 -22 0 -40
-4 -40 -10 0 -5 -25 -10 -55 -10 -30 0 -55 5 -55 10 0 23 -29 8 -35 -19z"/>
<path d="M46 673 c-11 -11 -6 -69 7 -87 11 -14 24 -17 68 -15 l54 4 0 -126 0
-126 -60 -50 c-93 -77 -93 -78 -48 -106 21 -13 43 -26 49 -30 6 -4 25 15 43
43 18 28 37 51 42 51 5 1 15 2 22 4 6 1 35 -11 62 -26 75 -41 217 -75 290 -68
11 0 92 1 180 0 l160 0 24 52 c14 29 27 55 29 60 2 4 -14 4 -35 1 -21 -4 -54
-8 -73 -10 -19 -1 -67 -8 -105 -14 -65 -10 -177 -8 -250 4 -16 2 -44 7 -62 10
-17 3 -62 18 -99 33 l-68 28 2 62 c1 34 -3 65 -8 68 -13 8 -13 52 0 60 11 7
12 146 0 164 -7 13 -213 25 -224 14z"/>
</g>
</svg>
