<?xml version="1.0" standalone="no"?>
<!DOCTYPE svg PUBLIC "-//W3C//DTD SVG 20010904//EN"
 "http://www.w3.org/TR/2001/REC-SVG-20010904/DTD/svg10.dtd">
<svg version="1.0" xmlns="http://www.w3.org/2000/svg"
 width="101.000000pt" height="101.000000pt" viewBox="0 0 101.000000 101.000000"
 preserveAspectRatio="xMidYMid meet">
<metadata>
Created by potrace 1.16, written by Peter Selinger 2001-2019
</metadata>
<g transform="translate(0.000000,101.000000) scale(0.100000,-0.100000)"
fill="#000000" stroke="none">
<path d="M760 963 c-25 -8 -52 -17 -60 -21 -17 -6 -88 -12 -170 -13 -30 0 -65
-7 -77 -15 -27 -17 -65 -18 -80 -3 -6 6 -22 9 -36 5 l-24 -6 25 -51 c24 -48
27 -50 56 -45 17 3 51 8 76 10 25 2 56 6 70 9 l25 5 0 -92 0 -91 -44 -3 c-24
-2 -47 1 -51 7 -3 6 -36 12 -73 13 -78 3 -91 -7 -81 -62 3 -19 8 -37 10 -40 6
-5 51 -5 157 1 l77 5 0 -58 c0 -32 4 -58 10 -58 6 0 10 -16 10 -35 0 -19 -5
-35 -10 -35 -6 0 -9 -30 -8 -75 2 -54 7 -75 16 -75 7 0 10 -5 6 -11 -3 -6 -16
-8 -28 -4 -11 4 -32 8 -46 10 -14 2 -42 6 -63 10 -21 3 -69 21 -107 40 -60 30
-70 39 -75 67 -6 34 -1 138 10 198 4 19 7 51 8 70 l2 35 -86 1 c-48 1 -93 3
-100 6 -8 3 -24 2 -36 -3 -18 -6 -23 -16 -23 -41 0 -51 9 -57 75 -55 l60 2 -2
-50 c0 -27 3 -55 7 -60 9 -11 12 -100 4 -126 -2 -9 -36 -38 -74 -64 l-69 -48
36 -43 c19 -24 40 -44 47 -44 6 0 22 16 35 36 13 19 37 44 53 56 l29 20 57
-35 c63 -39 171 -73 212 -68 31 4 217 3 265 -2 28 -3 67 -2 88 2 33 5 40 12
61 58 28 59 19 71 -33 45 -26 -12 -39 -13 -62 -5 -22 8 -41 7 -81 -4 -40 -12
-59 -13 -81 -5 -16 6 -36 8 -45 6 -15 -5 -14 -4 1 6 9 6 27 8 38 5 17 -6 20
-3 16 12 -14 47 -19 134 -8 147 7 8 10 44 9 92 l-3 79 82 0 c44 0 85 -3 89 -7
13 -14 62 -9 78 8 16 16 21 71 8 89 -10 14 -119 12 -133 -2 -7 -7 -37 -13 -68
-13 l-56 0 0 99 c0 74 3 97 12 94 7 -3 51 1 99 8 81 12 85 13 80 35 -8 29 -46
94 -54 93 -4 0 -27 -7 -52 -16z"/>
<path d="M143 934 l-43 -26 30 -43 c17 -24 39 -65 50 -90 11 -25 21 -45 23
-45 15 0 97 43 97 50 0 17 -100 180 -110 180 -3 -1 -24 -12 -47 -26z"/>
</g>
</svg>
