<?xml version="1.0" standalone="no"?>
<!DOCTYPE svg PUBLIC "-//W3C//DTD SVG 20010904//EN"
 "http://www.w3.org/TR/2001/REC-SVG-20010904/DTD/svg10.dtd">
<svg version="1.0" xmlns="http://www.w3.org/2000/svg"
 width="101.000000pt" height="101.000000pt" viewBox="0 0 101.000000 101.000000"
 preserveAspectRatio="xMidYMid meet">
<metadata>
Created by potrace 1.16, written by Peter Selinger 2001-2019
</metadata>
<g transform="translate(0.000000,101.000000) scale(0.100000,-0.100000)"
fill="#000000" stroke="none">
<path d="M158 949 c-21 -11 -38 -23 -38 -27 0 -4 13 -27 29 -51 16 -24 37 -61
47 -82 9 -22 20 -39 25 -39 4 0 28 9 54 20 l47 20 -32 58 c-37 66 -78 122 -88
122 -4 -1 -24 -10 -44 -21z"/>
<path d="M375 919 c-10 -45 2 -68 40 -75 35 -6 111 -1 155 11 l25 6 0 -85 0
-85 -90 5 c-49 3 -106 8 -127 11 -30 4 -38 1 -48 -16 -6 -12 -8 -36 -4 -56 l6
-35 132 4 131 3 3 -108 c2 -77 -1 -110 -10 -115 -6 -4 -36 -7 -66 -6 -38 1
-52 -3 -48 -11 2 -7 10 -29 17 -50 17 -53 47 -63 117 -42 76 25 83 38 85 194
l2 131 95 1 c52 1 107 1 121 0 23 -2 28 3 33 32 4 19 4 41 0 50 -7 20 -39 31
-56 21 -7 -5 -54 -8 -104 -9 l-92 0 1 80 2 80 65 0 c36 0 71 -4 78 -8 26 -17
59 1 66 37 11 59 4 64 -94 65 -49 1 -91 -3 -95 -8 -7 -12 -172 -13 -179 -2 -3
5 -39 9 -80 9 -74 0 -75 0 -81 -29z"/>
<path d="M69 678 c0 -2 -1 -24 -2 -50 -3 -44 -1 -48 25 -53 15 -4 36 -1 48 5
31 17 40 4 40 -56 0 -30 5 -54 10 -54 6 0 10 -16 10 -35 0 -19 -5 -35 -11 -35
-6 0 -9 -18 -8 -44 3 -45 3 -45 -58 -85 -58 -39 -90 -68 -82 -74 2 -2 24 -18
48 -37 39 -30 44 -32 53 -16 5 9 23 32 39 51 35 40 60 40 135 2 80 -40 203
-72 259 -67 11 1 88 2 170 2 l151 -1 19 52 c11 29 21 56 23 60 3 5 -20 6 -49
2 -30 -4 -72 -9 -94 -10 -22 -2 -69 -8 -103 -15 -35 -6 -74 -7 -85 -3 -12 4
-31 8 -42 9 -70 6 -128 15 -136 20 -5 3 -19 7 -31 9 -13 3 -44 14 -69 26 l-45
21 0 181 1 182 -77 -4 c-52 -2 -78 1 -78 8 0 9 -59 17 -61 9z"/>
</g>
</svg>
