<?xml version="1.0" standalone="no"?>
<!DOCTYPE svg PUBLIC "-//W3C//DTD SVG 20010904//EN"
 "http://www.w3.org/TR/2001/REC-SVG-20010904/DTD/svg10.dtd">
<svg version="1.0" xmlns="http://www.w3.org/2000/svg"
 width="101.000000pt" height="101.000000pt" viewBox="0 0 101.000000 101.000000"
 preserveAspectRatio="xMidYMid meet">
<metadata>
Created by potrace 1.16, written by Peter Selinger 2001-2019
</metadata>
<g transform="translate(0.000000,101.000000) scale(0.100000,-0.100000)"
fill="#000000" stroke="none">
<path d="M151 969 c-25 -8 -32 -14 -27 -27 3 -9 18 -52 33 -95 30 -84 29 -83
101 -61 29 8 28 19 -10 114 -35 84 -37 86 -97 69z"/>
<path d="M460 939 c0 -7 -21 -10 -60 -7 -54 3 -60 1 -65 -19 -3 -12 -2 -29 1
-37 8 -21 51 -31 69 -16 7 6 23 10 35 8 20 -3 22 -10 24 -108 2 -120 9 -112
-87 -96 -33 6 -52 5 -62 -4 -20 -17 -19 -65 2 -85 17 -17 51 -17 125 1 22 5
26 3 27 -18 0 -12 3 -55 6 -95 3 -47 0 -84 -9 -110 -16 -47 -11 -89 13 -96 9
-2 32 -2 50 1 32 4 33 5 25 41 -4 20 -7 81 -6 136 2 156 -5 141 68 138 46 -2
64 0 65 9 1 24 20 -46 25 -92 6 -61 29 -138 54 -178 26 -43 100 -78 130 -62
24 13 56 73 64 120 6 32 3 38 -34 69 -23 18 -44 31 -46 28 -3 -3 -7 -22 -8
-42 -10 -126 -71 2 -68 143 1 23 -3 42 -8 42 -13 0 -13 47 -1 52 5 2 12 50 15
108 3 58 8 114 12 126 9 32 -20 54 -72 54 -24 0 -44 -4 -44 -10 0 -6 -33 -10
-80 -10 -47 0 -80 4 -80 10 0 6 -18 10 -40 10 -22 0 -40 -5 -40 -11z m243
-186 c-2 -143 -2 -142 -14 -118 -8 17 -19 20 -61 19 -80 -3 -79 -4 -76 100 l3
91 45 6 c25 3 59 7 75 7 l30 2 -2 -107z"/>
<path d="M201 691 c-7 -5 -46 -7 -87 -5 -73 4 -74 4 -80 -22 -11 -42 7 -80 36
-76 14 1 41 3 60 5 l35 2 -3 -110 c-2 -60 -3 -123 -2 -140 0 -24 -12 -41 -62
-87 l-63 -57 40 -40 40 -41 35 55 c19 30 40 57 47 59 6 3 31 -8 55 -25 50 -34
116 -55 200 -64 21 -2 42 -6 47 -9 5 -4 21 -1 35 5 20 10 32 8 60 -5 27 -13
41 -14 56 -6 12 6 67 9 144 6 l125 -5 24 52 c23 51 23 52 4 60 -11 4 -32 1
-53 -9 -28 -13 -40 -14 -59 -6 -19 9 -34 8 -67 -4 -41 -14 -152 -14 -248 0
-19 3 -60 7 -90 10 -30 4 -80 18 -110 34 l-55 27 2 177 c1 98 4 182 7 187 8
13 -21 41 -42 41 -9 0 -23 -4 -31 -9z"/>
</g>
</svg>
