<?xml version="1.0" standalone="no"?>
<!DOCTYPE svg PUBLIC "-//W3C//DTD SVG 20010904//EN"
 "http://www.w3.org/TR/2001/REC-SVG-20010904/DTD/svg10.dtd">
<svg version="1.0" xmlns="http://www.w3.org/2000/svg"
 width="101.000000pt" height="101.000000pt" viewBox="0 0 101.000000 101.000000"
 preserveAspectRatio="xMidYMid meet">
<metadata>
Created by potrace 1.16, written by Peter Selinger 2001-2019
</metadata>
<g transform="translate(0.000000,101.000000) scale(0.100000,-0.100000)"
fill="#000000" stroke="none">
<path d="M127 959 l-38 -20 21 -32 c24 -36 70 -133 70 -147 0 -13 7 -13 57 6
24 9 43 21 43 26 0 23 -96 189 -109 188 -3 -1 -23 -10 -44 -21z"/>
<path d="M325 930 c-12 -55 -1 -67 63 -68 31 0 62 4 69 10 11 9 209 6 217 -3
2 -2 7 -38 10 -79 l7 -75 -114 0 -115 0 34 46 c19 26 34 49 34 52 0 5 -75 37
-88 37 -4 0 -13 -21 -20 -46 -8 -30 -26 -60 -49 -83 -21 -20 -36 -42 -34 -50
7 -34 23 -64 29 -56 4 6 53 10 109 10 121 0 121 2 9 -110 -51 -51 -92 -81
-143 -106 -40 -19 -72 -37 -72 -40 -1 -3 19 -20 44 -37 l46 -32 47 32 c70 47
183 165 228 238 l39 64 8 -124 c5 -77 5 -126 -1 -132 -6 -6 -31 -11 -56 -12
-25 -1 -47 -4 -50 -7 -7 -7 41 -101 56 -110 6 -4 25 -1 42 6 17 7 46 19 64 25
19 7 34 21 37 34 3 11 6 85 8 163 l2 143 28 0 c15 0 27 5 27 10 0 14 63 13 77
-1 15 -15 28 30 19 66 -6 23 -9 24 -81 22 l-75 -2 2 76 c3 66 5 75 21 71 9 -2
24 1 32 8 9 7 27 10 44 7 34 -7 46 13 36 56 -6 24 -9 25 -101 26 -58 1 -94 -3
-94 -9 0 -6 -32 -10 -80 -10 -47 0 -80 4 -80 10 0 6 -18 10 -40 10 -22 0 -40
-4 -40 -10 0 -5 -25 -10 -55 -10 -30 0 -55 5 -55 10 0 6 -9 10 -19 10 -13 0
-21 -9 -26 -30z"/>
<path d="M50 661 c-6 -12 -8 -36 -4 -55 l6 -35 56 2 57 2 -1 -137 -2 -137 -61
-51 c-34 -28 -61 -53 -61 -55 0 -3 17 -20 37 -39 l38 -34 51 56 51 56 72 -33
c114 -52 186 -71 220 -58 23 8 36 7 65 -7 26 -12 41 -14 55 -7 20 11 210 8
249 -4 16 -5 22 -3 22 7 0 7 9 31 20 53 24 46 14 59 -40 50 -150 -24 -270 -27
-365 -11 -16 3 -46 7 -66 10 -19 2 -72 19 -118 37 -82 32 -83 33 -77 63 3 17
6 98 7 180 1 161 -3 172 -51 160 -27 -7 -44 -7 -107 2 -35 5 -43 3 -53 -15z"/>
</g>
</svg>
