<?xml version="1.0" standalone="no"?>
<!DOCTYPE svg PUBLIC "-//W3C//DTD SVG 20010904//EN"
 "http://www.w3.org/TR/2001/REC-SVG-20010904/DTD/svg10.dtd">
<svg version="1.0" xmlns="http://www.w3.org/2000/svg"
 width="101.000000pt" height="101.000000pt" viewBox="0 0 101.000000 101.000000"
 preserveAspectRatio="xMidYMid meet">
<metadata>
Created by potrace 1.16, written by Peter Selinger 2001-2019
</metadata>
<g transform="translate(0.000000,101.000000) scale(0.100000,-0.100000)"
fill="#000000" stroke="none">
<path d="M160 962 c-19 -9 -37 -18 -39 -19 -2 -2 7 -27 21 -55 14 -29 31 -70
37 -90 7 -21 16 -38 20 -38 16 0 101 32 101 38 0 16 -86 177 -95 179 -5 1 -26
-6 -45 -15z"/>
<path d="M386 928 c-16 -61 4 -86 69 -86 25 0 47 4 50 9 8 12 167 10 183 -3
18 -16 171 -5 183 13 9 13 6 76 -4 85 -2 2 -28 0 -57 -6 -68 -13 -190 -13
-190 0 0 6 -18 10 -40 10 -22 0 -40 -4 -40 -10 0 -5 -25 -10 -55 -10 -30 0
-55 5 -55 10 0 20 -38 10 -44 -12z"/>
<path d="M306 724 c-4 -9 -4 -32 0 -50 7 -39 24 -46 94 -39 86 7 130 10 130 8
0 -1 -16 -36 -35 -76 -46 -97 -89 -155 -120 -163 -24 -6 -24 -7 -9 -43 8 -20
22 -42 31 -49 21 -15 97 -16 126 0 13 7 52 11 92 9 39 -1 92 2 118 7 46 9 49
8 59 -14 6 -13 15 -24 20 -24 14 0 88 40 88 48 0 8 -114 197 -139 231 l-18 23
-41 -21 c-46 -23 -48 -27 -29 -50 7 -9 25 -35 39 -57 24 -37 25 -41 8 -37 -10
3 -29 -2 -42 -11 -15 -11 -45 -16 -95 -16 -40 0 -73 2 -73 4 0 2 27 56 60 119
l60 114 71 7 c41 4 78 2 89 -4 21 -11 83 -13 118 -4 24 7 37 41 29 77 -6 21
-11 22 -127 24 -69 1 -120 -2 -120 -8 0 -5 -11 -9 -25 -9 -14 0 -25 5 -25 10
0 6 -30 10 -70 10 -40 0 -70 -4 -70 -10 0 -5 -16 -10 -35 -10 -19 0 -35 5 -35
10 0 6 -26 10 -59 10 -45 0 -60 -4 -65 -16z"/>
<path d="M55 660 c-3 -15 -3 -39 0 -53 6 -24 10 -26 64 -23 l56 2 -3 -57 c-1
-32 2 -60 8 -64 11 -7 14 -113 4 -139 -3 -9 -37 -39 -75 -67 -38 -28 -69 -54
-69 -59 0 -4 20 -24 44 -43 l43 -36 32 44 c53 74 50 74 246 -16 11 -5 29 -9
40 -9 19 -1 113 -7 225 -15 30 -2 60 1 66 6 7 5 48 8 92 6 l81 -3 21 54 c16
43 18 57 8 63 -6 4 -16 5 -22 2 -5 -3 -31 -5 -57 -4 -26 1 -50 -3 -53 -8 -9
-15 -125 -25 -140 -12 -7 6 -51 11 -97 11 -131 0 -163 5 -250 42 l-47 20 4
193 3 193 -109 0 -109 0 -6 -28z"/>
</g>
</svg>
