<?xml version="1.0" standalone="no"?>
<!DOCTYPE svg PUBLIC "-//W3C//DTD SVG 20010904//EN"
 "http://www.w3.org/TR/2001/REC-SVG-20010904/DTD/svg10.dtd">
<svg version="1.0" xmlns="http://www.w3.org/2000/svg"
 width="101.000000pt" height="101.000000pt" viewBox="0 0 101.000000 101.000000"
 preserveAspectRatio="xMidYMid meet">
<metadata>
Created by potrace 1.16, written by Peter Selinger 2001-2019
</metadata>
<g transform="translate(0.000000,101.000000) scale(0.100000,-0.100000)"
fill="#000000" stroke="none">
<path d="M525 943 l0 -68 -115 0 c-113 0 -115 0 -118 -24 -2 -12 -1 -34 2 -47
7 -25 7 -25 115 -20 l109 6 4 -38 3 -37 -60 2 c-33 2 -71 5 -85 8 -31 7 -47
-3 -54 -35 -11 -47 5 -55 107 -55 l93 0 -1 -37 c0 -36 -1 -38 -43 -44 -26 -4
-54 -1 -72 6 -29 12 -104 9 -118 -4 -7 -8 -6 -75 1 -82 9 -9 96 -2 114 9 7 4
37 4 68 1 43 -5 55 -10 51 -21 -3 -8 -1 -23 5 -35 8 -15 7 -28 -6 -54 -12 -27
-13 -38 -4 -55 6 -12 9 -34 5 -49 -6 -32 10 -40 61 -33 39 6 46 35 25 106 -11
39 -12 58 -4 80 6 16 8 36 5 44 -5 13 -2 15 11 10 10 -4 26 -2 36 3 11 6 43 7
75 4 55 -7 56 -8 50 -33 -4 -14 -8 -30 -9 -36 -4 -25 -20 -36 -50 -34 -67 4
-67 4 -43 -50 12 -27 30 -52 39 -54 26 -7 119 27 131 48 6 11 12 40 13 65 2
25 5 59 8 75 16 96 18 93 -65 88 -39 -2 -76 1 -83 6 -6 5 -33 8 -61 8 -50 -2
-50 -2 -51 31 l-1 32 77 0 c43 0 97 3 122 6 44 6 44 6 43 45 0 34 -4 41 -24
46 -15 4 -36 0 -54 -10 -31 -18 -107 -23 -107 -7 0 6 -11 10 -25 10 -18 0 -25
5 -25 19 0 11 -2 25 -5 33 -4 10 5 12 41 9 25 -2 57 2 70 9 22 12 99 9 160 -6
26 -7 39 21 29 64 l-6 27 -148 0 c-144 0 -149 1 -144 20 3 11 7 41 9 68 l4 47
-53 0 -52 0 0 -67z"/>
<path d="M133 954 c-18 -8 -33 -16 -33 -19 0 -3 8 -22 19 -43 10 -20 26 -62
36 -92 10 -30 19 -56 20 -57 1 -2 23 4 49 13 54 18 53 13 2 134 -17 41 -38 76
-46 77 -8 1 -30 -5 -47 -13z"/>
<path d="M31 642 c-16 -30 -14 -58 6 -77 13 -14 28 -16 65 -12 l48 6 0 -34 c0
-19 5 -35 10 -35 15 0 12 -67 -2 -73 -10 -4 -10 -8 1 -15 10 -7 11 -21 6 -53
-6 -36 -18 -56 -73 -112 l-67 -67 41 -41 41 -41 32 50 c17 27 40 57 50 66 19
17 22 16 83 -17 71 -40 179 -73 218 -68 29 4 216 2 260 -2 25 -2 68 -2 95 1
49 4 51 6 74 56 14 28 26 54 28 57 4 6 -13 5 -122 -5 -22 -3 -65 -9 -96 -15
-52 -11 -174 -9 -244 3 -16 3 -50 8 -75 11 -25 2 -70 17 -100 33 l-55 28 0
176 c0 97 -3 179 -7 183 -3 4 -51 9 -106 12 -94 5 -100 5 -111 -15z"/>
</g>
</svg>
