<?xml version="1.0" standalone="no"?>
<!DOCTYPE svg PUBLIC "-//W3C//DTD SVG 20010904//EN"
 "http://www.w3.org/TR/2001/REC-SVG-20010904/DTD/svg10.dtd">
<svg version="1.0" xmlns="http://www.w3.org/2000/svg"
 width="101.000000pt" height="101.000000pt" viewBox="0 0 101.000000 101.000000"
 preserveAspectRatio="xMidYMid meet">
<metadata>
Created by potrace 1.16, written by Peter Selinger 2001-2019
</metadata>
<g transform="translate(0.000000,101.000000) scale(0.100000,-0.100000)"
fill="#000000" stroke="none">
<path d="M153 958 c-39 -13 -40 -21 -13 -84 18 -41 26 -69 29 -96 1 -4 8 -13
16 -21 12 -13 20 -13 60 2 25 8 45 20 44 26 -1 28 -76 180 -89 181 -8 1 -30
-3 -47 -8z"/>
<path d="M348 943 c-19 -5 -34 -60 -24 -91 4 -11 17 -23 29 -26 36 -9 127 -7
148 5 11 5 40 9 64 7 l44 -3 -57 -85 c-65 -98 -187 -224 -250 -259 l-44 -23 7
88 c3 49 2 95 -3 102 -7 10 -38 14 -106 15 -107 2 -121 -5 -111 -58 7 -38 21
-46 73 -39 42 6 42 6 42 -25 0 -17 5 -31 11 -31 8 0 10 -28 7 -97 -6 -108 0
-98 -117 -194 l-44 -37 42 -26 c59 -38 68 -40 75 -19 11 34 52 76 77 77 13 1
42 -8 64 -20 58 -33 154 -67 170 -60 8 3 17 1 20 -4 6 -9 46 -11 215 -10 30 0
94 0 142 0 l87 -1 11 40 c6 22 15 43 20 46 22 13 10 33 -17 30 -16 -2 -68 -9
-117 -15 -64 -8 -97 -8 -113 -1 -13 6 -34 11 -46 11 -13 0 -17 3 -11 8 15 9
18 152 4 152 -6 0 -10 11 -10 25 0 14 5 25 10 25 6 0 10 30 10 70 0 40 -4 70
-10 70 -5 0 -10 11 -10 25 0 14 5 25 10 25 6 0 10 21 10 48 0 33 8 61 29 95
l28 48 63 4 c35 2 75 -1 88 -6 39 -15 59 -3 66 40 10 65 8 66 -123 69 -71 2
-122 -1 -125 -7 -8 -12 -173 -14 -181 -1 -3 5 -29 8 -58 8 -29 -1 -57 1 -62 3
-6 3 -18 4 -27 2z m207 -471 c0 -81 -4 -155 -9 -165 -5 -11 -4 -28 3 -43 6
-14 11 -26 11 -27 0 -1 -33 -1 -73 0 -77 2 -166 29 -211 64 -23 18 -26 28 -26
85 0 74 6 77 64 38 l38 -26 73 72 c54 54 130 141 130 150 0 0 0 -66 0 -148z"/>
<path d="M700 661 l-34 -28 55 -69 c31 -38 69 -89 85 -114 15 -25 29 -47 31
-49 3 -5 82 49 89 61 6 10 -84 122 -148 185 l-44 43 -34 -29z"/>
</g>
</svg>
