<?xml version="1.0" standalone="no"?>
<!DOCTYPE svg PUBLIC "-//W3C//DTD SVG 20010904//EN"
 "http://www.w3.org/TR/2001/REC-SVG-20010904/DTD/svg10.dtd">
<svg version="1.0" xmlns="http://www.w3.org/2000/svg"
 width="101.000000pt" height="101.000000pt" viewBox="0 0 101.000000 101.000000"
 preserveAspectRatio="xMidYMid meet">
<metadata>
Created by potrace 1.16, written by Peter Selinger 2001-2019
</metadata>
<g transform="translate(0.000000,101.000000) scale(0.100000,-0.100000)"
fill="#000000" stroke="none">
<path d="M529 973 c-24 -68 -33 -84 -50 -93 -23 -13 -96 -13 -104 0 -9 15 -73
9 -80 -8 -3 -8 -3 -30 1 -48 l6 -33 74 2 c41 1 74 0 74 -3 0 -17 -64 -112 -89
-133 -31 -26 -41 -66 -22 -95 10 -16 20 -16 152 -9 94 5 97 4 97 -17 0 -11 3
-31 7 -43 11 -34 -29 -45 -139 -38 -134 8 -137 8 -144 1 -7 -8 -6 -75 1 -83 6
-6 18 -5 132 2 44 3 95 3 113 0 30 -6 32 -8 25 -38 -7 -37 -6 -87 2 -95 6 -7
85 -5 91 1 7 7 8 60 1 93 -8 37 -17 35 140 37 99 1 102 2 106 25 10 54 3 58
-101 59 -149 2 -158 4 -154 33 2 14 3 34 4 45 0 18 7 20 52 18 28 0 57 3 63 9
13 10 41 8 75 -6 20 -9 32 22 23 63 -7 31 -29 46 -48 34 -7 -5 -47 -8 -90 -8
-65 0 -76 2 -71 15 4 8 9 34 11 57 3 40 2 42 -32 53 -66 22 -88 -1 -76 -81 l7
-44 -63 0 c-35 0 -63 2 -63 5 0 3 20 36 45 74 l44 70 54 -3 c34 -1 58 2 62 9
7 12 128 8 212 -7 28 -4 33 -2 39 21 3 14 3 37 0 50 -5 22 -11 23 -86 25 -50
1 -80 -2 -80 -9 0 -5 -16 -10 -35 -10 -19 0 -35 4 -35 9 0 6 -19 11 -42 13
l-41 3 26 31 c15 18 27 36 27 42 0 9 -72 32 -100 32 -6 0 -15 -12 -21 -27z"/>
<path d="M143 942 c-28 -4 -27 1 -4 -80 11 -37 22 -79 25 -94 5 -21 11 -26 29
-24 42 6 87 18 86 25 0 3 -13 44 -28 91 -29 92 -30 93 -108 82z"/>
<path d="M65 616 l0 -54 48 2 47 1 0 -37 c0 -21 5 -38 10 -38 15 0 12 -67 -2
-73 -10 -4 -10 -8 1 -15 9 -7 11 -21 6 -50 -5 -34 -16 -47 -75 -93 -38 -30
-69 -56 -69 -59 0 -7 78 -60 88 -60 5 0 18 15 30 33 39 63 71 67 166 19 79
-39 192 -67 250 -62 11 1 92 3 179 4 l159 1 7 25 c4 14 15 40 24 58 l17 33
-58 -7 c-32 -3 -76 -7 -98 -8 -22 -2 -56 -8 -75 -14 -33 -11 -132 -10 -205 2
-16 3 -41 7 -55 9 -39 6 -101 28 -152 53 l-46 23 -7 74 c-5 50 -3 82 4 96 7
13 11 57 10 105 l-3 84 -100 1 -101 1 0 -54z"/>
</g>
</svg>
