<?xml version="1.0" standalone="no"?>
<!DOCTYPE svg PUBLIC "-//W3C//DTD SVG 20010904//EN"
 "http://www.w3.org/TR/2001/REC-SVG-20010904/DTD/svg10.dtd">
<svg version="1.0" xmlns="http://www.w3.org/2000/svg"
 width="101.000000pt" height="103.000000pt" viewBox="0 0 101.000000 103.000000"
 preserveAspectRatio="xMidYMid meet">
<metadata>
Created by potrace 1.16, written by Peter Selinger 2001-2019
</metadata>
<g transform="translate(0.000000,103.000000) scale(0.100000,-0.100000)"
fill="#000000" stroke="none">
<path d="M430 1018 c0 -27 -68 -154 -114 -212 -25 -33 -46 -62 -46 -65 0 -3
18 -16 39 -28 36 -21 40 -21 47 -5 5 12 10 0 14 -38 4 -30 6 -56 6 -57 -1 -1
-15 -4 -31 -7 -17 -3 -45 -10 -62 -15 -33 -10 -33 -9 -33 25 0 31 -2 34 -32
35 -18 1 -57 3 -87 5 -73 4 -101 -8 -101 -44 0 -48 20 -66 71 -60 l44 5 -2
-51 c0 -28 2 -55 7 -61 4 -5 8 -41 9 -79 l1 -68 -67 -69 -67 -70 36 -35 36
-36 30 44 c49 71 50 71 123 37 75 -36 170 -71 177 -65 2 3 15 1 28 -4 16 -6
33 -6 49 2 19 8 31 7 59 -6 27 -13 41 -14 56 -6 12 7 68 9 153 5 l134 -5 20
61 20 60 -54 -5 c-30 -2 -61 -10 -69 -17 -11 -9 -21 -9 -39 -1 -19 9 -34 8
-66 -3 -39 -14 -122 -14 -204 -1 -16 2 -51 7 -76 10 -56 7 -151 41 -178 64
-19 16 -19 25 -12 162 5 105 10 136 16 113 9 -38 6 -37 66 -19 54 17 49 30 52
-126 1 -53 7 -102 12 -107 19 -19 107 -41 125 -31 10 5 82 8 161 6 153 -4 174
1 216 46 12 12 26 36 32 51 9 24 8 29 -12 36 -12 5 -31 18 -41 30 -26 29 -33
27 -40 -13 -7 -37 -32 -64 -66 -71 -13 -2 -37 -9 -54 -14 -45 -14 -207 -1
-231 19 -20 17 -39 134 -26 158 6 11 8 27 5 36 -4 11 5 18 36 26 23 6 47 13
53 16 14 5 17 -126 5 -161 -14 -37 8 -51 72 -47 l26 2 -1 115 c0 63 2 115 5
116 11 2 37 8 67 17 l31 10 4 -51 c2 -29 2 -54 0 -57 -2 -3 -17 -6 -33 -6 -64
-3 -61 -1 -44 -34 9 -17 14 -34 11 -38 -3 -4 -1 -14 4 -21 12 -20 102 4 131
35 25 27 29 50 34 182 l4 94 -27 -7 c-15 -4 -34 -8 -42 -9 -8 -1 -27 -7 -41
-13 -14 -6 -40 -13 -57 -16 -17 -3 -34 -7 -39 -10 -10 -6 -9 62 2 87 11 25
-10 37 -60 34 l-40 -3 1 -73 c1 -40 -1 -70 -4 -68 -2 3 -12 2 -21 -3 -9 -5
-27 -11 -41 -14 -24 -6 -25 -4 -24 34 1 22 4 42 8 46 12 12 6 21 -23 33 -16 6
-39 9 -50 5 -25 -7 -26 2 -5 30 11 15 25 19 64 17 27 -1 52 3 55 8 8 12 173
12 181 -1 3 -5 52 -8 112 -7 l107 2 0 42 0 41 -60 1 c-33 0 -88 1 -122 1 -35
0 -93 0 -130 0 -125 1 -142 3 -133 21 4 8 20 26 34 39 34 32 33 39 -6 55 -62
25 -78 28 -78 14z"/>
<path d="M150 953 c-8 -3 -25 -10 -37 -14 l-22 -8 25 -68 c14 -37 26 -70 25
-73 0 -3 3 -15 6 -28 4 -19 10 -22 29 -18 34 9 74 25 74 30 0 2 -13 44 -30 93
-17 48 -30 89 -30 90 0 5 -24 2 -40 -4z"/>
</g>
</svg>
