<?xml version="1.0" standalone="no"?>
<!DOCTYPE svg PUBLIC "-//W3C//DTD SVG 20010904//EN"
 "http://www.w3.org/TR/2001/REC-SVG-20010904/DTD/svg10.dtd">
<svg version="1.0" xmlns="http://www.w3.org/2000/svg"
 width="101.000000pt" height="101.000000pt" viewBox="0 0 101.000000 101.000000"
 preserveAspectRatio="xMidYMid meet">
<metadata>
Created by potrace 1.16, written by Peter Selinger 2001-2019
</metadata>
<g transform="translate(0.000000,101.000000) scale(0.100000,-0.100000)"
fill="#000000" stroke="none">
<path d="M378 980 c2 -17 1 -54 -2 -84 -6 -47 -10 -53 -26 -49 -32 8 -70 -6
-79 -30 -10 -25 -7 -30 -41 76 -21 66 -22 67 -53 63 -67 -8 -68 -10 -41 -88
13 -39 22 -73 19 -76 -2 -3 0 -13 6 -23 10 -20 49 -26 49 -8 0 7 9 9 24 5 15
-4 26 -1 30 7 3 8 8 7 16 -5 7 -12 24 -18 45 -18 34 0 43 -12 35 -45 -2 -5 -4
-28 -6 -50 -11 -128 -34 -204 -85 -274 -24 -31 -34 -39 -40 -29 -11 16 -10
156 1 163 4 2 8 37 8 78 l1 73 -95 2 c-92 2 -94 1 -100 -22 -3 -14 -3 -34 1
-45 5 -17 13 -19 54 -15 57 5 52 21 54 -160 l2 -118 -63 -57 -63 -56 34 -33
c31 -31 57 -41 57 -24 0 5 16 27 36 50 42 49 54 49 136 3 53 -30 148 -64 156
-56 2 2 14 0 27 -5 15 -6 34 -5 52 2 23 9 40 8 77 -5 34 -12 54 -14 67 -7 10
6 69 8 133 6 103 -3 116 -2 116 13 0 9 9 33 20 53 17 32 17 37 4 42 -9 3 -31
-1 -49 -10 -25 -12 -38 -13 -53 -5 -14 8 -29 7 -54 -1 -34 -13 -227 -15 -283
-4 -16 3 -47 7 -67 10 -79 9 -208 67 -208 93 0 17 12 16 56 -2 l35 -14 30 47
c48 76 86 204 95 322 3 30 5 62 6 71 2 10 11 16 28 15 24 -1 25 -3 21 -61 -2
-33 -5 -100 -7 -150 -7 -166 -5 -160 -39 -161 -70 -3 -67 -1 -50 -34 8 -16 15
-33 14 -37 -5 -30 2 -35 42 -29 55 9 99 32 100 54 3 39 8 89 12 117 5 33 14
163 22 297 l5 87 -45 7 c-25 3 -57 4 -73 2 -26 -4 -27 -2 -24 32 2 19 4 46 5
60 1 14 6 31 10 38 14 21 -3 32 -52 32 -47 0 -48 0 -43 -30z"/>
<path d="M646 892 c-10 -10 -6 -92 4 -92 6 0 10 -16 10 -35 0 -19 -4 -35 -10
-35 -6 0 -10 -30 -10 -70 0 -40 4 -70 10 -70 14 0 13 -47 -1 -52 -7 -2 -8 -37
-3 -110 l7 -107 41 5 c63 9 159 9 182 1 21 -7 22 -4 27 85 4 51 4 125 2 163
-6 102 -6 133 1 198 3 32 3 74 0 92 l-7 33 -124 0 c-68 0 -126 -3 -129 -6z
m165 -125 c-1 -27 2 -54 8 -60 13 -13 15 -54 2 -61 -12 -8 -13 -114 -1 -121
12 -7 13 -95 2 -112 -4 -7 -26 -11 -50 -10 l-43 1 6 92 c4 59 2 95 -5 99 -13
8 -13 52 1 60 6 4 9 37 7 83 l-3 77 40 0 40 0 -4 -48z"/>
</g>
</svg>
