<?xml version="1.0" standalone="no"?>
<!DOCTYPE svg PUBLIC "-//W3C//DTD SVG 20010904//EN"
 "http://www.w3.org/TR/2001/REC-SVG-20010904/DTD/svg10.dtd">
<svg version="1.0" xmlns="http://www.w3.org/2000/svg"
 width="101.000000pt" height="101.000000pt" viewBox="0 0 101.000000 101.000000"
 preserveAspectRatio="xMidYMid meet">
<metadata>
Created by potrace 1.16, written by Peter Selinger 2001-2019
</metadata>
<g transform="translate(0.000000,101.000000) scale(0.100000,-0.100000)"
fill="#000000" stroke="none">
<path d="M588 1003 c-18 -4 -22 -15 -19 -41 1 -8 -2 -19 -8 -26 -6 -7 -12 -23
-14 -37 -4 -23 -6 -24 -89 -22 l-85 2 -2 -129 c-1 -77 3 -131 9 -135 13 -8 13
-52 0 -60 -7 -4 -9 -57 -8 -141 3 -126 4 -135 23 -140 11 -3 108 -2 215 1 107
3 209 5 226 5 l31 0 2 115 c2 76 -1 115 -8 115 -6 0 -11 11 -11 25 0 14 5 25
10 25 6 0 10 30 10 70 0 40 -4 70 -10 70 -5 0 -10 16 -10 35 0 19 5 35 11 35
6 0 9 19 7 48 l-3 47 -83 -3 c-54 -2 -89 1 -98 9 -8 6 -22 9 -33 6 -18 -4 -18
-3 -4 32 8 20 22 44 31 54 17 19 17 19 -15 36 -22 11 -44 12 -75 4z m178 -303
l2 -80 -33 6 c-19 3 -35 1 -39 -5 -9 -14 -53 -14 -61 0 -4 6 -37 9 -83 7 l-77
-3 0 75 0 75 145 3 145 2 1 -80z m-63 -156 l77 -7 0 -71 c0 -39 -4 -77 -8 -84
-6 -9 -45 -12 -153 -10 l-144 3 3 78 c3 74 4 77 28 77 13 0 24 5 24 10 0 12
64 13 173 4z"/>
<path d="M135 933 c-22 -14 -42 -28 -44 -30 -3 -2 7 -16 21 -31 14 -15 42 -53
62 -84 20 -32 39 -58 42 -58 2 0 22 12 44 26 38 25 39 27 25 53 -12 24 -104
151 -109 151 -1 0 -19 -12 -41 -27z"/>
<path d="M54 662 c-17 -11 -27 -50 -20 -77 6 -22 10 -24 69 -22 l62 2 0 -137
0 -137 -68 -52 c-74 -55 -73 -51 -19 -111 l25 -27 39 54 c21 29 46 56 57 60
11 3 40 -8 76 -30 59 -35 191 -83 201 -72 3 3 16 2 29 -3 15 -6 34 -5 52 2 22
8 41 7 83 -5 36 -11 59 -13 71 -6 10 5 58 7 108 5 64 -2 91 0 91 8 0 7 9 29
20 51 15 30 17 41 7 47 -20 12 -62 9 -83 -7 -25 -19 -170 -21 -178 -2 -5 9 -7
9 -12 0 -6 -15 -74 -18 -74 -4 0 5 -44 12 -97 15 -105 8 -175 33 -227 81 -21
20 -26 33 -26 74 0 27 4 53 10 56 5 3 10 34 10 68 1 34 2 86 3 115 l2 52 -100
5 c-55 3 -105 2 -111 -3z"/>
</g>
</svg>
