<?xml version="1.0" standalone="no"?>
<!DOCTYPE svg PUBLIC "-//W3C//DTD SVG 20010904//EN"
 "http://www.w3.org/TR/2001/REC-SVG-20010904/DTD/svg10.dtd">
<svg version="1.0" xmlns="http://www.w3.org/2000/svg"
 width="101.000000pt" height="101.000000pt" viewBox="0 0 101.000000 101.000000"
 preserveAspectRatio="xMidYMid meet">
<metadata>
Created by potrace 1.16, written by Peter Selinger 2001-2019
</metadata>
<g transform="translate(0.000000,101.000000) scale(0.100000,-0.100000)"
fill="#000000" stroke="none">
<path d="M433 994 c-39 -17 -39 -18 -13 -54 11 -16 27 -45 35 -64 l15 -36 38
15 c20 9 41 20 45 24 10 10 -61 131 -77 130 -6 0 -26 -7 -43 -15z"/>
<path d="M674 921 l-41 -89 -77 -7 c-51 -5 -80 -4 -90 4 -7 6 -24 11 -37 12
-101 3 -111 2 -120 -12 -12 -17 -3 -70 14 -81 6 -5 41 -6 77 -3 l65 6 0 -68
c0 -37 -4 -71 -10 -75 -18 -13 -153 -9 -158 5 -3 9 -7 9 -17 0 -9 -8 -10 -26
-6 -57 9 -56 29 -64 113 -47 75 15 73 15 63 -20 -15 -53 -58 -116 -107 -158
-26 -22 -45 -41 -43 -43 3 -2 26 -14 52 -27 56 -28 59 -26 113 55 36 54 84
171 78 189 -1 6 27 11 68 12 61 2 70 0 65 -13 -3 -8 -1 -24 5 -35 7 -15 7 -39
-1 -87 -12 -68 -14 -131 -4 -141 10 -10 87 -2 95 10 4 7 4 22 -1 33 -14 39
-23 166 -11 166 6 0 11 17 11 38 l0 37 47 -2 c27 0 60 -4 74 -8 35 -9 59 16
59 60 0 23 -6 38 -19 44 -10 6 -21 8 -24 5 -2 -3 -37 -6 -76 -7 l-70 -2 2 65
2 65 74 3 c84 3 94 10 87 61 -6 41 -12 47 -30 32 -9 -8 -37 -10 -87 -5 -41 3
-76 8 -77 9 -5 5 59 98 76 111 11 8 12 12 0 21 -12 9 -74 33 -87 33 -3 0 -25
-40 -47 -89z m-8 -185 c1 0 4 -28 8 -61 l6 -60 -62 3 -63 3 0 63 0 62 55 -4
c30 -3 56 -5 56 -6z"/>
<path d="M129 963 l-36 -15 32 -76 c18 -42 35 -85 38 -94 6 -16 9 -16 52 -1
36 12 45 19 40 32 -35 94 -71 171 -79 170 -6 -1 -27 -8 -47 -16z"/>
<path d="M46 663 c-4 -9 -4 -31 0 -49 6 -32 19 -41 49 -34 6 1 21 3 35 4 l25
2 3 -145 2 -145 -67 -62 -68 -63 35 -30 c19 -17 38 -29 41 -28 4 1 22 22 41
47 19 25 43 45 54 46 10 0 44 -12 74 -27 74 -36 178 -64 220 -60 32 4 217 2
260 -2 25 -2 74 -1 108 2 62 6 64 7 77 41 7 19 16 43 20 54 7 17 4 18 -36 10
-80 -14 -383 -21 -444 -11 -16 3 -44 8 -60 11 -33 5 -131 40 -155 56 -16 10
-16 6 -7 276 l4 121 -103 1 c-85 1 -103 -2 -108 -15z"/>
</g>
</svg>
