<?xml version="1.0" standalone="no"?>
<!DOCTYPE svg PUBLIC "-//W3C//DTD SVG 20010904//EN"
 "http://www.w3.org/TR/2001/REC-SVG-20010904/DTD/svg10.dtd">
<svg version="1.0" xmlns="http://www.w3.org/2000/svg"
 width="101.000000pt" height="101.000000pt" viewBox="0 0 101.000000 101.000000"
 preserveAspectRatio="xMidYMid meet">
<metadata>
Created by potrace 1.16, written by Peter Selinger 2001-2019
</metadata>
<g transform="translate(0.000000,101.000000) scale(0.100000,-0.100000)"
fill="#000000" stroke="none">
<path d="M550 1000 c0 -5 5 -10 10 -10 6 0 10 -25 10 -55 0 -30 -4 -55 -10
-55 -5 0 -10 -18 -10 -40 0 -22 5 -40 11 -40 6 0 9 -19 7 -47 l-3 -48 -69 -9
c-46 -6 -74 -6 -85 1 -26 16 -99 14 -116 -3 -17 -17 -19 -51 -6 -73 9 -15 23
-15 139 -10 39 2 72 2 72 -2 0 -3 -13 -26 -29 -51 -37 -59 -104 -123 -163
-156 -45 -25 -60 -42 -39 -42 5 0 24 -12 41 -26 28 -24 33 -26 57 -13 40 21
126 120 158 182 17 31 34 57 39 57 5 0 5 -61 0 -142 -4 -79 -8 -155 -8 -170
-1 -24 -5 -28 -31 -30 -16 0 -37 0 -45 1 -78 11 -115 21 -192 53 l-46 20 3
153 c2 85 6 158 9 164 4 6 4 21 0 35 -6 25 -7 25 -100 23 -100 -2 -114 -8
-114 -54 0 -29 27 -56 47 -45 27 16 63 2 63 -24 0 -13 5 -24 10 -24 11 0 13
-88 4 -167 -6 -48 -11 -55 -70 -105 -34 -29 -63 -58 -63 -64 -1 -6 17 -25 38
-42 l40 -32 30 43 c49 71 48 71 137 33 129 -54 119 -51 184 -61 14 -2 27 -5
30 -6 6 -4 156 -9 230 -9 30 0 87 1 126 0 l72 0 14 43 c9 23 18 49 22 58 8 18
-18 34 -37 22 -23 -14 -277 -24 -277 -10 0 4 4 7 9 7 12 0 12 148 0 156 -12 7
-11 51 1 59 6 3 10 21 10 38 1 32 2 31 88 -60 l87 -91 39 32 c32 28 37 36 28
53 -12 22 -77 84 -134 127 l-38 28 -35 -26 c-22 -17 -35 -22 -36 -14 -5 84 -8
78 39 78 23 0 42 5 42 10 0 6 11 10 25 10 14 0 25 -5 25 -11 0 -14 133 -9 142
5 10 14 10 74 1 79 -5 3 -52 0 -106 -5 -76 -8 -104 -8 -122 2 -13 7 -31 10
-40 7 -14 -6 -15 7 -10 121 3 70 8 139 11 155 l6 27 -61 0 c-34 0 -61 -4 -61
-10z"/>
<path d="M137 939 l-37 -20 30 -44 c17 -25 38 -61 46 -80 12 -30 17 -34 34
-25 10 5 30 14 45 20 l25 10 -26 52 c-31 61 -62 108 -72 108 -4 -1 -24 -10
-45 -21z"/>
<path d="M776 918 c-3 -13 -21 -49 -41 -82 -19 -32 -35 -60 -35 -62 0 -3 68
-34 75 -34 1 0 19 26 40 58 21 31 47 67 58 79 l20 23 -44 20 c-56 25 -66 25
-73 -2z"/>
<path d="M367 909 c-24 -13 -35 -24 -30 -32 4 -7 18 -28 31 -47 13 -19 28 -45
33 -57 5 -13 13 -23 19 -23 10 0 69 27 79 36 7 6 -80 145 -90 144 -2 -1 -21
-10 -42 -21z"/>
</g>
</svg>
