<?xml version="1.0" standalone="no"?>
<!DOCTYPE svg PUBLIC "-//W3C//DTD SVG 20010904//EN"
 "http://www.w3.org/TR/2001/REC-SVG-20010904/DTD/svg10.dtd">
<svg version="1.0" xmlns="http://www.w3.org/2000/svg"
 width="101.000000pt" height="101.000000pt" viewBox="0 0 101.000000 101.000000"
 preserveAspectRatio="xMidYMid meet">
<metadata>
Created by potrace 1.16, written by Peter Selinger 2001-2019
</metadata>
<g transform="translate(0.000000,101.000000) scale(0.100000,-0.100000)"
fill="#000000" stroke="none">
<path d="M615 968 c-3 -18 -3 -80 1 -138 3 -58 5 -150 4 -205 -3 -235 -1 -314
9 -332 19 -38 64 -47 162 -36 96 11 118 23 139 74 12 28 11 31 -26 63 -29 25
-42 31 -52 23 -7 -5 -11 -16 -8 -22 10 -27 -12 -38 -70 -36 -32 1 -60 4 -63 6
-2 3 -4 47 -5 99 l-1 94 33 -13 c17 -8 57 -31 88 -51 l55 -37 30 29 c16 15 29
33 29 39 0 7 -52 36 -115 66 -111 53 -114 55 -115 87 l0 32 38 -16 c20 -9 42
-17 48 -18 11 -1 124 157 124 174 0 10 -64 40 -84 40 -6 0 -23 -26 -38 -58
-15 -31 -38 -70 -52 -87 l-25 -30 -1 70 c-1 39 -1 98 -1 132 0 68 -4 74 -60
80 -36 5 -38 3 -44 -29z"/>
<path d="M465 973 c-2 -7 -2 -19 1 -27 3 -7 6 -80 7 -162 l2 -149 -101 -50
-100 -50 18 -42 c10 -24 22 -43 27 -43 4 0 32 18 62 41 84 63 88 64 82 26 -12
-79 -72 -170 -135 -203 -28 -15 -38 -34 -17 -34 6 0 24 -9 40 -21 l30 -21 34
26 c44 34 91 103 120 176 18 45 24 88 30 199 5 101 4 141 -4 141 -6 0 -11 16
-11 35 0 19 5 35 10 35 15 0 13 130 -2 131 -57 5 -88 2 -93 -8z"/>
<path d="M125 948 c-16 -6 -31 -12 -33 -13 -2 -2 8 -25 21 -52 14 -26 30 -67
37 -90 14 -47 17 -48 73 -32 45 12 45 18 -5 130 -32 73 -38 76 -93 57z"/>
<path d="M325 863 c-22 -9 -41 -17 -43 -19 -2 -1 3 -13 11 -26 9 -12 28 -54
43 -93 15 -38 30 -73 34 -78 3 -4 23 0 44 8 45 19 44 28 -12 147 l-37 77 -40
-16z"/>
<path d="M37 655 c-33 -33 -7 -106 32 -89 9 3 32 7 51 8 l35 1 -4 -48 c-1 -27
2 -54 8 -60 14 -14 14 -54 1 -62 -6 -4 -9 -34 -7 -69 3 -61 2 -64 -28 -85 -17
-11 -44 -35 -60 -51 l-29 -30 29 -30 c16 -17 33 -30 38 -30 5 0 27 20 49 45
42 48 65 52 112 22 20 -13 83 -37 116 -44 59 -13 168 -24 205 -22 11 1 91 1
177 0 l158 -1 6 28 c4 15 13 39 20 54 12 22 11 27 -2 32 -9 3 -21 3 -26 -1 -6
-3 -31 -5 -56 -4 -26 1 -55 -5 -68 -14 -29 -19 -150 -21 -158 -2 -5 10 -7 10
-12 0 -6 -14 -74 -18 -74 -4 0 4 -36 11 -80 15 -46 4 -110 17 -151 33 l-70 26
7 118 c5 87 4 119 -5 119 -6 0 -11 11 -11 25 0 14 5 25 10 25 12 0 14 87 3 93
-5 3 -51 8 -104 12 -82 6 -98 5 -112 -10z"/>
</g>
</svg>
