<?xml version="1.0" standalone="no"?>
<!DOCTYPE svg PUBLIC "-//W3C//DTD SVG 20010904//EN"
 "http://www.w3.org/TR/2001/REC-SVG-20010904/DTD/svg10.dtd">
<svg version="1.0" xmlns="http://www.w3.org/2000/svg"
 width="101.000000pt" height="101.000000pt" viewBox="0 0 101.000000 101.000000"
 preserveAspectRatio="xMidYMid meet">
<metadata>
Created by potrace 1.16, written by Peter Selinger 2001-2019
</metadata>
<g transform="translate(0.000000,101.000000) scale(0.100000,-0.100000)"
fill="#000000" stroke="none">
<path d="M145 958 c-11 -6 -30 -17 -42 -24 l-23 -14 34 -45 c19 -25 40 -61 47
-80 7 -19 16 -35 20 -35 4 0 28 9 54 20 45 19 47 21 33 43 -8 12 -33 50 -54
85 -21 34 -41 62 -44 62 -3 0 -14 -6 -25 -12z"/>
<path d="M776 963 c-4 -5 -26 -9 -49 -10 -102 -5 -154 -11 -187 -22 -45 -14
-95 -14 -119 1 -15 9 -25 9 -45 0 -22 -10 -26 -18 -26 -57 0 -25 5 -45 10 -45
6 0 10 -16 10 -35 0 -20 -5 -35 -12 -35 -8 0 -9 -30 -4 -109 4 -66 2 -112 -3
-115 -5 -4 -9 -19 -9 -34 1 -31 -30 -108 -62 -152 l-20 -28 45 -26 45 -25 16
24 c16 25 62 152 70 195 12 60 16 99 18 150 l1 55 77 -3 c46 -2 79 1 83 7 8
13 52 14 59 2 8 -13 108 -12 123 1 8 6 35 9 67 5 59 -6 71 3 60 48 -5 21 -11
23 -75 24 -41 1 -69 -3 -69 -9 0 -5 -11 -10 -25 -10 -14 0 -25 5 -25 10 0 6
-30 10 -70 10 -40 0 -70 -4 -70 -10 0 -5 -11 -10 -25 -10 -14 0 -25 5 -25 10
0 6 -18 10 -39 10 -36 0 -39 2 -43 33 -3 28 -1 32 22 34 14 0 59 4 100 8 82 7
165 12 248 15 60 2 63 9 27 63 -25 36 -60 49 -79 30z"/>
<path d="M26 664 c-4 -9 -4 -32 0 -50 7 -38 29 -48 91 -43 l38 4 2 -136 3
-136 -48 -22 c-26 -12 -57 -30 -70 -39 l-23 -18 23 -42 c13 -23 26 -42 30 -42
5 0 26 18 49 40 56 54 70 57 132 22 80 -45 180 -73 216 -59 22 8 37 7 70 -6
31 -13 47 -14 61 -7 12 6 71 8 154 5 l134 -5 7 27 c3 15 15 39 26 54 10 15 19
29 19 32 0 10 -81 -2 -96 -14 -11 -9 -21 -9 -39 -1 -19 9 -34 8 -65 -3 -25 -9
-64 -13 -103 -10 -57 3 -84 7 -172 20 -16 2 -49 7 -72 9 -45 6 -96 25 -126 48
-16 12 -18 33 -20 201 -2 185 -2 187 -24 187 -12 0 -25 -4 -28 -10 -3 -5 -22
-10 -41 -10 -19 0 -34 5 -34 10 0 6 -20 10 -44 10 -31 0 -46 -5 -50 -16z"/>
<path d="M472 600 c-4 -11 -4 -63 0 -116 3 -53 3 -107 -2 -119 -19 -49 18 -87
61 -64 11 5 81 7 171 4 l153 -6 4 154 3 154 -68 6 c-38 4 -124 7 -192 7 -114
0 -123 -1 -130 -20z m295 -147 c3 -71 3 -71 -25 -77 -15 -3 -52 -3 -82 -1 -30
3 -65 5 -76 6 -20 1 -21 7 -20 73 l1 71 100 0 100 0 2 -72z"/>
</g>
</svg>
