<?xml version="1.0" standalone="no"?>
<!DOCTYPE svg PUBLIC "-//W3C//DTD SVG 20010904//EN"
 "http://www.w3.org/TR/2001/REC-SVG-20010904/DTD/svg10.dtd">
<svg version="1.0" xmlns="http://www.w3.org/2000/svg"
 width="101.000000pt" height="101.000000pt" viewBox="0 0 101.000000 101.000000"
 preserveAspectRatio="xMidYMid meet">
<metadata>
Created by potrace 1.16, written by Peter Selinger 2001-2019
</metadata>
<g transform="translate(0.000000,101.000000) scale(0.100000,-0.100000)"
fill="#000000" stroke="none">
<path d="M565 1000 c-11 -5 -14 -9 -7 -9 15 -1 17 -97 2 -106 -20 -12 -120
-18 -132 -7 -15 11 -88 14 -105 4 -17 -10 -25 -55 -13 -72 7 -12 33 -15 127
-15 l118 0 0 -26 0 -27 -98 1 c-77 2 -100 -1 -107 -13 -13 -20 -13 -107 0
-115 12 -8 13 -52 1 -59 -13 -8 -12 -108 1 -123 7 -9 9 -46 5 -107 -6 -103 -2
-110 57 -99 23 5 25 9 25 57 0 97 2 104 25 105 11 0 37 2 56 3 32 3 35 1 38
-27 2 -16 3 -53 3 -81 0 -57 11 -67 63 -57 28 6 33 22 14 53 -10 15 -10 27 -1
51 7 17 9 38 6 46 -5 13 -2 15 11 10 10 -4 26 -2 37 4 12 6 37 8 58 4 36 -6
38 -8 37 -43 l-1 -37 -48 2 -48 2 21 -33 c11 -18 20 -41 20 -50 0 -18 20 -20
71 -6 58 16 64 30 66 159 1 64 3 169 6 233 l3 117 -80 5 c-45 3 -97 5 -117 3
-32 -2 -35 0 -31 20 4 20 11 23 56 24 28 1 58 0 66 -1 8 -1 47 1 87 5 60 5 73
10 78 27 9 26 -2 66 -17 65 -46 -1 -88 4 -84 12 3 5 -10 29 -30 55 l-35 46
-36 -15 c-21 -9 -39 -17 -41 -20 -2 -2 8 -19 22 -38 14 -19 26 -37 26 -40 0
-4 -21 -6 -47 -4 -48 2 -48 2 -47 37 0 19 4 45 8 56 5 18 2 22 -25 28 -37 7
-38 7 -64 -4z m220 -361 l0 -36 -70 1 -71 1 4 28 c3 21 10 27 28 27 13 0 24 5
24 11 0 6 17 9 42 7 42 -3 43 -4 43 -39z m-259 22 c17 -1 23 -8 26 -33 l3 -33
-62 3 -63 4 0 32 c0 32 1 33 38 30 20 -2 47 -3 58 -3z m231 -127 c25 -5 29
-10 30 -39 1 -31 -2 -34 -37 -40 -22 -4 -47 -2 -59 4 -11 6 -26 8 -34 5 -12
-4 -15 3 -14 30 1 28 5 35 16 31 9 -2 23 0 31 5 18 11 28 12 67 4z m-201 -43
c-1 -35 -2 -36 -36 -33 -19 1 -45 3 -56 3 -18 1 -22 7 -21 33 1 31 1 31 58 32
l56 2 -1 -37z"/>
<path d="M133 928 c-38 -13 -39 -17 -14 -66 10 -20 25 -56 32 -80 11 -38 15
-43 35 -38 40 10 74 25 74 33 0 19 -75 163 -84 162 -6 -1 -26 -6 -43 -11z"/>
<path d="M24 635 c-3 -14 -3 -36 0 -50 6 -24 10 -25 69 -23 l62 3 2 -50 c3
-65 5 -141 3 -162 -1 -10 2 -29 5 -43 6 -22 -2 -31 -69 -79 -42 -30 -76 -57
-76 -61 0 -4 18 -21 40 -39 l41 -33 22 29 c65 83 74 85 177 33 93 -47 144 -60
179 -47 22 8 37 7 70 -6 31 -13 47 -14 61 -7 12 7 75 8 170 5 132 -5 150 -4
150 10 0 9 9 34 19 55 18 38 15 47 -14 40 -5 -2 -28 -4 -50 -6 -22 -2 -74 -8
-116 -14 -70 -9 -179 -8 -254 4 -16 2 -55 7 -85 10 -30 3 -83 20 -117 36 l-61
30 1 184 c1 101 -1 187 -4 190 -3 3 -54 8 -112 11 l-107 5 -6 -25z"/>
</g>
</svg>
