<?xml version="1.0" standalone="no"?>
<!DOCTYPE svg PUBLIC "-//W3C//DTD SVG 20010904//EN"
 "http://www.w3.org/TR/2001/REC-SVG-20010904/DTD/svg10.dtd">
<svg version="1.0" xmlns="http://www.w3.org/2000/svg"
 width="101.000000pt" height="101.000000pt" viewBox="0 0 101.000000 101.000000"
 preserveAspectRatio="xMidYMid meet">
<metadata>
Created by potrace 1.16, written by Peter Selinger 2001-2019
</metadata>
<g transform="translate(0.000000,101.000000) scale(0.100000,-0.100000)"
fill="#000000" stroke="none">
<path d="M585 1000 c4 -6 3 -60 0 -120 l-8 -110 -98 7 -98 6 -7 -27 c-3 -14
-1 -32 5 -39 13 -17 13 -168 -1 -184 -7 -8 -8 -57 -3 -143 7 -126 8 -130 31
-136 38 -10 73 4 80 31 3 13 3 29 -1 36 -5 6 -9 26 -10 43 l-2 31 158 0 c152
0 157 -1 155 -20 -3 -29 -16 -46 -27 -39 -6 3 -26 3 -44 0 l-35 -7 20 -37 c11
-20 20 -43 20 -51 0 -10 10 -12 42 -7 59 10 107 35 113 60 5 18 7 129 6 261 0
22 1 81 3 130 4 94 -3 112 -36 94 -10 -5 -53 -8 -97 -7 l-79 3 4 101 c1 56 4
107 6 115 2 10 -11 15 -50 17 -37 2 -52 0 -47 -8z m200 -339 l0 -28 -67 4
c-39 2 -69 -1 -73 -7 -8 -13 -48 -13 -62 1 -6 6 -33 9 -60 8 -46 -4 -48 -3
-48 21 l0 25 155 2 155 2 0 -28z m-165 -112 c0 -8 26 -10 83 -7 l83 4 0 -34
c-1 -33 -2 -34 -36 -28 -19 3 -87 6 -151 6 l-117 0 -4 35 -4 35 73 0 c47 0 73
-4 73 -11z"/>
<path d="M142 944 l-42 -25 33 -42 c19 -23 46 -63 62 -90 27 -47 27 -47 53
-31 69 41 69 35 14 116 -69 102 -69 102 -120 72z"/>
<path d="M407 951 c-15 -10 -30 -20 -33 -24 -3 -3 12 -28 34 -56 22 -28 42
-56 44 -63 5 -14 78 27 78 43 0 12 -80 119 -89 118 -3 0 -18 -8 -34 -18z"/>
<path d="M758 900 l-37 -70 36 -15 c20 -8 38 -14 39 -12 7 7 84 128 84 132 0
7 -58 35 -72 35 -7 0 -30 -32 -50 -70z"/>
<path d="M60 655 c-14 -36 -13 -51 6 -69 11 -11 20 -13 33 -6 29 15 61 1 61
-26 0 -13 5 -24 10 -24 11 0 13 -78 3 -170 l-6 -62 -69 -51 -68 -52 39 -38 38
-39 47 50 c50 54 67 57 126 27 86 -45 209 -80 260 -75 36 3 219 1 260 -3 25
-3 64 -2 86 0 38 5 42 9 53 45 7 22 15 46 17 52 5 14 -15 13 -177 -4 -89 -9
-192 -8 -264 4 -16 2 -45 7 -64 10 -49 8 -121 33 -157 55 -29 18 -30 20 -27
84 2 37 -1 68 -7 72 -13 8 -13 52 0 60 11 7 12 146 1 162 -3 6 -48 14 -98 18
l-93 7 -10 -27z"/>
</g>
</svg>
