<?xml version="1.0" standalone="no"?>
<!DOCTYPE svg PUBLIC "-//W3C//DTD SVG 20010904//EN"
 "http://www.w3.org/TR/2001/REC-SVG-20010904/DTD/svg10.dtd">
<svg version="1.0" xmlns="http://www.w3.org/2000/svg"
 width="101.000000pt" height="101.000000pt" viewBox="0 0 101.000000 101.000000"
 preserveAspectRatio="xMidYMid meet">
<metadata>
Created by potrace 1.16, written by Peter Selinger 2001-2019
</metadata>
<g transform="translate(0.000000,101.000000) scale(0.100000,-0.100000)"
fill="#000000" stroke="none">
<path d="M510 954 c-49 -62 -121 -119 -163 -129 -15 -4 -26 -12 -23 -19 3 -6
10 -28 17 -48 10 -32 15 -37 35 -32 13 3 40 7 59 8 l36 1 -33 -27 c-18 -16
-57 -42 -86 -59 l-52 -31 32 -29 31 -30 98 65 c53 36 102 66 108 66 20 0 11
19 -15 33 -27 14 -26 14 27 22 30 4 62 7 72 6 10 -1 25 3 33 10 23 19 122 5
150 -22 l23 -21 38 23 c21 12 39 24 41 25 5 3 -73 75 -137 125 l-52 42 -35
-19 c-18 -10 -34 -23 -34 -29 0 -5 16 -20 36 -33 19 -12 32 -27 29 -32 -8 -13
-65 -13 -65 0 0 6 -18 10 -40 10 -22 0 -40 -4 -40 -10 0 -5 -25 -10 -56 -10
-31 0 -54 4 -52 8 6 16 133 124 156 133 12 5 22 13 22 17 0 10 -77 42 -100 42
-9 0 -35 -25 -60 -56z"/>
<path d="M146 934 c-22 -8 -41 -15 -42 -17 -2 -1 13 -33 32 -71 19 -38 34 -77
34 -88 0 -17 4 -19 28 -13 15 4 36 9 46 11 11 2 23 7 28 12 7 7 -61 156 -79
173 -4 3 -26 0 -47 -7z"/>
<path d="M660 715 c-13 -14 -22 -27 -19 -29 2 -2 33 -18 69 -36 36 -18 79 -43
97 -56 17 -13 36 -24 40 -24 5 0 24 15 41 33 l32 33 -107 52 c-60 29 -113 52
-119 52 -6 0 -21 -11 -34 -25z"/>
<path d="M58 652 c-21 -4 -33 -41 -24 -70 8 -24 45 -35 89 -27 l32 6 0 -130 0
-130 -67 -47 c-38 -25 -68 -51 -68 -56 0 -5 12 -26 27 -46 15 -20 28 -39 30
-41 1 -2 27 22 57 54 l54 58 34 -21 c55 -35 148 -83 148 -76 0 4 6 2 13 -5 14
-11 43 -14 135 -12 58 1 131 2 165 2 12 1 69 1 127 2 l106 2 21 47 22 48 -24
6 c-13 3 -39 1 -58 -5 -18 -6 -71 -11 -118 -11 -46 0 -145 1 -219 1 -146 0
-186 11 -257 65 -30 22 -33 29 -27 59 3 18 1 35 -4 39 -13 8 -15 153 -2 161 6
3 10 28 10 55 0 70 -14 80 -108 78 -42 -1 -85 -3 -94 -6z"/>
<path d="M477 595 c-20 -30 -60 -73 -89 -96 -29 -23 -54 -44 -55 -48 -2 -3 13
-16 32 -29 l36 -23 48 41 c49 41 49 41 145 45 53 2 96 1 96 -2 0 -7 -40 -73
-45 -73 -2 0 -34 14 -71 30 l-67 31 -29 -28 c-15 -15 -28 -30 -28 -33 0 -3 23
-14 50 -24 28 -10 52 -22 55 -26 8 -12 -94 -43 -135 -42 -19 1 -47 -1 -63 -4
l-27 -6 32 -44 c17 -24 37 -44 43 -44 6 0 51 14 101 31 49 17 97 32 106 34 9
2 25 8 36 14 15 8 31 1 85 -35 65 -43 67 -44 85 -26 10 10 29 26 42 35 13 9
22 18 19 21 -2 2 -37 20 -76 40 -40 20 -73 38 -73 40 0 1 22 43 50 92 42 75
47 90 34 97 -8 5 -27 5 -42 1 -28 -9 -212 -12 -212 -5 0 3 12 17 26 32 l26 27
-30 16 c-51 26 -66 21 -105 -39z"/>
</g>
</svg>
