<?xml version="1.0" standalone="no"?>
<!DOCTYPE svg PUBLIC "-//W3C//DTD SVG 20010904//EN"
 "http://www.w3.org/TR/2001/REC-SVG-20010904/DTD/svg10.dtd">
<svg version="1.0" xmlns="http://www.w3.org/2000/svg"
 width="101.000000pt" height="101.000000pt" viewBox="0 0 101.000000 101.000000"
 preserveAspectRatio="xMidYMid meet">
<metadata>
Created by potrace 1.16, written by Peter Selinger 2001-2019
</metadata>
<g transform="translate(0.000000,101.000000) scale(0.100000,-0.100000)"
fill="#000000" stroke="none">
<path d="M120 966 c-19 -7 -35 -17 -34 -22 0 -5 15 -39 32 -76 18 -37 32 -75
32 -84 0 -12 6 -15 25 -10 49 12 75 26 75 38 -1 20 -74 161 -85 164 -5 1 -26
-3 -45 -10z"/>
<path d="M288 963 c-21 -6 -33 -56 -18 -82 8 -16 21 -21 55 -21 25 0 45 5 45
10 0 6 16 10 35 10 19 0 35 -4 35 -10 0 -6 30 -10 70 -10 40 0 70 4 70 10 0 6
11 10 25 10 14 0 25 -4 25 -10 0 -11 109 -13 223 -4 69 6 76 9 82 31 14 55 8
58 -149 60 -80 1 -148 -2 -151 -7 -7 -12 -173 -12 -180 0 -3 5 -29 9 -58 9
-29 0 -61 2 -72 4 -11 3 -28 3 -37 0z"/>
<path d="M314 822 c-7 -5 -10 -58 -8 -147 2 -77 4 -156 4 -175 0 -29 -8 -176
-12 -217 -1 -8 -10 -7 -32 4 l-31 14 3 190 3 189 -26 10 c-15 6 -58 10 -96 10
-66 0 -70 -1 -80 -27 -16 -43 -4 -75 29 -72 70 5 72 4 72 -56 0 -30 5 -55 10
-55 6 0 10 -16 10 -35 0 -20 -5 -35 -11 -35 -8 0 -10 -17 -6 -54 4 -37 2 -56
-6 -59 -7 -2 -39 -26 -71 -52 l-59 -48 42 -40 42 -39 28 45 c42 66 61 68 156
20 66 -34 128 -53 190 -60 45 -5 43 -5 146 2 53 4 89 1 119 -10 30 -11 47 -12
61 -5 11 6 40 8 69 4 45 -6 50 -5 50 12 0 11 9 36 19 56 l20 36 -21 6 c-12 3
-36 -2 -54 -10 -24 -12 -37 -13 -52 -5 -15 8 -31 7 -63 -4 -41 -15 -154 -15
-244 -2 -16 3 -54 8 -83 11 -29 3 -69 14 -88 24 l-36 19 31 0 c17 0 33 2 36 5
3 3 8 74 11 159 3 84 7 155 9 157 2 2 13 -28 25 -67 20 -67 28 -76 61 -73 9 1
7 -62 -3 -75 -5 -6 -24 -9 -44 -7 l-35 4 16 -30 c8 -16 15 -33 14 -37 -4 -26
3 -31 42 -28 64 6 85 25 92 86 4 29 3 57 -2 63 -12 15 -13 153 -1 161 5 3 9
53 9 110 0 136 2 135 -138 134 -59 0 -112 -3 -117 -7z m168 -141 c-1 -34 2
-62 8 -66 12 -7 13 -64 2 -82 -5 -8 -17 14 -31 57 -24 71 -35 83 -61 70 -12
-7 -15 0 -15 33 l0 42 50 3 50 2 -3 -59z"/>
<path d="M630 823 c-8 -3 -18 -11 -22 -17 -11 -16 -10 -104 2 -111 12 -8 11
-146 -1 -161 -5 -6 -7 -51 -5 -100 2 -49 4 -108 5 -130 1 -45 19 -58 62 -47
20 6 21 10 15 89 -5 56 -3 84 4 89 6 4 11 26 10 49 -1 22 -1 55 0 71 1 30 2
29 16 -10 8 -22 16 -52 18 -66 5 -42 13 -49 42 -39 42 16 45 13 42 -42 l-3
-53 -43 -1 c-23 0 -44 -3 -47 -6 -10 -10 31 -87 48 -92 22 -5 76 11 98 31 12
10 15 25 11 58 -3 30 -1 45 7 45 7 0 11 19 11 50 0 28 -4 50 -10 50 -5 0 -10
11 -10 25 0 14 5 25 10 25 6 0 10 30 10 70 0 40 -4 70 -10 70 -5 0 -10 11 -10
25 0 14 5 25 10 25 12 0 14 87 2 94 -13 8 -246 16 -262 9z m200 -158 c0 -43
-4 -75 -10 -75 -5 0 -10 -26 -10 -57 l-1 -58 -31 92 c-32 91 -33 92 -61 87
-27 -4 -29 -3 -23 18 3 13 6 31 6 40 0 13 11 18 53 21 28 2 58 4 65 5 9 1 12
-19 12 -73z"/>
</g>
</svg>
