<?xml version="1.0" standalone="no"?>
<!DOCTYPE svg PUBLIC "-//W3C//DTD SVG 20010904//EN"
 "http://www.w3.org/TR/2001/REC-SVG-20010904/DTD/svg10.dtd">
<svg version="1.0" xmlns="http://www.w3.org/2000/svg"
 width="101.000000pt" height="101.000000pt" viewBox="0 0 101.000000 101.000000"
 preserveAspectRatio="xMidYMid meet">
<metadata>
Created by potrace 1.16, written by Peter Selinger 2001-2019
</metadata>
<g transform="translate(0.000000,101.000000) scale(0.100000,-0.100000)"
fill="#000000" stroke="none">
<path d="M535 963 l1 -48 -36 2 c-19 2 -47 6 -62 9 -15 3 -43 3 -63 0 -40 -8
-55 -39 -35 -76 10 -19 17 -21 68 -16 31 2 73 8 93 11 36 7 36 6 35 -25 l-1
-31 -121 7 -121 7 -7 -28 c-4 -14 -4 -35 -1 -45 7 -21 42 -32 65 -20 9 5 34 7
55 6 22 -2 49 1 61 6 13 6 33 8 47 4 20 -5 24 -11 23 -43 -1 -34 -3 -38 -26
-35 -14 1 -47 4 -75 6 -27 3 -57 5 -65 7 -46 7 -63 -13 -53 -64 4 -22 9 -25
36 -22 l31 4 -29 -24 -30 -23 35 -39 c19 -20 39 -41 45 -45 5 -4 -22 -21 -60
-39 -39 -18 -72 -34 -74 -36 -3 -2 11 -20 30 -39 l36 -35 103 71 c56 39 100
64 96 55 -3 -8 0 -26 6 -40 14 -32 -5 -57 -41 -54 -60 5 -60 4 -42 -48 9 -27
17 -50 18 -52 2 -2 28 1 58 8 73 16 99 59 98 158 -1 29 13 22 120 -64 l81 -66
33 38 c18 21 30 42 27 46 -3 5 -35 25 -72 45 -37 21 -69 39 -72 41 -7 6 37 40
83 64 20 10 37 23 37 27 0 5 -17 18 -37 31 -21 12 -31 20 -22 18 9 -3 22 -1
29 3 12 7 12 13 1 33 -10 18 -10 30 -2 45 6 11 8 27 5 35 -5 15 -2 16 73 19
36 1 48 20 38 61 -6 20 -13 24 -52 26 -26 1 -48 3 -51 5 -2 2 -3 29 -3 60 0
51 -3 57 -25 62 -13 3 -36 2 -52 -4 -15 -5 -51 -7 -79 -5 -54 6 -70 23 -52 56
12 21 -3 29 -60 34 l-46 3 0 -47z m219 -140 l1 -31 -60 1 -60 2 0 33 0 33 59
-3 c59 -3 59 -3 60 -35z m-9 -101 c6 -4 11 -22 12 -39 2 -28 -2 -34 -23 -39
-14 -4 -36 -2 -50 4 -13 7 -30 9 -38 6 -11 -4 -14 3 -13 30 1 28 5 35 16 31 9
-2 23 0 31 5 18 11 51 13 65 2z m-229 -138 c15 -4 21 -14 21 -33 0 -27 -9 -35
-92 -86 l-30 -18 30 26 30 26 -40 41 c-29 30 -34 41 -20 36 11 -3 27 -1 35 4
17 11 36 12 66 4z m242 -3 l24 -6 -22 -27 c-11 -15 -35 -37 -51 -49 -26 -19
-34 -20 -54 -9 -19 10 -24 20 -22 51 1 30 5 38 17 34 8 -2 22 0 30 5 17 11 43
11 78 1z"/>
<path d="M170 960 c-7 -5 -19 -6 -26 -3 -20 8 -26 -15 -13 -55 12 -36 18 -63
23 -112 2 -14 4 -28 5 -32 1 -11 50 -8 84 5 18 6 26 15 23 26 -3 9 -7 27 -10
41 -22 112 -49 153 -86 130z"/>
<path d="M48 642 c-3 -10 -3 -32 0 -50 5 -37 14 -40 88 -28 16 3 22 -1 23 -18
0 -11 3 -57 6 -101 9 -122 4 -134 -70 -194 -36 -28 -65 -57 -65 -64 0 -12 88
-73 94 -66 1 2 12 20 24 41 13 20 29 38 37 41 21 9 62 -1 114 -27 71 -37 173
-60 236 -55 11 1 94 1 185 0 l165 -1 25 55 c29 61 23 72 -30 53 -17 -5 -39 -8
-50 -5 -11 3 -41 -1 -67 -9 -45 -14 -165 -14 -248 0 -16 2 -51 7 -77 10 -26 3
-79 18 -118 33 l-70 27 -1 46 c-1 25 -3 92 -5 149 -2 57 1 111 6 121 20 38
-23 85 -46 49 -4 -6 -19 -8 -38 -5 -86 17 -114 16 -118 -2z"/>
</g>
</svg>
