<?xml version="1.0" standalone="no"?>
<!DOCTYPE svg PUBLIC "-//W3C//DTD SVG 20010904//EN"
 "http://www.w3.org/TR/2001/REC-SVG-20010904/DTD/svg10.dtd">
<svg version="1.0" xmlns="http://www.w3.org/2000/svg"
 width="101.000000pt" height="101.000000pt" viewBox="0 0 101.000000 101.000000"
 preserveAspectRatio="xMidYMid meet">
<metadata>
Created by potrace 1.16, written by Peter Selinger 2001-2019
</metadata>
<g transform="translate(0.000000,101.000000) scale(0.100000,-0.100000)"
fill="#000000" stroke="none">
<path d="M677 977 c-8 -18 -27 -52 -43 -77 -28 -43 -31 -45 -77 -46 -47 0 -48
0 -23 13 l26 14 -19 37 c-39 74 -43 78 -90 62 -22 -7 -41 -17 -41 -22 0 -5 11
-26 25 -46 14 -20 25 -41 25 -47 0 -11 -92 -11 -109 -1 -20 13 -51 -14 -51
-42 0 -53 10 -57 129 -57 60 0 107 -3 105 -6 -8 -13 -132 -68 -179 -80 -27 -6
-51 -13 -53 -15 -2 -1 7 -18 20 -38 27 -41 29 -41 133 13 39 20 73 37 77 39 3
2 5 -5 4 -14 -4 -27 -62 -71 -153 -116 l-82 -41 27 -33 26 -33 66 35 c36 19
88 54 116 79 38 33 54 41 63 32 21 -21 11 -36 -59 -91 -69 -53 -167 -106 -222
-120 -34 -8 -34 -13 1 -54 l29 -33 70 35 c38 19 99 58 136 86 l66 51 1 -38 c1
-21 1 -45 -1 -53 -2 -19 -30 -41 -42 -34 -5 3 -24 3 -43 0 l-33 -7 21 -49 c18
-43 24 -49 46 -46 14 2 45 13 69 25 56 29 84 87 78 166 -4 50 -2 54 14 45 10
-5 40 -34 67 -65 l49 -55 37 31 c20 17 37 34 37 39 0 12 -114 93 -163 116
l-37 18 81 53 c45 29 86 53 92 53 18 0 -13 27 -53 45 l-39 18 -57 -58 -57 -58
-19 24 c-11 13 -32 38 -48 55 l-29 31 30 22 c26 19 45 22 171 26 148 5 158 8
158 52 0 25 -27 56 -41 47 -5 -3 -54 -6 -108 -7 l-99 -2 19 26 c10 15 34 40
53 57 40 35 35 43 -29 61 -54 15 -53 15 -68 -22z"/>
<path d="M164 949 c-3 -6 -17 -9 -30 -6 -35 6 -37 -4 -9 -67 13 -30 27 -67 29
-81 8 -41 15 -46 59 -41 50 6 44 3 51 22 4 9 3 22 -2 28 -5 6 -21 44 -36 84
-26 68 -46 87 -62 61z"/>
<path d="M52 668 c-17 -17 -15 -64 4 -82 17 -18 66 -21 92 -7 16 8 17 -3 17
-142 l-1 -152 -58 -55 -58 -55 39 -32 c21 -18 41 -33 44 -33 4 0 12 13 19 30
7 16 23 41 36 55 l24 26 42 -22 c56 -29 148 -60 158 -54 5 3 20 1 33 -4 17 -7
35 -6 54 1 23 9 40 8 77 -5 34 -12 54 -14 67 -7 11 6 70 8 144 6 l126 -5 9 27
c5 15 16 39 24 55 15 26 14 27 -12 29 -15 0 -34 0 -42 -1 -8 -1 -35 -4 -60 -6
-25 -2 -79 -9 -121 -15 -71 -9 -182 -8 -254 4 -16 2 -47 7 -68 11 -21 3 -60
16 -87 30 l-48 24 -7 80 c-5 52 -3 86 4 100 7 12 11 59 10 109 l-2 87 -69 -3
c-45 -3 -68 -1 -68 7 0 15 -53 14 -68 -1z"/>
</g>
</svg>
