<?xml version="1.0" standalone="no"?>
<!DOCTYPE svg PUBLIC "-//W3C//DTD SVG 20010904//EN"
 "http://www.w3.org/TR/2001/REC-SVG-20010904/DTD/svg10.dtd">
<svg version="1.0" xmlns="http://www.w3.org/2000/svg"
 width="101.000000pt" height="101.000000pt" viewBox="0 0 101.000000 101.000000"
 preserveAspectRatio="xMidYMid meet">
<metadata>
Created by potrace 1.16, written by Peter Selinger 2001-2019
</metadata>
<g transform="translate(0.000000,101.000000) scale(0.100000,-0.100000)"
fill="#000000" stroke="none">
<path d="M551 1001 c-9 -6 -10 -14 -3 -27 5 -11 12 -31 16 -46 6 -26 5 -27
-51 -34 -40 -5 -58 -3 -61 5 -2 6 -26 11 -58 11 -49 0 -54 -2 -60 -25 -3 -14
-1 -32 6 -40 14 -17 8 -208 -8 -227 -5 -7 -10 -29 -10 -49 0 -43 -29 -114 -67
-164 l-27 -35 21 -22 c12 -13 27 -32 35 -42 13 -19 15 -16 45 35 17 30 39 78
48 107 26 81 40 66 42 -43 1 -33 -4 -81 -11 -107 -6 -26 -8 -51 -5 -55 12 -12
79 -6 87 8 5 7 4 23 0 35 -5 12 -8 40 -7 61 1 37 3 39 33 40 34 1 33 3 37 -84
1 -44 16 -57 57 -46 23 6 24 7 8 32 -9 15 -9 26 0 45 6 14 9 32 6 39 -3 9 6
13 30 14 36 1 35 3 38 -79 1 -27 7 -38 21 -42 26 -6 45 2 49 22 3 11 9 3 16
-19 15 -43 34 -51 79 -32 56 23 62 42 62 203 0 80 -2 153 -5 164 -6 17 -14 18
-105 11 -69 -4 -99 -3 -99 4 0 7 -46 11 -140 11 -78 0 -140 4 -140 9 0 5 -2
15 -5 23 -4 10 6 12 46 9 29 -2 56 2 62 8 13 13 54 15 61 2 8 -13 108 -12 123
1 8 6 44 9 92 6 l79 -5 6 45 c8 56 8 130 0 159 -6 21 -11 22 -114 20 -101 -2
-110 0 -116 18 -8 21 -11 40 -13 68 -1 13 -10 17 -43 17 -24 0 -49 -4 -57 -9z
m254 -212 l0 -38 -77 5 c-47 3 -79 1 -83 -6 -8 -13 -52 -13 -60 1 -4 6 -37 9
-83 7 l-77 -3 0 35 0 35 190 0 190 1 0 -37z m-260 -283 c0 -43 -1 -44 -32 -43
-30 1 -32 3 -30 38 1 34 4 38 32 42 16 2 30 5 30 5 0 1 0 -18 0 -42z m143 -3
c1 -41 1 -41 -33 -40 -34 1 -34 2 -33 41 2 39 4 41 33 41 29 0 31 -2 33 -42z
m140 3 c1 -44 1 -44 -33 -43 -33 1 -34 2 -32 38 1 34 4 38 32 42 16 2 30 5 30
5 1 1 2 -18 3 -42z m-1 -151 c1 -36 -16 -50 -47 -40 -13 4 -18 15 -17 38 1 30
4 33 32 34 29 1 31 -2 32 -32z"/>
<path d="M132 943 l-31 -13 24 -52 c14 -29 25 -61 25 -70 0 -9 5 -28 11 -42
11 -23 19 -25 69 -17 3 1 11 5 19 10 11 7 8 26 -18 104 -35 103 -37 105 -99
80z"/>
<path d="M38 659 c-19 -10 -24 -54 -9 -77 8 -13 23 -15 76 -9 l30 3 0 -150 0
-151 -54 -50 -53 -50 43 -37 44 -38 19 38 c40 80 50 82 147 38 106 -47 251
-81 324 -76 11 1 86 2 167 3 80 1 148 4 150 7 6 9 48 100 48 105 0 3 -17 2
-37 -2 -21 -3 -54 -7 -73 -8 -19 0 -57 -7 -85 -13 -48 -12 -163 -11 -250 3
-22 3 -51 8 -65 10 -72 11 -90 15 -140 35 -109 42 -102 24 -95 235 l6 185 -23
1 c-13 0 -52 3 -88 5 -36 2 -73 -1 -82 -7z"/>
</g>
</svg>
