<?xml version="1.0" standalone="no"?>
<!DOCTYPE svg PUBLIC "-//W3C//DTD SVG 20010904//EN"
 "http://www.w3.org/TR/2001/REC-SVG-20010904/DTD/svg10.dtd">
<svg version="1.0" xmlns="http://www.w3.org/2000/svg"
 width="101.000000pt" height="102.000000pt" viewBox="0 0 101.000000 102.000000"
 preserveAspectRatio="xMidYMid meet">
<metadata>
Created by potrace 1.16, written by Peter Selinger 2001-2019
</metadata>
<g transform="translate(0.000000,102.000000) scale(0.100000,-0.100000)"
fill="#000000" stroke="none">
<path d="M680 978 c-23 -78 -48 -118 -75 -118 -13 0 -27 5 -31 11 -3 6 -18 9
-32 6 -25 -5 -25 -4 -8 9 10 7 24 15 30 17 11 4 -3 28 -47 81 -25 31 -52 32
-92 2 -20 -14 -19 -15 11 -48 65 -71 68 -68 -49 -62 l-105 5 -6 -27 c-11 -44
4 -71 38 -65 5 1 59 3 121 5 111 3 113 2 108 -18 -2 -12 -5 -25 -5 -31 -1 -10
-112 -11 -138 -1 -8 3 -22 1 -30 -5 -11 -8 -12 -12 -2 -16 15 -6 17 -153 2
-153 -7 0 -9 -55 -8 -154 l3 -155 40 6 c43 6 166 6 335 1 l105 -3 3 236 c4
259 3 262 -53 233 -31 -16 -125 -19 -125 -4 0 6 -11 10 -25 10 -28 0 -29 1
-15 32 11 23 14 23 160 22 138 0 150 1 156 19 3 10 3 30 0 43 -6 23 -10 24
-54 19 -26 -3 -75 -2 -109 2 l-63 8 40 45 c21 25 39 48 40 52 0 5 -91 38 -105
38 -1 0 -8 -19 -15 -42z m74 -355 l-1 -38 -63 -3 c-43 -2 -66 1 -72 10 -8 10
-11 10 -15 1 -6 -15 -73 -18 -73 -3 0 6 -16 10 -35 10 -32 0 -35 3 -35 28 l0
27 148 3 147 3 -1 -38z m-63 -89 c64 -6 66 -6 66 -34 0 -28 -1 -29 -71 -34
-39 -4 -98 -4 -131 -1 -33 3 -69 6 -81 6 -16 1 -21 8 -21 30 0 22 4 28 16 24
9 -2 22 -1 30 4 17 11 99 13 192 5z m0 -120 l65 -6 1 -33 1 -33 -72 -6 c-39
-4 -98 -4 -131 -1 -33 3 -70 6 -81 6 -18 1 -22 7 -21 35 1 26 5 33 16 29 9 -2
22 -1 30 4 17 11 98 13 192 5z"/>
<path d="M123 935 l-31 -14 24 -58 c13 -32 24 -67 24 -78 1 -40 13 -47 63 -34
26 6 47 15 47 20 0 4 -14 46 -31 93 -33 92 -38 96 -96 71z"/>
<path d="M207 654 c-3 -4 -42 -6 -85 -5 -78 2 -80 1 -86 -24 -11 -42 1 -64 40
-71 19 -3 44 -4 57 -2 21 4 22 1 20 -46 0 -28 2 -55 7 -61 9 -11 12 -131 4
-157 -3 -9 -33 -38 -67 -64 -34 -25 -62 -49 -62 -53 0 -4 17 -22 37 -40 l37
-32 42 45 c46 51 59 53 143 16 52 -22 117 -41 159 -46 16 -2 32 -6 37 -9 5 -3
20 0 34 6 20 10 32 8 60 -5 27 -13 41 -14 55 -6 12 6 66 9 132 6 62 -2 120 -1
129 1 9 2 22 23 29 46 6 23 14 48 17 55 7 16 -86 11 -138 -8 -29 -11 -43 -11
-62 -2 -18 8 -34 8 -52 2 -29 -11 -124 -15 -169 -7 -16 3 -49 8 -73 11 -24 3
-79 17 -122 31 -78 26 -78 26 -85 66 -5 26 -3 45 6 55 9 11 9 18 1 26 -15 15
-16 75 -2 83 14 8 10 178 -4 187 -14 9 -31 10 -39 2z"/>
</g>
</svg>
