<?xml version="1.0" standalone="no"?>
<!DOCTYPE svg PUBLIC "-//W3C//DTD SVG 20010904//EN"
 "http://www.w3.org/TR/2001/REC-SVG-20010904/DTD/svg10.dtd">
<svg version="1.0" xmlns="http://www.w3.org/2000/svg"
 width="101.000000pt" height="101.000000pt" viewBox="0 0 101.000000 101.000000"
 preserveAspectRatio="xMidYMid meet">
<metadata>
Created by potrace 1.16, written by Peter Selinger 2001-2019
</metadata>
<g transform="translate(0.000000,101.000000) scale(0.100000,-0.100000)"
fill="#000000" stroke="none">
<path d="M505 978 c-16 -5 -37 -12 -45 -16 -8 -3 -28 -7 -45 -8 -16 0 -38 -2
-47 -2 -22 -2 -34 -47 -18 -67 15 -19 4 -166 -15 -192 -13 -17 -10 -25 31 -81
1 -2 41 20 88 49 72 44 88 50 101 39 12 -10 21 -10 40 -2 37 17 30 8 -17 -23
l-42 -28 45 -22 44 -23 -35 -6 c-32 -6 -127 -3 -207 7 -25 3 -34 -1 -38 -14
-8 -24 -3 -92 7 -106 5 -6 7 -58 5 -116 l-4 -105 36 5 c20 3 79 5 131 5 52 -1
123 -1 158 -1 34 -1 79 0 100 1 20 1 49 -2 64 -6 27 -8 28 -8 21 25 -9 38 -8
224 0 282 5 38 5 39 -21 31 -23 -7 -108 -8 -190 -3 -21 1 -21 3 13 40 39 43
83 135 89 183 2 17 4 34 5 37 0 4 11 6 24 5 21 -1 22 -5 21 -73 0 -40 -3 -76
-8 -80 -4 -4 -23 -6 -42 -4 -38 3 -39 1 -20 -54 17 -49 37 -54 99 -25 58 27
64 45 72 199 l6 123 -89 -7 c-60 -5 -92 -3 -96 4 -7 10 -66 13 -98 4 -10 -2
-18 -12 -18 -21 0 -10 -10 -3 -27 21 -28 40 -32 41 -78 25z m107 -92 c2 -16
10 -21 34 -21 33 0 33 -1 19 -69 -7 -35 -23 -66 -33 -66 -4 0 -22 29 -40 65
-17 36 -37 65 -43 65 -9 0 -47 -17 -57 -25 -2 -2 3 -16 12 -32 l15 -30 -43
-21 -44 -21 2 77 c1 75 2 77 26 79 46 3 90 10 94 14 3 2 16 5 30 5 18 1 26 -4
28 -20z m-57 -386 c0 -34 -1 -35 -35 -32 -19 1 -44 3 -56 3 -16 1 -21 8 -21
30 0 22 4 28 16 24 9 -2 23 0 31 5 8 6 26 9 40 8 21 -3 25 -8 25 -38z m200 32
c6 -4 11 -19 12 -35 1 -21 -5 -29 -24 -33 -13 -4 -35 -2 -49 4 -13 7 -30 9
-37 6 -10 -3 -14 4 -14 26 0 23 4 29 16 25 9 -2 23 0 31 5 18 11 51 13 65 2z
m-200 -157 c0 -40 0 -40 -35 -37 -19 1 -45 3 -56 3 -18 1 -22 7 -21 35 1 26 5
33 16 29 9 -2 23 0 31 5 8 6 26 9 40 8 22 -3 25 -8 25 -43z m200 37 c6 -4 11
-22 12 -39 2 -28 -2 -34 -23 -39 -14 -4 -36 -2 -50 4 -13 7 -30 9 -38 6 -11
-4 -14 3 -13 30 1 28 5 35 16 31 9 -2 23 0 31 5 18 11 51 13 65 2z"/>
<path d="M148 963 c-36 -15 -49 -35 -29 -47 7 -5 51 -118 67 -173 2 -10 14 -9
50 2 25 7 48 16 51 18 5 6 -90 217 -97 216 -3 -1 -22 -8 -42 -16z"/>
<path d="M54 693 c-16 -12 -26 -50 -19 -72 5 -17 14 -19 60 -18 l55 2 0 -37
c0 -21 5 -38 10 -38 15 0 12 -67 -2 -73 -10 -4 -10 -7 0 -15 10 -6 11 -23 6
-61 -6 -48 -11 -56 -56 -92 -28 -21 -57 -43 -66 -48 -15 -8 -14 -14 8 -60 l24
-52 58 62 c38 39 64 59 73 55 9 -3 43 -24 76 -46 56 -39 167 -86 177 -76 2 3
15 1 29 -5 16 -6 31 -5 44 2 16 8 29 7 55 -6 25 -12 39 -13 54 -5 12 6 68 9
150 6 100 -4 130 -2 130 7 0 7 9 30 20 52 11 21 18 40 17 42 -7 6 -77 4 -168
-6 -90 -10 -194 -9 -264 3 -16 3 -49 8 -71 10 -54 7 -140 46 -181 82 -32 28
-33 31 -33 109 0 44 2 109 5 145 8 82 9 119 4 124 -9 9 -185 16 -195 9z"/>
</g>
</svg>
