<?xml version="1.0" standalone="no"?>
<!DOCTYPE svg PUBLIC "-//W3C//DTD SVG 20010904//EN"
 "http://www.w3.org/TR/2001/REC-SVG-20010904/DTD/svg10.dtd">
<svg version="1.0" xmlns="http://www.w3.org/2000/svg"
 width="57.000000pt" height="102.000000pt" viewBox="0 0 57.000000 102.000000"
 preserveAspectRatio="xMidYMid meet">
<metadata>
Created by potrace 1.16, written by Peter Selinger 2001-2019
</metadata>
<g transform="translate(0.000000,102.000000) scale(0.100000,-0.100000)"
fill="#000000" stroke="none">
<path d="M258 986 c3 -27 0 -37 -17 -45 -12 -7 -21 -9 -21 -7 0 10 -95 -36
-117 -56 -32 -30 -55 -84 -59 -142 -7 -88 46 -154 155 -193 l46 -16 0 -133 c0
-91 -4 -134 -11 -134 -21 0 -78 45 -96 76 -10 17 -20 45 -22 63 -2 17 -5 34
-8 36 -2 3 -24 -3 -47 -12 -40 -16 -42 -19 -37 -47 3 -17 19 -56 34 -86 22
-43 39 -62 81 -87 30 -18 56 -32 60 -31 3 0 16 0 28 -1 19 -1 21 -5 16 -34 -5
-35 15 -67 42 -67 24 0 45 31 45 66 0 19 3 33 8 32 15 -4 88 25 120 49 18 13
43 46 57 73 21 41 24 58 19 112 -8 96 -51 146 -160 188 l-49 18 0 116 c0 64 3
116 6 116 12 0 59 -42 70 -61 6 -11 12 -30 14 -41 7 -35 20 -40 64 -27 46 14
47 18 26 80 -25 71 -105 138 -170 144 -5 1 -9 7 -7 14 2 8 0 27 -3 42 -6 25
-12 29 -39 29 -31 0 -32 -2 -28 -34z m-13 -246 c0 -60 -1 -110 -3 -110 -1 0
-21 9 -43 20 -44 23 -52 37 -52 84 0 55 13 77 56 96 23 10 42 19 42 19 0 1 0
-48 0 -109z m132 -258 c37 -20 52 -48 54 -98 1 -28 -4 -59 -12 -72 -16 -25
-66 -52 -84 -45 -18 6 -29 101 -14 119 6 7 9 35 7 63 -3 52 4 57 49 33z"/>
</g>
</svg>
