<?xml version="1.0" standalone="no"?>
<!DOCTYPE svg PUBLIC "-//W3C//DTD SVG 20010904//EN"
 "http://www.w3.org/TR/2001/REC-SVG-20010904/DTD/svg10.dtd">
<svg version="1.0" xmlns="http://www.w3.org/2000/svg"
 width="101.000000pt" height="101.000000pt" viewBox="0 0 101.000000 101.000000"
 preserveAspectRatio="xMidYMid meet">
<metadata>
Created by potrace 1.16, written by Peter Selinger 2001-2019
</metadata>
<g transform="translate(0.000000,101.000000) scale(0.100000,-0.100000)"
fill="#000000" stroke="none">
<path d="M198 983 c-12 -3 -16 -15 -16 -48 0 -25 4 -47 9 -51 12 -7 11 -66 -2
-121 -14 -55 -4 -66 56 -59 22 3 89 6 149 6 63 0 115 5 122 11 15 13 181 2
190 -12 7 -11 75 -11 92 -1 10 7 10 15 2 36 -13 34 -13 103 -1 111 5 3 9 32 9
64 l-1 58 -56 -6 c-31 -3 -99 -5 -151 -4 -193 4 -369 11 -377 15 -4 3 -15 3
-25 1z m242 -94 c0 -8 35 -10 128 -5 l127 8 0 -45 0 -44 -205 1 -205 1 0 38
-1 37 43 0 c24 0 43 5 43 10 0 6 16 10 35 10 19 0 35 -5 35 -11z"/>
<path d="M149 662 c-18 -8 -27 -116 -10 -127 13 -8 15 -52 2 -59 -12 -8 -13
-114 0 -122 6 -3 9 -40 7 -89 -2 -58 1 -87 11 -99 21 -25 130 -49 206 -46 11
1 114 2 230 3 188 2 214 4 250 22 37 19 65 54 79 101 5 18 -2 25 -46 47 -58
29 -70 27 -68 -11 1 -15 2 -32 1 -39 -1 -15 -67 -36 -92 -30 -10 3 -40 -1 -66
-9 -47 -14 -172 -14 -253 1 -19 4 -53 8 -75 10 -86 5 -94 16 -85 110 l5 50
120 2 c225 5 395 0 435 -11 36 -9 55 6 41 32 -13 25 -15 99 -1 107 5 3 9 39 8
79 l-1 74 -39 6 c-21 4 -47 2 -58 -4 -30 -16 -430 -13 -545 4 -22 3 -47 2 -56
-2z m283 -142 l3 -60 -100 2 -100 3 0 48 c0 45 1 47 28 47 15 0 27 5 27 10 0
6 30 10 69 10 l69 0 4 -60z m302 48 c2 -1 6 -26 8 -54 l5 -51 -106 1 -106 1
-1 59 0 59 99 -6 c54 -3 100 -7 101 -9z"/>
</g>
</svg>
