<?xml version="1.0" standalone="no"?>
<!DOCTYPE svg PUBLIC "-//W3C//DTD SVG 20010904//EN"
 "http://www.w3.org/TR/2001/REC-SVG-20010904/DTD/svg10.dtd">
<svg version="1.0" xmlns="http://www.w3.org/2000/svg"
 width="101.000000pt" height="102.000000pt" viewBox="0 0 101.000000 102.000000"
 preserveAspectRatio="xMidYMid meet">
<metadata>
Created by potrace 1.16, written by Peter Selinger 2001-2019
</metadata>
<g transform="translate(0.000000,102.000000) scale(0.100000,-0.100000)"
fill="#000000" stroke="none">
<path d="M244 988 c-4 -18 -9 -36 -10 -40 -1 -5 -2 -14 -3 -20 -1 -9 -20 -13
-58 -13 l-58 0 2 -35 c2 -19 3 -70 3 -114 0 -43 4 -84 11 -92 10 -12 1 -113
-15 -154 -3 -8 -1 -22 4 -30 7 -12 36 -15 150 -15 l140 0 1 -55 c1 -30 0 -59
-1 -65 -1 -5 -3 -30 -5 -54 -4 -57 -24 -73 -87 -68 -52 5 -55 0 -33 -43 8 -16
15 -33 14 -37 -6 -38 34 -39 109 -1 59 29 82 62 87 123 18 190 22 271 13 281
-4 3 -72 6 -153 7 l-147 2 6 47 c4 28 2 49 -4 53 -13 8 -13 48 1 62 6 6 9 33
8 60 l-4 48 91 1 91 2 -4 -51 c-2 -40 -8 -56 -25 -69 -25 -19 -58 -24 -58 -8
0 6 -7 10 -16 10 -11 0 -14 -5 -9 -17 4 -10 11 -32 16 -50 6 -18 14 -35 19
-38 10 -6 85 16 121 36 29 15 49 74 47 137 -1 32 1 63 5 69 4 7 5 23 1 37 -6
25 -7 26 -99 23 -103 -2 -102 -4 -53 66 l20 28 -26 -7 c-16 -4 -26 -2 -26 5 0
6 -13 11 -29 11 -25 0 -31 -5 -37 -32z"/>
<path d="M575 954 c-17 -17 -20 -50 -5 -59 12 -7 12 -173 -1 -180 -12 -8 -12
-142 1 -150 13 -8 13 -52 0 -60 -13 -8 -12 -213 2 -221 10 -6 5 -127 -8 -180
-6 -25 13 -33 68 -26 44 5 53 22 33 69 -17 40 -20 109 -5 118 12 7 11 113 -1
121 -12 7 -11 51 1 59 12 7 12 153 0 160 -12 8 -11 147 1 161 6 8 9 35 7 61
l-3 48 60 0 c62 0 82 -10 63 -32 -6 -8 -8 -16 -5 -19 3 -3 -10 -50 -29 -103
l-35 -97 40 -60 c53 -80 79 -179 56 -211 -10 -14 -27 -18 -74 -18 -34 1 -61
-1 -61 -3 0 -2 9 -17 20 -32 11 -16 23 -42 26 -59 6 -26 10 -29 36 -26 85 11
168 84 168 150 0 48 -38 150 -80 212 l-37 55 59 160 c32 88 58 161 58 164 0 2
-52 1 -115 -2 -70 -4 -120 -2 -128 4 -19 16 -95 13 -112 -4z"/>
<path d="M329 420 c-19 -11 -105 -26 -194 -34 -38 -3 -95 -16 -95 -20 0 -7 32
-96 35 -96 1 0 22 7 45 15 24 8 59 18 79 21 20 3 47 7 61 10 14 2 40 5 58 7
41 5 42 7 47 55 4 42 -9 57 -36 42z"/>
</g>
</svg>
