<?xml version="1.0" standalone="no"?>
<!DOCTYPE svg PUBLIC "-//W3C//DTD SVG 20010904//EN"
 "http://www.w3.org/TR/2001/REC-SVG-20010904/DTD/svg10.dtd">
<svg version="1.0" xmlns="http://www.w3.org/2000/svg"
 width="101.000000pt" height="101.000000pt" viewBox="0 0 101.000000 101.000000"
 preserveAspectRatio="xMidYMid meet">
<metadata>
Created by potrace 1.16, written by Peter Selinger 2001-2019
</metadata>
<g transform="translate(0.000000,101.000000) scale(0.100000,-0.100000)"
fill="#000000" stroke="none">
<path d="M95 940 c-12 -54 0 -70 55 -70 27 0 50 5 52 11 2 7 26 8 73 4 l70 -7
0 -114 0 -114 -71 3 c-69 2 -71 3 -63 24 15 41 49 102 59 108 22 13 8 31 -37
47 -26 10 -51 14 -55 10 -7 -7 -16 -43 -24 -95 -5 -34 -20 -65 -46 -93 -18
-20 -18 -23 -3 -62 14 -35 20 -40 43 -36 15 3 43 6 62 8 19 2 46 7 59 11 22 8
21 5 -14 -50 -53 -84 -102 -139 -168 -192 l-58 -47 33 -33 c17 -18 37 -33 43
-33 19 0 188 201 230 274 7 12 10 -18 10 -102 0 -66 -3 -124 -8 -128 -4 -4
-28 -7 -52 -7 -25 1 -45 -1 -45 -3 0 -3 7 -16 16 -30 9 -13 14 -27 11 -31 -4
-3 -2 -14 4 -25 21 -39 132 -8 160 44 8 15 13 79 13 190 l1 166 33 4 c17 2 36
0 40 -4 14 -14 42 2 48 28 13 49 -2 57 -104 58 -23 0 -23 1 -20 111 l3 110 52
-1 c59 -1 70 12 58 67 -5 23 -11 29 -23 24 -33 -13 -222 -19 -222 -6 0 6 -17
11 -40 11 -22 0 -40 -4 -40 -10 0 -5 -25 -10 -55 -10 -30 0 -55 5 -55 10 0 23
-19 8 -25 -20z"/>
<path d="M586 951 c-8 -30 -5 -90 4 -96 12 -8 12 -173 -1 -180 -12 -8 -12
-142 1 -150 13 -8 13 -52 0 -60 -13 -8 -12 -206 2 -222 7 -8 9 -35 5 -72 -7
-66 -1 -72 62 -63 28 4 32 7 26 26 -13 39 -17 116 -7 129 13 15 14 115 1 123
-12 7 -11 51 1 59 12 7 12 153 0 160 -12 8 -11 147 1 161 6 8 9 35 7 61 l-3
48 72 0 c84 0 82 16 20 -144 -36 -94 -39 -107 -26 -127 64 -101 74 -123 79
-172 8 -67 -4 -78 -77 -74 -29 2 -53 1 -53 -2 0 -3 9 -25 19 -48 11 -24 22
-51 25 -61 7 -21 37 -16 113 19 41 20 55 33 72 69 12 25 21 51 21 58 0 25 -41
123 -72 172 -17 27 -31 61 -31 75 0 14 24 92 52 174 29 81 50 150 48 152 -2 2
-28 0 -58 -5 -73 -12 -207 -13 -214 -1 -10 16 -84 9 -89 -9z"/>
</g>
</svg>
