<?xml version="1.0" standalone="no"?>
<!DOCTYPE svg PUBLIC "-//W3C//DTD SVG 20010904//EN"
 "http://www.w3.org/TR/2001/REC-SVG-20010904/DTD/svg10.dtd">
<svg version="1.0" xmlns="http://www.w3.org/2000/svg"
 width="101.000000pt" height="101.000000pt" viewBox="0 0 101.000000 101.000000"
 preserveAspectRatio="xMidYMid meet">
<metadata>
Created by potrace 1.16, written by Peter Selinger 2001-2019
</metadata>
<g transform="translate(0.000000,101.000000) scale(0.100000,-0.100000)"
fill="#000000" stroke="none">
<path d="M410 974 c-58 -19 -109 -26 -195 -28 -38 -1 -75 -3 -81 -4 -8 -1 -10
-55 -8 -174 4 -171 5 -318 3 -390 -1 -28 -5 -38 -17 -39 -10 -1 -21 -2 -27 -4
-5 -1 -17 -3 -25 -4 -37 -4 -42 -16 -24 -62 10 -24 18 -45 18 -46 1 -1 39 9
86 22 46 14 86 23 88 20 3 -2 13 0 22 5 10 5 35 12 56 15 22 4 50 8 64 11 29
6 83 14 120 18 14 2 28 4 31 5 10 2 20 32 25 74 5 35 3 38 -15 32 -11 -3 -28
-7 -38 -9 -10 -2 -22 -5 -28 -6 -40 -9 -42 -3 -41 109 l1 109 53 4 c60 5 74
18 70 63 -3 34 17 32 -198 20 l-136 -7 1 74 c0 58 3 74 15 76 8 1 35 3 60 6
25 2 65 6 90 9 117 13 190 13 190 0 0 -7 5 -13 10 -13 6 0 10 -16 10 -35 0
-19 -4 -35 -10 -35 -6 0 -10 -30 -10 -70 0 -40 4 -70 10 -70 6 0 10 -11 10
-25 0 -14 -4 -25 -10 -25 -6 0 -10 -40 -10 -100 0 -60 4 -100 10 -100 6 0 10
-30 10 -70 0 -40 -4 -70 -10 -70 -11 0 -14 -110 -4 -147 7 -24 30 -33 69 -26
l26 6 0 111 c-1 61 -1 148 -1 194 0 45 0 121 0 170 0 48 1 135 2 195 l3 107
31 0 c17 0 45 3 62 6 26 5 30 3 27 -12 -2 -11 -4 -19 -5 -19 -1 0 -4 -11 -5
-25 -2 -14 -20 -69 -40 -123 l-36 -97 40 -47 c103 -123 98 -223 -10 -229 -22
-1 -42 -4 -45 -6 -2 -2 5 -22 16 -43 11 -22 20 -45 20 -52 0 -16 5 -16 67 2
63 19 98 46 123 96 22 42 25 79 10 107 -5 9 -17 34 -26 55 -9 21 -36 59 -59
85 -31 34 -41 52 -35 63 10 18 94 262 103 301 l7 26 -105 -5 c-63 -3 -111 -1
-118 5 -15 13 -86 13 -109 1 -10 -5 -18 -19 -18 -31 0 -18 -6 -15 -36 20 -39
46 -52 49 -124 26z m-75 -466 c0 -71 -2 -128 -5 -129 -3 0 -14 -2 -25 -4 -38
-6 -79 -16 -86 -21 -4 -2 -7 60 -6 138 l2 143 60 0 60 0 0 -127z"/>
</g>
</svg>
