<?xml version="1.0" standalone="no"?>
<!DOCTYPE svg PUBLIC "-//W3C//DTD SVG 20010904//EN"
 "http://www.w3.org/TR/2001/REC-SVG-20010904/DTD/svg10.dtd">
<svg version="1.0" xmlns="http://www.w3.org/2000/svg"
 width="101.000000pt" height="101.000000pt" viewBox="0 0 101.000000 101.000000"
 preserveAspectRatio="xMidYMid meet">
<metadata>
Created by potrace 1.16, written by Peter Selinger 2001-2019
</metadata>
<g transform="translate(0.000000,101.000000) scale(0.100000,-0.100000)"
fill="#000000" stroke="none">
<path d="M200 968 c-19 -64 -54 -129 -109 -201 l-49 -66 36 -15 c21 -8 29 -15
20 -15 -21 -1 -33 -53 -18 -80 12 -23 65 -30 72 -10 3 8 42 10 141 4 l138 -7
-3 -41 -3 -42 -167 4 -166 3 -7 -31 c-3 -17 -4 -40 0 -51 6 -20 12 -20 169
-15 l162 5 -1 -52 c0 -29 -4 -56 -10 -60 -18 -13 -163 -9 -169 5 -5 9 -7 9
-12 0 -7 -15 -74 -18 -74 -3 0 6 -18 10 -40 10 -35 0 -42 -4 -51 -27 -5 -15
-8 -38 -4 -50 5 -21 9 -23 53 -17 97 12 149 14 229 8 l82 -6 -5 -38 c-6 -42 7
-51 63 -43 34 5 47 31 34 67 -5 11 -5 113 -1 226 3 113 5 213 2 222 -3 14 -15
17 -67 15 l-63 -2 59 117 c33 65 59 120 59 122 0 3 -47 4 -105 3 -58 -1 -105
-1 -105 1 0 2 12 18 26 37 24 32 25 34 6 44 -10 5 -28 7 -40 4 -13 -3 -22 -1
-22 6 0 6 -11 11 -23 11 -19 0 -26 -8 -37 -42z m160 -158 c0 -3 -17 -36 -38
-74 l-37 -69 -73 -1 c-39 -1 -72 0 -72 2 0 2 22 35 49 75 l48 72 62 0 c33 0
61 -2 61 -5z"/>
<path d="M598 954 c-15 -5 -18 -17 -18 -70 0 -36 4 -64 10 -64 6 0 10 -16 10
-35 0 -19 -4 -35 -10 -35 -6 0 -10 -30 -10 -70 0 -40 4 -70 10 -70 6 0 10 -11
10 -25 0 -14 -4 -25 -10 -25 -6 0 -10 -40 -10 -100 0 -69 4 -100 11 -100 14 0
6 -170 -9 -211 -17 -43 0 -54 73 -51 l30 2 -2 133 c-3 173 -3 278 0 472 l2
160 56 0 c68 0 68 6 8 -157 l-40 -109 39 -43 c54 -58 75 -102 75 -154 0 -53
-12 -66 -60 -64 -55 3 -69 -9 -49 -40 9 -14 19 -36 21 -48 2 -13 6 -24 7 -25
16 -16 95 5 141 37 81 57 70 175 -30 311 -21 28 -36 54 -34 57 9 13 101 297
101 312 0 3 -16 9 -36 12 -25 5 -43 3 -59 -8 -27 -18 -71 -21 -80 -6 -4 6 -18
10 -33 10 -15 0 -43 2 -62 4 -19 3 -43 2 -52 0z"/>
</g>
</svg>
