<?xml version="1.0" standalone="no"?>
<!DOCTYPE svg PUBLIC "-//W3C//DTD SVG 20010904//EN"
 "http://www.w3.org/TR/2001/REC-SVG-20010904/DTD/svg10.dtd">
<svg version="1.0" xmlns="http://www.w3.org/2000/svg"
 width="101.000000pt" height="101.000000pt" viewBox="0 0 101.000000 101.000000"
 preserveAspectRatio="xMidYMid meet">
<metadata>
Created by potrace 1.16, written by Peter Selinger 2001-2019
</metadata>
<g transform="translate(0.000000,101.000000) scale(0.100000,-0.100000)"
fill="#000000" stroke="none">
<path d="M378 993 c-24 -6 -29 -49 -22 -173 3 -58 5 -150 4 -205 -3 -267 -6
-321 -13 -332 -4 -7 1 -30 13 -52 l20 -40 100 76 99 76 -3 39 c-3 22 -7 42
-10 45 -3 3 -29 -12 -58 -35 -29 -22 -53 -40 -53 -39 -1 1 1 72 3 158 l4 157
37 6 c20 3 46 3 58 0 15 -4 23 0 28 15 16 52 -18 77 -94 69 l-40 -3 -7 54 c-5
38 -3 56 5 59 6 2 11 27 11 62 0 68 -16 81 -82 63z"/>
<path d="M206 960 c-8 -30 -5 -89 4 -95 10 -6 14 -74 5 -97 -4 -9 -21 -12 -53
-11 -69 4 -89 -3 -96 -32 -10 -41 3 -50 72 -50 l63 0 4 -127 4 -126 -65 -26
c-35 -14 -70 -26 -77 -26 -34 -1 -39 -17 -18 -59 12 -22 24 -41 27 -41 3 0 18
8 32 18 15 10 43 28 62 40 l36 21 -3 -60 c-1 -33 -4 -63 -7 -67 -12 -19 15
-36 55 -35 23 1 44 4 46 7 7 7 6 109 -2 171 -9 84 -3 554 8 572 15 24 -4 39
-48 38 -32 0 -46 -5 -49 -15z"/>
<path d="M604 943 c-7 -5 -10 -39 -8 -93 2 -47 3 -102 3 -122 0 -53 1 -266 1
-368 0 -47 -2 -128 -4 -181 -5 -108 -3 -111 63 -101 30 4 32 7 26 31 -15 59
-17 104 -5 126 7 13 10 35 8 49 -3 14 -1 26 4 26 12 0 48 -61 48 -82 0 -10 7
-18 15 -18 29 0 122 41 142 63 29 31 53 91 43 108 -5 7 -7 16 -5 20 6 9 -41
105 -78 159 -17 25 -30 47 -28 50 8 11 111 324 107 327 -7 8 -322 13 -332 6z
m197 -107 c7 -9 -28 -135 -44 -154 -5 -7 -7 -15 -4 -18 3 -3 -1 -23 -8 -44
-13 -38 -13 -40 17 -77 62 -77 87 -168 55 -200 -9 -10 -37 -17 -69 -19 -49 -3
-54 -1 -66 24 -15 31 -16 59 -2 67 12 7 12 153 0 160 -12 8 -11 147 1 161 6 8
9 35 7 61 l-3 48 55 0 c30 0 58 -4 61 -9z"/>
</g>
</svg>
