<?xml version="1.0" standalone="no"?>
<!DOCTYPE svg PUBLIC "-//W3C//DTD SVG 20010904//EN"
 "http://www.w3.org/TR/2001/REC-SVG-20010904/DTD/svg10.dtd">
<svg version="1.0" xmlns="http://www.w3.org/2000/svg"
 width="101.000000pt" height="102.000000pt" viewBox="0 0 101.000000 102.000000"
 preserveAspectRatio="xMidYMid meet">
<metadata>
Created by potrace 1.16, written by Peter Selinger 2001-2019
</metadata>
<g transform="translate(0.000000,102.000000) scale(0.100000,-0.100000)"
fill="#000000" stroke="none">
<path d="M265 949 l-17 -69 -77 5 c-42 2 -85 6 -95 7 -23 4 -41 -41 -32 -76 6
-23 10 -24 86 -22 61 1 79 -2 75 -12 -12 -31 -88 -131 -133 -176 l-50 -48 26
-51 26 -50 46 52 45 51 0 -225 c0 -246 -4 -231 60 -226 37 4 46 17 34 49 -9
23 -12 89 -8 152 1 23 5 25 53 23 28 0 56 3 63 9 22 18 58 5 60 -22 1 -14 4
-36 5 -49 4 -30 -36 -55 -62 -41 -9 5 -26 6 -38 3 l-21 -5 20 -36 c10 -20 19
-44 19 -53 0 -9 9 -19 21 -22 28 -8 104 27 123 55 19 30 35 288 17 288 -7 0
-11 26 -11 75 0 43 4 75 10 75 6 0 10 22 10 49 l0 50 -55 -6 c-35 -4 -64 -1
-78 6 -12 6 -45 10 -74 9 l-51 -4 23 39 23 39 123 1 c69 1 127 6 131 12 23 31
-8 106 -35 88 -13 -9 -187 -11 -187 -3 0 3 13 21 30 40 16 19 29 40 30 47 0
11 -56 34 -97 39 -19 2 -23 -6 -38 -67z m141 -317 c6 -4 13 -19 16 -34 l5 -27
-86 2 -86 2 -2 33 -2 32 72 0 c40 0 77 -4 83 -8z m16 -179 c3 -25 0 -33 -17
-37 -33 -9 -75 -7 -75 4 0 6 -16 10 -35 10 -24 0 -35 5 -35 14 0 8 -2 20 -5
28 -4 10 13 13 79 13 l84 0 4 -32z"/>
<path d="M592 909 c-1 -21 3 -41 8 -44 12 -8 11 -173 -1 -180 -12 -8 -12 -142
1 -150 13 -8 13 -52 0 -60 -13 -8 -12 -206 2 -222 10 -13 7 -75 -7 -134 -8
-31 8 -38 67 -31 l37 4 -7 62 c-4 33 -6 99 -5 146 1 47 2 117 3 155 0 39 0 86
0 105 1 19 2 92 3 163 l2 127 30 0 c17 0 47 3 67 6 l37 6 -25 -83 c-14 -45
-36 -106 -48 -134 l-23 -51 40 -44 c52 -59 88 -136 81 -175 -7 -42 -43 -78
-69 -70 -29 9 -75 13 -75 6 0 -3 7 -15 16 -26 8 -11 19 -36 24 -56 12 -43 28
-44 103 -9 64 30 107 97 107 167 0 33 -51 141 -86 182 -19 23 -28 43 -25 60 2
21 47 148 100 283 l10 27 -110 -6 c-66 -3 -114 -1 -122 5 -7 5 -40 10 -73 10
l-62 0 0 -39z"/>
</g>
</svg>
