<?xml version="1.0" standalone="no"?>
<!DOCTYPE svg PUBLIC "-//W3C//DTD SVG 20010904//EN"
 "http://www.w3.org/TR/2001/REC-SVG-20010904/DTD/svg10.dtd">
<svg version="1.0" xmlns="http://www.w3.org/2000/svg"
 width="101.000000pt" height="102.000000pt" viewBox="0 0 101.000000 102.000000"
 preserveAspectRatio="xMidYMid meet">
<metadata>
Created by potrace 1.16, written by Peter Selinger 2001-2019
</metadata>
<g transform="translate(0.000000,102.000000) scale(0.100000,-0.100000)"
fill="#000000" stroke="none">
<path d="M262 961 c-33 -85 -114 -202 -183 -264 l-61 -56 29 -15 c42 -21 58
-42 38 -50 -16 -6 -21 -62 -7 -84 6 -9 45 -11 165 -7 l158 5 -37 -57 c-58 -93
-58 -93 -102 -50 -21 20 -43 37 -50 37 -7 0 -28 -10 -46 -22 l-34 -23 69 -72
c37 -40 85 -97 105 -128 20 -30 39 -55 41 -55 11 0 83 52 83 59 0 5 -15 29
-33 53 l-34 44 34 49 c52 76 143 230 143 241 0 7 -20 9 -52 7 -29 -2 -69 -3
-88 -3 -19 1 -92 2 -163 3 -70 1 -127 5 -127 8 0 4 7 13 16 20 21 18 91 108
147 192 l45 68 95 -90 c52 -50 98 -91 103 -91 4 0 22 13 39 30 l30 29 2 -162
c5 -344 4 -413 -10 -435 -15 -23 3 -51 38 -58 45 -8 80 3 65 21 -8 10 -10 73
-5 219 5 147 4 206 -4 206 -6 0 -11 11 -11 25 0 14 5 25 10 25 6 0 10 30 10
70 0 40 -4 70 -10 70 -5 0 -10 16 -10 35 0 19 5 35 10 35 6 0 10 18 10 40 0
32 4 40 18 40 10 0 23 5 29 11 16 16 88 7 88 -11 1 -16 -42 -148 -70 -217
l-17 -43 31 -35 c48 -55 73 -112 74 -168 0 -65 -16 -78 -89 -72 -30 3 -54 2
-54 -1 0 -3 9 -18 19 -33 11 -15 23 -40 27 -55 3 -15 13 -30 20 -33 23 -9 122
37 149 69 41 49 50 97 30 159 -19 58 -45 108 -81 151 l-23 28 55 162 c30 89
54 165 54 168 0 3 -19 6 -42 7 -24 1 -90 4 -148 8 -58 3 -120 3 -138 0 l-32
-6 4 -100 c4 -76 2 -98 -7 -92 -7 4 -49 38 -95 75 -45 37 -90 72 -100 78 -16
9 -15 11 6 29 32 28 28 39 -20 52 -81 23 -82 23 -106 -40z"/>
<path d="M271 739 c-19 -8 -19 -8 0 -58 10 -28 17 -51 14 -51 -3 0 -1 -9 5
-20 9 -17 19 -20 51 -17 22 2 44 8 49 13 4 5 -3 39 -17 77 -24 62 -27 67 -54
65 -15 -1 -37 -5 -48 -9z"/>
</g>
</svg>
