<?xml version="1.0" standalone="no"?>
<!DOCTYPE svg PUBLIC "-//W3C//DTD SVG 20010904//EN"
 "http://www.w3.org/TR/2001/REC-SVG-20010904/DTD/svg10.dtd">
<svg version="1.0" xmlns="http://www.w3.org/2000/svg"
 width="101.000000pt" height="103.000000pt" viewBox="0 0 101.000000 103.000000"
 preserveAspectRatio="xMidYMid meet">
<metadata>
Created by potrace 1.16, written by Peter Selinger 2001-2019
</metadata>
<g transform="translate(0.000000,103.000000) scale(0.100000,-0.100000)"
fill="#000000" stroke="none">
<path d="M285 1018 c-22 -6 -41 -12 -43 -13 -1 -1 6 -22 17 -46 38 -89 38 -89
-13 -89 -25 0 -46 -4 -46 -10 0 -5 -11 -10 -25 -10 -14 0 -25 5 -25 10 0 6
-20 10 -45 10 -40 0 -47 -3 -56 -27 -15 -40 -4 -71 28 -77 16 -2 69 -2 118 1
50 3 149 5 221 4 l132 -1 6 26 c12 45 0 61 -51 68 -67 9 -113 7 -113 -4 0 -16
-47 -12 -53 5 -4 10 4 16 28 21 38 7 38 10 8 89 -20 54 -28 58 -88 43z"/>
<path d="M598 973 c-15 -4 -18 -15 -18 -59 0 -30 5 -54 10 -54 6 0 10 -16 10
-35 0 -19 -4 -35 -10 -35 -6 0 -10 -30 -10 -70 0 -40 4 -70 10 -70 6 0 10 -11
10 -25 0 -14 -4 -25 -10 -25 -6 0 -10 -40 -10 -100 0 -60 4 -100 10 -100 6 0
10 -30 10 -70 0 -41 -4 -70 -10 -70 -15 0 -11 -183 4 -192 14 -10 68 -10 81 0
13 9 17 200 4 207 -12 8 -12 52 1 60 12 7 12 153 0 160 -12 7 -11 146 0 160 6
7 9 58 8 116 l-3 104 62 2 c61 2 62 2 57 -24 -3 -15 -7 -30 -10 -35 -3 -4 -7
-18 -9 -30 -3 -13 -17 -57 -32 -99 l-26 -76 50 -61 c28 -34 54 -70 58 -82 3
-11 11 -20 16 -20 15 0 10 -48 -7 -75 -18 -27 -56 -42 -101 -39 -18 1 -33 1
-33 0 0 -5 48 -117 52 -121 7 -7 108 34 140 57 33 23 68 86 68 121 0 37 -54
138 -102 192 l-45 49 58 167 c48 139 55 168 43 173 -9 3 -23 2 -32 -3 -31 -16
-181 -24 -197 -11 -8 7 -23 10 -34 7 -10 -2 -24 -1 -32 3 -8 3 -22 5 -31 3z"/>
<path d="M160 690 c-25 -32 -64 -74 -87 -92 -23 -18 -42 -36 -43 -39 0 -4 18
-18 40 -32 l39 -27 72 80 c40 43 83 84 96 91 29 16 29 34 1 53 -53 34 -70 30
-118 -34z"/>
<path d="M365 724 l-30 -25 30 -22 c17 -12 56 -46 87 -75 l57 -54 35 28 c19
16 35 33 35 37 2 16 -152 137 -173 137 -6 -1 -24 -12 -41 -26z"/>
<path d="M369 580 c-3 -20 -4 -25 -13 -38 -4 -7 -6 -16 -3 -19 7 -7 -13 -63
-23 -63 -4 0 -28 23 -54 50 -50 54 -60 56 -106 20 l-25 -19 70 -65 70 -65 -40
-36 c-54 -48 -111 -88 -165 -115 -25 -12 -47 -24 -49 -26 -2 -1 13 -19 32 -39
32 -33 38 -35 59 -24 37 19 99 68 159 127 l57 54 38 -49 c22 -27 46 -60 55
-73 l16 -24 46 30 c26 16 47 31 47 34 0 3 -34 39 -75 80 l-74 74 39 76 c22 41
40 79 40 83 0 10 -63 37 -85 37 -8 0 -16 -4 -16 -10z"/>
</g>
</svg>
