<?xml version="1.0" standalone="no"?>
<!DOCTYPE svg PUBLIC "-//W3C//DTD SVG 20010904//EN"
 "http://www.w3.org/TR/2001/REC-SVG-20010904/DTD/svg10.dtd">
<svg version="1.0" xmlns="http://www.w3.org/2000/svg"
 width="101.000000pt" height="101.000000pt" viewBox="0 0 101.000000 101.000000"
 preserveAspectRatio="xMidYMid meet">
<metadata>
Created by potrace 1.16, written by Peter Selinger 2001-2019
</metadata>
<g transform="translate(0.000000,101.000000) scale(0.100000,-0.100000)"
fill="#000000" stroke="none">
<path d="M130 982 c-10 -4 -15 -22 -16 -49 l-1 -41 59 1 c48 2 57 -1 51 -13
-3 -8 -7 -26 -7 -40 -1 -23 -4 -25 -52 -24 -28 0 -56 4 -63 8 -18 11 -41 -13
-41 -43 0 -47 14 -56 85 -56 59 0 64 -1 59 -19 -3 -10 -7 -26 -9 -35 -2 -12
-13 -16 -53 -15 -55 2 -64 -9 -55 -60 5 -25 17 -31 56 -28 9 1 17 -2 17 -7 0
-12 -82 -121 -108 -144 l-21 -19 27 -39 c15 -21 30 -38 34 -39 3 0 26 27 50
60 23 33 46 60 49 60 4 0 7 -10 8 -22 1 -13 3 -49 5 -81 3 -34 -1 -75 -8 -95
-8 -21 -11 -51 -9 -69 5 -34 24 -44 67 -36 26 5 32 20 28 67 -2 13 2 16 14 12
8 -3 24 -1 35 5 12 6 37 8 59 4 36 -6 39 -9 35 -35 -4 -32 12 -40 64 -32 30 4
32 7 24 31 -9 29 -8 190 1 265 7 56 -3 70 -41 55 -25 -9 -131 -13 -178 -6 -16
2 -38 5 -48 6 -16 1 -16 3 -3 30 17 32 15 32 167 34 l107 2 7 67 c3 37 4 72 1
77 -3 5 2 7 12 4 11 -2 26 3 36 12 15 15 16 13 16 -29 0 -25 5 -46 10 -46 6 0
10 -11 10 -25 0 -14 -4 -25 -10 -25 -6 0 -10 -40 -10 -100 0 -60 4 -100 10
-100 6 0 10 -30 10 -70 0 -40 -4 -70 -10 -70 -11 0 -14 -99 -4 -148 7 -33 24
-41 71 -35 30 5 31 7 32 52 0 25 0 55 0 66 1 11 -4 85 -11 164 -8 106 -9 148
0 161 13 21 14 118 1 126 -12 7 -11 51 2 59 6 4 9 38 7 86 l-3 79 31 0 c17 0
46 3 64 7 31 6 33 5 26 -18 -4 -13 -9 -35 -12 -49 -3 -14 -16 -62 -29 -106
-14 -45 -25 -87 -25 -94 0 -7 18 -32 40 -57 43 -49 61 -98 54 -141 -8 -41 -22
-52 -70 -50 -23 1 -45 0 -48 -2 -2 -3 3 -28 12 -57 19 -59 36 -68 92 -48 79
28 113 66 103 117 -3 14 0 35 6 46 15 28 -9 92 -59 158 l-40 53 41 128 c22 70
45 143 52 161 13 40 -3 57 -43 46 -32 -9 -187 -8 -220 0 -14 4 -38 2 -53 -3
-24 -9 -27 -16 -27 -56 0 -25 5 -45 10 -45 16 0 12 -67 -5 -74 -9 -3 -15 0
-15 9 0 9 -10 13 -32 12 -31 -2 -33 0 -36 36 -2 21 1 44 7 50 5 7 9 27 9 45
-1 31 -2 32 -47 34 -25 1 -71 1 -101 -1 -102 -4 -175 -3 -205 2 -16 4 -37 3
-45 -1z m295 -128 l0 -44 -55 7 c-57 6 -74 18 -64 43 4 8 7 20 7 25 0 6 25 11
56 12 l56 1 0 -44z m0 -164 c0 -37 -2 -39 -37 -45 -20 -4 -46 -2 -57 4 -11 6
-26 8 -34 5 -10 -4 -14 1 -12 18 1 13 3 28 4 35 1 8 24 13 64 16 34 2 64 4 67
5 4 1 6 -16 5 -38z m-27 -256 c22 -4 30 -12 30 -28 1 -11 4 -34 7 -51 10 -54
-14 -64 -133 -55 -27 2 -39 41 -24 76 7 13 9 31 5 40 -5 13 -2 15 13 10 10 -3
26 -1 34 4 18 11 27 12 68 4z"/>
</g>
</svg>
