<?xml version="1.0" standalone="no"?>
<!DOCTYPE svg PUBLIC "-//W3C//DTD SVG 20010904//EN"
 "http://www.w3.org/TR/2001/REC-SVG-20010904/DTD/svg10.dtd">
<svg version="1.0" xmlns="http://www.w3.org/2000/svg"
 width="101.000000pt" height="102.000000pt" viewBox="0 0 101.000000 102.000000"
 preserveAspectRatio="xMidYMid meet">
<metadata>
Created by potrace 1.16, written by Peter Selinger 2001-2019
</metadata>
<g transform="translate(0.000000,102.000000) scale(0.100000,-0.100000)"
fill="#000000" stroke="none">
<path d="M280 1007 c-45 -14 -44 -11 -27 -44 38 -75 40 -73 -75 -70 l-103 2
-3 -31 c-5 -49 16 -62 102 -63 41 -1 78 3 81 9 8 13 52 13 60 -1 4 -5 17 -9
28 -8 65 5 64 7 26 -96 l-19 -50 -50 4 c-45 3 -49 4 -33 16 17 13 17 16 -7 62
-26 50 -34 53 -86 33 l-23 -9 19 -43 c29 -64 27 -68 -28 -62 -61 7 -102 -8
-102 -38 0 -43 15 -53 72 -51 29 2 74 3 101 3 26 1 57 1 70 2 12 0 83 0 157 0
90 0 137 4 142 12 5 6 8 -1 8 -16 0 -15 5 -30 10 -33 13 -8 13 -52 0 -60 -13
-8 -12 -206 2 -222 10 -13 7 -75 -7 -134 -8 -30 10 -39 62 -32 26 4 32 10 37
41 9 58 7 152 -4 152 -6 0 -10 32 -10 75 0 43 4 75 10 75 6 0 10 23 10 50 0
28 -4 50 -10 50 -5 0 -10 11 -10 25 0 14 5 25 10 25 6 0 10 30 10 70 0 40 -4
70 -10 70 -5 0 -10 11 -10 25 0 14 5 25 10 25 6 0 10 18 10 39 l0 39 54 4 c53
3 54 2 50 -22 -6 -40 -9 -54 -15 -65 -3 -5 -6 -23 -7 -39 -1 -16 -7 -35 -13
-43 -7 -7 -9 -16 -6 -19 3 -3 1 -20 -4 -39 -8 -30 -6 -37 21 -67 39 -41 60
-79 66 -121 3 -18 7 -42 9 -55 6 -38 -27 -62 -79 -60 -51 3 -64 -5 -47 -26 10
-12 15 -32 20 -77 3 -28 122 0 163 38 74 67 62 188 -32 311 -22 29 -38 57 -35
63 4 5 8 17 10 26 3 10 9 36 15 58 6 22 13 50 15 62 3 12 10 35 16 50 11 29
13 35 24 89 9 39 -14 51 -58 29 -32 -16 -69 -20 -81 -7 -4 4 -50 7 -101 7
l-93 0 0 -37 c0 -21 3 -40 8 -43 12 -8 11 -173 -1 -180 -5 -4 -9 -18 -9 -33 0
-20 -3 -23 -9 -13 -7 10 -30 15 -79 15 l-70 1 13 25 c7 14 25 36 39 49 14 14
26 28 26 32 0 5 -21 14 -46 22 -40 11 -44 15 -30 26 11 10 33 12 70 8 59 -6
71 3 60 47 -5 20 -14 24 -57 30 -29 3 -74 6 -102 6 -36 0 -46 3 -35 10 13 8
12 16 -10 57 -28 53 -32 55 -80 40z"/>
<path d="M116 494 c-3 -9 -3 -21 1 -27 19 -31 26 -216 9 -264 -16 -47 -11 -89
13 -96 9 -2 31 -2 49 1 28 4 32 8 34 36 0 17 1 38 0 47 -1 18 2 19 115 22 39
1 74 -1 78 -4 3 -4 1 -17 -4 -31 -16 -41 2 -54 70 -50 34 2 42 31 24 82 -13
38 -13 98 1 195 8 56 8 94 2 101 -3 2 -38 0 -79 -6 -70 -10 -171 -8 -266 4
-31 4 -43 2 -47 -10z m275 -61 c29 -4 30 -9 31 -96 0 -26 -3 -51 -7 -55 -3 -4
-41 -6 -83 -5 -127 3 -120 1 -127 43 -4 22 -2 47 4 59 6 11 8 27 4 36 -5 14
-2 16 13 11 10 -3 26 -1 34 4 15 10 84 11 131 3z"/>
</g>
</svg>
