<?xml version="1.0" standalone="no"?>
<!DOCTYPE svg PUBLIC "-//W3C//DTD SVG 20010904//EN"
 "http://www.w3.org/TR/2001/REC-SVG-20010904/DTD/svg10.dtd">
<svg version="1.0" xmlns="http://www.w3.org/2000/svg"
 width="101.000000pt" height="101.000000pt" viewBox="0 0 101.000000 101.000000"
 preserveAspectRatio="xMidYMid meet">
<metadata>
Created by potrace 1.16, written by Peter Selinger 2001-2019
</metadata>
<g transform="translate(0.000000,101.000000) scale(0.100000,-0.100000)"
fill="#000000" stroke="none">
<path d="M283 1003 c-27 -5 -28 -7 -8 -37 9 -13 17 -32 19 -42 4 -18 -4 -19
-109 -18 -112 1 -114 1 -120 -23 -15 -63 10 -75 150 -66 50 3 150 5 222 4 132
-1 133 -1 139 23 13 54 2 62 -93 63 l-87 1 -14 51 c-14 48 -16 51 -46 50 -17
-1 -41 -4 -53 -6z"/>
<path d="M589 928 c-3 -47 4 -124 12 -126 12 -5 12 -52 -1 -52 -6 0 -10 -30
-10 -70 0 -40 4 -70 10 -70 6 0 10 -11 10 -25 0 -14 -4 -25 -10 -25 -5 0 -10
-22 -10 -50 0 -27 5 -50 10 -50 6 0 10 -32 10 -75 0 -44 -4 -75 -10 -75 -7 0
-10 -40 -8 -109 3 -121 2 -121 70 -113 l38 4 -7 57 c-4 31 -7 72 -6 91 2 19 3
46 4 60 1 24 1 24 15 6 7 -11 17 -34 20 -53 6 -30 9 -33 38 -29 122 15 198
120 159 220 -9 23 -32 66 -52 96 -48 75 -49 65 34 312 12 37 19 71 16 76 -8
13 -131 15 -131 2 0 -5 -16 -10 -35 -10 -19 0 -35 5 -35 10 0 15 -130 13 -131
-2z m205 -102 c-3 -11 -7 -33 -10 -47 -3 -15 -16 -62 -29 -105 l-24 -78 28
-35 c104 -132 96 -236 -16 -228 -25 1 -48 9 -53 17 -13 20 -13 147 0 155 12 7
11 113 -1 121 -13 7 -11 51 2 59 6 4 9 37 7 83 l-3 77 52 1 c48 1 51 0 47 -20z"/>
<path d="M130 798 c0 -2 -1 -50 -3 -108 l-2 -105 43 -3 c25 -2 42 1 42 7 0 15
67 14 73 -1 4 -10 8 -10 15 1 8 11 32 13 120 8 l110 -6 6 31 c10 51 7 156 -5
164 -21 13 -189 18 -189 5 0 -7 -26 -11 -75 -11 -43 0 -75 4 -75 10 0 8 -60
16 -60 8z m306 -114 l-1 -36 -105 7 c-58 4 -105 8 -106 9 -1 0 -4 12 -7 26
l-6 25 113 3 113 3 -1 -37z"/>
<path d="M108 564 c-20 -6 -32 -37 -23 -63 7 -23 42 -34 66 -21 9 5 41 8 70 6
30 -2 62 0 71 5 10 5 42 7 70 3 l53 -7 -62 -29 c-60 -27 -67 -35 -66 -75 1 -7
-4 -14 -11 -14 -45 -5 -66 -8 -106 -14 -25 -3 -54 -7 -65 -9 -11 -2 -25 -4
-32 -5 -8 -1 -6 -14 7 -43 20 -46 27 -48 105 -33 17 4 41 8 55 9 14 2 32 7 41
10 14 6 17 1 15 -34 -3 -50 -18 -61 -70 -53 -31 5 -38 3 -33 -8 3 -8 11 -31
18 -52 11 -34 26 -44 54 -37 6 1 21 4 34 6 13 1 36 11 50 22 22 16 26 28 28
73 3 86 5 99 12 100 19 4 49 10 76 14 17 3 41 7 55 9 14 2 28 5 33 5 13 2 26
48 20 70 -5 19 -11 21 -40 16 -20 -3 -38 -7 -42 -9 -3 -2 -22 -7 -42 -10 -20
-3 -43 -8 -52 -12 -10 -3 -17 -1 -17 5 0 6 36 28 79 48 61 29 81 43 84 61 10
54 3 58 -101 59 -124 2 -134 2 -184 2 -24 0 -63 2 -88 5 -25 2 -53 2 -62 0z"/>
</g>
</svg>
