<?xml version="1.0" standalone="no"?>
<!DOCTYPE svg PUBLIC "-//W3C//DTD SVG 20010904//EN"
 "http://www.w3.org/TR/2001/REC-SVG-20010904/DTD/svg10.dtd">
<svg version="1.0" xmlns="http://www.w3.org/2000/svg"
 width="101.000000pt" height="101.000000pt" viewBox="0 0 101.000000 101.000000"
 preserveAspectRatio="xMidYMid meet">
<metadata>
Created by potrace 1.16, written by Peter Selinger 2001-2019
</metadata>
<g transform="translate(0.000000,101.000000) scale(0.100000,-0.100000)"
fill="#000000" stroke="none">
<path d="M499 996 c-3 -3 -20 -8 -39 -11 -19 -3 -39 -10 -45 -15 -7 -5 -49 -9
-96 -9 -46 0 -111 0 -143 0 -33 0 -62 0 -65 1 -37 4 -39 -1 -23 -46 17 -46 37
-60 66 -44 9 5 22 5 32 0 14 -8 11 -11 -15 -20 l-31 -11 20 -33 c11 -18 20
-35 20 -38 0 -3 -20 -4 -43 -2 -48 4 -77 -14 -77 -48 0 -28 29 -53 54 -45 12
4 42 7 67 8 l47 2 -20 -27 c-26 -37 -93 -91 -147 -118 l-43 -22 33 -28 c37
-32 50 -35 66 -19 13 13 14 8 16 -146 1 -60 -1 -131 -5 -156 -8 -52 1 -60 59
-52 27 4 30 8 27 38 -2 27 1 33 19 34 12 0 56 3 97 6 98 7 143 0 136 -23 -9
-29 10 -46 50 -45 45 1 55 16 41 57 -6 17 -10 85 -10 151 2 166 2 167 22 160
10 -3 29 4 43 15 l26 20 2 -23 c4 -44 0 -353 -5 -373 -6 -25 14 -34 63 -26 31
4 31 5 31 56 0 28 0 62 0 76 4 158 1 260 -8 260 -6 0 -11 20 -11 45 0 25 5 45
10 45 6 0 10 30 10 70 0 40 -4 70 -10 70 -6 0 -10 31 -10 73 l0 72 64 0 c49 0
62 -3 54 -12 -5 -7 -7 -16 -4 -21 3 -5 -2 -21 -10 -37 -8 -15 -12 -30 -10 -33
3 -2 -8 -40 -24 -83 l-28 -78 30 -38 c43 -55 69 -109 73 -157 6 -57 -5 -70
-60 -72 -25 -1 -48 -4 -51 -6 -2 -3 2 -18 11 -34 8 -16 15 -37 15 -47 0 -10 7
-20 16 -24 48 -18 173 64 159 106 -3 11 -1 29 4 40 15 26 -18 117 -67 190
l-39 57 22 64 c30 88 75 242 75 257 0 9 -28 11 -115 7 -83 -4 -120 -3 -130 6
-8 7 -26 10 -40 6 l-26 -7 5 -194 5 -194 -67 46 c-88 60 -88 61 -61 62 103 5
109 8 109 48 0 30 -34 46 -81 40 l-38 -5 14 27 c7 15 21 33 29 40 23 19 20 25
-19 44 -38 18 -65 22 -66 10 -6 -66 -29 -119 -51 -120 -18 -2 -20 2 -14 35 3
20 6 49 6 63 0 22 6 28 33 34 17 4 53 7 79 6 26 -2 56 0 67 4 18 5 19 10 10
28 -26 50 -71 81 -90 63z m-194 -171 c0 -58 -1 -60 -27 -61 -17 -1 -25 3 -21
12 2 6 -5 31 -17 53 -15 31 -17 42 -8 45 69 22 73 19 73 -49z m113 -162 c-5
-7 -14 -10 -19 -7 -16 10 -9 23 10 21 15 -1 17 -4 9 -14z m-114 -40 c-3 -27
-5 -53 -6 -60 -1 -7 -16 -11 -39 -10 -34 1 -37 3 -26 18 6 8 26 34 42 57 17
23 31 41 32 42 1 0 -1 -21 -3 -47z m185 -68 c-2 -5 -13 -9 -24 -7 -11 2 -30 3
-41 4 -27 0 -49 38 -39 67 6 20 8 19 57 -17 27 -20 49 -41 47 -47z m-192 -115
l2 -40 -44 2 c-43 2 -44 3 -42 38 1 35 2 36 42 38 l41 1 1 -39z m170 0 l2 -40
-44 2 c-43 2 -44 3 -42 38 1 35 2 36 42 38 l41 1 1 -39z m-170 -150 l2 -40
-44 2 c-43 2 -44 3 -42 38 1 35 2 36 42 38 l41 1 1 -39z m170 0 l2 -40 -44 2
c-43 2 -44 3 -42 38 1 35 2 36 42 38 l41 1 1 -39z"/>
</g>
</svg>
