<?xml version="1.0" standalone="no"?>
<!DOCTYPE svg PUBLIC "-//W3C//DTD SVG 20010904//EN"
 "http://www.w3.org/TR/2001/REC-SVG-20010904/DTD/svg10.dtd">
<svg version="1.0" xmlns="http://www.w3.org/2000/svg"
 width="101.000000pt" height="101.000000pt" viewBox="0 0 101.000000 101.000000"
 preserveAspectRatio="xMidYMid meet">
<metadata>
Created by potrace 1.16, written by Peter Selinger 2001-2019
</metadata>
<g transform="translate(0.000000,101.000000) scale(0.100000,-0.100000)"
fill="#000000" stroke="none">
<path d="M323 985 c-18 -8 -33 -16 -33 -19 0 -3 16 -28 36 -56 19 -27 33 -54
29 -60 -8 -13 -52 -13 -60 0 -4 7 -43 8 -107 5 -76 -5 -103 -3 -109 7 -11 17
-19 7 -25 -34 -7 -42 17 -73 50 -64 12 3 76 8 143 10 l121 4 4 -46 3 -47 -95
6 c-52 4 -99 5 -105 3 -6 -3 -9 -37 -7 -84 2 -52 0 -80 -7 -80 -7 0 -11 -27
-11 -70 0 -40 4 -70 10 -70 6 0 10 -20 10 -45 0 -25 -5 -45 -10 -45 -7 0 -10
-36 -8 -100 3 -108 2 -106 63 -101 33 3 47 18 39 42 -3 12 2 17 18 18 30 2
206 2 283 1 33 -1 75 1 92 5 18 4 49 4 68 1 28 -6 35 -11 31 -24 -11 -34 12
-47 76 -44 l26 2 1 285 c0 242 -2 287 -15 300 -17 17 -65 20 -80 5 -5 -5 -34
-6 -66 -3 l-56 6 -4 41 -3 41 95 2 c52 2 109 -2 127 -8 43 -14 101 -2 109 23
9 29 -4 66 -26 73 -10 3 -43 -1 -71 -9 -60 -18 -109 -21 -109 -6 0 6 -18 10
-40 10 -22 0 -40 4 -40 9 0 5 19 26 42 45 23 20 40 38 37 40 -6 7 -111 47
-113 44 -1 -2 -12 -25 -24 -53 -39 -84 -51 -95 -114 -102 -42 -4 -62 -2 -78
10 l-23 16 27 7 c14 3 26 10 26 15 0 15 -73 109 -85 109 -5 -1 -25 -7 -42 -15z
m214 -255 l2 -45 -37 0 -38 -1 0 46 c1 46 1 46 36 45 34 0 35 -1 37 -45z
m-174 -140 c-6 -38 -47 -93 -83 -114 l-33 -19 6 33 c4 18 7 53 7 79 l0 46 54
0 c52 0 54 -1 49 -25z m169 -15 c-9 -81 47 -152 99 -125 11 6 40 8 67 4 46 -6
48 -7 49 -40 1 -30 -2 -34 -33 -40 -19 -3 -49 -3 -67 1 -17 4 -59 6 -92 5 -79
-1 -254 -1 -281 1 -18 1 -22 7 -21 35 1 19 3 34 5 34 3 0 20 -9 38 -21 21 -12
41 -18 54 -14 27 9 74 79 96 145 17 53 19 55 54 55 l37 0 -5 -40z m213 28 c-2
-7 1 -25 7 -38 9 -21 9 -29 -5 -42 -13 -14 -21 -15 -42 -5 -15 7 -31 10 -36 7
-20 -13 -42 13 -43 51 l-1 39 63 0 c47 0 61 -3 57 -12z m-185 -284 c30 0 70 2
87 6 18 4 48 4 66 1 31 -6 33 -9 35 -51 1 -43 1 -44 -33 -51 -19 -3 -50 -3
-68 1 -17 4 -59 6 -92 5 -78 -1 -254 -1 -282 1 -20 1 -22 6 -21 45 2 34 6 43
18 39 8 -2 22 0 30 5 8 5 57 7 110 5 52 -3 120 -5 150 -6z"/>
</g>
</svg>
