<?xml version="1.0" standalone="no"?>
<!DOCTYPE svg PUBLIC "-//W3C//DTD SVG 20010904//EN"
 "http://www.w3.org/TR/2001/REC-SVG-20010904/DTD/svg10.dtd">
<svg version="1.0" xmlns="http://www.w3.org/2000/svg"
 width="101.000000pt" height="101.000000pt" viewBox="0 0 101.000000 101.000000"
 preserveAspectRatio="xMidYMid meet">
<metadata>
Created by potrace 1.16, written by Peter Selinger 2001-2019
</metadata>
<g transform="translate(0.000000,101.000000) scale(0.100000,-0.100000)"
fill="#000000" stroke="none">
<path d="M55 950 c-4 -16 -4 -39 0 -50 6 -19 13 -20 83 -16 l77 5 -1 -52 -2
-52 -68 -1 -69 -1 -2 -331 c-2 -313 -1 -330 17 -335 10 -2 30 -2 44 0 25 5 31
17 28 54 -1 11 7 17 21 18 12 1 49 3 82 6 89 8 208 -4 202 -19 -11 -28 15 -42
69 -38 21 2 21 4 22 327 l1 325 -25 6 c-14 4 -49 4 -78 2 l-52 -4 0 45 1 46
69 2 c39 2 73 8 76 14 4 6 10 -3 13 -19 l6 -30 88 1 88 2 3 -105 c5 -218 -1
-511 -11 -527 -5 -9 -25 -11 -62 -8 l-54 5 19 -42 c11 -24 20 -51 20 -60 0
-13 8 -16 38 -13 68 7 116 28 131 59 18 39 27 151 12 160 -14 9 -15 93 -1 101
13 8 13 142 0 150 -13 8 -13 152 0 160 6 4 9 32 8 63 l-3 57 36 -1 c20 -1 41
-4 47 -8 19 -12 40 5 46 38 9 46 -2 69 -28 62 -42 -12 -246 -18 -259 -8 -15
13 -86 13 -110 1 -13 -8 -19 -6 -24 8 -4 10 -11 21 -17 25 -16 11 -96 9 -96
-2 0 -6 -33 -10 -80 -10 -47 0 -80 4 -80 10 0 6 -18 10 -40 10 -22 0 -40 -4
-40 -10 0 -5 -25 -10 -55 -10 -30 0 -55 5 -55 10 0 24 -29 7 -35 -20z m265
-70 c4 0 10 -19 11 -43 4 -40 2 -43 -18 -39 -17 3 -22 12 -25 48 -2 34 0 43
10 39 8 -3 17 -5 22 -5z m-106 -245 c0 -77 -17 -133 -44 -150 -12 -7 -12 18
-4 141 6 82 8 89 28 89 20 0 21 -5 20 -80z m123 25 c3 -61 9 -158 11 -178 3
-18 62 -41 93 -35 23 4 26 2 26 -25 l0 -31 -71 -5 c-39 -4 -98 -4 -131 -1 -33
3 -70 6 -81 6 -18 1 -22 7 -21 35 1 40 0 39 34 17 24 -16 26 -16 39 2 14 19
37 87 39 115 1 8 5 47 9 85 7 62 10 70 30 70 19 0 21 -6 23 -55z m142 35 c1
-11 3 -42 5 -70 3 -27 2 -62 0 -77 -5 -24 -9 -27 -42 -24 -30 1 -39 7 -47 29
-6 19 -6 34 2 46 6 10 10 40 10 67 l-2 50 36 -1 c29 0 37 -4 38 -20z m-78
-361 l65 -6 1 -33 1 -33 -72 -6 c-39 -4 -98 -4 -131 -1 -33 3 -70 6 -81 6 -18
1 -22 7 -21 35 1 26 5 33 16 29 9 -2 22 -1 30 4 17 11 98 13 192 5z"/>
</g>
</svg>
