<?xml version="1.0" standalone="no"?>
<!DOCTYPE svg PUBLIC "-//W3C//DTD SVG 20010904//EN"
 "http://www.w3.org/TR/2001/REC-SVG-20010904/DTD/svg10.dtd">
<svg version="1.0" xmlns="http://www.w3.org/2000/svg"
 width="101.000000pt" height="101.000000pt" viewBox="0 0 101.000000 101.000000"
 preserveAspectRatio="xMidYMid meet">
<metadata>
Created by potrace 1.16, written by Peter Selinger 2001-2019
</metadata>
<g transform="translate(0.000000,101.000000) scale(0.100000,-0.100000)"
fill="#000000" stroke="none">
<path d="M127 982 c-15 -15 -27 -32 -27 -38 0 -5 23 -27 51 -49 28 -22 55 -48
61 -58 9 -18 11 -18 34 4 18 17 37 23 71 24 27 0 48 6 51 13 4 13 53 15 87 4
17 -6 20 -16 20 -58 l0 -51 -87 4 c-83 3 -88 2 -88 -17 0 -11 5 -20 10 -20 6
0 10 -32 10 -75 0 -43 -4 -75 -10 -75 -6 0 -10 -30 -10 -70 0 -40 4 -70 10
-70 6 0 10 -20 10 -45 0 -27 -5 -45 -12 -45 -8 0 -9 -34 -5 -126 3 -69 9 -129
12 -132 7 -7 74 -6 82 1 3 3 5 21 6 40 1 27 5 35 21 36 12 1 44 3 71 5 28 3
107 2 177 -1 l126 -6 -3 -37 c-4 -43 8 -51 64 -42 28 4 32 8 27 26 -14 48 -19
146 -7 146 6 0 11 17 11 40 0 22 -4 40 -10 40 -15 0 -13 157 3 164 10 5 10 7
0 12 -14 6 -18 70 -4 76 4 2 11 40 15 85 6 77 5 83 -15 93 -15 9 -28 9 -47 1
-15 -6 -48 -10 -73 -8 l-46 2 1 52 c1 51 1 51 28 46 15 -3 70 -2 122 2 90 6
95 8 101 32 3 13 3 33 0 42 -6 19 -12 19 -283 5 -67 -4 -118 -2 -125 4 -7 5
-50 11 -97 12 -179 6 -171 8 -174 -34 l-1 -25 -30 28 c-38 35 -86 71 -94 71
-4 0 -19 -13 -34 -28z m503 -147 c0 -18 2 -39 5 -47 4 -9 -5 -13 -32 -13 l-38
-1 0 51 0 50 33 -3 c29 -4 32 -7 32 -37z m-157 -181 c-1 -25 -7 -59 -13 -77
-11 -34 -47 -83 -55 -75 -3 3 -2 46 1 96 l7 91 31 4 c17 2 31 5 31 5 0 1 -1
-18 -2 -44z m159 -24 c-8 -135 25 -172 137 -158 22 3 25 -1 28 -38 l2 -41
-127 -6 c-70 -3 -149 -4 -177 -1 -27 2 -60 4 -72 5 -19 1 -22 7 -20 40 1 21 3
39 5 39 2 0 17 -8 34 -17 30 -18 30 -18 54 12 20 25 42 75 62 145 3 8 5 31 6
50 0 34 2 36 36 35 l35 0 -3 -65z m165 -9 l1 -80 -33 2 c-19 2 -38 6 -42 11
-4 4 -8 36 -8 69 l0 62 40 6 c22 3 40 7 40 7 0 1 1 -34 2 -77z m-57 -300 l56
-1 1 -39 2 -38 -127 -6 c-70 -3 -149 -4 -177 -1 -27 2 -60 4 -72 5 -19 1 -22
7 -20 40 1 30 5 38 17 34 8 -2 22 0 30 5 8 5 65 8 125 6 61 -2 135 -5 165 -5z"/>
<path d="M72 734 c-13 -20 -20 -40 -15 -43 4 -4 39 -29 76 -55 65 -46 69 -47
83 -29 26 33 36 54 30 69 -6 16 -123 94 -140 94 -6 0 -22 -16 -34 -36z"/>
<path d="M155 518 c-2 -7 -13 -48 -25 -91 -12 -42 -37 -116 -56 -163 -19 -47
-34 -89 -34 -94 0 -5 20 -23 45 -40 l45 -31 11 28 c16 41 99 332 99 346 0 11
-61 57 -75 57 -3 0 -7 -6 -10 -12z"/>
</g>
</svg>
