<?xml version="1.0" standalone="no"?>
<!DOCTYPE svg PUBLIC "-//W3C//DTD SVG 20010904//EN"
 "http://www.w3.org/TR/2001/REC-SVG-20010904/DTD/svg10.dtd">
<svg version="1.0" xmlns="http://www.w3.org/2000/svg"
 width="101.000000pt" height="101.000000pt" viewBox="0 0 101.000000 101.000000"
 preserveAspectRatio="xMidYMid meet">
<metadata>
Created by potrace 1.16, written by Peter Selinger 2001-2019
</metadata>
<g transform="translate(0.000000,101.000000) scale(0.100000,-0.100000)"
fill="#000000" stroke="none">
<path d="M802 953 c0 -32 4 -63 10 -70 5 -6 8 -24 6 -38 -3 -26 -5 -27 -80
-28 l-78 -2 4 70 c2 39 7 78 11 88 4 9 3 17 -1 18 -5 1 -30 3 -56 5 l-47 4 1
-42 c0 -24 4 -48 10 -55 5 -6 8 -29 6 -50 -3 -37 -4 -38 -39 -35 -34 3 -36 2
-32 -22 3 -14 3 -33 -1 -42 -5 -14 -7 -14 -22 0 -10 10 -33 16 -65 16 l-49 0
3 48 2 48 62 -2 c69 -2 81 9 68 65 -6 27 -8 28 -70 30 -35 1 -66 -3 -70 -9 -8
-13 -52 -13 -60 0 -4 7 -56 10 -138 8 l-132 -3 -3 -36 c-3 -38 20 -75 39 -63
6 3 34 7 62 7 l52 2 0 -50 0 -50 -62 1 c-59 1 -62 0 -68 -25 -3 -14 -4 -164
-3 -333 3 -336 1 -322 62 -311 22 5 25 9 21 38 -3 28 -1 33 18 34 12 0 54 3
92 6 39 3 94 3 123 0 43 -5 52 -10 48 -23 -10 -33 14 -48 68 -44 15 2 17 8 12
35 -13 75 -17 309 -5 323 9 11 9 18 1 26 -15 15 -16 75 -1 83 6 4 10 26 9 49
-4 100 -3 103 34 102 26 -1 34 -5 35 -21 4 -48 2 -224 -2 -270 -3 -27 -1 -63
5 -80 6 -20 7 -64 0 -135 -5 -58 -8 -107 -6 -109 6 -6 74 -4 80 2 3 2 6 23 7
46 1 30 5 40 15 36 7 -3 22 0 33 6 11 6 37 8 58 4 35 -6 37 -8 38 -47 1 -22 5
-43 8 -46 6 -6 74 -6 80 0 1 1 -2 50 -7 108 -7 71 -6 115 0 135 6 17 8 53 5
80 -4 45 -6 216 -2 272 1 14 7 22 18 21 41 -3 60 3 66 23 9 27 -2 70 -18 68
-7 -1 -23 -1 -37 0 -24 1 -25 3 -23 71 1 39 5 79 8 89 5 17 2 19 -35 14 -26
-4 -40 -2 -40 6 0 6 -6 11 -14 11 -9 0 -13 -16 -14 -57z m-486 -136 c1 -51 1
-52 -28 -53 -28 -1 -30 1 -24 29 3 16 6 38 6 48 0 10 9 19 23 22 12 2 22 5 22
6 0 0 1 -23 1 -52z m487 -129 c0 -28 4 -59 9 -68 6 -9 8 -29 4 -43 -5 -20 -14
-27 -45 -32 -23 -4 -48 -2 -60 4 -11 6 -26 8 -34 5 -18 -7 -32 97 -17 126 5
10 7 25 4 34 -6 15 11 18 111 24 30 2 30 2 28 -50z m-607 -15 c-3 -7 0 -24 6
-38 8 -18 8 -28 0 -38 -6 -7 -14 -28 -17 -46 -3 -18 -13 -47 -22 -64 -16 -31
-16 -31 -24 -9 -5 13 -7 56 -4 95 3 40 6 81 6 93 1 16 8 21 31 21 20 0 27 -4
24 -14z m123 -7 c1 -12 3 -60 4 -108 1 -51 7 -92 14 -99 6 -6 29 -12 49 -13
37 -1 38 -3 40 -38 l3 -37 -52 -6 c-29 -3 -83 -3 -122 0 -38 3 -80 6 -91 6
-18 1 -22 7 -21 34 l1 34 27 -19 26 -19 13 27 c35 76 54 162 53 238 -1 16 5
21 27 21 21 0 28 -5 29 -21z m106 6 c-3 -7 0 -22 5 -32 6 -11 8 -43 4 -73 -6
-47 -9 -54 -27 -53 -18 1 -23 10 -30 51 -5 31 -4 58 2 72 6 13 8 29 5 37 -4
10 2 14 20 12 17 0 24 -6 21 -14z m353 -188 c33 -7 32 -3 35 -126 1 -42 -1
-80 -5 -83 -7 -7 -70 -9 -125 -5 -27 3 -34 32 -28 110 3 30 5 65 6 78 1 16 6
21 18 18 9 -3 23 -1 31 4 18 11 27 12 68 4z m-397 -170 c43 -5 45 -7 46 -39 1
-33 0 -34 -51 -40 -28 -3 -82 -3 -121 0 -38 3 -80 6 -91 6 -18 1 -22 7 -21 35
1 26 5 33 16 29 9 -2 22 -1 30 4 16 10 126 13 192 5z"/>
</g>
</svg>
