<?xml version="1.0" standalone="no"?>
<!DOCTYPE svg PUBLIC "-//W3C//DTD SVG 20010904//EN"
 "http://www.w3.org/TR/2001/REC-SVG-20010904/DTD/svg10.dtd">
<svg version="1.0" xmlns="http://www.w3.org/2000/svg"
 width="101.000000pt" height="101.000000pt" viewBox="0 0 101.000000 101.000000"
 preserveAspectRatio="xMidYMid meet">
<metadata>
Created by potrace 1.16, written by Peter Selinger 2001-2019
</metadata>
<g transform="translate(0.000000,101.000000) scale(0.100000,-0.100000)"
fill="#000000" stroke="none">
<path d="M767 982 c-15 -3 -17 -12 -12 -64 3 -33 10 -68 15 -78 5 -9 11 -28
14 -41 2 -13 16 -52 31 -87 16 -34 25 -66 21 -70 -10 -10 -195 -4 -213 7 -1 0
13 46 32 101 19 54 35 107 35 117 0 10 7 31 15 47 19 35 14 42 -37 58 -36 11
-42 10 -55 -8 -7 -10 -13 -28 -12 -39 1 -11 -1 -28 -6 -37 -4 -10 -5 -25 -2
-33 4 -8 3 -17 -2 -19 -4 -3 -8 -18 -9 -34 -1 -30 -40 -127 -67 -165 -15 -21
-16 -20 -12 28 3 28 6 55 7 60 9 35 0 43 -51 43 -28 1 -53 3 -55 5 -2 2 -5 26
-6 53 l-3 49 72 -2 c69 -2 73 -1 79 22 3 13 3 32 0 42 -5 16 -20 18 -151 20
-89 2 -145 -1 -145 -7 0 -6 -16 -10 -35 -10 -19 0 -35 5 -35 10 0 6 -28 10
-64 10 -71 0 -84 -12 -70 -64 6 -24 7 -25 82 -20 l77 4 0 -58 0 -58 -40 7
c-89 17 -98 1 -90 -166 3 -55 5 -119 5 -142 0 -24 0 -67 0 -95 1 -142 0 -205
-5 -224 -6 -25 17 -35 60 -27 24 5 26 8 21 48 -4 38 -2 43 17 44 12 0 56 3 97
6 98 7 164 -1 156 -21 -5 -14 9 -19 49 -15 16 1 15 -2 -9 -18 l-28 -19 47 -21
c26 -12 51 -21 55 -21 4 0 28 22 53 49 78 83 109 164 114 296 1 44 3 89 4 100
1 17 9 21 39 22 32 2 38 -1 39 -20 0 -12 3 -60 6 -107 3 -50 1 -107 -7 -140
-6 -30 -11 -58 -10 -62 3 -11 -34 -28 -55 -26 -40 3 -56 -2 -45 -14 6 -7 14
-29 19 -48 9 -33 12 -35 46 -33 46 3 93 27 109 56 9 15 14 77 15 202 1 99 2
191 3 204 l2 24 23 -29 24 -29 30 35 c17 19 30 39 31 44 0 4 -14 24 -30 43
-36 41 -85 135 -95 183 -4 19 -12 41 -17 47 -6 7 -8 31 -6 53 3 38 2 40 -22
38 -14 -1 -33 -4 -43 -6z m-450 -162 c1 -50 -1 -55 -20 -55 -20 0 -22 5 -22
55 0 48 2 55 20 55 17 0 20 -7 22 -55z m-112 -170 c-4 -57 -10 -82 -28 -115
-14 -27 -14 -26 -20 35 -4 35 -3 70 3 80 5 10 8 25 5 32 -3 8 3 13 19 13 22 0
24 -3 21 -45z m114 25 c1 -11 3 -60 4 -110 2 -84 3 -90 26 -102 14 -6 37 -9
51 -6 24 4 27 2 27 -26 0 -26 -5 -31 -31 -36 -17 -3 -67 -3 -111 0 -44 3 -89
6 -101 6 -16 1 -21 8 -21 31 0 22 4 27 16 23 31 -13 36 -9 60 39 15 29 26 71
28 105 1 31 3 66 4 77 2 29 46 28 48 -1z m106 7 c-3 -7 0 -22 5 -32 5 -10 7
-44 4 -77 -5 -46 -10 -59 -24 -60 -14 -1 -18 10 -24 59 -3 33 -2 68 4 78 5 10
7 25 4 34 -4 11 0 14 15 13 14 -1 20 -6 16 -15z m208 -116 c3 3 3 -18 1 -48
-2 -29 -5 -76 -7 -103 -6 -79 -77 -215 -112 -215 -14 0 -27 187 -20 275 3 28
5 60 6 73 1 26 7 27 33 7 26 -20 33 -19 41 5 5 15 11 17 30 10 12 -5 25 -6 28
-4z m-232 -221 c21 -5 25 -12 26 -40 1 -31 -2 -35 -30 -40 -18 -3 -68 -3 -112
0 -44 3 -90 6 -101 6 -18 1 -22 7 -21 35 1 26 5 33 16 29 9 -2 22 -1 30 4 15
10 153 14 192 6z"/>
</g>
</svg>
