<?xml version="1.0" standalone="no"?>
<!DOCTYPE svg PUBLIC "-//W3C//DTD SVG 20010904//EN"
 "http://www.w3.org/TR/2001/REC-SVG-20010904/DTD/svg10.dtd">
<svg version="1.0" xmlns="http://www.w3.org/2000/svg"
 width="101.000000pt" height="101.000000pt" viewBox="0 0 101.000000 101.000000"
 preserveAspectRatio="xMidYMid meet">
<metadata>
Created by potrace 1.16, written by Peter Selinger 2001-2019
</metadata>
<g transform="translate(0.000000,101.000000) scale(0.100000,-0.100000)"
fill="#000000" stroke="none">
<path d="M685 969 c-4 -17 -2 -43 5 -59 7 -17 10 -44 6 -63 -6 -30 -10 -34
-31 -29 -27 5 -28 20 -6 61 15 28 7 36 -47 46 -36 7 -42 5 -46 -17 -2 -7 -6
-21 -11 -30 -4 -10 -5 -25 -2 -33 4 -8 2 -17 -3 -20 -5 -3 -9 -18 -8 -33 0
-15 -7 -45 -15 -67 l-16 -40 0 37 c-1 46 -26 62 -86 56 l-41 -5 0 46 1 46 67
-2 66 -2 6 33 c11 57 3 63 -84 65 -43 1 -81 -3 -84 -8 -8 -12 -173 -13 -181
-1 -3 5 -30 8 -60 8 -51 -2 -55 -4 -60 -30 -13 -58 -2 -66 78 -62 l72 4 1 -49
0 -48 -42 5 c-24 2 -54 2 -67 -2 l-24 -6 3 -127 c2 -71 3 -149 4 -175 0 -27 0
-72 0 -100 1 -145 0 -195 -5 -214 -5 -24 17 -35 57 -27 21 4 24 10 22 43 -2
32 1 38 20 39 11 0 57 3 101 6 101 7 145 0 143 -23 -3 -41 3 -60 22 -65 30 -8
60 3 60 22 1 12 7 8 26 -13 l25 -28 26 23 c58 55 104 168 109 269 2 36 4 75 5
87 2 28 36 27 39 -2 1 -11 2 -83 3 -160 1 -77 6 -146 11 -154 16 -24 74 -43
97 -30 11 6 28 8 36 5 32 -13 75 31 93 95 7 25 4 30 -32 54 -22 15 -42 25 -44
22 -3 -2 -6 -19 -9 -37 -5 -38 -27 -65 -48 -57 -23 9 -38 86 -32 167 3 41 6
85 6 96 1 23 8 25 91 26 41 1 47 3 51 25 6 32 -2 60 -17 66 -7 3 -27 -2 -45
-11 -27 -12 -39 -13 -63 -4 -16 6 -36 8 -43 5 -12 -4 -14 8 -12 65 l2 70 73 7
c65 6 73 9 78 31 11 44 2 50 -79 49 l-75 0 5 88 6 88 -26 -7 c-17 -4 -27 -2
-27 5 0 6 -9 11 -19 11 -14 0 -21 -9 -26 -31z m-370 -149 c0 -40 -3 -45 -22
-46 -21 -2 -22 2 -20 45 2 39 5 46 22 46 17 0 20 -7 20 -45z m370 -160 l0 -75
-35 2 c-19 1 -48 5 -65 8 -40 7 -66 7 -73 0 -7 -7 -6 -74 1 -82 6 -5 36 -6 77
-1 24 3 25 0 24 -42 -4 -120 -29 -192 -84 -245 l-30 -29 0 100 c0 54 0 146 -1
204 0 158 -3 148 44 146 40 -1 41 0 55 44 13 43 16 45 50 45 l37 0 0 -75z
m-489 23 c-3 -6 0 -25 7 -42 8 -22 8 -36 -1 -53 -6 -13 -16 -41 -22 -63 -5
-22 -14 -46 -19 -54 -14 -22 -22 41 -16 119 3 36 6 75 6 86 1 16 7 21 25 20
14 0 22 -6 20 -13z m123 -8 c1 -11 3 -62 4 -114 2 -84 4 -95 22 -101 11 -4 32
-6 46 -3 23 4 26 2 26 -26 0 -26 -5 -31 -31 -36 -17 -3 -67 -3 -111 0 -44 3
-89 6 -100 6 -13 1 -20 9 -21 24 -2 21 1 22 32 13 19 -5 38 -7 43 -4 10 7 22
56 27 111 2 22 6 56 9 75 3 19 6 45 7 56 0 29 45 28 47 -1z m96 7 c-3 -7 0
-22 5 -32 10 -19 3 -130 -9 -130 -22 1 -31 22 -32 71 0 99 2 108 22 106 12 -1
17 -7 14 -15z m-24 -347 c21 -5 26 -12 26 -35 0 -25 -5 -31 -31 -35 -17 -3
-67 -3 -111 0 -44 3 -89 6 -101 6 -16 1 -21 8 -21 30 0 22 4 28 16 24 9 -2 22
-1 30 4 15 10 153 14 192 6z"/>
</g>
</svg>
