<?xml version="1.0" standalone="no"?>
<!DOCTYPE svg PUBLIC "-//W3C//DTD SVG 20010904//EN"
 "http://www.w3.org/TR/2001/REC-SVG-20010904/DTD/svg10.dtd">
<svg version="1.0" xmlns="http://www.w3.org/2000/svg"
 width="101.000000pt" height="101.000000pt" viewBox="0 0 101.000000 101.000000"
 preserveAspectRatio="xMidYMid meet">
<metadata>
Created by potrace 1.16, written by Peter Selinger 2001-2019
</metadata>
<g transform="translate(0.000000,101.000000) scale(0.100000,-0.100000)"
fill="#000000" stroke="none">
<path d="M637 928 c-27 -85 -109 -226 -115 -198 -2 13 -16 15 -70 12 l-67 -4
0 54 0 53 57 -2 c31 0 65 -4 76 -7 12 -4 26 0 36 9 35 36 5 105 -38 89 -12 -5
-74 -7 -138 -5 -80 2 -118 -1 -118 -8 0 -14 -67 -15 -72 -1 -1 5 -34 10 -71
11 -77 2 -91 -7 -82 -56 6 -34 23 -47 50 -39 26 7 33 7 76 6 36 -2 37 -3 40
-44 l4 -43 -49 2 c-26 1 -57 -2 -68 -8 -21 -11 -21 -19 -2 -114 7 -37 8 -202
1 -270 -3 -27 -1 -65 6 -82 9 -26 8 -43 -5 -82 -26 -83 -13 -108 52 -102 32 3
41 18 29 48 -12 32 -12 31 14 32 12 0 58 3 102 6 95 7 149 -1 142 -19 -11 -28
14 -42 70 -38 19 2 21 7 18 41 -4 39 -3 40 22 28 21 -10 27 -8 40 8 19 26 93
161 93 169 0 7 -62 36 -75 36 -3 0 -17 -24 -30 -52 -13 -29 -30 -62 -38 -72
-13 -17 -14 -14 -21 38 -3 33 -2 65 4 76 5 10 7 26 3 36 -5 14 -3 16 11 11 10
-4 26 -2 36 3 11 6 43 8 73 4 47 -6 55 -10 56 -28 0 -11 3 -57 6 -101 6 -99
-6 -129 -53 -131 -18 -1 -35 -3 -37 -5 -2 -3 4 -27 13 -54 20 -57 33 -61 98
-29 l39 19 2 145 c2 205 -2 190 42 183 20 -3 45 -5 56 -4 11 1 37 3 57 4 30 1
37 5 41 25 10 51 0 60 -56 50 -29 -4 -63 -5 -77 -1 -14 4 -34 7 -45 7 -15 1
-19 7 -17 26 2 14 3 35 4 47 0 19 5 21 44 18 43 -3 63 13 47 38 -4 6 7 1 24
-11 36 -25 53 -28 53 -8 0 8 11 28 25 44 14 17 25 32 25 34 0 3 -18 10 -39 17
-85 25 -204 174 -186 231 5 15 -1 21 -32 29 -21 6 -43 11 -48 11 -6 0 -23 -37
-38 -82z m96 -101 c13 -29 38 -69 56 -89 28 -32 29 -37 14 -41 -14 -4 -120 -2
-174 2 -4 1 11 36 32 78 22 43 39 83 39 90 0 24 8 13 33 -40z m-416 -28 c2
-43 1 -46 -20 -42 -19 4 -22 11 -22 47 0 37 3 43 20 42 17 -1 20 -9 22 -47z
m-114 -189 c-2 -70 -6 -94 -24 -147 -6 -19 -9 -35 -7 -36 1 -1 13 -8 26 -15
13 -7 27 -10 32 -7 20 12 44 128 45 213 0 41 3 52 16 52 13 0 17 -17 23 -90 4
-50 9 -97 12 -104 7 -18 57 -36 81 -30 16 4 19 -1 20 -35 2 -38 0 -41 -30 -46
-18 -3 -68 -3 -112 0 -44 3 -90 6 -103 6 l-23 1 3 153 c3 145 4 152 23 151 18
-1 20 -7 18 -66z m221 7 c11 -92 9 -104 -16 -103 -22 1 -23 5 -23 82 0 69 2
80 16 77 11 -3 18 -21 23 -56z m142 14 c19 18 24 19 24 6 0 -13 9 -15 49 -11
45 4 49 3 49 -18 1 -13 2 -34 4 -48 3 -22 -1 -25 -47 -32 -27 -4 -61 -5 -75
-1 -14 4 -34 7 -45 7 -17 1 -20 7 -17 36 1 19 3 45 3 58 l1 24 15 -22 15 -21
24 22z m-165 -316 c21 -5 26 -12 26 -35 0 -25 -5 -31 -31 -35 -17 -3 -67 -3
-111 0 -44 3 -89 6 -101 6 -16 1 -21 8 -21 30 0 22 4 28 16 24 9 -2 22 -1 30
4 15 10 153 14 192 6z"/>
<path d="M808 394 c-16 -8 -28 -17 -28 -20 0 -3 20 -39 45 -82 25 -42 45 -83
45 -90 0 -8 3 -12 8 -10 4 2 24 10 45 18 20 8 37 18 37 22 0 12 -94 151 -111
165 -11 8 -21 8 -41 -3z"/>
</g>
</svg>
