<?xml version="1.0" standalone="no"?>
<!DOCTYPE svg PUBLIC "-//W3C//DTD SVG 20010904//EN"
 "http://www.w3.org/TR/2001/REC-SVG-20010904/DTD/svg10.dtd">
<svg version="1.0" xmlns="http://www.w3.org/2000/svg"
 width="101.000000pt" height="101.000000pt" viewBox="0 0 101.000000 101.000000"
 preserveAspectRatio="xMidYMid meet">
<metadata>
Created by potrace 1.16, written by Peter Selinger 2001-2019
</metadata>
<g transform="translate(0.000000,101.000000) scale(0.100000,-0.100000)"
fill="#000000" stroke="none">
<path d="M690 1003 c-8 -3 -25 -10 -38 -14 l-22 -9 25 -50 c14 -27 25 -52 25
-55 0 -3 -30 -3 -67 0 -101 8 -99 9 -101 -94 -1 -52 2 -92 8 -96 12 -8 13 -52
1 -59 -13 -8 -12 -114 1 -122 16 -10 1 -282 -18 -311 -13 -21 -12 -27 11 -63
l25 -40 53 42 c29 24 68 55 87 69 33 25 33 27 21 58 -19 43 -25 45 -61 15 -17
-15 -34 -23 -38 -19 -4 3 -6 48 -5 98 3 141 2 136 30 133 21 -2 28 -13 49 -76
14 -40 32 -86 41 -103 21 -41 108 -132 158 -167 l41 -28 32 38 c18 21 32 41
32 43 0 3 -29 21 -63 41 -97 54 -100 61 -47 107 25 21 53 41 63 44 9 4 17 12
17 20 0 13 -55 65 -69 65 -5 0 -20 -18 -35 -39 -15 -22 -36 -47 -47 -57 -18
-16 -19 -15 -38 27 -38 88 -38 88 11 83 24 -3 52 -5 63 -5 11 1 31 2 45 3 25
1 25 3 27 94 1 52 -2 96 -8 99 -12 8 -12 52 1 60 6 4 10 35 9 70 l-2 64 -49
-6 c-48 -6 -111 13 -89 27 11 6 -40 112 -55 116 -5 1 -16 0 -24 -3z m104 -225
c2 -2 6 -18 9 -36 l7 -32 -104 2 -104 3 2 35 1 35 93 -2 c52 -1 95 -3 96 -5z
m-14 -134 c22 -4 26 -10 27 -44 2 -35 -1 -39 -25 -44 -15 -3 -52 -3 -82 -1
-30 3 -65 5 -77 6 -19 1 -22 7 -20 40 1 30 5 38 17 34 8 -2 22 0 30 5 15 9 84
11 130 4z"/>
<path d="M46 904 c-4 -14 -4 -34 -1 -45 8 -23 61 -34 98 -20 41 16 42 15 42
-36 l0 -48 -63 0 -64 0 6 -35 c12 -70 19 -182 17 -257 -1 -10 2 -56 4 -103 3
-49 1 -107 -7 -140 -24 -112 -16 -134 46 -123 25 5 31 17 28 54 -1 11 7 17 21
18 12 0 51 3 87 6 36 3 79 3 97 0 28 -5 32 -9 28 -34 -4 -33 14 -42 60 -34 26
5 26 6 18 62 -4 31 -7 74 -5 96 1 22 4 144 6 271 l4 230 -43 3 c-24 1 -46 -3
-50 -9 -14 -22 -21 -8 -21 38 l1 48 62 -3 c68 -4 81 8 67 62 -6 23 -11 26 -34
22 -70 -15 -180 -19 -180 -8 0 6 -17 11 -40 11 -22 0 -40 -4 -40 -10 0 -5 -25
-10 -55 -10 -30 0 -55 5 -55 10 0 22 -28 9 -34 -16z m236 -108 c2 -32 -1 -42
-12 -43 -11 -1 -15 10 -15 47 0 60 22 57 27 -4z m-97 -204 c-1 -54 -6 -96 -14
-112 l-14 -24 -8 21 c-4 12 -6 50 -3 85 2 35 5 73 5 85 1 12 9 24 18 26 9 3
16 5 16 6 0 0 0 -38 0 -87z m104 63 c1 -11 3 -60 4 -110 l2 -90 35 -18 c19 -9
40 -15 46 -13 6 2 11 -8 11 -25 0 -24 -5 -30 -31 -34 -17 -3 -60 -3 -96 0 -36
3 -75 6 -86 6 -18 1 -22 7 -21 34 1 33 1 33 29 19 29 -15 29 -15 49 30 13 31
19 66 19 108 -1 103 1 114 20 114 10 0 18 -9 19 -21z m97 9 c-3 -8 -1 -24 4
-34 6 -10 7 -45 4 -78 -6 -50 -9 -59 -24 -55 -22 6 -36 93 -20 122 5 11 7 26
4 34 -3 10 2 17 13 20 10 3 20 5 22 6 2 0 0 -6 -3 -15z m-25 -360 c21 -4 26
-11 26 -34 0 -25 -5 -30 -31 -35 -17 -3 -60 -3 -96 0 -36 3 -74 6 -86 6 -16 1
-21 8 -21 30 0 22 4 28 16 24 9 -2 22 -1 30 4 15 10 121 13 162 5z"/>
</g>
</svg>
