<?xml version="1.0" standalone="no"?>
<!DOCTYPE svg PUBLIC "-//W3C//DTD SVG 20010904//EN"
 "http://www.w3.org/TR/2001/REC-SVG-20010904/DTD/svg10.dtd">
<svg version="1.0" xmlns="http://www.w3.org/2000/svg"
 width="101.000000pt" height="101.000000pt" viewBox="0 0 101.000000 101.000000"
 preserveAspectRatio="xMidYMid meet">
<metadata>
Created by potrace 1.16, written by Peter Selinger 2001-2019
</metadata>
<g transform="translate(0.000000,101.000000) scale(0.100000,-0.100000)"
fill="#000000" stroke="none">
<path d="M538 973 c-23 -6 -33 -45 -18 -73 9 -17 18 -21 38 -16 15 3 50 7 77
9 l50 2 0 -101 0 -102 -27 19 c-37 27 -42 49 -19 101 l19 46 -24 11 c-54 24
-81 7 -82 -54 -1 -35 -25 -95 -57 -142 l-22 -34 0 43 c-1 24 3 50 8 59 4 9 5
25 2 37 -4 19 -11 21 -62 17 l-56 -3 0 42 0 41 52 -1 c58 -2 70 11 57 60 -7
30 -35 42 -63 27 -15 -9 -214 -8 -311 1 -48 4 -70 -24 -56 -70 6 -17 16 -20
73 -21 36 0 67 -2 68 -3 1 -2 5 -19 9 -38 l6 -35 -44 1 c-25 1 -49 4 -53 7
-14 9 -34 -8 -34 -29 0 -10 3 -35 7 -54 3 -19 6 -78 5 -130 0 -52 0 -124 0
-160 1 -180 -1 -229 -10 -252 -12 -33 1 -51 38 -51 40 0 41 1 43 55 3 52 -9
48 145 51 56 1 104 -1 107 -4 4 -3 2 -18 -3 -33 -13 -32 -6 -52 20 -59 34 -9
56 3 57 31 1 15 2 36 2 47 1 11 -4 57 -9 103 -6 45 -9 117 -6 160 3 42 6 87 6
100 l1 24 25 -24 c13 -13 28 -21 31 -18 13 10 17 -135 10 -342 -4 -105 -1
-111 55 -101 23 5 25 9 26 57 0 87 2 98 18 92 8 -3 23 -1 33 4 10 5 45 7 78 4
l59 -7 -1 -36 -1 -36 -48 2 c-34 1 -47 -2 -43 -10 2 -7 10 -29 17 -50 12 -37
14 -38 53 -33 61 6 95 23 101 48 3 13 5 95 4 183 -1 88 1 176 5 195 3 19 7 43
7 53 0 10 8 17 19 17 11 0 22 11 28 28 5 15 13 35 17 44 6 14 1 16 -33 13 -22
-2 -49 -9 -61 -17 -16 -10 -27 -10 -52 -1 -17 7 -37 9 -44 7 -11 -4 -14 4 -12
34 l1 40 46 -3 c25 -1 52 -6 61 -9 22 -9 49 19 49 50 0 14 -7 27 -15 30 -14 6
-14 8 -1 18 12 9 56 108 56 126 0 3 -60 5 -133 5 -72 1 -163 4 -202 7 -38 3
-78 3 -87 1z m312 -81 c0 -1 -7 -14 -16 -27 -15 -23 -15 -25 0 -25 19 0 22
-20 4 -21 -7 0 -27 -2 -45 -3 -32 -4 -32 -3 -30 38 l2 41 43 0 c23 0 42 -1 42
-3z m-560 -58 c5 -37 4 -41 -15 -40 -16 1 -21 9 -23 44 -3 38 -1 43 15 40 13
-2 20 -15 23 -44z m-96 -149 c-3 -22 -7 -54 -9 -71 -2 -18 -10 -44 -18 -60
l-15 -28 -5 30 c-3 16 -4 52 -1 79 2 28 4 60 5 71 1 16 7 21 24 20 21 -1 23
-5 19 -41z m105 20 c1 -11 3 -62 4 -114 2 -104 9 -114 73 -104 29 5 31 3 31
-26 0 -26 -5 -31 -31 -36 -17 -3 -65 -3 -106 0 -41 3 -84 6 -96 6 -16 1 -21 8
-21 31 0 22 4 27 16 22 33 -13 44 -8 58 31 14 39 22 90 26 171 2 36 5 41 23
40 14 -1 22 -8 23 -21z m106 7 c-3 -7 0 -22 5 -32 6 -11 8 -42 4 -72 -5 -46
-9 -53 -29 -54 -20 -2 -23 4 -29 53 -4 30 -2 62 4 73 5 10 7 25 4 33 -4 11 2
15 20 13 17 0 24 -6 21 -14z m211 -53 c26 -24 128 -61 147 -53 8 2 24 1 38 -5
23 -8 23 -9 -11 -15 -19 -4 -71 -4 -115 -1 -44 3 -90 6 -102 6 -13 1 -23 5
-23 10 0 12 33 79 39 79 2 0 15 -10 27 -21z m165 -139 c22 0 27 -4 25 -24 -1
-21 -7 -24 -59 -30 -33 -3 -67 -1 -77 4 -10 5 -25 8 -32 5 -8 -3 -14 4 -14 20
-2 20 2 24 15 21 9 -3 23 -1 31 5 8 5 31 7 50 4 19 -2 47 -5 61 -5z m0 -120
c22 0 27 -4 25 -24 -1 -21 -7 -24 -59 -30 -33 -3 -67 -1 -77 4 -10 5 -25 8
-32 5 -8 -3 -14 4 -14 20 -2 20 2 24 15 21 9 -3 23 -1 31 5 8 5 31 7 50 4 19
-2 47 -5 61 -5z m-401 -25 c22 -5 26 -11 27 -45 2 -37 0 -40 -30 -45 -18 -3
-66 -3 -107 0 -41 3 -85 6 -97 6 -19 1 -22 7 -20 40 1 30 5 38 17 34 8 -2 21
-1 29 4 15 10 142 14 181 6z"/>
</g>
</svg>
