<?xml version="1.0" standalone="no"?>
<!DOCTYPE svg PUBLIC "-//W3C//DTD SVG 20010904//EN"
 "http://www.w3.org/TR/2001/REC-SVG-20010904/DTD/svg10.dtd">
<svg version="1.0" xmlns="http://www.w3.org/2000/svg"
 width="101.000000pt" height="101.000000pt" viewBox="0 0 101.000000 101.000000"
 preserveAspectRatio="xMidYMid meet">
<metadata>
Created by potrace 1.16, written by Peter Selinger 2001-2019
</metadata>
<g transform="translate(0.000000,101.000000) scale(0.100000,-0.100000)"
fill="#000000" stroke="none">
<path d="M728 1003 c-19 -5 -25 -23 -8 -23 6 0 10 -25 10 -55 0 -30 -4 -55
-10 -55 -5 0 -10 -18 -10 -40 0 -22 5 -40 10 -40 15 0 12 -83 -3 -105 -11 -14
-21 -16 -43 -11 -62 15 -82 13 -87 -6 -13 -47 24 -79 65 -57 11 6 26 8 33 5
12 -4 12 -11 0 -46 -19 -55 -86 -182 -93 -175 -10 9 -12 127 -2 144 18 35 2
57 -43 58 -87 4 -85 3 -92 43 -4 21 -2 47 4 58 17 32 3 59 -32 60 -76 3 -72 0
-69 56 l4 51 42 -1 c52 -1 62 -7 70 -41 4 -16 12 -47 19 -71 12 -43 12 -43 47
-37 49 9 52 15 36 68 -8 26 -12 47 -10 47 3 0 -3 14 -12 31 -14 27 -20 31 -47
26 -30 -5 -32 -3 -32 27 l0 31 -69 3 c-38 1 -74 -2 -80 -7 -14 -12 -173 -13
-181 -2 -3 5 -25 9 -50 9 -49 0 -61 -15 -49 -62 6 -26 8 -26 73 -21 l66 5 3
-54 2 -54 -37 4 c-63 8 -85 7 -94 -8 -10 -16 -9 -107 2 -113 11 -7 11 -173 0
-180 -13 -7 -12 -87 1 -102 6 -8 8 -59 4 -132 -5 -111 -5 -119 13 -124 11 -2
31 -2 45 0 26 5 32 26 28 84 -1 11 7 17 21 18 12 1 49 3 82 6 85 7 125 -1 125
-25 0 -11 5 -20 10 -20 6 0 25 -16 42 -36 l32 -36 41 47 41 48 40 -26 c37 -25
124 -61 124 -52 0 3 11 0 24 -5 16 -6 35 -5 54 2 24 9 36 8 63 -4 56 -27 81
-15 106 49 l21 55 -26 -8 c-29 -9 -177 -9 -227 0 -16 2 -42 7 -57 9 -47 7 -75
32 -75 66 0 30 1 30 19 14 10 -9 21 -14 24 -11 3 3 20 41 39 83 28 64 35 74
43 59 5 -11 8 -53 7 -95 -3 -82 0 -93 30 -102 34 -11 41 5 42 103 2 115 4 140
10 140 2 0 20 -34 39 -75 19 -41 39 -75 45 -75 9 0 68 27 77 35 2 2 -23 49
-55 104 -42 74 -62 99 -73 95 -8 -3 -20 -8 -27 -11 -8 -3 -12 8 -10 35 1 39 2
40 32 36 79 -11 102 -8 108 16 12 47 -20 79 -51 48 -9 -9 -18 -9 -37 0 -13 6
-32 9 -41 5 -14 -5 -16 -2 -11 18 4 13 7 27 7 31 0 3 16 2 36 -4 20 -5 37 -8
38 -6 14 19 63 185 56 192 -5 5 -26 11 -48 13 -34 4 -41 1 -47 -16 -3 -11 -4
-25 0 -30 3 -5 1 -12 -4 -15 -5 -4 -9 -19 -9 -34 0 -15 -5 -38 -10 -52 -10
-22 -11 -20 -12 25 -3 90 -1 140 5 160 5 17 0 23 -28 33 -18 7 -35 11 -38 11
-2 -1 -12 -3 -21 -6z m-430 -185 c-3 -45 -6 -52 -27 -55 -23 -3 -23 -2 -16 44
6 44 18 62 38 63 4 0 7 -23 5 -52z m-113 -136 c-2 -7 1 -23 7 -37 7 -16 8 -29
1 -37 -6 -7 -13 -26 -17 -42 -4 -16 -13 -38 -21 -49 -12 -18 -13 -17 -18 10
-3 15 -4 51 -1 78 2 28 4 60 5 71 1 16 7 21 25 20 15 0 22 -6 19 -14z m104 -7
c1 -11 3 -60 4 -109 l2 -89 39 -13 c21 -8 41 -12 45 -10 4 3 8 -11 8 -29 1
-31 -2 -35 -30 -40 -18 -3 -63 -3 -102 0 -38 3 -80 6 -92 6 -19 1 -22 7 -20
40 1 31 4 38 17 33 42 -18 47 -16 65 28 15 37 21 77 26 185 2 28 36 27 38 -2z
m100 -5 c4 -61 1 -134 -6 -141 -26 -26 -39 31 -32 143 2 36 36 35 38 -2z m130
-165 c1 -11 3 -68 4 -126 l2 -106 -30 -26 -30 -25 -8 41 c-6 35 -4 147 5 232
4 38 54 47 57 10z m-158 -171 c21 -4 26 -11 26 -34 0 -25 -5 -31 -31 -35 -17
-3 -62 -3 -101 0 -38 3 -79 6 -91 6 -16 1 -21 8 -21 30 0 22 4 28 16 24 9 -2
22 -1 30 4 15 10 132 13 172 5z"/>
<path d="M618 918 c-32 -11 -33 -16 -13 -82 8 -26 12 -52 9 -57 -18 -30 24
-63 65 -52 29 7 33 30 15 81 -8 26 -16 60 -16 75 -1 34 -24 47 -60 35z"/>
</g>
</svg>
