<?xml version="1.0" standalone="no"?>
<!DOCTYPE svg PUBLIC "-//W3C//DTD SVG 20010904//EN"
 "http://www.w3.org/TR/2001/REC-SVG-20010904/DTD/svg10.dtd">
<svg version="1.0" xmlns="http://www.w3.org/2000/svg"
 width="101.000000pt" height="101.000000pt" viewBox="0 0 101.000000 101.000000"
 preserveAspectRatio="xMidYMid meet">
<metadata>
Created by potrace 1.16, written by Peter Selinger 2001-2019
</metadata>
<g transform="translate(0.000000,101.000000) scale(0.100000,-0.100000)"
fill="#000000" stroke="none">
<path d="M574 944 c1 -61 0 -65 -19 -58 -11 3 -30 7 -42 8 -11 0 -19 4 -16 9
2 4 2 15 -1 25 -5 15 -27 17 -230 19 l-224 1 -7 -25 c-14 -57 10 -74 97 -70
l46 2 4 -44 c4 -49 -9 -60 -47 -43 -46 21 -88 -15 -65 -57 5 -9 7 -59 5 -111
-6 -123 -6 -186 -1 -290 3 -47 1 -113 -3 -147 -8 -68 -1 -76 53 -66 25 5 31
17 28 54 -1 11 7 17 21 18 12 0 54 3 92 6 85 7 139 -1 132 -19 -11 -28 14 -42
69 -38 17 2 20 7 16 33 -3 22 -1 30 7 25 6 -4 11 -16 11 -27 0 -24 16 -26 105
-13 94 13 212 14 262 1 29 -8 57 -11 63 -7 13 8 18 75 8 86 -4 3 -29 1 -57 -6
-29 -7 -60 -8 -73 -4 -13 5 -32 9 -43 9 -16 0 -19 6 -17 30 1 17 3 40 3 53 1
16 6 22 15 18 8 -3 26 0 39 6 19 9 28 9 37 0 19 -19 55 -14 61 8 12 45 -2 58
-56 59 -97 0 -96 -1 -94 40 1 36 2 37 46 39 45 2 63 15 54 39 -7 17 8 17 33
-2 30 -22 38 -18 62 30 26 53 26 55 10 55 -49 0 -218 116 -203 139 2 5 23 8
46 8 44 0 62 16 55 46 -3 14 3 17 32 18 21 1 45 1 54 0 20 -2 31 28 23 62 -7
27 -30 41 -48 30 -6 -3 -22 -7 -36 -7 -25 -1 -26 0 -23 57 3 36 0 57 -7 58 -6
1 -29 2 -51 3 l-41 1 5 -63 5 -62 -52 2 -52 3 2 56 c3 61 -4 69 -68 69 -25 0
-26 -1 -25 -66z m-92 -93 c-7 -34 8 -49 51 -47 43 1 43 1 40 -31 -2 -35 4 -39
55 -34 l24 2 -19 -31 c-20 -35 -97 -111 -130 -129 -19 -10 -22 -8 -26 17 -3
15 -4 50 -1 77 8 108 6 118 -21 95 -12 -10 -21 -10 -40 -2 -14 6 -30 9 -37 7
-10 -4 -13 9 -13 45 l0 51 60 -3 c44 -2 59 -7 57 -17z m-177 -34 c0 -40 -2
-44 -25 -44 -22 0 -25 5 -25 38 -1 33 2 39 25 42 14 2 25 5 25 6 0 0 0 -18 0
-42z m461 -38 l-1 -26 -47 20 c-27 11 -48 22 -48 26 0 3 22 6 48 6 46 0 49 -1
48 -26z m-371 -87 c-3 -7 0 -22 5 -32 6 -10 7 -45 3 -80 -5 -48 -9 -60 -22
-58 -20 4 -36 103 -22 135 6 13 8 29 5 37 -4 10 1 14 15 13 14 -1 20 -6 16
-15z m-207 -17 c0 -11 3 -31 7 -45 4 -16 -2 -47 -16 -85 -19 -51 -23 -56 -30
-38 -4 12 -6 50 -3 85 2 35 5 73 5 85 2 29 36 27 37 -2z m121 1 c4 -51 4 -94
0 -138 -4 -56 14 -81 58 -81 26 0 29 -4 30 -38 2 -36 0 -39 -30 -44 -18 -3
-63 -3 -102 0 -38 3 -80 6 -91 6 -18 1 -22 7 -21 35 1 30 4 34 26 32 36 -4 63
54 68 141 1 36 3 75 4 87 1 16 8 21 29 21 21 0 28 -5 29 -21z m411 -15 c0 -5
20 -31 45 -59 l45 -50 -27 -5 c-16 -3 -50 -4 -78 -1 -27 2 -60 4 -72 5 -25 1
-30 -8 42 82 29 36 45 46 45 28z m-169 -156 c17 16 21 16 17 4 -11 -29 8 -44
54 -42 l44 2 1 -39 c2 -35 -1 -41 -23 -46 -14 -4 -36 -2 -49 4 -46 21 -81 -8
-68 -58 5 -17 11 -19 47 -15 94 11 91 12 93 -15 1 -14 5 -37 8 -52 6 -21 2
-29 -15 -38 -12 -7 -34 -9 -49 -6 -14 4 -45 9 -68 11 -35 4 -43 2 -43 -12 0
-34 -12 -2 -17 44 -4 43 -6 209 -2 273 l1 25 23 -30 24 -29 22 19z m-181 -181
c22 -4 26 -10 28 -49 1 -42 0 -44 -31 -50 -17 -3 -63 -3 -102 0 -38 3 -80 6
-92 6 -20 1 -22 6 -21 45 2 34 6 43 18 39 8 -2 21 -1 29 4 15 10 132 13 171 5z"/>
</g>
</svg>
