<?xml version="1.0" standalone="no"?>
<!DOCTYPE svg PUBLIC "-//W3C//DTD SVG 20010904//EN"
 "http://www.w3.org/TR/2001/REC-SVG-20010904/DTD/svg10.dtd">
<svg version="1.0" xmlns="http://www.w3.org/2000/svg"
 width="101.000000pt" height="101.000000pt" viewBox="0 0 101.000000 101.000000"
 preserveAspectRatio="xMidYMid meet">
<metadata>
Created by potrace 1.16, written by Peter Selinger 2001-2019
</metadata>
<g transform="translate(0.000000,101.000000) scale(0.100000,-0.100000)"
fill="#000000" stroke="none">
<path d="M565 935 c-17 -65 -61 -165 -87 -198 -13 -17 -14 -17 -15 4 -3 31
-21 41 -70 36 l-42 -4 2 41 2 41 60 -1 c63 -2 75 5 75 43 0 26 -27 56 -42 47
-6 -4 -44 -6 -84 -5 -46 1 -74 -2 -74 -8 0 -14 -67 -15 -72 -1 -1 5 -36 10
-76 12 -75 2 -92 -5 -92 -42 0 -34 19 -45 77 -45 l58 0 0 -41 0 -40 -52 4
c-49 4 -53 3 -62 -22 -6 -15 -9 -103 -6 -218 6 -236 6 -256 2 -340 -4 -73 3
-81 56 -71 23 5 25 9 22 43 -3 33 -1 38 18 39 12 0 54 3 92 6 39 3 84 3 101 0
27 -5 30 -9 26 -30 -4 -25 5 -30 49 -27 12 1 15 -4 12 -17 -4 -15 4 -22 32
-31 20 -7 38 -10 39 -8 4 4 53 129 60 155 8 24 4 28 -40 37 -30 7 -32 5 -38
-26 -4 -18 -13 -46 -21 -63 -15 -33 -15 -29 -16 275 0 151 0 153 17 139 8 -7
16 -10 18 -8 1 2 10 14 18 27 l16 24 1 -24 c6 -87 5 -231 -1 -274 -6 -45 -4
-53 12 -57 32 -8 70 4 70 23 0 11 8 19 23 20 64 5 256 3 283 -2 26 -6 33 -4
37 12 9 35 -3 57 -31 58 -15 1 -36 2 -47 3 -11 1 -37 -1 -57 -4 l-38 -6 2 43
c2 47 -1 45 85 49 44 1 55 12 47 44 -4 14 -15 19 -47 20 -90 4 -86 2 -84 43
l1 39 62 -4 c54 -3 63 -1 67 16 12 45 -1 56 -66 55 l-62 -1 -1 33 c0 29 2 32
28 32 15 0 28 5 28 10 0 14 77 13 86 -1 11 -19 26 19 19 50 -6 27 -8 28 -70
29 -36 0 -67 -3 -70 -9 -8 -12 -49 -11 -62 2 -6 6 -33 10 -62 8 -28 -2 -51 -2
-51 1 0 3 11 25 25 49 14 23 25 45 25 48 0 6 -67 33 -83 33 -9 0 -21 -25 -32
-65z m-280 -120 c0 -33 -3 -40 -20 -40 -17 0 -20 6 -17 40 3 30 8 41 20 41 13
0 17 -10 17 -41z m417 -63 l3 -37 -55 0 -55 1 -3 34 -3 35 55 2 54 2 4 -37z
m-520 -92 c-8 -22 -8 -38 0 -55 8 -19 7 -37 -6 -80 -10 -30 -22 -57 -26 -60
-13 -8 -21 52 -15 120 3 33 5 70 6 82 1 14 9 23 23 25 29 5 30 3 18 -32z m107
15 c1 -11 3 -61 4 -112 1 -50 6 -95 10 -99 4 -5 25 -8 45 -7 37 2 38 1 39 -32
1 -31 -2 -35 -30 -40 -18 -3 -63 -3 -102 0 -38 3 -79 6 -91 6 -16 1 -21 8 -21
30 0 28 1 28 33 14 l33 -14 12 37 c12 34 17 84 20 197 0 35 4 40 24 40 15 0
23 -6 24 -20z m97 9 c-3 -8 -1 -24 4 -34 6 -10 7 -45 3 -80 -5 -48 -9 -60 -22
-58 -21 4 -36 93 -22 125 6 13 8 29 5 37 -3 8 2 16 13 19 10 3 20 5 22 6 2 0
0 -6 -3 -15z m319 -74 c0 -44 -1 -45 -30 -42 -16 1 -40 3 -52 3 -19 1 -22 6
-20 40 1 30 5 38 17 34 8 -2 22 0 30 5 8 6 24 9 35 8 17 -3 20 -11 20 -48z m0
-155 c0 -50 0 -50 -30 -47 -16 1 -40 3 -52 3 -20 1 -22 6 -21 45 2 34 6 43 18
39 8 -2 22 0 30 5 8 6 24 9 35 8 17 -3 20 -11 20 -53z m-344 -121 c21 -4 26
-11 26 -34 0 -25 -5 -31 -31 -35 -17 -3 -62 -3 -101 0 -38 3 -79 6 -91 6 -16
1 -21 8 -21 30 0 22 4 28 16 24 9 -2 22 -1 30 4 15 10 132 13 172 5z"/>
<path d="M743 988 c-18 -5 -33 -11 -33 -14 0 -4 8 -29 18 -56 16 -47 19 -49
47 -44 45 10 50 20 31 70 -10 25 -21 47 -24 49 -4 2 -22 0 -39 -5z"/>
<path d="M863 305 c-18 -8 -33 -16 -33 -17 0 -2 13 -35 30 -73 16 -39 30 -78
30 -87 0 -21 12 -22 57 -6 18 7 33 19 33 28 0 14 -64 148 -78 162 -4 4 -22 0
-39 -7z"/>
<path d="M736 292 c-15 -3 -17 -10 -11 -35 3 -18 8 -54 11 -82 3 -27 7 -51 9
-53 2 -2 22 -1 44 3 46 8 46 5 16 113 -18 62 -20 64 -69 54z"/>
<path d="M607 283 c-15 -4 -17 -11 -12 -31 4 -15 9 -49 11 -77 3 -27 7 -51 9
-54 3 -2 19 -4 36 -4 34 0 52 18 43 46 -3 11 -7 29 -9 40 -5 40 -17 77 -25 77
-5 0 -14 2 -22 4 -7 2 -21 2 -31 -1z"/>
</g>
</svg>
