<?xml version="1.0" standalone="no"?>
<!DOCTYPE svg PUBLIC "-//W3C//DTD SVG 20010904//EN"
 "http://www.w3.org/TR/2001/REC-SVG-20010904/DTD/svg10.dtd">
<svg version="1.0" xmlns="http://www.w3.org/2000/svg"
 width="101.000000pt" height="101.000000pt" viewBox="0 0 101.000000 101.000000"
 preserveAspectRatio="xMidYMid meet">
<metadata>
Created by potrace 1.16, written by Peter Selinger 2001-2019
</metadata>
<g transform="translate(0.000000,101.000000) scale(0.100000,-0.100000)"
fill="#000000" stroke="none">
<path d="M628 1003 c13 -5 16 -69 6 -119 -5 -28 -7 -29 -62 -26 -31 1 -65 3
-75 3 -9 0 -15 5 -11 10 3 5 3 23 -1 39 -7 32 -38 48 -59 31 -14 -12 -307 -8
-338 4 -32 13 -62 -48 -40 -82 4 -7 29 -11 62 -10 l55 2 0 -43 0 -42 -47 3
c-38 3 -49 1 -53 -12 -7 -24 -3 -101 6 -106 11 -7 11 -173 0 -180 -13 -7 -12
-87 1 -102 6 -8 8 -59 4 -132 -6 -113 -5 -119 14 -124 11 -3 29 -3 40 0 17 5
20 12 16 43 -4 33 -2 38 17 39 12 0 51 3 87 6 36 3 79 3 97 0 29 -5 31 -8 29
-40 -2 -25 1 -35 15 -38 47 -13 66 9 60 68 -2 20 -2 20 13 0 14 -19 15 -18 35
27 23 55 42 120 48 163 4 33 23 60 23 32 0 -23 8 -21 55 8 22 13 44 25 49 25
17 0 -37 -50 -81 -76 -24 -13 -43 -27 -43 -30 0 -5 20 -46 26 -52 4 -6 87 53
108 77 22 24 36 27 36 7 0 -21 -73 -80 -138 -113 -32 -15 -59 -29 -61 -31 -3
-1 9 -16 25 -33 l31 -31 40 29 c23 15 59 43 82 62 42 33 42 33 37 8 -6 -35
-24 -67 -39 -68 -7 -1 -19 -3 -27 -4 -8 -1 -23 -3 -32 -4 -15 -1 -15 -6 5 -51
12 -27 27 -50 32 -50 20 0 89 46 108 72 13 17 20 42 20 70 -1 24 3 51 8 60 5
10 5 27 -1 42 -5 14 -5 28 -1 31 5 3 12 -13 16 -35 8 -46 58 -152 81 -170 16
-14 27 -4 55 48 11 19 9 26 -13 50 -40 42 -57 75 -62 115 -5 33 -2 39 26 53
l30 16 -28 29 c-15 16 -32 29 -37 29 -6 0 -28 -19 -49 -42 l-39 -42 -37 37
c-36 37 -36 38 -17 50 33 19 109 25 171 14 37 -7 42 -6 47 12 3 12 3 30 0 41
-5 17 -11 19 -45 13 -43 -6 -272 -8 -323 -2 -25 4 -30 8 -27 29 2 14 3 35 4
47 0 13 7 22 17 21 9 0 26 3 39 7 18 6 22 4 21 -11 -5 -48 2 -62 32 -73 22 -7
37 -7 50 0 11 6 39 7 63 4 58 -9 81 -1 106 39 24 39 25 46 7 46 -8 0 -22 10
-33 21 -19 22 -19 22 6 14 14 -4 29 -8 34 -9 4 0 19 30 32 68 19 54 21 72 11
78 -15 10 -41 10 -50 1 -4 -3 -49 -7 -100 -7 -86 -1 -92 0 -92 19 0 18 6 20
58 19 32 -1 61 -5 64 -8 4 -3 26 -6 49 -6 58 0 89 31 66 68 -6 8 -44 13 -124
15 -103 2 -115 4 -107 18 12 23 2 29 -50 28 -25 0 -40 -3 -33 -6z m-358 -172
c0 -9 3 -25 6 -36 4 -16 0 -21 -15 -22 -17 -1 -20 4 -18 41 1 30 6 42 15 39 6
-3 12 -13 12 -22z m172 14 c9 -4 21 -5 25 -2 4 3 9 -11 10 -31 1 -21 4 -53 8
-72 13 -73 15 -196 4 -240 -6 -25 -13 -65 -14 -90 -2 -25 -10 -63 -18 -85 -14
-39 -14 -38 -20 85 -6 125 -4 175 7 260 15 106 15 105 -46 105 l-53 0 -3 40
-3 41 43 -2 c24 -1 51 -5 60 -9z m168 -55 c11 0 19 -9 22 -24 5 -23 2 -25 -31
-23 -32 1 -36 4 -36 29 0 19 4 27 13 23 8 -3 22 -5 32 -5z m250 4 c0 -3 -8
-16 -18 -28 -15 -20 -20 -21 -31 -9 -7 8 -21 11 -32 8 -49 -16 -75 -14 -76 5
-1 16 7 20 60 23 34 2 70 4 80 5 9 1 17 -1 17 -4z m-581 -109 c1 -11 3 -64 4
-117 2 -108 9 -122 60 -121 31 1 34 -2 34 -28 0 -24 -5 -30 -31 -34 -17 -3
-60 -3 -96 0 -36 3 -75 6 -86 6 -18 1 -22 7 -21 35 1 33 2 33 24 19 12 -8 27
-15 32 -15 15 0 33 76 37 160 2 41 4 85 5 97 2 28 36 27 38 -2z m97 9 c-3 -8
-1 -24 4 -34 13 -25 1 -140 -15 -140 -16 0 -28 115 -15 140 5 10 7 26 4 34 -4
11 0 16 11 16 11 0 15 -5 11 -16z m-209 -8 c-3 -8 -1 -27 5 -43 8 -22 7 -42
-7 -88 -14 -50 -19 -56 -25 -39 -5 12 -7 48 -4 80 2 33 4 69 5 82 1 12 8 22
16 22 9 0 13 -6 10 -14z m652 -7 c-11 -21 -26 -26 -64 -24 -53 4 -55 5 -55 19
0 16 23 22 86 21 36 0 41 -2 33 -16z m-164 -159 c3 -5 -17 -21 -44 -34 -27
-14 -51 -29 -53 -33 -3 -4 -2 -1 0 7 3 8 5 25 5 38 -1 17 3 21 16 18 9 -3 23
-1 31 4 19 12 37 13 45 0z m-290 -191 c3 -4 7 -20 10 -37 3 -29 1 -32 -28 -37
-18 -3 -61 -3 -97 0 -36 3 -75 6 -86 6 -18 1 -22 7 -21 35 1 26 5 33 16 29 9
-2 23 0 31 5 16 10 165 9 175 -1z"/>
</g>
</svg>
