<?xml version="1.0" standalone="no"?>
<!DOCTYPE svg PUBLIC "-//W3C//DTD SVG 20010904//EN"
 "http://www.w3.org/TR/2001/REC-SVG-20010904/DTD/svg10.dtd">
<svg version="1.0" xmlns="http://www.w3.org/2000/svg"
 width="101.000000pt" height="101.000000pt" viewBox="0 0 101.000000 101.000000"
 preserveAspectRatio="xMidYMid meet">
<metadata>
Created by potrace 1.16, written by Peter Selinger 2001-2019
</metadata>
<g transform="translate(0.000000,101.000000) scale(0.100000,-0.100000)"
fill="#000000" stroke="none">
<path d="M155 929 c-4 -17 -2 -43 5 -59 7 -18 10 -49 6 -82 -4 -29 -6 -80 -6
-113 1 -33 1 -86 2 -117 0 -57 1 -58 32 -63 43 -7 218 -1 236 8 12 6 15 -1 15
-42 l0 -49 -48 -6 c-27 -4 -54 -3 -60 3 -7 5 -34 9 -62 9 -27 -1 -60 2 -72 6
-35 11 -61 -2 -68 -34 -11 -52 0 -69 43 -63 81 10 170 13 218 8 44 -5 52 -9
53 -28 0 -12 2 -35 3 -52 3 -29 2 -30 -57 -37 -61 -8 -178 -5 -250 7 -46 8
-84 9 -90 3 -6 -6 -9 -36 -7 -70 2 -26 4 -27 45 -22 23 4 85 6 137 6 52 -1
124 -1 160 -1 109 0 258 -2 407 -4 l141 -2 5 29 c9 61 -12 84 -61 65 -25 -10
-252 -16 -317 -8 -27 4 -30 7 -27 34 1 17 3 40 3 51 1 15 8 22 23 23 11 0 59
3 105 6 46 3 105 2 131 -3 l48 -9 5 30 c9 67 -20 90 -78 63 -25 -12 -52 -15
-112 -11 -43 3 -87 6 -98 6 -17 1 -20 9 -20 48 l0 46 122 0 c67 0 125 -3 129
-7 12 -12 31 -9 48 7 12 12 13 22 5 43 -14 38 -23 240 -11 255 5 7 10 44 10
82 l0 70 -149 3 c-96 1 -149 -1 -149 -8 0 -6 -32 -10 -80 -10 -47 0 -80 4 -80
10 0 6 -18 10 -40 10 -22 0 -40 -4 -40 -10 0 -5 -25 -10 -55 -10 -30 0 -55 5
-55 10 0 6 -9 10 -19 10 -14 0 -21 -9 -26 -31z m261 -55 c27 -5 29 -9 29 -54
l0 -49 -90 2 -90 2 0 46 c0 41 2 45 21 41 12 -2 25 1 28 7 8 12 56 14 102 5z
m294 0 c34 -6 35 -7 36 -55 l0 -49 -33 6 c-21 4 -33 2 -33 -5 0 -6 -11 -11
-25 -11 -14 0 -25 5 -25 10 0 6 -18 10 -39 10 -38 0 -39 1 -43 40 l-4 40 43 0
c24 0 43 5 43 10 0 11 28 13 80 4z m-264 -234 c0 -46 -1 -49 -29 -54 -16 -3
-57 -6 -91 -6 l-61 0 0 52 0 53 90 1 90 2 1 -48z m298 1 c3 -24 5 -45 4 -47
-2 -1 -49 0 -105 3 l-102 6 2 41 2 41 96 0 97 0 6 -44z"/>
</g>
</svg>
