<?xml version="1.0" standalone="no"?>
<!DOCTYPE svg PUBLIC "-//W3C//DTD SVG 20010904//EN"
 "http://www.w3.org/TR/2001/REC-SVG-20010904/DTD/svg10.dtd">
<svg version="1.0" xmlns="http://www.w3.org/2000/svg"
 width="101.000000pt" height="101.000000pt" viewBox="0 0 101.000000 101.000000"
 preserveAspectRatio="xMidYMid meet">
<metadata>
Created by potrace 1.16, written by Peter Selinger 2001-2019
</metadata>
<g transform="translate(0.000000,101.000000) scale(0.100000,-0.100000)"
fill="#000000" stroke="none">
<path d="M633 923 l2 -88 -97 2 c-54 1 -98 -3 -98 -7 0 -5 -16 -2 -35 6 -19 7
-36 14 -39 14 -4 0 -16 -38 -22 -72 -2 -10 -10 -32 -18 -50 l-14 -33 -2 33
c-1 17 -1 60 -2 95 0 61 0 62 28 64 134 10 141 16 87 74 l-40 43 -50 -22 c-55
-23 -97 -34 -130 -33 -12 0 -25 -4 -28 -9 -4 -6 -26 -8 -54 -4 -28 4 -57 2
-68 -5 l-21 -10 20 -41 c22 -44 14 -43 126 -26 32 5 32 4 32 -34 0 -22 5 -40
10 -40 6 0 10 -11 10 -25 0 -14 -5 -25 -11 -25 -7 0 -8 -16 -3 -46 l7 -46 -81
7 c-80 7 -82 7 -93 -18 -6 -14 -9 -37 -5 -52 6 -25 8 -26 71 -20 l65 5 -11
-27 c-18 -49 -72 -136 -108 -176 l-35 -39 25 -44 24 -45 28 33 c15 18 46 68
67 111 34 68 40 75 50 58 13 -24 6 -235 -8 -272 -22 -55 3 -81 66 -71 29 4 31
6 25 36 -10 44 -7 316 3 316 2 0 17 -27 34 -60 l30 -60 31 16 c17 8 33 13 35
11 4 -4 5 -50 5 -157 -1 -85 5 -92 67 -82 31 4 32 6 28 42 -4 33 -2 38 17 39
12 0 51 3 87 6 36 3 93 3 127 0 l62 -6 -4 -39 c-4 -43 8 -51 62 -43 24 4 32
11 36 31 3 14 1 35 -3 47 -4 12 -6 51 -3 88 4 47 2 67 -6 67 -6 0 -11 18 -11
45 0 25 5 45 10 45 6 0 10 30 10 70 0 40 -4 70 -10 70 -13 0 -13 147 -1 152 5
2 10 21 11 43 4 74 10 70 -103 72 -96 1 -102 3 -105 23 -2 12 1 27 7 34 6 7
10 24 10 37 -1 13 2 36 6 52 l7 27 -55 0 -56 0 2 -87z m-182 -163 c5 0 9 -34
9 -75 0 -60 -3 -75 -15 -75 -8 0 -15 7 -15 15 0 17 -58 30 -101 21 -28 -5 -30
-4 -23 17 9 31 9 31 45 18 18 -6 33 -10 34 -9 1 2 12 30 26 63 14 35 25 53 27
43 2 -10 8 -18 13 -18z m184 -108 l0 -97 -30 3 c-16 1 -40 3 -52 3 -21 1 -22
5 -20 90 l2 88 50 4 c28 2 50 4 50 5 0 1 0 -42 0 -96z m189 -2 l-1 -95 -29 3
c-16 1 -39 3 -51 3 -22 1 -23 4 -20 93 l2 91 50 0 50 0 -1 -95z m-374 -180 c6
0 10 -20 10 -45 0 -62 -18 -58 -58 15 l-33 60 -29 -15 c-16 -8 -31 -15 -34
-15 -3 0 -5 20 -4 44 l2 44 63 -4 c59 -4 63 -2 65 19 1 12 3 -6 5 -40 2 -35 8
-63 13 -63z m188 0 c9 -93 10 -164 2 -186 -9 -22 -14 -25 -38 -19 -15 3 -37 7
-49 7 -27 0 -35 34 -28 118 3 30 5 65 6 78 1 16 6 21 18 18 9 -3 23 -1 31 4
26 17 55 7 58 -20z m190 0 c9 -93 10 -164 2 -186 -9 -22 -14 -25 -38 -19 -15
3 -37 7 -49 7 -27 0 -35 34 -28 118 3 30 5 65 6 78 1 16 6 21 18 18 9 -3 23
-1 31 4 26 17 55 7 58 -20z"/>
<path d="M91 809 c-25 -10 -25 -8 0 -102 9 -35 12 -37 43 -34 54 6 56 11 33
82 -22 68 -29 73 -76 54z"/>
</g>
</svg>
