<?xml version="1.0" standalone="no"?>
<!DOCTYPE svg PUBLIC "-//W3C//DTD SVG 20010904//EN"
 "http://www.w3.org/TR/2001/REC-SVG-20010904/DTD/svg10.dtd">
<svg version="1.0" xmlns="http://www.w3.org/2000/svg"
 width="101.000000pt" height="102.000000pt" viewBox="0 0 101.000000 102.000000"
 preserveAspectRatio="xMidYMid meet">
<metadata>
Created by potrace 1.16, written by Peter Selinger 2001-2019
</metadata>
<g transform="translate(0.000000,102.000000) scale(0.100000,-0.100000)"
fill="#000000" stroke="none">
<path d="M450 1016 c0 -2 7 -19 15 -39 l14 -35 -184 4 -185 4 0 -65 c0 -37 4
-65 10 -65 6 0 10 -16 10 -35 0 -19 -5 -35 -10 -35 -7 0 -10 -50 -8 -147 3
-195 -9 -272 -60 -366 -14 -27 -22 -51 -16 -55 5 -4 24 -20 41 -36 l33 -29 21
49 c23 52 47 130 54 178 6 42 14 44 27 8 7 -18 16 -32 20 -32 4 0 31 9 60 20
63 24 58 23 58 6 0 -19 37 -27 65 -14 29 13 75 3 75 -17 0 -21 -125 -34 -159
-16 -24 13 -58 3 -64 -19 -8 -31 9 -44 55 -44 24 1 35 -1 26 -3 -20 -5 -24
-28 -8 -38 20 -12 9 -23 -29 -30 -22 -4 -48 -2 -59 4 -26 14 -59 3 -65 -21
-10 -36 2 -47 41 -41 20 3 80 5 132 5 116 -1 190 -1 340 0 63 1 129 -1 146 -5
26 -5 33 -3 37 13 3 11 3 29 0 40 -4 16 -10 18 -32 13 -14 -4 -42 -7 -61 -6
-19 2 -45 3 -58 4 -23 1 -23 2 -5 21 16 18 17 21 1 32 -14 10 -11 12 19 13 38
1 53 15 46 43 -4 14 -18 17 -91 18 -121 1 -132 2 -132 17 0 13 9 15 88 18 34
1 42 5 42 20 0 14 5 17 17 13 30 -12 184 -49 186 -45 1 2 12 22 24 44 l21 41
-36 1 c-21 1 -50 4 -67 7 -16 3 -48 8 -71 10 -47 6 -150 42 -179 64 -19 13
-18 14 10 7 17 -5 39 -7 50 -6 11 1 64 3 117 4 87 3 100 5 123 27 30 28 32 46
7 54 -10 4 -31 24 -45 47 -21 32 -23 39 -9 35 15 -5 17 3 17 82 0 97 -10 114
-50 88 -27 -18 -95 -22 -95 -6 0 6 -11 10 -24 10 -14 0 -25 7 -28 18 -4 15 6
17 119 18 128 0 143 5 143 44 0 37 -12 39 -119 28 -75 -8 -108 -8 -124 1 -12
6 -41 10 -65 8 -41 -3 -43 -2 -54 35 -11 38 -11 38 -65 38 -29 0 -53 -2 -53
-4z m-85 -169 c0 -23 -2 -23 -80 -23 -73 1 -80 3 -80 21 0 18 8 20 80 23 78 2
80 2 80 -21z m211 -2 c-1 -18 -8 -20 -67 -20 -60 0 -65 2 -61 20 3 17 11 20
66 20 57 0 63 -2 62 -20z m-211 -109 c0 -24 -1 -25 -81 -23 -71 2 -80 4 -76
19 3 14 18 18 76 21 39 1 73 4 76 5 3 1 5 -9 5 -22z m211 -3 c-1 -21 -5 -22
-66 -20 -57 2 -65 4 -66 22 -1 18 5 20 66 20 63 0 67 -1 66 -22z m211 7 c-1
-21 -7 -22 -83 -25 -32 -1 -41 2 -40 14 1 11 15 18 46 22 79 10 79 10 77 -11z
m-233 -79 c4 -1 5 -8 2 -17 -3 -8 -1 -25 5 -36 6 -11 8 -35 5 -53 -6 -28 -10
-32 -36 -31 -22 1 -30 6 -30 19 0 16 -6 17 -37 12 -77 -14 -103 -14 -103 0 0
14 16 17 100 16 57 0 71 9 63 39 -7 26 -26 31 -59 14 -21 -11 -34 -13 -51 -5
-13 6 -29 8 -36 5 -8 -3 -13 4 -14 16 -1 15 3 20 15 16 9 -3 24 -1 32 4 12 7
84 8 144 1z m211 0 c39 -8 37 -10 -15 -17 -101 -13 -120 -12 -120 2 0 10 6 13
18 10 9 -3 24 -1 32 4 18 11 32 12 85 1z m-489 -16 c-2 -7 0 -27 7 -44 10 -26
8 -37 -7 -66 -16 -30 -17 -37 -5 -52 7 -10 14 -19 15 -21 1 -2 27 4 58 13 32
9 73 18 93 20 34 2 36 2 17 -12 -45 -35 -151 -76 -204 -78 l-55 -3 2 71 c2 40
4 97 5 127 l3 56 38 1 c29 2 37 -1 33 -12z m547 -51 c20 -4 37 -11 37 -16 0
-19 -66 -36 -125 -32 -33 2 -70 4 -82 5 -30 1 -30 27 0 27 39 0 97 9 104 16 8
7 18 7 66 0z m-224 -177 l54 -26 -34 -5 c-19 -3 -59 -3 -89 -1 -30 3 -65 5
-78 6 -27 1 -25 4 25 35 44 26 49 26 122 -9z m-112 -211 c1 -29 -2 -33 -27
-33 -21 0 -31 8 -43 32 l-15 31 42 2 c41 1 42 1 43 -32z m160 2 c-11 -26 -19
-33 -44 -34 -29 -1 -31 1 -30 30 1 30 3 32 44 34 l43 2 -13 -32z"/>
</g>
</svg>
