<?xml version="1.0" standalone="no"?>
<!DOCTYPE svg PUBLIC "-//W3C//DTD SVG 20010904//EN"
 "http://www.w3.org/TR/2001/REC-SVG-20010904/DTD/svg10.dtd">
<svg version="1.0" xmlns="http://www.w3.org/2000/svg"
 width="101.000000pt" height="102.000000pt" viewBox="0 0 101.000000 102.000000"
 preserveAspectRatio="xMidYMid meet">
<metadata>
Created by potrace 1.16, written by Peter Selinger 2001-2019
</metadata>
<g transform="translate(0.000000,102.000000) scale(0.100000,-0.100000)"
fill="#000000" stroke="none">
<path d="M241 954 c-29 -82 -104 -197 -165 -253 l-48 -43 36 -37 37 -36 23 28
c20 25 24 26 30 12 5 -13 15 -16 44 -14 l37 4 3 -54 3 -54 -59 6 c-88 9 -97 5
-97 -51 1 -46 1 -47 33 -50 18 -2 52 1 75 6 l42 8 0 -102 c0 -95 -2 -103 -23
-121 l-24 -19 23 -39 c12 -22 24 -42 25 -43 1 -2 29 14 61 36 32 21 93 58 135
81 65 36 77 46 74 64 -3 12 -5 27 -5 32 -1 6 -5 16 -10 24 -7 11 -17 8 -52
-16 -24 -17 -58 -38 -76 -47 l-32 -16 2 83 2 82 71 -3 c83 -5 107 10 102 62
l-3 31 -85 0 -85 0 0 53 c0 38 3 51 13 47 7 -2 39 -2 72 2 64 6 78 20 66 68
-6 23 -7 23 -145 22 l-139 -2 29 40 29 40 130 -1 c144 0 149 2 135 66 l-6 29
-105 -2 c-57 -1 -104 1 -104 5 0 3 16 27 35 52 19 26 35 48 35 50 0 6 -70 29
-95 32 -17 2 -25 -9 -44 -62z"/>
<path d="M602 958 c0 -27 4 -50 9 -53 11 -8 10 -173 -2 -180 -12 -8 -12 -142
1 -150 13 -8 13 -52 0 -60 -13 -8 -12 -213 2 -221 7 -4 8 -33 4 -84 l-7 -78
34 -26 c35 -27 107 -37 107 -15 0 8 16 10 51 6 75 -9 112 10 143 72 28 55 34
101 12 101 -7 0 -30 11 -51 25 -20 15 -40 23 -43 20 -3 -3 -7 -22 -8 -43 -2
-50 -13 -82 -27 -83 -58 -5 -111 1 -117 12 -14 25 -24 189 -11 189 7 0 11 33
11 100 0 60 -4 100 -10 100 -5 0 -10 11 -10 25 0 14 5 25 10 25 6 0 10 30 10
70 0 40 -4 70 -10 70 -12 0 -13 67 -1 72 13 5 21 137 7 145 -6 4 -32 8 -58 8
l-47 0 1 -47z"/>
</g>
</svg>
