<?xml version="1.0" standalone="no"?>
<!DOCTYPE svg PUBLIC "-//W3C//DTD SVG 20010904//EN"
 "http://www.w3.org/TR/2001/REC-SVG-20010904/DTD/svg10.dtd">
<svg version="1.0" xmlns="http://www.w3.org/2000/svg"
 width="101.000000pt" height="102.000000pt" viewBox="0 0 101.000000 102.000000"
 preserveAspectRatio="xMidYMid meet">
<metadata>
Created by potrace 1.16, written by Peter Selinger 2001-2019
</metadata>
<g transform="translate(0.000000,102.000000) scale(0.100000,-0.100000)"
fill="#000000" stroke="none">
<path d="M195 1003 c-4 -10 -9 -28 -11 -41 -14 -74 -94 -225 -137 -261 -22
-18 -21 -25 5 -64 13 -18 24 -34 26 -37 2 -3 12 6 23 19 14 17 19 19 19 8 0
-16 60 -34 77 -24 4 3 8 -18 8 -47 l0 -52 -72 2 c-69 2 -71 2 -78 -23 -13 -53
-1 -62 79 -60 67 2 74 0 75 -18 1 -11 3 -45 6 -75 6 -73 -2 -104 -32 -141
l-26 -31 35 -35 35 -35 95 74 c52 40 107 82 122 93 27 20 27 21 15 68 -7 26
-16 47 -20 47 -3 0 -26 -18 -50 -41 -24 -22 -56 -49 -70 -59 l-26 -19 -7 55
c-3 31 -2 63 4 74 5 10 8 25 5 32 -4 10 14 13 85 13 85 0 91 1 96 22 13 49 0
58 -88 61 -45 2 -83 4 -84 5 -1 1 -4 23 -6 49 l-5 46 39 4 c22 2 42 0 45 -5 3
-5 16 -7 29 -4 20 3 22 2 13 -10 -7 -7 -10 -15 -8 -16 14 -9 81 -37 89 -37 6
0 34 48 63 106 l53 105 105 3 105 2 -2 -170 c-1 -100 -6 -182 -12 -199 -9 -20
-9 -34 0 -52 7 -16 8 -29 1 -37 -6 -7 -13 -24 -16 -38 -7 -29 -58 -56 -85 -45
-9 4 -34 9 -55 11 l-37 3 20 -39 c11 -22 20 -46 20 -55 0 -17 39 -36 54 -27 5
3 19 6 31 8 43 4 113 42 132 70 14 22 18 45 16 111 -1 52 2 83 9 83 7 0 8 35
3 106 -5 68 -4 109 2 113 6 3 14 62 18 130 l7 124 -29 -7 c-74 -16 -125 -18
-147 -6 -13 7 -44 11 -69 9 l-45 -4 18 49 c11 26 26 56 34 65 9 10 16 20 16
23 0 8 -37 18 -87 24 -35 4 -43 2 -53 -16 -6 -12 -9 -28 -6 -35 3 -8 1 -17 -4
-20 -5 -3 -9 -16 -9 -28 1 -12 -2 -33 -6 -47 -3 -14 -8 -32 -9 -40 -9 -36 -58
-147 -76 -170 -16 -21 -18 -22 -14 -5 10 43 -6 48 -150 49 -75 1 -136 2 -136
4 0 1 11 19 25 40 l24 37 135 -2 c126 -1 136 0 141 18 4 11 4 32 0 47 l-5 27
-113 0 -113 0 20 35 c10 19 28 44 38 56 19 21 19 21 -9 32 -29 11 -94 32 -98
32 -2 0 -6 -8 -10 -17z"/>
<path d="M583 605 c-39 -17 -40 -22 -9 -83 13 -26 29 -65 36 -87 7 -22 15 -43
19 -47 3 -4 26 2 50 12 39 18 43 22 36 47 -8 35 -79 166 -91 170 -5 1 -24 -4
-41 -12z"/>
</g>
</svg>
