<?xml version="1.0" standalone="no"?>
<!DOCTYPE svg PUBLIC "-//W3C//DTD SVG 20010904//EN"
 "http://www.w3.org/TR/2001/REC-SVG-20010904/DTD/svg10.dtd">
<svg version="1.0" xmlns="http://www.w3.org/2000/svg"
 width="101.000000pt" height="101.000000pt" viewBox="0 0 101.000000 101.000000"
 preserveAspectRatio="xMidYMid meet">
<metadata>
Created by potrace 1.16, written by Peter Selinger 2001-2019
</metadata>
<g transform="translate(0.000000,101.000000) scale(0.100000,-0.100000)"
fill="#000000" stroke="none">
<path d="M180 996 c0 -32 -65 -166 -111 -229 l-50 -69 23 -27 c12 -14 26 -30
31 -36 5 -6 11 -4 17 5 8 13 10 13 10 -1 0 -22 25 -31 67 -23 l34 6 -3 -52 -3
-53 -70 -1 c-59 -1 -70 -4 -73 -19 -10 -49 21 -87 56 -68 10 5 30 7 45 4 23
-5 27 -10 27 -39 0 -19 5 -34 11 -34 23 0 -1 -128 -33 -171 -9 -13 -7 -24 11
-52 l22 -35 82 61 c46 34 96 71 112 82 26 19 28 23 17 53 -12 36 -7 40 19 16
16 -15 21 -12 65 48 25 34 60 87 76 116 17 28 31 52 31 52 3 0 7 -172 7 -273
-1 -54 -5 -108 -9 -121 -16 -39 3 -51 72 -48 23 2 27 5 22 22 -3 10 -1 28 4
39 8 14 7 31 -4 61 -17 47 -20 176 -5 185 12 7 11 113 -1 121 -12 7 -11 51 1
59 6 4 10 41 8 88 -1 58 4 97 16 132 l18 50 105 0 c99 0 104 1 110 23 10 40
-5 70 -36 77 -17 3 -39 2 -49 -4 -12 -6 -58 -8 -121 -4 -73 4 -101 3 -101 -5
0 -14 -67 -16 -72 -2 -1 5 -36 10 -76 12 -79 2 -94 -6 -90 -50 3 -23 0 -23
-80 -25 -45 -1 -82 -1 -82 1 0 11 32 60 49 76 29 26 27 31 -19 50 -49 20 -80
21 -80 2z m441 -161 c-4 -5 -8 -20 -9 -32 -3 -73 -116 -282 -204 -378 -32 -34
-55 -65 -51 -69 8 -7 -22 -41 -60 -68 l-29 -20 4 78 3 79 35 5 c19 3 45 2 57
-2 15 -5 27 -2 38 8 16 17 18 27 9 61 -6 21 -11 22 -73 20 l-66 -2 3 47 c4 43
6 48 28 48 13 0 24 5 24 10 0 14 63 13 77 -1 15 -15 27 22 18 59 -5 27 -9 28
-60 28 -29 -1 -57 -4 -61 -8 -11 -12 -48 -10 -61 3 -6 6 -33 10 -61 8 l-49 -4
23 35 23 35 111 -1 c108 -2 110 -1 116 22 3 13 4 30 1 36 -3 10 22 13 108 13
74 0 111 -3 106 -10z"/>
<path d="M726 597 l-29 -24 56 -73 c31 -41 70 -100 87 -132 l31 -58 45 31 44
30 -17 30 c-34 58 -164 219 -176 219 -6 0 -25 -11 -41 -23z"/>
</g>
</svg>
