<?xml version="1.0" standalone="no"?>
<!DOCTYPE svg PUBLIC "-//W3C//DTD SVG 20010904//EN"
 "http://www.w3.org/TR/2001/REC-SVG-20010904/DTD/svg10.dtd">
<svg version="1.0" xmlns="http://www.w3.org/2000/svg"
 width="101.000000pt" height="102.000000pt" viewBox="0 0 101.000000 102.000000"
 preserveAspectRatio="xMidYMid meet">
<metadata>
Created by potrace 1.16, written by Peter Selinger 2001-2019
</metadata>
<g transform="translate(0.000000,102.000000) scale(0.100000,-0.100000)"
fill="#000000" stroke="none">
<path d="M189 982 c-21 -66 -67 -148 -118 -211 l-49 -62 24 -37 c34 -49 32
-48 50 -26 12 15 15 15 11 2 -3 -9 0 -24 7 -33 10 -14 17 -15 34 -6 11 6 22
11 24 11 2 0 3 -24 3 -53 0 -52 0 -52 -30 -50 -16 2 -42 6 -57 9 -24 5 -29 2
-38 -22 -22 -56 15 -98 62 -73 11 6 29 9 41 7 24 -3 27 -16 30 -132 1 -64 0
-71 -25 -89 -29 -21 -30 -16 16 -90 l17 -28 46 41 c26 23 80 62 120 87 77 49
80 55 55 122 -7 20 -10 19 -62 -20 -88 -66 -87 -66 -94 -9 -4 29 -2 58 4 69 5
11 8 26 5 33 -7 16 63 22 99 8 27 -10 42 -2 48 25 4 21 30 25 80 12 25 -7 28
-4 39 35 12 43 14 50 23 98 3 14 8 36 11 50 4 14 8 34 10 45 6 34 13 59 20 76
7 17 -22 30 -77 34 -31 3 -39 -12 -38 -71 1 -60 -7 -111 -31 -181 -19 -58 -39
-83 -39 -49 0 9 -20 16 -65 21 -35 3 -68 4 -72 2 -4 -3 -8 14 -8 38 l0 43 44
6 c25 3 49 2 56 -4 29 -24 64 26 50 71 -8 23 -52 36 -74 22 -12 -7 -170 -10
-199 -4 -2 1 6 18 18 39 l21 37 130 0 c125 0 130 1 135 22 13 51 4 58 -74 55
-47 -2 -78 1 -87 8 -8 7 -24 10 -35 7 -11 -3 -20 -3 -20 0 0 13 54 103 62 103
4 0 8 4 8 10 0 13 -36 31 -70 35 -26 3 -30 0 -41 -33z"/>
<path d="M625 965 c-3 -16 -3 -77 1 -135 6 -119 6 -259 0 -372 -6 -86 -8 -84
64 -78 41 3 51 15 39 47 -4 12 -6 66 -2 118 4 61 2 99 -5 107 -13 16 -15 175
-2 183 5 3 9 29 9 58 0 29 3 62 6 75 8 24 10 23 -63 26 -39 1 -42 -1 -47 -29z"/>
<path d="M788 809 c-21 -11 -38 -22 -38 -25 0 -3 17 -31 39 -62 21 -31 53 -83
71 -115 18 -32 35 -56 39 -55 67 34 81 43 81 48 0 8 -111 175 -137 207 l-18
22 -37 -20z"/>
<path d="M800 527 c-28 -108 -73 -184 -143 -240 -64 -52 -150 -92 -222 -101
-16 -2 -42 -7 -57 -11 l-27 -7 42 -40 c42 -40 42 -40 87 -29 25 6 83 30 129
53 114 57 196 139 246 244 21 44 45 87 53 97 19 21 12 29 -50 56 l-47 20 -11
-42z"/>
</g>
</svg>
