<?xml version="1.0" standalone="no"?>
<!DOCTYPE svg PUBLIC "-//W3C//DTD SVG 20010904//EN"
 "http://www.w3.org/TR/2001/REC-SVG-20010904/DTD/svg10.dtd">
<svg version="1.0" xmlns="http://www.w3.org/2000/svg"
 width="101.000000pt" height="101.000000pt" viewBox="0 0 101.000000 101.000000"
 preserveAspectRatio="xMidYMid meet">
<metadata>
Created by potrace 1.16, written by Peter Selinger 2001-2019
</metadata>
<g transform="translate(0.000000,101.000000) scale(0.100000,-0.100000)"
fill="#000000" stroke="none">
<path d="M223 991 c-20 -75 -107 -223 -176 -298 l-38 -42 38 -35 38 -35 18 24
c17 23 20 23 34 9 11 -11 26 -14 45 -10 l29 6 -3 -56 -3 -57 -70 -1 -70 -1 -3
-30 c-4 -49 10 -60 75 -60 l58 0 -1 -94 c-1 -92 -1 -94 -28 -108 -15 -8 -26
-17 -23 -21 2 -4 12 -25 22 -47 l19 -41 125 64 c121 61 126 65 132 99 12 72 5
75 -71 35 -38 -21 -71 -34 -75 -31 -3 4 -3 36 1 71 l7 65 69 5 c44 4 74 11 79
19 12 18 3 70 -14 81 -13 9 -102 5 -127 -6 -13 -5 -14 3 -12 51 l4 58 66 3
c38 2 70 8 74 15 10 15 0 59 -15 69 -18 11 -117 10 -117 -2 0 -5 -11 -10 -25
-10 -14 0 -25 5 -25 10 0 6 -18 10 -40 10 -46 0 -47 3 -20 37 19 25 24 26 135
27 124 1 135 5 135 55 0 13 3 22 6 18 4 -3 8 -46 10 -94 3 -97 3 -110 3 -280
-1 -65 2 -137 6 -160 4 -26 2 -60 -8 -92 -8 -27 -12 -61 -10 -75 6 -32 20 -34
98 -19 39 8 286 7 335 -1 36 -6 38 -5 42 26 8 51 0 69 -28 62 -23 -6 -269 -9
-322 -4 -26 2 -41 44 -24 70 5 9 9 39 9 66 l-2 49 50 2 c50 3 126 4 168 4 12
0 37 1 56 1 l33 1 -7 93 c-4 62 -3 94 4 98 12 8 15 95 3 112 -4 7 -61 10 -159
10 l-153 -1 3 70 2 70 44 -2 c24 -2 50 2 57 8 9 7 53 9 131 5 l118 -6 0 50 c0
45 -2 49 -20 42 -11 -3 -37 -6 -57 -4 -21 1 -65 2 -98 1 -123 0 -196 1 -232 3
-45 3 -48 0 -55 -50 -3 -21 -10 -39 -17 -40 -6 -1 -33 -4 -59 -8 -32 -4 -56
-2 -72 6 -13 7 -31 10 -39 7 -9 -4 -16 -4 -16 -1 0 9 34 59 58 86 l24 27 -38
16 c-69 29 -85 30 -91 6z m567 -403 c0 -15 5 -28 11 -28 6 0 9 -16 7 -37 l-3
-38 -110 0 -110 0 0 65 0 65 103 1 102 0 0 -28z"/>
</g>
</svg>
