<?xml version="1.0" standalone="no"?>
<!DOCTYPE svg PUBLIC "-//W3C//DTD SVG 20010904//EN"
 "http://www.w3.org/TR/2001/REC-SVG-20010904/DTD/svg10.dtd">
<svg version="1.0" xmlns="http://www.w3.org/2000/svg"
 width="101.000000pt" height="101.000000pt" viewBox="0 0 101.000000 101.000000"
 preserveAspectRatio="xMidYMid meet">
<metadata>
Created by potrace 1.16, written by Peter Selinger 2001-2019
</metadata>
<g transform="translate(0.000000,101.000000) scale(0.100000,-0.100000)"
fill="#000000" stroke="none">
<path d="M190 948 c-28 -79 -89 -184 -129 -222 -17 -17 -31 -35 -31 -40 1 -6
14 -26 29 -44 l29 -34 15 22 15 22 12 -22 c9 -16 19 -21 38 -18 26 4 27 2 27
-43 l0 -47 -75 2 -75 1 -3 -30 c-5 -57 17 -66 129 -51 30 3 29 9 32 -126 2
-83 1 -88 -26 -116 l-29 -30 27 -41 c15 -23 31 -41 35 -41 4 0 15 10 26 21 10
12 60 49 109 82 50 33 91 61 92 62 4 2 -39 85 -43 85 -3 0 -28 -19 -57 -41
l-52 -42 -8 59 c-4 35 -3 68 3 81 5 13 7 30 3 39 -5 15 -2 16 23 9 16 -4 38
-7 49 -6 11 1 32 2 47 3 30 1 41 18 32 53 -5 20 -14 24 -75 30 -67 7 -69 8
-69 35 0 16 -3 35 -6 44 -5 13 -1 15 25 10 45 -9 81 3 81 26 0 25 1 25 45 -1
20 -12 38 -20 40 -18 2 2 22 35 44 73 l40 69 138 1 138 1 -3 -90 c-2 -49 -3
-131 -2 -181 0 -50 -4 -103 -9 -117 -7 -19 -7 -35 1 -52 27 -59 -33 -145 -90
-129 -15 4 -41 8 -59 10 l-32 3 25 -46 c13 -25 24 -52 24 -59 0 -13 22 -20 45
-14 6 1 20 4 31 5 41 6 112 43 125 67 7 13 13 68 15 133 1 61 4 126 7 145 9
60 26 263 26 305 0 22 2 49 5 60 10 32 -9 49 -51 48 -21 0 -97 -2 -169 -4
l-131 -4 20 45 c10 25 27 52 38 62 29 25 23 35 -25 47 -78 19 -80 18 -101 -82
-13 -66 -64 -166 -107 -214 -18 -19 -22 -20 -35 -8 -10 11 -39 14 -118 12 -58
-2 -105 -1 -105 1 0 1 10 16 22 32 18 25 29 30 65 30 24 0 43 5 43 10 0 6 11
10 25 10 14 0 25 -4 25 -9 0 -5 23 -9 50 -8 38 2 51 6 56 20 6 20 -4 59 -20
69 -14 10 -61 10 -70 1 -4 -4 -29 -7 -55 -8 l-49 0 14 26 c7 15 25 41 39 58
15 17 24 35 21 40 -5 8 -82 31 -104 31 -5 0 -19 -28 -32 -62z"/>
<path d="M562 682 c-5 -15 -10 -39 -11 -54 -1 -33 -44 -150 -72 -194 -11 -18
-28 -36 -39 -39 -17 -6 -18 -8 -3 -43 22 -54 26 -56 81 -38 54 18 98 27 152
29 30 2 35 -1 36 -21 1 -12 4 -25 7 -28 6 -6 77 14 90 25 6 6 -38 150 -68 224
-7 18 -15 17 -72 -4 l-22 -8 22 -50 c11 -28 18 -53 15 -56 -3 -4 -19 -8 -34
-10 -80 -12 -94 -14 -94 -12 1 19 103 232 117 242 23 17 12 28 -49 48 l-46 15
-10 -26z"/>
</g>
</svg>
