<?xml version="1.0" standalone="no"?>
<!DOCTYPE svg PUBLIC "-//W3C//DTD SVG 20010904//EN"
 "http://www.w3.org/TR/2001/REC-SVG-20010904/DTD/svg10.dtd">
<svg version="1.0" xmlns="http://www.w3.org/2000/svg"
 width="101.000000pt" height="101.000000pt" viewBox="0 0 101.000000 101.000000"
 preserveAspectRatio="xMidYMid meet">
<metadata>
Created by potrace 1.16, written by Peter Selinger 2001-2019
</metadata>
<g transform="translate(0.000000,101.000000) scale(0.100000,-0.100000)"
fill="#000000" stroke="none">
<path d="M610 991 c0 -11 -4 -22 -9 -26 -6 -3 -10 -13 -9 -23 0 -33 -12 -68
-52 -147 -40 -80 -134 -201 -124 -159 8 32 -21 54 -71 54 -24 0 -46 -4 -50 -9
-5 -9 -133 -7 -142 2 -2 3 8 22 24 44 l28 38 115 4 c119 3 130 7 130 48 0 35
-28 56 -64 48 -17 -4 -54 -8 -83 -9 -48 -1 -51 0 -41 19 6 11 21 34 34 52 30
40 30 41 -3 54 -68 27 -79 24 -98 -28 -30 -79 -62 -138 -113 -205 l-48 -64 21
-48 21 -49 22 29 c13 16 22 22 21 14 -3 -35 1 -39 46 -35 l46 4 -3 -51 -3 -52
-72 1 c-68 1 -72 0 -78 -24 -13 -53 22 -83 70 -61 13 6 35 8 48 4 27 -6 27 -5
30 -129 2 -71 0 -81 -21 -97 l-23 -19 26 -40 c14 -23 28 -41 32 -41 4 0 21 13
38 29 16 16 66 55 110 86 44 31 80 65 81 74 0 22 -16 71 -24 71 -4 0 -36 -23
-72 -50 l-65 -49 -8 47 c-5 29 -4 55 2 69 6 13 8 30 5 38 -5 13 -1 15 27 9 40
-8 55 -8 90 1 17 5 31 2 42 -9 11 -11 27 -14 59 -10 82 10 193 15 225 9 l33
-6 -44 -88 c-25 -48 -60 -108 -80 -134 -20 -26 -36 -51 -36 -55 0 -7 77 -32
100 -32 13 0 90 146 144 273 25 59 46 110 46 113 0 2 -54 1 -121 -2 -98 -6
-123 -4 -131 7 -7 11 -11 11 -15 2 -6 -16 -73 -17 -73 -2 0 7 -20 10 -55 7
-30 -1 -55 1 -55 5 0 5 -12 8 -27 7 -16 -1 -49 -2 -75 -1 l-48 1 0 44 0 44 48
6 c59 8 89 2 126 -25 15 -12 31 -17 35 -12 3 5 20 29 38 55 37 52 123 220 123
240 0 7 15 -19 34 -57 35 -74 106 -161 169 -206 l39 -28 34 45 c19 24 34 46
34 49 0 2 -17 13 -38 24 -58 29 -133 102 -171 166 -27 44 -34 67 -34 106 1 27
0 49 -1 50 0 0 -27 3 -58 5 -52 4 -58 2 -58 -15z"/>
<path d="M609 670 c-8 -6 -6 -22 10 -65 12 -31 19 -60 16 -65 -3 -5 2 -15 10
-24 14 -14 19 -14 50 1 19 9 35 21 34 27 0 6 -10 38 -23 71 -21 55 -26 60 -54
61 -17 1 -36 -2 -43 -6z"/>
</g>
</svg>
