<?xml version="1.0" standalone="no"?>
<!DOCTYPE svg PUBLIC "-//W3C//DTD SVG 20010904//EN"
 "http://www.w3.org/TR/2001/REC-SVG-20010904/DTD/svg10.dtd">
<svg version="1.0" xmlns="http://www.w3.org/2000/svg"
 width="101.000000pt" height="102.000000pt" viewBox="0 0 101.000000 102.000000"
 preserveAspectRatio="xMidYMid meet">
<metadata>
Created by potrace 1.16, written by Peter Selinger 2001-2019
</metadata>
<g transform="translate(0.000000,102.000000) scale(0.100000,-0.100000)"
fill="#000000" stroke="none">
<path d="M191 971 c-17 -66 -80 -196 -120 -245 -17 -21 -31 -42 -31 -45 0 -14
89 -51 96 -40 5 8 9 8 14 0 4 -7 16 -13 26 -13 16 -2 20 -10 21 -40 2 -35 0
-38 -31 -44 -19 -3 -43 -1 -53 5 -42 22 -79 -10 -66 -58 6 -24 40 -34 66 -20
10 6 34 8 52 5 37 -7 35 -1 38 -133 2 -73 -1 -85 -20 -104 l-21 -22 21 -46
c12 -25 23 -48 24 -50 2 -3 25 20 52 50 27 30 74 75 105 98 43 33 54 47 46 56
-6 7 -13 26 -16 41 -3 16 -7 30 -9 32 -2 3 -26 -14 -52 -37 l-48 -41 -9 36
c-5 23 -5 44 3 60 6 13 8 30 5 38 -6 15 4 17 88 18 49 1 62 15 51 57 -4 14
-14 19 -51 19 -95 1 -92 0 -90 47 l2 44 62 -4 c68 -4 79 5 68 49 -5 22 -12 24
-110 30 -57 4 -109 4 -116 0 -12 -8 -11 -2 14 49 11 25 17 28 46 23 19 -3 32
0 32 6 0 6 29 9 80 6 86 -3 95 2 84 47 -5 21 -13 24 -89 30 -46 4 -88 4 -95 0
-6 -4 0 16 14 44 15 28 31 51 36 51 6 0 10 5 10 10 0 12 -33 26 -82 35 -34 6
-34 6 -47 -44z"/>
<path d="M850 967 c-5 -5 -38 -12 -105 -22 -16 -3 -44 -5 -62 -5 -17 0 -35 -4
-38 -11 -5 -7 -29 -9 -74 -4 -78 7 -104 -5 -103 -51 1 -16 1 -59 2 -96 0 -37
5 -70 10 -73 13 -8 13 -131 0 -175 -6 -19 -13 -56 -15 -81 -7 -91 -68 -221
-130 -279 l-25 -24 47 -23 c27 -12 50 -23 53 -23 11 0 80 126 106 195 15 39
28 93 30 120 2 28 6 66 9 85 4 19 9 63 12 98 4 58 16 84 21 45 2 -25 9 -72 17
-113 4 -19 8 -42 9 -50 4 -25 38 -123 53 -152 13 -28 13 -28 -54 -78 -38 -27
-87 -57 -110 -66 -38 -15 -58 -34 -35 -34 5 0 25 -16 45 -35 l35 -34 44 31
c23 17 67 51 96 76 l53 44 22 -20 c12 -11 49 -37 81 -56 l59 -35 29 45 c16 26
28 47 26 49 -2 1 -32 15 -68 32 -105 50 -105 50 -80 108 23 55 59 174 66 220
3 17 7 44 9 60 3 17 8 43 11 59 5 22 2 32 -11 43 -20 14 -77 18 -89 6 -4 -5
-58 -8 -121 -8 l-112 0 1 50 c1 48 2 50 31 51 17 1 50 4 75 8 25 3 68 8 95 10
28 3 61 7 75 9 14 2 30 -1 37 -6 16 -11 53 1 53 17 0 16 -73 100 -80 93z m-66
-342 c-12 -110 -36 -208 -54 -229 -11 -11 -35 79 -44 164 -3 19 -5 40 -6 45
-9 42 -1 50 54 50 l54 0 -4 -30z"/>
</g>
</svg>
