<?xml version="1.0" standalone="no"?>
<!DOCTYPE svg PUBLIC "-//W3C//DTD SVG 20010904//EN"
 "http://www.w3.org/TR/2001/REC-SVG-20010904/DTD/svg10.dtd">
<svg version="1.0" xmlns="http://www.w3.org/2000/svg"
 width="101.000000pt" height="102.000000pt" viewBox="0 0 101.000000 102.000000"
 preserveAspectRatio="xMidYMid meet">
<metadata>
Created by potrace 1.16, written by Peter Selinger 2001-2019
</metadata>
<g transform="translate(0.000000,102.000000) scale(0.100000,-0.100000)"
fill="#000000" stroke="none">
<path d="M203 1003 c-40 -113 -90 -204 -160 -290 l-35 -42 29 -36 c30 -37 38
-41 48 -25 5 8 11 7 21 -1 8 -6 24 -9 36 -7 21 4 23 1 23 -46 l0 -51 -65 0
c-65 0 -65 0 -68 -30 -4 -54 6 -59 98 -53 40 3 40 2 43 -124 2 -61 -1 -70 -26
-96 l-28 -29 32 -51 32 -52 58 54 c32 29 71 63 86 74 l29 21 1 -35 c1 -42 5
-46 35 -45 22 2 143 2 286 2 34 0 86 1 115 2 28 1 75 -1 103 -5 l52 -7 5 32
c2 17 2 39 0 48 -7 24 -52 30 -92 11 -27 -12 -39 -13 -63 -4 -16 6 -36 8 -43
6 -18 -7 -32 100 -16 120 7 8 10 45 9 95 l-3 81 58 2 c31 1 69 2 85 2 33 1 42
12 42 51 0 39 -14 60 -35 51 -9 -3 -48 -3 -86 0 l-69 7 3 96 2 97 57 -4 c32
-3 73 -1 92 2 29 6 35 12 40 40 9 50 -1 69 -33 61 -14 -4 -48 -7 -76 -7 -77 2
-318 11 -335 13 -40 5 -45 0 -45 -51 0 -60 2 -61 120 -58 l80 3 2 -160 c4
-224 4 -331 1 -395 -3 -52 -4 -55 -28 -52 -14 2 -34 3 -45 4 -20 0 -21 6 -20
204 0 112 3 204 8 204 14 0 7 38 -8 44 -16 6 -83 -2 -97 -11 -12 -6 -10 -63 2
-63 6 0 10 -32 10 -75 0 -50 -4 -75 -11 -75 -9 0 -10 -31 -5 -115 l7 -115 -26
10 c-13 5 -33 7 -42 4 -16 -5 -16 -4 1 10 17 13 17 20 6 65 -7 28 -14 51 -17
51 -3 0 -30 -21 -60 -46 -30 -26 -57 -44 -60 -41 -5 6 -7 74 -3 123 2 23 10
25 106 25 48 0 52 2 57 25 10 54 2 60 -81 59 l-77 0 0 50 0 50 67 -2 c64 -2
68 -1 74 23 11 44 -3 73 -39 79 -18 4 -43 2 -57 -3 -27 -10 -78 -9 -122 3 -27
7 -27 8 -12 34 15 26 17 26 127 26 63 0 115 4 119 10 4 6 8 27 8 48 0 40 -22
59 -43 38 -14 -14 -74 -14 -83 0 -3 6 -17 9 -30 6 -24 -4 -24 -4 -8 22 9 14
25 35 35 47 11 11 19 23 19 27 0 6 -93 57 -105 57 -3 0 -8 -8 -12 -17z"/>
</g>
</svg>
