<?xml version="1.0" standalone="no"?>
<!DOCTYPE svg PUBLIC "-//W3C//DTD SVG 20010904//EN"
 "http://www.w3.org/TR/2001/REC-SVG-20010904/DTD/svg10.dtd">
<svg version="1.0" xmlns="http://www.w3.org/2000/svg"
 width="101.000000pt" height="102.000000pt" viewBox="0 0 101.000000 102.000000"
 preserveAspectRatio="xMidYMid meet">
<metadata>
Created by potrace 1.16, written by Peter Selinger 2001-2019
</metadata>
<g transform="translate(0.000000,102.000000) scale(0.100000,-0.100000)"
fill="#000000" stroke="none">
<path d="M190 977 c-18 -61 -66 -153 -116 -224 -24 -34 -44 -65 -44 -70 0 -4
12 -21 26 -37 l26 -30 19 25 c15 19 19 21 19 7 0 -17 41 -35 57 -25 4 3 8 -17
9 -43 l0 -49 -68 4 c-66 4 -68 3 -74 -21 -4 -14 -1 -37 5 -51 11 -25 14 -26
74 -20 l62 6 -2 -115 c-1 -94 -5 -119 -19 -135 -16 -18 -16 -21 6 -63 l24 -43
61 51 c33 29 82 67 109 85 42 29 47 36 41 60 -10 37 -13 54 -14 69 -1 9 -19 0
-50 -22 -27 -20 -50 -36 -52 -36 -2 0 -4 33 -4 73 l0 72 70 -1 c75 -1 85 4 85
49 0 35 -32 49 -106 44 l-53 -2 2 42 2 43 45 2 c25 1 55 1 67 0 25 -1 39 32
28 66 -5 17 -18 21 -78 26 -40 3 -98 5 -129 3 -32 -2 -58 -1 -58 3 0 3 10 21
23 39 l23 34 102 -1 c55 0 105 -3 111 -6 16 -10 41 24 41 55 0 33 -17 44 -64
41 -84 -5 -146 -7 -146 -4 0 9 25 50 43 69 24 27 23 29 -40 53 l-50 19 -13
-42z"/>
<path d="M740 1014 c-12 -4 -14 -18 -12 -64 3 -39 0 -60 -7 -60 -6 0 -11 -18
-11 -40 0 -22 5 -40 10 -40 6 0 10 -33 10 -80 0 -52 -4 -80 -11 -80 -8 0 -10
-31 -8 -102 l4 -101 -25 -4 c-14 -2 -42 -3 -64 -3 -21 0 -43 -3 -48 -6 -11 -7
-68 -13 -131 -13 -45 0 -59 -25 -43 -77 12 -38 14 -38 70 -23 22 6 56 13 75
15 20 3 47 7 61 9 92 16 108 15 109 -8 0 -12 3 -52 6 -89 3 -43 0 -81 -9 -106
-20 -57 -9 -68 70 -64 26 2 33 7 37 29 3 14 -1 44 -9 65 -8 23 -11 62 -8 100
2 35 5 73 5 86 1 22 16 27 63 22 10 -1 34 1 52 5 32 6 33 8 30 45 -5 53 -12
61 -44 53 -15 -4 -36 -6 -47 -5 -10 0 -25 -4 -32 -10 -8 -6 -15 -9 -18 -7 -11
12 -3 460 10 510 5 21 2 27 -20 37 -26 12 -38 13 -65 6z"/>
<path d="M525 914 c-11 -8 -27 -19 -35 -24 -12 -7 -10 -14 16 -42 18 -18 50
-59 72 -90 l40 -58 28 22 c16 12 33 25 38 29 10 9 -113 179 -129 179 -5 0 -19
-8 -30 -16z"/>
<path d="M498 689 c-21 -11 -38 -22 -38 -24 0 -3 16 -26 36 -52 19 -25 46 -68
60 -95 l25 -49 30 18 c46 27 52 38 38 65 -11 21 -109 159 -112 158 -1 -1 -19
-10 -39 -21z"/>
</g>
</svg>
