<?xml version="1.0" standalone="no"?>
<!DOCTYPE svg PUBLIC "-//W3C//DTD SVG 20010904//EN"
 "http://www.w3.org/TR/2001/REC-SVG-20010904/DTD/svg10.dtd">
<svg version="1.0" xmlns="http://www.w3.org/2000/svg"
 width="101.000000pt" height="101.000000pt" viewBox="0 0 101.000000 101.000000"
 preserveAspectRatio="xMidYMid meet">
<metadata>
Created by potrace 1.16, written by Peter Selinger 2001-2019
</metadata>
<g transform="translate(0.000000,101.000000) scale(0.100000,-0.100000)"
fill="#000000" stroke="none">
<path d="M195 999 c-51 -147 -79 -207 -130 -274 l-37 -48 23 -48 c12 -27 26
-46 32 -42 5 3 34 7 64 10 l54 4 -3 -48 -3 -48 -75 0 c-71 0 -75 -1 -84 -26
-5 -14 -6 -38 -2 -52 5 -22 11 -25 38 -22 18 1 41 6 51 10 27 11 70 -3 63 -21
-3 -9 -1 -24 4 -34 17 -31 0 -138 -26 -169 l-23 -28 38 -37 37 -36 25 26 c17
19 151 126 186 149 2 1 -4 23 -13 48 l-16 47 -61 -50 -62 -50 -9 36 c-5 23 -5
44 3 60 6 13 8 31 4 41 -5 12 -2 15 10 10 10 -4 28 -1 42 5 17 8 36 8 67 0 23
-6 44 -9 46 -8 1 2 4 22 5 45 2 63 -12 67 -138 47 l-30 -4 3 48 c4 46 5 48 40
54 21 3 49 6 64 6 30 0 42 24 32 64 -6 27 -31 33 -104 28 -14 -1 -55 -3 -92
-4 l-67 -3 24 40 23 40 106 -2 c121 -2 142 7 132 60 -3 17 -7 32 -9 33 -1 2
-41 4 -89 6 l-86 3 19 37 c10 20 23 39 29 43 19 11 10 32 -17 43 -54 21 -83
25 -88 11z"/>
<path d="M766 905 c-30 -16 -97 -20 -110 -7 -4 4 -52 7 -107 7 -109 0 -114 -3
-103 -61 l6 -33 77 4 76 4 3 -107 3 -107 -66 3 c-61 3 -65 2 -76 -21 -16 -35
-4 -73 23 -81 13 -3 42 -6 66 -6 l42 0 0 -55 c0 -30 5 -55 10 -55 6 0 10 -16
10 -35 0 -20 -5 -35 -11 -35 -8 0 -10 -17 -6 -55 l5 -54 -33 -7 c-18 -3 -42
-1 -54 6 -12 6 -25 8 -30 5 -5 -3 -20 -1 -34 4 -53 20 -79 -4 -69 -67 l4 -33
52 7 c46 5 95 6 304 5 34 -1 77 0 95 0 17 1 48 -2 68 -6 35 -7 37 -6 41 26 9
58 1 67 -50 68 -26 0 -56 0 -67 0 -11 1 -46 -1 -77 -3 l-57 -4 -7 54 c-4 35
-2 59 5 68 7 8 10 44 9 92 l-3 79 79 2 c87 2 100 10 91 58 -7 41 -20 46 -103
43 l-73 -3 6 37 c5 25 3 38 -4 38 -6 0 -11 11 -11 25 0 14 5 25 10 25 6 0 10
17 10 39 l0 38 75 6 c41 4 82 4 91 0 35 -13 50 78 15 97 -28 15 -91 12 -125
-5z"/>
<path d="M768 442 l-38 -17 30 -44 c16 -24 35 -59 42 -77 7 -19 16 -34 20 -34
22 0 88 34 88 45 0 17 -82 138 -95 142 -5 1 -27 -5 -47 -15z"/>
</g>
</svg>
