<?xml version="1.0" standalone="no"?>
<!DOCTYPE svg PUBLIC "-//W3C//DTD SVG 20010904//EN"
 "http://www.w3.org/TR/2001/REC-SVG-20010904/DTD/svg10.dtd">
<svg version="1.0" xmlns="http://www.w3.org/2000/svg"
 width="101.000000pt" height="101.000000pt" viewBox="0 0 101.000000 101.000000"
 preserveAspectRatio="xMidYMid meet">
<metadata>
Created by potrace 1.16, written by Peter Selinger 2001-2019
</metadata>
<g transform="translate(0.000000,101.000000) scale(0.100000,-0.100000)"
fill="#000000" stroke="none">
<path d="M181 958 c-20 -69 -72 -168 -123 -235 l-47 -63 27 -41 c26 -39 27
-40 42 -21 12 15 21 17 34 10 9 -5 30 -6 47 -3 l30 7 -3 -53 -3 -52 -65 -1
c-60 -1 -65 -3 -68 -25 -2 -12 -1 -33 2 -46 5 -20 11 -23 38 -19 85 10 83 11
86 -21 2 -16 4 -62 5 -101 2 -58 -2 -76 -17 -93 -19 -21 -19 -22 0 -57 10 -20
22 -37 25 -39 3 -2 38 21 78 51 40 30 91 65 113 77 38 21 39 23 34 66 -3 24
-8 46 -10 49 -3 3 -33 -14 -66 -38 -34 -23 -64 -40 -67 -36 -5 5 -7 74 -3 122
2 23 9 25 92 26 41 1 47 3 51 25 10 54 1 62 -71 60 l-67 -2 3 47 4 46 49 7
c52 7 65 23 54 68 -5 19 -15 26 -46 31 -22 4 -45 4 -51 0 -11 -7 -116 -9 -123
-2 -3 2 6 20 19 39 l24 34 100 -1 100 -2 6 33 c11 56 4 61 -84 60 -44 0 -80 2
-80 5 0 3 13 21 30 40 16 19 29 39 30 43 0 10 -79 46 -101 47 -10 0 -20 -15
-28 -42z"/>
<path d="M427 921 c-7 -28 4 -161 14 -161 5 0 9 -16 9 -35 0 -19 -4 -35 -10
-35 -6 0 -10 -30 -10 -70 0 -40 4 -70 10 -70 6 0 10 -11 10 -25 0 -14 -5 -25
-11 -25 -8 0 -10 -46 -8 -152 1 -84 0 -174 -3 -200 -6 -53 0 -58 65 -50 37 4
43 13 39 63 -1 11 7 17 21 18 12 0 56 3 97 6 41 3 94 3 117 0 41 -6 42 -6 38
-45 -3 -32 0 -39 17 -44 12 -3 30 0 40 5 10 6 27 8 37 4 16 -5 18 1 15 62 -2
38 -3 85 -3 106 0 52 0 174 -1 292 0 55 1 162 4 238 l4 139 -27 -6 c-58 -14
-231 -19 -231 -7 0 6 -17 11 -40 11 -22 0 -40 -4 -40 -10 0 -5 -25 -10 -55
-10 -30 0 -55 5 -55 10 0 18 -38 10 -43 -9z m188 -201 l0 -115 -40 0 -40 0 0
115 0 115 40 0 40 0 0 -115z m156 110 c27 0 29 -2 29 -40 0 -22 5 -40 10 -40
6 0 10 -11 10 -25 0 -14 -5 -25 -11 -25 -7 0 -10 -18 -7 -47 l3 -48 -45 4
c-25 2 -48 8 -52 15 -12 17 -9 91 3 103 6 6 10 33 8 62 -3 40 -1 50 9 46 8 -3
27 -5 43 -5z m-156 -442 l0 -117 -41 1 -42 2 2 116 1 115 40 0 40 0 0 -117z
m190 -3 l0 -120 -25 3 c-14 2 -35 3 -47 4 -26 0 -27 4 -17 144 l7 89 41 0 41
0 0 -120z"/>
</g>
</svg>
