<?xml version="1.0" standalone="no"?>
<!DOCTYPE svg PUBLIC "-//W3C//DTD SVG 20010904//EN"
 "http://www.w3.org/TR/2001/REC-SVG-20010904/DTD/svg10.dtd">
<svg version="1.0" xmlns="http://www.w3.org/2000/svg"
 width="101.000000pt" height="101.000000pt" viewBox="0 0 101.000000 101.000000"
 preserveAspectRatio="xMidYMid meet">
<metadata>
Created by potrace 1.16, written by Peter Selinger 2001-2019
</metadata>
<g transform="translate(0.000000,101.000000) scale(0.100000,-0.100000)"
fill="#000000" stroke="none">
<path d="M181 913 c-40 -105 -83 -184 -128 -234 l-33 -37 22 -45 c13 -25 26
-46 29 -47 3 0 12 11 19 25 9 17 19 23 31 20 10 -3 31 0 46 8 l28 15 0 -62 0
-61 -62 3 c-59 4 -62 2 -69 -21 -3 -14 -3 -34 0 -45 6 -17 13 -19 44 -16 86
11 87 11 90 -21 2 -16 4 -61 5 -98 2 -64 0 -70 -26 -89 -32 -24 -33 -31 -6
-74 l20 -34 57 39 c31 21 80 50 109 64 28 15 54 31 58 37 3 5 1 27 -5 49 l-10
39 -58 -34 -57 -35 -8 42 c-6 27 -5 51 2 65 6 13 8 31 4 41 -5 13 -2 15 11 10
10 -4 27 -2 38 4 15 8 27 8 45 -2 20 -11 26 -11 33 1 15 23 12 57 -6 74 -16
16 -65 22 -78 9 -3 -4 -14 -8 -24 -10 -15 -2 -17 6 -17 60 l0 62 62 -2 c67 -3
81 8 68 59 -6 22 -9 23 -125 23 -66 0 -120 1 -120 3 0 1 12 21 28 45 l27 42
103 0 c98 0 103 1 108 22 4 13 10 20 15 18 11 -8 10 -173 -2 -180 -12 -8 -12
-142 1 -150 13 -8 13 -52 0 -60 -11 -7 -12 -88 -3 -226 l5 -86 32 5 c28 3 80
4 284 3 34 -1 79 0 100 1 20 2 47 -1 58 -5 19 -7 22 -3 26 25 10 63 -16 88
-71 66 -22 -8 -255 -14 -316 -8 -17 2 -20 11 -23 69 -3 76 -3 181 1 409 l2
162 43 0 c23 0 42 5 42 10 0 6 16 10 35 10 19 0 35 -5 35 -10 0 -6 45 -9 120
-8 132 3 139 6 125 67 -6 27 -8 28 -71 30 -37 1 -64 -3 -64 -9 0 -6 -33 -10
-80 -10 -47 0 -80 4 -80 10 0 6 -18 10 -40 10 -22 0 -40 -5 -40 -11 0 -7 -21
-10 -60 -7 -56 3 -61 1 -66 -19 -3 -12 -4 -26 -1 -30 3 -5 2 -15 -4 -23 -5 -9
-9 -10 -9 -3 0 7 -13 9 -41 6 -24 -4 -50 -1 -64 7 -13 7 -31 10 -39 7 -22 -9
-20 5 9 47 14 20 25 39 25 42 0 8 -67 34 -88 34 -14 0 -26 -21 -51 -87z"/>
<path d="M614 762 c-8 -5 -11 -69 -10 -209 1 -190 2 -202 20 -207 11 -3 27 -1
37 4 9 6 60 8 113 7 102 -4 114 1 97 46 -15 41 -23 135 -11 142 6 4 10 39 10
88 -1 45 0 91 2 102 3 19 -2 20 -68 17 -45 -3 -74 0 -78 7 -8 12 -95 15 -112
3z m185 -149 c-1 -38 -4 -95 -8 -128 -6 -57 -7 -60 -31 -57 -14 2 -35 3 -46 4
-16 0 -24 8 -28 30 -10 49 -7 158 4 158 6 0 10 11 10 24 0 25 13 32 73 35 l27
1 -1 -67z"/>
</g>
</svg>
