<?xml version="1.0" standalone="no"?>
<!DOCTYPE svg PUBLIC "-//W3C//DTD SVG 20010904//EN"
 "http://www.w3.org/TR/2001/REC-SVG-20010904/DTD/svg10.dtd">
<svg version="1.0" xmlns="http://www.w3.org/2000/svg"
 width="101.000000pt" height="102.000000pt" viewBox="0 0 101.000000 102.000000"
 preserveAspectRatio="xMidYMid meet">
<metadata>
Created by potrace 1.16, written by Peter Selinger 2001-2019
</metadata>
<g transform="translate(0.000000,102.000000) scale(0.100000,-0.100000)"
fill="#000000" stroke="none">
<path d="M170 956 c-24 -73 -67 -145 -116 -197 -26 -27 -34 -42 -30 -60 18
-85 19 -87 40 -70 11 9 16 9 23 -1 4 -7 27 -13 52 -13 l45 0 0 -58 c1 -47 -2
-56 -14 -50 -8 4 -39 9 -67 11 -50 4 -53 2 -63 -24 -6 -16 -9 -38 -5 -51 5
-20 10 -22 48 -17 97 13 102 12 105 -21 2 -16 4 -62 5 -102 2 -59 -2 -76 -20
-101 l-21 -29 24 -42 c14 -23 30 -39 35 -36 5 4 46 34 92 68 45 34 93 69 106
78 20 13 23 20 17 50 -12 64 -18 65 -82 15 l-59 -46 -8 47 c-5 29 -4 56 2 70
6 13 8 29 5 37 -5 12 4 14 43 10 76 -8 95 -7 104 8 11 17 11 49 0 67 -10 16
-105 21 -131 8 -13 -6 -14 1 -12 43 l4 50 46 1 c26 1 57 0 69 0 38 -4 42 82 5
93 -28 8 -112 5 -118 -5 -7 -13 -48 -11 -61 2 -6 6 -33 10 -61 8 -54 -4 -55
-2 -15 49 17 20 29 23 131 28 68 3 119 1 131 -6 36 -19 67 39 42 78 -6 11 -24
12 -75 7 -46 -5 -66 -4 -66 4 0 6 -18 11 -45 11 l-44 0 20 34 c11 19 27 40 35
46 7 7 14 16 14 21 0 10 -45 34 -82 43 -25 6 -27 3 -48 -58z"/>
<path d="M592 945 c0 -41 4 -78 9 -81 12 -7 10 -166 -3 -181 -5 -7 -8 -36 -6
-66 l3 -53 -71 3 -72 2 4 -142 c6 -193 5 -288 -1 -313 -6 -26 12 -33 68 -26
l38 4 -4 48 c-5 43 -3 48 16 49 12 0 54 3 92 6 39 3 84 3 102 0 31 -6 32 -6
28 -54 -4 -55 3 -61 67 -53 44 5 53 22 33 69 -19 44 -20 179 -2 187 10 5 10 7
0 12 -15 7 -18 71 -4 76 8 3 15 70 12 118 -1 12 -20 15 -105 15 l-103 0 1 87
1 88 43 0 c23 0 42 5 42 10 0 6 11 10 25 10 14 0 25 -5 25 -10 0 -6 24 -10 60
-9 66 2 77 14 65 67 l-6 28 -132 1 c-130 0 -132 1 -135 23 -2 13 2 33 8 46 7
12 10 29 7 37 -3 8 2 25 10 37 21 30 5 40 -64 40 l-51 0 0 -75z m179 -461 c30
-6 29 -3 32 -131 1 -45 -2 -85 -6 -90 -7 -7 -142 -8 -224 -2 -27 1 -35 36 -28
119 3 30 5 65 6 78 1 16 6 21 18 18 9 -3 22 -2 30 3 15 10 132 13 172 5z"/>
</g>
</svg>
