<?xml version="1.0" standalone="no"?>
<!DOCTYPE svg PUBLIC "-//W3C//DTD SVG 20010904//EN"
 "http://www.w3.org/TR/2001/REC-SVG-20010904/DTD/svg10.dtd">
<svg version="1.0" xmlns="http://www.w3.org/2000/svg"
 width="101.000000pt" height="101.000000pt" viewBox="0 0 101.000000 101.000000"
 preserveAspectRatio="xMidYMid meet">
<metadata>
Created by potrace 1.16, written by Peter Selinger 2001-2019
</metadata>
<g transform="translate(0.000000,101.000000) scale(0.100000,-0.100000)"
fill="#000000" stroke="none">
<path d="M164 922 c-23 -48 -65 -117 -93 -153 l-52 -67 29 -31 c25 -28 30 -30
42 -16 20 25 33 18 27 -15 -6 -29 -5 -30 28 -30 33 0 35 -2 35 -34 0 -19 2
-41 5 -48 5 -11 -9 -14 -67 -14 l-73 1 -3 -30 c-4 -55 11 -63 104 -51 38 5 42
3 43 -17 1 -12 3 -49 6 -82 5 -70 -8 -119 -37 -139 -22 -16 -21 -21 25 -79 15
-17 37 -23 37 -9 0 4 40 43 89 85 l88 78 -16 44 -15 44 -50 -47 -51 -47 -8 50
c-5 31 -4 58 2 72 6 13 8 29 5 37 -5 12 6 14 60 11 72 -4 84 6 70 60 -5 21
-12 26 -33 25 -14 -1 -40 -2 -58 -1 -30 1 -31 3 -35 49 l-3 47 62 -2 c58 -2
63 0 69 22 14 56 2 64 -74 49 -19 -4 -38 -2 -46 5 -7 6 -38 10 -69 9 -31 -1
-59 1 -63 4 -3 4 3 19 14 33 20 25 26 26 127 29 80 2 109 6 116 17 11 17 10
27 15 -166 5 -221 5 -316 0 -417 -5 -96 -2 -100 62 -90 32 4 38 17 34 73 -1
11 7 17 21 18 12 1 49 3 82 6 33 3 93 3 132 -1 59 -5 72 -9 71 -22 -5 -60 10
-73 68 -65 l29 5 2 133 c1 74 -2 137 -6 140 -12 7 -13 153 -1 160 6 3 9 58 9
126 -2 139 6 131 -129 127 l-85 -3 2 75 c0 41 4 82 8 91 8 22 -8 31 -61 36
-34 2 -44 0 -44 -12 0 -8 5 -15 10 -15 11 0 13 -50 4 -127 l-7 -52 -55 -7
c-39 -5 -57 -3 -60 5 -2 6 -23 11 -47 11 -34 0 -45 4 -50 19 -6 19 -64 31
-137 27 -21 -1 -38 0 -38 2 0 7 51 81 60 87 22 14 8 34 -37 49 -26 9 -47 16
-47 16 -1 0 -20 -40 -42 -88z m451 -292 l0 -85 -51 0 -51 0 1 85 1 85 50 0 50
0 0 -85z m202 2 l2 -87 -58 0 -58 0 1 82 1 82 45 4 c25 2 50 4 55 5 6 1 11
-34 12 -86z m1 -182 c9 -84 9 -146 1 -168 -8 -21 -14 -23 -42 -18 -17 4 -42 7
-54 8 -26 0 -34 28 -27 103 2 28 4 60 5 73 1 16 6 21 18 18 9 -3 23 -1 31 4 8
6 26 9 40 8 18 -2 26 -10 28 -28z m-199 -4 c0 -12 3 -48 5 -80 3 -32 0 -70 -5
-84 -8 -20 -14 -23 -37 -17 -15 3 -37 7 -49 7 -26 0 -34 28 -27 103 2 28 4 59
5 70 1 17 9 20 54 21 47 0 53 -2 54 -20z"/>
</g>
</svg>
