<?xml version="1.0" standalone="no"?>
<!DOCTYPE svg PUBLIC "-//W3C//DTD SVG 20010904//EN"
 "http://www.w3.org/TR/2001/REC-SVG-20010904/DTD/svg10.dtd">
<svg version="1.0" xmlns="http://www.w3.org/2000/svg"
 width="101.000000pt" height="101.000000pt" viewBox="0 0 101.000000 101.000000"
 preserveAspectRatio="xMidYMid meet">
<metadata>
Created by potrace 1.16, written by Peter Selinger 2001-2019
</metadata>
<g transform="translate(0.000000,101.000000) scale(0.100000,-0.100000)"
fill="#000000" stroke="none">
<path d="M213 993 c-40 -114 -101 -226 -162 -295 l-31 -36 39 -31 40 -32 15
23 c12 16 16 18 16 7 0 -11 9 -15 33 -15 l32 2 0 -52 0 -51 -70 1 c-75 1 -84
-6 -71 -59 5 -20 11 -23 43 -18 86 11 98 9 98 -12 0 -11 4 -30 8 -42 11 -31
-9 -143 -32 -173 -18 -26 -18 -26 5 -53 12 -15 27 -35 32 -44 9 -14 24 -3 108
77 55 51 98 98 97 104 -6 34 -15 71 -19 78 -3 5 -29 -15 -57 -43 l-52 -53 -8
44 c-6 27 -5 52 2 66 6 13 8 31 4 41 -5 12 -2 15 10 10 10 -4 29 -1 43 5 19 9
30 9 45 0 10 -7 23 -12 28 -12 14 0 23 35 16 63 -6 24 -11 25 -67 26 -33 0
-61 1 -63 3 -1 2 -5 22 -8 46 l-5 42 41 1 c23 1 50 0 61 -1 23 -2 36 16 36 52
0 34 -33 56 -56 37 -16 -13 -204 -26 -204 -14 0 5 13 29 29 54 l30 46 83 -2
c46 0 92 -4 104 -8 14 -4 27 -1 38 10 15 15 16 13 16 -29 0 -25 4 -48 10 -51
11 -7 12 -153 0 -160 -12 -7 -12 -153 0 -160 12 -7 13 -48 3 -59 -5 -4 -8 -59
-8 -121 0 -126 0 -125 67 -117 l38 4 -5 43 c-3 38 -1 43 18 44 12 0 56 3 97 6
41 3 89 3 107 0 31 -5 31 -7 27 -49 -6 -50 4 -56 69 -48 34 4 38 7 33 26 -3
12 -8 76 -12 144 -5 89 -4 122 4 122 8 0 12 19 12 50 0 28 -4 50 -10 50 -5 0
-10 11 -10 25 0 14 5 25 10 25 6 0 10 30 10 70 0 40 -4 70 -10 70 -5 0 -10 11
-10 25 0 14 5 25 10 25 6 0 10 30 10 69 l0 70 -47 -5 c-27 -2 -81 -5 -120 -7
-83 -2 -81 -6 -37 87 12 28 21 53 18 57 -2 4 -22 5 -44 2 -26 -4 -40 -2 -40 6
0 6 -6 11 -14 11 -13 0 -24 -32 -25 -70 0 -8 -2 -28 -5 -45 -2 -16 -5 -33 -5
-37 -1 -11 -137 -1 -161 12 -17 9 -26 8 -45 -4 -28 -18 -71 -21 -81 -5 -3 6
-17 9 -30 6 -24 -4 -24 -4 -8 22 8 14 30 38 47 53 22 20 27 29 16 32 -112 41
-118 42 -126 19z m522 -234 c4 -6 22 -8 44 -4 l36 6 2 -100 2 -100 -128 2
-129 2 1 95 2 95 48 -4 c27 -1 54 2 60 8 14 14 54 14 62 0z m71 -277 c12 -8
15 -29 17 -134 1 -42 -2 -80 -6 -85 -7 -7 -152 -8 -234 -2 -27 1 -35 36 -28
119 3 30 5 64 6 75 1 18 8 20 55 18 30 -1 56 2 59 7 6 10 116 12 131 2z"/>
</g>
</svg>
