<?xml version="1.0" standalone="no"?>
<!DOCTYPE svg PUBLIC "-//W3C//DTD SVG 20010904//EN"
 "http://www.w3.org/TR/2001/REC-SVG-20010904/DTD/svg10.dtd">
<svg version="1.0" xmlns="http://www.w3.org/2000/svg"
 width="101.000000pt" height="102.000000pt" viewBox="0 0 101.000000 102.000000"
 preserveAspectRatio="xMidYMid meet">
<metadata>
Created by potrace 1.16, written by Peter Selinger 2001-2019
</metadata>
<g transform="translate(0.000000,102.000000) scale(0.100000,-0.100000)"
fill="#000000" stroke="none">
<path d="M617 1007 c-28 -8 -37 -15 -33 -26 3 -9 13 -40 23 -69 16 -49 19 -52
48 -49 63 7 66 14 42 86 -12 36 -26 66 -32 67 -5 1 -27 -3 -48 -9z"/>
<path d="M181 958 c-21 -70 -68 -162 -117 -227 -44 -59 -45 -62 -33 -98 17
-54 19 -56 39 -38 16 14 18 14 23 0 7 -17 49 -20 75 -6 15 8 17 3 17 -38 l0
-48 -40 4 c-59 7 -95 -10 -95 -44 0 -40 11 -51 45 -47 88 11 90 11 93 -21 12
-101 -9 -215 -38 -215 -6 0 -10 -4 -10 -9 0 -14 44 -80 54 -81 4 0 31 21 60
46 28 26 77 65 109 88 57 40 58 41 53 80 -9 63 -19 64 -83 8 l-58 -51 -8 41
c-6 26 -5 50 2 64 6 13 8 31 4 41 -5 12 -2 15 10 10 10 -4 29 -1 43 5 20 9 30
9 46 -1 23 -14 38 -2 38 32 0 15 2 15 21 -4 13 -13 27 -18 37 -14 9 4 49 8 88
9 l72 3 -27 -36 c-81 -113 -126 -162 -157 -173 -31 -11 -41 -26 -34 -53 2 -9
6 -34 9 -57 1 -6 46 -3 116 8 46 8 132 14 218 17 l77 2 10 -31 11 -32 49 16
c28 9 50 20 50 24 0 5 -29 67 -65 139 -52 103 -69 129 -83 125 -9 -3 -29 -8
-44 -12 -16 -3 -28 -8 -28 -10 0 -2 16 -33 36 -69 20 -36 34 -68 31 -71 -5 -5
-75 -7 -122 -4 -11 1 -42 -1 -68 -4 -54 -5 -56 -12 19 79 23 28 77 102 119
165 43 63 87 125 98 137 l19 22 -41 20 c-22 12 -46 21 -53 21 -7 0 -32 -33
-54 -72 l-41 -73 -71 0 c-44 0 -68 4 -64 10 4 6 31 47 60 92 29 44 59 84 67
87 18 7 20 36 3 37 -7 0 -5 3 4 7 10 4 76 7 148 7 144 0 149 2 135 64 -7 32
-31 47 -50 31 -6 -5 -54 -10 -106 -9 -52 0 -112 0 -134 0 -84 0 -211 7 -227
14 -11 4 -23 -1 -34 -14 -14 -15 -22 -18 -36 -10 -10 6 -29 7 -41 3 -28 -9
-97 -11 -97 -3 0 4 16 30 35 58 19 28 35 54 35 59 0 5 -18 14 -41 21 -23 7
-47 15 -53 17 -8 3 -17 -12 -25 -38z m307 -192 c45 2 82 1 82 -2 0 -21 -91
-174 -123 -207 -28 -28 -36 -43 -32 -58 7 -20 6 -20 -19 -4 -16 10 -33 14 -47
10 -12 -4 -33 -8 -48 -9 -25 -2 -26 0 -26 56 l0 58 32 0 c17 0 35 -4 38 -10
12 -20 43 -10 49 16 15 59 8 62 -133 60 l-129 -1 16 28 c27 46 37 49 137 50
74 1 96 5 100 16 4 11 8 12 13 4 5 -8 33 -11 90 -7z"/>
</g>
</svg>
