<?xml version="1.0" standalone="no"?>
<!DOCTYPE svg PUBLIC "-//W3C//DTD SVG 20010904//EN"
 "http://www.w3.org/TR/2001/REC-SVG-20010904/DTD/svg10.dtd">
<svg version="1.0" xmlns="http://www.w3.org/2000/svg"
 width="101.000000pt" height="102.000000pt" viewBox="0 0 101.000000 102.000000"
 preserveAspectRatio="xMidYMid meet">
<metadata>
Created by potrace 1.16, written by Peter Selinger 2001-2019
</metadata>
<g transform="translate(0.000000,102.000000) scale(0.100000,-0.100000)"
fill="#000000" stroke="none">
<path d="M154 938 c-16 -50 -48 -112 -81 -161 l-55 -80 18 -39 c20 -44 21 -44
46 -21 11 10 19 13 18 8 -6 -29 2 -34 40 -31 l41 4 -3 -51 -3 -52 -45 3 c-64
4 -87 -4 -94 -34 -12 -47 0 -64 42 -59 90 11 87 12 90 -20 2 -16 3 -59 2 -95
-1 -51 -5 -69 -22 -87 l-21 -22 32 -40 32 -41 87 76 c107 94 122 102 129 76 6
-24 39 -35 64 -22 10 6 44 7 77 4 l60 -7 -4 -36 c-2 -20 -5 -43 -5 -51 -8 -65
8 -81 68 -73 39 6 46 22 27 59 -11 21 -13 34 -5 51 6 13 8 29 5 37 -6 16 1 17
128 18 83 1 86 2 91 26 8 42 -3 64 -27 55 -11 -4 -50 -7 -86 -6 -118 4 -110 0
-108 48 2 35 6 43 23 44 53 4 92 3 116 -4 23 -6 27 -3 31 20 9 47 -1 66 -31
58 -23 -7 -45 -7 -116 -2 -18 1 -20 8 -18 50 1 27 -1 49 -5 50 -4 0 -16 3 -27
5 -29 8 -57 6 -66 -3 -4 -4 -4 -29 0 -56 7 -44 6 -48 -16 -53 -12 -4 -31 -3
-40 1 -10 4 -34 9 -54 11 -29 3 -38 -1 -42 -15 -8 -31 4 -71 22 -73 17 -1 23
-1 91 6 l46 4 2 -42 1 -43 -60 -7 c-33 -3 -68 -2 -78 4 -24 12 -61 1 -62 -19
0 -9 -10 5 -22 31 l-22 46 -55 -49 -55 -49 -9 30 c-6 20 -5 39 2 55 6 14 9 31
6 39 -6 15 4 17 88 18 51 1 66 17 53 57 -5 16 -19 21 -70 26 l-65 7 0 44 c0
48 -4 46 94 48 35 1 40 -2 55 -34 8 -19 16 -36 17 -38 1 -3 98 43 164 78 57
31 56 31 112 3 49 -24 197 -68 204 -60 16 15 50 98 42 103 -5 3 -35 7 -66 9
-31 2 -72 8 -89 14 -18 5 -33 8 -33 5 0 -3 -9 0 -21 7 -21 11 -21 11 4 37 31
33 127 190 127 209 0 10 -21 13 -87 12 -49 0 -151 2 -228 4 l-140 5 0 -49 c0
-46 1 -48 27 -45 23 3 25 1 15 -14 -9 -15 -3 -27 30 -66 22 -27 50 -58 62 -68
20 -18 20 -20 2 -32 -21 -15 -103 -48 -144 -58 -20 -5 -27 -3 -22 4 4 6 4 21
1 34 -6 23 -8 23 -134 22 l-128 -1 25 41 c25 39 28 41 68 36 23 -2 71 -1 107
3 53 5 66 10 71 26 9 26 -3 72 -15 64 -5 -3 -43 -3 -84 1 l-74 7 19 32 c11 18
28 40 39 50 11 10 20 22 20 27 0 11 -47 30 -87 33 -32 3 -32 3 -59 -77z m550
-56 l39 -7 -41 -52 c-23 -28 -46 -54 -52 -58 -12 -7 -93 64 -110 96 -7 13 -5
15 14 12 13 -3 27 0 30 6 8 12 61 13 120 3z"/>
</g>
</svg>
