<?xml version="1.0" standalone="no"?>
<!DOCTYPE svg PUBLIC "-//W3C//DTD SVG 20010904//EN"
 "http://www.w3.org/TR/2001/REC-SVG-20010904/DTD/svg10.dtd">
<svg version="1.0" xmlns="http://www.w3.org/2000/svg"
 width="101.000000pt" height="103.000000pt" viewBox="0 0 101.000000 103.000000"
 preserveAspectRatio="xMidYMid meet">
<metadata>
Created by potrace 1.16, written by Peter Selinger 2001-2019
</metadata>
<g transform="translate(0.000000,103.000000) scale(0.100000,-0.100000)"
fill="#000000" stroke="none">
<path d="M190 956 c-29 -93 -70 -173 -125 -240 l-44 -55 20 -46 21 -47 29 33
c15 19 28 29 29 23 0 -7 6 -12 13 -11 42 1 45 -3 49 -57 l3 -55 -27 6 c-15 3
-43 2 -62 -1 -37 -7 -47 -26 -39 -70 5 -26 6 -27 70 -21 57 5 65 3 59 -10 -3
-9 -1 -25 4 -35 17 -31 0 -141 -25 -166 l-22 -22 20 -38 c11 -22 21 -41 23
-43 1 -1 40 24 86 57 98 70 128 87 128 72 0 -10 57 -8 135 6 29 5 81 10 176
18 53 4 50 9 49 -105 0 -63 8 -70 67 -62 39 6 48 34 27 79 -12 24 -13 37 -5
52 6 12 8 27 5 35 -6 16 -2 17 83 20 41 1 42 1 38 37 -1 19 -3 41 -4 48 -1 8
-11 10 -33 6 -18 -3 -45 -7 -60 -9 l-27 -4 6 98 c4 69 2 100 -6 105 -14 9 -15
152 -1 161 6 4 9 32 8 66 l-3 59 30 1 c16 1 35 1 42 0 16 -2 25 32 18 62 -6
23 -11 25 -41 20 -20 -3 -40 -1 -49 7 -9 8 -25 10 -42 5 -34 -8 -212 -9 -306
0 -78 6 -110 -5 -105 -38 3 -21 -1 -22 -69 -22 -40 0 -73 1 -73 3 0 14 53 102
61 102 21 0 2 24 -27 33 -76 23 -81 20 -104 -57z m287 -236 c2 -131 2 -143 2
-306 l0 -102 -34 1 c-24 1 -35 6 -39 20 -4 18 -9 16 -51 -14 -90 -67 -82 -65
-89 -15 -4 26 -3 53 3 65 6 11 8 26 5 35 -5 12 4 14 59 11 63 -3 65 -2 70 22
9 49 -1 61 -58 68 -30 4 -58 4 -63 1 -6 -3 -9 17 -8 52 l1 57 67 -2 c74 -1 86
9 73 60 -7 24 -10 25 -113 32 -59 3 -112 7 -119 8 -8 1 -6 12 8 35 16 24 28
32 50 32 16 0 29 5 29 10 0 14 127 13 136 -1 5 -8 10 -6 16 5 5 9 6 21 2 27
-8 13 8 25 33 25 16 0 18 -13 20 -126z m278 72 c0 -67 -4 -69 -120 -71 l-70
-1 0 62 0 63 95 2 95 3 0 -58z m0 -202 l0 -59 -55 -7 c-37 -5 -55 -3 -58 5 -2
6 -19 11 -38 11 -32 0 -34 2 -34 34 0 19 -3 41 -6 50 -5 13 9 16 93 19 54 1
98 4 98 5 0 1 0 -25 0 -58z m-4 -129 c4 -1 7 -11 7 -23 1 -13 4 -37 7 -54 8
-39 -1 -46 -69 -50 -28 -2 -70 -5 -93 -8 -41 -4 -43 -4 -49 29 -3 18 -1 42 5
53 6 11 8 28 4 37 -5 14 -2 16 13 11 10 -3 26 -1 34 4 12 7 97 8 141 1z"/>
</g>
</svg>
