<?xml version="1.0" standalone="no"?>
<!DOCTYPE svg PUBLIC "-//W3C//DTD SVG 20010904//EN"
 "http://www.w3.org/TR/2001/REC-SVG-20010904/DTD/svg10.dtd">
<svg version="1.0" xmlns="http://www.w3.org/2000/svg"
 width="101.000000pt" height="101.000000pt" viewBox="0 0 101.000000 101.000000"
 preserveAspectRatio="xMidYMid meet">
<metadata>
Created by potrace 1.16, written by Peter Selinger 2001-2019
</metadata>
<g transform="translate(0.000000,101.000000) scale(0.100000,-0.100000)"
fill="#000000" stroke="none">
<path d="M197 993 c-2 -5 -10 -26 -17 -48 -21 -66 -67 -151 -113 -207 l-43
-53 15 -40 c19 -53 17 -52 46 -25 19 18 25 20 25 8 0 -18 40 -31 65 -22 14 6
16 0 13 -42 l-3 -48 -67 1 c-63 1 -67 0 -73 -24 -3 -13 -3 -33 0 -44 8 -23 67
-36 101 -20 14 6 26 11 27 11 1 0 1 -24 0 -52 0 -29 3 -59 9 -66 15 -17 2 -72
-23 -98 l-21 -22 24 -41 c12 -22 25 -41 28 -41 3 0 30 20 60 45 30 25 77 62
103 81 l48 35 -16 -31 c-9 -17 -32 -48 -51 -69 l-34 -39 50 -16 c28 -9 55 -14
60 -11 27 17 96 167 106 230 3 17 8 46 11 65 3 19 8 69 10 110 2 41 5 89 6
105 l2 30 77 -3 c46 -2 79 1 83 7 8 13 52 14 59 2 6 -10 89 -13 116 -6 14 4
14 16 6 86 -6 55 -6 87 1 98 12 20 15 92 4 109 -5 9 -17 9 -46 1 -21 -6 -57
-8 -79 -4 -23 3 -102 8 -176 10 l-135 3 3 -59 c3 -38 0 -59 -7 -59 -6 0 -11
-18 -11 -40 0 -22 5 -40 10 -40 6 0 10 -33 10 -80 0 -49 -4 -80 -11 -80 -6 0
-10 -27 -10 -67 0 -38 -2 -89 -4 -114 -4 -50 -24 -134 -30 -127 -4 3 -13 52
-14 76 -1 8 -26 -6 -61 -33 l-59 -45 -6 34 c-4 19 -2 43 4 54 6 11 8 27 5 35
-6 17 52 28 85 15 27 -10 51 15 51 53 0 36 -35 53 -95 46 l-40 -4 3 37 c3 33
8 39 34 44 17 3 41 6 53 6 26 0 38 21 29 55 -4 18 -15 24 -52 29 -29 4 -48 2
-50 -4 -5 -13 -52 -13 -52 0 0 6 -20 10 -45 10 l-45 0 21 33 22 32 108 0 c119
0 127 4 113 59 -8 32 -34 40 -114 34 -33 -2 -60 -3 -60 -1 0 8 50 82 60 88 21
13 9 25 -42 40 -60 18 -56 17 -61 8z m568 -123 c30 0 30 0 32 -64 l2 -64 -37
-6 c-56 -9 -97 -7 -109 5 -6 6 -34 10 -63 8 l-52 -4 6 29 c3 16 6 41 6 57 0
22 5 29 19 29 11 0 23 5 27 11 5 8 28 10 73 5 36 -3 80 -6 96 -6z"/>
<path d="M587 623 c-4 -3 -7 -103 -7 -220 0 -172 3 -220 15 -243 9 -17 21 -30
28 -31 6 0 21 -3 32 -5 11 -3 29 -4 40 -4 11 1 52 1 92 0 98 -1 126 14 152 85
24 63 25 75 10 75 -5 0 -26 11 -46 25 -20 13 -38 23 -41 21 -2 -2 -5 -23 -7
-47 -6 -68 -30 -80 -137 -67 -40 4 -50 21 -50 75 1 99 -6 90 114 149 61 30
117 54 124 54 24 0 15 25 -21 60 l-34 33 -75 -51 c-102 -71 -101 -71 -99 -15
1 27 5 57 8 69 5 15 0 23 -20 32 -28 13 -68 16 -78 5z"/>
</g>
</svg>
