<?xml version="1.0" standalone="no"?>
<!DOCTYPE svg PUBLIC "-//W3C//DTD SVG 20010904//EN"
 "http://www.w3.org/TR/2001/REC-SVG-20010904/DTD/svg10.dtd">
<svg version="1.0" xmlns="http://www.w3.org/2000/svg"
 width="101.000000pt" height="101.000000pt" viewBox="0 0 101.000000 101.000000"
 preserveAspectRatio="xMidYMid meet">
<metadata>
Created by potrace 1.16, written by Peter Selinger 2001-2019
</metadata>
<g transform="translate(0.000000,101.000000) scale(0.100000,-0.100000)"
fill="#000000" stroke="none">
<path d="M180 990 c-6 -11 -9 -20 -6 -20 8 0 -29 -101 -57 -156 -14 -28 -43
-73 -65 -101 l-41 -51 24 -46 24 -47 17 26 c15 23 18 24 29 9 9 -13 16 -14 33
-5 45 24 53 16 50 -51 l-3 -63 -34 3 c-60 6 -100 -6 -107 -33 -10 -40 3 -62
34 -58 88 12 97 10 100 -22 9 -79 2 -149 -18 -170 l-20 -22 22 -41 c13 -23 27
-42 31 -42 5 0 32 20 60 43 29 24 73 58 100 76 42 28 46 35 41 59 -17 66 -15
66 -74 22 l-55 -41 -9 31 c-6 20 -5 39 2 55 6 14 9 31 6 39 -6 15 4 17 91 18
53 0 65 9 65 46 0 28 -33 42 -101 42 l-49 0 0 54 c0 50 2 54 27 59 15 3 37 1
50 -4 30 -11 52 -2 59 26 9 37 1 60 -21 57 -90 -13 -108 -14 -129 -2 -13 7
-44 11 -69 9 -44 -4 -46 -3 -33 16 7 11 19 29 25 40 11 18 23 20 117 20 114
-1 122 4 108 59 -6 24 -16 31 -39 27 -5 -2 -37 -3 -71 -4 l-62 -2 15 30 c9 17
26 44 39 62 13 17 24 34 24 37 0 5 -96 36 -111 36 -5 0 -13 -9 -19 -20z"/>
<path d="M615 878 c2 -73 7 -150 10 -170 4 -21 5 -49 1 -62 -5 -22 -9 -23 -96
-21 -88 3 -90 2 -96 -21 -3 -13 -3 -35 0 -48 l6 -24 182 1 183 2 0 -56 0 -57
-58 -6 c-32 -3 -66 -2 -76 3 -9 5 -23 9 -31 8 -8 -1 -38 2 -67 7 -95 14 -138
-12 -119 -72 6 -17 13 -19 44 -15 80 10 131 12 218 7 86 -5 92 -7 92 -27 1
-12 4 -35 7 -52 10 -53 2 -56 -161 -57 -82 -1 -170 2 -195 5 -41 6 -47 4 -52
-12 -13 -50 9 -79 53 -71 8 1 44 4 80 6 36 2 97 6 135 9 39 3 84 3 101 0 26
-5 31 -10 31 -35 0 -17 2 -32 4 -35 7 -6 36 -9 75 -7 l30 2 -5 58 c-5 71 -2
337 6 414 7 70 7 69 -114 71 l-88 2 4 43 c1 23 -2 48 -7 55 -13 16 -15 174 -2
182 6 4 10 18 9 33 0 15 2 37 6 50 7 21 5 22 -53 22 l-60 0 3 -132z"/>
<path d="M825 898 c-4 -13 -9 -32 -10 -43 -5 -27 -39 -103 -65 -141 l-20 -31
45 -13 c25 -7 47 -11 49 -9 2 2 21 38 41 79 21 41 49 88 62 104 28 33 21 46
-36 65 -48 16 -58 14 -66 -11z"/>
<path d="M443 884 l-32 -14 34 -57 c18 -32 39 -77 46 -100 7 -24 18 -43 24
-43 14 0 85 28 85 34 0 30 -96 196 -113 195 -7 0 -26 -7 -44 -15z"/>
</g>
</svg>
