<?xml version="1.0" standalone="no"?>
<!DOCTYPE svg PUBLIC "-//W3C//DTD SVG 20010904//EN"
 "http://www.w3.org/TR/2001/REC-SVG-20010904/DTD/svg10.dtd">
<svg version="1.0" xmlns="http://www.w3.org/2000/svg"
 width="101.000000pt" height="101.000000pt" viewBox="0 0 101.000000 101.000000"
 preserveAspectRatio="xMidYMid meet">
<metadata>
Created by potrace 1.16, written by Peter Selinger 2001-2019
</metadata>
<g transform="translate(0.000000,101.000000) scale(0.100000,-0.100000)"
fill="#000000" stroke="none">
<path d="M191 971 c-18 -63 -96 -211 -142 -270 -39 -52 -40 -55 -23 -68 11 -7
27 -20 37 -29 17 -14 21 -14 38 2 10 9 19 12 19 6 0 -6 12 -10 28 -8 26 4 27
3 26 -43 -2 -46 -2 -46 -35 -43 -92 7 -92 6 -92 -38 0 -44 0 -45 93 -38 29 3
35 0 36 -17 0 -11 4 -31 8 -45 9 -32 -10 -119 -31 -142 -14 -16 -13 -20 10
-47 14 -17 27 -35 29 -41 2 -7 42 27 89 75 l85 87 -19 39 c-10 21 -21 39 -23
39 -2 0 -17 -14 -33 -32 -34 -38 -56 -31 -46 16 3 17 6 41 7 53 0 22 8 23 75
12 22 -4 31 3 36 27 9 51 0 60 -56 58 l-52 -2 0 39 -1 39 46 1 c25 1 50 1 55
0 6 0 10 19 10 44 0 43 -15 60 -30 35 -3 -5 -33 -10 -66 -10 -33 0 -59 4 -59
10 0 6 -11 10 -25 10 -29 0 -31 7 -10 37 13 18 29 22 110 28 52 4 95 11 95 16
0 5 3 9 8 9 4 0 5 -23 4 -50 -2 -28 1 -56 7 -64 11 -14 13 -144 2 -161 -3 -5
-6 -30 -7 -55 -2 -114 -36 -216 -89 -274 -20 -22 -34 -40 -33 -40 35 -17 81
-36 88 -36 25 0 95 154 106 235 3 17 7 48 11 70 3 22 6 58 7 81 1 38 2 40 32
40 35 -1 36 -3 35 -96 0 -74 -8 -100 -29 -98 -49 4 -54 0 -37 -32 8 -16 15
-36 15 -45 0 -19 19 -19 70 1 50 20 60 50 67 199 6 133 5 146 -1 152 -3 3 -38
6 -78 7 l-73 1 0 50 0 50 90 1 90 2 1 -67 c0 -58 8 -152 20 -246 3 -16 6 -43
8 -60 5 -41 -16 -64 -153 -161 -2 -2 13 -19 34 -38 l37 -36 29 21 c15 11 43
38 62 60 l35 40 20 -33 c48 -77 124 -128 157 -105 21 16 55 119 48 146 -3 11
-23 29 -44 40 -41 22 -45 19 -41 -29 1 -8 -1 -21 -4 -29 -7 -20 -37 9 -59 58
-16 36 -16 40 0 71 9 18 32 75 51 127 19 53 41 105 49 116 8 12 15 24 15 27 0
11 -99 42 -111 35 -6 -4 -9 -18 -6 -31 2 -14 1 -26 -3 -29 -4 -2 -7 -17 -8
-32 0 -15 -7 -46 -15 -68 l-14 -40 -17 39 c-18 44 -21 92 -6 101 6 4 9 32 8
63 l-3 57 55 -3 c122 -7 161 12 146 73 -6 23 -8 24 -110 22 l-104 -2 4 72 c1
39 7 81 13 92 14 25 4 32 -56 38 -33 3 -43 1 -38 -7 4 -6 4 -54 0 -106 l-7
-93 -134 2 c-95 1 -134 5 -134 14 0 20 -32 45 -49 37 -16 -6 -92 -6 -99 1 -8
7 39 85 58 95 31 16 24 27 -27 44 -65 22 -68 21 -82 -23z"/>
<path d="M786 949 l-26 -21 27 -32 c16 -17 35 -43 44 -56 l16 -25 37 28 36 28
-41 50 c-23 27 -48 49 -54 49 -7 0 -24 -9 -39 -21z"/>
</g>
</svg>
