<?xml version="1.0" standalone="no"?>
<!DOCTYPE svg PUBLIC "-//W3C//DTD SVG 20010904//EN"
 "http://www.w3.org/TR/2001/REC-SVG-20010904/DTD/svg10.dtd">
<svg version="1.0" xmlns="http://www.w3.org/2000/svg"
 width="101.000000pt" height="101.000000pt" viewBox="0 0 101.000000 101.000000"
 preserveAspectRatio="xMidYMid meet">
<metadata>
Created by potrace 1.16, written by Peter Selinger 2001-2019
</metadata>
<g transform="translate(0.000000,101.000000) scale(0.100000,-0.100000)"
fill="#000000" stroke="none">
<path d="M195 963 c-25 -70 -82 -172 -122 -221 l-35 -42 18 -45 c16 -43 18
-45 35 -29 18 16 19 16 19 1 0 -12 12 -19 39 -23 35 -6 39 -9 45 -43 9 -57 8
-60 -16 -54 -87 20 -128 9 -128 -34 0 -49 32 -71 74 -51 35 15 74 3 75 -24 9
-125 5 -167 -17 -191 l-23 -24 22 -37 c11 -20 23 -36 26 -36 2 0 41 30 85 68
44 37 92 76 106 88 24 20 24 22 11 63 l-14 42 -55 -41 -55 -41 -9 31 c-6 20
-5 39 2 55 6 14 9 31 6 38 -6 16 65 21 101 7 49 -19 80 66 34 91 -20 10 -37
10 -124 -3 -17 -3 -20 3 -23 47 l-3 51 75 -3 c72 -2 74 -1 80 23 17 66 -9 76
-175 71 l-106 -3 30 41 31 40 115 3 c117 3 131 8 131 44 0 23 -29 50 -43 41
-11 -7 -157 -12 -157 -6 0 8 50 82 60 88 24 15 7 35 -42 50 -28 8 -52 15 -53
15 -1 0 -10 -21 -20 -47z"/>
<path d="M600 959 c0 -7 -21 -10 -60 -7 -66 3 -68 2 -69 -62 0 -19 5 -40 11
-47 6 -7 8 -52 5 -116 l-5 -104 58 -2 c32 -1 61 3 65 9 8 13 52 13 60 0 6 -9
193 -5 203 4 6 7 12 281 6 309 -5 27 -9 29 -38 23 -71 -15 -156 -19 -156 -7 0
6 -17 11 -40 11 -22 0 -40 -5 -40 -11z m131 -75 l44 -6 3 -85 3 -84 -36 7
c-23 4 -35 2 -35 -5 0 -6 -11 -11 -25 -11 -14 0 -25 5 -25 10 0 6 -21 10 -46
10 l-47 0 7 53 c3 28 6 62 6 75 0 15 6 22 19 22 11 0 23 5 26 10 7 11 43 13
106 4z"/>
<path d="M462 537 c-9 -11 -12 -72 -12 -225 2 -233 -1 -225 68 -214 32 4 38
15 34 63 -1 11 7 17 21 18 12 0 58 3 102 6 44 3 94 3 112 0 29 -5 31 -9 29
-40 -3 -38 7 -44 64 -38 l35 5 2 214 c2 214 2 214 -20 220 -13 3 -34 1 -47 -4
-24 -9 -267 -6 -341 5 -24 3 -39 0 -47 -10z m334 -77 c24 0 24 1 27 -122 1
-42 -2 -80 -6 -85 -5 -4 -57 -7 -115 -6 -161 3 -150 0 -157 44 -4 23 -2 45 3
52 6 7 9 35 9 63 l-2 51 41 -5 c23 -2 50 1 60 7 11 7 40 9 69 6 28 -2 60 -5
71 -5z"/>
</g>
</svg>
