<?xml version="1.0" standalone="no"?>
<!DOCTYPE svg PUBLIC "-//W3C//DTD SVG 20010904//EN"
 "http://www.w3.org/TR/2001/REC-SVG-20010904/DTD/svg10.dtd">
<svg version="1.0" xmlns="http://www.w3.org/2000/svg"
 width="101.000000pt" height="102.000000pt" viewBox="0 0 101.000000 102.000000"
 preserveAspectRatio="xMidYMid meet">
<metadata>
Created by potrace 1.16, written by Peter Selinger 2001-2019
</metadata>
<g transform="translate(0.000000,102.000000) scale(0.100000,-0.100000)"
fill="#000000" stroke="none">
<path d="M636 1005 c4 -9 3 -53 -1 -99 l-7 -84 -39 2 c-34 1 -38 4 -33 21 4
11 10 24 15 30 18 19 8 33 -27 39 -19 4 -41 9 -48 12 -15 6 -27 -17 -33 -65
-2 -19 -8 -42 -14 -52 -5 -11 -7 -19 -4 -19 2 0 -6 -25 -20 -56 -30 -69 -31
-70 -2 -77 12 -2 29 -7 38 -11 12 -5 22 6 40 49 l24 55 49 -2 49 -3 1 -76 1
-77 -59 -6 c-32 -3 -63 -3 -68 0 -6 4 -28 8 -48 10 -42 4 -52 -11 -43 -59 6
-30 33 -39 72 -24 43 16 61 4 55 -35 -2 -18 -6 -53 -9 -78 -8 -94 -52 -158
-146 -216 -32 -20 -59 -38 -59 -40 0 -4 92 -54 101 -54 5 0 27 17 50 37 95 86
144 199 151 349 2 27 5 30 34 31 38 1 35 15 37 -199 2 -171 9 -192 58 -188 13
1 49 1 79 1 83 -1 96 4 119 52 30 62 27 78 -22 109 -40 26 -42 26 -49 7 -4
-10 -5 -25 -2 -32 13 -36 -61 -71 -90 -42 -20 20 -28 84 -21 175 3 41 6 85 6
96 1 15 8 22 23 23 77 5 94 5 122 -1 30 -7 32 -5 36 24 8 53 -1 71 -31 62 -14
-4 -55 -7 -91 -6 -123 3 -111 -5 -104 71 4 36 7 67 8 68 1 1 41 3 89 4 95 3
105 10 92 67 l-5 27 -95 0 -94 0 4 74 c3 41 7 82 10 91 4 13 -2 19 -26 24 -55
11 -79 8 -73 -9z"/>
<path d="M170 989 c-6 -10 -8 -19 -6 -19 17 0 -61 -166 -104 -220 -16 -20 -28
-39 -25 -41 2 -3 6 -16 8 -29 10 -48 18 -61 32 -50 10 8 15 6 20 -9 6 -21 46
-38 62 -28 5 3 8 -18 7 -46 -2 -56 -15 -68 -52 -48 -42 22 -78 -11 -65 -59 5
-19 11 -20 63 -16 54 5 58 4 59 -17 1 -12 3 -49 6 -82 5 -66 -8 -120 -32 -133
-12 -7 -9 -16 18 -57 l32 -47 31 35 c30 34 100 98 159 143 l27 22 -21 46 -20
46 -52 -51 -52 -51 -9 37 c-5 24 -5 45 3 61 6 13 8 31 4 41 -5 12 -2 15 10 10
10 -4 29 -1 42 5 19 9 28 9 37 0 19 -19 55 -14 61 8 12 45 -2 58 -56 59 -94 0
-92 -1 -92 46 l0 43 54 5 c30 3 58 12 63 19 10 16 1 60 -15 70 -7 5 -64 7
-128 6 l-117 -3 30 43 c23 33 35 42 58 42 17 0 30 5 30 10 0 14 143 13 157 -1
9 -9 13 -6 18 14 4 14 5 35 3 47 -3 22 -8 23 -99 24 l-97 1 24 48 c14 26 29
47 34 47 20 0 9 18 -17 29 -54 21 -82 21 -93 0z"/>
</g>
</svg>
