<?xml version="1.0" standalone="no"?>
<!DOCTYPE svg PUBLIC "-//W3C//DTD SVG 20010904//EN"
 "http://www.w3.org/TR/2001/REC-SVG-20010904/DTD/svg10.dtd">
<svg version="1.0" xmlns="http://www.w3.org/2000/svg"
 width="101.000000pt" height="101.000000pt" viewBox="0 0 101.000000 101.000000"
 preserveAspectRatio="xMidYMid meet">
<metadata>
Created by potrace 1.16, written by Peter Selinger 2001-2019
</metadata>
<g transform="translate(0.000000,101.000000) scale(0.100000,-0.100000)"
fill="#000000" stroke="none">
<path d="M160 963 c-22 -68 -78 -177 -115 -226 l-36 -47 23 -40 c13 -22 26
-40 30 -40 3 0 16 15 27 33 19 28 21 29 16 7 -3 -15 0 -33 8 -45 12 -16 19
-17 38 -8 24 10 24 9 24 -41 l0 -51 -70 0 c-75 0 -84 -7 -71 -60 6 -22 10 -24
49 -19 92 11 92 11 95 -21 2 -16 3 -59 2 -95 -1 -55 -5 -69 -27 -92 l-26 -27
29 -45 28 -45 66 62 c36 34 80 75 99 90 30 25 32 30 23 55 -6 15 -13 36 -16
46 -6 17 -12 15 -51 -24 l-44 -43 -6 36 c-4 19 -2 44 4 55 6 11 8 27 5 35 -4
13 4 15 47 13 44 -3 56 -8 75 -31 12 -15 24 -23 28 -17 3 6 28 29 56 52 l49
41 -4 -28 c-19 -141 -65 -207 -183 -261 l-54 -24 37 -34 c21 -19 42 -34 47
-34 19 0 114 68 145 104 56 63 76 113 89 221 15 124 16 155 5 155 -6 0 -11 11
-11 25 0 14 5 25 10 25 6 0 10 30 10 70 0 40 -4 70 -10 70 -12 0 -13 67 -1 72
11 4 19 134 8 144 -4 4 -26 9 -50 10 l-42 3 -2 -137 c-1 -75 -3 -150 -4 -167
0 -22 -8 -7 -31 58 -32 94 -28 91 -96 71 -18 -5 -24 -2 -29 15 -6 24 -41 36
-81 27 -79 -18 -74 -19 -61 6 6 13 22 37 35 55 30 40 30 51 -1 63 -66 25 -72
24 -85 -17z m246 -272 c3 -14 10 -39 16 -54 9 -24 15 -27 37 -22 51 14 56 12
59 -25 3 -35 1 -37 -71 -78 -40 -23 -76 -42 -80 -42 -4 0 -7 9 -7 20 0 17 -6
20 -40 18 -22 -1 -42 1 -44 3 -2 2 -6 25 -8 50 l-5 45 43 -2 c35 -2 44 1 49
17 4 10 4 27 0 38 -5 16 -21 19 -115 25 -61 4 -115 4 -121 0 -7 -4 0 10 14 32
28 40 46 45 169 45 40 0 48 4 54 22 7 20 9 17 27 -22 10 -24 21 -55 23 -70z"/>
<path d="M690 993 c-8 -3 -18 -11 -22 -16 -9 -15 -8 -96 2 -102 12 -8 11 -173
-1 -180 -12 -8 -12 -142 1 -150 13 -8 13 -52 -1 -61 -14 -8 -5 -285 11 -331
13 -37 60 -59 91 -42 10 5 40 7 66 4 68 -9 100 6 122 57 17 41 18 78 1 78 -5
0 -23 12 -40 26 -35 30 -39 29 -44 -12 -3 -16 -7 -36 -11 -46 -14 -36 -97 -29
-109 9 -8 27 -5 127 4 138 5 6 7 34 7 64 l-2 53 55 -61 55 -62 33 34 c17 18
32 37 31 42 0 6 -43 41 -95 78 -82 60 -94 72 -94 98 0 33 9 35 50 14 27 -14
29 -13 52 18 30 40 100 158 96 163 -2 1 -24 12 -50 23 l-46 19 -17 -46 c-10
-26 -30 -67 -44 -92 l-26 -45 -8 94 c-6 69 -5 101 4 117 6 12 9 29 6 37 -3 8
1 25 10 37 10 14 12 25 6 31 -12 12 -73 20 -93 12z"/>
</g>
</svg>
