<?xml version="1.0" standalone="no"?>
<!DOCTYPE svg PUBLIC "-//W3C//DTD SVG 20010904//EN"
 "http://www.w3.org/TR/2001/REC-SVG-20010904/DTD/svg10.dtd">
<svg version="1.0" xmlns="http://www.w3.org/2000/svg"
 width="101.000000pt" height="102.000000pt" viewBox="0 0 101.000000 102.000000"
 preserveAspectRatio="xMidYMid meet">
<metadata>
Created by potrace 1.16, written by Peter Selinger 2001-2019
</metadata>
<g transform="translate(0.000000,102.000000) scale(0.100000,-0.100000)"
fill="#000000" stroke="none">
<path d="M174 967 c-24 -75 -65 -153 -116 -222 l-44 -60 27 -43 27 -43 22 28
c12 15 21 21 20 13 -6 -38 -1 -42 41 -36 l40 6 -3 -47 -3 -46 -72 0 c-71 1
-72 0 -78 -28 -4 -15 -1 -38 5 -50 11 -20 17 -21 74 -15 l61 6 -2 -52 c0 -29
3 -58 9 -65 16 -19 -1 -90 -29 -124 l-25 -29 26 -35 c15 -19 30 -35 33 -35 3
0 33 26 67 58 34 32 83 71 109 87 26 17 47 36 47 43 0 18 -28 82 -36 82 -4 0
-30 -21 -58 -47 l-50 -48 -9 44 c-6 28 -5 52 2 67 6 13 8 30 6 37 -4 9 9 12
52 10 61 -2 73 5 73 44 0 38 -28 56 -79 51 l-46 -5 3 43 c4 40 6 42 40 48 21
3 47 3 59 0 18 -5 23 -1 28 19 11 41 -3 66 -38 72 -18 4 -43 2 -57 -3 -25 -8
-66 -7 -127 4 l-32 6 24 36 c23 34 26 35 95 38 39 2 80 0 90 -6 28 -15 47 -3
54 34 11 57 5 61 -89 61 l-84 0 16 25 c9 14 25 35 36 48 18 19 19 24 6 36 -8
7 -33 20 -56 29 l-42 16 -17 -52z"/>
<path d="M628 1004 l-47 -14 24 -47 c30 -54 31 -73 8 -73 -188 -5 -188 -5
-191 -29 -2 -13 -1 -33 2 -46 6 -22 9 -23 128 -24 73 0 127 4 134 10 14 11
159 7 220 -6 27 -6 33 -4 39 14 3 12 4 35 0 51 l-7 30 -67 -6 c-38 -4 -99 -3
-137 1 -65 8 -67 9 -36 18 17 5 32 16 32 23 0 17 -36 101 -47 107 -4 2 -29 -2
-55 -9z"/>
<path d="M512 702 c-17 -26 -56 -72 -87 -101 -31 -29 -55 -54 -53 -55 2 0 19
-9 38 -19 20 -10 43 -15 51 -12 12 4 20 -6 34 -42 9 -26 33 -76 51 -111 19
-35 31 -68 28 -74 -10 -15 -160 -83 -219 -98 -27 -7 -51 -14 -53 -15 -1 -1 16
-21 39 -44 l42 -42 62 26 c34 15 93 46 131 70 l69 44 30 -20 c34 -23 180 -94
210 -102 16 -4 27 5 53 45 18 28 30 53 28 55 -2 3 -17 6 -33 9 -15 2 -38 6
-50 8 -32 5 -135 45 -155 60 -17 12 -14 20 34 112 28 54 58 107 65 116 20 23
11 33 -44 52 -35 12 -49 13 -60 4 -7 -6 -12 -16 -10 -22 5 -13 -24 -99 -50
-150 l-19 -37 -29 56 c-15 31 -28 64 -28 73 0 10 -4 23 -10 30 -5 6 -6 12 -3
12 4 0 2 9 -4 19 -7 14 -17 18 -36 15 l-26 -5 32 41 c18 23 48 53 66 68 19 15
34 30 34 34 0 8 -43 32 -76 42 -17 5 -26 -3 -52 -42z"/>
<path d="M725 726 l-30 -24 42 -36 c23 -20 62 -63 87 -97 l45 -60 37 34 c31
28 35 37 26 53 -15 29 -148 154 -164 154 -7 0 -26 -11 -43 -24z"/>
</g>
</svg>
