<?xml version="1.0" standalone="no"?>
<!DOCTYPE svg PUBLIC "-//W3C//DTD SVG 20010904//EN"
 "http://www.w3.org/TR/2001/REC-SVG-20010904/DTD/svg10.dtd">
<svg version="1.0" xmlns="http://www.w3.org/2000/svg"
 width="101.000000pt" height="101.000000pt" viewBox="0 0 101.000000 101.000000"
 preserveAspectRatio="xMidYMid meet">
<metadata>
Created by potrace 1.16, written by Peter Selinger 2001-2019
</metadata>
<g transform="translate(0.000000,101.000000) scale(0.100000,-0.100000)"
fill="#000000" stroke="none">
<path d="M171 968 c-20 -68 -67 -161 -115 -225 l-43 -59 20 -40 c26 -52 26
-52 46 -25 l18 24 6 -23 c4 -17 10 -21 24 -15 47 19 48 18 48 -37 l0 -53 -60
0 c-64 0 -74 -9 -61 -60 5 -20 11 -23 38 -19 85 10 83 11 86 -21 2 -16 4 -65
5 -107 2 -69 0 -79 -22 -102 l-25 -26 22 -46 22 -45 54 44 c30 24 74 57 99 73
45 28 45 29 42 77 -3 37 -1 46 8 38 9 -7 27 13 69 74 40 60 56 77 57 62 0 -12
3 -58 6 -101 5 -81 -5 -137 -32 -167 -12 -15 -11 -21 12 -55 14 -21 28 -40 30
-42 2 -2 22 15 44 37 22 22 65 57 96 77 32 22 54 43 51 50 -3 7 -8 29 -12 48
-3 20 -8 36 -11 36 -3 0 -26 -18 -51 -41 l-47 -41 -8 83 c-6 59 -5 94 3 117 6
18 11 63 10 100 -3 90 -1 102 12 72 6 -14 12 -34 14 -45 22 -137 92 -272 186
-361 l70 -66 44 43 c24 24 44 47 44 51 0 4 -18 17 -41 29 -51 26 -122 90 -151
137 l-22 36 74 68 c40 37 80 68 87 68 7 0 13 4 13 9 0 11 -81 72 -91 69 -4 -2
-28 -31 -53 -66 -26 -35 -51 -60 -56 -57 -5 3 -7 12 -3 20 3 9 0 21 -6 29 -6
7 -8 27 -5 43 6 31 -18 69 -37 57 -13 -8 -59 -15 -59 -10 0 3 7 20 16 38 l15
33 140 -1 c138 0 140 0 145 23 4 13 3 35 0 49 -6 21 -11 25 -29 21 -57 -14
-157 -19 -157 -8 0 6 -15 12 -32 12 -18 1 -25 3 -15 6 9 2 17 11 17 19 0 23
-63 134 -76 134 -15 0 -84 -29 -84 -35 0 -3 11 -24 25 -46 14 -22 30 -51 35
-64 9 -23 8 -24 -66 -30 -47 -5 -79 -4 -87 3 -15 13 -77 13 -77 0 0 -4 -4 -8
-10 -8 -5 0 -10 7 -10 15 0 17 -45 21 -55 5 -6 -9 -95 -15 -95 -6 0 11 64 106
71 106 5 0 9 6 9 13 0 12 -80 47 -106 47 -6 0 -16 -19 -23 -42z m219 -198 c0
-18 5 -19 85 -15 l85 5 -15 -37 c-46 -110 -112 -211 -197 -299 l-49 -50 26
-12 c14 -6 25 -15 25 -20 0 -11 -80 -76 -86 -69 -4 4 -6 87 -3 139 1 25 4 26
44 23 39 -2 44 0 48 22 9 49 -1 63 -47 60 l-41 -2 0 47 c0 46 3 51 35 50 3 0
14 -2 25 -6 28 -8 44 5 51 40 8 41 -16 64 -66 64 -21 0 -41 -3 -43 -7 -6 -10
-127 -4 -127 5 0 2 7 16 16 30 15 26 18 27 111 27 68 0 98 4 101 13 6 19 22
14 22 -8z"/>
</g>
</svg>
