<?xml version="1.0" standalone="no"?>
<!DOCTYPE svg PUBLIC "-//W3C//DTD SVG 20010904//EN"
 "http://www.w3.org/TR/2001/REC-SVG-20010904/DTD/svg10.dtd">
<svg version="1.0" xmlns="http://www.w3.org/2000/svg"
 width="101.000000pt" height="102.000000pt" viewBox="0 0 101.000000 102.000000"
 preserveAspectRatio="xMidYMid meet">
<metadata>
Created by potrace 1.16, written by Peter Selinger 2001-2019
</metadata>
<g transform="translate(0.000000,102.000000) scale(0.100000,-0.100000)"
fill="#000000" stroke="none">
<path d="M175 988 c-13 -60 -72 -176 -113 -220 l-41 -44 23 -48 c16 -33 26
-44 31 -35 6 9 11 6 17 -10 7 -19 14 -22 41 -19 l32 3 -2 -50 c-2 -55 5 -51
-75 -41 -30 3 -38 -12 -30 -62 l4 -31 53 4 c60 6 55 17 58 -112 2 -67 0 -74
-26 -101 -27 -29 -28 -31 -13 -58 33 -61 29 -62 114 14 44 39 92 78 105 87 23
15 24 19 16 53 -18 69 -17 68 -64 22 l-44 -43 -6 36 c-4 19 -2 44 4 55 6 11 8
27 5 35 -5 15 -2 16 74 19 23 1 32 6 32 18 0 11 8 18 23 19 12 1 50 3 83 4
l62 3 -14 -40 c-30 -84 -96 -171 -184 -240 -24 -19 -31 -29 -22 -33 8 -3 29
-18 46 -34 l33 -28 35 37 c50 53 85 102 123 173 30 57 34 60 44 41 12 -22 9
-233 -4 -263 -8 -20 17 -28 63 -21 l32 4 -5 134 c-4 91 -2 142 6 156 11 19 14
16 47 -46 19 -37 61 -94 94 -128 l58 -61 40 43 c22 24 37 47 33 50 -5 4 -31
23 -60 44 -56 40 -114 111 -139 171 -14 35 -14 37 1 31 9 -3 25 -1 36 4 12 7
42 8 84 2 l65 -9 2 26 c4 72 -7 84 -60 65 -44 -16 -79 -18 -87 -5 -3 5 -30 9
-60 8 -38 -1 -56 2 -60 11 -9 25 -5 152 5 152 6 0 10 12 10 28 l0 27 115 -1
c114 -2 115 -2 121 22 13 50 -18 97 -49 77 -7 -5 -54 -8 -104 -8 l-93 0 5 52
c2 29 7 58 11 64 10 17 -16 29 -61 29 l-41 0 4 -40 c2 -22 1 -56 -2 -75 l-7
-35 -72 4 c-40 2 -76 5 -82 6 -22 5 -33 -1 -40 -22 -6 -20 -8 -20 -12 -6 -6
23 -49 34 -82 22 -14 -6 -39 -7 -55 -4 l-29 5 37 48 c20 26 36 51 36 56 0 9
-83 41 -106 41 -7 0 -16 -15 -19 -32z m235 -198 c0 -7 34 -9 93 -6 l92 4 -3
-58 c-1 -33 2 -61 8 -65 12 -7 13 -74 2 -92 -7 -11 -82 -11 -202 0 -19 1 -26
-3 -28 -20 -4 -24 -25 -33 -77 -31 -29 1 -30 3 -30 47 l0 46 36 -3 c46 -5 73
20 64 57 -4 14 -8 27 -9 28 -2 2 -51 6 -109 10 -59 3 -107 9 -107 12 1 3 11
19 25 35 23 29 24 29 124 28 58 0 101 3 101 9 0 5 5 9 10 9 6 0 10 -5 10 -10z"/>
<path d="M460 739 c-33 -13 -35 -16 -21 -33 6 -8 20 -38 31 -67 20 -56 24 -58
77 -38 28 11 27 29 -7 107 -20 44 -33 49 -80 31z"/>
<path d="M784 733 c-4 -15 -21 -52 -52 -115 -3 -7 50 -38 65 -38 5 0 21 25 36
55 15 31 34 58 42 61 23 9 18 19 -20 37 -45 22 -64 21 -71 0z"/>
</g>
</svg>
