<?xml version="1.0" standalone="no"?>
<!DOCTYPE svg PUBLIC "-//W3C//DTD SVG 20010904//EN"
 "http://www.w3.org/TR/2001/REC-SVG-20010904/DTD/svg10.dtd">
<svg version="1.0" xmlns="http://www.w3.org/2000/svg"
 width="101.000000pt" height="101.000000pt" viewBox="0 0 101.000000 101.000000"
 preserveAspectRatio="xMidYMid meet">
<metadata>
Created by potrace 1.16, written by Peter Selinger 2001-2019
</metadata>
<g transform="translate(0.000000,101.000000) scale(0.100000,-0.100000)"
fill="#000000" stroke="none">
<path d="M196 940 c-31 -78 -86 -168 -141 -229 l-37 -41 27 -36 27 -35 24 22
c24 22 24 22 24 2 0 -18 5 -21 33 -19 l32 3 0 -56 c0 -62 4 -61 -97 -48 -40 6
-50 -8 -41 -56 6 -29 35 -40 68 -25 32 14 79 2 71 -18 -3 -9 -1 -24 4 -34 17
-32 0 -141 -25 -164 -20 -18 -21 -23 -10 -50 7 -17 15 -39 18 -49 6 -15 15
-11 69 31 35 27 82 62 106 77 38 25 42 31 38 60 -11 67 -14 68 -66 30 l-48
-35 -7 39 c-4 23 -2 48 4 60 6 11 8 26 5 34 -6 15 -2 16 78 19 38 2 51 19 41
56 -3 13 -15 19 -41 20 -84 3 -80 0 -74 51 2 25 6 47 7 49 1 1 25 3 54 3 45 1
52 5 57 25 14 55 -1 65 -69 48 -16 -4 -38 -2 -50 5 -12 6 -46 10 -74 8 -29 -1
-53 -1 -53 1 0 2 12 19 26 38 20 26 32 33 46 28 11 -3 39 -1 63 6 32 9 48 9
64 0 43 -23 80 12 67 63 -5 20 -11 22 -84 22 l-79 0 25 40 c13 22 34 48 46 57
14 11 18 20 11 26 -7 7 -100 42 -110 42 -1 0 -14 -31 -29 -70z"/>
<path d="M425 909 c-4 -17 -2 -43 5 -59 7 -18 10 -49 6 -82 -9 -71 -9 -155 -1
-200 4 -21 3 -51 -3 -67 -10 -29 -10 -29 22 -27 18 2 38 6 44 10 6 3 35 4 64
0 l54 -6 2 -43 c1 -43 1 -43 -38 -50 -22 -4 -45 -3 -51 1 -7 4 -33 9 -59 11
-52 4 -63 -8 -53 -61 5 -24 9 -26 48 -22 23 1 47 6 54 10 19 12 103 -5 97 -19
-3 -8 0 -27 6 -43 16 -42 -4 -66 -46 -57 -17 3 -56 7 -86 9 -30 2 -62 5 -70 7
-46 8 -63 -13 -53 -65 5 -25 8 -26 52 -20 25 3 89 6 141 6 187 -1 221 -1 273
1 28 1 66 -2 83 -6 29 -7 32 -6 37 18 7 42 -2 67 -24 60 -10 -3 -27 -1 -38 5
-15 8 -30 6 -61 -6 -27 -11 -49 -14 -67 -8 -16 4 -37 8 -48 8 -16 1 -19 7 -17
31 1 17 3 40 3 51 1 15 8 22 23 23 75 5 96 5 137 -2 45 -8 47 -7 52 19 6 34
-1 61 -19 68 -7 3 -34 -2 -60 -11 -37 -13 -54 -14 -76 -5 -16 6 -36 8 -44 5
-11 -4 -13 5 -12 40 3 51 -2 49 122 47 l79 -1 -8 28 c-8 30 -8 43 -1 273 3
103 1 147 -7 152 -18 11 -87 9 -87 -2 0 -6 -33 -10 -80 -10 -47 0 -80 4 -80
10 0 6 -18 10 -40 10 -22 0 -40 -4 -40 -10 0 -5 -25 -10 -55 -10 -30 0 -55 5
-55 10 0 23 -19 8 -25 -21z m191 -112 l0 -52 -53 0 c-40 0 -52 3 -48 13 3 8 5
29 5 47 0 35 8 40 70 44 24 1 25 -2 26 -52z m190 -1 l2 -54 -52 2 -51 1 0 50
0 50 50 2 50 3 1 -54z m-194 -178 l3 -53 -50 0 -50 0 -1 53 -1 52 48 0 47 0 4
-52z m193 -6 l0 -48 -50 0 -50 1 0 42 -1 42 51 4 c27 2 50 4 50 5 0 1 0 -20 0
-46z"/>
</g>
</svg>
