<?xml version="1.0" standalone="no"?>
<!DOCTYPE svg PUBLIC "-//W3C//DTD SVG 20010904//EN"
 "http://www.w3.org/TR/2001/REC-SVG-20010904/DTD/svg10.dtd">
<svg version="1.0" xmlns="http://www.w3.org/2000/svg"
 width="101.000000pt" height="102.000000pt" viewBox="0 0 101.000000 102.000000"
 preserveAspectRatio="xMidYMid meet">
<metadata>
Created by potrace 1.16, written by Peter Selinger 2001-2019
</metadata>
<g transform="translate(0.000000,102.000000) scale(0.100000,-0.100000)"
fill="#000000" stroke="none">
<path d="M194 1005 c-23 -67 -90 -189 -134 -243 -28 -35 -50 -65 -48 -65 2 -1
18 -15 36 -31 31 -29 32 -29 48 -10 8 10 13 13 9 7 -8 -17 14 -56 28 -50 7 3
19 8 27 11 12 5 15 -4 15 -51 l0 -58 -52 0 c-60 0 -66 -4 -66 -45 0 -44 3 -46
88 -38 34 3 35 -1 38 -124 2 -61 -1 -70 -27 -97 l-29 -30 28 -41 c15 -22 33
-40 39 -40 7 0 25 14 42 31 22 23 169 140 181 144 1 0 -5 24 -13 53 l-15 52
-62 -52 -62 -51 -9 37 c-5 25 -5 46 3 62 6 13 8 30 5 38 -6 15 6 17 92 17 48
1 52 3 57 26 10 53 2 60 -76 59 l-72 -1 0 52 c0 44 3 52 21 56 11 2 31 0 44
-5 45 -17 76 10 64 57 -4 18 -15 24 -51 29 -25 3 -50 3 -57 -1 -6 -4 -45 -8
-88 -8 l-76 0 33 44 32 44 111 -1 c104 -2 111 0 117 19 4 11 4 30 1 42 -5 21
-12 22 -86 24 -45 1 -84 4 -87 7 -8 8 45 86 57 86 6 0 10 6 10 14 0 17 -54 38
-76 29 -9 -3 -20 0 -24 8 -7 11 -10 9 -16 -6z"/>
<path d="M614 875 l1 -144 -70 5 c-84 6 -99 -2 -99 -53 1 -21 2 -90 3 -153 1
-63 2 -126 2 -140 -1 -94 5 -102 65 -93 l29 5 0 169 0 169 28 0 c15 0 27 5 27
10 0 11 88 13 169 3 l54 -6 -7 -136 c-4 -75 -10 -146 -12 -157 -7 -26 17 -34
67 -25 l34 6 4 128 c2 88 0 127 -8 127 -6 0 -11 11 -11 25 0 14 5 25 11 25 6
0 9 19 7 47 l-3 48 -102 0 -102 0 -7 63 c-4 41 -2 72 5 85 6 12 10 31 10 42 0
11 2 33 6 49 7 36 -6 46 -62 46 l-41 0 2 -145z"/>
<path d="M805 908 c-15 -29 -38 -68 -52 -86 -14 -18 -23 -34 -22 -36 31 -20
60 -36 68 -36 6 0 28 26 49 58 22 31 49 66 61 76 28 25 27 33 -6 49 -65 33
-69 32 -98 -25z"/>
<path d="M443 929 l-33 -21 24 -31 c13 -18 33 -51 45 -74 12 -24 23 -43 26
-43 10 0 75 43 75 50 0 13 -84 134 -95 137 -5 1 -25 -7 -42 -18z"/>
<path d="M641 609 c-24 -9 -24 -11 -17 -102 12 -180 -51 -276 -211 -323 -29
-9 -53 -17 -53 -19 0 -2 17 -20 37 -40 l38 -38 52 28 c73 38 137 89 166 134
28 42 57 120 62 166 4 40 15 123 20 156 3 21 -2 27 -29 37 -37 14 -34 14 -65
1z"/>
<path d="M706 271 l-27 -28 48 -28 c26 -16 74 -48 106 -72 31 -23 61 -43 65
-43 5 0 24 16 43 36 28 29 31 37 19 45 -74 45 -206 119 -215 119 -6 0 -24 -13
-39 -29z"/>
</g>
</svg>
