<?xml version="1.0" standalone="no"?>
<!DOCTYPE svg PUBLIC "-//W3C//DTD SVG 20010904//EN"
 "http://www.w3.org/TR/2001/REC-SVG-20010904/DTD/svg10.dtd">
<svg version="1.0" xmlns="http://www.w3.org/2000/svg"
 width="101.000000pt" height="101.000000pt" viewBox="0 0 101.000000 101.000000"
 preserveAspectRatio="xMidYMid meet">
<metadata>
Created by potrace 1.16, written by Peter Selinger 2001-2019
</metadata>
<g transform="translate(0.000000,101.000000) scale(0.100000,-0.100000)"
fill="#000000" stroke="none">
<path d="M171 988 c-42 -119 -59 -156 -97 -214 -24 -37 -44 -70 -44 -74 0 -7
30 -71 37 -80 3 -3 13 6 23 20 14 17 20 20 20 10 0 -12 9 -15 40 -12 l40 4 0
-51 c0 -74 8 -69 -87 -57 -39 5 -43 3 -49 -19 -13 -53 23 -85 71 -63 13 6 35
8 48 4 27 -6 27 -5 30 -128 2 -68 -1 -79 -22 -102 l-24 -25 27 -42 27 -41 32
26 c18 15 65 52 105 82 39 31 72 60 72 64 0 8 -21 73 -26 79 -2 2 -26 -16 -53
-40 -28 -23 -54 -40 -57 -37 -5 6 -7 90 -4 134 2 23 9 25 93 26 50 1 53 5 49
63 -1 12 1 15 5 9 8 -12 62 -12 80 -1 7 4 36 4 66 1 47 -6 55 -10 56 -28 0
-11 2 -37 3 -56 l3 -35 -55 -8 c-33 -4 -64 -4 -76 2 -47 21 -77 -7 -67 -62 4
-21 10 -25 38 -23 17 2 37 6 43 10 6 4 33 4 61 0 54 -7 51 1 53 -114 1 -36 -2
-77 -6 -91 -9 -30 9 -39 62 -31 l32 4 -7 57 c-7 50 -7 71 -2 147 1 15 8 22 23
23 74 5 154 4 172 -2 18 -6 22 -3 27 19 10 55 3 61 -86 62 -140 1 -142 2 -139
42 1 19 3 45 3 56 1 15 8 22 23 23 11 0 51 3 89 6 37 2 79 0 94 -6 32 -12 43
0 43 48 0 35 -26 58 -54 47 -19 -7 -116 -11 -116 -4 0 3 16 34 35 70 19 35 35
67 35 71 0 8 -89 44 -93 38 -2 -2 -17 -44 -33 -94 l-29 -90 -54 -3 c-62 -4
-93 14 -43 24 18 4 32 10 32 15 0 5 -12 38 -26 74 -19 47 -30 64 -42 61 -22
-4 -72 -18 -72 -20 0 0 11 -28 25 -61 35 -85 34 -85 -35 -85 l-59 0 -6 -33
c-4 -19 -12 -34 -18 -35 -7 -1 -37 -4 -67 -6 l-55 -4 0 44 -1 44 48 0 c55 0
81 20 76 59 -3 25 -4 26 -66 22 -37 -2 -68 2 -76 8 -8 7 -38 10 -70 9 -31 -2
-56 -2 -56 0 0 2 10 17 23 35 l22 32 113 0 c100 0 113 2 118 18 3 10 3 29 0
42 -5 21 -13 24 -90 30 -46 4 -90 4 -96 0 -14 -9 16 41 44 73 25 29 10 46 -39
45 -19 -1 -35 3 -35 8 0 18 -21 8 -29 -13z"/>
<path d="M608 1004 c-4 -3 -2 -18 2 -34 4 -16 6 -31 3 -33 -2 -3 1 -15 7 -27
l12 -22 -86 7 -86 7 -10 -28 c-15 -39 -5 -71 25 -78 30 -8 105 3 105 15 0 5
11 9 25 9 14 0 25 -4 25 -10 0 -6 54 -9 145 -7 158 2 164 4 149 61 -8 32 -27
37 -122 34 -42 -2 -72 1 -73 7 -3 24 -5 32 -17 68 -13 35 -16 37 -56 37 -24 0
-45 -3 -48 -6z"/>
</g>
</svg>
