<?xml version="1.0" standalone="no"?>
<!DOCTYPE svg PUBLIC "-//W3C//DTD SVG 20010904//EN"
 "http://www.w3.org/TR/2001/REC-SVG-20010904/DTD/svg10.dtd">
<svg version="1.0" xmlns="http://www.w3.org/2000/svg"
 width="101.000000pt" height="102.000000pt" viewBox="0 0 101.000000 102.000000"
 preserveAspectRatio="xMidYMid meet">
<metadata>
Created by potrace 1.16, written by Peter Selinger 2001-2019
</metadata>
<g transform="translate(0.000000,102.000000) scale(0.100000,-0.100000)"
fill="#000000" stroke="none">
<path d="M190 958 c-29 -82 -79 -171 -129 -232 -23 -26 -41 -51 -41 -55 0 -3
16 -16 36 -29 33 -21 37 -22 53 -8 25 23 34 20 27 -8 -5 -20 -1 -25 20 -30 13
-4 28 -5 32 -2 4 2 7 -18 7 -45 0 -44 -3 -51 -23 -56 -13 -3 -34 -1 -47 5 -46
21 -81 -8 -68 -57 6 -24 38 -33 68 -19 31 14 79 2 71 -18 -3 -8 -1 -25 5 -37
15 -34 -5 -138 -30 -155 -20 -14 -20 -15 7 -55 14 -23 27 -44 28 -45 2 -2 38
25 81 60 43 34 91 72 106 83 l28 21 -19 41 -18 42 -55 -45 -54 -44 -9 36 c-5
23 -5 44 3 60 6 13 8 30 5 38 -5 14 -1 15 78 18 26 1 38 7 41 20 10 37 -3 54
-41 56 -80 3 -77 1 -77 47 l0 43 59 5 c63 6 78 17 74 57 -3 24 -5 25 -61 22
-33 -3 -63 1 -71 7 -8 7 -38 10 -70 9 -31 -2 -56 -2 -56 -1 0 1 9 17 19 34
l19 31 103 4 c70 2 105 7 111 16 7 12 2 57 -8 67 -2 2 -38 5 -79 5 -41 1 -75
2 -75 4 0 10 54 108 61 110 23 9 4 32 -38 46 -26 9 -47 16 -48 16 -1 0 -12
-28 -25 -62z"/>
<path d="M760 955 c-54 -18 -115 -28 -155 -26 -16 0 -39 -6 -52 -14 -25 -17
-89 -20 -98 -5 -8 12 -35 13 -53 1 -11 -7 -10 -16 7 -49 25 -49 46 -57 103
-41 24 7 52 13 63 15 49 8 92 15 120 19 17 3 41 5 55 5 39 -1 160 21 160 29 0
13 -76 81 -90 80 -8 0 -35 -7 -60 -14z"/>
<path d="M784 818 c-4 -12 -7 -25 -7 -28 1 -3 -10 -35 -24 -73 -13 -37 -21
-72 -18 -78 4 -5 23 -9 42 -7 34 4 37 7 58 66 13 35 30 71 39 81 22 24 20 30
-9 41 -61 23 -73 23 -81 -2z"/>
<path d="M600 807 c-14 -6 -26 -12 -27 -12 -3 -1 57 -143 64 -154 4 -6 83 18
83 25 0 3 -15 39 -34 80 -36 76 -43 81 -86 61z"/>
<path d="M468 773 l-36 -15 29 -61 c16 -34 29 -67 29 -74 0 -6 4 -14 8 -17 13
-8 82 16 82 28 -1 14 -32 82 -56 122 -19 31 -20 32 -56 17z"/>
<path d="M721 611 c-8 -5 -15 -25 -15 -44 -1 -34 -1 -35 -55 -41 -29 -4 -58
-2 -65 3 -6 5 -36 9 -67 9 -31 0 -61 2 -66 5 -15 10 -32 -8 -38 -38 -7 -37 5
-57 36 -57 39 -1 115 9 127 15 5 4 37 4 70 1 52 -6 60 -9 61 -28 0 -11 3 -62
6 -112 3 -50 1 -102 -4 -117 -9 -23 -14 -25 -55 -20 -25 2 -46 2 -46 0 0 -2 9
-26 21 -52 20 -46 21 -47 57 -40 59 11 102 33 103 52 1 10 3 74 5 143 3 169 4
172 19 166 8 -3 27 0 44 7 24 9 36 9 51 -1 11 -6 26 -12 34 -12 15 0 26 42 19
71 -6 23 -48 36 -66 21 -7 -6 -31 -10 -53 -10 -38 2 -39 3 -36 33 3 26 -1 33
-23 43 -31 14 -45 15 -64 3z"/>
<path d="M515 418 c-16 -6 -31 -12 -33 -13 -2 -2 5 -20 16 -42 11 -21 25 -58
32 -81 9 -35 15 -42 28 -37 9 3 29 9 45 12 15 3 27 6 27 8 0 6 -39 114 -50
138 -14 29 -20 31 -65 15z"/>
</g>
</svg>
