<?xml version="1.0" standalone="no"?>
<!DOCTYPE svg PUBLIC "-//W3C//DTD SVG 20010904//EN"
 "http://www.w3.org/TR/2001/REC-SVG-20010904/DTD/svg10.dtd">
<svg version="1.0" xmlns="http://www.w3.org/2000/svg"
 width="101.000000pt" height="102.000000pt" viewBox="0 0 101.000000 102.000000"
 preserveAspectRatio="xMidYMid meet">
<metadata>
Created by potrace 1.16, written by Peter Selinger 2001-2019
</metadata>
<g transform="translate(0.000000,102.000000) scale(0.100000,-0.100000)"
fill="#000000" stroke="none">
<path d="M615 1010 c-4 -7 -16 -10 -26 -7 -11 3 -19 4 -19 4 0 -11 44 -113 50
-117 4 -3 -36 -4 -91 -3 -54 1 -103 4 -108 7 -5 4 -15 0 -23 -7 -9 -10 -38
-14 -90 -13 -83 1 -86 6 -34 55 36 33 33 46 -14 65 -48 19 -70 20 -70 4 0 -29
-85 -183 -132 -239 l-51 -62 36 -34 c21 -18 37 -37 37 -41 0 -5 19 -8 43 -8
l42 1 0 -53 0 -52 -66 5 c-60 5 -67 4 -72 -14 -14 -56 20 -91 68 -69 34 15 73
3 75 -24 7 -87 -2 -165 -21 -191 l-20 -27 27 -35 c14 -19 29 -35 33 -35 4 0
20 14 37 31 16 17 57 53 91 80 l62 50 -16 44 c-8 25 -18 45 -21 45 -3 0 -23
-16 -44 -36 l-37 -37 -7 27 c-3 15 -2 38 4 52 7 13 9 31 6 39 -4 10 0 15 12
13 60 -5 82 2 87 28 9 52 0 63 -51 59 l-47 -3 0 49 0 49 37 0 c21 0 41 -1 44
-2 8 -3 22 30 23 54 1 25 -27 49 -47 40 -17 -9 -189 -8 -197 0 -3 3 8 22 24
44 29 38 29 38 93 36 87 -4 138 6 138 26 0 13 2 13 13 -3 12 -16 23 -17 81
-11 l68 7 -21 -30 c-31 -44 -101 -100 -116 -95 -22 9 -26 -12 -13 -60 8 -31
17 -45 27 -43 16 2 17 -1 26 -133 6 -93 -25 -189 -77 -236 -12 -12 -41 -31
-62 -42 l-40 -19 25 -13 c13 -7 34 -22 46 -33 l22 -20 34 29 c91 78 128 159
133 289 1 44 5 98 8 120 3 25 0 42 -7 47 -7 5 -1 8 15 8 15 0 39 5 54 10 15 6
68 12 117 14 76 4 93 1 104 -12 19 -25 16 -34 -8 -22 -46 25 -92 -17 -68 -61
5 -11 7 -81 4 -173 -4 -106 -2 -162 5 -177 17 -32 68 -49 117 -39 61 11 84 34
104 102 7 26 5 30 -19 39 -15 6 -35 18 -45 26 -22 21 -30 13 -31 -33 -1 -30
-5 -38 -23 -40 -32 -5 -45 45 -39 147 10 182 17 200 73 228 l46 22 -94 95
c-100 100 -99 99 -12 94 90 -4 123 18 109 75 -6 25 -31 39 -49 28 -7 -4 -63
-7 -126 -8 -84 0 -107 3 -88 9 31 11 32 15 13 76 -11 36 -18 46 -39 48 -14 2
-28 -2 -32 -8z m125 -221 c0 -4 -13 -12 -30 -19 -39 -16 -38 -32 5 -64 44 -34
36 -49 -19 -42 -22 3 -70 5 -106 5 l-64 1 62 63 c57 58 64 62 107 62 25 0 45
-3 45 -6z"/>
<path d="M609 563 c-21 -5 -31 -40 -19 -62 5 -9 7 -59 5 -111 -14 -317 -17
-296 50 -291 37 4 46 17 33 50 -11 29 -14 278 -4 331 15 81 0 101 -65 83z"/>
</g>
</svg>
