<?xml version="1.0" standalone="no"?>
<!DOCTYPE svg PUBLIC "-//W3C//DTD SVG 20010904//EN"
 "http://www.w3.org/TR/2001/REC-SVG-20010904/DTD/svg10.dtd">
<svg version="1.0" xmlns="http://www.w3.org/2000/svg"
 width="101.000000pt" height="102.000000pt" viewBox="0 0 101.000000 102.000000"
 preserveAspectRatio="xMidYMid meet">
<metadata>
Created by potrace 1.16, written by Peter Selinger 2001-2019
</metadata>
<g transform="translate(0.000000,102.000000) scale(0.100000,-0.100000)"
fill="#000000" stroke="none">
<path d="M187 1013 c-2 -5 -10 -26 -17 -48 -20 -66 -69 -157 -111 -207 -21
-26 -39 -51 -39 -56 0 -8 28 -71 36 -81 2 -2 11 2 19 9 9 7 15 9 14 4 -6 -33
20 -51 51 -34 15 8 18 6 19 -13 0 -12 2 -35 3 -52 l3 -30 -56 2 c-62 3 -72 -7
-62 -61 5 -25 8 -26 58 -21 60 5 55 16 58 -114 2 -69 0 -75 -26 -97 l-28 -24
27 -45 26 -45 57 48 c31 27 75 62 99 77 41 27 43 31 37 64 -12 63 -17 65 -63
25 -24 -20 -46 -34 -49 -31 -5 6 -7 74 -3 124 2 20 6 21 66 18 58 -3 63 -2 67
18 2 12 5 3 6 -20 0 -23 6 -43 13 -45 8 -3 8 -30 -1 -109 -13 -108 -15 -169
-5 -178 6 -7 85 -4 92 4 3 3 0 16 -7 29 -10 17 -10 29 -2 44 6 11 8 28 5 36
-8 20 9 20 47 1 16 -9 34 -13 39 -10 8 5 40 91 46 125 8 40 16 107 16 126 0
16 7 20 33 21 37 1 35 9 38 -127 1 -47 -2 -97 -6 -111 -7 -22 -5 -27 12 -32
52 -13 56 -4 58 116 2 166 0 157 34 150 25 -5 29 -2 29 15 0 12 3 23 8 25 15
10 18 -279 2 -298 -7 -8 -28 -13 -50 -12 -45 1 -58 -7 -41 -27 10 -12 15 -32
20 -77 2 -19 122 12 153 39 14 12 16 25 11 73 -4 37 -2 64 5 72 14 16 15 214
2 222 -13 8 -13 52 0 60 13 8 13 142 1 150 -13 7 -13 173 -1 180 6 4 9 19 8
34 -2 25 -5 27 -40 25 -22 -1 -42 -4 -45 -8 -10 -9 -51 -7 -58 4 -3 5 -29 9
-58 9 -29 0 -59 1 -67 2 -35 5 -49 -2 -55 -31 -12 -54 0 -70 55 -70 27 0 50 5
52 11 3 8 22 10 62 5 45 -6 56 -11 52 -23 -3 -8 -6 -31 -6 -51 0 -20 -4 -32
-8 -27 -10 14 -79 18 -87 5 -8 -13 -52 -13 -60 0 -10 16 -153 10 -170 -7 -30
-29 -12 -80 24 -68 18 5 21 2 21 -22 0 -15 3 -52 6 -80 l7 -53 -41 4 c-44 4
-54 -9 -45 -58 5 -25 17 -31 55 -28 13 1 16 -6 13 -42 -3 -58 -31 -140 -54
-160 -18 -16 -19 -12 -26 122 -5 90 -3 146 3 159 6 10 9 64 8 118 -1 55 2 109
7 119 13 26 -17 48 -59 44 -24 -3 -30 0 -32 15 0 11 -3 21 -5 23 -2 2 -38 5
-80 6 l-76 3 16 25 c9 14 26 37 40 51 28 31 21 40 -47 64 -50 17 -48 17 -53 8z
m155 -247 c9 -4 22 -5 28 -1 6 4 10 -12 10 -44 0 -28 5 -51 10 -51 6 0 10 -32
10 -75 0 -43 -4 -75 -10 -75 -5 0 -10 -10 -11 -22 0 -16 -2 -18 -6 -8 -9 23
-24 29 -48 20 -11 -4 -36 -7 -55 -6 -32 2 -35 4 -32 31 1 17 3 39 3 50 1 19 7
20 60 18 55 -2 59 0 65 22 12 48 2 59 -56 68 -30 5 -83 7 -117 5 -35 -2 -63
-3 -63 -1 0 2 11 20 25 41 l24 37 73 -1 c40 0 81 -4 90 -8z m503 -121 c-3 -16
-10 -52 -14 -80 -5 -27 -9 -42 -10 -33 -1 12 -8 16 -30 13 l-29 -4 1 80 2 79
28 -6 c19 -4 27 -2 27 8 1 8 6 5 16 -7 10 -13 13 -30 9 -50z m-159 -23 l2 -79
-28 0 -27 0 1 73 c1 70 2 73 26 77 14 2 25 5 25 5 0 1 1 -33 1 -76z"/>
<path d="M447 974 c-28 -15 -28 -16 -11 -41 9 -15 26 -42 37 -62 11 -20 22
-38 23 -40 2 -2 23 5 48 14 l46 18 -18 29 c-27 46 -72 98 -85 98 -7 -1 -25 -8
-40 -16z"/>
</g>
</svg>
