<?xml version="1.0" standalone="no"?>
<!DOCTYPE svg PUBLIC "-//W3C//DTD SVG 20010904//EN"
 "http://www.w3.org/TR/2001/REC-SVG-20010904/DTD/svg10.dtd">
<svg version="1.0" xmlns="http://www.w3.org/2000/svg"
 width="101.000000pt" height="101.000000pt" viewBox="0 0 101.000000 101.000000"
 preserveAspectRatio="xMidYMid meet">
<metadata>
Created by potrace 1.16, written by Peter Selinger 2001-2019
</metadata>
<g transform="translate(0.000000,101.000000) scale(0.100000,-0.100000)"
fill="#000000" stroke="none">
<path d="M173 993 c-26 -76 -71 -172 -104 -224 l-40 -61 23 -27 c13 -14 31
-34 41 -44 9 -10 17 -22 17 -28 0 -6 8 -8 18 -5 27 9 40 -6 47 -54 l6 -45 -54
0 c-62 0 -63 0 -71 -35 -11 -47 5 -56 89 -48 27 3 30 0 33 -27 8 -73 1 -160
-15 -178 -16 -17 -16 -20 2 -53 10 -19 23 -38 29 -43 7 -6 40 15 96 61 71 60
85 76 86 102 2 67 -7 71 -63 27 l-51 -41 -7 39 c-4 23 -2 48 4 60 6 11 8 26 5
34 -6 16 -1 17 83 20 46 1 57 14 47 52 -6 25 -37 35 -105 35 l-39 0 0 48 0 48
65 -1 c70 0 84 11 70 55 -8 27 -31 31 -157 27 l-106 -3 28 41 28 40 84 -1 c47
0 90 -4 96 -8 28 -17 48 3 47 49 0 44 -1 46 -25 38 -14 -4 -41 -6 -60 -5 -19
1 -52 3 -72 4 l-36 2 15 31 c8 16 27 45 40 63 28 37 25 44 -26 61 -47 15 -61
14 -68 -6z"/>
<path d="M750 989 c0 -24 -65 -171 -86 -194 -18 -20 -33 -25 -68 -25 -25 0
-48 4 -51 10 -6 10 -66 12 -97 3 -16 -4 -18 -17 -13 -149 2 -80 7 -150 11
-156 3 -5 23 -8 43 -6 37 3 37 3 38 -35 4 -94 -69 -207 -162 -253 -49 -24 -70
-44 -46 -44 5 0 24 -14 41 -30 l33 -31 37 25 c87 57 163 170 176 258 5 30 13
88 16 114 1 6 12 9 25 6 19 -3 23 -11 23 -38 0 -19 5 -34 10 -34 15 0 12 -67
-2 -73 -10 -4 -10 -8 0 -15 10 -7 13 -31 11 -93 -3 -83 -3 -84 24 -97 19 -9
32 -10 46 -3 11 6 46 8 82 5 74 -7 98 6 123 67 l15 36 -44 32 -43 31 -7 -29
c-3 -16 -14 -36 -23 -44 -23 -20 -81 -16 -93 6 -10 17 -12 81 -7 198 l3 56 37
-3 c21 -1 42 -5 47 -8 5 -3 17 -3 26 0 13 5 15 15 10 43 -3 20 -1 80 5 133 11
108 7 130 -24 127 -11 0 -43 -1 -69 0 l-48 1 23 41 c13 23 40 61 60 84 42 47
40 53 -25 80 -43 18 -57 19 -57 4z m45 -362 l1 -70 -90 7 c-49 3 -108 6 -130
6 l-41 0 0 62 0 63 130 1 130 1 0 -70z"/>
<path d="M488 968 c-35 -12 -35 -19 1 -68 15 -21 34 -53 41 -70 11 -26 17 -30
36 -26 38 10 74 25 74 32 0 3 -20 37 -45 75 -46 71 -55 76 -107 57z"/>
</g>
</svg>
