<?xml version="1.0" standalone="no"?>
<!DOCTYPE svg PUBLIC "-//W3C//DTD SVG 20010904//EN"
 "http://www.w3.org/TR/2001/REC-SVG-20010904/DTD/svg10.dtd">
<svg version="1.0" xmlns="http://www.w3.org/2000/svg"
 width="101.000000pt" height="101.000000pt" viewBox="0 0 101.000000 101.000000"
 preserveAspectRatio="xMidYMid meet">
<metadata>
Created by potrace 1.16, written by Peter Selinger 2001-2019
</metadata>
<g transform="translate(0.000000,101.000000) scale(0.100000,-0.100000)"
fill="#000000" stroke="none">
<path d="M714 976 c-3 -20 -5 -53 -3 -73 l4 -38 -65 0 -65 0 2 43 c1 24 7 50
14 59 18 21 -1 30 -64 27 -44 -2 -52 -5 -49 -21 1 -10 4 -39 5 -64 3 -43 2
-45 -23 -43 -14 1 -35 6 -47 9 -16 5 -25 3 -29 -9 -5 -12 -10 -13 -25 -5 -11
5 -48 9 -83 7 l-64 -3 21 30 c11 16 27 36 36 43 9 7 11 16 5 21 -14 15 -91 39
-101 32 -5 -3 -19 -35 -32 -71 -27 -77 -61 -138 -103 -185 -25 -29 -29 -40
-22 -63 4 -15 8 -35 9 -45 3 -28 16 -33 31 -13 12 17 14 18 14 3 0 -14 8 -17
44 -14 39 4 44 2 44 -17 1 -12 2 -32 4 -45 4 -33 -23 -49 -62 -34 -37 14 -67
7 -73 -18 -13 -47 24 -80 65 -58 11 6 29 9 41 7 25 -3 27 -15 30 -136 2 -69 0
-75 -25 -95 l-26 -22 32 -39 33 -38 91 89 c87 85 90 89 76 113 -7 14 -13 33
-14 43 0 25 -8 21 -50 -25 l-38 -43 -7 36 c-4 22 -2 45 4 57 6 11 8 27 5 35
-6 16 -2 17 83 20 31 1 43 6 46 19 10 37 -3 54 -41 55 -89 4 -97 6 -94 33 2
14 3 35 4 46 0 15 7 22 22 23 11 0 37 2 56 3 29 3 35 0 36 -17 3 -57 2 -55 48
-52 24 2 49 7 55 12 7 4 28 4 47 1 l34 -7 -29 -42 c-31 -46 -115 -128 -149
-146 -28 -15 -28 -19 8 -61 l29 -35 34 33 c41 40 38 48 39 -105 2 -101 4 -104
65 -96 28 4 31 8 28 33 -3 23 0 28 18 29 12 1 47 3 77 6 76 6 112 -2 106 -23
-11 -34 13 -48 72 -44 22 2 22 2 17 142 -3 83 -1 148 4 159 6 10 7 28 4 40 -5
21 -10 22 -42 15 -31 -6 -142 -8 -218 -3 -28 1 -28 4 2 54 18 29 33 41 52 43
58 7 219 7 254 0 34 -6 37 -4 42 19 11 61 -18 81 -84 58 -24 -9 -62 -12 -101
-9 -35 2 -73 5 -85 5 -28 1 -28 6 -4 44 16 27 24 31 66 33 54 2 68 14 61 53
-5 25 -2 27 35 31 22 2 46 0 53 -4 27 -15 42 1 41 48 l0 45 -35 -2 c-81 -5
-88 -2 -92 41 -2 22 0 50 5 62 10 27 -1 34 -58 37 -43 2 -44 1 -51 -33z m-292
-201 c14 -4 35 -2 46 4 19 10 20 9 16 -21 -7 -46 8 -62 52 -61 44 1 56 17 50
61 -4 27 -2 33 10 28 9 -3 37 -6 64 -6 45 0 48 -2 52 -28 4 -31 2 -31 -79 -18
-28 4 -34 2 -39 -19 -3 -13 -4 -28 -1 -32 3 -5 -1 -23 -9 -42 -12 -28 -18 -32
-37 -26 -19 6 -78 12 -153 16 -12 1 -21 6 -21 13 1 41 0 42 -105 43 -57 1
-113 2 -125 3 l-21 2 25 42 25 41 71 0 c40 0 78 -4 85 -8 18 -12 52 2 52 21 0
11 3 13 8 5 4 -6 19 -14 34 -18z m329 -392 c29 -4 30 -9 31 -96 0 -26 -3 -51
-7 -55 -3 -4 -41 -6 -83 -5 -127 3 -120 1 -127 43 -4 22 -2 47 4 59 6 11 8 27
4 36 -5 14 -2 16 13 11 10 -3 26 -1 34 4 15 10 84 11 131 3z"/>
</g>
</svg>
