<?xml version="1.0" standalone="no"?>
<!DOCTYPE svg PUBLIC "-//W3C//DTD SVG 20010904//EN"
 "http://www.w3.org/TR/2001/REC-SVG-20010904/DTD/svg10.dtd">
<svg version="1.0" xmlns="http://www.w3.org/2000/svg"
 width="101.000000pt" height="102.000000pt" viewBox="0 0 101.000000 102.000000"
 preserveAspectRatio="xMidYMid meet">
<metadata>
Created by potrace 1.16, written by Peter Selinger 2001-2019
</metadata>
<g transform="translate(0.000000,102.000000) scale(0.100000,-0.100000)"
fill="#000000" stroke="none">
<path d="M193 1002 c-36 -102 -99 -218 -146 -269 l-20 -23 24 -45 c14 -27 29
-43 37 -40 7 2 15 -2 19 -11 4 -10 14 -13 32 -9 25 5 26 4 26 -42 l0 -48 -52
2 c-47 1 -52 0 -57 -24 -13 -51 23 -85 66 -62 42 22 48 7 51 -128 2 -62 -1
-75 -20 -95 l-23 -24 26 -37 c13 -20 28 -37 32 -37 4 1 49 41 101 90 l95 89
-19 40 c-10 23 -19 41 -21 41 -2 0 -23 -21 -47 -47 l-45 -47 -7 41 c-4 25 -2
50 4 62 6 11 8 26 5 34 -6 16 -1 17 84 20 44 1 48 8 43 61 -2 27 -6 29 -29 15
-16 -10 -26 -10 -46 -1 -14 6 -31 9 -38 7 -9 -4 -13 8 -13 40 l-1 45 41 1 c22
1 48 1 57 0 20 -2 32 30 23 67 l-6 27 -113 0 -114 0 20 35 21 35 93 0 c82 0
95 2 100 18 7 23 -4 70 -15 63 -4 -3 -36 -2 -70 2 l-63 7 36 54 c40 59 44 76
19 84 -10 3 -33 10 -51 16 -28 8 -34 7 -39 -7z"/>
<path d="M696 954 c-42 -93 -60 -114 -101 -114 -19 0 -36 4 -39 9 -3 5 -37 9
-75 9 -65 0 -70 -1 -76 -25 -12 -49 0 -61 63 -61 126 1 120 3 124 -47 l3 -45
-74 5 c-106 7 -107 7 -103 -65 2 -34 -1 -91 -8 -127 -6 -36 -9 -68 -6 -70 6
-7 44 -6 82 2 20 4 34 3 39 -4 17 -28 -119 -187 -193 -225 -18 -9 -32 -20 -31
-24 0 -4 20 -21 43 -38 l43 -32 36 34 c51 48 99 110 140 177 40 67 38 74 40
-105 2 -127 4 -131 60 -121 l26 5 -1 147 c0 187 1 194 19 187 8 -3 24 -1 35 5
11 6 35 8 53 5 25 -5 33 -12 33 -29 1 -12 4 -36 7 -54 10 -45 -19 -72 -74 -67
-22 2 -41 1 -41 -1 0 -20 47 -95 60 -95 29 0 108 31 122 47 8 10 13 49 14 107
1 50 4 105 6 122 l5 30 -96 1 c-139 2 -143 3 -137 20 3 8 6 29 6 46 l0 32 89
0 c49 0 93 3 96 7 4 4 9 63 11 131 l4 125 -80 -2 c-44 -2 -80 0 -80 3 0 3 18
30 40 59 22 29 40 55 40 58 0 4 -87 45 -93 44 -1 0 -15 -30 -31 -66z m102
-228 l2 -49 -37 7 c-21 3 -45 6 -53 6 -11 0 -15 11 -15 43 l0 42 50 0 50 0 3
-49z m-203 -186 l0 -55 -30 3 c-16 1 -39 3 -50 3 -18 1 -20 7 -17 53 l4 51 46
0 47 0 0 -55z"/>
<path d="M493 992 l-32 -17 29 -43 c16 -24 30 -48 33 -55 2 -8 14 -8 45 2 23
8 42 17 42 20 0 17 -62 111 -73 111 -6 -1 -26 -9 -44 -18z"/>
</g>
</svg>
