<?xml version="1.0" standalone="no"?>
<!DOCTYPE svg PUBLIC "-//W3C//DTD SVG 20010904//EN"
 "http://www.w3.org/TR/2001/REC-SVG-20010904/DTD/svg10.dtd">
<svg version="1.0" xmlns="http://www.w3.org/2000/svg"
 width="101.000000pt" height="102.000000pt" viewBox="0 0 101.000000 102.000000"
 preserveAspectRatio="xMidYMid meet">
<metadata>
Created by potrace 1.16, written by Peter Selinger 2001-2019
</metadata>
<g transform="translate(0.000000,102.000000) scale(0.100000,-0.100000)"
fill="#000000" stroke="none">
<path d="M183 1002 c-30 -88 -74 -176 -114 -228 -46 -61 -47 -65 -34 -91 8
-16 15 -34 15 -40 0 -16 12 -17 28 -1 9 9 12 9 12 -2 0 -9 11 -16 26 -16 32
-2 30 0 37 -56 l6 -46 -32 5 c-42 7 -77 7 -84 -1 -8 -8 -8 -64 0 -72 6 -6 29
-7 82 -2 24 2 30 -1 30 -17 0 -11 4 -30 8 -43 12 -33 -11 -128 -38 -160 l-23
-27 22 -40 c11 -22 22 -42 23 -43 1 -2 37 25 80 60 44 34 92 72 108 83 l28 21
-18 47 -18 48 -47 -46 -47 -47 -7 46 c-4 26 -3 53 3 65 6 11 8 27 4 37 -5 13
-3 16 10 11 10 -4 28 -1 42 5 19 8 28 8 40 -2 19 -16 23 -12 26 20 5 59 4 61
-58 56 l-58 -4 0 52 0 52 40 -2 c22 -1 40 -6 40 -10 1 -10 63 -74 73 -74 3 0
21 14 39 32 31 30 33 31 33 10 0 -21 17 -29 45 -22 23 6 95 10 95 6 0 -3 -4
-15 -9 -29 -15 -39 3 -53 67 -49 21 2 22 6 18 43 -4 33 -2 40 10 35 8 -3 26 0
39 6 19 9 28 9 37 0 25 -25 70 0 52 29 -11 18 9 8 43 -21 34 -30 53 -38 53
-21 0 4 11 25 25 45 l24 36 -50 26 c-47 23 -139 98 -139 113 0 3 31 5 70 4 76
-2 88 8 75 65 l-6 27 -128 0 -128 0 4 30 c3 17 11 41 20 54 19 29 6 44 -39 44
-18 0 -36 5 -40 11 -11 16 -20 0 -25 -41 -2 -21 -5 -49 -7 -63 -3 -14 -5 -28
-5 -32 -1 -5 -40 -7 -88 -5 -86 2 -88 1 -91 -22 -2 -12 -1 -33 2 -46 6 -22 10
-23 71 -19 36 1 65 -1 65 -5 0 -11 -120 -125 -147 -140 -19 -10 -22 -9 -17 4
4 8 3 27 0 41 -6 22 -11 25 -32 20 -14 -4 -64 -4 -110 0 l-84 7 20 31 c15 25
25 30 48 28 16 -2 41 2 56 8 19 7 33 7 47 -1 42 -22 78 14 65 66 -6 23 -10 24
-76 22 -39 -1 -70 -1 -70 1 0 7 51 81 60 87 23 14 7 32 -41 47 -47 15 -51 15
-56 0z m527 -255 c13 -21 35 -54 51 -72 l29 -33 -59 2 -59 1 4 34 c3 19 7 37
10 42 5 9 -75 33 -84 25 -3 -3 -6 -25 -6 -48 -1 -47 -2 -48 -47 -48 -29 0 -30
2 -18 18 88 118 86 117 122 118 31 0 38 -4 57 -39z"/>
<path d="M718 523 c-15 -4 -17 -13 -13 -53 l5 -48 -39 -7 c-23 -4 -48 -2 -60
4 -11 6 -27 8 -36 4 -17 -6 -17 3 2 53 5 13 -18 24 -64 30 -35 4 -38 -1 -34
-59 l2 -28 -59 5 c-53 5 -60 3 -65 -13 -14 -56 21 -91 69 -69 40 18 49 -2 26
-54 -21 -49 -68 -92 -126 -119 l-39 -17 30 -15 c16 -9 35 -23 42 -31 21 -25
34 -20 86 32 47 46 105 149 105 186 0 12 5 16 16 12 8 -3 24 -1 35 5 27 14
112 1 105 -16 -3 -8 0 -26 6 -42 8 -21 7 -42 -4 -86 -25 -95 -11 -120 61 -109
32 4 33 6 26 41 -7 31 -9 123 -4 187 1 23 8 25 92 26 49 1 54 6 48 62 -2 28
-8 31 -36 16 -19 -10 -31 -11 -50 -2 -14 6 -32 9 -40 6 -18 -7 -18 -1 -5 46 5
19 6 37 2 41 -10 9 -64 17 -84 12z"/>
</g>
</svg>
