<?xml version="1.0" standalone="no"?>
<!DOCTYPE svg PUBLIC "-//W3C//DTD SVG 20010904//EN"
 "http://www.w3.org/TR/2001/REC-SVG-20010904/DTD/svg10.dtd">
<svg version="1.0" xmlns="http://www.w3.org/2000/svg"
 width="101.000000pt" height="101.000000pt" viewBox="0 0 101.000000 101.000000"
 preserveAspectRatio="xMidYMid meet">
<metadata>
Created by potrace 1.16, written by Peter Selinger 2001-2019
</metadata>
<g transform="translate(0.000000,101.000000) scale(0.100000,-0.100000)"
fill="#000000" stroke="none">
<path d="M171 958 c-21 -70 -69 -163 -111 -217 l-40 -50 22 -38 c12 -21 23
-40 25 -43 3 -3 12 6 22 19 l18 24 6 -23 c4 -16 11 -21 24 -18 16 4 18 -2 18
-48 l0 -53 -51 5 c-57 5 -67 -6 -57 -60 6 -30 31 -36 87 -22 20 5 24 2 25 -17
0 -12 3 -56 6 -97 4 -61 1 -83 -13 -112 -19 -36 -19 -37 1 -70 12 -18 22 -35
24 -37 1 -2 18 10 37 27 20 17 63 49 96 72 33 23 58 45 56 49 -3 4 -8 23 -11
42 -3 18 -7 34 -8 36 -2 1 -25 -16 -52 -37 l-50 -40 -8 58 c-4 34 -3 66 3 79
5 13 7 30 4 38 -5 13 -1 15 27 9 40 -7 46 -8 80 -6 20 2 28 8 32 28 10 54 -19
84 -51 52 -9 -9 -18 -9 -37 0 -13 6 -30 9 -37 7 -10 -4 -13 9 -13 47 l0 53 60
-2 c64 -2 75 5 75 49 0 43 -72 67 -100 33 -16 -20 -77 -19 -97 1 -9 8 -22 13
-30 9 -11 -4 -10 3 5 27 22 34 45 39 169 40 57 0 71 15 59 63 -6 23 -9 24 -84
21 l-79 -2 25 44 c14 24 31 46 38 49 25 9 15 21 -33 37 -65 22 -68 21 -82 -26z"/>
<path d="M429 973 c-12 -3 -16 -17 -17 -61 0 -31 4 -62 10 -69 10 -13 3 -246
-8 -264 -3 -5 3 -9 13 -9 16 -1 16 -1 1 -10 -13 -8 -16 -25 -16 -80 0 -39 4
-72 8 -75 5 -3 9 -42 9 -88 1 -60 -4 -91 -17 -117 -17 -35 -17 -35 6 -67 l24
-32 37 23 c20 13 59 35 88 49 l51 26 -3 47 c-2 25 -6 48 -8 51 -3 2 -28 -12
-55 -32 l-51 -36 -6 34 c-4 20 -2 44 4 55 6 11 8 27 5 35 -6 15 -2 16 78 19
26 1 38 7 41 20 10 35 -3 55 -36 56 -80 3 -76 0 -71 48 2 30 0 44 -9 45 -6 1
-16 2 -22 4 -5 1 -17 3 -25 5 -31 5 67 15 122 12 56 -4 56 -4 62 -40 3 -21 9
-50 12 -67 4 -16 7 -89 8 -162 1 -92 5 -136 14 -145 22 -22 93 -38 115 -26 10
5 31 8 44 5 66 -12 111 23 127 98 6 28 3 32 -44 56 -53 29 -51 30 -54 -31 -1
-38 -20 -50 -69 -46 -55 5 -75 27 -60 67 7 17 9 37 7 44 -5 12 100 70 164 89
31 10 28 27 -12 65 l-35 34 -58 -46 c-64 -51 -86 -49 -65 5 6 17 9 35 6 39 -3
5 0 17 6 28 12 23 4 30 -44 42 -23 6 -20 7 14 3 66 -9 158 -9 166 -1 4 4 2 18
-6 31 -8 15 -10 38 -6 63 10 59 17 234 11 271 -5 27 -10 32 -23 26 -31 -13
-202 -18 -202 -5 0 6 -17 11 -40 11 -22 0 -40 -4 -40 -10 0 -5 -25 -10 -55
-10 -30 0 -55 4 -55 9 0 11 -21 18 -41 14z m316 -89 c38 -5 40 -7 40 -39 l0
-34 -73 -7 c-51 -4 -76 -3 -87 6 -8 7 -34 11 -63 8 -47 -3 -48 -3 -44 25 3 18
10 27 23 27 10 0 21 5 24 10 7 11 111 13 180 4z m40 -194 l0 -40 -135 3 -135
2 0 35 0 35 135 2 136 3 -1 -40z"/>
</g>
</svg>
