<?xml version="1.0" standalone="no"?>
<!DOCTYPE svg PUBLIC "-//W3C//DTD SVG 20010904//EN"
 "http://www.w3.org/TR/2001/REC-SVG-20010904/DTD/svg10.dtd">
<svg version="1.0" xmlns="http://www.w3.org/2000/svg"
 width="101.000000pt" height="101.000000pt" viewBox="0 0 101.000000 101.000000"
 preserveAspectRatio="xMidYMid meet">
<metadata>
Created by potrace 1.16, written by Peter Selinger 2001-2019
</metadata>
<g transform="translate(0.000000,101.000000) scale(0.100000,-0.100000)"
fill="#000000" stroke="none">
<path d="M156 953 c-23 -72 -49 -124 -92 -186 -39 -54 -39 -55 -17 -101 13
-28 19 -33 30 -25 10 9 13 7 13 -11 0 -19 4 -21 29 -15 25 5 29 3 30 -17 0
-13 2 -36 3 -53 3 -29 2 -30 -37 -27 -65 4 -77 3 -83 -3 -7 -7 -6 -74 1 -81 6
-6 30 -6 78 0 42 5 39 12 42 -111 1 -60 -2 -77 -20 -101 l-22 -29 21 -34 c11
-19 22 -36 23 -37 2 -2 45 28 95 67 51 39 99 75 106 79 12 6 12 15 3 42 -6 19
-13 41 -15 48 -3 9 -22 -2 -56 -32 l-53 -46 -9 36 c-5 23 -5 44 3 60 6 13 8
30 5 38 -6 14 -1 16 83 19 35 1 42 5 46 25 10 52 1 60 -71 58 l-67 -1 3 30 c1
17 3 39 3 50 1 16 7 21 29 19 15 -1 37 -5 48 -8 21 -7 52 15 52 37 -1 50 -5
52 -126 52 -62 0 -114 1 -114 3 0 1 14 21 30 44 l30 41 95 0 c104 1 113 7 99
61 -6 25 -16 32 -39 26 -14 -4 -99 0 -103 5 -6 5 25 60 42 74 25 21 19 29 -26
41 -24 6 -50 13 -59 16 -11 3 -20 -11 -33 -53z"/>
<path d="M408 963 c-22 -5 -34 -48 -20 -66 14 -16 14 -174 1 -182 -12 -8 -12
-142 1 -150 13 -8 13 -52 0 -60 -13 -8 -12 -203 2 -225 8 -12 8 -41 2 -98 -11
-90 -8 -94 54 -84 32 4 38 15 34 63 -1 11 7 17 21 18 12 1 45 3 72 6 28 2 96
2 153 -2 l102 -5 -6 -33 c-6 -36 8 -46 62 -38 l30 5 -1 66 c0 37 -3 72 -7 77
-10 16 -9 153 2 160 12 7 12 213 0 220 -13 8 -13 52 0 60 6 4 10 58 9 135 -1
116 -3 130 -20 135 -10 3 -27 2 -37 -4 -12 -6 -59 -8 -121 -4 -73 4 -101 3
-101 -5 0 -14 -67 -16 -72 -4 -3 10 -133 21 -160 15z m362 -87 l55 -1 -2 -60
c-1 -33 -2 -62 -2 -65 -1 -3 -30 -5 -65 -5 l-63 0 3 57 c2 53 1 57 -23 63 -55
13 -80 -17 -71 -88 l4 -33 -46 7 c-25 4 -47 5 -49 3 -2 -1 -4 -23 -5 -48 -1
-35 2 -45 14 -44 8 1 29 0 46 0 29 -2 32 -6 36 -37 4 -33 2 -36 -21 -34 -58 4
-61 2 -55 -43 12 -92 13 -154 3 -186 -6 -18 -9 -36 -6 -38 6 -7 34 -6 77 2 54
9 91 9 139 0 l44 -8 -9 28 c-9 31 -9 144 -1 207 5 36 4 37 -26 39 -18 0 -39 1
-47 0 -11 -1 -15 9 -15 36 l0 37 63 -2 c42 -2 62 2 62 10 0 6 7 2 15 -10 16
-24 20 -159 4 -169 -6 -3 -8 -53 -5 -124 l6 -117 -108 -6 c-59 -3 -129 -4
-157 -2 -27 3 -59 5 -70 6 -17 1 -20 10 -23 63 -3 71 -3 177 1 401 l2 160 72
-3 c41 -3 79 1 90 7 10 6 32 8 48 5 17 -4 55 -7 85 -8z m-73 -376 c1 -14 5
-38 8 -55 4 -19 1 -37 -8 -50 -13 -16 -18 -18 -41 -7 -14 6 -32 9 -40 6 -20
-8 -32 40 -18 72 7 13 9 31 5 40 -5 13 -2 15 13 10 10 -3 26 -1 34 4 24 16 45
7 47 -20z"/>
</g>
</svg>
