<?xml version="1.0" standalone="no"?>
<!DOCTYPE svg PUBLIC "-//W3C//DTD SVG 20010904//EN"
 "http://www.w3.org/TR/2001/REC-SVG-20010904/DTD/svg10.dtd">
<svg version="1.0" xmlns="http://www.w3.org/2000/svg"
 width="101.000000pt" height="101.000000pt" viewBox="0 0 101.000000 101.000000"
 preserveAspectRatio="xMidYMid meet">
<metadata>
Created by potrace 1.16, written by Peter Selinger 2001-2019
</metadata>
<g transform="translate(0.000000,101.000000) scale(0.100000,-0.100000)"
fill="#000000" stroke="none">
<path d="M190 948 c-29 -82 -70 -154 -120 -210 l-39 -45 16 -44 c22 -57 21
-56 38 -33 9 12 14 14 15 6 0 -9 11 -12 33 -10 31 3 32 2 37 -45 l6 -48 -58 5
c-55 5 -58 4 -64 -19 -15 -60 14 -78 97 -61 22 4 27 1 28 -17 0 -12 3 -55 6
-96 4 -62 2 -81 -15 -113 -25 -47 -25 -46 5 -83 l24 -29 38 30 c21 17 67 50
103 74 36 24 67 45 69 46 6 5 -18 84 -26 84 -3 0 -28 -16 -55 -36 -27 -20 -51
-34 -53 -32 -5 4 -7 99 -4 150 1 26 2 27 65 23 60 -3 64 -2 66 18 3 54 -12 84
-35 70 -5 -3 -28 -7 -51 -8 l-41 -3 0 47 c0 40 3 46 20 46 12 -1 27 -5 34 -9
22 -14 60 3 67 28 14 58 -24 87 -88 68 -36 -12 -108 -9 -133 5 -13 8 -12 13
10 42 23 32 29 34 91 37 36 2 74 -1 84 -6 23 -12 50 11 50 43 0 32 -12 44 -40
43 -64 0 -110 5 -110 12 0 5 16 27 35 49 l35 41 -50 21 c-27 11 -53 21 -58 21
-5 0 -19 -28 -32 -62z"/>
<path d="M615 998 c-16 -6 -32 -12 -34 -14 -2 -2 8 -23 23 -48 14 -24 26 -46
26 -48 0 -2 -44 -2 -97 -1 l-98 2 0 -44 c-1 -49 7 -54 80 -56 l40 -1 -30 -10
c-40 -14 -40 -14 -21 -43 10 -15 23 -44 31 -65 l13 -38 -36 -4 c-20 -3 -48 0
-61 6 -19 8 -26 7 -37 -9 -19 -25 -18 -60 3 -80 13 -14 28 -16 87 -10 39 4 73
11 74 16 5 12 72 11 72 -1 0 -5 18 -10 40 -10 23 0 40 5 40 11 0 14 113 3 140
-13 23 -15 67 -2 75 21 3 11 3 30 0 43 -6 22 -10 23 -85 23 -44 -1 -80 1 -80
3 0 9 53 92 65 102 23 19 18 27 -20 40 -51 17 -43 30 19 30 50 0 54 2 60 26
14 54 3 61 -82 60 -87 -2 -114 2 -106 16 10 16 -37 108 -55 107 -9 0 -29 -5
-46 -11z m103 -205 c26 -4 32 -9 27 -22 -4 -9 -9 -26 -11 -38 -2 -12 -12 -40
-22 -63 l-17 -42 -63 -1 c-66 -2 -82 7 -32 18 36 8 37 15 5 84 -14 30 -24 55
-23 56 23 17 49 24 73 20 17 -3 45 -9 63 -12z"/>
<path d="M478 473 c-17 -4 -23 -19 -20 -53 3 -41 12 -108 17 -130 3 -14 0 -48
-8 -76 -17 -64 -11 -121 12 -127 9 -2 31 -2 49 1 32 4 38 17 34 73 -1 11 7 17
21 18 12 1 47 3 77 6 30 2 69 2 87 -1 30 -4 32 -6 27 -43 -5 -44 6 -51 68 -43
l37 4 -7 52 c-8 56 -7 220 1 278 5 36 4 38 -18 32 -13 -3 -31 -1 -42 4 -13 7
-36 6 -77 -5 -35 -9 -69 -12 -85 -7 -14 4 -48 8 -76 9 -27 1 -57 4 -65 7 -8 3
-23 4 -32 1z m273 -79 c19 -4 27 -12 28 -27 5 -66 4 -107 -3 -114 -4 -4 -47
-7 -94 -6 -137 3 -131 1 -138 38 -3 18 -1 42 5 53 6 11 8 28 4 37 -5 14 -2 16
13 11 10 -3 25 -2 33 3 16 10 110 13 152 5z"/>
</g>
</svg>
