<?xml version="1.0" standalone="no"?>
<!DOCTYPE svg PUBLIC "-//W3C//DTD SVG 20010904//EN"
 "http://www.w3.org/TR/2001/REC-SVG-20010904/DTD/svg10.dtd">
<svg version="1.0" xmlns="http://www.w3.org/2000/svg"
 width="101.000000pt" height="101.000000pt" viewBox="0 0 101.000000 101.000000"
 preserveAspectRatio="xMidYMid meet">
<metadata>
Created by potrace 1.16, written by Peter Selinger 2001-2019
</metadata>
<g transform="translate(0.000000,101.000000) scale(0.100000,-0.100000)"
fill="#000000" stroke="none">
<path d="M170 967 c-17 -59 -62 -145 -104 -200 -41 -54 -41 -53 -21 -102 13
-30 18 -35 30 -25 12 10 15 9 15 -4 0 -15 14 -20 48 -19 7 1 11 -5 8 -12 -3
-8 0 -27 7 -44 9 -26 9 -34 -5 -48 -14 -13 -22 -14 -42 -5 -47 21 -82 -8 -69
-58 5 -18 12 -20 58 -15 60 5 55 17 58 -118 2 -75 1 -80 -26 -103 l-28 -24 27
-40 c15 -22 30 -40 33 -40 4 0 46 40 95 89 l90 90 -14 40 c-7 23 -16 41 -19
41 -3 0 -22 -16 -42 -36 l-38 -37 -6 36 c-4 19 -2 44 4 55 6 11 8 27 6 35 -5
11 4 14 40 13 l47 -1 30 -78 30 -79 -33 -35 c-19 -19 -55 -47 -81 -62 l-46
-27 39 -33 39 -32 38 29 c20 17 50 44 65 60 l29 30 34 -23 c47 -32 127 -58
213 -70 18 -3 37 -7 41 -10 5 -3 20 0 34 6 20 9 32 9 58 -4 55 -25 89 -13 119
42 l25 47 -91 1 c-144 2 -135 -1 -133 48 2 35 6 43 23 44 71 5 93 5 121 -1 27
-6 33 -4 37 12 3 11 3 29 0 40 -5 18 -13 20 -72 19 -109 -1 -109 -1 -108 36 1
25 5 33 21 34 66 5 94 4 117 -3 22 -6 27 -4 32 13 7 29 -2 58 -20 65 -8 3 -30
-1 -48 -10 -25 -12 -38 -13 -53 -5 -12 6 -27 8 -35 5 -12 -4 -15 3 -14 29 l1
35 45 -5 c53 -5 102 -5 108 0 6 6 6 57 0 103 l-5 40 36 -3 c39 -3 52 8 52 44
0 27 -31 45 -68 41 -22 -2 -28 2 -30 20 -2 12 4 29 12 38 9 8 16 21 16 27 -1
29 -19 37 -91 39 l-74 3 0 45 0 44 -43 1 c-40 0 -42 -2 -48 -32 -3 -18 -4 -39
-1 -45 3 -10 -7 -12 -39 -10 -39 4 -45 1 -54 -22 -18 -48 7 -71 65 -60 30 5
32 4 31 -28 -1 -33 -1 -33 -46 -31 -25 1 -55 5 -67 8 -18 6 -25 2 -33 -20 -13
-35 -13 -41 7 -60 13 -14 28 -16 78 -10 l62 6 0 -31 c0 -29 -3 -31 -31 -29
-53 3 -66 0 -67 -18 -1 -17 -2 -17 -6 0 -4 16 -15 21 -36 18 -59 -10 -78 -9
-74 2 32 78 97 250 97 258 0 6 -25 7 -65 3 -46 -5 -69 -3 -80 6 -30 25 -71 -1
-67 -41 1 -3 -10 -4 -22 -2 -13 3 -33 0 -44 -6 -13 -7 -23 -7 -27 -1 -6 10 36
83 55 95 5 3 10 10 10 15 0 11 -44 35 -81 43 -24 6 -27 3 -39 -36z m260 -144
c0 -2 -16 -43 -36 -93 -21 -53 -46 -98 -61 -110 -23 -18 -24 -22 -13 -55 6
-19 16 -33 21 -30 4 3 21 8 36 10 16 2 38 7 50 11 23 7 23 6 8 -106 -3 -25 -7
-51 -7 -58 -2 -24 -16 3 -22 42 -8 49 -7 48 -50 49 -22 1 -36 6 -36 14 0 7
-12 14 -27 14 -16 1 -37 2 -48 3 -16 1 -19 7 -17 31 1 17 3 40 3 52 1 14 7 22
18 21 46 -4 69 3 74 22 14 55 -25 82 -90 62 -31 -9 -63 -4 -91 14 -2 2 4 13
14 27 16 21 24 23 66 19 66 -6 94 3 106 35 8 25 14 28 56 28 25 0 46 -1 46 -2z
m372 -31 c3 -25 1 -27 -32 -27 -34 -1 -36 1 -36 30 1 28 3 30 33 27 25 -3 32
-9 35 -30z m5 -132 c0 -27 -3 -29 -37 -27 -32 1 -37 4 -37 27 0 23 5 26 37 27
34 2 37 0 37 -27z m-257 -95 c0 -14 21 -21 45 -15 44 11 51 8 52 -25 1 -32 0
-32 -33 -25 -43 10 -74 2 -74 -18 0 -11 -3 -13 -10 -6 -6 6 -6 21 0 42 5 18 6
40 3 48 -3 8 0 14 6 14 6 0 11 -7 11 -15z m22 -137 c13 1 34 2 47 4 22 3 25
-1 27 -35 3 -45 -14 -56 -57 -40 -53 20 -85 -6 -72 -56 4 -16 12 -18 41 -15
90 12 85 14 89 -39 3 -44 2 -47 -16 -38 -10 6 -21 8 -23 6 -7 -7 -81 20 -111
40 l-24 15 19 68 c11 37 21 76 23 87 1 11 3 25 4 30 1 6 8 2 16 -9 7 -10 24
-18 37 -18z"/>
</g>
</svg>
