<?xml version="1.0" standalone="no"?>
<!DOCTYPE svg PUBLIC "-//W3C//DTD SVG 20010904//EN"
 "http://www.w3.org/TR/2001/REC-SVG-20010904/DTD/svg10.dtd">
<svg version="1.0" xmlns="http://www.w3.org/2000/svg"
 width="101.000000pt" height="102.000000pt" viewBox="0 0 101.000000 102.000000"
 preserveAspectRatio="xMidYMid meet">
<metadata>
Created by potrace 1.16, written by Peter Selinger 2001-2019
</metadata>
<g transform="translate(0.000000,102.000000) scale(0.100000,-0.100000)"
fill="#000000" stroke="none">
<path d="M155 962 c-23 -79 -59 -152 -106 -214 l-39 -52 31 -32 c17 -18 38
-30 45 -27 8 3 14 0 14 -5 0 -6 12 -9 28 -8 27 4 27 4 25 -53 -1 -53 -2 -56
-25 -53 -39 5 -69 4 -75 -2 -8 -8 -8 -64 0 -72 6 -6 35 -7 77 -2 27 3 26 6 35
-107 3 -39 -1 -74 -10 -101 -15 -39 -14 -43 7 -81 l23 -40 93 88 94 89 -17 45
c-10 25 -19 45 -21 45 -2 0 -21 -19 -43 -42 l-39 -43 -7 37 c-4 20 -2 45 4 56
6 11 8 27 5 35 -5 15 -2 16 73 19 56 2 56 74 0 76 -75 3 -72 1 -72 53 l0 49
37 0 c44 0 70 23 66 59 -3 24 -6 26 -46 23 -24 -2 -49 1 -56 8 -8 6 -39 9 -69
8 l-56 -3 19 29 c16 26 25 30 66 31 29 0 49 6 52 13 3 9 19 11 62 6 52 -6 59
-4 64 14 4 11 4 31 1 44 -6 24 -10 25 -91 24 -46 -1 -84 2 -84 5 0 3 14 25 31
48 17 24 28 45 26 47 -3 3 -27 14 -55 24 l-51 19 -16 -57z"/>
<path d="M385 939 c-11 -47 9 -69 60 -69 25 0 45 5 45 10 0 6 16 10 35 10 19
0 35 -4 35 -10 0 -6 30 -10 70 -10 40 0 70 4 70 10 0 14 47 13 52 -1 3 -8 31
-9 95 -4 86 7 92 8 98 32 13 54 5 58 -124 61 -70 2 -122 -1 -125 -7 -8 -12
-173 -14 -181 -1 -3 5 -32 8 -65 8 -56 -1 -59 -3 -65 -29z"/>
<path d="M458 833 c-26 -6 -30 -34 -22 -133 7 -91 11 -99 49 -90 27 6 304 2
314 -4 7 -5 23 -5 35 -2 22 5 24 13 30 96 11 130 13 127 -97 133 -102 7 -282
6 -309 0z m308 -108 l-1 -33 -65 -6 c-36 -3 -88 -6 -115 -6 l-51 0 1 38 0 37
116 2 115 1 0 -33z"/>
<path d="M396 567 c-15 -11 -17 -20 -11 -43 15 -53 17 -78 17 -214 0 -74 -5
-147 -11 -162 -19 -50 4 -70 67 -60 31 4 32 6 26 42 -6 35 -9 288 -4 336 2 14
10 22 24 23 11 1 46 3 76 6 68 6 120 -2 120 -18 0 -21 -49 -117 -60 -117 -5 0
-10 10 -11 23 -1 41 -25 92 -42 91 -64 -5 -71 -12 -52 -57 20 -47 19 -52 -6
-54 -12 -1 -24 -4 -27 -7 -7 -8 -7 -64 1 -72 8 -8 47 -8 73 1 25 8 25 4 24
-111 0 -67 9 -77 64 -67 22 5 24 8 18 37 -4 17 -6 47 -5 66 6 87 -2 79 68 74
56 -3 63 -1 68 16 12 46 -6 66 -55 62 -24 -2 -23 7 7 50 l25 37 -37 20 c-34
17 -36 19 -13 20 14 0 38 2 55 3 33 3 31 10 40 -112 3 -36 3 -93 -1 -128 -5
-61 -7 -63 -32 -61 -62 5 -63 4 -39 -51 21 -48 23 -50 57 -46 50 6 86 22 94
42 3 9 4 77 1 151 -4 78 -2 139 3 146 5 7 10 41 10 76 l0 63 -31 -8 c-18 -4
-72 -7 -122 -7 -49 1 -98 2 -107 2 -109 -1 -217 6 -238 15 -9 4 -24 0 -34 -7z"/>
</g>
</svg>
