<?xml version="1.0" standalone="no"?>
<!DOCTYPE svg PUBLIC "-//W3C//DTD SVG 20010904//EN"
 "http://www.w3.org/TR/2001/REC-SVG-20010904/DTD/svg10.dtd">
<svg version="1.0" xmlns="http://www.w3.org/2000/svg"
 width="101.000000pt" height="102.000000pt" viewBox="0 0 101.000000 102.000000"
 preserveAspectRatio="xMidYMid meet">
<metadata>
Created by potrace 1.16, written by Peter Selinger 2001-2019
</metadata>
<g transform="translate(0.000000,102.000000) scale(0.100000,-0.100000)"
fill="#000000" stroke="none">
<path d="M608 978 c3 -32 0 -45 -14 -55 -20 -15 -100 -18 -108 -4 -4 5 -26 9
-51 9 -48 0 -63 -17 -50 -59 6 -18 5 -19 -13 -10 -11 6 -27 8 -36 5 -8 -3 -38
-7 -65 -7 l-49 -2 18 36 c10 19 26 41 34 48 24 20 20 31 -16 45 -75 31 -73 31
-92 -31 -25 -79 -69 -165 -108 -208 l-31 -36 21 -37 c11 -20 26 -37 32 -37 6
0 14 -6 18 -13 5 -6 21 -11 38 -9 l29 4 0 -56 c0 -60 -14 -73 -53 -52 -41 22
-78 -11 -65 -59 5 -18 11 -20 63 -15 55 5 58 4 59 -17 1 -13 3 -48 6 -78 7
-84 -1 -116 -35 -137 l-30 -19 31 -42 c17 -23 34 -42 38 -42 4 0 23 16 41 35
19 20 59 52 88 73 43 29 53 41 49 59 -2 13 0 23 4 23 5 0 9 -6 9 -14 0 -14 34
-15 80 -2 14 4 43 3 64 -1 l40 -9 -62 -41 c-34 -23 -83 -49 -109 -59 -27 -9
-52 -20 -56 -24 -4 -4 9 -20 29 -35 l38 -29 70 39 c39 22 95 51 123 65 29 14
53 27 53 30 0 3 -19 18 -43 33 -23 16 -34 26 -24 23 10 -3 27 -1 38 4 11 6 40
8 69 4 l50 -7 -25 -19 c-33 -26 -32 -34 13 -57 20 -10 64 -39 98 -64 l60 -44
37 29 c20 17 37 34 37 38 0 5 -42 32 -92 61 -95 52 -117 67 -85 56 9 -4 28 -2
40 4 16 7 41 7 74 1 50 -9 51 -8 56 16 9 46 0 57 -48 56 l-44 -2 -7 76 c-5 54
-3 77 5 80 14 5 15 142 1 142 -15 0 -13 150 3 151 36 3 -78 17 -125 15 -50 -2
-56 0 -48 15 5 9 8 18 6 20 -3 2 52 4 120 4 136 0 144 4 129 62 -5 21 -10 24
-33 19 -69 -15 -122 -18 -122 -7 0 6 -18 11 -46 11 -38 0 -45 3 -40 16 19 49
18 61 -6 68 -13 3 -37 6 -53 6 -30 0 -30 -1 -27 -42z m-22 -154 c-1 -20 -5
-21 -57 -17 -34 4 -64 1 -79 -7 -20 -10 -22 -17 -16 -53 3 -23 7 -124 9 -224
2 -178 1 -183 -18 -181 -40 3 -53 -2 -60 -24 -6 -20 -8 -20 -12 -6 -6 26 -20
22 -62 -14 l-36 -32 -8 49 c-5 31 -4 58 2 72 6 13 8 30 4 40 -5 12 -2 15 10
10 10 -4 29 -1 42 5 19 9 28 9 37 0 19 -19 35 -14 41 14 10 54 1 62 -71 60
-66 -1 -67 -1 -64 24 2 14 3 35 4 48 0 19 6 22 42 24 22 0 49 1 58 0 20 -2 31
27 22 62 l-6 25 -119 -2 c-65 -1 -119 -1 -119 1 0 2 11 19 25 39 23 35 27 37
82 38 141 3 142 3 149 33 4 15 8 29 9 32 2 3 46 5 98 5 90 0 94 -1 93 -21z
m180 -121 l-1 -28 -116 0 c-114 0 -115 0 -111 22 4 20 11 23 76 26 39 1 89 4
112 5 39 2 41 1 40 -25z m-35 -79 c31 -5 36 -10 36 -35 0 -24 -5 -30 -31 -34
-17 -3 -60 -3 -96 0 -36 3 -74 6 -86 6 -16 1 -21 8 -21 29 0 26 2 27 42 22 24
-2 51 1 61 7 22 12 44 13 95 5z m10 -110 c21 -4 26 -11 26 -34 0 -25 -5 -30
-31 -35 -17 -3 -60 -3 -96 0 -36 3 -74 6 -86 6 -16 1 -21 8 -21 30 0 22 4 28
16 24 9 -2 22 -1 30 4 15 10 121 13 162 5z m0 -110 c21 -4 26 -11 26 -34 0
-25 -5 -30 -31 -35 -17 -3 -60 -3 -96 0 -36 3 -74 6 -86 6 -16 1 -21 8 -21 30
0 22 4 28 16 24 9 -2 22 -1 30 4 15 10 121 13 162 5z"/>
</g>
</svg>
