<?xml version="1.0" standalone="no"?>
<!DOCTYPE svg PUBLIC "-//W3C//DTD SVG 20010904//EN"
 "http://www.w3.org/TR/2001/REC-SVG-20010904/DTD/svg10.dtd">
<svg version="1.0" xmlns="http://www.w3.org/2000/svg"
 width="101.000000pt" height="101.000000pt" viewBox="0 0 101.000000 101.000000"
 preserveAspectRatio="xMidYMid meet">
<metadata>
Created by potrace 1.16, written by Peter Selinger 2001-2019
</metadata>
<g transform="translate(0.000000,101.000000) scale(0.100000,-0.100000)"
fill="#000000" stroke="none">
<path d="M161 958 c-19 -64 -64 -147 -110 -205 l-40 -51 18 -46 c16 -43 18
-45 34 -29 15 16 17 16 17 1 0 -18 20 -28 56 -28 21 0 24 -5 24 -35 0 -19 -1
-38 -2 -42 -3 -8 -33 -8 -90 0 -30 4 -39 -13 -31 -57 6 -31 26 -35 97 -22 39
7 38 9 36 -109 -1 -59 -4 -74 -25 -95 l-24 -26 20 -34 c12 -19 23 -37 25 -39
2 -2 28 19 58 46 30 28 74 65 97 84 l44 34 -24 -40 c-13 -22 -28 -44 -33 -50
-4 -5 -8 -15 -8 -22 0 -16 50 -93 60 -93 16 0 91 184 106 260 10 50 19 167 19
238 l0 82 28 0 c15 0 27 5 27 10 0 6 32 10 75 10 44 0 75 -4 75 -10 0 -7 40
-10 110 -8 97 2 111 5 116 21 3 10 -1 29 -10 42 -17 26 -22 90 -7 99 5 3 9 28
9 55 l1 48 -70 2 c-41 1 -69 -3 -69 -9 0 -6 -32 -10 -80 -10 -47 0 -80 4 -80
10 0 6 -18 10 -40 10 -22 0 -40 -4 -40 -10 0 -5 -25 -10 -55 -10 -30 0 -55 5
-55 10 0 6 -6 10 -13 10 -16 0 -22 -116 -7 -125 13 -8 11 -173 -1 -181 -6 -4
-10 -44 -9 -98 2 -83 -2 -136 -14 -191 -2 -11 -5 -24 -5 -29 -2 -17 -12 1 -17
30 -3 16 -7 30 -9 33 -3 2 -25 -13 -49 -33 l-45 -37 -7 26 c-4 15 -2 37 4 51
7 13 9 30 6 38 -5 12 5 14 54 10 58 -4 60 -3 65 22 2 14 2 34 0 44 -4 16 -8
17 -23 8 -14 -9 -25 -9 -44 0 -14 6 -31 9 -38 7 -9 -4 -13 7 -13 39 l0 43 36
-4 c43 -6 72 17 67 56 l-3 26 -122 -4 c-68 -2 -123 0 -123 3 0 4 15 26 33 49
l32 42 93 0 c71 0 95 4 103 15 8 14 4 58 -7 70 -3 2 -36 5 -74 5 -39 0 -70 2
-70 5 0 12 51 80 60 80 6 0 10 4 10 8 0 11 -40 29 -82 37 -33 6 -35 5 -47 -37z
m444 -140 l0 -53 -60 0 -60 0 3 47 4 47 41 4 c23 2 49 4 57 5 12 2 15 -10 15
-50z m210 -3 l0 -54 -61 2 -61 2 1 50 1 50 60 2 60 1 0 -53z"/>
<path d="M520 616 c-6 -17 -9 -120 -7 -266 2 -263 -1 -252 65 -242 29 4 31 7
27 32 -4 23 -1 28 18 29 12 1 47 3 77 6 30 2 67 2 83 -1 23 -5 26 -9 22 -34
-6 -32 10 -40 62 -33 30 5 31 6 38 78 4 49 3 81 -5 95 -7 14 -9 36 -5 59 10
47 12 277 3 286 -3 4 -88 9 -187 12 l-180 6 -11 -27z m242 -52 c42 -6 45 -8
44 -35 -1 -34 -22 -40 -106 -34 -30 3 -64 5 -75 6 -14 1 -20 9 -20 25 0 21 5
24 38 24 20 0 37 5 37 10 0 12 19 12 82 4z m19 -120 c21 -4 25 -10 26 -39 1
-29 -3 -35 -26 -39 -14 -3 -51 -3 -81 -1 -30 3 -65 5 -76 6 -18 1 -22 7 -21
35 1 26 5 33 16 29 9 -2 23 0 31 5 15 9 84 11 131 4z m0 -130 c21 -4 25 -10
26 -39 1 -29 -3 -35 -26 -39 -14 -3 -51 -3 -81 -1 -30 3 -65 5 -76 6 -18 1
-22 7 -21 35 1 26 5 33 16 29 9 -2 23 0 31 5 15 9 84 11 131 4z"/>
</g>
</svg>
