<?xml version="1.0" standalone="no"?>
<!DOCTYPE svg PUBLIC "-//W3C//DTD SVG 20010904//EN"
 "http://www.w3.org/TR/2001/REC-SVG-20010904/DTD/svg10.dtd">
<svg version="1.0" xmlns="http://www.w3.org/2000/svg"
 width="101.000000pt" height="102.000000pt" viewBox="0 0 101.000000 102.000000"
 preserveAspectRatio="xMidYMid meet">
<metadata>
Created by potrace 1.16, written by Peter Selinger 2001-2019
</metadata>
<g transform="translate(0.000000,102.000000) scale(0.100000,-0.100000)"
fill="#000000" stroke="none">
<path d="M630 978 c-18 -61 -83 -186 -87 -168 -3 13 -25 16 -121 17 -79 1
-119 -3 -124 -10 -5 -8 -8 -6 -8 5 0 22 -34 32 -59 19 -11 -6 -24 -11 -30 -11
-14 0 13 87 33 109 22 25 21 29 -20 46 -47 20 -64 19 -64 -2 -1 -37 -50 -157
-91 -219 l-42 -65 20 -43 c12 -23 28 -44 37 -45 9 -1 26 -3 39 -4 20 -2 23 -8
25 -44 l2 -42 -44 4 c-36 4 -45 1 -49 -14 -12 -48 10 -80 48 -71 43 11 53 7
54 -19 6 -97 0 -157 -20 -183 l-20 -28 23 -32 c13 -18 24 -35 26 -38 2 -3 13
8 25 25 39 53 129 156 133 152 8 -7 -24 -71 -61 -126 -20 -29 -35 -54 -33 -55
9 -7 80 -46 82 -46 2 0 18 32 36 72 31 66 34 70 47 52 8 -10 16 -29 20 -42 6
-24 19 -24 77 4 38 18 42 13 11 -16 -27 -26 -32 -40 -12 -40 6 0 25 -7 42 -16
27 -14 30 -14 45 6 9 11 26 48 39 81 l24 59 24 -39 c18 -31 35 -44 78 -60 30
-11 61 -18 70 -15 8 3 28 1 44 -4 45 -16 64 -5 88 46 12 26 20 48 18 50 -2 2
-28 -2 -58 -8 -40 -9 -59 -10 -75 -1 -11 6 -27 8 -35 5 -11 -4 -16 9 -20 56
-4 35 -3 70 3 80 5 10 7 25 4 34 -5 12 2 14 33 11 21 -2 43 -4 48 -5 23 -5 33
2 38 26 10 54 1 63 -63 59 l-58 -4 1 78 2 77 32 0 31 -1 -14 -34 c-8 -19 -13
-36 -10 -38 2 -2 22 -6 44 -9 40 -5 44 -1 56 56 1 3 8 27 15 53 8 26 12 49 10
52 -3 2 -34 0 -69 -5 -86 -13 -190 -13 -190 0 0 6 -18 10 -40 10 l-40 0 18 35
18 35 113 6 c76 3 117 1 126 -6 33 -28 75 23 60 71 -7 20 -49 27 -60 9 -8 -13
-82 -13 -90 0 -3 6 -28 9 -56 7 -27 -1 -49 -1 -49 1 0 8 34 69 47 84 13 15 12
18 -14 31 -63 32 -69 31 -83 -15z m-317 -239 c7 -1 14 -1 17 -1 3 0 4 -26 2
-58 -1 -33 2 -61 8 -65 15 -9 12 -134 -4 -188 -8 -26 -12 -57 -9 -68 9 -32
-19 -19 -36 16 l-14 28 -28 -34 c-24 -30 -29 -32 -35 -16 -3 10 -2 29 4 43 6
13 9 30 6 39 -5 12 1 14 34 9 37 -5 40 -4 45 21 2 15 2 36 -1 47 -4 16 -11 19
-44 14 -34 -5 -39 -3 -34 10 3 9 6 30 6 49 0 32 1 32 40 28 35 -4 40 -2 46 21
12 50 4 54 -100 48 -104 -5 -107 -3 -82 47 14 26 17 27 85 25 46 -1 71 3 72
10 1 6 3 3 6 -6 2 -10 10 -19 16 -19z m187 5 c0 -3 -5 -14 -10 -25 -9 -16 -5
-22 35 -41 25 -12 45 -27 45 -34 0 -16 24 -24 71 -24 l39 0 0 -55 c0 -30 5
-55 10 -55 6 0 10 -16 10 -35 0 -19 -5 -35 -11 -35 -8 0 -9 -25 -5 -82 l6 -83
-22 45 c-22 45 -25 80 -14 158 3 23 2 42 -2 43 -65 9 -80 7 -85 -13 -4 -12 -2
-28 2 -37 15 -27 10 -119 -9 -179 l-18 -57 2 197 c0 108 -2 199 -6 203 -3 4
-33 9 -65 12 l-59 5 0 47 1 46 43 2 c23 1 42 0 42 -3z m-41 -199 c1 -11 3 -51
4 -90 1 -38 6 -76 10 -83 9 -13 0 -91 -13 -112 -4 -7 -24 -14 -43 -15 -35 -3
-35 -3 -31 32 3 20 8 41 12 47 4 6 8 54 9 106 4 146 3 138 28 136 15 -1 23 -8
24 -21z"/>
<path d="M383 974 l-32 -14 26 -57 c14 -32 28 -60 29 -62 5 -5 84 18 84 25 0
12 -61 124 -68 123 -4 0 -21 -7 -39 -15z"/>
</g>
</svg>
