<?xml version="1.0" standalone="no"?>
<!DOCTYPE svg PUBLIC "-//W3C//DTD SVG 20010904//EN"
 "http://www.w3.org/TR/2001/REC-SVG-20010904/DTD/svg10.dtd">
<svg version="1.0" xmlns="http://www.w3.org/2000/svg"
 width="101.000000pt" height="101.000000pt" viewBox="0 0 101.000000 101.000000"
 preserveAspectRatio="xMidYMid meet">
<metadata>
Created by potrace 1.16, written by Peter Selinger 2001-2019
</metadata>
<g transform="translate(0.000000,101.000000) scale(0.100000,-0.100000)"
fill="#000000" stroke="none">
<path d="M155 962 c-30 -80 -64 -141 -101 -182 l-36 -39 23 -43 c13 -24 25
-45 27 -48 2 -3 9 4 15 15 11 19 11 19 17 -5 5 -20 12 -25 37 -25 24 0 31 -4
32 -20 0 -11 2 -33 3 -50 l3 -30 -61 2 c-67 3 -77 -6 -67 -61 5 -25 7 -25 65
-20 53 5 60 3 54 -11 -3 -9 -1 -25 4 -35 17 -31 0 -138 -26 -170 l-24 -28 26
-46 c14 -25 28 -46 31 -46 2 0 19 15 36 33 18 17 63 60 100 95 l69 63 -12 50
-12 51 -53 -52 -53 -52 -7 40 c-4 24 -2 49 4 61 6 11 8 27 4 37 -5 13 -3 16
10 11 8 -3 29 -1 46 6 25 9 36 9 52 -1 26 -17 31 -12 32 32 1 45 -7 53 -38 36
-19 -10 -31 -11 -50 -2 -14 6 -30 9 -37 7 -10 -4 -13 10 -13 54 l0 59 32 -3
c18 -2 37 -6 42 -9 13 -8 41 21 41 42 -1 40 -15 45 -129 50 l-110 5 21 36 21
36 103 -1 c91 -1 104 1 109 17 14 43 -24 93 -55 74 -6 -4 -34 -7 -64 -8 l-53
-2 15 25 c9 14 26 37 39 51 23 25 23 27 6 34 -10 4 -37 9 -59 11 -41 4 -41 4
-59 -44z"/>
<path d="M580 992 c0 -2 7 -16 15 -32 l15 -29 -99 5 -99 4 -7 -29 c-6 -29 2
-59 18 -60 4 -1 26 -1 50 -2 23 0 36 -3 30 -6 -10 -3 -9 -11 2 -33 8 -16 15
-31 15 -33 0 -2 -24 0 -52 4 -63 10 -85 5 -93 -22 -11 -33 4 -58 38 -64 18 -3
148 -4 290 -3 279 4 284 5 271 58 -8 33 -23 42 -59 34 -32 -6 -127 -6 -134 2
-2 2 4 13 14 25 16 16 17 22 6 28 -9 6 9 11 47 16 34 4 66 4 71 1 12 -8 25 33
19 61 -2 11 -11 17 -23 16 -119 -15 -136 -15 -150 -3 -8 7 -24 10 -35 7 -15
-4 -22 2 -31 27 -11 30 -14 31 -65 31 -30 0 -54 -1 -54 -3z m127 -167 c-14
-44 -36 -65 -68 -65 -23 0 -29 6 -43 47 -9 26 -16 47 -16 47 0 1 31 1 69 1
l68 1 -10 -31z"/>
<path d="M428 663 c-2 -4 -3 -21 0 -38 7 -61 7 -221 -1 -252 l-8 -32 50 5 c54
5 57 2 40 -43 -24 -64 -84 -103 -167 -108 -60 -4 -75 -12 -50 -26 10 -6 31
-24 47 -41 l29 -31 53 17 c64 21 113 56 140 100 20 33 44 103 41 122 -1 6 11
11 27 11 32 0 31 5 34 -126 l2 -85 33 -13 c18 -7 38 -10 45 -6 7 4 44 8 84 8
62 0 75 3 97 24 35 33 45 89 20 108 -10 7 -27 20 -37 28 -23 20 -33 13 -41
-30 -8 -41 -29 -55 -82 -52 -34 3 -40 7 -48 35 -6 22 -5 41 2 57 6 14 9 32 5
42 -5 12 -2 15 10 10 10 -4 29 -1 42 5 19 9 28 9 37 0 7 -7 21 -12 31 -12 17
0 18 4 11 33 -9 36 -9 154 0 207 13 71 1 98 -34 83 -60 -25 -330 -24 -391 1
-10 4 -19 4 -21 -1z m323 -69 c31 -5 36 -9 36 -34 0 -27 -4 -30 -41 -35 -23
-3 -75 -3 -116 0 -41 3 -84 6 -96 6 -16 1 -21 8 -21 30 0 22 4 28 16 24 9 -2
22 -1 30 4 16 10 140 13 192 5z m0 -120 c31 -5 36 -9 36 -34 0 -27 -4 -30 -41
-35 -23 -3 -75 -3 -116 0 -41 3 -84 6 -96 6 -16 1 -21 8 -21 30 0 22 4 28 16
24 9 -2 22 -1 30 4 16 10 140 13 192 5z"/>
</g>
</svg>
