<?xml version="1.0" standalone="no"?>
<!DOCTYPE svg PUBLIC "-//W3C//DTD SVG 20010904//EN"
 "http://www.w3.org/TR/2001/REC-SVG-20010904/DTD/svg10.dtd">
<svg version="1.0" xmlns="http://www.w3.org/2000/svg"
 width="101.000000pt" height="101.000000pt" viewBox="0 0 101.000000 101.000000"
 preserveAspectRatio="xMidYMid meet">
<metadata>
Created by potrace 1.16, written by Peter Selinger 2001-2019
</metadata>
<g transform="translate(0.000000,101.000000) scale(0.100000,-0.100000)"
fill="#000000" stroke="none">
<path d="M178 980 c-21 -63 -87 -187 -122 -233 -20 -26 -36 -49 -36 -52 0 -2
11 -20 24 -39 21 -31 26 -34 37 -20 9 11 14 12 20 3 4 -7 20 -12 36 -12 29 0
30 -2 29 -46 -1 -50 5 -48 -83 -37 -35 5 -43 -9 -35 -62 l4 -31 58 5 c55 5 58
4 59 -18 0 -13 3 -53 6 -89 3 -52 0 -74 -15 -103 -19 -39 -17 -48 25 -114 1
-1 37 33 79 75 53 55 76 72 74 58 -4 -53 -1 -56 50 -49 84 10 146 13 174 8 24
-5 26 -9 23 -49 -1 -23 -5 -47 -8 -52 -15 -24 16 -38 75 -35 26 2 26 3 23 66
-4 73 -18 65 125 69 47 1 97 -2 111 -6 22 -7 27 -5 32 12 13 52 4 56 -116 58
-152 2 -153 2 -154 25 -1 13 3 18 12 14 7 -2 26 0 42 6 22 8 41 7 82 -5 67
-20 83 -15 70 22 -9 24 -7 132 4 218 4 37 -18 48 -62 32 -31 -12 -288 -15
-346 -5 -47 9 -84 10 -92 3 -3 -3 -4 -16 -3 -29 1 -13 2 -74 3 -135 2 -130 -5
-123 102 -107 87 12 100 11 101 -13 2 -28 -32 -35 -126 -28 -36 3 -75 6 -88 6
-18 1 -21 4 -11 15 9 11 8 22 -7 49 l-18 35 -42 -41 -42 -41 -7 40 c-4 24 -2
49 4 61 6 11 8 27 4 37 -5 13 -3 16 10 11 10 -4 28 -1 42 5 19 8 28 8 40 -2
21 -17 26 -10 28 38 1 48 -6 60 -28 42 -12 -10 -21 -10 -40 -2 -14 6 -31 9
-40 6 -12 -5 -14 3 -13 39 2 34 6 46 18 45 44 -3 58 3 63 28 10 55 4 59 -99
59 -51 0 -94 2 -94 5 0 3 10 17 23 32 20 25 28 28 100 29 48 1 77 6 78 13 0 6
4 2 8 -8 8 -20 6 -94 -3 -123 -13 -41 18 -53 99 -37 54 10 368 6 398 -5 12 -5
35 -7 49 -4 24 5 25 7 17 36 -14 48 -11 164 4 170 6 2 8 8 4 13 -9 9 -122 12
-145 4 -8 -3 -17 4 -22 15 -7 19 -3 20 79 23 85 3 101 10 101 42 0 34 -17 41
-118 47 -74 4 -102 3 -102 -5 0 -8 -26 -12 -80 -12 -47 0 -80 4 -80 10 0 6
-18 10 -40 10 -22 0 -40 -5 -40 -11 0 -7 -21 -10 -60 -7 -54 3 -60 1 -65 -19
-3 -12 -2 -29 1 -37 8 -21 51 -31 68 -17 8 7 34 11 58 9 40 -3 43 -5 43 -31 1
-24 -2 -27 -20 -21 -11 4 -50 8 -88 8 -48 1 -67 5 -67 14 0 8 -10 13 -22 12
-13 -1 -38 -2 -56 -1 l-33 1 17 33 c9 17 23 40 32 50 19 21 15 25 -43 42 l-46
14 -11 -29z m488 -124 c-1 -21 -6 -24 -37 -22 -48 1 -47 29 1 37 19 3 36 7 36
8 1 0 1 -10 0 -23z m-150 -130 c-1 -33 -3 -35 -36 -33 -31 1 -35 4 -36 29 -1
24 3 27 35 31 20 2 36 4 37 5 0 1 0 -13 0 -32z m146 -6 c4 -27 2 -29 -31 -27
-33 1 -36 4 -37 32 0 29 2 30 32 27 26 -3 33 -9 36 -32z m133 30 c18 0 24 -7
27 -30 4 -29 4 -29 -36 -28 -39 2 -41 3 -41 35 0 24 4 32 13 28 8 -3 24 -5 37
-5z m-97 -227 c73 -4 102 -9 102 -18 0 -15 -159 -27 -245 -20 -27 3 -60 5 -72
6 -13 1 -23 8 -23 16 0 9 6 12 18 9 9 -3 24 -1 32 4 17 11 39 11 188 3z m0
-100 c73 -4 102 -9 102 -18 0 -15 -159 -27 -245 -20 -27 3 -60 5 -72 6 -13 1
-23 8 -23 16 0 9 6 12 18 9 9 -3 24 -1 32 4 17 11 39 11 188 3z"/>
</g>
</svg>
