<?xml version="1.0" standalone="no"?>
<!DOCTYPE svg PUBLIC "-//W3C//DTD SVG 20010904//EN"
 "http://www.w3.org/TR/2001/REC-SVG-20010904/DTD/svg10.dtd">
<svg version="1.0" xmlns="http://www.w3.org/2000/svg"
 width="101.000000pt" height="101.000000pt" viewBox="0 0 101.000000 101.000000"
 preserveAspectRatio="xMidYMid meet">
<metadata>
Created by potrace 1.16, written by Peter Selinger 2001-2019
</metadata>
<g transform="translate(0.000000,101.000000) scale(0.100000,-0.100000)"
fill="#000000" stroke="none">
<path d="M155 993 c-4 -10 -9 -29 -11 -43 -7 -39 -71 -169 -110 -222 l-35 -49
30 -40 c29 -40 30 -40 41 -19 8 16 14 19 19 11 5 -7 17 -13 28 -14 13 -1 21
-8 21 -22 1 -11 2 -31 4 -45 3 -23 0 -25 -42 -25 -50 0 -62 -13 -53 -58 5 -27
16 -32 64 -28 30 2 29 9 32 -130 2 -70 -1 -91 -15 -106 -17 -19 -16 -21 17
-53 30 -29 37 -32 48 -20 78 86 137 159 137 169 0 7 -7 26 -16 42 l-15 30 -38
-43 -38 -43 -7 42 c-5 24 -3 50 3 62 6 11 8 27 5 35 -4 12 -1 16 12 14 57 -5
84 2 84 22 0 11 5 20 10 20 6 0 10 -6 10 -14 0 -18 39 -27 63 -15 10 6 35 8
54 4 30 -5 33 -8 19 -18 -9 -7 -18 -25 -20 -40 -4 -42 -20 -53 -56 -40 -43 16
-72 6 -64 -21 4 -11 8 -32 10 -44 3 -32 7 -34 35 -24 13 5 35 12 50 15 23 6
25 4 26 -28 1 -39 -15 -57 -49 -54 -48 4 -61 0 -49 -15 10 -12 15 -32 20 -77
2 -16 135 12 146 31 11 18 32 11 66 -21 l33 -31 78 80 77 80 43 -55 c24 -31
48 -63 55 -71 11 -13 18 -10 52 19 37 32 52 59 33 59 -19 0 -133 125 -128 140
19 56 48 160 52 185 3 17 8 46 11 65 3 19 6 59 7 88 1 37 5 51 14 47 21 -8 40
5 47 32 13 52 3 58 -99 58 -80 0 -93 2 -86 15 4 8 11 33 14 55 4 22 13 50 22
62 19 31 13 38 -40 52 -62 15 -62 16 -58 -29 3 -28 -1 -47 -12 -59 -9 -10 -16
-29 -15 -42 1 -34 -9 -77 -30 -124 -18 -39 -19 -39 -25 -15 l-7 25 -142 0
-142 0 0 -97 c0 -87 2 -97 19 -102 11 -3 27 -1 37 4 9 6 65 8 123 7 112 -3
112 -4 108 45 -1 12 4 17 18 15 25 -4 38 -17 17 -17 -12 0 -15 -7 -12 -27 5
-33 38 -150 59 -212 16 -43 16 -43 -14 -81 -38 -47 -91 -95 -130 -115 l-29
-15 -6 34 c-4 19 -2 43 4 54 6 11 8 28 5 36 -4 10 -1 17 7 17 8 1 21 3 29 4 8
1 25 3 36 4 15 1 23 9 27 27 8 42 -2 63 -26 58 -71 -14 -79 -14 -75 -2 2 7 25
24 51 38 46 25 59 45 50 78 -4 17 -14 19 -114 15 -61 -1 -118 1 -128 7 -23 12
-61 2 -61 -16 0 -8 -4 -14 -10 -14 -5 0 -10 6 -10 14 0 10 -14 14 -52 12 -51
-1 -53 0 -50 24 2 14 3 34 4 45 0 18 8 21 46 23 45 2 62 13 62 42 0 32 -17 39
-108 46 -50 4 -92 9 -92 11 0 3 8 18 17 34 16 27 22 29 75 29 31 0 60 -4 63
-10 11 -18 23 -11 30 17 6 24 8 26 16 10 11 -19 69 -24 69 -6 0 9 35 10 129 5
125 -7 129 -7 136 13 11 36 -3 61 -34 61 -45 0 -91 12 -85 21 3 5 -3 34 -13
65 l-17 55 -36 -6 c-48 -9 -54 -17 -41 -58 23 -68 22 -74 -10 -69 -49 7 -97
-6 -105 -30 -4 -15 -8 -17 -14 -8 -5 8 -29 14 -59 14 -28 1 -51 4 -51 8 0 3
16 27 35 52 19 26 35 49 35 52 0 3 -15 11 -32 18 -64 26 -75 28 -83 9z m659
-311 c-2 -24 -6 -47 -9 -52 -3 -5 0 -20 7 -35 9 -21 9 -31 0 -46 -7 -10 -15
-36 -18 -56 -8 -50 -20 -62 -28 -26 -4 15 -9 42 -13 58 -3 17 -5 45 -5 64 2
30 0 33 -22 29 -23 -5 -24 -5 -9 31 9 20 19 45 23 56 6 15 17 20 42 20 l35 0
-3 -43z m-268 -29 c-3 -25 -7 -28 -37 -25 -19 1 -44 3 -55 3 -39 2 -23 33 21
40 74 11 74 11 71 -18z"/>
</g>
</svg>
