<?xml version="1.0" standalone="no"?>
<!DOCTYPE svg PUBLIC "-//W3C//DTD SVG 20010904//EN"
 "http://www.w3.org/TR/2001/REC-SVG-20010904/DTD/svg10.dtd">
<svg version="1.0" xmlns="http://www.w3.org/2000/svg"
 width="101.000000pt" height="101.000000pt" viewBox="0 0 101.000000 101.000000"
 preserveAspectRatio="xMidYMid meet">
<metadata>
Created by potrace 1.16, written by Peter Selinger 2001-2019
</metadata>
<g transform="translate(0.000000,101.000000) scale(0.100000,-0.100000)"
fill="#000000" stroke="none">
<path d="M165 953 c-31 -82 -66 -146 -105 -194 l-38 -46 21 -34 c11 -19 22
-36 24 -38 1 -2 10 2 19 10 13 11 15 11 14 -2 -5 -29 1 -37 24 -35 18 2 24 -2
25 -18 0 -12 2 -34 3 -51 3 -30 3 -30 -47 -30 -55 0 -67 -11 -58 -58 6 -28 15
-32 72 -28 28 2 33 0 27 -14 -3 -9 -1 -25 4 -36 16 -30 1 -116 -26 -149 -23
-27 -23 -28 -6 -69 16 -38 36 -53 44 -33 3 9 97 95 142 129 28 22 28 24 16 68
-7 25 -14 45 -15 45 -2 0 -17 -13 -35 -30 -38 -35 -55 -30 -45 14 3 17 6 41 7
53 0 14 6 22 17 21 45 -3 59 3 64 29 8 44 -3 58 -48 58 -38 0 -40 1 -37 30 1
17 3 40 3 52 1 19 6 21 34 18 38 -5 51 14 40 58 -6 23 -9 24 -89 23 l-83 -1 9
28 c13 36 17 38 99 41 71 2 89 11 89 46 0 29 -19 44 -64 49 l-45 6 30 43 c16
23 29 45 29 47 0 6 -48 30 -76 39 -18 6 -24 0 -39 -41z"/>
<path d="M585 821 l0 -126 51 -3 c46 -3 52 -6 57 -28 l4 -25 -68 7 c-68 6 -69
6 -79 -20 -7 -19 -7 -33 0 -46 6 -11 9 -68 6 -139 -5 -131 -3 -135 58 -124 21
4 25 10 20 27 -4 19 -1 22 29 23 29 1 35 -3 35 -21 0 -11 3 -32 7 -46 3 -14 1
-38 -4 -54 -10 -24 -15 -27 -39 -21 -15 3 -36 6 -47 6 -11 -1 -40 -2 -63 -2
-42 0 -44 -2 -37 -26 3 -14 8 -38 11 -53 7 -31 2 -31 184 -4 19 3 44 7 55 8
11 1 32 6 48 10 32 9 57 -6 57 -35 0 -20 10 -23 59 -13 30 6 32 9 25 38 -3 17
-20 62 -37 99 l-30 68 -35 -6 c-46 -7 -48 -10 -33 -41 14 -31 14 -29 -21 -38
-25 -6 -28 -3 -33 28 -4 19 -2 43 4 54 6 11 8 28 4 38 -5 13 -3 16 10 11 8 -3
29 -1 46 6 24 9 36 9 51 -1 33 -20 53 -16 43 11 -7 18 -8 131 -2 225 0 13 -2
26 -5 29 -3 4 -36 7 -74 7 -65 1 -67 2 -67 27 0 25 2 26 37 21 20 -2 48 -2 62
2 23 6 24 9 16 32 -13 32 -13 101 0 109 5 3 8 29 8 58 l-2 52 -155 1 -156 2 0
-127z m220 -3 l0 -48 -71 3 -70 2 0 45 1 45 70 0 70 0 0 -47z m-106 -282 c0
-11 2 -37 3 -56 3 -35 3 -35 -37 -35 -40 0 -40 0 -37 35 1 19 3 44 3 56 1 16
8 20 34 21 27 1 33 -3 34 -21z m140 0 c0 -11 2 -37 3 -56 3 -35 3 -35 -37 -35
-40 0 -40 0 -37 35 1 19 3 44 3 56 1 16 8 20 34 21 27 1 33 -3 34 -21z"/>
<path d="M325 921 c-17 -55 18 -87 88 -79 l32 3 2 -59 2 -58 -47 6 c-26 3 -51
2 -57 -2 -6 -4 -11 -68 -13 -143 l-3 -136 47 4 c38 3 45 1 40 -12 -3 -8 0 -26
6 -40 8 -19 7 -31 -6 -59 -9 -19 -13 -41 -10 -50 3 -8 0 -31 -6 -51 -11 -32
-15 -36 -43 -34 -66 4 -65 5 -48 -51 16 -50 16 -50 54 -46 50 6 99 35 116 71
8 16 15 70 17 124 2 53 6 114 9 136 13 80 2 113 -33 100 -57 -21 -59 -20 -58
39 l1 56 45 0 c25 0 50 4 57 8 8 5 11 50 11 143 l0 136 -60 7 c-107 11 -136 8
-143 -13z"/>
</g>
</svg>
