<?xml version="1.0" standalone="no"?>
<!DOCTYPE svg PUBLIC "-//W3C//DTD SVG 20010904//EN"
 "http://www.w3.org/TR/2001/REC-SVG-20010904/DTD/svg10.dtd">
<svg version="1.0" xmlns="http://www.w3.org/2000/svg"
 width="101.000000pt" height="102.000000pt" viewBox="0 0 101.000000 102.000000"
 preserveAspectRatio="xMidYMid meet">
<metadata>
Created by potrace 1.16, written by Peter Selinger 2001-2019
</metadata>
<g transform="translate(0.000000,102.000000) scale(0.100000,-0.100000)"
fill="#000000" stroke="none">
<path d="M171 973 c-18 -71 -84 -201 -131 -257 l-41 -49 33 -28 c36 -31 44
-34 53 -19 4 7 13 6 26 -1 11 -6 26 -8 34 -6 8 4 13 -3 13 -16 1 -12 4 -36 7
-53 9 -42 -15 -62 -56 -47 -55 21 -83 -3 -72 -61 5 -26 7 -26 65 -21 53 5 60
4 54 -10 -3 -9 -1 -25 4 -35 17 -32 0 -131 -26 -157 l-23 -23 25 -45 c14 -25
28 -45 31 -45 3 0 45 34 95 76 50 41 92 73 95 70 3 -3 -7 -26 -22 -51 -15 -26
-25 -47 -23 -48 1 -2 17 -7 33 -13 17 -7 37 -15 46 -18 13 -6 22 10 47 81 17
48 34 95 37 104 5 13 -2 20 -29 29 -48 16 -57 11 -71 -36 l-12 -39 -13 45 c-8
25 -15 46 -16 48 -1 2 -21 -15 -45 -37 l-44 -41 -9 36 c-5 23 -5 44 3 60 6 13
8 31 4 41 -5 12 -2 15 10 10 10 -4 29 -1 43 5 20 9 30 9 46 -1 24 -15 25 -14
29 24 5 61 4 62 -63 61 l-63 -1 3 35 c1 19 3 45 3 58 1 23 12 26 72 22 26 -1
32 6 28 36 -2 15 40 23 149 29 155 9 389 4 408 -8 27 -18 48 1 47 42 l0 39
-50 6 c-27 3 -66 4 -87 3 -37 -2 -38 2 -10 35 7 9 11 22 7 27 -6 11 30 16 82
12 25 -2 38 27 29 64 -5 21 -9 23 -38 14 -43 -12 -88 -12 -88 1 0 6 -22 10
-49 10 l-49 0 -11 45 -11 46 -42 -5 c-55 -7 -61 -16 -43 -58 13 -32 13 -37 -1
-42 -24 -9 -92 -7 -98 3 -4 5 -26 9 -51 9 -34 0 -46 -4 -50 -18 -8 -25 5 -71
19 -69 26 3 99 -4 84 -8 -22 -6 -23 -17 -2 -48 l16 -24 -64 6 c-78 7 -112 -7
-105 -43 l4 -23 -96 6 c-53 3 -98 7 -99 9 -2 1 8 19 22 40 l25 37 90 -1 c99 0
109 6 95 62 -7 31 -36 41 -100 33 -24 -2 -44 -3 -44 -1 0 3 11 22 25 44 14 22
25 42 25 45 0 6 -47 27 -86 39 -19 6 -23 1 -33 -41z m535 -143 c-12 -61 -16
-65 -58 -65 -36 0 -42 4 -59 35 -10 19 -18 37 -19 40 0 3 31 5 70 5 57 1 69
-2 66 -15z"/>
<path d="M418 652 c-15 -6 -16 -25 -15 -154 2 -135 3 -147 21 -152 11 -3 26
-1 35 3 21 11 145 12 173 2 21 -8 21 -8 -5 -14 l-26 -7 21 -53 c12 -28 25 -56
29 -61 9 -10 79 12 79 25 0 5 -12 33 -26 61 -21 41 -23 50 -9 44 9 -3 25 -1
36 5 12 6 37 8 61 4 l41 -7 -32 -20 c-32 -21 -32 -21 -13 -42 11 -11 37 -48
57 -81 21 -33 39 -61 41 -63 4 -5 84 50 84 58 0 4 -27 39 -60 78 -39 46 -55
72 -45 72 13 0 16 15 15 88 0 48 1 113 2 145 2 43 -1 60 -12 67 -22 14 -68 12
-124 -5 -56 -17 -103 -19 -108 -6 -4 12 -197 23 -220 13z m323 -68 c42 -5 47
-8 45 -29 -1 -21 -7 -25 -51 -30 -27 -3 -81 -3 -120 0 -38 3 -79 6 -90 6 -14
1 -20 9 -21 26 -2 18 2 22 15 19 9 -3 22 -2 30 3 16 10 127 13 192 5z m0 -110
c42 -5 47 -8 45 -29 -1 -21 -7 -25 -51 -30 -27 -3 -81 -3 -120 0 -38 3 -79 6
-90 6 -14 1 -20 9 -21 26 -2 18 2 22 15 19 9 -3 22 -2 30 3 16 10 127 13 192
5z"/>
<path d="M509 333 c-22 -5 -31 -41 -18 -65 6 -11 8 -37 4 -59 -9 -50 2 -97 24
-109 21 -11 80 -23 101 -21 8 1 44 3 80 5 36 1 75 8 86 14 19 10 54 76 54 100
0 8 -81 65 -85 60 -1 -2 -7 -21 -13 -43 -12 -44 -19 -47 -99 -48 -58 -1 -73
15 -68 69 2 24 6 53 10 63 3 11 2 21 -2 24 -15 8 -58 14 -74 10z"/>
</g>
</svg>
