<?xml version="1.0" standalone="no"?>
<!DOCTYPE svg PUBLIC "-//W3C//DTD SVG 20010904//EN"
 "http://www.w3.org/TR/2001/REC-SVG-20010904/DTD/svg10.dtd">
<svg version="1.0" xmlns="http://www.w3.org/2000/svg"
 width="101.000000pt" height="101.000000pt" viewBox="0 0 101.000000 101.000000"
 preserveAspectRatio="xMidYMid meet">
<metadata>
Created by potrace 1.16, written by Peter Selinger 2001-2019
</metadata>
<g transform="translate(0.000000,101.000000) scale(0.100000,-0.100000)"
fill="#000000" stroke="none">
<path d="M188 989 c-21 -11 -38 -22 -38 -24 0 -3 15 -24 33 -48 18 -24 39 -58
46 -75 16 -38 20 -38 72 -12 36 19 38 23 28 43 -19 34 -92 137 -98 137 -4 -1
-23 -10 -43 -21z"/>
<path d="M378 934 c-18 -6 -32 -47 -23 -73 4 -14 17 -18 65 -19 33 0 62 3 65
8 8 13 167 11 182 -2 7 -5 37 -8 66 -6 47 3 53 1 49 -15 -2 -9 0 -23 6 -30 14
-16 14 -174 1 -182 -12 -8 -12 -142 1 -150 13 -8 13 -52 -1 -60 -6 -5 -9 -42
-7 -104 l3 -96 -32 3 c-49 5 -75 -6 -68 -29 5 -16 11 -48 14 -81 1 -3 14 -9
30 -13 44 -10 128 36 147 80 16 40 20 225 4 225 -5 0 -10 11 -10 25 0 14 5 25
10 25 6 0 10 30 10 70 0 40 -4 70 -10 70 -6 0 -10 33 -10 80 0 47 4 80 10 80
6 0 10 18 10 40 0 22 -5 40 -11 40 -7 0 -10 21 -7 59 l3 59 -35 -7 c-19 -3
-59 -5 -87 -4 -55 2 -126 3 -235 1 -35 0 -76 2 -93 5 -16 3 -37 3 -47 1z"/>
<path d="M117 813 c-10 -17 -7 -262 3 -268 13 -8 13 -52 0 -60 -6 -4 -9 -80
-7 -196 2 -188 2 -190 25 -196 12 -3 34 -2 48 1 24 6 25 9 18 44 -5 20 -7 61
-6 90 1 28 2 106 3 172 0 66 0 137 0 158 0 87 7 208 13 223 11 25 -83 56 -97
32z"/>
<path d="M298 753 c-23 -6 -33 -45 -18 -72 8 -17 20 -21 55 -21 25 0 45 5 45
10 0 6 11 10 25 10 14 0 25 -4 25 -10 0 -6 30 -10 70 -10 40 0 70 4 70 10 0 6
11 10 25 10 14 0 25 -4 25 -10 0 -17 97 -12 114 6 17 16 21 52 8 69 -7 10
-409 17 -444 8z"/>
<path d="M328 583 c-23 -6 -33 -45 -18 -72 11 -22 70 -31 70 -11 0 6 32 10 75
10 49 0 75 -4 75 -11 0 -18 169 -6 181 12 11 18 11 40 0 57 -9 15 -17 15 -211
10 -69 -2 -132 -1 -140 3 -8 3 -23 4 -32 2z"/>
<path d="M410 389 c0 -6 -29 -9 -82 -8 -78 2 -83 1 -86 -19 -2 -11 2 -30 8
-41 10 -20 19 -21 194 -21 220 0 303 7 310 27 3 8 3 26 0 40 l-7 25 -98 -7
c-69 -4 -99 -3 -99 4 0 7 -27 11 -70 11 -43 0 -70 -4 -70 -11z"/>
</g>
</svg>
