<?xml version="1.0" standalone="no"?>
<!DOCTYPE svg PUBLIC "-//W3C//DTD SVG 20010904//EN"
 "http://www.w3.org/TR/2001/REC-SVG-20010904/DTD/svg10.dtd">
<svg version="1.0" xmlns="http://www.w3.org/2000/svg"
 width="101.000000pt" height="101.000000pt" viewBox="0 0 101.000000 101.000000"
 preserveAspectRatio="xMidYMid meet">
<metadata>
Created by potrace 1.16, written by Peter Selinger 2001-2019
</metadata>
<g transform="translate(0.000000,101.000000) scale(0.100000,-0.100000)"
fill="#000000" stroke="none">
<path d="M213 983 c-32 -16 -42 -36 -24 -47 5 -3 26 -32 47 -63 20 -32 38 -59
40 -61 1 -2 23 10 48 26 l47 28 -52 67 c-28 37 -56 67 -63 66 -6 0 -26 -8 -43
-16z"/>
<path d="M415 930 c-4 -16 -4 -39 0 -50 7 -23 50 -37 68 -22 16 14 174 14 182
1 4 -5 33 -9 66 -9 l59 0 0 -40 c0 -22 5 -40 10 -40 6 0 10 -16 10 -35 0 -19
-4 -35 -10 -35 -6 0 -10 -30 -10 -70 0 -40 4 -70 10 -70 6 0 10 -11 10 -25 0
-14 -5 -25 -12 -25 -8 0 -9 -38 -5 -145 6 -131 5 -145 -11 -153 -9 -5 -28 -6
-42 -2 -41 10 -61 1 -49 -22 6 -10 12 -31 14 -46 1 -15 3 -31 4 -35 1 -10 65
-2 116 15 59 19 74 56 74 184 0 57 -4 106 -9 109 -13 8 -13 52 0 60 13 8 13
142 1 150 -12 7 -13 172 -2 179 5 3 9 39 9 79 l0 74 -54 2 c-31 1 -54 -3 -54
-9 0 -6 -32 -10 -80 -10 -47 0 -80 4 -80 10 0 6 -18 10 -40 10 -22 0 -40 -4
-40 -10 0 -5 -25 -10 -55 -10 -30 0 -55 5 -55 10 0 23 -19 8 -25 -20z"/>
<path d="M458 819 l-27 -10 19 -50 c11 -27 20 -51 20 -52 0 -1 -37 -1 -82 0
-135 3 -160 -10 -144 -73 6 -21 12 -23 54 -23 69 2 68 2 37 -31 -33 -35 -37
-30 69 -100 l78 -52 -28 -24 c-36 -30 -140 -81 -178 -88 -45 -8 -47 -18 -10
-61 l34 -40 62 32 c35 18 86 50 113 71 78 59 78 59 131 -8 26 -33 49 -60 51
-60 10 0 73 56 73 65 0 6 -30 36 -66 69 -47 42 -63 63 -58 75 3 9 17 45 30 81
20 57 27 66 53 71 16 3 34 2 39 -3 12 -12 40 0 47 22 3 10 3 30 -1 44 -5 23
-12 26 -53 28 -96 3 -177 7 -191 8 -9 1 -6 5 8 10 27 11 27 9 0 65 -23 47 -33
51 -80 34z m101 -198 c11 -7 11 -17 -4 -60 -9 -28 -20 -53 -23 -55 -4 -2 -37
19 -74 46 -62 46 -66 52 -50 64 19 15 129 19 151 5z"/>
<path d="M121 801 c-8 -5 -14 -24 -13 -43 0 -18 1 -61 1 -95 0 -33 5 -64 10
-68 13 -7 13 -153 0 -161 -5 -3 -9 -53 -8 -112 0 -59 -2 -133 -5 -164 -4 -55
-3 -58 20 -64 13 -3 40 -3 59 0 l34 7 -5 67 c-2 37 -4 97 -3 135 0 41 -4 67
-10 67 -6 0 -11 11 -11 25 0 14 5 25 10 25 6 0 10 30 10 70 0 40 -4 70 -10 70
-12 0 -13 47 -1 52 5 2 11 37 14 78 2 41 7 82 11 91 5 12 1 18 -16 23 -33 8
-71 7 -87 -3z"/>
</g>
</svg>
