<?xml version="1.0" standalone="no"?>
<!DOCTYPE svg PUBLIC "-//W3C//DTD SVG 20010904//EN"
 "http://www.w3.org/TR/2001/REC-SVG-20010904/DTD/svg10.dtd">
<svg version="1.0" xmlns="http://www.w3.org/2000/svg"
 width="101.000000pt" height="101.000000pt" viewBox="0 0 101.000000 101.000000"
 preserveAspectRatio="xMidYMid meet">
<metadata>
Created by potrace 1.16, written by Peter Selinger 2001-2019
</metadata>
<g transform="translate(0.000000,101.000000) scale(0.100000,-0.100000)"
fill="#000000" stroke="none">
<path d="M208 979 c-21 -11 -38 -22 -38 -25 0 -3 13 -24 29 -47 15 -23 36 -57
45 -75 16 -32 17 -32 44 -15 15 9 37 22 49 30 l23 13 -51 70 c-29 39 -54 70
-58 70 -3 -1 -23 -10 -43 -21z"/>
<path d="M385 920 c-9 -41 2 -69 31 -76 30 -8 94 4 94 16 0 6 16 10 35 10 20
0 35 -5 35 -12 0 -8 29 -9 108 -4 l107 6 2 -82 c2 -89 2 -95 3 -280 0 -68 1
-148 2 -178 3 -66 -7 -106 -27 -114 -22 -8 -76 5 -68 16 3 6 7 40 9 77 2 36 5
80 8 96 18 96 18 102 0 119 -13 13 -28 17 -55 13 -26 -3 -36 -1 -34 7 3 6 7
40 10 76 8 93 12 127 18 137 3 5 2 15 -2 22 -7 10 -53 14 -197 15 l-189 1 -3
-27 c-5 -42 14 -68 48 -68 17 0 30 5 30 12 0 8 29 9 106 5 59 -3 109 -8 111
-11 3 -3 -2 -21 -11 -40 -9 -19 -16 -48 -16 -63 0 -73 -1 -75 -40 -69 -19 3
-45 6 -56 6 -17 0 -23 8 -26 32 -3 18 -1 46 5 61 11 32 8 37 -25 42 -12 2 -33
7 -45 10 -33 10 -42 -19 -40 -133 1 -91 4 -101 21 -106 11 -3 27 -1 36 4 19
10 68 11 187 4 l81 -6 -5 -46 c-2 -26 -5 -58 -5 -72 0 -46 -15 -60 -63 -58
-54 3 -61 -3 -40 -36 9 -14 14 -29 12 -34 -3 -4 -2 -14 3 -22 12 -20 72 -16
121 8 l40 20 10 -25 c5 -14 7 -28 5 -31 -3 -2 -1 -13 4 -23 8 -13 19 -17 47
-14 97 9 126 46 117 147 -3 35 -5 104 -4 153 4 384 6 472 13 483 5 7 6 23 3
36 -5 20 -11 22 -53 19 -197 -12 -285 -14 -296 -5 -7 5 -44 10 -84 10 -71 1
-72 0 -78 -28z"/>
<path d="M105 789 c-4 -10 -3 -29 1 -41 4 -13 9 -70 10 -128 2 -58 6 -130 9
-160 4 -30 2 -95 -4 -145 -6 -49 -13 -113 -15 -142 -4 -58 2 -63 67 -55 36 4
44 14 38 52 -4 26 0 461 5 534 2 37 6 72 9 77 9 13 -27 27 -72 27 -33 1 -43
-3 -48 -19z"/>
<path d="M507 384 c-37 -13 -97 -13 -213 1 -45 5 -52 3 -57 -14 -8 -31 4 -71
22 -73 18 -1 32 0 81 8 50 9 132 6 162 -5 52 -19 85 14 71 69 -7 26 -22 29
-66 14z"/>
</g>
</svg>
