<?xml version="1.0" standalone="no"?>
<!DOCTYPE svg PUBLIC "-//W3C//DTD SVG 20010904//EN"
 "http://www.w3.org/TR/2001/REC-SVG-20010904/DTD/svg10.dtd">
<svg version="1.0" xmlns="http://www.w3.org/2000/svg"
 width="101.000000pt" height="101.000000pt" viewBox="0 0 101.000000 101.000000"
 preserveAspectRatio="xMidYMid meet">
<metadata>
Created by potrace 1.16, written by Peter Selinger 2001-2019
</metadata>
<g transform="translate(0.000000,101.000000) scale(0.100000,-0.100000)"
fill="#000000" stroke="none">
<path d="M228 979 c-21 -11 -38 -21 -38 -24 0 -2 18 -32 40 -66 21 -33 42 -70
45 -80 6 -18 9 -18 56 8 27 16 49 32 49 36 0 19 -96 148 -109 147 -3 -1 -23
-10 -43 -21z"/>
<path d="M426 938 c-16 -61 4 -86 69 -86 25 0 48 4 51 9 6 10 78 11 180 2 54
-4 61 -7 57 -24 -3 -11 -1 -25 5 -32 14 -16 14 -174 1 -182 -12 -8 -12 -142 1
-150 14 -8 13 -52 -1 -61 -8 -4 -9 -35 -4 -100 5 -75 4 -94 -7 -95 -7 0 -32
-1 -55 -1 -45 0 -50 -6 -32 -39 6 -11 12 -30 14 -41 3 -11 7 -23 10 -26 9 -9
66 -5 112 7 34 9 44 17 52 44 10 30 14 191 11 412 -1 55 1 147 4 205 4 58 4
120 1 137 l-6 33 -119 -7 c-88 -4 -120 -3 -120 5 0 7 -16 12 -40 12 -22 0 -40
-4 -40 -10 0 -5 -25 -10 -55 -10 -30 0 -55 5 -55 10 0 20 -28 9 -34 -12z"/>
<path d="M523 823 c-3 -7 -3 -40 1 -72 6 -49 4 -60 -9 -65 -26 -10 -93 -7
-100 4 -3 5 -34 9 -68 8 -35 -1 -67 1 -73 4 -31 20 -57 -61 -31 -97 14 -18 19
-19 121 -6 59 7 109 11 112 9 8 -9 -93 -133 -137 -169 -53 -42 -118 -83 -124
-77 -10 10 -2 389 8 405 5 7 -2 22 -14 34 -17 17 -29 20 -57 15 -19 -3 -39
-11 -43 -18 -11 -18 -10 -216 1 -223 12 -7 12 -153 0 -160 -12 -7 -12 -153 0
-160 7 -4 8 -30 4 -69 -7 -70 0 -78 63 -69 31 5 32 6 38 80 4 41 5 92 2 114
-6 44 -4 44 54 -8 l26 -24 75 70 c41 39 92 95 113 126 21 30 39 55 39 55 4 0
-4 -243 -8 -247 -3 -4 -28 -5 -56 -4 -27 1 -50 0 -50 -2 0 -1 9 -20 20 -42 11
-22 20 -45 20 -51 0 -24 48 -24 103 1 73 32 78 47 74 255 l-2 165 71 -2 70 -2
0 47 c-1 52 -11 65 -38 51 -9 -5 -36 -6 -58 -3 l-41 7 2 59 c2 42 -2 62 -11
68 -23 14 -91 9 -97 -7z"/>
</g>
</svg>
