<?xml version="1.0" standalone="no"?>
<!DOCTYPE svg PUBLIC "-//W3C//DTD SVG 20010904//EN"
 "http://www.w3.org/TR/2001/REC-SVG-20010904/DTD/svg10.dtd">
<svg version="1.0" xmlns="http://www.w3.org/2000/svg"
 width="101.000000pt" height="101.000000pt" viewBox="0 0 101.000000 101.000000"
 preserveAspectRatio="xMidYMid meet">
<metadata>
Created by potrace 1.16, written by Peter Selinger 2001-2019
</metadata>
<g transform="translate(0.000000,101.000000) scale(0.100000,-0.100000)"
fill="#000000" stroke="none">
<path d="M203 973 c-40 -20 -41 -32 -7 -64 14 -13 35 -39 46 -59 12 -19 23
-37 24 -38 1 -2 23 8 48 23 28 16 43 31 39 38 -18 32 -97 117 -107 116 -6 0
-26 -8 -43 -16z"/>
<path d="M419 954 c-17 -5 -29 -33 -29 -66 0 -25 28 -48 58 -49 26 0 26 -1 5
-9 -27 -11 -27 -8 -8 -53 8 -20 15 -39 15 -43 0 -3 -42 -3 -93 1 -80 6 -96 5
-110 -10 -17 -17 -21 -33 -12 -57 4 -9 21 -12 61 -10 31 2 75 1 98 -2 41 -6
42 -8 42 -41 l-1 -34 -70 5 c-38 3 -76 1 -84 -5 -19 -12 -17 -83 3 -154 6 -18
3 -38 -7 -60 -19 -41 -12 -103 13 -110 10 -2 29 -3 42 0 23 4 24 8 25 101 2
150 0 142 39 142 32 0 34 -2 34 -35 0 -19 5 -35 10 -35 15 0 12 -67 -2 -74
-10 -5 -10 -7 0 -12 15 -7 17 -146 2 -174 -12 -22 9 -30 58 -22 32 4 32 5 31
61 -1 90 0 169 4 246 l2 50 40 0 40 0 3 -81 3 -81 -31 0 c-16 0 -32 -2 -35 -5
-3 -3 0 -26 7 -51 12 -45 13 -47 44 -43 18 3 45 10 61 18 27 13 28 16 29 93 1
44 5 96 9 115 9 45 10 98 3 105 -3 4 -43 7 -90 8 l-84 2 4 26 c4 26 6 26 105
32 106 7 119 13 115 57 -3 21 -9 26 -50 32 -26 3 -72 5 -102 4 -30 -1 -53 1
-51 4 2 4 -7 29 -20 56 l-24 49 40 3 c21 2 39 7 39 13 0 5 16 9 35 9 19 0 35
-5 35 -11 0 -7 22 -10 63 -7 l62 3 2 -80 c2 -98 2 -124 2 -272 -1 -65 2 -135
6 -156 8 -43 -11 -126 -31 -134 -7 -2 -21 0 -32 6 -10 5 -28 8 -39 5 -20 -5
-20 -6 -2 -42 11 -20 19 -44 19 -54 0 -16 20 -24 45 -18 6 2 22 4 37 5 41 3
74 30 82 67 13 62 19 305 7 312 -14 9 -14 53 -1 61 13 8 13 142 1 150 -13 8
-13 166 1 182 5 7 8 23 5 35 -6 21 -11 23 -77 21 -40 -1 -74 -4 -78 -7 -9 -10
-90 -7 -97 4 -3 5 -29 9 -58 8 -29 -1 -74 1 -102 5 -27 3 -57 3 -66 1z"/>
<path d="M128 813 c-19 -5 -31 -30 -21 -46 4 -6 8 -70 10 -142 1 -71 3 -146 3
-165 1 -19 -2 -60 -5 -90 -3 -30 0 -71 6 -92 9 -29 8 -45 -4 -81 -25 -75 -8
-100 62 -89 l33 5 -7 142 c-5 98 -4 144 3 149 13 8 14 114 1 122 -12 7 -11 51
1 59 6 4 10 42 9 88 0 45 3 92 6 105 4 12 3 22 -1 23 -5 0 -16 2 -24 4 -44 11
-56 13 -72 8z"/>
</g>
</svg>
