<?xml version="1.0" standalone="no"?>
<!DOCTYPE svg PUBLIC "-//W3C//DTD SVG 20010904//EN"
 "http://www.w3.org/TR/2001/REC-SVG-20010904/DTD/svg10.dtd">
<svg version="1.0" xmlns="http://www.w3.org/2000/svg"
 width="101.000000pt" height="101.000000pt" viewBox="0 0 101.000000 101.000000"
 preserveAspectRatio="xMidYMid meet">
<metadata>
Created by potrace 1.16, written by Peter Selinger 2001-2019
</metadata>
<g transform="translate(0.000000,101.000000) scale(0.100000,-0.100000)"
fill="#000000" stroke="none">
<path d="M193 980 c-18 -11 -33 -22 -33 -25 0 -4 15 -26 33 -50 17 -23 37 -51
43 -61 10 -18 12 -18 53 1 23 10 44 22 46 26 7 10 -83 129 -97 129 -7 0 -28
-9 -45 -20z"/>
<path d="M409 964 c-16 -5 -29 -32 -29 -61 0 -24 30 -41 75 -41 25 0 47 4 50
9 8 12 167 10 182 -3 7 -5 34 -8 61 -6 43 3 48 1 44 -15 -2 -9 0 -23 6 -30 14
-16 14 -174 1 -182 -12 -8 -12 -142 1 -150 14 -8 13 -52 -1 -61 -8 -4 -9 -33
-5 -93 8 -101 0 -120 -56 -124 -46 -4 -53 -10 -39 -35 6 -11 9 -27 6 -34 -8
-21 10 -40 36 -40 87 1 137 32 144 89 13 110 16 233 6 233 -6 0 -11 11 -11 25
0 14 5 25 10 25 6 0 10 30 10 70 0 40 -4 70 -10 70 -6 0 -10 33 -10 80 0 47 4
80 10 80 6 0 10 18 10 40 0 22 -5 40 -11 40 -7 0 -10 21 -7 58 l3 57 -58 -9
c-40 -7 -67 -6 -90 1 -17 7 -54 9 -82 7 -68 -7 -164 -8 -200 -1 -16 3 -37 3
-46 1z"/>
<path d="M537 853 c-2 -4 -4 -38 -3 -74 l1 -65 -47 0 c-53 1 -54 0 -63 -35
-10 -41 17 -61 71 -53 47 7 56 -4 35 -44 -5 -9 -19 -37 -30 -62 -11 -25 -40
-65 -64 -88 l-43 -42 2 107 c3 125 8 120 -108 122 -36 1 -73 4 -82 7 -17 6
-22 50 -7 56 4 2 10 29 13 61 4 50 2 59 -15 68 -25 14 -83 3 -91 -17 -10 -25
-7 -102 4 -109 11 -7 12 -153 0 -160 -12 -7 -12 -153 0 -160 13 -8 13 -52 1
-60 -6 -3 -9 -46 -8 -95 2 -98 3 -100 70 -92 31 3 37 8 32 21 -14 31 -18 201
-6 201 7 0 11 19 11 50 0 28 -4 50 -10 50 -5 0 -10 11 -10 25 0 14 5 25 10 25
6 0 10 6 10 14 0 10 15 15 48 18 l47 3 0 -80 0 -79 -38 -22 c-60 -33 -63 -39
-36 -73 13 -16 28 -30 34 -30 5 -1 24 14 42 31 29 28 36 31 51 20 19 -14 82
-44 97 -46 6 -1 15 -5 21 -9 7 -4 30 -6 51 -5 22 0 45 -2 52 -6 6 -4 45 -5 85
-1 l74 7 16 42 c9 23 16 45 16 49 0 4 -21 5 -47 2 -27 -3 -57 -6 -68 -7 -11
-1 -58 -1 -103 0 l-84 2 35 48 c20 26 46 69 60 96 l24 48 30 -39 c17 -21 38
-54 48 -73 10 -19 19 -36 20 -38 1 -1 21 8 44 21 l42 24 -80 99 c-45 54 -81
102 -81 107 0 4 14 7 30 7 17 0 30 5 30 11 0 8 15 10 45 7 38 -5 45 -3 51 14
3 11 3 30 0 43 -6 22 -10 23 -73 22 l-68 -2 1 46 c1 26 5 52 9 59 9 15 1 22
-27 26 -13 2 -33 6 -44 9 -12 4 -24 3 -27 -2z m-81 -514 c4 -8 -1 -9 -17 -4
-29 9 -49 24 -49 36 0 11 56 -16 66 -32z"/>
<path d="M285 788 c-16 -6 -31 -12 -33 -13 -1 -1 10 -27 25 -58 29 -60 27 -59
91 -36 l23 9 -28 52 c-31 58 -36 61 -78 46z"/>
</g>
</svg>
