<?xml version="1.0" standalone="no"?>
<!DOCTYPE svg PUBLIC "-//W3C//DTD SVG 20010904//EN"
 "http://www.w3.org/TR/2001/REC-SVG-20010904/DTD/svg10.dtd">
<svg version="1.0" xmlns="http://www.w3.org/2000/svg"
 width="101.000000pt" height="101.000000pt" viewBox="0 0 101.000000 101.000000"
 preserveAspectRatio="xMidYMid meet">
<metadata>
Created by potrace 1.16, written by Peter Selinger 2001-2019
</metadata>
<g transform="translate(0.000000,101.000000) scale(0.100000,-0.100000)"
fill="#000000" stroke="none">
<path d="M199 988 l-37 -21 42 -57 c22 -32 46 -65 51 -75 12 -20 36 -16 74 14
l25 19 -32 48 c-40 61 -68 94 -79 94 -4 0 -24 -10 -44 -22z"/>
<path d="M406 934 c-11 -43 4 -70 36 -65 4 0 0 -19 -8 -43 l-15 -43 -88 4
c-87 3 -89 3 -95 -21 -13 -52 16 -72 95 -64 l42 4 -44 -39 c-51 -46 -111 -78
-125 -69 -11 8 -10 152 1 194 8 30 -4 37 -71 37 l-42 0 4 -47 c2 -26 4 -84 4
-129 -1 -45 4 -84 10 -88 12 -8 13 -52 1 -59 -12 -8 -13 -114 -1 -121 16 -10
12 -129 -5 -169 -12 -27 -13 -41 -5 -57 6 -11 8 -28 5 -38 -7 -22 16 -30 62
-24 l31 5 -2 234 c-1 221 0 234 16 214 9 -11 18 -26 21 -33 4 -9 7 -9 18 1 7
6 15 12 19 12 8 0 5 -212 -3 -230 -12 -26 9 -44 49 -43 38 1 57 17 49 43 -4
12 4 16 33 17 l38 2 2 -45 c2 -56 6 -63 48 -80 25 -11 40 -12 54 -4 12 6 41 8
70 4 61 -8 100 6 123 45 21 36 21 38 -3 44 -38 10 -61 108 -48 209 4 34 13 42
34 30 13 -7 23 -2 46 24 17 19 35 31 44 27 16 -6 19 -53 3 -53 -7 0 -9 -50 -7
-154 2 -85 0 -158 -5 -162 -4 -4 -26 -9 -48 -10 -22 -1 -42 -4 -45 -7 -2 -2 2
-17 11 -33 8 -16 15 -37 15 -46 0 -34 137 0 158 39 10 18 15 197 12 428 0 55
1 165 4 243 l4 144 -26 -6 c-61 -13 -242 -19 -242 -7 0 6 -17 11 -40 11 -22 0
-40 -4 -40 -10 0 -5 -25 -10 -55 -10 -30 0 -55 5 -55 10 0 23 -38 9 -44 -16z
m299 -65 c4 -5 26 -9 51 -9 l44 0 0 -40 c0 -22 5 -40 10 -40 6 0 10 -16 10
-35 0 -19 -4 -35 -10 -35 -6 0 -10 -26 -10 -59 l0 -60 -31 9 c-41 12 -109 53
-136 82 l-22 23 58 -3 c67 -3 94 14 89 56 l-3 25 -122 1 c-122 1 -126 2 -96
38 13 14 12 17 -3 26 -9 5 -14 14 -10 20 8 14 173 15 181 1z m-148 -205 c14
-22 34 -48 44 -59 17 -20 17 -20 -30 -20 l-48 0 7 31 c6 28 4 33 -17 43 -13 6
-35 11 -49 11 -27 0 -44 -28 -24 -40 6 -4 10 -15 8 -25 -2 -14 -14 -18 -49
-19 l-46 -1 55 61 c49 53 60 60 90 59 27 -2 39 -10 59 -41z m39 -166 c0 -14
-8 -17 -41 -16 -29 2 -41 7 -42 18 -1 11 9 15 41 15 33 0 42 -4 42 -17z m-162
-3 c4 -12 -4 -14 -39 -13 -29 2 -45 7 -45 15 0 19 76 17 84 -2z m2 -100 c-1
-22 -5 -24 -41 -23 -33 2 -40 6 -41 23 -1 18 5 21 41 23 40 1 43 0 41 -23z
m160 0 c-1 -22 -5 -24 -41 -23 -33 2 -40 6 -41 23 -1 18 5 21 41 23 40 1 43 0
41 -23z m40 -74 c5 -5 17 -11 28 -13 18 -3 18 -4 -1 -27 -16 -19 -31 -25 -69
-26 -64 -3 -71 0 -71 36 0 22 4 28 16 24 9 -2 23 0 31 5 19 12 53 13 66 1z"/>
</g>
</svg>
