<?xml version="1.0" standalone="no"?>
<!DOCTYPE svg PUBLIC "-//W3C//DTD SVG 20010904//EN"
 "http://www.w3.org/TR/2001/REC-SVG-20010904/DTD/svg10.dtd">
<svg version="1.0" xmlns="http://www.w3.org/2000/svg"
 width="101.000000pt" height="101.000000pt" viewBox="0 0 101.000000 101.000000"
 preserveAspectRatio="xMidYMid meet">
<metadata>
Created by potrace 1.16, written by Peter Selinger 2001-2019
</metadata>
<g transform="translate(0.000000,101.000000) scale(0.100000,-0.100000)"
fill="#000000" stroke="none">
<path d="M235 988 c-22 -11 -41 -22 -43 -23 -5 -4 73 -145 80 -145 3 0 27 9
53 20 l47 20 -28 48 c-15 26 -35 59 -43 74 -19 33 -16 33 -66 6z"/>
<path d="M396 938 c-14 -52 9 -96 43 -82 9 3 39 6 68 6 29 -1 55 3 58 9 7 10
113 11 183 2 l42 -5 0 -44 c0 -24 5 -44 10 -44 6 0 10 -16 10 -35 0 -19 -4
-35 -10 -35 -6 0 -10 -30 -10 -70 0 -40 4 -70 10 -70 6 0 10 -11 10 -25 0 -14
-5 -25 -11 -25 -8 0 -11 -45 -8 -157 l4 -158 -35 -1 c-74 -3 -71 1 -47 -53 11
-28 28 -52 39 -54 21 -6 118 27 128 44 13 20 22 296 11 317 -6 11 -8 58 -6
113 3 52 7 161 9 243 l5 148 -27 -6 c-61 -13 -242 -19 -242 -7 0 6 -17 11 -40
11 -22 0 -40 -4 -40 -10 0 -5 -25 -10 -55 -10 -30 0 -55 5 -55 10 0 20 -38 10
-44 -12z"/>
<path d="M347 823 c-2 -5 -10 -26 -17 -48 -15 -49 -73 -161 -101 -195 l-20
-25 6 100 c3 55 8 107 11 116 6 20 -37 39 -83 37 -33 -1 -39 -11 -34 -48 1 -8
2 -52 1 -97 0 -46 4 -84 10 -88 12 -8 13 -52 1 -59 -13 -8 -12 -108 1 -123 13
-16 5 -184 -11 -225 -19 -49 4 -70 66 -61 l30 5 1 76 c1 116 1 118 2 170 2
138 4 151 21 136 22 -20 32 -18 50 12 16 26 16 24 23 -68 4 -59 3 -105 -4
-122 -7 -19 -7 -33 1 -47 5 -11 7 -28 4 -38 -7 -22 18 -31 59 -24 26 5 32 23
28 76 -2 14 2 16 16 8 10 -6 24 -17 32 -25 18 -22 21 -21 81 24 l52 39 29 -38
c34 -47 103 -84 128 -71 22 12 59 88 53 109 -3 9 -20 26 -38 38 l-34 21 -6
-29 c-8 -36 -30 -35 -53 3 -16 27 -16 27 47 97 34 39 60 75 57 80 -3 4 -19 14
-36 21 -36 15 -39 30 -6 30 31 0 56 25 56 55 0 29 -27 46 -55 35 -11 -4 -26
-5 -33 -3 -6 3 -23 -2 -37 -11 -13 -9 -35 -16 -47 -16 -22 0 -23 2 -21 84 3
94 1 97 -69 94 -35 -1 -36 -2 -32 -37 8 -69 9 -136 2 -138 -5 -2 -23 -3 -42
-3 -28 0 -34 4 -38 25 -3 15 4 39 18 62 13 21 24 43 24 49 0 7 -18 19 -40 28
-46 18 -47 19 -53 9z m59 -230 c-10 -33 6 -44 48 -32 44 12 45 12 50 -27 5
-32 10 -52 25 -102 9 -30 7 -34 -22 -56 -18 -13 -51 -33 -74 -45 -36 -18 -42
-18 -47 -5 -9 24 -7 72 4 79 12 7 11 113 -1 121 -13 8 -11 41 3 64 16 25 21
26 14 3z m253 -41 c-6 -15 -20 -42 -31 -61 -21 -33 -22 -33 -30 -12 -4 12 -9
41 -12 64 l-4 42 44 -3 c42 -4 43 -5 33 -30z"/>
<path d="M632 804 c-18 -8 -32 -18 -30 -22 35 -71 43 -88 45 -91 5 -8 83 20
83 29 0 19 -44 100 -54 99 -6 0 -26 -7 -44 -15z"/>
</g>
</svg>
