<?xml version="1.0" standalone="no"?>
<!DOCTYPE svg PUBLIC "-//W3C//DTD SVG 20010904//EN"
 "http://www.w3.org/TR/2001/REC-SVG-20010904/DTD/svg10.dtd">
<svg version="1.0" xmlns="http://www.w3.org/2000/svg"
 width="101.000000pt" height="101.000000pt" viewBox="0 0 101.000000 101.000000"
 preserveAspectRatio="xMidYMid meet">
<metadata>
Created by potrace 1.16, written by Peter Selinger 2001-2019
</metadata>
<g transform="translate(0.000000,101.000000) scale(0.100000,-0.100000)"
fill="#000000" stroke="none">
<path d="M215 993 c-11 -8 -29 -21 -40 -29 -19 -13 -18 -14 9 -43 16 -16 38
-46 50 -65 l21 -35 43 25 c23 14 42 29 42 34 0 10 -70 99 -91 117 -11 9 -19 8
-34 -4z"/>
<path d="M420 962 c-17 -8 -22 -83 -6 -94 14 -10 95 -8 101 3 8 12 167 10 182
-3 7 -5 34 -8 61 -6 43 3 48 1 44 -15 -2 -9 1 -23 6 -30 14 -17 14 -168 0
-184 -5 -7 -8 -31 -6 -53 l4 -40 -71 5 c-81 6 -115 10 -145 20 -20 6 -17 11
37 68 78 82 111 136 92 148 -8 6 -30 7 -49 3 -19 -4 -74 -7 -122 -8 l-87 -1
20 21 c16 17 17 23 7 31 -11 8 -73 33 -84 33 -1 0 -17 -26 -34 -57 -18 -32
-57 -82 -88 -111 -42 -42 -52 -56 -41 -62 8 -5 23 -15 34 -24 19 -14 23 -12
55 20 l36 34 32 -42 33 -43 -41 -17 c-23 -10 -53 -20 -68 -23 -14 -2 -30 -9
-36 -15 -5 -5 -26 -10 -46 -10 l-35 0 2 112 c1 62 4 123 7 135 3 16 -1 26 -13
33 -10 5 -21 7 -23 4 -3 -2 -17 1 -32 7 -20 9 -29 10 -38 1 -13 -13 -11 -135
3 -140 12 -5 12 -52 -1 -52 -6 0 -10 -30 -10 -70 0 -40 4 -70 10 -70 6 0 10
-11 10 -25 0 -14 -4 -25 -10 -25 -5 0 -10 -22 -10 -50 0 -27 5 -50 10 -50 15
0 12 -103 -5 -136 -27 -56 -3 -86 62 -77 l31 5 6 102 c4 55 5 136 4 179 l-3
78 20 -25 c18 -23 25 -25 52 -17 l31 9 -5 -35 c-3 -19 0 -52 7 -74 11 -31 11
-50 3 -82 -13 -48 -12 -49 19 -48 84 4 126 8 149 15 16 5 50 2 84 -7 44 -11
64 -12 87 -3 26 9 32 8 44 -9 8 -11 19 -37 25 -58 10 -38 10 -38 54 -34 66 7
118 36 127 71 7 29 11 214 8 411 -1 55 1 147 4 205 4 58 4 119 1 137 l-6 32
-82 0 c-45 0 -110 0 -144 0 -35 0 -91 0 -125 -1 -35 0 -76 2 -93 5 -16 4 -37
3 -45 -1z m150 -273 c0 -3 -16 -20 -35 -39 l-35 -34 -35 34 c-19 19 -35 36
-35 39 0 4 31 6 70 6 38 0 70 -2 70 -6z m39 -214 l66 -22 -162 1 c-132 1 -158
3 -139 13 13 7 34 14 48 17 15 2 39 11 54 19 21 11 34 12 48 5 10 -6 49 -20
85 -33z m199 -100 c2 -131 0 -145 -16 -154 -18 -9 -99 -7 -109 3 -3 2 -2 55 2
116 5 76 11 110 19 107 35 -15 42 -16 51 -9 6 4 18 24 27 45 10 20 19 37 20
37 2 0 4 -65 6 -145z m-242 9 c14 -4 22 -14 22 -27 0 -12 3 -32 7 -44 10 -30
-24 -43 -101 -37 -111 7 -109 7 -106 34 2 14 3 34 4 45 0 18 7 20 54 18 30 -1
56 3 59 8 7 10 30 11 61 3z"/>
</g>
</svg>
