<?xml version="1.0" standalone="no"?>
<!DOCTYPE svg PUBLIC "-//W3C//DTD SVG 20010904//EN"
 "http://www.w3.org/TR/2001/REC-SVG-20010904/DTD/svg10.dtd">
<svg version="1.0" xmlns="http://www.w3.org/2000/svg"
 width="101.000000pt" height="101.000000pt" viewBox="0 0 101.000000 101.000000"
 preserveAspectRatio="xMidYMid meet">
<metadata>
Created by potrace 1.16, written by Peter Selinger 2001-2019
</metadata>
<g transform="translate(0.000000,101.000000) scale(0.100000,-0.100000)"
fill="#000000" stroke="none">
<path d="M186 989 l-38 -21 19 -21 c11 -12 34 -43 51 -69 l32 -46 40 21 c22
12 40 26 40 30 0 11 -91 127 -99 127 -3 -1 -23 -10 -45 -21z"/>
<path d="M376 957 c-9 -34 -7 -44 9 -61 21 -21 178 -22 199 -1 17 17 76 20 76
4 0 -7 24 -9 68 -7 l67 3 2 -80 c1 -44 2 -97 2 -117 0 -21 1 -93 1 -160 0 -68
1 -156 1 -196 1 -114 -5 -126 -71 -139 -13 -2 -26 -5 -27 -6 -1 -2 6 -24 15
-50 19 -54 29 -57 92 -24 74 38 80 52 86 224 4 105 3 153 -5 157 -14 9 -14 53
-1 61 13 8 13 142 1 150 -12 7 -13 172 -1 180 5 3 9 22 8 43 l0 37 -88 3 c-50
2 -91 -1 -94 -7 -8 -12 -173 -14 -180 -2 -3 5 -39 9 -80 9 -68 0 -75 -2 -80
-21z"/>
<path d="M298 833 c-15 -4 -16 -23 -14 -185 3 -140 7 -182 17 -190 14 -9 74
-5 115 7 18 6 21 2 21 -23 0 -29 -2 -30 -59 -36 -33 -3 -67 -2 -77 4 -38 20
-80 -16 -65 -55 6 -14 61 -14 83 -1 17 11 102 -5 98 -18 -7 -22 -90 -77 -133
-88 -24 -7 -44 -15 -44 -18 0 -3 14 -21 30 -40 l29 -35 46 24 c25 13 65 42 89
63 24 21 48 38 53 38 5 0 47 -25 93 -55 46 -30 87 -55 91 -55 7 0 49 62 49 73
0 4 -42 29 -92 57 -51 29 -85 49 -75 46 10 -3 28 -1 39 5 16 9 35 8 77 -2 31
-7 61 -14 68 -15 13 -2 23 39 16 66 -4 13 -12 17 -33 15 -21 -3 -32 2 -44 21
-15 22 -15 24 1 24 17 0 18 15 19 185 2 171 0 185 -17 190 -10 3 -26 2 -36 -4
-31 -16 -161 -25 -177 -12 -8 7 -38 11 -68 10 -29 -1 -60 1 -68 4 -8 2 -23 3
-32 0z m300 -59 c22 -6 31 -38 13 -49 -6 -3 -60 -2 -120 1 -83 5 -111 10 -111
21 0 13 19 16 76 13 18 -1 35 3 39 9 7 12 66 14 103 5z m8 -132 c0 -15 -14
-17 -117 -17 -98 0 -115 2 -112 15 3 12 26 15 116 17 100 1 113 0 113 -15z
m-4 -97 c5 -23 4 -23 -111 -21 -108 1 -116 2 -117 21 -1 19 5 20 111 21 110 1
113 1 117 -21z m-36 -85 c9 0 13 -4 9 -9 -3 -5 -1 -12 5 -16 20 -12 9 -23 -23
-22 -30 1 -34 4 -34 29 0 21 4 27 14 23 8 -3 21 -5 29 -5z"/>
<path d="M102 726 c-1 -54 2 -98 8 -101 12 -8 13 -52 1 -59 -13 -8 -12 -108 1
-123 10 -13 4 -248 -8 -299 -6 -25 13 -33 66 -26 l35 4 3 103 c3 66 0 105 -7
109 -14 9 -15 153 -1 161 12 7 11 113 -1 121 -12 7 -11 51 1 59 14 9 10 128
-4 137 -6 4 -29 8 -52 8 l-41 0 -1 -94z"/>
</g>
</svg>
