<?xml version="1.0" standalone="no"?>
<!DOCTYPE svg PUBLIC "-//W3C//DTD SVG 20010904//EN"
 "http://www.w3.org/TR/2001/REC-SVG-20010904/DTD/svg10.dtd">
<svg version="1.0" xmlns="http://www.w3.org/2000/svg"
 width="101.000000pt" height="101.000000pt" viewBox="0 0 101.000000 101.000000"
 preserveAspectRatio="xMidYMid meet">
<metadata>
Created by potrace 1.16, written by Peter Selinger 2001-2019
</metadata>
<g transform="translate(0.000000,101.000000) scale(0.100000,-0.100000)"
fill="#000000" stroke="none">
<path d="M187 974 l-38 -25 31 -36 c17 -19 39 -50 47 -68 l16 -33 43 21 c24
11 44 26 44 31 -1 15 -83 129 -95 132 -5 2 -27 -8 -48 -22z"/>
<path d="M410 962 c-10 -4 -15 -22 -16 -48 l-1 -41 64 -1 c34 0 65 4 68 9 8
12 167 10 182 -3 7 -5 32 -8 56 -7 38 4 43 2 39 -14 -2 -9 0 -23 6 -30 14 -16
14 -174 1 -182 -12 -8 -12 -142 1 -150 14 -8 13 -52 -1 -61 -8 -4 -9 -35 -4
-101 9 -118 4 -125 -77 -118 l-59 6 14 -28 c8 -16 18 -42 21 -60 7 -29 10 -31
44 -28 65 6 132 27 142 44 8 16 13 195 10 416 0 55 1 166 4 247 l4 148 -86 -1
c-48 0 -115 0 -149 0 -35 0 -91 0 -125 -1 -35 0 -76 2 -93 5 -16 4 -37 3 -45
-1z"/>
<path d="M571 823 c-8 -21 -23 -52 -35 -68 -18 -27 -25 -30 -56 -25 -31 5 -33
7 -12 14 30 10 28 20 -16 67 l-38 41 -37 -18 -37 -18 28 -30 c15 -17 34 -39
41 -48 11 -15 10 -16 -16 -11 -15 4 -50 7 -78 7 l-50 1 -3 -52 c-2 -35 1 -53
8 -53 12 0 9 -125 -5 -186 -6 -27 -4 -32 16 -37 12 -3 30 -2 40 4 10 5 43 6
72 3 49 -6 55 -9 53 -30 -1 -17 -8 -25 -26 -28 -39 -8 -133 -5 -151 5 -22 11
-57 0 -62 -20 -5 -17 -10 48 -8 86 1 11 -2 24 -7 27 -13 8 -14 153 -2 161 6 4
10 34 9 68 -1 34 2 73 5 87 6 22 3 26 -33 38 -23 6 -47 12 -55 12 -17 0 -39
-34 -29 -43 3 -4 5 -58 4 -121 0 -66 3 -117 9 -121 12 -7 11 -153 -1 -161 -5
-3 -8 -51 -7 -107 1 -56 -1 -111 -5 -122 -11 -33 7 -49 54 -48 23 1 46 8 50
15 11 17 9 117 -2 124 -14 8 -10 50 6 64 12 10 15 10 15 -3 0 -18 37 -29 59
-18 18 10 113 13 154 5 19 -4 27 -11 23 -20 -3 -8 0 -25 6 -39 9 -19 8 -31 -2
-50 -7 -14 -11 -27 -9 -30 6 -6 36 -9 71 -7 l27 2 -4 69 c-4 80 -20 72 142 74
89 1 102 4 106 19 3 10 3 26 0 36 -4 15 -17 18 -106 19 -142 2 -142 2 -143 28
-2 26 -1 26 122 27 l81 1 -5 78 c-3 49 0 84 6 92 6 7 11 43 10 80 l-1 67 -33
6 c-18 3 -37 3 -42 0 -5 -3 -24 -8 -43 -11 l-34 -6 43 44 c34 34 40 46 30 54
-13 11 -74 43 -80 43 -2 0 -10 -17 -17 -37z m-129 -185 c3 -33 3 -33 -42 -33
-44 0 -45 1 -47 33 -2 31 -1 32 42 32 41 0 43 -1 47 -32z m213 -6 c0 -27 -1
-27 -60 -27 -55 0 -60 2 -61 22 -2 20 3 22 60 26 33 2 61 4 61 5 0 1 0 -10 0
-26z m0 -123 c0 -35 -31 -48 -71 -31 -13 7 -29 9 -36 7 -9 -3 -13 5 -14 22 -1
27 1 28 60 30 l61 1 0 -29z m-212 -5 c5 -30 -12 -41 -41 -25 -12 6 -27 9 -34
6 -8 -3 -14 4 -14 20 -2 23 2 25 41 25 38 0 43 -3 48 -26z"/>
</g>
</svg>
