<?xml version="1.0" standalone="no"?>
<!DOCTYPE svg PUBLIC "-//W3C//DTD SVG 20010904//EN"
 "http://www.w3.org/TR/2001/REC-SVG-20010904/DTD/svg10.dtd">
<svg version="1.0" xmlns="http://www.w3.org/2000/svg"
 width="101.000000pt" height="101.000000pt" viewBox="0 0 101.000000 101.000000"
 preserveAspectRatio="xMidYMid meet">
<metadata>
Created by potrace 1.16, written by Peter Selinger 2001-2019
</metadata>
<g transform="translate(0.000000,101.000000) scale(0.100000,-0.100000)"
fill="#000000" stroke="none">
<path d="M192 983 l-42 -25 28 -37 c16 -20 38 -53 51 -73 l22 -37 42 26 c23
14 44 27 46 29 4 3 -85 130 -97 138 -4 2 -26 -7 -50 -21z"/>
<path d="M398 973 c-34 -9 -35 -94 0 -108 22 -8 142 5 142 16 0 5 16 9 35 9
20 0 35 -5 35 -11 0 -9 26 -10 93 -6 l92 5 2 -81 c3 -136 3 -148 -2 -262 -3
-69 -1 -120 6 -137 12 -29 4 -154 -11 -178 -5 -8 -26 -15 -47 -16 l-39 -2 7
57 c13 100 10 309 -3 318 -7 4 -35 10 -61 13 l-48 5 60 80 c33 44 61 83 61 87
0 14 -40 19 -60 8 -14 -8 -47 -9 -96 -5 -72 7 -74 8 -58 26 16 18 15 20 -27
39 -48 21 -69 25 -69 11 0 -24 -87 -134 -131 -167 l-50 -36 38 -34 c27 -24 33
-33 21 -34 -16 0 -17 -16 -15 -180 2 -205 -5 -191 97 -173 49 8 250 9 281 0
19 -5 32 -19 43 -47 9 -22 15 -44 15 -48 -4 -25 4 -30 39 -27 58 5 118 23 132
39 23 28 41 368 20 381 -13 8 -13 52 0 60 13 8 13 142 1 150 -13 7 -13 173 -1
180 6 4 9 18 8 33 -2 30 16 29 -226 16 -71 -4 -117 -2 -125 4 -7 6 -35 10 -62
10 -28 0 -57 2 -65 5 -8 2 -23 3 -32 0z m127 -323 l-35 -36 35 -13 c19 -7 33
-17 30 -22 -9 -13 -43 -11 -48 4 -3 7 -8 3 -14 -11 l-9 -23 -14 26 c-13 23
-18 26 -50 20 -19 -4 -44 -8 -56 -9 -11 -2 -26 -6 -32 -10 -24 -15 -11 8 35
58 l47 51 72 0 73 0 -34 -35z m37 -145 c52 0 53 0 53 -30 0 -29 -1 -30 -47
-30 -51 0 -53 -1 -62 -30 -12 -40 11 -52 83 -43 22 3 25 -1 28 -39 3 -40 1
-42 -30 -48 -17 -3 -66 -3 -107 0 -41 3 -85 6 -97 6 -19 1 -22 7 -20 39 1 40
0 39 74 42 34 1 47 18 38 48 -6 19 -34 30 -77 30 -24 0 -28 4 -28 30 0 32 1
33 78 32 25 0 42 5 42 12 0 6 5 4 10 -4 6 -10 26 -15 62 -15z"/>
<path d="M91 691 c0 -68 3 -123 9 -126 12 -7 12 -153 0 -160 -5 -3 -8 -73 -7
-155 2 -165 0 -160 70 -152 36 4 37 5 31 37 -3 18 -1 42 5 54 9 16 8 29 -4 57
-17 41 -20 90 -5 99 12 7 11 113 -1 121 -12 7 -11 51 1 59 6 4 11 32 11 63 -1
71 6 150 14 178 7 24 -10 32 -81 40 l-42 4 -1 -119z"/>
</g>
</svg>
