<?xml version="1.0" standalone="no"?>
<!DOCTYPE svg PUBLIC "-//W3C//DTD SVG 20010904//EN"
 "http://www.w3.org/TR/2001/REC-SVG-20010904/DTD/svg10.dtd">
<svg version="1.0" xmlns="http://www.w3.org/2000/svg"
 width="101.000000pt" height="101.000000pt" viewBox="0 0 101.000000 101.000000"
 preserveAspectRatio="xMidYMid meet">
<metadata>
Created by potrace 1.16, written by Peter Selinger 2001-2019
</metadata>
<g transform="translate(0.000000,101.000000) scale(0.100000,-0.100000)"
fill="#000000" stroke="none">
<path d="M178 992 c-33 -20 -35 -33 -8 -57 11 -10 33 -38 48 -62 15 -23 32
-43 37 -43 15 0 75 38 75 47 0 15 -101 133 -113 133 -7 0 -24 -8 -39 -18z"/>
<path d="M355 950 c-11 -50 0 -68 45 -68 22 0 42 3 45 8 8 13 167 11 182 -2 7
-6 45 -9 88 -6 l75 3 0 -42 c0 -24 5 -43 10 -43 6 0 10 -16 10 -35 0 -19 -4
-35 -10 -35 -6 0 -10 -30 -10 -70 0 -40 4 -70 10 -70 6 0 10 -11 10 -25 0 -14
-4 -25 -10 -25 -6 0 -10 -40 -10 -100 0 -60 4 -100 10 -100 25 0 6 -126 -21
-140 -16 -9 -17 -7 -9 20 13 44 3 71 -25 64 -20 -5 -23 -1 -29 51 -3 32 -2 64
4 75 10 19 4 50 -14 62 -5 4 2 12 17 19 15 7 26 15 25 18 -2 3 -29 30 -60 59
-56 53 -57 54 -92 41 -32 -12 -34 -14 -20 -30 13 -15 11 -17 -36 -23 -29 -4
-58 -2 -69 4 -11 5 -27 7 -35 4 -27 -10 -18 2 23 31 35 23 52 27 130 31 50 2
102 -1 116 -6 37 -14 69 23 47 57 -5 8 -44 13 -113 15 -92 3 -105 5 -106 21
-2 17 36 23 128 20 34 -1 35 0 35 33 -1 37 -17 49 -47 34 -11 -6 -40 -8 -68
-4 l-49 6 5 34 c3 19 2 34 -3 35 -5 0 -26 2 -46 5 -33 4 -38 2 -44 -21 -3 -14
-4 -33 -2 -43 4 -15 -3 -17 -56 -16 -34 1 -65 3 -71 4 -22 5 -33 -1 -38 -21
-11 -42 0 -48 86 -46 78 2 82 1 82 -20 0 -21 -3 -21 -85 -16 -50 3 -96 1 -112
-6 -32 -12 -37 -41 -11 -66 17 -17 49 -17 128 1 27 6 29 5 17 -9 -7 -8 -38
-26 -68 -38 -53 -22 -55 -25 -50 -52 3 -16 6 -33 6 -38 0 -5 21 -6 48 -3 58 7
166 14 254 17 57 1 70 -2 87 -19 l19 -21 -121 -6 c-121 -6 -168 -4 -259 7 -50
6 -55 2 -49 -44 1 -8 3 -26 5 -40 1 -14 6 -38 11 -53 9 -34 -5 -52 -34 -42
-18 5 -21 14 -21 61 0 30 -4 54 -10 54 -13 0 -13 87 -1 92 11 3 18 325 8 335
-4 3 -25 9 -47 13 -30 6 -45 4 -56 -7 -16 -16 -20 -108 -4 -118 11 -7 12 -153
0 -160 -12 -7 -12 -153 0 -160 12 -8 13 -52 1 -59 -13 -8 -12 -108 1 -123 6
-8 8 -33 5 -63 -7 -55 -5 -56 58 -51 37 3 45 15 45 64 0 28 4 37 18 38 9 1 31
4 47 6 30 4 166 5 280 2 33 0 72 2 87 6 33 9 98 -2 98 -15 0 -6 -7 -10 -16
-10 -9 0 -13 -6 -10 -12 2 -7 10 -30 17 -50 7 -21 20 -38 31 -41 23 -6 102 19
118 38 16 19 26 300 11 309 -14 9 -14 53 -1 61 13 8 13 142 1 150 -12 7 -13
172 -2 179 5 3 9 39 9 80 l0 74 -74 1 c-44 1 -74 -3 -74 -9 0 -6 -33 -10 -80
-10 -47 0 -80 4 -80 10 0 6 -18 10 -40 10 -22 0 -40 -4 -40 -10 0 -5 -25 -10
-55 -10 -30 0 -55 5 -55 10 0 6 -9 10 -19 10 -13 0 -21 -9 -26 -30z m34 -574
c0 -12 2 -37 3 -56 3 -34 2 -35 -32 -35 -34 0 -35 1 -32 35 1 19 3 44 3 56 1
16 8 21 29 21 21 0 28 -5 29 -21z m120 0 c0 -12 2 -37 3 -56 3 -34 2 -35 -32
-35 -34 0 -35 1 -32 35 1 19 3 44 3 56 1 16 8 21 29 21 21 0 28 -5 29 -21z
m130 0 c0 -12 2 -37 3 -56 3 -34 2 -35 -32 -35 -34 0 -35 1 -32 35 1 19 3 44
3 56 1 16 8 21 29 21 21 0 28 -5 29 -21z"/>
</g>
</svg>
