<?xml version="1.0" standalone="no"?>
<!DOCTYPE svg PUBLIC "-//W3C//DTD SVG 20010904//EN"
 "http://www.w3.org/TR/2001/REC-SVG-20010904/DTD/svg10.dtd">
<svg version="1.0" xmlns="http://www.w3.org/2000/svg"
 width="101.000000pt" height="101.000000pt" viewBox="0 0 101.000000 101.000000"
 preserveAspectRatio="xMidYMid meet">
<metadata>
Created by potrace 1.16, written by Peter Selinger 2001-2019
</metadata>
<g transform="translate(0.000000,101.000000) scale(0.100000,-0.100000)"
fill="#000000" stroke="none">
<path d="M194 978 l-31 -22 48 -59 c42 -52 46 -61 33 -74 -30 -30 -3 -80 37
-68 13 5 52 8 87 9 51 1 62 -2 59 -14 -2 -11 -13 -14 -42 -12 -22 2 -54 1 -72
-3 -32 -6 -33 -7 -33 -55 0 -28 5 -50 10 -50 15 0 12 -67 -2 -73 -10 -4 -10
-7 0 -15 9 -6 12 -31 10 -83 l-3 -74 -30 -1 c-59 -2 -65 -4 -65 -21 -1 -13 -6
-9 -16 11 -11 20 -14 39 -9 65 4 20 8 101 9 181 0 87 5 148 11 153 15 11 -23
37 -54 37 -52 0 -56 -10 -53 -127 3 -119 3 -219 -1 -425 -2 -152 -4 -148 66
-140 l38 4 -7 59 c-7 62 3 160 15 141 7 -12 79 -10 100 3 7 4 28 4 48 0 l35
-6 -33 -25 c-19 -14 -55 -37 -81 -50 -27 -13 -48 -28 -48 -33 0 -15 67 -60 76
-51 5 4 49 31 98 58 l88 51 -28 27 c-19 18 -23 25 -11 21 10 -4 28 -2 39 4 11
6 36 8 55 4 l35 -6 -27 -29 -27 -28 33 -17 c19 -10 55 -33 82 -51 53 -38 60
-40 77 -19 20 24 29 18 42 -30 12 -44 14 -45 43 -39 37 8 78 28 92 46 17 20
28 88 14 88 -7 0 -11 25 -11 70 0 40 4 70 10 70 6 0 10 40 10 100 0 60 -4 100
-10 100 -5 0 -10 11 -10 25 0 14 5 25 10 25 6 0 10 30 10 70 0 40 -4 70 -10
70 -13 0 -13 67 -1 72 8 2 15 82 12 123 -1 11 -79 11 -204 0 -48 -5 -82 -3
-90 3 -6 6 -37 10 -67 10 -30 -1 -65 2 -78 6 -38 12 -79 -2 -86 -30 -10 -38 2
-65 27 -63 36 2 83 -3 65 -8 -9 -2 -19 -15 -22 -28 -6 -23 -9 -24 -96 -22 -94
2 -94 2 -36 40 18 12 16 16 -26 67 -24 30 -51 56 -59 57 -8 1 -28 -8 -45 -19z
m613 -160 c3 -138 3 -149 -2 -258 -3 -63 -1 -119 5 -140 8 -23 9 -66 3 -125
l-8 -89 -32 -2 c-22 -1 -30 2 -26 12 3 8 -25 28 -84 57 -66 34 -82 45 -63 47
57 3 123 2 159 -4 33 -5 39 -3 44 14 11 42 -1 55 -47 54 l-43 -2 -7 75 c-4 45
-3 79 3 87 5 6 10 46 10 89 0 105 -12 116 -104 97 -28 -6 -105 1 -105 10 0 6
11 10 24 10 14 0 31 7 40 15 19 20 100 20 130 0 40 -27 72 1 60 51 -5 19 -11
23 -26 18 -10 -3 -57 -3 -103 1 -65 6 -82 10 -78 21 3 8 0 15 -6 15 -6 1 -15
3 -21 4 -5 1 -15 3 -21 4 -5 0 -8 4 -5 9 2 4 71 8 153 10 l148 3 2 -83z m-230
-144 c42 -5 51 -10 50 -25 -2 -24 -40 -31 -137 -24 -41 3 -84 6 -95 6 -13 1
-21 8 -21 19 0 14 7 16 42 12 23 -2 50 1 60 7 22 12 32 13 101 5z m25 -80 c19
-4 26 -11 25 -25 -2 -25 -39 -31 -137 -24 -41 3 -84 6 -95 6 -13 1 -21 9 -22
21 -1 14 3 17 15 14 9 -3 23 -2 31 3 15 10 143 13 183 5z m0 -90 c19 -4 26
-11 25 -25 -2 -25 -39 -31 -137 -24 -41 3 -84 6 -95 6 -13 1 -21 9 -22 21 -1
14 3 17 15 14 9 -3 23 -2 31 3 15 10 143 13 183 5z m0 -80 c19 -4 26 -11 25
-25 -2 -25 -39 -31 -137 -24 -41 3 -84 6 -95 6 -13 1 -21 9 -22 21 -1 14 3 17
15 14 9 -3 23 -2 31 3 15 10 143 13 183 5z"/>
</g>
</svg>
