<?xml version="1.0" standalone="no"?>
<!DOCTYPE svg PUBLIC "-//W3C//DTD SVG 20010904//EN"
 "http://www.w3.org/TR/2001/REC-SVG-20010904/DTD/svg10.dtd">
<svg version="1.0" xmlns="http://www.w3.org/2000/svg"
 width="101.000000pt" height="101.000000pt" viewBox="0 0 101.000000 101.000000"
 preserveAspectRatio="xMidYMid meet">
<metadata>
Created by potrace 1.16, written by Peter Selinger 2001-2019
</metadata>
<g transform="translate(0.000000,101.000000) scale(0.100000,-0.100000)"
fill="#000000" stroke="none">
<path d="M185 993 c-16 -8 -31 -17 -33 -18 -1 -1 14 -26 33 -55 20 -29 39 -60
44 -68 7 -12 14 -11 49 7 23 12 42 25 42 30 0 15 -81 121 -93 121 -7 -1 -25
-8 -42 -17z"/>
<path d="M407 960 c-18 -68 4 -94 72 -84 25 4 68 7 96 6 27 0 55 4 62 10 8 6
42 8 93 3 l80 -7 0 -44 c0 -24 5 -44 10 -44 15 0 12 -59 -3 -75 -10 -9 -19
-10 -31 -3 -10 6 -47 8 -81 6 l-64 -4 13 31 c7 16 14 35 16 40 1 6 5 16 8 23
2 7 2 15 0 18 -13 12 -85 20 -94 11 -3 -2 -7 -19 -9 -38 -8 -54 -10 -63 -18
-76 -5 -7 -6 -17 -3 -22 3 -4 -1 -17 -9 -27 -12 -16 -14 -17 -15 -3 0 20 -26
32 -51 24 -24 -8 -24 -4 6 55 14 27 25 51 25 53 0 2 -60 4 -134 4 -132 1 -134
1 -140 -22 -11 -45 -2 -50 84 -48 44 1 80 0 80 -3 0 -3 -5 -14 -10 -25 -10
-17 -19 -18 -107 -14 l-97 5 1 27 c0 16 3 39 7 52 10 30 -6 41 -60 41 -29 0
-44 -5 -48 -16 -10 -25 -7 -102 4 -109 11 -7 12 -153 0 -160 -12 -7 -12 -153
0 -160 12 -8 13 -52 1 -59 -5 -3 -8 -55 -7 -115 1 -120 2 -122 63 -114 l32 5
-4 72 c-5 73 6 114 24 87 5 -7 13 -11 18 -8 6 4 28 9 49 12 22 4 50 8 64 11
57 12 81 11 76 -2 -3 -7 0 -26 7 -43 9 -25 9 -36 -1 -52 -17 -27 -10 -33 34
-32 44 1 46 3 47 47 1 37 6 37 45 2 l23 -20 27 33 c15 19 39 52 55 74 l27 40
22 -51 c12 -29 26 -52 31 -52 7 0 49 26 76 47 2 1 -16 29 -40 60 -44 58 -48
71 -35 138 8 37 17 101 19 138 2 29 24 50 40 40 5 -3 13 1 18 8 6 10 9 2 9
-23 0 -21 5 -38 10 -38 6 0 10 -11 10 -25 0 -14 -4 -25 -10 -25 -6 0 -10 -40
-10 -100 0 -67 4 -100 11 -100 15 0 7 -106 -10 -123 -6 -6 -32 -12 -57 -13
-25 -1 -47 -4 -50 -7 -3 -2 4 -20 15 -38 12 -19 21 -42 21 -52 0 -14 7 -17 44
-14 24 3 59 13 78 24 l33 19 -3 116 c-2 72 0 118 7 122 13 8 14 213 1 221 -13
8 -13 52 0 60 6 4 11 55 11 123 0 64 1 133 2 152 2 19 -2 38 -8 42 -15 12
-135 9 -135 -2 0 -6 -33 -10 -80 -10 -47 0 -80 4 -80 10 0 6 -18 10 -40 10
-22 0 -40 -4 -40 -10 0 -15 -107 -13 -112 2 -3 7 -7 1 -11 -12z m-187 -338
c22 3 28 0 30 -16 4 -52 4 -255 0 -260 -3 -3 -20 -7 -37 -10 l-30 -6 -8 150
c-4 82 -3 155 1 162 7 10 9 8 12 -5 3 -14 11 -18 32 -15z m442 -17 c-3 -45 -8
-106 -11 -118 0 -5 -16 8 -35 28 l-34 36 20 48 c15 38 24 48 41 47 19 -1 22
-6 19 -41z m-256 -2 c-1 -19 -6 -22 -41 -21 -33 2 -40 6 -41 23 -1 18 4 20 41
20 38 0 42 -3 41 -22z m108 8 c-17 -41 -15 -48 16 -61 29 -12 30 -14 14 -32
-17 -18 -16 -20 12 -51 68 -74 68 -74 52 -99 -18 -28 -77 -86 -98 -98 -11 -6
-15 -2 -16 16 -2 19 2 23 15 20 32 -10 47 14 43 68 -2 15 -8 17 -32 13 -27 -6
-30 -4 -35 26 -3 18 -3 64 0 102 3 39 6 79 6 91 1 11 8 21 16 21 9 0 11 -6 7
-16z m-107 -121 c0 -28 -2 -29 -42 -28 -38 2 -42 5 -42 28 0 23 4 26 42 28 40
1 42 0 42 -28z m-1 -104 c0 -12 -5 -23 -11 -23 -5 0 -24 -3 -41 -7 -28 -5 -31
-4 -31 22 0 26 4 28 43 30 38 1 42 -1 40 -22z"/>
</g>
</svg>
