<?xml version="1.0" standalone="no"?>
<!DOCTYPE svg PUBLIC "-//W3C//DTD SVG 20010904//EN"
 "http://www.w3.org/TR/2001/REC-SVG-20010904/DTD/svg10.dtd">
<svg version="1.0" xmlns="http://www.w3.org/2000/svg"
 width="101.000000pt" height="102.000000pt" viewBox="0 0 101.000000 102.000000"
 preserveAspectRatio="xMidYMid meet">
<metadata>
Created by potrace 1.16, written by Peter Selinger 2001-2019
</metadata>
<g transform="translate(0.000000,102.000000) scale(0.100000,-0.100000)"
fill="#000000" stroke="none">
<path d="M379 1008 c-1 -23 -8 -55 -18 -79 -7 -19 -15 -24 -42 -23 -19 1 -46
5 -61 9 -45 12 -68 -9 -68 -60 0 -25 5 -45 10 -45 6 0 10 -16 10 -35 0 -19 -4
-35 -10 -35 -6 0 -10 -30 -10 -70 0 -40 4 -70 10 -70 6 0 10 -11 10 -25 0 -14
-5 -25 -11 -25 -13 0 -8 -114 5 -127 10 -10 90 -10 187 0 l76 8 -1 -38 c-1
-45 -13 -50 -128 -52 -52 -1 -78 3 -82 12 -5 10 -7 10 -12 0 -7 -15 -74 -18
-74 -3 0 6 -25 10 -55 10 -49 0 -55 -2 -61 -24 -13 -51 25 -88 66 -66 10 5 64
8 121 6 57 -2 132 -4 166 -5 l62 -1 -6 -43 c-2 -23 -4 -51 -4 -62 1 -11 2 -32
3 -47 1 -30 18 -37 66 -30 l32 4 -1 67 c-1 101 1 109 25 110 79 6 232 5 288
-2 66 -7 68 -7 74 17 3 14 3 34 -1 46 -6 19 -14 21 -73 20 -100 -2 -174 -1
-257 3 -50 2 -50 2 -50 37 l-1 35 95 2 c57 2 99 -1 107 -8 8 -6 25 -8 39 -5
27 7 27 6 30 164 l2 63 -161 -1 c-89 -1 -211 0 -271 2 -102 3 -110 4 -110 23
0 19 6 20 77 17 46 -2 79 1 83 7 8 13 52 14 59 2 8 -13 108 -12 123 1 8 6 44
9 93 6 75 -4 81 -3 86 16 7 28 -1 184 -9 193 -4 3 -22 6 -40 4 -91 -5 -307 -5
-307 1 0 3 11 20 25 36 40 48 31 59 -47 53 -16 -1 -28 3 -28 8 0 15 -30 14
-31 -1z m302 -178 c22 0 28 -5 31 -30 5 -34 30 -32 -292 -27 l-125 2 0 25 0
25 107 -3 c72 -1 109 1 114 9 5 8 28 10 73 5 36 -3 78 -6 92 -6z m-181 -271
c0 -9 34 -10 126 -5 l125 8 -3 -29 -3 -28 -85 -2 c-108 -3 -184 -3 -286 0 -77
2 -80 3 -76 25 3 15 11 22 28 22 13 0 24 5 24 10 0 6 32 10 75 10 49 0 75 -4
75 -11z"/>
</g>
</svg>
