<?xml version="1.0" standalone="no"?>
<!DOCTYPE svg PUBLIC "-//W3C//DTD SVG 20010904//EN"
 "http://www.w3.org/TR/2001/REC-SVG-20010904/DTD/svg10.dtd">
<svg version="1.0" xmlns="http://www.w3.org/2000/svg"
 width="101.000000pt" height="101.000000pt" viewBox="0 0 101.000000 101.000000"
 preserveAspectRatio="xMidYMid meet">
<metadata>
Created by potrace 1.16, written by Peter Selinger 2001-2019
</metadata>
<g transform="translate(0.000000,101.000000) scale(0.100000,-0.100000)"
fill="#000000" stroke="none">
<path d="M788 975 c-38 -14 -92 -26 -118 -26 -8 -1 -22 -3 -30 -6 -20 -7 -74
-12 -131 -12 -25 0 -54 -4 -65 -8 l-21 -8 21 -40 c21 -38 24 -40 66 -38 65 3
105 9 116 15 6 4 8 -17 6 -52 -1 -33 2 -61 8 -65 11 -7 14 -85 2 -100 -4 -6
-53 -10 -111 -10 l-104 0 -10 -28 c-5 -15 -6 -39 -3 -52 6 -23 7 -24 114 -19
l107 5 -3 -78 c-1 -44 2 -87 9 -99 8 -16 8 -42 -1 -100 -12 -79 -14 -153 -4
-163 5 -6 95 -4 100 2 2 2 -1 30 -6 63 -14 85 -13 191 3 198 10 5 10 7 0 12
-15 7 -18 74 -3 74 6 0 10 17 10 39 l0 38 95 7 c52 4 99 5 104 1 14 -8 24 31
16 64 -6 28 -6 29 -105 36 -55 3 -104 4 -110 0 -8 -5 -9 4 -5 28 4 21 3 37 -4
41 -14 9 -14 49 0 63 6 6 10 33 8 62 -5 58 -7 57 121 74 14 2 31 5 39 5 16 2
9 24 -22 62 -25 32 -36 34 -89 15z"/>
<path d="M210 959 c0 -7 -21 -10 -60 -7 -66 3 -79 -8 -64 -54 4 -13 6 -60 5
-105 -1 -47 3 -84 9 -88 12 -8 13 -52 1 -59 -12 -8 -13 -114 -1 -121 14 -9 13
-152 -1 -161 -8 -5 -10 -36 -6 -98 2 -50 1 -101 -4 -113 -17 -45 8 -64 70 -55
l32 4 -1 152 c-1 135 -1 227 0 336 1 19 2 91 3 160 l2 125 56 0 c62 0 61 2 32
-65 -4 -8 -7 -22 -8 -30 -1 -8 -13 -47 -25 -87 l-24 -72 43 -46 c48 -52 68
-96 66 -141 -2 -43 -13 -55 -43 -53 -56 4 -65 1 -57 -23 4 -13 8 -34 10 -48 1
-14 3 -29 4 -34 2 -13 78 2 122 24 44 23 57 43 65 102 7 52 -23 127 -80 202
l-38 49 55 158 c55 158 55 159 32 159 -13 0 -27 -4 -30 -10 -3 -5 -24 -10 -46
-10 -21 0 -39 5 -39 10 0 6 -18 10 -40 10 -22 0 -40 -5 -40 -11z"/>
</g>
</svg>
