<?xml version="1.0" standalone="no"?>
<!DOCTYPE svg PUBLIC "-//W3C//DTD SVG 20010904//EN"
 "http://www.w3.org/TR/2001/REC-SVG-20010904/DTD/svg10.dtd">
<svg version="1.0" xmlns="http://www.w3.org/2000/svg"
 width="101.000000pt" height="101.000000pt" viewBox="0 0 101.000000 101.000000"
 preserveAspectRatio="xMidYMid meet">
<metadata>
Created by potrace 1.16, written by Peter Selinger 2001-2019
</metadata>
<g transform="translate(0.000000,101.000000) scale(0.100000,-0.100000)"
fill="#000000" stroke="none">
<path d="M118 963 c-24 -6 -29 -49 -22 -173 3 -58 5 -150 4 -205 -1 -120 -1
-243 -1 -287 1 -18 -1 -61 -3 -95 -5 -69 -1 -73 67 -65 32 4 37 8 39 31 0 14
0 33 -2 41 -7 34 -4 198 3 191 4 -4 9 -22 12 -40 2 -18 5 -34 7 -36 19 -18
101 10 135 47 26 27 43 69 43 104 0 27 -52 148 -67 157 -15 9 -2 65 46 196 22
63 41 117 41 120 0 3 -55 7 -123 8 -67 1 -131 4 -142 6 -11 3 -28 3 -37 0z
m174 -118 c-2 -11 -19 -60 -37 -109 l-33 -89 40 -58 c30 -42 41 -67 42 -98 1
-50 -10 -61 -65 -66 l-45 -3 3 85 c2 47 -1 91 -6 97 -13 16 -13 147 0 162 6 8
9 35 7 61 l-3 48 50 -5 c43 -4 50 -8 47 -25z"/>
<path d="M467 935 c-21 -21 -22 -59 -1 -80 12 -12 27 -14 67 -9 58 8 195 7
273 -2 40 -5 54 -2 68 12 20 19 15 72 -7 86 -16 10 -84 10 -91 0 -6 -10 -212
-7 -262 4 -22 4 -36 1 -47 -11z"/>
<path d="M376 714 c-4 -9 -4 -32 0 -50 l6 -33 107 2 106 2 -1 -200 0 -200 -62
2 c-34 1 -62 0 -62 -2 0 -3 9 -19 20 -37 11 -18 20 -40 20 -49 0 -24 33 -29
92 -14 94 25 93 23 93 274 l0 219 73 6 c41 4 92 4 115 1 l42 -7 0 49 0 48
-147 2 c-91 2 -148 -1 -148 -7 0 -6 -33 -10 -75 -10 -43 0 -75 4 -75 10 0 6
-22 10 -49 10 -36 0 -51 -4 -55 -16z"/>
<path d="M449 549 c-1 -2 -3 -16 -4 -30 -5 -37 -56 -144 -99 -208 -40 -59 -41
-61 -23 -61 7 0 29 -9 50 -20 l37 -20 27 43 c28 45 107 207 118 244 5 19 1 25
-22 34 -33 13 -83 23 -84 18z"/>
<path d="M758 533 c-43 -17 -45 -24 -19 -62 11 -15 43 -74 71 -131 27 -57 52
-105 54 -107 6 -6 96 36 96 45 0 11 -137 242 -154 259 -8 9 -20 8 -48 -4z"/>
</g>
</svg>
