<?xml version="1.0" standalone="no"?>
<!DOCTYPE svg PUBLIC "-//W3C//DTD SVG 20010904//EN"
 "http://www.w3.org/TR/2001/REC-SVG-20010904/DTD/svg10.dtd">
<svg version="1.0" xmlns="http://www.w3.org/2000/svg"
 width="101.000000pt" height="101.000000pt" viewBox="0 0 101.000000 101.000000"
 preserveAspectRatio="xMidYMid meet">
<metadata>
Created by potrace 1.16, written by Peter Selinger 2001-2019
</metadata>
<g transform="translate(0.000000,101.000000) scale(0.100000,-0.100000)"
fill="#000000" stroke="none">
<path d="M95 980 c-11 -5 -14 -9 -7 -9 15 -1 17 -111 2 -111 -5 0 -10 -18 -10
-40 0 -22 5 -40 10 -40 6 0 10 -33 10 -80 0 -47 -4 -80 -10 -80 -6 0 -10 -30
-10 -70 0 -40 4 -70 10 -70 6 0 10 -11 10 -25 0 -14 -5 -25 -10 -25 -8 0 -10
-53 -8 -159 3 -177 1 -171 71 -163 36 4 38 6 31 31 -7 22 -9 133 -3 218 2 30
15 21 39 -28 11 -21 23 -39 26 -39 13 0 101 50 116 66 45 51 39 123 -18 235
-15 30 -28 61 -28 69 0 8 22 80 47 158 26 79 47 148 47 153 0 6 -48 9 -117 8
-65 -1 -131 1 -148 4 -16 4 -39 2 -50 -3z m188 -114 c-3 -17 -9 -39 -14 -48
-5 -10 -7 -18 -5 -18 3 0 -6 -32 -20 -71 l-26 -71 36 -72 c62 -125 53 -174
-35 -191 l-34 -6 2 57 c1 32 -2 62 -6 68 -13 15 -13 147 -1 161 6 7 9 57 8
116 l-3 104 51 1 52 2 -5 -32z"/>
<path d="M478 973 c-22 -5 -31 -34 -22 -70 10 -37 10 -76 0 -92 -5 -7 -5 -32
-1 -56 6 -41 9 -45 40 -51 19 -3 99 -2 177 4 86 6 147 6 152 1 15 -13 33 -11
50 7 13 13 16 38 15 135 -2 106 -4 119 -20 124 -10 4 -24 3 -30 -1 -7 -4 -41
-6 -76 -5 -39 1 -63 -2 -63 -8 0 -13 -67 -15 -72 -2 -3 9 -122 20 -150 14z
m212 -84 c0 -7 19 -10 53 -7 l52 3 1 -46 0 -46 -74 -7 c-41 -3 -96 -6 -121 -6
l-46 0 0 50 0 50 43 0 c23 0 42 5 42 10 0 6 11 10 25 10 14 0 25 -5 25 -11z"/>
<path d="M448 672 c-24 -5 -29 -43 -26 -219 3 -127 6 -153 18 -154 21 -3 84 2
89 6 1 2 -2 36 -9 75 -8 48 -9 75 -2 83 6 7 9 36 9 65 l-2 52 38 0 c20 0 37 5
37 10 0 15 67 12 73 -2 4 -10 7 -10 15 0 6 9 27 12 62 10 l54 -3 3 -60 c2 -33
3 -99 3 -147 -1 -78 1 -88 17 -90 24 -2 77 3 82 7 2 2 -3 34 -10 70 -10 51
-10 71 -1 85 7 11 11 58 10 114 0 90 -2 97 -22 102 -12 3 -34 1 -48 -5 -14 -5
-51 -7 -82 -4 -39 4 -56 2 -56 -6 0 -13 -67 -15 -72 -2 -3 9 -150 20 -180 13z"/>
<path d="M619 538 c-10 -145 -15 -171 -38 -216 -31 -60 -102 -105 -187 -116
-21 -3 -51 -9 -65 -13 l-27 -8 39 -44 40 -44 57 17 c129 40 218 123 252 235
11 36 22 84 24 106 2 22 7 47 10 56 8 19 -10 29 -66 35 -27 4 -38 1 -39 -8z"/>
<path d="M684 285 c-15 -20 -25 -37 -23 -39 2 -2 36 -20 74 -40 39 -19 89 -50
113 -68 l44 -33 29 35 c15 19 29 40 29 47 0 6 -54 39 -119 72 l-120 61 -27
-35z"/>
</g>
</svg>
