<?xml version="1.0" standalone="no"?>
<!DOCTYPE svg PUBLIC "-//W3C//DTD SVG 20010904//EN"
 "http://www.w3.org/TR/2001/REC-SVG-20010904/DTD/svg10.dtd">
<svg version="1.0" xmlns="http://www.w3.org/2000/svg"
 width="101.000000pt" height="101.000000pt" viewBox="0 0 101.000000 101.000000"
 preserveAspectRatio="xMidYMid meet">
<metadata>
Created by potrace 1.16, written by Peter Selinger 2001-2019
</metadata>
<g transform="translate(0.000000,101.000000) scale(0.100000,-0.100000)"
fill="#000000" stroke="none">
<path d="M836 979 c-10 -6 -37 -11 -59 -11 -23 1 -45 -2 -50 -5 -26 -16 -347
-18 -347 -1 0 3 -17 4 -37 1 -101 -14 -124 -14 -137 -4 -7 6 -24 11 -37 12
-13 0 -39 0 -58 1 -37 1 -54 -17 -45 -47 3 -11 5 -45 4 -77 0 -31 4 -59 9 -63
12 -7 13 -153 1 -160 -12 -7 -12 -153 0 -160 12 -8 13 -52 1 -59 -13 -8 -12
-108 0 -123 11 -12 7 -105 -6 -154 -8 -31 8 -38 69 -31 37 4 38 5 30 36 -4 17
-7 69 -6 116 2 144 2 141 26 90 15 -33 27 -45 41 -44 26 1 63 20 93 47 22 20
22 20 21 1 -5 -45 0 -51 34 -47 77 9 154 13 182 8 28 -5 31 -9 32 -44 2 -36
-1 -40 -25 -45 -27 -5 -92 -2 -168 8 -47 6 -55 -5 -46 -62 4 -30 5 -31 46 -26
22 4 84 6 136 6 186 -1 221 -1 273 1 28 1 62 -2 73 -6 18 -6 22 -3 27 19 10
56 4 60 -96 62 -144 1 -136 -1 -134 42 1 30 5 38 22 39 11 0 54 3 95 6 42 3
89 0 108 -6 18 -6 36 -9 39 -6 7 7 8 75 1 82 -3 3 -26 6 -52 7 -40 2 -48 6
-53 26 -3 13 -1 34 5 48 7 13 9 30 6 37 -3 9 8 13 37 14 50 2 52 5 52 43 0 38
-2 41 -52 43 -35 1 -43 5 -48 25 -3 13 -1 34 5 48 7 13 9 30 7 37 -4 9 8 13
42 15 25 1 50 7 55 14 7 12 2 57 -8 67 -2 2 -61 5 -132 5 l-128 1 4 28 c3 15
8 30 14 33 5 3 53 6 108 7 54 1 102 6 106 10 9 8 -38 100 -53 104 -4 1 -16 -3
-27 -8z m-431 -90 c13 -38 11 -37 143 -27 l63 5 -3 -31 -3 -31 -122 4 -123 3
-10 -27 c-6 -15 -8 -36 -5 -46 7 -21 45 -34 76 -26 15 4 19 2 15 -9 -3 -8 -1
-25 6 -38 6 -14 8 -35 4 -49 -4 -18 -12 -24 -36 -24 -37 0 -43 -5 -43 -43 0
-38 5 -43 43 -43 22 0 29 -4 25 -14 -3 -8 0 -24 6 -35 6 -11 8 -35 4 -55 -5
-30 -9 -34 -28 -28 -12 4 -29 7 -38 7 -12 0 -15 10 -13 53 2 54 -22 123 -65
184 l-19 27 47 137 c26 75 45 140 42 143 -3 4 0 5 8 2 8 -2 20 -20 26 -39z
m-139 -21 c-9 -51 -20 -87 -48 -156 -28 -73 -28 -74 -10 -100 52 -74 74 -162
49 -196 -7 -9 -29 -19 -48 -21 -34 -5 -37 -3 -43 26 -9 48 -7 157 4 164 12 7
11 113 -1 121 -13 7 -11 48 2 61 6 6 10 33 8 62 l-4 50 45 4 c25 2 46 4 48 5
1 1 0 -8 -2 -20z m330 -210 l1 -67 -40 2 -39 1 6 45 c3 24 6 53 6 65 0 17 6
21 33 21 l32 0 1 -67z m179 -1 c0 -71 0 -72 -25 -69 -14 2 -35 3 -48 4 -27 0
-40 38 -24 74 7 13 9 30 6 38 -4 12 5 16 43 19 26 2 48 4 48 5 0 1 0 -31 0
-71z m2 -167 c1 -14 5 -36 8 -50 4 -14 1 -38 -4 -54 -9 -23 -15 -27 -34 -21
-12 4 -32 7 -44 7 -18 0 -24 8 -29 33 -3 18 -1 42 5 53 6 11 8 28 4 37 -5 14
-2 16 13 11 10 -3 26 -1 34 4 24 16 45 7 47 -20z m-181 4 c-3 -9 -1 -25 5 -36
6 -11 8 -35 5 -54 -6 -31 -9 -33 -46 -31 -36 1 -40 4 -46 33 -3 18 -1 41 5 52
6 11 9 27 6 34 -4 10 6 14 36 15 33 2 40 -1 35 -13z"/>
</g>
</svg>
