<?xml version="1.0" standalone="no"?>
<!DOCTYPE svg PUBLIC "-//W3C//DTD SVG 20010904//EN"
 "http://www.w3.org/TR/2001/REC-SVG-20010904/DTD/svg10.dtd">
<svg version="1.0" xmlns="http://www.w3.org/2000/svg"
 width="101.000000pt" height="101.000000pt" viewBox="0 0 101.000000 101.000000"
 preserveAspectRatio="xMidYMid meet">
<metadata>
Created by potrace 1.16, written by Peter Selinger 2001-2019
</metadata>
<g transform="translate(0.000000,101.000000) scale(0.100000,-0.100000)"
fill="#000000" stroke="none">
<path d="M109 972 c-15 -6 -16 -24 -12 -142 2 -74 3 -180 3 -235 -1 -141 -1
-250 -1 -287 1 -18 -1 -70 -4 -114 -5 -90 -1 -96 61 -87 l30 5 1 121 c2 152 3
168 14 162 4 -3 11 -21 15 -40 7 -41 20 -43 81 -16 44 21 73 62 73 106 0 29
16 34 24 7 7 -21 -1 -288 -9 -313 -7 -20 18 -28 63 -21 31 4 32 5 24 46 -4 22
-6 86 -5 141 3 147 3 147 19 141 8 -3 25 -1 38 6 35 16 74 3 75 -24 0 -13 2
-36 3 -52 2 -23 -1 -30 -17 -31 -29 -4 -89 -16 -92 -19 -2 -2 0 -17 3 -34 6
-30 20 -39 49 -32 6 2 21 4 35 6 48 7 95 13 127 18 24 3 32 0 36 -14 4 -17 10
-18 37 -10 18 5 35 12 38 14 3 3 -6 36 -20 73 -24 65 -26 68 -57 66 -42 -2
-45 -6 -28 -40 15 -28 15 -29 -11 -28 -24 0 -27 4 -24 30 1 17 3 40 3 53 1 16
5 22 16 18 8 -3 23 -1 34 5 12 6 37 8 59 4 30 -5 38 -11 39 -28 0 -12 3 -56 6
-97 6 -102 -6 -126 -63 -123 -23 1 -42 0 -42 -1 0 -1 7 -23 16 -48 10 -29 22
-48 35 -51 23 -6 106 20 116 36 5 7 9 66 9 132 1 66 5 138 9 160 7 43 9 84 3
90 -2 2 -25 -1 -53 -7 -33 -7 -54 -7 -65 0 -9 6 -39 9 -66 9 -46 -2 -49 0 -49
23 0 25 1 25 92 25 68 0 94 4 98 13 9 23 5 131 -4 137 -13 8 -13 166 1 182 5
7 7 24 4 38 l-6 25 -125 -6 c-92 -5 -125 -4 -125 4 0 7 -16 12 -40 12 -22 0
-40 -5 -40 -11 0 -7 -21 -10 -60 -7 -36 2 -60 -1 -60 -7 0 -5 -4 -4 -8 3 -6 9
-38 12 -118 11 -60 -2 -122 0 -139 4 -16 4 -37 3 -46 -1z m303 -77 c-1 -19 3
-37 8 -40 12 -8 12 -173 -1 -180 -11 -7 -12 -76 -1 -90 8 -11 8 -11 101 -14
64 -1 69 -3 73 -26 l5 -24 -109 5 c-107 4 -109 4 -103 -16 3 -11 2 -20 -3 -20
-5 0 -15 19 -22 43 -7 23 -23 63 -35 88 l-24 45 52 136 c29 75 54 134 56 132
2 -2 4 -20 3 -39z m183 -37 l0 -43 -47 0 -47 0 2 35 c2 34 4 35 47 41 25 3 45
7 45 7 0 1 0 -17 0 -40z m180 -4 l0 -40 -45 0 -45 1 0 40 0 40 45 0 45 0 0
-41z m-485 24 c0 -5 -63 -186 -72 -208 -1 -3 12 -35 31 -71 54 -111 45 -176
-24 -174 l-30 0 4 68 c2 44 -1 67 -8 67 -6 0 -11 11 -11 25 0 14 5 25 10 25 6
0 10 30 10 70 0 40 -4 70 -10 70 -5 0 -10 11 -10 25 0 14 5 25 10 25 6 0 10
19 10 43 l0 42 45 0 c25 0 45 -3 45 -7z m302 -182 l3 -41 -50 1 -50 1 -3 39
-3 39 50 1 49 2 4 -42z m183 2 l0 -43 -45 0 -45 0 3 37 c3 31 8 38 30 41 58 9
58 9 57 -35z"/>
</g>
</svg>
