<?xml version="1.0" standalone="no"?>
<!DOCTYPE svg PUBLIC "-//W3C//DTD SVG 20010904//EN"
 "http://www.w3.org/TR/2001/REC-SVG-20010904/DTD/svg10.dtd">
<svg version="1.0" xmlns="http://www.w3.org/2000/svg"
 width="101.000000pt" height="101.000000pt" viewBox="0 0 101.000000 101.000000"
 preserveAspectRatio="xMidYMid meet">
<metadata>
Created by potrace 1.16, written by Peter Selinger 2001-2019
</metadata>
<g transform="translate(0.000000,101.000000) scale(0.100000,-0.100000)"
fill="#000000" stroke="none">
<path d="M98 983 c-19 -5 -21 -10 -18 -93 1 -30 6 -56 11 -58 12 -5 12 -72 -1
-72 -6 0 -10 -30 -10 -70 0 -40 4 -70 10 -70 6 0 10 -11 10 -25 0 -14 -4 -25
-10 -25 -6 0 -10 -40 -10 -100 0 -66 4 -100 11 -100 12 0 3 -168 -11 -206 -14
-37 5 -50 71 -46 l26 2 -5 75 c-3 50 -1 80 7 89 7 8 12 28 11 43 -4 52 -1 59
14 38 7 -11 16 -32 20 -48 6 -24 10 -26 34 -21 73 18 113 56 116 111 1 21 5
44 9 50 9 15 -18 85 -52 138 -16 24 -26 52 -25 70 3 43 89 281 97 267 12 -18
18 -291 7 -297 -14 -9 -12 -21 5 -39 17 -17 170 -22 180 -6 9 14 69 12 83 -2
8 -8 15 -8 26 1 9 8 45 10 109 8 l94 -4 2 58 c0 32 -3 60 -8 64 -13 7 -13 172
-1 180 13 8 10 78 -4 87 -17 12 -136 9 -136 -2 0 -6 -33 -10 -80 -10 -47 0
-80 4 -80 10 0 6 -18 10 -40 10 -22 0 -40 -4 -40 -9 0 -5 -27 -11 -59 -13 -33
-1 -57 1 -54 5 3 4 -48 7 -114 6 -65 -1 -131 0 -148 4 -16 3 -38 3 -47 0z
m157 -177 c-18 -50 -38 -103 -44 -118 -9 -23 -5 -36 31 -98 22 -39 42 -80 43
-93 2 -12 6 -29 10 -38 11 -27 -26 -61 -67 -61 -20 0 -41 3 -47 7 -14 8 -14
52 -1 60 12 7 12 153 0 160 -12 8 -11 147 1 161 6 8 9 35 7 61 l-3 48 52 1 51
1 -33 -91z m350 54 l0 -37 -50 1 -50 1 3 35 c4 34 5 35 51 37 l47 1 -1 -38z
m210 0 l0 -35 -61 0 -62 0 2 35 1 35 60 0 60 0 0 -35z m-3 -148 l3 -47 -60 0
-60 0 -1 48 -1 47 58 0 57 0 4 -48z m-211 -4 l4 -43 -50 0 -50 0 0 35 c0 31 4
36 30 41 61 13 63 12 66 -33z"/>
<path d="M399 524 c-16 -44 1 -71 42 -66 8 1 9 -14 12 -146 2 -103 2 -104 -27
-127 -19 -15 -24 -25 -16 -30 6 -4 19 -19 28 -34 l17 -28 93 69 93 69 -5 41
c-3 22 -7 42 -9 44 -2 2 -22 -10 -46 -27 -23 -17 -45 -28 -49 -25 -4 4 -6 40
-5 79 3 120 0 113 48 115 l43 1 11 -45 c19 -74 66 -156 114 -201 67 -62 177
-114 177 -83 0 5 13 25 30 43 16 19 30 37 30 40 0 5 -51 21 -62 19 -12 -3 -86
26 -112 44 -33 21 -25 32 57 85 l59 38 -46 23 -47 22 -40 -47 c-22 -26 -45
-47 -50 -47 -9 0 -29 38 -43 86 -8 25 -14 23 124 27 47 1 95 -2 107 -6 17 -6
23 -3 28 13 4 12 4 32 1 45 -6 23 -9 24 -71 18 -46 -4 -65 -2 -65 6 0 6 -17
11 -40 11 -22 0 -40 -4 -40 -10 0 -15 -157 -13 -164 3 -5 10 -7 10 -12 0 -7
-15 -74 -18 -74 -3 0 6 -18 10 -40 10 -35 0 -42 -4 -51 -26z"/>
</g>
</svg>
