<?xml version="1.0" standalone="no"?>
<!DOCTYPE svg PUBLIC "-//W3C//DTD SVG 20010904//EN"
 "http://www.w3.org/TR/2001/REC-SVG-20010904/DTD/svg10.dtd">
<svg version="1.0" xmlns="http://www.w3.org/2000/svg"
 width="101.000000pt" height="102.000000pt" viewBox="0 0 101.000000 102.000000"
 preserveAspectRatio="xMidYMid meet">
<metadata>
Created by potrace 1.16, written by Peter Selinger 2001-2019
</metadata>
<g transform="translate(0.000000,102.000000) scale(0.100000,-0.100000)"
fill="#000000" stroke="none">
<path d="M566 1006 c3 -8 -2 -33 -12 -55 l-18 -41 -71 3 c-62 2 -71 4 -67 19
4 16 -5 17 -112 12 -74 -4 -121 -2 -129 4 -20 17 -76 11 -81 -7 -8 -30 -5 -90
4 -96 12 -8 12 -173 -1 -180 -12 -8 -12 -142 1 -150 13 -8 13 -52 0 -60 -13
-8 -12 -206 2 -222 7 -9 8 -36 4 -77 -7 -71 -1 -78 60 -69 l29 5 3 128 c1 79
-2 131 -8 135 -13 8 -13 152 0 160 12 7 11 113 -1 121 -13 7 -11 51 2 59 6 4
9 38 7 86 l-3 79 37 0 c20 0 44 3 54 7 14 5 16 2 10 -18 -4 -13 -9 -35 -12
-49 -3 -13 -10 -30 -16 -37 -6 -8 -8 -16 -5 -19 3 -4 -3 -30 -14 -59 l-19 -52
35 -58 c19 -33 35 -66 36 -74 1 -9 2 -30 4 -47 4 -45 -8 -57 -55 -60 -23 -1
-44 -5 -47 -8 -10 -10 35 -101 52 -104 9 -2 40 8 70 22 42 21 57 35 73 70 l21
43 -20 68 c-12 37 -33 88 -49 114 l-28 46 37 107 c36 106 37 108 55 87 13 -16
26 -20 56 -17 32 3 37 1 30 -12 -10 -18 -114 -117 -150 -143 -16 -12 -21 -20
-13 -23 7 -3 28 -16 47 -29 l34 -23 21 21 21 21 0 -21 c0 -12 8 -24 18 -27 24
-8 102 -4 107 5 7 11 173 11 180 0 7 -13 87 -12 103 1 7 6 32 8 57 5 42 -6 45
-5 51 18 12 50 4 54 -118 52 -111 -2 -113 -2 -114 21 -2 20 3 22 45 24 25 1
62 1 82 -1 35 -2 35 -2 35 39 -1 36 -3 40 -21 36 -11 -3 -71 -9 -132 -12 -83
-5 -113 -4 -113 4 0 7 -11 12 -25 12 -22 0 -24 3 -16 17 9 17 56 21 298 25 66
1 82 14 68 57 -5 16 -21 19 -135 26 -71 4 -138 4 -149 0 -28 -9 -26 7 4 43 14
17 25 32 25 35 0 7 -39 17 -87 23 -36 4 -42 3 -37 -10z m69 -319 c0 -18 -4
-26 -13 -22 -8 3 -46 5 -85 5 l-70 0 21 23 c17 18 31 22 84 22 62 0 63 0 63
-28z"/>
<path d="M449 553 c-21 -5 -31 -40 -19 -62 5 -9 7 -57 5 -106 -2 -50 -5 -115
-6 -145 -7 -150 -1 -163 68 -153 39 6 46 22 27 59 -11 21 -13 34 -5 51 6 13 8
29 5 37 -4 9 2 14 18 15 13 0 59 3 103 6 44 3 95 3 113 0 28 -5 32 -9 27 -32
-6 -35 -19 -42 -72 -36 -44 5 -44 5 -30 -19 8 -13 18 -38 22 -56 6 -30 21 -39
50 -32 6 1 19 4 30 5 43 6 76 26 85 50 6 14 9 99 8 188 0 89 1 177 4 195 5 32
5 32 -41 34 -25 1 -71 0 -101 -1 -115 -5 -246 -5 -260 1 -8 3 -22 4 -31 1z
m312 -69 c21 -4 26 -11 25 -30 -1 -31 -31 -37 -141 -29 -44 3 -89 6 -100 6
-14 1 -20 9 -21 26 -2 18 2 22 15 19 9 -3 22 -2 30 3 15 10 153 14 192 5z m0
-120 c21 -4 26 -11 25 -30 -1 -31 -31 -37 -141 -29 -44 3 -89 6 -100 6 -14 1
-20 9 -21 26 -2 18 2 22 15 19 9 -3 22 -2 30 3 15 10 153 14 192 5z"/>
</g>
</svg>
