<?xml version="1.0" standalone="no"?>
<!DOCTYPE svg PUBLIC "-//W3C//DTD SVG 20010904//EN"
 "http://www.w3.org/TR/2001/REC-SVG-20010904/DTD/svg10.dtd">
<svg version="1.0" xmlns="http://www.w3.org/2000/svg"
 width="101.000000pt" height="101.000000pt" viewBox="0 0 101.000000 101.000000"
 preserveAspectRatio="xMidYMid meet">
<metadata>
Created by potrace 1.16, written by Peter Selinger 2001-2019
</metadata>
<g transform="translate(0.000000,101.000000) scale(0.100000,-0.100000)"
fill="#000000" stroke="none">
<path d="M569 988 c-1 -7 -1 -17 0 -22 1 -5 -5 -23 -14 -40 -17 -30 -18 -31
-88 -30 -42 1 -75 -3 -79 -9 -11 -17 -9 -225 2 -232 14 -8 13 -52 -1 -61 -12
-7 -8 -118 4 -131 4 -4 24 -6 44 -6 36 1 55 16 47 37 -3 8 12 12 40 14 l45 2
-17 -38 c-50 -110 -158 -229 -250 -276 -29 -15 -52 -28 -52 -30 0 -2 22 -17
49 -34 l50 -30 80 74 c44 41 97 101 119 134 44 66 44 66 42 -57 0 -40 4 -81 9
-92 14 -26 97 -54 121 -41 10 6 55 8 100 6 77 -4 83 -3 111 22 30 29 50 82 30
82 -7 0 -23 8 -37 17 -25 16 -25 18 -8 30 17 12 16 15 -6 65 -33 72 -36 76
-65 70 -32 -6 -39 -17 -26 -41 9 -16 6 -20 -28 -29 l-39 -9 29 47 c16 26 36
53 44 60 23 19 18 37 -12 44 -16 4 -35 9 -44 12 -11 3 -18 -8 -28 -44 -13 -52
-45 -112 -60 -112 -10 0 -8 52 3 86 7 24 -13 38 -39 28 -16 -7 -18 0 -6 31 9
23 27 26 161 28 l95 1 2 35 c1 20 -2 40 -7 46 -12 15 -12 153 0 160 6 4 10 37
9 75 -1 58 -5 70 -20 75 -10 4 -24 3 -30 -1 -12 -7 -219 -12 -219 -5 0 2 11
19 25 37 30 39 30 40 8 49 -37 14 -93 16 -94 3z m16 -212 l0 -41 -47 3 c-45 4
-46 5 -50 40 l-3 37 50 1 50 1 0 -41z m211 31 c1 -1 4 -18 8 -37 l6 -35 -73 1
c-59 0 -73 4 -75 17 -2 9 4 24 12 33 9 8 14 19 12 23 -4 5 105 4 110 -2z
m-212 -180 l-2 -39 -48 -2 -49 -1 0 40 0 40 50 0 51 0 -2 -38z m221 -3 l0 -43
-65 2 -65 2 3 40 4 40 61 1 62 1 0 -43z m45 -350 c0 -11 6 -15 18 -12 15 4 18
1 14 -18 -7 -37 -37 -57 -84 -56 -70 0 -108 8 -125 25 -14 14 -15 20 -3 44 11
22 14 24 17 11 3 -10 5 -18 6 -18 1 1 31 9 67 20 82 23 90 24 90 4z"/>
<path d="M82 915 c-1 -19 3 -37 8 -40 12 -8 12 -173 -1 -180 -12 -8 -12 -142
1 -150 13 -8 13 -52 -1 -60 -6 -4 -9 -58 -8 -148 1 -78 0 -161 -3 -184 -5 -47
3 -53 65 -45 37 4 39 6 33 36 -3 17 -8 88 -12 159 -5 93 -4 127 5 127 7 0 11
19 11 50 0 28 -4 50 -10 50 -5 0 -10 11 -10 25 0 14 5 25 10 25 6 0 10 30 10
70 0 40 -4 70 -10 70 -5 0 -10 11 -10 25 0 14 5 25 10 25 6 0 10 18 10 39 l0
39 50 4 c28 1 50 2 50 1 0 -1 -18 -54 -41 -119 l-41 -116 20 -27 c34 -47 63
-112 67 -151 4 -49 -16 -69 -67 -65 -21 2 -38 2 -38 -1 0 -2 9 -18 20 -36 11
-18 20 -41 20 -51 0 -16 5 -17 33 -12 68 15 106 46 125 102 9 27 7 44 -10 95
-11 35 -32 81 -47 103 -26 38 -26 42 -15 97 6 31 28 105 49 163 21 58 35 109
31 112 -4 4 -21 1 -39 -5 -39 -14 -103 -16 -111 -3 -3 5 -39 9 -79 9 l-74 0
-1 -33z"/>
</g>
</svg>
