<?xml version="1.0" standalone="no"?>
<!DOCTYPE svg PUBLIC "-//W3C//DTD SVG 20010904//EN"
 "http://www.w3.org/TR/2001/REC-SVG-20010904/DTD/svg10.dtd">
<svg version="1.0" xmlns="http://www.w3.org/2000/svg"
 width="101.000000pt" height="101.000000pt" viewBox="0 0 101.000000 101.000000"
 preserveAspectRatio="xMidYMid meet">
<metadata>
Created by potrace 1.16, written by Peter Selinger 2001-2019
</metadata>
<g transform="translate(0.000000,101.000000) scale(0.100000,-0.100000)"
fill="#000000" stroke="none">
<path d="M470 995 c0 -8 0 -16 1 -17 3 -9 -64 -175 -94 -233 -28 -56 -37 -66
-43 -51 -4 11 -2 21 6 26 14 9 41 145 33 165 -6 17 -66 23 -201 21 -116 -1
-132 -7 -132 -46 0 -39 16 -45 122 -45 l103 0 -1 -25 c-1 -14 -5 -33 -9 -43
-4 -9 -5 -26 -2 -37 3 -11 1 -22 -3 -25 -4 -3 -8 -21 -8 -41 0 -19 -2 -38 -5
-40 -3 -3 -29 29 -58 70 -30 42 -56 75 -59 75 -3 0 -20 -13 -39 -29 l-33 -28
54 -69 c30 -37 64 -82 75 -98 l21 -31 -49 -74 c-28 -41 -63 -89 -80 -105 -16
-17 -29 -35 -29 -41 0 -6 16 -26 36 -45 l35 -34 19 25 c11 14 43 64 71 113
l52 87 26 -47 c15 -27 33 -63 40 -80 7 -18 15 -33 18 -33 11 0 83 46 83 53 0
4 -26 47 -58 95 -60 90 -69 122 -43 170 10 18 16 20 31 12 10 -6 22 -15 26
-21 4 -7 16 3 30 27 l24 39 0 -160 c0 -88 3 -210 7 -272 7 -121 10 -127 68
-116 25 5 26 8 22 53 -5 43 -3 48 16 49 37 3 219 3 277 0 113 -5 147 -1 153
21 9 34 -3 61 -24 55 -10 -3 -27 -1 -39 5 -16 8 -28 7 -56 -6 -28 -13 -40 -14
-59 -6 -14 6 -31 9 -39 6 -20 -8 -32 40 -18 72 7 13 9 30 6 38 -6 16 7 18 107
17 59 -1 67 1 72 19 11 41 -2 56 -46 57 -73 3 -81 3 -112 1 -28 -3 -30 -1 -27
27 1 17 3 40 3 52 1 20 8 22 90 29 93 7 104 14 93 59 -6 23 -9 24 -95 22 l-89
-2 2 50 3 50 93 0 c95 0 112 7 112 45 0 38 -15 43 -130 44 -107 1 -111 2 -76
15 24 9 35 19 32 28 -13 33 -72 113 -84 113 -11 0 -69 -26 -81 -36 -2 -1 6
-15 17 -31 10 -15 27 -43 36 -61 l17 -32 -81 2 c-44 2 -80 4 -80 6 0 1 14 29
30 62 17 33 30 62 30 64 0 4 -95 36 -107 36 -2 0 -3 -7 -3 -15z m186 -288 l1
-53 -66 1 -66 0 0 50 0 50 65 2 65 2 1 -52z m0 -187 l2 -60 -33 -6 c-18 -3
-42 -1 -53 5 -11 6 -27 9 -34 6 -10 -4 -13 9 -13 52 l0 58 65 2 65 2 1 -59z
m-20 -126 c14 -4 22 -14 22 -27 1 -12 4 -35 7 -52 10 -55 -6 -63 -123 -54 -27
1 -39 40 -24 75 7 13 9 31 5 40 -5 13 -2 15 13 10 10 -3 26 -1 34 4 17 11 36
12 66 4z"/>
</g>
</svg>
