<?xml version="1.0" standalone="no"?>
<!DOCTYPE svg PUBLIC "-//W3C//DTD SVG 20010904//EN"
 "http://www.w3.org/TR/2001/REC-SVG-20010904/DTD/svg10.dtd">
<svg version="1.0" xmlns="http://www.w3.org/2000/svg"
 width="101.000000pt" height="102.000000pt" viewBox="0 0 101.000000 102.000000"
 preserveAspectRatio="xMidYMid meet">
<metadata>
Created by potrace 1.16, written by Peter Selinger 2001-2019
</metadata>
<g transform="translate(0.000000,102.000000) scale(0.100000,-0.100000)"
fill="#000000" stroke="none">
<path d="M475 963 c-25 -87 -71 -177 -122 -239 -24 -31 -43 -57 -41 -59 13
-12 88 -44 88 -38 0 5 8 18 18 30 16 22 17 14 17 -180 l0 -203 -75 98 c-42 54
-76 109 -76 122 -2 24 0 25 62 20 61 -4 64 -3 70 20 11 45 -3 64 -51 72 -25 3
-52 3 -61 0 -15 -6 -16 0 -11 46 4 29 7 63 7 75 0 17 8 23 40 28 43 7 55 26
44 69 -6 26 -35 42 -54 31 -13 -8 -140 -12 -140 -5 0 3 14 29 30 59 16 29 27
57 25 61 -6 9 -104 34 -110 28 -4 -4 -14 -47 -20 -88 -7 -41 -34 -112 -66
-168 l-29 -52 25 -10 c68 -26 70 -25 92 32 14 37 26 53 39 54 17 1 19 -7 20
-85 l1 -86 -41 2 c-22 1 -53 5 -69 9 -34 8 -57 -10 -57 -45 0 -50 16 -58 85
-46 76 12 80 12 78 -15 -8 -115 -43 -202 -117 -293 l-44 -54 46 -22 46 -23 24
29 c21 25 90 161 106 206 10 30 13 25 93 -131 1 -2 19 8 40 22 43 30 58 33 49
11 -3 -8 -1 -26 5 -39 8 -16 8 -38 1 -69 -10 -51 -3 -58 55 -50 26 4 30 9 31
36 3 71 4 75 26 76 11 0 57 3 101 6 44 3 111 0 150 -6 66 -10 145 -13 153 -4
10 10 5 77 -6 84 -7 4 -38 1 -68 -6 -34 -9 -67 -12 -83 -7 -14 4 -35 8 -46 8
-17 1 -20 7 -17 36 1 19 3 45 3 58 1 16 6 22 15 18 8 -3 25 -1 38 5 16 8 38 8
69 1 43 -9 45 -8 50 15 10 53 0 63 -62 62 -105 -1 -116 2 -113 36 1 17 3 40 3
51 1 15 8 22 23 23 69 5 94 4 118 -3 21 -6 27 -4 32 12 4 11 4 32 0 46 -6 25
-8 25 -88 23 l-81 -2 3 53 c4 51 5 52 35 53 18 1 37 0 42 -1 87 -21 129 -3
123 54 -3 27 -8 32 -41 40 -24 6 -48 6 -65 0 -15 -5 -47 -6 -72 -3 -25 3 -37
7 -27 7 30 3 30 30 2 88 -29 60 -31 60 -100 34 l-26 -10 26 -44 c46 -79 44
-83 -41 -82 -41 1 -74 2 -74 4 0 7 44 90 61 114 l19 26 -47 16 c-26 9 -52 16
-59 16 -7 0 -20 -26 -29 -57z m193 -252 l-3 -55 -67 -1 c-74 0 -73 -1 -62 67
7 40 13 43 92 43 l43 1 -3 -55z m-22 -129 c5 -4 11 -16 11 -27 1 -11 5 -32 8
-47 6 -23 3 -29 -18 -39 -16 -7 -36 -8 -54 -3 -15 4 -37 8 -48 8 -16 1 -19 7
-17 31 1 17 3 40 3 53 1 16 6 21 18 18 9 -3 23 -1 31 4 18 11 51 13 66 2z m0
-190 c5 -4 11 -16 12 -27 1 -11 4 -34 8 -52 5 -28 3 -34 -19 -44 -16 -7 -36
-8 -54 -3 -15 4 -37 8 -48 8 -17 1 -20 7 -17 36 1 19 3 45 3 58 1 16 6 21 18
18 9 -3 23 -1 31 4 18 11 51 13 66 2z"/>
</g>
</svg>
