<?xml version="1.0" standalone="no"?>
<!DOCTYPE svg PUBLIC "-//W3C//DTD SVG 20010904//EN"
 "http://www.w3.org/TR/2001/REC-SVG-20010904/DTD/svg10.dtd">
<svg version="1.0" xmlns="http://www.w3.org/2000/svg"
 width="101.000000pt" height="101.000000pt" viewBox="0 0 101.000000 101.000000"
 preserveAspectRatio="xMidYMid meet">
<metadata>
Created by potrace 1.16, written by Peter Selinger 2001-2019
</metadata>
<g transform="translate(0.000000,101.000000) scale(0.100000,-0.100000)"
fill="#000000" stroke="none">
<path d="M176 989 c-27 -94 -67 -181 -106 -237 l-48 -69 35 -12 c25 -10 32
-16 24 -24 -16 -16 -13 -63 6 -82 14 -14 33 -16 129 -11 l112 5 4 -47 c3 -26
4 -48 3 -50 -4 -6 -112 -4 -145 3 -47 9 -89 9 -97 1 -8 -7 -8 -75 0 -82 9 -9
96 -2 114 9 6 4 38 4 71 1 52 -6 60 -9 60 -28 1 -11 4 -36 8 -53 5 -29 3 -34
-21 -43 -25 -9 -134 -8 -222 3 -35 4 -44 -11 -36 -56 6 -30 27 -37 84 -27 24
5 47 6 51 4 4 -3 17 0 28 6 12 7 39 8 65 5 l43 -7 -4 -49 c-5 -53 -3 -55 61
-50 33 3 48 18 39 41 -6 18 -5 482 1 488 3 3 11 -1 19 -7 11 -10 17 -7 30 11
18 26 19 24 16 -68 -1 -29 3 -55 9 -59 13 -8 15 -52 2 -59 -12 -8 -13 -114 -1
-121 15 -9 12 -58 -5 -99 -12 -28 -13 -41 -4 -57 6 -12 8 -31 5 -44 -7 -26 14
-36 58 -28 25 5 31 19 28 64 -1 11 7 17 21 18 83 6 231 5 278 -1 l57 -8 4 32
c8 50 -1 71 -26 62 -19 -6 -48 -7 -114 -3 -27 1 -39 40 -24 75 7 13 9 30 6 38
-6 15 4 17 88 18 37 0 47 5 51 19 11 42 -2 56 -51 57 -91 1 -87 -1 -84 56 l4
51 60 1 c60 0 78 10 78 44 0 32 -17 41 -81 43 l-65 2 0 45 1 45 78 -2 c74 -1
77 0 83 23 3 13 3 35 0 49 -5 20 -12 25 -34 23 -15 -1 -56 -1 -92 1 l-65 2 35
15 c19 8 36 17 38 19 4 4 -57 115 -64 115 -6 0 -84 -32 -84 -35 0 -1 11 -22
24 -46 13 -24 27 -54 31 -66 6 -21 3 -23 -29 -23 -20 0 -36 5 -36 10 0 6 -18
10 -40 10 -22 0 -40 2 -40 5 0 11 32 70 48 87 14 16 12 19 -19 32 -82 33 -84
33 -94 -24 -3 -18 -8 -37 -11 -42 -3 -4 -7 -17 -9 -29 -7 -37 -52 -123 -91
-176 -30 -41 -45 -53 -66 -53 -16 0 -28 3 -28 8 0 4 25 52 55 107 60 107 64
121 38 110 -38 -14 -123 -18 -138 -5 -8 7 -24 10 -35 7 -19 -5 -19 -4 -4 27 9
17 23 39 31 48 13 14 13 18 -4 26 -35 19 -92 25 -97 11z m124 -197 c0 -1 -18
-38 -40 -82 l-40 -80 -55 0 c-34 0 -55 4 -55 11 0 10 59 116 81 144 6 9 109
15 109 7z m402 -81 l3 -46 -55 0 -55 0 0 45 0 45 52 1 51 2 4 -47z m3 -187 l0
-51 -55 1 -55 1 0 50 0 50 55 0 55 0 0 -51z m1 -149 c0 -11 4 -33 8 -48 5 -18
4 -38 -3 -54 -10 -22 -16 -24 -44 -19 -18 4 -42 7 -55 8 -27 0 -40 38 -24 74
7 13 9 31 5 40 -5 13 -2 15 13 10 10 -3 26 -1 34 4 25 17 65 8 66 -15z"/>
</g>
</svg>
