<?xml version="1.0" standalone="no"?>
<!DOCTYPE svg PUBLIC "-//W3C//DTD SVG 20010904//EN"
 "http://www.w3.org/TR/2001/REC-SVG-20010904/DTD/svg10.dtd">
<svg version="1.0" xmlns="http://www.w3.org/2000/svg"
 width="101.000000pt" height="101.000000pt" viewBox="0 0 101.000000 101.000000"
 preserveAspectRatio="xMidYMid meet">
<metadata>
Created by potrace 1.16, written by Peter Selinger 2001-2019
</metadata>
<g transform="translate(0.000000,101.000000) scale(0.100000,-0.100000)"
fill="#000000" stroke="none">
<path d="M499 988 c0 -7 -2 -20 -4 -28 -2 -8 -7 -28 -10 -45 -7 -36 -76 -181
-102 -212 -18 -22 -18 -20 -16 107 1 130 1 130 -23 136 -13 3 -41 3 -62 -1
-20 -4 -74 -8 -120 -9 -77 -1 -83 -3 -89 -24 -3 -12 0 -28 5 -35 14 -16 14
-174 1 -182 -12 -8 -12 -142 1 -150 13 -8 13 -52 0 -60 -7 -4 -10 -50 -8 -121
2 -71 -1 -114 -7 -114 -31 -1 -36 -17 -18 -56 9 -21 18 -41 20 -43 1 -2 53 19
115 46 62 28 138 60 169 72 45 18 58 28 62 48 8 42 -2 64 -23 53 -27 -14 -27
-15 -34 42 -5 37 -4 54 6 60 10 8 10 11 1 15 -15 6 -18 73 -3 73 6 0 10 17 10
38 l1 37 15 -27 c18 -34 25 -35 44 -4 15 24 15 23 17 -27 2 -29 3 -73 3 -99 1
-27 1 -58 2 -70 0 -13 0 -87 0 -165 -1 -154 1 -157 61 -146 19 4 24 11 25 36
3 71 4 75 26 77 64 6 305 0 327 -8 14 -6 31 -7 38 -2 13 7 20 74 9 85 -3 3
-27 1 -54 -5 -27 -6 -60 -8 -74 -4 -14 4 -34 8 -45 8 -17 1 -20 7 -17 36 1 19
3 45 3 57 1 19 6 21 38 17 20 -2 43 -5 51 -5 8 -1 29 -1 46 -1 34 2 47 24 37
62 -5 17 -13 20 -62 19 -105 -1 -116 2 -113 36 1 17 3 40 3 51 1 15 8 22 23
23 69 5 94 4 118 -3 22 -6 27 -4 33 14 4 12 4 33 1 46 -5 20 -13 25 -34 24
-15 -1 -55 -2 -89 -1 l-63 1 0 48 0 47 77 2 c42 1 82 -2 89 -8 24 -20 53 11
54 58 0 20 -32 45 -49 37 -9 -4 -56 -8 -105 -8 -88 -1 -89 -1 -53 14 20 8 37
20 37 26 0 8 -51 96 -65 112 -2 2 -76 -27 -82 -32 -2 -2 11 -28 28 -60 17 -31
29 -59 27 -62 -3 -2 -37 -1 -77 2 l-71 7 30 55 c17 31 30 59 30 63 0 7 -84 39
-102 39 -4 0 -8 -6 -9 -12z m-224 -193 l0 -60 -52 0 -52 0 2 60 2 60 50 0 50
0 0 -60z m385 -55 c0 -8 3 -31 6 -50 l6 -35 -66 0 -66 0 2 50 3 50 58 0 c44 0
57 -3 57 -15z m-386 -148 l-1 -67 -29 3 c-16 1 -38 3 -49 4 -18 0 -20 7 -20
59 l0 58 45 4 c25 2 47 4 50 5 3 1 5 -28 4 -66z m394 -35 c0 -12 4 -34 7 -49
6 -23 3 -29 -18 -39 -16 -7 -36 -8 -54 -3 -15 4 -37 8 -48 8 -16 1 -19 7 -17
31 1 17 3 39 4 50 0 18 8 20 63 22 58 1 63 0 63 -20z m-391 -107 c1 -14 5 -36
8 -50 11 -45 -9 -76 -61 -94 -26 -9 -49 -15 -51 -13 -3 4 -5 104 -2 150 1 21
5 26 18 23 9 -3 23 -1 31 4 26 17 55 7 57 -20z m379 -48 c5 -4 11 -16 12 -27
1 -11 4 -34 8 -52 5 -28 3 -34 -19 -44 -16 -7 -36 -8 -54 -3 -15 4 -37 8 -48
8 -17 1 -20 7 -17 36 1 19 3 45 3 58 1 16 6 21 18 18 9 -3 23 -1 31 4 18 11
51 13 66 2z"/>
</g>
</svg>
