<?xml version="1.0" standalone="no"?>
<!DOCTYPE svg PUBLIC "-//W3C//DTD SVG 20010904//EN"
 "http://www.w3.org/TR/2001/REC-SVG-20010904/DTD/svg10.dtd">
<svg version="1.0" xmlns="http://www.w3.org/2000/svg"
 width="101.000000pt" height="101.000000pt" viewBox="0 0 101.000000 101.000000"
 preserveAspectRatio="xMidYMid meet">
<metadata>
Created by potrace 1.16, written by Peter Selinger 2001-2019
</metadata>
<g transform="translate(0.000000,101.000000) scale(0.100000,-0.100000)"
fill="#000000" stroke="none">
<path d="M126 974 c-13 -51 -1 -62 67 -62 34 0 68 5 74 10 8 6 43 7 92 3 62
-5 80 -11 84 -24 3 -14 -6 -17 -62 -18 -84 -2 -127 -2 -229 0 -64 2 -85 -1
-93 -13 -10 -14 -4 -179 7 -189 6 -6 74 -5 79 1 3 2 6 30 7 61 l3 57 43 0 c23
0 42 5 42 10 0 6 11 10 25 10 14 0 25 -5 25 -11 0 -7 25 -10 78 -8 l77 4 -3
-60 c-3 -75 6 -89 54 -88 43 1 57 17 49 58 -4 17 -7 44 -8 60 l-2 30 155 1
156 0 -2 -58 c-1 -54 1 -59 22 -64 13 -4 35 -3 48 0 22 5 25 13 31 80 11 113
11 113 -98 120 -51 3 -142 5 -202 3 -96 -2 -111 0 -111 14 0 10 6 14 18 11 10
-2 25 1 33 8 15 12 222 8 257 -5 20 -8 32 23 23 57 -6 23 -11 24 -91 26 -50 1
-84 -2 -84 -8 0 -6 -11 -10 -25 -10 -14 0 -25 5 -25 10 0 6 -30 10 -70 10 -40
0 -70 -4 -70 -10 0 -6 -33 -10 -80 -10 -47 0 -80 4 -80 10 0 6 -18 10 -40 10
-22 0 -40 -4 -40 -10 0 -5 -25 -10 -55 -10 -30 0 -55 5 -55 10 0 21 -18 9 -24
-16z"/>
<path d="M580 770 c-6 -11 -8 -29 -5 -39 5 -17 16 -19 105 -18 104 2 114 6
103 46 -5 19 -12 20 -82 19 -42 0 -84 2 -93 6 -11 5 -20 1 -28 -14z"/>
<path d="M183 763 c-3 -8 0 -26 6 -40 12 -25 22 -26 116 -12 6 1 22 -2 36 -5
32 -9 62 16 57 48 -3 20 -9 21 -106 22 -82 1 -105 -1 -109 -13z"/>
<path d="M179 683 c-10 -2 -16 -15 -17 -33 -1 -30 -1 -30 46 -24 70 9 103 9
143 0 40 -9 52 4 42 44 -5 20 -10 21 -57 14 -59 -10 -105 -10 -126 -2 -8 3
-22 4 -31 1z"/>
<path d="M577 669 c-10 -38 1 -49 46 -43 63 9 98 9 138 0 40 -9 52 4 42 43 -5
19 -10 21 -42 14 -39 -8 -73 -8 -137 1 -36 5 -43 3 -47 -15z"/>
<path d="M448 643 c-22 -5 -22 -6 -2 -44 8 -17 13 -33 11 -36 -8 -7 -275 -7
-333 1 -46 6 -52 4 -57 -14 -12 -47 23 -81 63 -60 9 5 33 7 54 6 21 -2 51 1
66 7 15 6 35 7 45 3 17 -6 16 -8 -5 -31 -13 -14 -22 -27 -19 -29 2 -2 28 -16
57 -30 30 -15 52 -29 50 -31 -5 -5 -81 -18 -118 -20 -19 -1 -60 -7 -91 -14
-40 -10 -61 -11 -76 -3 -11 6 -29 8 -41 5 -23 -5 -25 0 34 -92 4 -4 43 -3 79
3 84 15 155 25 155 21 0 -1 -5 -16 -11 -34 -12 -33 -55 -62 -99 -67 -76 -8
-113 -13 -115 -16 -2 -2 14 -22 34 -45 l38 -42 59 15 c93 24 138 55 162 111
11 26 23 63 27 80 9 46 53 57 135 35 38 -10 59 -21 56 -28 -3 -7 0 -25 6 -41
8 -21 7 -42 -4 -85 -8 -31 -11 -63 -7 -70 7 -11 85 -15 95 -5 3 2 -1 28 -7 57
-8 38 -8 59 0 76 6 13 8 31 4 40 -5 13 -2 15 15 10 37 -12 98 -23 164 -31 36
-3 39 -2 60 43 12 26 23 50 25 53 2 3 -38 5 -89 6 -51 0 -109 4 -128 7 -19 3
-48 8 -65 11 -16 3 -39 7 -50 9 -11 2 -24 4 -30 5 -5 1 10 13 35 27 25 14 63
40 85 59 35 28 46 32 85 28 58 -6 101 -5 108 2 7 7 7 63 0 70 -3 3 -36 1 -74
-5 -59 -9 -157 -8 -253 2 -17 2 -27 12 -35 35 -6 17 -13 33 -16 36 -9 7 -64
14 -82 10z m154 -142 c20 -7 19 -9 -23 -34 -88 -51 -91 -51 -145 -24 -27 14
-58 33 -69 42 l-20 16 20 -5 c11 -3 26 -2 33 3 18 11 175 13 204 2z"/>
</g>
</svg>
