<?xml version="1.0" standalone="no"?>
<!DOCTYPE svg PUBLIC "-//W3C//DTD SVG 20010904//EN"
 "http://www.w3.org/TR/2001/REC-SVG-20010904/DTD/svg10.dtd">
<svg version="1.0" xmlns="http://www.w3.org/2000/svg"
 width="101.000000pt" height="101.000000pt" viewBox="0 0 101.000000 101.000000"
 preserveAspectRatio="xMidYMid meet">
<metadata>
Created by potrace 1.16, written by Peter Selinger 2001-2019
</metadata>
<g transform="translate(0.000000,101.000000) scale(0.100000,-0.100000)"
fill="#000000" stroke="none">
<path d="M160 992 c-21 -10 -22 -80 -1 -86 30 -8 85 -5 98 5 16 14 190 0 196
-15 4 -11 -6 -12 -163 -16 -19 0 -61 2 -93 6 -32 3 -74 3 -92 0 l-34 -7 2 -87
c2 -83 3 -87 26 -90 12 -2 34 -1 47 2 21 6 23 11 21 51 l-3 45 43 0 c24 0 43
5 43 10 0 6 11 10 25 10 14 0 25 -5 25 -11 0 -7 25 -10 78 -8 l77 4 -1 -60 c0
-33 -4 -67 -7 -75 -12 -26 9 -44 49 -43 46 1 56 16 49 73 -3 25 -6 59 -8 75
l-2 30 150 0 150 1 0 -44 c0 -45 14 -62 50 -62 40 0 48 15 51 98 l3 80 -92 6
c-51 3 -142 5 -203 3 -76 -1 -111 1 -111 9 0 6 9 9 19 6 10 -2 24 0 31 6 16
14 174 14 182 1 10 -15 82 -10 100 7 15 16 14 58 -2 74 -2 3 -44 4 -91 3 -91
-2 -243 -4 -349 -4 -35 0 -91 0 -125 -1 -35 0 -76 2 -93 5 -16 4 -37 3 -45 -1z"/>
<path d="M184 775 c-4 -8 -3 -26 0 -39 6 -23 9 -24 115 -24 115 -1 126 3 114
46 -4 19 -11 20 -104 15 -71 -4 -99 -3 -99 6 0 16 -20 14 -26 -4z"/>
<path d="M570 775 c-15 -18 -4 -54 18 -57 9 -1 61 -2 115 -2 81 -1 98 2 102
15 11 32 -5 46 -58 53 -91 11 -164 7 -177 -9z"/>
<path d="M191 678 c-5 -13 -6 -28 -4 -35 6 -16 43 -24 64 -12 10 5 48 7 86 5
71 -5 84 2 75 36 -4 18 -10 19 -68 12 -45 -4 -64 -3 -64 5 0 6 -17 11 -40 11
-33 0 -42 -4 -49 -22z"/>
<path d="M584 692 c-16 -11 -23 -37 -14 -51 8 -14 16 -14 118 -7 35 3 74 1 87
-4 27 -10 37 4 28 40 -5 19 -10 21 -53 15 -26 -4 -50 -2 -54 3 -6 11 -97 15
-112 4z"/>
<path d="M179 603 c-20 -5 -31 -40 -20 -62 14 -27 11 -133 -6 -191 -22 -78
-45 -119 -92 -164 l-41 -40 48 -23 c26 -12 48 -23 49 -23 11 0 77 117 93 165
20 60 21 61 59 62 43 2 42 4 43 -90 0 -32 -5 -54 -17 -67 -15 -16 -15 -23 -4
-55 10 -26 17 -34 29 -29 8 4 56 23 105 42 50 19 92 36 94 38 7 6 5 63 -2 70
-3 3 -31 -4 -63 -15 -65 -25 -79 -18 -69 34 3 17 6 39 7 50 0 17 8 21 44 23
41 1 45 -1 63 -36 22 -43 93 -112 142 -137 37 -20 169 -66 169 -60 0 3 11 0
25 -5 27 -10 29 -9 80 55 l23 31 -36 1 c-20 1 -50 4 -67 7 -16 3 -46 7 -65 10
-19 2 -46 9 -60 14 -23 9 -19 12 48 32 39 12 72 27 72 33 0 6 -10 21 -22 34
l-22 24 33 -6 c19 -3 37 -8 41 -10 14 -9 33 16 33 44 0 50 0 50 -153 31 -67
-9 -104 -9 -125 -2 -16 6 -52 8 -80 5 -45 -4 -216 -6 -273 -2 -20 1 -22 5 -16
48 3 25 6 56 6 67 0 15 7 22 22 23 52 4 226 2 271 -2 28 -3 64 -1 81 5 29 10
176 -1 214 -16 24 -9 43 10 43 44 0 37 -17 52 -49 40 -20 -8 -125 -12 -304
-11 -36 0 -108 0 -160 0 -96 -1 -148 3 -166 13 -5 2 -16 3 -25 1z m526 -272
l30 -7 -55 -32 -55 -31 -27 26 c-32 30 -36 47 -10 39 9 -3 24 -1 32 4 17 11
40 11 85 1z"/>
<path d="M277 480 c-3 -11 -3 -29 0 -40 5 -18 11 -20 57 -14 55 7 173 7 358 2
105 -3 117 -1 122 14 2 10 2 26 0 36 -5 15 -17 17 -122 14 -185 -5 -303 -5
-358 2 -46 6 -52 4 -57 -14z"/>
</g>
</svg>
