<?xml version="1.0" standalone="no"?>
<!DOCTYPE svg PUBLIC "-//W3C//DTD SVG 20010904//EN"
 "http://www.w3.org/TR/2001/REC-SVG-20010904/DTD/svg10.dtd">
<svg version="1.0" xmlns="http://www.w3.org/2000/svg"
 width="101.000000pt" height="101.000000pt" viewBox="0 0 101.000000 101.000000"
 preserveAspectRatio="xMidYMid meet">
<metadata>
Created by potrace 1.16, written by Peter Selinger 2001-2019
</metadata>
<g transform="translate(0.000000,101.000000) scale(0.100000,-0.100000)"
fill="#000000" stroke="none">
<path d="M158 994 c-18 -6 -31 -44 -22 -68 3 -8 21 -18 40 -22 49 -9 157 0
162 14 4 13 33 15 79 6 26 -5 30 -10 29 -35 -1 -29 -3 -30 -37 -24 -22 4 -40
2 -44 -4 -8 -14 -52 -14 -60 -1 -4 6 -43 10 -88 10 -45 0 -95 1 -112 3 l-30 2
0 -102 c0 -112 1 -114 63 -105 36 5 47 28 40 87 -4 33 -2 35 24 35 15 0 28 5
28 10 0 11 93 13 162 4 l45 -6 5 -94 c3 -52 8 -98 12 -101 8 -8 75 -7 83 0 6
7 7 31 1 131 l-4 78 140 -7 c78 -4 142 -8 143 -9 1 -1 3 -27 5 -58 3 -63 11
-70 69 -59 l34 6 2 92 c2 99 -5 111 -50 94 -12 -5 -54 -7 -94 -5 -42 3 -74 0
-78 -6 -8 -13 -48 -13 -62 1 -6 6 -33 9 -60 8 -46 -4 -48 -3 -48 21 l0 25 115
-3 c63 -1 127 -5 142 -8 59 -13 98 17 84 64 -5 15 -23 17 -173 17 -93 0 -173
-3 -178 -7 -16 -10 -173 -9 -180 2 -3 5 -29 9 -58 9 -29 0 -65 2 -82 5 -16 2
-37 2 -47 0z"/>
<path d="M229 754 c-10 -3 -19 -13 -22 -23 -11 -42 23 -54 125 -45 65 5 78 10
84 26 3 11 2 24 -3 28 -10 9 -161 21 -184 14z"/>
<path d="M590 753 c-59 -24 -24 -75 49 -72 25 1 52 6 58 12 7 5 28 6 47 3 29
-6 35 -3 41 15 4 11 2 26 -4 32 -12 12 -167 20 -191 10z"/>
<path d="M589 653 c-18 -4 -31 -37 -23 -58 5 -13 54 -14 84 -1 9 4 43 3 77 -2
66 -9 77 -3 66 36 -6 24 -36 34 -67 23 -22 -8 -68 -7 -102 1 -10 3 -26 4 -35
1z"/>
<path d="M209 643 c-19 -5 -30 -35 -19 -53 4 -7 18 -11 31 -10 13 1 60 2 104
2 82 1 96 7 88 38 -4 15 -16 17 -81 16 -42 0 -84 2 -92 6 -8 3 -22 4 -31 1z"/>
<path d="M648 572 c-14 -3 -17 -12 -15 -45 2 -46 3 -46 -95 -34 -29 4 -37 2
-41 -14 -13 -48 5 -65 66 -60 34 3 34 -6 -2 -55 -35 -48 -75 -89 -122 -123
-19 -14 -35 -30 -35 -36 1 -5 16 -23 34 -39 l32 -28 43 47 c23 26 61 74 83
107 47 65 43 70 47 -67 1 -44 -2 -90 -6 -101 -9 -24 13 -35 55 -27 23 4 24 7
25 106 2 161 1 155 30 110 29 -43 120 -140 144 -153 13 -7 23 1 48 35 l32 44
-42 21 c-45 23 -119 88 -150 131 l-19 27 23 2 c12 1 45 1 74 1 55 1 68 14 56
60 -5 18 -10 20 -42 14 -33 -7 -68 -8 -127 -4 -17 1 -21 7 -19 33 3 28 -1 33
-28 42 -18 5 -40 8 -49 6z"/>
<path d="M258 550 c0 -8 0 -25 1 -37 1 -18 -5 -23 -33 -28 -19 -4 -40 -4 -47
0 -6 5 -29 9 -49 11 -31 3 -39 0 -43 -16 -13 -52 19 -77 73 -57 22 8 33 8 41
0 21 -21 -84 -133 -160 -173 l-24 -12 37 -34 c20 -19 40 -34 45 -34 10 0 70
64 119 127 46 59 43 65 45 -89 1 -84 3 -97 19 -101 10 -3 26 -3 36 0 16 4 19
16 20 91 1 134 1 135 21 120 9 -6 28 -23 44 -37 l27 -25 30 29 30 29 -25 26
c-15 15 -37 33 -51 40 -21 12 -27 11 -48 -9 l-24 -23 1 35 c1 37 -1 37 84 40
44 1 57 16 46 57 -6 22 -23 26 -41 8 -9 -9 -18 -9 -37 0 -13 6 -31 9 -39 6
-12 -4 -14 2 -10 30 3 29 1 36 -13 37 -67 5 -73 4 -75 -11z"/>
</g>
</svg>
