<?xml version="1.0" standalone="no"?>
<!DOCTYPE svg PUBLIC "-//W3C//DTD SVG 20010904//EN"
 "http://www.w3.org/TR/2001/REC-SVG-20010904/DTD/svg10.dtd">
<svg version="1.0" xmlns="http://www.w3.org/2000/svg"
 width="101.000000pt" height="101.000000pt" viewBox="0 0 101.000000 101.000000"
 preserveAspectRatio="xMidYMid meet">
<metadata>
Created by potrace 1.16, written by Peter Selinger 2001-2019
</metadata>
<g transform="translate(0.000000,101.000000) scale(0.100000,-0.100000)"
fill="#000000" stroke="none">
<path d="M168 1004 c-18 -6 -32 -47 -23 -74 10 -31 111 -43 139 -15 17 17 76
20 76 4 0 -7 17 -10 44 -7 37 2 44 0 43 -14 -1 -16 -11 -17 -104 -11 -75 4
-103 3 -103 -5 0 -7 -11 -12 -25 -12 -14 0 -25 5 -25 10 0 6 -27 10 -60 10
-71 0 -72 -3 -68 -122 3 -84 7 -89 65 -81 30 5 32 8 38 62 l6 56 145 2 c142 1
144 1 144 -20 0 -12 -7 -31 -15 -41 -26 -34 -16 -111 14 -119 9 -2 31 -2 48 0
l31 5 1 81 c0 44 3 82 6 85 2 3 27 4 54 4 28 -1 53 3 56 8 6 11 123 14 148 5
10 -4 13 -19 10 -53 -5 -63 6 -77 58 -75 41 2 64 18 52 36 -5 8 -7 111 -3 132
6 28 -7 30 -193 30 -165 0 -193 2 -193 15 0 13 23 15 147 14 l147 -2 7 25 c14
56 8 58 -154 61 -86 1 -152 -2 -156 -7 -7 -12 -172 -13 -180 -1 -3 5 -29 9
-58 9 -29 0 -63 2 -77 5 -14 2 -32 2 -42 0z"/>
<path d="M183 774 c-3 -8 -1 -26 5 -40 10 -20 19 -24 52 -24 23 0 40 5 40 11
0 8 18 10 59 5 63 -7 75 1 65 41 -5 18 -16 20 -110 21 -85 1 -106 -2 -111 -14z"/>
<path d="M567 768 c-13 -50 17 -61 133 -52 74 6 81 9 86 31 4 13 4 26 1 30 -3
3 -53 7 -111 8 -97 3 -104 2 -109 -17z"/>
<path d="M187 679 c-10 -38 1 -49 46 -43 65 9 99 9 134 2 35 -8 46 5 36 41 -6
22 -37 29 -49 10 -4 -6 -19 -8 -38 -5 -17 4 -52 9 -77 11 -41 5 -47 3 -52 -16z"/>
<path d="M567 679 c-11 -40 1 -49 52 -43 61 8 101 8 132 -1 29 -8 41 9 32 44
-4 17 -10 19 -37 13 -34 -7 -68 -7 -132 2 -36 5 -43 3 -47 -15z"/>
<path d="M139 603 c-21 -5 -31 -40 -19 -62 8 -16 6 -145 -4 -246 -2 -27 0 -64
7 -82 8 -23 8 -42 0 -67 -12 -39 -2 -47 53 -39 27 4 31 9 32 41 3 78 4 83 17
78 8 -3 27 0 43 6 22 9 39 8 74 -4 72 -25 125 -7 111 37 -8 28 -22 35 -50 24
-22 -8 -101 -12 -163 -8 -33 2 -39 46 -6 48 11 0 51 3 89 6 37 2 78 0 91 -5
20 -7 25 -5 29 11 3 10 3 28 0 39 -4 16 -10 19 -27 13 -18 -7 -111 -8 -181 -2
-29 2 -30 46 -1 48 79 6 174 5 192 -2 20 -7 21 -4 21 77 l0 84 -131 -2 c-72 0
-138 2 -146 5 -8 4 -22 5 -31 2z m217 -63 c7 0 11 -11 10 -24 -1 -21 -8 -25
-43 -31 -24 -3 -51 -1 -62 4 -11 6 -26 9 -33 6 -8 -3 -14 4 -14 20 -2 20 2 24
15 21 9 -3 23 -1 31 5 8 5 31 7 50 4 19 -2 40 -5 46 -5z"/>
<path d="M487 590 c-10 -39 2 -57 36 -53 76 9 174 13 204 8 40 -7 42 -42 3
-50 -37 -7 -153 -4 -171 6 -37 19 -77 -18 -62 -57 4 -11 17 -13 57 -9 123 15
194 15 233 1 22 -8 44 -11 49 -8 5 4 10 47 10 96 l2 88 -32 -8 c-35 -9 -195
-9 -272 0 -46 6 -52 4 -57 -14z"/>
<path d="M509 413 c-19 -4 -31 -37 -22 -59 3 -8 15 -14 27 -15 11 0 15 -3 9
-6 -22 -8 -15 -27 22 -63 19 -19 35 -37 35 -41 0 -4 -12 -10 -27 -13 -16 -4
-39 -9 -53 -12 -14 -3 -45 -7 -68 -9 -24 -2 -46 -6 -49 -8 -10 -11 53 -86 72
-86 11 0 60 15 108 33 49 19 94 33 100 32 7 -1 46 -16 87 -33 111 -45 127 -48
141 -21 6 13 21 33 32 46 11 12 16 23 11 23 -18 3 -60 8 -96 13 -21 2 -54 10
-73 16 l-36 12 56 60 c30 32 62 72 70 87 l14 29 -132 -1 c-127 0 -183 4 -203
15 -5 2 -16 3 -25 1z m205 -72 c18 -7 17 -10 -11 -41 -28 -32 -33 -33 -54 -22
-13 7 -32 25 -43 39 -18 25 -18 25 0 19 11 -3 26 -1 34 4 17 11 47 12 74 1z"/>
</g>
</svg>
