<?xml version="1.0" standalone="no"?>
<!DOCTYPE svg PUBLIC "-//W3C//DTD SVG 20010904//EN"
 "http://www.w3.org/TR/2001/REC-SVG-20010904/DTD/svg10.dtd">
<svg version="1.0" xmlns="http://www.w3.org/2000/svg"
 width="101.000000pt" height="101.000000pt" viewBox="0 0 101.000000 101.000000"
 preserveAspectRatio="xMidYMid meet">
<metadata>
Created by potrace 1.16, written by Peter Selinger 2001-2019
</metadata>
<g transform="translate(0.000000,101.000000) scale(0.100000,-0.100000)"
fill="#000000" stroke="none">
<path d="M150 992 c-10 -4 -15 -22 -16 -48 l-1 -41 56 -1 c31 0 61 4 68 10 17
14 190 -1 196 -17 4 -8 -15 -12 -66 -13 -40 0 -88 -1 -107 -2 -19 0 -61 2 -93
6 -32 3 -74 3 -92 0 l-34 -7 2 -92 2 -92 29 -3 c59 -7 71 2 71 58 l0 50 43 0
c23 0 42 5 42 10 0 6 11 10 25 10 14 0 25 -5 25 -11 0 -7 25 -10 78 -8 l77 4
-2 -86 c-2 -95 3 -103 60 -92 24 5 26 10 32 79 4 40 5 79 2 86 -3 10 28 13
144 13 136 0 148 -2 143 -17 -3 -9 -2 -33 2 -53 7 -38 33 -52 78 -41 24 6 24
9 24 95 l0 89 -86 6 c-48 3 -137 5 -198 3 -76 -1 -111 1 -111 9 0 6 9 9 19 6
10 -2 25 1 33 8 10 9 47 10 134 6 129 -6 138 -3 125 49 -5 19 -15 25 -49 31
-24 3 -66 3 -92 -1 -26 -3 -91 -6 -143 -6 -155 0 -216 0 -282 -1 -35 0 -76 2
-93 5 -16 4 -37 3 -45 -1z"/>
<path d="M185 780 c-4 -6 -4 -22 -1 -35 8 -31 52 -40 149 -32 72 6 88 16 80
48 -5 16 -13 18 -105 12 -75 -5 -102 -3 -108 6 -6 10 -9 10 -15 1z"/>
<path d="M580 775 c-7 -8 -10 -25 -6 -39 6 -24 7 -24 116 -23 92 2 111 4 115
18 10 31 -5 46 -52 53 -82 11 -160 7 -173 -9z"/>
<path d="M183 684 c-3 -8 -3 -25 1 -37 5 -20 11 -23 38 -20 80 10 143 11 164
3 18 -7 24 -5 29 10 4 11 4 28 1 38 -5 15 -21 17 -116 19 -88 1 -112 -1 -117
-13z"/>
<path d="M588 693 c-17 -4 -22 -18 -21 -50 1 -7 -5 -13 -12 -13 -8 0 -18 -15
-25 -34 -6 -19 -29 -60 -52 -91 -35 -49 -42 -55 -50 -40 -6 9 -7 29 -4 43 4
15 8 40 10 55 3 26 1 28 -23 20 -29 -9 -170 -8 -247 1 -47 6 -52 5 -57 -15 -3
-12 -2 -30 4 -40 5 -10 6 -42 3 -72 -6 -50 -5 -54 16 -60 13 -3 32 -1 42 4 11
6 29 9 41 7 25 -3 29 -24 28 -123 -1 -59 -12 -78 -41 -72 -15 3 -15 6 -5 93 5
39 3 42 -21 47 -56 10 -84 -20 -62 -68 12 -28 3 -73 -14 -72 -48 1 -51 -1 -44
-45 10 -61 20 -67 91 -53 65 13 196 33 258 39 35 4 35 4 43 55 l7 43 -39 -6
c-21 -3 -50 -8 -64 -11 -21 -4 -25 0 -26 18 -1 20 3 23 44 25 25 1 49 7 54 14
14 23 -13 75 -32 63 -4 -2 -20 -7 -37 -9 -27 -5 -30 -3 -30 23 0 30 1 30 75
33 20 0 32 6 32 14 0 18 14 18 50 -1 28 -14 29 -14 50 20 12 19 24 35 26 35 7
0 53 -53 54 -61 0 -14 -64 -34 -139 -44 -43 -6 -47 -10 -27 -30 9 -9 21 -26
27 -37 6 -11 16 -17 24 -15 15 6 17 -7 15 -114 -1 -84 6 -93 64 -82 22 5 25 9
19 31 -5 21 -3 24 11 19 10 -4 26 -2 36 3 10 6 45 7 80 3 57 -6 61 -7 56 -28
-7 -26 12 -35 61 -28 28 5 31 8 23 28 -5 12 -7 49 -4 81 2 32 4 69 5 82 1 18
5 22 18 17 40 -17 46 -14 68 32 12 26 21 48 19 50 -1 1 -24 5 -52 8 -173 19
-168 13 -84 102 77 82 85 100 43 87 -23 -7 -148 -9 -241 -3 -21 1 -22 2 -8 18
9 10 13 21 9 25 -23 22 78 29 148 10 19 -5 30 16 23 43 -5 18 -14 20 -87 19
-45 0 -89 2 -97 6 -8 3 -23 4 -32 1z m-252 -173 c6 0 11 -13 11 -29 0 -27 -4
-30 -43 -36 -25 -3 -52 -2 -63 4 -11 6 -26 9 -34 6 -10 -4 -14 3 -14 25 0 23
4 29 16 25 9 -2 23 0 31 6 8 5 31 7 50 4 19 -2 40 -5 46 -5z m408 -8 c3 -5 -8
-22 -24 -37 l-30 -29 -27 20 c-33 25 -43 49 -17 40 11 -3 26 -1 34 4 19 12 57
13 64 2z m4 -175 l34 -14 -56 -7 c-36 -4 -65 -2 -78 5 l-21 12 24 13 c27 14
48 13 97 -9z m3 -77 c22 0 25 -5 26 -34 l1 -33 -60 -7 c-33 -3 -68 -2 -78 4
-10 5 -25 7 -33 4 -12 -4 -15 3 -14 30 1 28 5 35 16 31 9 -2 23 0 31 6 8 5 31
7 50 4 19 -2 46 -5 61 -5z"/>
</g>
</svg>
