<?xml version="1.0" standalone="no"?>
<!DOCTYPE svg PUBLIC "-//W3C//DTD SVG 20010904//EN"
 "http://www.w3.org/TR/2001/REC-SVG-20010904/DTD/svg10.dtd">
<svg version="1.0" xmlns="http://www.w3.org/2000/svg"
 width="101.000000pt" height="101.000000pt" viewBox="0 0 101.000000 101.000000"
 preserveAspectRatio="xMidYMid meet">
<metadata>
Created by potrace 1.16, written by Peter Selinger 2001-2019
</metadata>
<g transform="translate(0.000000,101.000000) scale(0.100000,-0.100000)"
fill="#000000" stroke="none">
<path d="M245 969 l0 -41 -87 0 c-77 0 -88 -2 -93 -19 -10 -31 4 -57 35 -64
16 -4 34 -4 40 0 5 3 31 8 57 10 46 4 48 3 48 -23 l0 -27 -73 2 c-79 2 -90 -5
-78 -52 6 -25 9 -25 79 -22 68 2 72 1 72 -19 0 -19 -7 -23 -53 -28 -29 -4 -58
-3 -64 0 -6 4 -26 8 -44 10 -35 2 -46 -14 -37 -59 4 -23 9 -25 41 -20 40 5
171 6 319 1 99 -3 109 2 96 52 -5 18 -13 20 -72 19 -97 -1 -107 1 -108 22 -1
16 6 19 40 21 23 1 56 1 74 0 35 -1 47 15 37 54 -6 25 -43 42 -65 29 -6 -4
-28 -8 -48 -9 -34 -2 -37 0 -33 21 4 20 11 23 56 25 28 0 63 0 78 -1 29 -2 44
24 33 57 -5 17 -16 19 -89 17 -91 -1 -92 -1 -72 63 7 21 5 22 -41 22 l-48 0 0
-41z"/>
<path d="M516 951 c-7 -27 -6 -90 2 -95 4 -2 6 -71 5 -153 -2 -81 -2 -159 -2
-173 0 -14 0 -46 0 -72 1 -51 11 -59 65 -51 29 4 29 6 32 74 2 44 0 69 -7 69
-6 0 -11 11 -11 25 0 14 5 25 10 25 6 0 10 30 10 70 0 40 -4 70 -10 70 -5 0
-10 11 -10 25 0 14 5 25 10 25 6 0 10 17 10 39 l0 38 77 7 c133 11 118 34 117
-182 0 -241 4 -221 -42 -219 l-38 1 3 51 c1 27 4 66 7 85 3 19 8 67 10 107 2
39 7 76 10 82 13 20 -4 29 -44 24 -26 -4 -40 -2 -40 6 0 6 -4 11 -10 11 -5 0
-9 -53 -9 -127 1 -201 -9 -271 -52 -359 -29 -62 -79 -121 -134 -161 l-30 -21
1 147 c1 80 4 160 7 176 18 95 20 92 -75 83 -75 -7 -170 -5 -255 5 l-32 4 5
-41 c7 -45 7 -177 2 -328 -4 -107 -2 -110 60 -100 35 5 42 26 20 61 -9 15 -9
26 0 45 6 14 9 33 5 43 -5 13 -2 15 11 10 10 -4 26 -2 36 3 10 6 45 7 78 4 58
-6 60 -8 57 -33 -2 -20 -8 -26 -26 -27 -59 -3 -57 0 -35 -50 20 -44 22 -45 56
-39 55 11 69 8 107 -21 l36 -28 58 61 c31 34 73 89 92 123 42 75 52 67 52 -42
0 -85 14 -111 56 -109 13 1 51 3 84 4 72 2 82 8 106 61 29 64 25 78 -31 107
-53 29 -51 30 -54 -32 -2 -55 -67 -74 -86 -24 -8 20 -6 104 4 165 2 14 4 31 5
38 2 20 21 14 21 -8 0 -21 13 -25 65 -21 31 3 48 18 38 34 -3 5 -5 38 -4 73 1
39 -2 64 -9 64 -5 0 -10 11 -10 25 0 14 5 25 10 25 6 0 10 30 10 70 0 40 -4
70 -10 70 -5 0 -10 16 -10 35 0 19 5 35 10 35 6 0 10 28 10 64 l0 63 -64 2
c-36 1 -67 -3 -70 -8 -8 -12 -173 -13 -181 -1 -10 16 -74 8 -79 -9z m-175
-431 c22 0 26 -5 26 -29 0 -27 -2 -29 -59 -35 -33 -3 -68 -1 -78 4 -10 5 -25
8 -33 5 -10 -4 -14 3 -14 25 0 23 4 29 16 25 9 -2 23 0 31 6 8 5 31 7 50 4 19
-2 47 -5 61 -5z m0 -120 c22 0 26 -5 26 -29 0 -27 -2 -29 -59 -35 -33 -3 -68
-1 -78 4 -10 5 -25 8 -33 5 -10 -4 -14 3 -14 25 0 23 4 29 16 25 9 -2 23 0 31
6 8 5 31 7 50 4 19 -2 47 -5 61 -5z"/>
</g>
</svg>
