<?xml version="1.0" standalone="no"?>
<!DOCTYPE svg PUBLIC "-//W3C//DTD SVG 20010904//EN"
 "http://www.w3.org/TR/2001/REC-SVG-20010904/DTD/svg10.dtd">
<svg version="1.0" xmlns="http://www.w3.org/2000/svg"
 width="101.000000pt" height="101.000000pt" viewBox="0 0 101.000000 101.000000"
 preserveAspectRatio="xMidYMid meet">
<metadata>
Created by potrace 1.16, written by Peter Selinger 2001-2019
</metadata>
<g transform="translate(0.000000,101.000000) scale(0.100000,-0.100000)"
fill="#000000" stroke="none">
<path d="M603 968 l4 -43 -81 1 c-45 1 -88 5 -97 9 -19 7 -49 -18 -49 -41 0
-38 20 -54 65 -54 25 0 45 5 45 10 0 6 11 10 25 10 14 0 25 -5 25 -11 0 -7 12
-9 33 -5 28 5 32 3 32 -17 0 -21 -3 -22 -100 -22 -99 0 -100 0 -103 -25 -5
-48 10 -55 108 -55 87 0 90 -1 90 -22 0 -42 4 -41 -90 -28 -67 9 -109 10 -116
2 -9 -8 -10 -65 -2 -73 7 -7 33 -6 78 2 64 11 427 4 447 -9 28 -18 57 20 46
63 -4 15 -11 18 -28 14 -13 -3 -32 -1 -43 5 -15 8 -32 6 -68 -6 -37 -13 -54
-14 -76 -5 -16 6 -35 9 -41 6 -8 -2 -12 6 -12 23 l0 28 100 3 c97 2 114 8 115
39 0 32 -31 43 -121 43 -49 0 -89 2 -89 4 0 2 -2 10 -5 18 -4 10 18 13 115 11
111 -1 120 0 126 19 14 44 -24 93 -56 73 -6 -4 -50 -8 -98 -8 l-88 -2 2 25 c1
14 5 33 9 43 6 15 0 17 -49 17 l-56 0 3 -42z"/>
<path d="M190 988 c-19 -5 -36 -11 -37 -12 -2 -1 6 -26 17 -54 11 -29 18 -52
15 -52 -3 0 -1 -9 5 -21 9 -16 18 -19 43 -16 74 11 74 10 35 115 -21 55 -23
56 -78 40z"/>
<path d="M56 814 c-4 -9 -4 -31 0 -49 l6 -32 161 -1 162 0 0 47 0 46 -65 -7
c-96 -10 -190 -10 -190 2 0 17 -67 12 -74 -6z"/>
<path d="M285 708 c-2 -7 -9 -25 -14 -41 -7 -19 -7 -35 1 -52 8 -18 8 -28 -1
-39 -7 -8 -14 -32 -17 -53 -2 -21 -6 -49 -8 -63 -3 -14 -7 -43 -11 -65 -9 -56
-17 -62 -90 -69 -49 -5 -105 -18 -105 -25 1 -24 31 -86 42 -85 7 1 51 11 98
24 77 20 98 24 168 35 32 5 34 8 35 49 1 46 -4 50 -47 38 -41 -12 -41 -14 -20
58 16 60 20 77 29 133 3 20 14 60 24 88 18 46 18 51 3 55 -9 3 -27 10 -40 15
-31 12 -42 11 -47 -3z"/>
<path d="M103 688 c-22 -11 -23 -11 -6 -103 3 -16 5 -67 5 -112 0 -88 6 -96
61 -86 20 4 26 12 30 41 2 21 -2 51 -10 69 -11 24 -12 36 -3 52 6 12 8 26 4
32 -3 6 -8 32 -10 57 -4 59 -24 73 -71 50z"/>
<path d="M418 552 c-1 -19 0 -30 8 -82 12 -79 14 -198 3 -245 -27 -119 -20
-138 49 -127 30 4 31 5 31 56 0 97 2 104 25 105 11 0 55 3 96 6 41 3 94 3 117
0 36 -5 41 -9 39 -28 -4 -41 -14 -48 -67 -43 -28 3 -49 2 -47 -2 2 -4 12 -29
22 -55 19 -47 20 -47 57 -43 22 2 56 13 76 23 l38 18 1 170 c0 94 4 189 7 211
l6 41 -47 5 c-26 3 -67 4 -92 1 -65 -6 -228 -6 -277 1 -36 4 -43 3 -45 -12z
m333 -58 c31 -5 37 -9 35 -29 -1 -21 -8 -25 -41 -30 -22 -3 -74 -3 -115 0 -41
3 -84 6 -95 6 -14 1 -20 9 -21 26 -2 18 2 22 15 19 9 -3 22 -2 30 3 16 10 140
13 192 5z m0 -120 c31 -5 37 -9 35 -29 -1 -21 -8 -25 -41 -30 -22 -3 -74 -3
-115 0 -41 3 -84 6 -95 6 -14 1 -20 9 -21 26 -2 18 2 22 15 19 9 -3 22 -2 30
3 16 10 140 13 192 5z"/>
</g>
</svg>
