<?xml version="1.0" standalone="no"?>
<!DOCTYPE svg PUBLIC "-//W3C//DTD SVG 20010904//EN"
 "http://www.w3.org/TR/2001/REC-SVG-20010904/DTD/svg10.dtd">
<svg version="1.0" xmlns="http://www.w3.org/2000/svg"
 width="101.000000pt" height="101.000000pt" viewBox="0 0 101.000000 101.000000"
 preserveAspectRatio="xMidYMid meet">
<metadata>
Created by potrace 1.16, written by Peter Selinger 2001-2019
</metadata>
<g transform="translate(0.000000,101.000000) scale(0.100000,-0.100000)"
fill="#000000" stroke="none">
<path d="M358 1003 c-21 -5 -32 -58 -25 -119 l5 -44 -34 6 c-22 4 -34 2 -34
-5 0 -6 -11 -11 -25 -11 -14 0 -25 5 -25 10 0 6 -30 10 -69 10 -72 0 -81 -6
-81 -50 0 -33 28 -50 80 -50 27 0 52 5 55 10 8 13 52 13 61 -1 3 -6 19 -8 38
-5 l31 6 0 -63 0 -63 -112 1 c-110 2 -112 1 -118 -23 -15 -62 23 -79 151 -68
l74 6 0 -53 c0 -28 3 -62 6 -74 5 -18 1 -23 -21 -29 -16 -4 -35 -2 -44 3 -9 6
-41 11 -71 12 -30 1 -72 4 -92 7 -34 6 -39 4 -48 -22 -21 -54 14 -98 59 -75
19 10 154 14 192 5 30 -6 30 -6 31 -131 1 -89 5 -94 65 -86 36 6 47 31 32 71
-15 39 -23 220 -11 235 14 16 15 214 2 222 -13 8 -13 52 0 60 6 4 10 53 10
123 -1 64 2 131 5 148 5 27 2 32 -17 38 -25 6 -44 6 -70 -1z"/>
<path d="M546 980 c-8 -29 -5 -89 4 -95 12 -8 12 -173 -1 -180 -12 -8 -12
-142 1 -150 13 -8 13 -52 0 -60 -13 -8 -12 -213 2 -221 7 -4 8 -33 4 -84 -8
-86 -4 -92 61 -83 39 6 47 32 26 86 -13 31 -14 46 -5 69 6 16 9 35 6 43 -6 14
9 16 108 15 31 0 67 -4 80 -9 13 -4 39 -6 60 -4 29 4 37 10 41 30 2 14 2 34
-1 45 -4 18 -10 20 -59 14 -31 -4 -62 -2 -74 4 -14 8 -28 7 -53 -5 -26 -13
-39 -14 -54 -6 -12 6 -28 8 -37 5 -14 -6 -15 4 -13 72 l3 79 122 -2 c113 -2
122 0 128 18 16 50 -23 105 -57 82 -7 -4 -55 -8 -105 -8 -104 0 -102 -2 -85
85 l7 35 128 1 c70 1 130 4 132 6 3 2 8 18 11 35 9 43 -18 67 -65 58 -20 -3
-76 -7 -126 -8 l-90 -2 3 35 c1 19 4 53 5 74 l2 40 -53 0 c-38 1 -53 -3 -56
-14z"/>
</g>
</svg>
