<?xml version="1.0" standalone="no"?>
<!DOCTYPE svg PUBLIC "-//W3C//DTD SVG 20010904//EN"
 "http://www.w3.org/TR/2001/REC-SVG-20010904/DTD/svg10.dtd">
<svg version="1.0" xmlns="http://www.w3.org/2000/svg"
 width="101.000000pt" height="101.000000pt" viewBox="0 0 101.000000 101.000000"
 preserveAspectRatio="xMidYMid meet">
<metadata>
Created by potrace 1.16, written by Peter Selinger 2001-2019
</metadata>
<g transform="translate(0.000000,101.000000) scale(0.100000,-0.100000)"
fill="#000000" stroke="none">
<path d="M105 957 c-3 -18 -3 -79 0 -137 3 -58 8 -141 10 -185 2 -44 -1 -107
-6 -140 -6 -33 -11 -69 -11 -80 0 -34 -29 -127 -55 -178 -13 -27 -23 -50 -21
-52 8 -7 101 -45 104 -42 6 5 56 183 59 207 14 113 19 194 18 243 -3 65 -3 99
0 215 l2 82 43 0 c23 0 42 5 42 10 0 6 16 10 35 10 19 0 35 -4 35 -10 0 -6 30
-10 70 -10 40 0 70 4 70 10 0 6 11 10 25 10 14 0 25 -4 25 -10 0 -5 -9 -10
-19 -10 -12 0 -21 -10 -26 -27 -4 -16 -5 -30 -3 -32 2 -2 -6 -7 -17 -12 -29
-11 -103 -11 -110 1 -3 6 -28 10 -55 10 -66 0 -96 -30 -70 -70 7 -12 30 -15
105 -13 94 1 96 1 79 -18 -9 -10 -22 -19 -28 -19 -6 0 -24 -7 -40 -15 -16 -9
-42 -14 -58 -11 -15 2 -37 2 -48 -1 -19 -5 -18 -7 10 -40 16 -18 30 -35 30
-38 0 -2 -15 -2 -34 1 -29 3 -35 1 -40 -20 -3 -14 -3 -31 0 -39 10 -27 88 -36
126 -16 12 7 41 8 74 4 44 -5 52 -10 51 -25 -2 -30 -53 -34 -200 -16 l-47 6 6
-47 c9 -73 10 -231 1 -299 -9 -69 -2 -76 61 -66 27 4 31 7 26 27 -5 19 -1 23
18 24 61 4 229 2 277 -2 30 -3 63 -1 74 5 25 13 90 1 84 -16 -11 -28 14 -42
71 -38 l23 2 -6 160 c-3 96 -1 168 4 179 6 10 8 27 5 38 -5 20 -13 21 -142 21
-177 0 -180 1 -175 21 3 12 15 16 56 14 29 0 57 3 64 8 7 6 61 8 132 5 l121
-5 6 24 c10 41 -1 55 -41 51 -42 -3 -43 3 -8 44 34 41 22 50 -67 50 -87 0
-131 8 -158 29 -22 16 -21 16 34 13 33 -1 62 2 70 9 9 8 34 10 68 6 58 -6 73
5 61 43 -6 19 -64 35 -93 26 -13 -4 -21 3 -32 27 -7 17 -15 34 -17 37 -2 3 30
4 69 2 95 -3 114 2 122 34 15 57 9 59 -143 59 -77 0 -143 -3 -147 -7 -11 -11
-52 -10 -59 2 -8 13 -142 13 -150 1 -7 -12 -172 -13 -179 -2 -3 5 -39 9 -81 9
l-74 0 -6 -31z m577 -66 c-12 -7 -11 -14 2 -39 l16 -31 -52 6 c-29 3 -54 7
-56 8 -9 8 24 55 42 58 41 8 62 7 48 -2z m-101 -190 c36 -36 128 -81 178 -87
38 -5 35 -12 -10 -19 -30 -5 -44 -3 -51 6 -7 11 -11 11 -15 2 -6 -15 -73 -18
-73 -3 0 6 -18 10 -40 10 -22 0 -40 -4 -40 -10 0 -5 -16 -10 -35 -10 -19 0
-35 5 -35 10 0 6 -24 10 -52 11 l-53 0 52 20 c28 11 71 37 95 59 23 22 44 39
46 40 2 0 17 -13 33 -29z m31 -271 c10 0 16 -7 15 -19 -1 -15 -12 -20 -49 -25
-27 -4 -56 -2 -67 4 -11 5 -26 8 -33 5 -9 -4 -14 2 -15 15 -1 15 3 20 15 16 9
-3 24 -1 32 5 8 5 31 7 50 4 19 -2 43 -5 52 -5z m-223 -34 c1 -11 3 -46 6 -76
2 -30 2 -67 -1 -81 -4 -23 -10 -27 -39 -26 -40 1 -47 19 -40 107 3 30 5 64 6
76 1 16 8 20 34 21 27 1 33 -3 34 -21z m390 0 c1 -11 3 -46 6 -76 2 -30 2 -67
-1 -81 -4 -23 -10 -27 -39 -26 -40 1 -47 19 -40 107 3 30 5 64 6 76 1 16 8 20
34 21 27 1 33 -3 34 -21z m-167 -56 c10 0 16 -7 15 -19 -1 -15 -12 -20 -49
-25 -27 -4 -56 -2 -67 4 -11 5 -26 8 -33 5 -9 -4 -14 2 -15 15 -1 15 3 20 15
16 9 -3 24 -1 32 5 8 5 31 7 50 4 19 -2 43 -5 52 -5z m0 -90 c10 0 16 -7 15
-19 -1 -15 -12 -20 -49 -25 -27 -4 -56 -2 -67 4 -11 5 -26 8 -33 5 -9 -4 -14
2 -15 15 -1 15 3 20 15 16 9 -3 24 -1 32 5 8 5 31 7 50 4 19 -2 43 -5 52 -5z"/>
</g>
</svg>
