<?xml version="1.0" standalone="no"?>
<!DOCTYPE svg PUBLIC "-//W3C//DTD SVG 20010904//EN"
 "http://www.w3.org/TR/2001/REC-SVG-20010904/DTD/svg10.dtd">
<svg version="1.0" xmlns="http://www.w3.org/2000/svg"
 width="101.000000pt" height="101.000000pt" viewBox="0 0 101.000000 101.000000"
 preserveAspectRatio="xMidYMid meet">
<metadata>
Created by potrace 1.16, written by Peter Selinger 2001-2019
</metadata>
<g transform="translate(0.000000,101.000000) scale(0.100000,-0.100000)"
fill="#000000" stroke="none">
<path d="M298 1003 c-21 -5 -32 -48 -18 -73 5 -10 10 -20 10 -22 0 -2 -44 -2
-97 0 -121 3 -141 -2 -149 -32 -10 -43 11 -66 61 -66 25 0 45 5 45 10 0 6 11
10 25 10 14 0 25 -5 25 -11 0 -6 15 -8 43 -4 41 6 42 6 41 -22 -1 -15 -5 -36
-9 -46 -4 -9 -4 -28 -1 -42 7 -29 46 -39 128 -33 52 3 53 2 53 -24 l0 -28
-137 3 c-93 1 -140 -2 -149 -10 -8 -8 -9 -42 -4 -122 l7 -111 47 6 c87 10 176
14 207 9 26 -4 30 -9 31 -39 l1 -33 -127 -6 c-69 -3 -148 -4 -176 -1 -111 9
-108 10 -108 -36 0 -46 -3 -45 108 -36 28 3 108 2 178 -1 l128 -6 -7 -26 c-4
-14 -6 -35 -5 -46 1 -11 2 -32 3 -47 1 -30 18 -37 66 -30 35 5 38 12 20 42
-10 15 -10 27 -1 51 7 17 10 36 7 44 -7 17 3 17 212 16 164 -1 172 0 177 19 3
11 3 29 0 40 -5 19 -13 20 -177 19 -227 -1 -214 -4 -213 36 1 37 -6 35 132 37
50 1 106 -2 125 -6 l36 -8 1 120 1 121 -61 6 c-34 3 -100 4 -147 3 -81 -3 -85
-2 -86 18 -2 20 5 22 76 28 l77 7 7 61 c3 34 8 63 9 65 2 2 54 4 116 6 107 2
112 3 117 25 4 12 3 33 0 46 -6 23 -7 23 -124 22 l-117 -1 2 45 3 45 -55 0
-54 0 4 -47 3 -46 -117 1 -117 2 7 40 c4 22 7 40 6 40 -1 1 -15 6 -30 13 -29
12 -31 13 -59 5z m307 -214 c0 -25 -3 -27 -65 -33 -36 -3 -88 -6 -115 -6 -51
0 -51 0 -51 33 l0 32 115 0 116 0 0 -26z m-175 -248 c21 -5 25 -12 25 -43 0
-43 -15 -49 -100 -42 -27 2 -60 4 -71 5 -18 1 -22 7 -21 35 1 33 3 34 39 34
21 0 38 5 38 10 0 11 50 12 90 1z m317 -40 c2 -36 -1 -40 -25 -45 -15 -3 -52
-3 -82 -1 -30 3 -65 5 -77 6 -19 1 -22 7 -20 38 l1 36 101 3 101 2 1 -39z"/>
</g>
</svg>
