<?xml version="1.0" standalone="no"?>
<!DOCTYPE svg PUBLIC "-//W3C//DTD SVG 20010904//EN"
 "http://www.w3.org/TR/2001/REC-SVG-20010904/DTD/svg10.dtd">
<svg version="1.0" xmlns="http://www.w3.org/2000/svg"
 width="101.000000pt" height="101.000000pt" viewBox="0 0 101.000000 101.000000"
 preserveAspectRatio="xMidYMid meet">
<metadata>
Created by potrace 1.16, written by Peter Selinger 2001-2019
</metadata>
<g transform="translate(0.000000,101.000000) scale(0.100000,-0.100000)"
fill="#000000" stroke="none">
<path d="M144 962 c2 -47 1 -48 -25 -44 -40 6 -69 -14 -69 -46 0 -43 13 -55
56 -51 l39 4 0 -62 c0 -34 4 -65 8 -69 4 -5 25 -8 46 -7 35 2 39 0 37 -23 -1
-27 -33 -42 -63 -29 -10 4 -37 9 -60 11 l-42 4 5 -42 c9 -67 9 -161 0 -186 -7
-22 -7 -23 46 -17 117 14 111 15 115 -33 l3 -43 -63 6 c-91 8 -91 8 -108 7
-19 -2 -30 -32 -22 -61 6 -23 39 -34 64 -20 27 14 131 0 125 -18 -3 -7 0 -24
6 -38 8 -19 8 -35 0 -62 -6 -20 -9 -39 -6 -42 5 -6 84 -4 90 2 6 6 7 69 1 113
-6 48 -11 46 114 44 69 -1 77 1 82 19 7 28 -2 58 -19 65 -8 3 -33 -2 -56 -11
-32 -13 -47 -14 -70 -5 -16 6 -36 8 -43 6 -11 -4 -14 4 -12 35 1 28 5 40 13
37 7 -3 26 0 43 7 24 9 36 9 51 -1 11 -6 28 -12 39 -12 18 0 19 6 15 73 -5 92
-1 103 39 106 47 3 227 3 339 -1 l96 -3 5 29 c8 59 0 69 -52 60 -45 -8 -74 -8
-136 -2 -28 3 -30 6 -27 38 1 19 3 45 3 57 1 18 8 22 48 25 25 3 55 1 67 -3
11 -4 31 -5 45 -2 23 4 26 9 25 46 -1 49 -10 59 -45 46 -13 -6 -48 -7 -75 -4
l-51 7 2 41 c1 23 3 51 5 61 2 15 -5 22 -32 28 -19 4 -46 5 -59 2 -23 -5 -24
-7 -18 -74 l6 -69 -52 5 c-29 4 -62 7 -74 8 -11 0 -19 4 -17 8 10 16 -31 40
-63 36 -38 -5 -38 -3 -18 36 17 33 15 37 -17 42 -85 13 -87 12 -85 -45 l2 -49
-56 1 c-60 2 -58 -1 -47 72 3 17 -2 20 -29 17 -19 -2 -33 1 -33 7 0 6 -8 11
-19 11 -15 0 -18 -7 -17 -48z m200 -172 c-2 -33 -4 -35 -35 -32 -19 1 -43 3
-54 3 -15 1 -20 9 -21 33 l0 31 56 0 57 0 -3 -35z m171 9 c6 -18 22 -24 55
-20 8 1 33 2 55 4 l40 2 2 -62 c2 -59 0 -63 -23 -69 -13 -3 -32 -3 -41 1 -35
14 -103 16 -103 3 0 -13 -27 -18 -97 -18 -71 -1 -78 1 -79 25 -2 24 0 24 77
27 l36 2 -1 62 c-1 60 0 63 24 66 35 5 48 -1 55 -23z m-277 -274 l2 -44 -40 2
-39 1 1 41 c2 40 3 41 38 42 35 2 36 1 38 -42z m170 0 l2 -45 -45 2 -44 2 1
41 c2 40 3 41 43 43 l41 1 2 -44z"/>
<path d="M678 573 c-15 -4 -18 -15 -15 -71 2 -66 2 -67 -23 -64 -35 3 -73 9
-85 12 -39 10 -57 -14 -48 -63 6 -29 37 -41 65 -26 28 15 101 1 94 -18 -3 -8
-1 -24 5 -35 6 -11 8 -35 5 -54 l-7 -33 -77 5 c-111 7 -123 7 -130 0 -7 -8 -6
-75 1 -83 7 -7 44 -6 87 3 51 10 322 7 351 -5 14 -5 31 -6 37 -2 10 6 17 40
14 72 -3 23 -60 30 -99 12 -23 -11 -36 -12 -51 -4 -12 6 -27 8 -36 5 -19 -7
-32 55 -17 84 6 11 8 27 5 35 -6 16 6 18 107 17 53 0 57 2 62 26 11 59 -13 82
-59 58 -21 -11 -34 -13 -51 -5 -13 6 -30 8 -39 4 -13 -5 -15 3 -10 56 5 59 2
67 -27 62 -4 -1 -16 3 -25 7 -9 5 -25 7 -34 5z"/>
</g>
</svg>
