<?xml version="1.0" standalone="no"?>
<!DOCTYPE svg PUBLIC "-//W3C//DTD SVG 20010904//EN"
 "http://www.w3.org/TR/2001/REC-SVG-20010904/DTD/svg10.dtd">
<svg version="1.0" xmlns="http://www.w3.org/2000/svg"
 width="101.000000pt" height="102.000000pt" viewBox="0 0 101.000000 102.000000"
 preserveAspectRatio="xMidYMid meet">
<metadata>
Created by potrace 1.16, written by Peter Selinger 2001-2019
</metadata>
<g transform="translate(0.000000,102.000000) scale(0.100000,-0.100000)"
fill="#000000" stroke="none">
<path d="M135 957 l5 -62 -44 3 c-37 3 -45 1 -50 -16 -4 -11 -4 -32 0 -47 6
-24 10 -26 48 -22 l41 5 -2 -69 c-2 -75 -3 -74 64 -70 27 2 32 -1 30 -18 -2
-25 -54 -39 -84 -22 -11 5 -29 8 -40 5 -18 -5 -20 -11 -16 -42 7 -45 6 -139
-2 -169 -5 -21 -3 -22 37 -17 99 13 102 12 104 -23 1 -29 -2 -33 -32 -39 -18
-3 -38 -3 -45 1 -6 5 -31 10 -54 11 -47 4 -57 -9 -48 -60 5 -24 9 -26 48 -22
23 1 48 6 54 11 7 4 27 4 46 1 37 -7 37 -8 35 -122 -1 -63 2 -72 19 -77 62
-16 94 28 64 90 -11 24 -12 36 -4 51 6 12 8 28 4 38 -5 13 -3 16 10 11 10 -4
29 -1 43 5 19 9 30 9 45 0 32 -20 56 -15 62 14 10 57 -11 78 -53 52 -15 -10
-27 -10 -51 -1 -17 7 -36 10 -43 7 -8 -3 -13 5 -13 24 0 23 5 30 21 31 60 4
93 3 113 -4 20 -7 22 -4 18 34 -3 37 -2 40 15 31 10 -6 22 -15 26 -21 4 -7 18
0 37 18 21 19 28 22 24 10 -4 -9 -2 -28 5 -41 15 -34 -14 -159 -47 -202 -14
-19 -46 -45 -70 -60 -42 -24 -51 -44 -21 -44 7 0 26 -12 42 -27 l28 -26 58 62
c65 71 88 128 94 230 5 88 8 104 18 119 12 19 -8 35 -42 35 l-29 0 34 55 c18
31 35 64 39 74 9 28 32 21 50 -14 9 -18 32 -52 50 -75 l34 -41 -35 1 c-19 1
-37 -2 -41 -5 -8 -9 -8 -43 0 -103 15 -107 16 -192 2 -232 -16 -47 -11 -89 13
-96 9 -2 31 -2 49 1 31 4 32 5 25 46 -13 82 -6 347 10 363 3 2 23 -7 46 -21
l41 -26 14 29 c9 16 22 31 31 34 21 9 19 27 -2 27 -34 0 -132 71 -154 111 -9
18 -4 20 83 21 41 1 47 3 51 25 2 14 2 33 0 43 -7 25 -68 31 -117 12 -30 -12
-45 -13 -68 -4 -16 6 -37 8 -45 5 -13 -5 -15 -2 -8 18 4 13 9 42 10 64 3 45
-7 41 122 47 39 2 75 7 80 11 4 5 -13 29 -39 53 -39 36 -51 43 -66 35 -10 -5
-38 -13 -63 -16 -24 -3 -57 -8 -74 -11 -16 -2 -55 -6 -85 -8 -30 -2 -64 -6
-75 -9 -11 -3 -23 -6 -28 -6 -4 -1 2 -19 13 -41 16 -31 27 -40 54 -45 19 -4
43 -2 55 4 17 10 21 9 21 -3 0 -8 -5 -18 -11 -22 -6 -3 -9 -21 -7 -38 l4 -33
-51 4 c-82 5 -96 5 -103 -1 -7 -8 -6 -75 1 -83 7 -7 44 -6 83 2 44 10 51 -9
20 -55 -23 -36 -84 -90 -100 -90 -4 0 -5 22 -3 50 l4 49 -51 0 c-89 0 -102 2
-103 20 -1 13 8 17 39 18 22 1 43 4 45 7 6 6 6 41 0 92 l-5 40 43 -3 c36 -3
45 0 50 16 8 26 -4 72 -19 70 -6 -1 -24 -1 -40 0 -29 1 -29 1 -23 51 5 43 3
51 -14 61 -11 5 -33 7 -49 4 -28 -6 -29 -8 -27 -68 l2 -62 -51 -3 -51 -3 2 38
c2 21 6 50 10 64 6 23 3 27 -26 33 -68 13 -69 13 -64 -57z m181 -174 c-1 -36
-3 -38 -31 -35 -16 1 -39 3 -51 3 -16 1 -21 8 -21 30 0 27 3 28 51 32 28 2 51
4 52 5 1 1 1 -15 0 -35z m-88 -258 c1 -43 1 -43 -33 -42 -34 1 -34 2 -33 42 2
39 4 41 33 42 29 1 31 -1 33 -42z m160 0 l2 -44 -40 2 -39 1 1 41 c2 40 3 41
38 42 35 2 36 1 38 -42z"/>
</g>
</svg>
