<?xml version="1.0" standalone="no"?>
<!DOCTYPE svg PUBLIC "-//W3C//DTD SVG 20010904//EN"
 "http://www.w3.org/TR/2001/REC-SVG-20010904/DTD/svg10.dtd">
<svg version="1.0" xmlns="http://www.w3.org/2000/svg"
 width="101.000000pt" height="101.000000pt" viewBox="0 0 101.000000 101.000000"
 preserveAspectRatio="xMidYMid meet">
<metadata>
Created by potrace 1.16, written by Peter Selinger 2001-2019
</metadata>
<g transform="translate(0.000000,101.000000) scale(0.100000,-0.100000)"
fill="#000000" stroke="none">
<path d="M328 1003 c-14 -4 -16 -14 -12 -62 l5 -57 -48 0 -48 1 1 53 c1 32 -3
52 -10 53 -76 8 -92 3 -86 -26 1 -5 3 -27 3 -48 2 -29 -1 -36 -13 -31 -52 20
-86 -17 -60 -66 9 -17 19 -21 44 -18 l33 4 -3 -42 c-2 -23 -4 -46 -5 -50 -5
-30 3 -34 49 -30 48 4 49 4 49 -25 0 -24 -5 -30 -33 -35 -17 -3 -41 -1 -51 5
-11 5 -29 7 -41 4 -20 -5 -21 -10 -16 -52 9 -71 9 -103 1 -142 -7 -32 -5 -37
14 -42 12 -3 31 -1 42 4 10 6 34 8 51 5 28 -5 33 -11 33 -35 0 -27 -4 -30 -44
-36 -23 -3 -48 -3 -54 1 -7 4 -27 8 -45 10 -36 2 -46 -14 -37 -60 6 -31 18
-34 98 -21 78 12 80 12 83 -20 6 -58 5 -90 -2 -121 -7 -26 -5 -32 12 -36 11
-3 32 -3 46 -1 25 5 26 8 25 72 -1 108 -2 107 43 108 22 1 50 -2 63 -7 48 -18
82 16 68 70 -4 15 -10 16 -50 8 -31 -7 -53 -7 -69 1 -13 6 -30 8 -37 5 -10 -3
-14 4 -14 24 0 33 3 33 93 33 l52 1 -4 79 c-2 44 0 88 5 98 6 10 8 27 5 38 -5
18 -9 20 -40 10 -24 -7 -41 -7 -59 1 -14 6 -31 9 -38 6 -10 -3 -14 4 -14 25 0
28 2 29 44 26 l44 -3 -4 59 c-4 59 -4 59 24 59 32 0 59 23 59 50 0 26 -29 52
-54 48 -19 -4 -21 0 -20 44 1 26 1 48 0 48 -1 0 -15 4 -31 8 -17 5 -38 7 -47
5z m-14 -218 c1 -29 0 -30 -49 -30 -50 0 -50 0 -50 33 l0 33 49 -3 c47 -3 49
-4 50 -33z m-86 -270 c1 -43 1 -43 -33 -42 -34 1 -34 2 -33 42 2 39 4 41 33
42 29 1 31 -1 33 -42z m150 0 c1 -43 1 -43 -33 -42 -34 1 -34 2 -33 42 2 39 4
41 33 42 29 1 31 -1 33 -42z"/>
<path d="M653 868 l2 -144 -30 4 c-16 1 -50 4 -75 5 l-45 2 3 -40 c3 -36 4
-81 3 -292 0 -35 1 -87 2 -115 1 -29 -1 -83 -5 -119 -8 -75 -4 -79 64 -71 34
4 36 5 27 30 -5 15 -7 59 -4 97 3 39 6 80 6 91 1 15 8 22 23 23 11 0 48 3 81
6 88 7 123 -1 123 -28 0 -12 4 -35 7 -50 9 -33 -17 -68 -49 -66 -51 5 -58 1
-42 -23 8 -13 17 -38 21 -55 6 -30 9 -33 38 -29 43 6 83 22 94 38 10 16 13
118 11 408 0 52 3 116 6 142 6 45 5 48 -19 54 -14 3 -38 3 -53 0 -15 -3 -44
-7 -65 -9 l-38 -2 6 38 c5 24 3 37 -4 37 -13 0 -15 47 -2 52 5 2 11 37 13 78
l3 75 -52 3 -53 3 3 -143z m148 -204 c19 -4 27 -11 27 -27 0 -12 3 -32 7 -44
10 -32 -28 -44 -118 -38 -126 8 -122 7 -119 35 2 14 3 35 4 48 0 16 5 21 17
18 9 -3 22 -2 30 3 16 10 110 13 152 5z m-1 -170 c23 -4 26 -10 28 -49 1 -43
0 -44 -31 -50 -17 -2 -59 -3 -92 0 -33 3 -70 5 -82 6 -20 1 -22 6 -21 45 2 34
6 43 18 39 8 -2 21 -1 29 4 16 10 110 13 151 5z"/>
<path d="M500 943 c-14 -9 -26 -17 -27 -18 -5 -3 79 -160 87 -163 10 -4 70 26
70 34 0 17 -84 164 -94 164 -6 0 -23 -8 -36 -17z"/>
<path d="M840 947 c0 -7 -17 -47 -38 -88 l-38 -76 32 -15 32 -15 56 84 55 83
-39 20 c-45 23 -60 25 -60 7z"/>
</g>
</svg>
