<?xml version="1.0" standalone="no"?>
<!DOCTYPE svg PUBLIC "-//W3C//DTD SVG 20010904//EN"
 "http://www.w3.org/TR/2001/REC-SVG-20010904/DTD/svg10.dtd">
<svg version="1.0" xmlns="http://www.w3.org/2000/svg"
 width="101.000000pt" height="102.000000pt" viewBox="0 0 101.000000 102.000000"
 preserveAspectRatio="xMidYMid meet">
<metadata>
Created by potrace 1.16, written by Peter Selinger 2001-2019
</metadata>
<g transform="translate(0.000000,102.000000) scale(0.100000,-0.100000)"
fill="#000000" stroke="none">
<path d="M541 950 c-14 -39 -28 -73 -33 -76 -4 -3 -15 2 -24 10 -9 9 -19 14
-23 12 -4 -3 -22 -8 -39 -11 -23 -4 -30 -2 -28 7 3 7 7 34 10 59 l5 45 -47 0
c-26 -1 -50 -5 -54 -11 -4 -5 -5 -30 -2 -55 l6 -45 -49 3 c-47 4 -48 4 -46 35
1 18 5 42 8 54 8 26 -20 38 -65 28 -29 -6 -36 -19 -31 -55 8 -70 11 -66 -41
-62 -44 3 -48 1 -54 -23 -9 -37 11 -79 34 -70 9 4 28 8 42 9 25 2 26 1 23 -60
-3 -56 -1 -62 18 -67 12 -3 31 -2 43 3 20 7 23 5 23 -21 0 -25 -5 -30 -33 -35
-18 -3 -38 -3 -45 2 -7 4 -27 8 -45 10 -32 2 -32 2 -27 -34 10 -83 12 -163 3
-186 -7 -20 -5 -25 12 -29 12 -4 30 -1 40 4 11 6 36 8 57 4 33 -5 38 -10 38
-35 0 -26 -4 -29 -44 -35 -23 -3 -48 -3 -54 1 -7 4 -27 8 -45 10 -24 2 -33 -2
-37 -16 -8 -30 4 -70 22 -72 18 -1 24 -1 101 6 l56 5 1 -40 c1 -22 -2 -51 -7
-64 -19 -50 8 -78 64 -68 29 6 34 30 14 63 -10 15 -10 27 -1 51 7 17 9 37 6
45 -4 12 1 13 28 8 19 -4 44 -7 56 -7 13 1 20 -4 17 -11 -3 -7 6 -18 18 -24
13 -7 31 -17 40 -24 20 -14 32 -2 107 109 55 80 52 84 54 -69 1 -105 5 -111
62 -100 23 4 26 8 19 31 -9 31 -8 201 2 201 2 0 16 -18 30 -40 15 -22 30 -40
35 -40 4 0 20 11 35 23 l27 24 -21 34 c-45 70 -62 84 -83 71 -25 -16 -26 -16
-26 17 l0 30 64 -4 c68 -4 70 -2 64 59 -2 27 -6 29 -29 15 -16 -10 -26 -10
-46 -1 -14 6 -33 9 -41 6 -10 -4 -15 0 -15 10 0 18 9 20 44 6 23 -8 27 -5 61
55 20 36 37 65 38 65 6 0 1 -227 -6 -237 -4 -6 -2 -22 4 -36 8 -17 7 -39 -1
-83 -7 -32 -13 -70 -15 -84 -1 -14 -3 -30 -3 -36 -3 -17 -44 -25 -80 -14 -18
5 -32 6 -32 2 0 -21 47 -112 60 -115 21 -4 106 31 126 54 19 21 23 60 28 279
2 85 7 171 11 190 3 19 8 85 9 145 l3 110 -78 2 c-43 1 -81 -2 -84 -8 -8 -12
-49 -11 -62 2 -6 6 -33 9 -60 8 l-49 -4 18 32 c11 17 26 37 34 43 7 7 14 16
14 21 0 7 -90 59 -102 59 -2 0 -14 -32 -27 -70z m-92 -144 c10 -12 6 -22 -21
-51 l-33 -36 0 50 c0 45 2 51 21 51 12 0 27 -6 33 -14z m-147 -26 l4 -29 -45
6 c-42 6 -60 16 -61 35 0 6 24 11 81 16 11 1 18 -8 21 -28z m534 -6 c-3 -9 -6
-29 -6 -46 0 -25 -3 -29 -17 -23 -48 20 -62 18 -73 -11 -26 -73 -44 -104 -53
-95 -5 5 -6 21 -2 38 5 15 10 37 11 48 1 11 5 29 9 41 5 17 1 23 -22 32 -15 6
-39 10 -53 9 l-25 -2 3 -107 2 -107 -34 -6 c-19 -4 -40 -4 -47 1 -7 4 -27 8
-45 10 -35 2 -46 -14 -37 -59 4 -22 10 -25 36 -22 18 2 42 7 53 10 12 4 25 2
28 -4 9 -14 -44 -114 -87 -164 -32 -38 -32 -38 -33 -12 -3 36 -10 41 -40 25
-20 -11 -32 -12 -55 -3 -17 7 -36 10 -43 7 -8 -3 -13 5 -13 24 0 33 3 34 95
33 50 0 53 1 45 22 -8 25 -8 119 1 185 5 39 4 43 -12 36 -15 -7 -41 -8 -108
-3 -16 1 -21 8 -21 29 0 25 3 27 26 22 39 -8 73 -5 80 7 5 7 16 2 31 -14 18
-20 26 -22 37 -13 18 14 30 -1 39 -49 6 -34 17 -39 62 -27 24 7 24 12 -4 91
-10 27 -22 43 -34 45 -19 3 -18 5 4 33 l24 30 142 2 c126 3 141 1 136 -13z
m-618 -238 c1 -11 2 -32 4 -46 3 -23 0 -25 -37 -25 -37 0 -40 2 -37 25 2 14 3
34 4 46 0 16 7 20 33 21 27 1 33 -3 33 -21z m130 0 c1 -12 2 -32 4 -46 3 -22
-1 -25 -32 -25 -31 0 -35 3 -32 25 2 14 3 34 4 46 0 16 7 21 28 21 21 0 28 -5
28 -21z"/>
</g>
</svg>
