<?xml version="1.0" standalone="no"?>
<!DOCTYPE svg PUBLIC "-//W3C//DTD SVG 20010904//EN"
 "http://www.w3.org/TR/2001/REC-SVG-20010904/DTD/svg10.dtd">
<svg version="1.0" xmlns="http://www.w3.org/2000/svg"
 width="101.000000pt" height="101.000000pt" viewBox="0 0 101.000000 101.000000"
 preserveAspectRatio="xMidYMid meet">
<metadata>
Created by potrace 1.16, written by Peter Selinger 2001-2019
</metadata>
<g transform="translate(0.000000,101.000000) scale(0.100000,-0.100000)"
fill="#000000" stroke="none">
<path d="M537 1003 c-15 -4 -18 -12 -15 -42 l3 -38 -42 3 c-32 3 -42 0 -45
-13 -2 -10 -15 -17 -39 -18 l-35 -3 3 44 c3 36 0 45 -18 54 -11 7 -31 9 -44 6
-21 -5 -23 -11 -22 -54 l2 -47 -52 3 c-55 4 -58 7 -53 59 2 29 -31 46 -64 34
-21 -9 -24 -15 -23 -58 1 -39 -2 -49 -17 -51 -10 -2 -22 2 -26 8 -11 18 -30 3
-30 -23 0 -36 14 -47 49 -43 24 3 31 0 27 -10 -3 -8 0 -26 6 -39 9 -19 9 -28
0 -37 -18 -18 -14 -48 6 -49 9 -1 31 -1 48 0 28 2 32 -1 30 -22 -1 -22 -5 -24
-36 -20 -48 6 -80 6 -87 0 -3 -3 -4 -16 -3 -29 1 -13 2 -69 3 -125 l1 -102 36
4 c88 12 84 12 86 -22 1 -29 -1 -32 -37 -38 -21 -4 -44 -3 -50 1 -7 4 -25 8
-40 9 -31 2 -40 -16 -32 -59 5 -25 8 -26 52 -20 103 12 106 12 109 -21 7 -65
7 -91 0 -121 -8 -35 8 -46 55 -37 32 6 40 38 21 79 -12 24 -13 37 -5 52 6 12
8 28 4 38 -5 13 -3 16 10 11 10 -4 29 -1 43 5 18 8 31 9 42 2 9 -6 33 -9 53
-8 32 2 37 0 38 -19 1 -12 2 -38 4 -57 1 -19 -2 -47 -6 -61 -8 -31 8 -39 59
-32 26 4 31 9 32 36 0 18 2 41 3 52 1 11 -1 34 -5 51 -5 28 -3 32 17 33 12 0
58 3 102 6 44 3 94 3 111 0 27 -5 30 -9 31 -43 1 -44 -10 -54 -56 -45 -31 5
-33 4 -26 -13 4 -10 10 -29 13 -42 6 -31 42 -44 84 -30 58 19 63 30 69 145 1
14 7 22 18 21 57 -4 76 15 64 63 -5 18 -11 20 -39 14 -30 -5 -35 -3 -43 18
-12 30 -12 136 0 158 4 9 5 26 2 38 -5 20 -11 22 -77 21 -101 -2 -112 0 -113
20 -2 20 1 21 144 23 109 1 119 7 106 57 -6 23 -24 26 -52 8 -15 -9 -26 -9
-45 0 -14 6 -31 9 -38 7 -8 -3 -14 4 -14 19 -2 25 -1 25 73 28 35 1 45 14 36
47 -5 19 -15 25 -36 22 -67 -11 -72 -10 -73 18 -1 21 3 26 21 26 11 -1 27 -5
34 -9 19 -12 59 2 66 24 13 42 -24 84 -57 64 -6 -4 -24 -8 -39 -9 -22 -2 -26
1 -24 19 1 11 5 28 9 36 5 12 -3 15 -44 15 -53 0 -68 -14 -56 -52 5 -16 -1
-18 -49 -18 -33 0 -54 4 -51 10 17 46 16 52 -9 63 -27 13 -29 13 -58 5z m-50
-157 c33 -1 38 -4 38 -23 0 -25 -7 -28 -34 -14 -40 22 -76 -11 -64 -58 4 -17
12 -19 53 -15 48 4 49 4 46 -23 -4 -30 -2 -29 -83 -19 -24 3 -32 0 -36 -15
-12 -46 24 -80 63 -59 13 7 83 8 137 1 6 0 11 -10 10 -20 -1 -15 -11 -21 -44
-26 -23 -3 -51 -2 -61 4 -40 21 -70 -3 -63 -49 3 -15 9 -88 14 -150 2 -30 -1
-35 -18 -33 -32 4 -66 4 -126 -1 -55 -4 -56 -4 -56 24 0 30 3 31 89 32 l47 1
0 51 c0 28 0 62 0 76 3 123 0 132 -38 108 -15 -9 -26 -9 -45 0 -14 6 -31 9
-38 7 -8 -3 -14 4 -14 19 -2 25 -1 25 73 28 l32 1 -4 69 -4 69 29 -6 c26 -6
30 -3 36 20 5 19 9 23 15 14 4 -7 25 -13 46 -13z m228 -26 c-2 -22 -7 -25 -36
-22 -19 1 -43 3 -55 3 -16 1 -20 7 -17 23 4 18 11 21 58 21 51 0 53 -1 50 -25z
m-430 -25 c0 -40 0 -40 -35 -37 -19 1 -45 3 -56 3 -18 1 -22 7 -21 35 1 26 5
33 16 29 9 -2 23 0 31 5 8 6 26 9 40 8 22 -3 25 -8 25 -43z m429 -80 c0 -28
-3 -30 -35 -27 -19 1 -43 3 -54 3 -14 1 -20 9 -21 26 -2 18 2 22 15 19 9 -3
23 -1 31 4 8 6 26 9 40 8 21 -3 25 -8 24 -33z m-525 -160 c0 -11 2 -35 3 -54
3 -32 1 -35 -27 -35 -28 -1 -30 1 -27 34 1 19 3 45 3 56 2 29 46 28 48 -1z
m130 1 c0 -12 2 -37 3 -56 3 -34 2 -35 -32 -35 -34 0 -35 1 -32 35 1 19 3 44
3 56 1 16 8 21 29 21 21 0 28 -5 29 -21z m475 -71 c0 -27 -3 -30 -30 -27 -16
1 -38 3 -49 3 -14 1 -20 9 -21 26 -2 18 2 22 15 19 9 -3 23 -1 31 4 8 6 24 9
35 8 15 -2 20 -10 19 -33z m-178 0 c-1 -22 -5 -24 -41 -23 -33 2 -40 6 -41 23
-1 18 5 21 41 23 40 1 43 0 41 -23z m179 -115 c0 -31 -3 -35 -25 -32 -14 2
-34 3 -46 4 -16 0 -21 7 -21 29 0 22 4 28 16 24 9 -2 23 0 31 5 28 18 45 7 45
-30z m-178 0 c0 -28 -2 -29 -42 -28 -38 2 -42 5 -42 28 0 23 4 26 42 28 40 1
42 0 42 -28z"/>
</g>
</svg>
