<?xml version="1.0" standalone="no"?>
<!DOCTYPE svg PUBLIC "-//W3C//DTD SVG 20010904//EN"
 "http://www.w3.org/TR/2001/REC-SVG-20010904/DTD/svg10.dtd">
<svg version="1.0" xmlns="http://www.w3.org/2000/svg"
 width="101.000000pt" height="102.000000pt" viewBox="0 0 101.000000 102.000000"
 preserveAspectRatio="xMidYMid meet">
<metadata>
Created by potrace 1.16, written by Peter Selinger 2001-2019
</metadata>
<g transform="translate(0.000000,102.000000) scale(0.100000,-0.100000)"
fill="#000000" stroke="none">
<path d="M150 1005 c0 -8 5 -15 10 -15 7 0 10 -22 8 -57 l-3 -58 -62 3 c-54 4
-63 1 -73 -18 -6 -11 -9 -33 -5 -48 5 -25 9 -27 54 -26 61 2 67 -2 72 -46 l4
-35 -55 0 c-59 0 -68 -10 -56 -59 4 -18 11 -22 33 -20 85 10 78 14 78 -41 0
-55 7 -52 -86 -40 -41 5 -51 -10 -42 -59 5 -23 9 -25 42 -21 88 11 86 12 89
-20 9 -68 5 -272 -5 -301 -15 -44 -2 -59 48 -57 47 2 61 16 49 47 -18 50 -21
121 -5 141 11 14 15 16 14 5 -4 -47 27 -58 82 -29 44 22 50 38 48 124 -1 53 3
97 11 130 10 42 -12 56 -50 33 -15 -10 -27 -10 -51 -1 -17 7 -37 9 -45 6 -11
-4 -13 5 -12 41 2 33 6 45 15 41 7 -2 25 1 39 7 19 9 33 9 57 0 38 -14 50 -2
42 43 -6 34 -23 47 -50 38 -17 -6 -87 -6 -91 0 -1 1 -4 18 -7 37 -5 34 -4 35
28 35 19 0 37 -4 41 -8 13 -13 72 -7 88 9 18 17 21 51 6 74 -6 10 -30 14 -89
15 l-80 0 4 47 c2 26 8 56 14 66 9 17 7 21 -12 26 -44 12 -97 7 -97 -9z m156
-550 c-3 -8 0 -27 6 -43 16 -41 0 -74 -36 -78 -36 -4 -55 33 -39 77 7 17 10
36 7 43 -3 8 7 12 31 13 27 1 35 -3 31 -12z"/>
<path d="M463 970 c-19 -8 -23 -17 -23 -55 0 -25 5 -45 10 -45 6 0 10 -16 10
-35 0 -20 -5 -35 -12 -35 -8 0 -9 -29 -5 -107 4 -58 9 -108 11 -111 3 -2 15
-3 28 -3 55 4 227 2 268 -2 25 -3 65 -2 90 0 l45 5 1 193 c2 162 -1 195 -13
199 -8 3 -22 2 -31 -3 -17 -8 -317 -6 -343 3 -8 3 -24 1 -36 -4z m332 -124 c0
-35 -3 -42 -25 -47 -42 -11 -170 -10 -170 1 0 6 -11 10 -24 10 -20 0 -24 6
-27 38 l-4 37 125 1 125 1 0 -41z m1 -150 c0 -17 -5 -34 -11 -38 -13 -10 -118
-8 -130 2 -5 5 -32 7 -60 7 -49 -2 -50 -1 -51 28 l0 30 127 1 127 1 -2 -31z"/>
<path d="M449 533 c-20 -5 -31 -40 -20 -62 11 -19 13 -103 5 -193 l-6 -66 -38
4 c-42 5 -51 -7 -42 -64 l4 -33 52 7 c28 3 94 6 146 6 191 -1 221 -1 273 1 28
1 75 -1 103 -6 l52 -7 4 32 c9 55 0 70 -37 64 l-33 -6 -6 73 c-6 66 -4 130 7
213 l4 32 -51 1 c-81 0 -174 0 -276 -2 -52 0 -102 2 -110 5 -8 3 -22 4 -31 1z
m120 -107 c0 -12 3 -50 6 -86 3 -36 3 -79 0 -96 -5 -26 -10 -31 -35 -31 -25 0
-30 5 -35 31 -3 17 -3 60 0 96 3 36 6 74 6 86 1 16 8 21 29 21 21 0 28 -5 29
-21z m130 0 c0 -12 3 -50 6 -86 3 -36 3 -79 0 -96 -5 -26 -10 -31 -35 -31 -25
0 -30 5 -35 31 -3 17 -3 60 0 96 3 36 6 74 6 86 1 16 8 21 29 21 21 0 28 -5
29 -21z m130 0 c0 -12 3 -50 6 -86 3 -36 3 -79 0 -96 -5 -26 -10 -31 -35 -31
-25 0 -30 5 -35 31 -3 17 -3 60 0 96 3 36 6 74 6 86 1 16 8 21 29 21 21 0 28
-5 29 -21z"/>
</g>
</svg>
