<?xml version="1.0" standalone="no"?>
<!DOCTYPE svg PUBLIC "-//W3C//DTD SVG 20010904//EN"
 "http://www.w3.org/TR/2001/REC-SVG-20010904/DTD/svg10.dtd">
<svg version="1.0" xmlns="http://www.w3.org/2000/svg"
 width="101.000000pt" height="101.000000pt" viewBox="0 0 101.000000 101.000000"
 preserveAspectRatio="xMidYMid meet">
<metadata>
Created by potrace 1.16, written by Peter Selinger 2001-2019
</metadata>
<g transform="translate(0.000000,101.000000) scale(0.100000,-0.100000)"
fill="#000000" stroke="none">
<path d="M202 918 c-28 -35 -75 -83 -103 -107 l-52 -44 34 -28 c19 -16 39 -29
44 -29 13 0 215 204 215 217 0 8 -70 53 -82 53 -2 0 -28 -28 -56 -62z"/>
<path d="M390 952 c-9 -4 -15 -22 -16 -48 l0 -40 52 -2 c30 0 56 3 59 8 4 6
24 10 46 10 33 0 39 -3 40 -22 1 -13 0 -27 -1 -33 -1 -5 -3 -20 -4 -32 -1 -21
-4 -22 -53 -17 -28 4 -63 4 -77 0 -24 -6 -26 -10 -26 -66 0 -33 4 -60 10 -60
6 0 10 -11 10 -25 0 -14 -5 -25 -12 -25 -8 0 -9 -29 -5 -105 4 -57 3 -115 -2
-128 -12 -30 -3 -44 31 -52 57 -15 63 -5 65 105 0 55 -3 103 -8 106 -13 7 -11
48 2 61 6 6 9 33 8 60 l-4 48 130 2 130 2 3 -112 c1 -62 3 -142 4 -179 1 -65
2 -67 29 -73 65 -14 64 -17 66 219 l1 214 -99 7 c-54 3 -104 3 -110 -1 -9 -5
-10 0 -5 17 7 21 13 49 15 71 1 4 8 5 17 1 8 -3 26 0 39 7 17 9 46 10 114 3
101 -10 109 -5 95 52 l-6 26 -107 -1 c-58 -1 -134 -1 -168 -1 -35 0 -91 0
-125 -1 -35 0 -76 2 -93 5 -16 4 -37 3 -45 -1z"/>
<path d="M168 637 c-60 -61 -108 -114 -108 -118 0 -4 16 -19 36 -34 l37 -28
113 116 c63 64 114 118 114 120 0 5 -75 57 -81 56 -2 0 -52 -51 -111 -112z"/>
<path d="M596 647 c-16 -12 -18 -21 -11 -63 5 -27 7 -53 5 -59 -2 -5 -5 -32
-6 -60 -6 -96 -25 -140 -79 -181 -38 -28 -159 -77 -169 -67 -3 3 -12 0 -21 -7
-13 -11 -10 -16 24 -40 21 -16 42 -34 46 -39 12 -20 160 66 213 123 64 71 87
141 87 266 0 52 4 98 10 102 15 11 -5 26 -45 33 -23 4 -41 1 -54 -8z"/>
<path d="M245 458 c-26 -40 -84 -110 -127 -154 l-79 -81 42 -32 43 -31 29 28
c16 15 71 80 123 144 51 64 98 119 104 123 5 3 10 10 10 14 0 9 -75 61 -88 61
-5 0 -31 -33 -57 -72z"/>
<path d="M673 335 c-13 -19 -23 -38 -23 -42 0 -5 19 -18 43 -31 23 -12 70 -48
105 -78 l63 -57 40 39 39 39 -22 18 c-52 41 -206 147 -214 147 -5 0 -19 -16
-31 -35z"/>
</g>
</svg>
