<?xml version="1.0" standalone="no"?>
<!DOCTYPE svg PUBLIC "-//W3C//DTD SVG 20010904//EN"
 "http://www.w3.org/TR/2001/REC-SVG-20010904/DTD/svg10.dtd">
<svg version="1.0" xmlns="http://www.w3.org/2000/svg"
 width="101.000000pt" height="101.000000pt" viewBox="0 0 101.000000 101.000000"
 preserveAspectRatio="xMidYMid meet">
<metadata>
Created by potrace 1.16, written by Peter Selinger 2001-2019
</metadata>
<g transform="translate(0.000000,101.000000) scale(0.100000,-0.100000)"
fill="#000000" stroke="none">
<path d="M378 973 c-10 -2 -18 -10 -18 -16 0 -17 -162 -23 -262 -11 -45 6 -48
5 -58 -22 -24 -61 9 -91 87 -78 l38 6 3 -114 c6 -194 1 -441 -9 -459 -5 -10
-27 -20 -50 -24 -38 -7 -40 -9 -34 -34 4 -14 9 -37 10 -49 5 -34 10 -37 57
-23 48 15 74 34 93 71 17 34 31 335 16 344 -14 9 -14 153 -1 161 6 4 9 32 8
63 l-3 57 44 2 c24 1 47 7 51 12 3 6 59 13 123 16 116 6 118 5 107 -15 -6 -11
-8 -20 -4 -20 3 0 1 -6 -5 -14 -6 -8 -10 -19 -9 -26 2 -9 -18 -12 -75 -11 -50
2 -84 -2 -93 -10 -13 -10 -15 -49 -13 -240 2 -252 -2 -240 69 -232 l35 5 0
186 0 187 140 0 140 0 2 -184 c1 -101 5 -186 8 -189 11 -11 88 -3 96 10 5 7 6
22 3 32 -4 10 -6 110 -6 222 l1 203 -65 7 c-36 3 -85 4 -110 1 -49 -5 -50 -4
-29 47 14 34 18 36 60 36 25 0 45 5 45 10 0 6 11 10 25 10 14 0 25 -5 25 -10
0 -7 27 -10 69 -9 l69 2 6 32 c11 58 7 60 -123 63 -71 2 -122 -1 -125 -7 -8
-12 -173 -13 -181 -1 -3 5 -29 9 -58 8 -29 0 -59 2 -67 5 -8 2 -23 3 -32 0z"/>
<path d="M575 651 c-3 -6 -5 -46 -4 -89 2 -92 -6 -160 -25 -205 -33 -80 -118
-139 -215 -151 -24 -3 -45 -7 -47 -8 -1 -2 13 -24 33 -49 l36 -47 60 25 c147
60 219 144 244 288 10 53 15 93 18 125 1 19 5 48 10 64 9 32 -5 46 -45 44 -14
0 -32 2 -41 6 -10 4 -20 2 -24 -3z"/>
<path d="M677 312 c-15 -15 -27 -31 -27 -34 0 -3 37 -33 83 -66 45 -33 91 -69
101 -81 26 -29 37 -27 77 15 l34 35 -25 20 c-47 36 -201 139 -209 139 -4 0
-19 -13 -34 -28z"/>
</g>
</svg>
