<?xml version="1.0" standalone="no"?>
<!DOCTYPE svg PUBLIC "-//W3C//DTD SVG 20010904//EN"
 "http://www.w3.org/TR/2001/REC-SVG-20010904/DTD/svg10.dtd">
<svg version="1.0" xmlns="http://www.w3.org/2000/svg"
 width="101.000000pt" height="101.000000pt" viewBox="0 0 101.000000 101.000000"
 preserveAspectRatio="xMidYMid meet">
<metadata>
Created by potrace 1.16, written by Peter Selinger 2001-2019
</metadata>
<g transform="translate(0.000000,101.000000) scale(0.100000,-0.100000)"
fill="#000000" stroke="none">
<path d="M195 980 c-4 -16 -4 -38 -1 -48 3 -9 8 -59 10 -109 l5 -92 -29 6
c-16 3 -45 2 -65 -1 -34 -7 -35 -8 -35 -51 0 -25 5 -45 10 -45 15 0 12 -67 -2
-74 -10 -5 -10 -7 0 -12 15 -7 17 -155 2 -170 -6 -6 -13 -26 -15 -45 -8 -60
-14 -83 -31 -121 -17 -37 -16 -37 12 -72 16 -19 33 -33 39 -32 9 2 52 125 61
176 12 69 15 87 16 108 0 16 4 22 15 18 8 -3 23 -1 34 4 29 16 119 2 117 -19
-4 -59 10 -72 68 -64 l31 5 -9 56 c-6 37 -5 65 2 80 7 16 7 29 -1 44 -6 12 -8
35 -4 57 4 20 8 61 9 91 3 64 -2 67 -101 69 l-63 1 0 40 c0 39 1 40 38 42 20
1 54 1 74 0 29 -2 38 2 43 18 16 51 -27 78 -111 68 -38 -4 -37 -10 -19 64 7
26 6 27 -29 21 -24 -4 -36 -2 -36 6 0 24 -29 9 -35 -19z m126 -320 c11 0 17
-9 18 -27 3 -50 1 -136 -2 -140 -4 -3 -91 -5 -138 -2 -24 1 -27 6 -33 50 -4
28 -2 57 4 68 5 11 7 27 3 36 -5 14 -2 16 13 11 10 -3 26 -1 34 5 8 5 31 7 50
4 19 -2 42 -5 51 -5z"/>
<path d="M478 970 c-23 -14 -23 -63 -1 -85 16 -17 60 -17 124 0 25 6 27 5 24
-22 -1 -15 -6 -36 -10 -45 -4 -10 -5 -24 -2 -30 3 -10 -14 -13 -67 -13 l-71 0
-2 -221 c-2 -246 -5 -237 65 -226 l32 4 -1 162 c-1 219 -6 201 55 199 28 0 56
3 63 8 6 6 33 7 61 3 42 -5 50 -10 51 -28 0 -11 3 -56 6 -100 3 -43 1 -115 -5
-159 -5 -44 -7 -83 -4 -86 5 -6 95 -4 101 2 2 2 -2 50 -8 106 -8 70 -8 105 -1
114 6 7 11 59 10 117 l0 105 -99 0 c-54 0 -99 4 -99 8 0 4 7 24 16 45 8 20 15
38 15 40 -4 14 13 17 101 19 109 2 123 8 112 53 -7 30 -24 42 -44 33 -16 -8
-339 -6 -380 2 -14 3 -33 0 -42 -5z"/>
<path d="M659 623 c-22 -5 -30 -39 -17 -68 7 -16 7 -38 -2 -76 -6 -30 -14 -65
-16 -78 -20 -102 -123 -187 -238 -196 -26 -2 -50 -6 -53 -9 -3 -3 15 -26 41
-51 51 -51 53 -52 139 -8 56 28 128 91 156 137 30 49 53 126 57 186 3 68 9
110 19 132 4 11 2 19 -6 22 -29 9 -65 13 -80 9z"/>
<path d="M727 292 c-15 -15 -27 -31 -27 -35 0 -3 21 -21 48 -39 26 -18 66 -50
90 -72 l43 -39 34 33 35 34 -22 23 c-19 21 -161 123 -170 123 -2 0 -16 -13
-31 -28z"/>
</g>
</svg>
