<?xml version="1.0" standalone="no"?>
<!DOCTYPE svg PUBLIC "-//W3C//DTD SVG 20010904//EN"
 "http://www.w3.org/TR/2001/REC-SVG-20010904/DTD/svg10.dtd">
<svg version="1.0" xmlns="http://www.w3.org/2000/svg"
 width="101.000000pt" height="102.000000pt" viewBox="0 0 101.000000 102.000000"
 preserveAspectRatio="xMidYMid meet">
<metadata>
Created by potrace 1.16, written by Peter Selinger 2001-2019
</metadata>
<g transform="translate(0.000000,102.000000) scale(0.100000,-0.100000)"
fill="#000000" stroke="none">
<path d="M278 981 c2 -23 1 -56 -2 -75 l-6 -33 -84 3 -84 4 0 -188 c1 -276 -7
-334 -55 -433 l-32 -67 31 -36 c17 -20 33 -36 36 -36 8 0 59 119 75 174 15 54
26 125 25 165 0 22 7 17 51 -34 29 -32 53 -67 53 -77 1 -17 -102 -124 -141
-145 -11 -7 -18 -13 -15 -15 64 -48 82 -58 90 -53 6 3 37 38 70 76 l60 69 21
-42 c12 -24 23 -45 25 -47 5 -5 84 47 84 56 0 3 -18 30 -40 58 l-40 52 34 104
c18 57 37 118 40 134 7 31 6 31 -36 32 -92 4 -85 -3 -84 78 l1 73 33 4 c17 2
32 2 32 1 0 -2 -7 -20 -15 -40 -21 -50 -14 -63 35 -61 40 1 50 12 55 58 1 8 8
35 15 60 6 25 12 47 12 50 -1 12 27 16 81 12 61 -4 58 -1 61 -71 l1 -35 -67 1
c-65 1 -67 1 -72 -25 -3 -15 -5 -115 -5 -224 1 -217 -1 -210 68 -200 30 4 32
7 26 31 -11 45 -16 213 -6 225 5 6 8 34 8 61 l-2 50 101 3 c120 3 106 29 105
-204 -1 -179 -2 -176 65 -167 l30 5 -8 65 c-7 47 -6 69 3 79 9 11 9 18 1 26
-15 15 -16 74 -2 83 5 3 9 48 8 100 l-1 95 -26 -2 c-14 -1 -52 -1 -84 0 l-58
2 5 43 c2 23 5 47 5 52 1 6 38 9 95 8 l94 -1 6 32 c10 55 2 63 -69 65 -35 1
-66 -3 -69 -8 -8 -12 -173 -13 -181 -1 -3 4 -25 8 -50 8 -54 0 -79 -19 -73
-59 l4 -27 -80 1 -81 2 4 45 c1 25 10 52 18 62 18 20 8 27 -55 35 l-48 5 4
-41z m-13 -275 l0 -85 -38 2 c-27 1 -36 5 -32 15 3 7 5 42 5 77 0 67 -1 66 55
74 6 0 10 -33 10 -83z m103 -162 c2 -1 -4 -28 -13 -60 l-16 -57 -44 49 -43 49
-30 -16 -29 -16 0 29 c0 21 4 27 16 23 9 -2 23 0 31 5 13 9 118 4 128 -6z"/>
<path d="M689 633 c-21 -5 -30 -36 -19 -71 7 -25 6 -48 -4 -152 -10 -110 -108
-216 -217 -235 -51 -9 -52 -14 -12 -54 l38 -38 69 35 c38 20 91 57 117 83 l49
48 33 -26 c17 -15 57 -51 89 -81 l56 -54 36 28 c20 16 36 32 36 36 0 8 -127
119 -164 143 -23 15 -27 15 -50 0 l-25 -17 10 34 c14 47 21 85 24 148 6 90 11
118 25 135 12 14 11 18 -1 26 -8 5 -22 9 -31 9 -9 0 -22 2 -30 4 -7 2 -20 2
-29 -1z"/>
</g>
</svg>
