<?xml version="1.0" standalone="no"?>
<!DOCTYPE svg PUBLIC "-//W3C//DTD SVG 20010904//EN"
 "http://www.w3.org/TR/2001/REC-SVG-20010904/DTD/svg10.dtd">
<svg version="1.0" xmlns="http://www.w3.org/2000/svg"
 width="101.000000pt" height="101.000000pt" viewBox="0 0 101.000000 101.000000"
 preserveAspectRatio="xMidYMid meet">
<metadata>
Created by potrace 1.16, written by Peter Selinger 2001-2019
</metadata>
<g transform="translate(0.000000,101.000000) scale(0.100000,-0.100000)"
fill="#000000" stroke="none">
<path d="M129 982 c-13 -6 -15 -30 -15 -153 1 -164 8 -183 70 -195 29 -5 32
-9 34 -49 l1 -43 -44 -7 c-25 -3 -50 -3 -57 1 -25 16 -66 11 -71 -8 -13 -48
22 -77 69 -56 67 31 40 -57 -47 -156 l-48 -53 29 -28 c16 -15 35 -25 42 -23 7
3 36 45 65 92 46 78 53 85 62 67 11 -19 9 -136 -1 -147 -3 -3 -20 -7 -38 -9
-42 -6 -43 -7 -25 -41 8 -16 15 -37 15 -47 0 -14 7 -16 34 -13 40 5 92 30 98
48 3 7 3 38 0 68 -5 50 -5 85 -1 148 2 31 15 18 64 -62 22 -36 43 -65 47 -66
3 0 21 12 39 27 17 15 44 28 58 29 14 1 37 2 51 3 25 1 25 3 27 91 2 55 -1 90
-7 90 -6 0 -10 16 -10 35 0 19 5 35 10 35 6 0 10 26 10 58 l0 57 107 0 108 0
-2 -130 c-4 -234 -4 -232 17 -238 27 -7 78 4 84 19 3 8 2 24 -3 37 -8 23 -6
351 3 365 2 4 1 14 -4 22 -7 11 -31 15 -100 15 -76 0 -89 2 -84 15 3 8 8 26
10 40 10 56 9 55 92 54 43 0 83 -4 89 -7 6 -4 19 0 27 9 35 34 5 103 -38 89
-12 -4 -60 -6 -108 -5 -58 1 -88 -2 -88 -9 0 -13 -67 -15 -72 -2 -3 8 -91 16
-140 12 -23 -1 -32 -39 -18 -75 8 -21 15 -26 28 -21 9 3 47 7 84 8 61 2 65 1
56 -17 -5 -10 -8 -27 -5 -37 3 -10 1 -22 -5 -25 -5 -3 -7 -11 -5 -18 3 -8 -14
-10 -57 -8 -82 5 -88 -3 -80 -102 4 -42 11 -76 16 -76 11 0 1 -131 -13 -167
-5 -13 -3 -34 4 -52 20 -54 -3 -54 -60 0 -60 57 -59 64 2 117 19 17 35 36 35
41 0 11 -53 51 -69 51 -6 0 -20 -19 -32 -42 -31 -62 -39 -70 -55 -57 -8 7 -11
25 -7 57 3 26 6 55 6 65 1 10 12 20 27 23 74 16 91 26 110 64 11 22 20 44 20
49 0 6 -18 20 -39 31 l-40 20 -11 -35 c-6 -19 -16 -37 -21 -41 -14 -9 -143 -9
-157 0 -7 4 -12 18 -12 31 0 20 11 28 78 53 103 40 124 46 142 44 8 -1 22 2
30 8 12 8 9 16 -23 47 l-37 38 -88 -47 -87 -47 0 47 c1 26 5 54 10 61 17 28
-44 51 -86 33z"/>
<path d="M644 607 c2 -23 7 -50 11 -59 4 -9 1 -41 -5 -70 -7 -29 -13 -63 -15
-75 -14 -103 -105 -187 -225 -208 -19 -3 -36 -8 -38 -10 -2 -2 14 -21 36 -43
l39 -39 73 38 c141 74 198 156 206 294 1 28 5 64 8 80 3 17 8 51 11 78 4 40 3
47 -12 48 -10 1 -35 3 -56 4 l-37 4 4 -42z"/>
<path d="M725 290 l-28 -29 89 -85 88 -84 32 26 c18 15 33 32 33 39 1 13 -85
92 -145 134 l-41 28 -28 -29z"/>
</g>
</svg>
