<?xml version="1.0" standalone="no"?>
<!DOCTYPE svg PUBLIC "-//W3C//DTD SVG 20010904//EN"
 "http://www.w3.org/TR/2001/REC-SVG-20010904/DTD/svg10.dtd">
<svg version="1.0" xmlns="http://www.w3.org/2000/svg"
 width="101.000000pt" height="102.000000pt" viewBox="0 0 101.000000 102.000000"
 preserveAspectRatio="xMidYMid meet">
<metadata>
Created by potrace 1.16, written by Peter Selinger 2001-2019
</metadata>
<g transform="translate(0.000000,102.000000) scale(0.100000,-0.100000)"
fill="#000000" stroke="none">
<path d="M221 968 c-17 -36 -55 -83 -117 -145 l-92 -92 34 -22 c27 -16 34 -27
34 -52 0 -54 6 -56 122 -54 68 1 104 -2 100 -8 -3 -5 -17 -25 -30 -43 -28 -37
-28 -35 13 -50 24 -9 10 -10 -77 -9 -58 1 -109 -1 -113 -5 -4 -4 -6 -17 -5
-30 1 -13 2 -93 1 -179 0 -172 0 -174 63 -162 24 5 25 8 21 50 -3 37 -1 44 11
39 9 -3 24 -1 35 4 11 6 40 8 68 4 l50 -6 -6 -44 c-4 -38 -2 -44 13 -46 39 -3
68 4 79 19 10 13 16 11 44 -18 l33 -32 36 19 c103 55 184 188 197 319 4 42 15
134 21 172 4 29 2 33 -30 42 -77 21 -86 5 -85 -156 1 -111 -10 -160 -49 -212
-25 -33 -135 -111 -157 -111 -30 0 -40 129 -20 250 12 75 3 93 -46 87 -25 -3
-24 -1 28 87 60 103 59 107 -29 104 -32 -1 -61 2 -65 5 -3 4 -2 7 3 7 30 1 34
17 19 68 -15 50 -17 52 -48 50 -63 -3 -68 -11 -44 -68 11 -27 18 -52 15 -56
-6 -6 -138 -12 -138 -6 0 2 36 46 80 98 l80 96 80 -78 80 -78 35 34 c19 19 35
37 35 40 0 3 -41 36 -91 74 -67 50 -88 71 -80 79 26 26 7 45 -62 62 -19 5 -26
-2 -46 -47z m100 -558 c11 0 17 -9 18 -22 0 -13 2 -39 3 -58 3 -33 2 -34 -42
-42 -25 -5 -56 -5 -70 -1 -14 4 -34 7 -45 7 -17 1 -20 7 -17 36 1 19 3 45 3
58 1 16 6 21 18 18 9 -3 23 -1 31 5 8 5 31 7 50 4 19 -2 42 -5 51 -5z"/>
<path d="M465 914 c-1 -39 3 -46 23 -51 13 -3 29 0 35 6 12 12 68 15 102 5 21
-5 25 -40 10 -76 -4 -9 -5 -21 -2 -25 3 -4 -18 -7 -46 -6 -81 4 -82 1 -79
-129 2 -62 4 -159 4 -215 2 -110 5 -116 61 -106 l24 5 -1 179 -1 179 56 0 c31
0 76 3 100 6 l44 6 3 -88 c1 -49 2 -132 2 -185 -1 -106 4 -113 65 -101 l27 5
-7 147 c-5 101 -4 150 4 154 12 8 13 106 1 125 -4 8 -38 13 -92 14 -47 1 -84
5 -81 9 6 11 15 51 15 68 0 11 11 16 41 17 23 1 67 5 99 8 49 6 57 10 63 32 3
13 3 34 -1 45 -5 16 -11 18 -32 12 -15 -5 -49 -8 -77 -7 -27 1 -120 4 -205 7
l-155 5 0 -45z"/>
<path d="M726 283 c-20 -15 -36 -29 -36 -32 0 -3 23 -21 50 -40 27 -18 71 -55
98 -81 l49 -49 37 38 36 37 -32 30 c-36 33 -97 80 -139 106 -25 16 -28 15 -63
-9z"/>
</g>
</svg>
