<?xml version="1.0" standalone="no"?>
<!DOCTYPE svg PUBLIC "-//W3C//DTD SVG 20010904//EN"
 "http://www.w3.org/TR/2001/REC-SVG-20010904/DTD/svg10.dtd">
<svg version="1.0" xmlns="http://www.w3.org/2000/svg"
 width="101.000000pt" height="102.000000pt" viewBox="0 0 101.000000 102.000000"
 preserveAspectRatio="xMidYMid meet">
<metadata>
Created by potrace 1.16, written by Peter Selinger 2001-2019
</metadata>
<g transform="translate(0.000000,102.000000) scale(0.100000,-0.100000)"
fill="#000000" stroke="none">
<path d="M264 1009 c-3 -6 -17 -9 -30 -6 -27 5 -30 -4 -10 -36 8 -12 17 -33
21 -46 l7 -24 -96 8 -96 7 -10 -28 c-18 -46 -6 -71 32 -72 68 0 79 -2 73 -12
-3 -5 4 -26 15 -47 26 -48 25 -50 -7 -46 -16 3 -40 0 -55 -6 -24 -9 -28 -16
-28 -51 0 -22 5 -40 10 -40 15 0 12 -67 -2 -74 -10 -5 -10 -7 0 -12 15 -7 17
-125 1 -141 -5 -5 -12 -28 -14 -49 -7 -62 -13 -86 -36 -136 l-22 -47 33 -28
c19 -15 39 -28 44 -28 20 0 68 162 68 233 0 28 6 28 39 -4 l27 -26 94 67 c51
37 108 74 126 83 17 9 32 19 32 23 0 5 -16 19 -37 33 l-36 25 -60 -54 c-66
-59 -159 -111 -177 -100 -8 5 -9 19 -6 39 4 17 8 42 10 56 2 14 4 27 5 30 1 3
12 -8 25 -23 l23 -28 77 55 c43 31 81 56 85 56 3 0 13 5 21 10 13 9 11 13 -10
29 l-24 19 24 1 c65 3 86 6 92 16 4 5 8 -13 8 -41 0 -28 3 -98 6 -157 7 -114
11 -120 67 -110 l26 5 -5 115 c-3 67 -1 120 5 126 5 7 8 35 8 62 l-2 50 106 1
c101 0 107 -1 109 -20 1 -12 2 -91 1 -177 0 -173 -1 -171 65 -162 l30 5 2 220
1 220 -30 -6 c-41 -8 -170 4 -163 16 3 4 7 21 10 36 10 59 6 57 118 57 102 0
105 1 111 23 3 13 3 32 0 43 -6 18 -16 20 -103 19 -53 -1 -157 0 -230 2 -140
3 -158 -2 -148 -44 3 -15 -4 -17 -64 -15 l-68 2 -18 58 c-14 48 -21 57 -40 57
-13 0 -26 -5 -30 -11z m387 -142 c-6 -8 -10 -33 -8 -57 l2 -43 -70 -1 -70 -1
-6 -50 c-3 -27 -7 -43 -7 -34 -2 21 -23 29 -69 29 l-35 0 27 36 c26 34 27 38
11 50 -16 11 -14 13 13 19 17 3 35 4 40 1 11 -7 25 29 17 43 -8 13 4 16 91 19
63 2 74 0 64 -11z m-324 -108 c-16 -45 -24 -55 -39 -52 -10 3 -18 12 -18 20 0
7 -9 30 -19 51 l-19 37 58 0 57 0 -20 -56z m-13 -138 l29 -6 -36 -28 c-50 -38
-120 -68 -131 -57 -6 6 -5 19 2 35 6 13 9 32 5 41 -5 13 -2 15 13 10 10 -3 26
-1 34 4 16 11 40 11 84 1z"/>
<path d="M689 653 c-20 -5 -31 -40 -19 -62 12 -24 9 -110 -7 -155 -7 -22 -11
-41 -9 -44 9 -9 -34 -82 -71 -118 -38 -38 -116 -80 -170 -90 -18 -3 -33 -8
-33 -11 0 -3 19 -22 42 -43 l43 -38 53 24 c145 64 223 180 228 339 3 90 8 130
18 162 4 12 3 23 -1 26 -15 8 -58 14 -74 10z"/>
<path d="M382 340 c-30 -34 -67 -62 -124 -90 -44 -22 -87 -40 -94 -40 -22 0
-17 -14 21 -50 l34 -33 141 94 c77 51 140 99 140 105 0 10 -62 65 -72 64 -2
-1 -22 -23 -46 -50z"/>
<path d="M736 291 l-27 -28 63 -51 c35 -27 76 -64 92 -81 17 -17 35 -31 40
-31 11 1 76 56 76 64 0 7 -200 156 -209 156 -4 0 -20 -13 -35 -29z"/>
</g>
</svg>
