<?xml version="1.0" standalone="no"?>
<!DOCTYPE svg PUBLIC "-//W3C//DTD SVG 20010904//EN"
 "http://www.w3.org/TR/2001/REC-SVG-20010904/DTD/svg10.dtd">
<svg version="1.0" xmlns="http://www.w3.org/2000/svg"
 width="101.000000pt" height="101.000000pt" viewBox="0 0 101.000000 101.000000"
 preserveAspectRatio="xMidYMid meet">
<metadata>
Created by potrace 1.16, written by Peter Selinger 2001-2019
</metadata>
<g transform="translate(0.000000,101.000000) scale(0.100000,-0.100000)"
fill="#000000" stroke="none">
<path d="M570 973 c-8 -3 -18 -11 -22 -16 -10 -15 -8 -96 3 -102 12 -8 10
-167 -3 -183 -6 -7 -9 -44 -6 -91 3 -52 1 -78 -6 -78 -32 0 -45 -5 -49 -20 -3
-10 -5 29 -5 87 0 58 -1 121 -1 140 0 19 2 82 4 140 l3 106 -61 1 c-307 8
-328 8 -336 -6 -10 -16 -1 -145 10 -149 13 -5 11 -52 -2 -52 -7 0 -10 -38 -8
-117 4 -194 -18 -327 -65 -394 -13 -19 -12 -25 15 -63 17 -22 33 -41 37 -41 3
0 18 29 32 65 28 67 34 71 86 55 18 -6 26 4 62 74 22 44 43 77 45 73 6 -9 19
-69 23 -100 4 -34 9 -37 54 -23 l39 12 -43 122 c-42 120 -43 124 -29 167 8 25
16 58 19 74 3 16 9 38 14 50 7 17 9 13 10 -19 2 -97 12 -239 24 -326 10 -68
81 -165 146 -199 54 -28 159 -53 210 -51 122 6 147 16 176 73 22 42 17 64 -16
78 -38 16 -45 27 -29 46 10 12 3 23 -41 63 -59 54 -61 52 42 53 37 0 47 5 51
19 12 46 -8 65 -63 61 -12 -1 -14 10 -12 54 3 34 0 54 -7 54 -6 0 -11 11 -11
25 0 14 5 25 10 25 6 0 10 30 10 70 0 40 -4 70 -10 70 -5 0 -10 16 -10 35 0
19 5 35 11 35 6 0 9 19 7 47 l-3 48 -48 -1 c-26 -1 -51 -4 -54 -8 -10 -10 -81
-7 -88 4 -4 6 -18 10 -33 9 -15 0 -36 2 -47 5 -11 3 -27 2 -35 -1z m215 -104
c0 -25 -1 -25 -75 -25 -73 1 -75 2 -75 26 0 24 2 25 75 25 74 0 75 0 75 -26z
m-390 -30 c0 -35 -1 -36 -28 -27 -36 13 -59 3 -56 -24 1 -13 -1 -31 -6 -41 -4
-9 -5 -26 -2 -37 3 -10 -1 -24 -7 -30 -10 -7 -19 5 -38 53 -21 53 -28 62 -49
62 -26 -1 -27 6 -17 70 1 6 43 10 102 10 l101 0 0 -36z m390 -81 l1 -26 -76 1
-75 2 0 28 0 28 75 -3 c74 -3 75 -3 75 -30z m-550 -160 l27 -76 -42 -86 c-42
-86 -70 -123 -56 -75 10 36 21 183 21 276 0 94 4 90 50 -39z m551 43 c-1 -27
-5 -30 -43 -36 -24 -3 -51 -1 -62 4 -11 6 -26 8 -34 5 -11 -4 -13 1 -10 20 5
26 18 30 114 34 34 2 36 0 35 -27z m-10 -91 c6 0 11 -13 11 -29 0 -27 -4 -30
-43 -36 -25 -3 -52 -2 -63 4 -11 6 -26 9 -34 6 -10 -4 -14 3 -14 25 0 23 4 29
16 25 9 -2 23 0 31 6 8 5 31 7 50 4 19 -2 40 -5 46 -5z m-167 -129 c10 -7 4
-19 -29 -55 -23 -25 -46 -46 -51 -46 -12 0 -27 32 -34 69 -5 28 -3 32 12 27
10 -3 25 -1 33 4 19 12 51 12 69 1z m150 2 c24 -6 24 -6 -7 -22 l-30 -16 59
-64 c50 -56 60 -63 74 -51 14 12 15 10 11 -16 -7 -38 -44 -66 -76 -59 -34 8
-68 14 -111 19 -20 2 -55 14 -78 25 -43 22 -50 30 -28 27 7 0 41 25 75 56 60
55 61 57 41 71 -20 14 -20 16 -2 26 21 12 39 13 72 4z"/>
</g>
</svg>
