<?xml version="1.0" standalone="no"?>
<!DOCTYPE svg PUBLIC "-//W3C//DTD SVG 20010904//EN"
 "http://www.w3.org/TR/2001/REC-SVG-20010904/DTD/svg10.dtd">
<svg version="1.0" xmlns="http://www.w3.org/2000/svg"
 width="101.000000pt" height="101.000000pt" viewBox="0 0 101.000000 101.000000"
 preserveAspectRatio="xMidYMid meet">
<metadata>
Created by potrace 1.16, written by Peter Selinger 2001-2019
</metadata>
<g transform="translate(0.000000,101.000000) scale(0.100000,-0.100000)"
fill="#000000" stroke="none">
<path d="M546 996 c3 -9 1 -22 -5 -30 -11 -13 -14 -28 -27 -111 -2 -16 -7 -37
-10 -45 -3 -8 -8 -25 -10 -37 -8 -41 -45 -116 -80 -165 -35 -48 -34 -57 6 -56
8 0 29 -3 46 -7 l31 -7 43 104 42 103 46 0 c27 0 47 5 50 13 5 15 52 16 52 1
0 -7 12 -9 34 -5 41 8 41 5 6 -87 -12 -32 -20 -60 -17 -63 2 -2 21 -7 42 -9
20 -3 41 -7 45 -10 7 -4 23 28 23 45 0 3 6 23 14 45 8 22 16 49 19 61 2 12 11
41 19 64 12 34 13 45 3 51 -7 4 -17 5 -23 1 -5 -4 -71 -7 -146 -7 -134 0 -137
0 -126 20 6 11 10 21 9 23 -7 10 2 35 23 67 15 20 23 40 20 43 -3 3 -35 8 -71
10 -56 4 -63 2 -58 -12z"/>
<path d="M161 910 c-18 -49 -57 -128 -87 -176 l-54 -86 25 -30 c14 -16 25 -34
25 -40 0 -26 26 6 73 90 l52 93 77 3 76 3 -9 -24 c-5 -13 -16 -37 -25 -54 -18
-36 -18 -36 19 -43 15 -2 36 -7 46 -11 17 -5 24 8 56 105 20 61 35 113 34 114
-2 2 -33 -2 -68 -8 -50 -8 -65 -8 -69 2 -2 7 -21 12 -43 12 -21 0 -39 4 -39
10 0 5 16 28 36 50 20 22 35 42 33 44 -7 6 -102 36 -114 36 -7 0 -27 -40 -44
-90z"/>
<path d="M608 693 c-21 -5 -27 -28 -28 -103 0 -158 -38 -258 -125 -339 -47
-42 -90 -65 -164 -88 -10 -3 -6 -9 15 -22 16 -10 40 -30 53 -44 l24 -26 41 28
c93 64 196 192 212 263 l6 32 30 -60 c47 -95 125 -186 195 -227 7 -5 31 11 59
38 25 25 45 47 43 48 -2 1 -30 16 -62 32 -69 35 -135 102 -171 174 -15 28 -25
51 -22 51 2 0 -2 17 -9 37 -13 39 -9 151 6 168 15 15 10 23 -22 34 -33 11 -51
12 -81 4z"/>
<path d="M166 672 c-3 -5 -4 -101 -2 -213 2 -111 0 -216 -5 -233 -8 -27 -5
-33 27 -63 20 -18 37 -33 39 -33 1 0 41 39 89 86 70 69 85 89 75 100 -6 8 -17
30 -24 49 l-12 36 -42 -55 c-23 -31 -44 -56 -47 -56 -6 0 4 319 12 347 6 23 0
27 -67 38 -21 4 -39 2 -43 -3z"/>
</g>
</svg>
