<?xml version="1.0" standalone="no"?>
<!DOCTYPE svg PUBLIC "-//W3C//DTD SVG 20010904//EN"
 "http://www.w3.org/TR/2001/REC-SVG-20010904/DTD/svg10.dtd">
<svg version="1.0" xmlns="http://www.w3.org/2000/svg"
 width="101.000000pt" height="101.000000pt" viewBox="0 0 101.000000 101.000000"
 preserveAspectRatio="xMidYMid meet">
<metadata>
Created by potrace 1.16, written by Peter Selinger 2001-2019
</metadata>
<g transform="translate(0.000000,101.000000) scale(0.100000,-0.100000)"
fill="#000000" stroke="none">
<path d="M559 968 c-6 -24 -10 -43 -10 -43 8 0 -66 -157 -94 -199 -51 -77 -66
-87 -54 -39 5 21 11 45 13 54 3 9 9 34 15 55 6 22 11 43 11 47 0 4 -29 5 -65
1 -46 -5 -69 -3 -80 6 -8 7 -24 10 -35 7 -19 -5 -19 -5 0 33 11 22 27 43 36
48 9 5 14 14 10 20 -6 11 -105 47 -110 41 -1 -2 -12 -40 -25 -84 -12 -44 -45
-124 -72 -178 l-49 -98 23 -40 c12 -21 26 -39 30 -39 5 0 16 19 25 42 l17 42
7 -39 c4 -22 7 -59 7 -82 1 -24 6 -43 11 -43 15 0 12 -67 -2 -74 -11 -5 -11
-7 0 -12 14 -7 17 -135 3 -149 -5 -6 -12 -24 -15 -40 -6 -25 -2 -36 23 -59
l30 -29 76 77 c42 42 81 76 86 76 5 0 -1 20 -13 45 -12 25 -25 45 -28 45 -4 0
-21 -20 -40 -45 -19 -25 -34 -45 -35 -45 -5 0 5 352 10 360 9 14 -26 27 -71
26 l-40 -1 23 55 24 55 57 0 c31 0 60 -4 64 -9 3 -5 -2 -32 -13 -59 -18 -46
-19 -50 -3 -62 20 -14 74 -18 74 -5 0 10 36 -1 77 -22 13 -6 25 -9 27 -7 2 2
26 40 52 84 l49 80 48 -3 c27 -2 55 2 63 9 15 12 148 4 191 -12 32 -12 57 15
49 55 -4 16 -12 34 -19 38 -14 9 -51 11 -59 2 -4 -3 -60 -6 -126 -7 -136 -2
-131 -8 -71 79 32 46 29 53 -30 73 -52 17 -59 14 -72 -31z"/>
<path d="M580 720 c-11 -7 -14 -26 -13 -72 l2 -63 -67 3 c-88 4 -122 -8 -122
-45 0 -48 9 -52 97 -49 l81 3 -4 -46 c-6 -63 -56 -161 -105 -206 -23 -21 -66
-48 -95 -62 l-54 -24 45 -35 c25 -19 48 -34 51 -34 4 0 35 20 69 45 103 73
182 216 187 340 1 18 8 20 73 22 l73 3 -4 -53 c-4 -51 -10 -111 -17 -175 -6
-48 -20 -57 -93 -57 -35 1 -64 0 -64 -2 0 -1 9 -17 20 -36 12 -19 20 -39 19
-43 -7 -39 22 -40 121 -7 73 24 91 59 96 186 2 51 6 108 9 127 3 19 8 61 10
92 l4 57 -117 -2 -118 -2 3 38 c2 21 8 48 14 59 13 24 7 31 -29 34 -15 1 -34
5 -42 8 -8 3 -22 1 -30 -4z"/>
</g>
</svg>
