<?xml version="1.0" standalone="no"?>
<!DOCTYPE svg PUBLIC "-//W3C//DTD SVG 20010904//EN"
 "http://www.w3.org/TR/2001/REC-SVG-20010904/DTD/svg10.dtd">
<svg version="1.0" xmlns="http://www.w3.org/2000/svg"
 width="101.000000pt" height="101.000000pt" viewBox="0 0 101.000000 101.000000"
 preserveAspectRatio="xMidYMid meet">
<metadata>
Created by potrace 1.16, written by Peter Selinger 2001-2019
</metadata>
<g transform="translate(0.000000,101.000000) scale(0.100000,-0.100000)"
fill="#000000" stroke="none">
<path d="M160 963 c-6 -27 -12 -50 -12 -53 -5 -44 -81 -217 -119 -270 -9 -12
-3 -23 25 -53 20 -21 40 -36 44 -33 5 3 31 53 58 111 l48 105 56 0 c31 0 59
-3 63 -6 3 -3 -6 -33 -20 -66 -30 -67 -25 -78 34 -76 35 1 40 11 78 145 14 49
21 61 31 52 7 -6 18 -8 24 -4 6 4 28 8 48 10 20 1 46 6 57 9 19 7 20 2 22 -91
l1 -98 -98 2 c-97 1 -98 1 -105 -24 -15 -62 15 -77 132 -67 l76 7 -8 -29 c-4
-16 -9 -42 -11 -59 -3 -16 -20 -62 -40 -102 -41 -85 -104 -146 -193 -188 -34
-16 -61 -32 -60 -35 0 -3 21 -20 46 -38 42 -31 48 -33 71 -20 44 22 142 119
169 165 14 25 36 70 49 101 18 46 24 53 30 37 33 -100 120 -230 176 -267 22
-15 25 -14 68 25 42 36 44 40 26 51 -118 70 -192 175 -229 326 -6 25 -5 25 48
23 30 -1 57 3 61 8 3 6 27 8 59 4 52 -7 54 -6 60 18 15 59 10 62 -116 62
l-115 0 0 102 1 101 30 7 c56 13 70 15 110 15 73 0 73 14 0 108 -1 1 -20 -4
-43 -12 -49 -18 -99 -28 -131 -27 -12 1 -28 -2 -34 -6 -11 -7 -33 -9 -149 -14
-42 -2 -80 -7 -84 -12 -4 -4 3 -18 16 -32 13 -14 20 -28 16 -32 -7 -7 -206
-12 -206 -6 0 12 50 112 59 117 22 14 10 25 -41 41 -28 8 -55 15 -59 15 -3 0
-12 -21 -19 -47z"/>
<path d="M161 632 c-12 -23 -13 -170 -1 -177 14 -9 12 -69 -2 -83 -8 -8 -8
-15 2 -26 9 -12 10 -29 2 -73 -6 -32 -12 -62 -13 -68 -2 -5 10 -24 27 -41 l29
-31 94 88 93 89 -17 45 -18 45 -57 -63 -58 -62 -6 45 c-11 71 5 254 24 290 8
15 6 21 -9 30 -31 16 -79 12 -90 -8z"/>
</g>
</svg>
