<?xml version="1.0" standalone="no"?>
<!DOCTYPE svg PUBLIC "-//W3C//DTD SVG 20010904//EN"
 "http://www.w3.org/TR/2001/REC-SVG-20010904/DTD/svg10.dtd">
<svg version="1.0" xmlns="http://www.w3.org/2000/svg"
 width="101.000000pt" height="101.000000pt" viewBox="0 0 101.000000 101.000000"
 preserveAspectRatio="xMidYMid meet">
<metadata>
Created by potrace 1.16, written by Peter Selinger 2001-2019
</metadata>
<g transform="translate(0.000000,101.000000) scale(0.100000,-0.100000)"
fill="#000000" stroke="none">
<path d="M171 973 c-6 -21 -11 -42 -11 -46 0 -20 -56 -148 -93 -211 l-40 -69
24 -44 c13 -23 27 -43 31 -43 3 0 30 46 59 103 l52 102 53 0 c30 0 54 -4 54
-8 0 -4 -9 -26 -20 -48 -22 -42 -19 -62 8 -57 10 1 22 -1 29 -5 26 -16 44 9
75 103 20 61 38 100 47 103 14 3 16 -10 13 -101 -1 -60 2 -110 8 -117 12 -14
12 -146 -1 -161 -4 -5 -7 -38 -6 -72 1 -36 -2 -62 -8 -63 -5 -1 -25 -2 -44 -4
-18 -2 -37 -8 -41 -15 -5 -8 -10 -1 -15 21 -11 51 -12 51 -58 3 l-42 -45 2
143 c0 79 4 155 8 171 7 26 0 33 -28 28 -4 -1 -17 4 -28 9 -11 6 -28 8 -39 5
-19 -6 -19 -15 -15 -211 2 -113 0 -215 -5 -227 -6 -17 -2 -29 22 -54 l31 -32
44 49 c55 61 125 118 123 99 -6 -42 -2 -43 135 -24 34 5 92 12 150 19 22 3 55
7 73 10 26 4 32 1 28 -9 -2 -7 0 -27 6 -43 9 -22 8 -39 -4 -74 -9 -26 -12 -51
-8 -59 11 -16 90 -15 100 1 4 7 1 35 -8 63 -11 39 -12 58 -4 80 6 16 9 34 6
41 -5 12 13 16 94 18 32 1 33 1 28 42 -3 22 -5 44 -5 48 -1 7 -10 7 -86 -6
l-30 -4 -2 71 c-3 78 -3 91 0 277 l2 125 48 1 c53 1 69 14 65 54 -3 25 -4 25
-137 34 -91 6 -140 5 -151 -2 -21 -13 -177 -15 -185 -3 -9 15 -94 11 -110 -6
-19 -19 -19 -48 1 -67 12 -12 12 -16 2 -17 -123 -6 -138 -4 -132 16 3 11 17
37 30 57 13 21 24 43 24 51 0 11 -70 37 -100 37 -5 0 -14 -17 -19 -37z m571
-168 c2 -28 -1 -53 -7 -57 -15 -11 -63 -9 -70 2 -4 6 -32 9 -63 8 l-57 -3 0
50 0 50 97 0 96 0 4 -50z m6 -124 c9 -5 12 -25 10 -62 l-3 -54 -100 3 c-55 2
-101 4 -101 5 -1 1 -4 23 -6 50 -5 46 -5 47 23 47 16 0 29 5 29 10 0 12 129
13 148 1z m-3 -252 c0 -45 -4 -59 -15 -61 -40 -4 -80 -8 -134 -12 l-58 -4 6
45 c3 25 6 54 6 64 0 19 20 23 135 25 l60 1 0 -58z"/>
</g>
</svg>
