<?xml version="1.0" standalone="no"?>
<!DOCTYPE svg PUBLIC "-//W3C//DTD SVG 20010904//EN"
 "http://www.w3.org/TR/2001/REC-SVG-20010904/DTD/svg10.dtd">
<svg version="1.0" xmlns="http://www.w3.org/2000/svg"
 width="101.000000pt" height="101.000000pt" viewBox="0 0 101.000000 101.000000"
 preserveAspectRatio="xMidYMid meet">
<metadata>
Created by potrace 1.16, written by Peter Selinger 2001-2019
</metadata>
<g transform="translate(0.000000,101.000000) scale(0.100000,-0.100000)"
fill="#000000" stroke="none">
<path d="M473 981 c3 -17 8 -34 11 -39 3 -4 7 -19 10 -33 2 -13 7 -32 11 -42
6 -13 3 -16 -9 -11 -9 3 -27 -1 -41 -10 -30 -19 -55 -21 -55 -3 0 10 -21 13
-89 13 l-89 -1 10 25 c5 14 21 40 35 58 31 42 23 53 -45 55 -47 2 -52 0 -58
-23 -4 -14 -8 -29 -10 -35 -2 -5 -6 -23 -9 -39 -8 -41 -43 -121 -79 -181 -16
-27 -29 -55 -29 -61 0 -14 44 -73 55 -73 4 -1 30 44 58 98 l50 100 37 -6 c21
-3 41 -8 45 -12 4 -3 -2 -25 -12 -49 -13 -29 -15 -42 -7 -43 7 -1 28 -3 48 -5
l36 -3 24 82 24 82 9 -38 c8 -30 13 -36 29 -31 10 3 29 7 40 9 12 2 31 6 42
10 17 5 23 -3 42 -50 19 -51 20 -56 5 -64 -46 -23 -125 -40 -231 -50 -10 -1
-2 -13 20 -33 20 -18 38 -39 40 -46 3 -10 34 -2 122 28 l118 40 38 -30 c57
-46 129 -71 176 -60 40 9 44 13 75 72 24 44 25 58 6 58 -8 0 -28 11 -44 25
l-30 25 -10 -30 c-6 -16 -8 -30 -5 -30 3 0 -2 -9 -12 -20 -16 -18 -20 -18 -54
-4 -70 29 -69 36 14 92 42 29 81 52 86 52 20 0 7 21 -28 45 -32 21 -34 25 -16
25 42 0 73 21 69 47 -11 58 -16 65 -48 58 -39 -9 -79 -15 -98 -16 -8 0 -22 -3
-30 -6 -16 -6 -27 -9 -70 -16 -14 -3 -31 -6 -39 -8 -20 -6 -30 65 -16 111 6
19 2 20 -60 20 l-66 0 4 -29z m251 -219 c-32 -29 -61 -49 -65 -45 -5 5 -15 24
-23 44 -15 35 -14 37 3 32 10 -3 31 2 46 9 15 8 43 14 62 14 l35 -1 -58 -53z"/>
<path d="M162 671 c-8 -4 -13 -19 -13 -32 6 -91 -1 -417 -9 -434 -2 -5 10 -24
26 -42 l31 -32 82 81 82 81 -18 43 c-10 24 -21 44 -24 44 -3 0 -21 -21 -40
-47 l-34 -48 -7 65 c-10 87 -1 250 16 291 5 12 1 18 -16 22 -13 3 -32 8 -43
11 -11 4 -26 2 -33 -3z"/>
<path d="M359 493 c-20 -5 -28 -31 -22 -67 5 -23 8 -25 47 -20 97 13 101 12
99 -21 -1 -16 -4 -43 -7 -60 -2 -16 -5 -35 -5 -42 -1 -7 -15 -28 -31 -47 -30
-33 -66 -51 -127 -62 -29 -5 -57 -24 -35 -24 6 0 27 -16 47 -35 l35 -35 59 29
c111 57 143 110 153 256 2 40 3 41 44 43 48 2 43 16 48 -148 2 -58 4 -110 5
-117 2 -17 90 -44 110 -34 9 5 35 9 59 8 49 0 77 21 98 70 18 42 18 73 0 73
-8 0 -28 11 -44 25 l-30 25 -8 -38 c-4 -20 -8 -40 -8 -44 -2 -20 -34 -32 -78
-29 -22 1 -45 129 -29 159 6 12 8 27 5 35 -4 10 2 15 18 17 65 4 106 3 134 -3
28 -5 32 -3 37 19 8 45 -2 62 -41 67 -21 2 -48 0 -61 -5 -46 -17 -365 -13
-440 6 -9 2 -23 2 -32 -1z"/>
</g>
</svg>
