<?xml version="1.0" standalone="no"?>
<!DOCTYPE svg PUBLIC "-//W3C//DTD SVG 20010904//EN"
 "http://www.w3.org/TR/2001/REC-SVG-20010904/DTD/svg10.dtd">
<svg version="1.0" xmlns="http://www.w3.org/2000/svg"
 width="101.000000pt" height="101.000000pt" viewBox="0 0 101.000000 101.000000"
 preserveAspectRatio="xMidYMid meet">
<metadata>
Created by potrace 1.16, written by Peter Selinger 2001-2019
</metadata>
<g transform="translate(0.000000,101.000000) scale(0.100000,-0.100000)"
fill="#000000" stroke="none">
<path d="M185 993 c-4 -10 -9 -29 -12 -43 -9 -48 -61 -160 -103 -221 l-43 -63
24 -43 c13 -24 26 -43 30 -43 3 0 28 39 55 88 l49 87 58 0 c31 0 57 0 57 -1 0
0 -7 -22 -16 -48 -9 -26 -14 -49 -12 -52 3 -2 23 -7 45 -10 l40 -5 27 97 c23
79 25 98 14 105 -15 10 -32 11 -41 3 -5 -6 -127 -12 -127 -6 0 11 44 85 65
110 25 29 25 31 7 41 -10 5 -28 7 -40 4 -13 -3 -22 -1 -22 6 0 18 -47 13 -55
-6z"/>
<path d="M507 983 c-21 -9 -36 -19 -34 -22 2 -3 18 -39 37 -79 31 -68 35 -73
59 -67 14 4 34 9 45 11 10 2 21 5 23 8 6 5 -78 166 -86 165 -3 -1 -23 -8 -44
-16z"/>
<path d="M744 978 c-4 -13 -6 -23 -5 -23 3 0 -36 -109 -50 -138 -12 -26 -16
-28 -51 -22 -25 4 -38 3 -38 -4 0 -6 -11 -11 -25 -11 -14 0 -25 5 -25 10 0 6
-28 10 -65 10 -60 0 -65 -2 -71 -24 -11 -46 3 -65 47 -64 22 0 41 -1 43 -3 2
-2 6 -42 8 -89 l6 -85 -82 0 c-78 0 -81 -1 -84 -24 -2 -12 -1 -33 2 -46 5 -19
12 -23 38 -20 18 1 41 6 51 10 9 4 29 4 43 1 23 -6 25 -10 19 -39 -21 -99 -83
-183 -177 -236 l-51 -29 39 -17 c21 -8 46 -23 56 -31 15 -15 20 -14 53 11 68
53 123 139 156 248 10 32 15 65 13 72 -4 8 3 13 18 14 13 0 39 2 58 3 32 3 35
1 38 -27 7 -67 6 -224 -1 -276 -9 -64 -3 -69 65 -61 36 4 37 5 31 36 -6 28 -8
249 -3 302 2 23 10 25 96 25 48 1 52 3 57 26 2 14 3 33 0 43 -4 15 -9 16 -39
7 -24 -7 -41 -7 -59 1 -14 6 -32 9 -40 6 -14 -6 -15 7 -13 95 3 97 4 101 26
101 12 0 33 -7 45 -15 28 -18 45 -8 53 31 7 36 -19 69 -45 58 -9 -3 -37 -7
-64 -8 -43 -2 -47 0 -41 19 11 37 54 103 79 123 29 23 21 34 -40 51 -56 15
-63 14 -71 -11z m-39 -351 l0 -93 -52 0 -52 1 2 87 2 87 30 4 c76 10 70 17 70
-86z"/>
<path d="M163 650 c-20 -8 -23 -16 -23 -70 0 -33 4 -60 10 -60 6 0 10 -16 10
-35 0 -19 -4 -35 -10 -35 -14 0 -13 -77 2 -82 8 -3 8 -25 0 -88 -10 -82 -10
-84 15 -116 l25 -33 94 81 c52 45 92 86 90 92 -3 6 -10 28 -17 50 l-13 38 -52
-58 -52 -59 -7 58 c-5 38 -4 62 4 71 6 8 10 46 10 92 -1 43 1 94 6 113 5 24 3
36 -6 42 -18 11 -57 10 -86 -1z"/>
</g>
</svg>
