<?xml version="1.0" standalone="no"?>
<!DOCTYPE svg PUBLIC "-//W3C//DTD SVG 20010904//EN"
 "http://www.w3.org/TR/2001/REC-SVG-20010904/DTD/svg10.dtd">
<svg version="1.0" xmlns="http://www.w3.org/2000/svg"
 width="101.000000pt" height="101.000000pt" viewBox="0 0 101.000000 101.000000"
 preserveAspectRatio="xMidYMid meet">
<metadata>
Created by potrace 1.16, written by Peter Selinger 2001-2019
</metadata>
<g transform="translate(0.000000,101.000000) scale(0.100000,-0.100000)"
fill="#000000" stroke="none">
<path d="M176 995 c4 -8 2 -21 -3 -28 -5 -6 -22 -51 -37 -99 -16 -48 -48 -120
-72 -159 -24 -39 -44 -74 -44 -77 0 -4 13 -22 29 -41 l28 -34 28 46 c15 26 28
47 30 47 2 0 3 -10 3 -22 1 -13 4 -39 7 -58 17 -100 13 -260 -9 -357 -3 -15 5
-33 28 -57 l32 -35 87 87 87 87 -24 46 -23 47 -44 -56 -44 -56 -7 44 c-11 61
-3 203 17 303 4 20 3 37 -1 38 -5 0 -20 3 -34 5 -14 3 -33 5 -42 6 -22 3 -22
0 -2 40 14 31 18 33 59 30 23 -2 53 2 65 8 23 12 23 11 -4 -35 -14 -27 -25
-49 -23 -51 3 -3 51 -14 76 -17 9 -1 25 30 47 86 18 49 35 91 38 95 3 3 36 5
74 5 37 -1 85 4 107 9 22 6 58 11 80 13 240 13 249 15 220 58 -25 38 -61 58
-92 52 -67 -14 -79 -16 -102 -15 -12 0 -28 -3 -34 -7 -12 -7 -42 -9 -177 -12
-41 -1 -88 -5 -103 -8 l-28 -5 21 -34 c11 -20 20 -36 20 -37 0 -1 -42 -2 -94
-2 l-94 0 20 40 c11 22 29 50 40 62 26 28 19 38 -36 52 -61 15 -77 14 -70 -4z"/>
<path d="M598 809 c-7 -4 -8 -29 -3 -70 9 -86 12 -96 36 -102 46 -12 94 32 72
65 -7 13 -10 24 -16 63 -7 42 -19 55 -48 53 -17 -1 -35 -5 -41 -9z"/>
<path d="M801 776 c-6 -24 -24 -69 -41 -101 -16 -31 -30 -59 -30 -61 0 -5 72
-35 75 -32 2 2 20 37 40 78 21 41 46 86 57 100 l20 25 -39 17 c-59 27 -69 24
-82 -26z"/>
<path d="M447 787 c-25 -8 -25 -8 -11 -59 7 -28 12 -54 12 -57 -1 -3 1 -16 5
-28 9 -26 33 -33 65 -19 24 10 25 19 7 101 -4 17 -8 37 -10 45 -2 8 -4 18 -4
22 -1 9 -30 7 -64 -5z"/>
<path d="M544 568 c-22 -58 -22 -58 -119 -44 -88 13 -101 11 -108 -14 -13 -49
22 -79 67 -58 14 6 39 7 65 1 l43 -8 -36 -54 c-20 -30 -33 -57 -29 -61 4 -4
43 -20 87 -35 70 -26 76 -30 60 -42 -28 -20 -122 -53 -168 -58 -22 -3 -50 -7
-61 -9 -11 -2 -27 -5 -35 -5 -11 -1 -10 -6 6 -19 12 -9 29 -29 38 -44 l17 -26
72 19 c40 11 112 39 161 63 l88 43 62 -40 c33 -21 71 -49 84 -60 l23 -21 41
41 41 41 -100 51 -101 50 42 85 c27 56 46 84 54 81 7 -3 23 0 34 6 15 8 27 8
44 -2 13 -7 27 -10 30 -6 8 8 10 75 2 83 -4 3 -31 1 -60 -5 -30 -7 -92 -9
-138 -6 -47 3 -95 6 -107 6 -29 1 -29 10 2 39 33 31 32 37 -12 49 -61 17 -67
15 -89 -41z m164 -116 l23 -7 -31 -62 c-18 -35 -35 -63 -40 -63 -20 0 -120 44
-120 53 0 5 9 25 21 44 14 22 26 32 38 29 9 -3 23 -1 31 4 17 11 43 11 78 2z"/>
</g>
</svg>
