<?xml version="1.0" standalone="no"?>
<!DOCTYPE svg PUBLIC "-//W3C//DTD SVG 20010904//EN"
 "http://www.w3.org/TR/2001/REC-SVG-20010904/DTD/svg10.dtd">
<svg version="1.0" xmlns="http://www.w3.org/2000/svg"
 width="101.000000pt" height="102.000000pt" viewBox="0 0 101.000000 102.000000"
 preserveAspectRatio="xMidYMid meet">
<metadata>
Created by potrace 1.16, written by Peter Selinger 2001-2019
</metadata>
<g transform="translate(0.000000,102.000000) scale(0.100000,-0.100000)"
fill="#000000" stroke="none">
<path d="M507 1013 c-15 -4 -17 -13 -14 -58 l4 -54 -78 4 -77 5 -7 -30 c-4
-16 -4 -34 0 -40 3 -5 3 -10 -2 -10 -122 -7 -131 -5 -121 15 6 11 26 39 44 62
19 23 34 44 34 48 0 7 -66 36 -96 41 -19 3 -25 -6 -49 -74 -26 -74 -71 -167
-116 -244 l-22 -36 24 -31 c13 -16 29 -29 34 -27 6 1 29 36 52 77 41 72 43 74
88 79 25 3 45 4 45 3 0 -2 -9 -21 -20 -43 l-20 -38 43 -8 c23 -5 46 -8 51 -9
4 0 23 40 40 89 l32 89 60 3 60 3 -1 -40 c0 -41 -5 -45 -36 -28 -11 5 -28 7
-39 4 -17 -5 -18 -14 -14 -88 7 -138 7 -161 0 -198 -7 -32 -6 -37 15 -42 12
-3 31 -1 41 4 10 6 38 7 63 4 42 -7 44 -8 40 -38 -5 -38 -21 -49 -60 -42 -128
23 -141 23 -148 -4 -2 -10 -2 -30 0 -44 5 -26 26 -29 84 -13 14 4 41 4 59 -1
l32 -9 -27 -32 c-34 -40 -83 -66 -169 -90 l-66 -18 44 -37 c25 -20 50 -37 56
-37 19 0 131 59 169 89 20 16 47 47 61 70 14 22 27 41 30 41 3 0 14 -16 24
-35 27 -49 95 -110 159 -141 l54 -26 24 23 c13 13 35 31 49 41 28 18 26 19
-45 37 -50 13 -144 69 -162 97 -16 26 -19 25 115 26 87 1 88 2 83 53 -2 29
-20 35 -62 20 -24 -9 -63 -12 -101 -9 -35 2 -72 5 -83 5 -19 1 -24 20 -16 60
1 9 28 11 122 9 l76 -1 -10 51 c-8 42 -7 54 4 62 11 7 11 11 2 15 -15 6 -18
73 -3 73 6 0 10 27 10 60 0 58 -5 66 -35 60 -5 -1 -23 -2 -40 -3 -27 -2 -30 1
-33 33 l-3 35 55 -2 c30 0 60 -4 65 -8 32 -19 68 25 59 72 -3 16 -14 18 -84
18 l-80 0 3 34 c1 18 8 40 15 48 17 20 -6 33 -57 31 l-40 -2 0 -54 0 -54 -56
-2 -55 -1 7 45 c4 25 6 45 5 45 0 1 -14 6 -29 13 -29 12 -31 13 -60 5z m173
-207 c0 -14 2 -30 5 -38 4 -10 -7 -12 -48 -10 -53 4 -53 4 -53 35 1 31 3 32
49 34 44 3 47 1 47 -21z m75 -114 c6 -4 11 -19 12 -34 1 -24 -3 -28 -41 -33
-22 -3 -75 -3 -116 0 -41 3 -84 6 -96 6 -15 1 -21 8 -21 28 0 25 2 26 53 24
30 -1 56 2 59 7 6 10 136 12 150 2z m-24 -128 c31 -5 37 -9 35 -29 -1 -21 -8
-25 -41 -30 -22 -3 -74 -3 -115 0 -41 3 -84 6 -95 6 -14 1 -20 9 -21 26 -2 18
2 22 15 19 9 -3 22 -2 30 3 16 10 140 13 192 5z"/>
<path d="M158 663 c-23 -6 -25 -25 -11 -98 10 -51 6 -288 -5 -329 -10 -36 -9
-42 18 -76 l30 -38 47 45 c27 24 63 56 81 70 28 22 32 31 27 52 -4 14 -9 37
-12 51 -6 35 -11 37 -30 10 -10 -14 -29 -38 -44 -54 l-27 -30 -6 84 c-7 102 0
213 18 267 6 19 2 25 -30 38 -20 8 -37 14 -38 14 0 -1 -9 -3 -18 -6z"/>
</g>
</svg>
