<?xml version="1.0" standalone="no"?>
<!DOCTYPE svg PUBLIC "-//W3C//DTD SVG 20010904//EN"
 "http://www.w3.org/TR/2001/REC-SVG-20010904/DTD/svg10.dtd">
<svg version="1.0" xmlns="http://www.w3.org/2000/svg"
 width="101.000000pt" height="102.000000pt" viewBox="0 0 101.000000 102.000000"
 preserveAspectRatio="xMidYMid meet">
<metadata>
Created by potrace 1.16, written by Peter Selinger 2001-2019
</metadata>
<g transform="translate(0.000000,102.000000) scale(0.100000,-0.100000)"
fill="#000000" stroke="none">
<path d="M584 972 l4 -50 -63 6 c-35 2 -80 1 -100 -2 -31 -6 -36 -11 -33 -29
3 -18 -1 -23 -21 -25 -35 -3 -135 -2 -139 3 -6 6 26 60 47 79 12 11 21 23 21
27 0 4 -25 13 -55 20 -59 13 -72 9 -80 -27 -2 -10 -6 -30 -9 -43 -8 -38 -61
-144 -100 -202 l-35 -53 32 -28 c17 -15 34 -27 37 -28 3 0 25 36 50 80 38 68
48 78 66 74 12 -3 32 -1 43 6 28 14 26 1 -4 -44 -14 -20 -25 -38 -25 -40 0 -5
82 -27 86 -23 3 2 22 40 44 83 37 76 39 77 40 44 5 -98 4 -95 25 -92 11 1 54
4 95 5 l75 2 0 -27 c0 -24 -5 -27 -42 -33 -24 -3 -48 -3 -54 1 -23 14 -145 22
-156 10 -8 -8 -8 -64 0 -72 7 -8 41 -7 87 1 42 8 205 9 275 2 28 -3 64 -1 81
5 24 9 41 7 77 -5 53 -18 83 -13 90 14 9 33 -3 60 -24 54 -10 -3 -27 -2 -37 4
-13 7 -34 5 -72 -6 -42 -12 -61 -13 -83 -5 -16 6 -34 9 -41 6 -9 -3 -11 4 -9
23 4 27 7 28 61 27 31 -1 67 -4 80 -8 51 -17 57 -5 59 109 2 123 7 118 -123
112 l-81 -3 8 40 c4 23 6 43 3 45 -2 2 -26 6 -54 9 l-50 5 4 -51z m2 -157 l0
-34 -50 6 c-28 3 -51 6 -52 7 -1 1 -4 12 -7 26 -6 24 -5 25 51 27 l57 1 1 -33z
m212 2 c-3 -29 -4 -29 -63 -31 -61 -1 -61 -1 -57 26 4 28 15 33 85 34 36 0 38
-1 35 -29z"/>
<path d="M152 671 c-8 -5 -13 -19 -13 -32 3 -46 2 -225 -1 -334 -3 -105 -2
-112 21 -142 l25 -32 51 47 c27 26 65 59 83 73 l32 25 -16 47 c-9 26 -19 47
-22 47 -4 -1 -25 -24 -47 -52 l-40 -52 -7 44 c-15 83 1 259 27 310 9 17 15 33
13 35 -28 23 -82 32 -106 16z"/>
<path d="M386 537 c-3 -11 -1 -27 3 -36 12 -22 13 -165 2 -195 -11 -28 5 -36
58 -28 l32 4 -1 77 c-2 112 -1 119 24 120 11 0 50 3 86 6 36 3 93 3 126 0 70
-7 66 0 64 -121 -1 -79 5 -86 68 -76 28 4 32 7 25 26 -8 22 -8 147 0 206 l5
35 -107 -3 c-169 -5 -303 -4 -343 1 -30 4 -37 2 -42 -16z"/>
<path d="M598 453 c-18 -5 -23 -19 -19 -61 1 -13 -3 -40 -10 -60 -33 -103 -96
-138 -276 -151 -13 -1 -9 -10 20 -37 20 -20 37 -41 37 -46 0 -18 72 0 147 37
104 51 158 124 168 225 2 14 6 40 10 58 7 28 5 32 -13 32 -11 0 -26 2 -34 4
-7 2 -21 2 -30 -1z"/>
<path d="M666 271 l-27 -29 63 -36 c35 -19 84 -52 110 -72 l47 -35 42 39 42
39 -121 61 c-66 34 -122 62 -124 62 -3 0 -17 -13 -32 -29z"/>
</g>
</svg>
