<?xml version="1.0" standalone="no"?>
<!DOCTYPE svg PUBLIC "-//W3C//DTD SVG 20010904//EN"
 "http://www.w3.org/TR/2001/REC-SVG-20010904/DTD/svg10.dtd">
<svg version="1.0" xmlns="http://www.w3.org/2000/svg"
 width="101.000000pt" height="101.000000pt" viewBox="0 0 101.000000 101.000000"
 preserveAspectRatio="xMidYMid meet">
<metadata>
Created by potrace 1.16, written by Peter Selinger 2001-2019
</metadata>
<g transform="translate(0.000000,101.000000) scale(0.100000,-0.100000)"
fill="#000000" stroke="none">
<path d="M170 974 c-7 -22 -12 -39 -11 -39 6 0 -64 -157 -93 -209 l-33 -61 22
-48 c26 -56 28 -55 85 55 l38 71 51 2 c28 1 51 -1 51 -4 0 -3 -13 -27 -28 -53
-21 -36 -31 -44 -43 -38 -26 15 -57 0 -63 -29 -3 -14 -5 -119 -4 -232 l1 -205
28 -34 29 -34 62 60 c35 33 77 71 95 84 l32 25 -16 54 -15 54 -50 -56 c-27
-32 -53 -57 -56 -57 -4 0 -6 69 -5 153 2 161 14 215 44 196 8 -5 17 -9 20 -9
4 0 22 36 40 81 31 74 34 79 42 55 5 -14 13 -26 18 -26 5 0 9 -13 9 -30 0 -16
5 -30 10 -30 6 0 10 -32 10 -75 0 -43 -4 -75 -10 -75 -6 0 -10 -30 -10 -70 0
-40 4 -70 10 -70 14 0 13 -87 -1 -92 -8 -3 -9 -33 -4 -100 8 -105 11 -110 72
-101 30 5 31 7 28 43 -3 33 -1 38 18 39 12 0 58 3 102 6 44 3 95 3 113 0 29
-5 32 -9 27 -34 -6 -33 10 -41 62 -34 l31 5 -4 119 c-2 67 0 128 5 138 15 26
2 64 -18 55 -26 -11 -212 -15 -225 -5 -6 5 -34 8 -61 8 l-50 -2 3 33 c4 34 13
37 114 32 20 -1 45 4 57 11 16 11 32 11 79 1 78 -16 77 -17 77 20 2 155 6 208
15 203 5 -3 25 -3 44 0 l34 7 0 78 0 78 -59 7 c-32 4 -82 5 -110 3 l-52 -3
-21 58 -21 58 -47 -5 c-65 -6 -72 -12 -50 -44 49 -70 53 -67 -76 -67 l-117 0
0 -27 c1 -16 -4 -29 -10 -30 -36 -5 -165 -2 -165 5 0 16 39 83 59 101 12 11
21 22 21 26 0 13 -45 27 -75 24 -16 -2 -32 2 -36 8 -4 6 -12 -7 -19 -28z m460
-156 c0 -8 29 -9 108 -4 l107 6 0 -44 0 -45 -97 6 c-71 4 -98 3 -98 -5 0 -17
-150 -16 -151 1 -5 83 -8 77 39 77 23 0 42 5 42 10 0 6 11 10 25 10 14 0 25
-5 25 -12z m135 -203 c0 -45 0 -45 -35 -45 -19 0 -72 3 -117 7 l-83 6 0 36 0
36 118 2 117 2 0 -44z m-4 -261 c19 -4 27 -11 27 -27 0 -12 4 -34 7 -49 6 -24
3 -29 -20 -38 -17 -6 -66 -9 -119 -6 -148 9 -141 7 -138 41 1 17 3 40 3 53 1
16 6 21 18 18 9 -3 22 -2 30 3 15 10 153 14 192 5z"/>
</g>
</svg>
