<?xml version="1.0" standalone="no"?>
<!DOCTYPE svg PUBLIC "-//W3C//DTD SVG 20010904//EN"
 "http://www.w3.org/TR/2001/REC-SVG-20010904/DTD/svg10.dtd">
<svg version="1.0" xmlns="http://www.w3.org/2000/svg"
 width="101.000000pt" height="102.000000pt" viewBox="0 0 101.000000 102.000000"
 preserveAspectRatio="xMidYMid meet">
<metadata>
Created by potrace 1.16, written by Peter Selinger 2001-2019
</metadata>
<g transform="translate(0.000000,102.000000) scale(0.100000,-0.100000)"
fill="#000000" stroke="none">
<path d="M144 987 c-3 -17 -7 -34 -7 -37 0 -15 -59 -174 -86 -233 l-31 -69 26
-34 c32 -41 31 -42 88 81 35 77 38 80 70 80 l34 0 -29 -57 c-23 -46 -26 -58
-14 -58 8 0 15 -5 15 -11 0 -7 -7 -8 -17 -4 -20 8 -52 9 -60 1 -3 -3 -4 -15
-4 -28 3 -48 2 -227 -1 -324 -4 -98 -4 -103 23 -135 l27 -33 52 57 c66 72 87
85 89 54 5 -72 4 -94 -2 -108 -6 -12 1 -15 42 -15 l50 0 -7 31 c-4 16 -6 46
-5 65 1 19 3 45 4 58 1 16 6 22 16 18 8 -3 24 -1 35 5 11 6 35 8 53 5 30 -6
32 -9 31 -44 -1 -36 -2 -37 -39 -38 -47 -1 -53 -7 -33 -36 9 -12 16 -30 16
-40 0 -15 7 -18 45 -14 34 2 52 -2 79 -20 19 -13 38 -24 41 -24 4 0 35 27 70
61 l63 61 17 -25 c9 -14 33 -37 54 -52 l39 -26 46 35 47 35 -33 17 c-18 9 -52
30 -75 45 -46 32 -46 35 -18 129 21 74 26 102 30 190 2 41 6 91 10 110 3 19 6
43 6 53 0 13 5 16 19 12 25 -8 52 22 48 54 -3 24 -8 27 -63 34 -33 4 -76 6
-96 5 l-36 -3 13 42 c7 24 22 63 33 88 11 25 16 47 10 50 -23 15 -94 23 -105
12 -3 -3 -6 -16 -8 -29 -1 -13 -5 -29 -9 -35 -4 -6 -7 -22 -6 -34 1 -33 -8
-74 -33 -146 -18 -53 -24 -61 -39 -52 -10 5 -24 7 -31 4 -10 -4 -13 7 -13 40
-1 45 5 51 44 45 16 -2 31 18 31 42 0 25 -30 50 -54 46 -19 -4 -21 0 -20 38 1
24 5 47 9 53 7 12 3 12 -58 15 -44 1 -52 -14 -43 -77 6 -41 5 -42 -21 -43 -26
-1 -28 1 -26 40 1 23 4 49 8 58 8 19 -25 32 -66 26 -22 -3 -24 -7 -23 -64 1
-58 0 -60 -23 -56 -16 3 -23 0 -23 -12 0 -18 -7 -19 -73 -10 l-46 7 20 36 c10
20 25 44 31 53 16 22 3 37 -37 44 -15 3 -36 9 -46 14 -15 8 -19 5 -25 -23z
m221 -233 c0 -41 -1 -42 -32 -41 -38 1 -38 2 -18 50 22 52 50 47 50 -9z m130
3 c0 -40 -2 -44 -25 -44 -23 0 -25 3 -22 38 3 29 9 39 25 42 12 2 22 5 22 6 0
0 0 -18 0 -42z m319 -66 c-2 -18 -6 -37 -9 -41 -3 -5 0 -20 7 -35 9 -20 9 -34
-2 -63 -7 -20 -15 -50 -16 -67 -2 -16 -6 -39 -8 -50 -2 -11 -5 -28 -5 -37 -1
-10 -5 -18 -9 -18 -9 0 -9 1 -15 67 -2 23 -10 56 -17 72 -7 19 -9 41 -4 58 13
49 13 83 -2 83 -17 0 -17 -1 -4 36 9 25 15 29 49 29 39 0 39 0 35 -34z m-523
-44 c4 -5 17 -8 30 -7 13 1 81 2 150 3 116 0 127 -1 147 -21 12 -12 26 -22 31
-22 6 0 10 -8 10 -17 0 -23 16 -155 25 -203 2 -14 12 -45 20 -69 l16 -45 -37
-39 c-70 -72 -68 -76 -67 122 0 97 2 183 4 191 10 44 6 46 -122 47 -68 1 -133
2 -146 3 -37 3 -37 5 -27 -120 3 -36 3 -94 -1 -130 l-6 -65 -16 35 c-9 19 -18
37 -20 40 -2 3 -19 -13 -37 -34 l-33 -40 -6 55 c-10 86 3 241 25 280 9 17 9
24 0 27 -6 2 -9 7 -7 10 6 10 60 9 67 -1z m225 -123 c15 -4 21 -14 21 -35 0
-24 -5 -30 -33 -35 -17 -3 -41 -1 -52 5 -11 6 -27 9 -35 6 -10 -4 -14 3 -14
25 0 23 4 29 16 25 9 -2 23 0 31 5 17 11 36 12 66 4z m0 -120 c15 -4 21 -13
20 -30 -1 -19 -8 -25 -32 -30 -18 -3 -41 -1 -52 5 -11 6 -27 9 -34 6 -8 -3
-14 4 -14 20 -2 20 2 24 15 21 9 -3 23 -1 31 4 17 11 36 12 66 4z"/>
</g>
</svg>
