<?xml version="1.0" standalone="no"?>
<!DOCTYPE svg PUBLIC "-//W3C//DTD SVG 20010904//EN"
 "http://www.w3.org/TR/2001/REC-SVG-20010904/DTD/svg10.dtd">
<svg version="1.0" xmlns="http://www.w3.org/2000/svg"
 width="101.000000pt" height="102.000000pt" viewBox="0 0 101.000000 102.000000"
 preserveAspectRatio="xMidYMid meet">
<metadata>
Created by potrace 1.16, written by Peter Selinger 2001-2019
</metadata>
<g transform="translate(0.000000,102.000000) scale(0.100000,-0.100000)"
fill="#000000" stroke="none">
<path d="M146 1013 c-2 -3 -2 -11 1 -19 3 -8 0 -20 -5 -27 -6 -7 -14 -27 -17
-45 -12 -69 -61 -187 -98 -236 -13 -18 -12 -23 12 -57 14 -21 28 -38 31 -39 3
0 26 42 52 93 l46 93 41 0 c22 -1 41 -2 41 -3 0 -1 -10 -23 -22 -48 -26 -53
-17 -66 41 -62 32 2 34 5 56 72 l22 70 8 -69 c5 -48 4 -80 -5 -104 -11 -31
-10 -36 12 -60 12 -15 24 -29 25 -30 1 -2 25 14 55 35 97 70 108 76 114 58 4
-10 14 -14 28 -10 14 4 10 -1 -11 -15 -18 -12 -33 -24 -33 -26 0 -2 18 -13 40
-24 35 -18 43 -19 60 -7 53 37 120 171 125 251 2 28 4 54 4 57 1 3 14 4 30 1
33 -5 42 -24 29 -61 -5 -13 -8 -47 -7 -76 2 -63 -5 -77 -39 -74 -60 5 -64 2
-47 -31 8 -16 15 -33 14 -37 -5 -30 2 -35 42 -29 78 13 106 37 116 101 5 33
15 175 18 243 2 60 1 63 -19 59 -57 -14 -156 -19 -156 -8 0 7 -21 11 -54 11
-41 0 -55 -4 -60 -17 -6 -14 -10 -11 -26 15 -22 36 -29 38 -69 17 -25 -12 -48
-19 -101 -29 -79 -15 -98 -32 -88 -77 2 -10 -6 -14 -32 -13 -19 1 -54 2 -77 3
l-43 1 21 53 c11 28 25 56 30 62 13 13 11 22 -8 30 -22 9 -90 15 -97 8z m494
-132 c0 -9 8 -12 23 -9 24 5 25 1 12 -82 -11 -69 -31 -128 -40 -118 -1 1 -17
38 -35 81 -17 42 -35 77 -39 77 -8 0 -74 -21 -79 -25 -2 -2 6 -18 17 -36 12
-19 21 -39 21 -46 0 -10 -59 -53 -74 -53 -10 0 -2 194 9 202 5 4 20 5 31 2 12
-3 33 0 47 8 35 18 107 17 107 -1z"/>
<path d="M147 663 c-14 -4 -16 -12 -10 -51 9 -69 5 -345 -6 -374 -8 -22 -5
-31 25 -64 l35 -39 22 30 c12 16 49 61 83 100 l61 70 -20 43 c-12 23 -24 42
-28 42 -3 0 -24 -25 -45 -56 -35 -51 -39 -54 -46 -33 -12 32 -2 206 16 287 6
23 4 33 -6 36 -28 9 -64 13 -81 9z"/>
<path d="M389 533 c-21 -5 -31 -40 -19 -62 5 -9 7 -59 4 -111 -6 -140 -6 -261
1 -268 3 -3 22 -5 42 -5 36 1 55 16 46 39 -2 7 5 12 19 13 13 1 46 3 73 6 28
2 96 2 153 -2 101 -5 103 -6 98 -28 -7 -26 12 -35 61 -28 37 6 47 30 30 76
-12 34 -14 238 -3 297 7 40 9 71 3 76 -2 2 -18 -1 -36 -7 -17 -6 -50 -8 -74
-5 -23 4 -69 7 -102 6 -33 -1 -103 -2 -155 -3 -52 0 -102 2 -110 5 -8 3 -22 4
-31 1z m186 -71 c6 -4 11 -24 12 -44 3 -33 0 -38 -23 -44 -14 -4 -36 -2 -50 4
-13 7 -30 9 -38 6 -12 -5 -15 3 -13 35 1 32 5 40 17 36 8 -2 22 0 30 5 18 11
51 13 65 2z m220 0 c6 -4 11 -24 12 -44 3 -33 0 -38 -23 -44 -14 -4 -36 -2
-50 4 -13 7 -30 9 -38 6 -12 -5 -15 3 -13 35 1 32 5 40 17 36 8 -2 22 0 30 5
18 11 51 13 65 2z m-220 -160 c6 -4 11 -26 13 -49 2 -38 0 -43 -24 -49 -14 -4
-36 -2 -50 4 -13 7 -30 9 -39 6 -12 -5 -14 3 -13 40 2 36 6 45 18 41 8 -2 22
0 30 5 18 11 51 13 65 2z m220 0 c6 -4 11 -26 13 -49 2 -38 0 -43 -24 -49 -14
-4 -36 -2 -50 4 -13 7 -30 9 -39 6 -12 -5 -14 3 -13 40 2 36 6 45 18 41 8 -2
22 0 30 5 18 11 51 13 65 2z"/>
</g>
</svg>
