<?xml version="1.0" standalone="no"?>
<!DOCTYPE svg PUBLIC "-//W3C//DTD SVG 20010904//EN"
 "http://www.w3.org/TR/2001/REC-SVG-20010904/DTD/svg10.dtd">
<svg version="1.0" xmlns="http://www.w3.org/2000/svg"
 width="101.000000pt" height="101.000000pt" viewBox="0 0 101.000000 101.000000"
 preserveAspectRatio="xMidYMid meet">
<metadata>
Created by potrace 1.16, written by Peter Selinger 2001-2019
</metadata>
<g transform="translate(0.000000,101.000000) scale(0.100000,-0.100000)"
fill="#000000" stroke="none">
<path d="M159 983 c-1 -10 -1 -24 0 -31 1 -8 -2 -19 -7 -25 -8 -10 -13 -27
-28 -82 -10 -40 -39 -106 -64 -147 -17 -26 -30 -52 -30 -56 1 -4 14 -22 30
-41 l28 -33 20 38 c18 35 20 36 21 14 0 -14 3 -41 6 -60 18 -107 16 -201 -9
-316 -3 -15 6 -32 30 -55 l35 -34 22 30 c12 16 48 60 80 97 l59 68 -19 45
c-10 25 -21 45 -24 45 -3 0 -23 -25 -44 -56 -36 -52 -39 -54 -47 -33 -12 32
-1 204 17 271 6 24 4 28 -19 34 -15 3 -40 4 -56 0 l-30 -6 25 49 c21 43 29 49
62 53 21 3 40 4 41 2 2 -1 -5 -23 -17 -48 -19 -45 -19 -46 -1 -46 10 0 21 -4
24 -9 3 -5 16 -8 28 -8 20 0 27 12 54 98 l31 98 -53 7 c-30 3 -65 4 -78 2 -21
-4 -24 -2 -20 20 6 30 30 78 44 87 28 17 -1 35 -67 41 -36 3 -43 1 -44 -13z"/>
<path d="M725 963 c-50 -122 -46 -118 -105 -118 -46 0 -50 1 -27 9 15 6 27 13
27 17 0 12 -64 119 -71 119 -4 0 -23 -7 -43 -15 l-36 -15 23 -38 c13 -20 26
-46 29 -57 5 -19 2 -20 -46 -15 -66 7 -84 3 -91 -21 -10 -29 3 -56 29 -63 13
-3 55 -4 95 -1 57 4 71 2 71 -10 0 -22 -20 -29 -72 -26 -94 5 -130 -17 -113
-69 6 -18 13 -20 80 -16 l73 5 -4 -27 c-3 -15 -6 -28 -8 -29 -5 -5 -134 -5
-172 0 -36 5 -43 3 -47 -13 -12 -48 24 -81 65 -59 17 9 118 2 118 -8 0 -3 -15
-33 -32 -66 -34 -64 -168 -213 -212 -236 -36 -20 -33 -32 17 -59 l42 -23 83
86 c61 64 82 81 82 65 0 -21 12 -25 62 -21 26 2 27 0 23 -34 -7 -52 -13 -58
-49 -51 -17 4 -52 9 -77 11 -51 6 -62 -6 -52 -58 4 -23 9 -25 41 -20 21 3 80
5 132 5 52 -1 124 -1 160 -1 36 0 99 0 142 0 67 0 77 3 81 20 12 44 -1 55 -58
53 l-54 -2 4 41 c2 23 7 62 10 87 3 25 7 59 9 75 2 17 5 35 6 40 9 38 2 40
-117 42 -144 2 -163 3 -163 12 1 17 22 36 42 39 83 9 187 11 251 4 74 -8 75
-8 80 16 6 32 -2 59 -19 66 -7 3 -33 -1 -56 -10 -30 -10 -66 -13 -127 -9 -48
3 -95 6 -107 6 -16 1 -20 7 -17 23 4 18 12 22 45 23 23 1 45 7 49 14 7 12 27
10 120 -7 40 -7 54 9 43 51 -7 28 -36 35 -145 35 -64 0 -79 3 -79 15 0 15 19
19 73 15 15 -1 35 4 43 11 9 8 34 10 74 6 52 -4 60 -3 65 14 4 10 4 27 0 38
-5 16 -15 18 -85 17 -89 -3 -90 0 -26 66 20 20 36 41 36 47 0 7 -80 41 -97 41
-2 0 -10 -17 -18 -37z m40 -598 c0 -38 -1 -40 -30 -37 -16 1 -39 3 -51 3 -15
1 -21 7 -19 23 1 11 3 27 4 34 0 8 8 11 19 8 9 -3 24 -1 32 4 29 19 45 7 45
-35z m-180 10 c-2 -11 -4 -25 -4 -32 -1 -7 -16 -11 -40 -10 -24 1 -37 5 -34
12 26 44 36 53 58 51 18 -1 23 -6 20 -21z m170 -155 l0 -45 -35 3 c-19 1 -44
3 -55 3 -20 1 -22 8 -16 67 0 8 8 11 19 8 9 -3 24 -1 32 4 8 6 24 9 35 8 17
-3 20 -11 20 -48z"/>
</g>
</svg>
