<?xml version="1.0" standalone="no"?>
<!DOCTYPE svg PUBLIC "-//W3C//DTD SVG 20010904//EN"
 "http://www.w3.org/TR/2001/REC-SVG-20010904/DTD/svg10.dtd">
<svg version="1.0" xmlns="http://www.w3.org/2000/svg"
 width="101.000000pt" height="101.000000pt" viewBox="0 0 101.000000 101.000000"
 preserveAspectRatio="xMidYMid meet">
<metadata>
Created by potrace 1.16, written by Peter Selinger 2001-2019
</metadata>
<g transform="translate(0.000000,101.000000) scale(0.100000,-0.100000)"
fill="#000000" stroke="none">
<path d="M100 982 c-10 -4 -15 -22 -16 -49 l-1 -43 124 4 c111 3 123 1 117
-13 -4 -9 -9 -34 -11 -56 -2 -22 -6 -65 -9 -95 -3 -30 -7 -68 -8 -85 -5 -66
-4 -64 -44 -62 -39 1 -39 1 -36 42 1 22 5 54 8 70 3 17 8 44 10 60 2 17 8 40
11 52 7 22 -4 29 -55 34 -43 4 -45 1 -42 -67 3 -45 -1 -75 -12 -99 -13 -27
-14 -39 -5 -59 9 -19 9 -29 1 -39 -6 -7 -14 -30 -17 -51 l-6 -37 49 4 c27 2
54 7 59 10 6 4 38 4 71 1 l60 -7 -4 -51 c-4 -63 -12 -125 -18 -151 -2 -11 -5
-27 -5 -36 -1 -22 -47 -39 -93 -34 -21 2 -38 1 -38 -1 0 -2 9 -21 20 -41 11
-21 20 -43 20 -50 0 -29 128 8 165 47 28 29 30 36 50 220 3 30 8 71 11 90 7
47 7 80 1 87 -3 3 -21 5 -40 6 -34 1 -35 2 -31 36 3 20 6 52 8 72 2 20 6 41 9
46 4 5 8 45 11 89 3 43 8 96 11 117 l5 38 -127 -2 c-71 -1 -141 1 -158 4 -16
4 -37 3 -45 -1z"/>
<path d="M817 954 c-4 -4 -43 -6 -87 -5 -50 1 -80 -2 -80 -8 0 -6 -16 -11 -35
-11 -19 0 -35 5 -35 10 0 6 -28 10 -65 10 -59 0 -65 -2 -70 -23 -9 -36 11 -80
35 -74 17 4 18 2 9 -14 -5 -11 -7 -25 -3 -31 4 -6 8 -21 10 -32 10 -75 73
-266 113 -344 l19 -38 -59 -72 c-33 -39 -83 -90 -112 -113 -28 -23 -53 -44
-54 -48 -2 -3 18 -16 44 -29 l47 -23 53 53 c30 29 72 77 95 105 l40 53 106
-100 105 -100 45 47 c25 26 40 49 34 51 -27 9 -132 83 -181 128 l-54 50 30 75
c17 41 41 110 53 154 11 44 23 89 26 100 14 49 34 159 29 163 -2 3 0 13 5 23
16 29 -39 67 -63 43z m-55 -128 c-2 -17 -5 -42 -7 -56 -2 -14 -7 -45 -10 -69
-8 -58 -54 -201 -64 -201 -16 0 -68 156 -76 229 -3 26 -11 70 -19 106 -4 19 2
20 88 21 l92 2 -4 -32z"/>
<path d="M299 436 c-2 -2 -22 -7 -44 -11 -22 -3 -51 -8 -65 -11 -14 -2 -41 -6
-60 -8 -73 -8 -89 -16 -85 -44 8 -64 15 -69 78 -51 36 10 79 18 122 23 51 6
73 18 78 43 7 40 -7 76 -24 59z"/>
</g>
</svg>
