<?xml version="1.0" standalone="no"?>
<!DOCTYPE svg PUBLIC "-//W3C//DTD SVG 20010904//EN"
 "http://www.w3.org/TR/2001/REC-SVG-20010904/DTD/svg10.dtd">
<svg version="1.0" xmlns="http://www.w3.org/2000/svg"
 width="101.000000pt" height="102.000000pt" viewBox="0 0 101.000000 102.000000"
 preserveAspectRatio="xMidYMid meet">
<metadata>
Created by potrace 1.16, written by Peter Selinger 2001-2019
</metadata>
<g transform="translate(0.000000,102.000000) scale(0.100000,-0.100000)"
fill="#000000" stroke="none">
<path d="M635 986 c-4 -19 -2 -43 5 -56 6 -12 8 -34 5 -51 l-7 -30 -64 6 c-35
4 -74 5 -88 1 -29 -7 -40 -41 -19 -62 13 -13 15 -33 9 -122 -3 -59 -9 -117
-12 -129 -5 -19 -3 -21 29 -19 19 2 39 6 46 10 6 4 32 4 57 0 33 -5 44 -10 40
-20 -3 -8 0 -25 6 -39 8 -19 7 -31 -6 -60 -9 -19 -14 -39 -11 -44 3 -5 1 -12
-5 -16 -10 -6 -70 107 -70 133 0 16 -4 15 -51 -9 l-40 -20 32 -57 c17 -31 42
-73 55 -92 l24 -34 -27 -28 c-14 -15 -55 -42 -90 -60 -34 -18 -63 -36 -63 -39
0 -7 76 -59 85 -59 5 0 63 42 141 103 23 18 25 18 76 -11 54 -30 178 -82 196
-82 8 0 62 83 62 95 0 5 -54 18 -85 21 -36 3 -133 38 -159 57 -16 12 -17 18
-5 58 7 24 13 51 15 59 6 38 15 107 15 121 0 10 9 17 22 18 60 5 105 4 132 -1
30 -6 30 -6 32 38 1 24 -3 46 -8 49 -12 8 -12 52 1 60 6 4 10 41 8 90 l-2 83
-88 7 -88 7 -2 46 c-2 61 -1 64 7 84 6 14 1 16 -34 11 -27 -4 -41 -2 -41 6 0
6 -7 11 -15 11 -8 0 -17 -14 -20 -34z m2 -301 l1 -85 -43 2 -43 2 1 78 2 77
40 4 c22 2 40 4 40 5 0 1 1 -36 2 -83z m178 -2 l0 -82 -42 1 -42 2 2 81 2 80
40 0 40 0 0 -82z"/>
<path d="M53 932 c-14 -14 -12 -66 3 -81 3 -3 58 -6 122 -6 l117 0 -1 -46 c-1
-26 -5 -52 -8 -58 -4 -6 -7 -34 -7 -63 0 -121 1 -118 -47 -115 l-43 1 6 86 c3
47 8 99 11 117 6 29 3 33 -22 39 -39 10 -66 8 -75 -7 -11 -18 -10 -117 1 -124
14 -9 12 -57 -4 -96 -29 -71 2 -121 61 -98 14 5 29 7 34 4 5 -3 18 -1 29 5 12
6 40 8 69 4 l50 -6 -5 -35 c-2 -19 -6 -39 -9 -43 -3 -5 0 -20 7 -35 9 -21 9
-31 -1 -46 -6 -11 -14 -37 -17 -57 -6 -52 -35 -79 -68 -64 -20 9 -66 7 -66 -3
0 -1 9 -24 21 -50 l21 -47 41 6 c81 13 136 64 144 133 2 21 6 72 8 113 2 41 6
91 9 110 16 98 14 104 -31 97 -37 -6 -38 -6 -37 26 0 18 3 41 7 52 3 11 9 58
12 105 6 92 11 139 15 155 7 27 -3 32 -65 34 -38 1 -65 -3 -65 -9 0 -12 -67
-14 -72 -1 -1 5 -32 10 -67 13 -47 3 -67 1 -78 -10z"/>
<path d="M256 403 c-3 -3 -50 -11 -116 -19 -25 -2 -54 -6 -65 -8 -11 -2 -25
-4 -31 -5 -12 -1 -11 -20 1 -64 7 -25 10 -27 39 -21 17 4 42 9 56 10 14 2 39
6 55 9 17 3 42 7 58 9 35 4 37 6 42 54 3 35 1 40 -16 39 -11 -1 -21 -3 -23 -4z"/>
</g>
</svg>
