<?xml version="1.0" standalone="no"?>
<!DOCTYPE svg PUBLIC "-//W3C//DTD SVG 20010904//EN"
 "http://www.w3.org/TR/2001/REC-SVG-20010904/DTD/svg10.dtd">
<svg version="1.0" xmlns="http://www.w3.org/2000/svg"
 width="101.000000pt" height="101.000000pt" viewBox="0 0 101.000000 101.000000"
 preserveAspectRatio="xMidYMid meet">
<metadata>
Created by potrace 1.16, written by Peter Selinger 2001-2019
</metadata>
<g transform="translate(0.000000,101.000000) scale(0.100000,-0.100000)"
fill="#000000" stroke="none">
<path d="M636 984 c-22 -8 -41 -16 -43 -18 -3 -2 6 -21 19 -43 14 -21 27 -42
30 -48 7 -11 -151 -13 -169 -2 -27 17 -42 -4 -42 -61 0 -32 -3 -73 -6 -93 -9
-43 12 -69 55 -69 41 0 60 24 60 76 0 40 2 44 25 44 14 0 25 5 25 10 0 12 64
13 174 3 l78 -6 -4 -61 c-3 -58 -2 -61 21 -64 12 -2 33 -1 46 2 21 5 23 13 30
90 9 113 3 130 -41 122 -35 -7 -203 5 -171 12 23 5 22 13 -8 72 -28 56 -25 54
-79 34z"/>
<path d="M68 934 c-22 -7 -33 -57 -18 -84 9 -16 17 -20 33 -16 12 4 65 8 118
9 l96 2 -5 -40 c-10 -92 -15 -163 -16 -215 -1 -53 -2 -55 -26 -52 -14 2 -35 3
-48 4 -20 0 -22 3 -16 47 3 25 8 66 10 91 2 25 7 65 13 90 5 25 7 47 4 50 -12
12 -94 4 -103 -10 -6 -8 -8 -50 -5 -93 2 -43 0 -88 -5 -102 -6 -15 -5 -34 3
-54 9 -24 9 -36 -1 -51 -27 -44 0 -67 60 -49 17 4 35 6 39 3 5 -3 17 0 28 5
29 16 144 2 137 -16 -3 -8 -1 -23 5 -35 8 -15 7 -28 -5 -53 -9 -18 -14 -40
-10 -48 3 -8 0 -34 -6 -56 -13 -49 -38 -63 -105 -56 -25 2 -45 2 -45 -1 0 -3
7 -18 15 -34 8 -16 15 -33 14 -37 -5 -32 21 -37 96 -18 103 26 119 54 130 225
2 36 7 83 10 105 8 47 9 84 3 91 -3 2 -25 5 -49 6 l-44 2 3 61 c5 78 11 150
17 200 13 99 15 135 6 135 -5 0 -13 -5 -17 -11 -6 -10 -175 -7 -264 5 -19 2
-43 2 -52 0z"/>
<path d="M546 658 c-3 -18 -4 -78 -1 -133 5 -107 6 -161 3 -240 -3 -73 10
-123 35 -140 23 -14 81 -29 107 -26 8 1 52 2 97 4 71 2 85 5 108 27 33 31 51
65 60 113 6 28 4 37 -7 37 -7 0 -30 9 -50 19 l-36 20 -8 -37 c-4 -20 -7 -40
-6 -44 1 -4 -14 -19 -33 -34 -27 -20 -42 -25 -62 -20 -16 4 -43 8 -62 11 -19
2 -37 9 -41 16 -14 22 -21 109 -10 128 5 11 7 26 5 34 -3 7 0 18 7 24 17 14
185 99 222 113 l29 11 -43 44 -42 43 -85 -64 c-46 -35 -89 -62 -95 -58 -5 4
-7 20 -4 38 4 17 8 46 10 64 3 18 10 39 16 47 16 19 -16 35 -69 35 -37 0 -40
-2 -45 -32z"/>
<path d="M240 378 c-12 -4 -26 -6 -31 -2 -5 3 -24 -2 -43 -11 -25 -12 -40 -14
-54 -6 -10 5 -28 8 -39 5 -16 -5 -20 -13 -18 -37 2 -18 3 -40 4 -50 1 -16 7
-18 44 -13 43 6 86 13 122 21 11 3 33 7 48 9 37 6 38 7 43 55 5 41 4 41 -25
39 -16 -1 -40 -6 -51 -10z"/>
</g>
</svg>
