<?xml version="1.0" standalone="no"?>
<!DOCTYPE svg PUBLIC "-//W3C//DTD SVG 20010904//EN"
 "http://www.w3.org/TR/2001/REC-SVG-20010904/DTD/svg10.dtd">
<svg version="1.0" xmlns="http://www.w3.org/2000/svg"
 width="101.000000pt" height="101.000000pt" viewBox="0 0 101.000000 101.000000"
 preserveAspectRatio="xMidYMid meet">
<metadata>
Created by potrace 1.16, written by Peter Selinger 2001-2019
</metadata>
<g transform="translate(0.000000,101.000000) scale(0.100000,-0.100000)"
fill="#000000" stroke="none">
<path d="M458 974 c-22 -7 -31 -35 -22 -69 6 -23 10 -25 38 -19 30 6 31 6 13
-13 -17 -19 -15 -22 43 -85 33 -37 60 -68 60 -71 0 -12 -108 -44 -178 -51 -19
-2 -35 -6 -38 -8 -2 -3 14 -24 37 -47 l40 -43 47 17 c26 10 76 32 111 51 l64
33 36 -18 c46 -24 178 -71 197 -71 16 0 62 86 52 96 -4 3 -44 12 -90 20 -129
22 -124 19 -79 70 21 25 57 80 80 123 l41 78 -63 1 c-94 1 -180 1 -249 0 -35
0 -76 2 -93 5 -16 3 -38 3 -47 1z m302 -94 c0 -3 -21 -31 -47 -64 l-47 -58
-53 55 c-29 30 -53 59 -53 64 0 4 45 8 100 8 55 0 100 -2 100 -5z"/>
<path d="M55 941 c-13 -41 18 -93 45 -76 5 3 45 7 88 9 l80 3 6 -81 c3 -45 5
-114 3 -155 l-2 -73 -40 -2 c-40 -2 -40 -2 -38 33 4 96 12 188 18 203 5 13 0
20 -20 28 -36 14 -51 13 -69 -6 -18 -17 -22 -109 -6 -119 13 -8 13 -52 -1 -61
-6 -4 -8 -20 -5 -39 4 -20 2 -36 -4 -40 -6 -4 -10 -26 -9 -50 l3 -44 40 5 c76
10 141 13 169 8 25 -5 28 -9 22 -32 -4 -15 -9 -45 -11 -67 -9 -104 -13 -135
-19 -145 -12 -19 -55 -31 -74 -21 -10 6 -27 8 -37 5 -19 -5 -20 -7 -5 -54 17
-57 32 -64 95 -45 87 26 104 45 112 118 5 54 15 155 19 187 2 14 6 51 9 82 l6
57 -38 -2 -39 -2 4 80 c1 44 6 109 9 145 3 36 8 89 10 119 l3 54 -37 -7 c-97
-16 -142 -18 -142 -7 0 7 -24 11 -69 11 -60 0 -71 -3 -76 -19z"/>
<path d="M637 613 c-16 -4 -18 -13 -15 -53 l3 -48 -50 4 c-73 7 -78 7 -96 6
-19 -2 -30 -32 -22 -61 6 -23 40 -34 65 -20 10 6 38 7 61 4 41 -6 43 -8 44
-45 l2 -38 -50 -6 c-27 -4 -55 -4 -61 0 -6 4 -26 8 -44 10 -35 2 -46 -14 -37
-59 6 -28 37 -41 64 -26 10 5 43 6 72 3 59 -7 55 -1 59 -84 2 -19 -1 -49 -5
-66 -9 -36 5 -45 61 -36 l32 4 -1 67 c-1 101 1 109 25 111 11 1 58 2 103 2 78
1 81 2 86 25 2 14 2 33 0 44 -5 16 -11 17 -52 11 -25 -4 -62 -6 -81 -5 -19 2
-45 3 -57 4 -19 1 -22 7 -20 39 1 42 0 41 103 41 43 0 53 3 57 19 13 49 -11
68 -73 61 -8 0 -31 -3 -50 -5 -33 -4 -35 -2 -34 23 0 15 4 33 9 41 17 28 -42
48 -98 33z"/>
<path d="M216 403 c-3 -4 -73 -15 -111 -17 -16 -2 -40 -6 -51 -10 -20 -6 -21
-10 -11 -49 5 -23 11 -43 12 -45 1 -1 35 6 75 17 40 11 76 18 80 16 14 -9 69
19 73 37 10 37 -4 58 -35 56 -16 -1 -30 -4 -32 -5z"/>
</g>
</svg>
