<?xml version="1.0" standalone="no"?>
<!DOCTYPE svg PUBLIC "-//W3C//DTD SVG 20010904//EN"
 "http://www.w3.org/TR/2001/REC-SVG-20010904/DTD/svg10.dtd">
<svg version="1.0" xmlns="http://www.w3.org/2000/svg"
 width="101.000000pt" height="102.000000pt" viewBox="0 0 101.000000 102.000000"
 preserveAspectRatio="xMidYMid meet">
<metadata>
Created by potrace 1.16, written by Peter Selinger 2001-2019
</metadata>
<g transform="translate(0.000000,102.000000) scale(0.100000,-0.100000)"
fill="#000000" stroke="none">
<path d="M585 1000 c-18 -56 -117 -146 -182 -166 -2 0 5 -19 14 -42 15 -40 18
-42 52 -38 104 12 131 14 131 11 0 -2 -4 -15 -9 -29 -10 -24 -11 -25 -98 -20
-48 3 -97 5 -107 5 -36 0 -48 -47 -20 -76 14 -13 30 -15 98 -9 l81 6 -30 -31
c-52 -56 -135 -97 -135 -67 0 10 -7 13 -22 11 l-23 -4 6 112 c4 61 10 150 14
196 l8 84 -42 -7 c-96 -15 -161 -18 -173 -9 -7 6 -34 11 -60 11 -37 1 -48 -3
-53 -18 -11 -34 5 -71 34 -76 l26 -6 -2 -146 c-1 -81 -3 -166 -6 -189 -5 -51
-3 -52 93 -38 19 3 50 8 67 11 39 7 49 -8 33 -50 -7 -19 -7 -33 1 -47 8 -16 7
-29 -6 -55 -9 -19 -13 -39 -10 -45 4 -6 -1 -19 -11 -30 -15 -16 -27 -19 -71
-15 -39 3 -53 1 -49 -7 3 -7 11 -31 18 -54 12 -44 29 -55 63 -41 11 4 39 12
63 18 56 14 74 43 78 128 1 37 5 87 9 112 3 25 7 59 7 77 l2 32 33 -25 33 -25
33 22 c55 38 101 80 135 122 17 22 32 37 32 33 0 -4 8 -3 17 2 13 8 22 2 42
-28 54 -80 231 -186 231 -139 0 6 9 24 21 41 12 16 19 31 16 34 -3 3 -22 7
-43 10 -44 5 -106 34 -146 67 l-27 22 97 2 c63 2 99 7 104 15 10 16 0 60 -15
70 -15 10 -61 10 -70 1 -4 -3 -49 -7 -101 -7 l-93 -1 8 27 c4 14 6 28 4 30 -2
2 28 4 66 5 59 2 71 0 81 -17 17 -27 27 -25 67 8 l34 28 -87 75 c-48 41 -93
75 -101 77 -17 4 -75 -25 -75 -38 0 -5 8 -11 18 -15 9 -3 31 -17 47 -30 l30
-25 -103 2 -103 3 65 62 c36 35 66 67 66 72 0 8 -31 23 -77 36 -16 4 -23 1
-28 -15z m-332 -210 c0 -32 -4 -64 -8 -70 -3 -5 -6 -41 -5 -78 2 -105 4 -100
-33 -99 l-32 1 -3 85 c-2 54 1 87 8 91 6 4 13 18 14 31 2 13 6 34 10 47 6 16
3 24 -11 30 -14 5 -8 8 22 13 22 3 40 7 40 8 0 0 -1 -26 -2 -59z"/>
<path d="M610 524 c-39 -39 -102 -76 -187 -110 -22 -9 -22 -9 8 -42 l29 -32
52 26 c29 15 87 50 129 79 42 29 83 55 90 58 10 4 4 15 -21 36 -19 17 -39 31
-45 31 -6 0 -31 -20 -55 -46z"/>
<path d="M709 444 c-66 -68 -171 -124 -263 -138 -21 -4 -42 -9 -47 -12 -11 -6
42 -74 58 -74 29 0 192 78 265 126 44 30 85 54 89 54 21 0 7 31 -24 54 -19 15
-36 26 -38 26 -3 0 -21 -16 -40 -36z"/>
<path d="M176 402 c-3 -2 -18 -5 -33 -6 -15 -2 -45 -6 -67 -11 l-38 -8 6 -40
c4 -23 8 -43 10 -44 4 -4 177 45 183 51 3 2 6 18 8 35 4 29 2 30 -30 29 -19
-1 -37 -3 -39 -6z"/>
<path d="M792 339 c-82 -75 -227 -147 -311 -154 -14 -1 -43 -5 -63 -9 l-36 -8
26 -39 c15 -21 35 -38 46 -39 30 0 227 69 276 97 25 14 70 44 101 67 31 23 65
46 75 52 16 10 17 13 5 28 -8 9 -26 25 -40 35 l-26 19 -53 -49z"/>
</g>
</svg>
