<?xml version="1.0" standalone="no"?>
<!DOCTYPE svg PUBLIC "-//W3C//DTD SVG 20010904//EN"
 "http://www.w3.org/TR/2001/REC-SVG-20010904/DTD/svg10.dtd">
<svg version="1.0" xmlns="http://www.w3.org/2000/svg"
 width="101.000000pt" height="101.000000pt" viewBox="0 0 101.000000 101.000000"
 preserveAspectRatio="xMidYMid meet">
<metadata>
Created by potrace 1.16, written by Peter Selinger 2001-2019
</metadata>
<g transform="translate(0.000000,101.000000) scale(0.100000,-0.100000)"
fill="#000000" stroke="none">
<path d="M620 998 c-45 -13 -45 -12 -24 -44 35 -53 32 -56 -74 -52 l-97 3 -1
-121 c0 -66 -4 -125 -8 -132 -4 -6 -6 -28 -6 -49 2 -60 -8 -113 -34 -167 l-24
-51 3 40 c2 22 6 61 9 88 l6 47 -30 -5 c-34 -6 -34 -6 -20 29 5 14 12 74 15
133 3 60 8 134 11 166 l5 57 -63 1 c-35 1 -101 3 -148 5 l-85 2 0 -44 c-1 -54
9 -58 113 -49 l77 7 -1 -60 c-1 -33 -5 -65 -8 -71 -4 -6 -7 -41 -7 -78 1 -99
1 -100 -28 -100 l-26 1 -3 98 c-2 78 1 102 13 114 24 25 17 42 -21 53 -63 18
-73 4 -74 -104 0 -33 -2 -101 -4 -152 -3 -85 -2 -92 17 -97 11 -3 28 -1 38 5
10 5 43 6 73 3 l54 -7 -4 -46 c-12 -129 -19 -175 -29 -190 -3 -6 -28 -9 -62
-5 l-55 5 7 -28 c4 -15 9 -39 10 -51 5 -36 12 -39 93 -29 67 8 112 69 115 156
l1 33 23 -28 22 -28 20 43 c17 40 20 42 30 24 10 -21 9 -111 -4 -174 -8 -41 5
-50 62 -42 29 5 31 7 22 32 -5 14 -7 60 -4 101 3 41 6 84 6 96 1 16 8 21 29
21 27 0 28 -1 25 -51 -2 -28 -5 -58 -6 -66 -5 -36 2 -58 21 -63 54 -14 80 24
54 79 -12 24 -13 37 -5 52 6 12 9 27 6 35 -4 10 2 14 23 14 33 0 33 -2 33
-104 0 -40 3 -53 14 -53 8 0 15 -6 15 -14 0 -7 6 -19 14 -25 8 -7 18 -26 21
-42 7 -29 9 -30 49 -26 49 5 73 16 99 45 18 20 18 19 16 297 -1 55 1 118 4
141 l6 40 -44 3 c-24 1 -59 -5 -79 -13 -37 -15 -125 -19 -141 -6 -5 4 -32 8
-60 8 -56 0 -105 10 -105 22 0 5 -2 14 -5 22 -4 10 17 13 107 12 62 -1 143 -5
180 -9 116 -13 113 -16 115 127 l1 123 -89 0 -89 0 -21 53 c-23 55 -28 58 -89
40z m30 -169 c0 -8 25 -10 83 -7 l82 4 1 -48 0 -49 -150 3 -151 3 0 43 0 42
43 0 c23 0 42 5 42 10 0 6 11 10 25 10 14 0 25 -5 25 -11z m-71 -313 c0 -12 2
-37 3 -56 3 -34 2 -35 -32 -35 -34 0 -35 1 -32 35 1 19 3 44 3 56 1 16 8 21
29 21 21 0 28 -5 29 -21z m120 0 c0 -12 2 -37 3 -56 3 -34 2 -35 -32 -35 -34
0 -35 1 -32 35 1 19 3 44 3 56 1 16 8 21 29 21 21 0 28 -5 29 -21z m140 0 c0
-11 2 -37 3 -56 3 -35 3 -35 -37 -35 -40 0 -40 0 -37 35 1 19 3 44 3 56 1 16
8 20 34 21 27 1 33 -3 34 -21z m-3 -172 c-3 -8 -1 -25 5 -38 7 -15 8 -39 2
-67 -7 -35 -13 -45 -31 -47 -14 -2 -24 3 -28 15 -3 10 -11 28 -17 41 -8 17 -8
31 0 53 7 17 10 36 7 43 -3 8 7 12 31 13 28 1 35 -2 31 -13z"/>
<path d="M189 406 c-2 -3 -25 -8 -49 -11 -25 -3 -54 -8 -65 -9 -11 -2 -25 -4
-32 -5 -11 -1 -11 -77 1 -89 3 -2 31 2 62 11 31 9 60 14 65 12 13 -9 57 17 62
36 8 29 -4 59 -22 59 -10 0 -20 -2 -22 -4z"/>
</g>
</svg>
