<?xml version="1.0" standalone="no"?>
<!DOCTYPE svg PUBLIC "-//W3C//DTD SVG 20010904//EN"
 "http://www.w3.org/TR/2001/REC-SVG-20010904/DTD/svg10.dtd">
<svg version="1.0" xmlns="http://www.w3.org/2000/svg"
 width="101.000000pt" height="101.000000pt" viewBox="0 0 101.000000 101.000000"
 preserveAspectRatio="xMidYMid meet">
<metadata>
Created by potrace 1.16, written by Peter Selinger 2001-2019
</metadata>
<g transform="translate(0.000000,101.000000) scale(0.100000,-0.100000)"
fill="#000000" stroke="none">
<path d="M450 929 c0 -33 4 -59 10 -59 6 0 10 -16 10 -35 0 -19 -5 -35 -10
-35 -7 0 -10 -39 -8 -110 3 -112 6 -119 43 -110 20 5 61 11 94 13 33 2 35 0
37 -35 3 -33 0 -37 -24 -42 -15 -2 -49 -3 -77 0 -111 9 -108 10 -108 -36 0
-45 3 -46 96 -35 26 3 47 2 47 -3 0 -19 -75 -121 -117 -159 -40 -36 -49 -40
-56 -27 -5 9 -6 28 -2 42 4 15 8 61 10 102 2 41 6 96 9 123 l6 47 -31 -5 -32
-6 8 58 c4 32 9 125 11 207 l4 148 -42 -5 c-112 -15 -199 -19 -211 -9 -21 17
-76 11 -82 -9 -9 -27 5 -68 25 -74 9 -3 62 -3 116 -1 l99 5 -1 -27 c-1 -15 -5
-35 -9 -45 -4 -10 -4 -70 -1 -132 l7 -115 -43 2 -43 2 3 56 c2 30 6 87 9 127
5 71 4 72 -21 79 -14 3 -38 2 -53 -3 -22 -7 -29 -17 -31 -41 -2 -18 1 -32 7
-32 14 0 14 -101 1 -190 -5 -35 -7 -66 -5 -68 4 -4 24 -4 105 3 73 6 113 -2
106 -22 -3 -8 -1 -23 5 -34 7 -14 7 -43 -1 -96 -12 -87 -39 -129 -75 -118 -11
4 -35 8 -53 10 -28 3 -32 1 -26 -13 4 -9 14 -36 22 -59 8 -24 20 -43 27 -43
27 0 137 39 155 55 16 15 20 14 48 -10 l30 -25 39 47 c58 72 87 113 120 172
36 63 35 68 35 -131 0 -150 -2 -144 58 -139 35 3 40 18 24 64 -10 29 -13 66
-9 126 3 48 5 97 6 109 1 17 12 3 37 -48 35 -70 135 -190 159 -190 6 0 14 8
18 19 3 10 14 26 25 36 11 10 20 21 20 26 0 4 -20 19 -44 33 -49 29 -99 83
-134 144 l-22 40 22 1 c56 4 95 2 124 -4 26 -6 32 -4 37 14 13 51 3 57 -101
58 -148 2 -140 0 -139 39 1 23 5 33 13 30 7 -3 26 0 42 6 23 9 38 8 68 -4 21
-8 44 -13 50 -11 8 3 10 35 6 108 -3 75 -2 105 7 105 6 0 11 17 11 40 0 22 -5
40 -11 40 -7 0 -10 21 -7 58 l3 57 -100 -3 c-149 -4 -223 -4 -287 2 l-58 4 0
-59z m175 -69 l0 -45 -40 0 -40 0 0 45 0 45 40 0 40 0 0 -45z m190 4 l0 -44
-50 2 -50 3 3 40 4 40 46 2 47 1 0 -44z m-190 -159 c0 -40 0 -40 -40 -40 -40
0 -40 0 -40 40 l0 40 40 0 40 0 0 -40z m189 -5 c-2 -43 -3 -45 -30 -42 -16 1
-38 3 -49 3 -17 1 -20 7 -17 43 l4 41 46 0 47 0 -1 -45z"/>
<path d="M226 413 c-5 -5 -68 -14 -125 -18 -29 -2 -58 -8 -63 -13 -11 -11 -1
-92 10 -92 4 0 24 5 45 11 39 10 80 18 135 24 43 4 44 6 48 54 3 38 2 41 -22
39 -14 -2 -26 -4 -28 -5z"/>
</g>
</svg>
