<?xml version="1.0" standalone="no"?>
<!DOCTYPE svg PUBLIC "-//W3C//DTD SVG 20010904//EN"
 "http://www.w3.org/TR/2001/REC-SVG-20010904/DTD/svg10.dtd">
<svg version="1.0" xmlns="http://www.w3.org/2000/svg"
 width="101.000000pt" height="102.000000pt" viewBox="0 0 101.000000 102.000000"
 preserveAspectRatio="xMidYMid meet">
<metadata>
Created by potrace 1.16, written by Peter Selinger 2001-2019
</metadata>
<g transform="translate(0.000000,102.000000) scale(0.100000,-0.100000)"
fill="#000000" stroke="none">
<path d="M618 1013 c-22 -5 -22 -10 -4 -59 l13 -39 -89 2 c-122 3 -138 -4
-138 -62 0 -25 5 -45 10 -45 6 0 10 -11 10 -25 0 -14 -4 -25 -10 -25 -6 0 -10
-30 -10 -70 0 -40 4 -70 10 -70 6 0 10 -11 10 -25 0 -14 -5 -25 -11 -25 -6 0
-9 -29 -8 -82 3 -103 -6 -159 -35 -223 l-22 -50 3 110 c1 61 5 124 7 140 9 53
9 60 8 78 -1 10 -10 17 -23 17 -11 0 -18 3 -15 8 2 4 7 92 10 195 l5 187 -37
2 c-20 1 -48 1 -62 0 -60 -5 -102 -4 -135 2 -46 9 -75 -7 -75 -42 0 -48 8 -51
115 -47 l100 3 -4 -87 c-2 -47 -4 -118 -4 -157 l0 -72 -31 1 -31 1 3 100 c2
56 4 117 5 136 2 35 2 35 -36 32 -22 -2 -37 1 -37 7 0 6 -4 11 -9 11 -5 0 -9
-47 -9 -104 1 -57 -2 -109 -7 -115 -4 -7 -4 -41 0 -76 5 -53 10 -64 27 -69 12
-3 30 -1 40 5 27 14 121 0 114 -17 -3 -8 0 -25 6 -39 8 -19 7 -31 -6 -59 -13
-28 -14 -39 -4 -60 10 -23 8 -29 -12 -51 -15 -16 -34 -25 -50 -24 -59 5 -62 2
-40 -33 11 -18 20 -41 20 -50 0 -23 21 -22 90 2 l55 19 32 -37 31 -37 36 75
c20 41 36 82 36 92 0 31 17 28 31 -5 7 -17 13 -33 15 -35 1 -2 19 7 41 21 80
50 79 50 80 6 2 -42 -8 -53 -50 -55 -15 -1 -30 -4 -33 -6 -8 -9 31 -87 46 -90
25 -5 100 23 110 42 5 10 11 52 12 94 2 42 6 76 11 76 4 0 7 -4 7 -9 0 -5 5
-22 10 -36 l10 -26 31 23 c73 54 74 55 67 36 -4 -9 -2 -30 4 -46 15 -38 -3
-64 -41 -61 -62 5 -63 3 -33 -52 26 -48 28 -50 62 -45 76 12 104 62 93 171 -9
95 -6 260 7 310 9 38 0 46 -44 40 -24 -4 -46 -3 -49 2 -7 12 -98 16 -113 5 -6
-4 -14 -14 -17 -22 -5 -13 -6 -12 -6 1 -1 13 -18 18 -84 23 -46 4 -90 4 -99 1
-12 -5 -17 2 -20 24 l-5 31 59 0 c32 0 58 4 58 10 0 6 16 10 35 10 19 0 35 -4
35 -10 0 -5 18 -10 40 -10 22 0 40 5 40 11 0 7 25 8 79 3 73 -6 79 -5 85 13 4
11 3 30 -2 43 -5 12 -5 48 0 79 12 87 14 86 -109 88 -83 1 -108 4 -108 15 -1
7 -5 29 -9 50 -7 32 -11 36 -39 35 -18 0 -40 -2 -49 -4z m57 -173 c4 -7 36 -9
83 -6 l77 5 1 -37 2 -37 -167 0 -166 0 0 35 -1 35 49 -4 c27 -1 54 2 60 8 14
14 54 14 62 1z m-133 -302 c13 0 38 2 56 5 27 5 33 3 28 -9 -3 -9 -1 -24 4
-34 6 -11 7 -43 4 -76 l-7 -56 -53 -24 c-74 -33 -110 -41 -98 -23 4 8 10 57
11 109 2 52 4 106 4 120 1 23 2 24 14 6 8 -10 24 -18 37 -18z m216 7 c86 11
87 11 88 -10 0 -11 3 -31 7 -45 5 -14 4 -43 -1 -65 -7 -35 -14 -43 -62 -67
-30 -15 -58 -28 -61 -28 -16 0 -29 62 -28 130 1 80 10 130 17 98 3 -14 11 -16
40 -13z"/>
<path d="M530 498 c-33 -12 -33 -12 -16 -46 9 -17 14 -37 11 -44 -11 -29 10
-40 53 -29 l40 11 -18 52 c-20 58 -35 70 -70 56z"/>
<path d="M741 511 c-10 -6 -11 -18 -5 -42 9 -36 11 -47 13 -66 1 -14 58 -10
73 5 6 6 4 28 -5 58 -11 40 -19 49 -38 52 -13 1 -30 -2 -38 -7z"/>
<path d="M205 409 c-16 -4 -45 -12 -65 -15 -31 -6 -48 -8 -106 -13 -11 -1 -13
-7 -8 -23 4 -13 8 -34 10 -46 1 -13 5 -26 7 -29 3 -2 42 7 87 21 44 14 88 26
96 26 18 0 34 41 27 69 -6 23 -5 23 -48 10z"/>
</g>
</svg>
