<?xml version="1.0" standalone="no"?>
<!DOCTYPE svg PUBLIC "-//W3C//DTD SVG 20010904//EN"
 "http://www.w3.org/TR/2001/REC-SVG-20010904/DTD/svg10.dtd">
<svg version="1.0" xmlns="http://www.w3.org/2000/svg"
 width="101.000000pt" height="103.000000pt" viewBox="0 0 101.000000 103.000000"
 preserveAspectRatio="xMidYMid meet">
<metadata>
Created by potrace 1.16, written by Peter Selinger 2001-2019
</metadata>
<g transform="translate(0.000000,103.000000) scale(0.100000,-0.100000)"
fill="#000000" stroke="none">
<path d="M624 1019 c-3 -6 -15 -8 -26 -6 -15 4 -18 1 -13 -13 20 -64 23 -62
-80 -55 -146 11 -189 -5 -170 -64 5 -16 17 -18 105 -19 55 -1 102 3 105 8 8
13 52 13 59 1 8 -13 108 -12 123 1 13 11 151 6 190 -7 16 -5 23 -2 28 14 14
44 -2 59 -68 65 -34 4 -89 5 -123 3 -52 -3 -61 -1 -57 13 8 31 -15 70 -41 70
-14 0 -28 -5 -32 -11z"/>
<path d="M287 954 c-3 -3 -63 -6 -134 -7 l-128 -2 -3 -31 c-3 -33 22 -69 40
-58 5 3 44 8 87 10 l77 4 -3 -62 c-2 -35 -3 -72 -3 -83 4 -70 3 -94 -3 -127
-7 -33 -10 -36 -40 -35 l-32 1 2 55 c1 31 4 70 7 86 24 120 20 135 -39 135
l-30 0 3 -70 c2 -45 -2 -87 -11 -115 -12 -35 -13 -51 -4 -75 9 -23 9 -35 -1
-50 -6 -11 -12 -27 -12 -35 0 -20 19 -22 105 -10 82 12 90 11 91 -10 0 -11 4
-32 8 -47 5 -17 2 -46 -7 -79 -12 -39 -13 -57 -5 -75 15 -33 -14 -66 -57 -63
-66 4 -66 4 -42 -52 22 -50 22 -50 61 -44 53 8 93 30 110 63 12 23 15 25 21
10 10 -25 23 -23 81 16 l50 34 1 -35 c1 -21 -4 -36 -13 -40 -20 -8 -17 -22 12
-60 l26 -35 27 25 c14 13 49 40 77 58 42 28 50 37 43 54 -18 46 -6 47 39 3 47
-45 101 -78 171 -102 l36 -13 32 47 32 48 -32 7 c-18 4 -39 8 -47 10 -41 6
-80 17 -85 25 -3 4 17 22 45 39 27 17 50 33 50 36 0 2 -17 16 -37 31 -21 14
-30 24 -20 20 9 -3 29 0 43 6 19 9 30 9 45 0 10 -7 21 -12 23 -12 8 0 14 41 9
60 -5 19 -13 21 -77 20 -103 -2 -112 0 -113 22 -1 13 3 18 13 14 8 -3 25 0 39
6 19 8 28 8 40 -2 20 -17 28 -8 28 31 0 34 -18 52 -46 43 -47 -15 -73 -13 -74
6 -1 12 6 18 20 19 12 1 38 2 57 4 19 1 47 -2 61 -6 22 -5 28 -3 32 13 3 11 3
29 0 40 -5 17 -14 20 -62 20 -95 -1 -107 1 -108 20 -2 18 3 20 82 23 l41 1 1
76 1 75 -84 -4 c-59 -2 -84 0 -84 9 0 7 -13 10 -32 8 l-33 -3 -2 -82 c-2 -76
0 -83 18 -83 14 0 18 -6 15 -22 -3 -19 -9 -23 -37 -20 -19 1 -43 3 -54 3 -27
2 -32 39 -5 39 15 0 20 11 25 65 10 88 5 97 -45 89 -23 -4 -45 -2 -53 4 -15
13 -108 14 -127 2 -16 -10 -25 -128 -12 -148 9 -14 26 -15 87 -10 26 3 30 0
30 -22 0 -22 -4 -25 -35 -22 -58 4 -81 4 -84 1 -10 -12 -14 -46 -7 -57 8 -14
20 -15 91 -10 30 3 35 0 36 -20 1 -19 -2 -21 -20 -15 -21 7 -65 8 -70 2 -2 -2
-6 -13 -10 -24 -10 -34 9 -50 58 -47 42 1 46 0 42 -21 -3 -23 -13 -25 -103
-13 -34 4 -43 2 -43 -9 0 -8 -5 -15 -11 -15 -7 0 -9 12 -5 33 3 17 9 53 12 80
l5 47 -31 -5 -30 -5 6 52 c3 29 8 82 10 118 2 36 7 99 10 141 5 63 4 77 -9 82
-8 3 -17 3 -20 1z m250 -201 c0 -8 -15 -12 -44 -11 -56 3 -56 23 0 23 28 0 44
-4 44 -12z m273 3 c0 -11 -11 -15 -40 -13 -50 2 -52 15 -2 20 20 2 38 4 40 5
1 1 2 -5 2 -12z m-125 -206 c0 -22 -4 -25 -35 -22 -19 1 -44 3 -55 3 -13 1
-21 9 -22 21 -1 14 3 17 15 14 9 -3 24 -1 32 4 8 6 26 9 40 8 19 -2 25 -9 25
-28z m0 -100 c0 -22 -4 -25 -35 -22 -19 1 -44 3 -55 3 -13 1 -21 9 -22 21 -1
14 3 17 15 14 9 -3 24 -1 32 4 8 6 26 9 40 8 19 -2 25 -9 25 -28z m-302 -94
c18 2 43 6 57 9 14 4 36 2 49 -3 23 -8 19 -12 -53 -60 -98 -66 -107 -66 -102
-4 9 102 8 99 13 75 3 -17 10 -21 36 -17z m411 6 c3 -5 -12 -26 -33 -46 l-38
-38 -22 35 c-26 42 -26 50 -3 43 9 -3 24 -1 32 4 19 12 57 13 64 2z m-176 -49
c12 -36 11 -39 -19 -66 -38 -34 -60 -24 -41 18 7 15 10 31 6 36 -6 10 23 49
36 49 4 0 12 -17 18 -37z"/>
<path d="M184 400 c-23 -9 -96 -23 -151 -29 -11 -1 -12 -24 -4 -95 1 -4 9 -5
18 -1 10 4 54 18 97 31 44 13 81 26 84 29 3 2 6 20 8 40 3 37 -8 43 -52 25z"/>
</g>
</svg>
