<?xml version="1.0" standalone="no"?>
<!DOCTYPE svg PUBLIC "-//W3C//DTD SVG 20010904//EN"
 "http://www.w3.org/TR/2001/REC-SVG-20010904/DTD/svg10.dtd">
<svg version="1.0" xmlns="http://www.w3.org/2000/svg"
 width="101.000000pt" height="101.000000pt" viewBox="0 0 101.000000 101.000000"
 preserveAspectRatio="xMidYMid meet">
<metadata>
Created by potrace 1.16, written by Peter Selinger 2001-2019
</metadata>
<g transform="translate(0.000000,101.000000) scale(0.100000,-0.100000)"
fill="#000000" stroke="none">
<path d="M209 1004 c-12 -4 -16 -19 -17 -64 0 -33 4 -62 9 -65 10 -7 12 -53 3
-105 -6 -35 -6 -35 -52 -33 -67 3 -92 -4 -92 -27 0 -11 5 -20 10 -20 14 0 13
-66 -2 -89 -19 -31 -3 -51 39 -51 40 0 65 11 62 26 -1 5 -1 23 0 39 l1 30 80
2 c98 3 143 3 391 0 l197 -2 -5 -24 c-9 -54 -7 -59 31 -66 60 -12 75 -1 74 55
0 27 3 62 7 79 8 39 -16 53 -89 49 l-54 -3 -7 88 c-4 55 -3 93 4 100 5 7 9 26
9 42 l-1 30 -71 -4 c-39 -3 -93 -4 -121 -3 -171 5 -325 12 -355 16 -19 2 -42
2 -51 0z m241 -85 c0 -8 35 -10 128 -5 l127 8 0 -95 0 -95 -56 1 -56 2 5 42
c2 23 2 52 -1 65 -6 23 -8 23 -154 23 -146 0 -148 0 -149 23 -2 20 3 22 42 22
24 0 44 5 44 10 0 6 16 10 35 10 19 0 35 -5 35 -11z m46 -159 l-1 -30 -101 2
c-97 3 -100 4 -96 25 4 23 18 26 153 31 45 2 46 1 45 -28z"/>
<path d="M223 600 c-20 -8 -23 -16 -23 -70 0 -33 4 -60 10 -60 6 0 10 -16 10
-35 0 -19 -4 -35 -10 -35 -5 0 -10 -18 -10 -40 0 -22 5 -40 10 -40 15 0 12
-67 -2 -74 -10 -5 -10 -7 0 -12 9 -4 11 -21 6 -64 -7 -64 1 -72 65 -62 25 3
31 8 25 21 -7 14 -8 39 -3 107 1 15 8 22 23 23 11 1 44 3 71 5 28 3 107 2 176
-1 l127 -6 -2 -28 c-2 -42 -20 -56 -56 -42 -16 6 -38 9 -49 6 -18 -5 -18 -6 5
-40 13 -20 24 -42 24 -49 0 -13 22 -20 45 -14 6 1 19 4 30 5 11 2 37 10 58 18
33 14 42 26 38 50 -8 47 -10 261 -3 270 6 7 10 37 10 67 0 30 1 60 2 65 7 32
-1 36 -82 35 -46 0 -171 1 -278 4 -107 2 -205 0 -217 -4z m418 -79 c54 -1 56
-2 56 -30 l0 -28 -126 -6 c-69 -3 -148 -4 -176 -1 -27 2 -59 4 -71 5 -16 1
-21 8 -21 30 0 22 4 28 16 24 9 -2 23 0 31 5 8 5 65 8 125 6 61 -2 135 -5 166
-5z m0 -130 c54 -1 56 -2 56 -30 l0 -28 -126 -6 c-69 -3 -148 -4 -176 -1 -27
2 -59 4 -71 5 -16 1 -21 8 -21 30 0 22 4 28 16 24 9 -2 23 0 31 5 8 5 65 8
125 6 61 -2 135 -5 166 -5z"/>
</g>
</svg>
