<?xml version="1.0" standalone="no"?>
<!DOCTYPE svg PUBLIC "-//W3C//DTD SVG 20010904//EN"
 "http://www.w3.org/TR/2001/REC-SVG-20010904/DTD/svg10.dtd">
<svg version="1.0" xmlns="http://www.w3.org/2000/svg"
 width="101.000000pt" height="101.000000pt" viewBox="0 0 101.000000 101.000000"
 preserveAspectRatio="xMidYMid meet">
<metadata>
Created by potrace 1.16, written by Peter Selinger 2001-2019
</metadata>
<g transform="translate(0.000000,101.000000) scale(0.100000,-0.100000)"
fill="#000000" stroke="none">
<path d="M113 847 l4 -132 -31 0 -30 0 -1 -72 c-1 -76 1 -78 46 -75 11 1 17
-7 18 -21 3 -38 3 -220 0 -277 -5 -113 -1 -147 21 -153 11 -3 29 -3 40 0 18 5
20 13 19 72 -1 101 1 113 18 107 8 -3 23 -1 34 4 11 6 40 8 67 4 l49 -6 -1
-42 c-1 -34 -5 -41 -21 -42 -59 -3 -57 -1 -40 -34 8 -16 15 -36 15 -45 0 -13
6 -15 33 -10 17 4 43 12 57 19 25 11 25 12 26 151 1 77 4 160 8 185 4 25 8 59
8 76 2 27 5 30 36 31 25 1 32 -3 28 -13 -9 -24 4 -42 27 -37 19 4 20 3 5 -7
-16 -10 -16 -14 3 -63 11 -29 34 -74 50 -101 17 -26 28 -54 26 -60 -3 -7 -40
-30 -83 -51 -44 -22 -80 -40 -82 -41 -3 -1 43 -72 52 -82 5 -4 71 35 130 77
39 28 51 32 65 23 28 -20 134 -74 171 -87 l35 -12 28 50 c21 39 24 53 15 59
-7 4 -18 6 -25 4 -15 -6 -99 17 -145 39 l-37 18 20 28 c25 36 116 225 124 260
6 24 3 27 -27 31 -18 3 -49 0 -70 -8 -36 -12 -101 -12 -188 1 -25 4 -55 7 -67
7 -22 0 -29 10 -23 33 2 6 2 18 2 28 -1 21 8 22 34 2 10 -8 24 -15 30 -15 17
0 38 59 37 103 -1 23 4 45 13 54 8 8 12 23 9 33 -5 15 1 19 42 22 l48 3 -3
-68 c-2 -38 2 -84 8 -103 14 -41 50 -60 81 -43 11 6 39 7 64 3 25 -3 45 -2 46
2 1 16 7 41 14 63 6 21 5 22 -54 18 -49 -3 -62 -1 -65 12 -7 21 0 136 8 149 3
6 3 18 -1 27 -5 16 -17 17 -99 11 -67 -5 -98 -4 -113 5 -15 10 -25 10 -45 1
-25 -11 -26 -14 -23 -99 2 -102 -17 -147 -65 -150 l-26 -2 4 97 c2 53 7 105
10 115 3 9 3 25 0 35 -5 15 -24 17 -186 19 l-180 1 3 -131z m274 -43 l3 -90
-30 4 c-27 4 -30 8 -30 38 0 19 5 34 11 34 6 0 9 14 7 33 l-3 32 -75 0 c-68 0
-75 2 -75 20 0 19 7 20 95 20 l95 0 2 -91z m-135 -61 c3 -25 1 -28 -27 -28
-26 0 -30 4 -30 28 0 23 4 27 26 27 21 0 28 -5 31 -27z m130 -89 c38 -5 46 -9
45 -25 -1 -14 -12 -20 -45 -25 -55 -8 -116 -8 -162 0 -19 4 -44 7 -55 8 -13 0
-21 8 -22 20 -1 14 3 17 15 14 9 -3 23 -2 31 3 16 10 127 13 193 5z m371 -113
l28 -6 -40 -82 c-22 -46 -43 -83 -46 -83 -7 0 -57 109 -70 148 -6 20 -4 23 12
18 10 -3 25 -1 33 4 16 11 40 11 83 1z m-402 -11 c12 0 16 -8 15 -24 -1 -21
-7 -25 -49 -30 -26 -4 -55 -2 -66 4 -11 5 -26 8 -33 5 -8 -3 -14 4 -14 20 -2
20 2 24 15 21 9 -3 23 -1 31 5 8 5 31 7 50 4 19 -2 42 -5 51 -5z m0 -110 c11
0 16 -9 16 -29 0 -27 -4 -29 -49 -35 -27 -4 -56 -2 -67 4 -11 5 -26 8 -34 5
-10 -4 -14 3 -14 25 0 23 4 29 16 25 9 -2 23 0 31 6 8 5 31 7 50 4 19 -2 42
-5 51 -5z"/>
</g>
</svg>
