<?xml version="1.0" standalone="no"?>
<!DOCTYPE svg PUBLIC "-//W3C//DTD SVG 20010904//EN"
 "http://www.w3.org/TR/2001/REC-SVG-20010904/DTD/svg10.dtd">
<svg version="1.0" xmlns="http://www.w3.org/2000/svg"
 width="101.000000pt" height="101.000000pt" viewBox="0 0 101.000000 101.000000"
 preserveAspectRatio="xMidYMid meet">
<metadata>
Created by potrace 1.16, written by Peter Selinger 2001-2019
</metadata>
<g transform="translate(0.000000,101.000000) scale(0.100000,-0.100000)"
fill="#000000" stroke="none">
<path d="M819 996 c-4 -5 -34 -11 -99 -22 -14 -2 -38 -6 -55 -9 -16 -3 -56 -7
-88 -8 -38 -1 -61 -7 -67 -17 -12 -20 -12 -218 0 -225 12 -7 12 -153 0 -160
-12 -7 -12 -153 0 -160 13 -8 13 -52 -1 -60 -6 -5 -8 -22 -4 -46 5 -29 2 -47
-9 -65 -16 -23 -15 -26 10 -60 22 -28 30 -32 39 -22 6 7 42 46 80 85 l68 73
-13 42 -12 43 -38 -44 -38 -44 -6 54 c-4 30 -4 86 -1 124 3 39 6 80 6 93 1 16
6 22 15 18 8 -3 26 0 39 6 34 15 44 4 51 -57 3 -28 7 -61 10 -75 2 -14 5 -34
7 -45 8 -45 40 -142 62 -185 22 -44 85 -110 105 -110 14 0 48 48 66 96 l17 45
-39 40 -39 40 -11 -33 c-6 -18 -9 -37 -6 -43 3 -5 -2 -4 -11 3 -9 8 -25 41
-36 75 -19 58 -26 87 -37 162 -14 88 -16 81 27 82 22 1 51 -2 63 -7 37 -14 53
6 48 62 -2 14 -12 17 -54 17 -29 0 -64 1 -78 2 l-25 1 0 117 0 117 35 1 c19 1
49 2 65 2 56 2 63 15 29 58 -28 34 -62 52 -75 39z m-132 -230 c-6 -119 -6
-121 -29 -118 -13 2 -34 3 -47 3 -22 1 -23 3 -17 52 3 29 6 77 6 108 0 60 10
72 66 75 l26 2 -5 -122z"/>
<path d="M98 984 c-14 -4 -18 -17 -18 -60 0 -30 5 -54 10 -54 6 0 10 -16 10
-35 0 -19 -5 -35 -11 -35 -7 0 -10 -16 -8 -43 3 -35 1 -43 -11 -40 -24 5 -42
-12 -40 -38 0 -13 2 -43 3 -66 1 -42 6 -47 44 -46 6 0 12 -7 12 -16 0 -9 3
-32 7 -51 9 -50 10 -232 2 -321 -8 -85 -2 -93 56 -82 26 5 27 7 26 77 -2 106
0 118 17 112 8 -3 23 -1 34 5 11 5 38 7 62 4 42 -7 43 -7 45 -50 2 -48 -11
-60 -55 -49 l-25 7 16 -32 c9 -17 15 -35 12 -39 -3 -4 -1 -13 3 -20 9 -15 102
10 120 32 8 9 12 47 11 98 -3 329 -2 338 19 336 54 -4 56 -2 56 67 1 54 -2 66
-17 71 -10 3 -22 3 -27 0 -5 -4 -7 48 -5 127 l4 133 -40 -2 c-23 -1 -44 -4
-47 -8 -10 -10 -61 -7 -68 4 -3 5 -29 9 -58 9 -29 -1 -68 2 -87 4 -19 3 -43 3
-52 1z m257 -177 c0 -86 -1 -92 -21 -93 -18 -1 -20 3 -17 30 3 17 5 49 6 71
l2 40 -76 0 c-61 0 -76 3 -75 15 1 16 48 25 136 28 l45 2 0 -93z m-119 -62
c-1 -28 -4 -30 -28 -27 -16 2 -28 10 -28 17 0 7 -2 19 -5 27 -4 9 4 13 28 13
31 0 33 -3 33 -30z m170 -108 c4 -3 4 -13 1 -21 -8 -19 -74 -28 -167 -22 -121
9 -124 10 -128 29 -3 14 1 18 15 13 10 -3 25 -1 33 4 16 10 236 7 246 -3z
m-80 -107 c6 0 11 -13 11 -29 0 -27 -4 -30 -43 -36 -25 -3 -52 -2 -63 4 -11 6
-26 9 -34 6 -10 -4 -14 3 -14 25 0 23 4 29 16 25 9 -2 23 0 31 6 8 5 31 7 50
4 19 -2 40 -5 46 -5z m0 -120 c6 0 11 -13 11 -29 0 -27 -4 -30 -43 -36 -25 -3
-52 -2 -63 4 -11 6 -26 9 -34 6 -10 -4 -14 3 -14 25 0 23 4 29 16 25 9 -2 23
0 31 6 8 5 31 7 50 4 19 -2 40 -5 46 -5z"/>
<path d="M670 251 c-14 -4 -25 -11 -25 -16 1 -28 42 -115 55 -118 18 -4 70 15
70 25 0 4 -11 32 -24 63 -25 55 -30 59 -76 46z"/>
</g>
</svg>
