<?xml version="1.0" standalone="no"?>
<!DOCTYPE svg PUBLIC "-//W3C//DTD SVG 20010904//EN"
 "http://www.w3.org/TR/2001/REC-SVG-20010904/DTD/svg10.dtd">
<svg version="1.0" xmlns="http://www.w3.org/2000/svg"
 width="101.000000pt" height="101.000000pt" viewBox="0 0 101.000000 101.000000"
 preserveAspectRatio="xMidYMid meet">
<metadata>
Created by potrace 1.16, written by Peter Selinger 2001-2019
</metadata>
<g transform="translate(0.000000,101.000000) scale(0.100000,-0.100000)"
fill="#000000" stroke="none">
<path d="M625 977 c-4 -18 -5 -39 -3 -46 2 -10 -12 -13 -52 -14 -30 0 -58 -5
-62 -11 -11 -16 -9 -224 2 -231 13 -8 13 -52 0 -60 -6 -4 -10 -33 -9 -65 2
-65 18 -79 65 -58 45 21 47 -4 6 -63 -31 -43 -43 -53 -63 -51 -39 4 -61 3 -67
-3 -7 -7 -6 -74 1 -81 6 -6 33 -6 77 1 62 11 144 15 176 10 24 -4 32 -11 33
-28 5 -77 5 -96 -2 -133 -9 -46 2 -55 59 -47 l30 5 -8 64 c-6 41 -5 71 2 83 5
11 7 26 4 35 -5 12 1 14 33 11 21 -3 45 -6 53 -6 35 -4 48 2 53 27 10 53 -19
84 -50 53 -7 -7 -20 -8 -34 -3 -13 5 -33 9 -44 9 -17 0 -20 6 -17 35 1 19 3
45 3 57 1 14 7 22 18 21 9 -1 31 0 50 0 l33 2 -7 94 c-4 62 -3 96 4 100 12 8
14 204 3 223 -5 8 -38 11 -103 10 l-96 -2 8 27 c4 15 10 32 13 37 8 13 -15 20
-47 14 -16 -3 -27 -1 -27 6 0 27 -30 8 -35 -22z m53 -188 l-3 -51 -44 -2 -43
-2 6 35 c3 20 6 41 6 48 0 11 22 19 63 22 16 1 18 -6 15 -50z m147 -1 l0 -53
-35 0 -35 -1 3 48 c4 44 6 47 35 51 18 2 32 5 32 5 0 1 0 -22 0 -50z m-170
-149 c-7 -54 -14 -65 -43 -64 -23 0 -27 4 -24 25 2 14 3 34 4 46 0 16 7 20 34
21 31 1 33 -1 29 -28z m171 16 c-3 -9 0 -27 6 -40 10 -21 9 -29 -5 -43 -14
-14 -22 -14 -48 -5 -17 7 -38 9 -46 6 -12 -5 -15 -2 -10 10 3 8 9 31 12 49 6
32 9 34 52 36 36 1 44 -1 39 -13z m-99 -169 c-3 -8 -1 -28 6 -45 16 -43 -4
-86 -36 -76 -12 4 -31 7 -43 7 -19 0 -19 4 13 64 20 36 41 64 50 64 9 0 13 -6
10 -14z"/>
<path d="M109 973 c-19 -5 -24 -70 -7 -90 6 -8 7 -44 3 -96 -7 -81 -8 -84 -30
-79 -34 6 -49 -28 -40 -94 6 -53 10 -58 51 -57 7 0 12 -9 13 -21 3 -36 3 -218
0 -276 -1 -30 -2 -76 -1 -101 2 -51 16 -61 67 -51 25 4 26 7 19 36 -7 28 -7
52 -3 124 1 16 6 22 16 18 8 -3 23 -1 34 5 11 5 38 7 62 4 42 -7 43 -7 45 -49
1 -41 0 -43 -28 -43 -17 0 -32 -2 -35 -5 -3 -2 3 -24 12 -47 16 -41 18 -42 52
-36 76 14 96 53 84 165 -5 51 -6 219 -1 265 2 22 8 30 23 31 39 2 42 4 43 37
1 17 2 43 3 56 1 25 -16 42 -36 35 -20 -8 -35 128 -16 141 5 3 9 31 9 63 l-1
57 -41 2 c-206 9 -283 10 -297 6z m247 -177 c2 -82 0 -93 -15 -89 -12 3 -15
15 -14 51 4 89 2 91 -76 88 -61 -2 -68 0 -64 15 5 18 14 20 138 27 l30 2 1
-94z m-121 -58 c0 -28 -3 -33 -25 -33 -20 0 -25 5 -26 27 -1 22 4 28 25 31 14
2 26 5 26 6 0 0 0 -14 0 -31z m128 -94 c37 -5 47 -10 45 -22 -5 -28 -123 -44
-208 -28 -19 4 -44 7 -55 8 -13 0 -21 8 -22 20 -1 14 3 17 15 14 9 -3 23 -2
31 3 16 10 127 13 194 5z m-37 -114 c6 0 11 -13 11 -29 0 -27 -4 -30 -43 -36
-25 -3 -52 -2 -63 4 -11 6 -26 9 -34 6 -10 -4 -14 3 -14 25 0 23 4 29 16 25 9
-2 23 0 31 6 8 5 31 7 50 4 19 -2 40 -5 46 -5z m0 -120 c6 0 11 -13 11 -29 0
-27 -4 -30 -43 -36 -25 -3 -52 -2 -63 4 -11 6 -26 9 -34 6 -10 -4 -14 3 -14
25 0 23 4 29 16 25 9 -2 23 0 31 6 8 5 31 7 50 4 19 -2 40 -5 46 -5z"/>
</g>
</svg>
