<?xml version="1.0" standalone="no"?>
<!DOCTYPE svg PUBLIC "-//W3C//DTD SVG 20010904//EN"
 "http://www.w3.org/TR/2001/REC-SVG-20010904/DTD/svg10.dtd">
<svg version="1.0" xmlns="http://www.w3.org/2000/svg"
 width="101.000000pt" height="102.000000pt" viewBox="0 0 101.000000 102.000000"
 preserveAspectRatio="xMidYMid meet">
<metadata>
Created by potrace 1.16, written by Peter Selinger 2001-2019
</metadata>
<g transform="translate(0.000000,102.000000) scale(0.100000,-0.100000)"
fill="#000000" stroke="none">
<path d="M610 1001 c0 -11 -5 -23 -11 -26 -6 -4 -8 -13 -6 -19 9 -23 -40 -127
-83 -178 -23 -27 -41 -50 -39 -51 78 -41 82 -42 93 -24 30 49 30 49 63 -23
l32 -71 -52 -33 c-29 -18 -77 -42 -107 -54 -54 -20 -56 -20 -57 -1 -1 12 4 18
15 17 68 -5 69 -4 71 76 1 67 -1 75 -19 81 -11 3 -28 4 -37 1 -17 -5 -18 4
-17 114 1 66 4 126 7 133 11 29 -7 34 -102 24 -63 -6 -100 -6 -115 1 -11 6
-49 10 -83 11 l-61 0 1 -143 2 -142 -27 4 c-36 5 -49 -27 -46 -109 3 -62 5
-64 59 -60 22 2 27 -3 29 -21 5 -57 2 -293 -4 -351 -7 -72 -1 -79 63 -69 30 4
32 7 25 31 -7 23 -8 42 -3 119 1 16 6 22 16 18 8 -3 23 -1 34 5 11 6 38 7 63
4 41 -7 43 -9 42 -38 -1 -27 -6 -32 -26 -33 -65 -3 -62 -1 -45 -34 9 -17 14
-34 11 -38 -7 -11 7 -30 24 -32 28 -5 79 12 97 32 15 17 18 41 20 157 1 75 2
147 3 161 l2 25 24 -30 c21 -26 26 -28 44 -17 11 7 21 9 21 5 18 -107 21 -226
5 -270 -20 -57 -8 -69 66 -65 24 2 26 5 23 33 -3 25 -1 30 11 25 9 -3 24 -1
35 4 11 6 40 8 69 4 40 -5 49 -10 45 -23 -9 -29 11 -45 56 -44 23 1 42 3 44 5
1 2 -2 38 -6 82 -5 43 -7 113 -4 155 3 42 6 86 6 99 1 17 5 21 19 17 14 -4 24
5 43 39 l25 45 -56 16 c-32 9 -76 28 -99 41 l-42 25 46 67 c67 98 120 212 103
222 -8 5 -22 4 -31 -1 -10 -5 -31 -6 -48 -3 -20 4 -31 2 -31 -5 0 -6 -11 -11
-25 -11 -14 0 -25 4 -25 9 0 6 -21 11 -46 13 l-46 3 26 38 c14 21 26 40 26 42
0 3 -96 35 -107 35 -2 0 -3 -9 -3 -19z m-232 -206 l2 -100 -25 -1 -25 -2 7 74
c6 75 2 83 -32 74 -5 -2 -32 -3 -60 -4 -49 -1 -50 -1 -51 29 l0 30 90 0 91 0
3 -100z m416 2 c-2 -12 -20 -45 -40 -75 -34 -52 -36 -53 -50 -33 -18 25 -54
102 -54 116 0 6 32 10 74 11 69 1 74 -1 70 -19z m-539 -62 c0 -38 -2 -40 -30
-40 -29 0 -30 2 -30 43 0 42 1 43 30 40 27 -3 30 -6 30 -43z m163 -115 c27 0
29 -25 3 -40 -23 -12 -179 -12 -186 1 -3 4 -32 7 -64 6 -44 -2 -57 1 -54 10 5
13 38 16 119 13 23 -1 45 4 49 11 5 8 24 9 59 5 28 -3 61 -6 74 -6z m322 -85
c9 -8 41 -28 70 -44 l54 -30 -28 -11 c-16 -6 -63 -8 -110 -5 -113 7 -131 9
-131 17 0 8 107 87 119 88 5 0 17 -7 26 -15z m-394 -25 c5 0 10 -15 11 -34 1
-33 -1 -34 -43 -41 -24 -3 -52 -2 -63 4 -11 6 -26 8 -34 5 -12 -4 -15 3 -14
30 1 28 5 35 16 31 9 -2 23 0 31 6 8 5 31 7 50 4 19 -2 40 -5 46 -5z m0 -130
c6 0 11 -13 11 -29 0 -27 -4 -30 -43 -36 -25 -3 -52 -2 -63 4 -11 6 -26 9 -34
6 -10 -4 -14 3 -14 25 0 23 4 29 16 25 9 -2 23 0 31 6 8 5 31 7 50 4 19 -2 40
-5 46 -5z m425 0 c10 0 18 -9 19 -22 3 -42 1 -130 -3 -134 -4 -4 -89 -6 -139
-3 -23 1 -27 7 -33 45 -3 24 -2 52 4 63 6 11 8 27 4 36 -5 14 -2 16 13 11 10
-3 26 -1 34 5 8 5 31 7 50 4 19 -2 42 -5 51 -5z"/>
</g>
</svg>
