<?xml version="1.0" standalone="no"?>
<!DOCTYPE svg PUBLIC "-//W3C//DTD SVG 20010904//EN"
 "http://www.w3.org/TR/2001/REC-SVG-20010904/DTD/svg10.dtd">
<svg version="1.0" xmlns="http://www.w3.org/2000/svg"
 width="101.000000pt" height="101.000000pt" viewBox="0 0 101.000000 101.000000"
 preserveAspectRatio="xMidYMid meet">
<metadata>
Created by potrace 1.16, written by Peter Selinger 2001-2019
</metadata>
<g transform="translate(0.000000,101.000000) scale(0.100000,-0.100000)"
fill="#000000" stroke="none">
<path d="M658 996 c-28 -8 -35 -15 -29 -26 27 -49 24 -55 -32 -53 -28 0 -64 4
-79 8 -61 16 -83 -15 -72 -99 5 -32 12 -47 25 -51 42 -14 82 22 58 52 -16 18
-10 22 23 16 24 -5 26 -8 17 -25 -6 -11 -9 -28 -6 -38 4 -16 -1 -19 -34 -17
-42 1 -44 1 -53 -28 -10 -33 9 -49 54 -48 41 2 42 1 35 -25 -4 -15 -8 -33 -8
-40 0 -7 -10 -11 -21 -11 -41 4 -56 -1 -56 -18 0 -13 -3 -14 -12 -5 -9 9 -10
19 -1 42 16 42 6 71 -21 64 -20 -5 -21 -2 -18 41 3 28 0 45 -7 45 -6 0 -11 16
-11 35 0 19 5 35 10 35 6 0 10 25 10 55 0 53 -1 55 -27 56 -283 12 -300 10
-309 -27 -3 -13 -1 -31 6 -38 8 -11 9 -42 4 -111 -7 -93 -8 -96 -29 -91 -17 4
-24 1 -28 -16 -3 -12 -1 -30 5 -41 5 -11 7 -32 4 -48 -4 -21 -2 -29 9 -30 8
-1 21 -2 28 -3 6 0 13 -14 15 -31 5 -45 4 -214 -1 -265 -2 -25 -2 -68 1 -97 5
-55 19 -67 63 -56 18 5 20 10 13 37 -7 28 -7 52 -3 124 1 16 6 22 16 18 8 -3
23 -1 34 5 11 6 37 8 58 4 35 -6 37 -8 39 -49 1 -41 0 -43 -28 -43 -40 0 -43
-5 -25 -39 8 -16 15 -35 15 -42 0 -10 9 -12 33 -7 46 10 67 23 77 48 7 20 9
19 27 -19 l19 -42 39 20 c61 31 125 87 156 136 25 40 28 42 38 24 7 -12 8 -44
5 -79 -7 -65 6 -87 48 -83 13 1 55 1 93 1 42 0 77 4 86 12 21 16 46 76 42 98
-4 15 -71 54 -80 46 -2 -2 -5 -18 -8 -35 -5 -47 -12 -52 -62 -50 -53 3 -71 27
-58 75 5 15 9 40 10 54 2 14 6 35 9 47 6 18 2 24 -18 32 -14 5 -33 7 -41 4
-19 -8 -19 -5 1 52 8 25 13 48 11 50 -7 8 -85 9 -92 2 -4 -3 -8 -26 -10 -50
-9 -103 -42 -171 -105 -217 -44 -31 -98 -56 -106 -49 -3 3 -5 73 -6 154 0 126
2 172 11 215 2 13 63 3 71 -12 10 -18 7 -186 -4 -210 -8 -19 18 -29 56 -22 24
5 25 8 26 91 1 127 1 130 26 131 11 0 48 3 81 6 33 3 74 3 91 0 36 -6 35 -3
36 -137 1 -75 4 -87 20 -91 48 -13 53 -3 54 116 1 62 4 127 6 145 4 29 2 32
-21 34 -14 0 -34 1 -43 0 -11 -1 -18 5 -19 16 0 9 -2 27 -5 38 -4 23 -3 23 79
26 37 2 42 8 39 50 -1 9 7 19 17 23 19 6 31 48 31 112 0 39 -27 57 -72 48 -44
-10 -138 -11 -139 -2 -1 4 -2 10 -4 15 -19 72 -22 74 -77 58z m-321 -214 c3
-84 1 -93 -15 -90 -14 3 -17 15 -17 76 l0 72 -30 -2 c-59 -3 -83 2 -87 20 -4
15 4 17 71 17 l76 0 2 -93z m499 72 c18 -5 21 -11 17 -44 -4 -31 -1 -39 14
-43 10 -2 -3 -4 -28 -4 -45 1 -46 2 -43 34 3 36 -16 48 -59 38 -25 -7 -44 -46
-32 -64 3 -5 -10 -9 -28 -8 -31 1 -32 3 -29 34 3 23 0 33 -9 33 -11 0 -11 2 0
9 8 5 29 7 47 4 17 -3 40 0 50 6 21 11 67 14 100 5z m-601 -122 c0 -35 -2 -39
-26 -39 -24 0 -27 4 -26 33 1 27 5 34 26 37 15 2 26 5 26 6 0 0 0 -16 0 -37z
m472 -82 c2 -37 1 -38 -32 -37 -32 1 -34 3 -32 37 1 33 4 36 32 37 29 1 31 -1
32 -37z m-344 -16 c15 -3 27 -12 27 -20 0 -24 -48 -35 -134 -29 -44 3 -90 6
-101 6 -13 1 -21 9 -22 21 -1 14 3 17 15 14 9 -3 23 -2 31 3 15 10 143 13 184
5z m-66 -110 c25 -5 30 -11 30 -34 0 -25 -5 -30 -38 -35 -21 -4 -46 -2 -58 4
-11 6 -26 9 -34 6 -10 -4 -14 3 -14 25 0 23 4 29 16 25 9 -2 23 0 31 5 18 11
27 12 67 4z m1 -120 c23 -5 29 -11 28 -30 -1 -18 -8 -24 -38 -29 -20 -4 -46
-2 -57 4 -11 6 -26 9 -33 6 -8 -3 -14 4 -14 20 -2 20 2 24 15 21 9 -3 23 -1
31 4 18 11 27 12 68 4z"/>
</g>
</svg>
