<?xml version="1.0" standalone="no"?>
<!DOCTYPE svg PUBLIC "-//W3C//DTD SVG 20010904//EN"
 "http://www.w3.org/TR/2001/REC-SVG-20010904/DTD/svg10.dtd">
<svg version="1.0" xmlns="http://www.w3.org/2000/svg"
 width="101.000000pt" height="101.000000pt" viewBox="0 0 101.000000 101.000000"
 preserveAspectRatio="xMidYMid meet">
<metadata>
Created by potrace 1.16, written by Peter Selinger 2001-2019
</metadata>
<g transform="translate(0.000000,101.000000) scale(0.100000,-0.100000)"
fill="#000000" stroke="none">
<path d="M765 980 c-42 -31 -170 -82 -208 -84 -29 -1 -28 -15 5 -55 l28 -32
137 59 c76 32 146 62 156 65 25 9 21 23 -16 51 -42 32 -52 32 -102 -4z"/>
<path d="M155 857 l5 -133 -37 4 -38 4 0 -41 c-1 -39 1 -41 34 -47 19 -4 47
-2 63 4 45 17 22 -7 -28 -29 l-43 -20 21 -35 21 -35 -21 -6 c-21 -5 -34 -35
-25 -59 4 -11 17 -13 57 -9 98 12 151 14 185 9 l34 -5 -48 -34 c-50 -36 -114
-61 -180 -71 -22 -3 -49 -7 -60 -8 -11 -2 -26 -4 -32 -5 -20 -2 -15 -13 21
-53 l33 -38 49 15 c27 8 50 15 50 15 4 0 5 -49 4 -117 -1 -79 0 -79 60 -74 29
3 42 19 34 42 -6 20 -4 20 146 20 313 -1 292 0 286 -19 -11 -33 13 -48 70 -44
19 2 20 9 21 100 1 53 2 107 3 120 3 32 -6 38 -34 23 -14 -8 -33 -10 -47 -6
-23 8 -22 9 18 26 48 20 65 44 86 116 l16 52 -44 7 c-24 3 -67 3 -97 -1 -29
-3 -96 -6 -148 -6 -52 0 -122 0 -155 0 -33 0 -103 -1 -155 -4 -52 -2 -101 1
-110 5 -8 5 -10 10 -5 10 6 1 28 3 50 6 22 2 58 4 80 4 22 0 61 4 88 9 27 5
50 5 53 0 8 -14 27 -10 54 10 l25 20 -32 39 -32 40 43 -4 c49 -5 61 8 50 52
l-6 25 -124 -7 c-91 -5 -124 -4 -124 5 0 6 11 11 24 11 14 0 28 5 31 10 8 13
48 13 61 0 15 -15 91 -1 98 17 11 28 -5 34 -75 27 -49 -5 -73 -3 -84 6 -8 7
-34 11 -63 8 -28 -2 -49 1 -49 7 0 6 51 10 130 11 134 1 150 6 140 45 -5 17
-16 18 -137 16 -112 -2 -132 0 -132 13 0 12 10 15 45 13 24 -2 50 2 58 8 13
11 97 8 179 -7 29 -5 30 -5 30 35 -1 40 -2 41 -31 36 -42 -8 -227 -8 -302 -2
l-63 6 5 -132z m228 -227 c4 -17 -2 -18 -58 -17 -63 2 -63 2 -45 22 25 27 96
23 103 -5z m340 -166 c20 -3 37 -9 37 -14 0 -17 -57 -30 -109 -25 -48 4 -52 3
-46 -13 21 -51 27 -74 20 -80 -4 -4 -59 -6 -123 -5 -176 2 -168 0 -115 40 26
20 57 48 71 65 15 17 31 27 41 24 9 -3 22 -2 30 3 16 10 140 13 194 5z m-67
-194 l90 0 1 -35 1 -35 -91 0 c-384 -1 -345 -5 -344 36 1 26 5 33 16 29 9 -2
23 0 31 5 8 5 57 7 110 4 52 -2 136 -4 186 -4z"/>
<path d="M805 849 c-41 -27 -145 -81 -145 -74 0 3 -8 1 -19 -4 -10 -6 -35 -12
-55 -14 -20 -2 -38 -6 -40 -8 -2 -2 10 -21 28 -41 l32 -37 110 46 c60 25 128
52 152 60 23 9 42 19 42 22 0 4 -10 16 -22 27 -50 44 -52 44 -83 23z"/>
<path d="M815 704 c-68 -38 -170 -75 -217 -77 -41 -3 -43 -15 -9 -56 l28 -34
114 43 c63 23 138 52 167 63 28 11 52 25 52 32 0 11 -62 66 -72 64 -2 0 -30
-16 -63 -35z"/>
</g>
</svg>
