<?xml version="1.0" standalone="no"?>
<!DOCTYPE svg PUBLIC "-//W3C//DTD SVG 20010904//EN"
 "http://www.w3.org/TR/2001/REC-SVG-20010904/DTD/svg10.dtd">
<svg version="1.0" xmlns="http://www.w3.org/2000/svg"
 width="101.000000pt" height="102.000000pt" viewBox="0 0 101.000000 102.000000"
 preserveAspectRatio="xMidYMid meet">
<metadata>
Created by potrace 1.16, written by Peter Selinger 2001-2019
</metadata>
<g transform="translate(0.000000,102.000000) scale(0.100000,-0.100000)"
fill="#000000" stroke="none">
<path d="M770 999 c-32 -27 -123 -73 -175 -88 -22 -7 -46 -14 -53 -17 -9 -3
-5 -14 15 -39 33 -41 27 -42 173 27 58 27 113 51 124 53 10 3 21 7 25 11 6 6
-66 74 -78 74 -3 -1 -17 -10 -31 -21z"/>
<path d="M138 975 c-2 -11 -1 -54 3 -95 14 -139 15 -136 -31 -132 -35 4 -41 1
-50 -22 -5 -14 -7 -32 -4 -41 7 -18 64 -29 106 -21 26 5 29 4 18 -8 -6 -8 -27
-20 -46 -26 -19 -7 -34 -15 -32 -18 2 -4 10 -19 17 -35 14 -26 17 -27 70 -21
31 3 70 8 86 11 53 8 156 9 161 1 3 -5 9 -6 13 -4 4 3 8 -8 8 -24 l0 -28 -81
-6 c-78 -6 -147 -3 -211 8 -50 8 -59 9 -76 8 -19 -2 -30 -32 -22 -61 4 -16 11
-18 41 -14 78 10 131 12 238 6 110 -5 112 -6 110 -29 -1 -18 -8 -25 -31 -29
-31 -6 -134 0 -195 10 -39 6 -71 8 -75 3 -1 -2 -5 -12 -9 -23 -8 -28 7 -47 35
-46 13 1 69 2 124 2 55 0 129 0 165 0 36 1 135 0 221 0 166 -1 174 1 162 47
-7 28 -37 33 -85 16 -27 -9 -64 -12 -111 -9 -40 3 -81 6 -92 6 -29 2 -30 46
-1 49 46 5 309 1 331 -4 25 -6 38 17 28 53 -7 27 -26 32 -65 19 -19 -7 -84
-11 -153 -11 -174 2 -165 0 -158 34 6 30 -4 35 -62 31 -19 -2 -19 -1 -1 12 17
14 17 16 -8 49 l-26 33 29 -4 c36 -5 64 21 55 52 -4 11 -8 22 -9 24 -2 2 -71
4 -154 5 -120 2 -151 5 -151 16 0 11 24 12 139 6 128 -6 139 -5 145 11 5 12 1
23 -10 31 -15 11 -15 13 0 28 22 22 20 42 -4 55 -14 8 -26 8 -40 0 -11 -6 -63
-9 -123 -8 -86 3 -103 6 -103 19 0 10 6 14 18 11 10 -2 25 1 33 8 15 13 180 5
222 -11 42 -16 69 10 57 56 -5 21 -9 22 -37 14 -43 -12 -177 -12 -177 1 0 6
-18 10 -40 10 -22 0 -40 -4 -40 -10 0 -15 -107 -13 -112 2 -3 7 -7 4 -10 -7z
m297 -152 l20 -12 -20 -3 c-11 -1 -63 -2 -115 -2 -79 -1 -96 2 -96 14 0 12 18
15 96 15 57 0 103 -5 115 -12z m-53 -165 c-8 -8 -8 -15 -1 -24 14 -18 -51 -30
-79 -15 -11 6 -29 8 -39 4 -16 -6 -16 -5 -5 10 9 11 23 14 42 11 16 -4 39 0
56 10 35 19 42 20 26 4z"/>
<path d="M795 860 c-25 -28 -138 -82 -170 -82 -14 0 -28 -4 -31 -9 -3 -5 -14
-9 -25 -9 -26 0 -24 -10 9 -49 l27 -33 55 22 c98 38 230 105 230 117 0 10 -29
35 -66 56 -6 4 -19 -2 -29 -13z"/>
<path d="M805 709 c-54 -31 -137 -65 -182 -74 -15 -3 -41 -8 -58 -11 -16 -3
-31 -7 -34 -10 -6 -6 60 -74 72 -74 5 0 67 23 138 51 71 28 141 52 155 54 49
5 52 24 10 61 -22 19 -42 34 -45 33 -3 0 -28 -13 -56 -30z"/>
<path d="M209 313 c-21 -5 -31 -41 -18 -64 5 -10 7 -49 5 -87 -5 -77 2 -85 58
-75 20 4 25 10 21 23 -4 13 0 18 17 19 59 4 228 2 273 -3 28 -3 62 0 77 6 15
5 43 7 62 4 27 -5 33 -10 29 -25 -5 -21 21 -31 60 -24 25 5 26 7 21 75 -2 38
0 77 5 87 6 10 7 28 4 40 -6 22 -9 23 -127 21 -66 -1 -150 -1 -186 -1 -36 0
-108 -1 -160 -2 -52 0 -102 2 -110 5 -8 3 -22 4 -31 1z m356 -67 c28 -3 62 0
77 6 15 5 43 7 61 4 29 -5 34 -10 34 -36 0 -26 -5 -31 -34 -36 -18 -3 -46 -1
-61 4 -15 6 -49 9 -77 6 -45 -5 -219 -7 -271 -3 -16 1 -21 8 -21 30 0 22 4 28
16 24 9 -2 23 0 31 5 14 8 143 7 245 -4z"/>
</g>
</svg>
