<?xml version="1.0" standalone="no"?>
<!DOCTYPE svg PUBLIC "-//W3C//DTD SVG 20010904//EN"
 "http://www.w3.org/TR/2001/REC-SVG-20010904/DTD/svg10.dtd">
<svg version="1.0" xmlns="http://www.w3.org/2000/svg"
 width="101.000000pt" height="101.000000pt" viewBox="0 0 101.000000 101.000000"
 preserveAspectRatio="xMidYMid meet">
<metadata>
Created by potrace 1.16, written by Peter Selinger 2001-2019
</metadata>
<g transform="translate(0.000000,101.000000) scale(0.100000,-0.100000)"
fill="#000000" stroke="none">
<path d="M765 994 c-30 -24 -127 -66 -153 -66 -12 0 -25 -5 -28 -9 -3 -5 -9
-7 -14 -4 -5 3 -21 0 -35 -7 l-25 -14 29 -28 30 -29 73 27 c40 15 105 39 143
54 39 14 72 27 74 29 7 5 -52 63 -63 63 -6 0 -20 -8 -31 -16z"/>
<path d="M140 984 c-11 -3 -14 -16 -12 -47 2 -23 -1 -67 -5 -97 l-8 -55 -37 0
c-27 0 -38 -5 -42 -18 -7 -28 21 -47 72 -48 46 0 44 -6 -11 -23 -17 -6 -17 -7
0 -31 16 -22 23 -24 71 -20 28 3 52 3 52 1 0 -2 -14 -13 -32 -24 l-31 -20 44
-21 44 -20 -35 1 c-70 2 -71 2 -66 -44 3 -24 8 -53 11 -65 4 -12 0 -43 -9 -69
-11 -32 -13 -52 -6 -64 13 -24 7 -145 -8 -163 -10 -12 -10 -21 -1 -41 14 -30
18 -31 82 -11 27 8 52 14 55 14 33 -5 65 25 57 52 -7 22 -2 23 27 8 18 -9 24
-8 35 7 23 32 14 42 -57 65 -69 23 -70 23 -85 3 -19 -25 -19 -34 3 -34 9 -1
28 -7 41 -14 23 -13 22 -13 -24 -25 -58 -15 -74 -5 -57 34 7 15 10 30 7 35 -3
5 1 25 9 44 10 24 11 38 4 42 -20 13 14 22 86 23 104 1 124 -5 125 -37 5 -83
-1 -148 -14 -161 -12 -13 -12 -18 3 -43 10 -17 22 -26 31 -23 8 3 43 13 78 21
63 16 68 22 65 67 -2 16 0 16 30 1 30 -15 32 -15 45 2 20 27 13 34 -56 62 -62
24 -64 25 -77 7 -20 -27 -18 -33 17 -40 34 -8 29 -20 -12 -30 -25 -6 -27 -4
-33 44 -4 30 -2 59 4 70 5 11 7 27 4 35 -3 9 -2 16 3 16 17 0 22 -12 13 -30
-8 -15 0 -21 53 -40 34 -13 67 -25 73 -27 6 -2 15 6 21 19 10 22 11 20 23 -22
28 -105 76 -162 137 -164 36 -1 39 2 67 53 l29 54 -34 28 c-19 16 -37 29 -41
29 -4 0 -10 -16 -14 -35 -7 -40 -14 -43 -37 -17 -16 17 -50 102 -42 102 3 0 0
11 -5 24 -9 24 -8 24 26 19 l34 -6 -7 49 c-8 50 -8 84 0 141 4 35 -10 47 -40
36 -16 -6 -16 -5 -4 10 8 10 12 19 10 20 -2 1 -20 10 -39 18 l-35 16 38 12
c42 14 44 19 20 36 -14 10 -10 14 31 28 26 9 52 14 59 11 7 -2 21 2 31 9 18
13 17 15 -11 47 l-30 33 -58 -27 c-74 -36 -132 -56 -138 -49 -3 3 -12 1 -19
-3 -7 -5 -24 -7 -38 -6 -45 4 -55 -12 -29 -47 25 -34 33 -36 76 -21 26 9 26 9
9 -5 -10 -8 -24 -17 -30 -20 -7 -3 -7 -7 -1 -10 6 -3 28 -16 49 -29 l39 -23
-46 -7 c-27 -4 -54 -3 -66 3 -11 6 -27 8 -35 5 -11 -4 -15 -2 -11 8 4 9 -6 20
-27 30 l-33 17 33 12 c17 8 32 19 32 25 0 13 -55 38 -67 31 -4 -3 -22 6 -38
19 l-30 24 31 -6 c55 -11 88 46 39 68 -14 6 -24 16 -22 22 3 6 0 19 -5 29 -5
11 -5 17 2 17 5 0 10 10 10 23 0 22 -2 22 -138 22 -88 0 -139 4 -139 10 0 6
18 9 41 8 23 -2 51 2 63 8 15 8 49 9 120 1 102 -10 115 -7 106 28 -5 20 -76
30 -153 23 -66 -6 -160 -6 -195 0 -16 3 -37 3 -45 1z m257 -131 c3 -8 -23 -11
-95 -10 -129 3 -133 22 -4 22 64 0 97 -4 99 -12z m-43 -138 c2 -6 -20 -10 -55
-10 -44 0 -56 3 -45 11 18 13 94 12 100 -1z m72 -67 c4 -6 -1 -17 -11 -24 -10
-8 -17 -15 -14 -17 2 -2 20 -13 39 -24 l34 -22 -28 -7 c-15 -3 -39 -1 -52 5
-14 6 -29 9 -34 6 -5 -3 -18 3 -28 13 -11 11 -25 21 -33 24 -20 7 24 46 58 51
52 8 62 7 69 -5z m147 -137 c17 -7 15 -10 -19 -23 -40 -16 -77 -17 -128 -3
-26 7 -27 9 -12 20 18 14 127 18 159 6z m-283 -21 c-8 -16 -5 -20 23 -26 17
-4 35 -9 40 -10 4 -1 15 -2 24 -3 14 -1 13 -4 -6 -18 -19 -13 -30 -14 -52 -6
-39 15 -71 6 -60 -16 8 -14 5 -17 -17 -16 -25 0 -27 3 -24 35 1 19 3 44 3 55
1 17 9 21 40 22 35 2 38 0 29 -17z m449 -4 c0 -11 2 -36 3 -55 3 -30 0 -34
-24 -37 -19 -2 -25 1 -22 10 3 9 -10 17 -40 25 -46 11 -62 30 -28 33 9 0 22 2
27 3 6 2 16 3 23 4 15 1 16 28 1 33 -7 2 4 4 23 5 30 1 36 -3 37 -21z m-159
-84 c19 -7 12 -10 -39 -15 -36 -4 -70 -3 -81 3 -10 5 -26 7 -34 4 -9 -3 -16
-4 -16 0 0 21 119 27 170 8z m91 -52 c18 0 33 -26 24 -40 -3 -4 -34 1 -70 13
-68 22 -71 42 -5 32 19 -2 42 -5 51 -5z"/>
<path d="M730 859 c-75 -39 -115 -51 -157 -50 -12 0 -25 -4 -29 -10 -7 -12 34
-59 53 -59 7 0 61 18 120 41 60 22 116 42 127 44 10 3 21 7 24 10 6 6 -48 66
-57 64 -3 -1 -40 -19 -81 -40z"/>
<path d="M266 324 c-10 -27 -7 -30 52 -48 31 -10 62 -20 68 -23 12 -4 37 44
26 51 -7 4 -125 36 -135 36 -3 0 -8 -7 -11 -16z"/>
</g>
</svg>
