<?xml version="1.0" standalone="no"?>
<!DOCTYPE svg PUBLIC "-//W3C//DTD SVG 20010904//EN"
 "http://www.w3.org/TR/2001/REC-SVG-20010904/DTD/svg10.dtd">
<svg version="1.0" xmlns="http://www.w3.org/2000/svg"
 width="101.000000pt" height="101.000000pt" viewBox="0 0 101.000000 101.000000"
 preserveAspectRatio="xMidYMid meet">
<metadata>
Created by potrace 1.16, written by Peter Selinger 2001-2019
</metadata>
<g transform="translate(0.000000,101.000000) scale(0.100000,-0.100000)"
fill="#000000" stroke="none">
<path d="M463 932 l2 -78 -27 4 c-25 4 -25 5 -8 22 18 18 18 21 3 59 -16 41
-38 56 -66 45 -10 -3 -14 -13 -10 -27 3 -12 5 -31 4 -42 0 -11 7 -30 15 -43
15 -23 15 -24 -8 -17 -12 4 -24 8 -25 9 -2 2 -3 30 -4 64 -1 44 -5 62 -15 62
-7 0 -16 -4 -19 -10 -8 -12 -72 -13 -79 -1 -3 5 -39 9 -80 9 -66 0 -75 -2 -79
-20 -13 -48 14 -60 122 -53 69 5 71 4 67 -18 -3 -21 -8 -22 -87 -23 -96 -2
-95 -1 -84 -89 6 -53 6 -53 39 -51 18 2 38 6 45 10 19 12 81 -3 81 -19 0 -22
-34 -35 -79 -31 -45 4 -48 1 -26 -28 25 -33 19 -48 -17 -45 -18 1 -40 1 -49 0
-19 -1 -30 -33 -19 -51 8 -13 10 -13 130 -4 101 6 264 7 325 1 28 -3 64 -1 81
5 21 8 55 7 120 -1 49 -7 97 -12 107 -11 92 5 98 8 90 41 -3 12 -14 19 -29 19
-28 0 -41 18 -19 26 22 9 47 62 51 107 l3 37 -62 0 c-102 -1 -116 1 -110 16 5
14 46 20 114 15 33 -2 37 0 43 30 3 17 6 56 6 86 0 53 -1 55 -22 49 -53 -14
-128 -19 -128 -7 0 6 -18 11 -45 11 -38 0 -47 -4 -55 -22 -5 -13 -9 -18 -9
-12 -1 7 -9 14 -18 17 -10 2 -25 8 -33 11 -12 5 -21 -6 -35 -46 l-20 -53 -5
35 c-4 19 -2 43 2 53 13 26 1 37 -42 37 l-38 0 1 -78z m205 -8 c13 -13 29 -15
83 -11 57 5 68 3 71 -11 4 -14 -2 -16 -39 -13 -24 1 -59 0 -78 -3 l-33 -7 1
-74 0 -74 36 4 c20 3 50 7 66 10 40 7 64 -8 49 -32 -8 -13 -25 -18 -58 -19
-25 0 -49 -3 -52 -7 -8 -8 33 -60 54 -68 9 -3 -32 -9 -91 -13 -64 -4 -114 -3
-125 3 -10 5 -43 7 -73 5 -110 -11 -235 -12 -249 -4 -8 5 -12 10 -10 12 3 2
25 13 49 26 l44 22 22 -20 22 -21 56 51 56 51 -4 -44 c-4 -38 -2 -46 15 -50
11 -3 29 -3 39 0 17 4 19 12 16 54 -4 57 4 56 41 -7 14 -24 29 -44 32 -44 11
1 52 37 52 46 0 5 -21 30 -47 57 l-48 48 36 -6 c29 -5 38 -3 43 10 8 21 -3 67
-14 60 -18 -11 -20 15 -3 49 19 41 19 41 41 20z m-104 -65 c-29 -11 -34 -10
-28 5 3 8 13 12 27 8 20 -5 20 -6 1 -13z m-221 -44 c-7 -20 -92 -39 -119 -27
-13 6 -31 9 -39 6 -10 -4 -15 -2 -13 7 2 9 24 16 63 19 84 8 113 7 108 -5z
m97 -31 c0 -2 -23 -22 -51 -44 -49 -39 -77 -52 -63 -29 4 7 8 21 9 33 4 34 4
34 23 38 24 5 82 7 82 2z m113 -8 c1 -5 -4 -11 -10 -13 -7 -3 -13 3 -13 12 0
17 18 18 23 1z m272 -156 c-27 -12 -43 -12 -25 0 8 5 22 9 30 9 10 0 8 -3 -5
-9z"/>
<path d="M229 543 c-22 -5 -31 -41 -18 -65 6 -11 8 -37 4 -57 -6 -34 -4 -39
16 -44 12 -3 29 -2 38 2 23 12 183 13 201 1 13 -9 13 -10 0 -11 -8 -1 -31 -3
-50 -6 -32 -4 -205 -6 -258 -2 -38 2 -36 8 -27 -131 3 -41 1 -87 -4 -102 -11
-30 4 -38 56 -31 39 6 48 34 26 81 -13 28 -14 40 -5 64 6 16 8 37 5 45 -5 13
-2 15 11 10 10 -4 26 -2 37 4 12 6 38 7 67 3 26 -4 39 -10 30 -12 -21 -4 -23
-13 -6 -30 16 -16 -14 -27 -40 -13 -25 13 -59 4 -65 -19 -9 -33 30 -58 63 -40
10 6 45 7 78 4 l60 -7 -3 -42 c-3 -48 9 -57 60 -48 24 5 26 8 21 48 -5 49 -10
47 112 45 71 -1 72 0 72 25 0 21 -5 25 -32 27 -18 0 -42 0 -53 -1 -16 -1 -12
6 19 35 34 32 44 35 75 30 20 -3 44 -6 55 -6 12 0 16 -5 13 -14 -3 -8 -1 -28
6 -45 9 -26 9 -34 -5 -48 -9 -9 -29 -17 -44 -19 -35 -4 -34 -3 -21 -47 13 -41
18 -42 83 -26 55 14 65 32 63 111 -1 35 1 82 4 105 l6 42 -44 7 c-24 3 -64 3
-87 0 -113 -18 -262 -17 -244 1 9 10 81 15 182 14 l91 -1 1 42 c0 24 2 59 5
79 5 35 4 37 -26 42 -18 2 -43 0 -56 -4 -45 -18 -364 -14 -440 5 -9 2 -23 2
-32 -1z m394 -74 c56 -1 77 -4 77 -14 0 -14 -26 -15 -260 -16 -143 0 -150 1
-150 18 0 9 6 12 18 9 9 -3 24 -1 32 4 8 5 57 7 110 4 52 -2 130 -5 173 -5z
m-77 -170 c3 -6 1 -22 -6 -35 -11 -19 -20 -23 -52 -21 -38 3 -58 18 -58 45 0
8 7 11 18 8 9 -3 24 -1 32 4 20 13 57 13 66 -1z"/>
</g>
</svg>
