<?xml version="1.0" standalone="no"?>
<!DOCTYPE svg PUBLIC "-//W3C//DTD SVG 20010904//EN"
 "http://www.w3.org/TR/2001/REC-SVG-20010904/DTD/svg10.dtd">
<svg version="1.0" xmlns="http://www.w3.org/2000/svg"
 width="101.000000pt" height="101.000000pt" viewBox="0 0 101.000000 101.000000"
 preserveAspectRatio="xMidYMid meet">
<metadata>
Created by potrace 1.16, written by Peter Selinger 2001-2019
</metadata>
<g transform="translate(0.000000,101.000000) scale(0.100000,-0.100000)"
fill="#000000" stroke="none">
<path d="M75 959 c-9 -39 2 -68 28 -74 40 -10 281 2 285 14 5 14 72 15 72 0 0
-7 42 -10 128 -8 70 1 150 -1 179 -6 29 -4 76 -4 106 -1 52 7 55 9 61 40 11
60 10 61 -153 64 -94 1 -152 -1 -156 -8 -8 -13 -52 -13 -60 0 -8 13 -142 13
-150 1 -7 -12 -172 -13 -179 -2 -3 5 -39 9 -80 9 -74 0 -75 0 -81 -29z"/>
<path d="M218 853 c-26 -6 -31 -39 -21 -144 l8 -94 33 -3 c18 -2 32 1 32 7 0
7 29 11 75 11 43 0 75 -4 75 -10 0 -6 30 -10 70 -10 40 0 70 4 70 10 0 6 20
10 45 10 27 0 45 -5 45 -11 0 -16 151 -3 161 13 4 7 7 56 6 111 -3 112 -9 121
-72 112 -22 -3 -57 -6 -77 -6 -21 0 -38 -4 -38 -9 0 -6 -11 -10 -25 -10 -14 0
-25 5 -25 10 0 6 -30 10 -70 10 -40 0 -70 -4 -70 -10 0 -12 -47 -14 -52 -2 -3
10 -143 22 -170 15z m296 -82 c8 -12 114 -13 121 -1 7 12 55 13 70 2 6 -4 10
-21 10 -38 l0 -32 -143 -7 c-101 -5 -146 -4 -156 4 -8 7 -38 10 -67 9 -54 -3
-54 -3 -54 27 l0 30 77 -3 c46 -2 79 1 83 7 8 13 52 15 59 2z"/>
<path d="M128 500 c2 -53 0 -80 -7 -80 -8 0 -10 -48 -9 -154 3 -171 1 -166 71
-158 37 4 44 16 38 62 -1 8 -3 81 -4 162 -2 144 -1 148 19 148 12 0 50 3 85 6
l64 5 -27 -18 c-33 -21 -34 -27 -10 -61 32 -46 32 -47 -6 -45 -21 1 -46 5 -57
8 -11 3 -25 2 -32 -2 -16 -11 -25 -55 -14 -71 9 -14 18 -15 111 -7 78 6 108
-1 109 -28 4 -63 3 -94 -3 -113 -9 -25 10 -33 65 -26 l36 4 -10 39 c-7 28 -6
47 1 64 6 14 9 31 6 39 -6 16 2 17 124 18 68 1 82 4 84 17 3 32 -3 55 -15 63
-15 9 -71 10 -80 1 -4 -3 -18 -8 -32 -9 -21 -2 -24 0 -15 15 5 10 21 29 34 42
28 26 34 48 14 50 -28 2 40 17 82 18 l45 1 -1 -123 c-1 -173 4 -162 -76 -172
-39 -5 -44 -11 -29 -29 10 -12 15 -32 20 -77 2 -19 144 15 163 39 9 10 14 56
16 136 1 67 4 164 6 217 l4 96 -189 2 c-127 1 -189 -1 -189 -8 0 -6 -20 -11
-45 -11 -25 0 -45 5 -45 10 0 6 -58 10 -152 10 l-153 0 3 -80z m437 -50 c-7
-21 -21 -52 -30 -70 -14 -28 -20 -31 -43 -25 -15 4 -38 7 -52 7 l-25 0 23 11
c28 13 28 24 -3 69 -14 20 -25 38 -25 40 0 2 38 4 84 5 l85 1 -14 -38z"/>
</g>
</svg>
