<?xml version="1.0" standalone="no"?>
<!DOCTYPE svg PUBLIC "-//W3C//DTD SVG 20010904//EN"
 "http://www.w3.org/TR/2001/REC-SVG-20010904/DTD/svg10.dtd">
<svg version="1.0" xmlns="http://www.w3.org/2000/svg"
 width="101.000000pt" height="101.000000pt" viewBox="0 0 101.000000 101.000000"
 preserveAspectRatio="xMidYMid meet">
<metadata>
Created by potrace 1.16, written by Peter Selinger 2001-2019
</metadata>
<g transform="translate(0.000000,101.000000) scale(0.100000,-0.100000)"
fill="#000000" stroke="none">
<path d="M237 1003 c-3 -5 -9 -25 -12 -44 -3 -18 -8 -35 -11 -38 -6 -7 -66 -5
-90 3 -51 16 -52 12 -51 -234 2 -252 -1 -242 66 -232 31 4 32 6 27 46 l-4 41
43 0 c40 0 42 -1 34 -22 -5 -13 -6 -23 -4 -23 10 0 -39 -116 -72 -172 -19 -32
-59 -84 -90 -115 l-55 -57 33 -28 c19 -15 38 -28 42 -28 23 -1 126 143 167
234 31 68 29 73 33 -86 3 -107 14 -131 58 -129 22 2 139 2 289 2 156 -1 246 5
266 16 22 13 42 40 62 86 11 26 10 28 -16 38 -15 6 -35 18 -45 26 -20 19 -19
20 -38 -32 -12 -32 -22 -42 -53 -53 -61 -20 -412 -19 -432 1 -10 9 -25 131
-18 146 3 9 8 30 9 48 2 17 6 41 10 52 5 16 1 23 -19 31 -14 5 -33 7 -43 3
-12 -5 -14 -3 -8 7 4 7 8 22 9 33 1 21 3 21 164 16 13 -1 25 1 27 3 3 2 7 54
11 116 5 82 4 112 -4 112 -7 0 -12 11 -12 25 0 14 5 25 10 25 6 0 10 20 10 45
0 50 -23 72 -63 59 -12 -5 -56 -8 -99 -8 -82 -1 -81 -2 -35 50 11 13 14 24 9
28 -19 12 -99 18 -105 9z m20 -196 l2 -42 -47 3 c-47 4 -47 4 -47 40 -1 37 -1
37 45 39 l45 2 2 -42z m181 2 l-3 -41 -48 -2 c-44 -2 -48 0 -43 19 3 11 6 28
6 37 0 12 11 18 38 21 20 2 41 4 45 5 5 1 7 -16 5 -39z m-183 -147 l0 -47 -45
0 -45 0 0 42 -1 42 46 4 c25 2 45 4 45 5 0 1 0 -19 0 -46z m140 28 c19 0 23
-6 26 -38 l4 -37 -37 4 c-32 3 -38 7 -38 26 0 13 -3 31 -7 41 -5 14 -3 16 11
11 10 -4 28 -7 41 -7z"/>
<path d="M755 993 c-14 -10 -18 -70 -5 -78 13 -8 11 -166 -2 -183 -7 -8 -9
-46 -5 -107 5 -71 3 -95 -6 -96 -6 -1 -23 -3 -37 -5 -21 -3 -55 -7 -126 -13
-12 -1 -11 -33 1 -63 5 -12 -2 -21 -24 -33 -35 -18 -37 -23 -16 -51 19 -25 19
-30 -2 -30 -10 -1 -33 -4 -50 -8 l-32 -6 36 62 c20 35 43 71 51 80 13 16 12
18 -9 26 -67 25 -63 27 -87 -47 -12 -38 -32 -81 -43 -95 -15 -20 -18 -34 -13
-61 8 -44 13 -47 55 -34 32 9 60 15 117 24 16 2 24 -3 28 -21 3 -13 12 -24 20
-24 22 0 64 22 64 34 0 6 -18 43 -40 83 -21 40 -35 75 -30 78 5 3 24 8 42 11
61 10 73 12 89 19 19 7 20 5 21 -132 2 -101 4 -104 65 -96 29 5 31 7 22 32 -5
14 -7 58 -4 96 8 122 8 120 35 122 40 3 81 11 87 16 2 3 1 22 -3 42 -6 33 -9
36 -33 30 -14 -4 -37 -9 -50 -11 -14 -3 -28 -7 -32 -10 -8 -4 -2 339 7 397 3
20 2 39 -3 42 -17 10 -78 17 -88 10z"/>
<path d="M583 912 l-32 -27 58 -64 58 -64 32 22 c17 12 31 27 31 33 0 5 -26
36 -57 69 l-58 59 -32 -28z"/>
<path d="M585 714 c-11 -8 -27 -19 -35 -24 -11 -6 -7 -16 20 -47 19 -22 44
-52 56 -68 l20 -29 32 23 c18 12 32 28 32 34 0 7 -24 38 -53 69 -49 55 -53 57
-72 42z"/>
</g>
</svg>
