<?xml version="1.0" standalone="no"?>
<!DOCTYPE svg PUBLIC "-//W3C//DTD SVG 20010904//EN"
 "http://www.w3.org/TR/2001/REC-SVG-20010904/DTD/svg10.dtd">
<svg version="1.0" xmlns="http://www.w3.org/2000/svg"
 width="101.000000pt" height="101.000000pt" viewBox="0 0 101.000000 101.000000"
 preserveAspectRatio="xMidYMid meet">
<metadata>
Created by potrace 1.16, written by Peter Selinger 2001-2019
</metadata>
<g transform="translate(0.000000,101.000000) scale(0.100000,-0.100000)"
fill="#000000" stroke="none">
<path d="M399 1003 c-9 -2 -20 -18 -24 -36 -4 -18 -9 -34 -9 -37 -15 -47 -17
-49 -73 -56 -40 -5 -58 -3 -61 5 -2 6 -25 11 -53 11 -44 0 -49 -3 -55 -25 -3
-14 -1 -31 4 -38 14 -16 14 -174 1 -183 -6 -3 -9 -48 -7 -109 3 -115 4 -115
71 -107 35 4 39 7 35 31 l-4 26 82 2 c92 2 94 0 59 -69 -47 -91 -144 -172
-256 -213 -35 -12 -64 -25 -64 -27 0 -2 19 -21 42 -41 l42 -38 48 24 c56 29
156 102 195 144 15 15 42 54 61 86 39 65 36 71 41 -88 2 -55 4 -106 5 -113 2
-21 68 -44 91 -32 12 7 72 8 161 5 156 -6 175 -1 203 53 32 63 31 68 -27 101
-43 24 -57 40 -76 81 -24 52 -32 57 -76 40 l-26 -10 21 -30 21 -29 -23 -5
c-13 -3 -37 -4 -55 -4 l-32 1 42 54 c23 29 45 53 49 53 5 0 8 4 8 8 0 9 -64
42 -80 42 -4 0 -16 -21 -26 -47 -10 -25 -33 -61 -52 -80 -31 -32 -33 -36 -22
-68 11 -32 26 -42 55 -35 11 3 42 7 97 14 20 2 42 7 48 11 6 3 10 -3 10 -14 0
-25 2 -25 41 -5 29 14 30 14 27 -2 -1 -9 -16 -26 -31 -38 -24 -18 -41 -21
-110 -19 -96 1 -144 7 -155 17 -8 8 -7 139 1 197 4 32 2 38 -20 48 -13 6 -28
9 -33 6 -5 -3 -11 -1 -14 4 -9 13 223 26 237 12 12 -12 67 -15 82 -3 6 4 11
87 12 207 l1 200 -184 0 c-101 0 -184 3 -184 6 0 3 12 23 26 44 27 40 23 54
-17 60 -13 1 -31 5 -39 8 -8 2 -22 3 -31 0z m-38 -212 l47 -1 4 -40 4 -40 -96
3 -95 2 0 40 0 40 45 -1 c25 -1 66 -3 91 -3z m376 -33 l2 -43 -107 0 -107 0 0
40 0 40 105 3 105 2 2 -42z m-12 -106 c6 -4 10 -25 10 -47 l0 -40 -117 0
c-106 0 -115 1 -107 17 5 9 9 26 9 37 0 16 6 21 25 21 14 0 25 5 25 10 0 12
140 14 155 2z m-313 -44 c2 -22 1 -41 -3 -43 -3 -3 -48 -2 -100 0 l-94 5 -3
37 -3 38 100 2 99 1 4 -40z"/>
</g>
</svg>
