<?xml version="1.0" standalone="no"?>
<!DOCTYPE svg PUBLIC "-//W3C//DTD SVG 20010904//EN"
 "http://www.w3.org/TR/2001/REC-SVG-20010904/DTD/svg10.dtd">
<svg version="1.0" xmlns="http://www.w3.org/2000/svg"
 width="101.000000pt" height="101.000000pt" viewBox="0 0 101.000000 101.000000"
 preserveAspectRatio="xMidYMid meet">
<metadata>
Created by potrace 1.16, written by Peter Selinger 2001-2019
</metadata>
<g transform="translate(0.000000,101.000000) scale(0.100000,-0.100000)"
fill="#000000" stroke="none">
<path d="M239 987 c-2 -20 -8 -50 -13 -72 -2 -11 -5 -23 -5 -27 -1 -4 -32 -5
-70 -3 l-68 4 -2 -64 c-1 -35 3 -66 9 -70 12 -7 12 -153 0 -160 -5 -3 -8 -32
-8 -65 1 -46 5 -60 19 -63 30 -8 69 4 69 22 0 13 9 17 35 18 33 1 35 0 30 -28
-16 -92 -75 -191 -162 -274 l-54 -52 49 -25 50 -26 51 68 c29 37 67 98 85 134
38 75 36 78 39 -74 2 -94 2 -95 31 -108 16 -8 38 -14 50 -13 20 2 155 2 286 2
128 -1 215 6 238 18 28 15 62 68 62 96 0 13 -13 27 -35 40 -27 14 -34 23 -28
34 4 9 8 112 9 229 l2 213 -29 6 c-16 3 -29 8 -29 12 0 3 21 30 46 59 27 31
44 58 40 67 -6 17 -79 50 -83 38 -2 -4 -21 -37 -42 -73 l-39 -65 31 -17 32
-17 -36 -1 c-30 0 -38 4 -43 23 -9 32 -7 75 3 79 4 2 10 35 13 73 l5 70 -52 0
-53 0 0 -35 c0 -19 4 -40 10 -47 6 -8 7 -44 3 -95 l-7 -84 -64 1 c-60 0 -70
-5 -64 -30 2 -5 2 -63 1 -128 -1 -67 3 -127 9 -138 7 -13 9 -46 4 -92 l-7 -72
-20 58 c-18 56 -21 59 -48 55 l-29 -4 26 34 c29 38 25 48 -26 57 l-36 6 -13
-49 c-7 -28 -18 -58 -26 -69 -12 -16 -13 -15 -10 17 1 19 6 43 10 53 7 17 -10
23 -59 19 -13 -2 -16 2 -12 14 3 8 6 22 6 29 0 14 18 16 115 15 l60 0 3 105
c3 71 0 105 -7 105 -6 0 -11 11 -11 25 0 14 4 25 10 25 5 0 10 26 12 58 l3 57
43 -64 c23 -36 44 -66 46 -69 8 -7 66 29 66 42 0 17 -78 126 -91 126 -6 0 -20
-5 -32 -12 -25 -13 -63 -18 -159 -21 -64 -2 -67 -1 -62 18 3 11 13 31 21 44
14 22 14 25 0 36 -23 16 -97 18 -98 2z m6 -217 c0 -33 -2 -35 -35 -35 -34 -1
-35 1 -35 35 0 34 1 36 35 35 34 0 36 -2 35 -35z m155 14 c0 -12 2 -28 5 -36
4 -10 -4 -13 -33 -10 -36 4 -38 6 -38 35 1 29 4 32 34 33 27 0 32 -3 32 -22z
m416 -148 c-1 -34 -1 -34 -59 -40 -33 -3 -67 -1 -77 4 -10 5 -25 8 -33 5 -10
-4 -14 2 -14 24 0 30 1 30 61 34 34 2 75 4 92 5 29 2 30 0 30 -32z m-569 -18
c2 -36 1 -37 -35 -35 -35 1 -37 3 -37 37 0 33 2 35 35 35 34 0 36 -2 37 -37z
m160 3 l2 -40 -39 2 c-36 1 -38 3 -37 34 1 29 4 32 36 36 20 2 36 4 36 5 1 1
1 -16 2 -37z m383 -81 c23 0 26 -4 27 -39 l2 -38 -60 -7 c-34 -3 -69 -2 -79 4
-10 5 -25 7 -34 4 -12 -5 -15 2 -13 35 1 32 5 40 17 36 8 -2 22 0 30 6 8 5 31
7 50 4 19 -2 46 -5 60 -5z m1 -140 c24 0 26 -4 25 -37 -1 -35 -3 -38 -34 -39
-18 -1 -35 -4 -37 -6 -3 -2 3 -23 12 -47 15 -39 18 -41 47 -35 17 3 43 12 57
20 25 12 27 12 22 -6 -11 -42 -39 -54 -141 -58 -133 -5 -281 -4 -317 1 -16 2
-35 5 -42 6 -6 0 -11 16 -10 36 1 20 5 31 10 26 5 -5 29 -1 57 10 43 16 49 17
54 3 4 -11 14 -14 31 -10 18 5 25 2 25 -8 0 -17 29 -25 64 -19 29 6 34 30 14
62 -9 15 -9 26 0 45 6 14 9 33 5 42 -5 13 -2 15 13 10 10 -3 26 -1 34 5 8 5
31 7 50 4 19 -2 47 -5 61 -5z m-331 -64 c-14 -14 -22 -2 -14 18 5 14 9 15 15
4 4 -7 4 -17 -1 -22z"/>
</g>
</svg>
