<?xml version="1.0" standalone="no"?>
<!DOCTYPE svg PUBLIC "-//W3C//DTD SVG 20010904//EN"
 "http://www.w3.org/TR/2001/REC-SVG-20010904/DTD/svg10.dtd">
<svg version="1.0" xmlns="http://www.w3.org/2000/svg"
 width="101.000000pt" height="102.000000pt" viewBox="0 0 101.000000 102.000000"
 preserveAspectRatio="xMidYMid meet">
<metadata>
Created by potrace 1.16, written by Peter Selinger 2001-2019
</metadata>
<g transform="translate(0.000000,102.000000) scale(0.100000,-0.100000)"
fill="#000000" stroke="none">
<path d="M505 1010 c-4 -7 -16 -10 -26 -7 -23 6 -24 -2 -4 -29 21 -28 19 -30
-25 -26 -22 2 -46 0 -53 -6 -15 -13 -174 -15 -182 -3 -3 5 -25 9 -49 9 l-44 0
4 -101 c11 -335 -10 -489 -88 -627 -28 -50 -29 -55 -13 -65 10 -5 30 -20 45
-33 l28 -22 30 72 c27 66 51 138 58 178 1 8 6 31 9 50 4 19 9 64 11 100 2 36
4 75 5 87 1 21 3 22 30 8 28 -15 29 -14 74 32 l45 48 1 -35 c1 -19 1 -42 0
-51 -3 -30 71 -33 83 -3 3 7 0 27 -6 44 -14 40 -7 45 26 19 15 -11 33 -18 41
-15 8 3 15 2 15 -2 0 -4 15 -13 33 -20 31 -12 33 -12 68 28 40 44 38 46 41
-37 1 -22 7 -33 20 -37 33 -8 44 3 46 42 3 86 0 85 62 19 l58 -62 36 34 35 34
-48 23 c-26 13 -58 35 -71 49 l-23 25 24 1 c13 1 36 0 50 -1 30 -1 42 19 33
55 -5 22 -10 23 -79 22 -69 -2 -73 -1 -69 19 5 25 -16 37 -51 28 -23 -6 -39
-29 -31 -42 2 -4 -17 -6 -42 -5 -33 1 -51 -3 -59 -15 -12 -14 -13 -14 -13 2 0
10 -7 17 -17 15 -10 -1 -33 -1 -51 0 -29 1 -32 4 -27 21 4 13 2 21 -7 21 -7 1
12 6 42 11 84 15 224 12 386 -8 57 -7 84 9 84 51 0 27 -27 58 -42 49 -6 -4
-46 -6 -89 -5 -50 1 -79 -2 -79 -8 0 -6 -16 -11 -35 -11 -19 0 -35 5 -35 10 0
6 -20 10 -44 10 -40 0 -44 2 -52 33 -7 24 -16 33 -36 35 -14 2 -29 -2 -33 -8z
m-148 -154 c2 -2 5 -16 6 -32 2 -29 1 -29 -55 -32 -39 -2 -58 1 -58 9 0 6 -6
9 -14 6 -10 -4 -15 4 -18 27 l-4 32 70 -3 c38 -2 71 -5 73 -7z m-81 -122 c40
1 41 0 27 -21 -14 -21 -76 -73 -87 -73 -3 0 -6 28 -6 63 1 51 3 59 13 46 8
-10 27 -15 53 -15z m284 7 c0 -5 13 -8 29 -7 l30 2 -20 -28 c-30 -42 -48 -48
-73 -27 -12 10 -30 25 -41 33 -19 15 -19 15 10 17 17 1 33 1 38 0 4 0 7 4 7 9
0 6 5 10 10 10 6 0 10 -4 10 -9z m-115 -21 c-3 -5 -8 -10 -11 -10 -2 0 -4 5
-4 10 0 6 5 10 11 10 5 0 7 -4 4 -10z"/>
<path d="M460 580 c-9 -22 -21 -31 -45 -36 -19 -3 -39 -3 -46 2 -7 4 -33 9
-60 11 l-47 4 5 -38 c8 -60 7 -175 -1 -209 -7 -26 -5 -32 12 -36 31 -8 72 3
72 19 0 10 6 13 16 9 8 -3 24 -1 36 5 11 6 27 8 35 4 13 -5 10 -12 -18 -41
-41 -43 -124 -87 -196 -104 -29 -6 -53 -13 -53 -15 0 -2 17 -20 37 -40 l37
-37 83 42 c52 26 107 64 147 101 57 53 64 57 65 37 1 -13 3 -45 5 -73 1 -27 3
-55 4 -62 3 -18 61 -34 82 -23 10 6 69 8 130 6 127 -4 146 5 174 75 l15 36
-41 27 c-44 29 -48 29 -51 -3 -2 -29 -12 -26 -27 9 -16 39 -31 50 -58 43 -16
-4 -21 -11 -17 -23 5 -15 0 -18 -30 -17 l-35 1 26 27 c23 24 32 27 74 23 l47
-4 -3 91 c-2 50 0 99 6 108 5 10 6 28 3 40 -5 21 -10 22 -42 15 -30 -6 -159
-8 -238 -3 -26 1 -29 9 -11 27 8 8 5 14 -16 22 -45 17 -63 12 -76 -20z m58
-85 c1 -1 0 -9 -3 -17 -8 -20 -98 -33 -124 -18 -11 5 -26 8 -33 5 -9 -4 -14 2
-15 15 -1 15 3 20 15 16 9 -3 24 -1 32 4 12 8 117 4 128 -5z m204 9 c27 -5 36
-11 35 -24 -1 -14 -13 -20 -49 -24 -27 -4 -56 -2 -67 4 -11 5 -27 7 -36 4 -13
-5 -16 -2 -13 12 2 13 12 19 30 19 15 1 30 4 34 8 9 8 18 9 66 1z m-223 -100
c2 -2 1 -10 -2 -18 -7 -19 -80 -31 -106 -17 -11 6 -26 9 -33 6 -9 -4 -14 2
-15 15 -1 15 3 20 15 16 9 -3 24 -1 32 5 13 8 98 4 109 -7z m237 6 c17 0 22
-6 20 -24 -1 -21 -7 -24 -59 -30 -33 -3 -67 -1 -77 4 -10 5 -26 7 -36 3 -14
-5 -16 -3 -11 11 4 10 7 22 7 27 0 6 8 8 18 5 9 -3 24 -1 32 5 8 5 31 7 50 4
19 -2 45 -5 56 -5z m-80 -129 c-8 -7 -19 -10 -25 -7 -19 12 -12 24 14 22 20
-1 22 -3 11 -15z m3 -83 c7 1 32 4 57 7 24 2 48 6 53 10 6 3 14 -2 19 -12 9
-15 14 -15 37 -5 21 10 26 10 23 0 -7 -20 -59 -42 -98 -41 -122 3 -157 27
-133 89 5 14 9 11 19 -17 6 -19 17 -33 23 -31z"/>
</g>
</svg>
