<?xml version="1.0" standalone="no"?>
<!DOCTYPE svg PUBLIC "-//W3C//DTD SVG 20010904//EN"
 "http://www.w3.org/TR/2001/REC-SVG-20010904/DTD/svg10.dtd">
<svg version="1.0" xmlns="http://www.w3.org/2000/svg"
 width="101.000000pt" height="102.000000pt" viewBox="0 0 101.000000 102.000000"
 preserveAspectRatio="xMidYMid meet">
<metadata>
Created by potrace 1.16, written by Peter Selinger 2001-2019
</metadata>
<g transform="translate(0.000000,102.000000) scale(0.100000,-0.100000)"
fill="#000000" stroke="none">
<path d="M311 949 c-52 -85 -155 -197 -217 -236 -24 -15 -44 -30 -44 -33 0 -5
66 -51 83 -59 5 -2 18 6 30 17 l22 21 -3 -109 c-1 -66 2 -111 8 -115 13 -8 13
-76 0 -111 -8 -21 -8 -29 2 -36 21 -13 191 -5 196 10 4 14 72 17 72 2 0 -5 18
-10 40 -10 22 0 40 5 40 10 0 15 67 12 74 -2 5 -11 7 -11 12 0 9 18 118 16
134 -3 13 -16 48 -20 65 -7 15 11 17 435 2 444 -14 9 -71 10 -79 2 -4 -3 -35
-6 -71 -7 -58 -2 -64 0 -56 15 5 9 14 20 19 23 9 6 77 94 92 120 4 7 -53 10
-162 10 l-169 0 22 25 c12 13 30 31 40 38 10 8 15 18 10 22 -6 6 -109 41 -117
40 -1 0 -21 -32 -45 -71z m245 -142 c4 -3 -8 -23 -25 -43 l-32 -36 -105 1
c-57 1 -111 2 -119 3 -11 1 -5 12 19 37 33 34 40 36 85 34 29 -2 53 2 57 8 7
12 108 8 120 -4z m-99 -207 l3 -48 -88 1 -88 2 0 45 1 45 85 2 85 2 2 -49z
m277 -2 l-2 -53 -61 -3 c-38 -2 -61 1 -61 8 0 5 -12 10 -27 10 -26 0 -28 3
-28 40 l-1 39 46 4 c25 2 65 4 90 5 l45 2 -1 -52z m-298 -116 c7 -4 13 -27 15
-52 l4 -45 -85 0 -85 0 -1 53 -1 52 71 0 c39 0 76 -4 82 -8z m299 -52 l0 -50
-90 3 -90 2 0 42 -1 42 76 4 c41 1 82 4 90 5 12 2 15 -9 15 -48z"/>
<path d="M915 232 c-7 -8 -190 -12 -505 -13 -36 0 -108 0 -160 -1 -52 0 -115
3 -139 6 -51 7 -61 -2 -61 -49 0 -49 10 -56 66 -49 27 3 92 6 144 6 52 -1 124
-1 160 -1 123 0 265 -2 397 -4 l131 -2 5 35 c2 19 2 43 -1 52 -4 19 -26 30
-37 20z"/>
</g>
</svg>
