<?xml version="1.0" standalone="no"?>
<!DOCTYPE svg PUBLIC "-//W3C//DTD SVG 20010904//EN"
 "http://www.w3.org/TR/2001/REC-SVG-20010904/DTD/svg10.dtd">
<svg version="1.0" xmlns="http://www.w3.org/2000/svg"
 width="101.000000pt" height="101.000000pt" viewBox="0 0 101.000000 101.000000"
 preserveAspectRatio="xMidYMid meet">
<metadata>
Created by potrace 1.16, written by Peter Selinger 2001-2019
</metadata>
<g transform="translate(0.000000,101.000000) scale(0.100000,-0.100000)"
fill="#000000" stroke="none">
<path d="M180 948 c-38 -73 -86 -141 -129 -182 l-30 -29 22 -38 c12 -22 27
-37 33 -35 14 5 26 -256 14 -289 -12 -31 0 -43 40 -38 87 10 182 12 262 5 l87
-8 -6 43 c-3 25 -1 48 5 56 13 15 14 115 1 123 -12 7 -11 51 1 59 12 7 13 94
2 112 -5 7 -31 14 -60 15 -29 2 -52 5 -52 7 0 2 23 34 50 72 28 38 50 70 50
73 0 2 -20 1 -45 -2 -26 -2 -51 0 -58 7 -8 6 -34 10 -59 8 -44 -2 -45 -2 -32
17 8 11 24 26 36 32 22 12 22 13 -22 33 -25 11 -52 21 -61 21 -10 0 -29 -25
-49 -62z m140 -125 c0 -5 -14 -24 -30 -43 -26 -32 -33 -35 -83 -35 l-55 0 30
37 c25 32 36 37 76 41 26 2 50 4 55 5 4 1 7 -1 7 -5z m-62 -196 c-3 -39 -4
-40 -41 -41 -33 -1 -37 1 -33 19 3 11 6 29 6 40 0 16 7 20 36 21 35 1 35 0 32
-39z m137 1 c0 -42 -1 -43 -35 -43 -35 -1 -35 0 -32 37 4 36 9 40 57 47 6 0
10 -18 10 -41z m-147 -143 c1 -11 2 -31 4 -45 3 -23 0 -25 -37 -25 -37 0 -40
2 -37 25 2 14 3 34 4 46 0 16 7 20 33 20 25 -1 33 -5 33 -21z m150 0 c1 -11 2
-31 4 -45 3 -23 0 -25 -42 -25 -42 0 -45 2 -42 25 2 14 3 34 4 45 0 16 7 20
38 20 31 0 38 -4 38 -20z"/>
<path d="M650 1002 c-11 -5 -15 -24 -15 -77 0 -38 3 -75 7 -81 11 -17 8 -167
-4 -181 -5 -7 -8 -34 -6 -60 l3 -48 -52 3 -52 4 -5 -34 c-3 -18 -4 -78 -1
-133 6 -125 6 -164 2 -242 -4 -68 2 -74 60 -66 26 4 30 9 31 36 3 75 4 78 19
73 8 -3 23 -1 33 4 10 6 45 7 78 4 l60 -7 -4 -47 c-5 -53 5 -61 65 -52 l32 4
-7 135 c-5 110 -4 137 7 145 11 7 11 11 2 15 -16 6 -17 73 -2 73 6 0 9 17 7
43 l-3 42 -87 0 -88 0 3 95 2 95 53 -1 c29 -1 56 -4 59 -8 4 -3 23 -6 44 -6
49 0 73 23 65 64 -7 35 -23 48 -51 41 -11 -3 -54 -6 -95 -8 l-75 -2 1 65 c1
36 4 75 8 86 5 18 2 22 -25 28 -37 7 -49 7 -69 -2z m131 -522 c30 0 29 4 32
-122 1 -42 0 -79 -3 -82 -6 -5 -106 -8 -162 -5 -32 1 -39 26 -33 109 3 30 5
65 6 78 1 16 6 21 18 18 9 -3 23 -1 31 5 8 5 31 7 50 4 19 -2 47 -5 61 -5z"/>
<path d="M436 293 c-2 -2 -19 -6 -38 -7 -18 -2 -52 -9 -76 -16 -32 -10 -48
-10 -67 -2 -16 8 -33 8 -49 2 -13 -5 -41 -7 -63 -5 -21 3 -45 6 -53 6 -44 5
-51 0 -46 -38 8 -67 21 -83 61 -73 6 2 21 4 35 6 14 1 43 5 65 8 22 3 65 8 95
11 30 3 71 9 90 11 19 3 46 6 61 6 19 1 27 8 35 32 13 44 7 64 -21 64 -13 0
-26 -3 -29 -5z"/>
</g>
</svg>
