<?xml version="1.0" standalone="no"?>
<!DOCTYPE svg PUBLIC "-//W3C//DTD SVG 20010904//EN"
 "http://www.w3.org/TR/2001/REC-SVG-20010904/DTD/svg10.dtd">
<svg version="1.0" xmlns="http://www.w3.org/2000/svg"
 width="101.000000pt" height="102.000000pt" viewBox="0 0 101.000000 102.000000"
 preserveAspectRatio="xMidYMid meet">
<metadata>
Created by potrace 1.16, written by Peter Selinger 2001-2019
</metadata>
<g transform="translate(0.000000,102.000000) scale(0.100000,-0.100000)"
fill="#000000" stroke="none">
<path d="M706 982 c-10 -20 -33 -63 -52 -94 l-34 -56 -95 5 c-68 4 -95 3 -95
-6 0 -6 -15 -11 -35 -11 -19 0 -35 5 -35 10 0 6 -17 10 -37 10 l-38 1 28 15
28 15 -33 45 c-48 67 -53 70 -94 48 -20 -10 -38 -22 -40 -27 -3 -4 11 -26 30
-49 20 -23 35 -47 33 -52 -5 -15 -55 -20 -70 -8 -7 6 -31 10 -54 10 -31 1 -43
-4 -47 -16 -8 -31 -5 -86 6 -99 6 -7 8 -31 5 -53 -5 -36 -3 -39 24 -45 57 -13
68 -1 66 68 l-2 62 96 0 97 0 -18 -25 c-46 -63 -133 -133 -224 -179 l-54 -27
40 -33 40 -34 26 20 27 20 -3 -111 c-1 -61 2 -117 7 -124 4 -8 19 -13 32 -13
13 1 69 2 124 2 55 0 129 0 165 0 36 0 121 0 189 -1 l124 -2 -7 44 c-4 24 -2
86 4 136 6 51 7 104 4 117 -7 27 -45 43 -67 29 -6 -5 -38 -7 -70 -4 l-58 5 50
56 50 57 -41 6 c-24 4 -46 2 -52 -4 -13 -13 -53 -13 -61 1 -4 6 -30 10 -59 9
-87 -3 -90 -2 -75 16 10 13 10 17 -2 25 -14 9 35 13 134 9 26 -1 54 4 62 10
10 8 40 10 100 5 68 -6 85 -11 86 -24 2 -21 2 -22 -6 -52 -8 -34 16 -59 58
-59 53 0 56 7 54 108 -2 101 -11 118 -54 101 -13 -5 -57 -8 -97 -6 l-73 2 34
42 c19 23 45 49 59 58 31 20 25 29 -35 60 l-48 24 -17 -37z m-146 -362 c27
-17 -21 -52 -82 -61 -72 -10 -188 -11 -188 -1 0 5 15 19 32 32 27 20 43 24 90
22 31 -1 59 2 63 8 8 13 65 13 85 0z m-104 -149 l-1 -30 -80 2 c-74 2 -81 4
-80 22 0 21 33 29 126 33 34 2 36 0 35 -27z m276 -1 c4 -27 1 -30 -29 -36 -18
-3 -39 -2 -46 4 -6 6 -34 9 -62 9 -47 -2 -50 0 -51 23 -1 25 0 25 92 27 l92 3
4 -30z m-291 -90 c11 0 16 -9 16 -29 0 -27 -4 -29 -49 -35 -27 -4 -56 -2 -67
4 -11 5 -26 8 -34 5 -10 -4 -14 3 -14 25 0 23 4 29 16 25 9 -2 23 0 31 6 8 5
31 7 50 4 19 -2 42 -5 51 -5z m290 1 c3 -1 6 -14 6 -31 0 -34 -21 -41 -102
-34 -27 2 -59 4 -71 5 -16 1 -21 8 -21 30 0 22 4 28 16 24 9 -2 23 0 31 5 12
7 100 8 141 1z"/>
<path d="M457 988 c-22 -6 -36 -15 -34 -22 2 -6 13 -35 23 -63 10 -29 24 -53
31 -53 7 0 13 5 13 11 0 7 9 9 23 6 44 -12 50 5 25 68 -13 32 -28 60 -33 61
-6 1 -27 -3 -48 -8z"/>
<path d="M77 199 c-13 -50 23 -91 62 -69 9 5 59 7 111 5 52 -3 122 -4 155 -4
97 0 250 -1 397 -4 136 -2 137 -2 141 21 11 57 5 59 -133 67 -84 5 -134 3
-147 -4 -12 -6 -58 -8 -114 -6 -52 3 -121 5 -154 4 -195 -1 -253 0 -282 3 -24
4 -33 0 -36 -13z"/>
</g>
</svg>
