<?xml version="1.0" standalone="no"?>
<!DOCTYPE svg PUBLIC "-//W3C//DTD SVG 20010904//EN"
 "http://www.w3.org/TR/2001/REC-SVG-20010904/DTD/svg10.dtd">
<svg version="1.0" xmlns="http://www.w3.org/2000/svg"
 width="101.000000pt" height="101.000000pt" viewBox="0 0 101.000000 101.000000"
 preserveAspectRatio="xMidYMid meet">
<metadata>
Created by potrace 1.16, written by Peter Selinger 2001-2019
</metadata>
<g transform="translate(0.000000,101.000000) scale(0.100000,-0.100000)"
fill="#000000" stroke="none">
<path d="M680 994 c-12 -4 -14 -15 -12 -45 2 -21 1 -54 -2 -73 -6 -33 -7 -33
-59 -30 -28 2 -62 6 -74 10 -18 5 -25 1 -33 -22 -20 -53 -2 -81 50 -76 8 1 35
4 60 7 l45 4 0 -63 0 -64 -77 1 c-42 1 -80 -1 -84 -5 -9 -9 -10 -65 -1 -74 3
-3 16 -5 29 -5 54 4 227 2 268 -2 25 -2 68 -2 97 1 45 4 52 8 56 29 10 54 4
58 -100 58 l-95 0 6 54 c4 30 8 57 10 58 2 2 37 5 77 6 41 1 77 7 81 12 23 31
-9 92 -41 80 -9 -4 -41 -7 -71 -8 l-55 -2 2 30 c2 17 5 49 8 71 4 37 2 43 -18
48 -24 6 -43 6 -67 0z"/>
<path d="M200 976 c0 -30 -74 -159 -121 -210 l-49 -54 23 -41 c14 -25 27 -37
33 -31 5 5 10 -55 12 -158 2 -92 5 -168 7 -170 2 -2 14 -3 27 -2 58 5 276 3
303 -2 l30 -6 3 208 3 209 -26 7 c-14 3 -39 4 -55 0 -17 -3 -30 -3 -30 -1 0 3
19 35 41 72 23 38 43 71 46 75 2 4 -23 5 -56 1 -42 -4 -65 -2 -76 7 -8 7 -25
10 -36 7 -19 -5 -17 -1 10 27 35 37 32 44 -28 65 -45 15 -61 14 -61 -3z m89
-213 c-21 -37 -22 -38 -75 -35 l-54 4 23 28 c16 21 28 27 47 23 14 -2 36 0 50
6 14 5 26 10 28 10 1 1 -7 -16 -19 -36z m-47 -163 c3 -36 2 -38 -27 -37 -28 1
-30 3 -30 42 0 39 1 41 26 37 23 -3 28 -10 31 -42z m123 40 c8 0 14 -15 17
-39 3 -38 2 -39 -27 -38 -29 1 -30 3 -30 44 0 32 3 42 13 38 8 -3 20 -5 27 -5z
m-116 -174 c0 -11 2 -34 3 -51 3 -29 1 -30 -37 -30 -38 0 -40 1 -37 30 1 17 3
39 3 51 1 16 8 20 34 21 27 1 33 -3 34 -21z m140 0 c0 -11 2 -34 3 -51 3 -29
1 -30 -37 -30 -38 0 -40 1 -37 30 1 17 3 39 3 51 1 16 8 20 34 21 27 1 33 -3
34 -21z"/>
<path d="M679 543 c-22 -5 -30 -39 -17 -68 6 -13 8 -31 5 -39 -8 -19 -69 -31
-94 -17 -43 23 -76 -8 -66 -61 4 -20 10 -24 32 -23 15 1 33 5 40 9 7 5 27 5
46 2 35 -7 36 -8 37 -99 0 -26 -2 -50 -5 -53 -7 -7 -94 -8 -143 -1 -35 5 -43
3 -47 -12 -12 -48 10 -80 48 -71 40 10 89 13 220 12 83 -1 164 -4 181 -7 28
-5 32 -3 37 21 2 14 2 35 0 45 -5 16 -11 18 -47 12 -22 -4 -57 -7 -76 -6 -19
2 -45 3 -57 4 -17 1 -23 9 -28 39 -4 22 -2 47 4 59 6 11 8 26 5 34 -6 16 6 18
102 18 43 0 53 3 57 19 12 45 -2 59 -57 59 -98 0 -104 1 -101 25 1 11 5 36 9
54 6 23 4 33 -6 36 -28 9 -64 13 -79 9z"/>
<path d="M439 276 c-7 -7 -100 -22 -182 -30 -26 -2 -55 -10 -63 -17 -11 -9
-21 -9 -38 -1 -16 7 -35 7 -64 -1 -45 -12 -46 -12 -16 -83 13 -31 16 -33 42
-23 15 6 41 13 57 15 17 3 39 7 50 10 41 8 98 18 160 28 53 7 73 19 78 43 7
40 -7 76 -24 59z"/>
</g>
</svg>
