<?xml version="1.0" standalone="no"?>
<!DOCTYPE svg PUBLIC "-//W3C//DTD SVG 20010904//EN"
 "http://www.w3.org/TR/2001/REC-SVG-20010904/DTD/svg10.dtd">
<svg version="1.0" xmlns="http://www.w3.org/2000/svg"
 width="101.000000pt" height="102.000000pt" viewBox="0 0 101.000000 102.000000"
 preserveAspectRatio="xMidYMid meet">
<metadata>
Created by potrace 1.16, written by Peter Selinger 2001-2019
</metadata>
<g transform="translate(0.000000,102.000000) scale(0.100000,-0.100000)"
fill="#000000" stroke="none">
<path d="M445 1003 c-3 -10 -8 -32 -10 -49 -10 -70 -18 -80 -69 -76 -42 4 -45
6 -29 18 17 12 14 17 -33 64 l-51 52 -36 -24 c-35 -22 -47 -38 -29 -38 16 0
92 -72 86 -81 -7 -12 -71 -12 -79 1 -10 17 -74 9 -80 -11 -8 -26 4 -67 23 -74
9 -3 63 -3 119 1 57 4 103 4 103 0 0 -4 -4 -15 -9 -24 -8 -14 -23 -17 -93 -15
-45 1 -101 4 -123 7 -22 3 -45 3 -52 -2 -16 -10 -25 -54 -14 -72 13 -19 148
-27 182 -10 17 8 14 2 -11 -19 -32 -28 -145 -89 -194 -106 -18 -5 -15 -10 23
-45 l43 -39 72 48 c40 27 98 73 130 101 31 29 59 50 63 47 3 -4 15 -1 26 5 47
25 -28 -56 -84 -91 -62 -39 -69 -47 -41 -54 18 -5 -29 -11 -60 -8 -21 2 -34
-56 -23 -97 5 -15 7 -64 6 -110 l-2 -82 48 6 c26 3 91 6 143 6 189 -1 221 -1
268 0 26 1 63 -2 82 -6 l36 -8 0 104 c1 56 4 120 7 141 l5 38 -76 -1 c-128 -2
-125 -3 -104 32 33 57 44 61 83 32 44 -33 187 -104 211 -104 10 0 18 6 18 14
0 7 11 30 25 50 l24 36 -22 5 c-12 2 -48 9 -79 14 -57 10 -113 35 -156 68 -22
18 -20 18 75 15 134 -4 139 -2 138 48 0 48 -17 56 -87 46 -24 -4 -110 -12
-192 -18 -113 -8 -151 -8 -154 0 -2 7 -14 12 -28 12 -14 0 -22 5 -19 13 3 7
24 12 52 12 28 0 48 5 51 13 4 14 52 17 52 2 0 -6 30 -10 70 -10 40 0 70 4 70
10 0 6 11 10 25 10 14 0 25 -4 25 -9 0 -13 103 -9 112 4 23 31 -9 93 -41 79
-13 -7 -161 -13 -161 -7 0 1 23 18 50 38 28 20 50 42 50 49 0 7 -16 21 -34 31
l-35 19 -58 -55 c-32 -29 -58 -58 -58 -64 0 -8 -104 -26 -113 -19 -5 3 39 87
56 107 14 16 14 19 2 27 -8 5 -25 7 -37 3 -14 -3 -23 -1 -23 6 0 18 -47 13
-55 -6z m164 -359 c12 -15 21 -30 21 -34 0 -5 -36 -8 -79 -7 -75 2 -78 3 -55
17 28 17 31 29 7 31 -15 2 32 13 74 18 6 0 21 -11 32 -25z m-79 -104 c0 -22
-43 -42 -87 -42 -98 1 -98 1 -65 26 22 15 46 21 91 22 33 1 61 -2 61 -6z m-99
-100 c12 0 16 -8 15 -24 -1 -21 -7 -25 -49 -30 -26 -4 -55 -2 -66 4 -11 5 -26
8 -33 5 -8 -3 -14 4 -14 20 -2 20 2 24 15 21 9 -3 23 -1 31 5 8 5 31 7 50 4
19 -2 42 -5 51 -5z m245 0 c17 0 22 -6 20 -24 -1 -21 -7 -25 -54 -30 -30 -4
-61 -2 -72 4 -10 5 -25 8 -32 5 -8 -3 -14 4 -14 20 -2 20 2 24 15 21 9 -3 23
-1 31 5 8 5 31 7 50 4 19 -2 45 -5 56 -5z m-245 -100 c11 0 16 -9 16 -29 0
-27 -4 -29 -49 -35 -27 -4 -56 -2 -67 4 -11 5 -26 8 -34 5 -10 -4 -14 3 -14
25 0 23 4 29 16 25 9 -2 23 0 31 6 8 5 31 7 50 4 19 -2 42 -5 51 -5z m245 0
c16 0 21 -6 21 -29 0 -27 -3 -29 -54 -35 -30 -4 -62 -2 -73 4 -10 5 -25 8 -33
5 -10 -4 -14 3 -14 25 0 23 4 29 16 25 9 -2 23 0 31 6 8 5 31 7 50 4 19 -2 44
-5 56 -5z"/>
<path d="M109 193 c-20 -5 -28 -31 -22 -67 5 -23 8 -25 47 -20 22 4 84 6 136
6 52 -1 124 -1 160 -1 190 0 274 -2 362 -5 96 -4 96 -3 101 21 2 14 2 34 0 44
-5 18 -12 19 -62 14 -51 -6 -110 -7 -291 -6 -36 0 -110 0 -165 0 -121 0 -215
5 -235 13 -8 3 -22 4 -31 1z"/>
</g>
</svg>
