<?xml version="1.0" standalone="no"?>
<!DOCTYPE svg PUBLIC "-//W3C//DTD SVG 20010904//EN"
 "http://www.w3.org/TR/2001/REC-SVG-20010904/DTD/svg10.dtd">
<svg version="1.0" xmlns="http://www.w3.org/2000/svg"
 width="101.000000pt" height="101.000000pt" viewBox="0 0 101.000000 101.000000"
 preserveAspectRatio="xMidYMid meet">
<metadata>
Created by potrace 1.16, written by Peter Selinger 2001-2019
</metadata>
<g transform="translate(0.000000,101.000000) scale(0.100000,-0.100000)"
fill="#000000" stroke="none">
<path d="M166 950 c-16 -33 -53 -89 -82 -124 l-54 -65 19 -40 c13 -31 20 -38
29 -29 9 9 12 6 12 -15 0 -15 5 -27 12 -27 13 0 4 -213 -11 -253 -13 -33 -2
-45 39 -40 61 8 223 8 273 1 l49 -8 -7 130 c-5 88 -4 134 3 143 6 7 11 36 10
65 0 67 -16 85 -73 80 l-41 -3 44 68 c24 38 42 70 40 72 -2 2 -43 5 -91 7 -48
2 -87 6 -87 10 0 4 11 15 25 24 32 21 32 32 -2 45 -69 26 -76 24 -107 -41z
m102 -157 c-21 -32 -30 -38 -59 -37 -78 3 -74 1 -48 35 19 25 33 32 68 34 23
2 45 6 49 9 3 3 7 4 10 1 3 -2 -6 -22 -20 -42z m-44 -148 c1 -47 -1 -50 -24
-50 -24 0 -25 3 -25 53 0 50 1 53 24 50 21 -3 24 -8 25 -53z m141 -4 c0 -48
-1 -49 -30 -48 -28 1 -30 3 -30 43 0 40 1 43 30 47 16 2 30 5 30 5 0 1 0 -20
0 -47z m-136 -135 c0 -12 2 -34 3 -51 3 -28 1 -30 -32 -30 -33 0 -35 2 -32 30
1 17 3 39 3 51 1 16 8 21 29 21 21 0 28 -5 29 -21z m140 0 c0 -11 2 -34 3 -51
3 -29 1 -30 -37 -30 -38 0 -40 1 -37 30 1 17 3 39 3 51 1 16 8 20 34 21 27 1
33 -3 34 -21z"/>
<path d="M825 969 c-38 -11 -93 -20 -125 -20 -14 0 -44 -7 -68 -15 -49 -16
-102 -18 -102 -4 0 11 -83 14 -93 4 -3 -3 4 -26 16 -50 20 -42 32 -50 67 -45
8 1 30 2 48 1 17 0 42 4 53 11 17 9 20 8 14 -3 -25 -42 -82 -101 -121 -124
-33 -20 -43 -31 -39 -43 4 -9 11 -28 17 -42 11 -31 42 -43 72 -27 12 7 34 11
49 10 15 -1 38 2 50 8 12 6 0 -10 -28 -35 -27 -25 -76 -58 -107 -73 -42 -20
-56 -31 -52 -42 4 -8 8 -26 9 -38 6 -40 6 -40 141 -19 27 5 32 2 33 -16 0 -12
3 -53 6 -90 6 -91 -12 -139 -52 -136 -54 4 -67 0 -54 -15 10 -12 16 -36 20
-78 2 -17 135 15 148 35 4 6 9 70 10 142 2 175 1 173 27 173 11 0 38 2 59 5
34 4 40 1 53 -24 l15 -29 39 20 c22 11 40 25 40 31 0 10 -59 107 -90 146 l-17
21 -43 -19 -43 -19 29 -32 29 -31 -30 6 c-17 3 -44 -1 -62 -10 -24 -11 -36
-12 -51 -4 -12 6 -29 8 -39 5 -16 -6 -16 -5 2 13 52 52 217 183 230 183 28 0
15 30 -27 60 l-42 31 -18 -23 c-9 -13 -23 -31 -30 -41 -9 -12 -30 -20 -58 -22
-25 -2 -62 -6 -82 -8 -21 -3 -38 -3 -38 -2 0 6 138 112 152 119 9 3 4 12 -14
28 l-27 23 27 2 c15 1 52 4 82 8 30 3 74 6 98 6 50 0 53 11 15 62 -29 38 -46
42 -98 26z"/>
<path d="M492 327 c-16 -28 -49 -74 -72 -100 -23 -26 -41 -49 -39 -50 52 -29
81 -39 89 -31 36 37 139 189 133 195 -4 4 -24 15 -45 23 l-36 16 -30 -53z"/>
<path d="M808 359 c-21 -11 -38 -22 -38 -25 0 -4 15 -27 34 -53 18 -25 43 -65
55 -88 24 -49 33 -51 79 -23 l33 20 -17 33 c-15 30 -102 158 -107 157 -1 -1
-19 -10 -39 -21z"/>
<path d="M377 323 c-3 -2 -50 -11 -102 -19 -16 -3 -41 -7 -55 -10 -14 -3 -41
-6 -60 -8 -19 -2 -52 -6 -72 -11 -35 -7 -37 -9 -31 -34 17 -73 23 -78 68 -61
14 5 43 12 63 16 20 3 48 7 62 10 39 8 71 13 113 18 22 2 41 7 43 9 3 3 7 25
9 50 4 41 3 46 -16 44 -11 -1 -21 -2 -22 -4z"/>
</g>
</svg>
