<?xml version="1.0" standalone="no"?>
<!DOCTYPE svg PUBLIC "-//W3C//DTD SVG 20010904//EN"
 "http://www.w3.org/TR/2001/REC-SVG-20010904/DTD/svg10.dtd">
<svg version="1.0" xmlns="http://www.w3.org/2000/svg"
 width="101.000000pt" height="101.000000pt" viewBox="0 0 101.000000 101.000000"
 preserveAspectRatio="xMidYMid meet">
<metadata>
Created by potrace 1.16, written by Peter Selinger 2001-2019
</metadata>
<g transform="translate(0.000000,101.000000) scale(0.100000,-0.100000)"
fill="#000000" stroke="none">
<path d="M176 934 c-21 -41 -61 -100 -88 -129 l-49 -54 23 -33 c13 -18 26 -34
31 -36 4 -2 7 -15 7 -28 0 -13 5 -24 10 -24 11 0 12 -87 2 -202 -7 -71 -6 -77
12 -82 11 -3 27 -1 37 5 11 5 75 7 153 4 l134 -5 6 38 c8 59 6 111 -4 117 -13
8 -13 52 0 60 6 3 10 40 9 81 -1 84 -13 104 -61 104 l-30 0 28 48 c15 26 33
57 41 68 12 18 12 22 0 27 -8 3 -27 -1 -42 -9 -32 -17 -81 -18 -91 -3 -3 6
-17 9 -30 6 -21 -4 -22 -2 -9 15 7 11 23 26 34 35 12 8 19 18 16 23 -4 7 -90
50 -99 50 0 0 -18 -34 -40 -76z m137 -127 c-33 -57 -52 -72 -90 -71 -80 3 -76
0 -48 42 23 35 27 37 85 39 44 1 58 -2 53 -10z m-81 -174 c3 -45 2 -48 -22
-48 -23 0 -25 4 -26 48 -1 42 1 47 22 47 19 0 23 -6 26 -47z m143 -6 c0 -41
-1 -43 -27 -39 -19 3 -28 10 -28 22 0 10 -3 25 -6 33 -4 12 3 17 28 20 18 2
33 5 33 5 0 1 0 -17 0 -41z m-137 -162 c1 -40 0 -42 -28 -42 -28 0 -29 2 -28
42 2 38 5 42 28 42 23 0 26 -4 28 -42z m140 0 c1 -43 1 -43 -33 -42 -34 1 -34
2 -33 42 2 39 4 41 33 42 29 1 31 -1 33 -42z"/>
<path d="M510 932 c-12 -6 -15 -30 -15 -127 0 -66 -3 -135 -8 -153 -11 -42 -2
-79 21 -85 15 -4 14 -6 -5 -12 -18 -6 -20 -12 -16 -43 11 -71 7 -276 -6 -300
-10 -18 -9 -28 6 -52 9 -17 20 -30 24 -30 3 0 43 21 89 47 l82 46 -6 41 c-4
22 -9 42 -11 44 -2 2 -22 -9 -45 -24 -35 -23 -43 -25 -51 -13 -5 8 -7 28 -4
44 3 17 6 40 7 53 0 19 4 21 22 16 22 -7 29 -8 62 -6 23 2 35 30 27 61 -3 12
-14 18 -36 19 -83 3 -82 3 -62 70 7 20 4 22 -26 23 -26 1 -21 3 21 10 30 5 57
14 58 19 2 6 19 10 39 10 31 0 34 -2 27 -22 -4 -13 -6 -32 -5 -43 2 -11 3 -97
4 -192 2 -191 4 -196 67 -209 50 -10 111 -5 151 11 19 7 57 92 51 115 -3 16
-71 64 -79 56 -3 -2 -6 -21 -7 -41 -4 -45 -17 -58 -55 -58 -44 0 -64 20 -56
57 3 17 6 40 7 52 0 20 70 70 132 93 33 13 33 29 -3 71 l-29 35 -50 -48 c-52
-51 -71 -50 -56 1 8 28 13 64 15 95 0 14 10 17 51 17 l51 0 -6 30 c-14 70 -19
160 -10 172 6 7 11 43 11 79 l0 66 -46 5 c-26 3 -67 4 -92 1 -67 -6 -161 -6
-195 0 -16 4 -37 3 -45 -1z m275 -72 c16 0 20 -7 20 -32 0 -20 -6 -36 -15 -40
-24 -11 -95 -9 -107 3 -6 6 -33 9 -60 8 -46 -4 -48 -3 -49 24 -1 25 1 27 42
27 26 0 44 5 44 11 0 8 16 10 53 5 28 -3 61 -6 72 -6z m0 -140 c16 0 20 -7 21
-33 l0 -32 -115 0 -116 0 -1 30 c0 30 0 30 49 26 29 -2 54 2 60 9 7 7 26 9 47
6 19 -3 44 -6 55 -6z"/>
<path d="M377 314 c-5 -5 -75 -16 -117 -19 -19 -1 -54 -8 -78 -15 -31 -10 -48
-10 -66 -2 -30 14 -66 5 -65 -17 1 -30 26 -86 37 -84 10 3 47 8 117 19 17 2
44 7 60 9 17 3 41 7 55 9 63 8 110 18 114 24 2 4 7 24 11 44 l7 37 -36 -1
c-20 -1 -37 -3 -39 -4z"/>
</g>
</svg>
