<?xml version="1.0" standalone="no"?>
<!DOCTYPE svg PUBLIC "-//W3C//DTD SVG 20010904//EN"
 "http://www.w3.org/TR/2001/REC-SVG-20010904/DTD/svg10.dtd">
<svg version="1.0" xmlns="http://www.w3.org/2000/svg"
 width="101.000000pt" height="101.000000pt" viewBox="0 0 101.000000 101.000000"
 preserveAspectRatio="xMidYMid meet">
<metadata>
Created by potrace 1.16, written by Peter Selinger 2001-2019
</metadata>
<g transform="translate(0.000000,101.000000) scale(0.100000,-0.100000)"
fill="#000000" stroke="none">
<path d="M172 987 c-13 -51 -85 -179 -127 -225 l-45 -50 22 -39 c12 -21 23
-40 25 -42 1 -2 9 1 17 8 11 10 14 7 15 -11 0 -13 3 -59 6 -104 4 -57 1 -93
-9 -122 -21 -58 -14 -72 32 -65 20 4 98 6 172 6 91 -1 137 3 142 11 4 6 8 50
8 99 0 48 3 87 6 87 3 0 19 -9 34 -20 l28 -20 47 60 c26 33 56 62 66 65 24 8
24 24 2 41 -16 12 -13 13 27 14 25 0 83 3 130 5 49 3 99 0 118 -6 61 -20 99 4
86 55 -5 21 -9 22 -95 18 -62 -3 -89 -1 -89 7 0 6 -12 11 -27 11 -24 0 -28 4
-28 28 l0 27 98 0 c105 0 115 5 102 57 -6 22 -10 23 -104 23 -94 0 -99 1 -94
20 2 11 6 35 9 53 l4 32 -47 0 -48 0 0 -52 0 -53 -91 4 c-85 3 -92 2 -98 -17
-4 -11 -4 -32 0 -46 6 -26 7 -26 93 -23 l87 4 0 -33 -1 -32 -96 4 c-97 3 -97
3 -103 -22 -4 -14 -4 -34 -1 -44 7 -23 49 -34 76 -19 21 11 21 11 3 -20 -10
-17 -36 -48 -56 -68 l-38 -37 0 91 c0 97 -2 102 -52 112 l-29 6 36 59 c27 45
33 61 23 68 -7 4 -50 7 -96 5 l-82 -3 31 32 c35 36 36 34 -44 68 -38 15 -39
15 -45 -7z m98 -211 c-20 -33 -25 -36 -71 -36 -27 0 -49 3 -49 6 0 3 7 18 16
33 13 22 21 26 49 23 18 -2 41 1 52 6 27 16 28 7 3 -32z m-74 -120 c1 0 4 -19
6 -42 5 -39 4 -41 -21 -41 -25 0 -26 3 -26 49 0 43 2 47 20 42 11 -4 21 -7 21
-8z m139 -34 c0 -45 -2 -49 -25 -49 -23 0 -25 4 -25 41 0 35 3 42 25 47 14 4
25 7 25 8 0 0 0 -21 0 -47z m-127 -136 c1 -12 2 -32 4 -46 3 -22 -1 -25 -32
-25 -31 0 -35 3 -32 25 2 14 3 34 4 46 0 16 7 21 28 21 21 0 28 -5 28 -21z
m130 0 c1 -12 2 -32 4 -46 3 -22 -1 -25 -32 -25 -31 0 -35 3 -32 25 2 14 3 34
4 46 0 16 7 21 28 21 21 0 28 -5 28 -21z"/>
<path d="M780 649 l-25 -20 35 -27 c19 -15 53 -44 76 -64 l41 -38 26 28 c15
16 27 33 27 38 0 15 -124 104 -144 104 -6 0 -22 -9 -36 -21z"/>
<path d="M601 565 c-17 -30 -58 -86 -92 -125 -34 -39 -59 -72 -58 -73 2 -1 21
-11 41 -21 l37 -19 20 24 c11 13 21 29 21 34 1 11 60 -113 60 -126 0 -14 -79
-51 -155 -73 -39 -12 -73 -24 -75 -27 -3 -3 10 -23 28 -44 l34 -38 41 14 c23
8 78 32 122 54 l81 40 59 -36 c33 -19 74 -41 91 -48 31 -12 33 -11 72 31 l41
43 -57 17 c-31 9 -78 27 -104 39 l-46 22 34 62 c19 34 45 93 58 132 l24 70
-82 1 c-44 0 -92 1 -106 2 l-25 2 33 29 c17 16 32 31 32 33 0 3 -87 36 -96 36
-1 0 -16 -25 -33 -55z m148 -114 c12 -8 12 -14 1 -43 -8 -18 -23 -48 -33 -66
-19 -31 -20 -32 -33 -14 -7 11 -22 43 -34 71 -19 48 -19 52 -3 47 10 -3 25 -1
33 4 19 12 51 12 69 1z"/>
<path d="M386 290 c-16 -5 -33 -7 -38 -4 -4 3 -24 -3 -43 -12 -28 -13 -41 -14
-60 -6 -18 9 -35 7 -71 -5 -37 -12 -54 -14 -76 -5 -33 12 -71 5 -64 -14 3 -7
8 -29 12 -48 6 -34 19 -43 49 -36 6 2 21 4 35 6 14 2 39 6 55 9 17 2 48 7 70
10 22 3 56 8 75 11 19 3 47 6 63 6 15 1 27 4 28 7 8 64 9 91 2 90 -4 0 -21 -5
-37 -9z"/>
</g>
</svg>
