<?xml version="1.0" standalone="no"?>
<!DOCTYPE svg PUBLIC "-//W3C//DTD SVG 20010904//EN"
 "http://www.w3.org/TR/2001/REC-SVG-20010904/DTD/svg10.dtd">
<svg version="1.0" xmlns="http://www.w3.org/2000/svg"
 width="101.000000pt" height="101.000000pt" viewBox="0 0 101.000000 101.000000"
 preserveAspectRatio="xMidYMid meet">
<metadata>
Created by potrace 1.16, written by Peter Selinger 2001-2019
</metadata>
<g transform="translate(0.000000,101.000000) scale(0.100000,-0.100000)"
fill="#000000" stroke="none">
<path d="M162 918 c-22 -46 -63 -107 -89 -137 l-49 -55 20 -38 c12 -21 27 -36
34 -33 13 5 14 -15 13 -179 -1 -116 1 -124 42 -119 84 10 180 12 259 5 80 -7
87 -6 92 11 2 11 0 31 -6 46 -9 24 -4 217 7 281 7 38 -6 50 -62 52 l-51 3 14
25 c7 14 27 45 43 70 26 38 28 46 15 53 -10 6 -24 3 -39 -7 -28 -18 -91 -21
-101 -5 -3 6 -17 9 -31 6 -23 -4 -23 -4 -6 17 10 11 25 26 33 33 8 6 13 13 10
16 -8 6 -89 37 -99 37 -4 0 -26 -37 -49 -82z m148 -108 c0 -3 -9 -16 -20 -30
-16 -21 -27 -25 -73 -25 l-54 0 20 30 c18 27 24 30 73 30 30 0 54 -2 54 -5z
m-65 -176 c0 -40 -1 -42 -30 -41 -28 1 -30 3 -30 42 0 40 1 41 30 41 29 -1 30
-3 30 -42z m150 2 c0 -45 0 -45 -35 -43 -33 1 -35 3 -35 37 0 32 3 35 35 41
19 3 35 7 35 8 0 0 0 -19 0 -43z m-147 -130 c1 -11 2 -32 4 -46 3 -23 0 -25
-37 -25 -37 0 -40 2 -37 25 2 14 3 34 4 46 0 16 7 20 33 21 27 1 33 -3 33 -21z
m150 1 c1 -12 2 -33 4 -47 3 -23 0 -25 -42 -25 -42 0 -45 2 -42 25 2 14 3 34
4 45 0 17 8 21 38 22 33 2 38 -1 38 -20z"/>
<path d="M685 984 c-16 -8 -35 -12 -42 -10 -15 6 -17 -6 -4 -19 6 -6 17 -27
26 -49 l16 -38 -90 7 -91 7 -11 -28 c-14 -39 0 -80 27 -76 10 2 44 2 76 2 31
-1 59 4 63 9 7 12 143 13 160 3 6 -4 40 -7 77 -8 74 0 85 9 72 60 -7 28 -4 27
-148 31 -39 2 -40 2 -54 54 -18 62 -37 76 -77 55z"/>
<path d="M553 730 c-17 -7 -23 -18 -23 -40 0 -16 5 -30 12 -30 8 0 9 -30 5
-110 l-7 -111 64 6 c61 5 64 4 65 -17 0 -13 3 -54 6 -93 3 -38 3 -84 0 -102
-5 -31 -7 -32 -49 -28 l-43 4 21 -54 c21 -55 21 -55 59 -51 78 9 82 16 84 167
2 178 2 181 19 175 8 -3 26 0 39 6 19 9 28 9 37 0 7 -7 20 -12 29 -12 15 0 18
18 24 137 7 127 6 137 -11 150 -11 8 -28 12 -39 9 -11 -2 -38 -9 -60 -15 -61
-16 -164 -14 -181 4 -17 17 -20 17 -51 5z m243 -139 l0 -69 -48 -6 c-27 -4
-56 -2 -67 4 -11 5 -27 7 -35 4 -14 -5 -16 3 -13 57 l2 64 40 6 c22 3 58 7 80
7 l40 2 1 -69z"/>
<path d="M550 389 c0 -26 -57 -135 -90 -173 -18 -20 -31 -38 -29 -39 2 -1 22
-11 43 -20 32 -15 41 -16 48 -5 46 71 129 210 126 212 -1 2 -16 8 -33 13 -16
6 -38 14 -47 18 -12 5 -18 3 -18 -6z"/>
<path d="M810 379 c-13 -6 -26 -11 -27 -13 -2 -2 15 -41 37 -87 22 -45 40 -89
40 -95 0 -7 4 -16 10 -19 12 -7 90 32 90 46 0 13 -35 82 -69 136 -27 44 -38
49 -81 32z"/>
<path d="M402 309 c-13 -5 -28 -7 -33 -3 -5 3 -25 -3 -44 -12 -29 -13 -41 -14
-60 -6 -17 8 -33 8 -51 2 -14 -6 -55 -8 -90 -5 -57 5 -64 4 -65 -12 -1 -10 0
-22 1 -28 2 -5 4 -21 5 -35 4 -39 4 -41 14 -36 12 8 128 25 274 41 76 8 93 15
103 43 19 49 -5 71 -54 51z"/>
</g>
</svg>
