<?xml version="1.0" standalone="no"?>
<!DOCTYPE svg PUBLIC "-//W3C//DTD SVG 20010904//EN"
 "http://www.w3.org/TR/2001/REC-SVG-20010904/DTD/svg10.dtd">
<svg version="1.0" xmlns="http://www.w3.org/2000/svg"
 width="101.000000pt" height="101.000000pt" viewBox="0 0 101.000000 101.000000"
 preserveAspectRatio="xMidYMid meet">
<metadata>
Created by potrace 1.16, written by Peter Selinger 2001-2019
</metadata>
<g transform="translate(0.000000,101.000000) scale(0.100000,-0.100000)"
fill="#000000" stroke="none">
<path d="M163 983 c-22 -64 -80 -175 -113 -219 -22 -29 -40 -55 -40 -58 0 -12
56 -60 68 -58 9 2 12 -17 12 -73 0 -43 -4 -75 -10 -75 -11 0 -13 -94 -4 -152
6 -35 7 -36 43 -31 20 4 95 6 168 6 l132 -1 3 47 c3 43 5 46 33 49 157 15 171
13 172 -33 1 -31 -2 -35 -32 -41 -19 -3 -39 -3 -46 2 -7 4 -27 8 -45 10 -35 2
-46 -14 -37 -58 4 -20 10 -24 32 -23 15 1 33 5 40 9 6 4 29 5 49 1 36 -6 38
-8 39 -44 2 -39 1 -39 -43 -46 -24 -3 -49 -3 -55 1 -12 7 -67 16 -105 16 -12
0 -21 5 -21 12 1 42 -3 48 -30 42 -16 -4 -38 -8 -51 -11 -13 -2 -31 -7 -40 -9
-24 -8 -78 -16 -137 -21 -27 -3 -59 -6 -70 -9 -11 -2 -26 -5 -33 -5 -14 -1
-10 -38 9 -88 l8 -21 76 24 c41 13 92 26 113 30 20 3 48 7 62 10 74 12 90 11
85 -5 -12 -39 19 -50 100 -36 67 12 381 6 420 -8 30 -10 47 6 48 46 1 46 -4
51 -45 38 -18 -5 -60 -8 -93 -6 -33 3 -70 5 -82 6 -19 1 -22 7 -20 39 1 30 5
38 22 39 72 5 93 5 121 -1 29 -6 32 -4 37 18 2 15 2 35 -1 46 -4 17 -10 19
-36 12 -28 -7 -58 -7 -122 -3 -18 1 -22 7 -21 34 1 36 -4 34 107 38 36 1 75
-2 86 -6 18 -6 22 -3 27 19 11 60 8 62 -136 62 -73 0 -142 0 -154 0 -13 1 -43
1 -68 1 -115 2 -151 7 -162 21 -15 18 -17 57 -3 65 6 3 10 28 10 55 0 60 -20
84 -62 76 -15 -3 -28 -3 -28 1 0 3 18 38 40 78 22 40 40 75 40 79 0 4 -29 4
-65 0 -46 -5 -69 -3 -80 6 -8 7 -24 10 -35 7 -26 -7 -25 -1 5 39 14 18 25 35
25 37 0 6 -77 37 -91 37 -5 0 -12 -8 -16 -17z m99 -234 c-27 -48 -27 -48 -72
-44 -25 2 -51 4 -58 5 -8 0 -2 16 16 43 29 40 32 42 85 43 l56 2 -27 -49z m83
-159 c0 -32 -2 -35 -30 -35 -28 0 -30 3 -30 36 0 33 2 35 30 35 28 -1 31 -4
30 -36z m-133 -3 c3 -30 1 -33 -19 -29 -13 2 -23 10 -23 17 0 8 -3 20 -6 29
-5 12 0 16 19 16 21 0 25 -5 29 -33z m6 -153 c1 -39 0 -41 -28 -41 -28 0 -29
2 -28 41 2 37 5 41 28 41 23 0 26 -4 28 -41z m130 1 c1 -43 1 -43 -33 -42 -34
1 -34 2 -33 42 2 39 4 41 33 42 29 1 31 -1 33 -42z"/>
<path d="M628 982 c-10 -2 -15 -9 -11 -17 2 -8 -1 -27 -7 -42 -12 -26 -17 -28
-59 -25 -25 2 -58 -1 -73 -7 -25 -9 -28 -16 -28 -56 0 -25 5 -45 10 -45 6 0
10 -16 10 -35 0 -19 -4 -35 -10 -35 -11 0 -12 -120 -1 -160 6 -21 14 -26 49
-28 25 -2 42 1 42 7 0 15 67 14 73 -1 4 -10 8 -10 15 1 8 11 33 13 134 7 l124
-7 2 174 1 174 -49 -5 c-29 -3 -56 0 -63 7 -8 6 -34 10 -60 8 -40 -2 -44 -1
-36 15 5 9 14 20 19 23 6 3 10 10 10 14 0 11 -72 37 -92 33z m177 -200 c0 -27
-1 -27 -57 -24 -37 3 -58 0 -58 -7 0 -6 -11 -11 -25 -11 -14 0 -25 5 -25 10 0
6 -17 10 -39 10 -32 0 -39 4 -43 23 -4 22 -3 22 121 24 l126 2 0 -27z m-3
-137 l3 -30 -125 0 -126 0 0 30 1 30 122 0 121 0 4 -30z"/>
</g>
</svg>
