<?xml version="1.0" standalone="no"?>
<!DOCTYPE svg PUBLIC "-//W3C//DTD SVG 20010904//EN"
 "http://www.w3.org/TR/2001/REC-SVG-20010904/DTD/svg10.dtd">
<svg version="1.0" xmlns="http://www.w3.org/2000/svg"
 width="101.000000pt" height="101.000000pt" viewBox="0 0 101.000000 101.000000"
 preserveAspectRatio="xMidYMid meet">
<metadata>
Created by potrace 1.16, written by Peter Selinger 2001-2019
</metadata>
<g transform="translate(0.000000,101.000000) scale(0.100000,-0.100000)"
fill="#000000" stroke="none">
<path d="M174 993 c-30 -94 -109 -239 -148 -272 -12 -10 -11 -18 8 -51 11 -22
26 -38 31 -36 6 2 9 -25 7 -73 -1 -42 0 -112 4 -157 l6 -81 31 4 c138 17 249
13 244 -9 -1 -6 9 -15 23 -19 14 -4 18 -8 10 -9 -8 -1 -24 -3 -35 -6 -51 -11
-84 -15 -131 -19 -28 -1 -60 -9 -72 -16 -16 -10 -26 -10 -45 -2 -36 17 -66 6
-62 -20 7 -50 18 -87 26 -87 4 0 20 4 34 10 14 5 43 12 63 16 20 3 48 7 62 10
14 3 36 7 50 9 104 18 117 24 126 53 4 15 6 33 5 39 -1 7 4 10 11 8 8 -3 20
12 32 41 18 43 20 45 33 28 10 -14 12 -47 9 -135 -3 -110 -2 -118 16 -122 39
-11 44 0 45 101 2 141 2 140 28 138 25 -1 26 -8 25 -107 0 -49 3 -57 21 -62
35 -9 50 2 42 32 -7 23 -7 43 -2 117 1 16 8 21 29 21 30 0 31 -3 31 -104 0
-40 3 -53 14 -54 8 -1 20 -2 26 -3 14 -1 38 -45 39 -70 0 -16 5 -18 38 -13 67
11 74 31 66 180 -6 105 -4 131 7 139 11 7 11 11 2 15 -15 6 -18 73 -3 73 6 0
10 21 10 46 l0 47 -51 -7 c-34 -5 -56 -3 -65 5 -11 9 -18 9 -26 1 -15 -15 -75
-16 -83 -2 -4 6 -40 9 -88 8 l-82 -3 3 30 4 30 179 0 178 -1 6 41 c6 43 2 182
-6 190 -3 2 -42 6 -87 7 -45 2 -82 6 -83 11 -3 16 -5 23 -18 61 -13 38 -14 38
-54 32 -57 -9 -59 -13 -37 -56 11 -22 20 -42 20 -45 0 -4 -38 -4 -85 0 l-85 7
-10 -27 c-6 -16 -9 -86 -8 -164 2 -75 0 -149 -4 -166 -4 -16 -10 -39 -12 -50
-2 -11 -8 -33 -12 -50 l-8 -30 -7 25 c-11 38 -10 168 1 175 5 3 9 30 9 61 -1
63 -19 90 -49 74 -40 -21 -40 -7 -1 64 l41 75 -55 -6 c-37 -4 -60 -2 -70 7 -8
7 -24 10 -35 7 -17 -4 -18 -2 -9 15 6 10 17 22 25 25 26 10 14 29 -31 51 -55
26 -54 26 -61 5z m591 -169 l50 -6 1 -48 0 -48 -50 -6 c-78 -9 -166 -7 -166 4
0 6 -11 10 -25 10 -22 0 -25 4 -25 40 l0 40 49 0 c28 0 53 5 56 10 7 11 38 12
110 4z m-495 -44 c-18 -35 -29 -39 -112 -31 -4 1 1 16 12 34 17 29 23 32 68
32 l50 0 -18 -35z m-68 -153 c3 -46 1 -52 -17 -53 -18 -1 -20 5 -21 52 0 45 2
54 17 54 14 0 18 -11 21 -53z m133 -4 c0 -44 -2 -48 -25 -48 -23 0 -25 4 -25
42 0 37 2 43 25 46 14 2 25 5 25 6 0 0 0 -20 0 -46z m274 -128 c0 -11 2 -33 3
-49 3 -27 0 -30 -27 -30 -27 -1 -30 2 -27 29 1 17 3 40 3 51 2 30 46 28 48 -1z
m120 0 c0 -11 2 -33 3 -49 3 -27 0 -30 -27 -30 -27 -1 -30 2 -27 29 1 17 3 40
3 51 2 30 46 28 48 -1z m120 1 c0 -12 2 -34 3 -51 3 -28 1 -30 -32 -30 -33 0
-35 2 -32 30 1 17 3 39 3 51 1 16 8 21 29 21 21 0 28 -5 29 -21z m-641 -11 c1
-11 2 -31 4 -44 3 -21 -1 -25 -27 -25 -26 -1 -30 2 -27 24 2 14 3 35 4 46 0
30 45 28 46 -1z m130 1 c1 -12 2 -32 4 -46 3 -22 -1 -25 -32 -25 -31 0 -35 3
-32 25 2 14 3 34 4 46 0 16 7 21 28 21 21 0 28 -5 28 -21z m510 -170 c1 -12 3
-34 7 -51 6 -34 -13 -78 -36 -83 -23 -4 -46 70 -31 103 6 14 9 31 6 38 -3 10
4 14 24 14 23 0 30 -5 30 -21z"/>
</g>
</svg>
