<?xml version="1.0" standalone="no"?>
<!DOCTYPE svg PUBLIC "-//W3C//DTD SVG 20010904//EN"
 "http://www.w3.org/TR/2001/REC-SVG-20010904/DTD/svg10.dtd">
<svg version="1.0" xmlns="http://www.w3.org/2000/svg"
 width="101.000000pt" height="102.000000pt" viewBox="0 0 101.000000 102.000000"
 preserveAspectRatio="xMidYMid meet">
<metadata>
Created by potrace 1.16, written by Peter Selinger 2001-2019
</metadata>
<g transform="translate(0.000000,102.000000) scale(0.100000,-0.100000)"
fill="#000000" stroke="none">
<path d="M159 983 c-22 -68 -69 -154 -110 -198 -33 -36 -39 -47 -30 -63 5 -10
12 -31 15 -47 6 -35 15 -43 26 -26 10 18 12 2 12 -166 1 -123 2 -132 21 -137
11 -3 27 -1 36 3 19 10 154 14 191 6 17 -4 26 -12 26 -25 0 -11 -3 -20 -6 -21
-3 0 -14 -2 -25 -5 -33 -7 -88 -15 -121 -19 -17 -2 -41 -9 -52 -16 -16 -10
-26 -10 -45 -2 -14 7 -34 9 -46 6 -20 -5 -22 -17 -12 -96 1 -10 62 -3 171 19
14 3 36 7 50 9 14 2 37 6 52 9 39 6 45 12 52 52 6 30 9 34 22 23 20 -16 26 -8
59 79 16 39 29 72 31 72 1 0 2 -10 3 -22 1 -13 3 -63 6 -113 4 -60 1 -108 -8
-142 -16 -61 -10 -76 32 -76 39 0 44 5 44 43 0 36 4 37 33 9 12 -12 27 -18 33
-15 19 12 119 171 139 220 l19 50 13 -40 c15 -48 74 -168 101 -205 l19 -28 39
42 39 42 -33 36 c-65 72 -120 198 -129 293 l-5 44 32 -9 c18 -5 35 -9 38 -9 7
0 15 29 33 120 3 14 9 43 15 65 6 22 11 43 11 46 0 9 -51 23 -70 20 -21 -4
-24 -8 -26 -39 -5 -52 -15 -107 -25 -146 -14 -53 -34 -33 -25 26 4 23 9 102
11 173 2 72 6 137 9 145 8 20 -48 42 -81 34 -22 -6 -34 -44 -14 -44 10 0 8
-361 -3 -378 -3 -6 -1 -22 5 -36 9 -18 9 -29 1 -39 -6 -7 -14 -28 -17 -47 -10
-58 -59 -152 -107 -205 -26 -27 -50 -46 -55 -42 -10 10 -8 277 3 277 2 0 11
-25 19 -55 9 -30 19 -55 21 -55 5 0 66 30 72 35 1 1 -11 33 -27 71 -28 65 -32
69 -60 67 -29 -3 -30 -1 -28 36 1 36 3 39 27 36 14 -2 28 -4 33 -4 4 -1 5 -12
2 -24 -6 -22 -3 -24 34 -25 50 -2 49 -4 65 150 3 27 7 52 10 57 10 16 -24 41
-54 41 -29 0 -49 -28 -35 -49 3 -5 1 -12 -5 -16 -5 -3 -10 -16 -10 -28 0 -18
-6 -22 -33 -23 l-32 0 1 73 c0 40 3 75 6 78 3 3 22 7 41 8 48 4 55 13 37 44
-25 44 -42 49 -97 25 -55 -24 -98 -35 -128 -32 -11 1 -59 2 -106 3 -80 2 -86
3 -78 20 6 9 19 23 29 30 29 17 25 26 -22 47 -59 27 -65 25 -79 -17z m260
-163 c6 0 20 4 33 9 23 8 23 7 23 -58 l0 -66 -42 0 c-33 0 -44 4 -49 17 -3 10
-17 21 -32 24 -15 3 -30 6 -33 7 -3 1 10 31 29 66 l36 65 13 -32 c7 -18 17
-32 22 -32z m-159 0 c0 -3 -10 -23 -23 -45 -20 -36 -27 -40 -65 -43 -23 -2
-42 0 -42 4 0 4 11 26 24 49 23 38 28 41 65 41 23 -1 41 -3 41 -6z m47 -192
c2 -39 0 -43 -22 -44 -22 -2 -24 2 -22 37 1 30 6 39 22 42 11 2 20 5 20 6 1 0
1 -18 2 -41z m-120 -8 c1 -28 -2 -36 -17 -37 -16 -1 -19 5 -17 36 1 26 6 37
17 37 11 0 16 -11 17 -36z m266 -47 c-8 -30 -25 -78 -38 -106 l-23 -52 -2 50
c-1 28 -2 74 -3 103 -2 56 -1 58 48 59 l33 1 -15 -55z m-265 -108 c1 -34 -2
-41 -18 -42 -17 -2 -19 4 -18 42 2 33 6 43 18 42 11 -1 16 -13 18 -42z m120 0
c1 -36 -1 -40 -23 -41 -23 -2 -24 1 -23 41 2 36 5 42 23 41 17 -1 21 -8 23
-41z"/>
</g>
</svg>
