<?xml version="1.0" standalone="no"?>
<!DOCTYPE svg PUBLIC "-//W3C//DTD SVG 20010904//EN"
 "http://www.w3.org/TR/2001/REC-SVG-20010904/DTD/svg10.dtd">
<svg version="1.0" xmlns="http://www.w3.org/2000/svg"
 width="101.000000pt" height="101.000000pt" viewBox="0 0 101.000000 101.000000"
 preserveAspectRatio="xMidYMid meet">
<metadata>
Created by potrace 1.16, written by Peter Selinger 2001-2019
</metadata>
<g transform="translate(0.000000,101.000000) scale(0.100000,-0.100000)"
fill="#000000" stroke="none">
<path d="M136 925 c-21 -46 -53 -102 -72 -124 -19 -21 -34 -43 -34 -47 0 -19
36 -83 45 -80 10 4 15 -86 15 -261 l0 -92 42 5 c99 13 206 14 252 3 55 -13 71
-3 56 37 -15 39 -25 274 -11 274 7 0 11 19 11 49 0 48 -1 49 -35 55 -20 4 -45
4 -57 0 -24 -7 -24 -8 35 80 31 46 36 60 26 67 -8 5 -23 2 -36 -6 -26 -18 -89
-20 -99 -4 -3 6 -17 9 -30 6 -22 -4 -23 -3 -8 25 8 16 22 32 30 35 23 9 16 22
-19 37 -73 30 -69 33 -111 -59z m128 -149 l-25 -45 -51 5 c-28 2 -53 6 -56 8
-2 3 6 18 19 35 17 24 27 29 48 25 14 -3 37 -1 51 5 39 15 40 14 14 -33z m86
-146 c0 -16 2 -35 5 -43 4 -10 -2 -14 -22 -14 -27 0 -28 3 -28 47 0 43 2 46
23 42 16 -3 22 -11 22 -32z m-129 -13 c4 -41 2 -44 -21 -44 -23 0 -25 4 -25
44 0 37 3 43 21 43 19 0 23 -7 25 -43z m8 -131 c0 -12 2 -34 3 -51 3 -28 1
-30 -32 -30 -33 0 -35 2 -32 30 1 17 3 39 3 51 1 16 8 21 29 21 21 0 28 -5 29
-21z m130 0 c0 -12 2 -34 3 -51 3 -28 1 -30 -32 -30 -33 0 -35 2 -32 30 1 17
3 39 3 51 1 16 8 21 29 21 21 0 28 -5 29 -21z"/>
<path d="M508 943 c-19 -5 -25 -23 -8 -23 6 0 10 -25 10 -55 0 -30 -4 -55 -10
-55 -5 0 -10 -18 -10 -40 0 -23 5 -40 11 -40 13 0 7 -189 -6 -223 -7 -16 -3
-17 46 -11 81 9 236 10 308 1 l63 -8 -8 28 c-5 15 -8 51 -7 78 1 28 4 118 7
200 l5 150 -97 -3 c-165 -5 -226 -5 -257 1 -16 3 -38 3 -47 0z m147 -132 l0
-60 -40 2 -40 2 0 50 0 50 40 6 c22 3 40 7 40 8 0 0 0 -26 0 -58z m160 -1 l0
-55 -42 0 -41 0 1 55 2 55 40 0 40 0 0 -55z m-161 -182 l1 -57 -40 1 -40 2 -1
59 0 58 40 -3 40 -3 0 -57z m161 -3 l0 -54 -40 1 -40 2 0 48 0 47 40 4 c22 2
40 4 40 5 0 1 0 -23 0 -53z"/>
<path d="M678 473 c-21 -5 -21 -8 -8 -33 9 -17 7 -18 -20 -10 -16 5 -38 6 -50
3 -18 -5 -20 -10 -14 -57 4 -28 7 -97 8 -153 1 -56 5 -105 9 -110 16 -15 90
-32 106 -24 9 5 35 9 58 8 24 0 50 7 59 14 22 18 59 102 47 106 -5 2 -25 14
-44 27 l-34 24 -15 -42 c-15 -39 -18 -41 -59 -42 -53 -1 -62 16 -56 108 9 132
16 143 41 64 19 -60 17 -59 81 -35 26 10 24 19 -22 108 -26 52 -37 57 -87 44z"/>
<path d="M843 410 c-29 -12 -29 -20 1 -78 13 -26 29 -64 35 -84 14 -43 18 -44
66 -24 32 14 34 17 24 43 -20 56 -74 148 -89 150 -8 1 -25 -2 -37 -7z"/>
<path d="M470 374 c-6 -16 -6 -33 2 -49 8 -18 8 -31 0 -48 -25 -52 -41 -117
-29 -118 7 -1 27 -3 44 -5 25 -3 35 1 43 16 6 11 9 24 6 29 -3 4 -1 23 5 42 6
19 12 43 14 54 2 11 7 37 11 58 3 20 3 37 -2 38 -79 9 -85 8 -94 -17z"/>
<path d="M399 286 c-2 -2 -22 -7 -44 -11 -22 -3 -53 -9 -70 -12 -61 -10 -91
-14 -135 -17 -68 -5 -93 -15 -85 -34 4 -10 9 -29 12 -45 8 -37 12 -38 68 -21
27 8 65 17 85 20 19 3 46 7 60 10 14 2 39 5 55 8 52 6 85 18 86 30 7 71 6 76
-11 76 -9 0 -19 -2 -21 -4z"/>
</g>
</svg>
