<?xml version="1.0" standalone="no"?>
<!DOCTYPE svg PUBLIC "-//W3C//DTD SVG 20010904//EN"
 "http://www.w3.org/TR/2001/REC-SVG-20010904/DTD/svg10.dtd">
<svg version="1.0" xmlns="http://www.w3.org/2000/svg"
 width="101.000000pt" height="101.000000pt" viewBox="0 0 101.000000 101.000000"
 preserveAspectRatio="xMidYMid meet">
<metadata>
Created by potrace 1.16, written by Peter Selinger 2001-2019
</metadata>
<g transform="translate(0.000000,101.000000) scale(0.100000,-0.100000)"
fill="#000000" stroke="none">
<path d="M160 951 c-17 -34 -55 -90 -85 -126 l-55 -64 19 -40 c13 -31 20 -38
29 -29 7 7 13 8 13 3 1 -6 4 -23 6 -40 8 -55 8 -219 0 -281 l-8 -61 33 4 c87
11 190 12 246 5 l62 -9 -1 166 c-1 223 -5 207 47 206 34 0 44 -4 44 -16 0 -20
23 -27 73 -21 30 3 38 9 44 30 9 35 -20 55 -73 49 -34 -4 -41 -2 -37 12 3 12
20 17 70 19 l66 3 -7 -129 c-7 -125 -6 -130 13 -135 49 -12 58 -1 65 86 3 45
6 101 6 125 0 33 4 42 18 42 9 0 45 3 79 5 l62 4 -5 -43 c-5 -37 -3 -44 14
-48 40 -11 70 2 76 34 19 95 -3 144 -58 134 -17 -3 -67 -7 -111 -8 -76 -3 -80
-2 -81 19 -2 20 4 22 91 28 100 8 111 14 99 62 -5 20 -11 23 -28 18 -41 -13
-206 -18 -206 -6 0 6 -17 11 -40 11 -22 0 -40 -4 -40 -10 0 -5 -25 -10 -55
-10 -30 0 -55 5 -55 10 0 6 -4 10 -9 10 -12 0 -22 -45 -15 -64 8 -21 51 -31
68 -17 8 7 34 11 57 9 40 -3 42 -5 43 -35 l1 -32 -60 3 c-33 2 -72 7 -87 11
-42 11 -68 -9 -68 -53 l0 -37 -45 0 c-39 0 -43 2 -32 17 70 98 89 129 83 135
-4 4 -16 2 -26 -5 -24 -15 -66 -16 -75 -2 -3 6 -28 9 -55 7 l-50 -3 36 37 36
37 -23 15 c-13 9 -36 19 -51 22 -25 6 -29 2 -58 -54z m98 -173 c-17 -31 -27
-38 -43 -34 -11 3 -37 6 -58 6 l-39 0 28 33 c25 28 35 32 81 33 l53 2 -22 -40z
m168 -75 c-3 -4 -6 2 -5 13 0 11 3 14 6 6 3 -7 2 -16 -1 -19z m-207 -57 c0
-12 2 -34 3 -51 3 -28 1 -30 -32 -30 -33 0 -35 2 -32 30 1 17 3 39 3 51 1 16
8 21 29 21 21 0 28 -5 29 -21z m130 0 c0 -11 2 -34 3 -51 3 -29 1 -30 -37 -30
-38 0 -40 1 -37 30 1 17 3 39 3 51 1 16 8 20 34 21 27 1 33 -3 34 -21z m-130
-170 c0 -12 2 -34 3 -51 3 -28 1 -30 -32 -30 -33 0 -35 2 -32 30 1 17 3 39 3
51 1 16 8 21 29 21 21 0 28 -5 29 -21z m130 0 c0 -11 2 -34 3 -51 3 -29 1 -30
-37 -30 -38 0 -40 1 -37 30 1 17 3 39 3 51 1 16 8 20 34 21 27 1 33 -3 34 -21z"/>
<path d="M778 723 c-34 -9 -34 -67 0 -75 10 -3 33 -3 50 0 24 3 34 11 39 30
10 40 -30 61 -89 45z"/>
<path d="M509 603 c-18 -4 -31 -37 -23 -58 7 -18 44 -26 66 -14 10 6 27 7 37
4 21 -6 32 13 25 43 -4 13 -14 19 -32 19 -15 0 -34 2 -42 5 -8 3 -22 4 -31 1z"/>
<path d="M769 603 c-18 -4 -31 -37 -23 -58 7 -18 44 -26 66 -14 10 6 27 7 37
4 21 -6 32 13 25 43 -4 13 -14 19 -32 19 -15 0 -34 2 -42 5 -8 3 -22 4 -31 1z"/>
<path d="M479 483 c-19 -5 -30 -34 -22 -62 6 -23 39 -34 64 -20 19 10 33 10
190 2 l106 -5 0 -29 c0 -26 -4 -29 -41 -34 -40 -6 -132 -2 -232 10 -46 5 -52
3 -57 -15 -12 -47 23 -81 63 -60 19 10 68 11 186 4 81 -6 81 -6 81 -34 l0 -28
-101 -5 c-56 -4 -123 -4 -151 -2 -110 10 -108 11 -108 -35 0 -46 -2 -45 108
-35 86 7 257 -6 252 -20 -9 -22 11 -39 47 -38 19 1 39 3 43 6 5 3 5 49 1 102
-4 54 -6 129 -3 169 8 112 8 118 -6 126 -7 5 -24 4 -38 -2 -42 -16 -324 -14
-357 4 -5 2 -16 3 -25 1z"/>
<path d="M383 289 c-11 -4 -35 -10 -54 -13 -19 -3 -45 -8 -59 -11 -30 -6 -86
-16 -120 -20 -36 -4 -94 -16 -98 -19 -5 -5 22 -96 28 -96 4 0 29 7 55 15 27 8
51 12 53 10 3 -2 13 0 22 5 16 8 49 15 115 24 69 10 83 18 90 53 3 19 8 40 11
47 5 14 -13 16 -43 5z"/>
</g>
</svg>
