<?xml version="1.0" standalone="no"?>
<!DOCTYPE svg PUBLIC "-//W3C//DTD SVG 20010904//EN"
 "http://www.w3.org/TR/2001/REC-SVG-20010904/DTD/svg10.dtd">
<svg version="1.0" xmlns="http://www.w3.org/2000/svg"
 width="101.000000pt" height="102.000000pt" viewBox="0 0 101.000000 102.000000"
 preserveAspectRatio="xMidYMid meet">
<metadata>
Created by potrace 1.16, written by Peter Selinger 2001-2019
</metadata>
<g transform="translate(0.000000,102.000000) scale(0.100000,-0.100000)"
fill="#000000" stroke="none">
<path d="M152 947 c-18 -40 -57 -105 -87 -145 l-55 -73 21 -42 21 -41 18 22
c10 12 21 22 24 22 3 0 6 -34 6 -75 0 -45 -4 -75 -10 -75 -7 0 -10 -36 -8 -99
2 -90 4 -100 22 -105 10 -3 27 -1 37 5 11 5 76 7 158 4 l140 -5 0 52 c0 111
-1 109 32 92 31 -16 30 -39 -1 -29 -21 7 -30 -19 -23 -59 5 -25 8 -26 53 -23
26 2 52 7 59 11 6 4 30 5 52 1 30 -5 39 -11 35 -22 -3 -8 -1 -23 4 -33 6 -11
7 -43 4 -75 l-7 -55 -46 3 c-51 4 -49 -3 -37 99 6 44 5 46 -23 56 -62 22 -86
-5 -70 -77 5 -22 5 -50 0 -63 -4 -13 -6 -40 -3 -60 5 -45 10 -47 102 -32 124
19 256 14 247 -10 -11 -29 13 -41 76 -38 21 2 27 7 27 25 0 13 -5 28 -11 34
-7 7 -9 22 -4 40 9 30 11 41 20 116 5 44 4 47 -17 48 -13 1 -37 2 -55 4 -24 2
-32 -2 -37 -18 -3 -11 0 -29 5 -40 6 -10 8 -34 5 -53 -7 -32 -8 -33 -50 -32
l-44 2 -6 54 c-4 29 -2 61 4 72 5 10 7 26 3 36 -5 13 -3 16 10 11 8 -3 29 -1
45 5 23 9 37 8 68 -4 51 -20 93 -13 96 16 2 36 -2 60 -13 66 -5 4 -36 0 -67
-8 -43 -11 -64 -12 -85 -4 -16 6 -35 8 -43 5 -11 -4 -13 5 -12 41 2 33 6 45
15 41 7 -2 24 1 38 7 19 8 31 7 59 -6 40 -19 64 -13 72 19 14 57 12 59 -148
59 -137 1 -164 5 -138 21 19 12 10 23 -32 38 -24 9 -36 16 -28 16 40 3 43 17
14 67 -15 27 -29 50 -30 52 -4 6 -85 -21 -81 -27 2 -3 13 -27 25 -53 13 -27
27 -48 32 -48 20 0 -12 -78 -58 -138 -19 -24 -27 -30 -33 -20 -12 18 -11 86 1
93 5 3 9 30 9 61 -1 59 -20 90 -48 79 -9 -4 -28 -8 -44 -10 -31 -5 -31 -2 30
92 18 28 33 54 33 57 0 2 -25 2 -55 -1 -37 -4 -60 -2 -70 7 -8 7 -24 10 -35 7
-27 -7 -25 5 5 33 14 13 25 29 25 36 0 12 -68 44 -93 44 -8 0 -28 -33 -45 -73z
m138 -125 c0 -2 -11 -19 -24 -39 -25 -36 -37 -40 -116 -34 -6 1 -1 18 11 39
21 36 24 37 75 37 30 0 54 -1 54 -3z m-75 -197 c0 -33 -4 -40 -20 -41 -17 -1
-20 5 -20 41 0 37 2 42 20 41 17 -1 20 -8 20 -41z m140 3 c0 -41 -1 -43 -30
-43 -29 0 -30 2 -27 37 3 31 8 38 30 41 15 2 27 5 27 6 0 0 0 -18 0 -41z m293
-132 l1 -43 -55 -7 c-80 -9 -91 0 -55 50 25 34 36 40 68 41 l39 2 2 -43z
m-430 -11 c1 -11 2 -31 4 -44 3 -21 -1 -25 -27 -25 -26 -1 -30 2 -27 24 2 14
3 35 4 46 0 30 45 28 46 -1z m140 1 c1 -12 2 -32 4 -46 3 -22 -1 -25 -32 -25
-31 0 -35 3 -32 25 2 14 3 34 4 46 0 16 7 21 28 21 21 0 28 -5 28 -21z"/>
<path d="M785 965 c-38 -13 -72 -25 -75 -26 -9 -4 -123 -9 -190 -10 -85 0
-102 -10 -73 -41 11 -13 26 -33 33 -46 8 -16 17 -21 28 -17 9 4 33 8 52 10 19
2 51 6 70 10 54 8 88 12 170 19 85 7 132 18 137 32 5 14 -56 94 -70 93 -7 -1
-43 -12 -82 -24z"/>
<path d="M840 803 c-7 -21 -25 -59 -41 -86 -16 -26 -29 -51 -29 -55 0 -11 61
-33 72 -26 5 3 22 29 39 58 16 29 38 61 49 71 28 25 25 32 -20 55 -53 27 -57
26 -70 -17z"/>
<path d="M659 818 l-26 -9 24 -62 c14 -34 29 -66 33 -70 9 -10 70 19 70 32 0
5 -9 33 -21 63 -21 57 -33 63 -80 46z"/>
<path d="M396 302 c-4 -3 -67 -12 -121 -16 -16 -2 -47 -9 -67 -16 -29 -11 -43
-11 -62 -2 -19 8 -34 9 -53 1 -16 -6 -29 -10 -30 -10 -28 8 -31 -1 -15 -51 9
-29 17 -54 17 -55 1 -1 18 2 38 8 20 5 52 12 70 15 31 5 53 9 107 20 41 8 73
13 108 17 40 5 40 4 48 54 6 39 5 42 -15 40 -12 -1 -24 -3 -25 -5z"/>
</g>
</svg>
