<?xml version="1.0" standalone="no"?>
<!DOCTYPE svg PUBLIC "-//W3C//DTD SVG 20010904//EN"
 "http://www.w3.org/TR/2001/REC-SVG-20010904/DTD/svg10.dtd">
<svg version="1.0" xmlns="http://www.w3.org/2000/svg"
 width="101.000000pt" height="103.000000pt" viewBox="0 0 101.000000 103.000000"
 preserveAspectRatio="xMidYMid meet">
<metadata>
Created by potrace 1.16, written by Peter Selinger 2001-2019
</metadata>
<g transform="translate(0.000000,103.000000) scale(0.100000,-0.100000)"
fill="#000000" stroke="none">
<path d="M170 1018 c0 -28 -74 -160 -115 -206 l-47 -52 21 -29 c12 -16 21 -34
21 -40 0 -6 3 -11 8 -11 4 0 6 -24 5 -52 0 -29 3 -58 8 -65 6 -6 8 -59 5 -122
l-4 -111 46 6 c71 9 213 9 250 0 30 -8 32 -7 33 20 1 24 2 25 7 9 5 -14 14
-19 32 -17 132 15 195 10 186 -15 -3 -8 -1 -23 5 -34 6 -12 7 -39 3 -65 -6
-41 -9 -45 -33 -43 -59 5 -62 2 -47 -33 8 -18 17 -41 20 -51 5 -14 14 -17 45
-13 21 2 51 11 67 19 28 15 29 17 31 104 3 131 3 131 27 132 11 0 51 3 89 6
37 2 79 0 93 -6 33 -12 36 -9 37 36 1 42 -16 57 -50 44 -13 -5 -65 -9 -116 -9
-51 0 -137 -1 -192 -1 -55 -1 -121 2 -147 5 -39 5 -48 3 -48 -9 0 -8 -4 -15
-10 -15 -14 0 -13 43 2 58 9 9 9 15 0 24 -15 15 -16 74 -2 83 6 3 10 16 10 28
0 16 3 18 9 9 5 -8 19 -13 32 -13 22 2 93 2 289 2 36 0 91 0 122 1 l58 0 -6
39 c-4 23 -2 44 5 52 10 13 14 84 5 117 -3 12 -20 15 -76 15 l-73 0 0 30 0 30
82 -3 c93 -3 120 11 108 57 -4 14 -8 27 -9 29 -2 1 -49 5 -105 9 -73 4 -101 3
-101 -5 0 -8 -26 -12 -80 -12 -47 0 -80 4 -80 10 0 6 -18 10 -40 10 -22 0 -40
-4 -40 -10 0 -15 -110 -13 -111 3 0 6 -5 1 -10 -12 -5 -14 -7 -30 -5 -38 4
-10 -14 -12 -78 -10 -91 2 -89 1 -43 54 19 21 19 22 -12 37 -55 29 -81 37 -81
24z m283 -139 c13 7 41 11 63 9 38 -3 39 -4 39 -41 l0 -37 -67 5 -66 5 -7 -30
c-4 -16 -4 -40 0 -52 5 -21 5 -22 -8 -6 -9 12 -27 17 -50 16 -21 -1 -40 1 -43
4 -3 4 11 35 32 71 35 61 39 64 61 54 17 -7 29 -7 46 2z m243 -31 c-1 -28 -5
-33 -26 -33 -20 0 -25 5 -25 25 0 18 7 27 25 31 14 4 25 7 26 8 0 0 0 -14 0
-31z m-457 -64 c-22 -32 -29 -36 -72 -38 -26 -1 -47 0 -47 3 0 2 11 19 25 37
20 27 33 33 68 36 23 2 44 2 46 1 2 -2 -7 -19 -20 -39z m456 -75 c0 -42 -2
-46 -25 -46 -23 0 -25 4 -25 49 0 46 1 49 25 46 22 -3 24 -8 25 -49z m140 -3
c0 -42 -1 -44 -30 -43 -28 1 -30 4 -30 38 -1 35 2 38 30 42 16 2 30 5 30 5 0
1 0 -18 0 -42z m-283 -4 c3 -36 1 -39 -22 -39 -23 0 -25 3 -22 39 3 28 9 38
22 38 13 0 19 -10 22 -38z m-141 -45 c-10 -9 -11 -8 -5 6 3 10 9 15 12 12 3
-3 0 -11 -7 -18z m-213 -32 c1 -36 -1 -40 -23 -41 -23 -2 -24 1 -23 41 2 36 5
42 23 41 17 -1 21 -8 23 -41z m120 0 c1 -40 0 -42 -28 -42 -28 0 -29 2 -28 42
2 38 5 42 28 42 23 0 26 -4 28 -42z m-120 -140 c1 -11 2 -31 4 -44 3 -21 -1
-25 -27 -25 -26 -1 -30 2 -27 24 2 14 3 35 4 46 0 30 45 28 46 -1z m120 1 c1
-12 2 -32 4 -46 3 -22 -1 -25 -32 -25 -31 0 -35 3 -32 25 2 14 3 34 4 46 0 16
7 21 28 21 21 0 28 -5 28 -21z"/>
<path d="M479 553 c-19 -5 -29 -34 -22 -62 6 -22 39 -34 62 -21 9 5 59 7 111
4 146 -6 251 -6 257 0 8 8 8 64 0 72 -5 6 -40 6 -262 2 -55 -1 -107 1 -115 4
-8 3 -22 4 -31 1z"/>
<path d="M770 313 c-14 -9 -27 -18 -29 -20 -2 -1 18 -26 45 -55 28 -29 57 -64
66 -76 18 -27 37 -24 78 8 l25 20 -71 70 c-40 38 -76 70 -81 70 -5 0 -20 -8
-33 -17z"/>
<path d="M466 259 c-21 -28 -54 -60 -72 -72 -19 -12 -34 -24 -34 -27 0 -3 21
-13 46 -24 l46 -19 46 54 c26 30 59 66 75 81 l28 27 -37 16 c-20 8 -42 15 -48
15 -6 -1 -28 -24 -50 -51z"/>
<path d="M316 292 c-2 -2 -23 -6 -47 -8 -24 -3 -57 -8 -74 -10 -16 -2 -56 -6
-87 -8 -31 -2 -61 -7 -66 -10 -6 -4 -5 -22 3 -48 12 -43 13 -43 56 -41 24 1
55 5 69 8 38 8 82 16 110 20 67 9 92 14 94 17 12 19 21 57 18 71 -3 13 -12 17
-38 15 -19 -1 -36 -4 -38 -6z"/>
</g>
</svg>
