<?xml version="1.0" standalone="no"?>
<!DOCTYPE svg PUBLIC "-//W3C//DTD SVG 20010904//EN"
 "http://www.w3.org/TR/2001/REC-SVG-20010904/DTD/svg10.dtd">
<svg version="1.0" xmlns="http://www.w3.org/2000/svg"
 width="101.000000pt" height="101.000000pt" viewBox="0 0 101.000000 101.000000"
 preserveAspectRatio="xMidYMid meet">
<metadata>
Created by potrace 1.16, written by Peter Selinger 2001-2019
</metadata>
<g transform="translate(0.000000,101.000000) scale(0.100000,-0.100000)"
fill="#000000" stroke="none">
<path d="M164 973 c-35 -86 -63 -141 -98 -192 l-37 -55 18 -35 c10 -20 23 -39
28 -43 6 -4 11 -20 13 -35 7 -60 5 -220 -2 -254 -7 -32 -6 -37 15 -42 12 -3
30 -2 40 4 11 5 76 7 157 4 l139 -5 1 82 c1 122 1 123 36 139 42 19 49 18 56
-11 6 -27 50 -53 84 -51 11 1 73 3 136 5 63 1 125 6 138 10 22 7 52 53 52 78
0 11 -69 54 -74 46 -1 -2 -7 -15 -13 -30 -10 -22 -21 -28 -60 -34 -60 -9 -111
-8 -185 5 -5 0 -8 5 -8 10 0 8 27 15 100 28 14 2 36 6 50 9 14 3 39 7 57 9 17
2 39 7 48 12 15 9 14 13 -9 40 l-25 30 -68 -22 c-125 -41 -135 -41 -73 2 53
37 58 38 135 37 44 -1 89 -4 101 -8 26 -9 54 16 54 49 0 31 -14 39 -82 45
l-57 5 50 37 50 37 -33 30 c-18 17 -37 31 -41 31 -4 0 -19 -12 -32 -27 -24
-27 -24 -27 -25 -5 0 20 -11 27 -35 22 -5 -1 -28 -3 -51 -4 l-40 -2 2 43 3 43
-50 0 -50 0 3 -42 4 -43 -65 0 c-71 0 -80 -8 -67 -60 8 -30 31 -37 87 -27 l44
8 -1 -30 c-1 -30 -2 -31 -52 -34 -32 -2 -52 1 -52 7 0 6 -14 11 -30 11 -24 0
-33 -6 -40 -26 -6 -14 -8 -30 -4 -35 3 -5 2 -9 -3 -10 -4 0 -23 -2 -41 -4 -39
-3 -39 -5 16 90 34 57 38 71 26 78 -8 5 -24 5 -37 1 -35 -11 -146 -11 -139 1
3 6 16 24 29 41 13 17 23 34 23 38 0 9 -64 36 -85 36 -9 0 -23 -16 -31 -37z
m592 -135 c5 -6 -61 -58 -73 -58 -5 0 -9 15 -9 33 0 32 1 33 38 31 22 -1 41
-4 44 -6z m-476 -32 c0 -2 -10 -21 -22 -42 -22 -37 -25 -39 -75 -39 -29 -1
-53 2 -53 5 0 3 11 21 24 40 21 32 29 35 75 37 28 2 51 1 51 -1z m313 -104
c-10 -8 -47 -29 -83 -47 l-65 -33 3 38 c5 46 21 55 102 55 53 0 58 -2 43 -13z
m-375 -98 c1 -39 0 -41 -28 -41 -28 0 -29 2 -28 42 2 38 5 42 28 41 23 -1 26
-5 28 -42z m140 -1 c1 -41 1 -41 -33 -40 -34 1 -34 2 -33 41 2 39 4 41 33 41
29 0 31 -2 33 -42z m-139 -127 c0 -12 2 -34 3 -51 3 -28 1 -30 -32 -30 -33 0
-35 2 -32 30 1 17 3 39 3 51 1 16 8 21 29 21 21 0 28 -5 29 -21z m140 0 c0
-11 2 -34 3 -51 3 -29 1 -30 -37 -30 -38 0 -40 1 -37 30 1 17 3 39 3 51 1 16
8 20 34 21 27 1 33 -3 34 -21z"/>
<path d="M509 453 c-21 -5 -31 -41 -18 -64 10 -20 5 -252 -6 -282 -8 -18 5
-22 60 -18 32 3 46 16 38 37 -2 7 5 12 19 13 13 1 50 3 83 6 76 6 128 -2 122
-19 -7 -18 6 -35 28 -37 68 -7 83 15 59 83 -13 39 -13 102 1 226 l6 52 -173
-2 c-95 -2 -180 0 -188 3 -8 4 -22 5 -31 2z m272 -69 c21 -4 26 -11 26 -34 0
-25 -5 -30 -31 -35 -17 -3 -58 -3 -91 0 -33 3 -69 6 -81 6 -16 1 -21 8 -21 30
0 22 4 28 16 24 9 -2 22 -1 30 4 16 10 110 13 152 5z m0 -110 c21 -4 26 -11
26 -34 0 -25 -5 -30 -31 -35 -17 -3 -58 -3 -91 0 -33 3 -69 6 -81 6 -16 1 -21
8 -21 30 0 22 4 28 16 24 9 -2 22 -1 30 4 16 10 110 13 152 5z"/>
<path d="M399 286 c-2 -2 -20 -7 -39 -10 -19 -3 -46 -8 -60 -11 -14 -3 -38 -7
-55 -9 -16 -2 -47 -9 -67 -16 -29 -11 -43 -11 -62 -2 -17 8 -34 8 -50 2 l-24
-9 16 -48 c9 -26 18 -49 18 -51 1 -2 30 4 64 13 35 9 77 19 94 21 17 3 42 7
56 10 14 3 39 7 57 9 17 2 40 6 50 9 33 11 50 96 19 96 -7 0 -15 -2 -17 -4z"/>
</g>
</svg>
