<?xml version="1.0" standalone="no"?>
<!DOCTYPE svg PUBLIC "-//W3C//DTD SVG 20010904//EN"
 "http://www.w3.org/TR/2001/REC-SVG-20010904/DTD/svg10.dtd">
<svg version="1.0" xmlns="http://www.w3.org/2000/svg"
 width="101.000000pt" height="101.000000pt" viewBox="0 0 101.000000 101.000000"
 preserveAspectRatio="xMidYMid meet">
<metadata>
Created by potrace 1.16, written by Peter Selinger 2001-2019
</metadata>
<g transform="translate(0.000000,101.000000) scale(0.100000,-0.100000)"
fill="#000000" stroke="none">
<path d="M648 1004 c13 -6 15 -50 6 -129 l-6 -50 -103 1 c-100 2 -104 1 -109
-21 -13 -52 17 -69 101 -59 l48 7 -34 -37 c-36 -37 -108 -79 -123 -70 -13 8
-10 84 5 84 6 0 4 5 -6 11 -12 7 -27 7 -45 1 -15 -5 -35 -6 -44 -3 -16 5 -12
15 27 73 25 37 45 69 45 71 0 3 -21 2 -46 -1 -27 -3 -55 0 -69 8 -13 7 -31 10
-39 7 -22 -9 -20 1 10 40 14 19 24 35 23 37 -10 7 -92 27 -95 23 -3 -2 -22
-40 -43 -83 -21 -44 -57 -100 -80 -126 l-41 -46 17 -36 c10 -20 23 -34 29 -32
12 5 28 -253 18 -290 -4 -16 0 -23 17 -27 12 -3 30 -2 40 4 11 5 75 7 154 4
100 -3 135 -2 135 7 0 9 3 9 12 0 9 -9 9 -15 0 -24 -8 -8 -1 -20 31 -50 l42
-38 -35 -30 c-19 -17 -61 -40 -93 -52 l-58 -21 28 -18 c16 -10 36 -24 45 -31
24 -17 77 11 144 77 54 53 91 132 101 210 11 92 34 43 29 -62 l-4 -81 32 4
c87 11 81 13 81 -36 -1 -25 -4 -54 -8 -65 -10 -31 7 -49 49 -48 42 1 56 17 44
49 -5 12 -8 41 -7 63 1 39 1 39 38 35 30 -4 37 -1 42 16 11 42 -2 58 -46 56
-39 -1 -42 1 -39 24 2 14 3 34 4 46 0 16 7 20 36 21 39 1 55 18 46 48 -9 27
-8 27 -48 28 -37 1 -39 4 -27 47 6 21 3 27 -20 37 -55 23 -74 5 -70 -63 2 -28
0 -31 -26 -29 -15 1 -32 3 -38 5 -24 6 -45 -1 -45 -15 0 -8 -4 -15 -10 -15 -5
0 -10 7 -10 15 0 14 -33 21 -83 17 -19 -2 -18 2 15 51 15 21 16 28 6 32 -7 2
-25 9 -40 14 -26 10 -28 8 -56 -52 -16 -34 -39 -73 -50 -87 l-21 -25 -1 30 c0
17 3 54 7 83 5 49 7 52 23 37 16 -15 23 -12 84 40 36 31 72 66 81 78 14 20 15
17 15 -51 0 -39 0 -75 1 -79 1 -13 33 -21 66 -16 l33 5 -3 85 c-2 78 -1 83 13
62 32 -49 64 -80 108 -106 36 -21 47 -24 50 -13 3 8 16 25 29 38 13 13 23 25
21 26 -2 1 -24 10 -50 20 -25 9 -66 31 -90 49 -42 30 -43 31 -18 37 14 4 33 3
43 -2 27 -14 85 1 92 23 13 41 -2 57 -52 56 -25 -1 -48 3 -50 9 -2 6 15 32 38
58 45 51 44 56 -13 81 l-38 15 -25 -49 c-13 -27 -29 -52 -35 -56 -18 -11 -10
-26 22 -39 l31 -14 -41 -3 -40 -4 1 90 2 90 -50 2 c-27 1 -44 0 -37 -3z m-370
-196 c-8 -13 -22 -35 -31 -49 -13 -20 -23 -24 -49 -22 -18 2 -39 4 -45 5 -17
2 -17 4 12 42 20 27 30 32 54 28 16 -2 37 1 48 7 26 15 27 14 11 -11z m-53
-183 c0 -38 -2 -40 -30 -41 -28 0 -30 2 -30 40 0 39 1 41 30 41 29 0 30 -2 30
-40z m130 0 c0 -38 -2 -40 -30 -40 -29 0 -30 1 -27 40 3 36 6 40 30 40 25 0
27 -3 27 -40z m-127 -129 c1 -11 2 -32 4 -46 3 -23 0 -25 -37 -25 -37 0 -40 2
-37 25 2 14 3 34 4 46 0 16 7 20 33 21 27 1 33 -3 33 -21z m130 0 c1 -11 2
-32 4 -46 3 -23 0 -25 -37 -25 -37 0 -40 2 -37 25 2 14 3 34 4 46 0 16 7 20
33 21 27 1 33 -3 33 -21z m216 -114 c-5 -58 -11 -63 -38 -29 -12 15 -27 27
-34 27 -9 0 -8 6 3 23 10 16 25 24 44 24 29 0 29 -1 25 -45z m224 13 c1 -11 2
-31 4 -44 3 -21 -1 -25 -27 -25 -26 -1 -30 2 -27 24 2 14 3 35 4 46 0 30 45
28 46 -1z"/>
<path d="M498 964 l-27 -14 29 -44 c17 -24 30 -49 30 -55 0 -6 5 -11 12 -11
20 0 78 24 78 32 0 19 -66 108 -80 107 -8 0 -27 -6 -42 -15z"/>
<path d="M397 314 c-3 -3 -42 -10 -107 -19 -14 -2 -55 -9 -92 -15 -46 -8 -73
-8 -86 -1 -10 5 -29 7 -41 4 -18 -5 -21 -11 -16 -31 3 -13 9 -37 12 -53 6 -29
8 -30 93 -13 46 9 141 22 218 28 42 4 43 6 48 59 4 35 2 44 -10 44 -9 0 -17
-2 -19 -3z"/>
</g>
</svg>
