<?xml version="1.0" standalone="no"?>
<!DOCTYPE svg PUBLIC "-//W3C//DTD SVG 20010904//EN"
 "http://www.w3.org/TR/2001/REC-SVG-20010904/DTD/svg10.dtd">
<svg version="1.0" xmlns="http://www.w3.org/2000/svg"
 width="101.000000pt" height="102.000000pt" viewBox="0 0 101.000000 102.000000"
 preserveAspectRatio="xMidYMid meet">
<metadata>
Created by potrace 1.16, written by Peter Selinger 2001-2019
</metadata>
<g transform="translate(0.000000,102.000000) scale(0.100000,-0.100000)"
fill="#000000" stroke="none">
<path d="M619 1008 c-10 -94 -15 -108 -42 -102 -54 13 -63 14 -75 6 -8 -5 -14
-20 -13 -33 4 -159 10 -259 16 -281 4 -17 1 -44 -8 -71 -8 -24 -13 -56 -10
-70 6 -28 36 -41 64 -26 20 10 36 10 187 2 80 -4 102 -8 98 -18 -3 -8 0 -27 7
-44 9 -25 9 -36 -1 -52 -8 -12 -15 -39 -17 -61 -6 -62 -37 -84 -84 -59 -10 6
-27 8 -37 5 -19 -5 -19 -7 6 -59 14 -30 33 -56 42 -58 17 -5 84 14 125 35 30
15 47 62 49 138 1 36 5 81 7 100 3 19 8 63 11 97 l6 63 -162 -1 c-227 -1 -204
-10 -212 79 -9 108 -7 172 4 172 6 0 10 11 10 25 0 26 12 30 69 25 13 -1 34 4
47 10 13 8 36 10 58 6 32 -6 36 -10 36 -37 0 -16 -7 -41 -16 -54 -9 -14 -14
-34 -11 -44 8 -33 -17 -58 -54 -53 l-32 5 26 14 c32 16 32 17 6 80 l-21 51
-36 -11 c-21 -6 -38 -12 -40 -13 -5 -3 32 -108 41 -115 4 -3 7 -10 5 -15 -1
-5 6 -23 15 -41 9 -18 17 -39 17 -48 0 -18 20 -19 75 -4 66 18 90 51 102 139
31 242 32 236 -42 225 -47 -6 -145 -11 -145 -7 0 1 9 21 20 43 l21 39 -25 9
c-13 6 -33 7 -45 4 -12 -3 -21 -1 -21 6 0 15 -20 14 -21 -1z"/>
<path d="M84 923 c-10 -10 -13 -24 -9 -37 8 -24 15 -219 15 -421 0 -38 1 -106
2 -150 1 -44 -2 -96 -6 -116 -7 -32 -6 -37 15 -42 12 -3 30 -2 40 4 11 5 79 7
167 4 l150 -6 5 27 c10 57 6 59 -121 61 -176 2 -162 -2 -160 49 3 49 4 51 37
28 23 -16 25 -16 42 7 10 13 33 50 50 82 29 54 32 57 44 39 8 -10 21 -38 31
-61 9 -23 19 -40 23 -39 3 2 23 12 44 23 20 10 37 22 37 25 0 4 -22 38 -48 76
-26 38 -47 78 -46 89 2 28 53 142 70 156 23 19 16 29 -33 50 -45 19 -47 19
-57 2 -6 -10 -11 -22 -11 -28 -1 -23 -28 -105 -35 -105 -4 0 -26 27 -49 60
-44 62 -51 66 -79 51 -15 -8 -17 -3 -17 37 l0 47 134 2 c146 3 153 6 149 58
l-3 30 -128 -3 c-72 -2 -133 1 -140 6 -20 16 -95 12 -113 -5z m155 -303 l53
-69 -31 -53 c-17 -29 -41 -66 -54 -81 l-23 -29 1 151 c0 83 0 151 1 151 0 0
24 -31 53 -70z"/>
<path d="M479 363 c-20 -5 -28 -31 -22 -67 5 -26 7 -26 57 -21 109 13 159 13
197 0 48 -17 65 -12 72 22 12 63 -15 79 -93 56 -32 -9 -62 -12 -78 -7 -15 4
-39 8 -53 9 -14 2 -34 5 -45 7 -10 3 -26 4 -35 1z"/>
</g>
</svg>
