<?xml version="1.0" standalone="no"?>
<!DOCTYPE svg PUBLIC "-//W3C//DTD SVG 20010904//EN"
 "http://www.w3.org/TR/2001/REC-SVG-20010904/DTD/svg10.dtd">
<svg version="1.0" xmlns="http://www.w3.org/2000/svg"
 width="101.000000pt" height="103.000000pt" viewBox="0 0 101.000000 103.000000"
 preserveAspectRatio="xMidYMid meet">
<metadata>
Created by potrace 1.16, written by Peter Selinger 2001-2019
</metadata>
<g transform="translate(0.000000,103.000000) scale(0.100000,-0.100000)"
fill="#000000" stroke="none">
<path d="M313 1017 c-23 -7 -44 -15 -47 -18 -3 -3 18 -34 47 -70 59 -71 60
-68 -31 -68 -18 0 -38 -4 -45 -8 -11 -7 -40 -10 -114 -13 -64 -2 -88 -33 -62
-81 8 -17 17 -19 52 -14 23 3 65 6 92 5 60 0 168 24 173 39 7 21 52 11 95 -21
23 -18 66 -44 95 -57 28 -14 52 -28 52 -33 0 -15 -89 -25 -178 -18 l-23 2 21
35 c11 19 20 38 20 42 0 5 -21 14 -47 20 -48 13 -60 7 -64 -29 -1 -8 -3 -19
-4 -25 -2 -5 -3 -18 -4 -27 -1 -12 -9 -16 -35 -14 -18 2 -38 6 -45 10 -7 5
-28 5 -46 2 -34 -7 -34 -7 -29 -49 9 -65 10 -228 1 -269 l-8 -36 38 5 c49 7
212 6 282 0 30 -3 63 -1 73 4 12 6 56 7 114 3 l95 -7 -6 -26 c-4 -14 -9 -44
-10 -65 -3 -52 -25 -67 -87 -61 -44 4 -62 -5 -38 -20 5 -3 14 -24 20 -46 11
-39 12 -40 48 -35 119 15 147 42 158 150 3 28 7 67 9 86 13 102 14 100 -47 99
-29 0 -62 0 -73 1 -11 1 -39 -2 -61 -5 -25 -4 -49 -3 -60 3 -18 10 -18 11 1
10 28 -2 92 30 100 50 7 18 15 73 17 129 2 31 3 31 42 26 92 -12 108 -4 137
65 11 24 19 45 19 47 0 8 -93 66 -97 61 -3 -3 -6 -20 -8 -38 -2 -32 -4 -33
-41 -30 -22 2 -52 5 -67 8 -32 5 -169 65 -163 71 2 2 23 6 47 8 24 2 60 6 79
9 60 9 114 15 135 16 33 0 94 22 99 36 3 7 0 26 -7 44 -12 33 -4 32 -107 14
-14 -2 -38 -6 -55 -9 -16 -3 -43 -5 -59 -5 -15 0 -36 -5 -45 -12 -9 -7 -6 -1
7 13 12 14 22 28 22 32 0 12 -121 68 -133 61 -20 -11 -57 -47 -57 -55 0 -4 10
-9 23 -13 12 -3 35 -16 50 -28 l28 -23 -28 -1 c-15 -1 -47 -4 -70 -7 -41 -5
-44 -4 -77 42 -19 26 -38 59 -41 74 -8 30 -11 30 -72 14z m299 -426 c47 -1 47
-1 43 -33 -5 -43 -30 -60 -74 -52 -31 6 -33 5 -26 -12 4 -10 13 -32 19 -49 6
-16 14 -33 19 -36 10 -7 -34 -10 -163 -10 -161 0 -146 -6 -154 63 -3 33 -2 68
4 78 5 10 7 26 3 35 -5 14 -2 16 13 11 10 -3 26 -1 34 4 8 5 65 8 125 6 61 -2
131 -5 157 -5z"/>
<path d="M355 540 l-27 -28 53 -27 c30 -15 62 -34 72 -43 16 -14 20 -13 47 13
17 16 30 32 30 37 0 8 -49 35 -112 61 -35 15 -37 15 -63 -13z"/>
<path d="M88 262 c-3 -10 -3 -32 -1 -49 5 -30 7 -31 42 -26 20 3 79 5 131 5
52 -1 124 -1 160 -1 36 0 111 0 166 -1 94 -1 102 1 107 20 3 11 3 29 0 40 -5
19 -13 21 -102 20 -53 -1 -125 -1 -161 -1 -36 0 -108 0 -160 -1 -52 0 -114 2
-136 6 -35 4 -43 2 -46 -12z"/>
</g>
</svg>
