<?xml version="1.0" standalone="no"?>
<!DOCTYPE svg PUBLIC "-//W3C//DTD SVG 20010904//EN"
 "http://www.w3.org/TR/2001/REC-SVG-20010904/DTD/svg10.dtd">
<svg version="1.0" xmlns="http://www.w3.org/2000/svg"
 width="101.000000pt" height="102.000000pt" viewBox="0 0 101.000000 102.000000"
 preserveAspectRatio="xMidYMid meet">
<metadata>
Created by potrace 1.16, written by Peter Selinger 2001-2019
</metadata>
<g transform="translate(0.000000,102.000000) scale(0.100000,-0.100000)"
fill="#000000" stroke="none">
<path d="M569 1009 c-1 -8 0 -28 1 -45 2 -39 -21 -60 -49 -44 -46 24 -103 -26
-73 -63 14 -16 14 -174 1 -183 -6 -3 -9 -54 -7 -125 4 -140 -4 -132 127 -126
53 2 86 8 89 15 5 15 72 16 72 1 0 -8 17 -10 51 -7 l50 5 -8 -26 c-4 -14 -8
-55 -9 -91 -1 -101 -2 -106 -29 -118 -14 -7 -49 -9 -80 -7 l-55 5 25 -46 c14
-26 25 -53 25 -61 0 -31 145 5 182 44 18 19 23 37 25 86 1 34 5 78 9 97 4 19
7 70 8 113 1 90 -7 100 -69 93 -22 -2 -102 -6 -178 -8 l-137 -3 -6 33 c-4 18
-1 45 5 60 5 15 9 71 8 125 l-3 97 43 0 c24 0 43 5 43 10 0 6 11 10 25 10 14
0 25 -5 25 -11 0 -7 18 -10 48 -7 l47 3 -1 -36 c-1 -20 -4 -41 -8 -47 -4 -6
-6 -27 -4 -46 1 -20 -1 -38 -5 -42 -4 -4 -32 -6 -62 -5 -30 1 -59 -1 -65 -4
-11 -7 39 -105 58 -112 19 -8 119 27 143 50 19 18 24 38 20 94 -2 20 4 40 14
49 13 13 15 34 14 100 -3 82 -3 83 -30 89 -15 4 -37 1 -49 -5 -20 -11 -160 -4
-160 8 0 3 12 20 26 39 14 19 23 37 20 40 -3 4 -31 8 -61 11 -42 3 -55 1 -56
-9z"/>
<path d="M86 736 c5 -248 5 -331 0 -423 -5 -90 -2 -95 62 -85 31 4 38 15 33
52 0 8 -3 31 -5 50 l-4 35 54 1 c43 0 53 -3 52 -15 -4 -58 12 -74 65 -64 25 5
25 7 25 99 0 51 -3 96 -8 99 -12 7 -12 153 0 160 5 3 9 63 9 135 l-1 129 -142
-1 -143 0 3 -172z m186 22 c-2 -46 1 -79 7 -83 14 -8 14 -52 1 -60 -7 -4 -9
-35 -6 -78 l4 -72 -53 0 -53 0 1 185 2 185 50 0 50 0 -3 -77z"/>
<path d="M602 793 c-18 -7 -32 -17 -30 -21 2 -4 14 -29 27 -55 24 -51 23 -51
89 -26 28 11 28 13 -5 65 -33 53 -39 55 -81 37z"/>
<path d="M409 363 c-20 -5 -28 -31 -22 -67 6 -31 17 -34 103 -20 84 13 161 13
199 -1 50 -17 78 -10 84 22 11 61 -18 81 -84 58 -43 -15 -170 -11 -246 8 -10
2 -25 3 -34 0z"/>
</g>
</svg>
