<?xml version="1.0" standalone="no"?>
<!DOCTYPE svg PUBLIC "-//W3C//DTD SVG 20010904//EN"
 "http://www.w3.org/TR/2001/REC-SVG-20010904/DTD/svg10.dtd">
<svg version="1.0" xmlns="http://www.w3.org/2000/svg"
 width="101.000000pt" height="101.000000pt" viewBox="0 0 101.000000 101.000000"
 preserveAspectRatio="xMidYMid meet">
<metadata>
Created by potrace 1.16, written by Peter Selinger 2001-2019
</metadata>
<g transform="translate(0.000000,101.000000) scale(0.100000,-0.100000)"
fill="#000000" stroke="none">
<path d="M270 978 c-6 -18 -14 -44 -16 -57 -10 -50 -20 -57 -72 -55 -27 0 -54
4 -60 8 -21 13 -52 -13 -52 -42 0 -37 13 -53 41 -53 64 1 74 0 81 -7 9 -9 -37
-110 -64 -139 -12 -13 -27 -23 -35 -23 -16 0 -16 -5 1 -55 13 -37 17 -40 53
-41 21 0 46 4 57 9 10 5 33 6 51 3 38 -8 36 1 38 -180 1 -147 -4 -156 -73
-150 -40 3 -49 -3 -30 -22 6 -6 12 -25 15 -43 2 -18 5 -35 7 -37 6 -5 100 21
126 35 25 13 24 5 28 136 5 161 2 152 30 111 13 -19 24 -37 24 -39 0 -3 7 -21
15 -41 l16 -37 33 20 c40 25 46 26 46 6 0 -12 9 -14 48 -9 69 9 163 9 193 0
23 -7 27 -4 31 19 3 15 3 36 1 46 -5 17 -11 19 -57 12 -56 -8 -84 -8 -163 1
-50 6 -53 6 -53 -16 0 -16 -13 -1 -40 49 -22 39 -45 75 -50 78 -6 3 -24 -3
-40 -15 l-30 -21 2 46 c2 34 6 44 16 40 7 -3 23 0 34 6 15 8 27 8 44 -2 30
-15 36 -10 37 36 1 40 -17 58 -48 48 -11 -3 -33 -7 -50 -9 -29 -2 -30 -1 -29
40 0 22 6 51 12 63 10 19 9 24 -6 32 -19 10 -54 15 -85 13 -15 -2 -16 -11 -13
-76 l5 -75 -40 2 c-45 1 -45 -3 4 109 27 61 36 72 53 70 12 -2 28 4 37 12 17
17 92 22 101 7 11 -16 46 -19 61 -4 32 31 4 103 -34 88 -9 -4 -46 -7 -83 -8
l-66 -2 14 35 c8 19 23 47 34 62 l20 27 -38 10 c-58 17 -69 14 -82 -21z"/>
<path d="M675 992 c-4 -9 -9 -27 -11 -39 -12 -60 -18 -65 -75 -67 l-54 -1 -3
-47 c-2 -29 1 -48 7 -48 6 0 11 -16 11 -35 0 -19 -5 -35 -11 -35 -7 0 -10 -36
-9 -102 0 -57 1 -114 1 -128 0 -82 -2 -80 43 -73 56 8 263 9 270 2 4 -3 2 -18
-3 -33 -7 -18 -7 -34 0 -50 15 -31 -6 -133 -29 -145 -9 -5 -36 -7 -59 -5 -32
3 -43 0 -43 -11 0 -7 4 -16 9 -20 5 -3 12 -19 16 -35 8 -35 19 -37 93 -15 79
24 87 42 97 220 2 39 6 86 10 105 6 39 8 71 3 75 -2 2 -29 -1 -61 -6 -32 -5
-95 -7 -140 -4 -45 3 -91 6 -102 6 -20 1 -21 8 -22 148 l-1 146 99 1 99 1 0
-67 c0 -38 3 -75 6 -83 9 -26 -22 -46 -66 -42 -45 4 -46 3 -25 -29 9 -13 15
-28 14 -32 -6 -37 22 -40 99 -9 58 23 73 60 71 175 -1 48 1 93 6 99 4 7 4 27
1 46 l-7 33 -94 -2 c-52 0 -95 1 -95 4 0 3 14 22 31 43 17 21 29 40 26 43 -3
3 -25 11 -50 19 -41 12 -46 12 -52 -3z"/>
<path d="M675 768 c-11 -6 -21 -12 -22 -13 -6 -4 36 -110 45 -113 6 -2 25 4
42 13 33 17 33 21 4 92 -15 35 -34 41 -69 21z"/>
<path d="M152 416 c-19 -41 -49 -92 -68 -114 -19 -22 -34 -43 -34 -46 0 -3 17
-13 38 -23 20 -9 40 -19 44 -21 4 -2 28 38 53 88 26 51 57 103 71 117 13 13
24 25 24 27 0 3 -86 46 -92 46 -2 0 -18 -33 -36 -74z"/>
</g>
</svg>
