<?xml version="1.0" standalone="no"?>
<!DOCTYPE svg PUBLIC "-//W3C//DTD SVG 20010904//EN"
 "http://www.w3.org/TR/2001/REC-SVG-20010904/DTD/svg10.dtd">
<svg version="1.0" xmlns="http://www.w3.org/2000/svg"
 width="101.000000pt" height="102.000000pt" viewBox="0 0 101.000000 102.000000"
 preserveAspectRatio="xMidYMid meet">
<metadata>
Created by potrace 1.16, written by Peter Selinger 2001-2019
</metadata>
<g transform="translate(0.000000,102.000000) scale(0.100000,-0.100000)"
fill="#000000" stroke="none">
<path d="M610 1002 c0 -11 -5 -24 -11 -27 -5 -4 -9 -18 -7 -32 3 -23 0 -25
-45 -27 -27 -1 -51 -6 -55 -12 -4 -6 -46 -10 -99 -10 l-91 1 3 40 c2 22 6 47
9 55 5 12 -4 15 -53 15 l-58 0 -1 -50 c0 -27 4 -60 10 -72 6 -13 8 -46 4 -85
l-7 -63 -47 3 c-74 4 -84 -12 -67 -108 13 -75 15 -197 4 -240 -6 -25 -13 -62
-15 -84 -2 -21 -15 -63 -29 -93 -14 -31 -25 -59 -25 -63 0 -4 19 -20 41 -35
33 -21 43 -24 50 -13 13 19 52 139 56 168 1 14 5 45 8 70 3 25 6 52 6 61 0 10
9 17 22 18 12 0 54 3 92 6 39 3 83 0 99 -5 34 -12 38 -9 37 22 0 13 -1 84 -1
159 l-1 137 -72 -1 -72 -1 -3 32 c-3 31 -2 32 32 32 20 0 36 5 36 11 0 8 18
10 55 7 57 -5 65 1 65 44 0 12 3 18 7 14 4 -3 6 -44 5 -90 -2 -50 2 -87 8 -91
13 -8 13 -52 0 -60 -6 -4 -9 -36 -6 -78 2 -40 0 -81 -4 -93 -16 -41 5 -51 80
-39 65 11 175 16 217 10 l41 -6 -4 -52 c-2 -29 -5 -73 -7 -99 -5 -70 -27 -90
-94 -84 -29 2 -53 3 -53 1 0 -1 7 -19 15 -39 8 -19 15 -39 14 -43 -6 -36 17
-39 111 -14 79 21 102 52 106 146 5 90 11 174 18 227 l6 48 -32 -7 c-29 -6
-235 -8 -295 -3 -28 3 -41 56 -24 98 5 15 9 70 8 122 l-2 95 101 3 c91 2 101
1 99 -15 0 -10 -4 -23 -8 -30 -4 -6 -6 -36 -6 -67 2 -70 -10 -86 -62 -81 -44
4 -45 3 -23 -30 9 -13 13 -28 10 -34 -3 -5 -3 -16 0 -25 7 -18 56 -17 106 3
32 12 68 65 69 101 0 14 2 52 5 85 2 33 6 88 8 122 l5 62 -108 -2 -109 -2 5
25 c2 13 9 30 15 38 16 19 -2 33 -51 39 -37 5 -41 3 -41 -15z m-299 -348 c40
-7 40 -7 41 -97 0 -26 -2 -50 -5 -53 -3 -3 -29 -5 -58 -5 -97 -1 -97 0 -104
41 -4 22 -2 47 4 59 6 11 8 27 4 36 -5 14 -2 16 13 11 10 -3 26 -1 34 4 18 11
23 12 71 4z"/>
<path d="M639 787 c-14 -8 -13 -16 5 -69 l21 -59 35 6 c19 4 38 9 41 11 10 6
4 36 -17 81 -15 33 -24 41 -44 41 -14 -1 -32 -5 -41 -11z"/>
<path d="M379 353 c-35 -9 -31 -87 4 -97 11 -3 28 -1 38 5 11 5 81 7 172 4
l155 -6 5 27 c8 45 -2 62 -41 67 -21 2 -47 0 -59 -4 -41 -15 -174 -13 -240 4
-10 2 -25 3 -34 0z"/>
</g>
</svg>
