<?xml version="1.0" standalone="no"?>
<!DOCTYPE svg PUBLIC "-//W3C//DTD SVG 20010904//EN"
 "http://www.w3.org/TR/2001/REC-SVG-20010904/DTD/svg10.dtd">
<svg version="1.0" xmlns="http://www.w3.org/2000/svg"
 width="101.000000pt" height="101.000000pt" viewBox="0 0 101.000000 101.000000"
 preserveAspectRatio="xMidYMid meet">
<metadata>
Created by potrace 1.16, written by Peter Selinger 2001-2019
</metadata>
<g transform="translate(0.000000,101.000000) scale(0.100000,-0.100000)"
fill="#000000" stroke="none">
<path d="M217 994 c-3 -3 -4 -11 -1 -18 2 -6 -4 -27 -13 -46 -16 -32 -22 -35
-61 -36 -42 -1 -67 -18 -55 -37 3 -5 5 -59 4 -120 0 -68 3 -115 10 -124 11
-12 6 -131 -7 -175 -5 -15 0 -17 38 -12 90 11 165 14 226 8 51 -5 62 -9 58
-21 -3 -8 -1 -23 5 -35 8 -15 7 -28 -5 -53 -9 -18 -13 -40 -10 -48 6 -16 -12
-57 -30 -69 -6 -4 -35 -5 -64 -2 l-53 5 21 -40 c11 -22 20 -47 20 -54 0 -22
35 -27 84 -12 102 31 108 43 121 240 3 33 7 76 10 95 6 40 8 71 3 75 -2 2 -29
-1 -61 -6 -32 -5 -95 -7 -140 -4 -45 3 -92 6 -103 6 -18 1 -22 9 -28 56 -4 35
-2 60 4 68 7 8 10 44 8 88 l-3 75 65 6 c123 11 115 16 118 -62 3 -83 -14 -109
-72 -107 -23 1 -35 -2 -32 -9 3 -6 10 -28 17 -48 14 -44 29 -48 88 -29 55 18
82 58 80 121 -1 25 2 84 6 132 l8 87 -36 -6 c-21 -3 -43 -1 -50 6 -8 6 -35 10
-60 8 -26 -1 -47 -2 -47 -2 0 1 11 16 25 35 14 19 25 37 25 41 0 4 -20 12 -44
18 -51 13 -60 13 -69 5z"/>
<path d="M676 974 c-22 -8 -41 -16 -43 -18 -3 -2 5 -22 16 -45 12 -22 21 -43
21 -47 0 -3 -33 -3 -72 0 -41 4 -79 2 -87 -3 -18 -12 -27 -162 -11 -191 8 -14
21 -20 45 -20 33 0 35 -2 35 -35 0 -19 5 -35 10 -35 15 0 12 -67 -2 -74 -10
-5 -10 -7 0 -12 15 -7 17 -164 2 -164 -5 0 -10 -18 -10 -40 0 -23 5 -40 11
-40 8 0 10 -15 7 -43 -3 -23 -2 -51 2 -61 7 -21 86 -50 104 -38 6 4 46 7 88 7
89 0 117 17 137 86 7 23 15 47 18 55 3 9 -2 14 -14 14 -11 0 -34 11 -53 25
-18 14 -35 23 -37 21 -2 -2 -6 -23 -8 -46 -5 -54 -30 -84 -65 -75 -14 3 -37 7
-53 9 -15 1 -29 5 -32 8 -3 2 -5 31 -5 64 -1 119 -7 109 94 168 50 29 100 55
110 57 34 7 28 25 -20 64 -38 32 -48 36 -55 23 -9 -16 -111 -98 -122 -98 -7 0
0 134 8 161 6 19 -18 38 -45 37 -54 -3 -59 0 -57 45 l2 42 48 -4 c27 -1 54 2
60 8 14 14 54 14 63 0 3 -6 19 -9 34 -5 26 5 28 2 32 -29 2 -19 0 -39 -4 -43
-26 -26 28 -60 76 -48 23 6 24 9 24 110 l1 105 -79 -2 -78 -2 -19 59 c-10 33
-23 61 -28 62 -6 1 -28 -4 -49 -12z"/>
<path d="M247 777 c-30 -10 -32 -21 -13 -96 8 -33 9 -34 55 -21 46 12 47 17
26 82 -17 47 -23 50 -68 35z"/>
<path d="M339 376 c-2 -3 -24 -7 -48 -10 -23 -3 -49 -10 -57 -17 -11 -9 -21
-9 -39 -1 -16 7 -34 8 -48 3 -12 -5 -42 -7 -65 -5 l-43 4 7 -33 c6 -28 9 -47
13 -79 1 -4 13 -3 28 3 15 5 45 12 67 15 23 2 52 6 66 9 14 2 50 6 80 10 30 3
59 10 63 14 4 4 10 27 12 50 3 34 1 41 -14 41 -10 0 -20 -2 -22 -4z"/>
</g>
</svg>
