<?xml version="1.0" standalone="no"?>
<!DOCTYPE svg PUBLIC "-//W3C//DTD SVG 20010904//EN"
 "http://www.w3.org/TR/2001/REC-SVG-20010904/DTD/svg10.dtd">
<svg version="1.0" xmlns="http://www.w3.org/2000/svg"
 width="101.000000pt" height="102.000000pt" viewBox="0 0 101.000000 102.000000"
 preserveAspectRatio="xMidYMid meet">
<metadata>
Created by potrace 1.16, written by Peter Selinger 2001-2019
</metadata>
<g transform="translate(0.000000,102.000000) scale(0.100000,-0.100000)"
fill="#000000" stroke="none">
<path d="M609 1008 c-8 -83 -14 -99 -34 -92 -8 4 -30 3 -49 0 l-33 -6 -2 -64
c-1 -36 3 -67 9 -71 12 -8 12 -146 -1 -161 -10 -12 -7 -179 3 -190 8 -8 42 -7
88 2 46 8 237 11 244 3 4 -3 2 -18 -3 -33 -7 -18 -7 -34 1 -51 8 -18 8 -36 -3
-72 -7 -26 -11 -48 -8 -49 2 0 -2 -8 -10 -17 -9 -11 -27 -16 -57 -15 -53 3
-60 -3 -39 -35 8 -14 15 -29 14 -33 -7 -40 25 -48 94 -23 53 19 86 48 88 78 1
9 3 34 5 56 2 22 6 76 8 120 2 44 7 98 10 120 l5 41 -47 -2 c-27 0 -64 -6 -83
-13 -20 -6 -65 -9 -109 -6 -41 3 -86 6 -99 6 -21 1 -23 4 -17 37 3 21 6 92 6
160 l0 122 25 0 c14 0 25 5 25 10 0 7 29 10 78 8 l77 -3 -3 -45 c-5 -94 -12
-144 -22 -154 -5 -5 -26 -10 -46 -9 -29 1 -34 -2 -28 -15 4 -10 12 -32 18 -50
10 -31 13 -33 45 -27 69 13 99 35 116 87 8 26 15 65 14 86 -1 20 1 76 5 124
l6 87 -109 -2 c-118 -2 -122 0 -89 52 11 18 11 23 -2 31 -8 5 -27 6 -42 3 -17
-3 -28 -1 -28 6 0 15 -20 14 -21 -1z"/>
<path d="M372 949 c-33 -13 -73 -21 -101 -20 -12 1 -28 -2 -33 -5 -10 -6 -72
-12 -132 -13 -16 0 -37 -3 -46 -6 -17 -5 -17 -8 2 -43 21 -37 21 -37 84 -37
l63 0 3 -60 3 -61 -30 3 c-16 1 -43 5 -60 9 -47 9 -85 -10 -85 -43 0 -16 4
-33 8 -39 12 -18 42 -24 63 -13 11 6 39 7 63 4 36 -6 44 -11 45 -28 0 -12 2
-38 3 -57 3 -32 1 -35 -22 -33 -65 6 -90 6 -96 1 -8 -9 -8 -43 1 -93 10 -58
11 -223 2 -271 -9 -47 2 -55 60 -47 31 5 32 6 28 55 -3 41 -1 49 11 44 9 -3
24 -1 35 5 12 6 37 8 58 4 34 -6 38 -9 38 -36 0 -38 6 -44 55 -42 52 2 60 15
42 66 -14 40 -14 150 1 237 7 45 7 71 1 78 -6 5 -27 5 -96 0 -34 -3 -35 -2
-32 32 1 19 3 45 3 56 1 23 9 25 107 25 47 0 52 2 54 22 2 39 -2 61 -15 69
-15 9 -81 10 -90 1 -4 -3 -18 -7 -32 -8 -25 -1 -25 0 -22 70 1 40 7 72 12 73
6 0 35 3 64 6 63 7 91 14 91 24 0 14 -62 82 -73 81 -7 0 -22 -4 -35 -10z m-61
-515 c40 -7 40 -7 41 -97 0 -26 -2 -50 -5 -53 -3 -3 -29 -5 -58 -5 -97 -1 -97
0 -104 41 -4 22 -2 47 4 59 6 11 8 27 4 36 -5 14 -2 16 13 11 10 -3 26 -1 34
4 18 11 23 12 71 4z"/>
<path d="M634 785 c-14 -9 -14 -16 -5 -33 7 -12 13 -38 15 -57 3 -45 7 -48 55
-40 48 8 51 22 22 95 -15 37 -23 45 -45 46 -14 1 -34 -4 -42 -11z"/>
<path d="M479 353 c-20 -5 -28 -31 -22 -67 5 -25 8 -26 52 -20 71 9 223 10
252 1 23 -8 27 -5 31 18 12 61 9 63 -135 61 -73 0 -139 2 -147 5 -8 4 -22 5
-31 2z"/>
</g>
</svg>
