<?xml version="1.0" standalone="no"?>
<!DOCTYPE svg PUBLIC "-//W3C//DTD SVG 20010904//EN"
 "http://www.w3.org/TR/2001/REC-SVG-20010904/DTD/svg10.dtd">
<svg version="1.0" xmlns="http://www.w3.org/2000/svg"
 width="101.000000pt" height="101.000000pt" viewBox="0 0 101.000000 101.000000"
 preserveAspectRatio="xMidYMid meet">
<metadata>
Created by potrace 1.16, written by Peter Selinger 2001-2019
</metadata>
<g transform="translate(0.000000,101.000000) scale(0.100000,-0.100000)"
fill="#000000" stroke="none">
<path d="M649 1003 c-1 -5 -2 -15 -3 -23 -1 -8 -8 -29 -15 -47 -11 -28 -16
-31 -41 -26 -26 5 -29 2 -34 -28 -3 -19 -3 -95 0 -169 2 -74 5 -168 5 -207 1
-85 -2 -83 104 -67 128 19 182 13 184 -19 0 -12 3 -52 6 -88 6 -88 -16 -135
-60 -131 -81 7 -96 3 -76 -22 10 -12 16 -36 20 -78 2 -21 132 17 166 48 25 23
25 24 20 159 -3 79 -1 143 4 154 12 22 4 58 -15 65 -7 3 -32 -1 -54 -9 -27
-10 -64 -13 -108 -10 -37 3 -76 6 -88 6 -20 1 -20 6 -17 113 5 150 4 147 37
94 l30 -46 33 16 c18 9 33 21 33 27 0 6 -14 30 -31 53 -30 41 -31 42 -59 27
-37 -19 -40 -19 -40 4 0 17 9 20 73 23 l72 3 -2 -84 c-1 -45 -4 -86 -8 -89 -3
-3 -21 -5 -40 -4 -43 3 -48 -6 -28 -57 19 -47 35 -51 100 -22 59 27 64 42 56
170 -4 75 -3 111 4 111 14 0 24 26 17 44 -4 12 -25 14 -95 13 -49 -1 -89 0
-89 3 0 3 9 20 20 38 11 18 20 34 20 37 0 5 -70 25 -87 25 -7 0 -13 -3 -14 -7z"/>
<path d="M130 953 c-8 -3 -18 -11 -22 -17 -10 -15 3 -140 15 -148 12 -7 1
-215 -13 -253 -6 -17 -6 -33 2 -49 8 -19 7 -37 -2 -73 -7 -26 -14 -64 -17 -83
-2 -19 -19 -66 -38 -104 -19 -38 -34 -70 -32 -71 1 0 16 -5 32 -11 17 -7 37
-15 46 -18 13 -6 21 9 44 76 15 46 29 94 31 108 9 60 14 120 18 213 3 55 7
101 10 104 2 3 1 15 -3 27 -9 21 -8 21 160 21 l168 0 -1 136 0 137 -42 5 c-34
5 -86 3 -131 -4 -5 -1 -55 1 -110 4 -55 4 -107 4 -115 0z m158 -136 l2 -52
-50 0 -50 0 2 45 3 45 45 6 c25 3 45 7 45 7 0 1 1 -22 3 -51z m148 -2 l1 -50
-36 0 -36 -1 0 51 0 51 35 -1 35 0 1 -50z"/>
<path d="M223 632 c-14 -9 -15 -142 -1 -159 9 -11 4 -239 -8 -319 -5 -35 -3
-42 14 -46 11 -3 32 -3 46 -1 25 5 31 17 28 57 -2 13 2 16 14 12 8 -3 25 -1
36 5 11 6 35 8 55 4 30 -5 34 -9 29 -29 -7 -27 14 -37 57 -29 23 4 24 8 20 44
-4 25 -2 39 6 39 6 0 11 15 11 34 0 28 4 34 23 34 12 0 40 3 62 7 59 10 94 10
146 2 45 -8 47 -7 52 19 2 14 2 35 -1 46 -4 16 -10 18 -31 12 -30 -9 -133 -9
-203 0 -51 7 -54 4 -49 -51 1 -13 -3 -23 -9 -23 -15 0 -13 157 3 164 10 5 10
7 0 12 -16 7 -17 74 -2 74 6 0 9 17 7 43 l-3 42 -61 -3 c-35 -2 -65 1 -68 7
-7 11 -155 14 -173 3z m193 -68 c15 -4 21 -14 21 -35 0 -24 -5 -30 -33 -35
-17 -3 -41 -1 -52 5 -11 6 -27 9 -35 6 -10 -4 -14 3 -14 25 0 23 4 29 16 25 9
-2 23 0 31 5 17 11 36 12 66 4z m0 -130 c15 -4 21 -14 21 -35 0 -24 -5 -30
-33 -35 -17 -3 -41 -1 -52 5 -11 6 -27 9 -35 6 -10 -4 -14 3 -14 25 0 23 4 29
16 25 9 -2 23 0 31 5 17 11 36 12 66 4z m0 -130 c15 -4 21 -14 21 -35 0 -24
-5 -30 -33 -35 -17 -3 -41 -1 -52 5 -11 6 -27 9 -35 6 -10 -4 -14 3 -14 25 0
23 4 29 16 25 9 -2 23 0 31 5 17 11 36 12 66 4z"/>
</g>
</svg>
