<?xml version="1.0" standalone="no"?>
<!DOCTYPE svg PUBLIC "-//W3C//DTD SVG 20010904//EN"
 "http://www.w3.org/TR/2001/REC-SVG-20010904/DTD/svg10.dtd">
<svg version="1.0" xmlns="http://www.w3.org/2000/svg"
 width="101.000000pt" height="101.000000pt" viewBox="0 0 101.000000 101.000000"
 preserveAspectRatio="xMidYMid meet">
<metadata>
Created by potrace 1.16, written by Peter Selinger 2001-2019
</metadata>
<g transform="translate(0.000000,101.000000) scale(0.100000,-0.100000)"
fill="#000000" stroke="none">
<path d="M655 978 c-11 -44 -12 -51 -14 -65 -1 -11 -46 -11 -58 0 -3 4 -15 2
-25 -4 -18 -10 -20 -18 -14 -67 3 -32 6 -109 6 -172 0 -63 0 -126 1 -140 0
-14 1 -44 1 -67 0 -33 5 -42 21 -47 11 -3 27 -1 36 3 19 10 142 13 193 5 l36
-5 -4 -52 c-2 -29 -6 -71 -7 -95 -4 -48 -15 -63 -43 -62 -52 2 -76 2 -80 -3
-3 -3 2 -19 10 -36 9 -17 16 -34 15 -38 -7 -40 23 -46 101 -21 54 18 64 25 77
56 8 20 17 68 18 107 2 38 7 90 10 115 9 66 10 109 3 116 -4 3 -22 1 -41 -5
-21 -7 -69 -10 -123 -6 -49 3 -98 6 -109 6 -20 1 -21 7 -20 163 l0 161 86 2
86 2 -4 -42 c-3 -23 -4 -60 -4 -82 0 -51 -11 -69 -46 -71 -56 -3 -55 -2 -38
-34 9 -17 14 -34 11 -38 -3 -4 -1 -14 3 -20 12 -19 110 17 133 48 19 26 28 74
32 170 2 30 6 65 10 78 4 13 5 34 2 47 -6 23 -9 24 -100 22 l-94 -2 15 35 c8
19 17 40 19 46 3 6 -9 14 -27 18 -57 11 -66 8 -74 -26z"/>
<path d="M76 945 c-11 -11 -15 -40 -15 -117 0 -57 3 -109 8 -116 5 -8 19 -13
32 -12 13 1 60 2 104 2 46 1 83 6 88 12 5 8 10 7 16 -2 4 -8 19 -13 32 -12 13
1 61 2 106 2 l82 1 -2 118 c-1 64 -4 120 -7 122 -3 3 -50 7 -105 9 l-100 3 -1
-102 c0 -57 -4 -106 -7 -109 -14 -14 -23 41 -16 99 4 34 5 72 2 85 -5 22 -8
22 -78 16 -49 -4 -74 -3 -79 5 -10 16 -42 14 -60 -4z m142 -119 c-3 -50 -3
-51 -33 -48 -16 2 -31 5 -33 6 -1 2 1 23 4 47 6 40 9 44 36 45 29 1 29 1 26
-50z m227 2 c0 -50 -2 -53 -25 -53 -24 0 -25 3 -22 47 3 39 8 48 25 51 12 2
22 5 22 6 0 0 0 -23 0 -51z"/>
<path d="M665 790 c-3 -4 2 -24 10 -44 9 -20 13 -41 10 -46 -13 -21 14 -47 45
-45 48 3 52 14 32 81 -17 58 -19 59 -55 61 -20 0 -39 -3 -42 -7z"/>
<path d="M77 641 c-2 -11 -2 -31 0 -45 5 -26 7 -26 57 -21 121 14 223 15 273
2 57 -15 72 -11 74 18 6 57 12 55 -158 53 -87 -1 -177 2 -199 5 -35 5 -43 3
-47 -12z"/>
<path d="M59 533 c-20 -5 -29 -34 -22 -63 7 -25 26 -28 101 -16 42 6 42 6 37
-21 -3 -16 -7 -41 -10 -58 -3 -16 -8 -38 -11 -47 -4 -14 1 -16 33 -11 40 6
165 5 171 -1 2 -2 -2 -23 -8 -46 -13 -48 -33 -59 -103 -53 -37 3 -48 1 -43 -9
3 -7 11 -32 18 -56 12 -41 13 -42 48 -38 133 18 162 49 184 206 2 14 4 30 6
35 11 45 -33 64 -89 37 -27 -12 -39 -13 -63 -4 -16 6 -36 8 -45 5 -13 -5 -13
-3 -4 15 6 11 8 28 4 38 -5 13 -3 16 10 11 8 -3 28 -1 44 5 22 8 41 7 79 -4
92 -27 142 -7 127 51 -5 21 -5 21 -163 20 -36 0 -108 -1 -160 -2 -52 0 -102 2
-110 5 -8 3 -22 4 -31 1z"/>
<path d="M519 363 c-20 -5 -28 -31 -22 -66 4 -23 9 -25 41 -20 58 8 194 7 233
-1 34 -8 37 -6 41 19 12 60 8 62 -125 61 -67 -1 -129 2 -137 5 -8 4 -22 5 -31
2z"/>
</g>
</svg>
