<?xml version="1.0" standalone="no"?>
<!DOCTYPE svg PUBLIC "-//W3C//DTD SVG 20010904//EN"
 "http://www.w3.org/TR/2001/REC-SVG-20010904/DTD/svg10.dtd">
<svg version="1.0" xmlns="http://www.w3.org/2000/svg"
 width="101.000000pt" height="102.000000pt" viewBox="0 0 101.000000 102.000000"
 preserveAspectRatio="xMidYMid meet">
<metadata>
Created by potrace 1.16, written by Peter Selinger 2001-2019
</metadata>
<g transform="translate(0.000000,102.000000) scale(0.100000,-0.100000)"
fill="#000000" stroke="none">
<path d="M601 978 c-13 -46 -75 -144 -94 -150 -7 -3 -34 -3 -60 0 l-48 4 38
29 c21 16 43 29 50 29 16 0 26 35 18 61 -7 21 -11 21 -106 14 -69 -4 -99 -3
-99 4 0 6 -18 11 -40 11 -22 0 -40 -5 -40 -11 0 -7 -21 -10 -60 -7 -54 3 -60
1 -65 -19 -3 -12 -3 -28 0 -36 7 -16 71 -22 80 -7 7 12 52 13 59 2 3 -5 -9
-17 -26 -27 l-31 -18 24 -18 c24 -18 23 -18 -47 -12 -58 5 -73 3 -87 -11 -22
-22 -22 -40 0 -62 14 -13 29 -15 82 -11 l66 5 -39 -34 c-33 -28 -79 -51 -145
-70 -10 -3 -5 -14 19 -39 19 -19 38 -35 43 -35 4 0 27 13 50 28 68 46 74 46
90 -1 14 -42 14 -42 -10 -43 -31 -2 -35 -7 -33 -36 1 -13 2 -74 3 -135 2 -129
-3 -124 97 -107 32 6 139 7 285 4 33 -1 75 1 92 5 18 4 48 4 67 1 32 -6 34 -8
32 -46 -3 -49 -11 -58 -57 -64 -34 -4 -36 -3 -36 25 0 16 -2 31 -5 34 -3 3
-26 0 -52 -7 -35 -9 -54 -9 -78 -1 -18 7 -55 9 -83 6 -72 -7 -233 -6 -280 2
-50 9 -84 9 -93 1 -7 -8 -6 -75 1 -83 3 -3 16 -4 29 -4 13 1 68 2 123 2 105 0
182 0 303 1 114 0 142 -8 149 -42 5 -27 8 -29 42 -26 54 6 100 26 112 48 10
19 16 49 23 128 2 19 5 40 6 45 9 38 1 42 -82 43 -46 0 -94 1 -108 3 -24 2
-24 2 7 15 50 21 65 50 77 151 5 41 -16 49 -67 28 -27 -11 -58 -14 -114 -10
-43 3 -88 6 -100 6 -27 1 -28 7 -7 37 9 13 14 24 13 26 -16 10 -64 26 -79 26
-22 0 -44 -34 -36 -55 2 -7 -1 -21 -9 -32 -12 -16 -17 -16 -45 -6 -17 6 -39
10 -48 7 -9 -3 8 8 38 23 47 24 56 33 64 66 10 38 31 48 53 26 21 -21 49 1 78
61 16 33 32 60 35 60 12 0 54 -46 73 -79 l18 -31 -28 -11 c-15 -6 -37 -12 -48
-14 -11 -1 -32 -6 -47 -10 l-28 -7 25 -30 c14 -16 25 -34 25 -40 0 -15 45 -2
114 33 42 22 61 27 71 19 20 -17 175 -71 186 -65 5 4 9 11 9 17 0 5 9 23 21
40 24 34 20 41 -24 45 -158 15 -150 8 -107 96 30 63 38 73 57 69 58 -11 91 19
78 71 l-7 25 -133 -1 c-144 -2 -140 -5 -92 50 24 27 16 39 -31 53 -55 15 -58
14 -71 -32z m-258 -110 l-32 -32 -25 27 -24 26 41 4 c23 2 49 4 57 5 8 1 1
-11 -17 -30z m397 -61 c0 -6 -11 -30 -24 -51 l-24 -40 -21 35 c-11 18 -22 38
-24 43 -2 5 -16 5 -35 -2 -28 -10 -30 -9 -21 6 14 21 149 30 149 9z m-310 -65
c0 -10 -36 -48 -44 -48 -5 1 -10 13 -10 27 -1 22 3 26 26 25 16 -1 28 -3 28
-4z m-142 -88 c-7 -10 -21 -11 -62 -5 -6 0 6 17 25 37 l34 35 6 -28 c3 -15 2
-33 -3 -39z m117 -183 l40 -7 -32 -8 c-18 -4 -35 -11 -37 -14 -2 -4 11 -25 29
-47 l34 -39 36 17 c36 17 36 18 21 40 -36 50 -37 55 -13 56 73 6 167 5 173 -1
15 -15 -17 -35 -51 -32 -19 1 -35 1 -35 -1 0 -3 8 -20 17 -40 9 -19 14 -38 10
-41 -6 -7 -251 -9 -302 -3 -28 4 -30 7 -27 39 1 19 3 45 3 58 1 16 6 21 18 18
9 -3 23 -1 31 4 18 11 31 12 85 1z"/>
</g>
</svg>
