<?xml version="1.0" standalone="no"?>
<!DOCTYPE svg PUBLIC "-//W3C//DTD SVG 20010904//EN"
 "http://www.w3.org/TR/2001/REC-SVG-20010904/DTD/svg10.dtd">
<svg version="1.0" xmlns="http://www.w3.org/2000/svg"
 width="101.000000pt" height="102.000000pt" viewBox="0 0 101.000000 102.000000"
 preserveAspectRatio="xMidYMid meet">
<metadata>
Created by potrace 1.16, written by Peter Selinger 2001-2019
</metadata>
<g transform="translate(0.000000,102.000000) scale(0.100000,-0.100000)"
fill="#000000" stroke="none">
<path d="M298 1013 c-16 -4 -33 -53 -28 -78 6 -29 -3 -32 -79 -29 -44 2 -83 4
-88 5 -23 4 -32 -4 -38 -30 -8 -38 10 -75 33 -66 9 4 49 7 88 8 l72 2 -21 -36
-21 -37 -37 30 -38 30 -30 -23 c-16 -13 -30 -27 -30 -30 -1 -4 17 -19 40 -35
l41 -28 -28 -24 c-16 -13 -47 -32 -69 -44 -22 -11 -42 -22 -43 -24 -6 -5 52
-74 62 -74 6 0 20 9 32 21 l22 21 2 -24 c1 -13 2 -61 2 -108 1 -94 2 -95 70
-76 37 11 66 -1 68 -27 5 -65 1 -118 -9 -131 -7 -8 -26 -12 -51 -10 l-40 3 15
-30 c9 -16 14 -33 11 -37 -9 -14 12 -36 36 -37 28 -3 107 33 110 49 0 6 2 47
4 91 5 140 -6 126 97 127 48 0 48 1 41 27 -7 22 -8 92 -3 181 1 24 1 24 15 6
13 -19 15 -19 41 5 20 18 25 20 20 6 -4 -9 -1 -28 5 -42 8 -19 7 -31 -6 -59
-24 -52 -14 -67 43 -60 62 9 238 10 245 3 4 -3 2 -18 -3 -33 -7 -18 -7 -34 1
-51 9 -19 8 -35 -3 -67 -8 -24 -13 -46 -12 -50 6 -16 -46 -40 -69 -32 -20 7
-48 7 -55 0 -2 -1 6 -20 17 -41 11 -22 20 -45 20 -51 0 -27 66 -17 140 21 37
19 43 36 47 130 3 90 10 192 14 215 7 42 1 48 -42 39 -23 -5 -80 -7 -128 -4
-47 3 -95 6 -106 6 -19 1 -20 8 -20 149 l0 148 65 6 c111 10 105 12 103 -41
-4 -69 -11 -121 -18 -132 -3 -6 -24 -9 -46 -7 -38 3 -40 2 -34 -18 4 -11 8
-33 9 -49 4 -37 9 -40 54 -32 100 17 128 68 136 252 l6 112 -43 6 c-23 3 -67
5 -98 3 -55 -3 -56 -3 -48 19 4 12 14 31 21 42 16 26 6 35 -37 34 -19 -1 -35
3 -35 8 0 5 -4 9 -9 9 -11 0 -33 -52 -31 -71 6 -38 0 -44 -41 -45 -53 0 -74
-28 -44 -58 16 -15 21 -106 9 -165 l-6 -31 -42 32 c-22 18 -43 34 -46 36 -3 2
8 14 24 27 33 26 30 37 -15 55 -30 13 -33 12 -51 -13 l-19 -27 -40 23 c-43 25
-51 40 -15 31 14 -3 29 0 39 10 18 19 88 21 104 5 9 -9 13 -6 18 14 15 56 7
62 -83 62 -69 0 -81 2 -76 15 12 29 24 74 20 77 -2 2 -12 5 -22 7 -11 3 -26 6
-34 9 -8 3 -23 3 -32 0z m57 -303 c68 -47 68 -48 -25 -50 -97 -1 -95 -3 -58
40 18 21 34 39 36 39 2 1 23 -13 47 -29z m26 -120 c22 0 27 -4 25 -24 -1 -21
-7 -24 -59 -30 -33 -3 -67 -1 -77 4 -10 5 -25 8 -32 5 -8 -3 -14 4 -14 20 -2
20 2 24 15 21 9 -3 23 -1 31 5 8 5 31 7 50 4 19 -2 47 -5 61 -5z m0 -110 c22
0 27 -4 25 -24 -1 -21 -7 -24 -59 -30 -33 -3 -67 -1 -77 4 -10 5 -25 8 -32 5
-8 -3 -14 4 -14 20 -2 20 2 24 15 21 9 -3 23 -1 31 5 8 5 31 7 50 4 19 -2 47
-5 61 -5z"/>
<path d="M713 789 c-19 -7 -23 -16 -23 -53 0 -59 19 -79 60 -63 38 14 43 32
26 81 -14 42 -27 49 -63 35z"/>
<path d="M539 363 c-20 -5 -28 -31 -22 -67 5 -25 19 -32 53 -27 8 1 24 4 35 5
11 1 32 6 46 10 16 5 50 2 83 -7 30 -7 60 -11 67 -7 15 10 16 80 0 89 -7 5
-35 2 -63 -6 -30 -9 -60 -12 -76 -7 -15 4 -36 8 -47 9 -11 1 -29 4 -40 7 -11
3 -27 4 -36 1z"/>
<path d="M115 267 c-27 -40 -51 -75 -53 -78 -1 -3 14 -13 34 -22 41 -20 37
-23 94 65 17 25 37 49 45 52 25 9 17 23 -25 40 -22 9 -41 16 -43 16 -1 -1 -24
-33 -52 -73z"/>
<path d="M396 319 l-27 -21 33 -36 c18 -21 42 -50 54 -66 22 -30 29 -29 79 9
18 15 17 17 -40 75 -33 33 -62 60 -66 60 -3 0 -18 -9 -33 -21z"/>
</g>
</svg>
