<?xml version="1.0" standalone="no"?>
<!DOCTYPE svg PUBLIC "-//W3C//DTD SVG 20010904//EN"
 "http://www.w3.org/TR/2001/REC-SVG-20010904/DTD/svg10.dtd">
<svg version="1.0" xmlns="http://www.w3.org/2000/svg"
 width="101.000000pt" height="101.000000pt" viewBox="0 0 101.000000 101.000000"
 preserveAspectRatio="xMidYMid meet">
<metadata>
Created by potrace 1.16, written by Peter Selinger 2001-2019
</metadata>
<g transform="translate(0.000000,101.000000) scale(0.100000,-0.100000)"
fill="#000000" stroke="none">
<path d="M661 962 l-12 -47 -44 1 c-35 1 -46 -2 -50 -17 -4 -10 -3 -24 1 -31
4 -6 8 -26 9 -42 0 -26 -3 -31 -25 -32 -14 -1 -53 -3 -88 -5 l-63 -4 28 22
c15 13 47 31 70 40 43 18 60 46 48 83 -5 16 -17 19 -83 18 -42 0 -124 3 -182
6 -58 4 -119 4 -137 1 -34 -6 -49 -31 -38 -65 5 -17 14 -19 70 -17 l64 2 -20
-21 c-26 -27 -24 -38 9 -51 23 -9 13 -11 -63 -12 l-90 -1 0 -40 c-1 -35 2 -40
28 -46 16 -3 50 -3 75 1 l47 7 -19 -21 c-11 -12 -52 -38 -92 -58 l-73 -36 28
-36 c16 -20 29 -43 30 -51 0 -8 4 -31 7 -50 11 -62 9 -254 -3 -288 -20 -54 2
-76 62 -64 25 4 27 7 20 41 -5 20 -8 70 -7 111 2 131 2 129 31 111 7 -5 11
-13 7 -19 -3 -6 -2 -21 3 -34 5 -12 5 -32 1 -44 -5 -11 -6 -32 -3 -46 5 -24 8
-26 41 -21 21 3 65 5 98 4 l62 -1 -2 74 c-1 64 2 77 19 90 26 20 39 20 31 1
-3 -8 -1 -26 5 -38 8 -17 7 -41 0 -82 -13 -68 -13 -69 -49 -71 -54 -3 -53 -2
-37 -28 9 -13 15 -28 14 -32 -5 -29 3 -35 40 -30 22 2 52 10 68 18 l28 13 1
175 c0 96 4 194 7 217 8 51 -5 59 -67 36 -37 -14 -49 -15 -72 -4 -16 7 -23 15
-17 19 20 14 33 51 33 99 0 47 1 48 30 48 l29 0 -19 -33 c-11 -18 -20 -35 -20
-37 0 -3 58 -19 74 -20 4 0 19 27 31 60 l24 60 0 -40 c1 -22 3 -73 5 -114 3
-40 1 -84 -4 -96 -5 -13 -6 -32 -3 -44 4 -17 11 -20 47 -15 80 10 171 14 203
9 30 -5 31 -7 29 -54 -2 -26 -6 -53 -10 -59 -4 -6 -2 -21 4 -33 9 -16 8 -28
-4 -53 -23 -49 -42 -61 -70 -48 -13 6 -33 8 -44 5 -19 -5 -19 -7 -6 -39 8 -19
13 -38 10 -42 -8 -13 10 -33 30 -33 63 0 138 31 155 63 7 12 14 50 16 83 5
104 11 188 17 237 l6 48 -29 -6 c-16 -3 -37 -1 -48 4 -14 8 -34 7 -73 -5 -42
-12 -61 -13 -83 -5 -16 6 -35 8 -42 6 -11 -5 -13 9 -9 69 3 46 1 78 -6 82 -13
8 -13 48 1 62 6 6 9 33 8 60 l-4 48 75 0 75 0 0 -90 c0 -49 -3 -95 -7 -102 -5
-6 -24 -11 -43 -10 -44 1 -50 -6 -30 -36 8 -14 15 -29 14 -33 -7 -38 1 -39 89
-8 47 17 73 55 71 101 -1 16 2 81 5 145 6 111 5 117 -14 123 -11 3 -25 3 -32
-2 -13 -8 -128 -12 -128 -4 0 2 10 19 21 38 26 41 16 53 -43 53 -35 0 -36 -2
-47 -48z m-286 -112 c-21 -16 -40 -30 -42 -30 -2 0 -20 11 -40 24 l-36 25 44
4 c24 2 59 4 78 5 l34 2 -38 -30z m-63 -184 c2 -18 -1 -33 -7 -33 -39 0 -47
-4 -40 -20 4 -10 9 -28 10 -40 3 -20 0 -21 -38 -16 -23 3 -53 5 -67 5 -23 0
-22 2 15 31 22 18 58 49 80 69 22 21 41 38 41 38 1 0 4 -15 6 -34z m51 -172
c3 -4 -4 -15 -16 -24 l-22 -18 29 -30 c34 -37 27 -57 -18 -47 -17 3 -41 6 -54
7 -22 0 -23 1 -6 27 10 14 25 32 33 38 13 11 14 14 2 22 -11 7 -10 11 5 20 22
12 38 14 47 5z m-122 -22 c-5 -9 -23 -30 -40 -46 l-31 -29 2 44 c2 45 2 45 40
46 33 2 37 0 29 -15z m216 -18 c1 -19 0 -34 -1 -34 -1 0 -16 15 -34 33 l-32
33 33 1 c31 1 33 -1 34 -33z m-121 -159 c-1 -19 -7 -23 -31 -22 -23 1 -30 6
-31 22 -1 17 4 21 31 22 28 1 33 -2 31 -22z"/>
<path d="M684 788 c-3 -5 -2 -23 2 -41 8 -32 10 -42 12 -63 3 -17 42 -25 64
-13 16 8 18 17 12 42 -4 18 -7 39 -7 47 0 8 -4 20 -9 27 -11 13 -66 14 -74 1z"/>
<path d="M579 373 c-19 -5 -30 -34 -22 -62 6 -23 39 -34 64 -20 10 5 54 7 97
5 72 -4 81 -2 85 15 7 25 -2 56 -17 62 -7 3 -27 -2 -45 -11 -27 -13 -39 -13
-64 -4 -16 6 -34 9 -38 6 -5 -3 -17 -1 -26 4 -10 5 -25 7 -34 5z"/>
</g>
</svg>
