<?xml version="1.0" standalone="no"?>
<!DOCTYPE svg PUBLIC "-//W3C//DTD SVG 20010904//EN"
 "http://www.w3.org/TR/2001/REC-SVG-20010904/DTD/svg10.dtd">
<svg version="1.0" xmlns="http://www.w3.org/2000/svg"
 width="101.000000pt" height="102.000000pt" viewBox="0 0 101.000000 102.000000"
 preserveAspectRatio="xMidYMid meet">
<metadata>
Created by potrace 1.16, written by Peter Selinger 2001-2019
</metadata>
<g transform="translate(0.000000,102.000000) scale(0.100000,-0.100000)"
fill="#000000" stroke="none">
<path d="M253 972 l2 -48 -73 3 c-40 1 -77 5 -81 8 -28 17 -59 -35 -46 -76 6
-16 14 -18 73 -13 l67 5 -44 -44 c-24 -25 -61 -53 -82 -63 l-39 -17 36 -33 36
-34 28 20 c15 11 50 44 77 74 l49 54 -3 -64 c-3 -56 -1 -64 14 -66 36 -3 68 4
75 15 11 17 10 65 -2 72 -5 3 -10 11 -10 18 0 6 19 -7 43 -30 l42 -42 28 20
c15 12 27 27 27 34 0 7 -19 30 -42 50 l-43 36 42 -3 c24 -2 45 1 48 7 3 6 7 5
11 -2 7 -16 44 -17 44 -2 0 6 10 9 23 7 34 -5 27 -20 -25 -53 -26 -16 -47 -33
-47 -38 -1 -4 10 -13 24 -19 27 -12 35 -31 10 -22 -9 4 -29 1 -45 -6 -25 -10
-28 -15 -19 -31 13 -25 -12 -36 -47 -20 -20 9 -32 8 -60 -5 -23 -11 -43 -14
-61 -8 -16 4 -39 9 -53 10 -14 2 -32 4 -40 5 -44 6 -50 0 -44 -43 14 -110 14
-187 -1 -228 -8 -23 -13 -46 -10 -50 10 -16 -38 -123 -73 -162 -19 -21 -33
-40 -31 -41 2 -2 22 -9 44 -16 22 -7 46 -15 52 -17 16 -7 78 119 94 191 10 47
14 52 39 52 30 0 31 -3 31 -107 0 -43 -5 -59 -21 -72 -19 -16 -20 -21 -9 -58
11 -34 15 -39 33 -33 12 4 63 19 115 33 72 21 96 32 102 48 6 17 2 62 -6 62
-1 0 -20 -6 -41 -13 -85 -30 -91 -30 -91 4 0 20 5 28 13 25 7 -3 26 0 43 7 23
9 35 8 55 -3 32 -16 38 -11 39 34 1 45 -4 50 -37 34 -21 -9 -35 -9 -57 -1 -17
7 -36 10 -43 7 -6 -2 -12 4 -13 15 -1 13 5 19 20 20 12 1 45 3 72 5 28 3 62 2
76 0 30 -6 29 -2 32 -141 1 -51 7 -97 13 -103 11 -11 75 -23 109 -21 11 1 52
3 90 4 82 3 122 20 146 62 31 55 32 73 7 81 -13 3 -35 15 -50 26 -27 18 -28
19 -30 1 -5 -65 -16 -82 -60 -94 -22 -6 -52 -7 -67 -3 -14 4 -33 9 -41 9 -8 1
-19 3 -25 4 -18 2 -14 50 4 50 9 0 30 3 46 5 17 3 50 8 74 11 24 2 46 7 49 10
7 7 -25 75 -35 75 -5 0 -37 -9 -71 -20 -81 -25 -79 -25 -79 9 0 22 5 29 21 30
74 5 96 5 140 -2 l49 -7 -7 61 c-3 33 -2 68 4 78 5 10 7 27 4 38 -5 18 -14 20
-87 21 -116 1 -123 2 -124 22 -2 21 0 21 149 23 93 1 107 4 111 19 13 49 -5
59 -103 56 -53 -1 -186 1 -213 4 -52 5 -53 32 -5 89 l43 51 6 -28 c3 -16 2
-37 -3 -46 -18 -36 14 -61 66 -51 26 5 43 34 30 55 -4 6 -8 23 -9 38 -2 26 -1
25 38 -17 21 -23 55 -52 74 -64 l34 -21 17 23 c8 12 24 31 35 42 22 22 24 20
-30 36 -24 6 -55 23 -70 36 l-28 24 45 2 c25 1 57 0 72 -1 30 -2 43 23 33 62
-6 22 -9 23 -113 23 l-108 0 3 25 c1 14 5 34 8 45 6 18 1 20 -44 20 l-51 0 3
-45 2 -45 -77 2 c-66 1 -78 -1 -78 -15 0 -14 -1 -14 -12 1 -10 13 -27 16 -79
14 l-65 -2 7 40 c5 22 8 43 9 48 0 4 -22 7 -49 7 l-50 0 2 -48z m117 -135 c0
-2 -9 -12 -19 -21 -19 -17 -19 -17 -14 3 3 12 12 21 19 21 8 0 14 -2 14 -3z
m-24 -235 c5 -4 10 -17 10 -30 0 -28 -36 -40 -72 -24 -13 7 -29 9 -36 7 -8 -3
-14 4 -14 20 -2 20 2 24 15 21 9 -3 23 -1 31 4 18 11 51 13 66 2z m210 0 c5
-4 10 -17 10 -30 0 -28 -36 -40 -72 -24 -13 7 -29 9 -36 7 -8 -3 -14 4 -14 20
-2 20 2 24 15 21 9 -3 23 -1 31 4 18 11 51 13 66 2z m-210 -120 c5 -4 10 -17
10 -30 0 -28 -36 -40 -72 -24 -13 7 -29 9 -36 7 -8 -3 -14 4 -14 20 -2 20 2
24 15 21 9 -3 23 -1 31 4 18 11 51 13 66 2z m210 0 c5 -4 10 -17 10 -30 0 -28
-36 -40 -72 -24 -13 7 -29 9 -36 7 -8 -3 -14 4 -14 20 -2 20 2 24 15 21 9 -3
23 -1 31 4 18 11 51 13 66 2z m210 0 c5 -4 10 -17 10 -30 0 -28 -36 -40 -72
-24 -13 7 -29 9 -36 7 -8 -3 -14 4 -14 20 -2 20 2 24 15 21 9 -3 23 -1 31 4
18 11 51 13 66 2z"/>
</g>
</svg>
