<?xml version="1.0" standalone="no"?>
<!DOCTYPE svg PUBLIC "-//W3C//DTD SVG 20010904//EN"
 "http://www.w3.org/TR/2001/REC-SVG-20010904/DTD/svg10.dtd">
<svg version="1.0" xmlns="http://www.w3.org/2000/svg"
 width="101.000000pt" height="101.000000pt" viewBox="0 0 101.000000 101.000000"
 preserveAspectRatio="xMidYMid meet">
<metadata>
Created by potrace 1.16, written by Peter Selinger 2001-2019
</metadata>
<g transform="translate(0.000000,101.000000) scale(0.100000,-0.100000)"
fill="#000000" stroke="none">
<path d="M488 998 c-24 -8 -26 -12 -17 -29 24 -45 20 -55 -22 -51 -22 2 -45 0
-52 -6 -15 -13 -174 -15 -182 -2 -3 5 -23 9 -44 8 l-39 0 4 -92 c12 -333 -11
-490 -87 -597 l-22 -31 40 -40 40 -39 30 58 c49 91 86 223 85 300 l0 23 29
-21 29 -20 33 53 c19 29 38 61 43 70 6 11 9 -8 8 -58 -1 -78 -1 -79 51 -76 33
2 -81 -95 -153 -130 l-63 -31 34 -35 35 -34 48 33 c27 18 79 55 115 83 37 28
75 56 85 62 20 12 16 17 -55 70 -9 7 -15 30 -15 67 -1 58 2 59 42 24 l22 -20
25 23 c14 13 25 27 25 32 0 4 -18 20 -40 34 -31 21 -44 24 -52 16 -17 -17 -27
-15 -22 6 4 14 18 17 90 17 46 0 84 -3 84 -6 0 -13 -59 -86 -100 -123 l-43
-39 29 -24 c16 -12 32 -23 36 -23 8 0 68 74 99 120 l17 25 2 -25 c1 -14 2 -46
2 -72 0 -37 5 -47 19 -51 33 -9 60 3 54 24 -3 10 -1 27 4 38 7 13 8 28 1 45
-12 33 4 43 18 11 13 -29 88 -112 112 -125 12 -6 26 1 54 30 l38 39 -35 15
c-38 15 -107 74 -136 115 l-19 26 65 0 c70 0 85 11 81 55 -3 25 -5 25 -88 25
l-86 0 3 32 c2 34 -5 39 -59 42 -22 0 -28 -5 -33 -29 -4 -16 -4 -33 -1 -38 2
-4 -30 -5 -72 -1 -62 6 -81 5 -104 -9 -36 -21 -44 -11 -28 37 12 36 16 40 59
46 51 7 165 8 318 1 102 -5 103 -5 109 20 3 13 3 35 0 48 -6 23 -10 24 -96 25
-56 1 -90 -2 -90 -9 0 -5 -16 -10 -35 -10 -19 0 -35 4 -35 9 0 6 -19 11 -42
13 -39 3 -43 6 -52 38 -14 52 -38 61 -98 38z m-143 -177 c17 -1 20 -8 20 -42
0 -39 -1 -40 -29 -35 -16 3 -43 6 -61 6 -31 0 -33 3 -36 38 l-4 37 45 -1 c25
-1 54 -3 65 -3z m-56 -155 c23 -1 41 -4 41 -7 0 -7 -100 -139 -105 -139 -2 0
-1 28 1 63 2 34 4 73 4 87 0 19 2 22 9 11 6 -9 26 -15 50 -15z"/>
<path d="M550 388 c-60 -67 -145 -134 -214 -167 l-44 -22 21 -45 c20 -40 25
-44 47 -38 41 11 87 18 185 29 33 4 76 9 95 12 78 12 112 8 131 -15 9 -12 19
-28 21 -34 3 -9 16 -8 47 6 23 11 44 23 47 27 3 6 -94 136 -137 183 -8 9 -89
-21 -89 -32 0 -3 12 -19 28 -35 19 -21 22 -28 9 -24 -10 4 -36 -1 -59 -10 -32
-13 -47 -14 -70 -5 -20 7 -38 8 -59 0 -17 -6 -32 -8 -35 -5 -5 4 169 138 212
163 17 10 15 13 -25 42 -24 18 -47 32 -50 32 -3 0 -31 -28 -61 -62z"/>
</g>
</svg>
