<?xml version="1.0" standalone="no"?>
<!DOCTYPE svg PUBLIC "-//W3C//DTD SVG 20010904//EN"
 "http://www.w3.org/TR/2001/REC-SVG-20010904/DTD/svg10.dtd">
<svg version="1.0" xmlns="http://www.w3.org/2000/svg"
 width="101.000000pt" height="101.000000pt" viewBox="0 0 101.000000 101.000000"
 preserveAspectRatio="xMidYMid meet">
<metadata>
Created by potrace 1.16, written by Peter Selinger 2001-2019
</metadata>
<g transform="translate(0.000000,101.000000) scale(0.100000,-0.100000)"
fill="#000000" stroke="none">
<path d="M170 984 c-12 -3 -14 -18 -12 -64 3 -39 0 -60 -7 -60 -6 0 -11 -18
-11 -40 0 -22 5 -40 11 -40 7 0 10 -26 7 -77 l-3 -78 33 -3 c18 -2 32 1 32 7
0 12 75 14 168 5 57 -6 60 -8 64 -35 l5 -29 -148 6 -148 7 -11 -29 c-6 -15 -9
-38 -6 -50 6 -22 9 -23 159 -20 l152 2 0 -32 0 -32 -80 -6 c-112 -8 -173 -7
-179 3 -3 5 -37 9 -75 9 -66 0 -70 -1 -76 -25 -3 -13 -3 -33 0 -43 7 -21 42
-32 64 -20 9 5 59 7 111 5 126 -6 187 -6 299 0 55 2 102 0 113 -6 13 -7 69 -8
163 -3 142 7 143 7 148 31 2 14 2 34 0 44 -5 17 -12 18 -62 12 -50 -6 -263 -8
-317 -3 -16 2 -19 8 -16 31 4 28 6 29 58 29 30 0 54 5 54 10 0 6 16 10 35 10
20 0 35 -5 35 -11 0 -16 110 -4 122 13 7 11 3 57 -7 66 -1 2 -70 4 -151 5
l-149 2 -2 34 -2 33 156 -7 c164 -8 184 -4 162 37 -15 27 -23 136 -12 150 6 7
11 45 11 85 l1 72 -44 7 c-25 3 -64 3 -87 -1 -24 -3 -86 -6 -138 -6 -143 0
-213 0 -282 -1 -35 0 -76 2 -93 5 -16 3 -37 3 -45 1z m226 -80 l59 -6 0 -95 0
-94 -110 3 -110 3 0 91 c0 87 1 90 21 86 12 -2 25 1 28 7 8 13 29 13 112 5z
m354 -4 c12 0 15 -17 15 -92 l0 -93 -47 0 c-55 0 -55 5 -12 84 30 55 30 57 -3
66 -56 16 -63 15 -72 -8 -8 -21 -41 -95 -48 -108 -2 -4 8 -9 22 -13 39 -10 29
-21 -19 -21 l-45 0 2 87 2 88 43 0 c25 0 42 5 42 11 0 8 16 10 53 5 28 -3 59
-6 67 -6z"/>
<path d="M318 858 c-33 -12 -33 -10 -9 -73 11 -28 26 -51 36 -53 15 -3 75 16
75 24 0 2 -11 28 -24 59 -26 57 -32 60 -78 43z"/>
<path d="M105 237 c-22 -45 -41 -85 -43 -88 -4 -9 89 -40 100 -33 10 6 91 165
86 169 -3 2 -101 35 -102 34 -1 0 -19 -37 -41 -82z"/>
<path d="M555 303 c-33 -8 -36 -18 -20 -57 9 -21 18 -55 20 -75 1 -20 3 -39 4
-43 2 -12 111 10 111 22 0 8 -15 58 -37 118 -15 43 -25 48 -78 35z"/>
<path d="M763 298 c-35 -11 -42 -28 -20 -46 12 -11 48 -84 61 -124 5 -16 8
-16 58 1 34 12 52 24 50 32 -8 33 -88 149 -102 148 -8 -1 -30 -6 -47 -11z"/>
<path d="M352 286 c-29 -8 -33 -12 -27 -35 4 -14 9 -46 11 -69 5 -58 8 -61 52
-57 20 1 43 3 50 4 15 1 12 48 -8 123 -13 50 -18 52 -78 34z"/>
</g>
</svg>
