<?xml version="1.0" standalone="no"?>
<!DOCTYPE svg PUBLIC "-//W3C//DTD SVG 20010904//EN"
 "http://www.w3.org/TR/2001/REC-SVG-20010904/DTD/svg10.dtd">
<svg version="1.0" xmlns="http://www.w3.org/2000/svg"
 width="101.000000pt" height="101.000000pt" viewBox="0 0 101.000000 101.000000"
 preserveAspectRatio="xMidYMid meet">
<metadata>
Created by potrace 1.16, written by Peter Selinger 2001-2019
</metadata>
<g transform="translate(0.000000,101.000000) scale(0.100000,-0.100000)"
fill="#000000" stroke="none">
<path d="M667 990 c3 -12 -1 -28 -12 -40 -9 -10 -15 -25 -13 -32 6 -17 -22
-99 -60 -173 -58 -113 -58 -113 -55 58 l3 154 -69 2 c-38 1 -72 -3 -75 -8 -8
-12 -173 -14 -181 -2 -3 5 -34 9 -68 9 l-64 -1 -1 -33 c-1 -18 3 -36 8 -39 13
-8 11 -167 -2 -182 -5 -7 -8 -38 -6 -70 l3 -58 87 1 c83 2 86 1 91 -22 3 -20
-1 -25 -29 -30 -18 -3 -38 -3 -45 1 -6 5 -29 9 -49 11 -42 4 -52 -11 -43 -60
5 -24 21 -33 48 -26 16 4 58 10 90 13 26 2 29 -1 31 -29 2 -31 1 -31 -58 -38
-33 -3 -67 -2 -77 4 -10 5 -28 6 -40 3 -19 -5 -21 -11 -17 -47 2 -22 5 -45 5
-50 1 -4 8 -6 16 -2 19 7 13 -21 -21 -110 -13 -33 -24 -63 -24 -66 0 -6 53
-22 73 -23 5 0 23 40 42 89 31 84 32 89 14 93 -10 3 -19 9 -19 14 0 10 0 10
45 14 17 2 53 6 80 10 97 12 192 14 169 3 l-21 -10 27 -69 c14 -38 29 -72 33
-75 8 -8 77 16 77 27 0 5 -14 37 -31 71 -28 55 -29 63 -15 73 15 12 21 32 18
67 -2 14 -10 16 -49 12 -142 -14 -138 -14 -139 13 -2 17 2 23 12 19 8 -3 24
-1 37 5 17 8 30 6 51 -5 35 -18 53 -12 59 21 8 43 -3 66 -27 57 -19 -6 -55 -7
-111 -3 -13 1 -20 9 -21 23 -2 20 3 21 60 18 33 -1 76 0 94 3 29 5 32 8 26 33
l-7 27 37 -34 c19 -19 38 -32 41 -30 9 10 78 166 105 237 l27 74 23 -62 c28
-75 82 -160 139 -220 l43 -45 14 30 c7 17 18 37 24 45 9 12 -2 29 -54 83 -75
78 -159 228 -138 249 25 25 6 37 -70 45 -43 4 -46 3 -41 -17z m-416 -153 c-3
-33 -5 -36 -16 -21 -10 14 -17 15 -41 7 -28 -10 -29 -9 -29 21 0 30 1 31 45
31 l45 0 -4 -38z m185 18 c-1 -19 -6 -22 -28 -18 -23 3 -29 -2 -47 -39 -13
-26 -19 -33 -16 -18 2 14 5 41 5 60 0 34 1 35 44 36 39 1 44 -1 42 -21z m-231
-163 c1 -1 13 2 26 7 21 7 24 6 24 -13 0 -18 -6 -21 -48 -21 -43 0 -48 2 -43
20 3 11 6 38 7 60 l1 40 15 -45 c9 -25 17 -46 18 -48z m232 30 l1 -57 -44 4
c-24 1 -44 7 -44 13 0 5 8 7 18 4 14 -5 22 5 39 44 12 27 23 50 25 50 1 0 4
-26 5 -58z"/>
<path d="M676 682 c-3 -2 2 -22 10 -44 7 -22 11 -44 8 -49 -3 -5 -2 -18 1 -30
6 -17 13 -20 42 -16 40 6 55 23 47 51 -4 10 -7 24 -9 30 -13 62 -16 66 -56 64
-21 -1 -41 -3 -43 -6z"/>
<path d="M589 503 c-20 -5 -28 -31 -22 -66 5 -23 9 -25 41 -20 57 8 180 9 187
1 8 -8 -37 -91 -107 -196 -26 -40 -48 -76 -48 -80 0 -7 81 -54 85 -50 18 21
215 391 215 403 0 4 -9 4 -20 0 -10 -3 -28 -2 -38 4 -13 7 -34 5 -71 -6 -32
-9 -63 -12 -79 -7 -15 4 -39 8 -54 9 -15 2 -37 5 -50 7 -13 3 -30 3 -39 1z"/>
<path d="M338 308 c-23 -8 -26 -13 -18 -28 6 -11 12 -40 15 -66 5 -59 14 -68
60 -60 33 7 36 9 31 36 -8 53 -37 130 -49 129 -7 0 -24 -5 -39 -11z"/>
<path d="M228 298 c-25 -9 -27 -13 -22 -51 15 -129 11 -120 55 -120 29 0 53
19 43 34 -2 4 -6 22 -9 40 -3 19 -7 43 -9 54 -3 11 -5 25 -5 31 -1 18 -23 22
-53 12z"/>
</g>
</svg>
