<?xml version="1.0" standalone="no"?>
<!DOCTYPE svg PUBLIC "-//W3C//DTD SVG 20010904//EN"
 "http://www.w3.org/TR/2001/REC-SVG-20010904/DTD/svg10.dtd">
<svg version="1.0" xmlns="http://www.w3.org/2000/svg"
 width="101.000000pt" height="101.000000pt" viewBox="0 0 101.000000 101.000000"
 preserveAspectRatio="xMidYMid meet">
<metadata>
Created by potrace 1.16, written by Peter Selinger 2001-2019
</metadata>
<g transform="translate(0.000000,101.000000) scale(0.100000,-0.100000)"
fill="#000000" stroke="none">
<path d="M695 998 c-22 -6 -41 -11 -42 -12 -1 -1 9 -24 22 -51 13 -28 25 -52
25 -55 0 -3 -42 -4 -94 -3 -81 1 -95 -1 -99 -15 -3 -9 -5 8 -6 39 l-1 57 -64
1 c-36 0 -68 -3 -71 -8 -7 -12 -172 -13 -180 -2 -3 5 -27 9 -55 9 -38 1 -50
-3 -54 -16 -8 -31 -5 -86 6 -99 6 -8 8 -57 4 -138 l-6 -125 43 3 c24 2 50 7
56 12 7 4 27 4 45 1 28 -5 33 -10 33 -36 l0 -30 -51 6 c-65 8 -96 8 -103 0 -8
-8 -8 -64 0 -72 8 -8 40 -8 103 -1 l51 6 0 -29 c0 -16 -3 -28 -6 -27 -3 1 -25
-4 -49 -12 -32 -11 -48 -12 -66 -3 -30 13 -63 6 -68 -16 -3 -10 1 -30 7 -46
10 -25 9 -42 -8 -103 -11 -41 -17 -77 -13 -80 11 -12 68 -6 76 7 5 8 7 17 5
20 -2 4 2 31 10 60 8 30 13 55 12 55 -1 1 -13 6 -27 12 l-25 11 25 0 c14 0 43
4 65 7 91 14 201 27 286 34 19 1 30 31 22 61 -4 16 -12 18 -47 14 -124 -14
-131 -14 -132 13 -2 22 1 24 25 17 27 -8 102 -7 110 1 2 3 4 19 4 36 0 31 -19
53 -37 42 -5 -4 -30 -7 -56 -9 -45 -2 -47 -1 -47 26 0 21 5 28 21 29 51 4 93
2 122 -4 l32 -7 1 96 c1 59 -3 96 -9 96 -5 0 -10 16 -10 35 0 40 15 47 24 10
6 -24 36 -36 36 -15 0 6 32 10 75 10 45 0 75 -4 75 -10 0 -7 44 -10 125 -8
137 3 143 7 129 63 -5 22 -10 26 -31 20 -38 -9 -173 6 -145 16 12 5 22 11 22
14 0 7 -50 105 -53 104 -1 -1 -20 -6 -42 -11z m-439 -203 l1 -80 -18 55 c-23
66 -31 75 -55 62 -16 -9 -19 -6 -20 17 -1 24 2 26 45 26 l46 0 1 -80z m119 75
c12 0 25 -6 28 -14 4 -10 -3 -12 -24 -10 -20 3 -29 -1 -29 -11 0 -31 -18 -23
-22 10 -3 27 -1 34 10 30 7 -3 24 -5 37 -5z m-42 -110 c-3 -12 -8 -19 -11 -16
-5 6 5 36 12 36 2 0 2 -9 -1 -20z m-149 -23 c7 -41 15 -49 45 -42 24 5 27 3
26 -17 -2 -18 -7 -22 -26 -20 -13 2 -33 3 -44 4 -18 0 -20 6 -17 55 4 58 8 63
16 20z m218 -37 l3 -39 -40 1 c-32 2 -41 6 -42 21 -2 15 3 17 26 12 25 -5 29
-2 35 19 9 36 13 32 18 -14z"/>
<path d="M577 743 c-15 -4 -17 -12 -13 -51 3 -26 8 -58 11 -72 3 -14 -1 -49
-8 -79 -20 -75 -14 -90 31 -84 91 11 97 10 100 -22 2 -16 4 -74 5 -128 2 -110
-2 -118 -64 -111 -39 5 -48 -3 -28 -23 8 -8 14 -31 18 -75 1 -11 55 -1 102 19
l44 19 2 140 c2 202 -5 183 64 179 l59 -2 1 31 c0 17 3 77 5 132 5 87 3 104
-12 119 -13 13 -26 15 -53 10 -38 -7 -124 -8 -201 -1 -25 2 -53 2 -63 -1z
m219 -83 c16 0 22 -6 22 -22 1 -13 4 -36 7 -53 8 -45 -4 -55 -70 -55 -108 -1
-115 0 -121 27 -4 13 -2 35 4 49 7 13 9 31 5 40 -5 13 -2 15 13 10 10 -3 26
-1 34 5 8 5 31 7 50 4 19 -2 45 -5 56 -5z"/>
<path d="M580 389 c0 -19 -71 -159 -81 -159 -5 0 -8 3 -7 8 1 4 -4 29 -11 55
-14 47 -15 49 -44 43 -17 -3 -32 -7 -33 -9 -1 -1 5 -30 14 -65 15 -57 19 -63
40 -59 22 4 22 3 7 -19 -14 -22 -14 -24 0 -24 9 0 29 -7 45 -15 l29 -15 56
100 c31 54 60 102 65 105 18 11 11 35 -12 44 -55 20 -68 22 -68 10z"/>
<path d="M829 375 l-26 -14 31 -63 c18 -35 39 -83 48 -106 l17 -44 41 23 c22
12 40 25 40 28 -1 19 -100 186 -111 188 -8 1 -26 -4 -40 -12z"/>
<path d="M317 323 c-14 -4 -16 -13 -13 -51 2 -26 4 -54 5 -63 1 -19 31 -30 61
-22 20 5 21 17 5 98 -6 26 -21 46 -35 44 -3 -1 -13 -3 -23 -6z"/>
<path d="M214 313 c-26 -5 -37 -38 -22 -66 5 -11 8 -32 4 -47 -4 -22 -1 -29
15 -33 35 -9 49 2 43 33 -4 15 -1 37 5 48 11 21 -1 73 -16 71 -5 -1 -18 -4
-29 -6z"/>
</g>
</svg>
