<?xml version="1.0" standalone="no"?>
<!DOCTYPE svg PUBLIC "-//W3C//DTD SVG 20010904//EN"
 "http://www.w3.org/TR/2001/REC-SVG-20010904/DTD/svg10.dtd">
<svg version="1.0" xmlns="http://www.w3.org/2000/svg"
 width="101.000000pt" height="102.000000pt" viewBox="0 0 101.000000 102.000000"
 preserveAspectRatio="xMidYMid meet">
<metadata>
Created by potrace 1.16, written by Peter Selinger 2001-2019
</metadata>
<g transform="translate(0.000000,102.000000) scale(0.100000,-0.100000)"
fill="#000000" stroke="none">
<path d="M660 1000 c0 -11 5 -20 11 -20 6 0 9 -16 7 -37 l-3 -38 -57 3 c-70 5
-94 -3 -101 -30 -12 -43 8 -58 77 -58 l64 0 4 -32 c3 -32 2 -33 -32 -31 -19 2
-52 6 -73 9 -43 7 -67 -7 -67 -40 1 -49 22 -56 130 -40 61 9 237 11 245 2 4
-3 -3 -28 -14 -53 -12 -26 -21 -51 -21 -55 0 -6 46 -22 74 -24 5 -1 22 44 37
99 29 106 25 128 -18 100 -25 -17 -59 -20 -68 -6 -3 5 -29 9 -58 8 l-52 -2 0
35 0 35 97 -1 c87 -1 98 1 103 18 4 10 4 27 0 37 -5 16 -20 20 -95 26 -49 4
-93 4 -99 1 -6 -4 -8 2 -5 16 16 72 14 86 -9 92 -47 12 -77 7 -77 -14z"/>
<path d="M56 951 c-8 -30 -5 -85 6 -98 6 -8 8 -57 4 -138 -6 -115 -5 -125 11
-126 10 -1 23 0 28 1 20 5 61 11 95 13 34 2 35 1 35 -33 0 -39 5 -37 -101 -25
-46 5 -52 3 -57 -15 -13 -48 24 -81 65 -59 11 6 37 8 58 4 32 -5 38 -10 36
-31 -1 -16 -6 -22 -14 -19 -8 3 -29 -2 -48 -11 -27 -13 -40 -14 -58 -6 -13 6
-33 8 -44 5 -20 -5 -22 -16 -13 -86 1 -5 11 -5 24 -2 12 4 17 3 10 -2 -6 -4
-15 -22 -18 -38 -4 -17 -19 -56 -33 -88 -14 -31 -23 -59 -21 -61 2 -2 20 -7
39 -11 l35 -6 30 83 c40 110 39 105 13 111 -30 8 -19 17 28 22 71 8 139 16
174 21 19 3 57 6 83 8 27 1 52 8 56 15 4 7 8 -1 8 -19 0 -37 5 -42 40 -41 59
4 136 1 141 -4 9 -8 -50 -65 -93 -90 -42 -24 -103 -45 -75 -26 12 8 10 19 -15
71 -16 34 -32 63 -36 66 -10 6 -69 -17 -69 -26 0 -5 9 -25 21 -44 21 -37 32
-88 19 -96 -4 -3 9 -24 30 -47 l38 -43 73 37 c82 41 184 133 195 177 4 18 11
25 20 22 8 -3 25 -1 37 5 16 7 41 7 74 1 50 -9 51 -8 56 16 8 42 -3 64 -27 55
-11 -4 -37 -7 -56 -6 -19 2 -45 3 -58 4 -25 1 -39 37 -27 66 4 10 9 33 11 51
2 17 6 47 8 65 2 17 7 40 11 49 5 13 -1 19 -29 26 -20 6 -44 8 -55 5 -23 -6
-34 -39 -21 -63 10 -19 9 -185 -2 -195 -9 -9 -81 -9 -128 -1 -19 4 -46 7 -59
7 -14 1 -25 8 -28 19 -6 24 -37 31 -74 18 -16 -5 -36 -7 -44 -4 -8 3 -25 2
-38 -3 -19 -7 -22 -5 -23 14 -2 24 2 26 88 27 49 1 62 15 51 58 -6 23 -16 25
-42 8 -15 -9 -26 -9 -45 0 -14 6 -32 9 -39 6 -10 -3 -14 4 -14 25 0 29 1 29
51 26 28 -2 58 -5 66 -6 55 -8 58 -5 59 91 1 56 -2 90 -9 90 -5 0 -10 16 -10
35 0 19 5 35 10 35 6 0 10 28 10 64 l0 63 -79 2 c-44 1 -82 -3 -85 -8 -8 -12
-173 -13 -181 -1 -10 16 -74 8 -79 -9z m179 -145 c1 -61 -1 -72 -8 -50 -27 83
-35 94 -60 85 -21 -8 -23 -7 -19 17 3 24 8 27 45 27 l42 0 0 -79z m150 57 c0
-17 -3 -19 -18 -11 -23 12 -29 6 -43 -40 -13 -39 -12 -40 -17 43 -2 29 0 30
38 30 34 0 40 -3 40 -22z m-174 -159 c25 5 28 3 25 -17 -2 -17 -9 -21 -27 -19
-13 2 -35 3 -48 4 -20 0 -22 3 -17 30 3 17 6 42 7 57 0 21 3 18 16 -18 14 -40
17 -43 44 -37z m173 9 l6 -43 -43 2 c-33 2 -43 6 -44 20 -1 14 4 16 27 12 25
-6 29 -3 35 26 8 38 10 37 19 -17z"/>
<path d="M554 649 c-18 -20 -18 -21 31 -64 l50 -43 28 26 29 27 -44 37 c-49
43 -67 47 -94 17z"/>
<path d="M522 537 c-12 -13 -22 -26 -22 -30 0 -10 84 -86 96 -87 6 0 20 10 32
23 l22 23 -38 35 c-65 61 -66 61 -90 36z"/>
<path d="M188 313 c-14 -3 -16 -12 -12 -46 7 -62 11 -91 13 -98 2 -13 44 -18
63 -8 18 10 18 22 3 104 -5 27 -30 57 -44 54 -3 -1 -14 -3 -23 -6z"/>
<path d="M292 312 c-10 -7 -9 -22 5 -76 l18 -67 35 6 c19 4 37 8 39 10 2 2 -5
32 -16 67 -16 54 -22 63 -43 66 -14 1 -31 -2 -38 -6z"/>
<path d="M760 263 l-21 -27 28 -20 c15 -11 51 -44 80 -73 l52 -53 26 32 c14
18 25 38 24 43 -3 14 -141 125 -155 125 -7 0 -22 -12 -34 -27z"/>
</g>
</svg>
