<?xml version="1.0" standalone="no"?>
<!DOCTYPE svg PUBLIC "-//W3C//DTD SVG 20010904//EN"
 "http://www.w3.org/TR/2001/REC-SVG-20010904/DTD/svg10.dtd">
<svg version="1.0" xmlns="http://www.w3.org/2000/svg"
 width="101.000000pt" height="101.000000pt" viewBox="0 0 101.000000 101.000000"
 preserveAspectRatio="xMidYMid meet">
<metadata>
Created by potrace 1.16, written by Peter Selinger 2001-2019
</metadata>
<g transform="translate(0.000000,101.000000) scale(0.100000,-0.100000)"
fill="#000000" stroke="none">
<path d="M672 990 l-23 -10 21 -41 21 -41 -64 7 c-52 6 -67 4 -80 -10 -18 -17
-21 -33 -11 -59 7 -18 74 -23 74 -6 0 12 90 12 210 1 90 -9 100 -6 100 36 0
31 -33 45 -93 41 l-51 -3 -11 38 c-15 54 -41 67 -93 47z"/>
<path d="M76 942 c-8 -31 -6 -91 4 -97 11 -7 12 -131 1 -210 l-8 -55 42 4 c23
1 47 6 54 10 6 4 29 5 50 1 34 -6 38 -9 38 -36 l0 -29 -51 6 c-65 8 -96 8
-103 0 -8 -8 -8 -64 0 -72 8 -8 40 -8 103 -1 50 6 51 6 51 -22 0 -26 -5 -30
-52 -41 -37 -9 -57 -9 -72 -2 -11 6 -29 8 -41 5 -19 -5 -21 -11 -17 -47 2 -22
7 -53 11 -69 3 -15 2 -33 -3 -40 -12 -15 -37 -106 -32 -112 3 -2 18 -6 35 -9
l31 -6 21 78 c11 42 24 85 27 95 5 12 2 17 -11 17 -32 0 -7 11 37 16 24 3 58
7 74 9 17 2 55 6 85 10 30 3 63 8 72 11 10 3 18 1 18 -5 0 -6 -10 -11 -21 -11
-24 0 -24 3 13 -97 25 -68 24 -68 62 -53 33 12 33 31 -4 107 -26 57 -27 63
-11 63 22 0 32 20 24 48 -6 23 -29 36 -45 26 -6 -4 -27 -8 -47 -9 -20 -2 -48
-6 -62 -9 -24 -7 -26 -5 -26 24 0 29 2 31 26 24 27 -8 102 -7 110 1 2 3 4 19
4 36 0 31 -19 53 -37 42 -5 -4 -30 -7 -56 -9 -45 -2 -47 -1 -47 26 0 21 5 28
21 29 52 4 94 2 125 -5 32 -6 34 -6 29 19 -3 15 -1 24 3 21 5 -3 9 -14 9 -24
0 -15 6 -18 38 -13 39 5 179 6 324 1 93 -3 104 3 91 51 -4 16 -14 19 -56 20
-95 0 -98 0 -86 25 7 11 22 36 36 54 28 38 25 46 -23 62 -39 13 -52 7 -58 -27
-13 -64 -32 -106 -51 -113 -22 -8 -90 -7 -172 4 -34 4 -43 2 -46 -12 -3 -9 -5
13 -6 51 0 37 -5 67 -11 67 -5 0 -10 16 -10 35 0 19 5 35 10 35 6 0 10 26 10
59 l0 59 -64 1 c-36 0 -68 -3 -71 -8 -7 -12 -172 -13 -180 -2 -3 5 -27 9 -55
9 -38 1 -50 -3 -54 -16z m177 -96 c-1 -17 -2 -47 -3 -66 l-1 -35 -15 40 c-19
51 -28 59 -50 47 -16 -9 -19 -6 -20 17 -1 24 2 26 45 27 45 0 46 0 44 -30z
m154 13 c-1 -11 -9 -15 -28 -13 -24 3 -28 -1 -36 -34 l-10 -37 -4 50 -4 50 42
0 c32 0 41 -4 40 -16z m-224 -116 c13 -44 17 -48 45 -47 26 1 31 -3 28 -20 -2
-16 -9 -20 -27 -18 -13 2 -33 3 -44 4 -18 0 -20 7 -20 64 0 35 1 64 2 64 1 0
9 -21 16 -47z m143 0 c-3 -4 -6 2 -5 13 0 11 3 14 6 6 3 -7 2 -16 -1 -19z m76
-40 l3 -42 -40 1 c-32 2 -41 6 -41 21 0 14 5 17 25 12 28 -7 40 7 42 50 2 36
7 16 11 -42z"/>
<path d="M583 789 c-7 -7 -4 -28 10 -64 18 -51 21 -54 50 -50 47 6 53 18 36
72 -14 45 -17 48 -50 50 -20 1 -41 -3 -46 -8z"/>
<path d="M547 518 c-3 -12 -2 -29 3 -37 8 -16 6 -142 -3 -241 -3 -25 -2 -64 0
-87 6 -45 20 -55 68 -46 23 5 25 9 19 36 -5 25 -4 29 11 24 9 -4 25 -2 35 3
11 6 43 7 75 4 45 -6 54 -10 50 -23 -8 -28 11 -45 50 -44 20 1 38 3 40 5 1 1
-1 49 -6 106 -8 97 -7 186 5 281 l6 43 -38 -8 c-40 -10 -201 -10 -268 0 -37 5
-43 3 -47 -16z m239 -58 c16 0 20 -7 21 -34 1 -33 1 -34 -53 -40 -31 -4 -63
-2 -74 4 -10 5 -25 7 -33 4 -12 -4 -15 3 -14 30 1 28 5 35 16 31 9 -2 23 0 31
6 8 5 31 7 50 4 19 -2 44 -5 56 -5z m-1 -140 c17 0 21 -7 22 -39 l2 -38 -55
-7 c-31 -3 -63 -2 -74 4 -10 5 -25 7 -34 4 -12 -5 -15 2 -13 35 1 32 5 40 17
36 8 -2 22 0 30 6 8 5 31 7 50 4 19 -2 44 -5 55 -5z"/>
<path d="M301 321 c-7 -5 -11 -13 -8 -18 4 -6 9 -28 12 -49 16 -105 12 -99 60
-90 19 4 35 12 35 19 0 16 -18 85 -32 120 -11 28 -39 36 -67 18z"/>
<path d="M203 313 c-18 -4 -21 -9 -16 -41 3 -20 5 -56 5 -79 1 -32 5 -42 19
-46 49 -13 77 21 58 70 -5 14 -7 28 -4 33 8 13 -16 70 -28 69 -7 -1 -22 -4
-34 -6z"/>
</g>
</svg>
