<?xml version="1.0" standalone="no"?>
<!DOCTYPE svg PUBLIC "-//W3C//DTD SVG 20010904//EN"
 "http://www.w3.org/TR/2001/REC-SVG-20010904/DTD/svg10.dtd">
<svg version="1.0" xmlns="http://www.w3.org/2000/svg"
 width="101.000000pt" height="101.000000pt" viewBox="0 0 101.000000 101.000000"
 preserveAspectRatio="xMidYMid meet">
<metadata>
Created by potrace 1.16, written by Peter Selinger 2001-2019
</metadata>
<g transform="translate(0.000000,101.000000) scale(0.100000,-0.100000)"
fill="#000000" stroke="none">
<path d="M285 872 c2 -76 7 -156 11 -180 4 -26 1 -54 -6 -73 -20 -47 -35 -44
217 -35 116 5 173 4 178 -3 9 -16 41 -13 60 5 11 12 14 25 10 43 -4 14 -8 105
-8 201 l-1 175 -113 -3 c-158 -4 -229 -4 -295 1 l-56 5 3 -136z m303 62 c53
-6 61 -9 65 -30 l4 -24 -141 2 c-134 3 -141 4 -141 23 0 18 6 20 47 18 26 -2
50 1 53 7 7 12 29 12 113 4z m-43 -124 c3 -5 30 -9 58 -7 43 2 53 -1 53 -14 0
-13 -18 -17 -105 -23 -171 -10 -178 -9 -179 17 0 20 4 22 50 18 28 -2 55 2 61
8 14 14 54 14 62 1z m111 -129 l-1 -29 -141 1 c-139 2 -140 2 -136 24 4 24 14
25 213 31 l66 2 -1 -29z"/>
<path d="M819 883 c-12 -3 -16 -18 -18 -65 -1 -33 3 -66 10 -74 16 -19 5 -204
-13 -215 -17 -11 -55 -11 -62 0 -3 5 -32 9 -63 9 -32 0 -65 3 -73 6 -31 12
-45 -11 -43 -66 2 -48 4 -109 4 -170 2 -222 -2 -210 68 -200 l33 5 -8 46 c-7
41 -8 60 -3 139 1 16 6 22 16 18 8 -3 23 -1 34 4 27 15 122 2 115 -16 -3 -7 0
-26 6 -42 9 -24 8 -36 -4 -63 -19 -40 -13 -85 11 -92 28 -7 79 4 85 19 3 8 1
26 -4 40 -12 30 -15 121 -6 185 6 45 5 47 -21 52 -15 3 -38 1 -52 -4 -22 -9
-86 -12 -152 -8 -24 1 -27 5 -26 34 1 26 5 33 21 34 12 0 50 3 86 6 36 2 80 0
98 -6 18 -6 36 -8 39 -5 11 10 14 144 3 151 -13 8 -13 52 0 60 6 4 9 44 8 96
-1 49 2 92 5 96 4 4 -7 13 -24 20 -32 13 -41 14 -70 6z"/>
<path d="M133 873 c-16 -6 -18 -113 -3 -113 6 0 10 -11 10 -25 0 -14 -5 -25
-10 -25 -7 0 -10 -44 -8 -130 l3 -130 50 6 c169 19 202 15 202 -26 0 -28 -2
-28 -66 -34 -89 -8 -173 -6 -192 5 -40 21 -72 -12 -62 -65 5 -22 9 -25 42 -21
20 2 46 7 57 10 33 10 38 -11 14 -60 -22 -45 -87 -95 -123 -95 -25 0 -21 -13
11 -32 15 -10 34 -23 43 -29 36 -27 137 78 161 167 9 31 17 42 32 43 12 0 34
2 51 3 27 3 30 0 33 -27 5 -43 3 -136 -3 -161 -6 -26 12 -33 67 -26 37 4 38 5
32 41 -8 48 -9 306 -1 354 5 33 3 38 -11 32 -41 -16 -74 -17 -84 -4 -7 11 -11
11 -15 2 -6 -15 -73 -18 -73 -3 0 6 -17 10 -39 10 -35 0 -39 3 -45 31 -9 47
-7 159 3 159 14 0 21 134 8 142 -13 9 -65 9 -84 1z"/>
</g>
</svg>
