<?xml version="1.0" standalone="no"?>
<!DOCTYPE svg PUBLIC "-//W3C//DTD SVG 20010904//EN"
 "http://www.w3.org/TR/2001/REC-SVG-20010904/DTD/svg10.dtd">
<svg version="1.0" xmlns="http://www.w3.org/2000/svg"
 width="101.000000pt" height="101.000000pt" viewBox="0 0 101.000000 101.000000"
 preserveAspectRatio="xMidYMid meet">
<metadata>
Created by potrace 1.16, written by Peter Selinger 2001-2019
</metadata>
<g transform="translate(0.000000,101.000000) scale(0.100000,-0.100000)"
fill="#000000" stroke="none">
<path d="M185 983 c-11 -3 -25 -10 -32 -15 -7 -5 -22 -9 -35 -8 -59 5 -56 14
-54 -159 1 -150 2 -160 21 -167 17 -5 17 -7 4 -11 -21 -5 -31 -41 -18 -64 12
-24 2 -315 -12 -342 -8 -15 -7 -27 7 -53 17 -31 34 -44 34 -26 0 4 25 25 55
46 63 46 67 52 51 90 l-11 28 -27 -21 -26 -21 -6 62 c-4 35 -4 92 -1 128 3 36
5 76 6 90 1 24 1 24 15 6 7 -11 17 -35 20 -54 6 -30 9 -33 33 -27 14 4 28 8
30 10 2 2 -5 27 -15 54 -17 48 -20 50 -47 45 -25 -4 -29 -2 -24 15 3 13 -3 22
-21 31 -44 20 -7 29 98 25 159 -7 165 -8 166 -30 0 -11 4 -33 8 -48 12 -42 -8
-56 -24 -17 -11 26 -18 31 -37 27 -22 -4 -23 -2 -18 23 5 24 3 28 -20 33 -67
12 -76 -4 -59 -108 14 -84 8 -268 -9 -309 -21 -48 -21 -48 3 -79 l21 -26 61
49 c34 28 65 50 69 50 7 0 -8 70 -17 79 -1 2 -16 -7 -31 -19 l-28 -22 -8 48
c-5 30 -4 57 2 71 6 13 8 31 6 40 -3 10 6 -6 21 -35 22 -46 29 -53 49 -48 19
5 23 2 23 -17 -1 -78 24 -162 52 -177 26 -14 43 -5 66 35 l20 34 1 -40 c2 -50
5 -52 43 -52 37 0 43 6 43 42 0 22 5 29 21 30 12 1 44 3 71 5 69 6 105 -2 103
-22 -4 -50 13 -65 64 -55 24 5 24 6 16 80 -8 71 -5 171 5 254 5 35 4 37 -26
42 -18 2 -43 0 -56 -5 -30 -11 -110 -13 -171 -4 -93 14 -106 12 -113 -16 -3
-12 -2 -30 4 -40 5 -10 7 -40 3 -68 -6 -49 -7 -50 -25 -34 -18 16 -19 15 -28
-7 -5 -13 -6 -28 -3 -33 3 -5 1 -6 -5 -3 -6 4 -15 26 -22 49 -12 45 -9 136 8
241 2 16 21 -5 21 -24 0 -17 5 -19 48 -13 100 12 178 13 295 5 67 -5 124 -7
126 -5 6 6 5 63 -1 69 -3 3 -26 6 -51 7 -41 2 -46 5 -41 21 3 10 7 33 9 50 2
18 6 53 9 78 l5 46 -69 7 c-39 4 -78 5 -88 2 -15 -5 -17 0 -14 42 l4 48 56 -4
c147 -9 164 -3 160 53 l-3 30 -73 3 c-41 2 -79 -1 -85 -7 -15 -12 -174 -14
-182 -1 -3 5 -23 8 -45 8 -44 0 -56 -17 -44 -62 7 -30 54 -43 97 -27 16 6 30
11 31 11 2 0 3 -21 2 -47 l-1 -48 -40 3 c-57 4 -95 -12 -95 -40 0 -40 12 -47
69 -42 51 4 52 4 45 -18 -5 -13 -7 -36 -6 -52 2 -43 -15 -69 -41 -61 -42 13
-77 12 -77 -2 0 -7 -5 -13 -11 -13 -6 0 -8 8 -4 19 4 13 0 23 -12 30 -16 9
-16 10 -2 11 25 0 31 29 14 63 -17 34 -20 114 -5 119 11 4 19 133 8 143 -4 4
-50 8 -102 9 -81 1 -97 -2 -108 -17 -13 -18 -15 -17 -26 7 -11 25 -25 29 -67
19z m169 -91 c49 3 51 2 51 -23 0 -26 -1 -27 -58 -21 -54 4 -59 3 -64 -17 l-6
-22 -20 22 c-16 17 -28 20 -61 17 -39 -5 -41 -4 -41 24 0 15 5 28 10 29 6 0
31 1 58 1 26 0 47 4 47 10 0 5 7 2 17 -7 12 -12 30 -16 67 -13z m-70 -118 c5
-14 16 -16 64 -11 l57 6 0 -29 c0 -25 -5 -31 -30 -35 -16 -3 -64 -3 -105 0
-41 3 -84 6 -95 6 -14 1 -20 9 -21 28 -1 25 2 26 49 26 31 0 52 5 55 13 5 17
19 15 26 -4z m511 -105 c-3 -72 -14 -87 -50 -71 -13 6 -31 9 -39 6 -11 -4 -12
3 -6 38 5 23 6 46 4 50 -12 18 10 34 50 36 l44 2 -3 -61z m-454 -170 c11 -35
16 -40 36 -34 17 4 23 1 24 -12 1 -10 2 -34 4 -53 l3 -35 -25 43 c-19 31 -30
41 -42 37 -32 -13 -36 -9 -33 25 1 19 3 45 3 57 2 33 16 19 30 -28z m480 -98
c12 -2 16 -138 5 -149 -4 -4 -40 -6 -79 -5 -121 3 -115 1 -122 43 -4 22 -2 47
4 59 6 11 8 27 4 36 -5 14 -2 16 13 11 10 -3 26 -1 34 4 12 7 97 8 141 1z"/>
<path d="M165 436 c-18 -13 -18 -14 1 -59 19 -46 35 -56 64 -38 12 8 10 17
-10 60 -26 56 -28 57 -55 37z"/>
</g>
</svg>
