<?xml version="1.0" standalone="no"?>
<!DOCTYPE svg PUBLIC "-//W3C//DTD SVG 20010904//EN"
 "http://www.w3.org/TR/2001/REC-SVG-20010904/DTD/svg10.dtd">
<svg version="1.0" xmlns="http://www.w3.org/2000/svg"
 width="101.000000pt" height="103.000000pt" viewBox="0 0 101.000000 103.000000"
 preserveAspectRatio="xMidYMid meet">
<metadata>
Created by potrace 1.16, written by Peter Selinger 2001-2019
</metadata>
<g transform="translate(0.000000,103.000000) scale(0.100000,-0.100000)"
fill="#000000" stroke="none">
<path d="M356 995 l-7 -34 -49 4 c-28 2 -54 6 -60 10 -5 3 -20 3 -34 -1 l-25
-6 3 -173 c4 -172 4 -174 -17 -177 -21 -3 -22 -8 -24 -143 -1 -132 0 -140 19
-147 10 -5 27 -4 37 1 9 5 59 8 111 6 52 -3 122 -4 155 -4 104 0 258 -2 323
-3 69 -2 88 10 74 47 -8 23 -6 160 3 191 11 37 -21 57 -74 49 -59 -9 -99 -10
-366 -7 -167 3 -214 6 -195 14 14 6 53 10 87 9 34 0 65 4 68 9 8 13 152 13
160 0 4 -6 59 -9 139 -7 l132 2 2 167 1 167 -29 6 c-16 4 -35 3 -41 -1 -7 -4
-41 -6 -76 -5 -39 1 -63 -2 -63 -8 0 -6 -16 -11 -35 -11 -19 0 -35 5 -35 10 0
6 -20 10 -45 10 -42 0 -45 2 -35 19 18 35 12 41 -44 41 -53 0 -54 0 -60 -35z
m343 -91 c17 -4 31 -11 31 -16 0 -5 -15 -6 -34 -3 -19 4 -36 2 -40 -3 -8 -13
-153 -15 -161 -2 -4 6 11 10 37 10 24 0 50 5 58 10 17 11 64 13 109 4z m-414
-14 c-3 -5 -8 -10 -11 -10 -2 0 -4 5 -4 10 0 6 5 10 11 10 5 0 7 -4 4 -10z
m262 -82 c7 -6 22 -8 33 -5 13 3 20 0 20 -9 0 -8 -10 -14 -25 -14 -14 0 -25 5
-25 10 0 6 -30 10 -70 10 -40 0 -70 -4 -70 -10 0 -5 -11 -10 -25 -10 -29 0
-32 8 -7 26 20 16 151 17 169 2z m183 -8 c0 -5 -7 -10 -15 -10 -8 0 -15 5 -15
10 0 6 7 10 15 10 8 0 15 -4 15 -10z m-65 -73 c50 -2 61 -5 61 -19 0 -14 -15
-18 -83 -23 -45 -4 -99 -4 -120 0 -21 4 -85 8 -143 8 -88 2 -106 5 -106 17 0
13 18 15 119 13 68 -2 126 1 135 7 9 6 31 8 47 4 17 -3 57 -6 90 -7z m-209
-208 c0 -23 -37 -31 -121 -24 -33 3 -70 6 -81 6 -15 1 -20 6 -17 18 4 13 21
16 111 17 100 2 108 1 108 -17z m311 -1 c-2 -22 -41 -30 -122 -23 -33 3 -70 6
-81 6 -15 1 -20 6 -17 18 3 14 20 16 113 16 97 0 108 -2 107 -17z m-335 -74
c19 -4 26 -11 25 -25 -2 -23 -39 -31 -122 -24 -33 3 -69 6 -80 6 -13 1 -21 9
-22 21 -1 14 3 17 15 14 9 -3 23 -2 31 3 16 10 110 13 153 5z m310 0 c19 -4
26 -11 25 -25 -2 -23 -39 -31 -122 -24 -33 3 -69 6 -80 6 -13 1 -21 9 -22 21
-1 14 3 17 15 14 9 -3 23 -2 31 3 16 10 110 13 153 5z"/>
<path d="M59 303 c-20 -5 -29 -34 -22 -63 5 -18 11 -20 57 -15 149 18 216 14
196 -10 -22 -27 -96 -53 -170 -60 -14 -1 -31 -3 -38 -4 -19 -2 49 -81 69 -81
37 0 146 41 185 70 23 16 47 43 54 59 7 18 19 29 33 30 12 0 49 3 82 6 33 3
74 3 92 0 30 -5 31 -7 28 -48 -2 -23 -6 -49 -9 -57 -12 -31 14 -46 70 -42 19
2 22 8 22 50 1 83 3 90 26 92 51 4 158 -1 179 -9 32 -13 50 1 50 38 0 17 -2
33 -4 35 -4 4 -261 8 -434 6 -55 0 -129 -1 -165 -1 -36 0 -108 -1 -160 -2 -52
0 -102 2 -110 5 -8 3 -22 4 -31 1z"/>
</g>
</svg>
