<?xml version="1.0" standalone="no"?>
<!DOCTYPE svg PUBLIC "-//W3C//DTD SVG 20010904//EN"
 "http://www.w3.org/TR/2001/REC-SVG-20010904/DTD/svg10.dtd">
<svg version="1.0" xmlns="http://www.w3.org/2000/svg"
 width="101.000000pt" height="101.000000pt" viewBox="0 0 101.000000 101.000000"
 preserveAspectRatio="xMidYMid meet">
<metadata>
Created by potrace 1.16, written by Peter Selinger 2001-2019
</metadata>
<g transform="translate(0.000000,101.000000) scale(0.100000,-0.100000)"
fill="#000000" stroke="none">
<path d="M265 851 l0 -149 -32 1 -32 1 4 92 c3 51 7 99 11 107 7 19 -25 30
-60 21 -34 -8 -39 -29 -30 -135 l7 -90 -36 6 c-33 6 -37 5 -42 -18 -11 -42 1
-64 33 -62 16 1 34 5 40 9 16 10 113 -4 106 -16 -3 -5 -7 -30 -9 -56 -5 -70
-29 -157 -59 -211 -12 -22 -13 -19 -19 39 -4 34 -4 67 0 73 3 5 7 25 9 43 1
18 5 41 8 52 5 16 0 22 -23 30 -16 6 -39 8 -51 5 -18 -5 -20 -11 -15 -57 13
-112 15 -195 5 -280 -5 -50 -8 -92 -5 -94 4 -5 25 -4 115 3 90 8 193 -3 187
-19 -9 -22 10 -39 42 -39 17 0 34 2 37 6 3 3 5 41 5 84 -3 207 -3 281 2 316 6
44 17 62 17 29 0 -21 3 -22 48 -16 49 6 169 7 334 2 95 -3 97 -2 101 20 9 48
0 57 -54 56 -46 -1 -49 0 -43 20 4 11 9 32 10 46 2 14 7 46 12 72 l9 47 -39 6
c-21 4 -66 5 -101 3 -52 -2 -62 0 -65 15 -2 9 1 17 7 17 6 0 11 8 11 18 0 16
10 17 100 15 78 -1 103 1 115 13 21 22 19 61 -4 74 -24 13 -118 13 -126 1 -7
-12 -172 -13 -180 -1 -3 4 -25 8 -50 8 -67 0 -95 -37 -61 -83 11 -15 22 -17
68 -12 47 4 54 3 53 -12 0 -9 -4 -22 -9 -29 -4 -6 -5 -15 -3 -19 3 -5 -21 -8
-54 -7 -64 1 -77 -12 -65 -61 6 -22 11 -24 60 -22 30 1 52 -1 50 -4 -3 -5 -9
-35 -18 -89 -2 -11 -16 -15 -55 -14 -34 0 -51 -4 -51 -12 0 -8 -10 -11 -27 -8
-37 6 -64 6 -70 0 -5 -5 -5 -22 2 -106 2 -30 2 -68 -1 -83 -6 -28 -7 -27 -50
37 l-44 66 18 55 c17 49 17 57 4 64 -26 15 14 21 105 17 73 -3 82 -2 86 15 3
11 3 28 0 40 -5 17 -11 19 -32 14 -14 -4 -42 -7 -61 -6 -78 1 -75 0 -72 45 l4
41 56 -2 c61 -1 72 6 72 49 0 29 -31 54 -52 42 -7 -4 -28 -8 -47 -8 -35 -1
-36 0 -34 34 0 19 4 47 8 61 6 23 3 27 -26 33 -17 3 -37 6 -43 6 -8 0 -11 -45
-11 -149z m530 -148 c-3 -10 -9 -36 -11 -57 -7 -54 -12 -59 -48 -51 -17 3 -41
6 -53 7 -18 0 -21 4 -14 17 5 9 9 23 9 31 -3 53 1 59 45 63 23 2 50 4 61 5 13
2 16 -2 11 -15z m-496 -353 c19 -45 41 -66 41 -40 0 5 9 14 19 19 16 9 19 7
19 -12 0 -12 3 -32 7 -44 10 -32 -28 -44 -118 -38 -40 3 -81 6 -93 6 -16 1
-21 8 -21 30 0 33 4 35 35 13 21 -15 22 -14 47 42 14 31 25 60 25 65 0 24 20
3 39 -41z"/>
<path d="M537 427 c3 -23 6 -106 5 -184 -1 -155 0 -157 63 -145 25 4 26 7 20
40 -5 29 -4 34 10 28 9 -3 25 -1 36 4 11 6 40 8 69 4 40 -5 49 -10 45 -23 -10
-33 13 -46 76 -43 26 2 26 2 17 64 -8 58 -5 166 5 250 l5 37 -141 -1 c-78 -1
-159 1 -179 5 l-37 5 6 -41z m239 -37 c15 0 22 -7 24 -22 3 -47 2 -119 -2
-123 -4 -5 -99 -7 -150 -4 -23 1 -28 7 -33 39 -4 22 -2 47 4 59 6 11 8 27 4
36 -5 14 -2 16 13 11 10 -3 26 -1 34 5 8 5 31 7 50 4 19 -2 45 -5 56 -5z"/>
</g>
</svg>
