<?xml version="1.0" standalone="no"?>
<!DOCTYPE svg PUBLIC "-//W3C//DTD SVG 20010904//EN"
 "http://www.w3.org/TR/2001/REC-SVG-20010904/DTD/svg10.dtd">
<svg version="1.0" xmlns="http://www.w3.org/2000/svg"
 width="101.000000pt" height="102.000000pt" viewBox="0 0 101.000000 102.000000"
 preserveAspectRatio="xMidYMid meet">
<metadata>
Created by potrace 1.16, written by Peter Selinger 2001-2019
</metadata>
<g transform="translate(0.000000,102.000000) scale(0.100000,-0.100000)"
fill="#000000" stroke="none">
<path d="M372 983 c-3 -73 9 -68 -151 -68 l-146 0 -3 -36 c-3 -40 20 -74 45
-64 24 9 223 16 223 7 0 -4 -12 -25 -26 -45 -32 -48 -128 -111 -194 -128 -28
-7 -50 -15 -50 -18 1 -3 20 -27 43 -54 l43 -47 50 31 c27 17 69 50 93 72 l44
40 19 -24 c10 -13 22 -29 27 -35 7 -8 24 -7 62 6 l53 18 11 -31 c6 -20 18 -33
35 -37 19 -5 25 -13 26 -42 3 -35 2 -36 -41 -43 -25 -3 -53 -2 -64 4 -11 6
-26 8 -35 5 -11 -4 -14 2 -12 31 3 37 -13 55 -51 55 -33 0 -47 -17 -46 -54 1
-30 -3 -37 -24 -42 -13 -4 -36 -1 -49 5 -14 6 -29 9 -33 6 -5 -2 -22 0 -39 4
-59 17 -86 -5 -75 -63 5 -24 9 -26 48 -22 23 1 47 6 53 10 6 3 35 3 64 0 53
-6 54 -7 55 -40 1 -28 -3 -34 -26 -38 -38 -9 -173 -5 -192 5 -23 12 -56 0 -62
-21 -2 -10 -2 -30 0 -44 5 -25 8 -26 52 -20 94 11 209 14 232 6 22 -9 20 -11
-36 -40 -60 -30 -108 -46 -175 -57 -33 -6 -48 -12 -39 -18 2 -1 24 -17 47 -36
l44 -33 81 35 c45 19 107 45 137 58 30 13 57 25 60 27 3 2 -11 16 -30 32 -34
28 -34 28 -10 29 14 1 54 3 90 6 36 3 80 3 98 0 l32 -6 -26 -34 c-25 -33 -25
-35 -8 -41 78 -29 128 -50 183 -80 35 -19 64 -34 65 -32 2 2 15 20 31 41 16
22 24 41 19 46 -5 5 -58 27 -119 50 -60 24 -111 44 -113 46 -9 9 220 11 249 2
24 -8 27 -6 31 24 8 54 0 72 -31 62 -14 -4 -64 -7 -111 -6 -136 3 -128 1 -127
38 1 37 0 37 118 35 69 -1 77 1 82 19 3 12 3 30 0 42 -5 18 -13 20 -82 19
-116 -2 -117 -2 -117 30 0 21 5 28 20 29 161 9 171 12 205 59 11 16 22 39 26
53 5 21 0 27 -37 43 -59 27 -63 26 -64 -13 -1 -47 -27 -64 -83 -57 -24 3 -68
6 -97 6 -30 0 -54 3 -54 8 0 9 193 92 214 92 25 0 19 16 -19 47 l-36 28 74 -3
c81 -3 107 9 107 51 0 41 -11 45 -101 44 -79 -2 -85 -1 -75 15 12 20 0 31 -71
70 l-43 23 -27 -28 c-31 -31 -31 -29 30 -70 15 -10 0 -12 -81 -12 -95 0 -99 1
-96 21 1 12 7 31 13 42 16 30 14 33 -14 26 -15 -4 -25 -2 -25 5 0 6 -15 11
-33 11 -32 0 -34 -2 -35 -37z m136 -207 c2 -49 0 -55 -20 -62 -13 -4 -36 -7
-52 -6 -17 0 -35 -2 -40 -6 -31 -19 -32 -5 -1 41 19 29 35 58 35 65 0 9 7 11
20 7 14 -4 55 6 55 15 0 0 1 -25 3 -54z m207 38 c-24 -19 -116 -67 -120 -62
-1 2 0 19 2 38 l5 35 66 2 c63 3 66 2 47 -13z m-149 -394 c5 0 10 -15 11 -34
1 -33 -1 -34 -43 -41 -24 -3 -52 -2 -63 4 -11 6 -26 8 -34 5 -12 -4 -15 3 -14
30 1 28 5 35 16 31 9 -2 23 0 31 6 8 5 31 7 50 4 19 -2 40 -5 46 -5z"/>
</g>
</svg>
