<?xml version="1.0" standalone="no"?>
<!DOCTYPE svg PUBLIC "-//W3C//DTD SVG 20010904//EN"
 "http://www.w3.org/TR/2001/REC-SVG-20010904/DTD/svg10.dtd">
<svg version="1.0" xmlns="http://www.w3.org/2000/svg"
 width="101.000000pt" height="102.000000pt" viewBox="0 0 101.000000 102.000000"
 preserveAspectRatio="xMidYMid meet">
<metadata>
Created by potrace 1.16, written by Peter Selinger 2001-2019
</metadata>
<g transform="translate(0.000000,102.000000) scale(0.100000,-0.100000)"
fill="#000000" stroke="none">
<path d="M395 968 c-90 -92 -239 -189 -311 -202 -46 -9 -47 -21 -7 -61 l38
-38 45 25 46 26 0 -92 -1 -91 33 -3 c18 -2 32 1 32 7 0 7 29 10 78 10 42 -1
67 -4 54 -6 -23 -5 -47 -47 -36 -64 3 -5 -49 -7 -129 -3 -151 7 -177 0 -177
-44 0 -51 6 -53 153 -48 87 2 137 0 137 -6 0 -6 -7 -25 -16 -44 -31 -64 -128
-134 -232 -164 -40 -13 -57 -30 -29 -30 8 0 32 -13 55 -29 l40 -30 59 35 c32
20 67 44 79 55 l21 20 32 -36 31 -36 57 21 c56 21 57 21 72 2 22 -26 78 -44
101 -32 10 5 62 8 116 6 67 -2 108 2 125 10 24 12 69 84 69 110 0 5 -22 21
-49 36 l-48 27 -9 -41 c-5 -23 -16 -44 -24 -48 -58 -29 -70 -32 -97 -24 -29 8
-41 10 -81 13 -13 0 -21 5 -18 10 9 14 183 111 200 111 15 0 24 30 9 30 -5 0
-18 8 -30 18 -22 16 -20 17 62 17 94 0 103 6 90 65 l-6 29 -108 -2 c-96 -2
-107 0 -103 15 2 9 -5 21 -17 27 -39 21 -24 34 33 29 l54 -4 7 89 c3 49 4 92
0 95 -10 10 -254 12 -260 2 -7 -12 -153 -12 -161 1 -3 6 -31 9 -63 8 -32 -2
-55 1 -53 7 5 14 62 47 62 36 0 -14 340 -11 341 3 1 6 1 13 0 18 -1 4 20 -3
46 -17 75 -37 197 -78 201 -67 2 5 16 28 32 50 27 37 28 41 12 50 -9 5 -39 11
-67 14 -80 9 -106 16 -172 47 -79 37 -153 87 -153 104 0 18 -22 26 -49 19 -12
-3 -21 -1 -21 6 0 28 -48 7 -95 -41z m156 -85 l37 -30 -94 1 -93 1 41 42 c36
36 44 41 57 30 9 -7 32 -27 52 -44z m-36 -213 c4 -7 39 -9 94 -5 l88 5 -1 -29
-1 -29 -133 -7 c-94 -5 -136 -4 -146 4 -8 7 -37 10 -67 9 -52 -3 -54 -2 -54
22 0 25 1 25 77 22 46 -2 79 1 83 7 8 14 52 14 60 1z m58 -137 c-21 -8 -15
-20 19 -41 l32 -20 -80 1 c-78 2 -80 3 -76 26 3 13 -1 27 -9 32 -9 5 12 8 56
8 39 0 64 -3 58 -6z m-66 -157 c-3 -8 -1 -28 6 -45 19 -50 0 -73 -80 -99 -88
-28 -90 -28 -60 7 13 16 35 54 47 85 20 48 27 55 54 59 17 2 33 5 35 5 2 1 1
-4 -2 -12z m205 3 c-20 -16 -89 -67 -99 -73 -9 -5 -12 4 -11 36 l2 43 58 0
c31 0 54 -3 50 -6z"/>
</g>
</svg>
