<?xml version="1.0" standalone="no"?>
<!DOCTYPE svg PUBLIC "-//W3C//DTD SVG 20010904//EN"
 "http://www.w3.org/TR/2001/REC-SVG-20010904/DTD/svg10.dtd">
<svg version="1.0" xmlns="http://www.w3.org/2000/svg"
 width="34.000000pt" height="101.000000pt" viewBox="0 0 34.000000 101.000000"
 preserveAspectRatio="xMidYMid meet">
<metadata>
Created by potrace 1.16, written by Peter Selinger 2001-2019
</metadata>
<g transform="translate(0.000000,101.000000) scale(0.100000,-0.100000)"
fill="#000000" stroke="none">
<path d="M231 997 c-13 -6 -45 -49 -71 -93 -47 -83 -116 -267 -105 -283 3 -5
0 -13 -6 -16 -10 -7 -7 -93 7 -215 5 -44 32 -133 62 -202 32 -72 101 -176 123
-183 23 -8 59 2 59 16 0 6 -14 31 -31 55 -37 55 -89 167 -94 203 -1 14 -4 26
-5 26 -2 0 -9 29 -16 70 -6 35 -5 207 1 250 2 17 6 41 8 55 10 69 63 194 115
273 21 32 23 40 11 48 -19 12 -29 11 -58 -4z"/>
</g>
</svg>
