<?xml version="1.0" standalone="no"?>
<!DOCTYPE svg PUBLIC "-//W3C//DTD SVG 20010904//EN"
 "http://www.w3.org/TR/2001/REC-SVG-20010904/DTD/svg10.dtd">
<svg version="1.0" xmlns="http://www.w3.org/2000/svg"
 width="34.000000pt" height="101.000000pt" viewBox="0 0 34.000000 101.000000"
 preserveAspectRatio="xMidYMid meet">
<metadata>
Created by potrace 1.16, written by Peter Selinger 2001-2019
</metadata>
<g transform="translate(0.000000,101.000000) scale(0.100000,-0.100000)"
fill="#000000" stroke="none">
<path d="M39 1002 c-15 -6 -11 -17 26 -80 47 -80 94 -212 100 -282 5 -54 5
-225 1 -260 -2 -14 -7 -33 -11 -43 -4 -10 -5 -20 -2 -23 13 -13 -68 -200 -116
-268 -16 -23 -17 -30 -6 -37 20 -13 69 -2 85 19 55 71 131 258 151 367 10 55
7 241 -5 259 -3 6 -7 17 -8 26 -3 29 -45 134 -81 208 -56 111 -84 135 -134
114z"/>
</g>
</svg>
