<?xml version="1.0" standalone="no"?>
<!DOCTYPE svg PUBLIC "-//W3C//DTD SVG 20010904//EN"
 "http://www.w3.org/TR/2001/REC-SVG-20010904/DTD/svg10.dtd">
<svg version="1.0" xmlns="http://www.w3.org/2000/svg"
 width="40.000000pt" height="101.000000pt" viewBox="0 0 40.000000 101.000000"
 preserveAspectRatio="xMidYMid meet">
<metadata>
Created by potrace 1.16, written by Peter Selinger 2001-2019
</metadata>
<g transform="translate(0.000000,101.000000) scale(0.100000,-0.100000)"
fill="#000000" stroke="none">
<path d="M170 952 c-17 -8 -20 -93 -5 -125 7 -16 1 -15 -45 8 -55 28 -79 27
-78 -2 0 -10 -2 -30 -6 -44 -7 -24 -4 -27 38 -39 25 -7 53 -9 63 -6 10 4 -6
-17 -36 -47 l-53 -55 46 -32 47 -31 28 62 29 63 31 -62 c34 -67 32 -66 89 -24
l33 25 -50 51 c-50 50 -50 51 -23 53 35 2 83 10 88 16 5 4 -26 97 -32 97 -3 0
-27 -11 -54 -25 l-49 -25 5 23 c19 81 20 107 2 118 -15 10 -47 10 -68 1z"/>
</g>
</svg>
