<?xml version="1.0" standalone="no"?>
<!DOCTYPE svg PUBLIC "-//W3C//DTD SVG 20010904//EN"
 "http://www.w3.org/TR/2001/REC-SVG-20010904/DTD/svg10.dtd">
<svg version="1.0" xmlns="http://www.w3.org/2000/svg"
 width="29.000000pt" height="101.000000pt" viewBox="0 0 29.000000 101.000000"
 preserveAspectRatio="xMidYMid meet">
<metadata>
Created by potrace 1.16, written by Peter Selinger 2001-2019
</metadata>
<g transform="translate(0.000000,101.000000) scale(0.100000,-0.100000)"
fill="#000000" stroke="none">
<path d="M90 302 c-11 -5 -15 -24 -15 -70 0 -50 3 -63 17 -68 10 -3 22 -3 27
0 5 4 8 -2 6 -11 -2 -10 -4 -23 -4 -30 -1 -7 -14 -28 -31 -46 -36 -41 -37 -48
-9 -66 19 -11 25 -10 48 6 14 11 39 44 55 74 25 45 30 66 30 126 1 39 -1 73
-4 76 -9 9 -105 16 -120 9z"/>
</g>
</svg>
