<?xml version="1.0" standalone="no"?>
<!DOCTYPE svg PUBLIC "-//W3C//DTD SVG 20010904//EN"
 "http://www.w3.org/TR/2001/REC-SVG-20010904/DTD/svg10.dtd">
<svg version="1.0" xmlns="http://www.w3.org/2000/svg"
 width="59.000000pt" height="101.000000pt" viewBox="0 0 59.000000 101.000000"
 preserveAspectRatio="xMidYMid meet">
<metadata>
Created by potrace 1.16, written by Peter Selinger 2001-2019
</metadata>
<g transform="translate(0.000000,101.000000) scale(0.100000,-0.100000)"
fill="#000000" stroke="none">
<path d="M70 602 c-17 -8 -22 -83 -6 -94 14 -9 95 -8 101 2 8 12 173 11 180
-1 7 -10 101 -12 157 -3 41 7 53 26 43 67 -6 24 -10 25 -78 25 -40 0 -100 1
-134 1 -35 0 -91 0 -125 -1 -35 0 -76 2 -93 5 -16 4 -37 3 -45 -1z"/>
</g>
</svg>
