<?xml version="1.0" standalone="no"?>
<!DOCTYPE svg PUBLIC "-//W3C//DTD SVG 20010904//EN"
 "http://www.w3.org/TR/2001/REC-SVG-20010904/DTD/svg10.dtd">
<svg version="1.0" xmlns="http://www.w3.org/2000/svg"
 width="57.000000pt" height="101.000000pt" viewBox="0 0 57.000000 101.000000"
 preserveAspectRatio="xMidYMid meet">
<metadata>
Created by potrace 1.16, written by Peter Selinger 2001-2019
</metadata>
<g transform="translate(0.000000,101.000000) scale(0.100000,-0.100000)"
fill="#000000" stroke="none">
<path d="M340 933 c-8 -2 -26 -22 -40 -45 -27 -43 -99 -103 -167 -137 -23 -11
-44 -29 -48 -40 -8 -25 4 -71 19 -71 18 0 113 47 159 78 l42 30 3 -132 c5
-229 4 -320 -3 -358 -14 -73 11 -107 68 -93 23 6 25 11 32 108 5 70 4 102 -4
105 -14 5 -15 52 -1 52 6 0 10 30 10 70 0 40 -4 70 -10 70 -6 0 -10 33 -10 80
0 47 4 80 10 80 6 0 10 18 10 40 0 22 -5 40 -11 40 -7 0 -10 21 -7 60 3 68 -4
77 -52 63z"/>
</g>
</svg>
