<?xml version="1.0" standalone="no"?>
<!DOCTYPE svg PUBLIC "-//W3C//DTD SVG 20010904//EN"
 "http://www.w3.org/TR/2001/REC-SVG-20010904/DTD/svg10.dtd">
<svg version="1.0" xmlns="http://www.w3.org/2000/svg"
 width="57.000000pt" height="101.000000pt" viewBox="0 0 57.000000 101.000000"
 preserveAspectRatio="xMidYMid meet">
<metadata>
Created by potrace 1.16, written by Peter Selinger 2001-2019
</metadata>
<g transform="translate(0.000000,101.000000) scale(0.100000,-0.100000)"
fill="#000000" stroke="none">
<path d="M390 933 c-13 -3 -320 -442 -358 -510 -17 -32 -7 -60 25 -68 14 -3
89 -3 167 1 l142 7 -3 -39 c-2 -22 0 -66 4 -99 8 -57 9 -60 38 -63 50 -4 55 6
58 106 2 87 3 91 23 86 46 -12 75 64 33 87 -12 6 -28 9 -38 6 -14 -3 -16 5
-13 60 3 41 0 63 -7 63 -7 0 -11 29 -11 80 0 47 4 80 10 80 6 0 10 18 10 40 0
22 -5 40 -11 40 -7 0 -10 21 -7 60 3 69 -7 79 -62 63z m-24 -291 c1 -70 5
-140 9 -156 6 -23 4 -32 -10 -43 -22 -15 -101 -18 -110 -3 -3 6 -28 9 -56 7
-27 -1 -48 0 -47 3 2 3 50 76 108 162 58 87 105 157 105 158 0 0 1 -57 1 -128z"/>
</g>
</svg>
