<?xml version="1.0" standalone="no"?>
<!DOCTYPE svg PUBLIC "-//W3C//DTD SVG 20010904//EN"
 "http://www.w3.org/TR/2001/REC-SVG-20010904/DTD/svg10.dtd">
<svg version="1.0" xmlns="http://www.w3.org/2000/svg"
 width="57.000000pt" height="101.000000pt" viewBox="0 0 57.000000 101.000000"
 preserveAspectRatio="xMidYMid meet">
<metadata>
Created by potrace 1.16, written by Peter Selinger 2001-2019
</metadata>
<g transform="translate(0.000000,101.000000) scale(0.100000,-0.100000)"
fill="#000000" stroke="none">
<path d="M119 934 c-11 -3 -15 -13 -11 -30 2 -13 -2 -32 -9 -41 -8 -9 -15 -37
-16 -62 -4 -79 -10 -139 -17 -149 -8 -13 -6 -132 3 -133 55 -10 68 -7 101 26
42 41 73 53 122 49 82 -7 123 -50 127 -134 1 -24 4 -46 6 -49 3 -2 0 -10 -6
-17 -6 -8 -9 -20 -6 -28 7 -18 -26 -71 -56 -91 -37 -24 -134 -26 -163 -2 -26
20 -64 86 -64 112 0 11 -10 14 -40 13 -68 -2 -73 -28 -23 -120 33 -60 58 -81
133 -108 69 -25 87 -25 152 1 96 38 129 72 163 172 38 112 -15 265 -108 314
-67 35 -134 40 -187 14 -24 -12 -45 -21 -46 -21 -1 0 0 12 3 28 3 15 6 43 8
62 5 62 16 90 35 90 11 0 22 5 26 11 4 7 44 9 125 5 109 -5 118 -4 124 14 3
10 3 29 0 43 -5 20 -14 25 -48 30 -23 2 -62 3 -87 0 -64 -6 -160 -6 -195 0
-16 3 -37 3 -46 1z"/>
</g>
</svg>
