<?xml version="1.0" standalone="no"?>
<!DOCTYPE svg PUBLIC "-//W3C//DTD SVG 20010904//EN"
 "http://www.w3.org/TR/2001/REC-SVG-20010904/DTD/svg10.dtd">
<svg version="1.0" xmlns="http://www.w3.org/2000/svg"
 width="101.000000pt" height="101.000000pt" viewBox="0 0 101.000000 101.000000"
 preserveAspectRatio="xMidYMid meet">
<metadata>
Created by potrace 1.16, written by Peter Selinger 2001-2019
</metadata>
<g transform="translate(0.000000,101.000000) scale(0.100000,-0.100000)"
fill="#000000" stroke="none">
<path d="M174 943 l6 -68 -70 2 c-66 2 -70 1 -76 -22 -12 -50 0 -60 73 -60
l67 0 1 -46 0 -45 -65 0 c-61 1 -65 -1 -68 -23 -2 -12 -1 -33 2 -46 5 -20 11
-23 43 -19 85 11 88 11 90 -16 1 -14 4 -36 5 -50 3 -22 -1 -25 -32 -26 -19 0
-45 3 -56 7 -49 17 -77 -10 -67 -65 5 -23 8 -25 47 -20 93 12 101 11 104 -16
10 -102 11 -188 0 -219 -6 -20 -12 -55 -12 -78 -1 -47 7 -52 67 -45 l37 4 -7
52 c-4 28 -7 67 -6 86 2 19 3 45 4 58 1 28 11 21 15 -11 1 -12 3 -25 3 -29 2
-13 37 -14 69 -1 17 7 32 10 32 6 0 -4 -20 -28 -45 -53 l-46 -46 53 -24 52
-23 14 21 c19 29 29 28 63 -9 l29 -31 61 38 c34 20 78 51 96 68 24 20 39 27
47 20 7 -5 48 -33 91 -62 l79 -53 37 43 c20 24 36 48 36 53 -1 6 -25 17 -53
26 -29 9 -72 29 -96 44 l-43 27 32 67 c32 67 70 187 79 250 5 40 -9 53 -43 40
-21 -8 -110 -12 -174 -8 -22 1 -25 5 -22 28 3 14 5 35 5 46 0 19 7 20 154 19
l154 -2 6 34 c9 49 -1 67 -31 60 -14 -4 -36 -4 -50 0 l-25 6 23 18 c25 20 26
18 -47 98 -35 38 -40 38 -85 11 l-34 -20 40 -42 c71 -76 72 -73 -18 -72 -67 0
-78 2 -72 15 3 8 7 31 9 50 1 19 7 50 13 69 6 19 9 36 7 39 -2 2 -29 4 -58 5
l-55 2 -2 -32 c-2 -18 -4 -59 -4 -90 l-2 -58 -60 1 c-33 1 -63 -3 -66 -8 -4
-6 -9 6 -13 26 -6 31 -10 36 -34 34 -15 -1 -46 -1 -69 0 -39 2 -42 4 -45 35
-2 17 1 42 6 55 13 30 -4 42 -62 42 l-43 0 5 -67z m316 -210 c55 2 57 1 49
-20 -4 -12 -8 -30 -8 -40 1 -64 -37 -207 -79 -297 l-29 -61 3 75 c2 41 5 90 7
108 l4 32 -61 0 c-121 -1 -116 -4 -114 46 2 32 6 43 15 39 7 -2 24 1 38 7 18
8 35 8 60 1 30 -10 35 -9 40 8 4 11 4 33 0 49 -6 25 -11 29 -38 28 -18 -1 -49
-1 -69 0 -36 2 -38 4 -38 37 l0 35 63 1 c34 1 65 1 70 0 4 0 8 5 8 12 1 6 6
-5 12 -25 l10 -37 57 2z m232 -159 c37 -6 37 -7 32 -42 -6 -39 -38 -127 -54
-152 -9 -13 -11 -13 -20 0 -6 8 -20 45 -31 83 -16 50 -25 67 -39 67 -13 0 -17
5 -13 20 4 13 11 19 22 16 9 -3 23 -1 31 4 18 11 23 12 72 4z m-385 -166 c3
-58 -10 -76 -49 -74 -31 2 -33 4 -30 36 1 19 3 44 3 55 1 17 9 21 38 22 36 2
37 1 38 -39z m268 -143 c-32 -26 -134 -79 -141 -73 -2 2 14 38 35 79 22 40 45
93 52 117 l13 44 35 -72 35 -71 -29 -24z"/>
</g>
</svg>
