<?xml version="1.0" standalone="no"?>
<!DOCTYPE svg PUBLIC "-//W3C//DTD SVG 20010904//EN"
 "http://www.w3.org/TR/2001/REC-SVG-20010904/DTD/svg10.dtd">
<svg version="1.0" xmlns="http://www.w3.org/2000/svg"
 width="101.000000pt" height="101.000000pt" viewBox="0 0 101.000000 101.000000"
 preserveAspectRatio="xMidYMid meet">
<metadata>
Created by potrace 1.16, written by Peter Selinger 2001-2019
</metadata>
<g transform="translate(0.000000,101.000000) scale(0.100000,-0.100000)"
fill="#000000" stroke="none">
<path d="M440 1001 c0 -5 5 -11 11 -13 8 -3 9 -33 4 -106 l-7 -102 -147 5
c-80 3 -155 8 -167 11 -44 12 -74 -64 -39 -99 21 -21 158 -23 179 -2 17 17 56
20 56 4 0 -7 21 -10 58 -7 l57 3 -4 -48 c-1 -27 2 -54 8 -60 13 -13 15 -54 2
-61 -13 -8 -12 -105 1 -126 8 -12 8 -59 2 -161 -7 -98 -6 -146 1 -151 35 -26
114 7 99 41 -14 33 -27 314 -16 345 6 17 10 74 9 126 l-2 95 155 -3 c85 -2
170 -4 188 -4 19 -1 38 5 43 13 14 22 11 66 -7 83 -16 17 -69 22 -78 8 -3 -4
-21 -6 -41 -4 l-36 4 37 23 38 23 -63 66 c-69 71 -71 71 -136 23 -20 -15 -19
-16 8 -37 15 -12 40 -40 56 -63 l28 -42 -97 0 -97 0 4 65 c1 36 5 76 7 90 13
69 16 65 -51 68 -36 2 -63 -1 -63 -7z"/>
<path d="M289 673 c0 -5 0 -32 1 -61 1 -29 -3 -59 -9 -65 -5 -7 -13 -28 -16
-47 -12 -70 -54 -138 -132 -210 -42 -38 -70 -70 -61 -70 8 0 32 -12 53 -26
l38 -25 40 38 c92 89 150 216 164 361 3 33 10 55 19 59 22 8 17 18 -21 36 -37
18 -74 22 -76 10z"/>
<path d="M624 659 c-3 -6 -3 -22 1 -37 4 -15 7 -96 6 -180 -1 -178 6 -200 72
-232 36 -18 53 -20 125 -14 45 4 82 10 83 13 4 34 12 58 24 71 8 9 15 18 15
21 0 2 -48 5 -107 7 -58 1 -108 4 -110 6 -11 10 -5 298 5 308 18 18 15 25 -15
34 -45 12 -92 14 -99 3z"/>
</g>
</svg>
