<?xml version="1.0" standalone="no"?>
<!DOCTYPE svg PUBLIC "-//W3C//DTD SVG 20010904//EN"
 "http://www.w3.org/TR/2001/REC-SVG-20010904/DTD/svg10.dtd">
<svg version="1.0" xmlns="http://www.w3.org/2000/svg"
 width="101.000000pt" height="102.000000pt" viewBox="0 0 101.000000 102.000000"
 preserveAspectRatio="xMidYMid meet">
<metadata>
Created by potrace 1.16, written by Peter Selinger 2001-2019
</metadata>
<g transform="translate(0.000000,102.000000) scale(0.100000,-0.100000)"
fill="#000000" stroke="none">
<path d="M840 1013 c-8 -2 -22 -7 -30 -11 -8 -3 -31 -7 -50 -9 -51 -3 -123
-11 -229 -24 -74 -9 -98 -9 -117 1 -16 9 -30 10 -43 4 -19 -9 -19 -10 6 -51
23 -39 29 -43 67 -44 34 0 37 -2 19 -9 -28 -11 -28 -19 -5 -62 28 -50 23 -63
-25 -66 -26 -2 -43 1 -43 7 0 6 -7 11 -16 11 -9 0 -14 -8 -13 -17 1 -10 1 -28
0 -41 -1 -22 -2 -22 -18 -7 -12 13 -26 15 -52 10 -20 -3 -70 -5 -111 -4 -108
4 -139 3 -145 -2 -10 -11 -15 -65 -7 -77 9 -14 21 -15 92 -10 38 3 38 3 26
-62 -19 -101 -50 -174 -88 -209 -21 -20 -21 -21 -3 -61 10 -22 19 -40 21 -40
1 0 44 11 95 25 51 13 95 23 97 20 3 -2 14 1 25 7 16 8 23 7 34 -8 12 -17 14
-17 50 0 l38 18 -40 -42 c-22 -23 -52 -49 -67 -58 -16 -9 -28 -19 -28 -22 0
-3 22 -17 49 -32 43 -23 50 -25 63 -12 13 13 18 11 45 -19 l30 -34 61 23 c34
13 82 35 107 50 l46 26 67 -30 c59 -27 133 -52 154 -52 10 0 71 90 61 91 -4 0
-17 2 -28 4 -11 2 -39 6 -61 9 -46 5 -124 27 -124 34 0 2 14 21 32 40 24 28
88 147 88 164 0 2 -53 4 -117 5 -180 2 -169 0 -154 38 9 24 26 26 178 28 97 2
113 4 117 19 2 10 2 26 -1 36 -4 15 -17 18 -106 19 -164 2 -159 1 -131 41 14
21 14 23 -10 32 -70 26 5 38 156 24 l67 -7 -5 -37 c-5 -31 -2 -38 14 -42 11
-3 31 -3 45 -1 23 5 26 11 32 69 10 91 8 94 -69 91 l-65 -2 16 25 c8 14 24 34
34 46 27 29 24 43 -11 58 l-30 12 50 14 c27 7 50 16 50 18 0 3 -12 24 -27 48
-28 44 -34 47 -63 37z m-45 -115 c2 -2 -10 -36 -27 -76 l-30 -72 -41 1 -42 0
32 16 c36 18 36 25 11 98 l-14 40 54 -2 c30 -1 56 -3 57 -5z m-192 -27 c3 -9
12 -37 21 -63 l15 -48 -52 1 c-29 1 -44 3 -34 6 21 5 16 29 -16 82 -14 24 -17
35 -8 40 19 12 69 0 74 -18z m-3 -191 c0 -5 -9 -10 -19 -10 -14 0 -22 -10 -27
-32 -4 -18 -7 -36 -6 -40 2 -10 -55 -20 -75 -14 -13 4 -18 16 -18 46 0 40 0
40 38 40 20 0 37 5 37 10 0 6 16 10 35 10 19 0 35 -4 35 -10z m-219 -83 c11
-3 18 -13 17 -24 0 -10 0 -30 0 -45 2 -24 5 -26 35 -22 71 9 80 9 84 -1 4 -13
-79 -178 -92 -181 -5 -2 -30 40 -54 91 -25 52 -50 95 -57 95 -20 0 -64 -22
-64 -32 0 -5 11 -31 25 -58 29 -57 29 -56 13 -57 -23 -2 -73 -10 -100 -18 -33
-9 -34 -6 -8 46 11 22 31 79 44 126 l23 87 49 3 c27 2 51 9 54 16 2 8 5 6 8
-4 1 -10 12 -19 23 -22z m352 -216 c16 -6 15 -10 -13 -49 -16 -23 -34 -42 -40
-42 -8 0 -46 46 -65 79 -5 10 -3 12 11 7 11 -3 26 -1 34 4 17 11 47 12 73 1z
m-142 -110 c11 -13 19 -27 19 -31 0 -10 -109 -58 -148 -65 -40 -7 -41 -12 28
93 l54 82 15 -27 c7 -16 22 -39 32 -52z"/>
<path d="M65 893 c-8 -35 3 -62 28 -68 12 -3 56 -3 97 -1 41 2 94 4 117 5 36
1 44 5 49 25 3 14 3 34 -1 45 -5 18 -14 19 -145 19 -138 -1 -139 -1 -145 -25z"/>
</g>
</svg>
