<?xml version="1.0" standalone="no"?>
<!DOCTYPE svg PUBLIC "-//W3C//DTD SVG 20010904//EN"
 "http://www.w3.org/TR/2001/REC-SVG-20010904/DTD/svg10.dtd">
<svg version="1.0" xmlns="http://www.w3.org/2000/svg"
 width="101.000000pt" height="102.000000pt" viewBox="0 0 101.000000 102.000000"
 preserveAspectRatio="xMidYMid meet">
<metadata>
Created by potrace 1.16, written by Peter Selinger 2001-2019
</metadata>
<g transform="translate(0.000000,102.000000) scale(0.100000,-0.100000)"
fill="#000000" stroke="none">
<path d="M541 978 c-1 -94 4 -89 -81 -83 -41 2 -84 6 -94 7 -40 6 -47 -94 -7
-107 10 -3 38 -1 62 4 24 6 58 11 74 11 27 0 30 -3 29 -32 -1 -23 -6 -32 -15
-29 -24 7 -113 11 -134 6 -16 -3 -20 -12 -20 -49 l0 -45 77 2 77 2 -6 -25 c-3
-14 -7 -26 -8 -27 -3 -5 -120 -5 -152 -1 -36 5 -43 -7 -35 -60 4 -32 5 -32 51
-28 25 3 58 8 72 12 39 9 42 -8 15 -70 -34 -76 -95 -163 -157 -224 -29 -29
-51 -53 -48 -54 2 -2 26 -14 53 -27 l48 -25 19 25 c32 41 109 158 121 184 7
15 17 24 25 21 7 -3 25 0 38 6 18 8 29 8 36 1 8 -8 -1 -13 -31 -18 -33 -6 -40
-10 -34 -23 4 -10 14 -37 23 -62 9 -25 18 -47 21 -49 5 -4 70 8 82 16 4 2 -3
32 -16 67 l-24 64 21 1 c12 0 38 2 57 3 31 3 35 0 37 -22 1 -14 5 -36 8 -50 3
-14 0 -43 -8 -65 -14 -39 -16 -40 -61 -41 -25 0 -49 -3 -52 -6 -3 -3 4 -21 15
-39 12 -19 21 -42 21 -51 0 -22 49 -18 110 9 l45 19 2 100 c1 54 3 109 4 120
1 23 5 24 86 27 31 1 43 6 46 19 10 39 -2 54 -46 55 -90 4 -86 2 -84 44 1 28
5 38 14 35 7 -3 25 0 38 6 19 9 28 9 37 0 23 -23 45 -14 50 20 10 62 6 65 -85
56 -45 -4 -116 -6 -157 -3 -41 3 -84 6 -96 6 -16 1 -20 6 -16 24 2 15 9 22 18
18 8 -3 51 1 95 8 64 10 85 10 100 0 41 -25 77 10 64 62 -6 22 -10 24 -56 19
-32 -3 -49 -1 -49 7 0 13 -56 15 -64 3 -8 -13 -81 1 -80 16 1 6 2 18 3 25 1 9
37 12 149 11 95 0 150 3 154 10 13 19 8 64 -9 81 -11 12 -24 15 -42 9 -14 -4
-73 -8 -131 -8 l-105 -1 2 38 c1 21 7 44 12 51 15 18 3 26 -30 19 -18 -3 -29
-1 -29 6 0 6 -11 11 -25 11 -22 0 -24 -4 -24 -42z m136 -444 c26 -5 29 -10 31
-48 l1 -43 -55 -7 c-31 -3 -63 -2 -74 4 -10 5 -26 7 -34 4 -20 -8 -20 4 -1 50
12 27 20 36 33 32 9 -3 24 -1 32 4 18 11 28 12 67 4z"/>
<path d="M137 972 l-39 -17 21 -27 c12 -15 35 -56 52 -92 17 -36 33 -66 35
-66 16 0 84 43 84 53 0 21 -90 167 -103 167 -6 0 -29 -8 -50 -18z"/>
<path d="M197 722 c-3 -4 -39 -6 -81 -5 -73 2 -76 1 -82 -23 -3 -13 -3 -35 0
-49 6 -22 11 -24 55 -22 58 2 53 18 53 -181 0 -87 -5 -155 -12 -172 -10 -25
-8 -33 16 -70 l28 -42 15 23 c9 13 49 58 89 101 l74 76 -19 51 c-10 28 -21 50
-25 49 -4 -2 -23 -25 -43 -53 l-36 -50 6 179 c4 139 2 181 -7 188 -16 10 -26
10 -31 0z"/>
</g>
</svg>
