<?xml version="1.0" standalone="no"?>
<!DOCTYPE svg PUBLIC "-//W3C//DTD SVG 20010904//EN"
 "http://www.w3.org/TR/2001/REC-SVG-20010904/DTD/svg10.dtd">
<svg version="1.0" xmlns="http://www.w3.org/2000/svg"
 width="101.000000pt" height="102.000000pt" viewBox="0 0 101.000000 102.000000"
 preserveAspectRatio="xMidYMid meet">
<metadata>
Created by potrace 1.16, written by Peter Selinger 2001-2019
</metadata>
<g transform="translate(0.000000,102.000000) scale(0.100000,-0.100000)"
fill="#000000" stroke="none">
<path d="M542 883 c0 -76 4 -150 10 -165 6 -16 8 -54 4 -91 l-7 -63 -52 3
c-85 5 -93 0 -89 -47 2 -23 1 -76 -3 -118 l-8 -77 -15 48 c-9 26 -18 47 -22
47 -3 0 -23 -23 -44 -50 -21 -28 -42 -52 -46 -55 -4 -3 -6 82 -4 188 l3 192
-111 3 c-120 2 -128 -1 -128 -50 0 -32 27 -62 49 -53 9 4 32 8 51 9 l35 3 2
-106 c1 -58 5 -128 8 -154 9 -61 -1 -113 -26 -138 -19 -19 -19 -20 15 -70 l34
-51 30 45 c17 24 61 77 99 116 l68 73 0 -111 c0 -108 1 -112 23 -118 31 -8 93
6 91 20 -1 7 -1 26 0 42 l1 30 128 0 128 0 -3 -46 c-4 -53 5 -59 70 -51 29 3
38 9 43 28 3 13 3 32 -2 41 -4 10 -6 107 -5 216 2 133 0 197 -7 197 -6 0 -14
-5 -17 -10 -8 -13 -145 -13 -145 0 0 6 -11 10 -25 10 -23 0 -25 4 -26 43 0 23
-2 62 -3 87 l-1 45 125 0 c69 0 130 -3 137 -8 17 -11 43 20 43 53 0 32 -26 64
-43 53 -6 -3 -32 -5 -59 -4 -28 1 -48 -2 -48 -9 0 -5 -16 -10 -35 -10 -19 0
-35 5 -35 10 0 6 -20 10 -45 10 l-45 0 5 60 c3 34 9 69 15 79 13 25 4 30 -36
24 -22 -4 -34 -2 -34 6 0 6 -11 11 -24 11 l-24 0 0 -137z m226 -508 l2 -104
-135 2 c-108 2 -134 5 -130 15 3 8 5 53 5 100 l0 87 128 2 127 3 3 -105z"/>
<path d="M188 976 c-38 -21 -47 -39 -28 -51 6 -3 28 -40 51 -80 l40 -74 45 21
c24 12 44 26 44 32 0 12 -103 176 -110 175 -3 -1 -22 -11 -42 -23z"/>
</g>
</svg>
