<?xml version="1.0" standalone="no"?>
<!DOCTYPE svg PUBLIC "-//W3C//DTD SVG 20010904//EN"
 "http://www.w3.org/TR/2001/REC-SVG-20010904/DTD/svg10.dtd">
<svg version="1.0" xmlns="http://www.w3.org/2000/svg"
 width="101.000000pt" height="101.000000pt" viewBox="0 0 101.000000 101.000000"
 preserveAspectRatio="xMidYMid meet">
<metadata>
Created by potrace 1.16, written by Peter Selinger 2001-2019
</metadata>
<g transform="translate(0.000000,101.000000) scale(0.100000,-0.100000)"
fill="#000000" stroke="none">
<path d="M284 936 l1 -74 -57 3 c-31 1 -61 6 -66 9 -6 3 -22 2 -36 -4 -20 -7
-26 -16 -26 -39 0 -49 9 -61 46 -61 19 0 34 5 34 10 0 6 22 10 49 10 l49 0 4
-52 3 -53 -60 1 c-33 0 -70 4 -82 8 -35 11 -61 -2 -68 -34 -14 -63 -5 -68 110
-68 57 -1 107 3 110 8 9 14 69 12 83 -2 8 -8 15 -8 25 0 15 13 97 11 154 -3
29 -7 33 -5 38 18 4 14 5 35 3 48 -3 22 -6 23 -113 23 l-110 1 -1 53 -1 52 57
0 c39 0 62 -5 70 -15 16 -19 35 -19 54 1 33 32 8 112 -29 97 -9 -3 -46 -6 -83
-7 -77 -1 -75 -5 -54 91 11 49 5 53 -63 53 l-43 0 2 -74z"/>
<path d="M802 948 c0 -32 3 -60 8 -63 12 -8 11 -173 -1 -180 -12 -8 -12 -142
1 -150 13 -8 13 -52 -1 -61 -7 -4 -9 -50 -6 -141 6 -160 0 -172 -78 -153 -5 1
-17 2 -27 1 -15 -1 -14 -6 5 -53 12 -29 22 -55 24 -57 5 -9 101 0 136 14 10 4
24 19 32 34 15 29 18 118 5 126 -11 7 -12 153 0 160 12 8 12 213 0 220 -13 8
-13 52 0 60 6 4 10 54 10 123 0 64 1 130 2 146 3 30 3 30 -53 30 l-56 1 -1
-57z"/>
<path d="M634 872 c-12 -7 -11 -177 2 -329 4 -51 1 -88 -10 -125 -10 -36 -12
-57 -5 -70 6 -10 7 -27 4 -37 -7 -22 16 -30 62 -24 l31 5 7 116 c5 80 4 121
-4 134 -13 22 -15 154 -1 163 5 3 9 39 8 79 -1 68 -3 75 -25 85 -28 13 -53 14
-69 3z"/>
<path d="M279 564 c-6 -16 -9 -41 -7 -56 4 -24 1 -27 -38 -33 -24 -3 -52 -2
-62 4 -43 23 -75 -8 -65 -63 5 -25 20 -32 53 -27 8 2 39 4 68 5 41 2 52 -1 48
-11 -3 -7 -1 -24 6 -37 18 -42 3 -74 -42 -87 -30 -9 -46 -9 -65 -1 -15 7 -33
8 -47 3 -26 -10 -32 -11 -53 -11 -11 0 -14 -10 -11 -38 7 -74 9 -75 106 -56
14 3 39 7 55 10 17 2 41 6 55 8 14 3 50 8 80 11 30 4 71 9 90 11 35 5 78 10
104 13 15 1 26 22 31 63 4 28 4 28 -51 23 -31 -2 -62 -9 -69 -15 -9 -7 -23 -9
-37 -4 -13 5 -32 9 -43 9 -17 0 -20 6 -17 35 1 19 3 45 3 58 1 16 6 22 15 18
8 -3 25 0 39 6 19 8 31 7 58 -5 42 -20 74 -13 80 20 11 56 1 64 -77 63 -127
-2 -123 -4 -105 49 13 36 11 39 -22 47 -13 3 -34 8 -46 11 -18 4 -25 -1 -34
-23z"/>
</g>
</svg>
