<?xml version="1.0" standalone="no"?>
<!DOCTYPE svg PUBLIC "-//W3C//DTD SVG 20010904//EN"
 "http://www.w3.org/TR/2001/REC-SVG-20010904/DTD/svg10.dtd">
<svg version="1.0" xmlns="http://www.w3.org/2000/svg"
 width="101.000000pt" height="101.000000pt" viewBox="0 0 101.000000 101.000000"
 preserveAspectRatio="xMidYMid meet">
<metadata>
Created by potrace 1.16, written by Peter Selinger 2001-2019
</metadata>
<g transform="translate(0.000000,101.000000) scale(0.100000,-0.100000)"
fill="#000000" stroke="none">
<path d="M128 1003 c-20 -5 -21 -12 -18 -98 1 -33 6 -61 11 -63 13 -5 11 -72
-2 -72 -7 0 -10 -40 -8 -122 4 -213 -12 -301 -76 -398 -16 -25 -16 -28 12 -72
15 -26 30 -48 33 -48 18 -1 92 181 106 260 9 56 19 158 19 207 0 38 3 49 12
41 6 -5 22 -8 35 -6 17 2 23 -2 24 -17 0 -11 4 -31 8 -45 4 -16 2 -36 -8 -54
-25 -49 4 -73 66 -55 17 4 35 6 39 3 5 -3 18 0 30 6 12 7 37 9 59 5 34 -6 38
-9 35 -33 -2 -23 -7 -27 -31 -24 -126 11 -194 15 -198 11 -10 -12 -14 -46 -7
-57 9 -15 18 -15 116 -7 76 6 125 -2 125 -20 0 -20 -51 -27 -145 -20 -142 9
-129 11 -139 -20 -8 -27 6 -46 33 -48 21 -1 20 -4 -16 -37 -21 -19 -49 -42
-62 -51 l-24 -15 37 -22 c20 -12 40 -22 44 -22 4 0 34 27 67 61 56 56 59 61
42 74 -17 12 -17 13 5 14 13 0 55 3 93 6 39 3 95 3 125 -1 50 -6 53 -8 28 -16
l-27 -9 30 -47 c16 -25 29 -52 29 -59 0 -16 3 -16 51 -1 22 6 39 15 39 21 0 5
-13 29 -30 54 -34 50 -36 58 -16 50 8 -3 28 -1 44 5 16 6 38 8 48 4 18 -7 18
-8 2 -17 -16 -9 -12 -17 33 -74 l52 -64 38 20 c22 11 39 23 39 27 0 4 -18 26
-40 47 -41 40 -52 62 -25 51 19 -7 48 22 41 41 -3 8 -6 18 -6 22 0 5 -60 8
-132 9 -73 0 -143 1 -155 2 -30 3 -30 28 0 29 12 0 58 3 102 6 44 3 92 1 106
-4 23 -8 28 -6 32 10 9 33 -3 60 -24 54 -10 -3 -27 -1 -38 4 -14 8 -32 6 -67
-6 -37 -13 -54 -14 -76 -5 -16 6 -35 9 -41 6 -7 -2 -13 6 -13 22 -2 17 2 24
11 20 8 -3 26 0 42 6 21 8 42 7 85 -4 31 -8 71 -13 87 -10 28 4 30 6 23 36
-11 52 -2 152 15 149 69 -14 67 -14 85 29 10 23 16 44 13 46 -5 6 -40 10 -117
17 -52 4 -138 38 -138 54 0 18 115 14 130 -4 29 -34 90 -7 90 40 0 33 -33 50
-70 36 -39 -13 -62 -5 -81 28 l-16 27 82 -3 c66 -3 86 0 99 12 17 17 21 43 8
60 -10 14 -239 18 -247 5 -8 -13 -52 -13 -60 0 -8 13 -142 13 -150 1 -7 -12
-172 -13 -180 -1 -3 5 -29 9 -58 9 -29 0 -63 2 -77 5 -14 2 -33 2 -42 -1z
m356 -118 l-1 -30 -99 2 c-54 2 -109 6 -121 9 -28 8 -47 -26 -38 -67 8 -36 34
-44 118 -35 41 5 59 4 52 -3 -15 -14 -112 -51 -118 -44 -4 3 -14 2 -24 -2 -52
-22 -54 -20 -51 94 l3 106 140 0 140 1 -1 -31z m150 25 c13 0 28 -11 39 -29
l17 -29 -60 1 c-49 2 -59 5 -54 17 4 8 7 23 8 33 0 11 6 15 14 12 7 -3 24 -5
36 -5z m-11 -157 c12 -11 33 -27 46 -36 l23 -16 -37 -7 c-27 -5 -40 -3 -47 7
-7 11 -11 11 -15 2 -6 -15 -73 -18 -73 -3 0 6 -14 10 -32 10 l-31 0 38 33 c45
39 92 42 128 10z m-238 -133 c-3 -4 7 -28 21 -54 l26 -46 -44 3 c-42 3 -43 4
-40 38 1 19 3 44 3 55 1 16 6 20 20 17 10 -3 17 -9 14 -13z m124 -4 c0 -11 2
-37 3 -56 3 -34 2 -35 -37 -36 l-40 -1 33 14 c17 7 32 17 32 21 0 4 -13 23
-29 43 l-29 35 33 1 c27 1 33 -3 34 -21z m131 -21 c-24 -25 -40 -45 -34 -45 6
0 19 -6 29 -14 18 -13 17 -14 -15 -12 -33 2 -35 3 -32 36 1 19 3 44 3 55 1 17
9 21 47 23 l46 2 -44 -45z m120 34 c0 -15 -16 -17 -39 -5 -22 12 -22 13 8 13
17 0 31 -4 31 -8z m8 -82 c-3 -19 -9 -22 -50 -23 l-47 -1 27 33 c15 18 34 34
42 36 19 5 32 -16 28 -45z"/>
<path d="M418 243 c-22 -6 -23 0 8 -67 19 -41 30 -56 41 -52 8 4 26 9 39 12
30 8 30 17 -1 71 -26 43 -39 49 -87 36z"/>
</g>
</svg>
