<?xml version="1.0" standalone="no"?>
<!DOCTYPE svg PUBLIC "-//W3C//DTD SVG 20010904//EN"
 "http://www.w3.org/TR/2001/REC-SVG-20010904/DTD/svg10.dtd">
<svg version="1.0" xmlns="http://www.w3.org/2000/svg"
 width="101.000000pt" height="101.000000pt" viewBox="0 0 101.000000 101.000000"
 preserveAspectRatio="xMidYMid meet">
<metadata>
Created by potrace 1.16, written by Peter Selinger 2001-2019
</metadata>
<g transform="translate(0.000000,101.000000) scale(0.100000,-0.100000)"
fill="#000000" stroke="none">
<path d="M442 999 l-23 -9 25 -48 25 -49 -72 -6 c-119 -9 -185 -8 -191 2 -9
14 -92 11 -112 -4 -15 -10 -16 -17 -7 -37 10 -23 10 -51 -2 -93 -8 -29 7 -45
47 -51 47 -8 71 16 66 65 l-3 36 160 2 c88 2 201 3 250 3 50 0 115 0 145 0
l56 0 -3 -49 c-3 -56 6 -65 66 -55 l38 6 0 87 c1 53 -4 89 -11 93 -16 11 -94
10 -101 -1 -8 -13 -166 -13 -182 0 -6 6 -20 9 -30 7 -14 -3 -21 8 -33 52 -14
53 -16 55 -50 56 -19 1 -45 -2 -58 -7z"/>
<path d="M489 773 c-7 -18 -8 -42 -2 -68 l9 -40 -170 0 -171 0 -1 -120 c-2
-188 -19 -248 -93 -325 -22 -24 -41 -44 -41 -46 0 -1 21 -14 46 -29 52 -31 60
-28 101 42 30 52 84 193 78 204 -9 14 7 40 21 35 8 -3 25 -1 38 6 36 16 74 3
74 -24 1 -13 4 -36 7 -53 8 -39 -24 -77 -63 -74 -53 4 -65 0 -57 -19 4 -9 9
-28 10 -42 1 -14 3 -28 4 -31 6 -31 152 8 177 47 13 19 14 28 3 58 -10 27 -10
41 -1 61 7 15 10 30 8 34 -3 4 -1 24 4 44 15 69 9 74 -88 75 -134 1 -128 -1
-124 41 l4 36 122 2 c109 2 122 1 123 -15 6 -53 26 -124 60 -211 l25 -63 -28
-25 c-16 -13 -52 -37 -81 -54 l-52 -30 40 -36 c36 -33 42 -35 63 -23 14 7 43
32 67 56 l42 43 51 -46 c51 -46 136 -93 168 -93 10 0 24 10 32 23 16 25 52
135 45 140 -2 1 -23 15 -46 29 l-41 27 -7 -27 c-4 -15 -9 -35 -11 -46 -2 -10
-5 -21 -8 -23 -6 -7 -59 23 -94 51 l-30 26 59 112 c33 62 59 116 59 119 0 7
-74 39 -89 39 -5 0 -21 -35 -35 -77 -38 -113 -40 -115 -64 -42 -12 35 -24 79
-27 98 -3 19 -7 37 -9 40 -5 8 214 5 221 -3 12 -12 52 -6 68 11 19 18 14 71
-8 85 -6 4 -39 8 -71 8 -51 0 -57 2 -42 13 16 11 14 16 -19 54 l-35 41 -40
-15 c-46 -18 -48 -23 -19 -49 45 -40 42 -50 -14 -44 -49 5 -51 6 -52 35 0 17
3 40 7 52 8 25 -6 33 -58 33 -28 0 -36 -5 -45 -27z"/>
</g>
</svg>
