<?xml version="1.0" standalone="no"?>
<!DOCTYPE svg PUBLIC "-//W3C//DTD SVG 20010904//EN"
 "http://www.w3.org/TR/2001/REC-SVG-20010904/DTD/svg10.dtd">
<svg version="1.0" xmlns="http://www.w3.org/2000/svg"
 width="101.000000pt" height="101.000000pt" viewBox="0 0 101.000000 101.000000"
 preserveAspectRatio="xMidYMid meet">
<metadata>
Created by potrace 1.16, written by Peter Selinger 2001-2019
</metadata>
<g transform="translate(0.000000,101.000000) scale(0.100000,-0.100000)"
fill="#000000" stroke="none">
<path d="M162 990 c-32 -20 -33 -22 -18 -43 9 -12 28 -44 42 -72 15 -27 28
-51 29 -53 7 -8 85 39 85 51 0 17 -83 137 -95 137 -5 0 -25 -9 -43 -20z"/>
<path d="M336 944 c-4 -14 -4 -34 -1 -45 7 -20 46 -35 63 -25 6 3 12 -15 14
-43 l3 -49 -56 5 c-51 5 -58 3 -69 -17 -6 -12 -9 -33 -6 -46 6 -24 9 -24 77
-19 l70 6 -3 -33 -3 -33 -101 3 -101 4 -7 -26 c-10 -40 10 -69 42 -62 32 7
192 16 192 11 0 -2 -37 -26 -83 -54 -93 -56 -177 -95 -186 -86 -3 4 -5 25 -3
48 1 23 3 92 5 152 2 61 7 121 11 134 10 30 -3 38 -59 39 -29 1 -45 -4 -49
-13 -9 -24 -6 -214 4 -220 12 -7 12 -153 0 -160 -12 -7 -12 -153 0 -160 13 -8
13 -52 1 -60 -5 -3 -9 -25 -8 -50 2 -49 10 -54 71 -47 37 4 38 5 30 36 -7 26
-9 164 -3 254 1 24 1 24 33 -7 l32 -31 36 25 c20 14 39 25 41 25 6 0 8 -28 9
-137 2 -100 1 -99 58 -94 30 3 42 19 34 45 -5 15 -3 18 11 13 9 -4 25 -2 35 3
11 6 43 7 74 4 54 -7 56 -8 51 -34 -6 -32 11 -40 64 -32 25 3 31 8 25 21 -4 9
-7 31 -6 49 0 17 1 41 1 52 0 49 1 110 5 173 4 69 4 69 -21 62 -14 -3 -52 -3
-86 1 -57 7 -60 8 -40 21 14 9 58 15 133 17 83 2 114 6 121 17 6 9 9 -1 9 -33
0 -26 5 -50 10 -53 13 -8 13 -52 -1 -61 -7 -4 -9 -39 -4 -108 8 -122 1 -137
-66 -131 -22 2 -39 1 -37 -3 2 -4 14 -28 26 -53 24 -51 31 -53 107 -27 24 8
44 23 52 38 11 24 16 202 13 445 -1 55 1 147 4 205 4 58 4 119 1 136 l-5 32
-90 1 c-56 1 -90 -2 -90 -9 0 -6 -32 -10 -80 -10 -47 0 -80 4 -80 10 0 6 -18
10 -40 10 -22 0 -40 -4 -40 -10 0 -5 -25 -10 -55 -10 -30 0 -55 5 -55 10 0 22
-28 9 -34 -16z m302 -66 c7 -6 44 -9 91 -6 72 4 78 3 73 -14 -2 -10 1 -24 6
-31 16 -19 13 -162 -4 -195 -9 -18 -14 -21 -14 -10 0 20 -72 34 -117 24 -26
-6 -25 -3 17 36 25 24 54 48 65 54 17 9 14 13 -29 43 l-48 34 -23 -29 c-22
-27 -23 -27 -40 -10 -18 18 -54 18 -95 2 -18 -7 -20 24 -5 58 10 23 -10 38
-47 33 -22 -3 -25 -1 -17 10 13 15 168 17 187 1z m-58 -188 c-10 -19 -43 -42
-66 -46 -6 -1 -8 10 -6 27 3 21 10 29 31 32 53 8 52 8 41 -13z m16 -256 c2
-31 0 -32 -53 -38 -30 -4 -62 -2 -73 4 -10 5 -25 8 -33 5 -10 -4 -14 2 -14 22
0 27 2 28 53 26 30 -1 56 3 60 8 3 6 18 9 32 7 22 -2 27 -8 28 -34z m-20 -84
c16 0 20 -7 21 -34 1 -33 1 -34 -53 -40 -31 -4 -63 -2 -74 4 -10 5 -25 7 -33
4 -12 -4 -15 3 -14 30 1 28 5 35 16 31 9 -2 23 0 31 6 8 5 31 7 50 4 19 -2 44
-5 56 -5z"/>
</g>
</svg>
