<?xml version="1.0" standalone="no"?>
<!DOCTYPE svg PUBLIC "-//W3C//DTD SVG 20010904//EN"
 "http://www.w3.org/TR/2001/REC-SVG-20010904/DTD/svg10.dtd">
<svg version="1.0" xmlns="http://www.w3.org/2000/svg"
 width="101.000000pt" height="101.000000pt" viewBox="0 0 101.000000 101.000000"
 preserveAspectRatio="xMidYMid meet">
<metadata>
Created by potrace 1.16, written by Peter Selinger 2001-2019
</metadata>
<g transform="translate(0.000000,101.000000) scale(0.100000,-0.100000)"
fill="#000000" stroke="none">
<path d="M199 1003 c-11 -3 -15 -12 -11 -28 2 -14 1 -55 -3 -91 l-7 -66 -48 6
c-65 9 -100 -6 -100 -41 0 -49 13 -58 82 -58 l63 0 2 -82 1 -83 -76 -24 c-42
-13 -78 -28 -80 -34 -5 -15 18 -94 26 -90 21 11 123 58 126 58 2 0 4 -10 5
-22 0 -13 3 -58 6 -100 3 -42 1 -88 -5 -102 -9 -25 -13 -26 -65 -21 -53 4 -65
-1 -46 -20 5 -6 14 -26 20 -46 7 -22 20 -39 31 -42 26 -7 115 20 132 40 9 12
13 58 15 162 2 208 -2 190 54 213 27 12 49 27 49 35 0 8 4 12 9 8 6 -3 10 -13
10 -23 0 -9 3 -37 7 -62 7 -53 11 -87 13 -117 1 -20 6 -22 41 -19 23 2 43 6
46 9 11 11 7 66 -11 147 -3 14 -7 36 -10 50 -3 14 -9 39 -14 57 -5 17 -7 34
-4 37 3 3 2 13 -2 23 -5 10 -7 22 -6 27 5 23 -20 34 -59 24 -41 -11 -45 -21
-26 -68 4 -11 -6 -20 -37 -32 -23 -10 -44 -18 -47 -18 -3 0 -5 25 -5 55 l0 55
35 0 c47 0 55 8 55 57 0 40 -1 41 -38 47 -21 4 -41 5 -45 2 -9 -5 -7 122 2
150 5 17 2 23 -16 28 -25 6 -44 6 -69 -1z"/>
<path d="M358 939 c-19 -11 -24 -54 -8 -79 8 -13 22 -15 133 -19 25 -1 27 -4
27 -41 0 -22 5 -40 10 -40 6 0 10 -11 10 -25 0 -14 -4 -25 -10 -25 -6 0 -10
-30 -10 -70 0 -40 4 -70 10 -70 6 0 10 -11 10 -25 0 -14 -4 -25 -10 -25 -5 0
-10 -22 -10 -50 0 -30 4 -50 11 -50 11 0 9 -173 -2 -185 -7 -7 -117 -9 -161
-2 -41 6 -49 -6 -40 -61 l4 -33 52 7 c28 3 94 6 146 6 190 -1 221 -1 273 1 28
1 75 -2 103 -6 l52 -9 4 33 c9 61 1 72 -46 63 -37 -7 -65 -7 -133 -3 -17 1
-23 9 -28 39 -4 22 -2 47 4 59 6 11 8 27 4 37 -5 14 -3 16 11 11 63 -24 59
-29 99 120 21 76 40 149 43 162 3 13 11 36 19 51 14 27 14 28 -28 44 -24 9
-48 16 -54 16 -10 0 -22 -31 -28 -75 -2 -11 -6 -33 -9 -50 -3 -16 -8 -43 -11
-60 -14 -76 -38 -146 -46 -133 -12 18 -11 95 1 103 12 7 11 113 -1 121 -13 7
-11 48 2 61 6 6 9 33 8 60 l-4 48 79 1 c87 2 100 10 91 58 -3 16 -7 31 -8 33
-2 1 -26 3 -53 3 -27 0 -130 0 -229 -1 -99 0 -198 2 -220 5 -22 3 -48 1 -57
-5z m294 -171 c-2 -46 1 -79 7 -83 13 -8 14 -52 2 -59 -13 -8 -12 -105 1 -125
7 -12 8 -59 3 -143 l-7 -125 -29 0 c-25 0 -30 5 -35 33 -3 19 -3 53 1 76 3 24
6 75 6 113 -1 39 -1 86 -1 105 1 19 2 91 3 160 l2 125 25 0 c25 0 25 -1 22
-77z"/>
</g>
</svg>
