<?xml version="1.0" standalone="no"?>
<!DOCTYPE svg PUBLIC "-//W3C//DTD SVG 20010904//EN"
 "http://www.w3.org/TR/2001/REC-SVG-20010904/DTD/svg10.dtd">
<svg version="1.0" xmlns="http://www.w3.org/2000/svg"
 width="101.000000pt" height="101.000000pt" viewBox="0 0 101.000000 101.000000"
 preserveAspectRatio="xMidYMid meet">
<metadata>
Created by potrace 1.16, written by Peter Selinger 2001-2019
</metadata>
<g transform="translate(0.000000,101.000000) scale(0.100000,-0.100000)"
fill="#000000" stroke="none">
<path d="M184 915 l5 -97 -69 7 c-67 7 -69 6 -75 -17 -3 -12 -1 -36 3 -53 9
-30 10 -30 73 -29 l64 2 0 -84 0 -84 -80 -26 c-44 -15 -81 -28 -83 -29 -1 -1
3 -25 9 -53 l12 -51 49 25 c86 44 96 46 97 21 0 -12 3 -56 6 -97 3 -42 0 -89
-6 -108 -11 -33 -11 -33 -65 -28 -59 5 -62 1 -39 -44 8 -16 15 -33 14 -37 -4
-25 4 -31 34 -29 49 5 115 25 124 39 4 6 9 82 10 167 2 214 -3 195 57 218 l51
19 1 47 c0 25 -3 46 -8 46 -5 0 -26 -9 -48 -20 -22 -11 -41 -20 -42 -20 -4 0
-4 140 -1 140 1 0 13 -4 27 -10 46 -17 74 11 61 63 -6 22 -10 24 -49 20 l-42
-5 4 58 c2 33 5 77 5 99 l2 40 -53 3 -53 3 5 -96z"/>
<path d="M616 990 c-8 -29 -5 -85 6 -97 7 -8 8 -39 4 -85 l-7 -73 -44 0 -44 0
4 93 c2 51 7 98 11 104 11 17 -18 29 -59 24 -21 -2 -41 -7 -44 -10 -7 -6 -7
-33 -1 -136 l4 -75 -37 3 c-31 3 -37 0 -42 -20 -10 -35 -8 -45 9 -62 16 -17
110 -21 119 -5 7 11 173 11 180 0 7 -13 85 -11 106 2 12 7 41 7 95 0 56 -7 81
-7 87 1 7 10 3 74 -5 82 -2 1 -39 -2 -83 -8 -60 -9 -80 -9 -83 0 -2 7 -19 12
-38 12 -33 0 -34 1 -34 38 l0 37 95 0 c90 0 94 1 100 23 11 46 -21 86 -50 62
-6 -5 -43 -9 -82 -7 -56 2 -69 5 -67 17 2 8 5 33 7 55 l4 40 -53 0 c-40 0 -55
-4 -58 -15z"/>
<path d="M406 587 c-3 -11 -1 -28 4 -36 5 -9 7 -59 5 -111 -5 -101 -6 -190 -4
-242 1 -18 -2 -49 -6 -69 -8 -41 5 -50 63 -41 30 4 31 5 31 56 0 97 2 104 25
105 11 0 50 3 86 6 36 3 93 3 126 0 l62 -6 -2 -32 c-2 -32 -2 -32 -49 -30 -27
1 -47 -1 -44 -5 2 -4 12 -26 21 -49 22 -49 40 -56 101 -36 70 24 67 7 64 328
-1 55 1 116 4 137 l5 36 -51 1 c-57 0 -131 0 -277 0 -52 -1 -109 1 -127 3 -25
4 -33 1 -37 -15z m335 -53 c55 -5 55 -6 56 -39 l1 -34 -62 -6 c-33 -3 -90 -3
-126 0 -36 3 -75 6 -86 6 -18 1 -22 7 -21 35 1 26 5 33 16 29 9 -2 22 -1 30 4
16 11 113 13 192 5z m0 -140 c55 -5 55 -6 56 -39 l1 -34 -62 -6 c-33 -3 -90
-3 -126 0 -36 3 -75 6 -86 6 -18 1 -22 7 -21 35 1 26 5 33 16 29 9 -2 22 -1
30 4 16 11 113 13 192 5z"/>
</g>
</svg>
