<?xml version="1.0" standalone="no"?>
<!DOCTYPE svg PUBLIC "-//W3C//DTD SVG 20010904//EN"
 "http://www.w3.org/TR/2001/REC-SVG-20010904/DTD/svg10.dtd">
<svg version="1.0" xmlns="http://www.w3.org/2000/svg"
 width="101.000000pt" height="102.000000pt" viewBox="0 0 101.000000 102.000000"
 preserveAspectRatio="xMidYMid meet">
<metadata>
Created by potrace 1.16, written by Peter Selinger 2001-2019
</metadata>
<g transform="translate(0.000000,102.000000) scale(0.100000,-0.100000)"
fill="#000000" stroke="none">
<path d="M165 1008 c-11 -6 -30 -17 -43 -24 l-22 -15 37 -49 c21 -27 45 -59
54 -71 l16 -23 39 24 c21 13 41 25 43 27 3 2 -100 144 -103 143 -1 0 -10 -6
-21 -12z"/>
<path d="M316 938 c-9 -35 -7 -45 9 -61 16 -17 101 -21 110 -6 8 12 167 10
183 -3 7 -6 44 -9 91 -6 72 4 78 3 73 -14 -2 -10 0 -24 6 -31 14 -16 14 -174
1 -182 -5 -4 -10 -18 -10 -33 -1 -19 -3 -21 -6 -8 -4 15 -11 17 -41 11 -21 -4
-52 -7 -69 -6 -18 0 -61 1 -95 0 -209 -1 -258 0 -304 5 -47 6 -52 5 -57 -15
-3 -11 -3 -27 -1 -34 7 -17 43 -26 63 -15 14 7 93 7 240 -1 31 -2 32 -4 15
-16 -20 -15 -177 -16 -205 -2 -9 4 -25 5 -37 2 -19 -4 -21 -10 -16 -47 9 -62
9 -99 0 -118 -7 -15 -2 -16 43 -12 28 2 51 2 51 0 0 -10 -91 -58 -133 -71
l-42 -13 1 247 c1 136 5 257 9 270 9 28 5 32 -45 41 -30 6 -45 4 -56 -7 -16
-16 -20 -108 -4 -118 11 -7 12 -153 0 -160 -12 -7 -12 -153 0 -160 12 -8 13
-52 1 -59 -13 -8 -12 -108 1 -123 6 -8 8 -30 4 -52 -7 -44 5 -52 63 -43 25 3
31 8 25 21 -4 9 -7 32 -6 51 4 94 0 89 32 50 l28 -34 51 32 51 31 -6 -27 c-4
-15 -10 -34 -14 -42 -7 -11 9 -59 25 -78 2 -2 33 17 70 42 37 25 72 47 78 49
11 3 14 63 4 74 -4 4 -25 -3 -46 -15 l-39 -22 1 36 c1 28 8 40 32 57 16 12 41
23 55 25 55 7 146 6 168 -1 21 -8 22 -6 22 50 -1 32 0 71 1 86 0 16 -1 30 -4
33 -3 3 -30 6 -61 7 -49 2 -54 4 -39 15 13 10 38 12 97 7 60 -5 81 -4 87 7 6
8 9 0 9 -24 0 -20 5 -40 10 -43 13 -8 13 -52 -1 -61 -7 -4 -9 -38 -4 -108 8
-112 3 -123 -52 -132 -23 -4 -36 3 -62 30 l-34 35 42 17 c22 9 41 20 41 24 0
11 -49 50 -62 50 -6 0 -23 -11 -40 -25 l-29 -25 -35 27 -35 26 -22 -21 -21
-22 85 -87 c46 -49 87 -89 91 -91 4 -2 18 9 31 23 l23 28 26 -31 c14 -17 28
-37 30 -44 7 -19 85 8 102 35 15 22 19 148 16 422 0 55 1 168 4 251 l5 152
-95 1 c-58 1 -94 -3 -94 -9 0 -6 -32 -10 -80 -10 -47 0 -80 4 -80 10 0 6 -18
10 -40 10 -22 0 -40 -4 -40 -10 0 -5 -25 -10 -55 -10 -30 0 -55 5 -55 10 0 20
-28 9 -34 -12z m265 -484 c21 -4 26 -11 25 -30 -1 -31 -31 -37 -141 -29 -44 3
-89 6 -100 6 -14 1 -20 9 -21 26 -2 18 2 22 15 19 9 -3 22 -2 30 3 15 10 153
14 192 5z"/>
<path d="M686 843 c-7 -7 -80 -11 -196 -12 -19 0 -83 2 -142 4 -88 3 -107 1
-112 -12 -3 -8 -4 -19 0 -24 10 -18 14 -111 4 -129 -13 -24 15 -54 39 -44 22
9 133 16 241 15 11 0 35 1 53 2 17 1 59 -2 93 -6 l61 -8 0 103 c0 65 -4 106
-11 110 -14 10 -21 10 -30 1z m-288 -104 c-3 -28 -7 -32 -39 -34 -33 -2 -35 0
-31 26 3 21 11 29 31 32 14 2 30 5 34 6 5 0 7 -13 5 -30z m118 -4 c-1 -25 -5
-30 -26 -31 -23 -1 -25 2 -22 30 3 24 8 31 26 31 18 0 22 -5 22 -30z m129 2
c0 -30 -2 -32 -27 -29 -36 6 -40 48 -5 55 12 2 24 5 27 6 3 0 5 -14 5 -32z"/>
</g>
</svg>
