<?xml version="1.0" standalone="no"?>
<!DOCTYPE svg PUBLIC "-//W3C//DTD SVG 20010904//EN"
 "http://www.w3.org/TR/2001/REC-SVG-20010904/DTD/svg10.dtd">
<svg version="1.0" xmlns="http://www.w3.org/2000/svg"
 width="101.000000pt" height="101.000000pt" viewBox="0 0 101.000000 101.000000"
 preserveAspectRatio="xMidYMid meet">
<metadata>
Created by potrace 1.16, written by Peter Selinger 2001-2019
</metadata>
<g transform="translate(0.000000,101.000000) scale(0.100000,-0.100000)"
fill="#000000" stroke="none">
<path d="M155 980 c-4 -16 -4 -34 0 -39 3 -6 8 -50 11 -99 l5 -89 -40 3 c-22
1 -45 5 -50 8 -31 20 -62 -44 -41 -84 12 -22 19 -23 105 -6 19 3 20 -2 22
-140 1 -141 1 -144 -20 -145 -25 -1 -28 -2 -80 -13 -35 -8 -38 -11 -32 -35 4
-14 9 -37 10 -49 2 -13 5 -26 8 -28 2 -2 50 14 108 35 57 21 127 44 155 51
l50 13 0 48 c0 53 -3 56 -44 35 -74 -37 -71 -41 -69 98 2 124 2 125 25 119 31
-8 72 5 72 22 0 24 17 18 39 -14 24 -34 26 -42 8 -35 -8 3 -26 0 -40 -5 -31
-12 -37 -50 -11 -76 17 -17 99 -19 120 -3 7 5 58 7 115 4 57 -2 120 -5 140 -5
44 -1 41 11 41 -195 -1 -104 -4 -151 -13 -156 -6 -4 -31 -6 -54 -3 l-43 4 22
-55 c20 -52 23 -55 51 -52 47 6 102 32 114 54 7 13 11 86 10 189 -1 92 0 178
1 189 2 22 6 23 77 26 35 1 46 17 37 53 -5 20 -14 24 -64 30 -33 4 -65 3 -72
-1 -7 -4 2 9 20 29 17 21 32 41 32 45 0 4 -42 30 -94 58 l-95 50 100 -3 c103
-2 129 7 129 45 -1 42 -15 47 -133 47 l-114 0 9 35 c17 65 18 63 -44 64 -65 1
-71 -5 -62 -64 l6 -39 -70 6 c-96 8 -140 -2 -148 -32 -3 -13 0 -33 6 -45 11
-21 16 -22 103 -15 88 7 91 7 77 -11 -27 -34 -54 -53 -95 -66 -48 -16 -105
-12 -105 7 0 16 -23 26 -39 16 -21 -13 -59 0 -65 22 -9 35 -7 95 4 102 6 4 9
18 8 33 -1 15 2 38 6 51 10 30 -6 41 -61 41 -38 0 -42 -3 -48 -30z m609 -308
c42 -31 46 -37 30 -43 -28 -11 -84 -10 -84 1 0 6 -18 10 -40 10 -22 0 -40 -4
-40 -10 0 -5 -16 -10 -35 -10 -19 0 -35 5 -35 10 0 6 -21 10 -47 10 l-48 1 46
24 c25 13 61 39 80 57 l34 34 45 -24 c25 -14 67 -41 94 -60z"/>
<path d="M397 478 c-3 -12 -2 -29 3 -39 6 -9 8 -62 7 -117 -3 -90 -2 -101 15
-105 29 -8 58 4 58 23 0 12 8 18 23 18 12 1 37 4 55 8 28 5 34 3 39 -14 6 -23
29 -32 67 -25 26 5 26 7 19 57 -8 56 -8 84 2 165 l6 53 -28 -8 c-31 -9 -143
-9 -214 0 -42 5 -47 4 -52 -16z m198 -103 l0 -50 -35 3 c-19 1 -45 3 -57 3
-20 1 -22 6 -21 45 2 34 6 43 18 39 8 -2 22 0 30 5 8 6 26 9 40 8 23 -3 25 -7
25 -53z"/>
</g>
</svg>
