<?xml version="1.0" standalone="no"?>
<!DOCTYPE svg PUBLIC "-//W3C//DTD SVG 20010904//EN"
 "http://www.w3.org/TR/2001/REC-SVG-20010904/DTD/svg10.dtd">
<svg version="1.0" xmlns="http://www.w3.org/2000/svg"
 width="101.000000pt" height="101.000000pt" viewBox="0 0 101.000000 101.000000"
 preserveAspectRatio="xMidYMid meet">
<metadata>
Created by potrace 1.16, written by Peter Selinger 2001-2019
</metadata>
<g transform="translate(0.000000,101.000000) scale(0.100000,-0.100000)"
fill="#000000" stroke="none">
<path d="M297 989 c-3 -12 -2 -30 4 -40 5 -10 9 -20 9 -22 0 -3 -59 -3 -132
-1 -98 3 -134 1 -140 -8 -13 -21 -9 -66 8 -82 20 -20 78 -21 98 -1 17 17 56
20 56 4 0 -7 19 -10 53 -7 51 3 54 2 53 -20 -1 -22 -5 -23 -78 -25 -42 -1 -79
-5 -82 -8 -3 -3 -9 -19 -12 -36 -6 -32 18 -69 38 -57 6 4 37 8 69 8 52 1 58
-1 62 -21 3 -17 -2 -23 -22 -27 -38 -8 -163 -5 -182 5 -23 12 -56 0 -62 -21
-2 -10 -2 -30 0 -44 5 -25 8 -26 52 -20 66 9 198 10 206 2 4 -3 4 -15 1 -26
-8 -24 -84 -39 -114 -23 -43 23 -75 -8 -65 -63 5 -22 9 -25 42 -21 20 2 46 7
57 10 42 13 37 -16 -12 -66 -37 -37 -126 -94 -182 -115 -1 -1 15 -21 37 -44
l40 -44 38 27 c21 14 59 46 86 70 26 24 48 41 48 38 1 -3 3 -13 4 -21 0 -8 5
-27 9 -42 5 -17 2 -46 -7 -79 -22 -75 -9 -92 61 -81 31 4 37 13 34 53 -1 11 7
17 21 18 12 1 45 3 72 6 28 2 103 1 168 -2 l118 -6 -6 -27 c-7 -32 8 -39 69
-32 37 4 38 5 30 36 -9 36 -9 140 0 207 6 45 5 46 -22 47 -15 1 -36 2 -47 3
-11 0 -52 -4 -90 -10 -69 -11 -176 -9 -265 4 -25 4 -55 7 -67 7 -19 0 -20 3
-11 23 6 13 20 23 32 24 37 3 218 2 337 -1 l116 -3 1 45 c2 96 -5 89 84 92 30
1 37 6 41 26 3 13 2 32 0 42 -4 16 -8 17 -24 7 -14 -9 -26 -9 -50 0 -17 7 -36
10 -43 7 -13 -5 -14 45 -2 65 4 5 4 21 0 35 -5 23 -12 25 -85 32 -44 4 -81 10
-84 13 -13 22 20 31 135 36 128 6 140 10 140 50 0 40 -10 43 -146 41 l-131 -1
8 35 c4 19 6 37 3 39 -3 3 -27 5 -54 6 -54 0 -66 -12 -55 -57 6 -23 5 -23 -82
-23 l-88 0 0 40 0 40 -46 3 c-41 3 -47 0 -52 -19z m268 -180 c0 -32 -7 -33
-114 -21 -44 6 -55 11 -57 27 -3 19 3 20 84 21 l88 1 -1 -28z m25 -110 c0 -8
20 -10 69 -5 69 7 69 7 67 -18 -1 -24 -4 -25 -91 -30 -49 -3 -112 -3 -140 -1
-27 3 -59 5 -70 6 -13 1 -21 9 -22 20 -2 17 6 19 58 19 33 0 59 4 59 10 0 6
16 10 35 10 19 0 35 -5 35 -11z m36 -126 c98 -5 102 -6 100 -28 -1 -22 -5 -23
-101 -29 -55 -3 -122 -3 -150 -1 -27 3 -59 5 -71 6 -16 1 -20 6 -16 25 3 17 9
23 21 20 9 -3 23 -1 31 4 17 11 39 11 186 3z m75 -262 c44 -1 45 -2 46 -35 l1
-33 -117 -6 c-64 -3 -138 -4 -166 -2 -27 3 -60 5 -71 6 -18 1 -22 7 -21 35 1
26 5 33 16 29 9 -2 23 0 31 5 8 5 65 8 125 6 61 -2 130 -5 156 -5z"/>
</g>
</svg>
