<?xml version="1.0" standalone="no"?>
<!DOCTYPE svg PUBLIC "-//W3C//DTD SVG 20010904//EN"
 "http://www.w3.org/TR/2001/REC-SVG-20010904/DTD/svg10.dtd">
<svg version="1.0" xmlns="http://www.w3.org/2000/svg"
 width="101.000000pt" height="102.000000pt" viewBox="0 0 101.000000 102.000000"
 preserveAspectRatio="xMidYMid meet">
<metadata>
Created by potrace 1.16, written by Peter Selinger 2001-2019
</metadata>
<g transform="translate(0.000000,102.000000) scale(0.100000,-0.100000)"
fill="#000000" stroke="none">
<path d="M313 976 l4 -44 -113 4 c-129 5 -164 -4 -164 -40 0 -51 21 -57 154
-51 l123 5 -1 -35 c-1 -39 -15 -49 -52 -35 -14 6 -43 10 -65 10 -33 0 -41 -4
-50 -26 -5 -15 -7 -35 -4 -45 7 -20 47 -35 65 -24 5 3 54 8 108 10 l97 4 -25
-20 -25 -21 23 -18 c18 -15 19 -19 6 -24 -22 -9 -173 -6 -179 4 -2 4 -38 8
-79 8 -70 1 -75 -1 -80 -23 -3 -13 -3 -30 0 -38 7 -19 42 -29 63 -18 20 11
103 13 195 5 l68 -6 -28 -19 c-45 -29 -152 -62 -239 -73 -11 -2 -30 -6 -43
-10 -23 -8 -23 -8 15 -41 l38 -34 -42 4 c-33 3 -42 0 -46 -15 -13 -51 22 -91
62 -71 21 11 169 13 206 2 l30 -8 -49 -31 c-50 -32 -114 -57 -176 -68 -19 -3
-42 -7 -50 -9 -8 -2 -21 -4 -29 -4 -20 -1 50 -79 72 -80 28 -1 145 48 202 84
28 18 69 51 93 73 44 44 58 52 49 28 -3 -8 -1 -27 5 -43 8 -21 7 -42 -4 -85
-8 -31 -11 -63 -7 -70 7 -11 85 -16 95 -6 1 2 -2 36 -7 76 -7 49 -7 78 0 91 6
11 8 28 4 38 -3 10 16 -5 43 -32 60 -62 118 -96 217 -130 89 -30 106 -31 114
-7 4 9 18 32 31 50 l24 32 -23 1 c-115 7 -212 35 -280 82 -21 15 -21 15 3 17
13 1 78 2 145 3 108 1 122 3 126 19 3 10 3 27 0 38 -5 19 -13 20 -177 19 -189
-1 -216 0 -216 10 0 4 19 13 42 21 41 14 43 17 45 60 1 25 3 55 4 68 1 16 6
22 16 18 8 -3 23 -1 34 5 21 11 109 2 109 -11 0 -5 -12 -23 -26 -40 -30 -35
-29 -37 9 -44 15 -2 35 -7 46 -11 15 -4 24 7 49 64 17 38 34 82 38 97 7 27 6
27 -27 19 -19 -5 -63 -8 -99 -7 -122 2 -117 -4 -49 75 67 77 66 91 -9 85 -30
-2 -39 1 -49 21 -7 13 -13 26 -13 30 0 4 39 6 88 4 118 -3 189 6 196 24 3 8 3
26 0 39 -6 24 -8 25 -75 18 -49 -5 -73 -3 -84 6 -8 7 -34 11 -64 8 -43 -3 -48
-1 -40 14 20 37 11 55 -30 62 -58 9 -70 1 -67 -45 l3 -39 -92 3 c-99 2 -103 5
-80 60 4 9 3 17 -1 18 -5 1 -31 3 -57 5 l-48 4 4 -44z m267 -149 c0 -29 11
-44 35 -50 11 -3 -25 -3 -80 -1 -55 2 -113 3 -128 4 -26 0 -27 1 -12 16 9 10
15 24 12 33 -3 14 9 16 85 18 85 2 88 1 88 -20z m20 -152 c-19 -19 -38 -35
-42 -35 -4 0 -29 13 -55 29 l-48 30 55 4 c30 2 71 4 89 5 l35 2 -34 -35z m-53
-152 c1 -18 -2 -33 -5 -34 -4 -1 -22 -2 -40 -4 -40 -3 -50 -11 -34 -27 20 -20
15 -40 -9 -33 -19 6 -21 4 -15 -18 6 -24 3 -25 -42 -31 -75 -9 -180 -5 -198 8
-14 11 -10 14 27 25 68 21 164 69 220 111 63 47 95 48 96 3z"/>
</g>
</svg>
