<?xml version="1.0" standalone="no"?>
<!DOCTYPE svg PUBLIC "-//W3C//DTD SVG 20010904//EN"
 "http://www.w3.org/TR/2001/REC-SVG-20010904/DTD/svg10.dtd">
<svg version="1.0" xmlns="http://www.w3.org/2000/svg"
 width="101.000000pt" height="103.000000pt" viewBox="0 0 101.000000 103.000000"
 preserveAspectRatio="xMidYMid meet">
<metadata>
Created by potrace 1.16, written by Peter Selinger 2001-2019
</metadata>
<g transform="translate(0.000000,103.000000) scale(0.100000,-0.100000)"
fill="#000000" stroke="none">
<path d="M304 996 c-3 -19 -3 -40 1 -46 5 -8 -26 -9 -110 -6 -64 3 -120 8
-124 10 -14 9 -31 -10 -37 -40 -8 -40 18 -68 55 -60 14 3 67 7 118 9 l91 2 4
-31 4 -31 -100 4 c-151 7 -144 13 -143 -111 0 -115 2 -118 64 -109 30 5 31 6
32 60 0 31 2 58 5 60 2 3 38 4 80 4 41 0 78 4 81 9 9 14 69 12 83 -2 8 -8 15
-8 24 -1 16 14 175 17 182 4 8 -12 94 -12 102 0 6 10 48 12 80 3 19 -5 21 -12
18 -46 -2 -22 -6 -43 -8 -47 -8 -12 9 -30 29 -32 11 -1 32 -1 46 -1 l27 2 1
99 1 99 -104 7 c-58 4 -116 5 -130 1 -17 -4 -25 -1 -28 12 -10 44 -3 47 110
46 60 -1 118 -4 129 -8 31 -10 56 20 49 58 -8 38 -22 47 -55 35 -14 -6 -42 -7
-63 -4 -25 5 -38 3 -38 -4 0 -6 -11 -11 -25 -11 -14 0 -25 5 -25 10 0 6 -21
10 -46 10 -29 0 -43 4 -39 11 4 5 9 22 11 37 4 26 3 27 -46 27 -55 0 -66 -12
-54 -58 l6 -26 -85 2 c-76 2 -84 4 -76 19 5 9 9 28 9 42 0 24 -3 26 -50 26
-48 0 -49 -1 -56 -34z m264 -159 l-3 -32 -81 0 c-61 0 -80 3 -77 13 3 7 0 18
-6 26 -6 7 -9 15 -7 17 3 2 44 5 91 6 l86 2 -3 -32z"/>
<path d="M195 670 c-8 -25 -3 -92 7 -106 5 -7 7 -48 5 -93 -4 -85 -1 -89 43
-82 95 16 402 17 441 3 14 -6 37 -8 53 -5 27 6 27 6 19 62 -8 61 -8 97 2 151
7 40 9 80 4 84 -2 2 -35 -1 -72 -7 -49 -8 -77 -7 -100 1 -18 6 -54 8 -82 5
-65 -6 -230 -6 -277 0 -30 4 -38 2 -43 -13z m431 -49 c48 -1 52 -3 50 -25 -1
-23 -4 -23 -121 -29 -66 -3 -142 -4 -170 -2 -27 3 -59 5 -70 6 -14 1 -20 9
-21 26 -2 18 2 22 15 19 9 -3 23 -1 31 4 8 5 65 8 125 6 61 -2 133 -5 161 -5z
m0 -110 c48 -1 52 -3 50 -25 -1 -23 -4 -23 -121 -29 -66 -3 -142 -4 -170 -2
-27 3 -59 5 -70 6 -14 1 -20 9 -21 26 -2 18 2 22 15 19 9 -3 23 -1 31 4 8 5
65 8 125 6 61 -2 133 -5 161 -5z"/>
<path d="M438 393 c-22 -5 -22 -8 -2 -38 l16 -25 -63 -1 c-35 -1 -111 -3 -168
-5 -57 -2 -111 1 -121 6 -41 22 -73 -10 -63 -63 4 -23 9 -25 41 -20 133 17
273 13 241 -8 -22 -14 -116 -48 -151 -55 -18 -3 -40 -7 -48 -9 -8 -2 -21 -4
-29 -4 -14 -1 47 -79 63 -80 21 -2 274 103 269 112 -3 5 -19 17 -35 27 -29 17
-29 18 -7 19 13 0 56 3 94 6 39 3 85 3 104 -1 l34 -6 -28 -22 c-27 -22 -28
-46 -1 -46 15 0 164 -72 191 -93 17 -13 22 -12 57 16 21 17 38 33 38 37 0 7
-74 43 -180 88 -53 23 -54 23 127 25 108 1 122 3 126 19 3 10 3 27 0 38 -5 19
-13 20 -177 19 -224 -1 -216 -3 -228 32 -7 21 -17 29 -33 29 -13 0 -29 2 -37
4 -7 2 -21 2 -30 -1z"/>
</g>
</svg>
