<?xml version="1.0" standalone="no"?>
<!DOCTYPE svg PUBLIC "-//W3C//DTD SVG 20010904//EN"
 "http://www.w3.org/TR/2001/REC-SVG-20010904/DTD/svg10.dtd">
<svg version="1.0" xmlns="http://www.w3.org/2000/svg"
 width="101.000000pt" height="103.000000pt" viewBox="0 0 101.000000 103.000000"
 preserveAspectRatio="xMidYMid meet">
<metadata>
Created by potrace 1.16, written by Peter Selinger 2001-2019
</metadata>
<g transform="translate(0.000000,103.000000) scale(0.100000,-0.100000)"
fill="#000000" stroke="none">
<path d="M304 982 l4 -49 -133 3 -133 2 -7 -25 c-12 -48 6 -70 55 -64 8 1 60
3 115 6 l100 4 1 -35 c1 -36 -5 -41 -24 -22 -10 10 -18 6 -39 -22 -41 -53 -92
-100 -151 -137 l-54 -35 44 -27 43 -28 30 26 c16 14 57 51 90 81 33 31 71 63
85 71 22 15 23 18 10 34 -14 16 -13 17 6 11 40 -13 77 21 54 49 -17 20 -2 24
104 29 l97 4 -3 -27 c-2 -19 -10 -27 -26 -29 -20 -3 -23 -8 -20 -35 3 -31 2
-32 -32 -30 -19 2 -47 6 -62 9 -42 10 -75 -3 -82 -30 -11 -43 2 -56 49 -52 23
1 48 6 54 11 7 4 27 4 46 1 27 -5 33 -11 31 -31 0 -14 -5 -26 -11 -26 -45 -7
-122 -6 -135 1 -22 12 -58 2 -62 -17 -2 -12 -9 -10 -32 8 l-29 23 -26 -35
c-62 -82 -141 -157 -239 -225 -4 -3 61 -63 68 -64 3 0 28 21 56 48 44 39 52
44 53 27 0 -11 3 -46 5 -78 3 -36 -1 -75 -10 -99 -10 -29 -11 -45 -3 -60 6
-11 8 -30 5 -43 -7 -26 14 -36 58 -28 l27 5 -2 177 c-2 215 -1 223 34 266 24
30 30 33 53 25 16 -6 32 -6 43 -1 14 8 85 9 137 2 7 0 11 -12 10 -25 -1 -21
-8 -25 -43 -31 -24 -3 -48 -3 -54 1 -7 4 -27 8 -45 10 -25 2 -33 -2 -37 -17
-8 -29 3 -59 22 -61 18 -1 21 -1 102 7 55 5 57 5 55 -19 -1 -21 -7 -25 -49
-30 -26 -4 -53 -4 -59 0 -6 4 -30 9 -53 10 -36 3 -44 1 -48 -16 -10 -40 2 -58
37 -56 18 2 38 6 43 9 6 4 38 4 71 1 55 -6 60 -9 58 -30 -1 -18 -8 -25 -31
-29 -28 -5 -106 -1 -182 8 -24 3 -33 -1 -36 -15 -12 -45 24 -79 62 -59 18 10
123 13 163 5 24 -5 26 -8 24 -53 -2 -26 -5 -52 -9 -57 -13 -21 12 -38 54 -37
44 2 63 17 53 43 -3 8 -7 34 -9 56 -4 49 -17 45 162 47 108 1 122 3 126 19 3
10 3 27 0 37 -4 16 -9 18 -38 10 -19 -5 -74 -7 -122 -4 -48 3 -97 6 -108 6
-29 2 -30 46 -1 48 11 0 48 3 81 6 33 3 79 0 103 -6 49 -14 55 -10 55 32 0 41
-18 50 -64 34 -21 -8 -61 -12 -96 -9 -32 2 -67 5 -78 5 -14 1 -20 9 -21 26 -2
18 2 23 13 19 8 -3 23 -1 35 5 15 8 28 7 51 -4 18 -8 46 -13 63 -10 27 4 31 9
32 41 3 89 -5 81 84 84 39 2 50 13 42 45 -4 14 -15 20 -37 21 -87 3 -92 5 -89
37 5 61 4 78 -10 86 -22 14 -60 10 -80 -8 -16 -14 -24 -15 -49 -6 -17 7 -37 9
-46 6 -13 -5 -13 -2 -5 14 6 11 8 24 4 28 -4 3 1 13 11 20 10 7 17 17 16 21
-1 5 -1 14 0 20 1 16 178 28 213 15 36 -14 60 9 56 53 -2 25 -7 30 -23 28 -92
-13 -108 -14 -129 -2 -13 7 -43 11 -68 9 l-43 -4 2 43 c2 34 -1 42 -15 43 -91
6 -97 2 -86 -57 l6 -34 -100 2 c-90 3 -99 5 -91 20 11 20 12 68 2 69 -5 1 -29
3 -55 5 l-48 4 4 -48z m450 -337 c0 -28 -3 -30 -35 -27 -19 1 -43 3 -54 3 -14
1 -20 9 -21 26 -2 18 2 22 15 19 9 -3 23 -1 31 4 8 6 26 9 40 8 21 -3 25 -8
24 -33z m0 -120 c0 -28 -3 -30 -35 -27 -19 1 -43 3 -54 3 -14 1 -20 9 -21 26
-2 18 2 22 15 19 9 -3 23 -1 31 4 8 6 26 9 40 8 21 -3 25 -8 24 -33z"/>
</g>
</svg>
