<?xml version="1.0" standalone="no"?>
<!DOCTYPE svg PUBLIC "-//W3C//DTD SVG 20010904//EN"
 "http://www.w3.org/TR/2001/REC-SVG-20010904/DTD/svg10.dtd">
<svg version="1.0" xmlns="http://www.w3.org/2000/svg"
 width="101.000000pt" height="102.000000pt" viewBox="0 0 101.000000 102.000000"
 preserveAspectRatio="xMidYMid meet">
<metadata>
Created by potrace 1.16, written by Peter Selinger 2001-2019
</metadata>
<g transform="translate(0.000000,102.000000) scale(0.100000,-0.100000)"
fill="#000000" stroke="none">
<path d="M455 973 l0 -48 -97 4 c-68 2 -98 0 -98 -8 0 -13 -67 -15 -72 -2 -2
8 -81 15 -124 12 -18 -1 -25 -30 -18 -67 l6 -33 201 3 202 2 0 -95 c0 -53 -3
-101 -8 -108 -4 -6 -2 -23 4 -37 9 -19 9 -36 -1 -73 -7 -26 -14 -61 -16 -78
-17 -139 -122 -219 -324 -249 -8 -1 -32 -6 -53 -10 l-37 -8 29 -34 c16 -18 33
-40 38 -49 8 -14 20 -12 104 15 52 17 114 43 139 57 86 49 169 147 170 200 1
10 13 -9 29 -42 51 -110 148 -182 301 -224 l71 -20 10 26 c5 14 19 39 30 55
12 16 19 31 17 34 -3 2 -24 6 -46 9 -23 3 -61 7 -83 10 -53 6 -146 48 -181 82
-32 31 -35 43 -10 41 38 -3 52 3 52 21 0 13 7 19 23 20 12 0 38 2 57 3 32 3
35 1 32 -23 -3 -29 17 -40 61 -32 l25 5 -1 136 c0 76 2 154 6 174 4 31 2 38
-14 43 -11 4 -25 2 -32 -3 -13 -11 -87 -12 -87 -2 0 3 6 14 13 23 13 19 44 22
98 12 27 -5 40 -3 52 10 18 18 23 60 8 69 -18 12 -179 17 -186 6 -8 -13 -52
-13 -60 1 -9 13 -118 9 -127 -5 -5 -6 -8 -1 -8 12 0 24 18 26 156 22 31 -1 55
3 59 10 5 9 31 10 90 5 77 -6 84 -5 89 13 4 11 4 31 1 44 l-6 23 -192 0 -193
0 2 40 c3 47 -7 55 -61 55 l-40 0 0 -47z m105 -237 c0 -8 7 -16 15 -20 18 -7
45 3 45 16 0 5 15 8 33 6 27 -2 32 -7 32 -28 -1 -19 -5 -24 -19 -22 -10 2 -29
1 -42 -2 -19 -5 -22 -11 -18 -43 17 -127 13 -273 -6 -273 -23 0 -51 148 -50
273 0 33 -4 57 -10 57 -5 0 -10 11 -10 25 0 16 6 25 15 25 8 0 15 -6 15 -14z
m244 -151 c0 -28 -3 -30 -35 -27 -19 1 -43 3 -54 3 -14 1 -20 9 -21 26 -2 18
2 22 15 19 9 -3 23 -1 31 4 8 6 26 9 40 8 21 -3 25 -8 24 -33z m0 -110 c0 -28
-3 -30 -35 -27 -19 1 -43 3 -54 3 -14 1 -20 9 -21 26 -2 18 2 22 15 19 9 -3
23 -1 31 4 8 6 26 9 40 8 21 -3 25 -8 24 -33z"/>
<path d="M78 803 c-18 -5 -31 -43 -22 -67 7 -18 61 -30 104 -24 25 4 29 1 26
-16 -3 -18 -9 -21 -45 -18 l-42 2 6 -52 c13 -111 14 -164 3 -198 -19 -59 -19
-100 0 -102 61 -5 96 10 85 38 -3 7 5 12 19 13 13 0 36 2 53 3 25 3 30 -1 31
-20 2 -27 5 -31 30 -33 66 -7 64 -12 58 131 -2 75 0 138 5 149 19 35 3 57 -42
58 -79 3 -88 5 -84 17 2 6 23 14 48 18 113 19 118 20 124 39 13 40 -3 59 -53
61 -107 4 -288 4 -304 1z m226 -218 c0 -28 -3 -30 -35 -27 -19 1 -43 3 -54 3
-14 1 -20 9 -21 26 -2 18 2 22 15 19 9 -3 23 -1 31 4 8 6 26 9 40 8 21 -3 25
-8 24 -33z m0 -110 c0 -28 -3 -30 -35 -27 -19 1 -43 3 -54 3 -14 1 -20 9 -21
26 -2 18 2 22 15 19 9 -3 23 -1 31 4 8 6 26 9 40 8 21 -3 25 -8 24 -33z"/>
</g>
</svg>
