<?xml version="1.0" standalone="no"?>
<!DOCTYPE svg PUBLIC "-//W3C//DTD SVG 20010904//EN"
 "http://www.w3.org/TR/2001/REC-SVG-20010904/DTD/svg10.dtd">
<svg version="1.0" xmlns="http://www.w3.org/2000/svg"
 width="101.000000pt" height="104.000000pt" viewBox="0 0 101.000000 104.000000"
 preserveAspectRatio="xMidYMid meet">
<metadata>
Created by potrace 1.16, written by Peter Selinger 2001-2019
</metadata>
<g transform="translate(0.000000,104.000000) scale(0.100000,-0.100000)"
fill="#000000" stroke="none">
<path d="M315 1010 c-4 -16 -4 -33 -2 -37 6 -9 -226 -9 -240 0 -24 15 -52 -45
-33 -73 7 -12 35 -15 142 -15 l133 0 1 -27 c1 -31 4 -31 -178 -30 -72 1 -77
-1 -82 -23 -9 -34 3 -56 28 -54 44 3 91 -2 76 -9 -17 -8 -18 -32 -5 -76 5 -19
4 -36 -4 -48 -15 -24 -10 -31 21 -28 13 1 83 2 156 2 l132 1 -6 32 c-3 18 -1
42 5 52 5 11 8 29 5 40 -6 20 -11 21 -128 17 -98 -4 -125 -1 -141 11 -15 11
-15 13 -4 9 10 -3 20 -1 23 4 8 13 173 15 181 3 7 -12 93 -12 100 0 8 12 167
10 183 -3 8 -7 45 -9 99 -5 48 3 97 1 110 -4 31 -12 57 15 48 50 -9 36 -11 36
-48 23 -43 -15 -64 -15 -71 1 -5 10 -7 10 -12 0 -7 -15 -74 -18 -74 -3 0 6
-13 10 -28 10 -25 0 -29 4 -29 28 l0 27 135 1 c144 1 155 4 150 54 -3 27 -8
28 -101 14 -32 -4 -56 -3 -71 6 -13 7 -43 11 -68 9 l-43 -4 3 32 c5 36 -18 49
-68 38 -30 -7 -49 -42 -36 -64 4 -6 -25 -9 -77 -8 l-84 2 4 32 c3 31 3 32 -32
26 -23 -4 -35 -2 -35 6 0 24 -29 9 -35 -19z m255 -146 c6 -14 7 -30 4 -35 -8
-13 -33 20 -34 44 0 26 19 21 30 -9z m-112 -12 c9 -27 9 -28 -20 -24 -21 3
-28 9 -24 19 3 8 6 19 6 24 0 21 29 7 38 -19z m-86 -162 c10 0 16 -7 15 -19
-1 -15 -12 -20 -49 -25 -27 -4 -56 -2 -67 4 -11 5 -26 8 -33 5 -9 -4 -14 2
-15 15 -1 15 3 20 15 16 9 -3 24 -1 32 5 8 5 31 7 50 4 19 -2 43 -5 52 -5z"/>
<path d="M549 743 c-22 -5 -31 -41 -18 -66 6 -10 8 -34 5 -51 -6 -32 -6 -33
26 -29 87 11 200 13 237 4 l42 -9 -7 33 c-3 18 -1 42 5 52 5 11 8 29 5 40 -5
18 -14 19 -127 19 -67 -1 -129 2 -137 5 -8 4 -22 5 -31 2z m203 -53 c10 0 16
-7 15 -19 -1 -15 -12 -20 -49 -25 -27 -4 -56 -2 -67 4 -11 5 -26 8 -33 5 -9
-4 -14 2 -15 15 -1 15 3 20 15 16 9 -3 24 -1 32 5 8 5 31 7 50 4 19 -2 43 -5
52 -5z"/>
<path d="M358 583 c-10 -2 -18 -11 -18 -18 0 -17 -41 -25 -105 -19 -107 8 -99
10 -109 -21 -7 -26 6 -46 30 -46 37 1 81 8 93 15 6 4 29 5 51 1 29 -5 38 -11
37 -25 -1 -14 -12 -20 -44 -25 -24 -3 -48 -3 -54 1 -7 4 -29 8 -49 10 -31 3
-39 0 -43 -17 -3 -12 -3 -27 -1 -34 7 -18 43 -26 65 -14 25 13 129 0 129 -17
0 -18 -52 -26 -140 -19 -102 7 -121 8 -124 4 -10 -12 -14 -46 -7 -57 11 -18
73 -17 141 2 14 3 45 3 70 -2 l45 -8 -85 -31 c-47 -17 -101 -34 -120 -37 -19
-3 -47 -9 -61 -13 l-27 -8 34 -39 34 -39 97 41 c54 23 102 42 106 42 11 0 -1
-40 -18 -60 -10 -12 -10 -21 1 -48 8 -17 16 -32 18 -32 2 0 42 18 89 40 47 22
90 40 95 40 6 0 14 5 17 10 8 13 15 90 9 90 -3 0 -23 -9 -45 -20 -80 -41 -86
-42 -86 -8 0 25 7 33 51 55 l50 25 43 -50 c52 -60 116 -103 203 -135 118 -44
120 -44 162 13 l37 50 -27 1 c-15 1 -38 3 -52 4 -96 11 -124 15 -127 19 -2 2
17 9 42 16 25 7 45 16 45 21 0 10 -55 49 -69 49 -6 0 -30 -12 -53 -26 l-41
-26 -30 30 -30 30 24 1 c13 0 60 3 105 6 57 4 93 1 122 -9 59 -21 88 -6 76 41
-5 17 -16 19 -107 20 -138 2 -147 3 -147 18 0 14 19 16 114 15 62 0 77 9 69
41 -5 17 -14 19 -72 18 -95 -1 -107 1 -108 21 -1 12 6 18 20 19 76 5 96 5 133
-2 45 -9 58 2 47 43 -5 19 -12 21 -82 20 -108 -2 -120 0 -114 16 3 8 1 14 -3
15 -74 9 -84 7 -84 -10 0 -14 -10 -20 -45 -25 -25 -4 -53 -3 -64 3 -11 6 -27
8 -35 5 -12 -5 -15 -2 -10 10 4 10 1 16 -9 16 -9 0 -21 2 -29 4 -7 2 -21 2
-30 -1z m184 -89 c27 -5 36 -11 35 -24 -1 -23 -76 -37 -106 -21 -11 6 -26 9
-33 6 -9 -4 -14 2 -15 15 -1 15 3 20 15 16 9 -3 24 -1 32 4 18 11 23 12 72 4z
m26 -104 c6 0 12 -6 12 -14 0 -18 -82 -31 -109 -17 -11 6 -27 8 -35 5 -11 -4
-16 -1 -16 11 0 11 6 15 18 11 9 -3 24 -1 32 5 8 5 31 7 50 4 19 -2 41 -5 48
-5z"/>
</g>
</svg>
