<?xml version="1.0" standalone="no"?>
<!DOCTYPE svg PUBLIC "-//W3C//DTD SVG 20010904//EN"
 "http://www.w3.org/TR/2001/REC-SVG-20010904/DTD/svg10.dtd">
<svg version="1.0" xmlns="http://www.w3.org/2000/svg"
 width="101.000000pt" height="102.000000pt" viewBox="0 0 101.000000 102.000000"
 preserveAspectRatio="xMidYMid meet">
<metadata>
Created by potrace 1.16, written by Peter Selinger 2001-2019
</metadata>
<g transform="translate(0.000000,102.000000) scale(0.100000,-0.100000)"
fill="#000000" stroke="none">
<path d="M610 977 c-21 -73 -102 -217 -121 -217 -4 0 -3 15 3 33 5 17 12 43
14 57 5 30 11 57 18 90 l5 25 -117 2 -117 1 2 -196 c4 -327 4 -373 -3 -472 -3
-52 -5 -104 -4 -115 1 -11 2 -39 2 -62 1 -45 14 -55 60 -46 24 5 25 7 16 53
-5 26 -6 85 -3 131 3 46 5 95 6 109 1 23 2 23 20 -10 10 -19 18 -43 19 -52 0
-10 2 -18 5 -18 13 0 62 30 74 44 12 14 16 14 42 0 16 -8 34 -12 39 -9 6 3 9
-2 8 -12 -5 -58 -1 -62 55 -57 l54 5 0 -30 c0 -25 -5 -31 -26 -35 -25 -4 -81
-2 -148 7 -35 4 -44 -11 -36 -57 6 -32 17 -34 103 -20 87 14 207 14 251 1 64
-19 106 -12 112 20 8 45 -2 64 -32 56 -23 -7 -43 -7 -117 -2 -16 1 -21 8 -21
29 0 29 1 29 79 32 39 2 51 19 41 58 -5 19 -16 25 -38 20 -5 -1 -26 -3 -46 -5
-33 -3 -36 -1 -36 25 0 27 2 28 47 26 26 -2 51 -5 56 -9 19 -11 36 11 37 46 1
45 -5 52 -32 35 -16 -10 -27 -10 -52 -1 -17 7 -37 9 -44 7 -11 -4 -14 4 -12
34 l1 40 48 -2 c50 -3 54 1 50 56 -1 14 5 16 33 11 19 -3 35 -2 36 3 2 30 11
59 21 71 15 19 -6 33 -47 32 -16 0 -51 5 -77 11 l-48 12 29 41 c15 23 43 71
61 106 31 63 31 64 8 57 -52 -16 -110 -18 -133 -6 -13 7 -31 10 -39 7 -9 -4
-16 -2 -16 4 0 5 7 12 15 15 8 4 15 10 15 15 0 10 -45 34 -81 42 -24 6 -27 3
-39 -36z m-192 -134 c0 -21 -7 -46 -15 -55 -9 -10 -13 -23 -11 -30 3 -7 2 -22
-3 -33 -6 -17 -8 -17 -8 -2 -1 9 -5 17 -11 17 -5 0 -10 11 -10 25 0 14 5 25
10 25 6 0 10 18 10 39 0 29 5 41 18 44 9 3 18 5 19 6 0 0 1 -16 1 -36z m342
-1 c0 -9 -34 -52 -41 -52 -5 0 -15 13 -23 28 l-14 28 39 -1 c21 0 39 -1 39 -3z
m-116 -80 c15 -28 14 -29 -19 -45 -37 -18 -155 -50 -161 -44 -2 1 1 19 7 39 9
35 10 36 42 26 17 -5 39 -12 48 -15 11 -3 24 7 38 31 13 20 24 36 27 36 2 0
10 -13 18 -28z m175 -154 c-11 -4 -53 -6 -92 -3 -40 3 -82 6 -95 6 -29 1 -24
6 36 39 l47 25 62 -30 c52 -25 59 -31 42 -37z m-329 11 c13 -31 29 -34 81 -14
14 5 17 0 14 -32 -4 -50 -30 -133 -50 -158 -16 -19 -16 -19 -12 9 5 31 -32
153 -58 193 -9 13 -13 28 -10 33 9 15 21 5 35 -31z m-65 -119 c2 -14 6 -33 10
-42 10 -25 -10 -53 -39 -56 -21 -1 -26 3 -31 31 -2 17 -3 59 0 92 3 33 6 71 6
85 1 20 7 14 26 -30 13 -30 26 -66 28 -80z m262 2 c2 -33 -1 -37 -23 -38 -21
-2 -23 0 -12 13 10 12 9 18 -7 29 -10 8 -22 14 -27 14 -4 0 -8 4 -8 8 0 4 17
8 38 9 37 2 38 1 39 -35z m0 -142 c0 -29 -1 -29 -45 -25 -53 5 -57 8 -44 32 7
13 23 19 50 20 36 2 39 0 39 -27z"/>
<path d="M57 923 c-9 -16 -7 -152 3 -158 12 -8 11 -153 -1 -161 -6 -3 -8 -51
-5 -115 3 -61 1 -121 -4 -133 -19 -50 8 -79 63 -69 23 5 25 7 14 30 -8 18 -8
32 0 54 7 17 10 36 7 43 -3 8 5 13 25 13 26 0 29 -3 26 -28 -4 -30 14 -40 58
-32 28 5 41 42 27 77 -4 12 -4 118 0 236 4 118 5 221 3 228 -4 9 -21 11 -64 6
-41 -5 -59 -3 -59 5 0 12 -86 16 -93 4z m123 -108 c0 -13 5 -25 11 -27 8 -3 9
-45 4 -149 l-7 -146 -28 0 c-26 0 -28 3 -34 60 -9 90 -7 165 4 172 6 4 9 32 8
64 -3 55 -2 57 19 53 16 -3 23 -11 23 -27z"/>
</g>
</svg>
