<?xml version="1.0" standalone="no"?>
<!DOCTYPE svg PUBLIC "-//W3C//DTD SVG 20010904//EN"
 "http://www.w3.org/TR/2001/REC-SVG-20010904/DTD/svg10.dtd">
<svg version="1.0" xmlns="http://www.w3.org/2000/svg"
 width="101.000000pt" height="101.000000pt" viewBox="0 0 101.000000 101.000000"
 preserveAspectRatio="xMidYMid meet">
<metadata>
Created by potrace 1.16, written by Peter Selinger 2001-2019
</metadata>
<g transform="translate(0.000000,101.000000) scale(0.100000,-0.100000)"
fill="#000000" stroke="none">
<path d="M592 1003 c-17 -3 -21 -9 -17 -23 3 -10 8 -27 10 -37 2 -10 7 -27 10
-39 6 -19 1 -22 -46 -28 -35 -5 -55 -4 -57 3 -2 6 -28 11 -58 11 -49 0 -54 -2
-60 -25 -3 -14 -3 -36 0 -49 l6 -24 132 5 c215 8 354 6 375 -5 24 -13 38 -4
47 31 15 63 9 66 -133 64 -101 -2 -125 0 -115 10 10 10 8 22 -6 60 -19 50 -33
57 -88 46z"/>
<path d="M55 933 c-8 -34 2 -61 27 -69 11 -3 53 -3 92 1 l71 6 0 -58 0 -59
-75 8 c-41 5 -78 7 -82 6 -4 -2 -10 -71 -13 -155 l-6 -151 34 2 c19 2 39 6 46
10 6 4 29 5 50 1 l39 -6 -2 -48 c-2 -26 -6 -53 -9 -59 -4 -6 -2 -22 5 -36 8
-19 8 -32 1 -49 -6 -12 -14 -30 -17 -39 -3 -10 -16 -19 -28 -20 -13 -1 -32 -2
-43 -3 -11 -1 -29 -3 -39 -4 -18 -1 -18 -2 -3 -19 9 -10 20 -32 23 -50 8 -39
24 -42 94 -20 79 26 101 54 99 131 -1 34 1 80 4 101 3 22 9 61 12 87 4 27 4
61 0 77 -6 29 -8 29 -88 36 -44 4 -82 8 -83 9 -1 1 -3 27 -6 57 l-4 55 90 2
c59 2 92 7 98 15 11 18 10 88 -2 88 -5 0 -10 16 -10 35 0 19 5 35 11 35 6 0 9
19 7 48 l-3 47 -68 -3 c-37 -2 -73 1 -80 6 -7 5 -40 10 -74 10 -57 0 -62 -2
-68 -25z"/>
<path d="M436 723 c-17 -4 -18 -15 -15 -143 4 -127 6 -139 23 -144 11 -3 28
-1 38 5 10 5 40 7 67 3 41 -5 49 -10 50 -28 0 -11 3 -48 6 -81 3 -33 0 -79 -7
-103 -10 -40 -13 -43 -42 -41 -66 4 -65 4 -47 -48 9 -27 16 -49 17 -51 6 -12
101 3 126 20 22 15 23 21 25 149 1 74 2 144 3 155 2 24 10 25 111 24 l57 0 5
63 c9 98 8 191 -3 207 -7 11 -25 14 -72 13 -103 -4 -169 -4 -248 1 -41 2 -83
2 -94 -1z m320 -144 l2 -57 -55 -6 c-31 -4 -60 -2 -67 3 -6 5 -33 8 -61 8
l-50 -2 3 55 4 55 111 0 112 0 1 -56z"/>
<path d="M444 362 c-15 -26 -47 -73 -71 -104 -49 -64 -50 -68 -25 -68 10 0 27
-7 38 -15 10 -8 22 -15 25 -15 4 0 30 37 60 83 29 45 62 90 73 99 24 19 24 19
-31 47 l-41 21 -28 -48z"/>
<path d="M738 384 l-28 -15 44 -53 c24 -30 56 -76 71 -104 l27 -51 44 22 c24
11 44 26 44 32 0 20 -142 185 -159 185 -9 -1 -28 -7 -43 -16z"/>
</g>
</svg>
