<?xml version="1.0" standalone="no"?>
<!DOCTYPE svg PUBLIC "-//W3C//DTD SVG 20010904//EN"
 "http://www.w3.org/TR/2001/REC-SVG-20010904/DTD/svg10.dtd">
<svg version="1.0" xmlns="http://www.w3.org/2000/svg"
 width="101.000000pt" height="101.000000pt" viewBox="0 0 101.000000 101.000000"
 preserveAspectRatio="xMidYMid meet">
<metadata>
Created by potrace 1.16, written by Peter Selinger 2001-2019
</metadata>
<g transform="translate(0.000000,101.000000) scale(0.100000,-0.100000)"
fill="#000000" stroke="none">
<path d="M178 957 c2 -21 -2 -44 -12 -59 -9 -14 -15 -42 -14 -66 1 -23 -1 -45
-5 -48 -3 -3 -20 -1 -39 6 -48 17 -88 0 -88 -37 0 -46 14 -58 67 -58 47 0 48
-1 46 -30 0 -16 -4 -43 -7 -60 -4 -16 -9 -45 -12 -63 -3 -19 -12 -55 -19 -80
-8 -25 -13 -47 -12 -48 1 -1 26 -14 55 -28 29 -15 56 -34 59 -42 7 -19 -63
-93 -130 -136 -26 -16 -47 -31 -47 -33 0 -1 22 -16 49 -33 l50 -30 58 61 c32
34 68 75 80 92 l21 30 50 -42 49 -42 33 34 c18 18 30 38 26 43 -3 5 -30 26
-59 46 l-55 38 15 46 c8 26 16 58 19 72 2 14 6 36 9 50 3 14 8 39 10 55 3 17
8 44 11 60 3 17 7 53 9 82 l5 52 -43 5 c-23 3 -58 5 -78 3 -33 -2 -35 0 -32
23 3 14 6 36 8 50 8 51 11 60 23 72 24 24 7 37 -64 44 l-40 5 4 -34z m110
-262 c13 -10 -8 -198 -29 -252 -9 -24 -10 -24 -38 -7 -23 13 -28 23 -25 43 3
14 7 40 9 56 3 17 8 44 10 60 7 39 12 75 14 98 1 14 7 16 29 11 15 -4 28 -8
30 -9z"/>
<path d="M426 924 c-18 -17 -21 -61 -6 -84 7 -11 26 -14 77 -13 37 1 69 7 71
13 5 14 52 13 52 -2 0 -8 30 -9 110 -4 72 4 118 3 131 -4 44 -24 77 12 64 69
-6 28 -9 30 -80 36 -40 4 -78 4 -83 1 -17 -10 -271 -15 -277 -5 -9 14 -42 11
-59 -7z"/>
<path d="M460 754 c-6 -16 -9 -42 -6 -59 25 -123 28 -197 11 -246 -11 -31 -12
-46 -4 -61 6 -11 9 -33 5 -48 -4 -23 -1 -29 16 -33 12 -3 29 -2 39 4 11 5 87
7 187 3 l169 -5 7 32 c10 53 7 417 -4 424 -6 4 -100 9 -210 12 l-199 6 -11
-29z m244 -66 c5 -10 7 -10 12 0 6 13 43 16 59 4 6 -4 10 -31 10 -60 0 -50 -1
-52 -30 -57 -16 -3 -59 -3 -95 0 -36 3 -74 6 -85 6 -17 1 -20 8 -20 50 l0 49
38 0 c20 0 37 5 37 10 0 15 67 12 74 -2z m57 -174 c19 -4 27 -12 27 -27 1 -12
4 -37 8 -54 5 -29 3 -34 -21 -43 -15 -6 -61 -8 -103 -5 -135 9 -127 6 -124 45
1 19 3 45 3 58 1 16 6 21 18 18 9 -3 22 -2 30 3 15 10 121 13 162 5z"/>
<path d="M409 223 c-20 -5 -28 -29 -22 -69 4 -28 8 -30 36 -26 18 2 75 4 127
3 52 0 123 0 158 0 34 0 86 1 115 2 28 1 66 -1 83 -5 30 -7 32 -5 36 24 10 64
9 64 -125 60 -239 -7 -357 -4 -383 10 -5 2 -16 3 -25 1z"/>
</g>
</svg>
