<?xml version="1.0" standalone="no"?>
<!DOCTYPE svg PUBLIC "-//W3C//DTD SVG 20010904//EN"
 "http://www.w3.org/TR/2001/REC-SVG-20010904/DTD/svg10.dtd">
<svg version="1.0" xmlns="http://www.w3.org/2000/svg"
 width="101.000000pt" height="101.000000pt" viewBox="0 0 101.000000 101.000000"
 preserveAspectRatio="xMidYMid meet">
<metadata>
Created by potrace 1.16, written by Peter Selinger 2001-2019
</metadata>
<g transform="translate(0.000000,101.000000) scale(0.100000,-0.100000)"
fill="#000000" stroke="none">
<path d="M168 994 c-21 -6 -33 -62 -23 -101 7 -26 10 -226 4 -248 -2 -5 -3
-37 -4 -70 -3 -129 -36 -239 -96 -327 -25 -37 -34 -58 -25 -58 7 0 29 -11 49
-24 28 -19 38 -22 46 -12 23 28 60 122 109 281 3 11 5 53 3 94 -1 43 2 77 9
81 5 3 13 34 16 68 l7 62 48 0 c26 0 51 4 54 10 7 11 153 12 160 0 7 -12 153
-12 160 0 7 12 48 13 59 3 4 -5 37 -8 73 -9 l65 -1 -7 84 c-5 60 -3 88 5 98 7
8 10 25 6 37 -5 23 -9 23 -160 26 -90 1 -157 -2 -160 -7 -8 -12 -173 -13 -181
-1 -3 5 -29 9 -58 8 -29 0 -72 2 -97 5 -25 3 -53 3 -62 1z m242 -84 c0 -6 30
-10 70 -10 40 0 70 4 70 10 0 6 11 10 25 10 14 0 25 -5 25 -11 0 -8 27 -9 93
-4 l92 6 0 -38 0 -38 -69 2 c-39 1 -75 -2 -80 -6 -15 -13 -147 -13 -161 -1 -7
6 -57 9 -116 8 l-104 -3 -1 33 c0 31 0 32 43 32 24 0 43 5 43 10 0 6 16 10 35
10 19 0 35 -4 35 -10z"/>
<path d="M350 673 c-8 -3 -18 -11 -22 -17 -11 -16 -9 -104 2 -111 13 -8 13
-52 1 -59 -5 -4 -9 -37 -9 -75 0 -77 5 -81 68 -74 l35 5 1 114 c1 63 3 116 5
118 2 2 74 6 159 7 l156 4 -2 -47 c-2 -26 -5 -52 -9 -58 -4 -6 -3 -39 0 -74 8
-71 14 -76 77 -68 34 4 36 6 27 29 -12 32 -12 160 1 168 5 3 9 30 9 61 -1 76
-14 86 -98 79 -82 -7 -327 -7 -361 -1 -14 3 -32 2 -40 -1z"/>
<path d="M540 540 c-8 -5 -15 -29 -17 -57 -4 -87 -13 -128 -32 -153 -32 -45
-127 -88 -206 -94 -16 -2 -40 -6 -53 -10 l-23 -8 25 -29 c14 -16 27 -38 31
-48 5 -17 10 -18 43 -9 69 19 198 85 233 119 36 37 72 137 83 232 5 45 1 53
-27 48 -4 -1 -16 3 -25 8 -11 6 -24 6 -32 1z"/>
<path d="M622 318 l-31 -31 72 -50 c40 -27 91 -67 115 -89 l43 -39 39 33 c21
18 39 38 39 43 1 6 -45 40 -102 76 -149 97 -138 93 -175 57z"/>
</g>
</svg>
