<?xml version="1.0" standalone="no"?>
<!DOCTYPE svg PUBLIC "-//W3C//DTD SVG 20010904//EN"
 "http://www.w3.org/TR/2001/REC-SVG-20010904/DTD/svg10.dtd">
<svg version="1.0" xmlns="http://www.w3.org/2000/svg"
 width="101.000000pt" height="101.000000pt" viewBox="0 0 101.000000 101.000000"
 preserveAspectRatio="xMidYMid meet">
<metadata>
Created by potrace 1.16, written by Peter Selinger 2001-2019
</metadata>
<g transform="translate(0.000000,101.000000) scale(0.100000,-0.100000)"
fill="#000000" stroke="none">
<path d="M180 928 c-34 -96 -89 -199 -122 -235 -30 -31 -31 -33 -18 -76 12
-45 16 -47 55 -34 11 4 34 9 50 11 17 2 38 7 49 11 16 7 17 5 7 -12 -13 -26
-109 -125 -138 -144 -22 -14 -22 -15 -7 -61 l16 -48 47 5 c25 3 57 8 71 10 37
7 90 14 139 19 50 6 52 7 56 38 1 12 6 31 10 41 7 17 4 18 -41 13 -27 -3 -62
-8 -79 -12 -16 -4 -39 -6 -49 -6 -11 1 -29 -4 -40 -10 -15 -8 -11 1 15 33 20
24 71 89 113 144 43 55 89 112 103 127 l25 26 -38 26 c-21 14 -44 26 -51 26
-7 0 -24 -21 -37 -47 -35 -68 -50 -86 -77 -90 -29 -4 -82 -4 -86 1 -5 5 102
188 131 222 14 18 26 34 26 38 0 8 -76 46 -93 46 -8 0 -24 -26 -37 -62z"/>
<path d="M408 944 c-18 -6 -32 -47 -23 -74 3 -10 16 -21 28 -24 36 -10 127 -7
148 5 18 9 16 1 -13 -51 -32 -60 -120 -164 -146 -171 -10 -3 -9 -13 4 -45 15
-38 19 -41 57 -42 45 -2 97 14 97 30 0 5 12 8 27 6 26 -3 27 -5 27 -75 l1 -72
-37 -6 c-21 -4 -43 -3 -49 1 -7 4 -34 9 -60 11 -45 3 -49 2 -55 -21 -12 -47
11 -76 51 -66 6 2 22 4 36 5 14 1 31 5 38 9 7 5 27 5 46 2 35 -7 36 -8 37 -99
0 -26 -3 -51 -7 -55 -6 -6 -122 -7 -203 -1 -31 2 -36 -5 -35 -47 1 -42 5 -46
35 -45 13 1 68 2 123 2 55 0 129 0 165 0 36 0 106 0 156 0 91 -1 92 -1 97 25
10 56 5 60 -106 61 -153 2 -145 0 -152 43 -4 22 -2 47 4 59 6 11 8 26 5 34 -4
10 2 15 18 16 67 4 96 3 129 -4 34 -7 37 -5 41 20 3 15 3 36 0 47 -4 17 -10
19 -41 12 -20 -4 -52 -7 -71 -6 -90 4 -83 0 -76 40 3 21 6 51 6 68 0 27 4 32
28 36 15 3 35 9 45 13 13 6 20 -1 33 -31 9 -22 17 -40 19 -42 1 -1 23 7 49 19
l47 20 -27 47 c-15 26 -49 79 -76 119 l-48 72 -32 -11 c-50 -16 -53 -23 -22
-63 44 -58 41 -65 -24 -64 -32 0 -83 -1 -114 -3 -56 -3 -57 -3 -40 17 138 159
137 157 117 171 -17 13 -16 14 16 15 100 2 139 0 158 -6 32 -10 58 3 65 31 13
49 1 60 -57 57 -189 -13 -249 -14 -260 -5 -7 6 -35 11 -62 11 -28 0 -61 2 -75
5 -14 2 -32 2 -42 0z"/>
<path d="M297 285 c-43 -13 -92 -26 -110 -29 -18 -3 -43 -8 -57 -11 -14 -3
-40 -7 -59 -10 -19 -2 -36 -7 -38 -9 -4 -4 24 -92 33 -104 1 -2 27 5 56 16 29
11 98 32 153 47 55 16 104 31 108 35 14 12 17 90 4 89 -7 -1 -47 -12 -90 -24z"/>
</g>
</svg>
