<?xml version="1.0" standalone="no"?>
<!DOCTYPE svg PUBLIC "-//W3C//DTD SVG 20010904//EN"
 "http://www.w3.org/TR/2001/REC-SVG-20010904/DTD/svg10.dtd">
<svg version="1.0" xmlns="http://www.w3.org/2000/svg"
 width="101.000000pt" height="102.000000pt" viewBox="0 0 101.000000 102.000000"
 preserveAspectRatio="xMidYMid meet">
<metadata>
Created by potrace 1.16, written by Peter Selinger 2001-2019
</metadata>
<g transform="translate(0.000000,102.000000) scale(0.100000,-0.100000)"
fill="#000000" stroke="none">
<path d="M588 1008 l-28 -10 27 -45 26 -46 -104 7 c-122 9 -159 0 -159 -38 0
-46 21 -54 139 -55 63 -1 113 3 116 9 8 13 52 13 60 0 4 -7 54 -10 135 -8
l129 3 6 31 c8 47 -12 84 -30 54 -8 -13 -82 -13 -90 0 -3 5 -29 9 -57 7 l-51
-2 -17 50 c-15 44 -20 50 -46 51 -16 1 -41 -3 -56 -8z"/>
<path d="M194 993 c-35 -119 -113 -277 -145 -293 -25 -14 -25 -64 1 -90 19
-19 22 -19 50 -5 16 8 35 12 44 9 8 -3 24 0 36 6 20 10 21 10 11 -8 -18 -34
-111 -131 -132 -137 -17 -6 -19 -12 -14 -33 4 -15 9 -38 10 -50 2 -13 5 -25 7
-27 2 -3 30 3 62 11 58 15 98 23 146 28 53 6 66 15 77 58 6 24 10 45 8 47 -3
2 -41 -6 -87 -17 -45 -12 -84 -19 -86 -18 -1 2 8 16 21 32 13 16 55 74 93 129
37 55 74 104 81 108 24 15 13 36 -27 57 -21 11 -42 20 -44 20 -3 0 -19 -27
-36 -59 -29 -58 -30 -59 -70 -58 -22 1 -40 3 -40 5 0 11 116 211 133 229 24
26 25 24 -30 52 -51 26 -62 26 -69 4z"/>
<path d="M438 794 c-14 -4 -17 -16 -15 -67 l2 -62 -47 1 c-39 1 -49 -2 -54
-18 -15 -48 21 -88 61 -66 26 15 34 -1 36 -69 2 -68 18 -82 65 -61 17 8 28 8
35 1 11 -11 -121 -142 -171 -168 l-31 -16 2 28 c5 64 5 64 -58 39 -32 -12 -96
-33 -143 -46 -47 -13 -86 -24 -87 -25 -4 -2 22 -84 29 -90 4 -4 51 12 104 35
128 55 148 57 176 19 12 -16 26 -29 32 -29 6 0 26 16 46 35 l36 35 1 -37 c1
-21 -5 -48 -13 -61 -14 -21 -13 -26 7 -55 13 -18 23 -33 25 -35 1 -2 30 17 65
41 35 25 79 52 97 61 25 13 32 22 27 36 -4 11 -9 32 -11 47 -3 15 -6 29 -7 30
-2 1 -25 -16 -52 -37 -48 -38 -50 -39 -59 -19 -7 13 -6 31 2 51 6 16 9 35 6
41 -2 7 16 32 41 57 38 37 45 41 45 23 0 -41 78 -177 133 -232 81 -80 82 -80
128 -30 21 23 39 44 39 45 0 2 -22 13 -49 25 -27 11 -59 32 -72 45 -22 24 -22
24 -3 39 10 8 38 24 62 36 23 11 42 27 42 34 0 7 -16 23 -35 35 l-35 22 -42
-35 c-24 -19 -48 -37 -55 -41 -12 -7 -33 25 -47 70 -7 24 -3 25 101 25 l52 0
6 54 c4 29 4 59 0 65 -5 7 1 9 19 4 14 -3 36 -4 49 0 19 4 23 12 22 51 0 34
-4 45 -15 44 -8 -1 -29 -1 -46 0 -32 1 -32 1 -30 55 0 30 -2 57 -6 61 -5 6
-95 8 -208 6 -19 -1 -69 1 -110 3 -41 3 -83 2 -92 0z m294 -80 c30 -5 37 -10
35 -28 -1 -11 -6 -24 -12 -28 -15 -12 -113 -9 -120 2 -4 6 -32 9 -64 8 -51 -3
-57 -1 -53 14 3 14 15 18 53 18 26 0 51 5 54 10 7 11 52 13 107 4z m30 -160
c4 -31 2 -34 -27 -39 -16 -3 -64 -3 -105 0 -41 3 -84 6 -95 6 -15 1 -20 8 -20
33 l0 31 121 2 122 2 4 -35z"/>
</g>
</svg>
