<?xml version="1.0" standalone="no"?>
<!DOCTYPE svg PUBLIC "-//W3C//DTD SVG 20010904//EN"
 "http://www.w3.org/TR/2001/REC-SVG-20010904/DTD/svg10.dtd">
<svg version="1.0" xmlns="http://www.w3.org/2000/svg"
 width="101.000000pt" height="101.000000pt" viewBox="0 0 101.000000 101.000000"
 preserveAspectRatio="xMidYMid meet">
<metadata>
Created by potrace 1.16, written by Peter Selinger 2001-2019
</metadata>
<g transform="translate(0.000000,101.000000) scale(0.100000,-0.100000)"
fill="#000000" stroke="none">
<path d="M593 933 c-1 -42 3 -83 8 -90 7 -7 8 -47 3 -107 l-7 -96 -51 5 c-28
3 -68 8 -88 12 -34 5 -39 3 -48 -23 -16 -42 -5 -71 30 -79 16 -4 34 -3 40 0 6
4 80 8 163 8 l152 2 0 -62 0 -62 -40 -6 c-22 -3 -71 -4 -110 -1 -65 5 -82 7
-160 21 -42 8 -59 -7 -58 -50 1 -20 3 -39 6 -42 8 -7 44 -7 97 1 76 12 183 17
226 11 34 -5 42 -10 42 -28 1 -12 4 -35 7 -52 10 -54 -3 -60 -117 -58 -57 1
-134 4 -173 7 -137 11 -129 13 -128 -40 1 -42 5 -46 35 -45 54 3 178 11 243
16 39 3 84 3 102 0 30 -5 32 -8 28 -39 -5 -38 7 -45 65 -39 l36 5 2 79 c1 48
-2 79 -8 79 -5 0 -10 20 -10 45 0 25 5 45 10 45 6 0 10 30 10 70 0 43 -4 70
-11 70 -7 0 -9 28 -7 80 3 77 2 81 -19 87 -13 3 -36 0 -53 -5 -17 -6 -53 -8
-81 -5 -51 6 -51 6 -44 37 4 17 7 96 8 176 l2 145 -50 3 -50 3 -2 -78z"/>
<path d="M792 873 c-12 -32 -37 -84 -56 -116 l-35 -57 39 -20 c22 -11 42 -20
44 -20 3 0 24 37 47 83 23 45 50 94 60 109 11 14 19 29 19 32 0 5 -84 46 -94
46 -2 0 -13 -26 -24 -57z"/>
<path d="M48 909 c-10 -6 -18 -22 -18 -37 0 -48 14 -57 82 -57 l63 0 2 -90 2
-90 -37 1 c-21 0 -43 4 -50 8 -20 12 -52 -13 -52 -40 0 -50 16 -64 75 -64 l55
0 0 -34 c0 -19 5 -36 11 -38 8 -3 9 -25 3 -77 -10 -79 -6 -74 -74 -85 -75 -11
-80 -15 -76 -60 2 -22 7 -49 11 -58 6 -16 10 -16 35 -3 31 16 190 64 230 69
58 8 80 18 81 40 1 11 2 33 3 49 2 30 -1 31 -37 18 -13 -5 -40 -12 -61 -15
l-36 -6 2 104 c2 78 6 102 16 99 7 -3 32 -2 57 1 36 6 46 12 51 31 12 50 -23
89 -62 67 -9 -5 -27 -7 -39 -4 -23 4 -24 7 -22 91 l2 86 59 2 c57 2 82 15 69
38 -4 6 -2 6 6 -1 6 -6 27 -46 46 -90 19 -43 39 -80 44 -82 15 -5 71 27 71 40
0 9 -76 184 -85 196 -1 1 -19 -5 -39 -13 -33 -14 -38 -14 -52 0 -17 16 -89 21
-99 6 -7 -13 -173 -13 -180 -1 -8 13 -35 12 -57 -1z"/>
</g>
</svg>
