<?xml version="1.0" standalone="no"?>
<!DOCTYPE svg PUBLIC "-//W3C//DTD SVG 20010904//EN"
 "http://www.w3.org/TR/2001/REC-SVG-20010904/DTD/svg10.dtd">
<svg version="1.0" xmlns="http://www.w3.org/2000/svg"
 width="101.000000pt" height="101.000000pt" viewBox="0 0 101.000000 101.000000"
 preserveAspectRatio="xMidYMid meet">
<metadata>
Created by potrace 1.16, written by Peter Selinger 2001-2019
</metadata>
<g transform="translate(0.000000,101.000000) scale(0.100000,-0.100000)"
fill="#000000" stroke="none">
<path d="M206 995 c4 -9 3 -53 -1 -99 l-7 -84 -74 4 c-72 4 -74 3 -80 -21 -11
-42 3 -75 31 -75 14 0 25 5 25 10 0 13 77 13 85 0 11 -17 -57 -172 -111 -252
l-53 -80 32 -38 c37 -45 32 -49 101 81 32 59 44 75 45 58 0 -13 3 -60 6 -104
3 -44 0 -111 -6 -150 -11 -70 -13 -145 -3 -154 5 -6 95 -4 100 2 2 2 -2 18 -8
35 -9 24 -10 37 -1 50 13 22 15 99 2 107 -11 7 -11 173 0 180 4 2 8 23 9 46 1
23 4 44 6 47 3 2 15 -15 28 -37 13 -22 25 -41 28 -41 12 0 70 40 70 49 0 4
-19 34 -42 65 -40 54 -60 67 -73 46 -13 -21 -20 -8 -20 35 l0 45 45 1 c25 1
55 0 66 0 22 -2 34 21 34 66 0 26 -30 46 -50 33 -8 -5 -35 -7 -60 -6 -42 4
-45 6 -48 36 -2 17 1 37 7 44 6 7 11 24 10 37 0 13 2 34 6 45 7 24 -14 34 -72
34 -25 0 -31 -4 -27 -15z"/>
<path d="M776 984 c-44 -16 -97 -25 -143 -24 -17 0 -35 -4 -38 -11 -5 -7 -24
-8 -55 -4 -89 12 -88 13 -89 -137 0 -76 4 -137 10 -144 7 -8 8 -47 3 -108 l-7
-96 -47 4 c-53 5 -61 -4 -53 -60 4 -28 8 -30 36 -26 18 2 75 4 127 3 52 0 123
0 158 0 34 0 86 1 115 2 28 1 75 -1 103 -5 l52 -7 5 32 c7 52 -1 68 -32 60
-14 -4 -42 -7 -61 -6 -88 6 -80 -5 -77 94 l2 89 45 1 c25 1 55 0 67 0 25 -2
37 25 28 62 -6 23 -12 25 -96 32 -48 3 -94 3 -101 -2 -7 -4 -50 -8 -95 -8
l-82 0 2 66 2 67 60 6 c33 4 76 8 95 10 19 2 64 7 99 9 35 3 68 10 74 16 12
12 -37 101 -56 100 -7 0 -29 -7 -51 -15z m-96 -376 c0 -22 5 -38 11 -38 12 0
6 -96 -6 -108 -3 -3 -25 -5 -48 -5 -89 4 -82 -5 -82 97 l0 91 63 0 62 0 0 -37z"/>
<path d="M491 300 c-28 -32 -81 -78 -117 -101 l-65 -42 38 -31 c20 -17 41 -31
44 -31 4 0 47 36 96 80 49 44 101 89 117 101 l29 21 -45 31 -46 31 -51 -59z"/>
<path d="M700 319 l-35 -28 40 -32 c22 -18 67 -60 101 -94 l61 -61 37 30 c20
17 36 35 36 39 0 9 -52 55 -139 124 l-67 51 -34 -29z"/>
</g>
</svg>
