<?xml version="1.0" standalone="no"?>
<!DOCTYPE svg PUBLIC "-//W3C//DTD SVG 20010904//EN"
 "http://www.w3.org/TR/2001/REC-SVG-20010904/DTD/svg10.dtd">
<svg version="1.0" xmlns="http://www.w3.org/2000/svg"
 width="101.000000pt" height="101.000000pt" viewBox="0 0 101.000000 101.000000"
 preserveAspectRatio="xMidYMid meet">
<metadata>
Created by potrace 1.16, written by Peter Selinger 2001-2019
</metadata>
<g transform="translate(0.000000,101.000000) scale(0.100000,-0.100000)"
fill="#000000" stroke="none">
<path d="M620 992 c-16 -7 -16 -12 -7 -127 l5 -60 -46 3 -47 4 0 -45 0 -44 45
1 45 1 2 -71 3 -71 -28 2 c-15 1 -31 3 -37 5 -40 10 -57 -14 -48 -64 5 -25 8
-26 54 -23 l48 4 -5 -36 c-7 -59 -24 -99 -61 -147 -19 -25 -33 -47 -31 -48 13
-10 91 -46 93 -44 30 34 99 236 89 261 -3 9 8 13 35 14 44 2 40 14 44 -137 1
-52 -2 -105 -6 -116 -9 -25 11 -34 59 -27 l29 5 2 116 c2 176 -3 161 53 156
45 -4 48 -3 53 22 10 52 0 63 -53 59 l-47 -3 1 73 c1 68 2 72 19 63 26 -14 64
-2 72 23 9 27 -2 70 -18 68 -7 -1 -27 -1 -45 0 l-33 1 6 68 c4 37 8 76 10 87
4 18 -1 20 -51 20 -40 0 -55 -4 -58 -15 -8 -29 -5 -84 5 -97 6 -6 9 -24 7 -39
-3 -24 -7 -27 -43 -28 -39 -1 -40 0 -43 37 -2 21 1 44 6 50 18 21 12 86 -8 97
-21 11 -48 12 -70 2z m144 -324 c10 -86 10 -86 -29 -85 -31 1 -35 4 -41 33 -3
18 -1 41 5 52 6 11 8 28 5 36 -5 12 1 16 24 16 28 0 29 -2 36 -52z"/>
<path d="M374 936 c-17 -6 -29 -16 -27 -23 3 -9 -31 -11 -140 -6 -125 4 -146
3 -160 -12 -19 -18 -21 -42 -7 -65 7 -11 25 -15 67 -13 l58 1 0 -91 0 -92 -25
3 c-14 1 -39 4 -57 6 -35 5 -45 -11 -36 -58 5 -25 7 -26 63 -21 55 5 58 4 59
-17 0 -13 3 -53 6 -91 6 -92 -3 -113 -57 -123 -24 -4 -46 -9 -50 -10 -5 -1
-15 -2 -23 -3 -13 -1 -15 -11 -12 -51 2 -28 7 -53 10 -57 4 -3 29 4 57 16 27
12 89 32 137 45 l87 23 12 46 c7 26 11 47 10 47 0 0 -22 -7 -48 -14 l-47 -15
-5 27 c-3 15 -3 52 -1 82 3 30 5 64 6 75 1 18 9 20 74 21 83 0 75 15 78 -134
l2 -93 -45 -42 c-25 -23 -61 -54 -80 -69 l-35 -27 40 -41 41 -41 31 45 c50 70
63 73 118 26 40 -35 74 -50 150 -67 25 -5 124 -14 150 -12 11 0 52 0 91 -1
l71 -1 17 52 c14 40 15 54 5 60 -13 8 -36 2 -57 -14 -8 -7 -21 -6 -38 2 -20 9
-32 8 -59 -5 -22 -10 -42 -13 -57 -8 -13 5 -32 9 -43 10 -124 11 -175 30 -209
76 -17 24 -19 43 -19 150 0 68 3 144 7 170 l6 47 -47 0 c-27 0 -57 0 -68 1
-11 0 -43 -1 -72 -4 l-51 -4 1 88 c1 48 5 86 9 84 4 -3 25 -2 46 2 27 4 43 13
50 28 7 14 11 16 12 6 1 -8 4 -24 6 -35 3 -11 7 -31 9 -43 4 -30 10 -35 38
-37 39 -3 67 15 65 44 -1 14 -5 31 -8 36 -4 6 -15 35 -25 65 -16 49 -31 72
-45 69 -3 -1 -19 -6 -36 -13z"/>
</g>
</svg>
