<?xml version="1.0" standalone="no"?>
<!DOCTYPE svg PUBLIC "-//W3C//DTD SVG 20010904//EN"
 "http://www.w3.org/TR/2001/REC-SVG-20010904/DTD/svg10.dtd">
<svg version="1.0" xmlns="http://www.w3.org/2000/svg"
 width="101.000000pt" height="101.000000pt" viewBox="0 0 101.000000 101.000000"
 preserveAspectRatio="xMidYMid meet">
<metadata>
Created by potrace 1.16, written by Peter Selinger 2001-2019
</metadata>
<g transform="translate(0.000000,101.000000) scale(0.100000,-0.100000)"
fill="#000000" stroke="none">
<path d="M189 1001 c11 -7 12 -28 7 -102 l-7 -94 -67 3 -67 3 0 -48 1 -48 39
2 c22 0 52 3 66 6 26 5 27 4 17 -31 -17 -65 -66 -157 -108 -204 -22 -25 -40
-51 -40 -57 0 -6 11 -30 26 -52 l25 -40 18 23 c10 13 34 52 54 87 30 55 36 61
45 45 15 -30 13 -167 -3 -213 -11 -32 -12 -47 -3 -66 8 -19 8 -35 -1 -66 -7
-22 -11 -43 -9 -45 6 -5 37 -8 70 -6 29 2 28 -8 27 162 -1 340 -2 325 28 265
14 -27 27 -52 29 -54 2 -3 20 3 40 12 19 10 33 13 29 7 -3 -5 -8 -28 -11 -51
-6 -49 -35 -126 -75 -198 -17 -29 -29 -55 -27 -56 11 -11 81 -56 83 -53 16 18
69 142 86 200 26 90 29 108 35 233 2 55 5 109 5 120 1 18 9 20 78 22 l77 1 1
-38 c2 -44 -18 -58 -65 -44 -15 4 -37 8 -50 9 -21 1 -22 -2 -16 -50 7 -60 7
-204 0 -335 -8 -124 -8 -152 -1 -158 7 -7 74 -6 82 1 3 3 5 21 6 40 1 27 5 35
21 36 12 1 44 3 71 5 84 7 101 1 102 -40 1 -44 5 -48 49 -47 42 1 46 5 45 35
-14 244 -16 399 -7 465 l5 42 -52 0 c-108 0 -106 -1 -104 40 l1 36 50 -2 c27
0 57 4 67 10 13 8 27 8 53 0 31 -10 36 -9 41 8 4 11 4 32 0 47 l-6 27 -98 0
-98 0 8 33 c6 29 4 35 -14 42 -24 9 -10 14 32 10 14 -1 48 1 78 5 62 8 65 17
26 76 -22 34 -30 39 -52 34 -14 -3 -37 -8 -51 -11 -14 -3 -34 -7 -45 -10 -38
-10 -167 -24 -245 -28 -100 -5 -91 9 -78 -118 2 -25 0 -34 -8 -28 -6 5 -36 8
-68 7 l-57 -3 6 75 c3 42 9 88 11 104 l6 27 -64 0 c-40 0 -58 -4 -49 -9z m466
-165 l0 -44 -75 2 -75 1 0 35 -1 35 58 -3 c32 -1 66 2 76 7 9 6 17 11 17 11 0
0 0 -20 0 -44z m-225 -161 c0 -23 -7 -60 -16 -81 l-16 -38 -18 24 c-49 66 -45
63 -69 50 -13 -6 -24 -10 -25 -8 -2 2 -1 22 2 44 l4 41 51 7 c29 3 53 10 55
16 9 26 32 -15 32 -55z m371 -114 c3 -1 6 -14 6 -31 0 -34 -21 -41 -102 -34
-27 2 -59 4 -71 5 -16 1 -21 8 -21 30 0 22 4 28 16 24 9 -2 23 0 31 5 12 7
100 8 141 1z m0 -120 c3 -1 5 -16 6 -35 1 -30 -3 -36 -26 -40 -14 -2 -48 -3
-76 0 -27 2 -60 4 -71 5 -18 1 -22 7 -21 35 1 26 5 33 16 29 9 -2 23 0 31 5
12 7 102 8 141 1z m0 -130 c3 -1 5 -16 6 -35 1 -30 -3 -36 -26 -40 -14 -2 -48
-3 -76 0 -27 2 -60 4 -71 5 -18 1 -22 7 -21 35 1 26 5 33 16 29 9 -2 23 0 31
5 12 7 102 8 141 1z"/>
</g>
</svg>
