<?xml version="1.0" standalone="no"?>
<!DOCTYPE svg PUBLIC "-//W3C//DTD SVG 20010904//EN"
 "http://www.w3.org/TR/2001/REC-SVG-20010904/DTD/svg10.dtd">
<svg version="1.0" xmlns="http://www.w3.org/2000/svg"
 width="101.000000pt" height="101.000000pt" viewBox="0 0 101.000000 101.000000"
 preserveAspectRatio="xMidYMid meet">
<metadata>
Created by potrace 1.16, written by Peter Selinger 2001-2019
</metadata>
<g transform="translate(0.000000,101.000000) scale(0.100000,-0.100000)"
fill="#000000" stroke="none">
<path d="M176 995 c4 -9 3 -52 -1 -98 l-6 -82 -42 2 c-66 4 -85 -4 -92 -36 -9
-42 10 -75 38 -66 12 4 38 7 58 8 l36 2 -14 -49 c-22 -72 -55 -144 -97 -205
-20 -30 -35 -57 -34 -60 20 -40 53 -80 59 -74 5 5 24 40 43 77 31 64 35 67 45
48 13 -25 7 -264 -8 -304 -16 -41 2 -54 71 -50 29 2 28 -8 27 162 -1 340 -2
325 28 265 14 -27 27 -52 29 -54 6 -7 84 31 84 41 0 7 -27 49 -91 141 -4 5
-14 5 -25 -1 -17 -9 -19 -6 -19 28 l0 38 42 -4 c39 -4 42 -2 48 24 5 24 10 28
29 25 23 -5 24 -8 31 -148 4 -79 4 -148 1 -154 -4 -6 1 -12 11 -13 22 -2 52 2
129 18 19 3 34 1 38 -5 4 -6 0 -11 -9 -11 -14 0 -14 -3 0 -30 15 -29 15 -29
-17 -35 -32 -5 -134 -1 -210 8 -29 4 -37 2 -41 -13 -13 -51 22 -92 62 -70 9 5
59 7 111 5 125 -6 187 -6 294 0 49 2 108 0 131 -4 43 -8 43 -8 48 22 2 17 2
40 -1 50 -4 16 -10 18 -41 11 -31 -6 -132 -8 -209 -3 -17 1 -24 9 -29 30 -4
24 -11 29 -34 29 -15 0 -31 5 -35 12 -7 11 115 6 207 -8 l36 -6 7 139 c4 77 4
152 0 168 -7 28 -6 28 29 22 l36 -6 -1 94 -1 94 -28 6 c-16 4 -34 3 -41 -1 -7
-5 -41 -7 -75 -6 -35 2 -64 -1 -68 -7 -8 -14 -52 -14 -60 -1 -4 7 -53 10 -126
9 -66 -1 -122 1 -125 4 -4 4 -16 2 -26 -4 -19 -10 -20 -18 -13 -95 4 -46 4
-84 0 -84 -3 0 -14 7 -22 16 -10 10 -28 14 -49 12 l-33 -4 4 68 c2 38 7 78 11
90 8 27 -10 38 -63 38 -34 0 -41 -3 -37 -15z m612 -111 c23 -5 31 -12 34 -34
l4 -28 -180 1 -181 2 0 25 0 25 107 -3 c64 -1 109 2 113 8 7 11 57 13 103 4z
m-23 -168 l0 -34 -62 -7 c-40 -4 -69 -2 -84 5 -12 7 -40 10 -63 8 -39 -5 -41
-4 -42 23 l-1 28 96 4 c53 1 110 4 126 5 28 2 30 0 30 -32z m-14 -102 c9 -2
15 -17 16 -39 1 -31 -2 -35 -30 -40 -18 -3 -66 -3 -107 0 -41 3 -85 6 -96 6
-18 1 -22 7 -21 33 1 31 1 31 54 29 29 -1 55 2 58 7 6 9 98 12 126 4z"/>
<path d="M490 269 c-25 -21 -78 -56 -117 -77 -40 -20 -73 -39 -73 -42 0 -3 18
-18 40 -33 l40 -28 47 32 c27 18 73 51 103 74 30 23 64 45 75 49 19 7 18 10
-15 37 -19 16 -39 29 -45 29 -5 -1 -30 -19 -55 -41z"/>
<path d="M685 286 c-16 -13 -28 -26 -25 -28 3 -2 25 -19 50 -38 25 -18 69 -56
97 -84 l53 -50 35 34 c19 19 35 36 35 40 0 13 -186 150 -205 150 -5 0 -23 -11
-40 -24z"/>
</g>
</svg>
