<?xml version="1.0" standalone="no"?>
<!DOCTYPE svg PUBLIC "-//W3C//DTD SVG 20010904//EN"
 "http://www.w3.org/TR/2001/REC-SVG-20010904/DTD/svg10.dtd">
<svg version="1.0" xmlns="http://www.w3.org/2000/svg"
 width="101.000000pt" height="101.000000pt" viewBox="0 0 101.000000 101.000000"
 preserveAspectRatio="xMidYMid meet">
<metadata>
Created by potrace 1.16, written by Peter Selinger 2001-2019
</metadata>
<g transform="translate(0.000000,101.000000) scale(0.100000,-0.100000)"
fill="#000000" stroke="none">
<path d="M228 984 c-24 -7 -30 -46 -22 -161 6 -98 8 -104 30 -109 13 -3 35 -3
49 0 24 6 24 8 22 91 l-2 85 43 0 c23 0 42 5 42 10 0 6 16 10 35 10 20 0 35
-5 35 -11 0 -9 32 -10 118 -5 l117 7 3 -81 c1 -44 1 -80 -1 -80 -2 0 -30 9
-63 20 -32 11 -62 20 -66 20 -6 0 -48 -62 -48 -73 0 -5 32 -16 75 -23 40 -8
144 -42 175 -59 25 -14 25 -14 -12 -15 -21 0 -38 -4 -38 -10 0 -5 -16 -10 -35
-10 -19 0 -35 5 -35 10 0 6 -28 10 -65 10 l-64 0 -7 -35 c-3 -19 -3 -48 0 -63
13 -52 15 -102 7 -125 -4 -12 -6 -38 -4 -59 5 -39 22 -49 65 -41 24 4 24 8 26
96 1 143 -3 132 56 130 28 0 57 3 63 9 7 6 28 7 47 4 37 -7 37 -7 37 -112 0
-28 -5 -62 -10 -76 -15 -41 2 -54 69 -50 l25 2 2 160 c1 99 -2 158 -8 155 -15
-10 -10 5 11 35 23 32 24 31 -50 55 -67 21 -75 26 -63 34 6 4 6 35 0 84 -8 56
-7 83 1 100 7 12 11 32 10 44 -2 22 -5 22 -102 18 -54 -3 -101 -7 -104 -10 -9
-9 -61 -5 -67 5 -3 5 -54 9 -113 8 -59 0 -120 2 -137 5 -16 3 -37 3 -47 1z"/>
<path d="M478 873 c-10 -2 -18 -8 -19 -11 -10 -92 -83 -164 -167 -164 -20 0
-41 -2 -46 -5 -5 -3 -44 -5 -87 -4 -44 1 -79 0 -79 -4 0 -3 7 -17 16 -30 13
-20 16 -56 16 -194 0 -187 -2 -183 67 -173 l32 4 -8 57 c-7 50 -7 80 -2 146 1
18 10 20 99 23 95 2 98 2 99 -20 1 -13 3 -48 5 -78 3 -30 0 -70 -6 -88 -5 -18
-7 -36 -4 -40 7 -7 86 -6 93 1 2 2 -2 25 -9 51 -11 40 -10 49 2 57 11 8 12 12
3 16 -15 6 -18 73 -3 73 6 0 10 26 10 59 l0 59 -95 -2 c-52 0 -95 0 -95 1 0 1
32 14 72 29 102 39 151 88 173 174 1 3 5 14 10 24 14 32 -26 52 -77 39z"/>
<path d="M279 493 c-22 -5 -30 -39 -17 -69 14 -30 -10 -116 -43 -158 -25 -31
-100 -71 -152 -81 -20 -4 -37 -10 -37 -14 0 -3 16 -23 36 -44 l35 -38 61 33
c33 17 80 51 105 75 24 24 48 43 52 43 5 0 30 -23 55 -51 l46 -51 29 24 c17
12 30 28 30 35 1 6 -25 34 -56 62 -56 48 -59 50 -82 35 -13 -9 -20 -11 -16 -5
7 12 13 52 19 123 2 21 9 45 16 53 7 9 11 17 9 19 -7 6 -74 13 -90 9z"/>
<path d="M689 493 c-22 -5 -30 -39 -17 -69 8 -17 8 -27 -1 -38 -6 -7 -14 -31
-16 -51 -7 -50 -32 -91 -75 -119 -32 -21 -53 -30 -114 -50 -17 -6 -15 -10 16
-31 20 -14 38 -30 40 -37 7 -19 79 17 128 65 45 43 91 130 96 181 2 17 5 55 8
84 5 49 4 53 -20 62 -14 6 -26 9 -27 9 -1 -1 -9 -3 -18 -6z"/>
<path d="M745 267 l-27 -22 75 -79 c81 -84 87 -86 132 -36 l20 22 -75 69 c-41
37 -80 68 -87 69 -7 0 -24 -10 -38 -23z"/>
</g>
</svg>
