<?xml version="1.0" standalone="no"?>
<!DOCTYPE svg PUBLIC "-//W3C//DTD SVG 20010904//EN"
 "http://www.w3.org/TR/2001/REC-SVG-20010904/DTD/svg10.dtd">
<svg version="1.0" xmlns="http://www.w3.org/2000/svg"
 width="101.000000pt" height="101.000000pt" viewBox="0 0 101.000000 101.000000"
 preserveAspectRatio="xMidYMid meet">
<metadata>
Created by potrace 1.16, written by Peter Selinger 2001-2019
</metadata>
<g transform="translate(0.000000,101.000000) scale(0.100000,-0.100000)"
fill="#000000" stroke="none">
<path d="M644 839 l3 -174 -54 2 c-43 1 -53 -2 -53 -15 0 -14 -2 -15 -9 -3 -6
9 -6 22 0 33 5 10 7 28 3 41 -5 22 -10 24 -50 19 -29 -3 -44 -1 -44 7 0 20 61
135 86 162 20 20 22 28 12 36 -22 17 -89 36 -98 27 -4 -5 -18 -40 -30 -79 -13
-38 -31 -86 -41 -106 -17 -34 -21 -36 -80 -43 -91 -9 -169 -7 -169 4 0 14 -54
12 -68 -2 -14 -14 -16 -146 -2 -168 6 -9 23 -14 49 -13 34 2 41 -1 41 -16 0
-22 36 -34 62 -20 10 5 40 7 70 3 55 -8 56 -5 -6 -49 -12 -9 -19 -26 -19 -44
0 -28 -3 -31 -31 -30 -53 0 -144 -9 -155 -15 -6 -4 -4 -23 6 -51 8 -25 19 -43
23 -40 5 3 26 8 47 10 67 8 92 13 104 21 9 5 10 2 6 -10 -4 -10 -2 -27 4 -38
6 -11 8 -35 4 -55 -6 -31 -9 -34 -38 -32 -66 4 -65 5 -48 -51 l16 -50 40 4
c97 9 116 31 115 128 -2 111 -1 118 24 119 11 1 28 3 36 4 8 1 29 3 46 4 28 1
32 5 41 47 l11 45 -42 -6 c-80 -13 -116 -13 -116 0 0 14 69 65 88 65 7 0 12 6
11 13 -6 45 1 53 43 54 23 1 44 7 48 14 6 8 9 8 12 -1 2 -6 15 -11 28 -10 89
5 199 4 205 -2 9 -9 -20 -98 -53 -163 l-25 -50 -14 40 c-7 22 -16 53 -19 70
-3 16 -7 37 -9 45 -2 8 -4 21 -4 28 -1 10 -12 12 -43 8 -23 -3 -46 -10 -50
-14 -9 -9 20 -118 51 -187 11 -26 21 -51 21 -56 0 -24 -146 -87 -218 -94 -25
-2 -46 -6 -48 -8 -2 -2 16 -25 40 -51 l44 -47 78 31 c44 18 100 45 126 61 l46
30 48 -36 c46 -35 135 -85 151 -85 11 1 59 80 54 88 -2 4 -27 16 -55 28 -28
11 -69 32 -92 46 l-41 26 38 79 c21 43 49 119 64 168 43 146 47 133 -42 134
-42 1 -78 3 -80 4 -1 2 -4 26 -5 53 l-3 49 99 3 c106 2 118 8 114 52 -3 23 -8
26 -78 33 -41 4 -88 6 -105 5 -29 -3 -30 -2 -28 32 3 45 7 62 17 78 12 20 2
25 -59 30 l-55 4 4 -173z m-213 -201 c-7 -32 -8 -33 -65 -36 -40 -2 -62 1 -68
10 -8 10 -11 10 -15 1 -6 -15 -73 -18 -73 -3 0 6 -15 10 -34 10 -29 0 -46 13
-46 36 0 2 62 5 138 7 75 1 144 4 153 5 13 2 15 -4 10 -30z"/>
<path d="M248 969 c-6 -4 -8 -21 -4 -40 14 -72 24 -128 25 -142 1 -13 73 0 82
15 5 7 7 22 4 33 -6 20 -13 61 -19 103 -2 12 -7 26 -10 30 -9 9 -64 9 -78 1z"/>
<path d="M101 939 c-26 -10 -26 -8 12 -109 23 -60 28 -65 53 -63 54 4 55 7 30
80 -13 37 -27 76 -31 86 -8 19 -27 21 -64 6z"/>
</g>
</svg>
