<?xml version="1.0" standalone="no"?>
<!DOCTYPE svg PUBLIC "-//W3C//DTD SVG 20010904//EN"
 "http://www.w3.org/TR/2001/REC-SVG-20010904/DTD/svg10.dtd">
<svg version="1.0" xmlns="http://www.w3.org/2000/svg"
 width="101.000000pt" height="101.000000pt" viewBox="0 0 101.000000 101.000000"
 preserveAspectRatio="xMidYMid meet">
<metadata>
Created by potrace 1.16, written by Peter Selinger 2001-2019
</metadata>
<g transform="translate(0.000000,101.000000) scale(0.100000,-0.100000)"
fill="#000000" stroke="none">
<path d="M607 988 c-88 -147 -139 -208 -173 -208 -18 0 -18 -5 2 -56 14 -37
19 -42 38 -35 11 5 26 6 33 4 7 -2 22 1 35 7 16 8 12 1 -12 -20 -40 -36 -132
-101 -137 -96 -9 9 -14 248 -5 259 6 7 10 35 9 62 l-1 50 -90 -1 c-50 0 -99 3
-110 9 -10 5 -33 6 -51 3 -30 -6 -33 -9 -33 -46 0 -22 3 -42 8 -45 13 -8 11
-173 -1 -181 -6 -3 -9 -59 -8 -137 1 -73 -1 -150 -4 -172 -4 -22 -9 -58 -12
-80 -3 -22 -20 -70 -38 -106 l-34 -67 45 -21 c24 -12 46 -21 47 -19 7 7 53
118 50 118 -3 0 2 17 10 38 17 44 35 151 28 169 -4 9 7 13 35 13 22 0 46 2 54
5 10 4 13 -17 13 -102 l0 -108 -43 -1 c-23 0 -45 -3 -48 -6 -3 -4 2 -20 10
-37 9 -17 16 -34 15 -38 -6 -34 9 -36 87 -14 66 18 67 21 59 196 -5 111 -4
155 4 155 6 0 11 14 11 32 0 29 1 30 18 15 10 -10 23 -17 29 -17 6 0 47 28 91
63 44 34 88 67 98 73 16 9 14 13 -21 38 -22 16 -32 26 -22 22 10 -3 65 0 123
6 105 11 106 11 123 -11 l18 -23 41 21 c23 12 42 25 42 30 0 9 -118 149 -143
169 -13 11 -21 10 -49 -4 -18 -9 -34 -18 -36 -19 -2 -2 11 -18 27 -36 17 -18
31 -37 31 -41 0 -3 -21 -6 -47 -6 -27 1 -73 -1 -104 -3 l-57 -4 38 45 c68 80
107 120 119 120 24 0 9 21 -29 40 -50 26 -66 25 -83 -2z m-300 -176 l2 -67
-52 0 -52 0 0 62 0 62 45 4 c25 2 47 4 50 5 3 1 6 -29 7 -66z m-3 -227 l0 -70
-52 -3 -52 -3 2 73 3 73 50 0 50 0 -1 -70z"/>
<path d="M716 687 l-29 -23 49 -36 c27 -20 66 -54 87 -76 37 -38 37 -39 13
-35 -14 3 -34 2 -43 -2 -10 -3 -48 -7 -85 -8 l-67 -2 25 26 c13 14 24 30 24
36 0 14 -94 47 -98 34 -7 -21 -79 -132 -103 -158 -14 -16 -40 -40 -58 -54
l-32 -26 29 -31 c17 -18 35 -32 40 -32 6 0 25 18 42 40 l32 40 34 -51 c19 -28
32 -55 29 -59 -6 -10 -149 -70 -167 -70 -7 0 -19 -4 -27 -9 -12 -8 -10 -15 11
-40 15 -17 28 -36 30 -43 6 -16 84 16 162 66 31 20 59 36 62 36 3 0 26 -14 50
-31 43 -30 174 -93 178 -87 1 2 15 24 30 51 20 34 23 48 14 51 -124 39 -157
51 -181 63 l-28 14 26 31 c28 33 87 145 100 188 4 14 23 39 42 56 l36 30 -84
67 c-46 37 -90 67 -99 67 -8 0 -28 -10 -44 -23z m24 -276 c-4 -9 -21 -32 -37
-52 l-28 -36 -20 25 c-22 28 -44 64 -45 72 0 3 31 5 69 6 61 0 69 -2 61 -15z"/>
</g>
</svg>
