<?xml version="1.0" standalone="no"?>
<!DOCTYPE svg PUBLIC "-//W3C//DTD SVG 20010904//EN"
 "http://www.w3.org/TR/2001/REC-SVG-20010904/DTD/svg10.dtd">
<svg version="1.0" xmlns="http://www.w3.org/2000/svg"
 width="101.000000pt" height="102.000000pt" viewBox="0 0 101.000000 102.000000"
 preserveAspectRatio="xMidYMid meet">
<metadata>
Created by potrace 1.16, written by Peter Selinger 2001-2019
</metadata>
<g transform="translate(0.000000,102.000000) scale(0.100000,-0.100000)"
fill="#000000" stroke="none">
<path d="M298 1013 c-19 -5 -25 -23 -8 -23 6 0 10 -25 10 -55 0 -30 -4 -55
-10 -55 -5 0 -10 -18 -10 -40 0 -22 5 -40 11 -40 6 0 9 -12 7 -27 -3 -27 -5
-28 -58 -28 l-55 0 2 97 1 97 -34 11 c-59 20 -74 8 -74 -60 0 -36 5 -60 12
-62 9 -3 9 -23 0 -83 -6 -44 -8 -82 -5 -85 2 -3 47 -5 98 -5 l93 0 4 -47 c3
-49 -3 -58 -42 -58 -10 0 -21 6 -24 13 -5 10 -7 10 -12 0 -7 -15 -74 -18 -74
-3 0 6 -18 10 -40 10 -33 0 -42 -4 -49 -23 -5 -13 -7 -35 -4 -49 5 -25 8 -26
48 -22 l44 4 -5 -43 c-3 -23 -6 -63 -8 -88 -4 -51 -36 -120 -72 -156 -14 -14
-24 -27 -22 -28 2 -2 21 -16 42 -30 35 -24 40 -25 56 -10 20 18 70 124 77 163
3 23 8 79 14 167 1 17 9 21 39 22 45 2 42 17 41 -213 -1 -158 0 -172 17 -176
31 -8 84 3 78 17 -12 32 -18 173 -7 179 6 4 11 18 11 31 0 17 5 23 23 23 40
-1 114 9 126 17 20 12 83 -4 77 -20 -2 -7 0 -26 6 -42 8 -21 7 -42 -4 -85 -17
-67 -13 -114 11 -121 9 -2 32 -2 49 1 31 4 32 6 26 37 -3 18 -1 42 5 54 9 17
8 29 -5 57 -13 28 -14 40 -6 59 6 14 9 31 6 39 -6 15 -1 16 106 18 36 0 81 -3
101 -7 35 -7 37 -6 41 26 8 54 0 72 -31 63 -25 -8 -131 -9 -196 -2 -28 3 -30
6 -27 38 1 19 3 44 3 55 1 18 8 20 68 20 36 0 76 -4 87 -8 45 -16 73 53 37 88
-10 11 -26 15 -43 12 -14 -3 -30 -7 -36 -8 -5 -1 -35 -1 -66 0 l-58 1 0 53 0
52 56 -2 c30 0 58 -4 61 -7 4 -3 28 -6 54 -6 60 0 83 20 75 64 -8 36 -22 47
-50 37 -12 -5 -42 -5 -69 -2 l-47 6 34 50 c18 28 41 57 50 64 28 23 18 39 -36
59 l-53 20 -26 -72 c-14 -39 -33 -85 -42 -103 l-17 -32 -98 6 c-173 11 -181 9
-182 -44 0 -40 25 -53 93 -48 87 6 99 6 102 3 2 -2 7 -26 10 -53 l7 -50 -39 1
c-21 0 -48 4 -61 8 -53 18 -94 -22 -77 -75 6 -17 15 -18 94 -15 85 4 89 3 89
-18 1 -11 4 -36 8 -53 5 -29 3 -34 -19 -42 -28 -11 -123 -7 -209 8 -5 0 -8 14
-8 30 0 17 -4 33 -10 36 -13 8 -13 52 0 60 13 8 13 142 1 150 -12 7 -13 172
-1 180 5 3 8 23 8 44 0 22 3 44 6 50 13 20 -51 36 -96 24z"/>
<path d="M498 987 l-36 -23 38 -56 c21 -32 40 -63 43 -70 5 -17 83 26 79 44
-4 17 -76 128 -82 128 -3 -1 -21 -11 -42 -23z"/>
</g>
</svg>
