<?xml version="1.0" standalone="no"?>
<!DOCTYPE svg PUBLIC "-//W3C//DTD SVG 20010904//EN"
 "http://www.w3.org/TR/2001/REC-SVG-20010904/DTD/svg10.dtd">
<svg version="1.0" xmlns="http://www.w3.org/2000/svg"
 width="101.000000pt" height="101.000000pt" viewBox="0 0 101.000000 101.000000"
 preserveAspectRatio="xMidYMid meet">
<metadata>
Created by potrace 1.16, written by Peter Selinger 2001-2019
</metadata>
<g transform="translate(0.000000,101.000000) scale(0.100000,-0.100000)"
fill="#000000" stroke="none">
<path d="M575 983 c-5 -16 -10 -36 -12 -46 -2 -10 -19 -52 -39 -93 -38 -77
-139 -197 -188 -223 -35 -19 -33 -27 12 -50 l37 -19 -30 -12 c-69 -27 -75 -19
-75 107 0 64 1 65 24 59 41 -10 115 5 121 24 9 29 -5 70 -24 68 -9 -1 -38 0
-64 0 l-48 2 5 53 c3 28 7 70 8 91 l3 40 -53 0 c-38 1 -53 -3 -56 -14 -8 -29
-5 -85 5 -97 6 -6 9 -26 7 -44 -2 -27 -7 -33 -30 -33 -14 -1 -24 2 -21 7 3 4
6 18 8 30 1 12 6 30 10 39 5 13 -2 19 -32 27 -21 6 -44 11 -50 11 -13 0 -23
-28 -24 -65 -2 -77 -15 -173 -29 -209 -15 -40 -14 -43 29 -54 38 -9 40 -8 50
17 15 40 30 99 25 104 -3 2 7 2 21 0 18 -4 25 -12 25 -29 0 -13 5 -24 10 -24
12 0 14 -139 2 -156 -7 -11 -45 -22 -95 -29 -56 -7 -78 -17 -72 -34 4 -9 12
-29 18 -46 5 -16 11 -31 12 -33 1 -1 26 9 56 23 67 31 77 31 78 3 6 -86 5
-227 -1 -249 -9 -31 7 -39 59 -32 l31 5 0 136 c0 194 -1 193 47 211 48 18 57
28 51 60 -3 17 8 35 41 69 24 26 42 40 39 32 -11 -30 11 -45 66 -45 l53 0 1
-52 c1 -52 0 -53 -32 -59 -18 -3 -38 -3 -45 1 -6 5 -29 9 -49 11 -42 4 -51 -9
-43 -62 4 -26 9 -30 32 -29 15 1 33 5 39 9 7 4 32 4 56 1 48 -8 48 -6 47 -104
0 -29 -2 -56 -6 -59 -7 -8 -67 -6 -125 3 -55 9 -89 9 -98 1 -7 -8 -6 -75 1
-83 3 -3 16 -4 29 -4 13 1 68 2 123 2 55 0 129 0 165 0 36 0 99 0 141 0 74 0
77 1 82 26 9 49 -1 61 -51 62 -26 0 -56 0 -67 1 -11 1 -41 -1 -66 -4 l-47 -4
-7 43 c-3 25 -2 53 4 64 6 11 8 27 4 37 -5 13 -3 16 10 11 10 -4 28 -2 41 4
16 8 38 8 69 1 l45 -9 5 30 c8 59 -8 76 -63 68 -8 -1 -37 -4 -63 -6 -40 -3
-47 -1 -43 12 3 8 6 30 6 49 l0 34 49 0 c63 0 81 7 81 32 0 18 4 17 35 -11 20
-17 39 -31 43 -30 4 0 23 19 42 41 23 27 31 43 22 46 -7 2 -39 24 -72 48 -65
50 -124 118 -171 201 -25 44 -29 56 -18 69 7 9 8 18 3 23 -7 7 -91 31 -107 31
-3 0 -8 -12 -12 -27z m140 -259 l45 -63 -128 2 -128 2 32 45 c17 25 46 71 64
103 l33 58 18 -42 c11 -23 40 -70 64 -105z"/>
</g>
</svg>
