<?xml version="1.0" standalone="no"?>
<!DOCTYPE svg PUBLIC "-//W3C//DTD SVG 20010904//EN"
 "http://www.w3.org/TR/2001/REC-SVG-20010904/DTD/svg10.dtd">
<svg version="1.0" xmlns="http://www.w3.org/2000/svg"
 width="101.000000pt" height="101.000000pt" viewBox="0 0 101.000000 101.000000"
 preserveAspectRatio="xMidYMid meet">
<metadata>
Created by potrace 1.16, written by Peter Selinger 2001-2019
</metadata>
<g transform="translate(0.000000,101.000000) scale(0.100000,-0.100000)"
fill="#000000" stroke="none">
<path d="M570 923 c-42 -79 -81 -134 -134 -191 -27 -29 -31 -30 -38 -15 -10
27 -9 101 1 108 5 3 9 31 9 63 l-1 57 -148 2 -148 2 1 -42 c0 -23 5 -47 10
-54 13 -16 2 -241 -12 -258 -6 -7 -11 -48 -11 -92 0 -92 -4 -136 -11 -149 -3
-5 -6 -21 -6 -36 0 -15 -14 -57 -31 -94 -17 -37 -30 -68 -29 -69 44 -27 83
-44 88 -38 7 7 46 118 42 118 -1 0 3 16 9 35 13 42 20 75 24 113 1 15 3 30 4
35 0 4 29 7 64 7 l62 0 0 -98 c0 -105 -3 -111 -60 -106 -11 1 -28 1 -38 1 -16
-2 -16 -4 -1 -27 8 -13 13 -28 10 -34 -3 -5 -3 -17 0 -26 8 -21 77 -15 131 11
44 22 55 58 47 151 -3 32 -5 74 -4 93 1 19 2 93 3 163 l2 129 26 -32 26 -31
58 62 c57 62 58 63 107 60 27 -1 55 3 63 9 15 12 156 9 222 -5 29 -7 33 -5 39
19 3 14 4 36 1 49 -6 22 -9 22 -160 22 l-155 0 39 55 c43 62 45 66 27 73 -7 3
-30 12 -50 21 l-36 16 -42 -77z m-253 -123 l2 -69 -52 6 c-29 3 -53 6 -53 7
-1 1 -4 27 -6 58 l-5 57 46 4 c25 2 51 4 56 5 6 1 11 -28 12 -68z m0 -224 l3
-68 -31 6 c-17 3 -46 6 -63 6 l-31 0 0 62 0 63 60 0 60 0 2 -69z"/>
<path d="M507 639 c-17 -10 -23 -54 -9 -75 4 -8 40 -11 103 -10 l96 1 -42 -55
c-71 -92 -142 -207 -159 -256 -14 -41 -14 -49 -1 -74 18 -36 115 -76 144 -60
11 5 59 8 107 6 108 -4 126 2 158 51 42 65 40 74 -16 110 -55 36 -69 35 -66
-5 2 -38 -18 -71 -48 -78 -37 -9 -120 -7 -175 5 -3 0 -5 17 -3 37 5 65 125
237 197 282 40 24 42 28 42 73 l0 47 -92 -5 c-60 -4 -97 -2 -106 5 -16 13
-106 14 -130 1z"/>
</g>
</svg>
