<?xml version="1.0" standalone="no"?>
<!DOCTYPE svg PUBLIC "-//W3C//DTD SVG 20010904//EN"
 "http://www.w3.org/TR/2001/REC-SVG-20010904/DTD/svg10.dtd">
<svg version="1.0" xmlns="http://www.w3.org/2000/svg"
 width="101.000000pt" height="102.000000pt" viewBox="0 0 101.000000 102.000000"
 preserveAspectRatio="xMidYMid meet">
<metadata>
Created by potrace 1.16, written by Peter Selinger 2001-2019
</metadata>
<g transform="translate(0.000000,102.000000) scale(0.100000,-0.100000)"
fill="#000000" stroke="none">
<path d="M498 1013 c-16 -4 -16 -7 -1 -39 9 -18 13 -37 10 -41 -12 -11 -197
-15 -210 -4 -13 10 -69 13 -100 4 -16 -4 -17 -19 -13 -170 l3 -165 -31 -19
c-17 -10 -52 -26 -78 -36 -27 -9 -48 -23 -48 -30 0 -16 31 -93 37 -93 2 0 32
21 65 46 53 41 59 44 53 23 -5 -13 -9 -39 -11 -56 -6 -76 -56 -184 -115 -248
-21 -23 -39 -44 -39 -47 0 -2 23 -15 51 -28 43 -21 52 -22 60 -10 69 111 91
150 105 189 9 25 20 55 24 66 l9 20 -1 -20 c-3 -59 0 -64 40 -58 62 9 180 9
189 0 20 -20 -114 -94 -183 -101 -22 -2 -53 -7 -70 -11 l-32 -7 23 -34 c13
-19 25 -40 27 -46 12 -34 225 52 286 115 l34 35 40 -40 c45 -45 162 -104 223
-113 40 -6 40 -6 67 44 16 28 25 51 20 52 -4 0 -16 2 -27 4 -11 3 -38 6 -61 9
-60 8 -147 43 -173 70 l-23 24 24 1 c91 6 197 4 219 -2 23 -8 27 -5 31 18 12
59 8 61 -125 62 -151 2 -167 3 -167 14 0 4 9 13 19 19 11 5 30 28 42 50 20 35
24 38 33 23 8 -16 11 -26 15 -66 1 -11 61 -1 103 16 44 18 45 21 64 222 3 33
6 74 7 90 l2 30 -129 9 c-97 7 -131 6 -134 -2 -2 -8 -31 -12 -78 -12 -71 0
-74 1 -70 23 3 12 5 27 5 33 1 16 76 26 186 25 123 -1 168 -5 183 -14 22 -15
61 1 68 27 10 42 1 71 -21 69 -99 -12 -247 -13 -260 -3 -8 7 -24 10 -34 7 -16
-4 -21 3 -30 39 -11 42 -13 44 -49 43 -20 -1 -45 -3 -54 -6z m-105 -172 c10
-1 15 -5 12 -11 -3 -5 -1 -19 5 -30 12 -23 5 -24 -73 -14 -39 6 -46 10 -49 33
-4 28 -7 28 105 22z m-43 -139 c57 4 58 4 55 -21 -2 -21 -7 -25 -26 -23 -34 4
-70 5 -73 1 -10 -12 -14 -46 -7 -57 8 -14 30 -16 81 -10 21 3 24 -1 26 -29 2
-32 1 -32 -40 -27 -22 3 -48 5 -56 5 -23 1 -38 46 -39 117 -1 65 11 108 17 63
4 -22 7 -23 62 -19z m286 -6 c29 -1 31 -3 28 -34 -5 -60 -16 -97 -40 -139 -14
-24 -26 -43 -27 -43 -1 0 -3 12 -3 26 -2 33 -4 34 -55 36 -37 2 -44 6 -45 23
-1 18 5 21 44 23 49 2 65 15 56 47 -8 27 -5 25 -55 27 -37 2 -44 6 -45 23 -1
18 3 20 55 16 31 -2 70 -4 87 -5z m167 -58 c-2 -35 -5 -74 -7 -88 -2 -14 -5
-28 -5 -32 -1 -7 -71 -6 -71 2 0 3 5 21 11 40 14 46 20 80 21 107 0 16 7 23
27 26 14 2 26 5 26 6 0 0 -1 -27 -2 -61z m-495 -179 c9 -1 22 0 27 1 6 1 24 4
42 5 31 3 31 3 28 -36 -5 -54 -12 -62 -49 -54 -17 3 -46 7 -64 7 -27 1 -31 5
-26 22 4 11 8 34 9 50 4 40 6 45 12 24 2 -10 12 -19 21 -19z m257 -1 c-19 -11
-18 -12 10 -25 l30 -13 -37 6 c-37 6 -43 1 -40 -36 0 -3 -8 -6 -18 -7 -17 -2
-19 5 -18 41 l2 42 46 2 c38 1 42 0 25 -10z"/>
<path d="M58 863 c-13 -3 -16 -12 -12 -36 3 -18 7 -61 8 -97 5 -118 0 -109 53
-104 26 2 50 10 55 17 10 15 10 51 1 61 -5 4 -9 26 -10 49 -1 23 -2 51 -3 61
-2 46 -37 64 -92 49z"/>
</g>
</svg>
