<?xml version="1.0" standalone="no"?>
<!DOCTYPE svg PUBLIC "-//W3C//DTD SVG 20010904//EN"
 "http://www.w3.org/TR/2001/REC-SVG-20010904/DTD/svg10.dtd">
<svg version="1.0" xmlns="http://www.w3.org/2000/svg"
 width="101.000000pt" height="101.000000pt" viewBox="0 0 101.000000 101.000000"
 preserveAspectRatio="xMidYMid meet">
<metadata>
Created by potrace 1.16, written by Peter Selinger 2001-2019
</metadata>
<g transform="translate(0.000000,101.000000) scale(0.100000,-0.100000)"
fill="#000000" stroke="none">
<path d="M438 1003 c-22 -5 -22 -11 -3 -55 l14 -35 -72 -6 c-120 -9 -185 -8
-191 2 -8 12 -85 12 -108 0 -16 -9 -17 -22 -14 -107 4 -97 4 -97 31 -100 15
-2 38 -1 51 2 23 6 24 10 21 64 l-3 57 80 2 c135 3 147 3 264 -2 72 -3 121 -1
134 6 13 7 48 8 97 4 l76 -7 -2 -58 c-2 -57 -1 -59 26 -65 55 -12 101 13 81
45 -4 7 -6 49 -3 93 l4 80 -43 -7 c-91 -15 -258 -18 -273 -6 -8 7 -24 10 -34
7 -17 -4 -22 3 -32 44 -12 47 -14 49 -48 48 -20 -1 -44 -3 -53 -6z"/>
<path d="M275 754 c-38 -30 -107 -73 -153 -95 l-82 -41 31 -39 c18 -23 36 -36
42 -32 7 4 28 16 47 28 l35 22 2 -26 c2 -14 2 -59 2 -98 0 -40 5 -88 12 -106
9 -26 9 -53 -1 -123 -12 -94 -14 -143 -5 -152 7 -7 74 -6 82 1 3 3 5 21 6 39
l1 33 50 -2 c28 0 56 3 62 8 13 11 23 11 175 3 l105 -6 1 -35 c1 -43 5 -47 49
-46 44 1 48 5 45 43 -5 50 -5 126 -2 303 l3 167 39 -31 40 -32 35 34 c19 18
34 38 34 44 0 11 -301 185 -319 185 -10 0 -66 -59 -60 -63 2 -2 39 -23 83 -47
56 -30 74 -45 65 -51 -19 -12 -76 -11 -84 1 -7 12 -113 11 -121 -1 -7 -13 -51
-11 -59 2 -4 6 -37 9 -85 7 -43 -2 -77 -2 -76 -1 12 12 128 82 145 88 12 4 20
12 18 18 -5 15 -66 57 -81 56 -6 0 -42 -25 -81 -55z m328 -191 l98 -6 -3 -26
c-2 -14 -6 -25 -10 -23 -5 1 -93 2 -198 2 -183 0 -190 1 -190 20 0 21 12 24
76 20 18 -1 35 3 39 9 7 13 50 14 188 4z m83 -165 c-1 -25 -5 -27 -63 -33 -39
-4 -69 -2 -82 5 -13 6 -65 10 -134 8 l-112 -3 -1 25 -1 25 197 0 197 0 -1 -27z
m-206 -98 c0 -14 77 -13 82 1 3 8 23 9 63 5 58 -7 60 -8 60 -36 0 -35 -20 -41
-105 -35 -30 3 -63 4 -72 4 -30 0 -110 1 -164 4 -46 2 -50 4 -46 25 4 20 10
22 58 22 30 0 54 5 54 10 0 6 16 10 35 10 19 0 35 -4 35 -10z"/>
</g>
</svg>
