<?xml version="1.0" standalone="no"?>
<!DOCTYPE svg PUBLIC "-//W3C//DTD SVG 20010904//EN"
 "http://www.w3.org/TR/2001/REC-SVG-20010904/DTD/svg10.dtd">
<svg version="1.0" xmlns="http://www.w3.org/2000/svg"
 width="101.000000pt" height="101.000000pt" viewBox="0 0 101.000000 101.000000"
 preserveAspectRatio="xMidYMid meet">
<metadata>
Created by potrace 1.16, written by Peter Selinger 2001-2019
</metadata>
<g transform="translate(0.000000,101.000000) scale(0.100000,-0.100000)"
fill="#000000" stroke="none">
<path d="M458 974 c-9 -3 -20 -17 -24 -32 -4 -16 -9 -21 -11 -12 -3 13 -32 15
-186 15 l-182 0 -3 -24 c-2 -12 -1 -34 2 -47 6 -22 9 -23 71 -18 l65 5 -5 -33
c-18 -104 -52 -179 -119 -261 l-43 -53 25 -43 25 -43 28 33 c27 33 27 33 28 9
1 -14 3 -65 6 -113 3 -48 1 -103 -4 -122 -10 -38 1 -46 55 -38 27 4 30 8 31
46 4 86 2 83 49 85 36 1 43 -2 42 -16 -5 -60 9 -73 69 -65 28 5 31 8 23 27
-12 32 -10 118 2 134 8 9 8 16 0 24 -15 15 -16 74 -2 83 5 3 9 48 8 101 -1 90
-2 95 -24 100 -13 4 -41 3 -62 -1 -20 -4 -47 -9 -58 -11 l-22 -2 19 54 c11 30
20 64 21 77 2 21 6 22 69 20 60 -2 69 0 74 18 6 17 8 17 21 4 9 -8 20 -13 25
-9 5 3 75 7 154 9 l145 3 0 -44 c0 -24 5 -44 10 -44 6 0 10 -11 10 -25 0 -14
-4 -25 -10 -25 -6 0 -10 -30 -10 -70 0 -40 4 -70 10 -70 6 0 10 -11 10 -25 0
-14 -4 -25 -10 -25 -5 0 -10 -22 -10 -50 0 -31 4 -50 11 -50 8 0 10 -28 7 -96
-6 -110 -20 -136 -62 -116 -28 12 -69 5 -62 -12 3 -6 10 -30 17 -53 11 -41 21
-49 59 -45 46 5 71 12 96 25 l29 15 2 119 c1 65 2 152 2 193 1 41 1 91 1 110
1 19 2 91 3 160 l2 125 37 -1 c33 -2 37 1 42 31 11 54 0 68 -48 60 -80 -12
-256 -17 -269 -7 -7 6 -35 11 -62 11 -28 0 -61 2 -75 5 -14 2 -32 2 -42 0z
m-149 -367 c1 -12 3 -49 6 -82 3 -33 2 -75 0 -92 -6 -31 -7 -32 -50 -31 -42 2
-45 5 -50 33 -3 16 -3 57 0 90 3 33 6 69 6 80 1 17 9 21 44 23 38 1 43 -1 44
-21z"/>
<path d="M443 764 c-3 -8 -3 -31 1 -52 3 -20 6 -62 7 -92 1 -30 6 -62 12 -71
7 -12 6 -35 -5 -80 -11 -44 -13 -70 -6 -82 5 -11 7 -29 4 -42 -7 -27 12 -35
63 -27 31 4 32 6 27 42 -5 34 -3 38 17 38 12 1 33 2 47 4 22 3 25 0 22 -23 -3
-30 15 -39 64 -32 l29 5 2 212 2 212 -140 1 c-114 2 -141 -1 -146 -13z m187
-118 c0 -19 5 -36 12 -38 8 -3 9 -21 2 -69 -8 -60 -10 -64 -34 -61 -14 2 -35
3 -48 4 -22 0 -22 2 -20 99 l3 99 43 0 c41 0 42 -1 42 -34z"/>
</g>
</svg>
