<?xml version="1.0" standalone="no"?>
<!DOCTYPE svg PUBLIC "-//W3C//DTD SVG 20010904//EN"
 "http://www.w3.org/TR/2001/REC-SVG-20010904/DTD/svg10.dtd">
<svg version="1.0" xmlns="http://www.w3.org/2000/svg"
 width="101.000000pt" height="102.000000pt" viewBox="0 0 101.000000 102.000000"
 preserveAspectRatio="xMidYMid meet">
<metadata>
Created by potrace 1.16, written by Peter Selinger 2001-2019
</metadata>
<g transform="translate(0.000000,102.000000) scale(0.100000,-0.100000)"
fill="#000000" stroke="none">
<path d="M595 887 l5 -134 -84 1 c-76 1 -121 -10 -88 -21 15 -6 17 -153 2
-153 -6 0 -10 -30 -10 -70 0 -40 4 -70 10 -70 6 0 10 -20 10 -45 0 -25 -5 -45
-11 -45 -7 0 -9 -43 -7 -130 3 -141 1 -136 63 -131 37 3 46 17 34 48 -12 32
-12 31 14 32 12 1 47 3 77 6 30 3 92 2 137 -1 l81 -6 -5 -32 c-4 -27 -2 -34
15 -38 11 -3 33 -3 49 1 l28 6 3 98 c2 64 0 97 -7 97 -6 0 -11 20 -11 45 0 25
5 45 10 45 6 0 10 30 10 70 0 40 -4 70 -10 70 -6 0 -10 32 -10 75 0 43 4 75
10 75 6 0 10 16 10 35 l0 35 -45 -7 c-28 -3 -50 -1 -59 6 -8 7 -37 10 -68 9
l-54 -3 0 31 1 32 85 7 c54 4 95 3 114 -4 53 -21 84 7 71 62 -7 24 -10 25
-119 32 -62 4 -122 4 -132 1 -18 -5 -19 -1 -17 43 3 47 2 49 -28 55 -17 3 -42
6 -55 6 l-24 0 5 -133z m232 -299 c1 -46 3 -108 4 -138 1 -30 -2 -69 -7 -86
l-9 -30 -53 62 -53 62 32 54 c18 29 41 62 51 74 18 21 18 21 -4 36 -57 37 -66
34 -94 -31 -15 -34 -30 -61 -34 -61 -3 0 -21 20 -39 45 -41 57 -45 59 -79 41
-27 -14 -28 -14 -27 12 l0 27 145 5 c80 3 150 7 155 8 6 1 11 -32 12 -80z
m-235 -100 l29 -38 -52 -55 c-38 -40 -55 -52 -61 -43 -12 20 -10 56 5 62 10 5
10 7 0 12 -15 7 -18 74 -3 74 6 0 10 14 10 32 0 31 0 31 21 12 12 -10 35 -36
51 -56z m114 -150 c21 -29 40 -57 44 -61 4 -4 19 2 34 14 31 24 32 24 41 -13
l7 -26 -84 -6 c-45 -3 -108 -4 -138 -1 -30 3 -65 5 -76 6 -18 1 -22 7 -21 35
l1 34 27 -26 26 -25 49 60 c27 33 50 60 51 60 1 1 18 -23 39 -51z"/>
<path d="M78 919 c-23 -13 -23 -62 -1 -84 12 -12 30 -16 69 -13 29 1 50 0 47
-5 -2 -4 -7 -19 -9 -34 -9 -50 -71 -168 -117 -226 l-47 -57 27 -41 c25 -38 28
-40 40 -23 7 11 19 28 27 39 15 19 15 18 17 -15 1 -19 1 -39 0 -44 -1 -4 3
-14 9 -21 10 -12 7 -164 -5 -221 -6 -26 -3 -32 13 -36 11 -3 31 -3 45 -1 24 5
25 9 22 52 l-3 47 43 2 44 2 -5 -39 c-5 -42 10 -53 59 -44 31 6 40 25 27 57
-5 14 -7 118 -4 234 4 186 2 210 -12 216 -9 3 -21 3 -27 -1 -6 -3 -35 -7 -66
-7 l-56 -1 34 85 33 85 70 0 c73 1 88 9 88 52 0 34 -27 53 -75 53 -24 0 -46
-4 -50 -9 -7 -13 -173 -13 -180 -1 -8 13 -35 12 -57 -1z m219 -469 l2 -130
-44 2 -44 2 -6 57 c-4 37 -3 65 5 79 7 13 10 42 7 66 l-4 43 41 4 c22 2 41 4
41 5 0 1 1 -57 2 -128z"/>
</g>
</svg>
