<?xml version="1.0" standalone="no"?>
<!DOCTYPE svg PUBLIC "-//W3C//DTD SVG 20010904//EN"
 "http://www.w3.org/TR/2001/REC-SVG-20010904/DTD/svg10.dtd">
<svg version="1.0" xmlns="http://www.w3.org/2000/svg"
 width="101.000000pt" height="102.000000pt" viewBox="0 0 101.000000 102.000000"
 preserveAspectRatio="xMidYMid meet">
<metadata>
Created by potrace 1.16, written by Peter Selinger 2001-2019
</metadata>
<g transform="translate(0.000000,102.000000) scale(0.100000,-0.100000)"
fill="#000000" stroke="none">
<path d="M503 1010 c-27 -11 -28 -14 -7 -46 9 -13 15 -27 12 -29 -2 -3 -37 -8
-76 -11 -51 -5 -72 -4 -72 5 0 6 -17 11 -40 11 -22 0 -40 -5 -40 -11 0 -7 -21
-10 -60 -7 -68 3 -77 -6 -63 -64 8 -31 8 -55 3 -148 -1 -28 -3 -31 -9 -15 -5
11 -6 25 -4 32 3 7 1 18 -3 25 -5 7 -9 18 -9 23 -3 39 -18 63 -37 60 -58 -12
-60 -13 -53 -68 3 -29 9 -61 12 -72 4 -11 6 -29 5 -40 -4 -39 10 -46 61 -31
44 13 47 13 47 -4 0 -21 -32 -46 -100 -80 -25 -12 -47 -24 -49 -26 -2 -2 31
-63 45 -83 2 -2 21 11 42 28 22 17 42 31 45 31 6 0 1 -69 -8 -115 -10 -49 -53
-129 -95 -178 l-40 -45 28 -7 c15 -3 35 -14 45 -23 18 -16 20 -15 39 8 55 68
121 247 120 327 l0 23 25 -20 c32 -25 41 -19 96 65 22 33 37 52 34 42 -4 -9
-1 -29 5 -43 9 -19 9 -30 0 -45 -16 -25 -15 -29 5 -29 13 0 14 -3 5 -12 -8 -8
-18 -9 -36 0 -42 19 -63 6 -63 -41 -2 -72 -9 -113 -27 -143 -17 -29 -76 -74
-96 -74 -5 0 -10 -4 -10 -10 0 -5 6 -10 14 -10 8 0 28 -12 45 -26 l30 -25 45
45 c45 45 79 124 79 187 0 21 5 26 28 26 20 0 27 -5 27 -21 0 -12 3 -32 7 -46
5 -19 0 -32 -18 -52 -25 -26 -25 -27 -6 -57 10 -17 22 -31 26 -31 5 0 38 20
74 43 55 36 64 46 58 62 -12 30 -10 35 9 33 74 -6 89 10 67 72 -9 25 -12 63
-9 102 2 35 5 73 5 86 1 16 6 22 16 18 8 -3 23 -1 34 4 11 6 40 8 68 4 55 -7
51 3 53 -129 1 -44 -2 -96 -6 -116 -7 -31 -5 -37 12 -41 11 -3 32 -3 46 -1 24
5 25 7 18 52 -8 50 -7 214 1 274 6 41 5 42 -23 25 -15 -10 -27 -10 -51 -1 -17
7 -36 10 -43 7 -8 -3 -11 6 -8 30 5 39 26 49 75 33 40 -13 74 -2 81 29 15 58
13 59 -186 59 l-183 0 -3 -24 c-4 -23 -4 -23 -23 8 -11 18 -23 29 -28 26 -13
-7 -70 -16 -103 -15 -14 0 -38 -4 -53 -10 -16 -6 -33 -7 -44 -1 -9 5 -23 6
-30 2 -10 -7 -10 -14 3 -38 17 -34 34 -43 76 -43 20 0 29 -6 33 -21 6 -23 -14
-35 -40 -24 -38 16 -82 14 -86 -3 -3 -10 -5 6 -6 33 -1 28 -3 71 -4 98 l-2 47
43 0 c23 0 42 5 42 10 0 6 16 10 35 10 19 0 35 -4 35 -10 0 -6 30 -10 70 -10
40 0 70 4 70 10 0 6 11 10 25 10 14 0 25 -5 25 -11 0 -7 53 -9 164 -7 l165 3
6 31 c11 59 10 59 -165 59 l-160 0 -13 40 c-11 33 -18 40 -43 41 -16 2 -39 -2
-51 -6z m66 -277 c10 -18 67 -23 110 -8 22 7 22 6 12 -14 -7 -12 -11 -32 -9
-44 2 -18 -1 -21 -22 -19 -14 2 -37 3 -52 3 -16 0 -28 3 -28 8 0 4 -15 9 -32
9 -71 3 -73 3 -73 31 0 14 4 31 10 38 15 19 72 16 84 -4z m-260 -126 c17 0 31
-4 31 -8 0 -4 -20 -29 -45 -56 l-44 -48 -1 52 c0 60 9 91 21 72 4 -7 21 -12
38 -12z m281 -16 c18 -31 2 -296 -18 -276 -3 3 -15 -4 -26 -14 l-21 -20 -2 41
c-2 22 2 48 7 57 15 29 1 60 -29 63 -24 3 -26 7 -27 47 l-1 44 27 -33 c24 -30
29 -31 51 -20 13 7 26 14 28 16 5 4 -61 94 -70 94 -4 0 -11 -4 -14 -10 -10
-16 -21 -12 -22 9 -1 17 5 19 53 17 33 -1 59 -8 64 -15z"/>
<path d="M707 539 c-3 -12 -1 -32 5 -44 8 -17 7 -37 -2 -72 -7 -26 -14 -62
-15 -80 -5 -46 -33 -101 -66 -124 -15 -11 -54 -31 -85 -46 l-57 -26 29 -14
c16 -9 34 -22 41 -30 19 -25 68 1 140 74 l61 62 39 -42 c21 -23 47 -54 58 -70
l20 -27 38 25 c20 14 37 30 37 35 0 9 -124 122 -141 129 -6 1 -20 -5 -31 -15
-21 -19 -21 -19 -13 6 4 14 9 57 10 95 2 39 6 93 9 121 6 48 5 52 -16 58 -40
10 -56 7 -61 -15z"/>
</g>
</svg>
