<?xml version="1.0" standalone="no"?>
<!DOCTYPE svg PUBLIC "-//W3C//DTD SVG 20010904//EN"
 "http://www.w3.org/TR/2001/REC-SVG-20010904/DTD/svg10.dtd">
<svg version="1.0" xmlns="http://www.w3.org/2000/svg"
 width="101.000000pt" height="101.000000pt" viewBox="0 0 101.000000 101.000000"
 preserveAspectRatio="xMidYMid meet">
<metadata>
Created by potrace 1.16, written by Peter Selinger 2001-2019
</metadata>
<g transform="translate(0.000000,101.000000) scale(0.100000,-0.100000)"
fill="#000000" stroke="none">
<path d="M625 940 l0 -70 -72 6 -72 7 -11 -29 c-8 -20 -8 -35 0 -53 10 -23 13
-23 83 -17 l72 6 0 -49 0 -49 -92 5 c-82 5 -93 4 -93 -11 0 -9 -4 -16 -10 -16
-13 0 -13 87 0 95 5 3 9 42 9 85 l-1 79 -64 6 c-35 4 -72 4 -81 0 -30 -12
-151 -16 -158 -5 -9 15 -41 12 -59 -5 -11 -11 -15 -41 -15 -124 -1 -63 3 -113
9 -116 13 -8 13 -52 0 -60 -13 -8 -12 -213 1 -221 7 -4 8 -42 3 -108 -6 -99
-6 -103 15 -109 51 -13 69 10 63 84 -1 11 7 17 21 18 12 1 45 3 72 5 72 6 107
-2 101 -22 -11 -33 13 -48 70 -44 18 2 20 9 22 77 0 41 -3 77 -9 80 -13 9 -11
39 6 71 9 17 15 22 15 13 0 -20 36 -32 59 -20 19 10 144 13 182 5 19 -3 27
-12 28 -27 0 -12 3 -57 6 -99 3 -42 1 -88 -5 -103 -10 -25 -12 -26 -70 -21
l-60 5 20 -39 c11 -21 20 -46 20 -53 0 -20 36 -28 67 -16 14 5 28 7 31 5 8 -8
62 23 63 37 1 6 3 68 5 137 3 171 4 172 20 166 8 -3 25 0 39 6 19 8 28 8 40
-2 8 -7 18 -10 21 -7 8 8 9 75 2 83 -9 8 -46 9 -83 1 -27 -6 -31 -4 -30 16 0
12 4 28 9 36 5 8 4 16 -5 21 -18 12 53 24 97 17 30 -5 35 -3 40 19 11 43 0 51
-73 58 -37 3 -90 5 -118 3 l-50 -2 0 45 0 45 84 2 c85 2 101 9 101 43 0 36
-17 43 -102 44 l-84 1 3 38 c2 21 8 48 14 59 14 27 -2 38 -56 38 l-40 0 0 -70z
m-395 -149 c0 -32 -3 -78 -6 -102 -6 -43 -7 -44 -43 -44 l-36 0 -3 73 c-2 45
1 72 8 72 5 0 10 11 10 24 0 24 10 29 58 35 8 1 12 -17 12 -58z m115 -44 l1
-102 -29 0 c-29 0 -29 1 -23 44 3 24 6 68 6 97 0 47 3 53 23 57 12 2 22 5 22
6 0 0 0 -45 0 -102z m138 -131 c130 17 270 14 240 -4 -7 -4 -10 -24 -9 -44 3
-33 0 -38 -23 -42 -38 -8 -163 -5 -182 5 -22 11 -57 0 -62 -20 -5 -17 -10 30
-8 66 1 11 -3 24 -8 28 -6 3 -11 18 -10 33 l1 27 10 -27 c9 -25 13 -27 51 -22z
m-264 -60 c1 -11 3 -46 6 -76 2 -30 2 -67 -1 -81 -4 -23 -10 -27 -39 -26 -40
1 -47 19 -40 107 3 30 5 64 6 76 1 16 8 20 34 21 27 1 33 -3 34 -21z m130 0
c1 -12 3 -46 6 -76 7 -85 0 -107 -35 -107 -35 0 -42 22 -35 107 3 30 5 64 6
76 1 16 8 21 29 21 21 0 28 -5 29 -21z"/>
<path d="M535 418 c-16 -6 -31 -11 -32 -12 -2 -2 47 -128 52 -134 3 -4 95 19
95 24 0 15 -67 134 -75 133 -5 0 -23 -5 -40 -11z"/>
</g>
</svg>
