<?xml version="1.0" standalone="no"?>
<!DOCTYPE svg PUBLIC "-//W3C//DTD SVG 20010904//EN"
 "http://www.w3.org/TR/2001/REC-SVG-20010904/DTD/svg10.dtd">
<svg version="1.0" xmlns="http://www.w3.org/2000/svg"
 width="101.000000pt" height="101.000000pt" viewBox="0 0 101.000000 101.000000"
 preserveAspectRatio="xMidYMid meet">
<metadata>
Created by potrace 1.16, written by Peter Selinger 2001-2019
</metadata>
<g transform="translate(0.000000,101.000000) scale(0.100000,-0.100000)"
fill="#000000" stroke="none">
<path d="M405 954 c-1 -43 14 -62 37 -48 6 4 43 7 82 8 66 1 72 -1 72 -19 -1
-11 -8 -23 -16 -27 -24 -11 -160 -9 -160 2 0 6 -11 10 -25 10 -18 0 -25 5 -25
19 0 50 -4 52 -133 45 -87 -4 -126 -2 -143 7 -35 18 -74 -2 -74 -38 0 -48 11
-55 77 -49 62 4 69 -1 49 -32 -4 -7 -6 -16 -3 -19 15 -14 -59 -168 -109 -230
l-34 -41 27 -41 c29 -45 37 -49 52 -24 12 22 13 11 13 -164 1 -143 3 -147 60
-136 20 4 24 11 25 46 4 85 2 83 44 84 31 2 38 -2 37 -15 -5 -67 10 -85 65
-75 23 5 25 10 26 56 1 123 0 178 -4 267 -2 52 0 102 5 111 5 8 7 25 4 37 -5
17 -14 20 -57 21 -82 0 -98 2 -93 15 2 6 14 40 26 76 l22 65 45 -1 c24 -1 46
-3 48 -5 2 -3 5 -35 6 -72 2 -71 4 -73 59 -68 14 1 29 8 33 14 6 8 7 7 4 -4
-8 -24 7 -41 34 -39 13 0 43 2 67 3 23 0 42 6 42 11 0 6 4 6 11 -1 6 -6 9 -28
6 -49 -3 -34 -5 -36 -12 -16 -7 22 -12 23 -51 17 -24 -3 -52 -2 -62 4 -25 14
-59 3 -65 -20 -13 -49 22 -78 67 -57 31 13 110 -2 114 -23 2 -13 -10 -17 -58
-22 -34 -4 -69 -3 -79 3 -10 5 -27 7 -38 4 -18 -5 -20 -11 -16 -42 8 -47 7
-305 -1 -353 -7 -42 6 -50 62 -41 31 4 32 6 28 42 -4 33 -2 38 17 39 12 1 47
3 77 6 30 3 92 2 137 -1 l82 -6 -5 -38 c-5 -42 7 -51 64 -42 l32 4 -8 72 c-8
80 -7 238 2 307 l6 46 -83 1 c-135 1 -124 -5 -132 70 -5 45 -4 67 4 70 6 2 11
11 11 20 0 13 2 14 9 4 5 -8 19 -13 32 -12 13 0 43 2 67 3 23 0 42 4 42 8 0 4
21 7 46 6 29 0 49 5 55 14 10 16 12 93 3 127 l-7 23 -130 -7 c-121 -6 -130 -6
-124 10 4 10 7 23 7 29 0 14 128 17 170 4 32 -9 48 2 55 38 10 53 0 57 -110
44 -69 -8 -108 -9 -129 -1 -17 5 -87 10 -156 10 l-125 0 0 -44z m201 -171 c-3
-8 -6 -22 -6 -31 0 -11 -3 -13 -8 -5 -4 6 -38 15 -76 20 -99 12 -93 28 10 30
73 1 85 -1 80 -14z m259 -22 c0 -22 -3 -37 -7 -34 -5 2 -8 10 -8 18 0 33 -134
30 -143 -3 -3 -9 -5 -1 -6 18 l-1 35 83 2 82 3 0 -39z m-596 -154 c0 -12 3
-51 6 -87 3 -36 3 -80 0 -97 -6 -31 -7 -32 -50 -31 -42 2 -45 5 -50 33 -3 16
-3 59 0 95 3 36 6 74 6 85 1 17 9 21 44 23 38 1 43 -1 44 -21z m336 -182 c0
-40 0 -40 -35 -37 -19 1 -45 3 -56 3 -18 1 -22 7 -21 35 1 26 5 33 16 29 9 -2
23 0 31 5 8 6 26 9 40 8 22 -3 25 -8 25 -43z m190 37 c6 -4 11 -22 12 -39 2
-28 -2 -34 -23 -39 -14 -4 -36 -2 -50 4 -13 7 -30 9 -38 6 -11 -4 -14 3 -13
30 1 28 5 35 16 31 9 -2 23 0 31 5 18 11 51 13 65 2z m-190 -172 c0 -34 -1
-35 -35 -32 -19 1 -44 3 -56 3 -16 1 -21 8 -21 30 0 22 4 28 16 24 9 -2 23 0
31 5 8 6 26 9 40 8 21 -3 25 -8 25 -38z m190 32 c6 -4 11 -19 12 -35 1 -21 -5
-29 -24 -33 -13 -4 -35 -2 -49 4 -13 7 -30 9 -37 6 -10 -3 -14 4 -14 26 0 23
4 29 16 25 9 -2 23 0 31 5 18 11 51 13 65 2z"/>
<path d="M697 638 c-12 -46 24 -79 64 -57 10 5 42 6 72 3 49 -6 55 -5 60 15
13 51 3 57 -98 57 -82 1 -94 -2 -98 -18z"/>
</g>
</svg>
