<?xml version="1.0" standalone="no"?>
<!DOCTYPE svg PUBLIC "-//W3C//DTD SVG 20010904//EN"
 "http://www.w3.org/TR/2001/REC-SVG-20010904/DTD/svg10.dtd">
<svg version="1.0" xmlns="http://www.w3.org/2000/svg"
 width="101.000000pt" height="101.000000pt" viewBox="0 0 101.000000 101.000000"
 preserveAspectRatio="xMidYMid meet">
<metadata>
Created by potrace 1.16, written by Peter Selinger 2001-2019
</metadata>
<g transform="translate(0.000000,101.000000) scale(0.100000,-0.100000)"
fill="#000000" stroke="none">
<path d="M734 994 c-17 -9 -41 -12 -65 -9 -23 4 -52 0 -75 -10 -44 -18 -97
-20 -123 -3 -15 9 -25 9 -46 0 -15 -7 -30 -10 -34 -8 -10 7 -241 16 -241 10 0
-11 43 -90 54 -97 9 -6 100 -4 211 6 15 2 21 -7 25 -35 6 -31 4 -37 -14 -42
-33 -9 -154 -7 -158 3 -1 4 -38 11 -81 14 -91 6 -113 -6 -103 -56 7 -35 5 -33
32 -41 14 -4 28 -1 37 9 17 16 109 20 182 7 l40 -8 -55 -52 c-68 -66 -199
-134 -272 -141 -14 -2 -7 -16 26 -54 l34 -38 38 16 c20 8 39 13 41 11 14 -14
24 -192 12 -223 -7 -20 -14 -24 -32 -18 -79 24 -99 12 -89 -53 4 -31 16 -39
52 -33 47 9 274 14 435 11 33 -1 77 2 97 5 24 5 54 1 84 -9 34 -12 51 -13 66
-5 18 10 68 6 103 -7 9 -4 14 7 17 33 8 64 3 70 -52 67 -48 -2 -50 -1 -55 29
-3 18 -3 61 0 97 3 36 6 75 6 86 1 18 6 21 28 18 22 -4 32 4 63 45 36 49 36
50 15 58 -12 4 -25 6 -29 5 -3 -1 -30 6 -60 14 -59 18 -136 59 -187 102 l-34
29 113 7 c73 4 117 3 125 -4 30 -25 62 17 50 68 -6 27 -6 27 -100 29 -53 1
-97 -2 -100 -7 -8 -13 -48 -13 -62 1 -6 6 -33 9 -60 8 -48 -4 -48 -4 -49 26 0
24 4 31 20 33 47 4 164 10 213 12 29 0 55 5 57 9 9 14 -38 95 -56 97 -9 1 -29
-4 -44 -12z m-15 -444 c33 -19 61 -38 61 -41 0 -4 -48 -9 -107 -12 -160 -8
-173 -8 -191 3 -14 7 -11 9 15 10 44 0 80 40 56 63 -3 4 -7 35 -7 70 l-1 62
57 -60 c31 -33 83 -76 117 -95z m-275 118 c-3 -18 -1 -61 4 -96 8 -57 7 -64
-11 -73 -11 -6 -35 -8 -56 -4 -20 4 -60 8 -89 9 l-54 1 34 25 c18 13 65 56
103 96 39 39 71 72 72 72 1 1 0 -13 -3 -30z m112 -263 c0 -11 3 -31 7 -45 4
-14 3 -47 -1 -75 -7 -46 -10 -50 -32 -47 -14 2 -35 3 -46 4 -18 0 -22 8 -28
55 -4 30 -2 62 4 73 5 10 7 26 3 35 -5 14 -2 16 13 11 10 -3 26 -1 34 4 22 15
45 7 46 -15z m180 0 c0 -11 3 -31 7 -45 4 -14 3 -47 -1 -75 -7 -46 -10 -50
-32 -47 -14 2 -35 3 -46 4 -18 0 -22 8 -28 55 -4 30 -2 62 4 73 5 10 7 26 3
35 -5 14 -2 16 13 11 10 -3 26 -1 34 4 22 15 45 7 46 -15z m-360 -1 c-3 -8 -1
-24 4 -34 6 -11 7 -43 4 -74 l-7 -55 -42 1 -43 2 -6 54 c-4 29 -2 61 4 72 5
10 8 25 5 32 -4 10 7 14 41 16 38 1 45 -1 40 -14z"/>
</g>
</svg>
