<?xml version="1.0" standalone="no"?>
<!DOCTYPE svg PUBLIC "-//W3C//DTD SVG 20010904//EN"
 "http://www.w3.org/TR/2001/REC-SVG-20010904/DTD/svg10.dtd">
<svg version="1.0" xmlns="http://www.w3.org/2000/svg"
 width="101.000000pt" height="103.000000pt" viewBox="0 0 101.000000 103.000000"
 preserveAspectRatio="xMidYMid meet">
<metadata>
Created by potrace 1.16, written by Peter Selinger 2001-2019
</metadata>
<g transform="translate(0.000000,103.000000) scale(0.100000,-0.100000)"
fill="#000000" stroke="none">
<path d="M190 969 c-28 -73 -81 -163 -122 -205 l-30 -32 24 -41 c12 -23 28
-39 35 -37 6 3 13 -5 16 -16 5 -16 12 -20 39 -16 l33 3 -1 -50 c0 -49 -1 -50
-30 -47 -83 8 -87 6 -87 -38 0 -44 3 -46 88 -38 33 3 32 7 39 -106 5 -65 -5
-100 -36 -133 l-21 -22 27 -31 c14 -17 26 -36 26 -41 0 -22 28 -5 60 36 19 25
58 64 86 87 l51 43 -21 40 c-11 22 -22 41 -23 43 -1 2 -17 -13 -36 -34 l-35
-38 -7 41 c-4 25 -2 50 4 62 6 11 9 26 6 33 -4 10 4 14 31 15 40 1 57 18 48
48 -6 18 -4 18 19 -4 l26 -23 37 23 c28 17 36 19 32 8 -14 -37 15 -48 97 -34
87 14 165 14 204 0 35 -12 42 -12 55 1 9 8 12 22 9 30 -5 13 2 12 37 -6 23
-12 43 -20 44 -18 1 2 14 22 29 45 15 24 27 45 27 47 0 2 -17 7 -38 11 -74 12
-233 128 -216 157 4 7 9 6 13 -1 4 -6 21 -13 37 -17 38 -7 68 18 61 52 -4 21
1 23 54 29 45 5 60 11 64 26 16 48 -20 75 -88 67 l-33 -3 7 55 c3 30 5 57 3
59 -2 2 -26 4 -54 5 -55 1 -68 -13 -54 -56 20 -61 16 -65 -63 -64 l-73 1 5 62
c5 55 3 62 -15 68 -39 12 -78 -4 -85 -35 -4 -16 -3 -35 1 -41 11 -19 13 -60 2
-53 -5 3 -24 3 -43 0 -24 -5 -35 -13 -39 -30 -9 -37 3 -55 40 -62 22 -4 34
-12 34 -23 0 -26 14 -40 46 -47 38 -7 68 18 60 50 -5 20 -1 21 59 21 61 0 65
-1 65 -22 0 -27 2 -27 -43 -8 -49 20 -54 19 -72 -16 -38 -73 -142 -156 -237
-190 -21 -7 -38 -16 -38 -20 0 -4 -15 -6 -32 -5 -29 2 -33 5 -30 26 2 14 3 34
4 45 0 18 6 20 47 19 48 -2 61 7 61 43 0 26 -27 56 -43 46 -11 -6 -178 -5
-185 2 -2 1 9 21 25 44 28 40 28 40 95 41 37 0 78 -4 92 -10 21 -8 26 -6 31
11 4 11 4 31 1 43 -6 24 -42 36 -108 36 -36 0 -35 11 2 53 17 19 30 37 30 41
0 6 -46 31 -84 46 -23 8 -25 5 -46 -51z m567 -432 c-11 -4 -59 -5 -106 -2 -47
3 -97 5 -110 6 -21 1 -16 9 44 63 l69 63 62 -61 c57 -56 60 -62 41 -69z"/>
<path d="M458 413 c-14 -3 -16 -12 -12 -46 13 -99 14 -185 3 -225 -7 -23 -9
-46 -5 -49 8 -8 75 -8 83 0 3 3 5 21 6 40 1 28 5 35 21 36 12 0 50 3 86 6 87
7 130 -1 128 -23 -5 -58 12 -75 64 -65 24 5 24 6 25 126 0 67 3 139 6 159 l5
38 -56 -8 c-91 -11 -274 -6 -322 11 -8 2 -23 3 -32 0z m283 -69 c19 -4 27 -11
27 -27 0 -12 4 -34 7 -49 6 -24 3 -29 -20 -38 -15 -6 -61 -8 -103 -5 -133 8
-127 6 -124 40 1 17 3 40 3 53 1 16 6 21 18 18 9 -3 22 -2 30 3 15 10 121 13
162 5z"/>
</g>
</svg>
