<?xml version="1.0" standalone="no"?>
<!DOCTYPE svg PUBLIC "-//W3C//DTD SVG 20010904//EN"
 "http://www.w3.org/TR/2001/REC-SVG-20010904/DTD/svg10.dtd">
<svg version="1.0" xmlns="http://www.w3.org/2000/svg"
 width="101.000000pt" height="102.000000pt" viewBox="0 0 101.000000 102.000000"
 preserveAspectRatio="xMidYMid meet">
<metadata>
Created by potrace 1.16, written by Peter Selinger 2001-2019
</metadata>
<g transform="translate(0.000000,102.000000) scale(0.100000,-0.100000)"
fill="#000000" stroke="none">
<path d="M629 1008 c-1 -7 -4 -29 -7 -48 -2 -19 -5 -50 -6 -68 l-1 -33 -90 6
c-49 3 -96 1 -104 -4 -9 -6 -12 -24 -10 -59 4 -47 3 -49 -15 -40 -10 6 -37 8
-60 6 l-41 -5 0 58 c0 63 4 67 75 74 14 2 34 5 45 8 11 3 23 6 28 6 14 2 7 18
-25 55 -29 33 -36 36 -59 28 -14 -6 -39 -13 -55 -16 -16 -2 -40 -8 -54 -11
-14 -4 -37 -6 -52 -6 -15 1 -29 -3 -32 -8 -3 -5 -25 -7 -48 -4 -24 2 -50 -1
-58 -6 -12 -9 -12 -15 7 -48 23 -40 36 -43 113 -30 24 5 25 3 27 -55 1 -52 0
-59 -15 -52 -30 13 -96 16 -124 5 -22 -8 -28 -17 -28 -40 0 -48 25 -64 88 -57
52 6 53 6 46 -16 -16 -52 -75 -158 -119 -211 l-46 -57 33 -40 33 -39 17 22
c10 12 37 57 62 100 40 72 45 77 55 58 12 -21 8 -242 -5 -327 -7 -47 5 -55 64
-46 31 4 32 6 26 37 -3 18 -1 41 4 52 7 13 6 35 -4 73 -10 38 -13 84 -9 145 3
50 5 101 6 115 1 23 4 22 45 -24 l43 -49 35 24 c20 13 36 27 36 30 0 3 -22 30
-49 60 -47 52 -50 54 -79 43 l-31 -12 2 37 1 38 58 -4 c32 -2 58 0 58 5 0 5
11 7 25 4 13 -2 36 -1 49 2 22 5 25 11 23 49 l-2 42 46 0 47 0 -24 -65 c-45
-120 -127 -232 -226 -310 l-48 -38 39 -31 c21 -17 43 -31 48 -31 5 0 34 29 65
65 46 53 56 60 57 42 0 -12 3 -51 5 -86 5 -65 -12 -131 -33 -131 -18 0 -12
-28 14 -70 l25 -39 65 49 c37 28 84 60 105 73 29 16 38 27 34 40 -3 10 -7 32
-9 49 -3 17 -6 33 -9 35 -2 3 -28 -14 -58 -37 l-53 -42 -8 43 c-7 40 -4 161 6
234 2 17 14 46 26 65 12 19 21 28 20 20 -6 -38 57 -213 106 -295 39 -65 112
-155 126 -155 5 0 29 15 54 34 l45 35 -52 37 c-46 34 -138 144 -138 165 0 13
81 86 118 106 17 10 32 21 32 24 0 9 -69 69 -78 68 -4 0 -29 -27 -56 -61 -47
-57 -50 -59 -58 -38 -5 13 -10 42 -13 64 -6 65 -14 78 -45 74 l-27 -4 15 45
c8 25 17 49 21 52 3 4 40 10 82 14 l76 6 -1 -48 c-1 -43 1 -48 23 -51 12 -2
33 -1 45 2 20 5 21 11 21 95 0 57 -4 86 -9 80 -13 -12 -156 -12 -156 1 0 6
-11 10 -24 10 -19 0 -25 6 -29 33 -3 18 1 45 9 61 18 36 11 47 -26 39 -19 -3
-30 -1 -30 6 0 15 -40 14 -41 -1z"/>
</g>
</svg>
