<?xml version="1.0" standalone="no"?>
<!DOCTYPE svg PUBLIC "-//W3C//DTD SVG 20010904//EN"
 "http://www.w3.org/TR/2001/REC-SVG-20010904/DTD/svg10.dtd">
<svg version="1.0" xmlns="http://www.w3.org/2000/svg"
 width="101.000000pt" height="101.000000pt" viewBox="0 0 101.000000 101.000000"
 preserveAspectRatio="xMidYMid meet">
<metadata>
Created by potrace 1.16, written by Peter Selinger 2001-2019
</metadata>
<g transform="translate(0.000000,101.000000) scale(0.100000,-0.100000)"
fill="#000000" stroke="none">
<path d="M668 1003 c-10 -2 -19 -10 -20 -16 0 -7 -3 -25 -5 -42 -2 -16 -4 -35
-5 -40 -1 -6 -18 -9 -38 -8 l-37 2 -1 -99 c-1 -56 3 -102 8 -105 14 -8 12 -47
-3 -65 -7 -8 -21 -16 -32 -17 -18 -2 -20 4 -19 62 l1 64 -72 6 -72 7 10 28
c10 26 12 27 81 24 46 -1 73 2 78 9 15 23 8 66 -11 77 -22 11 -64 13 -74 4 -3
-4 -26 -7 -51 -8 l-45 -1 -21 58 c-12 31 -24 57 -28 57 -15 0 -82 -21 -82 -26
0 -3 9 -22 20 -44 11 -22 20 -41 20 -42 0 -5 -92 0 -125 7 -49 9 -60 -6 -57
-77 1 -35 7 -64 12 -66 16 -6 12 -106 -6 -140 -12 -24 -13 -36 -4 -52 8 -16 8
-39 0 -88 -6 -37 -13 -78 -15 -92 -8 -71 -34 -146 -72 -210 -2 -3 17 -12 42
-21 l46 -17 14 27 c24 48 58 194 61 266 2 39 4 80 5 91 1 15 8 22 23 23 11 0
36 2 55 3 34 3 35 2 37 -35 l3 -38 -54 5 c-58 5 -68 -5 -58 -57 5 -24 8 -25
54 -21 27 2 49 3 49 1 0 -2 -9 -30 -20 -62 -28 -82 -65 -141 -105 -168 l-35
-24 51 -23 c30 -14 53 -20 57 -15 35 49 81 127 94 158 l15 39 46 -69 c26 -37
47 -74 47 -80 0 -7 3 -13 8 -13 11 0 82 50 82 58 0 4 -36 48 -80 97 -79 89
-94 112 -65 101 8 -3 27 0 41 6 19 9 30 9 45 0 38 -24 68 -12 59 23 -2 6 -4
34 -6 63 -2 55 6 64 40 39 14 -10 15 -18 8 -38 -6 -14 -8 -37 -5 -52 5 -27 7
-27 57 -22 154 19 222 15 212 -11 -3 -9 -1 -25 5 -36 9 -16 8 -35 -2 -77 -7
-31 -13 -60 -13 -64 -2 -17 -32 -25 -83 -21 l-54 5 21 -40 c11 -22 20 -47 20
-54 0 -24 35 -26 100 -5 82 27 92 45 96 161 2 51 5 108 8 127 16 103 15 104
-44 96 -30 -4 -58 -2 -70 4 -15 8 -28 7 -54 -5 -26 -13 -39 -14 -54 -6 -12 6
-28 8 -38 4 -15 -6 -16 -2 -11 33 4 21 7 82 7 134 0 69 3 90 11 78 5 -10 12
-32 14 -49 2 -17 5 -32 7 -34 8 -7 35 -8 61 0 31 8 32 29 4 97 -15 36 -17 37
-49 28 -44 -13 -48 -13 -48 5 0 8 8 15 18 15 9 1 40 2 67 4 l50 3 0 -81 c-1
-45 -4 -86 -8 -93 -4 -6 -23 -11 -42 -10 -19 1 -37 -1 -39 -4 -3 -3 2 -25 12
-51 15 -42 19 -46 47 -44 32 3 90 29 100 47 10 15 15 52 22 149 10 132 8 160
-8 171 -7 5 -49 8 -91 7 l-77 -3 25 43 c14 24 24 45 22 46 -25 22 -56 28 -90
19z m-433 -203 c39 0 43 -2 47 -27 4 -27 3 -28 -46 -28 -55 0 -64 -11 -52 -61
6 -23 10 -24 55 -21 l48 4 -1 -36 c-1 -35 -2 -36 -36 -33 -19 1 -45 3 -56 3
-18 1 -23 9 -28 47 -3 24 -6 72 -6 104 0 51 2 59 16 54 9 -3 35 -6 59 -6z
m202 -165 c1 -31 -1 -33 -32 -32 -30 1 -33 3 -32 32 1 28 4 31 32 32 29 1 31
-2 32 -32z m0 -130 c1 -33 0 -34 -37 -32 -33 1 -37 4 -29 18 5 10 7 24 4 31
-4 10 4 14 28 15 31 1 33 -1 34 -32z"/>
<path d="M519 363 c-20 -5 -28 -31 -22 -65 4 -21 9 -24 36 -21 85 11 201 13
232 4 31 -8 33 -7 38 16 11 57 6 59 -121 58 -64 0 -124 3 -132 6 -8 4 -22 5
-31 2z"/>
</g>
</svg>
