<?xml version="1.0" standalone="no"?>
<!DOCTYPE svg PUBLIC "-//W3C//DTD SVG 20010904//EN"
 "http://www.w3.org/TR/2001/REC-SVG-20010904/DTD/svg10.dtd">
<svg version="1.0" xmlns="http://www.w3.org/2000/svg"
 width="101.000000pt" height="101.000000pt" viewBox="0 0 101.000000 101.000000"
 preserveAspectRatio="xMidYMid meet">
<metadata>
Created by potrace 1.16, written by Peter Selinger 2001-2019
</metadata>
<g transform="translate(0.000000,101.000000) scale(0.100000,-0.100000)"
fill="#000000" stroke="none">
<path d="M606 978 c-3 -18 -4 -44 -3 -58 2 -21 -2 -25 -23 -24 -14 1 -33 5
-42 9 -13 5 -20 0 -28 -20 -15 -38 -12 -91 5 -109 18 -18 20 -104 4 -191 -6
-33 -10 -69 -10 -80 1 -11 3 -34 3 -52 2 -30 3 -31 37 -26 81 10 159 13 217 8
l62 -6 -3 -32 c-2 -18 -3 -38 -4 -44 -2 -19 -21 -16 -21 3 0 14 -6 15 -37 9
-43 -10 -191 -10 -243 -1 -45 8 -71 9 -78 1 -7 -7 -6 -74 1 -82 8 -7 44 -7 97
2 88 13 153 13 191 0 46 -16 69 -11 69 16 0 10 4 19 9 19 15 0 24 -41 12 -53
-6 -6 -11 -19 -11 -29 0 -21 -36 -42 -58 -33 -9 4 -31 9 -49 11 l-32 4 24 -42
c14 -24 25 -50 25 -59 0 -25 33 -29 91 -9 70 22 90 50 95 131 2 35 5 78 7 94
3 17 8 62 11 102 l7 71 -143 0 c-195 0 -186 -2 -194 37 -3 18 -1 42 5 52 5 11
9 64 8 119 l-2 99 90 2 90 2 0 -82 c0 -45 -3 -86 -7 -92 -3 -5 -28 -9 -56 -9
l-50 2 22 -49 c11 -26 29 -50 38 -52 10 -3 39 3 65 12 61 21 83 61 83 146 0
33 2 87 6 121 8 76 -9 99 -65 90 -20 -3 -59 -7 -87 -8 -51 -3 -51 -3 -41 22 6
14 17 35 24 46 16 26 3 35 -40 27 -16 -3 -27 -1 -27 6 0 6 -9 11 -20 11 -14 0
-20 -9 -24 -32z"/>
<path d="M98 943 c-12 -3 -17 -15 -16 -46 0 -23 5 -48 10 -55 10 -12 6 -81 -8
-144 -5 -23 -2 -28 19 -33 14 -4 81 -2 149 4 68 6 138 8 157 5 l33 -7 -7 77
c-5 49 -4 81 3 89 11 12 14 68 6 97 -3 12 -31 15 -166 16 -90 1 -171 0 -180
-3z m249 -134 c1 -58 1 -61 -20 -55 -12 3 -53 6 -90 6 l-68 0 3 48 3 47 45 6
c25 3 63 7 85 7 l40 2 2 -61z"/>
<path d="M634 778 c-3 -4 5 -35 17 -68 16 -44 26 -59 36 -55 8 3 26 8 39 11
30 8 30 21 2 78 -20 41 -25 45 -55 44 -19 -1 -36 -5 -39 -10z"/>
<path d="M23 629 c-28 -10 -31 -59 -6 -84 13 -14 28 -16 69 -11 l53 6 -5 -32
c-17 -115 -16 -125 7 -131 12 -3 30 -2 39 3 13 7 84 8 137 1 11 -1 11 -69 -1
-116 -2 -11 -5 -23 -5 -28 -2 -15 -51 -27 -75 -17 -30 11 -70 2 -57 -14 5 -6
15 -30 21 -53 12 -40 14 -42 49 -39 78 7 120 25 138 59 9 18 18 46 19 62 2 17
6 48 8 70 3 22 8 65 11 96 l5 56 -87 1 c-132 1 -135 2 -128 21 4 9 8 25 9 36
1 24 15 26 166 28 58 1 108 6 112 12 4 5 8 22 8 37 0 38 -31 54 -79 40 -59
-17 -178 -25 -185 -13 -5 7 -41 10 -95 9 -48 0 -92 1 -97 4 -5 3 -19 2 -31 -3z"/>
</g>
</svg>
