<?xml version="1.0" standalone="no"?>
<!DOCTYPE svg PUBLIC "-//W3C//DTD SVG 20010904//EN"
 "http://www.w3.org/TR/2001/REC-SVG-20010904/DTD/svg10.dtd">
<svg version="1.0" xmlns="http://www.w3.org/2000/svg"
 width="101.000000pt" height="101.000000pt" viewBox="0 0 101.000000 101.000000"
 preserveAspectRatio="xMidYMid meet">
<metadata>
Created by potrace 1.16, written by Peter Selinger 2001-2019
</metadata>
<g transform="translate(0.000000,101.000000) scale(0.100000,-0.100000)"
fill="#000000" stroke="none">
<path d="M233 947 l2 -63 -92 3 c-92 3 -93 3 -99 -22 -10 -42 10 -75 46 -75
17 0 40 5 51 11 11 5 30 9 42 7 20 -3 19 -5 -16 -44 -20 -23 -60 -57 -87 -75
-27 -19 -49 -38 -49 -44 0 -5 9 -21 19 -34 17 -19 23 -21 35 -11 8 7 16 9 16
4 1 -5 4 -22 6 -39 7 -47 4 -141 -6 -167 -5 -13 -6 -37 -4 -55 5 -30 7 -31 42
-26 62 9 224 8 263 0 l36 -9 0 139 c0 175 1 183 32 209 l25 22 -60 56 c-33 30
-64 55 -69 56 -6 0 -19 -9 -30 -19 -21 -20 -21 -20 -23 15 l-2 34 74 0 c41 0
77 -5 80 -11 5 -6 12 -4 21 8 12 16 14 4 16 -92 6 -253 -3 -336 -47 -432 -23
-52 -43 -73 -30 -33 6 19 3 20 -43 16 -27 -2 -59 -10 -70 -17 -16 -10 -26 -10
-45 -2 -19 9 -37 8 -78 -4 -40 -12 -60 -13 -81 -5 -21 8 -69 7 -68 -2 0 0 6
-21 14 -46 13 -43 15 -45 47 -43 19 1 48 5 64 7 45 8 96 15 135 20 19 2 49 7
65 11 l30 7 -38 -37 c-21 -20 -37 -37 -35 -38 2 -1 22 -12 46 -24 l42 -21 32
39 c17 21 36 39 41 39 5 0 25 -16 44 -35 l34 -34 42 26 c23 14 61 41 85 61
l43 35 32 -30 c34 -32 127 -97 131 -91 1 1 19 24 40 50 28 37 33 48 21 48 -23
0 -139 56 -155 75 -11 13 -7 27 19 85 34 72 69 182 77 238 4 33 -6 39 -56 33
-8 0 -32 -3 -54 -6 l-39 -4 7 52 c3 29 6 70 6 92 0 40 0 40 38 40 l39 0 -24
-54 c-13 -29 -22 -55 -20 -58 3 -2 25 -6 50 -8 42 -4 45 -3 53 23 4 15 8 32
10 37 2 6 6 23 9 39 3 16 8 34 11 38 3 5 8 21 10 36 l5 28 -95 -1 c-89 0 -94
1 -89 20 3 11 6 40 7 65 l1 44 -52 1 -53 0 5 -65 5 -65 -62 2 c-80 3 -105 -3
-111 -25 -3 -13 -6 -10 -11 10 -9 31 -33 42 -65 30 -12 -4 -38 -6 -58 -4 l-36
4 6 53 c6 60 1 65 -63 65 l-38 0 1 -63z m434 -244 l3 -93 -43 2 -42 2 0 91 0
90 40 0 40 0 2 -92z m-256 -55 c13 -24 10 -28 -32 -34 -48 -7 -58 4 -62 68
l-4 57 44 -36 c24 -20 49 -45 54 -55z m-179 28 c-1 -34 3 -46 16 -49 10 -2 2
-7 -19 -11 -23 -5 -45 -4 -57 3 -11 6 -29 8 -39 5 -10 -4 6 18 36 49 30 31 57
55 59 52 3 -2 4 -24 4 -49z m109 -126 c12 0 16 -8 15 -24 -1 -21 -7 -25 -49
-30 -26 -4 -55 -2 -66 4 -11 5 -26 8 -33 5 -8 -3 -14 4 -14 20 -2 20 2 24 15
21 9 -3 23 -1 31 5 8 5 31 7 50 4 19 -2 42 -5 51 -5z m453 1 c10 -16 -49 -191
-64 -191 -13 0 -33 70 -45 163 -3 23 -1 27 13 23 9 -3 24 -1 32 4 19 12 57 13
64 1z m-199 -11 c-3 -5 -8 -10 -11 -10 -2 0 -4 5 -4 10 0 6 5 10 11 10 5 0 7
-4 4 -10z m62 -218 l21 -43 -51 -33 c-70 -45 -137 -78 -137 -68 0 4 6 16 14
27 16 24 56 129 63 165 2 14 5 48 6 75 4 87 18 87 41 -1 12 -43 31 -98 43
-122z m-316 118 c11 0 16 -9 16 -29 0 -27 -4 -29 -49 -35 -27 -4 -56 -2 -67 4
-11 5 -26 8 -34 5 -10 -4 -14 3 -14 25 0 23 4 29 16 25 9 -2 23 0 31 6 8 5 31
7 50 4 19 -2 42 -5 51 -5z"/>
</g>
</svg>
