<?xml version="1.0" standalone="no"?>
<!DOCTYPE svg PUBLIC "-//W3C//DTD SVG 20010904//EN"
 "http://www.w3.org/TR/2001/REC-SVG-20010904/DTD/svg10.dtd">
<svg version="1.0" xmlns="http://www.w3.org/2000/svg"
 width="101.000000pt" height="102.000000pt" viewBox="0 0 101.000000 102.000000"
 preserveAspectRatio="xMidYMid meet">
<metadata>
Created by potrace 1.16, written by Peter Selinger 2001-2019
</metadata>
<g transform="translate(0.000000,102.000000) scale(0.100000,-0.100000)"
fill="#000000" stroke="none">
<path d="M614 985 c-3 -19 -3 -65 1 -100 6 -56 3 -72 -15 -110 -37 -76 -133
-138 -215 -139 -35 -1 -40 -4 -49 -33 -9 -33 -20 -41 -31 -23 -3 6 -1 10 4 10
7 0 10 24 9 65 -2 36 -2 65 -1 65 2 0 21 -16 42 -36 l40 -35 30 22 c17 13 31
27 31 31 0 5 -21 23 -46 41 l-45 32 33 7 c18 3 35 5 38 3 3 -2 5 16 5 40 0 24
-4 41 -8 38 -5 -3 -32 -2 -62 2 -43 5 -54 10 -59 28 -6 25 10 38 39 31 11 -3
37 -1 58 3 l38 8 -23 35 c-23 33 -27 35 -74 33 -27 -2 -62 -3 -78 -3 -15 0
-34 -5 -42 -11 -9 -7 -31 -8 -63 -4 -27 4 -59 4 -70 0 -20 -6 -20 -7 -3 -43
18 -40 31 -54 44 -46 5 3 26 7 47 8 34 3 40 0 44 -21 l4 -23 -84 5 c-50 3 -91
1 -103 -5 -21 -11 -26 -45 -10 -70 10 -16 73 -18 125 -5 l30 8 -32 -35 c-18
-18 -55 -47 -83 -63 -27 -17 -50 -33 -50 -37 0 -6 66 -48 76 -48 3 0 30 23 60
51 l54 52 0 -46 c0 -25 3 -53 6 -62 5 -11 0 -18 -15 -22 -19 -5 -20 -10 -15
-52 9 -70 10 -183 1 -207 -6 -17 -3 -23 14 -27 12 -3 30 -2 38 3 16 8 142 7
250 -4 30 -2 63 0 73 5 11 6 55 7 111 3 l93 -6 1 -37 c2 -43 -17 -76 -45 -78
-18 -1 -21 4 -19 37 1 22 -2 42 -5 45 -3 4 -40 1 -82 -6 -58 -10 -84 -10 -109
-2 -17 7 -54 9 -82 6 -93 -9 -260 -6 -310 7 -40 10 -57 -14 -48 -64 5 -25 8
-26 52 -20 56 7 217 8 290 1 30 -3 63 -1 74 5 22 11 187 0 168 -11 -9 -6 -8
-15 4 -37 8 -16 15 -34 15 -40 0 -20 37 -23 92 -7 75 22 74 21 93 113 4 18 14
94 19 137 3 29 1 31 -33 36 -20 2 -47 0 -61 -5 -39 -15 -247 -20 -273 -7 l-21
12 22 8 c29 11 28 18 -13 66 -33 39 -34 41 -12 42 12 1 49 3 82 6 33 3 75 2
93 -1 27 -4 31 -8 22 -23 -7 -15 -19 -18 -55 -15 -41 4 -59 -6 -36 -21 5 -3
12 -19 16 -35 6 -28 9 -30 48 -26 75 6 104 29 113 86 14 91 12 108 -7 113 -11
3 -35 0 -52 -6 -18 -6 -82 -11 -147 -10 -168 2 -162 1 -148 27 7 11 11 25 10
30 -2 5 7 2 20 -6 69 -45 62 -45 120 -1 29 22 62 56 73 77 11 20 22 36 25 35
3 0 19 -19 35 -42 17 -23 56 -60 88 -81 l57 -40 34 40 c20 21 35 42 36 45 0 3
-25 13 -55 23 -31 10 -70 32 -91 52 -39 36 -41 54 -5 34 28 -14 37 -8 65 49
14 26 32 53 40 60 23 19 20 40 -6 50 -67 25 -64 27 -99 -49 -30 -65 -48 -87
-49 -57 -3 74 -1 165 5 179 7 18 -8 25 -67 27 -35 1 -37 -1 -44 -34z m-280
-216 c-8 -14 -24 -10 -24 6 0 9 6 12 15 9 8 -4 12 -10 9 -15z m76 -269 l25 -7
-27 -8 c-26 -6 -40 -25 -20 -25 5 0 23 -20 40 -44 l31 -43 -55 -7 c-31 -3 -63
-2 -74 4 -10 5 -25 7 -34 4 -20 -8 -32 40 -18 72 7 13 9 31 5 40 -5 13 -2 15
13 10 10 -3 26 -1 34 4 17 11 44 11 80 0z"/>
<path d="M500 911 c-6 -16 -10 -36 -7 -43 2 -7 -2 -30 -9 -52 -18 -51 -18 -53
10 -60 13 -3 31 -9 39 -12 16 -6 35 43 44 110 2 16 8 35 15 43 15 19 -1 34
-44 40 -31 4 -36 1 -48 -26z"/>
</g>
</svg>
