<?xml version="1.0" standalone="no"?>
<!DOCTYPE svg PUBLIC "-//W3C//DTD SVG 20010904//EN"
 "http://www.w3.org/TR/2001/REC-SVG-20010904/DTD/svg10.dtd">
<svg version="1.0" xmlns="http://www.w3.org/2000/svg"
 width="101.000000pt" height="101.000000pt" viewBox="0 0 101.000000 101.000000"
 preserveAspectRatio="xMidYMid meet">
<metadata>
Created by potrace 1.16, written by Peter Selinger 2001-2019
</metadata>
<g transform="translate(0.000000,101.000000) scale(0.100000,-0.100000)"
fill="#000000" stroke="none">
<path d="M634 999 c-3 -6 -15 -9 -25 -6 -22 6 -23 3 -9 -23 6 -11 12 -33 14
-50 l3 -30 -92 6 c-88 6 -93 6 -99 -14 -17 -52 18 -92 67 -76 12 4 36 8 54 8
26 1 30 -2 22 -15 -16 -31 -107 -124 -134 -139 -20 -10 -25 -19 -20 -35 3 -11
8 -28 10 -39 7 -30 13 -31 85 -22 19 3 85 7 145 10 61 3 122 9 137 12 23 5 30
1 39 -20 7 -14 16 -26 21 -26 15 0 88 40 88 48 0 12 -140 183 -155 188 -14 6
-75 -22 -75 -34 1 -4 14 -23 30 -42 17 -19 30 -38 30 -43 0 -6 -34 -7 -83 -3
-49 4 -94 3 -110 -3 -14 -6 -28 -7 -31 -3 -5 8 112 116 136 125 10 4 8 9 -5
20 -16 14 -9 16 78 22 63 5 105 4 120 -3 19 -9 28 -8 40 4 16 16 18 27 9 59
-5 18 -14 20 -106 21 -93 0 -102 2 -103 20 -1 10 -7 36 -14 57 -10 29 -18 37
-36 37 -13 0 -27 -5 -31 -11z"/>
<path d="M291 910 l-33 -90 -49 0 c-56 0 -62 7 -19 21 17 6 30 15 30 21 0 12
-48 109 -59 121 -7 7 -91 -10 -91 -18 0 -1 13 -26 30 -56 39 -72 38 -79 -10
-79 -34 0 -41 -4 -46 -25 -3 -14 -4 -35 -1 -47 6 -21 12 -23 76 -23 l69 0 4
-41 3 -42 -57 6 c-56 5 -58 4 -68 -24 -6 -15 -9 -38 -5 -51 5 -21 10 -22 71
-19 51 3 64 1 60 -9 -3 -8 1 -28 7 -45 11 -28 10 -33 -8 -46 -13 -10 -31 -13
-50 -10 -77 15 -93 15 -98 -4 -14 -52 23 -92 64 -69 26 13 59 11 65 -5 14 -37
-95 -195 -147 -211 -21 -7 -26 -25 -6 -25 7 0 30 -9 52 -20 l39 -20 24 23 c50
45 110 137 128 196 12 37 24 59 31 57 6 -3 25 0 42 7 24 9 36 9 51 -1 18 -11
20 -9 22 15 3 65 -4 82 -26 64 -10 -8 -23 -10 -38 -5 -13 5 -32 9 -43 9 -16 0
-19 6 -17 30 1 17 3 39 3 50 1 17 9 21 47 23 51 2 65 15 56 52 -8 33 -22 41
-69 38 -40 -3 -40 -3 -40 34 l-1 37 67 7 c72 7 84 16 73 59 -7 27 -34 40 -65
30 -19 -6 -20 -5 -9 17 7 12 28 44 46 71 19 26 34 49 34 51 0 6 -78 36 -94 36
-8 0 -27 -37 -45 -90z"/>
<path d="M469 543 c-13 -3 -17 -17 -16 -61 0 -73 -9 -150 -21 -183 -15 -38
-61 -89 -109 -119 l-43 -27 50 -31 49 -30 49 52 c67 71 99 136 107 221 2 17 6
53 8 80 3 28 8 57 12 66 4 12 -1 18 -18 23 -14 3 -31 8 -39 10 -7 2 -20 2 -29
-1z"/>
<path d="M610 542 c-10 -5 -14 -17 -11 -37 5 -46 3 -326 -4 -361 -6 -36 8 -44
63 -36 27 4 31 7 26 27 -8 33 -9 290 -1 347 7 45 6 46 -24 57 -18 6 -32 11
-33 10 -1 0 -8 -3 -16 -7z"/>
<path d="M748 543 c-13 -3 -15 -12 -11 -41 3 -20 6 -111 7 -202 l1 -165 27
-13 c20 -9 33 -10 48 -2 11 6 38 9 61 8 34 -3 44 1 60 22 10 14 21 39 25 56 5
28 2 33 -31 53 -21 12 -39 21 -40 19 -1 -2 -7 -16 -12 -32 -12 -38 -38 -55
-55 -38 -14 14 -16 184 -4 274 3 26 3 49 -1 51 -15 8 -58 14 -75 10z"/>
</g>
</svg>
