<?xml version="1.0" standalone="no"?>
<!DOCTYPE svg PUBLIC "-//W3C//DTD SVG 20010904//EN"
 "http://www.w3.org/TR/2001/REC-SVG-20010904/DTD/svg10.dtd">
<svg version="1.0" xmlns="http://www.w3.org/2000/svg"
 width="101.000000pt" height="101.000000pt" viewBox="0 0 101.000000 101.000000"
 preserveAspectRatio="xMidYMid meet">
<metadata>
Created by potrace 1.16, written by Peter Selinger 2001-2019
</metadata>
<g transform="translate(0.000000,101.000000) scale(0.100000,-0.100000)"
fill="#000000" stroke="none">
<path d="M599 999 c0 -8 -3 -23 -5 -34 -3 -11 -7 -31 -10 -45 -2 -14 -5 -32
-7 -40 -1 -8 -6 -21 -10 -27 -5 -7 -6 -16 -4 -20 3 -5 -1 -21 -8 -38 -12 -26
-13 -27 -14 -8 -1 21 -5 22 -63 20 l-63 -2 -1 30 0 31 68 -2 c74 -1 85 8 73
59 -6 23 -11 25 -80 26 -41 1 -77 -3 -80 -9 -8 -13 -52 -13 -60 0 -4 7 -53 10
-126 9 -66 -1 -122 1 -125 4 -14 14 -44 -15 -44 -41 0 -48 9 -52 101 -49 l84
4 1 -32 0 -32 -62 5 -62 5 -7 -32 c-4 -17 -3 -86 0 -152 l8 -120 69 6 68 6 -5
-33 c-8 -44 -24 -61 -49 -53 -46 14 -114 20 -124 10 -7 -7 -6 -74 1 -82 7 -6
38 -6 90 1 20 2 37 1 37 -3 0 -3 -11 -23 -25 -43 -14 -20 -25 -39 -25 -41 0
-2 19 -9 42 -16 83 -25 95 -32 77 -41 -9 -5 -31 -12 -49 -15 -19 -3 -40 -11
-47 -17 -10 -8 -20 -8 -37 0 -13 6 -33 8 -44 5 -19 -5 -19 -6 6 -49 15 -24 34
-44 43 -44 29 0 142 39 188 65 l44 26 53 -36 c30 -19 57 -35 61 -35 4 0 22 14
40 32 l33 32 -59 33 -59 33 41 77 c22 43 41 80 43 81 1 2 10 -11 20 -29 l17
-33 29 34 c54 64 110 191 133 305 11 54 21 80 31 82 8 2 11 -10 8 -35 -3 -20
-6 -59 -8 -87 -9 -101 -36 -194 -80 -270 -25 -42 -119 -135 -137 -135 -5 0 -9
-4 -9 -10 0 -5 5 -10 12 -10 6 0 27 -12 45 -26 l35 -26 47 50 c56 60 101 141
131 237 29 94 33 121 41 282 1 12 6 24 13 26 8 3 10 -21 9 -82 -1 -47 -2 -95
-2 -106 -1 -11 1 -46 3 -78 3 -35 -1 -75 -9 -98 -11 -31 -12 -45 -3 -65 9 -18
9 -27 0 -36 -7 -7 -12 -20 -12 -30 0 -29 -41 -49 -93 -44 -26 3 -47 3 -47 1 0
-2 9 -19 20 -38 12 -19 20 -39 19 -43 -6 -35 6 -37 93 -14 55 14 97 49 99 82
1 13 3 79 4 148 2 69 5 141 8 160 3 19 9 102 13 184 l7 148 -146 -7 -146 -7 4
38 c3 22 14 51 26 67 24 34 20 43 -27 51 -19 4 -42 10 -50 13 -8 3 -14 -1 -15
-8z m-264 -161 c0 -26 -4 -33 -20 -33 -28 0 -28 47 0 57 11 3 20 6 20 7 0 1 0
-14 0 -31z m308 -108 c-3 -67 -34 -159 -74 -220 -35 -55 -41 -59 -86 -66 -43
-7 -88 -8 -150 -3 l-23 1 20 28 c15 21 17 29 8 32 -8 3 -4 9 10 17 17 9 41 9
98 1 41 -5 80 -10 85 -10 13 0 11 27 -3 49 -9 15 -9 26 0 45 6 14 9 34 5 43
-6 16 -4 16 15 -1 l22 -19 32 71 c18 40 34 72 38 72 3 0 5 -18 3 -40z m-418
-8 c-3 -7 0 -22 6 -33 5 -11 7 -38 4 -62 -5 -35 -10 -42 -30 -43 -20 -2 -24 4
-30 42 -3 24 -2 52 4 63 6 11 8 26 5 34 -4 11 2 15 20 13 17 0 24 -6 21 -14z
m110 0 c-3 -7 0 -22 6 -33 5 -11 7 -38 4 -62 -5 -35 -10 -42 -30 -43 -20 -2
-24 4 -30 42 -3 24 -2 52 4 63 6 11 8 26 5 34 -4 11 2 15 20 13 17 0 24 -6 21
-14z m120 0 c-3 -7 0 -22 6 -33 5 -11 7 -38 4 -62 -5 -35 -10 -42 -30 -43 -20
-2 -24 4 -30 42 -3 24 -2 52 4 63 6 11 8 26 5 34 -4 11 2 15 20 13 17 0 24 -6
21 -14z m-60 -352 c6 -10 -9 -45 -32 -72 -13 -15 -18 -15 -59 -1 -24 8 -44 19
-44 25 0 23 22 49 38 44 9 -3 24 -1 32 4 20 13 57 13 65 0z"/>
</g>
</svg>
