<?xml version="1.0" standalone="no"?>
<!DOCTYPE svg PUBLIC "-//W3C//DTD SVG 20010904//EN"
 "http://www.w3.org/TR/2001/REC-SVG-20010904/DTD/svg10.dtd">
<svg version="1.0" xmlns="http://www.w3.org/2000/svg"
 width="101.000000pt" height="101.000000pt" viewBox="0 0 101.000000 101.000000"
 preserveAspectRatio="xMidYMid meet">
<metadata>
Created by potrace 1.16, written by Peter Selinger 2001-2019
</metadata>
<g transform="translate(0.000000,101.000000) scale(0.100000,-0.100000)"
fill="#000000" stroke="none">
<path d="M172 959 c0 -27 4 -52 9 -55 15 -9 10 -76 -6 -94 -18 -20 -10 -50 13
-50 11 0 13 -3 6 -10 -6 -6 -20 -6 -39 1 -22 8 -38 8 -57 0 -24 -9 -28 -16
-28 -51 0 -22 5 -40 11 -40 7 0 9 -23 4 -75 l-7 -74 33 3 c19 1 46 6 61 10 75
21 68 -21 -12 -81 -28 -21 -50 -40 -50 -44 0 -4 10 -9 22 -13 16 -3 19 -9 12
-16 -6 -6 -21 -7 -41 -1 -60 17 -87 -5 -76 -62 4 -23 9 -25 41 -20 77 10 131
11 247 6 l121 -6 2 -43 c1 -39 -1 -43 -26 -48 -15 -2 -49 -3 -77 0 -27 2 -59
4 -71 5 -18 1 -21 7 -18 39 3 36 1 38 -28 42 -59 9 -63 4 -65 -78 -1 -77 3
-82 47 -74 32 5 160 11 260 10 256 0 272 -1 267 -14 -9 -24 11 -40 48 -39 47
1 50 6 35 42 -7 19 -9 41 -5 58 5 16 10 43 11 62 2 19 9 38 16 42 18 12 56 11
63 -1 3 -5 14 -10 24 -10 20 0 32 37 24 70 -6 22 -57 31 -98 17 -25 -9 -235
-13 -300 -7 -29 3 -30 47 -1 49 80 6 225 5 242 -2 18 -6 22 -3 27 19 8 44 -2
66 -27 57 -11 -4 -38 -7 -58 -5 -21 1 -66 2 -100 1 -120 0 -263 0 -286 2 -17
1 -20 4 -12 13 5 7 6 17 2 21 -4 5 1 5 10 2 9 -3 30 -1 47 6 24 9 36 9 51 -1
31 -19 33 -16 26 42 -4 30 -3 57 2 60 5 3 10 28 11 55 1 38 -3 54 -18 68 -19
18 -18 18 26 14 26 -2 40 -6 33 -11 -6 -4 -11 -18 -10 -31 1 -13 2 -65 2 -116
1 -82 4 -92 21 -97 11 -3 28 -1 38 5 19 10 288 4 322 -7 16 -5 18 -3 11 18 -8
19 -9 103 -3 196 2 32 -2 34 -57 22 -53 -11 -200 -6 -279 9 -5 2 -1 6 10 11
28 12 138 12 169 0 46 -17 56 -5 49 61 -3 35 -2 64 5 71 12 15 14 88 3 106 -6
10 -28 11 -97 3 -49 -6 -120 -8 -159 -6 -38 2 -138 6 -222 9 l-152 5 1 -50z
m275 -30 c-1 -21 -5 -21 -86 -15 -47 4 -90 10 -96 14 -11 7 59 18 137 20 42 2
47 0 45 -19z m269 0 c0 -15 -13 -17 -91 -15 -73 1 -91 4 -92 16 -1 12 15 15
91 15 78 0 92 -2 92 -16z m-270 -80 c0 -15 -11 -16 -81 -12 -88 5 -105 8 -105
20 0 4 42 8 93 8 79 0 93 -2 93 -16z m282 4 c-3 -14 -18 -17 -99 -17 -71 -1
-95 2 -92 11 4 11 43 17 151 21 36 2 43 -1 40 -15z m-328 -92 c24 -1 31 -4 23
-12 -12 -12 -124 -15 -172 -4 -48 11 -23 20 51 18 34 -1 79 -2 98 -2z m-163
-91 c-1 -16 -8 -19 -42 -18 -29 2 -41 7 -42 18 -1 12 9 16 42 18 38 1 44 -1
42 -18z m150 0 c-1 -15 -9 -18 -37 -17 -25 1 -36 6 -37 17 -1 12 9 16 37 17
32 2 38 -1 37 -17z m290 0 c-1 -16 -8 -19 -42 -18 -29 2 -41 7 -42 18 -1 12 9
16 42 18 38 1 44 -1 42 -18z m150 0 c-1 -16 -8 -19 -42 -18 -29 2 -41 7 -42
18 -1 12 9 16 42 18 38 1 44 -1 42 -18z m-590 -80 c-1 -16 -8 -19 -42 -18 -29
2 -41 7 -42 18 -1 12 9 16 42 18 38 1 44 -1 42 -18z m150 0 c-1 -15 -9 -18
-37 -17 -25 1 -36 6 -37 17 -1 12 9 16 37 17 32 2 38 -1 37 -17z m290 0 c-1
-16 -8 -19 -42 -18 -29 2 -41 7 -42 18 -1 12 9 16 42 18 38 1 44 -1 42 -18z
m150 0 c-1 -16 -8 -19 -42 -18 -29 2 -41 7 -42 18 -1 12 9 16 42 18 38 1 44
-1 42 -18z m-396 -179 c4 -1 6 -12 5 -26 -1 -31 -31 -38 -131 -30 -38 3 -81 6
-94 6 l-24 1 29 24 c16 12 36 21 44 19 8 -3 22 0 30 5 12 7 97 8 141 1z m285
-123 c3 -3 7 -24 9 -46 3 -37 1 -41 -23 -46 -15 -3 -52 -3 -82 -1 -30 3 -65 5
-77 6 -20 1 -22 6 -21 45 2 34 6 43 18 39 8 -2 22 0 30 5 15 10 136 8 146 -2z"/>
</g>
</svg>
