<?xml version="1.0" standalone="no"?>
<!DOCTYPE svg PUBLIC "-//W3C//DTD SVG 20010904//EN"
 "http://www.w3.org/TR/2001/REC-SVG-20010904/DTD/svg10.dtd">
<svg version="1.0" xmlns="http://www.w3.org/2000/svg"
 width="101.000000pt" height="102.000000pt" viewBox="0 0 101.000000 102.000000"
 preserveAspectRatio="xMidYMid meet">
<metadata>
Created by potrace 1.16, written by Peter Selinger 2001-2019
</metadata>
<g transform="translate(0.000000,102.000000) scale(0.100000,-0.100000)"
fill="#000000" stroke="none">
<path d="M250 1013 c-8 -2 -31 -36 -50 -76 -22 -46 -56 -94 -97 -136 -35 -35
-62 -64 -61 -65 2 -1 21 -10 43 -21 22 -11 43 -21 46 -23 4 -1 30 27 59 63 68
85 81 83 104 -15 11 -48 18 -52 69 -34 l46 16 -23 46 -24 47 55 1 c52 2 53 1
37 -17 -17 -19 -12 -39 12 -39 8 0 14 -4 14 -10 0 -5 -6 -10 -14 -10 -19 0
-29 -31 -21 -63 6 -21 2 -25 -26 -31 -50 -10 -159 -7 -159 4 0 6 -15 10 -34
10 -39 0 -51 -20 -40 -64 4 -18 16 -29 38 -35 17 -5 23 -10 14 -10 -28 -2 -29
-17 -3 -63 14 -23 25 -46 25 -50 0 -4 -48 -6 -107 -5 -106 2 -108 2 -111 -22
-2 -12 -1 -33 2 -46 5 -20 11 -23 43 -19 83 11 182 13 257 6 l80 -7 -33 -38
c-50 -56 -142 -102 -241 -121 -14 -3 -39 -8 -57 -12 l-32 -6 46 -45 46 -45 73
27 c123 45 242 135 276 210 10 23 12 22 50 -36 27 -40 63 -76 109 -108 76 -54
190 -102 196 -84 3 7 20 31 38 55 33 41 34 43 14 50 -12 5 -25 6 -29 3 -14 -9
-128 32 -178 64 -26 16 -60 43 -76 60 l-28 29 24 1 c12 0 58 3 101 6 43 3 110
1 150 -4 40 -4 73 -7 75 -6 7 6 6 85 -2 92 -8 8 -55 8 -153 0 l-52 -5 27 34
c15 19 35 37 45 40 28 9 19 32 -15 40 -32 7 -32 7 -10 17 42 19 44 93 2 90
-14 -1 -76 -5 -139 -9 l-114 -7 6 29 c4 16 9 39 13 51 4 15 1 22 -10 25 -14 3
-13 8 7 37 20 29 29 34 65 35 44 1 48 -4 82 -96 10 -29 15 -30 73 -13 32 9 33
14 7 65 -11 22 -20 41 -20 42 0 2 41 3 90 3 98 0 109 7 96 60 -5 21 -10 23
-46 18 -25 -4 -46 -1 -55 7 -13 10 -23 11 -53 1 -25 -8 -57 -10 -100 -4 l-64
8 31 39 c17 21 31 43 31 47 0 10 -21 13 -62 10 -16 -1 -28 3 -28 8 0 29 -21 3
-55 -66 -22 -46 -40 -71 -42 -62 -3 13 -13 15 -48 11 -26 -2 -51 0 -58 7 -8 6
-34 10 -60 8 -49 -3 -49 -2 -10 51 14 18 23 34 22 35 -8 5 -76 27 -80 26 -2
-1 -11 -3 -19 -6z m195 -507 l0 -70 -40 0 c-38 -1 -41 1 -71 54 -17 30 -41 60
-53 66 -31 16 -16 19 81 19 l83 0 0 -69z m268 43 c-11 -16 -36 -50 -57 -74
-34 -41 -40 -44 -80 -43 l-43 2 9 41 c5 22 7 52 4 67 -5 26 -3 27 42 31 26 2
69 4 95 5 l49 2 -19 -31z"/>
</g>
</svg>
