<?xml version="1.0" standalone="no"?>
<!DOCTYPE svg PUBLIC "-//W3C//DTD SVG 20010904//EN"
 "http://www.w3.org/TR/2001/REC-SVG-20010904/DTD/svg10.dtd">
<svg version="1.0" xmlns="http://www.w3.org/2000/svg"
 width="101.000000pt" height="102.000000pt" viewBox="0 0 101.000000 102.000000"
 preserveAspectRatio="xMidYMid meet">
<metadata>
Created by potrace 1.16, written by Peter Selinger 2001-2019
</metadata>
<g transform="translate(0.000000,102.000000) scale(0.100000,-0.100000)"
fill="#000000" stroke="none">
<path d="M181 965 c-17 -30 -58 -82 -91 -115 -58 -58 -59 -61 -38 -69 56 -20
54 -19 38 -20 -11 -1 -15 -13 -15 -41 -1 -50 11 -54 112 -42 l71 8 -3 -25 c-3
-28 -5 -29 -111 -16 -46 5 -52 3 -57 -15 -3 -11 -3 -29 0 -40 4 -16 12 -19 43
-16 20 2 43 6 49 11 7 4 27 4 46 1 27 -5 33 -11 31 -31 -1 -20 -8 -26 -33 -31
-17 -3 -37 -3 -44 2 -17 10 -107 20 -114 12 -1 -2 -5 -12 -9 -23 -8 -28 7 -47
35 -45 37 2 163 0 166 -4 2 -2 1 -10 -3 -19 -4 -11 -17 -15 -44 -14 -47 2 -53
-4 -53 -43 0 -36 5 -42 35 -41 60 4 229 2 277 -2 30 -3 63 -1 74 5 28 14 177
0 177 -17 0 -17 -79 -30 -118 -20 -15 4 -54 6 -87 6 -120 -4 -251 -3 -282 1
-35 5 -44 -10 -36 -56 5 -25 8 -26 52 -20 56 7 217 8 286 1 28 -3 64 -1 81 5
17 6 47 8 66 4 30 -5 36 -10 34 -31 -1 -22 -6 -25 -64 -31 -37 -4 -73 -2 -90
4 -15 6 -49 9 -77 6 -67 -8 -230 -8 -281 0 -35 4 -43 2 -47 -13 -12 -48 10
-80 48 -71 44 11 132 14 320 10 33 -1 75 1 92 5 18 4 48 4 67 1 28 -5 32 -10
29 -30 -6 -27 13 -35 69 -28 41 5 53 27 37 69 -12 31 -14 124 -4 188 14 90 8
118 -20 95 -25 -20 -65 -4 -65 26 0 19 4 25 14 21 8 -3 28 -1 44 5 24 9 36 8
65 -5 52 -25 83 -6 70 43 -5 19 -12 21 -82 20 -107 -2 -117 0 -118 20 -2 19 8
21 94 21 55 0 66 10 56 48 -6 23 -41 29 -61 9 -9 -9 -18 -9 -37 0 -13 6 -30 9
-37 7 -8 -3 -14 4 -14 17 -2 22 2 23 65 21 36 0 71 -2 76 -3 33 -7 49 15 39
55 -6 23 -9 24 -95 22 -91 -2 -112 9 -51 28 31 9 42 28 22 40 -24 15 -5 20 73
19 85 -1 97 4 97 43 0 26 -27 56 -43 46 -6 -3 -32 -5 -59 -4 -28 1 -48 -2 -48
-9 0 -5 -16 -10 -35 -10 -19 0 -35 4 -35 9 0 6 -19 11 -42 13 l-43 3 23 23
c36 36 27 52 -38 59 -36 4 -38 3 -63 -49 -30 -61 -76 -121 -75 -98 3 47 4 46
-121 46 -118 -1 -119 -1 -103 19 9 11 26 28 37 37 27 23 10 38 -48 44 l-44 5
-32 -56z m497 -144 c13 -19 13 -21 0 -16 -18 7 -51 -22 -45 -39 3 -7 -15 -11
-54 -11 -33 0 -59 1 -59 3 0 2 16 22 35 45 30 36 40 42 72 41 26 -1 41 -7 51
-23z m-418 -33 c-12 -5 -20 -14 -17 -21 3 -9 -11 -11 -55 -9 l-60 4 33 34 c17
18 36 31 41 28 4 -3 16 0 25 5 14 8 22 6 36 -11 18 -21 18 -22 -3 -30z m196
28 l-28 -24 35 -11 c25 -9 34 -17 30 -27 -4 -10 -9 -11 -17 -5 -7 6 -40 9 -74
8 -58 -2 -62 -1 -56 18 4 11 11 23 17 27 7 4 7 11 0 20 -9 10 1 13 55 15 l67
2 -29 -23z m36 -127 c4 -11 12 -11 100 -6 45 3 46 3 43 -22 -3 -28 1 -27 -91
-16 -36 4 -42 2 -47 -16 -12 -44 23 -68 68 -47 34 15 74 3 72 -22 -1 -22 -55
-38 -78 -24 -7 4 -25 8 -40 9 -20 1 -29 -4 -34 -19 -5 -16 -8 -18 -12 -6 -9
22 -25 30 -48 23 -11 -3 -33 -7 -50 -9 -26 -2 -30 2 -31 23 -2 17 2 23 12 19
8 -3 26 0 40 6 19 9 30 9 44 0 15 -9 19 -8 23 9 3 10 3 28 0 38 -4 17 -12 19
-62 16 -52 -3 -56 -2 -57 18 -2 21 2 22 62 19 38 -1 64 2 64 8 0 13 17 13 22
-1z m51 -214 c103 12 102 12 100 -12 -2 -14 4 -23 15 -26 28 -6 -168 -17 -223
-12 -27 3 -59 5 -70 6 -29 2 -30 36 -2 38 12 1 40 3 62 4 23 1 44 9 50 17 8
13 10 13 13 -3 3 -15 11 -17 55 -12z"/>
</g>
</svg>
