<?xml version="1.0" standalone="no"?>
<!DOCTYPE svg PUBLIC "-//W3C//DTD SVG 20010904//EN"
 "http://www.w3.org/TR/2001/REC-SVG-20010904/DTD/svg10.dtd">
<svg version="1.0" xmlns="http://www.w3.org/2000/svg"
 width="101.000000pt" height="102.000000pt" viewBox="0 0 101.000000 102.000000"
 preserveAspectRatio="xMidYMid meet">
<metadata>
Created by potrace 1.16, written by Peter Selinger 2001-2019
</metadata>
<g transform="translate(0.000000,102.000000) scale(0.100000,-0.100000)"
fill="#000000" stroke="none">
<path d="M226 964 c-17 -31 -58 -84 -92 -118 l-62 -62 41 -23 42 -22 47 53
c62 69 83 70 105 7 10 -27 22 -49 28 -49 15 0 85 20 85 25 0 2 -9 19 -20 37
l-19 33 59 0 c58 0 59 0 38 -17 -22 -16 -22 -17 -3 -23 47 -15 60 -24 29 -19
-34 6 -69 -18 -60 -41 4 -11 -15 -12 -90 -8 -67 4 -94 3 -94 -6 0 -7 -25 -11
-75 -11 -47 0 -75 4 -75 11 0 6 -10 9 -22 7 -16 -2 -24 -11 -26 -29 -5 -41 22
-61 82 -59 68 2 75 0 47 -11 -20 -8 -22 -14 -17 -47 4 -20 8 -46 9 -57 2 -11
6 -30 11 -43 5 -15 2 -35 -8 -57 -12 -25 -14 -40 -6 -60 9 -24 8 -26 -9 -20
-17 5 -19 2 -14 -32 9 -63 6 -124 -6 -136 -8 -8 -19 -8 -41 0 -54 20 -86 -5
-73 -57 5 -18 11 -19 52 -14 25 3 89 6 141 6 52 -1 124 -1 160 -1 123 0 266
-2 417 -4 l152 -2 4 23 c10 52 0 61 -63 57 l-58 -4 -7 39 c-4 22 -3 45 1 51 4
7 8 25 9 41 1 20 -3 28 -15 28 -15 0 -16 15 -13 145 2 144 2 145 -20 145 -18
0 -19 2 -7 10 8 5 43 10 77 10 58 0 63 2 69 25 12 48 4 51 -119 50 -81 0 -113
3 -110 11 2 6 -7 24 -20 39 -18 22 -29 27 -48 22 -46 -13 -53 -22 -35 -49 16
-24 16 -24 -18 -20 -23 3 -36 10 -39 23 -3 10 -2 19 2 21 3 2 16 16 29 32 19
25 28 29 74 29 53 0 64 -9 107 -81 5 -10 14 -10 41 -1 50 17 53 22 31 51 l-20
25 56 6 c61 6 76 19 67 57 -6 28 -21 40 -40 33 -7 -2 -62 -5 -123 -6 l-110 -2
25 26 c31 33 30 45 -3 54 -72 20 -78 18 -103 -34 -12 -27 -32 -61 -44 -76
l-22 -27 1 28 c0 32 2 31 -88 18 -32 -4 -56 -2 -72 6 -13 7 -32 10 -42 6 -11
-5 -6 5 15 26 17 19 32 37 32 41 0 7 -66 27 -90 27 -8 0 -28 -25 -44 -56z
m234 -314 c0 -6 -25 -9 -57 -8 l-58 1 45 7 c69 11 70 11 70 0z m100 0 c0 -5
-4 -10 -10 -10 -5 0 -10 5 -10 10 0 6 5 10 10 10 6 0 10 -4 10 -10z m100 0 c0
-5 -4 -10 -10 -10 -5 0 -10 5 -10 10 0 6 5 10 10 10 6 0 10 -4 10 -10z m-225
-68 c11 -4 21 -12 22 -18 3 -15 -113 -27 -137 -14 -10 5 -26 7 -34 4 -9 -3
-16 -1 -16 5 0 6 17 11 40 11 22 0 40 5 40 10 0 11 53 12 85 2z m295 -16 c0
-17 -114 -30 -140 -16 -10 5 -26 7 -34 4 -10 -4 -16 -1 -16 7 0 11 23 15 95
16 74 2 95 0 95 -11z m-297 -86 c16 0 27 -5 27 -14 0 -17 -114 -30 -140 -16
-10 5 -26 7 -34 4 -11 -4 -16 -1 -16 11 0 11 6 15 18 11 9 -3 24 -1 32 5 8 5
31 7 50 4 19 -2 47 -5 63 -5z m270 0 c16 0 27 -5 27 -14 0 -17 -114 -30 -140
-16 -10 5 -26 7 -34 4 -11 -4 -16 -1 -16 11 0 11 6 15 18 11 9 -3 24 -1 32 5
8 5 31 7 50 4 19 -2 47 -5 63 -5z m-276 -90 c36 0 26 -39 -12 -44 -85 -13
-145 -3 -145 25 0 15 5 19 18 15 9 -3 24 -1 32 5 8 5 31 7 50 4 19 -2 45 -5
57 -5z m271 0 c13 0 22 -6 22 -15 0 -8 8 -15 18 -16 13 0 12 -2 -5 -9 -12 -5
-50 -7 -85 -4 -35 2 -72 5 -83 5 -13 1 -21 9 -22 21 -1 14 3 17 15 14 9 -3 24
-1 32 5 8 5 31 7 50 4 19 -2 45 -5 58 -5z m-343 -155 l0 -50 -35 3 c-19 1 -45
3 -57 3 -20 1 -22 6 -21 45 2 34 6 43 18 39 8 -2 22 0 30 5 8 6 26 9 40 8 23
-3 25 -7 25 -53z m200 0 l0 -50 -35 3 c-19 1 -45 3 -57 3 -20 1 -22 6 -21 45
2 34 6 43 18 39 8 -2 22 0 30 5 8 6 26 9 40 8 23 -3 25 -7 25 -53z m190 0 l0
-50 -35 3 c-19 1 -45 3 -57 3 -20 1 -22 6 -21 45 2 34 6 43 18 39 8 -2 22 0
30 5 8 6 26 9 40 8 23 -3 25 -7 25 -53z"/>
</g>
</svg>
