<?xml version="1.0" standalone="no"?>
<!DOCTYPE svg PUBLIC "-//W3C//DTD SVG 20010904//EN"
 "http://www.w3.org/TR/2001/REC-SVG-20010904/DTD/svg10.dtd">
<svg version="1.0" xmlns="http://www.w3.org/2000/svg"
 width="101.000000pt" height="101.000000pt" viewBox="0 0 101.000000 101.000000"
 preserveAspectRatio="xMidYMid meet">
<metadata>
Created by potrace 1.16, written by Peter Selinger 2001-2019
</metadata>
<g transform="translate(0.000000,101.000000) scale(0.100000,-0.100000)"
fill="#000000" stroke="none">
<path d="M247 987 c3 -14 -2 -36 -11 -50 -9 -13 -16 -29 -15 -33 4 -24 -5 -29
-50 -26 -43 3 -50 1 -56 -17 -3 -12 -4 -30 0 -41 3 -10 7 -69 9 -130 3 -107 2
-110 -18 -109 -55 5 -69 -11 -59 -65 5 -24 9 -26 44 -22 l38 4 -5 -35 c-2 -19
-6 -39 -9 -43 -3 -5 0 -20 6 -34 9 -18 9 -29 1 -38 -5 -7 -13 -30 -17 -50 -4
-21 -20 -59 -37 -84 l-30 -47 35 -35 35 -35 25 49 c47 93 61 161 68 332 1 16
6 22 16 18 8 -3 23 -1 34 5 12 6 37 8 59 4 30 -5 38 -11 39 -28 0 -12 3 -60 6
-107 3 -47 2 -105 -3 -130 -7 -41 -10 -45 -40 -46 -18 -1 -35 -4 -38 -7 -2 -2
1 -24 7 -49 11 -39 15 -44 38 -43 14 2 38 7 53 13 14 6 37 9 51 7 20 -4 28 3
49 43 23 43 57 134 65 172 8 44 15 98 15 120 1 21 4 18 17 -15 8 -22 29 -67
46 -101 l30 -60 -52 -44 c-29 -24 -66 -52 -83 -63 l-32 -20 36 -35 35 -36 75
62 c42 34 78 62 81 62 3 0 26 -16 51 -36 46 -35 116 -74 131 -74 12 0 54 81
47 91 -3 5 -11 9 -17 9 -18 0 -119 49 -139 67 -16 15 -16 18 7 57 25 42 95
242 100 283 3 29 -15 35 -54 16 -25 -13 -37 -13 -56 -5 -14 6 -32 9 -40 6 -13
-6 -15 5 -13 72 l3 79 46 0 46 0 -13 -47 c-9 -36 -9 -48 -1 -49 82 -8 80 -9
94 66 2 11 7 31 12 45 5 14 12 36 15 50 l5 25 -102 0 -103 0 3 30 c1 17 6 47
11 68 12 44 1 54 -60 55 l-37 1 1 -42 c0 -23 5 -47 10 -54 5 -7 8 -22 6 -35
-3 -22 -6 -23 -84 -20 -99 5 -112 -4 -112 -79 -1 -28 4 -59 10 -69 15 -23 -10
-382 -27 -399 -3 -2 -5 14 -5 37 0 23 -4 42 -10 42 -5 0 -10 20 -10 45 0 25 5
45 10 45 6 0 10 30 10 70 0 40 -4 70 -10 70 -13 0 -13 147 -1 152 6 2 11 25
12 51 4 68 -13 76 -113 53 -24 -5 -26 -4 -23 20 1 14 12 39 25 56 27 37 18 48
-43 54 -43 5 -44 4 -40 -19z m99 -299 l5 -116 -40 -7 c-23 -4 -48 -2 -60 4
-11 6 -26 9 -33 6 -10 -4 -13 19 -13 115 l0 121 68 -3 68 -3 5 -117z m290 68
c1 -1 4 -34 7 -73 l6 -73 -44 2 -43 2 1 77 2 77 35 -5 c19 -3 36 -6 36 -7z
m107 -223 c24 -4 26 -8 21 -36 -7 -41 -54 -147 -65 -147 -12 0 -45 66 -58 118
-13 46 -13 46 -57 33 -26 -7 -30 -6 -31 11 -1 14 3 17 15 14 9 -3 24 -1 32 4
15 9 97 12 143 3z"/>
<path d="M243 740 c-22 -9 -22 -11 -8 -51 8 -22 13 -45 10 -49 -3 -5 -3 -15 1
-23 4 -12 13 -13 45 -5 45 12 45 13 22 85 -17 55 -26 60 -70 43z"/>
<path d="M238 453 c-10 -2 -18 -5 -18 -6 0 -1 7 -24 15 -51 8 -26 13 -51 11
-55 -12 -19 13 -32 49 -25 41 7 41 8 14 106 -10 39 -22 44 -71 31z"/>
</g>
</svg>
