<?xml version="1.0" standalone="no"?>
<!DOCTYPE svg PUBLIC "-//W3C//DTD SVG 20010904//EN"
 "http://www.w3.org/TR/2001/REC-SVG-20010904/DTD/svg10.dtd">
<svg version="1.0" xmlns="http://www.w3.org/2000/svg"
 width="101.000000pt" height="101.000000pt" viewBox="0 0 101.000000 101.000000"
 preserveAspectRatio="xMidYMid meet">
<metadata>
Created by potrace 1.16, written by Peter Selinger 2001-2019
</metadata>
<g transform="translate(0.000000,101.000000) scale(0.100000,-0.100000)"
fill="#000000" stroke="none">
<path d="M157 915 c-27 -53 -71 -120 -98 -149 -27 -30 -49 -56 -49 -59 0 -2
17 -16 39 -30 25 -17 42 -22 48 -16 14 14 26 -221 14 -254 -16 -42 -4 -64 32
-60 88 11 185 12 259 4 46 -5 84 -8 86 -6 1 1 5 48 9 104 4 73 3 101 -5 101
-8 0 -12 25 -12 75 0 43 4 75 10 75 6 0 10 7 10 15 0 14 -13 20 -35 15 -23 -5
-75 -5 -75 0 1 3 18 38 39 79 37 73 38 74 44 43 6 -31 7 -31 64 -29 l58 2 -3
-135 c-2 -145 -7 -214 -17 -270 -8 -44 -46 -127 -72 -160 l-21 -24 4 48 c3 26
1 45 -3 43 -8 -5 -55 -14 -117 -22 -15 -3 -35 -10 -42 -16 -11 -9 -21 -9 -38
-1 -18 8 -37 7 -77 -5 -40 -12 -60 -13 -81 -5 -32 12 -71 5 -64 -12 3 -6 10
-30 17 -53 12 -47 11 -46 109 -27 58 12 199 33 254 38 l30 3 -30 -24 c-16 -12
-37 -26 -46 -29 -23 -7 -23 -23 0 -31 9 -3 32 -17 50 -31 l34 -24 34 33 c73
71 137 191 150 284 3 17 7 46 10 65 8 52 24 334 20 345 -2 6 19 10 53 10 l56
0 -4 -48 c-1 -27 2 -54 8 -60 15 -15 14 -72 -4 -140 -18 -69 -19 -98 -4 -130
8 -18 8 -47 0 -107 -12 -88 -29 -115 -66 -104 -23 7 -64 8 -70 2 -3 -2 4 -22
15 -43 11 -22 20 -45 20 -52 0 -12 23 -19 45 -13 6 2 17 4 25 5 34 4 89 27
104 43 17 20 17 18 17 305 -1 121 3 177 10 177 8 0 9 25 4 80 -4 50 -3 85 3
93 6 6 10 28 10 47 l0 35 -60 -2 c-33 -1 -62 -4 -65 -7 -10 -9 -71 -7 -77 3
-4 5 -34 9 -69 9 -35 0 -73 3 -85 6 -30 10 -82 -2 -82 -19 0 -19 -62 -27 -152
-19 l-79 7 37 38 37 38 -44 20 c-24 12 -51 21 -59 21 -9 0 -34 -38 -63 -95z
m160 -147 l-25 -43 -65 0 c-69 0 -73 4 -44 48 14 21 23 25 45 21 15 -3 38 -1
52 5 14 5 33 10 44 10 16 1 16 -3 -7 -41z m-52 -158 c0 -33 -2 -35 -35 -35
-33 0 -35 2 -35 35 0 34 1 36 35 35 34 0 36 -2 35 -35z m150 2 c0 -36 -1 -37
-32 -34 -19 3 -33 10 -33 17 0 7 -3 20 -6 29 -4 11 3 16 33 19 21 2 38 4 38 5
1 1 1 -15 0 -36z m-147 -147 l2 -44 -40 2 -39 1 1 41 c2 40 3 41 38 42 35 2
36 1 38 -42z m150 0 l2 -44 -40 2 -39 1 1 41 c2 40 3 41 38 42 35 2 36 1 38
-42z"/>
</g>
</svg>
