<?xml version="1.0" standalone="no"?>
<!DOCTYPE svg PUBLIC "-//W3C//DTD SVG 20010904//EN"
 "http://www.w3.org/TR/2001/REC-SVG-20010904/DTD/svg10.dtd">
<svg version="1.0" xmlns="http://www.w3.org/2000/svg"
 width="101.000000pt" height="102.000000pt" viewBox="0 0 101.000000 102.000000"
 preserveAspectRatio="xMidYMid meet">
<metadata>
Created by potrace 1.16, written by Peter Selinger 2001-2019
</metadata>
<g transform="translate(0.000000,102.000000) scale(0.100000,-0.100000)"
fill="#000000" stroke="none">
<path d="M604 1004 c-38 -114 -123 -232 -214 -299 l-52 -39 31 -25 c28 -23 31
-32 31 -78 0 -29 5 -53 10 -53 6 0 10 -11 10 -25 0 -14 -4 -25 -10 -25 -6 0
-10 -30 -10 -70 0 -40 4 -70 10 -70 6 0 10 -11 10 -25 0 -14 -5 -25 -10 -25
-7 0 -10 -31 -8 -84 3 -92 8 -99 62 -89 25 5 33 27 27 73 -1 8 -4 36 -6 61 -3
42 -1 47 18 47 12 1 33 2 47 4 23 3 25 0 25 -47 0 -37 -4 -50 -15 -51 -52 -3
-50 0 -32 -45 17 -40 18 -40 57 -34 59 9 74 29 75 100 0 33 0 78 1 100 0 22 1
97 2 167 1 69 0 129 -3 132 -3 3 -56 6 -118 8 -61 2 -112 3 -112 3 0 1 20 20
44 44 32 31 43 38 40 24 -12 -44 74 -74 110 -38 18 18 38 19 106 3 56 -13 75
-3 66 35 -5 21 7 22 24 2 7 -8 28 -24 47 -36 l35 -22 34 37 c19 20 34 39 34
41 0 2 -25 17 -56 35 -105 59 -211 180 -199 227 6 26 -11 38 -68 48 -31 6 -38
4 -43 -11z m133 -231 l34 -42 -111 2 c-60 1 -110 3 -110 4 0 1 17 27 39 57 21
31 44 70 51 87 l13 31 25 -48 c13 -27 40 -68 59 -91z m-165 -270 c4 -27 3 -28
-39 -24 -24 1 -43 7 -43 11 0 5 -3 15 -6 24 -5 13 2 16 39 16 41 0 45 -2 49
-27z m3 -125 c-2 -28 -6 -33 -26 -30 -13 2 -33 3 -45 4 -14 0 -20 7 -20 22 1
17 9 22 41 27 22 3 43 7 46 7 4 1 5 -13 4 -30z"/>
<path d="M300 995 c-23 -28 -119 -85 -191 -114 -41 -17 -74 -34 -74 -38 0 -5
12 -23 26 -40 l27 -32 118 65 c66 35 136 69 157 76 20 6 37 14 37 18 0 7 -74
80 -82 80 -3 0 -11 -7 -18 -15z"/>
<path d="M246 844 l-28 -16 33 -34 34 -35 -25 -19 c-14 -11 -28 -20 -31 -20
-4 0 -18 18 -33 40 -14 22 -29 40 -32 40 -10 0 -64 -31 -64 -36 0 -4 14 -22
30 -41 17 -19 28 -38 25 -43 -3 -5 -31 -17 -63 -26 -31 -10 -60 -20 -65 -24
-4 -3 9 -22 29 -40 l35 -35 62 32 c40 22 65 29 71 23 13 -13 -71 -91 -143
-132 -31 -17 -58 -33 -60 -35 -7 -5 51 -63 63 -63 13 0 131 101 163 139 12 14
23 24 23 21 10 -40 3 -57 -46 -110 -30 -31 -80 -75 -111 -96 -32 -21 -62 -42
-67 -46 -9 -7 48 -68 63 -68 4 0 49 41 100 92 62 60 91 83 85 67 -4 -13 -7
-33 -7 -44 1 -41 -18 -92 -42 -115 -21 -20 -29 -22 -49 -12 -13 6 -33 8 -44 5
-20 -5 -20 -5 2 -53 11 -27 28 -51 36 -53 25 -5 109 34 135 64 75 90 66 330
-18 453 l-26 40 67 48 c37 27 79 56 95 64 15 8 27 18 27 23 0 10 -58 61 -69
61 -4 0 -20 -14 -36 -30 l-29 -30 -19 30 c-21 34 -30 36 -71 14z"/>
<path d="M824 622 c-11 -7 -10 -156 1 -322 7 -102 -5 -126 -63 -122 l-43 2 16
-30 c8 -16 15 -33 14 -37 -5 -28 3 -33 44 -30 23 2 57 12 75 21 l34 17 -7 85
c-5 59 -4 84 4 84 7 0 11 25 11 70 0 40 -4 70 -10 70 -18 0 -12 139 6 158 15
14 15 17 -2 29 -19 14 -62 17 -80 5z"/>
<path d="M704 602 c-14 -9 -17 -139 -4 -147 13 -8 13 -141 -1 -167 -6 -11 -8
-22 -5 -26 7 -7 75 -6 82 1 5 5 6 32 5 157 -1 52 2 109 5 127 5 25 2 33 -15
42 -12 7 -21 9 -21 6 0 -3 -8 -1 -18 4 -10 5 -23 7 -28 3z"/>
</g>
</svg>
