<?xml version="1.0" standalone="no"?>
<!DOCTYPE svg PUBLIC "-//W3C//DTD SVG 20010904//EN"
 "http://www.w3.org/TR/2001/REC-SVG-20010904/DTD/svg10.dtd">
<svg version="1.0" xmlns="http://www.w3.org/2000/svg"
 width="101.000000pt" height="101.000000pt" viewBox="0 0 101.000000 101.000000"
 preserveAspectRatio="xMidYMid meet">
<metadata>
Created by potrace 1.16, written by Peter Selinger 2001-2019
</metadata>
<g transform="translate(0.000000,101.000000) scale(0.100000,-0.100000)"
fill="#000000" stroke="none">
<path d="M288 950 c3 -39 0 -60 -7 -60 -6 0 -11 -18 -11 -40 0 -22 5 -40 10
-40 10 0 14 -68 5 -92 -4 -9 -18 -12 -45 -10 l-40 4 7 92 c3 50 10 99 15 110
14 25 -6 37 -57 34 l-40 -3 0 -122 c0 -66 -3 -119 -8 -116 -4 2 -20 2 -36 -2
-34 -7 -48 -43 -30 -77 11 -20 16 -20 108 -14 l96 7 -1 -58 c-2 -94 -25 -173
-67 -227 -14 -19 -15 -19 -20 10 -8 42 2 160 17 195 5 11 -2 18 -29 26 -19 6
-44 9 -55 6 -16 -4 -18 -11 -14 -47 12 -89 13 -185 5 -271 -4 -49 -7 -92 -5
-94 4 -5 44 -3 84 4 19 4 64 7 100 8 36 2 71 6 78 11 7 4 28 5 46 2 28 -5 33
-10 33 -36 0 -17 3 -33 7 -37 7 -7 74 -8 82 0 2 2 0 46 -6 98 -13 122 -5 273
18 315 15 28 42 50 42 35 0 -12 63 -9 122 5 14 3 33 2 41 -3 12 -6 4 -23 -44
-88 -70 -96 -142 -236 -142 -277 0 -39 19 -56 88 -79 41 -13 62 -16 75 -9 11
6 49 8 87 6 91 -6 128 10 153 66 25 56 25 75 -2 89 -13 6 -33 21 -45 32 -18
15 -23 17 -24 6 -7 -78 -16 -98 -47 -105 -15 -4 -33 -11 -39 -16 -7 -6 -21 -7
-30 -3 -10 4 -36 9 -58 11 -69 7 -73 22 -30 101 58 107 143 219 181 239 39 21
48 40 38 79 -6 25 -10 27 -43 21 -92 -16 -131 -19 -131 -7 0 7 -21 11 -56 11
-31 0 -54 3 -52 8 45 103 52 113 86 108 19 -3 32 0 32 6 0 8 33 9 109 5 105
-6 110 -5 116 14 4 11 4 30 1 42 -5 21 -10 22 -130 22 -121 0 -125 1 -120 20
12 38 44 95 54 95 6 0 10 5 10 10 0 12 -33 26 -83 35 -38 7 -46 -2 -53 -60
-10 -74 -87 -263 -114 -280 -6 -4 -10 -3 -9 2 6 36 -24 64 -52 47 -6 -4 -31
-7 -55 -8 l-44 -1 2 50 3 50 78 0 c65 0 78 3 83 18 12 38 -5 55 -62 62 -30 4
-65 5 -79 3 -25 -5 -25 -5 -20 58 l5 64 -42 0 -43 0 3 -60z m182 -345 c-10
-12 -6 -17 22 -29 l33 -15 -35 1 c-63 2 -67 0 -65 -30 1 -16 5 -34 9 -40 4 -7
4 -33 0 -58 l-7 -46 -47 47 c-43 43 -48 51 -44 84 3 19 11 46 20 58 8 13 11
23 7 24 -20 2 46 17 81 18 33 1 37 -1 26 -14z m-115 -260 c35 -50 40 -54 55
-40 15 13 16 11 17 -19 1 -33 -1 -34 -43 -41 -25 -3 -52 -2 -63 4 -13 7 -28 8
-45 2 -13 -6 -42 -9 -63 -8 -32 1 -38 5 -39 24 -2 29 4 29 33 1 13 -12 25 -20
27 -17 2 2 20 37 40 77 20 39 38 72 40 72 2 0 21 -25 41 -55z"/>
</g>
</svg>
