<?xml version="1.0" standalone="no"?>
<!DOCTYPE svg PUBLIC "-//W3C//DTD SVG 20010904//EN"
 "http://www.w3.org/TR/2001/REC-SVG-20010904/DTD/svg10.dtd">
<svg version="1.0" xmlns="http://www.w3.org/2000/svg"
 width="101.000000pt" height="101.000000pt" viewBox="0 0 101.000000 101.000000"
 preserveAspectRatio="xMidYMid meet">
<metadata>
Created by potrace 1.16, written by Peter Selinger 2001-2019
</metadata>
<g transform="translate(0.000000,101.000000) scale(0.100000,-0.100000)"
fill="#000000" stroke="none">
<path d="M629 959 c2 -28 -3 -69 -12 -92 -8 -23 -15 -52 -15 -65 -1 -37 -50
-110 -90 -137 -32 -21 -97 -49 -127 -54 -59 -10 -59 -11 -23 -48 27 -28 30
-35 18 -44 -8 -5 -24 -6 -35 -3 -11 3 -30 6 -42 6 -21 0 -22 3 -16 62 3 33 7
62 8 64 1 1 20 3 43 4 l41 1 -5 114 c-4 81 -3 118 6 128 7 8 10 25 6 38 -5 23
-10 24 -126 31 -131 7 -167 3 -174 -22 -8 -32 -5 -91 5 -98 7 -4 8 -38 4 -100
-5 -67 -4 -94 4 -94 6 0 11 5 11 11 0 6 17 9 42 7 l43 -3 -3 -77 c-2 -44 1
-85 8 -97 7 -15 9 -52 4 -116 -6 -81 -9 -95 -26 -101 -11 -3 -21 -4 -24 -2
-10 11 -3 255 9 293 6 16 1 22 -26 30 -74 24 -81 4 -73 -204 4 -107 2 -141 -7
-141 -32 -1 -39 -16 -26 -61 7 -24 13 -45 14 -46 1 -1 32 10 71 26 38 15 112
40 164 56 52 15 99 31 103 35 7 6 18 80 12 80 -1 0 -27 -9 -58 -19 l-56 -20
-7 34 c-3 18 -1 42 5 53 6 11 8 28 4 38 -5 13 -3 16 10 11 10 -4 28 -1 42 5
19 8 28 8 40 -2 13 -11 15 -9 17 11 0 13 0 34 -1 45 -1 16 7 25 26 32 l28 9
-2 -51 c0 -28 3 -56 8 -63 10 -11 4 -280 -7 -314 -6 -20 19 -28 64 -21 32 4
32 5 32 61 -1 101 0 109 24 110 11 0 48 3 81 6 33 3 74 3 91 0 27 -5 30 -9 31
-43 1 -44 -11 -54 -55 -46 -32 6 -32 6 -22 -20 5 -15 9 -30 9 -34 -6 -35 23
-45 81 -28 74 22 75 25 77 224 2 220 2 224 17 219 6 -3 18 -8 26 -11 12 -5 22
6 38 40 13 26 22 47 20 49 -2 1 -23 10 -48 19 -54 21 -130 68 -156 97 l-19 22
35 -17 c19 -10 50 -25 68 -34 34 -17 34 -17 58 13 13 17 22 34 21 39 -2 6 -38
22 -80 38 l-76 27 -21 -26 c-19 -25 -25 -20 -21 19 1 9 -2 19 -7 22 -10 6 -7
106 4 150 6 25 5 26 -42 26 l-49 0 4 -51z m-333 -153 l2 -78 -56 6 c-31 4 -57
8 -59 10 -2 1 -4 34 -6 72 l-3 69 60 0 61 0 1 -79z m430 -154 c50 -48 66 -70
55 -72 -25 -5 -194 -1 -210 5 -9 4 0 20 33 55 25 27 46 56 46 65 0 8 1 15 3
15 1 0 34 -31 73 -68z m15 -138 c21 -4 26 -11 26 -34 0 -25 -5 -30 -31 -35
-17 -3 -58 -3 -91 0 -33 3 -69 6 -81 6 -16 1 -21 8 -21 30 0 22 4 28 16 24 9
-2 22 -1 30 4 16 10 110 13 152 5z m0 -130 c21 -4 26 -11 26 -34 0 -25 -5 -30
-31 -35 -17 -3 -58 -3 -91 0 -33 3 -69 6 -81 6 -16 1 -21 8 -21 30 0 22 4 28
16 24 9 -2 22 -1 30 4 16 10 110 13 152 5z"/>
<path d="M831 956 c-6 -8 -34 -23 -61 -35 -28 -12 -50 -24 -50 -27 0 -3 9 -18
20 -34 l20 -28 75 32 c41 17 75 36 75 42 0 10 -51 64 -62 64 -3 0 -11 -6 -17
-14z"/>
<path d="M418 927 l-16 -34 66 -22 c37 -12 72 -25 79 -27 7 -3 21 12 31 33
l20 38 -62 22 c-84 31 -99 30 -118 -10z"/>
<path d="M559 826 c-2 -3 -16 -7 -29 -10 -14 -3 -36 -8 -50 -11 -25 -6 -53
-11 -78 -14 -8 -1 -11 -8 -7 -20 3 -11 8 -29 10 -42 2 -12 6 -23 7 -25 9 -8
159 53 163 67 6 17 -8 63 -16 55z"/>
</g>
</svg>
