<?xml version="1.0" standalone="no"?>
<!DOCTYPE svg PUBLIC "-//W3C//DTD SVG 20010904//EN"
 "http://www.w3.org/TR/2001/REC-SVG-20010904/DTD/svg10.dtd">
<svg version="1.0" xmlns="http://www.w3.org/2000/svg"
 width="101.000000pt" height="102.000000pt" viewBox="0 0 101.000000 102.000000"
 preserveAspectRatio="xMidYMid meet">
<metadata>
Created by potrace 1.16, written by Peter Selinger 2001-2019
</metadata>
<g transform="translate(0.000000,102.000000) scale(0.100000,-0.100000)"
fill="#000000" stroke="none">
<path d="M164 978 c-25 -56 -105 -178 -132 -202 -27 -24 -27 -26 -1 -71 19
-32 23 -34 38 -21 15 13 16 1 15 -159 l-1 -173 36 6 c20 3 99 5 177 4 l141 -1
7 82 c3 45 6 135 6 200 0 100 -2 119 -16 124 -9 3 -25 1 -35 -5 -21 -14 -49
-16 -49 -4 0 4 18 38 40 76 22 37 40 70 40 71 0 2 -16 1 -35 -2 -20 -3 -41 -1
-48 6 -8 6 -35 10 -60 8 -53 -3 -58 3 -22 31 34 27 32 37 -15 56 -58 23 -65
21 -86 -26z m136 -147 c0 -2 -11 -19 -25 -37 -24 -32 -28 -33 -73 -27 -26 3
-48 7 -50 8 -1 1 5 15 14 31 15 27 21 29 75 29 33 0 59 -2 59 -4z m-75 -187
c0 -37 -2 -41 -25 -41 -23 0 -25 3 -22 41 3 34 7 41 25 41 19 0 22 -6 22 -41z
m130 0 c0 -37 -2 -41 -25 -41 -23 0 -25 3 -22 41 3 34 7 41 25 41 19 0 22 -5
22 -41z m-127 -138 c1 -12 2 -32 4 -46 3 -22 -1 -25 -32 -25 -31 0 -35 3 -32
25 2 14 3 34 4 46 0 16 7 21 28 21 21 0 28 -5 28 -21z m130 0 c1 -12 2 -32 4
-46 3 -22 -1 -25 -32 -25 -31 0 -35 3 -32 25 2 14 3 34 4 46 0 16 7 21 28 21
21 0 28 -5 28 -21z"/>
<path d="M688 985 c2 -19 1 -54 -2 -78 l-6 -42 -74 1 c-40 1 -78 4 -84 8 -6 3
-18 -1 -27 -11 -14 -13 -16 -28 -11 -77 4 -34 6 -83 6 -111 -1 -67 0 -80 4
-149 3 -32 0 -70 -5 -84 -5 -13 -12 -41 -15 -60 -7 -41 -53 -146 -52 -117 3
61 6 60 -112 39 -19 -3 -46 -7 -60 -9 -14 -1 -47 -8 -73 -15 -35 -9 -55 -10
-72 -2 -12 6 -33 8 -45 5 -17 -5 -20 -11 -15 -31 3 -13 9 -38 12 -54 6 -28 8
-29 42 -23 20 4 45 9 56 11 11 2 34 6 50 10 33 6 76 12 115 18 14 1 41 6 60
10 l35 7 -52 -51 c-42 -41 -49 -52 -35 -56 9 -3 34 -13 55 -24 l38 -19 30 42
c39 53 66 106 91 177 22 61 28 97 37 190 2 23 16 -1 30 -50 7 -25 26 -73 41
-107 l29 -63 -45 -31 c-25 -17 -70 -42 -100 -56 l-56 -25 40 -41 41 -40 43 28
c24 15 62 43 86 62 l43 35 52 -40 c50 -38 117 -77 121 -70 1 2 17 22 34 44 18
23 32 44 32 46 0 3 -17 10 -37 16 -21 7 -61 25 -90 42 l-51 29 28 53 c27 50
71 184 85 261 l7 35 -49 0 c-98 1 -91 -5 -89 81 l1 77 37 -1 c43 0 43 1 24
-53 -14 -38 -14 -40 7 -47 43 -12 77 -16 78 -8 1 4 3 17 5 28 1 11 5 35 8 53
3 18 8 37 12 43 3 6 9 26 11 45 4 29 1 34 -21 40 -14 3 -31 2 -38 -3 -7 -4
-38 -8 -68 -8 l-55 0 1 56 c0 31 4 62 9 69 11 18 -13 30 -60 30 -41 0 -41 0
-37 -35z m-15 -287 c-1 -81 -2 -83 -25 -80 -13 2 -32 3 -44 4 -19 0 -20 6 -20
72 l1 71 45 6 c25 3 45 7 45 7 0 1 -1 -35 -2 -80z m116 -157 c8 -5 11 -16 6
-30 -3 -11 -8 -33 -11 -48 -3 -15 -15 -49 -26 -76 -25 -57 -29 -53 -59 48 -34
114 -33 108 -12 101 10 -3 25 -1 33 4 19 12 51 12 69 1z m-194 -11 c-3 -5 -8
-10 -11 -10 -2 0 -4 5 -4 10 0 6 5 10 11 10 5 0 7 -4 4 -10z"/>
</g>
</svg>
