<?xml version="1.0" standalone="no"?>
<!DOCTYPE svg PUBLIC "-//W3C//DTD SVG 20010904//EN"
 "http://www.w3.org/TR/2001/REC-SVG-20010904/DTD/svg10.dtd">
<svg version="1.0" xmlns="http://www.w3.org/2000/svg"
 width="101.000000pt" height="101.000000pt" viewBox="0 0 101.000000 101.000000"
 preserveAspectRatio="xMidYMid meet">
<metadata>
Created by potrace 1.16, written by Peter Selinger 2001-2019
</metadata>
<g transform="translate(0.000000,101.000000) scale(0.100000,-0.100000)"
fill="#000000" stroke="none">
<path d="M179 973 c-21 -66 -67 -150 -114 -207 -25 -31 -45 -59 -45 -63 1 -16
48 -65 57 -60 14 9 26 -204 14 -236 -5 -14 -7 -34 -4 -46 4 -18 10 -19 47 -14
22 3 103 6 179 6 l138 -1 -7 119 c-5 83 -3 123 5 132 11 14 14 85 4 120 -4 15
-13 17 -53 14 l-49 -5 40 80 c41 82 43 102 9 80 -25 -15 -96 -16 -106 -1 -3 6
-17 9 -30 6 -24 -4 -24 -4 -8 22 10 14 24 31 33 37 12 10 8 15 -27 33 -57 29
-69 27 -83 -16z m116 -165 c-2 -10 -11 -30 -20 -45 -15 -25 -22 -28 -68 -27
-29 1 -52 3 -52 5 1 2 11 22 23 44 22 38 25 40 72 41 41 0 48 -2 45 -18z m69
-183 c1 -39 0 -41 -26 -37 -22 3 -27 10 -30 43 -4 39 -3 40 26 37 26 -3 29 -6
30 -43z m-139 -2 c0 -34 -3 -38 -25 -38 -21 0 -25 5 -26 32 0 27 4 33 25 36
14 2 26 5 26 6 1 0 1 -16 0 -36z m3 -159 c1 -39 0 -41 -28 -41 -28 0 -29 2
-28 41 2 37 5 41 28 41 23 0 26 -4 28 -41z m140 1 c1 -43 1 -43 -33 -42 -34 1
-34 2 -33 42 2 39 4 41 33 42 29 1 31 -1 33 -42z"/>
<path d="M631 983 c-13 -9 -49 -29 -80 -44 -31 -15 -50 -28 -43 -28 15 -1 17
-111 2 -111 -5 0 -10 -18 -10 -40 0 -22 5 -40 10 -40 6 0 10 -33 10 -80 0 -53
-4 -80 -11 -80 -9 0 -10 -32 -5 -119 7 -116 7 -119 -17 -147 -25 -29 -25 -30
-6 -53 10 -13 19 -29 19 -37 0 -19 6 -18 43 10 58 44 140 87 153 82 17 -6 19
-52 3 -62 -6 -4 -8 -20 -5 -39 4 -18 2 -44 -3 -57 -15 -40 3 -54 65 -50 18 2
22 9 22 44 0 24 1 52 2 63 1 11 -3 47 -9 80 -13 74 -14 182 -1 190 12 7 11
113 -1 121 -13 7 -11 51 2 59 6 4 9 37 7 85 l-3 78 35 4 35 3 2 -125 c2 -128
2 -169 3 -254 0 -57 -11 -75 -45 -71 -29 3 -29 1 -13 -59 11 -42 14 -44 42
-41 42 6 79 36 93 76 14 41 16 236 3 244 -13 8 -13 52 0 60 6 4 10 55 9 129
l-2 123 -48 -5 c-27 -2 -55 0 -62 6 -7 6 -26 10 -43 10 -24 -1 -40 9 -74 46
-23 25 -45 46 -49 46 -4 0 -17 -7 -30 -17z m65 -86 c-14 -10 -16 -20 -11 -38
4 -13 7 -72 6 -131 -1 -61 3 -109 9 -113 12 -8 11 -153 -2 -161 -5 -3 -8 -16
-7 -27 0 -12 0 -33 -1 -47 -1 -21 -3 -22 -9 -7 -6 16 -10 15 -48 -12 l-41 -30
-7 50 c-5 32 -3 61 5 80 7 16 10 47 7 69 -5 39 -4 40 26 41 18 1 37 1 43 0 16
-2 25 26 18 55 -7 26 -40 40 -72 30 -18 -6 -19 -1 -16 106 l2 113 49 17 c59
21 73 22 49 5z m-10 -584 c-3 -4 -6 2 -5 13 0 11 3 14 6 6 3 -7 2 -16 -1 -19z"/>
<path d="M399 306 c-2 -2 -22 -7 -44 -11 -22 -3 -51 -8 -65 -11 -14 -2 -44 -6
-66 -8 -23 -2 -51 -10 -62 -17 -16 -10 -26 -10 -45 -2 -14 7 -35 9 -47 6 -17
-5 -20 -11 -15 -31 3 -13 9 -37 12 -53 3 -16 7 -29 8 -29 1 0 22 7 45 15 24 8
59 18 79 21 20 3 45 7 56 10 35 7 79 15 100 18 40 5 75 18 76 30 6 52 4 66
-11 66 -9 0 -19 -2 -21 -4z"/>
</g>
</svg>
