<?xml version="1.0" standalone="no"?>
<!DOCTYPE svg PUBLIC "-//W3C//DTD SVG 20010904//EN"
 "http://www.w3.org/TR/2001/REC-SVG-20010904/DTD/svg10.dtd">
<svg version="1.0" xmlns="http://www.w3.org/2000/svg"
 width="101.000000pt" height="102.000000pt" viewBox="0 0 101.000000 102.000000"
 preserveAspectRatio="xMidYMid meet">
<metadata>
Created by potrace 1.16, written by Peter Selinger 2001-2019
</metadata>
<g transform="translate(0.000000,102.000000) scale(0.100000,-0.100000)"
fill="#000000" stroke="none">
<path d="M350 1013 c-25 -10 -30 -26 -24 -71 l6 -43 -54 3 c-51 3 -54 4 -52
28 1 14 4 36 8 50 7 24 6 25 -48 25 l-55 0 2 -51 c2 -49 2 -50 -23 -49 -15 1
-32 5 -38 9 -19 12 -52 -13 -52 -39 0 -47 8 -54 60 -50 l48 4 4 -34 c2 -19 0
-44 -4 -56 -16 -43 -2 -58 51 -53 47 4 48 4 48 -25 0 -27 -4 -30 -38 -36 -21
-4 -46 -2 -57 4 -42 23 -84 -18 -61 -60 5 -10 7 -54 5 -99 l-4 -81 51 6 c107
12 101 14 103 -27 3 -35 1 -38 -31 -44 -18 -3 -42 -1 -54 6 -12 6 -26 8 -31 5
-5 -3 -18 -1 -28 4 -43 23 -75 -8 -65 -62 4 -21 10 -25 38 -23 17 2 37 6 42 9
6 4 38 4 71 1 52 -6 60 -9 61 -28 4 -52 2 -93 -4 -122 -6 -26 -3 -32 13 -36
11 -3 32 -3 46 -1 25 5 26 8 25 72 -1 100 1 113 17 107 8 -3 26 0 39 6 21 9
29 9 41 -4 14 -14 13 -18 -15 -37 -32 -23 -40 -41 -18 -41 6 0 23 -9 37 -20
14 -11 30 -20 37 -20 19 0 105 118 149 207 29 56 42 76 43 60 6 -83 5 -229 -1
-268 -8 -53 -1 -59 65 -51 34 4 38 7 32 26 -12 39 -15 227 -4 248 10 19 15 15
48 -49 20 -38 52 -89 70 -111 l32 -42 42 33 c23 17 43 33 45 33 2 1 -25 31
-60 66 -45 45 -76 88 -106 148 -23 47 -42 91 -42 97 0 12 17 14 96 14 48 1 52
3 57 26 11 59 -12 80 -61 56 -21 -10 -40 -13 -59 -7 -16 4 -37 8 -48 8 -17 1
-20 7 -17 36 1 19 3 45 3 58 1 19 5 21 23 16 11 -4 30 -6 41 -5 11 1 46 2 77
2 49 -1 58 2 63 20 16 50 -18 89 -63 72 -11 -5 -46 -6 -76 -5 l-56 4 -1 51
c-1 29 0 57 1 62 2 6 3 24 4 40 1 29 -1 30 -48 33 -32 2 -52 -1 -57 -9 -11
-18 -9 -91 3 -106 5 -6 8 -26 6 -44 l-3 -33 -62 1 c-92 2 -95 2 -88 13 4 6 4
24 0 40 -6 27 -10 30 -39 27 l-32 -4 7 51 c4 33 2 54 -5 58 -13 9 -54 9 -76 1z
m122 -214 c-5 -59 16 -72 101 -64 61 6 69 5 64 -8 -3 -9 -1 -29 5 -45 15 -40
-4 -66 -41 -57 -14 3 -42 8 -62 10 -41 5 -51 -10 -42 -59 5 -27 15 -30 71 -27
17 2 32 0 32 -3 0 -19 -49 -123 -86 -183 -42 -67 -56 -85 -53 -65 5 28 -3 42
-24 42 -13 0 -28 -5 -35 -12 -9 -9 -18 -9 -37 0 -13 6 -31 9 -39 6 -11 -4 -14
3 -13 31 1 25 5 34 14 31 7 -3 23 -1 36 5 17 8 30 6 51 -5 16 -8 34 -12 41
-10 16 6 25 71 15 100 -5 11 -4 39 0 63 13 70 6 80 -54 80 -100 0 -103 1 -103
31 0 27 2 28 53 26 l53 -2 7 63 c3 34 4 70 0 78 -5 13 0 16 22 13 25 -3 27 -6
24 -39z m-146 -3 l-1 -35 -45 6 c-53 7 -46 3 -54 30 -6 19 -3 22 26 26 76 9
75 10 74 -27z m-97 -249 c0 -12 2 -35 3 -52 3 -29 2 -30 -42 -30 -44 0 -45 1
-42 30 1 17 3 39 3 50 1 17 9 21 39 22 32 2 38 -1 39 -20z m160 0 c0 -12 2
-35 3 -52 3 -29 2 -30 -42 -30 -44 0 -45 1 -42 30 1 17 3 39 3 50 1 17 9 21
39 22 32 2 38 -1 39 -20z"/>
</g>
</svg>
