<?xml version="1.0" standalone="no"?>
<!DOCTYPE svg PUBLIC "-//W3C//DTD SVG 20010904//EN"
 "http://www.w3.org/TR/2001/REC-SVG-20010904/DTD/svg10.dtd">
<svg version="1.0" xmlns="http://www.w3.org/2000/svg"
 width="101.000000pt" height="102.000000pt" viewBox="0 0 101.000000 102.000000"
 preserveAspectRatio="xMidYMid meet">
<metadata>
Created by potrace 1.16, written by Peter Selinger 2001-2019
</metadata>
<g transform="translate(0.000000,102.000000) scale(0.100000,-0.100000)"
fill="#000000" stroke="none">
<path d="M160 958 c-25 -71 -66 -143 -118 -206 l-35 -43 28 -29 c18 -19 35
-28 46 -25 12 4 17 0 18 -17 0 -13 3 -61 6 -109 4 -60 1 -97 -9 -126 -18 -50
-11 -61 34 -56 94 11 200 13 244 3 62 -13 69 -5 61 70 -6 55 -6 92 -2 248 2
89 -4 102 -50 102 -29 0 -29 4 7 69 17 30 30 56 30 57 0 2 -13 1 -30 -2 -17
-4 -36 -2 -43 5 -8 6 -34 10 -60 8 -39 -2 -44 0 -37 14 5 8 16 21 24 29 9 7
16 17 16 22 0 9 -76 47 -96 48 -6 0 -21 -28 -34 -62z m128 -152 c-23 -44 -40
-56 -85 -56 -23 0 -43 2 -43 4 0 3 9 20 20 38 17 30 23 33 69 34 47 0 49 -1
39 -20z m-63 -167 c0 -42 -2 -46 -25 -46 -23 0 -25 4 -25 46 0 42 2 46 25 46
23 0 25 -4 25 -46z m123 29 c1 -13 2 -34 4 -48 3 -21 -1 -24 -29 -26 -32 -2
-32 -1 -31 42 2 38 5 44 28 47 14 2 26 5 26 6 1 0 2 -9 2 -21z m-120 -172 c1
-12 2 -32 4 -46 3 -22 -1 -25 -32 -25 -31 0 -35 3 -32 25 2 14 3 34 4 46 0 16
7 21 28 21 21 0 28 -5 28 -21z m120 0 c1 -12 2 -32 4 -46 3 -22 -1 -25 -32
-25 -31 0 -35 3 -32 25 2 14 3 34 4 46 0 16 7 21 28 21 21 0 28 -5 28 -21z"/>
<path d="M658 1003 c-22 -5 -22 -14 -3 -60 8 -19 15 -36 15 -37 0 0 -47 -1
-105 -1 -100 0 -111 -3 -105 -30 8 -34 11 -229 5 -350 -8 -190 -33 -270 -107
-348 -21 -22 -37 -41 -36 -42 2 -2 23 -12 46 -24 51 -26 50 -26 99 66 15 29
31 53 34 53 4 0 12 -13 19 -30 7 -16 15 -30 18 -30 3 0 32 18 63 40 32 22 59
40 62 40 2 0 4 -17 3 -37 -1 -35 -3 -38 -34 -39 -18 -1 -35 -4 -37 -6 -3 -2 3
-23 12 -46 16 -41 18 -42 53 -38 77 9 96 34 85 114 -4 33 -2 53 8 66 14 19 15
18 32 -13 18 -36 93 -121 106 -121 4 0 22 14 40 32 l32 32 -29 21 c-15 11 -46
36 -67 56 l-40 35 44 32 c23 18 49 32 56 32 23 0 14 18 -22 46 l-36 27 -36
-43 -36 -42 -23 43 c-13 24 -23 47 -24 50 0 8 28 10 108 10 57 0 58 0 40 28
-9 15 -9 26 0 45 6 14 9 33 5 42 -5 13 -2 15 13 10 35 -10 50 13 46 67 -2 13
-8 16 -30 12 l-28 -5 7 53 c4 28 3 56 -2 62 -5 5 -44 9 -87 10 -70 0 -77 2
-77 20 0 19 7 20 108 20 95 0 108 2 113 18 12 38 -4 64 -43 71 -55 9 -108 7
-137 -4 -24 -9 -26 -7 -42 44 -17 55 -30 62 -86 49z m8 -195 c-1 -21 -5 -23
-42 -20 -28 3 -46 -1 -57 -13 -16 -15 -17 -14 -17 14 0 29 2 30 53 34 28 2 55
4 58 5 4 1 6 -8 5 -20z m-41 -106 c39 3 42 1 41 -20 -1 -28 -37 -39 -72 -24
-13 7 -31 9 -39 6 -12 -5 -15 3 -15 37 l0 43 21 -23 c17 -18 30 -22 64 -19z
m165 -2 c10 0 20 -9 23 -19 4 -17 0 -20 -32 -18 -30 1 -36 5 -37 25 -2 17 2
22 13 18 8 -3 23 -6 33 -6z m-135 -108 c6 -4 11 -19 12 -35 1 -27 1 -27 -52
-22 -46 4 -53 2 -58 -15 -13 -48 24 -81 65 -59 25 13 52 3 44 -16 -3 -8 -1
-26 6 -39 6 -14 7 -37 4 -52 -7 -27 -7 -27 -39 24 -32 53 -44 60 -76 42 -16
-8 -19 -3 -25 46 -3 31 -2 63 4 74 5 10 7 26 3 35 -5 14 -2 16 13 11 10 -3 26
-1 34 4 18 11 51 13 65 2z m172 -32 c0 -28 -2 -29 -42 -28 -38 2 -42 5 -42 28
0 23 4 26 42 28 40 1 42 0 42 -28z m-256 -219 l26 -49 -44 -21 c-24 -11 -45
-21 -47 -21 -2 0 3 21 11 48 9 26 16 57 15 70 0 34 10 27 39 -27z"/>
<path d="M327 303 c-5 -4 -62 -13 -118 -17 -25 -2 -56 -10 -67 -17 -16 -10
-26 -10 -45 -2 -14 7 -34 9 -45 7 -19 -5 -19 -8 -4 -57 8 -29 15 -53 16 -54 1
-1 19 2 39 8 20 5 52 12 70 15 17 3 43 7 57 10 39 8 72 13 113 18 48 6 49 6
53 55 3 40 3 40 -31 39 -19 -1 -36 -3 -38 -5z"/>
</g>
</svg>
