<?xml version="1.0" standalone="no"?>
<!DOCTYPE svg PUBLIC "-//W3C//DTD SVG 20010904//EN"
 "http://www.w3.org/TR/2001/REC-SVG-20010904/DTD/svg10.dtd">
<svg version="1.0" xmlns="http://www.w3.org/2000/svg"
 width="101.000000pt" height="102.000000pt" viewBox="0 0 101.000000 102.000000"
 preserveAspectRatio="xMidYMid meet">
<metadata>
Created by potrace 1.16, written by Peter Selinger 2001-2019
</metadata>
<g transform="translate(0.000000,102.000000) scale(0.100000,-0.100000)"
fill="#000000" stroke="none">
<path d="M168 947 c-18 -40 -60 -106 -94 -148 l-61 -76 27 -33 c15 -18 31 -31
36 -27 5 3 9 -62 9 -153 0 -148 1 -159 19 -164 11 -3 27 -1 37 5 11 5 76 7
157 4 l138 -5 -10 71 c-6 51 -6 81 3 104 6 18 11 73 10 123 l-2 91 -28 6 c-16
4 -38 3 -50 0 -19 -6 -20 -5 -8 17 6 12 27 47 45 76 19 29 34 54 34 55 0 2
-40 3 -90 2 -49 -1 -90 0 -90 1 0 2 14 19 31 39 18 20 30 37 28 39 -2 3 -27
14 -56 25 l-52 20 -33 -72z m106 -159 c-8 -15 -19 -30 -25 -34 -11 -7 -99 -12
-99 -6 0 2 11 18 24 35 21 28 31 32 69 32 l45 0 -14 -27z m-49 -164 c0 -40 -1
-42 -30 -41 -29 1 -30 2 -27 41 3 37 6 41 30 41 25 0 27 -3 27 -41z m130 2 c0
-43 -1 -44 -32 -43 -30 1 -32 3 -30 38 1 34 4 38 32 42 16 2 30 5 30 5 0 1 0
-18 0 -42z m-127 -130 c1 -11 2 -32 4 -46 3 -23 0 -25 -37 -25 -37 0 -40 2
-37 25 2 14 3 34 4 46 0 16 7 20 33 21 27 1 33 -3 33 -21z m130 0 c1 -11 2
-32 4 -46 3 -23 0 -25 -37 -25 -37 0 -40 2 -37 25 2 14 3 34 4 46 0 16 7 20
33 21 27 1 33 -3 33 -21z"/>
<path d="M638 1003 c-22 -6 -22 -5 2 -53 11 -22 20 -42 20 -46 0 -3 -43 -3
-96 1 -77 6 -98 5 -105 -6 -26 -41 4 -79 64 -80 23 0 36 -3 30 -6 -10 -3 -9
-11 2 -32 8 -16 16 -39 18 -52 5 -23 3 -24 -57 -24 l-63 0 1 -72 c0 -78 6 -86
60 -76 25 5 31 17 28 54 -1 11 7 17 21 18 12 1 47 3 77 6 30 3 92 2 136 -1
l82 -6 -2 -38 c-2 -42 10 -52 58 -43 17 4 28 14 32 30 10 37 -2 124 -17 134
-16 10 -63 12 -72 3 -9 -9 -77 -13 -77 -4 0 3 16 23 35 44 19 21 35 40 35 43
0 2 -10 7 -22 12 -20 7 -16 10 24 16 26 4 54 5 62 2 19 -7 29 22 21 56 -7 28
-30 41 -48 30 -7 -4 -40 -8 -75 -8 l-62 0 -10 35 c-6 19 -10 40 -10 46 0 19
-50 28 -92 17z m105 -202 c-2 -13 -12 -40 -23 -61 -16 -31 -23 -37 -44 -33
-15 3 -23 10 -20 18 3 8 -3 33 -14 57 l-19 43 63 0 c60 0 62 -1 57 -24z"/>
<path d="M648 607 c-31 -11 -31 -12 -14 -46 9 -16 16 -32 16 -34 0 -10 -123
-16 -139 -7 -40 21 -76 -12 -64 -60 4 -16 11 -18 47 -14 86 11 91 10 89 -11
-6 -87 -32 -153 -75 -191 -29 -27 -82 -54 -117 -60 -41 -8 -42 -16 -5 -58 l34
-39 52 24 c66 31 140 104 164 163 12 30 24 44 32 41 7 -3 23 0 34 6 11 6 35 8
54 4 31 -5 34 -9 29 -33 -16 -90 -18 -92 -82 -86 -24 2 -43 1 -43 -2 0 -4 8
-28 17 -54 16 -45 20 -48 48 -46 92 8 132 35 141 95 4 35 14 117 19 164 l4 37
-39 -6 c-37 -6 -109 -8 -156 -4 -30 3 -30 57 0 59 12 0 47 3 79 5 35 3 75 -1
96 -9 42 -15 60 -9 62 20 5 55 4 56 -73 55 -119 -2 -115 -4 -128 51 -13 52
-25 57 -82 36z"/>
<path d="M418 324 c-3 -3 -25 -8 -49 -10 -24 -3 -57 -8 -74 -10 -16 -2 -54 -6
-83 -8 -29 -2 -60 -10 -68 -17 -11 -9 -21 -9 -38 -1 -13 6 -33 8 -45 5 -18 -5
-20 -12 -17 -48 4 -59 12 -68 50 -60 17 4 38 8 46 9 8 1 25 6 38 10 13 4 40
10 60 12 20 3 48 7 62 9 14 2 42 6 62 9 96 11 104 17 99 71 -2 25 -29 44 -43
29z"/>
</g>
</svg>
