<?xml version="1.0" standalone="no"?>
<!DOCTYPE svg PUBLIC "-//W3C//DTD SVG 20010904//EN"
 "http://www.w3.org/TR/2001/REC-SVG-20010904/DTD/svg10.dtd">
<svg version="1.0" xmlns="http://www.w3.org/2000/svg"
 width="101.000000pt" height="102.000000pt" viewBox="0 0 101.000000 102.000000"
 preserveAspectRatio="xMidYMid meet">
<metadata>
Created by potrace 1.16, written by Peter Selinger 2001-2019
</metadata>
<g transform="translate(0.000000,102.000000) scale(0.100000,-0.100000)"
fill="#000000" stroke="none">
<path d="M171 978 c-20 -67 -70 -154 -118 -205 -23 -26 -43 -50 -43 -53 0 -11
61 -65 68 -60 8 6 10 -11 17 -130 3 -49 1 -105 -6 -133 -6 -26 -9 -51 -6 -54
8 -7 44 -6 92 2 73 13 205 4 205 -14 0 -4 -6 -8 -12 -8 -7 -1 -31 -4 -53 -8
-22 -4 -56 -8 -75 -10 -19 -1 -54 -8 -78 -15 -31 -10 -48 -10 -66 -2 -36 16
-68 5 -60 -22 4 -11 8 -32 10 -45 4 -35 16 -42 57 -30 20 5 52 12 70 15 17 3
43 7 57 10 34 7 75 13 108 17 16 2 34 7 40 11 7 4 12 5 12 2 0 -3 -24 -18 -52
-32 -29 -15 -54 -28 -56 -29 -2 -2 14 -19 35 -38 46 -43 46 -43 160 66 82 79
84 80 78 47 -3 -18 -8 -37 -11 -41 -2 -4 1 -19 8 -34 9 -21 9 -31 0 -46 -26
-40 -4 -62 51 -52 l25 5 0 136 c0 185 -1 179 32 179 21 0 28 -5 29 -21 0 -12
3 -47 5 -79 3 -36 -1 -75 -10 -99 -10 -29 -11 -45 -3 -59 5 -11 7 -29 4 -39
-7 -21 5 -25 55 -21 35 3 39 15 22 79 -11 43 -12 64 -4 85 6 16 8 36 6 45 -3
9 8 -8 26 -38 17 -30 50 -74 73 -98 l42 -42 32 37 c38 44 39 50 15 57 -39 13
-162 155 -162 187 0 4 24 6 54 5 l53 -2 1 45 c1 92 1 91 33 86 23 -4 29 -1 31
12 4 52 -11 77 -42 68 -12 -4 -15 6 -15 54 0 33 -3 62 -6 65 -3 3 -33 9 -67
12 -34 4 -62 10 -62 15 0 4 -2 14 -5 21 -4 11 6 14 47 12 125 -5 157 11 142
70 -6 25 -7 25 -95 23 l-88 -2 16 25 c9 14 25 35 36 47 l20 23 -36 15 c-41 17
-77 20 -77 5 0 -5 -9 -34 -20 -63 -18 -49 -23 -54 -45 -49 -14 2 -25 11 -25
20 0 19 -48 102 -59 102 -9 0 -74 -21 -79 -26 -2 -1 8 -20 22 -41 39 -57 35
-61 -38 -56 -58 5 -64 4 -70 -15 -4 -11 -4 -32 0 -46 7 -30 34 -40 91 -35 35
4 38 2 38 -21 0 -24 -3 -25 -47 -22 -43 4 -49 1 -57 -20 -7 -19 -10 -20 -16
-7 -5 13 -16 15 -51 11 -24 -2 -44 -1 -44 4 0 4 18 43 40 85 l39 76 -88 -1
-89 -1 16 29 c10 15 23 30 30 33 25 10 11 33 -29 43 -22 6 -46 13 -53 16 -8 3
-17 -11 -25 -38z m91 -191 c-25 -42 -33 -46 -79 -40 l-42 6 24 31 c20 27 30
31 68 31 l45 0 -16 -28z m423 -14 c0 -24 -4 -28 -31 -29 -24 0 -30 4 -30 20 1
15 10 23 31 27 17 4 30 7 30 8 0 0 0 -11 0 -26z m-189 -110 c50 2 50 2 51 -30
1 -32 1 -33 -40 -29 -23 2 -51 4 -62 5 -18 1 -20 6 -17 37 3 20 7 32 11 26 3
-6 29 -9 57 -9z m-278 -39 c1 -38 0 -41 -26 -41 -25 0 -27 3 -27 42 0 38 2 42
25 41 23 -1 26 -6 28 -42z m120 3 c1 -42 0 -44 -28 -44 -27 0 -29 3 -27 38 1
33 5 39 27 42 14 2 25 5 25 6 1 0 1 -18 3 -42z m349 9 c1 -32 -1 -34 -31 -33
-29 1 -33 4 -33 28 0 24 5 29 31 32 17 2 31 5 32 5 0 1 0 -13 1 -32z m130 -2
c1 -27 -2 -31 -27 -31 -25 0 -28 4 -27 32 1 28 4 32 27 31 22 -1 26 -6 27 -32z
m-261 -122 c2 -39 -15 -50 -51 -34 -29 13 -65 5 -66 -17 -1 -9 -5 2 -8 24 -5
33 -3 41 12 48 11 4 23 5 28 1 5 -3 17 0 26 5 34 20 57 9 59 -27z m131 -2 c0
-22 -5 -27 -27 -27 -22 0 -27 5 -27 27 0 22 5 27 27 27 22 0 27 -5 27 -27z
m130 -5 c1 -28 -2 -32 -27 -32 -25 0 -28 4 -27 32 1 27 5 32 27 32 22 0 26 -5
27 -32z m-599 -19 c1 -12 2 -32 4 -46 3 -22 -1 -25 -32 -25 -31 0 -35 3 -32
25 2 14 3 34 4 46 0 16 7 21 28 21 21 0 28 -5 28 -21z m120 0 c1 -12 2 -32 4
-46 3 -22 -1 -25 -32 -25 -31 0 -35 3 -32 25 2 14 3 34 4 46 0 16 7 21 28 21
21 0 28 -5 28 -21z m153 -83 c27 2 49 0 49 -4 0 -5 -29 -39 -64 -76 l-65 -68
3 38 c2 22 -1 37 -8 37 -7 0 -7 3 1 8 7 4 15 28 20 52 4 25 9 37 11 27 3 -15
12 -17 53 -14z"/>
</g>
</svg>
