<?xml version="1.0" standalone="no"?>
<!DOCTYPE svg PUBLIC "-//W3C//DTD SVG 20010904//EN"
 "http://www.w3.org/TR/2001/REC-SVG-20010904/DTD/svg10.dtd">
<svg version="1.0" xmlns="http://www.w3.org/2000/svg"
 width="101.000000pt" height="102.000000pt" viewBox="0 0 101.000000 102.000000"
 preserveAspectRatio="xMidYMid meet">
<metadata>
Created by potrace 1.16, written by Peter Selinger 2001-2019
</metadata>
<g transform="translate(0.000000,102.000000) scale(0.100000,-0.100000)"
fill="#000000" stroke="none">
<path d="M502 1009 c-26 -10 -26 -11 -7 -50 9 -16 13 -34 10 -39 -8 -13 -62
-13 -70 1 -4 5 -17 9 -28 8 -12 -2 -61 1 -109 5 -48 4 -101 5 -117 1 l-29 -6
3 -107 c6 -159 6 -167 -9 -342 -11 -124 -44 -221 -101 -296 l-25 -32 44 -26
c25 -14 47 -26 50 -26 19 0 97 188 112 270 12 68 27 195 27 226 -1 16 5 21 27
21 31 0 31 -3 30 -111 0 -38 -6 -66 -15 -76 -14 -15 -14 -21 0 -53 8 -21 19
-37 24 -37 10 0 10 -4 14 -126 1 -48 7 -87 15 -96 14 -17 77 -34 102 -29 8 2
101 4 205 5 215 1 222 3 255 73 11 24 20 46 20 50 0 6 -61 47 -91 61 -4 2 -10
-13 -13 -32 -6 -33 -26 -58 -50 -62 -6 -2 -36 -8 -67 -14 -48 -9 -154 -8 -248
2 -24 3 -51 32 -39 43 3 3 23 8 44 10 121 12 209 23 259 31 17 3 42 6 58 6 34
1 34 18 2 56 l-25 30 23 1 c130 7 151 14 167 56 22 58 21 59 -23 83 -31 16
-47 33 -56 58 -7 19 -18 37 -25 40 -7 3 -46 -4 -87 -16 -40 -11 -74 -20 -75
-20 -1 0 -2 16 -1 35 1 25 5 34 14 31 7 -3 24 0 38 6 19 8 31 7 57 -4 19 -9
48 -13 70 -11 33 5 38 9 43 37 4 17 5 58 3 91 l-3 60 -111 -4 -111 -3 0 28 c0
28 1 29 50 25 27 -1 54 2 60 8 14 14 75 14 117 0 26 -9 34 -9 41 2 26 42 -6
95 -50 85 -14 -4 -52 -6 -83 -6 -35 1 -58 -3 -58 -9 0 -6 -16 -11 -35 -11 -19
0 -35 5 -35 10 0 6 -20 10 -45 10 -45 0 -45 0 -56 44 -10 39 -14 45 -38 44
-15 -1 -37 -5 -49 -9z m-116 -181 c-1 -21 -5 -23 -67 -23 -60 0 -65 2 -61 20
3 17 13 20 67 23 60 2 63 1 61 -20z m209 -5 c0 -25 -12 -27 -77 -17 -22 4 -38
13 -41 23 -3 13 6 16 57 16 57 0 61 -2 61 -22z m-209 -119 c-1 -18 -7 -20 -66
-20 -58 1 -65 3 -66 21 -1 18 5 20 66 20 62 0 67 -2 66 -21z m210 2 c-1 -23
-4 -24 -62 -23 -52 2 -60 5 -56 19 3 12 17 18 46 21 22 2 48 4 57 5 12 1 16
-5 15 -22z m209 -1 c0 -31 -34 -43 -71 -27 -13 7 -30 9 -38 6 -11 -4 -13 0 -9
15 4 16 15 21 57 24 28 2 53 4 56 5 3 1 5 -9 5 -23z m-234 -82 c30 -5 29 -1
32 -143 1 -52 6 -100 10 -107 4 -6 21 -14 37 -18 30 -7 42 -24 18 -26 -7 0
-22 -2 -33 -4 -24 -4 -100 -15 -135 -19 -14 -2 -38 -7 -54 -11 -27 -7 -28 -7
-16 15 11 20 10 25 -6 37 -10 7 -14 14 -8 14 46 7 63 9 92 12 41 5 44 9 48 52
2 32 -4 40 -29 36 -4 -1 -24 -4 -45 -7 -20 -2 -49 -7 -63 -9 -22 -3 -26 0 -26
25 0 28 1 28 46 23 55 -6 113 -5 119 2 7 6 7 63 1 69 -3 3 -24 0 -47 -6 -31
-8 -50 -8 -67 0 -14 6 -31 9 -38 6 -10 -3 -14 4 -14 26 0 23 4 29 16 25 9 -2
23 0 31 5 15 10 84 11 131 3z m304 -141 c-10 -42 -28 -53 -81 -53 -88 -1 -107
4 -110 28 -3 18 3 24 33 32 20 6 39 8 43 6 3 -2 11 0 18 3 6 4 32 9 58 10 46
2 46 1 39 -26z m-135 -136 c0 -2 -11 -6 -25 -8 -13 -3 -22 -1 -19 3 5 9 44 13
44 5z"/>
</g>
</svg>
