<?xml version="1.0" standalone="no"?>
<!DOCTYPE svg PUBLIC "-//W3C//DTD SVG 20010904//EN"
 "http://www.w3.org/TR/2001/REC-SVG-20010904/DTD/svg10.dtd">
<svg version="1.0" xmlns="http://www.w3.org/2000/svg"
 width="101.000000pt" height="102.000000pt" viewBox="0 0 101.000000 102.000000"
 preserveAspectRatio="xMidYMid meet">
<metadata>
Created by potrace 1.16, written by Peter Selinger 2001-2019
</metadata>
<g transform="translate(0.000000,102.000000) scale(0.100000,-0.100000)"
fill="#000000" stroke="none">
<path d="M690 974 c-89 -45 -118 -55 -185 -59 -22 -1 -66 -6 -98 -10 -41 -6
-65 -4 -81 5 -13 7 -45 11 -70 9 -27 -3 -46 0 -46 6 0 6 57 10 155 10 161 -1
173 3 160 44 -4 14 -31 16 -203 18 l-199 2 -1 -34 c-1 -19 3 -37 8 -40 11 -7
13 -52 4 -106 -6 -35 -8 -36 -44 -33 -31 3 -39 0 -43 -17 -12 -46 14 -62 82
-49 50 9 44 -5 -10 -21 -30 -10 -38 -16 -33 -28 3 -9 8 -24 11 -33 4 -13 14
-16 42 -14 20 2 43 7 52 11 10 3 20 2 24 -4 3 -6 0 -11 -8 -11 -17 0 -28 -32
-17 -50 10 -17 97 -14 143 5 29 12 66 -2 64 -25 -1 -14 -11 -22 -32 -25 -30
-6 -154 0 -210 9 -79 13 -91 11 -98 -15 -10 -36 1 -48 41 -42 84 11 151 13
220 7 84 -7 88 -13 12 -19 -29 -2 -56 -8 -59 -13 -8 -14 -113 -41 -181 -47
-70 -7 -78 -15 -50 -53 25 -33 25 -33 158 10 60 19 64 19 82 3 10 -9 29 -16
42 -16 24 2 174 2 288 2 163 -2 198 6 223 48 l17 29 -36 21 c-40 24 -42 24
-47 -5 -1 -10 -6 -24 -10 -30 -10 -17 -93 -27 -116 -15 -13 8 -28 8 -46 1 -24
-9 -95 -13 -169 -9 -21 1 -25 4 -17 12 7 7 54 13 114 14 227 6 218 4 202 44
-7 19 -5 20 125 21 87 2 101 7 93 38 -6 21 -48 31 -80 19 -21 -8 -124 -13
-182 -9 -17 1 3 15 68 46 51 24 96 43 99 43 41 -6 42 20 2 49 -16 12 -31 22
-34 22 -3 0 -40 -23 -83 -50 -59 -38 -79 -46 -81 -35 -2 8 -8 15 -13 15 -5 0
-9 5 -9 10 0 6 5 10 10 10 6 0 61 23 123 51 61 28 121 52 132 54 11 1 23 3 28
4 18 3 4 42 -23 61 l-29 21 -67 -40 c-66 -40 -157 -75 -223 -86 -51 -9 -54
-14 -26 -47 31 -37 21 -58 -20 -40 -13 6 -32 9 -40 6 -21 -8 -19 16 3 32 16
12 15 14 -10 41 l-27 28 44 -2 c36 -1 45 2 50 17 5 16 9 17 25 8 21 -14 58 0
228 80 l94 44 -28 29 c-15 16 -31 29 -35 29 -3 0 -33 -16 -65 -35 -66 -40
-158 -77 -191 -77 -13 0 -27 -6 -33 -13 -17 -20 -50 -7 -47 19 2 23 -8 24
-102 10 -26 -4 -52 -2 -65 5 -11 6 -44 10 -72 9 -30 -2 -51 1 -51 7 0 6 53 10
144 10 118 0 144 3 149 15 4 12 11 8 29 -15 l24 -29 120 52 c66 29 126 52 134
52 7 0 22 7 33 15 18 15 18 16 -11 40 -16 14 -37 24 -45 23 -8 0 -53 -21 -100
-44z m-298 -165 c46 -10 50 -13 30 -20 -13 -5 -65 -8 -115 -6 -81 2 -93 4 -93
20 0 14 10 17 63 17 34 0 86 -5 115 -11z m2 -100 c8 -9 8 -10 -1 -5 -7 4 -29
-1 -48 -10 -29 -13 -41 -14 -60 -6 -18 8 -33 8 -52 1 -31 -12 -26 -3 13 20 31
19 130 19 148 0z m8 -71 c-2 -10 -7 -18 -11 -19 -58 -9 -131 -6 -147 6 -21 16
-24 15 48 19 15 1 30 5 34 8 3 4 23 6 44 5 30 -1 36 -4 32 -19z m168 -77 c24
-3 -12 -20 -52 -25 -27 -4 -34 -1 -35 13 -2 18 17 20 87 12z m105 -81 c17 -7
16 -8 -10 -9 -43 0 -115 -8 -150 -15 -23 -5 -21 -3 9 9 21 8 42 12 47 9 5 -3
17 0 26 5 21 12 51 13 78 1z"/>
<path d="M219 333 c-21 -5 -31 -40 -19 -63 10 -19 7 -105 -5 -157 -8 -36 -3
-39 60 -34 32 3 46 16 38 37 -5 14 3 15 147 15 326 -1 293 2 286 -25 -7 -28
11 -36 62 -28 27 4 31 7 26 27 -3 13 -1 32 5 43 7 14 8 29 2 45 -5 14 -6 40
-1 61 4 20 6 46 3 57 -5 19 -10 20 -47 13 -23 -4 -65 -7 -93 -6 -29 1 -81 1
-115 1 -35 0 -106 0 -158 0 -96 -1 -148 3 -166 13 -5 2 -16 3 -25 1z m413 -53
c91 0 97 -1 95 -20 -1 -18 -8 -20 -97 -20 -52 0 -142 0 -200 -1 -144 0 -146 0
-147 23 -1 14 3 17 15 14 9 -3 24 -1 32 4 8 5 57 7 110 4 52 -2 139 -4 192 -4z
m0 -70 c91 0 97 -1 95 -20 -1 -18 -8 -20 -97 -20 -52 0 -142 0 -200 -1 -144 0
-146 0 -147 23 -1 14 3 17 15 14 9 -3 24 -1 32 4 8 5 57 7 110 4 52 -2 139 -4
192 -4z"/>
</g>
</svg>
