<?xml version="1.0" standalone="no"?>
<!DOCTYPE svg PUBLIC "-//W3C//DTD SVG 20010904//EN"
 "http://www.w3.org/TR/2001/REC-SVG-20010904/DTD/svg10.dtd">
<svg version="1.0" xmlns="http://www.w3.org/2000/svg"
 width="101.000000pt" height="101.000000pt" viewBox="0 0 101.000000 101.000000"
 preserveAspectRatio="xMidYMid meet">
<metadata>
Created by potrace 1.16, written by Peter Selinger 2001-2019
</metadata>
<g transform="translate(0.000000,101.000000) scale(0.100000,-0.100000)"
fill="#000000" stroke="none">
<path d="M228 938 c-42 -86 -114 -185 -169 -231 -21 -19 -39 -38 -39 -43 1 -5
17 -20 38 -32 l36 -24 24 29 c13 15 22 23 19 18 -3 -6 -2 -17 3 -25 11 -18
132 -18 138 -1 5 15 52 14 52 0 0 -7 12 -9 35 -5 19 4 43 2 54 -4 34 -18 68
41 43 75 -4 6 -63 10 -144 10 -135 0 -137 0 -122 20 8 11 31 44 51 73 20 28
39 52 43 52 10 0 156 -104 188 -133 l22 -21 35 34 c19 19 35 37 35 40 0 3 -53
37 -117 74 -65 38 -120 71 -123 73 -3 3 5 13 18 24 13 10 20 24 17 30 -8 12
-67 39 -87 39 -8 0 -30 -33 -50 -72z"/>
<path d="M588 943 c-17 -4 -24 -22 -19 -53 1 -8 2 -27 2 -42 -1 -15 3 -29 9
-33 12 -7 12 -173 -1 -180 -12 -8 -12 -142 1 -150 13 -8 13 -52 0 -60 -7 -4
-10 -55 -8 -138 1 -73 -1 -141 -5 -152 -13 -38 8 -50 78 -47 29 2 30 3 27 50
-1 26 -2 88 -2 137 1 404 1 395 3 493 l2 82 31 0 c17 0 45 3 62 6 29 6 31 5
26 -20 -2 -15 -22 -76 -44 -137 l-40 -111 42 -47 c22 -25 51 -68 63 -96 20
-43 22 -60 16 -106 -2 -13 -49 -25 -93 -23 -49 3 -59 -4 -34 -26 8 -6 20 -27
26 -45 15 -46 42 -50 115 -15 66 31 95 72 95 130 0 40 -43 134 -90 196 l-39
52 33 99 c19 54 45 129 60 167 l26 69 -37 -7 c-87 -15 -143 -18 -155 -8 -8 6
-36 10 -64 9 -27 0 -54 2 -60 4 -5 3 -17 4 -26 2z"/>
<path d="M126 545 c-16 -16 -21 -121 -6 -130 11 -7 12 -112 1 -197 -8 -64 -8
-63 59 -58 38 2 50 13 50 48 0 19 5 22 43 22 23 0 58 3 78 6 35 6 36 5 33 -22
-3 -33 9 -44 51 -44 53 0 53 1 42 174 -8 122 -8 161 1 164 17 5 15 39 -4 46
-8 3 -31 -1 -51 -9 -38 -16 -169 -21 -175 -7 -1 5 -27 12 -55 15 -39 4 -56 2
-67 -8z m259 -147 l0 -73 -83 0 -84 0 6 35 c3 19 6 49 6 67 l0 32 73 4 c39 1
74 4 77 5 3 1 5 -31 5 -70z"/>
</g>
</svg>
