<?xml version="1.0" standalone="no"?>
<!DOCTYPE svg PUBLIC "-//W3C//DTD SVG 20010904//EN"
 "http://www.w3.org/TR/2001/REC-SVG-20010904/DTD/svg10.dtd">
<svg version="1.0" xmlns="http://www.w3.org/2000/svg"
 width="101.000000pt" height="102.000000pt" viewBox="0 0 101.000000 102.000000"
 preserveAspectRatio="xMidYMid meet">
<metadata>
Created by potrace 1.16, written by Peter Selinger 2001-2019
</metadata>
<g transform="translate(0.000000,102.000000) scale(0.100000,-0.100000)"
fill="#000000" stroke="none">
<path d="M571 1011 c-10 -7 -11 -13 -1 -30 29 -55 28 -56 -101 -55 l-118 2 -6
-29 c-12 -53 1 -69 56 -69 27 0 49 5 49 10 0 6 11 10 25 10 14 0 25 -4 25 -10
0 -6 30 -10 70 -10 40 0 70 4 70 10 0 6 11 10 25 10 14 0 25 -4 25 -10 0 -5
23 -10 50 -10 30 0 50 4 50 11 0 8 26 10 80 7 71 -3 81 -1 86 15 3 10 3 28 0
40 -5 21 -10 22 -136 22 -71 0 -131 3 -131 8 -1 4 -3 10 -4 15 -1 4 -6 22 -10
40 -7 30 -10 32 -49 32 -22 0 -47 -4 -55 -9z"/>
<path d="M162 948 c0 -32 3 -60 8 -63 12 -8 11 -173 -1 -180 -12 -8 -12 -142
1 -150 13 -8 13 -52 0 -60 -13 -8 -12 -203 3 -225 8 -15 8 -39 -1 -101 -6 -46
-9 -85 -6 -88 10 -10 87 -2 95 10 4 7 3 22 -1 35 -5 12 -6 79 -3 148 4 92 3
126 -5 126 -7 0 -12 18 -12 45 0 25 5 45 10 45 6 0 10 30 10 70 0 40 -4 70
-10 70 -6 0 -10 32 -10 75 0 41 4 75 9 75 10 0 41 -72 41 -98 0 -39 15 -47 59
-32 23 7 41 15 41 18 0 3 -14 36 -31 74 -33 70 -40 75 -84 58 l-27 -10 7 77
c3 43 8 92 10 108 l5 30 -53 0 -54 0 -1 -57z"/>
<path d="M418 813 c-24 -6 -29 -33 -26 -138 3 -76 6 -91 21 -97 10 -5 26 -4
35 0 9 5 51 8 92 6 41 -2 79 1 85 6 17 14 141 11 178 -5 18 -7 43 -12 54 -9
20 5 21 14 22 119 l1 113 -35 6 c-19 4 -43 3 -52 -2 -17 -9 -261 -7 -328 2
-16 3 -38 2 -47 -1z m367 -118 c0 -34 -1 -34 -53 -41 -33 -4 -57 -2 -66 5 -8
7 -44 10 -92 9 l-79 -3 -1 27 -1 27 96 4 c53 1 119 4 146 5 l50 2 0 -35z"/>
<path d="M67 789 c-11 -7 -17 -22 -17 -42 1 -36 -5 -85 -13 -107 -3 -8 -5 -22
-4 -30 0 -9 -2 -27 -6 -40 -6 -24 -4 -25 38 -27 49 -2 62 11 64 57 1 24 4 48
15 146 5 37 3 43 -17 48 -30 8 -39 7 -60 -5z"/>
<path d="M379 543 c-20 -5 -28 -31 -22 -66 4 -23 9 -25 41 -20 80 11 131 12
232 6 l105 -6 -67 -20 c-66 -19 -72 -25 -71 -64 1 -24 -91 -27 -238 -9 -52 7
-60 -3 -52 -60 4 -28 8 -30 36 -27 79 10 175 13 213 8 l41 -6 -1 -47 c-1 -44
-3 -47 -26 -44 -37 4 -71 5 -75 0 -2 -2 6 -24 18 -50 23 -49 47 -64 79 -47 10
5 22 8 26 5 5 -3 22 3 38 13 26 16 29 24 31 72 4 95 4 97 27 99 11 1 74 2 138
3 114 2 117 3 121 25 10 54 -26 82 -80 61 -35 -13 -211 -14 -198 0 4 3 52 22
108 42 96 35 102 39 108 69 4 17 4 40 2 51 -5 17 -10 19 -37 12 -17 -4 -55 -7
-83 -6 -59 3 -132 3 -273 0 -52 0 -102 2 -110 5 -8 3 -22 4 -31 1z"/>
</g>
</svg>
