<?xml version="1.0" standalone="no"?>
<!DOCTYPE svg PUBLIC "-//W3C//DTD SVG 20010904//EN"
 "http://www.w3.org/TR/2001/REC-SVG-20010904/DTD/svg10.dtd">
<svg version="1.0" xmlns="http://www.w3.org/2000/svg"
 width="101.000000pt" height="102.000000pt" viewBox="0 0 101.000000 102.000000"
 preserveAspectRatio="xMidYMid meet">
<metadata>
Created by potrace 1.16, written by Peter Selinger 2001-2019
</metadata>
<g transform="translate(0.000000,102.000000) scale(0.100000,-0.100000)"
fill="#000000" stroke="none">
<path d="M450 1005 c0 -8 5 -15 11 -15 6 0 9 -16 7 -37 l-3 -38 -102 4 c-72 2
-103 0 -103 -8 0 -6 -16 -11 -35 -11 -19 0 -35 5 -35 10 0 6 -26 10 -59 10
-66 0 -76 -10 -65 -65 l6 -33 191 1 192 2 0 -25 0 -25 -120 2 c-66 1 -132 0
-148 -3 -32 -7 -45 -43 -28 -81 10 -21 16 -24 39 -19 15 4 55 7 89 7 34 -1 65
4 68 9 7 12 148 14 159 3 4 -5 84 -8 177 -8 184 0 188 1 174 58 -5 19 -15 27
-42 32 -21 4 -40 2 -46 -4 -14 -14 -54 -14 -62 0 -4 6 -37 9 -84 7 -75 -3 -77
-2 -73 20 5 23 27 27 155 22 26 -1 55 4 62 10 11 9 37 10 89 5 69 -6 75 -5 80
13 17 52 -19 92 -66 75 -13 -4 -91 -8 -173 -8 l-150 0 2 53 2 52 -54 0 c-42 0
-55 -3 -55 -15z"/>
<path d="M76 651 c-4 -6 -6 -49 -4 -96 2 -67 6 -85 18 -86 34 -4 85 4 91 13 3
5 9 -4 12 -21 6 -30 8 -31 49 -27 24 2 51 7 61 11 29 12 65 -2 66 -27 6 -84 5
-208 -2 -215 -9 -8 -206 -9 -264 -1 -36 5 -43 -7 -35 -60 4 -30 5 -31 46 -26
22 4 84 6 136 6 52 -1 124 -1 160 -1 142 0 271 -2 392 -4 l126 -2 5 29 c7 51
-2 67 -32 58 -22 -6 -165 -7 -248 -1 -28 1 -35 37 -28 129 3 36 6 75 6 86 1
15 8 22 23 23 69 5 94 4 119 -3 23 -7 27 -5 27 12 0 22 16 39 22 22 3 -10 26
-14 73 -12 l30 2 1 93 c1 96 -5 111 -40 97 -38 -14 -173 -22 -180 -11 -4 7
-106 10 -294 10 -158 0 -297 3 -308 6 -12 4 -25 2 -28 -4z m670 -83 c79 1 91
-9 71 -58 -9 -22 -11 -23 -14 -7 -4 17 -12 18 -94 12 -63 -5 -89 -4 -89 4 0 6
-17 11 -40 11 -22 0 -40 -4 -40 -10 0 -15 -157 -13 -164 3 -5 10 -7 10 -12 0
-7 -15 -74 -18 -74 -3 0 17 -78 12 -88 -6 -10 -19 -21 -8 -27 29 l-4 22 196
-2 c115 -1 203 2 212 7 9 6 34 7 56 4 22 -3 72 -6 111 -6z m-207 -151 c0 -12
3 -51 6 -87 3 -36 3 -79 0 -97 -5 -30 -8 -32 -45 -30 -36 1 -40 4 -45 32 -3
16 -3 59 0 95 3 36 6 74 6 85 1 17 9 21 39 22 32 2 38 -1 39 -20z"/>
<path d="M705 343 c-22 -42 -41 -80 -43 -84 -3 -6 78 -43 83 -37 1 2 17 32 35
67 19 35 40 65 47 68 27 10 12 32 -34 47 -26 9 -47 16 -47 16 -1 0 -19 -35
-41 -77z"/>
<path d="M213 399 c-18 -5 -33 -11 -33 -13 0 -2 11 -28 25 -58 14 -29 25 -61
25 -71 0 -10 6 -20 14 -23 16 -6 96 14 96 24 0 4 -15 40 -32 79 -34 76 -38 78
-95 62z"/>
</g>
</svg>
