<?xml version="1.0" standalone="no"?>
<!DOCTYPE svg PUBLIC "-//W3C//DTD SVG 20010904//EN"
 "http://www.w3.org/TR/2001/REC-SVG-20010904/DTD/svg10.dtd">
<svg version="1.0" xmlns="http://www.w3.org/2000/svg"
 width="101.000000pt" height="101.000000pt" viewBox="0 0 101.000000 101.000000"
 preserveAspectRatio="xMidYMid meet">
<metadata>
Created by potrace 1.16, written by Peter Selinger 2001-2019
</metadata>
<g transform="translate(0.000000,101.000000) scale(0.100000,-0.100000)"
fill="#000000" stroke="none">
<path d="M348 919 c3 -38 0 -59 -7 -59 -6 0 -11 -18 -11 -40 0 -22 5 -40 10
-40 6 0 10 -33 10 -80 0 -48 -4 -80 -10 -80 -9 0 -12 -37 -10 -150 0 -30 -3
-35 -22 -36 -13 0 -35 -4 -50 -8 -23 -7 -27 -5 -31 21 -3 15 -4 51 -1 78 2 28
4 59 5 70 1 17 9 21 42 22 46 2 58 15 55 58 -3 29 -5 30 -50 29 l-47 0 2 88
c2 79 4 87 20 82 29 -9 76 6 82 27 4 10 3 29 0 40 -7 21 -11 21 -106 15 -71
-5 -103 -3 -118 6 -30 19 -71 -3 -71 -39 0 -45 13 -56 61 -52 l44 4 0 -85 0
-85 -43 0 c-43 -1 -62 -14 -62 -45 0 -32 18 -44 63 -42 51 2 47 12 50 -125 1
-45 0 -84 -3 -87 -3 -2 -17 -7 -30 -9 -80 -15 -80 -16 -76 -64 5 -57 15 -67
52 -49 16 8 67 26 114 39 57 17 86 30 88 41 2 9 7 16 12 16 17 0 -31 -116 -70
-167 l-39 -52 46 -21 c25 -11 49 -20 53 -20 13 0 68 122 86 190 9 36 19 94 20
130 5 107 6 110 14 110 5 0 11 -8 14 -17 7 -24 1 -214 -8 -234 -9 -20 16 -28
62 -21 31 4 32 5 24 46 -6 34 -7 182 -1 263 2 28 36 27 38 -2 3 -37 2 -218 -1
-337 -4 -129 -3 -130 61 -120 31 4 33 7 28 36 -18 96 -18 101 -3 121 15 20 15
20 16 -2 0 -27 9 -28 54 -9 46 19 54 38 44 102 -8 53 -6 154 7 261 l6 51 -63
-1 -63 -2 0 36 0 36 46 -5 c54 -5 82 15 77 57 -2 20 -8 25 -23 22 -58 -10
-127 -12 -138 -3 -7 6 -45 10 -85 10 -40 0 -74 1 -76 3 -2 2 -6 15 -9 29 l-6
25 82 2 c109 2 150 2 223 0 l61 -2 -5 -190 c-2 -104 -4 -215 -3 -245 1 -30 3
-86 4 -125 5 -150 74 -249 131 -186 18 19 56 111 56 134 0 8 -18 25 -40 40
-29 19 -40 22 -40 11 0 -22 -17 -16 -23 9 -9 35 7 530 18 587 10 48 -2 52
-110 39 -69 -8 -108 -9 -129 -1 -17 5 -92 10 -166 10 l-135 0 3 -59z m194
-202 c3 -32 2 -33 -27 -29 -16 2 -45 4 -63 5 -22 1 -31 6 -27 15 3 8 5 20 5
28 0 10 14 14 54 14 54 0 54 0 58 -33z m137 -132 c0 -11 3 -57 6 -101 6 -93
-3 -129 -34 -131 -26 -2 -34 35 -26 137 3 41 6 85 6 96 2 29 46 28 48 -1z"/>
</g>
</svg>
