<?xml version="1.0" standalone="no"?>
<!DOCTYPE svg PUBLIC "-//W3C//DTD SVG 20010904//EN"
 "http://www.w3.org/TR/2001/REC-SVG-20010904/DTD/svg10.dtd">
<svg version="1.0" xmlns="http://www.w3.org/2000/svg"
 width="101.000000pt" height="101.000000pt" viewBox="0 0 101.000000 101.000000"
 preserveAspectRatio="xMidYMid meet">
<metadata>
Created by potrace 1.16, written by Peter Selinger 2001-2019
</metadata>
<g transform="translate(0.000000,101.000000) scale(0.100000,-0.100000)"
fill="#000000" stroke="none">
<path d="M165 976 c-4 -19 -2 -43 4 -54 12 -22 14 -64 5 -97 -4 -16 -13 -20
-47 -18 -23 1 -50 4 -59 8 -22 9 -41 -27 -33 -63 5 -26 8 -27 60 -24 42 3 56
0 61 -11 9 -24 -44 -145 -98 -226 -27 -40 -46 -76 -41 -80 4 -3 23 -19 40 -35
l33 -29 39 83 c46 97 44 105 42 -146 -1 -171 0 -182 18 -187 28 -7 69 3 75 19
3 8 2 24 -3 37 -15 39 -24 167 -12 167 6 0 11 18 11 40 0 22 -4 40 -10 40 -5
0 -10 16 -10 35 0 19 5 35 10 35 6 0 10 26 11 58 l1 57 19 -42 20 -42 34 16
c19 9 35 21 35 26 0 16 -64 127 -73 127 -5 0 -16 -4 -26 -10 -16 -8 -17 -5
-14 18 8 49 12 57 25 44 7 -7 23 -12 38 -12 21 -1 23 -2 8 -11 -16 -9 -16 -11
0 -27 10 -10 26 -29 35 -42 l16 -23 72 41 c66 39 73 41 84 25 8 -11 10 -24 5
-33 -12 -22 -60 -65 -60 -54 0 5 -7 17 -14 27 -13 17 -17 17 -51 3 l-37 -16
22 -30 c12 -17 20 -37 17 -44 -3 -7 -34 -28 -70 -46 l-64 -34 34 -33 c36 -37
37 -37 100 14 l43 34 10 -26 10 -26 31 18 c38 22 44 35 29 62 -9 18 -6 27 16
57 27 35 43 35 48 -2 4 -26 -48 -96 -119 -161 -55 -50 -180 -123 -211 -123
-22 0 -17 -11 22 -51 36 -37 37 -37 63 -21 63 40 151 112 212 174 74 75 71 77
70 -31 0 -61 -16 -107 -41 -121 -9 -5 -38 -7 -63 -5 -46 5 -56 -1 -38 -20 5
-6 14 -27 21 -49 12 -38 13 -38 54 -32 106 17 156 78 155 186 0 36 1 74 2 85
2 22 -2 46 -21 115 -19 68 -18 86 0 98 15 9 18 7 18 -11 2 -93 74 -279 133
-345 l30 -33 41 41 40 42 -50 52 c-60 60 -104 143 -104 194 0 21 -2 41 -6 46
-3 5 -6 22 -7 38 -2 24 4 32 40 53 23 14 49 25 58 25 10 0 17 6 17 14 0 15
-64 76 -80 76 -5 0 -36 -24 -69 -53 -33 -29 -73 -60 -89 -69 l-28 -17 -35 47
-35 47 64 59 c59 55 67 60 115 62 29 1 64 -2 79 -8 44 -17 75 -3 82 36 11 59
7 61 -123 64 -71 2 -122 -1 -125 -7 -8 -12 -173 -14 -181 -1 -7 11 -85 11
-107 -1 -23 -12 -23 -62 -1 -84 13 -13 28 -16 72 -11 31 3 75 6 98 8 l42 3
-29 -30 c-16 -17 -53 -45 -82 -62 -61 -37 -144 -73 -116 -50 27 21 33 70 13
90 -9 10 -21 15 -25 12 -5 -3 -31 -7 -57 -8 l-48 -3 3 55 c2 31 5 74 5 96 l2
40 -37 -3 c-23 -2 -38 1 -38 7 0 26 -20 8 -25 -23z"/>
</g>
</svg>
