<?xml version="1.0" standalone="no"?>
<!DOCTYPE svg PUBLIC "-//W3C//DTD SVG 20010904//EN"
 "http://www.w3.org/TR/2001/REC-SVG-20010904/DTD/svg10.dtd">
<svg version="1.0" xmlns="http://www.w3.org/2000/svg"
 width="101.000000pt" height="101.000000pt" viewBox="0 0 101.000000 101.000000"
 preserveAspectRatio="xMidYMid meet">
<metadata>
Created by potrace 1.16, written by Peter Selinger 2001-2019
</metadata>
<g transform="translate(0.000000,101.000000) scale(0.100000,-0.100000)"
fill="#000000" stroke="none">
<path d="M199 1002 c-13 -6 -16 -23 -14 -102 l2 -95 -68 1 c-67 1 -68 1 -74
-27 -10 -46 2 -68 42 -75 20 -4 49 -2 64 3 l27 11 -15 -52 c-21 -72 -68 -171
-108 -228 l-35 -48 37 -40 38 -40 42 83 c37 72 42 78 44 52 1 -16 1 -34 0 -39
-1 -4 2 -13 8 -20 14 -17 12 -140 -3 -178 -7 -18 -11 -49 -9 -70 5 -39 22 -49
65 -41 25 5 25 6 21 100 -2 64 0 100 8 109 9 11 9 18 1 26 -15 15 -16 75 -1
83 6 4 10 26 9 49 -1 22 -1 57 0 76 l1 35 27 -52 c23 -45 30 -50 45 -41 10 5
20 8 23 5 12 -11 27 -210 19 -254 -5 -28 -9 -31 -40 -30 -42 1 -48 -5 -48 -43
0 -36 5 -42 35 -41 13 1 68 2 123 2 55 0 129 0 165 0 36 1 124 1 197 1 l131 0
5 25 c8 45 -2 63 -33 58 -27 -5 -28 -3 -34 43 -8 64 -5 173 5 193 4 9 6 25 3
36 -6 22 -7 22 -194 22 -320 0 -312 0 -305 11 3 5 -14 41 -37 80 -38 63 -46
71 -68 66 -23 -4 -25 -2 -25 35 l0 39 42 0 c23 0 45 -4 48 -10 19 -30 40 13
30 60 -6 28 -8 29 -65 27 l-58 -2 3 75 c2 41 6 82 10 91 4 12 -1 18 -17 21
-13 3 -30 8 -38 11 -8 3 -22 3 -31 -1z m330 -606 c1 -11 3 -46 6 -76 2 -30 2
-69 -1 -87 -4 -28 -8 -31 -39 -30 -31 1 -35 4 -40 31 -2 17 -2 56 0 86 3 30 5
64 6 76 1 16 8 20 34 21 27 1 33 -3 34 -21z m140 0 c1 -11 3 -46 6 -76 2 -30
2 -69 -1 -87 -4 -28 -8 -31 -39 -30 -31 1 -35 4 -40 31 -2 17 -2 56 0 86 3 30
5 64 6 76 1 16 8 20 34 21 27 1 33 -3 34 -21z m140 0 c1 -11 3 -46 6 -76 2
-30 2 -69 -1 -87 -4 -28 -8 -31 -39 -30 -31 1 -35 4 -40 31 -2 17 -2 56 0 86
3 30 5 64 6 76 1 16 8 20 34 21 27 1 33 -3 34 -21z"/>
<path d="M415 940 c-3 -11 -3 -30 1 -42 9 -28 8 -239 -1 -288 -8 -48 5 -62 62
-67 37 -4 53 -1 65 11 20 19 74 21 82 4 5 -10 7 -10 12 0 7 15 133 16 187 1
22 -6 42 -8 45 -4 4 3 6 36 5 73 -3 101 -2 138 1 237 l4 90 -139 2 c-87 2
-139 -1 -139 -7 0 -6 -16 -10 -35 -10 -19 0 -35 5 -35 10 0 6 -24 10 -54 10
-46 0 -56 -3 -61 -20z m357 -112 c2 -25 -1 -39 -10 -43 -24 -9 -121 -5 -127 5
-4 6 -32 9 -63 8 l-57 -3 0 35 0 35 127 0 126 0 4 -37z m3 -147 l0 -39 -70 -7
c-47 -4 -71 -3 -73 4 -2 6 -28 11 -58 11 -40 0 -54 4 -54 14 0 8 -3 21 -6 30
-6 16 2 17 206 24 l55 2 0 -39z"/>
</g>
</svg>
