<?xml version="1.0" standalone="no"?>
<!DOCTYPE svg PUBLIC "-//W3C//DTD SVG 20010904//EN"
 "http://www.w3.org/TR/2001/REC-SVG-20010904/DTD/svg10.dtd">
<svg version="1.0" xmlns="http://www.w3.org/2000/svg"
 width="101.000000pt" height="101.000000pt" viewBox="0 0 101.000000 101.000000"
 preserveAspectRatio="xMidYMid meet">
<metadata>
Created by potrace 1.16, written by Peter Selinger 2001-2019
</metadata>
<g transform="translate(0.000000,101.000000) scale(0.100000,-0.100000)"
fill="#000000" stroke="none">
<path d="M795 994 c-18 -9 -47 -13 -83 -10 -31 3 -63 1 -73 -5 -30 -16 -137
-23 -152 -10 -8 6 -25 10 -38 10 -13 -1 -28 -1 -34 1 -5 1 -17 2 -27 1 -15 -1
-14 -6 5 -50 11 -28 25 -49 31 -48 6 1 10 -4 8 -11 -1 -7 9 -32 23 -56 14 -23
25 -45 25 -48 0 -3 -29 -3 -64 -1 l-64 6 -7 -31 c-3 -18 -1 -40 5 -52 11 -20
18 -22 83 -18 l70 4 -52 -47 c-28 -25 -75 -59 -104 -74 -29 -15 -53 -29 -55
-30 -1 -1 14 -19 34 -39 28 -28 39 -34 54 -26 21 11 20 17 23 -135 1 -55 -2
-128 -6 -161 -9 -69 -2 -76 61 -66 29 4 31 7 27 32 -4 23 -1 28 18 29 12 1 49
3 82 6 33 3 93 3 132 -1 l73 -6 -6 -33 c-6 -37 7 -45 68 -37 l38 4 -7 40 c-5
36 -8 271 -3 325 2 19 5 21 22 12 11 -6 21 -9 22 -7 19 27 45 81 42 87 -3 4
-22 13 -43 20 -41 13 -144 80 -150 97 -2 5 33 9 82 9 93 0 103 6 89 59 -7 31
-36 41 -100 33 -24 -2 -44 -1 -44 2 0 4 16 24 35 45 19 21 35 42 35 46 0 4
-14 13 -32 21 -27 11 -29 14 -12 20 10 4 34 8 52 8 37 1 37 2 18 40 -28 54
-58 67 -101 45z m-11 -96 c-25 -46 -89 -138 -96 -138 -4 0 -7 31 -5 68 2 67 2
68 29 64 14 -2 34 1 45 7 24 14 36 14 27 -1z m-189 -71 l0 -62 -35 4 c-32 3
-33 4 -12 12 24 9 24 12 -10 61 -24 35 -24 36 20 41 20 2 37 4 37 5 0 1 0 -26
0 -61z m-1 -224 c-2 -32 -5 -64 -6 -71 -2 -18 -46 -26 -74 -14 -13 7 -32 8
-41 5 -12 -5 110 130 124 136 0 1 -1 -25 -3 -56z m193 -87 c-12 -6 -29 -6 -49
2 -16 6 -36 8 -43 5 -19 -7 -30 42 -17 73 7 13 9 31 6 39 -4 9 22 -13 57 -47
57 -56 62 -64 46 -72z m-192 -106 l0 -45 -35 3 c-19 1 -45 3 -57 3 -19 1 -22
7 -20 40 1 30 5 38 17 34 8 -2 22 0 30 5 8 6 26 9 40 8 23 -3 25 -7 25 -48z
m190 -5 c0 -40 0 -40 -35 -37 -19 1 -45 3 -56 3 -18 1 -22 7 -21 35 1 26 5 33
16 29 9 -2 23 0 31 5 8 6 26 9 40 8 22 -3 25 -8 25 -43z m-190 -135 l0 -45
-35 3 c-19 1 -45 3 -57 3 -19 1 -22 7 -20 40 1 30 5 38 17 34 8 -2 22 0 30 5
8 6 26 9 40 8 23 -3 25 -7 25 -48z m190 0 l0 -45 -35 3 c-19 1 -45 3 -57 3
-19 1 -22 7 -20 40 1 30 5 38 17 34 8 -2 22 0 30 5 8 6 26 9 40 8 23 -3 25 -7
25 -48z"/>
<path d="M55 952 c-3 -3 -5 -20 -5 -38 0 -39 25 -68 47 -56 27 16 63 2 63 -24
0 -13 5 -24 10 -24 7 0 10 -25 8 -67 l-3 -68 -57 3 c-53 4 -58 2 -69 -21 -6
-14 -9 -37 -5 -51 6 -26 8 -26 65 -21 56 5 59 4 60 -17 0 -13 3 -52 6 -88 7
-91 -1 -129 -29 -136 -26 -6 -56 -12 -71 -13 -31 -3 -35 -17 -18 -65 21 -55 2
-56 187 8 l130 44 1 46 c1 25 -1 46 -4 46 -4 0 -31 -9 -61 -19 -54 -19 -55
-19 -62 0 -4 11 -5 50 -3 87 3 37 6 77 6 89 1 20 6 21 54 18 50 -3 53 -1 58
22 11 57 -19 82 -82 70 -27 -6 -29 -3 -35 31 -3 20 -6 65 -6 99 l0 61 39 -3
c21 -1 44 -6 50 -9 17 -11 49 3 56 24 3 10 3 29 0 43 -6 22 -13 26 -68 31 -71
7 -254 6 -262 -2z"/>
</g>
</svg>
