<?xml version="1.0" standalone="no"?>
<!DOCTYPE svg PUBLIC "-//W3C//DTD SVG 20010904//EN"
 "http://www.w3.org/TR/2001/REC-SVG-20010904/DTD/svg10.dtd">
<svg version="1.0" xmlns="http://www.w3.org/2000/svg"
 width="101.000000pt" height="101.000000pt" viewBox="0 0 101.000000 101.000000"
 preserveAspectRatio="xMidYMid meet">
<metadata>
Created by potrace 1.16, written by Peter Selinger 2001-2019
</metadata>
<g transform="translate(0.000000,101.000000) scale(0.100000,-0.100000)"
fill="#000000" stroke="none">
<path d="M112 945 c-1 -19 3 -37 8 -40 13 -8 11 -173 -1 -181 -7 -4 -9 -52 -8
-123 3 -106 0 -139 -16 -226 -3 -16 -22 -63 -41 -104 l-36 -73 36 -36 35 -36
39 84 c22 47 42 94 46 105 7 19 9 19 28 -7 11 -16 24 -28 28 -28 5 0 27 37 49
82 l40 82 11 -30 c7 -16 13 -40 15 -54 2 -14 4 -27 4 -30 5 -26 19 -30 56 -14
31 13 39 13 45 2 51 -89 91 -124 175 -153 52 -17 109 -28 135 -26 8 1 39 3 67
5 67 5 95 23 123 83 21 44 21 48 5 58 -51 30 -66 47 -59 69 4 11 9 46 11 76
12 205 13 219 29 282 5 20 1 29 -15 38 -12 6 -27 7 -34 3 -6 -4 -56 -7 -109
-8 -95 0 -97 0 -75 18 53 42 170 117 182 117 18 0 27 32 19 64 -7 28 -36 38
-99 31 -54 -6 -121 -5 -175 1 -64 8 -100 -8 -100 -43 0 -49 7 -52 119 -48
l103 3 -74 -54 c-40 -30 -92 -63 -115 -75 -35 -17 -43 -26 -43 -47 0 -46 28
-68 63 -50 15 8 17 5 13 -17 -7 -35 -40 -103 -69 -139 -21 -25 -24 -27 -26
-10 -3 27 -2 184 2 347 l4 137 -31 -5 c-42 -7 -237 -8 -307 -2 l-56 5 -1 -33z
m300 -92 c2 -24 2 -43 0 -43 -1 0 -18 7 -37 14 -19 8 -36 12 -36 8 -9 -47 -11
-62 -14 -92 -2 -19 -4 -41 -4 -47 -2 -28 -19 -10 -41 45 -13 31 -24 58 -25 60
-1 1 -13 -2 -26 -7 -24 -8 -24 -8 -24 48 l0 56 102 0 101 0 4 -42z m-2 -157
c-12 -24 -10 -97 6 -191 9 -56 12 -117 4 -108 -14 16 -56 139 -55 163 3 53 39
180 49 170 6 -6 5 -18 -4 -34z m-156 -84 l28 -63 -38 -79 c-20 -44 -41 -80
-46 -80 -5 0 -7 8 -4 18 6 18 16 166 16 242 0 52 7 46 44 -38z m580 7 c-1 -31
-4 -61 -7 -66 -4 -6 -1 -24 6 -42 9 -24 9 -36 -1 -51 -6 -11 -12 -26 -12 -35
0 -21 -29 -32 -73 -29 -21 2 -37 0 -35 -4 12 -23 27 -59 32 -75 5 -14 13 -17
43 -13 21 2 50 9 65 15 26 10 26 9 17 -18 -6 -16 -23 -41 -39 -56 -23 -22 -34
-26 -57 -21 -15 4 -45 9 -65 11 -104 12 -178 78 -204 180 l-7 29 26 -17 c14
-9 29 -17 32 -17 13 0 78 114 100 176 17 48 30 70 46 76 19 7 21 6 14 -19 -4
-16 -9 -38 -11 -51 -15 -76 -71 -172 -131 -220 -34 -28 -36 -31 -18 -37 11 -3
32 -12 48 -20 27 -14 28 -13 72 43 60 76 133 260 121 300 -4 13 0 17 17 17 20
0 22 -4 21 -56z"/>
</g>
</svg>
