<?xml version="1.0" standalone="no"?>
<!DOCTYPE svg PUBLIC "-//W3C//DTD SVG 20010904//EN"
 "http://www.w3.org/TR/2001/REC-SVG-20010904/DTD/svg10.dtd">
<svg version="1.0" xmlns="http://www.w3.org/2000/svg"
 width="101.000000pt" height="101.000000pt" viewBox="0 0 101.000000 101.000000"
 preserveAspectRatio="xMidYMid meet">
<metadata>
Created by potrace 1.16, written by Peter Selinger 2001-2019
</metadata>
<g transform="translate(0.000000,101.000000) scale(0.100000,-0.100000)"
fill="#000000" stroke="none">
<path d="M173 990 c-12 -45 -86 -187 -119 -227 -19 -23 -34 -45 -34 -50 0 -5
8 -25 19 -45 14 -28 21 -34 30 -25 8 8 11 6 11 -11 0 -18 5 -21 33 -19 l32 3
-2 -51 c-1 -46 -3 -50 -25 -47 -39 5 -69 4 -75 -2 -8 -8 -8 -64 0 -72 7 -7 41
-7 78 -1 30 6 29 11 32 -115 2 -66 -1 -81 -21 -107 l-23 -31 28 -38 c15 -20
29 -39 30 -41 2 -3 11 6 20 20 8 13 47 54 84 90 l69 67 -17 33 c-10 19 -19 36
-21 38 -1 3 -18 -10 -36 -28 l-34 -33 -7 40 c-4 24 -2 49 4 61 6 11 8 27 5 36
-5 13 -1 15 20 11 14 -3 34 -7 44 -10 32 -10 49 14 44 65 -1 11 -13 16 -34 17
-82 3 -78 0 -76 47 2 36 6 44 24 48 12 2 29 0 37 -5 16 -9 47 14 47 35 0 7 5
4 11 -5 6 -11 23 -18 42 -19 18 -1 25 -3 16 -6 -22 -5 -31 -41 -18 -65 9 -17
6 -73 -7 -119 -6 -22 28 -30 65 -16 15 5 36 7 46 3 16 -6 11 -14 -34 -60 -29
-30 -82 -71 -117 -91 -35 -21 -64 -39 -64 -40 0 -2 14 -17 30 -35 30 -32 30
-32 58 -14 15 9 45 32 68 50 l40 33 1 -36 c1 -24 -5 -42 -15 -49 -15 -11 -14
-15 3 -53 10 -23 21 -40 24 -39 3 2 48 23 98 48 l93 45 -5 39 c-3 22 -7 41 -9
44 -3 2 -26 -8 -51 -23 -26 -15 -49 -24 -53 -21 -6 7 -6 58 0 106 4 31 38 80
45 63 2 -7 21 -38 42 -70 44 -67 119 -139 184 -173 l46 -24 21 27 c12 15 28
34 36 41 8 8 14 17 14 20 0 2 -24 12 -53 20 -30 9 -66 25 -81 37 l-27 21 35
24 c19 13 42 24 50 24 31 0 28 24 -5 51 -33 27 -33 28 -10 29 23 0 24 2 17 61
-3 33 -2 68 4 78 5 10 7 27 4 38 -6 22 -2 22 -169 22 -33 0 -103 -1 -155 -4
-52 -2 -101 1 -110 5 -12 8 -10 9 8 10 12 0 22 5 22 10 0 6 16 10 35 10 19 0
35 -4 35 -10 0 -5 18 -10 40 -10 22 0 40 5 40 10 0 15 67 12 73 -2 4 -10 8
-10 15 1 8 11 32 13 120 8 104 -6 111 -5 117 13 15 46 0 57 -88 63 -45 3 -113
4 -152 1 -100 -6 -170 -5 -250 1 -84 8 -124 -5 -126 -37 -1 -15 -3 -17 -6 -7
-3 13 -24 18 -97 23 -52 3 -102 3 -112 -1 -16 -6 -15 -3 4 24 12 17 22 37 22
43 0 9 11 11 35 7 21 -4 35 -2 35 5 0 7 24 9 65 6 56 -3 66 -1 71 14 12 39 -4
55 -60 62 -30 3 -62 3 -72 -1 -13 -5 -9 6 14 40 18 25 37 49 42 52 18 11 10
25 -23 39 -70 29 -78 29 -84 6z m533 -457 c89 -5 92 -6 90 -28 -1 -22 -5 -24
-91 -29 -49 -3 -112 -3 -140 -1 -27 3 -59 5 -70 6 -14 1 -20 9 -21 26 -2 18 2
22 15 19 9 -3 23 -1 31 4 16 10 43 11 186 3z m90 -119 c20 -5 18 -8 -20 -44
-44 -41 -50 -41 -80 10 -18 31 -18 32 0 26 11 -3 26 -1 34 4 17 11 36 12 66 4z"/>
<path d="M375 956 c-4 -20 -2 -43 5 -56 7 -13 10 -50 8 -89 l-3 -66 148 -3
c96 -2 147 1 147 8 0 5 20 10 45 10 27 0 45 -5 45 -11 0 -12 114 -9 125 3 4 3
7 54 8 112 2 85 -1 108 -13 116 -20 13 -140 13 -140 0 0 -6 -33 -10 -80 -10
-47 0 -80 4 -80 10 0 6 -18 10 -40 10 -22 0 -40 -4 -40 -10 0 -5 -25 -10 -55
-10 -30 0 -55 5 -55 10 0 25 -20 6 -25 -24z m160 -90 c0 -40 -1 -41 -35 -41
-34 0 -35 1 -35 40 0 39 1 40 35 41 35 2 35 1 35 -40z m140 0 c0 -39 -2 -41
-30 -42 -29 0 -30 2 -30 40 0 39 2 41 30 42 29 0 30 -2 30 -40z m140 1 c0 -42
-1 -43 -30 -43 -28 1 -30 3 -27 38 3 31 8 38 30 41 15 2 27 5 27 6 0 0 0 -18
0 -42z"/>
</g>
</svg>
