<?xml version="1.0" standalone="no"?>
<!DOCTYPE svg PUBLIC "-//W3C//DTD SVG 20010904//EN"
 "http://www.w3.org/TR/2001/REC-SVG-20010904/DTD/svg10.dtd">
<svg version="1.0" xmlns="http://www.w3.org/2000/svg"
 width="101.000000pt" height="101.000000pt" viewBox="0 0 101.000000 101.000000"
 preserveAspectRatio="xMidYMid meet">
<metadata>
Created by potrace 1.16, written by Peter Selinger 2001-2019
</metadata>
<g transform="translate(0.000000,101.000000) scale(0.100000,-0.100000)"
fill="#000000" stroke="none">
<path d="M600 996 c0 -9 5 -16 10 -16 16 0 12 -68 -6 -95 -10 -15 -15 -38 -12
-58 3 -31 2 -33 -26 -29 l-29 5 24 18 24 18 -23 43 c-12 24 -31 54 -42 68 -18
24 -19 24 -55 7 -24 -11 -34 -21 -29 -30 4 -6 18 -29 31 -50 13 -21 28 -49 33
-62 9 -24 9 -25 -44 -20 -51 4 -54 3 -60 -21 -10 -39 2 -64 30 -64 13 0 24 5
24 10 0 6 26 10 59 10 58 0 59 -1 63 -30 3 -16 2 -33 -1 -38 -3 -5 -49 -8
-103 -8 l-96 1 -5 60 c-10 104 -8 173 3 180 5 3 9 19 8 35 -3 35 -19 39 -176
37 -120 -2 -139 -10 -127 -52 8 -28 8 -222 0 -235 -10 -17 4 -47 25 -53 11 -3
35 -2 54 3 30 7 34 5 35 -14 0 -11 3 -55 6 -96 2 -41 1 -115 -3 -165 -6 -73
-10 -90 -24 -93 -12 -2 -18 6 -23 30 -8 48 3 190 20 244 6 19 2 22 -32 26 -59
7 -70 1 -66 -35 11 -84 13 -148 7 -213 -5 -69 -7 -72 -34 -78 -27 -5 -28 -7
-20 -37 5 -18 8 -35 5 -38 -2 -4 0 -13 4 -19 6 -10 19 -9 58 7 59 23 163 51
213 57 19 3 44 6 55 8 11 3 23 5 26 5 10 1 17 50 12 72 -6 20 -10 20 -94 4
-25 -5 -27 -2 -33 40 -4 25 -3 53 3 64 6 11 8 26 5 34 -6 15 -2 16 78 19 39 2
51 19 41 57 -4 16 -14 19 -66 18 l-62 -2 3 35 c1 19 3 44 3 55 1 16 8 20 38
18 20 -1 43 -2 52 -2 10 -1 19 -13 22 -31 6 -27 9 -29 44 -25 21 2 50 7 64 11
15 3 30 1 33 -4 9 -16 -91 -114 -151 -148 l-51 -30 35 -38 35 -38 38 31 c44
35 39 46 43 -109 2 -52 8 -105 15 -116 14 -27 97 -57 121 -45 9 5 65 9 125 8
108 -1 109 -1 131 27 27 34 52 109 37 114 -5 1 -26 12 -47 22 -21 11 -40 18
-42 16 -2 -2 -5 -18 -8 -35 -2 -18 -9 -38 -15 -45 -15 -19 -96 -40 -117 -31
-10 4 -33 9 -52 10 -54 5 -66 25 -64 108 3 116 4 119 20 113 8 -3 24 -1 35 5
11 6 35 8 53 5 29 -6 32 -10 31 -36 -2 -38 -18 -55 -41 -42 -25 13 -57 3 -51
-17 3 -9 8 -28 11 -43 8 -34 33 -39 97 -23 53 15 67 26 69 60 1 11 3 34 5 50
2 17 4 38 5 47 0 13 14 6 56 -28 30 -25 57 -44 59 -42 2 2 16 21 32 43 l28 39
-55 27 c-31 14 -75 47 -98 72 -44 47 -55 74 -28 63 8 -3 27 0 41 6 19 9 33 9
60 -1 20 -7 38 -10 41 -8 7 7 8 75 2 81 -3 3 -35 1 -72 -5 -45 -7 -72 -7 -80
-1 -7 6 -35 9 -63 9 -48 -2 -52 0 -49 21 1 12 4 24 6 27 8 7 175 9 186 2 19
-12 44 23 41 57 -3 30 -4 31 -60 31 -34 0 -54 4 -50 10 19 33 68 85 84 90 10
4 18 10 18 15 0 10 -69 60 -82 60 -4 0 -15 -14 -23 -31 -9 -16 -33 -49 -53
-71 -20 -23 -32 -43 -26 -45 6 -2 19 -9 28 -16 14 -10 11 -12 -17 -13 -34 0
-34 0 -26 35 4 20 9 68 11 106 l3 70 -52 3 c-43 2 -53 0 -53 -12z m-313 -201
l1 -80 -56 0 -57 0 0 80 0 80 55 0 55 0 2 -80z m420 -263 c14 -24 23 -45 21
-48 -5 -4 -87 -6 -140 -3 l-26 1 34 48 c45 63 75 64 111 2z"/>
</g>
</svg>
