<?xml version="1.0" standalone="no"?>
<!DOCTYPE svg PUBLIC "-//W3C//DTD SVG 20010904//EN"
 "http://www.w3.org/TR/2001/REC-SVG-20010904/DTD/svg10.dtd">
<svg version="1.0" xmlns="http://www.w3.org/2000/svg"
 width="85.000000pt" height="101.000000pt" viewBox="0 0 85.000000 101.000000"
 preserveAspectRatio="xMidYMid meet">
<metadata>
Created by potrace 1.16, written by Peter Selinger 2001-2019
</metadata>
<g transform="translate(0.000000,101.000000) scale(0.100000,-0.100000)"
fill="#000000" stroke="none">
<path d="M388 929 c-79 -28 -141 -86 -179 -167 -18 -37 -32 -73 -32 -80 0 -11
-11 -13 -47 -8 -56 8 -76 -5 -85 -55 -6 -33 -4 -37 20 -43 14 -4 41 -4 58 -1
32 6 32 6 32 -34 0 -34 -3 -40 -18 -35 -9 3 -31 3 -47 -1 -24 -5 -32 -14 -42
-47 -15 -51 -3 -60 73 -55 35 2 56 -1 56 -8 0 -21 55 -121 84 -151 17 -17 53
-41 82 -54 29 -12 62 -27 73 -32 27 -12 153 -1 207 18 64 22 114 69 146 137
48 101 48 102 -4 117 -25 7 -47 11 -49 9 -1 -2 -17 -34 -34 -71 -41 -89 -87
-121 -170 -119 -109 2 -162 30 -204 108 l-27 48 82 -2 c45 -1 103 0 128 3 43
5 47 8 58 43 6 21 11 42 11 46 0 4 -28 5 -61 1 -39 -4 -67 -2 -75 5 -7 6 -44
9 -86 7 l-73 -3 3 33 c4 31 5 32 56 33 28 1 55 0 61 -1 5 -1 52 2 103 5 89 7
94 9 104 34 18 48 17 59 -5 65 -37 10 -147 7 -147 -4 0 -5 -16 -10 -35 -10
-19 0 -35 5 -35 10 0 6 -20 10 -45 10 l-45 0 24 48 c29 57 86 110 127 119 16
3 29 9 29 14 0 17 57 9 108 -16 53 -25 107 -86 118 -132 7 -26 12 -27 65 -11
45 13 47 23 18 81 -45 90 -127 149 -214 153 -27 2 -63 5 -80 8 -17 3 -54 -3
-87 -15z"/>
</g>
</svg>
