<?xml version="1.0" standalone="no"?>
<!DOCTYPE svg PUBLIC "-//W3C//DTD SVG 20010904//EN"
 "http://www.w3.org/TR/2001/REC-SVG-20010904/DTD/svg10.dtd">
<svg version="1.0" xmlns="http://www.w3.org/2000/svg"
 width="101.000000pt" height="102.000000pt" viewBox="0 0 101.000000 102.000000"
 preserveAspectRatio="xMidYMid meet">
<metadata>
Created by potrace 1.16, written by Peter Selinger 2001-2019
</metadata>
<g transform="translate(0.000000,102.000000) scale(0.100000,-0.100000)"
fill="#000000" stroke="none">
<path d="M435 1011 c-3 -6 -18 -10 -33 -9 -41 3 -126 -30 -191 -73 -94 -62
-165 -185 -186 -319 -1 -8 -6 -23 -10 -33 -4 -9 -4 -29 1 -45 4 -15 8 -38 10
-52 4 -47 43 -155 72 -200 80 -125 237 -209 402 -215 68 -2 201 32 261 67 113
67 194 198 215 348 9 59 6 140 -5 155 -4 5 -13 30 -20 55 -42 146 -135 244
-285 299 -77 29 -218 42 -231 22z m129 -40 c6 -5 24 -9 39 -9 46 1 172 -68
213 -115 39 -45 89 -142 99 -192 18 -90 19 -110 12 -180 -14 -136 -97 -259
-212 -317 -54 -28 -188 -60 -215 -52 -14 4 -34 9 -45 10 -83 10 -163 40 -226
85 -75 53 -143 174 -155 278 -30 252 112 453 344 485 12 2 24 5 27 7 8 9 109
8 119 0z"/>
<path d="M454 865 c-3 -18 -4 -56 -3 -84 4 -48 3 -50 -25 -55 -44 -9 -94 -7
-101 4 -8 13 -95 13 -115 0 -12 -8 -15 -38 -14 -169 0 -88 3 -164 7 -167 12
-12 68 -8 77 6 4 7 6 20 2 28 -4 12 -1 14 12 9 10 -4 26 -2 36 3 11 6 43 8 73
4 62 -7 58 3 59 -141 2 -99 6 -106 60 -96 24 4 24 8 26 96 1 134 2 139 19 133
8 -3 23 -1 34 4 24 13 120 2 118 -14 -4 -34 20 -50 60 -39 21 5 38 90 21 107
-13 13 -13 53 0 61 16 10 10 153 -7 170 -16 17 -103 21 -103 5 0 -5 -11 -10
-25 -10 -14 0 -25 5 -25 10 0 6 -19 10 -42 10 l-43 0 2 70 c1 41 -3 72 -9 76
-6 4 -28 8 -49 10 -36 3 -39 2 -45 -31z m259 -267 c3 -40 5 -74 3 -75 -3 -4
-95 -5 -136 -2 -24 1 -25 4 -25 65 0 63 0 64 28 64 15 0 27 5 27 10 0 6 22 10
49 10 l48 0 6 -72z m-258 -7 l0 -69 -53 -6 c-30 -4 -61 -2 -72 4 -10 5 -25 8
-32 5 -10 -4 -12 9 -10 59 4 73 -2 69 107 73 l60 2 0 -68z"/>
</g>
</svg>
