<?xml version="1.0" standalone="no"?>
<!DOCTYPE svg PUBLIC "-//W3C//DTD SVG 20010904//EN"
 "http://www.w3.org/TR/2001/REC-SVG-20010904/DTD/svg10.dtd">
<svg version="1.0" xmlns="http://www.w3.org/2000/svg"
 width="101.000000pt" height="101.000000pt" viewBox="0 0 101.000000 101.000000"
 preserveAspectRatio="xMidYMid meet">
<metadata>
Created by potrace 1.16, written by Peter Selinger 2001-2019
</metadata>
<g transform="translate(0.000000,101.000000) scale(0.100000,-0.100000)"
fill="#000000" stroke="none">
<path d="M50 592 c-12 -5 -16 -32 -18 -124 -3 -108 -2 -117 16 -122 37 -12 50
2 45 45 -4 24 -1 50 7 64 7 13 10 30 8 37 -4 10 5 13 40 11 25 -2 50 1 57 7
14 12 173 12 180 -1 8 -12 142 -12 150 1 8 13 52 13 61 -1 4 -8 51 -9 149 -6
l143 6 6 -79 c6 -67 10 -79 28 -83 39 -11 45 1 53 96 3 51 4 104 0 119 -6 24
-12 27 -72 34 -43 4 -78 2 -103 -6 -31 -10 -45 -10 -69 -1 -19 9 -53 11 -98 7
-37 -4 -111 -7 -163 -7 -52 0 -123 0 -157 0 -35 0 -91 0 -125 -1 -35 0 -76 2
-93 5 -16 4 -37 3 -45 -1z"/>
</g>
</svg>
