<?xml version="1.0" standalone="no"?>
<!DOCTYPE svg PUBLIC "-//W3C//DTD SVG 20010904//EN"
 "http://www.w3.org/TR/2001/REC-SVG-20010904/DTD/svg10.dtd">
<svg version="1.0" xmlns="http://www.w3.org/2000/svg"
 width="101.000000pt" height="104.000000pt" viewBox="0 0 101.000000 104.000000"
 preserveAspectRatio="xMidYMid meet">
<metadata>
Created by potrace 1.16, written by Peter Selinger 2001-2019
</metadata>
<g transform="translate(0.000000,104.000000) scale(0.100000,-0.100000)"
fill="#000000" stroke="none">
<path d="M458 979 c3 -38 0 -59 -7 -59 -6 0 -11 -18 -11 -40 0 -22 5 -40 10
-40 6 0 10 -33 10 -80 0 -47 -4 -80 -10 -80 -6 0 -10 -30 -10 -70 0 -40 4 -70
10 -70 6 0 10 -11 10 -25 0 -14 -4 -25 -10 -25 -6 0 -10 -40 -10 -100 0 -60 4
-100 10 -100 14 0 13 -137 -1 -142 -7 -2 -7 -20 -2 -53 l9 -50 122 1 c67 0
125 3 128 7 3 3 -3 19 -15 36 -34 47 -93 179 -93 206 0 14 -5 28 -9 31 -5 3
-7 10 -4 15 4 5 3 15 -1 21 -9 14 -11 29 -18 103 -10 107 -4 199 18 280 3 11
7 31 10 44 10 43 38 125 58 164 44 88 50 82 -81 84 l-116 2 3 -60z m176 21
c-4 -8 -22 -55 -41 -105 -19 -49 -37 -97 -40 -105 -4 -8 -8 -22 -9 -30 -2 -8
-6 -31 -9 -50 -4 -19 -8 -46 -10 -60 -1 -14 -6 -33 -10 -43 -4 -9 -5 -34 -2
-55 7 -41 17 -124 21 -162 5 -45 66 -214 94 -260 l28 -45 -87 0 -87 0 -5 50
c-9 90 -8 163 2 169 13 8 13 213 1 221 -13 8 -13 52 0 60 13 8 13 142 1 150
-13 7 -13 166 -1 180 6 7 9 32 7 56 l-2 44 77 0 c66 0 77 -2 72 -15z"/>
</g>
</svg>
