<?xml version="1.0" standalone="no"?>
<!DOCTYPE svg PUBLIC "-//W3C//DTD SVG 20010904//EN"
 "http://www.w3.org/TR/2001/REC-SVG-20010904/DTD/svg10.dtd">
<svg version="1.0" xmlns="http://www.w3.org/2000/svg"
 width="101.000000pt" height="101.000000pt" viewBox="0 0 101.000000 101.000000"
 preserveAspectRatio="xMidYMid meet">
<metadata>
Created by potrace 1.16, written by Peter Selinger 2001-2019
</metadata>
<g transform="translate(0.000000,101.000000) scale(0.100000,-0.100000)"
fill="#000000" stroke="none">
<path d="M110 972 c-23 -11 -22 -70 1 -77 11 -4 92 -4 182 -1 l162 6 3 -163 3
-163 -191 1 c-159 0 -192 -3 -200 -15 -13 -20 -13 -107 0 -115 11 -7 12 -153
0 -160 -10 -6 -12 -147 -2 -160 4 -5 21 -11 38 -11 l30 -2 2 77 c1 42 2 127 4
189 l3 112 43 0 c23 0 42 5 42 10 0 6 11 10 25 10 14 0 25 -5 25 -11 0 -8 26
-10 88 -7 l87 5 -3 -77 c-2 -48 1 -81 7 -85 14 -8 14 -52 1 -60 -12 -7 -6
-157 6 -177 5 -8 69 -9 228 -4 229 6 239 9 234 51 -3 19 -9 20 -131 16 -85 -2
-132 1 -141 8 -8 7 -38 10 -69 9 l-55 -3 4 71 c3 44 1 75 -6 79 -13 8 -13 48
1 62 6 6 9 33 8 60 l-4 48 130 2 c72 1 160 2 196 2 l66 0 8 143 c5 101 4 143
-4 146 -14 5 -15 72 -1 72 6 0 10 20 10 45 0 49 -23 72 -60 60 -24 -7 -37 -50
-21 -68 13 -17 13 -168 -1 -184 -5 -7 -8 -41 -6 -77 l3 -65 -162 2 -163 2 -6
33 c-3 17 -3 47 0 65 10 47 17 227 11 264 -5 30 -8 32 -53 32 -71 1 -164 0
-234 -1 -35 0 -76 2 -93 5 -16 4 -37 3 -45 -1z"/>
</g>
</svg>
