<?xml version="1.0" standalone="no"?>
<!DOCTYPE svg PUBLIC "-//W3C//DTD SVG 20010904//EN"
 "http://www.w3.org/TR/2001/REC-SVG-20010904/DTD/svg10.dtd">
<svg version="1.0" xmlns="http://www.w3.org/2000/svg"
 width="101.000000pt" height="101.000000pt" viewBox="0 0 101.000000 101.000000"
 preserveAspectRatio="xMidYMid meet">
<metadata>
Created by potrace 1.16, written by Peter Selinger 2001-2019
</metadata>
<g transform="translate(0.000000,101.000000) scale(0.100000,-0.100000)"
fill="#000000" stroke="none">
<path d="M558 676 c-15 -8 -41 -14 -58 -14 -45 1 -104 -43 -131 -99 -13 -26
-25 -55 -26 -63 -1 -8 -5 -32 -9 -53 -9 -49 26 -161 62 -200 53 -57 136 -77
221 -54 36 10 42 15 41 37 -2 58 -2 58 -95 58 -77 -1 -88 1 -104 20 -9 12 -15
30 -12 41 4 15 18 20 91 25 89 8 102 14 102 53 0 43 -25 54 -114 50 -77 -3
-81 -2 -81 17 3 60 36 80 149 91 57 6 69 18 61 60 -9 46 -45 58 -97 31z"/>
</g>
</svg>
