<?xml version="1.0" standalone="no"?>
<!DOCTYPE svg PUBLIC "-//W3C//DTD SVG 20010904//EN"
 "http://www.w3.org/TR/2001/REC-SVG-20010904/DTD/svg10.dtd">
<svg version="1.0" xmlns="http://www.w3.org/2000/svg"
 width="101.000000pt" height="102.000000pt" viewBox="0 0 101.000000 102.000000"
 preserveAspectRatio="xMidYMid meet">
<metadata>
Created by potrace 1.16, written by Peter Selinger 2001-2019
</metadata>
<g transform="translate(0.000000,102.000000) scale(0.100000,-0.100000)"
fill="#000000" stroke="none">
<path d="M418 676 c-79 -26 -113 -54 -140 -114 -24 -54 -31 -79 -31 -117 1
-122 71 -216 178 -239 28 -6 30 -10 28 -44 -1 -20 0 -64 4 -97 l5 -60 37 0 36
-1 -3 68 c-3 46 -1 68 7 68 6 0 11 13 11 28 0 25 7 31 55 51 30 13 67 37 81
54 26 31 66 111 62 125 -1 4 2 17 6 30 4 14 3 28 -3 36 -6 7 -9 15 -6 18 9 9
-24 90 -51 125 -28 37 -63 58 -133 79 -58 18 -62 17 -143 -10z m35 -123 c-2
-25 2 -52 8 -59 11 -13 2 -204 -10 -204 -16 0 -72 42 -87 65 -9 14 -17 48 -18
78 -3 69 23 121 72 146 20 11 37 20 37 21 0 0 -1 -21 -2 -47z m159 0 c21 -23
44 -82 42 -108 -1 -11 -2 -30 -3 -42 -1 -26 -44 -79 -80 -97 l-26 -14 3 69 c2
45 0 69 -7 69 -6 0 -11 16 -11 35 0 19 5 35 10 35 6 0 10 17 10 38 0 21 3 42
6 45 8 8 34 -6 56 -30z"/>
</g>
</svg>
