<?xml version="1.0" standalone="no"?>
<!DOCTYPE svg PUBLIC "-//W3C//DTD SVG 20010904//EN"
 "http://www.w3.org/TR/2001/REC-SVG-20010904/DTD/svg10.dtd">
<svg version="1.0" xmlns="http://www.w3.org/2000/svg"
 width="101.000000pt" height="101.000000pt" viewBox="0 0 101.000000 101.000000"
 preserveAspectRatio="xMidYMid meet">
<metadata>
Created by potrace 1.16, written by Peter Selinger 2001-2019
</metadata>
<g transform="translate(0.000000,101.000000) scale(0.100000,-0.100000)"
fill="#000000" stroke="none">
<path d="M474 894 c-15 -8 -33 -13 -41 -10 -27 11 -95 -67 -110 -127 -14 -60
-13 -76 10 -127 32 -72 68 -106 147 -142 36 -17 75 -34 87 -40 11 -6 25 -8 30
-5 5 3 14 2 21 -2 17 -10 -3 -73 -35 -112 -53 -63 -89 -58 -183 26 -60 53 -93
64 -129 42 -42 -26 -47 -41 -22 -76 18 -25 26 -29 40 -21 14 7 29 0 71 -36 56
-48 119 -84 145 -84 37 0 127 53 150 88 32 49 68 149 59 163 -5 9 2 10 23 6
26 -5 32 -3 37 16 3 12 6 27 6 34 0 17 -29 43 -43 37 -8 -3 -13 8 -14 31 -3
78 -6 93 -29 166 -31 95 -71 143 -141 168 -46 17 -55 17 -79 5z m78 -111 c35
-31 58 -90 64 -160 3 -38 7 -74 10 -81 2 -7 -1 -10 -6 -7 -5 3 -20 8 -32 11
-13 3 -31 7 -41 9 -34 8 -97 49 -114 74 -25 39 -19 130 11 157 28 25 79 24
108 -3z"/>
</g>
</svg>
