<?xml version="1.0" standalone="no"?>
<!DOCTYPE svg PUBLIC "-//W3C//DTD SVG 20010904//EN"
 "http://www.w3.org/TR/2001/REC-SVG-20010904/DTD/svg10.dtd">
<svg version="1.0" xmlns="http://www.w3.org/2000/svg"
 width="101.000000pt" height="101.000000pt" viewBox="0 0 101.000000 101.000000"
 preserveAspectRatio="xMidYMid meet">
<metadata>
Created by potrace 1.16, written by Peter Selinger 2001-2019
</metadata>
<g transform="translate(0.000000,101.000000) scale(0.100000,-0.100000)"
fill="#000000" stroke="none">
<path d="M440 712 c-11 -5 -15 -27 -17 -89 -1 -73 1 -83 18 -88 10 -4 23 -4
28 0 22 13 -1 -41 -25 -60 -22 -17 -26 -27 -20 -48 7 -31 24 -34 71 -11 42 20
59 45 80 119 15 51 18 157 4 169 -9 8 -125 14 -139 8z"/>
</g>
</svg>
