<?xml version="1.0" standalone="no"?>
<!DOCTYPE svg PUBLIC "-//W3C//DTD SVG 20010904//EN"
 "http://www.w3.org/TR/2001/REC-SVG-20010904/DTD/svg10.dtd">
<svg version="1.0" xmlns="http://www.w3.org/2000/svg"
 width="101.000000pt" height="101.000000pt" viewBox="0 0 101.000000 101.000000"
 preserveAspectRatio="xMidYMid meet">
<metadata>
Created by potrace 1.16, written by Peter Selinger 2001-2019
</metadata>
<g transform="translate(0.000000,101.000000) scale(0.100000,-0.100000)"
fill="#000000" stroke="none">
<path d="M695 923 c-86 -26 -137 -80 -151 -160 -3 -15 -7 -30 -10 -34 -7 -12
26 -39 49 -39 34 0 48 14 52 50 5 39 27 74 58 95 58 37 164 5 168 -51 1 -18 1
-60 0 -78 -1 -7 -28 -44 -62 -82 -88 -100 -127 -190 -101 -232 5 -7 24 -15 44
-18 50 -9 70 14 67 78 -3 46 0 51 49 101 54 55 102 147 102 196 0 37 -47 129
-74 144 -35 20 -110 47 -126 46 -8 -1 -37 -8 -65 -16z"/>
<path d="M696 315 c-21 -21 -21 -79 0 -100 13 -12 26 -15 58 -10 22 4 43 9 46
12 7 6 7 90 0 96 -3 3 -24 8 -46 12 -32 5 -45 2 -58 -10z"/>
</g>
</svg>
