<?xml version="1.0" standalone="no"?>
<!DOCTYPE svg PUBLIC "-//W3C//DTD SVG 20010904//EN"
 "http://www.w3.org/TR/2001/REC-SVG-20010904/DTD/svg10.dtd">
<svg version="1.0" xmlns="http://www.w3.org/2000/svg"
 width="101.000000pt" height="101.000000pt" viewBox="0 0 101.000000 101.000000"
 preserveAspectRatio="xMidYMid meet">
<metadata>
Created by potrace 1.16, written by Peter Selinger 2001-2019
</metadata>
<g transform="translate(0.000000,101.000000) scale(0.100000,-0.100000)"
fill="#000000" stroke="none">
<path d="M465 920 c-4 -6 -21 -9 -38 -7 -32 4 -86 -17 -139 -55 -43 -30 -99
-135 -116 -218 -6 -33 -6 -148 1 -180 32 -154 121 -244 273 -277 78 -17 195
16 263 73 52 45 116 172 106 211 -4 16 -2 29 6 34 16 10 16 125 0 164 -5 11
-17 42 -27 70 -23 66 -102 145 -169 169 -60 22 -151 30 -160 16z m105 -102
c19 -6 47 -19 62 -30 32 -22 75 -90 82 -130 2 -15 7 -32 10 -37 3 -5 -1 -12
-10 -15 -25 -10 -142 -7 -149 4 -7 12 -113 11 -121 -1 -7 -13 -48 -11 -61 2
-6 6 -33 10 -61 8 -45 -4 -49 -2 -47 16 8 77 69 159 125 170 11 2 26 7 34 12
23 13 97 13 136 1z m159 -314 c2 -2 -1 -10 -8 -18 -6 -8 -11 -18 -9 -22 10
-34 -61 -133 -115 -161 -40 -20 -164 -20 -203 0 -41 22 -80 65 -102 115 -32
72 -20 87 64 82 18 -1 35 4 39 10 5 9 50 10 169 5 88 -4 163 -9 165 -11z"/>
</g>
</svg>
