<?xml version="1.0" standalone="no"?>
<!DOCTYPE svg PUBLIC "-//W3C//DTD SVG 20010904//EN"
 "http://www.w3.org/TR/2001/REC-SVG-20010904/DTD/svg10.dtd">
<svg version="1.0" xmlns="http://www.w3.org/2000/svg"
 width="101.000000pt" height="103.000000pt" viewBox="0 0 101.000000 103.000000"
 preserveAspectRatio="xMidYMid meet">
<metadata>
Created by potrace 1.16, written by Peter Selinger 2001-2019
</metadata>
<g transform="translate(0.000000,103.000000) scale(0.100000,-0.100000)"
fill="#000000" stroke="none">
<path d="M268 722 c-15 -6 -3 -38 87 -246 57 -132 102 -243 99 -248 -3 -5 -2
-58 1 -118 l8 -110 44 0 44 0 -7 65 c-4 41 -3 69 4 77 6 8 10 36 10 63 0 41
17 92 94 280 l94 230 -53 0 c-44 0 -54 -3 -59 -20 -4 -11 -34 -89 -67 -174
l-60 -154 -73 173 c-41 95 -75 175 -78 177 -8 8 -72 12 -88 5z"/>
</g>
</svg>
