<?xml version="1.0" standalone="no"?>
<!DOCTYPE svg PUBLIC "-//W3C//DTD SVG 20010904//EN"
 "http://www.w3.org/TR/2001/REC-SVG-20010904/DTD/svg10.dtd">
<svg version="1.0" xmlns="http://www.w3.org/2000/svg"
 width="101.000000pt" height="101.000000pt" viewBox="0 0 101.000000 101.000000"
 preserveAspectRatio="xMidYMid meet">
<metadata>
Created by potrace 1.16, written by Peter Selinger 2001-2019
</metadata>
<g transform="translate(0.000000,101.000000) scale(0.100000,-0.100000)"
fill="#000000" stroke="none">
<path d="M480 943 c-9 -2 -32 -36 -52 -76 l-35 -72 29 -1 c25 -1 39 10 89 70
51 61 57 71 42 78 -20 7 -49 8 -73 1z"/>
<path d="M469 746 c-3 -3 -19 -8 -35 -10 -43 -5 -86 -24 -112 -49 -32 -30 -63
-92 -56 -112 13 -33 88 -30 99 4 10 32 42 53 87 57 100 8 120 1 137 -47 9 -27
8 -33 -14 -55 -14 -14 -30 -22 -35 -19 -6 3 -15 3 -21 -1 -6 -3 -28 -8 -48
-10 -89 -7 -159 -37 -187 -79 -24 -37 -23 -158 2 -186 24 -27 62 -47 104 -54
17 -3 35 -6 38 -7 19 -5 125 36 151 58 23 19 31 22 31 11 0 -23 49 -57 81 -57
28 0 59 22 59 43 0 28 -13 57 -26 57 -28 0 -34 38 -29 170 5 114 3 137 -14
174 -23 53 -73 90 -136 102 -11 2 -31 6 -45 10 -14 3 -28 3 -31 0z m126 -319
c-1 -13 -5 -28 -9 -35 -4 -7 -5 -16 -2 -21 7 -11 -38 -67 -68 -83 -19 -11
-145 -12 -155 -2 -10 9 0 90 13 102 15 15 51 25 91 23 22 0 124 30 130 39 1 0
0 -10 0 -23z"/>
</g>
</svg>
