<?xml version="1.0" standalone="no"?>
<!DOCTYPE svg PUBLIC "-//W3C//DTD SVG 20010904//EN"
 "http://www.w3.org/TR/2001/REC-SVG-20010904/DTD/svg10.dtd">
<svg version="1.0" xmlns="http://www.w3.org/2000/svg"
 width="101.000000pt" height="101.000000pt" viewBox="0 0 101.000000 101.000000"
 preserveAspectRatio="xMidYMid meet">
<metadata>
Created by potrace 1.16, written by Peter Selinger 2001-2019
</metadata>
<g transform="translate(0.000000,101.000000) scale(0.100000,-0.100000)"
fill="#000000" stroke="none">
<path d="M470 954 c-12 -3 -90 -140 -90 -157 0 -1 13 -2 29 -2 25 0 41 13 91
73 34 40 60 75 57 78 -7 7 -70 13 -87 8z"/>
<path d="M501 733 c-67 -24 -127 -90 -147 -160 -16 -58 -16 -58 -54 -58 -34
-1 -39 2 -44 28 -9 44 -7 77 4 77 6 0 10 20 10 45 0 40 -3 47 -27 56 -15 5
-37 8 -50 4 -26 -6 -41 -48 -24 -68 13 -17 13 -164 -1 -187 -8 -12 -8 -55 -2
-141 l9 -124 30 -3 c50 -4 54 5 57 123 l3 110 37 1 c28 2 37 -2 36 -15 0 -40
40 -141 70 -174 17 -19 97 -64 117 -66 6 0 23 -3 38 -7 39 -8 140 24 181 58
38 31 79 109 69 134 -3 9 -1 19 5 23 14 9 27 114 17 138 -4 10 -10 27 -12 38
-26 136 -182 217 -322 168z m165 -98 c43 -28 53 -56 58 -155 4 -81 2 -101 -16
-138 -38 -80 -142 -101 -212 -42 -21 17 -47 65 -40 73 3 3 2 11 -2 18 -4 7 -7
46 -6 87 1 86 23 137 68 161 37 20 117 18 150 -4z"/>
</g>
</svg>
