<?xml version="1.0" standalone="no"?>
<!DOCTYPE svg PUBLIC "-//W3C//DTD SVG 20010904//EN"
 "http://www.w3.org/TR/2001/REC-SVG-20010904/DTD/svg10.dtd">
<svg version="1.0" xmlns="http://www.w3.org/2000/svg"
 width="101.000000pt" height="101.000000pt" viewBox="0 0 101.000000 101.000000"
 preserveAspectRatio="xMidYMid meet">
<metadata>
Created by potrace 1.16, written by Peter Selinger 2001-2019
</metadata>
<g transform="translate(0.000000,101.000000) scale(0.100000,-0.100000)"
fill="#000000" stroke="none">
<path d="M490 954 c-12 -3 -90 -140 -90 -157 0 -1 13 -2 29 -2 25 0 41 13 91
73 34 40 60 75 57 78 -7 7 -70 13 -87 8z"/>
<path d="M288 723 c-22 -5 -34 -48 -19 -66 13 -17 13 -168 -1 -184 -7 -8 -8
-57 -3 -142 7 -126 8 -130 32 -136 13 -3 39 -3 57 1 30 5 45 23 151 185 64 98
118 179 118 179 1 0 3 -37 4 -82 1 -46 2 -99 3 -118 0 -19 -2 -58 -6 -86 -4
-40 -2 -54 11 -67 17 -18 52 -22 71 -9 16 10 29 207 15 216 -14 9 -14 53 -1
61 11 7 13 215 2 232 -9 14 -83 26 -98 16 -7 -5 -66 -91 -133 -192 l-120 -184
6 102 c4 73 3 101 -5 101 -7 0 -12 15 -12 35 0 19 5 35 10 35 6 0 10 20 10 45
0 57 -28 75 -92 58z"/>
</g>
</svg>
