<?xml version="1.0" standalone="no"?>
<!DOCTYPE svg PUBLIC "-//W3C//DTD SVG 20010904//EN"
 "http://www.w3.org/TR/2001/REC-SVG-20010904/DTD/svg10.dtd">
<svg version="1.0" xmlns="http://www.w3.org/2000/svg"
 width="101.000000pt" height="101.000000pt" viewBox="0 0 101.000000 101.000000"
 preserveAspectRatio="xMidYMid meet">
<metadata>
Created by potrace 1.16, written by Peter Selinger 2001-2019
</metadata>
<g transform="translate(0.000000,101.000000) scale(0.100000,-0.100000)"
fill="#000000" stroke="none">
<path d="M70 1004 c-12 -3 -14 -18 -12 -64 3 -39 0 -60 -7 -60 -6 0 -11 -18
-11 -40 0 -22 5 -40 10 -40 6 0 10 -33 10 -80 0 -47 -4 -80 -10 -80 -6 0 -10
-30 -10 -70 0 -40 4 -70 10 -70 6 0 10 -11 10 -25 0 -14 -4 -25 -10 -25 -6 0
-10 -40 -10 -100 0 -68 4 -100 11 -100 9 0 10 -20 5 -70 l-6 -69 34 -7 c19 -3
61 -3 93 0 32 4 73 6 91 6 17 -1 87 -1 155 0 192 0 294 0 404 -3 56 -1 104 1
108 4 5 6 7 87 6 222 0 20 0 72 0 115 0 42 -1 122 -1 177 0 55 1 159 2 232 2
72 1 134 -2 136 -5 5 -258 9 -445 7 -55 0 -128 -1 -162 -1 -35 0 -91 0 -125
-1 -35 0 -76 2 -93 5 -16 3 -37 3 -45 1z m355 -415 c8 -12 142 -12 150 1 8 14
52 13 61 -1 4 -8 35 -9 99 -4 l93 7 4 -40 3 -40 -83 -7 c-53 -4 -87 -3 -95 4
-16 13 -214 14 -222 1 -8 -13 -52 -13 -60 0 -4 7 -49 10 -120 8 l-113 -3 2 35
1 35 47 -2 c26 -2 49 1 53 7 7 12 173 12 180 -1z"/>
</g>
</svg>
