<?xml version="1.0" standalone="no"?>
<!DOCTYPE svg PUBLIC "-//W3C//DTD SVG 20010904//EN"
 "http://www.w3.org/TR/2001/REC-SVG-20010904/DTD/svg10.dtd">
<svg version="1.0" xmlns="http://www.w3.org/2000/svg"
 width="101.000000pt" height="101.000000pt" viewBox="0 0 101.000000 101.000000"
 preserveAspectRatio="xMidYMid meet">
<metadata>
Created by potrace 1.16, written by Peter Selinger 2001-2019
</metadata>
<g transform="translate(0.000000,101.000000) scale(0.100000,-0.100000)"
fill="#000000" stroke="none">
<path d="M717 645 c-18 -9 -55 -14 -100 -14 -40 0 -101 -2 -137 -6 -36 -4 -98
-6 -138 -5 -40 0 -78 -3 -84 -6 -15 -10 -57 -9 -85 0 -30 9 -63 -1 -63 -20 0
-8 18 -34 39 -57 l39 -42 38 14 c21 8 51 14 67 13 16 0 41 4 56 10 77 31 368
21 497 -17 13 -4 27 0 38 10 15 16 15 19 -6 57 -23 40 -79 78 -115 78 -10 0
-31 -7 -46 -15z"/>
</g>
</svg>
