<?xml version="1.0" standalone="no"?>
<!DOCTYPE svg PUBLIC "-//W3C//DTD SVG 20010904//EN"
 "http://www.w3.org/TR/2001/REC-SVG-20010904/DTD/svg10.dtd">
<svg version="1.0" xmlns="http://www.w3.org/2000/svg"
 width="101.000000pt" height="101.000000pt" viewBox="0 0 101.000000 101.000000"
 preserveAspectRatio="xMidYMid meet">
<metadata>
Created by potrace 1.16, written by Peter Selinger 2001-2019
</metadata>
<g transform="translate(0.000000,101.000000) scale(0.100000,-0.100000)"
fill="#000000" stroke="none">
<path d="M70 1004 c-12 -3 -14 -18 -12 -64 3 -39 0 -60 -7 -60 -6 0 -11 -18
-11 -40 0 -22 5 -40 10 -40 6 0 10 -33 10 -80 0 -47 -4 -80 -10 -80 -6 0 -10
-30 -10 -70 0 -40 4 -70 10 -70 6 0 10 -11 10 -25 0 -14 -4 -25 -10 -25 -6 0
-10 -40 -10 -100 0 -68 4 -100 11 -100 9 0 10 -20 5 -69 l-6 -69 28 -6 c15 -2
68 -2 117 0 50 3 127 5 173 4 45 0 118 0 162 0 44 0 106 -1 138 -1 134 0 266
2 269 5 3 3 5 106 4 219 0 20 0 72 0 115 0 42 -1 122 -1 177 0 55 1 159 2 232
2 72 1 134 -2 136 -5 5 -258 9 -445 7 -55 0 -128 -1 -162 -1 -35 0 -91 0 -125
-1 -35 0 -76 2 -93 5 -16 3 -37 3 -45 1z m416 -146 c4 -7 52 -8 144 -3 l138 7
4 -40 3 -40 -136 5 c-93 3 -139 1 -143 -6 -9 -14 -53 -14 -61 -1 -4 7 -49 10
-120 8 l-113 -3 2 35 1 35 47 -2 c26 -2 49 1 53 7 8 13 173 11 181 -2z m124
-262 l135 0 0 -38 0 -38 -117 6 c-69 3 -119 1 -122 -5 -8 -13 -147 -13 -162 0
-8 6 -35 9 -61 7 l-48 -3 0 35 -1 35 72 -3 c42 -3 80 1 91 7 10 6 31 8 48 5
17 -4 91 -7 165 -8z m-310 -256 c0 -6 30 -10 70 -10 40 0 70 4 70 10 0 6 11
10 25 10 14 0 25 -4 25 -10 0 -5 23 -10 50 -10 28 0 50 5 50 10 0 11 64 13
171 4 l75 -7 -1 -38 0 -39 -106 6 c-75 5 -108 3 -113 -5 -9 -14 -152 -15 -161
-1 -7 12 -113 11 -121 -1 -7 -13 -48 -11 -61 2 -6 6 -33 9 -60 8 l-49 -4 0 32
c1 32 2 33 44 33 23 0 42 5 42 10 0 6 11 10 25 10 14 0 25 -4 25 -10z"/>
</g>
</svg>
