<?xml version="1.0" standalone="no"?>
<!DOCTYPE svg PUBLIC "-//W3C//DTD SVG 20010904//EN"
 "http://www.w3.org/TR/2001/REC-SVG-20010904/DTD/svg10.dtd">
<svg version="1.0" xmlns="http://www.w3.org/2000/svg"
 width="101.000000pt" height="103.000000pt" viewBox="0 0 101.000000 103.000000"
 preserveAspectRatio="xMidYMid meet">
<metadata>
Created by potrace 1.16, written by Peter Selinger 2001-2019
</metadata>
<g transform="translate(0.000000,103.000000) scale(0.100000,-0.100000)"
fill="#000000" stroke="none">
<path d="M425 1021 c-3 -6 -19 -10 -33 -8 -33 5 -139 -41 -203 -89 -60 -44
-120 -133 -150 -221 -28 -81 -32 -104 -32 -163 1 -56 4 -69 32 -153 41 -121
120 -216 226 -270 60 -30 172 -62 205 -58 8 1 38 3 65 5 110 6 230 60 307 137
59 59 107 155 133 267 l19 84 -23 86 c-46 174 -121 275 -254 338 -89 42 -100
45 -203 51 -55 3 -84 1 -89 -6z m2 -120 c27 5 31 -2 16 -32 -8 -17 -12 -40 -9
-52 4 -12 9 -58 12 -101 3 -44 7 -83 10 -88 8 -12 62 -10 87 4 12 6 33 13 47
14 33 4 87 12 125 19 17 3 39 5 49 6 11 0 27 4 36 9 14 8 19 4 23 -18 3 -15 5
-31 4 -36 -2 -10 -32 -16 -79 -16 -15 0 -29 -4 -33 -9 -3 -6 -12 -8 -20 -4 -8
3 -23 2 -32 -2 -18 -8 -30 -10 -88 -19 -127 -18 -118 -14 -115 -48 0 -13 3
-66 4 -118 2 -52 4 -101 5 -108 2 -21 68 -44 91 -32 11 6 42 8 73 4 42 -5 57
-3 70 10 17 17 42 91 38 114 -3 16 5 15 40 -5 25 -15 29 -22 24 -43 -4 -14 -9
-36 -11 -50 -7 -37 -36 -73 -75 -93 -27 -14 -51 -17 -124 -13 -172 9 -184 14
-203 93 -13 56 -14 151 -1 175 5 9 4 28 -2 47 -10 28 -20 36 -42 32 -4 -1 -24
-4 -45 -7 -20 -3 -48 -7 -62 -10 -64 -11 -110 -12 -111 -1 0 7 -2 21 -4 32 -5
23 6 26 82 25 23 -1 56 6 73 15 17 9 35 13 40 10 15 -9 58 16 64 39 9 34 7 96
-4 116 -6 11 -8 48 -4 89 6 64 8 69 25 60 10 -5 22 -9 26 -8z"/>
</g>
</svg>
