<?xml version="1.0" standalone="no"?>
<!DOCTYPE svg PUBLIC "-//W3C//DTD SVG 20010904//EN"
 "http://www.w3.org/TR/2001/REC-SVG-20010904/DTD/svg10.dtd">
<svg version="1.0" xmlns="http://www.w3.org/2000/svg"
 width="101.000000pt" height="101.000000pt" viewBox="0 0 101.000000 101.000000"
 preserveAspectRatio="xMidYMid meet">
<metadata>
Created by potrace 1.16, written by Peter Selinger 2001-2019
</metadata>
<g transform="translate(0.000000,101.000000) scale(0.100000,-0.100000)"
fill="#000000" stroke="none">
<path d="M70 1004 c-12 -3 -14 -18 -12 -64 3 -39 0 -60 -7 -60 -6 0 -11 -18
-11 -40 0 -22 5 -40 10 -40 6 0 10 -33 10 -80 0 -47 -4 -80 -10 -80 -6 0 -10
-30 -10 -70 0 -40 4 -70 10 -70 6 0 10 -11 10 -25 0 -14 -4 -25 -10 -25 -6 0
-10 -40 -10 -100 0 -68 4 -100 11 -100 9 0 10 -20 5 -70 l-6 -69 32 -5 c18 -3
136 -4 263 -1 127 2 249 5 273 5 23 0 66 0 95 0 28 0 91 0 138 0 l87 -1 7 81
c5 57 3 90 -5 111 -10 24 -10 38 0 68 7 24 10 60 6 102 -7 69 -8 179 -4 386 2
72 1 134 -2 136 -5 5 -258 9 -445 7 -55 0 -128 -1 -162 -1 -35 0 -91 0 -125
-1 -35 0 -76 2 -93 5 -16 3 -37 3 -45 1z m322 -203 c-4 -119 3 -126 112 -117
44 4 83 9 86 12 3 3 5 47 5 97 l0 92 36 1 35 2 -3 -84 c-2 -50 1 -92 8 -105
10 -20 16 -21 92 -14 l82 6 1 -35 0 -35 -75 5 c-42 2 -83 0 -91 -5 -19 -13
-27 -149 -10 -180 7 -15 9 -51 4 -114 l-6 -92 -172 0 -172 0 4 83 c3 57 1 82
-7 82 -7 0 -11 26 -11 75 0 46 4 75 11 75 6 0 9 14 7 32 -3 32 -5 33 -58 41
-30 4 -71 7 -90 5 -33 -3 -35 -1 -36 28 0 23 3 31 13 27 7 -3 47 -2 88 2 l75
7 0 32 c0 18 3 60 6 94 7 62 8 64 59 71 6 1 9 -33 7 -88z"/>
<path d="M420 622 c-12 -6 -16 -36 -18 -158 -3 -105 0 -154 8 -159 6 -4 48 -4
94 0 l84 7 7 145 c4 88 3 149 -2 154 -12 12 -152 20 -173 11z"/>
</g>
</svg>
