<?xml version="1.0" standalone="no"?>
<!DOCTYPE svg PUBLIC "-//W3C//DTD SVG 20010904//EN"
 "http://www.w3.org/TR/2001/REC-SVG-20010904/DTD/svg10.dtd">
<svg version="1.0" xmlns="http://www.w3.org/2000/svg"
 width="101.000000pt" height="103.000000pt" viewBox="0 0 101.000000 103.000000"
 preserveAspectRatio="xMidYMid meet">
<metadata>
Created by potrace 1.16, written by Peter Selinger 2001-2019
</metadata>
<g transform="translate(0.000000,103.000000) scale(0.100000,-0.100000)"
fill="#000000" stroke="none">
<path d="M425 1021 c-3 -6 -19 -10 -33 -8 -33 5 -139 -41 -203 -89 -119 -87
-206 -308 -177 -449 13 -63 55 -163 89 -215 38 -56 100 -110 164 -143 60 -30
172 -62 205 -58 8 1 38 3 65 5 160 9 315 107 383 242 42 84 76 214 68 266 -3
24 -6 51 -7 60 0 10 -4 20 -10 23 -5 4 -9 14 -9 23 0 38 -71 164 -120 213 -47
47 -159 111 -221 125 -53 13 -187 16 -194 5z m-75 -121 c0 -6 30 -10 70 -10
40 0 70 4 70 10 0 6 11 10 25 10 14 0 25 -5 25 -11 0 -8 35 -10 113 -8 l112 4
0 -35 0 -35 -115 3 c-63 1 -121 -2 -128 -6 -7 -5 -16 -24 -19 -43 -3 -19 -8
-41 -12 -49 -4 -8 -7 -28 -7 -45 1 -26 5 -30 34 -33 18 -2 32 1 32 7 0 7 26
11 65 11 l65 0 1 -67 c1 -38 0 -72 -2 -78 -2 -5 -4 -46 -4 -90 -1 -44 -2 -84
-4 -90 -10 -32 26 -53 61 -34 10 6 38 7 61 4 40 -6 43 -9 44 -39 l1 -32 -62
-2 c-124 -3 -568 -4 -612 -1 -18 1 -22 7 -21 34 1 36 1 36 108 36 l55 -1 32
113 c46 161 47 164 22 172 -12 4 -49 5 -83 3 l-62 -3 -3 31 c-3 31 -3 31 40
28 24 -2 66 -1 95 2 49 6 53 8 65 43 17 51 17 53 24 88 l6 31 -63 6 c-35 4
-91 5 -124 3 l-60 -3 -1 33 c0 32 0 33 43 33 24 0 43 5 43 10 0 6 16 10 35 10
19 0 35 -4 35 -10z"/>
<path d="M469 593 c-12 -3 -26 -40 -48 -126 -18 -67 -34 -129 -37 -138 -6 -20
31 -32 57 -18 10 5 50 7 89 5 l70 -5 1 27 c1 15 3 38 6 52 2 14 6 54 8 90 2
36 6 74 7 85 2 15 -5 21 -37 27 -43 7 -90 8 -116 1z"/>
</g>
</svg>
