<?xml version="1.0" standalone="no"?>
<!DOCTYPE svg PUBLIC "-//W3C//DTD SVG 20010904//EN"
 "http://www.w3.org/TR/2001/REC-SVG-20010904/DTD/svg10.dtd">
<svg version="1.0" xmlns="http://www.w3.org/2000/svg"
 width="101.000000pt" height="101.000000pt" viewBox="0 0 101.000000 101.000000"
 preserveAspectRatio="xMidYMid meet">
<metadata>
Created by potrace 1.16, written by Peter Selinger 2001-2019
</metadata>
<g transform="translate(0.000000,101.000000) scale(0.100000,-0.100000)"
fill="#000000" stroke="none">
<path d="M70 1004 c-12 -3 -14 -18 -12 -64 3 -39 0 -60 -7 -60 -6 0 -11 -18
-11 -40 0 -22 5 -40 10 -40 6 0 10 -33 10 -80 0 -47 -4 -80 -10 -80 -6 0 -10
-30 -10 -70 0 -40 4 -70 10 -70 6 0 10 -11 10 -25 0 -14 -4 -25 -10 -25 -6 0
-10 -40 -10 -100 0 -68 4 -100 11 -100 9 0 10 -20 5 -69 -6 -65 -5 -69 16 -74
12 -3 29 -2 37 3 9 5 59 7 111 5 52 -3 122 -4 155 -4 33 0 105 -1 160 -1 151
-2 399 1 403 4 2 3 4 110 3 219 0 20 0 72 0 115 0 42 -1 122 -1 177 0 55 1
159 2 232 2 72 1 134 -2 136 -5 5 -258 9 -445 7 -55 0 -128 -1 -162 -1 -35 0
-91 0 -125 -1 -35 0 -76 2 -93 5 -16 3 -37 3 -45 1z m282 -223 c-3 -104 9
-127 61 -117 17 3 32 8 34 10 2 2 5 44 6 95 2 71 5 90 15 86 8 -3 24 -5 37 -5
22 0 24 -5 30 -87 8 -90 14 -103 52 -103 44 0 54 25 51 119 l-4 86 36 1 35 1
2 -95 c2 -52 6 -98 9 -101 3 -3 34 -5 69 -4 l63 2 4 -34 4 -35 -67 6 c-60 6
-68 5 -77 -13 -14 -25 -14 -163 -1 -179 6 -8 7 -41 3 -88 l-7 -75 -39 2 -39 1
7 73 c4 51 3 73 -5 73 -6 0 -11 16 -11 35 0 19 5 35 10 35 6 0 10 27 10 60 0
50 -3 61 -21 70 -11 6 -33 8 -49 5 -38 -8 -42 -29 -36 -201 l5 -139 -45 0 -45
0 3 163 c3 177 2 182 -55 182 -35 0 -51 -37 -43 -102 3 -26 1 -50 -4 -53 -5
-3 -8 -19 -8 -35 1 -37 -63 -136 -98 -152 -22 -10 -28 -8 -50 13 l-24 25 44
46 c45 48 66 105 66 183 0 58 -4 61 -79 57 l-69 -4 1 41 c2 30 6 40 15 36 8
-3 38 -2 68 1 53 7 54 7 54 39 0 18 3 59 6 93 6 51 10 62 28 65 53 10 51 13
48 -82z"/>
</g>
</svg>
