<?xml version="1.0" standalone="no"?>
<!DOCTYPE svg PUBLIC "-//W3C//DTD SVG 20010904//EN"
 "http://www.w3.org/TR/2001/REC-SVG-20010904/DTD/svg10.dtd">
<svg version="1.0" xmlns="http://www.w3.org/2000/svg"
 width="101.000000pt" height="101.000000pt" viewBox="0 0 101.000000 101.000000"
 preserveAspectRatio="xMidYMid meet">
<metadata>
Created by potrace 1.16, written by Peter Selinger 2001-2019
</metadata>
<g transform="translate(0.000000,101.000000) scale(0.100000,-0.100000)"
fill="#000000" stroke="none">
<path d="M666 674 c-4 -14 -4 -41 0 -61 l7 -35 -132 7 c-95 6 -131 4 -131 -4
0 -7 -27 -11 -80 -11 -47 0 -80 4 -80 10 0 6 -18 10 -40 10 -22 0 -40 -5 -40
-11 0 -7 -21 -10 -60 -7 -50 2 -60 0 -64 -15 -2 -9 2 -24 10 -31 15 -16 101
-20 109 -6 8 12 173 11 180 -1 8 -12 142 -12 150 1 8 13 48 13 62 -1 6 -6 33
-9 60 -8 44 4 49 2 45 -14 -2 -9 1 -24 8 -32 8 -9 10 -29 7 -51 -3 -19 -3 -34
1 -32 27 11 263 151 267 157 5 8 -246 161 -264 161 -5 0 -12 -12 -15 -26z"/>
</g>
</svg>
