<?xml version="1.0" standalone="no"?>
<!DOCTYPE svg PUBLIC "-//W3C//DTD SVG 20010904//EN"
 "http://www.w3.org/TR/2001/REC-SVG-20010904/DTD/svg10.dtd">
<svg version="1.0" xmlns="http://www.w3.org/2000/svg"
 width="101.000000pt" height="101.000000pt" viewBox="0 0 101.000000 101.000000"
 preserveAspectRatio="xMidYMid meet">
<metadata>
Created by potrace 1.16, written by Peter Selinger 2001-2019
</metadata>
<g transform="translate(0.000000,101.000000) scale(0.100000,-0.100000)"
fill="#000000" stroke="none">
<path d="M555 842 c-4 -20 -2 -45 5 -63 13 -30 10 -133 -4 -146 -7 -8 -57 -8
-354 -1 -108 2 -134 0 -142 -12 -12 -19 -10 -92 2 -107 6 -7 8 -55 5 -117 l-5
-105 26 -5 c53 -9 284 -5 304 5 25 13 171 2 162 -12 -3 -5 -2 -57 2 -115 l7
-106 193 193 c107 107 194 201 194 210 0 8 -87 105 -194 215 l-193 199 -8 -33z
m200 -222 l160 -160 -55 -56 c-30 -30 -102 -100 -160 -154 l-105 -98 4 50 c1
27 0 64 -3 82 l-6 34 -96 7 c-66 5 -99 4 -107 -4 -14 -14 -54 -14 -62 -1 -4 7
-48 10 -118 8 l-112 -3 3 58 c3 36 0 57 -7 57 -6 0 -11 16 -11 35 0 19 5 35
10 35 6 0 10 18 10 40 0 33 3 40 19 40 11 0 23 4 26 10 8 13 166 11 182 -2 9
-7 56 -8 138 -3 l126 7 -7 89 c-4 51 -3 89 2 89 5 0 81 -72 169 -160z"/>
</g>
</svg>
