<?xml version="1.0" standalone="no"?>
<!DOCTYPE svg PUBLIC "-//W3C//DTD SVG 20010904//EN"
 "http://www.w3.org/TR/2001/REC-SVG-20010904/DTD/svg10.dtd">
<svg version="1.0" xmlns="http://www.w3.org/2000/svg"
 width="101.000000pt" height="107.000000pt" viewBox="0 0 101.000000 107.000000"
 preserveAspectRatio="xMidYMid meet">
<metadata>
Created by potrace 1.16, written by Peter Selinger 2001-2019
</metadata>
<g transform="translate(0.000000,107.000000) scale(0.100000,-0.100000)"
fill="#000000" stroke="none">
<path d="M468 1010 c3 -39 0 -60 -7 -60 -6 0 -11 -18 -11 -40 0 -22 5 -40 11
-40 6 0 9 -19 7 -47 l-3 -48 -81 4 c-48 1 -84 -2 -88 -8 -8 -12 -173 -14 -181
-1 -6 10 -87 11 -104 1 -7 -5 -11 -22 -9 -42 3 -33 5 -34 51 -37 28 -2 47 1
47 7 0 6 16 11 35 11 19 0 35 -5 35 -11 0 -8 41 -9 143 -4 l142 7 0 -131 0
-131 -100 1 c-55 0 -116 0 -135 0 -19 -1 -61 1 -93 5 -32 3 -74 3 -93 0 -29
-6 -34 -11 -34 -35 0 -16 7 -31 15 -34 25 -10 214 -7 221 4 6 10 79 11 169 2
l50 -5 -3 -49 c-2 -28 1 -56 7 -63 7 -9 11 -48 9 -107 -2 -77 0 -94 12 -96 8
-2 21 1 29 6 14 9 15 21 12 334 0 20 0 72 0 115 0 42 -1 122 -1 177 -1 55 1
147 4 205 8 142 3 170 -32 170 -27 0 -27 -1 -24 -60z"/>
</g>
</svg>
