<?xml version="1.0" standalone="no"?>
<!DOCTYPE svg PUBLIC "-//W3C//DTD SVG 20010904//EN"
 "http://www.w3.org/TR/2001/REC-SVG-20010904/DTD/svg10.dtd">
<svg version="1.0" xmlns="http://www.w3.org/2000/svg"
 width="101.000000pt" height="101.000000pt" viewBox="0 0 101.000000 101.000000"
 preserveAspectRatio="xMidYMid meet">
<metadata>
Created by potrace 1.16, written by Peter Selinger 2001-2019
</metadata>
<g transform="translate(0.000000,101.000000) scale(0.100000,-0.100000)"
fill="#000000" stroke="none">
<path d="M180 626 c-68 -41 -125 -78 -127 -82 -2 -7 234 -150 267 -162 5 -2 6
13 3 32 -3 22 -1 42 7 51 7 8 10 23 8 33 -4 15 1 17 40 15 25 -2 50 1 57 7 14
12 173 12 180 -1 8 -12 142 -12 150 1 3 6 17 10 30 10 13 0 27 -4 30 -10 3 -5
28 -10 55 -10 54 0 81 18 73 49 -4 17 -19 20 -136 26 -94 5 -132 4 -135 -4 -5
-14 -162 -15 -162 -1 0 6 -18 10 -40 10 -22 0 -40 -4 -40 -10 0 -5 -25 -10
-56 -10 l-57 0 7 40 c7 47 -1 90 -18 90 -6 -1 -67 -34 -136 -74z"/>
</g>
</svg>
