<?xml version="1.0" standalone="no"?>
<!DOCTYPE svg PUBLIC "-//W3C//DTD SVG 20010904//EN"
 "http://www.w3.org/TR/2001/REC-SVG-20010904/DTD/svg10.dtd">
<svg version="1.0" xmlns="http://www.w3.org/2000/svg"
 width="101.000000pt" height="102.000000pt" viewBox="0 0 101.000000 102.000000"
 preserveAspectRatio="xMidYMid meet">
<metadata>
Created by potrace 1.16, written by Peter Selinger 2001-2019
</metadata>
<g transform="translate(0.000000,102.000000) scale(0.100000,-0.100000)"
fill="#000000" stroke="none">
<path d="M417 884 c-43 -75 -76 -139 -72 -142 4 -4 30 -6 58 -6 l52 1 3 -131
c4 -197 3 -313 -4 -397 -4 -63 -3 -79 11 -93 19 -18 24 -19 44 -7 18 12 28
125 12 135 -14 9 -15 53 -1 61 13 8 13 142 1 150 -13 7 -13 166 0 181 5 6 8
35 5 64 l-3 53 68 -5 69 -5 -26 46 c-72 125 -135 231 -137 231 -1 0 -37 -61
-80 -136z"/>
</g>
</svg>
