<?xml version="1.0" standalone="no"?>
<!DOCTYPE svg PUBLIC "-//W3C//DTD SVG 20010904//EN"
 "http://www.w3.org/TR/2001/REC-SVG-20010904/DTD/svg10.dtd">
<svg version="1.0" xmlns="http://www.w3.org/2000/svg"
 width="101.000000pt" height="102.000000pt" viewBox="0 0 101.000000 102.000000"
 preserveAspectRatio="xMidYMid meet">
<metadata>
Created by potrace 1.16, written by Peter Selinger 2001-2019
</metadata>
<g transform="translate(0.000000,102.000000) scale(0.100000,-0.100000)"
fill="#000000" stroke="none">
<path d="M478 960 c3 -39 0 -60 -7 -60 -6 0 -11 -18 -11 -40 0 -22 5 -40 10
-40 6 0 10 -33 10 -80 0 -52 -4 -80 -11 -80 -8 0 -9 -37 -4 -134 l7 -133 -54
3 c-89 6 -89 2 -3 -145 42 -72 81 -131 85 -131 7 0 143 226 158 262 2 4 -10 5
-27 2 -19 -4 -37 -2 -46 6 -8 7 -23 10 -32 8 -16 -4 -18 4 -20 71 -5 155 -4
279 1 381 8 142 3 170 -32 170 -27 0 -27 -1 -24 -60z"/>
</g>
</svg>
