<?xml version="1.0" standalone="no"?>
<!DOCTYPE svg PUBLIC "-//W3C//DTD SVG 20010904//EN"
 "http://www.w3.org/TR/2001/REC-SVG-20010904/DTD/svg10.dtd">
<svg version="1.0" xmlns="http://www.w3.org/2000/svg"
 width="101.000000pt" height="102.000000pt" viewBox="0 0 101.000000 102.000000"
 preserveAspectRatio="xMidYMid meet">
<metadata>
Created by potrace 1.16, written by Peter Selinger 2001-2019
</metadata>
<g transform="translate(0.000000,102.000000) scale(0.100000,-0.100000)"
fill="#000000" stroke="none">
<path d="M431 745 c-65 -21 -110 -61 -138 -121 -48 -105 -49 -202 -3 -299 34
-71 60 -94 138 -120 46 -15 60 -15 99 -5 24 7 59 23 76 35 l32 21 -2 -35 c-1
-20 -2 -42 -2 -49 -2 -26 -66 -81 -88 -76 -11 3 -25 -1 -32 -10 -15 -18 -38
-21 -43 -6 -2 6 -17 13 -33 16 -17 3 -47 16 -67 29 l-37 25 -28 -36 -27 -36
29 -24 c46 -36 110 -54 197 -54 119 0 181 40 218 137 21 57 27 138 10 148 -13
8 -13 52 0 60 13 8 13 142 1 150 -13 7 -13 173 -1 180 15 10 12 42 -7 60 -26
27 -105 2 -87 -27 3 -4 -17 4 -43 18 -62 31 -107 37 -162 19z m154 -107 c40
-31 51 -71 49 -169 -3 -118 -25 -158 -97 -176 -68 -17 -127 9 -155 69 -27 59
-22 194 9 244 22 35 25 37 74 34 17 0 41 3 55 9 35 14 34 14 65 -11z"/>
</g>
</svg>
