<?xml version="1.0" standalone="no"?>
<!DOCTYPE svg PUBLIC "-//W3C//DTD SVG 20010904//EN"
 "http://www.w3.org/TR/2001/REC-SVG-20010904/DTD/svg10.dtd">
<svg version="1.0" xmlns="http://www.w3.org/2000/svg"
 width="59.000000pt" height="101.000000pt" viewBox="0 0 59.000000 101.000000"
 preserveAspectRatio="xMidYMid meet">
<metadata>
Created by potrace 1.16, written by Peter Selinger 2001-2019
</metadata>
<g transform="translate(0.000000,101.000000) scale(0.100000,-0.100000)"
fill="#000000" stroke="none">
<path d="M295 743 l-250 -147 0 -45 1 -45 244 -148 c135 -81 251 -147 257
-148 18 0 27 46 17 82 -8 27 -33 44 -203 139 -107 59 -198 112 -202 116 -4 4
84 57 196 117 192 103 204 111 210 142 6 34 -2 84 -14 84 -3 0 -118 -66 -256
-147z"/>
</g>
</svg>
