<?xml version="1.0" standalone="no"?>
<!DOCTYPE svg PUBLIC "-//W3C//DTD SVG 20010904//EN"
 "http://www.w3.org/TR/2001/REC-SVG-20010904/DTD/svg10.dtd">
<svg version="1.0" xmlns="http://www.w3.org/2000/svg"
 width="101.000000pt" height="106.000000pt" viewBox="0 0 101.000000 106.000000"
 preserveAspectRatio="xMidYMid meet">
<metadata>
Created by potrace 1.16, written by Peter Selinger 2001-2019
</metadata>
<g transform="translate(0.000000,106.000000) scale(0.100000,-0.100000)"
fill="#000000" stroke="none">
<path d="M458 1000 c3 -39 0 -60 -7 -60 -6 0 -11 -18 -11 -40 0 -22 5 -40 10
-40 6 0 10 -33 10 -80 0 -47 -4 -80 -10 -80 -6 0 -10 -30 -10 -70 0 -40 4 -70
10 -70 6 0 10 -11 10 -25 0 -14 -4 -25 -10 -25 -6 0 -10 -40 -10 -100 0 -60 4
-100 10 -100 6 0 10 -30 10 -70 0 -40 -4 -70 -10 -70 -6 0 -10 -26 -10 -59 0
-75 17 -96 69 -86 20 4 38 8 39 10 3 3 5 207 3 358 0 20 0 72 0 115 0 42 -1
122 -1 177 -1 55 1 147 4 205 4 58 4 120 1 138 -6 31 -8 32 -53 32 l-47 0 3
-60z"/>
</g>
</svg>
