<?xml version="1.0" standalone="no"?>
<!DOCTYPE svg PUBLIC "-//W3C//DTD SVG 20010904//EN"
 "http://www.w3.org/TR/2001/REC-SVG-20010904/DTD/svg10.dtd">
<svg version="1.0" xmlns="http://www.w3.org/2000/svg"
 width="101.000000pt" height="101.000000pt" viewBox="0 0 101.000000 101.000000"
 preserveAspectRatio="xMidYMid meet">
<metadata>
Created by potrace 1.16, written by Peter Selinger 2001-2019
</metadata>
<g transform="translate(0.000000,101.000000) scale(0.100000,-0.100000)"
fill="#000000" stroke="none">
<path d="M465 594 c-19 -10 -54 -14 -100 -14 -77 2 -96 -1 -138 -18 -16 -7
-31 -12 -34 -12 -4 0 -37 -14 -74 -31 -71 -33 -84 -50 -73 -94 5 -19 11 -24
23 -19 73 31 151 56 175 56 16 -1 38 4 49 10 11 5 36 12 56 14 49 5 257 4 301
-1 71 -8 115 -17 127 -27 7 -5 16 -7 20 -5 5 3 40 -8 78 -24 38 -16 70 -29 71
-29 7 0 14 55 9 70 -8 25 -119 72 -255 108 -37 9 -79 15 -131 17 -31 1 -60 5
-66 8 -5 3 -22 -1 -38 -9z"/>
</g>
</svg>
