<?xml version="1.0" standalone="no"?>
<!DOCTYPE svg PUBLIC "-//W3C//DTD SVG 20010904//EN"
 "http://www.w3.org/TR/2001/REC-SVG-20010904/DTD/svg10.dtd">
<svg version="1.0" xmlns="http://www.w3.org/2000/svg"
 width="101.000000pt" height="101.000000pt" viewBox="0 0 101.000000 101.000000"
 preserveAspectRatio="xMidYMid meet">
<metadata>
Created by potrace 1.16, written by Peter Selinger 2001-2019
</metadata>
<g transform="translate(0.000000,101.000000) scale(0.100000,-0.100000)"
fill="#000000" stroke="none">
<path d="M30 604 c-12 -3 -14 -17 -11 -61 2 -36 -1 -58 -9 -63 -9 -6 -11 -26
-6 -73 l7 -64 77 43 c78 45 170 80 232 89 145 20 219 25 225 14 4 -5 21 -9 38
-8 31 1 67 -4 117 -16 14 -3 34 -8 44 -10 46 -10 125 -40 180 -67 32 -16 60
-27 62 -25 7 7 10 224 3 231 -5 5 -116 8 -241 7 -21 0 -73 0 -115 0 -43 0
-123 -1 -178 -1 -55 0 -128 -1 -162 -1 -35 0 -91 0 -125 -1 -35 0 -76 2 -93 5
-16 3 -37 3 -45 1z"/>
</g>
</svg>
