<?xml version="1.0" standalone="no"?>
<!DOCTYPE svg PUBLIC "-//W3C//DTD SVG 20010904//EN"
 "http://www.w3.org/TR/2001/REC-SVG-20010904/DTD/svg10.dtd">
<svg version="1.0" xmlns="http://www.w3.org/2000/svg"
 width="101.000000pt" height="101.000000pt" viewBox="0 0 101.000000 101.000000"
 preserveAspectRatio="xMidYMid meet">
<metadata>
Created by potrace 1.16, written by Peter Selinger 2001-2019
</metadata>
<g transform="translate(0.000000,101.000000) scale(0.100000,-0.100000)"
fill="#000000" stroke="none">
<path d="M48 768 c-16 -5 -28 -15 -27 -21 0 -7 24 -59 53 -116 l53 -105 61 3
c39 1 62 -2 62 -8 0 -6 18 -11 40 -11 22 0 40 5 40 10 0 6 33 10 80 10 47 0
80 -4 80 -10 0 -6 30 -10 70 -10 40 0 70 4 70 10 0 14 47 13 52 -1 3 -8 31 -9
96 -4 l93 7 54 109 c30 60 55 113 55 118 0 5 -13 14 -28 19 -29 10 -29 10 -77
-87 l-47 -97 -62 -2 c-61 -1 -204 -3 -323 -3 -300 0 -263 -12 -320 102 -47 95
-48 96 -75 87z"/>
</g>
</svg>
