<?xml version="1.0" standalone="no"?>
<!DOCTYPE svg PUBLIC "-//W3C//DTD SVG 20010904//EN"
 "http://www.w3.org/TR/2001/REC-SVG-20010904/DTD/svg10.dtd">
<svg version="1.0" xmlns="http://www.w3.org/2000/svg"
 width="101.000000pt" height="101.000000pt" viewBox="0 0 101.000000 101.000000"
 preserveAspectRatio="xMidYMid meet">
<metadata>
Created by potrace 1.16, written by Peter Selinger 2001-2019
</metadata>
<g transform="translate(0.000000,101.000000) scale(0.100000,-0.100000)"
fill="#000000" stroke="none">
<path d="M25 791 l-15 -30 83 -44 c45 -24 155 -82 245 -128 l162 -83 163 83
c89 46 199 104 244 128 l83 44 -15 30 c-9 16 -18 29 -22 29 -3 0 -107 -52
-230 -115 l-223 -115 -223 115 c-123 63 -227 115 -230 115 -4 0 -13 -13 -22
-29z"/>
</g>
</svg>
