<?xml version="1.0" standalone="no"?>
<!DOCTYPE svg PUBLIC "-//W3C//DTD SVG 20010904//EN"
 "http://www.w3.org/TR/2001/REC-SVG-20010904/DTD/svg10.dtd">
<svg version="1.0" xmlns="http://www.w3.org/2000/svg"
 width="101.000000pt" height="101.000000pt" viewBox="0 0 101.000000 101.000000"
 preserveAspectRatio="xMidYMid meet">
<metadata>
Created by potrace 1.16, written by Peter Selinger 2001-2019
</metadata>
<g transform="translate(0.000000,101.000000) scale(0.100000,-0.100000)"
fill="#000000" stroke="none">
<path d="M60 612 c-11 -5 -15 -23 -15 -64 0 -57 0 -58 30 -63 16 -2 91 -2 165
0 74 3 176 5 225 4 50 0 151 0 225 0 l135 0 -3 -37 c-2 -20 1 -62 5 -92 l9
-55 56 0 c31 0 60 4 65 8 10 11 10 283 0 293 -4 5 -38 8 -75 7 -37 -1 -84 -2
-104 -2 -21 0 -73 0 -115 0 -43 0 -123 -1 -178 -1 -55 0 -128 -1 -162 -1 -35
0 -91 0 -125 -1 -35 0 -76 2 -93 5 -16 4 -37 3 -45 -1z m295 -33 c8 -12 142
-12 150 1 8 13 52 13 60 0 7 -12 213 -12 220 0 7 11 58 13 104 4 29 -6 31 -9
31 -49 0 -24 5 -45 11 -47 8 -3 9 -24 4 -68 -6 -62 -8 -65 -33 -65 -27 0 -27
0 -27 78 0 57 -4 80 -15 87 -18 11 -108 11 -115 0 -7 -11 -153 -12 -160 0 -8
12 -213 12 -220 0 -8 -13 -52 -13 -60 0 -4 7 -48 10 -118 8 l-112 -3 0 25 c0
24 3 25 47 23 26 -2 49 1 53 7 7 12 173 12 180 -1z"/>
</g>
</svg>
