<?xml version="1.0" standalone="no"?>
<!DOCTYPE svg PUBLIC "-//W3C//DTD SVG 20010904//EN"
 "http://www.w3.org/TR/2001/REC-SVG-20010904/DTD/svg10.dtd">
<svg version="1.0" xmlns="http://www.w3.org/2000/svg"
 width="101.000000pt" height="101.000000pt" viewBox="0 0 101.000000 101.000000"
 preserveAspectRatio="xMidYMid meet">
<metadata>
Created by potrace 1.16, written by Peter Selinger 2001-2019
</metadata>
<g transform="translate(0.000000,101.000000) scale(0.100000,-0.100000)"
fill="#000000" stroke="none">
<path d="M579 1003 c-9 -2 -29 -31 -43 -63 -49 -108 -73 -200 -80 -305 -2 -22
-6 -52 -10 -66 -7 -23 5 -148 18 -204 3 -11 9 -38 14 -60 12 -51 48 -141 74
-182 14 -24 27 -33 46 -33 51 0 54 10 23 86 -16 38 -32 85 -36 104 -8 48 -14
79 -22 120 -10 53 -3 326 9 346 3 5 9 31 13 59 3 27 19 81 35 119 35 81 26 97
-41 79z"/>
</g>
</svg>
