<?xml version="1.0" standalone="no"?>
<!DOCTYPE svg PUBLIC "-//W3C//DTD SVG 20010904//EN"
 "http://www.w3.org/TR/2001/REC-SVG-20010904/DTD/svg10.dtd">
<svg version="1.0" xmlns="http://www.w3.org/2000/svg"
 width="101.000000pt" height="101.000000pt" viewBox="0 0 101.000000 101.000000"
 preserveAspectRatio="xMidYMid meet">
<metadata>
Created by potrace 1.16, written by Peter Selinger 2001-2019
</metadata>
<g transform="translate(0.000000,101.000000) scale(0.100000,-0.100000)"
fill="#000000" stroke="none">
<path d="M448 913 c-10 -2 -18 -10 -19 -16 -1 -12 -1 -16 -14 -72 -9 -43 -22
-107 -24 -127 -1 -3 -22 -6 -48 -5 -45 2 -47 1 -56 -31 -12 -41 -6 -46 48 -47
23 0 41 -3 39 -6 -2 -3 -6 -21 -9 -40 -4 -19 -8 -41 -10 -49 -2 -8 -4 -23 -4
-33 -1 -15 -8 -18 -33 -16 -60 4 -67 0 -77 -38 -6 -20 -8 -39 -5 -42 3 -3 25
-4 51 -3 44 2 45 1 38 -26 -10 -40 -21 -96 -31 -153 -5 -31 -3 -37 14 -41 41
-11 70 2 77 35 11 46 13 59 18 87 17 99 15 96 62 98 42 1 44 1 40 -26 -3 -27
-10 -66 -20 -112 -15 -73 -15 -78 3 -82 22 -6 81 2 83 11 1 3 3 17 5 31 6 41
12 83 19 115 3 17 6 37 6 46 0 17 7 18 77 21 17 0 32 4 33 7 0 3 2 21 5 39 4
30 2 32 -29 34 -17 0 -40 0 -51 -1 -15 -1 -17 3 -12 21 4 13 9 34 12 48 7 37
12 64 13 71 1 3 12 4 26 1 45 -8 73 5 80 39 8 37 -4 49 -52 49 -29 0 -31 2
-27 33 2 17 7 46 10 62 3 17 8 48 11 70 l5 41 -46 -1 c-25 0 -46 -2 -47 -5 0
-3 -3 -14 -6 -25 -2 -11 -6 -29 -8 -40 -1 -11 -5 -27 -8 -35 -3 -8 -5 -22 -5
-30 0 -21 -9 -68 -17 -80 -3 -5 -24 -10 -46 -10 -38 0 -39 1 -34 28 3 15 8 36
10 47 2 11 6 31 9 45 24 113 15 132 -56 113z m104 -306 c-6 -7 -11 -22 -12
-32 0 -11 -2 -33 -4 -50 -3 -16 -5 -36 -5 -42 -1 -8 -16 -12 -46 -11 -47 2
-51 7 -35 38 6 10 11 37 12 59 1 38 3 40 29 34 15 -3 35 0 46 6 24 14 28 14
15 -2z"/>
</g>
</svg>
