<?xml version="1.0" standalone="no"?>
<!DOCTYPE svg PUBLIC "-//W3C//DTD SVG 20010904//EN"
 "http://www.w3.org/TR/2001/REC-SVG-20010904/DTD/svg10.dtd">
<svg version="1.0" xmlns="http://www.w3.org/2000/svg"
 width="101.000000pt" height="101.000000pt" viewBox="0 0 101.000000 101.000000"
 preserveAspectRatio="xMidYMid meet">
<metadata>
Created by potrace 1.16, written by Peter Selinger 2001-2019
</metadata>
<g transform="translate(0.000000,101.000000) scale(0.100000,-0.100000)"
fill="#000000" stroke="none">
<path d="M340 934 c-12 -3 -15 -14 -12 -40 3 -23 -1 -41 -12 -53 -11 -12 -17
-35 -16 -62 0 -24 -3 -66 -6 -94 -11 -84 -14 -165 -6 -166 62 -10 70 -8 109
30 30 27 49 38 74 39 19 0 41 1 49 2 55 5 104 -35 116 -93 2 -12 8 -23 14 -25
19 -7 9 -77 -18 -126 -37 -68 -66 -87 -137 -89 -73 -3 -106 21 -132 93 -16 45
-20 49 -49 48 -17 -1 -39 -7 -48 -13 -15 -11 -15 -16 -1 -56 41 -114 116 -171
230 -172 54 0 135 31 174 66 40 37 69 111 63 162 -3 30 -1 45 7 45 13 0 15 43
2 68 -5 9 -17 36 -26 59 -22 53 -57 86 -118 112 -61 26 -93 26 -153 1 -26 -11
-49 -18 -52 -16 -2 3 1 18 7 34 7 15 12 44 12 63 -1 84 0 85 48 82 24 -2 50 2
57 8 9 7 44 8 102 4 85 -7 90 -6 96 13 4 11 4 31 1 45 -5 20 -14 25 -48 30
-23 2 -62 3 -87 0 -64 -6 -160 -6 -195 0 -16 3 -37 3 -45 1z"/>
</g>
</svg>
