<?xml version="1.0" standalone="no"?>
<!DOCTYPE svg PUBLIC "-//W3C//DTD SVG 20010904//EN"
 "http://www.w3.org/TR/2001/REC-SVG-20010904/DTD/svg10.dtd">
<svg version="1.0" xmlns="http://www.w3.org/2000/svg"
 width="101.000000pt" height="101.000000pt" viewBox="0 0 101.000000 101.000000"
 preserveAspectRatio="xMidYMid meet">
<metadata>
Created by potrace 1.16, written by Peter Selinger 2001-2019
</metadata>
<g transform="translate(0.000000,101.000000) scale(0.100000,-0.100000)"
fill="#000000" stroke="none">
<path d="M496 742 l-249 -147 -1 -45 -2 -46 250 -149 c137 -83 253 -151 257
-153 13 -5 22 45 15 82 -6 33 -16 40 -211 148 -176 97 -202 115 -188 125 9 7
101 59 204 115 175 95 188 103 194 134 6 34 -2 84 -14 84 -3 -1 -118 -67 -255
-148z"/>
</g>
</svg>
