<?xml version="1.0" standalone="no"?>
<!DOCTYPE svg PUBLIC "-//W3C//DTD SVG 20010904//EN"
 "http://www.w3.org/TR/2001/REC-SVG-20010904/DTD/svg10.dtd">
<svg version="1.0" xmlns="http://www.w3.org/2000/svg"
 width="101.000000pt" height="101.000000pt" viewBox="0 0 101.000000 101.000000"
 preserveAspectRatio="xMidYMid meet">
<metadata>
Created by potrace 1.16, written by Peter Selinger 2001-2019
</metadata>
<g transform="translate(0.000000,101.000000) scale(0.100000,-0.100000)"
fill="#000000" stroke="none">
<path d="M200 642 c-22 -10 -22 -140 0 -147 28 -9 112 2 122 16 8 13 6 114 -3
123 -9 8 -105 15 -119 8z"/>
<path d="M185 336 c-16 -11 -17 -22 -12 -76 8 -72 7 -71 36 -73 29 -2 26 -21
-9 -57 -31 -32 -34 -38 -24 -64 15 -40 97 4 124 67 19 46 35 162 25 189 -5 12
-15 15 -40 11 -19 -3 -35 -1 -39 6 -10 15 -38 14 -61 -3z"/>
</g>
</svg>
