<?xml version="1.0" standalone="no"?>
<!DOCTYPE svg PUBLIC "-//W3C//DTD SVG 20010904//EN"
 "http://www.w3.org/TR/2001/REC-SVG-20010904/DTD/svg10.dtd">
<svg version="1.0" xmlns="http://www.w3.org/2000/svg"
 width="101.000000pt" height="102.000000pt" viewBox="0 0 101.000000 102.000000"
 preserveAspectRatio="xMidYMid meet">
<metadata>
Created by potrace 1.16, written by Peter Selinger 2001-2019
</metadata>
<g transform="translate(0.000000,102.000000) scale(0.100000,-0.100000)"
fill="#000000" stroke="none">
<path d="M457 946 c-16 -9 -38 -14 -50 -12 -53 8 -201 -73 -250 -137 -35 -46
-88 -150 -92 -182 -1 -5 -5 -17 -9 -26 -4 -9 -6 -20 -5 -25 1 -5 -1 -17 -6
-27 -7 -16 -2 -105 9 -187 7 -46 45 -143 73 -183 81 -116 197 -164 393 -162
155 1 224 20 344 95 42 26 44 36 11 73 l-25 28 -58 -35 c-110 -68 -216 -89
-362 -72 -129 15 -240 113 -265 232 -36 171 -5 325 86 428 40 47 141 97 178
90 16 -4 41 1 58 9 18 10 35 12 43 7 8 -5 31 -8 51 -8 20 0 61 -11 91 -24 95
-44 152 -120 169 -227 28 -165 -14 -279 -105 -286 -46 -4 -72 23 -60 62 10 35
14 59 30 183 3 19 7 51 10 70 9 62 7 92 -7 101 -24 15 -68 10 -80 -9 -11 -18
-14 -18 -56 6 -27 15 -52 22 -66 18 -12 -3 -26 -6 -32 -7 -32 -5 -108 -54
-139 -91 -45 -52 -91 -189 -75 -220 6 -11 8 -34 5 -52 -10 -51 29 -116 86
-144 38 -19 50 -21 68 -12 12 7 31 9 43 6 26 -7 68 16 101 54 l25 31 15 -34
c10 -24 25 -38 54 -50 37 -15 46 -15 98 -1 100 26 151 82 189 206 17 55 17
123 0 188 -3 14 -8 33 -10 43 -9 40 -71 140 -108 173 -54 50 -154 96 -232 108
-100 16 -111 16 -138 2z m116 -324 c16 -17 20 -33 20 -80 -1 -126 -66 -227
-150 -237 -76 -8 -101 52 -79 194 8 48 51 116 84 132 42 20 99 16 125 -9z"/>
</g>
</svg>
