<?xml version="1.0" standalone="no"?>
<!DOCTYPE svg PUBLIC "-//W3C//DTD SVG 20010904//EN"
 "http://www.w3.org/TR/2001/REC-SVG-20010904/DTD/svg10.dtd">
<svg version="1.0" xmlns="http://www.w3.org/2000/svg"
 width="101.000000pt" height="101.000000pt" viewBox="0 0 101.000000 101.000000"
 preserveAspectRatio="xMidYMid meet">
<metadata>
Created by potrace 1.16, written by Peter Selinger 2001-2019
</metadata>
<g transform="translate(0.000000,101.000000) scale(0.100000,-0.100000)"
fill="#000000" stroke="none">
<path d="M399 925 c-100 -32 -164 -88 -204 -177 -16 -34 -30 -74 -32 -88 -3
-14 -7 -38 -10 -55 -23 -133 42 -314 135 -379 58 -40 153 -70 210 -67 12 0 32
1 45 2 30 1 113 37 163 71 84 56 145 197 140 328 -2 41 -6 84 -9 95 -40 145
-111 230 -222 264 -104 32 -132 33 -216 6z m206 -98 c67 -35 121 -116 131
-197 10 -75 5 -165 -10 -188 -4 -7 -5 -16 -2 -19 9 -9 -30 -76 -61 -104 -49
-46 -90 -61 -168 -62 -62 0 -80 4 -118 26 -25 15 -55 40 -67 56 -25 36 -49
101 -43 119 3 7 0 19 -7 27 -6 8 -9 18 -6 23 2 4 6 37 7 72 5 124 51 206 139
248 46 22 163 21 205 -1z"/>
</g>
</svg>
