<?xml version="1.0" standalone="no"?>
<!DOCTYPE svg PUBLIC "-//W3C//DTD SVG 20010904//EN"
 "http://www.w3.org/TR/2001/REC-SVG-20010904/DTD/svg10.dtd">
<svg version="1.0" xmlns="http://www.w3.org/2000/svg"
 width="101.000000pt" height="101.000000pt" viewBox="0 0 101.000000 101.000000"
 preserveAspectRatio="xMidYMid meet">
<metadata>
Created by potrace 1.16, written by Peter Selinger 2001-2019
</metadata>
<g transform="translate(0.000000,101.000000) scale(0.100000,-0.100000)"
fill="#000000" stroke="none">
<path d="M240 934 c-12 -3 -14 -18 -12 -64 3 -39 0 -60 -7 -60 -6 0 -11 -18
-11 -40 0 -22 5 -40 10 -40 6 0 10 -33 10 -80 0 -47 -4 -80 -10 -80 -6 0 -10
-30 -10 -70 0 -40 4 -70 10 -70 14 0 13 -47 -1 -52 -8 -3 -9 -35 -4 -105 8
-112 12 -118 71 -107 31 6 33 9 38 58 4 28 5 95 3 149 l-3 97 43 0 c24 0 43 5
43 10 0 6 11 10 25 10 14 0 25 -5 25 -11 0 -11 112 -8 157 4 140 38 205 198
133 332 -22 42 -37 55 -90 82 -62 31 -65 32 -204 31 -78 0 -154 2 -171 5 -16
3 -37 3 -45 1z m382 -112 c37 -21 51 -52 51 -111 0 -66 -17 -103 -55 -126 -26
-15 -54 -18 -164 -19 l-132 -1 -6 40 c-9 72 -6 167 5 181 6 8 9 22 7 32 -4 15
1 17 43 15 27 -2 51 2 55 8 10 16 162 2 196 -19z"/>
</g>
</svg>
