<?xml version="1.0" standalone="no"?>
<!DOCTYPE svg PUBLIC "-//W3C//DTD SVG 20010904//EN"
 "http://www.w3.org/TR/2001/REC-SVG-20010904/DTD/svg10.dtd">
<svg version="1.0" xmlns="http://www.w3.org/2000/svg"
 width="101.000000pt" height="101.000000pt" viewBox="0 0 101.000000 101.000000"
 preserveAspectRatio="xMidYMid meet">
<metadata>
Created by potrace 1.16, written by Peter Selinger 2001-2019
</metadata>
<g transform="translate(0.000000,101.000000) scale(0.100000,-0.100000)"
fill="#000000" stroke="none">
<path d="M189 932 c-14 -6 3 -60 121 -382 148 -405 149 -406 210 -382 23 9 42
52 158 364 73 194 135 362 138 373 5 19 1 20 -47 19 l-52 -2 -103 -294 c-57
-161 -104 -299 -104 -305 -1 -45 -29 23 -125 296 -90 258 -111 310 -129 315
-26 7 -46 6 -67 -2z"/>
</g>
</svg>
