<?xml version="1.0" standalone="no"?>
<!DOCTYPE svg PUBLIC "-//W3C//DTD SVG 20010904//EN"
 "http://www.w3.org/TR/2001/REC-SVG-20010904/DTD/svg10.dtd">
<svg version="1.0" xmlns="http://www.w3.org/2000/svg"
 width="101.000000pt" height="101.000000pt" viewBox="0 0 101.000000 101.000000"
 preserveAspectRatio="xMidYMid meet">
<metadata>
Created by potrace 1.16, written by Peter Selinger 2001-2019
</metadata>
<g transform="translate(0.000000,101.000000) scale(0.100000,-0.100000)"
fill="#000000" stroke="none">
<path d="M456 945 c-16 -9 -37 -15 -45 -13 -54 8 -127 -39 -165 -108 -43 -77
-23 -175 46 -228 33 -24 158 -79 158 -69 0 3 6 1 13 -4 6 -6 26 -11 42 -11 49
-1 142 -41 168 -72 26 -31 29 -88 8 -129 -16 -30 -70 -54 -115 -53 -21 1 -45
-3 -52 -9 -9 -7 -19 -7 -34 1 -12 6 -26 9 -33 7 -38 -14 -130 78 -142 143 -2
13 -6 25 -9 27 -8 8 -88 -21 -93 -33 -6 -17 42 -123 70 -152 47 -51 159 -92
249 -92 72 0 178 40 222 85 17 17 40 57 50 89 17 50 18 62 7 94 -29 80 -80
125 -187 163 -65 22 -85 28 -127 34 -56 8 -135 52 -152 84 -9 18 -13 36 -10
41 3 6 8 20 10 32 6 29 45 67 75 74 58 12 127 13 157 3 39 -13 99 -80 108
-120 4 -16 8 -29 9 -29 1 0 24 7 50 16 52 18 52 22 15 95 -34 67 -123 126
-204 135 -11 1 -29 5 -40 8 -11 4 -33 -1 -49 -9z"/>
</g>
</svg>
