<?xml version="1.0" standalone="no"?>
<!DOCTYPE svg PUBLIC "-//W3C//DTD SVG 20010904//EN"
 "http://www.w3.org/TR/2001/REC-SVG-20010904/DTD/svg10.dtd">
<svg version="1.0" xmlns="http://www.w3.org/2000/svg"
 width="101.000000pt" height="101.000000pt" viewBox="0 0 101.000000 101.000000"
 preserveAspectRatio="xMidYMid meet">
<metadata>
Created by potrace 1.16, written by Peter Selinger 2001-2019
</metadata>
<g transform="translate(0.000000,101.000000) scale(0.100000,-0.100000)"
fill="#000000" stroke="none">
<path d="M290 934 c-12 -4 -14 -18 -12 -64 3 -39 0 -60 -7 -60 -6 0 -11 -18
-11 -40 0 -22 5 -40 10 -40 6 0 10 -33 10 -80 0 -47 -4 -80 -10 -80 -6 0 -10
-30 -10 -70 0 -40 4 -70 10 -70 6 0 10 -11 10 -25 0 -14 -5 -25 -11 -25 -8 0
-9 -28 -4 -97 4 -54 8 -99 9 -100 1 -2 16 -6 33 -9 35 -7 68 19 58 45 -4 9 5
5 22 -10 71 -67 203 -58 275 18 56 58 87 206 64 298 -5 17 -9 37 -10 45 -6 51
-82 144 -130 159 -92 28 -142 19 -199 -33 l-27 -25 2 125 c3 143 -3 156 -72
138z m275 -298 c46 -30 58 -71 58 -187 -1 -115 -14 -156 -56 -184 -59 -38
-153 -14 -178 46 -7 19 -12 40 -11 48 2 7 0 20 -3 30 -7 17 -8 107 -1 152 7
49 40 92 83 109 25 10 83 2 108 -14z"/>
</g>
</svg>
