<?xml version="1.0" standalone="no"?>
<!DOCTYPE svg PUBLIC "-//W3C//DTD SVG 20010904//EN"
 "http://www.w3.org/TR/2001/REC-SVG-20010904/DTD/svg10.dtd">
<svg version="1.0" xmlns="http://www.w3.org/2000/svg"
 width="101.000000pt" height="101.000000pt" viewBox="0 0 101.000000 101.000000"
 preserveAspectRatio="xMidYMid meet">
<metadata>
Created by potrace 1.16, written by Peter Selinger 2001-2019
</metadata>
<g transform="translate(0.000000,101.000000) scale(0.100000,-0.100000)"
fill="#000000" stroke="none">
<path d="M90 102 c-17 -8 -22 -83 -6 -94 14 -9 95 -8 101 2 8 12 173 11 180
-1 8 -12 142 -12 150 1 8 13 52 13 60 0 8 -13 206 -12 222 2 9 7 36 8 73 5 52
-6 59 -4 65 12 3 11 3 30 0 44 -6 24 -8 24 -155 31 -97 5 -155 4 -168 -3 -11
-6 -58 -8 -113 -6 -90 5 -135 5 -271 3 -35 0 -76 2 -93 5 -16 4 -37 3 -45 -1z"/>
</g>
</svg>
