<?xml version="1.0" standalone="no"?>
<!DOCTYPE svg PUBLIC "-//W3C//DTD SVG 20010904//EN"
 "http://www.w3.org/TR/2001/REC-SVG-20010904/DTD/svg10.dtd">
<svg version="1.0" xmlns="http://www.w3.org/2000/svg"
 width="101.000000pt" height="101.000000pt" viewBox="0 0 101.000000 101.000000"
 preserveAspectRatio="xMidYMid meet">
<metadata>
Created by potrace 1.16, written by Peter Selinger 2001-2019
</metadata>
<g transform="translate(0.000000,101.000000) scale(0.100000,-0.100000)"
fill="#000000" stroke="none">
<path d="M320 734 c-19 -8 -45 -25 -58 -37 -16 -15 -21 -17 -17 -6 10 28 -24
52 -63 45 -20 -3 -39 -11 -43 -17 -10 -17 -9 -98 2 -104 12 -8 10 -167 -3
-182 -7 -9 -8 -55 -3 -137 l7 -125 29 -6 c16 -4 38 -4 49 0 22 7 23 19 25 275
1 97 5 132 18 157 18 34 51 58 67 48 5 -3 18 -2 27 4 21 11 67 -10 77 -34 3
-9 6 -43 6 -76 0 -33 4 -59 10 -59 14 0 13 -47 -1 -52 -8 -3 -10 -39 -4 -130
8 -139 10 -144 71 -132 30 5 33 9 37 52 9 78 8 110 -3 117 -13 8 -13 52 0 60
6 4 9 44 8 95 -1 68 2 94 15 114 19 29 62 52 92 50 11 -1 28 -2 37 -3 32 -2
51 -47 49 -116 -1 -35 3 -66 9 -70 11 -7 12 -153 0 -160 -12 -7 -11 -105 2
-128 8 -16 17 -18 50 -14 22 3 41 7 43 9 10 10 15 197 5 203 -13 8 -13 48 1
62 7 7 9 31 5 65 -3 29 -6 61 -6 71 -3 58 -75 155 -118 158 -17 1 -104 1 -130
0 -7 -1 -32 -19 -56 -41 l-43 -40 -13 25 c-13 24 -104 75 -132 75 -7 -1 -29
-8 -48 -16z"/>
</g>
</svg>
