<?xml version="1.0" standalone="no"?>
<!DOCTYPE svg PUBLIC "-//W3C//DTD SVG 20010904//EN"
 "http://www.w3.org/TR/2001/REC-SVG-20010904/DTD/svg10.dtd">
<svg version="1.0" xmlns="http://www.w3.org/2000/svg"
 width="101.000000pt" height="101.000000pt" viewBox="0 0 101.000000 101.000000"
 preserveAspectRatio="xMidYMid meet">
<metadata>
Created by potrace 1.16, written by Peter Selinger 2001-2019
</metadata>
<g transform="translate(0.000000,101.000000) scale(0.100000,-0.100000)"
fill="#000000" stroke="none">
<path d="M300 934 c-12 -4 -14 -18 -12 -64 3 -39 0 -60 -7 -60 -6 0 -11 -18
-11 -40 0 -22 5 -40 10 -40 6 0 10 -33 10 -80 0 -47 -4 -80 -10 -80 -6 0 -10
-30 -10 -70 0 -40 4 -70 10 -70 14 0 13 -47 -1 -52 -8 -3 -9 -35 -4 -106 7
-97 9 -103 31 -108 13 -3 35 -3 48 0 20 5 26 14 32 51 3 25 3 60 -1 77 -4 18
-6 49 -5 68 0 19 2 74 4 122 5 120 39 167 123 172 92 6 107 -19 104 -175 -1
-72 3 -120 9 -124 13 -8 13 -52 0 -60 -5 -3 -10 -28 -10 -55 0 -56 18 -80 58
-80 56 0 57 3 56 202 -2 238 -1 232 -33 286 -35 59 -76 87 -140 95 -55 7 -96
-6 -144 -43 l-27 -21 2 121 c3 98 0 122 -12 130 -15 10 -42 11 -70 4z"/>
</g>
</svg>
