<?xml version="1.0" standalone="no"?>
<!DOCTYPE svg PUBLIC "-//W3C//DTD SVG 20010904//EN"
 "http://www.w3.org/TR/2001/REC-SVG-20010904/DTD/svg10.dtd">
<svg version="1.0" xmlns="http://www.w3.org/2000/svg"
 width="101.000000pt" height="101.000000pt" viewBox="0 0 101.000000 101.000000"
 preserveAspectRatio="xMidYMid meet">
<metadata>
Created by potrace 1.16, written by Peter Selinger 2001-2019
</metadata>
<g transform="translate(0.000000,101.000000) scale(0.100000,-0.100000)"
fill="#000000" stroke="none">
<path d="M511 729 c-25 -11 -47 -16 -50 -12 -3 4 -27 8 -54 8 -44 0 -47 -2
-52 -30 -3 -16 -3 -77 1 -135 4 -58 6 -169 6 -247 l-1 -143 24 -6 c14 -3 36
-4 49 0 20 5 24 13 29 73 10 99 8 163 -3 163 -5 0 -10 16 -10 35 0 19 5 35 10
35 6 0 10 26 10 59 0 73 21 103 71 106 19 1 39 -3 46 -8 12 -9 23 7 43 58 9
23 6 28 -23 45 -39 24 -41 24 -96 -1z"/>
</g>
</svg>
