<?xml version="1.0" standalone="no"?>
<!DOCTYPE svg PUBLIC "-//W3C//DTD SVG 20010904//EN"
 "http://www.w3.org/TR/2001/REC-SVG-20010904/DTD/svg10.dtd">
<svg version="1.0" xmlns="http://www.w3.org/2000/svg"
 width="101.000000pt" height="102.000000pt" viewBox="0 0 101.000000 102.000000"
 preserveAspectRatio="xMidYMid meet">
<metadata>
Created by potrace 1.16, written by Peter Selinger 2001-2019
</metadata>
<g transform="translate(0.000000,102.000000) scale(0.100000,-0.100000)"
fill="#000000" stroke="none">
<path d="M432 741 c-85 -29 -119 -72 -157 -194 -17 -54 -17 -85 0 -192 4 -31
31 -87 55 -118 33 -42 77 -60 149 -61 54 -1 72 3 106 25 l41 26 -3 -96 c-3
-129 -2 -131 56 -131 l48 0 6 57 c10 92 8 221 -3 228 -13 8 -13 52 0 60 13 8
13 142 1 150 -13 7 -13 173 -1 180 15 10 12 42 -7 60 -12 12 -26 15 -51 11
-38 -6 -55 -22 -46 -46 3 -9 -4 -6 -18 7 -24 22 -92 54 -112 52 -6 0 -35 -9
-64 -18z m173 -134 c9 -15 16 -59 19 -126 8 -162 -23 -213 -131 -213 -93 -1
-125 49 -123 187 1 92 7 123 30 155 22 31 26 33 75 31 17 -1 36 3 44 8 19 12
65 -11 86 -42z"/>
</g>
</svg>
