<?xml version="1.0" standalone="no"?>
<!DOCTYPE svg PUBLIC "-//W3C//DTD SVG 20010904//EN"
 "http://www.w3.org/TR/2001/REC-SVG-20010904/DTD/svg10.dtd">
<svg version="1.0" xmlns="http://www.w3.org/2000/svg"
 width="101.000000pt" height="101.000000pt" viewBox="0 0 101.000000 101.000000"
 preserveAspectRatio="xMidYMid meet">
<metadata>
Created by potrace 1.16, written by Peter Selinger 2001-2019
</metadata>
<g transform="translate(0.000000,101.000000) scale(0.100000,-0.100000)"
fill="#000000" stroke="none">
<path d="M300 732 c-10 -4 -15 -22 -16 -50 -1 -36 3 -43 20 -46 40 -8 71 -6
93 5 15 8 45 9 97 3 l76 -9 -154 -203 c-85 -111 -157 -209 -160 -217 -16 -43
32 -61 131 -51 32 4 74 6 93 5 19 0 82 0 140 1 111 1 122 6 118 50 l-3 25
-133 -3 c-92 -2 -138 0 -148 9 -7 6 -22 9 -33 6 -11 -3 34 65 119 177 176 232
189 252 183 275 -5 21 -5 20 -160 20 -35 0 -91 0 -125 -1 -35 0 -76 2 -93 5
-16 4 -37 3 -45 -1z"/>
</g>
</svg>
