<?xml version="1.0" standalone="no"?>
<!DOCTYPE svg PUBLIC "-//W3C//DTD SVG 20010904//EN"
 "http://www.w3.org/TR/2001/REC-SVG-20010904/DTD/svg10.dtd">
<svg version="1.0" xmlns="http://www.w3.org/2000/svg"
 width="101.000000pt" height="105.000000pt" viewBox="0 0 101.000000 105.000000"
 preserveAspectRatio="xMidYMid meet">
<metadata>
Created by potrace 1.16, written by Peter Selinger 2001-2019
</metadata>
<g transform="translate(0.000000,105.000000) scale(0.100000,-0.100000)"
fill="#000000" stroke="none">
<path d="M0 1030 c0 -12 12 -14 60 -12 39 3 60 0 60 -7 0 -6 18 -11 40 -11 22
0 40 5 40 10 0 6 33 10 80 10 47 0 80 -4 80 -10 0 -6 30 -10 70 -10 40 0 70 4
70 10 0 6 11 10 25 10 14 0 25 -4 25 -10 0 -6 40 -10 100 -10 60 0 100 4 100
10 0 6 30 10 70 10 40 0 70 -4 70 -10 0 -11 69 -14 94 -4 9 3 16 14 16 24 0
18 -21 19 -500 17 -437 -2 -500 -4 -500 -17z"/>
</g>
</svg>
