<?xml version="1.0" standalone="no"?>
<!DOCTYPE svg PUBLIC "-//W3C//DTD SVG 20010904//EN"
 "http://www.w3.org/TR/2001/REC-SVG-20010904/DTD/svg10.dtd">
<svg version="1.0" xmlns="http://www.w3.org/2000/svg"
 width="101.000000pt" height="101.000000pt" viewBox="0 0 101.000000 101.000000"
 preserveAspectRatio="xMidYMid meet">
<metadata>
Created by potrace 1.16, written by Peter Selinger 2001-2019
</metadata>
<g transform="translate(0.000000,101.000000) scale(0.100000,-0.100000)"
fill="#000000" stroke="none">
<path d="M422 935 c-23 -8 -55 -23 -71 -35 -30 -21 -71 -79 -75 -105 -1 -8 -5
-18 -9 -21 -21 -22 -3 -102 49 -220 3 -7 -6 -9 -23 -7 -35 4 -50 -5 -58 -38
-10 -42 17 -61 81 -57 49 3 53 1 50 -17 -8 -39 -24 -71 -70 -133 -49 -66 -51
-78 -17 -121 17 -22 19 -23 49 -7 39 20 122 28 140 14 7 -6 15 -8 18 -5 6 5
82 -17 120 -35 16 -7 35 -3 87 21 37 16 67 33 67 36 0 5 -28 49 -47 74 -1 2
-9 -2 -18 -9 -23 -19 -95 -18 -150 2 -61 22 -101 23 -150 2 l-37 -15 40 48
c34 42 78 113 74 121 -10 15 13 21 98 27 85 7 100 10 105 26 14 44 -2 57 -79
64 -40 4 -93 5 -117 4 l-44 -4 -33 65 c-28 56 -32 72 -28 121 5 67 20 94 61
112 80 36 154 0 194 -94 l21 -48 38 15 c20 9 40 19 44 23 11 10 -45 122 -73
148 -54 49 -163 71 -237 48z"/>
</g>
</svg>
