<?xml version="1.0" standalone="no"?>
<!DOCTYPE svg PUBLIC "-//W3C//DTD SVG 20010904//EN"
 "http://www.w3.org/TR/2001/REC-SVG-20010904/DTD/svg10.dtd">
<svg version="1.0" xmlns="http://www.w3.org/2000/svg"
 width="101.000000pt" height="101.000000pt" viewBox="0 0 101.000000 101.000000"
 preserveAspectRatio="xMidYMid meet">
<metadata>
Created by potrace 1.16, written by Peter Selinger 2001-2019
</metadata>
<g transform="translate(0.000000,101.000000) scale(0.100000,-0.100000)"
fill="#000000" stroke="none">
<path d="M188 933 c-10 -2 -18 -6 -18 -9 0 -2 62 -100 138 -216 76 -117 138
-223 138 -234 0 -20 -7 -23 -84 -29 -59 -5 -87 -3 -97 5 -37 31 -87 -17 -70
-69 8 -26 40 -32 157 -27 60 2 95 0 92 -6 -4 -5 -3 -47 1 -93 6 -78 8 -84 32
-90 52 -13 60 -2 67 95 l8 90 51 1 c29 1 69 0 90 -1 86 -4 115 18 101 75 l-7
27 -78 -7 c-54 -4 -79 -3 -79 4 0 6 -18 11 -39 11 -23 0 -41 5 -44 13 -3 8 56
106 130 218 74 112 138 211 143 219 7 13 -1 15 -48 14 l-57 -2 -105 -171 c-58
-94 -107 -171 -110 -171 -3 0 -53 77 -110 171 -115 189 -129 201 -202 182z"/>
</g>
</svg>
