<?xml version="1.0" standalone="no"?>
<!DOCTYPE svg PUBLIC "-//W3C//DTD SVG 20010904//EN"
 "http://www.w3.org/TR/2001/REC-SVG-20010904/DTD/svg10.dtd">
<svg version="1.0" xmlns="http://www.w3.org/2000/svg"
 width="68.000000pt" height="101.000000pt" viewBox="0 0 68.000000 101.000000"
 preserveAspectRatio="xMidYMid meet">
<metadata>
Created by potrace 1.16, written by Peter Selinger 2001-2019
</metadata>
<g transform="translate(0.000000,101.000000) scale(0.100000,-0.100000)"
fill="#000000" stroke="none">
<path d="M299 933 c-17 -4 -293 -748 -283 -764 6 -11 75 -12 90 -1 6 4 29 57
51 117 33 89 44 109 58 107 10 -2 28 2 40 8 15 8 49 9 115 3 l93 -8 40 -113
c44 -123 52 -131 123 -117 28 5 34 10 29 23 -4 9 -67 179 -141 376 -74 198
-140 363 -147 368 -13 8 -41 9 -68 1z m126 -444 c-8 -12 -82 -12 -90 1 -3 6
-28 9 -56 7 -27 -1 -49 -1 -49 0 0 7 91 266 96 275 4 6 29 -53 56 -131 26 -78
46 -147 43 -152z"/>
</g>
</svg>
