<?xml version="1.0" standalone="no"?>
<!DOCTYPE svg PUBLIC "-//W3C//DTD SVG 20010904//EN"
 "http://www.w3.org/TR/2001/REC-SVG-20010904/DTD/svg10.dtd">
<svg version="1.0" xmlns="http://www.w3.org/2000/svg"
 width="68.000000pt" height="101.000000pt" viewBox="0 0 68.000000 101.000000"
 preserveAspectRatio="xMidYMid meet">
<metadata>
Created by potrace 1.16, written by Peter Selinger 2001-2019
</metadata>
<g transform="translate(0.000000,101.000000) scale(0.100000,-0.100000)"
fill="#000000" stroke="none">
<path d="M90 934 c-12 -3 -14 -18 -12 -64 3 -39 0 -60 -7 -60 -6 0 -11 -18
-11 -40 0 -22 5 -40 10 -40 6 0 10 -33 10 -80 0 -47 -4 -80 -10 -80 -6 0 -10
-30 -10 -70 0 -40 4 -70 10 -70 14 0 13 -47 -1 -52 -8 -3 -9 -33 -3 -108 l9
-105 33 -3 c19 -2 32 1 32 8 0 8 45 9 159 5 146 -5 162 -4 207 15 74 32 111
74 129 150 1 3 5 16 9 30 5 17 0 42 -14 75 -24 56 -52 90 -93 111 l-27 15 36
31 c62 55 79 141 42 216 -44 88 -104 111 -285 110 -76 0 -151 2 -168 5 -16 3
-37 3 -45 1z m311 -94 c73 -14 102 -43 102 -105 0 -100 -28 -117 -201 -119
l-130 -1 -7 78 c-5 55 -4 82 5 92 7 8 10 23 8 33 -4 15 1 17 43 15 26 -2 51 1
54 7 8 13 58 13 126 0z m64 -334 c48 -20 69 -57 68 -122 0 -56 -15 -83 -58
-107 -12 -7 -74 -12 -160 -12 l-140 0 3 58 c3 36 0 57 -7 57 -6 0 -11 11 -11
25 0 14 5 25 10 25 6 0 10 18 10 40 l0 40 49 0 c28 0 53 5 57 11 9 15 132 4
179 -15z"/>
</g>
</svg>
