<?xml version="1.0" standalone="no"?>
<!DOCTYPE svg PUBLIC "-//W3C//DTD SVG 20010904//EN"
 "http://www.w3.org/TR/2001/REC-SVG-20010904/DTD/svg10.dtd">
<svg version="1.0" xmlns="http://www.w3.org/2000/svg"
 width="79.000000pt" height="101.000000pt" viewBox="0 0 79.000000 101.000000"
 preserveAspectRatio="xMidYMid meet">
<metadata>
Created by potrace 1.16, written by Peter Selinger 2001-2019
</metadata>
<g transform="translate(0.000000,101.000000) scale(0.100000,-0.100000)"
fill="#000000" stroke="none">
<path d="M396 945 c-15 -8 -41 -14 -59 -13 -71 3 -176 -67 -223 -148 -24 -40
-52 -116 -59 -154 -1 -8 -6 -24 -10 -34 -14 -31 12 -169 43 -238 42 -91 129
-165 217 -184 11 -2 34 -7 50 -11 109 -25 289 29 361 109 24 26 41 112 24 123
-13 8 -13 52 0 60 13 8 13 95 0 115 -13 22 -316 22 -331 0 -9 -14 -5 -68 7
-79 3 -3 54 -6 112 -6 l107 0 0 -78 c0 -74 -2 -80 -28 -103 -43 -37 -114 -53
-204 -47 -120 9 -180 48 -224 148 -18 41 -22 67 -21 149 1 89 4 105 32 162 22
46 43 72 74 94 24 16 46 27 49 24 3 -3 15 0 27 6 11 6 44 13 73 16 41 3 63 -1
103 -21 50 -24 103 -84 118 -132 4 -13 11 -23 16 -23 7 0 70 26 88 36 7 4 -48
102 -72 131 -39 47 -128 91 -197 97 -14 1 -30 5 -35 9 -6 3 -23 0 -38 -8z"/>
</g>
</svg>
