<?xml version="1.0" standalone="no"?>
<!DOCTYPE svg PUBLIC "-//W3C//DTD SVG 20010904//EN"
 "http://www.w3.org/TR/2001/REC-SVG-20010904/DTD/svg10.dtd">
<svg version="1.0" xmlns="http://www.w3.org/2000/svg"
 width="73.000000pt" height="101.000000pt" viewBox="0 0 73.000000 101.000000"
 preserveAspectRatio="xMidYMid meet">
<metadata>
Created by potrace 1.16, written by Peter Selinger 2001-2019
</metadata>
<g transform="translate(0.000000,101.000000) scale(0.100000,-0.100000)"
fill="#000000" stroke="none">
<path d="M88 933 c-24 -6 -29 -49 -22 -173 3 -58 5 -150 4 -205 -4 -244 1
-379 13 -387 17 -11 59 -10 77 2 12 8 15 39 15 177 l0 168 80 2 c89 2 128 2
230 1 l70 -1 -2 -82 c-2 -44 1 -124 5 -176 7 -89 8 -94 31 -97 12 -2 34 -1 48
3 l26 6 -8 100 c-4 68 -3 99 4 99 7 0 11 35 11 100 0 60 -4 100 -10 100 -5 0
-10 11 -10 25 0 14 5 25 10 25 6 0 10 30 10 70 0 40 -4 70 -10 70 -5 0 -10 16
-10 35 0 19 5 35 11 35 6 0 9 19 7 47 l-3 47 -53 1 c-47 0 -54 -3 -59 -23 -3
-12 0 -29 6 -36 12 -15 13 -71 4 -188 l-6 -68 -192 3 -192 2 -7 93 c-5 56 -3
98 2 105 16 19 12 95 -4 112 -15 15 -41 17 -76 8z"/>
</g>
</svg>
