<?xml version="1.0" standalone="no"?>
<!DOCTYPE svg PUBLIC "-//W3C//DTD SVG 20010904//EN"
 "http://www.w3.org/TR/2001/REC-SVG-20010904/DTD/svg10.dtd">
<svg version="1.0" xmlns="http://www.w3.org/2000/svg"
 width="51.000000pt" height="101.000000pt" viewBox="0 0 51.000000 101.000000"
 preserveAspectRatio="xMidYMid meet">
<metadata>
Created by potrace 1.16, written by Peter Selinger 2001-2019
</metadata>
<g transform="translate(0.000000,101.000000) scale(0.100000,-0.100000)"
fill="#000000" stroke="none">
<path d="M370 934 c-12 -4 -14 -18 -12 -64 3 -39 0 -60 -7 -60 -6 0 -11 -18
-11 -40 0 -22 5 -40 10 -40 6 0 10 -33 10 -80 0 -51 -4 -80 -11 -80 -7 0 -10
-34 -9 -102 3 -127 -2 -155 -33 -185 -35 -35 -119 -38 -158 -6 -25 21 -39 47
-44 78 -8 46 -18 56 -50 52 -45 -6 -55 -14 -55 -45 0 -37 42 -124 74 -154 34
-31 136 -63 168 -52 13 4 26 7 30 6 15 -4 85 31 110 55 44 42 71 122 64 190
-7 62 -8 169 -4 381 3 152 -3 164 -72 146z"/>
</g>
</svg>
