<?xml version="1.0" standalone="no"?>
<!DOCTYPE svg PUBLIC "-//W3C//DTD SVG 20010904//EN"
 "http://www.w3.org/TR/2001/REC-SVG-20010904/DTD/svg10.dtd">
<svg version="1.0" xmlns="http://www.w3.org/2000/svg"
 width="68.000000pt" height="101.000000pt" viewBox="0 0 68.000000 101.000000"
 preserveAspectRatio="xMidYMid meet">
<metadata>
Created by potrace 1.16, written by Peter Selinger 2001-2019
</metadata>
<g transform="translate(0.000000,101.000000) scale(0.100000,-0.100000)"
fill="#000000" stroke="none">
<path d="M88 933 c-10 -2 -20 -18 -23 -36 -5 -29 -4 -70 10 -322 3 -44 0 -96
-6 -116 -8 -25 -9 -76 -3 -165 9 -125 10 -129 33 -132 12 -2 34 -1 48 3 l26 6
-7 95 c-5 68 -4 99 5 110 6 7 9 22 6 33 -7 27 110 143 123 121 5 -8 57 -91
117 -185 78 -122 116 -172 134 -179 27 -9 99 0 99 12 0 5 -67 104 -149 222
l-150 214 145 152 c79 83 144 153 144 155 0 2 -30 4 -66 4 l-66 0 -166 -183
c-90 -100 -167 -181 -169 -179 -9 10 -14 239 -5 250 16 19 13 95 -4 112 -15
15 -41 17 -76 8z"/>
</g>
</svg>
