<?xml version="1.0" standalone="no"?>
<!DOCTYPE svg PUBLIC "-//W3C//DTD SVG 20010904//EN"
 "http://www.w3.org/TR/2001/REC-SVG-20010904/DTD/svg10.dtd">
<svg version="1.0" xmlns="http://www.w3.org/2000/svg"
 width="101.000000pt" height="101.000000pt" viewBox="0 0 101.000000 101.000000"
 preserveAspectRatio="xMidYMid meet">
<metadata>
Created by potrace 1.16, written by Peter Selinger 2001-2019
</metadata>
<g transform="translate(0.000000,101.000000) scale(0.100000,-0.100000)"
fill="#000000" stroke="none">
<path d="M549 922 c-8 -4 -43 -36 -76 -72 l-61 -65 63 0 62 0 43 64 c33 50 39
66 28 72 -15 10 -37 10 -59 1z"/>
<path d="M320 734 c-19 -8 -46 -25 -59 -37 -13 -12 -21 -17 -18 -10 13 21 -4
41 -39 47 -53 10 -74 -6 -74 -59 0 -25 5 -45 10 -45 6 0 10 -16 10 -35 0 -19
-4 -35 -10 -35 -6 0 -10 -30 -10 -70 0 -40 4 -70 10 -70 14 0 13 -47 -1 -52
-8 -3 -9 -33 -4 -100 8 -106 13 -113 71 -102 30 5 33 9 37 52 9 78 8 110 -3
117 -13 8 -13 52 0 60 6 4 10 41 9 88 -2 61 2 90 15 115 19 36 70 64 104 57
26 -5 62 -24 63 -33 0 -4 3 -16 5 -27 6 -22 14 -247 13 -358 0 -76 7 -84 66
-73 34 7 35 8 29 46 -4 23 -2 45 4 53 13 15 14 115 1 123 -12 7 -11 51 1 59 6
4 10 35 9 70 -3 96 42 148 121 139 51 -6 70 -34 70 -105 0 -33 4 -59 10 -59 6
0 10 -11 10 -25 0 -14 -4 -25 -10 -25 -6 0 -10 -30 -10 -70 0 -40 4 -70 10
-70 14 0 13 -47 -1 -52 -7 -2 -8 -17 -4 -38 6 -34 8 -35 54 -35 l47 0 2 75 c5
330 5 329 -15 379 -23 56 -62 90 -121 107 -49 14 -57 14 -95 -1 -23 -9 -58
-32 -78 -51 l-35 -34 -14 25 c-13 24 -104 75 -132 75 -7 -1 -29 -8 -48 -16z"/>
</g>
</svg>
