<?xml version="1.0" standalone="no"?>
<!DOCTYPE svg PUBLIC "-//W3C//DTD SVG 20010904//EN"
 "http://www.w3.org/TR/2001/REC-SVG-20010904/DTD/svg10.dtd">
<svg version="1.0" xmlns="http://www.w3.org/2000/svg"
 width="101.000000pt" height="101.000000pt" viewBox="0 0 101.000000 101.000000"
 preserveAspectRatio="xMidYMid meet">
<metadata>
Created by potrace 1.16, written by Peter Selinger 2001-2019
</metadata>
<g transform="translate(0.000000,101.000000) scale(0.100000,-0.100000)"
fill="#000000" stroke="none">
<path d="M141 908 c-6 -19 -13 -44 -16 -54 -2 -10 -7 -30 -10 -44 -4 -14 -8
-34 -10 -45 -2 -11 -4 -20 -5 -20 -2 0 -4 -9 -6 -20 -16 -98 -17 -95 4 -95 15
0 38 32 91 125 39 69 71 131 71 139 0 21 -22 34 -67 42 -40 6 -41 5 -52 -28z"/>
</g>
</svg>
