<?xml version="1.0" standalone="no"?>
<!DOCTYPE svg PUBLIC "-//W3C//DTD SVG 20010904//EN"
 "http://www.w3.org/TR/2001/REC-SVG-20010904/DTD/svg10.dtd">
<svg version="1.0" xmlns="http://www.w3.org/2000/svg"
 width="101.000000pt" height="101.000000pt" viewBox="0 0 101.000000 101.000000"
 preserveAspectRatio="xMidYMid meet">
<metadata>
Created by potrace 1.16, written by Peter Selinger 2001-2019
</metadata>
<g transform="translate(0.000000,101.000000) scale(0.100000,-0.100000)"
fill="#000000" stroke="none">
<path d="M678 955 c-2 -3 -21 -7 -42 -9 -42 -6 -131 -46 -161 -73 -53 -47
-107 -148 -118 -223 -2 -11 -6 -23 -10 -26 -12 -12 -8 -64 4 -64 9 0 10 -21 6
-70 -5 -58 -2 -79 18 -130 31 -80 72 -130 134 -164 115 -62 232 -59 333 10 52
36 118 147 118 199 0 13 -76 44 -83 34 -2 -2 -18 -35 -36 -72 -44 -91 -87
-121 -172 -118 -95 3 -149 40 -194 133 -20 42 -22 58 -19 150 5 134 10 160 33
206 20 40 82 101 104 103 7 1 26 0 44 -1 17 -1 40 3 51 9 42 23 120 -42 160
-131 13 -32 20 -33 68 -13 30 12 34 18 28 37 -25 84 -75 143 -151 179 -36 17
-67 28 -70 25 -3 -3 -13 -1 -23 4 -10 5 -19 7 -22 5z"/>
<path d="M98 917 c-30 -18 -68 -86 -68 -122 0 -36 44 -99 85 -122 83 -47 171
-15 211 75 l24 52 -24 53 c-13 31 -33 58 -49 66 -39 21 -143 20 -179 -2z m142
-63 c19 -19 18 -74 0 -97 -14 -17 -27 -21 -56 -19 -22 2 -43 7 -47 12 -14 13
-15 84 -1 100 14 17 89 19 104 4z"/>
</g>
</svg>
