<?xml version="1.0" standalone="no"?>
<!DOCTYPE svg PUBLIC "-//W3C//DTD SVG 20010904//EN"
 "http://www.w3.org/TR/2001/REC-SVG-20010904/DTD/svg10.dtd">
<svg version="1.0" xmlns="http://www.w3.org/2000/svg"
 width="101.000000pt" height="101.000000pt" viewBox="0 0 101.000000 101.000000"
 preserveAspectRatio="xMidYMid meet">
<metadata>
Created by potrace 1.16, written by Peter Selinger 2001-2019
</metadata>
<g transform="translate(0.000000,101.000000) scale(0.100000,-0.100000)"
fill="#000000" stroke="none">
<path d="M99 1002 c-15 -6 -6 -42 72 -282 155 -478 192 -585 203 -592 6 -4 29
-8 51 -8 22 0 45 4 51 8 6 4 72 195 148 424 75 230 139 423 141 430 4 10 -11
13 -60 13 -63 0 -65 -1 -75 -30 -5 -16 -10 -32 -10 -35 1 -3 -6 -25 -15 -50
-9 -25 -19 -56 -21 -69 -3 -14 -7 -28 -10 -33 -3 -4 -7 -17 -9 -28 -2 -11 -15
-58 -29 -103 -14 -45 -26 -86 -27 -92 -1 -5 -8 -28 -16 -50 -8 -22 -17 -51
-19 -65 -3 -13 -10 -30 -15 -37 -6 -7 -9 -16 -6 -20 2 -4 -4 -30 -14 -58 -14
-41 -27 -42 -20 -1 1 4 -2 13 -8 20 -8 9 -76 228 -86 275 -2 9 -10 35 -18 58
-9 22 -13 44 -10 47 3 3 1 11 -5 18 -10 13 -64 181 -66 208 -3 32 -22 48 -66
54 -25 3 -52 2 -61 -2z"/>
<path d="M820 1003 c-8 -3 -18 -11 -22 -16 -9 -15 -8 -96 2 -102 12 -8 11
-173 -1 -180 -12 -8 -12 -142 1 -150 13 -8 13 -52 0 -60 -13 -8 -12 -206 2
-222 7 -9 8 -37 4 -78 l-6 -64 34 -6 c19 -4 44 -4 56 0 21 7 22 10 15 100 -4
61 -3 95 4 99 13 8 14 213 1 221 -13 8 -13 52 0 60 13 8 13 142 1 150 -13 7
-13 173 -1 180 15 9 12 42 -6 59 -15 16 -55 20 -84 9z"/>
</g>
</svg>
