<?xml version="1.0" standalone="no"?>
<!DOCTYPE svg PUBLIC "-//W3C//DTD SVG 20010904//EN"
 "http://www.w3.org/TR/2001/REC-SVG-20010904/DTD/svg10.dtd">
<svg version="1.0" xmlns="http://www.w3.org/2000/svg"
 width="101.000000pt" height="101.000000pt" viewBox="0 0 101.000000 101.000000"
 preserveAspectRatio="xMidYMid meet">
<metadata>
Created by potrace 1.16, written by Peter Selinger 2001-2019
</metadata>
<g transform="translate(0.000000,101.000000) scale(0.100000,-0.100000)"
fill="#000000" stroke="none">
<path d="M88 1003 c-10 -2 -18 -6 -18 -7 0 -2 48 -87 106 -190 58 -104 110
-198 116 -211 9 -21 -4 -49 -112 -241 -96 -169 -119 -218 -109 -225 21 -13 83
-11 103 4 9 7 57 86 105 176 l89 163 35 -63 c19 -35 61 -113 93 -174 l59 -110
40 -3 c23 -2 51 1 63 5 21 8 17 17 -97 223 -66 117 -118 222 -116 232 2 9 52
104 111 210 59 106 108 195 109 198 2 3 -25 5 -59 5 l-63 0 -84 -157 c-46 -87
-86 -154 -90 -150 -4 4 -41 72 -84 152 -42 80 -80 148 -84 152 -8 9 -92 18
-113 11z"/>
<path d="M718 1003 c-22 -5 -34 -48 -20 -66 14 -16 14 -174 1 -182 -12 -8 -12
-142 1 -150 13 -8 13 -52 0 -60 -13 -8 -12 -213 1 -221 7 -4 8 -38 4 -99 l-7
-93 31 -7 c41 -9 68 1 75 28 10 37 7 147 -4 147 -6 0 -10 30 -10 70 0 40 4 70
10 70 6 0 10 40 10 100 0 60 -4 100 -10 100 -5 0 -10 11 -10 25 0 14 5 25 10
25 6 0 10 30 10 70 0 40 -4 70 -10 70 -5 0 -10 16 -10 35 0 19 5 35 10 35 6 0
10 20 10 45 0 57 -28 75 -92 58z"/>
<path d="M837 996 c-12 -13 -16 -40 -16 -125 -1 -63 3 -113 9 -116 13 -8 13
-52 0 -60 -12 -7 -12 -213 0 -220 12 -8 11 -146 -1 -161 -15 -19 -6 -173 11
-184 14 -9 88 -4 100 7 3 3 4 46 3 96 -3 93 -3 171 -3 395 1 183 1 190 3 279
1 45 0 83 -3 86 -3 3 -24 8 -46 12 -31 5 -45 2 -57 -9z"/>
</g>
</svg>
