<?xml version="1.0" standalone="no"?>
<!DOCTYPE svg PUBLIC "-//W3C//DTD SVG 20010904//EN"
 "http://www.w3.org/TR/2001/REC-SVG-20010904/DTD/svg10.dtd">
<svg version="1.0" xmlns="http://www.w3.org/2000/svg"
 width="101.000000pt" height="101.000000pt" viewBox="0 0 101.000000 101.000000"
 preserveAspectRatio="xMidYMid meet">
<metadata>
Created by potrace 1.16, written by Peter Selinger 2001-2019
</metadata>
<g transform="translate(0.000000,101.000000) scale(0.100000,-0.100000)"
fill="#000000" stroke="none">
<path d="M339 1004 c-32 -9 -40 -102 -12 -129 12 -13 28 -16 60 -12 24 2 45 6
47 8 8 10 15 105 8 116 -8 13 -77 24 -103 17z"/>
<path d="M556 983 c-3 -7 -2 -35 1 -62 5 -48 8 -51 39 -57 56 -10 82 1 89 40
4 18 5 46 3 61 -3 28 -4 29 -65 29 -41 1 -64 -3 -67 -11z"/>
<path d="M340 763 c-8 -3 -18 -11 -22 -17 -11 -16 -10 -104 2 -111 11 -7 12
-153 0 -160 -12 -7 -12 -153 0 -160 12 -8 13 -52 1 -59 -5 -3 -9 -28 -9 -56
-1 -59 16 -80 63 -80 62 0 63 1 57 106 -3 66 -1 94 7 94 7 0 11 19 11 50 0 28
-4 50 -10 50 -5 0 -10 11 -10 25 0 14 5 25 10 25 6 0 10 30 10 70 0 40 -4 70
-10 70 -5 0 -10 11 -10 25 0 14 5 25 10 25 12 0 14 87 2 94 -15 9 -86 16 -102
9z"/>
<path d="M570 760 c-12 -8 -15 -33 -13 -137 1 -70 2 -144 3 -163 0 -19 0 -69
1 -110 1 -223 0 -218 26 -225 13 -3 40 -3 59 1 l36 7 -7 128 c-5 87 -4 133 3
142 13 15 14 115 1 123 -12 7 -11 51 1 59 16 10 10 153 -7 170 -16 17 -80 20
-103 5z"/>
</g>
</svg>
