<?xml version="1.0" standalone="no"?>
<!DOCTYPE svg PUBLIC "-//W3C//DTD SVG 20010904//EN"
 "http://www.w3.org/TR/2001/REC-SVG-20010904/DTD/svg10.dtd">
<svg version="1.0" xmlns="http://www.w3.org/2000/svg"
 width="101.000000pt" height="101.000000pt" viewBox="0 0 101.000000 101.000000"
 preserveAspectRatio="xMidYMid meet">
<metadata>
Created by potrace 1.16, written by Peter Selinger 2001-2019
</metadata>
<g transform="translate(0.000000,101.000000) scale(0.100000,-0.100000)"
fill="#000000" stroke="none">
<path d="M190 992 c-11 -5 -15 -23 -15 -64 -1 -64 7 -72 61 -62 39 7 50 33 40
88 -8 43 -42 58 -86 38z"/>
<path d="M180 761 c-12 -8 -15 -29 -13 -93 1 -46 2 -100 2 -120 0 -21 0 -93 1
-160 1 -287 -2 -275 65 -262 30 5 33 9 38 56 4 28 2 58 -3 67 -5 9 -6 55 -4
101 7 126 10 398 4 403 -11 11 -76 17 -90 8z"/>
<path d="M295 759 c-8 -12 192 -608 211 -628 10 -11 23 -13 61 -5 l47 9 108
305 c59 168 108 308 108 312 0 11 -67 21 -93 14 -17 -4 -27 -19 -40 -58 -9
-29 -17 -57 -18 -63 -1 -5 -15 -48 -31 -95 -16 -47 -31 -94 -33 -104 -3 -11
-17 -56 -32 -100 l-27 -81 -18 60 c-10 33 -20 67 -21 75 -2 8 -14 49 -27 90
-12 41 -23 82 -25 90 -1 8 -7 27 -13 43 -6 15 -14 38 -16 50 -7 36 -26 81 -39
89 -18 12 -95 9 -102 -3z"/>
</g>
</svg>
