<?xml version="1.0" standalone="no"?>
<!DOCTYPE svg PUBLIC "-//W3C//DTD SVG 20010904//EN"
 "http://www.w3.org/TR/2001/REC-SVG-20010904/DTD/svg10.dtd">
<svg version="1.0" xmlns="http://www.w3.org/2000/svg"
 width="101.000000pt" height="101.000000pt" viewBox="0 0 101.000000 101.000000"
 preserveAspectRatio="xMidYMid meet">
<metadata>
Created by potrace 1.16, written by Peter Selinger 2001-2019
</metadata>
<g transform="translate(0.000000,101.000000) scale(0.100000,-0.100000)"
fill="#000000" stroke="none">
<path d="M750 1002 c-11 -5 -15 -24 -15 -69 0 -71 5 -76 66 -67 31 5 41 12 45
31 6 23 0 91 -9 100 -9 8 -72 12 -87 5z"/>
<path d="M173 774 c-7 -3 -13 -11 -13 -17 0 -22 214 -622 224 -629 18 -12 81
-9 98 4 8 7 65 152 127 322 85 235 108 311 99 318 -20 12 -94 9 -105 -4 -10
-13 -54 -137 -60 -168 -1 -8 -27 -87 -56 -174 l-53 -160 -14 50 c-8 27 -15 51
-15 54 -1 3 -16 52 -34 110 -19 58 -35 112 -36 120 -1 8 -7 27 -13 43 -6 15
-14 38 -16 50 -9 48 -26 77 -45 77 -10 0 -31 2 -47 5 -16 2 -35 2 -41 -1z"/>
<path d="M740 770 c-12 -7 -15 -28 -13 -92 1 -46 2 -100 2 -120 0 -21 1 -93 1
-160 1 -292 -1 -266 30 -273 15 -3 39 -3 52 0 22 6 26 13 31 62 3 31 2 64 -3
73 -5 9 -6 54 -4 100 3 47 6 156 7 243 2 131 -1 159 -13 167 -19 12 -71 12
-90 0z"/>
</g>
</svg>
