<?xml version="1.0" standalone="no"?>
<!DOCTYPE svg PUBLIC "-//W3C//DTD SVG 20010904//EN"
 "http://www.w3.org/TR/2001/REC-SVG-20010904/DTD/svg10.dtd">
<svg version="1.0" xmlns="http://www.w3.org/2000/svg"
 width="68.000000pt" height="101.000000pt" viewBox="0 0 68.000000 101.000000"
 preserveAspectRatio="xMidYMid meet">
<metadata>
Created by potrace 1.16, written by Peter Selinger 2001-2019
</metadata>
<g transform="translate(0.000000,101.000000) scale(0.100000,-0.100000)"
fill="#000000" stroke="none">
<path d="M27 933 c-9 -2 -17 -9 -17 -15 0 -23 271 -742 283 -750 13 -9 67 -2
78 10 4 4 66 162 137 352 72 190 135 356 140 370 10 25 9 25 -43 25 l-53 0
-107 -295 c-58 -162 -107 -300 -108 -307 -4 -18 -14 -25 -14 -10 0 25 -214
612 -226 619 -13 8 -41 9 -70 1z"/>
</g>
</svg>
