<?xml version="1.0" standalone="no"?>
<!DOCTYPE svg PUBLIC "-//W3C//DTD SVG 20010904//EN"
 "http://www.w3.org/TR/2001/REC-SVG-20010904/DTD/svg10.dtd">
<svg version="1.0" xmlns="http://www.w3.org/2000/svg"
 width="101.000000pt" height="105.000000pt" viewBox="0 0 101.000000 105.000000"
 preserveAspectRatio="xMidYMid meet">
<metadata>
Created by potrace 1.16, written by Peter Selinger 2001-2019
</metadata>
<g transform="translate(0.000000,105.000000) scale(0.100000,-0.100000)"
fill="#000000" stroke="none">
<path d="M731 630 c-134 -231 -245 -420 -246 -420 -2 0 -68 124 -146 276 -79
152 -148 278 -154 280 -19 8 -184 -89 -185 -108 0 -28 16 -29 62 -3 23 14 48
25 54 25 6 0 82 -135 169 -300 110 -209 162 -300 172 -298 9 2 136 211 283
466 256 444 285 502 246 502 -6 0 -121 -189 -255 -420z"/>
</g>
</svg>
