<?xml version="1.0" standalone="no"?>
<!DOCTYPE svg PUBLIC "-//W3C//DTD SVG 20010904//EN"
 "http://www.w3.org/TR/2001/REC-SVG-20010904/DTD/svg10.dtd">
<svg version="1.0" xmlns="http://www.w3.org/2000/svg"
 width="101.000000pt" height="101.000000pt" viewBox="0 0 101.000000 101.000000"
 preserveAspectRatio="xMidYMid meet">
<metadata>
Created by potrace 1.16, written by Peter Selinger 2001-2019
</metadata>
<g transform="translate(0.000000,101.000000) scale(0.100000,-0.100000)"
fill="#000000" stroke="none">
<path d="M296 704 c-22 -8 -48 -22 -59 -32 -17 -15 -60 -89 -60 -102 0 -3 -2
-11 -4 -18 -5 -12 -2 -40 10 -89 8 -32 33 -76 53 -95 26 -22 91 -48 123 -48
38 0 101 39 136 86 l31 40 26 -38 c34 -47 77 -69 143 -74 42 -3 59 1 85 19 19
12 35 27 37 33 4 12 -69 24 -143 24 -32 0 -49 7 -81 35 -49 42 -50 62 -5 127
37 54 82 77 134 71 49 -7 88 3 88 22 0 24 -31 31 -117 28 -94 -3 -120 -15
-164 -77 -16 -21 -29 -33 -29 -25 0 24 -59 88 -101 109 -44 23 -51 23 -103 4z
m121 -82 c33 -18 61 -59 58 -86 -4 -34 -60 -113 -88 -122 -12 -4 -42 -7 -66
-7 -65 1 -93 33 -94 107 -1 46 4 60 24 82 13 14 32 29 41 33 27 10 101 6 125
-7z"/>
</g>
</svg>
