<?xml version="1.0" standalone="no"?>
<!DOCTYPE svg PUBLIC "-//W3C//DTD SVG 20010904//EN"
 "http://www.w3.org/TR/2001/REC-SVG-20010904/DTD/svg10.dtd">
<svg version="1.0" xmlns="http://www.w3.org/2000/svg"
 width="101.000000pt" height="101.000000pt" viewBox="0 0 101.000000 101.000000"
 preserveAspectRatio="xMidYMid meet">
<metadata>
Created by potrace 1.16, written by Peter Selinger 2001-2019
</metadata>
<g transform="translate(0.000000,101.000000) scale(0.100000,-0.100000)"
fill="#000000" stroke="none">
<path d="M388 515 l-238 -314 33 -6 c17 -3 79 -3 137 1 143 8 287 7 333 -1 21
-4 71 -4 112 0 71 6 75 8 75 32 l0 25 -122 -2 c-68 -1 -151 -1 -185 -1 -35 0
-93 0 -130 0 -111 1 -142 4 -135 16 4 8 348 463 395 523 11 13 -7 42 -27 42
-6 0 -118 -142 -248 -315z"/>
</g>
</svg>
