<?xml version="1.0" standalone="no"?>
<!DOCTYPE svg PUBLIC "-//W3C//DTD SVG 20010904//EN"
 "http://www.w3.org/TR/2001/REC-SVG-20010904/DTD/svg10.dtd">
<svg version="1.0" xmlns="http://www.w3.org/2000/svg"
 width="101.000000pt" height="101.000000pt" viewBox="0 0 101.000000 101.000000"
 preserveAspectRatio="xMidYMid meet">
<metadata>
Created by potrace 1.16, written by Peter Selinger 2001-2019
</metadata>
<g transform="translate(0.000000,101.000000) scale(0.100000,-0.100000)"
fill="#000000" stroke="none">
<path d="M547 879 c-18 -13 -33 -42 -47 -89 -11 -38 -19 -72 -18 -77 1 -4 -2
-19 -6 -32 -5 -14 -3 -32 4 -46 10 -19 10 -42 0 -112 -6 -48 -14 -140 -17
-203 -5 -120 -10 -198 -17 -240 -2 -14 -5 -28 -5 -32 -1 -4 -12 -2 -26 4 -33
15 -56 -3 -39 -30 30 -47 83 -16 111 65 23 63 22 62 29 143 3 30 7 81 10 113
4 38 2 57 -5 57 -6 0 -11 16 -11 35 0 20 5 35 11 35 9 0 10 25 5 89 -4 55 -3
92 3 96 6 3 10 29 11 58 0 29 2 69 3 90 4 41 20 66 31 48 10 -16 43 -13 50 4
6 16 -18 45 -38 45 -7 0 -25 -9 -39 -21z"/>
</g>
</svg>
