<?xml version="1.0" standalone="no"?>
<!DOCTYPE svg PUBLIC "-//W3C//DTD SVG 20010904//EN"
 "http://www.w3.org/TR/2001/REC-SVG-20010904/DTD/svg10.dtd">
<svg version="1.0" xmlns="http://www.w3.org/2000/svg"
 width="101.000000pt" height="101.000000pt" viewBox="0 0 101.000000 101.000000"
 preserveAspectRatio="xMidYMid meet">
<metadata>
Created by potrace 1.16, written by Peter Selinger 2001-2019
</metadata>
<g transform="translate(0.000000,101.000000) scale(0.100000,-0.100000)"
fill="#000000" stroke="none">
<path d="M332 619 c-66 -26 -85 -52 -76 -108 7 -45 10 -48 33 -27 21 19 102
47 114 39 6 -3 20 -7 31 -9 12 -2 49 -15 83 -29 51 -21 72 -25 112 -19 94 12
131 53 117 129 l-7 34 -44 -28 c-50 -32 -111 -34 -164 -7 -39 20 -113 46 -131
45 -8 0 -39 -9 -68 -20z"/>
</g>
</svg>
