<?xml version="1.0" standalone="no"?>
<!DOCTYPE svg PUBLIC "-//W3C//DTD SVG 20010904//EN"
 "http://www.w3.org/TR/2001/REC-SVG-20010904/DTD/svg10.dtd">
<svg version="1.0" xmlns="http://www.w3.org/2000/svg"
 width="101.000000pt" height="101.000000pt" viewBox="0 0 101.000000 101.000000"
 preserveAspectRatio="xMidYMid meet">
<metadata>
Created by potrace 1.16, written by Peter Selinger 2001-2019
</metadata>
<g transform="translate(0.000000,101.000000) scale(0.100000,-0.100000)"
fill="#000000" stroke="none">
<path d="M763 791 c-35 -10 -63 -16 -63 -14 0 2 -8 -1 -18 -6 -17 -9 -48 -17
-92 -25 -8 -1 -26 -7 -40 -13 -14 -6 -41 -14 -60 -19 -45 -10 -38 -8 -90 -23
-25 -7 -52 -14 -60 -16 -8 -2 -27 -8 -41 -13 -15 -6 -30 -8 -33 -5 -3 3 -11 1
-18 -4 -7 -6 -28 -14 -46 -18 -64 -13 -67 -75 -4 -96 20 -7 37 -12 37 -11 0 0
135 -37 300 -82 313 -87 326 -88 306 -35 -7 20 -30 29 -167 67 -87 23 -170 45
-184 48 -14 2 -43 10 -65 18 -22 7 -66 19 -98 26 -63 13 -67 18 -19 24 16 3
40 9 51 16 12 6 26 8 31 5 5 -3 22 1 38 9 16 8 40 17 53 20 13 2 44 11 69 19
25 7 50 12 57 10 6 -2 27 4 45 13 18 9 33 16 33 14 0 -2 16 2 35 8 19 6 46 13
60 16 49 8 56 16 56 51 -1 19 -3 35 -6 34 -3 0 -33 -8 -67 -18z"/>
<path d="M160 432 c0 -6 -2 -16 -5 -24 -3 -7 -1 -19 3 -26 5 -7 159 -55 343
-106 349 -98 361 -99 341 -46 -7 20 -49 34 -323 111 -173 49 -324 92 -336 95
-13 4 -23 2 -23 -4z"/>
</g>
</svg>
