<?xml version="1.0" standalone="no"?>
<!DOCTYPE svg PUBLIC "-//W3C//DTD SVG 20010904//EN"
 "http://www.w3.org/TR/2001/REC-SVG-20010904/DTD/svg10.dtd">
<svg version="1.0" xmlns="http://www.w3.org/2000/svg"
 width="101.000000pt" height="101.000000pt" viewBox="0 0 101.000000 101.000000"
 preserveAspectRatio="xMidYMid meet">
<metadata>
Created by potrace 1.16, written by Peter Selinger 2001-2019
</metadata>
<g transform="translate(0.000000,101.000000) scale(0.100000,-0.100000)"
fill="#000000" stroke="none">
<path d="M404 906 c-40 -13 -88 -33 -108 -45 -77 -48 -140 -146 -163 -253 -28
-137 69 -322 200 -378 71 -30 82 -34 92 -35 6 -1 18 -5 28 -10 44 -19 205 28
272 80 50 38 83 85 116 166 37 92 37 157 -2 252 -49 121 -113 182 -227 217
-99 31 -129 32 -208 6z m152 -47 c7 -6 17 -8 22 -5 15 9 106 -41 144 -80 52
-55 76 -115 78 -199 1 -38 1 -72 0 -75 -1 -3 -4 -17 -5 -32 -10 -76 -99 -174
-185 -203 -56 -19 -132 -24 -175 -13 -16 4 -34 8 -40 9 -51 6 -136 81 -171
151 -36 70 -42 139 -20 235 21 95 118 190 211 207 15 3 29 6 31 8 8 9 100 6
110 -3z"/>
<path d="M455 595 c-32 -31 -31 -50 1 -81 19 -20 31 -24 52 -20 30 7 62 40 62
63 0 21 -46 63 -70 63 -11 0 -32 -11 -45 -25z"/>
</g>
</svg>
