<?xml version="1.0" standalone="no"?>
<!DOCTYPE svg PUBLIC "-//W3C//DTD SVG 20010904//EN"
 "http://www.w3.org/TR/2001/REC-SVG-20010904/DTD/svg10.dtd">
<svg version="1.0" xmlns="http://www.w3.org/2000/svg"
 width="62.000000pt" height="101.000000pt" viewBox="0 0 62.000000 101.000000"
 preserveAspectRatio="xMidYMid meet">
<metadata>
Created by potrace 1.16, written by Peter Selinger 2001-2019
</metadata>
<g transform="translate(0.000000,101.000000) scale(0.100000,-0.100000)"
fill="#000000" stroke="none">
<path d="M60 932 c-17 -8 -22 -83 -6 -94 14 -10 95 -8 101 3 8 12 167 10 182
-3 7 -5 32 -8 57 -7 l43 4 -62 -90 c-229 -328 -365 -530 -365 -539 1 -34 19
-41 102 -39 46 1 101 2 123 2 383 -3 368 -5 363 56 -3 24 -9 31 -33 36 -48 10
-163 10 -170 0 -8 -13 -166 -13 -182 1 -7 6 -22 8 -33 5 -14 -4 11 39 85 146
311 453 317 462 310 490 -7 27 -7 27 -99 26 -50 0 -119 0 -153 0 -35 0 -91 0
-125 -1 -35 0 -76 2 -93 5 -16 4 -37 3 -45 -1z"/>
</g>
</svg>
