<?xml version="1.0" standalone="no"?>
<!DOCTYPE svg PUBLIC "-//W3C//DTD SVG 20010904//EN"
 "http://www.w3.org/TR/2001/REC-SVG-20010904/DTD/svg10.dtd">
<svg version="1.0" xmlns="http://www.w3.org/2000/svg"
 width="101.000000pt" height="101.000000pt" viewBox="0 0 101.000000 101.000000"
 preserveAspectRatio="xMidYMid meet">
<metadata>
Created by potrace 1.16, written by Peter Selinger 2001-2019
</metadata>
<g transform="translate(0.000000,101.000000) scale(0.100000,-0.100000)"
fill="#000000" stroke="none">
<path d="M458 904 c-9 -3 -18 -11 -21 -17 -4 -11 -264 -649 -273 -672 -3 -6
19 -10 54 -10 l59 0 108 287 c60 158 110 286 112 285 1 -2 52 -131 112 -286
60 -156 112 -285 114 -288 10 -10 85 -15 100 -7 14 8 -60 202 -265 696 -4 9
-78 18 -100 12z"/>
</g>
</svg>
