<?xml version="1.0" standalone="no"?>
<!DOCTYPE svg PUBLIC "-//W3C//DTD SVG 20010904//EN"
 "http://www.w3.org/TR/2001/REC-SVG-20010904/DTD/svg10.dtd">
<svg version="1.0" xmlns="http://www.w3.org/2000/svg"
 width="101.000000pt" height="101.000000pt" viewBox="0 0 101.000000 101.000000"
 preserveAspectRatio="xMidYMid meet">
<metadata>
Created by potrace 1.16, written by Peter Selinger 2001-2019
</metadata>
<g transform="translate(0.000000,101.000000) scale(0.100000,-0.100000)"
fill="#000000" stroke="none">
<path d="M250 902 c-9 -4 -15 -22 -16 -44 -1 -35 1 -38 30 -43 17 -3 87 -4
155 -1 l124 4 -153 -146 c-142 -136 -151 -147 -130 -156 15 -7 28 -6 41 2 20
13 95 15 188 5 l53 -6 -158 -158 -157 -157 36 -7 c19 -4 62 -4 94 -1 32 4 74
6 93 5 302 -8 329 -4 330 43 0 34 -28 48 -101 48 -39 0 -69 -4 -69 -10 0 -5
-16 -10 -35 -10 -19 0 -35 5 -35 10 0 6 -19 10 -42 10 l-43 0 155 156 155 156
-98 -7 c-64 -4 -103 -3 -111 4 -7 6 -33 10 -58 8 l-45 -2 101 95 c56 53 126
119 156 148 l55 52 -95 -1 c-52 0 -123 0 -157 0 -35 0 -91 0 -125 -1 -35 0
-76 2 -93 5 -16 4 -37 3 -45 -1z"/>
</g>
</svg>
