<?xml version="1.0" standalone="no"?>
<!DOCTYPE svg PUBLIC "-//W3C//DTD SVG 20010904//EN"
 "http://www.w3.org/TR/2001/REC-SVG-20010904/DTD/svg10.dtd">
<svg version="1.0" xmlns="http://www.w3.org/2000/svg"
 width="101.000000pt" height="106.000000pt" viewBox="0 0 101.000000 106.000000"
 preserveAspectRatio="xMidYMid meet">
<metadata>
Created by potrace 1.16, written by Peter Selinger 2001-2019
</metadata>
<g transform="translate(0.000000,106.000000) scale(0.100000,-0.100000)"
fill="#000000" stroke="none">
<path d="M434 1050 c-12 -5 -36 -11 -53 -13 -44 -7 -155 -61 -201 -97 -70 -55
-131 -166 -167 -301 -27 -104 25 -287 113 -395 56 -70 180 -139 286 -160 128
-26 300 20 411 110 91 73 175 263 169 381 -1 11 -2 33 -2 50 -1 16 -6 35 -11
41 -6 7 -11 23 -12 36 -4 44 -69 156 -120 207 -30 31 -81 67 -122 87 -84 41
-105 47 -167 45 -27 0 -48 3 -48 8 0 10 -49 11 -76 1z m147 -44 c13 -3 37 -8
53 -11 78 -16 182 -91 237 -172 57 -82 91 -222 76 -308 -3 -16 -8 -46 -11 -65
-11 -59 -63 -153 -113 -205 -52 -52 -161 -110 -227 -120 -22 -3 -45 -10 -52
-16 -8 -6 -22 -7 -36 -3 -13 5 -32 9 -43 10 -95 10 -155 31 -232 82 -131 85
-205 262 -179 427 12 72 18 93 46 150 37 77 107 148 181 185 70 36 98 42 174
41 33 -1 67 3 75 8 8 5 17 8 20 6 4 -2 17 -6 31 -9z"/>
<path d="M453 909 c-7 -7 -13 -10 -13 -6 0 12 -73 -22 -98 -46 -26 -24 -72
-111 -72 -136 0 -26 14 -40 46 -47 32 -6 70 18 59 36 -8 12 18 72 37 88 41 34
135 31 169 -5 9 -10 19 -40 22 -67 4 -42 2 -52 -19 -73 -13 -12 -33 -24 -46
-25 -13 -1 -32 -2 -43 -3 -11 -1 -27 -3 -36 -4 -19 -1 -30 -31 -22 -60 6 -23
40 -34 65 -20 31 17 106 -23 123 -65 30 -71 -10 -147 -85 -162 -100 -20 -167
15 -175 91 -1 11 -3 25 -4 31 -1 13 -56 24 -84 16 -16 -4 -18 -11 -13 -46 10
-62 44 -123 81 -146 47 -29 125 -51 144 -41 9 5 32 8 51 7 35 -3 100 23 134
53 32 28 61 95 68 156 2 17 -22 89 -35 106 -6 8 -24 23 -39 33 l-28 18 30 30
c17 16 30 35 31 41 7 99 3 132 -22 167 -25 35 -73 64 -122 77 -52 13 -93 14
-104 2z"/>
</g>
</svg>
