<?xml version="1.0" standalone="no"?>
<!DOCTYPE svg PUBLIC "-//W3C//DTD SVG 20010904//EN"
 "http://www.w3.org/TR/2001/REC-SVG-20010904/DTD/svg10.dtd">
<svg version="1.0" xmlns="http://www.w3.org/2000/svg"
 width="101.000000pt" height="106.000000pt" viewBox="0 0 101.000000 106.000000"
 preserveAspectRatio="xMidYMid meet">
<metadata>
Created by potrace 1.16, written by Peter Selinger 2001-2019
</metadata>
<g transform="translate(0.000000,106.000000) scale(0.100000,-0.100000)"
fill="#000000" stroke="none">
<path d="M434 1050 c-12 -5 -36 -11 -53 -13 -44 -7 -155 -61 -201 -97 -50 -39
-113 -135 -135 -202 -10 -29 -22 -59 -27 -65 -6 -7 -8 -19 -5 -28 4 -8 1 -17
-5 -21 -26 -16 11 -193 62 -295 75 -148 241 -247 425 -253 93 -4 245 51 328
118 70 56 140 184 163 301 15 76 15 86 1 109 -9 13 -16 36 -16 52 0 44 -7 68
-41 138 -42 84 -117 159 -205 202 -84 41 -105 47 -167 45 -27 0 -48 3 -48 8 0
10 -49 11 -76 1z m147 -44 c13 -3 37 -8 53 -11 78 -16 182 -91 237 -172 59
-86 92 -223 75 -313 -4 -19 -9 -48 -12 -65 -7 -52 -61 -149 -111 -200 -52 -52
-161 -110 -227 -120 -22 -3 -45 -10 -52 -16 -8 -6 -22 -7 -36 -3 -13 5 -32 9
-43 10 -130 14 -251 73 -314 152 -55 71 -98 176 -92 229 1 11 -2 23 -6 26 -10
6 -8 44 6 131 21 127 110 250 222 306 70 36 98 42 174 41 33 -1 67 3 75 8 8 5
17 8 20 6 4 -2 17 -6 31 -9z"/>
<path d="M502 818 c-250 -339 -260 -355 -248 -402 6 -26 40 -40 65 -27 19 10
142 13 192 5 40 -6 40 -5 40 -110 0 -56 11 -67 63 -57 23 5 25 9 25 57 0 105
-2 102 49 104 54 2 55 3 55 42 0 39 -1 40 -56 42 l-46 2 0 41 c-1 52 0 93 2
248 2 137 -1 147 -50 147 -17 0 -40 -23 -91 -92z m43 -220 l6 -126 -28 -5
c-15 -3 -50 -4 -78 -1 -27 2 -60 4 -73 5 -22 1 -22 2 11 48 18 25 59 83 92
128 32 46 60 82 62 80 1 -2 5 -60 8 -129z"/>
</g>
</svg>
