<?xml version="1.0" standalone="no"?>
<!DOCTYPE svg PUBLIC "-//W3C//DTD SVG 20010904//EN"
 "http://www.w3.org/TR/2001/REC-SVG-20010904/DTD/svg10.dtd">
<svg version="1.0" xmlns="http://www.w3.org/2000/svg"
 width="101.000000pt" height="106.000000pt" viewBox="0 0 101.000000 106.000000"
 preserveAspectRatio="xMidYMid meet">
<metadata>
Created by potrace 1.16, written by Peter Selinger 2001-2019
</metadata>
<g transform="translate(0.000000,106.000000) scale(0.100000,-0.100000)"
fill="#000000" stroke="none">
<path d="M434 1050 c-12 -5 -36 -11 -53 -13 -44 -7 -155 -61 -201 -97 -70 -55
-131 -166 -167 -301 -27 -104 25 -287 113 -395 56 -70 180 -139 286 -160 128
-26 300 20 411 110 91 73 175 263 169 381 -1 11 -2 33 -2 50 -1 16 -5 34 -9
40 -4 5 -16 35 -25 65 -38 118 -118 210 -231 266 -84 41 -105 47 -167 45 -27
0 -48 3 -48 8 0 10 -49 11 -76 1z m147 -44 c13 -3 37 -8 53 -11 78 -16 182
-91 237 -172 58 -84 92 -221 76 -308 -3 -16 -8 -46 -11 -65 -11 -59 -63 -153
-113 -205 -52 -52 -161 -110 -227 -120 -22 -3 -45 -10 -52 -16 -8 -6 -22 -7
-36 -3 -13 5 -32 9 -43 10 -95 10 -155 31 -232 82 -131 85 -205 261 -179 427
24 156 104 273 227 336 70 35 98 41 174 40 33 -1 67 3 75 8 8 5 17 8 20 6 4
-2 17 -6 31 -9z"/>
<path d="M336 881 c-9 -16 -15 -42 -16 -57 0 -42 -6 -86 -15 -107 -4 -9 -5
-26 -2 -37 3 -11 1 -22 -3 -25 -5 -3 -9 -30 -9 -59 0 -51 2 -55 29 -65 25 -8
34 -6 66 20 35 27 100 53 114 44 3 -2 19 -6 35 -9 49 -9 85 -55 91 -114 9 -97
-36 -154 -124 -158 -66 -3 -111 21 -131 68 -12 28 -22 38 -41 39 -29 2 -62 0
-67 -5 -9 -9 30 -103 53 -127 38 -40 128 -73 156 -58 11 6 33 9 48 5 71 -14
166 50 194 130 8 25 13 51 10 59 -3 7 -1 23 5 34 16 28 -19 118 -62 159 -30
29 -129 71 -169 72 -9 0 -36 -9 -60 -19 l-45 -19 4 27 c2 14 6 49 9 76 l6 50
50 -4 c28 -2 55 2 61 8 14 14 50 14 63 1 5 -5 32 -7 62 -3 56 6 68 21 57 66
-6 21 -14 25 -58 31 -79 9 -157 7 -157 -4 0 -5 -11 -10 -25 -10 -14 0 -25 5
-25 10 0 6 -20 10 -45 10 -39 0 -46 -4 -59 -29z"/>
</g>
</svg>
