<?xml version="1.0" standalone="no"?>
<!DOCTYPE svg PUBLIC "-//W3C//DTD SVG 20010904//EN"
 "http://www.w3.org/TR/2001/REC-SVG-20010904/DTD/svg10.dtd">
<svg version="1.0" xmlns="http://www.w3.org/2000/svg"
 width="101.000000pt" height="106.000000pt" viewBox="0 0 101.000000 106.000000"
 preserveAspectRatio="xMidYMid meet">
<metadata>
Created by potrace 1.16, written by Peter Selinger 2001-2019
</metadata>
<g transform="translate(0.000000,106.000000) scale(0.100000,-0.100000)"
fill="#000000" stroke="none">
<path d="M434 1050 c-12 -5 -36 -11 -53 -13 -44 -7 -155 -61 -201 -97 -22 -17
-57 -58 -79 -90 -47 -72 -98 -213 -92 -260 1 -8 3 -37 5 -65 8 -142 87 -285
198 -357 131 -87 272 -112 408 -73 138 39 216 92 281 188 51 78 95 217 91 292
-1 11 -2 33 -2 50 -1 16 -5 34 -9 40 -4 5 -16 35 -25 65 -38 118 -118 210
-231 266 -84 41 -105 47 -167 45 -27 0 -48 3 -48 8 0 10 -49 11 -76 1z m147
-44 c13 -3 37 -8 53 -11 78 -16 182 -91 237 -172 57 -83 91 -221 76 -308 -3
-16 -8 -46 -11 -65 -11 -59 -63 -153 -113 -205 -52 -52 -161 -110 -227 -120
-22 -3 -45 -10 -52 -16 -8 -6 -22 -7 -36 -3 -13 5 -32 9 -43 10 -95 10 -155
31 -232 82 -199 129 -245 441 -95 641 46 60 83 91 148 124 65 33 94 39 169 38
33 -1 67 3 75 8 8 5 17 8 20 6 4 -2 17 -6 31 -9z"/>
<path d="M487 914 c-4 -4 -17 -9 -28 -11 -58 -9 -138 -85 -160 -152 -6 -20
-16 -42 -21 -48 -6 -7 -8 -19 -5 -28 4 -8 2 -17 -3 -20 -13 -8 -13 -85 -1 -85
5 0 9 -37 8 -82 -2 -71 2 -91 24 -139 15 -32 42 -68 61 -83 47 -35 125 -58
150 -45 11 6 26 8 34 5 21 -8 83 20 118 52 38 35 66 99 59 133 -3 15 0 36 6
47 15 29 -21 123 -59 156 -16 13 -58 33 -93 45 -62 20 -67 20 -113 4 -27 -8
-56 -22 -65 -29 -26 -23 -38 -17 -29 14 5 15 13 45 19 67 12 45 54 92 92 102
64 16 114 -7 142 -67 13 -27 35 -35 73 -26 21 6 24 11 20 36 -10 65 -75 129
-148 147 -53 12 -74 14 -81 7z m58 -338 c37 -7 73 -42 84 -83 9 -32 9 -44 -4
-104 -15 -69 -111 -102 -184 -65 -98 51 -80 240 24 252 15 1 29 5 32 8 3 3 9
4 13 1 3 -2 19 -6 35 -9z"/>
</g>
</svg>
