<?xml version="1.0" standalone="no"?>
<!DOCTYPE svg PUBLIC "-//W3C//DTD SVG 20010904//EN"
 "http://www.w3.org/TR/2001/REC-SVG-20010904/DTD/svg10.dtd">
<svg version="1.0" xmlns="http://www.w3.org/2000/svg"
 width="101.000000pt" height="101.000000pt" viewBox="0 0 101.000000 101.000000"
 preserveAspectRatio="xMidYMid meet">
<metadata>
Created by potrace 1.16, written by Peter Selinger 2001-2019
</metadata>
<g transform="translate(0.000000,101.000000) scale(0.100000,-0.100000)"
fill="#000000" stroke="none">
<path d="M250 904 c-10 -3 -15 -18 -15 -49 1 -44 1 -45 143 -176 78 -72 140
-134 137 -139 -2 -4 -68 -63 -145 -130 -77 -68 -142 -131 -145 -141 -3 -9 -3
-29 1 -43 7 -31 46 -41 131 -32 32 4 74 6 93 5 222 -5 312 -2 320 11 12 18 12
41 2 57 -11 17 -232 31 -232 15 0 -7 -15 -12 -35 -12 -19 0 -35 4 -35 9 0 6
-18 11 -39 13 l-39 3 139 120 c76 66 138 125 138 130 -1 6 -33 39 -73 75 -39
36 -103 94 -141 130 l-70 65 44 -2 c24 -2 50 2 57 8 9 7 55 9 142 5 141 -7
149 -4 136 50 -6 24 -9 24 -98 23 -50 0 -119 0 -153 0 -35 0 -91 0 -125 -1
-35 0 -76 2 -93 5 -16 3 -37 3 -45 1z"/>
</g>
</svg>
