<?xml version="1.0" standalone="no"?>
<!DOCTYPE svg PUBLIC "-//W3C//DTD SVG 20010904//EN"
 "http://www.w3.org/TR/2001/REC-SVG-20010904/DTD/svg10.dtd">
<svg version="1.0" xmlns="http://www.w3.org/2000/svg"
 width="102.000000pt" height="104.000000pt" viewBox="0 0 102.000000 104.000000"
 preserveAspectRatio="xMidYMid meet">
<metadata>
Created by potrace 1.16, written by Peter Selinger 2001-2019
</metadata>
<g transform="translate(0.000000,104.000000) scale(0.100000,-0.100000)"
fill="#000000" stroke="none">
<path d="M144 993 c-53 -81 -104 -191 -120 -258 -7 -29 -10 -38 -18 -55 -7
-16 -2 -208 7 -250 16 -76 97 -250 150 -321 16 -21 48 -31 66 -20 12 8 7 27
-31 108 -41 88 -57 131 -76 213 -6 26 -4 248 3 314 6 54 42 158 81 238 19 37
34 70 34 73 0 3 -15 5 -33 5 -28 0 -37 -7 -63 -47z"/>
<path d="M790 999 c30 -57 88 -203 95 -235 14 -64 20 -269 10 -352 -7 -59 -39
-150 -85 -242 -37 -73 -38 -78 -20 -83 37 -10 56 4 97 71 54 90 67 115 93 192
26 78 31 111 32 232 1 111 0 129 -11 143 -5 5 -14 28 -21 50 -16 50 -80 178
-113 225 -20 28 -31 35 -60 35 l-35 0 18 -36z"/>
<path d="M475 931 c-11 -5 -23 -7 -27 -4 -14 8 -107 -47 -127 -76 -12 -16 -21
-32 -21 -36 0 -4 -7 -22 -16 -41 -9 -19 -14 -44 -11 -56 5 -20 13 -23 51 -23
l45 -1 11 47 c18 74 39 85 174 89 33 1 67 -42 69 -86 2 -82 -20 -104 -108
-107 -62 -3 -63 -4 -70 -43 -9 -46 6 -58 77 -61 88 -3 111 -23 118 -98 3 -32
1 -67 -5 -78 -17 -35 -86 -78 -115 -72 -14 3 -41 8 -60 10 -45 5 -86 49 -95
103 -6 35 -10 40 -38 45 -58 8 -70 -1 -63 -47 11 -63 40 -121 77 -148 42 -31
136 -60 158 -48 9 4 32 7 51 6 38 -3 101 24 138 58 38 34 68 101 73 161 5 47
-33 121 -77 150 l-30 20 26 22 c15 12 35 43 45 68 15 41 16 52 4 92 -21 75
-80 129 -163 150 -45 11 -72 12 -91 4z"/>
</g>
</svg>
