<?xml version="1.0" standalone="no"?>
<!DOCTYPE svg PUBLIC "-//W3C//DTD SVG 20010904//EN"
 "http://www.w3.org/TR/2001/REC-SVG-20010904/DTD/svg10.dtd">
<svg version="1.0" xmlns="http://www.w3.org/2000/svg"
 width="102.000000pt" height="104.000000pt" viewBox="0 0 102.000000 104.000000"
 preserveAspectRatio="xMidYMid meet">
<metadata>
Created by potrace 1.16, written by Peter Selinger 2001-2019
</metadata>
<g transform="translate(0.000000,104.000000) scale(0.100000,-0.100000)"
fill="#000000" stroke="none">
<path d="M144 993 c-50 -77 -107 -198 -120 -255 -1 -5 -3 -9 -4 -10 -13 -14
-18 -244 -7 -298 16 -76 97 -250 150 -321 16 -21 48 -31 66 -20 12 8 7 27 -31
108 -54 115 -82 206 -82 268 0 258 17 353 90 497 19 37 34 70 34 73 0 3 -15 5
-33 5 -28 0 -37 -7 -63 -47z"/>
<path d="M795 990 c43 -86 95 -227 99 -271 9 -80 10 -263 2 -309 -11 -66 -42
-153 -86 -240 -37 -73 -38 -78 -20 -83 37 -10 56 4 97 71 55 90 67 116 93 192
23 69 25 80 35 207 5 66 3 89 -11 118 -9 20 -14 38 -11 41 14 14 -72 206 -126
284 -20 28 -31 35 -60 35 l-35 0 23 -45z"/>
<path d="M475 931 c-11 -5 -23 -7 -27 -4 -11 6 -81 -32 -105 -59 -25 -27 -63
-111 -63 -139 0 -31 38 -97 65 -115 l25 -16 -28 -21 c-56 -44 -90 -114 -71
-149 6 -11 8 -34 5 -50 -7 -38 23 -99 64 -128 46 -33 148 -62 172 -49 11 6 26
8 33 5 27 -10 110 23 142 56 36 38 66 100 57 122 -3 8 -1 23 5 34 17 31 -13
105 -60 147 -31 28 -36 37 -24 41 21 8 65 85 66 115 4 100 -66 187 -166 205
-11 2 -31 6 -45 9 -14 2 -34 1 -45 -4z m131 -132 c4 -6 7 -34 7 -61 0 -57 -21
-85 -69 -95 -98 -20 -157 27 -144 115 8 55 21 66 72 64 24 -1 49 2 57 7 16 10
64 -9 77 -30z m-50 -264 c70 -9 108 -89 82 -173 -13 -44 -79 -87 -117 -76 -14
4 -39 8 -54 10 -55 4 -99 67 -93 133 4 46 31 95 50 88 6 -3 27 4 46 14 19 10
42 16 50 12 8 -3 24 -7 36 -8z"/>
</g>
</svg>
