<?xml version="1.0" standalone="no"?>
<!DOCTYPE svg PUBLIC "-//W3C//DTD SVG 20010904//EN"
 "http://www.w3.org/TR/2001/REC-SVG-20010904/DTD/svg10.dtd">
<svg version="1.0" xmlns="http://www.w3.org/2000/svg"
 width="102.000000pt" height="104.000000pt" viewBox="0 0 102.000000 104.000000"
 preserveAspectRatio="xMidYMid meet">
<metadata>
Created by potrace 1.16, written by Peter Selinger 2001-2019
</metadata>
<g transform="translate(0.000000,104.000000) scale(0.100000,-0.100000)"
fill="#000000" stroke="none">
<path d="M144 993 c-62 -95 -108 -198 -127 -288 -2 -5 -5 -14 -8 -20 -7 -12
-4 -218 4 -255 16 -76 97 -250 150 -321 16 -21 48 -31 66 -20 12 8 7 27 -31
108 -26 54 -49 110 -52 125 -2 15 -7 31 -10 36 -13 22 -35 177 -36 255 0 78
10 87 107 91 l78 4 -3 -58 c-1 -33 2 -61 8 -65 13 -8 13 -152 0 -160 -11 -7
-13 -84 -4 -162 7 -55 19 -65 67 -56 24 5 25 9 32 100 5 65 4 98 -4 106 -14
14 -14 54 -1 62 13 8 13 142 1 150 -12 7 -13 172 -1 180 4 3 8 25 8 50 0 53
-19 79 -52 69 -11 -4 -21 -7 -22 -8 0 0 -11 -22 -22 -47 -25 -52 -50 -69 -110
-73 -23 -2 -42 -2 -42 -1 0 13 44 124 69 172 17 34 31 65 31 68 0 3 -15 5 -33
5 -28 0 -37 -7 -63 -47z"/>
<path d="M791 997 c11 -21 24 -48 28 -61 l9 -23 -79 5 c-47 3 -84 0 -92 -6
-17 -14 -164 -14 -187 0 -29 19 -70 -4 -70 -39 0 -57 5 -58 176 -55 l157 3
-19 -28 c-54 -81 -117 -196 -149 -269 -33 -79 -85 -251 -85 -285 0 -20 25 -28
67 -22 31 5 38 17 48 90 2 13 8 37 14 55 6 18 18 58 27 88 26 86 88 211 156
311 l62 92 13 -31 c14 -33 23 -72 28 -117 6 -55 7 -250 1 -280 -3 -16 -8 -45
-12 -64 -8 -45 -34 -113 -78 -200 -33 -65 -34 -69 -16 -74 37 -10 56 4 97 71
54 89 67 115 93 192 27 81 35 134 35 230 0 107 -21 183 -86 310 -61 122 -81
145 -122 145 l-35 0 19 -38z"/>
</g>
</svg>
