<?xml version="1.0" standalone="no"?>
<!DOCTYPE svg PUBLIC "-//W3C//DTD SVG 20010904//EN"
 "http://www.w3.org/TR/2001/REC-SVG-20010904/DTD/svg10.dtd">
<svg version="1.0" xmlns="http://www.w3.org/2000/svg"
 width="101.000000pt" height="101.000000pt" viewBox="0 0 101.000000 101.000000"
 preserveAspectRatio="xMidYMid meet">
<metadata>
Created by potrace 1.16, written by Peter Selinger 2001-2019
</metadata>
<g transform="translate(0.000000,101.000000) scale(0.100000,-0.100000)"
fill="#000000" stroke="none">
<path d="M398 923 c-10 -2 -18 -12 -18 -21 0 -48 -89 -126 -121 -106 -6 3 -21
3 -34 0 -30 -8 -42 -45 -25 -76 11 -21 17 -22 84 -16 l71 6 -3 -114 c-2 -72 1
-117 8 -121 13 -8 13 -48 -1 -62 -8 -8 -9 -41 -4 -107 7 -90 9 -97 31 -102 13
-3 35 -3 48 0 23 6 25 12 31 101 4 52 4 107 0 122 -8 28 -8 99 -3 351 3 152
-1 162 -64 145z"/>
<path d="M728 303 c-21 -5 -33 -56 -18 -82 23 -44 100 -17 100 34 0 42 -32 61
-82 48z"/>
</g>
</svg>
