<?xml version="1.0" standalone="no"?>
<!DOCTYPE svg PUBLIC "-//W3C//DTD SVG 20010904//EN"
 "http://www.w3.org/TR/2001/REC-SVG-20010904/DTD/svg10.dtd">
<svg version="1.0" xmlns="http://www.w3.org/2000/svg"
 width="101.000000pt" height="101.000000pt" viewBox="0 0 101.000000 101.000000"
 preserveAspectRatio="xMidYMid meet">
<metadata>
Created by potrace 1.16, written by Peter Selinger 2001-2019
</metadata>
<g transform="translate(0.000000,101.000000) scale(0.100000,-0.100000)"
fill="#000000" stroke="none">
<path d="M474 920 c-18 -7 -301 -388 -333 -448 -7 -13 -9 -36 -5 -57 8 -44 29
-49 182 -40 l117 7 1 -82 c2 -88 8 -100 54 -100 45 0 52 12 54 96 l1 79 48 1
c49 1 67 12 67 46 0 28 -29 48 -71 48 l-39 0 0 45 c0 25 -4 45 -10 45 -6 0
-10 33 -10 80 0 47 4 80 10 80 6 0 10 18 10 40 0 22 -5 40 -11 40 -7 0 -10 21
-7 60 4 70 -7 81 -58 60z m-39 -314 l1 -145 -64 -7 c-44 -4 -71 -3 -87 6 -13
7 -31 10 -41 6 -13 -5 -11 1 8 26 13 18 60 84 103 146 43 61 78 112 79 112 1
0 1 -65 1 -144z"/>
<path d="M769 283 c-14 -39 -4 -70 27 -77 47 -12 73 9 74 61 0 21 -31 43 -61
43 -23 0 -32 -6 -40 -27z"/>
</g>
</svg>
