<?xml version="1.0" standalone="no"?>
<!DOCTYPE svg PUBLIC "-//W3C//DTD SVG 20010904//EN"
 "http://www.w3.org/TR/2001/REC-SVG-20010904/DTD/svg10.dtd">
<svg version="1.0" xmlns="http://www.w3.org/2000/svg"
 width="101.000000pt" height="101.000000pt" viewBox="0 0 101.000000 101.000000"
 preserveAspectRatio="xMidYMid meet">
<metadata>
Created by potrace 1.16, written by Peter Selinger 2001-2019
</metadata>
<g transform="translate(0.000000,101.000000) scale(0.100000,-0.100000)"
fill="#000000" stroke="none">
<path d="M354 925 c-69 -22 -103 -44 -134 -86 -33 -46 -84 -193 -77 -221 3
-10 0 -21 -5 -24 -18 -11 0 -153 29 -227 31 -84 73 -128 148 -156 72 -27 102
-26 168 3 64 28 119 89 141 156 23 71 20 107 -17 180 -30 60 -37 67 -97 97
-43 22 -80 33 -108 33 -42 0 -108 -27 -146 -59 -18 -15 -19 -15 -12 4 4 11 9
29 11 40 18 109 63 163 141 169 62 5 90 -12 115 -70 18 -39 24 -44 52 -44 62
0 67 22 26 106 -21 45 -84 92 -131 99 -13 2 -32 6 -43 9 -11 2 -38 -1 -61 -9z
m85 -351 c11 7 58 -29 71 -55 19 -35 19 -112 0 -156 -22 -50 -45 -64 -111 -67
-61 -3 -105 21 -123 67 -17 42 -12 138 8 169 17 26 62 52 75 44 4 -3 13 -1 21
4 8 5 22 4 32 -1 10 -6 22 -8 27 -5z"/>
<path d="M762 298 c-14 -14 -16 -57 -4 -76 14 -22 76 -26 95 -7 21 21 22 59 1
79 -18 19 -75 21 -92 4z"/>
</g>
</svg>
