<?xml version="1.0" standalone="no"?>
<!DOCTYPE svg PUBLIC "-//W3C//DTD SVG 20010904//EN"
 "http://www.w3.org/TR/2001/REC-SVG-20010904/DTD/svg10.dtd">
<svg version="1.0" xmlns="http://www.w3.org/2000/svg"
 width="101.000000pt" height="101.000000pt" viewBox="0 0 101.000000 101.000000"
 preserveAspectRatio="xMidYMid meet">
<metadata>
Created by potrace 1.16, written by Peter Selinger 2001-2019
</metadata>
<g transform="translate(0.000000,101.000000) scale(0.100000,-0.100000)"
fill="#000000" stroke="none">
<path d="M560 923 c-25 -9 -59 -26 -77 -39 -29 -22 -78 -108 -89 -158 -18 -79
-22 -188 -11 -266 19 -130 74 -216 160 -249 118 -43 239 21 283 151 22 64 25
80 29 140 2 26 6 52 10 58 4 6 0 19 -9 29 -12 13 -16 34 -14 72 5 117 -61 223
-162 259 -64 23 -61 23 -120 3z m147 -136 c14 -21 24 -55 29 -99 4 -38 11 -68
15 -68 13 0 11 -134 -3 -167 -6 -15 -13 -38 -14 -51 -4 -34 -42 -90 -67 -98
-89 -29 -153 15 -173 121 -11 59 -5 244 10 310 2 11 5 23 5 27 1 3 12 20 26
36 18 22 31 28 49 25 13 -3 32 -1 42 5 24 14 54 -2 81 -41z"/>
<path d="M230 908 c0 -5 1 -9 2 -10 0 -2 -6 -18 -16 -35 -22 -44 -53 -63 -110
-67 -54 -4 -52 -3 -61 -37 -11 -43 15 -59 93 -56 l67 2 -4 -48 c-1 -27 2 -54
8 -60 13 -13 15 -54 2 -61 -13 -8 -12 -108 1 -123 7 -9 9 -46 5 -107 -6 -104
-4 -108 60 -99 26 4 32 11 37 36 9 53 6 216 -4 222 -13 8 -13 52 0 60 13 8 13
142 1 150 -13 8 -13 166 1 182 5 7 8 23 4 36 -4 19 -12 23 -46 22 -22 0 -40
-3 -40 -7z"/>
<path d="M869 303 c-33 -8 -32 -87 1 -96 35 -9 70 4 72 27 5 68 -14 85 -73 69z"/>
</g>
</svg>
