<?xml version="1.0" standalone="no"?>
<!DOCTYPE svg PUBLIC "-//W3C//DTD SVG 20010904//EN"
 "http://www.w3.org/TR/2001/REC-SVG-20010904/DTD/svg10.dtd">
<svg version="1.0" xmlns="http://www.w3.org/2000/svg"
 width="101.000000pt" height="101.000000pt" viewBox="0 0 101.000000 101.000000"
 preserveAspectRatio="xMidYMid meet">
<metadata>
Created by potrace 1.16, written by Peter Selinger 2001-2019
</metadata>
<g transform="translate(0.000000,101.000000) scale(0.100000,-0.100000)"
fill="#000000" stroke="none">
<path d="M278 923 c-10 -2 -18 -9 -18 -15 0 -23 -35 -81 -57 -95 -15 -10 -42
-16 -69 -15 -40 2 -46 -1 -54 -24 -22 -58 11 -81 101 -71 l49 6 0 -44 c0 -25
5 -45 10 -45 6 0 10 -11 10 -25 0 -14 -4 -25 -10 -25 -6 0 -10 -30 -10 -70 0
-40 4 -70 10 -70 6 0 10 -11 10 -25 0 -14 -5 -25 -11 -25 -16 0 -3 -161 14
-172 10 -7 76 -2 85 7 3 3 4 151 2 330 0 55 1 160 2 233 3 152 -1 162 -64 145z"/>
<path d="M650 908 c0 -5 1 -9 2 -10 0 -2 -6 -18 -16 -35 -22 -44 -59 -67 -104
-65 -46 2 -59 -6 -67 -39 -11 -46 17 -63 94 -56 l66 5 2 -126 c1 -70 2 -143 3
-162 1 -19 -1 -62 -4 -95 -3 -33 -2 -74 3 -90 7 -27 11 -30 49 -29 23 0 45 4
49 8 13 12 15 243 4 251 -14 8 -14 52 -1 60 13 8 13 142 1 150 -13 8 -13 166
1 182 5 7 8 23 4 36 -4 19 -12 23 -46 22 -22 0 -40 -3 -40 -7z"/>
<path d="M827 295 c-18 -17 -22 -53 -9 -70 4 -5 28 -10 54 -11 37 0 49 4 53
17 7 20 -4 69 -15 69 -4 0 -21 3 -37 6 -21 4 -35 1 -46 -11z"/>
</g>
</svg>
