<?xml version="1.0" standalone="no"?>
<!DOCTYPE svg PUBLIC "-//W3C//DTD SVG 20010904//EN"
 "http://www.w3.org/TR/2001/REC-SVG-20010904/DTD/svg10.dtd">
<svg version="1.0" xmlns="http://www.w3.org/2000/svg"
 width="101.000000pt" height="101.000000pt" viewBox="0 0 101.000000 101.000000"
 preserveAspectRatio="xMidYMid meet">
<metadata>
Created by potrace 1.16, written by Peter Selinger 2001-2019
</metadata>
<g transform="translate(0.000000,101.000000) scale(0.100000,-0.100000)"
fill="#000000" stroke="none">
<path d="M522 921 c-67 -23 -99 -52 -128 -117 -29 -65 -29 -110 0 -118 52 -14
92 9 82 48 -6 24 27 85 46 87 7 1 29 0 48 0 19 -1 41 3 49 8 19 12 67 -12 75
-36 3 -10 6 -40 8 -67 2 -43 -2 -52 -27 -73 -23 -21 -35 -24 -67 -19 -48 8
-78 -7 -78 -39 0 -43 8 -51 45 -47 40 5 116 -27 137 -57 20 -28 14 -128 -9
-153 -28 -31 -64 -44 -119 -42 -83 3 -112 28 -119 101 -4 41 -17 53 -62 53
-47 0 -58 -27 -38 -88 33 -96 57 -120 153 -153 41 -14 59 -16 74 -8 11 6 26 8
33 5 27 -10 110 23 142 56 61 63 88 177 57 245 -14 30 -67 83 -84 83 -4 0 6
15 24 33 45 45 64 107 47 155 -30 83 -85 136 -156 149 -66 11 -85 11 -133 -6z"/>
<path d="M224 872 c-20 -52 -47 -71 -108 -76 -54 -4 -52 -3 -61 -37 -11 -43
15 -59 93 -56 l67 2 -4 -48 c-1 -27 2 -54 8 -60 13 -13 15 -54 2 -61 -13 -8
-12 -108 1 -123 7 -9 9 -47 5 -108 -5 -94 -5 -95 19 -101 43 -11 71 3 78 38 9
54 6 217 -4 223 -13 8 -13 52 0 60 13 8 13 142 1 150 -13 8 -13 166 1 182 5 7
8 23 4 36 -4 19 -12 23 -45 22 -38 0 -41 -2 -57 -43z"/>
<path d="M842 298 c-14 -14 -16 -57 -2 -78 11 -18 89 -17 102 2 11 17 1 70
-15 80 -19 12 -72 9 -85 -4z"/>
</g>
</svg>
