<?xml version="1.0" standalone="no"?>
<!DOCTYPE svg PUBLIC "-//W3C//DTD SVG 20010904//EN"
 "http://www.w3.org/TR/2001/REC-SVG-20010904/DTD/svg10.dtd">
<svg version="1.0" xmlns="http://www.w3.org/2000/svg"
 width="101.000000pt" height="101.000000pt" viewBox="0 0 101.000000 101.000000"
 preserveAspectRatio="xMidYMid meet">
<metadata>
Created by potrace 1.16, written by Peter Selinger 2001-2019
</metadata>
<g transform="translate(0.000000,101.000000) scale(0.100000,-0.100000)"
fill="#000000" stroke="none">
<path d="M562 922 c-69 -22 -116 -61 -149 -125 -31 -59 -35 -74 -33 -136 0
-28 -6 -51 -16 -62 -13 -15 -15 -30 -10 -71 4 -29 7 -60 7 -68 2 -30 39 -133
59 -166 57 -92 195 -123 300 -69 88 46 140 191 105 294 -23 69 -58 109 -122
138 -84 37 -157 27 -220 -30 -24 -21 -31 -10 -14 21 5 9 11 33 14 52 5 41 29
91 52 110 9 8 31 13 48 12 18 -1 38 2 46 7 29 18 77 -20 87 -68 7 -35 71 -53
97 -27 15 15 14 20 -4 64 -31 71 -86 121 -144 128 -11 1 -27 4 -35 7 -8 3 -39
-2 -68 -11z m82 -346 c16 -3 36 -12 46 -21 22 -20 53 -111 44 -127 -4 -6 -9
-25 -11 -42 -11 -102 -168 -125 -227 -34 -16 26 -19 42 -17 112 1 41 6 53 36
83 19 19 39 32 45 28 5 -3 18 -2 27 4 10 5 20 8 23 6 4 -2 19 -6 34 -9z"/>
<path d="M224 872 c-20 -52 -47 -71 -108 -76 -54 -4 -52 -3 -61 -37 -11 -46
17 -63 94 -56 l66 5 3 -111 c2 -62 3 -173 3 -248 -1 -151 -1 -151 66 -142 26
4 32 11 37 36 9 53 6 216 -4 222 -13 8 -13 52 0 60 13 8 13 142 1 150 -13 8
-13 166 1 182 5 7 8 23 4 36 -4 19 -12 23 -45 22 -38 0 -41 -2 -57 -43z"/>
<path d="M859 303 c-20 -5 -28 -31 -22 -66 6 -28 25 -36 70 -30 23 4 32 11 36
30 7 37 -3 63 -23 63 -10 0 -24 2 -32 4 -7 2 -20 2 -29 -1z"/>
</g>
</svg>
