<?xml version="1.0" standalone="no"?>
<!DOCTYPE svg PUBLIC "-//W3C//DTD SVG 20010904//EN"
 "http://www.w3.org/TR/2001/REC-SVG-20010904/DTD/svg10.dtd">
<svg version="1.0" xmlns="http://www.w3.org/2000/svg"
 width="101.000000pt" height="101.000000pt" viewBox="0 0 101.000000 101.000000"
 preserveAspectRatio="xMidYMid meet">
<metadata>
Created by potrace 1.16, written by Peter Selinger 2001-2019
</metadata>
<g transform="translate(0.000000,101.000000) scale(0.100000,-0.100000)"
fill="#000000" stroke="none">
<path d="M249 923 c-9 -2 -24 -24 -34 -49 -20 -52 -53 -78 -98 -76 -41 2 -54
-7 -61 -38 -11 -44 6 -55 81 -53 l68 2 -3 -106 c-1 -60 2 -111 8 -118 12 -14
11 -146 -1 -161 -5 -6 -6 -34 -2 -62 5 -46 8 -52 34 -57 49 -11 66 1 73 52 9
67 7 113 -4 113 -5 0 -10 11 -10 25 0 14 5 25 10 25 6 0 10 30 10 70 0 40 -4
70 -10 70 -6 0 -10 33 -10 80 0 47 4 80 10 80 6 0 10 18 10 40 0 22 -5 40 -11
40 -7 0 -10 21 -7 60 3 68 -4 77 -53 63z"/>
<path d="M368 913 c-23 -6 -32 -42 -19 -76 9 -24 16 -27 56 -27 25 0 45 5 45
10 0 6 16 10 35 10 20 0 35 -5 35 -11 0 -8 26 -10 88 -7 l88 5 -46 -71 c-57
-85 -114 -197 -147 -286 -13 -36 -27 -72 -30 -80 -4 -8 -8 -22 -9 -30 -2 -8
-6 -28 -10 -45 -14 -65 -11 -90 15 -93 55 -8 78 10 87 68 13 79 23 116 50 192
35 98 72 168 137 266 58 86 72 121 62 153 -6 17 -16 19 -93 18 -48 -1 -141 1
-207 4 -66 3 -128 3 -137 0z"/>
<path d="M858 299 c-20 -11 -23 -50 -8 -80 11 -19 55 -26 75 -11 13 9 13 85 0
94 -14 11 -47 9 -67 -3z"/>
</g>
</svg>
