<?xml version="1.0" standalone="no"?>
<!DOCTYPE svg PUBLIC "-//W3C//DTD SVG 20010904//EN"
 "http://www.w3.org/TR/2001/REC-SVG-20010904/DTD/svg10.dtd">
<svg version="1.0" xmlns="http://www.w3.org/2000/svg"
 width="101.000000pt" height="101.000000pt" viewBox="0 0 101.000000 101.000000"
 preserveAspectRatio="xMidYMid meet">
<metadata>
Created by potrace 1.16, written by Peter Selinger 2001-2019
</metadata>
<g transform="translate(0.000000,101.000000) scale(0.100000,-0.100000)"
fill="#000000" stroke="none">
<path d="M188 903 c-20 -5 -32 -48 -19 -72 6 -10 8 -21 5 -24 -8 -8 36 -125
62 -168 31 -50 89 -96 149 -118 41 -15 51 -24 53 -45 2 -14 8 -26 14 -26 7 0
9 -43 7 -127 -4 -140 -3 -144 58 -128 l25 6 -7 149 c-7 152 -7 157 28 151 21
-3 137 61 169 95 50 53 87 135 93 211 2 17 6 36 10 42 3 6 4 19 1 29 -5 14
-16 17 -53 16 -54 -2 -62 -13 -61 -85 2 -87 -76 -189 -154 -203 l-28 -5 3 139
c1 76 -1 141 -4 144 -16 16 -67 17 -83 1 -15 -15 -17 -35 -13 -150 4 -149 7
-145 -68 -94 -39 26 -101 119 -89 132 3 3 2 11 -2 19 -4 7 -7 29 -5 49 3 52
-33 77 -91 62z"/>
</g>
</svg>
