<?xml version="1.0" standalone="no"?>
<!DOCTYPE svg PUBLIC "-//W3C//DTD SVG 20010904//EN"
 "http://www.w3.org/TR/2001/REC-SVG-20010904/DTD/svg10.dtd">
<svg version="1.0" xmlns="http://www.w3.org/2000/svg"
 width="101.000000pt" height="101.000000pt" viewBox="0 0 101.000000 101.000000"
 preserveAspectRatio="xMidYMid meet">
<metadata>
Created by potrace 1.16, written by Peter Selinger 2001-2019
</metadata>
<g transform="translate(0.000000,101.000000) scale(0.100000,-0.100000)"
fill="#000000" stroke="none">
<path d="M468 906 c-15 -8 -41 -14 -57 -14 -68 2 -167 -74 -198 -151 -8 -20
-19 -46 -25 -58 -6 -13 -8 -45 -4 -85 4 -35 7 -67 8 -73 2 -27 54 -126 92
-176 l43 -55 -28 4 c-65 10 -97 -18 -84 -70 6 -22 9 -23 125 -25 l119 -1 6 29
c10 44 0 62 -74 136 -86 86 -112 148 -106 249 3 38 5 74 5 81 0 21 63 85 97
100 18 7 61 16 94 18 104 9 198 -50 225 -140 10 -32 10 -125 1 -162 -17 -67
-66 -132 -150 -201 -26 -21 -28 -27 -22 -65 4 -23 10 -46 13 -51 8 -14 224 1
234 16 4 7 8 26 8 41 0 32 -17 41 -76 42 l-41 0 37 43 c41 46 69 98 95 181 31
94 -3 228 -78 303 -34 34 -126 80 -167 84 -14 1 -34 5 -45 8 -11 4 -32 0 -47
-8z"/>
</g>
</svg>
