<?xml version="1.0" standalone="no"?>
<!DOCTYPE svg PUBLIC "-//W3C//DTD SVG 20010904//EN"
 "http://www.w3.org/TR/2001/REC-SVG-20010904/DTD/svg10.dtd">
<svg version="1.0" xmlns="http://www.w3.org/2000/svg"
 width="29.000000pt" height="101.000000pt" viewBox="0 0 29.000000 101.000000"
 preserveAspectRatio="xMidYMid meet">
<metadata>
Created by potrace 1.16, written by Peter Selinger 2001-2019
</metadata>
<g transform="translate(0.000000,101.000000) scale(0.100000,-0.100000)"
fill="#000000" stroke="none">
<path d="M40 992 c-17 -8 -22 -63 -6 -74 6 -5 30 -5 53 -2 39 6 41 5 36 -15
-3 -12 -1 -27 5 -34 14 -16 14 -174 1 -182 -12 -8 -12 -142 1 -150 13 -8 13
-52 0 -60 -13 -8 -12 -203 2 -224 7 -11 8 -41 4 -82 l-7 -64 -49 3 c-41 3 -50
1 -60 -17 -18 -34 -4 -59 37 -67 39 -7 160 0 171 11 4 4 6 61 5 128 -1 67 -2
139 -2 160 0 99 -1 201 -1 292 -1 55 1 147 4 205 4 58 4 119 1 136 -5 31 -6
32 -63 32 -31 -1 -70 2 -87 5 -16 4 -37 3 -45 -1z"/>
</g>
</svg>
