<?xml version="1.0" standalone="no"?>
<!DOCTYPE svg PUBLIC "-//W3C//DTD SVG 20010904//EN"
 "http://www.w3.org/TR/2001/REC-SVG-20010904/DTD/svg10.dtd">
<svg version="1.0" xmlns="http://www.w3.org/2000/svg"
 width="101.000000pt" height="101.000000pt" viewBox="0 0 101.000000 101.000000"
 preserveAspectRatio="xMidYMid meet">
<metadata>
Created by potrace 1.16, written by Peter Selinger 2001-2019
</metadata>
<g transform="translate(0.000000,101.000000) scale(0.100000,-0.100000)"
fill="#000000" stroke="none">
<path d="M480 1001 c-23 -9 -28 -226 -6 -234 34 -13 44 3 51 88 10 121 -3 163
-45 146z"/>
<path d="M468 659 c-21 -12 -26 -99 -7 -99 8 0 9 -19 5 -64 -7 -59 -6 -64 14
-69 39 -10 50 16 49 119 0 70 -4 98 -15 109 -18 17 -23 18 -46 4z"/>
<path d="M478 333 c-9 -2 -19 -12 -23 -21 -9 -23 5 -211 16 -218 5 -3 18 -3
28 1 16 5 20 20 25 103 9 122 1 145 -46 135z"/>
</g>
</svg>
