<?xml version="1.0" standalone="no"?>
<!DOCTYPE svg PUBLIC "-//W3C//DTD SVG 20010904//EN"
 "http://www.w3.org/TR/2001/REC-SVG-20010904/DTD/svg10.dtd">
<svg version="1.0" xmlns="http://www.w3.org/2000/svg"
 width="101.000000pt" height="101.000000pt" viewBox="0 0 101.000000 101.000000"
 preserveAspectRatio="xMidYMid meet">
<metadata>
Created by potrace 1.16, written by Peter Selinger 2001-2019
</metadata>
<g transform="translate(0.000000,101.000000) scale(0.100000,-0.100000)"
fill="#000000" stroke="none">
<path d="M490 584 c-12 -3 -14 -18 -12 -64 3 -39 0 -60 -7 -60 -6 0 -11 -18
-11 -40 0 -22 5 -40 10 -40 6 0 10 -33 10 -80 0 -47 -4 -80 -10 -80 -13 0 -13
-121 0 -154 10 -26 25 -32 47 -18 16 10 30 217 15 234 -14 17 -14 168 0 185 5
7 8 21 6 31 -4 15 1 17 40 15 25 -2 50 1 57 7 15 13 167 11 182 -2 18 -15 173
-5 183 12 4 6 5 21 3 31 -5 17 -15 19 -97 18 -50 0 -119 0 -153 0 -35 0 -91 0
-125 -1 -35 0 -76 2 -93 5 -16 3 -37 3 -45 1z"/>
</g>
</svg>
