<?xml version="1.0" standalone="no"?>
<!DOCTYPE svg PUBLIC "-//W3C//DTD SVG 20010904//EN"
 "http://www.w3.org/TR/2001/REC-SVG-20010904/DTD/svg10.dtd">
<svg version="1.0" xmlns="http://www.w3.org/2000/svg"
 width="101.000000pt" height="101.000000pt" viewBox="0 0 101.000000 101.000000"
 preserveAspectRatio="xMidYMid meet">
<metadata>
Created by potrace 1.16, written by Peter Selinger 2001-2019
</metadata>
<g transform="translate(0.000000,101.000000) scale(0.100000,-0.100000)"
fill="#000000" stroke="none">
<path d="M460 614 c-12 -3 -14 -18 -12 -64 3 -39 0 -60 -7 -60 -6 0 -11 -18
-11 -40 0 -22 5 -40 10 -40 6 0 10 -33 10 -80 0 -53 -4 -80 -11 -80 -13 0 -7
-179 6 -200 7 -12 84 -13 103 -1 17 10 29 185 14 203 -14 17 -14 168 0 185 5
7 8 21 6 31 -4 15 1 17 40 15 25 -2 50 1 57 7 14 12 173 12 180 -1 11 -16 132
-11 149 7 17 16 20 52 10 92 -6 22 -10 23 -113 22 -58 -1 -134 -1 -168 -1 -35
0 -91 0 -125 -1 -35 0 -76 2 -93 5 -16 3 -37 3 -45 1z"/>
</g>
</svg>
