<?xml version="1.0" standalone="no"?>
<!DOCTYPE svg PUBLIC "-//W3C//DTD SVG 20010904//EN"
 "http://www.w3.org/TR/2001/REC-SVG-20010904/DTD/svg10.dtd">
<svg version="1.0" xmlns="http://www.w3.org/2000/svg"
 width="101.000000pt" height="105.000000pt" viewBox="0 0 101.000000 105.000000"
 preserveAspectRatio="xMidYMid meet">
<metadata>
Created by potrace 1.16, written by Peter Selinger 2001-2019
</metadata>
<g transform="translate(0.000000,105.000000) scale(0.100000,-0.100000)"
fill="#000000" stroke="none">
<path d="M448 990 c3 -39 0 -60 -7 -60 -6 0 -11 -18 -11 -40 0 -22 5 -40 10
-40 6 0 10 -33 10 -80 0 -51 -4 -80 -11 -80 -7 0 -10 -19 -7 -52 l3 -53 -63 3
c-35 2 -68 -1 -75 -6 -15 -13 -174 -15 -182 -3 -6 11 -87 12 -104 2 -7 -5 -11
-21 -9 -37 3 -27 6 -29 50 -32 29 -2 48 1 48 7 0 6 16 11 35 11 19 0 35 -4 35
-10 0 -6 30 -10 70 -10 40 0 70 4 70 10 0 14 47 13 52 -1 3 -8 32 -9 100 -4
l96 7 0 127 c0 69 3 173 6 231 4 58 4 120 1 138 -6 32 -6 32 -63 32 l-57 0 3
-60z"/>
</g>
</svg>
