<?xml version="1.0" standalone="no"?>
<!DOCTYPE svg PUBLIC "-//W3C//DTD SVG 20010904//EN"
 "http://www.w3.org/TR/2001/REC-SVG-20010904/DTD/svg10.dtd">
<svg version="1.0" xmlns="http://www.w3.org/2000/svg"
 width="101.000000pt" height="105.000000pt" viewBox="0 0 101.000000 105.000000"
 preserveAspectRatio="xMidYMid meet">
<metadata>
Created by potrace 1.16, written by Peter Selinger 2001-2019
</metadata>
<g transform="translate(0.000000,105.000000) scale(0.100000,-0.100000)"
fill="#000000" stroke="none">
<path d="M448 990 c3 -39 0 -60 -7 -60 -6 0 -11 -18 -11 -40 0 -22 5 -40 10
-40 6 0 10 -33 10 -80 0 -47 -4 -80 -10 -80 -11 0 -13 -84 -4 -154 4 -25 12
-46 18 -46 8 0 10 -35 8 -114 -2 -72 1 -117 8 -121 13 -8 13 -52 0 -60 -24
-15 -7 -141 20 -148 41 -11 42 -1 41 228 0 22 1 77 2 123 l2 82 43 0 c23 0 42
5 42 10 0 6 16 10 35 10 19 0 35 -4 35 -10 0 -6 30 -10 70 -10 40 0 70 4 70
10 0 6 11 10 25 10 14 0 25 -4 25 -10 0 -11 89 -13 106 -2 6 4 14 28 18 53 10
65 -6 79 -89 79 -35 0 -66 -4 -70 -9 -7 -13 -166 -13 -180 -1 -7 6 -32 9 -58
7 l-46 -3 -6 72 c-4 40 -3 80 2 90 11 21 16 204 7 247 -5 26 -8 27 -62 27
l-57 0 3 -60z"/>
</g>
</svg>
