<?xml version="1.0" standalone="no"?>
<!DOCTYPE svg PUBLIC "-//W3C//DTD SVG 20010904//EN"
 "http://www.w3.org/TR/2001/REC-SVG-20010904/DTD/svg10.dtd">
<svg version="1.0" xmlns="http://www.w3.org/2000/svg"
 width="101.000000pt" height="101.000000pt" viewBox="0 0 101.000000 101.000000"
 preserveAspectRatio="xMidYMid meet">
<metadata>
Created by potrace 1.16, written by Peter Selinger 2001-2019
</metadata>
<g transform="translate(0.000000,101.000000) scale(0.100000,-0.100000)"
fill="#000000" stroke="none">
<path d="M20 612 c-17 -8 -22 -112 -6 -124 16 -11 224 -9 231 2 8 14 52 13 61
-1 5 -8 31 -10 83 -5 l77 6 -4 -66 c-3 -38 1 -82 8 -105 10 -30 10 -44 1 -68
-9 -20 -11 -56 -6 -119 6 -74 11 -91 25 -95 10 -2 24 -1 31 3 16 11 26 130 10
130 -6 0 -11 11 -11 25 0 14 5 25 10 25 6 0 10 30 10 70 0 40 -4 70 -10 70 -5
0 -10 16 -10 35 0 19 5 35 10 35 6 0 10 18 10 40 0 33 3 40 19 40 11 0 23 4
26 10 7 12 173 12 180 -1 7 -10 71 -12 167 -3 68 7 84 18 71 49 -4 13 -24 16
-107 15 -221 -3 -366 5 -366 18 0 9 -24 12 -92 11 -51 0 -121 0 -155 0 -35 0
-91 0 -125 -1 -35 0 -76 2 -93 5 -16 4 -37 3 -45 -1z"/>
</g>
</svg>
