<?xml version="1.0" standalone="no"?>
<!DOCTYPE svg PUBLIC "-//W3C//DTD SVG 20010904//EN"
 "http://www.w3.org/TR/2001/REC-SVG-20010904/DTD/svg10.dtd">
<svg version="1.0" xmlns="http://www.w3.org/2000/svg"
 width="101.000000pt" height="101.000000pt" viewBox="0 0 101.000000 101.000000"
 preserveAspectRatio="xMidYMid meet">
<metadata>
Created by potrace 1.16, written by Peter Selinger 2001-2019
</metadata>
<g transform="translate(0.000000,101.000000) scale(0.100000,-0.100000)"
fill="#000000" stroke="none">
<path d="M20 612 c-17 -8 -22 -112 -6 -124 14 -10 95 -8 101 3 8 12 167 10
182 -3 7 -6 45 -9 88 -6 l75 3 0 -42 c0 -24 5 -43 10 -43 14 0 13 -67 -1 -72
-8 -3 -9 -43 -4 -140 6 -118 10 -137 25 -141 10 -2 23 -1 30 3 16 10 26 135
11 144 -14 9 -14 53 -1 61 7 4 10 49 8 119 -3 104 -2 112 15 108 9 -2 23 1 30
6 17 14 168 14 185 0 17 -15 223 -1 235 15 7 11 4 93 -5 102 -3 3 -152 7 -260
6 -21 0 -73 0 -115 0 -43 0 -123 -1 -178 -1 -55 0 -128 -1 -162 -1 -35 0 -91
0 -125 -1 -35 0 -76 2 -93 5 -16 4 -37 3 -45 -1z"/>
</g>
</svg>
