<?xml version="1.0" standalone="no"?>
<!DOCTYPE svg PUBLIC "-//W3C//DTD SVG 20010904//EN"
 "http://www.w3.org/TR/2001/REC-SVG-20010904/DTD/svg10.dtd">
<svg version="1.0" xmlns="http://www.w3.org/2000/svg"
 width="101.000000pt" height="101.000000pt" viewBox="0 0 101.000000 101.000000"
 preserveAspectRatio="xMidYMid meet">
<metadata>
Created by potrace 1.16, written by Peter Selinger 2001-2019
</metadata>
<g transform="translate(0.000000,101.000000) scale(0.100000,-0.100000)"
fill="#000000" stroke="none">
<path d="M20 612 c-17 -8 -22 -112 -6 -124 16 -11 224 -9 231 2 8 14 52 13 61
-1 4 -8 28 -10 68 -7 l61 5 2 -81 c1 -44 2 -99 2 -121 -1 -142 2 -229 7 -234
12 -12 106 -4 115 10 12 19 11 109 -1 109 -5 0 -10 11 -10 25 0 14 5 25 10 25
6 0 10 30 10 70 0 40 -4 70 -10 70 -5 0 -10 16 -10 35 0 19 5 35 10 35 6 0 10
18 10 40 0 33 3 40 19 40 11 0 23 4 26 10 7 12 173 12 180 -1 13 -21 200 -6
209 17 14 36 -4 44 -93 43 -218 -1 -351 6 -351 19 0 10 -25 13 -107 12 -60 -1
-136 -1 -170 -1 -35 0 -91 0 -125 -1 -35 0 -76 2 -93 5 -16 4 -37 3 -45 -1z"/>
</g>
</svg>
