<?xml version="1.0" standalone="no"?>
<!DOCTYPE svg PUBLIC "-//W3C//DTD SVG 20010904//EN"
 "http://www.w3.org/TR/2001/REC-SVG-20010904/DTD/svg10.dtd">
<svg version="1.0" xmlns="http://www.w3.org/2000/svg"
 width="101.000000pt" height="105.000000pt" viewBox="0 0 101.000000 105.000000"
 preserveAspectRatio="xMidYMid meet">
<metadata>
Created by potrace 1.16, written by Peter Selinger 2001-2019
</metadata>
<g transform="translate(0.000000,105.000000) scale(0.100000,-0.100000)"
fill="#000000" stroke="none">
<path d="M478 990 c3 -39 0 -60 -7 -60 -6 0 -11 -18 -11 -40 0 -22 5 -40 10
-40 6 0 10 -33 10 -80 0 -51 -4 -80 -11 -80 -7 0 -10 -19 -7 -53 l3 -53 -77 4
c-47 3 -83 0 -90 -6 -16 -13 -175 -15 -183 -2 -6 10 -66 12 -98 3 -11 -3 -17
-14 -17 -33 0 -25 5 -30 34 -36 19 -3 61 -3 93 0 32 4 73 6 91 6 17 -1 87 -1
155 0 229 0 284 0 553 -1 73 0 91 10 78 45 -8 21 -226 37 -239 17 -8 -13 -166
-13 -182 1 -7 6 -21 8 -32 5 -17 -4 -19 4 -26 84 -3 48 -2 96 3 106 10 20 15
204 6 246 -4 21 -11 27 -32 27 -27 0 -27 -1 -24 -60z"/>
</g>
</svg>
