<?xml version="1.0" standalone="no"?>
<!DOCTYPE svg PUBLIC "-//W3C//DTD SVG 20010904//EN"
 "http://www.w3.org/TR/2001/REC-SVG-20010904/DTD/svg10.dtd">
<svg version="1.0" xmlns="http://www.w3.org/2000/svg"
 width="101.000000pt" height="105.000000pt" viewBox="0 0 101.000000 105.000000"
 preserveAspectRatio="xMidYMid meet">
<metadata>
Created by potrace 1.16, written by Peter Selinger 2001-2019
</metadata>
<g transform="translate(0.000000,105.000000) scale(0.100000,-0.100000)"
fill="#000000" stroke="none">
<path d="M448 990 c3 -39 0 -60 -7 -60 -6 0 -11 -18 -11 -40 0 -22 5 -40 10
-40 6 0 10 -33 10 -80 0 -51 -4 -80 -11 -80 -7 0 -10 -20 -7 -56 l3 -56 -132
7 c-96 5 -133 4 -133 -4 0 -6 -16 -11 -35 -11 -19 0 -35 5 -35 11 0 6 -19 9
-47 7 -46 -3 -48 -4 -51 -35 -3 -29 0 -32 32 -38 19 -4 61 -4 93 -1 32 4 74 6
93 5 19 0 77 0 128 0 74 1 92 -2 92 -14 0 -20 46 -25 200 -19 74 2 186 4 248
3 105 0 112 1 112 19 0 11 3 33 6 49 9 46 -15 63 -91 63 -35 0 -66 -4 -70 -9
-7 -13 -166 -13 -180 -1 -7 6 -32 9 -58 7 l-46 -3 -6 72 c-4 40 -3 80 2 90 11
21 16 204 7 247 -5 26 -8 27 -62 27 l-57 0 3 -60z"/>
</g>
</svg>
