<?xml version="1.0" standalone="no"?>
<!DOCTYPE svg PUBLIC "-//W3C//DTD SVG 20010904//EN"
 "http://www.w3.org/TR/2001/REC-SVG-20010904/DTD/svg10.dtd">
<svg version="1.0" xmlns="http://www.w3.org/2000/svg"
 width="101.000000pt" height="101.000000pt" viewBox="0 0 101.000000 101.000000"
 preserveAspectRatio="xMidYMid meet">
<metadata>
Created by potrace 1.16, written by Peter Selinger 2001-2019
</metadata>
<g transform="translate(0.000000,101.000000) scale(0.100000,-0.100000)"
fill="#000000" stroke="none">
<path d="M310 674 c-12 -4 -14 -18 -12 -64 3 -39 0 -60 -7 -60 -6 0 -11 -18
-11 -40 0 -22 5 -40 10 -40 6 0 10 -33 10 -80 0 -47 -4 -80 -10 -80 -17 0 -12
-87 6 -104 17 -17 27 -19 60 -10 19 5 21 11 16 50 -2 25 0 50 7 57 6 8 10 34
8 60 l-3 45 31 -21 c16 -12 68 -53 115 -92 47 -38 93 -76 103 -84 15 -12 20
-11 38 5 48 44 47 47 -71 141 -60 48 -110 90 -110 93 1 3 37 34 81 70 118 96
117 94 83 124 -37 32 -55 32 -85 0 -25 -27 -174 -154 -181 -154 -2 0 -4 38 -3
85 0 100 -12 116 -75 99z"/>
</g>
</svg>
