<?xml version="1.0" standalone="no"?>
<!DOCTYPE svg PUBLIC "-//W3C//DTD SVG 20010904//EN"
 "http://www.w3.org/TR/2001/REC-SVG-20010904/DTD/svg10.dtd">
<svg version="1.0" xmlns="http://www.w3.org/2000/svg"
 width="101.000000pt" height="102.000000pt" viewBox="0 0 101.000000 102.000000"
 preserveAspectRatio="xMidYMid meet">
<metadata>
Created by potrace 1.16, written by Peter Selinger 2001-2019
</metadata>
<g transform="translate(0.000000,102.000000) scale(0.100000,-0.100000)"
fill="#000000" stroke="none">
<path d="M436 670 c-27 -11 -60 -29 -73 -42 -26 -24 -61 -86 -70 -122 -2 -11
-7 -32 -10 -46 -12 -51 -13 -233 -3 -245 7 -9 9 -47 4 -114 l-7 -101 46 0 c32
0 47 5 51 16 10 25 7 94 -4 94 -5 0 -10 11 -10 25 0 14 5 25 10 25 6 0 10 18
10 40 0 40 1 40 23 26 107 -69 249 -19 292 103 21 60 30 147 18 174 -6 12 -19
43 -31 69 -24 53 -69 91 -127 107 -52 14 -61 14 -119 -9z m109 -84 c55 -23 77
-69 77 -162 0 -92 -50 -146 -125 -138 -69 9 -107 57 -111 141 -3 88 34 149 99
166 11 2 21 5 23 6 1 0 18 -5 37 -13z"/>
</g>
</svg>
