<?xml version="1.0" standalone="no"?>
<!DOCTYPE svg PUBLIC "-//W3C//DTD SVG 20010904//EN"
 "http://www.w3.org/TR/2001/REC-SVG-20010904/DTD/svg10.dtd">
<svg version="1.0" xmlns="http://www.w3.org/2000/svg"
 width="101.000000pt" height="101.000000pt" viewBox="0 0 101.000000 101.000000"
 preserveAspectRatio="xMidYMid meet">
<metadata>
Created by potrace 1.16, written by Peter Selinger 2001-2019
</metadata>
<g transform="translate(0.000000,101.000000) scale(0.100000,-0.100000)"
fill="#000000" stroke="none">
<path d="M426 803 c-38 -76 -119 -241 -181 -368 l-112 -230 59 3 c37 3 58 0
58 -7 0 -6 18 -11 40 -11 22 0 40 5 40 10 0 6 33 10 80 10 47 0 80 -4 80 -10
0 -6 30 -10 70 -10 40 0 70 4 70 10 0 14 47 13 52 -1 3 -8 31 -9 95 -4 l90 7
-181 369 c-99 203 -183 369 -186 369 -3 0 -36 -62 -74 -137z m215 -264 c77
-155 139 -283 137 -284 -3 -3 -161 -7 -285 -6 -35 0 -93 0 -130 0 -103 1 -144
4 -141 13 5 14 273 557 275 557 2 1 66 -125 144 -280z"/>
</g>
</svg>
