<?xml version="1.0" standalone="no"?>
<!DOCTYPE svg PUBLIC "-//W3C//DTD SVG 20010904//EN"
 "http://www.w3.org/TR/2001/REC-SVG-20010904/DTD/svg10.dtd">
<svg version="1.0" xmlns="http://www.w3.org/2000/svg"
 width="101.000000pt" height="101.000000pt" viewBox="0 0 101.000000 101.000000"
 preserveAspectRatio="xMidYMid meet">
<metadata>
Created by potrace 1.16, written by Peter Selinger 2001-2019
</metadata>
<g transform="translate(0.000000,101.000000) scale(0.100000,-0.100000)"
fill="#000000" stroke="none">
<path d="M468 883 c-10 -2 -15 -10 -11 -19 3 -8 2 -52 -2 -97 l-6 -83 -52 -18
c-61 -22 -111 -70 -127 -123 -6 -21 -16 -48 -22 -60 -6 -12 -8 -34 -4 -50 4
-15 8 -37 10 -49 12 -68 86 -152 153 -175 27 -9 33 -16 33 -40 0 -16 5 -29 11
-29 8 0 10 -23 7 -70 l-4 -70 42 0 42 0 -5 101 c-5 85 -4 101 8 97 16 -6 89
24 130 52 28 21 78 111 79 146 1 46 1 60 -2 79 -7 38 -31 100 -52 128 -19 26
-114 80 -141 80 -9 0 -12 24 -11 94 1 110 -9 124 -76 106z m-22 -445 c0 -81
-2 -148 -5 -148 -13 0 -63 38 -77 59 -19 26 -22 147 -5 179 6 11 22 29 35 40
48 37 51 30 52 -130z m193 77 c15 -35 17 -61 12 -137 -2 -26 -48 -75 -82 -87
l-30 -10 3 147 c2 81 7 150 13 154 18 13 68 -27 84 -67z"/>
</g>
</svg>
