<?xml version="1.0" standalone="no"?>
<!DOCTYPE svg PUBLIC "-//W3C//DTD SVG 20010904//EN"
 "http://www.w3.org/TR/2001/REC-SVG-20010904/DTD/svg10.dtd">
<svg version="1.0" xmlns="http://www.w3.org/2000/svg"
 width="101.000000pt" height="101.000000pt" viewBox="0 0 101.000000 101.000000"
 preserveAspectRatio="xMidYMid meet">
<metadata>
Created by potrace 1.16, written by Peter Selinger 2001-2019
</metadata>
<g transform="translate(0.000000,101.000000) scale(0.100000,-0.100000)"
fill="#000000" stroke="none">
<path d="M405 906 c-99 -32 -126 -48 -178 -106 -59 -65 -101 -172 -99 -250 2
-115 89 -263 181 -309 66 -34 172 -61 193 -50 11 6 26 8 34 5 23 -9 137 31
181 63 23 16 53 46 68 65 31 41 88 174 80 187 -3 5 -1 18 5 29 8 15 8 25 1 34
-6 7 -8 16 -5 19 10 10 -45 142 -77 186 -40 57 -101 98 -177 121 -99 31 -129
32 -207 6z m145 -32 c78 -9 159 -52 202 -106 94 -119 94 -307 0 -426 -50 -62
-169 -116 -252 -113 -89 2 -170 33 -229 86 -46 42 -89 125 -95 182 -1 21 -4
43 -6 48 -2 6 0 21 3 35 4 14 8 39 10 55 10 73 61 148 127 190 38 24 116 50
138 46 6 -1 20 3 30 8 9 6 24 8 32 4 8 -3 26 -7 40 -9z"/>
<path d="M480 816 c-3 -2 -17 -7 -31 -9 -53 -10 -129 -57 -155 -96 -27 -41
-67 -159 -58 -173 3 -4 7 -17 9 -28 7 -34 42 -104 64 -128 34 -35 65 -52 130
-72 60 -18 62 -18 128 2 226 67 257 364 49 470 -21 11 -48 22 -60 25 -46 11
-71 14 -76 9z m155 -91 c48 -36 85 -126 78 -191 -6 -65 -44 -125 -97 -159 -42
-25 -58 -30 -115 -29 -137 1 -216 80 -212 212 1 34 6 75 12 90 22 59 102 117
145 106 10 -3 37 -1 59 4 46 10 86 0 130 -33z"/>
</g>
</svg>
