<?xml version="1.0" standalone="no"?>
<!DOCTYPE svg PUBLIC "-//W3C//DTD SVG 20010904//EN"
 "http://www.w3.org/TR/2001/REC-SVG-20010904/DTD/svg10.dtd">
<svg version="1.0" xmlns="http://www.w3.org/2000/svg"
 width="101.000000pt" height="102.000000pt" viewBox="0 0 101.000000 102.000000"
 preserveAspectRatio="xMidYMid meet">
<metadata>
Created by potrace 1.16, written by Peter Selinger 2001-2019
</metadata>
<g transform="translate(0.000000,102.000000) scale(0.100000,-0.100000)"
fill="#000000" stroke="none">
<path d="M208 673 c-9 -2 -19 -12 -22 -21 -8 -31 -5 -86 6 -99 5 -7 8 -37 5
-70 -5 -63 20 -135 69 -200 24 -32 141 -96 166 -91 9 2 14 -13 15 -52 2 -30 5
-74 9 -97 5 -42 6 -43 44 -43 37 0 39 2 46 35 3 20 4 63 2 95 -3 45 -1 60 9
60 28 0 122 50 155 82 31 32 74 107 84 147 2 9 8 35 14 58 14 59 7 182 -11
194 -13 9 -58 4 -69 -8 -3 -2 -6 -35 -8 -71 -5 -119 -12 -156 -35 -202 -23
-44 -80 -92 -125 -105 l-23 -7 6 176 c4 97 4 184 1 194 -5 14 -15 18 -49 16
l-42 -2 -3 -46 c-2 -27 1 -46 7 -46 6 0 11 -16 11 -35 0 -20 -5 -35 -12 -35
-8 0 -9 -30 -4 -111 l6 -111 -27 6 c-50 13 -101 56 -127 109 -14 27 -23 54
-20 58 3 5 -2 22 -11 38 -17 34 -20 107 -5 116 15 9 12 42 -6 59 -15 16 -25
17 -56 9z"/>
</g>
</svg>
