<?xml version="1.0" standalone="no"?>
<!DOCTYPE svg PUBLIC "-//W3C//DTD SVG 20010904//EN"
 "http://www.w3.org/TR/2001/REC-SVG-20010904/DTD/svg10.dtd">
<svg version="1.0" xmlns="http://www.w3.org/2000/svg"
 width="101.000000pt" height="101.000000pt" viewBox="0 0 101.000000 101.000000"
 preserveAspectRatio="xMidYMid meet">
<metadata>
Created by potrace 1.16, written by Peter Selinger 2001-2019
</metadata>
<g transform="translate(0.000000,101.000000) scale(0.100000,-0.100000)"
fill="#000000" stroke="none">
<path d="M475 911 c-6 -19 -72 -85 -135 -133 -27 -21 -32 -30 -23 -39 9 -9 23
-5 60 16 26 15 57 36 68 46 21 19 21 18 22 -19 1 -20 4 -54 8 -75 9 -46 -2
-107 -18 -107 -7 0 -36 -12 -65 -26 -69 -34 -120 -116 -120 -190 1 -130 110
-237 233 -230 104 6 173 61 210 165 20 59 19 81 -8 143 -28 62 -81 112 -135
129 l-39 11 -7 76 c-12 145 -9 151 47 108 18 -13 47 -31 66 -41 28 -14 35 -14
42 -3 13 19 13 19 -53 67 -33 25 -73 62 -87 82 -28 42 -56 50 -66 20z m72
-375 c37 -8 61 -25 89 -62 23 -30 27 -45 27 -94 -1 -110 -56 -163 -168 -162
-69 0 -102 15 -136 64 -30 41 -31 147 -3 185 27 35 63 62 93 68 13 2 26 7 29
10 5 4 13 3 69 -9z"/>
</g>
</svg>
